g Airport_Tree
v -0.6628762 -5.849426E-07 -0.5633539
v -0.1516524 -5.849426E-07 -0.701767
v -0.1298968 0.385112 -1.138665
v -0.9020779 0.3851117 -0.9296026
v -0.995107 -5.849426E-07 -0.1508929
v -0.9312279 0.9499978 -0.9742328
v -0.127246 0.9499975 -1.191902
v -1.403902 0.3851117 -0.3065924
v -1.021449 -2.797668E-07 0.3780811
v -0.8271325 1.743362 -0.8148547
v -0.1367123 1.743363 -1.001779
v -0.1903399 3.691021 0.07509706
v -1.453718 0.9499975 -0.3255676
v -1.44369 0.385112 0.4923987
v -0.7318392 -2.797668E-07 0.82151
v -1.27582 1.743363 -0.25781
v -0.2375466 3.69102 0.08787415
v -0.194277 3.78211 0.1541303
v -0.268225 3.691021 0.1259637
v -0.2706563 3.691021 0.1748096
v -1.311395 1.743363 0.4565808
v -1.495143 0.9499981 0.5063275
v -1.006243 0.3851123 1.162182
v -0.2368966 2.540895E-08 1.010024
v -0.9202701 1.743363 1.055443
v -1.039684 0.9499978 1.203696
v -0.2586538 0.3851123 1.446925
v 0.2743256 3.305847E-07 0.8716168
v -0.2439162 3.691021 0.2157568
v -0.2518374 1.743364 1.310037
v -0.2613052 0.9499987 1.500165
v 0.5135273 0.3851126 1.237865
v 0.6065589 3.305847E-07 0.4591516
v -0.1982119 3.691021 0.2331647
v 0.4385825 1.743364 1.123115
v 0.5426759 0.9499984 1.282494
v 1.015352 0.3851123 0.6148541
v 0.6329001 -2.797668E-07 -0.06981932
v -0.1510049 3.69102 0.2203821
v 0.8872709 1.743364 0.5660687
v 1.065166 0.9499987 0.6338257
v 1.05514 0.3851123 -0.1841357
v 0.343289 -2.797668E-07 -0.5132507
v -0.1203249 3.69102 0.1822962
v 0.9228467 1.743363 -0.1483227
v 1.106594 0.9499978 -0.1980688
v 0.617692 0.3851117 -0.8539221
v -0.1516524 -5.849426E-07 -0.701767
v -0.1298968 0.385112 -1.138665
v -0.127246 0.9499975 -1.191902
v 0.6511316 0.9499978 -0.8954346
v -0.1367123 1.743363 -1.001779
v -0.1178927 3.691021 0.1334473
v 0.5317188 1.743363 -0.7471862
v -0.1446377 3.69102 0.09250428
v -0.1903399 3.691021 0.07509706
v 2.018585 1.265969 -3.064204
v 2.608175 2.304524 -2.367431
v 1.99551 2.304523 -2.600781
v 1.947448 4.074657 -1.635681
v 2.899239 1.26597 -2.728782
v 1.942748 -2.797668E-07 -1.541309
v 3.414541 1.26597 -1.939785
v 3.367674 1.26597 -0.9985827
v 2.96667 2.304524 -1.818528
v 2.002019 4.074657 -1.614896
v 1.942747 4.183424 -1.54131
v 2.033954 4.074657 -1.566007
v 2.03105 4.074657 -1.507678
v 2.934066 2.304524 -1.163741
v 2.776532 1.26597 -0.2646838
v 2.522809 2.304524 -0.6531677
v 1.994417 4.074657 -1.462202
v 1.866912 1.26597 -0.01841368
v 1.88999 2.304524 -0.4818384
v 1.938048 4.074657 -1.446939
v 0.9862623 1.26597 -0.3538367
v 1.277323 2.304524 -0.7151917
v 1.883475 4.074657 -1.467725
v 0.4709531 1.26597 -1.142833
v 0.9188272 2.304524 -1.264095
v 0.5178257 1.26597 -2.084033
v 1.851546 4.074657 -1.516618
v 1.108968 1.265969 -2.817933
v 2.018585 1.265969 -3.064204
v 0.9514338 2.304524 -1.918883
v 1.362689 2.304523 -2.429451
v 1.99551 2.304523 -2.600781
v 1.854449 4.074657 -1.574943
v 1.89108 4.074657 -1.620424
v 1.947448 4.074657 -1.635681
vt 0.9023438 0.96875
vt 0.9018555 0.9692383
vt 0.9023438 0.9702148
vt 0.902832 0.9692383
vt 0.902832 0.9682617
vt 0.9033203 0.9692383
vt 0.902832 0.9707031
vt 0.9033203 0.96875
vt 0.902832 0.9677734
vt 0.9042969 0.9692383
vt 0.9042969 0.9707031
vt 0.9067383 0.9677734
vt 0.9038086 0.96875
vt 0.9033203 0.9682617
vt 0.9033203 0.9677734
vt 0.9042969 0.96875
vt 0.90625 0.9677734
vt 0.90625 0.9672852
vt 0.90625 0.9672852
vt 0.90625 0.9672852
vt 0.9042969 0.9682617
vt 0.9038086 0.9682617
vt 0.9033203 0.9677734
vt 0.9033203 0.9672852
vt 0.9042969 0.9677734
vt 0.9038086 0.9677734
vt 0.9033203 0.9672852
vt 0.9033203 0.9672852
vt 0.90625 0.9672852
vt 0.9042969 0.9672852
vt 0.9038086 0.9672852
vt 0.9033203 0.9667969
vt 0.902832 0.9667969
vt 0.90625 0.9672852
vt 0.9042969 0.9667969
vt 0.9038086 0.9667969
vt 0.9033203 0.9667969
vt 0.902832 0.9663086
vt 0.90625 0.9672852
vt 0.9042969 0.9663086
vt 0.9038086 0.9663086
vt 0.9033203 0.9663086
vt 0.9023438 0.9658203
vt 0.90625 0.9672852
vt 0.9042969 0.9658203
vt 0.9038086 0.9658203
vt 0.902832 0.965332
vt 0.9018555 0.9658203
vt 0.9023438 0.9648438
vt 0.902832 0.9643555
vt 0.9033203 0.965332
vt 0.9042969 0.9643555
vt 0.90625 0.9672852
vt 0.9042969 0.965332
vt 0.90625 0.9672852
vt 0.9067383 0.9672852
vt 0.4709473 0.921875
vt 0.4665527 0.9174805
vt 0.4648438 0.9204102
vt 0.4606934 0.9111328
vt 0.470459 0.9179688
vt 0.4770508 0.9101563
vt 0.4702148 0.9155273
vt 0.4699707 0.9135742
vt 0.4672852 0.9150391
vt 0.4609375 0.9111328
vt 0.4609375 0.9106445
vt 0.4611816 0.9111328
vt 0.4614258 0.9106445
vt 0.4675293 0.9135742
vt 0.4699707 0.9116211
vt 0.4675293 0.9116211
vt 0.4614258 0.9106445
vt 0.4697266 0.9101563
vt 0.4677734 0.9101563
vt 0.4614258 0.9106445
vt 0.4697266 0.9086914
vt 0.4675293 0.9086914
vt 0.4614258 0.9101563
vt 0.4699707 0.9072266
vt 0.4675293 0.9072266
vt 0.4699707 0.9052734
vt 0.4614258 0.9101563
vt 0.4702148 0.9023438
vt 0.4702148 0.8984375
vt 0.467041 0.9057617
vt 0.4663086 0.9033203
vt 0.4645996 0.9003906
vt 0.4611816 0.909668
vt 0.4609375 0.909668
vt 0.4606934 0.909668
vn -0.3613281 -0.7504883 -0.5532227
vn 0.03286743 -0.7504883 -0.6601563
vn 0.04498291 -0.4272461 -0.902832
vn -0.4943848 -0.4272461 -0.7568359
vn -0.6176758 -0.7504883 -0.2352295
vn -0.5454102 0.06848145 -0.8354492
vn 0.04962158 0.06848145 -0.996582
vn -0.8447266 -0.4272461 -0.3217773
vn -0.6376953 -0.7504883 0.1727295
vn -0.5117188 0.3535156 -0.7832031
vn 0.04653931 0.3535156 -0.934082
vn 0.04110718 0.5634766 -0.8251953
vn -0.9321289 0.06848145 -0.3549805
vn -0.8725586 -0.4272461 0.2363281
vn -0.4145508 -0.7504883 0.5146484
vn -0.8740234 0.3535156 -0.3330078
vn -0.4516602 0.5634766 -0.6914063
vn -9.000301E-06 1 2.086163E-06
vn -0.7719727 0.5634766 -0.2939453
vn -0.7973633 0.5634766 0.2158203
vn -0.902832 0.3535156 0.2445068
vn -0.9628906 0.06848145 0.2607422
vn -0.5673828 -0.4272461 0.7041016
vn -0.03286743 -0.7504883 0.6601563
vn -0.5869141 0.3535156 0.7285156
vn -0.6259766 0.06848145 0.7768555
vn -0.04498291 -0.4272461 0.902832
vn 0.3613281 -0.7504883 0.5532227
vn -0.5180664 0.5634766 0.6430664
vn -0.04653931 0.3535156 0.934082
vn -0.04962158 0.06848145 0.996582
vn 0.4943848 -0.4272461 0.7568359
vn 0.6176758 -0.7504883 0.2352295
vn -0.04107666 0.5634766 0.8251953
vn 0.5117188 0.3535156 0.7832031
vn 0.5454102 0.06848145 0.8354492
vn 0.8447266 -0.4272461 0.3217773
vn 0.6376953 -0.7504883 -0.1727295
vn 0.4516602 0.5634766 0.6914063
vn 0.8740234 0.3535156 0.3330078
vn 0.9321289 0.06848145 0.3549805
vn 0.8725586 -0.4272461 -0.2363281
vn 0.4145508 -0.7504883 -0.5146484
vn 0.7719727 0.5634766 0.2939453
vn 0.902832 0.3535156 -0.2445068
vn 0.9628906 0.06848145 -0.2607422
vn 0.5673828 -0.4272461 -0.7041016
vn 0.03286743 -0.7504883 -0.6601563
vn 0.04498291 -0.4272461 -0.902832
vn 0.04962158 0.06848145 -0.996582
vn 0.6259766 0.06848145 -0.7768555
vn 0.04653931 0.3535156 -0.934082
vn 0.7973633 0.5634766 -0.2158203
vn 0.5869141 0.3535156 -0.7285156
vn 0.5180664 0.5634766 -0.6430664
vn 0.04110718 0.5634766 -0.8251953
vn 0.04867554 -0.2043457 -0.9775391
vn 0.5629883 0.4406738 -0.6992188
vn 0.04464722 0.4406738 -0.8964844
vn 0.04119873 0.5610352 -0.8266602
vn 0.6142578 -0.2043457 -0.762207
vn -2.384186E-07 -1 2.980232E-07
vn 0.9448242 -0.2043457 -0.2558594
vn 0.9150391 -0.2043457 0.3483887
vn 0.8662109 0.4406738 -0.2346191
vn 0.519043 0.5610352 -0.6445313
vn -1.084805E-05 1 4.768372E-06
vn 0.7988281 0.5610352 -0.2163086
vn 0.7734375 0.5610352 0.2946777
vn 0.8388672 0.4406738 0.3195801
vn 0.5351563 -0.2043457 0.8198242
vn 0.4907227 0.4406738 0.7514648
vn 0.4526367 0.5610352 0.6928711
vn -0.04867554 -0.2043457 0.9775391
vn -0.04464722 0.4406738 0.8964844
vn -0.04116821 0.5610352 0.8266602
vn -0.6142578 -0.2043457 0.762207
vn -0.5629883 0.4406738 0.6992188
vn -0.519043 0.5610352 0.6445313
vn -0.9448242 -0.2043457 0.2558594
vn -0.8662109 0.4406738 0.2346191
vn -0.9150391 -0.2043457 -0.3483887
vn -0.7988281 0.5610352 0.2163086
vn -0.5351563 -0.2043457 -0.8198242
vn 0.04867554 -0.2043457 -0.9775391
vn -0.8388672 0.4406738 -0.3195801
vn -0.4907227 0.4406738 -0.7514648
vn 0.04464722 0.4406738 -0.8964844
vn -0.7734375 0.5610352 -0.2946777
vn -0.4526367 0.5610352 -0.6928711
vn 0.04119873 0.5610352 -0.8266602
g Airport_Tree_0
f 3/3/3 2/2/2 1/1/1
f 4/4/4 3/3/3 1/1/1
f 4/4/4 1/1/1 5/5/5
f 4/4/4 6/6/6 3/3/3
f 6/6/6 7/7/7 3/3/3
f 8/8/8 4/4/4 5/5/5
f 8/8/8 5/5/5 9/9/9
f 6/6/6 10/10/10 7/7/7
f 10/10/10 11/11/11 7/7/7
f 12/12/12 11/11/11 10/10/10
f 6/6/6 4/4/4 13/13/13
f 4/4/4 8/8/8 13/13/13
f 14/14/14 8/8/8 9/9/9
f 14/14/14 9/9/9 15/15/15
f 16/16/16 10/10/10 6/6/6
f 13/13/13 16/16/16 6/6/6
f 17/17/17 12/12/12 10/10/10
f 17/17/17 10/10/10 16/16/16
f 18/18/18 12/12/12 17/17/17
f 18/18/18 17/17/17 19/19/19
f 19/19/19 17/17/17 16/16/16
f 18/18/18 19/19/19 20/20/20
f 19/19/19 16/16/16 21/21/21
f 21/21/21 16/16/16 13/13/13
f 20/20/20 19/19/19 21/21/21
f 13/13/13 8/8/8 22/22/22
f 22/22/22 21/21/21 13/13/13
f 8/8/8 14/14/14 22/22/22
f 23/23/23 14/14/14 15/15/15
f 23/23/23 15/15/15 24/24/24
f 20/20/20 21/21/21 25/25/25
f 25/25/25 21/21/21 22/22/22
f 26/26/26 22/22/22 14/14/14
f 23/23/23 26/26/26 14/14/14
f 26/26/26 25/25/25 22/22/22
f 27/27/27 23/23/23 24/24/24
f 27/27/27 24/24/24 28/28/28
f 29/29/29 20/20/20 25/25/25
f 18/18/18 20/20/20 29/29/29
f 30/30/30 25/25/25 26/26/26
f 29/29/29 25/25/25 30/30/30
f 31/31/31 26/26/26 23/23/23
f 27/27/27 31/31/31 23/23/23
f 31/31/31 30/30/30 26/26/26
f 32/32/32 27/27/27 28/28/28
f 32/32/32 28/28/28 33/33/33
f 34/34/34 29/29/29 30/30/30
f 18/18/18 29/29/29 34/34/34
f 35/35/35 30/30/30 31/31/31
f 34/34/34 30/30/30 35/35/35
f 36/36/36 31/31/31 27/27/27
f 32/32/32 36/36/36 27/27/27
f 36/36/36 35/35/35 31/31/31
f 37/37/37 32/32/32 33/33/33
f 37/37/37 33/33/33 38/38/38
f 39/39/39 34/34/34 35/35/35
f 18/18/18 34/34/34 39/39/39
f 40/40/40 35/35/35 36/36/36
f 39/39/39 35/35/35 40/40/40
f 36/36/36 32/32/32 41/41/41
f 32/32/32 37/37/37 41/41/41
f 41/41/41 40/40/40 36/36/36
f 42/42/42 37/37/37 38/38/38
f 42/42/42 38/38/38 43/43/43
f 44/44/44 39/39/39 40/40/40
f 18/18/18 39/39/39 44/44/44
f 45/45/45 40/40/40 41/41/41
f 44/44/44 40/40/40 45/45/45
f 41/41/41 37/37/37 46/46/46
f 37/37/37 42/42/42 46/46/46
f 46/46/46 45/45/45 41/41/41
f 47/47/47 42/42/42 43/43/43
f 47/47/47 43/43/43 48/48/48
f 49/49/49 47/47/47 48/48/48
f 47/47/47 49/49/49 50/50/50
f 46/46/46 42/42/42 51/51/51
f 42/42/42 47/47/47 51/51/51
f 51/51/51 47/47/47 50/50/50
f 45/45/45 46/46/46 51/51/51
f 50/50/50 52/52/52 51/51/51
f 18/18/18 44/44/44 53/53/53
f 53/53/53 44/44/44 45/45/45
f 54/54/54 45/45/45 51/51/51
f 52/52/52 54/54/54 51/51/51
f 53/53/53 45/45/45 54/54/54
f 18/18/18 53/53/53 55/55/55
f 55/55/55 53/53/53 54/54/54
f 55/55/55 54/54/54 52/52/52
f 18/18/18 55/55/55 56/56/56
f 56/56/56 55/55/55 52/52/52
f 59/59/59 58/58/58 57/57/57
f 58/58/58 59/59/59 60/60/60
f 58/58/58 61/61/61 57/57/57
f 62/62/62 57/57/57 61/61/61
f 62/62/62 61/61/61 63/63/63
f 62/62/62 63/63/63 64/64/64
f 65/65/65 63/63/63 61/61/61
f 58/58/58 65/65/65 61/61/61
f 64/64/64 63/63/63 65/65/65
f 66/66/66 58/58/58 60/60/60
f 65/65/65 58/58/58 66/66/66
f 67/67/67 66/66/66 60/60/60
f 67/67/67 68/68/68 66/66/66
f 68/68/68 65/65/65 66/66/66
f 67/67/67 69/69/69 68/68/68
f 70/70/70 65/65/65 68/68/68
f 70/70/70 64/64/64 65/65/65
f 69/69/69 70/70/70 68/68/68
f 71/71/71 64/64/64 70/70/70
f 62/62/62 64/64/64 71/71/71
f 72/72/72 70/70/70 69/69/69
f 72/72/72 71/71/71 70/70/70
f 67/67/67 73/73/73 69/69/69
f 73/73/73 72/72/72 69/69/69
f 74/74/74 71/71/71 72/72/72
f 74/74/74 62/62/62 71/71/71
f 75/75/75 72/72/72 73/73/73
f 75/75/75 74/74/74 72/72/72
f 67/67/67 76/76/76 73/73/73
f 76/76/76 75/75/75 73/73/73
f 77/77/77 74/74/74 75/75/75
f 74/74/74 77/77/77 62/62/62
f 78/78/78 75/75/75 76/76/76
f 78/78/78 77/77/77 75/75/75
f 67/67/67 79/79/79 76/76/76
f 79/79/79 78/78/78 76/76/76
f 80/80/80 77/77/77 78/78/78
f 77/77/77 80/80/80 62/62/62
f 81/81/81 78/78/78 79/79/79
f 81/81/81 80/80/80 78/78/78
f 62/62/62 80/80/80 82/82/82
f 82/82/82 80/80/80 81/81/81
f 83/83/83 81/81/81 79/79/79
f 67/67/67 83/83/83 79/79/79
f 62/62/62 82/82/82 84/84/84
f 85/85/85 62/62/62 84/84/84
f 86/86/86 82/82/82 81/81/81
f 86/86/86 81/81/81 83/83/83
f 84/84/84 82/82/82 86/86/86
f 85/85/85 84/84/84 87/87/87
f 87/87/87 84/84/84 86/86/86
f 88/88/88 85/85/85 87/87/87
f 89/89/89 86/86/86 83/83/83
f 67/67/67 89/89/89 83/83/83
f 87/87/87 86/86/86 89/89/89
f 88/88/88 87/87/87 90/90/90
f 90/90/90 87/87/87 89/89/89
f 67/67/67 90/90/90 89/89/89
f 91/91/91 88/88/88 90/90/90
f 67/67/67 91/91/91 90/90/90
