g Apple_whole_01
v -2.418027 -18.19 5.044322
v 3.186015 -18.40411 4.039012
v -8.799968E-06 -18.04535 7.203568E-05
v -6.30157 -18.40036 -46.53993
v -4.205787 -18.5802 -48.32838
v -9.130317 -18.46804 -59.26558
v -12.66527 -18.38754 -67.11653
v -15.55439 -18.23922 -67.8904
v -16.23902 -18.55105 -46.19716
v -6.30157 -18.40036 -46.53993
v -9.130317 -18.46804 -59.26558
v -5.878284 -18.3612 -45.30031
v -5.570617 -17.4129 -45.37553
v -4.110935 -18.3714 -46.87141
v 5.206742 -18.07312 0.8511463
v -8.799968E-06 -18.04535 7.203568E-05
v 3.186015 -18.40411 4.039012
v 6.853797 -15.61478 9.680859
v -2.418027 -18.19 5.044322
v -4.869332 -15.61478 10.8979
v -6.187913 -8.711761 13.73634
v 11.62021 -15.61478 1.899547
v 4.306279 -18.40411 -2.814137
v 8.771773 -8.711761 12.23011
v -6.527554 2.996338 14.8224
v 9.579686 -15.61478 -6.994435
v -0.6859143 -18.19 -5.551686
v -1.145711 -15.61478 -11.88097
v 14.83608 -8.711761 2.425243
v 12.20958 -8.711761 -8.800282
v 12.77396 2.996338 -9.543629
v -1.491796 -8.711761 -14.99163
v -1.467935 2.996338 -16.12926
v -1.354348 8.287964 -11.17455
v 9.741155 8.287964 -6.425892
v 11.93373 6.97226 1.950817
v 15.44607 2.996338 2.524974
v 9.070069 2.996338 13.11457
v 7.187921 8.287964 9.193249
v 11.93373 6.97226 1.950817
v -4.842137 8.287964 10.16163
v -11.83726 7.083395 -4.569935
v -1.467935 2.996338 -16.12926
v -1.354348 8.287964 -11.17455
v -14.24189 2.996338 -6.58556
v -1.491796 -8.711761 -14.99163
v -13.70136 -8.711761 -6.191395
v -1.145711 -15.61478 -11.88097
v -10.72538 -15.61478 -4.886525
v -0.6859143 -18.19 -5.551686
v -15.44606 2.996338 -2.524891
v -14.83606 -8.711761 -2.425221
v -13.61545 6.041534 -2.225636
v -11.83726 7.083395 -4.569935
v -12.37113 7.300361 0.5327258
v -11.94616 6.695892 -1.95287
v -11.83726 7.083395 -4.569935
v -15.59762 2.996338 1.707836
v -4.754159 -18.06583 -2.135243
v -8.799968E-06 -18.04535 7.203568E-05
v 4.306279 -18.40411 -2.814137
v 5.206742 -18.07312 0.8511463
v -11.62022 -15.61478 -1.899464
v -5.206742 -18.07312 -0.8511242
v -14.95968 -8.711761 1.506298
v -11.72313 -15.61478 1.217052
v -5.18662 -18.06583 0.510326
v -4.869332 -15.61478 10.8979
v -2.418027 -18.19 5.044322
v -6.187913 -8.711761 13.73634
v -6.527554 2.996338 14.8224
v -12.37113 7.300361 0.5327258
v -4.842137 8.287964 10.16163
v 0.3264911 9.455048 -1.997181
v -1.254216 5.105743 1.002941
v -0.0187237 5.105743 0.1145129
v -1.123006 9.596252 -0.9618419
v -0.3659031 5.105743 2.238414
v -0.07864115 9.737549 0.4810901
v -0.06487773 14.65512 0.3969836
v -1.082273 14.74478 -1.014027
v 0.3314655 14.83447 -2.027699
v 0.133292 14.93073 -0.8154186
v -0.1624386 6.617859 -2.574574
v -8.799968E-06 5.436493 7.203568E-05
v -2.238111 6.501266 -1.371083
v -1.354348 8.287964 -11.17455
v -11.83726 7.083395 -4.569935
v -0.1624386 6.617859 -2.574574
v -1.354348 8.287964 -11.17455
v 9.741155 8.287964 -6.425892
v 2.030699 6.585114 -1.586659
v -8.799968E-06 5.436493 7.203568E-05
v 11.93373 6.97226 1.950817
v 2.604762 6.448059 0.4258329
v -6.783116 9.459595 -3.30547
v -6.249009 10.37631 -3.486256
v -9.793881 12.25995 -2.10149
v -10.139 11.24625 -1.992787
v -13.09753 13.73602 3.128124
v -13.45015 12.72427 3.209239
v -13.45775 14.20908 5.724864
v -8.043591 11.07632 3.948253
v -13.72612 13.21872 6.008373
v -11.50083 13.50333 7.775585
v -11.31884 14.44696 7.294933
v -5.145757 14.11768 8.787182
v -5.341809 13.16354 9.24519
v -12.56645 12.77188 5.58955
v -4.764802 9.415161 2.859386
v -1.668821 11.38281 8.209484
v -1.211286 5.658356 1.780773
v -2.139631 5.515198 -0.8662609
v 0.1685169 6.31189 4.1385
v -0.3927128 4.801575 1.539623
v 2.604762 6.448059 0.4258329
v 11.93373 6.97226 1.950817
v 7.187921 8.287964 9.193249
v 1.41976 6.585114 2.150707
v -8.799968E-06 5.436493 7.203568E-05
v -4.842137 8.287964 10.16163
v -0.9738209 6.617859 2.388988
v 4.686484 16.76312 10.03779
v -0.06650279 16.7836 11.89875
v 0.0279453 18.43149 12.29097
v 4.727773 15.91943 10.70332
v 0.07938268 15.64981 10.44569
v 6.617918 14.00253 8.252331
v 0.3360699 13.655 7.889293
v 6.624719 14.84885 7.587413
v 7.085736 11.75604 4.450267
v 7.067578 11.06137 5.272045
v 5.09027 7.201294 3.183605
v 5.019351 7.681366 2.223705
v 0.3512371 6.275665 2.763256
v 0.3971851 7.34436 3.297679
v 0.5071819 5.660828 1.273754
v -6.249009 10.37631 -3.486256
v -6.783116 9.459595 -3.30547
v -2.139631 5.515198 -0.8662609
v -1.40035 6.264496 -1.073842
v 0.2618473 5.532806 1.12141
v -0.3927128 4.801575 1.539623
v -0.5504849 6.39566 1.358654
v 0.7195346 6.996216 3.522655
v 0.1685169 6.31189 4.1385
v -1.668821 11.38281 8.209484
v -4.29176 10.31247 2.49934
v -9.793881 12.25995 -2.10149
v -1.286668 12.2424 7.686656
v -5.341809 13.16354 9.24519
v -5.145757 14.11768 8.787182
v -7.771058 12.07718 3.661083
v -13.09753 13.73602 3.128124
v -12.29449 13.77295 5.302745
v -11.31884 14.44696 7.294933
v -13.45775 14.20908 5.724864
v 0.5995243 7.809143 2.348217
v -3.487264 8.70343 0.9112049
v 0.5071819 5.660828 1.273754
v 0.7895686 11.65842 4.344432
v -5.046262 13.06857 2.442577
v 0.5340908 14.49783 7.24995
v -5.117085 16.01993 5.494762
v -3.805948 17.61014 8.52412
v 0.2774227 16.49258 9.806164
v 0.0279453 18.43149 12.29097
v 0.0279453 18.43149 12.29097
v 0.2774227 16.49258 9.806164
v 4.686484 16.76312 10.03779
v 0.5340908 14.49783 7.24995
v 6.624719 14.84885 7.587413
v 0.7895686 11.65842 4.344432
v 7.085736 11.75604 4.450267
v 0.5995243 7.809143 2.348217
v 5.019351 7.681366 2.223705
v 0.5071819 5.660828 1.273754
v 0.3360699 13.655 7.889293
v 6.617918 14.00253 8.252331
v 7.067578 11.06137 5.272045
v 0.5822093 10.98041 5.154186
v 5.09027 7.201294 3.183605
v 0.3971851 7.34436 3.297679
v -3.949357 8.287415 1.788768
v 0.3512371 6.275665 2.763256
v 0.5071819 5.660828 1.273754
v -3.487264 8.70343 0.9112049
v -5.046262 13.06857 2.442577
v -5.435887 12.41412 3.202953
v -5.117085 16.01993 5.494762
v -5.500409 15.21112 6.092479
v -4.233258 16.81314 9.106152
v 0.07938268 15.64981 10.44569
v -3.805948 17.61014 8.52412
v -0.06650279 16.7836 11.89875
v 0.0279453 18.43149 12.29097
v -0.9738209 6.617859 2.388988
v -4.842137 8.287964 10.16163
v -12.37113 7.300361 0.5327258
v -2.558219 6.501266 0.5871387
v -8.799968E-06 5.436493 7.203568E-05
v -5.206742 -18.07312 -0.8511242
v -8.799968E-06 -18.04535 7.203568E-05
v -4.754159 -18.06583 -2.135243
v -5.18662 -18.06583 0.510326
v -2.418027 -18.19 5.044322
v -11.94616 6.695892 -1.95287
v -2.558219 6.501266 0.5871387
v -12.37113 7.300361 0.5327258
v -2.714566 6.404175 -0.4437146
v -11.83726 7.083395 -4.569935
v -8.799968E-06 5.436493 7.203568E-05
v -2.238111 6.501266 -1.371083
v 0.8695933 5.105743 1.350048
v -0.3659031 5.105743 2.238414
v -0.07864115 9.737549 0.4810901
v 1.370856 9.596252 -0.5542492
v -0.0187237 5.105743 0.1145129
v 0.3264911 9.455048 -1.997181
v 0.3314655 14.83447 -2.027699
v 1.348857 14.74478 -0.6166272
v -0.06487773 14.65512 0.3969836
v 0.133292 14.93073 -0.8154186
v 52.33766 -4.8109 5.069713
v 47.35497 -2.182452 10.6183
v 39.55993 -5.677294 -3.161428
v 53.74653 -8.184404 -4.265493
v 49.123 -9.828234 -11.17186
v 44.44867 -9.877733 -13.39336
v 39.76873 -9.922319 -15.60277
v 31.46999 -8.408403 -14.81725
v 25.08344 -5.084948 -7.839894
v 23.53213 -2.25542 -0.1740622
v 41.81501 -1.724933 9.509592
v 47.35497 -2.182452 10.6183
v 35.76901 -2.420123 4.772716
v 28.26338 -1.861163 3.090647
v 23.53213 -2.25542 -0.1740622
v 52.33766 -4.8109 5.069713
v 47.4515 -2.908069 12.45851
v 47.35497 -2.182452 10.6183
v 53.11352 -5.887133 5.811717
v 47.46954 -15.77199 7.172984
v 54.58402 -9.449114 -4.088735
v 53.74653 -8.184404 -4.265493
v 52.33766 -4.8109 5.069713
v 42.84128 -11.42867 13.86994
v 50.02503 -17.28685 -3.049306
v 36.49469 -19.86879 3.611094
v 47.96101 -13.58995 -11.86193
v 41.04288 -20.61446 -5.975057
v 49.32757 -11.21083 -11.7874
v 53.74653 -8.184404 -4.265493
v 49.123 -9.828234 -11.17186
v 44.73797 -11.24275 -13.97497
v 49.123 -9.828234 -11.17186
v 44.44867 -9.877733 -13.39336
v 33.08665 -15.06987 10.70408
v 38.63099 -5.482562 11.99165
v 26.72054 -15.98067 -2.655202
v 44.17673 -15.32817 -12.70333
v 41.10032 -13.65898 -15.11156
v 33.03574 -17.45778 -11.09685
v 40.13815 -11.30324 -16.14025
v 44.44867 -9.877733 -13.39336
v 39.76873 -9.922319 -15.60277
v 30.82365 -9.688066 -15.34343
v 39.76873 -9.922319 -15.60277
v 31.46999 -8.408403 -14.81725
v 24.39923 -11.61409 5.134593
v 24.03675 -6.178484 -7.961659
v 25.08344 -5.084948 -7.839894
v 31.46999 -8.408403 -14.81725
v 33.23795 -7.131304 10.21614
v 28.42132 -5.585161 7.155772
v 22.44979 -3.069843 0.574717
v 23.53213 -2.25542 -0.1740622
v 25.08344 -5.084948 -7.839894
v 27.80724 -2.294482 4.484752
v 23.53213 -2.25542 -0.1740622
v 28.26338 -1.861163 3.090647
v 35.10955 -2.725452 6.171397
v 28.26338 -1.861163 3.090647
v 35.76901 -2.420123 4.772716
v 41.0324 -2.161517 10.74903
v 41.81501 -1.724933 9.509592
v 35.76901 -2.420123 4.772716
v 41.81501 -1.724933 9.509592
v 47.35497 -2.182452 10.6183
v -9.130317 -18.46804 -59.26558
v -24.1254 -18.38882 -54.83601
v -16.23902 -18.55105 -46.19716
v -26.09571 -18.32327 -63.12434
v -20.73474 -18.27609 -67.81342
v -15.55439 -18.23922 -67.8904
v -16.6285 -18.06439 -68.52992
v -20.84038 -17.80789 -68.59516
v -20.52599 -16.4765 -68.77733
v -16.87593 -17.29358 -69.0153
v -13.40111 -18.57754 -67.66652
v -4.205787 -18.5802 -48.32838
v -5.878284 -18.3612 -45.30031
v -4.110935 -18.3714 -46.87141
v -6.30157 -18.40036 -46.53993
v -16.58784 -17.67373 -45.43538
v -16.23902 -18.55105 -46.19716
v -15.46939 -13.10278 -45.89211
v -5.570617 -17.4129 -45.37553
v -24.81396 -17.49795 -54.43129
v -24.1254 -18.38882 -54.83601
v -26.86775 -17.43942 -63.4272
v -26.09571 -18.32327 -63.12434
v -23.2594 -11.09207 -55.06575
v -20.84038 -17.80789 -68.59516
v -20.73474 -18.27609 -67.81342
v -25.52503 -11.90393 -63.97523
v -20.52599 -16.4765 -68.77733
v -24.43315 -11.42102 -63.78492
v -22.2631 -10.70718 -55.60762
v -14.80013 -12.64193 -46.79609
v -5.570617 -17.4129 -45.37553
v -10.42229 -14.46924 -44.67299
v -20.73474 -18.27609 -67.81342
v -26.09571 -18.32327 -63.12434
v -9.130317 -18.46804 -59.26558
v -15.55439 -18.23922 -67.8904
v -15.55439 -18.23922 -67.8904
v -12.66527 -18.38754 -67.11653
v -13.40111 -18.57754 -67.66652
v -16.6285 -18.06439 -68.52992
v -4.110935 -18.3714 -46.87141
v -5.701064 -16.88961 -46.1028
v -4.205787 -18.5802 -48.32838
v -5.570617 -17.4129 -45.37553
v -10.42229 -14.46924 -44.67299
v -12.66527 -18.38754 -67.11653
v -16.87593 -17.29358 -69.0153
v -13.40111 -18.57754 -67.66652
v -15.49551 -17.05886 -67.84108
v -20.52599 -16.4765 -68.77733
v -19.45024 -14.97549 -67.85548
v -25.52503 -11.90393 -63.97523
v -24.43315 -11.42102 -63.78492
v -5.701064 -16.88961 -46.1028
v -9.130317 -18.46804 -59.26558
v -4.205787 -18.5802 -48.32838
v -10.42229 -14.46924 -44.67299
v -14.80013 -12.64193 -46.79609
v -22.2631 -10.70718 -55.60762
v -24.43315 -11.42102 -63.78492
v -19.45024 -14.97549 -67.85548
v -15.49551 -17.05886 -67.84108
v -12.66527 -18.38754 -67.11653
vt 0.9111328 0.9516602
vt 0.9116211 0.9516602
vt 0.9145508 0.9516602
vt 0.8432617 0.9570313
vt 0.8427734 0.9560547
vt 0.8266602 0.956543
vt 0.8149414 0.9570313
vt 0.8125 0.9575195
vt 0.8378906 0.956543
vt 0.8432617 0.9570313
vt 0.8266602 0.956543
vt 0.9257813 0.9780273
vt 0.9257813 0.9765625
vt 0.9262695 0.9780273
vt 0.9140625 0.9516602
vt 0.9145508 0.9516602
vt 0.9116211 0.9516602
vt 0.9077148 0.953125
vt 0.9111328 0.9516602
vt 0.9072266 0.953125
vt 0.9052734 0.9575195
vt 0.9130859 0.953125
vt 0.9165039 0.9516602
vt 0.90625 0.9575195
vt 0.9042969 0.9643555
vt 0.9194336 0.953125
vt 0.918457 0.9516602
vt 0.9228516 0.953125
vt 0.9130859 0.9575195
vt 0.9204102 0.9575195
vt 0.9208984 0.9643555
vt 0.9248047 0.9575195
vt 0.9257813 0.9643555
vt 0.9223633 0.9677734
vt 0.9189453 0.9677734
vt 0.9145508 0.9667969
vt 0.9125977 0.9643555
vt 0.9057617 0.9643555
vt 0.9082031 0.9677734
vt 0.9121094 0.9667969
vt 0.9077148 0.9677734
vt 0.9179688 0.9672852
vt 0.9257813 0.9643555
vt 0.9223633 0.9677734
vt 0.9189453 0.9643555
vt 0.9248047 0.9575195
vt 0.9189453 0.9575195
vt 0.9228516 0.953125
vt 0.9179688 0.953125
vt 0.918457 0.9516602
vt 0.9160156 0.9643555
vt 0.9160156 0.9575195
vt 0.9160156 0.9663086
vt 0.918457 0.9663086
vt 0.9145508 0.9667969
vt 0.9160156 0.9667969
vt 0.9169922 0.9667969
vt 0.9135742 0.9643555
vt 0.9160156 0.9516602
vt 0.9145508 0.9516602
vt 0.9165039 0.9516602
vt 0.9140625 0.9516602
vt 0.9160156 0.953125
vt 0.9150391 0.9516602
vt 0.9135742 0.9575195
vt 0.9135742 0.953125
vt 0.9140625 0.9516602
vt 0.9072266 0.953125
vt 0.9111328 0.9516602
vt 0.9052734 0.9575195
vt 0.9042969 0.9643555
vt 0.9135742 0.9672852
vt 0.9077148 0.9677734
vt 0.7363281 0.9589844
vt 0.734375 0.9560547
vt 0.7348633 0.9560547
vt 0.7358398 0.9589844
vt 0.7333984 0.9560547
vt 0.7348633 0.9589844
vt 0.7348633 0.9619141
vt 0.7358398 0.9619141
vt 0.7363281 0.9619141
vt 0.7353516 0.9619141
vt 0.9165039 0.9667969
vt 0.9145508 0.9658203
vt 0.9155273 0.9667969
vt 0.9223633 0.9677734
vt 0.9179688 0.9672852
vt 0.9165039 0.9667969
vt 0.9223633 0.9677734
vt 0.9189453 0.9677734
vt 0.9155273 0.9667969
vt 0.9145508 0.9658203
vt 0.9145508 0.9667969
vt 0.9145508 0.9667969
vt 0.534668 0.9614258
vt 0.5351563 0.9619141
vt 0.5341797 0.9628906
vt 0.5336914 0.9624023
vt 0.5302734 0.9638672
vt 0.5302734 0.9633789
vt 0.5288086 0.9643555
vt 0.5297852 0.9624023
vt 0.5283203 0.9633789
vt 0.5273438 0.9638672
vt 0.5273438 0.9643555
vt 0.5263672 0.9638672
vt 0.5263672 0.9633789
vt 0.5288086 0.9633789
vt 0.5307617 0.9614258
vt 0.5268555 0.9624023
vt 0.53125 0.9589844
vt 0.5332031 0.9589844
vt 0.5297852 0.9594727
vt 0.53125 0.9584961
vt 0.9135742 0.9667969
vt 0.9121094 0.9667969
vt 0.9082031 0.9677734
vt 0.9130859 0.9667969
vt 0.9145508 0.9658203
vt 0.9077148 0.9677734
vt 0.9130859 0.9667969
vt 0.5258789 0.9658203
vt 0.5244141 0.9658203
vt 0.5239258 0.9667969
vt 0.5253906 0.965332
vt 0.5253906 0.9648438
vt 0.5268555 0.9638672
vt 0.5273438 0.9638672
vt 0.5273438 0.9643555
vt 0.5292969 0.9624023
vt 0.5288086 0.9624023
vt 0.5302734 0.9599609
vt 0.53125 0.9599609
vt 0.5307617 0.9594727
vt 0.5302734 0.9599609
vt 0.5317383 0.9589844
vt 0.5351563 0.9619141
vt 0.534668 0.9614258
vt 0.5332031 0.9589844
vt 0.5332031 0.9594727
vt 0.5317383 0.9589844
vt 0.53125 0.9584961
vt 0.5317383 0.9594727
vt 0.5302734 0.9599609
vt 0.5297852 0.9594727
vt 0.5268555 0.9624023
vt 0.5307617 0.9619141
vt 0.5341797 0.9628906
vt 0.5273438 0.9628906
vt 0.5263672 0.9633789
vt 0.5263672 0.9638672
vt 0.5302734 0.9628906
vt 0.5302734 0.9638672
vt 0.5288086 0.9638672
vt 0.5273438 0.9643555
vt 0.5288086 0.9643555
vt 0.5307617 0.9604492
vt 0.5317383 0.9609375
vt 0.5317383 0.9589844
vt 0.5297852 0.9624023
vt 0.5307617 0.9633789
vt 0.5273438 0.9643555
vt 0.5288086 0.965332
vt 0.5268555 0.9663086
vt 0.5258789 0.965332
vt 0.5239258 0.9667969
vt 0.5239258 0.9667969
vt 0.5258789 0.965332
vt 0.5258789 0.9658203
vt 0.5273438 0.9643555
vt 0.5273438 0.9643555
vt 0.5297852 0.9624023
vt 0.5292969 0.9624023
vt 0.5307617 0.9604492
vt 0.53125 0.9599609
vt 0.5317383 0.9589844
vt 0.5273438 0.9638672
vt 0.5268555 0.9638672
vt 0.5288086 0.9624023
vt 0.5288086 0.9624023
vt 0.5302734 0.9599609
vt 0.5302734 0.9599609
vt 0.53125 0.9604492
vt 0.5307617 0.9594727
vt 0.5317383 0.9589844
vt 0.5317383 0.9609375
vt 0.5307617 0.9633789
vt 0.5302734 0.9628906
vt 0.5288086 0.965332
vt 0.5283203 0.9648438
vt 0.5263672 0.9658203
vt 0.5253906 0.9648438
vt 0.5268555 0.9663086
vt 0.5244141 0.9658203
vt 0.5239258 0.9667969
vt 0.9130859 0.9667969
vt 0.9077148 0.9677734
vt 0.9135742 0.9672852
vt 0.9140625 0.9667969
vt 0.9145508 0.9658203
vt 0.9150391 0.9516602
vt 0.9145508 0.9516602
vt 0.9160156 0.9516602
vt 0.9140625 0.9516602
vt 0.9111328 0.9516602
vt 0.9160156 0.9667969
vt 0.9145508 0.9667969
vt 0.9145508 0.9667969
vt 0.9150391 0.9667969
vt 0.9169922 0.9667969
vt 0.9145508 0.9658203
vt 0.9155273 0.9667969
vt 0.7338867 0.9560547
vt 0.7333984 0.9560547
vt 0.7348633 0.9589844
vt 0.7353516 0.9589844
vt 0.7348633 0.9560547
vt 0.7363281 0.9589844
vt 0.7363281 0.9619141
vt 0.7353516 0.9619141
vt 0.7348633 0.9619141
vt 0.7353516 0.9619141
vt 0.824707 0.9711914
vt 0.8222656 0.9707031
vt 0.8251953 0.9667969
vt 0.8276367 0.9702148
vt 0.8286133 0.9682617
vt 0.8286133 0.9667969
vt 0.8286133 0.965332
vt 0.8276367 0.9628906
vt 0.824707 0.9624023
vt 0.8222656 0.9628906
vt 0.8217773 0.96875
vt 0.8222656 0.9707031
vt 0.8222656 0.9667969
vt 0.8217773 0.9648438
vt 0.8222656 0.9628906
vt 0.9233398 0.9672852
vt 0.9267578 0.9638672
vt 0.9267578 0.9633789
vt 0.9238281 0.9677734
vt 0.9272461 0.96875
vt 0.9238281 0.9726563
vt 0.9238281 0.9726563
vt 0.9233398 0.9677734
vt 0.9287109 0.9658203
vt 0.9267578 0.972168
vt 0.9311523 0.9697266
vt 0.9277344 0.9755859
vt 0.9301758 0.9726563
vt 0.9267578 0.9760742
vt 0.9238281 0.9726563
vt 0.9267578 0.9760742
vt 0.9287109 0.9770508
vt 0.9267578 0.9760742
vt 0.9287109 0.9770508
vt 0.9316406 0.9672852
vt 0.9306641 0.9638672
vt 0.9350586 0.9707031
vt 0.9291992 0.9755859
vt 0.9306641 0.9765625
vt 0.9331055 0.9741211
vt 0.9311523 0.9770508
vt 0.9287109 0.9770508
vt 0.9311523 0.9775391
vt 0.9355469 0.9755859
vt 0.9311523 0.9775391
vt 0.9355469 0.9760742
vt 0.9350586 0.9677734
vt 0.9384766 0.9716797
vt 0.9384766 0.972168
vt 0.9355469 0.9760742
vt 0.9326172 0.9648438
vt 0.9345703 0.965332
vt 0.9379883 0.9667969
vt 0.9379883 0.9667969
vt 0.9384766 0.9716797
vt 0.9360352 0.9648438
vt 0.9379883 0.9663086
vt 0.9360352 0.9648438
vt 0.9331055 0.9628906
vt 0.9360352 0.9643555
vt 0.9331055 0.9628906
vt 0.9296875 0.9628906
vt 0.9296875 0.9628906
vt 0.9331055 0.9628906
vt 0.9296875 0.9628906
vt 0.9267578 0.9633789
vt 0.8266602 0.956543
vt 0.8227539 0.9570313
vt 0.8378906 0.956543
vt 0.8120117 0.9575195
vt 0.9433594 0.9775391
vt 0.9418945 0.9775391
vt 0.9423828 0.9770508
vt 0.9438477 0.9765625
vt 0.9438477 0.9746094
vt 0.9428711 0.9760742
vt 0.940918 0.9785156
vt 0.9267578 0.9785156
vt 0.9257813 0.9780273
vt 0.9262695 0.9780273
vt 0.9262695 0.9780273
vt 0.9287109 0.9765625
vt 0.9291992 0.9785156
vt 0.9287109 0.9658203
vt 0.9257813 0.9765625
vt 0.9365234 0.9760742
vt 0.9365234 0.9780273
vt 0.9423828 0.9755859
vt 0.9418945 0.9780273
vt 0.9365234 0.9609375
vt 0.9438477 0.9765625
vt 0.9433594 0.9775391
vt 0.9423828 0.9628906
vt 0.9438477 0.9746094
vt 0.9418945 0.9619141
vt 0.9365234 0.9599609
vt 0.9291992 0.9648438
vt 0.9257813 0.9750977
vt 0.9267578 0.96875
vt 0.8095703 0.9575195
vt 0.8120117 0.9575195
vt 0.8266602 0.956543
vt 0.8125 0.9575195
vt 0.9418945 0.9775391
vt 0.9404297 0.9780273
vt 0.940918 0.9785156
vt 0.9423828 0.9770508
vt 0.9262695 0.9780273
vt 0.9262695 0.9746094
vt 0.9267578 0.9785156
vt 0.9257813 0.9750977
vt 0.9267578 0.96875
vt 0.9404297 0.9780273
vt 0.9428711 0.9750977
vt 0.940918 0.9785156
vt 0.9418945 0.9750977
vt 0.9438477 0.9726563
vt 0.9428711 0.9702148
vt 0.9423828 0.9628906
vt 0.9418945 0.9619141
vt 0.8442383 0.9638672
vt 0.8266602 0.956543
vt 0.8427734 0.9560547
vt 0.8432617 0.9746094
vt 0.8378906 0.9824219
vt 0.8232422 0.9912109
vt 0.8120117 0.987793
vt 0.8100586 0.972168
vt 0.8125 0.9628906
vt 0.8149414 0.9570313
vn -0.1152954 -0.9697266 0.2155762
vn 0.1213989 -0.9785156 0.1678467
vn -0.02114868 -1 -0.003458023
vn -0.00611496 -0.987793 0.1571045
vn 0.890625 -0.3527832 -0.2873535
vn 0.8764648 -0.2607422 -0.4050293
vn 0.8203125 -0.2680664 -0.5053711
vn -0.07556152 -0.9970703 -0.02264404
vn -0.1907959 -0.9335938 0.3034668
vn -0.00611496 -0.987793 0.1571045
vn 0.8764648 -0.2607422 -0.4050293
vn 0.2010498 -0.5527344 0.8085938
vn 0.5078125 0.3354492 0.793457
vn 0.9443359 -0.2807617 0.1724854
vn 0.2380371 -0.9707031 0.03890991
vn -0.02114868 -1 -0.003458023
vn 0.1213989 -0.9785156 0.1678467
vn 0.3884277 -0.6762695 0.6264648
vn -0.1152954 -0.9697266 0.2155762
vn -0.3046875 -0.6704102 0.6767578
vn -0.402832 -0.2427979 0.8823242
vn 0.7216797 -0.6821289 0.117981
vn 0.168457 -0.9785156 -0.1204224
vn 0.5229492 -0.2403564 0.8178711
vn -0.3908691 0.2871094 0.8745117
vn 0.5673828 -0.6762695 -0.4699707
vn -0.04064941 -0.9697266 -0.2410889
vn -0.07342529 -0.6704102 -0.7382813
vn 0.9589844 -0.2358398 0.1567383
vn 0.7563477 -0.2403564 -0.6083984
vn 0.7392578 0.2878418 -0.6083984
vn -0.1009521 -0.2427979 -0.9648438
vn -0.09191895 0.2854004 -0.9541016
vn -0.07568359 0.9013672 -0.4262695
vn 0.3649902 0.9008789 -0.2352295
vn 0.5092773 0.8564453 0.08325195
vn 0.9477539 0.2780762 0.1549072
vn 0.5073242 0.2878418 0.8125
vn 0.2709961 0.9008789 0.3391113
vn 0.5092773 0.8564453 0.08325195
vn -0.2055664 0.9013672 0.3815918
vn -0.4123535 0.8842773 -0.2185059
vn -0.09191895 0.2854004 -0.9541016
vn -0.07568359 0.9013672 -0.4262695
vn -0.78125 0.2680664 -0.5634766
vn -0.1009521 -0.2427979 -0.9648438
vn -0.7973633 -0.2357178 -0.5556641
vn -0.07342529 -0.6704102 -0.7382813
vn -0.5869141 -0.6894531 -0.4245605
vn -0.04064941 -0.9697266 -0.2410889
vn -0.9521484 0.2653809 -0.1520996
vn -0.9580078 -0.2408447 -0.1566162
vn -0.6992188 0.706543 -0.1101074
vn -0.4123535 0.8842773 -0.2185059
vn -0.4311523 0.9008789 0.05508423
vn -0.1539307 0.9868164 -0.0546875
vn -0.4123535 0.8842773 -0.2185059
vn -0.918457 0.2722168 0.2871094
vn -0.1745605 -0.9760742 -0.1304932
vn -0.02114868 -1 -0.003458023
vn 0.168457 -0.9785156 -0.1204224
vn 0.2380371 -0.9707031 0.03890991
vn -0.6845703 -0.7202148 -0.1118774
vn -0.192749 -0.980957 -0.03152466
vn -0.9326172 -0.2357178 0.2727051
vn -0.6914063 -0.6894531 0.2155762
vn -0.2069092 -0.9760742 0.06811523
vn -0.3046875 -0.6704102 0.6767578
vn -0.1152954 -0.9697266 0.2155762
vn -0.402832 -0.2427979 0.8823242
vn -0.3908691 0.2871094 0.8745117
vn -0.4311523 0.9008789 0.05508423
vn -0.2055664 0.9013672 0.3815918
vn 0.1574707 -0.2176514 -0.9633789
vn -0.9990234 0.03338623 0.02139282
vn 0.1451416 -0.4367676 -0.8876953
vn -0.9692383 -0.0461731 -0.2424316
vn -0.1503906 0.3625488 0.9199219
vn -0.1580811 0.2008057 0.9667969
vn -0.1387939 0.5097656 0.8491211
vn -0.8339844 0.5375977 -0.1259766
vn 0.1329346 0.565918 -0.8134766
vn -0.01132965 0.9975586 0.0692749
vn -0.02507019 0.9614258 0.2731934
vn -0.009674072 1 -0.00158596
vn 0.1069336 0.9677734 0.2280273
vn -0.07568359 0.9013672 -0.4262695
vn -0.4123535 0.8842773 -0.2185059
vn -0.02507019 0.9614258 0.2731934
vn -0.07568359 0.9013672 -0.4262695
vn 0.3649902 0.9008789 -0.2352295
vn -0.1623535 0.9604492 0.2268066
vn -0.009674072 1 -0.00158596
vn 0.5092773 0.8564453 0.08325195
vn -0.1759033 0.9838867 -0.02876282
vn -0.3798828 -0.6328125 -0.6743164
vn 0.2836914 0.4475098 -0.8481445
vn -0.2088623 0.7133789 -0.6689453
vn -0.6948242 -0.4741211 -0.5405273
vn -0.4748535 0.8105469 -0.3432617
vn -0.8691406 -0.4465332 -0.2119141
vn -0.5556641 0.8256836 0.09625244
vn -0.2958984 -0.9125977 0.2824707
vn -0.8520508 -0.3154297 0.4174805
vn -0.404541 -0.2609863 0.8764648
vn -0.1875 0.925293 0.3300781
vn 0.2364502 0.894043 0.380127
vn -0.05004883 -0.21521 0.9750977
vn -0.2484131 -0.9316406 0.2648926
vn -0.496582 -0.7919922 0.3557129
vn 0.3076172 -0.3691406 0.8769531
vn -0.6162109 -0.6835938 0.3908691
vn -0.2027588 -0.8764648 -0.4367676
vn 0.2983398 -0.7036133 0.6445313
vn 0.1313477 -0.9868164 0.09649658
vn -0.1759033 0.9838867 -0.02876282
vn 0.5092773 0.8564453 0.08325195
vn 0.2709961 0.9008789 0.3391113
vn -0.08172607 0.9604492 -0.2666016
vn -0.009674072 1 -0.00158596
vn -0.2055664 0.9013672 0.3815918
vn 0.06958008 0.9614258 -0.265625
vn 0.5537109 0.8217773 0.1331787
vn -0.1959229 -0.2902832 0.9365234
vn 0.00668335 0.8881836 0.4594727
vn 0.4570313 -0.2883301 0.8413086
vn -0.18396 -0.7827148 0.5942383
vn 0.71875 -0.3261719 0.6137695
vn -0.1879883 -0.7456055 0.6396484
vn 0.7011719 0.6625977 -0.2634277
vn 0.7275391 0.3293457 -0.6020508
vn 0.7695313 -0.4873047 0.4128418
vn 0.4897461 -0.7641602 0.4199219
vn 0.5795898 -0.2836914 -0.7641602
vn -0.1774902 -0.8579102 0.4819336
vn -0.1899414 -0.4396973 0.8779297
vn 0.04455566 -0.6274414 -0.7773438
vn 0.2836914 0.4475098 -0.8481445
vn -0.3798828 -0.6328125 -0.6743164
vn -0.2027588 -0.8764648 -0.4367676
vn 0.6835938 0.02998352 -0.7294922
vn 0.9072266 -0.1447754 -0.3952637
vn 0.1313477 -0.9868164 0.09649658
vn 0.6166992 0.6831055 -0.3911133
vn 0.9882813 0.1396484 -0.06256104
vn 0.2983398 -0.7036133 0.6445313
vn 0.3076172 -0.3691406 0.8769531
vn 0.4938965 0.7939453 -0.3547363
vn -0.2088623 0.7133789 -0.6689453
vn 0.7504883 0.6235352 0.2196045
vn -0.05004883 -0.21521 0.9750977
vn 0.2364502 0.894043 0.380127
vn 0.2963867 0.9121094 -0.2827148
vn -0.4748535 0.8105469 -0.3432617
vn 0.244873 0.9331055 -0.2636719
vn -0.1875 0.925293 0.3300781
vn -0.5556641 0.8256836 0.09625244
vn 0.1900635 0.442627 -0.8764648
vn -0.3723145 -0.1741943 -0.9116211
vn 0.04455566 -0.6274414 -0.7773438
vn 0.1906738 0.5869141 -0.7871094
vn -0.4018555 0.4516602 -0.7963867
vn 0.1879883 0.7451172 -0.6396484
vn -0.4301758 0.7729492 -0.4667969
vn -0.3974609 0.9169922 -0.03634644
vn 0.184082 0.7827148 -0.5947266
vn 0.00668335 0.8881836 0.4594727
vn 0.00668335 0.8881836 0.4594727
vn 0.184082 0.7827148 -0.5947266
vn 0.5537109 0.8217773 0.1331787
vn 0.1879883 0.7451172 -0.6396484
vn 0.7011719 0.6625977 -0.2634277
vn 0.1906738 0.5869141 -0.7871094
vn 0.7275391 0.3293457 -0.6020508
vn 0.1900635 0.442627 -0.8764648
vn 0.5795898 -0.2836914 -0.7641602
vn 0.04455566 -0.6274414 -0.7773438
vn -0.1879883 -0.7456055 0.6396484
vn 0.71875 -0.3261719 0.6137695
vn 0.7695313 -0.4873047 0.4128418
vn -0.1906738 -0.5844727 0.7890625
vn 0.4897461 -0.7641602 0.4199219
vn -0.1899414 -0.4396973 0.8779297
vn -0.7553711 -0.6132813 0.230957
vn -0.1774902 -0.8579102 0.4819336
vn 0.04455566 -0.6274414 -0.7773438
vn -0.3723145 -0.1741943 -0.9116211
vn -0.4018555 0.4516602 -0.7963867
vn -0.9433594 -0.3049316 0.1318359
vn -0.4301758 0.7729492 -0.4667969
vn -0.9345703 -0.1624756 0.3171387
vn -0.7636719 -0.166626 0.6240234
vn -0.18396 -0.7827148 0.5942383
vn -0.3974609 0.9169922 -0.03634644
vn -0.1959229 -0.2902832 0.9365234
vn 0.00668335 0.8881836 0.4594727
vn 0.06958008 0.9614258 -0.265625
vn -0.2055664 0.9013672 0.3815918
vn -0.4311523 0.9008789 0.05508423
vn 0.1849365 0.9633789 -0.194458
vn -0.009674072 1 -0.00158596
vn -0.192749 -0.980957 -0.03152466
vn -0.02114868 -1 -0.003458023
vn -0.1745605 -0.9760742 -0.1304932
vn -0.2069092 -0.9760742 0.06811523
vn -0.1152954 -0.9697266 0.2155762
vn -0.1539307 0.9868164 -0.0546875
vn 0.1849365 0.9633789 -0.194458
vn -0.4311523 0.9008789 0.05508423
vn 0.1607666 0.9868164 0.006256104
vn -0.4123535 0.8842773 -0.2185059
vn -0.009674072 1 -0.00158596
vn 0.1069336 0.9677734 0.2280273
vn 0.9404297 0.03338623 0.3383789
vn -0.1503906 0.3625488 0.9199219
vn -0.1580811 0.2008057 0.9667969
vn 0.9956055 -0.04620361 0.07873535
vn 0.1451416 -0.4367676 -0.8876953
vn 0.1574707 -0.2176514 -0.9633789
vn 0.1329346 0.565918 -0.8134766
vn 0.8305664 0.5375977 0.1461182
vn -0.1387939 0.5097656 0.8491211
vn -0.01132965 0.9975586 0.0692749
vn 0.5332031 0.8378906 -0.1152344
vn 0.2565918 0.9638672 0.07061768
vn 0.1409912 0.9375 -0.317627
vn 0.5620117 0.7641602 -0.3164063
vn 0.3232422 0.7207031 -0.6132813
vn 0.2836914 0.7363281 -0.6142578
vn 0.2380371 0.7045898 -0.668457
vn -0.1080322 0.7456055 -0.6572266
vn -0.28125 0.8198242 -0.4987793
vn -0.2807617 0.9506836 -0.1331787
vn -0.02134705 0.9995117 0.01664734
vn 0.2565918 0.9638672 0.07061768
vn 0.03933716 0.9936523 -0.104126
vn 0.00210762 1 -0.0001425743
vn -0.2807617 0.9506836 -0.1331787
vn 0.5332031 0.8378906 -0.1152344
vn 0.4250488 0.5942383 0.6831055
vn 0.2565918 0.9638672 0.07061768
vn 0.925293 0.2600098 0.2763672
vn 0.5864258 -0.684082 0.434082
vn 0.9780273 0.09771729 -0.1845703
vn 0.5620117 0.7641602 -0.3164063
vn 0.5332031 0.8378906 -0.1152344
vn 0.1739502 -0.3022461 0.9375
vn 0.6630859 -0.7397461 0.1144409
vn -0.08978271 -0.9736328 0.2102051
vn 0.3925781 -0.2958984 -0.8710938
vn 0.02180481 -0.9960938 -0.08685303
vn 0.5395508 0.02384949 -0.8417969
vn 0.5620117 0.7641602 -0.3164063
vn 0.3232422 0.7207031 -0.6132813
vn 0.4277344 0.07098389 -0.9008789
vn 0.3232422 0.7207031 -0.6132813
vn 0.2836914 0.7363281 -0.6142578
vn -0.3632813 -0.4541016 0.8134766
vn -0.3662109 0.4289551 0.8256836
vn -0.6958008 -0.6967773 -0.1734619
vn 0.3896484 -0.5458984 -0.7416992
vn 0.4301758 -0.2954102 -0.8530273
vn -0.4963379 -0.7514648 -0.4345703
vn 0.1105957 -0.009475708 -0.9936523
vn 0.2836914 0.7363281 -0.6142578
vn 0.2380371 0.7045898 -0.668457
vn -0.4926758 0.007434845 -0.8701172
vn 0.2380371 0.7045898 -0.668457
vn -0.1080322 0.7456055 -0.6572266
vn -0.8305664 -0.3122559 0.4614258
vn -0.8144531 0.2186279 -0.5375977
vn -0.28125 0.8198242 -0.4987793
vn -0.1080322 0.7456055 -0.6572266
vn -0.3276367 0.4411621 0.8354492
vn -0.4140625 0.4284668 0.8032227
vn -0.8417969 0.5322266 0.09216309
vn -0.2807617 0.9506836 -0.1331787
vn -0.28125 0.8198242 -0.4987793
vn -0.2324219 0.7885742 0.5693359
vn -0.2807617 0.9506836 -0.1331787
vn 0.00210762 1 -0.0001425743
vn -0.2071533 0.8696289 0.447998
vn 0.00210762 1 -0.0001425743
vn 0.03933716 0.9936523 -0.104126
vn -0.2961426 0.8076172 0.5097656
vn -0.02134705 0.9995117 0.01664734
vn 0.03933716 0.9936523 -0.104126
vn -0.02134705 0.9995117 0.01664734
vn 0.2565918 0.9638672 0.07061768
vn 0.8764648 -0.2607422 -0.4050293
vn -0.4196777 -0.8837891 0.206543
vn -0.1907959 -0.9335938 0.3034668
vn -0.4526367 -0.8828125 -0.1244507
vn -0.1787109 -0.9262695 -0.3322754
vn -0.07556152 -0.9970703 -0.02264404
vn 0.01835632 -0.7685547 -0.6391602
vn -0.3571777 -0.4260254 -0.8310547
vn -0.229126 0.2368164 -0.9443359
vn 0.1173096 0.2358398 -0.9648438
vn 0.4455566 -0.7421875 -0.5
vn 0.890625 -0.3527832 -0.2873535
vn 0.2010498 -0.5527344 0.8085938
vn 0.9443359 -0.2807617 0.1724854
vn -0.00611496 -0.987793 0.1571045
vn -0.4438477 -0.3330078 0.8320313
vn -0.1907959 -0.9335938 0.3034668
vn -0.3869629 0.2880859 0.8759766
vn 0.5078125 0.3354492 0.793457
vn -0.8666992 -0.2125244 0.451416
vn -0.4196777 -0.8837891 0.206543
vn -0.9272461 -0.2629395 -0.2663574
vn -0.4526367 -0.8828125 -0.1244507
vn -0.6518555 0.6640625 0.3654785
vn -0.3571777 -0.4260254 -0.8310547
vn -0.1787109 -0.9262695 -0.3322754
vn -0.7231445 0.5761719 -0.3808594
vn -0.229126 0.2368164 -0.9443359
vn -0.03723145 0.9331055 -0.3571777
vn 0.0440979 0.9990234 0.01821899
vn 0.1010742 0.9135742 0.3937988
vn 0.5078125 0.3354492 0.793457
vn 0.1435547 0.6044922 0.7836914
vn -0.1787109 -0.9262695 -0.3322754
vn -0.4526367 -0.8828125 -0.1244507
vn 0.8764648 -0.2607422 -0.4050293
vn -0.07556152 -0.9970703 -0.02264404
vn -0.07556152 -0.9970703 -0.02264404
vn 0.8203125 -0.2680664 -0.5053711
vn 0.4455566 -0.7421875 -0.5
vn 0.01835632 -0.7685547 -0.6391602
vn 0.9443359 -0.2807617 0.1724854
vn 0.5839844 0.8056641 0.09912109
vn 0.890625 -0.3527832 -0.2873535
vn 0.5078125 0.3354492 0.793457
vn 0.1435547 0.6044922 0.7836914
vn 0.8203125 -0.2680664 -0.5053711
vn 0.1173096 0.2358398 -0.9648438
vn 0.4455566 -0.7421875 -0.5
vn 0.4345703 0.7763672 -0.4560547
vn -0.229126 0.2368164 -0.9443359
vn 0.2231445 0.7421875 -0.6318359
vn -0.7231445 0.5761719 -0.3808594
vn -0.03723145 0.9331055 -0.3571777
vn 0.5839844 0.8056641 0.09912109
vn 0.8764648 -0.2607422 -0.4050293
vn 0.890625 -0.3527832 -0.2873535
vn 0.1435547 0.6044922 0.7836914
vn 0.1010742 0.9135742 0.3937988
vn 0.0440979 0.9990234 0.01821899
vn -0.03723145 0.9331055 -0.3571777
vn 0.2231445 0.7421875 -0.6318359
vn 0.4345703 0.7763672 -0.4560547
vn 0.8203125 -0.2680664 -0.5053711
g Apple_whole_01_0
f 3/3/3 2/2/2 1/1/1
f 6/6/6 5/5/5 4/4/4
f 8/8/8 7/7/7 6/6/6
f 11/11/11 10/10/10 9/9/9
f 14/14/14 13/13/13 12/12/12
f 17/17/17 16/16/16 15/15/15
f 17/17/17 15/15/15 18/18/18
f 19/19/19 17/17/17 18/18/18
f 20/20/20 19/19/19 18/18/18
f 21/21/21 20/20/20 18/18/18
f 15/15/15 22/22/22 18/18/18
f 15/15/15 23/23/23 22/22/22
f 24/24/24 21/21/21 18/18/18
f 21/21/21 24/24/24 25/25/25
f 23/23/23 26/26/26 22/22/22
f 23/23/23 27/27/27 26/26/26
f 27/27/27 28/28/28 26/26/26
f 22/22/22 29/29/29 18/18/18
f 29/29/29 22/22/22 26/26/26
f 29/29/29 24/24/24 18/18/18
f 30/30/30 26/26/26 28/28/28
f 30/30/30 29/29/29 26/26/26
f 29/29/29 30/30/30 31/31/31
f 32/32/32 30/30/30 28/28/28
f 30/30/30 32/32/32 31/31/31
f 32/32/32 33/33/33 31/31/31
f 31/31/31 33/33/33 34/34/34
f 35/35/35 31/31/31 34/34/34
f 31/31/31 35/35/35 36/36/36
f 37/37/37 31/31/31 36/36/36
f 37/37/37 29/29/29 31/31/31
f 24/24/24 29/29/29 37/37/37
f 38/38/38 24/24/24 37/37/37
f 24/24/24 38/38/38 25/25/25
f 38/38/38 37/37/37 39/39/39
f 38/38/38 39/39/39 25/25/25
f 37/37/37 40/40/40 39/39/39
f 39/39/39 41/41/41 25/25/25
f 44/44/44 43/43/43 42/42/42
f 43/43/43 45/45/45 42/42/42
f 43/43/43 46/46/46 45/45/45
f 46/46/46 47/47/47 45/45/45
f 46/46/46 48/48/48 47/47/47
f 48/48/48 49/49/49 47/47/47
f 48/48/48 50/50/50 49/49/49
f 45/45/45 47/47/47 51/51/51
f 47/47/47 49/49/49 52/52/52
f 47/47/47 52/52/52 51/51/51
f 51/51/51 53/53/53 45/45/45
f 53/53/53 54/54/54 45/45/45
f 53/53/53 51/51/51 55/55/55
f 53/53/53 55/55/55 56/56/56
f 57/57/57 53/53/53 56/56/56
f 51/51/51 58/58/58 55/55/55
f 51/51/51 52/52/52 58/58/58
f 50/50/50 59/59/59 49/49/49
f 59/59/59 50/50/50 60/60/60
f 50/50/50 61/61/61 60/60/60
f 60/60/60 61/61/61 62/62/62
f 63/63/63 49/49/49 59/59/59
f 49/49/49 63/63/63 52/52/52
f 64/64/64 63/63/63 59/59/59
f 52/52/52 63/63/63 65/65/65
f 52/52/52 65/65/65 58/58/58
f 66/66/66 63/63/63 64/64/64
f 63/63/63 66/66/66 65/65/65
f 67/67/67 66/66/66 64/64/64
f 66/66/66 67/67/67 68/68/68
f 65/65/65 66/66/66 68/68/68
f 67/67/67 69/69/69 68/68/68
f 70/70/70 65/65/65 68/68/68
f 65/65/65 70/70/70 58/58/58
f 70/70/70 71/71/71 58/58/58
f 58/58/58 71/71/71 72/72/72
f 71/71/71 73/73/73 72/72/72
f 76/76/76 75/75/75 74/74/74
f 75/75/75 77/77/77 74/74/74
f 77/77/77 75/75/75 78/78/78
f 79/79/79 77/77/77 78/78/78
f 77/77/77 79/79/79 80/80/80
f 77/77/77 81/81/81 74/74/74
f 81/81/81 77/77/77 80/80/80
f 81/81/81 82/82/82 74/74/74
f 80/80/80 83/83/83 81/81/81
f 81/81/81 83/83/83 82/82/82
f 86/86/86 85/85/85 84/84/84
f 84/84/84 87/87/87 86/86/86
f 87/87/87 88/88/88 86/86/86
f 91/91/91 90/90/90 89/89/89
f 92/92/92 91/91/91 89/89/89
f 89/89/89 93/93/93 92/92/92
f 94/94/94 91/91/91 92/92/92
f 92/92/92 93/93/93 95/95/95
f 95/95/95 94/94/94 92/92/92
f 98/98/98 97/97/97 96/96/96
f 99/99/99 98/98/98 96/96/96
f 100/100/100 98/98/98 99/99/99
f 101/101/101 100/100/100 99/99/99
f 100/100/100 101/101/101 102/102/102
f 103/103/103 99/99/99 96/96/96
f 101/101/101 99/99/99 103/103/103
f 101/101/101 104/104/104 102/102/102
f 102/102/102 104/104/104 105/105/105
f 106/106/106 102/102/102 105/105/105
f 107/107/107 106/106/106 105/105/105
f 108/108/108 107/107/107 105/105/105
f 108/108/108 105/105/105 103/103/103
f 101/101/101 109/109/109 104/104/104
f 109/109/109 105/105/105 104/104/104
f 105/105/105 109/109/109 103/103/103
f 109/109/109 101/101/101 103/103/103
f 108/108/108 103/103/103 110/110/110
f 110/110/110 103/103/103 96/96/96
f 111/111/111 108/108/108 110/110/110
f 112/112/112 110/110/110 96/96/96
f 111/111/111 110/110/110 112/112/112
f 113/113/113 112/112/112 96/96/96
f 114/114/114 111/111/111 112/112/112
f 115/115/115 112/112/112 113/113/113
f 115/115/115 114/114/114 112/112/112
f 118/118/118 117/117/117 116/116/116
f 119/119/119 118/118/118 116/116/116
f 116/116/116 120/120/120 119/119/119
f 121/121/121 118/118/118 119/119/119
f 119/119/119 120/120/120 122/122/122
f 122/122/122 121/121/121 119/119/119
f 125/125/125 124/124/124 123/123/123
f 124/124/124 126/126/126 123/123/123
f 127/127/127 126/126/126 124/124/124
f 123/123/123 126/126/126 128/128/128
f 126/126/126 127/127/127 128/128/128
f 127/127/127 129/129/129 128/128/128
f 130/130/130 123/123/123 128/128/128
f 131/131/131 130/130/130 128/128/128
f 132/132/132 131/131/131 128/128/128
f 131/131/131 132/132/132 133/133/133
f 134/134/134 131/131/131 133/133/133
f 134/134/134 133/133/133 135/135/135
f 135/135/135 133/133/133 136/136/136
f 137/137/137 134/134/134 135/135/135
f 140/140/140 139/139/139 138/138/138
f 141/141/141 140/140/140 138/138/138
f 141/141/141 142/142/142 140/140/140
f 142/142/142 143/143/143 140/140/140
f 144/144/144 141/141/141 138/138/138
f 144/144/144 142/142/142 141/141/141
f 143/143/143 142/142/142 145/145/145
f 145/145/145 142/142/142 144/144/144
f 146/146/146 143/143/143 145/145/145
f 147/147/147 146/146/146 145/145/145
f 148/148/148 144/144/144 138/138/138
f 145/145/145 144/144/144 148/148/148
f 148/148/148 138/138/138 149/149/149
f 150/150/150 147/147/147 145/145/145
f 150/150/150 145/145/145 148/148/148
f 147/147/147 150/150/150 151/151/151
f 150/150/150 152/152/152 151/151/151
f 153/153/153 148/148/148 149/149/149
f 150/150/150 148/148/148 153/153/153
f 152/152/152 150/150/150 153/153/153
f 153/153/153 149/149/149 154/154/154
f 152/152/152 153/153/153 155/155/155
f 155/155/155 153/153/153 154/154/154
f 156/156/156 152/152/152 155/155/155
f 155/155/155 154/154/154 157/157/157
f 156/156/156 155/155/155 157/157/157
f 160/160/160 159/159/159 158/158/158
f 161/161/161 158/158/158 159/159/159
f 162/162/162 161/161/161 159/159/159
f 163/163/163 161/161/161 162/162/162
f 164/164/164 163/163/163 162/162/162
f 163/163/163 164/164/164 165/165/165
f 166/166/166 163/163/163 165/165/165
f 166/166/166 165/165/165 167/167/167
f 170/170/170 169/169/169 168/168/168
f 171/171/171 169/169/169 170/170/170
f 172/172/172 171/171/171 170/170/170
f 173/173/173 171/171/171 172/172/172
f 174/174/174 173/173/173 172/172/172
f 175/175/175 173/173/173 174/174/174
f 176/176/176 175/175/175 174/174/174
f 176/176/176 177/177/177 175/175/175
f 180/180/180 179/179/179 178/178/178
f 181/181/181 180/180/180 178/178/178
f 182/182/182 180/180/180 181/181/181
f 183/183/183 182/182/182 181/181/181
f 184/184/184 183/183/183 181/181/181
f 185/185/185 183/183/183 184/184/184
f 186/186/186 185/185/185 184/184/184
f 187/187/187 186/186/186 184/184/184
f 188/188/188 187/187/187 184/184/184
f 189/189/189 184/184/184 181/181/181
f 189/189/189 188/188/188 184/184/184
f 189/189/189 181/181/181 178/178/178
f 190/190/190 188/188/188 189/189/189
f 191/191/191 189/189/189 178/178/178
f 191/191/191 190/190/190 189/189/189
f 192/192/192 191/191/191 178/178/178
f 190/190/190 191/191/191 192/192/192
f 193/193/193 192/192/192 178/178/178
f 194/194/194 190/190/190 192/192/192
f 192/192/192 193/193/193 195/195/195
f 194/194/194 192/192/192 195/195/195
f 196/196/196 194/194/194 195/195/195
f 199/199/199 198/198/198 197/197/197
f 200/200/200 199/199/199 197/197/197
f 197/197/197 201/201/201 200/200/200
f 204/204/204 203/203/203 202/202/202
f 203/203/203 205/205/205 202/202/202
f 205/205/205 203/203/203 206/206/206
f 209/209/209 208/208/208 207/207/207
f 208/208/208 210/210/210 207/207/207
f 211/211/211 207/207/207 210/210/210
f 208/208/208 212/212/212 210/210/210
f 213/213/213 211/211/211 210/210/210
f 210/210/210 212/212/212 213/213/213
f 216/216/216 215/215/215 214/214/214
f 217/217/217 216/216/216 214/214/214
f 217/217/217 214/214/214 218/218/218
f 219/219/219 217/217/217 218/218/218
f 217/217/217 219/219/219 220/220/220
f 216/216/216 217/217/217 221/221/221
f 221/221/221 217/217/217 220/220/220
f 222/222/222 216/216/216 221/221/221
f 220/220/220 223/223/223 221/221/221
f 221/221/221 223/223/223 222/222/222
f 226/226/226 225/225/225 224/224/224
f 224/224/224 227/227/227 226/226/226
f 228/228/228 226/226/226 227/227/227
f 228/228/228 229/229/229 226/226/226
f 230/230/230 226/226/226 229/229/229
f 230/230/230 231/231/231 226/226/226
f 226/226/226 231/231/231 232/232/232
f 233/233/233 226/226/226 232/232/232
f 235/235/235 226/226/226 234/234/234
f 234/234/234 226/226/226 236/236/236
f 236/236/236 226/226/226 237/237/237
f 238/238/238 237/237/237 226/226/226
f 241/241/241 240/240/240 239/239/239
f 240/240/240 242/242/242 239/239/239
f 243/243/243 242/242/242 240/240/240
f 244/244/244 242/242/242 243/243/243
f 242/242/242 244/244/244 245/245/245
f 246/246/246 242/242/242 245/245/245
f 247/247/247 243/243/243 240/240/240
f 248/248/248 244/244/244 243/243/243
f 249/249/249 243/243/243 247/247/247
f 248/248/248 243/243/243 249/249/249
f 244/244/244 248/248/248 250/250/250
f 251/251/251 248/248/248 249/249/249
f 250/250/250 248/248/248 251/251/251
f 252/252/252 244/244/244 250/250/250
f 253/253/253 244/244/244 252/252/252
f 254/254/254 253/253/253 252/252/252
f 255/255/255 252/252/252 250/250/250
f 252/252/252 255/255/255 256/256/256
f 255/255/255 257/257/257 256/256/256
f 258/258/258 249/249/249 247/247/247
f 247/247/247 240/240/240 259/259/259
f 258/258/258 247/247/247 259/259/259
f 249/249/249 260/260/260 251/251/251
f 260/260/260 249/249/249 258/258/258
f 261/261/261 250/250/250 251/251/251
f 262/262/262 255/255/255 250/250/250
f 261/261/261 262/262/262 250/250/250
f 261/261/261 251/251/251 263/263/263
f 262/262/262 261/261/261 263/263/263
f 260/260/260 263/263/263 251/251/251
f 255/255/255 262/262/262 264/264/264
f 264/264/264 262/262/262 263/263/263
f 255/255/255 264/264/264 265/265/265
f 264/264/264 266/266/266 265/265/265
f 267/267/267 264/264/264 263/263/263
f 267/267/267 263/263/263 260/260/260
f 268/268/268 264/264/264 267/267/267
f 269/269/269 268/268/268 267/267/267
f 270/270/270 260/260/260 258/258/258
f 271/271/271 267/267/267 260/260/260
f 271/271/271 260/260/260 270/270/270
f 271/271/271 272/272/272 267/267/267
f 272/272/272 273/273/273 267/267/267
f 258/258/258 274/274/274 270/270/270
f 274/274/274 258/258/258 259/259/259
f 274/274/274 275/275/275 270/270/270
f 275/275/275 274/274/274 259/259/259
f 276/276/276 271/271/271 270/270/270
f 276/276/276 277/277/277 271/271/271
f 277/277/277 278/278/278 271/271/271
f 276/276/276 270/270/270 279/279/279
f 270/270/270 275/275/275 279/279/279
f 276/276/276 279/279/279 280/280/280
f 279/279/279 281/281/281 280/280/280
f 279/279/279 275/275/275 282/282/282
f 282/282/282 275/275/275 259/259/259
f 279/279/279 282/282/282 283/283/283
f 282/282/282 284/284/284 283/283/283
f 285/285/285 282/282/282 259/259/259
f 240/240/240 285/285/285 259/259/259
f 285/285/285 286/286/286 282/282/282
f 286/286/286 287/287/287 282/282/282
f 288/288/288 285/285/285 240/240/240
f 289/289/289 288/288/288 240/240/240
f 292/292/292 291/291/291 290/290/290
f 290/290/290 291/291/291 293/293/293
f 296/296/296 295/295/295 294/294/294
f 297/297/297 296/296/296 294/294/294
f 297/297/297 298/298/298 296/296/296
f 298/298/298 299/299/299 296/296/296
f 296/296/296 299/299/299 300/300/300
f 303/303/303 302/302/302 301/301/301
f 302/302/302 304/304/304 301/301/301
f 302/302/302 305/305/305 304/304/304
f 305/305/305 306/306/306 304/304/304
f 305/305/305 302/302/302 307/307/307
f 302/302/302 308/308/308 307/307/307
f 306/306/306 305/305/305 309/309/309
f 305/305/305 307/307/307 309/309/309
f 310/310/310 306/306/306 309/309/309
f 309/309/309 311/311/311 310/310/310
f 311/311/311 312/312/312 310/310/310
f 307/307/307 313/313/313 309/309/309
f 309/309/309 313/313/313 311/311/311
f 312/312/312 311/311/311 314/314/314
f 315/315/315 312/312/312 314/314/314
f 311/311/311 316/316/316 314/314/314
f 313/313/313 316/316/316 311/311/311
f 316/316/316 317/317/317 314/314/314
f 316/316/316 313/313/313 318/318/318
f 313/313/313 319/319/319 318/318/318
f 313/313/313 307/307/307 319/319/319
f 307/307/307 320/320/320 319/319/319
f 307/307/307 321/321/321 320/320/320
f 321/321/321 322/322/322 320/320/320
f 325/325/325 324/324/324 323/323/323
f 323/323/323 326/326/326 325/325/325
f 329/329/329 328/328/328 327/327/327
f 330/330/330 329/329/329 327/327/327
f 333/333/333 332/332/332 331/331/331
f 332/332/332 334/334/334 331/331/331
f 334/334/334 332/332/332 335/335/335
f 338/338/338 337/337/337 336/336/336
f 337/337/337 339/339/339 336/336/336
f 339/339/339 337/337/337 340/340/340
f 341/341/341 339/339/339 340/340/340
f 341/341/341 340/340/340 342/342/342
f 343/343/343 341/341/341 342/342/342
f 346/346/346 345/345/345 344/344/344
f 347/347/347 344/344/344 345/345/345
f 348/348/348 347/347/347 345/345/345
f 349/349/349 348/348/348 345/345/345
f 350/350/350 349/349/349 345/345/345
f 350/350/350 345/345/345 351/351/351
f 351/351/351 345/345/345 352/352/352
f 352/352/352 345/345/345 353/353/353
