g Back_Wheel
v -0.03239252 -0.6405329 0.5406209
v -0.0133729 -0.5819964 0.5808596
v 0.04734686 -0.5819964 0.5808596
v 0.06636648 -0.6405329 0.5406209
v -0.03239252 -0.6405329 0.4548366
v 0.09647009 -0.5463061 0.5808596
v 0.06636648 -0.6405329 0.4548366
v -0.02585535 -0.6204135 0.419988
v 0.05982931 -0.6204135 0.419988
v 0.1462642 -0.5824838 0.5406209
v 0.1152335 -0.4885584 0.5808596
v 0.1462642 -0.5824838 0.4548366
v 0.1291495 -0.5700494 0.4199886
v 0.1767823 -0.4885584 0.5406209
v 0.09647009 -0.4308105 0.5808596
v 0.1767823 -0.4885584 0.4548366
v 0.1556275 -0.4885584 0.419988
v 0.1462642 -0.3946329 0.5406209
v 0.04734686 -0.3951202 0.5808602
v 0.1462642 -0.3946329 0.4548366
v 0.1291495 -0.4070679 0.419988
v 0.06636648 -0.3365839 0.5406209
v -0.0133729 -0.3951202 0.5808602
v 0.06636648 -0.3365839 0.4548366
v 0.05982931 -0.3567038 0.4199886
v -0.03239252 -0.3365839 0.5406209
v -0.06249597 -0.4308105 0.5808596
v -0.03239252 -0.3365839 0.4548366
v -0.02585535 -0.3567038 0.4199886
v -0.1122901 -0.3946329 0.5406209
v -0.08125956 -0.4885584 0.5808596
v -0.1122901 -0.3946329 0.4548366
v -0.09517557 -0.4070679 0.419988
v -0.1428085 -0.4885584 0.5406209
v -0.06249597 -0.5463061 0.5808596
v -0.1428085 -0.4885584 0.4548366
v -0.1216534 -0.4885584 0.419988
v -0.1122901 -0.5824838 0.5406209
v -0.0133729 -0.5819964 0.5808596
v -0.03239252 -0.6405329 0.5406209
v -0.1122901 -0.5824838 0.4548366
v -0.09517557 -0.5700494 0.4199886
v -0.03239252 -0.6405329 0.4548366
v -0.02585535 -0.6204135 0.419988
v 0.03977606 -0.4894968 0.2921224
v 0.03977606 -0.4894968 0.3710641
v 0.03977606 -2.876635E-07 0.3710641
v 0.03977606 -2.876635E-07 0.2921224
v 0.03977606 -0.4894968 0.3710641
v -0.005801029 -2.876635E-07 0.3315932
v 0.03977606 -2.876635E-07 0.3710641
v -0.005801029 -0.4894968 0.3315932
v 0.03977606 -2.876635E-07 0.2921224
v 0.03977606 -0.4894968 0.2921224
v 0.01698751 -0.4448617 0.4943728
v -0.007788029 -0.5306876 0.4943734
v -0.007788181 -0.5306876 0.1688131
v 0.01698736 -0.4448617 0.1688125
v -0.007788029 -0.5306876 0.4943734
v 0.04176306 -0.5306876 0.1688131
v -0.007788181 -0.5306876 0.1688131
v 0.04176336 -0.5306876 0.4943734
v 0.01698736 -0.4448617 0.1688125
v 0.01698751 -0.4448617 0.4943728
v -0.03239206 -0.6405329 0.122087
v -0.01337244 -0.5819964 0.08184775
v -0.06249567 -0.5463061 0.08184775
v -0.1122898 -0.5824838 0.122087
v -0.03239206 -0.6405329 0.2078713
v -0.08125909 -0.4885584 0.08184775
v -0.1122898 -0.5824838 0.2078713
v -0.02585489 -0.6204135 0.2427193
v -0.09517511 -0.5700494 0.2427187
v -0.1428082 -0.4885584 0.122087
v -0.06249567 -0.4308105 0.08184775
v -0.1428082 -0.4885584 0.2078713
v -0.1216528 -0.4885584 0.2427193
v -0.1122898 -0.3946329 0.1220876
v -0.01337244 -0.3951205 0.08184836
v -0.1122898 -0.3946329 0.2078707
v -0.09517511 -0.4070679 0.2427193
v -0.03239206 -0.3365839 0.1220876
v 0.04734731 -0.3951205 0.08184836
v -0.03239206 -0.3365839 0.2078707
v -0.02585489 -0.3567038 0.2427187
v 0.06636694 -0.3365839 0.1220876
v 0.09647054 -0.4308105 0.08184775
v 0.06636694 -0.3365839 0.2078707
v 0.05982977 -0.3567038 0.2427187
v 0.1462647 -0.3946329 0.1220876
v 0.1152341 -0.4885584 0.08184775
v 0.1462646 -0.3946329 0.2078707
v 0.1291497 -0.4070679 0.2427193
v 0.1767827 -0.4885584 0.122087
v 0.09647054 -0.5463061 0.08184775
v 0.1767827 -0.4885584 0.2078713
v 0.1556278 -0.4885584 0.2427193
v 0.1462647 -0.5824838 0.122087
v 0.04734731 -0.5819964 0.08184775
v 0.1462646 -0.5824838 0.2078713
v 0.1291497 -0.5700494 0.2427187
v 0.06636694 -0.6405329 0.122087
v -0.01337244 -0.5819964 0.08184775
v -0.03239206 -0.6405329 0.122087
v 0.06636694 -0.6405329 0.2078713
v 0.05982977 -0.6204135 0.2427193
v -0.03239206 -0.6405329 0.2078713
v -0.02585489 -0.6204135 0.2427193
v -0.06249597 -0.5463061 0.5808596
v -0.08125956 -0.4885584 0.5808596
v -0.06249597 -0.4308105 0.5808596
v 0.04734686 -0.3951202 0.5808602
v -0.0133729 -0.3951202 0.5808602
v 0.1152335 -0.4885584 0.5808596
v 0.09647009 -0.4308105 0.5808596
v 0.04734686 -0.5819964 0.5808596
v 0.09647009 -0.5463061 0.5808596
v -0.0133729 -0.5819964 0.5808596
v -0.1216534 -0.4885584 0.419988
v -0.09517557 -0.5700494 0.4199886
v -0.02585535 -0.6204135 0.419988
v 0.05982931 -0.6204135 0.419988
v 0.1291495 -0.5700494 0.4199886
v 0.1291495 -0.4070679 0.419988
v 0.1556275 -0.4885584 0.419988
v -0.02585535 -0.3567038 0.4199886
v 0.05982931 -0.3567038 0.4199886
v -0.09517557 -0.4070679 0.419988
v 0.09647054 -0.5463061 0.08184775
v 0.1152341 -0.4885584 0.08184775
v 0.09647054 -0.4308105 0.08184775
v -0.01337244 -0.3951205 0.08184836
v 0.04734731 -0.3951205 0.08184836
v -0.01337244 -0.5819964 0.08184775
v 0.04734731 -0.5819964 0.08184775
v -0.06249567 -0.5463061 0.08184775
v -0.08125909 -0.4885584 0.08184775
v -0.06249567 -0.4308105 0.08184775
v 0.05982977 -0.6204135 0.2427193
v -0.02585489 -0.6204135 0.2427193
v -0.09517511 -0.5700494 0.2427187
v 0.1291497 -0.5700494 0.2427187
v 0.1556278 -0.4885584 0.2427193
v 0.05982977 -0.3567038 0.2427187
v 0.1291497 -0.4070679 0.2427193
v -0.1216528 -0.4885584 0.2427193
v -0.09517511 -0.4070679 0.2427193
v -0.02585489 -0.3567038 0.2427187
v -0.08155954 -0.6405329 -0.1225657
v -0.06254007 -0.5819964 -0.08232644
v -0.001820316 -0.5819964 -0.08232644
v 0.01719961 -0.6405329 -0.1225657
v -0.08155954 -0.6405329 -0.2083488
v 0.04730307 -0.5463061 -0.08232644
v 0.01719961 -0.6405329 -0.2083488
v -0.07502268 -0.6204135 -0.2431968
v 0.01066183 -0.6204135 -0.2431968
v 0.09709692 -0.5824838 -0.1225657
v 0.06606619 -0.4885584 -0.08232644
v 0.09709692 -0.5824838 -0.2083488
v 0.07998205 -0.5700494 -0.2431968
v 0.1276153 -0.4885584 -0.1225657
v 0.04730307 -0.4308105 -0.08232644
v 0.1276153 -0.4885584 -0.2083488
v 0.1064602 -0.4885584 -0.2431968
v 0.09709692 -0.3946329 -0.1225651
v -0.001820316 -0.3951202 -0.08232583
v 0.09709692 -0.3946329 -0.2083494
v 0.07998205 -0.4070679 -0.2431968
v 0.01719961 -0.3365839 -0.1225651
v -0.06254007 -0.3951202 -0.08232583
v 0.01719961 -0.3365839 -0.2083494
v 0.01066183 -0.3567038 -0.2431968
v -0.08155954 -0.3365839 -0.1225651
v -0.111663 -0.4308105 -0.08232644
v -0.08155954 -0.3365839 -0.2083494
v -0.07502268 -0.3567038 -0.2431968
v -0.1614575 -0.3946329 -0.1225651
v -0.1304266 -0.4885584 -0.08232644
v -0.1614575 -0.3946329 -0.2083494
v -0.1443429 -0.4070679 -0.2431968
v -0.1919757 -0.4885584 -0.1225657
v -0.111663 -0.5463061 -0.08232644
v -0.1919757 -0.4885584 -0.2083488
v -0.1708209 -0.4885584 -0.2431968
v -0.1614575 -0.5824838 -0.1225657
v -0.06254007 -0.5819964 -0.08232644
v -0.08155954 -0.6405329 -0.1225657
v -0.1614575 -0.5824838 -0.2083488
v -0.1443429 -0.5700494 -0.2431968
v -0.08155954 -0.6405329 -0.2083488
v -0.07502268 -0.6204135 -0.2431968
v -0.00939127 -0.4894968 -0.3710636
v -0.00939127 -0.4894968 -0.292122
v -0.00939127 -2.876635E-07 -0.292122
v -0.00939127 -2.876635E-07 -0.3710636
v -0.00939127 -0.4894968 -0.292122
v -0.0549682 -2.876635E-07 -0.3315928
v -0.00939127 -2.876635E-07 -0.292122
v -0.0549682 -0.4894968 -0.3315928
v -0.00939127 -2.876635E-07 -0.3710636
v -0.00939127 -0.4894968 -0.3710636
v -0.03217951 -0.4448617 -0.1688133
v -0.05695536 -0.5306876 -0.1688126
v -0.05695536 -0.5306876 -0.4943735
v -0.03217981 -0.4448617 -0.4943729
v -0.05695536 -0.5306876 -0.1688126
v -0.007404117 -0.5306876 -0.4943735
v -0.05695536 -0.5306876 -0.4943735
v -0.007403965 -0.5306876 -0.1688126
v -0.03217981 -0.4448617 -0.4943729
v -0.03217951 -0.4448617 -0.1688133
v -0.08155908 -0.6405331 -0.541099
v -0.06253961 -0.5819967 -0.5813383
v -0.1116628 -0.5463064 -0.5813383
v -0.1614572 -0.5824841 -0.541099
v -0.08155908 -0.6405329 -0.4553153
v -0.1304263 -0.4885584 -0.5813383
v -0.1614572 -0.5824838 -0.4553153
v -0.07502192 -0.6204135 -0.4204667
v -0.1443423 -0.5700494 -0.4204667
v -0.191975 -0.4885584 -0.541099
v -0.1116628 -0.4308108 -0.5813383
v -0.191975 -0.4885584 -0.4553153
v -0.1708203 -0.4885584 -0.4204667
v -0.1614572 -0.3946329 -0.5410984
v -0.06253961 -0.3951208 -0.5813383
v -0.1614572 -0.3946329 -0.4553147
v -0.1443423 -0.4070679 -0.4204667
v -0.08155908 -0.3365839 -0.5410984
v -0.001819859 -0.3951208 -0.5813383
v -0.08155908 -0.3365839 -0.4553147
v -0.07502192 -0.3567038 -0.4204667
v 0.01719976 -0.3365839 -0.5410984
v 0.04730322 -0.4308108 -0.5813383
v 0.01719961 -0.3365839 -0.4553147
v 0.01066229 -0.3567038 -0.4204667
v 0.09709768 -0.3946329 -0.5410984
v 0.06606665 -0.4885584 -0.5813383
v 0.09709723 -0.3946329 -0.4553147
v 0.0799825 -0.4070679 -0.4204667
v 0.1276157 -0.4885584 -0.541099
v 0.04730322 -0.5463064 -0.5813383
v 0.1276157 -0.4885584 -0.4553153
v 0.1064603 -0.4885584 -0.4204667
v 0.09709768 -0.5824841 -0.541099
v -0.001819859 -0.5819967 -0.5813383
v 0.09709723 -0.5824838 -0.4553153
v 0.0799825 -0.5700494 -0.4204667
v 0.01719976 -0.6405331 -0.541099
v -0.06253961 -0.5819967 -0.5813383
v -0.08155908 -0.6405331 -0.541099
v 0.01719961 -0.6405329 -0.4553153
v 0.01066229 -0.6204135 -0.4204667
v -0.08155908 -0.6405329 -0.4553153
v -0.07502192 -0.6204135 -0.4204667
v -0.111663 -0.5463061 -0.08232644
v -0.1304266 -0.4885584 -0.08232644
v -0.111663 -0.4308105 -0.08232644
v -0.001820316 -0.3951202 -0.08232583
v -0.06254007 -0.3951202 -0.08232583
v 0.06606619 -0.4885584 -0.08232644
v 0.04730307 -0.4308105 -0.08232644
v -0.001820316 -0.5819964 -0.08232644
v 0.04730307 -0.5463061 -0.08232644
v -0.06254007 -0.5819964 -0.08232644
v -0.1708209 -0.4885584 -0.2431968
v -0.1443429 -0.5700494 -0.2431968
v -0.07502268 -0.6204135 -0.2431968
v 0.01066183 -0.6204135 -0.2431968
v 0.07998205 -0.5700494 -0.2431968
v 0.07998205 -0.4070679 -0.2431968
v 0.1064602 -0.4885584 -0.2431968
v -0.07502268 -0.3567038 -0.2431968
v 0.01066183 -0.3567038 -0.2431968
v -0.1443429 -0.4070679 -0.2431968
v 0.04730322 -0.5463064 -0.5813383
v 0.06606665 -0.4885584 -0.5813383
v 0.04730322 -0.4308108 -0.5813383
v -0.06253961 -0.3951208 -0.5813383
v -0.001819859 -0.3951208 -0.5813383
v -0.06253961 -0.5819967 -0.5813383
v -0.001819859 -0.5819967 -0.5813383
v -0.1116628 -0.5463064 -0.5813383
v -0.1304263 -0.4885584 -0.5813383
v -0.1116628 -0.4308108 -0.5813383
v 0.01066229 -0.6204135 -0.4204667
v -0.07502192 -0.6204135 -0.4204667
v -0.1443423 -0.5700494 -0.4204667
v 0.0799825 -0.5700494 -0.4204667
v 0.1064603 -0.4885584 -0.4204667
v 0.01066229 -0.3567038 -0.4204667
v 0.0799825 -0.4070679 -0.4204667
v -0.1708203 -0.4885584 -0.4204667
v -0.1443423 -0.4070679 -0.4204667
v -0.07502192 -0.3567038 -0.4204667
vt 0.133667 0.8222656
vt 0.133667 0.8188477
vt 0.1364746 0.8188477
vt 0.1364746 0.8222656
vt 0.133667 0.8261719
vt 0.1397705 0.8188477
vt 0.1364746 0.8261719
vt 0.133667 0.8286133
vt 0.1364746 0.8286133
vt 0.1397705 0.8222656
vt 0.1435547 0.8188477
vt 0.1397705 0.8261719
vt 0.1397705 0.8286133
vt 0.1435547 0.8222656
vt 0.1478271 0.8188477
vt 0.1435547 0.8261719
vt 0.1435547 0.8286133
vt 0.1478271 0.8222656
vt 0.1524658 0.8188477
vt 0.1478271 0.8261719
vt 0.1478271 0.8286133
vt 0.1524658 0.8222656
vt 0.1575928 0.8188477
vt 0.1524658 0.8261719
vt 0.1524658 0.8286133
vt 0.1575928 0.8222656
vt 0.1627197 0.8188477
vt 0.1575928 0.8261719
vt 0.1575928 0.8286133
vt 0.1627197 0.8222656
vt 0.1679688 0.8188477
vt 0.1627197 0.8261719
vt 0.1627197 0.8286133
vt 0.1679688 0.8222656
vt 0.1733398 0.8188477
vt 0.1679688 0.8261719
vt 0.1679688 0.8286133
vt 0.1733398 0.8222656
vt 0.1784668 0.8188477
vt 0.1784668 0.8222656
vt 0.1733398 0.8261719
vt 0.1733398 0.8286133
vt 0.1784668 0.8261719
vt 0.1784668 0.8286133
vt 0.2227783 0.8813477
vt 0.2227783 0.8793945
vt 0.2167969 0.8793945
vt 0.2167969 0.8813477
vt 0.2227783 0.8793945
vt 0.2167969 0.8803711
vt 0.2167969 0.8793945
vt 0.2227783 0.8803711
vt 0.2167969 0.8813477
vt 0.2227783 0.8813477
vt 0.2207031 0.8798828
vt 0.2207031 0.8842773
vt 0.2288818 0.8842773
vt 0.2288818 0.8798828
vt 0.2207031 0.8842773
vt 0.2288818 0.8828125
vt 0.2288818 0.8842773
vt 0.2207031 0.8828125
vt 0.2288818 0.8798828
vt 0.2207031 0.8798828
vt 0.133667 0.8222656
vt 0.133667 0.8188477
vt 0.1364746 0.8188477
vt 0.1364746 0.8222656
vt 0.133667 0.8261719
vt 0.1397705 0.8188477
vt 0.1364746 0.8261719
vt 0.133667 0.8286133
vt 0.1364746 0.8286133
vt 0.1397705 0.8222656
vt 0.1435547 0.8188477
vt 0.1397705 0.8261719
vt 0.1397705 0.8286133
vt 0.1435547 0.8222656
vt 0.1478271 0.8188477
vt 0.1435547 0.8261719
vt 0.1435547 0.8286133
vt 0.1478271 0.8222656
vt 0.1524658 0.8188477
vt 0.1478271 0.8261719
vt 0.1478271 0.8286133
vt 0.1524658 0.8222656
vt 0.1575928 0.8188477
vt 0.1524658 0.8261719
vt 0.1524658 0.8286133
vt 0.1575928 0.8222656
vt 0.1627197 0.8188477
vt 0.1575928 0.8261719
vt 0.1575928 0.8286133
vt 0.1627197 0.8222656
vt 0.1679688 0.8188477
vt 0.1627197 0.8261719
vt 0.1627197 0.8286133
vt 0.1679688 0.8222656
vt 0.1733398 0.8188477
vt 0.1679688 0.8261719
vt 0.1679688 0.8286133
vt 0.1733398 0.8222656
vt 0.1784668 0.8188477
vt 0.1784668 0.8222656
vt 0.1733398 0.8261719
vt 0.1733398 0.8286133
vt 0.1784668 0.8261719
vt 0.1784668 0.8286133
vt 0.7182617 0.9189453
vt 0.7226563 0.9204102
vt 0.7250977 0.9238281
vt 0.7226563 0.9321289
vt 0.7250977 0.9287109
vt 0.7138672 0.9321289
vt 0.7182617 0.9335938
vt 0.7114258 0.9238281
vt 0.7114258 0.9287109
vt 0.7138672 0.9204102
vt 0.1639404 0.8334961
vt 0.1604004 0.8325195
vt 0.1583252 0.8295898
vt 0.1583252 0.8256836
vt 0.1604004 0.8227539
vt 0.1673584 0.8227539
vt 0.1639404 0.8217773
vt 0.1695557 0.8295898
vt 0.1695557 0.8256836
vt 0.1673584 0.8325195
vt 0.7319336 0.9335938
vt 0.7275391 0.9321289
vt 0.7250977 0.9287109
vt 0.7275391 0.9204102
vt 0.7250977 0.9238281
vt 0.7387695 0.9287109
vt 0.7363281 0.9321289
vt 0.7387695 0.9238281
vt 0.7363281 0.9204102
vt 0.7319336 0.9189453
vt 0.1583252 0.8295898
vt 0.1561279 0.8325195
vt 0.1525879 0.8334961
vt 0.1583252 0.8256836
vt 0.1561279 0.8227539
vt 0.1491699 0.8227539
vt 0.1525879 0.8217773
vt 0.1491699 0.8325195
vt 0.1469727 0.8295898
vt 0.1469727 0.8256836
vt 0.133667 0.8222656
vt 0.133667 0.8188477
vt 0.1364746 0.8188477
vt 0.1364746 0.8222656
vt 0.133667 0.8261719
vt 0.1397705 0.8188477
vt 0.1364746 0.8261719
vt 0.133667 0.8286133
vt 0.1364746 0.8286133
vt 0.1397705 0.8222656
vt 0.1435547 0.8188477
vt 0.1397705 0.8261719
vt 0.1397705 0.8286133
vt 0.1435547 0.8222656
vt 0.1478271 0.8188477
vt 0.1435547 0.8261719
vt 0.1435547 0.8286133
vt 0.1478271 0.8222656
vt 0.1524658 0.8188477
vt 0.1478271 0.8261719
vt 0.1478271 0.8286133
vt 0.1524658 0.8222656
vt 0.1575928 0.8188477
vt 0.1524658 0.8261719
vt 0.1524658 0.8286133
vt 0.1575928 0.8222656
vt 0.1627197 0.8188477
vt 0.1575928 0.8261719
vt 0.1575928 0.8286133
vt 0.1627197 0.8222656
vt 0.1679688 0.8188477
vt 0.1627197 0.8261719
vt 0.1627197 0.8286133
vt 0.1679688 0.8222656
vt 0.1733398 0.8188477
vt 0.1679688 0.8261719
vt 0.1679688 0.8286133
vt 0.1733398 0.8222656
vt 0.1784668 0.8188477
vt 0.1784668 0.8222656
vt 0.1733398 0.8261719
vt 0.1733398 0.8286133
vt 0.1784668 0.8261719
vt 0.1784668 0.8286133
vt 0.2227783 0.8813477
vt 0.2227783 0.8793945
vt 0.2167969 0.8793945
vt 0.2167969 0.8813477
vt 0.2227783 0.8793945
vt 0.2167969 0.8803711
vt 0.2167969 0.8793945
vt 0.2227783 0.8803711
vt 0.2167969 0.8813477
vt 0.2227783 0.8813477
vt 0.2207031 0.8798828
vt 0.2207031 0.8842773
vt 0.2288818 0.8842773
vt 0.2288818 0.8798828
vt 0.2207031 0.8842773
vt 0.2288818 0.8828125
vt 0.2288818 0.8842773
vt 0.2207031 0.8828125
vt 0.2288818 0.8798828
vt 0.2207031 0.8798828
vt 0.133667 0.8222656
vt 0.133667 0.8188477
vt 0.1364746 0.8188477
vt 0.1364746 0.8222656
vt 0.133667 0.8261719
vt 0.1397705 0.8188477
vt 0.1364746 0.8261719
vt 0.133667 0.8286133
vt 0.1364746 0.8286133
vt 0.1397705 0.8222656
vt 0.1435547 0.8188477
vt 0.1397705 0.8261719
vt 0.1397705 0.8286133
vt 0.1435547 0.8222656
vt 0.1478271 0.8188477
vt 0.1435547 0.8261719
vt 0.1435547 0.8286133
vt 0.1478271 0.8222656
vt 0.1524658 0.8188477
vt 0.1478271 0.8261719
vt 0.1478271 0.8286133
vt 0.1524658 0.8222656
vt 0.1575928 0.8188477
vt 0.1524658 0.8261719
vt 0.1524658 0.8286133
vt 0.1575928 0.8222656
vt 0.1627197 0.8188477
vt 0.1575928 0.8261719
vt 0.1575928 0.8286133
vt 0.1627197 0.8222656
vt 0.1679688 0.8188477
vt 0.1627197 0.8261719
vt 0.1627197 0.8286133
vt 0.1679688 0.8222656
vt 0.1733398 0.8188477
vt 0.1679688 0.8261719
vt 0.1679688 0.8286133
vt 0.1733398 0.8222656
vt 0.1784668 0.8188477
vt 0.1784668 0.8222656
vt 0.1733398 0.8261719
vt 0.1733398 0.8286133
vt 0.1784668 0.8261719
vt 0.1784668 0.8286133
vt 0.7182617 0.9189453
vt 0.7226563 0.9204102
vt 0.7250977 0.9238281
vt 0.7226563 0.9321289
vt 0.7250977 0.9287109
vt 0.7138672 0.9321289
vt 0.7182617 0.9335938
vt 0.7114258 0.9238281
vt 0.7114258 0.9287109
vt 0.7138672 0.9204102
vt 0.1639404 0.8334961
vt 0.1604004 0.8325195
vt 0.1583252 0.8295898
vt 0.1583252 0.8256836
vt 0.1604004 0.8227539
vt 0.1673584 0.8227539
vt 0.1639404 0.8217773
vt 0.1695557 0.8295898
vt 0.1695557 0.8256836
vt 0.1673584 0.8325195
vt 0.7319336 0.9335938
vt 0.7275391 0.9321289
vt 0.7250977 0.9287109
vt 0.7275391 0.9204102
vt 0.7250977 0.9238281
vt 0.7387695 0.9287109
vt 0.7363281 0.9321289
vt 0.7387695 0.9238281
vt 0.7363281 0.9204102
vt 0.7319336 0.9189453
vt 0.1583252 0.8295898
vt 0.1561279 0.8325195
vt 0.1525879 0.8334961
vt 0.1583252 0.8256836
vt 0.1561279 0.8227539
vt 0.1491699 0.8227539
vt 0.1525879 0.8217773
vt 0.1491699 0.8325195
vt 0.1469727 0.8295898
vt 0.1469727 0.8256836
vn -0.2900391 -0.8930664 0.3444824
vn -0.1518555 -0.4672852 0.8710938
vn 0.1087646 -0.3347168 0.9360352
vn 0.2900391 -0.8930664 0.3444824
vn -0.3054199 -0.9399414 -0.1523438
vn 0.3974609 -0.2888184 0.8710938
vn 0.3054199 -0.9399414 -0.1523438
vn -0.1473389 -0.4533691 -0.8789063
vn 0.1120605 -0.3449707 -0.9321289
vn 0.7592773 -0.5517578 0.3444824
vn 0.3068848 -2.026558E-06 0.9516602
vn 0.7998047 -0.5810547 -0.1523438
vn 0.2004395 -0.1456299 -0.96875
vn 0.9389648 -1.788139E-07 0.3444824
vn 0.3974609 0.2888184 0.8710938
vn 0.9882813 4.172325E-07 -0.1523438
vn 0.6660156 2.384186E-07 -0.7456055
vn 0.7592773 0.5517578 0.3444824
vn 0.09484863 0.2919922 0.9516602
vn 0.7998047 0.5810547 -0.1523438
vn 0.2004395 0.1456299 -0.96875
vn 0.2900391 0.8930664 0.3444824
vn -0.1518555 0.4672852 0.8710938
vn 0.3054199 0.9399414 -0.1523438
vn 0.2059326 0.6337891 -0.7456055
vn -0.2900391 0.8930664 0.3444824
vn -0.284668 0.2069092 0.9360352
vn -0.3054199 0.9399414 -0.1523438
vn -0.09820557 0.3022461 -0.9482422
vn -0.7592773 0.5517578 0.3444824
vn -0.4912109 1.788139E-07 0.8710938
vn -0.7998047 0.5810547 -0.1523438
vn -0.5390625 0.3916016 -0.7456055
vn -0.9389648 0 0.3444824
vn -0.2653809 -0.192749 0.9448242
vn -0.9882813 2.980232E-07 -0.1523438
vn -0.3037109 7.152557E-07 -0.9526367
vn -0.7592773 -0.5517578 0.3444824
vn -0.1518555 -0.4672852 0.8710938
vn -0.2900391 -0.8930664 0.3444824
vn -0.7998047 -0.5810547 -0.1523438
vn -0.5390625 -0.3916016 -0.7456055
vn -0.3054199 -0.9399414 -0.1523438
vn -0.1473389 -0.4533691 -0.8789063
vn 0.6547852 0 -0.7558594
vn 0.6547852 0 0.7558594
vn 0.6547852 0 0.7558594
vn 0.6547852 0 -0.7558594
vn 0.6547852 0 0.7558594
vn -1 0 0
vn 0.6547852 0 0.7558594
vn -1 0 0
vn 0.6547852 0 -0.7558594
vn 0.6547852 0 -0.7558594
vn 5.960464E-07 1 -3.576279E-07
vn -0.9609375 -0.2773438 0
vn -0.9609375 -0.2773438 0
vn 0 1 -3.576279E-07
vn -0.9609375 -0.2773438 0
vn 0.9609375 -0.2773438 -1.072884E-06
vn -0.9609375 -0.2773438 0
vn 0.9609375 -0.2773438 -1.072884E-06
vn 0 1 -3.576279E-07
vn 5.960464E-07 1 -3.576279E-07
vn -0.2900391 -0.8930664 -0.3444824
vn -0.09484863 -0.2919922 -0.9516602
vn -0.3044434 -0.2211914 -0.9267578
vn -0.7592773 -0.5517578 -0.3444824
vn -0.3054199 -0.9399414 0.1523438
vn -0.427002 2.205372E-06 -0.9042969
vn -0.7998047 -0.5810547 0.1523438
vn -0.2059326 -0.6337891 0.7456055
vn -0.2457275 -0.1785889 0.9526367
vn -0.9389648 5.960464E-07 -0.3444824
vn -0.3974609 0.2888184 -0.8710938
vn -0.9882813 5.960464E-07 0.1523438
vn -0.3625488 -1.66893E-06 0.9321289
vn -0.7592773 0.5517578 -0.3444824
vn -0.1062012 0.3269043 -0.9389648
vn -0.7998047 0.5810547 0.1523438
vn -0.385498 0.2800293 0.8789063
vn -0.2900391 0.8930664 -0.3444824
vn 0.1518555 0.4672852 -0.8710938
vn -0.3054199 0.9399414 0.1523438
vn -0.2059326 0.6337891 0.7456055
vn 0.2900391 0.8930664 -0.3444824
vn 0.284668 0.2069092 -0.9360352
vn 0.3054199 0.9399414 0.1523438
vn 0.08270264 0.2546387 0.9633789
vn 0.7592773 0.5517578 -0.3444824
vn 0.4912109 1.966953E-06 -0.8710938
vn 0.7998047 0.5810547 0.1523438
vn 0.5390625 0.3916016 0.7456055
vn 0.9389648 -5.364418E-07 -0.3444824
vn 0.2484131 -0.1804199 -0.9516602
vn 0.9882813 -6.556511E-07 0.1523438
vn 0.2476807 7.748604E-07 0.96875
vn 0.7592773 -0.5517578 -0.3444824
vn 0.1518555 -0.4672852 -0.8710938
vn 0.7998047 -0.5810547 0.1523438
vn 0.293457 -0.2131348 0.9321289
vn 0.2900391 -0.8930664 -0.3444824
vn -0.09484863 -0.2919922 -0.9516602
vn -0.2900391 -0.8930664 -0.3444824
vn 0.3054199 -0.9399414 0.1523438
vn 0.1472168 -0.4533691 0.8789063
vn -0.3054199 -0.9399414 0.1523438
vn -0.2059326 -0.6337891 0.7456055
vn -0.2653809 -0.192749 0.9448242
vn -0.4912109 1.788139E-07 0.8710938
vn -0.284668 0.2069092 0.9360352
vn 0.09484863 0.2919922 0.9516602
vn -0.1518555 0.4672852 0.8710938
vn 0.3068848 -2.026558E-06 0.9516602
vn 0.3974609 0.2888184 0.8710938
vn 0.1087646 -0.3347168 0.9360352
vn 0.3974609 -0.2888184 0.8710938
vn -0.1518555 -0.4672852 0.8710938
vn -0.3037109 7.152557E-07 -0.9526367
vn -0.5390625 -0.3916016 -0.7456055
vn -0.1473389 -0.4533691 -0.8789063
vn 0.1120605 -0.3449707 -0.9321289
vn 0.2004395 -0.1456299 -0.96875
vn 0.2004395 0.1456299 -0.96875
vn 0.6660156 2.384186E-07 -0.7456055
vn -0.09820557 0.3022461 -0.9482422
vn 0.2059326 0.6337891 -0.7456055
vn -0.5390625 0.3916016 -0.7456055
vn 0.2484131 -0.1804199 -0.9516602
vn 0.4912109 1.966953E-06 -0.8710938
vn 0.284668 0.2069092 -0.9360352
vn -0.1062012 0.3269043 -0.9389648
vn 0.1518555 0.4672852 -0.8710938
vn -0.09484863 -0.2919922 -0.9516602
vn 0.1518555 -0.4672852 -0.8710938
vn -0.3044434 -0.2211914 -0.9267578
vn -0.427002 2.205372E-06 -0.9042969
vn -0.3974609 0.2888184 -0.8710938
vn 0.1472168 -0.4533691 0.8789063
vn -0.2059326 -0.6337891 0.7456055
vn -0.2457275 -0.1785889 0.9526367
vn 0.293457 -0.2131348 0.9321289
vn 0.2476807 7.748604E-07 0.96875
vn 0.08270264 0.2546387 0.9633789
vn 0.5390625 0.3916016 0.7456055
vn -0.3625488 -1.66893E-06 0.9321289
vn -0.385498 0.2800293 0.8789063
vn -0.2059326 0.6337891 0.7456055
vn -0.2900391 -0.8930664 0.3444824
vn -0.1518555 -0.4672852 0.8710938
vn 0.1087646 -0.3347168 0.9360352
vn 0.2900391 -0.8930664 0.3444824
vn -0.3054199 -0.9399414 -0.1523438
vn 0.3974609 -0.2888184 0.8710938
vn 0.3054199 -0.9399414 -0.1523438
vn -0.1473389 -0.4533691 -0.8789063
vn 0.1120605 -0.3449707 -0.9321289
vn 0.7592773 -0.5517578 0.3444824
vn 0.3068848 -3.397465E-06 0.9516602
vn 0.7998047 -0.5810547 -0.1523438
vn 0.2004395 -0.1456299 -0.96875
vn 0.9389648 -2.384186E-07 0.3444824
vn 0.3974609 0.2888184 0.8710938
vn 0.9882813 0 -0.1523438
vn 0.6660156 -2.205372E-06 -0.7456055
vn 0.7592773 0.5517578 0.3444824
vn 0.09484863 0.2919922 0.9516602
vn 0.7998047 0.5810547 -0.1523438
vn 0.2004395 0.1456299 -0.96875
vn 0.2900391 0.8930664 0.3444824
vn -0.1518555 0.4672852 0.8710938
vn 0.3054199 0.9399414 -0.1523438
vn 0.2059326 0.6337891 -0.7456055
vn -0.2900391 0.8930664 0.3444824
vn -0.284668 0.2069092 0.9360352
vn -0.3054199 0.9399414 -0.1523438
vn -0.09820557 0.3022461 -0.9482422
vn -0.7592773 0.5517578 0.3444824
vn -0.4912109 -2.026558E-06 0.8710938
vn -0.7998047 0.5810547 -0.1523438
vn -0.5390625 0.3916016 -0.7456055
vn -0.9389648 4.768372E-07 0.3444824
vn -0.2653809 -0.1928711 0.9448242
vn -0.9882813 1.192093E-06 -0.1523438
vn -0.3037109 -1.788139E-07 -0.9526367
vn -0.7592773 -0.5517578 0.3444824
vn -0.1518555 -0.4672852 0.8710938
vn -0.2900391 -0.8930664 0.3444824
vn -0.7998047 -0.5810547 -0.1523438
vn -0.5390625 -0.3916016 -0.7456055
vn -0.3054199 -0.9399414 -0.1523438
vn -0.1473389 -0.4533691 -0.8789063
vn 0.6547852 0 -0.7558594
vn 0.6547852 0 0.7558594
vn 0.6547852 0 0.7558594
vn 0.6547852 0 -0.7558594
vn 0.6547852 0 0.7558594
vn -1 0 0
vn 0.6547852 0 0.7558594
vn -1 0 0
vn 0.6547852 0 -0.7558594
vn 0.6547852 0 -0.7558594
vn 5.960464E-07 1 -3.576279E-07
vn -0.9609375 -0.2773438 2.384186E-07
vn -0.9609375 -0.2773438 2.384186E-07
vn -3.576279E-07 1 -3.576279E-07
vn -0.9609375 -0.2773438 2.384186E-07
vn 0.9609375 -0.2773438 -4.172325E-07
vn -0.9609375 -0.2773438 2.384186E-07
vn 0.9609375 -0.2773438 -4.172325E-07
vn -3.576279E-07 1 -3.576279E-07
vn 5.960464E-07 1 -3.576279E-07
vn -0.2900391 -0.8930664 -0.3444824
vn -0.09484863 -0.2919922 -0.9516602
vn -0.3044434 -0.2211914 -0.9267578
vn -0.7592773 -0.5517578 -0.3444824
vn -0.3054199 -0.9399414 0.1523438
vn -0.427002 8.940697E-07 -0.9042969
vn -0.7998047 -0.5810547 0.1523438
vn -0.2059326 -0.6337891 0.7456055
vn -0.2457275 -0.1785889 0.9526367
vn -0.9389648 0 -0.3444824
vn -0.3974609 0.2888184 -0.8710938
vn -0.9882813 -2.980232E-07 0.1523438
vn -0.3625488 -7.748604E-07 0.9321289
vn -0.7592773 0.5517578 -0.3444824
vn -0.1062012 0.3269043 -0.9389648
vn -0.7998047 0.5810547 0.1523438
vn -0.385498 0.2800293 0.8789063
vn -0.2900391 0.8930664 -0.3444824
vn 0.1518555 0.4672852 -0.8710938
vn -0.3054199 0.9399414 0.1523438
vn -0.2059326 0.6337891 0.7456055
vn 0.2900391 0.8930664 -0.3444824
vn 0.284668 0.2069092 -0.9360352
vn 0.3054199 0.9399414 0.1523438
vn 0.08270264 0.2546387 0.9633789
vn 0.7592773 0.5517578 -0.3444824
vn 0.4912109 2.324581E-06 -0.8710938
vn 0.7998047 0.5810547 0.1523438
vn 0.5390625 0.3916016 0.7456055
vn 0.9389648 8.940697E-07 -0.3444824
vn 0.2484131 -0.1804199 -0.9516602
vn 0.9882813 0 0.1523438
vn 0.2476807 -5.364418E-07 0.96875
vn 0.7592773 -0.5517578 -0.3444824
vn 0.1518555 -0.4672852 -0.8710938
vn 0.7998047 -0.5810547 0.1523438
vn 0.293457 -0.2131348 0.9321289
vn 0.2900391 -0.8930664 -0.3444824
vn -0.09484863 -0.2919922 -0.9516602
vn -0.2900391 -0.8930664 -0.3444824
vn 0.3054199 -0.9399414 0.1523438
vn 0.1473389 -0.4533691 0.8789063
vn -0.3054199 -0.9399414 0.1523438
vn -0.2059326 -0.6337891 0.7456055
vn -0.2653809 -0.1928711 0.9448242
vn -0.4912109 -2.026558E-06 0.8710938
vn -0.284668 0.2069092 0.9360352
vn 0.09484863 0.2919922 0.9516602
vn -0.1518555 0.4672852 0.8710938
vn 0.3068848 -3.397465E-06 0.9516602
vn 0.3974609 0.2888184 0.8710938
vn 0.1087646 -0.3347168 0.9360352
vn 0.3974609 -0.2888184 0.8710938
vn -0.1518555 -0.4672852 0.8710938
vn -0.3037109 -1.788139E-07 -0.9526367
vn -0.5390625 -0.3916016 -0.7456055
vn -0.1473389 -0.4533691 -0.8789063
vn 0.1120605 -0.3449707 -0.9321289
vn 0.2004395 -0.1456299 -0.96875
vn 0.2004395 0.1456299 -0.96875
vn 0.6660156 -2.205372E-06 -0.7456055
vn -0.09820557 0.3022461 -0.9482422
vn 0.2059326 0.6337891 -0.7456055
vn -0.5390625 0.3916016 -0.7456055
vn 0.2484131 -0.1804199 -0.9516602
vn 0.4912109 2.324581E-06 -0.8710938
vn 0.284668 0.2069092 -0.9360352
vn -0.1062012 0.3269043 -0.9389648
vn 0.1518555 0.4672852 -0.8710938
vn -0.09484863 -0.2919922 -0.9516602
vn 0.1518555 -0.4672852 -0.8710938
vn -0.3044434 -0.2211914 -0.9267578
vn -0.427002 8.940697E-07 -0.9042969
vn -0.3974609 0.2888184 -0.8710938
vn 0.1473389 -0.4533691 0.8789063
vn -0.2059326 -0.6337891 0.7456055
vn -0.2457275 -0.1785889 0.9526367
vn 0.293457 -0.2131348 0.9321289
vn 0.2476807 -5.364418E-07 0.96875
vn 0.08270264 0.2546387 0.9633789
vn 0.5390625 0.3916016 0.7456055
vn -0.3625488 -7.748604E-07 0.9321289
vn -0.385498 0.2800293 0.8789063
vn -0.2059326 0.6337891 0.7456055
g Back_Wheel_0
f 3/3/3 2/2/2 1/1/1
f 4/4/4 3/3/3 1/1/1
f 1/1/1 5/5/5 4/4/4
f 6/6/6 3/3/3 4/4/4
f 5/5/5 7/7/7 4/4/4
f 5/5/5 8/8/8 7/7/7
f 8/8/8 9/9/9 7/7/7
f 10/10/10 6/6/6 4/4/4
f 4/4/4 7/7/7 10/10/10
f 11/11/11 6/6/6 10/10/10
f 7/7/7 9/9/9 12/12/12
f 7/7/7 12/12/12 10/10/10
f 9/9/9 13/13/13 12/12/12
f 14/14/14 11/11/11 10/10/10
f 10/10/10 12/12/12 14/14/14
f 15/15/15 11/11/11 14/14/14
f 12/12/12 13/13/13 16/16/16
f 12/12/12 16/16/16 14/14/14
f 13/13/13 17/17/17 16/16/16
f 18/18/18 15/15/15 14/14/14
f 14/14/14 16/16/16 18/18/18
f 19/19/19 15/15/15 18/18/18
f 16/16/16 17/17/17 20/20/20
f 16/16/16 20/20/20 18/18/18
f 17/17/17 21/21/21 20/20/20
f 22/22/22 19/19/19 18/18/18
f 18/18/18 20/20/20 22/22/22
f 23/23/23 19/19/19 22/22/22
f 20/20/20 21/21/21 24/24/24
f 20/20/20 24/24/24 22/22/22
f 21/21/21 25/25/25 24/24/24
f 26/26/26 23/23/23 22/22/22
f 22/22/22 24/24/24 26/26/26
f 27/27/27 23/23/23 26/26/26
f 24/24/24 25/25/25 28/28/28
f 24/24/24 28/28/28 26/26/26
f 25/25/25 29/29/29 28/28/28
f 30/30/30 27/27/27 26/26/26
f 26/26/26 28/28/28 30/30/30
f 31/31/31 27/27/27 30/30/30
f 28/28/28 29/29/29 32/32/32
f 28/28/28 32/32/32 30/30/30
f 29/29/29 33/33/33 32/32/32
f 34/34/34 31/31/31 30/30/30
f 30/30/30 32/32/32 34/34/34
f 35/35/35 31/31/31 34/34/34
f 32/32/32 33/33/33 36/36/36
f 32/32/32 36/36/36 34/34/34
f 33/33/33 37/37/37 36/36/36
f 38/38/38 35/35/35 34/34/34
f 34/34/34 36/36/36 38/38/38
f 39/39/39 35/35/35 38/38/38
f 40/40/40 39/39/39 38/38/38
f 36/36/36 37/37/37 41/41/41
f 36/36/36 41/41/41 38/38/38
f 38/38/38 41/41/41 40/40/40
f 37/37/37 42/42/42 41/41/41
f 41/41/41 43/43/43 40/40/40
f 41/41/41 42/42/42 43/43/43
f 42/42/42 44/44/44 43/43/43
f 47/47/47 46/46/46 45/45/45
f 48/48/48 47/47/47 45/45/45
f 51/51/51 50/50/50 49/49/49
f 50/50/50 52/52/52 49/49/49
f 50/50/50 53/53/53 52/52/52
f 53/53/53 54/54/54 52/52/52
f 57/57/57 56/56/56 55/55/55
f 58/58/58 57/57/57 55/55/55
f 61/61/61 60/60/60 59/59/59
f 60/60/60 62/62/62 59/59/59
f 60/60/60 63/63/63 62/62/62
f 63/63/63 64/64/64 62/62/62
f 67/67/67 66/66/66 65/65/65
f 68/68/68 67/67/67 65/65/65
f 65/65/65 69/69/69 68/68/68
f 70/70/70 67/67/67 68/68/68
f 69/69/69 71/71/71 68/68/68
f 69/69/69 72/72/72 71/71/71
f 72/72/72 73/73/73 71/71/71
f 74/74/74 70/70/70 68/68/68
f 68/68/68 71/71/71 74/74/74
f 75/75/75 70/70/70 74/74/74
f 71/71/71 73/73/73 76/76/76
f 71/71/71 76/76/76 74/74/74
f 73/73/73 77/77/77 76/76/76
f 78/78/78 75/75/75 74/74/74
f 74/74/74 76/76/76 78/78/78
f 79/79/79 75/75/75 78/78/78
f 76/76/76 77/77/77 80/80/80
f 76/76/76 80/80/80 78/78/78
f 77/77/77 81/81/81 80/80/80
f 82/82/82 79/79/79 78/78/78
f 78/78/78 80/80/80 82/82/82
f 83/83/83 79/79/79 82/82/82
f 80/80/80 81/81/81 84/84/84
f 80/80/80 84/84/84 82/82/82
f 81/81/81 85/85/85 84/84/84
f 86/86/86 83/83/83 82/82/82
f 82/82/82 84/84/84 86/86/86
f 87/87/87 83/83/83 86/86/86
f 84/84/84 85/85/85 88/88/88
f 84/84/84 88/88/88 86/86/86
f 85/85/85 89/89/89 88/88/88
f 90/90/90 87/87/87 86/86/86
f 86/86/86 88/88/88 90/90/90
f 91/91/91 87/87/87 90/90/90
f 88/88/88 89/89/89 92/92/92
f 88/88/88 92/92/92 90/90/90
f 89/89/89 93/93/93 92/92/92
f 94/94/94 91/91/91 90/90/90
f 90/90/90 92/92/92 94/94/94
f 95/95/95 91/91/91 94/94/94
f 92/92/92 93/93/93 96/96/96
f 92/92/92 96/96/96 94/94/94
f 93/93/93 97/97/97 96/96/96
f 98/98/98 95/95/95 94/94/94
f 94/94/94 96/96/96 98/98/98
f 99/99/99 95/95/95 98/98/98
f 96/96/96 97/97/97 100/100/100
f 96/96/96 100/100/100 98/98/98
f 97/97/97 101/101/101 100/100/100
f 102/102/102 99/99/99 98/98/98
f 98/98/98 100/100/100 102/102/102
f 103/103/103 99/99/99 102/102/102
f 104/104/104 103/103/103 102/102/102
f 100/100/100 101/101/101 105/105/105
f 100/100/100 105/105/105 102/102/102
f 102/102/102 105/105/105 104/104/104
f 101/101/101 106/106/106 105/105/105
f 105/105/105 107/107/107 104/104/104
f 105/105/105 106/106/106 107/107/107
f 106/106/106 108/108/108 107/107/107
f 111/111/111 110/110/110 109/109/109
f 112/112/112 111/111/111 109/109/109
f 112/112/112 113/113/113 111/111/111
f 109/109/109 114/114/114 112/112/112
f 114/114/114 115/115/115 112/112/112
f 109/109/109 116/116/116 114/114/114
f 116/116/116 117/117/117 114/114/114
f 109/109/109 118/118/118 116/116/116
f 121/121/121 120/120/120 119/119/119
f 119/119/119 122/122/122 121/121/121
f 119/119/119 123/123/123 122/122/122
f 119/119/119 124/124/124 123/123/123
f 124/124/124 125/125/125 123/123/123
f 119/119/119 126/126/126 124/124/124
f 126/126/126 127/127/127 124/124/124
f 119/119/119 128/128/128 126/126/126
f 131/131/131 130/130/130 129/129/129
f 132/132/132 131/131/131 129/129/129
f 132/132/132 133/133/133 131/131/131
f 129/129/129 134/134/134 132/132/132
f 129/129/129 135/135/135 134/134/134
f 132/132/132 134/134/134 136/136/136
f 132/132/132 136/136/136 137/137/137
f 137/137/137 138/138/138 132/132/132
f 141/141/141 140/140/140 139/139/139
f 141/141/141 139/139/139 142/142/142
f 141/141/141 142/142/142 143/143/143
f 143/143/143 144/144/144 141/141/141
f 143/143/143 145/145/145 144/144/144
f 144/144/144 146/146/146 141/141/141
f 144/144/144 147/147/147 146/146/146
f 144/144/144 148/148/148 147/147/147
f 151/151/151 150/150/150 149/149/149
f 152/152/152 151/151/151 149/149/149
f 149/149/149 153/153/153 152/152/152
f 154/154/154 151/151/151 152/152/152
f 153/153/153 155/155/155 152/152/152
f 153/153/153 156/156/156 155/155/155
f 156/156/156 157/157/157 155/155/155
f 158/158/158 154/154/154 152/152/152
f 152/152/152 155/155/155 158/158/158
f 159/159/159 154/154/154 158/158/158
f 155/155/155 157/157/157 160/160/160
f 155/155/155 160/160/160 158/158/158
f 157/157/157 161/161/161 160/160/160
f 162/162/162 159/159/159 158/158/158
f 158/158/158 160/160/160 162/162/162
f 163/163/163 159/159/159 162/162/162
f 160/160/160 161/161/161 164/164/164
f 160/160/160 164/164/164 162/162/162
f 161/161/161 165/165/165 164/164/164
f 166/166/166 163/163/163 162/162/162
f 162/162/162 164/164/164 166/166/166
f 167/167/167 163/163/163 166/166/166
f 164/164/164 165/165/165 168/168/168
f 164/164/164 168/168/168 166/166/166
f 165/165/165 169/169/169 168/168/168
f 170/170/170 167/167/167 166/166/166
f 166/166/166 168/168/168 170/170/170
f 171/171/171 167/167/167 170/170/170
f 168/168/168 169/169/169 172/172/172
f 168/168/168 172/172/172 170/170/170
f 169/169/169 173/173/173 172/172/172
f 174/174/174 171/171/171 170/170/170
f 170/170/170 172/172/172 174/174/174
f 175/175/175 171/171/171 174/174/174
f 172/172/172 173/173/173 176/176/176
f 172/172/172 176/176/176 174/174/174
f 173/173/173 177/177/177 176/176/176
f 178/178/178 175/175/175 174/174/174
f 174/174/174 176/176/176 178/178/178
f 179/179/179 175/175/175 178/178/178
f 176/176/176 177/177/177 180/180/180
f 176/176/176 180/180/180 178/178/178
f 177/177/177 181/181/181 180/180/180
f 182/182/182 179/179/179 178/178/178
f 178/178/178 180/180/180 182/182/182
f 183/183/183 179/179/179 182/182/182
f 180/180/180 181/181/181 184/184/184
f 180/180/180 184/184/184 182/182/182
f 181/181/181 185/185/185 184/184/184
f 186/186/186 183/183/183 182/182/182
f 182/182/182 184/184/184 186/186/186
f 187/187/187 183/183/183 186/186/186
f 188/188/188 187/187/187 186/186/186
f 184/184/184 185/185/185 189/189/189
f 184/184/184 189/189/189 186/186/186
f 186/186/186 189/189/189 188/188/188
f 185/185/185 190/190/190 189/189/189
f 189/189/189 191/191/191 188/188/188
f 189/189/189 190/190/190 191/191/191
f 190/190/190 192/192/192 191/191/191
f 195/195/195 194/194/194 193/193/193
f 196/196/196 195/195/195 193/193/193
f 199/199/199 198/198/198 197/197/197
f 198/198/198 200/200/200 197/197/197
f 198/198/198 201/201/201 200/200/200
f 201/201/201 202/202/202 200/200/200
f 205/205/205 204/204/204 203/203/203
f 206/206/206 205/205/205 203/203/203
f 209/209/209 208/208/208 207/207/207
f 208/208/208 210/210/210 207/207/207
f 208/208/208 211/211/211 210/210/210
f 211/211/211 212/212/212 210/210/210
f 215/215/215 214/214/214 213/213/213
f 216/216/216 215/215/215 213/213/213
f 213/213/213 217/217/217 216/216/216
f 218/218/218 215/215/215 216/216/216
f 217/217/217 219/219/219 216/216/216
f 217/217/217 220/220/220 219/219/219
f 220/220/220 221/221/221 219/219/219
f 222/222/222 218/218/218 216/216/216
f 216/216/216 219/219/219 222/222/222
f 223/223/223 218/218/218 222/222/222
f 219/219/219 221/221/221 224/224/224
f 219/219/219 224/224/224 222/222/222
f 221/221/221 225/225/225 224/224/224
f 226/226/226 223/223/223 222/222/222
f 222/222/222 224/224/224 226/226/226
f 227/227/227 223/223/223 226/226/226
f 224/224/224 225/225/225 228/228/228
f 224/224/224 228/228/228 226/226/226
f 225/225/225 229/229/229 228/228/228
f 230/230/230 227/227/227 226/226/226
f 226/226/226 228/228/228 230/230/230
f 231/231/231 227/227/227 230/230/230
f 228/228/228 229/229/229 232/232/232
f 228/228/228 232/232/232 230/230/230
f 229/229/229 233/233/233 232/232/232
f 234/234/234 231/231/231 230/230/230
f 230/230/230 232/232/232 234/234/234
f 235/235/235 231/231/231 234/234/234
f 232/232/232 233/233/233 236/236/236
f 232/232/232 236/236/236 234/234/234
f 233/233/233 237/237/237 236/236/236
f 238/238/238 235/235/235 234/234/234
f 234/234/234 236/236/236 238/238/238
f 239/239/239 235/235/235 238/238/238
f 236/236/236 237/237/237 240/240/240
f 236/236/236 240/240/240 238/238/238
f 237/237/237 241/241/241 240/240/240
f 242/242/242 239/239/239 238/238/238
f 238/238/238 240/240/240 242/242/242
f 243/243/243 239/239/239 242/242/242
f 240/240/240 241/241/241 244/244/244
f 240/240/240 244/244/244 242/242/242
f 241/241/241 245/245/245 244/244/244
f 246/246/246 243/243/243 242/242/242
f 242/242/242 244/244/244 246/246/246
f 247/247/247 243/243/243 246/246/246
f 244/244/244 245/245/245 248/248/248
f 244/244/244 248/248/248 246/246/246
f 245/245/245 249/249/249 248/248/248
f 250/250/250 247/247/247 246/246/246
f 246/246/246 248/248/248 250/250/250
f 251/251/251 247/247/247 250/250/250
f 252/252/252 251/251/251 250/250/250
f 248/248/248 249/249/249 253/253/253
f 248/248/248 253/253/253 250/250/250
f 250/250/250 253/253/253 252/252/252
f 249/249/249 254/254/254 253/253/253
f 253/253/253 255/255/255 252/252/252
f 253/253/253 254/254/254 255/255/255
f 254/254/254 256/256/256 255/255/255
f 259/259/259 258/258/258 257/257/257
f 260/260/260 259/259/259 257/257/257
f 260/260/260 261/261/261 259/259/259
f 257/257/257 262/262/262 260/260/260
f 262/262/262 263/263/263 260/260/260
f 257/257/257 264/264/264 262/262/262
f 264/264/264 265/265/265 262/262/262
f 257/257/257 266/266/266 264/264/264
f 269/269/269 268/268/268 267/267/267
f 267/267/267 270/270/270 269/269/269
f 267/267/267 271/271/271 270/270/270
f 267/267/267 272/272/272 271/271/271
f 272/272/272 273/273/273 271/271/271
f 267/267/267 274/274/274 272/272/272
f 274/274/274 275/275/275 272/272/272
f 267/267/267 276/276/276 274/274/274
f 279/279/279 278/278/278 277/277/277
f 280/280/280 279/279/279 277/277/277
f 280/280/280 281/281/281 279/279/279
f 277/277/277 282/282/282 280/280/280
f 277/277/277 283/283/283 282/282/282
f 280/280/280 282/282/282 284/284/284
f 280/280/280 284/284/284 285/285/285
f 285/285/285 286/286/286 280/280/280
f 289/289/289 288/288/288 287/287/287
f 289/289/289 287/287/287 290/290/290
f 289/289/289 290/290/290 291/291/291
f 291/291/291 292/292/292 289/289/289
f 291/291/291 293/293/293 292/292/292
f 292/292/292 294/294/294 289/289/289
f 292/292/292 295/295/295 294/294/294
f 292/292/292 296/296/296 295/295/295
