g Balloon_1_01
v -32.7917 224.7046 -7.754517
v -37.76665 224.4259 -9.639954
v -31.54153 126.12 -13.09814
v -27.10005 126.8335 -10.20697
v -29.94282 126.4696 -5.746277
v -34.74303 224.47 -2.911499
v -26.1952 77.26303 -6.591797
v -21.23065 78.05176 -8.488525
v -18.63956 47.1669 -4.891357
v -13.44801 48.36224 -5.505981
v 2.494644 2.138824 2.062561
v -18.85466 45.38147 -9.962952
v -27.75432 75.58386 -11.33643
v -2.496872 -2.138855 -2.048767
v -2.454102 0.1906128 2.890625
v 13.50662 -25.70544 8.873352
v 12.77568 -22.23682 13.27844
v 16.64515 -18.70374 11.62177
v -2.496872 -2.138855 -2.048767
v 13.50662 -25.70544 8.873352
v 17.40095 -22.20462 7.325989
v 2.454468 -0.1940918 -2.865356
v -18.85466 45.38147 -9.962952
v 2.494644 2.138824 2.062561
v 16.64515 -18.70374 11.62177
v -13.44801 48.36224 -5.505981
v -13.67035 46.58615 -10.60907
v -27.75432 75.58386 -11.33643
v -22.81228 76.5246 -13.34937
v -21.23065 78.05176 -8.488525
v -31.54153 126.12 -13.09814
v -27.10005 126.8335 -10.20697
v -34.33711 125.6548 -8.590515
v -29.94282 126.4696 -5.746277
v -26.1952 77.26303 -6.591797
v -34.74303 224.47 -2.911499
v -39.71096 224.1823 -4.766174
v -37.76665 224.4259 -9.639954
v -32.7917 224.7046 -7.754517
v -31.90274 341.9388 -7.960938
v -31.08223 334.9287 -34.63544
v -20.88797 334.6735 -32.19128
v -14.01478 317.278 -47.83184
v -30.94536 317.7018 -51.89105
v -12.16908 294.4092 -52.76868
v -31.43934 294.8917 -57.38892
v -14.15681 270.9066 -49.40088
v -32.31117 271.361 -53.75354
v -18.75368 250.2719 -40.24707
v -33.34392 250.6371 -43.74517
v -24.80321 234.4806 -27.7403
v -34.37151 234.7201 -30.03436
v -30.75395 224.6367 -15.2074
v -35.21638 224.7484 -16.27728
v -35.77786 221.5312 -4.415649
v -27.03882 224.5968 -12.51056
v -35.77786 221.5312 -4.415649
v -16.83733 234.3952 -21.95782
v -6.606857 250.1417 -31.42969
v 0.9572906 270.7446 -38.42957
v -24.63661 224.635 -8.597412
v -35.77786 221.5312 -4.415649
v -11.68651 234.4769 -13.56732
v 3.874023 294.2372 -41.12299
v 1.24733 250.2664 -18.63538
v -23.91302 224.7452 -4.06366
v -35.77786 221.5312 -4.415649
v -10.13503 234.7134 -3.84613
v 10.7301 270.8997 -22.50989
v 0.08045959 317.1269 -37.6001
v -24.97821 224.9109 0.4004517
v -35.77786 221.5312 -4.415649
v 3.613174 250.627 -3.812012
v 14.24756 294.4019 -24.22473
v -12.40092 334.5825 -26.03052
v -31.90274 341.9388 -7.960938
v -12.41899 235.0686 5.725769
v 13.67387 271.3483 -4.06543
v 9.194519 317.2715 -22.75354
v -27.67003 225.1067 4.115356
v -35.77786 221.5312 -4.415649
v 0.1304474 251.1685 10.78369
v 17.37225 294.8781 -4.646545
v -6.913177 334.6696 -17.09113
v -31.90274 341.9388 -7.960938
v -18.19073 235.4884 13.69116
v 9.340378 272.0222 14.09576
v 11.93982 317.69 -5.552429
v -31.57866 225.3028 6.515381
v -35.77786 221.5312 -4.415649
v -8.670624 251.8086 22.92969
v 12.7724 295.5934 14.63098
v -5.260178 334.9216 -6.734009
v -31.90274 341.9388 -7.960938
v -26.57155 235.9089 18.83728
v -1.610626 272.8187 29.2088
v 7.898438 318.3184 11.38452
v -36.10907 225.4693 7.235291
v -35.77786 221.5312 -4.415649
v -21.45013 252.4498 30.77686
v 1.148239 296.4388 30.67297
v -7.693558 335.2999 3.464111
v -31.90274 341.9388 -7.960938
v -36.28557 236.2661 20.38086
v -17.51195 273.6166 38.9729
v -2.314346 319.0612 25.47882
v -40.5715 225.5811 6.165405
v -35.77786 221.5312 -4.415649
v -36.26253 252.9945 33.13049
v -15.73048 297.2858 41.03723
v -13.8429 335.7472 11.95056
v -31.90274 341.9388 -7.960938
v -45.85387 236.5057 18.08679
v -35.94279 274.2943 41.90155
v -17.14377 319.8053 34.58472
v -44.28664 225.6209 3.468567
v -35.77786 221.5312 -4.415649
v -50.85277 253.3598 29.63239
v -35.29417 298.0052 44.14587
v -22.772 336.1952 17.43341
v -31.90274 341.9388 -7.960938
v -53.81978 236.591 12.30432
v -54.09715 274.7488 37.54883
v -34.33214 320.4373 37.31592
v -46.68886 225.5828 -0.4445801
v -35.77786 221.5312 -4.415649
v -62.99955 253.49 20.81494
v -54.5645 298.4876 39.5257
v -33.12148 336.5759 19.07794
v -31.90274 341.9388 -7.960938
v -58.97055 236.5093 3.913757
v -69.21126 274.9108 26.57751
v -51.26274 320.8612 33.25665
v -47.41248 225.4725 -4.978333
v -35.77786 221.5312 -4.415649
v -70.85376 253.3653 8.020691
v -70.60757 298.6595 27.87994
v -43.31575 336.831 16.63379
v -31.90274 341.9388 -7.960938
v -60.52205 236.2728 -5.807373
v -78.98407 274.7557 10.65784
v -65.35799 321.0123 23.0249
v -46.34724 225.3068 -9.442444
v -35.77786 221.5312 -4.415649
v -73.21959 253.0048 -6.802673
v -80.98112 298.4949 10.98169
v -51.80276 336.9219 10.47302
v -31.90274 341.9388 -7.960938
v -58.23808 235.9176 -15.37927
v -81.92776 274.307 -7.786621
v -74.47202 320.8676 8.178345
v -43.65542 225.1111 -13.15735
v -35.77786 221.5312 -4.415649
v -69.73686 252.4632 -21.39838
v -84.1058 298.0187 -8.596497
v -57.29051 336.8349 1.533569
v -31.90274 341.9388 -7.960938
v -52.46632 235.4979 -23.34467
v -77.59427 273.6332 -25.94781
v -77.21733 320.4492 -9.022766
v -39.74677 224.915 -15.55737
v -35.77786 221.5312 -4.415649
v -60.93578 251.8231 -33.54437
v -79.50594 297.3034 -27.87402
v -58.94349 336.5829 -8.823547
v -31.90274 341.9388 -7.960938
v -44.08546 235.0773 -28.49084
v -66.64328 272.8366 -41.06091
v -73.17595 319.8207 -25.95972
v -35.21638 224.7484 -16.27728
v -35.77786 221.5312 -4.415649
v -34.37151 234.7201 -30.03436
v -48.15627 251.1819 -41.39154
v -33.34392 250.6371 -43.74517
v -50.74193 272.0388 -50.82495
v -32.31117 271.361 -53.75354
v -67.88176 296.4579 -43.91602
v -51.00302 295.611 -54.28027
v -31.43934 294.8917 -57.38892
v -62.96312 319.078 -40.05396
v -48.13369 318.3339 -49.15985
v -30.94536 317.7018 -51.89105
v -56.51012 336.2045 -19.02167
v -31.90274 341.9388 -7.960938
v -50.36079 335.7573 -27.50812
v -31.90274 341.9388 -7.960938
v -41.43166 335.3092 -32.99091
v -31.90274 341.9388 -7.960938
v -31.08223 334.9287 -34.63544
v -31.90274 341.9388 -7.960938
vt 0.04156494 0.878418
vt 0.04165649 0.8779297
vt 0.0425415 0.8603516
vt 0.04248047 0.8603516
vt 0.04199219 0.8603516
vt 0.04116821 0.8779297
vt 0.043396 0.8461914
vt 0.04397583 0.8461914
vt 0.04547119 0.8349609
vt 0.04598999 0.8354492
vt 0.04806519 0.828125
vt 0.04525757 0.8349609
vt 0.04336548 0.8457031
vt 0.04745483 0.8276367
vt 0.04782104 0.8276367
vt 0.04925537 0.8232422
vt 0.04959106 0.8237305
vt 0.04956055 0.8242188
vt 0.04745483 0.8276367
vt 0.04925537 0.8232422
vt 0.04925537 0.8237305
vt 0.04772949 0.8276367
vt 0.04525757 0.8349609
vt 0.04806519 0.828125
vt 0.04956055 0.8242188
vt 0.04598999 0.8354492
vt 0.04574585 0.8349609
vt 0.04336548 0.8457031
vt 0.04388428 0.8461914
vt 0.04397583 0.8461914
vt 0.0425415 0.8603516
vt 0.04248047 0.8603516
vt 0.04205322 0.8603516
vt 0.04199219 0.8603516
vt 0.043396 0.8461914
vt 0.04116821 0.8779297
vt 0.04125977 0.8779297
vt 0.04165649 0.8779297
vt 0.04156494 0.878418
vt 0.3146973 0.9760742
vt 0.3146973 0.9702148
vt 0.3178711 0.9702148
vt 0.3178711 0.9643555
vt 0.3146973 0.9643555
vt 0.3178711 0.9584961
vt 0.3146973 0.9584961
vt 0.3178711 0.9526367
vt 0.3146973 0.9526367
vt 0.3178711 0.9472656
vt 0.3146973 0.9472656
vt 0.3178711 0.9414063
vt 0.3146973 0.9414063
vt 0.3178711 0.9355469
vt 0.3146973 0.9355469
vt 0.3146973 0.9296875
vt 0.3208008 0.9355469
vt 0.3178711 0.9296875
vt 0.3208008 0.9414063
vt 0.3208008 0.9472656
vt 0.3208008 0.9526367
vt 0.3237305 0.9355469
vt 0.3208008 0.9296875
vt 0.3237305 0.9414063
vt 0.3208008 0.9584961
vt 0.3237305 0.9472656
vt 0.3269043 0.9355469
vt 0.3237305 0.9296875
vt 0.3269043 0.9414063
vt 0.3237305 0.9526367
vt 0.3208008 0.9643555
vt 0.329834 0.9355469
vt 0.3269043 0.9296875
vt 0.3269043 0.9472656
vt 0.3237305 0.9584961
vt 0.3208008 0.9702148
vt 0.3178711 0.9760742
vt 0.329834 0.9414063
vt 0.3269043 0.9526367
vt 0.3237305 0.9643555
vt 0.3330078 0.9355469
vt 0.329834 0.9296875
vt 0.329834 0.9472656
vt 0.3269043 0.9584961
vt 0.3237305 0.9702148
vt 0.3208008 0.9760742
vt 0.3330078 0.9414063
vt 0.329834 0.9526367
vt 0.3269043 0.9643555
vt 0.3359375 0.9355469
vt 0.3330078 0.9296875
vt 0.3330078 0.9472656
vt 0.329834 0.9584961
vt 0.3269043 0.9702148
vt 0.3237305 0.9760742
vt 0.3359375 0.9414063
vt 0.3330078 0.9526367
vt 0.329834 0.9643555
vt 0.3391113 0.9355469
vt 0.3359375 0.9296875
vt 0.3359375 0.9472656
vt 0.3330078 0.9584961
vt 0.329834 0.9702148
vt 0.3269043 0.9760742
vt 0.3391113 0.9414063
vt 0.3359375 0.9526367
vt 0.3330078 0.9643555
vt 0.342041 0.9355469
vt 0.3391113 0.9296875
vt 0.3391113 0.9472656
vt 0.3359375 0.9584961
vt 0.3330078 0.9702148
vt 0.329834 0.9760742
vt 0.342041 0.9414063
vt 0.3391113 0.9526367
vt 0.3359375 0.9643555
vt 0.3452148 0.9355469
vt 0.342041 0.9296875
vt 0.342041 0.9472656
vt 0.3391113 0.9584961
vt 0.3359375 0.9702148
vt 0.3330078 0.9760742
vt 0.3452148 0.9414063
vt 0.342041 0.9526367
vt 0.3391113 0.9643555
vt 0.3481445 0.9355469
vt 0.3452148 0.9296875
vt 0.3452148 0.9472656
vt 0.342041 0.9584961
vt 0.3391113 0.9702148
vt 0.3359375 0.9760742
vt 0.3481445 0.9414063
vt 0.3452148 0.9526367
vt 0.342041 0.9643555
vt 0.3513184 0.9355469
vt 0.3481445 0.9296875
vt 0.3481445 0.9472656
vt 0.3452148 0.9584961
vt 0.342041 0.9702148
vt 0.3391113 0.9760742
vt 0.3513184 0.9414063
vt 0.3481445 0.9526367
vt 0.3452148 0.9643555
vt 0.354248 0.9355469
vt 0.3513184 0.9296875
vt 0.3513184 0.9472656
vt 0.3481445 0.9584961
vt 0.3452148 0.9702148
vt 0.342041 0.9760742
vt 0.354248 0.9414063
vt 0.3513184 0.9526367
vt 0.3481445 0.9643555
vt 0.3574219 0.9355469
vt 0.354248 0.9296875
vt 0.354248 0.9472656
vt 0.3513184 0.9584961
vt 0.3481445 0.9702148
vt 0.3452148 0.9760742
vt 0.3574219 0.9414063
vt 0.354248 0.9526367
vt 0.3513184 0.9643555
vt 0.3603516 0.9355469
vt 0.3574219 0.9296875
vt 0.3574219 0.9472656
vt 0.354248 0.9584961
vt 0.3513184 0.9702148
vt 0.3481445 0.9760742
vt 0.3603516 0.9414063
vt 0.3574219 0.9526367
vt 0.354248 0.9643555
vt 0.3635254 0.9355469
vt 0.3603516 0.9296875
vt 0.3635254 0.9414063
vt 0.3603516 0.9472656
vt 0.3635254 0.9472656
vt 0.3603516 0.9526367
vt 0.3635254 0.9526367
vt 0.3574219 0.9584961
vt 0.3603516 0.9584961
vt 0.3635254 0.9584961
vt 0.3574219 0.9643555
vt 0.3603516 0.9643555
vt 0.3635254 0.9643555
vt 0.354248 0.9702148
vt 0.3513184 0.9760742
vt 0.3574219 0.9702148
vt 0.354248 0.9760742
vt 0.3603516 0.9702148
vt 0.3574219 0.9760742
vt 0.3635254 0.9702148
vt 0.3603516 0.9760742
vn 0.9975586 0.06542969 -0.02355957
vn -0.02555847 0.02908325 -0.9990234
vn -0.02645874 0.04043579 -0.9990234
vn 0.9960938 0.08404541 -0.02272034
vn 0.026474 -0.04040527 0.9990234
vn 0.02552795 -0.0291748 0.9990234
vn 0.02973938 -0.06951904 0.9970703
vn 0.9912109 0.1318359 -0.01974487
vn 0.03894043 -0.1188354 0.9921875
vn 0.9770508 0.2133789 -0.01092529
vn 0.9272461 0.3740234 0.02270508
vn -0.6635742 -0.2351074 0.7099609
vn -0.6801758 -0.1424561 0.7192383
vn -0.6054688 -0.4187012 0.6767578
vn 0.0725708 -0.2156982 0.9736328
vn -0.3371582 -0.7817383 0.5244141
vn 0.227417 -0.3928223 0.8911133
vn 0.7041016 0.6845703 0.1876221
vn -0.6054688 -0.4187012 0.6767578
vn -0.3371582 -0.7817383 0.5244141
vn -0.227417 0.3928223 -0.8911133
vn -0.07250977 0.2158203 -0.9736328
vn -0.6635742 -0.2351074 0.7099609
vn 0.9272461 0.3740234 0.02270508
vn 0.7041016 0.6845703 0.1876221
vn 0.9770508 0.2133789 -0.01092529
vn -0.03894043 0.1189575 -0.9921875
vn -0.6801758 -0.1424561 0.7192383
vn -0.02973938 0.06951904 -0.9970703
vn 0.9912109 0.1318359 -0.01974487
vn -0.02645874 0.04043579 -0.9990234
vn 0.9960938 0.08404541 -0.02272034
vn -0.6860352 -0.0880127 0.722168
vn 0.026474 -0.04040527 0.9990234
vn 0.02973938 -0.06951904 0.9970703
vn 0.02552795 -0.0291748 0.9990234
vn -0.6875 -0.06695557 0.7231445
vn -0.02555847 0.02908325 -0.9990234
vn 0.9975586 0.06542969 -0.02355957
vn 0.03207397 0.9990234 -0.02941895
vn 0.04663086 0.8525391 -0.5205078
vn 0.2347412 0.8476563 -0.4753418
vn 0.3774414 0.4655762 -0.800293
vn 0.04888916 0.473877 -0.8793945
vn 0.4187012 0.02926636 -0.9077148
vn 0.04006958 0.03878784 -0.9985352
vn 0.394043 -0.3024902 -0.8676758
vn 0.02810669 -0.293457 -0.9555664
vn 0.3408203 -0.550293 -0.762207
vn 0.01593018 -0.5419922 -0.840332
vn 0.2719727 -0.7358398 -0.6201172
vn 0.004055023 -0.7294922 -0.684082
vn 0.1704102 -0.8979492 -0.40625
vn -0.01015472 -0.8930664 -0.4494629
vn -0.03207397 -0.9990234 0.02941895
vn 0.3208008 -0.8994141 -0.2971191
vn -0.03207397 -0.9990234 0.02941895
vn 0.494873 -0.7382813 -0.458252
vn 0.6113281 -0.5532227 -0.565918
vn 0.6987305 -0.3059082 -0.6469727
vn 0.4179688 -0.8979492 -0.138916
vn -0.03207397 -0.9990234 0.02941895
vn 0.6391602 -0.7358398 -0.2235107
vn 0.7338867 0.02586365 -0.6791992
vn 0.7861328 -0.550293 -0.28125
vn 0.4472656 -0.8930664 0.04437256
vn -0.03207397 -0.9990234 0.02941895
vn 0.6826172 -0.7294922 0.04827881
vn 0.8955078 -0.3027344 -0.3261719
vn 0.6508789 0.4626465 -0.6020508
vn 0.4042969 -0.8867188 0.2248535
vn -0.03207397 -0.9990234 0.02941895
vn 0.8388672 -0.5419922 0.04846191
vn 0.9375 0.02905273 -0.3474121
vn 0.3913574 0.8461914 -0.3618164
vn 0.03207397 0.9990234 -0.02941895
vn 0.6186523 -0.7192383 0.315918
vn 0.9550781 -0.2937012 0.04525757
vn 0.8276367 0.465332 -0.3144531
vn 0.295166 -0.8789063 0.375
vn -0.03207397 -0.9990234 0.02941895
vn 0.7612305 -0.5302734 0.373291
vn 0.9985352 0.03839111 0.03674316
vn 0.4924316 0.8476563 -0.1971436
vn 0.03207397 0.9990234 -0.02941895
vn 0.4570313 -0.7080078 0.5385742
vn 0.8676758 -0.2800293 0.4108887
vn 0.8808594 0.4733887 0.0189209
vn 0.137085 -0.8706055 0.472168
vn -0.03207397 -0.9990234 0.02941895
vn 0.5654297 -0.5161133 0.6435547
vn 0.9082031 0.0524292 0.4150391
vn 0.5229492 0.8525391 -0.006286621
vn 0.03207397 0.9990234 -0.02941895
vn 0.2224121 -0.6962891 0.6826172
vn 0.6469727 -0.2641602 0.715332
vn 0.8022461 0.4855957 0.347168
vn -0.04626465 -0.8642578 0.5009766
vn -0.03207397 -0.9990234 0.02941895
vn 0.2810059 -0.5014648 0.8183594
vn 0.6801758 0.06903076 0.7299805
vn 0.4780273 0.859375 0.1816406
vn 0.03207397 0.9990234 -0.02941895
vn -0.04949951 -0.6860352 0.7260742
vn 0.326416 -0.2480469 0.9121094
vn 0.6044922 0.5 0.6201172
vn -0.2269287 -0.859375 0.4580078
vn -0.03207397 -0.9990234 0.02941895
vn -0.04904175 -0.489502 0.8706055
vn 0.3486328 0.08575439 0.9331055
vn 0.3647461 0.8676758 0.3381348
vn 0.03207397 0.9990234 -0.02941895
vn -0.3173828 -0.6791992 0.6616211
vn -0.04504395 -0.234375 0.9711914
vn 0.3166504 0.5146484 0.796875
vn -0.3771973 -0.8579102 0.348877
vn -0.03207397 -0.9990234 0.02941895
vn -0.3740234 -0.4814453 0.7924805
vn -0.03561401 0.09991455 0.9941406
vn 0.1999512 0.8759766 0.439209
vn 0.03207397 0.9990234 -0.02941895
vn -0.5405273 -0.6767578 0.5
vn -0.4111328 -0.2250977 0.8833008
vn -0.01676941 0.5268555 0.8496094
vn -0.4743652 -0.859375 0.1906738
vn -0.03207397 -0.9990234 0.02941895
vn -0.6445313 -0.4782715 0.5961914
vn -0.4140625 0.109375 0.9038086
vn 0.009056091 0.8828125 0.4694824
vn 0.03207397 0.9990234 -0.02941895
vn -0.6845703 -0.6791992 0.2651367
vn -0.7158203 -0.2218018 0.6621094
vn -0.3452148 0.5351563 0.7709961
vn -0.5039063 -0.8637695 0.00737381
vn -0.03207397 -0.9990234 0.02941895
vn -0.8193359 -0.4812012 0.3117676
vn -0.7290039 0.112793 0.6748047
vn -0.1789551 0.8876953 0.4243164
vn 0.03207397 0.9990234 -0.02941895
vn -0.7280273 -0.6855469 -0.006607056
vn -0.9125977 -0.2248535 0.3415527
vn -0.6186523 0.5380859 0.5727539
vn -0.4606934 -0.8706055 -0.1730957
vn -0.03207397 -0.9990234 0.02941895
vn -0.8720703 -0.4890137 -0.01811218
vn -0.9326172 0.1095581 0.3432617
vn -0.3354492 0.8891602 0.310791
vn 0.03207397 0.9990234 -0.02941895
vn -0.6640625 -0.6958008 -0.2741699
vn -0.9716797 -0.2338867 -0.02972412
vn -0.7954102 0.5351563 0.2849121
vn -0.3518066 -0.878418 -0.3232422
vn -0.03207397 -0.9990234 0.02941895
vn -0.7944336 -0.5009766 -0.3427734
vn -0.9941406 0.1002197 -0.040802
vn -0.4367676 0.8876953 0.1459961
vn 0.03207397 0.9990234 -0.02941895
vn -0.5024414 -0.7075195 -0.4970703
vn -0.8847656 -0.2474365 -0.3955078
vn -0.8486328 0.5268555 -0.04837036
vn -0.1934814 -0.8867188 -0.4204102
vn -0.03207397 -0.9990234 0.02941895
vn -0.5986328 -0.515625 -0.6132813
vn -0.9038086 0.08618164 -0.4189453
vn -0.4672852 0.8828125 -0.04483032
vn 0.03207397 0.9990234 -0.02941895
vn -0.2678223 -0.7192383 -0.6411133
vn -0.6640625 -0.2636719 -0.699707
vn -0.7700195 0.5146484 -0.3764648
vn -0.01015472 -0.8930664 -0.4494629
vn -0.03207397 -0.9990234 0.02941895
vn 0.004055023 -0.7294922 -0.684082
vn -0.3139648 -0.5297852 -0.7875977
vn 0.01593018 -0.5419922 -0.840332
vn -0.3435059 -0.2797852 -0.8964844
vn 0.02810669 -0.293457 -0.9555664
vn -0.6757813 0.06958008 -0.7338867
vn -0.3442383 0.052948 -0.9375
vn 0.04006958 0.03878784 -0.9985352
vn -0.5722656 0.5004883 -0.6499023
vn -0.284668 0.486084 -0.8261719
vn 0.04888916 0.473877 -0.8793945
vn -0.4223633 0.8759766 -0.232666
vn 0.03207397 0.9990234 -0.02941895
vn -0.309082 0.8676758 -0.3891602
vn 0.03207397 0.9990234 -0.02941895
vn -0.1442871 0.859375 -0.4902344
vn 0.03207397 0.9990234 -0.02941895
vn 0.04663086 0.8525391 -0.5205078
vn 0.03207397 0.9990234 -0.02941895
g Balloon_1_01_0
f 3/3/3 2/2/2 1/1/1
f 4/4/4 3/3/3 1/1/1
f 5/5/5 4/4/4 1/1/1
f 6/6/6 5/5/5 1/1/1
f 5/5/5 7/7/7 4/4/4
f 7/7/7 8/8/8 4/4/4
f 7/7/7 9/9/9 8/8/8
f 9/9/9 10/10/10 8/8/8
f 11/11/11 10/10/10 9/9/9
f 9/9/9 7/7/7 12/12/12
f 7/7/7 13/13/13 12/12/12
f 12/12/12 14/14/14 9/9/9
f 14/14/14 15/15/15 9/9/9
f 15/15/15 11/11/11 9/9/9
f 14/14/14 16/16/16 15/15/15
f 16/16/16 17/17/17 15/15/15
f 15/15/15 17/17/17 11/11/11
f 17/17/17 18/18/18 11/11/11
f 21/21/21 20/20/20 19/19/19
f 22/22/22 21/21/21 19/19/19
f 22/22/22 19/19/19 23/23/23
f 21/21/21 22/22/22 24/24/24
f 25/25/25 21/21/21 24/24/24
f 24/24/24 22/22/22 26/26/26
f 27/27/27 22/22/22 23/23/23
f 22/22/22 27/27/27 26/26/26
f 27/27/27 23/23/23 28/28/28
f 27/27/27 29/29/29 26/26/26
f 29/29/29 27/27/27 28/28/28
f 29/29/29 30/30/30 26/26/26
f 30/30/30 29/29/29 31/31/31
f 32/32/32 30/30/30 31/31/31
f 29/29/29 28/28/28 33/33/33
f 31/31/31 29/29/29 33/33/33
f 33/33/33 28/28/28 34/34/34
f 28/28/28 35/35/35 34/34/34
f 33/33/33 34/34/34 36/36/36
f 31/31/31 33/33/33 37/37/37
f 37/37/37 33/33/33 36/36/36
f 38/38/38 31/31/31 37/37/37
f 36/36/36 39/39/39 37/37/37
f 39/39/39 38/38/38 37/37/37
f 42/42/42 41/41/41 40/40/40
f 41/41/41 42/42/42 43/43/43
f 44/44/44 41/41/41 43/43/43
f 44/44/44 43/43/43 45/45/45
f 46/46/46 44/44/44 45/45/45
f 46/46/46 45/45/45 47/47/47
f 48/48/48 46/46/46 47/47/47
f 48/48/48 47/47/47 49/49/49
f 50/50/50 48/48/48 49/49/49
f 50/50/50 49/49/49 51/51/51
f 52/52/52 50/50/50 51/51/51
f 52/52/52 51/51/51 53/53/53
f 54/54/54 52/52/52 53/53/53
f 54/54/54 53/53/53 55/55/55
f 56/56/56 53/53/53 51/51/51
f 53/53/53 56/56/56 57/57/57
f 58/58/58 51/51/51 49/49/49
f 58/58/58 56/56/56 51/51/51
f 59/59/59 49/49/49 47/47/47
f 59/59/59 58/58/58 49/49/49
f 60/60/60 47/47/47 45/45/45
f 60/60/60 59/59/59 47/47/47
f 61/61/61 56/56/56 58/58/58
f 56/56/56 61/61/61 62/62/62
f 63/63/63 58/58/58 59/59/59
f 63/63/63 61/61/61 58/58/58
f 64/64/64 60/60/60 45/45/45
f 64/64/64 45/45/45 43/43/43
f 65/65/65 59/59/59 60/60/60
f 65/65/65 63/63/63 59/59/59
f 66/66/66 61/61/61 63/63/63
f 61/61/61 66/66/66 67/67/67
f 68/68/68 66/66/66 63/63/63
f 68/68/68 63/63/63 65/65/65
f 69/69/69 65/65/65 60/60/60
f 69/69/69 60/60/60 64/64/64
f 70/70/70 64/64/64 43/43/43
f 70/70/70 43/43/43 42/42/42
f 71/71/71 66/66/66 68/68/68
f 66/66/66 71/71/71 72/72/72
f 73/73/73 68/68/68 65/65/65
f 73/73/73 65/65/65 69/69/69
f 74/74/74 69/69/69 64/64/64
f 74/74/74 64/64/64 70/70/70
f 75/75/75 70/70/70 42/42/42
f 75/75/75 42/42/42 76/76/76
f 77/77/77 71/71/71 68/68/68
f 77/77/77 68/68/68 73/73/73
f 78/78/78 73/73/73 69/69/69
f 78/78/78 69/69/69 74/74/74
f 79/79/79 70/70/70 75/75/75
f 79/79/79 74/74/74 70/70/70
f 80/80/80 71/71/71 77/77/77
f 71/71/71 80/80/80 81/81/81
f 82/82/82 77/77/77 73/73/73
f 82/82/82 73/73/73 78/78/78
f 83/83/83 78/78/78 74/74/74
f 83/83/83 74/74/74 79/79/79
f 84/84/84 79/79/79 75/75/75
f 84/84/84 75/75/75 85/85/85
f 86/86/86 80/80/80 77/77/77
f 86/86/86 77/77/77 82/82/82
f 87/87/87 82/82/82 78/78/78
f 87/87/87 78/78/78 83/83/83
f 88/88/88 79/79/79 84/84/84
f 88/88/88 83/83/83 79/79/79
f 89/89/89 80/80/80 86/86/86
f 80/80/80 89/89/89 90/90/90
f 91/91/91 86/86/86 82/82/82
f 91/91/91 82/82/82 87/87/87
f 92/92/92 87/87/87 83/83/83
f 92/92/92 83/83/83 88/88/88
f 93/93/93 88/88/88 84/84/84
f 93/93/93 84/84/84 94/94/94
f 95/95/95 89/89/89 86/86/86
f 95/95/95 86/86/86 91/91/91
f 96/96/96 91/91/91 87/87/87
f 96/96/96 87/87/87 92/92/92
f 97/97/97 92/92/92 88/88/88
f 97/97/97 88/88/88 93/93/93
f 98/98/98 89/89/89 95/95/95
f 89/89/89 98/98/98 99/99/99
f 100/100/100 95/95/95 91/91/91
f 100/100/100 91/91/91 96/96/96
f 101/101/101 96/96/96 92/92/92
f 101/101/101 92/92/92 97/97/97
f 102/102/102 97/97/97 93/93/93
f 102/102/102 93/93/93 103/103/103
f 104/104/104 98/98/98 95/95/95
f 104/104/104 95/95/95 100/100/100
f 105/105/105 100/100/100 96/96/96
f 105/105/105 96/96/96 101/101/101
f 106/106/106 101/101/101 97/97/97
f 106/106/106 97/97/97 102/102/102
f 107/107/107 98/98/98 104/104/104
f 98/98/98 107/107/107 108/108/108
f 109/109/109 104/104/104 100/100/100
f 109/109/109 100/100/100 105/105/105
f 110/110/110 105/105/105 101/101/101
f 110/110/110 101/101/101 106/106/106
f 111/111/111 106/106/106 102/102/102
f 111/111/111 102/102/102 112/112/112
f 113/113/113 107/107/107 104/104/104
f 113/113/113 104/104/104 109/109/109
f 114/114/114 109/109/109 105/105/105
f 114/114/114 105/105/105 110/110/110
f 115/115/115 110/110/110 106/106/106
f 115/115/115 106/106/106 111/111/111
f 116/116/116 107/107/107 113/113/113
f 107/107/107 116/116/116 117/117/117
f 118/118/118 113/113/113 109/109/109
f 118/118/118 109/109/109 114/114/114
f 119/119/119 114/114/114 110/110/110
f 119/119/119 110/110/110 115/115/115
f 120/120/120 115/115/115 111/111/111
f 120/120/120 111/111/111 121/121/121
f 122/122/122 116/116/116 113/113/113
f 122/122/122 113/113/113 118/118/118
f 123/123/123 118/118/118 114/114/114
f 123/123/123 114/114/114 119/119/119
f 124/124/124 115/115/115 120/120/120
f 124/124/124 119/119/119 115/115/115
f 125/125/125 116/116/116 122/122/122
f 116/116/116 125/125/125 126/126/126
f 127/127/127 122/122/122 118/118/118
f 127/127/127 118/118/118 123/123/123
f 128/128/128 123/123/123 119/119/119
f 128/128/128 119/119/119 124/124/124
f 129/129/129 124/124/124 120/120/120
f 129/129/129 120/120/120 130/130/130
f 131/131/131 125/125/125 122/122/122
f 131/131/131 122/122/122 127/127/127
f 132/132/132 127/127/127 123/123/123
f 132/132/132 123/123/123 128/128/128
f 133/133/133 124/124/124 129/129/129
f 133/133/133 128/128/128 124/124/124
f 134/134/134 125/125/125 131/131/131
f 125/125/125 134/134/134 135/135/135
f 136/136/136 131/131/131 127/127/127
f 136/136/136 127/127/127 132/132/132
f 137/137/137 132/132/132 128/128/128
f 137/137/137 128/128/128 133/133/133
f 138/138/138 133/133/133 129/129/129
f 138/138/138 129/129/129 139/139/139
f 140/140/140 134/134/134 131/131/131
f 140/140/140 131/131/131 136/136/136
f 141/141/141 136/136/136 132/132/132
f 141/141/141 132/132/132 137/137/137
f 142/142/142 137/137/137 133/133/133
f 142/142/142 133/133/133 138/138/138
f 143/143/143 134/134/134 140/140/140
f 134/134/134 143/143/143 144/144/144
f 145/145/145 140/140/140 136/136/136
f 145/145/145 136/136/136 141/141/141
f 146/146/146 141/141/141 137/137/137
f 146/146/146 137/137/137 142/142/142
f 147/147/147 142/142/142 138/138/138
f 147/147/147 138/138/138 148/148/148
f 149/149/149 143/143/143 140/140/140
f 149/149/149 140/140/140 145/145/145
f 150/150/150 145/145/145 141/141/141
f 150/150/150 141/141/141 146/146/146
f 151/151/151 146/146/146 142/142/142
f 151/151/151 142/142/142 147/147/147
f 152/152/152 143/143/143 149/149/149
f 143/143/143 152/152/152 153/153/153
f 154/154/154 149/149/149 145/145/145
f 154/154/154 145/145/145 150/150/150
f 155/155/155 150/150/150 146/146/146
f 155/155/155 146/146/146 151/151/151
f 156/156/156 151/151/151 147/147/147
f 156/156/156 147/147/147 157/157/157
f 158/158/158 152/152/152 149/149/149
f 158/158/158 149/149/149 154/154/154
f 159/159/159 154/154/154 150/150/150
f 159/159/159 150/150/150 155/155/155
f 160/160/160 155/155/155 151/151/151
f 160/160/160 151/151/151 156/156/156
f 161/161/161 152/152/152 158/158/158
f 152/152/152 161/161/161 162/162/162
f 163/163/163 158/158/158 154/154/154
f 163/163/163 154/154/154 159/159/159
f 164/164/164 159/159/159 155/155/155
f 164/164/164 155/155/155 160/160/160
f 165/165/165 160/160/160 156/156/156
f 165/165/165 156/156/156 166/166/166
f 167/167/167 161/161/161 158/158/158
f 167/167/167 158/158/158 163/163/163
f 168/168/168 163/163/163 159/159/159
f 168/168/168 159/159/159 164/164/164
f 169/169/169 160/160/160 165/165/165
f 169/169/169 164/164/164 160/160/160
f 170/170/170 161/161/161 167/167/167
f 161/161/161 170/170/170 171/171/171
f 172/172/172 170/170/170 167/167/167
f 173/173/173 167/167/167 163/163/163
f 172/172/172 167/167/167 173/173/173
f 173/173/173 163/163/163 168/168/168
f 174/174/174 172/172/172 173/173/173
f 174/174/174 173/173/173 175/175/175
f 175/175/175 173/173/173 168/168/168
f 176/176/176 174/174/174 175/175/175
f 177/177/177 168/168/168 164/164/164
f 175/175/175 168/168/168 177/177/177
f 177/177/177 164/164/164 169/169/169
f 176/176/176 175/175/175 178/178/178
f 178/178/178 175/175/175 177/177/177
f 179/179/179 176/176/176 178/178/178
f 180/180/180 177/177/177 169/169/169
f 178/178/178 177/177/177 180/180/180
f 179/179/179 178/178/178 181/181/181
f 181/181/181 178/178/178 180/180/180
f 182/182/182 179/179/179 181/181/181
f 180/180/180 169/169/169 183/183/183
f 183/183/183 169/169/169 165/165/165
f 183/183/183 165/165/165 184/184/184
f 185/185/185 180/180/180 183/183/183
f 181/181/181 180/180/180 185/185/185
f 185/185/185 183/183/183 186/186/186
f 182/182/182 181/181/181 187/187/187
f 187/187/187 181/181/181 185/185/185
f 187/187/187 185/185/185 188/188/188
f 189/189/189 182/182/182 187/187/187
f 189/189/189 187/187/187 190/190/190
