g Balloon_2_01
v 78.50342 185.746 -82.6209
v 84.18738 183.3796 -88.347
v 84.2981 184.2242 -84.97005
v 75.88184 184.687 -88.40172
v 81.67639 183.1653 -90.75087
v 18.08643 24.12732 -11.07899
v -0.9359131 3.049805 3.244808
v -3.524292 1.519409 -2.444672
v 15.49792 22.59689 -16.76847
v 34.46057 46.89627 -25.70899
v 31.87122 45.42328 -31.41752
v 20.24011 18.34003 -17.78083
v 0.9360352 -3.049774 -3.244804
v 37.05005 41.6723 -32.905
v 50.94971 65.09305 -48.34882
v 45.49121 68.26553 -46.45653
v 53.53601 66.2124 -42.63093
v 39.63025 43.14902 -27.17834
v 65.40186 94.70776 -58.04833
v 62.80237 93.73456 -63.81057
v 57.14941 96.13919 -61.63109
v 68.01111 135.9722 -75.74313
v 76.40112 135.2906 -72.27127
v 73.77808 134.2332 -78.04953
v 75.88184 184.687 -88.40172
v 81.67639 183.1653 -90.75087
v 84.18738 183.3796 -88.347
v 84.2981 184.2242 -84.97005
v 39.63025 43.14902 -27.17834
v 37.05005 41.6723 -32.905
v 20.24011 18.34003 -17.78083
v 22.82849 19.87045 -12.09136
v 0.9360352 -3.049774 -3.244804
v 3.524414 -1.519348 2.444668
v 18.08643 24.12732 -11.07899
v -0.9359131 3.049805 3.244808
v 34.46057 46.89627 -25.70899
v 48.08972 69.53348 -40.72046
v 31.87122 45.42328 -31.41752
v 53.53601 66.2124 -42.63093
v 59.75928 97.2146 -55.85917
v 45.49121 68.26553 -46.45653
v 65.40186 94.70776 -58.04833
v 57.14941 96.13919 -61.63109
v 76.40112 135.2906 -72.27127
v 68.01111 135.9722 -75.74313
v 70.63281 137.0312 -69.96232
v 84.2981 184.2242 -84.97005
v 75.88184 184.687 -88.40172
v 78.50342 185.746 -82.6209
v 75.27795 321.3425 -109.8408
v 51.10132 308.9854 -131.2948
v 61.83105 308.1374 -138.863
v 35.71802 285.2335 -142.8851
v 53.53784 283.8253 -155.4544
v 31.16675 256.1603 -143.4552
v 51.44922 254.5574 -157.7615
v 34.95654 227.4436 -136.117
v 54.06445 225.9336 -149.5949
v 44.49963 203.0846 -123.8572
v 59.8562 201.871 -134.689
v 57.32104 185.2007 -109.3106
v 67.39185 184.4048 -116.4141
v 70.06445 174.7045 -95.7965
v 74.76123 174.3334 -99.10945
v 80.94324 172.335 -85.1144
v 66.99817 175.389 -90.96921
v 80.94324 172.335 -85.1144
v 50.74646 186.6683 -98.95998
v 34.47437 205.3225 -108.0739
v 22.48218 230.2282 -116.4782
v 66.0293 176.2826 -85.36235
v 80.94324 172.335 -85.1144
v 48.66895 188.5842 -86.93793
v 17.92566 259.116 -122.6093
v 31.30652 208.244 -89.7421
v 67.3053 177.2492 -79.82964
v 80.94324 172.335 -85.1144
v 51.40503 190.6568 -75.07476
v 18.54065 233.8634 -93.66826
v 24.08459 287.8304 -124.5701
v 70.63196 178.1417 -75.21332
v 80.94324 172.335 -85.1144
v 35.47852 211.4044 -71.65257
v 13.74182 262.9746 -98.39719
v 44.09656 310.549 -120.2669
v 75.27795 321.3425 -109.8408
v 58.53796 192.5705 -65.17654
v 23.73181 237.7959 -71.15974
v 20.40869 291.2206 -103.2978
v 75.50281 178.8242 -72.2162
v 80.94324 172.335 -85.1144
v 46.35522 214.3226 -56.55927
v 19.25208 267.1489 -74.50516
v 41.88318 312.5902 -107.4584
v 75.27795 321.3425 -109.8408
v 68.98193 194.0341 -58.75019
v 37.2655 241.4269 -52.37942
v 25.25 294.888 -82.30659
v 81.17627 179.1929 -71.29457
v 80.94324 172.335 -85.1144
v 62.28076 216.5541 -46.76003
v 33.61768 271.0029 -54.57042
v 44.79822 314.7985 -94.81918
v 75.27795 321.3425 -109.8408
v 81.14685 194.8244 -56.77404
v 57.0813 244.2036 -40.18639
v 37.87134 298.2742 -64.79222
v 86.78869 179.1915 -72.58873
v 80.94324 172.335 -85.1144
v 80.83057 217.7594 -43.74668
v 54.65149 273.9504 -41.62792
v 52.39783 316.8373 -84.27341
v 75.27795 321.3425 -109.8408
v 93.18078 194.8216 -59.54896
v 80.16235 245.7034 -36.43695
v 56.35132 300.8637 -53.42113
v 91.48547 178.8203 -75.90166
v 80.94324 172.335 -85.1144
v 99.18042 217.755 -47.97802
v 79.15137 275.5424 -37.648
v 63.52502 318.3965 -77.42665
v 75.27795 321.3425 -109.8408
v 103.2517 194.0257 -66.65248
v 102.995 245.6978 -41.70192
v 77.87659 302.2623 -49.92444
v 94.55176 178.1358 -80.72899
v 80.94324 172.335 -85.1144
v 114.5371 216.5414 -58.80984
v 103.3875 275.5363 -43.23661
v 76.48584 319.2386 -75.32121
v 75.27795 321.3425 -109.8408
v 109.8263 192.5581 -77.00316
v 122.1029 244.1877 -55.17977
v 99.17004 302.2572 -54.83449
v 95.52062 177.2423 -86.33582
v 80.94324 172.335 -85.1144
v 124.5624 214.3035 -74.59307
v 123.6699 273.9336 -57.5429
v 89.30701 319.2356 -78.27768
v 75.27795 321.3425 -109.8408
v 111.9037 190.6421 -89.0252
v 134.5773 241.4031 -74.8186
v 116.9899 300.849 -67.40381
v 94.24463 176.2757 -91.86855
v 80.94324 172.335 -85.1144
v 127.7301 211.3819 -92.92491
v 136.9109 270.9779 -78.38888
v 100.0367 318.3876 -85.84589
v 75.27795 321.3425 -109.8408
v 109.1677 188.5695 -100.8883
v 138.5188 237.7679 -97.62858
v 128.6233 298.2521 -85.71878
v 90.91797 175.3832 -96.48486
v 80.94324 172.335 -85.1144
v 123.5581 208.2216 -111.0145
v 141.0948 267.1191 -102.6009
v 107.0415 316.824 -96.87373
v 75.27795 321.3425 -109.8408
v 102.0348 186.6558 -110.7866
v 133.3276 233.8354 -120.1371
v 132.2992 294.8619 -106.9911
v 86.04712 174.7007 -99.48198
v 80.94324 172.335 -85.1144
v 112.6814 205.3035 -126.1078
v 135.5845 262.9451 -126.493
v 109.2548 314.7827 -109.6822
v 75.27795 321.3425 -109.8408
v 91.59082 185.1923 -117.2129
v 119.7939 230.2045 -138.9174
v 127.4579 291.1945 -127.9823
v 80.37366 174.332 -100.4036
v 80.94324 172.335 -85.1144
v 96.75586 203.0718 -135.907
v 121.219 259.0909 -146.4277
v 106.3397 312.5745 -122.3215
v 75.27795 321.3425 -109.8408
v 79.42578 184.4019 -119.189
v 99.97803 227.4278 -151.1104
v 114.8365 287.8083 -145.4967
v 74.76123 174.3334 -99.10945
v 80.94324 172.335 -85.1144
v 67.39185 184.4048 -116.4141
v 78.20618 201.8666 -138.9203
v 59.8562 201.871 -134.689
v 76.89697 225.928 -154.8599
v 54.06445 225.9336 -149.5949
v 100.1851 256.1434 -159.3702
v 75.68518 254.5515 -163.3501
v 51.44922 254.5574 -157.7615
v 96.35645 285.2188 -156.8678
v 74.8313 283.8201 -160.3644
v 53.53784 283.8253 -155.4544
v 98.74011 310.5356 -132.8672
v 75.27795 321.3425 -109.8408
v 87.61291 308.9764 -139.714
v 75.27795 321.3425 -109.8408
v 74.65222 308.1342 -141.8194
v 75.27795 321.3425 -109.8408
v 61.83105 308.1374 -138.863
v 75.27795 321.3425 -109.8408
vt 0.04760742 0.8676758
vt 0.04736328 0.8671875
vt 0.04733276 0.8671875
vt 0.04776001 0.8676758
vt 0.04751587 0.8671875
vt 0.05136108 0.8408203
vt 0.05236816 0.8374023
vt 0.05221558 0.8374023
vt 0.05126953 0.8408203
vt 0.050354 0.8447266
vt 0.05032349 0.8447266
vt 0.05102539 0.840332
vt 0.05200195 0.8369141
vt 0.05004883 0.8442383
vt 0.04922485 0.8491211
vt 0.04949951 0.8491211
vt 0.04916382 0.8491211
vt 0.05004883 0.8442383
vt 0.04840088 0.8544922
vt 0.04852295 0.8544922
vt 0.04879761 0.8544922
vt 0.04821777 0.8608398
vt 0.04779053 0.8603516
vt 0.04794312 0.8603516
vt 0.04776001 0.8676758
vt 0.04751587 0.8671875
vt 0.04736328 0.8671875
vt 0.04733276 0.8671875
vt 0.05004883 0.8442383
vt 0.05004883 0.8442383
vt 0.05102539 0.840332
vt 0.05108643 0.840332
vt 0.05200195 0.8369141
vt 0.05215454 0.8369141
vt 0.05136108 0.8408203
vt 0.05236816 0.8374023
vt 0.050354 0.8447266
vt 0.04946899 0.8491211
vt 0.05032349 0.8447266
vt 0.04916382 0.8491211
vt 0.04870605 0.8544922
vt 0.04949951 0.8491211
vt 0.04840088 0.8544922
vt 0.04879761 0.8544922
vt 0.04779053 0.8603516
vt 0.04821777 0.8608398
vt 0.04806519 0.8608398
vt 0.04733276 0.8671875
vt 0.04776001 0.8676758
vt 0.04760742 0.8676758
vt 0.03344727 0.6948242
vt 0.03475952 0.6923828
vt 0.03344727 0.6923828
vt 0.03475952 0.6899414
vt 0.03344727 0.6899414
vt 0.03475952 0.6875
vt 0.03344727 0.6875
vt 0.03475952 0.6850586
vt 0.03344727 0.6850586
vt 0.03475952 0.6826172
vt 0.03344727 0.6826172
vt 0.03475952 0.6796875
vt 0.03344727 0.6796875
vt 0.03475952 0.6772461
vt 0.03344727 0.6772461
vt 0.03344727 0.6748047
vt 0.03607178 0.6772461
vt 0.03475952 0.6748047
vt 0.03607178 0.6796875
vt 0.03607178 0.6826172
vt 0.03607178 0.6850586
vt 0.03738403 0.6772461
vt 0.03607178 0.6748047
vt 0.03738403 0.6796875
vt 0.03607178 0.6875
vt 0.03738403 0.6826172
vt 0.03869629 0.6772461
vt 0.03738403 0.6748047
vt 0.03869629 0.6796875
vt 0.03738403 0.6850586
vt 0.03607178 0.6899414
vt 0.04000854 0.6772461
vt 0.03869629 0.6748047
vt 0.03869629 0.6826172
vt 0.03738403 0.6875
vt 0.03607178 0.6923828
vt 0.03475952 0.6948242
vt 0.04000854 0.6796875
vt 0.03869629 0.6850586
vt 0.03738403 0.6899414
vt 0.0413208 0.6772461
vt 0.04000854 0.6748047
vt 0.04000854 0.6826172
vt 0.03869629 0.6875
vt 0.03738403 0.6923828
vt 0.03607178 0.6948242
vt 0.0413208 0.6796875
vt 0.04000854 0.6850586
vt 0.03869629 0.6899414
vt 0.04266357 0.6772461
vt 0.0413208 0.6748047
vt 0.0413208 0.6826172
vt 0.04000854 0.6875
vt 0.03869629 0.6923828
vt 0.03738403 0.6948242
vt 0.04266357 0.6796875
vt 0.0413208 0.6850586
vt 0.04000854 0.6899414
vt 0.04397583 0.6772461
vt 0.04266357 0.6748047
vt 0.04266357 0.6826172
vt 0.0413208 0.6875
vt 0.04000854 0.6923828
vt 0.03869629 0.6948242
vt 0.04397583 0.6796875
vt 0.04266357 0.6850586
vt 0.0413208 0.6899414
vt 0.04528809 0.6772461
vt 0.04397583 0.6748047
vt 0.04397583 0.6826172
vt 0.04266357 0.6875
vt 0.0413208 0.6923828
vt 0.04000854 0.6948242
vt 0.04528809 0.6796875
vt 0.04397583 0.6850586
vt 0.04266357 0.6899414
vt 0.04660034 0.6772461
vt 0.04528809 0.6748047
vt 0.04528809 0.6826172
vt 0.04397583 0.6875
vt 0.04266357 0.6923828
vt 0.0413208 0.6948242
vt 0.04660034 0.6796875
vt 0.04528809 0.6850586
vt 0.04397583 0.6899414
vt 0.0479126 0.6772461
vt 0.04660034 0.6748047
vt 0.04660034 0.6826172
vt 0.04528809 0.6875
vt 0.04397583 0.6923828
vt 0.04266357 0.6948242
vt 0.0479126 0.6796875
vt 0.04660034 0.6850586
vt 0.04528809 0.6899414
vt 0.04922485 0.6772461
vt 0.0479126 0.6748047
vt 0.0479126 0.6826172
vt 0.04660034 0.6875
vt 0.04528809 0.6923828
vt 0.04397583 0.6948242
vt 0.04922485 0.6796875
vt 0.0479126 0.6850586
vt 0.04660034 0.6899414
vt 0.05053711 0.6772461
vt 0.04922485 0.6748047
vt 0.04922485 0.6826172
vt 0.0479126 0.6875
vt 0.04660034 0.6923828
vt 0.04528809 0.6948242
vt 0.05053711 0.6796875
vt 0.04922485 0.6850586
vt 0.0479126 0.6899414
vt 0.05184937 0.6772461
vt 0.05053711 0.6748047
vt 0.05053711 0.6826172
vt 0.04922485 0.6875
vt 0.0479126 0.6923828
vt 0.04660034 0.6948242
vt 0.05184937 0.6796875
vt 0.05053711 0.6850586
vt 0.04922485 0.6899414
vt 0.05319214 0.6772461
vt 0.05184937 0.6748047
vt 0.05184937 0.6826172
vt 0.05053711 0.6875
vt 0.04922485 0.6923828
vt 0.0479126 0.6948242
vt 0.05319214 0.6796875
vt 0.05184937 0.6850586
vt 0.05053711 0.6899414
vt 0.05450439 0.6772461
vt 0.05319214 0.6748047
vt 0.05450439 0.6796875
vt 0.05319214 0.6826172
vt 0.05450439 0.6826172
vt 0.05319214 0.6850586
vt 0.05450439 0.6850586
vt 0.05184937 0.6875
vt 0.05319214 0.6875
vt 0.05450439 0.6875
vt 0.05184937 0.6899414
vt 0.05319214 0.6899414
vt 0.05450439 0.6899414
vt 0.05053711 0.6923828
vt 0.04922485 0.6948242
vt 0.05184937 0.6923828
vt 0.05053711 0.6948242
vt 0.05319214 0.6923828
vt 0.05184937 0.6948242
vt 0.05450439 0.6923828
vt 0.05319214 0.6948242
vn 0.1523438 0.9575195 -0.2445068
vn 0.1523438 0.9575195 -0.2445068
vn 0.1523438 0.9575195 -0.2445068
vn 0.1523438 0.9575195 -0.2445068
vn 0.1523438 0.9575195 -0.2445068
vn 0.09173584 0.3916016 0.9155273
vn 0.1063232 0.4125977 0.9047852
vn -0.8076172 0.5664063 -0.1633301
vn -0.8452148 0.5161133 -0.1381836
vn 0.06713867 0.3505859 0.934082
vn -0.9042969 0.4169922 -0.09301758
vn -0.09155273 -0.3916016 -0.9155273
vn -0.1063232 -0.4125977 -0.9047852
vn -0.0670166 -0.3505859 -0.934082
vn -0.0508728 -0.3139648 -0.9482422
vn -0.9428711 0.328125 -0.059021
vn 0.9428711 -0.328125 0.05895996
vn 0.9042969 -0.4169922 0.09301758
vn 0.9672852 -0.2509766 0.03363037
vn -0.04052734 -0.2822266 -0.9584961
vn -0.9667969 0.2536621 -0.03442383
vn -0.9824219 0.1855469 -0.01464844
vn 0.9824219 -0.1856689 0.01464081
vn -0.03414917 -0.2548828 -0.9663086
vn -0.987793 0.1555176 -0.006526947
vn -0.03179932 -0.2425537 -0.9697266
vn 0.9873047 -0.1590576 0.007411957
vn 0.987793 -0.1553955 0.006458282
vn 0.9042969 -0.4169922 0.09301758
vn -0.0670166 -0.3505859 -0.934082
vn -0.09155273 -0.3916016 -0.9155273
vn 0.8452148 -0.5161133 0.1381836
vn -0.1063232 -0.4125977 -0.9047852
vn 0.8076172 -0.5664063 0.1633301
vn 0.09173584 0.3916016 0.9155273
vn 0.1063232 0.4125977 0.9047852
vn 0.06713867 0.3505859 0.934082
vn 0.05090332 0.3139648 0.9482422
vn -0.9042969 0.4169922 -0.09301758
vn 0.9428711 -0.328125 0.05895996
vn 0.04055786 0.2819824 0.9584961
vn -0.9428711 0.328125 -0.059021
vn 0.9672852 -0.2509766 0.03363037
vn -0.9667969 0.2536621 -0.03442383
vn 0.9824219 -0.1856689 0.01464081
vn -0.9824219 0.1855469 -0.01464844
vn 0.03417969 0.2548828 0.9663086
vn 0.987793 -0.1553955 0.006458282
vn -0.987793 0.1555176 -0.006526947
vn 0.03182983 0.2425537 0.9697266
vn -0.03747559 0.9858398 -0.1635742
vn -0.3920898 0.7871094 -0.4760742
vn -0.234375 0.7749023 -0.5874023
vn -0.6469727 0.3730469 -0.6650391
vn -0.3713379 0.3513184 -0.859375
vn -0.7265625 -0.07067871 -0.6835938
vn -0.4089355 -0.09576416 -0.9077148
vn -0.6899414 -0.3947754 -0.6069336
vn -0.3830566 -0.4191895 -0.8232422
vn -0.6020508 -0.628418 -0.4926758
vn -0.3295898 -0.6499023 -0.6850586
vn -0.4855957 -0.796875 -0.3598633
vn -0.2609863 -0.8144531 -0.5180664
vn -0.3122559 -0.9335938 -0.1768799
vn -0.1608887 -0.9453125 -0.2836914
vn 0.03747559 -0.9858398 0.1635742
vn -0.4111328 -0.9111328 -0.02119446
vn 0.03747559 -0.9858398 0.1635742
vn -0.6323242 -0.7641602 -0.1289063
vn -0.7797852 -0.5888672 -0.2126465
vn -0.8901367 -0.3500977 -0.2912598
vn -0.4423828 -0.8823242 0.1595459
vn 0.03747559 -0.9858398 0.1635742
vn -0.6787109 -0.7211914 0.1391602
vn -0.9335938 -0.0243988 -0.3574219
vn -0.8359375 -0.5366211 0.1126709
vn -0.4013672 -0.8515625 0.3378906
vn 0.03747559 -0.9858398 0.1635742
vn -0.6176758 -0.675293 0.4038086
vn -0.9536133 -0.291748 0.07501221
vn -0.8266602 0.4130859 -0.3820801
vn -0.2939453 -0.8227539 0.4868164
vn 0.03747559 -0.9858398 0.1635742
vn -0.762207 -0.4807129 0.4335938
vn -0.9990234 0.03598022 0.02154541
vn -0.4951172 0.8100586 -0.3139648
vn -0.03747559 0.9858398 -0.1635742
vn -0.4584961 -0.6323242 0.6245117
vn -0.8701172 -0.2285156 0.4365234
vn -0.8833008 0.4655762 -0.05337524
vn -0.1369629 -0.8007813 0.5834961
vn 0.03747559 -0.9858398 0.1635742
vn -0.5693359 -0.4289551 0.7016602
vn -0.9130859 0.1013184 0.3955078
vn -0.5273438 0.840332 -0.1257324
vn -0.03747559 0.9858398 -0.1635742
vn -0.2255859 -0.5996094 0.7675781
vn -0.652832 -0.1702881 0.7382813
vn -0.8085938 0.5224609 0.2709961
vn 0.04589844 -0.7885742 0.6132813
vn 0.03747559 -0.9858398 0.1635742
vn -0.2866211 -0.3894043 0.8754883
vn -0.6879883 0.1616211 0.7075195
vn -0.4846191 0.8725586 0.05996704
vn -0.03747559 0.9858398 -0.1635742
vn 0.04574585 -0.5820313 0.8120117
vn -0.3344727 -0.1256104 0.934082
vn -0.6132813 0.574707 0.5415039
vn 0.2268066 -0.7885742 0.5712891
vn 0.03747559 -0.9858398 0.1635742
vn 0.04263306 -0.3679199 0.9287109
vn -0.3588867 0.2077637 0.9101563
vn -0.3730469 0.9023438 0.2149658
vn -0.03747559 0.9858398 -0.1635742
vn 0.314209 -0.5820313 0.75
vn 0.03613281 -0.1015625 0.9941406
vn -0.3278809 0.6147461 0.7172852
vn 0.3781738 -0.8007813 0.4645996
vn 0.03747559 -0.9858398 0.1635742
vn 0.3681641 -0.3679199 0.8540039
vn 0.02452087 0.232666 0.972168
vn -0.2095947 0.925293 0.3156738
vn -0.03747559 0.9858398 -0.1635742
vn 0.5385742 -0.6000977 0.5913086
vn 0.402832 -0.1016846 0.909668
vn 0.004760742 0.6362305 0.7714844
vn 0.4770508 -0.8227539 0.3088379
vn 0.03747559 -0.9858398 0.1635742
vn 0.640625 -0.3896484 0.6616211
vn 0.4038086 0.2325439 0.8847656
vn -0.01908875 0.9379883 0.3464355
vn -0.03747559 0.9858398 -0.1635742
vn 0.6855469 -0.6328125 0.3605957
vn 0.7094727 -0.1258545 0.6933594
vn 0.3337402 0.6362305 0.6958008
vn 0.5083008 -0.8515625 0.1281738
vn 0.03747559 -0.9858398 0.1635742
vn 0.8188477 -0.4291992 0.3815918
vn 0.7211914 0.2075195 0.6611328
vn 0.1693115 0.9379883 0.3029785
vn -0.03747559 0.9858398 -0.1635742
vn 0.7314453 -0.675293 0.09259033
vn 0.9101563 -0.1706543 0.3776855
vn 0.609375 0.6142578 0.5014648
vn 0.4672852 -0.8828125 -0.05020142
vn 0.03747559 -0.9858398 0.1635742
vn 0.875 -0.4812012 0.05621338
vn 0.9282227 0.1612549 0.3347168
vn 0.3269043 0.925293 0.1918945
vn -0.03747559 0.9858398 -0.1635742
vn 0.6704102 -0.7216797 -0.1719971
vn 0.9731445 -0.2290039 0.01140594
vn 0.7890625 0.5742188 0.2182617
vn 0.3598633 -0.9116211 -0.1989746
vn 0.03747559 -0.9858398 0.1635742
vn 0.8007813 -0.5371094 -0.2648926
vn 0.9941406 0.1008301 -0.04425049
vn 0.4299316 0.9023438 0.02978516
vn -0.03747559 0.9858398 -0.1635742
vn 0.5117188 -0.7641602 -0.3925781
vn 0.8901367 -0.2922363 -0.3500977
vn 0.8457031 0.5219727 -0.1104736
vn 0.2028809 -0.9335938 -0.2956543
vn 0.03747559 -0.9858398 0.1635742
vn 0.6079102 -0.5888672 -0.5327148
vn 0.9077148 0.03552246 -0.4182129
vn 0.4624023 0.8725586 -0.1584473
vn -0.03747559 0.9858398 -0.1635742
vn 0.2785645 -0.796875 -0.5361328
vn 0.6728516 -0.3505859 -0.6518555
vn 0.7709961 0.4650879 -0.4348145
vn 0.02003479 -0.9453125 -0.3254395
vn 0.03747559 -0.9858398 0.1635742
vn 0.3251953 -0.628418 -0.706543
vn 0.6831055 -0.02478027 -0.7299805
vn 0.4196777 0.8398438 -0.3442383
vn -0.03747559 0.9858398 -0.1635742
vn 0.007358551 -0.8144531 -0.5800781
vn 0.3544922 -0.3950195 -0.8476563
vn 0.5761719 0.4128418 -0.7055664
vn -0.1608887 -0.9453125 -0.2836914
vn 0.03747559 -0.9858398 0.1635742
vn -0.2609863 -0.8144531 -0.5180664
vn -0.003932953 -0.6499023 -0.7597656
vn -0.3295898 -0.6499023 -0.6850586
vn -0.0163269 -0.4191895 -0.9077148
vn -0.3830566 -0.4191895 -0.8232422
vn 0.3537598 -0.07092285 -0.9326172
vn -0.02972412 -0.0958252 -0.9951172
vn -0.4089355 -0.09576416 -0.9077148
vn 0.2902832 0.3728027 -0.8813477
vn -0.04229736 0.3513184 -0.9355469
vn -0.3713379 0.3513184 -0.859375
vn 0.3078613 0.8100586 -0.4990234
vn -0.03747559 0.9858398 -0.1635742
vn 0.1444092 0.7871094 -0.5996094
vn -0.03747559 0.9858398 -0.1635742
vn -0.04602051 0.7749023 -0.6308594
vn -0.03747559 0.9858398 -0.1635742
vn -0.234375 0.7749023 -0.5874023
vn -0.03747559 0.9858398 -0.1635742
g Balloon_2_01_0
f 3/3/3 2/2/2 1/1/1
f 1/1/1 2/2/2 4/4/4
f 4/4/4 2/2/2 5/5/5
f 8/8/8 7/7/7 6/6/6
f 9/9/9 8/8/8 6/6/6
f 9/9/9 6/6/6 10/10/10
f 11/11/11 9/9/9 10/10/10
f 9/9/9 12/12/12 8/8/8
f 12/12/12 13/13/13 8/8/8
f 12/12/12 9/9/9 14/14/14
f 9/9/9 11/11/11 14/14/14
f 15/15/15 14/14/14 11/11/11
f 16/16/16 15/15/15 11/11/11
f 14/14/14 15/15/15 17/17/17
f 18/18/18 14/14/14 17/17/17
f 17/17/17 15/15/15 19/19/19
f 20/20/20 15/15/15 16/16/16
f 15/15/15 20/20/20 19/19/19
f 21/21/21 20/20/20 16/16/16
f 20/20/20 21/21/21 22/22/22
f 19/19/19 20/20/20 23/23/23
f 24/24/24 20/20/20 22/22/22
f 20/20/20 24/24/24 23/23/23
f 24/24/24 22/22/22 25/25/25
f 26/26/26 24/24/24 25/25/25
f 23/23/23 24/24/24 26/26/26
f 26/26/26 27/27/27 23/23/23
f 27/27/27 28/28/28 23/23/23
f 31/31/31 30/30/30 29/29/29
f 32/32/32 31/31/31 29/29/29
f 33/33/33 31/31/31 32/32/32
f 34/34/34 33/33/33 32/32/32
f 32/32/32 35/35/35 34/34/34
f 35/35/35 36/36/36 34/34/34
f 35/35/35 32/32/32 37/37/37
f 32/32/32 29/29/29 37/37/37
f 38/38/38 37/37/37 29/29/29
f 39/39/39 37/37/37 38/38/38
f 40/40/40 38/38/38 29/29/29
f 41/41/41 38/38/38 40/40/40
f 42/42/42 39/39/39 38/38/38
f 42/42/42 38/38/38 41/41/41
f 43/43/43 41/41/41 40/40/40
f 44/44/44 42/42/42 41/41/41
f 41/41/41 43/43/43 45/45/45
f 44/44/44 41/41/41 46/46/46
f 47/47/47 41/41/41 45/45/45
f 41/41/41 47/47/47 46/46/46
f 47/47/47 45/45/45 48/48/48
f 49/49/49 46/46/46 47/47/47
f 50/50/50 47/47/47 48/48/48
f 50/50/50 49/49/49 47/47/47
f 53/53/53 52/52/52 51/51/51
f 54/54/54 52/52/52 53/53/53
f 55/55/55 54/54/54 53/53/53
f 56/56/56 54/54/54 55/55/55
f 57/57/57 56/56/56 55/55/55
f 58/58/58 56/56/56 57/57/57
f 59/59/59 58/58/58 57/57/57
f 60/60/60 58/58/58 59/59/59
f 61/61/61 60/60/60 59/59/59
f 62/62/62 60/60/60 61/61/61
f 63/63/63 62/62/62 61/61/61
f 64/64/64 62/62/62 63/63/63
f 65/65/65 64/64/64 63/63/63
f 64/64/64 65/65/65 66/66/66
f 62/62/62 64/64/64 67/67/67
f 67/67/67 64/64/64 68/68/68
f 60/60/60 62/62/62 69/69/69
f 69/69/69 62/62/62 67/67/67
f 58/58/58 60/60/60 70/70/70
f 70/70/70 60/60/60 69/69/69
f 56/56/56 58/58/58 71/71/71
f 71/71/71 58/58/58 70/70/70
f 69/69/69 67/67/67 72/72/72
f 72/72/72 67/67/67 73/73/73
f 70/70/70 69/69/69 74/74/74
f 74/74/74 69/69/69 72/72/72
f 75/75/75 56/56/56 71/71/71
f 54/54/54 56/56/56 75/75/75
f 71/71/71 70/70/70 76/76/76
f 76/76/76 70/70/70 74/74/74
f 74/74/74 72/72/72 77/77/77
f 77/77/77 72/72/72 78/78/78
f 79/79/79 74/74/74 77/77/77
f 76/76/76 74/74/74 79/79/79
f 80/80/80 71/71/71 76/76/76
f 75/75/75 71/71/71 80/80/80
f 81/81/81 54/54/54 75/75/75
f 52/52/52 54/54/54 81/81/81
f 79/79/79 77/77/77 82/82/82
f 82/82/82 77/77/77 83/83/83
f 84/84/84 76/76/76 79/79/79
f 80/80/80 76/76/76 84/84/84
f 85/85/85 75/75/75 80/80/80
f 81/81/81 75/75/75 85/85/85
f 86/86/86 52/52/52 81/81/81
f 52/52/52 86/86/86 87/87/87
f 88/88/88 79/79/79 82/82/82
f 84/84/84 79/79/79 88/88/88
f 89/89/89 80/80/80 84/84/84
f 85/85/85 80/80/80 89/89/89
f 90/90/90 81/81/81 85/85/85
f 86/86/86 81/81/81 90/90/90
f 88/88/88 82/82/82 91/91/91
f 91/91/91 82/82/82 92/92/92
f 93/93/93 84/84/84 88/88/88
f 89/89/89 84/84/84 93/93/93
f 94/94/94 85/85/85 89/89/89
f 90/90/90 85/85/85 94/94/94
f 95/95/95 86/86/86 90/90/90
f 86/86/86 95/95/95 96/96/96
f 97/97/97 88/88/88 91/91/91
f 93/93/93 88/88/88 97/97/97
f 98/98/98 89/89/89 93/93/93
f 94/94/94 89/89/89 98/98/98
f 95/95/95 90/90/90 99/99/99
f 99/99/99 90/90/90 94/94/94
f 97/97/97 91/91/91 100/100/100
f 100/100/100 91/91/91 101/101/101
f 102/102/102 93/93/93 97/97/97
f 98/98/98 93/93/93 102/102/102
f 103/103/103 94/94/94 98/98/98
f 99/99/99 94/94/94 103/103/103
f 104/104/104 95/95/95 99/99/99
f 95/95/95 104/104/104 105/105/105
f 106/106/106 97/97/97 100/100/100
f 102/102/102 97/97/97 106/106/106
f 107/107/107 98/98/98 102/102/102
f 103/103/103 98/98/98 107/107/107
f 108/108/108 99/99/99 103/103/103
f 104/104/104 99/99/99 108/108/108
f 106/106/106 100/100/100 109/109/109
f 109/109/109 100/100/100 110/110/110
f 111/111/111 102/102/102 106/106/106
f 107/107/107 102/102/102 111/111/111
f 112/112/112 103/103/103 107/107/107
f 108/108/108 103/103/103 112/112/112
f 113/113/113 104/104/104 108/108/108
f 104/104/104 113/113/113 114/114/114
f 115/115/115 106/106/106 109/109/109
f 111/111/111 106/106/106 115/115/115
f 116/116/116 107/107/107 111/111/111
f 112/112/112 107/107/107 116/116/116
f 113/113/113 108/108/108 117/117/117
f 117/117/117 108/108/108 112/112/112
f 115/115/115 109/109/109 118/118/118
f 118/118/118 109/109/109 119/119/119
f 120/120/120 111/111/111 115/115/115
f 116/116/116 111/111/111 120/120/120
f 121/121/121 112/112/112 116/116/116
f 117/117/117 112/112/112 121/121/121
f 122/122/122 113/113/113 117/117/117
f 113/113/113 122/122/122 123/123/123
f 124/124/124 115/115/115 118/118/118
f 120/120/120 115/115/115 124/124/124
f 125/125/125 116/116/116 120/120/120
f 121/121/121 116/116/116 125/125/125
f 122/122/122 117/117/117 126/126/126
f 126/126/126 117/117/117 121/121/121
f 124/124/124 118/118/118 127/127/127
f 127/127/127 118/118/118 128/128/128
f 129/129/129 120/120/120 124/124/124
f 125/125/125 120/120/120 129/129/129
f 130/130/130 121/121/121 125/125/125
f 126/126/126 121/121/121 130/130/130
f 131/131/131 122/122/122 126/126/126
f 122/122/122 131/131/131 132/132/132
f 133/133/133 124/124/124 127/127/127
f 129/129/129 124/124/124 133/133/133
f 134/134/134 125/125/125 129/129/129
f 130/130/130 125/125/125 134/134/134
f 131/131/131 126/126/126 135/135/135
f 135/135/135 126/126/126 130/130/130
f 133/133/133 127/127/127 136/136/136
f 136/136/136 127/127/127 137/137/137
f 138/138/138 129/129/129 133/133/133
f 134/134/134 129/129/129 138/138/138
f 139/139/139 130/130/130 134/134/134
f 135/135/135 130/130/130 139/139/139
f 140/140/140 131/131/131 135/135/135
f 131/131/131 140/140/140 141/141/141
f 142/142/142 133/133/133 136/136/136
f 138/138/138 133/133/133 142/142/142
f 143/143/143 134/134/134 138/138/138
f 139/139/139 134/134/134 143/143/143
f 140/140/140 135/135/135 144/144/144
f 144/144/144 135/135/135 139/139/139
f 142/142/142 136/136/136 145/145/145
f 145/145/145 136/136/136 146/146/146
f 147/147/147 138/138/138 142/142/142
f 143/143/143 138/138/138 147/147/147
f 148/148/148 139/139/139 143/143/143
f 144/144/144 139/139/139 148/148/148
f 149/149/149 140/140/140 144/144/144
f 140/140/140 149/149/149 150/150/150
f 151/151/151 142/142/142 145/145/145
f 147/147/147 142/142/142 151/151/151
f 152/152/152 143/143/143 147/147/147
f 148/148/148 143/143/143 152/152/152
f 149/149/149 144/144/144 153/153/153
f 153/153/153 144/144/144 148/148/148
f 151/151/151 145/145/145 154/154/154
f 154/154/154 145/145/145 155/155/155
f 156/156/156 147/147/147 151/151/151
f 152/152/152 147/147/147 156/156/156
f 157/157/157 148/148/148 152/152/152
f 153/153/153 148/148/148 157/157/157
f 158/158/158 149/149/149 153/153/153
f 149/149/149 158/158/158 159/159/159
f 160/160/160 151/151/151 154/154/154
f 156/156/156 151/151/151 160/160/160
f 161/161/161 152/152/152 156/156/156
f 157/157/157 152/152/152 161/161/161
f 162/162/162 153/153/153 157/157/157
f 158/158/158 153/153/153 162/162/162
f 160/160/160 154/154/154 163/163/163
f 163/163/163 154/154/154 164/164/164
f 165/165/165 156/156/156 160/160/160
f 161/161/161 156/156/156 165/165/165
f 166/166/166 157/157/157 161/161/161
f 162/162/162 157/157/157 166/166/166
f 167/167/167 158/158/158 162/162/162
f 158/158/158 167/167/167 168/168/168
f 169/169/169 160/160/160 163/163/163
f 165/165/165 160/160/160 169/169/169
f 170/170/170 161/161/161 165/165/165
f 166/166/166 161/161/161 170/170/170
f 171/171/171 162/162/162 166/166/166
f 167/167/167 162/162/162 171/171/171
f 169/169/169 163/163/163 172/172/172
f 172/172/172 163/163/163 173/173/173
f 174/174/174 165/165/165 169/169/169
f 170/170/170 165/165/165 174/174/174
f 175/175/175 166/166/166 170/170/170
f 171/171/171 166/166/166 175/175/175
f 176/176/176 167/167/167 171/171/171
f 167/167/167 176/176/176 177/177/177
f 178/178/178 169/169/169 172/172/172
f 174/174/174 169/169/169 178/178/178
f 179/179/179 170/170/170 174/174/174
f 175/175/175 170/170/170 179/179/179
f 176/176/176 171/171/171 180/180/180
f 180/180/180 171/171/171 175/175/175
f 178/178/178 172/172/172 181/181/181
f 181/181/181 172/172/172 182/182/182
f 183/183/183 178/178/178 181/181/181
f 184/184/184 174/174/174 178/178/178
f 184/184/184 178/178/178 183/183/183
f 179/179/179 174/174/174 184/184/184
f 185/185/185 184/184/184 183/183/183
f 186/186/186 184/184/184 185/185/185
f 186/186/186 179/179/179 184/184/184
f 187/187/187 186/186/186 185/185/185
f 188/188/188 175/175/175 179/179/179
f 188/188/188 179/179/179 186/186/186
f 180/180/180 175/175/175 188/188/188
f 189/189/189 186/186/186 187/187/187
f 189/189/189 188/188/188 186/186/186
f 190/190/190 189/189/189 187/187/187
f 191/191/191 180/180/180 188/188/188
f 191/191/191 188/188/188 189/189/189
f 192/192/192 189/189/189 190/190/190
f 192/192/192 191/191/191 189/189/189
f 193/193/193 192/192/192 190/190/190
f 194/194/194 180/180/180 191/191/191
f 194/194/194 176/176/176 180/180/180
f 176/176/176 194/194/194 195/195/195
f 196/196/196 194/194/194 191/191/191
f 196/196/196 191/191/191 192/192/192
f 194/194/194 196/196/196 197/197/197
f 198/198/198 192/192/192 193/193/193
f 198/198/198 196/196/196 192/192/192
f 196/196/196 198/198/198 199/199/199
f 200/200/200 198/198/198 193/193/193
f 198/198/198 200/200/200 201/201/201
