g Bamboo_11
v -2.255798 72.55527 -27.23463
v -10.29089 -1.049469 -14.94757
v 3.314758 -1.610565 -17.80045
v -15.78302 73.11331 -24.39832
v -17.86816 0.1263123 -3.338821
v -23.31738 74.25443 -12.85046
v -14.9787 1.228119 10.22594
v -20.44427 75.34988 0.637207
v -3.314697 1.610565 17.80046
v -8.846558 75.73007 8.168625
v 10.29083 1.049713 14.94783
v 4.681702 75.17227 5.332047
v 17.86816 -0.1262512 3.339081
v 12.21429 74.03116 -6.217056
v 14.97845 -1.228119 -10.22566
v 9.340881 72.9357 -19.70369
v 3.314758 -1.610565 -17.80045
v -2.255798 72.55527 -27.23463
v 5.065063 421.5518 -57.92546
v 9.593506 447.6092 -63.81564
v 11.81812 421.2736 -59.34147
v 2.840393 447.8877 -62.39966
v 1.304016 422.1357 -52.16353
v -0.9204712 448.4715 -56.63772
v 2.738403 422.6825 -45.43076
v 0.5137329 449.0184 -49.90493
v 8.527588 422.8723 -41.67129
v 6.302917 449.2082 -46.14549
v 15.28064 422.5938 -43.08731
v 13.05603 448.9297 -47.56123
v 19.04144 422.0102 -48.84923
v 16.81708 448.3462 -53.32343
v 17.6073 421.4634 -55.58203
v 15.38287 447.7993 -60.05595
v 11.81812 421.2736 -59.34147
v 9.593506 447.6092 -63.81564
v 19.7832 443.807 -51.79161
v 18.59094 443.448 -61.25418
v 17.89105 443.0853 -60.67456
v 20.62042 444.2221 -51.72621
v 14.82129 444.5771 -44.18935
v 19.06787 445.347 -62.05018
v 15.29803 445.048 -43.57198
v 5.911438 444.9444 -42.32135
v 21.20081 446.1603 -52.03801
v 5.741211 445.442 -41.56807
v -1.726685 444.6938 -47.2814
v 20.50537 448.1077 -52.58813
v 18.47577 447.3338 -62.11612
v 17.7569 447.6049 -61.677
v 19.64923 448.3265 -52.79407
v 15.18286 448.9335 -44.43391
v 14.68713 449.0966 -45.19203
v 15.60779 447.0282 -43.4695
v 5.626038 449.3277 -42.43001
v 5.777588 449.464 -43.32381
v -2.451477 445.1733 -46.88855
v -3.618958 443.9724 -56.16436
v 5.565491 447.4423 -41.36369
v -2.566833 449.0591 -47.75049
v -1.860535 449.2136 -48.28413
v -4.481201 444.3993 -56.41653
v 1.34314 443.2023 -63.76663
v -3.043762 447.1599 -46.95448
v -4.596375 448.2849 -57.27846
v -3.75293 448.4919 -57.16708
v 0.8411255 443.5733 -64.57076
v 10.25287 442.8352 -65.63463
v 10.39795 443.1795 -66.57468
v -5.176453 446.3468 -56.96666
v 0.7260132 447.4591 -65.43267
v 1.20929 447.7219 -64.76909
v 0.4163208 445.4789 -65.53543
v 10.45868 445.0649 -67.64099
v 10.2829 447.0652 -67.4366
v 10.11877 447.3546 -66.63708
v 10.11877 447.3546 -66.63708
v 18.47577 447.3338 -62.11612
v 17.7569 447.6049 -61.677
v 10.2829 447.0652 -67.4366
v 10.45868 445.0649 -67.64099
v 19.06787 445.347 -62.05018
v 18.59094 443.448 -61.25418
v 10.39795 443.1795 -66.57468
v 17.89105 443.0853 -60.67456
v 10.25287 442.8352 -65.63463
v 27.42719 342.9595 -33.99147
v 26.01483 342.5233 -44.62326
v 25.28943 342.0949 -44.05836
v 28.30652 343.4423 -33.83452
v 21.80115 343.8328 -25.37224
v 26.16681 345.1828 -45.09906
v 22.28363 344.3363 -24.58554
v 11.70074 344.2035 -23.24013
v 28.56677 346.129 -33.81067
v 11.45581 344.728 -22.29753
v 3.036682 343.9194 -28.86662
v 27.38342 348.8489 -34.06464
v 25.11389 347.9323 -44.75271
v 24.29755 348.098 -44.20737
v 26.40912 348.9771 -34.24823
v 21.41693 349.7288 -24.89928
v 20.84442 349.8198 -25.71248
v 22.26361 347.0792 -24.13901
v 10.68762 350.1359 -22.63777
v 10.84827 350.1497 -23.58937
v 2.166504 344.4234 -28.32997
v 0.8934937 343.1471 -38.94942
v 10.93738 347.4741 -21.73991
v 1.485413 349.8343 -28.61359
v 2.269104 349.8687 -29.16072
v -0.130188 343.6014 -39.14128
v 6.519714 342.274 -47.5689
v 1.218689 347.1556 -28.05104
v -0.7911377 349.0005 -39.32109
v 0.1504517 349.1412 -39.15105
v 5.902039 342.7077 -48.38412
v 16.62531 341.8107 -49.68484
v 16.73077 342.2187 -50.65226
v -1.18219 346.3104 -39.36464
v 5.186157 348.1212 -48.47932
v 5.719543 348.2985 -47.68408
v 5.127502 345.3604 -49.0321
v 16.45508 344.8643 -51.40575
v 15.91492 347.6308 -50.7263
v 15.72137 347.8166 -49.77675
v 8.759338 80.73117 -20.74274
v 19.435 217.9831 -40.31548
v -2.807129 80.35202 -28.254
v 29.83087 218.3238 -33.56442
v 11.62476 81.82382 -7.291367
v 32.40601 219.306 -21.47437
v 4.110718 82.9899 4.220596
v 25.65265 220.3542 -11.12761
v -9.381226 83.54617 7.049454
v 13.51703 220.809 -8.580704
v -20.94769 83.16702 -0.4617767
v 3.11908 220.4678 -15.33322
v -23.81311 82.0743 -13.91316
v 0.5548096 219.5311 -27.42609
v -16.29907 80.90829 -25.42512
v 7.308472 218.483 -37.77285
v -2.807129 80.35202 -28.254
v 19.435 217.9831 -40.31548
v 15.72137 347.8166 -49.77675
v 25.11389 347.9323 -44.75271
v 24.29755 348.098 -44.20737
v 15.91492 347.6308 -50.7263
v 16.45508 344.8643 -51.40575
v 26.16681 345.1828 -45.09906
v 26.01483 342.5233 -44.62326
v 16.73077 342.2187 -50.65226
v 25.28943 342.0949 -44.05836
v 16.62531 341.8107 -49.68484
v 29.83087 218.3238 -33.56442
v 19.78088 218.4455 -41.51347
v 19.435 217.9831 -40.31548
v 30.92511 218.8109 -34.27647
v 32.40601 219.306 -21.47437
v 20.76697 221.9597 -42.6472
v 33.68872 219.8866 -21.31674
v 25.65265 220.3542 -11.12761
v 32.42865 222.3422 -35.07414
v 26.44635 220.9874 -10.22417
v 13.51703 220.809 -8.580704
v 31.92578 225.9757 -35.23975
v 20.87573 225.6134 -42.41568
v 20.69037 226.308 -41.38704
v 30.98438 226.6457 -34.70222
v 34.66187 227.0404 -22.39229
v 33.53467 227.6181 -22.73088
v 35.31958 223.4645 -21.51272
v 27.4848 228.1336 -11.39119
v 26.84717 228.656 -12.48557
v 13.44678 221.5233 -7.498383
v 3.11908 220.4678 -15.33322
v 27.7417 224.6196 -9.905228
v 14.59528 228.6651 -8.688324
v 14.83984 229.151 -9.968109
v 2.302307 221.1579 -14.73563
v 0.5548096 219.5311 -27.42609
v 14.13861 225.1805 -7.052917
v 3.545288 228.3028 -15.86427
v 4.545959 228.8134 -16.65268
v -0.4584961 220.1052 -27.69595
v 7.308472 218.483 -37.77285
v 2.476929 224.7982 -14.62621
v 0.8078613 227.2587 -28.71526
v 1.99585 227.841 -28.62402
v 6.78656 219.0043 -38.78703
v 19.435 217.9831 -40.31548
v 19.78088 218.4455 -41.51347
v -0.4119263 223.6964 -28.18818
v 7.987244 226.1656 -39.71463
v 8.683105 226.8031 -38.86934
v 7.168518 222.5413 -39.79395
v 20.76697 221.9597 -42.6472
v 20.87573 225.6134 -42.41568
v 20.69037 226.308 -41.38704
v 10.84827 350.1497 -23.58937
v 5.911438 444.9444 -42.32135
v 14.82129 444.5771 -44.18935
v 20.84442 349.8198 -25.71248
v 19.7832 443.807 -51.79161
v 26.40912 348.9771 -34.24823
v 17.89105 443.0853 -60.67456
v 24.29755 348.098 -44.20737
v 10.25287 442.8352 -65.63463
v 15.72137 347.8166 -49.77675
v 1.34314 443.2023 -63.76663
v 5.719543 348.2985 -47.68408
v -3.618958 443.9724 -56.16436
v 0.1504517 349.1412 -39.15105
v -1.726685 444.6938 -47.2814
v 2.269104 349.8687 -29.16072
v 5.911438 444.9444 -42.32135
v 10.84827 350.1497 -23.58937
v 4.545959 228.8134 -16.65268
v 3.036682 343.9194 -28.86662
v 11.70074 344.2035 -23.24013
v 14.83984 229.151 -9.968109
v 21.80115 343.8328 -25.37224
v 26.84717 228.656 -12.48557
v 27.42719 342.9595 -33.99147
v 33.53467 227.6181 -22.73088
v 25.28943 342.0949 -44.05836
v 30.98438 226.6457 -34.70222
v 16.62531 341.8107 -49.68484
v 20.69037 226.308 -41.38704
v 6.519714 342.274 -47.5689
v 8.683105 226.8031 -38.86934
v 0.8934937 343.1471 -38.94942
v 1.99585 227.841 -28.62402
v 3.036682 343.9194 -28.86662
v 4.545959 228.8134 -16.65268
v -9.5849 83.11014 8.416245
v -9.381226 83.54617 7.049454
v 4.110718 82.9899 4.220596
v 4.891357 82.5134 5.381012
v 11.62476 81.82382 -7.291367
v 5.695435 79.20889 6.665268
v -9.532654 79.83676 9.858231
v -9.120544 76.31973 9.390747
v 12.9455 81.37082 -6.994949
v 8.759338 80.73117 -20.74274
v 5.389404 75.72141 6.348343
v -8.846558 75.73007 8.168625
v 4.681702 75.17227 5.332047
v 14.17633 77.89273 -6.32811
v 13.47028 74.46744 -6.032059
v 12.21429 74.03116 -6.217056
v 9.879211 80.08981 -21.40338
v -2.807129 80.35202 -28.254
v 10.9422 76.65939 -21.51038
v 10.38861 73.29221 -20.49826
v 9.340881 72.9357 -19.70369
v -2.53125 79.68289 -29.46263
v -16.29907 80.90829 -25.42512
v -2.112549 76.23129 -29.98814
v -2.050354 72.88425 -28.57622
v -2.255798 72.55527 -27.23463
v -17.00641 80.3887 -26.44551
v -23.81311 82.0743 -13.91316
v -17.34064 76.85916 -26.79519
v -16.56006 73.48257 -25.53384
v -15.78302 73.11331 -24.39832
v -25.06964 81.53079 -14.07549
v -20.94769 83.16702 -0.4617767
v -25.82159 78.17532 -13.80205
v -24.64105 74.73679 -13.15346
v -23.31738 74.25443 -12.85046
v -21.99512 82.70345 0.357254
v -9.381226 83.54617 7.049454
v -9.5849 83.11014 8.416245
v -9.532654 79.83676 9.858231
v -22.5874 79.40866 1.380219
v -21.55951 75.91177 1.312759
v -20.44427 75.34988 0.637207
v -9.120544 76.31973 9.390747
v -8.846558 75.73007 8.168625
v 15.28064 422.5938 -43.08731
v 17.6073 421.4634 -55.58203
v 19.04144 422.0102 -48.84923
v 8.527588 422.8723 -41.67129
v 11.81812 421.2736 -59.34147
v 2.738403 422.6825 -45.43076
v 5.065063 421.5518 -57.92546
v 1.304016 422.1357 -52.16353
v 2.840393 447.8877 -62.39966
v 10.11877 447.3546 -66.63708
v 9.593506 447.6092 -63.81564
v 1.20929 447.7219 -64.76909
v -3.75293 448.4919 -57.16708
v -0.9204712 448.4715 -56.63772
v -1.860535 449.2136 -48.28413
v 0.5137329 449.0184 -49.90493
v 5.777588 449.464 -43.32381
v 6.302917 449.2082 -46.14549
v 13.05603 448.9297 -47.56123
v 14.68713 449.0966 -45.19203
v 16.81708 448.3462 -53.32343
v 19.64923 448.3265 -52.79407
v 17.7569 447.6049 -61.677
v 15.38287 447.7993 -60.05595
v 17.7569 447.6049 -61.677
v 15.38287 447.7993 -60.05595
v 9.593506 447.6092 -63.81564
v 10.11877 447.3546 -66.63708
v 22.37164 345.5089 -52.09625
v 21.91357 346.2948 -44.00555
v 20.12219 346.8159 -44.24352
v 18.49182 347.1342 -45.12546
v 27.0896 344.4276 -51.30101
v 25.25977 341.3403 -64.04463
v 18.10602 346.6317 -54.2413
v 31.67761 340.3978 -62.23193
v 19.26898 343.4421 -66.29332
v 33.12598 333.0645 -71.76254
v 20.49744 336.1627 -75.89586
v 26.58917 334.0663 -73.55928
v 28.06055 316.5579 -91.17874
v 25.42511 346.9271 -49.93585
v 28.73114 347.4441 -46.39925
v 19.99066 347.8704 -44.03201
v 35.78992 343.411 -56.71452
v 18.66931 347.7805 -45.35078
v 17.90674 347.5218 -47.03769
v 23.26611 346.5305 -54.2818
v 39.72412 344.6426 -51.45351
v 32.1778 343.3813 -62.33798
v 48.25562 337.8036 -56.43161
v 40.57526 336.52 -67.50928
v 44.20874 336.591 -61.76089
v 59.96716 319.8535 -70.74686
vt 0.002199173 0.8100586
vt 0.006999969 0.7519531
vt 0.002199173 0.7519531
vt 0.006999969 0.8100586
vt 0.01370239 0.7519531
vt 0.01370239 0.8100586
vt 0.0184021 0.7519531
vt 0.0184021 0.8100586
vt 0.02520752 0.7519531
vt 0.02520752 0.8100586
vt 0.02990723 0.7519531
vt 0.02990723 0.8100586
vt 0.03659058 0.7519531
vt 0.03659058 0.8100586
vt 0.04141235 0.7519531
vt 0.04141235 0.8100586
vt 0.0480957 0.7519531
vt 0.0480957 0.8100586
vt 0.1152954 0.8071289
vt 0.1224976 0.7553711
vt 0.1224976 0.8071289
vt 0.1152954 0.7553711
vt 0.1082764 0.8071289
vt 0.1082764 0.7553711
vt 0.1010742 0.8071289
vt 0.1010742 0.7553711
vt 0.09387207 0.8071289
vt 0.09387207 0.7553711
vt 0.08666992 0.8071289
vt 0.08666992 0.7553711
vt 0.07958984 0.8071289
vt 0.07958984 0.7553711
vt 0.0723877 0.8071289
vt 0.0723877 0.7553711
vt 0.06518555 0.8071289
vt 0.06518555 0.7553711
vt 0.07562256 0.8115234
vt 0.06787109 0.8022461
vt 0.06787109 0.8115234
vt 0.07562256 0.8022461
vt 0.08331299 0.8115234
vt 0.06787109 0.7822266
vt 0.08331299 0.8022461
vt 0.09002686 0.8115234
vt 0.07562256 0.7822266
vt 0.09002686 0.8022461
vt 0.09777832 0.8115234
vt 0.07562256 0.7612305
vt 0.06787109 0.7612305
vt 0.06787109 0.7514648
vt 0.07562256 0.7514648
vt 0.08331299 0.7612305
vt 0.08331299 0.7514648
vt 0.08331299 0.7822266
vt 0.09002686 0.7612305
vt 0.09002686 0.7514648
vt 0.09777832 0.8022461
vt 0.1043701 0.8115234
vt 0.09002686 0.7822266
vt 0.09777832 0.7612305
vt 0.09777832 0.7514648
vt 0.1043701 0.8022461
vt 0.1121216 0.8115234
vt 0.09777832 0.7822266
vt 0.1043701 0.7612305
vt 0.1043701 0.7514648
vt 0.1121216 0.8022461
vt 0.119812 0.8115234
vt 0.119812 0.8022461
vt 0.1043701 0.7822266
vt 0.1121216 0.7612305
vt 0.1121216 0.7514648
vt 0.1121216 0.7822266
vt 0.119812 0.7822266
vt 0.119812 0.7612305
vt 0.119812 0.7514648
vt 0.119812 0.7514648
vt 0.06787109 0.7612305
vt 0.06787109 0.7514648
vt 0.119812 0.7612305
vt 0.119812 0.7822266
vt 0.06787109 0.7822266
vt 0.06787109 0.8022461
vt 0.119812 0.8022461
vt 0.06787109 0.8115234
vt 0.119812 0.8115234
vt 0.07641602 0.8110352
vt 0.06951904 0.7998047
vt 0.06951904 0.8110352
vt 0.07641602 0.7998047
vt 0.08361816 0.8110352
vt 0.06951904 0.7807617
vt 0.08361816 0.7998047
vt 0.090271 0.8110352
vt 0.07641602 0.7807617
vt 0.090271 0.7998047
vt 0.09747314 0.8110352
vt 0.07641602 0.7612305
vt 0.06951904 0.7612305
vt 0.06951904 0.7519531
vt 0.07641602 0.7519531
vt 0.08361816 0.7612305
vt 0.08361816 0.7519531
vt 0.08361816 0.7807617
vt 0.090271 0.7612305
vt 0.090271 0.7519531
vt 0.09747314 0.7998047
vt 0.104126 0.8110352
vt 0.090271 0.7807617
vt 0.09747314 0.7612305
vt 0.09747314 0.7519531
vt 0.104126 0.7998047
vt 0.1113281 0.8110352
vt 0.09747314 0.7807617
vt 0.104126 0.7612305
vt 0.104126 0.7519531
vt 0.1113281 0.7998047
vt 0.1182861 0.8110352
vt 0.1182861 0.7998047
vt 0.104126 0.7807617
vt 0.1113281 0.7612305
vt 0.1113281 0.7519531
vt 0.1113281 0.7807617
vt 0.1182861 0.7807617
vt 0.1182861 0.7612305
vt 0.1182861 0.7519531
vt 0.04098511 0.7514648
vt 0.04748535 0.8100586
vt 0.04748535 0.7514648
vt 0.04098511 0.8100586
vt 0.0362854 0.7514648
vt 0.0362854 0.8100586
vt 0.02980042 0.7514648
vt 0.02980042 0.8100586
vt 0.02520752 0.7514648
vt 0.02520752 0.8100586
vt 0.01860046 0.7514648
vt 0.01860046 0.8100586
vt 0.01399994 0.7514648
vt 0.01399994 0.8100586
vt 0.007400513 0.7514648
vt 0.007400513 0.8100586
vt 0.002799988 0.7514648
vt 0.002799988 0.8100586
vt 0.1182861 0.7519531
vt 0.06951904 0.7612305
vt 0.06951904 0.7519531
vt 0.1182861 0.7612305
vt 0.1182861 0.7807617
vt 0.06951904 0.7807617
vt 0.06951904 0.7998047
vt 0.1182861 0.7998047
vt 0.06951904 0.8110352
vt 0.1182861 0.8110352
vt 0.1141968 0.7529297
vt 0.1226196 0.762207
vt 0.1226196 0.7529297
vt 0.1141968 0.762207
vt 0.1077271 0.7529297
vt 0.1226196 0.78125
vt 0.1077271 0.762207
vt 0.1004028 0.7529297
vt 0.1141968 0.78125
vt 0.1004028 0.762207
vt 0.09362793 0.7529297
vt 0.1141968 0.8017578
vt 0.1226196 0.8017578
vt 0.1226196 0.8100586
vt 0.1141968 0.8100586
vt 0.1077271 0.8017578
vt 0.1077271 0.8100586
vt 0.1077271 0.78125
vt 0.1004028 0.8017578
vt 0.1004028 0.8100586
vt 0.09362793 0.762207
vt 0.08642578 0.7529297
vt 0.1004028 0.78125
vt 0.09362793 0.8017578
vt 0.09362793 0.8100586
vt 0.08642578 0.762207
vt 0.07958984 0.7529297
vt 0.09362793 0.78125
vt 0.08642578 0.8017578
vt 0.08642578 0.8100586
vt 0.07958984 0.762207
vt 0.07232666 0.7529297
vt 0.08642578 0.78125
vt 0.07958984 0.8017578
vt 0.07958984 0.8100586
vt 0.07232666 0.762207
vt 0.06512451 0.7529297
vt 0.06512451 0.762207
vt 0.07958984 0.78125
vt 0.07232666 0.8017578
vt 0.07232666 0.8100586
vt 0.07232666 0.78125
vt 0.06512451 0.78125
vt 0.06512451 0.8017578
vt 0.06512451 0.8100586
vt 0.004001617 0.7529297
vt 0.004001617 0.809082
vt 0.008399963 0.809082
vt 0.008399963 0.7529297
vt 0.01460266 0.809082
vt 0.01460266 0.7529297
vt 0.01899719 0.809082
vt 0.01899719 0.7529297
vt 0.02520752 0.809082
vt 0.02520752 0.7529297
vt 0.02949524 0.809082
vt 0.02949524 0.7529297
vt 0.03570557 0.809082
vt 0.03570557 0.7529297
vt 0.0401001 0.809082
vt 0.0401001 0.7529297
vt 0.04629517 0.809082
vt 0.04629517 0.7529297
vt 0.003400803 0.753418
vt 0.003400803 0.8085938
vt 0.009803772 0.8085938
vt 0.009803772 0.753418
vt 0.01429749 0.8085938
vt 0.01429749 0.753418
vt 0.02070618 0.8085938
vt 0.02070618 0.753418
vt 0.02520752 0.8085938
vt 0.02520752 0.753418
vt 0.03149414 0.8085938
vt 0.03149414 0.753418
vt 0.03601074 0.8085938
vt 0.03601074 0.753418
vt 0.04238892 0.8085938
vt 0.04238892 0.753418
vt 0.04690552 0.8085938
vt 0.04690552 0.753418
vt 0.06719971 0.7988281
vt 0.06719971 0.8071289
vt 0.07232666 0.8071289
vt 0.07232666 0.7988281
vt 0.07958984 0.8071289
vt 0.07232666 0.7822266
vt 0.06719971 0.7822266
vt 0.06719971 0.7641602
vt 0.07958984 0.7988281
vt 0.08587646 0.8071289
vt 0.07232666 0.7641602
vt 0.06567383 0.7553711
vt 0.07232666 0.7553711
vt 0.07958984 0.7822266
vt 0.07958984 0.7641602
vt 0.07958984 0.7553711
vt 0.08587646 0.7988281
vt 0.09307861 0.8071289
vt 0.08587646 0.7822266
vt 0.08587646 0.7641602
vt 0.08587646 0.7553711
vt 0.09307861 0.7988281
vt 0.0993042 0.8071289
vt 0.09307861 0.7822266
vt 0.09307861 0.7641602
vt 0.09307861 0.7553711
vt 0.0993042 0.7988281
vt 0.1066284 0.8071289
vt 0.0993042 0.7822266
vt 0.0993042 0.7641602
vt 0.0993042 0.7553711
vt 0.1066284 0.7988281
vt 0.112915 0.8071289
vt 0.1066284 0.7822266
vt 0.1066284 0.7641602
vt 0.1066284 0.7553711
vt 0.112915 0.7988281
vt 0.1203003 0.8071289
vt 0.1203003 0.7988281
vt 0.1203003 0.7822266
vt 0.112915 0.7822266
vt 0.112915 0.7641602
vt 0.112915 0.7553711
vt 0.1203003 0.7641602
vt 0.1220093 0.7553711
vt 0.1501465 0.7641602
vt 0.1741943 0.7744141
vt 0.1641846 0.7641602
vt 0.1400146 0.7744141
vt 0.1741943 0.7885742
vt 0.1400146 0.7885742
vt 0.1641846 0.7983398
vt 0.1501465 0.7983398
vt 0.1118774 0.7519531
vt 0.1195068 0.8110352
vt 0.1195068 0.7519531
vt 0.1118774 0.8110352
vt 0.1043091 0.8110352
vt 0.1043091 0.7519531
vt 0.09771729 0.8110352
vt 0.09771729 0.7519531
vt 0.09002686 0.8110352
vt 0.09002686 0.7519531
vt 0.08349609 0.7519531
vt 0.08349609 0.8110352
vt 0.07580566 0.7519531
vt 0.07580566 0.8110352
vt 0.06829834 0.8110352
vt 0.06829834 0.7519531
vt 0.06829834 0.8110352
vt 0.06829834 0.7519531
vt 0.1195068 0.7519531
vt 0.1195068 0.8110352
vt 0.166748 0.7836914
vt 0.1668701 0.784668
vt 0.1672363 0.784668
vt 0.1674805 0.784668
vt 0.1661377 0.7836914
vt 0.1662598 0.7822266
vt 0.1674805 0.7832031
vt 0.1652832 0.7822266
vt 0.1673584 0.7817383
vt 0.1650391 0.7807617
vt 0.1669922 0.7802734
vt 0.1661377 0.7807617
vt 0.1657715 0.777832
vt 0.1662598 0.7841797
vt 0.1657715 0.784668
vt 0.1672363 0.784668
vt 0.1645508 0.7832031
vt 0.1673584 0.784668
vt 0.1676025 0.784668
vt 0.166748 0.7832031
vt 0.1639404 0.7836914
vt 0.1651611 0.7822266
vt 0.1625977 0.7832031
vt 0.1638184 0.7817383
vt 0.1633301 0.7822266
vt 0.1606445 0.78125
vn 0.1572266 -0.1129761 -0.980957
vn -0.5541992 -0.1455078 -0.8193359
vn 0.206665 -0.1081543 -0.972168
vn -0.5771484 -0.1451416 -0.8037109
vn -0.9814453 -0.09375 -0.1682129
vn -0.9790039 -0.09503174 -0.1795654
vn -0.8115234 0.01577759 0.5844727
vn -0.8364258 0.009269714 0.5483398
vn -0.1571045 0.1157227 0.980957
vn -0.206665 0.1109009 0.972168
vn 0.5766602 0.1478271 0.8032227
vn 0.5551758 0.1481934 0.8183594
vn 0.9790039 0.09771729 0.1790771
vn 0.980957 0.09637451 0.1676025
vn 0.8359375 -0.006557465 -0.5488281
vn 0.8115234 -0.01300049 -0.5844727
vn 0.206665 -0.1081543 -0.972168
vn 0.1572266 -0.1129761 -0.980957
vn 0.5556641 0.1846924 0.8105469
vn -0.1519775 0.1530762 0.9765625
vn -0.2087402 0.1466064 0.9667969
vn 0.5727539 0.184082 0.7988281
vn 0.9814453 0.1097412 0.157959
vn 0.9755859 0.1141357 0.1867676
vn 0.8061523 -0.03231812 -0.5908203
vn 0.8413086 -0.02075195 -0.5405273
vn 0.1516113 -0.1530762 -0.9765625
vn 0.2089844 -0.1466064 -0.9667969
vn -0.5727539 -0.184082 -0.7988281
vn -0.5561523 -0.1845703 -0.8100586
vn -0.9755859 -0.1140747 -0.1864014
vn -0.9814453 -0.1097412 -0.1580811
vn -0.8413086 0.02069092 0.5400391
vn -0.8061523 0.03222656 0.5908203
vn -0.2087402 0.1466064 0.9667969
vn -0.1519775 0.1530762 0.9765625
vn 0.4277344 -0.8886719 0.1656494
vn 0.7143555 -0.5537109 -0.4282227
vn 0.3430176 -0.9248047 -0.1643066
vn 0.8754883 -0.4296875 0.2214355
vn 0.2437744 -0.8525391 0.4621582
vn 0.8232422 -0.09716797 -0.5595703
vn 0.5097656 -0.3271484 0.7954102
vn -0.1014404 -0.840332 0.5322266
vn 0.9824219 0.0625 0.1766357
vn -0.1645508 -0.3122559 0.9355469
vn -0.387207 -0.859375 0.3342285
vn 0.8408203 0.5341797 0.08862305
vn 0.7211914 0.4147949 -0.5551758
vn 0.09844971 0.9853516 -0.1378174
vn 0.1126709 0.9912109 -0.0692749
vn 0.4785156 0.6240234 0.6176758
vn 0.074646 0.9970703 -0.01114655
vn 0.5644531 0.1846924 0.8041992
vn -0.1480713 0.6401367 0.7539063
vn 0.006103516 1 0.003410339
vn -0.7314453 -0.3930664 0.5571289
vn -0.4445801 -0.8959961 0.003147125
vn -0.1791992 0.1992188 0.9633789
vn -0.7055664 0.5722656 0.4177246
vn -0.05279541 0.9980469 -0.0345459
vn -0.8515625 -0.515625 -0.09466553
vn -0.2600098 -0.9282227 -0.2658691
vn -0.8232422 0.09710693 0.5595703
vn -0.8632813 0.4519043 -0.223999
vn -0.06781006 0.9921875 -0.1030273
vn -0.484375 -0.6079102 -0.6289063
vn 0.05892944 -0.9404297 -0.3354492
vn 0.1491699 -0.6240234 -0.7670898
vn -0.9824219 -0.06262207 -0.1766357
vn -0.5024414 0.3522949 -0.7895508
vn -0.02952576 0.9863281 -0.1619873
vn -0.5644531 -0.1846924 -0.8041992
vn 0.1791992 -0.1992188 -0.9633789
vn 0.1612549 0.3371582 -0.9277344
vn 0.03952026 0.9833984 -0.1763916
vn 0.03952026 0.9833984 -0.1763916
vn 0.7211914 0.4147949 -0.5551758
vn 0.09844971 0.9853516 -0.1378174
vn 0.1612549 0.3371582 -0.9277344
vn 0.1791992 -0.1992188 -0.9633789
vn 0.8232422 -0.09716797 -0.5595703
vn 0.7143555 -0.5537109 -0.4282227
vn 0.1491699 -0.6240234 -0.7670898
vn 0.3430176 -0.9248047 -0.1643066
vn 0.05892944 -0.9404297 -0.3354492
vn 0.4462891 -0.8813477 0.1552734
vn 0.7924805 -0.3339844 -0.5097656
vn 0.3811035 -0.9042969 -0.1932373
vn 0.9404297 -0.2854004 0.1849365
vn 0.2369385 -0.8735352 0.425293
vn 0.8149414 0.109375 -0.5693359
vn 0.5458984 -0.3076172 0.7792969
vn -0.08483887 -0.8793945 0.46875
vn 0.9726563 0.1616211 0.1676025
vn -0.1452637 -0.3830566 0.9121094
vn -0.3381348 -0.894043 0.2939453
vn 0.8261719 0.5512695 0.1176147
vn 0.6889648 0.5048828 -0.5200195
vn 0.1100464 0.9833984 -0.1453857
vn 0.140625 0.9882813 -0.05899048
vn 0.4785156 0.5439453 0.6889648
vn 0.09381104 0.9951172 0.02284241
vn 0.565918 0.1329346 0.8134766
vn -0.1887207 0.4816895 0.855957
vn 0.003807068 0.9995117 0.02839661
vn -0.7109375 -0.4626465 0.5297852
vn -0.411377 -0.9116211 -0.005283356
vn -0.1826172 0.03796387 0.9824219
vn -0.7744141 0.3999023 0.4904785
vn -0.07513428 0.9970703 -0.02160645
vn -0.8525391 -0.5063477 -0.1274414
vn -0.2585449 -0.9228516 -0.2858887
vn -0.8193359 -0.06549072 0.5693359
vn -0.9174805 0.3515625 -0.1853027
vn -0.1083374 0.9882813 -0.1073608
vn -0.4951172 -0.4929199 -0.715332
vn 0.07067871 -0.9223633 -0.3796387
vn 0.19104 -0.4223633 -0.8862305
vn -0.9780273 -0.1171265 -0.1723633
vn -0.5317383 0.3666992 -0.7631836
vn -0.05130005 0.9814453 -0.184082
vn -0.5664063 -0.08746338 -0.8193359
vn 0.1827393 0.006793976 -0.9829102
vn 0.1408691 0.4309082 -0.8911133
vn 0.04211426 0.980957 -0.1901855
vn 0.8076172 -0.1761475 -0.5629883
vn 0.2131348 -0.1194458 -0.9697266
vn 0.149292 -0.1102295 -0.9824219
vn 0.8251953 -0.1763916 -0.5366211
vn 0.9711914 -0.1259766 0.2016602
vn 0.9746094 -0.1282959 0.1838379
vn 0.5395508 0.00945282 0.8417969
vn 0.5888672 -0.00201416 0.8081055
vn -0.2126465 0.1455078 0.9663086
vn -0.1481934 0.1362305 0.9794922
vn -0.8222656 0.2017822 0.5317383
vn -0.8046875 0.2015381 0.5581055
vn -0.9707031 0.1539307 -0.1850586
vn -0.9672852 0.1513672 -0.2038574
vn -0.5864258 0.02801514 -0.8095703
vn -0.5380859 0.01672363 -0.8427734
vn 0.149292 -0.1102295 -0.9824219
vn 0.2131348 -0.1194458 -0.9697266
vn 0.04211426 0.980957 -0.1901855
vn 0.6889648 0.5048828 -0.5200195
vn 0.1100464 0.9833984 -0.1453857
vn 0.1408691 0.4309082 -0.8911133
vn 0.1827393 0.006793976 -0.9829102
vn 0.8149414 0.109375 -0.5693359
vn 0.7924805 -0.3339844 -0.5097656
vn 0.19104 -0.4223633 -0.8862305
vn 0.3811035 -0.9042969 -0.1932373
vn 0.07067871 -0.9223633 -0.3796387
vn 0.3188477 -0.9350586 -0.1561279
vn 0.1234131 -0.4824219 -0.8671875
vn 0.04855347 -0.9350586 -0.3515625
vn 0.6943359 -0.5541992 -0.4592285
vn 0.3852539 -0.909668 0.1560059
vn 0.2006836 -0.1524658 -0.9677734
vn 0.8305664 -0.5166016 0.2086182
vn 0.2176514 -0.8725586 0.4372559
vn 0.8276367 -0.1802979 -0.5317383
vn 0.4719238 -0.3933105 0.7890625
vn -0.1187744 -0.8364258 0.5351563
vn 0.7822266 0.2526855 -0.5693359
vn 0.1875 0.2227783 -0.956543
vn 0.1086426 0.8344727 -0.5400391
vn 0.4025879 0.8481445 -0.3442383
vn 0.9228516 0.3664551 0.118103
vn 0.4621582 0.8867188 0.0002099276
vn 0.9750977 -0.09521484 0.199585
vn 0.5317383 0.4921875 0.6894531
vn 0.2685547 0.921875 0.279541
vn -0.2155762 -0.243042 0.9458008
vn -0.4306641 -0.8310547 0.3515625
vn 0.5732422 0.04882813 0.8178711
vn -0.1429443 0.5581055 0.8173828
vn -0.05755615 0.9370117 0.3447266
vn -0.8198242 -0.1575928 0.5507813
vn -0.503418 -0.8642578 -0.01184082
vn -0.1583252 0.1773682 0.9711914
vn -0.7192383 0.53125 0.4475098
vn -0.3415527 0.925293 0.1657715
vn -0.9692383 -0.1938477 -0.1531982
vn -0.2924805 -0.90625 -0.3046875
vn -0.7993164 0.2183838 0.5600586
vn -0.8779297 0.4245605 -0.2210693
vn -0.4211426 0.8920898 -0.1627197
vn -0.5766602 -0.3310547 -0.7470703
vn 0.04855347 -0.9350586 -0.3515625
vn 0.1234131 -0.4824219 -0.8671875
vn -0.9726563 0.1405029 -0.1856689
vn -0.5058594 0.2956543 -0.8105469
vn -0.2384033 0.8554688 -0.4594727
vn -0.5571289 -0.01748657 -0.8300781
vn 0.2006836 -0.1524658 -0.9677734
vn 0.1875 0.2227783 -0.956543
vn 0.1086426 0.8344727 -0.5400391
vn -0.1583252 0.1834717 0.9702148
vn -0.2009277 0.1798096 0.9628906
vn 0.5620117 0.192627 0.8041992
vn 0.5649414 0.1923828 0.8022461
vn 0.9829102 0.09747314 0.1553955
vn 0.9760742 0.1036377 0.1915283
vn 0.8071289 -0.0475769 -0.5883789
vn 0.840332 -0.03713989 -0.5410156
vn 0.1577148 -0.1536865 -0.9755859
vn 0.2039795 -0.1497803 -0.9672852
vn -0.5673828 -0.1629639 -0.8071289
vn -0.5629883 -0.163208 -0.8100586
vn -0.9780273 -0.07391357 -0.1953125
vn -0.9853516 -0.06719971 -0.1563721
vn -0.840332 0.06732178 0.5375977
vn -0.8056641 0.07818604 0.5869141
vn -0.2009277 0.1798096 0.9628906
vn -0.1583252 0.1834717 0.9702148
vn -0.8193359 0.04989624 0.5712891
vn -0.8295898 0.04815674 0.5561523
vn -0.1942139 0.1071777 0.9750977
vn -0.1687012 0.1084595 0.9794922
vn 0.5585938 0.116333 0.8212891
vn 0.574707 0.1157837 0.8100586
vn 0.9814453 0.06933594 0.1778564
vn 0.9819336 0.06915283 0.1760254
vn 0.8188477 -0.006076813 -0.5737305
vn 0.8291016 -0.004398346 -0.559082
vn 0.1690674 -0.06469727 -0.9833984
vn 0.1958008 -0.06341553 -0.9785156
vn -0.5751953 -0.07220459 -0.8149414
vn -0.5581055 -0.07275391 -0.8266602
vn -0.9833984 -0.02560425 -0.1807861
vn -0.9829102 -0.02566528 -0.1815186
vn -0.8295898 0.04815674 0.5561523
vn -0.8193359 0.04989624 0.5712891
vn -0.1657715 0.5473633 0.8203125
vn -0.05184937 0.9536133 0.2963867
vn 0.2178955 0.9501953 0.2236328
vn 0.4934082 0.5576172 0.6674805
vn 0.3601074 0.9326172 -0.01776123
vn 0.5668945 0.1501465 0.8100586
vn -0.182251 0.1248779 0.9750977
vn -0.1582031 -0.3330078 0.9296875
vn 0.8564453 0.5048828 0.1080933
vn 0.3186035 0.8999023 -0.2976074
vn 0.5239258 -0.3171387 0.7905273
vn -0.08166504 -0.9047852 0.4182129
vn 0.1741943 -0.9145508 0.3654785
vn 0.9804688 0.0914917 0.1741943
vn 0.9042969 -0.3720703 0.2089844
vn 0.3105469 -0.9394531 0.1453857
vn 0.7260742 0.4177246 -0.5463867
vn 0.09710693 0.8886719 -0.4484863
vn 0.824707 -0.01766968 -0.5654297
vn 0.7529297 -0.4650879 -0.4650879
vn 0.2502441 -0.9628906 -0.1021118
vn 0.1574707 0.3427734 -0.9262695
vn -0.1877441 0.9052734 -0.3808594
vn 0.1804199 -0.1133423 -0.9770508
vn 0.1676025 -0.5385742 -0.8256836
vn 0.03884888 -0.9716797 -0.2322998
vn -0.5214844 0.3269043 -0.7880859
vn -0.3603516 0.921875 -0.1417236
vn -0.565918 -0.1381836 -0.8125
vn -0.4953613 -0.550293 -0.671875
vn -0.2026367 -0.9624023 -0.1802979
vn -0.9003906 0.3811035 -0.2088623
vn -0.3063965 0.9414063 0.1409912
vn -0.980957 -0.07977295 -0.177124
vn -0.8608398 -0.4968262 -0.1094971
vn -0.3425293 -0.9389648 0.02366638
vn -0.7485352 0.4746094 0.4628906
vn -0.05184937 0.9536133 0.2963867
vn -0.1657715 0.5473633 0.8203125
vn -0.182251 0.1248779 0.9750977
vn -0.8242188 0.02909851 0.5654297
vn -0.7290039 -0.4082031 0.5498047
vn -0.2966309 -0.9155273 0.2717285
vn -0.1582031 -0.3330078 0.9296875
vn -0.08166504 -0.9047852 0.4182129
vn 0.02308655 0.9960938 -0.08581543
vn 0.02307129 0.9960938 -0.08581543
vn 0.02307129 0.9960938 -0.08581543
vn 0.02308655 0.9960938 -0.08581543
vn 0.02305603 0.9960938 -0.08581543
vn 0.02307129 0.9960938 -0.08581543
vn 0.02305603 0.9960938 -0.08581543
vn 0.02313232 0.9960938 -0.08581543
vn 0.0231781 0.9960938 -0.08563232
vn 0.03952026 0.9833984 -0.1763916
vn 0.02304077 0.9960938 -0.08563232
vn -0.02952576 0.9863281 -0.1619873
vn -0.06781006 0.9921875 -0.1030273
vn 0.02323914 0.9960938 -0.08581543
vn -0.05279541 0.9980469 -0.0345459
vn 0.02320862 0.9960938 -0.0859375
vn 0.006103516 1 0.003410339
vn 0.02311707 0.9960938 -0.08599854
vn 0.02297974 0.9960938 -0.0859375
vn 0.074646 0.9970703 -0.01114655
vn 0.02294922 0.9960938 -0.08587646
vn 0.1126709 0.9912109 -0.0692749
vn 0.09844971 0.9853516 -0.1378174
vn 0.02296448 0.9960938 -0.08575439
vn 0.09844971 0.9853516 -0.1378174
vn 0.02296448 0.9960938 -0.08575439
vn 0.02304077 0.9960938 -0.08563232
vn 0.03952026 0.9833984 -0.1763916
vn 0.2915039 0.9379883 -0.1878662
vn 0.515625 0.8276367 0.2211914
vn 0.2277832 0.9731445 0.03366089
vn -0.144043 0.9897461 0.005306244
vn 0.4836426 0.8725586 -0.07098389
vn 0.3398438 0.8510742 -0.4006348
vn 0.06140137 0.9760742 -0.2092285
vn 0.4733887 0.8125 -0.3398438
vn 0.1945801 0.8808594 -0.4311523
vn 0.5898438 0.6069336 -0.5327148
vn 0.1331787 0.7192383 -0.6821289
vn 0.3691406 0.7192383 -0.5883789
vn 0.3466797 0.1860352 -0.9194336
vn 0.1221313 0.9726563 -0.1973877
vn 0.2119141 0.9770508 0.02168274
vn 0.0668335 0.9575195 0.28125
vn 0.3085938 0.8964844 -0.3178711
vn -0.07073975 0.9951172 -0.06634521
vn -0.3400879 0.8891602 -0.3056641
vn -0.0496521 0.9331055 -0.3554688
vn 0.3823242 0.9057617 -0.1833496
vn 0.2091064 0.8769531 -0.4331055
vn 0.6357422 0.7392578 -0.2218018
vn 0.3530273 0.6918945 -0.6293945
vn 0.4755859 0.7734375 -0.4194336
vn 0.7836914 0.2437744 -0.5717773
g Bamboo_11_0
f 3/3/3 2/2/2 1/1/1
f 2/2/2 4/4/4 1/1/1
f 2/2/2 5/5/5 4/4/4
f 5/5/5 6/6/6 4/4/4
f 5/5/5 7/7/7 6/6/6
f 7/7/7 8/8/8 6/6/6
f 7/7/7 9/9/9 8/8/8
f 9/9/9 10/10/10 8/8/8
f 9/9/9 11/11/11 10/10/10
f 11/11/11 12/12/12 10/10/10
f 11/11/11 13/13/13 12/12/12
f 13/13/13 14/14/14 12/12/12
f 13/13/13 15/15/15 14/14/14
f 15/15/15 16/16/16 14/14/14
f 15/15/15 17/17/17 16/16/16
f 17/17/17 18/18/18 16/16/16
f 21/21/21 20/20/20 19/19/19
f 20/20/20 22/22/22 19/19/19
f 19/19/19 22/22/22 23/23/23
f 22/22/22 24/24/24 23/23/23
f 23/23/23 24/24/24 25/25/25
f 24/24/24 26/26/26 25/25/25
f 25/25/25 26/26/26 27/27/27
f 26/26/26 28/28/28 27/27/27
f 27/27/27 28/28/28 29/29/29
f 28/28/28 30/30/30 29/29/29
f 29/29/29 30/30/30 31/31/31
f 30/30/30 32/32/32 31/31/31
f 31/31/31 32/32/32 33/33/33
f 32/32/32 34/34/34 33/33/33
f 33/33/33 34/34/34 35/35/35
f 34/34/34 36/36/36 35/35/35
f 39/39/39 38/38/38 37/37/37
f 38/38/38 40/40/40 37/37/37
f 37/37/37 40/40/40 41/41/41
f 38/38/38 42/42/42 40/40/40
f 40/40/40 43/43/43 41/41/41
f 41/41/41 43/43/43 44/44/44
f 42/42/42 45/45/45 40/40/40
f 40/40/40 45/45/45 43/43/43
f 43/43/43 46/46/46 44/44/44
f 44/44/44 46/46/46 47/47/47
f 45/45/45 42/42/42 48/48/48
f 42/42/42 49/49/49 48/48/48
f 49/49/49 50/50/50 48/48/48
f 50/50/50 51/51/51 48/48/48
f 48/48/48 51/51/51 52/52/52
f 48/48/48 52/52/52 45/45/45
f 51/51/51 53/53/53 52/52/52
f 45/45/45 54/54/54 43/43/43
f 52/52/52 54/54/54 45/45/45
f 43/43/43 54/54/54 46/46/46
f 52/52/52 53/53/53 55/55/55
f 52/52/52 55/55/55 54/54/54
f 53/53/53 56/56/56 55/55/55
f 46/46/46 57/57/57 47/47/47
f 47/47/47 57/57/57 58/58/58
f 54/54/54 59/59/59 46/46/46
f 55/55/55 59/59/59 54/54/54
f 46/46/46 59/59/59 57/57/57
f 55/55/55 56/56/56 60/60/60
f 55/55/55 60/60/60 59/59/59
f 56/56/56 61/61/61 60/60/60
f 57/57/57 62/62/62 58/58/58
f 58/58/58 62/62/62 63/63/63
f 59/59/59 64/64/64 57/57/57
f 60/60/60 64/64/64 59/59/59
f 57/57/57 64/64/64 62/62/62
f 60/60/60 61/61/61 65/65/65
f 60/60/60 65/65/65 64/64/64
f 61/61/61 66/66/66 65/65/65
f 62/62/62 67/67/67 63/63/63
f 63/63/63 67/67/67 68/68/68
f 67/67/67 69/69/69 68/68/68
f 64/64/64 70/70/70 62/62/62
f 65/65/65 70/70/70 64/64/64
f 62/62/62 70/70/70 67/67/67
f 65/65/65 66/66/66 71/71/71
f 65/65/65 71/71/71 70/70/70
f 66/66/66 72/72/72 71/71/71
f 67/67/67 73/73/73 69/69/69
f 70/70/70 73/73/73 67/67/67
f 71/71/71 73/73/73 70/70/70
f 73/73/73 74/74/74 69/69/69
f 74/74/74 73/73/73 75/75/75
f 73/73/73 71/71/71 75/75/75
f 71/71/71 72/72/72 75/75/75
f 72/72/72 76/76/76 75/75/75
f 79/79/79 78/78/78 77/77/77
f 78/78/78 80/80/80 77/77/77
f 80/80/80 78/78/78 81/81/81
f 78/78/78 82/82/82 81/81/81
f 82/82/82 83/83/83 81/81/81
f 83/83/83 84/84/84 81/81/81
f 83/83/83 85/85/85 84/84/84
f 85/85/85 86/86/86 84/84/84
f 89/89/89 88/88/88 87/87/87
f 88/88/88 90/90/90 87/87/87
f 87/87/87 90/90/90 91/91/91
f 88/88/88 92/92/92 90/90/90
f 90/90/90 93/93/93 91/91/91
f 91/91/91 93/93/93 94/94/94
f 92/92/92 95/95/95 90/90/90
f 90/90/90 95/95/95 93/93/93
f 93/93/93 96/96/96 94/94/94
f 94/94/94 96/96/96 97/97/97
f 95/95/95 92/92/92 98/98/98
f 92/92/92 99/99/99 98/98/98
f 99/99/99 100/100/100 98/98/98
f 100/100/100 101/101/101 98/98/98
f 98/98/98 101/101/101 102/102/102
f 98/98/98 102/102/102 95/95/95
f 101/101/101 103/103/103 102/102/102
f 95/95/95 104/104/104 93/93/93
f 102/102/102 104/104/104 95/95/95
f 93/93/93 104/104/104 96/96/96
f 102/102/102 103/103/103 105/105/105
f 102/102/102 105/105/105 104/104/104
f 103/103/103 106/106/106 105/105/105
f 96/96/96 107/107/107 97/97/97
f 97/97/97 107/107/107 108/108/108
f 104/104/104 109/109/109 96/96/96
f 105/105/105 109/109/109 104/104/104
f 96/96/96 109/109/109 107/107/107
f 105/105/105 106/106/106 110/110/110
f 105/105/105 110/110/110 109/109/109
f 106/106/106 111/111/111 110/110/110
f 107/107/107 112/112/112 108/108/108
f 108/108/108 112/112/112 113/113/113
f 109/109/109 114/114/114 107/107/107
f 110/110/110 114/114/114 109/109/109
f 107/107/107 114/114/114 112/112/112
f 110/110/110 111/111/111 115/115/115
f 110/110/110 115/115/115 114/114/114
f 111/111/111 116/116/116 115/115/115
f 112/112/112 117/117/117 113/113/113
f 113/113/113 117/117/117 118/118/118
f 117/117/117 119/119/119 118/118/118
f 114/114/114 120/120/120 112/112/112
f 115/115/115 120/120/120 114/114/114
f 112/112/112 120/120/120 117/117/117
f 115/115/115 116/116/116 121/121/121
f 115/115/115 121/121/121 120/120/120
f 116/116/116 122/122/122 121/121/121
f 117/117/117 123/123/123 119/119/119
f 120/120/120 123/123/123 117/117/117
f 121/121/121 123/123/123 120/120/120
f 123/123/123 124/124/124 119/119/119
f 124/124/124 123/123/123 125/125/125
f 123/123/123 121/121/121 125/125/125
f 121/121/121 122/122/122 125/125/125
f 122/122/122 126/126/126 125/125/125
f 129/129/129 128/128/128 127/127/127
f 128/128/128 130/130/130 127/127/127
f 127/127/127 130/130/130 131/131/131
f 130/130/130 132/132/132 131/131/131
f 131/131/131 132/132/132 133/133/133
f 132/132/132 134/134/134 133/133/133
f 133/133/133 134/134/134 135/135/135
f 134/134/134 136/136/136 135/135/135
f 135/135/135 136/136/136 137/137/137
f 136/136/136 138/138/138 137/137/137
f 137/137/137 138/138/138 139/139/139
f 138/138/138 140/140/140 139/139/139
f 139/139/139 140/140/140 141/141/141
f 140/140/140 142/142/142 141/141/141
f 141/141/141 142/142/142 143/143/143
f 142/142/142 144/144/144 143/143/143
f 147/147/147 146/146/146 145/145/145
f 146/146/146 148/148/148 145/145/145
f 148/148/148 146/146/146 149/149/149
f 146/146/146 150/150/150 149/149/149
f 150/150/150 151/151/151 149/149/149
f 151/151/151 152/152/152 149/149/149
f 151/151/151 153/153/153 152/152/152
f 153/153/153 154/154/154 152/152/152
f 157/157/157 156/156/156 155/155/155
f 156/156/156 158/158/158 155/155/155
f 155/155/155 158/158/158 159/159/159
f 156/156/156 160/160/160 158/158/158
f 158/158/158 161/161/161 159/159/159
f 159/159/159 161/161/161 162/162/162
f 160/160/160 163/163/163 158/158/158
f 158/158/158 163/163/163 161/161/161
f 161/161/161 164/164/164 162/162/162
f 162/162/162 164/164/164 165/165/165
f 163/163/163 160/160/160 166/166/166
f 160/160/160 167/167/167 166/166/166
f 167/167/167 168/168/168 166/166/166
f 168/168/168 169/169/169 166/166/166
f 166/166/166 169/169/169 170/170/170
f 166/166/166 170/170/170 163/163/163
f 169/169/169 171/171/171 170/170/170
f 163/163/163 172/172/172 161/161/161
f 170/170/170 172/172/172 163/163/163
f 161/161/161 172/172/172 164/164/164
f 170/170/170 171/171/171 173/173/173
f 170/170/170 173/173/173 172/172/172
f 171/171/171 174/174/174 173/173/173
f 164/164/164 175/175/175 165/165/165
f 165/165/165 175/175/175 176/176/176
f 172/172/172 177/177/177 164/164/164
f 173/173/173 177/177/177 172/172/172
f 164/164/164 177/177/177 175/175/175
f 173/173/173 174/174/174 178/178/178
f 173/173/173 178/178/178 177/177/177
f 174/174/174 179/179/179 178/178/178
f 175/175/175 180/180/180 176/176/176
f 176/176/176 180/180/180 181/181/181
f 177/177/177 182/182/182 175/175/175
f 178/178/178 182/182/182 177/177/177
f 175/175/175 182/182/182 180/180/180
f 178/178/178 179/179/179 183/183/183
f 178/178/178 183/183/183 182/182/182
f 179/179/179 184/184/184 183/183/183
f 180/180/180 185/185/185 181/181/181
f 181/181/181 185/185/185 186/186/186
f 182/182/182 187/187/187 180/180/180
f 183/183/183 187/187/187 182/182/182
f 180/180/180 187/187/187 185/185/185
f 183/183/183 184/184/184 188/188/188
f 183/183/183 188/188/188 187/187/187
f 184/184/184 189/189/189 188/188/188
f 185/185/185 190/190/190 186/186/186
f 186/186/186 190/190/190 191/191/191
f 190/190/190 192/192/192 191/191/191
f 187/187/187 193/193/193 185/185/185
f 188/188/188 193/193/193 187/187/187
f 185/185/185 193/193/193 190/190/190
f 188/188/188 189/189/189 194/194/194
f 188/188/188 194/194/194 193/193/193
f 189/189/189 195/195/195 194/194/194
f 190/190/190 196/196/196 192/192/192
f 193/193/193 196/196/196 190/190/190
f 194/194/194 196/196/196 193/193/193
f 196/196/196 197/197/197 192/192/192
f 197/197/197 196/196/196 198/198/198
f 196/196/196 194/194/194 198/198/198
f 194/194/194 195/195/195 198/198/198
f 195/195/195 199/199/199 198/198/198
f 202/202/202 201/201/201 200/200/200
f 203/203/203 202/202/202 200/200/200
f 204/204/204 202/202/202 203/203/203
f 205/205/205 204/204/204 203/203/203
f 206/206/206 204/204/204 205/205/205
f 207/207/207 206/206/206 205/205/205
f 208/208/208 206/206/206 207/207/207
f 209/209/209 208/208/208 207/207/207
f 210/210/210 208/208/208 209/209/209
f 211/211/211 210/210/210 209/209/209
f 212/212/212 210/210/210 211/211/211
f 213/213/213 212/212/212 211/211/211
f 214/214/214 212/212/212 213/213/213
f 215/215/215 214/214/214 213/213/213
f 216/216/216 214/214/214 215/215/215
f 217/217/217 216/216/216 215/215/215
f 220/220/220 219/219/219 218/218/218
f 221/221/221 220/220/220 218/218/218
f 222/222/222 220/220/220 221/221/221
f 223/223/223 222/222/222 221/221/221
f 224/224/224 222/222/222 223/223/223
f 225/225/225 224/224/224 223/223/223
f 226/226/226 224/224/224 225/225/225
f 227/227/227 226/226/226 225/225/225
f 228/228/228 226/226/226 227/227/227
f 229/229/229 228/228/228 227/227/227
f 230/230/230 228/228/228 229/229/229
f 231/231/231 230/230/230 229/229/229
f 232/232/232 230/230/230 231/231/231
f 233/233/233 232/232/232 231/231/231
f 234/234/234 232/232/232 233/233/233
f 235/235/235 234/234/234 233/233/233
f 238/238/238 237/237/237 236/236/236
f 239/239/239 238/238/238 236/236/236
f 240/240/240 238/238/238 239/239/239
f 241/241/241 239/239/239 236/236/236
f 242/242/242 241/241/241 236/236/236
f 241/241/241 242/242/242 243/243/243
f 244/244/244 240/240/240 239/239/239
f 245/245/245 240/240/240 244/244/244
f 246/246/246 241/241/241 243/243/243
f 246/246/246 243/243/243 247/247/247
f 248/248/248 246/246/246 247/247/247
f 239/239/239 241/241/241 249/249/249
f 249/249/249 241/241/241 246/246/246
f 244/244/244 239/239/239 249/249/249
f 250/250/250 246/246/246 248/248/248
f 250/250/250 249/249/249 246/246/246
f 251/251/251 250/250/250 248/248/248
f 252/252/252 245/245/245 244/244/244
f 253/253/253 245/245/245 252/252/252
f 244/244/244 249/249/249 254/254/254
f 254/254/254 249/249/249 250/250/250
f 252/252/252 244/244/244 254/254/254
f 255/255/255 250/250/250 251/251/251
f 255/255/255 254/254/254 250/250/250
f 256/256/256 255/255/255 251/251/251
f 257/257/257 253/253/253 252/252/252
f 258/258/258 253/253/253 257/257/257
f 252/252/252 254/254/254 259/259/259
f 259/259/259 254/254/254 255/255/255
f 257/257/257 252/252/252 259/259/259
f 260/260/260 255/255/255 256/256/256
f 260/260/260 259/259/259 255/255/255
f 261/261/261 260/260/260 256/256/256
f 262/262/262 258/258/258 257/257/257
f 263/263/263 258/258/258 262/262/262
f 257/257/257 259/259/259 264/264/264
f 264/264/264 259/259/259 260/260/260
f 262/262/262 257/257/257 264/264/264
f 265/265/265 260/260/260 261/261/261
f 265/265/265 264/264/264 260/260/260
f 266/266/266 265/265/265 261/261/261
f 267/267/267 263/263/263 262/262/262
f 268/268/268 263/263/263 267/267/267
f 262/262/262 264/264/264 269/269/269
f 269/269/269 264/264/264 265/265/265
f 267/267/267 262/262/262 269/269/269
f 270/270/270 265/265/265 266/266/266
f 270/270/270 269/269/269 265/265/265
f 271/271/271 270/270/270 266/266/266
f 272/272/272 268/268/268 267/267/267
f 273/273/273 268/268/268 272/272/272
f 274/274/274 273/273/273 272/272/272
f 275/275/275 274/274/274 272/272/272
f 267/267/267 269/269/269 276/276/276
f 272/272/272 267/267/267 276/276/276
f 276/276/276 269/269/269 270/270/270
f 276/276/276 275/275/275 272/272/272
f 277/277/277 270/270/270 271/271/271
f 277/277/277 276/276/276 270/270/270
f 275/275/275 276/276/276 277/277/277
f 278/278/278 277/277/277 271/271/271
f 279/279/279 275/275/275 277/277/277
f 279/279/279 277/277/277 278/278/278
f 280/280/280 279/279/279 278/278/278
f 283/283/283 282/282/282 281/281/281
f 282/282/282 284/284/284 281/281/281
f 284/284/284 282/282/282 285/285/285
f 286/286/286 284/284/284 285/285/285
f 285/285/285 287/287/287 286/286/286
f 287/287/287 288/288/288 286/286/286
f 291/291/291 290/290/290 289/289/289
f 290/290/290 292/292/292 289/289/289
f 292/292/292 293/293/293 289/289/289
f 293/293/293 294/294/294 289/289/289
f 293/293/293 295/295/295 294/294/294
f 295/295/295 296/296/296 294/294/294
f 295/295/295 297/297/297 296/296/296
f 297/297/297 298/298/298 296/296/296
f 298/298/298 297/297/297 299/299/299
f 297/297/297 300/300/300 299/299/299
f 299/299/299 300/300/300 301/301/301
f 300/300/300 302/302/302 301/301/301
f 302/302/302 303/303/303 301/301/301
f 303/303/303 304/304/304 301/301/301
f 307/307/307 306/306/306 305/305/305
f 308/308/308 307/307/307 305/305/305
f 311/311/311 310/310/310 309/309/309
f 311/311/311 309/309/309 312/312/312
f 310/310/310 313/313/313 309/309/309
f 309/309/309 313/313/313 314/314/314
f 309/309/309 315/315/315 312/312/312
f 309/309/309 314/314/314 315/315/315
f 313/313/313 316/316/316 314/314/314
f 314/314/314 317/317/317 315/315/315
f 316/316/316 318/318/318 314/314/314
f 317/317/317 314/314/314 319/319/319
f 318/318/318 320/320/320 314/314/314
f 314/314/314 320/320/320 319/319/319
f 318/318/318 321/321/321 320/320/320
f 320/320/320 321/321/321 319/319/319
f 324/324/324 323/323/323 322/322/322
f 325/325/325 322/322/322 323/323/323
f 326/326/326 324/324/324 322/322/322
f 326/326/326 322/322/322 327/327/327
f 322/322/322 328/328/328 327/327/327
f 322/322/322 325/325/325 328/328/328
f 329/329/329 325/325/325 323/323/323
f 325/325/325 330/330/330 328/328/328
f 329/329/329 331/331/331 325/325/325
f 332/332/332 330/330/330 325/325/325
f 331/331/331 333/333/333 325/325/325
f 333/333/333 332/332/332 325/325/325
f 331/331/331 334/334/334 333/333/333
f 333/333/333 334/334/334 332/332/332
