g Bamboo_01
v -4.92014 229.5417 4.615657
v -20.6923 344.3135 11.96392
v -15.2421 228.6825 11.20971
v -12.00339 345.0836 6.417048
v 7.058254 230.0509 7.265315
v -1.925816 345.5118 8.646358
v 13.67611 229.9115 17.60687
v 3.64767 345.3482 17.34845
v 11.05716 229.2055 29.5819
v 1.443264 344.7539 27.42761
v 0.7352557 228.3463 36.17614
v -7.245518 344.0778 32.96875
v -11.24314 227.8371 33.52636
v -17.32291 343.6496 30.73962
v -17.86118 227.9765 23.18499
v -22.89664 343.7192 22.04315
v -15.2421 228.6825 11.20971
v -20.6923 344.3135 11.96392
v 11.23843 75.05456 5.968989
v 14.18893 75.84988 -7.521794
v 17.86758 1.096394 -3.160161
v 14.89993 0.2964669 10.40869
v -0.3901105 74.08657 13.39782
v 3.204128 -0.6772574 17.88061
v -13.88675 73.48415 10.41473
v -10.3685 -1.25407 14.87799
v -21.34324 73.64114 -1.236516
v -17.86765 -1.096416 3.160151
v -18.39231 74.43636 -14.72834
v -14.89987 -0.2964286 -10.40876
v -6.763035 75.40444 -22.15772
v -3.204136 0.6772653 -17.88062
v 6.733181 76.00682 -19.17237
v 10.36874 1.254109 -14.87812
v 14.18893 75.84988 -7.521794
v 17.86758 1.096394 -3.160161
v 0.2326923 451.7347 20.13379
v -2.129185 451.6871 18.48419
v -0.6560406 452.0843 11.74908
v 2.176052 452.2586 11.24804
v -7.245518 344.0778 32.96875
v 2.160488 345.2609 27.93481
v 1.443264 344.7539 27.42761
v -7.150059 344.5289 33.87359
v -17.32291 343.6496 30.73962
v 2.279445 347.9617 28.05981
v -17.95237 344.0269 31.49218
v -22.89664 343.7192 22.04315
v -7.459446 347.1803 34.27478
v -23.92911 344.0956 22.16979
v -20.6923 344.3135 11.96392
v -8.023411 349.9104 33.23022
v 1.201259 350.6298 27.34716
v 0.386745 350.7129 26.78106
v -8.213657 350.0673 32.26135
v -18.72666 349.407 30.87182
v -18.18802 349.6214 30.05914
v -18.75962 346.6705 31.78106
v -24.64652 349.4946 21.63342
v -23.71103 349.6522 21.45452
v -21.56577 344.7327 11.36352
v -12.00339 345.0836 6.417048
v -25.01474 346.7268 22.03076
v -22.30503 350.1256 10.92822
v -21.52811 350.2406 11.47406
v -12.24973 345.5642 5.417232
v -1.925816 345.5118 8.646358
v -22.54197 347.3935 10.7246
v -13.07657 350.93 5.036433
v -12.92264 351.0409 5.98498
v -1.44962 346.0658 7.809443
v 3.64767 345.3482 17.34845
v 4.522609 345.8977 17.13433
v -12.79441 348.2785 4.50561
v -2.375645 351.4328 7.407465
v -2.949681 351.4864 8.192622
v -1.495579 348.7879 7.007319
v 4.750392 348.6277 16.76202
v 3.541896 351.2607 16.64587
v 2.568447 351.3011 16.80432
v -7.670018 446.4774 25.24847
v 0.720119 447.5596 20.83013
v -0.01102111 447.1151 20.35583
v -7.49503 446.8758 26.0783
v -16.55826 446.0998 23.2824
v 1.35696 449.5559 21.10626
v -17.02872 446.4705 23.96929
v -21.46891 446.2029 15.609
v -7.275853 448.8373 26.62121
v -22.29599 446.5812 15.73864
v -19.52549 446.7267 6.723261
v -7.285679 450.8473 25.88769
v 0.9298358 451.5313 20.63934
v 0.2326923 451.7347 20.13379
v -7.426243 451.0972 25.02667
v -16.81913 450.4422 23.7788
v -16.31455 450.7195 23.06072
v -17.29404 448.4114 24.40496
v -22.08658 450.553 15.54803
v -21.22507 450.8225 15.38726
v -20.21146 447.1432 6.207514
v -11.86655 447.3645 1.830379
v -22.82883 448.5278 15.75598
v -20.00199 451.1147 6.01684
v -19.28171 451.3464 6.50146
v -11.99625 447.8268 0.9592239
v -2.978489 447.7422 3.796687
v -20.63846 449.1182 5.740473
v -11.78659 451.7986 0.76855
v -11.62278 451.9843 1.608638
v -2.46262 448.2321 3.068293
v 1.932399 447.6389 11.46997
v 2.804653 448.1216 11.29901
v -12.00595 449.8371 0.2257033
v -2.252903 452.204 2.87762
v -2.734532 452.3619 3.574641
v -1.987584 450.2627 2.441829
v 3.54739 450.1464 11.09069
v 3.014431 452.0929 11.10839
v 2.176052 452.2586 11.24804
v 14.79129 229.3804 17.38488
v 13.67611 229.9115 17.60687
v 7.058254 230.0509 7.265315
v 7.685939 229.5503 6.285395
v -4.92014 229.5417 4.615657
v 7.982875 225.9822 5.289729
v 15.48214 225.8042 16.99939
v 14.58206 222.1615 16.27398
v -5.171177 228.983 3.439326
v -15.2421 228.6825 11.20971
v 7.415065 222.3344 5.084407
v 13.41677 221.5235 16.33972
v 6.733058 221.6641 5.895686
v -5.585301 225.3853 2.281856
v -5.550877 221.7609 2.209468
v -5.36411 221.1499 3.219722
v -16.25144 228.0609 10.51782
v -17.86118 227.9765 23.18499
v -17.2789 224.4119 9.75207
v -16.72568 220.8305 9.348262
v -15.78855 220.2371 9.867305
v -19.06302 227.3028 23.37274
v -11.24314 227.8371 33.52636
v -20.24607 223.6121 23.31866
v -19.56101 220.0664 22.31274
v -18.43412 219.5238 21.9635
v -11.95884 227.1535 34.474
v 0.7352557 228.3463 36.17614
v -12.74851 223.4543 35.03424
v -12.39609 219.9156 33.50872
v -11.74967 219.4287 32.41687
v 0.8991961 227.7209 37.31689
v 11.05716 229.2055 29.5819
v 0.8201556 224.0514 38.03881
v 0.5702777 220.4893 36.38079
v 0.3474383 219.943 35.09283
v 11.97989 228.6223 30.23974
v 13.67611 229.9115 17.60687
v 14.79129 229.3804 17.38488
v 15.48214 225.8042 16.99939
v 12.51504 225.0043 30.56579
v 11.74655 221.397 29.23852
v 10.77182 220.8107 28.43347
v 14.58206 222.1615 16.27398
v 13.41677 221.5235 16.33972
v 0.9298358 451.5313 20.63934
v 0.2326923 451.7347 20.13379
v 2.176052 452.2586 11.24804
v 3.014431 452.0929 11.10839
v 3.54739 450.1464 11.09069
v 1.35696 449.5559 21.10626
v 0.720119 447.5596 20.83013
v 2.804653 448.1216 11.29901
v -0.01102111 447.1151 20.35583
v 1.932399 447.6389 11.46997
v 10.89688 82.91893 5.497798
v 13.41677 221.5235 16.33972
v 13.83969 83.7123 -7.958013
v 10.77182 220.8107 28.43347
v -0.7012677 81.95348 12.90698
v 0.3474383 219.943 35.09283
v -14.1605 81.38125 9.929561
v -11.74967 219.4287 32.41687
v -21.59684 81.53777 -1.690251
v -18.43412 219.5238 21.9635
v -18.6539 82.33114 -15.14606
v -15.78855 220.2371 9.867305
v -7.05576 83.29662 -22.5553
v -5.36411 221.1499 3.219722
v 6.403469 83.86861 -19.57788
v 6.733058 221.6641 5.895686
v 13.83969 83.7123 -7.958013
v 13.41677 221.5235 16.33972
v 1.443264 344.7539 27.42761
v 4.522609 345.8977 17.13433
v 3.64767 345.3482 17.34845
v 2.160488 345.2609 27.93481
v 4.750392 348.6277 16.76202
v 2.279445 347.9617 28.05981
v 1.201259 350.6298 27.34716
v 3.541896 351.2607 16.64587
v 2.568447 351.3011 16.80432
v 0.386745 350.7129 26.78106
v -23.71103 349.6522 21.45452
v -21.46891 446.2029 15.609
v -16.55826 446.0998 23.2824
v -18.18802 349.6214 30.05914
v -7.670018 446.4774 25.24847
v -8.213657 350.0673 32.26135
v -0.01102111 447.1151 20.35583
v 0.386745 350.7129 26.78106
v 1.932399 447.6389 11.46997
v 2.568447 351.3011 16.80432
v -2.978489 447.7422 3.796687
v -2.949681 351.4864 8.192622
v -11.86655 447.3645 1.830379
v -12.92264 351.0409 5.98498
v -19.52549 446.7267 6.723261
v -21.52811 350.2406 11.47406
v -21.46891 446.2029 15.609
v -23.71103 349.6522 21.45452
v -22.8721 80.90017 -1.431096
v -21.59684 81.53777 -1.690251
v -14.1605 81.38125 9.929561
v -14.89328 80.73253 11.03637
v -0.7012677 81.95348 12.90698
v -15.33365 77.26943 12.0509
v -23.7269 77.44607 -1.064214
v -22.65342 74.03921 -1.036137
v -0.4476666 81.45714 14.22137
v 10.89688 82.91893 5.497798
v -0.1423688 77.91512 15.41143
v -14.6561 73.87106 11.46032
v -21.34324 73.64114 -1.236516
v -13.88675 73.48415 10.41473
v -0.1815533 74.48641 14.66253
v -0.3901105 74.08657 13.39782
v 11.99209 82.38216 6.281306
v 13.83969 83.7123 -7.958013
v 12.94815 79.00491 7.048701
v 12.29165 75.52474 6.694209
v 11.23843 75.05456 5.968989
v 15.14968 83.23327 -8.156011
v 6.403469 83.86861 -19.57788
v 16.26974 79.90035 -8.138494
v 15.45633 76.37786 -7.776433
v 14.18893 75.84988 -7.521794
v 7.172817 83.51149 -20.62293
v -7.05576 83.29662 -22.5553
v 7.876552 80.07674 -21.25354
v 7.459255 76.54604 -20.2732
v 6.733181 76.00682 -19.17237
v -7.270421 82.78737 -23.8183
v -18.6539 82.33114 -15.14606
v -7.314793 79.43105 -24.61414
v -7.015538 75.93065 -23.47516
v -6.763035 75.40444 -22.15772
v -19.71445 81.75155 -15.86835
v -21.59684 81.53777 -1.690251
v -22.8721 80.90017 -1.431096
v -23.7269 77.44607 -1.064214
v -20.40531 78.34145 -16.25141
v -19.4885 74.89236 -15.50684
v -18.39231 74.43636 -14.72834
v -22.65342 74.03921 -1.036137
v -21.34324 73.64114 -1.236516
v -14.31827 424.2023 22.87194
v -1.776524 424.9718 20.6535
v -7.581578 424.4889 24.36205
v -18.04026 424.2805 17.05597
v -0.3035626 425.3689 13.91882
v -16.56736 424.6776 10.32104
v -4.025609 425.4472 8.102595
v -10.76242 425.1606 6.612422
v 2.176052 452.2586 11.24804
v -0.6560406 452.0843 11.74908
v -4.378026 452.1627 5.9331
v -2.734532 452.3619 3.574641
v -11.62278 451.9843 1.608638
v -11.11484 451.8763 4.442866
v -19.28171 451.3464 6.50146
v -16.9199 451.3929 8.151301
v -21.22507 450.8225 15.38726
v -18.3928 450.9959 14.88635
v -14.67081 450.9176 20.70226
v -16.31455 450.7195 23.06072
v -7.9343 451.2041 22.1925
v -7.426243 451.0972 25.02667
v 0.2326923 451.7347 20.13379
v -2.129185 451.6871 18.48419
v -0.6560406 452.0843 11.74908
v -0.3035626 425.3689 13.91882
v -4.025609 425.4472 8.102595
v -4.378026 452.1627 5.9331
v -10.76242 425.1606 6.612422
v -11.11484 451.8763 4.442866
v -16.56736 424.6776 10.32104
v -16.9199 451.3929 8.151301
v -18.04026 424.2805 17.05597
v -18.3928 450.9959 14.88635
v -14.31827 424.2023 22.87194
v -14.67081 450.9176 20.70226
v -7.581578 424.4889 24.36205
v -7.9343 451.2041 22.1925
v -1.776524 424.9718 20.6535
v -2.129185 451.6871 18.48419
v -0.3035626 425.3689 13.91882
v -0.6560406 452.0843 11.74908
vt 0.04238892 0.753418
vt 0.04690552 0.8085938
vt 0.04690552 0.753418
vt 0.04238892 0.8085938
vt 0.03601074 0.753418
vt 0.03601074 0.8085938
vt 0.03149414 0.753418
vt 0.03149414 0.8085938
vt 0.02520752 0.753418
vt 0.02520752 0.8085938
vt 0.02070618 0.753418
vt 0.02070618 0.8085938
vt 0.01429749 0.753418
vt 0.01429749 0.8085938
vt 0.009803772 0.753418
vt 0.009803772 0.8085938
vt 0.003400803 0.753418
vt 0.003400803 0.8085938
vt 0.04141235 0.8100586
vt 0.0480957 0.8100586
vt 0.0480957 0.7519531
vt 0.04141235 0.7519531
vt 0.03659058 0.8100586
vt 0.03659058 0.7519531
vt 0.02990723 0.8100586
vt 0.02990723 0.7519531
vt 0.02520752 0.8100586
vt 0.02520752 0.7519531
vt 0.0184021 0.8100586
vt 0.0184021 0.7519531
vt 0.01370239 0.8100586
vt 0.01370239 0.7519531
vt 0.006999969 0.8100586
vt 0.006999969 0.7519531
vt 0.002199173 0.8100586
vt 0.002199173 0.7519531
vt 0.06829834 0.8110352
vt 0.06829834 0.7519531
vt 0.1195068 0.7519531
vt 0.1195068 0.8110352
vt 0.07641602 0.8110352
vt 0.06951904 0.7998047
vt 0.06951904 0.8110352
vt 0.07641602 0.7998047
vt 0.08361816 0.8110352
vt 0.06951904 0.7807617
vt 0.08361816 0.7998047
vt 0.090271 0.8110352
vt 0.07641602 0.7807617
vt 0.090271 0.7998047
vt 0.09747314 0.8110352
vt 0.07641602 0.7612305
vt 0.06951904 0.7612305
vt 0.06951904 0.7519531
vt 0.07641602 0.7519531
vt 0.08361816 0.7612305
vt 0.08361816 0.7519531
vt 0.08361816 0.7807617
vt 0.090271 0.7612305
vt 0.090271 0.7519531
vt 0.09747314 0.7998047
vt 0.104126 0.8110352
vt 0.090271 0.7807617
vt 0.09747314 0.7612305
vt 0.09747314 0.7519531
vt 0.104126 0.7998047
vt 0.1113281 0.8110352
vt 0.09747314 0.7807617
vt 0.104126 0.7612305
vt 0.104126 0.7519531
vt 0.1113281 0.7998047
vt 0.1182861 0.8110352
vt 0.1182861 0.7998047
vt 0.104126 0.7807617
vt 0.1113281 0.7612305
vt 0.1113281 0.7519531
vt 0.1113281 0.7807617
vt 0.1182861 0.7807617
vt 0.1182861 0.7612305
vt 0.1182861 0.7519531
vt 0.07562256 0.8115234
vt 0.06787109 0.8022461
vt 0.06787109 0.8115234
vt 0.07562256 0.8022461
vt 0.08331299 0.8115234
vt 0.06787109 0.7822266
vt 0.08331299 0.8022461
vt 0.09002686 0.8115234
vt 0.07562256 0.7822266
vt 0.09002686 0.8022461
vt 0.09777832 0.8115234
vt 0.07562256 0.7612305
vt 0.06787109 0.7612305
vt 0.06787109 0.7514648
vt 0.07562256 0.7514648
vt 0.08331299 0.7612305
vt 0.08331299 0.7514648
vt 0.08331299 0.7822266
vt 0.09002686 0.7612305
vt 0.09002686 0.7514648
vt 0.09777832 0.8022461
vt 0.1043701 0.8115234
vt 0.09002686 0.7822266
vt 0.09777832 0.7612305
vt 0.09777832 0.7514648
vt 0.1043701 0.8022461
vt 0.1121216 0.8115234
vt 0.09777832 0.7822266
vt 0.1043701 0.7612305
vt 0.1043701 0.7514648
vt 0.1121216 0.8022461
vt 0.119812 0.8115234
vt 0.119812 0.8022461
vt 0.1043701 0.7822266
vt 0.1121216 0.7612305
vt 0.1121216 0.7514648
vt 0.1121216 0.7822266
vt 0.119812 0.7822266
vt 0.119812 0.7612305
vt 0.119812 0.7514648
vt 0.06512451 0.8017578
vt 0.06512451 0.8100586
vt 0.07232666 0.8100586
vt 0.07232666 0.8017578
vt 0.07958984 0.8100586
vt 0.07232666 0.78125
vt 0.06512451 0.78125
vt 0.06512451 0.762207
vt 0.07958984 0.8017578
vt 0.08642578 0.8100586
vt 0.07232666 0.762207
vt 0.06512451 0.7529297
vt 0.07232666 0.7529297
vt 0.07958984 0.78125
vt 0.07958984 0.762207
vt 0.07958984 0.7529297
vt 0.08642578 0.8017578
vt 0.09362793 0.8100586
vt 0.08642578 0.78125
vt 0.08642578 0.762207
vt 0.08642578 0.7529297
vt 0.09362793 0.8017578
vt 0.1004028 0.8100586
vt 0.09362793 0.78125
vt 0.09362793 0.762207
vt 0.09362793 0.7529297
vt 0.1004028 0.8017578
vt 0.1077271 0.8100586
vt 0.1004028 0.78125
vt 0.1004028 0.762207
vt 0.1004028 0.7529297
vt 0.1077271 0.8017578
vt 0.1141968 0.8100586
vt 0.1077271 0.78125
vt 0.1077271 0.762207
vt 0.1077271 0.7529297
vt 0.1141968 0.8017578
vt 0.1226196 0.8100586
vt 0.1226196 0.8017578
vt 0.1226196 0.78125
vt 0.1141968 0.78125
vt 0.1141968 0.762207
vt 0.1141968 0.7529297
vt 0.1226196 0.762207
vt 0.1226196 0.7529297
vt 0.06787109 0.7612305
vt 0.06787109 0.7514648
vt 0.119812 0.7514648
vt 0.119812 0.7612305
vt 0.119812 0.7822266
vt 0.06787109 0.7822266
vt 0.06787109 0.8022461
vt 0.119812 0.8022461
vt 0.06787109 0.8115234
vt 0.119812 0.8115234
vt 0.04098511 0.7514648
vt 0.04748535 0.8100586
vt 0.04748535 0.7514648
vt 0.04098511 0.8100586
vt 0.0362854 0.7514648
vt 0.0362854 0.8100586
vt 0.02980042 0.7514648
vt 0.02980042 0.8100586
vt 0.02520752 0.7514648
vt 0.02520752 0.8100586
vt 0.01860046 0.7514648
vt 0.01860046 0.8100586
vt 0.01399994 0.7514648
vt 0.01399994 0.8100586
vt 0.007400513 0.7514648
vt 0.007400513 0.8100586
vt 0.002799988 0.7514648
vt 0.002799988 0.8100586
vt 0.06951904 0.8110352
vt 0.1182861 0.7998047
vt 0.1182861 0.8110352
vt 0.06951904 0.7998047
vt 0.1182861 0.7807617
vt 0.06951904 0.7807617
vt 0.06951904 0.7612305
vt 0.1182861 0.7612305
vt 0.1182861 0.7519531
vt 0.06951904 0.7519531
vt 0.004001617 0.7529297
vt 0.004001617 0.809082
vt 0.008399963 0.809082
vt 0.008399963 0.7529297
vt 0.01460266 0.809082
vt 0.01460266 0.7529297
vt 0.01899719 0.809082
vt 0.01899719 0.7529297
vt 0.02520752 0.809082
vt 0.02520752 0.7529297
vt 0.02949524 0.809082
vt 0.02949524 0.7529297
vt 0.03570557 0.809082
vt 0.03570557 0.7529297
vt 0.0401001 0.809082
vt 0.0401001 0.7529297
vt 0.04629517 0.809082
vt 0.04629517 0.7529297
vt 0.06719971 0.7988281
vt 0.06719971 0.8071289
vt 0.07232666 0.8071289
vt 0.07232666 0.7988281
vt 0.07958984 0.8071289
vt 0.07232666 0.7822266
vt 0.06719971 0.7822266
vt 0.06719971 0.7641602
vt 0.07958984 0.7988281
vt 0.08587646 0.8071289
vt 0.07958984 0.7822266
vt 0.07232666 0.7641602
vt 0.06567383 0.7553711
vt 0.07232666 0.7553711
vt 0.07958984 0.7641602
vt 0.07958984 0.7553711
vt 0.08587646 0.7988281
vt 0.09307861 0.8071289
vt 0.08587646 0.7822266
vt 0.08587646 0.7641602
vt 0.08587646 0.7553711
vt 0.09307861 0.7988281
vt 0.0993042 0.8071289
vt 0.09307861 0.7822266
vt 0.09307861 0.7641602
vt 0.09307861 0.7553711
vt 0.0993042 0.7988281
vt 0.1066284 0.8071289
vt 0.0993042 0.7822266
vt 0.0993042 0.7641602
vt 0.0993042 0.7553711
vt 0.1066284 0.7988281
vt 0.112915 0.8071289
vt 0.1066284 0.7822266
vt 0.1066284 0.7641602
vt 0.1066284 0.7553711
vt 0.112915 0.7988281
vt 0.1203003 0.8071289
vt 0.1203003 0.7988281
vt 0.1203003 0.7822266
vt 0.112915 0.7822266
vt 0.112915 0.7641602
vt 0.112915 0.7553711
vt 0.1203003 0.7641602
vt 0.1220093 0.7553711
vt 0.1501465 0.7641602
vt 0.1741943 0.7744141
vt 0.1641846 0.7641602
vt 0.1400146 0.7744141
vt 0.1741943 0.7885742
vt 0.1400146 0.7885742
vt 0.1641846 0.7983398
vt 0.1501465 0.7983398
vt 0.1195068 0.8110352
vt 0.1195068 0.7519531
vt 0.1118774 0.7519531
vt 0.1118774 0.8110352
vt 0.1043091 0.8110352
vt 0.1043091 0.7519531
vt 0.09771729 0.8110352
vt 0.09771729 0.7519531
vt 0.09002686 0.8110352
vt 0.09002686 0.7519531
vt 0.08349609 0.7519531
vt 0.08349609 0.8110352
vt 0.07580566 0.7519531
vt 0.07580566 0.8110352
vt 0.06829834 0.8110352
vt 0.06829834 0.7519531
vt 0.1224976 0.7553711
vt 0.1224976 0.8071289
vt 0.1152954 0.8071289
vt 0.1152954 0.7553711
vt 0.1082764 0.8071289
vt 0.1082764 0.7553711
vt 0.1010742 0.8071289
vt 0.1010742 0.7553711
vt 0.09387207 0.8071289
vt 0.09387207 0.7553711
vt 0.08666992 0.8071289
vt 0.08666992 0.7553711
vt 0.07958984 0.8071289
vt 0.07958984 0.7553711
vt 0.0723877 0.8071289
vt 0.0723877 0.7553711
vt 0.06518555 0.8071289
vt 0.06518555 0.7553711
vn -0.1737061 0.004692078 -0.9848633
vn -0.8129883 -0.03451538 -0.5810547
vn -0.8237305 -0.03512573 -0.565918
vn -0.1744385 0.004650116 -0.9848633
vn 0.5791016 0.05477905 -0.8134766
vn 0.5625 0.0536499 -0.8251953
vn 0.9833984 0.08508301 -0.159668
vn 0.9790039 0.08459473 -0.1864014
vn 0.8095703 0.07824707 0.581543
vn 0.8193359 0.07879639 0.5673828
vn 0.1722412 0.03915405 0.984375
vn 0.1704102 0.03903198 0.984375
vn -0.5644531 -0.009788513 0.8251953
vn -0.5800781 -0.01087189 0.8144531
vn -0.9814453 -0.04083252 0.1879883
vn -0.9858398 -0.04125977 0.1623535
vn -0.8237305 -0.03512573 -0.565918
vn -0.8129883 -0.03451538 -0.5810547
vn 0.828125 0.07354736 0.5561523
vn 0.9790039 0.03656006 -0.1994629
vn 0.987793 0.03988647 -0.1497803
vn 0.8027344 0.07446289 0.5917969
vn 0.1759033 0.06732178 0.9819336
vn 0.1644287 0.06689453 0.9838867
vn -0.5839844 0.02096558 0.8115234
vn -0.5620117 0.02293396 0.8266602
vn -0.987793 -0.03713989 0.1499023
vn -0.9794922 -0.03381348 0.1994629
vn -0.8027344 -0.07171631 -0.5917969
vn -0.828125 -0.07086182 -0.5561523
vn -0.1643066 -0.06414795 -0.984375
vn -0.1757813 -0.0645752 -0.9824219
vn 0.5620117 -0.02015686 -0.8266602
vn 0.5844727 -0.01818848 -0.8115234
vn 0.9790039 0.03656006 -0.1994629
vn 0.987793 0.03988647 -0.1497803
vn 0.07440186 0.9882813 0.1326904
vn -0.05300903 0.9975586 0.04714966
vn -0.05303955 0.9975586 0.04727173
vn 0.1013184 0.9946289 0.01837158
vn 0.1390381 -0.8955078 0.4226074
vn 0.7338867 -0.4802246 0.480957
vn 0.4389648 -0.8657227 0.2408447
vn 0.1912842 -0.5327148 0.824707
vn -0.184082 -0.9282227 0.3237305
vn 0.8007813 0.182373 0.5708008
vn -0.4204102 -0.6142578 0.6679688
vn -0.3393555 -0.9399414 0.03799438
vn 0.1625977 0.1216431 0.9790039
vn -0.7285156 -0.6723633 0.1297607
vn -0.265625 -0.9272461 -0.2634277
vn 0.06298828 0.7246094 0.6860352
vn 0.5 0.7670898 0.4023438
vn 0.03451538 0.9936523 0.1072388
vn -0.03533936 0.9853516 0.1660156
vn -0.4584961 0.6655273 0.5888672
vn -0.128418 0.9799805 0.151001
vn -0.5742188 0.001496315 0.8183594
vn -0.7661133 0.628418 0.1351318
vn -0.1658936 0.9838867 0.06866455
vn -0.5810547 -0.675293 -0.4545898
vn -0.01026154 -0.8989258 -0.4377441
vn -0.9790039 -0.1083984 0.173584
vn -0.6552734 0.6293945 -0.4179688
vn -0.1470947 0.9887695 -0.02241516
vn -0.08435059 -0.6240234 -0.7768555
vn 0.3071289 -0.8676758 -0.390625
vn -0.8071289 -0.1416016 -0.5727539
vn -0.1831055 0.6674805 -0.722168
vn -0.07800293 0.9936523 -0.08374023
vn 0.5068359 -0.5458984 -0.6674805
vn 0.5073242 -0.8544922 -0.1121216
vn 0.8608398 -0.4863281 -0.1514893
vn -0.1661377 -0.07910156 -0.9829102
vn 0.3574219 0.7280273 -0.5849609
vn 0.01405334 0.9980469 -0.05731201
vn 0.5727539 0.04150391 -0.8188477
vn 0.9736328 0.1494141 -0.1723633
vn 0.6298828 0.769043 -0.1097412
vn 0.0526123 0.9980469 0.0280304
vn 0.1186523 -0.9047852 0.4091797
vn 0.6625977 -0.6113281 0.4328613
vn 0.4008789 -0.8901367 0.2161865
vn 0.1583252 -0.6064453 0.7792969
vn -0.2227783 -0.9135742 0.3405762
vn 0.8203125 -0.01072693 0.5717773
vn -0.4521484 -0.6040039 0.6567383
vn -0.409668 -0.9111328 0.04489136
vn 0.1745605 0.02607727 0.984375
vn -0.7861328 -0.6044922 0.128418
vn -0.3269043 -0.8989258 -0.2910156
vn 0.1061401 0.6757813 0.7294922
vn 0.590332 0.6757813 0.4416504
vn 0.07440186 0.9882813 0.1326904
vn -0.02435303 0.980957 0.1932373
vn -0.4272461 0.6757813 0.6005859
vn -0.1357422 0.9765625 0.1672363
vn -0.5717773 0.04776001 0.8188477
vn -0.7231445 0.675293 0.1437988
vn -0.1973877 0.9775391 0.07141113
vn -0.637207 -0.6088867 -0.4724121
vn -0.03613281 -0.8847656 -0.4643555
vn -0.9833984 0.0413208 0.1757813
vn -0.6191406 0.675293 -0.4006348
vn -0.1746826 0.9838867 -0.04116821
vn -0.1167603 -0.6137695 -0.7807617
vn 0.2856445 -0.8764648 -0.3874512
vn -0.8203125 0.01067352 -0.5717773
vn -0.1495361 0.6757813 -0.722168
vn -0.07775879 0.9912109 -0.1057739
vn 0.4558105 -0.6162109 -0.6420898
vn 0.4641113 -0.8789063 -0.1114502
vn 0.7734375 -0.6152344 -0.1518555
vn -0.1745605 -0.02609253 -0.984375
vn 0.4169922 0.6762695 -0.6069336
vn 0.03781128 0.9960938 -0.081604
vn 0.5717773 -0.04782104 -0.8188477
vn 0.9833984 -0.04138184 -0.1757813
vn 0.7270508 0.6762695 -0.1170654
vn 0.1013184 0.9946289 0.01837158
vn 0.8085938 0.5766602 -0.1169434
vn 0.420166 0.9067383 -0.03909302
vn 0.2235107 0.9160156 -0.3334961
vn 0.4572754 0.6108398 -0.6464844
vn -0.1189575 0.9077148 -0.4020996
vn 0.5751953 0.1099854 -0.8105469
vn 0.9873047 -0.0006408691 -0.15979
vn 0.8203125 -0.5371094 -0.1966553
vn -0.1583252 0.6254883 -0.7641602
vn -0.4025879 0.8901367 -0.2128906
vn 0.4973145 -0.4519043 -0.7407227
vn 0.4736328 -0.8706055 -0.1339111
vn 0.3027344 -0.8486328 -0.4335938
vn -0.1870117 0.166748 -0.9682617
vn -0.1376953 -0.4316406 -0.8916016
vn -0.04507446 -0.8510742 -0.5234375
vn -0.6665039 0.6152344 -0.4213867
vn -0.4714355 0.8740234 0.1177979
vn -0.8295898 0.1281738 -0.543457
vn -0.6894531 -0.486084 -0.5371094
vn -0.3569336 -0.8735352 -0.331543
vn -0.7919922 0.5864258 0.1693115
vn -0.291748 0.8681641 0.4013672
vn -0.9799805 0.02394104 0.1971436
vn -0.8051758 -0.5854492 0.09344482
vn -0.4208984 -0.9067383 0.02232361
vn -0.4724121 0.5551758 0.6845703
vn 0.04089355 0.8754883 0.4814453
vn -0.5644531 -0.07537842 0.8222656
vn -0.4370117 -0.6674805 0.6025391
vn -0.2092285 -0.9291992 0.3044434
vn 0.130249 0.5390625 0.8320313
vn 0.3417969 0.8896484 0.3029785
vn 0.1711426 -0.1185913 0.9780273
vn 0.161377 -0.6835938 0.7119141
vn 0.118042 -0.9238281 0.3640137
vn 0.6694336 0.546875 0.5029297
vn 0.420166 0.9067383 -0.03909302
vn 0.8085938 0.5766602 -0.1169434
vn 0.9873047 -0.0006408691 -0.15979
vn 0.8105469 -0.09124756 0.5786133
vn 0.6669922 -0.6318359 0.3945313
vn 0.3901367 -0.9008789 0.1896973
vn 0.8203125 -0.5371094 -0.1966553
vn 0.4736328 -0.8706055 -0.1339111
vn 0.590332 0.6757813 0.4416504
vn 0.07440186 0.9882813 0.1326904
vn 0.1013184 0.9946289 0.01837158
vn 0.7270508 0.6762695 -0.1170654
vn 0.9833984 -0.04138184 -0.1757813
vn 0.8203125 -0.01072693 0.5717773
vn 0.6625977 -0.6113281 0.4328613
vn 0.7734375 -0.6152344 -0.1518555
vn 0.4008789 -0.8901367 0.2161865
vn 0.4641113 -0.8789063 -0.1114502
vn 0.8300781 -0.09075928 0.550293
vn 0.9892578 0.02832031 -0.1434326
vn 0.9775391 0.03952026 -0.2071533
vn 0.8115234 -0.09515381 0.5766602
vn 0.1715088 -0.1577148 0.9726563
vn 0.1903076 -0.1572266 0.9692383
vn -0.5917969 -0.1195068 0.7973633
vn -0.5419922 -0.1258545 0.8310547
vn -0.9892578 -0.002138138 0.1447754
vn -0.9780273 -0.01338959 0.2088623
vn -0.8105469 0.1208496 -0.5732422
vn -0.8286133 0.1165771 -0.5478516
vn -0.190918 0.1826172 -0.9643555
vn -0.1717529 0.1831055 -0.9677734
vn 0.5400391 0.1517334 -0.8276367
vn 0.5893555 0.1455078 -0.7944336
vn 0.9775391 0.03952026 -0.2071533
vn 0.9892578 0.02832031 -0.1434326
vn 0.4389648 -0.8657227 0.2408447
vn 0.8608398 -0.4863281 -0.1514893
vn 0.5073242 -0.8544922 -0.1121216
vn 0.7338867 -0.4802246 0.480957
vn 0.9736328 0.1494141 -0.1723633
vn 0.8007813 0.182373 0.5708008
vn 0.5 0.7670898 0.4023438
vn 0.6298828 0.769043 -0.1097412
vn 0.0526123 0.9980469 0.0280304
vn 0.03451538 0.9936523 0.1072388
vn -0.9794922 0.034729 0.1981201
vn -0.9873047 0.0322876 0.1547852
vn -0.5742188 0.0670166 0.815918
vn -0.5712891 0.06713867 0.8178711
vn 0.1888428 0.07019043 0.9794922
vn 0.1519775 0.07086182 0.9858398
vn 0.8349609 0.04000854 0.5488281
vn 0.8012695 0.0430603 0.5966797
vn 0.9799805 -0.004535675 -0.1984863
vn 0.9882813 -0.001960754 -0.1529541
vn 0.5708008 -0.03726196 -0.8203125
vn 0.5751953 -0.03710938 -0.8173828
vn -0.1529541 -0.04089355 -0.9873047
vn -0.1918945 -0.04016113 -0.9804688
vn -0.8022461 -0.01275635 -0.5966797
vn -0.8369141 -0.00958252 -0.546875
vn -0.9873047 0.0322876 0.1547852
vn -0.9794922 0.034729 0.1981201
vn -0.7978516 0.5834961 0.1506348
vn -0.4274902 0.8979492 0.1052856
vn -0.2636719 0.9047852 0.3347168
vn -0.4714355 0.6069336 0.6401367
vn 0.01216888 0.9238281 0.3828125
vn -0.5737305 0.01934814 0.8188477
vn -0.984375 -0.02391052 0.1746826
vn -0.7412109 -0.659668 0.1229248
vn 0.1008911 0.6396484 0.762207
vn 0.2609863 0.934082 0.2446289
vn 0.1712646 0.05557251 0.9838867
vn -0.4243164 -0.644043 0.6367188
vn -0.2878418 -0.9575195 0.0198822
vn -0.1472168 -0.9594727 0.239624
vn 0.1676025 -0.6191406 0.7670898
vn 0.1069946 -0.9511719 0.2888184
vn 0.6044922 0.6533203 0.4558105
vn 0.3232422 0.9462891 -0.01852417
vn 0.8168945 0.06439209 0.5732422
vn 0.6713867 -0.6000977 0.4348145
vn 0.3173828 -0.9370117 0.1464844
vn 0.7460938 0.6547852 -0.1195679
vn 0.1580811 0.953125 -0.2580566
vn 0.9838867 0.03930664 -0.1740723
vn 0.7871094 -0.5986328 -0.1486816
vn 0.3662109 -0.9257813 -0.09661865
vn 0.4243164 0.6430664 -0.637207
vn -0.12323 0.934082 -0.3354492
vn 0.5732422 -0.005626678 -0.8193359
vn 0.4645996 -0.6152344 -0.6367188
vn 0.2325439 -0.9233398 -0.3051758
vn -0.1738281 0.6083984 -0.7744141
vn -0.3696289 0.9101563 -0.1876221
vn -0.1721191 -0.04180908 -0.984375
vn -0.1011963 -0.6396484 -0.762207
vn -0.009857178 -0.9311523 -0.3647461
vn -0.6811523 0.5834961 -0.4418945
vn -0.4274902 0.8979492 0.1052856
vn -0.7978516 0.5834961 0.1506348
vn -0.984375 -0.02391052 0.1746826
vn -0.8178711 -0.04919434 -0.5732422
vn -0.5991211 -0.6577148 -0.4562988
vn -0.227417 -0.9453125 -0.2335205
vn -0.7412109 -0.659668 0.1229248
vn -0.2878418 -0.9575195 0.0198822
vn -0.05285645 0.9975586 0.04721069
vn -0.05285645 0.9975586 0.04724121
vn -0.05285645 0.9975586 0.04718018
vn -0.05285645 0.9975586 0.04724121
vn -0.05285645 0.9975586 0.04724121
vn -0.05285645 0.9975586 0.04724121
vn -0.05285645 0.9975586 0.04721069
vn -0.05285645 0.9975586 0.04718018
vn 0.1013184 0.9946289 0.01837158
vn -0.05303955 0.9975586 0.04727173
vn -0.052948 0.9975586 0.0473938
vn 0.03781128 0.9960938 -0.081604
vn -0.07775879 0.9912109 -0.1057739
vn -0.05282593 0.9975586 0.04745483
vn -0.1746826 0.9838867 -0.04116821
vn -0.05273438 0.9975586 0.04736328
vn -0.1973877 0.9775391 0.07141113
vn -0.05270386 0.9975586 0.04721069
vn -0.05276489 0.9975586 0.04708862
vn -0.1357422 0.9765625 0.1672363
vn -0.05288696 0.9975586 0.04705811
vn -0.02435303 0.980957 0.1932373
vn 0.07440186 0.9882813 0.1326904
vn -0.05300903 0.9975586 0.04714966
vn -0.9790039 0.00368309 0.2043457
vn -0.9892578 -0.001110077 0.1470947
vn -0.5810547 0.05825806 0.8120117
vn -0.5649414 0.05938721 0.8232422
vn 0.18396 0.08197021 0.9794922
vn 0.1546631 0.08197021 0.984375
vn 0.8349609 0.05551147 0.5478516
vn 0.7988281 0.05917358 0.5991211
vn 0.9790039 -0.00368309 -0.2043457
vn 0.9892578 0.001109123 -0.1470947
vn 0.5649414 -0.05938721 -0.8232422
vn 0.5810547 -0.05825806 -0.8120117
vn -0.1546631 -0.08197021 -0.984375
vn -0.18396 -0.08197021 -0.9794922
vn -0.7988281 -0.05917358 -0.5991211
vn -0.8349609 -0.05551147 -0.5478516
vn -0.9892578 -0.001110077 0.1470947
vn -0.9790039 0.00368309 0.2043457
g Bamboo_01_0
f 3/3/3 2/2/2 1/1/1
f 2/2/2 4/4/4 1/1/1
f 1/1/1 4/4/4 5/5/5
f 4/4/4 6/6/6 5/5/5
f 5/5/5 6/6/6 7/7/7
f 6/6/6 8/8/8 7/7/7
f 7/7/7 8/8/8 9/9/9
f 8/8/8 10/10/10 9/9/9
f 9/9/9 10/10/10 11/11/11
f 10/10/10 12/12/12 11/11/11
f 11/11/11 12/12/12 13/13/13
f 12/12/12 14/14/14 13/13/13
f 13/13/13 14/14/14 15/15/15
f 14/14/14 16/16/16 15/15/15
f 15/15/15 16/16/16 17/17/17
f 16/16/16 18/18/18 17/17/17
f 21/21/21 20/20/20 19/19/19
f 22/22/22 21/21/21 19/19/19
f 22/22/22 19/19/19 23/23/23
f 24/24/24 22/22/22 23/23/23
f 24/24/24 23/23/23 25/25/25
f 26/26/26 24/24/24 25/25/25
f 26/26/26 25/25/25 27/27/27
f 28/28/28 26/26/26 27/27/27
f 28/28/28 27/27/27 29/29/29
f 30/30/30 28/28/28 29/29/29
f 30/30/30 29/29/29 31/31/31
f 32/32/32 30/30/30 31/31/31
f 32/32/32 31/31/31 33/33/33
f 34/34/34 32/32/32 33/33/33
f 34/34/34 33/33/33 35/35/35
f 36/36/36 34/34/34 35/35/35
f 39/39/39 38/38/38 37/37/37
f 40/40/40 39/39/39 37/37/37
f 43/43/43 42/42/42 41/41/41
f 42/42/42 44/44/44 41/41/41
f 41/41/41 44/44/44 45/45/45
f 44/44/44 42/42/42 46/46/46
f 44/44/44 47/47/47 45/45/45
f 45/45/45 47/47/47 48/48/48
f 49/49/49 44/44/44 46/46/46
f 47/47/47 44/44/44 49/49/49
f 47/47/47 50/50/50 48/48/48
f 48/48/48 50/50/50 51/51/51
f 52/52/52 49/49/49 46/46/46
f 53/53/53 52/52/52 46/46/46
f 53/53/53 54/54/54 52/52/52
f 54/54/54 55/55/55 52/52/52
f 52/52/52 55/55/55 56/56/56
f 52/52/52 56/56/56 49/49/49
f 55/55/55 57/57/57 56/56/56
f 58/58/58 47/47/47 49/49/49
f 56/56/56 58/58/58 49/49/49
f 50/50/50 47/47/47 58/58/58
f 56/56/56 57/57/57 59/59/59
f 56/56/56 59/59/59 58/58/58
f 57/57/57 60/60/60 59/59/59
f 50/50/50 61/61/61 51/51/51
f 51/51/51 61/61/61 62/62/62
f 63/63/63 50/50/50 58/58/58
f 59/59/59 63/63/63 58/58/58
f 61/61/61 50/50/50 63/63/63
f 59/59/59 60/60/60 64/64/64
f 59/59/59 64/64/64 63/63/63
f 60/60/60 65/65/65 64/64/64
f 61/61/61 66/66/66 62/62/62
f 62/62/62 66/66/66 67/67/67
f 68/68/68 61/61/61 63/63/63
f 64/64/64 68/68/68 63/63/63
f 66/66/66 61/61/61 68/68/68
f 64/64/64 65/65/65 69/69/69
f 64/64/64 69/69/69 68/68/68
f 65/65/65 70/70/70 69/69/69
f 66/66/66 71/71/71 67/67/67
f 67/67/67 71/71/71 72/72/72
f 71/71/71 73/73/73 72/72/72
f 74/74/74 66/66/66 68/68/68
f 69/69/69 74/74/74 68/68/68
f 71/71/71 66/66/66 74/74/74
f 69/69/69 70/70/70 75/75/75
f 69/69/69 75/75/75 74/74/74
f 70/70/70 76/76/76 75/75/75
f 73/73/73 71/71/71 77/77/77
f 77/77/77 71/71/71 74/74/74
f 75/75/75 77/77/77 74/74/74
f 78/78/78 73/73/73 77/77/77
f 79/79/79 78/78/78 77/77/77
f 75/75/75 79/79/79 77/77/77
f 75/75/75 76/76/76 79/79/79
f 76/76/76 80/80/80 79/79/79
f 83/83/83 82/82/82 81/81/81
f 82/82/82 84/84/84 81/81/81
f 81/81/81 84/84/84 85/85/85
f 84/84/84 82/82/82 86/86/86
f 84/84/84 87/87/87 85/85/85
f 85/85/85 87/87/87 88/88/88
f 89/89/89 84/84/84 86/86/86
f 87/87/87 84/84/84 89/89/89
f 87/87/87 90/90/90 88/88/88
f 88/88/88 90/90/90 91/91/91
f 92/92/92 89/89/89 86/86/86
f 93/93/93 92/92/92 86/86/86
f 93/93/93 94/94/94 92/92/92
f 94/94/94 95/95/95 92/92/92
f 92/92/92 95/95/95 96/96/96
f 92/92/92 96/96/96 89/89/89
f 95/95/95 97/97/97 96/96/96
f 98/98/98 87/87/87 89/89/89
f 96/96/96 98/98/98 89/89/89
f 90/90/90 87/87/87 98/98/98
f 96/96/96 97/97/97 99/99/99
f 96/96/96 99/99/99 98/98/98
f 97/97/97 100/100/100 99/99/99
f 90/90/90 101/101/101 91/91/91
f 91/91/91 101/101/101 102/102/102
f 103/103/103 90/90/90 98/98/98
f 99/99/99 103/103/103 98/98/98
f 101/101/101 90/90/90 103/103/103
f 99/99/99 100/100/100 104/104/104
f 99/99/99 104/104/104 103/103/103
f 100/100/100 105/105/105 104/104/104
f 101/101/101 106/106/106 102/102/102
f 102/102/102 106/106/106 107/107/107
f 108/108/108 101/101/101 103/103/103
f 104/104/104 108/108/108 103/103/103
f 106/106/106 101/101/101 108/108/108
f 104/104/104 105/105/105 109/109/109
f 104/104/104 109/109/109 108/108/108
f 105/105/105 110/110/110 109/109/109
f 106/106/106 111/111/111 107/107/107
f 107/107/107 111/111/111 112/112/112
f 111/111/111 113/113/113 112/112/112
f 114/114/114 106/106/106 108/108/108
f 109/109/109 114/114/114 108/108/108
f 111/111/111 106/106/106 114/114/114
f 109/109/109 110/110/110 115/115/115
f 109/109/109 115/115/115 114/114/114
f 110/110/110 116/116/116 115/115/115
f 113/113/113 111/111/111 117/117/117
f 117/117/117 111/111/111 114/114/114
f 115/115/115 117/117/117 114/114/114
f 118/118/118 113/113/113 117/117/117
f 119/119/119 118/118/118 117/117/117
f 115/115/115 119/119/119 117/117/117
f 115/115/115 116/116/116 119/119/119
f 116/116/116 120/120/120 119/119/119
f 123/123/123 122/122/122 121/121/121
f 124/124/124 123/123/123 121/121/121
f 125/125/125 123/123/123 124/124/124
f 124/124/124 121/121/121 126/126/126
f 121/121/121 127/127/127 126/126/126
f 127/127/127 128/128/128 126/126/126
f 129/129/129 125/125/125 124/124/124
f 130/130/130 125/125/125 129/129/129
f 128/128/128 131/131/131 126/126/126
f 131/131/131 128/128/128 132/132/132
f 133/133/133 131/131/131 132/132/132
f 124/124/124 126/126/126 134/134/134
f 126/126/126 131/131/131 134/134/134
f 129/129/129 124/124/124 134/134/134
f 135/135/135 131/131/131 133/133/133
f 131/131/131 135/135/135 134/134/134
f 136/136/136 135/135/135 133/133/133
f 137/137/137 130/130/130 129/129/129
f 138/138/138 130/130/130 137/137/137
f 129/129/129 134/134/134 139/139/139
f 134/134/134 135/135/135 139/139/139
f 137/137/137 129/129/129 139/139/139
f 140/140/140 135/135/135 136/136/136
f 135/135/135 140/140/140 139/139/139
f 141/141/141 140/140/140 136/136/136
f 142/142/142 138/138/138 137/137/137
f 143/143/143 138/138/138 142/142/142
f 137/137/137 139/139/139 144/144/144
f 139/139/139 140/140/140 144/144/144
f 142/142/142 137/137/137 144/144/144
f 145/145/145 140/140/140 141/141/141
f 140/140/140 145/145/145 144/144/144
f 146/146/146 145/145/145 141/141/141
f 147/147/147 143/143/143 142/142/142
f 148/148/148 143/143/143 147/147/147
f 142/142/142 144/144/144 149/149/149
f 144/144/144 145/145/145 149/149/149
f 147/147/147 142/142/142 149/149/149
f 150/150/150 145/145/145 146/146/146
f 145/145/145 150/150/150 149/149/149
f 151/151/151 150/150/150 146/146/146
f 152/152/152 148/148/148 147/147/147
f 153/153/153 148/148/148 152/152/152
f 147/147/147 149/149/149 154/154/154
f 149/149/149 150/150/150 154/154/154
f 152/152/152 147/147/147 154/154/154
f 155/155/155 150/150/150 151/151/151
f 150/150/150 155/155/155 154/154/154
f 156/156/156 155/155/155 151/151/151
f 157/157/157 153/153/153 152/152/152
f 158/158/158 153/153/153 157/157/157
f 159/159/159 158/158/158 157/157/157
f 159/159/159 157/157/157 160/160/160
f 152/152/152 154/154/154 161/161/161
f 157/157/157 152/152/152 161/161/161
f 154/154/154 155/155/155 161/161/161
f 157/157/157 161/161/161 160/160/160
f 162/162/162 155/155/155 156/156/156
f 155/155/155 162/162/162 161/161/161
f 161/161/161 162/162/162 160/160/160
f 163/163/163 162/162/162 156/156/156
f 162/162/162 164/164/164 160/160/160
f 164/164/164 162/162/162 163/163/163
f 165/165/165 164/164/164 163/163/163
f 168/168/168 167/167/167 166/166/166
f 169/169/169 168/168/168 166/166/166
f 169/169/169 166/166/166 170/170/170
f 166/166/166 171/171/171 170/170/170
f 171/171/171 172/172/172 170/170/170
f 172/172/172 173/173/173 170/170/170
f 173/173/173 172/172/172 174/174/174
f 175/175/175 173/173/173 174/174/174
f 178/178/178 177/177/177 176/176/176
f 177/177/177 179/179/179 176/176/176
f 176/176/176 179/179/179 180/180/180
f 179/179/179 181/181/181 180/180/180
f 180/180/180 181/181/181 182/182/182
f 181/181/181 183/183/183 182/182/182
f 182/182/182 183/183/183 184/184/184
f 183/183/183 185/185/185 184/184/184
f 184/184/184 185/185/185 186/186/186
f 185/185/185 187/187/187 186/186/186
f 186/186/186 187/187/187 188/188/188
f 187/187/187 189/189/189 188/188/188
f 188/188/188 189/189/189 190/190/190
f 189/189/189 191/191/191 190/190/190
f 190/190/190 191/191/191 192/192/192
f 191/191/191 193/193/193 192/192/192
f 196/196/196 195/195/195 194/194/194
f 195/195/195 197/197/197 194/194/194
f 197/197/197 195/195/195 198/198/198
f 199/199/199 197/197/197 198/198/198
f 200/200/200 199/199/199 198/198/198
f 201/201/201 200/200/200 198/198/198
f 201/201/201 202/202/202 200/200/200
f 202/202/202 203/203/203 200/200/200
f 206/206/206 205/205/205 204/204/204
f 207/207/207 206/206/206 204/204/204
f 208/208/208 206/206/206 207/207/207
f 209/209/209 208/208/208 207/207/207
f 210/210/210 208/208/208 209/209/209
f 211/211/211 210/210/210 209/209/209
f 212/212/212 210/210/210 211/211/211
f 213/213/213 212/212/212 211/211/211
f 214/214/214 212/212/212 213/213/213
f 215/215/215 214/214/214 213/213/213
f 216/216/216 214/214/214 215/215/215
f 217/217/217 216/216/216 215/215/215
f 218/218/218 216/216/216 217/217/217
f 219/219/219 218/218/218 217/217/217
f 220/220/220 218/218/218 219/219/219
f 221/221/221 220/220/220 219/219/219
f 224/224/224 223/223/223 222/222/222
f 225/225/225 224/224/224 222/222/222
f 226/226/226 224/224/224 225/225/225
f 225/225/225 222/222/222 227/227/227
f 222/222/222 228/228/228 227/227/227
f 228/228/228 229/229/229 227/227/227
f 230/230/230 226/226/226 225/225/225
f 231/231/231 226/226/226 230/230/230
f 225/225/225 227/227/227 232/232/232
f 230/230/230 225/225/225 232/232/232
f 229/229/229 233/233/233 227/227/227
f 227/227/227 233/233/233 232/232/232
f 233/233/233 229/229/229 234/234/234
f 235/235/235 233/233/233 234/234/234
f 236/236/236 233/233/233 235/235/235
f 233/233/233 236/236/236 232/232/232
f 237/237/237 236/236/236 235/235/235
f 238/238/238 231/231/231 230/230/230
f 239/239/239 231/231/231 238/238/238
f 230/230/230 232/232/232 240/240/240
f 232/232/232 236/236/236 240/240/240
f 238/238/238 230/230/230 240/240/240
f 241/241/241 236/236/236 237/237/237
f 236/236/236 241/241/241 240/240/240
f 242/242/242 241/241/241 237/237/237
f 243/243/243 239/239/239 238/238/238
f 244/244/244 239/239/239 243/243/243
f 238/238/238 240/240/240 245/245/245
f 240/240/240 241/241/241 245/245/245
f 243/243/243 238/238/238 245/245/245
f 246/246/246 241/241/241 242/242/242
f 241/241/241 246/246/246 245/245/245
f 247/247/247 246/246/246 242/242/242
f 248/248/248 244/244/244 243/243/243
f 249/249/249 244/244/244 248/248/248
f 243/243/243 245/245/245 250/250/250
f 245/245/245 246/246/246 250/250/250
f 248/248/248 243/243/243 250/250/250
f 251/251/251 246/246/246 247/247/247
f 246/246/246 251/251/251 250/250/250
f 252/252/252 251/251/251 247/247/247
f 253/253/253 249/249/249 248/248/248
f 254/254/254 249/249/249 253/253/253
f 248/248/248 250/250/250 255/255/255
f 250/250/250 251/251/251 255/255/255
f 253/253/253 248/248/248 255/255/255
f 256/256/256 251/251/251 252/252/252
f 251/251/251 256/256/256 255/255/255
f 257/257/257 256/256/256 252/252/252
f 258/258/258 254/254/254 253/253/253
f 259/259/259 254/254/254 258/258/258
f 260/260/260 259/259/259 258/258/258
f 260/260/260 258/258/258 261/261/261
f 253/253/253 255/255/255 262/262/262
f 258/258/258 253/253/253 262/262/262
f 255/255/255 256/256/256 262/262/262
f 258/258/258 262/262/262 261/261/261
f 263/263/263 256/256/256 257/257/257
f 256/256/256 263/263/263 262/262/262
f 262/262/262 263/263/263 261/261/261
f 264/264/264 263/263/263 257/257/257
f 263/263/263 265/265/265 261/261/261
f 265/265/265 263/263/263 264/264/264
f 266/266/266 265/265/265 264/264/264
f 269/269/269 268/268/268 267/267/267
f 268/268/268 270/270/270 267/267/267
f 270/270/270 268/268/268 271/271/271
f 272/272/272 270/270/270 271/271/271
f 271/271/271 273/273/273 272/272/272
f 273/273/273 274/274/274 272/272/272
f 277/277/277 276/276/276 275/275/275
f 278/278/278 277/277/277 275/275/275
f 278/278/278 279/279/279 277/277/277
f 279/279/279 280/280/280 277/277/277
f 279/279/279 281/281/281 280/280/280
f 281/281/281 282/282/282 280/280/280
f 281/281/281 283/283/283 282/282/282
f 283/283/283 284/284/284 282/282/282
f 285/285/285 284/284/284 283/283/283
f 286/286/286 285/285/285 283/283/283
f 287/287/287 285/285/285 286/286/286
f 288/288/288 287/287/287 286/286/286
f 288/288/288 289/289/289 287/287/287
f 289/289/289 290/290/290 287/287/287
f 293/293/293 292/292/292 291/291/291
f 294/294/294 293/293/293 291/291/291
f 293/293/293 294/294/294 295/295/295
f 294/294/294 296/296/296 295/295/295
f 295/295/295 296/296/296 297/297/297
f 296/296/296 298/298/298 297/297/297
f 297/297/297 298/298/298 299/299/299
f 298/298/298 300/300/300 299/299/299
f 301/301/301 299/299/299 300/300/300
f 302/302/302 301/301/301 300/300/300
f 303/303/303 301/301/301 302/302/302
f 304/304/304 303/303/303 302/302/302
f 303/303/303 304/304/304 305/305/305
f 304/304/304 306/306/306 305/305/305
f 307/307/307 305/305/305 306/306/306
f 308/308/308 307/307/307 306/306/306
