g Barrel
v 0.0162803 0.8913221 0.6816507
v 0.3549247 0.8913221 0.5821881
v 0.3813843 0.5942147 0.6255914
v 0.01749245 0.5942147 0.7324698
v 0.3551743 0.2971074 0.5825992
v -0.326726 0.8913221 0.5984647
v 0.01629037 0.2971074 0.6821319
v -0.351085 0.5942147 0.6430826
v -0.5821871 0.8913221 0.3549219
v -0.3269579 0.2971074 0.5988879
v -0.625591 0.5942147 0.3813834
v -0.6816485 0.8913221 0.01627653
v -0.5825981 0.2971074 0.3551718
v -0.7324674 0.5942147 0.01749083
v -0.5984652 0.8913221 -0.3267291
v -0.6821309 0.2971074 0.01628935
v -0.6430822 0.5942147 -0.3510867
v -0.3549218 0.8913221 -0.5821896
v -0.5988886 0.2971074 -0.3269598
v -0.3813816 0.5942147 -0.6255924
v -0.01627524 0.8913221 -0.6816531
v -0.355171 0.2971074 -0.5825992
v -0.01748923 0.5942147 -0.732471
v 0.3267295 0.8913221 -0.5984671
v -0.01628776 0.2971074 -0.6821328
v 0.351088 0.5942147 -0.6430838
v 0.5821894 0.8913221 -0.3549222
v 0.3269596 0.2971074 -0.5988882
v 0.6255936 0.5942147 -0.3813827
v 0.6816514 0.8913221 -0.01627809
v 0.5826008 0.2971074 -0.3551733
v 0.732471 0.5942147 -0.01749208
v 0.5984678 0.8913221 0.326727
v 0.682133 0.2971074 -0.01628908
v 0.6430851 0.5942147 0.3510852
v 0.3549247 0.8913221 0.5821881
v 0.5988895 0.2971074 0.3269586
v 0.3813843 0.5942147 0.6255914
v 0.3551743 0.2971074 0.5825992
v 0.01533456 0.1621608 0.6421221
v 0.3343421 0.1621608 0.5484271
v 0.3135102 0.02721454 0.5142563
v 0.01437936 0.02721454 0.602113
v -0.3077807 0.1621608 0.5637613
v 0.01404519 0.007553587 0.5881525
v 0.3062403 0.007553587 0.5023303
v -0.2819112 0.007553587 0.5163766
v -0.2886034 0.02721454 0.5286343
v -0.548427 0.1621608 0.3343405
v -0.5023311 0.007553587 0.306239
v -0.5142548 0.02721454 0.313508
v -0.642122 0.1621608 0.01533323
v -0.588151 0.007553587 0.01404478
v -0.6021132 0.02721454 0.01437773
v -0.5637611 0.1621608 -0.307782
v -0.516377 0.007553587 -0.2819132
v -0.5286335 0.02721454 -0.2886057
v -0.3343392 0.1621608 -0.5484287
v -0.306238 0.007553587 -0.5023324
v -0.3135067 0.02721454 -0.5142575
v -0.01533317 0.1621608 -0.6421219
v -0.01404349 0.007553587 -0.5881528
v -0.01437644 0.02721454 -0.6021158
v 0.3077833 0.1621608 -0.5637625
v 0.2819154 0.007553587 -0.5163785
v 0.2886054 0.02721454 -0.5286356
v 0.5484284 0.1621608 -0.3343408
v 0.5023331 0.007553587 -0.306239
v 0.5142588 0.02721454 -0.3135107
v 0.642125 0.1621608 -0.01533419
v 0.5881553 0.007553587 -0.01404573
v 0.6021168 0.02721454 -0.0143799
v 0.5637629 0.1621608 0.3077813
v 0.5163788 0.007553587 0.2819125
v 0.5286375 0.02721454 0.2886032
v 0.3343421 0.1621608 0.5484271
v 0.3062403 0.007553587 0.5023303
v 0.3135102 0.02721454 0.5142563
v 0.3640049 0.918744 0.5970843
v 0.3553061 1.009078 0.5828146
v 0.6137809 0.9187434 0.3350885
v 0.5991129 1.009078 0.3270791
v 0.699094 0.9187434 -0.01669374
v 0.6823881 1.009078 -0.0162961
v 0.5970863 0.9187434 -0.3640042
v 0.5828184 1.009078 -0.3553058
v 0.3350898 0.9187434 -0.6137789
v 0.3270814 1.009078 -0.5991116
v -0.01669273 0.9187434 -0.6990927
v -0.01629416 1.009078 -0.6823874
v -0.3640037 0.9187434 -0.597084
v -0.3553033 1.009078 -0.5828152
v -0.6137777 0.9187434 -0.3350891
v -0.5991106 1.009078 -0.3270813
v -0.6990911 0.918744 0.0166934
v -0.6823837 1.009078 0.01629484
v -0.5970821 0.9187443 0.3640018
v -0.5828138 1.009078 0.3553042
v -0.3350866 0.918744 0.6137787
v -0.3270782 1.009078 0.5991098
v 0.01669686 0.918744 0.6990912
v 0.01629586 1.009078 0.6823856
v 0.3640049 0.918744 0.5970843
v 0.3553061 1.009078 0.5828146
v -0.4053341 1.096938 -0.2212906
v -0.4616738 1.096938 0.01102385
v -0.4616738 1.156459 0.01102385
v -0.4053341 1.156459 -0.2212906
v -0.4138433 1.179065 -0.2259351
v -0.4713663 1.179065 0.01125578
v -0.2454311 1.179065 -0.4025888
v -0.3943087 1.156459 0.2403851
v -0.4616738 1.096938 0.01102385
v -0.3943087 1.096938 0.2403851
v -0.4025871 1.179065 0.2454318
v -0.2212887 1.156459 0.4053351
v -0.3943087 1.096938 0.2403851
v -0.2212887 1.096938 0.4053351
v -0.2259344 1.179065 0.413844
v 0.0110267 1.156459 0.4616757
v -0.2212887 1.096938 0.4053351
v 0.0110267 1.096938 0.4616757
v 0.01125741 1.179065 0.4713675
v 0.2403876 1.156459 0.3943112
v 0.245434 1.179065 0.4025879
v 0.0110267 1.096938 0.4616757
v 0.2403876 1.096938 0.3943112
v 0.2403876 1.096938 0.3943112
v 0.4053373 1.096938 0.2212903
v 0.4053373 1.156459 0.2212903
v 0.2403876 1.156459 0.3943112
v 0.245434 1.179065 0.4025879
v 0.4138456 1.179065 0.2259353
v 0.4616795 1.156459 -0.01102602
v 0.4053373 1.096938 0.2212903
v 0.4616795 1.096938 -0.01102602
v 0.4713694 1.179065 -0.01125765
v 0.3943128 1.156459 -0.2403876
v 0.4616795 1.096938 -0.01102602
v 0.3943128 1.096938 -0.2403876
v 0.4025892 1.179065 -0.2454321
v 0.2212925 1.156459 -0.4053372
v 0.3943128 1.096938 -0.2403876
v 0.2212925 1.096938 -0.4053372
v 0.2259382 1.179065 -0.4138455
v -0.01102408 1.156459 -0.4616757
v 0.2212925 1.096938 -0.4053372
v -0.01102408 1.096938 -0.4616757
v -0.0112551 1.179065 -0.4713675
v -0.2403851 1.156459 -0.3943121
v -0.01102408 1.096938 -0.4616757
v -0.2403851 1.096938 -0.3943121
v -0.2403851 1.096938 -0.3943121
v -0.4053341 1.096938 -0.2212906
v 0.3062403 0.007553587 0.5023303
v 0.5163788 0.007553587 0.2819125
v 0.2940534 -4.285601E-07 0.4823404
v 0.4958307 -4.285601E-07 0.2706924
v 0.5881553 0.007553587 -0.01404573
v 1.61055E-06 -4.285601E-07 -3.229503E-07
v 0.5647486 -4.285601E-07 -0.01348757
v 0.5023331 0.007553587 -0.306239
v 0.4823429 -4.285601E-07 -0.294053
v 0.2819154 0.007553587 -0.5163785
v 0.2706953 -4.285601E-07 -0.4958292
v -0.01348258 -4.285601E-07 -0.5647476
v -0.01404349 0.007553587 -0.5881528
v -0.306238 0.007553587 -0.5023324
v -0.2940511 -4.285601E-07 -0.482341
v -0.516377 0.007553587 -0.2819132
v -0.4958253 -4.285601E-07 -0.2706946
v -0.588151 0.007553587 0.01404478
v -0.5647445 -4.285601E-07 0.0134857
v -0.5023311 0.007553587 0.306239
v -0.4823391 -4.285601E-07 0.2940524
v -0.2819112 0.007553587 0.5163766
v -0.2706923 -4.285601E-07 0.495827
v 0.01404519 0.007553587 0.5881525
v 0.01348885 -4.285601E-07 0.5647439
v 0.2940534 -4.285601E-07 0.4823404
v 0.3062403 0.007553587 0.5023303
v 0.2940455 1.18843 0.482327
v 0.306233 1.180866 0.5023175
v 0.01404641 1.180866 0.5881357
v 0.01348702 1.18843 0.5647293
v -0.2819039 1.180866 0.5163635
v 0.01181619 1.18843 0.4947647
v 0.2576154 1.18843 0.4225711
v 0.245434 1.179065 0.4025879
v 0.01125741 1.179065 0.4713675
v -0.2371502 1.18843 0.4343866
v -0.2259344 1.179065 0.413844
v -0.2706853 1.18843 0.495813
v -0.5023165 1.180866 0.3062301
v -0.4225707 1.18843 0.2576144
v -0.4025871 1.179065 0.2454318
v -0.4823256 1.18843 0.2940435
v -0.5881342 1.180866 0.01404478
v -0.4947645 1.18843 0.01181456
v -0.4713663 1.179065 0.01125578
v -0.5647286 1.18843 0.01348539
v -0.5163615 1.180866 -0.2819049
v -0.4343852 1.18843 -0.2371503
v -0.4138433 1.179065 -0.2259351
v -0.4958121 1.18843 -0.2706864
v -0.3062295 1.180866 -0.502319
v -0.2576137 1.18843 -0.4225723
v -0.2454311 1.179065 -0.4025888
v -0.2940423 1.18843 -0.4823282
v -0.01404319 1.180866 -0.5881375
v -0.01181296 1.18843 -0.4947665
v -0.0112551 1.179065 -0.4713675
v -0.01348441 1.18843 -0.5647299
v 0.2819065 1.180866 -0.5163638
v 0.2371525 1.18843 -0.4343881
v 0.2259382 1.179065 -0.4138455
v 0.2706867 1.18843 -0.4958139
v 0.5023206 1.180866 -0.3062326
v 0.4225727 1.18843 -0.2576148
v 0.4025892 1.179065 -0.2454321
v 0.4823301 1.18843 -0.2940451
v 0.588137 1.180866 -0.01404482
v 0.4947678 1.18843 -0.01181612
v 0.4713694 1.179065 -0.01125765
v 0.5647312 1.18843 -0.01348543
v 0.516363 1.180866 0.2819055
v 0.4343888 1.18843 0.2371493
v 0.4138456 1.179065 0.2259353
v 0.4958146 1.18843 0.2706854
v 0.306233 1.180866 0.5023175
v 0.2940455 1.18843 0.482327
v 0.2576154 1.18843 0.4225711
v 0.245434 1.179065 0.4025879
v 0.306233 1.180866 0.5023175
v 0.516363 1.180866 0.2819055
v 0.3134922 1.161188 0.5142245
v 0.5286036 1.161188 0.2885867
v 0.588137 1.180866 -0.01404482
v 0.5635358 1.026255 0.3076584
v 0.3342075 1.026255 0.5482059
v 0.6418647 1.026255 -0.01532839
v 0.6020795 1.161188 -0.01437837
v 0.5023206 1.180866 -0.3062326
v 0.5482081 1.026255 -0.3342062
v 0.5142273 1.161188 -0.3134906
v 0.2819065 1.180866 -0.5163638
v 0.3076585 1.026255 -0.5635355
v 0.2885883 1.161188 -0.5286038
v -0.01404319 1.180866 -0.5881375
v -0.01532706 1.026255 -0.6418643
v -0.01437675 1.161188 -0.6020786
v -0.3062295 1.180866 -0.502319
v -0.3342055 1.026255 -0.5482077
v -0.3134887 1.161188 -0.5142264
v -0.5163615 1.180866 -0.2819049
v -0.5635334 1.026255 -0.3076593
v -0.5286015 1.161188 -0.288588
v -0.5881342 1.180866 0.01404478
v -0.6418633 1.026255 0.01532774
v -0.6020754 1.161188 0.01437681
v -0.5023165 1.180866 0.3062301
v -0.5482045 1.026255 0.3342053
v -0.5142242 1.161188 0.3134896
v -0.2819039 1.180866 0.5163635
v -0.3076571 1.026255 0.5635339
v -0.2885854 1.161188 0.5286026
v 0.01404641 1.180866 0.5881357
v 0.01532906 1.026255 0.641864
v 0.01437783 1.161188 0.6020773
v 0.306233 1.180866 0.5023175
v 0.3342075 1.026255 0.5482059
v 0.3134922 1.161188 0.5142245
v 0.3581983 0.1833397 0.5875586
v 0.3744593 0.275082 0.6142319
v 0.6039881 0.1833397 0.3297421
v 0.6314066 0.275082 0.3447119
v 0.6879417 0.1833397 -0.01642946
v 0.7191712 0.275082 -0.01717439
v 0.5875596 0.1833397 -0.3581967
v 0.6142334 0.275082 -0.3744589
v 0.3297456 0.1833397 -0.6039883
v 0.3447129 0.275082 -0.6314065
v -0.01642631 0.1833397 -0.6879404
v -0.01717246 0.275082 -0.719169
v -0.3581957 0.1833397 -0.5875589
v -0.3744566 0.275082 -0.6142337
v -0.6039854 0.1833397 -0.329743
v -0.6314052 0.275082 -0.3447122
v -0.6879368 0.1833397 0.01642729
v -0.7191689 0.275082 0.01717314
v -0.5875583 0.1833397 0.358197
v -0.6142301 0.275082 0.3744568
v -0.3297408 0.1833397 0.6039856
v -0.3447112 0.275082 0.6314057
v 0.01642861 0.1833397 0.6879385
v 0.01717538 0.275082 0.7191693
v 0.3581983 0.1833397 0.5875586
v 0.3744593 0.275082 0.6142319
v 0.3549247 0.8913221 0.5821881
v 0.3640049 0.918744 0.5970843
v 0.5984678 0.8913221 0.326727
v 0.6137809 0.9187434 0.3350885
v 0.6816514 0.8913221 -0.01627809
v 0.699094 0.9187434 -0.01669374
v 0.5821894 0.8913221 -0.3549222
v 0.5970863 0.9187434 -0.3640042
v 0.3267295 0.8913221 -0.5984671
v 0.3350898 0.9187434 -0.6137789
v -0.01627524 0.8913221 -0.6816531
v -0.01669273 0.9187434 -0.6990927
v -0.3549218 0.8913221 -0.5821896
v -0.3640037 0.9187434 -0.597084
v -0.5984652 0.8913221 -0.3267291
v -0.6137777 0.9187434 -0.3350891
v -0.6816485 0.8913221 0.01627653
v -0.6990911 0.918744 0.0166934
v -0.5821871 0.8913221 0.3549219
v -0.5970821 0.9187443 0.3640018
v -0.326726 0.8913221 0.5984647
v -0.3350866 0.918744 0.6137787
v 0.0162803 0.8913221 0.6816507
v 0.01669686 0.918744 0.6990912
v 0.3549247 0.8913221 0.5821881
v 0.3640049 0.918744 0.5970843
v 0.5991129 1.009078 0.3270791
v 0.3553061 1.009078 0.5828146
v 0.3342075 1.026255 0.5482059
v 0.5635358 1.026255 0.3076584
v 0.6823881 1.009078 -0.0162961
v 0.6418647 1.026255 -0.01532839
v 0.5828184 1.009078 -0.3553058
v 0.5482081 1.026255 -0.3342062
v 0.3270814 1.009078 -0.5991116
v 0.3076585 1.026255 -0.5635355
v -0.01629416 1.009078 -0.6823874
v -0.01532706 1.026255 -0.6418643
v -0.3553033 1.009078 -0.5828152
v -0.3342055 1.026255 -0.5482077
v -0.5991106 1.009078 -0.3270813
v -0.5635334 1.026255 -0.3076593
v -0.6823837 1.009078 0.01629484
v -0.6418633 1.026255 0.01532774
v -0.5828138 1.009078 0.3553042
v -0.5482045 1.026255 0.3342053
v -0.3270782 1.009078 0.5991098
v -0.3076571 1.026255 0.5635339
v 0.01629586 1.009078 0.6823856
v 0.01532906 1.026255 0.641864
v 0.3553061 1.009078 0.5828146
v 0.3342075 1.026255 0.5482059
v 0.3343421 0.1621608 0.5484271
v 0.3581983 0.1833397 0.5875586
v 0.5637629 0.1621608 0.3077813
v 0.6039881 0.1833397 0.3297421
v 0.642125 0.1621608 -0.01533419
v 0.6879417 0.1833397 -0.01642946
v 0.5484284 0.1621608 -0.3343408
v 0.5875596 0.1833397 -0.3581967
v 0.3077833 0.1621608 -0.5637625
v 0.3297456 0.1833397 -0.6039883
v -0.01533317 0.1621608 -0.6421219
v -0.01642631 0.1833397 -0.6879404
v -0.3343392 0.1621608 -0.5484287
v -0.3581957 0.1833397 -0.5875589
v -0.5637611 0.1621608 -0.307782
v -0.6039854 0.1833397 -0.329743
v -0.642122 0.1621608 0.01533323
v -0.6879368 0.1833397 0.01642729
v -0.548427 0.1621608 0.3343405
v -0.5875583 0.1833397 0.358197
v -0.3077807 0.1621608 0.5637613
v -0.3297408 0.1833397 0.6039856
v 0.01533456 0.1621608 0.6421221
v 0.01642861 0.1833397 0.6879385
v 0.3343421 0.1621608 0.5484271
v 0.3581983 0.1833397 0.5875586
v 0.6314066 0.275082 0.3447119
v 0.3744593 0.275082 0.6142319
v 0.3551743 0.2971074 0.5825992
v 0.5988895 0.2971074 0.3269586
v 0.7191712 0.275082 -0.01717439
v 0.682133 0.2971074 -0.01628908
v 0.6142334 0.275082 -0.3744589
v 0.5826008 0.2971074 -0.3551733
v 0.3447129 0.275082 -0.6314065
v 0.3269596 0.2971074 -0.5988882
v -0.01717246 0.275082 -0.719169
v -0.01628776 0.2971074 -0.6821328
v -0.3744566 0.275082 -0.6142337
v -0.355171 0.2971074 -0.5825992
v -0.6314052 0.275082 -0.3447122
v -0.5988886 0.2971074 -0.3269598
v -0.7191689 0.275082 0.01717314
v -0.6821309 0.2971074 0.01628935
v -0.6142301 0.275082 0.3744568
v -0.5825981 0.2971074 0.3551718
v -0.3447112 0.275082 0.6314057
v -0.3269579 0.2971074 0.5988879
v 0.01717538 0.275082 0.7191693
v 0.01629037 0.2971074 0.6821319
v 0.3744593 0.275082 0.6142319
v 0.3551743 0.2971074 0.5825992
v -0.01102408 1.096938 -0.4616757
v 1.61055E-06 1.096938 -3.229503E-07
v -0.2403851 1.096938 -0.3943121
v 0.2212925 1.096938 -0.4053372
v -0.4053341 1.096938 -0.2212906
v 0.3943128 1.096938 -0.2403876
v -0.4616738 1.096938 0.01102385
v 0.4616795 1.096938 -0.01102602
v -0.3943087 1.096938 0.2403851
v 0.4053373 1.096938 0.2212903
v -0.2212887 1.096938 0.4053351
v 0.2403876 1.096938 0.3943112
v 0.0110267 1.096938 0.4616757
vt 0.1551514 0.8476563
vt 0.1582031 0.8476563
vt 0.1584473 0.8452148
vt 0.1551514 0.8452148
vt 0.1583252 0.8422852
vt 0.1519775 0.8476563
vt 0.1551514 0.8422852
vt 0.1519775 0.8452148
vt 0.1486816 0.8476563
vt 0.1519775 0.8422852
vt 0.1488037 0.8452148
vt 0.1455078 0.8476563
vt 0.1488037 0.8422852
vt 0.1455078 0.8452148
vt 0.142334 0.8476563
vt 0.1456299 0.8422852
vt 0.142334 0.8452148
vt 0.1391602 0.8476563
vt 0.142334 0.8422852
vt 0.1391602 0.8452148
vt 0.1358643 0.8476563
vt 0.1391602 0.8422852
vt 0.1358643 0.8452148
vt 0.1326904 0.8476563
vt 0.1359863 0.8422852
vt 0.1326904 0.8452148
vt 0.1295166 0.8476563
vt 0.1326904 0.8422852
vt 0.1295166 0.8452148
vt 0.1262207 0.8476563
vt 0.1295166 0.8422852
vt 0.1263428 0.8447266
vt 0.1230469 0.8476563
vt 0.1263428 0.8422852
vt 0.1230469 0.8447266
vt 0.1199341 0.8476563
vt 0.1231079 0.8422852
vt 0.119751 0.8447266
vt 0.1199951 0.8422852
vt 0.1520996 0.8603516
vt 0.1497803 0.859375
vt 0.149292 0.8603516
vt 0.1514893 0.8613281
vt 0.1539307 0.8623047
vt 0.1513672 0.8613281
vt 0.149292 0.8603516
vt 0.152832 0.8632813
vt 0.1529541 0.862793
vt 0.1546631 0.8652344
vt 0.1534424 0.8652344
vt 0.1535645 0.8652344
vt 0.1541748 0.8676758
vt 0.1529541 0.8671875
vt 0.1531982 0.8671875
vt 0.1524658 0.8701172
vt 0.1517334 0.8691406
vt 0.1518555 0.8691406
vt 0.1500244 0.8710938
vt 0.1497803 0.8701172
vt 0.1497803 0.8701172
vt 0.1473389 0.8710938
vt 0.147583 0.8696289
vt 0.147583 0.8701172
vt 0.1448975 0.8696289
vt 0.145752 0.8686523
vt 0.1456299 0.8691406
vt 0.1433105 0.8676758
vt 0.1444092 0.8671875
vt 0.1442871 0.8671875
vt 0.1429443 0.8647461
vt 0.144165 0.8647461
vt 0.1439209 0.8647461
vt 0.1436768 0.8623047
vt 0.1448975 0.862793
vt 0.1446533 0.862793
vt 0.1453857 0.8603516
vt 0.1463623 0.8613281
vt 0.1462402 0.8608398
vt 0.02958679 0.8544922
vt 0.03005981 0.8549805
vt 0.03225708 0.8525391
vt 0.03265381 0.8535156
vt 0.03509521 0.8515625
vt 0.03540039 0.8520508
vt 0.0380249 0.8500977
vt 0.03826904 0.8510742
vt 0.04107666 0.8496094
vt 0.04122925 0.8500977
vt 0.04418945 0.8491211
vt 0.04425049 0.8500977
vt 0.04733276 0.8491211
vt 0.04730225 0.8496094
vt 0.05044556 0.8491211
vt 0.050354 0.8500977
vt 0.05352783 0.8496094
vt 0.05334473 0.8505859
vt 0.05654907 0.8505859
vt 0.05627441 0.8515625
vt 0.05944824 0.8520508
vt 0.05908203 0.8525391
vt 0.06219482 0.8535156
vt 0.06176758 0.8540039
vt 0.06481934 0.8549805
vt 0.06427002 0.855957
vt 0.1502686 0.8588867
vt 0.1520996 0.8598633
vt 0.1524658 0.859375
vt 0.1503906 0.8583984
vt 0.1505127 0.8583984
vt 0.1525879 0.859375
vt 0.1481934 0.8579102
vt 0.1540527 0.8608398
vt 0.1520996 0.8598633
vt 0.1536865 0.8608398
vt 0.1542969 0.8603516
vt 0.1552734 0.862793
vt 0.1536865 0.8608398
vt 0.1547852 0.862793
vt 0.1553955 0.8623047
vt 0.1557617 0.8647461
vt 0.1547852 0.862793
vt 0.1552734 0.8647461
vt 0.1560059 0.8647461
vt 0.1557617 0.8666992
vt 0.1558838 0.8666992
vt 0.1552734 0.8647461
vt 0.1551514 0.8666992
vt 0.1424561 0.8676758
vt 0.1420898 0.8657227
vt 0.1416016 0.8657227
vt 0.1418457 0.8676758
vt 0.1417236 0.8676758
vt 0.1413574 0.8657227
vt 0.1418457 0.8632813
vt 0.1420898 0.8657227
vt 0.142334 0.8637695
vt 0.1416016 0.8632813
vt 0.1427002 0.8613281
vt 0.142334 0.8637695
vt 0.1431885 0.8618164
vt 0.1425781 0.8613281
vt 0.144165 0.8598633
vt 0.1431885 0.8618164
vt 0.1445313 0.8603516
vt 0.144043 0.8598633
vt 0.1461182 0.8588867
vt 0.1445313 0.8603516
vt 0.1462402 0.859375
vt 0.1459961 0.8583984
vt 0.1481934 0.8583984
vt 0.1462402 0.859375
vt 0.1483154 0.8588867
vt 0.1483154 0.8588867
vt 0.1502686 0.8588867
vt 0.1463623 0.8613281
vt 0.1448975 0.862793
vt 0.1464844 0.8613281
vt 0.1450195 0.862793
vt 0.144165 0.8647461
vt 0.1488037 0.8652344
vt 0.1442871 0.8647461
vt 0.1444092 0.8671875
vt 0.1446533 0.8671875
vt 0.145752 0.8686523
vt 0.145874 0.8686523
vt 0.1477051 0.8696289
vt 0.147583 0.8696289
vt 0.1497803 0.8701172
vt 0.1496582 0.8696289
vt 0.1517334 0.8691406
vt 0.1516113 0.8686523
vt 0.1529541 0.8671875
vt 0.152832 0.8671875
vt 0.1534424 0.8652344
vt 0.1531982 0.8652344
vt 0.152832 0.8632813
vt 0.15271 0.8632813
vt 0.1513672 0.8613281
vt 0.1512451 0.8613281
vt 0.149292 0.8608398
vt 0.149292 0.8603516
vt 0.1567383 0.8671875
vt 0.1569824 0.8671875
vt 0.1571045 0.8647461
vt 0.1568604 0.8647461
vt 0.1563721 0.8623047
vt 0.15625 0.8647461
vt 0.1561279 0.8666992
vt 0.1558838 0.8666992
vt 0.1560059 0.8647461
vt 0.1556396 0.8623047
vt 0.1553955 0.8623047
vt 0.15625 0.8623047
vt 0.1550293 0.8598633
vt 0.1544189 0.8603516
vt 0.1542969 0.8603516
vt 0.1549072 0.8598633
vt 0.1530762 0.8583984
vt 0.15271 0.8588867
vt 0.1525879 0.859375
vt 0.1529541 0.8583984
vt 0.1507568 0.8574219
vt 0.1505127 0.8579102
vt 0.1505127 0.8583984
vt 0.1506348 0.8574219
vt 0.1481934 0.8569336
vt 0.1481934 0.8579102
vt 0.1481934 0.8579102
vt 0.1481934 0.8574219
vt 0.1456299 0.8574219
vt 0.1459961 0.8583984
vt 0.1459961 0.8583984
vt 0.145752 0.8579102
vt 0.1434326 0.8588867
vt 0.1439209 0.859375
vt 0.144043 0.8598633
vt 0.1435547 0.8588867
vt 0.1417236 0.8608398
vt 0.142334 0.8613281
vt 0.1425781 0.8613281
vt 0.1418457 0.8608398
vt 0.140625 0.8632813
vt 0.1413574 0.8632813
vt 0.1416016 0.8632813
vt 0.1408691 0.8632813
vt 0.1402588 0.8657227
vt 0.1411133 0.8657227
vt 0.1413574 0.8657227
vt 0.1405029 0.8657227
vt 0.1407471 0.8681641
vt 0.1409912 0.8681641
vt 0.1414795 0.8676758
vt 0.1417236 0.8676758
vt 0.1407471 0.8681641
vt 0.1402588 0.8657227
vt 0.1405029 0.8681641
vt 0.1401367 0.8657227
vt 0.140625 0.8632813
vt 0.1387939 0.8657227
vt 0.1392822 0.8686523
vt 0.1392822 0.862793
vt 0.1403809 0.862793
vt 0.1417236 0.8608398
vt 0.1405029 0.8598633
vt 0.1414795 0.8608398
vt 0.1434326 0.8588867
vt 0.1424561 0.8579102
vt 0.1433105 0.8588867
vt 0.1456299 0.8574219
vt 0.1451416 0.8564453
vt 0.1456299 0.8574219
vt 0.1481934 0.8569336
vt 0.1480713 0.8554688
vt 0.1481934 0.8569336
vt 0.1507568 0.8574219
vt 0.151001 0.855957
vt 0.1507568 0.8569336
vt 0.1530762 0.8583984
vt 0.1538086 0.8569336
vt 0.1531982 0.8579102
vt 0.1550293 0.8598633
vt 0.1561279 0.8588867
vt 0.1551514 0.8598633
vt 0.1563721 0.8623047
vt 0.1577148 0.8613281
vt 0.1566162 0.8618164
vt 0.1571045 0.8647461
vt 0.1584473 0.8642578
vt 0.1572266 0.8647461
vt 0.1569824 0.8671875
vt 0.1584473 0.8671875
vt 0.1571045 0.8671875
vt 0.06573486 0.8520508
vt 0.06616211 0.8510742
vt 0.06286621 0.8505859
vt 0.06317139 0.8496094
vt 0.05996704 0.8496094
vt 0.06021118 0.8486328
vt 0.05697632 0.8486328
vt 0.05718994 0.8481445
vt 0.05395508 0.8481445
vt 0.05407715 0.847168
vt 0.0508728 0.8476563
vt 0.05096436 0.847168
vt 0.04779053 0.8476563
vt 0.04779053 0.8466797
vt 0.04470825 0.8476563
vt 0.04464722 0.8466797
vt 0.04159546 0.8481445
vt 0.04150391 0.847168
vt 0.0385437 0.8481445
vt 0.03839111 0.8476563
vt 0.03552246 0.8491211
vt 0.03530884 0.8481445
vt 0.03256226 0.8500977
vt 0.0322876 0.8491211
vt 0.02963257 0.8510742
vt 0.02926636 0.8500977
vt 0.02947998 0.8540039
vt 0.02958679 0.8544922
vt 0.03213501 0.8525391
vt 0.03225708 0.8525391
vt 0.03497314 0.8510742
vt 0.03509521 0.8515625
vt 0.03796387 0.8500977
vt 0.0380249 0.8500977
vt 0.04101563 0.8491211
vt 0.04107666 0.8496094
vt 0.04415894 0.8486328
vt 0.04418945 0.8491211
vt 0.04733276 0.8486328
vt 0.04733276 0.8491211
vt 0.05047607 0.8491211
vt 0.05044556 0.8491211
vt 0.05361938 0.8496094
vt 0.05352783 0.8496094
vt 0.05664063 0.8505859
vt 0.05654907 0.8505859
vt 0.05957031 0.8515625
vt 0.05944824 0.8520508
vt 0.06234741 0.8530273
vt 0.06219482 0.8535156
vt 0.06494141 0.8549805
vt 0.06481934 0.8549805
vt 0.03265381 0.8535156
vt 0.03005981 0.8549805
vt 0.03034973 0.8554688
vt 0.03283691 0.8540039
vt 0.03540039 0.8520508
vt 0.03555298 0.8525391
vt 0.03826904 0.8510742
vt 0.03839111 0.8515625
vt 0.04122925 0.8500977
vt 0.04129028 0.8505859
vt 0.04425049 0.8500977
vt 0.04428101 0.8500977
vt 0.04730225 0.8496094
vt 0.04730225 0.8500977
vt 0.050354 0.8500977
vt 0.05029297 0.8505859
vt 0.05334473 0.8505859
vt 0.05325317 0.8510742
vt 0.05627441 0.8515625
vt 0.05615234 0.8515625
vt 0.05908203 0.8525391
vt 0.05892944 0.8530273
vt 0.06176758 0.8540039
vt 0.06158447 0.8544922
vt 0.06427002 0.855957
vt 0.06396484 0.855957
vt 0.06542969 0.8520508
vt 0.06573486 0.8520508
vt 0.06274414 0.8510742
vt 0.06286621 0.8505859
vt 0.05984497 0.8500977
vt 0.05996704 0.8496094
vt 0.05688477 0.8491211
vt 0.05697632 0.8486328
vt 0.05386353 0.8486328
vt 0.05395508 0.8481445
vt 0.05084229 0.8481445
vt 0.0508728 0.8476563
vt 0.04776001 0.8481445
vt 0.04779053 0.8476563
vt 0.04470825 0.8481445
vt 0.04470825 0.8476563
vt 0.04165649 0.8481445
vt 0.04159546 0.8481445
vt 0.03863525 0.8486328
vt 0.0385437 0.8481445
vt 0.03564453 0.8496094
vt 0.03552246 0.8491211
vt 0.03271484 0.8505859
vt 0.03256226 0.8500977
vt 0.02990723 0.8515625
vt 0.02963257 0.8510742
vt 0.06317139 0.8496094
vt 0.06616211 0.8510742
vt 0.06622314 0.8505859
vt 0.06335449 0.8496094
vt 0.06021118 0.8486328
vt 0.06033325 0.8486328
vt 0.05718994 0.8481445
vt 0.05725098 0.8476563
vt 0.05407715 0.847168
vt 0.05413818 0.847168
vt 0.05096436 0.847168
vt 0.05099487 0.8466797
vt 0.04779053 0.8466797
vt 0.04782104 0.8461914
vt 0.04464722 0.8466797
vt 0.04464722 0.8466797
vt 0.04150391 0.847168
vt 0.04147339 0.8466797
vt 0.03839111 0.8476563
vt 0.03833008 0.847168
vt 0.03530884 0.8481445
vt 0.03521729 0.8476563
vt 0.0322876 0.8491211
vt 0.03216553 0.8486328
vt 0.02926636 0.8500977
vt 0.02923584 0.8500977
vt 0.5332031 0.8535156
vt 0.5302734 0.8525391
vt 0.5322266 0.8549805
vt 0.5332031 0.8520508
vt 0.5307617 0.8554688
vt 0.5322266 0.8505859
vt 0.5292969 0.8554688
vt 0.5307617 0.8496094
vt 0.527832 0.8549805
vt 0.5292969 0.8496094
vt 0.5273438 0.8535156
vt 0.527832 0.8505859
vt 0.5273438 0.8520508
vn 0.02352905 0.1687012 0.9853516
vn 0.5131836 0.1687012 0.8417969
vn 0.5205078 0.0007581711 0.8540039
vn 0.02388 0.0007586479 0.9995117
vn 0.5131836 -0.1671143 0.8417969
vn -0.4724121 0.1687012 0.8652344
vn 0.02354431 -0.1671143 0.9858398
vn -0.479248 0.0007591248 0.8779297
vn -0.8417969 0.1687012 0.5131836
vn -0.4724121 -0.1671143 0.8652344
vn -0.8540039 0.0007591248 0.5205078
vn -0.9853516 0.1687012 0.02352905
vn -0.8417969 -0.1671143 0.5131836
vn -0.9995117 0.0007591248 0.02388
vn -0.8652344 0.1687012 -0.4724121
vn -0.9858398 -0.1671143 0.02354431
vn -0.8779297 0.0007586479 -0.479248
vn -0.5131836 0.1687012 -0.8417969
vn -0.8652344 -0.1671143 -0.4724121
vn -0.5205078 0.0007581711 -0.8540039
vn -0.02352905 0.1687012 -0.9853516
vn -0.5131836 -0.1671143 -0.8417969
vn -0.02388 0.0007581711 -0.9995117
vn 0.4724121 0.1687012 -0.8652344
vn -0.02354431 -0.1671143 -0.9858398
vn 0.479248 0.0007586479 -0.8779297
vn 0.8417969 0.1687012 -0.5131836
vn 0.4724121 -0.1671143 -0.8652344
vn 0.8540039 0.0007591248 -0.5205078
vn 0.9853516 0.1687012 -0.02352905
vn 0.8417969 -0.1671143 -0.5131836
vn 0.9995117 0.0007586479 -0.02388
vn 0.8652344 0.1687012 0.4724121
vn 0.9858398 -0.1671143 -0.02354431
vn 0.8779297 0.0007581711 0.479248
vn 0.5131836 0.1687012 0.8417969
vn 0.8652344 -0.1671143 0.4724121
vn 0.5205078 0.0007581711 0.8540039
vn 0.5131836 -0.1671143 0.8417969
vn 0.02288818 -0.2844238 0.9584961
vn 0.4990234 -0.2844238 0.8183594
vn 0.4926758 -0.3227539 0.8081055
vn 0.02259827 -0.3227539 0.9462891
vn -0.4594727 -0.2844238 0.8413086
vn 0.01947021 -0.5791016 0.8149414
vn 0.4243164 -0.5791016 0.6962891
vn -0.390625 -0.5791016 0.715332
vn -0.4536133 -0.3227539 0.8305664
vn -0.8183594 -0.2844238 0.4990234
vn -0.6962891 -0.5791016 0.4243164
vn -0.8081055 -0.3227539 0.4926758
vn -0.9584961 -0.2844238 0.02288818
vn -0.8149414 -0.5791016 0.01947021
vn -0.9462891 -0.3227539 0.02259827
vn -0.8413086 -0.2844238 -0.4594727
vn -0.715332 -0.5791016 -0.390625
vn -0.8305664 -0.3227539 -0.4536133
vn -0.4990234 -0.2844238 -0.8183594
vn -0.4243164 -0.5791016 -0.6962891
vn -0.4926758 -0.3227539 -0.8081055
vn -0.02288818 -0.2844238 -0.9584961
vn -0.01947021 -0.5791016 -0.8149414
vn -0.02259827 -0.3227539 -0.9462891
vn 0.4594727 -0.2844238 -0.8413086
vn 0.390625 -0.5791016 -0.715332
vn 0.4536133 -0.3227539 -0.8305664
vn 0.8183594 -0.2844238 -0.4990234
vn 0.6962891 -0.5791016 -0.4243164
vn 0.8081055 -0.3227539 -0.4926758
vn 0.9584961 -0.2844238 -0.02288818
vn 0.8149414 -0.5791016 -0.01947021
vn 0.9462891 -0.3227539 -0.02259827
vn 0.8413086 -0.2844238 0.4594727
vn 0.715332 -0.5791016 0.390625
vn 0.8305664 -0.3227539 0.4536133
vn 0.4990234 -0.2844238 0.8183594
vn 0.4243164 -0.5791016 0.6962891
vn 0.4926758 -0.3227539 0.8081055
vn 0.5117188 0.1818848 0.8393555
vn 0.5117188 0.1818848 0.8393555
vn 0.8632813 0.1818848 0.4711914
vn 0.8632813 0.1818848 0.4711914
vn 0.9829102 0.1818848 -0.02346802
vn 0.9829102 0.1818848 -0.02348328
vn 0.8393555 0.1818848 -0.5117188
vn 0.8393555 0.1818848 -0.5117188
vn 0.4711914 0.1818848 -0.8632813
vn 0.4711914 0.1818848 -0.8632813
vn -0.02346802 0.1818848 -0.9829102
vn -0.02346802 0.1818848 -0.9829102
vn -0.5117188 0.1818848 -0.8393555
vn -0.5117188 0.1818848 -0.8393555
vn -0.8632813 0.1818848 -0.4711914
vn -0.8632813 0.1818848 -0.4711914
vn -0.9829102 0.1818848 0.02348328
vn -0.9829102 0.1818848 0.02348328
vn -0.8393555 0.1818848 0.5117188
vn -0.8393555 0.1818848 0.5117188
vn -0.4711914 0.1818848 0.8632813
vn -0.4711914 0.1818848 0.8632813
vn 0.02348328 0.1818848 0.9829102
vn 0.02346802 0.1818848 0.9829102
vn 0.5117188 0.1818848 0.8393555
vn 0.5117188 0.1818848 0.8393555
vn 0.9716797 0 0.2357178
vn 0.9716797 0 0.2357178
vn 0.9921875 0.1234741 -0.0236969
vn 0.8710938 0.1234741 0.4755859
vn 0.8066406 0.394043 0.4404297
vn 0.9189453 0.394043 -0.02194214
vn 0.4785156 0.394043 0.784668
vn 0.847168 0.1234741 -0.5166016
vn 0.9594727 0 -0.2817383
vn 0.9594727 0 -0.2817383
vn 0.784668 0.394043 -0.4785156
vn 0.4755859 0.1234741 -0.8710938
vn 0.6899414 0 -0.7236328
vn 0.6899414 0 -0.7236328
vn 0.4404297 0.394043 -0.8066406
vn -0.0236969 0.1234741 -0.9921875
vn 0.2357178 0 -0.9716797
vn 0.2357178 0 -0.9716797
vn -0.02194214 0.394043 -0.9189453
vn -0.5166016 0.1234741 -0.847168
vn -0.4785156 0.394043 -0.784668
vn -0.2817383 0 -0.9594727
vn -0.2817383 0 -0.9594727
vn -0.7236328 0 -0.6899414
vn -0.7236328 0 -0.6899414
vn -0.8710938 0.1234741 -0.4755859
vn -0.5166016 0.1234741 -0.847168
vn -0.4785156 0.394043 -0.784668
vn -0.8066406 0.394043 -0.4404297
vn -0.9921875 0.1234741 0.0236969
vn -0.9716797 0 -0.2357178
vn -0.9716797 0 -0.2357178
vn -0.9189453 0.394043 0.02194214
vn -0.847168 0.1234741 0.5166016
vn -0.9594727 0 0.2817383
vn -0.9594727 0 0.2817383
vn -0.784668 0.394043 0.4785156
vn -0.4755859 0.1234741 0.8710938
vn -0.6899414 0 0.7236328
vn -0.6899414 0 0.7236328
vn -0.4404297 0.394043 0.8066406
vn 0.0236969 0.1234741 0.9921875
vn -0.2357178 0 0.9716797
vn -0.2357178 0 0.9716797
vn 0.02194214 0.394043 0.9189453
vn 0.5166016 0.1234741 0.847168
vn 0.2817383 0 0.9594727
vn 0.2817383 0 0.9594727
vn 0.7236328 0 0.6899414
vn 0.7236328 0 0.6899414
vn 0.15979 -0.9516602 0.262207
vn 0.2695313 -0.9516602 0.1470947
vn 0.01766968 -0.9995117 0.02897644
vn 0.02978516 -0.9995117 0.01626587
vn 0.3068848 -0.9516602 -0.007331848
vn 0 -1 0
vn 0.03393555 -0.9995117 -0.0008101463
vn 0.262207 -0.9516602 -0.15979
vn 0.02897644 -0.9995117 -0.01766968
vn 0.1470947 -0.9516602 -0.2695313
vn 0.01626587 -0.9995117 -0.02978516
vn -0.0008096695 -0.9995117 -0.03393555
vn -0.007328033 -0.9516602 -0.3068848
vn -0.15979 -0.9516602 -0.262207
vn -0.01766968 -0.9995117 -0.02897644
vn -0.2695313 -0.9516602 -0.1470947
vn -0.02978516 -0.9995117 -0.01626587
vn -0.3068848 -0.9516602 0.007331848
vn -0.03393555 -0.9995117 0.0008101463
vn -0.262207 -0.9516602 0.15979
vn -0.02897644 -0.9995117 0.01766968
vn -0.1470947 -0.9516602 0.2695313
vn -0.01626587 -0.9995117 0.02978516
vn 0.007328033 -0.9516602 0.3068848
vn 0.0008096695 -0.9995117 0.03393555
vn 0.01766968 -0.9995117 0.02897644
vn 0.15979 -0.9516602 0.262207
vn 0.05618286 0.9941406 0.09216309
vn 0.1600342 0.9516602 0.2624512
vn 0.007339478 0.9516602 0.307373
vn 0.002574921 0.9941406 0.1078491
vn -0.1473389 0.9516602 0.2697754
vn -0.001725197 0.9975586 -0.07220459
vn -0.03759766 0.9975586 -0.06167603
vn -0.1933594 0.9282227 -0.3171387
vn -0.008872986 0.9282227 -0.3713379
vn 0.03460693 0.9975586 -0.06341553
vn 0.1779785 0.9282227 -0.3259277
vn -0.05169678 0.9941406 0.09472656
vn -0.2624512 0.9516602 0.1600342
vn 0.06167603 0.9975586 -0.03759766
vn 0.3171387 0.9282227 -0.1933594
vn -0.09216309 0.9941406 0.05618286
vn -0.307373 0.9516602 0.007339478
vn 0.07220459 0.9975586 -0.001724243
vn 0.3713379 0.9282227 -0.008872986
vn -0.1078491 0.9941406 0.002576828
vn -0.2697754 0.9516602 -0.1473389
vn 0.06341553 0.9975586 0.03460693
vn 0.3259277 0.9282227 0.1779785
vn -0.09472656 0.9941406 -0.05169678
vn -0.1600342 0.9516602 -0.2624512
vn 0.03759766 0.9975586 0.06167603
vn 0.1933594 0.9282227 0.3171387
vn -0.05618286 0.9941406 -0.09216309
vn -0.007339478 0.9516602 -0.307373
vn 0.001725197 0.9975586 0.07220459
vn 0.008872986 0.9282227 0.3713379
vn -0.002574921 0.9941406 -0.1078491
vn 0.1473389 0.9516602 -0.2697754
vn -0.03460693 0.9975586 0.06341553
vn -0.1779785 0.9282227 0.3259277
vn 0.05169678 0.9941406 -0.09472656
vn 0.2624512 0.9516602 -0.1600342
vn -0.06167603 0.9975586 0.03759766
vn -0.3171387 0.9282227 0.1933594
vn 0.09216309 0.9941406 -0.05618286
vn 0.307373 0.9516602 -0.007339478
vn -0.07220459 0.9975586 0.001724243
vn -0.3713379 0.9282227 0.008872986
vn 0.1078491 0.9941406 -0.002576828
vn 0.2697754 0.9516602 0.1473389
vn -0.06341553 0.9975586 -0.03460693
vn -0.3259277 0.9282227 -0.1779785
vn 0.09472656 0.9941406 0.05169678
vn 0.1600342 0.9516602 0.2624512
vn 0.05618286 0.9941406 0.09216309
vn -0.03759766 0.9975586 -0.06167603
vn -0.1933594 0.9282227 -0.3171387
vn 0.4248047 0.578125 0.6967773
vn 0.7163086 0.578125 0.3908691
vn 0.4929199 0.3215332 0.8085938
vn 0.8310547 0.3215332 0.4538574
vn 0.8154297 0.578125 -0.01947021
vn 0.8417969 0.282959 0.4597168
vn 0.4992676 0.282959 0.8188477
vn 0.9589844 0.282959 -0.02290344
vn 0.9467773 0.3215332 -0.02259827
vn 0.6967773 0.578125 -0.4248047
vn 0.8188477 0.282959 -0.4992676
vn 0.8085938 0.3215332 -0.4929199
vn 0.3908691 0.578125 -0.7163086
vn 0.4597168 0.282959 -0.8417969
vn 0.4538574 0.3215332 -0.8310547
vn -0.01948547 0.578125 -0.8154297
vn -0.02290344 0.282959 -0.9589844
vn -0.02259827 0.3215332 -0.9467773
vn -0.4248047 0.578125 -0.6967773
vn -0.4992676 0.282959 -0.8188477
vn -0.4929199 0.3215332 -0.8085938
vn -0.7163086 0.578125 -0.3908691
vn -0.8417969 0.282959 -0.4597168
vn -0.8310547 0.3215332 -0.4538574
vn -0.8154297 0.578125 0.01948547
vn -0.9589844 0.282959 0.02290344
vn -0.9467773 0.3215332 0.02261353
vn -0.6967773 0.578125 0.4248047
vn -0.8188477 0.282959 0.4992676
vn -0.8085938 0.3215332 0.4929199
vn -0.3908691 0.578125 0.7163086
vn -0.4597168 0.282959 0.8417969
vn -0.4538574 0.3215332 0.8310547
vn 0.01948547 0.578125 0.8154297
vn 0.02290344 0.282959 0.9589844
vn 0.02259827 0.3215332 0.9467773
vn 0.4248047 0.578125 0.6967773
vn 0.4992676 0.282959 0.8188477
vn 0.4929199 0.3215332 0.8085938
vn 0.4926758 -0.3222656 0.8081055
vn 0.4926758 -0.3222656 0.8081055
vn 0.8310547 -0.3222656 0.4536133
vn 0.8310547 -0.3222656 0.4536133
vn 0.9462891 -0.3222656 -0.02259827
vn 0.9462891 -0.3222656 -0.02259827
vn 0.8081055 -0.3222656 -0.4926758
vn 0.8081055 -0.3222656 -0.4926758
vn 0.4536133 -0.3222656 -0.8310547
vn 0.4536133 -0.3222656 -0.8310547
vn -0.02259827 -0.3222656 -0.9462891
vn -0.02259827 -0.3222656 -0.9462891
vn -0.4926758 -0.3222656 -0.8081055
vn -0.4926758 -0.3222656 -0.8081055
vn -0.8310547 -0.3222656 -0.4536133
vn -0.8310547 -0.3222656 -0.4536133
vn -0.9462891 -0.3222656 0.02259827
vn -0.9462891 -0.3222656 0.02259827
vn -0.8081055 -0.3222656 0.4926758
vn -0.8081055 -0.3222656 0.4926758
vn -0.4536133 -0.3222656 0.8310547
vn -0.4536133 -0.3222656 0.8310547
vn 0.02259827 -0.3222656 0.9462891
vn 0.02259827 -0.3222656 0.9462891
vn 0.4926758 -0.3222656 0.8081055
vn 0.4926758 -0.3222656 0.8081055
vn 0.439209 -0.5366211 0.7202148
vn 0.439209 -0.5366211 0.7202148
vn 0.7407227 -0.5366211 0.4042969
vn 0.7407227 -0.5366211 0.4042969
vn 0.8432617 -0.5366211 -0.0201416
vn 0.8432617 -0.5366211 -0.0201416
vn 0.7202148 -0.5366211 -0.439209
vn 0.7202148 -0.5366211 -0.439209
vn 0.4042969 -0.5366211 -0.7407227
vn 0.4042969 -0.5366211 -0.7407227
vn -0.0201416 -0.5366211 -0.8432617
vn -0.0201416 -0.5366211 -0.8432617
vn -0.439209 -0.5366211 -0.7202148
vn -0.439209 -0.5366211 -0.7202148
vn -0.7407227 -0.5366211 -0.4042969
vn -0.7407227 -0.5366211 -0.4042969
vn -0.8432617 -0.5366211 0.0201416
vn -0.8432617 -0.5366211 0.0201416
vn -0.7202148 -0.5366211 0.439209
vn -0.7202148 -0.5366211 0.439209
vn -0.4042969 -0.5366211 0.7407227
vn -0.4042969 -0.5366211 0.7407227
vn 0.0201416 -0.5366211 0.8432617
vn 0.0201416 -0.5366211 0.8432617
vn 0.439209 -0.5366211 0.7202148
vn 0.439209 -0.5366211 0.7202148
vn 0.3425293 0.9208984 0.1870117
vn 0.203125 0.9208984 0.333252
vn 0.203125 0.9208984 0.333252
vn 0.3425293 0.9208984 0.1870117
vn 0.3901367 0.9208984 -0.009315491
vn 0.3901367 0.9208984 -0.009315491
vn 0.333252 0.9208984 -0.203125
vn 0.333252 0.9208984 -0.203125
vn 0.1870117 0.9208984 -0.3425293
vn 0.1870117 0.9208984 -0.3425293
vn -0.009315491 0.9208984 -0.3901367
vn -0.009315491 0.9208984 -0.3901367
vn -0.203125 0.9208984 -0.333252
vn -0.203125 0.9208984 -0.333252
vn -0.3425293 0.9208984 -0.1870117
vn -0.3425293 0.9208984 -0.1870117
vn -0.3901367 0.9208984 0.009315491
vn -0.3901367 0.9208984 0.009315491
vn -0.333252 0.9208984 0.203125
vn -0.333252 0.9208984 0.203125
vn -0.1870117 0.9208984 0.3425293
vn -0.1870117 0.9208984 0.3425293
vn 0.009315491 0.9208984 0.3901367
vn 0.009315491 0.9208984 0.3901367
vn 0.203125 0.9208984 0.333252
vn 0.203125 0.9208984 0.333252
vn 0.2183838 -0.9077148 0.3581543
vn 0.2183838 -0.9077148 0.3581543
vn 0.3681641 -0.9077148 0.2010498
vn 0.3681641 -0.9077148 0.2010498
vn 0.4194336 -0.9077148 -0.0100174
vn 0.4194336 -0.9077148 -0.0100174
vn 0.3581543 -0.9077148 -0.2183838
vn 0.3581543 -0.9077148 -0.2183838
vn 0.2010498 -0.9077148 -0.3681641
vn 0.2010498 -0.9077148 -0.3681641
vn -0.01000977 -0.9077148 -0.4194336
vn -0.0100174 -0.9077148 -0.4194336
vn -0.2183838 -0.9077148 -0.3581543
vn -0.2183838 -0.9077148 -0.3581543
vn -0.3681641 -0.9077148 -0.2010498
vn -0.3681641 -0.9077148 -0.2010498
vn -0.4194336 -0.9077148 0.0100174
vn -0.4194336 -0.9077148 0.0100174
vn -0.3581543 -0.9077148 0.2183838
vn -0.3581543 -0.9077148 0.2183838
vn -0.2010498 -0.9077148 0.3681641
vn -0.2010498 -0.9077148 0.3681641
vn 0.01000977 -0.9077148 0.4194336
vn 0.01000977 -0.9077148 0.4194336
vn 0.2183838 -0.9077148 0.3581543
vn 0.2183838 -0.9077148 0.3581543
vn 0.4484863 0.859375 0.244873
vn 0.2661133 0.859375 0.4362793
vn 0.2661133 0.859375 0.4362793
vn 0.4484863 0.859375 0.244873
vn 0.5107422 0.859375 -0.0121994
vn 0.5107422 0.859375 -0.0121994
vn 0.4362793 0.859375 -0.2661133
vn 0.4362793 0.859375 -0.2661133
vn 0.244873 0.859375 -0.4484863
vn 0.244873 0.859375 -0.4484863
vn -0.0121994 0.859375 -0.5107422
vn -0.0121994 0.859375 -0.5107422
vn -0.2661133 0.859375 -0.4362793
vn -0.2661133 0.859375 -0.4362793
vn -0.4484863 0.859375 -0.244873
vn -0.4484863 0.859375 -0.244873
vn -0.5107422 0.859375 0.0121994
vn -0.5107422 0.859375 0.0121994
vn -0.4362793 0.859375 0.2661133
vn -0.4362793 0.859375 0.2661133
vn -0.244873 0.859375 0.4484863
vn -0.244873 0.859375 0.4484863
vn 0.0121994 0.859375 0.5107422
vn 0.0121994 0.859375 0.5107422
vn 0.2661133 0.859375 0.4362793
vn 0.2661133 0.859375 0.4362793
vn 0 1 0
vn 0 1 0
vn 0 1 0
vn 0 1 0
vn 0 1 0
vn 0 1 0
vn 0 1 0
vn 0 1 0
vn 0 1 0
vn 0 1 0
vn 0 1 0
vn 0 1 0
vn 0 1 0
g Barrel_0
f 3/3/3 2/2/2 1/1/1
f 3/3/3 1/1/1 4/4/4
f 5/5/5 3/3/3 4/4/4
f 4/4/4 1/1/1 6/6/6
f 5/5/5 4/4/4 7/7/7
f 4/4/4 6/6/6 8/8/8
f 7/7/7 4/4/4 8/8/8
f 8/8/8 6/6/6 9/9/9
f 7/7/7 8/8/8 10/10/10
f 8/8/8 9/9/9 11/11/11
f 10/10/10 8/8/8 11/11/11
f 11/11/11 9/9/9 12/12/12
f 10/10/10 11/11/11 13/13/13
f 11/11/11 12/12/12 14/14/14
f 13/13/13 11/11/11 14/14/14
f 14/14/14 12/12/12 15/15/15
f 13/13/13 14/14/14 16/16/16
f 14/14/14 15/15/15 17/17/17
f 16/16/16 14/14/14 17/17/17
f 17/17/17 15/15/15 18/18/18
f 16/16/16 17/17/17 19/19/19
f 17/17/17 18/18/18 20/20/20
f 19/19/19 17/17/17 20/20/20
f 20/20/20 18/18/18 21/21/21
f 19/19/19 20/20/20 22/22/22
f 20/20/20 21/21/21 23/23/23
f 22/22/22 20/20/20 23/23/23
f 23/23/23 21/21/21 24/24/24
f 22/22/22 23/23/23 25/25/25
f 23/23/23 24/24/24 26/26/26
f 25/25/25 23/23/23 26/26/26
f 26/26/26 24/24/24 27/27/27
f 25/25/25 26/26/26 28/28/28
f 26/26/26 27/27/27 29/29/29
f 28/28/28 26/26/26 29/29/29
f 29/29/29 27/27/27 30/30/30
f 28/28/28 29/29/29 31/31/31
f 29/29/29 30/30/30 32/32/32
f 31/31/31 29/29/29 32/32/32
f 32/32/32 30/30/30 33/33/33
f 31/31/31 32/32/32 34/34/34
f 32/32/32 33/33/33 35/35/35
f 34/34/34 32/32/32 35/35/35
f 35/35/35 33/33/33 36/36/36
f 34/34/34 35/35/35 37/37/37
f 35/35/35 36/36/36 38/38/38
f 37/37/37 35/35/35 38/38/38
f 37/37/37 38/38/38 39/39/39
f 42/42/42 41/41/41 40/40/40
f 42/42/42 40/40/40 43/43/43
f 43/43/43 40/40/40 44/44/44
f 45/45/45 42/42/42 43/43/43
f 45/45/45 46/46/46 42/42/42
f 47/47/47 45/45/45 43/43/43
f 43/43/43 44/44/44 48/48/48
f 47/47/47 43/43/43 48/48/48
f 48/48/48 44/44/44 49/49/49
f 50/50/50 47/47/47 48/48/48
f 48/48/48 49/49/49 51/51/51
f 50/50/50 48/48/48 51/51/51
f 51/51/51 49/49/49 52/52/52
f 53/53/53 50/50/50 51/51/51
f 51/51/51 52/52/52 54/54/54
f 53/53/53 51/51/51 54/54/54
f 54/54/54 52/52/52 55/55/55
f 56/56/56 53/53/53 54/54/54
f 54/54/54 55/55/55 57/57/57
f 56/56/56 54/54/54 57/57/57
f 57/57/57 55/55/55 58/58/58
f 57/57/57 59/59/59 56/56/56
f 57/57/57 58/58/58 60/60/60
f 57/57/57 60/60/60 59/59/59
f 60/60/60 58/58/58 61/61/61
f 62/62/62 59/59/59 60/60/60
f 60/60/60 61/61/61 63/63/63
f 62/62/62 60/60/60 63/63/63
f 63/63/63 61/61/61 64/64/64
f 65/65/65 62/62/62 63/63/63
f 63/63/63 64/64/64 66/66/66
f 65/65/65 63/63/63 66/66/66
f 66/66/66 64/64/64 67/67/67
f 68/68/68 65/65/65 66/66/66
f 66/66/66 67/67/67 69/69/69
f 68/68/68 66/66/66 69/69/69
f 69/69/69 67/67/67 70/70/70
f 71/71/71 68/68/68 69/69/69
f 69/69/69 70/70/70 72/72/72
f 71/71/71 69/69/69 72/72/72
f 72/72/72 70/70/70 73/73/73
f 74/74/74 71/71/71 72/72/72
f 72/72/72 73/73/73 75/75/75
f 74/74/74 72/72/72 75/75/75
f 75/75/75 73/73/73 76/76/76
f 77/77/77 74/74/74 75/75/75
f 75/75/75 76/76/76 78/78/78
f 77/77/77 75/75/75 78/78/78
f 81/81/81 80/80/80 79/79/79
f 81/81/81 82/82/82 80/80/80
f 83/83/83 82/82/82 81/81/81
f 83/83/83 84/84/84 82/82/82
f 85/85/85 84/84/84 83/83/83
f 85/85/85 86/86/86 84/84/84
f 87/87/87 86/86/86 85/85/85
f 87/87/87 88/88/88 86/86/86
f 89/89/89 88/88/88 87/87/87
f 89/89/89 90/90/90 88/88/88
f 91/91/91 90/90/90 89/89/89
f 91/91/91 92/92/92 90/90/90
f 93/93/93 92/92/92 91/91/91
f 93/93/93 94/94/94 92/92/92
f 95/95/95 94/94/94 93/93/93
f 95/95/95 96/96/96 94/94/94
f 97/97/97 96/96/96 95/95/95
f 97/97/97 98/98/98 96/96/96
f 99/99/99 98/98/98 97/97/97
f 99/99/99 100/100/100 98/98/98
f 101/101/101 100/100/100 99/99/99
f 101/101/101 102/102/102 100/100/100
f 103/103/103 102/102/102 101/101/101
f 103/103/103 104/104/104 102/102/102
f 107/107/107 106/106/106 105/105/105
f 107/107/107 105/105/105 108/108/108
f 109/109/109 107/107/107 108/108/108
f 109/109/109 110/110/110 107/107/107
f 108/108/108 111/111/111 109/109/109
f 110/110/110 112/112/112 107/107/107
f 112/112/112 113/113/113 107/107/107
f 112/112/112 114/114/114 113/113/113
f 110/110/110 115/115/115 112/112/112
f 115/115/115 116/116/116 112/112/112
f 116/116/116 117/117/117 112/112/112
f 116/116/116 118/118/118 117/117/117
f 115/115/115 119/119/119 116/116/116
f 119/119/119 120/120/120 116/116/116
f 120/120/120 121/121/121 116/116/116
f 120/120/120 122/122/122 121/121/121
f 119/119/119 123/123/123 120/120/120
f 123/123/123 124/124/124 120/120/120
f 123/123/123 125/125/125 124/124/124
f 124/124/124 126/126/126 120/120/120
f 124/124/124 127/127/127 126/126/126
f 130/130/130 129/129/129 128/128/128
f 130/130/130 128/128/128 131/131/131
f 132/132/132 130/130/130 131/131/131
f 132/132/132 133/133/133 130/130/130
f 133/133/133 134/134/134 130/130/130
f 134/134/134 135/135/135 130/130/130
f 134/134/134 136/136/136 135/135/135
f 133/133/133 137/137/137 134/134/134
f 137/137/137 138/138/138 134/134/134
f 138/138/138 139/139/139 134/134/134
f 138/138/138 140/140/140 139/139/139
f 137/137/137 141/141/141 138/138/138
f 141/141/141 142/142/142 138/138/138
f 142/142/142 143/143/143 138/138/138
f 142/142/142 144/144/144 143/143/143
f 141/141/141 145/145/145 142/142/142
f 145/145/145 146/146/146 142/142/142
f 146/146/146 147/147/147 142/142/142
f 146/146/146 148/148/148 147/147/147
f 145/145/145 149/149/149 146/146/146
f 149/149/149 150/150/150 146/146/146
f 150/150/150 151/151/151 146/146/146
f 150/150/150 152/152/152 151/151/151
f 149/149/149 111/111/111 150/150/150
f 108/108/108 150/150/150 111/111/111
f 108/108/108 153/153/153 150/150/150
f 108/108/108 154/154/154 153/153/153
f 157/157/157 156/156/156 155/155/155
f 157/157/157 158/158/158 156/156/156
f 158/158/158 159/159/159 156/156/156
f 157/157/157 160/160/160 158/158/158
f 158/158/158 161/161/161 159/159/159
f 158/158/158 160/160/160 161/161/161
f 161/161/161 162/162/162 159/159/159
f 161/161/161 160/160/160 163/163/163
f 161/161/161 163/163/163 162/162/162
f 163/163/163 164/164/164 162/162/162
f 163/163/163 160/160/160 165/165/165
f 163/163/163 165/165/165 164/164/164
f 165/165/165 160/160/160 166/166/166
f 165/165/165 167/167/167 164/164/164
f 165/165/165 166/166/166 167/167/167
f 166/166/166 168/168/168 167/167/167
f 166/166/166 169/169/169 168/168/168
f 166/166/166 160/160/160 169/169/169
f 170/170/170 168/168/168 169/169/169
f 170/170/170 169/169/169 171/171/171
f 169/169/169 160/160/160 171/171/171
f 171/171/171 172/172/172 170/170/170
f 171/171/171 173/173/173 172/172/172
f 171/171/171 160/160/160 173/173/173
f 173/173/173 174/174/174 172/172/172
f 173/173/173 175/175/175 174/174/174
f 173/173/173 160/160/160 175/175/175
f 175/175/175 176/176/176 174/174/174
f 175/175/175 177/177/177 176/176/176
f 175/175/175 160/160/160 177/177/177
f 177/177/177 178/178/178 176/176/176
f 177/177/177 160/160/160 179/179/179
f 177/177/177 179/179/179 178/178/178
f 179/179/179 160/160/160 180/180/180
f 179/179/179 181/181/181 178/178/178
f 179/179/179 180/180/180 181/181/181
f 184/184/184 183/183/183 182/182/182
f 184/184/184 182/182/182 185/185/185
f 186/186/186 184/184/184 185/185/185
f 182/182/182 187/187/187 185/185/185
f 182/182/182 188/188/188 187/187/187
f 187/187/187 188/188/188 189/189/189
f 187/187/187 189/189/189 190/190/190
f 191/191/191 187/187/187 190/190/190
f 185/185/185 187/187/187 191/191/191
f 191/191/191 190/190/190 192/192/192
f 186/186/186 185/185/185 193/193/193
f 185/185/185 191/191/191 193/193/193
f 194/194/194 186/186/186 193/193/193
f 195/195/195 191/191/191 192/192/192
f 193/193/193 191/191/191 195/195/195
f 195/195/195 192/192/192 196/196/196
f 194/194/194 193/193/193 197/197/197
f 193/193/193 195/195/195 197/197/197
f 198/198/198 194/194/194 197/197/197
f 199/199/199 195/195/195 196/196/196
f 197/197/197 195/195/195 199/199/199
f 199/199/199 196/196/196 200/200/200
f 198/198/198 197/197/197 201/201/201
f 197/197/197 199/199/199 201/201/201
f 202/202/202 198/198/198 201/201/201
f 203/203/203 199/199/199 200/200/200
f 201/201/201 199/199/199 203/203/203
f 203/203/203 200/200/200 204/204/204
f 202/202/202 201/201/201 205/205/205
f 201/201/201 203/203/203 205/205/205
f 205/205/205 206/206/206 202/202/202
f 204/204/204 207/207/207 203/203/203
f 205/205/205 203/203/203 207/207/207
f 204/204/204 208/208/208 207/207/207
f 205/205/205 209/209/209 206/206/206
f 205/205/205 207/207/207 209/209/209
f 210/210/210 206/206/206 209/209/209
f 211/211/211 207/207/207 208/208/208
f 209/209/209 207/207/207 211/211/211
f 211/211/211 208/208/208 212/212/212
f 210/210/210 209/209/209 213/213/213
f 209/209/209 211/211/211 213/213/213
f 214/214/214 210/210/210 213/213/213
f 215/215/215 211/211/211 212/212/212
f 213/213/213 211/211/211 215/215/215
f 215/215/215 212/212/212 216/216/216
f 214/214/214 213/213/213 217/217/217
f 213/213/213 215/215/215 217/217/217
f 218/218/218 214/214/214 217/217/217
f 219/219/219 215/215/215 216/216/216
f 217/217/217 215/215/215 219/219/219
f 219/219/219 216/216/216 220/220/220
f 218/218/218 217/217/217 221/221/221
f 217/217/217 219/219/219 221/221/221
f 222/222/222 218/218/218 221/221/221
f 223/223/223 219/219/219 220/220/220
f 221/221/221 219/219/219 223/223/223
f 223/223/223 220/220/220 224/224/224
f 222/222/222 221/221/221 225/225/225
f 221/221/221 223/223/223 225/225/225
f 226/226/226 222/222/222 225/225/225
f 227/227/227 223/223/223 224/224/224
f 225/225/225 223/223/223 227/227/227
f 227/227/227 224/224/224 228/228/228
f 226/226/226 225/225/225 229/229/229
f 225/225/225 227/227/227 229/229/229
f 230/230/230 226/226/226 229/229/229
f 230/230/230 229/229/229 231/231/231
f 229/229/229 232/232/232 231/231/231
f 229/229/229 227/227/227 232/232/232
f 232/232/232 227/227/227 228/228/228
f 232/232/232 228/228/228 233/233/233
f 236/236/236 235/235/235 234/234/234
f 236/236/236 237/237/237 235/235/235
f 237/237/237 238/238/238 235/235/235
f 239/239/239 237/237/237 236/236/236
f 239/239/239 236/236/236 240/240/240
f 241/241/241 237/237/237 239/239/239
f 237/237/237 242/242/242 238/238/238
f 241/241/241 242/242/242 237/237/237
f 242/242/242 243/243/243 238/238/238
f 244/244/244 242/242/242 241/241/241
f 242/242/242 245/245/245 243/243/243
f 244/244/244 245/245/245 242/242/242
f 245/245/245 246/246/246 243/243/243
f 247/247/247 245/245/245 244/244/244
f 245/245/245 248/248/248 246/246/246
f 247/247/247 248/248/248 245/245/245
f 248/248/248 249/249/249 246/246/246
f 250/250/250 248/248/248 247/247/247
f 248/248/248 251/251/251 249/249/249
f 250/250/250 251/251/251 248/248/248
f 251/251/251 252/252/252 249/249/249
f 253/253/253 251/251/251 250/250/250
f 251/251/251 254/254/254 252/252/252
f 253/253/253 254/254/254 251/251/251
f 255/255/255 252/252/252 254/254/254
f 256/256/256 254/254/254 253/253/253
f 255/255/255 254/254/254 257/257/257
f 256/256/256 257/257/257 254/254/254
f 257/257/257 258/258/258 255/255/255
f 259/259/259 257/257/257 256/256/256
f 257/257/257 260/260/260 258/258/258
f 259/259/259 260/260/260 257/257/257
f 260/260/260 261/261/261 258/258/258
f 262/262/262 260/260/260 259/259/259
f 260/260/260 263/263/263 261/261/261
f 262/262/262 263/263/263 260/260/260
f 263/263/263 264/264/264 261/261/261
f 265/265/265 263/263/263 262/262/262
f 263/263/263 266/266/266 264/264/264
f 265/265/265 266/266/266 263/263/263
f 266/266/266 267/267/267 264/264/264
f 268/268/268 266/266/266 265/265/265
f 266/266/266 269/269/269 267/267/267
f 268/268/268 269/269/269 266/266/266
f 269/269/269 270/270/270 267/267/267
f 271/271/271 269/269/269 268/268/268
f 269/269/269 272/272/272 270/270/270
f 271/271/271 272/272/272 269/269/269
f 275/275/275 274/274/274 273/273/273
f 275/275/275 276/276/276 274/274/274
f 277/277/277 276/276/276 275/275/275
f 277/277/277 278/278/278 276/276/276
f 279/279/279 278/278/278 277/277/277
f 279/279/279 280/280/280 278/278/278
f 281/281/281 280/280/280 279/279/279
f 281/281/281 282/282/282 280/280/280
f 283/283/283 282/282/282 281/281/281
f 283/283/283 284/284/284 282/282/282
f 285/285/285 284/284/284 283/283/283
f 285/285/285 286/286/286 284/284/284
f 287/287/287 286/286/286 285/285/285
f 287/287/287 288/288/288 286/286/286
f 289/289/289 288/288/288 287/287/287
f 289/289/289 290/290/290 288/288/288
f 291/291/291 290/290/290 289/289/289
f 291/291/291 292/292/292 290/290/290
f 293/293/293 292/292/292 291/291/291
f 293/293/293 294/294/294 292/292/292
f 295/295/295 294/294/294 293/293/293
f 295/295/295 296/296/296 294/294/294
f 297/297/297 296/296/296 295/295/295
f 297/297/297 298/298/298 296/296/296
f 301/301/301 300/300/300 299/299/299
f 301/301/301 302/302/302 300/300/300
f 303/303/303 302/302/302 301/301/301
f 303/303/303 304/304/304 302/302/302
f 305/305/305 304/304/304 303/303/303
f 305/305/305 306/306/306 304/304/304
f 307/307/307 306/306/306 305/305/305
f 307/307/307 308/308/308 306/306/306
f 309/309/309 308/308/308 307/307/307
f 309/309/309 310/310/310 308/308/308
f 311/311/311 310/310/310 309/309/309
f 311/311/311 312/312/312 310/310/310
f 313/313/313 312/312/312 311/311/311
f 313/313/313 314/314/314 312/312/312
f 315/315/315 314/314/314 313/313/313
f 315/315/315 316/316/316 314/314/314
f 317/317/317 316/316/316 315/315/315
f 317/317/317 318/318/318 316/316/316
f 319/319/319 318/318/318 317/317/317
f 319/319/319 320/320/320 318/318/318
f 321/321/321 320/320/320 319/319/319
f 321/321/321 322/322/322 320/320/320
f 323/323/323 322/322/322 321/321/321
f 323/323/323 324/324/324 322/322/322
f 327/327/327 326/326/326 325/325/325
f 327/327/327 325/325/325 328/328/328
f 328/328/328 325/325/325 329/329/329
f 328/328/328 329/329/329 330/330/330
f 330/330/330 329/329/329 331/331/331
f 330/330/330 331/331/331 332/332/332
f 332/332/332 331/331/331 333/333/333
f 332/332/332 333/333/333 334/334/334
f 334/334/334 333/333/333 335/335/335
f 334/334/334 335/335/335 336/336/336
f 336/336/336 335/335/335 337/337/337
f 336/336/336 337/337/337 338/338/338
f 338/338/338 337/337/337 339/339/339
f 338/338/338 339/339/339 340/340/340
f 340/340/340 339/339/339 341/341/341
f 340/340/340 341/341/341 342/342/342
f 342/342/342 341/341/341 343/343/343
f 342/342/342 343/343/343 344/344/344
f 344/344/344 343/343/343 345/345/345
f 344/344/344 345/345/345 346/346/346
f 346/346/346 345/345/345 347/347/347
f 346/346/346 347/347/347 348/348/348
f 348/348/348 347/347/347 349/349/349
f 348/348/348 349/349/349 350/350/350
f 353/353/353 352/352/352 351/351/351
f 353/353/353 354/354/354 352/352/352
f 355/355/355 354/354/354 353/353/353
f 355/355/355 356/356/356 354/354/354
f 357/357/357 356/356/356 355/355/355
f 357/357/357 358/358/358 356/356/356
f 359/359/359 358/358/358 357/357/357
f 359/359/359 360/360/360 358/358/358
f 361/361/361 360/360/360 359/359/359
f 361/361/361 362/362/362 360/360/360
f 363/363/363 362/362/362 361/361/361
f 363/363/363 364/364/364 362/362/362
f 365/365/365 364/364/364 363/363/363
f 365/365/365 366/366/366 364/364/364
f 367/367/367 366/366/366 365/365/365
f 367/367/367 368/368/368 366/366/366
f 369/369/369 368/368/368 367/367/367
f 369/369/369 370/370/370 368/368/368
f 371/371/371 370/370/370 369/369/369
f 371/371/371 372/372/372 370/370/370
f 373/373/373 372/372/372 371/371/371
f 373/373/373 374/374/374 372/372/372
f 375/375/375 374/374/374 373/373/373
f 375/375/375 376/376/376 374/374/374
f 379/379/379 378/378/378 377/377/377
f 379/379/379 377/377/377 380/380/380
f 380/380/380 377/377/377 381/381/381
f 380/380/380 381/381/381 382/382/382
f 382/382/382 381/381/381 383/383/383
f 382/382/382 383/383/383 384/384/384
f 384/384/384 383/383/383 385/385/385
f 384/384/384 385/385/385 386/386/386
f 386/386/386 385/385/385 387/387/387
f 386/386/386 387/387/387 388/388/388
f 388/388/388 387/387/387 389/389/389
f 388/388/388 389/389/389 390/390/390
f 390/390/390 389/389/389 391/391/391
f 390/390/390 391/391/391 392/392/392
f 392/392/392 391/391/391 393/393/393
f 392/392/392 393/393/393 394/394/394
f 394/394/394 393/393/393 395/395/395
f 394/394/394 395/395/395 396/396/396
f 396/396/396 395/395/395 397/397/397
f 396/396/396 397/397/397 398/398/398
f 398/398/398 397/397/397 399/399/399
f 398/398/398 399/399/399 400/400/400
f 400/400/400 399/399/399 401/401/401
f 400/400/400 401/401/401 402/402/402
f 405/405/405 404/404/404 403/403/403
f 403/403/403 404/404/404 406/406/406
f 407/407/407 404/404/404 405/405/405
f 406/406/406 404/404/404 408/408/408
f 409/409/409 404/404/404 407/407/407
f 408/408/408 404/404/404 410/410/410
f 411/411/411 404/404/404 409/409/409
f 410/410/410 404/404/404 412/412/412
f 413/413/413 404/404/404 411/411/411
f 412/412/412 404/404/404 414/414/414
f 415/415/415 404/404/404 413/413/413
f 414/414/414 404/404/404 415/415/415
