g Barrel
v 0.01396973 0.7611235 0.5850453
v 0.3046197 0.7611235 0.4996783
v 0.3273303 0.5061235 0.5369295
v 0.01501099 0.5061235 0.6286615
v 0.3048358 0.2511235 0.5000311
v -0.2804224 0.7611235 0.5136493
v 0.01397888 0.2511235 0.5854574
v -0.3013306 0.5061235 0.5519424
v -0.4996789 0.7611235 0.3046216
v -0.2806219 0.2511235 0.5140112
v -0.5369312 0.5061235 0.3273328
v -0.5850452 0.7611235 0.01397095
v -0.5000317 0.2511235 0.3048372
v -0.6286603 0.5061235 0.01501221
v -0.5136493 0.7611235 -0.2804227
v -0.5854577 0.2511235 0.01398163
v -0.5519446 0.5061235 -0.3013284
v -0.304624 0.7611235 -0.4996777
v -0.5140125 0.2511235 -0.2806204
v -0.3273321 0.5061235 -0.5369293
v -0.01397217 0.7611235 -0.585043
v -0.304837 0.2511235 -0.5000296
v -0.01501404 0.5061235 -0.6286615
v 0.2804211 0.7611235 -0.5136477
v -0.01398193 0.2511235 -0.5854571
v 0.3013293 0.5061235 -0.5519428
v 0.4996771 0.7611235 -0.3046207
v 0.2806189 0.2511235 -0.5140109
v 0.5369293 0.5061235 -0.3273328
v 0.5850433 0.7611235 -0.01397003
v 0.5000305 0.2511235 -0.3048361
v 0.6286603 0.5061235 -0.01501312
v 0.5136487 0.7611235 0.2804233
v 0.5854559 0.2511235 -0.01398163
v 0.5519421 0.5061235 0.3013292
v 0.3046197 0.7611235 0.4996783
v 0.5140094 0.2511235 0.2806213
v 0.3273303 0.5061235 0.5369295
v 0.3048358 0.2511235 0.5000311
v 0.01315857 0.1353023 0.5511183
v 0.2869549 0.1353023 0.4707028
v 0.2690772 0.01948112 0.4413747
v 0.01234009 0.01948112 0.5167801
v -0.264162 0.1353023 0.4838638
v 0.01205322 0.002606725 0.5047973
v 0.2628381 0.002606725 0.4311397
v -0.2419605 0.002606725 0.443193
v -0.2477045 0.01948112 0.4537155
v -0.4707025 0.1353023 0.2869571
v -0.4311395 0.002606725 0.2628383
v -0.4413739 0.01948112 0.2690777
v -0.5511194 0.1353023 0.01316162
v -0.5047973 0.002606725 0.01205414
v -0.5167816 0.01948112 0.01234161
v -0.4838654 0.1353023 -0.2641608
v -0.4431964 0.002606725 -0.2419592
v -0.4537158 0.01948112 -0.2477026
v -0.2869574 0.1353023 -0.4707025
v -0.26284 0.002606725 -0.4311386
v -0.2690777 0.01948112 -0.4413733
v -0.01316223 0.1353023 -0.5511184
v -0.01205627 0.002606725 -0.5047973
v -0.01234131 0.01948112 -0.5167792
v 0.264162 0.1353023 -0.4838629
v 0.2419586 0.002606725 -0.4431936
v 0.2477008 0.01948112 -0.4537149
v 0.4707007 0.1353023 -0.2869562
v 0.4311389 0.002606725 -0.2628369
v 0.4413739 0.01948112 -0.2690762
v 0.5511181 0.1353023 -0.0131604
v 0.5047955 0.002606725 -0.01205414
v 0.5167798 0.01948112 -0.01234009
v 0.4838623 0.1353023 0.2641615
v 0.4431933 0.002606725 0.2419589
v 0.4537146 0.01948112 0.2477036
v 0.2869549 0.1353023 0.4707028
v 0.2628381 0.002606725 0.4311397
v 0.2690772 0.01948112 0.4413747
v 0.3124146 0.7846593 0.512463
v 0.3049493 0.8621908 0.5002158
v 0.5267907 0.784659 0.2875983
v 0.5142029 0.8621905 0.2807252
v 0.6000134 0.784659 -0.01432739
v 0.5856744 0.8621905 -0.01398468
v 0.5124621 0.784659 -0.3124158
v 0.5002173 0.8621905 -0.3049502
v 0.2875964 0.784659 -0.5267904
v 0.2807251 0.8621905 -0.5142025
v -0.014328 0.784659 -0.6000143
v -0.01398682 0.8621905 -0.5856744
v -0.312417 0.784659 -0.5124627
v -0.3049512 0.8621905 -0.5002148
v -0.5267914 0.784659 -0.287598
v -0.5142035 0.8621905 -0.2807251
v -0.6000159 0.7846593 0.01432922
v -0.5856751 0.8621908 0.0139856
v -0.5124627 0.7846596 0.312415
v -0.5002167 0.8621908 0.3049506
v -0.2875989 0.7846593 0.5267923
v -0.2807263 0.8621908 0.5142015
v 0.01432861 0.7846593 0.6000136
v 0.01398437 0.8621908 0.5856758
v 0.3124146 0.7846593 0.512463
v 0.3049493 0.8621908 0.5002158
v -0.3478918 0.9375988 -0.1899274
v -0.3962463 0.9375988 0.009461975
v -0.3962463 0.988684 0.009461975
v -0.3478918 0.988684 -0.1899274
v -0.3551941 1.008087 -0.1939142
v -0.4045642 1.008087 0.009660339
v -0.2106494 1.008087 -0.345531
v -0.3384283 0.988684 0.2063177
v -0.3962463 0.9375988 0.009461975
v -0.3384283 0.9375988 0.2063177
v -0.3455316 1.008087 0.2106483
v -0.1899292 0.988684 0.3478906
v -0.3384283 0.9375988 0.2063177
v -0.1899292 0.9375988 0.3478906
v -0.193916 1.008087 0.3551932
v 0.00946228 0.988684 0.3962456
v -0.1899292 0.9375988 0.3478906
v 0.00946228 0.9375988 0.3962456
v 0.009660034 1.008087 0.4045624
v 0.2063153 0.988684 0.3384279
v 0.210647 1.008087 0.3455324
v 0.00946228 0.9375988 0.3962456
v 0.2063153 0.9375988 0.3384279
v 0.2063153 0.9375988 0.3384279
v 0.3478882 0.9375988 0.1899289
v 0.3478882 0.988684 0.1899289
v 0.2063153 0.988684 0.3384279
v 0.210647 1.008087 0.3455324
v 0.3551916 1.008087 0.1939148
v 0.3962463 0.988684 -0.009461669
v 0.3478882 0.9375988 0.1899289
v 0.3962463 0.9375988 -0.009461669
v 0.4045642 1.008087 -0.009661254
v 0.3384259 0.988684 -0.2063171
v 0.3962463 0.9375988 -0.009461669
v 0.3384259 0.9375988 -0.2063171
v 0.3455304 1.008087 -0.2106473
v 0.1899286 0.988684 -0.3478903
v 0.3384259 0.9375988 -0.2063171
v 0.1899286 0.9375988 -0.3478903
v 0.1939148 1.008087 -0.3551932
v -0.009463501 0.988684 -0.3962448
v 0.1899286 0.9375988 -0.3478903
v -0.009463501 0.9375988 -0.3962448
v -0.009660644 1.008087 -0.404563
v -0.206319 0.988684 -0.338428
v -0.009463501 0.9375988 -0.3962448
v -0.206319 0.9375988 -0.338428
v -0.206319 0.9375988 -0.338428
v -0.3478918 0.9375988 -0.1899274
v 0.2628381 0.002606725 0.4311397
v 0.4431933 0.002606725 0.2419589
v 0.2523755 -0.003876429 0.4139821
v 0.425556 -0.003876429 0.2323292
v 0.5047955 0.002606725 -0.01205414
v -6.103515E-07 -0.003876429 0
v 0.484707 -0.003876429 -0.01157471
v 0.4311389 0.002606725 -0.2628369
v 0.4139807 -0.003876429 -0.2523782
v 0.2419586 0.002606725 -0.4431936
v 0.2323303 -0.003876429 -0.4255573
v -0.01157593 -0.003876429 -0.4847076
v -0.01205627 0.002606725 -0.5047973
v -0.26284 0.002606725 -0.4311386
v -0.2523785 -0.003876429 -0.4139816
v -0.4431964 0.002606725 -0.2419592
v -0.4255579 -0.003876429 -0.2323291
v -0.5047973 0.002606725 0.01205414
v -0.4847076 -0.003876429 0.01157501
v -0.4311395 0.002606725 0.2628383
v -0.4139819 -0.003876429 0.2523779
v -0.2419605 0.002606725 0.443193
v -0.2323309 -0.003876429 0.4255562
v 0.01205322 0.002606725 0.5047973
v 0.01157349 -0.003876429 0.4847081
v 0.2523755 -0.003876429 0.4139821
v 0.2628381 0.002606725 0.4311397
v 0.25237 1.016124 0.4139708
v 0.262829 1.009632 0.4311279
v 0.01205322 1.009632 0.5047833
v 0.01157471 1.016124 0.484693
v -0.2419525 1.009632 0.443183
v 0.01013977 1.016124 0.424646
v 0.2211035 1.016124 0.3626826
v 0.210647 1.008087 0.3455324
v 0.009660034 1.008087 0.4045624
v -0.2035412 1.016124 0.3728239
v -0.193916 1.008087 0.3551932
v -0.2323248 1.016124 0.4255449
v -0.4311291 1.009632 0.2628313
v -0.3626849 1.016124 0.221105
v -0.3455316 1.008087 0.2106483
v -0.4139709 1.016124 0.252371
v -0.5047839 1.009632 0.01205536
v -0.4246454 1.016124 0.01014099
v -0.4045642 1.008087 0.009660339
v -0.4846942 1.016124 0.01157501
v -0.4431823 1.009632 -0.2419516
v -0.3728247 1.016124 -0.2035391
v -0.3551941 1.008087 -0.1939142
v -0.4255444 1.016124 -0.232323
v -0.2628314 1.009632 -0.4311282
v -0.2211053 1.016124 -0.3626822
v -0.2106494 1.008087 -0.345531
v -0.2523712 1.016124 -0.4139688
v -0.01205444 1.009632 -0.5047827
v -0.01014221 1.016124 -0.4246448
v -0.009660644 1.008087 -0.404563
v -0.01157471 1.016124 -0.4846942
v 0.2419519 1.009632 -0.4431818
v 0.20354 1.016124 -0.3728226
v 0.1939148 1.008087 -0.3551932
v 0.2323218 1.016124 -0.4255444
v 0.4311273 1.009632 -0.2628305
v 0.3626813 1.016124 -0.2211044
v 0.3455304 1.008087 -0.2106473
v 0.4139697 1.016124 -0.2523706
v 0.5047821 1.009632 -0.01205353
v 0.4246448 1.016124 -0.01014038
v 0.4045642 1.008087 -0.009661254
v 0.4846918 1.016124 -0.01157471
v 0.4431805 1.009632 0.2419527
v 0.3728235 1.016124 0.2035405
v 0.3551916 1.008087 0.1939148
v 0.4255432 1.016124 0.2323224
v 0.262829 1.009632 0.4311279
v 0.25237 1.016124 0.4139708
v 0.2211035 1.016124 0.3626826
v 0.210647 1.008087 0.3455324
v 0.262829 1.009632 0.4311279
v 0.4431805 1.009632 0.2419527
v 0.26906 0.9927434 0.4413478
v 0.4536847 0.9927434 0.2476877
v 0.5047821 1.009632 -0.01205353
v 0.4836676 0.8769335 0.2640559
v 0.2868396 0.8769335 0.4705124
v 0.550896 0.8769335 -0.01315521
v 0.5167474 0.9927434 -0.0123407
v 0.4311273 1.009632 -0.2628305
v 0.4705127 0.8769335 -0.2868414
v 0.441347 0.9927434 -0.2690607
v 0.2419519 1.009632 -0.4431818
v 0.2640546 0.8769335 -0.4836664
v 0.2476855 0.9927434 -0.4536868
v -0.01205444 1.009632 -0.5047827
v -0.01315735 0.8769335 -0.5508963
v -0.01234131 0.9927434 -0.5167487
v -0.2628314 1.009632 -0.4311282
v -0.286842 0.8769335 -0.4705124
v -0.2690607 0.9927434 -0.441347
v -0.4431823 1.009632 -0.2419516
v -0.48367 0.8769335 -0.2640546
v -0.4536877 0.9927434 -0.2476868
v -0.5047839 1.009632 0.01205536
v -0.5508966 0.8769335 0.01315582
v -0.5167499 0.9927434 0.012341
v -0.4311291 1.009632 0.2628313
v -0.4705133 0.8769335 0.2868417
v -0.4413477 0.9927434 0.2690617
v -0.2419525 1.009632 0.443183
v -0.264057 0.8769335 0.4836688
v -0.2476892 0.9927434 0.4536871
v 0.01205322 1.009632 0.5047833
v 0.01315491 0.8769335 0.5508972
v 0.01233765 0.9927434 0.516749
v 0.262829 1.009632 0.4311279
v 0.2868396 0.8769335 0.4705124
v 0.26906 0.9927434 0.4413478
v 0.3046197 0.7611235 0.4996783
v 0.3124146 0.7846593 0.512463
v 0.5136487 0.7611235 0.2804233
v 0.5267907 0.784659 0.2875983
v 0.5850433 0.7611235 -0.01397003
v 0.6000134 0.784659 -0.01432739
v 0.4996771 0.7611235 -0.3046207
v 0.5124621 0.784659 -0.3124158
v 0.2804211 0.7611235 -0.5136477
v 0.2875964 0.784659 -0.5267904
v -0.01397217 0.7611235 -0.585043
v -0.014328 0.784659 -0.6000143
v -0.304624 0.7611235 -0.4996777
v -0.312417 0.784659 -0.5124627
v -0.5136493 0.7611235 -0.2804227
v -0.5267914 0.784659 -0.287598
v -0.5850452 0.7611235 0.01397095
v -0.6000159 0.7846593 0.01432922
v -0.4996789 0.7611235 0.3046216
v -0.5124627 0.7846596 0.312415
v -0.2804224 0.7611235 0.5136493
v -0.2875989 0.7846593 0.5267923
v 0.01396973 0.7611235 0.5850453
v 0.01432861 0.7846593 0.6000136
v 0.3046197 0.7611235 0.4996783
v 0.3124146 0.7846593 0.512463
v 0.5142029 0.8621905 0.2807252
v 0.3049493 0.8621908 0.5002158
v 0.2868396 0.8769335 0.4705124
v 0.4836676 0.8769335 0.2640559
v 0.5856744 0.8621905 -0.01398468
v 0.550896 0.8769335 -0.01315521
v 0.5002173 0.8621905 -0.3049502
v 0.4705127 0.8769335 -0.2868414
v 0.2807251 0.8621905 -0.5142025
v 0.2640546 0.8769335 -0.4836664
v -0.01398682 0.8621905 -0.5856744
v -0.01315735 0.8769335 -0.5508963
v -0.3049512 0.8621905 -0.5002148
v -0.286842 0.8769335 -0.4705124
v -0.5142035 0.8621905 -0.2807251
v -0.48367 0.8769335 -0.2640546
v -0.5856751 0.8621908 0.0139856
v -0.5508966 0.8769335 0.01315582
v -0.5002167 0.8621908 0.3049506
v -0.4705133 0.8769335 0.2868417
v -0.2807263 0.8621908 0.5142015
v -0.264057 0.8769335 0.4836688
v 0.01398437 0.8621908 0.5856758
v 0.01315491 0.8769335 0.5508972
v 0.3049493 0.8621908 0.5002158
v 0.2868396 0.8769335 0.4705124
v -0.009463501 0.9375988 -0.3962448
v -6.103515E-07 0.9375988 0
v -0.206319 0.9375988 -0.338428
v 0.1899286 0.9375988 -0.3478903
v -0.3478918 0.9375988 -0.1899274
v 0.3384259 0.9375988 -0.2063171
v -0.3962463 0.9375988 0.009461975
v 0.3962463 0.9375988 -0.009461669
v -0.3384283 0.9375988 0.2063177
v 0.3478882 0.9375988 0.1899289
v -0.1899292 0.9375988 0.3478906
v 0.2063153 0.9375988 0.3384279
v 0.00946228 0.9375988 0.3962456
v -0.2958581 0.2322197 0.5419206
v -0.527182 0.2322197 0.3213876
v -0.5000317 0.2511235 0.3048372
v -0.2806219 0.2511235 0.5140112
v -0.5854577 0.2511235 0.01398163
v 0.01473938 0.2322197 0.6172465
v -0.6172461 0.2322197 0.01474091
v 0.01397888 0.2511235 0.5854574
v -0.5140125 0.2511235 -0.2806204
v 0.3213873 0.2322197 0.5271808
v -0.5419208 0.2322197 -0.2958563
v 0.3048358 0.2511235 0.5000311
v -0.304837 0.2511235 -0.5000296
v 0.5419189 0.2322197 0.2958592
v -0.3213898 0.2322197 -0.5271805
v 0.5140094 0.2511235 0.2806213
v -0.01398193 0.2511235 -0.5854571
v 0.6172448 0.2322197 -0.01473907
v -0.01474121 0.2322197 -0.6172445
v 0.5854559 0.2511235 -0.01398163
v 0.2806189 0.2511235 -0.5140109
v 0.5271789 0.2322197 -0.3213873
v 0.2958581 0.2322197 -0.5419198
v 0.5000305 0.2511235 -0.3048361
v -0.4707025 0.1353023 0.2869571
v -0.5042871 0.1534798 0.3074318
v -0.264162 0.1353023 0.4838638
v -0.5904425 0.1534798 0.01410065
v -0.2830121 0.1534798 0.5183879
v -0.5511194 0.1353023 0.01316162
v 0.01315857 0.1353023 0.5511183
v -0.5183887 0.1534798 -0.2830087
v 0.01410034 0.1534798 0.5904422
v -0.4838654 0.1353023 -0.2641608
v 0.2869549 0.1353023 0.4707028
v -0.3074322 0.1534798 -0.5042877
v 0.307431 0.1534798 0.5042881
v -0.2869574 0.1353023 -0.4707025
v 0.4838623 0.1353023 0.2641615
v -0.01410156 0.1534798 -0.5904406
v 0.5183868 0.1534798 0.2830099
v -0.01316223 0.1353023 -0.5511184
v 0.5511181 0.1353023 -0.0131604
v 0.2830096 0.1534798 -0.5183862
v 0.59044 0.1534798 -0.01409973
v 0.264162 0.1353023 -0.4838629
v 0.4707007 0.1353023 -0.2869562
v 0.5042865 0.1534798 -0.3074304
v -0.5042871 0.1534798 0.3074318
v -0.527182 0.2322197 0.3213876
v -0.2830121 0.1534798 0.5183879
v -0.6172461 0.2322197 0.01474091
v -0.2958581 0.2322197 0.5419206
v -0.5904425 0.1534798 0.01410065
v 0.01410034 0.1534798 0.5904422
v -0.5419208 0.2322197 -0.2958563
v 0.01473938 0.2322197 0.6172465
v -0.5183887 0.1534798 -0.2830087
v 0.307431 0.1534798 0.5042881
v -0.3213898 0.2322197 -0.5271805
v 0.3213873 0.2322197 0.5271808
v -0.3074322 0.1534798 -0.5042877
v 0.5183868 0.1534798 0.2830099
v -0.01474121 0.2322197 -0.6172445
v 0.5419189 0.2322197 0.2958592
v -0.01410156 0.1534798 -0.5904406
v 0.59044 0.1534798 -0.01409973
v 0.2958581 0.2322197 -0.5419198
v 0.6172448 0.2322197 -0.01473907
v 0.2830096 0.1534798 -0.5183862
v 0.5042865 0.1534798 -0.3074304
v 0.5271789 0.2322197 -0.3213873
vt 0.1513672 0.8481445
vt 0.1535645 0.8481445
vt 0.1536865 0.8461914
vt 0.1513672 0.8461914
vt 0.1535645 0.8447266
vt 0.1490479 0.8481445
vt 0.1513672 0.8447266
vt 0.1491699 0.8461914
vt 0.1468506 0.8481445
vt 0.1491699 0.8447266
vt 0.1468506 0.8461914
vt 0.1446533 0.8481445
vt 0.1468506 0.8447266
vt 0.1446533 0.8461914
vt 0.142334 0.8481445
vt 0.1446533 0.8442383
vt 0.142334 0.8461914
vt 0.1401367 0.8481445
vt 0.142334 0.8442383
vt 0.1401367 0.8461914
vt 0.1378174 0.8481445
vt 0.1401367 0.8442383
vt 0.1378174 0.8461914
vt 0.1356201 0.8481445
vt 0.1378174 0.8442383
vt 0.1356201 0.8461914
vt 0.1333008 0.8481445
vt 0.1356201 0.8442383
vt 0.1333008 0.8461914
vt 0.1311035 0.8481445
vt 0.1334229 0.8442383
vt 0.1311035 0.8461914
vt 0.1289063 0.8481445
vt 0.1311035 0.8442383
vt 0.1287842 0.8461914
vt 0.1265869 0.8481445
vt 0.1289063 0.8442383
vt 0.1265869 0.8461914
vt 0.126709 0.8442383
vt 0.1491699 0.8569336
vt 0.147583 0.8564453
vt 0.1472168 0.8569336
vt 0.1488037 0.8579102
vt 0.1505127 0.8583984
vt 0.1486816 0.8579102
vt 0.1472168 0.8569336
vt 0.1496582 0.8588867
vt 0.1497803 0.8588867
vt 0.151001 0.8603516
vt 0.1501465 0.8603516
vt 0.1502686 0.8603516
vt 0.1506348 0.8623047
vt 0.1497803 0.8618164
vt 0.1499023 0.8618164
vt 0.1495361 0.8637695
vt 0.1489258 0.8632813
vt 0.1490479 0.8632813
vt 0.1477051 0.8647461
vt 0.147583 0.8637695
vt 0.147583 0.8637695
vt 0.145874 0.8647461
vt 0.1459961 0.8637695
vt 0.1459961 0.8637695
vt 0.144165 0.8637695
vt 0.1447754 0.862793
vt 0.1446533 0.8632813
vt 0.1430664 0.8623047
vt 0.1437988 0.8618164
vt 0.1436768 0.8618164
vt 0.1427002 0.8603516
vt 0.1436768 0.8603516
vt 0.1435547 0.8603516
vt 0.1433105 0.8583984
vt 0.144165 0.8588867
vt 0.144043 0.8588867
vt 0.1445313 0.8569336
vt 0.1451416 0.8574219
vt 0.1451416 0.8574219
vt 0.02560425 0.8540039
vt 0.02593994 0.8544922
vt 0.02748108 0.8530273
vt 0.02775574 0.8535156
vt 0.02946472 0.8520508
vt 0.02967834 0.8525391
vt 0.03152466 0.8510742
vt 0.03170776 0.8515625
vt 0.03366089 0.8505859
vt 0.03378296 0.8510742
vt 0.03582764 0.8500977
vt 0.03588867 0.8510742
vt 0.0380249 0.8500977
vt 0.0380249 0.8505859
vt 0.04022217 0.8505859
vt 0.04016113 0.8510742
vt 0.04238892 0.8505859
vt 0.04226685 0.8515625
vt 0.04449463 0.8515625
vt 0.04431152 0.8520508
vt 0.04653931 0.8520508
vt 0.04629517 0.8530273
vt 0.04846191 0.8535156
vt 0.04815674 0.8540039
vt 0.05029297 0.8544922
vt 0.04992676 0.8549805
vt 0.1479492 0.855957
vt 0.149292 0.8564453
vt 0.1494141 0.8564453
vt 0.1480713 0.855957
vt 0.1480713 0.8554688
vt 0.1495361 0.855957
vt 0.1464844 0.8554688
vt 0.1506348 0.8574219
vt 0.149292 0.8564453
vt 0.1502686 0.8574219
vt 0.1507568 0.8574219
vt 0.1513672 0.8583984
vt 0.1502686 0.8574219
vt 0.151123 0.8588867
vt 0.1516113 0.8583984
vt 0.1518555 0.8598633
vt 0.151123 0.8588867
vt 0.1514893 0.8603516
vt 0.1519775 0.8598633
vt 0.1517334 0.8618164
vt 0.1518555 0.8618164
vt 0.1514893 0.8603516
vt 0.1513672 0.8613281
vt 0.1424561 0.8623047
vt 0.1422119 0.8608398
vt 0.1418457 0.8608398
vt 0.1420898 0.8623047
vt 0.1419678 0.8623047
vt 0.1416016 0.8608398
vt 0.1419678 0.859375
vt 0.1422119 0.8608398
vt 0.142334 0.859375
vt 0.1418457 0.859375
vt 0.1427002 0.8579102
vt 0.142334 0.859375
vt 0.1429443 0.8579102
vt 0.1425781 0.8579102
vt 0.1436768 0.8569336
vt 0.1429443 0.8579102
vt 0.1439209 0.8569336
vt 0.1435547 0.8564453
vt 0.1450195 0.855957
vt 0.1439209 0.8569336
vt 0.1451416 0.8564453
vt 0.1448975 0.855957
vt 0.1464844 0.8554688
vt 0.1451416 0.8564453
vt 0.1464844 0.855957
vt 0.1464844 0.855957
vt 0.1479492 0.855957
vt 0.1451416 0.8574219
vt 0.144165 0.8588867
vt 0.1452637 0.8579102
vt 0.1442871 0.8588867
vt 0.1436768 0.8603516
vt 0.1468506 0.8603516
vt 0.1437988 0.8603516
vt 0.1437988 0.8618164
vt 0.1439209 0.8618164
vt 0.1447754 0.862793
vt 0.1447754 0.862793
vt 0.1461182 0.8637695
vt 0.1459961 0.8637695
vt 0.147583 0.8637695
vt 0.147583 0.8637695
vt 0.1489258 0.8632813
vt 0.1488037 0.862793
vt 0.1497803 0.8618164
vt 0.1497803 0.8618164
vt 0.1501465 0.8603516
vt 0.1500244 0.8603516
vt 0.1496582 0.8588867
vt 0.1495361 0.8588867
vt 0.1486816 0.8579102
vt 0.1485596 0.8579102
vt 0.1472168 0.8574219
vt 0.1472168 0.8569336
vt 0.1524658 0.8618164
vt 0.1525879 0.8618164
vt 0.15271 0.8598633
vt 0.1525879 0.8598633
vt 0.1522217 0.8583984
vt 0.1520996 0.8598633
vt 0.1519775 0.8618164
vt 0.1518555 0.8618164
vt 0.1519775 0.8598633
vt 0.1517334 0.8583984
vt 0.1516113 0.8583984
vt 0.1520996 0.8583984
vt 0.1512451 0.8569336
vt 0.1508789 0.8569336
vt 0.1507568 0.8574219
vt 0.151123 0.8569336
vt 0.1499023 0.8554688
vt 0.1495361 0.855957
vt 0.1495361 0.855957
vt 0.1497803 0.8554688
vt 0.1481934 0.8549805
vt 0.1480713 0.8554688
vt 0.1480713 0.8554688
vt 0.1481934 0.8549805
vt 0.1464844 0.8544922
vt 0.1464844 0.8554688
vt 0.1464844 0.8554688
vt 0.1464844 0.8549805
vt 0.1446533 0.8549805
vt 0.1448975 0.8554688
vt 0.1448975 0.855957
vt 0.1447754 0.8554688
vt 0.1431885 0.855957
vt 0.1434326 0.8564453
vt 0.1435547 0.8564453
vt 0.1431885 0.855957
vt 0.1419678 0.8574219
vt 0.142334 0.8574219
vt 0.1425781 0.8579102
vt 0.1420898 0.8574219
vt 0.1411133 0.8588867
vt 0.1417236 0.8588867
vt 0.1418457 0.859375
vt 0.1413574 0.8588867
vt 0.1408691 0.8608398
vt 0.1414795 0.8608398
vt 0.1416016 0.8608398
vt 0.1411133 0.8608398
vt 0.1412354 0.862793
vt 0.1413574 0.8623047
vt 0.1417236 0.8623047
vt 0.1419678 0.8623047
vt 0.1412354 0.862793
vt 0.1408691 0.8608398
vt 0.1411133 0.862793
vt 0.1407471 0.8608398
vt 0.1411133 0.8588867
vt 0.1398926 0.8608398
vt 0.1402588 0.862793
vt 0.1401367 0.8588867
vt 0.1409912 0.8588867
vt 0.1419678 0.8574219
vt 0.1411133 0.8569336
vt 0.1418457 0.8574219
vt 0.1431885 0.855957
vt 0.1424561 0.8549805
vt 0.1430664 0.855957
vt 0.1446533 0.8549805
vt 0.1442871 0.8540039
vt 0.1446533 0.8549805
vt 0.1464844 0.8544922
vt 0.1463623 0.8535156
vt 0.1464844 0.8544922
vt 0.1481934 0.8549805
vt 0.1484375 0.8540039
vt 0.1483154 0.8549805
vt 0.1499023 0.8554688
vt 0.1503906 0.8544922
vt 0.1500244 0.8554688
vt 0.1512451 0.8569336
vt 0.1519775 0.855957
vt 0.1513672 0.8564453
vt 0.1522217 0.8583984
vt 0.1531982 0.8579102
vt 0.1523438 0.8583984
vt 0.15271 0.8598633
vt 0.1536865 0.8598633
vt 0.152832 0.8598633
vt 0.1525879 0.8618164
vt 0.1535645 0.8618164
vt 0.15271 0.8618164
vt 0.02552795 0.8540039
vt 0.02560425 0.8540039
vt 0.02738953 0.8525391
vt 0.02748108 0.8530273
vt 0.02938843 0.8515625
vt 0.02946472 0.8520508
vt 0.03146362 0.8510742
vt 0.03152466 0.8510742
vt 0.03363037 0.8505859
vt 0.03366089 0.8505859
vt 0.03582764 0.8500977
vt 0.03582764 0.8500977
vt 0.03805542 0.8500977
vt 0.0380249 0.8500977
vt 0.04025269 0.8500977
vt 0.04022217 0.8505859
vt 0.04244995 0.8505859
vt 0.04238892 0.8505859
vt 0.04458618 0.8510742
vt 0.04449463 0.8515625
vt 0.04663086 0.8520508
vt 0.04653931 0.8520508
vt 0.04855347 0.8530273
vt 0.04846191 0.8535156
vt 0.05038452 0.8544922
vt 0.05029297 0.8544922
vt 0.02775574 0.8535156
vt 0.02593994 0.8544922
vt 0.02613831 0.8544922
vt 0.02789307 0.8535156
vt 0.02967834 0.8525391
vt 0.02978516 0.8525391
vt 0.03170776 0.8515625
vt 0.0317688 0.8520508
vt 0.03378296 0.8510742
vt 0.03381348 0.8515625
vt 0.03588867 0.8510742
vt 0.03591919 0.8510742
vt 0.0380249 0.8505859
vt 0.0380249 0.8510742
vt 0.04016113 0.8510742
vt 0.04013062 0.8510742
vt 0.04226685 0.8515625
vt 0.04220581 0.8515625
vt 0.04431152 0.8520508
vt 0.04421997 0.8520508
vt 0.04629517 0.8530273
vt 0.0461731 0.8530273
vt 0.04815674 0.8540039
vt 0.04803467 0.8540039
vt 0.04992676 0.8549805
vt 0.04971313 0.8554688
vt 0.5327148 0.8686523
vt 0.5332031 0.8515625
vt 0.5239258 0.8662109
vt 0.5415039 0.8666992
vt 0.5180664 0.8598633
vt 0.5478516 0.8603516
vt 0.5161133 0.8510742
vt 0.550293 0.8520508
vt 0.5185547 0.8422852
vt 0.5483398 0.8432617
vt 0.5249023 0.8364258
vt 0.5419922 0.8369141
vt 0.5336914 0.8339844
vt 0.04302979 0.8359375
vt 0.03540039 0.8432617
vt 0.03631592 0.84375
vt 0.04351807 0.8369141
vt 0.03347778 0.8535156
vt 0.05325317 0.8334961
vt 0.03244019 0.8535156
vt 0.05325317 0.8344727
vt 0.03582764 0.8632813
vt 0.06335449 0.8364258
vt 0.03491211 0.8637695
vt 0.06280518 0.8374023
vt 0.04272461 0.8701172
vt 0.07061768 0.8442383
vt 0.04217529 0.8710938
vt 0.06970215 0.8447266
vt 0.05230713 0.8730469
vt 0.07312012 0.8544922
vt 0.05230713 0.8740234
vt 0.07208252 0.8544922
vt 0.06204224 0.8706055
vt 0.07012939 0.8642578
vt 0.06256104 0.871582
vt 0.0692749 0.8637695
vt 0.03726196 0.8442383
vt 0.03616333 0.84375
vt 0.04406738 0.8378906
vt 0.0333252 0.8535156
vt 0.04345703 0.8369141
vt 0.03460693 0.8535156
vt 0.05322266 0.8354492
vt 0.03570557 0.8632813
vt 0.05325317 0.8344727
vt 0.03683472 0.8623047
vt 0.06222534 0.8383789
vt 0.04266357 0.8706055
vt 0.06292725 0.8374023
vt 0.04333496 0.8691406
vt 0.06872559 0.8452148
vt 0.05230713 0.8730469
vt 0.06988525 0.8447266
vt 0.05233765 0.8720703
vt 0.07092285 0.8544922
vt 0.06210327 0.8710938
vt 0.07226563 0.8544922
vt 0.06149292 0.8696289
vt 0.06829834 0.8632813
vt 0.06939697 0.8637695
vt 0.03616333 0.84375
vt 0.03540039 0.8432617
vt 0.04345703 0.8369141
vt 0.03244019 0.8535156
vt 0.04302979 0.8359375
vt 0.0333252 0.8535156
vt 0.05325317 0.8344727
vt 0.03491211 0.8637695
vt 0.05325317 0.8334961
vt 0.03570557 0.8632813
vt 0.06292725 0.8374023
vt 0.04217529 0.8710938
vt 0.06335449 0.8364258
vt 0.04266357 0.8706055
vt 0.06988525 0.8447266
vt 0.05230713 0.8740234
vt 0.07061768 0.8442383
vt 0.05230713 0.8730469
vt 0.07226563 0.8544922
vt 0.06256104 0.871582
vt 0.07312012 0.8544922
vt 0.06210327 0.8710938
vt 0.06939697 0.8637695
vt 0.07012939 0.8642578
vn 0.02352905 0.1687012 0.9853516
vn 0.5131836 0.1687012 0.8417969
vn 0.5205078 0.0007581711 0.8540039
vn 0.02388 0.0007586479 0.9995117
vn 0.5131836 -0.1671143 0.8417969
vn -0.4724121 0.1687012 0.8652344
vn 0.02354431 -0.1671143 0.9858398
vn -0.479248 0.0007591248 0.8779297
vn -0.8417969 0.1687012 0.5131836
vn -0.4724121 -0.1671143 0.8652344
vn -0.8540039 0.0007591248 0.5205078
vn -0.9853516 0.1687012 0.02352905
vn -0.8417969 -0.1671143 0.5131836
vn -0.9995117 0.0007591248 0.02388
vn -0.8652344 0.1687012 -0.4724121
vn -0.9858398 -0.1671143 0.02354431
vn -0.8779297 0.0007586479 -0.479248
vn -0.5131836 0.1687012 -0.8417969
vn -0.8652344 -0.1671143 -0.4724121
vn -0.5205078 0.0007581711 -0.8540039
vn -0.02352905 0.1687012 -0.9853516
vn -0.5131836 -0.1671143 -0.8417969
vn -0.02388 0.0007581711 -0.9995117
vn 0.4724121 0.1687012 -0.8652344
vn -0.02354431 -0.1671143 -0.9858398
vn 0.479248 0.0007586479 -0.8779297
vn 0.8417969 0.1687012 -0.5131836
vn 0.4724121 -0.1671143 -0.8652344
vn 0.8540039 0.0007591248 -0.5205078
vn 0.9853516 0.1687012 -0.02352905
vn 0.8417969 -0.1671143 -0.5131836
vn 0.9995117 0.0007586479 -0.02388
vn 0.8652344 0.1687012 0.4724121
vn 0.9858398 -0.1671143 -0.02354431
vn 0.8779297 0.0007581711 0.479248
vn 0.5131836 0.1687012 0.8417969
vn 0.8652344 -0.1671143 0.4724121
vn 0.5205078 0.0007581711 0.8540039
vn 0.5131836 -0.1671143 0.8417969
vn 0.02288818 -0.2844238 0.9584961
vn 0.4990234 -0.2844238 0.8183594
vn 0.4926758 -0.3227539 0.8081055
vn 0.02259827 -0.3227539 0.9462891
vn -0.4594727 -0.2844238 0.8413086
vn 0.01947021 -0.5791016 0.8149414
vn 0.4243164 -0.5791016 0.6962891
vn -0.390625 -0.5791016 0.715332
vn -0.4536133 -0.3227539 0.8305664
vn -0.8183594 -0.2844238 0.4990234
vn -0.6962891 -0.5791016 0.4243164
vn -0.8081055 -0.3227539 0.4926758
vn -0.9584961 -0.2844238 0.02288818
vn -0.8149414 -0.5791016 0.01947021
vn -0.9462891 -0.3227539 0.02259827
vn -0.8413086 -0.2844238 -0.4594727
vn -0.715332 -0.5791016 -0.390625
vn -0.8305664 -0.3227539 -0.4536133
vn -0.4990234 -0.2844238 -0.8183594
vn -0.4243164 -0.5791016 -0.6962891
vn -0.4926758 -0.3227539 -0.8081055
vn -0.02288818 -0.2844238 -0.9584961
vn -0.01947021 -0.5791016 -0.8149414
vn -0.02259827 -0.3227539 -0.9462891
vn 0.4594727 -0.2844238 -0.8413086
vn 0.390625 -0.5791016 -0.715332
vn 0.4536133 -0.3227539 -0.8305664
vn 0.8183594 -0.2844238 -0.4990234
vn 0.6962891 -0.5791016 -0.4243164
vn 0.8081055 -0.3227539 -0.4926758
vn 0.9584961 -0.2844238 -0.02288818
vn 0.8149414 -0.5791016 -0.01947021
vn 0.9462891 -0.3227539 -0.02259827
vn 0.8413086 -0.2844238 0.4594727
vn 0.715332 -0.5791016 0.390625
vn 0.8305664 -0.3227539 0.4536133
vn 0.4990234 -0.2844238 0.8183594
vn 0.4243164 -0.5791016 0.6962891
vn 0.4926758 -0.3227539 0.8081055
vn 0.5117188 0.1818848 0.8393555
vn 0.5117188 0.1818848 0.8393555
vn 0.8632813 0.1818848 0.4711914
vn 0.8632813 0.1818848 0.4711914
vn 0.9829102 0.1818848 -0.02346802
vn 0.9829102 0.1818848 -0.02348328
vn 0.8393555 0.1818848 -0.5117188
vn 0.8393555 0.1818848 -0.5117188
vn 0.4711914 0.1818848 -0.8632813
vn 0.4711914 0.1818848 -0.8632813
vn -0.02346802 0.1818848 -0.9829102
vn -0.02346802 0.1818848 -0.9829102
vn -0.5117188 0.1818848 -0.8393555
vn -0.5117188 0.1818848 -0.8393555
vn -0.8632813 0.1818848 -0.4711914
vn -0.8632813 0.1818848 -0.4711914
vn -0.9829102 0.1818848 0.02348328
vn -0.9829102 0.1818848 0.02348328
vn -0.8393555 0.1818848 0.5117188
vn -0.8393555 0.1818848 0.5117188
vn -0.4711914 0.1818848 0.8632813
vn -0.4711914 0.1818848 0.8632813
vn 0.02348328 0.1818848 0.9829102
vn 0.02346802 0.1818848 0.9829102
vn 0.5117188 0.1818848 0.8393555
vn 0.5117188 0.1818848 0.8393555
vn 0.9716797 0 0.2357178
vn 0.9716797 0 0.2357178
vn 0.9921875 0.1234741 -0.0236969
vn 0.8710938 0.1234741 0.4755859
vn 0.8066406 0.394043 0.4404297
vn 0.9189453 0.394043 -0.02194214
vn 0.4785156 0.394043 0.784668
vn 0.847168 0.1234741 -0.5166016
vn 0.9594727 0 -0.2817383
vn 0.9594727 0 -0.2817383
vn 0.784668 0.394043 -0.4785156
vn 0.4755859 0.1234741 -0.8710938
vn 0.6899414 0 -0.7236328
vn 0.6899414 0 -0.7236328
vn 0.4404297 0.394043 -0.8066406
vn -0.0236969 0.1234741 -0.9921875
vn 0.2357178 0 -0.9716797
vn 0.2357178 0 -0.9716797
vn -0.02194214 0.394043 -0.9189453
vn -0.5166016 0.1234741 -0.847168
vn -0.4785156 0.394043 -0.784668
vn -0.2817383 0 -0.9594727
vn -0.2817383 0 -0.9594727
vn -0.7236328 0 -0.6899414
vn -0.7236328 0 -0.6899414
vn -0.8710938 0.1234741 -0.4755859
vn -0.5166016 0.1234741 -0.847168
vn -0.4785156 0.394043 -0.784668
vn -0.8066406 0.394043 -0.4404297
vn -0.9921875 0.1234741 0.0236969
vn -0.9716797 0 -0.2357178
vn -0.9716797 0 -0.2357178
vn -0.9189453 0.394043 0.02194214
vn -0.847168 0.1234741 0.5166016
vn -0.9594727 0 0.2817383
vn -0.9594727 0 0.2817383
vn -0.784668 0.394043 0.4785156
vn -0.4755859 0.1234741 0.8710938
vn -0.6899414 0 0.7236328
vn -0.6899414 0 0.7236328
vn -0.4404297 0.394043 0.8066406
vn 0.0236969 0.1234741 0.9921875
vn -0.2357178 0 0.9716797
vn -0.2357178 0 0.9716797
vn 0.02194214 0.394043 0.9189453
vn 0.5166016 0.1234741 0.847168
vn 0.2817383 0 0.9594727
vn 0.2817383 0 0.9594727
vn 0.7236328 0 0.6899414
vn 0.7236328 0 0.6899414
vn 0.15979 -0.9516602 0.262207
vn 0.2695313 -0.9516602 0.1470947
vn 0.01766968 -0.9995117 0.02897644
vn 0.02978516 -0.9995117 0.01626587
vn 0.3068848 -0.9516602 -0.007331848
vn 0 -1 0
vn 0.03393555 -0.9995117 -0.0008101463
vn 0.262207 -0.9516602 -0.15979
vn 0.02897644 -0.9995117 -0.01766968
vn 0.1470947 -0.9516602 -0.2695313
vn 0.01626587 -0.9995117 -0.02978516
vn -0.0008096695 -0.9995117 -0.03393555
vn -0.007328033 -0.9516602 -0.3068848
vn -0.15979 -0.9516602 -0.262207
vn -0.01766968 -0.9995117 -0.02897644
vn -0.2695313 -0.9516602 -0.1470947
vn -0.02978516 -0.9995117 -0.01626587
vn -0.3068848 -0.9516602 0.007331848
vn -0.03393555 -0.9995117 0.0008101463
vn -0.262207 -0.9516602 0.15979
vn -0.02897644 -0.9995117 0.01766968
vn -0.1470947 -0.9516602 0.2695313
vn -0.01626587 -0.9995117 0.02978516
vn 0.007328033 -0.9516602 0.3068848
vn 0.0008096695 -0.9995117 0.03393555
vn 0.01766968 -0.9995117 0.02897644
vn 0.15979 -0.9516602 0.262207
vn 0.05618286 0.9941406 0.09216309
vn 0.1600342 0.9516602 0.2624512
vn 0.007339478 0.9516602 0.307373
vn 0.002574921 0.9941406 0.1078491
vn -0.1473389 0.9516602 0.2697754
vn -0.001725197 0.9975586 -0.07220459
vn -0.03759766 0.9975586 -0.06167603
vn -0.1933594 0.9282227 -0.3171387
vn -0.008872986 0.9282227 -0.3713379
vn 0.03460693 0.9975586 -0.06341553
vn 0.1779785 0.9282227 -0.3259277
vn -0.05169678 0.9941406 0.09472656
vn -0.2624512 0.9516602 0.1600342
vn 0.06167603 0.9975586 -0.03759766
vn 0.3171387 0.9282227 -0.1933594
vn -0.09216309 0.9941406 0.05618286
vn -0.307373 0.9516602 0.007339478
vn 0.07220459 0.9975586 -0.001724243
vn 0.3713379 0.9282227 -0.008872986
vn -0.1078491 0.9941406 0.002576828
vn -0.2697754 0.9516602 -0.1473389
vn 0.06341553 0.9975586 0.03460693
vn 0.3259277 0.9282227 0.1779785
vn -0.09472656 0.9941406 -0.05169678
vn -0.1600342 0.9516602 -0.2624512
vn 0.03759766 0.9975586 0.06167603
vn 0.1933594 0.9282227 0.3171387
vn -0.05618286 0.9941406 -0.09216309
vn -0.007339478 0.9516602 -0.307373
vn 0.001725197 0.9975586 0.07220459
vn 0.008872986 0.9282227 0.3713379
vn -0.002574921 0.9941406 -0.1078491
vn 0.1473389 0.9516602 -0.2697754
vn -0.03460693 0.9975586 0.06341553
vn -0.1779785 0.9282227 0.3259277
vn 0.05169678 0.9941406 -0.09472656
vn 0.2624512 0.9516602 -0.1600342
vn -0.06167603 0.9975586 0.03759766
vn -0.3171387 0.9282227 0.1933594
vn 0.09216309 0.9941406 -0.05618286
vn 0.307373 0.9516602 -0.007339478
vn -0.07220459 0.9975586 0.001724243
vn -0.3713379 0.9282227 0.008872986
vn 0.1078491 0.9941406 -0.002576828
vn 0.2697754 0.9516602 0.1473389
vn -0.06341553 0.9975586 -0.03460693
vn -0.3259277 0.9282227 -0.1779785
vn 0.09472656 0.9941406 0.05169678
vn 0.1600342 0.9516602 0.2624512
vn 0.05618286 0.9941406 0.09216309
vn -0.03759766 0.9975586 -0.06167603
vn -0.1933594 0.9282227 -0.3171387
vn 0.4248047 0.578125 0.6967773
vn 0.7163086 0.578125 0.3908691
vn 0.4929199 0.3215332 0.8085938
vn 0.8310547 0.3215332 0.4538574
vn 0.8154297 0.578125 -0.01947021
vn 0.8417969 0.282959 0.4597168
vn 0.4992676 0.282959 0.8188477
vn 0.9589844 0.282959 -0.02290344
vn 0.9467773 0.3215332 -0.02259827
vn 0.6967773 0.578125 -0.4248047
vn 0.8188477 0.282959 -0.4992676
vn 0.8085938 0.3215332 -0.4929199
vn 0.3908691 0.578125 -0.7163086
vn 0.4597168 0.282959 -0.8417969
vn 0.4538574 0.3215332 -0.8310547
vn -0.01948547 0.578125 -0.8154297
vn -0.02290344 0.282959 -0.9589844
vn -0.02259827 0.3215332 -0.9467773
vn -0.4248047 0.578125 -0.6967773
vn -0.4992676 0.282959 -0.8188477
vn -0.4929199 0.3215332 -0.8085938
vn -0.7163086 0.578125 -0.3908691
vn -0.8417969 0.282959 -0.4597168
vn -0.8310547 0.3215332 -0.4538574
vn -0.8154297 0.578125 0.01948547
vn -0.9589844 0.282959 0.02290344
vn -0.9467773 0.3215332 0.02261353
vn -0.6967773 0.578125 0.4248047
vn -0.8188477 0.282959 0.4992676
vn -0.8085938 0.3215332 0.4929199
vn -0.3908691 0.578125 0.7163086
vn -0.4597168 0.282959 0.8417969
vn -0.4538574 0.3215332 0.8310547
vn 0.01948547 0.578125 0.8154297
vn 0.02290344 0.282959 0.9589844
vn 0.02259827 0.3215332 0.9467773
vn 0.4248047 0.578125 0.6967773
vn 0.4992676 0.282959 0.8188477
vn 0.4929199 0.3215332 0.8085938
vn 0.439209 -0.5366211 0.7202148
vn 0.439209 -0.5366211 0.7202148
vn 0.7407227 -0.5366211 0.4042969
vn 0.7407227 -0.5366211 0.4042969
vn 0.8432617 -0.5366211 -0.0201416
vn 0.8432617 -0.5366211 -0.0201416
vn 0.7202148 -0.5366211 -0.439209
vn 0.7202148 -0.5366211 -0.439209
vn 0.4042969 -0.5366211 -0.7407227
vn 0.4042969 -0.5366211 -0.7407227
vn -0.0201416 -0.5366211 -0.8432617
vn -0.0201416 -0.5366211 -0.8432617
vn -0.439209 -0.5366211 -0.7202148
vn -0.439209 -0.5366211 -0.7202148
vn -0.7407227 -0.5366211 -0.4042969
vn -0.7407227 -0.5366211 -0.4042969
vn -0.8432617 -0.5366211 0.0201416
vn -0.8432617 -0.5366211 0.0201416
vn -0.7202148 -0.5366211 0.439209
vn -0.7202148 -0.5366211 0.439209
vn -0.4042969 -0.5366211 0.7407227
vn -0.4042969 -0.5366211 0.7407227
vn 0.0201416 -0.5366211 0.8432617
vn 0.0201416 -0.5366211 0.8432617
vn 0.439209 -0.5366211 0.7202148
vn 0.439209 -0.5366211 0.7202148
vn 0.3425293 0.9208984 0.1870117
vn 0.203125 0.9208984 0.333252
vn 0.203125 0.9208984 0.333252
vn 0.3425293 0.9208984 0.1870117
vn 0.3901367 0.9208984 -0.009315491
vn 0.3901367 0.9208984 -0.009315491
vn 0.333252 0.9208984 -0.203125
vn 0.333252 0.9208984 -0.203125
vn 0.1870117 0.9208984 -0.3425293
vn 0.1870117 0.9208984 -0.3425293
vn -0.009315491 0.9208984 -0.3901367
vn -0.009315491 0.9208984 -0.3901367
vn -0.203125 0.9208984 -0.333252
vn -0.203125 0.9208984 -0.333252
vn -0.3425293 0.9208984 -0.1870117
vn -0.3425293 0.9208984 -0.1870117
vn -0.3901367 0.9208984 0.009315491
vn -0.3901367 0.9208984 0.009315491
vn -0.333252 0.9208984 0.203125
vn -0.333252 0.9208984 0.203125
vn -0.1870117 0.9208984 0.3425293
vn -0.1870117 0.9208984 0.3425293
vn 0.009315491 0.9208984 0.3901367
vn 0.009315491 0.9208984 0.3901367
vn 0.203125 0.9208984 0.333252
vn 0.203125 0.9208984 0.333252
vn 0 1 0
vn 0 1 0
vn 0 1 0
vn 0 1 0
vn 0 1 0
vn 0 1 0
vn 0 1 0
vn 0 1 0
vn 0 1 0
vn 0 1 0
vn 0 1 0
vn 0 1 0
vn 0 1 0
vn -0.244873 0.859375 0.4484863
vn -0.4362793 0.859375 0.2661133
vn -0.4362793 0.859375 0.2661133
vn -0.244873 0.859375 0.4484863
vn -0.5107422 0.859375 0.0121994
vn 0.0121994 0.859375 0.5107422
vn -0.5107422 0.859375 0.0121994
vn 0.0121994 0.859375 0.5107422
vn -0.4484863 0.859375 -0.244873
vn 0.2661133 0.859375 0.4362793
vn -0.4484863 0.859375 -0.244873
vn 0.2661133 0.859375 0.4362793
vn -0.2661133 0.859375 -0.4362793
vn 0.4484863 0.859375 0.244873
vn -0.2661133 0.859375 -0.4362793
vn 0.4484863 0.859375 0.244873
vn -0.0121994 0.859375 -0.5107422
vn 0.5107422 0.859375 -0.0121994
vn -0.0121994 0.859375 -0.5107422
vn 0.5107422 0.859375 -0.0121994
vn 0.244873 0.859375 -0.4484863
vn 0.4362793 0.859375 -0.2661133
vn 0.244873 0.859375 -0.4484863
vn 0.4362793 0.859375 -0.2661133
vn -0.3581543 -0.9077148 0.2183838
vn -0.3581543 -0.9077148 0.2183838
vn -0.2010498 -0.9077148 0.3681641
vn -0.4194336 -0.9077148 0.0100174
vn -0.2010498 -0.9077148 0.3681641
vn -0.4194336 -0.9077148 0.0100174
vn 0.01000977 -0.9077148 0.4194336
vn -0.3681641 -0.9077148 -0.2010498
vn 0.01000977 -0.9077148 0.4194336
vn -0.3681641 -0.9077148 -0.2010498
vn 0.2183838 -0.9077148 0.3581543
vn -0.2183838 -0.9077148 -0.3581543
vn 0.2183838 -0.9077148 0.3581543
vn -0.2183838 -0.9077148 -0.3581543
vn 0.3681641 -0.9077148 0.2010498
vn -0.0100174 -0.9077148 -0.4194336
vn 0.3681641 -0.9077148 0.2010498
vn -0.01000977 -0.9077148 -0.4194336
vn 0.4194336 -0.9077148 -0.0100174
vn 0.2010498 -0.9077148 -0.3681641
vn 0.4194336 -0.9077148 -0.0100174
vn 0.2010498 -0.9077148 -0.3681641
vn 0.3581543 -0.9077148 -0.2183838
vn 0.3581543 -0.9077148 -0.2183838
vn -0.8081055 -0.3222656 0.4926758
vn -0.8081055 -0.3222656 0.4926758
vn -0.4536133 -0.3222656 0.8310547
vn -0.9462891 -0.3222656 0.02259827
vn -0.4536133 -0.3222656 0.8310547
vn -0.9462891 -0.3222656 0.02259827
vn 0.02259827 -0.3222656 0.9462891
vn -0.8310547 -0.3222656 -0.4536133
vn 0.02259827 -0.3222656 0.9462891
vn -0.8310547 -0.3222656 -0.4536133
vn 0.4926758 -0.3222656 0.8081055
vn -0.4926758 -0.3222656 -0.8081055
vn 0.4926758 -0.3222656 0.8081055
vn -0.4926758 -0.3222656 -0.8081055
vn 0.8310547 -0.3222656 0.4536133
vn -0.02259827 -0.3222656 -0.9462891
vn 0.8310547 -0.3222656 0.4536133
vn -0.02259827 -0.3222656 -0.9462891
vn 0.9462891 -0.3222656 -0.02259827
vn 0.4536133 -0.3222656 -0.8310547
vn 0.9462891 -0.3222656 -0.02259827
vn 0.4536133 -0.3222656 -0.8310547
vn 0.8081055 -0.3222656 -0.4926758
vn 0.8081055 -0.3222656 -0.4926758
g Barrel_0
f 3/3/3 2/2/2 1/1/1
f 3/3/3 1/1/1 4/4/4
f 5/5/5 3/3/3 4/4/4
f 4/4/4 1/1/1 6/6/6
f 5/5/5 4/4/4 7/7/7
f 4/4/4 6/6/6 8/8/8
f 7/7/7 4/4/4 8/8/8
f 8/8/8 6/6/6 9/9/9
f 7/7/7 8/8/8 10/10/10
f 8/8/8 9/9/9 11/11/11
f 10/10/10 8/8/8 11/11/11
f 11/11/11 9/9/9 12/12/12
f 10/10/10 11/11/11 13/13/13
f 11/11/11 12/12/12 14/14/14
f 13/13/13 11/11/11 14/14/14
f 14/14/14 12/12/12 15/15/15
f 13/13/13 14/14/14 16/16/16
f 14/14/14 15/15/15 17/17/17
f 16/16/16 14/14/14 17/17/17
f 17/17/17 15/15/15 18/18/18
f 16/16/16 17/17/17 19/19/19
f 17/17/17 18/18/18 20/20/20
f 19/19/19 17/17/17 20/20/20
f 20/20/20 18/18/18 21/21/21
f 19/19/19 20/20/20 22/22/22
f 20/20/20 21/21/21 23/23/23
f 22/22/22 20/20/20 23/23/23
f 23/23/23 21/21/21 24/24/24
f 22/22/22 23/23/23 25/25/25
f 23/23/23 24/24/24 26/26/26
f 25/25/25 23/23/23 26/26/26
f 26/26/26 24/24/24 27/27/27
f 25/25/25 26/26/26 28/28/28
f 26/26/26 27/27/27 29/29/29
f 28/28/28 26/26/26 29/29/29
f 29/29/29 27/27/27 30/30/30
f 28/28/28 29/29/29 31/31/31
f 29/29/29 30/30/30 32/32/32
f 31/31/31 29/29/29 32/32/32
f 32/32/32 30/30/30 33/33/33
f 31/31/31 32/32/32 34/34/34
f 32/32/32 33/33/33 35/35/35
f 34/34/34 32/32/32 35/35/35
f 35/35/35 33/33/33 36/36/36
f 34/34/34 35/35/35 37/37/37
f 35/35/35 36/36/36 38/38/38
f 37/37/37 35/35/35 38/38/38
f 37/37/37 38/38/38 39/39/39
f 42/42/42 41/41/41 40/40/40
f 42/42/42 40/40/40 43/43/43
f 43/43/43 40/40/40 44/44/44
f 45/45/45 42/42/42 43/43/43
f 45/45/45 46/46/46 42/42/42
f 47/47/47 45/45/45 43/43/43
f 43/43/43 44/44/44 48/48/48
f 47/47/47 43/43/43 48/48/48
f 48/48/48 44/44/44 49/49/49
f 50/50/50 47/47/47 48/48/48
f 48/48/48 49/49/49 51/51/51
f 50/50/50 48/48/48 51/51/51
f 51/51/51 49/49/49 52/52/52
f 53/53/53 50/50/50 51/51/51
f 51/51/51 52/52/52 54/54/54
f 53/53/53 51/51/51 54/54/54
f 54/54/54 52/52/52 55/55/55
f 56/56/56 53/53/53 54/54/54
f 54/54/54 55/55/55 57/57/57
f 56/56/56 54/54/54 57/57/57
f 57/57/57 55/55/55 58/58/58
f 57/57/57 59/59/59 56/56/56
f 57/57/57 58/58/58 60/60/60
f 57/57/57 60/60/60 59/59/59
f 60/60/60 58/58/58 61/61/61
f 62/62/62 59/59/59 60/60/60
f 60/60/60 61/61/61 63/63/63
f 62/62/62 60/60/60 63/63/63
f 63/63/63 61/61/61 64/64/64
f 65/65/65 62/62/62 63/63/63
f 63/63/63 64/64/64 66/66/66
f 65/65/65 63/63/63 66/66/66
f 66/66/66 64/64/64 67/67/67
f 68/68/68 65/65/65 66/66/66
f 66/66/66 67/67/67 69/69/69
f 68/68/68 66/66/66 69/69/69
f 69/69/69 67/67/67 70/70/70
f 71/71/71 68/68/68 69/69/69
f 69/69/69 70/70/70 72/72/72
f 71/71/71 69/69/69 72/72/72
f 72/72/72 70/70/70 73/73/73
f 74/74/74 71/71/71 72/72/72
f 72/72/72 73/73/73 75/75/75
f 74/74/74 72/72/72 75/75/75
f 75/75/75 73/73/73 76/76/76
f 77/77/77 74/74/74 75/75/75
f 75/75/75 76/76/76 78/78/78
f 77/77/77 75/75/75 78/78/78
f 81/81/81 80/80/80 79/79/79
f 81/81/81 82/82/82 80/80/80
f 83/83/83 82/82/82 81/81/81
f 83/83/83 84/84/84 82/82/82
f 85/85/85 84/84/84 83/83/83
f 85/85/85 86/86/86 84/84/84
f 87/87/87 86/86/86 85/85/85
f 87/87/87 88/88/88 86/86/86
f 89/89/89 88/88/88 87/87/87
f 89/89/89 90/90/90 88/88/88
f 91/91/91 90/90/90 89/89/89
f 91/91/91 92/92/92 90/90/90
f 93/93/93 92/92/92 91/91/91
f 93/93/93 94/94/94 92/92/92
f 95/95/95 94/94/94 93/93/93
f 95/95/95 96/96/96 94/94/94
f 97/97/97 96/96/96 95/95/95
f 97/97/97 98/98/98 96/96/96
f 99/99/99 98/98/98 97/97/97
f 99/99/99 100/100/100 98/98/98
f 101/101/101 100/100/100 99/99/99
f 101/101/101 102/102/102 100/100/100
f 103/103/103 102/102/102 101/101/101
f 103/103/103 104/104/104 102/102/102
f 107/107/107 106/106/106 105/105/105
f 107/107/107 105/105/105 108/108/108
f 109/109/109 107/107/107 108/108/108
f 109/109/109 110/110/110 107/107/107
f 108/108/108 111/111/111 109/109/109
f 110/110/110 112/112/112 107/107/107
f 112/112/112 113/113/113 107/107/107
f 112/112/112 114/114/114 113/113/113
f 110/110/110 115/115/115 112/112/112
f 115/115/115 116/116/116 112/112/112
f 116/116/116 117/117/117 112/112/112
f 116/116/116 118/118/118 117/117/117
f 115/115/115 119/119/119 116/116/116
f 119/119/119 120/120/120 116/116/116
f 120/120/120 121/121/121 116/116/116
f 120/120/120 122/122/122 121/121/121
f 119/119/119 123/123/123 120/120/120
f 123/123/123 124/124/124 120/120/120
f 123/123/123 125/125/125 124/124/124
f 124/124/124 126/126/126 120/120/120
f 124/124/124 127/127/127 126/126/126
f 130/130/130 129/129/129 128/128/128
f 130/130/130 128/128/128 131/131/131
f 132/132/132 130/130/130 131/131/131
f 132/132/132 133/133/133 130/130/130
f 133/133/133 134/134/134 130/130/130
f 134/134/134 135/135/135 130/130/130
f 134/134/134 136/136/136 135/135/135
f 133/133/133 137/137/137 134/134/134
f 137/137/137 138/138/138 134/134/134
f 138/138/138 139/139/139 134/134/134
f 138/138/138 140/140/140 139/139/139
f 137/137/137 141/141/141 138/138/138
f 141/141/141 142/142/142 138/138/138
f 142/142/142 143/143/143 138/138/138
f 142/142/142 144/144/144 143/143/143
f 141/141/141 145/145/145 142/142/142
f 145/145/145 146/146/146 142/142/142
f 146/146/146 147/147/147 142/142/142
f 146/146/146 148/148/148 147/147/147
f 145/145/145 149/149/149 146/146/146
f 149/149/149 150/150/150 146/146/146
f 150/150/150 151/151/151 146/146/146
f 150/150/150 152/152/152 151/151/151
f 149/149/149 111/111/111 150/150/150
f 108/108/108 150/150/150 111/111/111
f 108/108/108 153/153/153 150/150/150
f 108/108/108 154/154/154 153/153/153
f 157/157/157 156/156/156 155/155/155
f 157/157/157 158/158/158 156/156/156
f 158/158/158 159/159/159 156/156/156
f 157/157/157 160/160/160 158/158/158
f 158/158/158 161/161/161 159/159/159
f 158/158/158 160/160/160 161/161/161
f 161/161/161 162/162/162 159/159/159
f 161/161/161 160/160/160 163/163/163
f 161/161/161 163/163/163 162/162/162
f 163/163/163 164/164/164 162/162/162
f 163/163/163 160/160/160 165/165/165
f 163/163/163 165/165/165 164/164/164
f 165/165/165 160/160/160 166/166/166
f 165/165/165 167/167/167 164/164/164
f 165/165/165 166/166/166 167/167/167
f 166/166/166 168/168/168 167/167/167
f 166/166/166 169/169/169 168/168/168
f 166/166/166 160/160/160 169/169/169
f 170/170/170 168/168/168 169/169/169
f 170/170/170 169/169/169 171/171/171
f 169/169/169 160/160/160 171/171/171
f 171/171/171 172/172/172 170/170/170
f 171/171/171 173/173/173 172/172/172
f 171/171/171 160/160/160 173/173/173
f 173/173/173 174/174/174 172/172/172
f 173/173/173 175/175/175 174/174/174
f 173/173/173 160/160/160 175/175/175
f 175/175/175 176/176/176 174/174/174
f 175/175/175 177/177/177 176/176/176
f 175/175/175 160/160/160 177/177/177
f 177/177/177 178/178/178 176/176/176
f 177/177/177 160/160/160 179/179/179
f 177/177/177 179/179/179 178/178/178
f 179/179/179 160/160/160 180/180/180
f 179/179/179 181/181/181 178/178/178
f 179/179/179 180/180/180 181/181/181
f 184/184/184 183/183/183 182/182/182
f 184/184/184 182/182/182 185/185/185
f 186/186/186 184/184/184 185/185/185
f 182/182/182 187/187/187 185/185/185
f 182/182/182 188/188/188 187/187/187
f 187/187/187 188/188/188 189/189/189
f 187/187/187 189/189/189 190/190/190
f 191/191/191 187/187/187 190/190/190
f 185/185/185 187/187/187 191/191/191
f 191/191/191 190/190/190 192/192/192
f 186/186/186 185/185/185 193/193/193
f 185/185/185 191/191/191 193/193/193
f 194/194/194 186/186/186 193/193/193
f 195/195/195 191/191/191 192/192/192
f 193/193/193 191/191/191 195/195/195
f 195/195/195 192/192/192 196/196/196
f 194/194/194 193/193/193 197/197/197
f 193/193/193 195/195/195 197/197/197
f 198/198/198 194/194/194 197/197/197
f 199/199/199 195/195/195 196/196/196
f 197/197/197 195/195/195 199/199/199
f 199/199/199 196/196/196 200/200/200
f 198/198/198 197/197/197 201/201/201
f 197/197/197 199/199/199 201/201/201
f 202/202/202 198/198/198 201/201/201
f 203/203/203 199/199/199 200/200/200
f 201/201/201 199/199/199 203/203/203
f 203/203/203 200/200/200 204/204/204
f 202/202/202 201/201/201 205/205/205
f 201/201/201 203/203/203 205/205/205
f 205/205/205 206/206/206 202/202/202
f 204/204/204 207/207/207 203/203/203
f 205/205/205 203/203/203 207/207/207
f 204/204/204 208/208/208 207/207/207
f 205/205/205 209/209/209 206/206/206
f 205/205/205 207/207/207 209/209/209
f 210/210/210 206/206/206 209/209/209
f 211/211/211 207/207/207 208/208/208
f 209/209/209 207/207/207 211/211/211
f 211/211/211 208/208/208 212/212/212
f 210/210/210 209/209/209 213/213/213
f 209/209/209 211/211/211 213/213/213
f 214/214/214 210/210/210 213/213/213
f 215/215/215 211/211/211 212/212/212
f 213/213/213 211/211/211 215/215/215
f 215/215/215 212/212/212 216/216/216
f 214/214/214 213/213/213 217/217/217
f 213/213/213 215/215/215 217/217/217
f 218/218/218 214/214/214 217/217/217
f 219/219/219 215/215/215 216/216/216
f 217/217/217 215/215/215 219/219/219
f 219/219/219 216/216/216 220/220/220
f 218/218/218 217/217/217 221/221/221
f 217/217/217 219/219/219 221/221/221
f 222/222/222 218/218/218 221/221/221
f 223/223/223 219/219/219 220/220/220
f 221/221/221 219/219/219 223/223/223
f 223/223/223 220/220/220 224/224/224
f 222/222/222 221/221/221 225/225/225
f 221/221/221 223/223/223 225/225/225
f 226/226/226 222/222/222 225/225/225
f 227/227/227 223/223/223 224/224/224
f 225/225/225 223/223/223 227/227/227
f 227/227/227 224/224/224 228/228/228
f 226/226/226 225/225/225 229/229/229
f 225/225/225 227/227/227 229/229/229
f 230/230/230 226/226/226 229/229/229
f 230/230/230 229/229/229 231/231/231
f 229/229/229 232/232/232 231/231/231
f 229/229/229 227/227/227 232/232/232
f 232/232/232 227/227/227 228/228/228
f 232/232/232 228/228/228 233/233/233
f 236/236/236 235/235/235 234/234/234
f 236/236/236 237/237/237 235/235/235
f 237/237/237 238/238/238 235/235/235
f 239/239/239 237/237/237 236/236/236
f 239/239/239 236/236/236 240/240/240
f 241/241/241 237/237/237 239/239/239
f 237/237/237 242/242/242 238/238/238
f 241/241/241 242/242/242 237/237/237
f 242/242/242 243/243/243 238/238/238
f 244/244/244 242/242/242 241/241/241
f 242/242/242 245/245/245 243/243/243
f 244/244/244 245/245/245 242/242/242
f 245/245/245 246/246/246 243/243/243
f 247/247/247 245/245/245 244/244/244
f 245/245/245 248/248/248 246/246/246
f 247/247/247 248/248/248 245/245/245
f 248/248/248 249/249/249 246/246/246
f 250/250/250 248/248/248 247/247/247
f 248/248/248 251/251/251 249/249/249
f 250/250/250 251/251/251 248/248/248
f 251/251/251 252/252/252 249/249/249
f 253/253/253 251/251/251 250/250/250
f 251/251/251 254/254/254 252/252/252
f 253/253/253 254/254/254 251/251/251
f 255/255/255 252/252/252 254/254/254
f 256/256/256 254/254/254 253/253/253
f 255/255/255 254/254/254 257/257/257
f 256/256/256 257/257/257 254/254/254
f 257/257/257 258/258/258 255/255/255
f 259/259/259 257/257/257 256/256/256
f 257/257/257 260/260/260 258/258/258
f 259/259/259 260/260/260 257/257/257
f 260/260/260 261/261/261 258/258/258
f 262/262/262 260/260/260 259/259/259
f 260/260/260 263/263/263 261/261/261
f 262/262/262 263/263/263 260/260/260
f 263/263/263 264/264/264 261/261/261
f 265/265/265 263/263/263 262/262/262
f 263/263/263 266/266/266 264/264/264
f 265/265/265 266/266/266 263/263/263
f 266/266/266 267/267/267 264/264/264
f 268/268/268 266/266/266 265/265/265
f 266/266/266 269/269/269 267/267/267
f 268/268/268 269/269/269 266/266/266
f 269/269/269 270/270/270 267/267/267
f 271/271/271 269/269/269 268/268/268
f 269/269/269 272/272/272 270/270/270
f 271/271/271 272/272/272 269/269/269
f 275/275/275 274/274/274 273/273/273
f 275/275/275 276/276/276 274/274/274
f 277/277/277 276/276/276 275/275/275
f 277/277/277 278/278/278 276/276/276
f 279/279/279 278/278/278 277/277/277
f 279/279/279 280/280/280 278/278/278
f 281/281/281 280/280/280 279/279/279
f 281/281/281 282/282/282 280/280/280
f 283/283/283 282/282/282 281/281/281
f 283/283/283 284/284/284 282/282/282
f 285/285/285 284/284/284 283/283/283
f 285/285/285 286/286/286 284/284/284
f 287/287/287 286/286/286 285/285/285
f 287/287/287 288/288/288 286/286/286
f 289/289/289 288/288/288 287/287/287
f 289/289/289 290/290/290 288/288/288
f 291/291/291 290/290/290 289/289/289
f 291/291/291 292/292/292 290/290/290
f 293/293/293 292/292/292 291/291/291
f 293/293/293 294/294/294 292/292/292
f 295/295/295 294/294/294 293/293/293
f 295/295/295 296/296/296 294/294/294
f 297/297/297 296/296/296 295/295/295
f 297/297/297 298/298/298 296/296/296
f 301/301/301 300/300/300 299/299/299
f 301/301/301 299/299/299 302/302/302
f 302/302/302 299/299/299 303/303/303
f 302/302/302 303/303/303 304/304/304
f 304/304/304 303/303/303 305/305/305
f 304/304/304 305/305/305 306/306/306
f 306/306/306 305/305/305 307/307/307
f 306/306/306 307/307/307 308/308/308
f 308/308/308 307/307/307 309/309/309
f 308/308/308 309/309/309 310/310/310
f 310/310/310 309/309/309 311/311/311
f 310/310/310 311/311/311 312/312/312
f 312/312/312 311/311/311 313/313/313
f 312/312/312 313/313/313 314/314/314
f 314/314/314 313/313/313 315/315/315
f 314/314/314 315/315/315 316/316/316
f 316/316/316 315/315/315 317/317/317
f 316/316/316 317/317/317 318/318/318
f 318/318/318 317/317/317 319/319/319
f 318/318/318 319/319/319 320/320/320
f 320/320/320 319/319/319 321/321/321
f 320/320/320 321/321/321 322/322/322
f 322/322/322 321/321/321 323/323/323
f 322/322/322 323/323/323 324/324/324
f 327/327/327 326/326/326 325/325/325
f 325/325/325 326/326/326 328/328/328
f 329/329/329 326/326/326 327/327/327
f 328/328/328 326/326/326 330/330/330
f 331/331/331 326/326/326 329/329/329
f 330/330/330 326/326/326 332/332/332
f 333/333/333 326/326/326 331/331/331
f 332/332/332 326/326/326 334/334/334
f 335/335/335 326/326/326 333/333/333
f 334/334/334 326/326/326 336/336/336
f 337/337/337 326/326/326 335/335/335
f 336/336/336 326/326/326 337/337/337
f 340/340/340 339/339/339 338/338/338
f 340/340/340 338/338/338 341/341/341
f 342/342/342 339/339/339 340/340/340
f 341/341/341 338/338/338 343/343/343
f 342/342/342 344/344/344 339/339/339
f 341/341/341 343/343/343 345/345/345
f 346/346/346 344/344/344 342/342/342
f 345/345/345 343/343/343 347/347/347
f 346/346/346 348/348/348 344/344/344
f 345/345/345 347/347/347 349/349/349
f 350/350/350 348/348/348 346/346/346
f 349/349/349 347/347/347 351/351/351
f 350/350/350 352/352/352 348/348/348
f 349/349/349 351/351/351 353/353/353
f 354/354/354 352/352/352 350/350/350
f 353/353/353 351/351/351 355/355/355
f 354/354/354 356/356/356 352/352/352
f 353/353/353 355/355/355 357/357/357
f 358/358/358 356/356/356 354/354/354
f 357/357/357 355/355/355 359/359/359
f 358/358/358 360/360/360 356/356/356
f 357/357/357 359/359/359 361/361/361
f 361/361/361 360/360/360 358/358/358
f 361/361/361 359/359/359 360/360/360
f 364/364/364 363/363/363 362/362/362
f 362/362/362 363/363/363 365/365/365
f 364/364/364 366/366/366 363/363/363
f 362/362/362 365/365/365 367/367/367
f 368/368/368 366/366/366 364/364/364
f 367/367/367 365/365/365 369/369/369
f 368/368/368 370/370/370 366/366/366
f 367/367/367 369/369/369 371/371/371
f 372/372/372 370/370/370 368/368/368
f 371/371/371 369/369/369 373/373/373
f 372/372/372 374/374/374 370/370/370
f 371/371/371 373/373/373 375/375/375
f 376/376/376 374/374/374 372/372/372
f 375/375/375 373/373/373 377/377/377
f 376/376/376 378/378/378 374/374/374
f 375/375/375 377/377/377 379/379/379
f 380/380/380 378/378/378 376/376/376
f 379/379/379 377/377/377 381/381/381
f 380/380/380 382/382/382 378/378/378
f 379/379/379 381/381/381 383/383/383
f 384/384/384 382/382/382 380/380/380
f 383/383/383 381/381/381 385/385/385
f 384/384/384 385/385/385 382/382/382
f 383/383/383 385/385/385 384/384/384
f 388/388/388 387/387/387 386/386/386
f 386/386/386 387/387/387 389/389/389
f 388/388/388 390/390/390 387/387/387
f 386/386/386 389/389/389 391/391/391
f 392/392/392 390/390/390 388/388/388
f 391/391/391 389/389/389 393/393/393
f 392/392/392 394/394/394 390/390/390
f 391/391/391 393/393/393 395/395/395
f 396/396/396 394/394/394 392/392/392
f 395/395/395 393/393/393 397/397/397
f 396/396/396 398/398/398 394/394/394
f 395/395/395 397/397/397 399/399/399
f 400/400/400 398/398/398 396/396/396
f 399/399/399 397/397/397 401/401/401
f 400/400/400 402/402/402 398/398/398
f 399/399/399 401/401/401 403/403/403
f 404/404/404 402/402/402 400/400/400
f 403/403/403 401/401/401 405/405/405
f 404/404/404 406/406/406 402/402/402
f 403/403/403 405/405/405 407/407/407
f 408/408/408 406/406/406 404/404/404
f 407/407/407 405/405/405 409/409/409
f 408/408/408 409/409/409 406/406/406
f 407/407/407 409/409/409 408/408/408
