g Barrel
v 0.3813843 0.5942147 0.6255914
v 0.3549247 0.8913221 0.5821881
v 0.5984678 0.8913221 0.326727
v 0.6430851 0.5942147 0.3510852
v 0.3551743 0.2971074 0.5825992
v 0.6816514 0.8913221 -0.01627809
v 0.5988895 0.2971074 0.3269586
v 0.732471 0.5942147 -0.01749208
v 0.5821894 0.8913221 -0.3549222
v 0.682133 0.2971074 -0.01628908
v 0.6255936 0.5942147 -0.3813827
v 0.3267295 0.8913221 -0.5984671
v 0.5826008 0.2971074 -0.3551733
v 0.351088 0.5942147 -0.6430838
v -0.01627524 0.8913221 -0.6816531
v 0.3269596 0.2971074 -0.5988882
v -0.01748923 0.5942147 -0.732471
v -0.3549218 0.8913221 -0.5821896
v -0.01628776 0.2971074 -0.6821328
v -0.3813816 0.5942147 -0.6255924
v -0.5984652 0.8913221 -0.3267291
v -0.355171 0.2971074 -0.5825992
v -0.6430822 0.5942147 -0.3510867
v -0.6816485 0.8913221 0.01627653
v -0.5988886 0.2971074 -0.3269598
v -0.7324674 0.5942147 0.01749083
v -0.5821871 0.8913221 0.3549219
v -0.6821309 0.2971074 0.01628935
v -0.625591 0.5942147 0.3813834
v -0.326726 0.8913221 0.5984647
v -0.5825981 0.2971074 0.3551718
v -0.351085 0.5942147 0.6430826
v 0.0162803 0.8913221 0.6816507
v -0.3269579 0.2971074 0.5988879
v 0.01749245 0.5942147 0.7324698
v 0.3549247 0.8913221 0.5821881
v 0.01629037 0.2971074 0.6821319
v 0.3813843 0.5942147 0.6255914
v 0.3551743 0.2971074 0.5825992
v 0.3135102 0.02721454 0.5142563
v 0.3343421 0.1621608 0.5484271
v 0.5637629 0.1621608 0.3077813
v 0.5286375 0.02721454 0.2886032
v 0.642125 0.1621608 -0.01533419
v 0.5163788 0.007553587 0.2819125
v 0.3062403 0.007553587 0.5023303
v 0.5881553 0.007553587 -0.01404573
v 0.6021168 0.02721454 -0.0143799
v 0.5484284 0.1621608 -0.3343408
v 0.5023331 0.007553587 -0.306239
v 0.5142588 0.02721454 -0.3135107
v 0.3077833 0.1621608 -0.5637625
v 0.2819154 0.007553587 -0.5163785
v 0.2886054 0.02721454 -0.5286356
v -0.01533317 0.1621608 -0.6421219
v -0.01404349 0.007553587 -0.5881528
v -0.01437644 0.02721454 -0.6021158
v -0.3343392 0.1621608 -0.5484287
v -0.306238 0.007553587 -0.5023324
v -0.3135067 0.02721454 -0.5142575
v -0.5637611 0.1621608 -0.307782
v -0.516377 0.007553587 -0.2819132
v -0.5286335 0.02721454 -0.2886057
v -0.642122 0.1621608 0.01533323
v -0.588151 0.007553587 0.01404478
v -0.6021132 0.02721454 0.01437773
v -0.548427 0.1621608 0.3343405
v -0.5023311 0.007553587 0.306239
v -0.5142548 0.02721454 0.313508
v -0.3077807 0.1621608 0.5637613
v -0.2819112 0.007553587 0.5163766
v -0.2886034 0.02721454 0.5286343
v 0.01533456 0.1621608 0.6421221
v 0.01404519 0.007553587 0.5881525
v 0.01437936 0.02721454 0.602113
v 0.3343421 0.1621608 0.5484271
v 0.3062403 0.007553587 0.5023303
v 0.3135102 0.02721454 0.5142563
v 0.3640049 0.918744 0.5970843
v 0.3553061 1.009078 0.5828146
v 0.5991129 1.009078 0.3270791
v 0.6137809 0.9187434 0.3350885
v 0.6823881 1.009078 -0.0162961
v 0.699094 0.9187434 -0.01669374
v 0.5828184 1.009078 -0.3553058
v 0.5970863 0.9187434 -0.3640042
v 0.3270814 1.009078 -0.5991116
v 0.3350898 0.9187434 -0.6137789
v -0.01629416 1.009078 -0.6823874
v -0.01669273 0.9187434 -0.6990927
v -0.3553033 1.009078 -0.5828152
v -0.3640037 0.9187434 -0.597084
v -0.5991106 1.009078 -0.3270813
v -0.6137777 0.9187434 -0.3350891
v -0.6823837 1.009078 0.01629484
v -0.6990911 0.918744 0.0166934
v -0.5828138 1.009078 0.3553042
v -0.5970821 0.9187443 0.3640018
v -0.3270782 1.009078 0.5991098
v -0.3350866 0.918744 0.6137787
v 0.01629586 1.009078 0.6823856
v 0.01669686 0.918744 0.6990912
v 0.3553061 1.009078 0.5828146
v 0.3640049 0.918744 0.5970843
v -0.4053341 1.156459 -0.2212906
v -0.4053341 1.096938 -0.2212906
v -0.4616738 1.096938 0.01102385
v -0.4616738 1.156459 0.01102385
v -0.4713663 1.179065 0.01125578
v -0.4138433 1.179065 -0.2259351
v -0.4025871 1.179065 0.2454318
v -0.2403851 1.156459 -0.3943121
v -0.4053341 1.096938 -0.2212906
v -0.2403851 1.096938 -0.3943121
v -0.2454311 1.179065 -0.4025888
v -0.01102408 1.156459 -0.4616757
v -0.2403851 1.096938 -0.3943121
v -0.01102408 1.096938 -0.4616757
v -0.0112551 1.179065 -0.4713675
v 0.2212925 1.156459 -0.4053372
v -0.01102408 1.096938 -0.4616757
v 0.2212925 1.096938 -0.4053372
v 0.2259382 1.179065 -0.4138455
v 0.3943128 1.156459 -0.2403876
v 0.2212925 1.096938 -0.4053372
v 0.3943128 1.096938 -0.2403876
v 0.4025892 1.179065 -0.2454321
v 0.4616795 1.156459 -0.01102602
v 0.3943128 1.096938 -0.2403876
v 0.4616795 1.096938 -0.01102602
v 0.4713694 1.179065 -0.01125765
v 0.4053373 1.156459 0.2212903
v 0.4616795 1.096938 -0.01102602
v 0.4053373 1.096938 0.2212903
v 0.4138456 1.179065 0.2259353
v 0.2403876 1.156459 0.3943112
v 0.245434 1.179065 0.4025879
v 0.4053373 1.096938 0.2212903
v 0.2403876 1.096938 0.3943112
v -0.4616738 1.096938 0.01102385
v -0.3943087 1.096938 0.2403851
v -0.3943087 1.156459 0.2403851
v -0.2259344 1.179065 0.413844
v -0.2212887 1.156459 0.4053351
v 0.01125741 1.179065 0.4713675
v -0.2212887 1.096938 0.4053351
v -0.3943087 1.096938 0.2403851
v 0.0110267 1.156459 0.4616757
v 0.245434 1.179065 0.4025879
v 0.2403876 1.156459 0.3943112
v 0.2403876 1.096938 0.3943112
v 0.0110267 1.096938 0.4616757
v 0.0110267 1.096938 0.4616757
v -0.2212887 1.096938 0.4053351
v 0.01404519 0.007553587 0.5881525
v 0.3062403 0.007553587 0.5023303
v 0.2940534 -4.285601E-07 0.4823404
v 0.01348885 -4.285601E-07 0.5647439
v -0.2819112 0.007553587 0.5163766
v 1.61055E-06 -4.285601E-07 -3.229503E-07
v -0.2706923 -4.285601E-07 0.495827
v -0.5023311 0.007553587 0.306239
v -0.4823391 -4.285601E-07 0.2940524
v -0.588151 0.007553587 0.01404478
v -0.5647445 -4.285601E-07 0.0134857
v -0.4958253 -4.285601E-07 -0.2706946
v -0.516377 0.007553587 -0.2819132
v -0.306238 0.007553587 -0.5023324
v -0.2940511 -4.285601E-07 -0.482341
v -0.01404349 0.007553587 -0.5881528
v -0.01348258 -4.285601E-07 -0.5647476
v 0.2819154 0.007553587 -0.5163785
v 0.2706953 -4.285601E-07 -0.4958292
v 0.5023331 0.007553587 -0.306239
v 0.4823429 -4.285601E-07 -0.294053
v 0.5881553 0.007553587 -0.01404573
v 0.5647486 -4.285601E-07 -0.01348757
v 0.5163788 0.007553587 0.2819125
v 0.4958307 -4.285601E-07 0.2706924
v 0.2940534 -4.285601E-07 0.4823404
v 0.3062403 0.007553587 0.5023303
v 0.01404641 1.180866 0.5881357
v 0.306233 1.180866 0.5023175
v 0.3134922 1.161188 0.5142245
v 0.01437783 1.161188 0.6020773
v -0.2819039 1.180866 0.5163635
v 0.01532906 1.026255 0.641864
v 0.3342075 1.026255 0.5482059
v -0.3076571 1.026255 0.5635339
v -0.2885854 1.161188 0.5286026
v -0.5023165 1.180866 0.3062301
v -0.5482045 1.026255 0.3342053
v -0.5142242 1.161188 0.3134896
v -0.5881342 1.180866 0.01404478
v -0.6418633 1.026255 0.01532774
v -0.6020754 1.161188 0.01437681
v -0.5163615 1.180866 -0.2819049
v -0.5635334 1.026255 -0.3076593
v -0.5286015 1.161188 -0.288588
v -0.3062295 1.180866 -0.502319
v -0.3342055 1.026255 -0.5482077
v -0.3134887 1.161188 -0.5142264
v -0.01404319 1.180866 -0.5881375
v -0.01532706 1.026255 -0.6418643
v -0.01437675 1.161188 -0.6020786
v 0.2819065 1.180866 -0.5163638
v 0.3076585 1.026255 -0.5635355
v 0.2885883 1.161188 -0.5286038
v 0.5023206 1.180866 -0.3062326
v 0.5482081 1.026255 -0.3342062
v 0.5142273 1.161188 -0.3134906
v 0.588137 1.180866 -0.01404482
v 0.6418647 1.026255 -0.01532839
v 0.6020795 1.161188 -0.01437837
v 0.516363 1.180866 0.2819055
v 0.5635358 1.026255 0.3076584
v 0.5286036 1.161188 0.2885867
v 0.306233 1.180866 0.5023175
v 0.3342075 1.026255 0.5482059
v 0.3134922 1.161188 0.5142245
v 0.2940455 1.18843 0.482327
v 0.516363 1.180866 0.2819055
v 0.306233 1.180866 0.5023175
v 0.4958146 1.18843 0.2706854
v 0.588137 1.180866 -0.01404482
v 0.4343888 1.18843 0.2371493
v 0.2576154 1.18843 0.4225711
v 0.245434 1.179065 0.4025879
v 0.4138456 1.179065 0.2259353
v 0.4947678 1.18843 -0.01181612
v 0.4713694 1.179065 -0.01125765
v 0.5647312 1.18843 -0.01348543
v 0.5023206 1.180866 -0.3062326
v 0.4225727 1.18843 -0.2576148
v 0.4025892 1.179065 -0.2454321
v 0.4823301 1.18843 -0.2940451
v 0.2819065 1.180866 -0.5163638
v 0.2371525 1.18843 -0.4343881
v 0.2259382 1.179065 -0.4138455
v 0.2706867 1.18843 -0.4958139
v -0.01404319 1.180866 -0.5881375
v -0.01181296 1.18843 -0.4947665
v -0.0112551 1.179065 -0.4713675
v -0.01348441 1.18843 -0.5647299
v -0.3062295 1.180866 -0.502319
v -0.2576137 1.18843 -0.4225723
v -0.2454311 1.179065 -0.4025888
v -0.2940423 1.18843 -0.4823282
v -0.5163615 1.180866 -0.2819049
v -0.4343852 1.18843 -0.2371503
v -0.4138433 1.179065 -0.2259351
v -0.4958121 1.18843 -0.2706864
v -0.5881342 1.180866 0.01404478
v -0.4947645 1.18843 0.01181456
v -0.4713663 1.179065 0.01125578
v -0.5647286 1.18843 0.01348539
v -0.5023165 1.180866 0.3062301
v -0.4225707 1.18843 0.2576144
v -0.4025871 1.179065 0.2454318
v -0.4823256 1.18843 0.2940435
v -0.2819039 1.180866 0.5163635
v -0.2371502 1.18843 0.4343866
v -0.2259344 1.179065 0.413844
v -0.2706853 1.18843 0.495813
v 0.01404641 1.180866 0.5881357
v 0.01181619 1.18843 0.4947647
v 0.01125741 1.179065 0.4713675
v 0.01348702 1.18843 0.5647293
v 0.306233 1.180866 0.5023175
v 0.2940455 1.18843 0.482327
v 0.2576154 1.18843 0.4225711
v 0.245434 1.179065 0.4025879
v 0.3581983 0.1833397 0.5875586
v 0.3744593 0.275082 0.6142319
v 0.6314066 0.275082 0.3447119
v 0.6039881 0.1833397 0.3297421
v 0.7191712 0.275082 -0.01717439
v 0.6879417 0.1833397 -0.01642946
v 0.6142334 0.275082 -0.3744589
v 0.5875596 0.1833397 -0.3581967
v 0.3447129 0.275082 -0.6314065
v 0.3297456 0.1833397 -0.6039883
v -0.01717246 0.275082 -0.719169
v -0.01642631 0.1833397 -0.6879404
v -0.3744566 0.275082 -0.6142337
v -0.3581957 0.1833397 -0.5875589
v -0.6314052 0.275082 -0.3447122
v -0.6039854 0.1833397 -0.329743
v -0.7191689 0.275082 0.01717314
v -0.6879368 0.1833397 0.01642729
v -0.6142301 0.275082 0.3744568
v -0.5875583 0.1833397 0.358197
v -0.3447112 0.275082 0.6314057
v -0.3297408 0.1833397 0.6039856
v 0.01717538 0.275082 0.7191693
v 0.01642861 0.1833397 0.6879385
v 0.3744593 0.275082 0.6142319
v 0.3581983 0.1833397 0.5875586
v 0.3549247 0.8913221 0.5821881
v 0.3640049 0.918744 0.5970843
v 0.6137809 0.9187434 0.3350885
v 0.5984678 0.8913221 0.326727
v 0.699094 0.9187434 -0.01669374
v 0.6816514 0.8913221 -0.01627809
v 0.5970863 0.9187434 -0.3640042
v 0.5821894 0.8913221 -0.3549222
v 0.3350898 0.9187434 -0.6137789
v 0.3267295 0.8913221 -0.5984671
v -0.01669273 0.9187434 -0.6990927
v -0.01627524 0.8913221 -0.6816531
v -0.3640037 0.9187434 -0.597084
v -0.3549218 0.8913221 -0.5821896
v -0.6137777 0.9187434 -0.3350891
v -0.5984652 0.8913221 -0.3267291
v -0.6990911 0.918744 0.0166934
v -0.6816485 0.8913221 0.01627653
v -0.5970821 0.9187443 0.3640018
v -0.5821871 0.8913221 0.3549219
v -0.3350866 0.918744 0.6137787
v -0.326726 0.8913221 0.5984647
v 0.01669686 0.918744 0.6990912
v 0.0162803 0.8913221 0.6816507
v 0.3640049 0.918744 0.5970843
v 0.3549247 0.8913221 0.5821881
v 0.5635358 1.026255 0.3076584
v 0.3553061 1.009078 0.5828146
v 0.3342075 1.026255 0.5482059
v 0.5991129 1.009078 0.3270791
v 0.6418647 1.026255 -0.01532839
v 0.6823881 1.009078 -0.0162961
v 0.5482081 1.026255 -0.3342062
v 0.5828184 1.009078 -0.3553058
v 0.3076585 1.026255 -0.5635355
v 0.3270814 1.009078 -0.5991116
v -0.01532706 1.026255 -0.6418643
v -0.01629416 1.009078 -0.6823874
v -0.3342055 1.026255 -0.5482077
v -0.3553033 1.009078 -0.5828152
v -0.5635334 1.026255 -0.3076593
v -0.5991106 1.009078 -0.3270813
v -0.6418633 1.026255 0.01532774
v -0.6823837 1.009078 0.01629484
v -0.5482045 1.026255 0.3342053
v -0.5828138 1.009078 0.3553042
v -0.3076571 1.026255 0.5635339
v -0.3270782 1.009078 0.5991098
v 0.01532906 1.026255 0.641864
v 0.01629586 1.009078 0.6823856
v 0.3342075 1.026255 0.5482059
v 0.3553061 1.009078 0.5828146
v 0.3343421 0.1621608 0.5484271
v 0.3581983 0.1833397 0.5875586
v 0.6039881 0.1833397 0.3297421
v 0.5637629 0.1621608 0.3077813
v 0.6879417 0.1833397 -0.01642946
v 0.642125 0.1621608 -0.01533419
v 0.5875596 0.1833397 -0.3581967
v 0.5484284 0.1621608 -0.3343408
v 0.3297456 0.1833397 -0.6039883
v 0.3077833 0.1621608 -0.5637625
v -0.01642631 0.1833397 -0.6879404
v -0.01533317 0.1621608 -0.6421219
v -0.3581957 0.1833397 -0.5875589
v -0.3343392 0.1621608 -0.5484287
v -0.6039854 0.1833397 -0.329743
v -0.5637611 0.1621608 -0.307782
v -0.6879368 0.1833397 0.01642729
v -0.642122 0.1621608 0.01533323
v -0.5875583 0.1833397 0.358197
v -0.548427 0.1621608 0.3343405
v -0.3297408 0.1833397 0.6039856
v -0.3077807 0.1621608 0.5637613
v 0.01642861 0.1833397 0.6879385
v 0.01533456 0.1621608 0.6421221
v 0.3581983 0.1833397 0.5875586
v 0.3343421 0.1621608 0.5484271
v 0.5988895 0.2971074 0.3269586
v 0.3744593 0.275082 0.6142319
v 0.3551743 0.2971074 0.5825992
v 0.6314066 0.275082 0.3447119
v 0.682133 0.2971074 -0.01628908
v 0.7191712 0.275082 -0.01717439
v 0.5826008 0.2971074 -0.3551733
v 0.6142334 0.275082 -0.3744589
v 0.3269596 0.2971074 -0.5988882
v 0.3447129 0.275082 -0.6314065
v -0.01628776 0.2971074 -0.6821328
v -0.01717246 0.275082 -0.719169
v -0.355171 0.2971074 -0.5825992
v -0.3744566 0.275082 -0.6142337
v -0.5988886 0.2971074 -0.3269598
v -0.6314052 0.275082 -0.3447122
v -0.6821309 0.2971074 0.01628935
v -0.7191689 0.275082 0.01717314
v -0.5825981 0.2971074 0.3551718
v -0.6142301 0.275082 0.3744568
v -0.3269579 0.2971074 0.5988879
v -0.3447112 0.275082 0.6314057
v 0.01629037 0.2971074 0.6821319
v 0.01717538 0.275082 0.7191693
v 0.3551743 0.2971074 0.5825992
v 0.3744593 0.275082 0.6142319
v -0.01102408 1.096938 -0.4616757
v 1.61055E-06 1.096938 -3.229503E-07
v -0.2403851 1.096938 -0.3943121
v 0.2212925 1.096938 -0.4053372
v -0.4053341 1.096938 -0.2212906
v 0.3943128 1.096938 -0.2403876
v -0.4616738 1.096938 0.01102385
v 0.4616795 1.096938 -0.01102602
v -0.3943087 1.096938 0.2403851
v 0.4053373 1.096938 0.2212903
v -0.2212887 1.096938 0.4053351
v 0.2403876 1.096938 0.3943112
v 0.0110267 1.096938 0.4616757
vt 0.7104492 0.6411133
vt 0.7109375 0.6518555
vt 0.7236328 0.6518555
vt 0.7236328 0.6411133
vt 0.7114258 0.6303711
vt 0.7363281 0.6518555
vt 0.7236328 0.6308594
vt 0.7363281 0.6411133
vt 0.7490234 0.6518555
vt 0.7363281 0.6308594
vt 0.7490234 0.6416016
vt 0.7617188 0.6518555
vt 0.7490234 0.6308594
vt 0.7617188 0.6416016
vt 0.7739258 0.6518555
vt 0.7617188 0.6308594
vt 0.7744141 0.6416016
vt 0.7866211 0.6518555
vt 0.7744141 0.6308594
vt 0.7871094 0.6416016
vt 0.7993164 0.6518555
vt 0.7871094 0.6313477
vt 0.7993164 0.6416016
vt 0.8120117 0.6523438
vt 0.7998047 0.6313477
vt 0.8120117 0.6416016
vt 0.824707 0.6523438
vt 0.8125 0.6313477
vt 0.824707 0.6416016
vt 0.8374023 0.6523438
vt 0.8251953 0.6313477
vt 0.8374023 0.6420898
vt 0.8500977 0.6523438
vt 0.8374023 0.6313477
vt 0.8500977 0.6420898
vt 0.8623047 0.652832
vt 0.8500977 0.6318359
vt 0.8632813 0.6420898
vt 0.862793 0.6318359
vt 0.8149414 0.7045898
vt 0.8115234 0.7016602
vt 0.8051758 0.7094727
vt 0.8085938 0.7114258
vt 0.8017578 0.7197266
vt 0.8095703 0.7114258
vt 0.8154297 0.7050781
vt 0.8066406 0.7197266
vt 0.8061523 0.7197266
vt 0.8032227 0.7304688
vt 0.8081055 0.7285156
vt 0.8071289 0.7285156
vt 0.8095703 0.7392578
vt 0.8129883 0.7353516
vt 0.8125 0.7358398
vt 0.8193359 0.7441406
vt 0.8203125 0.7392578
vt 0.8203125 0.7402344
vt 0.8300781 0.7441406
vt 0.8286133 0.7397461
vt 0.8291016 0.7402344
vt 0.8393555 0.7397461
vt 0.8364258 0.7358398
vt 0.8369141 0.7363281
vt 0.8461914 0.730957
vt 0.8417969 0.7290039
vt 0.8422852 0.7294922
vt 0.8481445 0.7207031
vt 0.8432617 0.7207031
vt 0.84375 0.7207031
vt 0.8452148 0.7104492
vt 0.8408203 0.7124023
vt 0.8413086 0.7124023
vt 0.8378906 0.7021484
vt 0.8349609 0.7060547
vt 0.8354492 0.7055664
vt 0.8291016 0.6977539
vt 0.8271484 0.7026367
vt 0.8271484 0.7016602
vt 0.7211914 0.6850586
vt 0.7231445 0.6879883
vt 0.7333984 0.6811523
vt 0.7319336 0.6787109
vt 0.7441406 0.6757813
vt 0.7431641 0.6728516
vt 0.7553711 0.671875
vt 0.7543945 0.6689453
vt 0.7670898 0.6689453
vt 0.7666016 0.6660156
vt 0.7792969 0.6674805
vt 0.7788086 0.6640625
vt 0.7910156 0.6669922
vt 0.7910156 0.6635742
vt 0.8032227 0.6679688
vt 0.8037109 0.6645508
vt 0.8149414 0.6699219
vt 0.815918 0.6669922
vt 0.8266602 0.6733398
vt 0.8276367 0.6704102
vt 0.8378906 0.6782227
vt 0.8388672 0.675293
vt 0.8481445 0.6835938
vt 0.8500977 0.6811523
vt 0.8579102 0.690918
vt 0.8603516 0.6884766
vt 0.831543 0.6948242
vt 0.8310547 0.6967773
vt 0.8383789 0.699707
vt 0.8393555 0.6977539
vt 0.8398438 0.6972656
vt 0.831543 0.6938477
vt 0.8466797 0.703125
vt 0.8227539 0.6938477
vt 0.8310547 0.6967773
vt 0.8227539 0.6958008
vt 0.8227539 0.6928711
vt 0.8144531 0.6958008
vt 0.8227539 0.6958008
vt 0.8149414 0.6977539
vt 0.8139648 0.6948242
vt 0.8071289 0.7001953
vt 0.8149414 0.6977539
vt 0.8081055 0.7016602
vt 0.8066406 0.6992188
vt 0.8012695 0.706543
vt 0.8081055 0.7016602
vt 0.8027344 0.7075195
vt 0.800293 0.7060547
vt 0.7973633 0.7143555
vt 0.8027344 0.7075195
vt 0.7993164 0.7148438
vt 0.796875 0.7138672
vt 0.7963867 0.7226563
vt 0.7993164 0.7148438
vt 0.7983398 0.7226563
vt 0.7954102 0.7226563
vt 0.7978516 0.730957
vt 0.796875 0.7314453
vt 0.7983398 0.7226563
vt 0.7998047 0.7304688
vt 0.8383789 0.699707
vt 0.8442383 0.7050781
vt 0.8457031 0.7036133
vt 0.8510742 0.7104492
vt 0.8505859 0.7109375
vt 0.8535156 0.7192383
vt 0.8486328 0.7114258
vt 0.8442383 0.7050781
vt 0.8525391 0.7192383
vt 0.8530273 0.7275391
vt 0.8525391 0.7275391
vt 0.8500977 0.7275391
vt 0.8505859 0.7192383
vt 0.8505859 0.7192383
vt 0.8486328 0.7114258
vt 0.8349609 0.7060547
vt 0.8271484 0.7026367
vt 0.8266602 0.703125
vt 0.8344727 0.706543
vt 0.8408203 0.7124023
vt 0.824707 0.7211914
vt 0.840332 0.7128906
vt 0.8432617 0.7207031
vt 0.8422852 0.7207031
vt 0.8417969 0.7290039
vt 0.8408203 0.7290039
vt 0.8359375 0.7353516
vt 0.8364258 0.7358398
vt 0.8286133 0.7397461
vt 0.8286133 0.7387695
vt 0.8203125 0.7392578
vt 0.8203125 0.7387695
vt 0.8129883 0.7353516
vt 0.8134766 0.7348633
vt 0.8081055 0.7285156
vt 0.8085938 0.7280273
vt 0.8066406 0.7197266
vt 0.8076172 0.7197266
vt 0.8095703 0.7114258
vt 0.8100586 0.7119141
vt 0.815918 0.7055664
vt 0.8154297 0.7050781
vt 0.8574219 0.71875
vt 0.8569336 0.7290039
vt 0.8579102 0.7290039
vt 0.8583984 0.71875
vt 0.8549805 0.7089844
vt 0.8632813 0.7177734
vt 0.862793 0.7294922
vt 0.8603516 0.706543
vt 0.855957 0.7084961
vt 0.8496094 0.7001953
vt 0.8540039 0.6962891
vt 0.8500977 0.699707
vt 0.8417969 0.6938477
vt 0.8447266 0.6889648
vt 0.8422852 0.6928711
vt 0.8325195 0.6899414
vt 0.8339844 0.684082
vt 0.8330078 0.6889648
vt 0.8222656 0.6889648
vt 0.8222656 0.6831055
vt 0.8222656 0.6879883
vt 0.8125 0.690918
vt 0.8105469 0.6855469
vt 0.8125 0.6904297
vt 0.8037109 0.6962891
vt 0.800293 0.6918945
vt 0.8032227 0.6953125
vt 0.796875 0.7036133
vt 0.7919922 0.7006836
vt 0.7963867 0.703125
vt 0.7929688 0.7128906
vt 0.7871094 0.7114258
vt 0.7919922 0.7124023
vt 0.7915039 0.7226563
vt 0.7856445 0.7231445
vt 0.7905273 0.7226563
vt 0.793457 0.7329102
vt 0.7875977 0.734375
vt 0.7924805 0.7333984
vt 0.7939453 0.7329102
vt 0.7915039 0.7226563
vt 0.793457 0.7329102
vt 0.7924805 0.7226563
vt 0.7929688 0.7128906
vt 0.7949219 0.7226563
vt 0.7963867 0.7314453
vt 0.796875 0.7314453
vt 0.7954102 0.7226563
vt 0.7958984 0.7138672
vt 0.796875 0.7138672
vt 0.793457 0.7128906
vt 0.796875 0.7036133
vt 0.7998047 0.7055664
vt 0.800293 0.7060547
vt 0.7978516 0.7041016
vt 0.8037109 0.6962891
vt 0.8056641 0.6987305
vt 0.8066406 0.6992188
vt 0.8041992 0.6967773
vt 0.8125 0.690918
vt 0.8139648 0.6943359
vt 0.8139648 0.6948242
vt 0.8129883 0.6918945
vt 0.8222656 0.6889648
vt 0.8227539 0.6923828
vt 0.8227539 0.6928711
vt 0.8227539 0.6899414
vt 0.8325195 0.6899414
vt 0.831543 0.6928711
vt 0.831543 0.6938477
vt 0.8325195 0.6904297
vt 0.8417969 0.6938477
vt 0.840332 0.6962891
vt 0.8398438 0.6972656
vt 0.8413086 0.6943359
vt 0.8496094 0.7001953
vt 0.847168 0.7021484
vt 0.8466797 0.703125
vt 0.8491211 0.7006836
vt 0.8549805 0.7089844
vt 0.8520508 0.7099609
vt 0.8510742 0.7104492
vt 0.8544922 0.7089844
vt 0.8574219 0.71875
vt 0.8544922 0.71875
vt 0.8535156 0.7192383
vt 0.8569336 0.71875
vt 0.8569336 0.7290039
vt 0.8564453 0.7285156
vt 0.8540039 0.7280273
vt 0.8530273 0.7275391
vt 0.8637695 0.675293
vt 0.8657227 0.6723633
vt 0.8540039 0.6669922
vt 0.8525391 0.6704102
vt 0.8422852 0.6630859
vt 0.8413086 0.6660156
vt 0.8300781 0.659668
vt 0.8291016 0.6630859
vt 0.8178711 0.6572266
vt 0.8173828 0.6606445
vt 0.8056641 0.6557617
vt 0.8051758 0.6591797
vt 0.7929688 0.6547852
vt 0.7929688 0.6582031
vt 0.7807617 0.6552734
vt 0.7807617 0.6586914
vt 0.7680664 0.65625
vt 0.7685547 0.659668
vt 0.7558594 0.6582031
vt 0.7568359 0.6611328
vt 0.7436523 0.6606445
vt 0.7446289 0.6640625
vt 0.7319336 0.6645508
vt 0.7329102 0.6674805
vt 0.7202148 0.6689453
vt 0.7216797 0.671875
vt 0.7207031 0.684082
vt 0.7211914 0.6850586
vt 0.7319336 0.6787109
vt 0.7314453 0.6777344
vt 0.7431641 0.6728516
vt 0.7426758 0.671875
vt 0.7543945 0.6689453
vt 0.7543945 0.6679688
vt 0.7666016 0.6660156
vt 0.7666016 0.6645508
vt 0.7788086 0.6640625
vt 0.7788086 0.6630859
vt 0.7910156 0.6635742
vt 0.7910156 0.6625977
vt 0.8037109 0.6645508
vt 0.8037109 0.6635742
vt 0.815918 0.6669922
vt 0.815918 0.6660156
vt 0.8276367 0.6704102
vt 0.828125 0.6694336
vt 0.8388672 0.675293
vt 0.8393555 0.6743164
vt 0.8500977 0.6811523
vt 0.8505859 0.6801758
vt 0.8603516 0.6884766
vt 0.8608398 0.6875
vt 0.734375 0.6826172
vt 0.7231445 0.6879883
vt 0.7241211 0.6889648
vt 0.7333984 0.6811523
vt 0.7446289 0.6772461
vt 0.7441406 0.6757813
vt 0.7558594 0.6733398
vt 0.7553711 0.671875
vt 0.7675781 0.6704102
vt 0.7670898 0.6689453
vt 0.7792969 0.6689453
vt 0.7792969 0.6674805
vt 0.7910156 0.668457
vt 0.7910156 0.6669922
vt 0.8027344 0.6694336
vt 0.8032227 0.6679688
vt 0.8144531 0.6713867
vt 0.8149414 0.6699219
vt 0.8261719 0.6748047
vt 0.8266602 0.6733398
vt 0.8369141 0.6791992
vt 0.8378906 0.6782227
vt 0.8476563 0.6850586
vt 0.8481445 0.6835938
vt 0.8569336 0.6918945
vt 0.8579102 0.690918
vt 0.862793 0.6767578
vt 0.8637695 0.675293
vt 0.8525391 0.6704102
vt 0.8520508 0.671875
vt 0.8413086 0.6660156
vt 0.840332 0.6679688
vt 0.8291016 0.6630859
vt 0.8291016 0.6645508
vt 0.8173828 0.6606445
vt 0.8168945 0.6621094
vt 0.8051758 0.6591797
vt 0.8051758 0.6606445
vt 0.7929688 0.6582031
vt 0.7929688 0.6601563
vt 0.7807617 0.6586914
vt 0.7807617 0.6601563
vt 0.7685547 0.659668
vt 0.769043 0.6611328
vt 0.7568359 0.6611328
vt 0.7568359 0.6630859
vt 0.7446289 0.6640625
vt 0.7451172 0.6655273
vt 0.7329102 0.6674805
vt 0.7333984 0.6689453
vt 0.7216797 0.671875
vt 0.7226563 0.6733398
vt 0.8544922 0.6655273
vt 0.8657227 0.6723633
vt 0.8657227 0.6708984
vt 0.8540039 0.6669922
vt 0.8422852 0.6616211
vt 0.8422852 0.6630859
vt 0.8305664 0.6582031
vt 0.8300781 0.659668
vt 0.8183594 0.6557617
vt 0.8178711 0.6572266
vt 0.8056641 0.6542969
vt 0.8056641 0.6557617
vt 0.7929688 0.6533203
vt 0.7929688 0.6547852
vt 0.7807617 0.6538086
vt 0.7807617 0.6552734
vt 0.7680664 0.6547852
vt 0.7680664 0.65625
vt 0.7558594 0.6567383
vt 0.7558594 0.6582031
vt 0.7436523 0.6591797
vt 0.7436523 0.6606445
vt 0.7314453 0.6630859
vt 0.7319336 0.6645508
vt 0.7197266 0.6674805
vt 0.7202148 0.6689453
vt 0.7963867 0.6884766
vt 0.784668 0.6850586
vt 0.793457 0.6938477
vt 0.7963867 0.6821289
vt 0.7880859 0.6967773
vt 0.793457 0.6767578
vt 0.7817383 0.6967773
vt 0.7880859 0.6738281
vt 0.7763672 0.6938477
vt 0.7817383 0.6738281
vt 0.7734375 0.6884766
vt 0.7763672 0.6767578
vt 0.7734375 0.6821289
vn 0.5205078 0.0007581711 0.8540039
vn 0.5131836 0.1687012 0.8417969
vn 0.8652344 0.1687012 0.4724121
vn 0.8779297 0.0007581711 0.479248
vn 0.5131836 -0.1671143 0.8417969
vn 0.9853516 0.1687012 -0.02352905
vn 0.8652344 -0.1671143 0.4724121
vn 0.9995117 0.0007586479 -0.02388
vn 0.8417969 0.1687012 -0.5131836
vn 0.9858398 -0.1671143 -0.02354431
vn 0.8540039 0.0007591248 -0.5205078
vn 0.4724121 0.1687012 -0.8652344
vn 0.8417969 -0.1671143 -0.5131836
vn 0.479248 0.0007586479 -0.8779297
vn -0.02352905 0.1687012 -0.9853516
vn 0.4724121 -0.1671143 -0.8652344
vn -0.02388 0.0007581711 -0.9995117
vn -0.5131836 0.1687012 -0.8417969
vn -0.02354431 -0.1671143 -0.9858398
vn -0.5205078 0.0007581711 -0.8540039
vn -0.8652344 0.1687012 -0.4724121
vn -0.5131836 -0.1671143 -0.8417969
vn -0.8779297 0.0007586479 -0.479248
vn -0.9853516 0.1687012 0.02352905
vn -0.8652344 -0.1671143 -0.4724121
vn -0.9995117 0.0007591248 0.02388
vn -0.8417969 0.1687012 0.5131836
vn -0.9858398 -0.1671143 0.02354431
vn -0.8540039 0.0007591248 0.5205078
vn -0.4724121 0.1687012 0.8652344
vn -0.8417969 -0.1671143 0.5131836
vn -0.479248 0.0007591248 0.8779297
vn 0.02352905 0.1687012 0.9853516
vn -0.4724121 -0.1671143 0.8652344
vn 0.02388 0.0007586479 0.9995117
vn 0.5131836 0.1687012 0.8417969
vn 0.02354431 -0.1671143 0.9858398
vn 0.5205078 0.0007581711 0.8540039
vn 0.5131836 -0.1671143 0.8417969
vn 0.4926758 -0.3227539 0.8081055
vn 0.4990234 -0.2844238 0.8183594
vn 0.8413086 -0.2844238 0.4594727
vn 0.8305664 -0.3227539 0.4536133
vn 0.9584961 -0.2844238 -0.02288818
vn 0.715332 -0.5791016 0.390625
vn 0.4243164 -0.5791016 0.6962891
vn 0.8149414 -0.5791016 -0.01947021
vn 0.9462891 -0.3227539 -0.02259827
vn 0.8183594 -0.2844238 -0.4990234
vn 0.6962891 -0.5791016 -0.4243164
vn 0.8081055 -0.3227539 -0.4926758
vn 0.4594727 -0.2844238 -0.8413086
vn 0.390625 -0.5791016 -0.715332
vn 0.4536133 -0.3227539 -0.8305664
vn -0.02288818 -0.2844238 -0.9584961
vn -0.01947021 -0.5791016 -0.8149414
vn -0.02259827 -0.3227539 -0.9462891
vn -0.4990234 -0.2844238 -0.8183594
vn -0.4243164 -0.5791016 -0.6962891
vn -0.4926758 -0.3227539 -0.8081055
vn -0.8413086 -0.2844238 -0.4594727
vn -0.715332 -0.5791016 -0.390625
vn -0.8305664 -0.3227539 -0.4536133
vn -0.9584961 -0.2844238 0.02288818
vn -0.8149414 -0.5791016 0.01947021
vn -0.9462891 -0.3227539 0.02259827
vn -0.8183594 -0.2844238 0.4990234
vn -0.6962891 -0.5791016 0.4243164
vn -0.8081055 -0.3227539 0.4926758
vn -0.4594727 -0.2844238 0.8413086
vn -0.390625 -0.5791016 0.715332
vn -0.4536133 -0.3227539 0.8305664
vn 0.02288818 -0.2844238 0.9584961
vn 0.01947021 -0.5791016 0.8149414
vn 0.02259827 -0.3227539 0.9462891
vn 0.4990234 -0.2844238 0.8183594
vn 0.4243164 -0.5791016 0.6962891
vn 0.4926758 -0.3227539 0.8081055
vn 0.5117188 0.1818848 0.8393555
vn 0.5117188 0.1818848 0.8393555
vn 0.8632813 0.1818848 0.4711914
vn 0.8632813 0.1818848 0.4711914
vn 0.9829102 0.1818848 -0.02348328
vn 0.9829102 0.1818848 -0.02346802
vn 0.8393555 0.1818848 -0.5117188
vn 0.8393555 0.1818848 -0.5117188
vn 0.4711914 0.1818848 -0.8632813
vn 0.4711914 0.1818848 -0.8632813
vn -0.02346802 0.1818848 -0.9829102
vn -0.02346802 0.1818848 -0.9829102
vn -0.5117188 0.1818848 -0.8393555
vn -0.5117188 0.1818848 -0.8393555
vn -0.8632813 0.1818848 -0.4711914
vn -0.8632813 0.1818848 -0.4711914
vn -0.9829102 0.1818848 0.02348328
vn -0.9829102 0.1818848 0.02348328
vn -0.8393555 0.1818848 0.5117188
vn -0.8393555 0.1818848 0.5117188
vn -0.4711914 0.1818848 0.8632813
vn -0.4711914 0.1818848 0.8632813
vn 0.02346802 0.1818848 0.9829102
vn 0.02348328 0.1818848 0.9829102
vn 0.5117188 0.1818848 0.8393555
vn 0.5117188 0.1818848 0.8393555
vn 0.8710938 0.1234741 0.4755859
vn 0.9716797 0 0.2357178
vn 0.9716797 0 0.2357178
vn 0.9921875 0.1234741 -0.0236969
vn 0.9189453 0.394043 -0.02194214
vn 0.8066406 0.394043 0.4404297
vn 0.784668 0.394043 -0.4785156
vn 0.5166016 0.1234741 0.847168
vn 0.7236328 0 0.6899414
vn 0.7236328 0 0.6899414
vn 0.4785156 0.394043 0.784668
vn 0.0236969 0.1234741 0.9921875
vn 0.2817383 0 0.9594727
vn 0.2817383 0 0.9594727
vn 0.02194214 0.394043 0.9189453
vn -0.4755859 0.1234741 0.8710938
vn -0.2357178 0 0.9716797
vn -0.2357178 0 0.9716797
vn -0.4404297 0.394043 0.8066406
vn -0.847168 0.1234741 0.5166016
vn -0.6899414 0 0.7236328
vn -0.6899414 0 0.7236328
vn -0.784668 0.394043 0.4785156
vn -0.9921875 0.1234741 0.02368164
vn -0.9594727 0 0.2817383
vn -0.9594727 0 0.2817383
vn -0.9189453 0.394043 0.02194214
vn -0.8710938 0.1234741 -0.4755859
vn -0.9716797 0 -0.2357178
vn -0.9716797 0 -0.2357178
vn -0.8066406 0.394043 -0.4404297
vn -0.5166016 0.1234741 -0.847168
vn -0.4785156 0.394043 -0.784668
vn -0.7236328 0 -0.6899414
vn -0.7236328 0 -0.6899414
vn 0.9594727 0 -0.2817383
vn 0.9594727 0 -0.2817383
vn 0.847168 0.1234741 -0.5166016
vn 0.4404297 0.394043 -0.8066406
vn 0.4755859 0.1234741 -0.8710938
vn -0.02194214 0.394043 -0.9189453
vn 0.6899414 0 -0.7236328
vn 0.6899414 0 -0.7236328
vn -0.0236969 0.1234741 -0.9921875
vn -0.4785156 0.394043 -0.784668
vn -0.5166016 0.1234741 -0.847168
vn -0.2817383 0 -0.9594727
vn -0.2817383 0 -0.9594727
vn 0.2357178 0 -0.9716797
vn 0.2357178 0 -0.9716797
vn 0.007328033 -0.9516602 0.3068848
vn 0.15979 -0.9516602 0.262207
vn 0.01766968 -0.9995117 0.02897644
vn 0.0008096695 -0.9995117 0.03393555
vn -0.1470947 -0.9516602 0.2695313
vn 0 -1 0
vn -0.01626587 -0.9995117 0.02978516
vn -0.262207 -0.9516602 0.15979
vn -0.02897644 -0.9995117 0.01766968
vn -0.3068848 -0.9516602 0.007331848
vn -0.03393555 -0.9995117 0.0008101463
vn -0.02978516 -0.9995117 -0.01626587
vn -0.2695313 -0.9516602 -0.1470947
vn -0.15979 -0.9516602 -0.262207
vn -0.01766968 -0.9995117 -0.02897644
vn -0.007328033 -0.9516602 -0.3068848
vn -0.0008096695 -0.9995117 -0.03393555
vn 0.1470947 -0.9516602 -0.2695313
vn 0.01626587 -0.9995117 -0.02978516
vn 0.262207 -0.9516602 -0.15979
vn 0.02897644 -0.9995117 -0.01766968
vn 0.3068848 -0.9516602 -0.007331848
vn 0.03393555 -0.9995117 -0.0008101463
vn 0.2695313 -0.9516602 0.1470947
vn 0.02978516 -0.9995117 0.01626587
vn 0.01766968 -0.9995117 0.02897644
vn 0.15979 -0.9516602 0.262207
vn 0.01948547 0.578125 0.8154297
vn 0.4248047 0.578125 0.6967773
vn 0.4929199 0.3215332 0.8085938
vn 0.02259827 0.3215332 0.9467773
vn -0.3908691 0.578125 0.7163086
vn 0.02290344 0.282959 0.9589844
vn 0.4992676 0.282959 0.8188477
vn -0.4597168 0.282959 0.8417969
vn -0.4538574 0.3215332 0.8310547
vn -0.6967773 0.578125 0.4248047
vn -0.8188477 0.282959 0.4992676
vn -0.8085938 0.3215332 0.4929199
vn -0.8154297 0.578125 0.01948547
vn -0.9589844 0.282959 0.02290344
vn -0.9467773 0.3215332 0.02261353
vn -0.7163086 0.578125 -0.3908691
vn -0.8417969 0.282959 -0.4597168
vn -0.8310547 0.3215332 -0.4538574
vn -0.4248047 0.578125 -0.6967773
vn -0.4992676 0.282959 -0.8188477
vn -0.4929199 0.3215332 -0.8085938
vn -0.01948547 0.578125 -0.8154297
vn -0.02290344 0.282959 -0.9589844
vn -0.02259827 0.3215332 -0.9467773
vn 0.3908691 0.578125 -0.7163086
vn 0.4597168 0.282959 -0.8417969
vn 0.4538574 0.3215332 -0.8310547
vn 0.6967773 0.578125 -0.4248047
vn 0.8188477 0.282959 -0.4992676
vn 0.8085938 0.3215332 -0.4929199
vn 0.8154297 0.578125 -0.01947021
vn 0.9589844 0.282959 -0.02290344
vn 0.9467773 0.3215332 -0.02259827
vn 0.7163086 0.578125 0.3908691
vn 0.8417969 0.282959 0.4597168
vn 0.8310547 0.3215332 0.4538574
vn 0.4248047 0.578125 0.6967773
vn 0.4992676 0.282959 0.8188477
vn 0.4929199 0.3215332 0.8085938
vn 0.05618286 0.9941406 0.09216309
vn 0.2697754 0.9516602 0.1473389
vn 0.1600342 0.9516602 0.2624512
vn 0.09472656 0.9941406 0.05169678
vn 0.307373 0.9516602 -0.007339478
vn -0.06341553 0.9975586 -0.03460693
vn -0.03759766 0.9975586 -0.06167603
vn -0.1933594 0.9282227 -0.3171387
vn -0.3259277 0.9282227 -0.1779785
vn -0.07220459 0.9975586 0.001724243
vn -0.3713379 0.9282227 0.008872986
vn 0.1078491 0.9941406 -0.002576828
vn 0.2624512 0.9516602 -0.1600342
vn -0.06167603 0.9975586 0.03759766
vn -0.3171387 0.9282227 0.1933594
vn 0.09216309 0.9941406 -0.05618286
vn 0.1473389 0.9516602 -0.2697754
vn -0.03460693 0.9975586 0.06341553
vn -0.1779785 0.9282227 0.3259277
vn 0.05169678 0.9941406 -0.09472656
vn -0.007339478 0.9516602 -0.307373
vn 0.001725197 0.9975586 0.07220459
vn 0.008872986 0.9282227 0.3713379
vn -0.002574921 0.9941406 -0.1078491
vn -0.1600342 0.9516602 -0.2624512
vn 0.03759766 0.9975586 0.06167603
vn 0.1933594 0.9282227 0.3171387
vn -0.05618286 0.9941406 -0.09216309
vn -0.2697754 0.9516602 -0.1473389
vn 0.06341553 0.9975586 0.03460693
vn 0.3259277 0.9282227 0.1779785
vn -0.09472656 0.9941406 -0.05169678
vn -0.307373 0.9516602 0.007339478
vn 0.07220459 0.9975586 -0.001724243
vn 0.3713379 0.9282227 -0.008872986
vn -0.1078491 0.9941406 0.002576828
vn -0.2624512 0.9516602 0.1600342
vn 0.06167603 0.9975586 -0.03759766
vn 0.3171387 0.9282227 -0.1933594
vn -0.09216309 0.9941406 0.05618286
vn -0.1473389 0.9516602 0.2697754
vn 0.03460693 0.9975586 -0.06341553
vn 0.1779785 0.9282227 -0.3259277
vn -0.05169678 0.9941406 0.09472656
vn 0.007339478 0.9516602 0.307373
vn -0.001725197 0.9975586 -0.07220459
vn -0.008872986 0.9282227 -0.3713379
vn 0.002574921 0.9941406 0.1078491
vn 0.1600342 0.9516602 0.2624512
vn 0.05618286 0.9941406 0.09216309
vn -0.03759766 0.9975586 -0.06167603
vn -0.1933594 0.9282227 -0.3171387
vn 0.4926758 -0.3222656 0.8081055
vn 0.4926758 -0.3222656 0.8081055
vn 0.8310547 -0.3222656 0.4536133
vn 0.8310547 -0.3222656 0.4536133
vn 0.9462891 -0.3222656 -0.02259827
vn 0.9462891 -0.3222656 -0.02259827
vn 0.8081055 -0.3222656 -0.4926758
vn 0.8081055 -0.3222656 -0.4926758
vn 0.4536133 -0.3222656 -0.8310547
vn 0.4536133 -0.3222656 -0.8310547
vn -0.02259827 -0.3222656 -0.9462891
vn -0.02259827 -0.3222656 -0.9462891
vn -0.4926758 -0.3222656 -0.8081055
vn -0.4926758 -0.3222656 -0.8081055
vn -0.8310547 -0.3222656 -0.4536133
vn -0.8310547 -0.3222656 -0.4536133
vn -0.9462891 -0.3222656 0.02259827
vn -0.9462891 -0.3222656 0.02259827
vn -0.8081055 -0.3222656 0.4926758
vn -0.8081055 -0.3222656 0.4926758
vn -0.4536133 -0.3222656 0.8310547
vn -0.4536133 -0.3222656 0.8310547
vn 0.02259827 -0.3222656 0.9462891
vn 0.02259827 -0.3222656 0.9462891
vn 0.4926758 -0.3222656 0.8081055
vn 0.4926758 -0.3222656 0.8081055
vn 0.439209 -0.5366211 0.7202148
vn 0.439209 -0.5366211 0.7202148
vn 0.7407227 -0.5366211 0.4042969
vn 0.7407227 -0.5366211 0.4042969
vn 0.8432617 -0.5366211 -0.0201416
vn 0.8432617 -0.5366211 -0.0201416
vn 0.7202148 -0.5366211 -0.439209
vn 0.7202148 -0.5366211 -0.439209
vn 0.4042969 -0.5366211 -0.7407227
vn 0.4042969 -0.5366211 -0.7407227
vn -0.0201416 -0.5366211 -0.8432617
vn -0.0201416 -0.5366211 -0.8432617
vn -0.439209 -0.5366211 -0.7202148
vn -0.439209 -0.5366211 -0.7202148
vn -0.7407227 -0.5366211 -0.4042969
vn -0.7407227 -0.5366211 -0.4042969
vn -0.8432617 -0.5366211 0.0201416
vn -0.8432617 -0.5366211 0.0201416
vn -0.7202148 -0.5366211 0.439209
vn -0.7202148 -0.5366211 0.439209
vn -0.4042969 -0.5366211 0.7407227
vn -0.4042969 -0.5366211 0.7407227
vn 0.0201416 -0.5366211 0.8432617
vn 0.0201416 -0.5366211 0.8432617
vn 0.439209 -0.5366211 0.7202148
vn 0.439209 -0.5366211 0.7202148
vn 0.3425293 0.9208984 0.1870117
vn 0.203125 0.9208984 0.333252
vn 0.203125 0.9208984 0.333252
vn 0.3425293 0.9208984 0.1870117
vn 0.3901367 0.9208984 -0.009315491
vn 0.3901367 0.9208984 -0.009315491
vn 0.333252 0.9208984 -0.203125
vn 0.333252 0.9208984 -0.203125
vn 0.1870117 0.9208984 -0.3425293
vn 0.1870117 0.9208984 -0.3425293
vn -0.009315491 0.9208984 -0.3901367
vn -0.009315491 0.9208984 -0.3901367
vn -0.203125 0.9208984 -0.333252
vn -0.203125 0.9208984 -0.333252
vn -0.3425293 0.9208984 -0.1870117
vn -0.3425293 0.9208984 -0.1870117
vn -0.3901367 0.9208984 0.009315491
vn -0.3901367 0.9208984 0.009315491
vn -0.333252 0.9208984 0.203125
vn -0.333252 0.9208984 0.203125
vn -0.1870117 0.9208984 0.3425293
vn -0.1870117 0.9208984 0.3425293
vn 0.009315491 0.9208984 0.3901367
vn 0.009315491 0.9208984 0.3901367
vn 0.203125 0.9208984 0.333252
vn 0.203125 0.9208984 0.333252
vn 0.2183838 -0.9077148 0.3581543
vn 0.2183838 -0.9077148 0.3581543
vn 0.3681641 -0.9077148 0.2010498
vn 0.3681641 -0.9077148 0.2010498
vn 0.4194336 -0.9077148 -0.0100174
vn 0.4194336 -0.9077148 -0.0100174
vn 0.3581543 -0.9077148 -0.2183838
vn 0.3581543 -0.9077148 -0.2183838
vn 0.2010498 -0.9077148 -0.3681641
vn 0.2010498 -0.9077148 -0.3681641
vn -0.0100174 -0.9077148 -0.4194336
vn -0.01000977 -0.9077148 -0.4194336
vn -0.2183838 -0.9077148 -0.3581543
vn -0.2183838 -0.9077148 -0.3581543
vn -0.3681641 -0.9077148 -0.2010498
vn -0.3681641 -0.9077148 -0.2010498
vn -0.4194336 -0.9077148 0.0100174
vn -0.4194336 -0.9077148 0.0100174
vn -0.3581543 -0.9077148 0.2183838
vn -0.3581543 -0.9077148 0.2183838
vn -0.2010498 -0.9077148 0.3681641
vn -0.2010498 -0.9077148 0.3681641
vn 0.01000977 -0.9077148 0.4194336
vn 0.01000977 -0.9077148 0.4194336
vn 0.2183838 -0.9077148 0.3581543
vn 0.2183838 -0.9077148 0.3581543
vn 0.4484863 0.859375 0.244873
vn 0.2661133 0.859375 0.4362793
vn 0.2661133 0.859375 0.4362793
vn 0.4484863 0.859375 0.244873
vn 0.5107422 0.859375 -0.0121994
vn 0.5107422 0.859375 -0.0121994
vn 0.4362793 0.859375 -0.2661133
vn 0.4362793 0.859375 -0.2661133
vn 0.244873 0.859375 -0.4484863
vn 0.244873 0.859375 -0.4484863
vn -0.0121994 0.859375 -0.5107422
vn -0.0121994 0.859375 -0.5107422
vn -0.2661133 0.859375 -0.4362793
vn -0.2661133 0.859375 -0.4362793
vn -0.4484863 0.859375 -0.244873
vn -0.4484863 0.859375 -0.244873
vn -0.5107422 0.859375 0.0121994
vn -0.5107422 0.859375 0.0121994
vn -0.4362793 0.859375 0.2661133
vn -0.4362793 0.859375 0.2661133
vn -0.244873 0.859375 0.4484863
vn -0.244873 0.859375 0.4484863
vn 0.0121994 0.859375 0.5107422
vn 0.0121994 0.859375 0.5107422
vn 0.2661133 0.859375 0.4362793
vn 0.2661133 0.859375 0.4362793
vn 0 1 0
vn 0 1 0
vn 0 1 0
vn 0 1 0
vn 0 1 0
vn 0 1 0
vn 0 1 0
vn 0 1 0
vn 0 1 0
vn 0 1 0
vn 0 1 0
vn 0 1 0
vn 0 1 0
g Barrel_0
f 3/3/3 2/2/2 1/1/1
f 4/4/4 3/3/3 1/1/1
f 4/4/4 1/1/1 5/5/5
f 6/6/6 3/3/3 4/4/4
f 7/7/7 4/4/4 5/5/5
f 8/8/8 6/6/6 4/4/4
f 8/8/8 4/4/4 7/7/7
f 9/9/9 6/6/6 8/8/8
f 10/10/10 8/8/8 7/7/7
f 11/11/11 9/9/9 8/8/8
f 11/11/11 8/8/8 10/10/10
f 12/12/12 9/9/9 11/11/11
f 13/13/13 11/11/11 10/10/10
f 14/14/14 12/12/12 11/11/11
f 14/14/14 11/11/11 13/13/13
f 15/15/15 12/12/12 14/14/14
f 16/16/16 14/14/14 13/13/13
f 17/17/17 15/15/15 14/14/14
f 17/17/17 14/14/14 16/16/16
f 18/18/18 15/15/15 17/17/17
f 19/19/19 17/17/17 16/16/16
f 20/20/20 18/18/18 17/17/17
f 20/20/20 17/17/17 19/19/19
f 21/21/21 18/18/18 20/20/20
f 22/22/22 20/20/20 19/19/19
f 23/23/23 21/21/21 20/20/20
f 23/23/23 20/20/20 22/22/22
f 24/24/24 21/21/21 23/23/23
f 25/25/25 23/23/23 22/22/22
f 26/26/26 24/24/24 23/23/23
f 26/26/26 23/23/23 25/25/25
f 27/27/27 24/24/24 26/26/26
f 28/28/28 26/26/26 25/25/25
f 29/29/29 27/27/27 26/26/26
f 29/29/29 26/26/26 28/28/28
f 30/30/30 27/27/27 29/29/29
f 31/31/31 29/29/29 28/28/28
f 32/32/32 30/30/30 29/29/29
f 32/32/32 29/29/29 31/31/31
f 33/33/33 30/30/30 32/32/32
f 34/34/34 32/32/32 31/31/31
f 35/35/35 33/33/33 32/32/32
f 35/35/35 32/32/32 34/34/34
f 36/36/36 33/33/33 35/35/35
f 37/37/37 35/35/35 34/34/34
f 38/38/38 36/36/36 35/35/35
f 38/38/38 35/35/35 37/37/37
f 39/39/39 38/38/38 37/37/37
f 42/42/42 41/41/41 40/40/40
f 43/43/43 42/42/42 40/40/40
f 44/44/44 42/42/42 43/43/43
f 45/45/45 43/43/43 40/40/40
f 46/46/46 45/45/45 40/40/40
f 45/45/45 47/47/47 43/43/43
f 48/48/48 44/44/44 43/43/43
f 47/47/47 48/48/48 43/43/43
f 49/49/49 44/44/44 48/48/48
f 47/47/47 50/50/50 48/48/48
f 51/51/51 49/49/49 48/48/48
f 50/50/50 51/51/51 48/48/48
f 52/52/52 49/49/49 51/51/51
f 50/50/50 53/53/53 51/51/51
f 54/54/54 52/52/52 51/51/51
f 53/53/53 54/54/54 51/51/51
f 55/55/55 52/52/52 54/54/54
f 53/53/53 56/56/56 54/54/54
f 57/57/57 55/55/55 54/54/54
f 56/56/56 57/57/57 54/54/54
f 58/58/58 55/55/55 57/57/57
f 56/56/56 59/59/59 57/57/57
f 60/60/60 58/58/58 57/57/57
f 59/59/59 60/60/60 57/57/57
f 61/61/61 58/58/58 60/60/60
f 60/60/60 59/59/59 62/62/62
f 63/63/63 61/61/61 60/60/60
f 63/63/63 60/60/60 62/62/62
f 64/64/64 61/61/61 63/63/63
f 62/62/62 65/65/65 63/63/63
f 66/66/66 64/64/64 63/63/63
f 65/65/65 66/66/66 63/63/63
f 67/67/67 64/64/64 66/66/66
f 65/65/65 68/68/68 66/66/66
f 69/69/69 67/67/67 66/66/66
f 68/68/68 69/69/69 66/66/66
f 70/70/70 67/67/67 69/69/69
f 68/68/68 71/71/71 69/69/69
f 72/72/72 70/70/70 69/69/69
f 71/71/71 72/72/72 69/69/69
f 73/73/73 70/70/70 72/72/72
f 71/71/71 74/74/74 72/72/72
f 75/75/75 73/73/73 72/72/72
f 74/74/74 75/75/75 72/72/72
f 76/76/76 73/73/73 75/75/75
f 74/74/74 77/77/77 75/75/75
f 78/78/78 76/76/76 75/75/75
f 77/77/77 78/78/78 75/75/75
f 81/81/81 80/80/80 79/79/79
f 82/82/82 81/81/81 79/79/79
f 83/83/83 81/81/81 82/82/82
f 84/84/84 83/83/83 82/82/82
f 85/85/85 83/83/83 84/84/84
f 86/86/86 85/85/85 84/84/84
f 87/87/87 85/85/85 86/86/86
f 88/88/88 87/87/87 86/86/86
f 89/89/89 87/87/87 88/88/88
f 90/90/90 89/89/89 88/88/88
f 91/91/91 89/89/89 90/90/90
f 92/92/92 91/91/91 90/90/90
f 93/93/93 91/91/91 92/92/92
f 94/94/94 93/93/93 92/92/92
f 95/95/95 93/93/93 94/94/94
f 96/96/96 95/95/95 94/94/94
f 97/97/97 95/95/95 96/96/96
f 98/98/98 97/97/97 96/96/96
f 99/99/99 97/97/97 98/98/98
f 100/100/100 99/99/99 98/98/98
f 101/101/101 99/99/99 100/100/100
f 102/102/102 101/101/101 100/100/100
f 103/103/103 101/101/101 102/102/102
f 104/104/104 103/103/103 102/102/102
f 107/107/107 106/106/106 105/105/105
f 108/108/108 107/107/107 105/105/105
f 109/109/109 108/108/108 105/105/105
f 110/110/110 109/109/109 105/105/105
f 109/109/109 111/111/111 108/108/108
f 105/105/105 112/112/112 110/110/110
f 105/105/105 113/113/113 112/112/112
f 113/113/113 114/114/114 112/112/112
f 112/112/112 115/115/115 110/110/110
f 115/115/115 112/112/112 116/116/116
f 112/112/112 117/117/117 116/116/116
f 117/117/117 118/118/118 116/116/116
f 119/119/119 115/115/115 116/116/116
f 119/119/119 116/116/116 120/120/120
f 116/116/116 121/121/121 120/120/120
f 121/121/121 122/122/122 120/120/120
f 123/123/123 119/119/119 120/120/120
f 123/123/123 120/120/120 124/124/124
f 120/120/120 125/125/125 124/124/124
f 125/125/125 126/126/126 124/124/124
f 127/127/127 123/123/123 124/124/124
f 127/127/127 124/124/124 128/128/128
f 124/124/124 129/129/129 128/128/128
f 129/129/129 130/130/130 128/128/128
f 131/131/131 127/127/127 128/128/128
f 131/131/131 128/128/128 132/132/132
f 128/128/128 133/133/133 132/132/132
f 133/133/133 134/134/134 132/132/132
f 135/135/135 131/131/131 132/132/132
f 135/135/135 132/132/132 136/136/136
f 137/137/137 135/135/135 136/136/136
f 132/132/132 138/138/138 136/136/136
f 138/138/138 139/139/139 136/136/136
f 141/141/141 140/140/140 108/108/108
f 142/142/142 141/141/141 108/108/108
f 111/111/111 142/142/142 108/108/108
f 111/111/111 143/143/143 142/142/142
f 143/143/143 144/144/144 142/142/142
f 143/143/143 145/145/145 144/144/144
f 144/144/144 146/146/146 142/142/142
f 146/146/146 147/147/147 142/142/142
f 145/145/145 148/148/148 144/144/144
f 145/145/145 149/149/149 148/148/148
f 149/149/149 150/150/150 148/148/148
f 150/150/150 151/151/151 148/148/148
f 151/151/151 152/152/152 148/148/148
f 148/148/148 153/153/153 144/144/144
f 153/153/153 154/154/154 144/144/144
f 157/157/157 156/156/156 155/155/155
f 158/158/158 157/157/157 155/155/155
f 158/158/158 155/155/155 159/159/159
f 158/158/158 160/160/160 157/157/157
f 161/161/161 158/158/158 159/159/159
f 161/161/161 160/160/160 158/158/158
f 161/161/161 159/159/159 162/162/162
f 163/163/163 160/160/160 161/161/161
f 163/163/163 161/161/161 162/162/162
f 163/163/163 162/162/162 164/164/164
f 165/165/165 160/160/160 163/163/163
f 165/165/165 163/163/163 164/164/164
f 166/166/166 160/160/160 165/165/165
f 165/165/165 164/164/164 167/167/167
f 166/166/166 165/165/165 167/167/167
f 167/167/167 168/168/168 166/166/166
f 168/168/168 169/169/169 166/166/166
f 169/169/169 160/160/160 166/166/166
f 169/169/169 168/168/168 170/170/170
f 171/171/171 169/169/169 170/170/170
f 171/171/171 160/160/160 169/169/169
f 171/171/171 170/170/170 172/172/172
f 173/173/173 171/171/171 172/172/172
f 173/173/173 160/160/160 171/171/171
f 173/173/173 172/172/172 174/174/174
f 175/175/175 173/173/173 174/174/174
f 175/175/175 160/160/160 173/173/173
f 175/175/175 174/174/174 176/176/176
f 177/177/177 175/175/175 176/176/176
f 177/177/177 160/160/160 175/175/175
f 177/177/177 176/176/176 178/178/178
f 179/179/179 160/160/160 177/177/177
f 179/179/179 177/177/177 178/178/178
f 180/180/180 160/160/160 179/179/179
f 179/179/179 178/178/178 181/181/181
f 180/180/180 179/179/179 181/181/181
f 184/184/184 183/183/183 182/182/182
f 185/185/185 184/184/184 182/182/182
f 185/185/185 182/182/182 186/186/186
f 184/184/184 185/185/185 187/187/187
f 188/188/188 184/184/184 187/187/187
f 187/187/187 185/185/185 189/189/189
f 190/190/190 185/185/185 186/186/186
f 185/185/185 190/190/190 189/189/189
f 190/190/190 186/186/186 191/191/191
f 189/189/189 190/190/190 192/192/192
f 193/193/193 190/190/190 191/191/191
f 190/190/190 193/193/193 192/192/192
f 193/193/193 191/191/191 194/194/194
f 192/192/192 193/193/193 195/195/195
f 196/196/196 193/193/193 194/194/194
f 193/193/193 196/196/196 195/195/195
f 196/196/196 194/194/194 197/197/197
f 195/195/195 196/196/196 198/198/198
f 199/199/199 196/196/196 197/197/197
f 196/196/196 199/199/199 198/198/198
f 197/197/197 200/200/200 199/199/199
f 198/198/198 199/199/199 201/201/201
f 200/200/200 202/202/202 199/199/199
f 199/199/199 202/202/202 201/201/201
f 202/202/202 200/200/200 203/203/203
f 201/201/201 202/202/202 204/204/204
f 205/205/205 202/202/202 203/203/203
f 202/202/202 205/205/205 204/204/204
f 205/205/205 203/203/203 206/206/206
f 204/204/204 205/205/205 207/207/207
f 208/208/208 205/205/205 206/206/206
f 205/205/205 208/208/208 207/207/207
f 208/208/208 206/206/206 209/209/209
f 207/207/207 208/208/208 210/210/210
f 211/211/211 208/208/208 209/209/209
f 208/208/208 211/211/211 210/210/210
f 211/211/211 209/209/209 212/212/212
f 210/210/210 211/211/211 213/213/213
f 214/214/214 211/211/211 212/212/212
f 211/211/211 214/214/214 213/213/213
f 214/214/214 212/212/212 215/215/215
f 213/213/213 214/214/214 216/216/216
f 217/217/217 214/214/214 215/215/215
f 214/214/214 217/217/217 216/216/216
f 217/217/217 215/215/215 218/218/218
f 216/216/216 217/217/217 219/219/219
f 220/220/220 217/217/217 218/218/218
f 217/217/217 220/220/220 219/219/219
f 223/223/223 222/222/222 221/221/221
f 222/222/222 224/224/224 221/221/221
f 222/222/222 225/225/225 224/224/224
f 224/224/224 226/226/226 221/221/221
f 226/226/226 227/227/227 221/221/221
f 227/227/227 226/226/226 228/228/228
f 226/226/226 229/229/229 228/228/228
f 226/226/226 230/230/230 229/229/229
f 230/230/230 226/226/226 224/224/224
f 230/230/230 231/231/231 229/229/229
f 225/225/225 232/232/232 224/224/224
f 232/232/232 230/230/230 224/224/224
f 225/225/225 233/233/233 232/232/232
f 230/230/230 234/234/234 231/231/231
f 234/234/234 230/230/230 232/232/232
f 234/234/234 235/235/235 231/231/231
f 233/233/233 236/236/236 232/232/232
f 236/236/236 234/234/234 232/232/232
f 233/233/233 237/237/237 236/236/236
f 234/234/234 238/238/238 235/235/235
f 238/238/238 234/234/234 236/236/236
f 238/238/238 239/239/239 235/235/235
f 237/237/237 240/240/240 236/236/236
f 240/240/240 238/238/238 236/236/236
f 237/237/237 241/241/241 240/240/240
f 238/238/238 242/242/242 239/239/239
f 242/242/242 238/238/238 240/240/240
f 242/242/242 243/243/243 239/239/239
f 241/241/241 244/244/244 240/240/240
f 244/244/244 242/242/242 240/240/240
f 241/241/241 245/245/245 244/244/244
f 242/242/242 246/246/246 243/243/243
f 246/246/246 242/242/242 244/244/244
f 246/246/246 247/247/247 243/243/243
f 245/245/245 248/248/248 244/244/244
f 248/248/248 246/246/246 244/244/244
f 248/248/248 245/245/245 249/249/249
f 247/247/247 246/246/246 250/250/250
f 250/250/250 246/246/246 248/248/248
f 251/251/251 247/247/247 250/250/250
f 252/252/252 248/248/248 249/249/249
f 252/252/252 250/250/250 248/248/248
f 249/249/249 253/253/253 252/252/252
f 250/250/250 254/254/254 251/251/251
f 254/254/254 250/250/250 252/252/252
f 254/254/254 255/255/255 251/251/251
f 253/253/253 256/256/256 252/252/252
f 256/256/256 254/254/254 252/252/252
f 253/253/253 257/257/257 256/256/256
f 254/254/254 258/258/258 255/255/255
f 258/258/258 254/254/254 256/256/256
f 258/258/258 259/259/259 255/255/255
f 257/257/257 260/260/260 256/256/256
f 260/260/260 258/258/258 256/256/256
f 257/257/257 261/261/261 260/260/260
f 258/258/258 262/262/262 259/259/259
f 262/262/262 258/258/258 260/260/260
f 262/262/262 263/263/263 259/259/259
f 261/261/261 264/264/264 260/260/260
f 264/264/264 262/262/262 260/260/260
f 261/261/261 265/265/265 264/264/264
f 262/262/262 266/266/266 263/263/263
f 266/266/266 262/262/262 264/264/264
f 266/266/266 267/267/267 263/263/263
f 265/265/265 268/268/268 264/264/264
f 268/268/268 266/266/266 264/264/264
f 265/265/265 269/269/269 268/268/268
f 269/269/269 270/270/270 268/268/268
f 270/270/270 271/271/271 268/268/268
f 271/271/271 266/266/266 268/268/268
f 266/266/266 271/271/271 267/267/267
f 271/271/271 272/272/272 267/267/267
f 275/275/275 274/274/274 273/273/273
f 276/276/276 275/275/275 273/273/273
f 277/277/277 275/275/275 276/276/276
f 278/278/278 277/277/277 276/276/276
f 279/279/279 277/277/277 278/278/278
f 280/280/280 279/279/279 278/278/278
f 281/281/281 279/279/279 280/280/280
f 282/282/282 281/281/281 280/280/280
f 283/283/283 281/281/281 282/282/282
f 284/284/284 283/283/283 282/282/282
f 285/285/285 283/283/283 284/284/284
f 286/286/286 285/285/285 284/284/284
f 287/287/287 285/285/285 286/286/286
f 288/288/288 287/287/287 286/286/286
f 289/289/289 287/287/287 288/288/288
f 290/290/290 289/289/289 288/288/288
f 291/291/291 289/289/289 290/290/290
f 292/292/292 291/291/291 290/290/290
f 293/293/293 291/291/291 292/292/292
f 294/294/294 293/293/293 292/292/292
f 295/295/295 293/293/293 294/294/294
f 296/296/296 295/295/295 294/294/294
f 297/297/297 295/295/295 296/296/296
f 298/298/298 297/297/297 296/296/296
f 301/301/301 300/300/300 299/299/299
f 302/302/302 301/301/301 299/299/299
f 303/303/303 301/301/301 302/302/302
f 304/304/304 303/303/303 302/302/302
f 305/305/305 303/303/303 304/304/304
f 306/306/306 305/305/305 304/304/304
f 307/307/307 305/305/305 306/306/306
f 308/308/308 307/307/307 306/306/306
f 309/309/309 307/307/307 308/308/308
f 310/310/310 309/309/309 308/308/308
f 311/311/311 309/309/309 310/310/310
f 312/312/312 311/311/311 310/310/310
f 313/313/313 311/311/311 312/312/312
f 314/314/314 313/313/313 312/312/312
f 315/315/315 313/313/313 314/314/314
f 316/316/316 315/315/315 314/314/314
f 317/317/317 315/315/315 316/316/316
f 318/318/318 317/317/317 316/316/316
f 319/319/319 317/317/317 318/318/318
f 320/320/320 319/319/319 318/318/318
f 321/321/321 319/319/319 320/320/320
f 322/322/322 321/321/321 320/320/320
f 323/323/323 321/321/321 322/322/322
f 324/324/324 323/323/323 322/322/322
f 327/327/327 326/326/326 325/325/325
f 326/326/326 328/328/328 325/325/325
f 325/325/325 328/328/328 329/329/329
f 328/328/328 330/330/330 329/329/329
f 329/329/329 330/330/330 331/331/331
f 330/330/330 332/332/332 331/331/331
f 331/331/331 332/332/332 333/333/333
f 332/332/332 334/334/334 333/333/333
f 333/333/333 334/334/334 335/335/335
f 334/334/334 336/336/336 335/335/335
f 335/335/335 336/336/336 337/337/337
f 336/336/336 338/338/338 337/337/337
f 337/337/337 338/338/338 339/339/339
f 338/338/338 340/340/340 339/339/339
f 339/339/339 340/340/340 341/341/341
f 340/340/340 342/342/342 341/341/341
f 341/341/341 342/342/342 343/343/343
f 342/342/342 344/344/344 343/343/343
f 343/343/343 344/344/344 345/345/345
f 344/344/344 346/346/346 345/345/345
f 345/345/345 346/346/346 347/347/347
f 346/346/346 348/348/348 347/347/347
f 347/347/347 348/348/348 349/349/349
f 348/348/348 350/350/350 349/349/349
f 353/353/353 352/352/352 351/351/351
f 354/354/354 353/353/353 351/351/351
f 355/355/355 353/353/353 354/354/354
f 356/356/356 355/355/355 354/354/354
f 357/357/357 355/355/355 356/356/356
f 358/358/358 357/357/357 356/356/356
f 359/359/359 357/357/357 358/358/358
f 360/360/360 359/359/359 358/358/358
f 361/361/361 359/359/359 360/360/360
f 362/362/362 361/361/361 360/360/360
f 363/363/363 361/361/361 362/362/362
f 364/364/364 363/363/363 362/362/362
f 365/365/365 363/363/363 364/364/364
f 366/366/366 365/365/365 364/364/364
f 367/367/367 365/365/365 366/366/366
f 368/368/368 367/367/367 366/366/366
f 369/369/369 367/367/367 368/368/368
f 370/370/370 369/369/369 368/368/368
f 371/371/371 369/369/369 370/370/370
f 372/372/372 371/371/371 370/370/370
f 373/373/373 371/371/371 372/372/372
f 374/374/374 373/373/373 372/372/372
f 375/375/375 373/373/373 374/374/374
f 376/376/376 375/375/375 374/374/374
f 379/379/379 378/378/378 377/377/377
f 378/378/378 380/380/380 377/377/377
f 377/377/377 380/380/380 381/381/381
f 380/380/380 382/382/382 381/381/381
f 381/381/381 382/382/382 383/383/383
f 382/382/382 384/384/384 383/383/383
f 383/383/383 384/384/384 385/385/385
f 384/384/384 386/386/386 385/385/385
f 385/385/385 386/386/386 387/387/387
f 386/386/386 388/388/388 387/387/387
f 387/387/387 388/388/388 389/389/389
f 388/388/388 390/390/390 389/389/389
f 389/389/389 390/390/390 391/391/391
f 390/390/390 392/392/392 391/391/391
f 391/391/391 392/392/392 393/393/393
f 392/392/392 394/394/394 393/393/393
f 393/393/393 394/394/394 395/395/395
f 394/394/394 396/396/396 395/395/395
f 395/395/395 396/396/396 397/397/397
f 396/396/396 398/398/398 397/397/397
f 397/397/397 398/398/398 399/399/399
f 398/398/398 400/400/400 399/399/399
f 399/399/399 400/400/400 401/401/401
f 400/400/400 402/402/402 401/401/401
f 405/405/405 404/404/404 403/403/403
f 403/403/403 404/404/404 406/406/406
f 407/407/407 404/404/404 405/405/405
f 406/406/406 404/404/404 408/408/408
f 409/409/409 404/404/404 407/407/407
f 408/408/408 404/404/404 410/410/410
f 411/411/411 404/404/404 409/409/409
f 410/410/410 404/404/404 412/412/412
f 413/413/413 404/404/404 411/411/411
f 412/412/412 404/404/404 414/414/414
f 415/415/415 404/404/404 413/413/413
f 414/414/414 404/404/404 415/415/415
