g Base003
v 10.43644 -1.445713 2.298599
v 10.8773 0.1906354 0.9145749
v 10.9556 -1.445713 0.9498363
v 10.37438 0.1908501 2.221185
v 6.618616 0.1927982 8.458917
v 6.7179 -1.445712 8.474442
v 5.768743 -1.445712 9.564301
v 5.699134 0.1933215 9.514708
v 4.504072 -1.445712 10.2638
v 4.49427 0.1940778 10.18112
v 3.076427 -1.445712 10.48858
v 3.111244 0.195 10.39885
v -4.168733 0.1999788 10.265
v -4.131282 -1.445712 10.35615
v -5.549707 -1.445712 10.07908
v -5.542828 0.2009423 9.996574
v -6.787828 -1.445712 9.333594
v -6.722413 0.201817 9.28632
v -7.696309 -1.445712 8.209603
v -7.602515 0.2025243 8.197445
v -11.12673 0.2055549 1.825853
v -11.18548 -1.445713 1.901332
v -11.65474 -1.445713 0.5344079
v -11.58134 0.2059958 0.5016389
v 10.9556 -1.445713 0.9498363
v 10.8773 0.1906354 0.9145749
v 10.90258 0.1907533 -0.4620901
v 10.98215 -1.445713 -0.4951514
v 10.44797 0.1911944 -1.786304
v 10.51288 -1.445713 -1.862076
v 7.02372 -1.445713 -8.170349
v 6.923753 0.1942244 -8.157894
v 6.043651 0.1949318 -9.246772
v 6.115237 -1.445713 -9.294339
v 4.864067 0.1958075 -9.957024
v 4.877116 -1.445714 -10.03983
v 3.489971 0.1967697 -10.22545
v 3.458691 -1.445713 -10.31689
v -3.749017 -1.445713 -10.44932
v -3.790006 0.2017491 -10.3593
v -5.173031 0.2026708 -10.14157
v -5.176662 -1.445713 -10.22455
v -6.377893 0.2034276 -9.475157
v -6.441333 -1.445713 -9.525046
v -7.297378 0.203951 -8.41937
v -7.390492 -1.445713 -8.435187
v -11.10903 -1.445713 -2.259344
v -11.05314 0.2058991 -2.181634
v -11.55606 0.2061138 -0.8750232
v -11.62819 -1.445713 -0.9105806
v -11.58134 0.2059958 0.5016389
v -11.65474 -1.445713 0.5344079
vt 0.02185059 0.04959106
vt -5.960464E-08 0.9868164
vt -5.960464E-08 0.04959106
vt 0.02185059 0.9868164
vt 0.1812744 0.9868164
vt 0.1812744 0.04959106
vt 0.22229 0.04959106
vt 0.22229 0.9868164
vt 0.2775879 0.04959106
vt 0.2775879 0.9868164
vt 0.3405762 0.04959106
vt 0.3405762 0.9868164
vt 0.6591797 0.9868164
vt 0.6591797 0.04959106
vt 0.722168 0.04959106
vt 0.722168 0.9868164
vt 0.777832 0.04959106
vt 0.777832 0.9868164
vt 0.8188477 0.04959106
vt 0.8188477 0.9868164
vt 0.9780273 0.9868164
vt 0.9780273 0.04959106
vt 1 0.04959106
vt 1 0.9868164
vt -5.960464E-08 0.04959106
vt -5.960464E-08 0.9868164
vt 0 0.9868164
vt 0 0.04959106
vt 0.02185059 0.9868164
vt 0.02185059 0.04959106
vt 0.1812744 0.04959106
vt 0.1812744 0.9868164
vt 0.22229 0.9868164
vt 0.22229 0.04959106
vt 0.2775879 0.9868164
vt 0.2775879 0.04959106
vt 0.3405762 0.9868164
vt 0.3405762 0.04959106
vt 0.6591797 0.04959106
vt 0.6591797 0.9868164
vt 0.722168 0.9868164
vt 0.722168 0.04959106
vt 0.777832 0.9868164
vt 0.777832 0.04959106
vt 0.8188477 0.9868164
vt 0.8188477 0.04959106
vt 0.9780273 0.04959106
vt 0.9780273 0.9868164
vt 1 0.9868164
vt 1 0.04959106
vt 1 0.9868164
vt 1 0.04959106
vn 0.871582 0 0.4902344
vn 0.9814453 0 0.1907959
vn 0.9814453 0 0.1907959
vn 0.871582 0 0.4902344
vn 0.8427734 0 0.5385742
vn 0.8393555 0 0.5439453
vn 0.6279297 0 0.7783203
vn 0.6318359 0 0.7753906
vn 0.3220215 0 0.9467773
vn 0.3220215 0 0.9467773
vn 0.007751465 0 1
vn 0.007751465 0 1
vn -0.04681396 0 0.9990234
vn -0.04644775 0 0.9990234
vn -0.3579102 0 0.9335938
vn -0.3605957 0 0.9326172
vn -0.6547852 0 0.7558594
vn -0.6586914 0 0.7524414
vn -0.8613281 0 0.5078125
vn -0.8613281 0 0.5078125
vn -0.887207 0 0.4611816
vn -0.887207 0 0.4611816
vn -0.9873047 0 0.1586914
vn -0.9873047 0 0.1586914
vn 0.9814453 0 0.1907959
vn 0.9814453 0 0.1907959
vn 0.9873047 0 -0.1574707
vn 0.9873047 0 -0.1574707
vn 0.8886719 0 -0.4580078
vn 0.8886719 0 -0.4580078
vn 0.859375 0 -0.5112305
vn 0.859375 0 -0.5112305
vn 0.6567383 0 -0.7539063
vn 0.652832 0 -0.7573242
vn 0.3605957 0 -0.9326172
vn 0.3579102 0 -0.9335938
vn 0.04681396 0 -0.9990234
vn 0.04644775 0 -0.9990234
vn -0.007751465 0 -1
vn -0.00769043 0 -1
vn -0.3220215 0 -0.9467773
vn -0.3220215 0 -0.9467773
vn -0.6254883 0 -0.7802734
vn -0.6254883 0 -0.7802734
vn -0.8427734 0 -0.5385742
vn -0.8427734 0 -0.5385742
vn -0.871582 0 -0.4902344
vn -0.871582 0 -0.4902344
vn -0.980957 0 -0.1937256
vn -0.980957 0 -0.1937256
vn -0.9873047 0 0.1586914
vn -0.9873047 0 0.1586914
g Base003_0
f 3/3/3 2/2/2 1/1/1
f 2/2/2 4/4/4 1/1/1
f 1/1/1 4/4/4 5/5/5
f 6/6/6 1/1/1 5/5/5
f 6/6/6 5/5/5 7/7/7
f 5/5/5 8/8/8 7/7/7
f 7/7/7 8/8/8 9/9/9
f 8/8/8 10/10/10 9/9/9
f 9/9/9 10/10/10 11/11/11
f 10/10/10 12/12/12 11/11/11
f 11/11/11 12/12/12 13/13/13
f 14/14/14 11/11/11 13/13/13
f 14/14/14 13/13/13 15/15/15
f 13/13/13 16/16/16 15/15/15
f 15/15/15 16/16/16 17/17/17
f 16/16/16 18/18/18 17/17/17
f 17/17/17 18/18/18 19/19/19
f 18/18/18 20/20/20 19/19/19
f 19/19/19 20/20/20 21/21/21
f 22/22/22 19/19/19 21/21/21
f 22/22/22 21/21/21 23/23/23
f 21/21/21 24/24/24 23/23/23
f 27/27/27 26/26/26 25/25/25
f 28/28/28 27/27/27 25/25/25
f 29/29/29 27/27/27 28/28/28
f 30/30/30 29/29/29 28/28/28
f 30/30/30 31/31/31 29/29/29
f 31/31/31 32/32/32 29/29/29
f 33/33/33 32/32/32 31/31/31
f 34/34/34 33/33/33 31/31/31
f 35/35/35 33/33/33 34/34/34
f 36/36/36 35/35/35 34/34/34
f 37/37/37 35/35/35 36/36/36
f 38/38/38 37/37/37 36/36/36
f 38/38/38 39/39/39 37/37/37
f 39/39/39 40/40/40 37/37/37
f 41/41/41 40/40/40 39/39/39
f 42/42/42 41/41/41 39/39/39
f 43/43/43 41/41/41 42/42/42
f 44/44/44 43/43/43 42/42/42
f 45/45/45 43/43/43 44/44/44
f 46/46/46 45/45/45 44/44/44
f 46/46/46 47/47/47 45/45/45
f 47/47/47 48/48/48 45/45/45
f 49/49/49 48/48/48 47/47/47
f 50/50/50 49/49/49 47/47/47
f 51/51/51 49/49/49 50/50/50
f 52/52/52 51/51/51 50/50/50
