g Base2
v -27.95223 -2.610168 -0.9491389
v -28.65597 2.610168 2.653656
v -28.65597 -2.610168 2.653656
v -27.95223 2.610168 -0.9491389
v -21.37459 2.610168 -18.03759
v -21.37459 -2.610168 -18.03759
v -19.48106 -2.610168 -21.18242
v -19.48106 2.610168 -21.18242
v -16.62613 -2.610168 -23.48997
v -16.62613 2.610168 -23.48997
v -13.15414 -2.610168 -24.68191
v -13.15414 2.610168 -24.68191
v 4.933719 2.610168 -27.52974
v 4.933719 -2.610168 -27.52974
v 8.603986 -2.610168 -27.4623
v 8.603986 2.610168 -27.4623
v 12.02985 -2.610168 -26.14363
v 12.02985 2.610168 -26.14363
v 14.79809 -2.610168 -23.73277
v 14.79809 2.610168 -23.73277
v 26.30831 2.610168 -9.492144
v 26.30831 -2.610168 -9.492144
v 28.08504 -2.610168 -6.279883
v 28.08504 2.610168 -6.279883
v -28.65597 -2.610168 2.653656
v -28.65597 2.610168 2.653656
v -28.08504 2.610168 6.279875
v -28.08504 -2.610168 6.279875
v -26.3083 2.610168 9.492138
v -26.3083 -2.610168 9.492138
v -14.79809 -2.610168 23.73277
v -14.79809 2.610168 23.73277
v -12.02985 2.610168 26.14363
v -12.02985 -2.610168 26.14363
v -8.603987 2.610168 27.4623
v -8.603987 -2.610168 27.4623
v -4.933716 2.610168 27.52973
v -4.933716 -2.610168 27.52973
v 13.15414 -2.610168 24.68191
v 13.15414 2.610168 24.68191
v 16.62613 2.610168 23.48997
v 16.62613 -2.610168 23.48997
v 19.48106 2.610168 21.18242
v 19.48106 -2.610168 21.18242
v 21.37459 2.610168 18.03759
v 21.37459 -2.610168 18.03759
v 27.95223 -2.610168 0.9491349
v 27.95223 2.610168 0.9491349
v 28.65597 2.610168 -2.653662
v 28.65597 -2.610168 -2.653662
v 28.08504 2.610168 -6.279883
v 28.08504 -2.610168 -6.279883
vt 0.02185059 0.04959106
vt -5.960464E-08 0.9868164
vt -5.960464E-08 0.04959106
vt 0.02185059 0.9868164
vt 0.1812744 0.9868164
vt 0.1812744 0.04959106
vt 0.22229 0.04959106
vt 0.22229 0.9868164
vt 0.2775879 0.04959106
vt 0.2775879 0.9868164
vt 0.3405762 0.04959106
vt 0.3405762 0.9868164
vt 0.6591797 0.9868164
vt 0.6591797 0.04959106
vt 0.722168 0.04959106
vt 0.722168 0.9868164
vt 0.777832 0.04959106
vt 0.777832 0.9868164
vt 0.8188477 0.04959106
vt 0.8188477 0.9868164
vt 0.9780273 0.9868164
vt 0.9780273 0.04959106
vt 1 0.04959106
vt 1 0.9868164
vt -5.960464E-08 0.04959106
vt -5.960464E-08 0.9868164
vt 0 0.9868164
vt 0 0.04959106
vt 0.02185059 0.9868164
vt 0.02185059 0.04959106
vt 0.1812744 0.04959106
vt 0.1812744 0.9868164
vt 0.22229 0.9868164
vt 0.22229 0.04959106
vt 0.2775879 0.9868164
vt 0.2775879 0.04959106
vt 0.3405762 0.9868164
vt 0.3405762 0.04959106
vt 0.6591797 0.04959106
vt 0.6591797 0.9868164
vt 0.722168 0.9868164
vt 0.722168 0.04959106
vt 0.777832 0.9868164
vt 0.777832 0.04959106
vt 0.8188477 0.9868164
vt 0.8188477 0.04959106
vt 0.9780273 0.04959106
vt 0.9780273 0.9868164
vt 1 0.9868164
vt 1 0.04959106
vt 1 0.9868164
vt 1 0.04959106
vn -0.9433594 0 -0.3320313
vn -1 0 -0.01837158
vn -1 0 -0.01837158
vn -0.9433594 0 -0.3320313
vn -0.9223633 0 -0.3862305
vn -0.9223633 0 -0.3862305
vn -0.7539063 0 -0.6567383
vn -0.7539063 0 -0.6567383
vn -0.4838867 0 -0.875
vn -0.4838867 0 -0.875
vn -0.1842041 0 -0.9829102
vn -0.1842041 0 -0.9829102
vn -0.126709 0 -0.9916992
vn -0.126709 0 -0.9916992
vn 0.1916504 0 -0.9814453
vn 0.1916504 0 -0.9814453
vn 0.515625 0 -0.8569336
vn 0.515625 0 -0.8569336
vn 0.7592773 0 -0.6508789
vn 0.7592773 0 -0.6508789
vn 0.7958984 0 -0.605957
vn 0.7958984 0 -0.605957
vn 0.9458008 0 -0.324707
vn 0.9458008 0 -0.324707
vn -1 0 -0.01837158
vn -1 0 -0.01837158
vn -0.9458008 0 0.324707
vn -0.9458008 0 0.324707
vn -0.7958984 0 0.605957
vn -0.7958984 0 0.605957
vn -0.7592773 0 0.6508789
vn -0.7592773 0 0.6508789
vn -0.515625 0 0.8569336
vn -0.515625 0 0.8569336
vn -0.1916504 0 0.9814453
vn -0.1916504 0 0.9814453
vn 0.126709 0 0.9916992
vn 0.126709 0 0.9916992
vn 0.1842041 0 0.9829102
vn 0.1842041 0 0.9829102
vn 0.4838867 0 0.875
vn 0.4838867 0 0.875
vn 0.7539063 0 0.6567383
vn 0.7539063 0 0.6567383
vn 0.9223633 0 0.3862305
vn 0.9223633 0 0.3862305
vn 0.9433594 0 0.3320313
vn 0.9433594 0 0.3320313
vn 1 0 0.01837158
vn 1 0 0.01837158
vn 0.9458008 0 -0.324707
vn 0.9458008 0 -0.324707
g Base2_0
f 3/3/3 2/2/2 1/1/1
f 2/2/2 4/4/4 1/1/1
f 1/1/1 4/4/4 5/5/5
f 6/6/6 1/1/1 5/5/5
f 6/6/6 5/5/5 7/7/7
f 5/5/5 8/8/8 7/7/7
f 7/7/7 8/8/8 9/9/9
f 8/8/8 10/10/10 9/9/9
f 9/9/9 10/10/10 11/11/11
f 10/10/10 12/12/12 11/11/11
f 11/11/11 12/12/12 13/13/13
f 14/14/14 11/11/11 13/13/13
f 14/14/14 13/13/13 15/15/15
f 13/13/13 16/16/16 15/15/15
f 15/15/15 16/16/16 17/17/17
f 16/16/16 18/18/18 17/17/17
f 17/17/17 18/18/18 19/19/19
f 18/18/18 20/20/20 19/19/19
f 19/19/19 20/20/20 21/21/21
f 22/22/22 19/19/19 21/21/21
f 22/22/22 21/21/21 23/23/23
f 21/21/21 24/24/24 23/23/23
f 27/27/27 26/26/26 25/25/25
f 28/28/28 27/27/27 25/25/25
f 29/29/29 27/27/27 28/28/28
f 30/30/30 29/29/29 28/28/28
f 30/30/30 31/31/31 29/29/29
f 31/31/31 32/32/32 29/29/29
f 33/33/33 32/32/32 31/31/31
f 34/34/34 33/33/33 31/31/31
f 35/35/35 33/33/33 34/34/34
f 36/36/36 35/35/35 34/34/34
f 37/37/37 35/35/35 36/36/36
f 38/38/38 37/37/37 36/36/36
f 38/38/38 39/39/39 37/37/37
f 39/39/39 40/40/40 37/37/37
f 41/41/41 40/40/40 39/39/39
f 42/42/42 41/41/41 39/39/39
f 43/43/43 41/41/41 42/42/42
f 44/44/44 43/43/43 42/42/42
f 45/45/45 43/43/43 44/44/44
f 46/46/46 45/45/45 44/44/44
f 46/46/46 47/47/47 45/45/45
f 47/47/47 48/48/48 45/45/45
f 49/49/49 48/48/48 47/47/47
f 50/50/50 49/49/49 47/47/47
f 51/51/51 49/49/49 50/50/50
f 52/52/52 51/51/51 50/50/50
