g BaseGlow
v -10.9891 -1.686551 -1.416606
v -11.12979 1.449585E-06 -0.7119101
v -11.17479 -1.686551 -0.731303
v -10.94774 1.64032E-06 -1.381979
v -6.683558 -1.68655 -8.837256
v -6.632968 2.861023E-06 -8.818532
v -6.141593 2.975464E-06 -9.309129
v -6.180761 -1.68655 -9.338574
v -5.598006 -1.68655 -9.744186
v -5.57497 3.280639E-06 -9.704086
v -4.948365 3.051758E-06 -9.994635
v -4.954071 -1.686549 -10.0433
v -4.267734 -1.686549 -10.22514
v -4.277042 3.242493E-06 -10.17201
v 4.31151 -1.686549 -10.20676
v 4.32059 3.395081E-06 -10.15359
v 4.991147 3.356934E-06 -9.973339
v 4.997062 -1.686549 -10.02198
v 5.639709 -1.686549 -9.720108
v 5.616501 3.395081E-06 -9.680108
v 6.181425 3.280639E-06 -9.282727
v 6.22072 -1.686549 -9.312002
v 6.721364 -1.686549 -8.808535
v 6.670695 3.356934E-06 -8.79003
v 10.99507 -1.68655 -1.369503
v 10.95356 2.174377E-06 -1.335053
v 11.13274 1.945496E-06 -0.6642103
v 11.17782 -1.68655 -0.6834096
v 11.23772 -1.686551 0.02407708
v 11.19147 2.059936E-06 0.02397744
v 11.12979 1.716614E-06 0.7119075
v 11.17479 -1.686551 0.7313002
v 10.9891 -1.686551 1.416604
v 10.94774 1.831055E-06 1.381977
v 6.683558 -1.686552 8.837255
v 6.632968 4.196167E-07 8.818533
v 6.141591 1.907349E-07 9.309129
v 6.180761 -1.686552 9.338573
v 5.598006 -1.686552 9.744184
v 5.574969 2.670288E-07 9.704086
v 4.948364 1.144409E-07 9.994635
v 4.954071 -1.686552 10.0433
v 4.267734 -1.686553 10.22514
v 4.277041 1.525879E-07 10.17201
v -4.311509 -1.686553 10.20676
v -4.320589 0 10.15358
v -4.991147 -2.288818E-07 9.973339
v -4.997061 -1.686553 10.02198
v -5.639709 -1.686553 9.720106
v -5.6165 3.814697E-08 9.680107
v -6.181426 1.525879E-07 9.282726
v -6.220721 -1.686553 9.312
v -6.721364 -1.686553 8.808533
v -6.670695 7.629394E-08 8.79003
v -10.99506 -1.686551 1.3695
v -10.95356 1.106262E-06 1.33505
v -11.13274 1.373291E-06 0.6642081
v -11.17782 -1.686551 0.6834066
v -11.23771 -1.686551 -0.02407996
v -11.19147 1.411438E-06 -0.02398001
v -11.12979 1.449585E-06 -0.7119101
v -11.17479 -1.686551 -0.731303
vt 0.01092529 0.04959106
vt -5.960464E-08 0.9868164
vt -5.960464E-08 0.04959106
vt 0.01092529 0.9868164
vt 0.2017822 0.04959106
vt 0.2017822 0.9868164
vt 0.22229 0.9868164
vt 0.22229 0.04959106
vt 0.25 0.04959106
vt 0.25 0.9868164
vt 0.2775879 0.9868164
vt 0.2775879 0.04959106
vt 0.309082 0.04959106
vt 0.309082 0.9868164
vt 0.690918 0.04959106
vt 0.690918 0.9868164
vt 0.722168 0.9868164
vt 0.722168 0.04959106
vt 0.75 0.04959106
vt 0.75 0.9868164
vt 0.777832 0.9868164
vt 0.777832 0.04959106
vt 0.7983398 0.04959106
vt 0.7983398 0.9868164
vt 0.9892578 0.04959106
vt 0.9892578 0.9868164
vt 1 0.9868164
vt 1 0.04959106
vt 1 0.04959106
vt 1 0.9868164
vt 1 0.9868164
vt 1 0.04959106
vt 0.9892578 0.04959106
vt 0.9892578 0.9868164
vt 0.7983398 0.04959106
vt 0.7983398 0.9868164
vt 0.777832 0.9868164
vt 0.777832 0.04959106
vt 0.75 0.04959106
vt 0.75 0.9868164
vt 0.722168 0.9868164
vt 0.722168 0.04959106
vt 0.690918 0.04959106
vt 0.690918 0.9868164
vt 0.309082 0.04959106
vt 0.309082 0.9868164
vt 0.2775879 0.9868164
vt 0.2775879 0.04959106
vt 0.25 0.04959106
vt 0.25 0.9868164
vt 0.22229 0.9868164
vt 0.22229 0.04959106
vt 0.2017822 0.04959106
vt 0.2017822 0.9868164
vt 0.01092529 0.04959106
vt 0.01092529 0.9868164
vt 0 0.9868164
vt 0 0.04959106
vt 0 0.04959106
vt 0 0.9868164
vt -5.960464E-08 0.9868164
vt -5.960464E-08 0.04959106
vn -0.8740234 0.03137207 -0.4848633
vn -0.9838867 0.02827454 -0.1757813
vn -0.9838867 0.02828979 -0.1765137
vn -0.8740234 0.03137207 -0.484375
vn -0.8544922 0.03137207 -0.5180664
vn -0.8544922 0.03137207 -0.5185547
vn -0.6411133 0.02827454 -0.7670898
vn -0.6416016 0.02828979 -0.7666016
vn -0.4980469 0.02755737 -0.8666992
vn -0.4980469 0.02755737 -0.8666992
vn -0.3398438 0.02827454 -0.9399414
vn -0.3391113 0.02828979 -0.9404297
vn -0.01716614 0.03137207 -0.9995117
vn -0.01760864 0.03137207 -0.9995117
vn 0.02145386 0.03137207 -0.9995117
vn 0.0218811 0.03137207 -0.9995117
vn 0.34375 0.02827454 -0.9384766
vn 0.3430176 0.02828979 -0.9389648
vn 0.5014648 0.02755737 -0.8647461
vn 0.5014648 0.02755737 -0.8647461
vn 0.644043 0.02827454 -0.7641602
vn 0.6450195 0.02827454 -0.7636719
vn 0.8569336 0.03137207 -0.5146484
vn 0.8564453 0.03137207 -0.5151367
vn 0.8759766 0.03137207 -0.480957
vn 0.8764648 0.03137207 -0.4807129
vn 0.9848633 0.02827454 -0.1715088
vn 0.9848633 0.02828979 -0.1722412
vn 0.9995117 0.02755737 0.002141953
vn 0.9995117 0.02755737 0.002141953
vn 0.9838867 0.02827454 0.1757813
vn 0.9838867 0.02828979 0.1765137
vn 0.8740234 0.03137207 0.4848633
vn 0.8740234 0.03137207 0.484375
vn 0.8544922 0.03137207 0.5180664
vn 0.8544922 0.03137207 0.5185547
vn 0.6411133 0.02827454 0.7670898
vn 0.6416016 0.02828979 0.7666016
vn 0.4980469 0.02755737 0.8666992
vn 0.4980469 0.02755737 0.8666992
vn 0.3398438 0.02827454 0.9399414
vn 0.3391113 0.02828979 0.9404297
vn 0.01716614 0.03137207 0.9995117
vn 0.01759338 0.03137207 0.9995117
vn -0.02145386 0.03137207 0.9995117
vn -0.0218811 0.03137207 0.9995117
vn -0.34375 0.02827454 0.9384766
vn -0.3430176 0.02827454 0.9389648
vn -0.5014648 0.02755737 0.8647461
vn -0.5014648 0.02755737 0.8647461
vn -0.644043 0.02827454 0.7641602
vn -0.6450195 0.02827454 0.7636719
vn -0.8569336 0.03137207 0.5146484
vn -0.8564453 0.03137207 0.5151367
vn -0.8759766 0.03137207 0.480957
vn -0.8764648 0.03137207 0.4807129
vn -0.9848633 0.02827454 0.1715088
vn -0.9848633 0.02827454 0.1722412
vn -0.9995117 0.02755737 -0.002141953
vn -0.9995117 0.02755737 -0.002141953
vn -0.9838867 0.02827454 -0.1757813
vn -0.9838867 0.02828979 -0.1765137
g BaseGlow_0
f 3/3/3 2/2/2 1/1/1
f 2/2/2 4/4/4 1/1/1
f 5/5/5 1/1/1 4/4/4
f 6/6/6 5/5/5 4/4/4
f 5/5/5 6/6/6 7/7/7
f 8/8/8 5/5/5 7/7/7
f 8/8/8 7/7/7 9/9/9
f 7/7/7 10/10/10 9/9/9
f 9/9/9 10/10/10 11/11/11
f 12/12/12 9/9/9 11/11/11
f 12/12/12 11/11/11 13/13/13
f 11/11/11 14/14/14 13/13/13
f 15/15/15 13/13/13 14/14/14
f 16/16/16 15/15/15 14/14/14
f 15/15/15 16/16/16 17/17/17
f 18/18/18 15/15/15 17/17/17
f 18/18/18 17/17/17 19/19/19
f 17/17/17 20/20/20 19/19/19
f 19/19/19 20/20/20 21/21/21
f 22/22/22 19/19/19 21/21/21
f 22/22/22 21/21/21 23/23/23
f 21/21/21 24/24/24 23/23/23
f 25/25/25 23/23/23 24/24/24
f 26/26/26 25/25/25 24/24/24
f 25/25/25 26/26/26 27/27/27
f 28/28/28 25/25/25 27/27/27
f 28/28/28 27/27/27 29/29/29
f 27/27/27 30/30/30 29/29/29
f 29/29/29 30/30/30 31/31/31
f 32/32/32 29/29/29 31/31/31
f 32/32/32 31/31/31 33/33/33
f 31/31/31 34/34/34 33/33/33
f 35/35/35 33/33/33 34/34/34
f 36/36/36 35/35/35 34/34/34
f 35/35/35 36/36/36 37/37/37
f 38/38/38 35/35/35 37/37/37
f 38/38/38 37/37/37 39/39/39
f 37/37/37 40/40/40 39/39/39
f 39/39/39 40/40/40 41/41/41
f 42/42/42 39/39/39 41/41/41
f 42/42/42 41/41/41 43/43/43
f 41/41/41 44/44/44 43/43/43
f 45/45/45 43/43/43 44/44/44
f 46/46/46 45/45/45 44/44/44
f 45/45/45 46/46/46 47/47/47
f 48/48/48 45/45/45 47/47/47
f 48/48/48 47/47/47 49/49/49
f 47/47/47 50/50/50 49/49/49
f 49/49/49 50/50/50 51/51/51
f 52/52/52 49/49/49 51/51/51
f 52/52/52 51/51/51 53/53/53
f 51/51/51 54/54/54 53/53/53
f 55/55/55 53/53/53 54/54/54
f 56/56/56 55/55/55 54/54/54
f 55/55/55 56/56/56 57/57/57
f 58/58/58 55/55/55 57/57/57
f 58/58/58 57/57/57 59/59/59
f 57/57/57 60/60/60 59/59/59
f 59/59/59 60/60/60 61/61/61
f 62/62/62 59/59/59 61/61/61
