g Base2
v -10.91937 -0.8761795 -1.832026
v -11.38365 1.190425 -0.4549755
v -11.38365 -0.8761795 -0.4549755
v -10.91937 1.190425 -1.832026
v -7.445893 1.190425 -8.194366
v -7.445893 -0.8761795 -8.194366
v -6.538627 -0.8761795 -9.329574
v -6.538627 1.190425 -9.329574
v -5.297809 -0.8761795 -10.08602
v -5.297809 1.190425 -10.08602
v -3.873105 -0.8761795 -10.37246
v -3.873105 1.190425 -10.37246
v 3.373582 1.190425 -10.54551
v 3.373582 -0.8761795 -10.54551
v 4.810333 -0.8761795 -10.3274
v 4.810333 1.190425 -10.3274
v 6.085844 -0.8761795 -9.631047
v 6.085844 1.190425 -9.631047
v 7.046263 -0.8761795 -8.540438
v 7.046263 1.190425 -8.540438
v 10.81947 1.190425 -2.351149
v 10.81947 -0.8761795 -2.351149
v 11.34896 -0.8761795 -0.997829
v 11.34896 1.190425 -0.997829
v -11.38365 -0.8761795 -0.4549755
v -11.38365 1.190425 -0.4549755
v -11.34896 1.190425 0.9978262
v -11.34896 -0.8761795 0.9978262
v -10.81947 1.190425 2.351147
v -10.81947 -0.8761795 2.351147
v -7.046265 -0.8761795 8.540435
v -7.046265 1.190425 8.540435
v -6.085845 1.190425 9.631044
v -6.085845 -0.8761795 9.631044
v -4.810336 1.190425 10.3274
v -4.810336 -0.8761795 10.3274
v -3.373583 1.190425 10.54551
v -3.373583 -0.8761795 10.54551
v 3.873103 -0.8761795 10.37246
v 3.873103 1.190425 10.37246
v 5.297808 1.190425 10.08602
v 5.297808 -0.8761795 10.08602
v 6.538625 1.190425 9.329574
v 6.538625 -0.8761795 9.329574
v 7.445892 1.190425 8.194364
v 7.445892 -0.8761795 8.194364
v 10.91937 -0.8761795 1.832025
v 10.91937 1.190425 1.832025
v 11.38365 1.190425 0.4549749
v 11.38365 -0.8761795 0.4549749
v 11.34896 1.190425 -0.997829
v 11.34896 -0.8761795 -0.997829
vt 0.02185059 0.04959106
vt -5.960464E-08 0.9868164
vt -5.960464E-08 0.04959106
vt 0.02185059 0.9868164
vt 0.1812744 0.9868164
vt 0.1812744 0.04959106
vt 0.22229 0.04959106
vt 0.22229 0.9868164
vt 0.2775879 0.04959106
vt 0.2775879 0.9868164
vt 0.3405762 0.04959106
vt 0.3405762 0.9868164
vt 0.6591797 0.9868164
vt 0.6591797 0.04959106
vt 0.722168 0.04959106
vt 0.722168 0.9868164
vt 0.777832 0.04959106
vt 0.777832 0.9868164
vt 0.8188477 0.04959106
vt 0.8188477 0.9868164
vt 0.9780273 0.9868164
vt 0.9780273 0.04959106
vt 1 0.04959106
vt 1 0.9868164
vt -5.960464E-08 0.04959106
vt -5.960464E-08 0.9868164
vt 0 0.9868164
vt 0 0.04959106
vt 0.02185059 0.9868164
vt 0.02185059 0.04959106
vt 0.1812744 0.04959106
vt 0.1812744 0.9868164
vt 0.22229 0.9868164
vt 0.22229 0.04959106
vt 0.2775879 0.9868164
vt 0.2775879 0.04959106
vt 0.3405762 0.9868164
vt 0.3405762 0.04959106
vt 0.6591797 0.04959106
vt 0.6591797 0.9868164
vt 0.722168 0.9868164
vt 0.722168 0.04959106
vt 0.777832 0.9868164
vt 0.777832 0.04959106
vt 0.8188477 0.9868164
vt 0.8188477 0.04959106
vt 0.9780273 0.04959106
vt 0.9780273 0.9868164
vt 1 0.9868164
vt 1 0.04959106
vt 1 0.9868164
vt 1 0.04959106
vn -0.8911133 0 -0.4533691
vn -0.9887695 0 -0.1501465
vn -0.9887695 0 -0.1501465
vn -0.8911133 0 -0.4533691
vn -0.8632813 0 -0.5043945
vn -0.8632813 0 -0.5043945
vn -0.6611328 0 -0.7504883
vn -0.6611328 0 -0.7504883
vn -0.3642578 0 -0.9311523
vn -0.3642578 0 -0.9311523
vn -0.05291748 0 -0.9985352
vn -0.05291748 0 -0.9985352
vn 0.005187988 0 -1
vn 0.005187988 0 -1
vn 0.3195801 0 -0.9477539
vn 0.3195801 0 -0.9477539
vn 0.6245117 0 -0.78125
vn 0.6245117 0 -0.78125
vn 0.8383789 0 -0.5449219
vn 0.8383789 0 -0.5449219
vn 0.8686523 0 -0.4956055
vn 0.8686523 0 -0.4956055
vn 0.9804688 0 -0.1971436
vn 0.9804688 0 -0.1971436
vn -0.9887695 0 -0.1501465
vn -0.9887695 0 -0.1501465
vn -0.9804688 0 0.1971436
vn -0.9804688 0 0.1971436
vn -0.8686523 0 0.4956055
vn -0.8686523 0 0.4956055
vn -0.8383789 0 0.5449219
vn -0.8383789 0 0.5449219
vn -0.6245117 0 0.78125
vn -0.6245117 0 0.78125
vn -0.3195801 0 0.9477539
vn -0.3195801 0 0.9477539
vn -0.005187988 0 1
vn -0.005187988 0 1
vn 0.05291748 0 0.9985352
vn 0.05291748 0 0.9985352
vn 0.3642578 0 0.9311523
vn 0.3642578 0 0.9311523
vn 0.6611328 0 0.7504883
vn 0.6611328 0 0.7504883
vn 0.8632813 0 0.5043945
vn 0.8632813 0 0.5043945
vn 0.8911133 0 0.4533691
vn 0.8911133 0 0.4533691
vn 0.9887695 0 0.1501465
vn 0.9887695 0 0.1501465
vn 0.9804688 0 -0.1971436
vn 0.9804688 0 -0.1971436
g Base2_0
f 3/3/3 2/2/2 1/1/1
f 2/2/2 4/4/4 1/1/1
f 1/1/1 4/4/4 5/5/5
f 6/6/6 1/1/1 5/5/5
f 6/6/6 5/5/5 7/7/7
f 5/5/5 8/8/8 7/7/7
f 7/7/7 8/8/8 9/9/9
f 8/8/8 10/10/10 9/9/9
f 9/9/9 10/10/10 11/11/11
f 10/10/10 12/12/12 11/11/11
f 11/11/11 12/12/12 13/13/13
f 14/14/14 11/11/11 13/13/13
f 14/14/14 13/13/13 15/15/15
f 13/13/13 16/16/16 15/15/15
f 15/15/15 16/16/16 17/17/17
f 16/16/16 18/18/18 17/17/17
f 17/17/17 18/18/18 19/19/19
f 18/18/18 20/20/20 19/19/19
f 19/19/19 20/20/20 21/21/21
f 22/22/22 19/19/19 21/21/21
f 22/22/22 21/21/21 23/23/23
f 21/21/21 24/24/24 23/23/23
f 27/27/27 26/26/26 25/25/25
f 28/28/28 27/27/27 25/25/25
f 29/29/29 27/27/27 28/28/28
f 30/30/30 29/29/29 28/28/28
f 30/30/30 31/31/31 29/29/29
f 31/31/31 32/32/32 29/29/29
f 33/33/33 32/32/32 31/31/31
f 34/34/34 33/33/33 31/31/31
f 35/35/35 33/33/33 34/34/34
f 36/36/36 35/35/35 34/34/34
f 37/37/37 35/35/35 36/36/36
f 38/38/38 37/37/37 36/36/36
f 38/38/38 39/39/39 37/37/37
f 39/39/39 40/40/40 37/37/37
f 41/41/41 40/40/40 39/39/39
f 42/42/42 41/41/41 39/39/39
f 43/43/43 41/41/41 42/42/42
f 44/44/44 43/43/43 42/42/42
f 45/45/45 43/43/43 44/44/44
f 46/46/46 45/45/45 44/44/44
f 46/46/46 47/47/47 45/45/45
f 47/47/47 48/48/48 45/45/45
f 49/49/49 48/48/48 47/47/47
f 50/50/50 49/49/49 47/47/47
f 51/51/51 49/49/49 50/50/50
f 52/52/52 51/51/51 50/50/50
