g Base2
v 10.40858 -1.01355 2.023864
v 10.83821 0.4073817 0.6558258
v 10.88711 -1.013551 0.7169952
v 10.38594 0.4073828 1.890991
v 6.799323 0.4073891 8.075439
v 6.925895 -1.013544 8.029102
v 6.029243 -1.013543 9.09349
v 5.951867 0.4073891 9.081426
v 4.822623 -1.013543 9.787012
v 4.940172 0.4764421 9.960155
v 3.451572 -1.013543 10.02602
v 3.577371 0.4764436 10.19773
v -3.616922 0.4764436 10.18377
v -3.490458 -1.013539 10.01255
v -4.860571 -1.013543 9.768221
v -4.978788 0.4764436 9.940907
v -6.064491 -1.013543 9.070021
v -6.155663 0.4764436 9.258392
v -6.957006 -1.013543 8.002161
v -7.042808 0.4764421 8.196959
v -10.62786 0.4764376 1.959538
v -10.41635 -1.013547 1.983451
v -10.88982 -1.013549 0.6747348
v -11.09847 0.4764364 0.658695
v 10.88711 -1.013551 0.7169952
v 10.83821 0.4073817 0.6558258
v 10.84068 0.4073806 -0.6137515
v 10.88981 -1.013553 -0.6747299
v 10.3932 0.4073798 -1.850663
v 10.41635 -1.013554 -1.983448
v 6.957004 -1.013558 -8.002158
v 6.83061 0.4073749 -8.048989
v 5.987068 0.4073721 -9.058257
v 6.06449 -1.013558 -9.070017
v 4.97879 0.4764251 -9.940906
v 4.860571 -1.013558 -9.768217
v 3.616922 0.4764251 -10.18377
v 3.490457 -1.013559 -10.01255
v -3.451574 -1.013559 -10.02602
v -3.577369 0.4764266 -10.19773
v -4.94017 0.4764266 -9.960153
v -4.822624 -1.013558 -9.787011
v -6.119681 0.4764266 -9.28221
v -6.029245 -1.013558 -9.093488
v -7.010942 0.4764286 -8.224228
v -6.925895 -1.013556 -8.0291
v -10.40858 -1.013551 -2.023861
v -10.62018 0.4764342 -2.00077
v -11.09583 0.4764353 -0.7017611
v -10.88711 -1.01355 -0.7169915
v -11.09847 0.4764364 0.658695
v -10.88982 -1.013549 0.6747348
vt 0.02185059 0.04959106
vt -5.960464E-08 0.9868164
vt -5.960464E-08 0.04959106
vt 0.02185059 0.9868164
vt 0.1812744 0.9868164
vt 0.1812744 0.04959106
vt 0.22229 0.04959106
vt 0.22229 0.9868164
vt 0.2775879 0.04959106
vt 0.2775879 0.9868164
vt 0.3405762 0.04959106
vt 0.3405762 0.9868164
vt 0.6591797 0.9868164
vt 0.6591797 0.04959106
vt 0.722168 0.04959106
vt 0.722168 0.9868164
vt 0.777832 0.04959106
vt 0.777832 0.9868164
vt 0.8188477 0.04959106
vt 0.8188477 0.9868164
vt 0.9780273 0.9868164
vt 0.9780273 0.04959106
vt 1 0.04959106
vt 1 0.9868164
vt -5.960464E-08 0.04959106
vt -5.960464E-08 0.9868164
vt 0 0.9868164
vt 0 0.04959106
vt 0.02185059 0.9868164
vt 0.02185059 0.04959106
vt 0.1812744 0.04959106
vt 0.1812744 0.9868164
vt 0.22229 0.9868164
vt 0.22229 0.04959106
vt 0.2775879 0.9868164
vt 0.2775879 0.04959106
vt 0.3405762 0.9868164
vt 0.3405762 0.04959106
vt 0.6591797 0.04959106
vt 0.6591797 0.9868164
vt 0.722168 0.9868164
vt 0.722168 0.04959106
vt 0.777832 0.9868164
vt 0.777832 0.04959106
vt 0.8188477 0.9868164
vt 0.8188477 0.04959106
vt 0.9780273 0.04959106
vt 0.9780273 0.9868164
vt 1 0.9868164
vt 1 0.04959106
vt 1 0.9868164
vt 1 0.04959106
vn 0.8793945 2.980232E-07 0.4763184
vn 0.984375 0 0.1755371
vn 0.984375 0 0.1755371
vn 0.8793945 2.980232E-07 0.4763184
vn 0.8500977 3.576279E-07 0.5263672
vn 0.8500977 3.576279E-07 0.5263672
vn 0.6411133 5.960464E-07 0.7670898
vn 0.6411133 5.960464E-07 0.7670898
vn 0.3400879 7.748604E-07 0.9404297
vn 0.3400879 7.748604E-07 0.9404297
vn 0.02711487 8.940697E-07 0.9995117
vn 0.02711487 8.940697E-07 0.9995117
vn -0.03100586 8.940697E-07 0.9995117
vn -0.03100586 8.940697E-07 0.9995117
vn -0.34375 8.34465E-07 0.9389648
vn -0.34375 8.34465E-07 0.9389648
vn -0.644043 7.152557E-07 0.7646484
vn -0.644043 7.152557E-07 0.7646484
vn -0.8520508 5.364418E-07 0.5234375
vn -0.8520508 5.364418E-07 0.5234375
vn -0.8813477 5.364418E-07 0.4729004
vn -0.8813477 5.364418E-07 0.4729004
vn -0.9853516 2.384186E-07 0.1717529
vn -0.9853516 2.384186E-07 0.1717529
vn 0.984375 0 0.1755371
vn 0.984375 0 0.1755371
vn 0.9853516 -2.384186E-07 -0.1717529
vn 0.9853516 -2.384186E-07 -0.1717529
vn 0.8813477 -5.364418E-07 -0.4729004
vn 0.8813477 -5.364418E-07 -0.4729004
vn 0.8520508 -5.364418E-07 -0.5234375
vn 0.8520508 -5.364418E-07 -0.5234375
vn 0.644043 -7.152557E-07 -0.7646484
vn 0.644043 -7.152557E-07 -0.7646484
vn 0.34375 -8.34465E-07 -0.9389648
vn 0.34375 -8.34465E-07 -0.9389648
vn 0.03100586 -8.940697E-07 -0.9995117
vn 0.03100586 -8.940697E-07 -0.9995117
vn -0.02711487 -8.940697E-07 -0.9995117
vn -0.02711487 -8.940697E-07 -0.9995117
vn -0.3400879 -7.748604E-07 -0.9404297
vn -0.3400879 -7.748604E-07 -0.9404297
vn -0.6411133 -5.960464E-07 -0.7670898
vn -0.6411133 -5.960464E-07 -0.7670898
vn -0.8500977 -3.576279E-07 -0.5263672
vn -0.8500977 -3.576279E-07 -0.5263672
vn -0.8793945 -2.980232E-07 -0.4763184
vn -0.8793945 -2.980232E-07 -0.4763184
vn -0.984375 0 -0.1755371
vn -0.984375 0 -0.1755371
vn -0.9853516 2.384186E-07 0.1717529
vn -0.9853516 2.384186E-07 0.1717529
g Base2_0
f 3/3/3 2/2/2 1/1/1
f 2/2/2 4/4/4 1/1/1
f 1/1/1 4/4/4 5/5/5
f 6/6/6 1/1/1 5/5/5
f 6/6/6 5/5/5 7/7/7
f 5/5/5 8/8/8 7/7/7
f 7/7/7 8/8/8 9/9/9
f 8/8/8 10/10/10 9/9/9
f 9/9/9 10/10/10 11/11/11
f 10/10/10 12/12/12 11/11/11
f 11/11/11 12/12/12 13/13/13
f 14/14/14 11/11/11 13/13/13
f 14/14/14 13/13/13 15/15/15
f 13/13/13 16/16/16 15/15/15
f 15/15/15 16/16/16 17/17/17
f 16/16/16 18/18/18 17/17/17
f 17/17/17 18/18/18 19/19/19
f 18/18/18 20/20/20 19/19/19
f 19/19/19 20/20/20 21/21/21
f 22/22/22 19/19/19 21/21/21
f 22/22/22 21/21/21 23/23/23
f 21/21/21 24/24/24 23/23/23
f 27/27/27 26/26/26 25/25/25
f 28/28/28 27/27/27 25/25/25
f 29/29/29 27/27/27 28/28/28
f 30/30/30 29/29/29 28/28/28
f 30/30/30 31/31/31 29/29/29
f 31/31/31 32/32/32 29/29/29
f 33/33/33 32/32/32 31/31/31
f 34/34/34 33/33/33 31/31/31
f 35/35/35 33/33/33 34/34/34
f 36/36/36 35/35/35 34/34/34
f 37/37/37 35/35/35 36/36/36
f 38/38/38 37/37/37 36/36/36
f 38/38/38 39/39/39 37/37/37
f 39/39/39 40/40/40 37/37/37
f 41/41/41 40/40/40 39/39/39
f 42/42/42 41/41/41 39/39/39
f 43/43/43 41/41/41 42/42/42
f 44/44/44 43/43/43 42/42/42
f 45/45/45 43/43/43 44/44/44
f 46/46/46 45/45/45 44/44/44
f 46/46/46 47/47/47 45/45/45
f 47/47/47 48/48/48 45/45/45
f 49/49/49 48/48/48 47/47/47
f 50/50/50 49/49/49 47/47/47
f 51/51/51 49/49/49 50/50/50
f 52/52/52 51/51/51 50/50/50
