g Base2
v -10.8501 -2.055252 -0.3684226
v -11.12665 -0.5541147 1.059563
v -11.12327 -2.055252 1.030059
v -10.86004 -0.5541147 -0.3053363
v -8.261965 -0.5541147 -7.055048
v -8.296885 -2.055252 -7.001575
v -7.561881 -2.055252 -8.222289
v -7.544611 -0.5541147 -8.246449
v -6.453694 -2.055252 -9.118001
v -6.480937 -0.5541147 -9.106181
v -5.105987 -2.055252 -9.580671
v -5.165596 -0.5541147 -9.557739
v 1.97887 -0.5541147 -10.6826
v 1.9151 -2.055252 -10.6861
v 3.339772 -2.055252 -10.65992
v 3.369327 -0.5541147 -10.65705
v 4.669574 -2.055252 -10.14806
v 4.645716 -0.5541147 -10.16575
v 5.74411 -2.055252 -9.212248
v 5.69445 -0.5541147 -9.252408
v 10.24084 -0.5541147 -3.627545
v 10.21198 -2.055252 -3.684525
v 10.90165 -2.055252 -2.437635
v 10.91394 -0.5541147 -2.410599
v -11.12327 -2.055252 1.030059
v -11.12665 -0.5541147 1.059563
v -10.91394 -0.5541147 2.410599
v -10.90165 -2.055252 2.437633
v -10.24084 -0.5541147 3.627544
v -10.21198 -2.055252 3.684523
v -5.744113 -2.055252 9.212248
v -5.694451 -0.5541147 9.252408
v -4.645718 -0.5541147 10.16575
v -4.669575 -2.055252 10.14806
v -3.36933 -0.5541147 10.65705
v -3.339773 -2.055252 10.65992
v -1.978872 -0.5541147 10.6826
v -1.9151 -2.055252 10.6861
v 5.105986 -2.055252 9.580671
v 5.10291 -0.6235332 9.305346
v 6.480935 -0.5541147 9.106182
v 6.453692 -2.055252 9.118002
v 7.544609 -0.5541147 8.246449
v 7.561879 -2.055252 8.222291
v 8.261963 -0.5541147 7.05505
v 8.296885 -2.055252 7.001575
v 10.8501 -2.055252 0.3684223
v 10.86004 -0.5541147 0.3053348
v 11.12665 -0.5541147 -1.059565
v 11.12327 -2.055252 -1.03006
v 10.91394 -0.5541147 -2.410599
v 10.90165 -2.055252 -2.437635
vt 0.02185059 0.04959106
vt -5.960464E-08 0.9868164
vt -5.960464E-08 0.04959106
vt 0.02185059 0.9868164
vt 0.1812744 0.9868164
vt 0.1812744 0.04959106
vt 0.22229 0.04959106
vt 0.22229 0.9868164
vt 0.2775879 0.04959106
vt 0.2775879 0.9868164
vt 0.3405762 0.04959106
vt 0.3405762 0.9868164
vt 0.6591797 0.9868164
vt 0.6591797 0.04959106
vt 0.722168 0.04959106
vt 0.722168 0.9868164
vt 0.777832 0.04959106
vt 0.777832 0.9868164
vt 0.8188477 0.04959106
vt 0.8188477 0.9868164
vt 0.9780273 0.9868164
vt 0.9780273 0.04959106
vt 1 0.04959106
vt 1 0.9868164
vt -5.960464E-08 0.04959106
vt -5.960464E-08 0.9868164
vt 0 0.9868164
vt 0 0.04959106
vt 0.02185059 0.9868164
vt 0.02185059 0.04959106
vt 0.1812744 0.04959106
vt 0.1812744 0.9868164
vt 0.22229 0.9868164
vt 0.22229 0.04959106
vt 0.2775879 0.9868164
vt 0.2775879 0.04959106
vt 0.3405762 0.9868164
vt 0.3405762 0.04959106
vt 0.6591797 0.04959106
vt 0.6591797 0.9868164
vt 0.722168 0.9868164
vt 0.722168 0.04959106
vt 0.777832 0.9868164
vt 0.777832 0.04959106
vt 0.8188477 0.9868164
vt 0.8188477 0.04959106
vt 0.9780273 0.04959106
vt 0.9780273 0.9868164
vt 1 0.9868164
vt 1 0.04959106
vt 1 0.9868164
vt 1 0.04959106
vn -0.9433594 0 -0.3320313
vn -1 0 -0.01837158
vn -1 0 -0.01837158
vn -0.9433594 0 -0.3320313
vn -0.9223633 0 -0.3862305
vn -0.9223633 0 -0.3862305
vn -0.7539063 0 -0.6567383
vn -0.7539063 0 -0.6567383
vn -0.4838867 0 -0.875
vn -0.4838867 0 -0.875
vn -0.1842041 0 -0.9829102
vn -0.1842041 0 -0.9829102
vn -0.126709 0 -0.9916992
vn -0.126709 0 -0.9916992
vn 0.1916504 0 -0.9814453
vn 0.1916504 0 -0.9814453
vn 0.515625 0 -0.8569336
vn 0.515625 0 -0.8569336
vn 0.7592773 0 -0.6508789
vn 0.7592773 0 -0.6508789
vn 0.7958984 0 -0.605957
vn 0.7958984 0 -0.605957
vn 0.9458008 0 -0.324707
vn 0.9458008 0 -0.324707
vn -1 0 -0.01837158
vn -1 0 -0.01837158
vn -0.9458008 0 0.324707
vn -0.9458008 0 0.324707
vn -0.7958984 0 0.605957
vn -0.7958984 0 0.605957
vn -0.7592773 0 0.6508789
vn -0.7592773 0 0.6508789
vn -0.515625 0 0.8569336
vn -0.515625 0 0.8569336
vn -0.1916504 0 0.9814453
vn -0.1916504 0 0.9814453
vn 0.126709 0 0.9916992
vn 0.126709 0 0.9916992
vn 0.1842041 0 0.9829102
vn 0.1842041 0 0.9829102
vn 0.4838867 0 0.875
vn 0.4838867 0 0.875
vn 0.7539063 0 0.6567383
vn 0.7539063 0 0.6567383
vn 0.9223633 0 0.3862305
vn 0.9223633 0 0.3862305
vn 0.9433594 0 0.3320313
vn 0.9433594 0 0.3320313
vn 1 0 0.01837158
vn 1 0 0.01837158
vn 0.9458008 0 -0.324707
vn 0.9458008 0 -0.324707
g Base2_0
f 3/3/3 2/2/2 1/1/1
f 2/2/2 4/4/4 1/1/1
f 1/1/1 4/4/4 5/5/5
f 6/6/6 1/1/1 5/5/5
f 6/6/6 5/5/5 7/7/7
f 5/5/5 8/8/8 7/7/7
f 7/7/7 8/8/8 9/9/9
f 8/8/8 10/10/10 9/9/9
f 9/9/9 10/10/10 11/11/11
f 10/10/10 12/12/12 11/11/11
f 11/11/11 12/12/12 13/13/13
f 14/14/14 11/11/11 13/13/13
f 14/14/14 13/13/13 15/15/15
f 13/13/13 16/16/16 15/15/15
f 15/15/15 16/16/16 17/17/17
f 16/16/16 18/18/18 17/17/17
f 17/17/17 18/18/18 19/19/19
f 18/18/18 20/20/20 19/19/19
f 19/19/19 20/20/20 21/21/21
f 22/22/22 19/19/19 21/21/21
f 22/22/22 21/21/21 23/23/23
f 21/21/21 24/24/24 23/23/23
f 27/27/27 26/26/26 25/25/25
f 28/28/28 27/27/27 25/25/25
f 29/29/29 27/27/27 28/28/28
f 30/30/30 29/29/29 28/28/28
f 30/30/30 31/31/31 29/29/29
f 31/31/31 32/32/32 29/29/29
f 33/33/33 32/32/32 31/31/31
f 34/34/34 33/33/33 31/31/31
f 35/35/35 33/33/33 34/34/34
f 36/36/36 35/35/35 34/34/34
f 37/37/37 35/35/35 36/36/36
f 38/38/38 37/37/37 36/36/36
f 38/38/38 39/39/39 37/37/37
f 39/39/39 40/40/40 37/37/37
f 41/41/41 40/40/40 39/39/39
f 42/42/42 41/41/41 39/39/39
f 43/43/43 41/41/41 42/42/42
f 44/44/44 43/43/43 42/42/42
f 45/45/45 43/43/43 44/44/44
f 46/46/46 45/45/45 44/44/44
f 46/46/46 47/47/47 45/45/45
f 47/47/47 48/48/48 45/45/45
f 49/49/49 48/48/48 47/47/47
f 50/50/50 49/49/49 47/47/47
f 51/51/51 49/49/49 50/50/50
f 52/52/52 51/51/51 50/50/50
