g Baslisca_Border
v -0.7104863 0.2215874 -3.084322
v -0.4596422 0.2215874 -3.10129
v -0.2448491 0.2215877 -3.012663
v -0.9591929 0.2215874 -2.964344
v 2.431624 0.2215874 -1.014758
v -1.167896 0.2215871 -2.759621
v -3.178654 0.2215865 -0.1759714
v 2.577667 0.2215874 -0.8340313
v 2.632725 0.2215871 -0.5887161
v 2.588417 0.2215874 -0.3161618
v 2.451488 0.2215871 -0.05786089
v -3.315583 0.2215868 0.08232922
v -0.5732311 0.2215868 1.892939
v -3.359891 0.2215865 0.354884
v -3.304832 0.2215865 0.6001989
v -3.15879 0.2215862 0.780926
v -1.528611 0.2215865 1.835518
v -1.353757 0.2215862 1.988545
v -0.8367094 0.2215865 2.019621
v -1.110794 0.2215865 2.053193
v 2.451488 0.03208743 -0.05786089
v -0.5732311 0.2215868 1.892939
v 2.451488 0.2215871 -0.05786089
v -0.5732311 0.03208667 1.892939
v -0.8367094 0.2215865 2.019621
v -0.8367088 0.03208682 2.019621
v -1.110794 0.2215865 2.053193
v -1.110793 0.03208637 2.053193
v 2.588417 0.03208759 -0.3161618
v 2.451488 0.03208743 -0.05786089
v 2.451488 0.2215871 -0.05786089
v 2.588417 0.2215874 -0.3161618
v 2.632725 0.03208789 -0.5887161
v 2.632725 0.2215871 -0.5887161
v 2.577666 0.03208774 -0.834031
v 2.577667 0.2215874 -0.8340313
v 2.431624 0.03208759 -1.014758
v 2.431624 0.2215874 -1.014758
v -0.2448485 0.03208759 -3.012662
v -0.2448491 0.2215877 -3.012663
v -0.4596422 0.03208774 -3.10129
v -0.4596422 0.2215874 -3.10129
v -0.7104863 0.03208759 -3.084322
v -0.7104863 0.2215874 -3.084322
v -1.353757 0.2215862 1.988545
v -1.110794 0.2215865 2.053193
v -1.110793 0.03208637 2.053193
v -1.353757 0.03208637 1.988545
v -1.528611 0.2215865 1.835518
v -1.528611 0.03208637 1.835518
v -3.15879 0.2215862 0.780926
v -3.15879 0.03208652 0.7809259
v -3.304832 0.2215865 0.6001989
v -3.304832 0.03208667 0.6001989
v -3.359891 0.2215865 0.354884
v -3.359891 0.03208652 0.354884
v -3.315583 0.2215868 0.08232922
v -3.315583 0.03208682 0.08232922
v -3.178654 0.2215865 -0.1759714
v -3.178654 0.03208682 -0.1759712
v -1.167896 0.2215871 -2.759621
v -1.167897 0.03208743 -2.75962
v -0.9591929 0.2215874 -2.964344
v -0.9591923 0.03208759 -2.964344
v -0.7104863 0.2215874 -3.084322
v -0.7104863 0.03208759 -3.084322
vt 0.5507813 0.9116211
vt 0.550293 0.9116211
vt 0.5498047 0.9116211
vt 0.550293 0.9116211
vt 0.5390625 0.9116211
vt 0.5493164 0.9116211
vt 0.5371094 0.9116211
vt 0.5375977 0.9116211
vt 0.5361328 0.9116211
vt 0.534668 0.9116211
vt 0.5332031 0.9116211
vt 0.5356445 0.9116211
vt 0.5209961 0.9116211
vt 0.5341797 0.9116211
vt 0.5322266 0.9116211
vt 0.53125 0.9116211
vt 0.5205078 0.9116211
vt 0.5195313 0.9116211
vt 0.5200195 0.9116211
vt 0.5195313 0.9116211
vt 0.5332031 0.8930664
vt 0.5209961 0.9116211
vt 0.5332031 0.9116211
vt 0.5209961 0.8930664
vt 0.5200195 0.9116211
vt 0.5200195 0.8930664
vt 0.5195313 0.9116211
vt 0.5195313 0.8930664
vt 0.534668 0.8930664
vt 0.5332031 0.8930664
vt 0.5332031 0.9116211
vt 0.534668 0.9116211
vt 0.5361328 0.8930664
vt 0.5361328 0.9116211
vt 0.5375977 0.8930664
vt 0.5375977 0.9116211
vt 0.5390625 0.8930664
vt 0.5390625 0.9116211
vt 0.5498047 0.8930664
vt 0.5498047 0.9116211
vt 0.550293 0.8930664
vt 0.550293 0.9116211
vt 0.5507813 0.8930664
vt 0.5507813 0.9116211
vt 0.5195313 0.9116211
vt 0.5195313 0.9116211
vt 0.5195313 0.8930664
vt 0.5195313 0.8930664
vt 0.5205078 0.9116211
vt 0.5205078 0.8930664
vt 0.53125 0.9116211
vt 0.53125 0.8930664
vt 0.5322266 0.9116211
vt 0.5322266 0.8930664
vt 0.5341797 0.9116211
vt 0.5341797 0.8930664
vt 0.5356445 0.9116211
vt 0.5356445 0.8930664
vt 0.5371094 0.9116211
vt 0.5371094 0.8930664
vt 0.5493164 0.9116211
vt 0.5493164 0.8930664
vt 0.550293 0.9116211
vt 0.550293 0.8930664
vt 0.5507813 0.9116211
vt 0.5507813 0.8930664
vn -1.192093E-07 1 1.788139E-07
vn -1.192093E-07 1 1.788139E-07
vn -1.192093E-07 1 1.788139E-07
vn -1.192093E-07 1 1.788139E-07
vn -1.192093E-07 1 1.788139E-07
vn -1.192093E-07 1 1.788139E-07
vn -1.192093E-07 1 1.788139E-07
vn -1.192093E-07 1 1.788139E-07
vn -1.192093E-07 1 1.788139E-07
vn -1.192093E-07 1 1.788139E-07
vn -1.192093E-07 1 1.788139E-07
vn -1.192093E-07 1 1.788139E-07
vn -1.192093E-07 1 1.788139E-07
vn -1.192093E-07 1 1.788139E-07
vn -1.192093E-07 1 1.788139E-07
vn -1.192093E-07 1 1.788139E-07
vn -1.192093E-07 1 1.788139E-07
vn -1.192093E-07 1 1.788139E-07
vn -1.192093E-07 1 1.788139E-07
vn -1.192093E-07 1 1.788139E-07
vn 0.5419922 0 0.840332
vn 0.4892578 -1.192093E-07 0.8720703
vn 0.5419922 0 0.840332
vn 0.4892578 -1.192093E-07 0.8720703
vn 0.2875977 -1.192093E-07 0.9580078
vn 0.2875977 -1.192093E-07 0.9580078
vn -0.06170654 -1.788139E-07 0.9980469
vn -0.06170654 -1.788139E-07 0.9980469
vn 0.9462891 0 0.322998
vn 0.8833008 0 0.4682617
vn 0.8833008 0 0.4682617
vn 0.9462891 0 0.322998
vn 1 1.192093E-07 -0.02075195
vn 1 1.192093E-07 -0.02075195
vn 0.9042969 1.788139E-07 -0.4267578
vn 0.9042969 1.788139E-07 -0.4267578
vn 0.6938477 2.384186E-07 -0.7202148
vn 0.6938477 2.384186E-07 -0.7202148
vn 0.4929199 2.384186E-07 -0.8701172
vn 0.4929199 2.384186E-07 -0.8701172
vn 0.1520996 1.788139E-07 -0.9882813
vn 0.1520996 1.788139E-07 -0.9882813
vn -0.2644043 1.192093E-07 -0.9643555
vn -0.2644043 1.192093E-07 -0.9643555
vn -0.4675293 -2.384186E-07 0.8842773
vn -0.06170654 -1.788139E-07 0.9980469
vn -0.06170654 -1.788139E-07 0.9980469
vn -0.4675293 -2.384186E-07 0.8842773
vn -0.6025391 -2.384186E-07 0.7983398
vn -0.6025391 -2.384186E-07 0.7983398
vn -0.6694336 -2.384186E-07 0.7426758
vn -0.6694336 -2.384186E-07 0.7426758
vn -0.9042969 -1.788139E-07 0.4267578
vn -0.9042969 -1.788139E-07 0.4267578
vn -1 -1.192093E-07 0.02075195
vn -1 -1.192093E-07 0.02075195
vn -0.9462891 0 -0.322998
vn -0.9462891 0 -0.322998
vn -0.8393555 0 -0.543457
vn -0.8393555 0 -0.543457
vn -0.746582 0 -0.6655273
vn -0.746582 0 -0.6655273
vn -0.5786133 0 -0.8154297
vn -0.5786133 0 -0.8154297
vn -0.2644043 1.192093E-07 -0.9643555
vn -0.2644043 1.192093E-07 -0.9643555
g Baslisca_Border_0
f 3/3/3 2/2/2 1/1/1
f 1/1/1 4/4/4 3/3/3
f 4/4/4 5/5/5 3/3/3
f 4/4/4 6/6/6 5/5/5
f 6/6/6 7/7/7 5/5/5
f 7/7/7 8/8/8 5/5/5
f 7/7/7 9/9/9 8/8/8
f 7/7/7 10/10/10 9/9/9
f 7/7/7 11/11/11 10/10/10
f 7/7/7 12/12/12 11/11/11
f 12/12/12 13/13/13 11/11/11
f 12/12/12 14/14/14 13/13/13
f 14/14/14 15/15/15 13/13/13
f 15/15/15 16/16/16 13/13/13
f 16/16/16 17/17/17 13/13/13
f 17/17/17 18/18/18 13/13/13
f 18/18/18 19/19/19 13/13/13
f 18/18/18 20/20/20 19/19/19
f 23/23/23 22/22/22 21/21/21
f 22/22/22 24/24/24 21/21/21
f 24/24/24 22/22/22 25/25/25
f 26/26/26 24/24/24 25/25/25
f 26/26/26 25/25/25 27/27/27
f 28/28/28 26/26/26 27/27/27
f 31/31/31 30/30/30 29/29/29
f 32/32/32 31/31/31 29/29/29
f 32/32/32 29/29/29 33/33/33
f 34/34/34 32/32/32 33/33/33
f 34/34/34 33/33/33 35/35/35
f 36/36/36 34/34/34 35/35/35
f 36/36/36 35/35/35 37/37/37
f 38/38/38 36/36/36 37/37/37
f 38/38/38 37/37/37 39/39/39
f 40/40/40 38/38/38 39/39/39
f 39/39/39 41/41/41 40/40/40
f 41/41/41 42/42/42 40/40/40
f 41/41/41 43/43/43 42/42/42
f 43/43/43 44/44/44 42/42/42
f 47/47/47 46/46/46 45/45/45
f 48/48/48 47/47/47 45/45/45
f 48/48/48 45/45/45 49/49/49
f 50/50/50 48/48/48 49/49/49
f 49/49/49 51/51/51 50/50/50
f 51/51/51 52/52/52 50/50/50
f 52/52/52 51/51/51 53/53/53
f 54/54/54 52/52/52 53/53/53
f 54/54/54 53/53/53 55/55/55
f 56/56/56 54/54/54 55/55/55
f 56/56/56 55/55/55 57/57/57
f 58/58/58 56/56/56 57/57/57
f 58/58/58 57/57/57 59/59/59
f 60/60/60 58/58/58 59/59/59
f 59/59/59 61/61/61 60/60/60
f 61/61/61 62/62/62 60/60/60
f 62/62/62 61/61/61 63/63/63
f 64/64/64 62/62/62 63/63/63
f 64/64/64 63/63/63 65/65/65
f 66/66/66 64/64/64 65/65/65
