g Berliner_fernsehtum
v 0.8018054 -1.878829E-07 -1.853985
v 1.603611 -1.27178E-07 -0.3785872
v 1.423128 0.9717427 -0.3785872
v 0.7115641 0.9717426 -1.687933
v 0.7746906 5.335896 -0.3785875
v -0.7115639 0.9717426 -1.687933
v -0.8018052 -1.878829E-07 -1.853985
v -1.60361 -1.27178E-07 -0.3785872
v -1.423128 0.9717427 -0.3785872
v -0.3873447 5.335896 -1.091339
v -0.7746899 5.335896 -0.3785875
v -0.2860507 7.008597 -0.904949
v -0.5721019 7.008597 -0.3785875
v -0.3695141 9.006866 -0.3785876
v -0.1847569 9.006866 -0.7185583
v 0.1847578 9.006866 -0.7185583
v 0.3873454 5.335896 -1.091339
v 0.5721026 7.008597 -0.3785875
v 0.369515 9.006866 -0.3785876
v 0.2860516 7.008597 -0.904949
v 0.5721026 7.008597 -0.3785875
v 0.3200095 9.006866 -0.1823052
v 0.369515 9.006866 -0.3785876
v 0.4954556 7.008597 -0.07469264
v 0.7746906 5.335896 -0.3785875
v 0.1847578 9.006866 -0.03861696
v 0.6709018 5.335896 0.03291987
v 1.423128 0.9717427 -0.3785872
v 0.2860516 7.008597 0.147774
v 5.460229E-07 9.006866 0.01397727
v 1.232465 0.9717427 0.3773636
v 1.603611 -1.27178E-07 -0.3785872
v 1.388768 -9.21299E-08 0.4732344
v 3.640153E-07 7.008597 0.2292023
v -0.1847569 9.006866 -0.03861696
v 0.3873454 5.335896 0.3341642
v 0.7115641 0.9717427 0.9307586
v 0.8018054 -6.647299E-08 1.096811
v -0.2860507 7.008597 0.147774
v -0.3200086 9.006866 -0.1823052
v 3.640153E-07 5.335896 0.4444272
v 1.820076E-07 0.9717428 1.133315
v 0 -5.70819E-08 1.325055
v -0.4954548 7.008597 -0.07469264
v -0.3695141 9.006866 -0.3785876
v -0.5721019 7.008597 -0.3785875
v -0.3873447 5.335896 0.3341642
v -0.7115639 0.9717427 0.9307586
v -0.8018052 -6.647299E-08 1.096811
v -0.6709011 5.335896 0.03291987
v -0.7746899 5.335896 -0.3785875
v -1.232465 0.9717427 0.3773636
v -1.388767 -9.21299E-08 0.4732344
v -1.423128 0.9717427 -0.3785872
v -1.60361 -1.27178E-07 -0.3785872
v -0.4795277 8.124537 -1.272007
v 0.004319405 8.124537 -1.40974
v 0.4881665 8.124537 -1.272007
v -0.8337284 8.124537 -0.8957103
v 0.8423672 8.124537 -0.8957103
v -0.963375 8.124537 -0.3816814
v 0.9720138 8.124537 -0.3816814
v -0.8337284 8.124537 0.1323476
v 0.8423672 8.124537 0.1323476
v -0.4795277 8.124537 0.5086431
v 0.4881665 8.124537 0.5086431
v 0.004319405 8.124537 0.6463773
v -0.4795277 8.470603 -1.272007
v 0.004319405 8.470603 -1.40974
v 0.4881665 8.470603 -1.272007
v -0.8337284 8.470603 -0.8957103
v 0.8423672 8.470603 -0.8957103
v -0.963375 8.470603 -0.3816814
v 0.9720138 8.470603 -0.3816814
v -0.8337284 8.470603 0.1323476
v 0.8423672 8.470603 0.1323476
v -0.4795277 8.470603 0.5086431
v 0.4881665 8.470603 0.5086431
v 0.004319405 8.470603 0.6463773
v -0.615411 12.31553 -0.3816816
v -0.615411 10.97035 -0.3816815
v -0.3055457 10.97035 -0.9518633
v -0.3055457 12.31553 -0.9518633
v 0.004319587 12.31553 -1.040071
v 0.004319587 10.97035 -1.040071
v 0.3141847 12.31553 -0.9518633
v 0.3141847 10.97035 -0.9518633
v 0.6240501 10.97035 -0.3816815
v 0.6240501 12.31553 -0.3816816
v -0.5323829 12.31553 -0.0524873
v 0.5410219 12.31553 -0.0524873
v -0.3055457 12.31553 0.1884995
v 0.3141847 12.31553 0.1884995
v 0.004319587 12.31553 0.276707
v 0.6240501 10.97035 -0.3816815
v 0.5410219 12.31553 -0.0524873
v 0.6240501 12.31553 -0.3816816
v 0.5410219 10.97035 -0.05248723
v 0.3141847 12.31553 0.1884995
v 0.3141847 10.97035 0.1884995
v 0.004319587 12.31553 0.276707
v 0.004319587 10.97035 0.276707
v -0.3055457 12.31553 0.1884995
v -0.3055457 10.97035 0.1884995
v -0.5323829 12.31553 -0.0524873
v -0.5323829 10.97035 -0.05248723
v -0.615411 12.31553 -0.3816816
v -0.615411 10.97035 -0.3816815
v 0.2340474 12.31765 -0.5225885
v 0.2695864 12.31765 -0.3816816
v 0.2695864 12.72118 -0.3816816
v 0.2340474 12.72118 -0.5225885
v 0.1369529 12.31765 -0.6257397
v 0.1369529 12.72118 -0.6257397
v 0.004319405 12.31765 -0.6634961
v 0.004319405 12.72118 -0.6634961
v -0.1283139 12.31765 -0.6257397
v -0.1283139 12.72118 -0.6257397
v -0.2254084 12.31765 -0.5225885
v -0.2254084 12.72118 -0.5225885
v -0.2609474 12.31765 -0.3816816
v -0.2609474 12.72118 -0.3816816
v -0.2254084 12.31765 -0.2407746
v -0.2609474 12.31765 -0.3816816
v -0.2609474 12.72118 -0.3816816
v -0.2254084 12.72118 -0.2407746
v -0.1283139 12.31765 -0.1376234
v -0.1283139 12.72118 -0.1376235
v 0.004319405 12.31765 -0.09986774
v 0.004319405 12.72118 -0.09986775
v 0.1369529 12.31765 -0.1376234
v 0.1369529 12.72118 -0.1376235
v 0.2340474 12.31765 -0.2407746
v 0.2340474 12.72118 -0.2407746
v 0.2695864 12.31765 -0.3816816
v 0.2695864 12.72118 -0.3816816
v 0.2340474 12.72118 -0.5225885
v -0.2254084 12.72118 -0.5225885
v 0.1369529 12.72118 -0.6257397
v -0.1283139 12.72118 -0.6257397
v 0.004319405 12.72118 -0.6634961
v -0.3191151 12.68688 0.2134686
v -0.5558856 12.68688 -0.03807185
v -0.5558856 12.81384 -0.03807186
v -0.3191151 12.81384 0.2134686
v 0.004319405 12.68688 0.3055387
v 0.004319405 12.81384 0.3055386
v 0.3277539 12.68688 0.2134686
v 0.3277539 12.81384 0.2134686
v 0.5645244 12.68688 -0.03807185
v 0.5645244 12.81384 -0.03807186
v 0.6511882 12.68688 -0.3816816
v 0.6511882 12.81384 -0.3816816
v -0.6425494 12.81384 -0.3816816
v 0.5645244 12.81384 -0.725292
v -0.5558856 12.81384 -0.725292
v 0.3277539 12.81384 -0.9768317
v -0.3191151 12.81384 -0.9768317
v 0.004319405 12.81384 -1.068902
v -0.5558856 12.68688 -0.03807185
v -0.6425494 12.81384 -0.3816816
v -0.5558856 12.81384 -0.03807186
v -0.6425494 12.68688 -0.3816816
v -0.5558856 12.81384 -0.725292
v -0.5558856 12.68688 -0.725292
v -0.3191151 12.81384 -0.9768317
v -0.3191151 12.68688 -0.9768317
v 0.004319405 12.81384 -1.068902
v 0.004319405 12.68688 -1.068902
v 0.3277539 12.81384 -0.9768317
v 0.3277539 12.68688 -0.9768317
v 0.5645244 12.81384 -0.725292
v 0.5645244 12.68688 -0.725292
v 0.6511882 12.81384 -0.3816816
v 0.6511882 12.68688 -0.3816816
v 0.5645244 12.68688 -0.03807185
v 0.3277539 12.68688 0.2134686
v -0.3191151 12.68688 0.2134686
v 0.004319405 12.68688 0.3055387
v 0.3146881 12.8007 -0.572051
v 0.3146881 12.8007 -0.1913121
v 0.2868965 13.46194 -0.2083589
v 0.2868965 13.46194 -0.5550044
v 0.1835108 12.8007 -0.7114111
v 0.1674654 13.46194 -0.6818856
v -0.1588266 13.46194 -0.6818856
v -0.174872 12.8007 -0.7114111
v -0.3060493 12.8007 -0.572051
v -0.2782576 13.46194 -0.5550044
v 0.231313 14.78443 -0.5209118
v 0.231313 14.78443 -0.2424516
v 0.2035211 15.44568 -0.2594984
v 0.2035211 15.44568 -0.5038658
v 0.1353742 14.78443 -0.6228355
v 0.1193286 15.44568 -0.5933101
v -0.1106903 15.44568 -0.5933101
v -0.1267357 14.78443 -0.6228355
v -0.2226745 14.78443 -0.5209118
v -0.194883 15.44568 -0.5038658
v 0.231313 14.78443 -0.2424516
v 0.004319042 15.44568 -0.137315
v 0.2035211 15.44568 -0.2594984
v 0.004319223 14.78443 -0.1032215
v -0.1106903 15.44568 -0.1700541
v -0.1267357 14.78443 -0.1405286
v -0.194883 15.44568 -0.2594984
v -0.2226745 14.78443 -0.2424516
v -0.194883 15.44568 -0.5038658
v -0.2226745 14.78443 -0.5209118
v -0.1670914 16.10692 -0.4868191
v -0.09464488 16.10692 -0.5637846
v 0.103283 16.10692 -0.5637846
v 0.1757295 16.10692 -0.4868191
v -0.1670914 16.10692 -0.2765451
v 0.1757295 16.10692 -0.2765451
v -0.09464488 16.10692 -0.1995788
v 0.004319042 16.10692 -0.1714077
v -0.194883 15.44568 -0.5038658
v -0.09464488 16.10692 -0.5637846
v -0.1670914 16.10692 -0.4868191
v -0.1106903 15.44568 -0.5933101
v 0.103283 16.10692 -0.5637846
v 0.1193286 15.44568 -0.5933101
v 0.1757295 16.10692 -0.4868191
v 0.2035211 15.44568 -0.5038658
v 0.2035211 15.44568 -0.2594984
v 0.1757295 16.10692 -0.2765451
v -0.2782576 13.46194 -0.5550044
v -0.1427812 14.12319 -0.652361
v -0.2504662 14.12319 -0.5379584
v -0.1588266 13.46194 -0.6818856
v 0.1674654 13.46194 -0.6818856
v 0.1514198 14.12319 -0.652361
v 0.2591048 14.12319 -0.5379584
v 0.2868965 13.46194 -0.5550044
v 0.2591048 14.12319 -0.2254056
v 0.2868965 13.46194 -0.2083589
v -0.2504662 14.12319 -0.5379584
v -0.1267357 14.78443 -0.6228355
v -0.2226745 14.78443 -0.5209118
v -0.1427812 14.12319 -0.652361
v 0.1514198 14.12319 -0.652361
v 0.1353742 14.78443 -0.6228355
v 0.231313 14.78443 -0.5209118
v 0.2591048 14.12319 -0.5379584
v 0.231313 14.78443 -0.2424516
v 0.2591048 14.12319 -0.2254056
v -0.1670914 16.10692 -0.2765451
v -0.194883 15.44568 -0.5038658
v -0.1670914 16.10692 -0.4868191
v -0.194883 15.44568 -0.2594984
v -0.1106903 15.44568 -0.1700541
v -0.09464488 16.10692 -0.1995788
v 0.004319042 15.44568 -0.137315
v 0.004319042 16.10692 -0.1714077
v 0.1757295 16.10692 -0.2765451
v 0.2035211 15.44568 -0.2594984
v -0.2782576 13.46194 -0.2083589
v -0.2782576 13.46194 -0.5550044
v -0.2504662 14.12319 -0.5379584
v -0.2504662 14.12319 -0.2254056
v -0.1588266 13.46194 -0.0814776
v -0.1427812 14.12319 -0.1110031
v 0.004319405 13.46194 -0.03503612
v 0.004319223 14.12319 -0.06912882
v 0.2868965 13.46194 -0.2083589
v 0.2591048 14.12319 -0.2254056
v -0.2504662 14.12319 -0.2254056
v -0.2504662 14.12319 -0.5379584
v -0.2226745 14.78443 -0.5209118
v -0.2226745 14.78443 -0.2424516
v -0.1427812 14.12319 -0.1110031
v -0.1267357 14.78443 -0.1405286
v 0.004319223 14.12319 -0.06912882
v 0.004319223 14.78443 -0.1032215
v 0.2591048 14.12319 -0.2254056
v 0.231313 14.78443 -0.2424516
v 0.3146881 12.8007 -0.1913121
v 0.004319405 13.46194 -0.03503612
v 0.2868965 13.46194 -0.2083589
v 0.004319405 12.8007 -0.0009434234
v -0.1588266 13.46194 -0.0814776
v -0.174872 12.8007 -0.05195209
v -0.2782576 13.46194 -0.2083589
v -0.3060493 12.8007 -0.1913121
v -0.2782576 13.46194 -0.5550044
v -0.3060493 12.8007 -0.572051
v 0.5000589 13.8601 -0.6857513
v 0.57675 13.8601 -0.3816816
v 0.57675 13.97245 -0.3816816
v 0.5000589 13.97245 -0.6857513
v 0.2905348 13.8601 -0.9083448
v 0.2905348 13.97245 -0.9083448
v 0.004319405 13.8601 -0.9898202
v 0.004319405 13.97245 -0.9898202
v -0.281896 13.8601 -0.9083448
v -0.281896 13.97245 -0.9083448
v -0.4914201 13.8601 -0.6857513
v -0.4914201 13.97245 -0.6857513
v -0.5681112 13.8601 -0.3816816
v -0.5681112 13.97245 -0.3816816
v -0.4914201 13.8601 -0.07761271
v -0.4914201 13.97245 -0.07761271
v 0.5000589 13.97245 -0.07761271
v -0.281896 13.97245 0.1449815
v 0.2905348 13.97245 0.1449815
v 0.004319405 13.97245 0.226457
v 0.57675 13.8601 -0.3816816
v 0.5000589 13.97245 -0.07761271
v 0.57675 13.97245 -0.3816816
v 0.5000589 13.8601 -0.07761271
v 0.2905348 13.97245 0.1449815
v 0.2905348 13.8601 0.1449815
v 0.004319405 13.97245 0.226457
v 0.004319405 13.8601 0.226457
v -0.281896 13.97245 0.1449815
v -0.281896 13.8601 0.1449815
v -0.4914201 13.97245 -0.07761271
v -0.4914201 13.8601 -0.07761271
v -0.5681112 13.8601 -0.3816816
v -0.4914201 13.8601 -0.6857513
v 0.5000589 13.8601 -0.6857513
v -0.281896 13.8601 -0.9083448
v 0.2905348 13.8601 -0.9083448
v 0.004319405 13.8601 -0.9898202
v 0.4433264 15.12967 -0.6509534
v 0.5112411 15.12967 -0.3816817
v 0.5112411 15.22916 -0.3816817
v 0.4433264 15.22916 -0.6509534
v 0.2577801 15.12967 -0.8480734
v 0.2577801 15.22916 -0.8480734
v 0.004319405 15.12967 -0.9202249
v 0.004319405 15.22916 -0.9202249
v -0.2491413 15.12967 -0.8480734
v -0.2491413 15.22916 -0.8480734
v -0.4346876 15.12967 -0.6509534
v -0.4346876 15.22916 -0.6509534
v -0.5026023 15.12967 -0.3816817
v -0.5026023 15.22916 -0.3816817
v -0.4346876 15.12967 -0.11241
v -0.4346876 15.22916 -0.1124101
v 0.4433264 15.22916 -0.1124101
v -0.2491413 15.22916 0.08471004
v 0.2577801 15.22916 0.08471004
v 0.004319405 15.22916 0.1568616
v 0.5112411 15.12967 -0.3816817
v 0.4433264 15.22916 -0.1124101
v 0.5112411 15.22916 -0.3816817
v 0.4433264 15.12967 -0.11241
v 0.2577801 15.22916 0.08471004
v 0.2577801 15.12967 0.08471005
v 0.004319405 15.22916 0.1568616
v 0.004319405 15.12967 0.1568616
v -0.2491413 15.22916 0.08471004
v -0.2491413 15.12967 0.08471005
v -0.4346876 15.22916 -0.1124101
v -0.4346876 15.12967 -0.11241
v -0.5026023 15.12967 -0.3816817
v -0.4346876 15.12967 -0.6509534
v 0.4433264 15.12967 -0.6509534
v -0.2491413 15.12967 -0.8480734
v 0.2577801 15.12967 -0.8480734
v 0.004319405 15.12967 -0.9202249
v 1.010887 9.195464 0.8508404
v 0.3094461 8.79499 -0.0372495
v 0.1843898 8.79499 0.0394561
v 0.5576184 9.195464 1.128859
v 0.04218082 9.195464 1.225415
v 0.04218082 8.79499 0.06609507
v 0.7156327 9.670194 1.590081
v -0.4732568 9.195464 1.128859
v -0.1000281 8.79499 0.0394561
v -0.9969479 9.195464 0.7172635
v -0.2445142 8.79499 -0.07410336
v -0.6312708 9.670194 1.590081
v 1.307856 9.670194 1.226832
v 1.366924 9.195464 0.2967618
v 1.773041 9.670194 0.5028932
v 1.906592 9.989109 0.5590839
v 1.405718 9.989109 1.338561
v 1.927844 10.30803 0.5814659
v 0.042181 9.670194 1.716236
v 0.7680604 9.989109 1.729679
v 1.421054 10.30803 1.370151
v 0.04294288 9.989109 1.865512
v 1.337197 10.67558 1.253348
v 1.812922 10.67558 0.5130075
v 0.7758642 10.30803 1.765888
v 1.181259 11.04314 1.066547
v 1.599914 11.04314 0.4150198
v 0.7315562 10.67558 1.624827
v 0.6482717 11.04314 1.393463
v 1.020151 11.245 0.8543456
v 1.379404 11.245 0.2952627
v 0.5627887 11.245 1.134876
v 0.8032883 11.44686 0.5880007
v 1.083025 11.44686 0.1526643
v 0.3094461 11.66536 -0.03724963
v 0.4076765 11.66536 -0.1901194
v 0.1843898 11.66536 0.03945596
v 0.4471577 11.44686 0.8064392
v 0.04218082 11.66536 0.06609493
v 0.042181 11.44686 0.8823018
v -0.1000281 11.66536 0.03945596
v 0.04269572 11.245 1.232302
v -0.3627958 11.44686 0.8064392
v -0.2445142 11.66536 -0.0741035
v 0.042181 11.04314 1.506999
v -0.4773973 11.245 1.134876
v -0.7742574 11.44686 0.4830504
v -0.3320855 11.66536 -0.2402084
v -1.02364 11.44686 0.01002408
v -1.005818 11.245 0.7195616
v 0.04284642 10.67558 1.75384
v -0.5639095 11.04314 1.393463
v -1.179705 11.04314 0.9094768
v -1.326088 11.245 0.1120755
v 0.042181 10.30803 1.903327
v -0.6458632 10.67558 1.624827
v -1.431343 11.245 -0.522088
v -1.105597 11.44686 -0.4837754
v -1.67559 11.04314 -0.5374803
v -1.552932 11.04314 0.2015429
v -1.909083 10.67558 -0.5693315
v -0.6821748 9.989109 1.729679
v -1.345601 10.67558 1.074867
v -1.769704 10.67558 0.2704305
v -2.037212 10.30803 -0.5715513
v -0.6915023 10.30803 1.765889
v -1.315506 9.670194 1.052305
v -1.888731 10.30803 0.3230488
v -2.012174 9.989109 -0.5804722
v -1.436934 10.30803 1.180015
v -1.418903 9.989109 1.150645
v -1.730214 9.670194 0.2656909
v -1.314351 9.195464 0.115215
v -1.865427 9.989109 0.3036833
v -1.866505 9.670194 -0.5554674
v -0.2445142 8.79499 -0.07410336
v -1.314351 9.195464 0.115215
v -0.9969479 9.195464 0.7172635
v -0.3320855 8.79499 -0.2402083
v 0.01371937 8.789928 -0.5161958
v -0.1000281 8.79499 0.0394561
v 0.04218082 8.79499 0.06609507
v 0.1843898 8.79499 0.0394561
v 0.3094461 8.79499 -0.0372495
v -0.3608653 8.79499 -0.4136076
v 0.4076765 8.79499 -0.1901193
v 1.010887 9.195464 0.8508404
v 1.366924 9.195464 0.2967618
v 1.469444 9.195464 -0.3731155
v 1.773041 9.670194 0.5028932
v -1.418664 9.195464 -0.5132722
v -1.730214 9.670194 0.2656909
v -1.866505 9.670194 -0.5554674
v -1.663059 9.670194 -1.421566
v -2.012174 9.989109 -0.5804722
v -1.262954 9.195464 -1.176156
v 0.435962 8.79499 -0.3749385
v -1.79312 9.989109 -1.513017
v -2.037212 10.30803 -0.5715513
v -0.3179049 8.79499 -0.5964963
v -0.1000283 8.79499 -0.7907206
v -0.4732572 9.195464 -1.880124
v -0.6312715 9.670194 -2.341346
v 0.3875618 8.79499 -0.6093672
v 0.1712027 8.79499 -0.7399123
v 1.294017 9.195464 -1.222805
v 0.5098223 9.195464 -1.695968
v 1.677784 9.670194 -1.482517
v 0.6531838 9.670194 -2.100734
v 0.7008206 9.989109 -2.244288
v -0.6821758 9.989109 -2.50336
v 1.906991 9.670194 -0.3723436
v 1.804026 9.989109 -1.578643
v 2.050817 9.989109 -0.3832995
v 1.906592 9.989109 0.5590839
v 0.7078301 10.30803 -2.255022
v -1.815571 10.30803 -1.515112
v 2.073773 10.30803 -0.3720497
v 1.927844 10.30803 0.5814659
v 1.824068 10.30803 -1.581513
v -0.6915029 10.30803 -2.517153
v -1.701028 10.67558 -1.455053
v -1.909083 10.67558 -0.5693315
v 1.949905 10.67558 -0.3820589
v 1.812922 10.67558 0.5130075
v 1.715506 10.67558 -1.517383
v 0.6676923 10.67558 -2.149608
v -1.492494 11.04314 -1.316948
v -1.67559 11.04314 -0.5374803
v -0.6458638 10.67558 -2.395671
v 1.720465 11.04314 -0.3726732
v 1.599914 11.04314 0.4150198
v 1.379404 11.245 0.2952627
v 1.514185 11.04314 -1.371802
v -1.274226 11.245 -1.190958
v -1.431343 11.245 -0.522088
v 0.5920689 11.04314 -1.928183
v -0.5639099 11.04314 -2.144728
v 1.48285 11.245 -0.3806652
v 1.083025 11.44686 0.1526643
v 1.305838 11.245 -1.238029
v -0.9832567 11.44686 -1.0046
v -1.105597 11.44686 -0.4837754
v -0.4773979 11.245 -1.901285
v 0.5145607 11.245 -1.715466
v 1.163575 11.44686 -0.3736547
v 0.4076765 11.66536 -0.1901194
v 1.025742 11.44686 -1.041252
v 0.4096044 11.44686 -1.413014
v -0.3627964 11.44686 -1.557705
v 0.1712027 11.66536 -0.7399125
v 0.3875618 11.66536 -0.6093674
v 0.435962 11.66536 -0.3749386
v 0.01371937 11.67042 -0.5161959
v 0.3094461 11.66536 -0.03724963
v 0.1843898 11.66536 0.03945596
v 0.04218082 11.66536 0.06609493
v -0.1000281 11.66536 0.03945596
v -0.2445142 11.66536 -0.0741035
v -0.3320855 11.66536 -0.2402084
v -0.1000283 11.66536 -0.7907208
v -0.3179049 11.66536 -0.5964965
v -1.02364 11.44686 0.01002408
v -0.3608653 11.66536 -0.4136077
v -0.8337284 8.333667 -0.8957103
v -0.4795277 8.333667 -1.272007
v -0.4795277 8.470603 -1.272007
v -0.8337284 8.470603 -0.8957103
v 0.004319405 8.470603 -1.40974
v -0.963375 8.333667 -0.3816814
v 0.004319405 8.333667 -1.40974
v -0.963375 8.470603 -0.3816814
v 0.4881665 8.470603 -1.272007
v -0.8337284 8.333667 0.1323476
v 0.4881665 8.333667 -1.272007
v -0.8337284 8.470603 0.1323476
v 0.8423672 8.470603 -0.8957103
v -0.4795277 8.333667 0.5086431
v 0.8423672 8.333667 -0.8957103
v -0.4795277 8.470603 0.5086431
v 0.9720138 8.470603 -0.3816814
v 0.004319405 8.333667 0.6463773
v 0.9720138 8.333667 -0.3816814
v 0.004319405 8.470603 0.6463773
v 0.8423672 8.470603 0.1323476
v 0.4881665 8.333667 0.5086431
v 0.8423672 8.333667 0.1323476
v 0.4881665 8.470603 0.5086431
v -0.8337284 7.9876 -0.8957103
v -0.4795277 7.9876 -1.272007
v -0.4795277 8.124537 -1.272007
v -0.8337284 8.124537 -0.8957103
v 0.004319405 8.124537 -1.40974
v -0.963375 7.9876 -0.3816814
v -0.963375 8.124537 -0.3816814
v 0.004319405 7.9876 -1.40974
v 0.4881665 8.124537 -1.272007
v 0.4881665 7.9876 -1.272007
v 0.8423672 8.124537 -0.8957103
v 0.8423672 7.9876 -0.8957103
v 0.9720138 8.124537 -0.3816814
v 0.9720138 7.9876 -0.3816814
v 0.8423672 8.124537 0.1323476
v 0.8423672 7.9876 0.1323476
v 0.4881665 8.124537 0.5086431
v -0.8337284 7.9876 0.1323476
v -0.8337284 8.124537 0.1323476
v 0.4881665 7.9876 0.5086431
v 0.004319405 8.124537 0.6463773
v -0.4795277 7.9876 0.5086431
v -0.4795277 8.124537 0.5086431
v 0.004319405 7.9876 0.6463773
vt 0.09155273 0.8793945
vt 0.08929443 0.8813477
vt 0.08990479 0.887207
vt 0.09191895 0.8862305
vt 0.09173584 0.9052734
vt 0.0970459 0.8862305
vt 0.09741211 0.8798828
vt 0.09991455 0.8818359
vt 0.09924316 0.8876953
vt 0.09576416 0.9052734
vt 0.09710693 0.9047852
vt 0.09533691 0.9111328
vt 0.09637451 0.9111328
vt 0.09558105 0.9179688
vt 0.09490967 0.918457
vt 0.09356689 0.918457
vt 0.09289551 0.9052734
vt 0.09234619 0.9111328
vt 0.09295654 0.918457
vt 0.09326172 0.9111328
vt 0.09234619 0.9111328
vt 0.09313965 0.9179688
vt 0.09295654 0.918457
vt 0.09265137 0.9106445
vt 0.09173584 0.9052734
vt 0.09368896 0.9179688
vt 0.09222412 0.9047852
vt 0.08990479 0.887207
vt 0.09344482 0.9106445
vt 0.09429932 0.9179688
vt 0.09082031 0.8881836
vt 0.08929443 0.8813477
vt 0.09033203 0.8823242
vt 0.09442139 0.9106445
vt 0.0949707 0.9179688
vt 0.09320068 0.9047852
vt 0.09259033 0.8886719
vt 0.09234619 0.8828125
vt 0.09539795 0.9106445
vt 0.09539795 0.9179688
vt 0.09454346 0.9047852
vt 0.09472656 0.8886719
vt 0.0947876 0.8833008
vt 0.09606934 0.9106445
vt 0.09558105 0.9179688
vt 0.09637451 0.9111328
vt 0.09576416 0.9047852
vt 0.09686279 0.8886719
vt 0.09716797 0.8833008
vt 0.09674072 0.9047852
vt 0.09710693 0.9047852
vt 0.09851074 0.8881836
vt 0.09906006 0.8823242
vt 0.09924316 0.8876953
vt 0.09991455 0.8818359
vt 0.03320313 0.9521484
vt 0.03469849 0.9521484
vt 0.03622437 0.9521484
vt 0.03207397 0.9506836
vt 0.037323 0.9506836
vt 0.03167725 0.9492188
vt 0.03775024 0.9492188
vt 0.03207397 0.9477539
vt 0.037323 0.9477539
vt 0.03320313 0.9467773
vt 0.03622437 0.9467773
vt 0.03469849 0.9462891
vt 0.03244019 0.9677734
vt 0.03396606 0.9682617
vt 0.03549194 0.9677734
vt 0.03134155 0.9667969
vt 0.03659058 0.9667969
vt 0.03092957 0.965332
vt 0.0369873 0.965332
vt 0.03134155 0.9638672
vt 0.03659058 0.9638672
vt 0.03244019 0.9624023
vt 0.03549194 0.9624023
vt 0.03396606 0.9624023
vt 0.08917236 0.8984375
vt 0.0892334 0.8803711
vt 0.09356689 0.8808594
vt 0.09350586 0.8979492
vt 0.09747314 0.8979492
vt 0.09747314 0.8813477
vt 0.1014404 0.8979492
vt 0.1014404 0.8808594
vt 0.105896 0.8803711
vt 0.105896 0.8984375
vt 0.09008789 0.8984375
vt 0.1051025 0.8984375
vt 0.09320068 0.8989258
vt 0.1021118 0.8984375
vt 0.09765625 0.8989258
vt 0.105896 0.8803711
vt 0.1051025 0.8984375
vt 0.105896 0.8984375
vt 0.1051025 0.8798828
vt 0.1021118 0.8984375
vt 0.1021118 0.8793945
vt 0.09765625 0.8989258
vt 0.09765625 0.8793945
vt 0.09320068 0.8989258
vt 0.09326172 0.8793945
vt 0.09008789 0.8984375
vt 0.09014893 0.8798828
vt 0.08917236 0.8984375
vt 0.0892334 0.8803711
vt 0.5429688 0.9511719
vt 0.5449219 0.949707
vt 0.5454102 0.9594727
vt 0.543457 0.9609375
vt 0.5380859 0.9521484
vt 0.5385742 0.9619141
vt 0.5317383 0.9521484
vt 0.5322266 0.9619141
vt 0.5258789 0.9516602
vt 0.5263672 0.9614258
vt 0.5219727 0.9506836
vt 0.5224609 0.9604492
vt 0.5205078 0.9492188
vt 0.5209961 0.9589844
vt 0.5224609 0.9477539
vt 0.5205078 0.9492188
vt 0.5209961 0.9589844
vt 0.5229492 0.9575195
vt 0.5273438 0.9467773
vt 0.527832 0.956543
vt 0.5336914 0.9467773
vt 0.5341797 0.956543
vt 0.5395508 0.9472656
vt 0.5400391 0.9570313
vt 0.5439453 0.9482422
vt 0.5444336 0.9580078
vt 0.5449219 0.949707
vt 0.5454102 0.9594727
vt 0.543457 0.9609375
vt 0.5224609 0.9604492
vt 0.5385742 0.9619141
vt 0.5263672 0.9614258
vt 0.5322266 0.9619141
vt 0.06970215 0.8920898
vt 0.06738281 0.8920898
vt 0.06738281 0.894043
vt 0.06970215 0.894043
vt 0.07440186 0.8916016
vt 0.07440186 0.894043
vt 0.08007813 0.8916016
vt 0.08007813 0.894043
vt 0.08502197 0.8920898
vt 0.08502197 0.894043
vt 0.08770752 0.8920898
vt 0.08776855 0.894043
vt 0.06787109 0.8945313
vt 0.08764648 0.8945313
vt 0.07086182 0.8945313
vt 0.08496094 0.8945313
vt 0.07543945 0.8945313
vt 0.08050537 0.8945313
vt 0.06738281 0.8920898
vt 0.06787109 0.8945313
vt 0.06738281 0.894043
vt 0.06787109 0.8925781
vt 0.07086182 0.8945313
vt 0.07086182 0.8925781
vt 0.07543945 0.8945313
vt 0.07543945 0.8925781
vt 0.08050537 0.8945313
vt 0.08050537 0.8925781
vt 0.08496094 0.8945313
vt 0.08496094 0.8925781
vt 0.08764648 0.8945313
vt 0.08758545 0.8920898
vt 0.08776855 0.894043
vt 0.08770752 0.8920898
vt 0.08502197 0.8920898
vt 0.08007813 0.8916016
vt 0.06970215 0.8920898
vt 0.07440186 0.8916016
vt 0.3569336 0.8901367
vt 0.3679199 0.8881836
vt 0.3659668 0.9287109
vt 0.355957 0.9296875
vt 0.3464355 0.8901367
vt 0.3461914 0.9296875
vt 0.3291016 0.9291992
vt 0.3273926 0.8891602
vt 0.3239746 0.8881836
vt 0.3259277 0.9287109
vt 0.1013184 0.8774414
vt 0.1022949 0.878418
vt 0.1019897 0.887207
vt 0.1011353 0.8867188
vt 0.09985352 0.8774414
vt 0.09979248 0.8862305
vt 0.09698486 0.8862305
vt 0.09667969 0.8774414
vt 0.09576416 0.8779297
vt 0.09613037 0.8867188
vt 0.1022949 0.878418
vt 0.09979248 0.8881836
vt 0.1019897 0.887207
vt 0.09985352 0.878418
vt 0.09814453 0.8881836
vt 0.09802246 0.878418
vt 0.09674072 0.8876953
vt 0.09643555 0.878418
vt 0.09613037 0.8867188
vt 0.09576416 0.8779297
vt 0.09783936 0.8857422
vt 0.09997559 0.8876953
vt 0.105835 0.8876953
vt 0.1079712 0.8857422
vt 0.09783936 0.8798828
vt 0.1079712 0.8798828
vt 0.09997559 0.8779297
vt 0.1029053 0.8769531
vt 0.3327637 0.8867188
vt 0.3364258 0.9272461
vt 0.3347168 0.9282227
vt 0.3349609 0.8857422
vt 0.347168 0.9257813
vt 0.347168 0.8847656
vt 0.3532715 0.9262695
vt 0.354248 0.8847656
vt 0.3613281 0.8867188
vt 0.359375 0.9282227
vt 0.09533691 0.878418
vt 0.09667969 0.8867188
vt 0.09564209 0.8867188
vt 0.09643555 0.878418
vt 0.1002197 0.878418
vt 0.1001587 0.8867188
vt 0.1018066 0.8867188
vt 0.1019897 0.878418
vt 0.1028442 0.8867188
vt 0.1031494 0.8779297
vt 0.3288574 0.8876953
vt 0.333252 0.9282227
vt 0.3308105 0.9287109
vt 0.3317871 0.8876953
vt 0.3474121 0.887207
vt 0.3474121 0.9277344
vt 0.3552246 0.9277344
vt 0.3562012 0.887207
vt 0.3632813 0.9287109
vt 0.3652344 0.8876953
vt 0.3405762 0.9306641
vt 0.3327637 0.8867188
vt 0.3347168 0.9282227
vt 0.3395996 0.8886719
vt 0.3466797 0.8886719
vt 0.3466797 0.9311523
vt 0.3540039 0.8886719
vt 0.3530273 0.9306641
vt 0.359375 0.9282227
vt 0.3613281 0.8867188
vt 0.09613037 0.8779297
vt 0.09533691 0.878418
vt 0.09564209 0.8867188
vt 0.09643555 0.8867188
vt 0.09802246 0.8779297
vt 0.09814453 0.8867188
vt 0.1002197 0.8779297
vt 0.1001587 0.8867188
vt 0.1031494 0.8779297
vt 0.1028442 0.8867188
vt 0.3374023 0.8881836
vt 0.3288574 0.8876953
vt 0.3308105 0.9287109
vt 0.3383789 0.9301758
vt 0.3466797 0.8881836
vt 0.3466797 0.9301758
vt 0.355957 0.8881836
vt 0.3549805 0.9301758
vt 0.3652344 0.8876953
vt 0.3632813 0.9287109
vt 0.3679199 0.8881836
vt 0.355957 0.9282227
vt 0.3659668 0.9287109
vt 0.3569336 0.8867188
vt 0.345459 0.9282227
vt 0.345459 0.8862305
vt 0.3352051 0.9282227
vt 0.3342285 0.8867188
vt 0.3259277 0.9287109
vt 0.3239746 0.8881836
vt 0.08764648 0.8916016
vt 0.08770752 0.8916016
vt 0.08770752 0.8935547
vt 0.08764648 0.8930664
vt 0.08526611 0.8911133
vt 0.08526611 0.8930664
vt 0.08129883 0.8911133
vt 0.08129883 0.8925781
vt 0.07672119 0.8911133
vt 0.07672119 0.8925781
vt 0.07263184 0.8911133
vt 0.07263184 0.8930664
vt 0.06994629 0.8911133
vt 0.06994629 0.8930664
vt 0.06951904 0.8916016
vt 0.06951904 0.8935547
vt 0.08526611 0.894043
vt 0.07165527 0.894043
vt 0.08087158 0.894043
vt 0.07580566 0.894043
vt 0.08770752 0.8916016
vt 0.08526611 0.894043
vt 0.08770752 0.8935547
vt 0.08526611 0.8920898
vt 0.08087158 0.894043
vt 0.08087158 0.8920898
vt 0.07580566 0.894043
vt 0.07580566 0.8920898
vt 0.07165527 0.894043
vt 0.07165527 0.8920898
vt 0.06951904 0.8935547
vt 0.06951904 0.8916016
vt 0.06994629 0.8911133
vt 0.07263184 0.8911133
vt 0.08764648 0.8916016
vt 0.07672119 0.8911133
vt 0.08526611 0.8911133
vt 0.08129883 0.8911133
vt 0.08551025 0.890625
vt 0.08557129 0.8911133
vt 0.08557129 0.8930664
vt 0.08551025 0.8920898
vt 0.08343506 0.8896484
vt 0.08343506 0.8916016
vt 0.07983398 0.8891602
vt 0.07983398 0.8911133
vt 0.07574463 0.8891602
vt 0.07574463 0.8911133
vt 0.07202148 0.8896484
vt 0.07202148 0.8911133
vt 0.06970215 0.8901367
vt 0.06970215 0.8920898
vt 0.06933594 0.8911133
vt 0.06933594 0.8930664
vt 0.08337402 0.8935547
vt 0.07122803 0.8935547
vt 0.07946777 0.894043
vt 0.07495117 0.894043
vt 0.08557129 0.8911133
vt 0.08337402 0.8935547
vt 0.08557129 0.8930664
vt 0.08337402 0.8920898
vt 0.07946777 0.894043
vt 0.07946777 0.8925781
vt 0.07495117 0.894043
vt 0.07495117 0.8925781
vt 0.07122803 0.8935547
vt 0.07122803 0.8920898
vt 0.06933594 0.8930664
vt 0.06933594 0.8911133
vt 0.06970215 0.8901367
vt 0.07202148 0.8896484
vt 0.08551025 0.890625
vt 0.07574463 0.8891602
vt 0.08343506 0.8896484
vt 0.07983398 0.8891602
vt 0.1669922 0.765625
vt 0.1593018 0.7631836
vt 0.1582031 0.7631836
vt 0.1627197 0.7651367
vt 0.1573486 0.7646484
vt 0.1568604 0.7626953
vt 0.164917 0.769043
vt 0.1519775 0.7646484
vt 0.1555176 0.7626953
vt 0.1467285 0.765625
vt 0.1541748 0.7631836
vt 0.1501465 0.769043
vt 0.1706543 0.7700195
vt 0.1696777 0.7666016
vt 0.1739502 0.7705078
vt 0.1744385 0.7739258
vt 0.1711426 0.7729492
vt 0.1749268 0.7768555
vt 0.1575928 0.769043
vt 0.1651611 0.7729492
vt 0.1715088 0.7763672
vt 0.1575928 0.7724609
vt 0.1704102 0.7802734
vt 0.1737061 0.7807617
vt 0.1654053 0.7763672
vt 0.1693115 0.7841797
vt 0.1723633 0.7841797
vt 0.1647949 0.7802734
vt 0.1640625 0.784668
vt 0.1669922 0.7866211
vt 0.1696777 0.7861328
vt 0.1627197 0.7866211
vt 0.1647949 0.7885742
vt 0.1669922 0.7880859
vt 0.1593018 0.7900391
vt 0.1601563 0.7900391
vt 0.1582031 0.7905273
vt 0.161377 0.7885742
vt 0.1567383 0.7905273
vt 0.1571045 0.7885742
vt 0.1553955 0.7905273
vt 0.1573486 0.7866211
vt 0.152832 0.7885742
vt 0.1539307 0.7900391
vt 0.1574707 0.784668
vt 0.1517334 0.7866211
vt 0.1486816 0.7885742
vt 0.1530762 0.7900391
vt 0.1463623 0.7880859
vt 0.1464844 0.7866211
vt 0.1575928 0.7802734
vt 0.1507568 0.784668
vt 0.1442871 0.7841797
vt 0.1437988 0.7861328
vt 0.1577148 0.7758789
vt 0.1501465 0.7802734
vt 0.1433105 0.7861328
vt 0.145874 0.7880859
vt 0.1407471 0.7841797
vt 0.1411133 0.7841797
vt 0.1395264 0.7807617
vt 0.1499023 0.7724609
vt 0.1431885 0.7802734
vt 0.1398926 0.7807617
vt 0.1383057 0.7773438
vt 0.1496582 0.7763672
vt 0.1430664 0.7695313
vt 0.1385498 0.7768555
vt 0.1387939 0.7744141
vt 0.1420898 0.7763672
vt 0.1425781 0.7729492
vt 0.1396484 0.7705078
vt 0.1439209 0.7661133
vt 0.1390381 0.7739258
vt 0.1392822 0.7714844
vt 0.1541748 0.7631836
vt 0.1439209 0.7661133
vt 0.1467285 0.765625
vt 0.1533203 0.7631836
vt 0.1563721 0.7636719
vt 0.1555176 0.7626953
vt 0.1568604 0.7626953
vt 0.1582031 0.7631836
vt 0.1593018 0.7631836
vt 0.1530762 0.7636719
vt 0.1601563 0.7631836
vt 0.1669922 0.765625
vt 0.1696777 0.7666016
vt 0.1695557 0.7670898
vt 0.1739502 0.7705078
vt 0.1434326 0.7670898
vt 0.1396484 0.7705078
vt 0.1392822 0.7714844
vt 0.1419678 0.7724609
vt 0.1387939 0.7744141
vt 0.1452637 0.7680664
vt 0.1602783 0.7636719
vt 0.1416016 0.7749023
vt 0.1383057 0.7773438
vt 0.1534424 0.7641602
vt 0.1553955 0.7641602
vt 0.1520996 0.769043
vt 0.1508789 0.7729492
vt 0.159668 0.7641602
vt 0.1577148 0.7641602
vt 0.1669922 0.7685547
vt 0.1601563 0.769043
vt 0.1697998 0.7724609
vt 0.1610107 0.7729492
vt 0.1611328 0.7753906
vt 0.1506348 0.7753906
vt 0.173584 0.7714844
vt 0.170166 0.7753906
vt 0.1740723 0.7744141
vt 0.1744385 0.7739258
vt 0.1612549 0.777832
vt 0.1412354 0.777832
vt 0.1745605 0.7773438
vt 0.1749268 0.7768555
vt 0.1704102 0.777832
vt 0.1505127 0.7783203
vt 0.1420898 0.7807617
vt 0.1395264 0.7807617
vt 0.1733398 0.7807617
vt 0.1737061 0.7807617
vt 0.1695557 0.7807617
vt 0.1608887 0.7807617
vt 0.1430664 0.7841797
vt 0.1407471 0.7841797
vt 0.1508789 0.7807617
vt 0.1721191 0.7841797
vt 0.1723633 0.7841797
vt 0.1696777 0.7861328
vt 0.1688232 0.7841797
vt 0.1451416 0.7856445
vt 0.1433105 0.7861328
vt 0.1606445 0.7836914
vt 0.1512451 0.7836914
vt 0.1695557 0.7861328
vt 0.1669922 0.7880859
vt 0.1668701 0.7856445
vt 0.1473389 0.7875977
vt 0.145874 0.7880859
vt 0.1519775 0.7856445
vt 0.1600342 0.7856445
vt 0.1671143 0.7880859
vt 0.1601563 0.7900391
vt 0.1650391 0.7875977
vt 0.1594238 0.7875977
vt 0.152832 0.7875977
vt 0.1577148 0.7895508
vt 0.159668 0.7900391
vt 0.1602783 0.7900391
vt 0.15625 0.7900391
vt 0.1593018 0.7900391
vt 0.1582031 0.7905273
vt 0.1567383 0.7905273
vt 0.1553955 0.7905273
vt 0.1539307 0.7900391
vt 0.1530762 0.7900391
vt 0.1551514 0.7895508
vt 0.1531982 0.7900391
vt 0.1463623 0.7880859
vt 0.152832 0.7900391
vt 0.09442139 0.8833008
vt 0.09552002 0.8842773
vt 0.09552002 0.8842773
vt 0.09442139 0.8833008
vt 0.0970459 0.8847656
vt 0.09399414 0.8818359
vt 0.0970459 0.8847656
vt 0.09399414 0.8818359
vt 0.09857178 0.8842773
vt 0.09442139 0.8803711
vt 0.09857178 0.8842773
vt 0.09442139 0.8803711
vt 0.09967041 0.8833008
vt 0.09552002 0.8793945
vt 0.09967041 0.8833008
vt 0.09552002 0.8793945
vt 0.1000977 0.8818359
vt 0.0970459 0.8789063
vt 0.1000977 0.8818359
vt 0.0970459 0.8789063
vt 0.09967041 0.8803711
vt 0.09857178 0.8793945
vt 0.09967041 0.8803711
vt 0.09857178 0.8793945
vt 0.09442139 0.8833008
vt 0.09552002 0.8842773
vt 0.09552002 0.8842773
vt 0.09442139 0.8833008
vt 0.0970459 0.8847656
vt 0.09399414 0.8818359
vt 0.09399414 0.8818359
vt 0.0970459 0.8847656
vt 0.09857178 0.8842773
vt 0.09857178 0.8842773
vt 0.09967041 0.8833008
vt 0.09967041 0.8833008
vt 0.1000977 0.8818359
vt 0.1000977 0.8818359
vt 0.09967041 0.8803711
vt 0.09967041 0.8803711
vt 0.09857178 0.8793945
vt 0.09442139 0.8803711
vt 0.09442139 0.8803711
vt 0.09857178 0.8793945
vt 0.0970459 0.8789063
vt 0.09552002 0.8793945
vt 0.09552002 0.8793945
vt 0.0970459 0.8789063
vn 0.5 0.1907959 -0.8447266
vn 0.9760742 0.1812744 -0.118103
vn 0.9785156 0.1641846 -0.1242676
vn 0.5039063 0.1732178 -0.8461914
vn 0.9833984 0.1329346 -0.1245728
vn -0.5039063 0.1732178 -0.8461914
vn -0.5 0.1907959 -0.8447266
vn -0.9760742 0.1812744 -0.118103
vn -0.9785156 0.1641846 -0.1242676
vn -0.5063477 0.1403809 -0.8505859
vn -0.9833984 0.1329346 -0.1245728
vn -0.5078125 0.1159668 -0.8535156
vn -0.9858398 0.1099243 -0.1247559
vn -0.9868164 0.1000366 -0.1274414
vn -0.5092773 0.1054688 -0.8540039
vn 0.5092773 0.1054688 -0.8540039
vn 0.5063477 0.1403809 -0.8505859
vn 0.9858398 0.1099243 -0.1247559
vn 0.9868164 0.1000366 -0.1274414
vn 0.5078125 0.1159668 -0.8535156
vn 0.9858398 0.1099243 -0.1247559
vn 0.8730469 0.102356 0.4770508
vn 0.9868164 0.1000366 -0.1274414
vn 0.871582 0.1123657 0.4772949
vn 0.9833984 0.1329346 -0.1245728
vn 0.5175781 0.1054688 0.8491211
vn 0.8691406 0.1358643 0.4758301
vn 0.9785156 0.1641846 -0.1242676
vn 0.5161133 0.1157837 0.8486328
vn 0 0.1071167 0.9941406
vn 0.8647461 0.1676025 0.4733887
vn 0.9760742 0.1812744 -0.118103
vn 0.8613281 0.1851807 0.4733887
vn 0 0.1175537 0.9931641
vn -0.5175781 0.1054688 0.8491211
vn 0.5146484 0.1400146 0.8457031
vn 0.512207 0.1727295 0.8413086
vn 0.5087891 0.1906738 0.8393555
vn -0.5161133 0.1157837 0.8486328
vn -0.8730469 0.102356 0.4770508
vn 0 0.1420898 0.9897461
vn 0 0.175415 0.984375
vn 0 0.1936035 0.980957
vn -0.871582 0.1123657 0.4772949
vn -0.9868164 0.1000366 -0.1274414
vn -0.9858398 0.1099243 -0.1247559
vn -0.5146484 0.1400146 0.8457031
vn -0.512207 0.1727295 0.8413086
vn -0.5087891 0.1906738 0.8393555
vn -0.8691406 0.1358643 0.4758301
vn -0.9833984 0.1329346 -0.1245728
vn -0.8647461 0.1676025 0.4733887
vn -0.8613281 0.1851807 0.4733887
vn -0.9785156 0.1641846 -0.1242676
vn -0.9760742 0.1812744 -0.118103
vn -0.394043 0.6518555 -0.6479492
vn 0 0.6503906 -0.7597656
vn 0.394043 0.6518555 -0.6479492
vn -0.6630859 0.6547852 -0.3630371
vn 0.6630859 0.6547852 -0.3630371
vn -0.7548828 0.6557617 0
vn 0.7548828 0.6557617 0
vn -0.6630859 0.6547852 0.3630371
vn 0.6630859 0.6547852 0.3630371
vn -0.394043 0.6518555 0.6479492
vn 0.394043 0.6518555 0.6479492
vn 0 0.6503906 0.7597656
vn -0.394043 0.6518555 -0.6479492
vn 0 0.6503906 -0.7597656
vn 0.394043 0.6518555 -0.6479492
vn -0.6630859 0.6547852 -0.3630371
vn 0.6630859 0.6547852 -0.3630371
vn -0.7548828 0.6557617 0
vn 0.7548828 0.6557617 0
vn -0.6630859 0.6547852 0.3630371
vn 0.6630859 0.6547852 0.3630371
vn -0.394043 0.6518555 0.6479492
vn 0.394043 0.6518555 0.6479492
vn 0 0.6503906 0.7597656
vn -0.7675781 0.6337891 -0.09674072
vn -0.9921875 0 -0.125
vn -0.625 0 -0.7807617
vn -0.4855957 0.6293945 -0.6064453
vn 0 0.6503906 -0.7597656
vn 0 0 -1
vn 0.4855957 0.6293945 -0.6064453
vn 0.625 0 -0.7807617
vn 0.9921875 0 -0.125
vn 0.7675781 0.6337891 -0.09674072
vn -0.6630859 0.6547852 0.3630371
vn 0.6630859 0.6547852 0.3630371
vn -0.394043 0.6518555 0.6479492
vn 0.394043 0.6518555 0.6479492
vn 0 0.6503906 0.7597656
vn 0.9921875 0 -0.125
vn 0.6630859 0.6547852 0.3630371
vn 0.7675781 0.6337891 -0.09674072
vn 0.8769531 0 0.4804688
vn 0.394043 0.6518555 0.6479492
vn 0.5195313 0 0.8544922
vn 0 0.6503906 0.7597656
vn 0 0 1
vn -0.394043 0.6518555 0.6479492
vn -0.5195313 0 0.8544922
vn -0.6630859 0.6547852 0.3630371
vn -0.8769531 0 0.4804688
vn -0.7675781 0.6337891 -0.09674072
vn -0.9921875 0 -0.125
vn 0.8769531 0 -0.4804688
vn 1 0 0
vn 0.7548828 0.6557617 0
vn 0.6630859 0.6547852 -0.3630371
vn 0.5195313 0 -0.8544922
vn 0.394043 0.6518555 -0.6479492
vn 0 0 -1
vn 0 0.6503906 -0.7597656
vn -0.5195313 0 -0.8544922
vn -0.394043 0.6518555 -0.6479492
vn -0.8769531 0 -0.4804688
vn -0.6630859 0.6547852 -0.3630371
vn -1 0 0
vn -0.7548828 0.6557617 0
vn -0.8769531 0 0.4804688
vn -1 0 0
vn -0.7548828 0.6557617 0
vn -0.6630859 0.6547852 0.3630371
vn -0.5195313 0 0.8544922
vn -0.394043 0.6518555 0.6479492
vn 0 0 1
vn 0 0.6503906 0.7597656
vn 0.5195313 0 0.8544922
vn 0.394043 0.6518555 0.6479492
vn 0.8769531 0 0.4804688
vn 0.6630859 0.6547852 0.3630371
vn 1 0 0
vn 0.7548828 0.6557617 0
vn 0.6630859 0.6547852 -0.3630371
vn -0.6630859 0.6547852 -0.3630371
vn 0.394043 0.6518555 -0.6479492
vn -0.394043 0.6518555 -0.6479492
vn 0 0.6503906 -0.7597656
vn -0.394043 -0.6518555 0.6479492
vn -0.6630859 -0.6547852 0.3630371
vn -0.6630859 0.6547852 0.3630371
vn -0.394043 0.6518555 0.6479492
vn 0 -0.6503906 0.7597656
vn 0 0.6503906 0.7597656
vn 0.394043 -0.6518555 0.6479492
vn 0.394043 0.6518555 0.6479492
vn 0.6630859 -0.6547852 0.3630371
vn 0.6630859 0.6547852 0.3630371
vn 0.7548828 -0.6557617 0
vn 0.7548828 0.6557617 0
vn -0.7548828 0.6557617 0
vn 0.6630859 0.6547852 -0.3630371
vn -0.6630859 0.6547852 -0.3630371
vn 0.394043 0.6518555 -0.6479492
vn -0.394043 0.6518555 -0.6479492
vn 0 0.6503906 -0.7597656
vn -0.6630859 -0.6547852 0.3630371
vn -0.7548828 0.6557617 0
vn -0.6630859 0.6547852 0.3630371
vn -0.7548828 -0.6557617 0
vn -0.6630859 0.6547852 -0.3630371
vn -0.6630859 -0.6547852 -0.3630371
vn -0.394043 0.6518555 -0.6479492
vn -0.394043 -0.6518555 -0.6479492
vn 0 0.6503906 -0.7597656
vn 0 -0.6503906 -0.7597656
vn 0.394043 0.6518555 -0.6479492
vn 0.394043 -0.6518555 -0.6479492
vn 0.6630859 0.6547852 -0.3630371
vn 0.6630859 -0.6547852 -0.3630371
vn 0.7548828 0.6557617 0
vn 0.7548828 -0.6557617 0
vn 0.6630859 -0.6547852 0.3630371
vn 0.394043 -0.6518555 0.6479492
vn -0.394043 -0.6518555 0.6479492
vn 0 -0.6503906 0.7597656
vn 0.9277344 0.04852295 -0.3701172
vn 0.8710938 0.04919434 0.4882813
vn 0.871582 0.04919434 0.487793
vn 0.9287109 0.04852295 -0.3681641
vn 0.3972168 0.05056763 -0.9165039
vn 0.3959961 0.05053711 -0.9169922
vn -0.3959961 0.05053711 -0.9169922
vn -0.3972168 0.05056763 -0.9165039
vn -0.9277344 0.04852295 -0.3701172
vn -0.9287109 0.04852295 -0.3681641
vn 0.9287109 0.04852295 -0.3681641
vn 0.871582 0.04919434 0.487793
vn 0.871582 0.04919434 0.487793
vn 0.9287109 0.04852295 -0.3681641
vn 0.3959961 0.05053711 -0.9169922
vn 0.3959961 0.05053711 -0.9169922
vn -0.3959961 0.05053711 -0.9169922
vn -0.3959961 0.05053711 -0.9169922
vn -0.9287109 0.04852295 -0.3681641
vn -0.9287109 0.04852295 -0.3681641
vn 0.871582 0.04919434 0.487793
vn 0.1358643 0.05102539 0.9892578
vn 0.871582 0.04919434 0.487793
vn 0.1358643 0.05102539 0.9892578
vn -0.519043 0.0506897 0.8530273
vn -0.519043 0.0506897 0.8530273
vn -0.9287109 0.04852295 0.3681641
vn -0.9287109 0.04852295 0.3681641
vn -0.9287109 0.04852295 -0.3681641
vn -0.9287109 0.04852295 -0.3681641
vn -0.7060547 0.6508789 -0.2785645
vn -0.3017578 0.6464844 -0.7006836
vn 0.3017578 0.6464844 -0.7006836
vn 0.7060547 0.6508789 -0.2785645
vn -0.7060547 0.6508789 0.2785645
vn 0.6777344 0.6303711 0.3786621
vn -0.3857422 0.6704102 0.6337891
vn 0.1052246 0.6459961 0.7563477
vn -0.9287109 0.04852295 -0.3681641
vn -0.3017578 0.6464844 -0.7006836
vn -0.7060547 0.6508789 -0.2785645
vn -0.3959961 0.05053711 -0.9169922
vn 0.3017578 0.6464844 -0.7006836
vn 0.3959961 0.05053711 -0.9169922
vn 0.7060547 0.6508789 -0.2785645
vn 0.9287109 0.04852295 -0.3681641
vn 0.871582 0.04919434 0.487793
vn 0.6777344 0.6303711 0.3786621
vn -0.9287109 0.04852295 -0.3681641
vn -0.3959961 0.05053711 -0.9169922
vn -0.9287109 0.04852295 -0.3681641
vn -0.3959961 0.05053711 -0.9169922
vn 0.3959961 0.05053711 -0.9169922
vn 0.3959961 0.05053711 -0.9169922
vn 0.9287109 0.04852295 -0.3681641
vn 0.9287109 0.04852295 -0.3681641
vn 0.871582 0.04919434 0.487793
vn 0.871582 0.04919434 0.487793
vn -0.9287109 0.04852295 -0.3681641
vn -0.3959961 0.05053711 -0.9169922
vn -0.9287109 0.04852295 -0.3681641
vn -0.3959961 0.05053711 -0.9169922
vn 0.3959961 0.05053711 -0.9169922
vn 0.3959961 0.05053711 -0.9169922
vn 0.9287109 0.04852295 -0.3681641
vn 0.9287109 0.04852295 -0.3681641
vn 0.871582 0.04919434 0.487793
vn 0.871582 0.04919434 0.487793
vn -0.7060547 0.6508789 0.2785645
vn -0.9287109 0.04852295 -0.3681641
vn -0.7060547 0.6508789 -0.2785645
vn -0.9287109 0.04852295 0.3681641
vn -0.519043 0.0506897 0.8530273
vn -0.3857422 0.6704102 0.6337891
vn 0.1358643 0.05102539 0.9892578
vn 0.1052246 0.6459961 0.7563477
vn 0.6777344 0.6303711 0.3786621
vn 0.871582 0.04919434 0.487793
vn -0.9287109 0.04852295 0.3681641
vn -0.9287109 0.04852295 -0.3681641
vn -0.9287109 0.04852295 -0.3681641
vn -0.9287109 0.04852295 0.3681641
vn -0.519043 0.0506897 0.8530273
vn -0.519043 0.0506897 0.8530273
vn 0.1358643 0.05102539 0.9892578
vn 0.1358643 0.05102539 0.9892578
vn 0.871582 0.04919434 0.487793
vn 0.871582 0.04919434 0.487793
vn -0.9287109 0.04852295 0.3681641
vn -0.9287109 0.04852295 -0.3681641
vn -0.9287109 0.04852295 -0.3681641
vn -0.9287109 0.04852295 0.3681641
vn -0.519043 0.0506897 0.8530273
vn -0.519043 0.0506897 0.8530273
vn 0.1358643 0.05102539 0.9892578
vn 0.1358643 0.05102539 0.9892578
vn 0.871582 0.04919434 0.487793
vn 0.871582 0.04919434 0.487793
vn 0.8710938 0.04919434 0.4882813
vn 0.1358643 0.05102539 0.9892578
vn 0.871582 0.04919434 0.487793
vn 0.1340332 0.05102539 0.9897461
vn -0.519043 0.0506897 0.8530273
vn -0.5185547 0.0506897 0.8535156
vn -0.9287109 0.04852295 0.3681641
vn -0.9277344 0.04852295 0.3701172
vn -0.9287109 0.04852295 -0.3681641
vn -0.9277344 0.04852295 -0.3701172
vn 0.6630859 -0.6547852 -0.3630371
vn 0.7548828 -0.6557617 0
vn 0.7548828 0.6557617 0
vn 0.6630859 0.6547852 -0.3630371
vn 0.394043 -0.6518555 -0.6479492
vn 0.394043 0.6518555 -0.6479492
vn 0 -0.6503906 -0.7597656
vn 0 0.6503906 -0.7597656
vn -0.394043 -0.6518555 -0.6479492
vn -0.394043 0.6518555 -0.6479492
vn -0.6630859 -0.6547852 -0.3630371
vn -0.6630859 0.6547852 -0.3630371
vn -0.7548828 -0.6557617 0
vn -0.7548828 0.6557617 0
vn -0.6630859 -0.6547852 0.3630371
vn -0.6630859 0.6547852 0.3630371
vn 0.6630859 0.6547852 0.3630371
vn -0.394043 0.6518555 0.6479492
vn 0.394043 0.6518555 0.6479492
vn 0 0.6503906 0.7597656
vn 0.7548828 -0.6557617 0
vn 0.6630859 0.6547852 0.3630371
vn 0.7548828 0.6557617 0
vn 0.6630859 -0.6547852 0.3630371
vn 0.394043 0.6518555 0.6479492
vn 0.394043 -0.6518555 0.6479492
vn 0 0.6503906 0.7597656
vn 0 -0.6503906 0.7597656
vn -0.394043 0.6518555 0.6479492
vn -0.394043 -0.6518555 0.6479492
vn -0.6630859 0.6547852 0.3630371
vn -0.6630859 -0.6547852 0.3630371
vn -0.7548828 -0.6557617 0
vn -0.6630859 -0.6547852 -0.3630371
vn 0.6630859 -0.6547852 -0.3630371
vn -0.394043 -0.6518555 -0.6479492
vn 0.394043 -0.6518555 -0.6479492
vn 0 -0.6503906 -0.7597656
vn 0.6630859 -0.6547852 -0.3630371
vn 0.7548828 -0.6557617 0
vn 0.7548828 0.6557617 0
vn 0.6630859 0.6547852 -0.3630371
vn 0.394043 -0.6518555 -0.6479492
vn 0.394043 0.6518555 -0.6479492
vn 0 -0.6503906 -0.7597656
vn 0 0.6503906 -0.7597656
vn -0.394043 -0.6518555 -0.6479492
vn -0.394043 0.6518555 -0.6479492
vn -0.6630859 -0.6547852 -0.3630371
vn -0.6630859 0.6547852 -0.3630371
vn -0.7548828 -0.6557617 0
vn -0.7548828 0.6557617 0
vn -0.6630859 -0.6547852 0.3630371
vn -0.6630859 0.6547852 0.3630371
vn 0.6630859 0.6547852 0.3630371
vn -0.394043 0.6518555 0.6479492
vn 0.394043 0.6518555 0.6479492
vn 0 0.6503906 0.7597656
vn 0.7548828 -0.6557617 0
vn 0.6630859 0.6547852 0.3630371
vn 0.7548828 0.6557617 0
vn 0.6630859 -0.6547852 0.3630371
vn 0.394043 0.6518555 0.6479492
vn 0.394043 -0.6518555 0.6479492
vn 0 0.6503906 0.7597656
vn 0 -0.6503906 0.7597656
vn -0.394043 0.6518555 0.6479492
vn -0.394043 -0.6518555 0.6479492
vn -0.6630859 0.6547852 0.3630371
vn -0.6630859 -0.6547852 0.3630371
vn -0.7548828 -0.6557617 0
vn -0.6630859 -0.6547852 -0.3630371
vn 0.6630859 -0.6547852 -0.3630371
vn -0.394043 -0.6518555 -0.6479492
vn 0.394043 -0.6518555 -0.6479492
vn 0 -0.6503906 -0.7597656
vn 0.3908691 -0.831543 0.3945313
vn 0.1407471 -0.9804688 0.138916
vn 0.06884766 -0.9819336 0.1762695
vn 0.196167 -0.8393555 0.5068359
vn 0 -0.8408203 0.5415039
vn 1.907349E-05 -0.9819336 0.1881104
vn 0.2946777 -0.5698242 0.7670898
vn -0.2302246 -0.8349609 0.5
vn -0.0838623 -0.9804688 0.177124
vn -0.4370117 -0.8242188 0.3603516
vn -0.1582031 -0.9790039 0.1275635
vn -0.3405762 -0.5649414 0.7514648
vn 0.5776367 -0.5625 0.5917969
vn 0.5351563 -0.8208008 0.1993408
vn 0.7807617 -0.5498047 0.2971191
vn 0.9067383 -0.248291 0.3405762
vn 0.6762695 -0.260498 0.6889648
vn 0.9257813 0.1248169 0.3569336
vn -0.0001343489 -0.5712891 0.8208008
vn 0.347168 -0.2675781 0.8989258
vn 0.6894531 0.1280518 0.7128906
vn 0.0002522469 -0.2695313 0.9628906
vn 0.6254883 0.4521484 0.6357422
vn 0.84375 0.4338379 0.3164063
vn 0.354248 0.1297607 0.9262695
vn 0.5185547 0.6708984 0.5297852
vn 0.706543 0.6547852 0.2680664
vn 0.3195801 0.4619141 0.8271484
vn 0.2631836 0.6796875 0.6845703
vn 0.3977051 0.8251953 0.4008789
vn 0.5483398 0.8110352 0.2032471
vn 0.2003174 0.8325195 0.5166016
vn 0.2861328 0.9135742 0.2885742
vn 0.3937988 0.9072266 0.1467285
vn 0.1118164 0.987793 0.1103516
vn 0.1540527 0.9863281 0.05554199
vn 0.05462646 0.9887695 0.1397705
vn 0.1431885 0.9179688 0.3703613
vn 1.895428E-05 0.9887695 0.149292
vn -4.899502E-05 0.918457 0.3952637
vn -0.06658936 0.987793 0.140625
vn 9.62615E-05 0.8344727 0.5512695
vn -0.1689453 0.9155273 0.3654785
vn -0.1259766 0.9868164 0.1015015
vn -0.0001317263 0.6821289 0.7314453
vn -0.2327881 0.8305664 0.5063477
vn -0.3222656 0.9086914 0.2653809
vn -0.1551514 0.9863281 0.05200195
vn -0.402832 0.9052734 0.1358643
vn -0.4462891 0.815918 0.3676758
vn 0.0001667738 0.4645996 0.8852539
vn -0.3051758 0.675293 0.6713867
vn -0.5776367 0.6586914 0.4819336
vn -0.5615234 0.8061523 0.1873779
vn -0.0002285242 0.1300049 0.9916992
vn -0.3676758 0.4592285 0.8085938
vn -0.5874023 0.809082 -0.02012634
vn -0.4206543 0.9072266 -0.01158905
vn -0.7573242 0.652832 -0.02229309
vn -0.7207031 0.6484375 0.2443848
vn -0.9018555 0.4309082 -0.03274536
vn -0.3977051 -0.2653809 0.878418
vn -0.690918 0.4399414 0.5737305
vn -0.8574219 0.4274902 0.2866211
vn -0.9916992 0.1254883 -0.03062439
vn -0.4055176 0.1281738 0.9052734
vn -0.640625 -0.5498047 0.5361328
vn -0.9394531 0.1223755 0.3198242
vn -0.96875 -0.2460938 -0.03707886
vn -0.7583008 0.1240234 0.6396484
vn -0.7436523 -0.2529297 0.6186523
vn -0.7958984 -0.5419922 0.2697754
vn -0.5449219 -0.8183594 0.1831055
vn -0.9199219 -0.244873 0.3068848
vn -0.8344727 -0.550293 -0.02542114
vn -0.1582031 -0.9790039 0.1275635
vn -0.5449219 -0.8183594 0.1831055
vn -0.4370117 -0.8242188 0.3603516
vn -0.1945801 -0.9785156 0.06518555
vn -0.0005745888 -1 -0.005279541
vn -0.0838623 -0.9804688 0.177124
vn 1.907349E-05 -0.9819336 0.1881104
vn 0.06884766 -0.9819336 0.1762695
vn 0.1407471 -0.9804688 0.138916
vn -0.2070313 -0.9785156 -0.004936218
vn 0.1934814 -0.9785156 0.06982422
vn 0.3908691 -0.831543 0.3945313
vn 0.5351563 -0.8208008 0.1993408
vn 0.5795898 -0.8144531 -0.01555634
vn 0.7807617 -0.5498047 0.2971191
vn -0.5727539 -0.8198242 -0.01751709
vn -0.7958984 -0.5419922 0.2697754
vn -0.8344727 -0.550293 -0.02542114
vn -0.7094727 -0.5673828 -0.4182129
vn -0.96875 -0.2460938 -0.03707886
vn -0.4882813 -0.8232422 -0.2897949
vn 0.2088623 -0.9780273 -0.00592041
vn -0.8291016 -0.2504883 -0.5
vn -0.9916992 0.1254883 -0.03062439
vn -0.1815186 -0.9775391 -0.1069336
vn -0.05368042 -0.9755859 -0.2126465
vn -0.1467285 -0.8227539 -0.5493164
vn -0.2183838 -0.5800781 -0.784668
vn 0.1813965 -0.9746094 -0.1298828
vn 0.07751465 -0.9765625 -0.2011719
vn 0.4736328 -0.8134766 -0.3371582
vn 0.2092285 -0.8100586 -0.5478516
vn 0.6777344 -0.5605469 -0.4755859
vn 0.2983398 -0.5478516 -0.7817383
vn 0.3449707 -0.2335205 -0.9091797
vn -0.2585449 -0.2514648 -0.9326172
vn 0.8393555 -0.543457 -0.01982117
vn 0.7885742 -0.2441406 -0.5644531
vn 0.9702148 -0.2404785 -0.02827454
vn 0.9067383 -0.248291 0.3405762
vn 0.3537598 0.1264648 -0.9267578
vn -0.8540039 0.1317139 -0.5029297
vn 0.9921875 0.1236572 -0.02180481
vn 0.9257813 0.1248169 0.3569336
vn 0.8129883 0.1298828 -0.5673828
vn -0.2712402 0.1367188 -0.9526367
vn -0.7695313 0.440918 -0.4621582
vn -0.9018555 0.4309082 -0.03274536
vn 0.90625 0.4221191 -0.02580261
vn 0.84375 0.4338379 0.3164063
vn 0.7333984 0.4326172 -0.5244141
vn 0.3234863 0.4130859 -0.8510742
vn -0.6435547 0.6645508 -0.3791504
vn -0.7573242 0.652832 -0.02229309
vn -0.2370605 0.4462891 -0.862793
vn 0.7636719 0.6450195 -0.01792908
vn 0.706543 0.6547852 0.2680664
vn 0.5483398 0.8110352 0.2032471
vn 0.6171875 0.65625 -0.4333496
vn -0.4938965 0.8173828 -0.2961426
vn -0.5874023 0.809082 -0.02012634
vn 0.2741699 0.6401367 -0.7177734
vn -0.1967773 0.6723633 -0.7133789
vn 0.5976563 0.8017578 -0.01745605
vn 0.3937988 0.9072266 0.1467285
vn 0.4746094 0.8110352 -0.3415527
vn -0.354248 0.9116211 -0.2084961
vn -0.4206543 0.9072266 -0.01158905
vn -0.145752 0.8222656 -0.550293
vn 0.2161865 0.7944336 -0.5678711
vn 0.4272461 0.9042969 -0.01084137
vn 0.1540527 0.9863281 0.05554199
vn 0.34375 0.9072266 -0.2431641
vn 0.1534424 0.9033203 -0.4006348
vn -0.104248 0.9135742 -0.3928223
vn 0.06213379 0.9848633 -0.1611328
vn 0.1445313 0.9838867 -0.1035156
vn 0.166626 0.9858398 -0.004699707
vn -0.0005745888 1 -0.005279541
vn 0.1118164 0.987793 0.1103516
vn 0.05462646 0.9887695 0.1397705
vn 1.895428E-05 0.9887695 0.149292
vn -0.06658936 0.987793 0.140625
vn -0.1259766 0.9868164 0.1015015
vn -0.1551514 0.9863281 0.05200195
vn -0.04266357 0.984375 -0.1695557
vn -0.1447754 0.9858398 -0.08514404
vn -0.402832 0.9052734 0.1358643
vn -0.1651611 0.9863281 -0.00387001
vn -0.8769531 0 -0.4804688
vn -0.5195313 0 -0.8544922
vn -0.394043 0.6518555 -0.6479492
vn -0.6630859 0.6547852 -0.3630371
vn 0 0.6503906 -0.7597656
vn -1 0 0
vn 0 0 -1
vn -0.7548828 0.6557617 0
vn 0.394043 0.6518555 -0.6479492
vn -0.8769531 0 0.4804688
vn 0.5195313 0 -0.8544922
vn -0.6630859 0.6547852 0.3630371
vn 0.6630859 0.6547852 -0.3630371
vn -0.5195313 0 0.8544922
vn 0.8769531 0 -0.4804688
vn -0.394043 0.6518555 0.6479492
vn 0.7548828 0.6557617 0
vn 0 0 1
vn 1 0 0
vn 0 0.6503906 0.7597656
vn 0.6630859 0.6547852 0.3630371
vn 0.5195313 0 0.8544922
vn 0.8769531 0 0.4804688
vn 0.394043 0.6518555 0.6479492
vn -0.6630859 -0.6547852 -0.3630371
vn -0.394043 -0.6518555 -0.6479492
vn -0.394043 0.6518555 -0.6479492
vn -0.6630859 0.6547852 -0.3630371
vn 0 0.6503906 -0.7597656
vn -0.7548828 -0.6557617 0
vn -0.7548828 0.6557617 0
vn 0 -0.6503906 -0.7597656
vn 0.394043 0.6518555 -0.6479492
vn 0.394043 -0.6518555 -0.6479492
vn 0.6630859 0.6547852 -0.3630371
vn 0.6630859 -0.6547852 -0.3630371
vn 0.7548828 0.6557617 0
vn 0.7548828 -0.6557617 0
vn 0.6630859 0.6547852 0.3630371
vn 0.6630859 -0.6547852 0.3630371
vn 0.394043 0.6518555 0.6479492
vn -0.6630859 -0.6547852 0.3630371
vn -0.6630859 0.6547852 0.3630371
vn 0.394043 -0.6518555 0.6479492
vn 0 0.6503906 0.7597656
vn -0.394043 -0.6518555 0.6479492
vn -0.394043 0.6518555 0.6479492
vn 0 -0.6503906 0.7597656
g Berliner_fernsehtum_0
f 3/3/3 2/2/2 1/1/1
f 4/4/4 3/3/3 1/1/1
f 5/5/5 3/3/3 4/4/4
f 4/4/4 1/1/1 6/6/6
f 1/1/1 7/7/7 6/6/6
f 6/6/6 7/7/7 8/8/8
f 9/9/9 6/6/6 8/8/8
f 10/10/10 6/6/6 9/9/9
f 4/4/4 6/6/6 10/10/10
f 11/11/11 10/10/10 9/9/9
f 12/12/12 10/10/10 11/11/11
f 13/13/13 12/12/12 11/11/11
f 12/12/12 13/13/13 14/14/14
f 15/15/15 12/12/12 14/14/14
f 15/15/15 16/16/16 12/12/12
f 17/17/17 5/5/5 4/4/4
f 17/17/17 4/4/4 10/10/10
f 17/17/17 10/10/10 12/12/12
f 18/18/18 5/5/5 17/17/17
f 19/19/19 18/18/18 16/16/16
f 20/20/20 17/17/17 12/12/12
f 16/16/16 20/20/20 12/12/12
f 20/20/20 18/18/18 17/17/17
f 18/18/18 20/20/20 16/16/16
f 23/23/23 22/22/22 21/21/21
f 22/22/22 24/24/24 21/21/21
f 21/21/21 24/24/24 25/25/25
f 22/22/22 26/26/26 24/24/24
f 24/24/24 27/27/27 25/25/25
f 25/25/25 27/27/27 28/28/28
f 26/26/26 29/29/29 24/24/24
f 24/24/24 29/29/29 27/27/27
f 26/26/26 30/30/30 29/29/29
f 27/27/27 31/31/31 28/28/28
f 28/28/28 31/31/31 32/32/32
f 31/31/31 33/33/33 32/32/32
f 30/30/30 34/34/34 29/29/29
f 30/30/30 35/35/35 34/34/34
f 29/29/29 36/36/36 27/27/27
f 27/27/27 36/36/36 31/31/31
f 29/29/29 34/34/34 36/36/36
f 31/31/31 37/37/37 33/33/33
f 36/36/36 37/37/37 31/31/31
f 37/37/37 38/38/38 33/33/33
f 35/35/35 39/39/39 34/34/34
f 35/35/35 40/40/40 39/39/39
f 34/34/34 41/41/41 36/36/36
f 36/36/36 41/41/41 37/37/37
f 34/34/34 39/39/39 41/41/41
f 37/37/37 42/42/42 38/38/38
f 41/41/41 42/42/42 37/37/37
f 42/42/42 43/43/43 38/38/38
f 40/40/40 44/44/44 39/39/39
f 40/40/40 45/45/45 44/44/44
f 45/45/45 46/46/46 44/44/44
f 39/39/39 47/47/47 41/41/41
f 41/41/41 47/47/47 42/42/42
f 39/39/39 44/44/44 47/47/47
f 42/42/42 48/48/48 43/43/43
f 47/47/47 48/48/48 42/42/42
f 48/48/48 49/49/49 43/43/43
f 44/44/44 46/46/46 50/50/50
f 44/44/44 50/50/50 47/47/47
f 47/47/47 50/50/50 48/48/48
f 46/46/46 51/51/51 50/50/50
f 48/48/48 52/52/52 49/49/49
f 50/50/50 52/52/52 48/48/48
f 50/50/50 51/51/51 52/52/52
f 52/52/52 53/53/53 49/49/49
f 51/51/51 54/54/54 52/52/52
f 52/52/52 54/54/54 53/53/53
f 54/54/54 55/55/55 53/53/53
f 58/58/58 57/57/57 56/56/56
f 56/56/56 59/59/59 58/58/58
f 59/59/59 60/60/60 58/58/58
f 59/59/59 61/61/61 60/60/60
f 61/61/61 62/62/62 60/60/60
f 61/61/61 63/63/63 62/62/62
f 63/63/63 64/64/64 62/62/62
f 63/63/63 65/65/65 64/64/64
f 65/65/65 66/66/66 64/64/64
f 65/65/65 67/67/67 66/66/66
f 70/70/70 69/69/69 68/68/68
f 68/68/68 71/71/71 70/70/70
f 71/71/71 72/72/72 70/70/70
f 71/71/71 73/73/73 72/72/72
f 73/73/73 74/74/74 72/72/72
f 73/73/73 75/75/75 74/74/74
f 75/75/75 76/76/76 74/74/74
f 75/75/75 77/77/77 76/76/76
f 77/77/77 78/78/78 76/76/76
f 77/77/77 79/79/79 78/78/78
f 82/82/82 81/81/81 80/80/80
f 83/83/83 82/82/82 80/80/80
f 83/83/83 84/84/84 82/82/82
f 84/84/84 85/85/85 82/82/82
f 86/86/86 84/84/84 83/83/83
f 84/84/84 86/86/86 85/85/85
f 83/83/83 80/80/80 86/86/86
f 86/86/86 87/87/87 85/85/85
f 88/88/88 87/87/87 86/86/86
f 89/89/89 88/88/88 86/86/86
f 80/80/80 89/89/89 86/86/86
f 80/80/80 90/90/90 89/89/89
f 90/90/90 91/91/91 89/89/89
f 90/90/90 92/92/92 91/91/91
f 92/92/92 93/93/93 91/91/91
f 92/92/92 94/94/94 93/93/93
f 97/97/97 96/96/96 95/95/95
f 96/96/96 98/98/98 95/95/95
f 96/96/96 99/99/99 98/98/98
f 99/99/99 100/100/100 98/98/98
f 99/99/99 101/101/101 100/100/100
f 101/101/101 102/102/102 100/100/100
f 101/101/101 103/103/103 102/102/102
f 103/103/103 104/104/104 102/102/102
f 103/103/103 105/105/105 104/104/104
f 105/105/105 106/106/106 104/104/104
f 105/105/105 107/107/107 106/106/106
f 107/107/107 108/108/108 106/106/106
f 111/111/111 110/110/110 109/109/109
f 112/112/112 111/111/111 109/109/109
f 112/112/112 109/109/109 113/113/113
f 114/114/114 112/112/112 113/113/113
f 114/114/114 113/113/113 115/115/115
f 116/116/116 114/114/114 115/115/115
f 116/116/116 115/115/115 117/117/117
f 118/118/118 116/116/116 117/117/117
f 118/118/118 117/117/117 119/119/119
f 120/120/120 118/118/118 119/119/119
f 120/120/120 119/119/119 121/121/121
f 122/122/122 120/120/120 121/121/121
f 125/125/125 124/124/124 123/123/123
f 126/126/126 125/125/125 123/123/123
f 126/126/126 123/123/123 127/127/127
f 128/128/128 126/126/126 127/127/127
f 128/128/128 127/127/127 129/129/129
f 130/130/130 128/128/128 129/129/129
f 130/130/130 129/129/129 131/131/131
f 132/132/132 130/130/130 131/131/131
f 128/128/128 130/130/130 132/132/132
f 132/132/132 131/131/131 133/133/133
f 128/128/128 132/132/132 134/134/134
f 134/134/134 132/132/132 133/133/133
f 126/126/126 128/128/128 134/134/134
f 134/134/134 133/133/133 135/135/135
f 136/136/136 134/134/134 135/135/135
f 126/126/126 134/134/134 136/136/136
f 125/125/125 126/126/126 136/136/136
f 125/125/125 136/136/136 137/137/137
f 138/138/138 125/125/125 137/137/137
f 138/138/138 137/137/137 139/139/139
f 140/140/140 138/138/138 139/139/139
f 139/139/139 141/141/141 140/140/140
f 144/144/144 143/143/143 142/142/142
f 145/145/145 144/144/144 142/142/142
f 145/145/145 142/142/142 146/146/146
f 147/147/147 145/145/145 146/146/146
f 147/147/147 146/146/146 148/148/148
f 149/149/149 147/147/147 148/148/148
f 145/145/145 147/147/147 149/149/149
f 149/149/149 148/148/148 150/150/150
f 145/145/145 149/149/149 151/151/151
f 151/151/151 149/149/149 150/150/150
f 144/144/144 145/145/145 151/151/151
f 151/151/151 150/150/150 152/152/152
f 153/153/153 151/151/151 152/152/152
f 144/144/144 151/151/151 153/153/153
f 154/154/154 144/144/144 153/153/153
f 154/154/154 153/153/153 155/155/155
f 156/156/156 154/154/154 155/155/155
f 156/156/156 155/155/155 157/157/157
f 158/158/158 156/156/156 157/157/157
f 157/157/157 159/159/159 158/158/158
f 162/162/162 161/161/161 160/160/160
f 161/161/161 163/163/163 160/160/160
f 161/161/161 164/164/164 163/163/163
f 164/164/164 165/165/165 163/163/163
f 164/164/164 166/166/166 165/165/165
f 166/166/166 167/167/167 165/165/165
f 166/166/166 168/168/168 167/167/167
f 168/168/168 169/169/169 167/167/167
f 168/168/168 170/170/170 169/169/169
f 170/170/170 171/171/171 169/169/169
f 167/167/167 169/169/169 171/171/171
f 170/170/170 172/172/172 171/171/171
f 171/171/171 173/173/173 167/167/167
f 172/172/172 173/173/173 171/171/171
f 173/173/173 165/165/165 167/167/167
f 172/172/172 174/174/174 173/173/173
f 174/174/174 175/175/175 173/173/173
f 173/173/173 175/175/175 165/165/165
f 175/175/175 163/163/163 165/165/165
f 175/175/175 176/176/176 163/163/163
f 176/176/176 160/160/160 163/163/163
f 176/176/176 177/177/177 160/160/160
f 177/177/177 178/178/178 160/160/160
f 177/177/177 179/179/179 178/178/178
f 182/182/182 181/181/181 180/180/180
f 183/183/183 182/182/182 180/180/180
f 183/183/183 180/180/180 184/184/184
f 185/185/185 183/183/183 184/184/184
f 185/185/185 184/184/184 186/186/186
f 184/184/184 187/187/187 186/186/186
f 186/186/186 187/187/187 188/188/188
f 189/189/189 186/186/186 188/188/188
f 192/192/192 191/191/191 190/190/190
f 193/193/193 192/192/192 190/190/190
f 193/193/193 190/190/190 194/194/194
f 195/195/195 193/193/193 194/194/194
f 195/195/195 194/194/194 196/196/196
f 194/194/194 197/197/197 196/196/196
f 196/196/196 197/197/197 198/198/198
f 199/199/199 196/196/196 198/198/198
f 202/202/202 201/201/201 200/200/200
f 201/201/201 203/203/203 200/200/200
f 201/201/201 204/204/204 203/203/203
f 204/204/204 205/205/205 203/203/203
f 204/204/204 206/206/206 205/205/205
f 206/206/206 207/207/207 205/205/205
f 206/206/206 208/208/208 207/207/207
f 208/208/208 209/209/209 207/207/207
f 212/212/212 211/211/211 210/210/210
f 210/210/210 213/213/213 212/212/212
f 210/210/210 214/214/214 213/213/213
f 214/214/214 215/215/215 213/213/213
f 214/214/214 216/216/216 215/215/215
f 216/216/216 217/217/217 215/215/215
f 220/220/220 219/219/219 218/218/218
f 219/219/219 221/221/221 218/218/218
f 219/219/219 222/222/222 221/221/221
f 222/222/222 223/223/223 221/221/221
f 222/222/222 224/224/224 223/223/223
f 224/224/224 225/225/225 223/223/223
f 226/226/226 225/225/225 224/224/224
f 227/227/227 226/226/226 224/224/224
f 230/230/230 229/229/229 228/228/228
f 229/229/229 231/231/231 228/228/228
f 232/232/232 231/231/231 229/229/229
f 233/233/233 232/232/232 229/229/229
f 233/233/233 234/234/234 232/232/232
f 234/234/234 235/235/235 232/232/232
f 234/234/234 236/236/236 235/235/235
f 236/236/236 237/237/237 235/235/235
f 240/240/240 239/239/239 238/238/238
f 239/239/239 241/241/241 238/238/238
f 242/242/242 241/241/241 239/239/239
f 243/243/243 242/242/242 239/239/239
f 243/243/243 244/244/244 242/242/242
f 244/244/244 245/245/245 242/242/242
f 244/244/244 246/246/246 245/245/245
f 246/246/246 247/247/247 245/245/245
f 250/250/250 249/249/249 248/248/248
f 249/249/249 251/251/251 248/248/248
f 248/248/248 251/251/251 252/252/252
f 253/253/253 248/248/248 252/252/252
f 253/253/253 252/252/252 254/254/254
f 255/255/255 253/253/253 254/254/254
f 255/255/255 254/254/254 256/256/256
f 254/254/254 257/257/257 256/256/256
f 260/260/260 259/259/259 258/258/258
f 261/261/261 260/260/260 258/258/258
f 261/261/261 258/258/258 262/262/262
f 263/263/263 261/261/261 262/262/262
f 263/263/263 262/262/262 264/264/264
f 265/265/265 263/263/263 264/264/264
f 265/265/265 264/264/264 266/266/266
f 267/267/267 265/265/265 266/266/266
f 270/270/270 269/269/269 268/268/268
f 271/271/271 270/270/270 268/268/268
f 271/271/271 268/268/268 272/272/272
f 273/273/273 271/271/271 272/272/272
f 273/273/273 272/272/272 274/274/274
f 275/275/275 273/273/273 274/274/274
f 275/275/275 274/274/274 276/276/276
f 277/277/277 275/275/275 276/276/276
f 280/280/280 279/279/279 278/278/278
f 279/279/279 281/281/281 278/278/278
f 279/279/279 282/282/282 281/281/281
f 282/282/282 283/283/283 281/281/281
f 282/282/282 284/284/284 283/283/283
f 284/284/284 285/285/285 283/283/283
f 284/284/284 286/286/286 285/285/285
f 286/286/286 287/287/287 285/285/285
f 290/290/290 289/289/289 288/288/288
f 291/291/291 290/290/290 288/288/288
f 291/291/291 288/288/288 292/292/292
f 293/293/293 291/291/291 292/292/292
f 293/293/293 292/292/292 294/294/294
f 295/295/295 293/293/293 294/294/294
f 295/295/295 294/294/294 296/296/296
f 297/297/297 295/295/295 296/296/296
f 293/293/293 295/295/295 297/297/297
f 297/297/297 296/296/296 298/298/298
f 297/297/297 299/299/299 293/293/293
f 299/299/299 297/297/297 298/298/298
f 299/299/299 291/291/291 293/293/293
f 299/299/299 298/298/298 300/300/300
f 299/299/299 301/301/301 291/291/291
f 301/301/301 299/299/299 300/300/300
f 301/301/301 290/290/290 291/291/291
f 301/301/301 300/300/300 302/302/302
f 303/303/303 301/301/301 302/302/302
f 301/301/301 303/303/303 290/290/290
f 303/303/303 304/304/304 290/290/290
f 303/303/303 305/305/305 304/304/304
f 305/305/305 306/306/306 304/304/304
f 305/305/305 307/307/307 306/306/306
f 310/310/310 309/309/309 308/308/308
f 309/309/309 311/311/311 308/308/308
f 309/309/309 312/312/312 311/311/311
f 312/312/312 313/313/313 311/311/311
f 312/312/312 314/314/314 313/313/313
f 314/314/314 315/315/315 313/313/313
f 314/314/314 316/316/316 315/315/315
f 316/316/316 317/317/317 315/315/315
f 313/313/313 315/315/315 317/317/317
f 316/316/316 318/318/318 317/317/317
f 318/318/318 319/319/319 317/317/317
f 313/313/313 317/317/317 319/319/319
f 311/311/311 313/313/313 319/319/319
f 311/311/311 319/319/319 320/320/320
f 308/308/308 311/311/311 320/320/320
f 308/308/308 320/320/320 321/321/321
f 322/322/322 308/308/308 321/321/321
f 322/322/322 321/321/321 323/323/323
f 324/324/324 322/322/322 323/323/323
f 323/323/323 325/325/325 324/324/324
f 328/328/328 327/327/327 326/326/326
f 329/329/329 328/328/328 326/326/326
f 329/329/329 326/326/326 330/330/330
f 331/331/331 329/329/329 330/330/330
f 331/331/331 330/330/330 332/332/332
f 333/333/333 331/331/331 332/332/332
f 333/333/333 332/332/332 334/334/334
f 335/335/335 333/333/333 334/334/334
f 331/331/331 333/333/333 335/335/335
f 335/335/335 334/334/334 336/336/336
f 335/335/335 337/337/337 331/331/331
f 337/337/337 335/335/335 336/336/336
f 337/337/337 329/329/329 331/331/331
f 337/337/337 336/336/336 338/338/338
f 337/337/337 339/339/339 329/329/329
f 339/339/339 337/337/337 338/338/338
f 339/339/339 328/328/328 329/329/329
f 339/339/339 338/338/338 340/340/340
f 341/341/341 339/339/339 340/340/340
f 339/339/339 341/341/341 328/328/328
f 341/341/341 342/342/342 328/328/328
f 341/341/341 343/343/343 342/342/342
f 343/343/343 344/344/344 342/342/342
f 343/343/343 345/345/345 344/344/344
f 348/348/348 347/347/347 346/346/346
f 347/347/347 349/349/349 346/346/346
f 347/347/347 350/350/350 349/349/349
f 350/350/350 351/351/351 349/349/349
f 350/350/350 352/352/352 351/351/351
f 352/352/352 353/353/353 351/351/351
f 352/352/352 354/354/354 353/353/353
f 354/354/354 355/355/355 353/353/353
f 351/351/351 353/353/353 355/355/355
f 354/354/354 356/356/356 355/355/355
f 356/356/356 357/357/357 355/355/355
f 351/351/351 355/355/355 357/357/357
f 349/349/349 351/351/351 357/357/357
f 349/349/349 357/357/357 358/358/358
f 346/346/346 349/349/349 358/358/358
f 346/346/346 358/358/358 359/359/359
f 360/360/360 346/346/346 359/359/359
f 360/360/360 359/359/359 361/361/361
f 362/362/362 360/360/360 361/361/361
f 361/361/361 363/363/363 362/362/362
f 366/366/366 365/365/365 364/364/364
f 367/367/367 366/366/366 364/364/364
f 367/367/367 368/368/368 366/366/366
f 368/368/368 369/369/369 366/366/366
f 370/370/370 367/367/367 364/364/364
f 368/368/368 367/367/367 370/370/370
f 368/368/368 371/371/371 369/369/369
f 371/371/371 372/372/372 369/369/369
f 371/371/371 373/373/373 372/372/372
f 373/373/373 374/374/374 372/372/372
f 375/375/375 371/371/371 368/368/368
f 373/373/373 371/371/371 375/375/375
f 376/376/376 370/370/370 364/364/364
f 376/376/376 364/364/364 377/377/377
f 378/378/378 376/376/376 377/377/377
f 376/376/376 378/378/378 379/379/379
f 380/380/380 376/376/376 379/379/379
f 370/370/370 376/376/376 380/380/380
f 380/380/380 379/379/379 381/381/381
f 382/382/382 368/368/368 370/370/370
f 382/382/382 375/375/375 368/368/368
f 383/383/383 370/370/370 380/380/380
f 382/382/382 370/370/370 383/383/383
f 384/384/384 380/380/380 381/381/381
f 383/383/383 380/380/380 384/384/384
f 385/385/385 382/382/382 383/383/383
f 375/375/375 382/382/382 385/385/385
f 386/386/386 384/384/384 381/381/381
f 387/387/387 386/386/386 381/381/381
f 388/388/388 383/383/383 384/384/384
f 385/385/385 383/383/383 388/388/388
f 389/389/389 386/386/386 387/387/387
f 390/390/390 389/389/389 387/387/387
f 386/386/386 391/391/391 384/384/384
f 391/391/391 388/388/388 384/384/384
f 389/389/389 392/392/392 386/386/386
f 392/392/392 391/391/391 386/386/386
f 393/393/393 389/389/389 390/390/390
f 394/394/394 393/393/393 390/390/390
f 395/395/395 392/392/392 389/389/389
f 393/393/393 395/395/395 389/389/389
f 396/396/396 393/393/393 394/394/394
f 397/397/397 396/396/396 394/394/394
f 398/398/398 396/396/396 397/397/397
f 399/399/399 398/398/398 397/397/397
f 398/398/398 400/400/400 396/396/396
f 396/396/396 401/401/401 393/393/393
f 400/400/400 401/401/401 396/396/396
f 401/401/401 395/395/395 393/393/393
f 400/400/400 402/402/402 401/401/401
f 402/402/402 403/403/403 401/401/401
f 401/401/401 403/403/403 395/395/395
f 402/402/402 404/404/404 403/403/403
f 395/395/395 405/405/405 392/392/392
f 403/403/403 405/405/405 395/395/395
f 404/404/404 406/406/406 403/403/403
f 403/403/403 406/406/406 405/405/405
f 404/404/404 407/407/407 406/406/406
f 405/405/405 408/408/408 392/392/392
f 392/392/392 408/408/408 391/391/391
f 406/406/406 409/409/409 405/405/405
f 405/405/405 409/409/409 408/408/408
f 407/407/407 410/410/410 406/406/406
f 407/407/407 411/411/411 410/410/410
f 411/411/411 412/412/412 410/410/410
f 410/410/410 413/413/413 406/406/406
f 413/413/413 409/409/409 406/406/406
f 410/410/410 412/412/412 413/413/413
f 408/408/408 414/414/414 391/391/391
f 391/391/391 414/414/414 388/388/388
f 409/409/409 415/415/415 408/408/408
f 408/408/408 415/415/415 414/414/414
f 413/413/413 416/416/416 409/409/409
f 416/416/416 415/415/415 409/409/409
f 412/412/412 417/417/417 413/413/413
f 413/413/413 417/417/417 416/416/416
f 414/414/414 418/418/418 388/388/388
f 418/418/418 385/385/385 388/388/388
f 415/415/415 419/419/419 414/414/414
f 415/415/415 416/416/416 419/419/419
f 414/414/414 419/419/419 418/418/418
f 420/420/420 417/417/417 412/412/412
f 421/421/421 420/420/420 412/412/412
f 420/420/420 422/422/422 417/417/417
f 422/422/422 423/423/423 417/417/417
f 417/417/417 423/423/423 416/416/416
f 422/422/422 424/424/424 423/423/423
f 425/425/425 385/385/385 418/418/418
f 425/425/425 375/375/375 385/385/385
f 416/416/416 426/426/426 419/419/419
f 416/416/416 423/423/423 426/426/426
f 424/424/424 427/427/427 423/423/423
f 423/423/423 427/427/427 426/426/426
f 424/424/424 428/428/428 427/427/427
f 419/419/419 429/429/429 418/418/418
f 419/419/419 426/426/426 429/429/429
f 429/429/429 425/425/425 418/418/418
f 430/430/430 375/375/375 425/425/425
f 430/430/430 373/373/373 375/375/375
f 428/428/428 431/431/431 427/427/427
f 428/428/428 432/432/432 431/431/431
f 426/426/426 427/427/427 433/433/433
f 426/426/426 433/433/433 429/429/429
f 427/427/427 431/431/431 433/433/433
f 434/434/434 425/425/425 429/429/429
f 434/434/434 430/430/430 425/425/425
f 433/433/433 434/434/434 429/429/429
f 430/430/430 435/435/435 373/373/373
f 435/435/435 430/430/430 434/434/434
f 435/435/435 436/436/436 373/373/373
f 432/432/432 437/437/437 431/431/431
f 431/431/431 437/437/437 433/433/433
f 437/437/437 434/434/434 433/433/433
f 437/437/437 435/435/435 434/434/434
f 432/432/432 438/438/438 437/437/437
f 438/438/438 435/435/435 437/437/437
f 441/441/441 440/440/440 439/439/439
f 440/440/440 442/442/442 439/439/439
f 439/439/439 442/442/442 443/443/443
f 444/444/444 439/439/439 443/443/443
f 445/445/445 444/444/444 443/443/443
f 446/446/446 445/445/445 443/443/443
f 447/447/447 446/446/446 443/443/443
f 448/448/448 443/443/443 442/442/442
f 448/448/448 442/442/442 440/440/440
f 449/449/449 447/447/447 443/443/443
f 450/450/450 447/447/447 449/449/449
f 451/451/451 450/450/450 449/449/449
f 451/451/451 449/449/449 452/452/452
f 453/453/453 451/451/451 452/452/452
f 454/454/454 448/448/448 440/440/440
f 454/454/454 440/440/440 455/455/455
f 456/456/456 454/454/454 455/455/455
f 456/456/456 457/457/457 454/454/454
f 457/457/457 456/456/456 458/458/458
f 454/454/454 459/459/459 448/448/448
f 457/457/457 459/459/459 454/454/454
f 460/460/460 449/449/449 443/443/443
f 449/449/449 460/460/460 452/452/452
f 461/461/461 457/457/457 458/458/458
f 461/461/461 458/458/458 462/462/462
f 459/459/459 463/463/463 448/448/448
f 448/448/448 463/463/463 443/443/443
f 464/464/464 463/463/463 459/459/459
f 464/464/464 443/443/443 463/463/463
f 465/465/465 459/459/459 457/457/457
f 465/465/465 464/464/464 459/459/459
f 466/466/466 457/457/457 461/461/461
f 466/466/466 465/465/465 457/457/457
f 460/460/460 443/443/443 467/467/467
f 464/464/464 468/468/468 443/443/443
f 468/468/468 467/467/467 443/443/443
f 460/460/460 467/467/467 469/469/469
f 469/469/469 467/467/467 468/468/468
f 452/452/452 460/460/460 469/469/469
f 468/468/468 464/464/464 470/470/470
f 464/464/464 465/465/465 470/470/470
f 470/470/470 469/469/469 468/468/468
f 452/452/452 469/469/469 471/471/471
f 471/471/471 469/469/469 470/470/470
f 470/470/470 465/465/465 472/472/472
f 465/465/465 466/466/466 472/472/472
f 472/472/472 471/471/471 470/470/470
f 472/472/472 466/466/466 473/473/473
f 471/471/471 472/472/472 473/473/473
f 474/474/474 466/466/466 461/461/461
f 466/466/466 474/474/474 473/473/473
f 475/475/475 452/452/452 471/471/471
f 475/475/475 453/453/453 452/452/452
f 476/476/476 471/471/471 473/473/473
f 475/475/475 471/471/471 476/476/476
f 453/453/453 475/475/475 477/477/477
f 477/477/477 475/475/475 476/476/476
f 478/478/478 453/453/453 477/477/477
f 476/476/476 473/473/473 479/479/479
f 473/473/473 474/474/474 479/479/479
f 474/474/474 461/461/461 480/480/480
f 480/480/480 461/461/461 462/462/462
f 478/478/478 477/477/477 481/481/481
f 482/482/482 478/478/478 481/481/481
f 477/477/477 476/476/476 483/483/483
f 483/483/483 476/476/476 479/479/479
f 481/481/481 477/477/477 483/483/483
f 484/484/484 474/474/474 480/480/480
f 474/474/474 484/484/484 479/479/479
f 485/485/485 480/480/480 462/462/462
f 484/484/484 480/480/480 485/485/485
f 486/486/486 485/485/485 462/462/462
f 482/482/482 481/481/481 487/487/487
f 488/488/488 482/482/482 487/487/487
f 481/481/481 483/483/483 489/489/489
f 489/489/489 483/483/483 479/479/479
f 487/487/487 481/481/481 489/489/489
f 479/479/479 484/484/484 490/490/490
f 490/490/490 489/489/489 479/479/479
f 491/491/491 485/485/485 486/486/486
f 492/492/492 491/491/491 486/486/486
f 493/493/493 484/484/484 485/485/485
f 484/484/484 493/493/493 490/490/490
f 493/493/493 485/485/485 491/491/491
f 488/488/488 487/487/487 494/494/494
f 495/495/495 488/488/488 494/494/494
f 496/496/496 495/495/495 494/494/494
f 487/487/487 489/489/489 497/497/497
f 497/497/497 489/489/489 490/490/490
f 494/494/494 487/487/487 497/497/497
f 498/498/498 491/491/491 492/492/492
f 499/499/499 498/498/498 492/492/492
f 490/490/490 493/493/493 500/500/500
f 500/500/500 497/497/497 490/490/490
f 501/501/501 493/493/493 491/491/491
f 501/501/501 491/491/491 498/498/498
f 493/493/493 501/501/501 500/500/500
f 502/502/502 496/496/496 494/494/494
f 503/503/503 496/496/496 502/502/502
f 494/494/494 497/497/497 504/504/504
f 504/504/504 497/497/497 500/500/500
f 502/502/502 494/494/494 504/504/504
f 505/505/505 498/498/498 499/499/499
f 506/506/506 505/505/505 499/499/499
f 507/507/507 501/501/501 498/498/498
f 507/507/507 498/498/498 505/505/505
f 500/500/500 501/501/501 508/508/508
f 508/508/508 504/504/504 500/500/500
f 501/501/501 507/507/507 508/508/508
f 509/509/509 503/503/503 502/502/502
f 510/510/510 503/503/503 509/509/509
f 502/502/502 504/504/504 511/511/511
f 511/511/511 504/504/504 508/508/508
f 509/509/509 502/502/502 511/511/511
f 508/508/508 507/507/507 512/512/512
f 512/512/512 511/511/511 508/508/508
f 513/513/513 507/507/507 505/505/505
f 507/507/507 513/513/513 512/512/512
f 511/511/511 512/512/512 514/514/514
f 512/512/512 513/513/513 514/514/514
f 509/509/509 511/511/511 515/515/515
f 515/515/515 511/511/511 514/514/514
f 516/516/516 510/510/510 509/509/509
f 516/516/516 509/509/509 515/515/515
f 517/517/517 510/510/510 516/516/516
f 516/516/516 515/515/515 517/517/517
f 517/517/517 515/515/515 514/514/514
f 517/517/517 518/518/518 510/510/510
f 517/517/517 519/519/519 518/518/518
f 517/517/517 520/520/520 519/519/519
f 517/517/517 521/521/521 520/520/520
f 517/517/517 522/522/522 521/521/521
f 517/517/517 523/523/523 522/522/522
f 513/513/513 524/524/524 514/514/514
f 517/517/517 514/514/514 524/524/524
f 524/524/524 513/513/513 525/525/525
f 524/524/524 525/525/525 517/517/517
f 513/513/513 505/505/505 525/525/525
f 525/525/525 505/505/505 506/506/506
f 506/506/506 526/526/526 523/523/523
f 527/527/527 523/523/523 517/517/517
f 517/517/517 525/525/525 527/527/527
f 527/527/527 525/525/525 506/506/506
f 527/527/527 506/506/506 523/523/523
f 530/530/530 529/529/529 528/528/528
f 531/531/531 530/530/530 528/528/528
f 530/530/530 532/532/532 529/529/529
f 531/531/531 528/528/528 533/533/533
f 532/532/532 534/534/534 529/529/529
f 535/535/535 531/531/531 533/533/533
f 532/532/532 536/536/536 534/534/534
f 535/535/535 533/533/533 537/537/537
f 536/536/536 538/538/538 534/534/534
f 539/539/539 535/535/535 537/537/537
f 536/536/536 540/540/540 538/538/538
f 539/539/539 537/537/537 541/541/541
f 540/540/540 542/542/542 538/538/538
f 543/543/543 539/539/539 541/541/541
f 540/540/540 544/544/544 542/542/542
f 543/543/543 541/541/541 545/545/545
f 544/544/544 546/546/546 542/542/542
f 547/547/547 543/543/543 545/545/545
f 544/544/544 548/548/548 546/546/546
f 547/547/547 545/545/545 549/549/549
f 548/548/548 550/550/550 546/546/546
f 551/551/551 547/547/547 549/549/549
f 551/551/551 549/549/549 550/550/550
f 548/548/548 551/551/551 550/550/550
f 554/554/554 553/553/553 552/552/552
f 555/555/555 554/554/554 552/552/552
f 554/554/554 556/556/556 553/553/553
f 555/555/555 552/552/552 557/557/557
f 558/558/558 555/555/555 557/557/557
f 556/556/556 559/559/559 553/553/553
f 556/556/556 560/560/560 559/559/559
f 560/560/560 561/561/561 559/559/559
f 553/553/553 559/559/559 561/561/561
f 560/560/560 562/562/562 561/561/561
f 561/561/561 563/563/563 553/553/553
f 562/562/562 563/563/563 561/561/561
f 563/563/563 552/552/552 553/553/553
f 562/562/562 564/564/564 563/563/563
f 563/563/563 565/565/565 552/552/552
f 564/564/564 565/565/565 563/563/563
f 565/565/565 557/557/557 552/552/552
f 564/564/564 566/566/566 565/565/565
f 566/566/566 567/567/567 565/565/565
f 565/565/565 567/567/567 557/557/557
f 566/566/566 568/568/568 567/567/567
f 558/558/558 557/557/557 569/569/569
f 567/567/567 569/569/569 557/557/557
f 570/570/570 558/558/558 569/569/569
f 568/568/568 571/571/571 567/567/567
f 567/567/567 571/571/571 569/569/569
f 568/568/568 572/572/572 571/571/571
f 570/570/570 569/569/569 573/573/573
f 571/571/571 573/573/573 569/569/569
f 574/574/574 570/570/570 573/573/573
f 572/572/572 575/575/575 571/571/571
f 571/571/571 575/575/575 573/573/573
f 574/574/574 573/573/573 575/575/575
f 572/572/572 574/574/574 575/575/575
