g Body
v -0.09718372 0.5897593 0.3758253
v -0.1019187 0.5956688 0.383789
v -0.09846106 0.6125226 0.01115885
v -0.1096954 0.1397131 0.3983969
v -0.03228278 0.1292085 0.3983979
v -0.06096613 0.5696676 0.4092491
v 0.2645558 0.08880571 -0.3983628
v 0.3319508 0.516206 -0.4092188
v 0.2902476 0.08597669 -0.3875858
v -0.09846106 0.6125226 0.01115885
v -0.1023142 0.5957452 -0.3843732
v -0.0973136 0.5897123 -0.3759944
v 0.1184264 -0.03754762 0.6499061
v 0.08828548 -0.2591727 0.6303002
v -0.03774211 -0.2420385 0.6303815
v -0.007601261 -0.0204157 0.6500248
v 0.1425796 0.1400495 0.6610752
v 0.01655298 0.1571888 0.6611925
v 0.03851695 0.3186885 0.6472567
v 0.1645396 0.3015197 0.6471442
v 0.1734883 0.3757361 0.607513
v 0.04746889 0.3929236 0.6076885
v 0.1763691 0.4040368 0.5713698
v 0.05030106 0.4207447 0.5721926
v 0.1674422 0.4216109 0.5507867
v 0.1424565 0.4317552 0.5423498
v 0.08964047 0.4389588 0.5424502
v 0.06284551 0.4356786 0.5512263
v 0.1994959 0.3206348 0.7239096
v 0.4078777 0.2870069 0.7071826
v 0.1759389 0.1494825 0.7429581
v 0.3852372 0.1204471 0.7253924
v 0.1501391 -0.05612436 0.729275
v 0.3574006 -0.08429775 0.711885
v 0.1055884 -0.39318 0.711121
v 0.4933265 0.2542582 0.6422228
v 0.4731236 0.1059332 0.6572809
v 0.504675 0.3377818 0.5994963
v 0.4214669 0.3899979 0.6543545
v 0.5136615 0.403983 0.5340184
v 0.4319932 0.4708958 0.5728664
v 0.4378254 0.5132349 0.4702739
v 0.5195173 0.4466653 0.4496931
v 0.5209137 0.4585266 0.4095955
v 0.5505526 0.2697674 0.5152264
v 0.556301 0.311897 0.4729149
v 0.5290195 0.0942497 0.4095955
v 0.5607152 0.3445558 0.417874
v 0.5431235 0.2152322 0.5431629
v 0.5617665 0.3483184 0.4095955
v 0.5272862 0.09458801 0.5510753
v 0.5617608 0.3484105 0.01114775
v 0.521 0.4585364 0.01114809
v 0.5209302 0.4585418 -0.4095822
v 0.4452386 -0.09698924 0.6441445
v 0.4999481 -0.1058868 0.5406948
v 0.3127374 -0.4207664 0.6940666
v 0.4004025 -0.4320923 0.6267701
v 0.2994331 -0.4603041 0.6759552
v 0.5290195 0.09424964 0.01114729
v 0.5290195 0.09424964 -0.4095822
v 0.561769 0.3483849 -0.4095821
v 0.5018243 -0.1057148 -0.4095821
v 0.5018243 -0.1057147 0.01114727
v 0.4576353 -0.4387416 0.01114727
v 0.5018243 -0.1057147 0.4095954
v 0.4556997 -0.4389119 0.5269459
v 0.5194694 0.4461234 -0.4490347
v 0.4378969 0.5132055 -0.4701948
v 0.5607476 0.3449734 -0.4168769
v 0.5136696 0.4038064 -0.5330322
v 0.4320365 0.4705767 -0.5731109
v 0.4210384 0.3897094 -0.6547225
v 0.5564113 0.3128599 -0.4717433
v 0.5047043 0.3378852 -0.5995602
v 0.4933303 0.2542993 -0.6423497
v 0.4070832 0.287119 -0.7072142
v 0.3844441 0.1205547 -0.7254259
v 0.5505546 0.2697965 -0.5152032
v 0.5431288 0.2152286 -0.5431527
v 0.4731226 0.1059385 -0.6574139
v 0.5272903 0.0945873 -0.5510672
v 0.3566184 -0.08418491 -0.7119175
v -0.2213988 0.2029682 -0.7264867
v -0.2492719 -0.001853976 -0.712985
v -0.2939295 -0.3383233 -0.6951683
v 0.4999525 -0.105887 -0.5406867
v 0.4452376 -0.09698674 -0.644273
v 0.3119638 -0.4206546 -0.6940985
v 0.4004008 -0.4320926 -0.6268929
v 0.2986799 -0.4601917 -0.6758842
v -0.3020348 -0.4378195 -0.6766679
v 0.4557043 -0.4389121 -0.5269378
v 0.2845748 -0.4935554 -0.6534803
v -0.2973197 -0.4914888 -0.6542153
v 0.3862261 -0.4656062 -0.6104631
v 0.4576353 -0.4387416 -0.409582
v 0.3669857 -0.4951805 -0.5925796
v 0.441038 -0.4687735 -0.513266
v 0.4428547 -0.4691314 -0.3991326
v 0.4190705 -0.4960393 -0.5006617
v 0.2649902 -0.5219206 -0.6299115
v 0.3373854 -0.5224084 -0.577717
v 0.3845402 -0.5226601 -0.4948411
v 0.4209521 -0.49619 -0.3909799
v 0.4428566 -0.4691328 0.01106694
v -0.294185 -0.5213047 -0.6305687
v -0.3907231 -0.4904491 -0.5912589
v -0.3741481 -0.5209849 -0.5748744
v 0.3120103 -0.5300424 -0.5568806
v 0.2526301 -0.5300424 -0.5974318
v -0.285434 -0.5300416 -0.5986714
v -0.3490266 -0.5300415 -0.5531208
v -0.4087809 -0.5208289 -0.4937097
v -0.3766877 -0.5300415 -0.4866062
v -0.4095463 -0.5207981 -0.3909457
v -0.3772454 -0.5300415 -0.3909333
v -0.4095435 -0.5207983 0.01100408
v -0.3772433 -0.5300415 0.01100407
v 0.3527852 -0.5300425 -0.4866679
v -0.4095463 -0.5207981 0.3916536
v -0.3772454 -0.5300415 0.3916411
v -0.3766877 -0.5300415 0.4872555
v -0.4087794 -0.5208291 0.4943854
v -0.3490604 -0.5300415 0.5534815
v -0.3741708 -0.5209891 0.5752143
v 0.386583 -0.5227084 -0.3909293
v 0.3550026 -0.5300425 -0.3909119
v 0.3550107 -0.5300425 0.01100392
v 0.3865886 -0.5227085 0.01100392
v 0.3550026 -0.5300425 0.3916194
v -0.2837674 -0.5300416 0.6001506
v 0.3120554 -0.5300424 0.5572849
v 0.4209556 -0.4961905 0.01100391
v 0.3865829 -0.5227084 0.3916368
v 0.3527778 -0.5300425 0.4873151
v 0.4209521 -0.49619 0.3916874
v 0.3845343 -0.5226597 0.4955166
v 0.4428547 -0.4691314 0.3995348
v -0.2937139 -0.52129 0.6313927
v -0.3907345 -0.4904629 0.5916005
v -0.2977378 -0.4914409 0.6546133
v -0.1055173 -0.5214788 0.6461251
v 0.3374115 -0.5224171 0.5780966
v 0.4190659 -0.4960381 0.501357
v 0.4576353 -0.4387416 0.4095953
v 0.441034 -0.4687711 0.5136631
v 0.3669895 -0.4952101 0.5929701
v 0.3862167 -0.4656557 0.610594
v 0.2850468 -0.4936426 0.6540931
v 0.2647319 -0.521952 0.631386
v 0.09385651 -0.4515904 0.6924507
v -0.08773473 -0.366888 0.7111211
v 0.08691423 -0.492301 0.6699433
v -0.0978919 -0.4451115 0.6923363
v -0.2947083 -0.3382239 0.6951357
v -0.3027938 -0.4377187 0.6766559
v -0.09987465 -0.4920477 0.669813
v 0.07691769 -0.5215566 0.646385
v 0.2513251 -0.5300424 0.6001057
v 0.0743456 -0.5300421 0.6143473
v -0.1053803 -0.5300419 0.6139807
v -0.04283316 -0.02988008 0.7292753
v -0.04316575 -0.2703187 0.7025301
v -0.008167729 -0.02457753 0.7183682
v 0.01658518 0.1574284 0.7296819
v -0.01283269 0.1751555 0.7429605
v 0.04112028 0.3378337 0.7127623
v 0.01017932 0.3463816 0.7239118
v 0.05360939 0.4365454 0.663071
v 0.02359797 0.4538489 0.669283
v 0.04112028 0.3378337 0.7127623
v 0.03851695 0.3186885 0.6472567
v 0.01658518 0.1574284 0.7296819
v 0.01655298 0.1571888 0.6611925
v -0.008167729 -0.02457753 0.7183682
v -0.007601261 -0.0204157 0.6500248
v -0.03774211 -0.2420385 0.6303815
v -0.04316575 -0.2703187 0.7025301
v 0.08286897 -0.2874077 0.7024705
v 0.08828548 -0.2591727 0.6303002
v 0.1178664 -0.04166779 0.7182515
v 0.1184264 -0.03754762 0.6499061
v 0.1425796 0.1400495 0.6610752
v 0.1426177 0.1403269 0.7295651
v 0.1645396 0.3015197 0.6471442
v 0.1671443 0.3206696 0.7126483
v 0.1734883 0.3757361 0.607513
v 0.1796331 0.4193825 0.6628932
v 0.1849047 0.4663604 0.6066928
v 0.1763691 0.4040368 0.5713698
v 0.1674422 0.4216109 0.5507867
v 0.1761884 0.4847131 0.5864864
v 0.1424565 0.4317552 0.5423498
v 0.1512462 0.4951895 0.5781936
v 0.09842145 0.5023766 0.5783026
v 0.08964047 0.4389588 0.5424502
v 0.07158772 0.4987995 0.586867
v 0.06284551 0.4356786 0.5512263
v 0.05883954 0.4831531 0.6073543
v 0.05030106 0.4207447 0.5721926
v 0.04746889 0.3929236 0.6076885
v 0.03851695 0.3186885 0.6472567
v 0.04112028 0.3378337 0.7127623
v 0.05360939 0.4365454 0.663071
v 0.05883954 0.4831531 0.6073543
v 0.05030106 0.4207447 0.5721926
v -0.04316575 -0.2703187 0.7025301
v 0.08286897 -0.2874077 0.7024705
v -0.08773473 -0.366888 0.7111211
v 0.1055884 -0.39318 0.711121
v 0.1501391 -0.05612436 0.729275
v 0.1178664 -0.04166779 0.7182515
v 0.1426177 0.1403269 0.7295651
v 0.1759389 0.1494825 0.7429581
v 0.1671443 0.3206696 0.7126483
v 0.1994959 0.3206348 0.7239096
v 0.1796331 0.4193825 0.6628932
v 0.2138354 0.4279888 0.6691055
v 0.4078777 0.2870069 0.7071826
v 0.4214669 0.3899979 0.6543545
v 0.1849047 0.4663604 0.6066928
v 0.223931 0.5013907 0.5509111
v 0.1761884 0.4847131 0.5864864
v 0.4319932 0.4708958 0.5728664
v 0.1512462 0.4951895 0.5781936
v 0.03060187 0.527747 0.5511322
v 0.09842145 0.5023766 0.5783026
v 0.07158772 0.4987995 0.586867
v 0.05883954 0.4831531 0.6073543
v 0.4378254 0.5132349 0.4702739
v 0.02359797 0.4538489 0.669283
v 0.05360939 0.4365454 0.663071
v 0.1651293 0.5507905 0.4703767
v 0.3514971 0.5323623 0.4205751
v 0.1119251 0.5581179 0.4703968
v 0.1110293 0.5651867 0.4414707
v -0.07556203 0.5905035 0.4205751
v -0.1678663 0.596651 0.4705023
v -0.1735762 0.5541734 0.5733854
v 0.1688961 0.5572578 0.4417371
v -0.1850438 0.4731013 0.6552004
v -0.2832175 0.5123777 0.5332185
v -0.1994949 0.3699067 0.7081833
v 0.01017932 0.3463816 0.7239118
v -0.01283269 0.1751555 0.7429605
v -0.2922721 0.4458901 0.5991054
v -0.2221954 0.2030768 0.7264524
v -0.04283316 -0.02988008 0.7292753
v -0.303623 0.3625183 0.6417711
v -0.2500592 -0.001753304 0.7129517
v -0.2947083 -0.3382239 0.6951357
v -0.3237548 0.2143033 0.6568038
v -0.3510931 0.01133331 0.6436608
v -0.3511516 0.3362908 0.5412263
v -0.3952298 -0.3238644 0.6262786
v -0.3027938 -0.4377187 0.6766559
v -0.3678063 0.2162965 0.5495383
v -0.3689102 0.2159297 0.4096222
v -0.3950079 0.01591888 0.5391444
v -0.3438275 0.3902105 0.5135774
v -0.3380461 0.4328072 0.4705499
v -0.402101 -0.4331113 0.6097853
v -0.2977378 -0.4914409 0.6546133
v -0.3907345 -0.4904629 0.5916005
v -0.4391584 -0.3171189 0.5253853
v -0.2775045 0.5547839 0.4490933
v -0.4454846 -0.4309507 0.5119433
v -0.3960801 0.01615116 0.4096222
v -0.3336659 0.4660222 0.412931
v -0.3334604 0.4686024 0.01114694
v -0.2757272 0.5664383 0.4096223
v -0.4312066 -0.4899459 0.4998258
v -0.3741708 -0.5209891 0.5752143
v -0.4087794 -0.5208291 0.4943854
v -0.4402358 -0.316631 0.409622
v -0.4402358 -0.316631 0.01114746
v -0.4465344 -0.430749 0.3995003
v -0.4321705 -0.4898492 0.3916854
v -0.4095463 -0.5207981 0.3916536
v -0.4095435 -0.5207983 0.01100408
v -0.4465315 -0.4307502 0.01106712
v -0.4321673 -0.4898498 0.01100408
v -0.4095463 -0.5207981 -0.3909457
v -0.4321705 -0.4898492 -0.3909775
v -0.4087809 -0.5208289 -0.4937097
v -0.4465344 -0.430749 -0.3990976
v -0.4312094 -0.4899453 -0.4991304
v -0.3741481 -0.5209849 -0.5748744
v -0.3907231 -0.4904491 -0.5912589
v -0.4454879 -0.4309494 -0.511546
v -0.4402358 -0.316631 -0.4096082
v -0.4020936 -0.4330918 -0.6097285
v -0.2973197 -0.4914888 -0.6542153
v -0.3020348 -0.4378195 -0.6766679
v -0.4391618 -0.3171181 -0.5253769
v -0.3952248 -0.3238658 -0.6264264
v -0.2939295 -0.3383233 -0.6951683
v -0.3961926 0.0153239 -0.4096083
v -0.3510878 0.0113354 -0.6438159
v -0.2492719 -0.001853976 -0.712985
v -0.3951888 0.01461365 -0.5390674
v -0.3691081 0.2144744 -0.4096084
v -0.368124 0.2139958 -0.5494057
v -0.3961323 0.01576742 0.01114746
v -0.3237509 0.2143053 -0.6569605
v -0.2213988 0.2029682 -0.7264867
v -0.369002 0.2152546 0.01114746
v -0.3511592 0.3362839 -0.5412108
v -0.3036132 0.3625633 -0.6419202
v -0.3438234 0.3902234 -0.5135726
v -0.1986957 0.3698022 -0.7082157
v 0.3844441 0.1205547 -0.7254259
v 0.4070832 0.287119 -0.7072142
v -0.1847012 0.4727098 -0.6555764
v 0.4210384 0.3897094 -0.6547225
v -0.2922667 0.4460024 -0.5992128
v -0.3381373 0.4320344 -0.4717895
v -0.1737142 0.5537479 -0.5738301
v 0.4320365 0.4705767 -0.5731109
v -0.167953 0.5965911 -0.4705981
v 0.4378969 0.5132055 -0.4701948
v -0.2833751 0.5114754 -0.5333202
v -0.3336623 0.4659878 -0.4134629
v -0.2776534 0.5539743 -0.449369
v -0.2757436 0.566402 -0.4096084
v -0.2758217 0.5664524 0.01114659
v -0.166856 0.6041669 -0.4096084
v -0.1658584 0.6108826 0.01115802
v -0.1668587 0.6041788 0.4096224
v -0.1369438 0.6046877 0.4096227
v -0.118906 0.6022243 -0.4096088
v -0.07565479 0.590535 -0.4324215
v -0.09660742 0.5943683 0.4025906
v -0.1019187 0.5956688 0.383789
v -0.08839954 0.5876436 0.3997806
v -0.09718372 0.5897593 0.3758253
v -0.06431513 0.582659 0.4095419
v -0.09846106 0.6125226 0.01115885
v 0.05417046 0.5710548 0.4205752
v 0.04711634 0.5674287 0.4127975
v 0.07325277 0.5640982 0.4017904
v -0.1023142 0.5957452 -0.3843732
v 0.08116481 0.5666122 0.4090476
v -0.09659693 0.5943451 -0.402583
v -0.08839503 0.5876203 -0.399776
v -0.0973136 0.5897123 -0.3759944
v -0.06433842 0.5826828 -0.409534
v 0.04966931 0.5655617 -0.4096879
v 0.094533 0.5665228 0.3752658
v 0.08445289 0.5640867 0.3734498
v 0.108678 0.5628273 0.4098452
v 0.1401834 0.5585055 0.4098354
v 0.1415836 0.5789192 0.01116746
v 0.08742192 0.5863116 0.01116727
v 0.07742189 0.5837656 0.0111672
v 0.08448714 0.5640422 -0.3734773
v 0.09457096 0.5664855 -0.3752514
v 0.07331295 0.5641401 -0.4018671
v 0.0813328 0.5666564 -0.4092425
v 0.140219 0.558567 -0.4098577
v 0.0636019 0.5690693 -0.4326121
v 0.216868 0.5481677 -0.4325942
v 0.1863293 0.5539627 -0.3752276
v 0.1992991 0.5505799 -0.4090498
v 0.229338 0.5410604 -0.4096662
v 0.2062249 0.5460055 -0.401794
v 0.1953825 0.548897 -0.3734539
v 0.3516254 0.5323653 -0.4323968
v 0.3386484 0.5278034 -0.4095101
v 0.1985315 0.5711452 0.01116767
v 0.2074787 0.5660055 0.01116773
v 0.1953789 0.5489389 0.3734039
v 0.1863126 0.5540012 0.3751653
v 0.1398124 0.5585564 0.4098355
v 0.2061196 0.5459484 0.4018203
v 0.3728276 0.5304517 -0.4025523
v 0.3631477 0.5261365 -0.3997486
v 0.396432 0.5321707 -0.4095826
v 0.3783107 0.530226 -0.3837559
v 0.3721857 0.5257555 -0.3757991
v 0.1716951 0.5541826 0.4098256
v 0.1990442 0.5504969 0.4092009
v 0.2262722 0.5475655 0.4205752
v 0.2322028 0.5421637 0.4127555
v 0.3385904 0.5277897 0.4095177
v 0.3631297 0.5261611 0.3997534
v 0.3795099 0.5472709 0.01115849
v 0.3695837 0.5444924 0.01115328
v 0.3722761 0.5258625 0.3759595
v 0.378695 0.5303442 0.3843318
v 0.372816 0.5304738 0.4025601
v 0.4054123 0.5309561 0.4095959
v 0.4396801 0.5280033 0.01115875
v 0.438893 0.5212765 0.4095956
v 0.5209137 0.4585266 0.4095955
v 0.521 0.4585364 0.01114809
v 0.4389071 0.5212672 -0.4095822
v 0.5209302 0.4585418 -0.4095822
v 0.1401834 0.5585055 0.4098354
v 0.1398124 0.5585564 0.4098355
v 0.1688961 0.5572578 0.4417371
v 0.1415836 0.5789192 0.01116746
v -0.1352064 0.1438872 0.387615
v -0.1453567 0.1469738 0.3616816
v -0.1096954 0.1397131 0.3983969
v -0.03228278 0.1292085 0.3983979
v -0.006560076 0.1264301 0.3875703
v 0.003952414 0.1267171 0.3615699
v -0.137909 0.1690541 0.01116695
v 0.0006978698 0.1502634 0.0111667
v -0.1453848 0.1468467 -0.361659
v 0.003992394 0.1265797 -0.3615525
v -0.1352093 0.1438502 -0.387586
v -0.1096941 0.1397147 -0.398363
v -0.03223925 0.1292041 -0.3983642
v -0.006523792 0.1263872 -0.3875435
v 0.155564 0.1060877 0.3615696
v 0.1911447 0.09881195 0.3983977
v 0.1656162 0.1030039 0.38757
v 0.2645284 0.08880773 0.3983962
v 0.2902263 0.08601674 0.3876147
v 0.3008324 0.08628002 0.3616822
v 0.1650079 0.1279031 0.01116728
v 0.2995647 0.1095413 0.01116633
v 0.1555282 0.1059604 -0.3615535
v 0.3008526 0.08614662 -0.3616588
v 0.1656112 0.1029666 -0.3875434
v 0.191143 0.09881368 -0.3983635
v 0.2645558 0.08880571 -0.3983628
v 0.2902476 0.08597669 -0.3875858
v -0.08969139 0.6071296 0.01115385
v -0.09718372 0.5897593 0.3758253
v -0.0973136 0.5897123 -0.3759944
v -0.006560076 0.1264301 0.3875703
v 0.003952414 0.1267171 0.3615699
v 0.0686168 0.555266 0.3985909
v 0.07896269 0.5553552 0.3725072
v 0.0006978698 0.1502634 0.0111667
v 0.08445289 0.5640867 0.3734498
v 0.07325277 0.5640982 0.4017904
v 0.07742189 0.5837656 0.0111672
v 0.07201444 0.5749701 0.01116716
v 0.07899595 0.5553046 -0.3725508
v 0.003992394 0.1265797 -0.3615525
v 0.08448714 0.5640422 -0.3734773
v 0.06863713 0.5553149 -0.3986207
v -0.006523792 0.1263872 -0.3875435
v 0.07331295 0.5641401 -0.4018671
v -0.1096954 0.1397131 0.3983969
v -0.06096613 0.5696676 0.4092491
v -0.1352064 0.1438872 0.387615
v -0.08610493 0.5770148 0.3984835
v -0.1453567 0.1469738 0.3616816
v -0.09625679 0.5790886 0.372466
v -0.137909 0.1690541 0.01116695
v -0.06431513 0.582659 0.4095419
v -0.08839954 0.5876436 0.3997806
v -0.09718372 0.5897593 0.3758253
v 0.04711634 0.5674287 0.4127975
v -0.08969139 0.6071296 0.01115385
v -0.08703567 0.5971742 0.01114135
v -0.09628271 0.5789928 -0.3724721
v -0.1453848 0.1468467 -0.361659
v -0.0973136 0.5897123 -0.3759944
v -0.08610266 0.5769968 -0.3984799
v -0.08839503 0.5876203 -0.399776
v -0.1352093 0.1438502 -0.387586
v -0.06433842 0.5826828 -0.409534
v -0.06095977 0.5697041 -0.4092415
v -0.1096941 0.1397147 -0.398363
v 0.04207449 0.5533682 -0.4093498
v -0.03223925 0.1292041 -0.3983642
v -0.006523792 0.1263872 -0.3875435
v 0.04966931 0.5655617 -0.4096879
v 0.06863713 0.5553149 -0.3986207
v 0.07331295 0.5641401 -0.4018671
v 0.1656162 0.1030039 0.38757
v 0.208269 0.5361924 0.3985693
v 0.155564 0.1060877 0.3615696
v 0.1983276 0.5390527 0.3724844
v 0.1650079 0.1279031 0.01116728
v 0.1953789 0.5489389 0.3734039
v 0.2061196 0.5459484 0.4018203
v 0.2074787 0.5660055 0.01116773
v 0.210325 0.5560812 0.01116774
v 0.1983245 0.5390068 -0.3725283
v 0.1555282 0.1059604 -0.3615535
v 0.1953825 0.548897 -0.3734539
v 0.2083087 0.5362549 -0.3985985
v 0.1656112 0.1029666 -0.3875434
v 0.2062249 0.5460055 -0.401794
v 0.0686168 0.555266 0.3985909
v 0.07325277 0.5640982 0.4017904
v 0.04282551 0.5577142 0.4094486
v -0.006560076 0.1264301 0.3875703
v -0.03228278 0.1292085 0.3983979
v 0.2083087 0.5362549 -0.3985985
v 0.2062249 0.5460055 -0.401794
v 0.229338 0.5410604 -0.4096662
v 0.2333794 0.5272907 -0.4093274
v 0.1656112 0.1029666 -0.3875434
v 0.191143 0.09881368 -0.3983635
v 0.2645558 0.08880571 -0.3983628
v 0.3386484 0.5278034 -0.4095101
v 0.3319508 0.516206 -0.4092188
v 0.3581215 0.51651 -0.398455
v 0.2902476 0.08597669 -0.3875858
v 0.3631477 0.5261365 -0.3997486
v 0.3008526 0.08614662 -0.3616588
v 0.3721857 0.5257555 -0.3757991
v 0.3684616 0.5157094 -0.3724461
v 0.2995647 0.1095413 0.01116633
v 0.3695837 0.5444924 0.01115328
v 0.3643425 0.5356069 0.01114065
v 0.3684345 0.5158117 0.3724408
v 0.3008324 0.08628002 0.3616822
v 0.3722761 0.5258625 0.3759595
v 0.3580996 0.51653 0.3984587
v 0.3631297 0.5261611 0.3997534
v 0.2902263 0.08601674 0.3876147
v 0.3385904 0.5277897 0.4095177
v 0.3319183 0.5161713 0.4092261
v 0.2645284 0.08880773 0.3983962
v 0.1911447 0.09881195 0.3983977
v 0.2322028 0.5421637 0.4127555
v 0.2337713 0.5316201 0.409426
v 0.1656162 0.1030039 0.38757
v 0.208269 0.5361924 0.3985693
v 0.2061196 0.5459484 0.4018203
v -0.3490604 -0.5300415 0.5534815
v 0.3120554 -0.5300424 0.5572849
v -0.3766877 -0.5300415 0.4872555
v 0.3527778 -0.5300425 0.4873151
v -0.3772454 -0.5300415 0.3916411
v 0.3550026 -0.5300425 0.3916194
v -0.3772433 -0.5300415 0.01100407
v 0.3550107 -0.5300425 0.01100392
v -0.3772454 -0.5300415 -0.3909333
v 0.3550026 -0.5300425 -0.3909119
v 0.3527852 -0.5300425 -0.4866679
v -0.3766877 -0.5300415 -0.4866062
v 0.3120103 -0.5300424 -0.5568806
v -0.3490266 -0.5300415 -0.5531208
v -0.285434 -0.5300416 -0.5986714
v 0.2526301 -0.5300424 -0.5974318
vt 0.769043 0.8955078
vt 0.7680664 0.8955078
vt 0.8237305 0.8984375
vt 0.1079102 0.9438477
vt 0.1079102 0.9438477
vt 0.1079102 0.9448242
vt 0.1088257 0.9438477
vt 0.1088257 0.9448242
vt 0.1088257 0.9438477
vt 0.8237305 0.8984375
vt 0.8828125 0.8955078
vt 0.8818359 0.8955078
vt 0.1127319 0.9013672
vt 0.1127319 0.8862305
vt 0.1068726 0.8862305
vt 0.1068726 0.9013672
vt 0.1127319 0.9140625
vt 0.1068726 0.9140625
vt 0.1068726 0.925293
vt 0.1127319 0.925293
vt 0.1127319 0.9306641
vt 0.1068726 0.9306641
vt 0.1126709 0.9326172
vt 0.1068115 0.9326172
vt 0.1121216 0.9335938
vt 0.1109619 0.934082
vt 0.1084595 0.934082
vt 0.1072998 0.9335938
vt 0.7167969 0.894043
vt 0.7192383 0.9160156
vt 0.7138672 0.8666992
vt 0.7167969 0.8886719
vt 0.7163086 0.8334961
vt 0.71875 0.855957
vt 0.71875 0.7788086
vt 0.7290039 0.921875
vt 0.7270508 0.8979492
vt 0.7353516 0.9355469
vt 0.7275391 0.9326172
vt 0.7456055 0.9462891
vt 0.7397461 0.9458008
vt 0.7548828 0.9526367
vt 0.7578125 0.953125
vt 0.7641602 0.9550781
vt 0.7480469 0.9316406
vt 0.7543945 0.9384766
vt 0.7641602 0.9033203
vt 0.7626953 0.9438477
vt 0.7441406 0.9228516
vt 0.7641602 0.9443359
vt 0.7426758 0.9033203
vt 0.8237305 0.9443359
vt 0.8237305 0.9550781
vt 0.8867188 0.9550781
vt 0.7290039 0.8652344
vt 0.7441406 0.8706055
vt 0.7211914 0.8012695
vt 0.7314453 0.8110352
vt 0.7241211 0.7939453
vt 0.8237305 0.9033203
vt 0.8867188 0.9033203
vt 0.8867188 0.9443359
vt 0.8867188 0.8710938
vt 0.8237305 0.8710938
vt 0.8237305 0.8173828
vt 0.7641602 0.8710938
vt 0.746582 0.8168945
vt 0.8925781 0.953125
vt 0.8959961 0.9526367
vt 0.8876953 0.9438477
vt 0.9052734 0.9462891
vt 0.9111328 0.9453125
vt 0.9233398 0.9326172
vt 0.8959961 0.9384766
vt 0.9150391 0.9355469
vt 0.9213867 0.921875
vt 0.9311523 0.9160156
vt 0.934082 0.8886719
vt 0.9023438 0.9316406
vt 0.9067383 0.9228516
vt 0.9238281 0.8979492
vt 0.9077148 0.9033203
vt 0.9321289 0.8554688
vt 0.934082 0.8237305
vt 0.9321289 0.7905273
vt 0.9296875 0.7363281
vt 0.90625 0.8706055
vt 0.921875 0.8652344
vt 0.9291992 0.8012695
vt 0.9194336 0.8110352
vt 0.9267578 0.7939453
vt 0.9267578 0.7207031
vt 0.9042969 0.8168945
vt 0.9233398 0.7871094
vt 0.9233398 0.7133789
vt 0.9169922 0.8041992
vt 0.8867188 0.8173828
vt 0.9140625 0.7973633
vt 0.9023438 0.8105469
vt 0.8852539 0.8110352
vt 0.9003906 0.8041992
vt 0.9199219 0.7807617
vt 0.9121094 0.7895508
vt 0.8994141 0.7958984
vt 0.8837891 0.8041992
vt 0.8237305 0.8110352
vt 0.9199219 0.7094727
vt 0.9140625 0.7016602
vt 0.9116211 0.699707
vt 0.9086914 0.7856445
vt 0.9150391 0.777832
vt 0.9150391 0.7094727
vt 0.9082031 0.7011719
vt 0.8994141 0.6953125
vt 0.8984375 0.6977539
vt 0.8837891 0.6948242
vt 0.8837891 0.6977539
vt 0.8237305 0.6948242
vt 0.8237305 0.6977539
vt 0.8984375 0.7905273
vt 0.7666016 0.6948242
vt 0.7666016 0.6977539
vt 0.7524414 0.6977539
vt 0.7514648 0.6953125
vt 0.7426758 0.7011719
vt 0.7392578 0.699707
vt 0.8837891 0.7958984
vt 0.8837891 0.7910156
vt 0.8237305 0.7910156
vt 0.8237305 0.7958984
vt 0.7666016 0.7910156
vt 0.7353516 0.7094727
vt 0.7416992 0.7856445
vt 0.8237305 0.8041992
vt 0.7666016 0.7958984
vt 0.7524414 0.7905273
vt 0.7666016 0.8041992
vt 0.7509766 0.7958984
vt 0.765625 0.8110352
vt 0.730957 0.7094727
vt 0.7368164 0.7016602
vt 0.7275391 0.7133789
vt 0.7285156 0.7333984
vt 0.7387695 0.7895508
vt 0.7504883 0.8041992
vt 0.7641602 0.8173828
vt 0.7485352 0.8105469
vt 0.7363281 0.7973633
vt 0.7338867 0.8041992
vt 0.7275391 0.7871094
vt 0.730957 0.7807617
vt 0.7216797 0.769043
vt 0.71875 0.7583008
vt 0.7250977 0.762207
vt 0.7216797 0.7456055
vt 0.7211914 0.7358398
vt 0.7241211 0.7207031
vt 0.7250977 0.7387695
vt 0.7285156 0.7568359
vt 0.7353516 0.777832
vt 0.7333984 0.7553711
vt 0.7333984 0.7324219
vt 0.7163086 0.8125
vt 0.7202148 0.777832
vt 0.7177734 0.8178711
vt 0.7158203 0.847168
vt 0.7138672 0.8461914
vt 0.71875 0.8764648
vt 0.7167969 0.8740234
vt 0.7260742 0.8925781
vt 0.7250977 0.8911133
vt 0.1068726 0.9267578
vt 0.1068726 0.925293
vt 0.1068726 0.9140625
vt 0.1068726 0.9140625
vt 0.1068726 0.9013672
vt 0.1068726 0.9013672
vt 0.1068726 0.8862305
vt 0.1068726 0.8852539
vt 0.1127319 0.8852539
vt 0.1127319 0.8862305
vt 0.1127319 0.9013672
vt 0.1127319 0.9013672
vt 0.1127319 0.9140625
vt 0.1127319 0.9140625
vt 0.1127319 0.925293
vt 0.1127319 0.9267578
vt 0.1127319 0.9306641
vt 0.1127319 0.9335938
vt 0.1126709 0.9370117
vt 0.1126709 0.9326172
vt 0.1121216 0.9335938
vt 0.1121826 0.9379883
vt 0.1109619 0.934082
vt 0.1109619 0.9384766
vt 0.1085205 0.9384766
vt 0.1084595 0.934082
vt 0.1072998 0.9379883
vt 0.1072998 0.9335938
vt 0.1068115 0.9370117
vt 0.1068115 0.9326172
vt 0.1068726 0.9306641
vt 0.1068726 0.925293
vt 0.1068726 0.9267578
vt 0.1068726 0.9335938
vt 0.1068115 0.9370117
vt 0.1068115 0.9326172
vt 0.7202148 0.777832
vt 0.7202148 0.7915039
vt 0.71875 0.7583008
vt 0.71875 0.7788086
vt 0.7163086 0.8334961
vt 0.7177734 0.831543
vt 0.7163086 0.8608398
vt 0.7138672 0.8666992
vt 0.71875 0.8901367
vt 0.7167969 0.894043
vt 0.7260742 0.90625
vt 0.7250977 0.9116211
vt 0.7192383 0.9160156
vt 0.7275391 0.9326172
vt 0.734375 0.9135742
vt 0.7426758 0.9233398
vt 0.7373047 0.9150391
vt 0.7397461 0.9458008
vt 0.7387695 0.9135742
vt 0.7426758 0.902832
vt 0.7387695 0.9077148
vt 0.7373047 0.9038086
vt 0.734375 0.8999023
vt 0.7548828 0.9526367
vt 0.7250977 0.8911133
vt 0.7260742 0.8925781
vt 0.7548828 0.9233398
vt 0.762207 0.9443359
vt 0.7548828 0.9174805
vt 0.7592773 0.918457
vt 0.762207 0.8984375
vt 0.7548828 0.8876953
vt 0.7392578 0.8808594
vt 0.7592773 0.9248047
vt 0.7270508 0.8671875
vt 0.7456055 0.8608398
vt 0.7192383 0.8505859
vt 0.7167969 0.8740234
vt 0.7138672 0.8461914
vt 0.7358398 0.8500977
vt 0.7163086 0.8237305
vt 0.7163086 0.8125
vt 0.7290039 0.8364258
vt 0.71875 0.7905273
vt 0.7211914 0.7358398
vt 0.7270508 0.8125
vt 0.7290039 0.7792969
vt 0.7441406 0.8266602
vt 0.7314453 0.7250977
vt 0.7241211 0.7207031
vt 0.7431641 0.8071289
vt 0.7641602 0.8066406
vt 0.7446289 0.7744141
vt 0.7485352 0.8354492
vt 0.7548828 0.8422852
vt 0.7338867 0.7084961
vt 0.7275391 0.7133789
vt 0.7368164 0.7016602
vt 0.746582 0.7207031
vt 0.7583008 0.8676758
vt 0.7485352 0.7036133
vt 0.7641602 0.7744141
vt 0.7636719 0.8476563
vt 0.8237305 0.8481445
vt 0.7641602 0.8696289
vt 0.7504883 0.6967773
vt 0.7392578 0.699707
vt 0.7514648 0.6953125
vt 0.7641602 0.7207031
vt 0.8237305 0.7207031
vt 0.765625 0.703125
vt 0.7666016 0.6967773
vt 0.7666016 0.6948242
vt 0.8237305 0.6948242
vt 0.8237305 0.703125
vt 0.8237305 0.6967773
vt 0.8837891 0.6948242
vt 0.8837891 0.6967773
vt 0.8994141 0.6953125
vt 0.8852539 0.703125
vt 0.9003906 0.6967773
vt 0.9116211 0.699707
vt 0.9140625 0.7016602
vt 0.9018555 0.7036133
vt 0.8867188 0.7207031
vt 0.9165039 0.7084961
vt 0.9233398 0.7133789
vt 0.9267578 0.7207031
vt 0.9042969 0.7207031
vt 0.9194336 0.7250977
vt 0.9296875 0.7363281
vt 0.8867188 0.7744141
vt 0.921875 0.7792969
vt 0.9321289 0.7905273
vt 0.90625 0.7744141
vt 0.8867188 0.8066406
vt 0.9077148 0.8066406
vt 0.8237305 0.7744141
vt 0.9238281 0.8125
vt 0.934082 0.8237305
vt 0.8237305 0.8066406
vt 0.90625 0.8266602
vt 0.9213867 0.8364258
vt 0.9023438 0.8354492
vt 0.9316406 0.8505859
vt 0.934082 0.8886719
vt 0.9311523 0.9160156
vt 0.9238281 0.8671875
vt 0.9233398 0.9326172
vt 0.9150391 0.8500977
vt 0.8959961 0.8417969
vt 0.9111328 0.8803711
vt 0.9111328 0.9453125
vt 0.8959961 0.8876953
vt 0.8959961 0.9526367
vt 0.9052734 0.8603516
vt 0.887207 0.8476563
vt 0.8925781 0.8671875
vt 0.8867188 0.8696289
vt 0.8237305 0.8696289
vt 0.8867188 0.8886719
vt 0.8237305 0.8896484
vt 0.7641602 0.8886719
vt 0.7641602 0.8925781
vt 0.8867188 0.8945313
vt 0.8901367 0.8984375
vt 0.7651367 0.8959961
vt 0.7680664 0.8955078
vt 0.765625 0.8964844
vt 0.769043 0.8955078
vt 0.7641602 0.8984375
vt 0.8237305 0.8984375
vt 0.762207 0.9121094
vt 0.7636719 0.9106445
vt 0.7651367 0.9135742
vt 0.8828125 0.8955078
vt 0.7641602 0.9150391
vt 0.8857422 0.8959961
vt 0.8852539 0.8964844
vt 0.8818359 0.8955078
vt 0.8867188 0.8984375
vt 0.8867188 0.9106445
vt 0.769043 0.9165039
vt 0.7695313 0.9150391
vt 0.7641602 0.9179688
vt 0.7641602 0.9213867
vt 0.8237305 0.9243164
vt 0.8237305 0.918457
vt 0.8237305 0.9169922
vt 0.8813477 0.9150391
vt 0.8818359 0.9165039
vt 0.8857422 0.9135742
vt 0.8867188 0.9150391
vt 0.8867188 0.9213867
vt 0.8901367 0.9130859
vt 0.8901367 0.9291992
vt 0.8818359 0.9262695
vt 0.8867188 0.9277344
vt 0.8867188 0.9301758
vt 0.8857422 0.9277344
vt 0.8813477 0.9267578
vt 0.8901367 0.9443359
vt 0.8867188 0.9418945
vt 0.8237305 0.9301758
vt 0.8237305 0.9306641
vt 0.7695313 0.9267578
vt 0.769043 0.9262695
vt 0.7641602 0.9208984
vt 0.7651367 0.9277344
vt 0.8857422 0.9467773
vt 0.8852539 0.9448242
vt 0.8867188 0.949707
vt 0.8828125 0.9472656
vt 0.8818359 0.9458008
vt 0.7641602 0.9243164
vt 0.7641602 0.9272461
vt 0.762207 0.9306641
vt 0.7636719 0.9306641
vt 0.7641602 0.9418945
vt 0.765625 0.9448242
vt 0.8237305 0.9501953
vt 0.8237305 0.9482422
vt 0.769043 0.9458008
vt 0.7675781 0.9472656
vt 0.7651367 0.9467773
vt 0.7641602 0.9506836
vt 0.8237305 0.9545898
vt 0.7641602 0.9536133
vt 0.7641602 0.9550781
vt 0.8237305 0.9550781
vt 0.8867188 0.9536133
vt 0.8867188 0.9550781
vt 0.7641602 0.9213867
vt 0.7641602 0.9208984
vt 0.7592773 0.9248047
vt 0.8237305 0.9243164
vt 0.1079102 0.9438477
vt 0.1079712 0.9438477
vt 0.1079102 0.9438477
vt 0.1079102 0.9438477
vt 0.1079102 0.9438477
vt 0.1079712 0.9438477
vt 0.1083374 0.9438477
vt 0.1083374 0.9438477
vt 0.1087646 0.9438477
vt 0.1087646 0.9438477
vt 0.1088257 0.9438477
vt 0.1088257 0.9438477
vt 0.1088257 0.9438477
vt 0.1088257 0.9438477
vt 0.1079712 0.9438477
vt 0.1079102 0.9438477
vt 0.1079102 0.9438477
vt 0.1079102 0.9438477
vt 0.1079102 0.9438477
vt 0.1079712 0.9438477
vt 0.1083374 0.9438477
vt 0.1083374 0.9438477
vt 0.1087646 0.9438477
vt 0.1087646 0.9438477
vt 0.1088257 0.9438477
vt 0.1088257 0.9438477
vt 0.1088257 0.9438477
vt 0.1088257 0.9438477
vt 0.8237305 0.8989258
vt 0.769043 0.8955078
vt 0.8818359 0.8955078
vt 0.1079102 0.9438477
vt 0.1079712 0.9438477
vt 0.1079102 0.9448242
vt 0.1079102 0.9448242
vt 0.1083374 0.9438477
vt 0.1079102 0.9448242
vt 0.1079102 0.9448242
vt 0.1083374 0.9448242
vt 0.1083374 0.9448242
vt 0.1087646 0.9448242
vt 0.1087646 0.9438477
vt 0.1087646 0.9448242
vt 0.1088257 0.9448242
vt 0.1088257 0.9438477
vt 0.1088257 0.9448242
vt 0.1079102 0.9438477
vt 0.1079102 0.9448242
vt 0.1079102 0.9438477
vt 0.1079102 0.9448242
vt 0.1079712 0.9438477
vt 0.1079102 0.9448242
vt 0.1083374 0.9438477
vt 0.1079102 0.9448242
vt 0.1079102 0.9448242
vt 0.1079102 0.9448242
vt 0.1079102 0.9448242
vt 0.1083374 0.9448242
vt 0.1083374 0.9448242
vt 0.1087646 0.9448242
vt 0.1087646 0.9438477
vt 0.1087646 0.9448242
vt 0.1088257 0.9448242
vt 0.1088257 0.9448242
vt 0.1088257 0.9438477
vt 0.1088257 0.9448242
vt 0.1088257 0.9448242
vt 0.1088257 0.9438477
vt 0.1088257 0.9448242
vt 0.1088257 0.9438477
vt 0.1088257 0.9438477
vt 0.1088257 0.9448242
vt 0.1088257 0.9448242
vt 0.1088257 0.9448242
vt 0.1079102 0.9438477
vt 0.1079102 0.9448242
vt 0.1079712 0.9438477
vt 0.1079102 0.9448242
vt 0.1083374 0.9438477
vt 0.1079102 0.9448242
vt 0.1079102 0.9448242
vt 0.1083374 0.9448242
vt 0.1083374 0.9448242
vt 0.1087646 0.9448242
vt 0.1087646 0.9438477
vt 0.1087646 0.9448242
vt 0.1088257 0.9448242
vt 0.1088257 0.9438477
vt 0.1088257 0.9448242
vt 0.1079102 0.9448242
vt 0.1079102 0.9448242
vt 0.1079102 0.9448242
vt 0.1079102 0.9438477
vt 0.1079102 0.9438477
vt 0.1088257 0.9448242
vt 0.1088257 0.9448242
vt 0.1088257 0.9448242
vt 0.1088257 0.9448242
vt 0.1088257 0.9438477
vt 0.1088257 0.9438477
vt 0.1088257 0.9438477
vt 0.1088257 0.9448242
vt 0.1088257 0.9448242
vt 0.1088257 0.9448242
vt 0.1088257 0.9438477
vt 0.1088257 0.9448242
vt 0.1087646 0.9438477
vt 0.1087646 0.9448242
vt 0.1087646 0.9448242
vt 0.1083374 0.9438477
vt 0.1083374 0.9448242
vt 0.1083374 0.9448242
vt 0.1079102 0.9448242
vt 0.1079712 0.9438477
vt 0.1079102 0.9448242
vt 0.1079102 0.9448242
vt 0.1079102 0.9448242
vt 0.1079102 0.9438477
vt 0.1079102 0.9448242
vt 0.1079102 0.9448242
vt 0.1079102 0.9438477
vt 0.1079102 0.9438477
vt 0.1079102 0.9448242
vt 0.1079102 0.9448242
vt 0.1079102 0.9438477
vt 0.1079102 0.9448242
vt 0.1079102 0.9448242
vt 0.7109375 0.6772461
vt 0.7099609 0.7646484
vt 0.7236328 0.6738281
vt 0.7236328 0.7705078
vt 0.7421875 0.6738281
vt 0.7421875 0.7705078
vt 0.8164063 0.6738281
vt 0.8164063 0.7705078
vt 0.8950195 0.6738281
vt 0.8950195 0.7705078
vt 0.9135742 0.7705078
vt 0.9135742 0.6738281
vt 0.9272461 0.7646484
vt 0.9267578 0.6772461
vt 0.9355469 0.6855469
vt 0.9350586 0.7568359
vn 0.6557617 0.7539063 0.03887939
vn 0.08966064 0.9956055 0.02429199
vn 0.126709 0.9916992 -7.808208E-05
vn 0.09301758 0.01468658 -0.9956055
vn -0.08325195 0.04013062 -0.9956055
vn 0.1015625 0.01828003 -0.9946289
vn -0.08996582 0.0395813 0.9951172
vn -0.09887695 0.04168701 0.9941406
vn -0.6948242 0.1274414 0.7075195
vn 0.126709 0.9916992 -7.808208E-05
vn 0.08441162 0.9960938 -0.02296448
vn 0.6523438 0.7568359 -0.03704834
vn -0.009429932 -0.07562256 0.9970703
vn -0.01100159 -0.08673096 0.9960938
vn -0.01100159 -0.08673096 0.9960938
vn -0.009429932 -0.07562256 0.9970703
vn 0.002002716 0.007881165 1
vn 0.002002716 0.007881165 1
vn 0.03070068 0.2182617 0.9755859
vn 0.03050232 0.2167969 0.9755859
vn 0.08624268 0.625 0.7758789
vn 0.08673096 0.628418 0.7729492
vn 0.1071777 0.7783203 0.6186523
vn 0.1071777 0.7783203 0.6186523
vn 0.1071777 0.7783203 0.6186523
vn 0.1071777 0.7783203 0.6186523
vn 0.1071777 0.7783203 0.6186523
vn 0.1071777 0.7783203 0.6186523
vn 0.05511475 0.2473145 0.9672852
vn 0.2849121 0.2072754 0.9360352
vn 0.02313232 0.01339722 0.9995117
vn 0.2636719 -0.02371216 0.9643555
vn 0.01490784 -0.06027222 0.9980469
vn 0.2624512 -0.09094238 0.9604492
vn 0.04302979 -0.09973145 0.9941406
vn 0.7563477 0.05999756 0.6513672
vn 0.7495117 -0.09832764 0.6542969
vn 0.78125 0.2946777 0.5507813
vn 0.3037109 0.5761719 0.7587891
vn 0.7963867 0.4543457 0.3986816
vn 0.2912598 0.7939453 0.5336914
vn 0.3188477 0.8774414 0.3583984
vn 0.7866211 0.5576172 0.263916
vn 0.8149414 0.5791016 0.01782227
vn 0.9916992 -0.05172729 0.116272
vn 0.9960938 -0.02568054 0.08691406
vn 0.9912109 -0.1309814 0.002902985
vn 0.9975586 -0.0451355 0.05148315
vn 0.9804688 -0.09033203 0.1759033
vn 1 0.01070404 0.004711151
vn 0.9677734 -0.1300049 0.2166748
vn 0.9995117 0.0221405 0
vn 0.8212891 0.5708008 2.223253E-05
vn 0.8154297 0.5786133 -0.01724243
vn 0.75 -0.1365967 0.6469727
vn 0.9599609 -0.1411133 0.2418213
vn 0.2585449 -0.1264648 0.9575195
vn 0.7431641 -0.1733398 0.6459961
vn 0.1832275 -0.4816895 0.8569336
vn 0.9912109 -0.1308594 0
vn 0.9912109 -0.1309814 -0.002780914
vn 1 0.01119232 -0.004524231
vn 0.9912109 -0.1328125 -0.003343582
vn 0.9912109 -0.1326904 0
vn 0.9873047 -0.15979 0
vn 0.9912109 -0.1328125 0.003492355
vn 0.9536133 -0.1719971 0.2463379
vn 0.7866211 0.5571289 -0.2653809
vn 0.2266846 0.9047852 -0.3601074
vn 0.9975586 -0.04629517 -0.05099487
vn 0.7973633 0.4550781 -0.3969727
vn 0.1933594 0.8061523 -0.5595703
vn 0.1635742 0.5673828 -0.8071289
vn 0.9960938 -0.02468872 -0.08679199
vn 0.7807617 0.2961426 -0.550293
vn 0.7543945 0.06021118 -0.6538086
vn 0.119812 0.2365723 -0.9643555
vn 0.09332275 -0.0003960133 -0.9956055
vn 0.9916992 -0.05075073 -0.1164551
vn 0.9804688 -0.090271 -0.1759033
vn 0.7480469 -0.09802246 -0.6567383
vn 0.9677734 -0.1300049 -0.2165527
vn 0.08795166 -0.0692749 -0.9936523
vn -0.08770752 0.02418518 -0.9960938
vn -0.1011353 -0.04397583 -0.9941406
vn -0.1101074 -0.0723877 -0.9912109
vn 0.9599609 -0.1411133 -0.2416992
vn 0.7485352 -0.1364746 -0.6489258
vn 0.08203125 -0.0982666 -0.9916992
vn 0.7416992 -0.173584 -0.6479492
vn 0.03570557 -0.3520508 -0.9355469
vn -0.1422119 -0.3083496 -0.9404297
vn 0.9536133 -0.1723633 -0.2462158
vn 0.05718994 -0.5458984 -0.8359375
vn -0.09570313 -0.5224609 -0.847168
vn 0.5849609 -0.59375 -0.5527344
vn 0.987793 -0.1568604 -0.003505707
vn 0.5239258 -0.7094727 -0.4711914
vn 0.7871094 -0.5776367 -0.2159424
vn 0.8486328 -0.5288086 -0.003061295
vn 0.6655273 -0.7270508 -0.1705322
vn 0.03903198 -0.7924805 -0.6083984
vn 0.3735352 -0.8579102 -0.3530273
vn 0.4675293 -0.8740234 -0.1313477
vn 0.6933594 -0.7202148 -0.002500534
vn 0.84375 -0.5371094 0
vn -0.05950928 -0.8037109 -0.5917969
vn -0.6967773 -0.4291992 -0.574707
vn -0.4899902 -0.7724609 -0.4040527
vn 0.01324463 -1 -0.01237488
vn 0.006126404 -0.9956055 -0.09381104
vn -0.008468628 -0.9956055 -0.09393311
vn -0.01747131 -0.9995117 -0.0140152
vn -0.6142578 -0.7802734 -0.1187744
vn -0.0158844 -1 -0.002841949
vn -0.5927734 -0.8056641 -0.0008974075
vn -0.01219177 -1 -1.472235E-05
vn -0.590332 -0.8071289 0
vn -0.01209259 -1 0
vn 0.01377869 -1 -0.003736496
vn -0.5927734 -0.8051758 0.0009388924
vn -0.0121994 -1 1.54376E-05
vn -0.0158844 -1 0.002843857
vn -0.6142578 -0.7802734 0.1188965
vn -0.01704407 -1 0.01377106
vn -0.4885254 -0.7734375 0.4038086
vn 0.458252 -0.8886719 -0.00193119
vn 0.009742737 -1 -4.410744E-05
vn 0.009597778 -1 0
vn 0.4567871 -0.8896484 0
vn 0.009742737 -1 4.62532E-05
vn -0.01108551 -0.9990234 0.04116821
vn 0.01296234 -1 0.01200867
vn 0.6899414 -0.7236328 0
vn 0.458252 -0.8886719 0.00202179
vn 0.01377869 -1 0.003736496
vn 0.6933594 -0.7207031 0.002630234
vn 0.4675293 -0.8740234 0.1314697
vn 0.8486328 -0.5292969 0.00320816
vn -0.1651611 -0.7939453 0.5849609
vn -0.6967773 -0.4279785 0.5751953
vn -0.2402344 -0.4804688 0.8432617
vn -0.02571106 -0.8173828 0.5756836
vn 0.3742676 -0.8579102 0.3518066
vn 0.6655273 -0.7265625 0.1711426
vn 0.987793 -0.1571045 0.003660202
vn 0.7880859 -0.5761719 0.2166748
vn 0.5258789 -0.7080078 0.4714355
vn 0.5878906 -0.5908203 0.5527344
vn 0.1899414 -0.6210938 0.7602539
vn 0.1268311 -0.815918 0.5639648
vn 0.01260376 -0.3825684 0.9238281
vn -0.05960083 -0.07904053 0.9951172
vn 0.02586365 -0.5541992 0.8320313
vn -0.05804443 -0.3017578 0.9516602
vn -0.2751465 -0.04644775 0.9604492
vn -0.291748 -0.2426758 0.925293
vn -0.04031372 -0.5102539 0.8588867
vn 0.01873779 -0.8242188 0.565918
vn 0.008865356 -0.9990234 0.03839111
vn 0.001497269 -0.9990234 0.04238892
vn -0.001840591 -0.9990234 0.04324341
vn -0.02688599 -0.05493164 0.9980469
vn 0.1848145 -0.007259369 0.9829102
vn 0.3476563 -0.1055298 0.9316406
vn 0.3544922 -0.05429077 0.9335938
vn -0.01490784 0.01863098 0.9995117
vn 0.3984375 0.1710205 0.9008789
vn 0.01679993 0.251709 0.9677734
vn 0.3833008 0.5507813 0.7412109
vn 0.08312988 0.6352539 0.7680664
vn 0.9912109 -0.1315918 -0.002277374
vn 0.9912109 -0.1315918 -0.002256393
vn 0.9907227 -0.1347656 0
vn 0.9907227 -0.1347656 0
vn 0.9907227 -0.137085 0.00585556
vn 0.9907227 -0.137085 0.005901337
vn 0.9414063 0.2878418 0.1746826
vn 0.8759766 0.427002 0.2249756
vn -0.7207031 0.6601563 0.2122803
vn -0.8354492 0.5283203 0.1529541
vn -0.9907227 0.137085 -0.005840302
vn -0.9907227 0.137085 -0.005889893
vn -0.9907227 0.1347656 0
vn -0.9907227 0.1347656 0
vn -0.9912109 0.1315918 0.002269745
vn -0.9912109 0.1315918 0.002288818
vn -0.9921875 0.1257324 0.009437561
vn -0.9921875 0.1257324 0.009399414
vn -0.9882813 0.05279541 0.1434326
vn -0.9912109 0.07086182 0.1116943
vn -0.7558594 -0.2401123 0.6088867
vn -0.7172852 -0.2653809 0.6445313
vn -0.1987305 -0.4611816 0.8647461
vn -0.1916504 -0.4626465 0.8657227
vn 0.0670166 -0.4978027 0.8647461
vn 0.07495117 -0.4985352 0.8637695
vn 0.6337891 -0.4448242 0.6328125
vn 0.6801758 -0.4294434 0.5942383
vn 0.9731445 -0.1982422 0.1176758
vn 0.9799805 -0.1801758 0.08465576
vn 0.9921875 -0.1257324 -0.009391785
vn 0.9912109 -0.1315918 -0.002256393
vn 0.9912109 -0.1315918 -0.002277374
vn 0.9921875 -0.1257324 -0.009353638
vn 0.9731445 -0.1982422 0.1176758
vn 0.9799805 -0.1801758 0.08465576
vn 0.1848145 -0.007259369 0.9829102
vn -0.1697998 0.0397644 0.9848633
vn -0.05960083 -0.07904053 0.9951172
vn 0.04302979 -0.09973145 0.9941406
vn 0.01490784 -0.06027222 0.9980469
vn -0.3498535 -0.01045227 0.9365234
vn -0.3564453 0.0425415 0.9331055
vn 0.02313232 0.01339722 0.9995117
vn -0.3371582 0.2712402 0.9013672
vn 0.05511475 0.2473145 0.9672852
vn -0.21521 0.6347656 0.7421875
vn 0.09326172 0.6362305 0.765625
vn 0.2849121 0.2072754 0.9360352
vn 0.3037109 0.5761719 0.7587891
vn -0.09204102 0.8212891 0.5634766
vn 0.1107788 0.8583984 0.5009766
vn 0.1685791 0.7861328 0.5947266
vn 0.2912598 0.7939453 0.5336914
vn 0.1188354 0.8520508 0.5097656
vn 0.1260986 0.8564453 0.5004883
vn 0.1146851 0.8525391 0.5102539
vn 0.0475769 0.8022461 0.5952148
vn 0.3161621 0.7670898 0.5585938
vn 0.3188477 0.8774414 0.3583984
vn 0.08312988 0.6352539 0.7680664
vn 0.3833008 0.5507813 0.7412109
vn 0.1234131 0.9287109 0.3496094
vn 0.1343994 0.9848633 0.109375
vn 0.1314697 0.9291992 0.3452148
vn 0.1313477 0.9848633 0.1125488
vn 0.1359863 0.9858398 0.1002197
vn -0.06561279 0.9316406 0.3571777
vn -0.06530762 0.8422852 0.5351563
vn 0.1385498 0.9829102 0.1193237
vn -0.1343994 0.6337891 0.7617188
vn -0.6367188 0.6577148 0.4020996
vn -0.2121582 0.2746582 0.9379883
vn 0.01679993 0.251709 0.9677734
vn -0.01490784 0.01863098 0.9995117
vn -0.6630859 0.4978027 0.559082
vn -0.2521973 0.04638672 0.9667969
vn -0.02688599 -0.05493164 0.9980469
vn -0.703125 0.2619629 0.6611328
vn -0.2687988 -0.01986694 0.9628906
vn -0.2751465 -0.04644775 0.9604492
vn -0.7456055 0.1055298 0.6582031
vn -0.7602539 0.06561279 0.6459961
vn -0.9755859 0.166748 0.1414795
vn -0.762207 0.03973389 0.6459961
vn -0.291748 -0.2426758 0.925293
vn -0.9755859 0.1334229 0.1743164
vn -0.9907227 0.137085 0.001702309
vn -0.9736328 0.1204224 0.1936035
vn -0.9755859 0.1999512 0.09301758
vn -0.9726563 0.2225342 0.06933594
vn -0.7641602 -0.1455078 0.6279297
vn -0.2402344 -0.4804688 0.8432617
vn -0.6967773 -0.4279785 0.5751953
vn -0.9750977 0.09796143 0.1989746
vn -0.5947266 0.7597656 0.262207
vn -0.9775391 -0.06988525 0.1982422
vn -0.9912109 0.1326904 0.002088547
vn -0.9663086 0.2563477 0.01216888
vn -0.9663086 0.2570801 -1.120567E-05
vn -0.6333008 0.7734375 0.01774597
vn -0.90625 -0.3852539 0.173584
vn -0.4885254 -0.7734375 0.4038086
vn -0.6142578 -0.7802734 0.1188965
vn -0.9936523 0.112915 0.002183914
vn -0.9936523 0.1123657 0
vn -0.9990234 -0.03994751 0.002031326
vn -0.9272461 -0.3745117 0.001580238
vn -0.5927734 -0.8051758 0.0009388924
vn -0.590332 -0.8071289 0
vn -0.9990234 -0.04498291 0
vn -0.925293 -0.3791504 0
vn -0.5927734 -0.8056641 -0.0008974075
vn -0.9272461 -0.3742676 -0.001503944
vn -0.6142578 -0.7802734 -0.1187744
vn -0.9990234 -0.03961182 -0.00193882
vn -0.90625 -0.3857422 -0.1729736
vn -0.4899902 -0.7724609 -0.4040527
vn -0.6967773 -0.4291992 -0.574707
vn -0.9775391 -0.07055664 -0.197876
vn -0.9936523 0.112915 -0.002084732
vn -0.7631836 -0.1473389 -0.6289063
vn -0.09570313 -0.5224609 -0.847168
vn -0.1422119 -0.3083496 -0.9404297
vn -0.9750977 0.09777832 -0.1990967
vn -0.7607422 0.03909302 -0.6479492
vn -0.1101074 -0.0723877 -0.9912109
vn -0.9912109 0.1326904 -0.001989365
vn -0.7583008 0.06518555 -0.6484375
vn -0.1011353 -0.04397583 -0.9941406
vn -0.9736328 0.1203613 -0.1938477
vn -0.9907227 0.137085 -0.001629829
vn -0.9755859 0.1333008 -0.1743164
vn -0.9912109 0.1326904 0
vn -0.7436523 0.1054688 -0.6601563
vn -0.08770752 0.02418518 -0.9960938
vn -0.9907227 0.137207 0
vn -0.9760742 0.1665039 -0.1414795
vn -0.7021484 0.2612305 -0.6625977
vn -0.9755859 0.1992188 -0.09197998
vn -0.05023193 0.2597656 -0.9643555
vn 0.09332275 -0.0003960133 -0.9956055
vn 0.119812 0.2365723 -0.9643555
vn -0.00378418 0.590332 -0.8071289
vn 0.1635742 0.5673828 -0.8071289
vn -0.6616211 0.4985352 -0.5600586
vn -0.9726563 0.2219238 -0.06890869
vn 0.03102112 0.828125 -0.5600586
vn 0.1933594 0.8061523 -0.5595703
vn 0.0256958 0.9326172 -0.359375
vn 0.2266846 0.9047852 -0.3601074
vn -0.6367188 0.6582031 -0.4016113
vn -0.9667969 0.2561035 -0.01177979
vn -0.5961914 0.7583008 -0.2644043
vn -0.6342773 0.7729492 -0.01745605
vn -0.6430664 0.765625 -2.145767E-05
vn -0.2077637 0.9775391 -0.03068542
vn -0.2087402 0.9780273 -2.115965E-05
vn -0.2086182 0.9775391 0.03179932
vn 0.06549072 0.9970703 0.04421997
vn 0.06451416 0.9970703 -0.04232788
vn 0.137085 0.9833984 -0.1203613
vn 0.3286133 0.9379883 -0.1100464
vn 0.08966064 0.9956055 0.02429199
vn 0.4633789 0.8354492 -0.295166
vn 0.6557617 0.7539063 0.03887939
vn 0.1593018 0.8618164 -0.4814453
vn 0.126709 0.9916992 -7.808208E-05
vn 0.1289063 0.987793 0.08935547
vn 0.1129761 0.8696289 -0.4804688
vn -0.1273193 0.9667969 -0.2220459
vn 0.08441162 0.9960938 -0.02296448
vn 0.09332275 0.9931641 -0.06890869
vn 0.385498 0.9125977 0.1347656
vn 0.4296875 0.8779297 0.2114258
vn 0.6523438 0.7568359 -0.03704834
vn 0.1721191 0.9541016 0.2443848
vn 0.1290283 0.9624023 0.2390137
vn 0.1126099 0.9921875 0.05096436
vn -0.2435303 0.96875 0.04498291
vn 0.1350098 0.9907227 -0.007442474
vn 0.1351318 0.9892578 0.05435181
vn 0.1352539 0.9907227 0.01675415
vn 0.09106445 0.9956055 0.01515198
vn -0.2456055 0.9692383 -7.730722E-05
vn -0.2434082 0.96875 -0.04248047
vn 0.09240723 0.9946289 -0.04797363
vn -0.1105347 0.984375 0.1384277
vn 0.06396484 0.9975586 0.02954102
vn 0.1351318 0.9897461 -0.04266357
vn 0.1340332 0.9833984 -0.1206665
vn 0.135498 0.9833984 -0.1213379
vn 0.1765137 0.9829102 -0.04797363
vn 0.2059326 0.9780273 0.02980042
vn 0.1329346 0.9619141 0.2392578
vn 0.3720703 0.9174805 0.1401367
vn 0.4951172 0.8676758 -0.04232788
vn 0.1326904 0.9838867 -0.12146
vn 0.08734131 0.9658203 0.244873
vn 0.178833 0.9838867 0.01459503
vn 0.4970703 0.8676758 -3.46303E-05
vn 0.4946289 0.8676758 0.04510498
vn 0.1575928 0.9863281 0.05102539
vn 0.1351318 0.9892578 0.05444336
vn 0.3796387 0.8989258 -0.2191162
vn -0.1298828 0.9824219 0.1347656
vn -0.1828613 0.9599609 0.211792
vn 0.2139893 0.9760742 -0.0435791
vn 0.192749 0.980957 -0.0224762
vn -0.4279785 0.9033203 -0.03656006
vn 0.1356201 0.9907227 -0.00686264
vn 0.175415 0.9819336 -0.06817627
vn 0.1417236 0.9848633 0.09790039
vn 0.12323 0.8691406 -0.4790039
vn 0.07495117 0.8740234 -0.4802246
vn -0.2220459 0.9287109 -0.2966309
vn 0.1490479 0.9887695 -0.0001096725
vn -0.427002 0.9042969 0.0003657341
vn -0.4238281 0.9047852 0.03875732
vn 0.1914063 0.9814453 0.02354431
vn -0.1000366 0.9858398 -0.1359863
vn 0.2138672 0.9755859 0.04638672
vn 0.4907227 0.8710938 -5.280972E-05
vn 0.4907227 0.8706055 0.03237915
vn 0.8149414 0.5791016 0.01782227
vn 0.8212891 0.5708008 2.223253E-05
vn 0.4892578 0.871582 -0.03105164
vn 0.8154297 0.5786133 -0.01724243
vn 0.1351318 0.9892578 0.05435181
vn 0.1351318 0.9892578 0.05444336
vn 0.1385498 0.9829102 0.1193237
vn 0.1352539 0.9907227 0.01675415
vn 0.1341553 0.9887695 0.06518555
vn 0.1341553 0.9887695 0.06518555
vn 0.1341553 0.9887695 0.06518555
vn 0.1341553 0.9887695 0.06518555
vn 0.1341553 0.9887695 0.06518555
vn 0.1341553 0.9887695 0.06518555
vn 0.1343994 0.9907227 0
vn 0.1343994 0.9907227 0
vn 0.1341553 0.9892578 -0.06164551
vn 0.1341553 0.9892578 -0.06164551
vn 0.1341553 0.9892578 -0.06164551
vn 0.1341553 0.9892578 -0.06164551
vn 0.1341553 0.9892578 -0.06164551
vn 0.1341553 0.9892578 -0.06164551
vn 0.1348877 0.9887695 0.06518555
vn 0.1348877 0.9887695 0.06518555
vn 0.1348877 0.9887695 0.06518555
vn 0.1348877 0.9887695 0.06518555
vn 0.1348877 0.9887695 0.06518555
vn 0.1348877 0.9887695 0.06518555
vn 0.1351318 0.9907227 0
vn 0.1351318 0.9907227 -1.043081E-05
vn 0.1348877 0.9887695 -0.06161499
vn 0.1348877 0.9887695 -0.06161499
vn 0.1348877 0.9887695 -0.06161499
vn 0.1348877 0.9887695 -0.06161499
vn 0.1348877 0.9887695 -0.06161499
vn 0.1348877 0.9887695 -0.06161499
vn 0.6552734 0.7553711 -0.0005941391
vn 0.6557617 0.7539063 0.03887939
vn 0.6523438 0.7568359 -0.03704834
vn -0.6923828 0.1395264 -0.7080078
vn -0.9853516 0.1696777 -0.005809784
vn -0.7099609 0.1529541 -0.6875
vn -0.9838867 0.1785889 -0.002599716
vn -0.9858398 0.1687012 -4.577637E-05
vn -0.8486328 0.5283203 0.01924133
vn -0.5942383 0.5229492 -0.6113281
vn -0.8500977 0.5263672 -0.0001049042
vn -0.9838867 0.1779785 -9.214878E-05
vn -0.9838867 0.1785889 0.00248909
vn -0.9853516 0.1696777 0.005313873
vn -0.8486328 0.5283203 -0.01820374
vn -0.7246094 0.1544189 0.671875
vn -0.6933594 0.1396484 0.7070313
vn -0.6186523 0.4775391 0.6240234
vn 0.09301758 0.01468658 -0.9956055
vn 0.1015625 0.01828003 -0.9946289
vn 0.7036133 -0.06204224 -0.7080078
vn 0.7255859 -0.05792236 -0.6855469
vn 0.9931641 -0.1147461 -0.01317596
vn 0.9941406 -0.1071777 -0.01049805
vn 0.9931641 -0.1156616 0
vn 0.1480713 0.1600342 -0.9760742
vn 0.7519531 0.2033691 -0.6274414
vn 0.9853516 0.1713867 -0.002765656
vn -0.04772949 0.2310791 -0.9716797
vn 0.9858398 0.1685791 -0.0002601147
vn 0.9941406 -0.1084595 -4.082918E-05
vn 0.9941406 -0.1069946 0.009994507
vn 0.9931641 -0.1147461 0.01235199
vn 0.984375 0.1759033 0.00292778
vn 0.7250977 -0.05767822 0.6865234
vn 0.7495117 0.2075195 0.628418
vn 0.7036133 -0.06201172 0.7075195
vn 0.1174316 0.0619812 0.9912109
vn 0.1026001 0.01435852 0.9946289
vn 0.09350586 0.01470184 0.9956055
vn -0.09484863 0.04315186 0.9946289
vn -0.08312988 0.04022217 0.9956055
vn -0.6933594 0.1396484 0.7070313
vn -0.08740234 0.112854 0.9897461
vn -0.7246094 0.1544189 0.671875
vn -0.6186523 0.4775391 0.6240234
vn 0.7045898 -0.05148315 -0.7075195
vn 0.7250977 -0.0430603 -0.6875
vn 0.9946289 -0.1010742 -0.005767822
vn 0.9956055 -0.09204102 -0.002561569
vn 0.9946289 -0.1020508 1.072884E-05
vn 0.9594727 0.28125 0.01947021
vn 0.7119141 0.347168 -0.6103516
vn 0.9604492 0.2788086 -4.053116E-05
vn 0.9956055 -0.0927124 -3.528595E-05
vn 0.9956055 -0.09204102 0.002573013
vn 0.9946289 -0.1011353 0.005382538
vn 0.9594727 0.2807617 -0.01811218
vn 0.7387695 -0.04580688 0.6723633
vn 0.7055664 -0.05154419 0.7070313
vn 0.7241211 0.2910156 0.6254883
vn -0.7099609 0.1529541 -0.6875
vn -0.5942383 0.5229492 -0.6113281
vn -0.09033203 0.04721069 -0.9946289
vn -0.6923828 0.1395264 -0.7080078
vn -0.08325195 0.04013062 -0.9956055
vn 0.7387695 -0.04580688 0.6723633
vn 0.7241211 0.2910156 0.6254883
vn 0.1183472 0.08660889 0.9892578
vn 0.1066895 0.01571655 0.9941406
vn 0.7055664 -0.05154419 0.7070313
vn 0.09454346 0.01602173 0.9956055
vn -0.08996582 0.0395813 0.9951172
vn -0.1002197 0.09320068 0.9907227
vn -0.09887695 0.04168701 0.9941406
vn -0.7143555 0.137085 0.6865234
vn -0.6948242 0.1274414 0.7075195
vn -0.6694336 0.3955078 0.6289063
vn -0.9882813 0.1535645 0.0123291
vn -0.9038086 0.4282227 0.002731323
vn -0.9868164 0.1611328 0.01000977
vn -0.9882813 0.15271 -3.856421E-05
vn -0.9047852 0.4257813 0.0001274347
vn -0.9873047 0.1599121 -6.735325E-05
vn -0.9868164 0.161377 -0.01055145
vn -0.9882813 0.1535645 -0.01322937
vn -0.9013672 0.4326172 -0.003026962
vn -0.7148438 0.137207 -0.6855469
vn -0.668457 0.3991699 -0.6279297
vn -0.6948242 0.1273193 -0.7080078
vn -0.1040649 0.1939697 -0.9755859
vn -0.09680176 0.0451355 -0.9941406
vn -0.08947754 0.03942871 -0.9951172
vn 0.09460449 0.01593018 -0.9956055
vn 0.111084 0.2116699 -0.9711914
vn 0.1033936 0.02085876 -0.9946289
vn 0.7045898 -0.05148315 -0.7075195
vn 0.7250977 -0.0430603 -0.6875
vn 0.7119141 0.347168 -0.6103516
vn -0.01704407 -1 0.01377106
vn 0.01296234 -1 0.01200867
vn -0.0158844 -1 0.002843857
vn 0.01377869 -1 0.003736496
vn -0.0121994 -1 1.54376E-05
vn 0.009742737 -1 4.62532E-05
vn -0.01209259 -1 0
vn 0.009597778 -1 0
vn -0.01219177 -1 -1.472235E-05
vn 0.009742737 -1 -4.410744E-05
vn 0.01377869 -1 -0.003736496
vn -0.0158844 -1 -0.002841949
vn 0.01324463 -1 -0.01237488
vn -0.01747131 -0.9995117 -0.0140152
vn -0.008468628 -0.9956055 -0.09393311
vn 0.006126404 -0.9956055 -0.09381104
g Body_0
f 3/3/3 2/2/2 1/1/1
f 6/6/6 5/5/5 4/4/4
f 9/9/9 8/8/8 7/7/7
f 12/12/12 11/11/11 10/10/10
f 15/15/15 14/14/14 13/13/13
f 15/15/15 13/13/13 16/16/16
f 16/16/16 13/13/13 17/17/17
f 16/16/16 17/17/17 18/18/18
f 19/19/19 18/18/18 17/17/17
f 19/19/19 17/17/17 20/20/20
f 19/19/19 20/20/20 21/21/21
f 19/19/19 21/21/21 22/22/22
f 23/23/23 22/22/22 21/21/21
f 23/23/23 24/24/24 22/22/22
f 25/25/25 24/24/24 23/23/23
f 26/26/26 24/24/24 25/25/25
f 27/27/27 24/24/24 26/26/26
f 28/28/28 24/24/24 27/27/27
f 31/31/31 30/30/30 29/29/29
f 31/31/31 32/32/32 30/30/30
f 32/32/32 31/31/31 33/33/33
f 32/32/32 33/33/33 34/34/34
f 34/34/34 33/33/33 35/35/35
f 32/32/32 36/36/36 30/30/30
f 37/37/37 32/32/32 34/34/34
f 32/32/32 37/37/37 36/36/36
f 30/30/30 36/36/36 38/38/38
f 30/30/30 38/38/38 39/39/39
f 39/39/39 38/38/38 40/40/40
f 39/39/39 40/40/40 41/41/41
f 42/42/42 41/41/41 40/40/40
f 42/42/42 40/40/40 43/43/43
f 44/44/44 42/42/42 43/43/43
f 45/45/45 38/38/38 36/36/36
f 46/46/46 40/40/40 38/38/38
f 46/46/46 38/38/38 45/45/45
f 45/45/45 47/47/47 46/46/46
f 46/46/46 47/47/47 48/48/48
f 48/48/48 40/40/40 46/46/46
f 48/48/48 43/43/43 40/40/40
f 49/49/49 47/47/47 45/45/45
f 45/45/45 36/36/36 49/49/49
f 37/37/37 49/49/49 36/36/36
f 50/50/50 43/43/43 48/48/48
f 50/50/50 44/44/44 43/43/43
f 48/48/48 47/47/47 50/50/50
f 37/37/37 51/51/51 49/49/49
f 47/47/47 49/49/49 51/51/51
f 44/44/44 50/50/50 52/52/52
f 44/44/44 52/52/52 53/53/53
f 54/54/54 53/53/53 52/52/52
f 55/55/55 51/51/51 37/37/37
f 37/37/37 34/34/34 55/55/55
f 56/56/56 47/47/47 51/51/51
f 55/55/55 56/56/56 51/51/51
f 55/55/55 34/34/34 57/57/57
f 34/34/34 35/35/35 57/57/57
f 55/55/55 57/57/57 58/58/58
f 58/58/58 56/56/56 55/55/55
f 35/35/35 59/59/59 57/57/57
f 59/59/59 58/58/58 57/57/57
f 60/60/60 50/50/50 47/47/47
f 60/60/60 52/52/52 50/50/50
f 61/61/61 52/52/52 60/60/60
f 61/61/61 62/62/62 52/52/52
f 54/54/54 52/52/52 62/62/62
f 60/60/60 63/63/63 61/61/61
f 47/47/47 64/64/64 60/60/60
f 60/60/60 64/64/64 63/63/63
f 63/63/63 64/64/64 65/65/65
f 47/47/47 66/66/66 64/64/64
f 56/56/56 66/66/66 47/47/47
f 66/66/66 65/65/65 64/64/64
f 58/58/58 67/67/67 56/56/56
f 67/67/67 66/66/66 56/56/56
f 68/68/68 54/54/54 62/62/62
f 69/69/69 54/54/54 68/68/68
f 68/68/68 62/62/62 70/70/70
f 61/61/61 70/70/70 62/62/62
f 69/69/69 68/68/68 71/71/71
f 71/71/71 68/68/68 70/70/70
f 69/69/69 71/71/71 72/72/72
f 73/73/73 72/72/72 71/71/71
f 71/71/71 70/70/70 74/74/74
f 61/61/61 74/74/74 70/70/70
f 73/73/73 71/71/71 75/75/75
f 74/74/74 75/75/75 71/71/71
f 76/76/76 73/73/73 75/75/75
f 76/76/76 77/77/77 73/73/73
f 78/78/78 77/77/77 76/76/76
f 74/74/74 79/79/79 75/75/75
f 61/61/61 79/79/79 74/74/74
f 76/76/76 75/75/75 79/79/79
f 76/76/76 79/79/79 80/80/80
f 61/61/61 80/80/80 79/79/79
f 78/78/78 76/76/76 81/81/81
f 81/81/81 76/76/76 80/80/80
f 82/82/82 80/80/80 61/61/61
f 81/81/81 80/80/80 82/82/82
f 83/83/83 78/78/78 81/81/81
f 84/84/84 78/78/78 83/83/83
f 84/84/84 83/83/83 85/85/85
f 86/86/86 85/85/85 83/83/83
f 87/87/87 82/82/82 61/61/61
f 87/87/87 61/61/61 63/63/63
f 88/88/88 81/81/81 82/82/82
f 83/83/83 81/81/81 88/88/88
f 88/88/88 82/82/82 87/87/87
f 86/86/86 83/83/83 89/89/89
f 89/89/89 83/83/83 88/88/88
f 90/90/90 88/88/88 87/87/87
f 89/89/89 88/88/88 90/90/90
f 91/91/91 86/86/86 89/89/89
f 90/90/90 91/91/91 89/89/89
f 91/91/91 92/92/92 86/86/86
f 63/63/63 93/93/93 87/87/87
f 90/90/90 87/87/87 93/93/93
f 94/94/94 92/92/92 91/91/91
f 94/94/94 95/95/95 92/92/92
f 90/90/90 96/96/96 91/91/91
f 93/93/93 96/96/96 90/90/90
f 63/63/63 97/97/97 93/93/93
f 63/63/63 65/65/65 97/97/97
f 98/98/98 91/91/91 96/96/96
f 98/98/98 94/94/94 91/91/91
f 93/93/93 99/99/99 96/96/96
f 97/97/97 99/99/99 93/93/93
f 98/98/98 96/96/96 99/99/99
f 97/97/97 100/100/100 99/99/99
f 65/65/65 100/100/100 97/97/97
f 98/98/98 99/99/99 101/101/101
f 101/101/101 99/99/99 100/100/100
f 102/102/102 95/95/95 94/94/94
f 103/103/103 94/94/94 98/98/98
f 103/103/103 102/102/102 94/94/94
f 104/104/104 98/98/98 101/101/101
f 104/104/104 103/103/103 98/98/98
f 101/101/101 100/100/100 105/105/105
f 104/104/104 101/101/101 105/105/105
f 65/65/65 106/106/106 100/100/100
f 106/106/106 105/105/105 100/100/100
f 102/102/102 107/107/107 95/95/95
f 108/108/108 95/95/95 107/107/107
f 108/108/108 107/107/107 109/109/109
f 110/110/110 102/102/102 103/103/103
f 110/110/110 111/111/111 102/102/102
f 111/111/111 107/107/107 102/102/102
f 111/111/111 112/112/112 107/107/107
f 109/109/109 107/107/107 112/112/112
f 109/109/109 112/112/112 113/113/113
f 114/114/114 109/109/109 113/113/113
f 114/114/114 113/113/113 115/115/115
f 116/116/116 114/114/114 115/115/115
f 116/116/116 115/115/115 117/117/117
f 118/118/118 116/116/116 117/117/117
f 118/118/118 117/117/117 119/119/119
f 120/120/120 110/110/110 103/103/103
f 119/119/119 121/121/121 118/118/118
f 119/119/119 122/122/122 121/121/121
f 123/123/123 121/121/121 122/122/122
f 123/123/123 124/124/124 121/121/121
f 125/125/125 124/124/124 123/123/123
f 120/120/120 103/103/103 104/104/104
f 125/125/125 126/126/126 124/124/124
f 120/120/120 104/104/104 127/127/127
f 120/120/120 127/127/127 128/128/128
f 127/127/127 129/129/129 128/128/128
f 104/104/104 105/105/105 127/127/127
f 127/127/127 130/130/130 129/129/129
f 105/105/105 130/130/130 127/127/127
f 130/130/130 131/131/131 129/129/129
f 132/132/132 126/126/126 125/125/125
f 133/133/133 132/132/132 125/125/125
f 105/105/105 134/134/134 130/130/130
f 106/106/106 134/134/134 105/105/105
f 130/130/130 135/135/135 131/131/131
f 134/134/134 135/135/135 130/130/130
f 135/135/135 136/136/136 131/131/131
f 106/106/106 137/137/137 134/134/134
f 134/134/134 137/137/137 135/135/135
f 135/135/135 138/138/138 136/136/136
f 137/137/137 138/138/138 135/135/135
f 106/106/106 139/139/139 137/137/137
f 139/139/139 106/106/106 65/65/65
f 132/132/132 140/140/140 126/126/126
f 140/140/140 141/141/141 126/126/126
f 140/140/140 142/142/142 141/141/141
f 132/132/132 143/143/143 140/140/140
f 143/143/143 142/142/142 140/140/140
f 144/144/144 136/136/136 138/138/138
f 144/144/144 133/133/133 136/136/136
f 137/137/137 145/145/145 138/138/138
f 139/139/139 145/145/145 137/137/137
f 139/139/139 65/65/65 146/146/146
f 66/66/66 146/146/146 65/65/65
f 67/67/67 146/146/146 66/66/66
f 147/147/147 139/139/139 146/146/146
f 139/139/139 147/147/147 145/145/145
f 147/147/147 146/146/146 67/67/67
f 148/148/148 138/138/138 145/145/145
f 147/147/147 148/148/148 145/145/145
f 148/148/148 144/144/144 138/138/138
f 149/149/149 147/147/147 67/67/67
f 147/147/147 149/149/149 148/148/148
f 149/149/149 67/67/67 58/58/58
f 59/59/59 149/149/149 58/58/58
f 59/59/59 148/148/148 149/149/149
f 150/150/150 144/144/144 148/148/148
f 59/59/59 150/150/150 148/148/148
f 151/151/151 133/133/133 144/144/144
f 150/150/150 151/151/151 144/144/144
f 152/152/152 150/150/150 59/59/59
f 35/35/35 152/152/152 59/59/59
f 153/153/153 152/152/152 35/35/35
f 152/152/152 154/154/154 150/150/150
f 154/154/154 151/151/151 150/150/150
f 153/153/153 155/155/155 152/152/152
f 155/155/155 154/154/154 152/152/152
f 156/156/156 155/155/155 153/153/153
f 156/156/156 157/157/157 155/155/155
f 142/142/142 155/155/155 157/157/157
f 142/142/142 158/158/158 155/155/155
f 155/155/155 158/158/158 154/154/154
f 143/143/143 158/158/158 142/142/142
f 158/158/158 159/159/159 154/154/154
f 154/154/154 159/159/159 151/151/151
f 158/158/158 143/143/143 159/159/159
f 159/159/159 160/160/160 151/151/151
f 151/151/151 160/160/160 133/133/133
f 159/159/159 161/161/161 160/160/160
f 143/143/143 161/161/161 159/159/159
f 160/160/160 161/161/161 133/133/133
f 143/143/143 162/162/162 161/161/161
f 133/133/133 161/161/161 162/162/162
f 132/132/132 162/162/162 143/143/143
f 133/133/133 162/162/162 132/132/132
f 164/164/164 163/163/163 153/153/153
f 164/164/164 165/165/165 163/163/163
f 163/163/163 165/165/165 166/166/166
f 163/163/163 166/166/166 167/167/167
f 168/168/168 167/167/167 166/166/166
f 168/168/168 169/169/169 167/167/167
f 170/170/170 169/169/169 168/168/168
f 170/170/170 171/171/171 169/169/169
f 174/174/174 173/173/173 172/172/172
f 174/174/174 175/175/175 173/173/173
f 176/176/176 175/175/175 174/174/174
f 176/176/176 177/177/177 175/175/175
f 178/178/178 177/177/177 176/176/176
f 178/178/178 176/176/176 179/179/179
f 180/180/180 178/178/178 179/179/179
f 180/180/180 181/181/181 178/178/178
f 182/182/182 181/181/181 180/180/180
f 182/182/182 183/183/183 181/181/181
f 182/182/182 184/184/184 183/183/183
f 182/182/182 185/185/185 184/184/184
f 186/186/186 184/184/184 185/185/185
f 186/186/186 185/185/185 187/187/187
f 188/188/188 186/186/186 187/187/187
f 188/188/188 187/187/187 189/189/189
f 190/190/190 188/188/188 189/189/189
f 190/190/190 191/191/191 188/188/188
f 190/190/190 192/192/192 191/191/191
f 190/190/190 193/193/193 192/192/192
f 193/193/193 194/194/194 192/192/192
f 193/193/193 195/195/195 194/194/194
f 196/196/196 194/194/194 195/195/195
f 196/196/196 197/197/197 194/194/194
f 197/197/197 196/196/196 198/198/198
f 197/197/197 198/198/198 199/199/199
f 199/199/199 198/198/198 200/200/200
f 199/199/199 200/200/200 201/201/201
f 204/204/204 203/203/203 202/202/202
f 204/204/204 202/202/202 205/205/205
f 206/206/206 205/205/205 202/202/202
f 206/206/206 202/202/202 207/207/207
f 210/210/210 209/209/209 208/208/208
f 210/210/210 211/211/211 209/209/209
f 212/212/212 209/209/209 211/211/211
f 212/212/212 213/213/213 209/209/209
f 212/212/212 214/214/214 213/213/213
f 212/212/212 215/215/215 214/214/214
f 215/215/215 216/216/216 214/214/214
f 215/215/215 217/217/217 216/216/216
f 217/217/217 218/218/218 216/216/216
f 217/217/217 219/219/219 218/218/218
f 219/219/219 217/217/217 220/220/220
f 219/219/219 220/220/220 221/221/221
f 222/222/222 218/218/218 219/219/219
f 222/222/222 219/219/219 223/223/223
f 224/224/224 222/222/222 223/223/223
f 225/225/225 219/219/219 221/221/221
f 225/225/225 223/223/223 219/219/219
f 226/226/226 224/224/224 223/223/223
f 227/227/227 226/226/226 223/223/223
f 227/227/227 228/228/228 226/226/226
f 229/229/229 228/228/228 227/227/227
f 230/230/230 229/229/229 227/227/227
f 223/223/223 225/225/225 231/231/231
f 230/230/230 227/227/227 232/232/232
f 230/230/230 232/232/232 233/233/233
f 223/223/223 231/231/231 234/234/234
f 235/235/235 234/234/234 231/231/231
f 223/223/223 236/236/236 227/227/227
f 223/223/223 234/234/234 236/236/236
f 234/234/234 237/237/237 236/236/236
f 237/237/237 238/238/238 236/236/236
f 227/227/227 236/236/236 239/239/239
f 236/236/236 238/238/238 239/239/239
f 232/232/232 227/227/227 240/240/240
f 227/227/227 239/239/239 240/240/240
f 235/235/235 241/241/241 234/234/234
f 241/241/241 237/237/237 234/234/234
f 232/232/232 240/240/240 242/242/242
f 243/243/243 240/240/240 239/239/239
f 243/243/243 242/242/242 240/240/240
f 244/244/244 232/232/232 242/242/242
f 244/244/244 245/245/245 232/232/232
f 244/244/244 246/246/246 245/245/245
f 243/243/243 247/247/247 242/242/242
f 247/247/247 244/244/244 242/242/242
f 244/244/244 248/248/248 246/246/246
f 249/249/249 246/246/246 248/248/248
f 247/247/247 250/250/250 244/244/244
f 250/250/250 248/248/248 244/244/244
f 249/249/249 248/248/248 251/251/251
f 210/210/210 249/249/249 251/251/251
f 210/210/210 251/251/251 252/252/252
f 250/250/250 253/253/253 248/248/248
f 251/251/251 248/248/248 253/253/253
f 252/252/252 251/251/251 254/254/254
f 251/251/251 253/253/253 254/254/254
f 255/255/255 253/253/253 250/250/250
f 255/255/255 250/250/250 247/247/247
f 252/252/252 254/254/254 256/256/256
f 256/256/256 257/257/257 252/252/252
f 254/254/254 253/253/253 258/258/258
f 255/255/255 258/258/258 253/253/253
f 258/258/258 255/255/255 259/259/259
f 259/259/259 260/260/260 258/258/258
f 254/254/254 258/258/258 260/260/260
f 260/260/260 256/256/256 254/254/254
f 255/255/255 247/247/247 261/261/261
f 259/259/259 255/255/255 261/261/261
f 262/262/262 261/261/261 247/247/247
f 259/259/259 261/261/261 262/262/262
f 262/262/262 247/247/247 243/243/243
f 256/256/256 263/263/263 257/257/257
f 264/264/264 257/257/257 263/263/263
f 264/264/264 263/263/263 265/265/265
f 260/260/260 266/266/266 256/256/256
f 266/266/266 263/263/263 256/256/256
f 262/262/262 243/243/243 267/267/267
f 243/243/243 239/239/239 267/267/267
f 265/265/265 263/263/263 268/268/268
f 266/266/266 268/268/268 263/263/263
f 269/269/269 266/266/266 260/260/260
f 259/259/259 269/269/269 260/260/260
f 262/262/262 267/267/267 270/270/270
f 259/259/259 262/262/262 270/270/270
f 271/271/271 259/259/259 270/270/270
f 267/267/267 272/272/272 270/270/270
f 272/272/272 267/267/267 239/239/239
f 271/271/271 270/270/270 272/272/272
f 265/265/265 268/268/268 273/273/273
f 274/274/274 265/265/265 273/273/273
f 274/274/274 273/273/273 275/275/275
f 276/276/276 268/268/268 266/266/266
f 269/269/269 276/276/276 266/266/266
f 269/269/269 277/277/277 276/276/276
f 276/276/276 278/278/278 268/268/268
f 273/273/273 268/268/268 278/278/278
f 277/277/277 278/278/278 276/276/276
f 275/275/275 273/273/273 279/279/279
f 273/273/273 278/278/278 279/279/279
f 275/275/275 279/279/279 280/280/280
f 281/281/281 280/280/280 279/279/279
f 279/279/279 278/278/278 282/282/282
f 277/277/277 282/282/282 278/278/278
f 281/281/281 279/279/279 283/283/283
f 279/279/279 282/282/282 283/283/283
f 283/283/283 284/284/284 281/281/281
f 283/283/283 285/285/285 284/284/284
f 282/282/282 285/285/285 283/283/283
f 285/285/285 286/286/286 284/284/284
f 282/282/282 287/287/287 285/285/285
f 287/287/287 282/282/282 277/277/277
f 285/285/285 288/288/288 286/286/286
f 287/287/287 288/288/288 285/285/285
f 288/288/288 289/289/289 286/286/286
f 288/288/288 290/290/290 289/289/289
f 287/287/287 291/291/291 288/288/288
f 291/291/291 290/290/290 288/288/288
f 287/287/287 277/277/277 292/292/292
f 291/291/291 287/287/287 292/292/292
f 291/291/291 293/293/293 290/290/290
f 293/293/293 294/294/294 290/290/290
f 293/293/293 295/295/295 294/294/294
f 291/291/291 292/292/292 296/296/296
f 293/293/293 291/291/291 296/296/296
f 295/295/295 293/293/293 297/297/297
f 293/293/293 296/296/296 297/297/297
f 295/295/295 297/297/297 298/298/298
f 277/277/277 299/299/299 292/292/292
f 299/299/299 296/296/296 292/292/292
f 300/300/300 298/298/298 297/297/297
f 300/300/300 301/301/301 298/298/298
f 297/297/297 296/296/296 302/302/302
f 299/299/299 302/302/302 296/296/296
f 297/297/297 302/302/302 300/300/300
f 302/302/302 299/299/299 303/303/303
f 302/302/302 303/303/303 304/304/304
f 300/300/300 302/302/302 304/304/304
f 303/303/303 299/299/299 305/305/305
f 277/277/277 305/305/305 299/299/299
f 269/269/269 305/305/305 277/277/277
f 306/306/306 301/301/301 300/300/300
f 300/300/300 304/304/304 306/306/306
f 306/306/306 307/307/307 301/301/301
f 308/308/308 305/305/305 269/269/269
f 303/303/303 305/305/305 308/308/308
f 308/308/308 269/269/269 259/259/259
f 271/271/271 308/308/308 259/259/259
f 271/271/271 303/303/303 308/308/308
f 306/306/306 304/304/304 309/309/309
f 309/309/309 304/304/304 303/303/303
f 310/310/310 307/307/307 306/306/306
f 306/306/306 309/309/309 310/310/310
f 309/309/309 303/303/303 311/311/311
f 311/311/311 310/310/310 309/309/309
f 310/310/310 312/312/312 307/307/307
f 312/312/312 313/313/313 307/307/307
f 312/312/312 314/314/314 313/313/313
f 315/315/315 314/314/314 312/312/312
f 310/310/310 315/315/315 312/312/312
f 315/315/315 316/316/316 314/314/314
f 311/311/311 317/317/317 310/310/310
f 310/310/310 317/317/317 315/315/315
f 311/311/311 303/303/303 318/318/318
f 317/317/317 311/311/311 318/318/318
f 319/319/319 316/316/316 315/315/315
f 319/319/319 320/320/320 316/316/316
f 321/321/321 320/320/320 319/319/319
f 321/321/321 322/322/322 320/320/320
f 323/323/323 315/315/315 317/317/317
f 323/323/323 319/319/319 315/315/315
f 317/317/317 318/318/318 323/323/323
f 323/323/323 321/321/321 319/319/319
f 318/318/318 303/303/303 324/324/324
f 323/323/323 318/318/318 324/324/324
f 271/271/271 324/324/324 303/303/303
f 323/323/323 324/324/324 325/325/325
f 323/323/323 325/325/325 321/321/321
f 325/325/325 324/324/324 326/326/326
f 326/326/326 324/324/324 271/271/271
f 321/321/321 325/325/325 326/326/326
f 326/326/326 271/271/271 327/327/327
f 271/271/271 272/272/272 327/327/327
f 321/321/321 326/326/326 328/328/328
f 327/327/327 328/328/328 326/326/326
f 327/327/327 329/329/329 328/328/328
f 330/330/330 327/327/327 272/272/272
f 330/330/330 329/329/329 327/327/327
f 272/272/272 239/239/239 330/330/330
f 331/331/331 330/330/330 239/239/239
f 331/331/331 329/329/329 330/330/330
f 331/331/331 239/239/239 238/238/238
f 332/332/332 321/321/321 328/328/328
f 329/329/329 332/332/332 328/328/328
f 332/332/332 333/333/333 321/321/321
f 333/333/333 322/322/322 321/321/321
f 238/238/238 334/334/334 331/331/331
f 334/334/334 335/335/335 331/331/331
f 331/331/331 335/335/335 329/329/329
f 335/335/335 334/334/334 336/336/336
f 336/336/336 334/334/334 238/238/238
f 335/335/335 336/336/336 337/337/337
f 336/336/336 238/238/238 338/338/338
f 329/329/329 335/335/335 339/339/339
f 338/338/338 238/238/238 340/340/340
f 338/338/338 340/340/340 341/341/341
f 340/340/340 238/238/238 237/237/237
f 340/340/340 342/342/342 341/341/341
f 329/329/329 339/339/339 343/343/343
f 329/329/329 343/343/343 332/332/332
f 340/340/340 344/344/344 342/342/342
f 344/344/344 340/340/340 237/237/237
f 343/343/343 345/345/345 332/332/332
f 345/345/345 333/333/333 332/332/332
f 346/346/346 345/345/345 343/343/343
f 346/346/346 343/343/343 347/347/347
f 345/345/345 346/346/346 348/348/348
f 345/345/345 348/348/348 333/333/333
f 333/333/333 348/348/348 349/349/349
f 342/342/342 344/344/344 350/350/350
f 342/342/342 350/350/350 351/351/351
f 344/344/344 237/237/237 352/352/352
f 352/352/352 350/350/350 344/344/344
f 352/352/352 237/237/237 353/353/353
f 352/352/352 353/353/353 350/350/350
f 353/353/353 354/354/354 350/350/350
f 241/241/241 353/353/353 237/237/237
f 351/351/351 350/350/350 355/355/355
f 350/350/350 354/354/354 355/355/355
f 351/351/351 355/355/355 356/356/356
f 355/355/355 357/357/357 356/356/356
f 355/355/355 358/358/358 357/357/357
f 358/358/358 355/355/355 354/354/354
f 358/358/358 359/359/359 357/357/357
f 358/358/358 360/360/360 359/359/359
f 349/349/349 359/359/359 360/360/360
f 360/360/360 358/358/358 361/361/361
f 358/358/358 354/354/354 361/361/361
f 349/349/349 360/360/360 362/362/362
f 362/362/362 360/360/360 361/361/361
f 333/333/333 349/349/349 362/362/362
f 362/362/362 322/322/322 333/333/333
f 362/362/362 361/361/361 363/363/363
f 363/363/363 322/322/322 362/362/362
f 354/354/354 364/364/364 361/361/361
f 365/365/365 363/363/363 361/361/361
f 364/364/364 365/365/365 361/361/361
f 365/365/365 366/366/366 363/363/363
f 365/365/365 367/367/367 366/366/366
f 367/367/367 365/365/365 364/364/364
f 367/367/367 364/364/364 368/368/368
f 366/366/366 369/369/369 363/363/363
f 369/369/369 322/322/322 363/363/363
f 366/366/366 370/370/370 369/369/369
f 368/368/368 364/364/364 371/371/371
f 354/354/354 371/371/371 364/364/364
f 368/368/368 371/371/371 372/372/372
f 371/371/371 373/373/373 372/372/372
f 354/354/354 374/374/374 371/371/371
f 371/371/371 374/374/374 373/373/373
f 354/354/354 375/375/375 374/374/374
f 374/374/374 376/376/376 373/373/373
f 370/370/370 377/377/377 369/369/369
f 370/370/370 378/378/378 377/377/377
f 379/379/379 322/322/322 369/369/369
f 369/369/369 377/377/377 379/379/379
f 380/380/380 377/377/377 378/378/378
f 377/377/377 380/380/380 379/379/379
f 380/380/380 378/378/378 381/381/381
f 382/382/382 374/374/374 375/375/375
f 382/382/382 375/375/375 241/241/241
f 382/382/382 383/383/383 374/374/374
f 374/374/374 383/383/383 376/376/376
f 383/383/383 382/382/382 241/241/241
f 376/376/376 383/383/383 384/384/384
f 383/383/383 241/241/241 384/384/384
f 376/376/376 384/384/384 385/385/385
f 384/384/384 386/386/386 385/385/385
f 241/241/241 235/235/235 384/384/384
f 384/384/384 235/235/235 386/386/386
f 235/235/235 387/387/387 386/386/386
f 388/388/388 380/380/380 381/381/381
f 388/388/388 381/381/381 389/389/389
f 390/390/390 388/388/388 389/389/389
f 387/387/387 391/391/391 390/390/390
f 390/390/390 391/391/391 388/388/388
f 235/235/235 392/392/392 387/387/387
f 387/387/387 392/392/392 391/391/391
f 392/392/392 235/235/235 393/393/393
f 391/391/391 392/392/392 393/393/393
f 393/393/393 388/388/388 391/391/391
f 231/231/231 393/393/393 235/235/235
f 380/380/380 388/388/388 394/394/394
f 388/388/388 393/393/393 394/394/394
f 380/380/380 394/394/394 379/379/379
f 231/231/231 395/395/395 393/393/393
f 394/394/394 393/393/393 395/395/395
f 396/396/396 395/395/395 231/231/231
f 395/395/395 396/396/396 397/397/397
f 395/395/395 397/397/397 394/394/394
f 379/379/379 394/394/394 398/398/398
f 397/397/397 398/398/398 394/394/394
f 379/379/379 398/398/398 322/322/322
f 397/397/397 399/399/399 398/398/398
f 322/322/322 398/398/398 399/399/399
f 402/402/402 401/401/401 400/400/400
f 400/400/400 401/401/401 403/403/403
f 406/406/406 405/405/405 404/404/404
f 405/405/405 406/406/406 407/407/407
f 405/405/405 407/407/407 408/408/408
f 405/405/405 408/408/408 409/409/409
f 405/405/405 409/409/409 410/410/410
f 410/410/410 409/409/409 411/411/411
f 411/411/411 412/412/412 410/410/410
f 413/413/413 412/412/412 411/411/411
f 413/413/413 414/414/414 412/412/412
f 413/413/413 415/415/415 414/414/414
f 413/413/413 416/416/416 415/415/415
f 417/417/417 416/416/416 413/413/413
f 420/420/420 419/419/419 418/418/418
f 418/418/418 419/419/419 421/421/421
f 418/418/418 421/421/421 422/422/422
f 418/418/418 422/422/422 423/423/423
f 418/418/418 423/423/423 424/424/424
f 424/424/424 423/423/423 425/425/425
f 425/425/425 426/426/426 424/424/424
f 427/427/427 426/426/426 425/425/425
f 427/427/427 428/428/428 426/426/426
f 427/427/427 429/429/429 428/428/428
f 427/427/427 430/430/430 429/429/429
f 430/430/430 427/427/427 431/431/431
f 339/339/339 433/433/433 432/432/432
f 434/434/434 339/339/339 432/432/432
f 437/437/437 436/436/436 435/435/435
f 437/437/437 438/438/438 436/436/436
f 438/438/438 439/439/439 436/436/436
f 437/437/437 440/440/440 438/438/438
f 437/437/437 441/441/441 440/440/440
f 438/438/438 440/440/440 442/442/442
f 438/438/438 443/443/443 439/439/439
f 438/438/438 442/442/442 443/443/443
f 444/444/444 439/439/439 443/443/443
f 442/442/442 444/444/444 443/443/443
f 444/444/444 445/445/445 439/439/439
f 442/442/442 446/446/446 444/444/444
f 445/445/445 444/444/444 447/447/447
f 446/446/446 447/447/447 444/444/444
f 445/445/445 447/447/447 448/448/448
f 446/446/446 449/449/449 447/447/447
f 452/452/452 451/451/451 450/450/450
f 452/452/452 453/453/453 451/451/451
f 454/454/454 453/453/453 452/452/452
f 454/454/454 455/455/455 453/453/453
f 455/455/455 454/454/454 456/456/456
f 453/453/453 457/457/457 451/451/451
f 453/453/453 458/458/458 457/457/457
f 459/459/459 458/458/458 453/453/453
f 459/459/459 453/453/453 455/455/455
f 451/451/451 457/457/457 460/460/460
f 461/461/461 459/459/459 455/455/455
f 455/455/455 456/456/456 462/462/462
f 461/461/461 455/455/455 462/462/462
f 463/463/463 462/462/462 456/456/456
f 463/463/463 461/461/461 462/462/462
f 463/463/463 456/456/456 464/464/464
f 463/463/463 465/465/465 461/461/461
f 466/466/466 463/463/463 464/464/464
f 466/466/466 465/465/465 463/463/463
f 466/466/466 467/467/467 465/465/465
f 466/466/466 464/464/464 468/468/468
f 469/469/469 467/467/467 466/466/466
f 470/470/470 466/466/466 468/468/468
f 469/469/469 466/466/466 470/470/470
f 470/470/470 468/468/468 471/471/471
f 469/469/469 470/470/470 472/472/472
f 472/472/472 470/470/470 471/471/471
f 472/472/472 471/471/471 473/473/473
f 474/474/474 472/472/472 473/473/473
f 469/469/469 472/472/472 475/475/475
f 474/474/474 476/476/476 472/472/472
f 476/476/476 475/475/475 472/472/472
f 476/476/476 477/477/477 475/475/475
f 480/480/480 479/479/479 478/478/478
f 480/480/480 481/481/481 479/479/479
f 481/481/481 480/480/480 482/482/482
f 483/483/483 479/479/479 481/481/481
f 483/483/483 484/484/484 479/479/479
f 485/485/485 483/483/483 481/481/481
f 481/481/481 482/482/482 486/486/486
f 485/485/485 481/481/481 486/486/486
f 487/487/487 486/486/486 482/482/482
f 487/487/487 485/485/485 486/486/486
f 487/487/487 482/482/482 488/488/488
f 487/487/487 489/489/489 485/485/485
f 490/490/490 487/487/487 488/488/488
f 490/490/490 489/489/489 487/487/487
f 490/490/490 488/488/488 491/491/491
f 490/490/490 492/492/492 489/489/489
f 460/460/460 494/494/494 493/493/493
f 460/460/460 493/493/493 495/495/495
f 451/451/451 460/460/460 495/495/495
f 495/495/495 493/493/493 496/496/496
f 451/451/451 495/495/495 497/497/497
f 495/495/495 496/496/496 497/497/497
f 500/500/500 499/499/499 498/498/498
f 500/500/500 498/498/498 501/501/501
f 501/501/501 498/498/498 502/502/502
f 501/501/501 502/502/502 503/503/503
f 501/501/501 503/503/503 504/504/504
f 501/501/501 505/505/505 500/500/500
f 501/501/501 504/504/504 506/506/506
f 501/501/501 506/506/506 505/505/505
f 507/507/507 505/505/505 506/506/506
f 508/508/508 507/507/507 506/506/506
f 507/507/507 509/509/509 505/505/505
f 510/510/510 507/507/507 508/508/508
f 511/511/511 509/509/509 507/507/507
f 510/510/510 512/512/512 507/507/507
f 511/511/511 507/507/507 512/512/512
f 512/512/512 510/510/510 513/513/513
f 514/514/514 511/511/511 512/512/512
f 512/512/512 513/513/513 515/515/515
f 514/514/514 512/512/512 515/515/515
f 516/516/516 515/515/515 513/513/513
f 516/516/516 514/514/514 515/515/515
f 516/516/516 513/513/513 517/517/517
f 516/516/516 518/518/518 514/514/514
f 519/519/519 516/516/516 517/517/517
f 519/519/519 518/518/518 516/516/516
f 519/519/519 520/520/520 518/518/518
f 519/519/519 517/517/517 521/521/521
f 522/522/522 520/520/520 519/519/519
f 523/523/523 519/519/519 521/521/521
f 522/522/522 519/519/519 523/523/523
f 523/523/523 521/521/521 524/524/524
f 523/523/523 524/524/524 525/525/525
f 526/526/526 522/522/522 523/523/523
f 523/523/523 525/525/525 527/527/527
f 526/526/526 523/523/523 527/527/527
f 528/528/528 527/527/527 525/525/525
f 528/528/528 529/529/529 527/527/527
f 529/529/529 526/526/526 527/527/527
f 529/529/529 530/530/530 526/526/526
f 533/533/533 532/532/532 531/531/531
f 533/533/533 534/534/534 532/532/532
f 535/535/535 534/534/534 533/533/533
f 535/535/535 536/536/536 534/534/534
f 537/537/537 536/536/536 535/535/535
f 537/537/537 538/538/538 536/536/536
f 538/538/538 537/537/537 539/539/539
f 538/538/538 539/539/539 540/540/540
f 539/539/539 541/541/541 540/540/540
f 539/539/539 542/542/542 541/541/541
f 543/543/543 541/541/541 542/542/542
f 543/543/543 542/542/542 544/544/544
f 543/543/543 544/544/544 545/545/545
f 543/543/543 545/545/545 546/546/546
