g Bouys
v -0.2118358 -1.525879E-07 0.03305176
v -0.2279603 0.08204635 0.03556763
v -0.2083583 -1.525879E-07 -0.05052979
v -0.2242192 0.08204666 -0.05437683
v -0.2738799 0.1516023 0.04273132
v -0.1731612 -1.525879E-07 -0.1264203
v -0.2693852 0.1516023 -0.0653302
v -0.3426042 0.1980778 0.0534552
v -0.186342 0.08204635 -0.1360413
v -0.1116014 -1.525879E-07 -0.1830621
v -0.3369817 0.1980778 -0.08172363
v -0.4236708 0.214398 0.06610351
v -0.1200966 0.08204635 -0.1969958
v -0.03305191 -1.525879E-07 -0.2118347
v -0.03556686 0.08204635 -0.2279608
v -0.223878 0.1516023 -0.1634454
v -0.1442894 0.1516023 -0.2366791
v -0.04273209 0.1516023 -0.2738794
v -0.4167171 0.214398 -0.101062
v -0.5047362 0.1980778 0.07875061
v -0.2800569 0.1980778 -0.2044586
v -0.1804945 0.1980778 -0.2960687
v -0.05345444 0.1980778 -0.3426037
v -0.4964522 0.1980778 -0.1203992
v -0.5734611 0.1516023 0.08947265
v -0.3463219 0.214398 -0.2528387
v -0.2232027 0.214398 -0.3661243
v -0.06610245 0.214398 -0.4236706
v -0.5640489 0.1516023 -0.1367902
v -0.6193804 0.08204635 0.09663696
v -0.4125859 0.1980778 -0.3012176
v -0.2659102 0.1980778 -0.4361792
v -0.07875076 0.1980778 -0.5047357
v -0.6092143 0.08204635 -0.1477454
v -0.6355055 -1.525879E-07 0.09915344
v -0.4687651 0.1516023 -0.3422308
v -0.3021165 0.1516023 -0.4955676
v -0.08947342 0.1516023 -0.5734594
v -0.6250749 -1.525879E-07 -0.1515912
v -0.6193804 -0.08204666 0.09663696
v -0.5063017 0.08204635 -0.3696344
v -0.3263091 0.08204635 -0.5352508
v -0.09663742 0.08204635 -0.6193786
v -0.6092143 -0.08204666 -0.1477454
v -0.5734611 -0.1516026 0.08947265
v -0.519482 -1.525879E-07 -0.379259
v -0.3348039 -1.525879E-07 -0.5491858
v -0.09915298 -1.525879E-07 -0.6355054
v -0.5640477 -0.1516026 -0.1367902
v -0.5047355 -0.1980778 0.07875061
v -0.5063017 -0.08204666 -0.3696344
v -0.3263091 -0.08204666 -0.5352508
v -0.09663742 -0.08204666 -0.6193786
v -0.4964522 -0.1980778 -0.1203992
v -0.4236702 -0.214398 0.06610291
v -0.4687651 -0.1516026 -0.3422308
v -0.3021171 -0.1516026 -0.4955664
v -0.08947311 -0.1516026 -0.5734589
v -0.4167171 -0.214398 -0.101062
v -0.3426042 -0.1980778 0.0534552
v -0.4125859 -0.1980778 -0.3012176
v -0.2659102 -0.1980778 -0.4361792
v -0.07875076 -0.1980778 -0.5047357
v -0.3369817 -0.1980778 -0.08172363
v -0.2738799 -0.1516023 0.04273132
v -0.3463213 -0.214398 -0.2528387
v -0.223203 -0.214398 -0.3661231
v -0.06610245 -0.214398 -0.4236706
v -0.2693852 -0.1516023 -0.0653302
v -0.2279597 -0.08204635 0.03556824
v -0.2800569 -0.1980778 -0.2044586
v -0.1804945 -0.1980778 -0.2960687
v -0.05345444 -0.1980778 -0.3426037
v -0.2242192 -0.08204635 -0.05437683
v -0.2118358 -1.525879E-07 0.03305176
v -0.2083583 -1.525879E-07 -0.05052979
v -0.223878 -0.1516023 -0.1634454
v -0.1442888 -0.1516023 -0.2366785
v -0.04273209 -0.1516023 -0.2738794
v -0.186342 -0.08204635 -0.1360413
v -0.1731612 -1.525879E-07 -0.1264203
v -0.1200966 -0.08204635 -0.1969958
v -0.03556686 -0.08204635 -0.2279608
v -0.1116014 -1.525879E-07 -0.1830621
v -0.03305191 -1.525879E-07 -0.2118347
v 0.033051 -1.525879E-07 0.2118353
v 0.03556747 0.08204635 0.2279602
v -0.05053177 -1.525879E-07 0.2083588
v -0.05437759 0.08204666 0.2242187
v 0.04273209 0.1516023 0.27388
v -0.1264195 -1.525879E-07 0.1731616
v -0.06533096 0.1516023 0.2693854
v 0.05345505 0.1980778 0.342605
v -0.1360429 0.08204635 0.1863422
v -0.1830617 -1.525879E-07 0.1116003
v -0.08172409 0.1980778 0.3369812
v 0.06610153 0.214398 0.4236694
v -0.1969972 0.08204635 0.1200977
v -0.2118358 -1.525879E-07 0.03305176
v -0.2279603 0.08204635 0.03556763
v -0.1634468 0.1516023 0.2238788
v -0.2366798 0.1516023 0.1442889
v -0.2738799 0.1516023 0.04273132
v -0.1010622 0.214398 0.4167169
v 0.07874984 0.1980778 0.5047363
v -0.2044603 0.1980778 0.2800555
v -0.2960698 0.1980778 0.1804944
v -0.3426042 0.1980778 0.0534552
v -0.1203987 0.1980778 0.496452
v 0.0894725 0.1516023 0.57346
v -0.2528395 0.214398 0.346322
v -0.3661247 0.214398 0.2232019
v -0.4236708 0.214398 0.06610351
v -0.1367912 0.1516023 0.5640491
v 0.09663681 0.08204635 0.6193811
v -0.3012181 0.1980778 0.4125879
v -0.4361796 0.1980778 0.2659094
v -0.5047362 0.1980778 0.07875061
v -0.1477455 0.08204635 0.6092157
v 0.09915329 -1.525879E-07 0.6355054
v -0.342231 0.1516023 0.4687659
v -0.495569 0.1516023 0.3021161
v -0.5734611 0.1516023 0.08947265
v -0.1515919 -1.525879E-07 0.625075
v 0.09663681 -0.08204666 0.6193811
v -0.3696348 0.08204635 0.5063019
v -0.5352516 0.08204635 0.3263092
v -0.6193804 0.08204635 0.09663696
v -0.1477461 -0.08204666 0.6092157
v 0.0894725 -0.1516026 0.57346
v -0.3792571 -1.525879E-07 0.5194824
v -0.5491865 -1.525879E-07 0.3348035
v -0.6355055 -1.525879E-07 0.09915344
v -0.1367912 -0.1516026 0.5640491
v 0.07874984 -0.1980778 0.5047363
v -0.3696348 -0.08204666 0.5063019
v -0.5352516 -0.08204666 0.3263092
v -0.6193804 -0.08204666 0.09663696
v -0.1203987 -0.1980778 0.496452
v 0.06610153 -0.214398 0.4236694
v -0.342231 -0.1516026 0.4687659
v -0.495569 -0.1516026 0.3021161
v -0.5734611 -0.1516026 0.08947265
v -0.1010616 -0.214398 0.4167163
v 0.05345505 -0.1980778 0.342605
v -0.3012181 -0.1980778 0.4125879
v -0.4361796 -0.1980778 0.2659094
v -0.5047355 -0.1980778 0.07875061
v -0.08172409 -0.1980778 0.3369812
v 0.04273209 -0.1516023 0.27388
v -0.2528395 -0.214398 0.3463214
v -0.3661247 -0.214398 0.2232019
v -0.4236702 -0.214398 0.06610291
v -0.06533096 -0.1516023 0.2693854
v 0.03556747 -0.08204635 0.2279602
v -0.2044603 -0.1980778 0.2800555
v -0.2960692 -0.1980778 0.1804944
v -0.3426042 -0.1980778 0.0534552
v -0.05437759 -0.08204635 0.2242187
v 0.033051 -1.525879E-07 0.2118353
v -0.05053177 -1.525879E-07 0.2083588
v -0.1634468 -0.1516023 0.2238788
v -0.2366798 -0.1516023 0.1442889
v -0.2738799 -0.1516023 0.04273132
v -0.1360429 -0.08204635 0.1863422
v -0.1264195 -1.525879E-07 0.1731616
v -0.1969972 -0.08204635 0.1200977
v -0.2279597 -0.08204635 0.03556824
v -0.1830617 -1.525879E-07 0.1116003
v -0.2118358 -1.525879E-07 0.03305176
v 0.211834 -1.525879E-07 -0.03305115
v 0.227961 0.08204635 -0.03556763
v 0.2083589 -1.525879E-07 0.05053039
v 0.224218 0.08204666 0.05437805
v 0.2738795 0.1516023 -0.04273132
v 0.1731596 -1.525879E-07 0.1264191
v 0.2693849 0.1516023 0.06533081
v 0.3426036 0.1980778 -0.05345398
v 0.1863414 0.08204635 0.1360437
v 0.1116005 -1.525879E-07 0.1830621
v 0.3369804 0.1980778 0.08172424
v 0.4236702 0.214398 -0.0661023
v 0.1200966 0.08204635 0.1969977
v 0.033051 -1.525879E-07 0.2118353
v 0.03556747 0.08204635 0.2279602
v 0.223878 0.1516023 0.1634473
v 0.1442891 0.1516023 0.2366803
v 0.04273209 0.1516023 0.27388
v 0.4167158 0.214398 0.1010614
v 0.5047362 0.1980778 -0.07875
v 0.2800557 0.1980778 0.2044617
v 0.1804939 0.1980778 0.2960699
v 0.05345505 0.1980778 0.342605
v 0.4964513 0.1980778 0.1203986
v 0.5734599 0.1516023 -0.08947144
v 0.3463213 0.214398 0.25284
v 0.2232014 0.214398 0.3661243
v 0.06610153 0.214398 0.4236694
v 0.5640483 0.1516023 0.1367926
v 0.6193804 0.08204635 -0.09663818
v 0.4125877 0.1980778 0.3012176
v 0.2659105 0.1980778 0.4361792
v 0.07874984 0.1980778 0.5047363
v 0.6092149 0.08204635 0.147746
v 0.6355055 -1.525879E-07 -0.09915344
v 0.4687645 0.1516023 0.3422302
v 0.3021156 0.1516023 0.4955694
v 0.0894725 0.1516023 0.57346
v 0.625074 -1.525879E-07 0.1515918
v 0.6193804 -0.08204666 -0.09663818
v 0.5063017 0.08204635 0.3696362
v 0.3263069 0.08204635 0.5352533
v 0.09663681 0.08204635 0.6193811
v 0.6092149 -0.08204666 0.147746
v 0.5734599 -0.1516026 -0.08947144
v 0.519482 -1.525879E-07 0.3792596
v 0.3348033 -1.525879E-07 0.5491858
v 0.09915329 -1.525879E-07 0.6355054
v 0.5640477 -0.1516026 0.1367926
v 0.5047355 -0.1980778 -0.07875
v 0.5063011 -0.08204666 0.3696356
v 0.3263069 -0.08204666 0.5352533
v 0.09663681 -0.08204666 0.6193811
v 0.4964513 -0.1980778 0.1203986
v 0.4236699 -0.214398 -0.06610291
v 0.4687645 -0.1516026 0.3422302
v 0.3021153 -0.1516026 0.4955701
v 0.0894725 -0.1516026 0.57346
v 0.4167158 -0.214398 0.1010614
v 0.3426036 -0.1980778 -0.05345398
v 0.4125877 -0.1980778 0.3012176
v 0.2659105 -0.1980778 0.4361792
v 0.07874984 -0.1980778 0.5047363
v 0.3369804 -0.1980778 0.08172424
v 0.2738795 -0.1516023 -0.04273132
v 0.3463213 -0.214398 0.25284
v 0.2232018 -0.214398 0.3661231
v 0.06610153 -0.214398 0.4236694
v 0.2693849 -0.1516023 0.06533081
v 0.227961 -0.08204635 -0.03556763
v 0.2800557 -0.1980778 0.2044617
v 0.1804939 -0.1980778 0.2960699
v 0.05345505 -0.1980778 0.342605
v 0.2242177 -0.08204635 0.05437805
v 0.211834 -1.525879E-07 -0.03305115
v 0.2083589 -1.525879E-07 0.05053039
v 0.223878 -0.1516023 0.1634473
v 0.1442885 -0.1516023 0.2366803
v 0.04273209 -0.1516023 0.27388
v 0.1863417 -0.08204635 0.1360431
v 0.1731596 -1.525879E-07 0.1264191
v 0.1200966 -0.08204635 0.1969977
v 0.03556747 -0.08204635 0.2279602
v 0.1116005 -1.525879E-07 0.1830621
v 0.033051 -1.525879E-07 0.2118353
v -0.03305191 -1.525879E-07 -0.2118347
v -0.03556686 0.08204635 -0.2279608
v 0.05052994 -1.525879E-07 -0.2083575
v 0.05437637 0.08204666 -0.2242175
v -0.04273209 0.1516023 -0.2738794
v 0.1264189 -1.525879E-07 -0.1731604
v 0.06532943 0.1516023 -0.2693841
v -0.05345444 0.1980778 -0.3426037
v 0.136042 0.08204635 -0.1863409
v 0.1830623 -1.525879E-07 -0.1115997
v 0.08172409 0.1980778 -0.3369812
v -0.06610245 0.214398 -0.4236706
v 0.1969963 0.08204635 -0.1200958
v 0.211834 -1.525879E-07 -0.03305115
v 0.227961 0.08204635 -0.03556763
v 0.1634459 0.1516023 -0.2238788
v 0.2366795 0.1516023 -0.1442871
v 0.2738795 0.1516023 -0.04273132
v 0.1010609 0.214398 -0.4167157
v -0.07875076 0.1980778 -0.5047357
v 0.2044603 0.1980778 -0.2800561
v 0.2960686 0.1980778 -0.1804938
v 0.3426036 0.1980778 -0.05345398
v 0.1203984 0.1980778 -0.4964526
v -0.08947342 0.1516023 -0.5734594
v 0.2528383 0.214398 -0.3463208
v 0.3661238 0.214398 -0.2232019
v 0.4236702 0.214398 -0.0661023
v 0.1367912 0.1516023 -0.564046
v -0.09663742 0.08204635 -0.6193786
v 0.3012175 0.1980778 -0.4125873
v 0.4361784 0.1980778 -0.2659088
v 0.5047362 0.1980778 -0.07875
v 0.1477443 0.08204635 -0.6092138
v -0.09915298 -1.525879E-07 -0.6355054
v 0.3422301 0.1516023 -0.4687634
v 0.4955684 0.1516023 -0.3021149
v 0.5734599 0.1516023 -0.08947144
v 0.1515916 -1.525879E-07 -0.625075
v -0.09663742 -0.08204666 -0.6193786
v 0.3696348 0.08204635 -0.5063
v 0.535251 0.08204635 -0.326308
v 0.6193804 0.08204635 -0.09663818
v 0.1477443 -0.08204666 -0.6092138
v -0.08947311 -0.1516026 -0.5734589
v 0.3792571 -1.525879E-07 -0.5194824
v 0.5491865 -1.525879E-07 -0.334801
v 0.6355055 -1.525879E-07 -0.09915344
v 0.1367912 -0.1516026 -0.564046
v -0.07875076 -0.1980778 -0.5047357
v 0.3696348 -0.08204666 -0.5063
v 0.535251 -0.08204666 -0.326308
v 0.6193804 -0.08204666 -0.09663818
v 0.1203978 -0.1980778 -0.496452
v -0.06610245 -0.214398 -0.4236706
v 0.3422301 -0.1516026 -0.4687634
v 0.4955684 -0.1516026 -0.3021149
v 0.5734599 -0.1516026 -0.08947144
v 0.1010612 -0.214398 -0.4167157
v -0.05345444 -0.1980778 -0.3426037
v 0.3012175 -0.1980778 -0.4125873
v 0.4361784 -0.1980778 -0.2659088
v 0.5047355 -0.1980778 -0.07875
v 0.08172409 -0.1980778 -0.3369812
v -0.04273209 -0.1516023 -0.2738794
v 0.2528383 -0.214398 -0.3463208
v 0.3661238 -0.214398 -0.2232019
v 0.4236699 -0.214398 -0.06610291
v 0.06532943 -0.1516023 -0.2693841
v -0.03556686 -0.08204635 -0.2279608
v 0.2044603 -0.1980778 -0.2800561
v 0.2960686 -0.1980778 -0.1804938
v 0.3426036 -0.1980778 -0.05345398
v 0.05437607 -0.08204635 -0.2242169
v -0.03305191 -1.525879E-07 -0.2118347
v 0.05052994 -1.525879E-07 -0.2083575
v 0.1634459 -0.1516023 -0.2238788
v 0.2366795 -0.1516023 -0.1442871
v 0.2738795 -0.1516023 -0.04273132
v 0.136042 -0.08204635 -0.1863409
v 0.1264189 -1.525879E-07 -0.1731604
v 0.1969963 -0.08204635 -0.1200958
v 0.227961 -0.08204635 -0.03556763
v 0.1830623 -1.525879E-07 -0.1115997
v 0.211834 -1.525879E-07 -0.03305115
vt 0.8271484 0.9541016
vt 0.8276367 0.9536133
vt 0.8271484 0.9541016
vt 0.8271484 0.9536133
vt 0.8276367 0.9536133
vt 0.8266602 0.9541016
vt 0.8271484 0.953125
vt 0.828125 0.953125
vt 0.8266602 0.9536133
vt 0.8261719 0.9541016
vt 0.8271484 0.9526367
vt 0.828125 0.9526367
vt 0.8261719 0.9536133
vt 0.8256836 0.9541016
vt 0.8256836 0.9536133
vt 0.8266602 0.953125
vt 0.8256836 0.953125
vt 0.8251953 0.953125
vt 0.8271484 0.9521484
vt 0.8286133 0.9521484
vt 0.8266602 0.9526367
vt 0.8256836 0.9526367
vt 0.8251953 0.953125
vt 0.8276367 0.9521484
vt 0.8286133 0.9516602
vt 0.8266602 0.9521484
vt 0.8256836 0.9521484
vt 0.824707 0.9526367
vt 0.8276367 0.9516602
vt 0.8286133 0.9511719
vt 0.8266602 0.9516602
vt 0.8256836 0.9516602
vt 0.824707 0.9521484
vt 0.8276367 0.9511719
vt 0.8291016 0.9506836
vt 0.8266602 0.9516602
vt 0.8256836 0.9516602
vt 0.8242188 0.9516602
vt 0.8276367 0.9506836
vt 0.8291016 0.9501953
vt 0.8266602 0.9511719
vt 0.8256836 0.9511719
vt 0.8242188 0.9511719
vt 0.8276367 0.9501953
vt 0.8286133 0.949707
vt 0.8266602 0.9506836
vt 0.8256836 0.9506836
vt 0.8242188 0.9506836
vt 0.8276367 0.949707
vt 0.8286133 0.9492188
vt 0.8266602 0.9501953
vt 0.8256836 0.9501953
vt 0.8242188 0.9501953
vt 0.8276367 0.949707
vt 0.8286133 0.9487305
vt 0.8266602 0.949707
vt 0.8256836 0.949707
vt 0.824707 0.949707
vt 0.8276367 0.9492188
vt 0.828125 0.9482422
vt 0.8266602 0.949707
vt 0.8256836 0.9492188
vt 0.824707 0.9492188
vt 0.8276367 0.9487305
vt 0.828125 0.9482422
vt 0.8266602 0.9492188
vt 0.8256836 0.9492188
vt 0.8251953 0.9487305
vt 0.8271484 0.9482422
vt 0.8276367 0.9477539
vt 0.8266602 0.9487305
vt 0.8261719 0.9487305
vt 0.8251953 0.9482422
vt 0.8271484 0.9477539
vt 0.8276367 0.9472656
vt 0.8271484 0.9472656
vt 0.8266602 0.9482422
vt 0.8261719 0.9482422
vt 0.8256836 0.9482422
vt 0.8266602 0.9477539
vt 0.8266602 0.9472656
vt 0.8261719 0.9477539
vt 0.8256836 0.9477539
vt 0.8261719 0.9472656
vt 0.8256836 0.9472656
vt 0.9179688 0.9516602
vt 0.9179688 0.9516602
vt 0.9174805 0.9516602
vt 0.9174805 0.9511719
vt 0.918457 0.9511719
vt 0.9169922 0.9516602
vt 0.9179688 0.9506836
vt 0.918457 0.9506836
vt 0.9169922 0.9511719
vt 0.9165039 0.9516602
vt 0.9179688 0.9506836
vt 0.9189453 0.9501953
vt 0.9165039 0.9511719
vt 0.9165039 0.9516602
vt 0.9160156 0.9516602
vt 0.9169922 0.9506836
vt 0.9165039 0.9506836
vt 0.9160156 0.9511719
vt 0.9179688 0.9501953
vt 0.9189453 0.949707
vt 0.9169922 0.9501953
vt 0.9165039 0.9506836
vt 0.9155273 0.9506836
vt 0.9179688 0.949707
vt 0.9194336 0.949707
vt 0.9169922 0.9501953
vt 0.9165039 0.9501953
vt 0.9155273 0.9501953
vt 0.918457 0.9492188
vt 0.9194336 0.9492188
vt 0.9169922 0.949707
vt 0.9160156 0.949707
vt 0.9150391 0.949707
vt 0.918457 0.9487305
vt 0.9194336 0.9487305
vt 0.9169922 0.9492188
vt 0.9160156 0.9492188
vt 0.9150391 0.9492188
vt 0.918457 0.9482422
vt 0.9194336 0.9482422
vt 0.9169922 0.9487305
vt 0.9160156 0.9487305
vt 0.9150391 0.9487305
vt 0.918457 0.9482422
vt 0.9194336 0.9477539
vt 0.9169922 0.9482422
vt 0.9160156 0.9482422
vt 0.9150391 0.9482422
vt 0.918457 0.9477539
vt 0.9194336 0.9472656
vt 0.9169922 0.9482422
vt 0.9160156 0.9477539
vt 0.9150391 0.9477539
vt 0.918457 0.9472656
vt 0.9189453 0.9467773
vt 0.9169922 0.9477539
vt 0.9160156 0.9477539
vt 0.9150391 0.9472656
vt 0.9179688 0.9467773
vt 0.9189453 0.9462891
vt 0.9174805 0.9472656
vt 0.9165039 0.9472656
vt 0.9155273 0.9467773
vt 0.9179688 0.9462891
vt 0.918457 0.9458008
vt 0.9174805 0.9467773
vt 0.9165039 0.9467773
vt 0.9155273 0.9462891
vt 0.9179688 0.9458008
vt 0.918457 0.9453125
vt 0.9174805 0.9462891
vt 0.9165039 0.9462891
vt 0.9160156 0.9462891
vt 0.9179688 0.9453125
vt 0.9179688 0.9448242
vt 0.9179688 0.9453125
vt 0.9174805 0.9458008
vt 0.9165039 0.9458008
vt 0.9160156 0.9458008
vt 0.9174805 0.9453125
vt 0.9174805 0.9453125
vt 0.9169922 0.9453125
vt 0.9165039 0.9453125
vt 0.9169922 0.9453125
vt 0.9165039 0.9448242
vt 0.8305664 0.9467773
vt 0.8305664 0.9472656
vt 0.8310547 0.9467773
vt 0.8310547 0.9472656
vt 0.8305664 0.9477539
vt 0.831543 0.9467773
vt 0.8310547 0.9477539
vt 0.8300781 0.9477539
vt 0.831543 0.9472656
vt 0.8320313 0.9467773
vt 0.8310547 0.9482422
vt 0.8300781 0.9482422
vt 0.8320313 0.9472656
vt 0.8325195 0.9467773
vt 0.8325195 0.9472656
vt 0.831543 0.9477539
vt 0.8320313 0.9477539
vt 0.8330078 0.9477539
vt 0.8305664 0.9487305
vt 0.8295898 0.9487305
vt 0.831543 0.9482422
vt 0.8325195 0.9482422
vt 0.8330078 0.9482422
vt 0.8305664 0.9492188
vt 0.8295898 0.9492188
vt 0.831543 0.9487305
vt 0.8325195 0.9487305
vt 0.8334961 0.9482422
vt 0.8305664 0.9492188
vt 0.8291016 0.949707
vt 0.831543 0.9492188
vt 0.8325195 0.9492188
vt 0.8334961 0.9487305
vt 0.8305664 0.949707
vt 0.8291016 0.9501953
vt 0.831543 0.949707
vt 0.8325195 0.949707
vt 0.8339844 0.9492188
vt 0.8305664 0.9501953
vt 0.8291016 0.9506836
vt 0.831543 0.949707
vt 0.8325195 0.949707
vt 0.8339844 0.949707
vt 0.8305664 0.9506836
vt 0.8295898 0.9511719
vt 0.831543 0.9501953
vt 0.8325195 0.9501953
vt 0.8339844 0.9501953
vt 0.8305664 0.9511719
vt 0.8295898 0.9516602
vt 0.831543 0.9506836
vt 0.8325195 0.9506836
vt 0.8339844 0.9506836
vt 0.8305664 0.9516602
vt 0.8295898 0.9521484
vt 0.831543 0.9511719
vt 0.8325195 0.9511719
vt 0.8334961 0.9511719
vt 0.8305664 0.9516602
vt 0.8300781 0.9526367
vt 0.831543 0.9516602
vt 0.8325195 0.9516602
vt 0.8334961 0.9516602
vt 0.8305664 0.9521484
vt 0.8300781 0.953125
vt 0.831543 0.9516602
vt 0.8325195 0.9521484
vt 0.8330078 0.9521484
vt 0.8310547 0.9526367
vt 0.8305664 0.953125
vt 0.831543 0.9521484
vt 0.8320313 0.9521484
vt 0.8330078 0.9526367
vt 0.8310547 0.953125
vt 0.8305664 0.9536133
vt 0.8310547 0.9536133
vt 0.831543 0.9526367
vt 0.8320313 0.9526367
vt 0.8325195 0.953125
vt 0.831543 0.953125
vt 0.831543 0.9536133
vt 0.8320313 0.953125
vt 0.8325195 0.953125
vt 0.8320313 0.9536133
vt 0.8325195 0.9536133
vt 0.9213867 0.9448242
vt 0.9213867 0.9448242
vt 0.921875 0.9448242
vt 0.921875 0.9453125
vt 0.9208984 0.9453125
vt 0.9223633 0.9448242
vt 0.9213867 0.9453125
vt 0.9208984 0.9458008
vt 0.9223633 0.9453125
vt 0.9228516 0.9448242
vt 0.9213867 0.9458008
vt 0.9204102 0.9462891
vt 0.9228516 0.9453125
vt 0.9228516 0.9443359
vt 0.9233398 0.9448242
vt 0.9223633 0.9458008
vt 0.9228516 0.9453125
vt 0.9233398 0.9453125
vt 0.9213867 0.9462891
vt 0.9204102 0.9467773
vt 0.9223633 0.9458008
vt 0.9228516 0.9458008
vt 0.9238281 0.9458008
vt 0.9213867 0.9467773
vt 0.9199219 0.9467773
vt 0.9223633 0.9462891
vt 0.9228516 0.9462891
vt 0.9238281 0.9462891
vt 0.9208984 0.9472656
vt 0.9199219 0.9472656
vt 0.9223633 0.9467773
vt 0.9233398 0.9467773
vt 0.9243164 0.9467773
vt 0.9208984 0.9477539
vt 0.9199219 0.9477539
vt 0.9223633 0.9472656
vt 0.9233398 0.9472656
vt 0.9243164 0.9472656
vt 0.9208984 0.9482422
vt 0.9199219 0.9482422
vt 0.9223633 0.9477539
vt 0.9233398 0.9477539
vt 0.9243164 0.9477539
vt 0.9208984 0.9482422
vt 0.9199219 0.9487305
vt 0.9223633 0.9482422
vt 0.9233398 0.9482422
vt 0.9243164 0.9482422
vt 0.9208984 0.9487305
vt 0.9204102 0.9492188
vt 0.9223633 0.9482422
vt 0.9233398 0.9482422
vt 0.9243164 0.9487305
vt 0.9213867 0.9492188
vt 0.9204102 0.949707
vt 0.9223633 0.9487305
vt 0.9233398 0.9487305
vt 0.9243164 0.9492188
vt 0.9213867 0.949707
vt 0.9208984 0.9501953
vt 0.9223633 0.9492188
vt 0.9233398 0.9492188
vt 0.9243164 0.949707
vt 0.9213867 0.9501953
vt 0.9208984 0.9506836
vt 0.9223633 0.949707
vt 0.9228516 0.949707
vt 0.9238281 0.949707
vt 0.9213867 0.9506836
vt 0.9213867 0.9511719
vt 0.9223633 0.9501953
vt 0.9228516 0.9501953
vt 0.9233398 0.9501953
vt 0.921875 0.9511719
vt 0.9213867 0.9516602
vt 0.921875 0.9511719
vt 0.9223633 0.9506836
vt 0.9228516 0.9506836
vt 0.9233398 0.9506836
vt 0.9223633 0.9506836
vt 0.9223633 0.9511719
vt 0.9228516 0.9506836
vt 0.9233398 0.9511719
vt 0.9223633 0.9511719
vt 0.9228516 0.9516602
vn 0.9882813 -1.192093E-07 -0.1541748
vn 0.9042969 0.4030762 -0.1411133
vn 0.9716797 -2.980232E-07 0.2357178
vn 0.8896484 0.4030762 0.2156982
vn 0.6723633 0.7329102 -0.1049194
vn 0.8076172 0 0.5898438
vn 0.6611328 0.7329102 0.1604004
vn 0.3381348 0.9394531 -0.05276489
vn 0.7392578 0.4030762 0.5395508
vn 0.5205078 0 0.8540039
vn 0.3327637 0.9394531 0.08068848
vn -0.0423584 0.9990234 0.006607056
vn 0.4763184 0.4030762 0.78125
vn 0.1541748 5.960464E-07 0.9882813
vn 0.1411133 0.4030762 0.9042969
vn 0.5498047 0.7329102 0.4013672
vn 0.354248 0.7329102 0.5810547
vn 0.1049194 0.7329102 0.6723633
vn -0.04165649 0.9990234 -0.01010132
vn -0.4118652 0.9091797 0.06427002
vn 0.2766113 0.9394531 0.2019043
vn 0.1782227 0.9394531 0.2922363
vn 0.05276489 0.9394531 0.3381348
vn -0.4050293 0.9091797 -0.0982666
vn -0.7177734 0.6875 0.1119385
vn -0.03463745 0.9990234 -0.02528381
vn -0.02230835 0.9990234 -0.03659058
vn -0.006607056 0.9990234 -0.0423584
vn -0.7055664 0.6875 -0.1711426
vn -0.918457 0.3691406 0.1433105
vn -0.3366699 0.9091797 -0.2457275
vn -0.2169189 0.9091797 -0.355957
vn -0.06427002 0.9091797 -0.4118652
vn -0.9033203 0.3691406 -0.2189941
vn -0.9882813 0 0.1541748
vn -0.5864258 0.6875 -0.4282227
vn -0.3779297 0.6875 -0.6201172
vn -0.1119385 0.6875 -0.7177734
vn -0.9716797 1.192093E-07 -0.2357178
vn -0.918457 -0.3691406 0.1433105
vn -0.7504883 0.3691406 -0.5478516
vn -0.4836426 0.3691406 -0.793457
vn -0.1433105 0.3691406 -0.918457
vn -0.9033203 -0.3691406 -0.2189941
vn -0.7177734 -0.6875 0.1119385
vn -0.8076172 0 -0.5898438
vn -0.5205078 0 -0.8540039
vn -0.1541748 0 -0.9882813
vn -0.7055664 -0.6875 -0.1711426
vn -0.4118652 -0.9091797 0.06427002
vn -0.7504883 -0.3691406 -0.5478516
vn -0.4836426 -0.3691406 -0.793457
vn -0.1433105 -0.3691406 -0.918457
vn -0.4050293 -0.9091797 -0.09820557
vn -0.0423584 -0.9990234 0.006607056
vn -0.5864258 -0.6875 -0.4282227
vn -0.3779297 -0.6875 -0.6201172
vn -0.1119385 -0.6875 -0.7177734
vn -0.04165649 -0.9990234 -0.01010132
vn 0.3381348 -0.9394531 -0.05276489
vn -0.3366699 -0.9091797 -0.2457275
vn -0.2169189 -0.9091797 -0.355957
vn -0.06427002 -0.9091797 -0.4118652
vn 0.3327637 -0.9394531 0.08068848
vn 0.6723633 -0.7329102 -0.1049194
vn -0.03463745 -0.9990234 -0.02528381
vn -0.02230835 -0.9990234 -0.03659058
vn -0.006607056 -0.9990234 -0.0423584
vn 0.6611328 -0.7329102 0.1604004
vn 0.9042969 -0.4030762 -0.1411133
vn 0.2766113 -0.9394531 0.2019043
vn 0.1782227 -0.9394531 0.2922363
vn 0.05276489 -0.9394531 0.3381348
vn 0.8896484 -0.4030762 0.2156982
vn 0.9882813 -1.192093E-07 -0.1541748
vn 0.9716797 -2.980232E-07 0.2357178
vn 0.5498047 -0.7329102 0.4013672
vn 0.354248 -0.7329102 0.5810547
vn 0.1049194 -0.7329102 0.6723633
vn 0.7392578 -0.4030762 0.5395508
vn 0.8076172 0 0.5898438
vn 0.4763184 -0.4030762 0.78125
vn 0.1411133 -0.4030762 0.9042969
vn 0.5205078 0 0.8540039
vn 0.1541748 5.960464E-07 0.9882813
vn -0.1541748 0 -0.9882813
vn -0.1411133 0.4030762 -0.9042969
vn 0.2357178 0 -0.9716797
vn 0.2156982 0.4030762 -0.8896484
vn -0.1049194 0.7329102 -0.6723633
vn 0.5898438 1.192093E-07 -0.8076172
vn 0.1604004 0.7329102 -0.6611328
vn -0.05276489 0.9394531 -0.3381348
vn 0.5395508 0.4030762 -0.7392578
vn 0.8540039 2.980232E-07 -0.5205078
vn 0.08068848 0.9394531 -0.3327637
vn 0.006607056 0.9990234 0.0423584
vn 0.78125 0.4030762 -0.4763184
vn 0.9882813 -1.192093E-07 -0.1541748
vn 0.9042969 0.4030762 -0.1411133
vn 0.4013672 0.7329102 -0.5498047
vn 0.5810547 0.7329102 -0.354248
vn 0.6723633 0.7329102 -0.1049194
vn -0.01010132 0.9990234 0.04165649
vn 0.06427002 0.9091797 0.4118652
vn 0.2019043 0.9394531 -0.2766113
vn 0.2922363 0.9394531 -0.1782227
vn 0.3381348 0.9394531 -0.05276489
vn -0.0982666 0.9091797 0.4050293
vn 0.1119385 0.6875 0.7177734
vn -0.02528381 0.9990234 0.03463745
vn -0.03659058 0.9990234 0.02230835
vn -0.0423584 0.9990234 0.006607056
vn -0.1711426 0.6875 0.7055664
vn 0.1433105 0.3691406 0.918457
vn -0.2457275 0.9091797 0.3366699
vn -0.355957 0.9091797 0.2169189
vn -0.4118652 0.9091797 0.06427002
vn -0.2189941 0.3691406 0.9033203
vn 0.1541748 0 0.9882813
vn -0.4282227 0.6875 0.5864258
vn -0.6201172 0.6875 0.3779297
vn -0.7177734 0.6875 0.1119385
vn -0.2357178 -2.980232E-07 0.9716797
vn 0.1433105 -0.3691406 0.918457
vn -0.5478516 0.3691406 0.7504883
vn -0.793457 0.3691406 0.4836426
vn -0.918457 0.3691406 0.1433105
vn -0.2189941 -0.3691406 0.9033203
vn 0.1119385 -0.6875 0.7177734
vn -0.5898438 -5.960464E-07 0.8076172
vn -0.8540039 -1.192093E-07 0.5205078
vn -0.9882813 0 0.1541748
vn -0.1711426 -0.6875 0.7055664
vn 0.06427002 -0.9091797 0.4118652
vn -0.5478516 -0.3691406 0.7504883
vn -0.793457 -0.3691406 0.4836426
vn -0.918457 -0.3691406 0.1433105
vn -0.0982666 -0.9091797 0.4050293
vn 0.006607056 -0.9990234 0.0423584
vn -0.4282227 -0.6875 0.5864258
vn -0.6201172 -0.6875 0.3779297
vn -0.7177734 -0.6875 0.1119385
vn -0.01010132 -0.9990234 0.04165649
vn -0.05276489 -0.9394531 -0.3381348
vn -0.2457275 -0.9091797 0.3366699
vn -0.355957 -0.9091797 0.2169189
vn -0.4118652 -0.9091797 0.06427002
vn 0.08068848 -0.9394531 -0.3327637
vn -0.1049194 -0.7329102 -0.6723633
vn -0.02528381 -0.9990234 0.03460693
vn -0.03659058 -0.9990234 0.02230835
vn -0.0423584 -0.9990234 0.006607056
vn 0.1604004 -0.7329102 -0.6611328
vn -0.1411133 -0.4030762 -0.9042969
vn 0.2019043 -0.9394531 -0.2766113
vn 0.2922363 -0.9394531 -0.1782227
vn 0.3381348 -0.9394531 -0.05276489
vn 0.2156982 -0.4030762 -0.8896484
vn -0.1541748 0 -0.9882813
vn 0.2357178 0 -0.9716797
vn 0.4013672 -0.7329102 -0.5498047
vn 0.5810547 -0.7329102 -0.354248
vn 0.6723633 -0.7329102 -0.1049194
vn 0.5395508 -0.4030762 -0.7392578
vn 0.5898438 1.192093E-07 -0.8076172
vn 0.78125 -0.4030762 -0.4763184
vn 0.9042969 -0.4030762 -0.1411133
vn 0.8540039 2.980232E-07 -0.5205078
vn 0.9882813 -1.192093E-07 -0.1541748
vn -0.9882813 4.768372E-07 0.1541748
vn -0.9042969 0.4030762 0.1411133
vn -0.9716797 3.576279E-07 -0.2357178
vn -0.8896484 0.4030762 -0.2156982
vn -0.6723633 0.7329102 0.1049194
vn -0.8076172 1.192093E-06 -0.5898438
vn -0.6611328 0.7329102 -0.1604004
vn -0.3381348 0.9394531 0.05276489
vn -0.7392578 0.4030762 -0.5395508
vn -0.5205078 1.132488E-06 -0.8540039
vn -0.3327637 0.9394531 -0.08068848
vn 0.0423584 0.9990234 -0.006607056
vn -0.4763184 0.4030762 -0.78125
vn -0.1541748 0 -0.9882813
vn -0.1411133 0.4030762 -0.9042969
vn -0.5498047 0.7329102 -0.4013672
vn -0.354248 0.7329102 -0.5810547
vn -0.1049194 0.7329102 -0.6723633
vn 0.04165649 0.9990234 0.01010132
vn 0.4118652 0.9091797 -0.06427002
vn -0.2766113 0.9394531 -0.2019043
vn -0.1782227 0.9394531 -0.2922363
vn -0.05276489 0.9394531 -0.3381348
vn 0.4050293 0.9091797 0.0982666
vn 0.7177734 0.6875 -0.1119385
vn 0.03460693 0.9990234 0.02528381
vn 0.02230835 0.9990234 0.03659058
vn 0.006607056 0.9990234 0.0423584
vn 0.7055664 0.6875 0.1711426
vn 0.918457 0.3691406 -0.1433105
vn 0.3366699 0.9091797 0.2457275
vn 0.2169189 0.9091797 0.355957
vn 0.06427002 0.9091797 0.4118652
vn 0.9033203 0.3691406 0.2189941
vn 0.9882813 0 -0.1541748
vn 0.5864258 0.6875 0.4282227
vn 0.3779297 0.6875 0.6201172
vn 0.1119385 0.6875 0.7177734
vn 0.9716797 -5.960464E-07 0.2357178
vn 0.918457 -0.3691406 -0.1433105
vn 0.7504883 0.3691406 0.5478516
vn 0.4836426 0.3691406 0.793457
vn 0.1433105 0.3691406 0.918457
vn 0.9033203 -0.3691406 0.2189941
vn 0.7177734 -0.6875 -0.1119385
vn 0.8076172 -1.549721E-06 0.5898438
vn 0.5205078 -7.748604E-07 0.8540039
vn 0.1541748 0 0.9882813
vn 0.7055664 -0.6875 0.1711426
vn 0.4118652 -0.9091797 -0.06427002
vn 0.7504883 -0.3691406 0.5478516
vn 0.4836426 -0.3691406 0.793457
vn 0.1433105 -0.3691406 0.918457
vn 0.4050293 -0.9091797 0.09820557
vn 0.0423584 -0.9990234 -0.006607056
vn 0.5864258 -0.6875 0.4282227
vn 0.3779297 -0.6875 0.6201172
vn 0.1119385 -0.6875 0.7177734
vn 0.04165649 -0.9990234 0.01010132
vn -0.3381348 -0.9394531 0.05276489
vn 0.3366699 -0.9091797 0.2457275
vn 0.2169189 -0.9091797 0.355957
vn 0.06427002 -0.9091797 0.4118652
vn -0.3327637 -0.9394531 -0.08068848
vn -0.6723633 -0.7329102 0.1049194
vn 0.03463745 -0.9990234 0.02528381
vn 0.02230835 -0.9990234 0.03659058
vn 0.006607056 -0.9990234 0.0423584
vn -0.6611328 -0.7329102 -0.1604004
vn -0.9042969 -0.4030762 0.1411133
vn -0.2766113 -0.9394531 -0.2019043
vn -0.1782227 -0.9394531 -0.2922363
vn -0.05276489 -0.9394531 -0.3381348
vn -0.8896484 -0.4030762 -0.2156982
vn -0.9882813 4.768372E-07 0.1541748
vn -0.9716797 3.576279E-07 -0.2357178
vn -0.5498047 -0.7329102 -0.4013672
vn -0.354248 -0.7329102 -0.5810547
vn -0.1049194 -0.7329102 -0.6723633
vn -0.7392578 -0.4030762 -0.5395508
vn -0.8076172 1.192093E-06 -0.5898438
vn -0.4763184 -0.4030762 -0.78125
vn -0.1411133 -0.4030762 -0.9042969
vn -0.5205078 1.132488E-06 -0.8540039
vn -0.1541748 0 -0.9882813
vn 0.1541748 5.960464E-07 0.9882813
vn 0.1411133 0.4030762 0.9042969
vn -0.2357178 1.251698E-06 0.9716797
vn -0.2156982 0.4030762 0.8896484
vn 0.1049194 0.7329102 0.6723633
vn -0.5898438 7.748604E-07 0.8076172
vn -0.1604004 0.7329102 0.6611328
vn 0.05276489 0.9394531 0.3381348
vn -0.5395508 0.4030762 0.7392578
vn -0.8540039 2.980232E-07 0.5205078
vn -0.08068848 0.9394531 0.3327637
vn -0.006607056 0.9990234 -0.0423584
vn -0.78125 0.4030762 0.4763184
vn -0.9882813 4.768372E-07 0.1541748
vn -0.9042969 0.4030762 0.1411133
vn -0.4013672 0.7329102 0.5498047
vn -0.5810547 0.7329102 0.354248
vn -0.6723633 0.7329102 0.1049194
vn 0.01010132 0.9990234 -0.04165649
vn -0.06427002 0.9091797 -0.4118652
vn -0.2019043 0.9394531 0.2766113
vn -0.2922363 0.9394531 0.1782227
vn -0.3381348 0.9394531 0.05276489
vn 0.0982666 0.9091797 -0.4050293
vn -0.1119385 0.6875 -0.7177734
vn 0.02528381 0.9990234 -0.03463745
vn 0.03659058 0.9990234 -0.02230835
vn 0.0423584 0.9990234 -0.006607056
vn 0.1711426 0.6875 -0.7055664
vn -0.1433105 0.3691406 -0.918457
vn 0.2457275 0.9091797 -0.3366699
vn 0.355957 0.9091797 -0.2169189
vn 0.4118652 0.9091797 -0.06427002
vn 0.2189941 0.3691406 -0.9033203
vn -0.1541748 0 -0.9882813
vn 0.4282227 0.6875 -0.5864258
vn 0.6201172 0.6875 -0.3779297
vn 0.7177734 0.6875 -0.1119385
vn 0.2357178 5.364418E-07 -0.9716797
vn -0.1433105 -0.3691406 -0.918457
vn 0.5478516 0.3691406 -0.7504883
vn 0.793457 0.3691406 -0.4836426
vn 0.918457 0.3691406 -0.1433105
vn 0.2189941 -0.3691406 -0.9033203
vn -0.1119385 -0.6875 -0.7177734
vn 0.5898438 2.384186E-07 -0.8076172
vn 0.8540039 0 -0.5205078
vn 0.9882813 0 -0.1541748
vn 0.1711426 -0.6875 -0.7055664
vn -0.06427002 -0.9091797 -0.4118652
vn 0.5478516 -0.3691406 -0.7504883
vn 0.793457 -0.3691406 -0.4836426
vn 0.918457 -0.3691406 -0.1433105
vn 0.09820557 -0.9091797 -0.4050293
vn -0.006607056 -0.9990234 -0.0423584
vn 0.4282227 -0.6875 -0.5864258
vn 0.6201172 -0.6875 -0.3779297
vn 0.7177734 -0.6875 -0.1119385
vn 0.01010132 -0.9990234 -0.04165649
vn 0.05276489 -0.9394531 0.3381348
vn 0.2457275 -0.9091797 -0.3366699
vn 0.355957 -0.9091797 -0.2169189
vn 0.4118652 -0.9091797 -0.06427002
vn -0.08068848 -0.9394531 0.3327637
vn 0.1049194 -0.7329102 0.6723633
vn 0.02526855 -0.9990234 -0.03460693
vn 0.03659058 -0.9990234 -0.02230835
vn 0.0423584 -0.9990234 -0.006607056
vn -0.1604004 -0.7329102 0.6611328
vn 0.1411133 -0.4030762 0.9042969
vn -0.2019043 -0.9394531 0.2766113
vn -0.2922363 -0.9394531 0.1782227
vn -0.3381348 -0.9394531 0.05276489
vn -0.2156982 -0.4030762 0.8896484
vn 0.1541748 5.960464E-07 0.9882813
vn -0.2357178 1.251698E-06 0.9716797
vn -0.4013672 -0.7329102 0.5498047
vn -0.5810547 -0.7329102 0.354248
vn -0.6723633 -0.7329102 0.1049194
vn -0.5395508 -0.4030762 0.7392578
vn -0.5898438 7.748604E-07 0.8076172
vn -0.78125 -0.4030762 0.4763184
vn -0.9042969 -0.4030762 0.1411133
vn -0.8540039 2.980232E-07 0.5205078
vn -0.9882813 4.768372E-07 0.1541748
g Bouys_0
f 3/3/3 2/2/2 1/1/1
f 3/3/3 4/4/4 2/2/2
f 4/4/4 5/5/5 2/2/2
f 6/6/6 4/4/4 3/3/3
f 4/4/4 7/7/7 5/5/5
f 7/7/7 8/8/8 5/5/5
f 6/6/6 9/9/9 4/4/4
f 9/9/9 7/7/7 4/4/4
f 10/10/10 9/9/9 6/6/6
f 7/7/7 11/11/11 8/8/8
f 11/11/11 12/12/12 8/8/8
f 10/10/10 13/13/13 9/9/9
f 14/14/14 13/13/13 10/10/10
f 14/14/14 15/15/15 13/13/13
f 9/9/9 16/16/16 7/7/7
f 13/13/13 16/16/16 9/9/9
f 16/16/16 11/11/11 7/7/7
f 15/15/15 17/17/17 13/13/13
f 13/13/13 17/17/17 16/16/16
f 15/15/15 18/18/18 17/17/17
f 11/11/11 19/19/19 12/12/12
f 19/19/19 20/20/20 12/12/12
f 16/16/16 21/21/21 11/11/11
f 17/17/17 21/21/21 16/16/16
f 21/21/21 19/19/19 11/11/11
f 18/18/18 22/22/22 17/17/17
f 17/17/17 22/22/22 21/21/21
f 18/18/18 23/23/23 22/22/22
f 19/19/19 24/24/24 20/20/20
f 24/24/24 25/25/25 20/20/20
f 21/21/21 26/26/26 19/19/19
f 22/22/22 26/26/26 21/21/21
f 26/26/26 24/24/24 19/19/19
f 23/23/23 27/27/27 22/22/22
f 22/22/22 27/27/27 26/26/26
f 23/23/23 28/28/28 27/27/27
f 24/24/24 29/29/29 25/25/25
f 29/29/29 30/30/30 25/25/25
f 26/26/26 31/31/31 24/24/24
f 27/27/27 31/31/31 26/26/26
f 31/31/31 29/29/29 24/24/24
f 28/28/28 32/32/32 27/27/27
f 27/27/27 32/32/32 31/31/31
f 28/28/28 33/33/33 32/32/32
f 29/29/29 34/34/34 30/30/30
f 34/34/34 35/35/35 30/30/30
f 31/31/31 36/36/36 29/29/29
f 32/32/32 36/36/36 31/31/31
f 36/36/36 34/34/34 29/29/29
f 33/33/33 37/37/37 32/32/32
f 32/32/32 37/37/37 36/36/36
f 33/33/33 38/38/38 37/37/37
f 34/34/34 39/39/39 35/35/35
f 39/39/39 40/40/40 35/35/35
f 36/36/36 41/41/41 34/34/34
f 37/37/37 41/41/41 36/36/36
f 41/41/41 39/39/39 34/34/34
f 38/38/38 42/42/42 37/37/37
f 37/37/37 42/42/42 41/41/41
f 38/38/38 43/43/43 42/42/42
f 39/39/39 44/44/44 40/40/40
f 44/44/44 45/45/45 40/40/40
f 41/41/41 46/46/46 39/39/39
f 42/42/42 46/46/46 41/41/41
f 46/46/46 44/44/44 39/39/39
f 43/43/43 47/47/47 42/42/42
f 42/42/42 47/47/47 46/46/46
f 43/43/43 48/48/48 47/47/47
f 44/44/44 49/49/49 45/45/45
f 49/49/49 50/50/50 45/45/45
f 46/46/46 51/51/51 44/44/44
f 47/47/47 51/51/51 46/46/46
f 51/51/51 49/49/49 44/44/44
f 48/48/48 52/52/52 47/47/47
f 47/47/47 52/52/52 51/51/51
f 48/48/48 53/53/53 52/52/52
f 49/49/49 54/54/54 50/50/50
f 54/54/54 55/55/55 50/50/50
f 51/51/51 56/56/56 49/49/49
f 52/52/52 56/56/56 51/51/51
f 56/56/56 54/54/54 49/49/49
f 53/53/53 57/57/57 52/52/52
f 52/52/52 57/57/57 56/56/56
f 53/53/53 58/58/58 57/57/57
f 54/54/54 59/59/59 55/55/55
f 59/59/59 60/60/60 55/55/55
f 56/56/56 61/61/61 54/54/54
f 57/57/57 61/61/61 56/56/56
f 61/61/61 59/59/59 54/54/54
f 58/58/58 62/62/62 57/57/57
f 57/57/57 62/62/62 61/61/61
f 58/58/58 63/63/63 62/62/62
f 59/59/59 64/64/64 60/60/60
f 64/64/64 65/65/65 60/60/60
f 61/61/61 66/66/66 59/59/59
f 62/62/62 66/66/66 61/61/61
f 66/66/66 64/64/64 59/59/59
f 63/63/63 67/67/67 62/62/62
f 62/62/62 67/67/67 66/66/66
f 63/63/63 68/68/68 67/67/67
f 64/64/64 69/69/69 65/65/65
f 69/69/69 70/70/70 65/65/65
f 66/66/66 71/71/71 64/64/64
f 67/67/67 71/71/71 66/66/66
f 71/71/71 69/69/69 64/64/64
f 68/68/68 72/72/72 67/67/67
f 67/67/67 72/72/72 71/71/71
f 68/68/68 73/73/73 72/72/72
f 69/69/69 74/74/74 70/70/70
f 74/74/74 75/75/75 70/70/70
f 74/74/74 76/76/76 75/75/75
f 71/71/71 77/77/77 69/69/69
f 72/72/72 77/77/77 71/71/71
f 77/77/77 74/74/74 69/69/69
f 73/73/73 78/78/78 72/72/72
f 72/72/72 78/78/78 77/77/77
f 73/73/73 79/79/79 78/78/78
f 80/80/80 76/76/76 74/74/74
f 77/77/77 80/80/80 74/74/74
f 78/78/78 80/80/80 77/77/77
f 80/80/80 81/81/81 76/76/76
f 79/79/79 82/82/82 78/78/78
f 78/78/78 82/82/82 80/80/80
f 82/82/82 81/81/81 80/80/80
f 79/79/79 83/83/83 82/82/82
f 82/82/82 84/84/84 81/81/81
f 83/83/83 84/84/84 82/82/82
f 83/83/83 85/85/85 84/84/84
f 88/88/88 87/87/87 86/86/86
f 88/88/88 89/89/89 87/87/87
f 89/89/89 90/90/90 87/87/87
f 91/91/91 89/89/89 88/88/88
f 89/89/89 92/92/92 90/90/90
f 92/92/92 93/93/93 90/90/90
f 91/91/91 94/94/94 89/89/89
f 94/94/94 92/92/92 89/89/89
f 95/95/95 94/94/94 91/91/91
f 92/92/92 96/96/96 93/93/93
f 96/96/96 97/97/97 93/93/93
f 95/95/95 98/98/98 94/94/94
f 99/99/99 98/98/98 95/95/95
f 99/99/99 100/100/100 98/98/98
f 94/94/94 101/101/101 92/92/92
f 98/98/98 101/101/101 94/94/94
f 101/101/101 96/96/96 92/92/92
f 100/100/100 102/102/102 98/98/98
f 98/98/98 102/102/102 101/101/101
f 100/100/100 103/103/103 102/102/102
f 96/96/96 104/104/104 97/97/97
f 104/104/104 105/105/105 97/97/97
f 101/101/101 106/106/106 96/96/96
f 102/102/102 106/106/106 101/101/101
f 106/106/106 104/104/104 96/96/96
f 103/103/103 107/107/107 102/102/102
f 102/102/102 107/107/107 106/106/106
f 103/103/103 108/108/108 107/107/107
f 104/104/104 109/109/109 105/105/105
f 109/109/109 110/110/110 105/105/105
f 106/106/106 111/111/111 104/104/104
f 107/107/107 111/111/111 106/106/106
f 111/111/111 109/109/109 104/104/104
f 108/108/108 112/112/112 107/107/107
f 107/107/107 112/112/112 111/111/111
f 108/108/108 113/113/113 112/112/112
f 109/109/109 114/114/114 110/110/110
f 114/114/114 115/115/115 110/110/110
f 111/111/111 116/116/116 109/109/109
f 112/112/112 116/116/116 111/111/111
f 116/116/116 114/114/114 109/109/109
f 113/113/113 117/117/117 112/112/112
f 112/112/112 117/117/117 116/116/116
f 113/113/113 118/118/118 117/117/117
f 114/114/114 119/119/119 115/115/115
f 119/119/119 120/120/120 115/115/115
f 116/116/116 121/121/121 114/114/114
f 117/117/117 121/121/121 116/116/116
f 121/121/121 119/119/119 114/114/114
f 118/118/118 122/122/122 117/117/117
f 117/117/117 122/122/122 121/121/121
f 118/118/118 123/123/123 122/122/122
f 119/119/119 124/124/124 120/120/120
f 124/124/124 125/125/125 120/120/120
f 121/121/121 126/126/126 119/119/119
f 122/122/122 126/126/126 121/121/121
f 126/126/126 124/124/124 119/119/119
f 123/123/123 127/127/127 122/122/122
f 122/122/122 127/127/127 126/126/126
f 123/123/123 128/128/128 127/127/127
f 124/124/124 129/129/129 125/125/125
f 129/129/129 130/130/130 125/125/125
f 126/126/126 131/131/131 124/124/124
f 127/127/127 131/131/131 126/126/126
f 131/131/131 129/129/129 124/124/124
f 128/128/128 132/132/132 127/127/127
f 127/127/127 132/132/132 131/131/131
f 128/128/128 133/133/133 132/132/132
f 129/129/129 134/134/134 130/130/130
f 134/134/134 135/135/135 130/130/130
f 131/131/131 136/136/136 129/129/129
f 132/132/132 136/136/136 131/131/131
f 136/136/136 134/134/134 129/129/129
f 133/133/133 137/137/137 132/132/132
f 132/132/132 137/137/137 136/136/136
f 133/133/133 138/138/138 137/137/137
f 134/134/134 139/139/139 135/135/135
f 139/139/139 140/140/140 135/135/135
f 136/136/136 141/141/141 134/134/134
f 137/137/137 141/141/141 136/136/136
f 141/141/141 139/139/139 134/134/134
f 138/138/138 142/142/142 137/137/137
f 137/137/137 142/142/142 141/141/141
f 138/138/138 143/143/143 142/142/142
f 139/139/139 144/144/144 140/140/140
f 144/144/144 145/145/145 140/140/140
f 141/141/141 146/146/146 139/139/139
f 142/142/142 146/146/146 141/141/141
f 146/146/146 144/144/144 139/139/139
f 143/143/143 147/147/147 142/142/142
f 142/142/142 147/147/147 146/146/146
f 143/143/143 148/148/148 147/147/147
f 144/144/144 149/149/149 145/145/145
f 149/149/149 150/150/150 145/145/145
f 146/146/146 151/151/151 144/144/144
f 147/147/147 151/151/151 146/146/146
f 151/151/151 149/149/149 144/144/144
f 148/148/148 152/152/152 147/147/147
f 147/147/147 152/152/152 151/151/151
f 148/148/148 153/153/153 152/152/152
f 149/149/149 154/154/154 150/150/150
f 154/154/154 155/155/155 150/150/150
f 151/151/151 156/156/156 149/149/149
f 152/152/152 156/156/156 151/151/151
f 156/156/156 154/154/154 149/149/149
f 153/153/153 157/157/157 152/152/152
f 152/152/152 157/157/157 156/156/156
f 153/153/153 158/158/158 157/157/157
f 154/154/154 159/159/159 155/155/155
f 159/159/159 160/160/160 155/155/155
f 159/159/159 161/161/161 160/160/160
f 156/156/156 162/162/162 154/154/154
f 157/157/157 162/162/162 156/156/156
f 162/162/162 159/159/159 154/154/154
f 158/158/158 163/163/163 157/157/157
f 157/157/157 163/163/163 162/162/162
f 158/158/158 164/164/164 163/163/163
f 165/165/165 161/161/161 159/159/159
f 162/162/162 165/165/165 159/159/159
f 163/163/163 165/165/165 162/162/162
f 165/165/165 166/166/166 161/161/161
f 164/164/164 167/167/167 163/163/163
f 163/163/163 167/167/167 165/165/165
f 167/167/167 166/166/166 165/165/165
f 164/164/164 168/168/168 167/167/167
f 167/167/167 169/169/169 166/166/166
f 168/168/168 169/169/169 167/167/167
f 168/168/168 170/170/170 169/169/169
f 173/173/173 172/172/172 171/171/171
f 173/173/173 174/174/174 172/172/172
f 174/174/174 175/175/175 172/172/172
f 176/176/176 174/174/174 173/173/173
f 174/174/174 177/177/177 175/175/175
f 177/177/177 178/178/178 175/175/175
f 176/176/176 179/179/179 174/174/174
f 179/179/179 177/177/177 174/174/174
f 180/180/180 179/179/179 176/176/176
f 177/177/177 181/181/181 178/178/178
f 181/181/181 182/182/182 178/178/178
f 180/180/180 183/183/183 179/179/179
f 184/184/184 183/183/183 180/180/180
f 184/184/184 185/185/185 183/183/183
f 179/179/179 186/186/186 177/177/177
f 183/183/183 186/186/186 179/179/179
f 186/186/186 181/181/181 177/177/177
f 185/185/185 187/187/187 183/183/183
f 183/183/183 187/187/187 186/186/186
f 185/185/185 188/188/188 187/187/187
f 181/181/181 189/189/189 182/182/182
f 189/189/189 190/190/190 182/182/182
f 186/186/186 191/191/191 181/181/181
f 187/187/187 191/191/191 186/186/186
f 191/191/191 189/189/189 181/181/181
f 188/188/188 192/192/192 187/187/187
f 187/187/187 192/192/192 191/191/191
f 188/188/188 193/193/193 192/192/192
f 189/189/189 194/194/194 190/190/190
f 194/194/194 195/195/195 190/190/190
f 191/191/191 196/196/196 189/189/189
f 192/192/192 196/196/196 191/191/191
f 196/196/196 194/194/194 189/189/189
f 193/193/193 197/197/197 192/192/192
f 192/192/192 197/197/197 196/196/196
f 193/193/193 198/198/198 197/197/197
f 194/194/194 199/199/199 195/195/195
f 199/199/199 200/200/200 195/195/195
f 196/196/196 201/201/201 194/194/194
f 197/197/197 201/201/201 196/196/196
f 201/201/201 199/199/199 194/194/194
f 198/198/198 202/202/202 197/197/197
f 197/197/197 202/202/202 201/201/201
f 198/198/198 203/203/203 202/202/202
f 199/199/199 204/204/204 200/200/200
f 204/204/204 205/205/205 200/200/200
f 201/201/201 206/206/206 199/199/199
f 202/202/202 206/206/206 201/201/201
f 206/206/206 204/204/204 199/199/199
f 203/203/203 207/207/207 202/202/202
f 202/202/202 207/207/207 206/206/206
f 203/203/203 208/208/208 207/207/207
f 204/204/204 209/209/209 205/205/205
f 209/209/209 210/210/210 205/205/205
f 206/206/206 211/211/211 204/204/204
f 207/207/207 211/211/211 206/206/206
f 211/211/211 209/209/209 204/204/204
f 208/208/208 212/212/212 207/207/207
f 207/207/207 212/212/212 211/211/211
f 208/208/208 213/213/213 212/212/212
f 209/209/209 214/214/214 210/210/210
f 214/214/214 215/215/215 210/210/210
f 211/211/211 216/216/216 209/209/209
f 212/212/212 216/216/216 211/211/211
f 216/216/216 214/214/214 209/209/209
f 213/213/213 217/217/217 212/212/212
f 212/212/212 217/217/217 216/216/216
f 213/213/213 218/218/218 217/217/217
f 214/214/214 219/219/219 215/215/215
f 219/219/219 220/220/220 215/215/215
f 216/216/216 221/221/221 214/214/214
f 217/217/217 221/221/221 216/216/216
f 221/221/221 219/219/219 214/214/214
f 218/218/218 222/222/222 217/217/217
f 217/217/217 222/222/222 221/221/221
f 218/218/218 223/223/223 222/222/222
f 219/219/219 224/224/224 220/220/220
f 224/224/224 225/225/225 220/220/220
f 221/221/221 226/226/226 219/219/219
f 222/222/222 226/226/226 221/221/221
f 226/226/226 224/224/224 219/219/219
f 223/223/223 227/227/227 222/222/222
f 222/222/222 227/227/227 226/226/226
f 223/223/223 228/228/228 227/227/227
f 224/224/224 229/229/229 225/225/225
f 229/229/229 230/230/230 225/225/225
f 226/226/226 231/231/231 224/224/224
f 227/227/227 231/231/231 226/226/226
f 231/231/231 229/229/229 224/224/224
f 228/228/228 232/232/232 227/227/227
f 227/227/227 232/232/232 231/231/231
f 228/228/228 233/233/233 232/232/232
f 229/229/229 234/234/234 230/230/230
f 234/234/234 235/235/235 230/230/230
f 231/231/231 236/236/236 229/229/229
f 232/232/232 236/236/236 231/231/231
f 236/236/236 234/234/234 229/229/229
f 233/233/233 237/237/237 232/232/232
f 232/232/232 237/237/237 236/236/236
f 233/233/233 238/238/238 237/237/237
f 234/234/234 239/239/239 235/235/235
f 239/239/239 240/240/240 235/235/235
f 236/236/236 241/241/241 234/234/234
f 237/237/237 241/241/241 236/236/236
f 241/241/241 239/239/239 234/234/234
f 238/238/238 242/242/242 237/237/237
f 237/237/237 242/242/242 241/241/241
f 238/238/238 243/243/243 242/242/242
f 239/239/239 244/244/244 240/240/240
f 244/244/244 245/245/245 240/240/240
f 244/244/244 246/246/246 245/245/245
f 241/241/241 247/247/247 239/239/239
f 242/242/242 247/247/247 241/241/241
f 247/247/247 244/244/244 239/239/239
f 243/243/243 248/248/248 242/242/242
f 242/242/242 248/248/248 247/247/247
f 243/243/243 249/249/249 248/248/248
f 250/250/250 246/246/246 244/244/244
f 247/247/247 250/250/250 244/244/244
f 248/248/248 250/250/250 247/247/247
f 250/250/250 251/251/251 246/246/246
f 249/249/249 252/252/252 248/248/248
f 248/248/248 252/252/252 250/250/250
f 252/252/252 251/251/251 250/250/250
f 249/249/249 253/253/253 252/252/252
f 252/252/252 254/254/254 251/251/251
f 253/253/253 254/254/254 252/252/252
f 253/253/253 255/255/255 254/254/254
f 258/258/258 257/257/257 256/256/256
f 258/258/258 259/259/259 257/257/257
f 259/259/259 260/260/260 257/257/257
f 261/261/261 259/259/259 258/258/258
f 259/259/259 262/262/262 260/260/260
f 262/262/262 263/263/263 260/260/260
f 261/261/261 264/264/264 259/259/259
f 264/264/264 262/262/262 259/259/259
f 265/265/265 264/264/264 261/261/261
f 262/262/262 266/266/266 263/263/263
f 266/266/266 267/267/267 263/263/263
f 265/265/265 268/268/268 264/264/264
f 269/269/269 268/268/268 265/265/265
f 269/269/269 270/270/270 268/268/268
f 264/264/264 271/271/271 262/262/262
f 268/268/268 271/271/271 264/264/264
f 271/271/271 266/266/266 262/262/262
f 270/270/270 272/272/272 268/268/268
f 268/268/268 272/272/272 271/271/271
f 270/270/270 273/273/273 272/272/272
f 266/266/266 274/274/274 267/267/267
f 274/274/274 275/275/275 267/267/267
f 271/271/271 276/276/276 266/266/266
f 272/272/272 276/276/276 271/271/271
f 276/276/276 274/274/274 266/266/266
f 273/273/273 277/277/277 272/272/272
f 272/272/272 277/277/277 276/276/276
f 273/273/273 278/278/278 277/277/277
f 274/274/274 279/279/279 275/275/275
f 279/279/279 280/280/280 275/275/275
f 276/276/276 281/281/281 274/274/274
f 277/277/277 281/281/281 276/276/276
f 281/281/281 279/279/279 274/274/274
f 278/278/278 282/282/282 277/277/277
f 277/277/277 282/282/282 281/281/281
f 278/278/278 283/283/283 282/282/282
f 279/279/279 284/284/284 280/280/280
f 284/284/284 285/285/285 280/280/280
f 281/281/281 286/286/286 279/279/279
f 282/282/282 286/286/286 281/281/281
f 286/286/286 284/284/284 279/279/279
f 283/283/283 287/287/287 282/282/282
f 282/282/282 287/287/287 286/286/286
f 283/283/283 288/288/288 287/287/287
f 284/284/284 289/289/289 285/285/285
f 289/289/289 290/290/290 285/285/285
f 286/286/286 291/291/291 284/284/284
f 287/287/287 291/291/291 286/286/286
f 291/291/291 289/289/289 284/284/284
f 288/288/288 292/292/292 287/287/287
f 287/287/287 292/292/292 291/291/291
f 288/288/288 293/293/293 292/292/292
f 289/289/289 294/294/294 290/290/290
f 294/294/294 295/295/295 290/290/290
f 291/291/291 296/296/296 289/289/289
f 292/292/292 296/296/296 291/291/291
f 296/296/296 294/294/294 289/289/289
f 293/293/293 297/297/297 292/292/292
f 292/292/292 297/297/297 296/296/296
f 293/293/293 298/298/298 297/297/297
f 294/294/294 299/299/299 295/295/295
f 299/299/299 300/300/300 295/295/295
f 296/296/296 301/301/301 294/294/294
f 297/297/297 301/301/301 296/296/296
f 301/301/301 299/299/299 294/294/294
f 298/298/298 302/302/302 297/297/297
f 297/297/297 302/302/302 301/301/301
f 298/298/298 303/303/303 302/302/302
f 299/299/299 304/304/304 300/300/300
f 304/304/304 305/305/305 300/300/300
f 301/301/301 306/306/306 299/299/299
f 302/302/302 306/306/306 301/301/301
f 306/306/306 304/304/304 299/299/299
f 303/303/303 307/307/307 302/302/302
f 302/302/302 307/307/307 306/306/306
f 303/303/303 308/308/308 307/307/307
f 304/304/304 309/309/309 305/305/305
f 309/309/309 310/310/310 305/305/305
f 306/306/306 311/311/311 304/304/304
f 307/307/307 311/311/311 306/306/306
f 311/311/311 309/309/309 304/304/304
f 308/308/308 312/312/312 307/307/307
f 307/307/307 312/312/312 311/311/311
f 308/308/308 313/313/313 312/312/312
f 309/309/309 314/314/314 310/310/310
f 314/314/314 315/315/315 310/310/310
f 311/311/311 316/316/316 309/309/309
f 312/312/312 316/316/316 311/311/311
f 316/316/316 314/314/314 309/309/309
f 313/313/313 317/317/317 312/312/312
f 312/312/312 317/317/317 316/316/316
f 313/313/313 318/318/318 317/317/317
f 314/314/314 319/319/319 315/315/315
f 319/319/319 320/320/320 315/315/315
f 316/316/316 321/321/321 314/314/314
f 317/317/317 321/321/321 316/316/316
f 321/321/321 319/319/319 314/314/314
f 318/318/318 322/322/322 317/317/317
f 317/317/317 322/322/322 321/321/321
f 318/318/318 323/323/323 322/322/322
f 319/319/319 324/324/324 320/320/320
f 324/324/324 325/325/325 320/320/320
f 321/321/321 326/326/326 319/319/319
f 322/322/322 326/326/326 321/321/321
f 326/326/326 324/324/324 319/319/319
f 323/323/323 327/327/327 322/322/322
f 322/322/322 327/327/327 326/326/326
f 323/323/323 328/328/328 327/327/327
f 324/324/324 329/329/329 325/325/325
f 329/329/329 330/330/330 325/325/325
f 329/329/329 331/331/331 330/330/330
f 326/326/326 332/332/332 324/324/324
f 327/327/327 332/332/332 326/326/326
f 332/332/332 329/329/329 324/324/324
f 328/328/328 333/333/333 327/327/327
f 327/327/327 333/333/333 332/332/332
f 328/328/328 334/334/334 333/333/333
f 335/335/335 331/331/331 329/329/329
f 332/332/332 335/335/335 329/329/329
f 333/333/333 335/335/335 332/332/332
f 335/335/335 336/336/336 331/331/331
f 334/334/334 337/337/337 333/333/333
f 333/333/333 337/337/337 335/335/335
f 337/337/337 336/336/336 335/335/335
f 334/334/334 338/338/338 337/337/337
f 337/337/337 339/339/339 336/336/336
f 338/338/338 339/339/339 337/337/337
f 338/338/338 340/340/340 339/339/339
