g Box
v -66.23132 52.53857 40.49951
v -66.61474 78.20196 40.10657
v -26.26989 77.70798 53.87488
v -25.88635 52.04458 54.26767
v 28.3689 54.44607 72.75211
v 27.98548 80.10941 72.35918
v -29.99059 77.10538 -67.25052
v -29.60729 51.44217 -66.85739
v 10.71808 52.25513 -53.10891
v 10.35431 76.61148 -53.48184
v 64.60963 79.01275 -34.99753
v 64.99305 53.34961 -34.60471
v 47.71625 50.99921 16.20871
v 64.60963 79.01275 -34.99753
v 64.99305 53.34961 -34.60471
v 47.33277 76.6626 15.81567
v 28.3689 54.44607 72.75211
v 27.98548 80.10941 72.35918
v -29.60729 51.44217 -66.85739
v -29.99059 77.10538 -67.25052
v -47.26757 74.75531 -16.43711
v -46.88409 49.09177 -16.04422
v -66.23132 52.53857 40.49951
v -66.61474 78.20196 40.10657
v -24.39831 51.68234 -56.25461
v -24.94006 39.87722 -57.93344
v 10.89905 40.59979 -45.71463
v 9.18665 52.35947 -44.80435
v 54.38904 53.27075 -29.3931
v 56.26923 41.51455 -30.24631
v -24.94006 39.87722 -57.93344
v -24.39831 51.68234 -56.25461
v -39.12377 49.25555 -12.92001
v -40.13287 37.5141 -13.2319
v -55.62731 52.61731 35.28787
v -57.16168 41.22665 36.49539
v -57.16168 41.22665 36.49539
v -55.62731 52.61731 35.28787
v -22.02313 51.98727 46.75824
v -22.52667 40.75085 48.31555
v 24.04749 42.86401 64.18267
v 23.15992 54.20584 62.14956
v 41.06927 39.61957 14.44812
v 54.38904 53.27075 -29.3931
v 56.26923 41.51455 -30.24631
v 39.6637 50.84418 13.9415
v 24.04749 42.86401 64.18267
v 23.15992 54.20584 62.14956
v -34.5979 -0.6108704 -10.61166
v -49.60619 4.102997 33.13031
v -19.31011 4.713837 43.45935
v -4.30163 -3.051758E-05 -0.2825024
v -21.21447 0.640625 -49.94009
v 17.37995 1.41864 -36.78171
v 49.85767 2.073547 -25.70883
v 36.42694 4.002289 13.57089
v 21.46625 5.53598 57.36157
v -34.5979 -0.6108704 -10.61166
v -56.11633 22.76215 36.42001
v -49.60619 4.102997 33.13031
v -39.27709 18.35489 -12.71066
v -21.21447 0.640625 -49.94009
v -57.16168 41.22665 36.49539
v -24.25677 20.26746 -56.87954
v -40.13287 37.5141 -13.2319
v -24.94006 39.87722 -57.93344
v 23.93348 24.37604 63.71206
v 21.46625 5.53598 57.36157
v -19.31011 4.713837 43.45935
v -21.9837 22.81753 48.0635
v 24.04749 42.86401 64.18267
v -49.60619 4.102997 33.13031
v -22.52667 40.75085 48.31555
v -56.11633 22.76215 36.42001
v -57.16168 41.22665 36.49539
v 36.42694 4.002289 13.57089
v 55.79327 21.88141 -29.58762
v 49.85767 2.073547 -25.70883
v 40.74475 21.84457 14.5527
v 21.46625 5.53598 57.36157
v 56.26923 41.51455 -30.24631
v 23.93348 24.37604 63.71206
v 41.06927 39.61957 14.44812
v 24.04749 42.86401 64.18267
v 17.37995 1.41864 -36.78171
v 49.85767 2.073547 -25.70883
v 55.79327 21.88141 -29.58762
v 14.76062 21.05411 -43.57705
v 56.26923 41.51455 -30.24631
v 10.89905 40.59979 -45.71463
v -24.94006 39.87722 -57.93344
v -24.25677 20.26746 -56.87954
v -21.21447 0.640625 -49.94009
v 47.33277 76.6626 15.81567
v 27.98548 80.10941 72.35918
v 22.77655 79.86919 61.7565
v -26.26989 77.70798 53.87488
v -22.40661 77.65076 46.36533
v -66.61474 78.20196 40.10657
v -56.01086 78.2807 34.89496
v -47.26757 74.75531 -16.43711
v -5.902704 74.28912 -1.842744
v -39.50707 74.91913 -13.31278
v -29.99059 77.10538 -67.25052
v 39.27997 76.50757 13.54843
v 8.822698 76.71579 -45.17727
v -24.78179 77.34567 -56.64755
v 10.35431 76.61148 -53.48184
v 54.00555 78.93427 -29.78598
v 64.60963 79.01275 -34.99753
v -24.39831 51.68234 -56.25461
v -46.88409 49.09177 -16.04422
v -39.12377 49.25555 -12.92001
v -55.62731 52.61731 35.28787
v -29.60729 51.44217 -66.85739
v -66.23132 52.53857 40.49951
v 9.18665 52.35947 -44.80435
v 10.71808 52.25513 -53.10891
v 54.38904 53.27075 -29.3931
v 64.99305 53.34961 -34.60471
v 39.6637 50.84418 13.9415
v 47.71625 50.99921 16.20871
v -25.88635 52.04458 54.26767
v -22.02313 51.98727 46.75824
v 23.15992 54.20584 62.14956
v 28.3689 54.44607 72.75211
vt 0.04348755 0.7519531
vt 0.04345703 0.7519531
vt 0.04714966 0.7504883
vt 0.04721069 0.7504883
vt 0.05221558 0.7490234
vt 0.05215454 0.7490234
vt 0.04681396 0.7612305
vt 0.04684448 0.7612305
vt 0.05056763 0.7597656
vt 0.05053711 0.7597656
vt 0.05554199 0.7583008
vt 0.05557251 0.7583008
vt 0.0539856 0.7539063
vt 0.05554199 0.7583008
vt 0.05557251 0.7583008
vt 0.05395508 0.7539063
vt 0.05221558 0.7490234
vt 0.05215454 0.7490234
vt 0.04684448 0.7612305
vt 0.04681396 0.7612305
vt 0.04522705 0.7568359
vt 0.04525757 0.7568359
vt 0.04348755 0.7519531
vt 0.04345703 0.7519531
vt 0.2409668 0.7436523
vt 0.2409668 0.7436523
vt 0.2393799 0.7441406
vt 0.2393799 0.7441406
vt 0.2374268 0.7446289
vt 0.2373047 0.7446289
vt 0.2409668 0.7436523
vt 0.2409668 0.7436523
vt 0.2415771 0.7456055
vt 0.2415771 0.7456055
vt 0.2423096 0.7475586
vt 0.2423096 0.7475586
vt 0.2423096 0.7475586
vt 0.2423096 0.7475586
vt 0.2408447 0.7480469
vt 0.2408447 0.7480469
vt 0.2387695 0.7485352
vt 0.2387695 0.7485352
vt 0.2380371 0.746582
vt 0.2374268 0.7446289
vt 0.2373047 0.7446289
vt 0.2380371 0.746582
vt 0.2387695 0.7485352
vt 0.2387695 0.7485352
vt 0.1317139 0.7539063
vt 0.1270752 0.7412109
vt 0.1364746 0.7382813
vt 0.1411133 0.7509766
vt 0.1358643 0.7651367
vt 0.1478271 0.7617188
vt 0.1578369 0.7583008
vt 0.1536865 0.7470703
vt 0.1490479 0.7338867
vt 0.1317139 0.7539063
vt 0.125 0.7402344
vt 0.1270752 0.7412109
vt 0.130249 0.7543945
vt 0.1358643 0.7651367
vt 0.1247559 0.7402344
vt 0.1348877 0.7670898
vt 0.1300049 0.7543945
vt 0.1346436 0.7675781
vt 0.1497803 0.7324219
vt 0.1490479 0.7338867
vt 0.1364746 0.7382813
vt 0.1356201 0.7368164
vt 0.1497803 0.7319336
vt 0.1270752 0.7412109
vt 0.135376 0.7368164
vt 0.125 0.7402344
vt 0.1247559 0.7402344
vt 0.1536865 0.7470703
vt 0.159668 0.7592773
vt 0.1578369 0.7583008
vt 0.1550293 0.746582
vt 0.1490479 0.7338867
vt 0.15979 0.7597656
vt 0.1497803 0.7324219
vt 0.1551514 0.746582
vt 0.1497803 0.7319336
vt 0.1478271 0.7617188
vt 0.1578369 0.7583008
vt 0.159668 0.7592773
vt 0.1469727 0.7636719
vt 0.15979 0.7597656
vt 0.145752 0.7641602
vt 0.1346436 0.7675781
vt 0.1348877 0.7670898
vt 0.1358643 0.7651367
vt 0.05395508 0.7539063
vt 0.05215454 0.7490234
vt 0.05169678 0.75
vt 0.04714966 0.7504883
vt 0.04751587 0.7514648
vt 0.04345703 0.7519531
vt 0.04443359 0.7524414
vt 0.04522705 0.7568359
vt 0.04904175 0.7553711
vt 0.04592896 0.7563477
vt 0.04681396 0.7612305
vt 0.05319214 0.7539063
vt 0.05038452 0.7592773
vt 0.04730225 0.7602539
vt 0.05053711 0.7597656
vt 0.05456543 0.7578125
vt 0.05554199 0.7583008
vt 0.04733276 0.7602539
vt 0.04525757 0.7568359
vt 0.04598999 0.7563477
vt 0.04446411 0.7524414
vt 0.04684448 0.7612305
vt 0.04348755 0.7519531
vt 0.05044556 0.7592773
vt 0.05056763 0.7597656
vt 0.05459595 0.7578125
vt 0.05557251 0.7583008
vt 0.05325317 0.7539063
vt 0.0539856 0.7539063
vt 0.04721069 0.7504883
vt 0.04754639 0.7514648
vt 0.05172729 0.75
vt 0.05221558 0.7490234
vn -0.3227539 0.009666443 0.9462891
vn -0.3227539 0.009666443 0.9462891
vn -0.3227539 0.009658813 0.9462891
vn -0.3227539 0.009658813 0.9462891
vn -0.3227539 0.009666443 0.9462891
vn -0.3227539 0.009666443 0.9462891
vn 0.3227539 -0.009674072 -0.9462891
vn 0.3227539 -0.009674072 -0.9462891
vn 0.3227539 -0.009666443 -0.9462891
vn 0.3227539 -0.009666443 -0.9462891
vn 0.3227539 -0.009666443 -0.9462891
vn 0.3227539 -0.009666443 -0.9462891
vn 0.9462891 0.01908875 0.3227539
vn 0.9462891 0.01907349 0.3227539
vn 0.9462891 0.01907349 0.3227539
vn 0.9462891 0.01908875 0.3227539
vn 0.9462891 0.01907349 0.3227539
vn 0.9462891 0.01907349 0.3227539
vn -0.9462891 -0.01907349 -0.3227539
vn -0.9462891 -0.01907349 -0.3227539
vn -0.9462891 -0.01907349 -0.3227539
vn -0.9462891 -0.01907349 -0.3227539
vn -0.9462891 -0.01907349 -0.3227539
vn -0.9462891 -0.01907349 -0.3227539
vn 0.3183594 0.1191406 -0.9404297
vn 0.3222656 0.01564026 -0.9462891
vn 0.3222656 0.02064514 -0.9462891
vn 0.3183594 0.1191406 -0.9404297
vn 0.3183594 0.1191406 -0.9404297
vn 0.3222656 0.0201416 -0.9462891
vn -0.9467773 0.002445221 -0.3215332
vn -0.9443359 0.08874512 -0.3161621
vn -0.9423828 0.08947754 -0.3222656
vn -0.9462891 -0.0002315044 -0.3227539
vn -0.9399414 0.09082031 -0.3286133
vn -0.9462891 0.002975464 -0.3239746
vn -0.3220215 0.04083252 0.9458008
vn -0.317627 0.1430664 0.9375
vn -0.3220215 0.1431885 0.9360352
vn -0.3232422 0.03979492 0.9453125
vn -0.3239746 0.04037476 0.9453125
vn -0.3251953 0.1431885 0.9345703
vn 0.9458008 0.03890991 0.3225098
vn 0.9370117 0.1290283 0.3249512
vn 0.9453125 0.04086304 0.3239746
vn 0.9389648 0.1300049 0.3188477
vn 0.9462891 0.04144287 0.3208008
vn 0.9404297 0.1308594 0.3132324
vn 0.006629944 -0.9990234 0.03964233
vn -0.01476288 -0.9946289 0.1021118
vn 0.01153564 -0.9956055 0.0904541
vn 0.02452087 -0.9985352 0.04864502
vn 0.027771 -0.9995117 -0.02235413
vn 0.0423584 -0.9990234 0.008766174
vn 0.05285645 -0.9980469 0.03121948
vn 0.04083252 -0.9975586 0.05926514
vn 0.03112793 -0.9960938 0.08178711
vn -0.9160156 -0.2609863 -0.3044434
vn -0.9404297 -0.1402588 -0.309082
vn -0.9199219 -0.2644043 -0.2895508
vn -0.9355469 -0.1591797 -0.3146973
vn -0.9116211 -0.2573242 -0.3198242
vn -0.9462891 0.002975464 -0.3239746
vn -0.9360352 -0.1391602 -0.3239746
vn -0.9462891 -0.0002315044 -0.3227539
vn -0.9467773 0.002445221 -0.3215332
vn -0.3164063 -0.1348877 0.9389648
vn -0.3037109 -0.2724609 0.9130859
vn -0.3054199 -0.2724609 0.9125977
vn -0.3164063 -0.1488037 0.9370117
vn -0.3239746 0.04037476 0.9453125
vn -0.3081055 -0.2727051 0.9116211
vn -0.3232422 0.03979492 0.9453125
vn -0.3188477 -0.1347656 0.9379883
vn -0.3220215 0.04083252 0.9458008
vn 0.918457 -0.2302246 0.3215332
vn 0.9404297 -0.1077881 0.3227539
vn 0.9204102 -0.2260742 0.3193359
vn 0.9379883 -0.12323 0.3242188
vn 0.9165039 -0.2342529 0.3234863
vn 0.9453125 0.04086304 0.3239746
vn 0.9389648 -0.1091919 0.3261719
vn 0.9458008 0.03890991 0.3225098
vn 0.9462891 0.04144287 0.3208008
vn 0.3154297 -0.2724609 -0.9091797
vn 0.3154297 -0.2724609 -0.9091797
vn 0.3220215 -0.1398926 -0.9365234
vn 0.3215332 -0.1555176 -0.934082
vn 0.3222656 0.0201416 -0.9462891
vn 0.3222656 0.02064514 -0.9462891
vn 0.3222656 0.01564026 -0.9462891
vn 0.3217773 -0.1513672 -0.9345703
vn 0.3154297 -0.2724609 -0.9091797
vn 0.01037598 1 -0.004680634
vn -0.007564545 0.9995117 -0.03543091
vn -0.01725769 0.9980469 -0.06231689
vn -0.01712036 1 -0.0005531311
vn -0.0006437302 0.9985352 -0.05838013
vn -0.008201599 0.9995117 -0.03671265
vn 0.01976013 0.9985352 -0.04873657
vn -0.04147339 0.9990234 -0.02236938
vn -0.01493073 1 -0.01529694
vn 0.007717133 1 -0.007980347
vn -0.02484131 0.9995117 0.006572723
vn -0.0324707 0.9990234 -0.02159119
vn -0.03140259 0.9990234 0.03161621
vn -0.01027679 0.9995117 0.03579712
vn -0.007648468 0.9995117 -0.02833557
vn -0.04598999 0.9985352 0.0246582
vn -0.02033997 1 0.006767273
vn 0.04147339 -0.9990234 -0.009780884
vn 0.04147339 -0.9990234 0.02236938
vn 0.04006958 -0.9990234 0.02586365
vn 0.008178711 -0.9995117 0.03671265
vn 0.04150391 -0.9990234 -0.009803772
vn 0.00819397 -0.9995117 0.03674316
vn 0.01493073 -1 0.01531219
vn 0.01493835 -1 0.01531219
vn 0.01000977 -1 -0.01600647
vn 0.009994507 -1 -0.01605225
vn -0.0114212 -1 0.008293152
vn -0.01036072 -1 0.004688263
vn 0.0171051 -1 0.0005698204
vn 0.0218811 -0.9995117 0.003038406
vn 0.007598877 -0.9995117 0.03543091
vn 0.007579803 -0.9995117 0.03546143
g Box_0
f 3/3/3 2/2/2 1/1/1
f 4/4/4 3/3/3 1/1/1
f 4/4/4 5/5/5 3/3/3
f 5/5/5 6/6/6 3/3/3
f 9/9/9 8/8/8 7/7/7
f 10/10/10 9/9/9 7/7/7
f 10/10/10 11/11/11 9/9/9
f 11/11/11 12/12/12 9/9/9
f 15/15/15 14/14/14 13/13/13
f 14/14/14 16/16/16 13/13/13
f 13/13/13 16/16/16 17/17/17
f 16/16/16 18/18/18 17/17/17
f 21/21/21 20/20/20 19/19/19
f 22/22/22 21/21/21 19/19/19
f 22/22/22 23/23/23 21/21/21
f 23/23/23 24/24/24 21/21/21
f 27/27/27 26/26/26 25/25/25
f 28/28/28 27/27/27 25/25/25
f 28/28/28 29/29/29 27/27/27
f 29/29/29 30/30/30 27/27/27
f 33/33/33 32/32/32 31/31/31
f 34/34/34 33/33/33 31/31/31
f 35/35/35 33/33/33 34/34/34
f 36/36/36 35/35/35 34/34/34
f 39/39/39 38/38/38 37/37/37
f 40/40/40 39/39/39 37/37/37
f 40/40/40 41/41/41 39/39/39
f 41/41/41 42/42/42 39/39/39
f 45/45/45 44/44/44 43/43/43
f 44/44/44 46/46/46 43/43/43
f 43/43/43 46/46/46 47/47/47
f 46/46/46 48/48/48 47/47/47
f 51/51/51 50/50/50 49/49/49
f 52/52/52 51/51/51 49/49/49
f 52/52/52 49/49/49 53/53/53
f 54/54/54 52/52/52 53/53/53
f 54/54/54 55/55/55 52/52/52
f 55/55/55 56/56/56 52/52/52
f 52/52/52 56/56/56 51/51/51
f 56/56/56 57/57/57 51/51/51
f 60/60/60 59/59/59 58/58/58
f 59/59/59 61/61/61 58/58/58
f 58/58/58 61/61/61 62/62/62
f 59/59/59 63/63/63 61/61/61
f 61/61/61 64/64/64 62/62/62
f 63/63/63 65/65/65 61/61/61
f 61/61/61 65/65/65 64/64/64
f 65/65/65 66/66/66 64/64/64
f 69/69/69 68/68/68 67/67/67
f 70/70/70 69/69/69 67/67/67
f 70/70/70 67/67/67 71/71/71
f 69/69/69 70/70/70 72/72/72
f 73/73/73 70/70/70 71/71/71
f 70/70/70 74/74/74 72/72/72
f 70/70/70 73/73/73 74/74/74
f 73/73/73 75/75/75 74/74/74
f 78/78/78 77/77/77 76/76/76
f 77/77/77 79/79/79 76/76/76
f 76/76/76 79/79/79 80/80/80
f 77/77/77 81/81/81 79/79/79
f 79/79/79 82/82/82 80/80/80
f 81/81/81 83/83/83 79/79/79
f 79/79/79 83/83/83 82/82/82
f 83/83/83 84/84/84 82/82/82
f 87/87/87 86/86/86 85/85/85
f 88/88/88 87/87/87 85/85/85
f 89/89/89 87/87/87 88/88/88
f 90/90/90 89/89/89 88/88/88
f 90/90/90 88/88/88 91/91/91
f 88/88/88 92/92/92 91/91/91
f 88/88/88 85/85/85 92/92/92
f 85/85/85 93/93/93 92/92/92
f 96/96/96 95/95/95 94/94/94
f 97/97/97 95/95/95 96/96/96
f 98/98/98 97/97/97 96/96/96
f 99/99/99 97/97/97 98/98/98
f 100/100/100 99/99/99 98/98/98
f 101/101/101 99/99/99 100/100/100
f 98/98/98 96/96/96 102/102/102
f 98/98/98 102/102/102 100/100/100
f 103/103/103 101/101/101 100/100/100
f 102/102/102 103/103/103 100/100/100
f 104/104/104 101/101/101 103/103/103
f 105/105/105 96/96/96 94/94/94
f 96/96/96 105/105/105 102/102/102
f 102/102/102 106/106/106 103/103/103
f 102/102/102 105/105/105 106/106/106
f 107/107/107 104/104/104 103/103/103
f 106/106/106 107/107/107 103/103/103
f 108/108/108 104/104/104 107/107/107
f 106/106/106 108/108/108 107/107/107
f 105/105/105 94/94/94 109/109/109
f 105/105/105 109/109/109 106/106/106
f 106/106/106 109/109/109 108/108/108
f 94/94/94 110/110/110 109/109/109
f 109/109/109 110/110/110 108/108/108
f 113/113/113 112/112/112 111/111/111
f 113/113/113 114/114/114 112/112/112
f 112/112/112 115/115/115 111/111/111
f 114/114/114 116/116/116 112/112/112
f 111/111/111 115/115/115 117/117/117
f 115/115/115 118/118/118 117/117/117
f 117/117/117 118/118/118 119/119/119
f 118/118/118 120/120/120 119/119/119
f 119/119/119 120/120/120 121/121/121
f 120/120/120 122/122/122 121/121/121
f 123/123/123 116/116/116 114/114/114
f 124/124/124 123/123/123 114/114/114
f 121/121/121 122/122/122 125/125/125
f 124/124/124 125/125/125 123/123/123
f 122/122/122 126/126/126 125/125/125
f 125/125/125 126/126/126 123/123/123
