g Box.002
v -0.3187754 0.5285513 0.09422424
v -0.3327362 0.4993247 0.1199013
v -0.3444522 0.4993247 0.08026352
v -0.08026339 0.4993247 -0.3444523
v -0.09422457 0.5285516 -0.3187752
v -0.1199015 0.4993247 -0.3327359
v 0.08026334 0.4993247 0.3444523
v 0.09422421 0.5285516 0.3187754
v 0.1199011 0.4993247 0.332736
v 0.3444522 0.4993247 -0.08026352
v 0.3187753 0.5285516 -0.09422428
v 0.3327359 0.4993247 -0.1199011
v 0.08026334 3.43905E-07 0.3444523
v -0.3327362 3.43905E-07 0.1199013
v -0.3327362 0.4993247 0.1199013
v 0.08026334 0.4993247 0.3444523
v 0.3187753 0.5285516 -0.09422428
v 0.09422421 0.5285516 0.3187754
v -0.3187754 0.5285513 0.09422424
v -0.09422457 0.5285516 -0.3187752
v 0.3444522 3.43905E-07 -0.08026356
v 0.1199011 3.43905E-07 0.332736
v 0.1199011 0.4993247 0.332736
v 0.3444522 0.4993247 -0.08026352
v -0.3444522 3.43905E-07 0.08026356
v -0.1199015 3.43905E-07 -0.3327359
v -0.1199015 0.4993247 -0.3327359
v -0.3444522 0.4993247 0.08026352
v -0.08026339 3.43905E-07 -0.3444523
v 0.3327359 3.43905E-07 -0.1199011
v 0.3327359 0.4993247 -0.1199011
v -0.08026339 0.4993247 -0.3444523
v -0.09422457 0.5285516 -0.3187752
v -0.3187754 0.5285513 0.09422424
v -0.3444522 0.4993247 0.08026352
v -0.1199015 0.4993247 -0.3327359
v -0.3327362 0.4993247 0.1199013
v -0.3327362 3.43905E-07 0.1199013
v -0.3444522 3.43905E-07 0.08026356
v -0.3444522 0.4993247 0.08026352
v 0.3187753 0.5285516 -0.09422428
v -0.09422457 0.5285516 -0.3187752
v -0.08026339 0.4993247 -0.3444523
v 0.3327359 0.4993247 -0.1199011
v -0.08026339 3.43905E-07 -0.3444523
v -0.08026339 0.4993247 -0.3444523
v -0.1199015 0.4993247 -0.3327359
v -0.1199015 3.43905E-07 -0.3327359
v 0.09422421 0.5285516 0.3187754
v 0.3187753 0.5285516 -0.09422428
v 0.3444522 0.4993247 -0.08026352
v 0.1199011 0.4993247 0.332736
v 0.3444522 3.43905E-07 -0.08026356
v 0.3444522 0.4993247 -0.08026352
v 0.3327359 0.4993247 -0.1199011
v 0.3327359 3.43905E-07 -0.1199011
v -0.3327362 0.4993247 0.1199013
v -0.3187754 0.5285513 0.09422424
v 0.09422421 0.5285516 0.3187754
v 0.08026334 0.4993247 0.3444523
v 0.08026334 3.43905E-07 0.3444523
v 0.08026334 0.4993247 0.3444523
v 0.1199011 0.4993247 0.332736
v 0.1199011 3.43905E-07 0.332736
vt 0.6499023 0.8208008
vt 0.6499023 0.8203125
vt 0.6494141 0.8208008
vt 0.6499023 0.828125
vt 0.6499023 0.8276367
vt 0.6494141 0.8276367
vt 0.6572266 0.8203125
vt 0.6567383 0.8208008
vt 0.6577148 0.8208008
vt 0.6577148 0.828125
vt 0.6567383 0.8276367
vt 0.6572266 0.8286133
vt 0.6557617 0.8237305
vt 0.6655273 0.8237305
vt 0.6655273 0.8681641
vt 0.6557617 0.8681641
vt 0.6567383 0.8276367
vt 0.6567383 0.8208008
vt 0.6499023 0.8208008
vt 0.6499023 0.8276367
vt 0.6455078 0.8237305
vt 0.6552734 0.8237305
vt 0.6552734 0.8681641
vt 0.6455078 0.8681641
vt 0.6665039 0.8237305
vt 0.6757813 0.8237305
vt 0.6757813 0.8681641
vt 0.6665039 0.8681641
vt 0.6352539 0.8237305
vt 0.6445313 0.8237305
vt 0.6445313 0.8681641
vt 0.6352539 0.8681641
vt 0.6499023 0.8276367
vt 0.6499023 0.8208008
vt 0.6494141 0.8208008
vt 0.6494141 0.8276367
vt 0.6655273 0.8681641
vt 0.6655273 0.8237305
vt 0.6665039 0.8237305
vt 0.6665039 0.8681641
vt 0.6567383 0.8276367
vt 0.6499023 0.8276367
vt 0.6499023 0.828125
vt 0.6572266 0.8286133
vt 0.6767578 0.8237305
vt 0.6767578 0.8681641
vt 0.6757813 0.8681641
vt 0.6757813 0.8237305
vt 0.6567383 0.8208008
vt 0.6567383 0.8276367
vt 0.6577148 0.828125
vt 0.6577148 0.8208008
vt 0.6455078 0.8237305
vt 0.6455078 0.8681641
vt 0.6445313 0.8681641
vt 0.6445313 0.8237305
vt 0.6499023 0.8203125
vt 0.6499023 0.8208008
vt 0.6567383 0.8208008
vt 0.6572266 0.8203125
vt 0.6557617 0.8237305
vt 0.6557617 0.8681641
vt 0.6552734 0.8681641
vt 0.6552734 0.8237305
vn -0.7832031 0.5771484 0.2314453
vn -0.7832031 0.5771484 0.2314453
vn -0.7832031 0.5771484 0.2314453
vn -0.2314453 0.5771484 -0.7832031
vn -0.2314453 0.5771484 -0.7832031
vn -0.2314453 0.5771484 -0.7832031
vn 0.2314453 0.5771484 0.7832031
vn 0.2314453 0.5771484 0.7832031
vn 0.2314453 0.5771484 0.7832031
vn 0.7832031 0.5771484 -0.2314453
vn 0.7832031 0.5771484 -0.2314453
vn 0.7832031 0.5771484 -0.2314453
vn -0.4777832 0 0.878418
vn -0.4777832 0 0.878418
vn -0.4777832 0 0.878418
vn -0.4777832 0 0.878418
vn 0 1 0
vn 0 1 0
vn 0 1 0
vn 0 1 0
vn 0.878418 0 0.4777832
vn 0.878418 0 0.4777832
vn 0.878418 0 0.4777832
vn 0.878418 0 0.4777832
vn -0.878418 0 -0.4777832
vn -0.878418 0 -0.4777832
vn -0.878418 0 -0.4777832
vn -0.878418 0 -0.4777832
vn 0.4777832 0 -0.878418
vn 0.4777832 0 -0.878418
vn 0.4777832 0 -0.878418
vn 0.4777832 0 -0.878418
vn -0.6210938 0.7070313 -0.3376465
vn -0.6210938 0.7070313 -0.3376465
vn -0.6210938 0.7070313 -0.3376465
vn -0.6210938 0.7070313 -0.3376465
vn -0.9589844 0 0.2834473
vn -0.9589844 0 0.2834473
vn -0.9589844 0 0.2834473
vn -0.9589844 0 0.2834473
vn 0.3376465 0.7070313 -0.6210938
vn 0.3376465 0.7070313 -0.6210938
vn 0.3376465 0.7070313 -0.6210938
vn 0.3376465 0.7070313 -0.6210938
vn -0.2834473 0 -0.9589844
vn -0.2834473 0 -0.9589844
vn -0.2834473 0 -0.9589844
vn -0.2834473 0 -0.9589844
vn 0.6210938 0.7070313 0.3376465
vn 0.6210938 0.7070313 0.3376465
vn 0.6210938 0.7070313 0.3376465
vn 0.6210938 0.7070313 0.3376465
vn 0.9589844 0 -0.2834473
vn 0.9589844 0 -0.2834473
vn 0.9589844 0 -0.2834473
vn 0.9589844 0 -0.2834473
vn -0.3376465 0.7070313 0.6210938
vn -0.3376465 0.7070313 0.6210938
vn -0.3376465 0.7070313 0.6210938
vn -0.3376465 0.7070313 0.6210938
vn 0.2834473 0 0.9589844
vn 0.2834473 0 0.9589844
vn 0.2834473 0 0.9589844
vn 0.2834473 0 0.9589844
g Box.002_0
f 3/3/3 2/2/2 1/1/1
f 6/6/6 5/5/5 4/4/4
f 9/9/9 8/8/8 7/7/7
f 12/12/12 11/11/11 10/10/10
f 15/15/15 14/14/14 13/13/13
f 16/16/16 15/15/15 13/13/13
f 19/19/19 18/18/18 17/17/17
f 20/20/20 19/19/19 17/17/17
f 23/23/23 22/22/22 21/21/21
f 24/24/24 23/23/23 21/21/21
f 27/27/27 26/26/26 25/25/25
f 28/28/28 27/27/27 25/25/25
f 31/31/31 30/30/30 29/29/29
f 32/32/32 31/31/31 29/29/29
f 35/35/35 34/34/34 33/33/33
f 36/36/36 35/35/35 33/33/33
f 39/39/39 38/38/38 37/37/37
f 40/40/40 39/39/39 37/37/37
f 43/43/43 42/42/42 41/41/41
f 44/44/44 43/43/43 41/41/41
f 47/47/47 46/46/46 45/45/45
f 48/48/48 47/47/47 45/45/45
f 51/51/51 50/50/50 49/49/49
f 52/52/52 51/51/51 49/49/49
f 55/55/55 54/54/54 53/53/53
f 56/56/56 55/55/55 53/53/53
f 59/59/59 58/58/58 57/57/57
f 60/60/60 59/59/59 57/57/57
f 63/63/63 62/62/62 61/61/61
f 64/64/64 63/63/63 61/61/61
