g Building
v 1.830002 2.097944 1.391822
v 1.199162 1.701512 3.33654
v 1.179867 2.024012 3.396023
v 1.810706 2.420445 1.451305
v 1.753008 2.521041 1.453095
v 1.810706 2.420445 1.451305
v 1.179867 2.024012 3.396023
v 1.122168 2.124609 3.397813
v 1.627921 2.526404 1.413612
v 1.083154 2.112014 3.440075
v 0.9970813 2.129972 3.35833
v 0.2419502 2.129972 3.113376
v 0.87279 2.526404 1.168658
v 0.2223557 2.112093 3.17378
v 0.9774868 2.112093 3.418734
v 0.2201253 2.006313 3.180656
v 1.108271 2.011497 3.440652
v 1.199162 1.701512 3.33654
v 1.127567 1.688997 3.38117
v 0.9752564 2.006313 3.42561
v 0.9945518 1.683813 3.366127
v 0.2394208 1.683813 3.121173
v -2.929385 1.701512 1.997296
v -2.298545 2.097944 0.05257809
v -2.317841 2.420444 0.1120608
v -2.948681 2.024012 2.056778
v -2.89762 1.688997 2.075454
v -2.90302 2.124608 2.092097
v -2.27218 2.52104 0.1473794
v -2.916916 2.011497 2.134936
v -2.781104 1.683813 2.141356
v -2.896243 2.112014 2.149213
v -2.778575 2.129972 2.133559
v -2.147735 2.526404 0.1888409
v -1.392604 2.526404 0.4337951
v -2.023444 2.129972 2.378513
v -2.8004 2.006313 2.200839
v -2.025973 1.683813 2.386311
v -2.045268 2.006313 2.445793
v -2.043038 2.112093 2.438917
v -2.798169 2.112093 2.193963
v 0.87279 2.526404 1.168658
v -0.5131811 2.129972 2.868421
v 0.1176587 2.526404 0.9237036
v 0.2419502 2.129972 3.113376
v -0.5327755 2.112093 2.928826
v 0.2223557 2.112093 3.17378
v -0.5350059 2.006313 2.935702
v 0.2201253 2.006313 3.180656
v 0.2394208 1.683813 3.121173
v -0.5157105 1.683813 2.876219
v 0.1176587 2.526404 0.9237036
v -1.268312 2.129972 2.623467
v -0.6374725 2.526404 0.6787493
v -0.5131811 2.129972 2.868421
v -1.287907 2.112093 2.683872
v -0.5327755 2.112093 2.928826
v -1.290137 2.006313 2.690747
v -0.5350059 2.006313 2.935702
v -0.5157105 1.683813 2.876219
v -1.270842 1.683813 2.631265
v -0.6374725 2.526404 0.6787493
v -2.023444 2.129972 2.378513
v -1.392604 2.526404 0.4337951
v -1.268312 2.129972 2.623467
v -2.043038 2.112093 2.438917
v -1.287907 2.112093 2.683872
v -2.045268 2.006313 2.445793
v -1.290137 2.006313 2.690747
v -1.270842 1.683813 2.631265
v -2.025973 1.683813 2.386311
v -2.655045 4.302848 1.059565
v -1.527512 5.880231 -2.416331
v -2.655045 5.880231 1.059565
v -1.527512 4.302848 -2.41633
v -2.655045 2.736053 1.059566
v -1.527512 2.736053 -2.41633
v -2.655045 -2.384186E-07 1.059566
v -1.527512 -2.384186E-07 -2.41633
v 2.655045 4.302848 -1.059566
v 1.527512 5.880232 2.416329
v 2.655045 5.880232 -1.059566
v 1.527512 4.302849 2.416329
v 2.655045 2.736054 -1.059566
v 1.527512 2.736054 2.41633
v 2.655046 2.384186E-07 -1.059566
v 1.527512 2.384186E-07 2.41633
v -2.008711 6.666331 1.011147
v -1.165743 7.646621 1.283934
v -1.305247 7.635628 1.240448
v -1.882662 6.629518 1.051375
v -2.428338 6.088131 0.8743657
v -2.310315 6.0228 0.9126506
v -1.452686 6.088131 -2.133317
v 0.5637664 8.764001 -1.737948
v 0.4878255 8.764001 -1.503842
v -1.527512 5.880231 -2.416331
v -2.428338 6.088131 0.8743657
v -2.655045 5.880231 1.059565
v -2.177701 6.536111 1.214409
v -2.008711 6.666331 1.011147
v -1.377478 7.635629 1.473991
v -1.305247 7.635628 1.240448
v 1.033086 6.666331 1.997864
v 0.2494255 7.635629 2.001736
v 0.3296669 7.635628 1.770792
v 1.049973 6.536111 2.261422
v 1.452686 6.088132 2.133317
v 1.527512 5.880232 2.416329
v 2.428338 6.088132 -0.8743665
v 2.655045 5.880232 -1.059566
v 0.4878255 8.764001 -1.503842
v 0.5637664 8.764001 -1.737948
v 0.4878255 8.535924 -1.503842
v 2.310315 6.0228 -0.9126513
v 1.334664 6.022801 2.095032
v 0.9071989 6.629519 1.956368
v 0.1905955 7.646622 1.723912
v -0.4878257 8.535924 1.503841
v -1.882662 6.629518 1.051375
v -2.310315 6.0228 0.9126506
v -1.334664 6.0228 -2.095032
v 0.4878255 8.535924 -1.503842
v -1.165743 7.646621 1.283934
v -0.4878257 8.535924 1.503841
v 1.452686 6.088132 2.133317
v 1.334664 6.022801 2.095032
v 2.310315 6.0228 -0.9126513
v 2.428338 6.088132 -0.8743665
v 0.4878255 8.764001 -1.503842
v -1.334664 6.0228 -2.095032
v -1.452686 6.088131 -2.133317
v 0.4878255 8.535924 -1.503842
v 2.310315 6.0228 -0.9126513
v 2.428338 6.088132 -0.8743665
v -1.452686 6.088131 -2.133317
v -1.334664 6.0228 -2.095032
v -2.310315 6.0228 0.9126506
v -2.428338 6.088131 0.8743657
v 0.9071989 6.629519 1.956368
v 1.334664 6.022801 2.095032
v 1.452686 6.088132 2.133317
v 1.033086 6.666331 1.997864
v 0.1905955 7.646622 1.723912
v 0.3296669 7.635628 1.770792
v -1.378525 7.963337 1.47365
v -1.377478 7.635629 1.473991
v -1.305247 7.635628 1.240448
v -1.305463 7.963337 1.240929
v -1.380843 8.688046 1.472899
v -1.30594 8.688046 1.241991
v 0.250635 7.963337 2.002128
v 0.2533097 8.688047 2.002995
v 0.3282127 8.688046 1.772088
v 0.3292141 7.963337 1.771196
v 0.2494255 7.635629 2.001736
v 0.3296669 7.635628 1.770792
v -1.275948 8.962881 1.669613
v -1.605717 8.962881 1.56264
v -1.435315 8.962881 1.037336
v -1.105546 8.962881 1.144309
v -1.046842 8.962881 1.743932
v -0.8764405 8.962881 1.218627
v -0.1768992 8.962881 2.026129
v -0.006497741 8.962881 1.500825
v 0.03254604 8.962881 2.094071
v 0.2029474 8.962881 1.568766
v 0.3826849 8.962881 2.207651
v 0.5530863 8.962881 1.682346
v 0.5530865 8.688047 1.682346
v 0.3826849 8.688047 2.207651
v 0.3826849 8.962881 2.207651
v 0.5530863 8.962881 1.682346
v -1.275948 8.688046 1.669613
v -1.605717 8.688046 1.562641
v -1.605717 8.962881 1.56264
v -1.275948 8.962881 1.669613
v -1.046842 8.688046 1.743932
v -1.046842 8.962881 1.743932
v -0.1768992 8.688046 2.026129
v -0.1768992 8.962881 2.026129
v 0.03254604 8.688046 2.094071
v 0.03254604 8.962881 2.094071
v 0.3826849 8.688047 2.207651
v 0.3826849 8.962881 2.207651
v -1.605717 8.688046 1.562641
v -1.435315 8.688046 1.037336
v -1.435315 8.962881 1.037336
v -1.605717 8.962881 1.56264
v 0.2029477 8.688047 1.568766
v 0.5530865 8.688047 1.682346
v 0.5530863 8.962881 1.682346
v 0.2029474 8.962881 1.568766
v -0.006497562 8.688047 1.500825
v -0.006497741 8.962881 1.500825
v -0.8764404 8.688047 1.218627
v -0.8764405 8.962881 1.218627
v -1.105546 8.688046 1.144309
v -1.105546 8.962881 1.144309
v -1.435315 8.688046 1.037336
v -1.435315 8.962881 1.037336
v -0.2131442 6.646423 1.851684
v -0.1638502 6.646422 1.699723
v -0.1638502 7.525315 1.699723
v -0.2131443 7.525316 1.851684
v -0.1168877 4.417102 1.882909
v -0.06759369 4.417102 1.730948
v 0.7140344 4.417102 1.984497
v 0.6647403 4.417102 2.136458
v -0.2431503 4.078282 1.841951
v -0.1938562 4.078282 1.68999
v -0.1938562 2.846366 1.68999
v -0.2431502 2.846366 1.841951
v -1.835121 4.417102 1.325537
v -1.785827 4.417102 1.173577
v -1.022012 4.417102 1.421348
v -1.071306 4.417102 1.573309
v -0.9450431 2.846366 1.614267
v -0.895749 2.846366 1.462306
v -0.8957491 4.078282 1.462306
v -0.9450431 4.078282 1.614267
v -1.174366 0.002269745 1.612212
v -2.181687 0.002269506 1.285451
v -2.181687 1.827331 1.285451
v -1.174366 1.827331 1.612212
v 1.083872 0.4214323 2.344754
v -0.8428302 0.421432 1.719758
v -0.8428304 1.546587 1.719758
v 1.083872 1.546587 2.344754
v -1.527512 -2.384186E-07 -2.41633
v 2.655046 2.384186E-07 -1.059566
v 2.655045 2.736054 -1.059566
v -1.527512 2.736053 -2.41633
v -1.527512 4.302848 -2.41633
v 2.655045 4.302848 -1.059566
v -1.527512 5.880231 -2.416331
v 2.655045 5.880232 -1.059566
v 0.5637664 8.764001 -1.737948
v 0.250635 7.963337 2.002128
v -0.0344494 8.688047 1.90965
v 0.2533097 8.688047 2.002995
v -0.03624487 7.963337 1.909068
v -0.2065803 8.688046 1.853813
v -0.2131443 7.854639 1.851684
v -0.9215361 8.688046 1.621891
v -0.9304738 7.854639 1.618992
v 0.2494255 7.635629 2.001736
v -1.109825 8.688046 1.560813
v -0.06196934 7.635629 1.900723
v 0.1973642 6.536111 1.984848
v 1.049973 6.536111 2.261422
v -1.108335 7.963337 1.561297
v -1.380843 8.688046 1.472899
v -1.378525 7.963337 1.47365
v -1.082199 7.635629 1.569775
v -1.377478 7.635629 1.473991
v -2.177701 6.536111 1.214409
v -1.349569 6.536111 1.483044
v -2.655045 5.880231 1.059565
v 0.7428917 5.982222 2.161809
v 1.527512 5.880232 2.416329
v -0.9304738 7.525316 1.618992
v -0.8974623 7.606787 1.629701
v -0.8042113 7.635629 1.65995
v -0.3394068 7.635629 1.810727
v -0.2461557 7.606787 1.840976
v -0.2131443 7.525316 1.851684
v -0.2131442 6.646423 1.851684
v -0.2131441 6.208171 1.851684
v -0.2461557 6.564952 1.840976
v -0.9304737 6.646423 1.618993
v -0.9304737 6.208171 1.618993
v -0.8974622 6.564952 1.629701
v -0.3394068 6.536111 1.810727
v -0.5718089 5.880232 1.735339
v -0.8042113 6.536111 1.65995
v -0.0868817 5.880232 1.892642
v 0.6647402 5.880232 2.136458
v -0.1807241 5.851396 1.862201
v -0.2154061 5.769938 1.850951
v 0.7579913 5.851391 2.166708
v 0.7910026 5.769919 2.177416
v 1.527512 4.302849 2.416329
v 0.7910029 4.527414 2.177416
v -0.2408883 4.527397 1.842685
v 0.7910028 4.306789 2.177416
v 0.7579913 4.445943 2.166708
v 0.6647403 4.417102 2.136458
v -0.5940967 4.417102 1.728109
v -0.5940967 4.302848 1.728109
v -0.2095474 4.445939 1.852851
v -0.1168877 4.417102 1.882909
v -0.1168877 4.188595 1.882909
v -0.2101388 4.159754 1.852659
v -0.2431503 4.078282 1.841951
v -0.9439447 4.527411 1.614623
v 0.6647404 4.188595 2.136458
v -0.9315721 5.769924 1.618636
v -0.9777675 4.445942 1.603651
v -0.9637724 5.851392 1.608191
v -1.056736 5.880232 1.578035
v -1.835121 5.880231 1.325537
v -1.071306 4.417102 1.573309
v 0.7910029 4.298907 2.177416
v 0.7579914 4.159754 2.166708
v 0.7910028 4.078282 2.177416
v 1.527512 2.736054 2.41633
v 0.7910029 2.846367 2.177416
v -1.912006 5.981759 1.300597
v -1.928372 5.851391 1.295288
v -1.961384 5.769919 1.28458
v -2.655045 4.302848 1.059565
v -1.961383 4.527414 1.28458
v 0.7910029 2.625741 2.177416
v 0.7579914 2.764895 2.166708
v 1.527512 2.384186E-07 2.41633
v 0.7910032 2.384186E-07 2.177416
v 0.6647404 2.736054 2.136458
v -0.24315 0 1.841951
v -0.1168877 2.736054 1.882909
v -0.2431502 2.625741 1.841951
v -0.2101387 2.764895 1.85266
v -0.2431502 2.846366 1.841951
v -0.5940967 2.736054 1.728109
v -0.9450429 0 1.614267
v -0.945043 2.625741 1.614267
v -1.961383 -2.384186E-07 1.28458
v -0.5940967 4.188595 1.728109
v -0.9450431 4.078282 1.614267
v -0.9450431 2.846366 1.614267
v -0.9780546 4.159754 1.603558
v -0.9780545 2.764895 1.603558
v -1.071306 2.736054 1.573309
v -1.071306 4.188595 1.573309
v -1.835121 4.417102 1.325537
v -1.835121 2.736054 1.325538
v -1.835121 4.188595 1.325537
v -1.961383 2.625741 1.28458
v -1.928372 2.764895 1.295288
v -1.961383 2.846366 1.28458
v -2.655045 2.736053 1.059566
v -2.655045 -2.384186E-07 1.059566
v -1.961383 4.078282 1.28458
v -1.961383 4.298907 1.28458
v -1.928372 4.159754 1.295288
v -1.961383 4.306789 1.28458
v -1.928372 4.445943 1.295288
v -0.8957491 4.078282 1.462306
v -0.895749 2.846366 1.462306
v -0.9287605 2.764895 1.451597
v -0.9287605 4.159754 1.451597
v -1.022012 4.188595 1.421348
v -1.022012 2.736054 1.421348
v -1.785827 4.188595 1.173577
v -1.785827 2.736054 1.173577
v -1.879078 4.159754 1.143327
v -1.879078 2.764895 1.143327
v -1.912089 4.078282 1.132619
v -1.912089 2.846366 1.132619
v -0.9304738 7.525316 1.618992
v -0.8811797 7.525315 1.467031
v -0.8811797 6.646422 1.467032
v -0.9304737 6.646423 1.618993
v -0.9439447 4.527411 1.614623
v -0.8946507 4.527411 1.462662
v -0.882278 5.769924 1.466675
v -0.9315721 5.769924 1.618636
v -1.961383 4.078282 1.28458
v -1.912089 4.078282 1.132619
v -1.912089 2.846366 1.132619
v -1.961383 2.846366 1.28458
v -0.2154061 5.769938 1.850951
v -0.1661121 5.769938 1.69899
v -0.1915943 4.527397 1.690724
v -0.2408883 4.527397 1.842685
v -1.961384 5.769919 1.28458
v -1.91209 5.769919 1.132619
v -1.912089 4.527414 1.132619
v -1.961383 4.527414 1.28458
v -1.835121 2.736054 1.325538
v -1.785827 2.736054 1.173577
v -1.022012 2.736054 1.421348
v -1.071306 2.736054 1.573309
v 0.7910029 4.527414 2.177416
v 0.8402969 4.527414 2.025455
v 0.8402967 5.769919 2.025455
v 0.7910026 5.769919 2.177416
v -1.071306 4.188595 1.573309
v -1.022012 4.188595 1.421348
v -1.785827 4.188595 1.173577
v -1.835121 4.188595 1.325537
v -0.8042113 6.536111 1.65995
v -0.7549171 6.53611 1.507989
v -0.2901127 6.53611 1.658766
v -0.3394068 6.536111 1.810727
v -0.1638502 7.525315 1.699723
v -0.1638502 6.646422 1.699723
v -0.1968616 6.564952 1.689015
v -0.1968617 7.606787 1.689015
v -0.2901127 6.53611 1.658766
v -0.2901128 7.635628 1.658766
v -0.7549171 6.53611 1.507989
v -0.7549172 7.635628 1.507989
v -0.8481683 6.564952 1.47774
v -0.8481683 7.606787 1.47774
v -0.8811797 7.525315 1.467031
v -0.8811797 6.646422 1.467032
v 0.8402967 5.769919 2.025455
v 0.8402969 4.527414 2.025455
v 0.8072853 4.445943 2.014747
v 0.8072853 5.851391 2.014747
v 0.7140343 5.880232 1.984497
v 0.7140344 4.417102 1.984497
v -0.06759369 4.417102 1.730948
v -0.03758764 5.880232 1.740682
v -0.13143 5.851396 1.71024
v -0.1602533 4.445938 1.70089
v -0.1661121 5.769938 1.69899
v -0.1915943 4.527397 1.690724
v 0.8402969 4.078282 2.025455
v 0.840297 2.846366 2.025455
v 0.8072854 2.764895 2.014747
v 0.8072854 4.159754 2.014747
v 0.7140344 4.188595 1.984497
v 0.7140346 2.736054 1.984498
v -0.06759363 2.736054 1.730948
v -0.06759369 4.188595 1.730948
v -0.1608447 2.764895 1.700699
v -0.1608448 4.159754 1.700699
v -0.1938562 2.846366 1.68999
v -0.1938562 4.078282 1.68999
v -1.056736 5.880232 1.578035
v -1.007442 5.880232 1.426074
v -1.785827 5.880231 1.173576
v -1.835121 5.880231 1.325537
v -0.9144783 5.851392 1.45623
v -0.882278 5.769924 1.466675
v -0.8946507 4.527411 1.462662
v -0.9284735 4.445942 1.45169
v -1.007442 5.880232 1.426074
v -1.022012 4.417102 1.421348
v -1.785827 5.880231 1.173576
v -1.785827 4.417102 1.173577
v -1.879078 4.445943 1.143327
v -1.879078 5.851391 1.143327
v -1.912089 4.527414 1.132619
v -1.91209 5.769919 1.132619
v -0.3394068 7.635629 1.810727
v -0.2901128 7.635628 1.658766
v -0.7549172 7.635628 1.507989
v -0.8042113 7.635629 1.65995
v 0.7910029 2.846367 2.177416
v 0.840297 2.846366 2.025455
v 0.8402969 4.078282 2.025455
v 0.7910028 4.078282 2.177416
v 0.6647402 5.880232 2.136458
v 0.7140343 5.880232 1.984497
v -0.03758764 5.880232 1.740682
v -0.0868817 5.880232 1.892642
v 0.6647404 4.188595 2.136458
v 0.7140344 4.188595 1.984497
v -0.06759369 4.188595 1.730948
v -0.1168877 4.188595 1.882909
v -1.071306 4.188595 1.573309
v -0.9780546 4.159754 1.603558
v -0.9287605 4.159754 1.451597
v -1.022012 4.188595 1.421348
v -0.9780546 4.159754 1.603558
v -0.9450431 4.078282 1.614267
v -0.8957491 4.078282 1.462306
v -0.9287605 4.159754 1.451597
v -1.022012 2.736054 1.421348
v -0.9287605 2.764895 1.451597
v -0.9780545 2.764895 1.603558
v -1.071306 2.736054 1.573309
v -0.9287605 2.764895 1.451597
v -0.895749 2.846366 1.462306
v -0.9450431 2.846366 1.614267
v -0.9780545 2.764895 1.603558
v 0.6647402 5.880232 2.136458
v 0.7579913 5.851391 2.166708
v 0.8072853 5.851391 2.014747
v 0.7140343 5.880232 1.984497
v 0.7579913 5.851391 2.166708
v 0.7910026 5.769919 2.177416
v 0.8402967 5.769919 2.025455
v 0.8072853 5.851391 2.014747
v 0.7140344 4.417102 1.984497
v 0.8072853 4.445943 2.014747
v 0.7579913 4.445943 2.166708
v 0.6647403 4.417102 2.136458
v 0.8072853 4.445943 2.014747
v 0.8402969 4.527414 2.025455
v 0.7910029 4.527414 2.177416
v 0.7579913 4.445943 2.166708
v -0.9439447 4.527411 1.614623
v -0.9777675 4.445942 1.603651
v -0.9284735 4.445942 1.45169
v -0.8946507 4.527411 1.462662
v -0.9777675 4.445942 1.603651
v -1.071306 4.417102 1.573309
v -1.022012 4.417102 1.421348
v -0.9284735 4.445942 1.45169
v -1.912089 4.527414 1.132619
v -1.879078 4.445943 1.143327
v -1.928372 4.445943 1.295288
v -1.961383 4.527414 1.28458
v -1.879078 4.445943 1.143327
v -1.785827 4.417102 1.173577
v -1.835121 4.417102 1.325537
v -1.928372 4.445943 1.295288
v -0.9304738 7.525316 1.618992
v -0.8974623 7.606787 1.629701
v -0.8481683 7.606787 1.47774
v -0.8811797 7.525315 1.467031
v -0.8974623 7.606787 1.629701
v -0.8042113 7.635629 1.65995
v -0.7549172 7.635628 1.507989
v -0.8481683 7.606787 1.47774
v -0.1638502 7.525315 1.699723
v -0.1968617 7.606787 1.689015
v -0.2461557 7.606787 1.840976
v -0.2131443 7.525316 1.851684
v -0.1968617 7.606787 1.689015
v -0.2901128 7.635628 1.658766
v -0.3394068 7.635629 1.810727
v -0.2461557 7.606787 1.840976
v -1.912089 2.846366 1.132619
v -1.879078 2.764895 1.143327
v -1.928372 2.764895 1.295288
v -1.961383 2.846366 1.28458
v -1.879078 2.764895 1.143327
v -1.785827 2.736054 1.173577
v -1.835121 2.736054 1.325538
v -1.928372 2.764895 1.295288
v -0.2431503 4.078282 1.841951
v -0.2101388 4.159754 1.852659
v -0.1608448 4.159754 1.700699
v -0.1938562 4.078282 1.68999
v -0.2101388 4.159754 1.852659
v -0.1168877 4.188595 1.882909
v -0.06759369 4.188595 1.730948
v -0.1608448 4.159754 1.700699
v 0.8402969 4.078282 2.025455
v 0.8072854 4.159754 2.014747
v 0.7579914 4.159754 2.166708
v 0.7910028 4.078282 2.177416
v 0.8072854 4.159754 2.014747
v 0.7140344 4.188595 1.984497
v 0.6647404 4.188595 2.136458
v 0.7579914 4.159754 2.166708
v -1.961383 4.078282 1.28458
v -1.928372 4.159754 1.295288
v -1.879078 4.159754 1.143327
v -1.912089 4.078282 1.132619
v -1.928372 4.159754 1.295288
v -1.835121 4.188595 1.325537
v -1.785827 4.188595 1.173577
v -1.879078 4.159754 1.143327
v -0.1168877 2.736054 1.882909
v -0.2101387 2.764895 1.85266
v -0.1608447 2.764895 1.700699
v -0.06759363 2.736054 1.730948
v -0.2101387 2.764895 1.85266
v -0.2431502 2.846366 1.841951
v -0.1938562 2.846366 1.68999
v -0.1608447 2.764895 1.700699
v -1.961384 5.769919 1.28458
v -1.928372 5.851391 1.295288
v -1.879078 5.851391 1.143327
v -1.91209 5.769919 1.132619
v -1.928372 5.851391 1.295288
v -1.835121 5.880231 1.325537
v -1.785827 5.880231 1.173576
v -1.879078 5.851391 1.143327
v -0.882278 5.769924 1.466675
v -0.9144783 5.851392 1.45623
v -0.9637724 5.851392 1.608191
v -0.9315721 5.769924 1.618636
v -0.9144783 5.851392 1.45623
v -1.007442 5.880232 1.426074
v -1.056736 5.880232 1.578035
v -0.9637724 5.851392 1.608191
v -0.8042113 6.536111 1.65995
v -0.8974622 6.564952 1.629701
v -0.8481683 6.564952 1.47774
v -0.7549171 6.53611 1.507989
v -0.8974622 6.564952 1.629701
v -0.9304737 6.646423 1.618993
v -0.8811797 6.646422 1.467032
v -0.8481683 6.564952 1.47774
v 0.7140346 2.736054 1.984498
v 0.8072854 2.764895 2.014747
v 0.7579914 2.764895 2.166708
v 0.6647404 2.736054 2.136458
v 0.8072854 2.764895 2.014747
v 0.840297 2.846366 2.025455
v 0.7910029 2.846367 2.177416
v 0.7579914 2.764895 2.166708
v -0.2131442 6.646423 1.851684
v -0.2461557 6.564952 1.840976
v -0.1968616 6.564952 1.689015
v -0.1638502 6.646422 1.699723
v -0.2461557 6.564952 1.840976
v -0.3394068 6.536111 1.810727
v -0.2901127 6.53611 1.658766
v -0.1968616 6.564952 1.689015
v -0.1168877 4.417102 1.882909
v -0.2095474 4.445939 1.852851
v -0.1602533 4.445938 1.70089
v -0.06759369 4.417102 1.730948
v -0.2095474 4.445939 1.852851
v -0.2408883 4.527397 1.842685
v -0.1915943 4.527397 1.690724
v -0.1602533 4.445938 1.70089
v -0.03758764 5.880232 1.740682
v -0.13143 5.851396 1.71024
v -0.1807241 5.851396 1.862201
v -0.0868817 5.880232 1.892642
v -0.13143 5.851396 1.71024
v -0.1661121 5.769938 1.69899
v -0.2154061 5.769938 1.850951
v -0.1807241 5.851396 1.862201
v -0.1168877 2.736054 1.882909
v -0.06759363 2.736054 1.730948
v 0.7140346 2.736054 1.984498
v 0.6647404 2.736054 2.136458
v -0.5003294 8.085486 1.790124
v -0.6605651 8.085486 1.72836
v -0.662156 8.505675 1.732736
v -0.5031542 8.505675 1.784314
v 0.1483063 6.965247 2.000532
v -0.01192957 6.965247 1.938768
v -0.01306367 7.231062 1.941888
v 0.1462924 7.231062 1.996391
v -0.01352048 7.338146 1.943145
v -0.08261839 7.231062 1.919326
v -0.08307514 7.338146 1.920582
v 0.1454813 7.338146 1.994723
v 0.2110517 7.338146 2.015993
v 0.2118628 7.231062 2.017662
v -1.176005 6.965247 1.570944
v -1.336241 6.965247 1.50918
v -1.337375 7.231062 1.5123
v -1.178019 7.231062 1.566803
v -1.337832 7.338146 1.513556
v -1.40693 7.231062 1.489737
v -1.407387 7.338146 1.490994
v -1.17883 7.338146 1.565135
v -1.11326 7.338146 1.586405
v -1.112449 7.231062 1.588073
v -2.377304 5.502729 1.181202
v -2.53756 5.502397 1.119491
v -2.539193 5.76821 1.122475
v -2.379819 5.768538 1.176926
v -2.539851 5.875295 1.123678
v -2.380832 5.87562 1.175203
v -2.218359 5.875754 1.227883
v -2.217346 5.768672 1.229606
v -2.377304 3.953926 1.181202
v -2.53756 3.953592 1.119491
v -2.539192 4.219406 1.122476
v -2.379819 4.219734 1.176926
v -2.53985 4.32649 1.123678
v -2.380832 4.326816 1.175203
v -2.218359 4.32695 1.227884
v -2.217345 4.219868 1.229606
v -2.377303 2.426058 1.181203
v -2.53756 2.425725 1.119492
v -2.539192 2.691539 1.122476
v -2.379819 2.691866 1.176926
v -2.53985 2.798623 1.123678
v -2.380832 2.798948 1.175204
v -2.218359 2.799083 1.227884
v -2.217345 2.692001 1.229606
v 1.194221 2.426058 2.339756
v 1.359757 2.691539 2.387241
v 1.360187 2.425725 2.383867
v 1.198768 2.691867 2.33777
v 1.359584 2.798623 2.388601
v 1.200599 2.798949 2.336971
v 1.03814 2.799083 2.284247
v 1.036309 2.692001 2.285047
v 1.194221 3.966693 2.339756
v 1.359757 4.232174 2.387241
v 1.360186 3.96636 2.383867
v 1.198768 4.232502 2.33777
v 1.359584 4.339258 2.388601
v 1.200599 4.339583 2.33697
v 1.03814 4.339718 2.284247
v 1.036309 4.232636 2.285047
v 1.194221 5.500749 2.339756
v 1.359757 5.76623 2.387241
v 1.360186 5.500417 2.383867
v 1.198768 5.766558 2.33777
v 1.359584 5.873314 2.388601
v 1.200599 5.87364 2.33697
v 1.03814 5.873775 2.284247
v 1.036308 5.766692 2.285047
v 1.979814 4.512907 1.110838
v 1.733024 4.512907 1.871627
v 1.733024 5.541856 1.871626
v 1.979814 5.541856 1.110838
v 2.487674 4.512907 -0.4547651
v 2.240884 4.512907 0.3060237
v 2.240884 5.541856 0.3060237
v 2.487674 5.541855 -0.4547651
v 1.979814 2.75864 1.110838
v 1.733024 2.75864 1.871627
v 1.733024 3.787589 1.871627
v 1.979814 3.787589 1.110838
v 2.487674 2.75864 -0.4547646
v 2.240884 2.75864 0.3060238
v 2.240884 3.787589 0.3060238
v 2.487674 3.787589 -0.4547651
v 1.979814 0.7586082 1.110838
v 1.733024 0.7586083 1.871627
v 1.733024 1.787557 1.871627
v 1.979814 1.787557 1.110838
v 2.487674 0.7586081 -0.4547648
v 2.240885 0.7586082 0.3060241
v 2.240885 1.787557 0.3060241
v 2.487674 1.787557 -0.4547648
v -0.2065803 8.688046 1.853813
v -1.046842 8.688046 1.743932
v -0.1768992 8.688046 2.026129
v -0.9215361 8.688046 1.621891
v -0.0344494 8.688047 1.90965
v -1.275948 8.688046 1.669613
v 0.03254604 8.688046 2.094071
v -1.109825 8.688046 1.560813
v 0.2533097 8.688047 2.002995
v -1.605717 8.688046 1.562641
v 0.3826849 8.688047 2.207651
v -1.380843 8.688046 1.472899
v 0.3282127 8.688046 1.772088
v -1.435315 8.688046 1.037336
v 0.5530865 8.688047 1.682346
v -1.30594 8.688046 1.241991
v 0.04045379 8.688046 1.678743
v -1.105546 8.688046 1.144309
v 0.2029477 8.688047 1.568766
v -1.034922 8.688046 1.329906
v -0.1316772 8.688046 1.622906
v -0.8764404 8.688047 1.218627
v -0.006497562 8.688047 1.500825
v -0.846633 8.688046 1.390984
vt 0.8461914 0.8417969
vt 0.8461914 0.8686523
vt 0.8461914 0.8686523
vt 0.8461914 0.8417969
vt 0.8466797 0.8417969
vt 0.8461914 0.8417969
vt 0.8461914 0.8686523
vt 0.8466797 0.8686523
vt 0.8476563 0.8417969
vt 0.8466797 0.8691406
vt 0.8476563 0.8686523
vt 0.8544922 0.8686523
vt 0.8544922 0.8417969
vt 0.8544922 0.8691406
vt 0.8476563 0.8691406
vt 0.8544922 0.8696289
vt 0.8466797 0.8691406
vt 0.8461914 0.8686523
vt 0.8466797 0.8696289
vt 0.8476563 0.8696289
vt 0.8476563 0.8701172
vt 0.8544922 0.8701172
vt 0.8837891 0.8686523
vt 0.8837891 0.8422852
vt 0.8837891 0.8417969
vt 0.8837891 0.8686523
vt 0.8833008 0.8696289
vt 0.8833008 0.8686523
vt 0.8833008 0.8417969
vt 0.8833008 0.8696289
vt 0.8823242 0.8701172
vt 0.8833008 0.8691406
vt 0.8823242 0.8686523
vt 0.8823242 0.8417969
vt 0.8754883 0.8417969
vt 0.8754883 0.8686523
vt 0.8823242 0.8701172
vt 0.8754883 0.8701172
vt 0.8754883 0.8696289
vt 0.8754883 0.8696289
vt 0.8823242 0.8696289
vt 0.9418945 0.8417969
vt 0.9487305 0.8686523
vt 0.9487305 0.8417969
vt 0.9418945 0.8686523
vt 0.9487305 0.8691406
vt 0.9418945 0.8691406
vt 0.9487305 0.8696289
vt 0.9418945 0.8696289
vt 0.9418945 0.8701172
vt 0.9487305 0.8701172
vt 0.8618164 0.8417969
vt 0.8681641 0.8686523
vt 0.8686523 0.8417969
vt 0.8613281 0.8686523
vt 0.8681641 0.8696289
vt 0.8613281 0.8691406
vt 0.8686523 0.8696289
vt 0.8613281 0.8696289
vt 0.8613281 0.8701172
vt 0.8686523 0.8701172
vt 0.9555664 0.8417969
vt 0.9624023 0.8686523
vt 0.9624023 0.8417969
vt 0.9555664 0.8686523
vt 0.9624023 0.8696289
vt 0.9555664 0.8696289
vt 0.9624023 0.8696289
vt 0.9555664 0.8696289
vt 0.9555664 0.8701172
vt 0.9624023 0.8701172
vt 0.1240234 0.8686523
vt 0.1270752 0.8745117
vt 0.1240234 0.8745117
vt 0.1270752 0.8686523
vt 0.1240234 0.862793
vt 0.1270752 0.862793
vt 0.1240234 0.8530273
vt 0.1270752 0.8530273
vt 0.1381836 0.8686523
vt 0.1352539 0.8745117
vt 0.1381836 0.8745117
vt 0.1352539 0.8686523
vt 0.1381836 0.862793
vt 0.1352539 0.862793
vt 0.1381836 0.8530273
vt 0.1352539 0.8530273
vt 0.239502 0.8583984
vt 0.237915 0.8642578
vt 0.2381592 0.8637695
vt 0.2392578 0.8583984
vt 0.2402344 0.8549805
vt 0.2399902 0.8549805
vt 0.1273193 0.875
vt 0.1326904 0.8847656
vt 0.1324463 0.8847656
vt 0.1270752 0.8745117
vt 0.1246338 0.875
vt 0.1240234 0.8745117
vt 0.1253662 0.8764648
vt 0.1257324 0.8769531
vt 0.1274414 0.8803711
vt 0.1276855 0.8803711
vt 0.1339111 0.8769531
vt 0.1318359 0.8803711
vt 0.1320801 0.8803711
vt 0.1339111 0.8764648
vt 0.1350098 0.875
vt 0.1352539 0.8745117
vt 0.1375732 0.875
vt 0.1381836 0.8745117
vt 0.1324463 0.8847656
vt 0.1326904 0.8847656
vt 0.7675781 0.6992188
vt 0.7675781 0.411377
vt 0.418457 0.411377
vt 0.418457 0.4802246
vt 0.418457 0.5957031
vt 0.418457 0.6992188
vt 0.7509766 0.4763184
vt 0.7509766 0.4008789
vt 0.4162598 0.4008789
vt 0.4162598 0.7158203
vt 0.7509766 0.6030273
vt 0.7509766 0.7158203
vt 0.2332764 0.8549805
vt 0.2335205 0.8549805
vt 0.2316895 0.8549805
vt 0.2314453 0.8549805
vt 0.2349854 0.8706055
vt 0.2382813 0.8549805
vt 0.2385254 0.8549805
vt 0.2349854 0.8691406
vt 0.2316895 0.8549805
vt 0.2314453 0.8549805
vt 0.2385254 0.8549805
vt 0.2382813 0.8549805
vt 0.2399902 0.8549805
vt 0.2402344 0.8549805
vt 0.2342529 0.8583984
vt 0.2335205 0.8549805
vt 0.2332764 0.8549805
vt 0.2340088 0.8583984
vt 0.2354736 0.8642578
vt 0.2352295 0.8637695
vt 0.1274414 0.8818359
vt 0.1274414 0.8803711
vt 0.1276855 0.8803711
vt 0.1276855 0.8818359
vt 0.1274414 0.8842773
vt 0.1276855 0.8842773
vt 0.1318359 0.8818359
vt 0.1318359 0.8842773
vt 0.131958 0.8842773
vt 0.1320801 0.8818359
vt 0.1318359 0.8803711
vt 0.1320801 0.8803711
vt 0.4748535 0.894043
vt 0.4746094 0.894043
vt 0.4729004 0.894043
vt 0.4733887 0.894043
vt 0.4750977 0.894043
vt 0.4736328 0.894043
vt 0.4758301 0.894043
vt 0.4743652 0.894043
vt 0.4760742 0.894043
vt 0.4746094 0.894043
vt 0.4763184 0.894043
vt 0.4748535 0.894043
vt 0.4748535 0.8500977
vt 0.4763184 0.8500977
vt 0.4763184 0.894043
vt 0.4748535 0.894043
vt 0.4748535 0.8500977
vt 0.4746094 0.8500977
vt 0.4746094 0.894043
vt 0.4748535 0.894043
vt 0.4750977 0.8500977
vt 0.4750977 0.894043
vt 0.4758301 0.8500977
vt 0.4758301 0.894043
vt 0.4760742 0.8500977
vt 0.4760742 0.894043
vt 0.4763184 0.8500977
vt 0.4763184 0.894043
vt 0.4746094 0.8500977
vt 0.4729004 0.8500977
vt 0.4729004 0.894043
vt 0.4746094 0.894043
vt 0.4746094 0.8500977
vt 0.4748535 0.8500977
vt 0.4748535 0.894043
vt 0.4746094 0.894043
vt 0.4743652 0.8500977
vt 0.4743652 0.894043
vt 0.4736328 0.8500977
vt 0.4736328 0.894043
vt 0.4733887 0.8500977
vt 0.4733887 0.894043
vt 0.4729004 0.8500977
vt 0.4729004 0.894043
vt 0.1306152 0.8769531
vt 0.1307373 0.8769531
vt 0.1307373 0.8803711
vt 0.1306152 0.8803711
vt 0.1308594 0.8691406
vt 0.1309814 0.8691406
vt 0.1330566 0.8691406
vt 0.1329346 0.8691406
vt 0.1304932 0.8676758
vt 0.1306152 0.8676758
vt 0.1306152 0.8632813
vt 0.1304932 0.8632813
vt 0.1262207 0.8691406
vt 0.1263428 0.8691406
vt 0.128418 0.8691406
vt 0.1282959 0.8691406
vt 0.1286621 0.8632813
vt 0.1287842 0.8632813
vt 0.1287842 0.8676758
vt 0.1286621 0.8676758
vt 0.7783203 0.862793
vt 0.7714844 0.8632813
vt 0.7714844 0.8759766
vt 0.7783203 0.8754883
vt 0.6035156 0.8530273
vt 0.5874023 0.8530273
vt 0.5874023 0.8969727
vt 0.6035156 0.8969727
vt 0.1270752 0.8530273
vt 0.1381836 0.8530273
vt 0.1381836 0.862793
vt 0.1270752 0.862793
vt 0.1270752 0.8686523
vt 0.1381836 0.8686523
vt 0.1270752 0.8745117
vt 0.1381836 0.8745117
vt 0.1326904 0.8847656
vt 0.1318359 0.8818359
vt 0.1311035 0.8842773
vt 0.1318359 0.8842773
vt 0.1311035 0.8818359
vt 0.1306152 0.8842773
vt 0.1306152 0.8813477
vt 0.1286621 0.8842773
vt 0.1286621 0.8813477
vt 0.1318359 0.8803711
vt 0.1281738 0.8842773
vt 0.1309814 0.8803711
vt 0.1317139 0.8764648
vt 0.1339111 0.8764648
vt 0.1281738 0.8818359
vt 0.1274414 0.8842773
vt 0.1274414 0.8818359
vt 0.1282959 0.8803711
vt 0.1274414 0.8803711
vt 0.1253662 0.8764648
vt 0.1275635 0.8764648
vt 0.1240234 0.8745117
vt 0.1331787 0.8745117
vt 0.1352539 0.8745117
vt 0.1286621 0.8803711
vt 0.1287842 0.8803711
vt 0.1290283 0.8803711
vt 0.130249 0.8803711
vt 0.1304932 0.8803711
vt 0.1306152 0.8803711
vt 0.1306152 0.8769531
vt 0.1306152 0.8754883
vt 0.1304932 0.8769531
vt 0.1286621 0.8769531
vt 0.1286621 0.8754883
vt 0.1287842 0.8769531
vt 0.130249 0.8764648
vt 0.1296387 0.8745117
vt 0.1290283 0.8764648
vt 0.1308594 0.8745117
vt 0.1329346 0.8745117
vt 0.1306152 0.8740234
vt 0.1306152 0.8740234
vt 0.1331787 0.8740234
vt 0.1333008 0.8740234
vt 0.1352539 0.8686523
vt 0.1333008 0.8696289
vt 0.1304932 0.8696289
vt 0.1333008 0.8686523
vt 0.1331787 0.8691406
vt 0.1329346 0.8691406
vt 0.1295166 0.8691406
vt 0.1295166 0.8686523
vt 0.1306152 0.8691406
vt 0.1308594 0.8691406
vt 0.1308594 0.8681641
vt 0.1306152 0.8681641
vt 0.1304932 0.8676758
vt 0.1286621 0.8696289
vt 0.1329346 0.8681641
vt 0.1286621 0.8740234
vt 0.12854 0.8691406
vt 0.12854 0.8740234
vt 0.1282959 0.8745117
vt 0.1262207 0.8745117
vt 0.1282959 0.8691406
vt 0.1333008 0.8686523
vt 0.1331787 0.8681641
vt 0.1333008 0.8676758
vt 0.1352539 0.862793
vt 0.1333008 0.8632813
vt 0.1259766 0.8745117
vt 0.1259766 0.8740234
vt 0.1258545 0.8740234
vt 0.1240234 0.8686523
vt 0.1258545 0.8696289
vt 0.1333008 0.862793
vt 0.1331787 0.8632813
vt 0.1352539 0.8530273
vt 0.1333008 0.8530273
vt 0.1329346 0.862793
vt 0.1304932 0.8530273
vt 0.1308594 0.862793
vt 0.1304932 0.862793
vt 0.1306152 0.8632813
vt 0.1304932 0.8632813
vt 0.1295166 0.862793
vt 0.1286621 0.8530273
vt 0.1286621 0.862793
vt 0.1258545 0.8530273
vt 0.1295166 0.8681641
vt 0.1286621 0.8676758
vt 0.1286621 0.8632813
vt 0.12854 0.8681641
vt 0.12854 0.8632813
vt 0.1282959 0.862793
vt 0.1282959 0.8681641
vt 0.1262207 0.8691406
vt 0.1262207 0.862793
vt 0.1262207 0.8681641
vt 0.1258545 0.862793
vt 0.1259766 0.8632813
vt 0.1258545 0.8632813
vt 0.1240234 0.862793
vt 0.1240234 0.8530273
vt 0.1258545 0.8676758
vt 0.1258545 0.8686523
vt 0.1259766 0.8681641
vt 0.1258545 0.8686523
vt 0.1259766 0.8691406
vt 0.5981445 0.8930664
vt 0.5981445 0.8530273
vt 0.597168 0.8500977
vt 0.597168 0.8955078
vt 0.5957031 0.8964844
vt 0.5957031 0.8491211
vt 0.5834961 0.8964844
vt 0.5834961 0.8491211
vt 0.581543 0.8955078
vt 0.581543 0.8500977
vt 0.5810547 0.8930664
vt 0.5810547 0.8530273
vt 0.1286621 0.8803711
vt 0.1287842 0.8803711
vt 0.1287842 0.8769531
vt 0.1286621 0.8769531
vt 0.1286621 0.8696289
vt 0.1287842 0.8696289
vt 0.1287842 0.8740234
vt 0.1286621 0.8740234
vt 0.1258545 0.8676758
vt 0.1259766 0.8676758
vt 0.1259766 0.8632813
vt 0.1258545 0.8632813
vt 0.1306152 0.8740234
vt 0.1307373 0.8740234
vt 0.1306152 0.8696289
vt 0.1304932 0.8696289
vt 0.1258545 0.8740234
vt 0.1259766 0.8740234
vt 0.1259766 0.8696289
vt 0.1258545 0.8696289
vt 0.1262207 0.862793
vt 0.1263428 0.862793
vt 0.128418 0.862793
vt 0.1282959 0.862793
vt 0.1333008 0.8696289
vt 0.1334229 0.8696289
vt 0.1334229 0.8740234
vt 0.1333008 0.8740234
vt 0.1282959 0.8681641
vt 0.128418 0.8681641
vt 0.1263428 0.8681641
vt 0.1262207 0.8681641
vt 0.1290283 0.8764648
vt 0.1291504 0.8764648
vt 0.1303711 0.8764648
vt 0.130249 0.8764648
vt 0.6005859 0.8950195
vt 0.6005859 0.859375
vt 0.6000977 0.855957
vt 0.6000977 0.8984375
vt 0.5976563 0.8544922
vt 0.5976563 0.8994141
vt 0.5859375 0.8544922
vt 0.5859375 0.8994141
vt 0.5834961 0.855957
vt 0.5834961 0.8984375
vt 0.5830078 0.8950195
vt 0.5830078 0.859375
vt 0.6162109 0.9003906
vt 0.6162109 0.8574219
vt 0.6162109 0.8540039
vt 0.6162109 0.9038086
vt 0.6113281 0.9042969
vt 0.6118164 0.8535156
vt 0.5820313 0.8535156
vt 0.5820313 0.9042969
vt 0.5776367 0.9038086
vt 0.5776367 0.8540039
vt 0.5771484 0.9003906
vt 0.5771484 0.8574219
vt 0.5981445 0.8955078
vt 0.5981445 0.8549805
vt 0.5976563 0.8525391
vt 0.5976563 0.8979492
vt 0.5961914 0.8989258
vt 0.5961914 0.8515625
vt 0.5830078 0.8515625
vt 0.5830078 0.8989258
vt 0.581543 0.8525391
vt 0.581543 0.8979492
vt 0.5810547 0.8549805
vt 0.5810547 0.8955078
vt 0.1282959 0.8745117
vt 0.128418 0.8745117
vt 0.1263428 0.8745117
vt 0.1262207 0.8745117
vt 0.6152344 0.9038086
vt 0.6157227 0.9003906
vt 0.6157227 0.8574219
vt 0.6152344 0.8540039
vt 0.6108398 0.9042969
vt 0.6108398 0.8535156
vt 0.5820313 0.9042969
vt 0.5820313 0.8535156
vt 0.5776367 0.8540039
vt 0.5776367 0.9038086
vt 0.5771484 0.8574219
vt 0.5771484 0.9003906
vt 0.130249 0.8803711
vt 0.1303711 0.8803711
vt 0.1291504 0.8803711
vt 0.1290283 0.8803711
vt 0.1333008 0.8632813
vt 0.1334229 0.8632813
vt 0.1334229 0.8676758
vt 0.1333008 0.8676758
vt 0.1329346 0.8745117
vt 0.1330566 0.8745117
vt 0.1309814 0.8745117
vt 0.1308594 0.8745117
vt 0.1329346 0.8681641
vt 0.1330566 0.8681641
vt 0.1309814 0.8681641
vt 0.1308594 0.8681641
vt 0.1282959 0.8681641
vt 0.12854 0.8681641
vt 0.1286621 0.8681641
vt 0.128418 0.8681641
vt 0.12854 0.8681641
vt 0.1286621 0.8676758
vt 0.1287842 0.8676758
vt 0.1286621 0.8681641
vt 0.128418 0.862793
vt 0.1286621 0.8632813
vt 0.12854 0.8632813
vt 0.1282959 0.862793
vt 0.1286621 0.8632813
vt 0.1287842 0.8632813
vt 0.1286621 0.8632813
vt 0.12854 0.8632813
vt 0.1329346 0.8745117
vt 0.1331787 0.8740234
vt 0.1333008 0.8740234
vt 0.1330566 0.8745117
vt 0.1331787 0.8740234
vt 0.1333008 0.8740234
vt 0.1334229 0.8740234
vt 0.1333008 0.8740234
vt 0.1330566 0.8691406
vt 0.1333008 0.8691406
vt 0.1331787 0.8691406
vt 0.1329346 0.8691406
vt 0.1333008 0.8691406
vt 0.1334229 0.8696289
vt 0.1333008 0.8696289
vt 0.1331787 0.8691406
vt 0.1286621 0.8696289
vt 0.12854 0.8691406
vt 0.1286621 0.8691406
vt 0.1287842 0.8696289
vt 0.12854 0.8691406
vt 0.1282959 0.8691406
vt 0.128418 0.8691406
vt 0.1286621 0.8691406
vt 0.1259766 0.8696289
vt 0.1260986 0.8691406
vt 0.1259766 0.8691406
vt 0.1258545 0.8696289
vt 0.1260986 0.8691406
vt 0.1263428 0.8691406
vt 0.1262207 0.8691406
vt 0.1259766 0.8691406
vt 0.1286621 0.8803711
vt 0.1287842 0.8803711
vt 0.1289063 0.8803711
vt 0.1287842 0.8803711
vt 0.1287842 0.8803711
vt 0.1290283 0.8803711
vt 0.1291504 0.8803711
vt 0.1289063 0.8803711
vt 0.1307373 0.8803711
vt 0.1306152 0.8803711
vt 0.1304932 0.8803711
vt 0.1306152 0.8803711
vt 0.1306152 0.8803711
vt 0.1303711 0.8803711
vt 0.130249 0.8803711
vt 0.1304932 0.8803711
vt 0.1259766 0.8632813
vt 0.1260986 0.8632813
vt 0.1259766 0.8632813
vt 0.1258545 0.8632813
vt 0.1260986 0.8632813
vt 0.1263428 0.862793
vt 0.1262207 0.862793
vt 0.1259766 0.8632813
vt 0.1304932 0.8676758
vt 0.1306152 0.8681641
vt 0.1307373 0.8681641
vt 0.1306152 0.8676758
vt 0.1306152 0.8681641
vt 0.1308594 0.8681641
vt 0.1309814 0.8681641
vt 0.1307373 0.8681641
vt 0.1334229 0.8676758
vt 0.1333008 0.8681641
vt 0.1331787 0.8681641
vt 0.1333008 0.8676758
vt 0.1333008 0.8681641
vt 0.1330566 0.8681641
vt 0.1329346 0.8681641
vt 0.1331787 0.8681641
vt 0.1258545 0.8676758
vt 0.1259766 0.8681641
vt 0.1260986 0.8681641
vt 0.1259766 0.8676758
vt 0.1259766 0.8681641
vt 0.1262207 0.8681641
vt 0.1263428 0.8681641
vt 0.1260986 0.8681641
vt 0.1308594 0.862793
vt 0.1306152 0.8632813
vt 0.1307373 0.8632813
vt 0.1309814 0.862793
vt 0.1306152 0.8632813
vt 0.1304932 0.8632813
vt 0.1306152 0.8632813
vt 0.1307373 0.8632813
vt 0.1258545 0.8740234
vt 0.1259766 0.8740234
vt 0.1260986 0.8740234
vt 0.1259766 0.8740234
vt 0.1259766 0.8740234
vt 0.1262207 0.8745117
vt 0.1263428 0.8745117
vt 0.1260986 0.8740234
vt 0.1287842 0.8740234
vt 0.1286621 0.8740234
vt 0.12854 0.8740234
vt 0.1286621 0.8740234
vt 0.1286621 0.8740234
vt 0.128418 0.8745117
vt 0.1282959 0.8745117
vt 0.12854 0.8740234
vt 0.1290283 0.8764648
vt 0.1287842 0.8769531
vt 0.1289063 0.8769531
vt 0.1291504 0.8764648
vt 0.1287842 0.8769531
vt 0.1286621 0.8769531
vt 0.1287842 0.8769531
vt 0.1289063 0.8769531
vt 0.1330566 0.862793
vt 0.1333008 0.8632813
vt 0.1331787 0.8632813
vt 0.1329346 0.862793
vt 0.1333008 0.8632813
vt 0.1334229 0.8632813
vt 0.1333008 0.8632813
vt 0.1331787 0.8632813
vt 0.1306152 0.8769531
vt 0.1304932 0.8769531
vt 0.1306152 0.8769531
vt 0.1307373 0.8769531
vt 0.1304932 0.8769531
vt 0.130249 0.8764648
vt 0.1303711 0.8764648
vt 0.1306152 0.8769531
vt 0.1308594 0.8691406
vt 0.1306152 0.8691406
vt 0.1307373 0.8691406
vt 0.1309814 0.8691406
vt 0.1306152 0.8691406
vt 0.1304932 0.8696289
vt 0.1306152 0.8696289
vt 0.1307373 0.8691406
vt 0.1309814 0.8745117
vt 0.1307373 0.8740234
vt 0.1306152 0.8740234
vt 0.1308594 0.8745117
vt 0.1307373 0.8740234
vt 0.1307373 0.8740234
vt 0.1306152 0.8740234
vt 0.1306152 0.8740234
vt 0.1308594 0.862793
vt 0.1309814 0.862793
vt 0.1330566 0.862793
vt 0.1329346 0.862793
vt 0.6914063 0.8535156
vt 0.6914063 0.8535156
vt 0.6914063 0.8525391
vt 0.6914063 0.8525391
vt 0.6899414 0.855957
vt 0.6899414 0.855957
vt 0.6899414 0.8549805
vt 0.6899414 0.8549805
vt 0.6899414 0.8549805
vt 0.6904297 0.8549805
vt 0.6904297 0.8549805
vt 0.6899414 0.8549805
vt 0.6894531 0.8549805
vt 0.6894531 0.8549805
vt 0.6928711 0.855957
vt 0.6928711 0.855957
vt 0.6928711 0.8549805
vt 0.6928711 0.8549805
vt 0.6928711 0.8549805
vt 0.6933594 0.8549805
vt 0.6933594 0.8549805
vt 0.6928711 0.8549805
vt 0.6923828 0.8549805
vt 0.6923828 0.8549805
vt 0.6953125 0.8588867
vt 0.6958008 0.8588867
vt 0.6958008 0.8583984
vt 0.6953125 0.8583984
vt 0.6958008 0.8583984
vt 0.6953125 0.8583984
vt 0.6948242 0.8583984
vt 0.6948242 0.8583984
vt 0.6953125 0.8623047
vt 0.6958008 0.8623047
vt 0.6958008 0.8618164
vt 0.6953125 0.8618164
vt 0.6958008 0.8618164
vt 0.6953125 0.8618164
vt 0.6948242 0.8618164
vt 0.6948242 0.8618164
vt 0.6953125 0.8657227
vt 0.6958008 0.8657227
vt 0.6958008 0.8652344
vt 0.6953125 0.8652344
vt 0.6958008 0.8652344
vt 0.6953125 0.8652344
vt 0.6948242 0.8652344
vt 0.6948242 0.8652344
vt 0.6875 0.8657227
vt 0.6870117 0.8652344
vt 0.6870117 0.8657227
vt 0.6875 0.8652344
vt 0.6870117 0.8652344
vt 0.6875 0.8652344
vt 0.6875 0.8652344
vt 0.6875 0.8652344
vt 0.6875 0.8623047
vt 0.6870117 0.8618164
vt 0.6870117 0.8623047
vt 0.6875 0.8618164
vt 0.6870117 0.8618164
vt 0.6875 0.8618164
vt 0.6875 0.8618164
vt 0.6875 0.8618164
vt 0.6875 0.8588867
vt 0.6870117 0.8583984
vt 0.6870117 0.8588867
vt 0.6875 0.8583984
vt 0.6870117 0.8583984
vt 0.6875 0.8583984
vt 0.6875 0.8583984
vt 0.6875 0.8583984
vt 0.605957 0.855957
vt 0.5893555 0.855957
vt 0.5893555 0.8901367
vt 0.605957 0.8901367
vt 0.605957 0.855957
vt 0.5893555 0.855957
vt 0.5893555 0.8901367
vt 0.605957 0.8901367
vt 0.6108398 0.8305664
vt 0.5742188 0.8305664
vt 0.5742188 0.8798828
vt 0.6108398 0.8798828
vt 0.609375 0.8305664
vt 0.5727539 0.8305664
vt 0.5727539 0.8798828
vt 0.609375 0.8798828
vt 0.6166992 0.8339844
vt 0.5722656 0.8339844
vt 0.5722656 0.8945313
vt 0.6166992 0.8945313
vt 0.6162109 0.8339844
vt 0.5717773 0.8339844
vt 0.5717773 0.8945313
vt 0.6162109 0.8945313
vt 0.4753418 0.8500977
vt 0.4750977 0.8500977
vt 0.4758301 0.8500977
vt 0.4746094 0.8500977
vt 0.4755859 0.8500977
vt 0.4748535 0.8500977
vt 0.4760742 0.8500977
vt 0.4746094 0.8500977
vt 0.4758301 0.8500977
vt 0.4746094 0.8500977
vt 0.4763184 0.8500977
vt 0.4741211 0.8500977
vt 0.4750977 0.8500977
vt 0.4729004 0.8500977
vt 0.4748535 0.8500977
vt 0.4736328 0.8500977
vt 0.4748535 0.8500977
vt 0.4733887 0.8500977
vt 0.4746094 0.8500977
vt 0.473877 0.8500977
vt 0.4746094 0.8500977
vt 0.4736328 0.8500977
vt 0.4743652 0.8500977
vt 0.4741211 0.8500977
vn 0.9511719 0 0.3085938
vn 0.7924805 -0.06445313 0.6064453
vn 0.7822266 0.1483154 0.6049805
vn 0.9086914 0.2369385 0.3430176
vn 0.4575195 0.8305664 0.317627
vn 0.9086914 0.2369385 0.3430176
vn 0.7822266 0.1483154 0.6049805
vn 0.4321289 0.7490234 0.5024414
vn -0.03894043 0.9814453 0.1875
vn 0.1254883 0.5537109 0.8232422
vn -0.05187988 0.9731445 0.2233887
vn -0.07122803 0.9731445 0.2196045
vn -0.05874634 0.9819336 0.1810303
vn -0.239502 0.6303711 0.7382813
vn -0.1843262 0.612793 0.7685547
vn -0.3078613 -0.06161499 0.9492188
vn 0.2485352 -0.01480103 0.9682617
vn 0.7924805 -0.06445313 0.6064453
vn 0.2315674 -0.1630859 0.9589844
vn -0.2192383 -0.07403564 0.9726563
vn -0.2041016 -0.1893311 0.9604492
vn -0.3029785 -0.1903076 0.9335938
vn -0.9975586 -0.06445313 0.02574158
vn -0.9511719 0 -0.3085938
vn -0.9375 0.2369385 -0.2556152
vn -0.9882813 0.1483154 0.03044128
vn -0.7504883 -0.1630859 0.640625
vn -0.6450195 0.7490234 0.1530762
vn -0.5571289 0.8305664 -0.0113678
vn -0.7695313 -0.01480103 0.6381836
vn -0.3984375 -0.1893311 0.8974609
vn -0.5849609 0.5537109 0.5927734
vn -0.08911133 0.9731445 0.2113037
vn -0.07849121 0.9814453 0.1745605
vn -0.05874634 0.9819336 0.1810303
vn -0.07122803 0.9731445 0.2196045
vn -0.3935547 -0.07403564 0.9165039
vn -0.3029785 -0.1903076 0.9335938
vn -0.3078613 -0.06161499 0.9492188
vn -0.239502 0.6303711 0.7382813
vn -0.3017578 0.612793 0.7304688
vn -0.05874634 0.9819336 0.1810303
vn -0.07122803 0.9731445 0.2196045
vn -0.05874634 0.9819336 0.1810303
vn -0.07122803 0.9731445 0.2196045
vn -0.239502 0.6303711 0.7382813
vn -0.239502 0.6303711 0.7382813
vn -0.3078613 -0.06161499 0.9492188
vn -0.3078613 -0.06161499 0.9492188
vn -0.3029785 -0.1903076 0.9335938
vn -0.3029785 -0.1903076 0.9335938
vn -0.05874634 0.9819336 0.1810303
vn -0.07122803 0.9731445 0.2196045
vn -0.05874634 0.9819336 0.1810303
vn -0.07122803 0.9731445 0.2196045
vn -0.239502 0.6303711 0.7382813
vn -0.239502 0.6303711 0.7382813
vn -0.3078613 -0.06161499 0.9492188
vn -0.3078613 -0.06161499 0.9492188
vn -0.3029785 -0.1903076 0.9335938
vn -0.3029785 -0.1903076 0.9335938
vn -0.05874634 0.9819336 0.1810303
vn -0.07122803 0.9731445 0.2196045
vn -0.05874634 0.9819336 0.1810303
vn -0.07122803 0.9731445 0.2196045
vn -0.239502 0.6303711 0.7382813
vn -0.239502 0.6303711 0.7382813
vn -0.3078613 -0.06161499 0.9492188
vn -0.3078613 -0.06161499 0.9492188
vn -0.3029785 -0.1903076 0.9335938
vn -0.3029785 -0.1903076 0.9335938
vn -0.9511719 0 -0.3085938
vn -0.9511719 0 -0.3085938
vn -0.9511719 0 -0.3085938
vn -0.9511719 0 -0.3085938
vn -0.9511719 0 -0.3085938
vn -0.9511719 0 -0.3085938
vn -0.9511719 0 -0.3085938
vn -0.9511719 0 -0.3085938
vn 0.9511719 0 0.3085938
vn 0.9511719 0 0.3085938
vn 0.9511719 0 0.3085938
vn 0.9511719 0 0.3085938
vn 0.9511719 0 0.3085938
vn 0.9511719 0 0.3085938
vn 0.9511719 0 0.3085938
vn 0.9511719 0 0.3085938
vn 0.3012695 0.006324768 -0.9536133
vn 0.3012695 0.006324768 -0.9536133
vn 0.3012695 0.006324768 -0.9536133
vn 0.3012695 0.006324768 -0.9536133
vn 0.3068848 0.001825333 -0.9516602
vn 0.3068848 0.001825333 -0.9516602
vn -0.7563477 0.6064453 -0.2453613
vn -0.7563477 0.6064453 -0.2453613
vn -0.7563477 0.6064453 -0.2453613
vn -0.7563477 0.6064453 -0.2453613
vn -0.7563477 0.6064453 -0.2453613
vn -0.7563477 0.6064453 -0.2453613
vn -0.7568359 0.6074219 -0.2421875
vn -0.7568359 0.6074219 -0.2421875
vn -0.7583008 0.6074219 -0.2376709
vn -0.7583008 0.6074219 -0.2376709
vn 0.7519531 0.6069336 0.2563477
vn 0.7519531 0.6069336 0.2563477
vn 0.7519531 0.6069336 0.2563477
vn 0.7519531 0.6069336 0.2563477
vn 0.7563477 0.6064453 0.2453613
vn 0.7563477 0.6064453 0.2453613
vn 0.7563477 0.6064453 0.2453613
vn 0.7563477 0.6064453 0.2453613
vn 0.7563477 0.6064453 0.2453613
vn 0.7563477 0.6064453 0.2453613
vn 0.7578125 0.6064453 0.2412109
vn 0.7578125 0.6064453 0.2412109
vn 0.7578125 0.6064453 0.2412109
vn 0.7578125 0.6064453 0.2412109
vn 0.7578125 0.6064453 0.2412109
vn 0.7578125 0.6064453 0.2412109
vn -0.7548828 0.6064453 -0.2495117
vn -0.7548828 0.6064453 -0.2495117
vn -0.7548828 0.6064453 -0.2495117
vn -0.7548828 0.6064453 -0.2495117
vn -0.7548828 0.6064453 -0.2495117
vn -0.7548828 0.6064453 -0.2495117
vn -0.4431152 0.8847656 -0.1437988
vn -0.4431152 0.8847656 -0.1437988
vn -0.4431152 0.8847656 -0.1437988
vn -0.4431152 0.8847656 -0.1437988
vn -0.3085938 0 0.9511719
vn -0.3085938 0 0.9511719
vn -0.3085938 0 0.9511719
vn -0.3085938 0 0.9511719
vn -0.3085938 0 0.9511719
vn -0.3085938 0 0.9511719
vn 0.4431152 0.8847656 0.1437988
vn 0.4431152 0.8847656 0.1437988
vn 0.4431152 0.8847656 0.1437988
vn 0.4431152 0.8847656 0.1437988
vn 0.3103027 0.001824379 -0.9506836
vn 0.3103027 0.001824379 -0.9506836
vn 0.3103027 0.001824379 -0.9506836
vn 0.3103027 0.001824379 -0.9506836
vn 0.315918 0.006305695 -0.9487305
vn 0.315918 0.006305695 -0.9487305
vn -0.9545898 -0.001776695 -0.2976074
vn -0.9545898 -0.001776695 -0.2976074
vn -0.9545898 -0.001776695 -0.2976074
vn -0.9545898 -0.001776695 -0.2976074
vn -0.9526367 -0.001771927 -0.3039551
vn -0.9526367 -0.001771927 -0.3039551
vn 0.9487305 -0.001478195 0.3154297
vn 0.9487305 -0.001478195 0.3154297
vn 0.9487305 -0.001478195 0.3154297
vn 0.9487305 -0.001478195 0.3154297
vn 0.9458008 -0.001486778 0.3251953
vn 0.9458008 -0.001486778 0.3251953
vn 0 1 0
vn 0 1 0
vn 0 1 0
vn 0 1 0
vn 0 1 0
vn 0 1 0
vn 0 1 0
vn 0 1 0
vn 0 1 0
vn 0 1 0
vn 0 1 0
vn 0 1 0
vn 0.9511719 0 0.3085938
vn 0.9511719 0 0.3085938
vn 0.9511719 0 0.3085938
vn 0.9511719 0 0.3085938
vn -0.3085938 0 0.9511719
vn -0.3085938 0 0.9511719
vn -0.3085938 0 0.9511719
vn -0.3085938 0 0.9511719
vn -0.3085938 0 0.9511719
vn -0.3085938 0 0.9511719
vn -0.3085938 0 0.9511719
vn -0.3085938 0 0.9511719
vn -0.3085938 0 0.9511719
vn -0.3085938 0 0.9511719
vn -0.3085938 0 0.9511719
vn -0.3085938 0 0.9511719
vn -0.9511719 0 -0.3085938
vn -0.9511719 0 -0.3085938
vn -0.9511719 0 -0.3085938
vn -0.9511719 0 -0.3085938
vn 0.3085938 0 -0.9511719
vn 0.3085938 0 -0.9511719
vn 0.3085938 0 -0.9511719
vn 0.3085938 0 -0.9511719
vn 0.3085938 0 -0.9511719
vn 0.3085938 0 -0.9511719
vn 0.3085938 0 -0.9511719
vn 0.3085938 0 -0.9511719
vn 0.3085938 0 -0.9511719
vn 0.3085938 0 -0.9511719
vn 0.3085938 0 -0.9511719
vn 0.3085938 0 -0.9511719
vn -0.9511719 0 -0.3085938
vn -0.9511719 0 -0.3085938
vn -0.9511719 0 -0.3085938
vn -0.9511719 0 -0.3085938
vn 0 1 0
vn 0 1 0
vn 0 1 0
vn 0 1 0
vn 0.9511719 0 0.3085938
vn 0.9511719 0 0.3085938
vn 0.9511719 0 0.3085938
vn 0.9511719 0 0.3085938
vn 0 1 0
vn 0 1 0
vn 0 1 0
vn 0 1 0
vn -0.9511719 0 -0.3085938
vn -0.9511719 0 -0.3085938
vn -0.9511719 0 -0.3085938
vn -0.9511719 0 -0.3085938
vn -0.3085938 0 0.9511719
vn -0.3085938 0 0.9511719
vn -0.3085938 0 0.9511719
vn -0.3085938 0 0.9511719
vn -0.3085938 0 0.9511719
vn -0.3085938 0 0.9511719
vn -0.3085938 0 0.9511719
vn -0.3085938 0 0.9511719
vn 0.3085938 0 -0.9511719
vn 0.3085938 0 -0.9511719
vn 0.3085938 0 -0.9511719
vn 0.3085938 0 -0.9511719
vn 0.3085938 0 -0.9511719
vn 0.3085938 0 -0.9511719
vn 0.3085938 0 -0.9511719
vn 0.3085938 0 -0.9511719
vn 0.3085938 0 -0.9511719
vn -0.3085938 0 0.9511719
vn -0.3085938 0 0.9511719
vn -0.3085938 0 0.9511719
vn -0.3085938 0 0.9511719
vn -0.3085938 0 0.9511719
vn -0.3085938 0 0.9511719
vn -0.3085938 0 0.9511719
vn -0.3085938 0 0.9511719
vn -0.3085938 0 0.9511719
vn -0.3085938 0 0.9511719
vn -0.3085938 0 0.9511719
vn -0.3085938 0 0.9511719
vn -0.3085938 0 0.9511719
vn -0.3085938 0 0.9511719
vn -0.3085938 0 0.9511719
vn -0.3085938 0 0.9511719
vn -0.3085938 0 0.9511719
vn -0.3085938 0 0.9511719
vn -0.3085938 0 0.9511719
vn -0.3085938 0 0.9511719
vn -0.3085938 0 0.9511719
vn -0.3085938 0 0.9511719
vn -0.3085938 0 0.9511719
vn -0.3085938 0 0.9511719
vn -0.3085938 0 0.9511719
vn -0.3085938 0 0.9511719
vn -0.3085938 0 0.9511719
vn -0.3085938 0 0.9511719
vn -0.3085938 0 0.9511719
vn -0.3085938 0 0.9511719
vn -0.3085938 0 0.9511719
vn -0.3085938 0 0.9511719
vn -0.3085938 0 0.9511719
vn -0.3085938 0 0.9511719
vn -0.3085938 0 0.9511719
vn -0.3085938 0 0.9511719
vn -0.3085938 0 0.9511719
vn -0.3085938 0 0.9511719
vn -0.3085938 0 0.9511719
vn -0.3085938 0 0.9511719
vn -0.3085938 0 0.9511719
vn -0.3085938 0 0.9511719
vn -0.3085938 0 0.9511719
vn -0.3085938 0 0.9511719
vn -0.3085938 0 0.9511719
vn -0.3085938 0 0.9511719
vn -0.3085938 0 0.9511719
vn -0.3085938 0 0.9511719
vn -0.3085938 0 0.9511719
vn -0.3085938 0 0.9511719
vn -0.3085938 0 0.9511719
vn -0.3085938 0 0.9511719
vn -0.3085938 0 0.9511719
vn -0.3085938 0 0.9511719
vn -0.3085938 0 0.9511719
vn -0.3085938 0 0.9511719
vn -0.3085938 0 0.9511719
vn -0.3085938 0 0.9511719
vn -0.3085938 0 0.9511719
vn -0.3085938 0 0.9511719
vn -0.3085938 0 0.9511719
vn -0.3085938 0 0.9511719
vn -0.3085938 0 0.9511719
vn -0.3085938 0 0.9511719
vn -0.3085938 0 0.9511719
vn -0.3085938 0 0.9511719
vn -0.3085938 0 0.9511719
vn -0.3085938 0 0.9511719
vn -0.3085938 0 0.9511719
vn -0.3085938 0 0.9511719
vn -0.3085938 0 0.9511719
vn -0.3085938 0 0.9511719
vn -0.3085938 0 0.9511719
vn -0.3085938 0 0.9511719
vn -0.3085938 0 0.9511719
vn -0.3085938 0 0.9511719
vn -0.3085938 0 0.9511719
vn -0.3085938 0 0.9511719
vn -0.3085938 0 0.9511719
vn -0.3085938 0 0.9511719
vn -0.3085938 0 0.9511719
vn -0.3085938 0 0.9511719
vn -0.3085938 0 0.9511719
vn -0.3085938 0 0.9511719
vn -0.3085938 0 0.9511719
vn -0.3085938 0 0.9511719
vn -0.3085938 0 0.9511719
vn -0.3085938 0 0.9511719
vn -0.3085938 0 0.9511719
vn -0.3085938 0 0.9511719
vn -0.3085938 0 0.9511719
vn -0.3085938 0 0.9511719
vn -0.3085938 0 0.9511719
vn -0.3085938 0 0.9511719
vn -0.3085938 0 0.9511719
vn -0.3085938 0 0.9511719
vn -0.3085938 0 0.9511719
vn -0.3085938 0 0.9511719
vn -0.3085938 0 0.9511719
vn -0.3085938 0 0.9511719
vn -0.3085938 0 0.9511719
vn -0.3085938 0 0.9511719
vn -0.3085938 0 0.9511719
vn -0.3085938 0 0.9511719
vn -0.3085938 0 0.9511719
vn -0.3085938 0 0.9511719
vn -0.3085938 0 0.9511719
vn -0.3085938 0 0.9511719
vn -0.3085938 0 0.9511719
vn -0.3085938 0 0.9511719
vn -0.3085938 0 0.9511719
vn -0.3085938 0 0.9511719
vn -0.3085938 0 0.9511719
vn -0.3085938 0 0.9511719
vn -0.3085938 0 0.9511719
vn -0.3085938 0 0.9511719
vn -0.3085938 0 0.9511719
vn -0.3085938 0 0.9511719
vn -0.3085938 0 0.9511719
vn -0.3085938 0 0.9511719
vn -0.3085938 0 0.9511719
vn 0.9511719 0 0.3085938
vn 0.9511719 0 0.3085938
vn 0.9511719 0 0.3085938
vn 0.9511719 0 0.3085938
vn -0.9511719 0.01046753 -0.3085938
vn -0.9511719 0.01046753 -0.3085938
vn -0.9511719 0.01046753 -0.3085938
vn -0.9511719 0.01046753 -0.3085938
vn 0.9511719 0 0.3085938
vn 0.9511719 0 0.3085938
vn 0.9511719 0 0.3085938
vn 0.9511719 0 0.3085938
vn 0.9511719 -0.02156067 0.3085938
vn 0.9511719 -0.02156067 0.3085938
vn 0.9511719 -0.02156067 0.3085938
vn 0.9511719 -0.02156067 0.3085938
vn 0.9511719 0 0.3085938
vn 0.9511719 0 0.3085938
vn 0.9511719 0 0.3085938
vn 0.9511719 0 0.3085938
vn 0 1 0
vn 0 1 0
vn 0 1 0
vn 0 1 0
vn -0.9511719 0 -0.3085938
vn -0.9511719 0 -0.3085938
vn -0.9511719 0 -0.3085938
vn -0.9511719 0 -0.3085938
vn 0 -1 0
vn 0 -1 0
vn 0 -1 0
vn 0 -1 0
vn 0 1 0
vn 0 1 0
vn 0 1 0
vn 0 1 0
vn -0.3085938 0 0.9511719
vn -0.3085938 0 0.9511719
vn -0.3085938 0 0.9511719
vn -0.3085938 0 0.9511719
vn -0.3085938 0 0.9511719
vn -0.3085938 0 0.9511719
vn -0.3085938 0 0.9511719
vn -0.3085938 0 0.9511719
vn -0.3085938 0 0.9511719
vn -0.3085938 0 0.9511719
vn -0.3085938 0 0.9511719
vn -0.3085938 0 0.9511719
vn -0.3085938 0 0.9511719
vn -0.3085938 0 0.9511719
vn -0.3085938 0 0.9511719
vn -0.3085938 0 0.9511719
vn -0.3085938 0 0.9511719
vn -0.3085938 0 0.9511719
vn -0.3085938 0 0.9511719
vn -0.3085938 0 0.9511719
vn -0.3085938 0 0.9511719
vn -0.3085938 0 0.9511719
vn -0.3085938 0 0.9511719
vn -0.3085938 0 0.9511719
vn -0.3085938 0 0.9511719
vn -0.3085938 0 0.9511719
vn -0.3085938 0 0.9511719
vn -0.3085938 0 0.9511719
vn -0.3085938 0 0.9511719
vn -0.3085938 0 0.9511719
vn -0.3085938 0 0.9511719
vn -0.3085938 0 0.9511719
vn -0.3085938 0 0.9511719
vn -0.3085938 0 0.9511719
vn -0.3085938 0 0.9511719
vn -0.3085938 0 0.9511719
vn 0 -1 0
vn 0 -1 0
vn 0 -1 0
vn 0 -1 0
vn -0.3085938 0 0.9511719
vn -0.3085938 0 0.9511719
vn -0.3085938 0 0.9511719
vn -0.3085938 0 0.9511719
vn -0.3085938 0 0.9511719
vn -0.3085938 0 0.9511719
vn -0.3085938 0 0.9511719
vn -0.3085938 0 0.9511719
vn -0.3085938 0 0.9511719
vn -0.3085938 0 0.9511719
vn -0.3085938 0 0.9511719
vn -0.3085938 0 0.9511719
vn 0 -1 0
vn 0 -1 0
vn 0 -1 0
vn 0 -1 0
vn -0.9511719 0 -0.3085938
vn -0.9511719 0 -0.3085938
vn -0.9511719 0 -0.3085938
vn -0.9511719 0 -0.3085938
vn 0 -1 0
vn 0 -1 0
vn 0 -1 0
vn 0 -1 0
vn 0 -1 0
vn 0 -1 0
vn 0 -1 0
vn 0 -1 0
vn -0.2685547 -0.9594727 -0.08709717
vn -0.2685547 -0.9594727 -0.08709717
vn -0.2685547 -0.9594727 -0.08709717
vn -0.2685547 -0.9594727 -0.08709717
vn -0.875 -0.3918457 -0.2839355
vn -0.875 -0.3918457 -0.2839355
vn -0.875 -0.3918457 -0.2839355
vn -0.875 -0.3918457 -0.2839355
vn -0.2685547 0.9594727 -0.08709717
vn -0.2685547 0.9594727 -0.08709717
vn -0.2685547 0.9594727 -0.08709717
vn -0.2685547 0.9594727 -0.08709717
vn -0.875 0.3918457 -0.2839355
vn -0.875 0.3918457 -0.2839355
vn -0.875 0.3918457 -0.2839355
vn -0.875 0.3918457 -0.2839355
vn -0.2685547 -0.9594727 -0.08709717
vn -0.2685547 -0.9594727 -0.08709717
vn -0.2685547 -0.9594727 -0.08709717
vn -0.2685547 -0.9594727 -0.08709717
vn -0.875 -0.3918457 -0.2839355
vn -0.875 -0.3918457 -0.2839355
vn -0.875 -0.3918457 -0.2839355
vn -0.875 -0.3918457 -0.2839355
vn -0.2685547 0.9594727 -0.08709717
vn -0.2685547 0.9594727 -0.08709717
vn -0.2685547 0.9594727 -0.08709717
vn -0.2685547 0.9594727 -0.08709717
vn -0.875 0.3918457 -0.2839355
vn -0.875 0.3918457 -0.2839355
vn -0.875 0.3918457 -0.2839355
vn -0.875 0.3918457 -0.2839355
vn -0.871582 0.3999023 -0.2827148
vn -0.871582 0.3999023 -0.2827148
vn -0.871582 0.3999023 -0.2827148
vn -0.871582 0.3999023 -0.2827148
vn -0.2675781 0.9594727 -0.08685303
vn -0.2675781 0.9594727 -0.08685303
vn -0.2675781 0.9594727 -0.08685303
vn -0.2675781 0.9594727 -0.08685303
vn 0.875 0.3918457 0.2839355
vn 0.875 0.3918457 0.2839355
vn 0.875 0.3918457 0.2839355
vn 0.875 0.3918457 0.2839355
vn 0.2685547 0.9594727 0.08709717
vn 0.2685547 0.9594727 0.08709717
vn 0.2685547 0.9594727 0.08709717
vn 0.2685547 0.9594727 0.08709717
vn 0.875 -0.3918457 0.2839355
vn 0.875 -0.3918457 0.2839355
vn 0.875 -0.3918457 0.2839355
vn 0.875 -0.3918457 0.2839355
vn 0.2685547 -0.9594727 0.08709717
vn 0.2685547 -0.9594727 0.08709717
vn 0.2685547 -0.9594727 0.08709717
vn 0.2685547 -0.9594727 0.08709717
vn -0.875 -0.3918457 -0.2839355
vn -0.875 -0.3918457 -0.2839355
vn -0.875 -0.3918457 -0.2839355
vn -0.875 -0.3918457 -0.2839355
vn -0.2685547 -0.9594727 -0.08709717
vn -0.2685547 -0.9594727 -0.08709717
vn -0.2685547 -0.9594727 -0.08709717
vn -0.2685547 -0.9594727 -0.08709717
vn 0.875 0.3918457 0.2839355
vn 0.875 0.3918457 0.2839355
vn 0.875 0.3918457 0.2839355
vn 0.875 0.3918457 0.2839355
vn 0.2685547 0.9594727 0.08709717
vn 0.2685547 0.9594727 0.08709717
vn 0.2685547 0.9594727 0.08709717
vn 0.2685547 0.9594727 0.08709717
vn 0.875 -0.3918457 0.2839355
vn 0.875 -0.3918457 0.2839355
vn 0.875 -0.3918457 0.2839355
vn 0.875 -0.3918457 0.2839355
vn 0.2685547 -0.9594727 0.08709717
vn 0.2685547 -0.9594727 0.08709717
vn 0.2685547 -0.9594727 0.08709717
vn 0.2685547 -0.9594727 0.08709717
vn -0.875 -0.3918457 -0.2839355
vn -0.875 -0.3918457 -0.2839355
vn -0.875 -0.3918457 -0.2839355
vn -0.875 -0.3918457 -0.2839355
vn -0.2685547 -0.9594727 -0.08709717
vn -0.2685547 -0.9594727 -0.08709717
vn -0.2685547 -0.9594727 -0.08709717
vn -0.2685547 -0.9594727 -0.08709717
vn 0.875 -0.3918457 0.2839355
vn 0.875 -0.3918457 0.2839355
vn 0.875 -0.3918457 0.2839355
vn 0.875 -0.3918457 0.2839355
vn 0.2685547 -0.9594727 0.08709717
vn 0.2685547 -0.9594727 0.08709717
vn 0.2685547 -0.9594727 0.08709717
vn 0.2685547 -0.9594727 0.08709717
vn 0.2685547 0.9594727 0.08709717
vn 0.2685547 0.9594727 0.08709717
vn 0.2685547 0.9594727 0.08709717
vn 0.2685547 0.9594727 0.08709717
vn 0.875 0.3918457 0.2839355
vn 0.875 0.3918457 0.2839355
vn 0.875 0.3918457 0.2839355
vn 0.875 0.3918457 0.2839355
vn 0.875 -0.3918457 0.2839355
vn 0.875 -0.3918457 0.2839355
vn 0.875 -0.3918457 0.2839355
vn 0.875 -0.3918457 0.2839355
vn 0.2685547 -0.9594727 0.08709717
vn 0.2685547 -0.9594727 0.08709717
vn 0.2685547 -0.9594727 0.08709717
vn 0.2685547 -0.9594727 0.08709717
vn -0.878418 -0.3837891 -0.2849121
vn -0.878418 -0.3837891 -0.2849121
vn -0.878418 -0.3837891 -0.2849121
vn -0.878418 -0.3837891 -0.2849121
vn -0.2692871 -0.9589844 -0.08734131
vn -0.2692871 -0.9589844 -0.08734131
vn -0.2692871 -0.9589844 -0.08734131
vn -0.2692871 -0.9589844 -0.08734131
vn 0.2685547 0.9594727 0.08709717
vn 0.2685547 0.9594727 0.08709717
vn 0.2685547 0.9594727 0.08709717
vn 0.2685547 0.9594727 0.08709717
vn 0.875 0.3918457 0.2839355
vn 0.875 0.3918457 0.2839355
vn 0.875 0.3918457 0.2839355
vn 0.875 0.3918457 0.2839355
vn -0.2685547 0.9594727 -0.08709717
vn -0.2685547 0.9594727 -0.08709717
vn -0.2685547 0.9594727 -0.08709717
vn -0.2685547 0.9594727 -0.08709717
vn -0.875 0.3918457 -0.2839355
vn -0.875 0.3918457 -0.2839355
vn -0.875 0.3918457 -0.2839355
vn -0.875 0.3918457 -0.2839355
vn -0.875 0.3918457 -0.2839355
vn -0.875 0.3918457 -0.2839355
vn -0.875 0.3918457 -0.2839355
vn -0.875 0.3918457 -0.2839355
vn -0.2685547 0.9594727 -0.08709717
vn -0.2685547 0.9594727 -0.08709717
vn -0.2685547 0.9594727 -0.08709717
vn -0.2685547 0.9594727 -0.08709717
vn 0.2700195 0.9589844 0.08758545
vn 0.2700195 0.9589844 0.08758545
vn 0.2700195 0.9589844 0.08758545
vn 0.2700195 0.9589844 0.08758545
vn 0.8818359 0.375 0.2861328
vn 0.8818359 0.375 0.2861328
vn 0.8818359 0.375 0.2861328
vn 0.8818359 0.375 0.2861328
vn 0.2668457 -0.9599609 0.08654785
vn 0.2668457 -0.9599609 0.08654785
vn 0.2668457 -0.9599609 0.08654785
vn 0.2668457 -0.9599609 0.08654785
vn 0.8681641 -0.4084473 0.2817383
vn 0.8681641 -0.4084473 0.2817383
vn 0.8681641 -0.4084473 0.2817383
vn 0.8681641 -0.4084473 0.2817383
vn 0 1 0
vn 0 1 0
vn 0 1 0
vn 0 1 0
vn -0.3344727 -0.000150919 0.9423828
vn -0.3344727 -0.000150919 0.9423828
vn -0.3344727 -0.000150919 0.9423828
vn -0.3344727 -0.000150919 0.9423828
vn -0.3417969 -0.0002193451 0.9399414
vn -0.3417969 -0.0002193451 0.9399414
vn -0.3161621 -4.857779E-05 0.9487305
vn -0.3161621 -4.857779E-05 0.9487305
vn -0.3161621 -4.857779E-05 0.9487305
vn -0.3085938 -0.01248169 0.9511719
vn -0.3085938 -0.01248169 0.9511719
vn -0.3161621 -4.857779E-05 0.9487305
vn -0.3085938 0.01248169 0.9511719
vn -0.3085938 0.01248169 0.9511719
vn -0.3417969 -0.0002194643 0.9399414
vn -0.3417969 -0.0002194643 0.9399414
vn -0.3161621 -4.893541E-05 0.9487305
vn -0.3161621 -4.893541E-05 0.9487305
vn -0.3161621 -4.893541E-05 0.9487305
vn -0.3085938 -0.01248169 0.9511719
vn -0.3085938 -0.01248169 0.9511719
vn -0.3161621 -4.893541E-05 0.9487305
vn -0.3085938 0.01248169 0.9511719
vn -0.3085938 0.01248169 0.9511719
vn -0.3415527 -0.0003812313 0.9399414
vn -0.3415527 -0.0003812313 0.9399414
vn -0.315918 -0.0001599789 0.9487305
vn -0.315918 -0.0001599789 0.9487305
vn -0.315918 -0.0001599789 0.9487305
vn -0.315918 -0.0001599789 0.9487305
vn -0.3083496 0.01238251 0.9511719
vn -0.3083496 0.01238251 0.9511719
vn -0.3415527 -0.0003809929 0.9399414
vn -0.3415527 -0.0003809929 0.9399414
vn -0.315918 -0.0001586676 0.9487305
vn -0.315918 -0.0001586676 0.9487305
vn -0.315918 -0.0001586676 0.9487305
vn -0.315918 -0.0001586676 0.9487305
vn -0.3083496 0.01238251 0.9511719
vn -0.3083496 0.01238251 0.9511719
vn -0.3415527 -0.0003812313 0.9399414
vn -0.3415527 -0.0003812313 0.9399414
vn -0.315918 -0.0001578331 0.9487305
vn -0.315918 -0.0001578331 0.9487305
vn -0.315918 -0.0001578331 0.9487305
vn -0.315918 -0.0001578331 0.9487305
vn -0.3083496 0.01238251 0.9511719
vn -0.3083496 0.01238251 0.9511719
vn -0.2751465 -0.0003809929 0.9614258
vn -0.3012695 -0.0001587868 0.9536133
vn -0.2751465 -0.0003809929 0.9614258
vn -0.3012695 -0.0001587868 0.9536133
vn -0.3012695 -0.0001587868 0.9536133
vn -0.3012695 -0.0001587868 0.9536133
vn -0.3085938 0.01238251 0.9511719
vn -0.3085938 0.01238251 0.9511719
vn -0.2751465 -0.0003809929 0.9614258
vn -0.3012695 -0.0001571178 0.9536133
vn -0.2751465 -0.0003809929 0.9614258
vn -0.3012695 -0.0001571178 0.9536133
vn -0.3012695 -0.0001571178 0.9536133
vn -0.3012695 -0.0001571178 0.9536133
vn -0.3085938 0.01238251 0.9511719
vn -0.3085938 0.01238251 0.9511719
vn -0.2751465 -0.0003809929 0.9614258
vn -0.3012695 -0.0001584291 0.9536133
vn -0.2751465 -0.0003809929 0.9614258
vn -0.3012695 -0.0001584291 0.9536133
vn -0.3012695 -0.0001584291 0.9536133
vn -0.3012695 -0.0001584291 0.9536133
vn -0.3085938 0.01238251 0.9511719
vn -0.3085938 0.01238251 0.9511719
vn 0.9511719 0 0.3085938
vn 0.9511719 0 0.3085938
vn 0.9511719 0 0.3085938
vn 0.9511719 0 0.3085938
vn 0.9511719 0 0.3085938
vn 0.9511719 0 0.3085938
vn 0.9511719 0 0.3085938
vn 0.9511719 0 0.3085938
vn 0.9511719 0 0.3085938
vn 0.9511719 0 0.3085938
vn 0.9511719 0 0.3085938
vn 0.9511719 0 0.3085938
vn 0.9511719 0 0.3085938
vn 0.9511719 0 0.3085938
vn 0.9511719 0 0.3085938
vn 0.9511719 0 0.3085938
vn 0.9511719 0 0.3085938
vn 0.9511719 0 0.3085938
vn 0.9511719 0 0.3085938
vn 0.9511719 0 0.3085938
vn 0.9511719 0 0.3085938
vn 0.9511719 0 0.3085938
vn 0.9511719 0 0.3085938
vn 0.9511719 0 0.3085938
vn 0 -1 0
vn 0 -1 0
vn 0 -1 0
vn 0 -1 0
vn 0 -1 0
vn 0 -1 0
vn 0 -1 0
vn 0 -1 0
vn 0 -1 0
vn 0 -1 0
vn 0 -1 0
vn 0 -1 0
vn 0 -1 0
vn 0 -1 0
vn 0 -1 0
vn 0 -1 0
vn 0 -1 0
vn 0 -1 0
vn 0 -1 0
vn 0 -1 0
vn 0 -1 0
vn 0 -1 0
vn 0 -1 0
vn 0 -1 0
g Building_0
f 3/3/3 2/2/2 1/1/1
f 4/4/4 3/3/3 1/1/1
f 7/7/7 6/6/6 5/5/5
f 8/8/8 7/7/7 5/5/5
f 8/8/8 5/5/5 9/9/9
f 8/8/8 10/10/10 7/7/7
f 11/11/11 8/8/8 9/9/9
f 10/10/10 8/8/8 11/11/11
f 12/12/12 11/11/11 9/9/9
f 13/13/13 12/12/12 9/9/9
f 12/12/12 14/14/14 11/11/11
f 14/14/14 15/15/15 11/11/11
f 15/15/15 10/10/10 11/11/11
f 14/14/14 16/16/16 15/15/15
f 10/10/10 17/17/17 7/7/7
f 18/18/18 7/7/7 17/17/17
f 19/19/19 18/18/18 17/17/17
f 10/10/10 15/15/15 20/20/20
f 17/17/17 10/10/10 20/20/20
f 19/19/19 17/17/17 20/20/20
f 16/16/16 20/20/20 15/15/15
f 21/21/21 19/19/19 20/20/20
f 20/20/20 16/16/16 21/21/21
f 16/16/16 22/22/22 21/21/21
f 25/25/25 24/24/24 23/23/23
f 26/26/26 25/25/25 23/23/23
f 26/26/26 23/23/23 27/27/27
f 25/25/25 26/26/26 28/28/28
f 29/29/29 25/25/25 28/28/28
f 30/30/30 26/26/26 27/27/27
f 30/30/30 27/27/27 31/31/31
f 32/32/32 28/28/28 26/26/26
f 30/30/30 32/32/32 26/26/26
f 29/29/29 28/28/28 33/33/33
f 28/28/28 32/32/32 33/33/33
f 34/34/34 29/29/29 33/33/33
f 34/34/34 33/33/33 35/35/35
f 33/33/33 36/36/36 35/35/35
f 37/37/37 30/30/30 31/31/31
f 32/32/32 30/30/30 37/37/37
f 37/37/37 31/31/31 38/38/38
f 39/39/39 37/37/37 38/38/38
f 37/37/37 39/39/39 40/40/40
f 41/41/41 40/40/40 36/36/36
f 33/33/33 41/41/41 36/36/36
f 32/32/32 41/41/41 33/33/33
f 41/41/41 32/32/32 37/37/37
f 41/41/41 37/37/37 40/40/40
f 44/44/44 43/43/43 42/42/42
f 43/43/43 45/45/45 42/42/42
f 43/43/43 46/46/46 45/45/45
f 46/46/46 47/47/47 45/45/45
f 46/46/46 48/48/48 47/47/47
f 48/48/48 49/49/49 47/47/47
f 49/49/49 48/48/48 50/50/50
f 48/48/48 51/51/51 50/50/50
f 54/54/54 53/53/53 52/52/52
f 53/53/53 55/55/55 52/52/52
f 53/53/53 56/56/56 55/55/55
f 56/56/56 57/57/57 55/55/55
f 56/56/56 58/58/58 57/57/57
f 58/58/58 59/59/59 57/57/57
f 59/59/59 58/58/58 60/60/60
f 58/58/58 61/61/61 60/60/60
f 64/64/64 63/63/63 62/62/62
f 63/63/63 65/65/65 62/62/62
f 63/63/63 66/66/66 65/65/65
f 66/66/66 67/67/67 65/65/65
f 66/66/66 68/68/68 67/67/67
f 68/68/68 69/69/69 67/67/67
f 69/69/69 68/68/68 70/70/70
f 68/68/68 71/71/71 70/70/70
f 74/74/74 73/73/73 72/72/72
f 73/73/73 75/75/75 72/72/72
f 72/72/72 75/75/75 76/76/76
f 75/75/75 77/77/77 76/76/76
f 76/76/76 77/77/77 78/78/78
f 77/77/77 79/79/79 78/78/78
f 82/82/82 81/81/81 80/80/80
f 81/81/81 83/83/83 80/80/80
f 80/80/80 83/83/83 84/84/84
f 83/83/83 85/85/85 84/84/84
f 84/84/84 85/85/85 86/86/86
f 85/85/85 87/87/87 86/86/86
f 90/90/90 89/89/89 88/88/88
f 89/89/89 91/91/91 88/88/88
f 88/88/88 91/91/91 92/92/92
f 91/91/91 93/93/93 92/92/92
f 96/96/96 95/95/95 94/94/94
f 95/95/95 97/97/97 94/94/94
f 94/94/94 97/97/97 98/98/98
f 97/97/97 99/99/99 98/98/98
f 98/98/98 99/99/99 100/100/100
f 101/101/101 98/98/98 100/100/100
f 101/101/101 100/100/100 102/102/102
f 103/103/103 101/101/101 102/102/102
f 106/106/106 105/105/105 104/104/104
f 105/105/105 107/107/107 104/104/104
f 104/104/104 107/107/107 108/108/108
f 107/107/107 109/109/109 108/108/108
f 108/108/108 109/109/109 110/110/110
f 109/109/109 111/111/111 110/110/110
f 110/110/110 111/111/111 112/112/112
f 111/111/111 113/113/113 112/112/112
f 116/116/116 115/115/115 114/114/114
f 114/114/114 117/117/117 116/116/116
f 114/114/114 118/118/118 117/117/117
f 114/114/114 119/119/119 118/118/118
f 122/122/122 121/121/121 120/120/120
f 120/120/120 123/123/123 122/122/122
f 120/120/120 124/124/124 123/123/123
f 124/124/124 125/125/125 123/123/123
f 128/128/128 127/127/127 126/126/126
f 129/129/129 128/128/128 126/126/126
f 132/132/132 131/131/131 130/130/130
f 131/131/131 133/133/133 130/130/130
f 133/133/133 134/134/134 130/130/130
f 134/134/134 135/135/135 130/130/130
f 138/138/138 137/137/137 136/136/136
f 139/139/139 138/138/138 136/136/136
f 142/142/142 141/141/141 140/140/140
f 143/143/143 142/142/142 140/140/140
f 143/143/143 140/140/140 144/144/144
f 145/145/145 143/143/143 144/144/144
f 148/148/148 147/147/147 146/146/146
f 149/149/149 148/148/148 146/146/146
f 149/149/149 146/146/146 150/150/150
f 151/151/151 149/149/149 150/150/150
f 154/154/154 153/153/153 152/152/152
f 155/155/155 154/154/154 152/152/152
f 155/155/155 152/152/152 156/156/156
f 157/157/157 155/155/155 156/156/156
f 160/160/160 159/159/159 158/158/158
f 161/161/161 160/160/160 158/158/158
f 161/161/161 158/158/158 162/162/162
f 163/163/163 161/161/161 162/162/162
f 163/163/163 162/162/162 164/164/164
f 165/165/165 163/163/163 164/164/164
f 165/165/165 164/164/164 166/166/166
f 167/167/167 165/165/165 166/166/166
f 167/167/167 166/166/166 168/168/168
f 169/169/169 167/167/167 168/168/168
f 172/172/172 171/171/171 170/170/170
f 173/173/173 172/172/172 170/170/170
f 176/176/176 175/175/175 174/174/174
f 177/177/177 176/176/176 174/174/174
f 177/177/177 174/174/174 178/178/178
f 179/179/179 177/177/177 178/178/178
f 179/179/179 178/178/178 180/180/180
f 181/181/181 179/179/179 180/180/180
f 181/181/181 180/180/180 182/182/182
f 183/183/183 181/181/181 182/182/182
f 183/183/183 182/182/182 184/184/184
f 185/185/185 183/183/183 184/184/184
f 188/188/188 187/187/187 186/186/186
f 189/189/189 188/188/188 186/186/186
f 192/192/192 191/191/191 190/190/190
f 193/193/193 192/192/192 190/190/190
f 193/193/193 190/190/190 194/194/194
f 195/195/195 193/193/193 194/194/194
f 195/195/195 194/194/194 196/196/196
f 197/197/197 195/195/195 196/196/196
f 197/197/197 196/196/196 198/198/198
f 199/199/199 197/197/197 198/198/198
f 199/199/199 198/198/198 200/200/200
f 201/201/201 199/199/199 200/200/200
f 204/204/204 203/203/203 202/202/202
f 205/205/205 204/204/204 202/202/202
f 208/208/208 207/207/207 206/206/206
f 209/209/209 208/208/208 206/206/206
f 212/212/212 211/211/211 210/210/210
f 213/213/213 212/212/212 210/210/210
f 216/216/216 215/215/215 214/214/214
f 217/217/217 216/216/216 214/214/214
f 220/220/220 219/219/219 218/218/218
f 221/221/221 220/220/220 218/218/218
f 224/224/224 223/223/223 222/222/222
f 225/225/225 224/224/224 222/222/222
f 228/228/228 227/227/227 226/226/226
f 229/229/229 228/228/228 226/226/226
f 232/232/232 231/231/231 230/230/230
f 233/233/233 232/232/232 230/230/230
f 232/232/232 233/233/233 234/234/234
f 235/235/235 232/232/232 234/234/234
f 235/235/235 234/234/234 236/236/236
f 237/237/237 235/235/235 236/236/236
f 238/238/238 237/237/237 236/236/236
f 241/241/241 240/240/240 239/239/239
f 240/240/240 242/242/242 239/239/239
f 240/240/240 243/243/243 242/242/242
f 243/243/243 244/244/244 242/242/242
f 243/243/243 245/245/245 244/244/244
f 245/245/245 246/246/246 244/244/244
f 239/239/239 242/242/242 247/247/247
f 245/245/245 248/248/248 246/246/246
f 242/242/242 249/249/249 247/247/247
f 242/242/242 244/244/244 249/249/249
f 247/247/247 249/249/249 250/250/250
f 251/251/251 247/247/247 250/250/250
f 248/248/248 252/252/252 246/246/246
f 248/248/248 253/253/253 252/252/252
f 253/253/253 254/254/254 252/252/252
f 252/252/252 254/254/254 255/255/255
f 252/252/252 255/255/255 246/246/246
f 254/254/254 256/256/256 255/255/255
f 255/255/255 256/256/256 257/257/257
f 258/258/258 255/255/255 257/257/257
f 258/258/258 257/257/257 259/259/259
f 251/251/251 250/250/250 260/260/260
f 261/261/261 251/251/251 260/260/260
f 246/246/246 255/255/255 262/262/262
f 262/262/262 255/255/255 258/258/258
f 246/246/246 262/262/262 263/263/263
f 263/263/263 264/264/264 246/246/246
f 246/246/246 264/264/264 244/244/244
f 264/264/264 265/265/265 244/244/244
f 244/244/244 265/265/265 266/266/266
f 244/244/244 266/266/266 267/267/267
f 267/267/267 249/249/249 244/244/244
f 249/249/249 267/267/267 268/268/268
f 250/250/250 249/249/249 268/268/268
f 269/269/269 250/250/250 268/268/268
f 268/268/268 270/270/270 269/269/269
f 271/271/271 262/262/262 258/258/258
f 271/271/271 258/258/258 272/272/272
f 273/273/273 271/271/271 272/272/272
f 270/270/270 274/274/274 269/269/269
f 275/275/275 269/269/269 274/274/274
f 272/272/272 276/276/276 273/273/273
f 274/274/274 276/276/276 275/275/275
f 276/276/276 272/272/272 275/275/275
f 250/250/250 269/269/269 277/277/277
f 250/250/250 277/277/277 278/278/278
f 279/279/279 277/277/277 269/269/269
f 269/269/269 280/280/280 279/279/279
f 269/269/269 275/275/275 280/280/280
f 278/278/278 260/260/260 250/250/250
f 260/260/260 278/278/278 281/281/281
f 260/260/260 281/281/281 282/282/282
f 282/282/282 261/261/261 260/260/260
f 261/261/261 282/282/282 283/283/283
f 282/282/282 284/284/284 283/283/283
f 285/285/285 280/280/280 275/275/275
f 286/286/286 283/283/283 284/284/284
f 284/284/284 287/287/287 286/286/286
f 287/287/287 288/288/288 286/286/286
f 275/275/275 289/289/289 285/285/285
f 285/285/285 289/289/289 290/290/290
f 291/291/291 285/285/285 290/290/290
f 290/290/290 292/292/292 291/291/291
f 288/288/288 292/292/292 293/293/293
f 292/292/292 290/290/290 293/293/293
f 294/294/294 293/293/293 290/290/290
f 290/290/290 295/295/295 294/294/294
f 290/290/290 289/289/289 296/296/296
f 288/288/288 293/293/293 297/297/297
f 286/286/286 288/288/288 297/297/297
f 275/275/275 298/298/298 289/289/289
f 298/298/298 296/296/296 289/289/289
f 296/296/296 299/299/299 290/290/290
f 298/298/298 275/275/275 272/272/272
f 272/272/272 300/300/300 298/298/298
f 272/272/272 301/301/301 300/300/300
f 301/301/301 272/272/272 258/258/258
f 258/258/258 302/302/302 301/301/301
f 299/299/299 303/303/303 290/290/290
f 297/297/297 304/304/304 286/286/286
f 304/304/304 297/297/297 305/305/305
f 286/286/286 304/304/304 283/283/283
f 304/304/304 305/305/305 306/306/306
f 306/306/306 283/283/283 304/304/304
f 283/283/283 306/306/306 307/307/307
f 306/306/306 308/308/308 307/307/307
f 258/258/258 309/309/309 302/302/302
f 310/310/310 302/302/302 309/309/309
f 309/309/309 258/258/258 259/259/259
f 309/309/309 259/259/259 310/310/310
f 259/259/259 311/311/311 310/310/310
f 311/311/311 259/259/259 312/312/312
f 313/313/313 311/311/311 312/312/312
f 314/314/314 307/307/307 308/308/308
f 308/308/308 315/315/315 314/314/314
f 307/307/307 314/314/314 316/316/316
f 314/314/314 317/317/317 316/316/316
f 315/315/315 318/318/318 314/314/314
f 319/319/319 317/317/317 314/314/314
f 314/314/314 318/318/318 319/319/319
f 318/318/318 320/320/320 319/319/319
f 320/320/320 321/321/321 319/319/319
f 321/321/321 320/320/320 322/322/322
f 322/322/322 323/323/323 321/321/321
f 323/323/323 324/324/324 321/321/321
f 325/325/325 319/319/319 321/321/321
f 321/321/321 324/324/324 325/325/325
f 324/324/324 323/323/323 295/295/295
f 324/324/324 326/326/326 325/325/325
f 327/327/327 325/325/325 326/326/326
f 295/295/295 328/328/328 324/324/324
f 290/290/290 328/328/328 295/295/295
f 328/328/328 329/329/329 324/324/324
f 329/329/329 328/328/328 290/290/290
f 329/329/329 330/330/330 324/324/324
f 326/326/326 324/324/324 330/330/330
f 290/290/290 331/331/331 329/329/329
f 330/330/330 332/332/332 326/326/326
f 332/332/332 333/333/333 326/326/326
f 326/326/326 333/333/333 327/327/327
f 290/290/290 334/334/334 331/331/331
f 334/334/334 290/290/290 303/303/303
f 303/303/303 335/335/335 334/334/334
f 333/333/333 336/336/336 327/327/327
f 335/335/335 337/337/337 334/334/334
f 336/336/336 338/338/338 327/327/327
f 338/338/338 336/336/336 339/339/339
f 339/339/339 340/340/340 338/338/338
f 338/338/338 341/341/341 327/327/327
f 340/340/340 341/341/341 338/338/338
f 341/341/341 342/342/342 327/327/327
f 340/340/340 343/343/343 341/341/341
f 343/343/343 312/312/312 341/341/341
f 335/335/335 344/344/344 337/337/337
f 344/344/344 312/312/312 343/343/343
f 345/345/345 337/337/337 344/344/344
f 344/344/344 343/343/343 345/345/345
f 335/335/335 346/346/346 344/344/344
f 344/344/344 346/346/346 312/312/312
f 346/346/346 335/335/335 347/347/347
f 313/313/313 312/312/312 346/346/346
f 347/347/347 313/313/313 346/346/346
f 350/350/350 349/349/349 348/348/348
f 348/348/348 351/351/351 350/350/350
f 351/351/351 352/352/352 350/350/350
f 352/352/352 353/353/353 350/350/350
f 352/352/352 354/354/354 353/353/353
f 354/354/354 355/355/355 353/353/353
f 354/354/354 356/356/356 355/355/355
f 356/356/356 357/357/357 355/355/355
f 356/356/356 358/358/358 357/357/357
f 358/358/358 359/359/359 357/357/357
f 362/362/362 361/361/361 360/360/360
f 363/363/363 362/362/362 360/360/360
f 366/366/366 365/365/365 364/364/364
f 367/367/367 366/366/366 364/364/364
f 370/370/370 369/369/369 368/368/368
f 371/371/371 370/370/370 368/368/368
f 374/374/374 373/373/373 372/372/372
f 375/375/375 374/374/374 372/372/372
f 378/378/378 377/377/377 376/376/376
f 379/379/379 378/378/378 376/376/376
f 382/382/382 381/381/381 380/380/380
f 383/383/383 382/382/382 380/380/380
f 386/386/386 385/385/385 384/384/384
f 387/387/387 386/386/386 384/384/384
f 390/390/390 389/389/389 388/388/388
f 391/391/391 390/390/390 388/388/388
f 394/394/394 393/393/393 392/392/392
f 395/395/395 394/394/394 392/392/392
f 398/398/398 397/397/397 396/396/396
f 396/396/396 399/399/399 398/398/398
f 399/399/399 400/400/400 398/398/398
f 399/399/399 401/401/401 400/400/400
f 401/401/401 402/402/402 400/400/400
f 401/401/401 403/403/403 402/402/402
f 403/403/403 404/404/404 402/402/402
f 403/403/403 405/405/405 404/404/404
f 405/405/405 406/406/406 404/404/404
f 406/406/406 407/407/407 404/404/404
f 410/410/410 409/409/409 408/408/408
f 408/408/408 411/411/411 410/410/410
f 411/411/411 412/412/412 410/410/410
f 412/412/412 413/413/413 410/410/410
f 412/412/412 414/414/414 413/413/413
f 412/412/412 415/415/415 414/414/414
f 415/415/415 416/416/416 414/414/414
f 416/416/416 417/417/417 414/414/414
f 416/416/416 418/418/418 417/417/417
f 418/418/418 419/419/419 417/417/417
f 422/422/422 421/421/421 420/420/420
f 420/420/420 423/423/423 422/422/422
f 423/423/423 424/424/424 422/422/422
f 424/424/424 425/425/425 422/422/422
f 424/424/424 426/426/426 425/425/425
f 424/424/424 427/427/427 426/426/426
f 427/427/427 428/428/428 426/426/426
f 427/427/427 429/429/429 428/428/428
f 429/429/429 430/430/430 428/428/428
f 429/429/429 431/431/431 430/430/430
f 434/434/434 433/433/433 432/432/432
f 435/435/435 434/434/434 432/432/432
f 438/438/438 437/437/437 436/436/436
f 436/436/436 439/439/439 438/438/438
f 436/436/436 440/440/440 439/439/439
f 440/440/440 441/441/441 439/439/439
f 440/440/440 442/442/442 441/441/441
f 442/442/442 443/443/443 441/441/441
f 442/442/442 444/444/444 443/443/443
f 442/442/442 445/445/445 444/444/444
f 445/445/445 446/446/446 444/444/444
f 445/445/445 447/447/447 446/446/446
f 450/450/450 449/449/449 448/448/448
f 451/451/451 450/450/450 448/448/448
f 454/454/454 453/453/453 452/452/452
f 455/455/455 454/454/454 452/452/452
f 458/458/458 457/457/457 456/456/456
f 459/459/459 458/458/458 456/456/456
f 462/462/462 461/461/461 460/460/460
f 463/463/463 462/462/462 460/460/460
f 466/466/466 465/465/465 464/464/464
f 467/467/467 466/466/466 464/464/464
f 470/470/470 469/469/469 468/468/468
f 471/471/471 470/470/470 468/468/468
f 474/474/474 473/473/473 472/472/472
f 475/475/475 474/474/474 472/472/472
f 478/478/478 477/477/477 476/476/476
f 479/479/479 478/478/478 476/476/476
f 482/482/482 481/481/481 480/480/480
f 483/483/483 482/482/482 480/480/480
f 486/486/486 485/485/485 484/484/484
f 487/487/487 486/486/486 484/484/484
f 490/490/490 489/489/489 488/488/488
f 491/491/491 490/490/490 488/488/488
f 494/494/494 493/493/493 492/492/492
f 495/495/495 494/494/494 492/492/492
f 498/498/498 497/497/497 496/496/496
f 499/499/499 498/498/498 496/496/496
f 502/502/502 501/501/501 500/500/500
f 503/503/503 502/502/502 500/500/500
f 506/506/506 505/505/505 504/504/504
f 507/507/507 506/506/506 504/504/504
f 510/510/510 509/509/509 508/508/508
f 511/511/511 510/510/510 508/508/508
f 514/514/514 513/513/513 512/512/512
f 515/515/515 514/514/514 512/512/512
f 518/518/518 517/517/517 516/516/516
f 519/519/519 518/518/518 516/516/516
f 522/522/522 521/521/521 520/520/520
f 523/523/523 522/522/522 520/520/520
f 526/526/526 525/525/525 524/524/524
f 527/527/527 526/526/526 524/524/524
f 530/530/530 529/529/529 528/528/528
f 531/531/531 530/530/530 528/528/528
f 534/534/534 533/533/533 532/532/532
f 535/535/535 534/534/534 532/532/532
f 538/538/538 537/537/537 536/536/536
f 539/539/539 538/538/538 536/536/536
f 542/542/542 541/541/541 540/540/540
f 543/543/543 542/542/542 540/540/540
f 546/546/546 545/545/545 544/544/544
f 547/547/547 546/546/546 544/544/544
f 550/550/550 549/549/549 548/548/548
f 551/551/551 550/550/550 548/548/548
f 554/554/554 553/553/553 552/552/552
f 555/555/555 554/554/554 552/552/552
f 558/558/558 557/557/557 556/556/556
f 559/559/559 558/558/558 556/556/556
f 562/562/562 561/561/561 560/560/560
f 563/563/563 562/562/562 560/560/560
f 566/566/566 565/565/565 564/564/564
f 567/567/567 566/566/566 564/564/564
f 570/570/570 569/569/569 568/568/568
f 571/571/571 570/570/570 568/568/568
f 574/574/574 573/573/573 572/572/572
f 575/575/575 574/574/574 572/572/572
f 578/578/578 577/577/577 576/576/576
f 579/579/579 578/578/578 576/576/576
f 582/582/582 581/581/581 580/580/580
f 583/583/583 582/582/582 580/580/580
f 586/586/586 585/585/585 584/584/584
f 587/587/587 586/586/586 584/584/584
f 590/590/590 589/589/589 588/588/588
f 591/591/591 590/590/590 588/588/588
f 594/594/594 593/593/593 592/592/592
f 595/595/595 594/594/594 592/592/592
f 598/598/598 597/597/597 596/596/596
f 599/599/599 598/598/598 596/596/596
f 602/602/602 601/601/601 600/600/600
f 603/603/603 602/602/602 600/600/600
f 606/606/606 605/605/605 604/604/604
f 607/607/607 606/606/606 604/604/604
f 610/610/610 609/609/609 608/608/608
f 611/611/611 610/610/610 608/608/608
f 614/614/614 613/613/613 612/612/612
f 615/615/615 614/614/614 612/612/612
f 618/618/618 617/617/617 616/616/616
f 619/619/619 618/618/618 616/616/616
f 622/622/622 621/621/621 620/620/620
f 623/623/623 622/622/622 620/620/620
f 626/626/626 625/625/625 624/624/624
f 627/627/627 626/626/626 624/624/624
f 630/630/630 629/629/629 628/628/628
f 631/631/631 630/630/630 628/628/628
f 634/634/634 633/633/633 632/632/632
f 635/635/635 634/634/634 632/632/632
f 636/636/636 634/634/634 635/635/635
f 637/637/637 634/634/634 636/636/636
f 638/638/638 637/637/637 636/636/636
f 639/639/639 636/636/636 635/635/635
f 640/640/640 639/639/639 635/635/635
f 641/641/641 640/640/640 635/635/635
f 644/644/644 643/643/643 642/642/642
f 645/645/645 644/644/644 642/642/642
f 646/646/646 644/644/644 645/645/645
f 647/647/647 644/644/644 646/646/646
f 648/648/648 647/647/647 646/646/646
f 649/649/649 646/646/646 645/645/645
f 650/650/650 649/649/649 645/645/645
f 651/651/651 650/650/650 645/645/645
f 654/654/654 653/653/653 652/652/652
f 655/655/655 654/654/654 652/652/652
f 656/656/656 654/654/654 655/655/655
f 657/657/657 656/656/656 655/655/655
f 658/658/658 657/657/657 655/655/655
f 659/659/659 658/658/658 655/655/655
f 662/662/662 661/661/661 660/660/660
f 663/663/663 662/662/662 660/660/660
f 664/664/664 662/662/662 663/663/663
f 665/665/665 664/664/664 663/663/663
f 666/666/666 665/665/665 663/663/663
f 667/667/667 666/666/666 663/663/663
f 670/670/670 669/669/669 668/668/668
f 671/671/671 670/670/670 668/668/668
f 672/672/672 670/670/670 671/671/671
f 673/673/673 672/672/672 671/671/671
f 674/674/674 673/673/673 671/671/671
f 675/675/675 674/674/674 671/671/671
f 678/678/678 677/677/677 676/676/676
f 677/677/677 679/679/679 676/676/676
f 677/677/677 680/680/680 679/679/679
f 680/680/680 681/681/681 679/679/679
f 681/681/681 682/682/682 679/679/679
f 682/682/682 683/683/683 679/679/679
f 686/686/686 685/685/685 684/684/684
f 685/685/685 687/687/687 684/684/684
f 685/685/685 688/688/688 687/687/687
f 688/688/688 689/689/689 687/687/687
f 689/689/689 690/690/690 687/687/687
f 690/690/690 691/691/691 687/687/687
f 694/694/694 693/693/693 692/692/692
f 693/693/693 695/695/695 692/692/692
f 693/693/693 696/696/696 695/695/695
f 696/696/696 697/697/697 695/695/695
f 697/697/697 698/698/698 695/695/695
f 698/698/698 699/699/699 695/695/695
f 702/702/702 701/701/701 700/700/700
f 703/703/703 702/702/702 700/700/700
f 706/706/706 705/705/705 704/704/704
f 707/707/707 706/706/706 704/704/704
f 710/710/710 709/709/709 708/708/708
f 711/711/711 710/710/710 708/708/708
f 714/714/714 713/713/713 712/712/712
f 715/715/715 714/714/714 712/712/712
f 718/718/718 717/717/717 716/716/716
f 719/719/719 718/718/718 716/716/716
f 722/722/722 721/721/721 720/720/720
f 723/723/723 722/722/722 720/720/720
f 726/726/726 725/725/725 724/724/724
f 725/725/725 727/727/727 724/724/724
f 726/726/726 724/724/724 728/728/728
f 725/725/725 729/729/729 727/727/727
f 730/730/730 726/726/726 728/728/728
f 729/729/729 731/731/731 727/727/727
f 730/730/730 728/728/728 732/732/732
f 729/729/729 733/733/733 731/731/731
f 734/734/734 730/730/730 732/732/732
f 733/733/733 735/735/735 731/731/731
f 734/734/734 732/732/732 736/736/736
f 733/733/733 737/737/737 735/735/735
f 738/738/738 734/734/734 736/736/736
f 737/737/737 739/739/739 735/735/735
f 738/738/738 736/736/736 740/740/740
f 737/737/737 741/741/741 739/739/739
f 742/742/742 738/738/738 740/740/740
f 741/741/741 743/743/743 739/739/739
f 742/742/742 740/740/740 744/744/744
f 741/741/741 745/745/745 743/743/743
f 746/746/746 742/742/742 744/744/744
f 745/745/745 747/747/747 743/743/743
f 746/746/746 744/744/744 747/747/747
f 745/745/745 746/746/746 747/747/747
