g Building
v 0.7605493 0.1391085 -1.729989
v 2.098676 0.1391085 -0.1450408
v -0.50135 0.1391085 2.050088
v -1.839477 0.1391085 0.4651393
v -1.340347 3.680506 0.3357087
v -1.492067 3.680506 0.5351564
v -1.491874 3.776812 0.5351942
v -1.340006 3.776812 0.3354304
v -0.369541 3.776812 -0.4542607
v -0.369541 3.680505 -0.4542607
v 0.6013501 3.680505 -1.2443
v -1.422809 3.821706 0.3256996
v -1.575308 3.821706 0.5255927
v -0.4072631 3.821707 -0.500631
v -0.4703759 3.821707 -0.5782115
v 0.6083185 3.821706 -1.32708
v -1.561434 3.821706 0.3096559
v 0.6010114 3.776812 -1.244024
v 0.8274133 3.680505 -1.352264
v 0.8349701 3.821706 -1.435713
v 0.8274115 3.776812 -1.352068
v 1.004154 3.821706 -1.383378
v 0.9960132 3.680505 -1.298924
v 0.9963476 3.776812 -1.298514
v 1.858559 3.821706 -0.3333843
v 1.773882 3.776812 -0.34299
v 1.774216 3.680505 -0.3425792
v 1.875397 3.821706 -0.1570794
v 1.792155 3.680505 -0.1666436
v 1.791962 3.776812 -0.1666814
v -0.6855057 1.427654 -0.4802105
v -0.581239 1.463254 -0.7143309
v -0.5081155 1.463103 -0.6245574
v -0.7586294 1.427805 -0.569984
v -0.8569669 1.271358 -0.3406883
v -0.9300903 1.271509 -0.4304619
v -0.9246374 1.14445 -0.285623
v -0.9977573 1.144609 -0.3753996
v -1.04368 1.020381 -0.3379546
v -0.9706256 1.020258 -0.2482012
v -1.062607 0.8928915 -0.3223668
v -0.9897156 0.8928417 -0.2326677
v -0.9899096 0.5364934 -0.2325103
v -1.062166 0.5365688 -0.3220067
v -1.643112 0.5364934 0.2990181
v -1.844787 0.5365123 0.3155641
v -1.998214 0.5364986 0.5164607
v -1.796385 0.5364934 0.4997004
v -1.981085 0.5364934 0.6928322
v -1.779103 0.5364934 0.6760976
v -0.7236508 0.5364934 1.97316
v -0.7810916 0.5364934 2.167524
v -0.6118752 0.5364934 2.220065
v -0.5544619 0.5364934 2.025946
v -0.383963 0.5364934 2.11048
v -0.3268478 0.5364934 1.916691
v 0.8081958 0.5364934 0.9930772
v 0.8803143 0.5364934 1.081705
v 1.943238 0.5364934 0.06946361
v 2.144591 0.5364934 0.05293102
v 2.298215 0.5364934 -0.1479491
v 2.096478 0.5364934 -0.1311913
v 2.281164 0.5364934 -0.3243126
v 2.079183 0.5364934 -0.307578
v 1.02373 0.5364934 -1.60464
v 1.081171 0.5364934 -1.799004
v 0.9118658 0.5364986 -1.851639
v 0.8544653 0.5364934 -1.657578
v 0.6837292 0.5365123 -1.742283
v 0.6266596 0.5364934 -1.548703
v -0.02798946 0.5364934 -1.01784
v -0.1000232 0.5365688 -1.106223
v -0.4418057 1.316669 -0.8279545
v -0.1745025 1.344425 -0.21455
v -0.03497707 1.316519 -0.3280852
v -0.5813314 1.344576 -0.7144188
v -0.3140628 1.316535 -0.1009856
v -0.7208914 1.316686 -0.6008556
v -0.855787 1.193722 -0.4910875
v -0.4489581 1.193571 0.008781852
v -0.8951617 1.119879 -0.4590471
v -0.4883468 1.119702 0.04083324
v -0.5343252 0.9956347 0.07824718
v -0.9411502 0.9956902 -0.4216253
v -0.5534115 0.8684853 0.09377819
v -0.9602405 0.8682848 -0.4060912
v -0.9603781 0.6155742 -0.4059783
v -0.5535492 0.6154231 0.0938905
v -0.5534454 0.005223597 0.09380566
v -0.960274 0.005374507 -0.4060637
v 0.6013501 3.680505 -1.2443
v 0.8274133 3.680505 -1.352264
v 0.9960132 3.680505 -1.298924
v 1.774216 3.680505 -0.3425792
v -0.369541 3.680505 -0.4542607
v 0.6696209 3.680506 0.8227809
v 1.792155 3.680505 -0.1666436
v 1.640455 3.680505 0.03278881
v -1.340347 3.680506 0.3357087
v -1.492067 3.680506 0.5351564
v -1.474136 3.680506 0.7110991
v -0.6959335 3.680506 1.667444
v -0.301213 3.680506 1.612773
v -0.5273165 3.680506 1.720769
v -0.3068759 1.193676 -0.93775
v -0.4418057 1.316669 -0.8279545
v -0.03497707 1.316519 -0.3280852
v 0.09995304 1.193525 -0.4378814
v 0.1393781 1.119687 -0.469962
v -0.2674643 1.119863 -0.9698204
v -0.2215618 0.9956829 -1.007375
v 0.1852713 0.9956276 -0.5075091
v -0.2027905 0.8682745 -1.023138
v 0.2040393 0.8684759 -0.5232683
v -0.2035968 0.6155742 -1.02383
v 0.2032318 0.6154231 -0.5239598
v -0.2049029 0.005374507 -1.025284
v 0.2019257 0.005223597 -0.5254143
v -1.062255 0.001720484 -0.3219347
v -0.960274 0.005374507 -0.4060637
v -0.9603781 0.6155742 -0.4059783
v -1.062166 0.5365688 -0.3220067
v -1.845361 -0.001115056 0.3160316
v -0.9602405 0.8682848 -0.4060912
v -1.844787 0.5365123 0.3155641
v -1.99851 -0.001803685 0.5164326
v -1.998214 0.5364986 0.5164607
v -1.062607 0.8928915 -0.3223668
v -1.04368 1.020381 -0.3379546
v -0.9411502 0.9956902 -0.4216253
v -0.9977573 1.144609 -0.3753996
v -0.8951617 1.119879 -0.4590471
v -0.855787 1.193722 -0.4910875
v -0.9300903 1.271509 -0.4304619
v -0.7208914 1.316686 -0.6008556
v -0.7586294 1.427805 -0.569984
v -0.5813314 1.344576 -0.7144188
v -0.581239 1.463254 -0.7143309
v -0.4418057 1.316669 -0.8279545
v -0.4038925 1.427784 -0.8586424
v -0.3068759 1.193676 -0.93775
v -0.2323873 1.27145 -0.9982005
v -0.2674643 1.119863 -0.9698204
v -0.1646527 1.144593 -1.053318
v -0.118663 1.02038 -1.090766
v -0.2215618 0.9956829 -1.007375
v -0.09968563 0.8929021 -1.106268
v -0.2027905 0.8682745 -1.023138
v -0.2035968 0.6155742 -1.02383
v -0.1000232 0.5365688 -1.106223
v -0.2049029 0.005374507 -1.025284
v -0.1008532 0.001648158 -1.107147
v 0.6837292 0.5365123 -1.742283
v 0.6841143 -0.001133062 -1.743001
v 0.9118658 0.5364986 -1.851639
v 0.9118432 -0.001809026 -1.852005
v 1.081171 0.5364934 -1.799004
v 1.080709 -0.002078344 -1.799573
v 2.281164 0.5364934 -0.3243126
v 2.281628 -0.002078344 -0.3237438
v 2.298215 0.5364934 -0.1479491
v 2.298512 -0.002078344 -0.147921
v -0.5081155 1.463103 -0.6245574
v -0.581239 1.463254 -0.7143309
v -0.4038925 1.427784 -0.8586424
v -0.330769 1.427633 -0.7688695
v -0.2323873 1.27145 -0.9982005
v -0.1592639 1.271299 -0.9084269
v -0.1646527 1.144593 -1.053318
v -0.09152553 1.144435 -0.9635472
v -0.04562344 1.020257 -1.001102
v -0.118663 1.02038 -1.090766
v -0.02685268 0.8928521 -1.016865
v -0.09968563 0.8929021 -1.106268
v -0.1000232 0.5365688 -1.106223
v -0.02798946 0.5364934 -1.01784
v 2.096904 1.022537 -0.1313469
v 2.079183 0.5364934 -0.307578
v 2.096478 0.5364934 -0.1311913
v 2.079511 1.022537 -0.3071746
v 1.02373 0.5364934 -1.60464
v 2.096756 3.776812 -0.1315825
v 1.023403 1.022537 -1.605043
v 0.8544653 0.5364934 -1.657578
v 2.0789 3.776812 -0.3079259
v 0.854804 1.022537 -1.657831
v 0.6266596 0.5364934 -1.548703
v 1.994072 3.821706 -0.3177336
v 2.013241 3.821706 -0.1412047
v 1.024014 3.776812 -1.604292
v 1.016375 3.821706 -1.51924
v 0.6281763 1.022537 -1.549187
v 0.8550012 3.776812 -1.657635
v 0.8474457 3.821706 -1.573907
v 1.004154 3.821706 -1.383378
v 1.858559 3.821706 -0.3333843
v 1.875397 3.821706 -0.1570794
v 2.013241 3.821706 -0.1412047
v 1.722919 3.821706 0.04279613
v 0.8349701 3.821706 -1.435713
v 1.861545 3.821706 0.058838
v 0.6207923 3.821706 -1.466078
v 0.6083185 3.821706 -1.32708
v -0.4072631 3.821707 -0.500631
v 0.6282557 3.776812 -1.549252
v -0.5080938 3.776812 -0.6245757
v -1.644385 3.776812 0.3000538
v 0.1977878 1.022537 -1.198969
v -0.02798946 0.5364934 -1.01784
v -0.02685268 0.8928521 -1.016865
v -0.02643887 1.149714 -1.01651
v -0.1592639 1.271299 -0.9084269
v -0.04562344 1.020257 -1.001102
v -0.09152553 1.144435 -0.9635472
v -0.330769 1.427633 -0.7688695
v -0.5081155 1.463103 -0.6245574
v -0.6855057 1.427654 -0.4802105
v -0.8569669 1.271358 -0.3406883
v -0.9246374 1.14445 -0.285623
v -0.9896451 1.149714 -0.2327251
v -0.9706256 1.020258 -0.2482012
v -0.9897156 0.8928417 -0.2326677
v -1.213872 1.022537 -0.050266
v -0.9899096 0.5364934 -0.2325103
v -1.643112 0.5364934 0.2990181
v -1.644289 1.022537 0.2999757
v -1.796385 0.5364934 0.4997004
v -1.796814 1.022537 0.4998579
v -1.796667 3.776812 0.5000947
v -1.713152 3.821706 0.5097169
v -1.422809 3.821706 0.3256996
v -1.713152 3.821706 0.5097169
v -1.575308 3.821706 0.5255927
v -1.693993 3.821706 0.6862532
v -1.558479 3.821706 0.7019038
v -1.796667 3.776812 0.5000947
v -1.77882 3.776812 0.6764454
v -1.779431 1.022537 0.6756941
v -1.796814 1.022537 0.4998579
v -1.779103 0.5364934 0.6760976
v -1.796385 0.5364934 0.4997004
v -0.7236508 0.5364934 1.97316
v -0.7233225 1.022537 1.973563
v -0.5544619 0.5364934 2.025946
v -0.5547012 1.022537 2.026332
v -0.3268478 0.5364934 1.916691
v -0.723934 3.776812 1.972811
v -0.7162948 3.821707 1.887761
v -0.7040741 3.821707 1.751895
v -1.558479 3.821706 0.7019038
v -0.5473474 3.821707 1.942411
v -0.7040741 3.821707 1.751895
v -0.5348724 3.821707 1.804218
v -0.554902 3.776812 2.026139
v -0.3280163 1.022537 1.917642
v -0.3206466 3.821707 1.834544
v 0.8081958 1.022537 0.9930775
v 0.8081958 0.5364934 0.9930772
v -0.3281073 3.776812 1.917716
v -0.3081765 3.821707 1.69555
v 0.7073486 3.821706 0.8691456
v 0.7704718 3.821706 0.946718
v 1.944407 1.022537 0.06851269
v 1.943238 0.5364934 0.06946361
v 2.096478 0.5364934 -0.1311913
v 2.096904 1.022537 -0.1313469
v 1.944498 3.776812 0.06843945
v 2.096756 3.776812 -0.1315825
v 0.8081958 3.776812 0.9930775
v 1.722919 3.821706 0.04279613
v 0.7073486 3.821706 0.8691456
v 1.640113 3.776812 0.03306591
v 1.791962 3.776812 -0.1666814
v 1.875397 3.821706 -0.1570794
v 0.6696209 3.776812 0.8227809
v -0.3081765 3.821707 1.69555
v 1.640455 3.680505 0.03278881
v 1.792155 3.680505 -0.1666436
v 0.6696209 3.680506 0.8227809
v -0.3008724 3.776812 1.612496
v -0.301213 3.680506 1.612773
v -0.5273165 3.680506 1.720769
v -0.5273147 3.776812 1.720573
v -0.6959335 3.680506 1.667444
v -0.696268 3.776812 1.667033
v -1.473801 3.776812 0.7115095
v -1.474136 3.680506 0.7110991
v -1.575308 3.821706 0.5255927
v -1.492067 3.680506 0.5351564
v -1.491874 3.776812 0.5351942
v 2.144591 0.5364934 0.05293102
v 2.298215 0.5364934 -0.1479491
v 2.298512 -0.002078344 -0.147921
v 2.145172 -0.002078344 0.052458
v 0.8803137 -0.002078344 1.081705
v 0.8803143 0.5364934 1.081705
v -0.3845437 -0.002078344 2.110952
v -0.383963 0.5364934 2.11048
v -0.6118752 0.5364934 2.220065
v -0.6119085 -0.002078344 2.220363
v -0.7810916 0.5364934 2.167524
v -0.780628 -0.002078344 2.168093
v -1.981085 0.5364934 0.6928322
v -1.981549 -0.002078344 0.692263
v -1.998214 0.5364986 0.5164607
v -1.99851 -0.001803685 0.5164326
v 0.3682514 2.481818 -1.41222
v 0.368252 3.147557 -1.412221
v 0.3396003 3.177764 -1.388933
v 0.3396003 2.451611 -1.388933
v 0.2677613 2.439564 -1.330541
v 0.2677613 3.189811 -1.330541
v -1.315512 2.439564 -0.04363697
v -1.315512 3.189811 -0.04363697
v -1.387351 2.451611 0.01475414
v -1.387351 3.177764 0.01475414
v -1.416002 2.481818 0.03804272
v -1.416002 3.147557 0.03804272
v -1.636356 1.194147 0.3688374
v -1.703423 1.195237 0.2864161
v -1.863188 1.195237 0.4164204
v -1.796121 1.194147 0.4988416
v -1.858151 1.972882 0.4226106
v -1.791083 1.971792 0.5050318
v -1.631319 1.971792 0.3750276
v -1.703423 1.195237 0.2864161
v -1.636356 1.194147 0.3688374
v -1.698387 1.972882 0.2926069
v -1.858151 1.972882 0.4226106
v -1.863188 1.195237 0.4164204
v 0.8844678 1.194147 -1.682419
v 0.8173999 1.195237 -1.764841
v 0.6576349 1.195237 -1.634837
v 0.7247027 1.194147 -1.552416
v 0.6626721 1.972882 -1.628646
v 0.7297394 1.971792 -1.546226
v 0.8895044 1.971792 -1.67623
v 0.8173999 1.195237 -1.764841
v 0.8844678 1.194147 -1.682419
v 0.8224365 1.972882 -1.75865
v 0.6626721 1.972882 -1.628646
v 0.6576349 1.195237 -1.634837
v -1.87435 1.985582 0.5642457
v -2.207921 1.814702 0.1543171
v -1.906813 2.078572 0.5243519
v -2.175458 1.721712 0.1942109
v -2.190642 1.812584 0.1353199
v -2.158179 1.719594 0.1752137
v -1.906813 2.078572 0.5243519
v -2.207921 1.814702 0.1543171
v -2.190642 1.812584 0.1353199
v -2.142223 1.811739 0.09395031
v -2.158179 1.719594 0.1752137
v -2.10976 1.718749 0.1338441
v 0.8943237 2.078572 -1.755007
v 0.5207562 1.811739 -2.072986
v 0.5532196 1.718749 -2.033091
v 0.5711042 1.812584 -2.111986
v 0.6035669 1.719594 -2.072092
v 0.5932172 1.814702 -2.125042
v 0.62568 1.721712 -2.085148
v 0.9267877 1.985582 -1.715113
v -1.348446 3.147557 0.1211561
v -1.387351 3.177764 0.01475414
v -1.319795 3.177764 0.09786876
v -1.416002 3.147557 0.03804272
v -1.315512 3.189811 -0.04363697
v -1.348446 2.481818 0.1211561
v -1.247956 3.189811 0.03947643
v -1.416002 2.481818 0.03804272
v 0.2677613 3.189811 -1.330541
v -1.319795 2.451611 0.09786815
v 0.3353174 3.189811 -1.247427
v -1.387351 2.451611 0.01475414
v 0.3396003 3.177764 -1.388933
v -1.247956 2.439564 0.03947643
v 0.4071564 3.177764 -1.305818
v -1.315512 2.439564 -0.04363697
v 0.368252 3.147557 -1.412221
v 0.3353174 2.439564 -1.247427
v 0.4358075 3.147557 -1.329107
v 0.2677613 2.439564 -1.330541
v 0.3682514 2.481818 -1.41222
v 0.4071564 2.451611 -1.305818
v 0.4358075 2.481818 -1.329107
v 0.3396003 2.451611 -1.388933
vt 0.9169922 0.84375
vt 0.9165039 0.8261719
vt 0.8969727 0.8276367
vt 0.8969727 0.8442383
vt 0.9804688 0.8574219
vt 0.9814453 0.8574219
vt 0.9814453 0.8583984
vt 0.9804688 0.8583984
vt 0.9731445 0.8583984
vt 0.9731445 0.8574219
vt 0.9663086 0.8574219
vt 0.980957 0.8583984
vt 0.9819336 0.8583984
vt 0.9736328 0.8583984
vt 0.9741211 0.8583984
vt 0.9663086 0.8583984
vt 0.9819336 0.8583984
vt 0.9663086 0.8583984
vt 0.9643555 0.8574219
vt 0.9643555 0.8583984
vt 0.9643555 0.8583984
vt 0.9633789 0.8583984
vt 0.9633789 0.8574219
vt 0.9633789 0.8583984
vt 0.9570313 0.8583984
vt 0.9575195 0.8583984
vt 0.9575195 0.8574219
vt 0.9570313 0.8583984
vt 0.9575195 0.8574219
vt 0.9575195 0.8583984
vt 0.9116211 0.8603516
vt 0.9106445 0.8608398
vt 0.9101563 0.8608398
vt 0.9121094 0.8603516
vt 0.9130859 0.8574219
vt 0.9135742 0.8574219
vt 0.9135742 0.8554688
vt 0.9145508 0.8554688
vt 0.9145508 0.8535156
vt 0.9140625 0.8535156
vt 0.9150391 0.8510742
vt 0.9145508 0.8510742
vt 0.9145508 0.8452148
vt 0.9150391 0.8452148
vt 0.9199219 0.8452148
vt 0.9213867 0.8452148
vt 0.9228516 0.8452148
vt 0.9213867 0.8452148
vt 0.9228516 0.8452148
vt 0.9208984 0.8452148
vt 0.9121094 0.8452148
vt 0.9125977 0.8452148
vt 0.9111328 0.8452148
vt 0.9106445 0.8452148
vt 0.9091797 0.8452148
vt 0.9086914 0.8452148
vt 0.8989258 0.8452148
vt 0.8984375 0.8452148
vt 0.8891602 0.8452148
vt 0.8876953 0.8452148
vt 0.8862305 0.8452148
vt 0.8876953 0.8452148
vt 0.8862305 0.8452148
vt 0.8881836 0.8452148
vt 0.8969727 0.8452148
vt 0.8964844 0.8452148
vt 0.8979492 0.8452148
vt 0.8984375 0.8452148
vt 0.8999023 0.8452148
vt 0.9003906 0.8452148
vt 0.90625 0.8452148
vt 0.9067383 0.8452148
vt 0.9013672 0.8266602
vt 0.9023438 0.8266602
vt 0.9018555 0.8266602
vt 0.9018555 0.8266602
vt 0.902832 0.8266602
vt 0.9023438 0.8266602
vt 0.902832 0.8261719
vt 0.9033203 0.8261719
vt 0.9033203 0.8261719
vt 0.9033203 0.8261719
vt 0.9033203 0.8256836
vt 0.9033203 0.8256836
vt 0.9033203 0.8256836
vt 0.9033203 0.8251953
vt 0.9033203 0.8242188
vt 0.9033203 0.824707
vt 0.9033203 0.8232422
vt 0.9033203 0.8227539
vt 0.8417969 0.8344727
vt 0.8408203 0.8339844
vt 0.840332 0.8339844
vt 0.8378906 0.8374023
vt 0.8452148 0.8369141
vt 0.8413086 0.8413086
vt 0.8374023 0.8378906
vt 0.8378906 0.8388672
vt 0.8486328 0.8398438
vt 0.8491211 0.840332
vt 0.8491211 0.8408203
vt 0.8461914 0.8442383
vt 0.8447266 0.8442383
vt 0.8457031 0.8447266
vt 0.9008789 0.8261719
vt 0.9013672 0.8266602
vt 0.9018555 0.8266602
vt 0.9013672 0.8261719
vt 0.9013672 0.8261719
vt 0.9008789 0.8261719
vt 0.9003906 0.8256836
vt 0.9013672 0.8256836
vt 0.9003906 0.8251953
vt 0.9013672 0.8256836
vt 0.9003906 0.824707
vt 0.9013672 0.8251953
vt 0.9003906 0.8227539
vt 0.9013672 0.8237305
vt 0.9150391 0.831543
vt 0.9140625 0.831543
vt 0.9140625 0.8466797
vt 0.9150391 0.8452148
vt 0.9213867 0.831543
vt 0.9140625 0.8510742
vt 0.9213867 0.8452148
vt 0.9228516 0.831543
vt 0.9228516 0.8452148
vt 0.9150391 0.8510742
vt 0.9145508 0.8535156
vt 0.9140625 0.8530273
vt 0.9145508 0.8554688
vt 0.9135742 0.8549805
vt 0.9130859 0.8564453
vt 0.9135742 0.8574219
vt 0.9121094 0.8583984
vt 0.9121094 0.8603516
vt 0.9106445 0.8588867
vt 0.9106445 0.8608398
vt 0.909668 0.8583984
vt 0.9091797 0.8603516
vt 0.9086914 0.8564453
vt 0.9077148 0.8574219
vt 0.9082031 0.8549805
vt 0.9072266 0.8554688
vt 0.9067383 0.8535156
vt 0.9077148 0.8530273
vt 0.9067383 0.8510742
vt 0.9077148 0.8510742
vt 0.9077148 0.8466797
vt 0.9067383 0.8452148
vt 0.9077148 0.831543
vt 0.9067383 0.831543
vt 0.8999023 0.8452148
vt 0.8999023 0.831543
vt 0.8979492 0.8452148
vt 0.8979492 0.831543
vt 0.8964844 0.8452148
vt 0.8964844 0.831543
vt 0.8862305 0.8452148
vt 0.8862305 0.831543
vt 0.8862305 0.8452148
vt 0.8862305 0.831543
vt 0.9101563 0.8608398
vt 0.9106445 0.8608398
vt 0.9091797 0.8603516
vt 0.9086914 0.8603516
vt 0.9077148 0.8574219
vt 0.9072266 0.8574219
vt 0.9072266 0.8554688
vt 0.9067383 0.8554688
vt 0.90625 0.8535156
vt 0.9067383 0.8535156
vt 0.90625 0.8510742
vt 0.9067383 0.8510742
vt 0.9067383 0.8452148
vt 0.90625 0.8452148
vt 0.9550781 0.8383789
vt 0.9555664 0.8349609
vt 0.9550781 0.8349609
vt 0.9555664 0.8383789
vt 0.9628906 0.8349609
vt 0.9550781 0.8583984
vt 0.9628906 0.8383789
vt 0.9643555 0.8349609
vt 0.9555664 0.8583984
vt 0.9643555 0.8383789
vt 0.9658203 0.8349609
vt 0.9560547 0.8583984
vt 0.9560547 0.8583984
vt 0.9628906 0.8583984
vt 0.9628906 0.8583984
vt 0.9658203 0.8383789
vt 0.9643555 0.8583984
vt 0.9643555 0.8583984
vt 0.9633789 0.8583984
vt 0.9570313 0.8583984
vt 0.9570313 0.8583984
vt 0.9560547 0.8583984
vt 0.9580078 0.8583984
vt 0.9643555 0.8583984
vt 0.9570313 0.8583984
vt 0.9658203 0.8583984
vt 0.9663086 0.8583984
vt 0.9736328 0.8583984
vt 0.9658203 0.8583984
vt 0.9741211 0.8583984
vt 0.9824219 0.8583984
vt 0.9692383 0.8383789
vt 0.9707031 0.8349609
vt 0.9707031 0.8374023
vt 0.9707031 0.8393555
vt 0.9716797 0.8398438
vt 0.9707031 0.8383789
vt 0.9711914 0.8393555
vt 0.9726563 0.8413086
vt 0.9741211 0.8413086
vt 0.9755859 0.8413086
vt 0.9765625 0.8398438
vt 0.9770508 0.8393555
vt 0.9775391 0.8393555
vt 0.9775391 0.8383789
vt 0.9775391 0.8374023
vt 0.9794922 0.8383789
vt 0.9775391 0.8349609
vt 0.9824219 0.8349609
vt 0.9824219 0.8383789
vt 0.9833984 0.8349609
vt 0.9833984 0.8383789
vt 0.9833984 0.8583984
vt 0.9829102 0.8583984
vt 0.980957 0.8583984
vt 0.9829102 0.8583984
vt 0.9819336 0.8583984
vt 0.9829102 0.8583984
vt 0.9819336 0.8583984
vt 0.9833984 0.8583984
vt 0.9833984 0.8583984
vt 0.9833984 0.8383789
vt 0.9833984 0.8383789
vt 0.9833984 0.8349609
vt 0.9833984 0.8349609
vt 0.9755859 0.8349609
vt 0.9755859 0.8383789
vt 0.9746094 0.8349609
vt 0.9746094 0.8383789
vt 0.9726563 0.8349609
vt 0.9755859 0.8583984
vt 0.9755859 0.8583984
vt 0.9755859 0.8583984
vt 0.9819336 0.8583984
vt 0.9746094 0.8583984
vt 0.9755859 0.8583984
vt 0.9746094 0.8583984
vt 0.9746094 0.8583984
vt 0.9726563 0.8383789
vt 0.9726563 0.8583984
vt 0.9648438 0.8383789
vt 0.9648438 0.8349609
vt 0.9726563 0.8583984
vt 0.9726563 0.8583984
vt 0.965332 0.8583984
vt 0.9648438 0.8583984
vt 0.956543 0.8383789
vt 0.956543 0.8349609
vt 0.9550781 0.8349609
vt 0.9550781 0.8383789
vt 0.956543 0.8583984
vt 0.9550781 0.8583984
vt 0.9648438 0.8583984
vt 0.9580078 0.8583984
vt 0.965332 0.8583984
vt 0.9584961 0.8583984
vt 0.9575195 0.8583984
vt 0.9570313 0.8583984
vt 0.9658203 0.8583984
vt 0.9726563 0.8583984
vt 0.9584961 0.8574219
vt 0.9575195 0.8574219
vt 0.9658203 0.8574219
vt 0.9726563 0.8583984
vt 0.9726563 0.8574219
vt 0.9741211 0.8574219
vt 0.9741211 0.8583984
vt 0.9755859 0.8574219
vt 0.9755859 0.8583984
vt 0.9814453 0.8583984
vt 0.9814453 0.8574219
vt 0.9819336 0.8583984
vt 0.9814453 0.8574219
vt 0.9814453 0.8583984
vt 0.8876953 0.8452148
vt 0.8862305 0.8452148
vt 0.8862305 0.831543
vt 0.8876953 0.831543
vt 0.8984375 0.831543
vt 0.8984375 0.8452148
vt 0.9091797 0.831543
vt 0.9091797 0.8452148
vt 0.9111328 0.8452148
vt 0.9111328 0.831543
vt 0.9125977 0.8452148
vt 0.9125977 0.831543
vt 0.9228516 0.8452148
vt 0.9228516 0.831543
vt 0.9228516 0.8452148
vt 0.9228516 0.831543
vt 0.8535156 0.8457031
vt 0.8530273 0.8408203
vt 0.8530273 0.8408203
vt 0.8530273 0.8461914
vt 0.8525391 0.8461914
vt 0.8525391 0.840332
vt 0.8364258 0.8461914
vt 0.8364258 0.840332
vt 0.8359375 0.8461914
vt 0.8359375 0.840332
vt 0.8354492 0.8461914
vt 0.8354492 0.8408203
vt 0.9116211 0.824707
vt 0.9116211 0.824707
vt 0.9116211 0.824707
vt 0.9116211 0.824707
vt 0.9116211 0.824707
vt 0.9116211 0.824707
vt 0.9116211 0.824707
vt 0.9116211 0.824707
vt 0.9116211 0.824707
vt 0.9116211 0.824707
vt 0.9116211 0.824707
vt 0.9116211 0.824707
vt 0.9121094 0.824707
vt 0.9121094 0.824707
vt 0.9121094 0.824707
vt 0.9121094 0.824707
vt 0.9121094 0.824707
vt 0.9121094 0.824707
vt 0.9121094 0.824707
vt 0.9121094 0.824707
vt 0.9121094 0.824707
vt 0.9121094 0.824707
vt 0.9121094 0.824707
vt 0.9121094 0.824707
vt 0.9150391 0.862793
vt 0.9160156 0.8623047
vt 0.9155273 0.862793
vt 0.9160156 0.8618164
vt 0.9160156 0.8623047
vt 0.9160156 0.8618164
vt 0.9155273 0.862793
vt 0.9160156 0.8623047
vt 0.9160156 0.8623047
vt 0.9160156 0.8618164
vt 0.9160156 0.8618164
vt 0.9155273 0.8618164
vt 0.9018555 0.8554688
vt 0.9033203 0.8544922
vt 0.9033203 0.8540039
vt 0.902832 0.8540039
vt 0.902832 0.8540039
vt 0.902832 0.8540039
vt 0.902832 0.8540039
vt 0.9013672 0.8554688
vt 0.8359375 0.8408203
vt 0.8359375 0.840332
vt 0.8364258 0.8408203
vt 0.8354492 0.8408203
vt 0.8364258 0.840332
vt 0.8359375 0.8457031
vt 0.8369141 0.8408203
vt 0.8354492 0.8461914
vt 0.8525391 0.840332
vt 0.8359375 0.8461914
vt 0.8520508 0.8408203
vt 0.8359375 0.8461914
vt 0.8530273 0.8408203
vt 0.8369141 0.8461914
vt 0.8525391 0.8408203
vt 0.8364258 0.8461914
vt 0.8530273 0.8408203
vt 0.8520508 0.8461914
vt 0.8530273 0.8408203
vt 0.8525391 0.8461914
vt 0.8535156 0.8457031
vt 0.8525391 0.8461914
vt 0.8530273 0.8457031
vt 0.8530273 0.8461914
vn 0 1 0
vn 0 1 0
vn 0 1 0
vn 0 1 0
vn 0.4968262 0.7006836 0.5117188
vn 0.7709961 0.6186523 0.1503906
vn 0.7861328 0.5703125 0.2375488
vn 0.6210938 0.4755859 0.6230469
vn 0.5644531 0.4470215 0.6938477
vn 0.4462891 0.7070313 0.5483398
vn 0.534668 -0.000731945 0.8452148
vn 0.1986084 0.9638672 0.1778564
vn 0.182373 0.9819336 0.046875
vn 0.199707 0.9487305 0.2454834
vn -0.199707 0.9487305 -0.2454834
vn 0.1337891 0.9638672 0.2305908
vn -0.2207031 0.9467773 -0.2344971
vn 0.4836426 0.4755859 0.7348633
vn 0.0692749 -0.002111435 0.9975586
vn 0.008796692 0.9819336 0.1881104
vn 0.07269287 0.5703125 0.8183594
vn -0.1083984 0.9765625 0.1854248
vn -0.5615234 -0.001297951 0.8276367
vn -0.5087891 0.5200195 0.6860352
vn -0.2036133 0.9765625 0.06842041
vn -0.7753906 0.5200195 0.3583984
vn -0.9243164 -0.001300812 0.3815918
vn -0.182373 0.9819336 -0.046875
vn -0.9628906 -0.00211525 -0.270752
vn -0.7861328 0.5703125 -0.2375488
vn -0.2900391 0.9267578 0.237915
vn 0.0008363724 1 0.001000404
vn 0.0009098053 1 0.0009403229
vn -0.2900391 0.9267578 0.237915
vn -0.5512695 0.7021484 0.4501953
vn -0.5512695 0.7026367 0.4501953
vn -0.6708984 0.5 0.5473633
vn -0.6708984 0.5 0.5473633
vn -0.7363281 0.3127441 0.5996094
vn -0.7368164 0.3125 0.5996094
vn -0.7729492 0.09527588 0.6274414
vn -0.7729492 0.09515381 0.6274414
vn -0.5483398 0.7080078 0.4445801
vn -0.550293 0.7055664 0.4462891
vn 0.09179688 0.9951172 0.0368042
vn -0.04678345 0.9951172 0.08642578
vn -0.154541 0.9794922 0.1289063
vn 0.1911621 0.9794922 -0.06341553
vn 0.005653381 0.9956055 0.09124756
vn 0.01048279 0.9956055 -0.09051514
vn -0.02314758 0.9956055 -0.08813477
vn 0.07489014 0.9956055 0.05252075
vn 0.1743164 0.9794922 0.1008911
vn -0.1251221 0.9794922 -0.1578369
vn 0.09729004 0.9951172 -0.01176453
vn -0.09637451 0.9951172 0.02008057
vn 0 1 1.192093E-07
vn 0 1 1.192093E-07
vn -0.09649658 0.9951172 0.0194397
vn 0.07879639 0.9951172 -0.05825806
vn 0.1547852 0.9794922 -0.1289063
vn -0.1911621 0.9794922 0.06347656
vn -0.005641937 0.9956055 -0.09130859
vn -0.01046753 0.9956055 0.09051514
vn 0.02314758 0.9956055 0.08807373
vn -0.0748291 0.9956055 -0.05252075
vn -0.1737061 0.9794922 -0.100708
vn 0.124939 0.9794922 0.1578369
vn -0.08587646 0.9951172 0.04727173
vn 0.09857178 0.9951172 -0.005241394
vn 0.5488281 0.706543 -0.4467773
vn 0.5488281 0.706543 -0.4470215
vn -0.6694336 -0.5991211 -0.4384766
vn -0.0002048016 -1 -0.0001348257
vn -0.2912598 -0.9267578 0.2366943
vn -0.4697266 -0.6679688 -0.5771484
vn 0.2907715 -0.9267578 -0.2370605
vn -0.2937012 -0.5991211 -0.7451172
vn -0.107666 -0.4650879 -0.8789063
vn 0.5517578 -0.7026367 -0.4494629
vn 0.004131317 -0.3442383 -0.9389648
vn 0.6713867 -0.5004883 -0.546875
vn 0.7368164 -0.3129883 -0.5996094
vn 0.03210449 -0.2116699 -0.9770508
vn 0.7719727 -0.09570313 -0.628418
vn 0.06646729 -0.065979 -0.9956055
vn 0.09942627 -0.0006070137 -0.9951172
vn 0.7753906 -0.000240922 -0.6313477
vn 0.7753906 0.0002199411 -0.6313477
vn 0.09020996 0.0001547337 -0.9960938
vn -0.102417 0.9912109 0.08337402
vn -0.1759033 0.9638672 -0.2010498
vn -0.1029663 0.9926758 0.06243896
vn -0.0760498 0.9926758 -0.09344482
vn 0.4462891 0.7070313 0.5483398
vn -0.4462891 0.7070313 -0.5483398
vn 0.2485352 0.9638672 -0.09777832
vn -0.04104614 0.9912109 -0.1254883
vn 0.4968262 0.7006836 0.5117188
vn 0.7709961 0.6186523 0.1503906
vn 0.6860352 0.6704102 -0.282959
vn 0.4003906 0.6582031 -0.637207
vn -0.3779297 0.706543 -0.5981445
vn 0.009490967 0.6186523 -0.7856445
vn -0.8383789 -0.465332 -0.2836914
vn -0.6694336 -0.5991211 -0.4384766
vn -0.2912598 -0.9267578 0.2366943
vn -0.5517578 -0.7026367 0.4489746
vn -0.6713867 -0.5004883 0.5463867
vn -0.9199219 -0.3442383 -0.1867676
vn -0.9633789 -0.2103271 -0.1671143
vn -0.7368164 -0.3127441 0.5996094
vn -0.9882813 -0.06323242 -0.1384277
vn -0.7719727 -0.09484863 0.628418
vn -0.9941406 0.001927376 -0.1072998
vn -0.7753906 0.0004525185 0.6313477
vn -0.9926758 0.002113342 -0.1192017
vn -0.7753906 0.000156045 0.6313477
vn -0.6337891 1.192093E-07 -0.7734375
vn 0.09020996 0.0001547337 -0.9960938
vn 0.09942627 -0.0006070137 -0.9951172
vn -0.6342773 -0.0002003908 -0.7729492
vn -0.7739258 -0.1772461 -0.6079102
vn 0.06646729 -0.065979 -0.9956055
vn -0.6435547 -0.01693726 -0.7651367
vn -0.8579102 -0.4521484 -0.244751
vn -0.8901367 0.1651611 -0.4250488
vn -0.6337891 -0.0005273819 -0.7734375
vn -0.6323242 3.492832E-05 -0.7744141
vn 0.03210449 -0.2116699 -0.9770508
vn -0.6318359 0.0004067421 -0.7749023
vn 0.004131317 -0.3442383 -0.9389648
vn -0.107666 -0.4650879 -0.8789063
vn -0.6318359 0.0007143021 -0.7753906
vn -0.2937012 -0.5991211 -0.7451172
vn -0.6313477 0.0009622574 -0.7753906
vn -0.4697266 -0.6679688 -0.5771484
vn -0.6313477 0.001062393 -0.7758789
vn -0.6694336 -0.5991211 -0.4384766
vn -0.6308594 0.0009622574 -0.7758789
vn -0.8383789 -0.465332 -0.2836914
vn -0.6303711 0.0007133484 -0.7758789
vn -0.9199219 -0.3442383 -0.1867676
vn -0.6303711 0.001021385 -0.7763672
vn -0.6293945 0.00179863 -0.7768555
vn -0.9633789 -0.2103271 -0.1671143
vn -0.6269531 0.00211525 -0.7788086
vn -0.9882813 -0.06323242 -0.1384277
vn -0.9941406 0.001927376 -0.1072998
vn -0.6240234 0.002168655 -0.78125
vn -0.9926758 0.002113342 -0.1192017
vn -0.625 0.002111435 -0.7807617
vn -0.4460449 0.01831055 -0.8950195
vn -0.6728516 -0.1005859 -0.7329102
vn 0.09307861 0.164917 -0.9819336
vn -0.06506348 -0.4511719 -0.8901367
vn 0.6396484 0.02696228 -0.7680664
vn 0.4633789 -0.1766357 -0.8681641
vn 0.9541016 0.05175781 -0.2956543
vn 0.8383789 -0.1019897 -0.5356445
vn 0.8896484 0.1652832 0.4257813
vn 0.8574219 -0.4526367 0.2449951
vn 0.0009098053 1 0.0009403229
vn 0.0008363724 1 0.001000404
vn 0.2915039 0.9267578 -0.2359619
vn 0.291748 0.9267578 -0.236084
vn 0.5522461 0.7026367 -0.4484863
vn 0.5522461 0.7026367 -0.4487305
vn 0.6713867 0.5004883 -0.5463867
vn 0.671875 0.5004883 -0.5463867
vn 0.7368164 0.3125 -0.5996094
vn 0.7368164 0.3125 -0.5996094
vn 0.7719727 0.09466553 -0.6289063
vn 0.7719727 0.09448242 -0.6289063
vn 0.5488281 0.706543 -0.4470215
vn 0.5488281 0.706543 -0.4467773
vn 0.9990234 -0.0003423691 0.04916382
vn 0.8818359 -0.02688599 -0.470459
vn 0.9804688 -0.1654053 0.1075439
vn 0.9199219 -0.09954834 -0.3791504
vn 0.4848633 -0.05151367 -0.8730469
vn 0.8530273 0.4665527 0.2342529
vn 0.640625 -0.0001410246 -0.7680664
vn -0.2337646 -0.1646729 -0.9580078
vn 0.8261719 0.4621582 -0.3222656
vn 0.1550293 -9.828806E-05 -0.987793
vn -0.6118164 -0.04092407 -0.7900391
vn 0.2888184 0.9443359 -0.1567383
vn 0.2854004 0.9536133 0.0947876
vn 0.4833984 0.4621582 -0.7431641
vn 0.2121582 0.9443359 -0.2509766
vn -0.5322266 -0.1015625 -0.840332
vn -0.05587769 0.4665527 -0.8828125
vn -0.03479004 0.9536133 -0.2988281
vn -0.1083984 0.9765625 0.1854248
vn -0.2036133 0.9765625 0.06842041
vn -0.182373 0.9819336 -0.046875
vn 0.2854004 0.9536133 0.0947876
vn -0.1986084 0.9638672 -0.1778564
vn 0.008796692 0.9819336 0.1881104
vn 0.2207031 0.9467773 0.2344971
vn -0.1846924 0.9467773 -0.2636719
vn 0.1337891 0.9638672 0.2305908
vn 0.199707 0.9487305 0.2454834
vn -0.4648438 0.4606934 -0.7563477
vn -0.5644531 0.4470215 -0.6938477
vn -0.6459961 0.4606934 -0.6088867
vn -0.6308594 0.001387596 -0.7758789
vn -0.6303711 0.002593994 -0.7763672
vn -0.6308594 0.002349854 -0.7758789
vn -0.6308594 0.0008425713 -0.7758789
vn -0.6313477 0 -0.7758789
vn -0.6308594 0.001987457 -0.7758789
vn -0.6308594 0.0007152557 -0.7758789
vn -0.6313477 0 -0.7758789
vn -0.6313477 0 -0.7758789
vn -0.6313477 0 -0.7758789
vn -0.6313477 0 -0.7758789
vn -0.6313477 0 -0.7758789
vn -0.6313477 0 -0.7758789
vn -0.6313477 0 -0.7758789
vn -0.6313477 0 -0.7758789
vn -0.6313477 0 -0.7758789
vn -0.6313477 0 -0.7758789
vn -0.7436523 -0.09472656 -0.6621094
vn -0.6430664 -0.0001460314 -0.765625
vn -0.9804688 -0.1654053 -0.107605
vn -0.9990234 -0.0003445148 -0.04922485
vn -0.8530273 0.4665527 -0.2342529
vn -0.2854004 0.9536133 -0.09484863
vn 0.1986084 0.9638672 0.1778564
vn -0.2854004 0.9536133 -0.09484863
vn 0.182373 0.9819336 0.046875
vn -0.2888184 0.9443359 0.1567383
vn 0.2036133 0.9765625 -0.06842041
vn -0.8530273 0.4665527 -0.2342529
vn -0.8261719 0.4621582 0.3222656
vn -0.9199219 -0.09954834 0.3791504
vn -0.9990234 -0.0003445148 -0.04922485
vn -0.8823242 -0.02688599 0.4702148
vn -0.9804688 -0.1654053 -0.107605
vn -0.4846191 -0.05160522 0.8730469
vn -0.640625 -0.0001679659 0.7680664
vn 0.2344971 -0.1654053 0.9580078
vn -0.1549072 -0.0003423691 0.987793
vn 0.6171875 -0.02705383 0.7861328
vn -0.4833984 0.4621582 0.7436523
vn -0.2121582 0.9443359 0.2509766
vn 0.1083984 0.9765625 -0.1854248
vn 0.2036133 0.9765625 -0.06842041
vn 0.03482056 0.9536133 0.2988281
vn 0.1083984 0.9765625 -0.1854248
vn -0.008811951 0.9819336 -0.1881104
vn 0.05596924 0.4665527 0.8828125
vn 0.6191406 -0.0001449585 0.7856445
vn 0.1846924 0.9467773 0.2636719
vn 0.6313477 0 0.7758789
vn 0.6313477 1.788139E-07 0.7758789
vn 0.4648438 0.4606934 0.7558594
vn -0.1337891 0.9638672 -0.2305908
vn -0.199707 0.9487305 -0.2454834
vn 0.199707 0.9487305 0.2454834
vn 0.7143555 0.1021729 0.6923828
vn 0.7763672 -0.05197144 0.628418
vn 0.9804688 -0.1654053 0.1075439
vn 0.9990234 -0.0003423691 0.04916382
vn 0.6459961 0.4606934 0.6088867
vn 0.8530273 0.4665527 0.2342529
vn 0.5644531 0.4470215 0.6938477
vn -0.1986084 0.9638672 -0.1778564
vn -0.199707 0.9487305 -0.2454834
vn -0.6210938 0.4755859 -0.6230469
vn -0.7861328 0.5703125 -0.2375488
vn -0.182373 0.9819336 -0.046875
vn -0.5644531 0.4470215 -0.6938477
vn -0.1337891 0.9638672 -0.2305908
vn -0.71875 -0.0007328987 -0.6953125
vn -0.9628906 -0.00211525 -0.270752
vn -0.4462891 0.7070313 -0.5483398
vn -0.4836426 0.4755859 -0.7348633
vn -0.3779297 0.706543 -0.5981445
vn 0.009490967 0.6186523 -0.7856445
vn -0.07275391 0.5703125 -0.8183594
vn 0.4003906 0.6582031 -0.637207
vn 0.5087891 0.5200195 -0.6860352
vn 0.7753906 0.5200195 -0.3583984
vn 0.6860352 0.6704102 -0.282959
vn 0.182373 0.9819336 0.046875
vn 0.7709961 0.6186523 0.1503906
vn 0.7861328 0.5703125 0.2375488
vn 0.6445313 0.02682495 0.7641602
vn 0.8896484 0.1652832 0.4257813
vn 0.8574219 -0.4526367 0.2449951
vn 0.7739258 -0.177124 0.6079102
vn 0.6313477 -1.192093E-07 0.7758789
vn 0.6313477 -1.192093E-07 0.7758789
vn 0.6743164 -0.1021729 0.7314453
vn 0.4580078 0.05163574 0.887207
vn -0.0925293 0.1652832 0.9819336
vn 0.06585693 -0.4526367 0.8891602
vn -0.6391602 0.02694702 0.7685547
vn -0.4631348 -0.1768799 0.8686523
vn -0.9536133 0.05172729 0.2958984
vn -0.8383789 -0.1018677 0.5356445
vn -0.8901367 0.1651611 -0.4250488
vn -0.8579102 -0.4521484 -0.244751
vn 0.07214355 -0.3098145 -0.9482422
vn 0.1508789 0.4187012 -0.8955078
vn -0.3115234 0.5610352 -0.7670898
vn -0.004211426 -0.6254883 -0.7802734
vn -0.3166504 -0.7124023 -0.6264648
vn -0.4492188 0.6445313 -0.6186523
vn -0.5141602 -0.6445313 -0.5664063
vn -0.5483398 0.7124023 -0.4379883
vn -0.6875 -0.5610352 -0.4616699
vn -0.6875 0.5610352 -0.4616699
vn -0.9072266 -0.4187012 -0.03530884
vn -0.9428711 0.3098145 -0.1231079
vn 0.5439453 -0.7070313 -0.4519043
vn 0.07971191 -0.5712891 -0.8168945
vn -0.815918 -0.5712891 -0.0880127
vn -0.5532227 -0.7070313 0.4406738
vn -0.9946289 0.007255554 -0.1021118
vn -0.7758789 -1.788139E-07 0.6313477
vn 0.7758789 2.384186E-07 -0.6313477
vn 0.07971191 -0.5712891 -0.8168945
vn 0.5439453 -0.7070313 -0.4519043
vn 0.1021729 0.007255554 -0.9946289
vn -0.9946289 0.007255554 -0.1021118
vn -0.815918 -0.5712891 -0.0880127
vn 0.5439453 -0.7070313 -0.4519043
vn 0.07971191 -0.5712891 -0.8168945
vn -0.815918 -0.5712891 -0.0880127
vn -0.5532227 -0.7070313 0.4406738
vn -0.9946289 0.007255554 -0.1021118
vn -0.7758789 -2.980232E-07 0.6313477
vn 0.7758789 2.980232E-07 -0.6313477
vn 0.07971191 -0.5712891 -0.8168945
vn 0.5439453 -0.7070313 -0.4519043
vn 0.1021729 0.007255554 -0.9946289
vn -0.9946289 0.007255554 -0.1021118
vn -0.815918 -0.5712891 -0.0880127
vn -0.7758789 1.192093E-06 0.6313477
vn -0.9868164 0.1039429 -0.1239624
vn -0.7646484 0.6186523 0.1807861
vn -0.8994141 -0.3310547 0.2851563
vn -0.8520508 0.2739258 -0.4458008
vn -0.4482422 -0.7954102 -0.4077148
vn -0.7646484 0.6186523 0.1807861
vn -0.9868164 0.1039429 -0.1239624
vn -0.8520508 0.2739258 -0.4458008
vn -0.7211914 0.2717285 -0.637207
vn -0.4482422 -0.7954102 -0.4077148
vn -0.5751953 -0.6181641 -0.5356445
vn 0.3325195 0.6186523 -0.7119141
vn -0.7084961 0.2697754 -0.6523438
vn -0.6313477 -0.559082 -0.5371094
vn -0.7832031 0.2438965 -0.5722656
vn -0.3081055 -0.7954102 -0.5219727
vn -0.1588135 0.2680664 -0.9501953
vn 0.182373 -0.5322266 -0.8266602
vn 0.7758789 0 -0.6313477
vn -0.6972656 0.543457 0.4677734
vn -0.6875 0.5610352 -0.4616699
vn -0.5092773 0.8598633 -0.03775024
vn -0.9428711 0.3098145 -0.1231079
vn -0.5483398 0.7124023 -0.4379883
vn -0.8022461 -0.3537598 0.4807129
vn -0.07855225 0.9868164 -0.1409912
vn -0.9072266 -0.4187012 -0.03530884
vn -0.4492188 0.6445313 -0.6186523
vn -0.5087891 -0.8598633 -0.03781128
vn 0.114502 0.9707031 -0.2113037
vn -0.6875 -0.5610352 -0.4616699
vn -0.3115234 0.5610352 -0.7670898
vn -0.2302246 -0.9707031 0.06890869
vn 0.06707764 0.8598633 -0.5058594
vn -0.5141602 -0.6445313 -0.5664063
vn 0.1508789 0.4187012 -0.8955078
vn -0.1219482 -0.9868164 -0.1056519
vn 0.6347656 0.3537598 -0.6870117
vn -0.3166504 -0.7124023 -0.6264648
vn 0.07214355 -0.3098145 -0.9482422
vn 0.06713867 -0.8598633 -0.5058594
vn 0.6005859 -0.543457 -0.5869141
vn -0.004211426 -0.6254883 -0.7802734
g Building_0
f 3/3/3 2/2/2 1/1/1
f 4/4/4 3/3/3 1/1/1
f 7/7/7 6/6/6 5/5/5
f 8/8/8 7/7/7 5/5/5
f 8/8/8 5/5/5 9/9/9
f 5/5/5 10/10/10 9/9/9
f 10/10/10 11/11/11 9/9/9
f 7/7/7 8/8/8 12/12/12
f 13/13/13 7/7/7 12/12/12
f 12/12/12 8/8/8 14/14/14
f 8/8/8 9/9/9 14/14/14
f 14/14/14 15/15/15 12/12/12
f 14/14/14 9/9/9 16/16/16
f 15/15/15 17/17/17 12/12/12
f 11/11/11 18/18/18 9/9/9
f 9/9/9 18/18/18 16/16/16
f 18/18/18 11/11/11 19/19/19
f 20/20/20 16/16/16 18/18/18
f 21/21/21 18/18/18 19/19/19
f 21/21/21 20/20/20 18/18/18
f 22/22/22 20/20/20 21/21/21
f 21/21/21 19/19/19 23/23/23
f 24/24/24 22/22/22 21/21/21
f 24/24/24 21/21/21 23/23/23
f 22/22/22 24/24/24 25/25/25
f 24/24/24 23/23/23 26/26/26
f 24/24/24 26/26/26 25/25/25
f 23/23/23 27/27/27 26/26/26
f 28/28/28 25/25/25 26/26/26
f 27/27/27 29/29/29 26/26/26
f 30/30/30 28/28/28 26/26/26
f 29/29/29 30/30/30 26/26/26
f 33/33/33 32/32/32 31/31/31
f 32/32/32 34/34/34 31/31/31
f 31/31/31 34/34/34 35/35/35
f 34/34/34 36/36/36 35/35/35
f 35/35/35 36/36/36 37/37/37
f 36/36/36 38/38/38 37/37/37
f 37/37/37 38/38/38 39/39/39
f 40/40/40 37/37/37 39/39/39
f 40/40/40 39/39/39 41/41/41
f 42/42/42 40/40/40 41/41/41
f 42/42/42 41/41/41 43/43/43
f 41/41/41 44/44/44 43/43/43
f 43/43/43 44/44/44 45/45/45
f 44/44/44 46/46/46 45/45/45
f 46/46/46 47/47/47 45/45/45
f 47/47/47 48/48/48 45/45/45
f 47/47/47 49/49/49 48/48/48
f 49/49/49 50/50/50 48/48/48
f 50/50/50 49/49/49 51/51/51
f 49/49/49 52/52/52 51/51/51
f 51/51/51 52/52/52 53/53/53
f 54/54/54 51/51/51 53/53/53
f 54/54/54 53/53/53 55/55/55
f 56/56/56 54/54/54 55/55/55
f 56/56/56 55/55/55 57/57/57
f 55/55/55 58/58/58 57/57/57
f 59/59/59 57/57/57 58/58/58
f 60/60/60 59/59/59 58/58/58
f 60/60/60 61/61/61 59/59/59
f 61/61/61 62/62/62 59/59/59
f 61/61/61 63/63/63 62/62/62
f 63/63/63 64/64/64 62/62/62
f 64/64/64 63/63/63 65/65/65
f 63/63/63 66/66/66 65/65/65
f 65/65/65 66/66/66 67/67/67
f 68/68/68 65/65/65 67/67/67
f 68/68/68 67/67/67 69/69/69
f 70/70/70 68/68/68 69/69/69
f 70/70/70 69/69/69 71/71/71
f 69/69/69 72/72/72 71/71/71
f 75/75/75 74/74/74 73/73/73
f 74/74/74 76/76/76 73/73/73
f 76/76/76 74/74/74 77/77/77
f 78/78/78 76/76/76 77/77/77
f 79/79/79 78/78/78 77/77/77
f 80/80/80 79/79/79 77/77/77
f 81/81/81 79/79/79 80/80/80
f 82/82/82 81/81/81 80/80/80
f 82/82/82 83/83/83 81/81/81
f 83/83/83 84/84/84 81/81/81
f 83/83/83 85/85/85 84/84/84
f 85/85/85 86/86/86 84/84/84
f 87/87/87 86/86/86 85/85/85
f 88/88/88 87/87/87 85/85/85
f 88/88/88 89/89/89 87/87/87
f 89/89/89 90/90/90 87/87/87
f 93/93/93 92/92/92 91/91/91
f 91/91/91 94/94/94 93/93/93
f 91/91/91 95/95/95 94/94/94
f 95/95/95 96/96/96 94/94/94
f 96/96/96 97/97/97 94/94/94
f 96/96/96 98/98/98 97/97/97
f 96/96/96 95/95/95 99/99/99
f 99/99/99 100/100/100 96/96/96
f 100/100/100 101/101/101 96/96/96
f 101/101/101 102/102/102 96/96/96
f 102/102/102 103/103/103 96/96/96
f 102/102/102 104/104/104 103/103/103
f 107/107/107 106/106/106 105/105/105
f 108/108/108 107/107/107 105/105/105
f 109/109/109 108/108/108 105/105/105
f 110/110/110 109/109/109 105/105/105
f 109/109/109 110/110/110 111/111/111
f 112/112/112 109/109/109 111/111/111
f 112/112/112 111/111/111 113/113/113
f 114/114/114 112/112/112 113/113/113
f 113/113/113 115/115/115 114/114/114
f 115/115/115 116/116/116 114/114/114
f 115/115/115 117/117/117 116/116/116
f 117/117/117 118/118/118 116/116/116
f 121/121/121 120/120/120 119/119/119
f 122/122/122 121/121/121 119/119/119
f 122/122/122 119/119/119 123/123/123
f 124/124/124 121/121/121 122/122/122
f 125/125/125 122/122/122 123/123/123
f 125/125/125 123/123/123 126/126/126
f 127/127/127 125/125/125 126/126/126
f 128/128/128 124/124/124 122/122/122
f 124/124/124 128/128/128 129/129/129
f 130/130/130 124/124/124 129/129/129
f 130/130/130 129/129/129 131/131/131
f 132/132/132 130/130/130 131/131/131
f 133/133/133 132/132/132 131/131/131
f 134/134/134 133/133/133 131/131/131
f 135/135/135 133/133/133 134/134/134
f 136/136/136 135/135/135 134/134/134
f 137/137/137 135/135/135 136/136/136
f 138/138/138 137/137/137 136/136/136
f 139/139/139 137/137/137 138/138/138
f 140/140/140 139/139/139 138/138/138
f 141/141/141 139/139/139 140/140/140
f 142/142/142 141/141/141 140/140/140
f 143/143/143 141/141/141 142/142/142
f 144/144/144 143/143/143 142/142/142
f 143/143/143 144/144/144 145/145/145
f 146/146/146 143/143/143 145/145/145
f 146/146/146 145/145/145 147/147/147
f 148/148/148 146/146/146 147/147/147
f 149/149/149 148/148/148 147/147/147
f 150/150/150 149/149/149 147/147/147
f 151/151/151 149/149/149 150/150/150
f 152/152/152 151/151/151 150/150/150
f 150/150/150 153/153/153 152/152/152
f 153/153/153 154/154/154 152/152/152
f 154/154/154 153/153/153 155/155/155
f 156/156/156 154/154/154 155/155/155
f 156/156/156 155/155/155 157/157/157
f 158/158/158 156/156/156 157/157/157
f 157/157/157 159/159/159 158/158/158
f 159/159/159 160/160/160 158/158/158
f 160/160/160 159/159/159 161/161/161
f 162/162/162 160/160/160 161/161/161
f 165/165/165 164/164/164 163/163/163
f 166/166/166 165/165/165 163/163/163
f 167/167/167 165/165/165 166/166/166
f 168/168/168 167/167/167 166/166/166
f 169/169/169 167/167/167 168/168/168
f 170/170/170 169/169/169 168/168/168
f 170/170/170 171/171/171 169/169/169
f 171/171/171 172/172/172 169/169/169
f 171/171/171 173/173/173 172/172/172
f 173/173/173 174/174/174 172/172/172
f 175/175/175 174/174/174 173/173/173
f 176/176/176 175/175/175 173/173/173
f 179/179/179 178/178/178 177/177/177
f 178/178/178 180/180/180 177/177/177
f 180/180/180 178/178/178 181/181/181
f 177/177/177 180/180/180 182/182/182
f 183/183/183 180/180/180 181/181/181
f 181/181/181 184/184/184 183/183/183
f 180/180/180 185/185/185 182/182/182
f 185/185/185 180/180/180 183/183/183
f 184/184/184 186/186/186 183/183/183
f 184/184/184 187/187/187 186/186/186
f 182/182/182 185/185/185 188/188/188
f 189/189/189 182/182/182 188/188/188
f 190/190/190 185/185/185 183/183/183
f 183/183/183 186/186/186 190/190/190
f 191/191/191 188/188/188 185/185/185
f 190/190/190 191/191/191 185/185/185
f 187/187/187 192/192/192 186/186/186
f 186/186/186 193/193/193 190/190/190
f 186/186/186 192/192/192 193/193/193
f 191/191/191 190/190/190 194/194/194
f 190/190/190 193/193/193 194/194/194
f 188/188/188 191/191/191 195/195/195
f 191/191/191 194/194/194 195/195/195
f 196/196/196 188/188/188 195/195/195
f 188/188/188 196/196/196 197/197/197
f 198/198/198 188/188/188 197/197/197
f 198/198/198 197/197/197 199/199/199
f 194/194/194 200/200/200 195/195/195
f 201/201/201 198/198/198 199/199/199
f 194/194/194 202/202/202 200/200/200
f 194/194/194 193/193/193 202/202/202
f 202/202/202 203/203/203 200/200/200
f 203/203/203 202/202/202 204/204/204
f 202/202/202 15/15/15 204/204/204
f 193/193/193 205/205/205 202/202/202
f 15/15/15 202/202/202 205/205/205
f 192/192/192 205/205/205 193/193/193
f 206/206/206 15/15/15 205/205/205
f 206/206/206 205/205/205 192/192/192
f 17/17/17 15/15/15 206/206/206
f 207/207/207 17/17/17 206/206/206
f 192/192/192 208/208/208 206/206/206
f 208/208/208 192/192/192 187/187/187
f 187/187/187 209/209/209 208/208/208
f 209/209/209 210/210/210 208/208/208
f 208/208/208 211/211/211 206/206/206
f 211/211/211 208/208/208 210/210/210
f 206/206/206 211/211/211 212/212/212
f 210/210/210 213/213/213 211/211/211
f 213/213/213 214/214/214 211/211/211
f 211/211/211 214/214/214 212/212/212
f 212/212/212 215/215/215 206/206/206
f 215/215/215 216/216/216 206/206/206
f 216/216/216 217/217/217 206/206/206
f 217/217/217 218/218/218 206/206/206
f 206/206/206 218/218/218 219/219/219
f 220/220/220 206/206/206 219/219/219
f 220/220/220 219/219/219 221/221/221
f 221/221/221 222/222/222 220/220/220
f 207/207/207 206/206/206 220/220/220
f 222/222/222 223/223/223 220/220/220
f 220/220/220 223/223/223 207/207/207
f 223/223/223 222/222/222 224/224/224
f 224/224/224 225/225/225 223/223/223
f 225/225/225 226/226/226 223/223/223
f 223/223/223 226/226/226 207/207/207
f 226/226/226 225/225/225 227/227/227
f 228/228/228 226/226/226 227/227/227
f 207/207/207 226/226/226 228/228/228
f 229/229/229 207/207/207 228/228/228
f 207/207/207 229/229/229 230/230/230
f 17/17/17 207/207/207 230/230/230
f 17/17/17 232/232/232 231/231/231
f 232/232/232 233/233/233 231/231/231
f 232/232/232 234/234/234 233/233/233
f 234/234/234 235/235/235 233/233/233
f 232/232/232 236/236/236 234/234/234
f 236/236/236 237/237/237 234/234/234
f 237/237/237 236/236/236 238/238/238
f 236/236/236 239/239/239 238/238/238
f 238/238/238 239/239/239 240/240/240
f 239/239/239 241/241/241 240/240/240
f 238/238/238 240/240/240 242/242/242
f 243/243/243 238/238/238 242/242/242
f 237/237/237 238/238/238 243/243/243
f 242/242/242 244/244/244 243/243/243
f 244/244/244 245/245/245 243/243/243
f 244/244/244 246/246/246 245/245/245
f 247/247/247 237/237/237 243/243/243
f 243/243/243 245/245/245 247/247/247
f 248/248/248 234/234/234 237/237/237
f 247/247/247 248/248/248 237/237/237
f 234/234/234 248/248/248 249/249/249
f 250/250/250 234/234/234 249/249/249
f 248/248/248 247/247/247 251/251/251
f 248/248/248 251/251/251 252/252/252
f 251/251/251 253/253/253 252/252/252
f 245/245/245 254/254/254 247/247/247
f 247/247/247 254/254/254 251/251/251
f 246/246/246 255/255/255 245/245/245
f 245/245/245 255/255/255 254/254/254
f 251/251/251 254/254/254 256/256/256
f 251/251/251 256/256/256 253/253/253
f 255/255/255 246/246/246 257/257/257
f 246/246/246 258/258/258 257/257/257
f 255/255/255 259/259/259 254/254/254
f 254/254/254 259/259/259 256/256/256
f 255/255/255 257/257/257 259/259/259
f 256/256/256 260/260/260 253/253/253
f 260/260/260 256/256/256 261/261/261
f 256/256/256 262/262/262 261/261/261
f 262/262/262 256/256/256 259/259/259
f 263/263/263 257/257/257 258/258/258
f 264/264/264 263/263/263 258/258/258
f 264/264/264 265/265/265 263/263/263
f 265/265/265 266/266/266 263/263/263
f 263/263/263 266/266/266 267/267/267
f 263/263/263 267/267/267 257/257/257
f 266/266/266 268/268/268 267/267/267
f 267/267/267 268/268/268 198/198/198
f 201/201/201 267/267/267 198/198/198
f 257/257/257 269/269/269 259/259/259
f 267/267/267 269/269/269 257/257/257
f 267/267/267 201/201/201 269/269/269
f 269/269/269 262/262/262 259/259/259
f 201/201/201 262/262/262 269/269/269
f 262/262/262 201/201/201 270/270/270
f 271/271/271 262/262/262 270/270/270
f 271/271/271 270/270/270 272/272/272
f 272/272/272 270/270/270 273/273/273
f 270/270/270 274/274/274 273/273/273
f 275/275/275 271/271/271 272/272/272
f 271/271/271 275/275/275 276/276/276
f 277/277/277 272/272/272 273/273/273
f 272/272/272 277/277/277 275/275/275
f 278/278/278 277/277/277 273/273/273
f 277/277/277 279/279/279 275/275/275
f 275/275/275 280/280/280 276/276/276
f 275/275/275 279/279/279 280/280/280
f 279/279/279 281/281/281 280/280/280
f 276/276/276 280/280/280 253/253/253
f 280/280/280 281/281/281 282/282/282
f 280/280/280 283/283/283 253/253/253
f 283/283/283 280/280/280 282/282/282
f 253/253/253 283/283/283 249/249/249
f 283/283/283 282/282/282 284/284/284
f 283/283/283 285/285/285 249/249/249
f 285/285/285 283/283/283 284/284/284
f 249/249/249 285/285/285 250/250/250
f 285/285/285 284/284/284 286/286/286
f 285/285/285 286/286/286 250/250/250
f 284/284/284 287/287/287 286/286/286
f 250/250/250 286/286/286 288/288/288
f 286/286/286 287/287/287 289/289/289
f 286/286/286 290/290/290 288/288/288
f 290/290/290 286/286/286 289/289/289
f 293/293/293 292/292/292 291/291/291
f 294/294/294 293/293/293 291/291/291
f 294/294/294 291/291/291 295/295/295
f 291/291/291 296/296/296 295/295/295
f 297/297/297 295/295/295 296/296/296
f 298/298/298 297/297/297 296/296/296
f 297/297/297 298/298/298 299/299/299
f 300/300/300 297/297/297 299/299/299
f 300/300/300 299/299/299 301/301/301
f 302/302/302 300/300/300 301/301/301
f 301/301/301 303/303/303 302/302/302
f 303/303/303 304/304/304 302/302/302
f 303/303/303 305/305/305 304/304/304
f 305/305/305 306/306/306 304/304/304
f 309/309/309 308/308/308 307/307/307
f 307/307/307 310/310/310 309/309/309
f 310/310/310 311/311/311 309/309/309
f 311/311/311 312/312/312 309/309/309
f 311/311/311 313/313/313 312/312/312
f 313/313/313 314/314/314 312/312/312
f 313/313/313 315/315/315 314/314/314
f 315/315/315 316/316/316 314/314/314
f 315/315/315 317/317/317 316/316/316
f 317/317/317 318/318/318 316/316/316
f 321/321/321 320/320/320 319/319/319
f 322/322/322 321/321/321 319/319/319
f 323/323/323 321/321/321 322/322/322
f 324/324/324 323/323/323 322/322/322
f 327/327/327 326/326/326 325/325/325
f 326/326/326 328/328/328 325/325/325
f 328/328/328 326/326/326 329/329/329
f 326/326/326 330/330/330 329/329/329
f 333/333/333 332/332/332 331/331/331
f 334/334/334 333/333/333 331/331/331
f 335/335/335 333/333/333 334/334/334
f 336/336/336 335/335/335 334/334/334
f 339/339/339 338/338/338 337/337/337
f 338/338/338 340/340/340 337/337/337
f 340/340/340 338/338/338 341/341/341
f 338/338/338 342/342/342 341/341/341
f 345/345/345 344/344/344 343/343/343
f 344/344/344 346/346/346 343/343/343
f 344/344/344 347/347/347 346/346/346
f 347/347/347 348/348/348 346/346/346
f 351/351/351 350/350/350 349/349/349
f 352/352/352 351/351/351 349/349/349
f 351/351/351 352/352/352 353/353/353
f 352/352/352 354/354/354 353/353/353
f 352/352/352 349/349/349 355/355/355
f 352/352/352 356/356/356 354/354/354
f 356/356/356 352/352/352 355/355/355
f 356/356/356 357/357/357 354/354/354
f 357/357/357 356/356/356 358/358/358
f 358/358/358 356/356/356 355/355/355
f 359/359/359 357/357/357 358/358/358
f 359/359/359 358/358/358 360/360/360
f 355/355/355 360/360/360 358/358/358
f 361/361/361 359/359/359 360/360/360
f 360/360/360 355/355/355 361/361/361
f 355/355/355 362/362/362 361/361/361
f 365/365/365 364/364/364 363/363/363
f 364/364/364 366/366/366 363/363/363
f 367/367/367 364/364/364 365/365/365
f 368/368/368 363/363/363 366/366/366
f 369/369/369 367/367/367 365/365/365
f 370/370/370 368/368/368 366/366/366
f 367/367/367 369/369/369 371/371/371
f 368/368/368 370/370/370 372/372/372
f 369/369/369 373/373/373 371/371/371
f 370/370/370 374/374/374 372/372/372
f 375/375/375 371/371/371 373/373/373
f 372/372/372 374/374/374 376/376/376
f 377/377/377 375/375/375 373/373/373
f 374/374/374 378/378/378 376/376/376
f 379/379/379 375/375/375 377/377/377
f 380/380/380 376/376/376 378/378/378
f 381/381/381 379/379/379 377/377/377
f 382/382/382 380/380/380 378/378/378
f 379/379/379 381/381/381 383/383/383
f 384/384/384 380/380/380 382/382/382
f 381/381/381 385/385/385 383/383/383
f 386/386/386 384/384/384 382/382/382
f 383/383/383 385/385/385 386/386/386
f 385/385/385 384/384/384 386/386/386
