g burger
v -21.69773 20.06324 8.073394
v -15.91191 20.33207 16.74935
v -23.14443 19.7707 -2.253325
v -12.79068 19.33902 -19.75585
v -19.96555 19.51219 -12.18546
v 7.352715 19.36215 -22.57852
v -3.040918 19.28547 -23.46509
v -12.79068 19.33902 -19.75585
v -21.21838 1.401367 9.113613
v -23.14808 1.385586 -1.019048
v -23.09476 6.24832 -1.036782
v -21.16506 6.264102 9.095888
v -15.03035 6.226992 17.38796
v -15.08369 1.364297 17.40567
v -5.905644 6.144492 22.19711
v -5.958965 1.281719 22.21484
v 4.401758 6.032773 22.57082
v 4.348437 1.170078 22.58853
v 13.79707 1.051367 18.45278
v 13.85039 5.914102 18.43507
v 20.51546 0.9491796 10.6267
v 20.56879 5.811875 10.60899
v 23.17298 0.8837109 0.6603564
v 23.22631 5.746406 0.6426367
v 21.24325 0.8679297 -9.472309
v 21.29658 5.730664 -9.490025
v 15.10854 0.905 -17.76437
v 15.16187 5.767734 -17.7821
v 5.983848 0.9875 -22.57353
v 6.037148 5.850234 -22.59125
v -4.323555 1.099258 -22.94722
v -4.270215 5.961914 -22.96494
v -13.77219 1.217852 -18.81146
v -13.71887 6.080586 -18.82918
v -20.4906 1.320078 -10.98538
v -20.43727 6.182812 -11.00311
v -23.14808 1.385586 -1.019048
v -23.09476 6.24832 -1.036782
v -19.7934 11.31711 -11.96789
v -12.69896 11.17598 -19.45414
v -12.68797 16.03836 -19.53536
v -19.7824 16.17945 -12.04911
v -22.92557 16.35062 -2.226382
v -22.93654 11.48832 -2.145151
v -21.49484 16.51805 7.987319
v -21.50588 11.65566 8.068564
v -15.77369 16.64848 16.56905
v -15.78473 11.78613 16.65029
v -6.90623 11.85371 21.90033
v -6.895254 16.71605 21.81912
v 3.371035 11.84516 22.77887
v 3.382031 16.7075 22.69764
v 13.01162 11.76207 19.11186
v 13.02262 16.62449 19.03063
v 20.10608 11.62102 11.62563
v 20.11707 16.48336 11.5444
v 23.24923 11.44977 1.802895
v 23.26024 16.31215 1.72167
v 21.81853 11.28242 -8.410825
v 21.82954 16.14477 -8.492065
v 16.09739 11.15191 -16.99255
v 16.10838 16.0143 -17.07379
v 7.218906 11.08437 -22.24261
v 7.229922 15.94672 -22.32384
v -3.058379 11.09293 -23.12112
v -3.047383 15.95527 -23.20236
v -12.69896 11.17598 -19.45414
v -12.68797 16.03836 -19.53536
v 1.728672 33.45758 1.746084
v -2.530723 33.39856 0.3843603
v -2.319355 33.33133 -2.087549
v 2.109531 33.33641 -2.708154
v -0.2542578 33.30363 -3.463848
v 1.013906 33.31297 -3.355674
v -1.335039 32.14891 -11.18609
v 3.40373 32.18391 -10.78187
v -2.90373 27.24012 -22.42076
v 7.49748 32.27125 -8.362334
v 2.815449 33.36918 -1.649541
v 6.92414 27.31258 -21.58244
v -3.208125 22.64484 -24.63067
v 10.13539 32.39383 -4.406728
v 2.991992 33.40488 -0.3895068
v 15.41427 27.49387 -16.56454
v 7.665683 22.72508 -23.70314
v 10.79498 32.52726 0.301543
v 2.604121 33.43644 0.8223584
v 20.88512 27.74801 -8.360869
v 9.345644 32.64511 4.829893
v 1.728672 33.45758 1.746084
v 7.679512 19.97145 -23.62703
v -3.194277 19.89121 -24.55458
v 17.05935 22.92566 -18.15118
v 22.25308 28.02473 1.403691
v 6.074394 32.72402 8.28145
v 0.5390234 33.46414 2.198662
v 7.352715 19.36215 -22.57852
v -3.040918 19.28547 -23.46509
v 17.0732 20.17203 -18.07508
v 23.11244 23.20683 -9.074438
v 19.24723 28.26918 10.79519
v 1.62918 32.74847 9.972597
v -0.7291797 33.45477 2.090493
v 16.33166 19.55387 -17.27171
v 23.12626 20.45324 -8.998344
v 22.11744 19.82269 -8.595757
v 20.38527 20.37379 11.6631
v -12.79068 19.33902 -19.75585
v 23.56417 20.11531 1.730962
v 24.63982 20.75937 1.805425
v 24.62601 23.51301 1.729316
v 21.31409 21.02984 12.19638
v 21.30026 23.78344 12.12027
v -15.91191 20.33207 16.74935
v -23.14443 19.7707 -2.253325
v 12.46293 28.43289 17.95345
v 13.80777 21.21098 20.11648
v 13.21039 20.54691 19.2335
v 3.460625 20.60051 22.94272
v 13.79395 23.96461 20.0404
v 3.243887 28.48355 21.46077
v 3.607578 21.26703 23.99706
v -6.933027 20.52387 22.05616
v 3.59377 24.02059 23.92099
v -7.266191 21.18676 23.06953
v -3.10959 32.71352 9.568388
v -16.65986 20.98621 17.51756
v -21.69773 20.06324 8.073394
v -6.583926 28.41101 20.62247
v -7.280019 23.94035 22.99344
v -1.824746 33.43137 1.442979
v -2.530723 33.39856 0.3843603
v -7.20334 32.62609 7.148857
v -15.07408 28.22976 15.60453
v -9.841249 32.50351 3.193237
v -16.67367 23.7398 17.44147
v -22.71293 20.705 8.440835
v -23.14443 19.7707 -2.253325
v -20.54488 27.97559 7.400874
v -22.72676 23.45859 8.36476
v -2.707227 33.36289 -0.8756592
v -2.319355 33.33133 -2.087549
v -10.50084 32.37016 -1.51502
v -24.22648 20.39887 -2.36293
v -19.96555 19.51219 -12.18546
v -24.24031 23.15242 -2.439009
v -21.91287 27.69887 -2.363691
v -9.051504 32.25227 -6.043384
v -20.90072 20.12844 -12.75389
v -12.79068 19.33902 -19.75585
v -20.91457 22.88203 -12.82998
v -18.90701 27.45445 -11.75516
v -13.39443 19.9473 -20.67401
v -3.040918 19.28547 -23.46509
v -3.194277 19.89121 -24.55458
v -13.40826 22.70082 -20.75009
v -3.208125 22.64484 -24.63067
v -2.90373 27.24012 -22.42076
v -12.12273 27.29078 -18.91346
v -1.335039 32.14891 -11.18609
v -5.780254 32.17332 -9.494941
v -0.2542578 33.30363 -3.463848
v -1.443906 33.3102 -3.01126
v 2.109531 33.33641 -2.708154
v 2.815449 33.36918 -1.649541
v 2.991992 33.40488 -0.3895068
v 1.728672 33.45758 1.746084
v 2.604121 33.43644 0.8223584
v 0.5390234 33.46414 2.198662
v -0.7291797 33.45477 2.090493
v -2.530723 33.39856 0.3843603
v -14.0774 7.347304 16.28827
v -5.905644 6.144492 22.19711
v -15.03035 6.226992 17.38796
v -19.82992 7.382031 8.512797
v -21.63945 7.367265 -0.9886084
v 4.144063 7.165195 21.14824
v -21.16506 6.264102 9.095888
v -23.09476 6.24832 -1.036782
v 19.98636 6.881875 -8.91521
v -12.84764 7.210039 -17.67254
v -5.521152 7.269883 20.7978
v 4.401758 6.032773 22.57082
v 13.85039 5.914102 18.43507
v -19.14746 7.305859 -10.33402
v -20.43727 6.182812 -11.00311
v -13.71887 6.080586 -18.82918
v 13.00406 7.053906 17.27014
v 20.56879 5.811875 10.60899
v 19.30389 6.958086 9.93165
v 23.22631 5.746406 0.6426367
v 21.79586 6.896679 0.5861816
v 21.29658 5.730664 -9.490025
v 15.16187 5.767734 -17.7821
v -3.987656 7.09875 -21.55064
v -4.270215 5.961914 -22.96494
v 5.677598 6.994062 -21.20024
v 6.037148 5.850234 -22.59125
v 14.23383 6.916601 -16.69068
v -21.48432 17.48398 -2.122368
v -21.49484 16.51805 7.987319
v -22.92557 16.35062 -2.226382
v -18.53697 17.32344 -11.33312
v -11.88453 17.19117 -18.35298
v -14.77803 17.76324 15.50214
v -19.7824 16.17945 -12.04911
v -12.68797 16.03836 -19.53536
v 18.87676 17.6084 10.79049
v 6.7925 17.10523 -20.96775
v -20.14273 17.64094 7.455053
v -15.77369 16.64848 16.56905
v -6.895254 16.71605 21.81912
v -2.844551 17.11324 -21.79153
v -3.047383 15.95527 -23.20236
v 7.229922 15.94672 -22.32384
v -6.452695 17.82664 20.42511
v 3.382031 16.7075 22.69764
v 3.184316 17.81859 21.2489
v 13.02262 16.62449 19.03063
v 12.2243 17.7407 17.81035
v 20.11707 16.48336 11.5444
v 23.26024 16.31215 1.72167
v 15.11782 17.16863 -16.04478
v 16.10838 16.0143 -17.07379
v 20.48254 17.29094 -7.997681
v 21.82954 16.14477 -8.492065
v 21.82409 17.44785 1.579722
v -21.71766 0.2353125 -0.9625976
v -23.14808 1.385586 -1.019048
v -21.21838 1.401367 9.113613
v -19.90818 0.2500781 8.538789
v -14.15561 0.2153906 16.31427
v -12.92584 0.07804687 -17.64654
v -15.08369 1.364297 17.40567
v -5.958965 1.281719 22.21484
v 19.90815 -0.2500781 -8.889218
v 4.065859 0.03324219 21.17423
v -19.2257 0.1739453 -10.30803
v -20.4906 1.320078 -10.98538
v -13.77219 1.217852 -18.81146
v -5.599394 0.1380078 20.82381
v 4.348437 1.170078 22.58853
v 13.79707 1.051367 18.45278
v -4.065859 -0.03320313 -21.52465
v -4.323555 1.099258 -22.94722
v 5.599355 -0.1379297 -21.17422
v 5.983848 0.9875 -22.57353
v 14.15562 -0.2153516 -16.66468
v 15.10854 0.905 -17.76437
v 21.24325 0.8679297 -9.472309
v 12.92582 -0.07808594 17.29615
v 20.51546 0.9491796 10.6267
v 19.22566 -0.1738672 9.957637
v 23.17298 0.8837109 0.6603564
v 21.71766 -0.2353125 0.6121924
v -11.90064 10.05973 -18.23384
v -12.69896 11.17598 -19.45414
v -19.7934 11.31711 -11.96789
v -18.5531 10.19203 -11.21399
v -21.50043 10.35258 -2.003213
v 6.776367 9.973789 -20.84861
v -22.93654 11.48832 -2.145151
v -21.50588 11.65566 8.068564
v 18.86064 10.47699 10.90965
v -14.79414 10.6318 15.62127
v -2.860683 9.981796 -21.67239
v -3.058379 11.09293 -23.12112
v 7.218906 11.08437 -22.24261
v -20.15889 10.50953 7.574174
v -15.78473 11.78613 16.65029
v -6.90623 11.85371 21.90033
v 15.1017 10.03715 -15.92564
v 16.09739 11.15191 -16.99255
v 20.4664 10.15949 -7.878535
v 21.81853 11.28242 -8.410825
v 21.80796 10.31645 1.698857
v 23.24923 11.44977 1.802895
v 20.10608 11.62102 11.62563
v -6.468809 10.69523 20.54425
v 3.371035 11.84516 22.77887
v 3.168184 10.68715 21.36803
v 13.01162 11.76207 19.11186
v 12.20816 10.6093 17.9295
vt 0.1719971 0.1138916
vt 0.1721191 0.1138916
vt 0.171875 0.1138916
vt 0.1715088 0.1138916
vt 0.1716309 0.1138306
vt 0.1730957 0.1138916
vt 0.1732178 0.1138916
vt 0.1733398 0.1138916
vt 0.7285156 0.8579102
vt 0.7275391 0.8579102
vt 0.7275391 0.8540039
vt 0.7285156 0.8540039
vt 0.7290039 0.8540039
vt 0.7290039 0.8579102
vt 0.7299805 0.8540039
vt 0.7299805 0.8579102
vt 0.730957 0.8540039
vt 0.730957 0.8579102
vt 0.7314453 0.8579102
vt 0.7314453 0.8540039
vt 0.7324219 0.8579102
vt 0.7324219 0.8540039
vt 0.7329102 0.8579102
vt 0.7329102 0.8540039
vt 0.7338867 0.8579102
vt 0.7338867 0.8540039
vt 0.7348633 0.8579102
vt 0.7348633 0.8540039
vt 0.7353516 0.8579102
vt 0.7353516 0.8540039
vt 0.7363281 0.8579102
vt 0.7363281 0.8540039
vt 0.7368164 0.8579102
vt 0.7368164 0.8540039
vt 0.737793 0.8579102
vt 0.737793 0.8540039
vt 0.7387695 0.8579102
vt 0.7387695 0.8540039
vt 0.3400879 0.8374023
vt 0.3383789 0.8374023
vt 0.3383789 0.8393555
vt 0.3400879 0.8393555
vt 0.3415527 0.8393555
vt 0.3415527 0.8374023
vt 0.3430176 0.8393555
vt 0.3430176 0.8374023
vt 0.3444824 0.8393555
vt 0.3444824 0.8374023
vt 0.3459473 0.8374023
vt 0.3459473 0.8393555
vt 0.3474121 0.8374023
vt 0.3474121 0.8393555
vt 0.348877 0.8374023
vt 0.348877 0.8393555
vt 0.3505859 0.8374023
vt 0.3505859 0.8393555
vt 0.3520508 0.8374023
vt 0.3520508 0.8393555
vt 0.3535156 0.8374023
vt 0.3535156 0.8393555
vt 0.3549805 0.8374023
vt 0.3549805 0.8393555
vt 0.3564453 0.8374023
vt 0.3564453 0.8393555
vt 0.3579102 0.8374023
vt 0.3579102 0.8393555
vt 0.359375 0.8374023
vt 0.359375 0.8393555
vt 0.1741943 0.1147461
vt 0.1737061 0.1147461
vt 0.1734619 0.1147461
vt 0.1729736 0.1147461
vt 0.1733398 0.1147461
vt 0.1732178 0.1147461
vt 0.1732178 0.1146851
vt 0.1730957 0.1146851
vt 0.1732178 0.1143799
vt 0.1729736 0.1146851
vt 0.1728516 0.1147461
vt 0.1730957 0.1143799
vt 0.1732178 0.1140747
vt 0.1728516 0.1147461
vt 0.1727295 0.1147461
vt 0.1729736 0.1144409
vt 0.1730957 0.1141357
vt 0.1727295 0.1147461
vt 0.1726074 0.1147461
vt 0.1728516 0.1144409
vt 0.1726074 0.1147461
vt 0.1724854 0.1147461
vt 0.1730957 0.1139526
vt 0.1732178 0.1139526
vt 0.1729736 0.1141357
vt 0.1727295 0.1144409
vt 0.1724854 0.1147461
vt 0.1722412 0.1147461
vt 0.1730957 0.1138916
vt 0.1732178 0.1138916
vt 0.1729736 0.1139526
vt 0.1728516 0.1141968
vt 0.1726074 0.114502
vt 0.1723633 0.1147461
vt 0.1721191 0.1147461
vt 0.1729736 0.1139526
vt 0.1728516 0.1140137
vt 0.1728516 0.1139526
vt 0.1726074 0.1139526
vt 0.1733398 0.1138916
vt 0.1727295 0.1139526
vt 0.1727295 0.1140137
vt 0.1727295 0.1141968
vt 0.1726074 0.1140137
vt 0.1726074 0.1141968
vt 0.1721191 0.1138916
vt 0.171875 0.1138916
vt 0.1724854 0.1144409
vt 0.1724854 0.1140137
vt 0.1724854 0.1139526
vt 0.1723633 0.1139526
vt 0.1724854 0.1141968
vt 0.1723633 0.1144409
vt 0.1723633 0.1140137
vt 0.1722412 0.1139526
vt 0.1723633 0.1141968
vt 0.1722412 0.1139526
vt 0.1722412 0.1146851
vt 0.1721191 0.1139526
vt 0.1719971 0.1138916
vt 0.1722412 0.1144409
vt 0.1722412 0.1141357
vt 0.1719971 0.1147461
vt 0.171875 0.1147461
vt 0.1721191 0.1146851
vt 0.1721191 0.1143799
vt 0.1719971 0.1146851
vt 0.1721191 0.1141357
vt 0.1719971 0.1138916
vt 0.171875 0.1138916
vt 0.1719971 0.1143799
vt 0.1719971 0.1140747
vt 0.1717529 0.1147461
vt 0.1716309 0.1147461
vt 0.1717529 0.1146851
vt 0.171875 0.1138916
vt 0.1716309 0.1138306
vt 0.171875 0.1140747
vt 0.171875 0.1143799
vt 0.1716309 0.1146851
vt 0.1716309 0.1138916
vt 0.1715088 0.1138916
vt 0.1716309 0.1140747
vt 0.1716309 0.1143799
vt 0.1715088 0.1138916
vt 0.1713867 0.1138916
vt 0.1713867 0.1139526
vt 0.1715088 0.1140747
vt 0.1713867 0.1140747
vt 0.1713867 0.1143799
vt 0.1715088 0.1143799
vt 0.1713867 0.1146851
vt 0.1715088 0.1146851
vt 0.1715088 0.1147461
vt 0.1716309 0.1147461
vt 0.1729736 0.1147461
vt 0.1728516 0.1147461
vt 0.1727295 0.1147461
vt 0.1724854 0.1147461
vt 0.1726074 0.1147461
vt 0.1722412 0.1147461
vt 0.1721191 0.1147461
vt 0.171875 0.1147461
vt 0.7353516 0.859375
vt 0.7338867 0.8603516
vt 0.7353516 0.859375
vt 0.7363281 0.8579102
vt 0.7363281 0.855957
vt 0.7324219 0.8598633
vt 0.7363281 0.8579102
vt 0.7368164 0.855957
vt 0.7299805 0.8544922
vt 0.7353516 0.8530273
vt 0.7338867 0.8598633
vt 0.7324219 0.8603516
vt 0.7304688 0.859375
vt 0.7363281 0.8544922
vt 0.7363281 0.8544922
vt 0.7353516 0.8530273
vt 0.730957 0.859375
vt 0.7294922 0.8579102
vt 0.7299805 0.8579102
vt 0.7290039 0.855957
vt 0.7294922 0.855957
vt 0.7294922 0.8544922
vt 0.7304688 0.8530273
vt 0.7338867 0.8525391
vt 0.7338867 0.8520508
vt 0.7324219 0.8525391
vt 0.7324219 0.8520508
vt 0.730957 0.8530273
vt 0.3547363 0.8530273
vt 0.3527832 0.8544922
vt 0.3549805 0.8535156
vt 0.3562012 0.8515625
vt 0.3566895 0.8491211
vt 0.3500977 0.8544922
vt 0.3566895 0.8515625
vt 0.3571777 0.8491211
vt 0.3464355 0.8466797
vt 0.3547363 0.8447266
vt 0.3525391 0.8544922
vt 0.3500977 0.8544922
vt 0.3476563 0.8535156
vt 0.3562012 0.8466797
vt 0.3566895 0.8466797
vt 0.3549805 0.8442383
vt 0.3481445 0.8530273
vt 0.3461914 0.8515625
vt 0.3464355 0.8515625
vt 0.345459 0.8491211
vt 0.3459473 0.8491211
vt 0.3461914 0.8466797
vt 0.3476563 0.8442383
vt 0.3525391 0.84375
vt 0.3527832 0.8432617
vt 0.3500977 0.84375
vt 0.3500977 0.8432617
vt 0.3481445 0.8447266
vt 0.7202148 0.8383789
vt 0.7202148 0.8383789
vt 0.7202148 0.8378906
vt 0.7202148 0.8378906
vt 0.7202148 0.8378906
vt 0.7202148 0.8388672
vt 0.7202148 0.8374023
vt 0.7197266 0.8374023
vt 0.7192383 0.8383789
vt 0.7197266 0.8374023
vt 0.7202148 0.8383789
vt 0.7202148 0.8383789
vt 0.7202148 0.8388672
vt 0.7197266 0.8374023
vt 0.7197266 0.8374023
vt 0.7192383 0.8374023
vt 0.7197266 0.8388672
vt 0.7197266 0.8388672
vt 0.7197266 0.8388672
vt 0.7197266 0.8388672
vt 0.7192383 0.8388672
vt 0.7192383 0.8388672
vt 0.7192383 0.8383789
vt 0.7192383 0.8378906
vt 0.7192383 0.8378906
vt 0.7192383 0.8378906
vt 0.71875 0.8383789
vt 0.7192383 0.8383789
vt 0.3564453 0.8496094
vt 0.3569336 0.8496094
vt 0.3562012 0.8466797
vt 0.355957 0.847168
vt 0.3544922 0.8452148
vt 0.3544922 0.8535156
vt 0.3547363 0.8447266
vt 0.3522949 0.84375
vt 0.3461914 0.8515625
vt 0.3498535 0.8442383
vt 0.355957 0.8515625
vt 0.3562012 0.8520508
vt 0.3547363 0.8540039
vt 0.3522949 0.8442383
vt 0.3498535 0.84375
vt 0.3474121 0.8447266
vt 0.3522949 0.8544922
vt 0.3522949 0.8549805
vt 0.3498535 0.8544922
vt 0.3498535 0.8549805
vt 0.3476563 0.8535156
vt 0.3474121 0.8540039
vt 0.3457031 0.8520508
vt 0.3476563 0.8452148
vt 0.3457031 0.8466797
vt 0.3461914 0.847168
vt 0.3452148 0.8496094
vt 0.3457031 0.8496094
vn -0.2724609 -0.953125 0.131958
vn -0.1993408 -0.949707 0.2416992
vn -0.2907715 -0.956543 0.001156807
vn -0.15979 -0.9624023 -0.220459
vn -0.2507324 -0.9599609 -0.1245728
vn 0.09521484 -0.9619141 -0.2561035
vn -0.03637695 -0.9628906 -0.267334
vn -0.15979 -0.9624023 -0.220459
vn -0.8383789 -0.4038086 0.3664551
vn -0.9140625 -0.404541 -0.03146362
vn -0.9047852 0.4243164 -0.03448486
vn -0.8291016 0.4248047 0.3632813
vn -0.5883789 0.4233398 0.6889648
vn -0.597168 -0.4055176 0.6918945
vn -0.2299805 0.420166 0.8779297
vn -0.2390137 -0.4086914 0.8808594
vn 0.1748047 0.4157715 0.8925781
vn 0.1657715 -0.4130859 0.8955078
vn 0.5366211 -0.4177246 0.7329102
vn 0.5458984 0.4111328 0.7299805
vn 0.800293 -0.4216309 0.4257813
vn 0.8095703 0.4072266 0.4228516
vn 0.9047852 -0.4243164 0.03448486
vn 0.9140625 0.404541 0.03146362
vn 0.8291016 -0.4248047 -0.3632813
vn 0.8383789 0.4040527 -0.3664551
vn 0.5883789 -0.4233398 -0.6889648
vn 0.597168 0.4055176 -0.6918945
vn 0.2299805 -0.420166 -0.8779297
vn 0.2390137 0.4086914 -0.8808594
vn -0.1748047 -0.4157715 -0.8925781
vn -0.1657715 0.4130859 -0.8955078
vn -0.5458984 -0.4111328 -0.7299805
vn -0.5366211 0.4177246 -0.7329102
vn -0.8095703 -0.4072266 -0.4228516
vn -0.800293 0.4216309 -0.4257813
vn -0.9140625 -0.404541 -0.03146362
vn -0.9047852 0.4243164 -0.03448486
vn -0.7841797 -0.4204102 -0.4562988
vn -0.5058594 -0.4257813 -0.7504883
vn -0.5039063 0.402832 -0.7641602
vn -0.7822266 0.4084473 -0.4702148
vn -0.9057617 0.4150391 -0.08441162
vn -0.9077148 -0.4135742 -0.07061768
vn -0.8496094 0.4216309 0.3166504
vn -0.8515625 -0.4069824 0.3305664
vn -0.625 0.4267578 0.6538086
vn -0.6269531 -0.4018555 0.6674805
vn -0.2783203 -0.3991699 0.8735352
vn -0.2763672 0.4294434 0.8598633
vn 0.1252441 -0.3996582 0.9082031
vn 0.1271973 0.4291992 0.894043
vn 0.5039063 -0.402832 0.7641602
vn 0.5058594 0.4257813 0.7504883
vn 0.7822266 -0.4084473 0.4702148
vn 0.7841797 0.4204102 0.4562988
vn 0.9057617 -0.4150391 0.08441162
vn 0.9077148 0.4135742 0.07061768
vn 0.8496094 -0.4216309 -0.3166504
vn 0.8515625 0.4069824 -0.3305664
vn 0.625 -0.4267578 -0.6538086
vn 0.6269531 0.4018555 -0.6674805
vn 0.2763672 -0.4294434 -0.8598633
vn 0.2783203 0.3991699 -0.8735352
vn -0.1271973 -0.4291992 -0.894043
vn -0.1252441 0.3996582 -0.9082031
vn -0.5058594 -0.4257813 -0.7504883
vn -0.5039063 0.402832 -0.7641602
vn 0.03265381 0.9990234 0.02891541
vn -0.06848145 0.9975586 -0.003408432
vn -0.06347656 0.9960938 -0.06210327
vn 0.04168701 0.9960938 -0.07684326
vn -0.01441956 0.9956055 -0.0947876
vn 0.01568604 0.9956055 -0.09228516
vn -0.04150391 0.956543 -0.2883301
vn 0.07574463 0.9575195 -0.2783203
vn -0.1002197 0.6977539 -0.7094727
vn 0.177002 0.9594727 -0.2185059
vn 0.05847168 0.9970703 -0.05169678
vn 0.2086182 0.7001953 -0.6831055
vn -0.1361084 0.2028809 -0.9697266
vn 0.2423096 0.9628906 -0.1206665
vn 0.06268311 0.9975586 -0.02178955
vn 0.4753418 0.7055664 -0.5253906
vn 0.2954102 0.2060547 -0.9331055
vn 0.2585449 0.9658203 -0.004173279
vn 0.05340576 0.9985352 0.006958008
vn 0.6474609 0.7138672 -0.2675781
vn 0.2227783 0.96875 0.1078491
vn 0.03265381 0.9990234 0.02891541
vn 0.2714844 -0.4902344 -0.828125
vn -0.1201782 -0.4931641 -0.8618164
vn 0.6679688 0.2139893 -0.7124023
vn 0.6904297 0.722168 0.03936768
vn 0.1418457 0.9707031 0.1932373
vn 0.00440979 0.9990234 0.03964233
vn 0.09521484 -0.9619141 -0.2561035
vn -0.03637695 -0.9628906 -0.267334
vn 0.6098633 -0.4829102 -0.628418
vn 0.9082031 0.2252197 -0.3522949
vn 0.5957031 0.7299805 0.3344727
vn 0.03182983 0.9716797 0.2351074
vn -0.0256958 0.9990234 0.03707886
vn 0.2088623 -0.9594727 -0.1889648
vn 0.828125 -0.4729004 -0.3012695
vn 0.2822266 -0.9560547 -0.0791626
vn 0.2602539 -0.9492188 0.1773682
vn -0.15979 -0.9624023 -0.220459
vn 0.3005371 -0.9526367 0.05160522
vn 0.8828125 -0.4619141 0.0880127
vn 0.9682617 0.2373047 0.07635498
vn 0.7626953 -0.4521484 0.4624023
vn 0.8364258 0.2480469 0.4887695
vn -0.1993408 -0.949707 0.2416992
vn -0.2907715 -0.956543 0.001156807
vn 0.3828125 0.7353516 0.5595703
vn 0.4924316 -0.4455566 0.7475586
vn 0.1694336 -0.9467773 0.2731934
vn 0.04595947 -0.9462891 0.3200684
vn 0.5385742 0.2553711 0.8032227
vn 0.09301758 0.7368164 0.6699219
vn 0.1248779 -0.4436035 0.8876953
vn -0.08563232 -0.9472656 0.3088379
vn 0.1337891 0.2575684 0.9570313
vn -0.2668457 -0.4465332 0.8540039
vn -0.08538818 0.9707031 0.2250977
vn -0.6054688 -0.4536133 0.6542969
vn -0.2724609 -0.953125 0.131958
vn -0.2158203 0.734375 0.6435547
vn -0.2976074 0.2543945 0.9204102
vn -0.05172729 0.9985352 0.02171326
vn -0.06848145 0.9975586 -0.003408432
vn -0.1866455 0.9682617 0.1652832
vn -0.482666 0.7290039 0.4855957
vn -0.2519531 0.965332 0.06738281
vn -0.6704102 0.2463379 0.699707
vn -0.8232422 -0.4638672 0.3271484
vn -0.2907715 -0.956543 0.001156807
vn -0.6547852 0.7207031 0.2277832
vn -0.9106445 0.2352295 0.3395996
vn -0.07263184 0.996582 -0.0333252
vn -0.06347656 0.9960938 -0.06210327
vn -0.2683105 0.9619141 -0.04910278
vn -0.8779297 -0.4748535 -0.06213379
vn -0.2507324 -0.9599609 -0.1245728
vn -0.9707031 0.2230225 -0.08905029
vn -0.6977539 0.7119141 -0.07904053
vn -0.2324219 0.9589844 -0.1611328
vn -0.7583008 -0.4846191 -0.4365234
vn -0.15979 -0.9624023 -0.220459
vn -0.8388672 0.2122803 -0.5014648
vn -0.6030273 0.7045898 -0.3742676
vn -0.4875488 -0.4912109 -0.7216797
vn -0.03637695 -0.9628906 -0.267334
vn -0.1201782 -0.4931641 -0.8618164
vn -0.5410156 0.2050781 -0.815918
vn -0.1361084 0.2028809 -0.9697266
vn -0.1002197 0.6977539 -0.7094727
vn -0.3898926 0.6992188 -0.5991211
vn -0.04150391 0.956543 -0.2883301
vn -0.1514893 0.9570313 -0.246582
vn -0.01441956 0.9956055 -0.0947876
vn -0.04266357 0.9956055 -0.08404541
vn 0.04168701 0.9960938 -0.07684326
vn 0.05847168 0.9970703 -0.05169678
vn 0.06268311 0.9975586 -0.02178955
vn 0.03265381 0.9990234 0.02891541
vn 0.05340576 0.9985352 0.006958008
vn 0.00440979 0.9990234 0.03964233
vn -0.0256958 0.9990234 0.03707886
vn -0.06848145 0.9975586 -0.003408432
vn -0.2290039 0.9335938 0.2753906
vn -0.2299805 0.420166 0.8779297
vn -0.5883789 0.4233398 0.6889648
vn -0.3261719 0.934082 0.1439209
vn -0.3569336 0.934082 -0.01669312
vn 0.07891846 0.9306641 0.3574219
vn -0.8291016 0.4248047 0.3632813
vn -0.9047852 0.4243164 -0.03448486
vn 0.3466797 0.9257813 -0.1506348
vn -0.208252 0.9311523 -0.298584
vn -0.08441162 0.9326172 0.3515625
vn 0.1748047 0.4157715 0.8925781
vn 0.5458984 0.4111328 0.7299805
vn -0.3146973 0.9331055 -0.1746826
vn -0.800293 0.4216309 -0.4257813
vn -0.5366211 0.4177246 -0.7329102
vn 0.2286377 0.9287109 0.291748
vn 0.8095703 0.4072266 0.4228516
vn 0.3352051 0.9272461 0.1678467
vn 0.9140625 0.404541 0.03146362
vn 0.3771973 0.9262695 0.009918213
vn 0.8383789 0.4040527 -0.3664551
vn 0.597168 0.4055176 -0.6918945
vn -0.0585022 0.9296875 -0.3642578
vn -0.1657715 0.4130859 -0.8955078
vn 0.1048584 0.9277344 -0.3581543
vn 0.2390137 0.4086914 -0.8808594
vn 0.2493896 0.9262695 -0.2819824
vn -0.3637695 0.9301758 -0.04681396
vn -0.8496094 0.4216309 0.3166504
vn -0.9057617 0.4150391 -0.08441162
vn -0.3139648 0.9277344 -0.2025146
vn -0.2016602 0.925293 -0.3210449
vn -0.2504883 0.9350586 0.2509766
vn -0.7822266 0.4084473 -0.4702148
vn -0.5039063 0.402832 -0.7641602
vn 0.3181152 0.9326172 0.1713867
vn 0.1140137 0.9238281 -0.3652344
vn -0.3410645 0.9331055 0.1150513
vn -0.625 0.4267578 0.6538086
vn -0.2763672 0.4294434 0.8598633
vn -0.04882813 0.9238281 -0.3791504
vn -0.1252441 0.3996582 -0.9082031
vn 0.2783203 0.3991699 -0.8735352
vn -0.1098022 0.9360352 0.3342285
vn 0.1271973 0.4291992 0.894043
vn 0.05303955 0.9360352 0.3481445
vn 0.5058594 0.4257813 0.7504883
vn 0.2058105 0.9345703 0.2900391
vn 0.7841797 0.4204102 0.4562988
vn 0.9077148 0.4135742 0.07061768
vn 0.2546387 0.9248047 -0.2822266
vn 0.6269531 0.4018555 -0.6674805
vn 0.345459 0.9272461 -0.1461182
vn 0.8515625 0.4069824 -0.3305664
vn 0.3679199 0.9296875 0.01574707
vn -0.3771973 -0.9262695 -0.009918213
vn -0.9140625 -0.404541 -0.03146362
vn -0.8383789 -0.4038086 0.3664551
vn -0.3466797 -0.9257813 0.1506348
vn -0.2493896 -0.9262695 0.2819824
vn -0.2286377 -0.9287109 -0.291748
vn -0.597168 -0.4055176 0.6918945
vn -0.2390137 -0.4086914 0.8808594
vn 0.3261719 -0.934082 -0.1439209
vn 0.0585022 -0.9296875 0.3642578
vn -0.3352051 -0.9272461 -0.1678467
vn -0.8095703 -0.4072266 -0.4228516
vn -0.5458984 -0.4111328 -0.7299805
vn -0.1047974 -0.9277344 0.3581543
vn 0.1657715 -0.4130859 0.8955078
vn 0.5366211 -0.4177246 0.7329102
vn -0.07891846 -0.9306641 -0.3574219
vn -0.1748047 -0.4157715 -0.8925781
vn 0.08441162 -0.9326172 -0.3515625
vn 0.2299805 -0.420166 -0.8779297
vn 0.2290039 -0.9335938 -0.2753906
vn 0.5883789 -0.4233398 -0.6889648
vn 0.8291016 -0.4248047 -0.3632813
vn 0.208252 -0.9311523 0.298584
vn 0.800293 -0.4216309 0.4257813
vn 0.3146973 -0.9331055 0.1746826
vn 0.9047852 -0.4243164 0.03448486
vn 0.3569336 -0.934082 0.01669312
vn -0.2058105 -0.9345703 -0.2900391
vn -0.5058594 -0.4257813 -0.7504883
vn -0.7841797 -0.4204102 -0.4562988
vn -0.3183594 -0.9326172 -0.1713867
vn -0.3681641 -0.9296875 -0.01574707
vn 0.1098022 -0.9360352 -0.3342285
vn -0.9077148 -0.4135742 -0.07061768
vn -0.8515625 -0.4069824 0.3305664
vn 0.3139648 -0.9277344 0.2025146
vn -0.2546387 -0.9248047 0.2819824
vn -0.05303955 -0.9360352 -0.3481445
vn -0.1271973 -0.4291992 -0.894043
vn 0.2763672 -0.4294434 -0.8598633
vn -0.345459 -0.9272461 0.1461182
vn -0.6269531 -0.4018555 0.6674805
vn -0.2783203 -0.3991699 0.8735352
vn 0.2504883 -0.9350586 -0.2509766
vn 0.625 -0.4267578 -0.6538086
vn 0.3410645 -0.9331055 -0.1150513
vn 0.8496094 -0.4216309 -0.3166504
vn 0.3637695 -0.9301758 0.04681396
vn 0.9057617 -0.4150391 0.08441162
vn 0.7822266 -0.4084473 0.4702148
vn -0.1140137 -0.9238281 0.3652344
vn 0.1252441 -0.3996582 0.9082031
vn 0.04882813 -0.9238281 0.3791504
vn 0.5039063 -0.402832 0.7641602
vn 0.2016602 -0.925293 0.3210449
g burger_0
f 3/3/3 2/2/2 1/1/1
f 3/3/3 5/5/5 4/4/4
f 8/8/8 7/7/7 6/6/6
f 11/11/11 10/10/10 9/9/9
f 12/12/12 11/11/11 9/9/9
f 13/13/13 12/12/12 9/9/9
f 14/14/14 13/13/13 9/9/9
f 15/15/15 13/13/13 14/14/14
f 16/16/16 15/15/15 14/14/14
f 17/17/17 15/15/15 16/16/16
f 18/18/18 17/17/17 16/16/16
f 17/17/17 18/18/18 19/19/19
f 20/20/20 17/17/17 19/19/19
f 20/20/20 19/19/19 21/21/21
f 22/22/22 20/20/20 21/21/21
f 22/22/22 21/21/21 23/23/23
f 24/24/24 22/22/22 23/23/23
f 24/24/24 23/23/23 25/25/25
f 26/26/26 24/24/24 25/25/25
f 26/26/26 25/25/25 27/27/27
f 28/28/28 26/26/26 27/27/27
f 28/28/28 27/27/27 29/29/29
f 30/30/30 28/28/28 29/29/29
f 30/30/30 29/29/29 31/31/31
f 32/32/32 30/30/30 31/31/31
f 32/32/32 31/31/31 33/33/33
f 34/34/34 32/32/32 33/33/33
f 34/34/34 33/33/33 35/35/35
f 36/36/36 34/34/34 35/35/35
f 36/36/36 35/35/35 37/37/37
f 38/38/38 36/36/36 37/37/37
f 41/41/41 40/40/40 39/39/39
f 42/42/42 41/41/41 39/39/39
f 43/43/43 42/42/42 39/39/39
f 44/44/44 43/43/43 39/39/39
f 45/45/45 43/43/43 44/44/44
f 46/46/46 45/45/45 44/44/44
f 47/47/47 45/45/45 46/46/46
f 48/48/48 47/47/47 46/46/46
f 47/47/47 48/48/48 49/49/49
f 50/50/50 47/47/47 49/49/49
f 50/50/50 49/49/49 51/51/51
f 52/52/52 50/50/50 51/51/51
f 52/52/52 51/51/51 53/53/53
f 54/54/54 52/52/52 53/53/53
f 54/54/54 53/53/53 55/55/55
f 56/56/56 54/54/54 55/55/55
f 56/56/56 55/55/55 57/57/57
f 58/58/58 56/56/56 57/57/57
f 58/58/58 57/57/57 59/59/59
f 60/60/60 58/58/58 59/59/59
f 60/60/60 59/59/59 61/61/61
f 62/62/62 60/60/60 61/61/61
f 62/62/62 61/61/61 63/63/63
f 64/64/64 62/62/62 63/63/63
f 64/64/64 63/63/63 65/65/65
f 66/66/66 64/64/64 65/65/65
f 66/66/66 65/65/65 67/67/67
f 68/68/68 66/66/66 67/67/67
f 71/71/71 70/70/70 69/69/69
f 72/72/72 71/71/71 69/69/69
f 73/73/73 71/71/71 72/72/72
f 74/74/74 73/73/73 72/72/72
f 75/75/75 73/73/73 74/74/74
f 76/76/76 75/75/75 74/74/74
f 76/76/76 74/74/74 72/72/72
f 77/77/77 75/75/75 76/76/76
f 78/78/78 76/76/76 72/72/72
f 78/78/78 72/72/72 79/79/79
f 80/80/80 77/77/77 76/76/76
f 80/80/80 76/76/76 78/78/78
f 81/81/81 77/77/77 80/80/80
f 82/82/82 78/78/78 79/79/79
f 82/82/82 79/79/79 83/83/83
f 84/84/84 80/80/80 78/78/78
f 84/84/84 78/78/78 82/82/82
f 85/85/85 81/81/81 80/80/80
f 85/85/85 80/80/80 84/84/84
f 86/86/86 82/82/82 83/83/83
f 86/86/86 83/83/83 87/87/87
f 88/88/88 84/84/84 82/82/82
f 88/88/88 82/82/82 86/86/86
f 89/89/89 86/86/86 87/87/87
f 89/89/89 87/87/87 90/90/90
f 85/85/85 91/91/91 81/81/81
f 91/91/91 92/92/92 81/81/81
f 93/93/93 85/85/85 84/84/84
f 84/84/84 88/88/88 93/93/93
f 94/94/94 88/88/88 86/86/86
f 94/94/94 86/86/86 89/89/89
f 95/95/95 89/89/89 90/90/90
f 95/95/95 90/90/90 96/96/96
f 91/91/91 97/97/97 92/92/92
f 97/97/97 98/98/98 92/92/92
f 99/99/99 91/91/91 85/85/85
f 93/93/93 99/99/99 85/85/85
f 88/88/88 100/100/100 93/93/93
f 88/88/88 94/94/94 100/100/100
f 101/101/101 94/94/94 89/89/89
f 101/101/101 89/89/89 95/95/95
f 102/102/102 95/95/95 96/96/96
f 102/102/102 96/96/96 103/103/103
f 104/104/104 97/97/97 91/91/91
f 99/99/99 104/104/104 91/91/91
f 105/105/105 99/99/99 93/93/93
f 100/100/100 105/105/105 93/93/93
f 106/106/106 104/104/104 99/99/99
f 106/106/106 97/97/97 104/104/104
f 105/105/105 106/106/106 99/99/99
f 107/107/107 97/97/97 106/106/106
f 107/107/107 108/108/108 97/97/97
f 109/109/109 106/106/106 105/105/105
f 109/109/109 107/107/107 106/106/106
f 110/110/110 109/109/109 105/105/105
f 110/110/110 105/105/105 100/100/100
f 109/109/109 110/110/110 107/107/107
f 111/111/111 110/110/110 100/100/100
f 94/94/94 111/111/111 100/100/100
f 94/94/94 101/101/101 111/111/111
f 112/112/112 110/110/110 111/111/111
f 110/110/110 112/112/112 107/107/107
f 101/101/101 113/113/113 111/111/111
f 113/113/113 112/112/112 111/111/111
f 108/108/108 107/107/107 114/114/114
f 115/115/115 108/108/108 114/114/114
f 101/101/101 116/116/116 113/113/113
f 116/116/116 101/101/101 95/95/95
f 116/116/116 95/95/95 102/102/102
f 117/117/117 112/112/112 113/113/113
f 107/107/107 112/112/112 118/118/118
f 112/112/112 117/117/117 118/118/118
f 107/107/107 118/118/118 119/119/119
f 114/114/114 107/107/107 119/119/119
f 118/118/118 117/117/117 119/119/119
f 116/116/116 120/120/120 113/113/113
f 120/120/120 117/117/117 113/113/113
f 121/121/121 116/116/116 102/102/102
f 116/116/116 121/121/121 120/120/120
f 117/117/117 122/122/122 119/119/119
f 122/122/122 117/117/117 120/120/120
f 114/114/114 119/119/119 123/123/123
f 119/119/119 122/122/122 123/123/123
f 124/124/124 122/122/122 120/120/120
f 121/121/121 124/124/124 120/120/120
f 122/122/122 125/125/125 123/123/123
f 123/123/123 125/125/125 114/114/114
f 125/125/125 122/122/122 124/124/124
f 121/121/121 102/102/102 126/126/126
f 126/126/126 102/102/102 103/103/103
f 125/125/125 127/127/127 114/114/114
f 128/128/128 114/114/114 127/127/127
f 121/121/121 129/129/129 124/124/124
f 129/129/129 121/121/121 126/126/126
f 130/130/130 125/125/125 124/124/124
f 127/127/127 125/125/125 130/130/130
f 129/129/129 130/130/130 124/124/124
f 126/126/126 103/103/103 131/131/131
f 132/132/132 131/131/131 103/103/103
f 133/133/133 126/126/126 131/131/131
f 126/126/126 133/133/133 129/129/129
f 131/131/131 132/132/132 133/133/133
f 129/129/129 134/134/134 130/130/130
f 133/133/133 134/134/134 129/129/129
f 132/132/132 135/135/135 133/133/133
f 133/133/133 135/135/135 134/134/134
f 134/134/134 136/136/136 130/130/130
f 136/136/136 127/127/127 130/130/130
f 137/137/137 128/128/128 127/127/127
f 138/138/138 128/128/128 137/137/137
f 134/134/134 139/139/139 136/136/136
f 135/135/135 139/139/139 134/134/134
f 136/136/136 140/140/140 127/127/127
f 140/140/140 137/137/137 127/127/127
f 139/139/139 140/140/140 136/136/136
f 132/132/132 141/141/141 135/135/135
f 132/132/132 142/142/142 141/141/141
f 141/141/141 143/143/143 135/135/135
f 135/135/135 143/143/143 139/139/139
f 141/141/141 142/142/142 143/143/143
f 144/144/144 138/138/138 137/137/137
f 145/145/145 138/138/138 144/144/144
f 140/140/140 146/146/146 137/137/137
f 146/146/146 144/144/144 137/137/137
f 140/140/140 139/139/139 147/147/147
f 143/143/143 147/147/147 139/139/139
f 146/146/146 140/140/140 147/147/147
f 142/142/142 148/148/148 143/143/143
f 143/143/143 148/148/148 147/147/147
f 149/149/149 145/145/145 144/144/144
f 150/150/150 145/145/145 149/149/149
f 146/146/146 151/151/151 144/144/144
f 151/151/151 149/149/149 144/144/144
f 146/146/146 147/147/147 152/152/152
f 148/148/148 152/152/152 147/147/147
f 151/151/151 146/146/146 152/152/152
f 153/153/153 150/150/150 149/149/149
f 153/153/153 149/149/149 151/151/151
f 154/154/154 150/150/150 153/153/153
f 155/155/155 154/154/154 153/153/153
f 155/155/155 153/153/153 156/156/156
f 156/156/156 153/153/153 151/151/151
f 157/157/157 155/155/155 156/156/156
f 157/157/157 156/156/156 158/158/158
f 156/156/156 151/151/151 159/159/159
f 156/156/156 159/159/159 158/158/158
f 151/151/151 152/152/152 159/159/159
f 158/158/158 159/159/159 160/160/160
f 159/159/159 152/152/152 161/161/161
f 159/159/159 161/161/161 160/160/160
f 152/152/152 148/148/148 161/161/161
f 160/160/160 161/161/161 162/162/162
f 161/161/161 148/148/148 163/163/163
f 161/161/161 163/163/163 162/162/162
f 148/148/148 142/142/142 163/163/163
f 162/162/162 163/163/163 142/142/142
f 166/166/166 165/165/165 164/164/164
f 167/167/167 166/166/166 164/164/164
f 166/166/166 167/167/167 168/168/168
f 167/167/167 170/170/170 169/169/169
f 167/167/167 171/171/171 170/170/170
f 174/174/174 173/173/173 172/172/172
f 174/174/174 172/172/172 175/175/175
f 176/176/176 175/175/175 172/172/172
f 172/172/172 177/177/177 176/176/176
f 178/178/178 174/174/174 175/175/175
f 178/178/178 175/175/175 176/176/176
f 179/179/179 178/178/178 176/176/176
f 177/177/177 180/180/180 176/176/176
f 180/180/180 181/181/181 176/176/176
f 173/173/173 182/182/182 172/172/172
f 177/177/177 172/172/172 182/182/182
f 173/173/173 183/183/183 182/182/182
f 183/183/183 177/177/177 182/182/182
f 183/183/183 184/184/184 177/177/177
f 179/179/179 176/176/176 185/185/185
f 181/181/181 185/185/185 176/176/176
f 186/186/186 179/179/179 185/185/185
f 186/186/186 185/185/185 181/181/181
f 187/187/187 186/186/186 181/181/181
f 184/184/184 188/188/188 177/177/177
f 188/188/188 184/184/184 189/189/189
f 190/190/190 177/177/177 188/188/188
f 190/190/190 188/188/188 189/189/189
f 180/180/180 177/177/177 190/190/190
f 190/190/190 189/189/189 191/191/191
f 192/192/192 190/190/190 191/191/191
f 192/192/192 180/180/180 190/190/190
f 192/192/192 191/191/191 193/193/193
f 180/180/180 192/192/192 193/193/193
f 180/180/180 193/193/193 194/194/194
f 187/187/187 181/181/181 195/195/195
f 196/196/196 187/187/187 195/195/195
f 181/181/181 197/197/197 195/195/195
f 196/196/196 195/195/195 197/197/197
f 181/181/181 180/180/180 197/197/197
f 198/198/198 196/196/196 197/197/197
f 194/194/194 198/198/198 199/199/199
f 199/199/199 180/180/180 194/194/194
f 198/198/198 197/197/197 199/199/199
f 180/180/180 199/199/199 197/197/197
f 202/202/202 201/201/201 200/200/200
f 202/202/202 200/200/200 203/203/203
f 204/204/204 203/203/203 200/200/200
f 204/204/204 200/200/200 205/205/205
f 206/206/206 202/202/202 203/203/203
f 206/206/206 203/203/203 204/204/204
f 207/207/207 206/206/206 204/204/204
f 204/204/204 205/205/205 208/208/208
f 208/208/208 209/209/209 204/204/204
f 201/201/201 210/210/210 200/200/200
f 200/200/200 210/210/210 205/205/205
f 201/201/201 211/211/211 210/210/210
f 211/211/211 205/205/205 210/210/210
f 211/211/211 212/212/212 205/205/205
f 207/207/207 204/204/204 213/213/213
f 209/209/209 213/213/213 204/204/204
f 214/214/214 207/207/207 213/213/213
f 214/214/214 213/213/213 209/209/209
f 215/215/215 214/214/214 209/209/209
f 212/212/212 216/216/216 205/205/205
f 216/216/216 212/212/212 217/217/217
f 218/218/218 205/205/205 216/216/216
f 218/218/218 216/216/216 217/217/217
f 205/205/205 218/218/218 208/208/208
f 218/218/218 217/217/217 219/219/219
f 220/220/220 218/218/218 219/219/219
f 208/208/208 218/218/218 220/220/220
f 220/220/220 219/219/219 221/221/221
f 208/208/208 220/220/220 221/221/221
f 208/208/208 221/221/221 222/222/222
f 215/215/215 209/209/209 223/223/223
f 224/224/224 215/215/215 223/223/223
f 209/209/209 225/225/225 223/223/223
f 224/224/224 223/223/223 225/225/225
f 209/209/209 208/208/208 225/225/225
f 226/226/226 224/224/224 225/225/225
f 222/222/222 226/226/226 227/227/227
f 227/227/227 208/208/208 222/222/222
f 226/226/226 225/225/225 227/227/227
f 208/208/208 227/227/227 225/225/225
f 230/230/230 229/229/229 228/228/228
f 231/231/231 230/230/230 228/228/228
f 232/232/232 231/231/231 228/228/228
f 232/232/232 228/228/228 233/233/233
f 234/234/234 230/230/230 231/231/231
f 232/232/232 234/234/234 231/231/231
f 235/235/235 234/234/234 232/232/232
f 236/236/236 232/232/232 233/233/233
f 232/232/232 236/236/236 237/237/237
f 238/238/238 228/228/228 229/229/229
f 233/233/233 228/228/228 238/238/238
f 239/239/239 238/238/238 229/229/229
f 233/233/233 238/238/238 239/239/239
f 240/240/240 233/233/233 239/239/239
f 241/241/241 235/235/235 232/232/232
f 241/241/241 232/232/232 237/237/237
f 242/242/242 235/235/235 241/241/241
f 237/237/237 242/242/242 241/241/241
f 243/243/243 242/242/242 237/237/237
f 244/244/244 233/233/233 240/240/240
f 245/245/245 244/244/244 240/240/240
f 246/246/246 233/233/233 244/244/244
f 246/246/246 244/244/244 245/245/245
f 236/236/236 233/233/233 246/246/246
f 247/247/247 246/246/246 245/245/245
f 248/248/248 246/246/246 247/247/247
f 248/248/248 236/236/236 246/246/246
f 249/249/249 248/248/248 247/247/247
f 236/236/236 248/248/248 249/249/249
f 250/250/250 236/236/236 249/249/249
f 251/251/251 243/243/243 237/237/237
f 252/252/252 243/243/243 251/251/251
f 253/253/253 251/251/251 237/237/237
f 253/253/253 252/252/252 251/251/251
f 236/236/236 253/253/253 237/237/237
f 254/254/254 252/252/252 253/253/253
f 250/250/250 254/254/254 255/255/255
f 236/236/236 250/250/250 255/255/255
f 255/255/255 254/254/254 253/253/253
f 253/253/253 236/236/236 255/255/255
f 258/258/258 257/257/257 256/256/256
f 259/259/259 258/258/258 256/256/256
f 260/260/260 259/259/259 256/256/256
f 260/260/260 256/256/256 261/261/261
f 262/262/262 258/258/258 259/259/259
f 260/260/260 262/262/262 259/259/259
f 263/263/263 262/262/262 260/260/260
f 260/260/260 261/261/261 264/264/264
f 265/265/265 260/260/260 264/264/264
f 266/266/266 256/256/256 257/257/257
f 256/256/256 266/266/266 261/261/261
f 267/267/267 266/266/266 257/257/257
f 261/261/261 266/266/266 267/267/267
f 268/268/268 261/261/261 267/267/267
f 269/269/269 263/263/263 260/260/260
f 260/260/260 265/265/265 269/269/269
f 270/270/270 263/263/263 269/269/269
f 265/265/265 270/270/270 269/269/269
f 271/271/271 270/270/270 265/265/265
f 272/272/272 261/261/261 268/268/268
f 273/273/273 272/272/272 268/268/268
f 274/274/274 261/261/261 272/272/272
f 274/274/274 272/272/272 273/273/273
f 264/264/264 261/261/261 274/274/274
f 275/275/275 274/274/274 273/273/273
f 276/276/276 274/274/274 275/275/275
f 276/276/276 264/264/264 274/274/274
f 277/277/277 276/276/276 275/275/275
f 264/264/264 276/276/276 277/277/277
f 278/278/278 264/264/264 277/277/277
f 279/279/279 271/271/271 265/265/265
f 280/280/280 271/271/271 279/279/279
f 281/281/281 279/279/279 265/265/265
f 281/281/281 280/280/280 279/279/279
f 264/264/264 281/281/281 265/265/265
f 282/282/282 280/280/280 281/281/281
f 278/278/278 282/282/282 283/283/283
f 264/264/264 278/278/278 283/283/283
f 283/283/283 282/282/282 281/281/281
f 281/281/281 264/264/264 283/283/283
