g Bus_Ticket
v 0.5882593 -1.876106 3.824767
v 0.7086545 -1.878649 3.935063
v 0.7086545 -1.878649 3.824767
v -2.203977 -1.214848 4.027376
v -1.992936 -1.704494 4.027376
v -2.10352 -1.750341 4.027376
v -2.301051 -1.292469 4.027376
v -2.315493 -1.224177 4.027377
v -2.332613 -1.305554 4.027376
v -2.359943 -1.242141 4.027376
v -1.993295 -1.703662 0.6738787
v -2.204069 -1.214634 0.6738782
v -2.300982 -1.292138 0.6738782
v -2.103847 -1.749094 0.6738787
v -2.605319 -0.0804019 4.027376
v -2.203977 -1.214848 4.027376
v -2.315493 -1.224177 4.027377
v -2.72899 -0.131206 4.027374
v -2.604959 -0.08123589 0.6738772
v -2.728931 -0.1312561 3.603207
v -2.72854 -0.1315789 0.6738763
v -2.60529 -0.08046675 3.603208
v -2.605319 -0.0804019 4.027376
v -2.72899 -0.131206 4.027374
v -2.300982 -1.292138 0.6738782
v -2.301038 -1.292438 3.603208
v -2.10353 -1.750257 3.603208
v -2.103847 -1.749094 0.6738787
v -2.315464 -1.224149 3.603207
v -2.315493 -1.224177 4.027377
v -2.359943 -1.242141 4.027376
v -2.359951 -1.242126 3.603208
v -1.992936 -1.704494 4.027376
v -2.10353 -1.750257 3.603208
v -2.10352 -1.750341 4.027376
v -1.992968 -1.704422 3.603208
v -1.993295 -1.703662 0.6738787
v -2.103847 -1.749094 0.6738787
v -2.204069 -1.214634 0.6738782
v -2.604959 -0.08123589 0.6738772
v -2.72854 -0.1315789 0.6738763
v -2.31529 -1.223899 0.6738791
v -2.300982 -1.292138 0.6738782
v -2.36002 -1.241967 0.6738782
v -2.332723 -1.3053 0.6738782
v -2.359398 -1.074354 2.848576
v -2.359404 -1.074342 1.888176
v -2.292384 -1.0556 1.881958
v -2.292378 -1.055613 2.85578
v -2.564448 -0.2223277 1.881958
v -2.564518 -0.2221661 2.85578
v -2.292378 -1.055613 2.85578
v -2.292384 -1.0556 1.881958
v -2.624931 -0.2562008 2.848576
v -2.359398 -1.074354 2.848576
v -2.292378 -1.055613 2.85578
v -2.564518 -0.2221661 2.85578
v -2.624863 -0.2563586 1.888177
v -2.624931 -0.2562008 2.848576
v -2.564518 -0.2221661 2.85578
v -2.564448 -0.2223277 1.881958
v -2.36002 -1.241967 0.6738782
v -2.359951 -1.242126 3.603208
v -2.332623 -1.305532 3.603208
v -2.332723 -1.3053 0.6738782
v -2.301051 -1.292469 4.027376
v -2.301038 -1.292438 3.603208
v -2.332623 -1.305532 3.603208
v -2.332613 -1.305554 4.027376
v -2.641935 -0.2621727 2.851195
v -2.359398 -1.074354 2.848576
v -2.624931 -0.2562008 2.848576
v -2.375631 -1.082193 2.851195
v -2.657724 -0.2576127 2.870409
v -2.657426 -0.258306 1.859646
v -2.641841 -0.2623916 1.884754
v -2.624931 -0.2562008 2.848576
v -2.624863 -0.2563586 1.888177
v -2.383694 -1.096004 1.859646
v -2.375663 -1.082119 1.884754
v -2.624863 -0.2563586 1.888177
v -2.359404 -1.074342 1.888176
v -2.359404 -1.074342 1.888176
v -2.359398 -1.074354 2.848576
v -2.383461 -1.096542 2.870409
v -2.360949 -1.103492 1.824305
v -2.683071 -0.2520442 1.824301
v -2.683701 -0.2506404 2.897452
v -2.360558 -1.104786 2.897457
v -2.72854 -0.1315789 0.6738763
v -2.728931 -0.1312561 3.603207
v -2.31529 -1.223899 0.6738791
v -2.315464 -1.224149 3.603207
v -2.359404 -1.074342 1.888176
v -2.624863 -0.2563586 1.888177
v -2.564448 -0.2223277 1.881958
v -2.292384 -1.0556 1.881958
v -2.31529 -1.223899 0.6738791
v -2.315464 -1.224149 3.603207
v -2.359951 -1.242126 3.603208
v -2.36002 -1.241967 0.6738782
v -2.332623 -1.305532 3.603208
v -2.301038 -1.292438 3.603208
v -2.300982 -1.292138 0.6738782
v -2.332723 -1.3053 0.6738782
v -2.332623 -1.305532 3.603208
v -2.359951 -1.242126 3.603208
v -2.359943 -1.242141 4.027376
v -2.332613 -1.305554 4.027376
v -2.315464 -1.224149 3.603207
v -2.728931 -0.1312561 3.603207
v -2.72899 -0.131206 4.027374
v -2.315493 -1.224177 4.027377
v -2.10353 -1.750257 3.603208
v -2.301038 -1.292438 3.603208
v -2.301051 -1.292469 4.027376
v -2.10352 -1.750341 4.027376
v -1.469988 -2.390115 4.581967
v 3.094122 -2.041299 4.588051
v -0.9470072 -3.683888 4.588051
v 2.56617 -0.7495465 4.581967
v 2.633078 -0.7223506 4.507736
v 3.151403 -2.018015 4.524501
v 3.150321 -2.018456 4.243434
v 2.631997 -0.7227898 4.232464
v 2.565042 -0.7500048 4.150865
v 3.092999 -2.041755 4.173576
v -1.536896 -2.417312 4.507736
v -1.469988 -2.390115 4.581967
v -0.9470072 -3.683888 4.588051
v -1.004289 -3.707172 4.524501
v -1.535814 -2.416872 4.232464
v -0.9236956 -3.741182 4.524501
v 3.094122 -2.041299 4.588051
v 3.117393 -2.098609 4.524501
v 3.151403 -2.018015 4.524501
v 3.150321 -2.018456 4.243434
v -0.9226122 -3.740742 4.243434
v 3.116311 -2.099049 4.243434
v 3.092999 -2.041755 4.173576
v -0.9458828 -3.683431 4.173576
v 2.565042 -0.7500048 4.150865
v -1.468859 -2.389657 4.150865
v -1.003205 -3.706731 4.243434
v 3.163508 -1.018053 0.002134323
v 3.317778 -0.747879 0.2607393
v 3.355037 -0.7726092 0.002120495
v 3.126528 -0.9928863 0.2607522
v -1.637649 -2.929501 0.25912
v -1.599065 -2.954468 0.0005064011
v -1.907478 -2.912288 0.0003218651
v -1.94558 -2.887402 0.258935
v -2.002542 -2.777267 0.000207901
v -2.040461 -2.752618 0.258821
v -3.367476 0.6353431 0.2565846
v -3.329827 0.6098652 -0.002033234
v 3.126528 -0.9928863 0.2607522
v 3.164905 -0.6768296 0.5559773
v 3.317778 -0.747879 0.2607393
v 2.974909 -0.9197931 0.5559859
v 2.888545 -0.5398483 0.5699859
v 2.698787 -0.7821012 0.5699859
v -1.637649 -2.929501 0.25912
v -1.479406 -2.480403 0.5699859
v -1.581614 -2.771391 0.5549006
v -1.887271 -2.729895 0.5547781
v -1.94558 -2.887402 0.258935
v -1.980826 -2.594882 0.5547023
v -1.784403 -2.439253 0.5699859
v -2.040461 -2.752618 0.258821
v -1.8782 -2.306254 0.5699859
v -3.367476 0.6353431 0.2565846
v -2.965929 0.5911489 0.5699859
v -3.214733 0.5661635 0.5532284
v 1.473734 2.413878 4.696163
v 2.883309 -0.5397561 4.461424
v 2.667902 -0.6476388 4.696163
v 1.703335 2.486833 4.461424
v 2.888545 -0.5398483 0.5699859
v 1.707024 2.49055 0.5699859
v 2.698787 -0.7821012 0.5699859
v 2.883309 -0.5397561 4.461424
v 2.888545 -0.5398483 0.5699859
v 2.699917 -0.7816415 4.461424
v -1.479406 -2.480403 0.5699859
v 2.667902 -0.6476388 4.696163
v -1.480538 -2.480863 4.461424
v -1.784403 -2.439253 0.5699859
v -1.551119 -2.362536 4.696163
v 1.473734 2.413878 4.696163
v -2.745295 0.6989775 4.696163
v -1.780715 -2.435534 4.461424
v -1.8782 -2.306254 0.5699859
v -1.877629 -2.307658 4.461424
v -2.940892 0.4317951 4.461424
v -2.960692 0.5910592 4.461424
v -2.965929 0.5911489 0.5699859
v -2.10352 -1.750341 4.027376
v -2.72899 -0.131206 4.027374
v -2.103847 -1.749094 0.6738787
v -2.72854 -0.1315789 0.6738763
v 1.808841 2.781654 0.5543542
v 1.870214 2.93749 0.2582946
v 3.317778 -0.747879 0.2607393
v 3.164905 -0.6768296 0.5559773
v 2.888545 -0.5398483 0.5699859
v 1.707024 2.49055 0.5699859
v 1.908422 2.912049 -0.0003170967
v 3.355037 -0.7726092 0.002120495
v 3.317778 -0.747879 0.2607393
v 1.870214 2.93749 0.2582946
v -0.6717532 -2.274135 2.358873
v -0.7051744 -2.194583 2.448442
v -0.7051744 -2.194583 2.35882
v -0.6718563 -2.273914 2.448494
v -0.6591622 -2.267826 2.496309
v -0.6921157 -2.189275 2.496259
v -0.6273226 -2.252808 2.531553
v -0.65946 -2.176001 2.531509
v -0.5840949 -2.232521 2.545645
v -0.6151628 -2.157995 2.545607
v -0.225192 -1.999485 2.545607
v -0.203392 -2.05422 2.545585
v -0.1601314 -2.034002 2.531481
v -0.1808943 -1.98148 2.531509
v -0.1282108 -2.019157 2.496226
v -0.1482381 -1.968206 2.496259
v -0.1154069 -2.013304 2.448407
v -0.135179 -1.962898 2.448442
v -0.135179 -1.962898 2.35882
v -0.1153037 -2.013525 2.358786
v 2.443815 -0.9397848 2.359017
v 1.956207 -1.158145 2.358583
v 1.955858 -1.157365 2.448196
v 2.495974 -0.9162917 2.372012
v 2.507656 -0.9104621 2.429236
v 2.439206 -0.9270706 3.772993
v 1.942813 -1.162707 2.496014
v 1.910523 -1.176798 2.531272
v 1.866855 -1.196206 2.545385
v 1.482814 -1.368182 2.545525
v 1.439255 -1.387836 2.531444
v 1.40724 -1.40254 2.496209
v 2.491453 -0.9038101 3.759959
v 2.503517 -0.899006 3.702726
v 0.8052356 -1.672825 2.429205
v 1.394569 -1.408715 2.448401
v 0.8002704 -1.661739 3.702695
v 0.8081051 -1.657632 3.75992
v 0.8434811 -1.641655 3.772922
v 0.8135162 -1.669715 2.371973
v 0.848994 -1.653964 2.358946
v 1.394918 -1.409495 2.358788
v 0.7086545 -1.878649 3.935063
v 0.8319383 -1.833262 3.824767
v 0.7086545 -1.878649 3.824767
v 0.882824 -1.812578 3.843175
v 2.641729 -1.092916 3.935063
v 0.7071481 -1.874944 3.99795
v 0.8572026 -1.803293 3.773652
v 0.8866706 -1.784958 3.785943
v 2.511361 -1.05059 3.785943
v 0.820365 -1.837966 3.743827
v 0.7086545 -1.878649 3.824767
v 0.8472572 -1.800978 3.723252
v 0.7086545 -1.87865 3.743827
v 2.539515 -1.065202 3.843175
v 2.560265 -1.037069 3.773652
v 0.8203655 -1.837965 2.387917
v 0.8472577 -1.800978 2.408494
v 0.8572026 -1.803293 2.358094
v 0.7086549 -1.878649 2.382763
v 0.8319388 -1.833261 2.306979
v 0.7086549 -1.878649 2.306979
v 0.7086549 -1.878649 2.226218
v 0.8564716 -1.82329 2.226218
v 0.882825 -1.812578 2.28857
v 0.8866706 -1.784958 2.345803
v 0.5998331 -1.871401 2.387917
v 0.7086549 -1.878649 2.306979
v 0.5998326 -1.871402 3.743827
v 0.7086545 -1.878649 3.824767
v 0.5882593 -1.876106 3.824767
v 0.5882598 -1.876106 2.306979
v 0.7086549 -1.878649 2.226218
v 0.5645238 -1.885754 2.226218
v 1.769866 -1.4473 2.28857
v 1.754927 -1.427316 2.345803
v 1.77176 -1.446531 2.226218
v 0.8564716 -1.82329 2.226218
v 2.538583 -1.065581 2.28857
v 2.510436 -1.050965 2.345803
v 2.559347 -1.037441 2.358094
v 2.640676 -1.093344 2.226218
v 2.613548 -1.03511 2.306973
v 2.630643 -1.028162 2.387892
v 2.568544 -1.027346 2.408494
v 2.715665 -1.062863 2.244618
v 2.631527 -1.027802 3.743802
v 2.569407 -1.026996 3.723254
v 2.614514 -1.034718 3.824762
v 2.733719 -1.055525 3.835666
v 2.716704 -1.062441 3.916646
v 2.757333 -1.026228 3.968698
v 2.732759 -1.055916 2.325516
v 2.757728 -1.026067 2.193382
v 2.777675 -1.011602 3.885352
v 2.776665 -1.012013 2.275855
v 2.748733 -0.908797 2.226218
v 2.749793 -0.9083659 3.935063
v 2.677586 -1.052285 2.168985
v 1.762364 -1.426324 2.167696
v 2.72616 -0.917972 2.181921
v 0.8495794 -1.807141 2.164471
v 0.7030216 -1.864789 2.162693
v 2.634842 -0.6933104 2.181921
v 2.657415 -0.6841354 2.226218
v 2.658475 -0.6837043 3.935063
v 2.725779 -0.9181265 3.98017
v 2.634461 -0.6934652 3.98017
v 2.684749 -0.9348039 4.005313
v 2.593431 -0.7101423 4.005313
v 0.5682812 -1.533301 4.005313
v 2.678678 -1.051841 3.992297
v 0.6595994 -1.757963 4.005313
v 0.7071481 -1.874944 3.99795
v -1.279546 -2.660732 3.992297
v -1.365548 -2.581121 4.005313
v -1.352267 -2.696649 3.968698
v -1.456866 -2.356459 4.005313
v -1.224419 -2.664382 3.935063
v 0.7086545 -1.878649 3.935063
v -1.40508 -2.597189 3.98017
v -1.496398 -2.372528 3.98017
v -1.430566 -2.607548 3.892935
v -1.521884 -2.382886 3.892935
v -1.520848 -2.382465 2.226218
v -1.378543 -2.700972 3.885352
v -1.42953 -2.607127 2.226218
v -1.403961 -2.596734 2.181921
v -1.495278 -2.372072 2.181921
v -1.351163 -2.6962 2.193382
v -1.377531 -2.70056 2.275855
v -1.316408 -2.701773 3.835665
v -1.299394 -2.694856 3.916646
v -1.315446 -2.701381 2.325516
v -1.19992 -2.709976 3.743802
v -1.182907 -2.703061 3.824762
v -1.107907 -2.672576 3.843175
v 0.5373736 -1.896789 3.843175
v 0.5882593 -1.876106 3.824767
v -1.199033 -2.709616 2.387892
v -1.181938 -2.702668 2.306973
v -1.298352 -2.694434 2.244618
v -1.106974 -2.672197 2.28857
v -1.223365 -2.663953 2.226218
v -1.278452 -2.660288 2.168985
v -0.3142823 -2.270339 2.167743
v -0.3060206 -2.291082 2.226218
v -0.3134708 -2.294111 2.28857
v 0.5645238 -1.885754 2.226218
v 0.5584527 -1.869289 2.16446
v 0.5373741 -1.896789 2.28857
v 0.5882598 -1.876106 2.306979
v 0.7030216 -1.864789 2.162693
v 0.5584527 -1.869289 2.16446
v 0.7086549 -1.878649 2.226218
v 2.776665 -1.012013 2.275855
v 2.777675 -1.011602 3.885352
v 2.749793 -0.9083659 3.935063
v 2.748733 -0.908797 2.226218
v 1.895487 -1.137497 2.531509
v 1.928143 -1.124223 2.496259
v 1.941202 -1.118915 2.448442
v 1.851189 -1.155502 2.545607
v 1.941202 -1.118915 2.35882
v 1.371122 -1.350634 2.35882
v 1.461135 -1.314047 2.545607
v 1.371122 -1.350634 2.448442
v 1.416838 -1.332053 2.531509
v 1.384183 -1.345326 2.496259
v -1.378543 -2.700972 3.885352
v -1.377531 -2.70056 2.275855
v -1.42953 -2.607127 2.226218
v -1.430566 -2.607548 3.892935
v 1.956207 -1.158145 2.358583
v 1.394918 -1.409495 2.358788
v 1.371122 -1.350634 2.35882
v 1.941202 -1.118915 2.35882
v -1.190507 -2.512891 3.759892
v -1.13877 -2.488621 3.772901
v 0.4460397 -1.746382 3.772923
v -1.202182 -2.51853 3.702662
v -1.199896 -2.521278 2.429065
v -0.6591622 -2.267826 2.496309
v -0.6273226 -2.252808 2.531553
v -0.6718563 -2.273914 2.448494
v -1.188026 -2.51589 2.371829
v -0.6717532 -2.274135 2.358873
v -1.136243 -2.491677 2.358806
v -0.5840949 -2.232521 2.545645
v -0.203392 -2.05422 2.545585
v -0.1601314 -2.034002 2.531481
v -0.1282108 -2.019157 2.496226
v -0.1154069 -2.013304 2.448407
v 0.4907031 -1.729493 2.429071
v 0.4811811 -1.729963 3.759901
v 0.4892361 -1.726362 3.702667
v 0.48278 -1.733376 2.371839
v 0.447668 -1.749859 2.358828
v -0.1153037 -2.013525 2.358786
v -0.1153037 -2.013525 2.358786
v -0.6717532 -2.274135 2.358873
v -0.7051744 -2.194583 2.35882
v -0.135179 -1.962898 2.35882
v -0.1808943 -1.98148 2.531509
v -0.1482381 -1.968206 2.496259
v -0.135179 -1.962898 2.448442
v -0.225192 -1.999485 2.545607
v -0.135179 -1.962898 2.35882
v -0.6151628 -2.157995 2.545607
v -0.7051744 -2.194583 2.35882
v -0.7051744 -2.194583 2.448442
v -0.65946 -2.176001 2.531509
v -0.6921157 -2.189275 2.496259
v 1.955858 -1.157365 2.448196
v 1.956207 -1.158145 2.358583
v 1.941202 -1.118915 2.35882
v 1.941202 -1.118915 2.448442
v 1.928143 -1.124223 2.496259
v 1.942813 -1.162707 2.496014
v 1.895487 -1.137497 2.531509
v 1.910523 -1.176798 2.531272
v 1.851189 -1.155502 2.545607
v 1.866855 -1.196206 2.545385
v 1.482814 -1.368182 2.545525
v 1.461135 -1.314047 2.545607
v 1.416838 -1.332053 2.531509
v 1.439255 -1.387836 2.531444
v 1.384183 -1.345326 2.496259
v 1.40724 -1.40254 2.496209
v 1.371122 -1.350634 2.448442
v 1.394569 -1.408715 2.448401
v 1.394918 -1.409495 2.358788
v 1.371122 -1.350634 2.35882
v -1.421212 -2.416405 2.155548
v 2.614944 -0.7758372 2.155548
v 2.877413 -1.414442 2.150857
v -1.163715 -3.057031 2.150857
v -1.49332 -2.445715 2.027136
v -1.229133 -3.080722 2.030366
v -1.48704 -2.443162 1.902034
v -1.134995 -3.120449 2.030366
v 2.901081 -1.479913 2.030366
v 2.940808 -1.385775 2.030366
v 2.933613 -1.391599 1.902231
v 2.899602 -1.472193 1.902231
v 2.876291 -1.414898 1.832372
v -1.13932 -3.113885 1.902231
v -1.162592 -3.056575 1.832372
v 2.613817 -0.7762952 1.820436
v -1.420084 -2.415947 1.820436
v -1.219913 -3.079875 1.902231
v 2.613817 -0.7762952 1.820436
v 2.876291 -1.414898 1.832372
v 2.933613 -1.391599 1.902231
v 2.680772 -0.7490802 1.902034
v 2.940808 -1.385775 2.030366
v 2.687052 -0.7465279 2.027136
v 2.877413 -1.414442 2.150857
v 2.614944 -0.7758372 2.155548
v -1.448098 -2.024505 5.912533
v -1.590916 -1.969897 5.86677
v -1.491289 -1.927038 5.909049
v -1.55725 -2.068612 5.869097
v -1.501642 -2.224147 5.869983
v -1.39251 -2.17998 5.913418
v -1.593167 -2.082636 5.736383
v -1.62669 -1.981295 5.744637
v -1.537537 -2.238232 5.737269
v -1.467715 -2.314484 5.86873
v -1.594838 -2.082737 5.596765
v -1.627212 -1.987729 5.596228
v -1.628668 -1.984407 4.592074
v -1.596333 -2.079403 4.59261
v -1.540686 -2.235049 4.593497
v -1.53919 -2.238383 5.597651
v -1.501899 -2.330334 5.746624
v -1.506512 -2.32532 5.598149
v -1.507985 -2.321951 4.593994
v -1.366538 -2.275964 5.911033
v -1.27777 -2.133378 5.915174
v -1.426744 -2.372326 5.847504
v -1.439831 -2.392757 5.743693
v -1.441129 -2.394012 5.598629
v -1.442587 -2.390621 4.594474
v -1.322351 -2.376924 5.598807
v -1.323824 -2.373555 4.594652
v -1.33001 -2.3785 5.747237
v -1.3365 -2.351252 5.869199
v -1.207383 -2.330745 5.738449
v -1.246518 -2.220889 5.91394
v -1.216883 -2.30394 5.871
v 2.3876 -0.8712726 5.739196
v 2.34831 -0.7614779 5.914688
v 2.316997 -0.6739926 5.915922
v 2.378024 -0.8444984 5.871748
v 2.49686 -0.7950048 5.869998
v 2.508965 -0.819972 5.748036
v 2.472295 -0.7174945 5.911832
v 2.431749 -0.6274261 5.914215
v 2.577374 -0.7467542 5.848339
v 2.571854 -0.674521 5.869572
v 2.607204 -0.6621425 5.747478
v 2.599847 -0.7527497 5.744534
v 2.502185 -0.8242593 5.599603
v 2.607439 -0.6551595 5.599005
v 2.601522 -0.7527981 5.599471
v 2.500651 -0.8209138 4.595448
v 2.599964 -0.7494462 4.595315
v 2.605906 -0.6518145 4.59485
v 2.431749 -0.6274261 5.914215
v 2.571854 -0.674521 5.869572
v 2.472295 -0.7174945 5.911832
v 2.540771 -0.583029 5.870825
v 2.576293 -0.568121 5.738125
v 2.607204 -0.6621425 5.747478
v 2.577546 -0.5670905 5.598508
v 2.607439 -0.6551595 5.599005
v 2.605906 -0.6518145 4.59485
v 2.576052 -0.5637565 4.594353
v 2.520404 -0.4081106 4.593467
v 2.521899 -0.4114442 5.597622
v 2.520662 -0.4125242 5.73724
v 2.48674 -0.3175678 5.597085
v 2.485223 -0.314271 4.592929
v 2.482412 -0.3131022 5.745493
v 2.448653 -0.3299332 5.867611
v 2.485163 -0.4274931 5.86994
v 2.376163 -0.471951 5.913331
v 2.347543 -0.3685689 5.909848
v 2.316997 -0.6739926 5.915922
v 2.261428 -0.5185659 5.915038
v 2.22769 -0.4241047 5.912769
v -1.36714 -1.883516 5.912021
v -1.33334 -1.977952 5.91429
v -1.27777 -2.133378 5.915174
v -1.491289 -1.927038 5.909049
v -1.39251 -2.17998 5.913418
v -1.448098 -2.024505 5.912533
v 2.386324 -0.8685718 4.59543
v 2.502185 -0.8242593 5.599603
v 2.500651 -0.8209138 4.595448
v 2.387819 -0.8719051 5.599585
v 2.508965 -0.819972 5.748036
v 2.3876 -0.8712726 5.739196
v -1.207383 -2.330745 5.738449
v -1.207226 -2.331402 5.598837
v -1.208721 -2.328069 4.594682
v -1.33001 -2.3785 5.747237
v -1.323824 -2.373555 4.594652
v -1.322351 -2.376924 5.598807
v -2.10352 -1.750341 4.027376
v -2.103847 -1.749094 0.6738787
v -2.009739 -1.71007 0.6738787
v -2.009378 -1.710902 4.027376
v -2.72854 -0.1315789 0.6738763
v -2.72899 -0.131206 4.027374
v -2.621761 -0.08680964 4.027376
v -2.621403 -0.08764315 0.6738772
v -2.103847 -1.749094 0.6738787
v -2.72854 -0.1315789 0.6738763
v -2.621403 -0.08764315 0.6738772
v -2.009739 -1.71007 0.6738787
v -2.72899 -0.131206 4.027374
v -2.10352 -1.750341 4.027376
v -2.009378 -1.710902 4.027376
v -2.621761 -0.08680964 4.027376
v -0.3134708 -2.294111 2.28857
v -0.6240062 -2.394276 2.345803
v -0.05401032 -2.162591 2.345803
v -1.097005 -2.642089 2.345803
v -1.106974 -2.672197 2.28857
v 0.5373741 -1.896789 2.28857
v 0.5153485 -1.879685 2.345803
v -1.141481 -2.666524 2.358094
v -1.181938 -2.702668 2.306973
v 0.5492521 -1.872262 2.358094
v 0.5882598 -1.876106 2.306979
v 0.5998331 -1.871401 2.387917
v 0.5547619 -1.863665 2.408494
v -1.199033 -2.709616 2.387892
v -1.155114 -2.665708 2.408494
v -1.155977 -2.666058 3.723254
v -1.19992 -2.709976 3.743802
v 0.5998326 -1.871402 3.743827
v 0.5547615 -1.863665 3.723252
v -1.1424 -2.666897 3.773652
v -1.182907 -2.703061 3.824762
v 0.5492516 -1.872262 3.773652
v 0.5882593 -1.876106 3.824767
v 0.5373736 -1.896789 3.843175
v 0.5153485 -1.879685 3.785943
v -1.107907 -2.672576 3.843175
v -1.097933 -2.642465 3.785943
v -0.05401032 -2.162591 2.345803
v -0.6717532 -2.274135 2.358873
v -0.1153037 -2.013525 2.358786
v 0.447668 -1.749859 2.358828
v -0.6240062 -2.394276 2.345803
v 0.5153485 -1.879685 2.345803
v -1.097005 -2.642089 2.345803
v 0.48278 -1.733376 2.371839
v -1.136243 -2.491677 2.358806
v 0.5492521 -1.872262 2.358094
v -1.141481 -2.666524 2.358094
v 0.4907031 -1.729493 2.429071
v -1.188026 -2.51589 2.371829
v 0.5547619 -1.863665 2.408494
v 0.4892361 -1.726362 3.702667
v 0.5547615 -1.863665 3.723252
v 0.4811811 -1.729963 3.759901
v 0.5492516 -1.872262 3.773652
v 0.4460397 -1.746382 3.772923
v 0.5153485 -1.879685 3.785943
v -1.13877 -2.488621 3.772901
v -1.097933 -2.642465 3.785943
v -1.190507 -2.512891 3.759892
v -1.1424 -2.666897 3.773652
v -1.155114 -2.665708 2.408494
v -1.199896 -2.521278 2.429065
v -1.202182 -2.51853 3.702662
v -1.155977 -2.666058 3.723254
v 1.754927 -1.427316 2.345803
v 1.956207 -1.158145 2.358583
v 2.443815 -0.9397848 2.359017
v 1.394918 -1.409495 2.358788
v 2.510436 -1.050965 2.345803
v 0.8866706 -1.784958 2.345803
v 2.495974 -0.9162917 2.372012
v 0.848994 -1.653964 2.358946
v 2.559347 -1.037441 2.358094
v 0.8572026 -1.803293 2.358094
v 2.507656 -0.9104621 2.429236
v 0.8135162 -1.669715 2.371973
v 2.568544 -1.027346 2.408494
v 2.503517 -0.899006 3.702726
v 2.569407 -1.026996 3.723254
v 2.491453 -0.9038101 3.759959
v 2.560265 -1.037069 3.773652
v 2.439206 -0.9270706 3.772993
v 2.511361 -1.05059 3.785943
v 0.8434811 -1.641655 3.772922
v 0.8866706 -1.784958 3.785943
v 0.8081051 -1.657632 3.75992
v 0.8572026 -1.803293 3.773652
v 0.8472577 -1.800978 2.408494
v 0.8052356 -1.672825 2.429205
v 0.8002704 -1.661739 3.702695
v 0.8472572 -1.800978 3.723252
vt 0.2824707 0.9921875
vt 0.2807617 0.9936523
vt 0.2817383 0.9916992
vt 0.2885742 0.9521484
vt 0.3041992 0.9526367
vt 0.3041992 0.9526367
vt 0.2905273 0.9492188
vt 0.2883301 0.9487305
vt 0.2905273 0.9482422
vt 0.2885742 0.9477539
vt 0.385498 0.7133789
vt 0.385498 0.6518555
vt 0.385498 0.6518555
vt 0.385498 0.7133789
vt 0.2595215 0.9516602
vt 0.2866211 0.9521484
vt 0.2856445 0.949707
vt 0.2595215 0.9516602
vt 0.385498 0.5366211
vt 0.5673828 0.5366211
vt 0.385498 0.5366211
vt 0.5668945 0.5366211
vt 0.5820313 0.5366211
vt 0.5820313 0.5366211
vt 0.3239746 0.8564453
vt 0.3566895 0.8554688
vt 0.3566895 0.8496094
vt 0.3242188 0.8515625
vt 0.2866211 0.956543
vt 0.2897949 0.956543
vt 0.2897949 0.956543
vt 0.286377 0.956543
vt 0.5820313 0.7133789
vt 0.5644531 0.7133789
vt 0.5820313 0.7133789
vt 0.5649414 0.7133789
vt 0.385498 0.7133789
vt 0.385498 0.7133789
vt 0.385498 0.6435547
vt 0.385498 0.5366211
vt 0.385498 0.5366211
vt 0.385498 0.6435547
vt 0.385498 0.6518555
vt 0.385498 0.6435547
vt 0.385498 0.6518555
vt 0.3459473 0.8232422
vt 0.3349609 0.8237305
vt 0.3352051 0.8232422
vt 0.3459473 0.8232422
vt 0.2032471 0.8886719
vt 0.2032471 0.9262695
vt 0.2365723 0.9262695
vt 0.2365723 0.8886719
vt 0.3459473 0.8330078
vt 0.3459473 0.8232422
vt 0.3459473 0.8232422
vt 0.3461914 0.8330078
vt 0.3352051 0.8330078
vt 0.3459473 0.8330078
vt 0.3461914 0.8330078
vt 0.3354492 0.8330078
vt 0.267334 0.9526367
vt 0.3022461 0.9526367
vt 0.302002 0.9541016
vt 0.267334 0.9541016
vt 0.2897949 0.9580078
vt 0.2866211 0.9580078
vt 0.286377 0.9580078
vt 0.2897949 0.9580078
vt 0.3476563 0.8686523
vt 0.3474121 0.8583984
vt 0.3476563 0.8681641
vt 0.3476563 0.8583984
vt 0.3479004 0.8686523
vt 0.3364258 0.8681641
vt 0.3369141 0.8681641
vt 0.3476563 0.8681641
vt 0.3369141 0.8681641
vt 0.3361816 0.8583984
vt 0.3366699 0.8588867
vt 0.3369141 0.8681641
vt 0.3366699 0.8588867
vt 0.3366699 0.8588867
vt 0.3474121 0.8583984
vt 0.3476563 0.8583984
vt 0.3359375 0.8583984
vt 0.3361816 0.8686523
vt 0.3481445 0.8686523
vt 0.3481445 0.8583984
vt 0.3244629 0.8696289
vt 0.3569336 0.8706055
vt 0.3239746 0.8574219
vt 0.3566895 0.8564453
vt 0.3349609 0.8237305
vt 0.3352051 0.8330078
vt 0.3354492 0.8330078
vt 0.3352051 0.8232422
vt 0.267334 0.9526367
vt 0.3022461 0.9526367
vt 0.3022461 0.9526367
vt 0.267334 0.9526367
vt 0.302002 0.9541016
vt 0.3022461 0.9541016
vt 0.267334 0.9541016
vt 0.267334 0.9541016
vt 0.286377 0.9580078
vt 0.286377 0.956543
vt 0.2897949 0.956543
vt 0.2897949 0.9580078
vt 0.2792969 0.9545898
vt 0.293457 0.9541016
vt 0.293457 0.9487305
vt 0.2790527 0.9492188
vt 0.2724609 0.9550781
vt 0.2785645 0.9545898
vt 0.2783203 0.9492188
vt 0.2722168 0.9492188
vt 0.7016602 0.9106445
vt 0.7319336 0.9106445
vt 0.7041016 0.9106445
vt 0.7290039 0.9106445
vt 0.7294922 0.9086914
vt 0.7324219 0.9086914
vt 0.7324219 0.9003906
vt 0.7294922 0.8999023
vt 0.7290039 0.8974609
vt 0.7319336 0.8979492
vt 0.7011719 0.9086914
vt 0.7016602 0.9106445
vt 0.7041016 0.9106445
vt 0.7036133 0.9086914
vt 0.7011719 0.8999023
vt 0.7041016 0.9086914
vt 0.7319336 0.9106445
vt 0.7319336 0.9086914
vt 0.7324219 0.9086914
vt 0.7324219 0.9003906
vt 0.7041016 0.9003906
vt 0.7319336 0.9003906
vt 0.7319336 0.8979492
vt 0.7041016 0.8979492
vt 0.7290039 0.8974609
vt 0.7016602 0.8974609
vt 0.7036133 0.9003906
vt 0.5454102 0.8881836
vt 0.5458984 0.9189453
vt 0.5463867 0.8881836
vt 0.5449219 0.9189453
vt 0.5209961 0.9189453
vt 0.5209961 0.8881836
vt 0.5195313 0.8881836
vt 0.5195313 0.918457
vt 0.519043 0.8881836
vt 0.519043 0.918457
vt 0.512207 0.918457
vt 0.512207 0.8881836
vt 0.5449219 0.8959961
vt 0.5454102 0.9086914
vt 0.5458984 0.8959961
vt 0.5444336 0.9086914
vt 0.5439453 0.9091797
vt 0.5429688 0.9091797
vt 0.5209961 0.8959961
vt 0.5219727 0.9091797
vt 0.5214844 0.9086914
vt 0.5195313 0.9086914
vt 0.5195313 0.8959961
vt 0.519043 0.9086914
vt 0.5200195 0.9091797
vt 0.519043 0.8959961
vt 0.5195313 0.9091797
vt 0.512207 0.8959961
vt 0.5141602 0.9091797
vt 0.5131836 0.9086914
vt 0.4804688 0.9326172
vt 0.4907227 0.9306641
vt 0.4892578 0.9326172
vt 0.4821777 0.9306641
vt 0.4909668 0.9042969
vt 0.4821777 0.9042969
vt 0.489502 0.9042969
vt 0.4907227 0.9306641
vt 0.4909668 0.9042969
vt 0.489502 0.9306641
vt 0.4589844 0.9042969
vt 0.4892578 0.9326172
vt 0.4589844 0.9306641
vt 0.4567871 0.9042969
vt 0.4584961 0.9326172
vt 0.4804688 0.9326172
vt 0.449707 0.9326172
vt 0.4567871 0.9306641
vt 0.4560547 0.9042969
vt 0.4560547 0.9306641
vt 0.4482422 0.9306641
vt 0.447998 0.9306641
vt 0.4482422 0.9042969
vt 0.4543457 0.9277344
vt 0.4499512 0.9277344
vt 0.4543457 0.9052734
vt 0.4499512 0.9052734
vt 0.5385742 0.9086914
vt 0.5385742 0.8959961
vt 0.5458984 0.8959961
vt 0.5454102 0.9086914
vt 0.5439453 0.9091797
vt 0.5380859 0.9091797
vt 0.5390625 0.8881836
vt 0.5463867 0.8881836
vt 0.5458984 0.9189453
vt 0.5385742 0.918457
vt 0.2271729 0.8857422
vt 0.2277832 0.8847656
vt 0.2264404 0.8852539
vt 0.2277832 0.8857422
vt 0.2281494 0.8857422
vt 0.2285156 0.8852539
vt 0.2285156 0.8857422
vt 0.2290039 0.8857422
vt 0.2286377 0.8862305
vt 0.229248 0.8862305
vt 0.2294922 0.8901367
vt 0.2287598 0.8896484
vt 0.2285156 0.8901367
vt 0.229126 0.8911133
vt 0.2280273 0.890625
vt 0.2283936 0.8916016
vt 0.2276611 0.890625
vt 0.2275391 0.8916016
vt 0.2264404 0.890625
vt 0.2270508 0.8901367
vt 0.3632813 0.9223633
vt 0.3527832 0.9223633
vt 0.3527832 0.9204102
vt 0.364502 0.921875
vt 0.3649902 0.9204102
vt 0.3630371 0.8930664
vt 0.3522949 0.9189453
vt 0.3515625 0.9179688
vt 0.3503418 0.9179688
vt 0.3400879 0.9179688
vt 0.3388672 0.918457
vt 0.3381348 0.9189453
vt 0.364502 0.8935547
vt 0.3647461 0.8950195
vt 0.3232422 0.9208984
vt 0.3376465 0.9204102
vt 0.3232422 0.8950195
vt 0.3232422 0.8935547
vt 0.3242188 0.8935547
vt 0.3234863 0.9223633
vt 0.3244629 0.9223633
vt 0.3376465 0.9223633
vt 0.2807617 0.9936523
vt 0.2790527 0.9921875
vt 0.2807617 0.9907227
vt 0.2785645 0.9921875
vt 0.2683105 0.9936523
vt 0.2807617 0.9941406
vt 0.2788086 0.9916992
vt 0.2785645 0.9916992
vt 0.2697754 0.9916992
vt 0.2792969 0.9912109
vt 0.2797852 0.9916992
vt 0.2788086 0.9912109
vt 0.2807617 0.9897461
vt 0.2695313 0.9921875
vt 0.2692871 0.9916992
vt 0.279541 0.9697266
vt 0.2790527 0.9697266
vt 0.2790527 0.96875
vt 0.2810059 0.9707031
vt 0.2792969 0.9682617
vt 0.2810059 0.9697266
vt 0.2800293 0.9667969
vt 0.2792969 0.9677734
vt 0.2788086 0.9682617
vt 0.2788086 0.96875
vt 0.2824707 0.9697266
vt 0.2810059 0.9697266
vt 0.2822266 0.9912109
vt 0.2807617 0.9907227
vt 0.2824707 0.9921875
vt 0.2827148 0.9682617
vt 0.2819824 0.9667969
vt 0.282959 0.9677734
vt 0.2741699 0.9682617
vt 0.2741699 0.96875
vt 0.2739258 0.9667969
vt 0.2785645 0.9667969
vt 0.2697754 0.9682617
vt 0.2700195 0.96875
vt 0.2695313 0.96875
vt 0.2687988 0.9667969
vt 0.2692871 0.9682617
vt 0.2692871 0.9692383
vt 0.2695313 0.9692383
vt 0.2683105 0.9667969
vt 0.269043 0.9907227
vt 0.2692871 0.9907227
vt 0.269043 0.9921875
vt 0.2678223 0.9926758
vt 0.2680664 0.9936523
vt 0.2675781 0.9941406
vt 0.2680664 0.9677734
vt 0.2678223 0.9663086
vt 0.267334 0.9926758
vt 0.2678223 0.9677734
vt 0.2678223 0.9667969
vt 0.267334 0.9931641
vt 0.2683105 0.9658203
vt 0.2739258 0.9663086
vt 0.2678223 0.9658203
vt 0.2790527 0.9663086
vt 0.2805176 0.9663086
vt 0.2678223 0.9658203
vt 0.2678223 0.9667969
vt 0.267334 0.9931641
vt 0.267334 0.9941406
vt 0.267334 0.9941406
vt 0.2678223 0.9941406
vt 0.2678223 0.9941406
vt 0.2807617 0.9946289
vt 0.2680664 0.9941406
vt 0.2807617 0.9946289
vt 0.2807617 0.9941406
vt 0.293457 0.9946289
vt 0.2937012 0.9946289
vt 0.2939453 0.9946289
vt 0.2937012 0.9946289
vt 0.2932129 0.9941406
vt 0.2807617 0.9936523
vt 0.2941895 0.9946289
vt 0.2941895 0.9946289
vt 0.2941895 0.9931641
vt 0.2941895 0.9931641
vt 0.2944336 0.9672852
vt 0.2941895 0.9931641
vt 0.2944336 0.9672852
vt 0.2944336 0.9663086
vt 0.2944336 0.9663086
vt 0.2944336 0.9663086
vt 0.2944336 0.9677734
vt 0.2937012 0.9926758
vt 0.2937012 0.9936523
vt 0.2939453 0.9682617
vt 0.2927246 0.9912109
vt 0.2924805 0.9921875
vt 0.2919922 0.9921875
vt 0.282959 0.9921875
vt 0.2824707 0.9921875
vt 0.2927246 0.9697266
vt 0.2927246 0.96875
vt 0.2939453 0.9667969
vt 0.2922363 0.9682617
vt 0.293457 0.9667969
vt 0.2937012 0.9663086
vt 0.2880859 0.9663086
vt 0.2880859 0.9667969
vt 0.2875977 0.9682617
vt 0.2834473 0.9667969
vt 0.2834473 0.9663086
vt 0.2832031 0.9682617
vt 0.2827148 0.9682617
vt 0.2814941 0.9663086
vt 0.282959 0.9663086
vt 0.2819824 0.9667969
vt 0.2678223 0.9677734
vt 0.267334 0.9926758
vt 0.267334 0.9931641
vt 0.2678223 0.9667969
vt 0.1593018 0.9541016
vt 0.1571045 0.9550781
vt 0.1547852 0.9550781
vt 0.1594238 0.9536133
vt 0.1503906 0.9545898
vt 0.1503906 0.9462891
vt 0.1594238 0.9472656
vt 0.1547852 0.9462891
vt 0.1593018 0.9467773
vt 0.1571045 0.9462891
vt 0.2941895 0.9931641
vt 0.2944336 0.9677734
vt 0.2944336 0.9672852
vt 0.2941895 0.9931641
vt 0.2264404 0.8911133
vt 0.2264404 0.8857422
vt 0.2259521 0.8857422
vt 0.225708 0.8901367
vt 0.3217773 0.890625
vt 0.3234863 0.890625
vt 0.3654785 0.8901367
vt 0.3215332 0.8920898
vt 0.3217773 0.9243164
vt 0.3354492 0.9223633
vt 0.3361816 0.9213867
vt 0.3349609 0.9238281
vt 0.3220215 0.9257813
vt 0.3349609 0.9257813
vt 0.3237305 0.9262695
vt 0.3376465 0.9208984
vt 0.3486328 0.9208984
vt 0.3500977 0.9213867
vt 0.3508301 0.9223633
vt 0.3513184 0.9233398
vt 0.3669434 0.9238281
vt 0.3664551 0.890625
vt 0.3666992 0.8920898
vt 0.3666992 0.925293
vt 0.3657227 0.9257813
vt 0.3513184 0.9257813
vt 0.2270508 0.8901367
vt 0.2271729 0.8857422
vt 0.2264404 0.8852539
vt 0.2264404 0.890625
vt 0.1590576 0.9550781
vt 0.1567383 0.9555664
vt 0.1541748 0.9555664
vt 0.1593018 0.9545898
vt 0.1495361 0.9555664
vt 0.1593018 0.9477539
vt 0.1495361 0.9462891
vt 0.1541748 0.9462891
vt 0.1590576 0.9467773
vt 0.1567383 0.9462891
vt 0.2252197 0.8916016
vt 0.2264404 0.8911133
vt 0.225708 0.8901367
vt 0.2252197 0.890625
vt 0.2247314 0.890625
vt 0.2244873 0.8911133
vt 0.2243652 0.890625
vt 0.223877 0.8911133
vt 0.2242432 0.8901367
vt 0.2235107 0.8901367
vt 0.2235107 0.8857422
vt 0.2242432 0.8862305
vt 0.2244873 0.8857422
vt 0.223999 0.8852539
vt 0.2248535 0.8857422
vt 0.2246094 0.8847656
vt 0.2253418 0.8857422
vt 0.2254639 0.8847656
vt 0.2264404 0.8857422
vt 0.2259521 0.8857422
vt 0.7011719 0.9160156
vt 0.7329102 0.9160156
vt 0.734375 0.9155273
vt 0.7026367 0.9155273
vt 0.7006836 0.9111328
vt 0.7021484 0.9111328
vt 0.7006836 0.8984375
vt 0.703125 0.9111328
vt 0.734375 0.9111328
vt 0.7348633 0.9111328
vt 0.7348633 0.8979492
vt 0.734375 0.8979492
vt 0.734375 0.8955078
vt 0.703125 0.8979492
vt 0.7026367 0.8955078
vt 0.7329102 0.8955078
vt 0.7011719 0.8955078
vt 0.7021484 0.8979492
vt 0.7329102 0.8955078
vt 0.734375 0.8955078
vt 0.7348633 0.8979492
vt 0.7333984 0.8984375
vt 0.7348633 0.9111328
vt 0.7333984 0.9111328
vt 0.734375 0.9155273
vt 0.7329102 0.9160156
vt 0.5068359 0.9848633
vt 0.5048828 0.984375
vt 0.5063477 0.9848633
vt 0.5053711 0.984375
vt 0.5058594 0.984375
vt 0.5073242 0.9848633
vt 0.5048828 0.9814453
vt 0.5043945 0.9814453
vt 0.5053711 0.9814453
vt 0.5063477 0.984375
vt 0.5048828 0.9785156
vt 0.5043945 0.9785156
vt 0.5043945 0.9580078
vt 0.5048828 0.9580078
vt 0.5053711 0.9580078
vt 0.5053711 0.9785156
vt 0.5058594 0.9814453
vt 0.5058594 0.9785156
vt 0.5058594 0.9580078
vt 0.5078125 0.9848633
vt 0.5087891 0.9853516
vt 0.5068359 0.9838867
vt 0.5068359 0.9814453
vt 0.5068359 0.9785156
vt 0.5068359 0.9580078
vt 0.5083008 0.9785156
vt 0.5083008 0.9580078
vt 0.5083008 0.9814453
vt 0.5083008 0.984375
vt 0.5097656 0.9814453
vt 0.5092773 0.9848633
vt 0.5097656 0.984375
vt 0.5537109 0.9814453
vt 0.5532227 0.9853516
vt 0.5532227 0.9853516
vt 0.5537109 0.984375
vt 0.5551758 0.984375
vt 0.5556641 0.9819336
vt 0.5551758 0.9848633
vt 0.5546875 0.9853516
vt 0.5561523 0.9838867
vt 0.5561523 0.984375
vt 0.5566406 0.9819336
vt 0.5566406 0.9814453
vt 0.5551758 0.9785156
vt 0.5566406 0.9785156
vt 0.5566406 0.9785156
vt 0.5551758 0.9580078
vt 0.5566406 0.9580078
vt 0.5566406 0.9580078
vt 0.5546875 0.9853516
vt 0.5561523 0.984375
vt 0.5551758 0.9848633
vt 0.5556641 0.984375
vt 0.5561523 0.9814453
vt 0.5566406 0.9819336
vt 0.5561523 0.9785156
vt 0.5566406 0.9785156
vt 0.5566406 0.9580078
vt 0.5561523 0.9580078
vt 0.5556641 0.9580078
vt 0.5556641 0.9785156
vt 0.5556641 0.9814453
vt 0.5551758 0.9785156
vt 0.5551758 0.9580078
vt 0.5551758 0.9814453
vt 0.5546875 0.984375
vt 0.5551758 0.984375
vt 0.5537109 0.9848633
vt 0.5532227 0.9848633
vt 0.5532227 0.9853516
vt 0.5522461 0.9853516
vt 0.5517578 0.9848633
vt 0.5078125 0.9848633
vt 0.5083008 0.9853516
vt 0.5087891 0.9853516
vt 0.5063477 0.9848633
vt 0.5073242 0.9848633
vt 0.5068359 0.9848633
vt 0.9643555 0.3999023
vt 0.9863281 0.5776367
vt 0.9863281 0.3999023
vt 0.9643555 0.5776367
vt 0.987793 0.6040039
vt 0.9643555 0.6025391
vt 0.05184937 0.6025391
vt 0.05184937 0.5776367
vt 0.05178833 0.3999023
vt 0.02854919 0.6040039
vt 0.02986145 0.3999023
vt 0.02990723 0.5776367
vt 0.4543457 0.9277344
vt 0.4543457 0.9052734
vt 0.4550781 0.9052734
vt 0.4550781 0.9277344
vt 0.4499512 0.9052734
vt 0.4499512 0.9277344
vt 0.4504395 0.9277344
vt 0.4504395 0.9052734
vt 0.4543457 0.9052734
vt 0.4499512 0.9052734
vt 0.4504395 0.9052734
vt 0.4550781 0.9052734
vt 0.4499512 0.9277344
vt 0.4543457 0.9277344
vt 0.4550781 0.9277344
vt 0.4504395 0.9277344
vt 0.2800293 0.9858398
vt 0.28125 0.9853516
vt 0.2788086 0.9858398
vt 0.2832031 0.9853516
vt 0.2834473 0.9853516
vt 0.2763672 0.9863281
vt 0.2763672 0.9858398
vt 0.2834473 0.9853516
vt 0.2836914 0.9853516
vt 0.276123 0.9858398
vt 0.276123 0.9863281
vt 0.2758789 0.9858398
vt 0.276123 0.9858398
vt 0.2839355 0.9848633
vt 0.2834473 0.9848633
vt 0.282959 0.9799805
vt 0.2832031 0.9799805
vt 0.2753906 0.980957
vt 0.2756348 0.980957
vt 0.282959 0.9799805
vt 0.2832031 0.9794922
vt 0.2756348 0.980957
vt 0.2753906 0.9804688
vt 0.2756348 0.9804688
vt 0.2756348 0.9804688
vt 0.2827148 0.9794922
vt 0.2827148 0.9799805
vt 0.2856445 0.9501953
vt 0.286377 0.9550781
vt 0.2866211 0.9506836
vt 0.2875977 0.9472656
vt 0.2854004 0.9550781
vt 0.2868652 0.9462891
vt 0.2858887 0.9584961
vt 0.2875977 0.9472656
vt 0.2868652 0.9575195
vt 0.2871094 0.9462891
vt 0.2861328 0.9589844
vt 0.2880859 0.9472656
vt 0.2868652 0.9580078
vt 0.2875977 0.9462891
vt 0.2937012 0.9477539
vt 0.2944336 0.9467773
vt 0.2939453 0.9477539
vt 0.2946777 0.9472656
vt 0.2941895 0.9477539
vt 0.2949219 0.9472656
vt 0.2941895 0.9575195
vt 0.295166 0.9584961
vt 0.2941895 0.9580078
vt 0.2949219 0.9589844
vt 0.2866211 0.9589844
vt 0.2873535 0.9580078
vt 0.2937012 0.9580078
vt 0.2944336 0.9589844
vt 0.2827148 0.9536133
vt 0.2836914 0.9521484
vt 0.2836914 0.9506836
vt 0.2836914 0.9550781
vt 0.2832031 0.9501953
vt 0.2834473 0.9580078
vt 0.2839355 0.9501953
vt 0.2839355 0.9575195
vt 0.2832031 0.949707
vt 0.2836914 0.9580078
vt 0.2841797 0.9501953
vt 0.2841797 0.9575195
vt 0.2836914 0.949707
vt 0.2888184 0.9501953
vt 0.2893066 0.949707
vt 0.2890625 0.9501953
vt 0.2895508 0.949707
vt 0.2890625 0.9506836
vt 0.2897949 0.9501953
vt 0.2888184 0.9575195
vt 0.2895508 0.9580078
vt 0.2888184 0.9575195
vt 0.2893066 0.9580078
vt 0.2839355 0.9584961
vt 0.2844238 0.9575195
vt 0.2885742 0.9575195
vt 0.2890625 0.9580078
vn 0.1100464 -0.9765625 -0.1837158
vn 0.3200684 -0.9438477 0.08087158
vn 0.1593018 -0.9873047 -0.007480621
vn 0 0 1
vn 0 0 1
vn 0 0 1
vn 0 0 1
vn 0 0 1
vn -1.579523E-05 0 1
vn -1.579523E-05 0 1
vn 0 0 -1
vn 0 0 -1
vn 0 0 -1
vn 0 0 -1
vn 0 0 1
vn 0 0 1
vn 0 0 1
vn 0 0 1
vn -0.3786621 0.9257813 -0.0002191067
vn -0.3793945 0.925293 -0.0001916885
vn -0.3786621 0.9257813 -0.0002191067
vn -0.3793945 0.925293 -0.0001916885
vn -0.3798828 0.9248047 -0.0001641512
vn -0.3798828 0.9248047 -0.0001641512
vn -0.9179688 -0.3962402 -5.811453E-05
vn -0.9179688 -0.3962402 -5.805492E-05
vn -0.9179688 -0.3962402 -5.805492E-05
vn -0.9179688 -0.3962402 -5.811453E-05
vn -0.3747559 0.9272461 4.756451E-05
vn -0.3747559 0.9272461 3.701448E-05
vn -0.3747559 0.9272461 3.701448E-05
vn -0.3747559 0.9272461 4.756451E-05
vn 0.3830566 -0.9238281 -0.0001884699
vn 0.3823242 -0.9238281 -0.0002667904
vn 0.3830566 -0.9238281 -0.0001884699
vn 0.3823242 -0.9238281 -0.0002667904
vn 0.3815918 -0.9243164 -0.0003452301
vn 0.3815918 -0.9243164 -0.0003452301
vn 0 0 -1
vn 0 0 -1
vn 0 0 -1
vn 0 0 -1
vn 0 0 -1
vn 0 0 -1
vn 0 0 -1
vn -0.3535156 0.9355469 3.21269E-05
vn -0.3549805 0.9350586 3.242493E-05
vn -0.2692871 0.9628906 1.448393E-05
vn -0.2692871 0.9628906 1.448393E-05
vn -0.9506836 -0.3103027 0
vn -0.9506836 -0.3103027 0
vn -0.9506836 -0.3103027 0
vn -0.9506836 -0.3103027 0
vn -0.01132965 -0.003631592 -1
vn -0.0226593 -0.007316589 -0.9995117
vn 0.09906006 0.03225708 -0.9946289
vn 0.09906006 0.03225708 -0.9946289
vn 0.4111328 -0.9116211 0.0001969337
vn 0.4125977 -0.9111328 0.0001966953
vn 0.4907227 -0.8710938 0.0001790524
vn 0.4907227 -0.8710938 0.0001790524
vn -0.918457 -0.395752 0
vn -0.918457 -0.395752 0
vn -0.918457 -0.395752 0
vn -0.918457 -0.395752 0
vn 0.3830566 -0.9238281 -5.602837E-05
vn 0.3830566 -0.9238281 -7.134676E-05
vn 0.3830566 -0.9238281 -7.134676E-05
vn 0.3830566 -0.9238281 -5.602837E-05
vn -0.3588867 -0.7924805 -0.4926758
vn -0.0226593 -0.007316589 -0.9995117
vn -0.01132965 -0.003631592 -1
vn -0.8208008 0.3408203 -0.4587402
vn -0.6655273 -0.7319336 -0.1452637
vn -0.671875 -0.7304688 0.1225586
vn -0.3850098 -0.8085938 0.4448242
vn 0.4125977 -0.9111328 0.0001966953
vn 0.4111328 -0.9116211 0.0001969337
vn -0.7954102 -0.59375 0.1204834
vn -0.8476563 0.3374023 0.4099121
vn -0.03768921 -0.01219177 0.9990234
vn -0.05032349 -0.01629639 0.9985352
vn -0.3549805 0.9350586 3.242493E-05
vn -0.3535156 0.9355469 3.21269E-05
vn -0.8129883 -0.5639648 -0.1442871
vn -0.9086914 -0.416748 0.008377075
vn -0.9042969 -0.4262695 0.008628845
vn -0.8964844 -0.4428711 -0.01103973
vn -0.9018555 -0.4321289 -0.01101685
vn -0.9355469 -0.3537598 -8.577108E-05
vn -0.9355469 -0.3537598 -8.589029E-05
vn -0.9355469 -0.3537598 -8.577108E-05
vn -0.9355469 -0.3537598 -8.589029E-05
vn -0.05032349 -0.01629639 0.9985352
vn -0.03768921 -0.01219177 0.9990234
vn 0.08563232 0.02787781 0.9960938
vn 0.08563232 0.02787781 0.9960938
vn -0.3745117 0.9272461 5.811453E-05
vn -0.3747559 0.9272461 4.756451E-05
vn -0.3747559 0.9272461 4.756451E-05
vn -0.3745117 0.9272461 5.811453E-05
vn 0.3830566 -0.9238281 -7.134676E-05
vn 0.3830566 -0.9238281 -7.134676E-05
vn 0.3830566 -0.9238281 -8.672476E-05
vn 0.3830566 -0.9238281 -8.672476E-05
vn -0.918457 -0.395752 0
vn -0.918457 -0.395752 0
vn -0.918457 -0.395752 0
vn -0.918457 -0.395752 0
vn -0.9355469 -0.3537598 -8.589029E-05
vn -0.9355469 -0.3537598 -8.589029E-05
vn -0.9355469 -0.3537598 -8.606911E-05
vn -0.9355469 -0.3537598 -8.606911E-05
vn -0.9179688 -0.3962402 -5.805492E-05
vn -0.9179688 -0.3962402 -5.805492E-05
vn -0.9179688 -0.3962402 -5.805492E-05
vn -0.9179688 -0.3962402 -5.805492E-05
vn -0.3620605 -0.1420898 0.9213867
vn 0.4506836 -0.1882324 0.8725586
vn -0.1916504 -0.4492188 0.8725586
vn 0.3586426 0.1508789 0.9213867
vn 0.8603516 0.348877 0.3713379
vn 0.9418945 0.01293945 0.3359375
vn 0.9482422 0.009017944 -0.317627
vn 0.8681641 0.3442383 -0.357666
vn 0.3835449 0.1407471 -0.9125977
vn 0.4748535 -0.2052002 -0.855957
vn -0.8598633 -0.3503418 0.3713379
vn -0.3620605 -0.1420898 0.9213867
vn -0.1916504 -0.4492188 0.8725586
vn -0.6835938 -0.6479492 0.3359375
vn -0.8623047 -0.3591309 -0.357666
vn 0.01272583 -0.9418945 0.3354492
vn 0.4506836 -0.1882324 0.8725586
vn 0.6479492 -0.6835938 0.3354492
vn 0.9418945 0.01293945 0.3359375
vn 0.9482422 0.009017944 -0.317627
vn 0.01358795 -0.9482422 -0.317627
vn 0.6518555 -0.6889648 -0.317627
vn 0.4748535 -0.2052002 -0.855957
vn -0.1970215 -0.4782715 -0.855957
vn 0.3835449 0.1407471 -0.9125977
vn -0.3730469 -0.1668701 -0.9125977
vn -0.6855469 -0.6552734 -0.317627
vn 0.6015625 -0.7822266 0.1624756
vn 0.9414063 -0.1379395 0.3071289
vn 0.9741211 -0.1628418 0.1566162
vn 0.581543 -0.7539063 0.3063965
vn 0.09368896 -0.9550781 0.2807617
vn 0.1450195 -0.9824219 0.1160278
vn -0.4816895 -0.8759766 0.0133667
vn -0.519043 -0.8212891 0.2371826
vn -0.8720703 -0.4821777 -0.08148193
vn -0.8671875 -0.4711914 0.1608887
vn -0.925293 -0.3620605 0.1149292
vn -0.9262695 -0.3630371 -0.1001587
vn 0.581543 -0.7539063 0.3063965
vn 0.6289063 -0.05673218 0.7753906
vn 0.9414063 -0.1379395 0.3071289
vn 0.3439941 -0.4934082 0.7988281
vn 0.05422974 0.003168106 0.9985352
vn 0.02836609 -0.04708862 0.9985352
vn 0.09368896 -0.9550781 0.2807617
vn 0.01215363 -0.05496216 0.9985352
vn 0.09680176 -0.5947266 0.7978516
vn -0.331543 -0.5107422 0.793457
vn -0.519043 -0.8212891 0.2371826
vn -0.5385742 -0.2729492 0.7973633
vn -0.03076172 -0.04141235 0.9985352
vn -0.8671875 -0.4711914 0.1608887
vn -0.06292725 -0.02832031 0.9975586
vn -0.925293 -0.3620605 0.1149292
vn -0.06793213 -0.02578735 0.9975586
vn -0.6416016 -0.2502441 0.7250977
vn 0.3479004 0.1357422 0.9277344
vn 0.9399414 -0.09667969 0.3271484
vn 0.4768066 -0.2976074 0.8271484
vn 0.8564453 0.3339844 0.394043
vn 0.9897461 -0.1419678 0.0009756088
vn 0.9316406 0.3632813 0.001237869
vn 0.6054688 -0.7958984 0.0002387762
vn 0.9399414 -0.09667969 0.3271484
vn 0.9897461 -0.1419678 0.0009756088
vn 0.5786133 -0.7802734 0.2369385
vn 0.1218262 -0.9926758 0.0002387762
vn 0.4768066 -0.2976074 0.8271484
vn 0.130127 -0.9628906 0.2369385
vn -0.5942383 -0.8041992 0.0003306866
vn -0.1217041 -0.5322266 0.8378906
vn 0.3479004 0.1357422 0.9277344
vn -0.3105469 -0.1210938 0.9428711
vn -0.5942383 -0.7167969 0.3649902
vn -0.9067383 -0.421875 -0.01269531
vn -0.8388672 -0.3603516 0.407959
vn -0.8603516 -0.3056641 0.4082031
vn -0.8422852 -0.2954102 0.4511719
vn -0.9501953 -0.310791 -0.02333069
vn -0.9199219 -0.3916016 0.009346008
vn -0.9418945 -0.3359375 0.007694244
vn -0.9150391 -0.3776855 -0.1420898
vn -0.9316406 -0.3334961 -0.1447754
vn 0.7407227 0.2910156 0.6054688
vn 0.9077148 0.3564453 0.222168
vn 0.9414063 -0.1379395 0.3071289
vn 0.6289063 -0.05673218 0.7753906
vn 0.05422974 0.003168106 0.9985352
vn 0.06732178 0.02658081 0.9975586
vn 0.9262695 0.3637695 0.09985352
vn 0.9741211 -0.1628418 0.1566162
vn 0.9414063 -0.1379395 0.3071289
vn 0.9077148 0.3564453 0.222168
vn 0.921875 0.387207 5.501509E-05
vn 0.9125977 0.3830566 -0.1424561
vn 0.921875 0.387207 5.501509E-05
vn 0.9125977 0.3830566 -0.1419678
vn 0.7949219 0.3330078 -0.5073242
vn 0.793457 0.3325195 -0.5092773
vn 0.4763184 0.1988525 -0.8564453
vn 0.4726563 0.1973877 -0.8588867
vn 0.1356201 0.05630493 -0.9892578
vn 0.1328125 0.05511475 -0.9897461
vn -0.133667 -0.05288696 -0.9897461
vn -0.1282959 -0.05075073 -0.9902344
vn -0.4692383 -0.1849365 -0.8632813
vn -0.4768066 -0.1878662 -0.8588867
vn -0.7983398 -0.3137207 -0.5141602
vn -0.8007813 -0.3146973 -0.5092773
vn -0.9213867 -0.3615723 -0.1431885
vn -0.9213867 -0.3615723 -0.1425781
vn -0.9306641 -0.3652344 -8.73208E-05
vn -0.9306641 -0.3652344 -8.73208E-05
vn 0.4086914 -0.9125977 0.009536743
vn 0.4086914 -0.9125977 0.009536743
vn 0.4086914 -0.9125977 0.009536743
vn 0.4086914 -0.9125977 0.009536743
vn 0.4086914 -0.9125977 0.009536743
vn 0.4086914 -0.9125977 0.009536743
vn 0.4086914 -0.9125977 0.009536743
vn 0.4086914 -0.9125977 0.009536743
vn 0.4086914 -0.9125977 0.009536743
vn 0.4086914 -0.9125977 0.009536743
vn 0.4086914 -0.9125977 0.009536743
vn 0.4086914 -0.9125977 0.009536743
vn 0.4086914 -0.9125977 0.009536743
vn 0.4086914 -0.9125977 0.009536743
vn 0.4086914 -0.9125977 0.009536743
vn 0.4086914 -0.9125977 0.009536743
vn 0.4086914 -0.9125977 0.009536743
vn 0.4086914 -0.9125977 0.009536743
vn 0.4086914 -0.9125977 0.009536743
vn 0.4086914 -0.9125977 0.009536743
vn 0.4086914 -0.9125977 0.009536743
vn 0.4086914 -0.9125977 0.009536743
vn 0.3200684 -0.9438477 0.08087158
vn 0.4421387 -0.8945313 -0.06542969
vn 0.1593018 -0.9873047 -0.007480621
vn 0.4099121 -0.8681641 -0.2800293
vn 0.3520508 -0.9331055 -0.07196045
vn 0.3666992 -0.9023438 0.2261963
vn 0.7827148 -0.470459 -0.4074707
vn 0.3884277 -0.5151367 -0.7641602
vn 0.1472168 -0.6040039 -0.7832031
vn 0.5605469 -0.8276367 -0.03186035
vn 0.1593018 -0.9873047 -0.007480621
vn 0.980957 -0.1791992 -0.07421875
vn 0.1473389 -0.9892578 -0.00749588
vn 0.3168945 -0.8793945 -0.3549805
vn -0.1258545 -0.8842773 -0.449707
vn 0.5605469 -0.8276367 0.03186035
vn 0.9804688 -0.182373 0.07519531
vn 0.78125 -0.4748535 0.4055176
vn 0.1477051 -0.9887695 0.007965088
vn 0.4399414 -0.8950195 0.07354736
vn 0.1697998 -0.9853516 0.02096558
vn 0.1943359 -0.9746094 -0.1104736
vn 0.3652344 -0.9199219 -0.1439209
vn 0.4104004 -0.8984375 0.1552734
vn 0.3796387 -0.5200195 0.7651367
vn -0.07281494 -0.996582 0.04037476
vn 0.1697998 -0.9853516 0.02096558
vn -0.07281494 -0.996582 -0.04034424
vn 0.1593018 -0.9873047 -0.007480621
vn 0.1100464 -0.9765625 -0.1837158
vn 0.08935547 -0.9907227 0.1003418
vn 0.1943359 -0.9746094 -0.1104736
vn 0.2381592 -0.9624023 -0.1296387
vn 0.3830566 -0.8666992 0.3193359
vn 0.2434082 -0.5390625 0.8061523
vn 0.3869629 -0.9204102 -0.05410767
vn 0.3652344 -0.9199219 -0.1439209
vn 0.3134766 -0.8427734 0.4377441
vn 0.1572266 -0.5966797 0.7871094
vn -0.1217651 -0.8857422 0.4482422
vn 0.3383789 -0.9365234 0.09356689
vn 0.05725098 -0.9394531 0.3381348
vn -0.1068115 -0.9926758 0.05514526
vn -0.4855957 -0.8676758 0.105835
vn 0.3735352 -0.9277344 -0.005641937
vn -0.104187 -0.9931641 -0.04995728
vn -0.4880371 -0.8666992 -0.1039429
vn 0.07556152 -0.9570313 -0.2797852
vn 0.3129883 -0.9492188 -0.03430176
vn 0.395752 -0.9179688 0.01843262
vn 0.7451172 -0.3723145 0.5537109
vn 0.3012695 -0.953125 0.0333252
vn 0.8286133 -0.4770508 -0.293457
vn 0.9584961 -0.2653809 0.1021729
vn 0.9589844 -0.2661133 -0.09790039
vn 0.9296875 0.2861328 -0.2316895
vn 0.9282227 0.2839355 0.2404785
vn 0.3862305 -0.8583984 -0.3378906
vn 0.3574219 -0.8686523 -0.3427734
vn 0.8759766 0.2502441 -0.4121094
vn 0.3562012 -0.890625 -0.2827148
vn 0.1914063 -0.949707 -0.2478027
vn 0.8115234 0.329834 -0.4819336
vn 0.8969727 0.3647461 -0.2491455
vn 0.8950195 0.3637695 0.2575684
vn 0.6894531 0.1660156 0.7050781
vn 0.6533203 0.265625 0.7089844
vn 0.2502441 0.01602173 0.9682617
vn 0.2365723 0.09613037 0.9667969
vn 0 0 1
vn 0.3288574 -0.5317383 0.7802734
vn 0.01652527 -0.04067993 0.9990234
vn 0.03302002 -0.08123779 0.9960938
vn 0.1333008 -0.6113281 0.7802734
vn -0.196167 -0.1661377 0.9663086
vn -0.2993164 -0.7851563 0.5419922
vn -0.2437744 -0.09906006 0.9648438
vn 0.3249512 -0.9033203 0.2797852
vn 0.3200684 -0.9438477 0.08087158
vn -0.6650391 -0.3674316 0.6499023
vn -0.7250977 -0.2946777 0.6225586
vn -0.8896484 -0.4306641 0.1524658
vn -0.9155273 -0.3720703 0.1518555
vn -0.890625 -0.3620605 -0.2753906
vn -0.515625 -0.8496094 0.1105347
vn -0.8583984 -0.4438477 -0.2575684
vn -0.7802734 -0.4282227 -0.4558105
vn -0.7861328 -0.3195801 -0.5288086
vn -0.2429199 -0.9179688 -0.314209
vn -0.5014648 -0.8579102 -0.1106567
vn -0.005825043 -0.9995117 0.03701782
vn 0.1646729 -0.9643555 0.2070313
vn -0.01351929 -0.9990234 -0.03637695
vn 0.3085938 -0.9511719 -0.01615906
vn 0.2861328 -0.9521484 0.1070557
vn 0.4086914 -0.9082031 -0.09136963
vn 0.3393555 -0.9204102 -0.1949463
vn 0.1100464 -0.9765625 -0.1837158
vn 0.3066406 -0.9516602 0.01256561
vn 0.2756348 -0.9477539 -0.1607666
vn 0.1481934 -0.965332 -0.2156982
vn 0.4135742 -0.9091797 -0.04598999
vn 0.2958984 -0.8588867 -0.418457
vn 0.3215332 -0.8842773 -0.338623
vn 0.3737793 -0.8618164 -0.3432617
vn 0.3913574 -0.8818359 -0.2626953
vn 0.3964844 -0.9125977 0.09741211
vn 0.2381592 -0.9624023 -0.1296387
vn 0.2249756 -0.9326172 -0.2822266
vn 0.3637695 -0.921875 0.1335449
vn 0.08935547 -0.9907227 0.1003418
vn 0.1914063 -0.949707 -0.2478027
vn 0.2249756 -0.9326172 -0.2822266
vn 0.1943359 -0.9746094 -0.1104736
vn 0.9589844 -0.2661133 -0.09790039
vn 0.9584961 -0.2653809 0.1021729
vn 0.9282227 0.2839355 0.2404785
vn 0.9296875 0.2861328 -0.2316895
vn 0.3764648 -0.9262695 0
vn 0.3764648 -0.9262695 0
vn 0.3764648 -0.9262695 0
vn 0.3764648 -0.9262695 0
vn 0.3764648 -0.9262695 0
vn 0.3764648 -0.9262695 0
vn 0.3764648 -0.9262695 0
vn 0.3764648 -0.9262695 0
vn 0.3764648 -0.9262695 0
vn 0.3764648 -0.9262695 0
vn -0.515625 -0.8496094 0.1105347
vn -0.5014648 -0.8579102 -0.1106567
vn -0.8583984 -0.4438477 -0.2575684
vn -0.8896484 -0.4306641 0.1524658
vn 0.02528381 -0.05361938 0.9980469
vn 0.02359009 -0.05465698 0.9980469
vn 0.001160622 -0.002296448 1
vn 0.001160622 -0.002296448 1
vn 0.4240723 -0.9057617 0.002714157
vn 0.4240723 -0.9057617 0.002714157
vn 0.4240723 -0.9057617 0.002714157
vn 0.4240723 -0.9057617 0.002714157
vn 0.4240723 -0.9057617 0.002716064
vn 0.4240723 -0.9057617 0.002716064
vn 0.4240723 -0.9057617 0.002716064
vn 0.4240723 -0.9057617 0.002716064
vn 0.4240723 -0.9057617 0.002716064
vn 0.4240723 -0.9057617 0.002716064
vn 0.4240723 -0.9057617 0.002716064
vn 0.4240723 -0.9057617 0.002714157
vn 0.4240723 -0.9057617 0.002714157
vn 0.4240723 -0.9057617 0.002714157
vn 0.4240723 -0.9057617 0.002714157
vn 0.4240723 -0.9057617 0.002716064
vn 0.4240723 -0.9057617 0.002716064
vn 0.4240723 -0.9057617 0.002714157
vn 0.4240723 -0.9057617 0.002714157
vn 0.4240723 -0.9057617 0.002716064
vn 0.4240723 -0.9057617 0.002716064
vn 0.4240723 -0.9057617 0.002716064
vn 0.02388 -0.05184937 0.9985352
vn 0.02580261 -0.05535889 0.9980469
vn 1.174212E-05 0.0001479387 1
vn 1.174212E-05 0.0001479387 1
vn 0.3764648 -0.9262695 0
vn 0.3764648 -0.9262695 -2.193451E-05
vn 0.3764648 -0.9262695 0
vn 0.3764648 -0.9262695 0
vn 0.3764648 -0.9262695 0
vn 0.3764648 -0.9262695 0
vn 0.3764648 -0.9262695 0
vn 0.3764648 -0.9262695 0
vn 0.3764648 -0.9262695 0
vn 0.3764648 -0.9262695 2.509356E-05
vn -0.925293 -0.3520508 -0.142334
vn -0.934082 -0.3566895 -0.0002684593
vn -0.934082 -0.3566895 -0.0002684593
vn -0.9248047 -0.3520508 -0.1431885
vn -0.8051758 -0.3039551 -0.5097656
vn -0.8032227 -0.3032227 -0.5126953
vn -0.4812012 -0.1789551 -0.8583984
vn -0.4741211 -0.1762695 -0.862793
vn -0.1367188 -0.04806519 -0.9892578
vn -0.1309814 -0.04589844 -0.9902344
vn 0.1351318 0.05648804 -0.9892578
vn 0.1312256 0.05493164 -0.9897461
vn 0.4731445 0.1912842 -0.8598633
vn 0.4785156 0.1934814 -0.8564453
vn 0.7973633 0.3217773 -0.5107422
vn 0.7993164 0.3227539 -0.5068359
vn 0.9179688 0.3706055 -0.1427002
vn 0.9179688 0.3706055 -0.1412354
vn 0.9272461 0.3745117 0.0001766682
vn 0.9272461 0.3745117 0.0001766682
vn -0.4550781 -0.1906738 0.8696289
vn 0.4589844 0.1809082 0.8696289
vn 0.5585938 -0.2386475 0.7944336
vn -0.2337646 -0.5605469 0.7944336
vn -0.8984375 -0.3720703 0.2330322
vn -0.7109375 -0.6713867 0.2086182
vn -0.8520508 -0.3569336 -0.3823242
vn 0.01716614 -0.9785156 0.2055664
vn 0.6704102 -0.7128906 0.2055664
vn 0.9780273 0.01483917 0.2087402
vn 0.9399414 0.001656532 -0.3408203
vn 0.6499023 -0.6791992 -0.3408203
vn 0.4750977 -0.2052002 -0.8554688
vn 0.008033752 -0.9399414 -0.3408203
vn -0.1972656 -0.4785156 -0.8554688
vn 0.3833008 0.1405029 -0.9130859
vn -0.3725586 -0.166748 -0.9130859
vn -0.6748047 -0.6547852 -0.3408203
vn 0.3833008 0.1405029 -0.9130859
vn 0.4750977 -0.2052002 -0.8554688
vn 0.9399414 0.001656532 -0.3408203
vn 0.859375 0.3388672 -0.3823242
vn 0.9780273 0.01483917 0.2087402
vn 0.9033203 0.3603516 0.2330322
vn 0.5585938 -0.2386475 0.7944336
vn 0.4589844 0.1809082 0.8696289
vn -0.1762695 -0.04879761 0.9829102
vn -0.690918 -0.2318115 0.6845703
vn -0.1914063 -0.04589844 0.9804688
vn -0.6923828 -0.2380371 0.6811523
vn -0.6884766 -0.2484131 0.6816406
vn -0.1695557 -0.0645752 0.9833984
vn -0.934082 -0.3256836 0.1453857
vn -0.9345703 -0.3186035 0.1599121
vn -0.9291992 -0.3395996 0.1451416
vn -0.5952148 -0.4416504 0.6713867
vn -0.9443359 -0.3286133 0.006645203
vn -0.9472656 -0.3205566 0.00743866
vn -0.9467773 -0.3222656 0.0003223419
vn -0.9443359 -0.3295898 0.0003032684
vn -0.9389648 -0.3442383 0.0002467632
vn -0.9384766 -0.3452148 0.006576538
vn -0.8378906 -0.5253906 0.1470947
vn -0.8466797 -0.5322266 0.00485611
vn -0.8476563 -0.5302734 -0.0005340576
vn -0.08551025 -0.2724609 0.9584961
vn -0.005672455 -0.007488251 1
vn -0.2712402 -0.8208008 0.5024414
vn -0.3305664 -0.9355469 0.1240845
vn -0.3269043 -0.9448242 0.000723362
vn -0.3291016 -0.9443359 -0.002698898
vn 0.2565918 -0.9663086 0.0004515648
vn 0.2565918 -0.9663086 -0.00361824
vn 0.2531738 -0.9609375 0.1096802
vn 0.1513672 -0.7705078 0.6191406
vn 0.369873 -0.9228516 0.1074829
vn 0.08074951 -0.2171631 0.9726563
vn 0.2927246 -0.7314453 0.6162109
vn 0.3779297 -0.9194336 0.1074829
vn 0.09320068 -0.2126465 0.9726563
vn 0.009246826 -0.002225876 1
vn 0.2995605 -0.7285156 0.6157227
vn 0.4250488 -0.6645508 0.6147461
vn 0.4858398 -0.8671875 0.1087036
vn 0.2541504 -0.1489258 0.9555664
vn 0.1719971 0.05773926 0.9833984
vn 0.7543945 -0.4294434 0.4960938
vn 0.7446289 0.04641724 0.6655273
vn 0.9804688 0.1329346 0.1447754
vn 0.8720703 -0.4743652 0.1193237
vn 0.487793 -0.8730469 0.0003919601
vn 0.9912109 0.131958 0.004264832
vn 0.8754883 -0.4831543 0.0003273487
vn 0.4875488 -0.8730469 -0.003652573
vn 0.8764648 -0.4814453 -0.002954483
vn 0.9912109 0.1339111 -0.001065254
vn 0.1719971 0.05773926 0.9833984
vn 0.7446289 0.04641724 0.6655273
vn 0.2541504 -0.1489258 0.9555664
vn 0.6899414 0.2445068 0.6816406
vn 0.934082 0.326416 0.1445313
vn 0.9804688 0.1329346 0.1447754
vn 0.9448242 0.328125 0.006000519
vn 0.9912109 0.131958 0.004264832
vn 0.9912109 0.1339111 -0.001065254
vn 0.9443359 0.3291016 -0.0003216267
vn 0.9389648 0.34375 -0.000264883
vn 0.9384766 0.3447266 0.006080627
vn 0.9291992 0.3405762 0.1450195
vn 0.9355469 0.3527832 0.006877899
vn 0.9365234 0.3508301 -0.000246048
vn 0.9248047 0.3461914 0.1584473
vn 0.6914063 0.262207 0.6733398
vn 0.6860352 0.2548828 0.6816406
vn 0.1658936 0.07373047 0.9833984
vn 0.1838379 0.08795166 0.9790039
vn 0.009246826 -0.002225876 1
vn 0.001559258 0.01657104 1
vn -0.0009307861 0.02616882 0.9995117
vn -0.01774597 0.02003479 0.9995117
vn -0.01335144 0.01129913 1
vn -0.005672455 -0.007488251 1
vn -0.1914063 -0.04589844 0.9804688
vn -0.1695557 -0.0645752 0.9833984
vn -0.1762695 -0.04879761 0.9829102
vn 0.3803711 -0.9248047 -0.003643036
vn 0.487793 -0.8730469 0.0003919601
vn 0.4875488 -0.8730469 -0.003652573
vn 0.3808594 -0.9248047 0.001110077
vn 0.4858398 -0.8671875 0.1087036
vn 0.3779297 -0.9194336 0.1074829
vn 0.369873 -0.9228516 0.1074829
vn 0.3713379 -0.9287109 0.001112938
vn 0.3718262 -0.9282227 -0.003641129
vn 0.2531738 -0.9609375 0.1096802
vn 0.2565918 -0.9663086 -0.00361824
vn 0.2565918 -0.9663086 0.0004515648
vn -0.3847656 0.9228516 0.0003256798
vn -0.3847656 0.9228516 0.0003256798
vn -0.3847656 0.9228516 0.0003256798
vn -0.3847656 0.9228516 0.0003256798
vn 0.3811035 -0.9248047 0.0002121925
vn 0.3811035 -0.9248047 0.0002121925
vn 0.3811035 -0.9248047 0.0002121925
vn 0.3811035 -0.9248047 0.0002121925
vn 0 0 1
vn 0 0 1
vn 0 0 1
vn 0 0 1
vn 0 0 -1
vn 0 0 -1
vn 0 0 -1
vn 0 0 -1
vn 0.3964844 -0.9125977 0.09741211
vn 0.2276611 -0.4682617 0.8535156
vn 0.2756348 -0.5825195 0.7646484
vn 0.3383789 -0.4970703 0.7988281
vn 0.4135742 -0.9091797 -0.04598999
vn 0.3637695 -0.921875 0.1335449
vn 0.1164551 -0.6450195 0.7553711
vn 0.7084961 -0.5429688 0.4511719
vn 0.2756348 -0.9477539 -0.1607666
vn -0.2316895 -0.8828125 0.4084473
vn 0.08935547 -0.9907227 0.1003418
vn -0.07281494 -0.996582 0.04037476
vn -0.5791016 -0.8120117 0.074646
vn 0.3066406 -0.9516602 0.01256561
vn 0.9550781 -0.2770996 0.1047363
vn 0.9555664 -0.276123 -0.1034546
vn 0.3085938 -0.9511719 -0.01615906
vn -0.07281494 -0.996582 -0.04034424
vn -0.5791016 -0.8120117 -0.07452393
vn 0.7089844 -0.5419922 -0.451416
vn 0.2861328 -0.9521484 0.1070557
vn -0.2324219 -0.8828125 -0.4084473
vn 0.1100464 -0.9765625 -0.1837158
vn 0.3393555 -0.9204102 -0.1949463
vn 0.1070557 -0.621582 -0.7758789
vn 0.4086914 -0.9082031 -0.09136963
vn 0.348877 -0.5283203 -0.7739258
vn 0.2756348 -0.5825195 0.7646484
vn 0.02580261 -0.05535889 0.9980469
vn 0.02388 -0.05184937 0.9985352
vn -0.1135254 -0.1518555 0.9819336
vn 0.2276611 -0.4682617 0.8535156
vn 0.1164551 -0.6450195 0.7553711
vn 0.3383789 -0.4970703 0.7988281
vn -0.6782227 -0.3918457 0.621582
vn 0.1396484 -0.05142212 0.9887695
vn -0.2316895 -0.8828125 0.4084473
vn 0.7084961 -0.5429688 0.4511719
vn -0.8964844 -0.4372559 0.0737915
vn 0.6918945 0.1437988 0.7075195
vn -0.5791016 -0.8120117 0.074646
vn -0.8964844 -0.4372559 -0.07415771
vn -0.5791016 -0.8120117 -0.07452393
vn -0.6777344 -0.3898926 -0.6230469
vn -0.2324219 -0.8828125 -0.4084473
vn -0.1142578 -0.1512451 -0.9819336
vn 0.1070557 -0.621582 -0.7758789
vn 0.1365967 -0.04684448 -0.9897461
vn 0.348877 -0.5283203 -0.7739258
vn 0.690918 0.1472168 -0.7080078
vn 0.7089844 -0.5419922 -0.451416
vn 0.9550781 -0.2770996 0.1047363
vn 0.9526367 0.2834473 0.1088867
vn 0.9526367 0.2849121 -0.1077271
vn 0.9555664 -0.276123 -0.1034546
vn 0.2434082 -0.5390625 0.8061523
vn 0.02528381 -0.05361938 0.9980469
vn -0.05728149 -0.140625 0.9882813
vn 0.02359009 -0.05465698 0.9980469
vn 0.1572266 -0.5966797 0.7871094
vn 0.3796387 -0.5200195 0.7651367
vn -0.5991211 -0.4013672 0.6928711
vn 0.1864014 -0.0378418 0.9819336
vn -0.1217651 -0.8857422 0.4482422
vn 0.78125 -0.4748535 0.4055176
vn -0.8759766 -0.4707031 0.1070557
vn 0.7553711 0.1760254 0.6308594
vn -0.4855957 -0.8676758 0.105835
vn -0.8774414 -0.4675293 -0.1074219
vn -0.4880371 -0.8666992 -0.1039429
vn -0.6020508 -0.3898926 -0.6967773
vn -0.1258545 -0.8842773 -0.449707
vn -0.06140137 -0.1351318 -0.9887695
vn 0.1472168 -0.6040039 -0.7832031
vn 0.1855469 -0.03201294 -0.9819336
vn 0.3884277 -0.5151367 -0.7641602
vn 0.7490234 0.1875 -0.6357422
vn 0.7827148 -0.470459 -0.4074707
vn 0.9804688 -0.182373 0.07519531
vn 0.949707 0.3041992 0.07366943
vn 0.9482422 0.3085938 -0.07403564
vn 0.980957 -0.1791992 -0.07421875
g Bus_Ticket_0
f 3/3/3 2/2/2 1/1/1
f 6/6/6 5/5/5 4/4/4
f 7/7/7 6/6/6 4/4/4
f 8/8/8 7/7/7 4/4/4
f 9/9/9 7/7/7 8/8/8
f 10/10/10 9/9/9 8/8/8
f 13/13/13 12/12/12 11/11/11
f 14/14/14 13/13/13 11/11/11
f 17/17/17 16/16/16 15/15/15
f 18/18/18 17/17/17 15/15/15
f 21/21/21 20/20/20 19/19/19
f 20/20/20 22/22/22 19/19/19
f 23/23/23 22/22/22 20/20/20
f 24/24/24 23/23/23 20/20/20
f 27/27/27 26/26/26 25/25/25
f 28/28/28 27/27/27 25/25/25
f 31/31/31 30/30/30 29/29/29
f 32/32/32 31/31/31 29/29/29
f 35/35/35 34/34/34 33/33/33
f 34/34/34 36/36/36 33/33/33
f 37/37/37 36/36/36 34/34/34
f 38/38/38 37/37/37 34/34/34
f 41/41/41 40/40/40 39/39/39
f 42/42/42 41/41/41 39/39/39
f 43/43/43 42/42/42 39/39/39
f 44/44/44 42/42/42 43/43/43
f 45/45/45 44/44/44 43/43/43
f 48/48/48 47/47/47 46/46/46
f 49/49/49 48/48/48 46/46/46
f 52/52/52 51/51/51 50/50/50
f 53/53/53 52/52/52 50/50/50
f 56/56/56 55/55/55 54/54/54
f 57/57/57 56/56/56 54/54/54
f 60/60/60 59/59/59 58/58/58
f 61/61/61 60/60/60 58/58/58
f 64/64/64 63/63/63 62/62/62
f 65/65/65 64/64/64 62/62/62
f 68/68/68 67/67/67 66/66/66
f 69/69/69 68/68/68 66/66/66
f 72/72/72 71/71/71 70/70/70
f 71/71/71 73/73/73 70/70/70
f 70/70/70 73/73/73 74/74/74
f 74/74/74 75/75/75 70/70/70
f 75/75/75 76/76/76 70/70/70
f 70/70/70 76/76/76 77/77/77
f 76/76/76 78/78/78 77/77/77
f 75/75/75 79/79/79 76/76/76
f 79/79/79 80/80/80 76/76/76
f 76/76/76 80/80/80 81/81/81
f 80/80/80 82/82/82 81/81/81
f 80/80/80 73/73/73 83/83/83
f 73/73/73 84/84/84 83/83/83
f 85/85/85 73/73/73 80/80/80
f 73/73/73 85/85/85 74/74/74
f 79/79/79 85/85/85 80/80/80
f 86/86/86 79/79/79 75/75/75
f 87/87/87 75/75/75 74/74/74
f 87/87/87 86/86/86 75/75/75
f 74/74/74 85/85/85 88/88/88
f 88/88/88 87/87/87 74/74/74
f 89/89/89 85/85/85 79/79/79
f 86/86/86 89/89/89 79/79/79
f 85/85/85 89/89/89 88/88/88
f 90/90/90 87/87/87 88/88/88
f 87/87/87 90/90/90 86/86/86
f 91/91/91 90/90/90 88/88/88
f 91/91/91 88/88/88 89/89/89
f 90/90/90 92/92/92 86/86/86
f 93/93/93 91/91/91 89/89/89
f 93/93/93 89/89/89 86/86/86
f 92/92/92 93/93/93 86/86/86
f 96/96/96 95/95/95 94/94/94
f 97/97/97 96/96/96 94/94/94
f 100/100/100 99/99/99 98/98/98
f 101/101/101 100/100/100 98/98/98
f 104/104/104 103/103/103 102/102/102
f 105/105/105 104/104/104 102/102/102
f 108/108/108 107/107/107 106/106/106
f 109/109/109 108/108/108 106/106/106
f 112/112/112 111/111/111 110/110/110
f 113/113/113 112/112/112 110/110/110
f 116/116/116 115/115/115 114/114/114
f 117/117/117 116/116/116 114/114/114
f 120/120/120 119/119/119 118/118/118
f 119/119/119 121/121/121 118/118/118
f 121/121/121 119/119/119 122/122/122
f 119/119/119 123/123/123 122/122/122
f 123/123/123 124/124/124 122/122/122
f 124/124/124 125/125/125 122/122/122
f 125/125/125 124/124/124 126/126/126
f 124/124/124 127/127/127 126/126/126
f 130/130/130 129/129/129 128/128/128
f 131/131/131 130/130/130 128/128/128
f 131/131/131 128/128/128 132/132/132
f 131/131/131 133/133/133 130/130/130
f 134/134/134 130/130/130 133/133/133
f 135/135/135 134/134/134 133/133/133
f 136/136/136 134/134/134 135/135/135
f 136/136/136 135/135/135 137/137/137
f 138/138/138 133/133/133 131/131/131
f 135/135/135 133/133/133 138/138/138
f 135/135/135 139/139/139 137/137/137
f 139/139/139 135/135/135 138/138/138
f 137/137/137 139/139/139 140/140/140
f 140/140/140 139/139/139 141/141/141
f 139/139/139 138/138/138 141/141/141
f 140/140/140 141/141/141 142/142/142
f 141/141/141 143/143/143 142/142/142
f 143/143/143 141/141/141 132/132/132
f 144/144/144 138/138/138 131/131/131
f 144/144/144 131/131/131 132/132/132
f 144/144/144 141/141/141 138/138/138
f 141/141/141 144/144/144 132/132/132
f 147/147/147 146/146/146 145/145/145
f 146/146/146 148/148/148 145/145/145
f 145/145/145 148/148/148 149/149/149
f 150/150/150 145/145/145 149/149/149
f 151/151/151 150/150/150 149/149/149
f 152/152/152 151/151/151 149/149/149
f 153/153/153 151/151/151 152/152/152
f 154/154/154 153/153/153 152/152/152
f 153/153/153 154/154/154 155/155/155
f 156/156/156 153/153/153 155/155/155
f 159/159/159 158/158/158 157/157/157
f 158/158/158 160/160/160 157/157/157
f 158/158/158 161/161/161 160/160/160
f 161/161/161 162/162/162 160/160/160
f 163/163/163 157/157/157 160/160/160
f 162/162/162 164/164/164 160/160/160
f 165/165/165 163/163/163 160/160/160
f 164/164/164 165/165/165 160/160/160
f 165/165/165 166/166/166 163/163/163
f 165/165/165 164/164/164 166/166/166
f 166/166/166 167/167/167 163/163/163
f 167/167/167 166/166/166 168/168/168
f 164/164/164 169/169/169 166/166/166
f 166/166/166 169/169/169 168/168/168
f 170/170/170 167/167/167 168/168/168
f 169/169/169 171/171/171 168/168/168
f 172/172/172 170/170/170 168/168/168
f 171/171/171 173/173/173 168/168/168
f 174/174/174 172/172/172 168/168/168
f 173/173/173 174/174/174 168/168/168
f 177/177/177 176/176/176 175/175/175
f 176/176/176 178/178/178 175/175/175
f 178/178/178 176/176/176 179/179/179
f 180/180/180 178/178/178 179/179/179
f 183/183/183 182/182/182 181/181/181
f 182/182/182 184/184/184 181/181/181
f 181/181/181 184/184/184 185/185/185
f 184/184/184 182/182/182 186/186/186
f 184/184/184 187/187/187 185/185/185
f 188/188/188 185/185/185 187/187/187
f 184/184/184 186/186/186 189/189/189
f 187/187/187 184/184/184 189/189/189
f 189/189/189 186/186/186 190/190/190
f 191/191/191 189/189/189 190/190/190
f 192/192/192 188/188/188 187/187/187
f 189/189/189 192/192/192 187/187/187
f 192/192/192 189/189/189 191/191/191
f 193/193/193 188/188/188 192/192/192
f 191/191/191 194/194/194 192/192/192
f 192/192/192 194/194/194 193/193/193
f 191/191/191 195/195/195 194/194/194
f 191/191/191 196/196/196 195/195/195
f 195/195/195 196/196/196 197/197/197
f 194/194/194 195/195/195 198/198/198
f 194/194/194 198/198/198 193/193/193
f 195/195/195 199/199/199 198/198/198
f 199/199/199 195/195/195 197/197/197
f 198/198/198 200/200/200 193/193/193
f 197/197/197 201/201/201 199/199/199
f 193/193/193 200/200/200 201/201/201
f 197/197/197 193/193/193 201/201/201
f 204/204/204 203/203/203 202/202/202
f 205/205/205 204/204/204 202/202/202
f 206/206/206 205/205/205 202/202/202
f 207/207/207 206/206/206 202/202/202
f 210/210/210 209/209/209 208/208/208
f 211/211/211 210/210/210 208/208/208
f 214/214/214 213/213/213 212/212/212
f 213/213/213 215/215/215 212/212/212
f 216/216/216 215/215/215 213/213/213
f 217/217/217 216/216/216 213/213/213
f 218/218/218 216/216/216 217/217/217
f 219/219/219 218/218/218 217/217/217
f 220/220/220 218/218/218 219/219/219
f 221/221/221 220/220/220 219/219/219
f 221/221/221 222/222/222 220/220/220
f 222/222/222 223/223/223 220/220/220
f 224/224/224 223/223/223 222/222/222
f 225/225/225 224/224/224 222/222/222
f 226/226/226 224/224/224 225/225/225
f 227/227/227 226/226/226 225/225/225
f 228/228/228 226/226/226 227/227/227
f 229/229/229 228/228/228 227/227/227
f 229/229/229 230/230/230 228/228/228
f 230/230/230 231/231/231 228/228/228
f 234/234/234 233/233/233 232/232/232
f 232/232/232 235/235/235 234/234/234
f 235/235/235 236/236/236 234/234/234
f 234/234/234 236/236/236 237/237/237
f 237/237/237 238/238/238 234/234/234
f 237/237/237 239/239/239 238/238/238
f 237/237/237 240/240/240 239/239/239
f 241/241/241 240/240/240 237/237/237
f 242/242/242 241/241/241 237/237/237
f 243/243/243 242/242/242 237/237/237
f 244/244/244 237/237/237 236/236/236
f 245/245/245 244/244/244 236/236/236
f 243/243/243 237/237/237 246/246/246
f 246/246/246 247/247/247 243/243/243
f 248/248/248 246/246/246 237/237/237
f 237/237/237 249/249/249 248/248/248
f 237/237/237 250/250/250 249/249/249
f 247/247/247 246/246/246 251/251/251
f 247/247/247 251/251/251 252/252/252
f 252/252/252 253/253/253 247/247/247
f 256/256/256 255/255/255 254/254/254
f 254/254/254 255/255/255 257/257/257
f 258/258/258 254/254/254 257/257/257
f 259/259/259 254/254/254 258/258/258
f 255/255/255 260/260/260 257/257/257
f 260/260/260 261/261/261 257/257/257
f 257/257/257 261/261/261 262/262/262
f 260/260/260 255/255/255 263/263/263
f 263/263/263 255/255/255 264/264/264
f 265/265/265 260/260/260 263/263/263
f 266/266/266 263/263/263 264/264/264
f 267/267/267 257/257/257 262/262/262
f 267/267/267 258/258/258 257/257/257
f 262/262/262 268/268/268 267/267/267
f 263/263/263 269/269/269 265/265/265
f 269/269/269 270/270/270 265/265/265
f 271/271/271 270/270/270 269/269/269
f 272/272/272 269/269/269 263/263/263
f 266/266/266 272/272/272 263/263/263
f 273/273/273 271/271/271 269/269/269
f 273/273/273 269/269/269 272/272/272
f 274/274/274 273/273/273 272/272/272
f 274/274/274 275/275/275 273/273/273
f 275/275/275 276/276/276 273/273/273
f 277/277/277 273/273/273 276/276/276
f 271/271/271 273/273/273 277/277/277
f 278/278/278 271/271/271 277/277/277
f 272/272/272 266/266/266 279/279/279
f 280/280/280 272/272/272 279/279/279
f 266/266/266 281/281/281 279/279/279
f 281/281/281 266/266/266 282/282/282
f 283/283/283 281/281/281 282/282/282
f 284/284/284 280/280/280 279/279/279
f 280/280/280 284/284/284 285/285/285
f 284/284/284 286/286/286 285/285/285
f 278/278/278 277/277/277 287/287/287
f 288/288/288 278/278/278 287/287/287
f 289/289/289 287/287/287 277/277/277
f 290/290/290 289/289/289 277/277/277
f 288/288/288 287/287/287 291/291/291
f 292/292/292 288/288/288 291/291/291
f 293/293/293 292/292/292 291/291/291
f 294/294/294 291/291/291 287/287/287
f 289/289/289 294/294/294 287/287/287
f 295/295/295 293/293/293 291/291/291
f 295/295/295 291/291/291 294/294/294
f 293/293/293 295/295/295 296/296/296
f 297/297/297 293/293/293 296/296/296
f 298/298/298 295/295/295 294/294/294
f 296/296/296 295/295/295 298/298/298
f 296/296/296 299/299/299 297/297/297
f 299/299/299 300/300/300 297/297/297
f 268/268/268 300/300/300 299/299/299
f 301/301/301 268/268/268 299/299/299
f 268/268/268 301/301/301 267/267/267
f 302/302/302 299/299/299 296/296/296
f 299/299/299 302/302/302 301/301/301
f 301/301/301 303/303/303 267/267/267
f 302/302/302 303/303/303 301/301/301
f 304/304/304 303/303/303 302/302/302
f 303/303/303 258/258/258 267/267/267
f 303/303/303 304/304/304 258/258/258
f 305/305/305 296/296/296 298/298/298
f 305/305/305 302/302/302 296/296/296
f 306/306/306 298/298/298 294/294/294
f 298/298/298 306/306/306 305/305/305
f 307/307/307 302/302/302 305/305/305
f 307/307/307 304/304/304 302/302/302
f 308/308/308 307/307/307 305/305/305
f 306/306/306 308/308/308 305/305/305
f 308/308/308 306/306/306 309/309/309
f 304/304/304 307/307/307 310/310/310
f 311/311/311 306/306/306 294/294/294
f 294/294/294 289/289/289 311/311/311
f 289/289/289 312/312/312 311/311/311
f 306/306/306 313/313/313 309/309/309
f 289/289/289 290/290/290 312/312/312
f 290/290/290 314/314/314 312/312/312
f 315/315/315 314/314/314 290/290/290
f 275/275/275 315/315/315 290/290/290
f 309/309/309 313/313/313 316/316/316
f 317/317/317 309/309/309 316/316/316
f 317/317/317 318/318/318 309/309/309
f 318/318/318 310/310/310 309/309/309
f 310/310/310 318/318/318 319/319/319
f 318/318/318 320/320/320 319/319/319
f 319/319/319 304/304/304 310/310/310
f 319/319/319 320/320/320 321/321/321
f 304/304/304 319/319/319 321/321/321
f 320/320/320 322/322/322 321/321/321
f 322/322/322 323/323/323 321/321/321
f 324/324/324 304/304/304 321/321/321
f 304/304/304 324/324/324 258/258/258
f 324/324/324 259/259/259 258/258/258
f 321/321/321 325/325/325 324/324/324
f 323/323/323 325/325/325 321/321/321
f 325/325/325 326/326/326 324/324/324
f 327/327/327 326/326/326 325/325/325
f 328/328/328 325/325/325 323/323/323
f 328/328/328 327/327/327 325/325/325
f 329/329/329 327/327/327 328/328/328
f 330/330/330 328/328/328 323/323/323
f 327/327/327 331/331/331 259/259/259
f 327/327/327 329/329/329 331/331/331
f 331/331/331 332/332/332 259/259/259
f 328/328/328 330/330/330 333/333/333
f 333/333/333 329/329/329 328/328/328
f 330/330/330 334/334/334 333/333/333
f 333/333/333 334/334/334 335/335/335
f 329/329/329 333/333/333 335/335/335
f 334/334/334 336/336/336 335/335/335
f 336/336/336 337/337/337 335/335/335
f 338/338/338 329/329/329 335/335/335
f 337/337/337 339/339/339 335/335/335
f 340/340/340 339/339/339 337/337/337
f 341/341/341 340/340/340 337/337/337
f 340/340/340 342/342/342 339/339/339
f 342/342/342 343/343/343 339/339/339
f 329/329/329 338/338/338 344/344/344
f 338/338/338 343/343/343 344/344/344
f 329/329/329 345/345/345 331/331/331
f 345/345/345 329/329/329 344/344/344
f 343/343/343 346/346/346 344/344/344
f 343/343/343 342/342/342 346/346/346
f 344/344/344 347/347/347 345/345/345
f 344/344/344 346/346/346 347/347/347
f 347/347/347 348/348/348 345/345/345
f 345/345/345 348/348/348 331/331/331
f 348/348/348 349/349/349 331/331/331
f 331/331/331 349/349/349 332/332/332
f 349/349/349 350/350/350 332/332/332
f 332/332/332 350/350/350 351/351/351
f 346/346/346 352/352/352 347/347/347
f 352/352/352 346/346/346 353/353/353
f 346/346/346 354/354/354 353/353/353
f 342/342/342 354/354/354 346/346/346
f 353/353/353 354/354/354 355/355/355
f 354/354/354 342/342/342 356/356/356
f 354/354/354 356/356/356 355/355/355
f 342/342/342 357/357/357 356/356/356
f 356/356/356 357/357/357 358/358/358
f 356/356/356 359/359/359 355/355/355
f 359/359/359 356/356/356 358/358/358
f 359/359/359 360/360/360 355/355/355
f 359/359/359 358/358/358 361/361/361
f 359/359/359 361/361/361 360/360/360
f 358/358/358 362/362/362 361/361/361
f 361/361/361 363/363/363 360/360/360
f 364/364/364 363/363/363 361/361/361
f 361/361/361 366/366/366 365/365/365
f 367/367/367 361/361/361 365/365/365
f 370/370/370 369/369/369 368/368/368
f 371/371/371 370/370/370 368/368/368
f 374/374/374 373/373/373 372/372/372
f 374/374/374 372/372/372 375/375/375
f 375/375/375 376/376/376 374/374/374
f 375/375/375 377/377/377 376/376/376
f 377/377/377 375/375/375 378/378/378
f 378/378/378 379/379/379 377/377/377
f 380/380/380 379/379/379 378/378/378
f 380/380/380 381/381/381 379/379/379
f 384/384/384 383/383/383 382/382/382
f 385/385/385 384/384/384 382/382/382
f 388/388/388 387/387/387 386/386/386
f 389/389/389 388/388/388 386/386/386
f 392/392/392 391/391/391 390/390/390
f 392/392/392 390/390/390 393/393/393
f 393/393/393 394/394/394 392/392/392
f 395/395/395 392/392/392 394/394/394
f 395/395/395 396/396/396 392/392/392
f 394/394/394 397/397/397 395/395/395
f 397/397/397 394/394/394 398/398/398
f 399/399/399 397/397/397 398/398/398
f 398/398/398 400/400/400 399/399/399
f 396/396/396 401/401/401 392/392/392
f 402/402/402 392/392/392 401/401/401
f 392/392/392 402/402/402 403/403/403
f 392/392/392 403/403/403 404/404/404
f 392/392/392 404/404/404 405/405/405
f 405/405/405 406/406/406 392/392/392
f 407/407/407 392/392/392 406/406/406
f 408/408/408 407/407/407 406/406/406
f 409/409/409 406/406/406 405/405/405
f 410/410/410 409/409/409 405/405/405
f 405/405/405 411/411/411 410/410/410
f 414/414/414 413/413/413 412/412/412
f 415/415/415 414/414/414 412/412/412
f 418/418/418 417/417/417 416/416/416
f 418/418/418 416/416/416 419/419/419
f 419/419/419 420/420/420 418/418/418
f 420/420/420 419/419/419 421/421/421
f 421/421/421 422/422/422 420/420/420
f 421/421/421 423/423/423 422/422/422
f 424/424/424 423/423/423 421/421/421
f 424/424/424 425/425/425 423/423/423
f 428/428/428 427/427/427 426/426/426
f 429/429/429 428/428/428 426/426/426
f 430/430/430 429/429/429 426/426/426
f 431/431/431 430/430/430 426/426/426
f 432/432/432 430/430/430 431/431/431
f 433/433/433 432/432/432 431/431/431
f 434/434/434 432/432/432 433/433/433
f 435/435/435 434/434/434 433/433/433
f 434/434/434 435/435/435 436/436/436
f 437/437/437 434/434/434 436/436/436
f 438/438/438 437/437/437 436/436/436
f 439/439/439 438/438/438 436/436/436
f 440/440/440 438/438/438 439/439/439
f 441/441/441 440/440/440 439/439/439
f 442/442/442 440/440/440 441/441/441
f 443/443/443 442/442/442 441/441/441
f 442/442/442 443/443/443 444/444/444
f 445/445/445 442/442/442 444/444/444
f 448/448/448 447/447/447 446/446/446
f 449/449/449 448/448/448 446/446/446
f 449/449/449 446/446/446 450/450/450
f 451/451/451 449/449/449 450/450/450
f 451/451/451 450/450/450 452/452/452
f 448/448/448 449/449/449 453/453/453
f 451/451/451 453/453/453 449/449/449
f 454/454/454 448/448/448 453/453/453
f 455/455/455 448/448/448 454/454/454
f 455/455/455 454/454/454 456/456/456
f 454/454/454 457/457/457 456/456/456
f 457/457/457 454/454/454 453/453/453
f 456/456/456 457/457/457 458/458/458
f 459/459/459 453/453/453 451/451/451
f 459/459/459 457/457/457 453/453/453
f 458/458/458 457/457/457 460/460/460
f 457/457/457 459/459/459 460/460/460
f 458/458/458 460/460/460 461/461/461
f 460/460/460 462/462/462 461/461/461
f 462/462/462 460/460/460 452/452/452
f 463/463/463 459/459/459 451/451/451
f 463/463/463 451/451/451 452/452/452
f 463/463/463 460/460/460 459/459/459
f 460/460/460 463/463/463 452/452/452
f 466/466/466 465/465/465 464/464/464
f 467/467/467 466/466/466 464/464/464
f 466/466/466 467/467/467 468/468/468
f 467/467/467 469/469/469 468/468/468
f 470/470/470 468/468/468 469/469/469
f 471/471/471 470/470/470 469/469/469
f 474/474/474 473/473/473 472/472/472
f 473/473/473 475/475/475 472/472/472
f 475/475/475 476/476/476 472/472/472
f 476/476/476 477/477/477 472/472/472
f 475/475/475 473/473/473 478/478/478
f 473/473/473 479/479/479 478/478/478
f 480/480/480 476/476/476 475/475/475
f 478/478/478 480/480/480 475/475/475
f 476/476/476 481/481/481 477/477/477
f 481/481/481 476/476/476 480/480/480
f 478/478/478 479/479/479 482/482/482
f 479/479/479 483/483/483 482/482/482
f 482/482/482 483/483/483 484/484/484
f 485/485/485 482/482/482 484/484/484
f 482/482/482 485/485/485 486/486/486
f 482/482/482 487/487/487 478/478/478
f 487/487/487 480/480/480 478/478/478
f 487/487/487 482/482/482 486/486/486
f 488/488/488 480/480/480 487/487/487
f 488/488/488 481/481/481 480/480/480
f 489/489/489 487/487/487 486/486/486
f 489/489/489 488/488/488 487/487/487
f 490/490/490 489/489/489 486/486/486
f 481/481/481 491/491/491 477/477/477
f 477/477/477 491/491/491 492/492/492
f 493/493/493 481/481/481 488/488/488
f 481/481/481 493/493/493 491/491/491
f 494/494/494 488/488/488 489/489/489
f 494/494/494 493/493/493 488/488/488
f 495/495/495 489/489/489 490/490/490
f 495/495/495 494/494/494 489/489/489
f 496/496/496 495/495/495 490/490/490
f 497/497/497 495/495/495 496/496/496
f 494/494/494 495/495/495 497/497/497
f 498/498/498 497/497/497 496/496/496
f 499/499/499 494/494/494 497/497/497
f 493/493/493 494/494/494 499/499/499
f 500/500/500 493/493/493 499/499/499
f 493/493/493 500/500/500 491/491/491
f 500/500/500 499/499/499 501/501/501
f 491/491/491 502/502/502 492/492/492
f 491/491/491 500/500/500 502/502/502
f 503/503/503 500/500/500 501/501/501
f 500/500/500 503/503/503 502/502/502
f 503/503/503 501/501/501 504/504/504
f 492/492/492 502/502/502 505/505/505
f 506/506/506 492/492/492 505/505/505
f 502/502/502 503/503/503 507/507/507
f 507/507/507 503/503/503 504/504/504
f 505/505/505 502/502/502 507/507/507
f 508/508/508 507/507/507 504/504/504
f 507/507/507 508/508/508 505/505/505
f 509/509/509 508/508/508 504/504/504
f 505/505/505 510/510/510 506/506/506
f 508/508/508 510/510/510 505/505/505
f 510/510/510 511/511/511 506/506/506
f 508/508/508 512/512/512 510/510/510
f 512/512/512 508/508/508 509/509/509
f 512/512/512 513/513/513 510/510/510
f 513/513/513 512/512/512 514/514/514
f 515/515/515 512/512/512 509/509/509
f 512/512/512 515/515/515 514/514/514
f 515/515/515 509/509/509 516/516/516
f 514/514/514 515/515/515 517/517/517
f 518/518/518 515/515/515 516/516/516
f 515/515/515 518/518/518 517/517/517
f 518/518/518 516/516/516 519/519/519
f 520/520/520 518/518/518 519/519/519
f 517/517/517 518/518/518 520/520/520
f 521/521/521 517/517/517 520/520/520
f 524/524/524 523/523/523 522/522/522
f 523/523/523 525/525/525 522/522/522
f 525/525/525 523/523/523 526/526/526
f 523/523/523 527/527/527 526/526/526
f 526/526/526 527/527/527 528/528/528
f 527/527/527 529/529/529 528/528/528
f 528/528/528 529/529/529 530/530/530
f 531/531/531 528/528/528 530/530/530
f 528/528/528 531/531/531 532/532/532
f 526/526/526 528/528/528 533/533/533
f 533/533/533 528/528/528 532/532/532
f 525/525/525 526/526/526 534/534/534
f 534/534/534 526/526/526 533/533/533
f 533/533/533 532/532/532 535/535/535
f 532/532/532 536/536/536 535/535/535
f 535/535/535 537/537/537 533/533/533
f 537/537/537 534/534/534 533/533/533
f 537/537/537 538/538/538 534/534/534
f 539/539/539 525/525/525 534/534/534
f 538/538/538 539/539/539 534/534/534
f 522/522/522 525/525/525 539/539/539
f 539/539/539 538/538/538 540/540/540
f 540/540/540 522/522/522 539/539/539
f 538/538/538 541/541/541 540/540/540
f 542/542/542 522/522/522 540/540/540
f 540/540/540 541/541/541 543/543/543
f 543/543/543 542/542/542 540/540/540
f 541/541/541 544/544/544 543/543/543
f 544/544/544 545/545/545 543/543/543
f 542/542/542 543/543/543 546/546/546
f 545/545/545 546/546/546 543/543/543
f 547/547/547 542/542/542 546/546/546
f 545/545/545 548/548/548 546/546/546
f 549/549/549 547/547/547 546/546/546
f 548/548/548 550/550/550 546/546/546
f 550/550/550 549/549/549 546/546/546
f 553/553/553 552/552/552 551/551/551
f 552/552/552 554/554/554 551/551/551
f 552/552/552 555/555/555 554/554/554
f 555/555/555 556/556/556 554/554/554
f 556/556/556 557/557/557 554/554/554
f 554/554/554 558/558/558 551/551/551
f 557/557/557 558/558/558 554/554/554
f 558/558/558 559/559/559 551/551/551
f 557/557/557 560/560/560 558/558/558
f 559/559/559 558/558/558 561/561/561
f 560/560/560 562/562/562 558/558/558
f 558/558/558 562/562/562 561/561/561
f 565/565/565 564/564/564 563/563/563
f 566/566/566 565/565/565 563/563/563
f 569/569/569 568/568/568 567/567/567
f 570/570/570 569/569/569 567/567/567
f 573/573/573 572/572/572 571/571/571
f 574/574/574 573/573/573 571/571/571
f 577/577/577 576/576/576 575/575/575
f 578/578/578 577/577/577 575/575/575
f 581/581/581 580/580/580 579/579/579
f 580/580/580 582/582/582 579/579/579
f 582/582/582 583/583/583 579/579/579
f 581/581/581 579/579/579 584/584/584
f 585/585/585 581/581/581 584/584/584
f 582/582/582 586/586/586 583/583/583
f 586/586/586 587/587/587 583/583/583
f 588/588/588 585/585/585 584/584/584
f 589/589/589 588/588/588 584/584/584
f 588/588/588 589/589/589 590/590/590
f 591/591/591 588/588/588 590/590/590
f 587/587/587 586/586/586 592/592/592
f 586/586/586 593/593/593 592/592/592
f 592/592/592 593/593/593 594/594/594
f 595/595/595 592/592/592 594/594/594
f 591/591/591 590/590/590 596/596/596
f 597/597/597 591/591/591 596/596/596
f 594/594/594 598/598/598 595/595/595
f 598/598/598 599/599/599 595/595/595
f 600/600/600 597/597/597 596/596/596
f 601/601/601 600/600/600 596/596/596
f 600/600/600 601/601/601 602/602/602
f 603/603/603 600/600/600 602/602/602
f 599/599/599 598/598/598 604/604/604
f 602/602/602 604/604/604 603/603/603
f 598/598/598 605/605/605 604/604/604
f 604/604/604 605/605/605 603/603/603
f 608/608/608 607/607/607 606/606/606
f 609/609/609 608/608/608 606/606/606
f 607/607/607 610/610/610 606/606/606
f 611/611/611 609/609/609 606/606/606
f 610/610/610 607/607/607 612/612/612
f 613/613/613 609/609/609 611/611/611
f 607/607/607 614/614/614 612/612/612
f 615/615/615 613/613/613 611/611/611
f 612/612/612 614/614/614 616/616/616
f 617/617/617 613/613/613 615/615/615
f 614/614/614 618/618/618 616/616/616
f 619/619/619 617/617/617 615/615/615
f 620/620/620 617/617/617 619/619/619
f 621/621/621 620/620/620 619/619/619
f 620/620/620 621/621/621 622/622/622
f 621/621/621 623/623/623 622/622/622
f 622/622/622 623/623/623 624/624/624
f 623/623/623 625/625/625 624/624/624
f 626/626/626 624/624/624 625/625/625
f 627/627/627 626/626/626 625/625/625
f 628/628/628 626/626/626 627/627/627
f 629/629/629 628/628/628 627/627/627
f 616/616/616 618/618/618 630/630/630
f 618/618/618 631/631/631 630/630/630
f 632/632/632 628/628/628 629/629/629
f 631/631/631 632/632/632 630/630/630
f 633/633/633 632/632/632 629/629/629
f 632/632/632 633/633/633 630/630/630
f 636/636/636 635/635/635 634/634/634
f 635/635/635 637/637/637 634/634/634
f 638/638/638 636/636/636 634/634/634
f 634/634/634 637/637/637 639/639/639
f 636/636/636 638/638/638 640/640/640
f 637/637/637 641/641/641 639/639/639
f 638/638/638 642/642/642 640/640/640
f 639/639/639 641/641/641 643/643/643
f 640/640/640 642/642/642 644/644/644
f 641/641/641 645/645/645 643/643/643
f 642/642/642 646/646/646 644/644/644
f 647/647/647 644/644/644 646/646/646
f 648/648/648 647/647/647 646/646/646
f 649/649/649 647/647/647 648/648/648
f 650/650/650 649/649/649 648/648/648
f 651/651/651 649/649/649 650/650/650
f 652/652/652 651/651/651 650/650/650
f 653/653/653 651/651/651 652/652/652
f 654/654/654 653/653/653 652/652/652
f 655/655/655 653/653/653 654/654/654
f 656/656/656 655/655/655 654/654/654
f 643/643/643 645/645/645 657/657/657
f 645/645/645 658/658/658 657/657/657
f 659/659/659 655/655/655 656/656/656
f 658/658/658 659/659/659 657/657/657
f 660/660/660 659/659/659 656/656/656
f 659/659/659 660/660/660 657/657/657
