g Chair_03
v -80.67325 -81.43085 259.9234
v -55.55118 -81.24746 271.4883
v -60.65548 -106.2143 249.9021
v -56.73813 81.29496 271.4883
v -23.28431 83.64886 272.4649
v -62.20665 106.1849 249.9024
v -25.06751 109.8968 245.7058
v 24.7414 110.2606 245.7058
v -22.06645 -83.1123 272.4647
v 23.34179 83.98933 272.4649
v 24.55964 -82.77171 272.4647
v 56.82655 82.12457 271.4883
v 61.93093 107.0916 249.9024
v 58.01358 -80.41785 271.4883
v 81.94862 82.30808 259.9237
v 63.48194 -105.3077 249.9021
v 26.3428 -109.0196 245.7055
v -23.46602 -109.3835 245.7055
v -55.55118 -81.24746 271.4883
v -60.65548 -106.2143 249.9021
v 83.13565 -80.23449 259.9234
v 122.7583 -82.1548 212.4951
v 63.48194 -105.3077 249.9021
v 97.85694 -108.2901 203.2224
v 123.947 -81.94382 138.9903
v 97.79089 -108.1625 138.9935
v 122.7308 84.61347 138.9905
v 121.5392 84.80699 212.4953
v 61.93093 107.0916 249.9024
v 96.25874 110.5758 203.2226
v 96.19452 110.4474 138.9937
v 83.13565 -80.23449 259.9234
v 63.48194 -105.3077 249.9021
v 58.01358 -80.41785 271.4883
v -81.86032 81.1116 259.9237
v -62.20665 106.1849 249.9024
v -56.73813 81.29496 271.4883
v 81.94862 82.30808 259.9237
v 56.82655 82.12457 271.4883
v 61.93093 107.0916 249.9024
v 67.32819 91.76527 -23.36027
v 70.70159 0.9506665 -29.24723
v 92.75851 1.111682 -12.58008
v 81.13604 98.89597 -6.591406
v 103.691 96.16926 28.04894
v 113.8559 1.265784 27.52383
v 114.8858 1.273362 34.37707
v 105.8064 94.10949 34.52613
v 100.8673 89.29379 36.62586
v 108.32 1.225354 36.59398
v 102.3549 -87.11898 36.62867
v 107.3692 -91.84926 34.53273
v 97.67132 1.14762 36.49023
v 92.53062 80.56059 36.51563
v 93.69147 -78.33199 36.51539
v 114.8858 1.273362 34.37707
v 105.2682 -93.8984 28.06508
v 113.8559 1.265784 27.52383
v 92.75851 1.111682 -12.58008
v 82.46034 -96.7534 -6.813593
v 70.70159 0.9506665 -29.24723
v 68.65522 -89.90379 -23.36051
v -22.69173 -79.18199 -3.672617
v 1.6446 -82.36086 2.027852
v -23.66188 -82.54566 2.027852
v 1.603975 -79.00453 -3.672617
v 26.14702 -82.18187 2.027852
v 25.12784 -78.8327 -3.672617
v -50.23376 0.06734619 -7.366796
v -56.46524 -77.30617 -2.317734
v -58.15825 0.009533691 -4.768555
v -50.3479 -78.86433 -3.314805
v -43.39267 -79.3332 -3.672734
v -41.51196 0.1310962 -8.23289
v -22.69173 -79.18199 -3.672617
v -22.47634 0.2700806 -8.23289
v 1.603975 -79.00453 -3.672617
v 1.010772 0.441604 -8.23289
v 25.12784 -78.8327 -3.672617
v 23.75179 0.6076196 -8.23289
v 45.82874 -78.6816 -3.672617
v 42.78733 0.7467211 -8.23289
v 51.50917 0.810354 -7.366796
v 52.77632 -78.11117 -3.314805
v 58.8703 -76.46387 -2.317734
v 59.43362 0.8682055 -4.768555
v -69.80954 -73.93211 232.1251
v -85.53075 -82.99785 199.6572
v -59.6147 -82.80859 229.9332
v -94.71661 -74.11402 203.0278
v -95.02715 -74.22472 138.9936
v -85.63907 -83.30418 138.9936
v -95.79513 73.59047 203.0279
v -96.10732 73.69679 138.9937
v -86.85266 82.9123 138.9937
v -86.73993 82.60761 199.6573
v -70.88813 73.77238 232.1252
v -60.82399 82.79684 229.9333
v -70.88813 73.77238 232.1252
v -41.58786 -73.72601 245.1166
v -42.66653 73.97839 245.1168
v 43.94183 -73.10129 245.1166
v 42.86323 74.60308 245.1168
v 71.08503 74.80933 232.1252
v 47.71999 83.58957 235.996
v 72.16347 -72.89512 232.1251
v 62.09937 -81.91957 229.9332
v 48.92929 -82.01574 235.9959
v 53.24429 -83.10313 228.0152
v 88.0153 -81.73039 199.6572
v 60.89007 83.68582 229.9333
v -46.44454 -82.71242 235.9959
v 80.04308 -82.90738 196.708
v 88.12811 -82.03503 138.9936
v 80.06839 -83.22504 138.9936
v 52.01858 84.7398 228.0154
v -51.96891 83.98027 228.0154
v -47.65395 82.89301 235.996
v 78.81749 84.93566 196.7081
v 86.80616 83.87519 199.6573
v 86.80612 83.87519 141.2611
v 38.59686 84.93887 211.4402
v 38.59686 84.93887 211.4402
v -38.53181 84.37168 211.4206
v 40.97241 84.65933 146.8465
v 78.81753 84.93574 141.2611
v -60.82399 82.79684 229.9333
v -70.88813 73.77238 232.1252
v -86.73993 82.60761 199.6573
v -78.7677 83.78465 196.7081
v -86.85266 82.9123 138.9937
v -38.6579 84.39558 146.3956
v -78.79298 84.10246 138.9937
v -46.05938 84.34145 138.9938
v -40.82575 84.37972 141.1617
v 46.55788 84.70012 141.2611
v 42.60843 84.67121 142.897
v 36.43358 85.26183 145.9447
v 38.59686 84.93887 211.4402
v 39.13335 85.28152 139.4265
v 45.65136 85.32918 136.7265
v 78.85897 85.57175 136.7265
v 87.0228 84.48793 136.7265
v 33.01194 86.97707 205.8704
v 33.18077 87.14512 145.3004
v -32.96516 86.46426 205.8389
v -38.53181 84.37168 211.4206
v 30.50436 98.82293 203.4493
v -33.16813 86.66058 145.3004
v -38.6579 84.39558 146.3956
v -30.66251 98.37613 203.4493
v 36.64061 87.17051 136.9475
v 30.50433 98.82293 144.785
v 32.82202 110.7104 205.8538
v 44.99311 87.23145 133.4877
v 34.57202 98.85269 134.9643
v 78.98303 87.47964 133.4877
v -36.62786 86.63527 136.9475
v -40.82575 84.37972 141.1617
v 33.00995 110.5338 145.3004
v 44.39237 98.92442 130.8966
v 87.67268 86.32621 133.4877
v 96.61311 75.21285 136.7265
v 98.47671 75.87738 133.4877
v -44.98048 86.57433 133.4877
v -46.05938 84.34145 138.9938
v -78.9704 86.32613 133.4877
v -44.55056 98.2748 130.8966
v 36.46968 110.5595 136.9476
v 79.65487 99.14699 130.8966
v -87.64227 85.04566 133.4877
v -86.85266 82.9123 138.9937
v -34.73021 98.34652 134.9643
v 44.82229 110.6228 133.4877
v -98.29251 74.44023 133.4877
v -96.10732 73.69679 138.9937
v -95.02715 -74.22472 138.9936
v -30.66251 98.37621 144.785
v -33.33892 110.0492 145.3004
v -33.19267 110.1896 205.8932
v -38.86106 112.224 146.3957
v -36.79872 110.0243 136.9476
v -41.02892 112.2094 141.1618
v -46.26278 112.1782 138.9939
v -45.1513 109.9656 133.4878
v -81.02969 111.852 138.9937
v -79.81251 97.98222 130.8966
v -80.79493 109.6339 133.4877
v -91.58047 96.04144 130.8966
v -109.5534 78.14402 130.8964
v -95.68375 106.9509 133.4877
v -96.51552 109.0399 138.9937
v -122.6715 82.82121 138.9904
v -120.6655 82.01887 133.4866
v -119.4613 -82.90465 133.4864
v -121.4553 -83.73605 138.9903
v -94.91911 -109.57 138.9935
v -108.4069 -78.86789 130.8963
v -94.11797 -107.4691 133.4874
v -79.39388 -112.1557 138.9935
v -79.19149 -109.9342 133.4874
v -44.62591 -111.9739 138.9935
v -97.20126 -75 133.4875
v -86.39727 -85.44883 133.4875
v -85.63907 -83.30418 138.9936
v -90.17446 -96.50089 130.8963
v -43.54688 -109.7453 133.4874
v -39.39223 -111.9287 141.1615
v -78.37943 -98.26961 130.8963
v -77.70766 -86.60242 133.4875
v -77.56282 -84.37637 138.9936
v -35.19431 -109.6821 136.9473
v -37.22435 -111.9117 146.3954
v -43.11696 -98.04699 130.8963
v -43.71774 -86.35418 133.4875
v -33.29661 -97.97527 134.9642
v -31.73454 -109.6565 145.3002
v -44.82923 -84.13726 138.9936
v -35.36517 -86.29308 136.9473
v -39.59552 -84.09902 141.1615
v -29.22892 -97.94554 144.7848
v -31.90536 -86.26793 145.3002
v -37.42763 -84.0832 146.3954
v -44.82923 -84.13726 138.9936
v -39.59552 -84.09902 141.1615
v -31.73657 -86.09988 205.8702
v -29.22888 -97.94563 203.449
v -31.54669 -109.8333 205.8536
v -77.54208 -84.0584 196.7078
v -37.32153 -84.06164 211.4401
v -85.63907 -83.30418 138.9936
v -85.53075 -82.99785 199.6572
v -50.74329 -83.86269 228.0152
v -59.6147 -82.80859 229.9332
v -37.10767 -111.9161 211.4296
v 40.0444 -111.3477 211.4543
v 34.468 -109.3124 205.8929
v 40.13647 -111.3467 146.3954
v -69.80954 -73.93211 232.1251
v -41.58786 -73.72601 245.1166
v -37.32153 -84.06164 211.4401
v 39.8071 -83.49445 211.4204
v 39.93327 -83.51817 146.3954
v 47.33483 -83.46406 138.9936
v 42.10108 -83.50234 141.1616
v 88.91772 -84.16832 133.4875
v 88.12811 -82.03503 138.9936
v 97.69483 -72.92558 136.7264
v 99.56784 -73.56281 133.4875
v 80.24577 -85.44871 133.4875
v 47.33483 -83.46406 138.9936
v 92.85589 -95.16402 130.8963
v 46.25585 -85.69707 133.4875
v 42.10108 -83.50234 141.1616
v 37.90323 -85.75804 136.9473
v 81.08792 -97.10492 130.8963
v 110.8288 -77.26668 130.8963
v 109.6823 79.74527 130.8966
v 121.9409 -81.1414 133.4864
v 34.44354 -85.78328 145.3002
v 39.8071 -83.49445 211.4204
v 34.24057 -85.58714 205.8387
v -37.32153 -84.06164 211.4401
v -31.73657 -86.09988 205.8702
v -37.42763 -84.0832 146.3954
v 31.93792 -97.49879 144.7848
v 31.93792 -97.49883 203.4492
v 91.44983 97.37824 130.8966
v 95.39335 108.3464 133.4877
v 34.61428 -109.1719 145.3002
v 34.468 -109.3124 205.8929
v 40.13647 -111.3467 146.3954
v 120.7366 83.78207 133.4867
v 80.46694 110.8118 133.4877
v 96.19452 110.4474 138.9937
v 122.7308 84.61347 138.9905
v 80.66933 113.0331 138.9938
v 45.90124 112.8513 138.9939
v 40.66764 112.8061 141.1618
v 38.49976 112.7891 146.3957
v 123.947 -81.94382 138.9903
v 96.95921 -106.0734 133.4874
v 97.79089 -108.1625 138.9935
v 82.0703 -108.7564 133.4875
v 82.30511 -110.9746 138.9936
v 38.38308 112.7934 211.43
v -38.76903 112.225 211.4545
v -33.19267 110.1896 205.8932
v -38.86106 112.224 146.3957
v 45.82593 -97.39738 130.8963
v 46.42675 -109.0883 133.4875
v 36.00558 -97.46906 134.9642
v 38.07413 -109.147 136.9473
v 47.53811 -111.3007 138.9936
v 42.30436 -111.332 141.1615
v 42.30436 -111.332 141.1615
v 47.53811 -111.3007 138.9936
v 82.46749 -111.2754 197.5273
v 97.79089 -108.1625 138.9935
v 97.85694 -108.2901 203.2224
v 40.0444 -111.3477 211.4543
v 63.48194 -105.3077 249.9021
v 26.3428 -109.0196 245.7055
v -37.10767 -111.9161 211.4296
v -23.46602 -109.3835 245.7055
v -60.65548 -106.2143 249.9021
v -94.98333 -109.6986 203.2224
v -79.55196 -112.4587 197.5271
v -94.91911 -109.57 138.9935
v -79.39388 -112.1557 138.9935
v -37.10767 -111.9161 211.4296
v -44.62591 -111.9739 138.9935
v -39.39223 -111.9287 141.1615
v -102.4156 -95.29172 28.04871
v -104.531 -93.23176 34.5259
v -92.66505 -103.5378 34.74609
v -89.00782 -106.1155 28.79395
v -79.86067 -98.0182 -6.59168
v 1.867959 -109.8576 -6.100469
v -66.05282 -90.88757 -23.36051
v 1.740537 -97.70367 -22.72754
v 1.91249 -109.9047 26.47387
v 1.912725 -107.3763 34.21648
v 68.65522 -89.90379 -23.36051
v 82.46034 -96.7534 -6.813593
v 91.83929 -104.9705 28.79371
v 105.2682 -93.8984 28.06508
v 107.3692 -91.84926 34.53273
v 95.47765 -102.368 34.74953
v 102.3549 -87.11898 36.62867
v 93.17265 -95.45785 36.67688
v 1.86331 -99.75328 36.71594
v 88.01566 -81.73012 36.54688
v 93.69147 -78.33199 36.51539
v 80.04339 -82.90726 36.59094
v 31.83413 -83.25933 36.49023
v 1.744443 -83.47906 36.49023
v -90.39864 -96.6223 36.6732
v -29.33259 -83.70602 36.49023
v 1.912725 -107.3763 34.21648
v -92.66505 -103.5378 34.74609
v -104.531 -93.23176 34.5259
v -85.53048 -82.99754 36.54688
v -99.59188 -88.41621 36.62563
v -91.2552 -79.68285 36.51539
v 72.89038 0.966604 5.624765
v 97.67132 1.14762 36.49023
v 93.69147 -78.33199 36.51539
v 68.40604 -78.51668 6.720586
v 66.56069 0.9204321 -0.4379687
v 63.60991 -78.03199 1.672266
v 59.43362 0.8682055 -4.768555
v 58.8703 -76.46387 -2.317734
v 0.306709 98.58707 -22.72738
v -67.37989 90.78152 -23.36035
v -69.42622 -0.07288818 -29.24723
v 1.010772 0.4416821 -35.18066
v 67.32819 91.76527 -23.36027
v 70.70159 0.9506665 -29.24723
v 81.13604 98.89597 -6.591406
v 67.32819 91.76527 -23.36027
v 0.2564746 110.7415 -6.100234
v -67.37989 90.78152 -23.36035
v -81.18493 97.63113 -6.813398
v 90.28319 106.9932 28.79418
v 103.691 96.16926 28.04894
v -90.56391 105.8483 28.79391
v -103.9929 94.77598 28.06512
v -106.094 92.72699 34.53277
v 93.94038 104.4154 34.74633
v 105.8064 94.10949 34.52613
v 0.3002246 110.7892 26.47406
v -94.20223 103.2457 34.74969
v -101.0796 87.9966 36.62887
v 0.3374512 108.2611 34.21668
v 0.3993652 100.6382 36.71617
v 91.67405 97.50011 36.67348
v 100.8673 89.29379 36.62586
v 86.80577 83.87535 36.54699
v 92.53062 80.56059 36.51563
v 30.60804 84.58379 36.49035
v 0.5182714 84.36402 36.49035
v -30.55884 84.13699 36.49035
v -91.89732 96.33559 36.67695
v -78.76805 83.78481 36.59101
v -86.74032 82.6077 36.54695
v -92.4161 79.20965 36.51543
v -101.0796 87.9966 36.62887
v -92.4161 79.20965 36.51543
v -96.39594 -0.2698022 36.49023
v -107.0446 -0.3476538 36.59398
v -113.6105 -0.3957007 34.37707
v -91.2552 -79.68285 36.51539
v -99.59188 -88.41621 36.62563
v -106.094 92.72699 34.53277
v -104.531 -93.23176 34.5259
v -103.9929 94.77598 28.06512
v -102.4156 -95.29172 28.04871
v -112.5806 -0.3881616 27.52383
v -112.5806 -0.3881616 27.52383
v -91.48309 -0.2339429 -12.58008
v -79.86067 -98.0182 -6.59168
v -69.42622 -0.07288818 -29.24723
v -66.05282 -90.88757 -23.36051
v -81.18493 97.63113 -6.813398
v -91.48309 -0.2339429 -12.58008
v -69.42622 -0.07288818 -29.24723
v -67.37989 90.78152 -23.36035
v -65.96993 -79.49809 6.720586
v -91.2552 -79.68285 36.51539
v -96.39594 -0.2698022 36.49023
v -71.61501 -0.08874755 5.624765
v -65.28528 -0.04257568 -0.4379687
v -61.18145 -78.94347 1.672266
v -56.46524 -77.30617 -2.317734
v -58.15825 0.009533691 -4.768555
v 68.40604 -78.51668 6.720586
v 93.69147 -78.33199 36.51539
v 88.01566 -81.73012 36.54688
v 62.09952 -81.91933 8.090586
v 63.60991 -78.03199 1.672266
v 80.04339 -82.90726 36.59094
v 57.1203 -80.84781 1.553242
v 58.8703 -76.46387 -2.317734
v 52.77632 -78.11117 -3.314805
v 53.24448 -83.10297 10.00844
v 31.83413 -83.25933 36.49023
v 48.92952 -82.01559 2.027852
v 45.82874 -78.6816 -3.672617
v 25.12784 -78.8327 -3.672617
v 26.14702 -82.18187 2.027852
v 27.54772 -83.29058 10.00844
v 1.6446 -82.36086 2.027852
v 1.675186 -83.47957 10.00844
v 1.744443 -83.47906 36.49023
v -23.66188 -82.54566 2.027852
v -25.0463 -83.67468 10.00844
v -29.33259 -83.70602 36.49023
v -50.74302 -83.86234 10.00844
v -85.53048 -82.99754 36.54688
v -46.44439 -82.71207 2.027852
v -59.61446 -82.80824 8.090586
v -91.2552 -79.68285 36.51539
v -65.96993 -79.49809 6.720586
v -61.18145 -78.94347 1.672266
v -54.65141 -81.66414 1.553242
v -56.46524 -77.30617 -2.317734
v -50.3479 -78.86433 -3.314805
v -43.39267 -79.3332 -3.672734
v -22.69173 -79.18199 -3.672617
v 44.66796 80.21098 -3.6725
v 23.9671 80.05972 -3.672539
v 24.93726 83.42339 2.027891
v 47.71975 83.58996 2.027891
v 51.62323 79.74215 -3.314687
v 55.92671 82.54183 1.553477
v 57.74057 78.18387 -2.317617
v 62.45679 79.82113 1.6725
v 60.88983 83.68605 8.090703
v 67.24522 80.37574 6.72082
v 92.53062 80.56059 36.51563
v 86.80577 83.87535 36.54699
v 52.01842 84.74011 10.00867
v 30.60804 84.58379 36.49035
v 26.32171 84.55246 10.00859
v 0.5182714 84.36402 36.49035
v 0.4491309 84.36356 10.00859
v 0.434834 83.24449 2.027891
v -30.55884 84.13699 36.49035
v -26.27231 84.1684 10.00859
v -24.87165 83.05972 2.027891
v -51.96911 83.98066 10.00859
v -78.76805 83.78481 36.59101
v -47.65415 82.89332 2.027891
v -23.85239 79.71059 -3.672539
v -44.55329 79.55926 -3.672539
v -51.50102 78.98887 -3.314765
v -55.84497 81.72559 1.553281
v -57.59485 77.34152 -2.317695
v -62.33454 78.90965 1.672422
v -60.82426 82.79715 8.090625
v -86.74032 82.6077 36.54695
v -67.13063 79.39441 6.720781
v -92.4161 79.20965 36.51543
v 70.70159 0.9506665 -29.24723
v 68.65522 -89.90379 -23.36051
v 1.010772 0.4416821 -35.18066
v -69.42622 -0.07288818 -29.24723
v -66.05282 -90.88757 -23.36051
v -30.66251 98.37613 203.4493
v -32.96516 86.46426 205.8389
v 33.01194 86.97707 205.8704
v 30.50436 98.82293 203.4493
v -33.19267 110.1896 205.8932
v 32.82202 110.7104 205.8538
v 72.89038 0.966604 5.624765
v 92.53062 80.56059 36.51563
v 97.67132 1.14762 36.49023
v 67.24522 80.37574 6.72082
v 66.56069 0.9204321 -0.4379687
v 62.45679 79.82113 1.6725
v 57.74057 78.18387 -2.317617
v 59.43362 0.8682055 -4.768555
v 43.94183 -73.10129 245.1166
v -41.58786 -73.72601 245.1166
v -46.44454 -82.71242 235.9959
v 48.92929 -82.01574 235.9959
v -71.61501 -0.08874755 5.624765
v -96.39594 -0.2698022 36.49023
v -92.4161 79.20965 36.51543
v -67.13063 79.39441 6.720781
v -65.28528 -0.04257568 -0.4379687
v -62.33454 78.90965 1.672422
v -58.15825 0.009533691 -4.768555
v -57.59485 77.34152 -2.317695
v 23.9671 80.05972 -3.672539
v 0.434834 83.24449 2.027891
v 24.93726 83.42339 2.027891
v 0.4432715 79.88801 -3.672539
v -24.87165 83.05972 2.027891
v -23.85239 79.71059 -3.672539
v -42.66653 73.97839 245.1168
v 42.86323 74.60308 245.1168
v 47.71999 83.58957 235.996
v -47.65395 82.89301 235.996
v 88.0153 -81.73039 199.6572
v 72.16347 -72.89512 232.1251
v 62.09937 -81.91957 229.9332
v 97.07053 -72.71324 203.0278
v 88.12811 -82.03503 138.9936
v 95.99194 74.99113 203.0279
v 71.08503 74.80933 232.1252
v 97.07053 -72.71308 141.2608
v 97.69483 -72.92558 136.7264
v 95.99202 74.99129 141.2611
v 86.80616 83.87519 199.6573
v 60.89007 83.68582 229.9333
v 86.80612 83.87519 141.2611
v 87.0228 84.48793 136.7265
v 96.61311 75.21285 136.7265
v 99.56784 -73.56281 133.4875
v 98.47671 75.87738 133.4877
v 13.85175 -16.73672 0
v 20.46675 -1.005818 247.0372
v 20.46679 -1.005505 0
v 13.85171 -16.73711 247.0372
v -0.8774316 -22.66379 0
v -0.8775098 -22.66414 247.0372
v -15.0927 -15.31472 0
v -15.09278 -15.315 247.0372
v -20.46688 1.005588 0
v -20.46696 1.005198 247.0372
v -13.85188 16.73688 0
v -13.85188 16.73656 247.0372
v 0.8774121 22.66399 0
v 0.8772949 22.66364 247.0372
v 15.09265 15.31473 0
v 15.09261 15.31453 247.0372
v 20.46679 -1.005505 0
v 20.46675 -1.005818 247.0372
v 51.62323 79.74215 -3.314687
v 57.74057 78.18387 -2.317617
v 59.43362 0.8682055 -4.768555
v 51.50917 0.810354 -7.366796
v 44.66796 80.21098 -3.6725
v 42.78733 0.7467211 -8.23289
v 23.9671 80.05972 -3.672539
v 23.75179 0.6076196 -8.23289
v 0.4432715 79.88801 -3.672539
v 1.010772 0.441604 -8.23289
v -23.85239 79.71059 -3.672539
v -22.47634 0.2700806 -8.23289
v -41.51196 0.1310962 -8.23289
v -44.55329 79.55926 -3.672539
v -51.50102 78.98887 -3.314765
v -50.23376 0.06734619 -7.366796
v -58.15825 0.009533691 -4.768555
v -57.59485 77.34152 -2.317695
v -96.58161 109.1672 203.2226
v -122.6715 82.82121 138.9904
v -96.51552 109.0399 138.9937
v -121.4829 83.03199 212.4952
v -62.20665 106.1849 249.9024
v -121.4553 -83.73605 138.9903
v -81.86032 81.1116 259.9237
v -120.2638 -83.92973 212.4951
v -80.67325 -81.43085 259.9234
v -94.98333 -109.6986 203.2224
v -94.91911 -109.57 138.9935
v -60.65548 -106.2143 249.9021
v -56.73813 81.29496 271.4883
v -80.67325 -81.43085 259.9234
v 34.24057 -85.58714 205.8387
v -31.73657 -86.09988 205.8702
v -29.22888 -97.94563 203.449
v 31.93792 -97.49883 203.4492
v 34.468 -109.3124 205.8929
v -31.54669 -109.8333 205.8536
v 80.82733 113.336 197.5274
v 38.38308 112.7934 211.43
v 80.66933 113.0331 138.9938
v 45.90124 112.8513 138.9939
v 40.66764 112.8061 141.1618
v 96.19452 110.4474 138.9937
v 96.25874 110.5758 203.2226
v 38.38308 112.7934 211.43
v 61.93093 107.0916 249.9024
v 24.7414 110.2606 245.7058
v -25.06751 109.8968 245.7058
v -38.76903 112.225 211.4545
v -62.20665 106.1849 249.9024
v -96.58161 109.1672 203.2226
v -81.19219 112.1526 197.5274
v -96.51552 109.0399 138.9937
v -46.26278 112.1782 138.9939
v -41.02892 112.2094 141.1618
vt 0.2404785 0.9516602
vt 0.2435303 0.9516602
vt 0.2435303 0.9501953
vt 0.2404785 0.9516602
vt 0.2410889 0.9516602
vt 0.2404785 0.9501953
vt 0.2412109 0.9506836
vt 0.2427979 0.9506836
vt 0.2429199 0.9516602
vt 0.2429199 0.9516602
vt 0.2410889 0.9516602
vt 0.2435303 0.9516602
vt 0.2435303 0.9501953
vt 0.2404785 0.9516602
vt 0.2404785 0.9516602
vt 0.2404785 0.9501953
vt 0.2412109 0.9506836
vt 0.2427979 0.9506836
vt 0.2435303 0.9516602
vt 0.2435303 0.9501953
vt 0.2435303 0.9516602
vt 0.2420654 0.9516602
vt 0.2404785 0.9501953
vt 0.2403564 0.9511719
vt 0.2406006 0.9516602
vt 0.2403564 0.9516602
vt 0.2435303 0.9516602
vt 0.2420654 0.9516602
vt 0.2435303 0.9501953
vt 0.2436523 0.9511719
vt 0.2436523 0.9516602
vt 0.2435303 0.9516602
vt 0.2404785 0.9501953
vt 0.2404785 0.9516602
vt 0.2435303 0.9516602
vt 0.2404785 0.9501953
vt 0.2404785 0.9516602
vt 0.2404785 0.9516602
vt 0.2435303 0.9516602
vt 0.2435303 0.9501953
vt 0.2473145 0.9521484
vt 0.2473145 0.9501953
vt 0.2467041 0.9501953
vt 0.2467041 0.9521484
vt 0.2457275 0.9521484
vt 0.2457275 0.9501953
vt 0.2454834 0.9501953
vt 0.2454834 0.9521484
vt 0.2454834 0.9521484
vt 0.2454834 0.9501953
vt 0.2454834 0.9521484
vt 0.2454834 0.9521484
vt 0.2454834 0.9501953
vt 0.2454834 0.9521484
vt 0.2454834 0.9521484
vt 0.2454834 0.9501953
vt 0.2452393 0.9521484
vt 0.2453613 0.9501953
vt 0.2443848 0.9501953
vt 0.2443848 0.9521484
vt 0.2437744 0.9501953
vt 0.2437744 0.9521484
vt 0.2446289 0.9501953
vt 0.2456055 0.9506836
vt 0.244751 0.9506836
vt 0.2456055 0.9511719
vt 0.2463379 0.9506836
vt 0.24646 0.9501953
vt 0.2440186 0.9501953
vt 0.2437744 0.9521484
vt 0.2437744 0.9501953
vt 0.2440186 0.9521484
vt 0.2442627 0.9521484
vt 0.2442627 0.9501953
vt 0.2446289 0.9521484
vt 0.2446289 0.9501953
vt 0.2456055 0.9511719
vt 0.2454834 0.9501953
vt 0.24646 0.9521484
vt 0.24646 0.9501953
vt 0.2468262 0.9521484
vt 0.2468262 0.9501953
vt 0.2470703 0.9501953
vt 0.2470703 0.9521484
vt 0.2473145 0.9521484
vt 0.2473145 0.9501953
vt 0.2408447 0.9516602
vt 0.2436523 0.9511719
vt 0.2435303 0.9506836
vt 0.2420654 0.9516602
vt 0.2434082 0.9516602
vt 0.2436523 0.9516602
vt 0.2420654 0.9516602
vt 0.2406006 0.9516602
vt 0.2403564 0.9516602
vt 0.2403564 0.9511719
vt 0.2431641 0.9516602
vt 0.2404785 0.9506836
vt 0.2431641 0.9516602
vt 0.2434082 0.9516602
vt 0.2407227 0.9516602
vt 0.2407227 0.9516602
vt 0.2434082 0.9516602
vt 0.2408447 0.9516602
vt 0.2432861 0.9506836
vt 0.2431641 0.9516602
vt 0.2404785 0.9506836
vt 0.2407227 0.9506836
vt 0.2407227 0.9506836
vt 0.2403564 0.9511719
vt 0.2435303 0.9506836
vt 0.2432861 0.9506836
vt 0.2406006 0.9511719
vt 0.2403564 0.9516602
vt 0.2406006 0.9516602
vt 0.2432861 0.9506836
vt 0.2407227 0.9506836
vt 0.2407227 0.9506836
vt 0.2434082 0.9511719
vt 0.2436523 0.9511719
vt 0.2436523 0.9516602
vt 0.2427979 0.9506836
vt 0.2427979 0.9511719
vt 0.2410889 0.9506836
vt 0.2427979 0.9516602
vt 0.2434082 0.9516602
vt 0.2404785 0.9506836
vt 0.2431641 0.9516602
vt 0.2403564 0.9511719
vt 0.2406006 0.9511719
vt 0.2403564 0.9516602
vt 0.2412109 0.9516602
vt 0.2406006 0.9521484
vt 0.2412109 0.9516602
vt 0.2412109 0.9516602
vt 0.2427979 0.9516602
vt 0.2427979 0.9516602
vt 0.2426758 0.9516602
vt 0.2426758 0.9511719
vt 0.2426758 0.9516602
vt 0.2427979 0.9521484
vt 0.2434082 0.9521484
vt 0.2436523 0.9521484
vt 0.2425537 0.9511719
vt 0.2425537 0.9516602
vt 0.2414551 0.9511719
vt 0.241333 0.9511719
vt 0.2425537 0.9511719
vt 0.2414551 0.9516602
vt 0.241333 0.9516602
vt 0.2414551 0.9511719
vt 0.2426758 0.9521484
vt 0.2425537 0.9516602
vt 0.2425537 0.9511719
vt 0.2427979 0.9521484
vt 0.2426758 0.9521484
vt 0.2434082 0.9521484
vt 0.241333 0.9521484
vt 0.241333 0.9516602
vt 0.2425537 0.9516602
vt 0.2427979 0.9521484
vt 0.2436523 0.9521484
vt 0.2436523 0.9516602
vt 0.2437744 0.9516602
vt 0.2412109 0.9521484
vt 0.2412109 0.9521484
vt 0.2406006 0.9521484
vt 0.2412109 0.9521484
vt 0.2426758 0.9521484
vt 0.2434082 0.9521484
vt 0.2403564 0.9521484
vt 0.2403564 0.9521484
vt 0.241333 0.9521484
vt 0.2427979 0.9521484
vt 0.2402344 0.9516602
vt 0.2404785 0.9516602
vt 0.2436523 0.9516602
vt 0.2414551 0.9516602
vt 0.2414551 0.9516602
vt 0.2414551 0.9511719
vt 0.241333 0.9516602
vt 0.241333 0.9521484
vt 0.241333 0.9516602
vt 0.2412109 0.9521484
vt 0.2412109 0.9521484
vt 0.2406006 0.9516602
vt 0.2406006 0.9521484
vt 0.2406006 0.9521484
vt 0.2403564 0.9521484
vt 0.2402344 0.9516602
vt 0.2403564 0.9521484
vt 0.2403564 0.9521484
vt 0.2403564 0.9516602
vt 0.2402344 0.9516602
vt 0.2437744 0.9516602
vt 0.2436523 0.9516602
vt 0.2436523 0.9521484
vt 0.2437744 0.9516602
vt 0.2436523 0.9521484
vt 0.2434082 0.9521484
vt 0.2434082 0.9521484
vt 0.2427979 0.9521484
vt 0.2437744 0.9516602
vt 0.2436523 0.9521484
vt 0.2436523 0.9521484
vt 0.2436523 0.9521484
vt 0.2427979 0.9521484
vt 0.2426758 0.9516602
vt 0.2434082 0.9521484
vt 0.2434082 0.9521484
vt 0.2434082 0.9521484
vt 0.2426758 0.9521484
vt 0.2427979 0.9516602
vt 0.2427979 0.9521484
vt 0.2427979 0.9521484
vt 0.2426758 0.9521484
vt 0.2425537 0.9516602
vt 0.2427979 0.9521484
vt 0.2426758 0.9521484
vt 0.2426758 0.9516602
vt 0.2425537 0.9516602
vt 0.2425537 0.9516602
vt 0.2427979 0.9516602
vt 0.2427979 0.9516602
vt 0.2427979 0.9516602
vt 0.2425537 0.9511719
vt 0.2425537 0.9511719
vt 0.2425537 0.9511719
vt 0.2434082 0.9511719
vt 0.2427979 0.9511719
vt 0.2436523 0.9516602
vt 0.2436523 0.9511719
vt 0.2432861 0.9506836
vt 0.2435303 0.9506836
vt 0.2426758 0.9511719
vt 0.241333 0.9511719
vt 0.2414551 0.9511719
vt 0.2412109 0.9516602
vt 0.2408447 0.9516602
vt 0.2434082 0.9516602
vt 0.2427979 0.9506836
vt 0.2410889 0.9506836
vt 0.241333 0.9516602
vt 0.2412109 0.9516602
vt 0.2412109 0.9516602
vt 0.2403564 0.9521484
vt 0.2403564 0.9521484
vt 0.2404785 0.9516602
vt 0.2402344 0.9516602
vt 0.2406006 0.9521484
vt 0.2412109 0.9521484
vt 0.2403564 0.9521484
vt 0.2412109 0.9521484
vt 0.241333 0.9516602
vt 0.241333 0.9521484
vt 0.2406006 0.9521484
vt 0.2402344 0.9516602
vt 0.2437744 0.9516602
vt 0.2402344 0.9516602
vt 0.2414551 0.9516602
vt 0.241333 0.9511719
vt 0.2414551 0.9511719
vt 0.2426758 0.9511719
vt 0.2425537 0.9511719
vt 0.2427979 0.9516602
vt 0.2414551 0.9516602
vt 0.2414551 0.9511719
vt 0.2436523 0.9521484
vt 0.2436523 0.9521484
vt 0.2414551 0.9516602
vt 0.2414551 0.9511719
vt 0.241333 0.9516602
vt 0.2437744 0.9516602
vt 0.2434082 0.9521484
vt 0.2436523 0.9521484
vt 0.2436523 0.9516602
vt 0.2434082 0.9521484
vt 0.2427979 0.9521484
vt 0.2426758 0.9516602
vt 0.2426758 0.9516602
vt 0.2403564 0.9516602
vt 0.2403564 0.9521484
vt 0.2403564 0.9521484
vt 0.2406006 0.9521484
vt 0.2406006 0.9521484
vt 0.2426758 0.9511719
vt 0.241333 0.9511719
vt 0.2414551 0.9511719
vt 0.2412109 0.9516602
vt 0.2412109 0.9521484
vt 0.2412109 0.9521484
vt 0.241333 0.9521484
vt 0.241333 0.9521484
vt 0.2412109 0.9521484
vt 0.241333 0.9516602
vt 0.2412109 0.9516602
vt 0.2412109 0.9516602
vt 0.2406006 0.9511719
vt 0.2403564 0.9516602
vt 0.2403564 0.9511719
vt 0.2412109 0.9511719
vt 0.2404785 0.9501953
vt 0.2412109 0.9506836
vt 0.2427979 0.9506836
vt 0.2427979 0.9506836
vt 0.2435303 0.9501953
vt 0.2436523 0.9511719
vt 0.2434082 0.9511719
vt 0.2436523 0.9516602
vt 0.2434082 0.9516602
vt 0.2427979 0.9511719
vt 0.2427979 0.9516602
vt 0.2427979 0.9516602
vt 0.2437744 0.9516602
vt 0.2437744 0.9521484
vt 0.2440186 0.9521484
vt 0.2440186 0.9516602
vt 0.2437744 0.9506836
vt 0.2456055 0.9511719
vt 0.2437744 0.9501953
vt 0.2456055 0.9511719
vt 0.2456055 0.9516602
vt 0.2456055 0.9521484
vt 0.2473145 0.9501953
vt 0.2473145 0.9506836
vt 0.2470703 0.9516602
vt 0.2473145 0.9516602
vt 0.2473145 0.9521484
vt 0.2470703 0.9521484
vt 0.2473145 0.9521484
vt 0.2470703 0.9521484
vt 0.2456055 0.9521484
vt 0.2470703 0.9521484
vt 0.2473145 0.9521484
vt 0.2469482 0.9521484
vt 0.2460938 0.9521484
vt 0.2456055 0.9521484
vt 0.2440186 0.9521484
vt 0.2449951 0.9521484
vt 0.2456055 0.9521484
vt 0.2440186 0.9521484
vt 0.2437744 0.9521484
vt 0.2440186 0.9521484
vt 0.2437744 0.9521484
vt 0.2437744 0.9521484
vt 0.2443848 0.9501953
vt 0.2454834 0.9501953
vt 0.2454834 0.9521484
vt 0.2443848 0.9521484
vt 0.2441406 0.9501953
vt 0.2441406 0.9521484
vt 0.2437744 0.9501953
vt 0.2437744 0.9521484
vt 0.2454834 0.9511719
vt 0.2473145 0.9521484
vt 0.2473145 0.9501953
vt 0.2454834 0.9501953
vt 0.2437744 0.9521484
vt 0.2437744 0.9501953
vt 0.2437744 0.9506836
vt 0.2437744 0.9501953
vt 0.2454834 0.9511719
vt 0.2473145 0.9501953
vt 0.2473145 0.9506836
vt 0.2440186 0.9516602
vt 0.2437744 0.9516602
vt 0.2470703 0.9516602
vt 0.2473145 0.9516602
vt 0.2473145 0.9521484
vt 0.2440186 0.9521484
vt 0.2437744 0.9521484
vt 0.2454834 0.9516602
vt 0.2470703 0.9521484
vt 0.2473145 0.9521484
vt 0.2454834 0.9521484
vt 0.2454834 0.9521484
vt 0.2440186 0.9521484
vt 0.2437744 0.9521484
vt 0.2440186 0.9521484
vt 0.2437744 0.9521484
vt 0.2449951 0.9521484
vt 0.2454834 0.9521484
vt 0.2460938 0.9521484
vt 0.2470703 0.9521484
vt 0.2469482 0.9521484
vt 0.2470703 0.9521484
vt 0.2473145 0.9521484
vt 0.2454834 0.9521484
vt 0.2454834 0.9521484
vt 0.2454834 0.9501953
vt 0.2454834 0.9501953
vt 0.2454834 0.9501953
vt 0.2454834 0.9521484
vt 0.2454834 0.9521484
vt 0.2454834 0.9521484
vt 0.2454834 0.9521484
vt 0.2452393 0.9521484
vt 0.2457275 0.9521484
vt 0.2453613 0.9501953
vt 0.2457275 0.9501953
vt 0.2467041 0.9501953
vt 0.2467041 0.9521484
vt 0.2473145 0.9501953
vt 0.2473145 0.9521484
vt 0.2443848 0.9521484
vt 0.2443848 0.9501953
vt 0.2437744 0.9501953
vt 0.2437744 0.9521484
vt 0.2467041 0.9521484
vt 0.2454834 0.9521484
vt 0.2454834 0.9501953
vt 0.2467041 0.9501953
vt 0.2469482 0.9501953
vt 0.2469482 0.9521484
vt 0.2473145 0.9521484
vt 0.2473145 0.9501953
vt 0.2473145 0.9506836
vt 0.2473145 0.9521484
vt 0.2470703 0.9521484
vt 0.2470703 0.9506836
vt 0.2473145 0.9506836
vt 0.2469482 0.9521484
vt 0.2470703 0.9506836
vt 0.2473145 0.9501953
vt 0.2470703 0.9501953
vt 0.2468262 0.9511719
vt 0.2460938 0.9521484
vt 0.2468262 0.9506836
vt 0.2468262 0.9501953
vt 0.24646 0.9501953
vt 0.2463379 0.9506836
vt 0.2462158 0.9511719
vt 0.2456055 0.9506836
vt 0.2456055 0.9511719
vt 0.2456055 0.9521484
vt 0.244751 0.9506836
vt 0.244751 0.9511719
vt 0.2449951 0.9521484
vt 0.2442627 0.9511719
vt 0.2440186 0.9521484
vt 0.2442627 0.9506836
vt 0.2440186 0.9506836
vt 0.2437744 0.9521484
vt 0.2437744 0.9506836
vt 0.2437744 0.9506836
vt 0.2440186 0.9506836
vt 0.2437744 0.9501953
vt 0.2440186 0.9501953
vt 0.2442627 0.9501953
vt 0.2446289 0.9501953
vt 0.2442627 0.9501953
vt 0.2446289 0.9501953
vt 0.244751 0.9506836
vt 0.2442627 0.9506836
vt 0.2440186 0.9501953
vt 0.2440186 0.9506836
vt 0.2437744 0.9501953
vt 0.2437744 0.9506836
vt 0.2440186 0.9506836
vt 0.2437744 0.9506836
vt 0.2437744 0.9521484
vt 0.2440186 0.9521484
vt 0.2442627 0.9511719
vt 0.2449951 0.9521484
vt 0.244751 0.9511719
vt 0.2454834 0.9521484
vt 0.2454834 0.9511719
vt 0.2454834 0.9506836
vt 0.2460938 0.9521484
vt 0.2462158 0.9511719
vt 0.2463379 0.9506836
vt 0.2468262 0.9511719
vt 0.2469482 0.9521484
vt 0.2468262 0.9506836
vt 0.24646 0.9501953
vt 0.2468262 0.9501953
vt 0.2470703 0.9501953
vt 0.2470703 0.9506836
vt 0.2473145 0.9501953
vt 0.2473145 0.9506836
vt 0.2470703 0.9506836
vt 0.2470703 0.9521484
vt 0.2473145 0.9506836
vt 0.2473145 0.9521484
vt 0.2473145 0.9501953
vt 0.2473145 0.9521484
vt 0.2454834 0.9501953
vt 0.2437744 0.9501953
vt 0.2437744 0.9521484
vt 0.2414551 0.9511719
vt 0.2414551 0.9511719
vt 0.2425537 0.9511719
vt 0.2425537 0.9511719
vt 0.2414551 0.9511719
vt 0.2425537 0.9511719
vt 0.2467041 0.9501953
vt 0.2454834 0.9521484
vt 0.2454834 0.9501953
vt 0.2467041 0.9521484
vt 0.2469482 0.9501953
vt 0.2469482 0.9521484
vt 0.2473145 0.9521484
vt 0.2473145 0.9501953
vt 0.2407227 0.9516602
vt 0.2434082 0.9516602
vt 0.2432861 0.9506836
vt 0.2407227 0.9506836
vt 0.2443848 0.9501953
vt 0.2454834 0.9501953
vt 0.2454834 0.9521484
vt 0.2443848 0.9521484
vt 0.2441406 0.9501953
vt 0.2441406 0.9521484
vt 0.2437744 0.9501953
vt 0.2437744 0.9521484
vt 0.2446289 0.9501953
vt 0.2454834 0.9506836
vt 0.244751 0.9506836
vt 0.2454834 0.9511719
vt 0.2463379 0.9506836
vt 0.24646 0.9501953
vt 0.2407227 0.9516602
vt 0.2434082 0.9516602
vt 0.2432861 0.9506836
vt 0.2407227 0.9506836
vt 0.2403564 0.9511719
vt 0.2431641 0.9516602
vt 0.2404785 0.9506836
vt 0.2420654 0.9516602
vt 0.2403564 0.9516602
vt 0.2420654 0.9516602
vt 0.2408447 0.9516602
vt 0.2406006 0.9516602
vt 0.2404785 0.9516602
vt 0.2434082 0.9516602
vt 0.2436523 0.9511719
vt 0.2435303 0.9506836
vt 0.2436523 0.9516602
vt 0.2436523 0.9521484
vt 0.2436523 0.9516602
vt 0.2402344 0.9516602
vt 0.2437744 0.9516602
vt 0.8242188 0.9780273
vt 0.8237305 0.9697266
vt 0.8237305 0.9780273
vt 0.8242188 0.9697266
vt 0.824707 0.9780273
vt 0.824707 0.9697266
vt 0.824707 0.9780273
vt 0.824707 0.9697266
vt 0.8251953 0.9780273
vt 0.8251953 0.9697266
vt 0.8256836 0.9780273
vt 0.8256836 0.9697266
vt 0.8256836 0.9780273
vt 0.8256836 0.9697266
vt 0.8261719 0.9780273
vt 0.8261719 0.9697266
vt 0.8266602 0.9780273
vt 0.8266602 0.9697266
vt 0.2440186 0.9521484
vt 0.2437744 0.9521484
vt 0.2437744 0.9501953
vt 0.2440186 0.9501953
vt 0.2442627 0.9521484
vt 0.2442627 0.9501953
vt 0.2446289 0.9521484
vt 0.2446289 0.9501953
vt 0.2454834 0.9511719
vt 0.2454834 0.9501953
vt 0.24646 0.9521484
vt 0.24646 0.9501953
vt 0.2468262 0.9501953
vt 0.2468262 0.9521484
vt 0.2470703 0.9521484
vt 0.2470703 0.9501953
vt 0.2473145 0.9501953
vt 0.2473145 0.9521484
vt 0.2403564 0.9511719
vt 0.2406006 0.9516602
vt 0.2403564 0.9516602
vt 0.2420654 0.9516602
vt 0.2404785 0.9501953
vt 0.2435303 0.9516602
vt 0.2435303 0.9516602
vt 0.2420654 0.9516602
vt 0.2404785 0.9516602
vt 0.2436523 0.9511719
vt 0.2436523 0.9516602
vt 0.2435303 0.9501953
vt 0.2404785 0.9516602
vt 0.2404785 0.9516602
vt 0.2414551 0.9511719
vt 0.2425537 0.9511719
vt 0.2425537 0.9511719
vt 0.2414551 0.9511719
vt 0.2414551 0.9511719
vt 0.2425537 0.9511719
vt 0.2434082 0.9511719
vt 0.2427979 0.9511719
vt 0.2434082 0.9516602
vt 0.2427979 0.9516602
vt 0.2427979 0.9516602
vt 0.2436523 0.9516602
vt 0.2436523 0.9511719
vt 0.2427979 0.9506836
vt 0.2435303 0.9501953
vt 0.2427979 0.9506836
vt 0.2412109 0.9506836
vt 0.2412109 0.9511719
vt 0.2404785 0.9501953
vt 0.2403564 0.9511719
vt 0.2406006 0.9511719
vt 0.2403564 0.9516602
vt 0.2412109 0.9516602
vt 0.2412109 0.9516602
vn -0.574707 -0.3076172 0.7583008
vn -0.1984863 -0.3049316 0.9316406
vn -0.2109375 -0.855957 0.4719238
vn -0.2028809 0.302002 0.9316406
vn -0.004108429 0.362793 0.9316406
vn -0.2235107 0.8525391 0.4719238
vn -0.008483887 0.9365234 0.3508301
vn -0.007514954 0.9365234 0.3503418
vn 0.002555847 -0.3620605 0.9321289
vn -0.002645493 0.3618164 0.9321289
vn 0.004150391 -0.362793 0.9316406
vn 0.1984863 0.3049316 0.9316406
vn 0.2109375 0.855957 0.4719238
vn 0.2028809 -0.302002 0.9316406
vn 0.574707 0.3076172 0.7583008
vn 0.2233887 -0.8530273 0.4716797
vn 0.008377075 -0.9365234 0.3510742
vn 0.007518768 -0.9365234 0.3503418
vn -0.1984863 -0.3049316 0.9316406
vn -0.2109375 -0.855957 0.4719238
vn 0.5791016 -0.2993164 0.7583008
vn 0.8803711 -0.3513184 0.3183594
vn 0.2233887 -0.8530273 0.4716797
vn 0.3679199 -0.9199219 0.1343994
vn 0.9238281 -0.2680664 -0.2724609
vn 0.2971191 -0.925293 -0.2364502
vn 0.9111328 0.2937012 -0.2888184
vn 0.8754883 0.3635254 0.3178711
vn 0.2109375 0.855957 0.4719238
vn 0.354248 0.9257813 0.131958
vn 0.2871094 0.9287109 -0.2347412
vn 0.5791016 -0.2993164 0.7583008
vn 0.2233887 -0.8530273 0.4716797
vn 0.2028809 -0.302002 0.9316406
vn -0.5791016 0.2993164 0.7583008
vn -0.2235107 0.8525391 0.4719238
vn -0.2028809 0.302002 0.9316406
vn 0.574707 0.3076172 0.7583008
vn 0.1984863 0.3049316 0.9316406
vn 0.2109375 0.855957 0.4719238
vn 0.3591309 0.4711914 -0.8056641
vn 0.4182129 0.00305748 -0.9082031
vn 0.7963867 0.006084442 -0.6044922
vn 0.578125 0.6699219 -0.4660645
vn 0.6967773 0.637207 -0.3291016
vn 0.9140625 0.00686264 -0.4055176
vn 0.8535156 0.006523132 0.5209961
vn 0.6704102 0.4873047 0.5595703
vn 0.05123901 0.03320313 0.9980469
vn 0.05728149 0.0004122257 0.9985352
vn 0.05184937 -0.03237915 0.9980469
vn 0.6791992 -0.4775391 0.5571289
vn -0.01009369 -7.43866E-05 1
vn -0.004619598 -0.007965088 1
vn -0.004737854 0.007987976 1
vn 0.8535156 0.006523132 0.5209961
vn 0.7050781 -0.6254883 -0.3339844
vn 0.9140625 0.00686264 -0.4055176
vn 0.7963867 0.006084442 -0.6044922
vn 0.5874023 -0.659668 -0.46875
vn 0.4182129 0.00305748 -0.9082031
vn 0.3657227 -0.4658203 -0.8056641
vn -0.0052948 0.7119141 0.7021484
vn -0.006896973 0.9443359 0.3293457
vn -0.006896973 0.9443359 0.3293457
vn -0.005233765 0.7119141 0.7021484
vn -0.006893158 0.9443359 0.3293457
vn -0.005214691 0.7138672 0.7001953
vn 0.2064209 0.001494408 0.9785156
vn 0.3535156 0.5224609 0.7758789
vn 0.4182129 0.003053665 0.9082031
vn 0.1702881 0.6411133 0.7485352
vn 0.04248047 0.6972656 0.7158203
vn 0.05096436 0.0003745556 0.9985352
vn -0.0052948 0.7119141 0.7021484
vn -7.152557E-07 -1.013279E-06 1
vn -0.005233765 0.7119141 0.7021484
vn 0 -7.748604E-07 1
vn -0.005214691 0.7138672 0.7001953
vn 0 -6.556511E-07 1
vn -0.05267334 0.6962891 0.7158203
vn -0.0496521 -0.0003633499 0.9985352
vn -0.2064209 -0.001507759 0.9785156
vn -0.1795654 0.6386719 0.7485352
vn -0.361084 0.5170898 0.7758789
vn -0.4182129 -0.003055573 0.9082031
vn 0.6801758 0.3342285 -0.6523438
vn 0.3193359 0.9394531 -0.1231079
vn 0.2248535 0.9379883 -0.2631836
vn 0.878418 0.3500977 -0.3254395
vn 0.9311523 0.2498779 -0.2658691
vn 0.2580566 0.9345703 -0.2452393
vn 0.8833008 -0.3371582 -0.3254395
vn 0.9331055 -0.2402344 -0.2668457
vn 0.2663574 -0.9311523 -0.25
vn 0.3334961 -0.9345703 -0.12323
vn 0.6850586 -0.3242188 -0.6523438
vn 0.2382813 -0.9350586 -0.2629395
vn 0.6850586 -0.3242188 -0.6523438
vn 0.04934692 0.3295898 -0.9428711
vn 0.0541687 -0.3288574 -0.9428711
vn -0.05413818 0.3283691 -0.9428711
vn -0.04937744 -0.329834 -0.9428711
vn -0.6801758 -0.3342285 -0.6523438
vn -0.04232788 -0.9370117 -0.3464355
vn -0.6850586 0.3237305 -0.6523438
vn -0.2381592 0.9350586 -0.2626953
vn -0.05599976 0.9365234 -0.3466797
vn -0.05407715 0.9931641 -0.1016846
vn -0.3342285 0.9345703 -0.1209717
vn -0.2244873 -0.9384766 -0.2626953
vn 0.04229736 0.9370117 -0.3466797
vn -0.08258057 0.9960938 -0.02775574
vn -0.2790527 0.9453125 -0.1676025
vn -0.0317688 0.9960938 -0.08148193
vn -0.03945923 -0.9941406 -0.1015015
vn 0.05407715 -0.9931641 -0.1016846
vn 0.05603027 -0.9360352 -0.3469238
vn -0.06829834 -0.9970703 -0.02772522
vn -0.3200684 -0.9394531 -0.1208496
vn -0.3215332 -0.9443359 -0.07171631
vn -0.09295654 -0.9931641 -0.0692749
vn -0.09295654 -0.9931641 -0.0692749
vn 0.1139526 -0.9892578 -0.09295654
vn -0.06774902 -0.9975586 -0.01526642
vn -0.06228638 -0.9956055 -0.06988525
vn 0.2382813 -0.9350586 -0.2629395
vn 0.6850586 -0.3242188 -0.6523438
vn 0.3334961 -0.9345703 -0.12323
vn 0.08233643 -0.9960938 -0.02781677
vn 0.2663574 -0.9311523 -0.25
vn 0.3034668 -0.9511719 0.05499268
vn 0.09558105 -0.9375 -0.3339844
vn 0.1383057 -0.9819336 -0.1307373
vn 0.282959 -0.9306641 -0.2313232
vn -0.007686615 -0.9970703 -0.07525635
vn -0.04953003 -0.9970703 -0.05679321
vn -0.3312988 -0.940918 -0.06866455
vn -0.09295654 -0.9931641 -0.0692749
vn -0.239624 -0.9389648 -0.24646
vn -0.06051636 -0.9389648 -0.338623
vn -0.05874634 -0.9414063 -0.3325195
vn -0.3027344 -0.8891602 -0.3435059
vn -0.3959961 -0.8916016 -0.2196045
vn -0.6904297 -0.7099609 -0.1398926
vn 0.4069824 -0.887207 -0.2181396
vn 0.1139526 -0.9892578 -0.09295654
vn -0.9975586 -0.01500702 0.06481934
vn 0.7001953 -0.7001953 -0.1402588
vn 0.3034668 -0.9511719 0.05499268
vn 0.9985352 -0.05554199 -0.01293945
vn -0.4931641 -0.7128906 -0.4985352
vn -0.9814453 -0.07562256 -0.1749268
vn -0.4064941 0.887207 -0.2172852
vn -0.1333008 -0.7060547 -0.6958008
vn -0.7353516 -0.05349731 -0.675293
vn -0.0440979 -0.706543 -0.706543
vn 0.503418 -0.7055664 -0.498291
vn 0.282959 -0.9306641 -0.2313232
vn -0.699707 0.7006836 -0.1398926
vn -0.2347412 -0.0458374 -0.9711914
vn -0.2225342 -0.6533203 -0.7236328
vn -0.8793945 -0.3251953 -0.3479004
vn -0.6425781 -0.2376709 -0.7285156
vn 0.1436768 -0.703125 -0.6962891
vn 0.1383057 -0.9819336 -0.1307373
vn 0.05435181 -0.7050781 -0.7070313
vn 0.1695557 -0.0637207 -0.9833984
vn -0.503418 0.7060547 -0.4978027
vn -0.01940918 -0.05792236 -0.9980469
vn 0.2320557 -0.6499023 -0.7236328
vn 0.2663574 -0.9311523 -0.25
vn 0.6757813 -0.04299927 -0.7358398
vn -0.1429443 0.7036133 -0.6958008
vn 0.6459961 -0.2285156 -0.7280273
vn 0.9331055 -0.2402344 -0.2668457
vn 0.9311523 0.2498779 -0.2658691
vn 0.9716797 -0.03808594 -0.2341309
vn 0.6894531 0.7104492 -0.1395264
vn 0.3955078 0.8920898 -0.2194824
vn 0.08203125 0.9946289 -0.06622314
vn 0.4929199 0.7133789 -0.4980469
vn 0.223877 0.9350586 -0.2751465
vn -0.008598328 0.9956055 -0.09088135
vn 0.1325684 0.7060547 -0.6953125
vn -0.114502 0.9394531 -0.3234863
vn -0.02131653 -0.05209351 -0.9985352
vn -0.06713867 0.7163086 -0.6948242
vn 0.01537323 -0.03445435 -0.9995117
vn 0.02549744 -0.01268005 -0.9995117
vn -0.2592773 0.6748047 -0.690918
vn -0.2971191 0.925293 -0.2363281
vn -0.9243164 0.2675781 -0.2719727
vn -0.6787109 0.2570801 -0.6879883
vn -0.6743164 -0.2666016 -0.6884766
vn -0.9116211 -0.2932129 -0.2885742
vn -0.2868652 -0.9287109 -0.2347412
vn 0.01452637 0.01016998 -1
vn -0.2491455 -0.6787109 -0.690918
vn -0.07562256 -0.9951172 -0.0614624
vn -0.05679321 -0.7167969 -0.6948242
vn 0.01799011 -0.9960938 -0.08526611
vn 0.6425781 0.2375488 -0.7285156
vn 0.2224121 0.6538086 -0.7231445
vn 0.2580566 0.9345703 -0.2452393
vn 0.01475525 0.01806641 -0.9995117
vn 0.1429443 -0.7041016 -0.6953125
vn 0.0619812 -0.9912109 -0.1154785
vn -0.0574646 -0.02401733 -0.9980469
vn 0.04403687 0.7060547 -0.7070313
vn -0.06048584 0.9750977 -0.2126465
vn 0.503418 -0.706543 -0.4978027
vn 0.08618164 -0.9956055 -0.04110718
vn 0.1680908 -0.0635376 -0.9838867
vn 0.1331787 0.7060547 -0.6958008
vn 0.6757813 -0.04312134 -0.7358398
vn 0.699707 -0.7006836 -0.1391602
vn 0.03564453 0.9350586 -0.3522949
vn 0.4934082 0.7128906 -0.4985352
vn 0.2246094 0.9345703 -0.2763672
vn 0.9711914 -0.03741455 -0.2349854
vn 0.6904297 0.7099609 -0.1398926
vn 0.08099365 0.9941406 -0.07489014
vn 0.03564453 0.9350586 -0.3522949
vn 0.2246094 0.9345703 -0.2763672
vn 0.3959961 0.8916016 -0.2196045
vn 0.9985352 -0.056427 -0.0133667
vn 0.40625 -0.8876953 -0.2174072
vn 0.06774902 0.9975586 -0.02772522
vn 0.09716797 0.9931641 -0.06665039
vn 0.2580566 0.9345703 -0.2452393
vn 0.3193359 0.9394531 -0.1231079
vn 0.03955078 0.9941406 -0.1016846
vn 0.2248535 0.9379883 -0.2631836
vn 0.08270264 -0.9941406 -0.07116699
vn -0.06079102 -0.9951172 -0.07952881
vn -0.3955078 -0.8920898 -0.2194824
vn -0.07672119 -0.9960938 -0.04684448
vn 0.6801758 0.3342285 -0.6523438
vn 0.04934692 0.3295898 -0.9428711
vn 0.09716797 0.9931641 -0.06665039
vn -0.1135864 0.9897461 -0.08917236
vn -0.0904541 0.9951172 -0.03948975
vn -0.02055359 0.9960938 -0.08355713
vn -0.06121826 0.9912109 -0.1165771
vn -0.2320557 0.6499023 -0.7236328
vn -0.2790527 0.9453125 -0.1676025
vn -0.8837891 0.3122559 -0.3479004
vn -0.6459961 0.2283936 -0.7285156
vn -0.0541687 0.7045898 -0.7075195
vn -0.02055359 0.9960938 -0.08355713
vn -0.0153656 0.03439331 -0.9995117
vn -0.1435547 0.7036133 -0.6958008
vn -0.06121826 0.9912109 -0.1165771
vn -0.5039063 0.7055664 -0.4985352
vn 0.02134705 0.05212402 -0.9985352
vn -0.03146362 0.01335144 -0.9995117
vn -0.03118896 -0.01081085 -0.9995117
vn 0.6787109 -0.2570801 -0.6879883
vn -0.7001953 0.699707 -0.1402588
vn -0.1135864 0.9897461 -0.08917236
vn -0.4072266 0.8867188 -0.2181396
vn 0.09716797 0.9931641 -0.06665039
vn 0.3959961 0.8916016 -0.2196045
vn 0.08099365 0.9941406 -0.07489014
vn -0.9819336 -0.07574463 -0.1737061
vn -0.9980469 -4.810095E-05 0.0647583
vn -0.02430725 -0.02644348 -0.9995117
vn 0.2491455 0.6787109 -0.690918
vn -0.6894531 -0.7104492 -0.1395264
vn -0.3955078 -0.8920898 -0.2194824
vn -0.07672119 -0.9960938 -0.04684448
vn 0.6743164 0.2666016 -0.6884766
vn 0.05667114 0.7167969 -0.6948242
vn 0.2871094 0.9287109 -0.2347412
vn 0.9111328 0.2937012 -0.2888184
vn -0.02432251 0.9912109 -0.1282959
vn -0.1663818 0.9492188 -0.267334
vn -0.2824707 0.9311523 -0.2305908
vn -0.310791 0.9492188 0.0458374
vn 0.9238281 -0.2680664 -0.2724609
vn 0.2595215 -0.6748047 -0.690918
vn 0.2971191 -0.925293 -0.2364502
vn 0.06738281 -0.7158203 -0.6948242
vn 0.1147461 -0.9394531 -0.3232422
vn -0.09375 0.9921875 -0.08239746
vn 0.06896973 0.9941406 -0.08239746
vn 0.3955078 0.8920898 -0.2194824
vn 0.08203125 0.9946289 -0.06622314
vn -0.1695557 0.0637207 -0.9833984
vn -0.1325684 -0.7060547 -0.6953125
vn -0.7109375 0.07104492 -0.699707
vn -0.4931641 -0.7133789 -0.498291
vn 0.008590698 -0.9956055 -0.09088135
vn -0.2241211 -0.9350586 -0.2753906
vn -0.2241211 -0.9350586 -0.2753906
vn 0.008590698 -0.9956055 -0.09088135
vn 0.1061401 -0.9936523 0.03710938
vn 0.2971191 -0.925293 -0.2364502
vn 0.3679199 -0.9199219 0.1343994
vn -0.06079102 -0.9951172 -0.07952881
vn 0.2233887 -0.8530273 0.4716797
vn 0.008377075 -0.9365234 0.3510742
vn 0.08270264 -0.9941406 -0.07116699
vn 0.007518768 -0.9365234 0.3503418
vn -0.2109375 -0.855957 0.4719238
vn -0.3547363 -0.9257813 0.1314697
vn -0.09155273 -0.9951172 0.03686523
vn -0.2868652 -0.9287109 -0.2347412
vn -0.07562256 -0.9951172 -0.0614624
vn 0.08270264 -0.9941406 -0.07116699
vn 0.01799011 -0.9960938 -0.08526611
vn 0.0619812 -0.9912109 -0.1154785
vn -0.6967773 -0.637207 -0.3291016
vn -0.6704102 -0.4875488 0.5595703
vn -0.4006348 -0.6518555 0.644043
vn -0.3999023 -0.9018555 -0.1650391
vn -0.5786133 -0.6699219 -0.4650879
vn 0.1622314 -0.9375 -0.307373
vn -0.3608398 -0.4716797 -0.8046875
vn 0.08691406 -0.6777344 -0.7304688
vn -0.03988647 -0.9921875 0.118042
vn 0.0302887 -0.6879883 0.7250977
vn 0.3657227 -0.4658203 -0.8056641
vn 0.5874023 -0.659668 -0.46875
vn 0.4082031 -0.8979492 -0.1652832
vn 0.7050781 -0.6254883 -0.3339844
vn 0.6791992 -0.4775391 0.5571289
vn 0.4050293 -0.6489258 0.644043
vn 0.05184937 -0.03237915 0.9980469
vn 0.03262329 -0.04638672 0.9985352
vn 0.07012939 -0.08825684 0.9936523
vn -0.0001405478 0.00932312 1
vn -0.004737854 0.007987976 1
vn 0.0004456043 0.009841919 1
vn -0.0006680489 0.01243591 1
vn -0.0003547668 0.0140152 1
vn -0.0324707 -0.04647827 0.9985352
vn 0.0003125668 0.01254272 1
vn 0.0302887 -0.6879883 0.7250977
vn -0.4006348 -0.6518555 0.644043
vn -0.6704102 -0.4875488 0.5595703
vn -0.0001121759 0.009147644 1
vn -0.05123901 -0.03320313 0.9980469
vn 0.004619598 0.007965088 1
vn -0.7373047 -0.005386353 0.675293
vn -0.7797852 -0.005695343 0.6259766
vn -0.6079102 0.6098633 0.5083008
vn -0.5336914 0.6708984 0.5146484
vn -0.6088867 -0.004463196 0.7929688
vn -0.4594727 0.6362305 0.6196289
vn -0.4182129 -0.003055573 0.9082031
vn -0.361084 0.5170898 0.7758789
vn -0.06192017 0.637207 -0.7680664
vn -0.3649902 0.465332 -0.8061523
vn -0.4182129 -0.003141403 -0.9082031
vn -0.05477905 -0.0003988743 -0.9985352
vn 0.3591309 0.4711914 -0.8056641
vn 0.4182129 0.00305748 -0.9082031
vn 0.578125 0.6699219 -0.4660645
vn 0.3591309 0.4711914 -0.8056641
vn 0.1486816 0.9399414 -0.3068848
vn -0.3649902 0.465332 -0.8061523
vn -0.5947266 0.6748047 -0.4372559
vn 0.3999023 0.9018555 -0.1650391
vn 0.6967773 0.637207 -0.3291016
vn -0.4086914 0.8974609 -0.1651611
vn -0.7050781 0.6254883 -0.3339844
vn -0.6796875 0.4777832 0.5566406
vn 0.4006348 0.6513672 0.644043
vn 0.6704102 0.4873047 0.5595703
vn 0.03912354 0.9799805 0.1951904
vn -0.4050293 0.6494141 0.644043
vn -0.05187988 0.03244019 0.9980469
vn 0.01869202 0.6879883 0.7255859
vn 0.06677246 0.213501 0.9746094
vn 0.03244019 0.04647827 0.9985352
vn 0.05123901 0.03320313 0.9980469
vn 0.0001146793 -0.009147644 1
vn -0.004619598 -0.007965088 1
vn -0.0003173351 -0.01252747 1
vn 9.906292E-05 -0.01385498 1
vn 0.0003232956 -0.01238251 1
vn -0.03292847 0.04641724 0.9985352
vn -0.0004799366 -0.009780884 1
vn 0.000161171 -0.00932312 1
vn 0.004768372 -0.007949829 1
vn -0.05187988 0.03244019 0.9980469
vn 0.004768372 -0.007949829 1
vn 0.01000214 7.170439E-05 1
vn -0.05728149 -0.0006198883 0.9985352
vn -0.8535156 -0.006519318 0.5205078
vn 0.004619598 0.007965088 1
vn -0.05123901 -0.03320313 0.9980469
vn -0.6796875 0.4777832 0.5566406
vn -0.6704102 -0.4875488 0.5595703
vn -0.7050781 0.6254883 -0.3339844
vn -0.6967773 -0.637207 -0.3291016
vn -0.9140625 -0.007030487 -0.4050293
vn -0.9140625 -0.007030487 -0.4050293
vn -0.796875 -0.006061554 -0.6040039
vn -0.5786133 -0.6699219 -0.4650879
vn -0.4182129 -0.003141403 -0.9082031
vn -0.3608398 -0.4716797 -0.8046875
vn -0.5947266 0.6748047 -0.4372559
vn -0.796875 -0.006061554 -0.6040039
vn -0.4182129 -0.003141403 -0.9082031
vn -0.3649902 0.465332 -0.8061523
vn 0.5239258 0.6787109 0.5146484
vn 0.5986328 0.6186523 0.5087891
vn 0.7797852 0.005695343 0.6259766
vn 0.7373047 0.005386353 0.675293
vn 0.6088867 0.004440308 0.7929688
vn 0.4499512 0.6430664 0.6196289
vn 0.3535156 0.5224609 0.7758789
vn 0.4182129 0.003053665 0.9082031
vn -0.5336914 0.6708984 0.5146484
vn -0.6079102 0.6098633 0.5083008
vn -0.3479004 0.887207 0.3027344
vn -0.2514648 0.9282227 0.2744141
vn -0.4594727 0.6362305 0.6196289
vn -0.0960083 0.9916992 0.08502197
vn -0.2164307 0.8632813 0.4562988
vn -0.361084 0.5170898 0.7758789
vn -0.1795654 0.6386719 0.7485352
vn -0.05456543 0.9931641 0.1040649
vn -0.007301331 1 2.980232E-07
vn -0.05163574 0.9360352 0.3483887
vn -0.05267334 0.6962891 0.7158203
vn -0.005214691 0.7138672 0.7001953
vn -0.006893158 0.9443359 0.3293457
vn -0.007286072 0.9975586 0.06958008
vn -0.006896973 0.9443359 0.3293457
vn -0.007286072 0.9975586 0.06958008
vn -0.01296997 1 0.004577637
vn -0.006896973 0.9443359 0.3293457
vn -0.007286072 0.9975586 0.06958008
vn -0.007301331 1 -1.192093E-07
vn 0.04019165 0.9936523 0.104187
vn 0.3349609 0.8920898 0.3027344
vn 0.03796387 0.9365234 0.3483887
vn 0.237915 0.9316406 0.2741699
vn 0.5986328 0.6186523 0.5087891
vn 0.5239258 0.6787109 0.5146484
vn 0.4499512 0.6430664 0.6196289
vn 0.2041016 0.8657227 0.4570313
vn 0.3535156 0.5224609 0.7758789
vn 0.1702881 0.6411133 0.7485352
vn 0.04248047 0.6972656 0.7158203
vn -0.0052948 0.7119141 0.7021484
vn -0.04241943 -0.6972656 0.715332
vn 0.005222321 -0.7138672 0.7001953
vn 0.006896973 -0.9443359 0.3293457
vn -0.03793335 -0.9365234 0.3483887
vn -0.1702881 -0.6411133 0.7485352
vn -0.2037354 -0.8662109 0.4562988
vn -0.3535156 -0.5224609 0.7758789
vn -0.4499512 -0.6430664 0.6196289
vn -0.237915 -0.9316406 0.2744141
vn -0.5239258 -0.6782227 0.5151367
vn -0.5986328 -0.6186523 0.5087891
vn -0.3347168 -0.8925781 0.3027344
vn -0.04013062 -0.9936523 0.1040649
vn 0.007301331 -1 -1.966953E-06
vn 0.007286072 -0.9975586 0.06958008
vn 0.01296997 -1 0.004577637
vn 0.007286072 -0.9975586 0.06958008
vn 0.006893158 -0.9443359 0.3293457
vn 0.007305145 -1 -1.549721E-06
vn 0.007286072 -0.9975586 0.06958008
vn 0.006896973 -0.9443359 0.3293457
vn 0.05462646 -0.9931641 0.104126
vn 0.09594727 -0.9916992 0.08496094
vn 0.05166626 -0.9355469 0.348877
vn 0.005218506 -0.7128906 0.7011719
vn 0.05264282 -0.6962891 0.7158203
vn 0.1794434 -0.6381836 0.7485352
vn 0.2164307 -0.862793 0.456543
vn 0.361084 -0.5170898 0.7758789
vn 0.4594727 -0.6362305 0.6196289
vn 0.2514648 -0.9282227 0.2744141
vn 0.3479004 -0.887207 0.3027344
vn 0.5336914 -0.6708984 0.5146484
vn 0.6079102 -0.6098633 0.5083008
vn 0.4182129 0.00305748 -0.9082031
vn 0.3657227 -0.4658203 -0.8056641
vn -0.05477905 -0.0003988743 -0.9985352
vn -0.4182129 -0.003141403 -0.9082031
vn -0.3608398 -0.4716797 -0.8046875
vn 0.01076508 -0.06445313 -0.9980469
vn 0.004245758 -0.4975586 -0.8676758
vn 0.00409317 -0.5004883 -0.8657227
vn -0.01283264 -0.06298828 -0.9980469
vn -0.004196167 0.5043945 -0.8637695
vn -0.004486084 0.5 -0.8657227
vn -0.7373047 -0.005386353 0.675293
vn -0.5986328 -0.6186523 0.5087891
vn -0.7797852 -0.005695343 0.6259766
vn -0.5239258 -0.6782227 0.5151367
vn -0.6088867 -0.004463196 0.7929688
vn -0.4499512 -0.6430664 0.6196289
vn -0.3535156 -0.5224609 0.7758789
vn -0.4182129 -0.003055573 0.9082031
vn -0.05413818 0.3283691 -0.9428711
vn 0.04934692 0.3295898 -0.9428711
vn 0.04229736 0.9370117 -0.3466797
vn -0.05599976 0.9365234 -0.3466797
vn 0.7373047 0.005386353 0.675293
vn 0.7797852 0.005695343 0.6259766
vn 0.6079102 -0.6098633 0.5083008
vn 0.5336914 -0.6708984 0.5146484
vn 0.6088867 0.004440308 0.7929688
vn 0.4594727 -0.6362305 0.6196289
vn 0.4182129 0.003053665 0.9082031
vn 0.361084 -0.5170898 0.7758789
vn 0.005222321 -0.7138672 0.7001953
vn 0.006893158 -0.9443359 0.3293457
vn 0.006896973 -0.9443359 0.3293457
vn 0.0051651 -0.7133789 0.7011719
vn 0.006896973 -0.9443359 0.3293457
vn 0.005218506 -0.7128906 0.7011719
vn 0.0541687 -0.3288574 -0.9428711
vn -0.04937744 -0.329834 -0.9428711
vn -0.04232788 -0.9370117 -0.3464355
vn 0.05603027 -0.9360352 -0.3469238
vn -0.3342285 0.9345703 -0.1209717
vn -0.6850586 0.3237305 -0.6523438
vn -0.2381592 0.9350586 -0.2626953
vn -0.8833008 0.3371582 -0.3254395
vn -0.2790527 0.9453125 -0.1676025
vn -0.878418 -0.3500977 -0.3254395
vn -0.6801758 -0.3342285 -0.6523438
vn -0.9404297 0.3320313 -0.07281494
vn -0.8837891 0.3122559 -0.3479004
vn -0.9355469 -0.3457031 -0.07281494
vn -0.3200684 -0.9394531 -0.1208496
vn -0.2244873 -0.9384766 -0.2626953
vn -0.3215332 -0.9443359 -0.07171631
vn -0.3027344 -0.8891602 -0.3435059
vn -0.8793945 -0.3251953 -0.3479004
vn -0.6459961 0.2283936 -0.7285156
vn -0.6425781 -0.2376709 -0.7285156
vn 0.7124023 -0.7021484 -8.940697E-07
vn 0.9990234 -0.03875732 -5.364418E-07
vn 0.9990234 -0.03869629 0
vn 0.7124023 -0.7021484 -1.186132E-05
vn -0.04891968 -0.9990234 -4.768372E-07
vn -0.04891968 -0.9990234 -1.430511E-06
vn -0.7705078 -0.6376953 -7.987022E-06
vn -0.7705078 -0.6376953 -1.013279E-06
vn -0.9990234 0.03994751 -1.192093E-07
vn -0.9990234 0.03994751 -1.192093E-07
vn -0.7124023 0.7021484 8.34465E-07
vn -0.7124023 0.7021484 -4.947186E-06
vn 0.04901123 0.9990234 0
vn 0.04898071 0.9990234 1.251698E-06
vn 0.7705078 0.6376953 7.748604E-06
vn 0.7705078 0.6376953 8.34465E-07
vn 0.9990234 -0.03869629 0
vn 0.9990234 -0.03875732 -5.364418E-07
vn -0.1702881 -0.6411133 0.7485352
vn -0.3535156 -0.5224609 0.7758789
vn -0.4182129 -0.003055573 0.9082031
vn -0.2064209 -0.001507759 0.9785156
vn -0.04241943 -0.6972656 0.715332
vn -0.0496521 -0.0003633499 0.9985352
vn 0.005222321 -0.7138672 0.7001953
vn 0 -6.556511E-07 1
vn 0.0051651 -0.7133789 0.7011719
vn 0 -7.748604E-07 1
vn 0.005218506 -0.7128906 0.7011719
vn -7.152557E-07 -1.013279E-06 1
vn 0.05096436 0.0003745556 0.9985352
vn 0.05264282 -0.6962891 0.7158203
vn 0.1794434 -0.6381836 0.7485352
vn 0.2064209 0.001494408 0.9785156
vn 0.4182129 0.003053665 0.9082031
vn 0.361084 -0.5170898 0.7758789
vn -0.3679199 0.9199219 0.1343994
vn -0.9243164 0.2675781 -0.2719727
vn -0.2971191 0.925293 -0.2363281
vn -0.8803711 0.3513184 0.3183594
vn -0.2235107 0.8525391 0.4719238
vn -0.9116211 -0.2932129 -0.2885742
vn -0.5791016 0.2993164 0.7583008
vn -0.8754883 -0.3635254 0.3178711
vn -0.574707 -0.3076172 0.7583008
vn -0.3547363 -0.9257813 0.1314697
vn -0.2868652 -0.9287109 -0.2347412
vn -0.2109375 -0.855957 0.4719238
vn -0.2028809 0.302002 0.9316406
vn -0.574707 -0.3076172 0.7583008
vn -0.004241943 0.4973145 -0.8676758
vn -0.00409317 0.5004883 -0.8657227
vn 0.005325317 0.06604004 -0.9975586
vn -0.01424408 -0.06524658 -0.9975586
vn 0.004245758 -0.5043945 -0.8637695
vn 0.004486084 -0.5 -0.8657227
vn 0.09155273 0.9951172 0.03689575
vn -0.09375 0.9921875 -0.08239746
vn -0.02432251 0.9912109 -0.1282959
vn -0.1663818 0.9492188 -0.267334
vn -0.2824707 0.9311523 -0.2305908
vn 0.2871094 0.9287109 -0.2347412
vn 0.354248 0.9257813 0.131958
vn -0.09375 0.9921875 -0.08239746
vn 0.2109375 0.855957 0.4719238
vn -0.007514954 0.9365234 0.3503418
vn -0.008483887 0.9365234 0.3508301
vn 0.06896973 0.9941406 -0.08239746
vn -0.2235107 0.8525391 0.4719238
vn -0.3679199 0.9199219 0.1343994
vn -0.1061401 0.9936523 0.03717041
vn -0.2971191 0.925293 -0.2363281
vn -0.008598328 0.9956055 -0.09088135
vn 0.223877 0.9350586 -0.2751465
g Chair_03_0
f 3/3/3 2/2/2 1/1/1
f 5/5/5 4/4/4 2/2/2
f 6/6/6 4/4/4 5/5/5
f 7/7/7 6/6/6 5/5/5
f 7/7/7 5/5/5 8/8/8
f 9/9/9 5/5/5 2/2/2
f 5/5/5 10/10/10 8/8/8
f 9/9/9 11/11/11 5/5/5
f 11/11/11 10/10/10 5/5/5
f 10/10/10 12/12/12 8/8/8
f 12/12/12 13/13/13 8/8/8
f 14/14/14 12/12/12 10/10/10
f 11/11/11 14/14/14 10/10/10
f 15/15/15 12/12/12 14/14/14
f 14/14/14 11/11/11 16/16/16
f 11/11/11 17/17/17 16/16/16
f 17/17/17 11/11/11 9/9/9
f 18/18/18 17/17/17 9/9/9
f 9/9/9 19/19/19 18/18/18
f 19/19/19 20/20/20 18/18/18
f 21/21/21 15/15/15 14/14/14
f 15/15/15 21/21/21 22/22/22
f 21/21/21 23/23/23 22/22/22
f 23/23/23 24/24/24 22/22/22
f 25/25/25 22/22/22 24/24/24
f 26/26/26 25/25/25 24/24/24
f 22/22/22 25/25/25 27/27/27
f 28/28/28 15/15/15 22/22/22
f 28/28/28 22/22/22 27/27/27
f 15/15/15 28/28/28 29/29/29
f 28/28/28 30/30/30 29/29/29
f 30/30/30 28/28/28 27/27/27
f 31/31/31 30/30/30 27/27/27
f 34/34/34 33/33/33 32/32/32
f 37/37/37 36/36/36 35/35/35
f 40/40/40 39/39/39 38/38/38
f 43/43/43 42/42/42 41/41/41
f 44/44/44 43/43/43 41/41/41
f 44/44/44 45/45/45 43/43/43
f 45/45/45 46/46/46 43/43/43
f 46/46/46 45/45/45 47/47/47
f 45/45/45 48/48/48 47/47/47
f 48/48/48 49/49/49 47/47/47
f 49/49/49 50/50/50 47/47/47
f 50/50/50 51/51/51 47/47/47
f 51/51/51 52/52/52 47/47/47
f 50/50/50 49/49/49 53/53/53
f 50/50/50 53/53/53 51/51/51
f 49/49/49 54/54/54 53/53/53
f 53/53/53 55/55/55 51/51/51
f 52/52/52 57/57/57 56/56/56
f 57/57/57 58/58/58 56/56/56
f 58/58/58 57/57/57 59/59/59
f 57/57/57 60/60/60 59/59/59
f 61/61/61 59/59/59 60/60/60
f 62/62/62 61/61/61 60/60/60
f 65/65/65 64/64/64 63/63/63
f 64/64/64 66/66/66 63/63/63
f 64/64/64 67/67/67 66/66/66
f 67/67/67 68/68/68 66/66/66
f 71/71/71 70/70/70 69/69/69
f 70/70/70 72/72/72 69/69/69
f 69/69/69 72/72/72 73/73/73
f 74/74/74 69/69/69 73/73/73
f 74/74/74 73/73/73 75/75/75
f 76/76/76 74/74/74 75/75/75
f 76/76/76 75/75/75 77/77/77
f 78/78/78 76/76/76 77/77/77
f 78/78/78 77/77/77 79/79/79
f 80/80/80 78/78/78 79/79/79
f 80/80/80 79/79/79 81/81/81
f 82/82/82 80/80/80 81/81/81
f 82/82/82 81/81/81 83/83/83
f 81/81/81 84/84/84 83/83/83
f 83/83/83 84/84/84 85/85/85
f 86/86/86 83/83/83 85/85/85
f 89/89/89 88/88/88 87/87/87
f 88/88/88 90/90/90 87/87/87
f 91/91/91 90/90/90 88/88/88
f 92/92/92 91/91/91 88/88/88
f 90/90/90 91/91/91 93/93/93
f 87/87/87 90/90/90 93/93/93
f 91/91/91 94/94/94 93/93/93
f 93/93/93 94/94/94 95/95/95
f 96/96/96 93/93/93 95/95/95
f 97/97/97 87/87/87 93/93/93
f 97/97/97 93/93/93 96/96/96
f 98/98/98 97/97/97 96/96/96
f 100/100/100 87/87/87 99/99/99
f 101/101/101 100/100/100 99/99/99
f 102/102/102 100/100/100 101/101/101
f 103/103/103 102/102/102 101/101/101
f 103/103/103 104/104/104 102/102/102
f 103/103/103 105/105/105 104/104/104
f 104/104/104 106/106/106 102/102/102
f 102/102/102 106/106/106 107/107/107
f 108/108/108 102/102/102 107/107/107
f 109/109/109 108/108/108 107/107/107
f 109/109/109 107/107/107 110/110/110
f 105/105/105 111/111/111 104/104/104
f 112/112/112 108/108/108 109/109/109
f 113/113/113 109/109/109 110/110/110
f 113/113/113 110/110/110 114/114/114
f 115/115/115 113/113/113 114/114/114
f 105/105/105 116/116/116 111/111/111
f 116/116/116 105/105/105 117/117/117
f 105/105/105 118/118/118 117/117/117
f 116/116/116 119/119/119 111/111/111
f 119/119/119 120/120/120 111/111/111
f 121/121/121 120/120/120 119/119/119
f 117/117/117 122/122/122 116/116/116
f 119/119/119 116/116/116 123/123/123
f 117/117/117 124/124/124 122/122/122
f 119/119/119 123/123/123 125/125/125
f 126/126/126 121/121/121 119/119/119
f 126/126/126 119/119/119 125/125/125
f 127/127/127 117/117/117 118/118/118
f 118/118/118 101/101/101 127/127/127
f 101/101/101 128/128/128 127/127/127
f 117/117/117 127/127/127 129/129/129
f 130/130/130 124/124/124 117/117/117
f 130/130/130 117/117/117 129/129/129
f 130/130/130 129/129/129 131/131/131
f 124/124/124 130/130/130 132/132/132
f 133/133/133 130/130/130 131/131/131
f 132/132/132 130/130/130 134/134/134
f 134/134/134 130/130/130 133/133/133
f 135/135/135 132/132/132 134/134/134
f 136/136/136 126/126/126 125/125/125
f 137/137/137 136/136/136 125/125/125
f 137/137/137 125/125/125 138/138/138
f 125/125/125 139/139/139 138/138/138
f 137/137/137 140/140/140 136/136/136
f 140/140/140 137/137/137 138/138/138
f 136/136/136 141/141/141 126/126/126
f 140/140/140 141/141/141 136/136/136
f 141/141/141 142/142/142 126/126/126
f 126/126/126 142/142/142 121/121/121
f 142/142/142 143/143/143 121/121/121
f 139/139/139 144/144/144 138/138/138
f 138/138/138 145/145/145 140/140/140
f 145/145/145 138/138/138 144/144/144
f 144/144/144 139/139/139 146/146/146
f 147/147/147 146/146/146 139/139/139
f 144/144/144 148/148/148 145/145/145
f 146/146/146 147/147/147 149/149/149
f 150/150/150 149/149/149 147/147/147
f 146/146/146 149/149/149 151/151/151
f 140/140/140 152/152/152 141/141/141
f 145/145/145 152/152/152 140/140/140
f 148/148/148 153/153/153 145/145/145
f 152/152/152 145/145/145 153/153/153
f 148/148/148 154/154/154 153/153/153
f 141/141/141 155/155/155 142/142/142
f 152/152/152 155/155/155 141/141/141
f 156/156/156 152/152/152 153/153/153
f 155/155/155 152/152/152 156/156/156
f 155/155/155 157/157/157 142/142/142
f 142/142/142 157/157/157 143/143/143
f 149/149/149 150/150/150 158/158/158
f 150/150/150 159/159/159 158/158/158
f 154/154/154 160/160/160 153/153/153
f 156/156/156 153/153/153 160/160/160
f 161/161/161 155/155/155 156/156/156
f 157/157/157 155/155/155 161/161/161
f 157/157/157 162/162/162 143/143/143
f 143/143/143 162/162/162 163/163/163
f 162/162/162 164/164/164 163/163/163
f 158/158/158 159/159/159 165/165/165
f 159/159/159 166/166/166 165/165/165
f 165/165/165 166/166/166 167/167/167
f 166/166/166 133/133/133 167/167/167
f 158/158/158 165/165/165 168/168/168
f 165/165/165 167/167/167 168/168/168
f 161/161/161 156/156/156 169/169/169
f 169/169/169 156/156/156 160/160/160
f 170/170/170 157/157/157 161/161/161
f 157/157/157 170/170/170 162/162/162
f 167/167/167 133/133/133 171/171/171
f 133/133/133 172/172/172 171/171/171
f 173/173/173 158/158/158 168/168/168
f 149/149/149 158/158/158 173/173/173
f 174/174/174 161/161/161 169/169/169
f 161/161/161 174/174/174 170/170/170
f 171/171/171 172/172/172 175/175/175
f 172/172/172 176/176/176 175/175/175
f 175/175/175 176/176/176 177/177/177
f 178/178/178 149/149/149 173/173/173
f 149/149/149 178/178/178 151/151/151
f 151/151/151 178/178/178 179/179/179
f 180/180/180 151/151/151 179/179/179
f 179/179/179 181/181/181 180/180/180
f 178/178/178 173/173/173 182/182/182
f 179/179/179 178/178/178 182/182/182
f 181/181/181 179/179/179 183/183/183
f 179/179/179 182/182/182 183/183/183
f 183/183/183 182/182/182 184/184/184
f 185/185/185 182/182/182 173/173/173
f 182/182/182 185/185/185 184/184/184
f 168/168/168 185/185/185 173/173/173
f 184/184/184 185/185/185 186/186/186
f 168/168/168 187/187/187 185/185/185
f 167/167/167 187/187/187 168/168/168
f 187/187/187 188/188/188 185/185/185
f 185/185/185 188/188/188 186/186/186
f 187/187/187 167/167/167 189/189/189
f 187/187/187 189/189/189 188/188/188
f 167/167/167 171/171/171 189/189/189
f 189/189/189 171/171/171 190/190/190
f 171/171/171 175/175/175 190/190/190
f 189/189/189 191/191/191 188/188/188
f 191/191/191 189/189/189 190/190/190
f 186/186/186 188/188/188 192/192/192
f 188/188/188 191/191/191 192/192/192
f 192/192/192 191/191/191 193/193/193
f 191/191/191 194/194/194 193/193/193
f 194/194/194 191/191/191 190/190/190
f 193/193/193 194/194/194 195/195/195
f 194/194/194 190/190/190 195/195/195
f 196/196/196 193/193/193 195/195/195
f 197/197/197 196/196/196 195/195/195
f 190/190/190 175/175/175 198/198/198
f 190/190/190 198/198/198 195/195/195
f 199/199/199 197/197/197 195/195/195
f 195/195/195 198/198/198 199/199/199
f 200/200/200 197/197/197 199/199/199
f 201/201/201 200/200/200 199/199/199
f 202/202/202 200/200/200 201/201/201
f 175/175/175 203/203/203 198/198/198
f 203/203/203 175/175/175 177/177/177
f 204/204/204 203/203/203 177/177/177
f 198/198/198 203/203/203 204/204/204
f 205/205/205 204/204/204 177/177/177
f 198/198/198 206/206/206 199/199/199
f 199/199/199 206/206/206 201/201/201
f 206/206/206 198/198/198 204/204/204
f 207/207/207 202/202/202 201/201/201
f 208/208/208 202/202/202 207/207/207
f 206/206/206 209/209/209 201/201/201
f 209/209/209 206/206/206 204/204/204
f 207/207/207 201/201/201 209/209/209
f 210/210/210 204/204/204 205/205/205
f 210/210/210 209/209/209 204/204/204
f 211/211/211 210/210/210 205/205/205
f 212/212/212 208/208/208 207/207/207
f 213/213/213 208/208/208 212/212/212
f 214/214/214 207/207/207 209/209/209
f 214/214/214 209/209/209 210/210/210
f 212/212/212 207/207/207 214/214/214
f 215/215/215 214/214/214 210/210/210
f 215/215/215 210/210/210 211/211/211
f 216/216/216 212/212/212 214/214/214
f 214/214/214 215/215/215 216/216/216
f 217/217/217 213/213/213 212/212/212
f 217/217/217 212/212/212 216/216/216
f 218/218/218 215/215/215 211/211/211
f 219/219/219 215/215/215 218/218/218
f 215/215/215 219/219/219 216/216/216
f 220/220/220 219/219/219 218/218/218
f 221/221/221 216/216/216 219/219/219
f 221/221/221 217/217/217 216/216/216
f 222/222/222 219/219/219 220/220/220
f 222/222/222 221/221/221 219/219/219
f 223/223/223 222/222/222 220/220/220
f 224/224/224 211/211/211 223/223/223
f 225/225/225 224/224/224 223/223/223
f 222/222/222 223/223/223 226/226/226
f 222/222/222 226/226/226 227/227/227
f 221/221/221 222/222/222 227/227/227
f 227/227/227 228/228/228 221/221/221
f 228/228/228 217/217/217 221/221/221
f 211/211/211 229/229/229 223/223/223
f 229/229/229 230/230/230 223/223/223
f 211/211/211 231/231/231 229/229/229
f 231/231/231 232/232/232 229/229/229
f 229/229/229 233/233/233 230/230/230
f 229/229/229 232/232/232 234/234/234
f 233/233/233 229/229/229 234/234/234
f 228/228/228 235/235/235 217/217/217
f 213/213/213 217/217/217 235/235/235
f 235/235/235 228/228/228 236/236/236
f 237/237/237 236/236/236 228/228/228
f 236/236/236 237/237/237 238/238/238
f 112/112/112 233/233/233 234/234/234
f 112/112/112 234/234/234 239/239/239
f 240/240/240 112/112/112 239/239/239
f 233/233/233 112/112/112 109/109/109
f 109/109/109 241/241/241 233/233/233
f 109/109/109 242/242/242 241/241/241
f 113/113/113 242/242/242 109/109/109
f 242/242/242 113/113/113 243/243/243
f 243/243/243 113/113/113 244/244/244
f 244/244/244 113/113/113 115/115/115
f 245/245/245 243/243/243 244/244/244
f 115/115/115 247/247/247 246/246/246
f 247/247/247 248/248/248 246/246/246
f 248/248/248 249/249/249 246/246/246
f 250/250/250 115/115/115 246/246/246
f 251/251/251 115/115/115 250/250/250
f 246/246/246 249/249/249 252/252/252
f 250/250/250 246/246/246 252/252/252
f 253/253/253 251/251/251 250/250/250
f 254/254/254 251/251/251 253/253/253
f 243/243/243 254/254/254 255/255/255
f 255/255/255 254/254/254 253/253/253
f 253/253/253 250/250/250 256/256/256
f 256/256/256 250/250/250 252/252/252
f 249/249/249 257/257/257 252/252/252
f 249/249/249 164/164/164 257/257/257
f 164/164/164 258/258/258 257/257/257
f 258/258/258 164/164/164 162/162/162
f 252/252/252 257/257/257 259/259/259
f 257/257/257 258/258/258 259/259/259
f 260/260/260 243/243/243 255/255/255
f 243/243/243 260/260/260 261/261/261
f 262/262/262 261/261/261 260/260/260
f 261/261/261 262/262/262 263/263/263
f 264/264/264 263/263/263 262/262/262
f 263/263/263 264/264/264 265/265/265
f 260/260/260 266/266/266 262/262/262
f 260/260/260 255/255/255 266/266/266
f 266/266/266 267/267/267 262/262/262
f 268/268/268 258/258/258 162/162/162
f 170/170/170 268/268/268 162/162/162
f 268/268/268 269/269/269 258/258/258
f 269/269/269 268/268/268 170/170/170
f 267/267/267 266/266/266 270/270/270
f 271/271/271 267/267/267 270/270/270
f 270/270/270 272/272/272 271/271/271
f 269/269/269 273/273/273 258/258/258
f 258/258/258 273/273/273 259/259/259
f 274/274/274 269/269/269 170/170/170
f 174/174/174 274/274/274 170/170/170
f 269/269/269 275/275/275 273/273/273
f 275/275/275 276/276/276 273/273/273
f 273/273/273 276/276/276 259/259/259
f 277/277/277 275/275/275 269/269/269
f 274/274/274 277/277/277 269/269/269
f 278/278/278 277/277/277 274/274/274
f 174/174/174 278/278/278 274/274/274
f 279/279/279 278/278/278 174/174/174
f 169/169/169 279/279/279 174/174/174
f 280/280/280 279/279/279 169/169/169
f 276/276/276 281/281/281 259/259/259
f 160/160/160 280/280/280 169/169/169
f 282/282/282 259/259/259 281/281/281
f 282/282/282 252/252/252 259/259/259
f 283/283/283 282/282/282 281/281/281
f 252/252/252 282/282/282 256/256/256
f 284/284/284 282/282/282 283/283/283
f 282/282/282 284/284/284 256/256/256
f 285/285/285 284/284/284 283/283/283
f 280/280/280 160/160/160 286/286/286
f 154/154/154 286/286/286 160/160/160
f 286/286/286 154/154/154 287/287/287
f 288/288/288 287/287/287 154/154/154
f 287/287/287 288/288/288 289/289/289
f 290/290/290 256/256/256 284/284/284
f 290/290/290 253/253/253 256/256/256
f 253/253/253 290/290/290 255/255/255
f 291/291/291 290/290/290 284/284/284
f 291/291/291 284/284/284 285/285/285
f 290/290/290 292/292/292 255/255/255
f 292/292/292 290/290/290 291/291/291
f 255/255/255 292/292/292 266/266/266
f 292/292/292 293/293/293 266/266/266
f 293/293/293 292/292/292 291/291/291
f 293/293/293 270/270/270 266/266/266
f 294/294/294 291/291/291 285/285/285
f 293/293/293 291/291/291 294/294/294
f 295/295/295 293/293/293 294/294/294
f 270/270/270 293/293/293 295/295/295
f 272/272/272 270/270/270 295/295/295
f 297/297/297 272/272/272 296/296/296
f 285/285/285 298/298/298 297/297/297
f 298/298/298 272/272/272 297/297/297
f 298/298/298 285/285/285 299/299/299
f 300/300/300 298/298/298 299/299/299
f 301/301/301 272/272/272 298/298/298
f 301/301/301 298/298/298 300/300/300
f 300/300/300 302/302/302 301/301/301
f 302/302/302 303/303/303 301/301/301
f 304/304/304 301/301/301 303/303/303
f 305/305/305 304/304/304 303/303/303
f 304/304/304 305/305/305 306/306/306
f 304/304/304 306/306/306 307/307/307
f 307/307/307 308/308/308 304/304/304
f 308/308/308 307/307/307 309/309/309
f 310/310/310 308/308/308 309/309/309
f 310/310/310 213/213/213 308/308/308
f 213/213/213 311/311/311 308/308/308
f 310/310/310 312/312/312 213/213/213
f 213/213/213 312/312/312 313/313/313
f 316/316/316 315/315/315 314/314/314
f 317/317/317 316/316/316 314/314/314
f 314/314/314 318/318/318 317/317/317
f 318/318/318 319/319/319 317/317/317
f 319/319/319 318/318/318 320/320/320
f 321/321/321 319/319/319 320/320/320
f 317/317/317 322/322/322 316/316/316
f 319/319/319 322/322/322 317/317/317
f 322/322/322 323/323/323 316/316/316
f 319/319/319 321/321/321 324/324/324
f 325/325/325 319/319/319 324/324/324
f 326/326/326 322/322/322 319/319/319
f 325/325/325 326/326/326 319/319/319
f 323/323/323 322/322/322 326/326/326
f 325/325/325 327/327/327 326/326/326
f 326/326/326 327/327/327 328/328/328
f 329/329/329 326/326/326 328/328/328
f 329/329/329 323/323/323 326/326/326
f 328/328/328 330/330/330 329/329/329
f 329/329/329 331/331/331 323/323/323
f 330/330/330 331/331/331 329/329/329
f 331/331/331 332/332/332 323/323/323
f 333/333/333 331/331/331 330/330/330
f 332/332/332 331/331/331 333/333/333
f 334/334/334 333/333/333 330/330/330
f 333/333/333 335/335/335 332/332/332
f 335/335/335 336/336/336 332/332/332
f 336/336/336 337/337/337 332/332/332
f 338/338/338 332/332/332 337/337/337
f 337/337/337 339/339/339 338/338/338
f 340/340/340 332/332/332 338/338/338
f 341/341/341 340/340/340 338/338/338
f 341/341/341 338/338/338 342/342/342
f 339/339/339 343/343/343 338/338/338
f 338/338/338 344/344/344 342/342/342
f 338/338/338 343/343/343 344/344/344
f 343/343/343 345/345/345 344/344/344
f 348/348/348 347/347/347 346/346/346
f 349/349/349 348/348/348 346/346/346
f 349/349/349 346/346/346 350/350/350
f 351/351/351 349/349/349 350/350/350
f 350/350/350 352/352/352 351/351/351
f 352/352/352 353/353/353 351/351/351
f 356/356/356 355/355/355 354/354/354
f 357/357/357 356/356/356 354/354/354
f 357/357/357 354/354/354 358/358/358
f 359/359/359 357/357/357 358/358/358
f 361/361/361 354/354/354 360/360/360
f 354/354/354 362/362/362 360/360/360
f 362/362/362 354/354/354 363/363/363
f 364/364/364 362/362/362 363/363/363
f 360/360/360 362/362/362 365/365/365
f 366/366/366 360/360/360 365/365/365
f 362/362/362 364/364/364 367/367/367
f 364/364/364 368/368/368 367/367/367
f 368/368/368 369/369/369 367/367/367
f 365/365/365 370/370/370 366/366/366
f 370/370/370 371/371/371 366/366/366
f 362/362/362 372/372/372 365/365/365
f 372/372/372 362/362/362 367/367/367
f 365/365/365 372/372/372 370/370/370
f 369/369/369 373/373/373 367/367/367
f 373/373/373 369/369/369 374/374/374
f 375/375/375 372/372/372 367/367/367
f 372/372/372 375/375/375 370/370/370
f 373/373/373 375/375/375 367/367/367
f 376/376/376 375/375/375 373/373/373
f 371/371/371 370/370/370 377/377/377
f 370/370/370 375/375/375 377/377/377
f 375/375/375 376/376/376 377/377/377
f 378/378/378 371/371/371 377/377/377
f 377/377/377 379/379/379 378/378/378
f 379/379/379 377/377/377 376/376/376
f 379/379/379 380/380/380 378/378/378
f 376/376/376 381/381/381 379/379/379
f 376/376/376 382/382/382 381/381/381
f 383/383/383 382/382/382 376/376/376
f 384/384/384 376/376/376 373/373/373
f 376/376/376 384/384/384 383/383/383
f 384/384/384 385/385/385 383/383/383
f 384/384/384 373/373/373 374/374/374
f 384/384/384 386/386/386 385/385/385
f 386/386/386 384/384/384 374/374/374
f 387/387/387 386/386/386 374/374/374
f 390/390/390 389/389/389 388/388/388
f 391/391/391 390/390/390 388/388/388
f 391/391/391 388/388/388 392/392/392
f 393/393/393 390/390/390 391/391/391
f 394/394/394 393/393/393 391/391/391
f 391/391/391 392/392/392 394/394/394
f 388/388/388 395/395/395 392/392/392
f 392/392/392 396/396/396 394/394/394
f 392/392/392 395/395/395 397/397/397
f 398/398/398 396/396/396 392/392/392
f 399/399/399 392/392/392 397/397/397
f 400/400/400 398/398/398 392/392/392
f 398/398/398 400/400/400 401/401/401
f 402/402/402 398/398/398 401/401/401
f 402/402/402 401/401/401 403/403/403
f 404/404/404 402/402/402 403/403/403
f 397/397/397 405/405/405 399/399/399
f 405/405/405 406/406/406 399/399/399
f 407/407/407 406/406/406 405/405/405
f 408/408/408 407/407/407 405/405/405
f 411/411/411 410/410/410 409/409/409
f 412/412/412 411/411/411 409/409/409
f 412/412/412 409/409/409 413/413/413
f 409/409/409 414/414/414 413/413/413
f 413/413/413 414/414/414 415/415/415
f 416/416/416 413/413/413 415/415/415
f 419/419/419 418/418/418 417/417/417
f 419/419/419 417/417/417 420/420/420
f 420/420/420 417/417/417 421/421/421
f 422/422/422 419/419/419 420/420/420
f 423/423/423 420/420/420 421/421/421
f 423/423/423 421/421/421 424/424/424
f 425/425/425 423/423/423 424/424/424
f 426/426/426 422/422/422 420/420/420
f 426/426/426 420/420/420 423/423/423
f 422/422/422 426/426/426 427/427/427
f 428/428/428 423/423/423 425/425/425
f 428/428/428 426/426/426 423/423/423
f 429/429/429 428/428/428 425/425/425
f 428/428/428 429/429/429 430/430/430
f 431/431/431 428/428/428 430/430/430
f 426/426/426 428/428/428 431/431/431
f 432/432/432 426/426/426 431/431/431
f 426/426/426 432/432/432 427/427/427
f 432/432/432 431/431/431 433/433/433
f 427/427/427 432/432/432 434/434/434
f 434/434/434 432/432/432 433/433/433
f 435/435/435 427/427/427 434/434/434
f 434/434/434 433/433/433 436/436/436
f 435/435/435 434/434/434 437/437/437
f 437/437/437 434/434/434 436/436/436
f 438/438/438 435/435/435 437/437/437
f 437/437/437 439/439/439 438/438/438
f 438/438/438 439/439/439 440/440/440
f 437/437/437 436/436/436 441/441/441
f 439/439/439 437/437/437 441/441/441
f 439/439/439 442/442/442 440/440/440
f 443/443/443 440/440/440 442/442/442
f 444/444/444 443/443/443 442/442/442
f 444/444/444 442/442/442 445/445/445
f 442/442/442 439/439/439 446/446/446
f 442/442/442 446/446/446 445/445/445
f 439/439/439 441/441/441 446/446/446
f 445/445/445 446/446/446 447/447/447
f 446/446/446 448/448/448 447/447/447
f 446/446/446 441/441/441 448/448/448
f 441/441/441 449/449/449 448/448/448
f 441/441/441 436/436/436 449/449/449
f 436/436/436 450/450/450 449/449/449
f 453/453/453 452/452/452 451/451/451
f 454/454/454 453/453/453 451/451/451
f 454/454/454 451/451/451 455/455/455
f 456/456/456 454/454/454 455/455/455
f 456/456/456 455/455/455 457/457/457
f 458/458/458 456/456/456 457/457/457
f 459/459/459 456/456/456 458/458/458
f 460/460/460 459/459/459 458/458/458
f 460/460/460 461/461/461 459/459/459
f 461/461/461 462/462/462 459/459/459
f 459/459/459 463/463/463 456/456/456
f 463/463/463 459/459/459 462/462/462
f 463/463/463 454/454/454 456/456/456
f 464/464/464 463/463/463 462/462/462
f 463/463/463 465/465/465 454/454/454
f 465/465/465 463/463/463 464/464/464
f 465/465/465 453/453/453 454/454/454
f 464/464/464 466/466/466 465/465/465
f 465/465/465 467/467/467 453/453/453
f 466/466/466 467/467/467 465/465/465
f 467/467/467 468/468/468 453/453/453
f 466/466/466 469/469/469 467/467/467
f 467/467/467 470/470/470 468/468/468
f 469/469/469 470/470/470 467/467/467
f 470/470/470 471/471/471 468/468/468
f 472/472/472 470/470/470 469/469/469
f 470/470/470 472/472/472 471/471/471
f 473/473/473 472/472/472 469/469/469
f 472/472/472 474/474/474 471/471/471
f 471/471/471 474/474/474 475/475/475
f 474/474/474 476/476/476 475/475/475
f 476/476/476 474/474/474 477/477/477
f 474/474/474 478/478/478 477/477/477
f 474/474/474 472/472/472 478/478/478
f 477/477/477 478/478/478 479/479/479
f 478/478/478 480/480/480 479/479/479
f 472/472/472 473/473/473 481/481/481
f 472/472/472 481/481/481 478/478/478
f 478/478/478 481/481/481 480/480/480
f 473/473/473 482/482/482 481/481/481
f 481/481/481 483/483/483 480/480/480
f 482/482/482 483/483/483 481/481/481
f 482/482/482 484/484/484 483/483/483
f 486/486/486 321/321/321 485/485/485
f 321/321/321 487/487/487 485/485/485
f 487/487/487 321/321/321 488/488/488
f 321/321/321 489/489/489 488/488/488
f 492/492/492 491/491/491 490/490/490
f 493/493/493 492/492/492 490/490/490
f 493/493/493 490/490/490 494/494/494
f 495/495/495 493/493/493 494/494/494
f 498/498/498 497/497/497 496/496/496
f 497/497/497 499/499/499 496/496/496
f 496/496/496 499/499/499 500/500/500
f 499/499/499 501/501/501 500/500/500
f 500/500/500 501/501/501 502/502/502
f 503/503/503 500/500/500 502/502/502
f 506/506/506 505/505/505 504/504/504
f 507/507/507 506/506/506 504/504/504
f 510/510/510 509/509/509 508/508/508
f 511/511/511 510/510/510 508/508/508
f 511/511/511 508/508/508 512/512/512
f 513/513/513 511/511/511 512/512/512
f 513/513/513 512/512/512 514/514/514
f 515/515/515 513/513/513 514/514/514
f 518/518/518 517/517/517 516/516/516
f 517/517/517 519/519/519 516/516/516
f 517/517/517 520/520/520 519/519/519
f 520/520/520 521/521/521 519/519/519
f 524/524/524 523/523/523 522/522/522
f 525/525/525 524/524/524 522/522/522
f 528/528/528 527/527/527 526/526/526
f 527/527/527 529/529/529 526/526/526
f 526/526/526 529/529/529 530/530/530
f 531/531/531 529/529/529 527/527/527
f 532/532/532 531/531/531 527/527/527
f 529/529/529 533/533/533 530/530/530
f 533/533/533 534/534/534 530/530/530
f 535/535/535 533/533/533 529/529/529
f 533/533/533 535/535/535 534/534/534
f 531/531/531 535/535/535 529/529/529
f 536/536/536 531/531/531 532/532/532
f 537/537/537 536/536/536 532/532/532
f 536/536/536 538/538/538 531/531/531
f 538/538/538 535/535/535 531/531/531
f 538/538/538 539/539/539 535/535/535
f 539/539/539 540/540/540 535/535/535
f 535/535/535 540/540/540 534/534/534
f 534/534/534 540/540/540 541/541/541
f 540/540/540 542/542/542 541/541/541
f 545/545/545 544/544/544 543/543/543
f 544/544/544 546/546/546 543/543/543
f 543/543/543 546/546/546 547/547/547
f 546/546/546 548/548/548 547/547/547
f 547/547/547 548/548/548 549/549/549
f 548/548/548 550/550/550 549/549/549
f 549/549/549 550/550/550 551/551/551
f 550/550/550 552/552/552 551/551/551
f 551/551/551 552/552/552 553/553/553
f 552/552/552 554/554/554 553/553/553
f 553/553/553 554/554/554 555/555/555
f 554/554/554 556/556/556 555/555/555
f 555/555/555 556/556/556 557/557/557
f 556/556/556 558/558/558 557/557/557
f 557/557/557 558/558/558 559/559/559
f 558/558/558 560/560/560 559/559/559
f 563/563/563 562/562/562 561/561/561
f 564/564/564 563/563/563 561/561/561
f 564/564/564 561/561/561 565/565/565
f 566/566/566 564/564/564 565/565/565
f 566/566/566 565/565/565 567/567/567
f 568/568/568 566/566/566 567/567/567
f 568/568/568 567/567/567 569/569/569
f 570/570/570 568/568/568 569/569/569
f 570/570/570 569/569/569 571/571/571
f 572/572/572 570/570/570 571/571/571
f 572/572/572 571/571/571 573/573/573
f 571/571/571 574/574/574 573/573/573
f 573/573/573 574/574/574 575/575/575
f 576/576/576 573/573/573 575/575/575
f 576/576/576 575/575/575 577/577/577
f 575/575/575 578/578/578 577/577/577
f 581/581/581 580/580/580 579/579/579
f 580/580/580 582/582/582 579/579/579
f 579/579/579 582/582/582 583/583/583
f 580/580/580 584/584/584 582/582/582
f 582/582/582 585/585/585 583/583/583
f 584/584/584 586/586/586 582/582/582
f 582/582/582 586/586/586 585/585/585
f 586/586/586 587/587/587 585/585/585
f 588/588/588 586/586/586 584/584/584
f 587/587/587 586/586/586 588/588/588
f 589/589/589 588/588/588 584/584/584
f 590/590/590 587/587/587 588/588/588
f 585/585/585 592/592/592 591/591/591
f 592/592/592 2/2/2 591/591/591
f 595/595/595 594/594/594 593/593/593
f 596/596/596 595/595/595 593/593/593
f 595/595/595 596/596/596 597/597/597
f 598/598/598 595/595/595 597/597/597
f 280/280/280 600/600/600 599/599/599
f 601/601/601 280/280/280 599/599/599
f 601/601/601 602/602/602 280/280/280
f 280/280/280 602/602/602 603/603/603
f 601/601/601 599/599/599 604/604/604
f 599/599/599 605/605/605 604/604/604
f 605/605/605 599/599/599 606/606/606
f 606/606/606 607/607/607 605/605/605
f 606/606/606 608/608/608 607/607/607
f 608/608/608 606/606/606 609/609/609
f 606/606/606 610/610/610 609/609/609
f 611/611/611 609/609/609 610/610/610
f 612/612/612 611/611/611 610/610/610
f 610/610/610 613/613/613 612/612/612
f 612/612/612 613/613/613 614/614/614
f 613/613/613 186/186/186 614/614/614
f 610/610/610 181/181/181 613/613/613
f 186/186/186 613/613/613 615/615/615
f 613/613/613 181/181/181 615/615/615
f 615/615/615 181/181/181 616/616/616
