g Chair
v -7.095901 92.67621 -97.56091
v -4.817031 93.14507 -94.71423
v -4.073318 94.73394 -97.94524
v -9.96138 99.50134 -101.1404
v -9.668411 95.85474 -100.7745
v -6.645797 97.91241 -101.1587
v -2.83052 97.26134 -92.23275
v -3.123489 100.908 -92.59872
v -2.087021 98.85028 -95.46397
v -5.695937 104.0865 -95.81211
v -7.974898 103.6178 -98.65897
v -4.659347 102.0287 -98.67726
v -88.90522 97.26128 -23.32755
v -92.22078 98.85034 -23.30934
v -89.19814 100.908 -23.69349
v -94.79311 102.0287 -26.5226
v -94.04954 103.6179 -29.75375
v -91.77065 104.0865 -26.90703
v -90.89171 93.14502 -25.80907
v -93.17049 92.67621 -28.65571
v -94.20708 94.73389 -25.79056
v -95.74308 95.85474 -31.86929
v -96.03603 99.50134 -32.23524
v -96.77952 97.91241 -29.00405
v 14.18713 179.1905 104.2064
v -11.23863 113.378 72.44418
v 12.04428 184.1214 101.5296
v -45.36861 86.9245 29.79854
v -85.07207 90.30376 -19.78566
v -85.94704 96.14392 -20.87867
v 81.54373 12.10779 -6.46508
v 0.6791843 110.0719 -107.479
v -4.60176 98.91089 -114.0758
v 81.54373 12.10779 -6.46508
v -4.60176 98.91089 -114.0758
v 76.26303 0.9464722 -13.06157
v -8.714218 110.0719 -99.95939
v 72.15038 12.10779 1.054573
v 66.86968 0.9465332 -5.541931
v -8.714218 110.0719 -99.95939
v 66.86968 0.9465332 -5.541931
v -13.99513 98.91089 -106.5561
v 9.387863 2.041199 -99.0173
v 110.6283 177.3526 27.44966
v 104.2026 186.8535 19.42289
v 9.387863 2.041199 -99.0173
v 104.2026 186.8535 19.42289
v 2.962387 11.54199 -107.0438
v -92.22078 98.85034 -23.30934
v -94.20708 94.73389 -25.79056
v -96.77952 97.91241 -29.00405
v -92.22078 98.85034 -23.30934
v -96.77952 97.91241 -29.00405
v -94.79311 102.0287 -26.5226
v -105.3474 110.0719 -22.60176
v -24.48283 12.10779 78.4122
v -29.7635 0.9465332 71.81573
v -105.3474 110.0719 -22.60176
v -29.7635 0.9465332 71.81573
v -110.6283 98.91089 -29.19852
v -1.784927 90.30371 -86.45931
v -2.659927 96.14392 -87.55236
v -12.38478 94.51086 -88.49234
v -11.50972 88.67046 -87.39929
v -6.232375 83.49207 -80.80687
v 38.05902 87.08569 -36.69941
v 33.49826 80.10552 -31.21446
v 58.05206 90.75933 -11.71364
v 56.88092 96.46527 -13.17657
v 72.04861 113.378 5.770487
v 53.94995 84.10449 -5.629753
v 74.89771 109.4684 9.329496
v 72.75253 104.9087 17.85794
v 97.47424 179.1905 37.53269
v 94.50528 173.4398 45.03204
v 95.59988 183.1896 46.3994
v 58.05206 90.75933 -11.71364
v 74.89771 109.4684 9.329496
v 72.04861 113.378 5.770487
v 95.33138 184.1213 34.85594
v 97.47424 179.1905 37.53269
v 95.59988 183.1896 46.3994
v 93.45712 188.1203 43.72264
v 87.36401 189.872 36.11128
v 63.25742 117.9374 5.996853
v 56.88092 96.46527 -13.17657
v 50.04671 103.1198 -10.50561
v 37.27324 93.06158 -37.65871
v 38.05902 87.08569 -36.69941
v -1.784927 90.30371 -86.45931
v 30.87918 100.0204 -34.41196
v -2.659927 96.14392 -87.55236
v -9.148788 102.9553 -84.44993
v -12.38478 94.51086 -88.49234
v -58.86879 102.9553 -44.64764
v -84.73557 94.51068 -30.57343
v -62.11085 94.5108 -48.68513
v -81.49962 102.9553 -26.53109
v -18.92207 99.90839 5.255116
v -41.5937 99.88042 23.35423
v 0.3350986 103.1198 29.28994
v -22.30412 103.1198 47.41328
v 13.55762 117.9376 45.78292
v -9.093491 117.9376 63.91576
v 37.71584 189.8719 75.85598
v 15.01312 189.872 94.03018
v 43.8087 188.1202 83.46761
v 21.10623 188.1203 101.6415
v 45.94854 183.1895 86.14668
v 23.24911 183.1896 104.3183
v 44.84715 173.4398 84.78448
v 23.24911 183.1896 104.3183
v 45.94854 183.1895 86.14668
v 22.15439 173.4398 102.9508
v 0.4016879 104.9087 75.77684
v 23.04552 104.9087 57.64982
v -18.40086 84.10449 52.28913
v 4.226395 84.10449 34.1754
v -38.97462 79.96558 26.55169
v -16.34163 79.99346 8.483535
v -78.58321 83.49213 -22.88799
v -55.96486 83.49213 -40.99461
v -61.23964 88.67041 -47.5891
v -83.86057 88.67029 -29.48031
v -62.11085 94.5108 -48.68513
v -84.73557 94.51068 -30.57343
v 14.18713 179.1905 104.2064
v 21.10623 188.1203 101.6415
v 23.24911 183.1896 104.3183
v 12.04428 184.1214 101.5296
v 15.01312 189.872 94.03018
v -9.093491 117.9376 63.91576
v -11.23863 113.378 72.44418
v -22.30412 103.1198 47.41328
v -26.40617 96.46521 53.49718
v -41.5937 99.88042 23.35423
v -8.389481 109.4683 76.00327
v 14.18713 179.1905 104.2064
v -46.15443 92.90033 28.83919
v -81.49962 102.9553 -26.53109
v -85.94704 96.14392 -20.87867
v -84.73557 94.51068 -30.57343
v -83.86057 88.67029 -29.48031
v -84.73557 94.51068 -30.57343
v -85.94704 96.14392 -20.87867
v -85.07207 90.30376 -19.78566
v -78.58321 83.49213 -22.88799
v -38.97462 79.96558 26.55169
v -45.36861 86.9245 29.79854
v -18.40086 84.10449 52.28913
v -25.23506 90.75933 54.96008
v 0.4016879 104.9087 75.77684
v -46.15443 92.90033 28.83919
v -85.94704 96.14392 -20.87867
v -26.40617 96.46521 53.49718
v -8.389481 109.4683 76.00327
v 22.15439 173.4398 102.9508
v 14.18713 179.1905 104.2064
v 23.24911 183.1896 104.3183
v 70.21468 173.4398 64.4771
v 45.94854 183.1895 86.14668
v 71.31601 183.1895 65.8393
v 44.84715 173.4398 84.78448
v 48.41293 104.9087 37.34247
v 23.04552 104.9087 57.64982
v 29.59384 84.10455 13.86807
v 4.226395 84.10449 34.1754
v 9.094345 80.07202 -11.73843
v -16.34163 79.99346 8.483535
v -30.59718 83.492 -61.30209
v -55.96486 83.49213 -40.99461
v -35.87196 88.67041 -67.89671
v -61.23964 88.67041 -47.5891
v -36.74318 94.5108 -68.99273
v -62.11085 94.5108 -48.68513
v 71.31601 183.1895 65.8393
v 45.94854 183.1895 86.14668
v 43.8087 188.1202 83.46761
v 69.17619 188.1203 63.16021
v 37.71584 189.8719 75.85598
v 63.08329 189.8719 55.54855
v 13.55762 117.9376 45.78292
v 38.92511 117.9376 25.47555
v 0.3350986 103.1198 29.28994
v 25.70264 103.1198 8.982514
v -18.92207 99.90839 5.255116
v 6.513932 99.98693 -14.96693
v -58.86879 102.9553 -44.64764
v -33.50111 102.9553 -64.95523
v -62.11085 94.5108 -48.68513
v -36.74318 94.5108 -68.99273
v 94.50528 173.4398 45.03204
v 71.31601 183.1895 65.8393
v 95.59988 183.1896 46.3994
v 70.21468 173.4398 64.4771
v 72.75253 104.9087 17.85794
v 48.41293 104.9087 37.34247
v 53.94995 84.10449 -5.629753
v 29.59384 84.10455 13.86807
v 33.49826 80.10552 -31.21446
v 9.094345 80.07202 -11.73843
v -6.232375 83.49207 -80.80687
v -30.59718 83.492 -61.30209
v -11.50972 88.67046 -87.39929
v -35.87196 88.67041 -67.89671
v -12.38478 94.51086 -88.49234
v -36.74318 94.5108 -68.99273
v 95.59988 183.1896 46.3994
v 71.31601 183.1895 65.8393
v 69.17619 188.1203 63.16021
v 93.45712 188.1203 43.72264
v 63.08329 189.8719 55.54855
v 87.36401 189.872 36.11128
v 63.25742 117.9374 5.996853
v 38.92511 117.9376 25.47555
v 50.04671 103.1198 -10.50561
v 25.70264 103.1198 8.982514
v 30.87918 100.0204 -34.41196
v 6.513932 99.98693 -14.96693
v -9.148788 102.9553 -84.44993
v -33.50111 102.9553 -64.95523
v -36.74318 94.5108 -68.99273
v -12.38478 94.51086 -88.49234
v 80.33044 14.50568 -3.167793
v -0.5343472 112.4699 -104.182
v 0.6791843 110.0719 -107.479
v 81.54373 12.10779 -6.46508
v 76.26303 0.9464722 -13.06157
v -4.60176 98.91089 -114.0758
v -8.084488 96.51281 -113.6135
v 72.78027 -1.451416 -12.59927
v -5.23149 112.4699 -100.4218
v 75.63327 14.50568 0.5924302
v 72.15038 12.10779 1.054573
v -8.714218 110.0719 -99.95939
v -8.714218 110.0719 -99.95939
v -13.99513 98.91089 -106.5561
v -13.14564 100.7264 -110.3079
v -7.864791 111.8875 -103.7112
v -5.23149 112.4699 -100.4218
v -0.5343472 112.4699 -104.182
v -3.167617 111.8875 -107.4714
v -8.448502 100.7264 -114.0682
v 0.6791843 110.0719 -107.479
v -4.60176 98.91089 -114.0758
v -13.99513 98.91089 -106.5561
v 66.86968 0.9465332 -5.541931
v 68.08313 -1.451355 -8.839039
v -12.78163 96.51281 -109.8532
v 75.99709 10.29205 1.046898
v 66.86968 0.9465332 -5.541931
v 72.15038 12.10779 1.054573
v 70.71649 -0.8691406 -5.549526
v 68.08313 -1.451355 -8.839039
v 72.78027 -1.451416 -12.59927
v 75.41363 -0.8691406 -9.309727
v 80.69426 10.29205 -2.713325
v 76.26303 0.9464722 -13.06157
v 81.54373 12.10779 -6.46508
v 72.78027 -1.451416 -12.59927
v -8.084488 96.51281 -113.6135
v -12.78163 96.51281 -109.8532
v 68.08313 -1.451355 -8.839039
v 75.63327 14.50568 0.5924302
v -5.23149 112.4699 -100.4218
v -0.5343472 112.4699 -104.182
v 80.33044 14.50568 -3.167793
v 80.69426 10.29205 -2.713325
v 80.33044 14.50568 -3.167793
v 81.54373 12.10779 -6.46508
v 75.63327 14.50568 0.5924302
v 75.99709 10.29205 1.046898
v 72.15038 12.10779 1.054573
v -8.448502 100.7264 -114.0682
v -8.084488 96.51281 -113.6135
v -4.60176 98.91089 -114.0758
v -12.78163 96.51281 -109.8532
v -13.14564 100.7264 -110.3079
v -13.99513 98.91089 -106.5561
v 8.420364 -1.136868E-13 -95.41324
v 109.6608 175.3115 31.05366
v 110.6283 177.3526 27.44966
v 9.387863 2.041199 -99.0173
v 2.962387 11.54199 -107.0438
v 104.2026 186.8535 19.42289
v 100.4743 188.8947 19.57811
v -0.7661893 13.58331 -106.8888
v 102.6157 175.3115 36.69345
v 1.37529 -1.136868E-13 -89.77345
v -2.353164 2.041199 -89.61829
v 98.88728 177.3526 36.84864
v 92.46164 186.8536 28.8219
v -8.77858 11.54205 -97.64481
v -7.811263 13.58331 -101.2491
v 93.42917 188.8947 25.21787
v 98.88728 177.3526 36.84864
v -2.353164 2.041199 -89.61829
v -8.77858 11.54205 -97.64481
v 92.46164 186.8536 28.8219
v -0.7661893 13.58331 -106.8888
v 100.4743 188.8947 19.57811
v 93.42917 188.8947 25.21787
v -7.811263 13.58331 -101.2491
v 1.37529 -1.136868E-13 -89.77345
v 102.6157 175.3115 36.69345
v 109.6608 175.3115 31.05366
v 8.420364 -1.136868E-13 -95.41324
v -7.095901 92.67621 -97.56091
v -93.17049 92.67621 -28.65571
v -90.89171 93.14502 -25.80907
v -4.817031 93.14507 -94.71423
v -4.073318 94.73394 -97.94524
v -6.645797 97.91241 -101.1587
v -9.668411 95.85474 -100.7745
v -7.095901 92.67621 -97.56091
v -4.817031 93.14507 -94.71423
v -2.83052 97.26134 -92.23275
v -2.087021 98.85028 -95.46397
v -4.073318 94.73394 -97.94524
v -9.96138 99.50134 -101.1404
v -96.03603 99.50134 -32.23524
v -95.74308 95.85474 -31.86929
v -9.668411 95.85474 -100.7745
v -6.645797 97.91241 -101.1587
v -4.659347 102.0287 -98.67726
v -7.974898 103.6178 -98.65897
v -9.96138 99.50134 -101.1404
v -2.83052 97.26134 -92.23275
v -88.90522 97.26128 -23.32755
v -89.19814 100.908 -23.69349
v -3.123489 100.908 -92.59872
v -3.123489 100.908 -92.59872
v -5.695937 104.0865 -95.81211
v -4.659347 102.0287 -98.67726
v -2.087021 98.85028 -95.46397
v -5.695937 104.0865 -95.81211
v -91.77065 104.0865 -26.90703
v -94.04954 103.6179 -29.75375
v -7.974898 103.6178 -98.65897
v -88.90522 97.26128 -23.32755
v -90.89171 93.14502 -25.80907
v -94.20708 94.73389 -25.79056
v -92.22078 98.85034 -23.30934
v -92.22078 98.85034 -23.30934
v -94.79311 102.0287 -26.5226
v -91.77065 104.0865 -26.90703
v -89.19814 100.908 -23.69349
v -94.79311 102.0287 -26.5226
v -96.77952 97.91241 -29.00405
v -96.03603 99.50134 -32.23524
v -94.04954 103.6179 -29.75375
v -93.17049 92.67621 -28.65571
v -95.74308 95.85474 -31.86929
v -96.77952 97.91241 -29.00405
v -94.20708 94.73389 -25.79056
v -4.073318 94.73394 -97.94524
v -2.087021 98.85028 -95.46397
v -4.659347 102.0287 -98.67726
v -6.645797 97.91241 -101.1587
v -3.123489 100.908 -92.59872
v -89.19814 100.908 -23.69349
v -91.77065 104.0865 -26.90703
v -5.695937 104.0865 -95.81211
v -93.17049 92.67621 -28.65571
v -7.095901 92.67621 -97.56091
v -9.668411 95.85474 -100.7745
v -95.74308 95.85474 -31.86929
v -9.96138 99.50134 -101.1404
v -7.974898 103.6178 -98.65897
v -94.04954 103.6179 -29.75375
v -96.03603 99.50134 -32.23524
v -90.89171 93.14502 -25.80907
v -88.90522 97.26128 -23.32755
v -2.83052 97.26134 -92.23275
v -4.817031 93.14507 -94.71423
v -88.04982 -1.136868E-13 -18.18611
v 13.1906 175.3115 108.2808
v 14.15814 177.3526 104.6768
v -87.08232 2.041199 -21.79011
v -93.50776 11.54199 -29.81664
v 7.732438 186.8536 96.65004
v 4.004044 188.8947 96.80523
v -97.2364 13.58331 -29.6617
v 6.145493 175.3115 113.9206
v -95.09489 -1.136868E-13 -12.54632
v -98.82332 2.041199 -12.39115
v 2.417099 177.3526 114.0758
v -4.00856 186.8535 106.049
v -105.2487 11.54205 -20.41762
v -104.2814 13.58331 -24.02192
v -3.04103 188.8947 102.445
v -87.08232 2.041199 -21.79011
v 14.15814 177.3526 104.6768
v 7.732438 186.8536 96.65004
v -93.50776 11.54199 -29.81664
v 2.417099 177.3526 114.0758
v -98.82332 2.041199 -12.39115
v -105.2487 11.54205 -20.41762
v -4.00856 186.8535 106.049
v -97.2364 13.58331 -29.6617
v 4.004044 188.8947 96.80523
v -3.04103 188.8947 102.445
v -104.2814 13.58331 -24.02192
v -95.09489 -1.136868E-13 -12.54632
v 6.145493 175.3115 113.9206
v 13.1906 175.3115 108.2808
v -88.04982 -1.136868E-13 -18.18611
v -16.30278 14.50568 74.18983
v -97.16753 112.4699 -26.82435
v -95.95402 110.0719 -30.12143
v -15.08946 12.10779 70.89253
v -20.37013 0.9465332 64.29607
v -101.235 98.91089 -36.71816
v -104.7177 96.51281 -36.25584
v -23.85292 -1.451355 64.75838
v -101.8647 112.4699 -23.06415
v -20.99992 14.50574 77.95006
v -24.48283 12.10779 78.4122
v -105.3474 110.0719 -22.60176
v -105.3474 110.0719 -22.60176
v -110.6283 98.91089 -29.19852
v -109.7788 100.7264 -32.95032
v -104.498 111.8875 -26.35359
v -101.8647 112.4699 -23.06415
v -97.16753 112.4699 -26.82435
v -99.8008 111.8875 -30.11381
v -105.0817 100.7264 -36.71053
v -95.95402 110.0719 -30.12143
v -101.235 98.91089 -36.71816
v -110.6283 98.91089 -29.19852
v -29.7635 0.9465332 71.81573
v -28.55006 -1.451416 68.51855
v -109.4149 96.51281 -32.49566
v -20.63606 10.29205 78.40452
v -29.7635 0.9465332 71.81573
v -24.48283 12.10779 78.4122
v -25.91673 -0.8691406 71.80811
v -28.55006 -1.451416 68.51855
v -23.85292 -1.451355 64.75838
v -21.21959 -0.8691406 68.0479
v -15.93895 10.29205 74.64429
v -20.37013 0.9465332 64.29607
v -15.08946 12.10779 70.89253
v -15.08946 12.10779 70.89253
v -95.95402 110.0719 -30.12143
v -101.235 98.91089 -36.71816
v -20.37013 0.9465332 64.29607
v -23.85292 -1.451355 64.75838
v -104.7177 96.51281 -36.25584
v -109.4149 96.51281 -32.49566
v -28.55006 -1.451416 68.51855
v -20.99992 14.50574 77.95006
v -101.8647 112.4699 -23.06415
v -97.16753 112.4699 -26.82435
v -16.30278 14.50568 74.18983
v -15.93895 10.29205 74.64429
v -16.30278 14.50568 74.18983
v -15.08946 12.10779 70.89253
v -20.99992 14.50574 77.95006
v -20.63606 10.29205 78.40452
v -24.48283 12.10779 78.4122
v -105.0817 100.7264 -36.71053
v -104.7177 96.51281 -36.25584
v -101.235 98.91089 -36.71816
v -109.4149 96.51281 -32.49566
v -109.7788 100.7264 -32.95032
v -110.6283 98.91089 -29.19852
v 102.6157 175.3115 36.69345
v 98.88728 177.3526 36.84864
v 102.5109 179.5615 36.56251
v 109.6608 175.3115 31.05366
v 96.08534 189.0624 28.53595
v 92.46164 186.8536 28.8219
v 93.42917 188.8947 25.21787
v 109.556 179.5615 30.92274
v 110.6283 177.3526 27.44966
v 104.2026 186.8535 19.42289
v 103.1304 189.0625 22.89613
v 100.4743 188.8947 19.57811
v 5.764328 -0.1676636 -98.73113
v 1.37529 -1.136868E-13 -89.77345
v 8.420364 -1.136868E-13 -95.41324
v 9.387863 2.041199 -99.0173
v -1.280807 -0.1676636 -93.09135
v -2.353164 2.041199 -89.61829
v -8.77858 11.54205 -97.64481
v -0.6612698 9.333435 -106.7577
v 2.962387 11.54199 -107.0438
v -0.7661893 13.58331 -106.8888
v -7.706313 9.333435 -101.118
v -7.811263 13.58331 -101.2491
v 6.145493 175.3115 113.9206
v 2.417099 177.3526 114.0758
v 6.040696 179.5615 113.7897
v 13.1906 175.3115 108.2808
v -0.3848416 189.0625 105.7631
v -4.00856 186.8535 106.049
v -3.04103 188.8947 102.445
v 13.08578 179.5615 108.1499
v 14.15814 177.3526 104.6768
v 7.732438 186.8536 96.65004
v 6.660264 189.0625 100.1233
v 4.004044 188.8947 96.80523
v -90.70589 -0.1677246 -21.50399
v -95.09489 -1.136868E-13 -12.54632
v -88.04982 -1.136868E-13 -18.18611
v -87.08232 2.041199 -21.79011
v -97.75099 -0.1677246 -15.86419
v -98.82332 2.041199 -12.39115
v -105.2487 11.54205 -20.41762
v -97.13142 9.333496 -29.5306
v -93.50776 11.54199 -29.81664
v -97.2364 13.58331 -29.6617
v -104.1765 9.333435 -23.8908
v -104.2814 13.58331 -24.02192
vt 0.6279297 0.9301758
vt 0.6274414 0.9301758
vt 0.6274414 0.9301758
vt 0.6279297 0.9301758
vt 0.6279297 0.9301758
vt 0.6279297 0.9301758
vt 0.6274414 0.9301758
vt 0.6274414 0.9301758
vt 0.6274414 0.9301758
vt 0.6274414 0.9301758
vt 0.6279297 0.9301758
vt 0.6274414 0.9301758
vt 0.6318359 0.9335938
vt 0.6318359 0.9335938
vt 0.6318359 0.9335938
vt 0.6318359 0.9335938
vt 0.6318359 0.9331055
vt 0.6318359 0.9335938
vt 0.6318359 0.9335938
vt 0.6318359 0.9335938
vt 0.6318359 0.9335938
vt 0.6318359 0.9331055
vt 0.6318359 0.9331055
vt 0.6323242 0.9335938
vt 0.8261719 0.9599609
vt 0.8261719 0.9599609
vt 0.8261719 0.9599609
vt 0.8261719 0.9604492
vt 0.8261719 0.9604492
vt 0.8261719 0.9604492
vt 0.6235352 0.9345703
vt 0.6274414 0.9296875
vt 0.6274414 0.9291992
vt 0.6235352 0.9345703
vt 0.6274414 0.9291992
vt 0.6235352 0.934082
vt 0.6279297 0.9301758
vt 0.6240234 0.9345703
vt 0.6240234 0.9345703
vt 0.6279297 0.9301758
vt 0.6240234 0.9345703
vt 0.6279297 0.9296875
vt 0.6269531 0.9301758
vt 0.6220703 0.9360352
vt 0.6220703 0.9355469
vt 0.6269531 0.9301758
vt 0.6220703 0.9355469
vt 0.6274414 0.9296875
vt 0.6318359 0.9335938
vt 0.6318359 0.9335938
vt 0.6323242 0.9335938
vt 0.6318359 0.9335938
vt 0.6323242 0.9335938
vt 0.6318359 0.9335938
vt 0.6323242 0.9335938
vt 0.628418 0.9384766
vt 0.6289063 0.9379883
vt 0.6323242 0.9335938
vt 0.6289063 0.9379883
vt 0.6328125 0.9331055
vt 0.8261719 0.9604492
vt 0.8261719 0.9604492
vt 0.8261719 0.9604492
vt 0.8261719 0.9604492
vt 0.8261719 0.9604492
vt 0.8266602 0.9604492
vt 0.8266602 0.9604492
vt 0.8266602 0.9604492
vt 0.8266602 0.9604492
vt 0.8266602 0.9604492
vt 0.8266602 0.9604492
vt 0.8266602 0.9604492
vt 0.8266602 0.9604492
vt 0.8266602 0.9604492
vt 0.8266602 0.9599609
vt 0.8266602 0.9599609
vt 0.8266602 0.9604492
vt 0.8266602 0.9604492
vt 0.8266602 0.9604492
vt 0.8266602 0.9604492
vt 0.8266602 0.9604492
vt 0.8266602 0.9599609
vt 0.8266602 0.9599609
vt 0.8266602 0.9604492
vt 0.8266602 0.9604492
vt 0.8266602 0.9604492
vt 0.8266602 0.9604492
vt 0.8266602 0.9604492
vt 0.8266602 0.9604492
vt 0.8261719 0.9604492
vt 0.8266602 0.9604492
vt 0.8261719 0.9604492
vt 0.8261719 0.9604492
vt 0.8261719 0.9604492
vt 0.7138672 0.7651367
vt 0.7114258 0.7636719
vt 0.7133789 0.765625
vt 0.7119141 0.7636719
vt 0.7172852 0.7607422
vt 0.715332 0.7592773
vt 0.7192383 0.7587891
vt 0.7172852 0.7573242
vt 0.7202148 0.7573242
vt 0.7182617 0.7558594
vt 0.7226563 0.7548828
vt 0.7207031 0.753418
vt 0.7231445 0.7543945
vt 0.7211914 0.7524414
vt 0.7231445 0.7539063
vt 0.7211914 0.7524414
vt 0.7231445 0.7539063
vt 0.7211914 0.7524414
vt 0.7231445 0.7539063
vt 0.7211914 0.7524414
vt 0.7192383 0.7548828
vt 0.7211914 0.7563477
vt 0.7177734 0.7568359
vt 0.7197266 0.7583008
vt 0.7158203 0.7587891
vt 0.7177734 0.7607422
vt 0.7119141 0.7631836
vt 0.7143555 0.7646484
vt 0.7138672 0.7651367
vt 0.7114258 0.7636719
vt 0.7133789 0.765625
vt 0.7114258 0.7636719
vt 0.8261719 0.9599609
vt 0.8261719 0.9599609
vt 0.8266602 0.9599609
vt 0.8261719 0.9599609
vt 0.8261719 0.9599609
vt 0.8261719 0.9599609
vt 0.8261719 0.9599609
vt 0.8261719 0.9599609
vt 0.8261719 0.9599609
vt 0.8261719 0.9604492
vt 0.8261719 0.9599609
vt 0.8261719 0.9599609
vt 0.8261719 0.9604492
vt 0.8261719 0.9604492
vt 0.8261719 0.9604492
vt 0.8261719 0.9604492
vt 0.8261719 0.9604492
vt 0.8261719 0.9604492
vt 0.8261719 0.9604492
vt 0.8261719 0.9604492
vt 0.8261719 0.9604492
vt 0.8261719 0.9604492
vt 0.8261719 0.9604492
vt 0.8261719 0.9599609
vt 0.8261719 0.9599609
vt 0.8261719 0.9599609
vt 0.8261719 0.9604492
vt 0.8261719 0.9604492
vt 0.8261719 0.9599609
vt 0.8261719 0.9599609
vt 0.8261719 0.9599609
vt 0.8261719 0.9599609
vt 0.8266602 0.9599609
vt 0.8266602 0.9599609
vt 0.8266602 0.9599609
vt 0.8266602 0.9599609
vt 0.8266602 0.9599609
vt 0.8266602 0.9604492
vt 0.8266602 0.9599609
vt 0.8266602 0.9604492
vt 0.8261719 0.9604492
vt 0.8261719 0.9604492
vt 0.8261719 0.9604492
vt 0.8261719 0.9604492
vt 0.8261719 0.9604492
vt 0.8261719 0.9604492
vt 0.8261719 0.9604492
vt 0.8261719 0.9604492
vt 0.8261719 0.9604492
vt 0.8266602 0.9599609
vt 0.8266602 0.9599609
vt 0.8266602 0.9599609
vt 0.8266602 0.9599609
vt 0.8266602 0.9599609
vt 0.8266602 0.9599609
vt 0.8261719 0.9599609
vt 0.8266602 0.9604492
vt 0.8261719 0.9604492
vt 0.8266602 0.9604492
vt 0.8261719 0.9604492
vt 0.8261719 0.9604492
vt 0.8261719 0.9604492
vt 0.8261719 0.9604492
vt 0.8261719 0.9604492
vt 0.8261719 0.9604492
vt 0.7280273 0.7573242
vt 0.7255859 0.7558594
vt 0.7280273 0.7573242
vt 0.7255859 0.7558594
vt 0.7255859 0.7597656
vt 0.7236328 0.7583008
vt 0.7241211 0.7617188
vt 0.7216797 0.7602539
vt 0.722168 0.7641602
vt 0.7202148 0.762207
vt 0.71875 0.7680664
vt 0.7163086 0.7666016
vt 0.7182617 0.7685547
vt 0.7158203 0.7670898
vt 0.7182617 0.769043
vt 0.7158203 0.7670898
vt 0.7280273 0.7573242
vt 0.7255859 0.7558594
vt 0.7255859 0.7558594
vt 0.7275391 0.7573242
vt 0.7250977 0.7563477
vt 0.7270508 0.7583008
vt 0.7250977 0.7607422
vt 0.7226563 0.7592773
vt 0.7236328 0.762207
vt 0.7216797 0.7607422
vt 0.722168 0.7641602
vt 0.7197266 0.7626953
vt 0.7182617 0.7685547
vt 0.7163086 0.7666016
vt 0.7158203 0.7670898
vt 0.7182617 0.769043
vt 0.6235352 0.9345703
vt 0.6274414 0.9296875
vt 0.6274414 0.9296875
vt 0.6235352 0.9345703
vt 0.6235352 0.934082
vt 0.6274414 0.9291992
vt 0.6279297 0.9291992
vt 0.6240234 0.934082
vt 0.6274414 0.9301758
vt 0.6235352 0.9345703
vt 0.6240234 0.9345703
vt 0.6279297 0.9301758
vt 0.6279297 0.9301758
vt 0.6279297 0.9296875
vt 0.6279297 0.9296875
vt 0.6279297 0.9296875
vt 0.6274414 0.9301758
vt 0.6274414 0.9296875
vt 0.6274414 0.9296875
vt 0.6279297 0.9291992
vt 0.6274414 0.9296875
vt 0.6274414 0.9291992
vt 0.6279297 0.9296875
vt 0.6240234 0.9345703
vt 0.6240234 0.934082
vt 0.6279297 0.9296875
vt 0.6235352 0.9345703
vt 0.6240234 0.9345703
vt 0.6240234 0.9345703
vt 0.6240234 0.9345703
vt 0.6240234 0.934082
vt 0.6240234 0.934082
vt 0.6235352 0.934082
vt 0.6235352 0.9345703
vt 0.6235352 0.934082
vt 0.6235352 0.9345703
vt 0.6240234 0.934082
vt 0.6279297 0.9291992
vt 0.6279297 0.9296875
vt 0.6240234 0.934082
vt 0.6235352 0.9345703
vt 0.6274414 0.9301758
vt 0.6274414 0.9296875
vt 0.6235352 0.9345703
vt 0.6235352 0.9345703
vt 0.6235352 0.9345703
vt 0.6235352 0.9345703
vt 0.6235352 0.9345703
vt 0.6235352 0.9345703
vt 0.6240234 0.9345703
vt 0.6279297 0.9291992
vt 0.6279297 0.9291992
vt 0.6274414 0.9291992
vt 0.6279297 0.9296875
vt 0.6279297 0.9296875
vt 0.6279297 0.9296875
vt 0.6269531 0.9301758
vt 0.6220703 0.9360352
vt 0.6220703 0.9360352
vt 0.6269531 0.9301758
vt 0.6274414 0.9296875
vt 0.6220703 0.9355469
vt 0.6225586 0.9355469
vt 0.6274414 0.9296875
vt 0.6225586 0.9365234
vt 0.6274414 0.9306641
vt 0.6274414 0.9306641
vt 0.6225586 0.9365234
vt 0.6230469 0.9360352
vt 0.6279297 0.9301758
vt 0.6279297 0.9301758
vt 0.6230469 0.9360352
vt 0.6225586 0.9365234
vt 0.6274414 0.9306641
vt 0.6279297 0.9301758
vt 0.6230469 0.9360352
vt 0.6274414 0.9296875
vt 0.6225586 0.9355469
vt 0.6230469 0.9360352
vt 0.6279297 0.9301758
vt 0.6274414 0.9306641
vt 0.6225586 0.9365234
vt 0.6220703 0.9360352
vt 0.6269531 0.9301758
vt 0.6279297 0.9301758
vt 0.6318359 0.9335938
vt 0.6318359 0.9335938
vt 0.6274414 0.9301758
vt 0.6274414 0.9301758
vt 0.6279297 0.9301758
vt 0.6279297 0.9301758
vt 0.6279297 0.9301758
vt 0.6274414 0.9301758
vt 0.6274414 0.9301758
vt 0.6274414 0.9301758
vt 0.6274414 0.9301758
vt 0.6279297 0.9301758
vt 0.6318359 0.9331055
vt 0.6318359 0.9331055
vt 0.6279297 0.9301758
vt 0.6279297 0.9301758
vt 0.6274414 0.9301758
vt 0.6279297 0.9301758
vt 0.6279297 0.9301758
vt 0.6274414 0.9301758
vt 0.6318359 0.9335938
vt 0.6318359 0.9335938
vt 0.6274414 0.9301758
vt 0.6274414 0.9301758
vt 0.6274414 0.9301758
vt 0.6274414 0.9301758
vt 0.6274414 0.9301758
vt 0.6274414 0.9301758
vt 0.6318359 0.9335938
vt 0.6318359 0.9331055
vt 0.6279297 0.9301758
vt 0.6318359 0.9335938
vt 0.6318359 0.9335938
vt 0.6318359 0.9335938
vt 0.6318359 0.9335938
vt 0.6318359 0.9335938
vt 0.6318359 0.9335938
vt 0.6318359 0.9335938
vt 0.6318359 0.9335938
vt 0.6318359 0.9335938
vt 0.6323242 0.9335938
vt 0.6318359 0.9331055
vt 0.6318359 0.9331055
vt 0.6318359 0.9335938
vt 0.6318359 0.9331055
vt 0.6323242 0.9335938
vt 0.6318359 0.9335938
vt 0.6274414 0.9301758
vt 0.6274414 0.9301758
vt 0.6274414 0.9301758
vt 0.6279297 0.9301758
vt 0.6274414 0.9301758
vt 0.6318359 0.9335938
vt 0.6318359 0.9335938
vt 0.6274414 0.9301758
vt 0.6318359 0.9335938
vt 0.6279297 0.9301758
vt 0.6279297 0.9301758
vt 0.6318359 0.9331055
vt 0.6279297 0.9301758
vt 0.6279297 0.9301758
vt 0.6318359 0.9331055
vt 0.6318359 0.9331055
vt 0.6318359 0.9335938
vt 0.6318359 0.9335938
vt 0.6274414 0.9301758
vt 0.6274414 0.9301758
vt 0.6318359 0.934082
vt 0.6269531 0.9399414
vt 0.6264648 0.9394531
vt 0.6318359 0.9335938
vt 0.6318359 0.9331055
vt 0.6269531 0.9394531
vt 0.6269531 0.9394531
vt 0.6323242 0.9331055
vt 0.6269531 0.9399414
vt 0.6318359 0.934082
vt 0.6323242 0.934082
vt 0.6274414 0.9399414
vt 0.6274414 0.9399414
vt 0.6323242 0.9335938
vt 0.6323242 0.9335938
vt 0.6274414 0.9394531
vt 0.6318359 0.9335938
vt 0.6264648 0.9394531
vt 0.6269531 0.9394531
vt 0.6318359 0.9331055
vt 0.6274414 0.9399414
vt 0.6323242 0.934082
vt 0.6323242 0.9335938
vt 0.6274414 0.9399414
vt 0.6323242 0.9331055
vt 0.6269531 0.9394531
vt 0.6274414 0.9394531
vt 0.6323242 0.9335938
vt 0.6318359 0.934082
vt 0.6269531 0.9399414
vt 0.6269531 0.9399414
vt 0.6318359 0.934082
vt 0.6279297 0.9379883
vt 0.6323242 0.9335938
vt 0.6318359 0.9331055
vt 0.6279297 0.9379883
vt 0.628418 0.9379883
vt 0.6323242 0.9331055
vt 0.6323242 0.9331055
vt 0.628418 0.9379883
vt 0.6323242 0.9335938
vt 0.628418 0.9384766
vt 0.628418 0.9384766
vt 0.6323242 0.9335938
vt 0.6323242 0.9335938
vt 0.6328125 0.9331055
vt 0.6328125 0.9331055
vt 0.6323242 0.9335938
vt 0.6323242 0.9335938
vt 0.6323242 0.9335938
vt 0.6323242 0.9331055
vt 0.6323242 0.9331055
vt 0.6318359 0.9331055
vt 0.6323242 0.9331055
vt 0.6328125 0.9331055
vt 0.6289063 0.9379883
vt 0.6289063 0.9379883
vt 0.6328125 0.9331055
vt 0.628418 0.9384766
vt 0.6289063 0.9379883
vt 0.628418 0.9384766
vt 0.628418 0.9379883
vt 0.6289063 0.9379883
vt 0.628418 0.9379883
vt 0.628418 0.9379883
vt 0.6279297 0.9384766
vt 0.628418 0.9379883
vt 0.6279297 0.9379883
vt 0.6279297 0.9379883
vt 0.6318359 0.9331055
vt 0.6323242 0.9331055
vt 0.628418 0.9379883
vt 0.628418 0.9379883
vt 0.6323242 0.9331055
vt 0.6328125 0.9331055
vt 0.6289063 0.9379883
vt 0.628418 0.9384766
vt 0.6323242 0.9335938
vt 0.6323242 0.9335938
vt 0.6279297 0.9379883
vt 0.6279297 0.9384766
vt 0.6279297 0.9379883
vt 0.6279297 0.9379883
vt 0.628418 0.9384766
vt 0.628418 0.9384766
vt 0.628418 0.9384766
vt 0.6323242 0.9331055
vt 0.6323242 0.9331055
vt 0.6323242 0.9331055
vt 0.6328125 0.9331055
vt 0.6328125 0.9331055
vt 0.6328125 0.9331055
vt 0.6225586 0.9365234
vt 0.6225586 0.9365234
vt 0.6225586 0.9365234
vt 0.6220703 0.9360352
vt 0.6225586 0.9360352
vt 0.6230469 0.9360352
vt 0.6230469 0.9360352
vt 0.6220703 0.9360352
vt 0.6220703 0.9360352
vt 0.6220703 0.9355469
vt 0.6225586 0.9360352
vt 0.6225586 0.9355469
vt 0.6269531 0.9301758
vt 0.6274414 0.9306641
vt 0.6269531 0.9301758
vt 0.6269531 0.9301758
vt 0.6274414 0.9301758
vt 0.6274414 0.9306641
vt 0.6279297 0.9301758
vt 0.6274414 0.9296875
vt 0.6274414 0.9296875
vt 0.6274414 0.9296875
vt 0.6279297 0.9301758
vt 0.6279297 0.9301758
vt 0.6269531 0.9399414
vt 0.6274414 0.9399414
vt 0.6269531 0.9399414
vt 0.6269531 0.9399414
vt 0.6274414 0.9399414
vt 0.6274414 0.9399414
vt 0.6274414 0.9394531
vt 0.6269531 0.9399414
vt 0.6264648 0.9394531
vt 0.6269531 0.9394531
vt 0.6269531 0.9394531
vt 0.6269531 0.9394531
vt 0.6318359 0.9335938
vt 0.6318359 0.934082
vt 0.6318359 0.934082
vt 0.6318359 0.9335938
vt 0.6323242 0.934082
vt 0.6323242 0.934082
vt 0.6323242 0.9335938
vt 0.6323242 0.9331055
vt 0.6318359 0.9331055
vt 0.6323242 0.9331055
vt 0.6323242 0.9335938
vt 0.6323242 0.9335938
vn 0.515625 -0.8100586 -0.279541
vn 0.515625 -0.8100586 -0.279541
vn 0.515625 -0.8100586 -0.279541
vn -0.05535889 -0.104126 -0.9931641
vn -0.05535889 -0.104126 -0.9931641
vn -0.05535889 -0.104126 -0.9931641
vn 0.9570313 0.104126 0.2712402
vn 0.9570313 0.104126 0.2712402
vn 0.9570313 0.104126 0.2712402
vn 0.3857422 0.8100586 -0.4421387
vn 0.3857422 0.8100586 -0.4421387
vn 0.3857422 0.8100586 -0.4421387
vn 0.05532837 0.1040649 0.9931641
vn 0.05532837 0.1040649 0.9931641
vn 0.05532837 0.1040649 0.9931641
vn -0.515625 0.8095703 0.279541
vn -0.515625 0.8095703 0.279541
vn -0.515625 0.8095703 0.279541
vn -0.3857422 -0.8100586 0.4421387
vn -0.3857422 -0.8100586 0.4421387
vn -0.3857422 -0.8100586 0.4421387
vn -0.9570313 -0.1040649 -0.2712402
vn -0.9570313 -0.1040649 -0.2712402
vn -0.9570313 -0.1040649 -0.2712402
vn -0.4697266 -0.1541748 0.8691406
vn -0.9272461 0.2514648 0.2775879
vn -0.9404297 0.3039551 0.1535645
vn -0.6723633 -0.5083008 0.5380859
vn -0.75 -0.4299316 0.5029297
vn -0.6938477 0.5092773 0.5092773
vn 0.7807617 -1.013279E-06 -0.625
vn 0.7807617 -1.192093E-07 -0.625
vn 0.7807617 -1.788139E-07 -0.625
vn 0.7807617 -1.013279E-06 -0.625
vn 0.7807617 -1.788139E-07 -0.625
vn 0.7807617 -1.072884E-06 -0.625
vn -0.7807617 8.34465E-07 0.625
vn -0.7807617 -1.788139E-07 0.625
vn -0.7807617 -1.192093E-07 0.625
vn -0.7807617 8.34465E-07 0.625
vn -0.7807617 -1.192093E-07 0.625
vn -0.7807617 8.940697E-07 0.625
vn 0.7807617 4.768372E-07 -0.625
vn 0.7807617 8.940697E-07 -0.625
vn 0.7807617 8.940697E-07 -0.625
vn 0.7807617 4.768372E-07 -0.625
vn 0.7807617 8.940697E-07 -0.625
vn 0.7807617 4.768372E-07 -0.625
vn -0.7807617 0 0.625
vn -0.7807617 3.695488E-06 0.625
vn -0.7807617 0 0.625
vn -0.7807617 0 0.625
vn -0.7807617 0 0.625
vn -0.7807617 -3.695488E-06 0.625
vn -0.7807617 2.682209E-06 0.625
vn -0.7807617 4.172325E-07 0.625
vn -0.7807617 5.960464E-07 0.625
vn -0.7807617 2.682209E-06 0.625
vn -0.7807617 5.960464E-07 0.625
vn -0.7807617 2.801418E-06 0.625
vn 0.65625 -0.4282227 -0.621582
vn 0.6474609 0.5107422 -0.5654297
vn -0.5170898 0.2294922 -0.824707
vn -0.3864746 -0.6430664 -0.6611328
vn 0.07226563 -0.9780273 -0.1962891
vn 0.6733398 -0.5058594 -0.5390625
vn 0.1361084 -0.9858398 -0.09973145
vn 0.784668 -0.4875488 -0.3828125
vn 0.6269531 0.3876953 -0.6757813
vn 0.473877 0.2514648 -0.84375
vn 0.3515625 -0.918457 0.180542
vn 0.9306641 -0.3120117 -0.19104
vn 0.6225586 -0.5795898 0.5253906
vn 0.9511719 -0.1541748 -0.2680664
vn 0.6987305 -0.4208984 0.5786133
vn 0.7021484 0.1380615 0.6982422
vn 0.784668 -0.4875488 -0.3828125
vn 0.9306641 -0.3120117 -0.19104
vn 0.473877 0.2514648 -0.84375
vn 0.3557129 0.3041992 -0.8837891
vn 0.9511719 -0.1541748 -0.2680664
vn 0.7021484 0.1380615 0.6982422
vn 0.3823242 0.8745117 0.298584
vn -0.4050293 0.5537109 -0.7275391
vn -0.3579102 0.5576172 -0.7490234
vn 0.6269531 0.3876953 -0.6757813
vn -0.04232788 0.9243164 -0.3793945
vn 0.6928711 0.454834 -0.5595703
vn 0.6733398 -0.5058594 -0.5390625
vn 0.65625 -0.4282227 -0.621582
vn 0.144165 0.9829102 -0.1165771
vn 0.6474609 0.5107422 -0.5654297
vn 0.07757568 0.9858398 -0.1470947
vn -0.5170898 0.2294922 -0.824707
vn -0.04937744 0.9970703 -0.06039429
vn -0.6967773 0.2276611 -0.6801758
vn -0.6040039 0.2556152 -0.7548828
vn -0.1668701 0.9848633 0.05154419
vn -0.001722336 1 -0.0007681847
vn -0.154541 0.9804688 0.1227417
vn -0.2052002 0.9448242 -0.2556152
vn -0.3703613 0.9213867 -0.1171265
vn -0.5146484 0.5668945 -0.6430664
vn -0.6591797 0.5566406 -0.5053711
vn -0.5151367 0.5673828 -0.6425781
vn -0.6269531 0.5527344 -0.5488281
vn 0.2827148 0.8920898 0.3530273
vn 0.2030029 0.8730469 0.4433594
vn 0.6210938 0.1134644 0.7753906
vn 0.5219727 0.1395264 0.8417969
vn 0.5664063 -0.4230957 0.7075195
vn 0.5219727 0.1395264 0.8417969
vn 0.6210938 0.1134644 0.7753906
vn 0.4025879 -0.420166 0.8129883
vn 0.3686523 -0.5786133 0.7275391
vn 0.5058594 -0.5878906 0.6318359
vn 0.09155273 -0.9169922 0.3886719
vn 0.2301025 -0.9296875 0.2868652
vn -0.1339111 -0.9838867 0.1165161
vn 0.00460434 -1 0.004375458
vn -0.2154541 -0.9760742 0.03265381
vn -0.07476807 -0.9926758 -0.09344482
vn -0.4660645 -0.6665039 -0.5820313
vn -0.5668945 -0.6411133 -0.5175781
vn -0.6040039 0.2556152 -0.7548828
vn -0.6967773 0.2276611 -0.6801758
vn -0.4697266 -0.1541748 0.8691406
vn 0.2030029 0.8730469 0.4433594
vn 0.5219727 0.1395264 0.8417969
vn -0.9404297 0.3039551 0.1535645
vn -0.6269531 0.5527344 -0.5488281
vn -0.6591797 0.5566406 -0.5053711
vn -0.9272461 0.2514648 0.2775879
vn -0.3703613 0.9213867 -0.1171265
vn -0.796875 0.387207 0.463623
vn -0.154541 0.9804688 0.1227417
vn -0.3901367 -0.3120117 0.8662109
vn -0.4697266 -0.1541748 0.8691406
vn -0.6987305 0.4523926 0.5541992
vn -0.1668701 0.9848633 0.05154419
vn -0.6938477 0.5092773 0.5092773
vn -0.6967773 0.2276611 -0.6801758
vn -0.5668945 -0.6411133 -0.5175781
vn -0.6967773 0.2276611 -0.6801758
vn -0.6938477 0.5092773 0.5092773
vn -0.75 -0.4299316 0.5029297
vn -0.2154541 -0.9760742 0.03265381
vn -0.1339111 -0.9838867 0.1165161
vn -0.6723633 -0.5083008 0.5380859
vn 0.09155273 -0.9169922 0.3886719
vn -0.5449219 -0.487793 0.6821289
vn 0.3686523 -0.5786133 0.7275391
vn -0.6987305 0.4523926 0.5541992
vn -0.6938477 0.5092773 0.5092773
vn -0.796875 0.387207 0.463623
vn -0.3901367 -0.3120117 0.8662109
vn 0.4025879 -0.420166 0.8129883
vn -0.4697266 -0.1541748 0.8691406
vn 0.5219727 0.1395264 0.8417969
vn 0.5664063 -0.4230957 0.7075195
vn 0.6210938 0.1134644 0.7753906
vn 0.6210938 0.1134644 0.7753906
vn 0.5664063 -0.4230957 0.7075195
vn 0.5058594 -0.5878906 0.6313477
vn 0.5058594 -0.5878906 0.6318359
vn 0.2298584 -0.9301758 0.2866211
vn 0.2301025 -0.9296875 0.2868652
vn 0.004692078 -1 0.00446701
vn 0.00460434 -1 0.004375458
vn -0.07409668 -0.9926758 -0.09295654
vn -0.07476807 -0.9926758 -0.09344482
vn -0.4660645 -0.6665039 -0.5820313
vn -0.4660645 -0.6665039 -0.5820313
vn -0.6040039 0.2556152 -0.7548828
vn -0.6040039 0.2556152 -0.7548828
vn 0.6210938 0.1134644 0.7753906
vn 0.6210938 0.1134644 0.7753906
vn 0.2827148 0.8920898 0.3530273
vn 0.2827148 0.8920898 0.3530273
vn -0.5151367 0.5673828 -0.6425781
vn -0.5146484 0.5668945 -0.6430664
vn -0.5146484 0.5668945 -0.6430664
vn -0.5146484 0.5668945 -0.6430664
vn -0.2052002 0.9448242 -0.2556152
vn -0.2049561 0.9448242 -0.2553711
vn -0.001722336 1 -0.0007681847
vn -0.001784325 1 -0.0008282661
vn -0.04937744 0.9970703 -0.06039429
vn -0.04989624 0.9970703 -0.06091309
vn -0.6040039 0.2556152 -0.7548828
vn -0.6040039 0.2556152 -0.7548828
vn 0.6987305 -0.4208984 0.5786133
vn 0.6210938 0.1134644 0.7753906
vn 0.7021484 0.1380615 0.6982422
vn 0.5664063 -0.4230957 0.7075195
vn 0.6225586 -0.5795898 0.5253906
vn 0.5058594 -0.5878906 0.6313477
vn 0.3515625 -0.918457 0.180542
vn 0.2298584 -0.9301758 0.2866211
vn 0.1361084 -0.9858398 -0.09973145
vn 0.004692078 -1 0.00446701
vn 0.07226563 -0.9780273 -0.1962891
vn -0.07409668 -0.9926758 -0.09295654
vn -0.3864746 -0.6430664 -0.6611328
vn -0.4660645 -0.6665039 -0.5820313
vn -0.5170898 0.2294922 -0.824707
vn -0.6040039 0.2556152 -0.7548828
vn 0.7021484 0.1380615 0.6982422
vn 0.6210938 0.1134644 0.7753906
vn 0.2827148 0.8920898 0.3530273
vn 0.3823242 0.8745117 0.298584
vn -0.5146484 0.5668945 -0.6430664
vn -0.4050293 0.5537109 -0.7275391
vn -0.3579102 0.5576172 -0.7490234
vn -0.5146484 0.5668945 -0.6430664
vn -0.04232788 0.9243164 -0.3793945
vn -0.2049561 0.9448242 -0.2553711
vn 0.144165 0.9829102 -0.1165771
vn -0.001784325 1 -0.0008282661
vn 0.07757568 0.9858398 -0.1470947
vn -0.04989624 0.9970703 -0.06091309
vn -0.6040039 0.2556152 -0.7548828
vn -0.5170898 0.2294922 -0.824707
vn 0.8188477 0.5639648 -0.1087036
vn 0.8188477 0.5639648 -0.1087036
vn 0.8188477 0.5639648 -0.1087036
vn 0.8188477 0.5639648 -0.1087036
vn 0.2851563 -0.5639648 -0.7749023
vn 0.2854004 -0.5639648 -0.7749023
vn 0.2854004 -0.5639648 -0.7749023
vn 0.2851563 -0.5639648 -0.7749023
vn -0.2851563 0.5639648 0.7749023
vn -0.2854004 0.5639648 0.7749023
vn -0.2854004 0.5639648 0.7749023
vn -0.2851563 0.5639648 0.7749023
vn -0.8857422 0.4641113 0.02404785
vn -0.9208984 0.3886719 -0.02044678
vn -0.7495117 0.463623 -0.4724121
vn -0.6469727 0.6801758 -0.3444824
vn -0.1635742 0.9853516 -0.04354858
vn -0.006668091 0.9853516 -0.1691895
vn -0.1945801 0.6801758 -0.7070313
vn -0.296875 0.463623 -0.8349609
vn 0.2172852 0.4638672 -0.8588867
vn 0.1816406 0.3886719 -0.9033203
vn -0.8188477 -0.5639648 0.1087036
vn -0.8188477 -0.5639648 0.1087036
vn -0.8188477 -0.5639648 0.1087036
vn -0.8188477 -0.5639648 0.1087036
vn 0.296875 -0.463623 0.8349609
vn -0.2172852 -0.4638672 0.8588867
vn -0.1816406 -0.3886719 0.9033203
vn 0.1945801 -0.6801758 0.7070313
vn 0.006633759 -0.9853516 0.1690674
vn 0.1635742 -0.9853516 0.04351807
vn 0.6469727 -0.6801758 0.3444824
vn 0.7495117 -0.463623 0.4724121
vn 0.8857422 -0.4638672 -0.02406311
vn 0.9208984 -0.3886719 0.02043152
vn -0.3771973 -0.7973633 -0.4711914
vn -0.3771973 -0.7973633 -0.4711914
vn -0.3771973 -0.7973633 -0.4711914
vn -0.3771973 -0.7973633 -0.4711914
vn 0.3771973 0.7973633 0.4711914
vn 0.3771973 0.7973633 0.4711914
vn 0.3771973 0.7973633 0.4711914
vn 0.3771973 0.7973633 0.4711914
vn 0.7495117 -0.463623 0.4724121
vn 0.6943359 0.1361084 0.706543
vn 0.9208984 -0.3886719 0.02043152
vn 0.5375977 0.1361084 0.8320313
vn 0.296875 -0.463623 0.8349609
vn -0.1816406 -0.3886719 0.9033203
vn -0.296875 0.463623 -0.8349609
vn -0.5375977 -0.1362305 -0.8320313
vn 0.1816406 0.3886719 -0.9033203
vn -0.6943359 -0.1362305 -0.706543
vn -0.7495117 0.463623 -0.4724121
vn -0.9208984 0.3886719 -0.02044678
vn 0.8764648 -0.4799805 -0.03646851
vn 0.8764648 -0.4799805 -0.03646851
vn 0.8764648 -0.4799805 -0.03646851
vn 0.8764648 -0.4799805 -0.03646851
vn 0.2275391 0.4799805 -0.847168
vn 0.227417 0.4799805 -0.847168
vn 0.227417 0.4799805 -0.847168
vn 0.2275391 0.4799805 -0.847168
vn -0.227417 -0.4799805 0.847168
vn -0.227417 -0.4799805 0.847168
vn -0.227417 -0.4799805 0.847168
vn -0.227417 -0.4799805 0.847168
vn -0.8764648 0.4799805 0.03646851
vn -0.8764648 0.4799805 0.03652954
vn -0.8764648 0.4799805 0.03652954
vn -0.8764648 0.4799805 0.03646851
vn -0.7807617 -4.172325E-07 0.625
vn -0.7807617 1.549721E-06 0.625
vn -0.7807617 1.490116E-06 0.625
vn -0.7807617 -4.768372E-07 0.625
vn -0.4589844 0.6787109 -0.5732422
vn -0.4589844 0.6787109 -0.5732422
vn -0.4589844 0.6787109 -0.5732422
vn -0.4589844 0.6787109 -0.5732422
vn 0.4589844 -0.6787109 0.5732422
vn 0.4589844 -0.6787109 0.5732422
vn 0.4589844 -0.6787109 0.5732422
vn 0.4589844 -0.6787109 0.5732422
vn 0.07971191 -0.9916992 0.09954834
vn 0.07971191 -0.9916992 0.09954834
vn 0.07971191 -0.9916992 0.09954834
vn 0.07971191 -0.9916992 0.09954834
vn 0.2819824 -0.5595703 -0.7792969
vn 0.2819824 -0.5595703 -0.7792969
vn 0.2819824 -0.5595703 -0.7792969
vn 0.2819824 -0.5595703 -0.7792969
vn 0.9018555 -0.4321289 -0.004974365
vn 0.9018555 -0.4321289 -0.005016327
vn 0.9018555 -0.4321289 -0.004989624
vn 0.9018555 -0.4321289 -0.004947662
vn -0.6196289 -0.1275635 -0.7744141
vn -0.6196289 -0.1274414 -0.7744141
vn -0.6196289 -0.1274414 -0.7744141
vn -0.6196289 -0.1275635 -0.7744141
vn 0.2022705 0.4321289 -0.8789063
vn 0.2022705 0.4321289 -0.8789063
vn 0.2022705 0.4321289 -0.8789063
vn 0.2022705 0.4321289 -0.8789063
vn 0.6196289 0.1275635 0.7744141
vn 0.6196289 0.1274414 0.7744141
vn 0.6196289 0.1274414 0.7744141
vn 0.6196289 0.1275635 0.7744141
vn 0.8222656 0.5595703 -0.1045532
vn 0.8222656 0.5595703 -0.1045532
vn 0.8222656 0.5595703 -0.1045532
vn 0.8222656 0.5595703 -0.1045532
vn -0.07965088 0.9916992 -0.0994873
vn -0.07965088 0.9916992 -0.09954834
vn -0.07965088 0.9916992 -0.09954834
vn -0.07965088 0.9916992 -0.0994873
vn -0.2022705 -0.4321289 0.8789063
vn -0.2022705 -0.4321289 0.8789063
vn -0.2022705 -0.4321289 0.8789063
vn -0.2022705 -0.4321289 0.8789063
vn -0.2819824 0.5595703 0.7792969
vn -0.2819824 0.5595703 0.7792969
vn -0.2819824 0.5595703 0.7792969
vn -0.2819824 0.5595703 0.7792969
vn -0.9018555 0.4321289 0.005012512
vn -0.9018555 0.4321289 0.005008698
vn -0.9018555 0.4321289 0.005012512
vn -0.9018555 0.4321289 0.005012512
vn -0.8222656 -0.5595703 0.1045532
vn -0.8222656 -0.5595703 0.1045532
vn -0.8222656 -0.5595703 0.1045532
vn -0.8222656 -0.5595703 0.1044922
vn 0.7807617 3.099442E-06 -0.625
vn 0.7807617 3.278255E-06 -0.625
vn 0.7807617 3.099442E-06 -0.625
vn 0.7807617 2.861023E-06 -0.625
vn 0.3818359 0.7915039 0.4770508
vn 0.3818359 0.7915039 0.4770508
vn 0.3818359 0.7915039 0.4770508
vn 0.3818359 0.7915039 0.4770508
vn -0.3818359 -0.7915039 -0.4770508
vn -0.3818359 -0.7915039 -0.4770508
vn -0.3818359 -0.7915039 -0.4770508
vn -0.3818359 -0.7915039 -0.4770508
vn -0.4946289 0.6113281 -0.6176758
vn -0.4946289 0.6113281 -0.6176758
vn -0.4946289 0.6113281 -0.6176758
vn -0.4946289 0.6113281 -0.6176758
vn 0.4946289 -0.6113281 0.6176758
vn 0.4946289 -0.6113281 0.6176758
vn 0.4946289 -0.6113281 0.6176758
vn 0.4946289 -0.6113281 0.6176758
vn 0.8764648 -0.4799805 -0.03646851
vn 0.8764648 -0.4799805 -0.03646851
vn 0.8764648 -0.4799805 -0.03646851
vn 0.8764648 -0.4799805 -0.03646851
vn 0.2275391 0.4799805 -0.847168
vn 0.227417 0.4799805 -0.847168
vn 0.227417 0.4799805 -0.847168
vn 0.2275391 0.4799805 -0.847168
vn -0.227417 -0.4799805 0.847168
vn -0.227417 -0.4799805 0.847168
vn -0.227417 -0.4799805 0.847168
vn -0.227417 -0.4799805 0.847168
vn -0.8764648 0.4799805 0.03646851
vn -0.8764648 0.4799805 0.03652954
vn -0.8764648 0.4799805 0.03652954
vn -0.8764648 0.4799805 0.03646851
vn 0.7807617 -8.940697E-07 -0.625
vn 0.7807617 1.013279E-06 -0.625
vn 0.7807617 9.536743E-07 -0.625
vn 0.7807617 -9.536743E-07 -0.625
vn -0.7807617 4.768372E-07 0.625
vn -0.7807617 2.384186E-07 0.625
vn -0.7807617 2.384186E-07 0.625
vn -0.7807617 4.768372E-07 0.625
vn -0.4589844 0.6787109 -0.5732422
vn -0.4589844 0.6787109 -0.5732422
vn -0.4589844 0.6787109 -0.5732422
vn -0.4589844 0.6787109 -0.5732422
vn 0.4589844 -0.6787109 0.5732422
vn 0.4589844 -0.6787109 0.5732422
vn 0.4589844 -0.6787109 0.5732422
vn 0.4589844 -0.6787109 0.5732422
vn 0.8188477 0.5639648 -0.1087036
vn 0.8188477 0.5639648 -0.1087036
vn 0.8188477 0.5639648 -0.1087036
vn 0.8188477 0.5639648 -0.1087036
vn 0.2851563 -0.5639648 -0.7749023
vn 0.2854004 -0.5639648 -0.7749023
vn 0.2854004 -0.5639648 -0.7749023
vn 0.2851563 -0.5639648 -0.7749023
vn -0.2851563 0.5639648 0.7749023
vn -0.2854004 0.5639648 0.7749023
vn -0.2854004 0.5639648 0.7749023
vn -0.2851563 0.5639648 0.7749023
vn -0.8857422 0.4641113 0.02404785
vn -0.9208984 0.3886719 -0.02044678
vn -0.7495117 0.463623 -0.4724121
vn -0.6469727 0.6801758 -0.3444824
vn -0.1635742 0.9853516 -0.04354858
vn -0.006671906 0.9853516 -0.1691895
vn -0.1945801 0.6801758 -0.7070313
vn -0.296875 0.463623 -0.8349609
vn 0.2172852 0.4638672 -0.8588867
vn 0.1816406 0.3886719 -0.9033203
vn -0.8188477 -0.5639648 0.1087036
vn -0.8188477 -0.5639648 0.1087036
vn -0.8188477 -0.5639648 0.1087036
vn -0.8188477 -0.5639648 0.1087036
vn 0.296875 -0.463623 0.8349609
vn -0.2172852 -0.4638672 0.8588867
vn -0.1816406 -0.3886719 0.9033203
vn 0.1945801 -0.6801758 0.7070313
vn 0.006652832 -0.9853516 0.1690674
vn 0.1635742 -0.9853516 0.04348755
vn 0.6469727 -0.6801758 0.3444824
vn 0.7495117 -0.463623 0.4724121
vn 0.8857422 -0.4638672 -0.02404785
vn 0.9208984 -0.3886719 0.02046204
vn 0.7807617 -8.34465E-07 -0.625
vn 0.7807617 -2.801418E-06 -0.625
vn 0.7807617 -2.682209E-06 -0.625
vn 0.7807617 -7.152557E-07 -0.625
vn -0.3771973 -0.7973633 -0.4711914
vn -0.3771973 -0.7973633 -0.4711914
vn -0.3771973 -0.7973633 -0.4711914
vn -0.3771973 -0.7973633 -0.4711914
vn 0.3771973 0.7973633 0.4711914
vn 0.3771973 0.7973633 0.4711914
vn 0.3771973 0.7973633 0.4711914
vn 0.3771973 0.7973633 0.4711914
vn 0.7495117 -0.463623 0.4724121
vn 0.6943359 0.1362305 0.706543
vn 0.9208984 -0.3886719 0.02046204
vn 0.5375977 0.1361084 0.8320313
vn 0.296875 -0.463623 0.8349609
vn -0.1816406 -0.3886719 0.9033203
vn -0.296875 0.463623 -0.8349609
vn -0.5375977 -0.1362305 -0.8320313
vn 0.1816406 0.3886719 -0.9033203
vn -0.6943359 -0.1362305 -0.706543
vn -0.7495117 0.463623 -0.4724121
vn -0.9208984 0.3886719 -0.02044678
vn 0.5678711 0.03933716 0.8222656
vn -0.2301025 0.4868164 0.8427734
vn 0.3051758 0.6088867 0.7319336
vn 0.6777344 0.03933716 0.7338867
vn 0.1707764 0.8081055 0.5639648
vn -0.2734375 0.5507813 0.7885742
vn -0.07965088 0.996582 0.01335144
vn 0.6474609 0.6088867 0.4580078
vn 0.8725586 0.4868164 -0.04013062
vn 0.8291016 0.5507813 -0.09429932
vn 0.5131836 0.8081055 0.2900391
vn 0.03045654 0.996582 -0.07476807
vn -0.1707764 -0.8081055 -0.5639648
vn -0.0304718 -0.996582 0.07476807
vn 0.07958984 -0.996582 -0.0133667
vn 0.2734375 -0.5507813 -0.7885742
vn -0.5131836 -0.8081055 -0.2900391
vn -0.8291016 -0.5507813 0.09423828
vn -0.8725586 -0.4868164 0.0401001
vn -0.3051758 -0.6088867 -0.7319336
vn 0.2301025 -0.4868164 -0.8427734
vn -0.5678711 -0.03939819 -0.8222656
vn -0.6474609 -0.6088867 -0.4580078
vn -0.6777344 -0.03936768 -0.7338867
vn 0.5678711 0.03933716 0.8222656
vn -0.2301025 0.4868164 0.8427734
vn 0.3051758 0.6088867 0.7319336
vn 0.6777344 0.03933716 0.7338867
vn 0.1707764 0.8081055 0.5639648
vn -0.2734375 0.5507813 0.7885742
vn -0.07965088 0.996582 0.01334381
vn 0.6474609 0.6088867 0.4580078
vn 0.8725586 0.4868164 -0.04013062
vn 0.8291016 0.5507813 -0.09423828
vn 0.5131836 0.8081055 0.2900391
vn 0.03045654 0.996582 -0.07476807
vn -0.1707764 -0.8081055 -0.5639648
vn -0.03045654 -0.996582 0.07476807
vn 0.07965088 -0.996582 -0.01335907
vn 0.2734375 -0.5507813 -0.7885742
vn -0.5131836 -0.8081055 -0.2900391
vn -0.8291016 -0.5507813 0.09423828
vn -0.8725586 -0.4868164 0.04013062
vn -0.3051758 -0.6088867 -0.7319336
vn 0.2301025 -0.4868164 -0.8427734
vn -0.5678711 -0.03939819 -0.8222656
vn -0.6474609 -0.6088867 -0.4580078
vn -0.6777344 -0.03939819 -0.7338867
g Chair_0
f 3/3/3 2/2/2 1/1/1
f 6/6/6 5/5/5 4/4/4
f 9/9/9 8/8/8 7/7/7
f 12/12/12 11/11/11 10/10/10
f 15/15/15 14/14/14 13/13/13
f 18/18/18 17/17/17 16/16/16
f 21/21/21 20/20/20 19/19/19
f 24/24/24 23/23/23 22/22/22
f 27/27/27 26/26/26 25/25/25
f 30/30/30 29/29/29 28/28/28
f 33/33/33 32/32/32 31/31/31
f 36/36/36 35/35/35 34/34/34
f 39/39/39 38/38/38 37/37/37
f 42/42/42 41/41/41 40/40/40
f 45/45/45 44/44/44 43/43/43
f 48/48/48 47/47/47 46/46/46
f 51/51/51 50/50/50 49/49/49
f 54/54/54 53/53/53 52/52/52
f 57/57/57 56/56/56 55/55/55
f 60/60/60 59/59/59 58/58/58
f 63/63/63 62/62/62 61/61/61
f 64/64/64 63/63/63 61/61/61
f 61/61/61 65/65/65 64/64/64
f 61/61/61 66/66/66 65/65/65
f 66/66/66 67/67/67 65/65/65
f 66/66/66 68/68/68 67/67/67
f 69/69/69 68/68/68 66/66/66
f 69/69/69 70/70/70 68/68/68
f 68/68/68 71/71/71 67/67/67
f 68/68/68 72/72/72 71/71/71
f 72/72/72 73/73/73 71/71/71
f 72/72/72 74/74/74 73/73/73
f 74/74/74 75/75/75 73/73/73
f 74/74/74 76/76/76 75/75/75
f 79/79/79 78/78/78 77/77/77
f 79/79/79 80/80/80 78/78/78
f 80/80/80 81/81/81 78/78/78
f 81/81/81 80/80/80 82/82/82
f 80/80/80 83/83/83 82/82/82
f 80/80/80 84/84/84 83/83/83
f 84/84/84 80/80/80 79/79/79
f 85/85/85 84/84/84 79/79/79
f 85/85/85 79/79/79 86/86/86
f 87/87/87 85/85/85 86/86/86
f 87/87/87 86/86/86 88/88/88
f 88/88/88 86/86/86 89/89/89
f 88/88/88 89/89/89 90/90/90
f 91/91/91 87/87/87 88/88/88
f 92/92/92 88/88/88 90/90/90
f 91/91/91 88/88/88 92/92/92
f 93/93/93 91/91/91 92/92/92
f 92/92/92 94/94/94 93/93/93
f 97/97/97 96/96/96 95/95/95
f 96/96/96 98/98/98 95/95/95
f 95/95/95 98/98/98 99/99/99
f 98/98/98 100/100/100 99/99/99
f 99/99/99 100/100/100 101/101/101
f 100/100/100 102/102/102 101/101/101
f 101/101/101 102/102/102 103/103/103
f 102/102/102 104/104/104 103/103/103
f 103/103/103 104/104/104 105/105/105
f 104/104/104 106/106/106 105/105/105
f 105/105/105 106/106/106 107/107/107
f 106/106/106 108/108/108 107/107/107
f 107/107/107 108/108/108 109/109/109
f 108/108/108 110/110/110 109/109/109
f 113/113/113 112/112/112 111/111/111
f 112/112/112 114/114/114 111/111/111
f 111/111/111 114/114/114 115/115/115
f 116/116/116 111/111/111 115/115/115
f 116/116/116 115/115/115 117/117/117
f 118/118/118 116/116/116 117/117/117
f 118/118/118 117/117/117 119/119/119
f 120/120/120 118/118/118 119/119/119
f 120/120/120 119/119/119 121/121/121
f 122/122/122 120/120/120 121/121/121
f 122/122/122 121/121/121 123/123/123
f 121/121/121 124/124/124 123/123/123
f 125/125/125 123/123/123 124/124/124
f 126/126/126 125/125/125 124/124/124
f 129/129/129 128/128/128 127/127/127
f 128/128/128 130/130/130 127/127/127
f 128/128/128 131/131/131 130/130/130
f 131/131/131 132/132/132 130/130/130
f 132/132/132 133/133/133 130/130/130
f 132/132/132 134/134/134 133/133/133
f 134/134/134 135/135/135 133/133/133
f 134/134/134 136/136/136 135/135/135
f 133/133/133 135/135/135 137/137/137
f 133/133/133 137/137/137 138/138/138
f 136/136/136 139/139/139 135/135/135
f 136/136/136 140/140/140 139/139/139
f 140/140/140 141/141/141 139/139/139
f 141/141/141 140/140/140 142/142/142
f 145/145/145 144/144/144 143/143/143
f 146/146/146 145/145/145 143/143/143
f 146/146/146 143/143/143 147/147/147
f 146/146/146 147/147/147 148/148/148
f 149/149/149 146/146/146 148/148/148
f 149/149/149 148/148/148 150/150/150
f 151/151/151 149/149/149 150/150/150
f 151/151/151 150/150/150 152/152/152
f 153/153/153 149/149/149 151/151/151
f 153/153/153 154/154/154 149/149/149
f 155/155/155 153/153/153 151/151/151
f 155/155/155 151/151/151 156/156/156
f 156/156/156 151/151/151 152/152/152
f 156/156/156 152/152/152 157/157/157
f 158/158/158 156/156/156 157/157/157
f 159/159/159 158/158/158 157/157/157
f 162/162/162 161/161/161 160/160/160
f 161/161/161 163/163/163 160/160/160
f 164/164/164 160/160/160 163/163/163
f 165/165/165 164/164/164 163/163/163
f 166/166/166 164/164/164 165/165/165
f 167/167/167 166/166/166 165/165/165
f 168/168/168 166/166/166 167/167/167
f 169/169/169 168/168/168 167/167/167
f 170/170/170 168/168/168 169/169/169
f 171/171/171 170/170/170 169/169/169
f 170/170/170 171/171/171 172/172/172
f 171/171/171 173/173/173 172/172/172
f 174/174/174 172/172/172 173/173/173
f 175/175/175 174/174/174 173/173/173
f 178/178/178 177/177/177 176/176/176
f 179/179/179 178/178/178 176/176/176
f 180/180/180 178/178/178 179/179/179
f 181/181/181 180/180/180 179/179/179
f 182/182/182 180/180/180 181/181/181
f 183/183/183 182/182/182 181/181/181
f 184/184/184 182/182/182 183/183/183
f 185/185/185 184/184/184 183/183/183
f 186/186/186 184/184/184 185/185/185
f 187/187/187 186/186/186 185/185/185
f 188/188/188 186/186/186 187/187/187
f 189/189/189 188/188/188 187/187/187
f 190/190/190 188/188/188 189/189/189
f 191/191/191 190/190/190 189/189/189
f 194/194/194 193/193/193 192/192/192
f 193/193/193 195/195/195 192/192/192
f 196/196/196 192/192/192 195/195/195
f 197/197/197 196/196/196 195/195/195
f 198/198/198 196/196/196 197/197/197
f 199/199/199 198/198/198 197/197/197
f 200/200/200 198/198/198 199/199/199
f 201/201/201 200/200/200 199/199/199
f 202/202/202 200/200/200 201/201/201
f 203/203/203 202/202/202 201/201/201
f 202/202/202 203/203/203 204/204/204
f 203/203/203 205/205/205 204/204/204
f 206/206/206 204/204/204 205/205/205
f 207/207/207 206/206/206 205/205/205
f 210/210/210 209/209/209 208/208/208
f 211/211/211 210/210/210 208/208/208
f 212/212/212 210/210/210 211/211/211
f 213/213/213 212/212/212 211/211/211
f 212/212/212 213/213/213 214/214/214
f 215/215/215 212/212/212 214/214/214
f 215/215/215 214/214/214 216/216/216
f 217/217/217 215/215/215 216/216/216
f 217/217/217 216/216/216 218/218/218
f 219/219/219 217/217/217 218/218/218
f 219/219/219 218/218/218 220/220/220
f 221/221/221 219/219/219 220/220/220
f 222/222/222 221/221/221 220/220/220
f 223/223/223 222/222/222 220/220/220
f 226/226/226 225/225/225 224/224/224
f 227/227/227 226/226/226 224/224/224
f 230/230/230 229/229/229 228/228/228
f 231/231/231 230/230/230 228/228/228
f 234/234/234 233/233/233 232/232/232
f 235/235/235 234/234/234 232/232/232
f 238/238/238 237/237/237 236/236/236
f 239/239/239 238/238/238 236/236/236
f 239/239/239 236/236/236 240/240/240
f 239/239/239 240/240/240 241/241/241
f 238/238/238 239/239/239 242/242/242
f 242/242/242 239/239/239 241/241/241
f 243/243/243 238/238/238 242/242/242
f 244/244/244 242/242/242 241/241/241
f 245/245/245 243/243/243 242/242/242
f 244/244/244 245/245/245 242/242/242
f 248/248/248 247/247/247 246/246/246
f 249/249/249 248/248/248 246/246/246
f 252/252/252 251/251/251 250/250/250
f 251/251/251 253/253/253 250/250/250
f 251/251/251 254/254/254 253/253/253
f 253/253/253 254/254/254 255/255/255
f 253/253/253 256/256/256 250/250/250
f 256/256/256 253/253/253 255/255/255
f 256/256/256 257/257/257 250/250/250
f 258/258/258 256/256/256 255/255/255
f 257/257/257 256/256/256 259/259/259
f 256/256/256 258/258/258 259/259/259
f 262/262/262 261/261/261 260/260/260
f 263/263/263 262/262/262 260/260/260
f 266/266/266 265/265/265 264/264/264
f 267/267/267 266/266/266 264/264/264
f 270/270/270 269/269/269 268/268/268
f 269/269/269 271/271/271 268/268/268
f 271/271/271 272/272/272 268/268/268
f 273/273/273 272/272/272 271/271/271
f 276/276/276 275/275/275 274/274/274
f 275/275/275 277/277/277 274/274/274
f 277/277/277 278/278/278 274/274/274
f 278/278/278 277/277/277 279/279/279
f 282/282/282 281/281/281 280/280/280
f 283/283/283 282/282/282 280/280/280
f 286/286/286 285/285/285 284/284/284
f 287/287/287 286/286/286 284/284/284
f 290/290/290 289/289/289 288/288/288
f 291/291/291 290/290/290 288/288/288
f 294/294/294 293/293/293 292/292/292
f 295/295/295 294/294/294 292/292/292
f 298/298/298 297/297/297 296/296/296
f 299/299/299 298/298/298 296/296/296
f 302/302/302 301/301/301 300/300/300
f 303/303/303 302/302/302 300/300/300
f 306/306/306 305/305/305 304/304/304
f 307/307/307 306/306/306 304/304/304
f 310/310/310 309/309/309 308/308/308
f 311/311/311 310/310/310 308/308/308
f 314/314/314 313/313/313 312/312/312
f 315/315/315 314/314/314 312/312/312
f 318/318/318 317/317/317 316/316/316
f 319/319/319 318/318/318 316/316/316
f 322/322/322 321/321/321 320/320/320
f 323/323/323 322/322/322 320/320/320
f 326/326/326 325/325/325 324/324/324
f 327/327/327 326/326/326 324/324/324
f 330/330/330 329/329/329 328/328/328
f 331/331/331 330/330/330 328/328/328
f 334/334/334 333/333/333 332/332/332
f 335/335/335 334/334/334 332/332/332
f 338/338/338 337/337/337 336/336/336
f 339/339/339 338/338/338 336/336/336
f 342/342/342 341/341/341 340/340/340
f 343/343/343 342/342/342 340/340/340
f 346/346/346 345/345/345 344/344/344
f 347/347/347 346/346/346 344/344/344
f 350/350/350 349/349/349 348/348/348
f 351/351/351 350/350/350 348/348/348
f 354/354/354 353/353/353 352/352/352
f 355/355/355 354/354/354 352/352/352
f 358/358/358 357/357/357 356/356/356
f 359/359/359 358/358/358 356/356/356
f 362/362/362 361/361/361 360/360/360
f 363/363/363 362/362/362 360/360/360
f 366/366/366 365/365/365 364/364/364
f 367/367/367 366/366/366 364/364/364
f 370/370/370 369/369/369 368/368/368
f 371/371/371 370/370/370 368/368/368
f 374/374/374 373/373/373 372/372/372
f 375/375/375 374/374/374 372/372/372
f 378/378/378 377/377/377 376/376/376
f 379/379/379 378/378/378 376/376/376
f 382/382/382 381/381/381 380/380/380
f 383/383/383 382/382/382 380/380/380
f 386/386/386 385/385/385 384/384/384
f 387/387/387 386/386/386 384/384/384
f 390/390/390 389/389/389 388/388/388
f 391/391/391 390/390/390 388/388/388
f 394/394/394 393/393/393 392/392/392
f 395/395/395 394/394/394 392/392/392
f 398/398/398 397/397/397 396/396/396
f 399/399/399 398/398/398 396/396/396
f 402/402/402 401/401/401 400/400/400
f 403/403/403 402/402/402 400/400/400
f 406/406/406 405/405/405 404/404/404
f 407/407/407 406/406/406 404/404/404
f 410/410/410 409/409/409 408/408/408
f 411/411/411 410/410/410 408/408/408
f 414/414/414 413/413/413 412/412/412
f 415/415/415 414/414/414 412/412/412
f 418/418/418 417/417/417 416/416/416
f 419/419/419 418/418/418 416/416/416
f 422/422/422 421/421/421 420/420/420
f 423/423/423 422/422/422 420/420/420
f 423/423/423 420/420/420 424/424/424
f 423/423/423 424/424/424 425/425/425
f 422/422/422 423/423/423 426/426/426
f 426/426/426 423/423/423 425/425/425
f 427/427/427 422/422/422 426/426/426
f 428/428/428 426/426/426 425/425/425
f 429/429/429 427/427/427 426/426/426
f 428/428/428 429/429/429 426/426/426
f 432/432/432 431/431/431 430/430/430
f 433/433/433 432/432/432 430/430/430
f 436/436/436 435/435/435 434/434/434
f 435/435/435 437/437/437 434/434/434
f 435/435/435 438/438/438 437/437/437
f 437/437/437 438/438/438 439/439/439
f 437/437/437 440/440/440 434/434/434
f 440/440/440 437/437/437 439/439/439
f 440/440/440 441/441/441 434/434/434
f 442/442/442 440/440/440 439/439/439
f 441/441/441 440/440/440 443/443/443
f 440/440/440 442/442/442 443/443/443
f 446/446/446 445/445/445 444/444/444
f 447/447/447 446/446/446 444/444/444
f 450/450/450 449/449/449 448/448/448
f 451/451/451 450/450/450 448/448/448
f 454/454/454 453/453/453 452/452/452
f 455/455/455 454/454/454 452/452/452
f 458/458/458 457/457/457 456/456/456
f 457/457/457 459/459/459 456/456/456
f 459/459/459 460/460/460 456/456/456
f 461/461/461 460/460/460 459/459/459
f 464/464/464 463/463/463 462/462/462
f 463/463/463 465/465/465 462/462/462
f 465/465/465 466/466/466 462/462/462
f 466/466/466 465/465/465 467/467/467
f 470/470/470 469/469/469 468/468/468
f 470/470/470 468/468/468 471/471/471
f 470/470/470 472/472/472 469/469/469
f 472/472/472 473/473/473 469/469/469
f 472/472/472 474/474/474 473/473/473
f 475/475/475 470/470/470 471/471/471
f 472/472/472 470/470/470 475/475/475
f 476/476/476 475/475/475 471/471/471
f 476/476/476 477/477/477 475/475/475
f 474/474/474 472/472/472 478/478/478
f 478/478/478 472/472/472 475/475/475
f 477/477/477 478/478/478 475/475/475
f 479/479/479 474/474/474 478/478/478
f 477/477/477 479/479/479 478/478/478
f 482/482/482 481/481/481 480/480/480
f 483/483/483 482/482/482 480/480/480
f 481/481/481 484/484/484 480/480/480
f 485/485/485 484/484/484 481/481/481
f 485/485/485 486/486/486 484/484/484
f 480/480/480 487/487/487 483/483/483
f 487/487/487 480/480/480 484/484/484
f 487/487/487 488/488/488 483/483/483
f 488/488/488 487/487/487 489/489/489
f 486/486/486 490/490/490 484/484/484
f 490/490/490 487/487/487 484/484/484
f 487/487/487 490/490/490 489/489/489
f 486/486/486 491/491/491 490/490/490
f 490/490/490 491/491/491 489/489/489
f 494/494/494 493/493/493 492/492/492
f 494/494/494 492/492/492 495/495/495
f 494/494/494 496/496/496 493/493/493
f 496/496/496 497/497/497 493/493/493
f 496/496/496 498/498/498 497/497/497
f 499/499/499 494/494/494 495/495/495
f 496/496/496 494/494/494 499/499/499
f 500/500/500 499/499/499 495/495/495
f 500/500/500 501/501/501 499/499/499
f 498/498/498 496/496/496 502/502/502
f 502/502/502 496/496/496 499/499/499
f 501/501/501 502/502/502 499/499/499
f 503/503/503 498/498/498 502/502/502
f 501/501/501 503/503/503 502/502/502
f 506/506/506 505/505/505 504/504/504
f 507/507/507 506/506/506 504/504/504
f 505/505/505 508/508/508 504/504/504
f 509/509/509 508/508/508 505/505/505
f 509/509/509 510/510/510 508/508/508
f 504/504/504 511/511/511 507/507/507
f 511/511/511 504/504/504 508/508/508
f 511/511/511 512/512/512 507/507/507
f 512/512/512 511/511/511 513/513/513
f 510/510/510 514/514/514 508/508/508
f 514/514/514 511/511/511 508/508/508
f 511/511/511 514/514/514 513/513/513
f 510/510/510 515/515/515 514/514/514
f 514/514/514 515/515/515 513/513/513
