g Chest_Selip1
v -0.6244811 1.493784 -0.3530583
v -0.4391634 1.493783 0.2453865
v -0.7443774 1.493783 -0.02331102
v -0.07583973 1.493783 0.7166768
v 0.4493591 1.493784 0.8175801
v 0.140493 1.493783 0.9701802
v -0.2917238 0.5053816 0.1447938
v -0.7954888 0.5053822 -0.02033434
v -0.7954888 1.136493 -0.02033434
v -0.4609813 1.136493 0.2731947
v -0.5266887 1.392654 0.3014149
v -0.8518361 1.391615 -0.02349779
v -0.4538027 0.5053822 -0.6018761
v -0.1841259 0.5053816 -0.6815263
v -0.2257201 1.136493 -0.8578141
v -0.3987142 1.136493 -0.565308
v -0.5284639 0.5053822 -0.3076335
v -0.4420012 1.392224 -0.6129356
v -0.259612 1.392571 -0.9367265
v -0.7242577 1.392457 -0.4362486
v -0.6538765 1.136493 -0.400413
v -0.7954888 0.5053822 -0.02033434
v -0.8518361 1.391615 -0.02349779
v -0.7954888 1.136493 -0.02033434
v -0.1841259 0.5053816 -0.6815263
v 0.04587872 0.5053822 -0.8631999
v 0.04212933 1.136493 -0.8072112
v -0.2257201 1.136493 -0.8578141
v -0.259612 1.392571 -0.9367265
v 0.03739452 1.392191 -0.8713884
v 0.5384355 0.5053822 -0.4603746
v 0.7598142 0.5053816 -0.2718083
v 0.8012293 1.136493 -0.3696062
v 0.6201198 1.136493 -0.6400615
v 0.2904934 0.5053822 -0.5754381
v 0.6566335 1.39169 -0.6831157
v 0.8669222 1.392598 -0.3978209
v 0.3544866 1.392741 -0.885612
v 0.3319902 1.136493 -0.8098131
v 0.04587872 0.5053822 -0.8631999
v 0.03739452 1.392191 -0.8713884
v 0.04212933 1.136493 -0.8072112
v 0.5468478 0.5053816 0.05922804
v 0.7947364 0.5053822 0.3726668
v 0.8776854 1.136493 0.3724641
v 0.7455617 1.136492 0.01033827
v 0.7598142 0.5053816 -0.2718083
v 0.8012293 1.136493 -0.3696062
v 0.8669222 1.392598 -0.3978209
v 0.8019431 1.391769 0.01350294
v 0.9480962 1.392566 0.4083143
v 0.4297785 0.5053822 0.4348738
v 0.4362155 0.5053822 0.8454579
v 0.4695454 1.136493 0.8493037
v 0.5970433 1.136492 0.5793196
v 0.7947364 0.5053822 0.3726668
v 0.8776854 1.136493 0.3724641
v 0.9480962 1.392566 0.4083143
v 0.6402602 1.39181 0.6268703
v 0.5034414 1.3926 0.9282246
v 0.4362155 0.5053822 0.8454579
v 0.1187324 0.5053816 0.8635505
v 0.1470506 1.136493 1.028541
v 0.4695454 1.136493 0.8493037
v 0.5034414 1.3926 0.9282246
v 0.1517753 1.391643 1.092581
v -0.1425155 0.5053816 0.6564516
v -0.3107375 0.5053822 0.5098286
v -0.4668306 1.136493 0.6443
v -0.103453 1.136493 0.7458003
v 0.1187324 0.5053816 0.8635505
v 0.1470506 1.136493 1.028541
v 0.1517753 1.391643 1.092581
v -0.1259291 1.392504 0.8215284
v -0.5033934 1.392034 0.6874117
v -0.3107375 0.5053822 0.5098286
v -0.2917238 0.5053816 0.1447938
v -0.4609813 1.136493 0.2731947
v -0.4668306 1.136493 0.6443
v -0.5033934 1.392034 0.6874117
v -0.5266887 1.392654 0.3014149
v -0.1259291 1.392504 0.8215284
v -0.07583973 1.493783 0.7166768
v 0.140493 1.493783 0.9701802
v 0.1517753 1.391643 1.092581
v 0.4493591 1.493784 0.8175801
v 0.5034414 1.3926 0.9282246
v 0.5590011 1.493783 0.5362806
v 0.6402602 1.39181 0.6268703
v 0.8449312 1.493783 0.3551753
v 0.9480962 1.392566 0.4083143
v 0.7378722 1.493783 0.04734633
v 0.8019431 1.391769 0.01350294
v 0.7723852 1.493783 -0.3577788
v 0.8669222 1.392598 -0.3978209
v 0.593906 1.493783 -0.5924144
v 0.6566335 1.39169 -0.6831157
v 0.3448825 1.493783 -0.7664415
v 0.3544866 1.392741 -0.885612
v 0.0427766 1.493784 -0.7492888
v 0.03739452 1.392191 -0.8713884
v -0.2011776 1.493784 -0.805454
v -0.259612 1.392571 -0.9367265
v -0.3616185 1.493783 -0.5158556
v -0.4420012 1.392224 -0.6129356
v -0.6244811 1.493784 -0.3530583
v -0.7242577 1.392457 -0.4362486
v -0.7443774 1.493783 -0.02331102
v -0.8518361 1.391615 -0.02349779
v -0.4391634 1.493783 0.2453865
v -0.5266887 1.392654 0.3014149
v -0.4287859 1.493783 0.6117824
v -0.5033934 1.392034 0.6874117
v -0.07583973 1.493783 0.7166768
v -0.1259291 1.392504 0.8215284
v -0.4391634 1.493783 0.2453865
v -0.07583973 1.493783 0.7166768
v -0.4287859 1.493783 0.6117824
v 0.5590011 1.493783 0.5362806
v 0.7378722 1.493783 0.04734633
v 0.5590011 1.493783 0.5362806
v 0.4493591 1.493784 0.8175801
v 0.7378722 1.493783 0.04734633
v 0.8449312 1.493783 0.3551753
v -0.3616185 1.493783 -0.5158556
v -0.6244811 1.493784 -0.3530583
v 0.0427766 1.493784 -0.7492888
v -0.2011776 1.493784 -0.805454
v 0.593906 1.493783 -0.5924144
v 0.7723852 1.493783 -0.3577788
v 0.3448825 1.493783 -0.7664415
vt 0.09356689 0.6640625
vt 0.09039307 0.6669922
vt 0.09295654 0.6665039
vt 0.08648682 0.6679688
vt 0.08361816 0.6660156
vt 0.08441162 0.6679688
vt 0.1116943 0.6308594
vt 0.1095581 0.6308594
vt 0.1095581 0.652832
vt 0.1116943 0.652832
vt 0.1116943 0.652832
vt 0.1095581 0.652832
vt 0.1052246 0.6308594
vt 0.1030884 0.6308594
vt 0.1030884 0.652832
vt 0.1052246 0.652832
vt 0.1074219 0.6308594
vt 0.1052246 0.652832
vt 0.1030884 0.652832
vt 0.1074219 0.652832
vt 0.1074219 0.652832
vt 0.1095581 0.6308594
vt 0.1095581 0.652832
vt 0.1095581 0.652832
vt 0.1030884 0.6308594
vt 0.1009521 0.6308594
vt 0.1009521 0.652832
vt 0.1030884 0.652832
vt 0.1030884 0.652832
vt 0.1009521 0.652832
vt 0.09667969 0.6308594
vt 0.09454346 0.6308594
vt 0.09454346 0.652832
vt 0.09667969 0.652832
vt 0.09881592 0.6308594
vt 0.09667969 0.652832
vt 0.09454346 0.652832
vt 0.09881592 0.652832
vt 0.09881592 0.652832
vt 0.1009521 0.6308594
vt 0.1009521 0.652832
vt 0.1009521 0.652832
vt 0.09240723 0.6308594
vt 0.090271 0.6308594
vt 0.090271 0.652832
vt 0.09240723 0.652832
vt 0.09454346 0.6308594
vt 0.09454346 0.652832
vt 0.09454346 0.652832
vt 0.09240723 0.652832
vt 0.090271 0.652832
vt 0.08813477 0.6308594
vt 0.08599854 0.6308594
vt 0.08599854 0.652832
vt 0.08813477 0.652832
vt 0.090271 0.6308594
vt 0.090271 0.652832
vt 0.090271 0.652832
vt 0.08813477 0.652832
vt 0.08599854 0.652832
vt 0.08599854 0.6308594
vt 0.0838623 0.6308594
vt 0.0838623 0.652832
vt 0.08599854 0.652832
vt 0.08599854 0.652832
vt 0.0838623 0.652832
vt 0.08172607 0.6308594
vt 0.07958984 0.6308594
vt 0.07958984 0.652832
vt 0.08172607 0.652832
vt 0.0838623 0.6308594
vt 0.0838623 0.652832
vt 0.0838623 0.652832
vt 0.08172607 0.652832
vt 0.07958984 0.652832
vt 0.07958984 0.6308594
vt 0.07745361 0.6308594
vt 0.07745361 0.652832
vt 0.07958984 0.652832
vt 0.07958984 0.652832
vt 0.07745361 0.652832
vt 0.08618164 0.6689453
vt 0.08648682 0.6679688
vt 0.08441162 0.6679688
vt 0.08361816 0.6689453
vt 0.08361816 0.6660156
vt 0.0824585 0.6665039
vt 0.08410645 0.6635742
vt 0.08276367 0.6635742
vt 0.08361816 0.6611328
vt 0.0824585 0.6606445
vt 0.08526611 0.659668
vt 0.08459473 0.6586914
vt 0.0869751 0.6572266
vt 0.08648682 0.65625
vt 0.08880615 0.6567383
vt 0.08886719 0.6552734
vt 0.09063721 0.6567383
vt 0.09124756 0.6557617
vt 0.09204102 0.6582031
vt 0.09289551 0.6572266
vt 0.09338379 0.6591797
vt 0.09454346 0.6586914
vt 0.09307861 0.6616211
vt 0.09442139 0.6616211
vt 0.09356689 0.6640625
vt 0.09484863 0.6640625
vt 0.09295654 0.6665039
vt 0.09381104 0.6669922
vt 0.09039307 0.6669922
vt 0.09082031 0.6679688
vt 0.08862305 0.668457
vt 0.08874512 0.6699219
vt 0.08648682 0.6679688
vt 0.08618164 0.6689453
vt 0.09039307 0.6669922
vt 0.08648682 0.6679688
vt 0.08862305 0.668457
vt 0.08410645 0.6635742
vt 0.08526611 0.659668
vt 0.08410645 0.6635742
vt 0.08361816 0.6660156
vt 0.08526611 0.659668
vt 0.08361816 0.6611328
vt 0.09307861 0.6616211
vt 0.09356689 0.6640625
vt 0.09204102 0.6582031
vt 0.09338379 0.6591797
vt 0.08880615 0.6567383
vt 0.0869751 0.6572266
vt 0.09063721 0.6567383
vn 0 1 -1.192093E-07
vn 0 1 -1.192093E-07
vn 0 1 -1.192093E-07
vn 0 1 0
vn 0 1 0
vn 0 1 0
vn -0.8364258 -0.1280518 0.5327148
vn -0.4782715 -0.08496094 0.8740234
vn -0.5830078 -0.1433105 0.7993164
vn -0.8647461 -0.1711426 0.4716797
vn -0.8842773 -0.2128906 0.4157715
vn -0.6704102 -0.1951904 0.7158203
vn -0.7324219 -0.04168701 -0.6791992
vn -0.6430664 -0.04318237 -0.7646484
vn -0.7641602 -0.1558838 -0.6259766
vn -0.7172852 -0.1481934 -0.6806641
vn -0.8320313 -0.05401611 -0.5522461
vn -0.6987305 -0.2543945 -0.668457
vn -0.8393555 -0.2463379 -0.4841309
vn -0.7617188 -0.263916 -0.5913086
vn -0.7963867 -0.161499 -0.5830078
vn -0.8510742 -0.0682373 -0.5209961
vn -0.9165039 -0.2509766 -0.3115234
vn -0.894043 -0.1643066 -0.4169922
vn -0.2541504 -0.05618286 -0.965332
vn -0.2541504 -0.05618286 -0.965332
vn -0.02185059 -0.1619873 -0.9863281
vn -0.01085663 -0.166748 -0.9858398
vn 0.194458 -0.2504883 -0.9482422
vn 0.194458 -0.2504883 -0.9482422
vn 0.6142578 -0.1541748 -0.7739258
vn 0.746582 -0.1203003 -0.6542969
vn 0.7724609 -0.1782227 -0.609375
vn 0.6401367 -0.2032471 -0.7412109
vn 0.4658203 -0.1325684 -0.875
vn 0.6635742 -0.2480469 -0.7055664
vn 0.7944336 -0.2368164 -0.559082
vn 0.2685547 -0.2668457 -0.9257813
vn 0.3647461 -0.2009277 -0.9091797
vn 0.4692383 -0.07684326 -0.8798828
vn -0.02650452 -0.2626953 -0.9643555
vn 0.2375488 -0.1733398 -0.9555664
vn 0.9873047 -0.1087036 -0.1153564
vn 0.8657227 -0.1177368 -0.4868164
vn 0.8969727 -0.1619873 -0.411377
vn 0.9814453 -0.1641846 -0.1010132
vn 0.9326172 -0.07580566 0.3525391
vn 0.9570313 -0.1566162 0.2431641
vn 0.9638672 -0.2229004 0.1467285
vn 0.9697266 -0.2186279 -0.1082153
vn 0.9194336 -0.2021484 -0.3376465
vn 0.7695313 -0.112793 0.6289063
vn 0.9799805 -0.09783936 0.1743164
vn 0.9384766 -0.1707764 0.2995605
vn 0.7587891 -0.1844482 0.6245117
vn 0.3828125 -0.1004028 0.918457
vn 0.4824219 -0.1812744 0.8569336
vn 0.5668945 -0.2536621 0.7836914
vn 0.7495117 -0.2514648 0.6123047
vn 0.8823242 -0.2340088 0.4084473
vn 0.2937012 -0.07873535 0.9526367
vn 0.2937012 -0.07873535 0.9526367
vn 0.3718262 -0.1816406 0.9101563
vn 0.3671875 -0.175293 0.9135742
vn 0.4372559 -0.2727051 0.8569336
vn 0.4372559 -0.2727051 0.8569336
vn -0.5581055 -0.08734131 0.8251953
vn -0.4204102 -0.1103516 0.9003906
vn -0.3552246 -0.1835938 0.9165039
vn -0.5405273 -0.1586914 0.8261719
vn -0.6904297 -0.0602417 0.7211914
vn -0.7016602 -0.1408691 0.6982422
vn -0.7080078 -0.2091064 0.6748047
vn -0.5229492 -0.2351074 0.8193359
vn -0.293457 -0.248291 0.9233398
vn -0.9897461 -0.1378174 -0.03344727
vn -0.8364258 -0.1280518 0.5327148
vn -0.8647461 -0.1711426 0.4716797
vn -0.9853516 -0.1712646 -0.003042221
vn -0.9799805 -0.1989746 0.02241516
vn -0.8842773 -0.2128906 0.4157715
vn -0.5390625 0.6713867 0.5087891
vn -0.5390625 0.6713867 0.5087891
vn -0.177002 0.7822266 0.597168
vn -0.1169434 0.7890625 0.6030273
vn 0.5078125 0.7519531 0.4199219
vn 0.4360352 0.7617188 0.479248
vn 0.5092773 0.7387695 0.4418945
vn 0.5336914 0.7358398 0.416748
vn 0.6455078 0.7495117 0.1469727
vn 0.6254883 0.7568359 0.1903076
vn 0.7875977 0.6035156 -0.1252441
vn 0.7949219 0.6030273 -0.06658936
vn 0.7167969 0.6777344 -0.1635742
vn 0.6884766 0.6899414 -0.2233887
vn 0.4858398 0.7211914 -0.4938965
vn 0.4711914 0.7226563 -0.5058594
vn 0.1914063 0.762207 -0.6181641
vn 0.177124 0.7636719 -0.6210938
vn 0.05801392 0.7626953 -0.644043
vn 0.05554199 0.7626953 -0.644043
vn -0.2302246 0.8203125 -0.5239258
vn -0.1905518 0.8193359 -0.5410156
vn -0.4475098 0.7753906 -0.4460449
vn -0.4675293 0.7734375 -0.4277344
vn -0.5 0.7758789 -0.3840332
vn -0.4921875 0.7768555 -0.3925781
vn -0.625 0.7504883 0.2149658
vn -0.6308594 0.7548828 0.1787109
vn -0.6523438 0.6728516 0.3486328
vn -0.6796875 0.6723633 0.2937012
vn -0.5424805 0.7475586 0.3830566
vn -0.4973145 0.7524414 0.4318848
vn -0.2164307 0.7197266 0.659668
vn -0.2164307 0.7197266 0.659668
vn 1.192093E-07 1 0
vn 1.192093E-07 1 0
vn 1.192093E-07 1 0
vn 0 1 0
vn 1.192093E-07 1 0
vn -1.192093E-07 1 -1.788139E-07
vn 1.788139E-07 1 0
vn -1.192093E-07 1 -1.788139E-07
vn -1.192093E-07 1 -1.788139E-07
vn 0 1 0
vn 0 1 0
vn 1.192093E-07 1 0
vn -1.788139E-07 1 -1.788139E-07
vn 1.192093E-07 1 0
vn -1.788139E-07 1 -1.788139E-07
vn -1.192093E-07 1 -1.788139E-07
g Chest_Selip1_0
f 3/3/3 2/2/2 1/1/1
f 6/6/6 5/5/5 4/4/4
f 9/9/9 8/8/8 7/7/7
f 10/10/10 9/9/9 7/7/7
f 10/10/10 11/11/11 9/9/9
f 11/11/11 12/12/12 9/9/9
f 15/15/15 14/14/14 13/13/13
f 16/16/16 15/15/15 13/13/13
f 16/16/16 13/13/13 17/17/17
f 16/16/16 18/18/18 15/15/15
f 18/18/18 19/19/19 15/15/15
f 20/20/20 18/18/18 16/16/16
f 21/21/21 16/16/16 17/17/17
f 21/21/21 20/20/20 16/16/16
f 21/21/21 17/17/17 22/22/22
f 23/23/23 20/20/20 21/21/21
f 24/24/24 21/21/21 22/22/22
f 24/24/24 23/23/23 21/21/21
f 27/27/27 26/26/26 25/25/25
f 28/28/28 27/27/27 25/25/25
f 28/28/28 29/29/29 27/27/27
f 29/29/29 30/30/30 27/27/27
f 33/33/33 32/32/32 31/31/31
f 34/34/34 33/33/33 31/31/31
f 34/34/34 31/31/31 35/35/35
f 34/34/34 36/36/36 33/33/33
f 36/36/36 37/37/37 33/33/33
f 38/38/38 36/36/36 34/34/34
f 39/39/39 34/34/34 35/35/35
f 39/39/39 38/38/38 34/34/34
f 39/39/39 35/35/35 40/40/40
f 41/41/41 38/38/38 39/39/39
f 42/42/42 39/39/39 40/40/40
f 42/42/42 41/41/41 39/39/39
f 45/45/45 44/44/44 43/43/43
f 46/46/46 45/45/45 43/43/43
f 46/46/46 43/43/43 47/47/47
f 48/48/48 46/46/46 47/47/47
f 48/48/48 49/49/49 46/46/46
f 49/49/49 50/50/50 46/46/46
f 46/46/46 50/50/50 45/45/45
f 50/50/50 51/51/51 45/45/45
f 54/54/54 53/53/53 52/52/52
f 55/55/55 54/54/54 52/52/52
f 55/55/55 52/52/52 56/56/56
f 57/57/57 55/55/55 56/56/56
f 57/57/57 58/58/58 55/55/55
f 58/58/58 59/59/59 55/55/55
f 55/55/55 59/59/59 54/54/54
f 59/59/59 60/60/60 54/54/54
f 63/63/63 62/62/62 61/61/61
f 64/64/64 63/63/63 61/61/61
f 64/64/64 65/65/65 63/63/63
f 65/65/65 66/66/66 63/63/63
f 69/69/69 68/68/68 67/67/67
f 70/70/70 69/69/69 67/67/67
f 70/70/70 67/67/67 71/71/71
f 72/72/72 70/70/70 71/71/71
f 72/72/72 73/73/73 70/70/70
f 73/73/73 74/74/74 70/70/70
f 70/70/70 74/74/74 69/69/69
f 74/74/74 75/75/75 69/69/69
f 78/78/78 77/77/77 76/76/76
f 79/79/79 78/78/78 76/76/76
f 79/79/79 80/80/80 78/78/78
f 80/80/80 81/81/81 78/78/78
f 84/84/84 83/83/83 82/82/82
f 85/85/85 84/84/84 82/82/82
f 86/86/86 84/84/84 85/85/85
f 87/87/87 86/86/86 85/85/85
f 88/88/88 86/86/86 87/87/87
f 89/89/89 88/88/88 87/87/87
f 90/90/90 88/88/88 89/89/89
f 91/91/91 90/90/90 89/89/89
f 92/92/92 90/90/90 91/91/91
f 93/93/93 92/92/92 91/91/91
f 94/94/94 92/92/92 93/93/93
f 95/95/95 94/94/94 93/93/93
f 96/96/96 94/94/94 95/95/95
f 97/97/97 96/96/96 95/95/95
f 98/98/98 96/96/96 97/97/97
f 99/99/99 98/98/98 97/97/97
f 100/100/100 98/98/98 99/99/99
f 101/101/101 100/100/100 99/99/99
f 102/102/102 100/100/100 101/101/101
f 103/103/103 102/102/102 101/101/101
f 104/104/104 102/102/102 103/103/103
f 105/105/105 104/104/104 103/103/103
f 106/106/106 104/104/104 105/105/105
f 107/107/107 106/106/106 105/105/105
f 108/108/108 106/106/106 107/107/107
f 109/109/109 108/108/108 107/107/107
f 110/110/110 108/108/108 109/109/109
f 111/111/111 110/110/110 109/109/109
f 112/112/112 110/110/110 111/111/111
f 113/113/113 112/112/112 111/111/111
f 114/114/114 112/112/112 113/113/113
f 115/115/115 114/114/114 113/113/113
f 118/118/118 117/117/117 116/116/116
f 117/117/117 119/119/119 116/116/116
f 116/116/116 119/119/119 120/120/120
f 122/122/122 121/121/121 117/117/117
f 124/124/124 123/123/123 121/121/121
f 116/116/116 123/123/123 125/125/125
f 116/116/116 125/125/125 126/126/126
f 125/125/125 120/120/120 127/127/127
f 128/128/128 125/125/125 127/127/127
f 129/129/129 127/127/127 120/120/120
f 130/130/130 129/129/129 120/120/120
f 131/131/131 127/127/127 129/129/129
