g ClockPin_02
v -0.06152068 -0.05339131 0.04324183
v -0.07490004 -0.05339131 0.006688483
v -0.07085188 -0.03295918 0.006327155
v -0.05819578 -0.03295918 0.0409054
v -0.03165709 -0.05339131 0.06820978
v -0.0645233 -0.03295918 -0.02994634
v -0.06820982 -0.05339131 -0.03165777
v -0.02994612 -0.03295918 0.06452296
v 0.006689162 -0.05339131 0.07489924
v -0.0409059 -0.03295918 -0.05819585
v -0.04324248 -0.05339131 -0.06152166
v 0.006327681 -0.03295918 0.07085139
v 0.04324296 -0.05339131 0.06152003
v -0.006327196 -0.03295918 -0.07085241
v -0.006688524 -0.05339131 -0.07490087
v 0.04090547 -0.03295918 0.05819605
v 0.0682097 -0.05339131 0.03165644
v 0.02994584 -0.03295918 -0.06452306
v 0.03165758 -0.05339131 -0.0682105
v 0.06452303 -0.03295918 0.02994654
v 0.07489976 -0.05339131 -0.006689202
v 0.05819566 -0.03295918 -0.0409052
v 0.06152116 -0.05339131 -0.04324377
v 0.07085176 -0.03295918 -0.006327264
v -0.005297991 -0.01563741 -0.05932439
v 0.02507432 -0.01563863 -0.05402593
v 0.04872728 -0.01563741 -0.03425024
v 0.0593242 -0.01563863 -0.005298211
v 0.05402543 -0.01563863 0.02507349
v 0.0342502 -0.01563863 0.04872736
v -0.03425032 -0.01563863 -0.04872716
v 0.005297865 -0.01563741 0.05932429
v -0.05402495 -0.01563863 -0.02507452
v -0.02507384 -0.01563741 0.0540246
v -0.05932417 -0.01563863 0.005298102
v -0.04872725 -0.01563741 0.03425013
v 0.02428957 -0.00406514 0.03455683
v 0.00375688 -0.004063919 0.04207179
v -0.01778197 -0.004063919 0.03831354
v -0.03455687 -0.004063919 0.02429011
v -0.04207182 -0.00406514 0.003757575
v -0.03831389 -0.00406514 -0.01778234
v 0.03831392 -0.00406514 0.01778132
v -0.02429015 -0.00406514 -0.03455602
v 0.04207155 -0.00406514 -0.003757073
v -0.003757616 -0.00406514 -0.04207097
v 0.03455629 -0.00406514 -0.0242893
v 0.01778215 -0.00406514 -0.03831426
v -0.01978087 -1.982659E-07 -0.009180962
v -0.01254073 -1.982659E-07 -0.01784063
v -0.001939531 -1.982659E-07 -0.02172125
v 0.009180617 -1.982659E-07 -0.01978094
v -2.916588E-07 -1.982659E-07 -5.423911E-08
v -0.02172118 -1.982659E-07 0.001939948
v 0.01784089 -1.982659E-07 -0.01254064
v 0.0217209 -1.982659E-07 -0.001940057
v -0.01784117 -1.982659E-07 0.01254084
v 0.01978105 -1.982659E-07 0.009179939
v -0.009180284 -1.982659E-07 0.01978022
v 0.01254075 -1.982659E-07 0.01784022
v 0.001940016 -1.982659E-07 0.02172022
v -0.06152098 -0.5705947 0.04324305
v -0.07490034 -0.5705959 0.006689094
v -0.07490004 -0.05339131 0.006688483
v -0.06152068 -0.05339131 0.04324183
v -0.06820982 -0.05339131 -0.03165777
v -0.03165739 -0.5705959 0.06820948
v -0.03165709 -0.05339131 0.06820978
v -0.06820982 -0.5705959 -0.03165777
v -0.04324248 -0.05339131 -0.06152166
v 0.006688857 -0.5705947 0.07489984
v 0.006689162 -0.05339131 0.07489924
v -0.04324309 -0.5705947 -0.06152074
v -0.006688524 -0.05339131 -0.07490087
v 0.04324281 -0.5705959 0.06152064
v 0.04324296 -0.05339131 0.06152003
v -0.006689287 -0.5705971 -0.07490025
v 0.03165758 -0.05339131 -0.0682105
v 0.06820985 -0.5705959 0.03165674
v 0.0682097 -0.05339131 0.03165644
v 0.03165697 -0.5705947 -0.06820958
v 0.06152116 -0.05339131 -0.04324377
v 0.07490007 -0.5705947 -0.006689507
v 0.07489976 -0.05339131 -0.006689202
v 0.06152055 -0.5705971 -0.04324285
v 0.04090593 -0.591028 0.05819514
v 0.06452318 -0.5910268 0.02994532
v 0.07085176 -0.5910268 -0.006328179
v 0.05819597 -0.5910268 -0.04090612
v 0.02994615 -0.591028 -0.06452398
v -0.006327653 -0.5910268 -0.07085241
v 0.006327528 -0.591028 0.07085169
v -0.04090621 -0.5910268 -0.05819585
v -0.02994658 -0.5910268 0.06452326
v -0.06452361 -0.5910268 -0.02994634
v -0.05819609 -0.591028 0.04090571
v -0.0708525 -0.591028 0.006327766
v 0.03425004 -0.6083485 0.04872645
v 0.00529756 -0.6083474 0.05932429
v -0.02507414 -0.6083474 0.05402491
v -0.04872755 -0.6083474 0.03425043
v -0.05932417 -0.6083485 0.005296882
v -0.0540254 -0.6083485 -0.02507421
v 0.05402482 -0.6083485 0.02507349
v -0.03425047 -0.6083485 -0.04872808
v 0.05932451 -0.6083485 -0.005298821
v -0.005298296 -0.6083485 -0.0593247
v 0.04872743 -0.6083485 -0.03425085
v 0.02507387 -0.6083485 -0.05402562
v 0.03831331 -0.619922 0.01778223
v 0.04207139 -0.619922 -0.003757378
v 0.03455629 -0.619922 -0.02428991
v 0.01778184 -0.6199233 -0.03831457
v -0.003757616 -0.619922 -0.04207158
v -0.02429015 -0.619922 -0.03455633
v 0.02428941 -0.6199233 0.03455622
v -0.03831419 -0.619922 -0.01778265
v 0.00375688 -0.619922 0.04207117
v -0.04207213 -0.6199233 0.00375727
v -0.01778212 -0.619922 0.03831324
v -0.03455702 -0.619922 0.0242895
v 0.01978105 -0.6239858 0.009179633
v 0.01253999 -0.6239858 0.01784083
v 0.001939863 -0.6239858 0.02172022
v -0.009181047 -0.6239858 0.01978052
v -4.442467E-07 -0.6239858 -3.594149E-07
v 0.02172075 -0.6239858 -0.001940057
v -0.01784117 -0.6239858 0.01254023
v -0.02172118 -0.6239858 0.001939338
v 0.01784089 -0.623987 -0.01254064
v -0.01978087 -0.6239858 -0.009181268
v 0.009180311 -0.6239858 -0.01978155
v -0.01254058 -0.6239858 -0.01784185
v -0.001939989 -0.623987 -0.02172186
vt 0.1572266 0.902832
vt 0.1572266 0.902832
vt 0.1572266 0.902832
vt 0.1572266 0.902832
vt 0.1572266 0.902832
vt 0.1572266 0.902832
vt 0.1572266 0.902832
vt 0.1572266 0.902832
vt 0.1572266 0.902832
vt 0.1572266 0.902832
vt 0.1572266 0.902832
vt 0.1572266 0.902832
vt 0.1573486 0.902832
vt 0.1572266 0.902832
vt 0.1572266 0.902832
vt 0.1573486 0.902832
vt 0.1573486 0.902832
vt 0.1573486 0.902832
vt 0.1573486 0.902832
vt 0.1573486 0.902832
vt 0.1573486 0.902832
vt 0.1573486 0.902832
vt 0.1573486 0.902832
vt 0.1573486 0.902832
vt 0.1572266 0.902832
vt 0.1572266 0.902832
vt 0.1573486 0.902832
vt 0.1573486 0.902832
vt 0.1573486 0.902832
vt 0.1573486 0.902832
vt 0.1572266 0.902832
vt 0.1572266 0.902832
vt 0.1572266 0.902832
vt 0.1572266 0.902832
vt 0.1572266 0.902832
vt 0.1572266 0.902832
vt 0.1572266 0.902832
vt 0.1572266 0.902832
vt 0.1572266 0.902832
vt 0.1572266 0.902832
vt 0.1572266 0.902832
vt 0.1572266 0.902832
vt 0.1573486 0.902832
vt 0.1572266 0.902832
vt 0.1573486 0.902832
vt 0.1572266 0.902832
vt 0.1573486 0.902832
vt 0.1572266 0.902832
vt 0.1572266 0.902832
vt 0.1572266 0.902832
vt 0.1572266 0.902832
vt 0.1572266 0.902832
vt 0.1572266 0.902832
vt 0.1572266 0.902832
vt 0.1572266 0.902832
vt 0.1572266 0.902832
vt 0.1572266 0.902832
vt 0.1572266 0.902832
vt 0.1572266 0.902832
vt 0.1572266 0.902832
vt 0.1572266 0.902832
vt 0.1572266 0.902832
vt 0.1572266 0.902832
vt 0.1572266 0.902832
vt 0.1572266 0.902832
vt 0.1572266 0.902832
vt 0.1572266 0.902832
vt 0.1572266 0.902832
vt 0.1572266 0.902832
vt 0.1572266 0.902832
vt 0.1572266 0.902832
vt 0.1572266 0.902832
vt 0.1572266 0.902832
vt 0.1572266 0.902832
vt 0.1573486 0.902832
vt 0.1573486 0.902832
vt 0.1572266 0.902832
vt 0.1573486 0.902832
vt 0.1573486 0.902832
vt 0.1573486 0.902832
vt 0.1573486 0.902832
vt 0.1573486 0.902832
vt 0.1573486 0.902832
vt 0.1573486 0.902832
vt 0.1573486 0.902832
vt 0.1573486 0.902832
vt 0.1573486 0.902832
vt 0.1573486 0.902832
vt 0.1573486 0.902832
vt 0.1573486 0.902832
vt 0.1572266 0.902832
vt 0.1572266 0.902832
vt 0.1572266 0.902832
vt 0.1572266 0.902832
vt 0.1572266 0.902832
vt 0.1572266 0.902832
vt 0.1572266 0.902832
vt 0.1573486 0.902832
vt 0.1572266 0.902832
vt 0.1572266 0.902832
vt 0.1572266 0.902832
vt 0.1572266 0.902832
vt 0.1572266 0.902832
vt 0.1573486 0.902832
vt 0.1572266 0.902832
vt 0.1573486 0.902832
vt 0.1572266 0.902832
vt 0.1573486 0.902832
vt 0.1572266 0.902832
vt 0.1573486 0.902832
vt 0.1573486 0.902832
vt 0.1573486 0.902832
vt 0.1572266 0.902832
vt 0.1572266 0.902832
vt 0.1572266 0.902832
vt 0.1572266 0.902832
vt 0.1572266 0.902832
vt 0.1572266 0.902832
vt 0.1572266 0.902832
vt 0.1572266 0.902832
vt 0.1572266 0.902832
vt 0.1572266 0.902832
vt 0.1572266 0.902832
vt 0.1572266 0.902832
vt 0.1572266 0.902832
vt 0.1572266 0.902832
vt 0.1572266 0.902832
vt 0.1572266 0.902832
vt 0.1572266 0.902832
vt 0.1572266 0.902832
vt 0.1572266 0.902832
vt 0.1572266 0.902832
vt 0.1572266 0.902832
vt 0.1572266 0.902832
vn -0.8144531 0.09649658 0.5722656
vn -0.9912109 0.09649658 0.08856201
vn -0.9248047 0.3718262 0.08258057
vn -0.7592773 0.3718262 0.5336914
vn -0.4189453 0.09649658 0.902832
vn -0.8422852 0.3718262 -0.3908691
vn -0.902832 0.09649658 -0.4189453
vn -0.3908691 0.3718262 0.8422852
vn 0.08856201 0.09649658 0.9912109
vn -0.5336914 0.3718262 -0.7592773
vn -0.5722656 0.09649658 -0.8144531
vn 0.08258057 0.3718262 0.9248047
vn 0.5722656 0.09649658 0.8144531
vn -0.08258057 0.3718262 -0.9248047
vn -0.08856201 0.09649658 -0.9912109
vn 0.5336914 0.3718262 0.7592773
vn 0.902832 0.09649658 0.4189453
vn 0.3908691 0.3718262 -0.8422852
vn 0.4189453 0.09649658 -0.902832
vn 0.8422852 0.3718262 0.3908691
vn 0.9912109 0.09649658 -0.08856201
vn 0.7592773 0.3718262 -0.5336914
vn 0.8144531 0.09649658 -0.5722656
vn 0.9248047 0.3718262 -0.08258057
vn -0.06427002 0.6914063 -0.7197266
vn 0.3041992 0.6914063 -0.6552734
vn 0.5913086 0.6914063 -0.4155273
vn 0.7197266 0.6914063 -0.06427002
vn 0.6552734 0.6914063 0.3041992
vn 0.4155273 0.6914063 0.5913086
vn -0.4155273 0.6914063 -0.5913086
vn 0.06427002 0.6914063 0.7197266
vn -0.6552734 0.6914063 -0.3041992
vn -0.3041992 0.6914063 0.6552734
vn -0.7197266 0.6914063 0.06427002
vn -0.5913086 0.6914063 0.4155273
vn 0.2355957 0.9121094 0.3352051
vn 0.03643799 0.9121094 0.407959
vn -0.1724854 0.9121094 0.371582
vn -0.3352051 0.9121094 0.2355957
vn -0.407959 0.9121094 0.03643799
vn -0.371582 0.9121094 -0.1724854
vn 0.371582 0.9121094 0.1724854
vn -0.2355957 0.9121094 -0.3352051
vn 0.407959 0.9121094 -0.03643799
vn -0.03643799 0.9121094 -0.407959
vn 0.3352051 0.9121094 -0.2355957
vn 0.1724854 0.9121094 -0.371582
vn -0.1035156 0.9936523 -0.04806519
vn -0.06561279 0.9936523 -0.09338379
vn -0.01015472 0.9936523 -0.1137085
vn 0.04806519 0.9936523 -0.1035156
vn 4.172325E-07 1 0
vn -0.1137085 0.9936523 0.01015472
vn 0.09338379 0.9936523 -0.06561279
vn 0.1137085 0.9936523 -0.01015472
vn -0.09338379 0.9936523 0.06561279
vn 0.1035156 0.9936523 0.04806519
vn -0.04806519 0.9936523 0.1035156
vn 0.06561279 0.9936523 0.09338379
vn 0.01015472 0.9936523 0.1137085
vn -0.8144531 -0.09649658 0.5722656
vn -0.9912109 -0.09649658 0.08856201
vn -0.9912109 0.09649658 0.08856201
vn -0.8144531 0.09649658 0.5722656
vn -0.902832 0.09649658 -0.4189453
vn -0.4189453 -0.09649658 0.902832
vn -0.4189453 0.09649658 0.902832
vn -0.902832 -0.09649658 -0.4189453
vn -0.5722656 0.09649658 -0.8144531
vn 0.08856201 -0.09649658 0.9912109
vn 0.08856201 0.09649658 0.9912109
vn -0.5722656 -0.09649658 -0.8144531
vn -0.08856201 0.09649658 -0.9912109
vn 0.5722656 -0.09649658 0.8144531
vn 0.5722656 0.09649658 0.8144531
vn -0.08856201 -0.09649658 -0.9912109
vn 0.4189453 0.09649658 -0.902832
vn 0.902832 -0.09649658 0.4189453
vn 0.902832 0.09649658 0.4189453
vn 0.4189453 -0.09649658 -0.902832
vn 0.8144531 0.09649658 -0.5722656
vn 0.9912109 -0.09649658 -0.08856201
vn 0.9912109 0.09649658 -0.08856201
vn 0.8144531 -0.09649658 -0.5722656
vn 0.5336914 -0.3718262 0.7592773
vn 0.8422852 -0.3718262 0.3908691
vn 0.9248047 -0.3718262 -0.08258057
vn 0.7592773 -0.3718262 -0.5336914
vn 0.3908691 -0.3718262 -0.8422852
vn -0.08258057 -0.3718262 -0.9248047
vn 0.08258057 -0.3718262 0.9248047
vn -0.5336914 -0.3718262 -0.7592773
vn -0.3908691 -0.3718262 0.8422852
vn -0.8422852 -0.3718262 -0.3908691
vn -0.7592773 -0.3718262 0.5336914
vn -0.9248047 -0.3718262 0.08258057
vn 0.4155273 -0.6914063 0.5913086
vn 0.06427002 -0.6914063 0.7197266
vn -0.3041992 -0.6914063 0.6552734
vn -0.5913086 -0.6914063 0.4155273
vn -0.7197266 -0.6914063 0.06427002
vn -0.6552734 -0.6914063 -0.3041992
vn 0.6552734 -0.6914063 0.3041992
vn -0.4155273 -0.6914063 -0.5913086
vn 0.7197266 -0.6914063 -0.06427002
vn -0.06427002 -0.6914063 -0.7197266
vn 0.5913086 -0.6914063 -0.4155273
vn 0.3041992 -0.6914063 -0.6552734
vn 0.371582 -0.9121094 0.1724854
vn 0.407959 -0.9121094 -0.03643799
vn 0.3352051 -0.9121094 -0.2355957
vn 0.1724854 -0.9121094 -0.371582
vn -0.03643799 -0.9121094 -0.407959
vn -0.2355957 -0.9121094 -0.3352051
vn 0.2355957 -0.9121094 0.3352051
vn -0.371582 -0.9121094 -0.1724854
vn 0.03643799 -0.9121094 0.407959
vn -0.407959 -0.9121094 0.03643799
vn -0.1724854 -0.9121094 0.371582
vn -0.3352051 -0.9121094 0.2355957
vn 0.1035156 -0.9936523 0.04806519
vn 0.06561279 -0.9936523 0.09338379
vn 0.01015472 -0.9936523 0.1137085
vn -0.04806519 -0.9936523 0.1035156
vn -4.172325E-07 -1 0
vn 0.1137085 -0.9936523 -0.01015472
vn -0.09338379 -0.9936523 0.06561279
vn -0.1137085 -0.9936523 0.01015472
vn 0.09338379 -0.9936523 -0.06561279
vn -0.1035156 -0.9936523 -0.04806519
vn 0.04806519 -0.9936523 -0.1035156
vn -0.06561279 -0.9936523 -0.09338379
vn -0.01015472 -0.9936523 -0.1137085
g ClockPin_02_0
f 3/3/3 2/2/2 1/1/1
f 4/4/4 3/3/3 1/1/1
f 4/4/4 1/1/1 5/5/5
f 3/3/3 6/6/6 2/2/2
f 6/6/6 7/7/7 2/2/2
f 8/8/8 4/4/4 5/5/5
f 8/8/8 5/5/5 9/9/9
f 6/6/6 10/10/10 7/7/7
f 10/10/10 11/11/11 7/7/7
f 12/12/12 8/8/8 9/9/9
f 12/12/12 9/9/9 13/13/13
f 10/10/10 14/14/14 11/11/11
f 14/14/14 15/15/15 11/11/11
f 16/16/16 12/12/12 13/13/13
f 16/16/16 13/13/13 17/17/17
f 14/14/14 18/18/18 15/15/15
f 18/18/18 19/19/19 15/15/15
f 20/20/20 16/16/16 17/17/17
f 20/20/20 17/17/17 21/21/21
f 18/18/18 22/22/22 19/19/19
f 22/22/22 23/23/23 19/19/19
f 24/24/24 21/21/21 23/23/23
f 24/24/24 20/20/20 21/21/21
f 22/22/22 24/24/24 23/23/23
f 25/25/25 14/14/14 10/10/10
f 26/26/26 18/18/18 14/14/14
f 25/25/25 26/26/26 14/14/14
f 27/27/27 22/22/22 18/18/18
f 26/26/26 27/27/27 18/18/18
f 28/28/28 24/24/24 22/22/22
f 27/27/27 28/28/28 22/22/22
f 29/29/29 20/20/20 24/24/24
f 28/28/28 29/29/29 24/24/24
f 30/30/30 16/16/16 20/20/20
f 29/29/29 30/30/30 20/20/20
f 31/31/31 25/25/25 10/10/10
f 31/31/31 10/10/10 6/6/6
f 30/30/30 32/32/32 16/16/16
f 32/32/32 12/12/12 16/16/16
f 33/33/33 31/31/31 6/6/6
f 33/33/33 6/6/6 3/3/3
f 32/32/32 34/34/34 12/12/12
f 34/34/34 8/8/8 12/12/12
f 35/35/35 33/33/33 3/3/3
f 35/35/35 3/3/3 4/4/4
f 36/36/36 4/4/4 8/8/8
f 34/34/34 36/36/36 8/8/8
f 36/36/36 35/35/35 4/4/4
f 37/37/37 30/30/30 29/29/29
f 38/38/38 32/32/32 30/30/30
f 37/37/37 38/38/38 30/30/30
f 39/39/39 34/34/34 32/32/32
f 38/38/38 39/39/39 32/32/32
f 40/40/40 36/36/36 34/34/34
f 39/39/39 40/40/40 34/34/34
f 41/41/41 35/35/35 36/36/36
f 40/40/40 41/41/41 36/36/36
f 42/42/42 33/33/33 35/35/35
f 41/41/41 42/42/42 35/35/35
f 43/43/43 37/37/37 29/29/29
f 43/43/43 29/29/29 28/28/28
f 42/42/42 44/44/44 33/33/33
f 44/44/44 31/31/31 33/33/33
f 45/45/45 43/43/43 28/28/28
f 45/45/45 28/28/28 27/27/27
f 44/44/44 46/46/46 31/31/31
f 46/46/46 25/25/25 31/31/31
f 47/47/47 45/45/45 27/27/27
f 47/47/47 27/27/27 26/26/26
f 48/48/48 26/26/26 25/25/25
f 46/46/46 48/48/48 25/25/25
f 48/48/48 47/47/47 26/26/26
f 49/49/49 42/42/42 41/41/41
f 50/50/50 44/44/44 42/42/42
f 49/49/49 50/50/50 42/42/42
f 51/51/51 46/46/46 44/44/44
f 50/50/50 51/51/51 44/44/44
f 52/52/52 48/48/48 46/46/46
f 51/51/51 52/52/52 46/46/46
f 53/53/53 51/51/51 50/50/50
f 53/53/53 50/50/50 49/49/49
f 53/53/53 52/52/52 51/51/51
f 53/53/53 49/49/49 54/54/54
f 54/54/54 49/49/49 41/41/41
f 53/53/53 55/55/55 52/52/52
f 52/52/52 55/55/55 48/48/48
f 55/55/55 47/47/47 48/48/48
f 54/54/54 41/41/41 40/40/40
f 55/55/55 56/56/56 47/47/47
f 53/53/53 56/56/56 55/55/55
f 56/56/56 45/45/45 47/47/47
f 57/57/57 54/54/54 40/40/40
f 53/53/53 54/54/54 57/57/57
f 57/57/57 40/40/40 39/39/39
f 56/56/56 58/58/58 45/45/45
f 53/53/53 58/58/58 56/56/56
f 58/58/58 43/43/43 45/45/45
f 59/59/59 57/57/57 39/39/39
f 53/53/53 57/57/57 59/59/59
f 59/59/59 39/39/39 38/38/38
f 58/58/58 60/60/60 43/43/43
f 53/53/53 60/60/60 58/58/58
f 60/60/60 37/37/37 43/43/43
f 61/61/61 38/38/38 37/37/37
f 61/61/61 59/59/59 38/38/38
f 53/53/53 59/59/59 61/61/61
f 60/60/60 61/61/61 37/37/37
f 53/53/53 61/61/61 60/60/60
f 64/64/64 63/63/63 62/62/62
f 65/65/65 64/64/64 62/62/62
f 64/64/64 66/66/66 63/63/63
f 65/65/65 62/62/62 67/67/67
f 68/68/68 65/65/65 67/67/67
f 66/66/66 69/69/69 63/63/63
f 66/66/66 70/70/70 69/69/69
f 68/68/68 67/67/67 71/71/71
f 72/72/72 68/68/68 71/71/71
f 70/70/70 73/73/73 69/69/69
f 70/70/70 74/74/74 73/73/73
f 72/72/72 71/71/71 75/75/75
f 76/76/76 72/72/72 75/75/75
f 74/74/74 77/77/77 73/73/73
f 74/74/74 78/78/78 77/77/77
f 76/76/76 75/75/75 79/79/79
f 80/80/80 76/76/76 79/79/79
f 78/78/78 81/81/81 77/77/77
f 78/78/78 82/82/82 81/81/81
f 80/80/80 79/79/79 83/83/83
f 84/84/84 80/80/80 83/83/83
f 82/82/82 84/84/84 85/85/85
f 82/82/82 85/85/85 81/81/81
f 84/84/84 83/83/83 85/85/85
f 75/75/75 71/71/71 86/86/86
f 79/79/79 75/75/75 87/87/87
f 75/75/75 86/86/86 87/87/87
f 83/83/83 79/79/79 88/88/88
f 79/79/79 87/87/87 88/88/88
f 85/85/85 83/83/83 89/89/89
f 83/83/83 88/88/88 89/89/89
f 81/81/81 85/85/85 90/90/90
f 85/85/85 89/89/89 90/90/90
f 77/77/77 81/81/81 91/91/91
f 81/81/81 90/90/90 91/91/91
f 71/71/71 92/92/92 86/86/86
f 71/71/71 67/67/67 92/92/92
f 77/77/77 91/91/91 93/93/93
f 73/73/73 77/77/77 93/93/93
f 67/67/67 94/94/94 92/92/92
f 67/67/67 62/62/62 94/94/94
f 73/73/73 93/93/93 95/95/95
f 69/69/69 73/73/73 95/95/95
f 62/62/62 96/96/96 94/94/94
f 62/62/62 63/63/63 96/96/96
f 63/63/63 69/69/69 97/97/97
f 69/69/69 95/95/95 97/97/97
f 63/63/63 97/97/97 96/96/96
f 86/86/86 92/92/92 98/98/98
f 92/92/92 94/94/94 99/99/99
f 92/92/92 99/99/99 98/98/98
f 94/94/94 96/96/96 100/100/100
f 94/94/94 100/100/100 99/99/99
f 96/96/96 97/97/97 101/101/101
f 96/96/96 101/101/101 100/100/100
f 97/97/97 95/95/95 102/102/102
f 97/97/97 102/102/102 101/101/101
f 95/95/95 93/93/93 103/103/103
f 95/95/95 103/103/103 102/102/102
f 86/86/86 98/98/98 104/104/104
f 87/87/87 86/86/86 104/104/104
f 93/93/93 105/105/105 103/103/103
f 93/93/93 91/91/91 105/105/105
f 87/87/87 104/104/104 106/106/106
f 88/88/88 87/87/87 106/106/106
f 91/91/91 107/107/107 105/105/105
f 91/91/91 90/90/90 107/107/107
f 88/88/88 106/106/106 108/108/108
f 89/89/89 88/88/88 108/108/108
f 90/90/90 89/89/89 109/109/109
f 90/90/90 109/109/109 107/107/107
f 89/89/89 108/108/108 109/109/109
f 104/104/104 98/98/98 110/110/110
f 106/106/106 104/104/104 111/111/111
f 104/104/104 110/110/110 111/111/111
f 108/108/108 106/106/106 112/112/112
f 106/106/106 111/111/111 112/112/112
f 109/109/109 108/108/108 113/113/113
f 108/108/108 112/112/112 113/113/113
f 107/107/107 109/109/109 114/114/114
f 109/109/109 113/113/113 114/114/114
f 105/105/105 107/107/107 115/115/115
f 107/107/107 114/114/114 115/115/115
f 98/98/98 116/116/116 110/110/110
f 98/98/98 99/99/99 116/116/116
f 105/105/105 115/115/115 117/117/117
f 103/103/103 105/105/105 117/117/117
f 99/99/99 118/118/118 116/116/116
f 99/99/99 100/100/100 118/118/118
f 103/103/103 117/117/117 119/119/119
f 102/102/102 103/103/103 119/119/119
f 100/100/100 120/120/120 118/118/118
f 100/100/100 101/101/101 120/120/120
f 101/101/101 102/102/102 121/121/121
f 102/102/102 119/119/119 121/121/121
f 101/101/101 121/121/121 120/120/120
f 110/110/110 116/116/116 122/122/122
f 116/116/116 118/118/118 123/123/123
f 116/116/116 123/123/123 122/122/122
f 118/118/118 120/120/120 124/124/124
f 118/118/118 124/124/124 123/123/123
f 120/120/120 121/121/121 125/125/125
f 120/120/120 125/125/125 124/124/124
f 123/123/123 124/124/124 126/126/126
f 122/122/122 123/123/123 126/126/126
f 124/124/124 125/125/125 126/126/126
f 127/127/127 122/122/122 126/126/126
f 110/110/110 122/122/122 127/127/127
f 125/125/125 128/128/128 126/126/126
f 121/121/121 128/128/128 125/125/125
f 121/121/121 119/119/119 128/128/128
f 111/111/111 110/110/110 127/127/127
f 119/119/119 129/129/129 128/128/128
f 128/128/128 129/129/129 126/126/126
f 119/119/119 117/117/117 129/129/129
f 111/111/111 127/127/127 130/130/130
f 130/130/130 127/127/127 126/126/126
f 112/112/112 111/111/111 130/130/130
f 117/117/117 131/131/131 129/129/129
f 129/129/129 131/131/131 126/126/126
f 117/117/117 115/115/115 131/131/131
f 112/112/112 130/130/130 132/132/132
f 132/132/132 130/130/130 126/126/126
f 113/113/113 112/112/112 132/132/132
f 115/115/115 133/133/133 131/131/131
f 131/131/131 133/133/133 126/126/126
f 115/115/115 114/114/114 133/133/133
f 134/134/134 132/132/132 126/126/126
f 113/113/113 132/132/132 134/134/134
f 133/133/133 134/134/134 126/126/126
f 114/114/114 134/134/134 133/133/133
f 114/114/114 113/113/113 134/134/134
