g Cloud-01
v 0.3753219 0.7901095 -0.6862929
v -0.3004711 0.7901097 -0.6995746
v 0.3174335 0.7901095 -0.6987996
v -0.4190339 0.7901095 -0.6618617
v -0.7656702 0.7901095 -0.08862343
v -0.4633554 0.7901097 -0.6055235
v 0.455265 0.7901097 -0.6189753
v -0.7656702 0.7901095 -0.08862343
v -0.3004711 0.7901097 -0.6995746
v -0.8568743 0.7750882 0.02732906
v -0.7888434 0.7901095 -0.0295589
v -0.7888435 0.7901098 0.02642472
v -0.7656702 0.7901095 -0.08862343
v -0.8346658 0.7755332 -0.09100553
v -0.8568754 0.7750953 -0.03056443
v -0.455488 0.7901097 0.6158413
v -0.764682 0.7901098 0.08717879
v -0.8881025 0.741127 -0.1152277
v -0.9155933 0.7410328 -0.04008568
v -0.9335428 0.6717367 -0.1292877
v -0.9641668 0.6717994 -0.04406493
v -0.9926566 0.6143478 -0.04955069
v -0.9926566 0.6143479 0.04631561
v -1.026488 0.4826202 -0.04998048
v -0.9923896 0.4827904 -0.1430701
v -1.037979 0.3015231 -0.04892011
v -0.9594418 0.6143478 -0.1396355
v -0.580615 0.6717367 -0.7332108
v -0.5443419 0.741123 -0.7031096
v -0.6010255 0.6143478 -0.7524587
v -0.5239043 0.6717995 -0.800669
v -1.003908 0.3014798 -0.1429724
v -0.6210878 0.482876 -0.7779931
v -0.5386022 0.6143479 -0.8258964
v -0.9888355 0.1729392 -0.1395903
v -1.022105 0.1728989 -0.04703385
v -0.9522178 0.0917967 -0.1327654
v -0.9840863 0.09177475 -0.04506546
v -0.9126481 0.03383846 -0.1196093
v -0.9417493 0.03382889 -0.04012744
v -0.8697628 -0.0009362411 -0.0999966
v -0.8947101 -0.0009386444 -0.0321965
v -0.8084747 -0.01252781 -0.07182702
v -0.8273764 -0.01252785 -0.02056175
v -0.4671837 -0.01252785 -0.6553687
v -0.5225884 -0.0009360504 -0.6936185
v -0.4316599 -0.01252781 -0.6971606
v -0.5613806 0.0338393 -0.7202914
v -0.4756716 -0.000937767 -0.7488111
v -0.3957211 -0.01252781 -0.7176433
v -0.592955 0.09179855 -0.7472238
v -0.4191844 -0.0009373855 -0.7810445
v -0.3412955 -0.01252781 -0.7271167
v -0.5065632 0.03383236 -0.7847714
v -0.6176239 0.1729425 -0.7746363
v -0.3472268 -0.0009355163 -0.7936099
v 0.3412851 -0.01252781 -0.7271164
v -0.5327757 0.0917827 -0.8179996
v -0.4357569 0.03383377 -0.825284
v 0.3471397 -0.0009357834 -0.7936115
v 0.3957108 -0.01252781 -0.7176429
v -0.3514635 0.03384136 -0.8401179
v -0.4526096 0.09178598 -0.8640491
v 0.4190159 -0.0009379577 -0.7810912
v 0.4316495 -0.01252781 -0.69716
v 0.3511461 0.03384033 -0.8401253
v 0.4755262 -0.0009384155 -0.7489088
v 0.4671734 -0.01252785 -0.6553682
v -0.5545728 0.1729134 -0.8487725
v -0.3597046 0.09180332 -0.88059
v 0.435113 0.0338316 -0.8254726
v 0.5225215 -0.0009368134 -0.6936741
v 0.8084636 -0.01252781 -0.07182688
v -0.4699104 0.1729195 -0.8976851
v -0.563186 0.3015681 -0.8624216
v 0.3589929 0.09180096 -0.8806071
v 0.5060119 0.03382984 -0.7851642
v 0.8697044 -0.0009370804 -0.1000615
v 0.8273652 -0.01252785 -0.02056154
v -0.3720168 0.1729513 -0.9154025
v 0.4511512 0.09178095 -0.864481
v 0.5611444 0.03383625 -0.7205159
v 0.8946528 -0.0009396744 -0.0323622
v 0.8273652 -0.01252785 0.02040417
v 0.8946738 -0.0009403229 0.03202989
v 0.9124476 0.03383507 -0.1198697
v 0.9415533 0.03382481 -0.04079138
v 0.941638 0.03382221 0.03993385
v 0.5315292 0.09177679 -0.8188984
v 0.3707218 0.1729469 -0.9154343
v 0.5924286 0.09179161 -0.7477379
v 0.9836535 0.09176537 -0.04658357
v 0.9838468 0.09175949 0.04482989
v 0.9517746 0.09178892 -0.1333613
v 0.467246 0.1729102 -0.8984776
v 1.021323 0.1728817 -0.04981868
v 1.021677 0.1728709 0.04674854
v 0.5522972 0.1729026 -0.8504216
v 0.9880339 0.1729248 -0.1406837
v 1.037161 0.3015005 -0.05092333
v 1.037415 0.301482 0.04777902
v 1.025747 0.482569 0.04762987
v 0.61667 0.1729297 -0.7755798
v 0.4744636 0.3015552 -0.9127942
v 1.02563 0.4825995 -0.05084201
v 0.9917641 0.6143479 0.04631582
v 0.5612941 0.3015392 -0.8636054
v 1.003077 0.301461 -0.1437588
v 0.6266328 0.3014859 -0.7873643
v 0.9917641 0.6143478 -0.04955041
v 0.9632594 0.6717995 0.04083041
v 0.991526 0.4827693 -0.1434083
v 0.6201811 0.4828204 -0.7782941
v 0.9585493 0.6143478 -0.1396352
v 0.9622722 0.6717994 -0.04959218
v 0.5556233 0.48266 -0.8540249
v 0.9144472 0.7410549 -0.04144171
v 0.9146887 0.741051 0.03685122
v 0.8559822 0.7751838 -0.03056652
v 0.9314469 0.6717367 -0.1318037
v 0.6001335 0.6143479 -0.752458
v 0.5377102 0.6143478 -0.8258957
v 0.46913 0.482688 -0.9031842
v 0.8869069 0.741147 -0.115846
v 0.8337705 0.7756138 -0.09101075
v 0.5780951 0.6717367 -0.7354844
v 0.543043 0.7411494 -0.7036692
v 0.3758586 0.301511 -0.9300609
v -0.3784861 0.3015746 -0.9300451
v 0.3708213 0.4828565 -0.9203058
v 0.4536077 0.6143478 -0.8738286
v 0.518642 0.6717995 -0.8042761
v -0.4766338 0.301559 -0.9122238
v -0.3752125 0.4829619 -0.9202726
v 0.3579699 0.6143478 -0.8904758
v 0.4908651 0.7410428 -0.7647409
v 0.4388216 0.6717995 -0.8486434
v -0.4705743 0.4826836 -0.902941
v 0.4220574 0.7410086 -0.8036751
v 0.4531565 0.7751349 -0.719307
v 0.402359 0.7749977 -0.7482343
v 0.4950836 0.7756227 -0.6701033
v 0.3512857 0.6717368 -0.8633968
v -0.3635834 0.6143478 -0.8904761
v -0.4544996 0.6143479 -0.8738293
v 0.3430147 0.7411085 -0.8173336
v 0.3382325 0.7754591 -0.7594712
v 0.3753219 0.7901095 -0.6862929
v -0.3550145 0.6717683 -0.8632712
v -0.3446136 0.7411314 -0.8173055
v -0.5569401 0.4827111 -0.8535053
v 0.4245078 0.7901094 -0.6551598
v 0.455265 0.7901097 -0.6189753
v -0.3004711 0.7901097 -0.6995746
v -0.3391401 0.7755194 -0.759481
v 0.3174335 0.7901095 -0.6987996
v -0.3004711 0.7901097 -0.6995746
v -0.6275744 0.3015168 -0.7866877
v -0.4451255 0.6718286 -0.8468176
v -0.4242878 0.7410263 -0.8032295
v -0.4928358 0.7410031 -0.7638521
v -0.4032656 0.7750401 -0.7482418
v -0.4959765 0.7755168 -0.6700941
v -0.4540464 0.7749756 -0.7192888
v -0.4633554 0.7901097 -0.6055235
v -0.4190339 0.7901095 -0.6618617
v -0.3630676 0.7901095 -0.6908125
v -0.7656702 0.7901095 -0.08862343
v 0.3138469 0.7901097 0.6964406
v -0.3635221 0.7901097 0.6876145
v -0.4190344 0.7901097 0.6587271
v 0.7648267 0.7901098 0.0865498
v 0.4238984 0.7901097 0.6523656
v 0.374907 0.7901097 0.683417
v 0.7886201 0.7901095 -0.02955869
v 0.7886201 0.7901098 0.02642472
v 0.7667161 0.7901095 -0.08645347
v -0.7888434 0.7901095 -0.0295589
v -0.8568743 0.7750882 0.02732906
v -0.8568754 0.7750953 -0.03056443
v -0.9155933 0.7410328 -0.04008568
v -0.9153508 0.7410312 0.03820599
v -0.9641668 0.6717994 -0.04406493
v -0.834666 0.7755338 0.08777033
v -0.7888435 0.7901098 0.02642472
v -0.764682 0.7901098 0.08717879
v -0.9631795 0.6717995 0.04635759
v -0.9926566 0.6143479 0.04631561
v -0.4959829 0.7755621 0.666863
v -0.455488 0.7901097 0.6158413
v -0.4190344 0.7901097 0.6587271
v -0.8878112 0.7411271 0.1126095
v -0.4540557 0.7750653 0.7160646
v -0.5439483 0.741134 0.700433
v -0.9323544 0.6717369 0.1285689
v -0.403267 0.775054 0.7450087
v -0.3635221 0.7901097 0.6876145
v -0.4917704 0.7410252 0.7615041
v -0.9594418 0.6143478 0.1364004
v -0.5790023 0.6717367 0.7322495
v -0.6010261 0.6143478 0.7492226
v -0.339141 0.7755563 0.7562519
v -0.4229648 0.7410225 0.8004426
v -0.5195493 0.6717994 0.801041
v -0.5386029 0.6143478 0.8226603
v -0.6207336 0.4826982 0.775962
v -0.9920925 0.4828081 0.1410852
v -0.3004779 0.7901095 0.6964404
v 0.3138469 0.7901097 0.6964406
v 0.3382328 0.7755034 0.7562433
v 0.374907 0.7901097 0.683417
v -0.3439221 0.7411326 0.8141025
v -0.4397286 0.6717992 0.8454084
v -0.4545003 0.6143478 0.8705934
v -1.026275 0.4826456 0.04853713
v -1.026488 0.4826202 -0.04998048
v -1.0375 0.3015269 0.04989114
v -1.037979 0.3015231 -0.04892011
v -1.022105 0.1728989 -0.04703385
v -1.003232 0.3014724 0.1426893
v -1.021438 0.1728884 0.04968425
v -0.9840863 0.09177475 -0.04506546
v -0.6266839 0.3014242 0.7862117
v -0.9878941 0.1729157 0.1404965
v -0.9837224 0.09176906 0.04643029
v -0.9417493 0.03382889 -0.04012744
v -0.9415901 0.03382637 0.04063386
v -0.8947101 -0.0009386444 -0.0321965
v -0.9517046 0.09178392 0.133179
v -0.6163939 0.1729106 0.7752835
v -0.5612364 0.3014657 0.8623085
v -0.8946702 -0.0009392929 0.03220462
v -0.8273764 -0.01252785 -0.02056175
v -0.8273764 -0.01252785 0.02040382
v -0.9124236 0.03383293 0.1196995
v -0.8697067 -0.0009376525 0.09990092
v -0.8084745 -0.01252785 0.0716694
v -0.5922846 0.09178115 0.7474968
v -0.5225157 -0.0009379577 0.6935069
v -0.4671842 -0.01252785 0.6552107
v -0.5610876 0.03383167 0.7203199
v -0.5518688 0.172867 0.8499257
v -0.4755112 -0.0009405899 0.7487298
v -0.4316604 -0.01252785 0.6970025
v -0.5313019 0.09175737 0.8185486
v -0.5059189 0.03382122 0.7849207
v -0.4190021 -0.0009410858 0.780892
v -0.3957216 -0.01252785 0.7174855
v -0.4350255 0.03381931 0.8251472
v -0.4509369 0.09175283 0.8639442
v -0.4668415 0.1728587 0.8976386
v -0.4744239 0.301471 0.9112501
v -0.3471409 -0.0009391021 0.7933995
v -0.341296 -0.01252785 0.7269588
v -0.351118 0.03382729 0.8397498
v -0.3705657 0.1728921 0.9143852
v -0.3589137 0.09177104 0.8799556
v 0.347216 -0.0009391785 0.7933908
v 0.3412847 -0.01252785 0.7269591
v 0.3514527 0.0338269 0.8397142
v 0.3596944 0.09177021 0.8798743
v 0.4191625 -0.0009414672 0.7808244
v 0.3957103 -0.01252785 0.7174855
v 0.4357017 0.03381779 0.8248767
v 0.4756331 -0.0009412766 0.7486057
v 0.4316492 -0.01252785 0.6970027
v 0.3720096 0.1728906 0.9142361
v 0.4524976 0.09174936 0.8633252
v 0.5064415 0.0338184 0.7844238
v 0.5225418 -0.000938797 0.693431
v 0.4671728 -0.01252785 0.6552109
v 0.4697162 0.1728523 0.8965035
v 0.5325121 0.09175093 0.8174123
v 0.5612267 0.03382839 0.7200149
v 0.8697177 -0.0009385681 0.09981953
v 0.8084636 -0.01252785 0.07166947
v 0.8946738 -0.0009403229 0.03202989
v 0.8273652 -0.01252785 0.02040417
v 0.941638 0.03382221 0.03993385
v 0.9125004 0.03382931 0.1193738
v 0.9838468 0.09175949 0.04482989
v 0.9518951 0.0917757 0.132434
v 1.021677 0.1728709 0.04674854
v 0.5926178 0.09177364 0.7467993
v 0.988255 0.1729006 0.1391294
v 1.037415 0.301482 0.04777902
v 0.6170167 0.1728969 0.7740038
v 1.003234 0.3014297 0.1417052
v 0.5541002 0.1728551 0.8478413
v 0.5625877 0.3014576 0.8608092
v 0.9916026 0.4827281 0.1406654
v 1.025747 0.482569 0.04762987
v 0.9917641 0.6143479 0.04631582
v 0.6268783 0.3014153 0.7852912
v 0.6203045 0.4827016 0.775565
v 0.4762368 0.3014444 0.9104311
v 0.5561962 0.4825341 0.8509876
v 0.3767821 0.3013983 0.928256
v 0.469914 0.4825036 0.9003484
v 0.3712356 0.4826672 0.9177111
v -0.3759978 0.3014208 0.9283657
v 0.4536071 0.6143478 0.8705936
v 0.5377098 0.6143478 0.8226606
v 0.6001329 0.6143478 0.749223
v -0.3714045 0.4827208 0.9177451
v -0.4696379 0.482557 0.9006879
v -0.5561268 0.4825293 0.851635
v -0.3588623 0.6143478 0.8872406
v 0.3579692 0.6143478 0.8872406
v -0.3521927 0.6717367 0.8601614
v 0.3540865 0.6717366 0.8599194
v 0.3437012 0.7411194 0.8140414
v 0.4441638 0.6717992 0.8434887
v 0.4023593 0.7750154 0.7450023
v 0.4233671 0.7410129 0.7999703
v 0.453151 0.7750815 0.7160656
v 0.4238984 0.7901097 0.6523656
v 0.522997 0.6717994 0.7974333
v 0.4919314 0.7410293 0.7606198
v 0.4950794 0.7755942 0.666866
v 0.5434374 0.7411423 0.6998762
v 0.5797078 0.6717367 0.7299754
v 0.4611446 0.7901097 0.6057879
v 0.7648267 0.7901098 0.0865498
v 0.8337697 0.7756099 0.08777561
v 0.7886201 0.7901098 0.02642472
v 0.8871978 0.7411464 0.111994
v 0.8559796 0.7751675 0.02733143
v 0.8559822 0.7751838 -0.03056652
v 0.9146887 0.741051 0.03685122
v 0.9326355 0.6717368 0.1260529
v 0.9632594 0.6717995 0.04083041
v 0.9585491 0.6143478 0.1364006
v -1.013346 0.7554204 -0.1457809
v -0.8714011 0.7551053 -0.03807705
v -1.047726 0.755487 -0.05010341
v -0.8446776 0.7550523 -0.1124446
v -0.635116 0.7554194 -0.7929996
v -0.5211703 0.7550532 -0.6660235
v -0.571485 0.7554861 -0.8686897
v -0.4716518 0.7551063 -0.7249265
v -0.481703 0.7555177 -0.9212841
v -0.4040614 0.7551308 -0.764521
v -0.3805268 0.7554532 -0.9397579
v -0.3254371 0.7550794 -0.7788773
v 0.3764099 0.7554204 -0.9398925
v 0.3219839 0.7550527 -0.7789924
v 0.4746383 0.7554868 -0.9233372
v 0.3984095 0.7551059 -0.7661116
v 0.5656092 0.7554867 -0.8727721
v 0.4668927 0.7551059 -0.7280463
v 0.6323551 0.7554199 -0.7955416
v 0.5187733 0.7550529 -0.6680163
v 1.011039 0.7554188 -0.1485827
v 0.8426692 0.7550536 -0.1146598
v 1.04563 0.7554854 -0.0563284
v 0.8695818 0.7551069 -0.04288334
v 1.046756 0.7554854 0.04672531
v 0.8704289 0.755107 0.03469624
v 1.012375 0.7554186 0.1424026
v 0.8437054 0.755054 0.1090638
v 0.6341452 0.7554177 0.7896208
v 0.5201985 0.7550547 0.6626421
v 0.5705066 0.7554843 0.86532
v 0.470686 0.7551078 0.721538
v 0.4806607 0.755484 0.9178089
v 0.4030498 0.7551078 0.7610517
v 0.3795336 0.7554172 0.9362552
v 0.324446 0.7550548 0.7753896
v -0.3773792 0.7554164 0.9365146
v -0.322957 0.7550557 0.7756116
v -0.4756092 0.7554829 0.9199594
v -0.3993818 0.7551088 0.7627313
v -0.5665804 0.7554829 0.8693938
v -0.4678649 0.7551091 0.7246656
v -0.6333262 0.7554161 0.7921637
v -0.5197455 0.755056 0.6646357
v -1.012011 0.7554154 0.1452045
v -0.8436418 0.7550567 0.111279
v -1.046602 0.755482 0.05295021
v -0.8705543 0.7551101 0.03950247
v -1.047726 0.755487 -0.05010341
v -0.8714011 0.7551053 -0.03807705
v -1.08514 0.03695771 -0.1559937
v -0.9277459 0.03665472 -0.04043039
v -1.121958 0.03702242 -0.05353431
v -0.8992937 0.03660366 -0.1196093
v -0.6801006 0.03695698 -0.8490898
v -0.5548565 0.03660444 -0.709003
v -0.6119593 0.03702158 -0.930145
v -0.5021343 0.03665566 -0.7717168
v -0.5158131 0.03705205 -0.9864674
v -0.4301711 0.03667917 -0.813873
v -0.4074652 0.03698983 -1.006251
v -0.34646 0.03662981 -0.829158
v 0.4031259 0.0369578 -1.006395
v 0.3428469 0.03660394 -0.8292806
v 0.508317 0.03702224 -0.9886661
v 0.4242173 0.03665523 -0.8155665
v 0.6057362 0.0370221 -0.9345167
v 0.4971308 0.03665523 -0.7750384
v 0.6772133 0.03695728 -0.8518119
v 0.5523679 0.03660413 -0.7111247
v 1.08274 0.0369563 -0.1589941
v 0.8972188 0.0366049 -0.1219678
v 1.119783 0.03702086 -0.06020048
v 0.9258726 0.03665611 -0.04554762
v 1.120988 0.03702086 0.05015785
v 0.9267745 0.03665635 0.03705112
v 1.08417 0.03695623 0.1526171
v 0.8983219 0.03660521 0.1162299
v 0.6791304 0.03695532 0.8457127
v 0.5538853 0.03660591 0.7056228
v 0.6109808 0.03701963 0.9267774
v 0.5011694 0.03665711 0.7683291
v 0.5147665 0.03701948 0.982987
v 0.4291576 0.03665715 0.8103992
v 0.4064711 0.0369548 1.002741
v 0.3454683 0.03660609 0.8256648
v -0.4040945 0.03695391 1.003019
v -0.3438195 0.03660686 0.8259009
v -0.5092874 0.03701836 0.9852897
v -0.4251887 0.03665808 0.8121872
v -0.606707 0.03701843 0.9311402
v -0.4981025 0.03665823 0.771659
v -0.678184 0.03695377 0.8484355
v -0.5533396 0.03660722 0.7077454
v -1.083711 0.03695303 0.1556176
v -0.8981908 0.03660799 0.1185885
v -1.120754 0.03701752 0.0568241
v -0.9268445 0.03665929 0.04216826
v -1.121958 0.03702242 -0.05353431
v -0.9277459 0.03665472 -0.04043039
vt 0.4985352 0.3168945
vt 0.2490234 0.3168945
vt 0.4770508 0.3168945
vt 0.2052002 0.3168945
vt 0.07727051 0.3168945
vt 0.1888428 0.3168945
vt 0.527832 0.3168945
vt 0.07727051 0.3168945
vt 0.2490234 0.3168945
vt 0.0435791 0.3110352
vt 0.06866455 0.3168945
vt 0.06866455 0.3168945
vt 0.07727051 0.3168945
vt 0.05178833 0.3112793
vt 0.0435791 0.3110352
vt 0.1917725 0.3168945
vt 0.07763672 0.3168945
vt 0.03204346 0.2976074
vt 0.02191162 0.2976074
vt 0.02182007 0.2702637
vt 0.01073456 0.2702637
vt 0.007106781 0.2475586
vt 0.007106781 0.2475586
vt 0.004985809 0.1955566
vt 0.01676941 0.1955566
vt 0.002069473 0.1240234
vt 0.01890564 0.2475586
vt 0.1496582 0.2702637
vt 0.1589355 0.2976074
vt 0.1462402 0.2475586
vt 0.170166 0.2702637
vt 0.0138092 0.1240234
vt 0.1451416 0.1956787
vt 0.168457 0.2475586
vt 0.01171112 0.07324219
vt 0 0.07324219
vt 0.01396179 0.04119873
vt 0.002380371 0.04119873
vt 0.022995 0.01831055
vt 0.01225281 0.01831055
vt 0.03881836 0.004577637
vt 0.02961731 0.004577637
vt 0.0614624 2.384186E-07
vt 0.05447388 2.384186E-07
vt 0.1873779 2.384186E-07
vt 0.1669922 0.004577637
vt 0.2005615 2.384186E-07
vt 0.15271 0.01831055
vt 0.1843262 0.004577637
vt 0.2138672 2.384186E-07
vt 0.1445313 0.04119873
vt 0.2052002 0.004577637
vt 0.2338867 2.384186E-07
vt 0.1728516 0.01831055
vt 0.1424561 0.07324219
vt 0.2316895 0.004577637
vt 0.4858398 2.384186E-07
vt 0.1663818 0.04119873
vt 0.1989746 0.01831055
vt 0.4880371 0.004577637
vt 0.5058594 2.384186E-07
vt 0.2301025 0.01831055
vt 0.1954346 0.04119873
vt 0.5146484 0.004577637
vt 0.519043 2.384186E-07
vt 0.489502 0.01831055
vt 0.5356445 0.004577637
vt 0.5322266 2.384186E-07
vt 0.1646729 0.07324219
vt 0.229248 0.04119873
vt 0.5205078 0.01831055
vt 0.5527344 0.004577637
vt 0.6582031 2.384186E-07
vt 0.194458 0.07324219
vt 0.1657715 0.1240234
vt 0.4902344 0.04119873
vt 0.546875 0.01831055
vt 0.6811523 0.004577637
vt 0.6650391 2.384186E-07
vt 0.2288818 0.07324219
vt 0.5239258 0.04119873
vt 0.5668945 0.01831055
vt 0.6899414 0.004577637
vt 0.6650391 2.384186E-07
vt 0.6899414 0.004577637
vt 0.6967773 0.01831055
vt 0.7075195 0.01831055
vt 0.7075195 0.01831055
vt 0.5527344 0.04119873
vt 0.4904785 0.07324219
vt 0.5751953 0.04119873
vt 0.7172852 0.04119873
vt 0.7172852 0.04119873
vt 0.7055664 0.04119873
vt 0.5244141 0.07324219
vt 0.7192383 0.07324219
vt 0.7197266 0.07324219
vt 0.5541992 0.07324219
vt 0.7075195 0.07324219
vt 0.7172852 0.1240234
vt 0.7172852 0.1240234
vt 0.7143555 0.1955566
vt 0.5771484 0.07324219
vt 0.5234375 0.1240234
vt 0.7143555 0.1955566
vt 0.7124023 0.2475586
vt 0.5532227 0.1240234
vt 0.7055664 0.1240234
vt 0.5756836 0.1240234
vt 0.7124023 0.2475586
vt 0.7084961 0.2702637
vt 0.7026367 0.1955566
vt 0.5742188 0.1955566
vt 0.7006836 0.2475586
vt 0.7084961 0.2702637
vt 0.5517578 0.1955566
vt 0.6972656 0.2976074
vt 0.6977539 0.2976074
vt 0.6757813 0.3110352
vt 0.6972656 0.2702637
vt 0.5732422 0.2475586
vt 0.5507813 0.2475586
vt 0.5219727 0.1955566
vt 0.6875 0.2976074
vt 0.6674805 0.3112793
vt 0.5693359 0.2702637
vt 0.5605469 0.2976074
vt 0.489502 0.1240234
vt 0.2293701 0.1240234
vt 0.4880371 0.1956787
vt 0.5209961 0.2475586
vt 0.5478516 0.2702637
vt 0.1955566 0.1240234
vt 0.2301025 0.1956787
vt 0.4870605 0.2475586
vt 0.5410156 0.2976074
vt 0.5185547 0.2702637
vt 0.1971436 0.1955566
vt 0.515625 0.2976074
vt 0.5273438 0.3110352
vt 0.5083008 0.3110352
vt 0.5424805 0.3112793
vt 0.4870605 0.2702637
vt 0.2307129 0.2475586
vt 0.1983643 0.2475586
vt 0.4865723 0.2976074
vt 0.4846191 0.3112793
vt 0.4985352 0.3168945
vt 0.2313232 0.2702637
vt 0.232666 0.2976074
vt 0.1673584 0.1955566
vt 0.5166016 0.3168945
vt 0.527832 0.3168945
vt 0.2490234 0.3168945
vt 0.2347412 0.3112793
vt 0.4770508 0.3168945
vt 0.2490234 0.3168945
vt 0.1435547 0.1240234
vt 0.1987305 0.2702637
vt 0.2032471 0.2976074
vt 0.1779785 0.2976074
vt 0.2110596 0.3110352
vt 0.1767578 0.3112793
vt 0.1922607 0.3110352
vt 0.1888428 0.3168945
vt 0.2052002 0.3168945
vt 0.2258301 0.3168945
vt 0.07727051 0.3168945
vt 0.4758301 0.3168945
vt 0.225708 0.3168945
vt 0.2052002 0.3168945
vt 0.6420898 0.3168945
vt 0.5161133 0.3168945
vt 0.498291 0.3168945
vt 0.6508789 0.3168945
vt 0.6508789 0.3168945
vt 0.6430664 0.3168945
vt 0.06866455 0.3168945
vt 0.0435791 0.3110352
vt 0.0435791 0.3110352
vt 0.02191162 0.2976074
vt 0.02200317 0.2976074
vt 0.01073456 0.2702637
vt 0.05178833 0.3112793
vt 0.06866455 0.3168945
vt 0.07763672 0.3168945
vt 0.01108551 0.2702637
vt 0.007106781 0.2475586
vt 0.1767578 0.3112793
vt 0.1917725 0.3168945
vt 0.2052002 0.3168945
vt 0.03216553 0.2976074
vt 0.1922607 0.3110352
vt 0.1590576 0.2976074
vt 0.02224731 0.2702637
vt 0.2110596 0.3110352
vt 0.225708 0.3168945
vt 0.1783447 0.2976074
vt 0.01890564 0.2475586
vt 0.1501465 0.2702637
vt 0.1462402 0.2475586
vt 0.2347412 0.3112793
vt 0.2037354 0.2976074
vt 0.1717529 0.2702637
vt 0.168457 0.2475586
vt 0.1452637 0.1955566
vt 0.01686096 0.1955566
vt 0.2490234 0.3168945
vt 0.4758301 0.3168945
vt 0.4846191 0.3112793
vt 0.498291 0.3168945
vt 0.2329102 0.2976074
vt 0.2006836 0.2702637
vt 0.1983643 0.2475586
vt 0.005054474 0.1955566
vt 0.004985809 0.1955566
vt 0.00223732 0.1240234
vt 0.002069473 0.1240234
vt 0 0.07324219
vt 0.01404572 0.1240234
vt 0.0002350807 0.07324219
vt 0.002380371 0.04119873
vt 0.1437988 0.1239624
vt 0.01204681 0.07324219
vt 0.002513885 0.04119873
vt 0.01225281 0.01831055
vt 0.01231384 0.01831055
vt 0.02961731 0.004577637
vt 0.0141449 0.04119873
vt 0.1428223 0.07324219
vt 0.1663818 0.1240234
vt 0.02963257 0.004577637
vt 0.05447388 2.384186E-07
vt 0.05447388 2.384186E-07
vt 0.02307129 0.01831055
vt 0.03884888 0.004577637
vt 0.0614624 2.384186E-07
vt 0.1446533 0.04119873
vt 0.1669922 0.004577637
vt 0.1873779 2.384186E-07
vt 0.15271 0.01831055
vt 0.1655273 0.07324219
vt 0.1843262 0.004577637
vt 0.2005615 2.384186E-07
vt 0.1668701 0.04116821
vt 0.1730957 0.01831055
vt 0.2052002 0.004577637
vt 0.2138672 2.384186E-07
vt 0.1993408 0.01829529
vt 0.1960449 0.04116821
vt 0.1955566 0.07318115
vt 0.1962891 0.1240234
vt 0.2316895 0.004577637
vt 0.2338867 2.384186E-07
vt 0.2302246 0.01831055
vt 0.2293701 0.07324219
vt 0.2294922 0.04119873
vt 0.4880371 0.004577637
vt 0.4858398 2.384186E-07
vt 0.489502 0.01831055
vt 0.4904785 0.04119873
vt 0.5146484 0.004573822
vt 0.5058594 2.384186E-07
vt 0.5205078 0.01829529
vt 0.5356445 0.004577637
vt 0.519043 2.384186E-07
vt 0.4909668 0.07324219
vt 0.5244141 0.04116821
vt 0.546875 0.01829529
vt 0.5527344 0.004577637
vt 0.5322266 2.384186E-07
vt 0.5253906 0.07318115
vt 0.5532227 0.04116821
vt 0.5668945 0.01831055
vt 0.6811523 0.004577637
vt 0.6582031 2.384186E-07
vt 0.6899414 0.004577637
vt 0.6650391 2.384186E-07
vt 0.7075195 0.01831055
vt 0.6967773 0.01831055
vt 0.7172852 0.04119873
vt 0.7055664 0.04119873
vt 0.7197266 0.07324219
vt 0.5751953 0.04119873
vt 0.7080078 0.07324219
vt 0.7172852 0.1240234
vt 0.5771484 0.07324219
vt 0.7055664 0.1239624
vt 0.5551758 0.07318115
vt 0.5537109 0.1240234
vt 0.7026367 0.1955566
vt 0.7143555 0.1955566
vt 0.7124023 0.2475586
vt 0.5761719 0.1239624
vt 0.5742188 0.1955566
vt 0.5239258 0.1239624
vt 0.5522461 0.1955566
vt 0.4897461 0.1239624
vt 0.5224609 0.1954346
vt 0.4882813 0.1955566
vt 0.2302246 0.1239624
vt 0.5209961 0.2475586
vt 0.5507813 0.2475586
vt 0.5732422 0.2475586
vt 0.2314453 0.1955566
vt 0.1975098 0.1955566
vt 0.1676025 0.1955566
vt 0.2322998 0.2475586
vt 0.4870605 0.2475586
vt 0.2322998 0.2702637
vt 0.4880371 0.2702637
vt 0.4868164 0.2976074
vt 0.5205078 0.2702637
vt 0.5083008 0.3110352
vt 0.5161133 0.2976074
vt 0.5273438 0.3110352
vt 0.5161133 0.3168945
vt 0.5493164 0.2702637
vt 0.5415039 0.2976074
vt 0.5424805 0.3112793
vt 0.5605469 0.2976074
vt 0.5698242 0.2702637
vt 0.5302734 0.3168945
vt 0.6420898 0.3168945
vt 0.6674805 0.3112793
vt 0.6508789 0.3168945
vt 0.6875 0.2976074
vt 0.6757813 0.3110352
vt 0.6757813 0.3110352
vt 0.6977539 0.2976074
vt 0.6977539 0.2702637
vt 0.7084961 0.2702637
vt 0.7006836 0.2475586
vt 0.9980469 0.01719666
vt 0.7285156 0.001665115
vt 0.9980469 0.001665115
vt 0.7285156 0.01719666
vt 0.9980469 0.1369629
vt 0.7285156 0.1369629
vt 0.9980469 0.1520996
vt 0.7285156 0.1520996
vt 0.9980469 0.1676025
vt 0.7285156 0.1676025
vt 0.9980469 0.1831055
vt 0.7285156 0.1831055
vt 0.9980469 0.3029785
vt 0.7285156 0.3029785
vt 0.9980469 0.3178711
vt 0.7285156 0.3178711
vt 0.9980469 0.3334961
vt 0.7285156 0.3334961
vt 0.9980469 0.3491211
vt 0.7285156 0.3491211
vt 0.9980469 0.46875
vt 0.7285156 0.46875
vt 0.9980469 0.4838867
vt 0.7285156 0.4838867
vt 0.9980469 0.4995117
vt 0.7285156 0.4995117
vt 0.9980469 0.5151367
vt 0.7285156 0.5151367
vt 0.9980469 0.6347656
vt 0.7285156 0.6347656
vt 0.9980469 0.6499023
vt 0.7285156 0.6499023
vt 0.9980469 0.6655273
vt 0.7285156 0.6655273
vt 0.9980469 0.6806641
vt 0.7285156 0.6806641
vt 0.9980469 0.8007813
vt 0.7285156 0.8007813
vt 0.9980469 0.815918
vt 0.7285156 0.815918
vt 0.9980469 0.8310547
vt 0.7285156 0.8310547
vt 0.9980469 0.8466797
vt 0.7285156 0.8466797
vt 0.9980469 0.9663086
vt 0.7285156 0.9663086
vt 0.9980469 0.9814453
vt 0.7285156 0.9814453
vt 0.9980469 0.9970703
vt 0.7285156 0.9970703
vt 0.7202148 0.671875
vt 0.4504395 0.6665039
vt 0.7202148 0.6665039
vt 0.4504395 0.671875
vt 0.7202148 0.7119141
vt 0.4504395 0.7119141
vt 0.7202148 0.7167969
vt 0.4504395 0.7167969
vt 0.7202148 0.722168
vt 0.4504395 0.722168
vt 0.7202148 0.7275391
vt 0.4504395 0.7275391
vt 0.7202148 0.7675781
vt 0.4504395 0.7675781
vt 0.7202148 0.7724609
vt 0.4504395 0.7724609
vt 0.7202148 0.777832
vt 0.4504395 0.777832
vt 0.7202148 0.7832031
vt 0.4504395 0.7832031
vt 0.7202148 0.8232422
vt 0.4504395 0.8232422
vt 0.7202148 0.828125
vt 0.4504395 0.828125
vt 0.7202148 0.8334961
vt 0.4504395 0.8334961
vt 0.7202148 0.8383789
vt 0.4504395 0.8383789
vt 0.7202148 0.878418
vt 0.4504395 0.878418
vt 0.7202148 0.8837891
vt 0.4504395 0.8837891
vt 0.7202148 0.8886719
vt 0.4504395 0.8886719
vt 0.7202148 0.894043
vt 0.4504395 0.894043
vt 0.7202148 0.934082
vt 0.4504395 0.934082
vt 0.7202148 0.9394531
vt 0.4504395 0.9394531
vt 0.7202148 0.9443359
vt 0.4504395 0.9443359
vt 0.7202148 0.949707
vt 0.4504395 0.949707
vt 0.7202148 0.9897461
vt 0.4504395 0.9897461
vt 0.7202148 0.9946289
vt 0.4504395 0.9946289
vt 0.7202148 1
vt 0.4504395 1
vn 0.04342651 0.9926758 -0.1125488
vn -0.005573273 0.9926758 -0.1209106
vn 0.01114655 0.9921875 -0.1223145
vn -0.07922363 0.9921875 -0.09393311
vn -0.1066895 0.9926758 -0.05462646
vn -0.1001587 0.9926758 -0.06494141
vn 0.1001587 0.9926758 -0.06848145
vn -0.1066895 0.9926758 -0.05462646
vn -0.005573273 0.9926758 -0.1209106
vn -0.3706055 0.9267578 0.06134033
vn -0.1190186 0.9926758 -0.02339172
vn -0.1190186 0.9926758 0.02360535
vn -0.1066895 0.9926758 -0.05462646
vn -0.3427734 0.9262695 -0.1571045
vn -0.3710938 0.9262695 -0.06262207
vn -0.09973145 0.9926758 0.0682373
vn -0.1064453 0.9926758 0.05490112
vn -0.6235352 0.7241211 -0.2946777
vn -0.6762695 0.7265625 -0.1205444
vn -0.784668 0.4990234 -0.3674316
vn -0.8476563 0.5107422 -0.1429443
vn -0.9233398 0.3457031 -0.1662598
vn -0.9238281 0.3457031 0.1644287
vn -0.9736328 0.1522217 -0.1704102
vn -0.8959961 0.1436768 -0.420166
vn -0.9853516 -0.03010559 -0.1691895
vn -0.8515625 0.3337402 -0.4040527
vn -0.7094727 0.4978027 -0.4990234
vn -0.5639648 0.7236328 -0.3977051
vn -0.7700195 0.3325195 -0.5444336
vn -0.5581055 0.5073242 -0.6567383
vn -0.9057617 -0.02961731 -0.4228516
vn -0.8066406 0.1436768 -0.5732422
vn -0.5996094 0.3425293 -0.7236328
vn -0.875 -0.2626953 -0.4069824
vn -0.9487305 -0.2722168 -0.1606445
vn -0.7871094 -0.4931641 -0.3706055
vn -0.8500977 -0.5048828 -0.1495361
vn -0.6479492 -0.6972656 -0.3066406
vn -0.703125 -0.699707 -0.1256104
vn -0.364502 -0.9150391 -0.1719971
vn -0.4035645 -0.9121094 -0.07189941
vn -0.1531982 -0.9853516 -0.0723877
vn -0.1646729 -0.9858398 -0.02947998
vn -0.1383057 -0.9853516 -0.0982666
vn -0.3288574 -0.9150391 -0.2333984
vn -0.1072388 -0.9858398 -0.1297607
vn -0.5859375 -0.6967773 -0.4138184
vn -0.262207 -0.9116211 -0.3171387
vn -0.05700684 -0.9858398 -0.1590576
vn -0.7104492 -0.4929199 -0.5019531
vn -0.1395264 -0.9111328 -0.3881836
vn -0.0147171 -0.9853516 -0.1705322
vn -0.458252 -0.6982422 -0.550293
vn -0.7866211 -0.2619629 -0.5595703
vn -0.03509521 -0.9140625 -0.4042969
vn 0.01470947 -0.9853516 -0.1704102
vn -0.5537109 -0.5029297 -0.6635742
vn -0.2423096 -0.6967773 -0.675293
vn 0.03494263 -0.9140625 -0.4040527
vn 0.05703735 -0.9858398 -0.1590576
vn -0.06124878 -0.6938477 -0.7172852
vn -0.2941895 -0.5019531 -0.8134766
vn 0.1395264 -0.9111328 -0.3881836
vn 0.1072998 -0.9858398 -0.1297607
vn 0.06054688 -0.6938477 -0.7172852
vn 0.2624512 -0.9111328 -0.3171387
vn 0.1384277 -0.9853516 -0.0982666
vn -0.6157227 -0.2712402 -0.7397461
vn -0.07556152 -0.4902344 -0.8681641
vn 0.241333 -0.6967773 -0.6757813
vn 0.3291016 -0.9150391 -0.2337646
vn 0.1531982 -0.9853516 -0.07244873
vn -0.3325195 -0.2709961 -0.9033203
vn -0.6386719 -0.03121948 -0.769043
vn 0.07397461 -0.4902344 -0.8686523
vn 0.4577637 -0.6977539 -0.5512695
vn 0.364502 -0.9150391 -0.1721191
vn 0.1646729 -0.9858398 -0.02944946
vn -0.08776855 -0.2612305 -0.9614258
vn 0.2912598 -0.5014648 -0.8149414
vn 0.5859375 -0.6962891 -0.4145508
vn 0.4035645 -0.9121094 -0.07202148
vn 0.1646729 -0.9858398 0.02949524
vn 0.4038086 -0.9121094 0.07214355
vn 0.6479492 -0.6967773 -0.3076172
vn 0.703125 -0.699707 -0.1269531
vn 0.7036133 -0.6992188 0.1263428
vn 0.5512695 -0.5024414 -0.6660156
vn 0.08520508 -0.260498 -0.9619141
vn 0.7099609 -0.4919434 -0.5039063
vn 0.8500977 -0.5039063 -0.1533203
vn 0.8510742 -0.503418 0.151001
vn 0.7866211 -0.4926758 -0.3725586
vn 0.3259277 -0.2700195 -0.90625
vn 0.9477539 -0.2705078 -0.1688232
vn 0.9487305 -0.2702637 0.1633301
vn 0.6098633 -0.270752 -0.7446289
vn 0.8740234 -0.2609863 -0.4101563
vn 0.984375 -0.02908325 -0.1749268
vn 0.9848633 -0.02816772 0.1710205
vn 0.9731445 0.154541 0.1708984
vn 0.7851563 -0.2612305 -0.5620117
vn 0.3388672 -0.03100586 -0.9404297
vn 0.9726563 0.1540527 -0.1726074
vn 0.9233398 0.3466797 0.1657715
vn 0.6342773 -0.03041077 -0.7724609
vn 0.9047852 -0.02854919 -0.4250488
vn 0.8134766 -0.02880859 -0.5810547
vn 0.9238281 0.3459473 -0.1645508
vn 0.8476563 0.5107422 0.1429443
vn 0.8955078 0.1452637 -0.4211426
vn 0.8061523 0.1442871 -0.5742188
vn 0.8520508 0.3337402 -0.4038086
vn 0.8452148 0.5097656 -0.1611328
vn 0.6289063 0.151123 -0.7626953
vn 0.6762695 0.7265625 -0.1226807
vn 0.6767578 0.7265625 0.1206665
vn 0.3713379 0.9262695 -0.06149292
vn 0.7827148 0.4985352 -0.373291
vn 0.7700195 0.3334961 -0.5439453
vn 0.6000977 0.3432617 -0.722168
vn 0.3354492 0.1503906 -0.9301758
vn 0.6230469 0.7241211 -0.2963867
vn 0.3425293 0.9262695 -0.157959
vn 0.7055664 0.498291 -0.5039063
vn 0.5634766 0.7231445 -0.3996582
vn 0.08789063 -0.03012085 -0.9956055
vn -0.09112549 -0.03094482 -0.9951172
vn 0.08660889 0.1420898 -0.9858398
vn 0.3183594 0.3417969 -0.8842773
vn 0.543457 0.5083008 -0.668457
vn -0.3447266 -0.03173828 -0.9379883
vn -0.09051514 0.1416016 -0.9858398
vn 0.07995605 0.329834 -0.9404297
vn 0.439209 0.7246094 -0.5307617
vn 0.2824707 0.5058594 -0.8149414
vn -0.340332 0.1497803 -0.9282227
vn 0.2315674 0.7241211 -0.6499023
vn 0.2371826 0.9257813 -0.2944336
vn 0.1307373 0.9257813 -0.3544922
vn 0.3061523 0.925293 -0.2232666
vn 0.07159424 0.4946289 -0.8662109
vn -0.08575439 0.3322754 -0.9394531
vn -0.3195801 0.3417969 -0.8837891
vn 0.05767822 0.7216797 -0.6899414
vn 0.0369873 0.925293 -0.3769531
vn 0.04342651 0.9926758 -0.1125488
vn -0.0769043 0.496582 -0.8647461
vn -0.05957031 0.7216797 -0.6899414
vn -0.6308594 0.1506348 -0.7612305
vn 0.08007813 0.9926758 -0.08837891
vn 0.1001587 0.9926758 -0.06848145
vn -0.005573273 0.9926758 -0.1209106
vn -0.03738403 0.9248047 -0.3781738
vn 0.01114655 0.9921875 -0.1223145
vn -0.005573273 0.9926758 -0.1209106
vn -0.8144531 -0.02989197 -0.5791016
vn -0.2998047 0.5068359 -0.8085938
vn -0.2336426 0.7241211 -0.6484375
vn -0.440918 0.7250977 -0.5288086
vn -0.1318359 0.9257813 -0.3547363
vn -0.3046875 0.9262695 -0.2210693
vn -0.2371826 0.9257813 -0.2944336
vn -0.1001587 0.9926758 -0.06494141
vn -0.07922363 0.9921875 -0.09393311
vn -0.03479004 0.9926758 -0.1152344
vn -0.1066895 0.9926758 -0.05462646
vn 0.01047516 0.9921875 0.12323
vn -0.03509521 0.9926758 0.1152954
vn -0.07775879 0.9926758 0.09436035
vn 0.1069946 0.9926758 0.05505371
vn 0.08117676 0.9926758 0.0880127
vn 0.0435791 0.9926758 0.112854
vn 0.1194458 0.9926758 -0.02326965
vn 0.1195679 0.9926758 0.02366638
vn 0.107605 0.9926758 -0.05450439
vn -0.1190186 0.9926758 -0.02339172
vn -0.3706055 0.9267578 0.06134033
vn -0.3710938 0.9262695 -0.06262207
vn -0.6762695 0.7265625 -0.1205444
vn -0.6757813 0.7265625 0.1225586
vn -0.8476563 0.5107422 -0.1429443
vn -0.3417969 0.9267578 0.1574707
vn -0.1190186 0.9926758 0.02360535
vn -0.1064453 0.9926758 0.05490112
vn -0.8452148 0.5097656 0.1611328
vn -0.9238281 0.3457031 0.1644287
vn -0.3059082 0.9257813 0.2227783
vn -0.09973145 0.9926758 0.0682373
vn -0.07775879 0.9926758 0.09436035
vn -0.6225586 0.7241211 0.2963867
vn -0.2384033 0.925293 0.2941895
vn -0.5629883 0.7236328 0.3994141
vn -0.7827148 0.498291 0.373291
vn -0.1324463 0.9257813 0.3540039
vn -0.03509521 0.9926758 0.1152954
vn -0.4394531 0.7246094 0.5307617
vn -0.8515625 0.3339844 0.4035645
vn -0.7055664 0.498291 0.5039063
vn -0.7695313 0.3342285 0.5439453
vn -0.03659058 0.925293 0.3776855
vn -0.2318115 0.7236328 0.6499023
vn -0.543457 0.5083008 0.668457
vn -0.6000977 0.3447266 0.7216797
vn -0.8056641 0.1456299 0.5742188
vn -0.8950195 0.1461182 0.4213867
vn -0.005569458 0.9926758 0.1207886
vn 0.01047516 0.9921875 0.12323
vn 0.03833008 0.9248047 0.3781738
vn 0.0435791 0.9926758 0.112854
vn -0.05767822 0.7211914 0.6904297
vn -0.2824707 0.5058594 0.8149414
vn -0.3181152 0.34375 0.8837891
vn -0.9726563 0.1534424 0.173584
vn -0.9736328 0.1522217 -0.1704102
vn -0.9838867 -0.02938843 0.177002
vn -0.9853516 -0.03010559 -0.1691895
vn -0.9487305 -0.2722168 -0.1606445
vn -0.9042969 -0.02760315 0.4257813
vn -0.9472656 -0.2709961 0.1717529
vn -0.8500977 -0.5048828 -0.1495361
vn -0.8129883 -0.02713013 0.5820313
vn -0.8735352 -0.2602539 0.411377
vn -0.8496094 -0.5043945 0.1546631
vn -0.703125 -0.699707 -0.1256104
vn -0.703125 -0.699707 0.1275635
vn -0.4035645 -0.9121094 -0.07189941
vn -0.7866211 -0.4921875 0.373291
vn -0.7841797 -0.2600098 0.5629883
vn -0.6333008 -0.02745056 0.7734375
vn -0.4035645 -0.9121094 0.07214355
vn -0.1646729 -0.9858398 -0.02947998
vn -0.1646729 -0.9858398 0.02946472
vn -0.6479492 -0.6967773 0.3078613
vn -0.364502 -0.9150391 0.1722412
vn -0.1531982 -0.9853516 0.07244873
vn -0.7099609 -0.4909668 0.5048828
vn -0.3293457 -0.9145508 0.2340088
vn -0.1384277 -0.9853516 0.09832764
vn -0.5864258 -0.6953125 0.4152832
vn -0.6083984 -0.2685547 0.7470703
vn -0.2626953 -0.9111328 0.317627
vn -0.1072998 -0.9858398 0.1298828
vn -0.5507813 -0.5004883 0.6679688
vn -0.4577637 -0.6967773 0.5522461
vn -0.1396484 -0.9106445 0.388916
vn -0.05706787 -0.9858398 0.1591797
vn -0.241333 -0.6953125 0.6772461
vn -0.2905273 -0.4987793 0.8164063
vn -0.3239746 -0.2666016 0.9077148
vn -0.3371582 -0.02687073 0.940918
vn -0.03497314 -0.9135742 0.4050293
vn -0.0147171 -0.9853516 0.1705322
vn -0.06051636 -0.6923828 0.7192383
vn -0.08447266 -0.2563477 0.9628906
vn -0.07366943 -0.4870605 0.8701172
vn 0.03518677 -0.9135742 0.4050293
vn 0.01472473 -0.9853516 0.1705322
vn 0.0614624 -0.6923828 0.7192383
vn 0.0758667 -0.4868164 0.8701172
vn 0.1397705 -0.9106445 0.3891602
vn 0.05703735 -0.9858398 0.1591797
vn 0.2429199 -0.6948242 0.6767578
vn 0.2626953 -0.9111328 0.317627
vn 0.1072998 -0.9858398 0.1298828
vn 0.08825684 -0.2565918 0.9624023
vn 0.2946777 -0.4985352 0.8154297
vn 0.4592285 -0.6962891 0.5517578
vn 0.3293457 -0.9145508 0.2338867
vn 0.1384277 -0.9853516 0.09832764
vn 0.3330078 -0.2666016 0.9042969
vn 0.5541992 -0.5 0.6655273
vn 0.5869141 -0.6953125 0.4145508
vn 0.3649902 -0.9150391 0.1722412
vn 0.1531982 -0.9853516 0.07244873
vn 0.4038086 -0.9121094 0.07214355
vn 0.1646729 -0.9858398 0.02949524
vn 0.7036133 -0.6992188 0.1263428
vn 0.6489258 -0.6958008 0.307373
vn 0.8510742 -0.503418 0.151001
vn 0.7875977 -0.4909668 0.371582
vn 0.9487305 -0.2702637 0.1633301
vn 0.7114258 -0.4902344 0.503418
vn 0.875 -0.2595215 0.4084473
vn 0.9848633 -0.02816772 0.1710205
vn 0.7871094 -0.2585449 0.5605469
vn 0.9052734 -0.02642822 0.423584
vn 0.6157227 -0.2670898 0.7412109
vn 0.6381836 -0.02682495 0.7695313
vn 0.8955078 0.1469727 0.4204102
vn 0.9731445 0.154541 0.1708984
vn 0.9233398 0.3466797 0.1657715
vn 0.8144531 -0.02613831 0.5795898
vn 0.8061523 0.1472168 0.5732422
vn 0.3435059 -0.02639771 0.9389648
vn 0.6298828 0.1549072 0.7607422
vn 0.09002686 -0.02532959 0.9956055
vn 0.3371582 0.1542969 0.9287109
vn 0.08752441 0.1461182 0.9853516
vn -0.08728027 -0.02545166 0.9960938
vn 0.3166504 0.3439941 0.8837891
vn 0.5986328 0.3447266 0.7226563
vn 0.7695313 0.3342285 0.5439453
vn -0.08636475 0.1464844 0.9853516
vn -0.3344727 0.1539307 0.9296875
vn -0.628418 0.1534424 0.7626953
vn -0.07995605 0.3320313 0.9399414
vn 0.07965088 0.3325195 0.9394531
vn -0.07159424 0.4946289 0.8662109
vn 0.07769775 0.4953613 0.8652344
vn 0.05969238 0.7211914 0.6899414
vn 0.2993164 0.5068359 0.8081055
vn 0.1303711 0.925293 0.3554688
vn 0.2333984 0.7236328 0.6494141
vn 0.236084 0.9262695 0.2939453
vn 0.08117676 0.9926758 0.0880127
vn 0.5576172 0.5073242 0.6572266
vn 0.440918 0.7246094 0.5297852
vn 0.3054199 0.9262695 0.2216797
vn 0.5639648 0.7236328 0.3977051
vn 0.7094727 0.4978027 0.4990234
vn 0.1005859 0.9926758 0.06585693
vn 0.1069946 0.9926758 0.05505371
vn 0.3435059 0.9257813 0.1574707
vn 0.1195679 0.9926758 0.02366638
vn 0.6240234 0.7236328 0.2946777
vn 0.3718262 0.9262695 0.06292725
vn 0.3713379 0.9262695 -0.06149292
vn 0.6767578 0.7265625 0.1206665
vn 0.784668 0.4992676 0.3674316
vn 0.8476563 0.5107422 0.1429443
vn 0.8510742 0.3352051 0.4035645
vn 0.002075195 1 0.0005216599
vn 0.002168655 1 -2.741814E-06
vn 0.00214386 1 3.46303E-05
vn 0.002046585 1 0.0006818771
vn 0.001489639 1 0.001548767
vn 0.001598358 1 0.001447678
vn 0.0009889603 1 0.001958847
vn 0.0009965897 1 0.001948357
vn 0.000916481 1 0.002016068
vn 0.0009288788 1 0.002012253
vn 0.000600338 1 0.00211525
vn 0.0004591942 1 0.002164841
vn -0.0005664825 1 0.002094269
vn -0.0004091263 1 0.00214386
vn -0.001036644 1 0.001923561
vn -0.001039505 1 0.001918793
vn -0.001098633 1 0.001882553
vn -0.001101494 1 0.001883507
vn -0.001483917 1 0.001552582
vn -0.001596451 1 0.001455307
vn -0.002063751 1 0.0005235672
vn -0.002029419 1 0.0006809235
vn -0.002149582 1 4.893541E-05
vn -0.002145767 1 4.36306E-05
vn -0.002145767 1 -2.068281E-05
vn -0.002147675 1 -2.324581E-05
vn -0.002058029 1 -0.0005125999
vn -0.002027512 1 -0.0006732941
vn -0.00147438 1 -0.001536369
vn -0.001581192 1 -0.001436234
vn -0.001110077 1 -0.001851082
vn -0.001104355 1 -0.001851082
vn -0.001051903 1 -0.001879692
vn -0.001049995 1 -0.001883507
vn -0.0005879402 1 -0.002048492
vn -0.0004382133 1 -0.002101898
vn 0.0005807877 1 -0.002046585
vn 0.000430584 1 -0.002092361
vn 0.001023293 1 -0.001885414
vn 0.001027107 1 -0.001880646
vn 0.001074791 1 -0.001851082
vn 0.001076698 1 -0.001852036
vn 0.001450539 1 -0.001527786
vn 0.001562119 1 -0.001431465
vn 0.002029419 1 -0.0005068779
vn 0.001993179 1 -0.0006632805
vn 0.00211525 1 -1.603365E-05
vn 0.002128601 1 -4.786253E-05
vn 0.00214386 1 3.46303E-05
vn 0.002168655 1 -2.741814E-06
vn 0.001815796 1 0.0004429817
vn 0.001896858 1 -1.454353E-05
vn 0.001874924 1 2.110004E-05
vn 0.001789093 1 0.0005879402
vn 0.001292229 1 0.001361847
vn 0.001389503 1 0.001270294
vn 0.0008530617 1 0.001721382
vn 0.0008583069 1 0.001712799
vn 0.000805378 1 0.00176239
vn 0.0008182526 1 0.001757622
vn 0.0005354881 1 0.00184536
vn 0.0004091263 1 0.001891136
vn -0.0005068779 1 0.001826286
vn -0.0003650188 1 0.001871109
vn -0.0009155273 1 0.001678467
vn -0.0009198189 1 0.001672745
vn -0.0009527206 1 0.001651764
vn -0.0009541512 1 0.001653671
vn -0.00128746 1 0.001364708
vn -0.00138855 1 0.00127697
vn -0.001806259 1 0.0004446507
vn -0.001774788 1 0.0005869865
vn -0.001880646 1 3.308058E-05
vn -0.001878738 1 2.688169E-05
vn -0.001876831 1 -9.179115E-06
vn -0.001878738 1 -9.834766E-06
vn -0.001800537 1 -0.0004360676
vn -0.001774788 1 -0.000579834
vn -0.001279831 1 -0.001350403
vn -0.001376152 1 -0.001260757
vn -0.0009627342 1 -0.001624107
vn -0.0009555817 1 -0.001625061
vn -0.0009274483 1 -0.001639366
vn -0.0009279251 1 -0.001642227
vn -0.0005254745 1 -0.001785278
vn -0.0003905296 1 -0.001833916
vn 0.0005192757 1 -0.001783371
vn 0.0003843307 1 -0.001826286
vn 0.0009040833 1 -0.001645088
vn 0.0009088516 1 -0.001639366
vn 0.0009322166 1 -0.001624107
vn 0.0009331703 1 -0.001626015
vn 0.00125885 1 -0.001342773
vn 0.001358986 1 -0.001255989
vn 0.001774788 1 -0.0004303455
vn 0.001743317 1 -0.0005712509
vn 0.001849174 1 -3.457069E-06
vn 0.001862526 1 -3.141165E-05
vn 0.001874924 1 2.110004E-05
vn 0.001896858 1 -1.454353E-05
g Cloud-01_0
f 3/3/3 2/2/2 1/1/1
f 6/6/6 5/5/5 4/4/4
f 9/9/9 8/8/8 7/7/7
f 12/12/12 11/11/11 10/10/10
f 12/12/12 13/13/13 11/11/11
f 13/13/13 14/14/14 11/11/11
f 15/15/15 11/11/11 14/14/14
f 16/16/16 13/13/13 12/12/12
f 17/17/17 16/16/16 12/12/12
f 14/14/14 18/18/18 15/15/15
f 19/19/19 15/15/15 18/18/18
f 18/18/18 20/20/20 19/19/19
f 21/21/21 19/19/19 20/20/20
f 21/21/21 20/20/20 22/22/22
f 22/22/22 23/23/23 21/21/21
f 22/22/22 24/24/24 23/23/23
f 24/24/24 22/22/22 25/25/25
f 24/24/24 25/25/25 26/26/26
f 27/27/27 22/22/22 20/20/20
f 27/27/27 25/25/25 22/22/22
f 20/20/20 18/18/18 28/28/28
f 20/20/20 28/28/28 27/27/27
f 18/18/18 14/14/14 29/29/29
f 29/29/29 28/28/28 18/18/18
f 30/30/30 27/27/27 28/28/28
f 27/27/27 30/30/30 25/25/25
f 28/28/28 29/29/29 31/31/31
f 28/28/28 31/31/31 30/30/30
f 32/32/32 26/26/26 25/25/25
f 33/33/33 25/25/25 30/30/30
f 25/25/25 33/33/33 32/32/32
f 34/34/34 30/30/30 31/31/31
f 30/30/30 34/34/34 33/33/33
f 32/32/32 35/35/35 26/26/26
f 36/36/36 26/26/26 35/35/35
f 35/35/35 37/37/37 36/36/36
f 38/38/38 36/36/36 37/37/37
f 37/37/37 39/39/39 38/38/38
f 40/40/40 38/38/38 39/39/39
f 39/39/39 41/41/41 40/40/40
f 42/42/42 40/40/40 41/41/41
f 41/41/41 43/43/43 42/42/42
f 44/44/44 42/42/42 43/43/43
f 43/43/43 41/41/41 45/45/45
f 46/46/46 45/45/45 41/41/41
f 41/41/41 39/39/39 46/46/46
f 45/45/45 46/46/46 47/47/47
f 39/39/39 37/37/37 48/48/48
f 48/48/48 46/46/46 39/39/39
f 49/49/49 47/47/47 46/46/46
f 46/46/46 48/48/48 49/49/49
f 47/47/47 49/49/49 50/50/50
f 37/37/37 35/35/35 51/51/51
f 51/51/51 48/48/48 37/37/37
f 52/52/52 50/50/50 49/49/49
f 50/50/50 52/52/52 53/53/53
f 54/54/54 49/49/49 48/48/48
f 48/48/48 51/51/51 54/54/54
f 49/49/49 54/54/54 52/52/52
f 55/55/55 51/51/51 35/35/35
f 35/35/35 32/32/32 55/55/55
f 56/56/56 53/53/53 52/52/52
f 53/53/53 56/56/56 57/57/57
f 58/58/58 54/54/54 51/51/51
f 51/51/51 55/55/55 58/58/58
f 59/59/59 52/52/52 54/54/54
f 52/52/52 59/59/59 56/56/56
f 54/54/54 58/58/58 59/59/59
f 60/60/60 57/57/57 56/56/56
f 57/57/57 60/60/60 61/61/61
f 62/62/62 56/56/56 59/59/59
f 56/56/56 62/62/62 60/60/60
f 63/63/63 59/59/59 58/58/58
f 59/59/59 63/63/63 62/62/62
f 64/64/64 61/61/61 60/60/60
f 61/61/61 64/64/64 65/65/65
f 66/66/66 60/60/60 62/62/62
f 60/60/60 66/66/66 64/64/64
f 67/67/67 65/65/65 64/64/64
f 65/65/65 67/67/67 68/68/68
f 58/58/58 69/69/69 63/63/63
f 69/69/69 58/58/58 55/55/55
f 70/70/70 62/62/62 63/63/63
f 62/62/62 70/70/70 66/66/66
f 71/71/71 64/64/64 66/66/66
f 64/64/64 71/71/71 67/67/67
f 72/72/72 68/68/68 67/67/67
f 68/68/68 72/72/72 73/73/73
f 74/74/74 63/63/63 69/69/69
f 63/63/63 74/74/74 70/70/70
f 69/69/69 55/55/55 75/75/75
f 69/69/69 75/75/75 74/74/74
f 76/76/76 66/66/66 70/70/70
f 66/66/66 76/76/76 71/71/71
f 77/77/77 67/67/67 71/71/71
f 67/67/67 77/77/77 72/72/72
f 78/78/78 73/73/73 72/72/72
f 73/73/73 78/78/78 79/79/79
f 80/80/80 70/70/70 74/74/74
f 70/70/70 80/80/80 76/76/76
f 81/81/81 71/71/71 76/76/76
f 71/71/71 81/81/81 77/77/77
f 82/82/82 72/72/72 77/77/77
f 72/72/72 82/82/82 78/78/78
f 83/83/83 79/79/79 78/78/78
f 79/79/79 83/83/83 84/84/84
f 85/85/85 84/84/84 83/83/83
f 78/78/78 86/86/86 83/83/83
f 86/86/86 78/78/78 82/82/82
f 83/83/83 87/87/87 85/85/85
f 87/87/87 83/83/83 86/86/86
f 88/88/88 85/85/85 87/87/87
f 77/77/77 89/89/89 82/82/82
f 89/89/89 77/77/77 81/81/81
f 76/76/76 90/90/90 81/81/81
f 90/90/90 76/76/76 80/80/80
f 82/82/82 91/91/91 86/86/86
f 91/91/91 82/82/82 89/89/89
f 87/87/87 92/92/92 88/88/88
f 93/93/93 88/88/88 92/92/92
f 86/86/86 94/94/94 87/87/87
f 94/94/94 86/86/86 91/91/91
f 92/92/92 87/87/87 94/94/94
f 81/81/81 95/95/95 89/89/89
f 95/95/95 81/81/81 90/90/90
f 92/92/92 96/96/96 93/93/93
f 97/97/97 93/93/93 96/96/96
f 89/89/89 98/98/98 91/91/91
f 98/98/98 89/89/89 95/95/95
f 94/94/94 99/99/99 92/92/92
f 96/96/96 92/92/92 99/99/99
f 96/96/96 100/100/100 97/97/97
f 96/96/96 99/99/99 100/100/100
f 101/101/101 97/97/97 100/100/100
f 101/101/101 100/100/100 102/102/102
f 91/91/91 103/103/103 94/94/94
f 103/103/103 91/91/91 98/98/98
f 99/99/99 94/94/94 103/103/103
f 95/95/95 104/104/104 98/98/98
f 95/95/95 90/90/90 104/104/104
f 105/105/105 102/102/102 100/100/100
f 102/102/102 105/105/105 106/106/106
f 98/98/98 107/107/107 103/103/103
f 107/107/107 98/98/98 104/104/104
f 108/108/108 100/100/100 99/99/99
f 100/100/100 108/108/108 105/105/105
f 103/103/103 109/109/109 99/99/99
f 108/108/108 99/99/99 109/109/109
f 109/109/109 103/103/103 107/107/107
f 110/110/110 106/106/106 105/105/105
f 106/106/106 110/110/110 111/111/111
f 112/112/112 105/105/105 108/108/108
f 108/108/108 109/109/109 112/112/112
f 105/105/105 112/112/112 110/110/110
f 109/109/109 107/107/107 113/113/113
f 113/113/113 112/112/112 109/109/109
f 114/114/114 110/110/110 112/112/112
f 112/112/112 113/113/113 114/114/114
f 115/115/115 111/111/111 110/110/110
f 110/110/110 114/114/114 115/115/115
f 107/107/107 104/104/104 116/116/116
f 116/116/116 113/113/113 107/107/107
f 115/115/115 117/117/117 111/111/111
f 118/118/118 111/111/111 117/117/117
f 117/117/117 119/119/119 118/118/118
f 120/120/120 115/115/115 114/114/114
f 121/121/121 114/114/114 113/113/113
f 114/114/114 121/121/121 120/120/120
f 116/116/116 122/122/122 113/113/113
f 121/121/121 113/113/113 122/122/122
f 123/123/123 116/116/116 104/104/104
f 116/116/116 123/123/123 122/122/122
f 117/117/117 115/115/115 124/124/124
f 120/120/120 124/124/124 115/115/115
f 119/119/119 117/117/117 125/125/125
f 124/124/124 125/125/125 117/117/117
f 126/126/126 120/120/120 121/121/121
f 121/121/121 122/122/122 126/126/126
f 124/124/124 120/120/120 127/127/127
f 126/126/126 127/127/127 120/120/120
f 104/104/104 128/128/128 123/123/123
f 128/128/128 104/104/104 90/90/90
f 128/128/128 90/90/90 129/129/129
f 80/80/80 129/129/129 90/90/90
f 130/130/130 123/123/123 128/128/128
f 128/128/128 129/129/129 130/130/130
f 131/131/131 122/122/122 123/123/123
f 123/123/123 130/130/130 131/131/131
f 132/132/132 126/126/126 122/122/122
f 122/122/122 131/131/131 132/132/132
f 129/129/129 80/80/80 133/133/133
f 74/74/74 133/133/133 80/80/80
f 133/133/133 74/74/74 75/75/75
f 134/134/134 130/130/130 129/129/129
f 129/129/129 133/133/133 134/134/134
f 135/135/135 131/131/131 130/130/130
f 130/130/130 134/134/134 135/135/135
f 132/132/132 136/136/136 126/126/126
f 127/127/127 126/126/126 136/136/136
f 137/137/137 132/132/132 131/131/131
f 131/131/131 135/135/135 137/137/137
f 133/133/133 75/75/75 138/138/138
f 138/138/138 134/134/134 133/133/133
f 136/136/136 132/132/132 139/139/139
f 137/137/137 139/139/139 132/132/132
f 136/136/136 140/140/140 127/127/127
f 139/139/139 141/141/141 136/136/136
f 140/140/140 136/136/136 141/141/141
f 142/142/142 127/127/127 140/140/140
f 127/127/127 142/142/142 124/124/124
f 125/125/125 124/124/124 142/142/142
f 143/143/143 137/137/137 135/135/135
f 144/144/144 135/135/135 134/134/134
f 135/135/135 144/144/144 143/143/143
f 138/138/138 145/145/145 134/134/134
f 144/144/144 134/134/134 145/145/145
f 139/139/139 137/137/137 146/146/146
f 143/143/143 146/146/146 137/137/137
f 141/141/141 139/139/139 147/147/147
f 146/146/146 147/147/147 139/139/139
f 141/141/141 148/148/148 140/140/140
f 141/141/141 147/147/147 148/148/148
f 149/149/149 143/143/143 144/144/144
f 144/144/144 145/145/145 149/149/149
f 146/146/146 143/143/143 150/150/150
f 149/149/149 150/150/150 143/143/143
f 138/138/138 151/151/151 145/145/145
f 151/151/151 138/138/138 75/75/75
f 152/152/152 140/140/140 148/148/148
f 152/152/152 148/148/148 153/153/153
f 140/140/140 152/152/152 142/142/142
f 153/153/153 142/142/142 152/152/152
f 148/148/148 154/154/154 153/153/153
f 150/150/150 155/155/155 146/146/146
f 147/147/147 146/146/146 155/155/155
f 156/156/156 148/148/148 147/147/147
f 156/156/156 147/147/147 157/157/157
f 155/155/155 157/157/157 147/147/147
f 75/75/75 158/158/158 151/151/151
f 158/158/158 75/75/75 55/55/55
f 158/158/158 55/55/55 32/32/32
f 158/158/158 32/32/32 33/33/33
f 33/33/33 151/151/151 158/158/158
f 151/151/151 33/33/33 34/34/34
f 34/34/34 145/145/145 151/151/151
f 145/145/145 34/34/34 159/159/159
f 159/159/159 149/149/149 145/145/145
f 31/31/31 159/159/159 34/34/34
f 159/159/159 160/160/160 149/149/149
f 150/150/150 149/149/149 160/160/160
f 31/31/31 161/161/161 159/159/159
f 160/160/160 159/159/159 161/161/161
f 161/161/161 31/31/31 29/29/29
f 155/155/155 150/150/150 162/162/162
f 160/160/160 162/162/162 150/150/150
f 29/29/29 163/163/163 161/161/161
f 163/163/163 29/29/29 14/14/14
f 161/161/161 164/164/164 160/160/160
f 162/162/162 160/160/160 164/164/164
f 164/164/164 161/161/161 163/163/163
f 163/163/163 14/14/14 165/165/165
f 13/13/13 165/165/165 14/14/14
f 165/165/165 166/166/166 163/163/163
f 164/164/164 163/163/163 166/166/166
f 164/164/164 166/166/166 162/162/162
f 162/162/162 167/167/167 155/155/155
f 167/167/167 162/162/162 166/166/166
f 157/157/157 155/155/155 167/167/167
f 167/167/167 166/166/166 157/157/157
f 166/166/166 168/168/168 157/157/157
f 169/169/169 13/13/13 16/16/16
f 153/153/153 13/13/13 169/169/169
f 170/170/170 169/169/169 16/16/16
f 171/171/171 170/170/170 16/16/16
f 172/172/172 153/153/153 169/169/169
f 173/173/173 172/172/172 169/169/169
f 174/174/174 173/173/173 169/169/169
f 175/175/175 153/153/153 172/172/172
f 176/176/176 175/175/175 172/172/172
f 175/175/175 176/176/176 119/119/119
f 119/119/119 125/125/125 175/175/175
f 177/177/177 153/153/153 175/175/175
f 177/177/177 175/175/175 125/125/125
f 153/153/153 177/177/177 142/142/142
f 125/125/125 142/142/142 177/177/177
f 180/180/180 179/179/179 178/178/178
f 180/180/180 181/181/181 179/179/179
f 182/182/182 179/179/179 181/181/181
f 181/181/181 183/183/183 182/182/182
f 179/179/179 182/182/182 184/184/184
f 179/179/179 184/184/184 185/185/185
f 186/186/186 185/185/185 184/184/184
f 187/187/187 182/182/182 183/183/183
f 187/187/187 183/183/183 188/188/188
f 184/184/184 189/189/189 186/186/186
f 190/190/190 186/186/186 189/189/189
f 190/190/190 189/189/189 191/191/191
f 192/192/192 184/184/184 182/182/182
f 182/182/182 187/187/187 192/192/192
f 184/184/184 192/192/192 189/189/189
f 193/193/193 191/191/191 189/189/189
f 194/194/194 189/189/189 192/192/192
f 189/189/189 194/194/194 193/193/193
f 195/195/195 192/192/192 187/187/187
f 192/192/192 195/195/195 194/194/194
f 193/193/193 196/196/196 191/191/191
f 197/197/197 191/191/191 196/196/196
f 198/198/198 193/193/193 194/194/194
f 193/193/193 198/198/198 196/196/196
f 188/188/188 199/199/199 187/187/187
f 195/195/195 187/187/187 199/199/199
f 200/200/200 194/194/194 195/195/195
f 194/194/194 200/200/200 198/198/198
f 199/199/199 201/201/201 195/195/195
f 200/200/200 195/195/195 201/201/201
f 196/196/196 202/202/202 197/197/197
f 203/203/203 196/196/196 198/198/198
f 196/196/196 203/203/203 202/202/202
f 204/204/204 198/198/198 200/200/200
f 198/198/198 204/204/204 203/203/203
f 201/201/201 205/205/205 200/200/200
f 204/204/204 200/200/200 205/205/205
f 201/201/201 199/199/199 206/206/206
f 201/201/201 206/206/206 205/205/205
f 199/199/199 188/188/188 207/207/207
f 207/207/207 206/206/206 199/199/199
f 208/208/208 197/197/197 202/202/202
f 208/208/208 209/209/209 197/197/197
f 209/209/209 208/208/208 210/210/210
f 202/202/202 210/210/210 208/208/208
f 209/209/209 210/210/210 211/211/211
f 212/212/212 202/202/202 203/203/203
f 202/202/202 212/212/212 210/210/210
f 213/213/213 203/203/203 204/204/204
f 203/203/203 213/213/213 212/212/212
f 205/205/205 214/214/214 204/204/204
f 213/213/213 204/204/204 214/214/214
f 215/215/215 207/207/207 188/188/188
f 215/215/215 188/188/188 216/216/216
f 215/215/215 216/216/216 217/217/217
f 218/218/218 217/217/217 216/216/216
f 218/218/218 219/219/219 217/217/217
f 207/207/207 215/215/215 220/220/220
f 217/217/217 220/220/220 215/215/215
f 221/221/221 217/217/217 219/219/219
f 219/219/219 222/222/222 221/221/221
f 220/220/220 223/223/223 207/207/207
f 206/206/206 207/207/207 223/223/223
f 220/220/220 217/217/217 224/224/224
f 221/221/221 224/224/224 217/217/217
f 220/220/220 224/224/224 223/223/223
f 225/225/225 221/221/221 222/222/222
f 221/221/221 225/225/225 224/224/224
f 222/222/222 226/226/226 225/225/225
f 227/227/227 225/225/225 226/226/226
f 226/226/226 228/228/228 227/227/227
f 229/229/229 224/224/224 225/225/225
f 225/225/225 227/227/227 229/229/229
f 230/230/230 223/223/223 224/224/224
f 224/224/224 229/229/229 230/230/230
f 223/223/223 231/231/231 206/206/206
f 223/223/223 230/230/230 231/231/231
f 232/232/232 227/227/227 228/228/228
f 228/228/228 233/233/233 232/232/232
f 234/234/234 232/232/232 233/233/233
f 235/235/235 229/229/229 227/227/227
f 227/227/227 232/232/232 235/235/235
f 232/232/232 234/234/234 236/236/236
f 236/236/236 235/235/235 232/232/232
f 237/237/237 236/236/236 234/234/234
f 238/238/238 230/230/230 229/229/229
f 229/229/229 235/235/235 238/238/238
f 236/236/236 237/237/237 239/239/239
f 240/240/240 239/239/239 237/237/237
f 235/235/235 236/236/236 241/241/241
f 241/241/241 238/238/238 235/235/235
f 239/239/239 241/241/241 236/236/236
f 230/230/230 238/238/238 242/242/242
f 242/242/242 231/231/231 230/230/230
f 239/239/239 240/240/240 243/243/243
f 244/244/244 243/243/243 240/240/240
f 238/238/238 241/241/241 245/245/245
f 245/245/245 242/242/242 238/238/238
f 241/241/241 239/239/239 246/246/246
f 243/243/243 246/246/246 239/239/239
f 246/246/246 245/245/245 241/241/241
f 243/243/243 244/244/244 247/247/247
f 248/248/248 247/247/247 244/244/244
f 246/246/246 243/243/243 249/249/249
f 247/247/247 249/249/249 243/243/243
f 245/245/245 246/246/246 250/250/250
f 249/249/249 250/250/250 246/246/246
f 242/242/242 245/245/245 251/251/251
f 250/250/250 251/251/251 245/245/245
f 231/231/231 242/242/242 252/252/252
f 251/251/251 252/252/252 242/242/242
f 247/247/247 248/248/248 253/253/253
f 254/254/254 253/253/253 248/248/248
f 249/249/249 247/247/247 255/255/255
f 253/253/253 255/255/255 247/247/247
f 251/251/251 250/250/250 256/256/256
f 251/251/251 256/256/256 252/252/252
f 250/250/250 249/249/249 257/257/257
f 255/255/255 257/257/257 249/249/249
f 257/257/257 256/256/256 250/250/250
f 253/253/253 254/254/254 258/258/258
f 259/259/259 258/258/258 254/254/254
f 255/255/255 253/253/253 260/260/260
f 258/258/258 260/260/260 253/253/253
f 257/257/257 255/255/255 261/261/261
f 260/260/260 261/261/261 255/255/255
f 258/258/258 259/259/259 262/262/262
f 263/263/263 262/262/262 259/259/259
f 260/260/260 258/258/258 264/264/264
f 262/262/262 264/264/264 258/258/258
f 262/262/262 263/263/263 265/265/265
f 266/266/266 265/265/265 263/263/263
f 256/256/256 257/257/257 267/267/267
f 261/261/261 267/267/267 257/257/257
f 261/261/261 260/260/260 268/268/268
f 264/264/264 268/268/268 260/260/260
f 264/264/264 262/262/262 269/269/269
f 265/265/265 269/269/269 262/262/262
f 265/265/265 266/266/266 270/270/270
f 271/271/271 270/270/270 266/266/266
f 267/267/267 261/261/261 272/272/272
f 268/268/268 272/272/272 261/261/261
f 268/268/268 264/264/264 273/273/273
f 269/269/269 273/273/273 264/264/264
f 269/269/269 265/265/265 274/274/274
f 270/270/270 274/274/274 265/265/265
f 270/270/270 271/271/271 275/275/275
f 276/276/276 275/275/275 271/271/271
f 275/275/275 276/276/276 277/277/277
f 278/278/278 277/277/277 276/276/276
f 277/277/277 279/279/279 275/275/275
f 275/275/275 280/280/280 270/270/270
f 280/280/280 275/275/275 279/279/279
f 274/274/274 270/270/270 280/280/280
f 279/279/279 281/281/281 280/280/280
f 282/282/282 280/280/280 281/281/281
f 280/280/280 282/282/282 274/274/274
f 281/281/281 283/283/283 282/282/282
f 274/274/274 284/284/284 269/269/269
f 284/284/284 274/274/274 282/282/282
f 273/273/273 269/269/269 284/284/284
f 285/285/285 282/282/282 283/283/283
f 282/282/282 285/285/285 284/284/284
f 283/283/283 286/286/286 285/285/285
f 284/284/284 287/287/287 273/273/273
f 287/287/287 284/284/284 285/285/285
f 288/288/288 285/285/285 286/286/286
f 285/285/285 288/288/288 287/287/287
f 289/289/289 273/273/273 287/287/287
f 273/273/273 289/289/289 268/268/268
f 272/272/272 268/268/268 289/289/289
f 289/289/289 287/287/287 290/290/290
f 289/289/289 290/290/290 272/272/272
f 288/288/288 286/286/286 291/291/291
f 292/292/292 291/291/291 286/286/286
f 292/292/292 293/293/293 291/291/291
f 294/294/294 287/287/287 288/288/288
f 294/294/294 290/290/290 287/287/287
f 294/294/294 288/288/288 295/295/295
f 291/291/291 295/295/295 288/288/288
f 296/296/296 272/272/272 290/290/290
f 272/272/272 296/296/296 267/267/267
f 290/290/290 294/294/294 297/297/297
f 295/295/295 297/297/297 294/294/294
f 298/298/298 267/267/267 296/296/296
f 267/267/267 298/298/298 256/256/256
f 296/296/296 290/290/290 299/299/299
f 297/297/297 299/299/299 290/290/290
f 299/299/299 300/300/300 296/296/296
f 298/298/298 296/296/296 300/300/300
f 301/301/301 256/256/256 298/298/298
f 301/301/301 252/252/252 256/256/256
f 299/299/299 297/297/297 302/302/302
f 299/299/299 302/302/302 300/300/300
f 297/297/297 295/295/295 303/303/303
f 303/303/303 302/302/302 297/297/297
f 295/295/295 291/291/291 304/304/304
f 304/304/304 303/303/303 295/295/295
f 301/301/301 298/298/298 305/305/305
f 300/300/300 305/305/305 298/298/298
f 252/252/252 301/301/301 306/306/306
f 305/305/305 306/306/306 301/301/301
f 306/306/306 307/307/307 252/252/252
f 231/231/231 252/252/252 307/307/307
f 307/307/307 206/206/206 231/231/231
f 307/307/307 205/205/205 206/206/206
f 205/205/205 307/307/307 214/214/214
f 306/306/306 214/214/214 307/307/307
f 306/306/306 305/305/305 214/214/214
f 308/308/308 214/214/214 305/305/305
f 305/305/305 300/300/300 308/308/308
f 214/214/214 308/308/308 213/213/213
f 309/309/309 308/308/308 300/300/300
f 309/309/309 300/300/300 302/302/302
f 310/310/310 213/213/213 308/308/308
f 308/308/308 309/309/309 310/310/310
f 310/310/310 212/212/212 213/213/213
f 309/309/309 302/302/302 311/311/311
f 311/311/311 310/310/310 309/309/309
f 212/212/212 310/310/310 312/312/312
f 311/311/311 312/312/312 310/310/310
f 312/312/312 210/210/210 212/212/212
f 313/313/313 311/311/311 302/302/302
f 302/302/302 303/303/303 313/313/313
f 210/210/210 312/312/312 314/314/314
f 314/314/314 211/211/211 210/210/210
f 312/312/312 311/311/311 315/315/315
f 315/315/315 314/314/314 312/312/312
f 313/313/313 315/315/315 311/311/311
f 314/314/314 316/316/316 211/211/211
f 314/314/314 315/315/315 316/316/316
f 317/317/317 211/211/211 316/316/316
f 318/318/318 313/313/313 303/303/303
f 303/303/303 304/304/304 318/318/318
f 315/315/315 313/313/313 319/319/319
f 319/319/319 316/316/316 315/315/315
f 318/318/318 319/319/319 313/313/313
f 316/316/316 320/320/320 317/317/317
f 316/316/316 319/319/319 320/320/320
f 319/319/319 318/318/318 321/321/321
f 321/321/321 320/320/320 319/319/319
f 322/322/322 318/318/318 304/304/304
f 322/322/322 321/321/321 318/318/318
f 323/323/323 317/317/317 320/320/320
f 323/323/323 324/324/324 317/317/317
f 320/320/320 325/325/325 323/323/323
f 324/324/324 323/323/323 325/325/325
f 320/320/320 321/321/321 325/325/325
f 324/324/324 325/325/325 326/326/326
f 327/327/327 325/325/325 321/321/321
f 321/321/321 322/322/322 327/327/327
f 328/328/328 326/326/326 325/325/325
f 325/325/325 327/327/327 328/328/328
f 328/328/328 329/329/329 326/326/326
f 328/328/328 330/330/330 329/329/329
f 330/330/330 328/328/328 327/327/327
f 327/327/327 331/331/331 330/330/330
f 331/331/331 327/327/327 322/322/322
f 332/332/332 330/330/330 331/331/331
f 332/332/332 331/331/331 293/293/293
f 331/331/331 322/322/322 333/333/333
f 333/333/333 293/293/293 331/331/331
f 304/304/304 333/333/333 322/322/322
f 333/333/333 291/291/291 293/293/293
f 333/333/333 304/304/304 291/291/291
f 336/336/336 335/335/335 334/334/334
f 337/337/337 334/334/334 335/335/335
f 334/334/334 337/337/337 338/338/338
f 339/339/339 338/338/338 337/337/337
f 338/338/338 339/339/339 340/340/340
f 341/341/341 340/340/340 339/339/339
f 340/340/340 341/341/341 342/342/342
f 343/343/343 342/342/342 341/341/341
f 342/342/342 343/343/343 344/344/344
f 345/345/345 344/344/344 343/343/343
f 344/344/344 345/345/345 346/346/346
f 347/347/347 346/346/346 345/345/345
f 346/346/346 347/347/347 348/348/348
f 349/349/349 348/348/348 347/347/347
f 348/348/348 349/349/349 350/350/350
f 351/351/351 350/350/350 349/349/349
f 350/350/350 351/351/351 352/352/352
f 353/353/353 352/352/352 351/351/351
f 352/352/352 353/353/353 354/354/354
f 355/355/355 354/354/354 353/353/353
f 354/354/354 355/355/355 356/356/356
f 357/357/357 356/356/356 355/355/355
f 356/356/356 357/357/357 358/358/358
f 359/359/359 358/358/358 357/357/357
f 358/358/358 359/359/359 360/360/360
f 361/361/361 360/360/360 359/359/359
f 360/360/360 361/361/361 362/362/362
f 363/363/363 362/362/362 361/361/361
f 362/362/362 363/363/363 364/364/364
f 365/365/365 364/364/364 363/363/363
f 364/364/364 365/365/365 366/366/366
f 367/367/367 366/366/366 365/365/365
f 366/366/366 367/367/367 368/368/368
f 369/369/369 368/368/368 367/367/367
f 368/368/368 369/369/369 370/370/370
f 371/371/371 370/370/370 369/369/369
f 370/370/370 371/371/371 372/372/372
f 373/373/373 372/372/372 371/371/371
f 372/372/372 373/373/373 374/374/374
f 375/375/375 374/374/374 373/373/373
f 374/374/374 375/375/375 376/376/376
f 377/377/377 376/376/376 375/375/375
f 376/376/376 377/377/377 378/378/378
f 379/379/379 378/378/378 377/377/377
f 378/378/378 379/379/379 380/380/380
f 381/381/381 380/380/380 379/379/379
f 380/380/380 381/381/381 382/382/382
f 383/383/383 382/382/382 381/381/381
f 386/386/386 385/385/385 384/384/384
f 387/387/387 384/384/384 385/385/385
f 384/384/384 387/387/387 388/388/388
f 389/389/389 388/388/388 387/387/387
f 388/388/388 389/389/389 390/390/390
f 391/391/391 390/390/390 389/389/389
f 390/390/390 391/391/391 392/392/392
f 393/393/393 392/392/392 391/391/391
f 392/392/392 393/393/393 394/394/394
f 395/395/395 394/394/394 393/393/393
f 394/394/394 395/395/395 396/396/396
f 397/397/397 396/396/396 395/395/395
f 396/396/396 397/397/397 398/398/398
f 399/399/399 398/398/398 397/397/397
f 398/398/398 399/399/399 400/400/400
f 401/401/401 400/400/400 399/399/399
f 400/400/400 401/401/401 402/402/402
f 403/403/403 402/402/402 401/401/401
f 402/402/402 403/403/403 404/404/404
f 405/405/405 404/404/404 403/403/403
f 404/404/404 405/405/405 406/406/406
f 407/407/407 406/406/406 405/405/405
f 406/406/406 407/407/407 408/408/408
f 409/409/409 408/408/408 407/407/407
f 408/408/408 409/409/409 410/410/410
f 411/411/411 410/410/410 409/409/409
f 410/410/410 411/411/411 412/412/412
f 413/413/413 412/412/412 411/411/411
f 412/412/412 413/413/413 414/414/414
f 415/415/415 414/414/414 413/413/413
f 414/414/414 415/415/415 416/416/416
f 417/417/417 416/416/416 415/415/415
f 416/416/416 417/417/417 418/418/418
f 419/419/419 418/418/418 417/417/417
f 418/418/418 419/419/419 420/420/420
f 421/421/421 420/420/420 419/419/419
f 420/420/420 421/421/421 422/422/422
f 423/423/423 422/422/422 421/421/421
f 422/422/422 423/423/423 424/424/424
f 425/425/425 424/424/424 423/423/423
f 424/424/424 425/425/425 426/426/426
f 427/427/427 426/426/426 425/425/425
f 426/426/426 427/427/427 428/428/428
f 429/429/429 428/428/428 427/427/427
f 428/428/428 429/429/429 430/430/430
f 431/431/431 430/430/430 429/429/429
f 430/430/430 431/431/431 432/432/432
f 433/433/433 432/432/432 431/431/431
