g CloudeBottomGlow
v -1.131041 -0.08109052 -0.1625232
v -0.9277459 -0.08139212 -0.04043038
v -1.169417 -0.08102307 -0.05572793
v -0.8992937 -0.08144318 -0.1196093
v -0.7088604 -0.08109128 -0.8849499
v -0.5548565 -0.0814424 -0.709003
v -0.6378354 -0.08102395 -0.9694351
v -0.5021343 -0.08139118 -0.7717168
v -0.5376205 -0.08099219 -1.028141
v -0.4301711 -0.08136766 -0.813873
v -0.4246876 -0.08105704 -1.048762
v -0.34646 -0.08141702 -0.829158
v 0.4202061 -0.08109043 -1.048912
v 0.3428469 -0.08144291 -0.8292806
v 0.5298488 -0.08102326 -1.030433
v 0.4242173 -0.08139161 -0.8155665
v 0.6313906 -0.0810234 -0.9739919
v 0.4971308 -0.0813916 -0.7750384
v 0.7058924 -0.08109097 -0.8877872
v 0.5523679 -0.08144271 -0.7111247
v 1.12858 -0.08109199 -0.1656506
v 0.8972188 -0.08144193 -0.1219678
v 1.167191 -0.0810247 -0.06267619
v 0.9258726 -0.08139072 -0.04554761
v 1.168447 -0.0810247 0.0523523
v 0.9267745 -0.08139049 0.03705113
v 1.130071 -0.08109207 0.1591474
v 0.8983219 -0.08144163 0.1162299
v 0.7078907 -0.08109301 0.8815734
v 0.5538853 -0.08144093 0.7056228
v 0.6368571 -0.08102599 0.9660687
v 0.5011694 -0.08138973 0.7683291
v 0.5365712 -0.08102614 1.024657
v 0.4291576 -0.0813897 0.8103992
v 0.423693 -0.08109356 1.045247
v 0.3454683 -0.08144075 0.8256648
v -0.4211743 -0.08109448 1.045536
v -0.3438195 -0.08143997 0.8259009
v -0.5308188 -0.08102731 1.027057
v -0.4251887 -0.08138876 0.8121872
v -0.6323609 -0.08102724 0.9706162
v -0.4981025 -0.08138861 0.771659
v -0.7068627 -0.08109464 0.8844115
v -0.5533396 -0.08143961 0.7077454
v -1.129551 -0.0810954 0.1622749
v -0.8981908 -0.08143885 0.1185885
v -1.168161 -0.08102819 0.05930065
v -0.9268445 -0.08138755 0.04216828
v -1.169417 -0.08102307 -0.05572793
v -0.9277459 -0.08139212 -0.04043038
v -0.9268445 -0.08138755 0.04216828
v -0.5533396 -0.08143961 0.7077454
v -0.8981908 -0.08143885 0.1185885
v -0.8992937 -0.08144318 -0.1196093
v -0.9277459 -0.08139212 -0.04043038
v 0.3454683 -0.08144075 0.8256648
v -0.4251887 -0.08138876 0.8121872
v -0.4981025 -0.08138861 0.771659
v -0.3438195 -0.08143997 0.8259009
v 0.5523679 -0.08144271 -0.7111247
v 0.8983219 -0.08144163 0.1162299
v 0.5011694 -0.08138973 0.7683291
v 0.4291576 -0.0813897 0.8103992
v 0.5538853 -0.08144093 0.7056228
v 0.9258726 -0.08139072 -0.04554761
v 0.9267745 -0.08139049 0.03705113
v 0.8972188 -0.08144193 -0.1219678
v -0.34646 -0.08141702 -0.829158
v 0.4242173 -0.08139161 -0.8155665
v 0.4971308 -0.0813916 -0.7750384
v 0.3428469 -0.08144291 -0.8292806
v -0.5021343 -0.08139118 -0.7717168
v -0.4301711 -0.08136766 -0.813873
v -0.5548565 -0.0814424 -0.709003
vt 0.7202148 0.671875
vt 0.4504395 0.6665039
vt 0.7202148 0.6665039
vt 0.4504395 0.671875
vt 0.7202148 0.7119141
vt 0.4504395 0.7119141
vt 0.7202148 0.7167969
vt 0.4504395 0.7167969
vt 0.7202148 0.722168
vt 0.4504395 0.722168
vt 0.7202148 0.7275391
vt 0.4504395 0.7275391
vt 0.7202148 0.7675781
vt 0.4504395 0.7675781
vt 0.7202148 0.7724609
vt 0.4504395 0.7724609
vt 0.7202148 0.777832
vt 0.4504395 0.777832
vt 0.7202148 0.7832031
vt 0.4504395 0.7832031
vt 0.7202148 0.8232422
vt 0.4504395 0.8232422
vt 0.7202148 0.828125
vt 0.4504395 0.828125
vt 0.7202148 0.8334961
vt 0.4504395 0.8334961
vt 0.7202148 0.8383789
vt 0.4504395 0.8383789
vt 0.7202148 0.878418
vt 0.4504395 0.878418
vt 0.7202148 0.8837891
vt 0.4504395 0.8837891
vt 0.7202148 0.8886719
vt 0.4504395 0.8886719
vt 0.7202148 0.894043
vt 0.4504395 0.894043
vt 0.7202148 0.934082
vt 0.4504395 0.934082
vt 0.7202148 0.9394531
vt 0.4504395 0.9394531
vt 0.7202148 0.9443359
vt 0.4504395 0.9443359
vt 0.7202148 0.949707
vt 0.4504395 0.949707
vt 0.7202148 0.9897461
vt 0.4504395 0.9897461
vt 0.7202148 0.9946289
vt 0.4504395 0.9946289
vt 0.7202148 1
vt 0.4504395 1
vt 0.4504395 0.9946289
vt 0.4504395 0.949707
vt 0.4504395 0.9897461
vt 0.4504395 0.671875
vt 0.4504395 0.6665039
vt 0.4504395 0.894043
vt 0.4504395 0.9394531
vt 0.4504395 0.9443359
vt 0.4504395 0.934082
vt 0.4504395 0.7832031
vt 0.4504395 0.8383789
vt 0.4504395 0.8837891
vt 0.4504395 0.8886719
vt 0.4504395 0.878418
vt 0.4504395 0.828125
vt 0.4504395 0.8334961
vt 0.4504395 0.8232422
vt 0.4504395 0.7275391
vt 0.4504395 0.7724609
vt 0.4504395 0.777832
vt 0.4504395 0.7675781
vt 0.4504395 0.7167969
vt 0.4504395 0.722168
vt 0.4504395 0.7119141
vn 0.001466751 1 0.0002832413
vn 0.001534462 1 -8.106232E-05
vn 0.001514435 1 -3.385544E-05
vn 0.001442909 1 0.0004229546
vn 0.0009794235 1 0.001138687
vn 0.001074791 1 0.001051903
vn 0.0006170273 1 0.001436234
vn 0.0006165504 1 0.001432419
vn 0.0006728172 1 0.001416206
vn 0.0006947517 1 0.00140667
vn 0.000497818 1 0.001459122
vn 0.0003769398 1 0.001503944
vn -0.0004725456 1 0.001439095
vn -0.0003352165 1 0.001483917
vn -0.0007882118 1 0.001329422
vn -0.0008020401 1 0.001319885
vn -0.0007219315 1 0.001363754
vn -0.0007171631 1 0.001369476
vn -0.0009765625 1 0.001139641
vn -0.001074791 1 0.001055717
vn -0.001460075 1 0.0002822876
vn -0.001430511 1 0.000420332
vn -0.001521111 1 -2.992153E-05
vn -0.001519203 1 -4.589558E-05
vn -0.001517296 1 4.786253E-05
vn -0.001520157 1 5.632639E-05
vn -0.001454353 1 -0.0002777576
vn -0.001430511 1 -0.0004162788
vn -0.0009694099 1 -0.00112915
vn -0.001063347 1 -0.00104332
vn -0.0007295609 1 -0.00134182
vn -0.0007157326 1 -0.001348495
vn -0.0007967949 1 -0.001297951
vn -0.0008058548 1 -0.00129509
vn -0.0004882813 1 -0.001404762
vn -0.0003585815 1 -0.001452446
vn 0.0004854202 1 -0.001402855
vn 0.0003550053 1 -0.00144577
vn 0.0007791519 1 -0.001301765
vn 0.0007929802 1 -0.001292229
vn 0.000705719 1 -0.001339912
vn 0.0006999969 1 -0.001346588
vn 0.0009531975 1 -0.001121521
vn 0.001050949 1 -0.001038551
vn 0.001434326 1 -0.0002706051
vn 0.001404762 1 -0.0004074574
vn 0.001495361 1 5.859137E-05
vn 0.001507759 1 3.790855E-05
vn 0.001514435 1 -3.385544E-05
vn 0.001534462 1 -8.106232E-05
vn -0.003185272 1 0.001865387
vn -0.003185272 1 0.001865387
vn -0.003185272 1 0.001865387
vn -0.003181458 1 -0.001857758
vn 0.001591682 1 -7.277727E-05
vn 2.384186E-06 1 0.00371933
vn 0.00085783 1 -0.00153923
vn 0.00085783 1 -0.00153923
vn 2.384186E-06 1 0.00371933
vn 0.00317955 1 -0.001862526
vn 0.003181458 1 0.001857758
vn -0.000887394 1 -0.001520157
vn -0.000887394 1 -0.001520157
vn 0.003181458 1 0.001857758
vn -0.0017519 1 1.627207E-05
vn -0.0017519 1 1.627207E-05
vn 0.00317955 1 -0.001862526
vn 3.683567E-05 1 -0.003959656
vn -0.0008554459 1 0.00153923
vn -0.0008554459 1 0.00153923
vn 3.683567E-05 1 -0.003959656
vn 0.001004219 1 0.00227356
vn 0.001004219 1 0.00227356
vn -0.003181458 1 -0.001857758
g CloudeBottomGlow_0
f 3/3/3 2/2/2 1/1/1
f 4/4/4 1/1/1 2/2/2
f 1/1/1 4/4/4 5/5/5
f 6/6/6 5/5/5 4/4/4
f 5/5/5 6/6/6 7/7/7
f 8/8/8 7/7/7 6/6/6
f 7/7/7 8/8/8 9/9/9
f 10/10/10 9/9/9 8/8/8
f 9/9/9 10/10/10 11/11/11
f 12/12/12 11/11/11 10/10/10
f 11/11/11 12/12/12 13/13/13
f 14/14/14 13/13/13 12/12/12
f 13/13/13 14/14/14 15/15/15
f 16/16/16 15/15/15 14/14/14
f 15/15/15 16/16/16 17/17/17
f 18/18/18 17/17/17 16/16/16
f 17/17/17 18/18/18 19/19/19
f 20/20/20 19/19/19 18/18/18
f 19/19/19 20/20/20 21/21/21
f 22/22/22 21/21/21 20/20/20
f 21/21/21 22/22/22 23/23/23
f 24/24/24 23/23/23 22/22/22
f 23/23/23 24/24/24 25/25/25
f 26/26/26 25/25/25 24/24/24
f 25/25/25 26/26/26 27/27/27
f 28/28/28 27/27/27 26/26/26
f 27/27/27 28/28/28 29/29/29
f 30/30/30 29/29/29 28/28/28
f 29/29/29 30/30/30 31/31/31
f 32/32/32 31/31/31 30/30/30
f 31/31/31 32/32/32 33/33/33
f 34/34/34 33/33/33 32/32/32
f 33/33/33 34/34/34 35/35/35
f 36/36/36 35/35/35 34/34/34
f 35/35/35 36/36/36 37/37/37
f 38/38/38 37/37/37 36/36/36
f 37/37/37 38/38/38 39/39/39
f 40/40/40 39/39/39 38/38/38
f 39/39/39 40/40/40 41/41/41
f 42/42/42 41/41/41 40/40/40
f 41/41/41 42/42/42 43/43/43
f 44/44/44 43/43/43 42/42/42
f 43/43/43 44/44/44 45/45/45
f 46/46/46 45/45/45 44/44/44
f 45/45/45 46/46/46 47/47/47
f 48/48/48 47/47/47 46/46/46
f 47/47/47 48/48/48 49/49/49
f 50/50/50 49/49/49 48/48/48
f 53/53/53 52/52/52 51/51/51
f 52/52/52 54/54/54 51/51/51
f 51/51/51 54/54/54 55/55/55
f 56/56/56 54/54/54 52/52/52
f 57/57/57 56/56/56 52/52/52
f 58/58/58 57/57/57 52/52/52
f 59/59/59 56/56/56 57/57/57
f 60/60/60 54/54/54 56/56/56
f 61/61/61 60/60/60 56/56/56
f 62/62/62 61/61/61 56/56/56
f 63/63/63 62/62/62 56/56/56
f 64/64/64 61/61/61 62/62/62
f 65/65/65 60/60/60 61/61/61
f 66/66/66 65/65/65 61/61/61
f 67/67/67 60/60/60 65/65/65
f 68/68/68 54/54/54 60/60/60
f 69/69/69 68/68/68 60/60/60
f 70/70/70 69/69/69 60/60/60
f 71/71/71 68/68/68 69/69/69
f 72/72/72 54/54/54 68/68/68
f 73/73/73 72/72/72 68/68/68
f 74/74/74 54/54/54 72/72/72
