g Colosseum_Road
v -2.763858 2.647651E-08 3.563615
v -1.375952E-08 -8.890509E-07 1.366935E-06
v -2.006484 2.647651E-08 4.017383
v -3.391005 2.647651E-08 2.942163
v -1.189255 2.647651E-08 4.35153
v -3.917078 2.647651E-08 2.2331
v -0.3158841 2.647651E-08 4.480921
v -4.258668 2.647651E-08 1.418955
v 0.5670102 2.647651E-08 4.476894
v -4.473351 2.647651E-08 0.5625483
v 1.423416 2.647651E-08 4.262212
v -4.477377 2.647651E-08 -0.3203459
v 2.237563 2.647651E-08 3.920621
v -4.347986 2.647651E-08 -1.193717
v 2.946624 2.647651E-08 3.39455
v -4.013838 2.647651E-08 -2.010946
v 3.568076 2.647651E-08 2.767402
v -3.560071 2.647651E-08 -2.768319
v 4.021843 2.647651E-08 2.010028
v -2.938617 2.647651E-08 -3.395467
v 4.35599 2.647651E-08 1.192799
v -2.229558 2.647651E-08 -3.921539
v 4.485383 2.647651E-08 0.3194279
v -1.427331 2.647651E-08 -4.261763
v 4.481357 2.647651E-08 -0.563466
v -0.6632434 2.647651E-08 -4.465875
v 4.266672 2.647651E-08 -1.419871
v 0.311969 2.647651E-08 -4.480473
v 3.925084 2.647651E-08 -2.234018
v 1.19726 2.647651E-08 -4.352447
v 3.39901 2.647651E-08 -2.943078
v 2.014488 2.647651E-08 -4.018297
v 2.771863 2.647651E-08 -3.564531
vt 0.1602783 0.9521484
vt 0.1600342 0.953125
vt 0.1604004 0.9521484
vt 0.1600342 0.9521484
vt 0.1606445 0.9521484
vt 0.15979 0.9521484
vt 0.1608887 0.9521484
vt 0.159668 0.9521484
vt 0.1610107 0.9521484
vt 0.1594238 0.9521484
vt 0.1611328 0.9526367
vt 0.1593018 0.9521484
vt 0.1612549 0.9526367
vt 0.1591797 0.9526367
vt 0.1612549 0.9526367
vt 0.1590576 0.9526367
vt 0.1612549 0.953125
vt 0.1589355 0.9526367
vt 0.1612549 0.953125
vt 0.1589355 0.953125
vt 0.1611328 0.9536133
vt 0.1589355 0.953125
vt 0.1610107 0.9536133
vt 0.1589355 0.9536133
vt 0.1608887 0.9541016
vt 0.1590576 0.9536133
vt 0.1606445 0.9541016
vt 0.1591797 0.9536133
vt 0.1604004 0.9541016
vt 0.1594238 0.9541016
vt 0.1601563 0.9541016
vt 0.159668 0.9541016
vt 0.1599121 0.9541016
vn 0 1 -1.192093E-07
vn 0 1 0
vn 0 1 -1.788139E-07
vn 0 1 -1.192093E-07
vn 0 1 -1.788139E-07
vn 1.788139E-07 1 0
vn 0 1 -1.788139E-07
vn 2.384186E-07 1 0
vn 0 1 -1.788139E-07
vn 1.788139E-07 1 0
vn 0 1 -1.788139E-07
vn 1.788139E-07 1 0
vn 0 1 -1.192093E-07
vn 1.788139E-07 1 0
vn 0 1 -1.192093E-07
vn 1.788139E-07 1 0
vn -1.788139E-07 1 0
vn 0 1 1.788139E-07
vn -2.384186E-07 1 0
vn 0 1 2.384186E-07
vn -1.788139E-07 1 0
vn 1.192093E-07 1 1.788139E-07
vn -1.788139E-07 1 0
vn 0 1 1.788139E-07
vn -1.788139E-07 1 0
vn 0 1 1.788139E-07
vn -1.788139E-07 1 0
vn 0 1 1.788139E-07
vn -1.788139E-07 1 0
vn 0 1 1.788139E-07
vn 0 1 1.788139E-07
vn -1.192093E-07 1 1.788139E-07
vn 0 1 2.384186E-07
g Colosseum_Road_0
f 3/3/3 2/2/2 1/1/1
f 1/1/1 2/2/2 4/4/4
f 5/5/5 2/2/2 3/3/3
f 4/4/4 2/2/2 6/6/6
f 7/7/7 2/2/2 5/5/5
f 6/6/6 2/2/2 8/8/8
f 9/9/9 2/2/2 7/7/7
f 8/8/8 2/2/2 10/10/10
f 11/11/11 2/2/2 9/9/9
f 10/10/10 2/2/2 12/12/12
f 13/13/13 2/2/2 11/11/11
f 12/12/12 2/2/2 14/14/14
f 15/15/15 2/2/2 13/13/13
f 14/14/14 2/2/2 16/16/16
f 17/17/17 2/2/2 15/15/15
f 16/16/16 2/2/2 18/18/18
f 19/19/19 2/2/2 17/17/17
f 18/18/18 2/2/2 20/20/20
f 21/21/21 2/2/2 19/19/19
f 20/20/20 2/2/2 22/22/22
f 23/23/23 2/2/2 21/21/21
f 22/22/22 2/2/2 24/24/24
f 25/25/25 2/2/2 23/23/23
f 24/24/24 2/2/2 26/26/26
f 27/27/27 2/2/2 25/25/25
f 26/26/26 2/2/2 28/28/28
f 29/29/29 2/2/2 27/27/27
f 28/28/28 2/2/2 30/30/30
f 31/31/31 2/2/2 29/29/29
f 30/30/30 2/2/2 32/32/32
f 33/33/33 2/2/2 31/31/31
f 32/32/32 2/2/2 33/33/33
