g CoolingBox_cap
v -19.5903 6.561309 45.54958
v -15.98515 5.264373 41.36489
v 31.20645 8.454498 -31.50778
v -23.69186 10.30942 48.27444
v 33.4904 10.14957 -36.4169
v 34.14281 14.21921 -41.03342
v -26.73793 15.09055 48.50827
v 32.91658 19.1235 -43.60965
v -46.66681 60.25943 37.57974
v 12.98746 64.29214 -54.53794
v -47.89395 65.16306 35.00302
v 9.940645 69.07291 -54.30497
v -47.24167 69.23264 30.38663
v 5.839021 72.82108 -51.58023
v -44.95671 70.92819 25.47787
v 2.234804 74.11844 -47.39493
v 27.52959 6.54898 -40.43186
v 33.4904 10.14957 -36.4169
v 31.20645 8.454498 -31.50778
v 25.24434 4.85324 -35.52018
v -15.98515 5.264373 41.36489
v -21.94143 1.663421 37.34372
v -19.5903 6.561309 45.54958
v -25.5484 2.960723 41.53061
v 26.95526 15.52689 -47.62754
v 34.14281 14.21921 -41.03342
v 28.18213 10.62033 -45.05008
v 32.91658 19.1235 -43.60965
v 7.030381 60.68649 -58.55375
v 12.98746 64.29214 -54.53794
v 3.982118 65.46933 -58.32071
v 9.940645 69.07291 -54.30497
v -0.1213821 69.21921 -55.59439
v 5.839021 72.82108 -51.58023
v 28.18213 10.62033 -45.05008
v 34.14281 14.21921 -41.03342
v 33.4904 10.14957 -36.4169
v 27.52959 6.54898 -40.43186
v -25.5484 2.960723 41.53061
v -19.5903 6.561309 45.54958
v -23.69186 10.30942 48.27444
v -29.65178 6.71054 44.25649
v -26.73793 15.09055 48.50827
v -32.69914 11.49411 44.4902
v -46.66681 60.25943 37.57974
v -52.62402 56.65359 33.56417
v -47.89395 65.16306 35.00302
v -53.85182 61.55966 30.98623
v -53.85182 61.55966 30.98623
v -47.89395 65.16306 35.00302
v -47.24167 69.23264 30.38663
v -53.19922 65.63101 26.36795
v -44.95671 70.92819 25.47787
v -50.91323 67.3273 21.45682
v 2.234804 74.11844 -47.39493
v -3.727293 70.51718 -51.40726
v 5.839021 72.82108 -51.58023
v -0.1213821 69.21921 -55.59439
v 11.51898 83.54288 -52.5922
v -46.27041 79.63358 36.64804
v -49.73535 79.33932 34.61447
v 8.266375 83.26047 -54.95127
v 13.66416 82.87296 -55.17405
v 10.79746 82.47 -57.99747
v 15.79358 80.92685 -56.58854
v 13.47405 80.02396 -59.77567
v 17.57781 78.00601 -56.61716
v 3.963686 74.27505 -66.1857
v 1.285585 76.72226 -64.40652
v 15.57924 76.57773 -59.80936
v 46.09147 13.38046 -40.98124
v 6.069886 70.82712 -66.21939
v 3.963686 74.27505 -66.1857
v 44.25189 11.59195 -44.08609
v 34.73952 5.847869 -50.49784
v 35.70967 2.323211 -48.77713
v 46.91316 10.39456 -39.52365
v 45.22142 8.068817 -42.36643
v 46.57735 8.290436 -37.13895
v 44.79564 5.413054 -39.35379
v 45.13456 7.3721 -34.17502
v 35.28374 -0.3339542 -45.76303
v 35.70967 2.323211 -48.77713
v 33.57602 -1.411469 -42.26358
v 43.08882 4.33609 -35.85593
v -12.65486 3.462677 55.06533
v -14.91281 0.4151303 53.70993
v -24.4219 -5.332184 47.29599
v -26.95393 -4.541474 50.34359
v -14.79989 4.13272 57.64687
v -17.44382 1.205536 56.756
v -16.9295 6.078704 59.06167
v -20.12069 3.65158 58.53415
v -17.44382 1.205536 56.756
v -26.95393 -4.541474 50.34359
v -29.63197 -2.094147 52.12283
v -20.12069 3.65158 58.53415
v -18.71367 8.999481 59.09011
v -16.9295 6.078704 59.06167
v -22.22586 7.097869 58.56789
v -47.22726 73.62521 43.45419
v -31.73825 1.353729 52.15639
v -29.63197 -2.094147 52.12283
v -50.89833 72.08377 42.84487
v -60.40774 66.33304 36.43478
v -61.3779 69.85764 34.71426
v -48.04918 76.61099 41.99673
v -51.86798 75.6066 41.12509
v -47.71339 78.71506 39.61209
v -51.44246 78.26236 38.11245
v -46.27041 79.63358 36.64804
v -49.73535 79.33932 34.61447
v -60.95216 72.51474 31.70035
v -61.3779 69.85764 34.71426
v -59.24422 73.59219 28.20059
v -60.95216 72.51474 31.70035
v 8.266375 83.26047 -54.95127
v -1.246474 77.51297 -61.35898
v 1.285585 76.72226 -64.40652
v 10.79746 82.47 -57.99747
v -29.63197 -2.094147 52.12283
v -32.69914 11.49411 44.4902
v -31.73825 1.353729 52.15639
v -29.65178 6.71054 44.25649
v -52.62402 56.65359 33.56417
v -26.95393 -4.541474 50.34359
v -60.40774 66.33304 36.43478
v -25.5484 2.960723 41.53061
v -53.85182 61.55966 30.98623
v -24.4219 -5.332184 47.29599
v -61.3779 69.85764 34.71426
v -21.94143 1.663421 37.34372
v -53.19922 65.63101 26.36795
v 33.57602 -1.411469 -42.26358
v -60.95216 72.51474 31.70035
v 25.24434 4.85324 -35.52018
v -50.91323 67.3273 21.45682
v 35.28374 -0.3339542 -45.76303
v -59.24422 73.59219 28.20059
v 27.52959 6.54898 -40.43186
v -3.727293 70.51718 -51.40726
v 35.70967 2.323211 -48.77713
v -1.246474 77.51297 -61.35898
v 28.18213 10.62033 -45.05008
v -0.1213821 69.21921 -55.59439
v 34.73952 5.847869 -50.49784
v 1.285585 76.72226 -64.40652
v 26.95526 15.52689 -47.62754
v 3.982118 65.46933 -58.32071
v 6.069886 70.82712 -66.21939
v 3.963686 74.27505 -66.1857
v 7.030381 60.68649 -58.55375
v 15.88297 79.77579 -52.60837
v 13.66416 82.87296 -55.17405
v 15.79358 80.92685 -56.58854
v 16.89301 78.12259 -52.62473
v 17.57781 78.00601 -56.61716
v 15.07382 80.51541 -52.0709
v 11.51898 83.54288 -52.5922
v 13.85961 80.89468 -50.60965
v -46.27041 79.63358 36.64804
v -43.41498 77.01376 37.8414
v -47.71339 78.71506 39.61209
v -44.22075 76.47775 39.51718
v -48.04918 76.61099 41.99673
v -44.33957 75.70474 40.38681
v -47.22726 73.62521 43.45419
v -43.87432 74.01468 41.21164
v -18.71367 8.999481 59.09011
v 45.0213 14.37027 -37.20005
v 46.09147 13.38046 -40.98124
v 45.4863 12.68039 -36.37503
v 46.91316 10.39456 -39.52365
v 45.36752 11.9072 -35.50559
v 44.56169 11.37125 -33.82962
v 46.57735 8.290436 -37.13895
v 45.13456 7.3721 -34.17502
v -15.74618 10.2623 56.6362
v -16.9295 6.078704 59.06167
v -14.73619 8.609161 56.62008
v -14.79989 4.13272 57.64687
v -13.92703 7.869597 56.08261
v -12.65486 3.462677 55.06533
v -12.71284 7.490142 54.62136
vt 0.4306641 0.9174805
vt 0.4313965 0.9169922
vt 0.4436035 0.9169922
vt 0.4301758 0.918457
vt 0.4445801 0.9174805
vt 0.4453125 0.918457
vt 0.4301758 0.9194336
vt 0.4455566 0.9199219
vt 0.4313965 0.9311523
vt 0.4470215 0.9311523
vt 0.4318848 0.9321289
vt 0.4467773 0.9326172
vt 0.4326172 0.9335938
vt 0.4462891 0.9335938
vt 0.4333496 0.9335938
vt 0.4455566 0.934082
vt 0.4450684 0.9169922
vt 0.4445801 0.9174805
vt 0.4436035 0.9169922
vt 0.4443359 0.9165039
vt 0.4313965 0.9169922
vt 0.4321289 0.9165039
vt 0.4306641 0.9174805
vt 0.4313965 0.9169922
vt 0.4462891 0.9189453
vt 0.4453125 0.918457
vt 0.4458008 0.9179688
vt 0.4455566 0.9199219
vt 0.4475098 0.9306641
vt 0.4470215 0.9311523
vt 0.4475098 0.9321289
vt 0.4467773 0.9326172
vt 0.4470215 0.9331055
vt 0.4462891 0.9335938
vt 0.4458008 0.9179688
vt 0.4453125 0.918457
vt 0.4445801 0.9174805
vt 0.4450684 0.9169922
vt 0.4313965 0.9169922
vt 0.4306641 0.9174805
vt 0.4301758 0.918457
vt 0.4309082 0.9179688
vt 0.4301758 0.9194336
vt 0.4309082 0.9189453
vt 0.4313965 0.9311523
vt 0.4321289 0.9306641
vt 0.4318848 0.9321289
vt 0.4326172 0.9316406
vt 0.4326172 0.9316406
vt 0.4318848 0.9321289
vt 0.4326172 0.9335938
vt 0.4333496 0.9326172
vt 0.4333496 0.9335938
vt 0.434082 0.9331055
vt 0.4455566 0.934082
vt 0.4462891 0.9331055
vt 0.4462891 0.9335938
vt 0.4470215 0.9331055
vt 0.8432617 0.9853516
vt 0.8217773 0.9853516
vt 0.8222656 0.9853516
vt 0.84375 0.9853516
vt 0.8442383 0.9853516
vt 0.8447266 0.9853516
vt 0.8442383 0.984375
vt 0.8452148 0.984375
vt 0.8447266 0.9833984
vt 0.8466797 0.9829102
vt 0.8461914 0.9838867
vt 0.8452148 0.9829102
vt 0.8417969 0.9604492
vt 0.8466797 0.9819336
vt 0.8466797 0.9829102
vt 0.8427734 0.9599609
vt 0.8442383 0.9589844
vt 0.84375 0.9575195
vt 0.8413086 0.9594727
vt 0.8422852 0.9589844
vt 0.8408203 0.9584961
vt 0.8413086 0.9580078
vt 0.840332 0.9584961
vt 0.8432617 0.956543
vt 0.84375 0.9575195
vt 0.8422852 0.9560547
vt 0.8408203 0.9575195
vt 0.8183594 0.9580078
vt 0.8188477 0.9575195
vt 0.8203125 0.9560547
vt 0.8198242 0.956543
vt 0.8178711 0.9584961
vt 0.8178711 0.9575195
vt 0.8173828 0.9589844
vt 0.8173828 0.9584961
vt 0.8178711 0.9575195
vt 0.8198242 0.956543
vt 0.8193359 0.9575195
vt 0.8173828 0.9584961
vt 0.8173828 0.9604492
vt 0.8173828 0.9589844
vt 0.8173828 0.9599609
vt 0.8203125 0.9833984
vt 0.8193359 0.9584961
vt 0.8193359 0.9575195
vt 0.8203125 0.9829102
vt 0.8217773 0.9814453
vt 0.8222656 0.9829102
vt 0.8203125 0.984375
vt 0.8208008 0.9838867
vt 0.8208008 0.9848633
vt 0.8212891 0.9848633
vt 0.8217773 0.9853516
vt 0.8222656 0.9853516
vt 0.8227539 0.9838867
vt 0.8222656 0.9829102
vt 0.8237305 0.9838867
vt 0.8227539 0.9838867
vt 0.84375 0.9853516
vt 0.8457031 0.984375
vt 0.8461914 0.9838867
vt 0.8447266 0.9853516
vt 0.8193359 0.9575195
vt 0.8208008 0.9619141
vt 0.8193359 0.9584961
vt 0.8208008 0.9604492
vt 0.8227539 0.9780273
vt 0.8198242 0.956543
vt 0.8217773 0.9814453
vt 0.8217773 0.9589844
vt 0.8232422 0.9799805
vt 0.8203125 0.9560547
vt 0.8222656 0.9829102
vt 0.8227539 0.9584961
vt 0.8242188 0.980957
vt 0.8422852 0.9560547
vt 0.8227539 0.9838867
vt 0.840332 0.9584961
vt 0.8256836 0.9819336
vt 0.8432617 0.956543
vt 0.8237305 0.9838867
vt 0.8417969 0.9589844
vt 0.8432617 0.9819336
vt 0.84375 0.9575195
vt 0.8457031 0.984375
vt 0.8427734 0.9604492
vt 0.8442383 0.9814453
vt 0.8442383 0.9589844
vt 0.8461914 0.9838867
vt 0.8432617 0.9624023
vt 0.8452148 0.9799805
vt 0.8466797 0.9819336
vt 0.8466797 0.9829102
vt 0.8452148 0.9785156
vt 0.8432617 0.9838867
vt 0.8442383 0.9853516
vt 0.8442383 0.984375
vt 0.84375 0.9833984
vt 0.8447266 0.9833984
vt 0.8432617 0.984375
vt 0.8432617 0.9853516
vt 0.8427734 0.984375
vt 0.8217773 0.9853516
vt 0.8212891 0.984375
vt 0.8208008 0.9848633
vt 0.8208008 0.9838867
vt 0.8203125 0.984375
vt 0.8208008 0.9838867
vt 0.8203125 0.9833984
vt 0.8208008 0.9833984
vt 0.8173828 0.9604492
vt 0.8408203 0.9609375
vt 0.8417969 0.9604492
vt 0.8408203 0.9599609
vt 0.8413086 0.9594727
vt 0.840332 0.9599609
vt 0.8398438 0.9599609
vt 0.8408203 0.9584961
vt 0.840332 0.9584961
vt 0.8178711 0.9604492
vt 0.8173828 0.9589844
vt 0.8178711 0.9599609
vt 0.8178711 0.9584961
vt 0.8183594 0.9594727
vt 0.8183594 0.9580078
vt 0.8183594 0.9594727
vn -0.7412109 -0.447998 -0.4997559
vn -0.7412109 -0.4477539 -0.4997559
vn -0.7412109 -0.4482422 -0.4997559
vn -0.7412109 -0.447998 -0.4997559
vn -0.7412109 -0.447998 -0.4997559
vn -0.7412109 -0.447998 -0.4997559
vn -0.7412109 -0.447998 -0.4997559
vn -0.7412109 -0.447998 -0.4997559
vn -0.7412109 -0.447998 -0.4997559
vn -0.7412109 -0.447998 -0.4997559
vn -0.7412109 -0.447998 -0.4997559
vn -0.7412109 -0.447998 -0.4997559
vn -0.7412109 -0.447998 -0.4997559
vn -0.7412109 -0.447998 -0.4997559
vn -0.7412109 -0.4482422 -0.4997559
vn -0.7412109 -0.447998 -0.4997559
vn -0.5366211 0.8427734 0.04122925
vn -0.5366211 0.8427734 0.04122925
vn -0.4038086 0.8925781 -0.2008057
vn -0.4038086 0.8925781 -0.2008057
vn -0.3842773 0.894043 -0.2313232
vn -0.3842773 0.894043 -0.2312012
vn -0.2160645 0.8642578 -0.4541016
vn -0.2160645 0.8642578 -0.4541016
vn -0.5546875 -0.00994873 0.8320313
vn -0.6352539 0.2287598 0.737793
vn -0.6352539 0.2286377 0.737793
vn -0.5546875 -0.00995636 0.8320313
vn -0.53125 -0.06341553 0.8447266
vn -0.53125 -0.06341553 0.8447266
vn -0.2548828 -0.5004883 0.8271484
vn -0.2548828 -0.5004883 0.8271484
vn -0.1051636 -0.6577148 0.7460938
vn -0.1051636 -0.6572266 0.7460938
vn -0.6625977 0.605957 0.4404297
vn -0.6625977 0.605957 0.4404297
vn -0.6625977 0.605957 0.4404297
vn -0.6625977 0.605957 0.4404297
vn 0.1055908 0.6577148 -0.7456055
vn 0.1055908 0.6577148 -0.7456055
vn 0.255127 0.5009766 -0.8271484
vn 0.255127 0.5009766 -0.8271484
vn 0.53125 0.06347656 -0.8447266
vn 0.53125 0.06341553 -0.8447266
vn 0.5546875 0.009971619 -0.8320313
vn 0.5546875 0.01003265 -0.8320313
vn 0.6352539 -0.2285156 -0.7373047
vn 0.6352539 -0.2285156 -0.7373047
vn 0.6630859 -0.6054688 -0.4401855
vn 0.6630859 -0.6054688 -0.4401855
vn 0.6210938 -0.7407227 -0.2568359
vn 0.6210938 -0.7407227 -0.2568359
vn 0.4040527 -0.8925781 0.2009277
vn 0.4038086 -0.8925781 0.2009277
vn 0.3842773 -0.8935547 0.2313232
vn 0.3842773 -0.8935547 0.2313232
vn 0.2163086 -0.8642578 0.4541016
vn 0.2163086 -0.8642578 0.4541016
vn -0.07543945 0.9970703 -0.01481628
vn -0.08422852 0.996582 -0.001199722
vn -0.3305664 0.9296875 -0.1622314
vn -0.3205566 0.9301758 -0.1778564
vn 0.225708 0.9057617 -0.3583984
vn -0.006889343 0.8271484 -0.5620117
vn 0.5454102 0.6137695 -0.5708008
vn 0.3349609 0.5146484 -0.7895508
vn 0.78125 0.2160645 -0.5859375
vn 0.1052856 0.6577148 -0.7460938
vn 0.1052856 0.6577148 -0.7460938
vn 0.6025391 0.08886719 -0.7929688
vn 0.7905273 0.1951904 -0.5805664
vn 0.5375977 0.04885864 -0.8417969
vn 0.4226074 0.2666016 -0.8662109
vn 0.612793 0.06494141 -0.7875977
vn 0.5483398 0.02452087 -0.8359375
vn 0.6264648 -0.1958008 -0.7543945
vn 0.9052734 -0.2017822 -0.3737793
vn 0.7275391 -0.3754883 -0.5742188
vn 0.8549805 -0.5185547 -0.01435089
vn 0.6733398 -0.715332 -0.1885986
vn 0.652832 -0.652832 0.3842773
vn 0.612793 -0.7553711 -0.2322998
vn 0.6625977 -0.605957 -0.4404297
vn 0.3991699 -0.8930664 0.208252
vn 0.4645996 -0.8486328 0.2526855
vn 0.644043 -0.6533203 0.3979492
vn 0.4543457 -0.8496094 0.2680664
vn 0.388916 -0.8935547 0.223999
vn 0.06970215 -0.7919922 0.6064453
vn 0.3583984 -0.5527344 0.7524414
vn 0.1320801 -0.7514648 0.6464844
vn 0.03872681 -0.260498 0.9648438
vn -0.2098389 -0.4389648 0.8735352
vn 0.1320801 -0.7514648 0.6464844
vn 0.06970215 -0.7919922 0.6064453
vn -0.1054688 -0.6577148 0.7460938
vn -0.2098389 -0.4389648 0.8735352
vn -0.2130127 0.1273193 0.96875
vn 0.03872681 -0.260498 0.9648438
vn -0.4689941 -0.00818634 0.8833008
vn -0.222168 0.1481934 0.9638672
vn -0.5375977 -0.04885864 0.8417969
vn -0.4228516 -0.2666016 0.8662109
vn -0.4794922 0.01573181 0.8774414
vn -0.5483398 -0.02456665 0.8359375
vn -0.6269531 0.1956787 0.7543945
vn -0.3212891 0.5546875 0.7675781
vn -0.6025391 0.4511719 0.6582031
vn -0.2702637 0.8720703 0.4082031
vn -0.5483398 0.7905273 0.2734375
vn -0.08422852 0.996582 -0.001199722
vn -0.3305664 0.9296875 -0.1622314
vn -0.6630859 0.6054688 0.4401855
vn -0.6630859 0.6054688 0.4401855
vn -0.3991699 0.8930664 -0.2081299
vn -0.5214844 0.8535156 0.008285522
vn -0.3205566 0.9301758 -0.1778564
vn -0.388916 0.8935547 -0.223999
vn -0.2401123 0.8725586 -0.4257813
vn -0.006889343 0.8271484 -0.5620117
vn -0.7412109 -0.447998 -0.4995117
vn -0.7412109 -0.447998 -0.4995117
vn -0.7412109 -0.447998 -0.4997559
vn -0.7412109 -0.447998 -0.4995117
vn -0.7412109 -0.447998 -0.4997559
vn -0.7412109 -0.447998 -0.4997559
vn -0.7412109 -0.447998 -0.4995117
vn -0.7412109 -0.447998 -0.4997559
vn -0.7412109 -0.447998 -0.4995117
vn -0.7412109 -0.447998 -0.4997559
vn -0.7412109 -0.447998 -0.4997559
vn -0.7412109 -0.447998 -0.4997559
vn -0.7412109 -0.447998 -0.4997559
vn -0.7412109 -0.447998 -0.4997559
vn -0.7412109 -0.447998 -0.4997559
vn -0.7412109 -0.447998 -0.4997559
vn -0.7412109 -0.447998 -0.4997559
vn -0.7412109 -0.447998 -0.4997559
vn -0.7412109 -0.447998 -0.4997559
vn -0.7412109 -0.447998 -0.4997559
vn -0.7412109 -0.447998 -0.4997559
vn -0.7412109 -0.447998 -0.4997559
vn -0.7412109 -0.447998 -0.4997559
vn -0.7412109 -0.447998 -0.4997559
vn -0.7412109 -0.447998 -0.4997559
vn -0.7412109 -0.447998 -0.4997559
vn -0.7412109 -0.447998 -0.4997559
vn -0.7412109 -0.447998 -0.4997559
vn -0.7412109 -0.447998 -0.4997559
vn -0.7412109 -0.447998 -0.4997559
vn -0.7412109 -0.447998 -0.4997559
vn -0.7412109 -0.447998 -0.4997559
vn 0.7416992 0.4482422 0.4992676
vn 0.65625 0.7138672 0.2443848
vn 0.7954102 0.5864258 0.1517334
vn 0.7456055 0.4482422 0.4934082
vn 0.8911133 0.4311523 0.1402588
vn 0.7412109 0.4484863 0.4992676
vn 0.5356445 0.7553711 0.3771973
vn 0.7368164 0.4577637 0.4973145
vn 0.5332031 0.7553711 0.3813477
vn 0.7368164 0.4577637 0.4973145
vn 0.4631348 0.7011719 0.5424805
vn 0.7412109 0.4484863 0.4997559
vn 0.440918 0.5620117 0.7001953
vn 0.7407227 0.4482422 0.5
vn 0.4760742 0.4030762 0.7817383
vn 0.7373047 0.4477539 0.5058594
vn 0.4787598 0.3967285 0.7832031
vn 0.7456055 0.4482422 0.4934082
vn 0.894043 0.4248047 0.1418457
vn 0.7416992 0.4477539 0.4992676
vn 0.9355469 0.2700195 0.2277832
vn 0.7416992 0.4475098 0.4995117
vn 0.7456055 0.4382324 0.5019531
vn 0.9135742 0.1308594 0.385498
vn 0.8369141 0.07275391 0.5424805
vn 0.7373047 0.4477539 0.5058594
vn 0.5810547 0.2453613 0.7758789
vn 0.7412109 0.4477539 0.5
vn 0.7202148 0.1177979 0.6835938
vn 0.7412109 0.4475098 0.5
vn 0.8344727 0.0725708 0.5463867
vn 0.7456055 0.4382324 0.5019531
g CoolingBox_cap_0
f 3/3/3 2/2/2 1/1/1
f 1/1/1 4/4/4 3/3/3
f 4/4/4 5/5/5 3/3/3
f 4/4/4 6/6/6 5/5/5
f 4/4/4 7/7/7 6/6/6
f 7/7/7 8/8/8 6/6/6
f 7/7/7 9/9/9 8/8/8
f 9/9/9 10/10/10 8/8/8
f 9/9/9 11/11/11 10/10/10
f 11/11/11 12/12/12 10/10/10
f 11/11/11 13/13/13 12/12/12
f 13/13/13 14/14/14 12/12/12
f 13/13/13 15/15/15 14/14/14
f 15/15/15 16/16/16 14/14/14
f 19/19/19 18/18/18 17/17/17
f 20/20/20 19/19/19 17/17/17
f 21/21/21 19/19/19 20/20/20
f 22/22/22 21/21/21 20/20/20
f 23/23/23 21/21/21 22/22/22
f 24/24/24 23/23/23 22/22/22
f 27/27/27 26/26/26 25/25/25
f 26/26/26 28/28/28 25/25/25
f 25/25/25 28/28/28 29/29/29
f 28/28/28 30/30/30 29/29/29
f 29/29/29 30/30/30 31/31/31
f 30/30/30 32/32/32 31/31/31
f 31/31/31 32/32/32 33/33/33
f 32/32/32 34/34/34 33/33/33
f 37/37/37 36/36/36 35/35/35
f 38/38/38 37/37/37 35/35/35
f 41/41/41 40/40/40 39/39/39
f 42/42/42 41/41/41 39/39/39
f 43/43/43 41/41/41 42/42/42
f 44/44/44 43/43/43 42/42/42
f 45/45/45 43/43/43 44/44/44
f 46/46/46 45/45/45 44/44/44
f 47/47/47 45/45/45 46/46/46
f 48/48/48 47/47/47 46/46/46
f 51/51/51 50/50/50 49/49/49
f 52/52/52 51/51/51 49/49/49
f 53/53/53 51/51/51 52/52/52
f 54/54/54 53/53/53 52/52/52
f 55/55/55 53/53/53 54/54/54
f 56/56/56 55/55/55 54/54/54
f 57/57/57 55/55/55 56/56/56
f 58/58/58 57/57/57 56/56/56
f 61/61/61 60/60/60 59/59/59
f 62/62/62 61/61/61 59/59/59
f 59/59/59 63/63/63 62/62/62
f 63/63/63 64/64/64 62/62/62
f 64/64/64 63/63/63 65/65/65
f 66/66/66 64/64/64 65/65/65
f 66/66/66 65/65/65 67/67/67
f 64/64/64 66/66/66 68/68/68
f 69/69/69 64/64/64 68/68/68
f 70/70/70 66/66/66 67/67/67
f 70/70/70 67/67/67 71/71/71
f 66/66/66 70/70/70 72/72/72
f 73/73/73 66/66/66 72/72/72
f 74/74/74 70/70/70 71/71/71
f 72/72/72 70/70/70 74/74/74
f 75/75/75 72/72/72 74/74/74
f 76/76/76 75/75/75 74/74/74
f 71/71/71 77/77/77 74/74/74
f 78/78/78 76/76/76 74/74/74
f 77/77/77 78/78/78 74/74/74
f 77/77/77 79/79/79 78/78/78
f 79/79/79 80/80/80 78/78/78
f 80/80/80 79/79/79 81/81/81
f 80/80/80 82/82/82 78/78/78
f 82/82/82 83/83/83 78/78/78
f 84/84/84 82/82/82 80/80/80
f 85/85/85 80/80/80 81/81/81
f 85/85/85 84/84/84 80/80/80
f 81/81/81 86/86/86 85/85/85
f 84/84/84 85/85/85 87/87/87
f 86/86/86 87/87/87 85/85/85
f 88/88/88 84/84/84 87/87/87
f 89/89/89 88/88/88 87/87/87
f 86/86/86 90/90/90 87/87/87
f 91/91/91 89/89/89 87/87/87
f 90/90/90 91/91/91 87/87/87
f 90/90/90 92/92/92 91/91/91
f 92/92/92 93/93/93 91/91/91
f 96/96/96 95/95/95 94/94/94
f 97/97/97 96/96/96 94/94/94
f 97/97/97 99/99/99 98/98/98
f 100/100/100 97/97/97 98/98/98
f 98/98/98 101/101/101 100/100/100
f 100/100/100 102/102/102 97/97/97
f 102/102/102 103/103/103 97/97/97
f 101/101/101 104/104/104 100/100/100
f 102/102/102 100/100/100 104/104/104
f 105/105/105 102/102/102 104/104/104
f 106/106/106 105/105/105 104/104/104
f 101/101/101 107/107/107 104/104/104
f 108/108/108 106/106/106 104/104/104
f 107/107/107 108/108/108 104/104/104
f 108/108/108 107/107/107 109/109/109
f 110/110/110 108/108/108 109/109/109
f 110/110/110 109/109/109 111/111/111
f 112/112/112 110/110/110 111/111/111
f 110/110/110 113/113/113 108/108/108
f 113/113/113 114/114/114 108/108/108
f 112/112/112 115/115/115 110/110/110
f 115/115/115 116/116/116 110/110/110
f 115/115/115 112/112/112 117/117/117
f 118/118/118 115/115/115 117/117/117
f 118/118/118 117/117/117 119/119/119
f 117/117/117 120/120/120 119/119/119
f 123/123/123 122/122/122 121/121/121
f 122/122/122 124/124/124 121/121/121
f 125/125/125 122/122/122 123/123/123
f 121/121/121 124/124/124 126/126/126
f 127/127/127 125/125/125 123/123/123
f 124/124/124 128/128/128 126/126/126
f 129/129/129 125/125/125 127/127/127
f 126/126/126 128/128/128 130/130/130
f 131/131/131 129/129/129 127/127/127
f 128/128/128 132/132/132 130/130/130
f 133/133/133 129/129/129 131/131/131
f 130/130/130 132/132/132 134/134/134
f 135/135/135 133/133/133 131/131/131
f 132/132/132 136/136/136 134/134/134
f 137/137/137 133/133/133 135/135/135
f 134/134/134 136/136/136 138/138/138
f 139/139/139 137/137/137 135/135/135
f 136/136/136 140/140/140 138/138/138
f 141/141/141 137/137/137 139/139/139
f 138/138/138 140/140/140 142/142/142
f 143/143/143 141/141/141 139/139/139
f 140/140/140 144/144/144 142/142/142
f 145/145/145 141/141/141 143/143/143
f 142/142/142 144/144/144 146/146/146
f 147/147/147 145/145/145 143/143/143
f 144/144/144 148/148/148 146/146/146
f 149/149/149 145/145/145 147/147/147
f 146/146/146 148/148/148 150/150/150
f 151/151/151 149/149/149 147/147/147
f 148/148/148 152/152/152 150/150/150
f 152/152/152 149/149/149 151/151/151
f 150/150/150 152/152/152 151/151/151
f 155/155/155 154/154/154 153/153/153
f 155/155/155 153/153/153 156/156/156
f 157/157/157 155/155/155 156/156/156
f 154/154/154 158/158/158 153/153/153
f 158/158/158 154/154/154 159/159/159
f 153/153/153 158/158/158 160/160/160
f 160/160/160 158/158/158 159/159/159
f 156/156/156 153/153/153 160/160/160
f 159/159/159 161/161/161 160/160/160
f 161/161/161 162/162/162 160/160/160
f 156/156/156 160/160/160 162/162/162
f 161/161/161 163/163/163 162/162/162
f 163/163/163 164/164/164 162/162/162
f 156/156/156 162/162/162 164/164/164
f 163/163/163 165/165/165 164/164/164
f 165/165/165 166/166/166 164/164/164
f 156/156/156 164/164/164 166/166/166
f 166/166/166 165/165/165 167/167/167
f 168/168/168 166/166/166 167/167/167
f 156/156/156 166/166/166 168/168/168
f 168/168/168 167/167/167 169/169/169
f 157/157/157 156/156/156 170/170/170
f 170/170/170 156/156/156 168/168/168
f 171/171/171 157/157/157 170/170/170
f 170/170/170 172/172/172 171/171/171
f 172/172/172 170/170/170 168/168/168
f 172/172/172 173/173/173 171/171/171
f 172/172/172 174/174/174 173/173/173
f 174/174/174 172/172/172 168/168/168
f 175/175/175 174/174/174 168/168/168
f 174/174/174 176/176/176 173/173/173
f 176/176/176 174/174/174 175/175/175
f 177/177/177 176/176/176 175/175/175
f 178/178/178 168/168/168 169/169/169
f 175/175/175 168/168/168 178/178/178
f 169/169/169 179/179/179 178/178/178
f 179/179/179 180/180/180 178/178/178
f 175/175/175 178/178/178 180/180/180
f 180/180/180 179/179/179 181/181/181
f 182/182/182 180/180/180 181/181/181
f 175/175/175 180/180/180 182/182/182
f 182/182/182 181/181/181 183/183/183
f 184/184/184 183/183/183 177/177/177
f 175/175/175 184/184/184 177/177/177
f 184/184/184 182/182/182 183/183/183
f 182/182/182 184/184/184 175/175/175
