g Droplet
v 0.03344247 2.521564E-06 0.006214485
v 0.03068757 0.008859447 0.01132021
v 0.03070214 0.01022962 0.006206681
v 0.02319019 0.01534317 0.01504225
v 0.02321541 0.01771638 0.00618536
v 0.01252387 0.01771637 0.01638329
v 0.012553 0.02045672 0.006156236
v 0.0007839722 0.01534317 0.014984
v 0.0008091938 0.01771637 0.006127111
v -0.006596099 0.008859447 0.01121932
v -0.006581532 0.01022962 0.006105789
v -0.01111713 2.520903E-06 0.006097986
v -0.006606759 0.005116073 0.01496268
v -0.01111713 2.520903E-06 0.006097986
v 0.0007655084 0.008859451 0.0214677
v 0.01250255 0.01022962 0.02387002
v 0.02317173 0.008859451 0.02152595
v -0.006610656 2.524058E-06 0.01633285
v -0.01111713 2.520903E-06 0.006097986
v 0.0007587493 2.526126E-06 0.02384089
v 0.03067691 0.005116072 0.01506357
v 0.03344247 2.521564E-06 0.006214485
v 0.01249475 2.526996E-06 0.02661035
v -0.006606761 -0.005111024 0.01496268
v -0.01111713 2.520903E-06 0.006097986
v 0.02316497 2.525986E-06 0.02389914
v 0.0007655072 -0.008854398 0.0214677
v 0.03067301 2.523979E-06 0.01643374
v 0.03344247 2.521564E-06 0.006214485
v 0.01250255 -0.01022457 0.02387002
v -0.006596095 -0.008854402 0.01121932
v -0.01111713 2.520903E-06 0.006097986
v 0.02317173 -0.008854399 0.02152595
v 0.0007839722 -0.01533812 0.01498401
v 0.03067691 -0.005111024 0.01506357
v 0.03344247 2.521564E-06 0.006214485
v 0.01252387 -0.01771133 0.0163833
v -0.006581532 -0.01022458 0.006105796
v -0.01111713 2.520903E-06 0.006097986
v 0.02319019 -0.01533812 0.01504226
v 0.0008091927 -0.01771133 0.006127121
v 0.03068757 -0.008854403 0.01132021
v 0.03344247 2.521564E-06 0.006214485
v 0.012553 -0.02045167 0.006156248
v -0.006566971 -0.008854408 0.0009922665
v -0.01111713 2.520903E-06 0.006097986
v 0.02321541 -0.01771133 0.00618537
v 0.0008344156 -0.01533813 -0.002729767
v 0.03070214 -0.01022458 0.006206687
v 0.03344247 2.521564E-06 0.006214485
v 0.01258212 -0.01771134 -0.004070808
v -0.006556309 -0.005111033 -0.002751091
v -0.01111713 2.520903E-06 0.006097986
v 0.02324064 -0.01533813 -0.00267152
v 0.0008528793 -0.008854414 -0.009213462
v 0.0307167 -0.008854408 0.00109316
v 0.03344247 2.521564E-06 0.006214485
v 0.01260344 -0.01022459 -0.01155754
v -0.006552409 2.513045E-06 -0.004121267
v -0.01111713 2.520903E-06 0.006097986
v 0.0232591 -0.008854415 -0.009155218
v 0.0008596372 2.507051E-06 -0.01158666
v 0.03072736 -0.005111034 -0.002650205
v 0.03344247 2.521564E-06 0.006214485
v 0.01261125 2.50497E-06 -0.01429788
v -0.00655631 0.005116062 -0.002751099
v -0.01111713 2.520903E-06 0.006097986
v 0.02326586 2.506911E-06 -0.01152842
v 0.0008528793 0.008859434 -0.009213477
v 0.03073126 2.512966E-06 -0.004020375
v 0.03344247 2.521564E-06 0.006214485
v 0.01260344 0.0102296 -0.01155755
v -0.006566972 0.008859443 0.0009922504
v -0.01111713 2.520903E-06 0.006097986
v 0.0232591 0.008859434 -0.009155232
v 0.0008344173 0.01534316 -0.002729791
v -0.006581532 0.01022962 0.006105789
v -0.01111713 2.520903E-06 0.006097986
v 0.0008091938 0.01771637 0.006127111
v 0.01258212 0.01771636 -0.004070838
v 0.012553 0.02045672 0.006156236
v 0.02324064 0.01534316 -0.002671544
v 0.02321541 0.01771638 0.00618536
v 0.03072736 0.005116061 -0.002650212
v 0.03344247 2.521564E-06 0.006214485
v 0.0307167 0.008859442 0.001093144
v 0.03344247 2.521564E-06 0.006214485
v 0.03070214 0.01022962 0.006206681
v 0.03344247 2.521564E-06 0.006214485
vt 0 1
vt 0.08333334 0.8333333
vt 0 0.8333333
vt 0.08333334 0.6666666
vt 0 0.6666666
vt 0.08333334 0.5
vt 0 0.5
vt 0.08333334 0.3333333
vt 0 0.3333333
vt 0.08333334 0.1666667
vt 0 0.1666667
vt 0 5.960464E-08
vt 0.1666667 0.1666667
vt 0.08333334 5.960464E-08
vt 0.1666667 0.3333333
vt 0.1666667 0.5
vt 0.1666667 0.6666666
vt 0.25 0.1666667
vt 0.1666667 5.960464E-08
vt 0.25 0.3333333
vt 0.1666667 0.8333333
vt 0.08333334 1
vt 0.25 0.5
vt 0.3333333 0.1666667
vt 0.25 5.960464E-08
vt 0.25 0.6666666
vt 0.3333333 0.3333333
vt 0.25 0.8333333
vt 0.1666667 1
vt 0.3333333 0.5
vt 0.4166667 0.1666667
vt 0.3333333 5.960464E-08
vt 0.3333333 0.6666666
vt 0.4166667 0.3333333
vt 0.3333333 0.8333333
vt 0.25 1
vt 0.4166667 0.5
vt 0.5 0.1666667
vt 0.4166667 5.960464E-08
vt 0.4166667 0.6666666
vt 0.5 0.3333333
vt 0.4166667 0.8333333
vt 0.3333333 1
vt 0.5 0.5
vt 0.5833333 0.1666667
vt 0.5 5.960464E-08
vt 0.5 0.6666666
vt 0.5833333 0.3333333
vt 0.5 0.8333333
vt 0.4166667 1
vt 0.5833333 0.5
vt 0.6666666 0.1666667
vt 0.5833333 5.960464E-08
vt 0.5833333 0.6666666
vt 0.6666666 0.3333333
vt 0.5833333 0.8333333
vt 0.5 1
vt 0.6666666 0.5
vt 0.7499999 0.1666667
vt 0.6666666 5.960464E-08
vt 0.6666666 0.6666666
vt 0.7499999 0.3333333
vt 0.6666666 0.8333333
vt 0.5833333 1
vt 0.7499999 0.5
vt 0.8333332 0.1666667
vt 0.7499999 5.960464E-08
vt 0.7499999 0.6666666
vt 0.8333332 0.3333333
vt 0.7499999 0.8333333
vt 0.6666666 1
vt 0.8333332 0.5
vt 0.9166665 0.1666667
vt 0.8333332 5.960464E-08
vt 0.8333332 0.6666666
vt 0.9166665 0.3333333
vt 0.9999998 0.1666667
vt 0.9166665 5.960464E-08
vt 0.9999998 0.3333333
vt 0.9166665 0.5
vt 0.9999998 0.5
vt 0.9166665 0.6666666
vt 0.9999998 0.6666666
vt 0.8333332 0.8333333
vt 0.7499999 1
vt 0.9166665 0.8333333
vt 0.8333332 1
vt 0.9999998 0.8333333
vt 0.9166665 1
vn 0.9999959 0 0.00284789
vn 0.8466753 0.4597727 0.2678622
vn 0.8474311 0.5308999 0.002413185
vn 0.4764669 0.7608185 0.4406068
vn 0.4776929 0.8785258 0.001349483
vn 0.009433607 0.8659828 0.4999848
vn 0.0107471 0.9999423 1.098288E-05
vn -0.4712627 0.7643928 0.4400172
vn -0.4700816 0.882622 -0.001303757
vn -0.8133786 0.5048023 0.2891192
vn -0.8125685 0.5828611 -0.002327446
vn -0.9999965 0 -0.002655453
vn -0.8139715 0.2914603 0.502495
vn -0.9999965 0 -0.002655453
vn -0.4721273 0.4413309 0.7631009
vn 0.008472056 0.4999787 0.8659963
vn 0.4755694 0.4392559 0.7621601
vn -0.8141884 1.812292E-07 0.5806009
vn -0.9999965 0 -0.002655453
vn -0.4724438 0 0.8813608
vn 0.8461218 0.26545 0.4621843
vn 0.9999959 0 0.00284789
vn 0.008120034 0 0.9999671
vn -0.8139716 -0.2914603 0.5024951
vn -0.9999965 0 -0.002655453
vn 0.4752409 0 0.8798558
vn -0.4721273 -0.4413306 0.763101
vn 0.8459193 0 0.5333111
vn 0.9999959 0 0.00284789
vn 0.008471978 -0.4999783 0.8659965
vn -0.8133784 -0.5048025 0.2891194
vn -0.9999965 0 -0.002655453
vn 0.4755692 -0.4392556 0.7621604
vn -0.4712627 -0.7643926 0.4400177
vn 0.8461217 -0.2654498 0.4621845
vn 0.9999959 0 0.00284789
vn 0.009433545 -0.8659824 0.4999853
vn -0.8125685 -0.582861 -0.002326788
vn -0.9999965 0 -0.002655453
vn 0.476467 -0.7608184 0.4406072
vn -0.4700817 -0.882622 -0.001303002
vn 0.8466752 -0.4597727 0.2678625
vn 0.9999959 0 0.00284789
vn 0.01074705 -0.9999423 1.173923E-05
vn -0.8117589 -0.5047425 -0.293739
vn -0.9999965 0 -0.002655453
vn 0.477693 -0.8785259 0.001350154
vn -0.4689008 -0.7643536 -0.442601
vn 0.8474311 -0.5309 0.002413596
vn 0.9999959 0 0.00284789
vn 0.01206053 -0.8659684 -0.4999534
vn -0.811166 -0.2914009 -0.5070454
vn -0.9999965 0 -0.002655453
vn 0.4789191 -0.7608331 -0.4379151
vn -0.4680363 -0.4412918 -0.7656394
vn 0.848187 -0.4597731 -0.2630353
vn 0.9999959 0 0.00284789
vn 0.01302203 -0.4999644 -0.8659481
vn -0.8109491 -5.635756E-07 -0.5851166
vn -0.9999965 0 -0.002655453
vn 0.4798167 -0.4392705 -0.7594849
vn -0.4677199 -7.387645E-07 -0.8838767
vn 0.8487404 -0.2654503 -0.4573575
vn 0.9999959 0 0.00284789
vn 0.013374 -7.931586E-07 -0.9999106
vn -0.811166 0.2914 -0.5070459
vn -0.9999965 0 -0.002655453
vn 0.4801454 -6.869636E-07 -0.877189
vn -0.4680362 0.4412906 -0.7656401
vn 0.8489429 -4.058212E-07 -0.5284845
vn 0.9999959 0 0.00284789
vn 0.01302209 0.499963 -0.8659489
vn -0.8117589 0.504742 -0.2937397
vn -0.9999965 0 -0.002655453
vn 0.4798168 0.4392692 -0.7594856
vn -0.4689006 0.764353 -0.4426022
vn -0.8125685 0.5828611 -0.002327446
vn -0.9999965 0 -0.002655453
vn -0.4700816 0.882622 -0.001303757
vn 0.01206058 0.8659676 -0.4999546
vn 0.0107471 0.9999423 1.098288E-05
vn 0.4789191 0.7608324 -0.4379161
vn 0.4776929 0.8785258 0.001349483
vn 0.8487404 0.2654495 -0.4573579
vn 0.9999959 0 0.00284789
vn 0.848187 0.4597726 -0.263036
vn 0.9999959 0 0.00284789
vn 0.8474311 0.5308999 0.002413185
vn 0.9999959 0 0.00284789
g Droplet_0
f 3/3/3 2/2/2 1/1/1
f 4/4/4 2/2/2 3/3/3
f 5/5/5 4/4/4 3/3/3
f 6/6/6 4/4/4 5/5/5
f 7/7/7 6/6/6 5/5/5
f 8/8/8 6/6/6 7/7/7
f 9/9/9 8/8/8 7/7/7
f 10/10/10 8/8/8 9/9/9
f 11/11/11 10/10/10 9/9/9
f 10/10/10 11/11/11 12/12/12
f 10/10/10 13/13/13 8/8/8
f 13/13/13 10/10/10 14/14/14
f 8/8/8 15/15/15 6/6/6
f 13/13/13 15/15/15 8/8/8
f 6/6/6 16/16/16 4/4/4
f 15/15/15 16/16/16 6/6/6
f 4/4/4 17/17/17 2/2/2
f 16/16/16 17/17/17 4/4/4
f 13/13/13 18/18/18 15/15/15
f 18/18/18 13/13/13 19/19/19
f 15/15/15 20/20/20 16/16/16
f 18/18/18 20/20/20 15/15/15
f 17/17/17 21/21/21 2/2/2
f 2/2/2 21/21/21 22/22/22
f 16/16/16 23/23/23 17/17/17
f 20/20/20 23/23/23 16/16/16
f 18/18/18 24/24/24 20/20/20
f 24/24/24 18/18/18 25/25/25
f 17/17/17 26/26/26 21/21/21
f 23/23/23 26/26/26 17/17/17
f 20/20/20 27/27/27 23/23/23
f 24/24/24 27/27/27 20/20/20
f 26/26/26 28/28/28 21/21/21
f 21/21/21 28/28/28 29/29/29
f 23/23/23 30/30/30 26/26/26
f 27/27/27 30/30/30 23/23/23
f 24/24/24 31/31/31 27/27/27
f 31/31/31 24/24/24 32/32/32
f 26/26/26 33/33/33 28/28/28
f 30/30/30 33/33/33 26/26/26
f 27/27/27 34/34/34 30/30/30
f 31/31/31 34/34/34 27/27/27
f 33/33/33 35/35/35 28/28/28
f 28/28/28 35/35/35 36/36/36
f 30/30/30 37/37/37 33/33/33
f 34/34/34 37/37/37 30/30/30
f 31/31/31 38/38/38 34/34/34
f 38/38/38 31/31/31 39/39/39
f 33/33/33 40/40/40 35/35/35
f 37/37/37 40/40/40 33/33/33
f 34/34/34 41/41/41 37/37/37
f 38/38/38 41/41/41 34/34/34
f 40/40/40 42/42/42 35/35/35
f 35/35/35 42/42/42 43/43/43
f 37/37/37 44/44/44 40/40/40
f 41/41/41 44/44/44 37/37/37
f 38/38/38 45/45/45 41/41/41
f 45/45/45 38/38/38 46/46/46
f 40/40/40 47/47/47 42/42/42
f 44/44/44 47/47/47 40/40/40
f 41/41/41 48/48/48 44/44/44
f 45/45/45 48/48/48 41/41/41
f 47/47/47 49/49/49 42/42/42
f 42/42/42 49/49/49 50/50/50
f 44/44/44 51/51/51 47/47/47
f 48/48/48 51/51/51 44/44/44
f 45/45/45 52/52/52 48/48/48
f 52/52/52 45/45/45 53/53/53
f 47/47/47 54/54/54 49/49/49
f 51/51/51 54/54/54 47/47/47
f 48/48/48 55/55/55 51/51/51
f 52/52/52 55/55/55 48/48/48
f 54/54/54 56/56/56 49/49/49
f 49/49/49 56/56/56 57/57/57
f 51/51/51 58/58/58 54/54/54
f 55/55/55 58/58/58 51/51/51
f 52/52/52 59/59/59 55/55/55
f 59/59/59 52/52/52 60/60/60
f 54/54/54 61/61/61 56/56/56
f 58/58/58 61/61/61 54/54/54
f 55/55/55 62/62/62 58/58/58
f 59/59/59 62/62/62 55/55/55
f 61/61/61 63/63/63 56/56/56
f 56/56/56 63/63/63 64/64/64
f 58/58/58 65/65/65 61/61/61
f 62/62/62 65/65/65 58/58/58
f 59/59/59 66/66/66 62/62/62
f 66/66/66 59/59/59 67/67/67
f 61/61/61 68/68/68 63/63/63
f 65/65/65 68/68/68 61/61/61
f 62/62/62 69/69/69 65/65/65
f 66/66/66 69/69/69 62/62/62
f 68/68/68 70/70/70 63/63/63
f 63/63/63 70/70/70 71/71/71
f 65/65/65 72/72/72 68/68/68
f 69/69/69 72/72/72 65/65/65
f 66/66/66 73/73/73 69/69/69
f 73/73/73 66/66/66 74/74/74
f 68/68/68 75/75/75 70/70/70
f 72/72/72 75/75/75 68/68/68
f 69/69/69 76/76/76 72/72/72
f 73/73/73 76/76/76 69/69/69
f 73/73/73 77/77/77 76/76/76
f 77/77/77 73/73/73 78/78/78
f 77/77/77 79/79/79 76/76/76
f 76/76/76 80/80/80 72/72/72
f 76/76/76 79/79/79 80/80/80
f 72/72/72 80/80/80 75/75/75
f 79/79/79 81/81/81 80/80/80
f 80/80/80 81/81/81 82/82/82
f 80/80/80 82/82/82 75/75/75
f 81/81/81 83/83/83 82/82/82
f 75/75/75 84/84/84 70/70/70
f 75/75/75 82/82/82 84/84/84
f 70/70/70 84/84/84 85/85/85
f 82/82/82 83/83/83 86/86/86
f 82/82/82 86/86/86 84/84/84
f 84/84/84 86/86/86 87/87/87
f 83/83/83 88/88/88 86/86/86
f 86/86/86 88/88/88 89/89/89
