g Fan_Moulin_Rouge_Windmill
v -0.2065559 1.205445E-07 0.5675056
v -0.3914777 0.08844373 0.4512783
v -0.3443977 0.1634217 0.4684139
v -0.5167988 0.1634217 0.2663482
v -0.429809 0.301963 0.2980098
v -0.5634418 0.2135206 0.0408688
v -0.4497865 0.3945344 0.08223613
v -0.5243073 0.2311128 -0.1908321
v -0.4012873 0.4270405 -0.1460565
v -0.4053522 0.2135206 -0.3934806
v -0.2916963 0.3945362 -0.352114
v -0.2246851 0.1634217 -0.5362257
v -0.137696 0.3019642 -0.5045647
v -0.009813312 0.08844434 -0.5973357
v 0.03726554 0.163423 -0.5802001
v 0.2065551 1.205445E-07 -0.5675058
v -0.02634407 7.30896E-07 -0.6033522
v 0.2065551 1.205445E-07 -0.5675058
v -0.2552314 1.341248E-06 -0.5473442
v -0.4452619 1.205445E-07 -0.4080071
v -0.5675068 1.205445E-07 -0.2065554
v -0.009812092 -0.08844165 -0.5973351
v 0.2065551 1.205445E-07 -0.5675058
v -0.2246851 -0.1634203 -0.5362261
v -0.6033527 1.205445E-07 0.02634304
v -0.4053516 -0.2135192 -0.3934809
v 0.03726615 -0.1634215 -0.5802001
v 0.2065551 1.205445E-07 -0.5675058
v -0.1376972 -0.3019628 -0.5045647
v -0.5243073 -0.2311132 -0.1908321
v -0.5473438 1.205445E-07 0.2552307
v 0.1077221 -0.2135204 -0.5545561
v 0.2065551 1.205445E-07 -0.5675058
v -0.2916968 -0.3945336 -0.3521137
v -0.5634425 -0.2135198 0.0408688
v -0.4080079 7.30896E-07 0.4452615
v -0.2065559 1.205445E-07 0.5675056
v -0.007510456 -0.3945324 -0.4571814
v -0.4012885 -0.4270409 -0.1460565
v -0.5167981 -0.1634203 0.2663485
v 0.1908318 -0.2311119 -0.5243073
v 0.2065551 1.205445E-07 -0.5675058
v -0.1215992 -0.5154833 -0.2902038
v -0.4497858 -0.3945348 0.08223644
v -0.3914753 -0.08844348 0.451279
v -0.2065559 1.205445E-07 0.5675056
v 0.1460571 -0.4270403 -0.4012874
v -0.2171748 -0.5579564 -0.07904529
v -0.4298103 -0.3019628 0.2980101
v 0.273941 -0.2135198 -0.4940575
v 0.2065551 1.205445E-07 -0.5675058
v 0.07904533 -0.5579552 -0.2171756
v -0.2796894 -0.5154839 0.1441461
v -0.3443977 -0.1634215 0.4684139
v -0.2065559 1.205445E-07 0.5675056
v 0.2996221 -0.3945336 -0.3453943
v -6.909024E-07 -0.6039269 -3.391144E-07
v -0.2996229 -0.3945342 0.3453933
v 0.3443981 -0.1634215 -0.468414
v 0.2065551 1.205445E-07 -0.5675058
v 0.2796893 -0.5154845 -0.1441466
v -0.07904549 -0.5579564 0.2171746
v -0.2739417 -0.2135204 0.4940577
v -0.2065559 1.205445E-07 0.5675056
v 0.4298101 -0.301964 -0.2980097
v 0.2171746 -0.5579564 0.07904507
v -0.1460554 -0.4270421 0.4012872
v 0.3914751 -0.08844226 -0.451279
v 0.2065551 1.205445E-07 -0.5675058
v 0.4497857 -0.3945336 -0.08223698
v 0.121599 -0.5154845 0.2902029
v -0.190832 -0.2311126 0.5243066
v -0.2065559 1.205445E-07 0.5675056
v 0.5167968 -0.1634215 -0.266349
v 0.4012865 -0.4270409 0.1460562
v 0.007509075 -0.3945348 0.4571804
v 0.4080071 1.205445E-07 -0.4452623
v 0.2065551 1.205445E-07 -0.5675058
v 0.5634417 -0.2135192 -0.04086963
v 0.2916948 -0.3945342 0.3521132
v -0.1077228 -0.2135204 0.5545563
v -0.2065559 1.205445E-07 0.5675056
v 0.5473443 1.205445E-07 -0.2552309
v 0.5243059 -0.2311119 0.1908314
v 0.1376971 -0.3019646 0.5045651
v 0.3914751 0.08844373 -0.4512787
v 0.2065551 1.205445E-07 -0.5675058
v 0.6033525 1.205445E-07 -0.02634311
v 0.4053521 -0.2135198 0.3934805
v -0.03726631 -0.1634215 0.5801997
v -0.2065559 1.205445E-07 0.5675056
v 0.5167962 0.163423 -0.2663494
v 0.5675048 1.205445E-07 0.2065547
v 0.2246844 -0.1634215 0.5362254
v 0.3443975 0.163423 -0.4684136
v 0.2065551 1.205445E-07 -0.5675058
v 0.5634417 0.2135212 -0.04086963
v 0.4452612 -4.898071E-07 0.4080064
v 0.009811931 -0.08844348 0.5973355
v -0.2065559 1.205445E-07 0.5675056
v 0.4298089 0.3019642 -0.2980098
v 0.5243078 0.2311122 0.190832
v 0.2552306 1.205445E-07 0.5473439
v 0.2739428 0.21352 -0.4940573
v 0.2065551 1.205445E-07 -0.5675058
v 0.4497869 0.3945356 -0.08223636
v 0.4053509 0.2135206 0.3934805
v 0.0263433 1.205445E-07 0.603352
v -0.2065559 1.205445E-07 0.5675056
v 0.2996227 0.3945344 -0.345394
v 0.4012865 0.4270423 0.1460562
v 0.2246844 0.1634217 0.5362257
v 0.1908312 0.2311134 -0.5243073
v 0.2065551 1.205445E-07 -0.5675058
v 0.2796893 0.5154835 -0.1441466
v 0.2916961 0.394535 0.352113
v 0.00981132 0.08844434 0.5973352
v -0.2065559 1.205445E-07 0.5675056
v 0.1460564 0.4270411 -0.4012874
v 0.2171746 0.5579566 0.07904477
v 0.1376971 0.301963 0.5045648
v 0.1077227 0.21352 -0.5545561
v 0.2065551 1.205445E-07 -0.5675058
v 0.07904471 0.5579554 -0.217175
v 0.1215978 0.5154848 0.2902029
v -0.03726571 0.1634211 0.5802009
v -0.2065559 1.205445E-07 0.5675056
v -0.007509236 0.3945338 -0.4571808
v -8.055083E-08 0.6039259 -3.391144E-07
v 0.007508464 0.3945344 0.4571801
v 0.03726554 0.163423 -0.5802001
v 0.2065551 1.205445E-07 -0.5675058
v -0.137696 0.3019642 -0.5045647
v -0.1215992 0.5154835 -0.2902034
v -0.2916963 0.3945362 -0.352114
v -0.2171766 0.5579566 -0.07904559
v -0.4012873 0.4270405 -0.1460565
v -0.0790461 0.557956 0.2171746
v -0.2796888 0.5154823 0.1441464
v -0.4497865 0.3945344 0.08223613
v -0.1460578 0.4270411 0.4012867
v -0.2996229 0.3945338 0.3453933
v -0.429809 0.301963 0.2980098
v -0.1077216 0.2135194 0.5545565
v -0.2065559 1.205445E-07 0.5675056
v -0.1908326 0.2311134 0.5243066
v -0.2065559 1.205445E-07 0.5675056
v -0.2739417 0.2135194 0.494058
v -0.2065559 1.205445E-07 0.5675056
v -0.3443977 0.1634217 0.4684139
v -0.2065559 1.205445E-07 0.5675056
vt 0.1962891 0.9287109
vt 0.1989746 0.9233398
vt 0.1962891 0.9233398
vt 0.1989746 0.9179688
vt 0.1962891 0.9179688
vt 0.1989746 0.9125977
vt 0.1962891 0.9125977
vt 0.1989746 0.9067383
vt 0.1962891 0.9067383
vt 0.1989746 0.9013672
vt 0.1962891 0.9013672
vt 0.1989746 0.8959961
vt 0.1962891 0.8959961
vt 0.1989746 0.890625
vt 0.1962891 0.890625
vt 0.1962891 0.8852539
vt 0.2016602 0.890625
vt 0.1989746 0.8852539
vt 0.2016602 0.8959961
vt 0.2016602 0.9013672
vt 0.2016602 0.9067383
vt 0.2044678 0.890625
vt 0.2016602 0.8852539
vt 0.2044678 0.8959961
vt 0.2016602 0.9125977
vt 0.2044678 0.9013672
vt 0.2071533 0.890625
vt 0.2044678 0.8852539
vt 0.2071533 0.8959961
vt 0.2044678 0.9067383
vt 0.2016602 0.9179688
vt 0.2098389 0.890625
vt 0.2071533 0.8852539
vt 0.2071533 0.9013672
vt 0.2044678 0.9125977
vt 0.2016602 0.9233398
vt 0.1989746 0.9287109
vt 0.2098389 0.8959961
vt 0.2071533 0.9067383
vt 0.2044678 0.9179688
vt 0.2125244 0.890625
vt 0.2098389 0.8852539
vt 0.2098389 0.9013672
vt 0.2071533 0.9125977
vt 0.2044678 0.9233398
vt 0.2016602 0.9287109
vt 0.2125244 0.8959961
vt 0.2098389 0.9067383
vt 0.2071533 0.9179688
vt 0.215332 0.890625
vt 0.2125244 0.8852539
vt 0.2125244 0.9013672
vt 0.2098389 0.9125977
vt 0.2071533 0.9233398
vt 0.2044678 0.9287109
vt 0.215332 0.8959961
vt 0.2125244 0.9067383
vt 0.2098389 0.9179688
vt 0.2180176 0.890625
vt 0.215332 0.8852539
vt 0.215332 0.9013672
vt 0.2125244 0.9125977
vt 0.2098389 0.9233398
vt 0.2071533 0.9287109
vt 0.2180176 0.8959961
vt 0.215332 0.9067383
vt 0.2125244 0.9179688
vt 0.2207031 0.890625
vt 0.2180176 0.8852539
vt 0.2180176 0.9013672
vt 0.215332 0.9125977
vt 0.2125244 0.9233398
vt 0.2098389 0.9287109
vt 0.2207031 0.8959961
vt 0.2180176 0.9067383
vt 0.215332 0.9179688
vt 0.2235107 0.890625
vt 0.2207031 0.8852539
vt 0.2207031 0.9013672
vt 0.2180176 0.9125977
vt 0.215332 0.9233398
vt 0.2125244 0.9287109
vt 0.2235107 0.8959961
vt 0.2207031 0.9067383
vt 0.2180176 0.9179688
vt 0.2261963 0.890625
vt 0.2235107 0.8852539
vt 0.2235107 0.9013672
vt 0.2207031 0.9125977
vt 0.2180176 0.9233398
vt 0.215332 0.9287109
vt 0.2261963 0.8959961
vt 0.2235107 0.9067383
vt 0.2207031 0.9179688
vt 0.2288818 0.890625
vt 0.2261963 0.8852539
vt 0.2261963 0.9013672
vt 0.2235107 0.9125977
vt 0.2207031 0.9233398
vt 0.2180176 0.9287109
vt 0.2288818 0.8959961
vt 0.2261963 0.9067383
vt 0.2235107 0.9179688
vt 0.2316895 0.890625
vt 0.2288818 0.8852539
vt 0.2288818 0.9013672
vt 0.2261963 0.9125977
vt 0.2235107 0.9233398
vt 0.2207031 0.9287109
vt 0.2316895 0.8959961
vt 0.2288818 0.9067383
vt 0.2261963 0.9179688
vt 0.234375 0.890625
vt 0.2316895 0.8852539
vt 0.2316895 0.9013672
vt 0.2288818 0.9125977
vt 0.2261963 0.9233398
vt 0.2235107 0.9287109
vt 0.234375 0.8959961
vt 0.2316895 0.9067383
vt 0.2288818 0.9179688
vt 0.2370605 0.890625
vt 0.234375 0.8852539
vt 0.234375 0.9013672
vt 0.2316895 0.9125977
vt 0.2288818 0.9233398
vt 0.2261963 0.9287109
vt 0.2370605 0.8959961
vt 0.234375 0.9067383
vt 0.2316895 0.9179688
vt 0.2398682 0.890625
vt 0.2370605 0.8852539
vt 0.2398682 0.8959961
vt 0.2370605 0.9013672
vt 0.2398682 0.9013672
vt 0.2370605 0.9067383
vt 0.2398682 0.9067383
vt 0.234375 0.9125977
vt 0.2370605 0.9125977
vt 0.2398682 0.9125977
vt 0.234375 0.9179688
vt 0.2370605 0.9179688
vt 0.2398682 0.9179688
vt 0.2316895 0.9233398
vt 0.2288818 0.9287109
vt 0.234375 0.9233398
vt 0.2316895 0.9287109
vt 0.2370605 0.9233398
vt 0.234375 0.9287109
vt 0.2398682 0.9233398
vt 0.2370605 0.9287109
vn -0.342041 -2.384186E-07 0.9394531
vn -0.6630859 0.1542969 0.7324219
vn -0.5810547 0.2849121 0.7626953
vn -0.8618164 0.2751465 0.4260254
vn -0.715332 0.5083008 0.4794922
vn -0.9331055 0.3547363 0.05877686
vn -0.7441406 0.6557617 0.1275635
vn -0.8681641 0.3825684 -0.315918
vn -0.6645508 0.7070313 -0.2418213
vn -0.6767578 0.3547363 -0.6450195
vn -0.4880371 0.6557617 -0.5761719
vn -0.3862305 0.2751465 -0.8803711
vn -0.2398682 0.5083008 -0.8271484
vn -0.03695679 0.1542969 -0.9873047
vn 0.04516602 0.2849121 -0.9575195
vn 0.342041 2.384186E-07 -0.9394531
vn -0.0657959 2.384186E-07 -0.9980469
vn 0.342041 2.384186E-07 -0.9394531
vn -0.4377441 2.384186E-07 -0.8989258
vn -0.7431641 1.788139E-07 -0.6689453
vn -0.9394531 1.192093E-07 -0.342041
vn -0.03695679 -0.1542969 -0.9873047
vn 0.342041 2.384186E-07 -0.9394531
vn -0.3862305 -0.2751465 -0.8803711
vn -0.9995117 0 0.03463745
vn -0.6767578 -0.3547363 -0.6450195
vn 0.04516602 -0.2849121 -0.9575195
vn 0.342041 2.384186E-07 -0.9394531
vn -0.2398682 -0.5083008 -0.8271484
vn -0.8681641 -0.3825684 -0.315918
vn -0.9130859 -1.788139E-07 0.4074707
vn 0.1680908 -0.3723145 -0.9125977
vn 0.342041 2.384186E-07 -0.9394531
vn -0.4880371 -0.6557617 -0.5761719
vn -0.9331055 -0.3547363 0.05877686
vn -0.6918945 -1.192093E-07 0.722168
vn -0.342041 -2.384186E-07 0.9394531
vn -0.02075195 -0.6640625 -0.7475586
vn -0.6645508 -0.7070313 -0.2418213
vn -0.8618164 -0.2751465 0.4260254
vn 0.3129883 -0.4030762 -0.8598633
vn 0.342041 2.384186E-07 -0.9394531
vn -0.2054443 -0.8569336 -0.4731445
vn -0.7441406 -0.6557617 0.1275635
vn -0.6630859 -0.1542969 0.7324219
vn -0.342041 -2.384186E-07 0.9394531
vn 0.237793 -0.71875 -0.6533203
vn -0.3596191 -0.9238281 -0.1308594
vn -0.715332 -0.5083008 0.4794922
vn 0.4580078 -0.3723145 -0.8071289
vn 0.342041 2.384186E-07 -0.9394531
vn 0.1280518 -0.9272461 -0.3518066
vn -0.4614258 -0.8569336 0.2304688
vn -0.5810547 -0.2849121 0.7626953
vn -0.342041 -2.384186E-07 0.9394531
vn 0.4963379 -0.6640625 -0.559082
vn -3.576279E-07 -1 -2.980232E-07
vn -0.4963379 -0.6640625 0.559082
vn 0.5810547 -0.2849121 -0.7626953
vn 0.342041 2.384186E-07 -0.9394531
vn 0.4614258 -0.8569336 -0.2304688
vn -0.1280518 -0.9272461 0.3518066
vn -0.4580078 -0.3723145 0.8071289
vn -0.342041 -2.384186E-07 0.9394531
vn 0.715332 -0.5083008 -0.4794922
vn 0.3596191 -0.9238281 0.1308594
vn -0.237793 -0.71875 0.6533203
vn 0.6630859 -0.1542969 -0.7324219
vn 0.342041 2.384186E-07 -0.9394531
vn 0.7441406 -0.6557617 -0.1275635
vn 0.2054443 -0.8569336 0.4731445
vn -0.3129883 -0.4030762 0.8598633
vn -0.342041 -2.384186E-07 0.9394531
vn 0.8618164 -0.2751465 -0.4260254
vn 0.6645508 -0.7070313 0.2418213
vn 0.02075195 -0.6640625 0.7475586
vn 0.6918945 2.980232E-07 -0.722168
vn 0.342041 2.384186E-07 -0.9394531
vn 0.9331055 -0.3547363 -0.05877686
vn 0.4880371 -0.6557617 0.5761719
vn -0.1680908 -0.3723145 0.9125977
vn -0.342041 -2.384186E-07 0.9394531
vn 0.9130859 2.980232E-07 -0.4074707
vn 0.8681641 -0.3825684 0.315918
vn 0.2398682 -0.5083008 0.8271484
vn 0.6630859 0.1542969 -0.7324219
vn 0.342041 2.384186E-07 -0.9394531
vn 0.9995117 2.980232E-07 -0.03463745
vn 0.6767578 -0.3547363 0.6450195
vn -0.04516602 -0.2849121 0.9575195
vn -0.342041 -2.384186E-07 0.9394531
vn 0.8618164 0.2751465 -0.4260254
vn 0.9394531 2.980232E-07 0.342041
vn 0.3862305 -0.2751465 0.8803711
vn 0.5810547 0.2849121 -0.7626953
vn 0.342041 2.384186E-07 -0.9394531
vn 0.9331055 0.3547363 -0.05877686
vn 0.7431641 0 0.6689453
vn 0.03695679 -0.1542969 0.9873047
vn -0.342041 -2.384186E-07 0.9394531
vn 0.715332 0.5083008 -0.4794922
vn 0.8681641 0.3825684 0.315918
vn 0.4377441 0 0.8989258
vn 0.4580078 0.3723145 -0.8071289
vn 0.342041 2.384186E-07 -0.9394531
vn 0.7441406 0.6557617 -0.1275635
vn 0.6767578 0.3547363 0.6450195
vn 0.0657959 -1.788139E-07 0.9980469
vn -0.342041 -2.384186E-07 0.9394531
vn 0.4963379 0.6640625 -0.559082
vn 0.6645508 0.7070313 0.2418213
vn 0.3862305 0.2751465 0.8803711
vn 0.3129883 0.4030762 -0.8598633
vn 0.342041 2.384186E-07 -0.9394531
vn 0.4614258 0.8569336 -0.2304688
vn 0.4880371 0.6557617 0.5761719
vn 0.03695679 0.1542969 0.9873047
vn -0.342041 -2.384186E-07 0.9394531
vn 0.237793 0.71875 -0.6533203
vn 0.3596191 0.9238281 0.1308594
vn 0.2398682 0.5083008 0.8271484
vn 0.1680908 0.3723145 -0.9125977
vn 0.342041 2.384186E-07 -0.9394531
vn 0.1280518 0.9272461 -0.3518066
vn 0.2054443 0.8569336 0.4731445
vn -0.04516602 0.2849121 0.9575195
vn -0.342041 -2.384186E-07 0.9394531
vn -0.02075195 0.6640625 -0.7475586
vn -7.748604E-07 1 0
vn 0.02075195 0.6640625 0.7475586
vn 0.04516602 0.2849121 -0.9575195
vn 0.342041 2.384186E-07 -0.9394531
vn -0.2398682 0.5083008 -0.8271484
vn -0.2054443 0.8569336 -0.4731445
vn -0.4880371 0.6557617 -0.5761719
vn -0.3596191 0.9238281 -0.1308594
vn -0.6645508 0.7070313 -0.2418213
vn -0.1280518 0.9272461 0.3518066
vn -0.4614258 0.8569336 0.2304688
vn -0.7441406 0.6557617 0.1275635
vn -0.237793 0.71875 0.6533203
vn -0.4963379 0.6640625 0.559082
vn -0.715332 0.5083008 0.4794922
vn -0.1680908 0.3723145 0.9125977
vn -0.342041 -2.384186E-07 0.9394531
vn -0.3129883 0.4030762 0.8598633
vn -0.342041 -2.384186E-07 0.9394531
vn -0.4580078 0.3723145 0.8071289
vn -0.342041 -2.384186E-07 0.9394531
vn -0.5810547 0.2849121 0.7626953
vn -0.342041 -2.384186E-07 0.9394531
g Fan_Moulin_Rouge_Windmill_0
f 3/3/3 2/2/2 1/1/1
f 4/4/4 2/2/2 3/3/3
f 5/5/5 4/4/4 3/3/3
f 6/6/6 4/4/4 5/5/5
f 7/7/7 6/6/6 5/5/5
f 8/8/8 6/6/6 7/7/7
f 9/9/9 8/8/8 7/7/7
f 10/10/10 8/8/8 9/9/9
f 11/11/11 10/10/10 9/9/9
f 12/12/12 10/10/10 11/11/11
f 13/13/13 12/12/12 11/11/11
f 14/14/14 12/12/12 13/13/13
f 15/15/15 14/14/14 13/13/13
f 14/14/14 15/15/15 16/16/16
f 14/14/14 17/17/17 12/12/12
f 17/17/17 14/14/14 18/18/18
f 12/12/12 19/19/19 10/10/10
f 17/17/17 19/19/19 12/12/12
f 10/10/10 20/20/20 8/8/8
f 19/19/19 20/20/20 10/10/10
f 8/8/8 21/21/21 6/6/6
f 20/20/20 21/21/21 8/8/8
f 17/17/17 22/22/22 19/19/19
f 22/22/22 17/17/17 23/23/23
f 19/19/19 24/24/24 20/20/20
f 22/22/22 24/24/24 19/19/19
f 21/21/21 25/25/25 6/6/6
f 6/6/6 25/25/25 4/4/4
f 20/20/20 26/26/26 21/21/21
f 24/24/24 26/26/26 20/20/20
f 22/22/22 27/27/27 24/24/24
f 27/27/27 22/22/22 28/28/28
f 27/27/27 29/29/29 24/24/24
f 24/24/24 29/29/29 26/26/26
f 26/26/26 30/30/30 21/21/21
f 21/21/21 30/30/30 25/25/25
f 25/25/25 31/31/31 4/4/4
f 4/4/4 31/31/31 2/2/2
f 27/27/27 32/32/32 29/29/29
f 32/32/32 27/27/27 33/33/33
f 29/29/29 34/34/34 26/26/26
f 26/26/26 34/34/34 30/30/30
f 30/30/30 35/35/35 25/25/25
f 25/25/25 35/35/35 31/31/31
f 31/31/31 36/36/36 2/2/2
f 2/2/2 36/36/36 37/37/37
f 32/32/32 38/38/38 29/29/29
f 29/29/29 38/38/38 34/34/34
f 34/34/34 39/39/39 30/30/30
f 30/30/30 39/39/39 35/35/35
f 31/31/31 40/40/40 36/36/36
f 35/35/35 40/40/40 31/31/31
f 32/32/32 41/41/41 38/38/38
f 41/41/41 32/32/32 42/42/42
f 38/38/38 43/43/43 34/34/34
f 34/34/34 43/43/43 39/39/39
f 39/39/39 44/44/44 35/35/35
f 35/35/35 44/44/44 40/40/40
f 40/40/40 45/45/45 36/36/36
f 36/36/36 45/45/45 46/46/46
f 41/41/41 47/47/47 38/38/38
f 38/38/38 47/47/47 43/43/43
f 43/43/43 48/48/48 39/39/39
f 39/39/39 48/48/48 44/44/44
f 40/40/40 49/49/49 45/45/45
f 44/44/44 49/49/49 40/40/40
f 41/41/41 50/50/50 47/47/47
f 50/50/50 41/41/41 51/51/51
f 47/47/47 52/52/52 43/43/43
f 43/43/43 52/52/52 48/48/48
f 48/48/48 53/53/53 44/44/44
f 44/44/44 53/53/53 49/49/49
f 49/49/49 54/54/54 45/45/45
f 45/45/45 54/54/54 55/55/55
f 50/50/50 56/56/56 47/47/47
f 47/47/47 56/56/56 52/52/52
f 52/52/52 57/57/57 48/48/48
f 48/48/48 57/57/57 53/53/53
f 49/49/49 58/58/58 54/54/54
f 53/53/53 58/58/58 49/49/49
f 50/50/50 59/59/59 56/56/56
f 59/59/59 50/50/50 60/60/60
f 56/56/56 61/61/61 52/52/52
f 52/52/52 61/61/61 57/57/57
f 57/57/57 62/62/62 53/53/53
f 53/53/53 62/62/62 58/58/58
f 58/58/58 63/63/63 54/54/54
f 54/54/54 63/63/63 64/64/64
f 59/59/59 65/65/65 56/56/56
f 56/56/56 65/65/65 61/61/61
f 61/61/61 66/66/66 57/57/57
f 57/57/57 66/66/66 62/62/62
f 58/58/58 67/67/67 63/63/63
f 62/62/62 67/67/67 58/58/58
f 59/59/59 68/68/68 65/65/65
f 68/68/68 59/59/59 69/69/69
f 65/65/65 70/70/70 61/61/61
f 61/61/61 70/70/70 66/66/66
f 66/66/66 71/71/71 62/62/62
f 62/62/62 71/71/71 67/67/67
f 67/67/67 72/72/72 63/63/63
f 63/63/63 72/72/72 73/73/73
f 68/68/68 74/74/74 65/65/65
f 65/65/65 74/74/74 70/70/70
f 70/70/70 75/75/75 66/66/66
f 66/66/66 75/75/75 71/71/71
f 67/67/67 76/76/76 72/72/72
f 71/71/71 76/76/76 67/67/67
f 68/68/68 77/77/77 74/74/74
f 77/77/77 68/68/68 78/78/78
f 74/74/74 79/79/79 70/70/70
f 70/70/70 79/79/79 75/75/75
f 75/75/75 80/80/80 71/71/71
f 71/71/71 80/80/80 76/76/76
f 76/76/76 81/81/81 72/72/72
f 72/72/72 81/81/81 82/82/82
f 77/77/77 83/83/83 74/74/74
f 74/74/74 83/83/83 79/79/79
f 79/79/79 84/84/84 75/75/75
f 75/75/75 84/84/84 80/80/80
f 76/76/76 85/85/85 81/81/81
f 80/80/80 85/85/85 76/76/76
f 77/77/77 86/86/86 83/83/83
f 86/86/86 77/77/77 87/87/87
f 83/83/83 88/88/88 79/79/79
f 79/79/79 88/88/88 84/84/84
f 84/84/84 89/89/89 80/80/80
f 80/80/80 89/89/89 85/85/85
f 85/85/85 90/90/90 81/81/81
f 81/81/81 90/90/90 91/91/91
f 86/86/86 92/92/92 83/83/83
f 83/83/83 92/92/92 88/88/88
f 88/88/88 93/93/93 84/84/84
f 84/84/84 93/93/93 89/89/89
f 85/85/85 94/94/94 90/90/90
f 89/89/89 94/94/94 85/85/85
f 86/86/86 95/95/95 92/92/92
f 95/95/95 86/86/86 96/96/96
f 92/92/92 97/97/97 88/88/88
f 88/88/88 97/97/97 93/93/93
f 93/93/93 98/98/98 89/89/89
f 89/89/89 98/98/98 94/94/94
f 94/94/94 99/99/99 90/90/90
f 90/90/90 99/99/99 100/100/100
f 95/95/95 101/101/101 92/92/92
f 92/92/92 101/101/101 97/97/97
f 97/97/97 102/102/102 93/93/93
f 93/93/93 102/102/102 98/98/98
f 94/94/94 103/103/103 99/99/99
f 98/98/98 103/103/103 94/94/94
f 95/95/95 104/104/104 101/101/101
f 104/104/104 95/95/95 105/105/105
f 101/101/101 106/106/106 97/97/97
f 97/97/97 106/106/106 102/102/102
f 102/102/102 107/107/107 98/98/98
f 98/98/98 107/107/107 103/103/103
f 103/103/103 108/108/108 99/99/99
f 99/99/99 108/108/108 109/109/109
f 104/104/104 110/110/110 101/101/101
f 101/101/101 110/110/110 106/106/106
f 106/106/106 111/111/111 102/102/102
f 102/102/102 111/111/111 107/107/107
f 103/103/103 112/112/112 108/108/108
f 107/107/107 112/112/112 103/103/103
f 104/104/104 113/113/113 110/110/110
f 113/113/113 104/104/104 114/114/114
f 110/110/110 115/115/115 106/106/106
f 106/106/106 115/115/115 111/111/111
f 111/111/111 116/116/116 107/107/107
f 107/107/107 116/116/116 112/112/112
f 112/112/112 117/117/117 108/108/108
f 108/108/108 117/117/117 118/118/118
f 113/113/113 119/119/119 110/110/110
f 110/110/110 119/119/119 115/115/115
f 115/115/115 120/120/120 111/111/111
f 111/111/111 120/120/120 116/116/116
f 112/112/112 121/121/121 117/117/117
f 116/116/116 121/121/121 112/112/112
f 113/113/113 122/122/122 119/119/119
f 122/122/122 113/113/113 123/123/123
f 119/119/119 124/124/124 115/115/115
f 115/115/115 124/124/124 120/120/120
f 120/120/120 125/125/125 116/116/116
f 116/116/116 125/125/125 121/121/121
f 121/121/121 126/126/126 117/117/117
f 117/117/117 126/126/126 127/127/127
f 122/122/122 128/128/128 119/119/119
f 119/119/119 128/128/128 124/124/124
f 124/124/124 129/129/129 120/120/120
f 120/120/120 129/129/129 125/125/125
f 121/121/121 130/130/130 126/126/126
f 125/125/125 130/130/130 121/121/121
f 122/122/122 131/131/131 128/128/128
f 131/131/131 122/122/122 132/132/132
f 131/131/131 133/133/133 128/128/128
f 128/128/128 134/134/134 124/124/124
f 128/128/128 133/133/133 134/134/134
f 124/124/124 134/134/134 129/129/129
f 133/133/133 135/135/135 134/134/134
f 134/134/134 135/135/135 136/136/136
f 134/134/134 136/136/136 129/129/129
f 135/135/135 137/137/137 136/136/136
f 129/129/129 138/138/138 125/125/125
f 129/129/129 136/136/136 138/138/138
f 125/125/125 138/138/138 130/130/130
f 136/136/136 137/137/137 139/139/139
f 136/136/136 139/139/139 138/138/138
f 137/137/137 140/140/140 139/139/139
f 138/138/138 141/141/141 130/130/130
f 138/138/138 139/139/139 141/141/141
f 139/139/139 140/140/140 142/142/142
f 139/139/139 142/142/142 141/141/141
f 140/140/140 143/143/143 142/142/142
f 130/130/130 141/141/141 144/144/144
f 130/130/130 144/144/144 126/126/126
f 126/126/126 144/144/144 145/145/145
f 141/141/141 146/146/146 144/144/144
f 141/141/141 142/142/142 146/146/146
f 144/144/144 146/146/146 147/147/147
f 142/142/142 143/143/143 148/148/148
f 142/142/142 148/148/148 146/146/146
f 146/146/146 148/148/148 149/149/149
f 143/143/143 150/150/150 148/148/148
f 148/148/148 150/150/150 151/151/151
