g Fan_Moulin_Rouge_Windmill_3
v 1.473479 -2.407897 0.5363006
v 2.285201 -1.597243 0.7555962
v 2.247987 -1.583685 0.818199
v 1.510693 -2.421455 0.473697
v 2.337922 -1.634281 0.7190403
v 2.433014 -1.735478 0.7536512
v 2.449905 -1.772518 0.8155433
v 1.563414 -2.458495 0.437142
v 2.392026 -1.68488 0.7183294
v 1.658507 -2.559691 0.4717524
v 1.675397 -2.596729 0.5336445
v 2.438171 -1.786074 0.8874204
v 1.663664 -2.610286 0.6055216
v 1.617518 -2.509092 0.4364301
v 1.510693 -2.421455 0.473697
v 1.473479 -2.407897 0.5363006
v 1.675397 -2.596729 0.5336445
v 1.663664 -2.610286 0.6055216
v 1.461746 -2.421455 0.608178
v 2.247987 -1.583685 0.818199
v 1.62645 -2.596729 0.6681252
v 2.400958 -1.772518 0.950024
v 2.438171 -1.786074 0.8874204
v 2.449905 -1.772518 0.8155433
v 2.285201 -1.597243 0.7555962
v 2.236254 -1.597243 0.8900771
v 1.478635 -2.458494 0.6700698
v 2.253142 -1.634282 0.9519681
v 2.348236 -1.735478 0.9865791
v 1.573728 -2.559691 0.7046804
v 1.519624 -2.509092 0.7053919
v 2.294132 -1.68488 0.987291
v 0.2647149 -0.08456098 0.09634881
v 2.837422 -2.823453 0.9565871
v 2.825688 -2.809895 1.028465
v 0.2764483 -0.09811933 0.02447107
v 2.820532 -2.860493 0.8946952
v 2.672717 -2.998728 0.8966392
v 0.2595581 -0.1351591 -0.03742072
v 0.1117438 -0.273394 -0.0354769
v 2.635504 -3.012286 0.9592426
v 0.07453001 -0.2869517 0.0271264
v 0.1644653 -0.2363548 -0.07203177
v 2.725439 -2.961687 0.8600843
v 2.779543 -2.91109 0.8593724
v 0.2185693 -0.1857567 -0.07274344
v 0.2764483 -0.09811933 0.02447107
v 0.07453001 -0.2869517 0.0271264
v 0.1117438 -0.273394 -0.0354769
v 0.2647149 -0.08456098 0.09634881
v 0.06279661 -0.2733946 0.09900384
v 0.2275012 -0.09811933 0.158952
v 2.825688 -2.809895 1.028465
v 2.62377 -2.998728 1.03112
v 2.635504 -3.012286 0.9592426
v 2.837422 -2.823453 0.9565871
v 2.672717 -2.998728 0.8966392
v 2.788475 -2.823453 1.091068
v 2.64066 -2.961688 1.093012
v 0.07968748 -0.2363542 0.1608961
v 0.174779 -0.1351591 0.1955068
v 2.735753 -2.860493 1.127623
v 2.681649 -2.91109 1.128334
v 0.120675 -0.1857573 0.1962185
v 2.314813 -3.565527 0.7664092
v 2.290336 -3.592613 0.8336544
v 2.830668 -3.017601 1.030325
v 1.832374 -3.052121 0.5908124
v 1.79517 -3.065666 0.6534249
v 2.842418 -3.004058 0.9584466
v 3.371017 -2.44259 1.226948
v 1.032231 -2.200618 0.2995776
v 0.9950244 -2.214164 0.3621877
v 3.370011 -2.44259 1.150434
v 2.875849 -1.915645 1.046727
v 0.5497997 -1.68722 0.1239836
v 0.4998608 -1.68722 0.1819592
v 2.887585 -1.929202 0.9748495
v 1.58053 -0.5371971 0.5752828
v 1.077404 -1.125759 0.3160125
v 1.040195 -1.112208 0.3786208
v 1.605005 -0.5643016 0.5080405
v 1.084949 -2.163584 0.26301
v 0.6373168 -1.687218 0.1000831
v 1.130123 -1.162793 0.2794487
v 1.622923 -0.6383733 0.4588118
v 2.870696 -1.96624 0.9129564
v 3.318315 -2.44259 1.075874
v 1.885091 -3.01509 0.5542415
v 2.825544 -2.96703 0.8965432
v 2.332732 -3.491465 0.7171714
v 1.184229 -1.21339 0.2787265
v 1.629482 -0.7395653 0.4407866
v 2.829709 -2.016837 0.877632
v 0.7389672 -1.68722 0.1166644
v 3.22978 -2.442591 1.023246
v 1.139055 -2.112989 0.2622838
v 1.939198 -2.964497 0.5535116
v 2.339297 -3.390279 0.6991354
v 2.784567 -2.916436 0.861201
v 2.775606 -2.067435 0.8783419
v 3.12813 -2.442591 1.006652
v 2.730468 -2.865835 0.8618908
v 2.332746 -3.289076 0.7171332
v 1.980196 -2.913896 0.588818
v 1.180051 -2.062389 0.297594
v 1.622929 -0.840764 0.4587967
v 0.827511 -1.68722 0.1692822
v 1.225222 -1.263988 0.3140401
v 3.040602 -2.442591 1.030539
v 2.677739 -2.828783 0.8984258
v 2.314836 -3.214976 0.7663433
v 1.9971 -2.876847 0.6507007
v 1.196952 -2.025342 0.3594781
v 2.722883 -2.104476 0.9148951
v 1.605015 -0.9148527 0.5080143
v 1.242121 -1.301035 0.3759272
v 0.8792218 -1.68722 0.2438384
v 2.290363 -3.18783 0.8335778
v 1.98538 -2.863276 0.7225779
v 2.640513 -2.81521 0.961018
v 1.185229 -2.011774 0.4313557
v 0.8802459 -1.68722 0.3203557
v 2.990647 -2.44259 1.088505
v 1.230395 -1.314599 0.4478042
v 1.580542 -0.941978 0.5752525
v 2.685668 -2.118036 0.9774975
v 2.265888 -3.214918 0.9008236
v 2.290363 -3.18783 0.8335778
v 2.640513 -2.81521 0.961018
v 1.948177 -2.87682 0.7851902
v 1.98538 -2.863276 0.7225779
v 2.628764 -2.828753 1.032896
v 2.990647 -2.44259 1.088505
v 1.148024 -2.025323 0.4939661
v 1.185229 -2.011774 0.4313557
v 2.991654 -2.44259 1.165019
v 2.685668 -2.118036 0.9774975
v 0.8303082 -1.687222 0.3783314
v 0.8802459 -1.68722 0.3203557
v 2.673933 -2.104479 1.049375
v 1.580542 -0.941978 0.5752525
v 1.193187 -1.301048 0.5104125
v 1.230395 -1.314599 0.4478042
v 1.556067 -0.9148747 0.6424949
v 1.095306 -2.062354 0.5305335
v 0.7427893 -1.687221 0.4022312
v 1.140468 -1.264015 0.5469764
v 1.538149 -0.8408037 0.691724
v 2.690822 -2.067441 1.111268
v 3.043351 -2.442591 1.23958
v 1.89546 -2.91385 0.8217613
v 2.645638 -2.865781 1.094799
v 2.247966 -3.288977 0.9500608
v 1.086361 -1.213419 0.5476983
v 1.531589 -0.7396104 0.7097486
v 2.731809 -2.016844 1.146592
v 0.6411389 -1.68722 0.3856501
v 3.131886 -2.442592 1.292208
v 1.041199 -2.11295 0.5312597
v 1.841352 -2.964445 0.8224909
v 2.241404 -3.390165 0.9680972
v 2.686614 -2.916373 1.130141
v 2.785913 -1.966246 1.145883
v 3.233536 -2.442591 1.308802
v 2.740714 -2.966975 1.129452
v 2.247955 -3.491369 0.9500991
v 1.800355 -3.015046 0.7871845
v 1.000203 -2.16355 0.4959499
v 1.538144 -0.6384123 0.6917394
v 0.5525951 -1.68722 0.3330321
v 1.045369 -1.162819 0.5123852
v 3.321063 -2.442591 1.284915
v 2.793442 -3.004028 1.092917
v 2.265865 -3.565469 0.9008896
v 1.783451 -3.052096 0.725302
v 0.983302 -2.200597 0.4340652
v 2.838634 -1.929204 1.109329
v 1.556058 -0.5643235 0.6425214
v 1.028468 -1.125773 0.450498
v 0.5008838 -1.68722 0.2584759
v 2.290336 -3.592613 0.8336544
v 1.79517 -3.065666 0.6534249
v 2.830668 -3.017601 1.030325
v 0.9950244 -2.214164 0.3621877
v 0.4998608 -1.68722 0.1819592
v 3.371017 -2.44259 1.226948
v 1.040195 -1.112208 0.3786208
v 1.58053 -0.5371971 0.5752828
v 2.875849 -1.915645 1.046727
vt 0.2929688 0.9140625
vt 0.2700195 0.9145508
vt 0.2700195 0.9140625
vt 0.2929688 0.9145508
vt 0.2700195 0.9150391
vt 0.2700195 0.9169922
vt 0.2700195 0.9179688
vt 0.2929688 0.9150391
vt 0.2700195 0.9160156
vt 0.2929688 0.9169922
vt 0.2929688 0.9179688
vt 0.2700195 0.918457
vt 0.2929688 0.918457
vt 0.2929688 0.9160156
vt 0.2929688 0.9145508
vt 0.2929688 0.9140625
vt 0.2929688 0.9179688
vt 0.2929688 0.918457
vt 0.2929688 0.9145508
vt 0.2700195 0.9140625
vt 0.2929688 0.9179688
vt 0.2700195 0.9179688
vt 0.2700195 0.918457
vt 0.2700195 0.9179688
vt 0.2700195 0.9145508
vt 0.2700195 0.9145508
vt 0.2929688 0.9150391
vt 0.2700195 0.9150391
vt 0.2700195 0.9169922
vt 0.2929688 0.9169922
vt 0.2929688 0.9160156
vt 0.2700195 0.9160156
vt 0.2785645 0.8764648
vt 0.2788086 0.9331055
vt 0.2785645 0.9331055
vt 0.2788086 0.8764648
vt 0.2797852 0.9331055
vt 0.2836914 0.9331055
vt 0.2797852 0.8764648
vt 0.2836914 0.8764648
vt 0.2841797 0.9331055
vt 0.2841797 0.8764648
vt 0.2827148 0.8764648
vt 0.2827148 0.9331055
vt 0.28125 0.9331055
vt 0.28125 0.8764648
vt 0.2788086 0.8764648
vt 0.2841797 0.8764648
vt 0.2836914 0.8764648
vt 0.2785645 0.8764648
vt 0.2836914 0.8764648
vt 0.2788086 0.8764648
vt 0.2785645 0.9331055
vt 0.2836914 0.9331055
vt 0.2841797 0.9331055
vt 0.2788086 0.9331055
vt 0.2836914 0.9331055
vt 0.2788086 0.9331055
vt 0.2827148 0.9331055
vt 0.2827148 0.8764648
vt 0.2797852 0.8764648
vt 0.2797852 0.9331055
vt 0.28125 0.9331055
vt 0.28125 0.8764648
vt 0.296875 0.9350586
vt 0.2973633 0.9355469
vt 0.28125 0.9355469
vt 0.296875 0.9243164
vt 0.2973633 0.9243164
vt 0.28125 0.9350586
vt 0.2653809 0.9355469
vt 0.296875 0.9067383
vt 0.2973633 0.9067383
vt 0.265625 0.9350586
vt 0.2653809 0.9243164
vt 0.296875 0.8959961
vt 0.2973633 0.8959961
vt 0.265625 0.9243164
vt 0.2653809 0.8959961
vt 0.28125 0.8959961
vt 0.28125 0.8959961
vt 0.265625 0.8959961
vt 0.2958984 0.9067383
vt 0.2958984 0.8969727
vt 0.28125 0.8969727
vt 0.2666016 0.8969727
vt 0.2666016 0.9243164
vt 0.2666016 0.9345703
vt 0.2958984 0.9243164
vt 0.28125 0.9345703
vt 0.2958984 0.9345703
vt 0.28125 0.8979492
vt 0.2680664 0.8979492
vt 0.2680664 0.9243164
vt 0.2944336 0.8979492
vt 0.2680664 0.9331055
vt 0.2944336 0.9067383
vt 0.2944336 0.9243164
vt 0.2944336 0.9331055
vt 0.28125 0.9331055
vt 0.2695313 0.9243164
vt 0.2695313 0.9321289
vt 0.28125 0.9321289
vt 0.2932129 0.9321289
vt 0.2932129 0.9243164
vt 0.2932129 0.9067383
vt 0.2695313 0.8989258
vt 0.2932129 0.8989258
vt 0.28125 0.8989258
vt 0.2705078 0.9316406
vt 0.28125 0.9316406
vt 0.2919922 0.9316406
vt 0.2919922 0.9243164
vt 0.2919922 0.9067383
vt 0.2705078 0.9243164
vt 0.2705078 0.8999023
vt 0.28125 0.8999023
vt 0.2919922 0.8999023
vt 0.291748 0.9311523
vt 0.291748 0.9243164
vt 0.28125 0.9311523
vt 0.291748 0.9067383
vt 0.291748 0.8999023
vt 0.2709961 0.9311523
vt 0.28125 0.8999023
vt 0.2709961 0.8999023
vt 0.2709961 0.9243164
vt 0.2919922 0.9316406
vt 0.291748 0.9311523
vt 0.28125 0.9311523
vt 0.2919922 0.9243164
vt 0.291748 0.9243164
vt 0.28125 0.9316406
vt 0.2709961 0.9311523
vt 0.2919922 0.9067383
vt 0.291748 0.9067383
vt 0.2705078 0.9316406
vt 0.2709961 0.9243164
vt 0.2919922 0.8999023
vt 0.291748 0.8999023
vt 0.2705078 0.9243164
vt 0.2709961 0.8999023
vt 0.28125 0.8999023
vt 0.28125 0.8999023
vt 0.2705078 0.8999023
vt 0.2932129 0.9067383
vt 0.2932129 0.8989258
vt 0.28125 0.8989258
vt 0.2695313 0.8989258
vt 0.2695313 0.9243164
vt 0.2695313 0.9321289
vt 0.2932129 0.9243164
vt 0.28125 0.9321289
vt 0.2932129 0.9321289
vt 0.28125 0.8979492
vt 0.2680664 0.8979492
vt 0.2680664 0.9243164
vt 0.2944336 0.8979492
vt 0.2680664 0.9331055
vt 0.2944336 0.9067383
vt 0.2944336 0.9243164
vt 0.2944336 0.9331055
vt 0.28125 0.9331055
vt 0.2666016 0.9243164
vt 0.2666016 0.9345703
vt 0.28125 0.9345703
vt 0.2958984 0.9345703
vt 0.2958984 0.9243164
vt 0.2958984 0.9067383
vt 0.2666016 0.8969727
vt 0.2958984 0.8969727
vt 0.28125 0.8969727
vt 0.265625 0.9350586
vt 0.28125 0.9350586
vt 0.296875 0.9350586
vt 0.296875 0.9243164
vt 0.296875 0.9067383
vt 0.265625 0.9243164
vt 0.265625 0.8959961
vt 0.28125 0.8959961
vt 0.296875 0.8959961
vt 0.2973633 0.9355469
vt 0.2973633 0.9243164
vt 0.28125 0.9355469
vt 0.2973633 0.9067383
vt 0.2973633 0.8959961
vt 0.2653809 0.9355469
vt 0.28125 0.8959961
vt 0.2653809 0.8959961
vt 0.2653809 0.9243164
vn -0.9140625 0.232666 -0.3325195
vn 0.002965927 0.8916016 -0.4523926
vn -0.2186279 0.9726563 -0.07958984
vn -0.6923828 0.1519775 -0.7055664
vn 0.3168945 0.6713867 -0.6699219
vn 0.8833008 0.06860352 -0.4638672
vn 0.9838867 -0.1519775 -0.09539795
vn -0.378418 -0.06860352 -0.9233398
vn 0.6391602 0.369873 -0.6743164
vn 0.1879883 -0.6713867 -0.7167969
vn 0.2885742 -0.8916016 -0.3483887
vn 0.9140625 -0.232666 0.3325195
vn 0.2186279 -0.9726563 0.07958984
vn -0.05615234 -0.369873 -0.9272461
vn -0.6923828 0.1519775 -0.7055664
vn -0.9140625 0.232666 -0.3325195
vn 0.2885742 -0.8916016 -0.3483887
vn 0.2186279 -0.9726563 0.07958984
vn -0.9838867 0.1519775 0.09539795
vn -0.2186279 0.9726563 -0.07958984
vn -0.002962112 -0.8916016 0.4523926
vn 0.6923828 -0.1519775 0.7055664
vn 0.9140625 -0.232666 0.3325195
vn 0.9838867 -0.1519775 -0.09539795
vn 0.002965927 0.8916016 -0.4523926
vn -0.2885742 0.8916016 0.3483887
vn -0.8833008 -0.06860352 0.4638672
vn -0.1879883 0.6713867 0.7167969
vn 0.378418 0.06860352 0.9233398
vn -0.3168945 -0.6713867 0.6699219
vn -0.6391602 -0.369873 0.6743164
vn 0.05615234 0.369873 0.9272461
vn 0.5322266 0.8242188 0.1936035
vn 0.8549805 0.4729004 -0.2119141
vn 0.7744141 0.565918 0.2819824
vn 0.612793 0.730957 -0.300293
vn 0.7392578 0.2185059 -0.637207
vn -0.2763672 -0.730957 -0.6235352
vn 0.496582 0.4768066 -0.7255859
vn -0.519043 -0.4729004 -0.7119141
vn -0.5322266 -0.8242188 -0.1936035
vn -0.7744141 -0.565918 -0.2819824
vn -0.1567383 -0.2185059 -0.9633789
vn 0.08587646 -0.4768066 -0.875
vn 0.4575195 -0.1290283 -0.8798828
vn 0.2149658 0.1290283 -0.9682617
vn 0.612793 0.730957 -0.300293
vn -0.7744141 -0.565918 -0.2819824
vn -0.519043 -0.4729004 -0.7119141
vn 0.5322266 0.8242188 0.1936035
vn -0.8549805 -0.4729004 0.2119141
vn 0.2763672 0.730957 0.6235352
vn 0.7744141 0.565918 0.2819824
vn -0.612793 -0.730957 0.300293
vn -0.5322266 -0.8242188 -0.1936035
vn 0.8549805 0.4729004 -0.2119141
vn -0.2763672 -0.730957 -0.6235352
vn 0.519043 0.4729004 0.7119141
vn -0.496582 -0.4768066 0.7255859
vn -0.7392578 -0.2185059 0.637207
vn -0.08587646 0.4768066 0.875
vn 0.1567383 0.2185059 0.9633789
vn -0.2149658 -0.1290283 0.9682617
vn -0.4575195 0.1290283 0.8798828
vn 0.2225342 -0.8354492 -0.5019531
vn 0.04135132 -0.9990234 0.01538849
vn 0.6645508 -0.7070313 0.2420654
vn -0.40625 -0.6132813 -0.6772461
vn -0.6645508 -0.7070313 -0.2415771
vn 0.746582 -0.6147461 -0.2543945
vn 0.9389648 -0.04412842 0.3417969
vn -0.40625 -0.6132813 -0.6772461
vn -0.6645508 -0.7070313 -0.2416992
vn 0.9726563 -0.03741455 -0.229248
vn 0.6645508 0.7070313 0.2419434
vn -0.5976563 0.03738403 -0.8007813
vn -0.9389648 0.04412842 -0.3415527
vn 0.746582 0.6137695 -0.2568359
vn 0.3596191 0.9238281 0.1309814
vn -0.4084473 0.6147461 -0.6748047
vn -0.6645508 0.7070313 -0.2416992
vn 0.4868164 0.7880859 -0.3764648
vn -0.03948975 -0.3564453 -0.9335938
vn -0.1489258 0.02235413 -0.9887695
vn -0.04455566 0.3605957 -0.9316406
vn 0.4819336 0.4655762 -0.7421875
vn 0.6308594 0.357666 -0.6884766
vn 0.7495117 -0.0223999 -0.6616211
vn -0.03952026 -0.3564453 -0.9335938
vn 0.6328125 -0.3605957 -0.6850586
vn 0.3212891 -0.4780273 -0.8173828
vn 0.3322754 0.01021576 -0.9428711
vn 0.3793945 0.09631348 -0.9204102
vn 0.3474121 0.005672455 -0.9375
vn 0.2462158 0.00479126 -0.9692383
vn 0.4343262 -0.004844666 -0.9008789
vn 0.3383789 -0.003904343 -0.940918
vn 0.3383789 -0.003925323 -0.940918
vn 0.3447266 -0.1002197 -0.9331055
vn 0.3515625 -0.01027679 -0.9360352
vn -0.0305481 -0.3491211 -0.9365234
vn 0.05862427 0.0171051 -0.9980469
vn -0.02558899 0.3449707 -0.9384766
vn 0.3115234 0.2861328 -0.90625
vn 0.6264648 0.3505859 -0.6962891
vn 0.6264648 0.3505859 -0.6962891
vn 0.192627 -0.2878418 -0.9379883
vn 0.5966797 -0.01715088 -0.8022461
vn 0.6225586 -0.3449707 -0.7021484
vn -0.4384766 0.04678345 -0.8974609
vn -0.3989258 0.609375 -0.6855469
vn 0.1932373 0.71875 -0.6679688
vn 0.746582 0.6113281 -0.2631836
vn 0.746582 0.6113281 -0.2631836
vn -0.4016113 -0.6108398 -0.6826172
vn -0.100647 -0.6791992 -0.7270508
vn 0.7460938 -0.609375 -0.2685547
vn 0.9125977 -0.04678345 -0.4057617
vn -0.06323242 0.9975586 -0.02349854
vn 0.6645508 0.7070313 0.2415771
vn -0.6645508 0.7070313 -0.2420654
vn 0.6645508 0.7070313 0.2416992
vn 0.9375 -0.06750488 0.3410645
vn -0.9375 0.06744385 -0.3413086
vn 0.6645508 -0.7070313 0.2416992
vn -0.4296875 -0.8891602 -0.1564941
vn -0.6645508 -0.7070313 -0.2419434
vn -0.2810059 0.7192383 0.6352539
vn -0.06323242 0.9975586 -0.02349854
vn -0.6645508 0.7070313 -0.2420654
vn 0.402832 0.6113281 0.6811523
vn 0.6645508 0.7070313 0.2415771
vn -0.7460938 0.609375 0.2683105
vn -0.9375 0.06744385 -0.3413086
vn 0.402832 0.6113281 0.6811523
vn 0.6645508 0.7070313 0.2416992
vn -0.9130859 0.04684448 0.4055176
vn -0.6645508 -0.7070313 -0.2419434
vn 0.4387207 -0.04681396 0.8974609
vn 0.9375 -0.06750488 0.3410645
vn -0.7460938 -0.6108398 0.2644043
vn -0.4296875 -0.8891602 -0.1564941
vn 0.3991699 -0.609375 0.6850586
vn 0.6645508 -0.7070313 0.2416992
vn -0.5444336 -0.6791992 0.4919434
vn 0.03262329 0.3508301 0.9360352
vn -0.05841064 -0.01715088 0.9980469
vn 0.02586365 -0.3452148 0.9379883
vn -0.4553223 -0.2878418 0.8422852
vn -0.6254883 -0.3491211 0.6977539
vn -0.5966797 0.01719666 0.8022461
vn 0.03265381 0.3508301 0.9360352
vn -0.6230469 0.3452148 0.7021484
vn -0.34375 0.2866211 0.894043
vn -0.3513184 0.0100174 0.9360352
vn -0.3010254 0.09613037 0.9487305
vn -0.3366699 0.005588531 0.9414063
vn -0.434082 0.004798889 0.9008789
vn -0.2463379 -0.004745483 0.9692383
vn -0.345459 -0.003601074 0.9384766
vn -0.345459 -0.003583908 0.9384766
vn -0.3359375 -0.09985352 0.9365234
vn -0.3325195 -0.00994873 0.9428711
vn 0.04086304 0.3574219 0.9331055
vn 0.1486816 -0.02230835 0.9887695
vn 0.04428101 -0.3603516 0.9316406
vn -0.2792969 -0.4777832 0.8330078
vn -0.6298828 -0.3562012 0.6899414
vn -0.6303711 -0.3562012 0.6899414
vn -0.1079712 0.465332 0.878418
vn -0.7495117 0.02235413 0.6616211
vn -0.6328125 0.3603516 0.6850586
vn 0.5976563 -0.03735352 0.8007813
vn 0.4082031 -0.6142578 0.675293
vn -0.1524658 -0.8354492 0.5283203
vn -0.746582 -0.6132813 0.2583008
vn -0.746582 -0.6132813 0.2583008
vn 0.4067383 0.6137695 0.6767578
vn 0.1308594 0.7880859 0.6015625
vn -0.746582 0.6142578 0.2548828
vn -0.9726563 0.03738403 0.2294922
vn 0.04135132 -0.9990234 0.01538849
vn -0.6645508 -0.7070313 -0.2415771
vn 0.6645508 -0.7070313 0.2420654
vn -0.6645508 -0.7070313 -0.2416992
vn -0.9389648 0.04412842 -0.3415527
vn 0.9389648 -0.04412842 0.3417969
vn -0.6645508 0.7070313 -0.2416992
vn 0.3596191 0.9238281 0.1309814
vn 0.6645508 0.7070313 0.2419434
g Fan_Moulin_Rouge_Windmill_3_0
f 3/3/3 2/2/2 1/1/1
f 2/2/2 4/4/4 1/1/1
f 2/2/2 5/5/5 4/4/4
f 5/5/5 2/2/2 6/6/6
f 2/2/2 7/7/7 6/6/6
f 5/5/5 8/8/8 4/4/4
f 6/6/6 9/9/9 5/5/5
f 5/5/5 9/9/9 8/8/8
f 10/10/10 4/4/4 8/8/8
f 6/6/6 7/7/7 10/10/10
f 10/10/10 11/11/11 4/4/4
f 7/7/7 11/11/11 10/10/10
f 7/7/7 12/12/12 11/11/11
f 12/12/12 13/13/13 11/11/11
f 9/9/9 14/14/14 8/8/8
f 9/9/9 6/6/6 14/14/14
f 6/6/6 10/10/10 14/14/14
f 8/8/8 14/14/14 10/10/10
f 17/17/17 16/16/16 15/15/15
f 17/17/17 18/18/18 16/16/16
f 18/18/18 19/19/19 16/16/16
f 20/20/20 16/16/16 19/19/19
f 18/18/18 21/21/21 19/19/19
f 22/22/22 21/21/21 18/18/18
f 23/23/23 22/22/22 18/18/18
f 20/20/20 23/23/23 24/24/24
f 25/25/25 20/20/20 24/24/24
f 20/20/20 26/26/26 23/23/23
f 26/26/26 20/20/20 19/19/19
f 26/26/26 22/22/22 23/23/23
f 26/26/26 19/19/19 27/27/27
f 21/21/21 27/27/27 19/19/19
f 26/26/26 28/28/28 22/22/22
f 28/28/28 26/26/26 27/27/27
f 22/22/22 29/29/29 21/21/21
f 28/28/28 29/29/29 22/22/22
f 21/21/21 30/30/30 27/27/27
f 29/29/29 30/30/30 21/21/21
f 28/28/28 27/27/27 31/31/31
f 30/30/30 31/31/31 27/27/27
f 29/29/29 32/32/32 30/30/30
f 28/28/28 32/32/32 29/29/29
f 32/32/32 31/31/31 30/30/30
f 32/32/32 28/28/28 31/31/31
f 35/35/35 34/34/34 33/33/33
f 34/34/34 36/36/36 33/33/33
f 34/34/34 37/37/37 36/36/36
f 37/37/37 34/34/34 38/38/38
f 37/37/37 39/39/39 36/36/36
f 40/40/40 36/36/36 39/39/39
f 38/38/38 41/41/41 40/40/40
f 41/41/41 42/42/42 40/40/40
f 38/38/38 40/40/40 43/43/43
f 43/43/43 40/40/40 39/39/39
f 37/37/37 38/38/38 44/44/44
f 44/44/44 38/38/38 43/43/43
f 37/37/37 45/45/45 39/39/39
f 44/44/44 45/45/45 37/37/37
f 44/44/44 43/43/43 46/46/46
f 39/39/39 46/46/46 43/43/43
f 45/45/45 46/46/46 39/39/39
f 45/45/45 44/44/44 46/46/46
f 49/49/49 48/48/48 47/47/47
f 48/48/48 50/50/50 47/47/47
f 48/48/48 51/51/51 50/50/50
f 51/51/51 52/52/52 50/50/50
f 53/53/53 50/50/50 52/52/52
f 54/54/54 51/51/51 48/48/48
f 55/55/55 54/54/54 48/48/48
f 53/53/53 54/54/54 55/55/55
f 56/56/56 53/53/53 55/55/55
f 56/56/56 55/55/55 57/57/57
f 53/53/53 58/58/58 54/54/54
f 58/58/58 53/53/53 52/52/52
f 54/54/54 59/59/59 51/51/51
f 58/58/58 59/59/59 54/54/54
f 51/51/51 60/60/60 52/52/52
f 59/59/59 60/60/60 51/51/51
f 58/58/58 52/52/52 61/61/61
f 60/60/60 61/61/61 52/52/52
f 58/58/58 62/62/62 59/59/59
f 62/62/62 58/58/58 61/61/61
f 59/59/59 63/63/63 60/60/60
f 62/62/62 63/63/63 59/59/59
f 62/62/62 61/61/61 64/64/64
f 60/60/60 64/64/64 61/61/61
f 63/63/63 64/64/64 60/60/60
f 63/63/63 62/62/62 64/64/64
f 67/67/67 66/66/66 65/65/65
f 65/65/65 66/66/66 68/68/68
f 66/66/66 69/69/69 68/68/68
f 70/70/70 67/67/67 65/65/65
f 71/71/71 67/67/67 70/70/70
f 68/68/68 69/69/69 72/72/72
f 69/69/69 73/73/73 72/72/72
f 74/74/74 71/71/71 70/70/70
f 75/75/75 71/71/71 74/74/74
f 72/72/72 73/73/73 76/76/76
f 73/73/73 77/77/77 76/76/76
f 78/78/78 75/75/75 74/74/74
f 79/79/79 75/75/75 78/78/78
f 76/76/76 77/77/77 80/80/80
f 77/77/77 81/81/81 80/80/80
f 81/81/81 79/79/79 82/82/82
f 82/82/82 79/79/79 78/78/78
f 80/80/80 81/81/81 82/82/82
f 68/68/68 72/72/72 83/83/83
f 72/72/72 76/76/76 84/84/84
f 83/83/83 72/72/72 84/84/84
f 76/76/76 80/80/80 85/85/85
f 84/84/84 76/76/76 85/85/85
f 80/80/80 82/82/82 86/86/86
f 85/85/85 80/80/80 86/86/86
f 82/82/82 78/78/78 87/87/87
f 86/86/86 82/82/82 87/87/87
f 78/78/78 74/74/74 88/88/88
f 87/87/87 78/78/78 88/88/88
f 89/89/89 68/68/68 83/83/83
f 65/65/65 68/68/68 89/89/89
f 88/88/88 74/74/74 90/90/90
f 74/74/74 70/70/70 90/90/90
f 70/70/70 65/65/65 91/91/91
f 91/91/91 65/65/65 89/89/89
f 90/90/90 70/70/70 91/91/91
f 84/84/84 85/85/85 92/92/92
f 85/85/85 86/86/86 93/93/93
f 92/92/92 85/85/85 93/93/93
f 86/86/86 87/87/87 94/94/94
f 93/93/93 86/86/86 94/94/94
f 83/83/83 84/84/84 95/95/95
f 95/95/95 84/84/84 92/92/92
f 87/87/87 88/88/88 96/96/96
f 94/94/94 87/87/87 96/96/96
f 89/89/89 83/83/83 97/97/97
f 97/97/97 83/83/83 95/95/95
f 91/91/91 89/89/89 98/98/98
f 98/98/98 89/89/89 97/97/97
f 90/90/90 91/91/91 99/99/99
f 99/99/99 91/91/91 98/98/98
f 88/88/88 90/90/90 100/100/100
f 96/96/96 88/88/88 100/100/100
f 100/100/100 90/90/90 99/99/99
f 93/93/93 94/94/94 101/101/101
f 94/94/94 96/96/96 102/102/102
f 101/101/101 94/94/94 102/102/102
f 96/96/96 100/100/100 103/103/103
f 102/102/102 96/96/96 103/103/103
f 100/100/100 99/99/99 104/104/104
f 103/103/103 100/100/100 104/104/104
f 99/99/99 98/98/98 105/105/105
f 104/104/104 99/99/99 105/105/105
f 98/98/98 97/97/97 106/106/106
f 105/105/105 98/98/98 106/106/106
f 107/107/107 93/93/93 101/101/101
f 92/92/92 93/93/93 107/107/107
f 106/106/106 97/97/97 108/108/108
f 97/97/97 95/95/95 108/108/108
f 95/95/95 92/92/92 109/109/109
f 109/109/109 92/92/92 107/107/107
f 108/108/108 95/95/95 109/109/109
f 101/101/101 102/102/102 110/110/110
f 102/102/102 103/103/103 111/111/111
f 110/110/110 102/102/102 111/111/111
f 103/103/103 104/104/104 112/112/112
f 111/111/111 103/103/103 112/112/112
f 104/104/104 105/105/105 113/113/113
f 112/112/112 104/104/104 113/113/113
f 105/105/105 106/106/106 114/114/114
f 113/113/113 105/105/105 114/114/114
f 107/107/107 101/101/101 115/115/115
f 115/115/115 101/101/101 110/110/110
f 109/109/109 107/107/107 116/116/116
f 116/116/116 107/107/107 115/115/115
f 108/108/108 109/109/109 117/117/117
f 117/117/117 109/109/109 116/116/116
f 106/106/106 108/108/108 118/118/118
f 114/114/114 106/106/106 118/118/118
f 118/118/118 108/108/108 117/117/117
f 111/111/111 112/112/112 119/119/119
f 119/119/119 112/112/112 120/120/120
f 112/112/112 113/113/113 120/120/120
f 121/121/121 111/111/111 119/119/119
f 120/120/120 113/113/113 122/122/122
f 113/113/113 114/114/114 122/122/122
f 110/110/110 111/111/111 121/121/121
f 122/122/122 114/114/114 123/123/123
f 114/114/114 118/118/118 123/123/123
f 124/124/124 110/110/110 121/121/121
f 123/123/123 118/118/118 125/125/125
f 118/118/118 117/117/117 125/125/125
f 115/115/115 110/110/110 124/124/124
f 125/125/125 117/117/117 126/126/126
f 127/127/127 115/115/115 124/124/124
f 117/117/117 116/116/116 126/126/126
f 116/116/116 115/115/115 127/127/127
f 126/126/126 116/116/116 127/127/127
f 130/130/130 129/129/129 128/128/128
f 128/128/128 129/129/129 131/131/131
f 129/129/129 132/132/132 131/131/131
f 133/133/133 130/130/130 128/128/128
f 134/134/134 130/130/130 133/133/133
f 131/131/131 132/132/132 135/135/135
f 132/132/132 136/136/136 135/135/135
f 137/137/137 134/134/134 133/133/133
f 138/138/138 134/134/134 137/137/137
f 135/135/135 136/136/136 139/139/139
f 136/136/136 140/140/140 139/139/139
f 141/141/141 138/138/138 137/137/137
f 142/142/142 138/138/138 141/141/141
f 139/139/139 140/140/140 143/143/143
f 140/140/140 144/144/144 143/143/143
f 144/144/144 142/142/142 145/145/145
f 145/145/145 142/142/142 141/141/141
f 143/143/143 144/144/144 145/145/145
f 131/131/131 135/135/135 146/146/146
f 135/135/135 139/139/139 147/147/147
f 146/146/146 135/135/135 147/147/147
f 139/139/139 143/143/143 148/148/148
f 147/147/147 139/139/139 148/148/148
f 143/143/143 145/145/145 149/149/149
f 148/148/148 143/143/143 149/149/149
f 145/145/145 141/141/141 150/150/150
f 149/149/149 145/145/145 150/150/150
f 141/141/141 137/137/137 151/151/151
f 150/150/150 141/141/141 151/151/151
f 152/152/152 131/131/131 146/146/146
f 128/128/128 131/131/131 152/152/152
f 151/151/151 137/137/137 153/153/153
f 137/137/137 133/133/133 153/153/153
f 133/133/133 128/128/128 154/154/154
f 154/154/154 128/128/128 152/152/152
f 153/153/153 133/133/133 154/154/154
f 147/147/147 148/148/148 155/155/155
f 148/148/148 149/149/149 156/156/156
f 155/155/155 148/148/148 156/156/156
f 149/149/149 150/150/150 157/157/157
f 156/156/156 149/149/149 157/157/157
f 146/146/146 147/147/147 158/158/158
f 158/158/158 147/147/147 155/155/155
f 150/150/150 151/151/151 159/159/159
f 157/157/157 150/150/150 159/159/159
f 152/152/152 146/146/146 160/160/160
f 160/160/160 146/146/146 158/158/158
f 154/154/154 152/152/152 161/161/161
f 161/161/161 152/152/152 160/160/160
f 153/153/153 154/154/154 162/162/162
f 162/162/162 154/154/154 161/161/161
f 151/151/151 153/153/153 163/163/163
f 159/159/159 151/151/151 163/163/163
f 163/163/163 153/153/153 162/162/162
f 156/156/156 157/157/157 164/164/164
f 157/157/157 159/159/159 165/165/165
f 164/164/164 157/157/157 165/165/165
f 159/159/159 163/163/163 166/166/166
f 165/165/165 159/159/159 166/166/166
f 163/163/163 162/162/162 167/167/167
f 166/166/166 163/163/163 167/167/167
f 162/162/162 161/161/161 168/168/168
f 167/167/167 162/162/162 168/168/168
f 161/161/161 160/160/160 169/169/169
f 168/168/168 161/161/161 169/169/169
f 170/170/170 156/156/156 164/164/164
f 155/155/155 156/156/156 170/170/170
f 169/169/169 160/160/160 171/171/171
f 160/160/160 158/158/158 171/171/171
f 158/158/158 155/155/155 172/172/172
f 172/172/172 155/155/155 170/170/170
f 171/171/171 158/158/158 172/172/172
f 164/164/164 165/165/165 173/173/173
f 165/165/165 166/166/166 174/174/174
f 173/173/173 165/165/165 174/174/174
f 166/166/166 167/167/167 175/175/175
f 174/174/174 166/166/166 175/175/175
f 167/167/167 168/168/168 176/176/176
f 175/175/175 167/167/167 176/176/176
f 168/168/168 169/169/169 177/177/177
f 176/176/176 168/168/168 177/177/177
f 170/170/170 164/164/164 178/178/178
f 178/178/178 164/164/164 173/173/173
f 172/172/172 170/170/170 179/179/179
f 179/179/179 170/170/170 178/178/178
f 171/171/171 172/172/172 180/180/180
f 180/180/180 172/172/172 179/179/179
f 169/169/169 171/171/171 181/181/181
f 177/177/177 169/169/169 181/181/181
f 181/181/181 171/171/171 180/180/180
f 174/174/174 175/175/175 182/182/182
f 182/182/182 175/175/175 183/183/183
f 175/175/175 176/176/176 183/183/183
f 184/184/184 174/174/174 182/182/182
f 183/183/183 176/176/176 185/185/185
f 176/176/176 177/177/177 185/185/185
f 173/173/173 174/174/174 184/184/184
f 185/185/185 177/177/177 186/186/186
f 177/177/177 181/181/181 186/186/186
f 187/187/187 173/173/173 184/184/184
f 186/186/186 181/181/181 188/188/188
f 181/181/181 180/180/180 188/188/188
f 178/178/178 173/173/173 187/187/187
f 188/188/188 180/180/180 189/189/189
f 190/190/190 178/178/178 187/187/187
f 180/180/180 179/179/179 189/189/189
f 179/179/179 178/178/178 190/190/190
f 189/189/189 179/179/179 190/190/190
