g Flamingo_Inflatable_02
v 0.6034697 0.6383252 -0.3065445
v 0.5406182 0.5609863 -0.2610366
v 0.5115947 0.5143506 -0.4270718
v 0.4902764 2.051504 -0.4491958
v 0.6180303 2.249331 -0.6060904
v 0.6807939 2.326758 -0.3685025
v 0.4026299 1.844307 -0.1824136
v 0.5307158 2.12208 -0.2689077
v 0.6995634 2.054082 -0.1499185
v 0.6807939 2.326758 -0.3685025
v 0.8661454 2.24813 -0.2502163
v 0.8428544 2.390508 -0.4653433
v 1.022913 2.245244 -0.3016714
v 1.022044 2.283432 -0.5908511
v 1.124602 2.10855 -0.3546255
v 0.8097099 2.043955 -0.1855972
v 0.9998564 2.024609 -0.2803042
v 0.5867119 1.788643 -0.08126614
v 0.6866728 1.79937 -0.1137906
v 0.7587822 1.782124 -0.1450406
v 0.3724346 1.630977 -0.1597329
v 0.3895342 1.782861 -0.3654214
v 0.3576006 1.574521 -0.3562954
v 0.6921904 1.619941 -0.08970364
v 0.85054 1.707524 -0.2138003
v 1.049554 1.956011 -0.3411929
v 0.7889384 1.592402 -0.1488931
v 0.8535283 1.559624 -0.2680483
v 0.8995341 1.456367 -0.2051333
v 0.5714775 1.578642 -0.05053861
v 0.4244072 1.433672 -0.1900503
v 0.4034111 1.401894 -0.3881216
v 0.7400712 1.448799 -0.1139322
v 0.6228545 1.403403 -0.07638333
v 0.4938994 1.19061 -0.2476773
v 0.4725713 1.161484 -0.4540347
v 0.8180791 1.201611 -0.1712857
v 0.9592119 1.202598 -0.2349527
v 0.6996318 1.163877 -0.130021
v 0.5606377 0.907417 -0.2804995
v 0.5252861 0.8675097 -0.5061099
v 0.9195536 0.9144873 -0.1927993
v 0.7801005 0.871416 -0.1440445
v 0.6034697 0.6383252 -0.3065445
v 0.5681279 0.6219091 -0.5170181
v 1.046927 0.901455 -0.2568277
v 0.9809892 0.6693457 -0.2233511
v 0.9780302 1.152002 -0.3264321
v 0.9038506 1.411855 -0.2821353
v 1.116595 0.836709 -0.382814
v 1.126136 0.6380322 -0.2923013
v 1.234104 0.5367969 -0.3867984
v 0.8095634 0.6254883 -0.1762271
v 0.8729911 0.6412891 0.1233872
v 0.7553935 0.5139355 0.1192758
v 0.7067997 0.517251 -0.1523111
v 0.5406182 0.5609863 -0.2610366
v 0.6713408 0.3459082 -0.140729
v 0.7178252 0.3442773 0.1149008
v 0.7709111 0.1787891 0.111478
v 0.5126201 0.3956348 -0.2393862
v 0.5115947 0.5143506 -0.4270718
v 0.7171416 0.1803467 -0.17152
v 0.5537432 0.2343359 -0.2661001
v 0.8319463 0.06669921 -0.2317056
v 0.8997782 0.06279296 0.1099253
v 1.068743 0.0272168 0.110687
v 0.9835576 0.03279297 -0.2980825
v 0.7837626 0.06694335 -0.4241568
v 0.6539873 0.1178125 -0.3341275
v 0.4906963 0.3430908 -0.3948501
v 0.5375127 0.1774902 -0.4244253
v 0.6341923 0.0639209 -0.5103775
v 0.2662432 0.3381397 -0.5201089
v 0.7464775 0.0295752 -0.6312173
v 1.037259 0.08682617 -0.5755825
v 0.2884209 0.1722266 -0.5670034
v 0.3332354 0.05508789 -0.6867349
v 0.3883232 0.01797852 -0.8461148
v -0.009948252 0.04012207 -0.7264615
v -0.02383497 -8.185452E-14 -0.8938394
v -0.4195771 -0.02121582 -0.7696792
v -0.003844737 0.1594873 -0.6008365
v -0.33946 0.02245117 -0.6230727
v 0.2728935 0.507373 -0.5592007
v -0.007301768 0.3262061 -0.5517837
v -0.01937208 0.4946289 -0.5930386
v 0.3064384 0.633584 -0.6732681
v 0.6689091 0.6647021 -0.6620572
v 0.3575322 0.6829834 -0.8306412
v -0.03674513 0.6186279 -0.7129898
v -0.05463575 0.6650048 -0.8783462
v -0.4503779 0.6437891 -0.7542056
v -0.2699482 0.312124 -0.4693862
v -0.3662568 0.6009521 -0.6096157
v -0.2844795 0.1444336 -0.5128189
v -0.3000068 0.4795898 -0.5050161
v -0.6251143 0.5836377 -0.3810171
v -0.7612666 0.6230029 -0.479645
v -0.4762861 0.2983301 -0.2871597
v -0.5204658 0.4648389 -0.3103042
v -0.7685811 0.5696826 -0.06670071
v -0.9335615 0.6062402 -0.1021402
v -0.5049482 0.1296924 -0.3181021
v -0.5906318 0.2871973 -0.03661282
v -0.9309834 0.5954639 0.296102
v -1.093024 0.5538428 -0.1393374
v -1.101159 0.5382031 0.3164096
v -0.7722334 0.561626 0.2782993
v -0.6426436 0.4529492 -0.04260404
v -0.6458858 0.4461767 0.2502182
v -0.5936494 0.2806982 0.2369419
v -0.6303291 0.1106592 0.2424057
v -0.627126 0.1178027 -0.05040677
v -0.7417842 -0.008813476 -0.08014309
v -0.5983271 0.005141601 -0.3944595
v -0.7304756 -0.04201172 -0.4951138
v -0.9027705 -0.05877441 -0.117604
v 0.9998564 2.024609 -0.2803042
v 1.022913 2.245244 -0.3016714
v 1.124602 2.10855 -0.3546255
v 0.4902764 2.051504 -0.4491958
v 0.6807939 2.326758 -0.3685025
v 0.5307158 2.12208 -0.2689077
v 1.049554 1.956011 -0.3411929
v 0.9998564 2.024609 -0.2803042
v 1.124602 2.10855 -0.3546255
v -0.5906318 0.2871973 -0.03661282
v -0.627126 0.1178027 -0.05040677
v -0.6303291 0.1106592 0.2424057
v -0.7454268 -0.01713379 0.2648178
v -0.7417842 -0.008813476 -0.08014309
v -0.9027705 -0.05877441 -0.117604
v -0.5935224 -0.01695801 0.5765707
v -0.4990693 0.1110693 0.508104
v -0.5936494 0.2806982 0.2369419
v -0.9068819 -0.06861328 0.297684
v -0.7274678 -0.06905761 0.6724057
v -1.066472 -0.0196582 -0.1526822
v -0.865583 -0.0001074219 -0.5928091
v -1.070827 -0.03124023 0.3313608
v -0.7304756 -0.04201172 -0.4951138
v -1.194655 0.08450195 0.3576059
v -0.4195771 -0.02121582 -0.7696792
v -0.352497 -0.01178223 0.8173764
v -0.4360127 -0.06221191 0.9597836
v -0.04250685 -0.04708008 1.092079
v -1.189587 0.0971875 -0.1761099
v -0.2947627 0.1152344 0.714349
v -0.2791279 0.2849658 0.67931
v -0.02549513 0.0009228516 0.9270932
v 0.3704717 -0.02704101 1.053001
v -0.01709669 0.1261084 0.8074057
v 0.3183623 0.01760742 0.894559
v -1.240056 0.260498 -0.1818618
v -1.245339 0.247417 0.3700961
v -1.214089 0.4077393 0.3584116
v -0.4700654 0.2806299 0.4858091
v -0.5145674 0.4455713 0.5158725
v -0.6458858 0.4461767 0.2502182
v -0.62029 0.5609961 0.590018
v -0.7722334 0.561626 0.2782993
v -0.7085713 0.5763769 0.6525766
v -0.9309834 0.5954639 0.296102
v -0.31029 0.4507226 0.7221664
v -0.3792939 0.5669385 0.8308432
v -0.03262403 0.4612451 0.8151889
v -0.01969435 0.2949561 0.7662387
v 0.2757549 0.1403027 0.7796957
v 0.2543877 0.3082568 0.7402963
v 0.5318975 0.1555371 0.6351596
v 0.2602275 0.4754492 0.7874985
v 0.619124 0.03548828 0.7248471
v 0.7316826 -0.005571289 0.8491879
v 0.9786748 0.01363281 0.5158677
v 0.824788 0.05145996 0.4473032
v 0.8997782 0.06279296 0.1099253
v 1.068743 0.0272168 0.110687
v 0.7070537 0.1691455 0.3988169
v 0.7709111 0.1787891 0.111478
v 0.7178252 0.3442773 0.1149008
v 0.494124 0.3225049 0.6050229
v 0.5163799 0.4906787 0.6429574
v 0.6580498 0.3352441 0.3838169
v 0.6915263 0.5042822 0.4066098
v 0.7553935 0.5139355 0.1192758
v 0.8729911 0.6412891 0.1233872
v 0.2915752 0.5961035 0.9080063
v 0.7979912 0.6299561 0.46077
v 0.5923369 0.6139843 0.738309
v -0.05228224 0.579419 0.94056
v 0.9478837 0.6786426 0.5313559
v 0.7008916 0.6594336 0.8646811
v 1.037952 0.6922314 0.1261655
v 0.9809892 0.6693457 -0.2233511
v 1.126136 0.6380322 -0.2923013
v 1.205579 0.6541016 0.1268247
v 0.3396709 0.6379638 1.06847
v -0.07329786 0.6179297 1.107542
v -0.4477998 0.6019287 0.9742904
v 1.234104 0.5367969 -0.3867984
v 1.331556 0.5379785 0.1252622
v -0.5854951 0.6932031 0.9319223
v 1.383079 0.3749121 0.1218881
v -0.7136689 0.6681836 0.6783432
v -0.7513936 0.8704443 0.9639096
v -0.9289228 0.6892627 0.4495346
v -1.069939 0.6497949 0.4642368
v -1.101159 0.5382031 0.3164096
v -1.010241 0.8683007 0.6000668
v -0.8284444 0.8685938 0.7637289
v -1.036589 1.224463 0.9145541
v -1.028454 1.221421 1.052415
v -1.182106 1.219521 0.8325766
v -1.111667 0.8343506 0.6081381
v -1.248601 1.200166 0.848973
v -1.304177 1.128691 0.8666781
v -1.194157 0.7558594 0.6610434
v -1.165378 0.5529394 0.5245151
v -1.093024 0.5538428 -0.1393374
v -1.20486 0.4273486 -0.168439
v -0.8921455 0.5733935 -0.5794839
v -0.9335615 0.6062402 -0.1021402
v -0.7612666 0.6230029 -0.479645
v -0.4503779 0.6437891 -0.7542056
v -0.9832002 0.4489111 -0.6541031
v -0.529665 0.5976269 -0.899606
v -0.05463575 0.6650048 -0.8783462
v -1.010808 0.2828076 -0.6841568
v -0.9679072 0.1187598 -0.6617935
v -0.5971553 0.310459 -1.049455
v -0.5679268 0.1455078 -1.015041
v -0.5832099 0.4756494 -1.007365
v -0.07061231 0.3387012 -1.214645
v -0.5031123 0.02412598 -0.9129507
v -0.02383497 -8.185452E-14 -0.8938394
v -0.07407911 0.5029492 -1.167077
v -0.05879591 0.1728027 -1.174767
v -0.04171583 0.0488623 -1.057687
v 0.4388408 0.06981933 -1.002043
v 0.3883232 0.01797852 -0.8461148
v 0.8518095 0.08274902 -0.7575845
v 0.7464775 0.0295752 -0.6312173
v 1.037259 0.08682617 -0.5755825
v 0.4714678 0.1959277 -1.113376
v 0.4777764 0.3626221 -1.151139
v 0.9264579 0.2105176 -0.8452505
v 0.4561748 0.5260839 -1.105675
v 0.9477275 0.3776855 -0.874562
v 1.131917 0.2305225 -0.6437954
v 0.4122783 0.6433203 -0.9887173
v -0.0682588 0.6223633 -1.044352
v 0.3575322 0.6829834 -0.8306412
v 0.7815751 0.6329052 -0.7760611
v 0.6689091 0.6647021 -0.6620572
v 0.9083525 0.5322998 -0.8452994
v 1.158401 0.3957617 -0.6640982
v 0.8610576 0.832666 -0.7425259
v 0.7179033 0.8959033 -0.7187124
v 1.122698 0.5399219 -0.6399429
v 1.276165 0.382124 -0.4124136
v 1.116595 0.836709 -0.382814
v 1.243011 0.2148047 -0.3998843
v 1.346839 0.2078174 0.1175717
v 1.019661 0.8863671 -0.5787857
v 0.9780302 1.152002 -0.3264321
v 1.136761 0.08657715 -0.3566324
v 1.232141 0.08060547 0.1134897
v 0.9835576 0.03279297 -0.2980825
v 0.7837626 0.06694335 -0.4241568
v 1.068743 0.0272168 0.110687
v 0.7844853 1.146006 -0.6385171
v 0.908206 1.203467 -0.5135025
v 0.9038506 1.411855 -0.2821353
v 0.6486357 1.197432 -0.6385659
v 0.6905986 1.409512 -0.5827798
v 0.824749 1.468267 -0.4464614
v 0.6160088 0.909331 -0.619689
v 0.5252861 0.8675097 -0.5061099
v 0.5681279 0.6219091 -0.5170181
v 0.4725713 1.161484 -0.4540347
v 0.5491533 1.19792 -0.5495474
v 0.5722295 1.453774 -0.5702358
v 0.4765752 1.445825 -0.4844155
v 0.4034111 1.401894 -0.3881216
v 0.6737822 1.556885 -0.5272085
v 0.4329228 1.61459 -0.4545327
v 0.3576006 1.574521 -0.3562954
v 0.3895342 1.782861 -0.3654214
v 0.5106084 1.59022 -0.5334634
v 0.7856084 1.594922 -0.4237173
v 0.5993584 1.702583 -0.5644155
v 0.5047783 1.777632 -0.5013735
v 0.451751 1.795132 -0.4440444
v 0.4902764 2.051504 -0.4491958
v 0.4026299 1.844307 -0.1824136
v 0.5572686 2.048413 -0.5372232
v 0.6180303 2.249331 -0.6060904
v 0.6874834 2.027705 -0.6569253
v 0.7008427 2.226328 -0.6685074
v 0.7418095 1.939668 -0.6820279
v 0.7786357 1.721445 -0.4181411
v 0.8713896 1.826645 -0.4557925
v 1.049554 1.956011 -0.3411929
v 0.85054 1.707524 -0.2138003
v 0.8535283 1.559624 -0.2680483
v 0.8995341 1.456367 -0.2051333
v 0.9592119 1.202598 -0.2349527
v 0.8428544 2.390508 -0.4653433
v 0.6807939 2.326758 -0.3685025
v 1.022044 2.283432 -0.5908511
v 0.8309404 2.132519 -0.7469644
v 0.6874834 2.027705 -0.6569253
v 0.8309404 2.132519 -0.7469644
v 0.7008427 2.226328 -0.6685074
v 0.7418095 1.939668 -0.6820279
v 1.205579 0.6541016 0.1268247
v 0.9478837 0.6786426 0.5313559
v 1.037952 0.6922314 0.1261655
v 1.100569 0.6382422 0.5992466
v 1.331556 0.5379785 0.1252622
v 0.7008916 0.6594336 0.8646811
v 1.215686 0.5204785 0.6465512
v 1.263245 0.3568213 0.6609945
v 1.383079 0.3749121 0.1218881
v 1.346839 0.2078174 0.1175717
v 0.897913 0.4957861 1.075379
v 0.8126006 0.6158691 0.9878696
v 0.3914482 0.5908203 1.225501
v 0.3396709 0.6379638 1.06847
v -0.09004591 0.5674756 1.271039
v -0.07329786 0.6179297 1.107542
v -0.4477998 0.6019287 0.9742904
v 0.4331963 0.4681592 1.337596
v 1.23097 0.1903271 0.6388706
v 1.232141 0.08060547 0.1134897
v 0.9346123 0.3312793 1.104481
v 0.913206 0.1656348 1.067684
v 1.127132 0.06475098 0.5859018
v 0.9786748 0.01363281 0.5158677
v 1.068743 0.0272168 0.110687
v 0.7316826 -0.005571289 0.8491879
v 0.8391631 0.04236816 0.9745297
v 0.4180107 0.01732422 1.212166
v 0.3704717 -0.02704101 1.053001
v 0.4484892 0.1380078 1.32992
v 0.4540166 0.3027197 1.375658
v -0.06347364 -0.006030273 1.257699
v -0.04250685 -0.04708008 1.092079
v -0.4360127 -0.06221191 0.9597836
v -0.08280958 0.1122314 1.380189
v -0.09810255 0.4423779 1.387869
v -0.09545606 0.2760596 1.42765
v -0.5983467 0.4156055 1.224242
v -0.6184345 0.2559277 1.251644
v -1.009499 0.3790137 0.8630746
v -0.5887764 0.09243164 1.209603
v -0.5227314 -0.02359863 1.10306
v -0.8611592 -0.03380859 0.7680502
v -0.7274678 -0.06905761 0.6724057
v -0.9068819 -0.06861328 0.297684
v -1.070827 -0.03124023 0.3313608
v -0.985583 0.07986816 0.8496566
v -1.194655 0.08450195 0.3576059
v -1.245339 0.247417 0.3700961
v -1.030661 0.2455029 0.8797153
v -1.214089 0.4077393 0.3584116
v -1.165378 0.5529394 0.5245151
v -1.022556 0.5131201 0.8791244
v -1.194157 0.7558594 0.6610434
v -0.7318623 0.5574902 1.132503
v -1.092507 0.7216357 0.9315414
v -1.304177 1.128691 0.8666781
v -1.244909 1.137661 1.040526
v -1.248601 1.200166 0.848973
v -1.182106 1.219521 0.8325766
v -1.036589 1.224463 0.9145541
v -1.028454 1.221421 1.052415
v -0.8680049 0.7591699 1.118001
v -0.5212764 0.5455957 1.129891
v -0.6439522 0.6538916 1.060164
v -0.5854951 0.6932031 0.9319223
v -0.7513936 0.8704443 0.9639096
v -0.7917549 0.8374023 1.056082
v -1.098425 1.131138 1.155526
v -1.064099 1.202432 1.107982
v 0.7418095 1.939668 -0.6820279
v 0.8766338 2.043755 -0.7937613
v 0.8309404 2.132519 -0.7469644
v 1.115481 2.145078 -0.6465836
v 1.022044 2.283432 -0.5908511
v 1.124602 2.10855 -0.3546255
v 1.264583 1.921465 -0.7536148
v 1.070159 1.810259 -0.8351773
v 1.163382 2.030537 -0.3590151
v 1.049554 1.956011 -0.3411929
v 1.291302 1.807671 -0.5224233
v 1.291302 1.807671 -0.5224233
v 1.264583 1.921465 -0.7536148
v 1.238665 1.628237 -0.7464957
v 1.070159 1.810259 -0.8351773
v 1.248313 1.638901 -0.5451822
v 1.100071 1.713857 -0.3791323
v 1.163382 2.030537 -0.3590151
v 1.049554 1.956011 -0.3411929
v 0.8892509 1.672432 -0.5380483
v 0.8713896 1.826645 -0.4557925
v 0.7418095 1.939668 -0.6820279
v 1.083919 1.442656 -0.5153628
v 0.8674541 1.676074 -0.6781265
v 0.8766338 2.043755 -0.7937613
v 0.9884599 1.324854 -0.5672525
v 0.957913 1.446489 -0.6580679
v 1.077552 1.628457 -0.7966421
vt 0.4702148 0.8486328
vt 0.4697266 0.8476563
vt 0.4694824 0.8432617
vt 0.4699707 0.8623047
vt 0.4711914 0.8637695
vt 0.4716797 0.8647461
vt 0.4692383 0.8603516
vt 0.470459 0.862793
vt 0.4719238 0.8618164
vt 0.4716797 0.8647461
vt 0.4733887 0.8637695
vt 0.4731445 0.8652344
vt 0.4748535 0.8637695
vt 0.4748535 0.8642578
vt 0.4755859 0.8623047
vt 0.4726563 0.8618164
vt 0.4743652 0.8618164
vt 0.4707031 0.859375
vt 0.4716797 0.859375
vt 0.472168 0.859375
vt 0.46875 0.8579102
vt 0.4689941 0.859375
vt 0.4685059 0.8574219
vt 0.4714355 0.8579102
vt 0.4729004 0.8583984
vt 0.4748535 0.8608398
vt 0.4724121 0.8574219
vt 0.4729004 0.8574219
vt 0.4733887 0.8564453
vt 0.470459 0.8574219
vt 0.4689941 0.8564453
vt 0.4689941 0.855957
vt 0.4719238 0.8564453
vt 0.4707031 0.855957
vt 0.4694824 0.8540039
vt 0.4694824 0.8535156
vt 0.4724121 0.8540039
vt 0.4736328 0.8540039
vt 0.4714355 0.8535156
vt 0.4699707 0.8510742
vt 0.4697266 0.8505859
vt 0.4731445 0.8510742
vt 0.4719238 0.8505859
vt 0.4702148 0.8486328
vt 0.4699707 0.8486328
vt 0.4743652 0.8510742
vt 0.4736328 0.8486328
vt 0.473877 0.8530273
vt 0.4733887 0.855957
vt 0.4748535 0.8500977
vt 0.4748535 0.8481445
vt 0.4758301 0.8427734
vt 0.472168 0.8481445
vt 0.4726563 0.8486328
vt 0.4714355 0.8427734
vt 0.4711914 0.8427734
vt 0.4697266 0.8476563
vt 0.4707031 0.8383789
vt 0.4711914 0.8383789
vt 0.4714355 0.8374023
vt 0.4694824 0.8388672
vt 0.4694824 0.8432617
vt 0.4709473 0.8374023
vt 0.4697266 0.8383789
vt 0.4719238 0.8354492
vt 0.4726563 0.8354492
vt 0.4741211 0.8349609
vt 0.4733887 0.8349609
vt 0.4716797 0.8354492
vt 0.470459 0.8364258
vt 0.4692383 0.8383789
vt 0.4694824 0.8374023
vt 0.4702148 0.8354492
vt 0.4672852 0.8383789
vt 0.4711914 0.8349609
vt 0.473877 0.8359375
vt 0.4672852 0.8374023
vt 0.4675293 0.8359375
vt 0.4680176 0.8349609
vt 0.4645996 0.8359375
vt 0.4645996 0.8349609
vt 0.4609375 0.8349609
vt 0.4648438 0.8374023
vt 0.4616699 0.8359375
vt 0.4672852 0.8432617
vt 0.4648438 0.8383789
vt 0.4648438 0.8432617
vt 0.4677734 0.8486328
vt 0.4709473 0.8486328
vt 0.4682617 0.8491211
vt 0.4645996 0.8486328
vt 0.4645996 0.8491211
vt 0.4611816 0.8491211
vt 0.4624023 0.8383789
vt 0.4616699 0.8486328
vt 0.4621582 0.8374023
vt 0.4624023 0.8432617
vt 0.4594727 0.8486328
vt 0.458252 0.8491211
vt 0.4606934 0.8383789
vt 0.4604492 0.8432617
vt 0.458252 0.8486328
vt 0.4567871 0.8491211
vt 0.4604492 0.8374023
vt 0.4597168 0.8383789
vt 0.4567871 0.8486328
vt 0.4553223 0.8486328
vt 0.4553223 0.8481445
vt 0.458252 0.8486328
vt 0.4592285 0.8427734
vt 0.4592285 0.8427734
vt 0.4597168 0.8383789
vt 0.4592285 0.8374023
vt 0.4592285 0.8374023
vt 0.458252 0.8354492
vt 0.4594727 0.8354492
vt 0.458252 0.8349609
vt 0.4567871 0.8349609
vt 0.590332 0.9628906
vt 0.5908203 0.9633789
vt 0.59375 0.9643555
vt 0.4699707 0.8623047
vt 0.4716797 0.8647461
vt 0.470459 0.862793
vt 0.5913086 0.9643555
vt 0.590332 0.9628906
vt 0.59375 0.9643555
vt 0.4597168 0.8383789
vt 0.4592285 0.8374023
vt 0.4592285 0.8374023
vt 0.458252 0.8354492
vt 0.458252 0.8354492
vt 0.4567871 0.8349609
vt 0.4594727 0.8354492
vt 0.4604492 0.8374023
vt 0.4597168 0.8383789
vt 0.4567871 0.8349609
vt 0.458252 0.8344727
vt 0.4553223 0.8354492
vt 0.4570313 0.8359375
vt 0.4553223 0.8354492
vt 0.458252 0.8349609
vt 0.4543457 0.8374023
vt 0.4609375 0.8349609
vt 0.4616699 0.8354492
vt 0.4609375 0.8344727
vt 0.4643555 0.8344727
vt 0.4543457 0.8374023
vt 0.4621582 0.8369141
vt 0.4624023 0.8383789
vt 0.4643555 0.8349609
vt 0.4680176 0.8344727
vt 0.4645996 0.8369141
vt 0.4675293 0.8349609
vt 0.4541016 0.8383789
vt 0.4538574 0.8383789
vt 0.4543457 0.8427734
vt 0.4606934 0.8383789
vt 0.4604492 0.8427734
vt 0.4592285 0.8427734
vt 0.4594727 0.8481445
vt 0.458252 0.8486328
vt 0.4587402 0.8486328
vt 0.4567871 0.8486328
vt 0.4621582 0.8427734
vt 0.4616699 0.8481445
vt 0.4645996 0.8427734
vt 0.4645996 0.8383789
vt 0.4672852 0.8369141
vt 0.467041 0.8383789
vt 0.4694824 0.8369141
vt 0.4672852 0.8427734
vt 0.4702148 0.8354492
vt 0.4711914 0.8344727
vt 0.4731445 0.8344727
vt 0.4719238 0.8354492
vt 0.4726563 0.8354492
vt 0.4741211 0.8349609
vt 0.4709473 0.8374023
vt 0.4714355 0.8374023
vt 0.4711914 0.8383789
vt 0.4692383 0.8383789
vt 0.4694824 0.8427734
vt 0.4707031 0.8383789
vt 0.4709473 0.8427734
vt 0.4714355 0.8427734
vt 0.4726563 0.8486328
vt 0.4675293 0.8481445
vt 0.4719238 0.8481445
vt 0.4702148 0.8481445
vt 0.4645996 0.8481445
vt 0.4733887 0.8486328
vt 0.4711914 0.8486328
vt 0.4741211 0.8486328
vt 0.4736328 0.8486328
vt 0.4748535 0.8481445
vt 0.4755859 0.8486328
vt 0.4680176 0.8486328
vt 0.4643555 0.8486328
vt 0.4611816 0.8486328
vt 0.4758301 0.8427734
vt 0.4765625 0.8427734
vt 0.4599609 0.8496094
vt 0.4770508 0.8383789
vt 0.4587402 0.8496094
vt 0.4584961 0.8515625
vt 0.4570313 0.8496094
vt 0.4555664 0.8496094
vt 0.4553223 0.8481445
vt 0.4562988 0.8515625
vt 0.4577637 0.8515625
vt 0.4562988 0.8549805
vt 0.4562988 0.8549805
vt 0.4550781 0.8549805
vt 0.4553223 0.8510742
vt 0.4543457 0.8544922
vt 0.4538574 0.8540039
vt 0.4545898 0.8505859
vt 0.454834 0.8486328
vt 0.4553223 0.8486328
vt 0.4543457 0.8427734
vt 0.4572754 0.8486328
vt 0.4567871 0.8491211
vt 0.458252 0.8491211
vt 0.4611816 0.8491211
vt 0.4562988 0.8432617
vt 0.4604492 0.8486328
vt 0.4645996 0.8491211
vt 0.4560547 0.8383789
vt 0.4562988 0.8378906
vt 0.4597168 0.8388672
vt 0.4597168 0.8378906
vt 0.4597168 0.8476563
vt 0.4643555 0.8388672
vt 0.4602051 0.8359375
vt 0.4645996 0.8349609
vt 0.4643555 0.8476563
vt 0.4643555 0.8378906
vt 0.4643555 0.8359375
vt 0.4685059 0.8359375
vt 0.4680176 0.8349609
vt 0.472168 0.8359375
vt 0.4711914 0.8349609
vt 0.473877 0.8359375
vt 0.4689941 0.8378906
vt 0.4689941 0.8388672
vt 0.4729004 0.8378906
vt 0.4689941 0.8476563
vt 0.4731445 0.8383789
vt 0.4746094 0.8378906
vt 0.4685059 0.8486328
vt 0.4643555 0.8486328
vt 0.4682617 0.8491211
vt 0.4719238 0.8486328
vt 0.4709473 0.8486328
vt 0.4729004 0.8432617
vt 0.4750977 0.8388672
vt 0.4726563 0.8500977
vt 0.4714355 0.8510742
vt 0.4748535 0.8432617
vt 0.4760742 0.8383789
vt 0.4748535 0.8500977
vt 0.4755859 0.8374023
vt 0.4765625 0.8374023
vt 0.4741211 0.8505859
vt 0.473877 0.8530273
vt 0.4746094 0.8354492
vt 0.4755859 0.8354492
vt 0.4733887 0.8349609
vt 0.4716797 0.8354492
vt 0.4741211 0.8349609
vt 0.472168 0.8535156
vt 0.4731445 0.8540039
vt 0.4733887 0.855957
vt 0.4709473 0.8540039
vt 0.4714355 0.855957
vt 0.4726563 0.8564453
vt 0.470459 0.8510742
vt 0.4697266 0.8505859
vt 0.4699707 0.8486328
vt 0.4694824 0.8535156
vt 0.4699707 0.8540039
vt 0.470459 0.8564453
vt 0.4694824 0.8564453
vt 0.4689941 0.855957
vt 0.4714355 0.8574219
vt 0.4692383 0.8579102
vt 0.4685059 0.8574219
vt 0.4689941 0.859375
vt 0.4699707 0.8574219
vt 0.4724121 0.8574219
vt 0.4707031 0.8588867
vt 0.4699707 0.859375
vt 0.4694824 0.8598633
vt 0.4699707 0.8623047
vt 0.4692383 0.8603516
vt 0.470459 0.8618164
vt 0.4711914 0.8637695
vt 0.4716797 0.8618164
vt 0.4719238 0.8637695
vt 0.472168 0.8608398
vt 0.4724121 0.8588867
vt 0.4731445 0.8598633
vt 0.4748535 0.8608398
vt 0.4729004 0.8583984
vt 0.4729004 0.8574219
vt 0.4733887 0.8564453
vt 0.4736328 0.8540039
vt 0.4731445 0.8652344
vt 0.4716797 0.8647461
vt 0.4748535 0.8642578
vt 0.4729004 0.862793
vt 0.5820313 0.972168
vt 0.5854492 0.9741211
vt 0.5825195 0.9726563
vt 0.5830078 0.9726563
vt 0.4755859 0.8486328
vt 0.4733887 0.8486328
vt 0.4741211 0.8486328
vt 0.4746094 0.8481445
vt 0.4765625 0.8427734
vt 0.4711914 0.8486328
vt 0.4755859 0.8427734
vt 0.4758301 0.8383789
vt 0.4770508 0.8383789
vt 0.4765625 0.8374023
vt 0.4729004 0.8427734
vt 0.472168 0.8481445
vt 0.4685059 0.8481445
vt 0.4680176 0.8486328
vt 0.4641113 0.8481445
vt 0.4643555 0.8486328
vt 0.4611816 0.8486328
vt 0.46875 0.8427734
vt 0.4755859 0.8374023
vt 0.4755859 0.8354492
vt 0.4729004 0.8393555
vt 0.4726563 0.8369141
vt 0.4746094 0.8354492
vt 0.4731445 0.8344727
vt 0.4741211 0.8349609
vt 0.4711914 0.8344727
vt 0.4719238 0.8349609
vt 0.4682617 0.8349609
vt 0.4680176 0.8344727
vt 0.46875 0.8369141
vt 0.46875 0.8393555
vt 0.4641113 0.8349609
vt 0.4643555 0.8344727
vt 0.4609375 0.8344727
vt 0.4641113 0.8369141
vt 0.4641113 0.8427734
vt 0.4641113 0.8393555
vt 0.4597168 0.8427734
vt 0.4594727 0.8393555
vt 0.4560547 0.8422852
vt 0.4594727 0.8369141
vt 0.4602051 0.8349609
vt 0.4570313 0.8354492
vt 0.458252 0.8344727
vt 0.4567871 0.8349609
vt 0.4553223 0.8354492
vt 0.4560547 0.8369141
vt 0.4543457 0.8374023
vt 0.4538574 0.8383789
vt 0.4558105 0.8383789
vt 0.4543457 0.8427734
vt 0.454834 0.8486328
vt 0.4560547 0.8481445
vt 0.4545898 0.8505859
vt 0.4584961 0.8481445
vt 0.4555664 0.8500977
vt 0.4538574 0.8540039
vt 0.4543457 0.8540039
vt 0.4543457 0.8544922
vt 0.4550781 0.8549805
vt 0.4562988 0.8549805
vt 0.4562988 0.8549805
vt 0.4575195 0.8505859
vt 0.4604492 0.8481445
vt 0.4594727 0.8491211
vt 0.4599609 0.8496094
vt 0.4584961 0.8515625
vt 0.458252 0.8510742
vt 0.4555664 0.8540039
vt 0.4560547 0.8544922
vt 0.6499023 0.9677734
vt 0.6523438 0.9702148
vt 0.6518555 0.9692383
vt 0.6567383 0.9667969
vt 0.6552734 0.9658203
vt 0.6572266 0.9609375
vt 0.659668 0.9692383
vt 0.65625 0.9711914
vt 0.6577148 0.9609375
vt 0.6557617 0.9604492
vt 0.6601563 0.9643555
vt 0.6601563 0.9643555
vt 0.659668 0.9692383
vt 0.6591797 0.9692383
vt 0.65625 0.9711914
vt 0.659668 0.9648438
vt 0.6567383 0.9614258
vt 0.6577148 0.9609375
vt 0.6557617 0.9604492
vt 0.652832 0.9648438
vt 0.6523438 0.9628906
vt 0.6499023 0.9677734
vt 0.65625 0.9643555
vt 0.6523438 0.9677734
vt 0.6523438 0.9702148
vt 0.6547852 0.965332
vt 0.6538086 0.9672852
vt 0.65625 0.9702148
vn -0.8164063 0.0670166 0.5732422
vn -0.7373047 0.4265137 0.5239258
vn -0.7060547 0.4689941 0.5302734
vn -0.8994141 0.4060059 -0.1625977
vn -0.7133789 0.6206055 -0.3261719
vn -0.4970703 0.800293 0.3356934
vn -0.7734375 0.3500977 0.5288086
vn -0.6728516 0.5742188 0.4658203
vn -0.1644287 0.4267578 0.8891602
vn -0.4970703 0.800293 0.3356934
vn 0.04824829 0.6152344 0.7871094
vn 0.09326172 0.9897461 -0.1074829
vn 0.6083984 0.6054688 0.5131836
vn 0.4848633 0.78125 -0.3925781
vn 0.8349609 0.4094238 0.3676758
vn 0.3955078 0.1005249 0.9130859
vn 0.5258789 -0.03347778 0.8500977
vn -0.2305908 0.2486572 0.940918
vn 0.3393555 0.1131592 0.934082
vn 0.5019531 0.01852417 0.8647461
vn -0.8203125 -0.01340485 0.5717773
vn -0.9580078 0.2199707 -0.1826172
vn -0.9858398 -0.06915283 -0.1518555
vn 0.3859863 0.05337524 0.9208984
vn 0.890625 -0.3557129 0.2832031
vn 0.359375 -0.3942871 0.8457031
vn 0.6469727 0.06982422 0.7592773
vn 0.956543 0.2697754 -0.1126099
vn 0.7211914 0.1269531 0.6811523
vn -0.2585449 -0.05056763 0.9648438
vn -0.769043 -0.3200684 0.5537109
vn -0.9599609 -0.2298584 -0.1594238
vn 0.4228516 -0.04229736 0.9052734
vn -0.2264404 -0.253418 0.9404297
vn -0.7836914 -0.3059082 0.5410156
vn -0.9658203 -0.1838379 -0.1829834
vn 0.3879395 -0.001613617 0.921875
vn 0.7109375 0.1424561 0.6884766
vn -0.2242432 -0.1870117 0.956543
vn -0.7973633 -0.208374 0.565918
vn -0.9731445 -0.1434326 -0.1799316
vn 0.3864746 0.02705383 0.921875
vn -0.208252 -0.1192627 0.9707031
vn -0.8164063 0.0670166 0.5732422
vn -0.8071289 0.5620117 0.182251
vn 0.7260742 0.175415 0.6645508
vn 0.2191162 0.8037109 0.5527344
vn 0.9267578 0.3422852 -0.1550293
vn 0.9204102 0.3156738 -0.2307129
vn 0.9228516 0.3615723 -0.133667
vn 0.652832 0.7299805 0.2025146
vn 0.8818359 0.4130859 -0.2281494
vn -0.4716797 0.5419922 0.6953125
vn -0.4797363 0.8769531 -0.01979065
vn -0.875 0.4841309 -0.01730347
vn -0.7412109 0.4628906 0.4858398
vn -0.7373047 0.4265137 0.5239258
vn -0.8686523 -0.07507324 0.4892578
vn -0.9985352 -0.04489136 -0.03100586
vn -0.8242188 -0.565918 -0.02363586
vn -0.8149414 0.006290436 0.5795898
vn -0.7060547 0.4689941 0.5302734
vn -0.7324219 -0.5893555 0.340332
vn -0.7250977 -0.4553223 0.5166016
vn -0.3676758 -0.9238281 0.1087036
vn -0.4125977 -0.9106445 -0.02375793
vn 0.09680176 -0.9951172 -0.02444458
vn 0.06689453 -0.9951172 -0.07098389
vn -0.05905151 -0.996582 0.05819702
vn -0.4572754 -0.8256836 0.3300781
vn -0.7470703 -0.07000732 0.6611328
vn -0.5444336 -0.5952148 0.5908203
vn -0.2137451 -0.9169922 0.3361816
vn -0.3039551 -0.03259277 0.9521484
vn 0.1021118 -0.9946289 -0.02532959
vn 0.4138184 -0.8623047 -0.2912598
vn -0.2481689 -0.5576172 0.7919922
vn -0.1091919 -0.90625 0.407959
vn 0.06463623 -0.9951172 -0.07775879
vn 0.08422852 -0.8994141 0.4287109
vn 0.04064941 -0.9960938 -0.08111572
vn 0.01167297 -0.996582 -0.07983398
vn 0.1031494 -0.5488281 0.8295898
vn 0.2653809 -0.8876953 0.376709
vn -0.2683105 0.4975586 0.824707
vn 0.09283447 -0.02189636 0.9956055
vn 0.06115723 0.5131836 0.855957
vn -0.1480713 0.8735352 0.463623
vn -0.458252 0.7924805 -0.402832
vn 0.002147675 1 -0.01651001
vn 0.004119873 0.8857422 0.4643555
vn -0.05169678 0.9980469 -0.03469849
vn -0.08062744 0.9960938 -0.03341675
vn 0.4870605 0.002241135 0.8735352
vn 0.1829834 0.8896484 0.4182129
vn 0.4418945 -0.5175781 0.7329102
vn 0.3937988 0.5214844 0.7568359
vn 0.326416 0.8974609 0.2963867
vn -0.0869751 0.9960938 -0.005317688
vn 0.7998047 0.02307129 0.5996094
vn 0.652832 0.5527344 0.5180664
vn 0.3964844 0.9106445 0.116333
vn -0.09674072 0.9951172 0.01213837
vn 0.7021484 -0.5131836 0.4931641
vn 0.9746094 0.04003906 0.2194824
vn 0.01112366 0.9926758 -0.1188965
vn -0.5673828 0.8178711 -0.09527588
vn -0.5996094 0.793457 -0.1029663
vn 0.4089355 0.9091797 -0.08044434
vn 0.8066406 0.5585938 0.1938477
vn 0.7993164 0.5717773 -0.1833496
vn 0.972168 0.05038452 -0.2287598
vn 0.8486328 -0.4865723 -0.2080078
vn 0.8549805 -0.4899902 0.1694336
vn 0.4838867 -0.871582 0.07751465
vn 0.4086914 -0.8764648 0.255127
vn 0.005336761 -0.9985352 -0.05178833
vn -0.01043701 -0.9995117 -0.03665161
vn 0.5258789 -0.03347778 0.8500977
vn 0.6083984 0.6054688 0.5131836
vn 0.8349609 0.4094238 0.3676758
vn -0.8994141 0.4060059 -0.1625977
vn -0.4970703 0.800293 0.3356934
vn -0.6728516 0.5742188 0.4658203
vn 0.359375 -0.3942871 0.8457031
vn 0.5258789 -0.03347778 0.8500977
vn 0.8349609 0.4094238 0.3676758
vn 0.9746094 0.04003906 0.2194824
vn 0.8549805 -0.4899902 0.1694336
vn 0.8486328 -0.4865723 -0.2080078
vn 0.4716797 -0.8735352 -0.1204224
vn 0.4838867 -0.871582 0.07751465
vn -0.01043701 -0.9995117 -0.03665161
vn 0.4182129 -0.8613281 -0.2890625
vn 0.7202148 -0.4733887 -0.5073242
vn 0.972168 0.05038452 -0.2287598
vn -0.01304626 -1 -0.01070404
vn 0.009849548 -1 0.002616882
vn -0.4897461 -0.8613281 -0.135498
vn -0.404541 -0.8457031 -0.3483887
vn -0.4838867 -0.8706055 0.09039307
vn 0.005336761 -0.9985352 -0.05178833
vn -0.8398438 -0.519043 0.1593018
vn 0.01167297 -0.996582 -0.07983398
vn 0.2753906 -0.8759766 -0.3955078
vn 0.01513672 -0.9995117 0.02903748
vn 0.03909302 -0.9990234 0.02618408
vn -0.8359375 -0.5102539 -0.2019043
vn 0.4753418 -0.4890137 -0.7314453
vn 0.5268555 0.04415894 -0.8491211
vn 0.09094238 -0.8740234 -0.4775391
vn 0.06390381 -0.9970703 0.0406189
vn 0.118103 -0.5092773 -0.8525391
vn -0.09564209 -0.8847656 -0.4560547
vn -0.9741211 -0.04370117 -0.2216797
vn -0.9794922 -0.06097412 0.1917725
vn -0.9428711 0.3039551 0.1365967
vn 0.8134766 0.05114746 -0.5791016
vn 0.6723633 0.5610352 -0.4833984
vn 0.7993164 0.5717773 -0.1833496
vn 0.3605957 0.8945313 -0.2648926
vn 0.4089355 0.9091797 -0.08044434
vn 0.4599609 0.8193359 -0.3427734
vn 0.01112366 0.9926758 -0.1188965
vn 0.4265137 0.5644531 -0.706543
vn 0.1955566 0.9091797 -0.3679199
vn 0.06878662 0.5566406 -0.8276367
vn 0.107605 0.02807617 -0.9936523
vn -0.2338867 -0.5126953 -0.8261719
vn -0.3041992 0.008087158 -0.9526367
vn -0.5361328 -0.5439453 -0.6455078
vn -0.2819824 0.5268555 -0.8017578
vn -0.2573242 -0.8969727 -0.359375
vn 0.08465576 -0.9960938 0.020401
vn 0.1072998 -0.9941406 0.002370834
vn -0.3806152 -0.9003906 -0.2099609
vn -0.4125977 -0.9106445 -0.02375793
vn 0.09680176 -0.9951172 -0.02444458
vn -0.7485352 -0.5566406 -0.3608398
vn -0.8242188 -0.565918 -0.02363586
vn -0.9985352 -0.04489136 -0.03100586
vn -0.6650391 -0.0134201 -0.746582
vn -0.5854492 0.5214844 -0.6206055
vn -0.9086914 -0.03244019 -0.4162598
vn -0.7973633 0.5009766 -0.3361816
vn -0.875 0.4841309 -0.01730347
vn -0.4797363 0.8769531 -0.01979065
vn -0.1779785 0.8925781 -0.4147949
vn -0.4626465 0.8701172 -0.1688232
vn -0.3398438 0.8852539 -0.3178711
vn 0.008796692 0.8999023 -0.4362793
vn 0.01499176 0.9985352 0.04876709
vn -0.007694244 0.9975586 0.0668335
vn -0.001055717 1 -0.00957489
vn 0.2191162 0.8037109 0.5527344
vn 0.652832 0.7299805 0.2025146
vn 0.5009766 0.8652344 0.01267242
vn -0.02838135 0.9956055 0.08709717
vn -0.05578613 0.9956055 0.0723877
vn 0.1088867 0.9941406 0.004390717
vn 0.8818359 0.4130859 -0.2281494
vn 0.855957 0.5170898 0.0223999
vn 0.668457 0.7148438 -0.2059326
vn 0.9990234 0.04382324 0.01751709
vn 0.7045898 0.5009766 -0.5024414
vn 0.7861328 0.6157227 -0.04772949
vn 0.4157715 0.7128906 -0.5644531
vn -0.5249023 0.5947266 -0.609375
vn -0.5996094 0.793457 -0.1029663
vn 0.3293457 0.6225586 -0.7094727
vn 0.659668 0.5834961 -0.4731445
vn 0.4855957 0.8061523 -0.3378906
vn 0.5332031 0.8203125 0.2064209
vn 0.04592896 0.8212891 -0.5683594
vn -0.4833984 0.3791504 -0.7890625
vn -0.5639648 0.6118164 -0.5546875
vn -0.9868164 -0.1622314 -0.001209259
vn -0.9731445 -0.2296143 0.008804321
vn -0.9868164 -0.02256775 0.1611328
vn -0.5673828 0.8178711 -0.09527588
vn -0.878418 0.442627 -0.1796875
vn -0.4807129 0.8222656 -0.3041992
vn -0.09674072 0.9951172 0.01213837
vn -0.0869751 0.9960938 -0.005317688
vn -0.08062744 0.9960938 -0.03341675
vn -0.7299805 0.4528809 -0.5117188
vn -0.3081055 0.8354492 -0.4555664
vn -0.05169678 0.9980469 -0.03469849
vn -0.8017578 -0.02145386 -0.597168
vn -0.6811523 -0.4997559 -0.5351563
vn -0.4887695 -0.002346039 -0.8725586
vn -0.4064941 -0.4770508 -0.7792969
vn -0.4519043 0.4772949 -0.7539063
vn -0.09356689 0.01705933 -0.9956055
vn -0.2253418 -0.8408203 -0.4924316
vn 0.04064941 -0.9960938 -0.08111572
vn -0.1056519 0.4887695 -0.8662109
vn -0.0604248 -0.4541016 -0.8891602
vn -0.01131439 -0.8359375 -0.5483398
vn 0.2080078 -0.8193359 -0.5336914
vn 0.06463623 -0.9951172 -0.07775879
vn 0.3466797 -0.8193359 -0.4567871
vn 0.1021118 -0.9946289 -0.02532959
vn 0.4138184 -0.8623047 -0.2912598
vn 0.298584 -0.4433594 -0.8452148
vn 0.3166504 0.03857422 -0.9477539
vn 0.5317383 -0.4428711 -0.7216797
vn 0.2536621 0.5048828 -0.8251953
vn 0.5820313 0.03234863 -0.8125
vn 0.7431641 -0.4162598 -0.5239258
vn 0.1407471 0.8603516 -0.489502
vn -0.08966064 0.855957 -0.5087891
vn 0.002147675 1 -0.01651001
vn 0.0380249 0.7182617 -0.6948242
vn -0.458252 0.7924805 -0.402832
vn 0.5043945 0.4177246 -0.7558594
vn 0.8139648 0.04470825 -0.5791016
vn 0.4382324 0.3374023 -0.8330078
vn -0.3803711 0.152832 -0.9121094
vn 0.7714844 0.3208008 -0.5493164
vn 0.9609375 0.03613281 -0.2746582
vn 0.9228516 0.3615723 -0.133667
vn 0.8637695 -0.4362793 -0.2521973
vn 0.9003906 -0.4353027 0.004104614
vn 0.7631836 0.3669434 -0.5317383
vn 0.9267578 0.3422852 -0.1550293
vn 0.5478516 -0.8212891 -0.1594238
vn 0.5849609 -0.8110352 -0.009567261
vn 0.06689453 -0.9951172 -0.07098389
vn -0.05905151 -0.996582 0.05819702
vn 0.09680176 -0.9951172 -0.02444458
vn 0.4157715 0.34375 -0.8417969
vn 0.7768555 0.3676758 -0.5112305
vn 0.9204102 0.3156738 -0.2307129
vn -0.3361816 0.1448975 -0.9306641
vn 0.3735352 0.3410645 -0.862793
vn 0.7626953 0.3623047 -0.5356445
vn -0.7348633 -0.01544189 -0.6777344
vn -0.9731445 -0.1434326 -0.1799316
vn -0.8071289 0.5620117 0.182251
vn -0.9658203 -0.1838379 -0.1829834
vn -0.7216797 -0.01439667 -0.6923828
vn -0.3706055 0.1376953 -0.918457
vn -0.7333984 -0.05529785 -0.6777344
vn -0.9599609 -0.2298584 -0.1594238
vn 0.4326172 0.2089844 -0.8769531
vn -0.7617188 0.02679443 -0.6474609
vn -0.9858398 -0.06915283 -0.1518555
vn -0.9580078 0.2199707 -0.1826172
vn -0.4404297 0.01242065 -0.8979492
vn 0.7993164 0.1928711 -0.5688477
vn 0.07556152 -0.3161621 -0.9458008
vn -0.644043 0.0224762 -0.7646484
vn -0.7641602 0.09753418 -0.6376953
vn -0.8994141 0.4060059 -0.1625977
vn -0.7734375 0.3500977 0.5288086
vn -0.7207031 0.03503418 -0.6923828
vn -0.7133789 0.6206055 -0.3261719
vn -0.6030273 -0.02262878 -0.7973633
vn -0.260498 0.5473633 -0.7954102
vn -0.453125 -0.3779297 -0.8076172
vn 0.7070313 -0.4790039 -0.5205078
vn -0.07348633 -0.9692383 0.2354736
vn 0.359375 -0.3942871 0.8457031
vn 0.890625 -0.3557129 0.2832031
vn 0.956543 0.2697754 -0.1126099
vn 0.7211914 0.1269531 0.6811523
vn 0.7109375 0.1424561 0.6884766
vn 0.09326172 0.9897461 -0.1074829
vn -0.4970703 0.800293 0.3356934
vn 0.4848633 0.78125 -0.3925781
vn -0.08599854 0.470459 -0.878418
vn -0.6030273 -0.02262878 -0.7973633
vn -0.08599854 0.470459 -0.878418
vn -0.260498 0.5473633 -0.7954102
vn -0.453125 -0.3779297 -0.8076172
vn 0.5009766 0.8652344 0.01267242
vn 0.01499176 0.9985352 0.04876709
vn -0.001055717 1 -0.00957489
vn 0.4580078 0.8544922 0.2454834
vn 0.855957 0.5170898 0.0223999
vn -0.007694244 0.9975586 0.0668335
vn 0.7739258 0.5092773 0.3759766
vn 0.9086914 0.03237915 0.4162598
vn 0.9990234 0.04382324 0.01751709
vn 0.9003906 -0.4353027 0.004104614
vn 0.5629883 0.4824219 0.6713867
vn 0.3122559 0.8530273 0.4179688
vn 0.1256104 0.8349609 0.5356445
vn -0.02838135 0.9956055 0.08709717
vn -0.1025391 0.8168945 0.5673828
vn -0.05578613 0.9956055 0.0723877
vn 0.1088867 0.9941406 0.004390717
vn 0.2457275 0.4680176 0.8486328
vn 0.8193359 -0.4482422 0.3571777
vn 0.5849609 -0.8110352 -0.009567261
vn 0.6635742 0.01330566 0.7480469
vn 0.6064453 -0.4589844 0.6494141
vn 0.5302734 -0.8217773 0.2080078
vn 0.1072998 -0.9941406 0.002370834
vn 0.09680176 -0.9951172 -0.02444458
vn 0.08465576 -0.9960938 0.020401
vn 0.390625 -0.8388672 0.3786621
vn 0.2011719 -0.8413086 0.5019531
vn 0.06390381 -0.9970703 0.0406189
vn 0.2866211 -0.4865723 0.8251953
vn 0.3024902 -0.008148193 0.953125
vn -0.02729797 -0.8510742 0.5244141
vn 0.03909302 -0.9990234 0.02618408
vn 0.01513672 -0.9995117 0.02903748
vn -0.08081055 -0.4985352 0.862793
vn -0.1184692 0.4558105 0.8823242
vn -0.1099854 -0.03201294 0.9936523
vn -0.4431152 0.3032227 0.84375
vn -0.5043945 -0.05349731 0.8618164
vn -0.8154297 0.06082153 0.5756836
vn -0.4245605 -0.5151367 0.7446289
vn -0.237915 -0.8681641 0.4355469
vn -0.3701172 -0.8837891 0.2868652
vn 0.009849548 -1 0.002616882
vn -0.01304626 -1 -0.01070404
vn -0.4838867 -0.8706055 0.09039307
vn -0.6704102 -0.5566406 0.4907227
vn -0.8398438 -0.519043 0.1593018
vn -0.9794922 -0.06097412 0.1917725
vn -0.8110352 -0.09051514 0.5776367
vn -0.9428711 0.3039551 0.1365967
vn -0.9868164 -0.02256775 0.1611328
vn -0.7802734 -0.2775879 0.5605469
vn -0.9731445 -0.2296143 0.008804321
vn -0.4699707 -0.03857422 0.8818359
vn -0.7407227 -0.4099121 0.5322266
vn -0.9868164 -0.1622314 -0.001209259
vn -0.8027344 -0.1472168 0.5776367
vn -0.5639648 0.6118164 -0.5546875
vn 0.04592896 0.8212891 -0.5683594
vn 0.4855957 0.8061523 -0.3378906
vn 0.5332031 0.8203125 0.2064209
vn -0.3225098 -0.2337646 0.9169922
vn -0.1010742 0.7998047 0.5917969
vn 0.4272461 0.5825195 0.6918945
vn 0.668457 0.7148438 -0.2059326
vn 0.7861328 0.6157227 -0.04772949
vn 0.5942383 0.3774414 0.7099609
vn -0.3210449 -0.1621094 0.9331055
vn 0.3371582 0.6137695 0.7138672
vn -0.453125 -0.3779297 -0.8076172
vn -0.1625977 0.1824951 -0.9697266
vn -0.08599854 0.470459 -0.878418
vn 0.65625 0.6274414 -0.4189453
vn 0.4848633 0.78125 -0.3925781
vn 0.8349609 0.4094238 0.3676758
vn 0.7753906 0.3601074 -0.5185547
vn -0.06237793 -0.02398682 -0.9975586
vn 0.8359375 0.2739258 0.4755859
vn 0.359375 -0.3942871 0.8457031
vn 0.949707 0.05218506 0.3081055
vn 0.949707 0.05218506 0.3081055
vn 0.7753906 0.3601074 -0.5185547
vn 0.75 -0.4023438 -0.5249023
vn -0.06237793 -0.02398682 -0.9975586
vn 0.8168945 -0.4509277 0.3591309
vn 0.0147171 -0.3349609 0.9418945
vn 0.8359375 0.2739258 0.4755859
vn 0.359375 -0.3942871 0.8457031
vn -0.734375 -0.3613281 0.5742188
vn -0.07348633 -0.9692383 0.2354736
vn -0.453125 -0.3779297 -0.8076172
vn 0.3134766 -0.6147461 0.7236328
vn -0.7563477 -0.3525391 -0.5512695
vn -0.1625977 0.1824951 -0.9697266
vn -0.102417 -0.9814453 0.1634521
vn -0.4990234 -0.5458984 -0.6728516
vn -0.1362305 -0.4035645 -0.9047852
g Flamingo_Inflatable_02_0
f 3/3/3 2/2/2 1/1/1
f 6/6/6 5/5/5 4/4/4
f 8/8/8 4/4/4 7/7/7
f 9/9/9 8/8/8 7/7/7
f 10/10/10 8/8/8 9/9/9
f 11/11/11 10/10/10 9/9/9
f 10/10/10 11/11/11 12/12/12
f 11/11/11 13/13/13 12/12/12
f 12/12/12 13/13/13 14/14/14
f 13/13/13 15/15/15 14/14/14
f 13/13/13 11/11/11 16/16/16
f 11/11/11 9/9/9 16/16/16
f 13/13/13 16/16/16 17/17/17
f 18/18/18 9/9/9 7/7/7
f 16/16/16 9/9/9 19/19/19
f 9/9/9 18/18/18 19/19/19
f 17/17/17 16/16/16 20/20/20
f 16/16/16 19/19/19 20/20/20
f 18/18/18 7/7/7 21/21/21
f 7/7/7 22/22/22 21/21/21
f 22/22/22 23/23/23 21/21/21
f 19/19/19 18/18/18 24/24/24
f 20/20/20 19/19/19 24/24/24
f 17/17/17 20/20/20 25/25/25
f 26/26/26 17/17/17 25/25/25
f 25/25/25 20/20/20 27/27/27
f 27/27/27 20/20/20 24/24/24
f 28/28/28 25/25/25 27/27/27
f 28/28/28 27/27/27 29/29/29
f 30/30/30 18/18/18 21/21/21
f 18/18/18 30/30/30 24/24/24
f 21/21/21 23/23/23 31/31/31
f 30/30/30 21/21/21 31/31/31
f 23/23/23 32/32/32 31/31/31
f 29/29/29 27/27/27 33/33/33
f 27/27/27 24/24/24 33/33/33
f 24/24/24 30/30/30 34/34/34
f 34/34/34 30/30/30 31/31/31
f 33/33/33 24/24/24 34/34/34
f 31/31/31 32/32/32 35/35/35
f 34/34/34 31/31/31 35/35/35
f 32/32/32 36/36/36 35/35/35
f 29/29/29 33/33/33 37/37/37
f 38/38/38 29/29/29 37/37/37
f 33/33/33 34/34/34 39/39/39
f 39/39/39 34/34/34 35/35/35
f 37/37/37 33/33/33 39/39/39
f 35/35/35 36/36/36 40/40/40
f 39/39/39 35/35/35 40/40/40
f 36/36/36 41/41/41 40/40/40
f 37/37/37 39/39/39 42/42/42
f 38/38/38 37/37/37 42/42/42
f 43/43/43 39/39/39 40/40/40
f 39/39/39 43/43/43 42/42/42
f 40/40/40 41/41/41 44/44/44
f 43/43/43 40/40/40 44/44/44
f 41/41/41 45/45/45 44/44/44
f 46/46/46 38/38/38 42/42/42
f 42/42/42 43/43/43 47/47/47
f 46/46/46 42/42/42 47/47/47
f 48/48/48 38/38/38 46/46/46
f 48/48/48 49/49/49 38/38/38
f 50/50/50 48/48/48 46/46/46
f 50/50/50 46/46/46 51/51/51
f 51/51/51 46/46/46 47/47/47
f 52/52/52 50/50/50 51/51/51
f 43/43/43 53/53/53 47/47/47
f 53/53/53 43/43/43 44/44/44
f 53/53/53 54/54/54 47/47/47
f 55/55/55 54/54/54 53/53/53
f 56/56/56 53/53/53 44/44/44
f 56/56/56 55/55/55 53/53/53
f 57/57/57 56/56/56 44/44/44
f 56/56/56 58/58/58 55/55/55
f 58/58/58 59/59/59 55/55/55
f 60/60/60 59/59/59 58/58/58
f 57/57/57 61/61/61 56/56/56
f 61/61/61 58/58/58 56/56/56
f 61/61/61 57/57/57 62/62/62
f 45/45/45 62/62/62 44/44/44
f 63/63/63 60/60/60 58/58/58
f 61/61/61 64/64/64 58/58/58
f 64/64/64 63/63/63 58/58/58
f 63/63/63 65/65/65 60/60/60
f 65/65/65 66/66/66 60/60/60
f 67/67/67 66/66/66 65/65/65
f 68/68/68 67/67/67 65/65/65
f 69/69/69 68/68/68 65/65/65
f 70/70/70 65/65/65 63/63/63
f 64/64/64 70/70/70 63/63/63
f 70/70/70 69/69/69 65/65/65
f 64/64/64 61/61/61 71/71/71
f 71/71/71 61/61/61 62/62/62
f 70/70/70 64/64/64 72/72/72
f 72/72/72 64/64/64 71/71/71
f 69/69/69 70/70/70 73/73/73
f 73/73/73 70/70/70 72/72/72
f 74/74/74 71/71/71 62/62/62
f 72/72/72 71/71/71 74/74/74
f 75/75/75 69/69/69 73/73/73
f 76/76/76 69/69/69 75/75/75
f 73/73/73 72/72/72 77/77/77
f 77/77/77 72/72/72 74/74/74
f 75/75/75 73/73/73 78/78/78
f 78/78/78 73/73/73 77/77/77
f 79/79/79 75/75/75 78/78/78
f 79/79/79 78/78/78 80/80/80
f 81/81/81 79/79/79 80/80/80
f 82/82/82 81/81/81 80/80/80
f 78/78/78 77/77/77 83/83/83
f 80/80/80 78/78/78 83/83/83
f 84/84/84 82/82/82 80/80/80
f 84/84/84 80/80/80 83/83/83
f 85/85/85 74/74/74 62/62/62
f 85/85/85 62/62/62 45/45/45
f 77/77/77 74/74/74 86/86/86
f 83/83/83 77/77/77 86/86/86
f 86/86/86 74/74/74 87/87/87
f 74/74/74 85/85/85 87/87/87
f 88/88/88 85/85/85 45/45/45
f 88/88/88 45/45/45 89/89/89
f 90/90/90 88/88/88 89/89/89
f 85/85/85 88/88/88 91/91/91
f 91/91/91 88/88/88 90/90/90
f 87/87/87 85/85/85 91/91/91
f 92/92/92 91/91/91 90/90/90
f 91/91/91 92/92/92 93/93/93
f 83/83/83 86/86/86 94/94/94
f 94/94/94 86/86/86 87/87/87
f 95/95/95 91/91/91 93/93/93
f 87/87/87 91/91/91 95/95/95
f 96/96/96 83/83/83 94/94/94
f 96/96/96 84/84/84 83/83/83
f 97/97/97 94/94/94 87/87/87
f 97/97/97 87/87/87 95/95/95
f 98/98/98 95/95/95 93/93/93
f 99/99/99 98/98/98 93/93/93
f 96/96/96 94/94/94 100/100/100
f 100/100/100 94/94/94 97/97/97
f 101/101/101 97/97/97 95/95/95
f 98/98/98 101/101/101 95/95/95
f 101/101/101 100/100/100 97/97/97
f 102/102/102 98/98/98 99/99/99
f 101/101/101 98/98/98 102/102/102
f 103/103/103 102/102/102 99/99/99
f 84/84/84 96/96/96 104/104/104
f 104/104/104 96/96/96 100/100/100
f 105/105/105 100/100/100 101/101/101
f 104/104/104 100/100/100 105/105/105
f 102/102/102 103/103/103 106/106/106
f 106/106/106 103/103/103 107/107/107
f 108/108/108 106/106/106 107/107/107
f 109/109/109 102/102/102 106/106/106
f 110/110/110 101/101/101 102/102/102
f 110/110/110 102/102/102 109/109/109
f 110/110/110 105/105/105 101/101/101
f 111/111/111 110/110/110 109/109/109
f 105/105/105 110/110/110 111/111/111
f 112/112/112 105/105/105 111/111/111
f 112/112/112 113/113/113 105/105/105
f 114/114/114 104/104/104 105/105/105
f 114/114/114 115/115/115 104/104/104
f 115/115/115 116/116/116 104/104/104
f 116/116/116 84/84/84 104/104/104
f 82/82/82 84/84/84 116/116/116
f 117/117/117 82/82/82 116/116/116
f 117/117/117 116/116/116 115/115/115
f 118/118/118 117/117/117 115/115/115
f 121/121/121 120/120/120 119/119/119
f 124/124/124 123/123/123 122/122/122
f 127/127/127 126/126/126 125/125/125
f 130/130/130 129/129/129 128/128/128
f 130/130/130 131/131/131 129/129/129
f 131/131/131 132/132/132 129/129/129
f 133/133/133 132/132/132 131/131/131
f 134/134/134 131/131/131 130/130/130
f 135/135/135 134/134/134 130/130/130
f 135/135/135 130/130/130 136/136/136
f 137/137/137 133/133/133 131/131/131
f 138/138/138 137/137/137 131/131/131
f 134/134/134 138/138/138 131/131/131
f 139/139/139 133/133/133 137/137/137
f 139/139/139 140/140/140 133/133/133
f 141/141/141 139/139/139 137/137/137
f 140/140/140 142/142/142 133/133/133
f 141/141/141 143/143/143 139/139/139
f 142/142/142 140/140/140 144/144/144
f 138/138/138 134/134/134 145/145/145
f 146/146/146 138/138/138 145/145/145
f 147/147/147 146/146/146 145/145/145
f 143/143/143 148/148/148 139/139/139
f 139/139/139 148/148/148 140/140/140
f 134/134/134 135/135/135 149/149/149
f 145/145/145 134/134/134 149/149/149
f 149/149/149 135/135/135 150/150/150
f 151/151/151 147/147/147 145/145/145
f 152/152/152 147/147/147 151/151/151
f 145/145/145 149/149/149 153/153/153
f 151/151/151 145/145/145 153/153/153
f 153/153/153 149/149/149 150/150/150
f 154/154/154 152/152/152 151/151/151
f 154/154/154 151/151/151 153/153/153
f 155/155/155 148/148/148 143/143/143
f 156/156/156 155/155/155 143/143/143
f 156/156/156 157/157/157 155/155/155
f 135/135/135 158/158/158 150/150/150
f 158/158/158 135/135/135 136/136/136
f 158/158/158 136/136/136 159/159/159
f 150/150/150 158/158/158 159/159/159
f 136/136/136 160/160/160 159/159/159
f 159/159/159 160/160/160 161/161/161
f 160/160/160 162/162/162 161/161/161
f 161/161/161 162/162/162 163/163/163
f 162/162/162 164/164/164 163/163/163
f 165/165/165 159/159/159 161/161/161
f 165/165/165 150/150/150 159/159/159
f 166/166/166 165/165/165 161/161/161
f 166/166/166 161/161/161 163/163/163
f 150/150/150 165/165/165 167/167/167
f 167/167/167 165/165/165 166/166/166
f 168/168/168 150/150/150 167/167/167
f 168/168/168 153/153/153 150/150/150
f 169/169/169 153/153/153 168/168/168
f 169/169/169 154/154/154 153/153/153
f 170/170/170 169/169/169 168/168/168
f 154/154/154 169/169/169 171/171/171
f 171/171/171 169/169/169 170/170/170
f 168/168/168 167/167/167 172/172/172
f 170/170/170 168/168/168 172/172/172
f 173/173/173 154/154/154 171/171/171
f 152/152/152 154/154/154 173/173/173
f 174/174/174 152/152/152 173/173/173
f 175/175/175 174/174/174 173/173/173
f 176/176/176 175/175/175 173/173/173
f 176/176/176 173/173/173 171/171/171
f 175/175/175 176/176/176 177/177/177
f 178/178/178 175/175/175 177/177/177
f 177/177/177 176/176/176 179/179/179
f 179/179/179 176/176/176 171/171/171
f 180/180/180 177/177/177 179/179/179
f 180/180/180 179/179/179 181/181/181
f 182/182/182 171/171/171 170/170/170
f 179/179/179 171/171/171 182/182/182
f 170/170/170 172/172/172 183/183/183
f 182/182/182 170/170/170 183/183/183
f 179/179/179 184/184/184 181/181/181
f 184/184/184 179/179/179 182/182/182
f 181/181/181 184/184/184 185/185/185
f 184/184/184 182/182/182 185/185/185
f 182/182/182 183/183/183 185/185/185
f 186/186/186 181/181/181 185/185/185
f 186/186/186 185/185/185 187/187/187
f 183/183/183 172/172/172 188/188/188
f 172/172/172 167/167/167 188/188/188
f 185/185/185 183/183/183 189/189/189
f 185/185/185 189/189/189 187/187/187
f 183/183/183 190/190/190 189/189/189
f 190/190/190 183/183/183 188/188/188
f 167/167/167 191/191/191 188/188/188
f 191/191/191 167/167/167 166/166/166
f 187/187/187 189/189/189 192/192/192
f 189/189/189 190/190/190 192/192/192
f 190/190/190 193/193/193 192/192/192
f 194/194/194 187/187/187 192/192/192
f 187/187/187 194/194/194 195/195/195
f 195/195/195 194/194/194 196/196/196
f 194/194/194 197/197/197 196/196/196
f 193/193/193 190/190/190 198/198/198
f 190/190/190 188/188/188 198/198/198
f 188/188/188 191/191/191 198/198/198
f 191/191/191 199/199/199 198/198/198
f 191/191/191 166/166/166 199/199/199
f 166/166/166 200/200/200 199/199/199
f 196/196/196 197/197/197 201/201/201
f 200/200/200 166/166/166 163/163/163
f 197/197/197 202/202/202 201/201/201
f 203/203/203 200/200/200 163/163/163
f 201/201/201 202/202/202 204/204/204
f 205/205/205 203/203/203 163/163/163
f 206/206/206 203/203/203 205/205/205
f 207/207/207 205/205/205 163/163/163
f 164/164/164 207/207/207 163/163/163
f 208/208/208 207/207/207 164/164/164
f 209/209/209 208/208/208 164/164/164
f 207/207/207 210/210/210 205/205/205
f 210/210/210 207/207/207 208/208/208
f 211/211/211 206/206/206 205/205/205
f 210/210/210 211/211/211 205/205/205
f 211/211/211 212/212/212 206/206/206
f 212/212/212 211/211/211 210/210/210
f 212/212/212 213/213/213 206/206/206
f 214/214/214 212/212/212 210/210/210
f 214/214/214 210/210/210 215/215/215
f 215/215/215 210/210/210 208/208/208
f 216/216/216 214/214/214 215/215/215
f 217/217/217 216/216/216 215/215/215
f 218/218/218 217/217/217 215/215/215
f 218/218/218 215/215/215 208/208/208
f 219/219/219 218/218/218 208/208/208
f 219/219/219 208/208/208 209/209/209
f 157/157/157 219/219/219 209/209/209
f 209/209/209 220/220/220 157/157/157
f 220/220/220 221/221/221 157/157/157
f 157/157/157 221/221/221 155/155/155
f 220/220/220 222/222/222 221/221/221
f 220/220/220 223/223/223 222/222/222
f 223/223/223 224/224/224 222/222/222
f 224/224/224 225/225/225 222/222/222
f 221/221/221 226/226/226 155/155/155
f 222/222/222 226/226/226 221/221/221
f 225/225/225 227/227/227 222/222/222
f 222/222/222 227/227/227 226/226/226
f 225/225/225 228/228/228 227/227/227
f 226/226/226 229/229/229 155/155/155
f 155/155/155 229/229/229 148/148/148
f 229/229/229 230/230/230 148/148/148
f 148/148/148 230/230/230 140/140/140
f 229/229/229 226/226/226 231/231/231
f 229/229/229 231/231/231 230/230/230
f 230/230/230 232/232/232 140/140/140
f 231/231/231 232/232/232 230/230/230
f 226/226/226 233/233/233 231/231/231
f 227/227/227 233/233/233 226/226/226
f 231/231/231 233/233/233 234/234/234
f 231/231/231 234/234/234 232/232/232
f 232/232/232 235/235/235 140/140/140
f 140/140/140 235/235/235 144/144/144
f 144/144/144 235/235/235 236/236/236
f 233/233/233 227/227/227 237/237/237
f 233/233/233 237/237/237 234/234/234
f 232/232/232 238/238/238 235/235/235
f 234/234/234 238/238/238 232/232/232
f 235/235/235 239/239/239 236/236/236
f 238/238/238 239/239/239 235/235/235
f 239/239/239 240/240/240 236/236/236
f 239/239/239 238/238/238 240/240/240
f 240/240/240 241/241/241 236/236/236
f 240/240/240 242/242/242 241/241/241
f 242/242/242 243/243/243 241/241/241
f 242/242/242 244/244/244 243/243/243
f 238/238/238 245/245/245 240/240/240
f 240/240/240 245/245/245 242/242/242
f 234/234/234 246/246/246 238/238/238
f 246/246/246 245/245/245 238/238/238
f 245/245/245 247/247/247 242/242/242
f 242/242/242 247/247/247 244/244/244
f 248/248/248 246/246/246 234/234/234
f 237/237/237 248/248/248 234/234/234
f 246/246/246 249/249/249 245/245/245
f 249/249/249 247/247/247 245/245/245
f 246/246/246 248/248/248 249/249/249
f 247/247/247 250/250/250 244/244/244
f 247/247/247 249/249/249 250/250/250
f 251/251/251 248/248/248 237/237/237
f 252/252/252 251/251/251 237/237/237
f 227/227/227 252/252/252 237/237/237
f 228/228/228 252/252/252 227/227/227
f 252/252/252 228/228/228 251/251/251
f 228/228/228 253/253/253 251/251/251
f 251/251/251 253/253/253 254/254/254
f 251/251/251 254/254/254 248/248/248
f 253/253/253 255/255/255 254/254/254
f 248/248/248 256/256/256 249/249/249
f 254/254/254 256/256/256 248/248/248
f 249/249/249 257/257/257 250/250/250
f 249/249/249 256/256/256 257/257/257
f 258/258/258 256/256/256 254/254/254
f 259/259/259 254/254/254 255/255/255
f 259/259/259 258/258/258 254/254/254
f 256/256/256 260/260/260 257/257/257
f 256/256/256 258/258/258 260/260/260
f 257/257/257 261/261/261 250/250/250
f 260/260/260 201/201/201 257/257/257
f 201/201/201 261/261/261 257/257/257
f 262/262/262 201/201/201 260/260/260
f 261/261/261 201/201/201 204/204/204
f 261/261/261 263/263/263 250/250/250
f 261/261/261 204/204/204 263/263/263
f 204/204/204 264/264/264 263/263/263
f 250/250/250 263/263/263 244/244/244
f 265/265/265 262/262/262 260/260/260
f 258/258/258 265/265/265 260/260/260
f 266/266/266 262/262/262 265/265/265
f 263/263/263 264/264/264 267/267/267
f 263/263/263 267/267/267 244/244/244
f 264/264/264 268/268/268 267/267/267
f 244/244/244 267/267/267 269/269/269
f 267/267/267 268/268/268 269/269/269
f 270/270/270 244/244/244 269/269/269
f 268/268/268 271/271/271 269/269/269
f 258/258/258 272/272/272 265/265/265
f 272/272/272 258/258/258 259/259/259
f 273/273/273 266/266/266 265/265/265
f 272/272/272 273/273/273 265/265/265
f 274/274/274 266/266/266 273/273/273
f 275/275/275 272/272/272 259/259/259
f 272/272/272 276/276/276 273/273/273
f 276/276/276 272/272/272 275/275/275
f 277/277/277 274/274/274 273/273/273
f 276/276/276 277/277/277 273/273/273
f 275/275/275 259/259/259 278/278/278
f 278/278/278 259/259/259 255/255/255
f 279/279/279 278/278/278 255/255/255
f 280/280/280 279/279/279 255/255/255
f 279/279/279 281/281/281 278/278/278
f 282/282/282 275/275/275 278/278/278
f 281/281/281 282/282/282 278/278/278
f 283/283/283 276/276/276 275/275/275
f 283/283/283 275/275/275 282/282/282
f 284/284/284 282/282/282 281/281/281
f 284/284/284 283/283/283 282/282/282
f 285/285/285 284/284/284 281/281/281
f 286/286/286 276/276/276 283/283/283
f 276/276/276 286/286/286 277/277/277
f 287/287/287 284/284/284 285/285/285
f 288/288/288 287/287/287 285/285/285
f 288/288/288 289/289/289 287/287/287
f 290/290/290 283/283/283 284/284/284
f 290/290/290 286/286/286 283/283/283
f 287/287/287 290/290/290 284/284/284
f 286/286/286 291/291/291 277/277/277
f 292/292/292 286/286/286 290/290/290
f 286/286/286 292/292/292 291/291/291
f 293/293/293 290/290/290 287/287/287
f 293/293/293 292/292/292 290/290/290
f 289/289/289 294/294/294 287/287/287
f 294/294/294 293/293/293 287/287/287
f 289/289/289 295/295/295 294/294/294
f 295/295/295 289/289/289 296/296/296
f 295/295/295 297/297/297 294/294/294
f 294/294/294 297/297/297 293/293/293
f 295/295/295 298/298/298 297/297/297
f 297/297/297 299/299/299 293/293/293
f 293/293/293 299/299/299 292/292/292
f 297/297/297 300/300/300 299/299/299
f 298/298/298 300/300/300 297/297/297
f 299/299/299 301/301/301 292/292/292
f 292/292/292 301/301/301 302/302/302
f 292/292/292 302/302/302 291/291/291
f 301/301/301 303/303/303 302/302/302
f 303/303/303 304/304/304 302/302/302
f 304/304/304 305/305/305 302/302/302
f 302/302/302 305/305/305 291/291/291
f 305/305/305 306/306/306 291/291/291
f 291/291/291 306/306/306 277/277/277
f 306/306/306 274/274/274 277/277/277
f 274/274/274 306/306/306 307/307/307
f 274/274/274 307/307/307 308/308/308
f 300/300/300 298/298/298 309/309/309
f 298/298/298 310/310/310 309/309/309
f 300/300/300 309/309/309 311/311/311
f 312/312/312 300/300/300 311/311/311
f 315/315/315 314/314/314 313/313/313
f 313/313/313 314/314/314 316/316/316
f 319/319/319 318/318/318 317/317/317
f 318/318/318 320/320/320 317/317/317
f 317/317/317 320/320/320 321/321/321
f 318/318/318 322/322/322 320/320/320
f 320/320/320 323/323/323 321/321/321
f 321/321/321 323/323/323 324/324/324
f 325/325/325 321/321/321 324/324/324
f 325/325/325 324/324/324 326/326/326
f 323/323/323 320/320/320 327/327/327
f 323/323/323 327/327/327 324/324/324
f 322/322/322 328/328/328 320/320/320
f 320/320/320 328/328/328 327/327/327
f 328/328/328 322/322/322 329/329/329
f 328/328/328 329/329/329 327/327/327
f 322/322/322 330/330/330 329/329/329
f 329/329/329 330/330/330 331/331/331
f 330/330/330 332/332/332 331/331/331
f 332/332/332 333/333/333 331/331/331
f 329/329/329 334/334/334 327/327/327
f 329/329/329 331/331/331 334/334/334
f 324/324/324 335/335/335 326/326/326
f 326/326/326 335/335/335 336/336/336
f 327/327/327 337/337/337 324/324/324
f 327/327/327 334/334/334 337/337/337
f 335/335/335 324/324/324 338/338/338
f 324/324/324 337/337/337 338/338/338
f 335/335/335 339/339/339 336/336/336
f 335/335/335 338/338/338 339/339/339
f 336/336/336 339/339/339 340/340/340
f 341/341/341 336/336/336 340/340/340
f 340/340/340 339/339/339 342/342/342
f 339/339/339 343/343/343 342/342/342
f 338/338/338 343/343/343 339/339/339
f 343/343/343 344/344/344 342/342/342
f 343/343/343 338/338/338 344/344/344
f 344/344/344 345/345/345 342/342/342
f 338/338/338 337/337/337 346/346/346
f 338/338/338 346/346/346 344/344/344
f 334/334/334 347/347/347 337/337/337
f 337/337/337 347/347/347 346/346/346
f 344/344/344 348/348/348 345/345/345
f 348/348/348 349/349/349 345/345/345
f 349/349/349 348/348/348 350/350/350
f 346/346/346 351/351/351 344/344/344
f 346/346/346 347/347/347 351/351/351
f 351/351/351 348/348/348 344/344/344
f 334/334/334 352/352/352 347/347/347
f 331/331/331 352/352/352 334/334/334
f 352/352/352 353/353/353 347/347/347
f 347/347/347 353/353/353 351/351/351
f 352/352/352 331/331/331 354/354/354
f 352/352/352 354/354/354 353/353/353
f 353/353/353 355/355/355 351/351/351
f 354/354/354 355/355/355 353/353/353
f 354/354/354 356/356/356 355/355/355
f 351/351/351 357/357/357 348/348/348
f 355/355/355 357/357/357 351/351/351
f 348/348/348 358/358/358 350/350/350
f 357/357/357 358/358/358 348/348/348
f 358/358/358 359/359/359 350/350/350
f 358/358/358 357/357/357 359/359/359
f 359/359/359 360/360/360 350/350/350
f 360/360/360 359/359/359 361/361/361
f 359/359/359 362/362/362 361/361/361
f 357/357/357 363/363/363 359/359/359
f 359/359/359 363/363/363 362/362/362
f 357/357/357 355/355/355 363/363/363
f 363/363/363 364/364/364 362/362/362
f 365/365/365 364/364/364 363/363/363
f 355/355/355 366/366/366 363/363/363
f 366/366/366 365/365/365 363/363/363
f 356/356/356 366/366/366 355/355/355
f 366/366/366 356/356/356 365/365/365
f 356/356/356 367/367/367 365/365/365
f 368/368/368 367/367/367 356/356/356
f 369/369/369 368/368/368 356/356/356
f 370/370/370 368/368/368 369/369/369
f 371/371/371 369/369/369 356/356/356
f 354/354/354 371/371/371 356/356/356
f 372/372/372 370/370/370 369/369/369
f 373/373/373 370/370/370 372/372/372
f 374/374/374 373/373/373 372/372/372
f 373/373/373 374/374/374 375/375/375
f 375/375/375 374/374/374 376/376/376
f 376/376/376 374/374/374 377/377/377
f 377/377/377 374/374/374 378/378/378
f 379/379/379 372/372/372 369/369/369
f 371/371/371 379/379/379 369/369/369
f 371/371/371 354/354/354 380/380/380
f 331/331/331 380/380/380 354/354/354
f 333/333/333 380/380/380 331/331/331
f 381/381/381 371/371/371 380/380/380
f 381/381/381 380/380/380 333/333/333
f 379/379/379 371/371/371 381/381/381
f 382/382/382 381/381/381 333/333/333
f 382/382/382 383/383/383 381/381/381
f 383/383/383 384/384/384 381/381/381
f 383/383/383 378/378/378 384/384/384
f 384/384/384 379/379/379 381/381/381
f 379/379/379 385/385/385 372/372/372
f 385/385/385 374/374/374 372/372/372
f 385/385/385 379/379/379 384/384/384
f 378/378/378 386/386/386 384/384/384
f 378/378/378 374/374/374 386/386/386
f 386/386/386 385/385/385 384/384/384
f 385/385/385 386/386/386 374/374/374
f 389/389/389 388/388/388 387/387/387
f 388/388/388 389/389/389 390/390/390
f 389/389/389 391/391/391 390/390/390
f 391/391/391 392/392/392 390/390/390
f 390/390/390 393/393/393 388/388/388
f 393/393/393 394/394/394 388/388/388
f 392/392/392 395/395/395 390/390/390
f 393/393/393 390/390/390 395/395/395
f 395/395/395 392/392/392 396/396/396
f 397/397/397 393/393/393 395/395/395
f 400/400/400 399/399/399 398/398/398
f 399/399/399 400/400/400 401/401/401
f 402/402/402 400/400/400 398/398/398
f 402/402/402 398/398/398 403/403/403
f 403/403/403 398/398/398 404/404/404
f 405/405/405 403/403/403 404/404/404
f 406/406/406 403/403/403 405/405/405
f 407/407/407 406/406/406 405/405/405
f 406/406/406 407/407/407 408/408/408
f 409/409/409 402/402/402 403/403/403
f 400/400/400 402/402/402 409/409/409
f 409/409/409 403/403/403 406/406/406
f 410/410/410 406/406/406 408/408/408
f 410/410/410 408/408/408 411/411/411
f 401/401/401 410/410/410 411/411/411
f 412/412/412 409/409/409 406/406/406
f 412/412/412 400/400/400 409/409/409
f 413/413/413 412/412/412 406/406/406
f 410/410/410 413/413/413 406/406/406
f 400/400/400 412/412/412 413/413/413
f 400/400/400 414/414/414 401/401/401
f 401/401/401 414/414/414 410/410/410
f 414/414/414 413/413/413 410/410/410
f 414/414/414 400/400/400 413/413/413
