g flower red1
v -0.009119729 0.005166327 0.005707363
v -0.007094431 0.006320403 0.005823859
v -0.008152884 0.006305041 0.007022875
v -0.007760909 0.004783536 0.004073682
v -0.007094431 0.006320403 0.005823859
v -0.009119729 0.005166327 0.005707363
v -0.002835616 -0.00526794 0.00634208
v -0.001466047 -0.005331981 0.005178033
v -0.0016984 -0.002822668 0.005093495
v 0.005572967 0.006215514 0.007797259
v 0.006942645 0.006124725 0.005560188
v 0.006191237 0.004080493 0.007139161
v 0.005876416 0.007696579 0.00621856
v 0.006942645 0.006124725 0.005560188
v 0.005572967 0.006215514 0.007797259
v 0.006741537 -0.005077032 0.003237405
v 0.006139984 -0.004475044 0.001636907
v 0.008935794 -0.003995978 0.003116307
v -0.002305934 0.006918241 -0.004011701
v -0.0004232209 0.006331273 -0.005736035
v -0.0003303032 0.007992181 -0.004555593
v -0.002430678 0.004647059 -0.004711652
v -0.0004232209 0.006331273 -0.005736035
v -0.002305934 0.006918241 -0.004011701
v -0.001875082 -0.005902793 -0.0004936532
v -0.0002549596 -0.004304267 -0.002635737
v -0.003581537 -0.005720825 -0.001436849
v -0.0024335 -0.008211817 0.000348177
v -0.004197179 -0.008046033 -0.0005317898
v -0.003662107 -0.01086603 0.002907689
v -0.0005848329 -0.005570866 0.0009415547
v -0.0002549596 -0.004304267 -0.002635737
v -0.001875082 -0.005902793 -0.0004936532
v -0.001181902 -0.007890521 0.001857442
v -0.0024335 -0.008211817 0.000348177
v -0.003662107 -0.01086603 0.002907689
v -0.007395739 0.006522273 0.001763155
v -0.005051418 0.004116147 0.003496453
v -0.004854579 0.006849981 0.003068087
v -0.00624855 0.00386831 0.002925339
v -0.009126354 0.005101508 0.0033055
v -0.007128332 0.003265267 0.003608255
v -0.01025067 0.00375087 0.005542046
v -0.007560824 0.002590379 0.004670426
v -0.005977618 0.004013718 0.00897703
v -0.005593802 0.002710067 0.006257595
v -0.006717795 0.002538827 0.005694797
v -0.008285156 0.003611623 0.007593601
v -0.007286868 0.007154952 0.00946026
v -0.007560824 0.002590379 0.004670426
v -0.00933927 0.008388269 0.008364841
v -0.01025067 0.00375087 0.005542046
v -0.01068123 0.006938548 0.006712714
v -0.004995313 0.009389867 0.006448388
v -0.004854579 0.006849981 0.003068087
v -0.003109645 0.00679121 0.005195678
v -0.007227187 0.01039195 0.005575371
v -0.008418845 0.009158168 0.003709821
v -0.007395739 0.006522273 0.001763155
v -0.005410056 0.0003319171 0.004129129
v -0.006249646 0.003852957 0.004045565
v -0.006357755 0.003510591 0.005122784
v -0.005280955 0.000660468 0.003040751
v -0.00455259 -0.004139241 0.003326093
v -0.004380943 -0.004032769 0.002204998
v -0.003947136 -0.01056786 0.002321521
v -0.004090318 -0.01060378 0.003438958
v -0.005280955 0.000660468 0.003040751
v -0.005355608 0.003897694 0.004755136
v -0.006249646 0.003852957 0.004045565
v -0.004400936 0.000704509 0.003739194
v -0.004380943 -0.004032769 0.002204998
v -0.003503832 -0.003980866 0.00289939
v -0.004400936 0.000704509 0.003739194
v -0.006357755 0.003510591 0.005122784
v -0.005355608 0.003897694 0.004755136
v -0.005410056 0.0003319171 0.004129129
v -0.003503832 -0.003980866 0.00289939
v -0.00455259 -0.004139241 0.003326093
v -0.004090318 -0.01060378 0.003438958
v -0.003048012 -0.01050558 0.003042937
v -0.004854579 0.006849981 0.003068087
v -0.005051418 0.004116147 0.003496453
v -0.004262664 0.003996417 0.004510562
v -0.003109645 0.00679121 0.005195678
v -0.004641338 0.003389725 0.005582096
v -0.004009145 0.005357281 0.007365625
v -0.005593802 0.002710067 0.006257595
v -0.005977618 0.004013718 0.00897703
v -0.01068123 0.006938548 0.006712714
v -0.01025067 0.00375087 0.005542046
v -0.009126354 0.005101508 0.0033055
v -0.009812661 0.009232 0.005946291
v -0.008418845 0.009158168 0.003709821
v -0.007395739 0.006522273 0.001763155
v -0.004995313 0.009389867 0.006448388
v -0.003109645 0.00679121 0.005195678
v -0.004009145 0.005357281 0.007365625
v -0.006666738 0.009390214 0.008443397
v -0.007286868 0.007154952 0.00946026
v -0.005977618 0.004013718 0.00897703
v -0.007128332 0.003265267 0.003608255
v -0.007560824 0.002590379 0.004670426
v -0.006717795 0.002538827 0.005694797
v -0.005427564 0.002252236 0.004081258
v -0.005051418 0.004116147 0.003496453
v -0.00624855 0.00386831 0.002925339
v -0.004262664 0.003996417 0.004510562
v -0.005051418 0.004116147 0.003496453
v -0.005427564 0.002252236 0.004081258
v -0.004641338 0.003389725 0.005582096
v -0.006717795 0.002538827 0.005694797
v -0.005593802 0.002710067 0.006257595
v -0.004380943 -0.004032769 0.002204998
v -0.003947136 -0.01056786 0.002321521
v -0.003048012 -0.01050558 0.003042937
v -0.003503832 -0.003980866 0.00289939
v -0.006666738 0.009390214 0.008443397
v -0.004874442 0.006924747 0.005666017
v -0.004995313 0.009389867 0.006448388
v -0.005061076 0.004915421 0.006213471
v -0.007286868 0.007154952 0.00946026
v -0.006490459 0.005338591 0.007810674
v -0.01068123 0.006938548 0.006712714
v -0.009119729 0.005166327 0.005707363
v -0.008152884 0.006305041 0.007022875
v -0.00933927 0.008388269 0.008364841
v -0.006490459 0.005338591 0.007810674
v -0.007286868 0.007154952 0.00946026
v -0.007094431 0.006320403 0.005823859
v -0.005061076 0.004915421 0.006213471
v -0.004995313 0.009389867 0.006448388
v -0.004874442 0.006924747 0.005666017
v -0.006591921 0.007790249 0.004964264
v -0.007227187 0.01039195 0.005575371
v -0.007484197 0.006763321 0.003557199
v -0.008418845 0.009158168 0.003709821
v -0.008418845 0.009158168 0.003709821
v -0.007484197 0.006763321 0.003557199
v -0.007760909 0.004783536 0.004073682
v -0.009812661 0.009232 0.005946291
v -0.009812661 0.009232 0.005946291
v -0.007760909 0.004783536 0.004073682
v -0.009119729 0.005166327 0.005707363
v -0.01068123 0.006938548 0.006712714
v -0.004874442 0.006924747 0.005666017
v -0.007094431 0.006320403 0.005823859
v -0.006591921 0.007790249 0.004964264
v -0.005061076 0.004915421 0.006213471
v -0.007484197 0.006763321 0.003557199
v -0.007094431 0.006320403 0.005823859
v -0.007760909 0.004783536 0.004073682
v -0.006591921 0.007790249 0.004964264
v -0.001466047 -0.005331981 0.005178033
v -0.0006518437 -0.00515866 0.003583717
v -0.0016984 -0.002822668 0.005093495
v -0.00234876 -0.007806041 0.004378846
v -0.001578007 -0.007538004 0.002775224
v -0.003842958 -0.0102618 0.002814124
v -0.00374212 -0.007643871 0.005511328
v -0.002835616 -0.00526794 0.00634208
v 0.004225693 0.005694633 0.009076933
v 0.004137789 0.003186414 0.006751759
v 0.003587505 0.003704922 0.005484517
v 0.003115517 0.006616842 0.006271527
v 0.006487492 0.008684879 0.008821387
v 0.003682557 0.003858491 0.004084975
v 0.006878087 0.01049104 0.006733549
v 0.003248814 0.007142038 0.003300922
v 0.005703779 0.00986037 0.004203098
v 0.0083563 0.004328792 0.001743571
v 0.006043012 0.002556975 0.003370007
v 0.006534191 0.002121751 0.004593314
v 0.009216952 0.003347296 0.004428038
v 0.009787 0.007590166 0.002959767
v 0.006482943 0.001895363 0.006027484
v 0.01068122 0.008444851 0.005580773
v 0.009321851 0.002888739 0.007514013
v 0.01054306 0.006432241 0.007568456
v 0.009321851 0.002888739 0.007514013
v 0.006482943 0.001895363 0.006027484
v 0.005348947 0.002514535 0.006698427
v 0.006764785 0.004156687 0.008777788
v 0.004137789 0.003186414 0.006751759
v 0.004225693 0.005694633 0.009076933
v 0.004505996 0.0001687329 0.004518717
v 0.005090984 0.00352343 0.005820564
v 0.005893466 0.003326573 0.005036485
v 0.00368052 0.000353351 0.005294532
v 0.003311053 -0.004250965 0.003667391
v 0.002431286 -0.004284085 0.004395853
v 0.002167503 -0.01066639 0.002744585
v 0.00302384 -0.01056082 0.00201384
v 0.00368052 0.000353351 0.005294532
v 0.004900355 0.003787319 0.004721962
v 0.005090984 0.00352343 0.005820564
v 0.003492825 0.000613131 0.00421308
v 0.002431286 -0.004284085 0.004395853
v 0.002243089 -0.004017553 0.003320779
v 0.001981035 -0.01038291 0.001637379
v 0.002167503 -0.01066639 0.002744585
v 0.003492825 0.000613131 0.00421308
v 0.005893466 0.003326573 0.005036485
v 0.004900355 0.003787319 0.004721962
v 0.004505996 0.0001687329 0.004518717
v 0.002243089 -0.004017553 0.003320779
v 0.003311053 -0.004250965 0.003667391
v 0.002243089 -0.004017553 0.003320779
v 0.001981035 -0.01038291 0.001637379
v 0.00302384 -0.01056082 0.00201384
v 0.003311053 -0.004250965 0.003667391
v 0.01054306 0.006432241 0.007568456
v 0.009321851 0.002888739 0.007514013
v 0.006764785 0.004156687 0.008777788
v 0.009279578 0.008910772 0.00806571
v 0.006487492 0.008684879 0.008821387
v 0.004225693 0.005694633 0.009076933
v 0.003248814 0.007142038 0.003300922
v 0.003682557 0.003858491 0.004084975
v 0.004772986 0.003311795 0.003379478
v 0.005571938 0.005806229 0.001909613
v 0.005703779 0.00986037 0.004203098
v 0.006043012 0.002556975 0.003370007
v 0.00853815 0.009938149 0.00379205
v 0.0083563 0.004328792 0.001743571
v 0.009787 0.007590166 0.002959767
v 0.005348947 0.002514535 0.006698427
v 0.006482943 0.001895363 0.006027484
v 0.006534191 0.002121751 0.004593314
v 0.004307377 0.001740769 0.004892057
v 0.003587505 0.003704922 0.005484517
v 0.004137789 0.003186414 0.006751759
v 0.003682557 0.003858491 0.004084975
v 0.003587505 0.003704922 0.005484517
v 0.004307377 0.001740769 0.004892057
v 0.004772986 0.003311795 0.003379478
v 0.006534191 0.002121751 0.004593314
v 0.006043012 0.002556975 0.003370007
v 0.00853815 0.009938149 0.00379205
v 0.004979998 0.007114281 0.004200416
v 0.005703779 0.00986037 0.004203098
v 0.005549734 0.004962128 0.00345557
v 0.009787 0.007590166 0.002959767
v 0.007945584 0.005466315 0.003284405
v 0.01054306 0.006432241 0.007568456
v 0.008556721 0.004555135 0.00688792
v 0.008745118 0.006147376 0.005349766
v 0.01068122 0.008444851 0.005580773
v 0.007945584 0.005466315 0.003284405
v 0.009787 0.007590166 0.002959767
v 0.005703779 0.00986037 0.004203098
v 0.004979998 0.007114281 0.004200416
v 0.005876416 0.007696579 0.00621856
v 0.006878087 0.01049104 0.006733549
v 0.005572967 0.006215514 0.007797259
v 0.006487492 0.008684879 0.008821387
v 0.006487492 0.008684879 0.008821387
v 0.005572967 0.006215514 0.007797259
v 0.006191237 0.004080493 0.007139161
v 0.009279578 0.008910772 0.00806571
v 0.008556721 0.004555135 0.00688792
v 0.01054306 0.006432241 0.007568456
v 0.004979998 0.007114281 0.004200416
v 0.006942645 0.006124725 0.005560188
v 0.005876416 0.007696579 0.00621856
v 0.005549734 0.004962128 0.00345557
v 0.007945584 0.005466315 0.003284405
v 0.008745118 0.006147376 0.005349766
v 0.008556721 0.004555135 0.00688792
v 0.006942645 0.006124725 0.005560188
v 0.008745118 0.006147376 0.005349766
v 0.006191237 0.004080493 0.007139161
v 0.0004236721 -0.007364992 0.001951468
v 0.0003201597 -0.007994057 0.00364628
v -0.0007151089 -0.005689409 0.004384288
v -0.0006735569 -0.00506296 0.002683603
v -0.0006735569 -0.00506296 0.002683603
v -0.0007151089 -0.005689409 0.004384288
v -0.003535634 -0.004068634 0.005263071
v -8.524492E-05 -0.00587732 0.006073799
v 0.0003201597 -0.007994057 0.00364628
v 0.001005438 -0.008169909 0.00532266
v 0.002378186 -0.01009532 0.00204467
v 0.0004236721 -0.007364992 0.001951468
v 0.006730067 -0.005291851 0.005037286
v 0.006741537 -0.005077032 0.003237405
v 0.008935794 -0.003995978 0.003116307
v 0.005205754 -0.008038548 0.004625476
v 0.005285908 -0.007863424 0.002816534
v 0.002378186 -0.01009532 0.00204467
v 0.006139984 -0.004475044 0.001636907
v 0.004618513 -0.007232205 0.001255262
v 0.003407847 -0.006494955 0.006726262
v 0.005142682 -0.006260675 0.006240853
v 0.003528028 -0.003964305 0.00741267
v 0.001611106 -0.006259279 0.006854036
v 0.001336813 -0.008285346 0.005123995
v 0.003407847 -0.006494955 0.006726262
v 0.001611106 -0.006259279 0.006854036
v 0.003110745 -0.008643549 0.005030095
v 0.002378186 -0.01009532 0.00204467
v 0.005142682 -0.006260675 0.006240853
v 0.004816261 -0.008286152 0.004520577
v -0.003272456 -0.008358815 -0.002109298
v -0.004665119 -0.005684425 -0.002107469
v -0.00429155 -0.005607305 -0.0002132289
v -0.002879387 -0.008113179 -0.0001983315
v -0.0007487249 -0.0108991 -0.001975751
v -0.004665119 -0.005684425 -0.002107469
v -0.004546973 -0.002990137 -0.002107469
v -0.00429155 -0.005607305 -0.0002132289
v -0.00429155 -0.005607305 -0.004001709
v -0.002877695 -0.008115606 -0.004016558
v -0.00429155 -0.005607305 -0.004001709
v -0.004665119 -0.005684425 -0.002107469
v -0.003272456 -0.008358815 -0.002109298
v -0.0007487249 -0.0108991 -0.001975751
v 0.002629354 0.006609317 -0.002422881
v 0.0009441284 0.003604388 -0.00273888
v -0.000497526 0.003800541 -0.002410433
v -0.0004920696 0.006828259 -0.001802328
v -0.001873883 0.003635616 -0.002746456
v -0.003471966 0.006669286 -0.00244827
v -0.002245938 0.002979186 -0.003954506
v -0.004118302 0.005129071 -0.005003889
v -0.001866895 0.002286111 -0.005221792
v -0.003467421 0.003749191 -0.007807191
v -0.003467421 0.003749191 -0.007807191
v -0.001866895 0.002286111 -0.005221792
v -0.000497102 0.002158165 -0.005498292
v -0.0004914005 0.003434055 -0.008199975
v -0.002807956 0.007293887 -0.009020918
v 0.0009372399 0.002262352 -0.005200733
v -0.000314555 0.008771778 -0.009460254
v 0.002624985 0.00369466 -0.007771591
v 0.00205852 0.007242054 -0.008977558
v -0.002818096 0.009649285 -0.004735863
v -0.0004920696 0.006828259 -0.001802328
v -0.003471966 0.006669286 -0.00244827
v -0.0003133227 0.01089909 -0.005466578
v 0.002066235 0.00958362 -0.004718114
v 0.002629354 0.006609317 -0.002422881
v 0.002624985 0.00369466 -0.007771591
v 0.0009372399 0.002262352 -0.005200733
v 0.001251404 0.002979176 -0.003954519
v 0.003123952 0.005129369 -0.005004863
v 0.00205852 0.007242054 -0.008977558
v 0.0009441284 0.003604388 -0.00273888
v 0.001752879 0.009745087 -0.007631556
v 0.002629354 0.006609317 -0.002422881
v 0.002066235 0.00958362 -0.004718114
v -0.0004552926 0.0002820027 -0.003547676
v 0.0001138466 0.003813103 -0.003886721
v -0.0004552926 0.003477668 -0.00480526
v 0.0001048809 0.0006024228 -0.002607711
v -0.0004524494 -0.004189262 -0.002533615
v 0.0001034397 -0.004091804 -0.001548682
v -5.112939E-05 -0.01058744 -0.00157375
v -0.0006297913 -0.01061584 -0.002535967
v 0.0001048809 0.0006024228 -0.002607711
v -0.001024438 0.003813102 -0.003886721
v 0.0001138466 0.003813103 -0.003886721
v -0.001015448 0.0006024304 -0.002607675
v 0.0001034397 -0.004091804 -0.001548682
v -0.001012438 -0.004083812 -0.001547092
v -0.00120141 -0.01057017 -0.001579328
v -5.112939E-05 -0.01058744 -0.00157375
v -0.001015448 0.0006024304 -0.002607675
v -0.0004552926 0.003477668 -0.00480526
v -0.001024438 0.003813102 -0.003886721
v -0.0004552926 0.0002820027 -0.003547676
v -0.001012438 -0.004083812 -0.001547092
v -0.0004524494 -0.004189262 -0.002533615
v -0.001012438 -0.004083812 -0.001547092
v -0.00120141 -0.01057017 -0.001579328
v -0.0006297913 -0.01061584 -0.002535967
v -0.0004524494 -0.004189262 -0.002533615
v -0.002818096 0.009649285 -0.004735863
v -0.003471966 0.006669286 -0.00244827
v -0.004118302 0.005129071 -0.005003889
v -0.002759697 0.009745868 -0.007631747
v -0.002807956 0.007293887 -0.009020918
v -0.003467421 0.003749191 -0.007807191
v 0.001251404 0.002979176 -0.003954519
v 0.0009372399 0.002262352 -0.005200733
v -0.000497102 0.002158165 -0.005498292
v -0.0004934292 0.001761497 -0.003229587
v -0.000497526 0.003800541 -0.002410433
v 0.0009441284 0.003604388 -0.00273888
v 0.001251404 0.002979176 -0.003954519
v -0.0004934292 0.001761497 -0.003229587
v -0.001873883 0.003635616 -0.002746456
v -0.002245938 0.002979186 -0.003954506
v -0.000497102 0.002158165 -0.005498292
v -0.001866895 0.002286111 -0.005221792
v -0.002759697 0.009745868 -0.007631747
v -0.002305934 0.006918241 -0.004011701
v -0.002818096 0.009649285 -0.004735863
v -0.002430678 0.004647059 -0.004711652
v -0.002807956 0.007293887 -0.009020918
v -0.002311229 0.005200827 -0.007134512
v 0.00205852 0.007242054 -0.008977558
v 0.001505035 0.005155366 -0.007120254
v -0.000329189 0.006378331 -0.00757498
v -0.000314555 0.008771778 -0.009460254
v -0.002311229 0.005200827 -0.007134512
v -0.002807956 0.007293887 -0.009020918
v -0.002818096 0.009649285 -0.004735863
v -0.002305934 0.006918241 -0.004011701
v -0.0003303032 0.007992181 -0.004555593
v -0.0003133227 0.01089909 -0.005466578
v 0.001498052 0.006882627 -0.003980677
v 0.002066235 0.00958362 -0.004718114
v 0.002066235 0.00958362 -0.004718114
v 0.001498052 0.006882627 -0.003980677
v 0.001460443 0.004650269 -0.004713896
v 0.001752879 0.009745087 -0.007631556
v 0.001505035 0.005155366 -0.007120254
v 0.00205852 0.007242054 -0.008977558
v -0.002311229 0.005200827 -0.007134512
v -0.0004232209 0.006331273 -0.005736035
v -0.002430678 0.004647059 -0.004711652
v -0.000329189 0.006378331 -0.00757498
v 0.001505035 0.005155366 -0.007120254
v -0.0004232209 0.006331273 -0.005736035
v -0.000329189 0.006378331 -0.00757498
v 0.001460443 0.004650269 -0.004713896
v 0.001498052 0.006882627 -0.003980677
v -0.0003303032 0.007992181 -0.004555593
v -0.0001136135 -0.007894072 0.0003643037
v 0.001620023 -0.007661404 -1.813419E-05
v 0.001630723 -0.005339009 0.00116774
v -0.0001090534 -0.005560699 0.001494425
v -0.0001090534 -0.005560699 0.001494425
v 0.001630723 -0.005339009 0.00116774
v -0.0001090534 -0.003920656 0.004380998
v -0.00184883 -0.005339009 0.00116774
v -0.001838054 -0.007666022 -2.133772E-05
v -0.0001136135 -0.007894072 0.0003643037
v -0.0007116147 -0.01027351 -0.002138687
v 0.001620023 -0.007661404 -1.813419E-05
v -0.0001050717 -0.008209355 -0.00517505
v -0.0007487249 -0.0108991 -0.001975751
v 0.001800983 -0.007957952 -0.00477866
v -0.002019166 -0.007954727 -0.004781018
v -0.002003227 -0.005206338 -0.006170977
v -0.0001090534 -0.005459765 -0.006453297
v 0.001785123 -0.005206338 -0.006170977
v -0.0001090534 -0.004506314 -0.008407212
v -0.006276785 -0.008282113 0.005195951
v -0.003662107 -0.01086603 0.002907689
v -0.00754504 -0.008091875 0.003689531
v -0.004533381 -0.007937937 0.006082941
v -0.005553818 -0.005214477 0.007171283
v -0.00721193 -0.005553034 0.006208536
v -0.008542211 -0.005364021 0.004799478
v -0.008482667 -0.004653579 0.007752909
v 0.002087064 -0.008240571 -0.0002057317
v 0.003427755 -0.005687672 -0.000232229
v 0.003674518 -0.005833362 -0.002107463
v 0.003790472 -0.003097785 -0.002107463
v 0.003427755 -0.005687672 -0.003982703
v 0.002371146 -0.00856385 -0.002109192
v -0.0007487249 -0.0108991 -0.001975751
v 0.002086513 -0.008241287 -0.004009236
v 0.004231546 -0.00756286 0.0001482377
v 0.004079414 -0.004755212 -0.0006475471
v 0.002119123 -0.004743769 -0.000700033
v 0.002247861 -0.00211046 3.544176E-05
v 0.0002912492 -0.004753718 1.018894E-05
v 0.00224814 -0.007710044 3.910251E-05
v 0.002304719 -0.01065082 0.00174041
v 0.0004138919 -0.007558601 0.0008099887
v -0.004896806 -0.008244617 -9.92127E-05
v -0.00609937 -0.005728652 -0.0009177825
v -0.007459347 -0.005943934 0.0004089533
v -0.007688584 -0.003194603 0.0003363863
v -0.008444712 -0.005846017 0.002044667
v -0.006294865 -0.008640795 0.001226218
v -0.003662107 -0.01086603 0.002907689
v -0.00727458 -0.008364323 0.00290514
vt 0.08398438 0.7944336
vt 0.08544922 0.7949219
vt 0.08544922 0.7939453
vt 0.0960083 0.7924805
vt 0.09484863 0.793457
vt 0.0960083 0.7939453
vt 0.02770996 0.7905273
vt 0.02687073 0.7910156
vt 0.02770996 0.7924805
vt 0.1051025 0.793457
vt 0.1051025 0.7919922
vt 0.1038208 0.7929688
vt 0.1140137 0.7841797
vt 0.1130371 0.7851563
vt 0.1140137 0.7861328
vt 0.0340271 0.7749023
vt 0.0340271 0.7734375
vt 0.03259277 0.7744141
vt 0.105896 0.7675781
vt 0.1068726 0.7680664
vt 0.1068726 0.7666016
vt 0.07653809 0.7924805
vt 0.07775879 0.7939453
vt 0.07775879 0.7919922
vt 0.02615356 0.7817383
vt 0.02662659 0.7797852
vt 0.025177 0.7817383
vt 0.02648926 0.7832031
vt 0.02549744 0.7832031
vt 0.02662659 0.7851563
vt 0.03704834 0.7675781
vt 0.03842163 0.7700195
vt 0.03808594 0.7680664
vt 0.03738403 0.7661133
vt 0.03842163 0.7661133
vt 0.03811646 0.7641602
vt 0.1070557 0.7871094
vt 0.1046143 0.7861328
vt 0.105835 0.7875977
vt 0.1051636 0.7861328
vt 0.1070557 0.7851563
vt 0.1051636 0.7851563
vt 0.1068115 0.7832031
vt 0.1050415 0.7841797
vt 0.08935547 0.7744141
vt 0.08978271 0.7763672
vt 0.09063721 0.7768555
vt 0.09118652 0.7749023
vt 0.09002686 0.7724609
vt 0.09143066 0.7768555
vt 0.0916748 0.7719727
vt 0.09295654 0.7753906
vt 0.09295654 0.7734375
vt 0.07659912 0.7875977
vt 0.07775879 0.7851563
vt 0.07598877 0.7851563
vt 0.07830811 0.7880859
vt 0.07965088 0.7871094
vt 0.07965088 0.7851563
vt 0.03912354 0.78125
vt 0.03918457 0.7827148
vt 0.03948975 0.7827148
vt 0.03881836 0.78125
vt 0.03897095 0.7788086
vt 0.03866577 0.7788086
vt 0.03918457 0.7753906
vt 0.03948975 0.7749023
vt 0.04431152 0.765625
vt 0.04467773 0.7636719
vt 0.04437256 0.7636719
vt 0.0446167 0.765625
vt 0.04437256 0.7675781
vt 0.04467773 0.7675781
vt 0.03952026 0.7651367
vt 0.04016113 0.7636719
vt 0.03985596 0.7636719
vt 0.03982544 0.7651367
vt 0.03939819 0.7670898
vt 0.03970337 0.7670898
vt 0.04016113 0.7709961
vt 0.03985596 0.7705078
vt 0.09112549 0.7832031
vt 0.08990479 0.784668
vt 0.09051514 0.784668
vt 0.09240723 0.7836914
vt 0.09051514 0.7856445
vt 0.09240723 0.7856445
vt 0.09033203 0.7866211
vt 0.09204102 0.7875977
vt 0.1085205 0.7861328
vt 0.1103516 0.7866211
vt 0.1103516 0.784668
vt 0.107666 0.784668
vt 0.1082153 0.7832031
vt 0.1099243 0.7832031
vt 0.1079102 0.7905273
vt 0.1095581 0.7910156
vt 0.1101685 0.7890625
vt 0.107666 0.7895508
vt 0.1084595 0.7875977
vt 0.1101685 0.7871094
vt 0.1135864 0.793457
vt 0.1135864 0.7929688
vt 0.1130371 0.7929688
vt 0.1124268 0.793457
vt 0.112915 0.7944336
vt 0.1134644 0.7944336
vt 0.08764648 0.7944336
vt 0.08764648 0.793457
vt 0.08654785 0.793457
vt 0.08703613 0.7944336
vt 0.08618164 0.7944336
vt 0.08636475 0.7949219
vt 0.03240967 0.7915039
vt 0.03240967 0.7875977
vt 0.03219604 0.7880859
vt 0.03219604 0.7915039
vt 0.0960083 0.7900391
vt 0.09466553 0.7915039
vt 0.0960083 0.7915039
vt 0.09320068 0.7910156
vt 0.09466553 0.7890625
vt 0.09350586 0.7895508
vt 0.08544922 0.7866211
vt 0.08660889 0.7856445
vt 0.08532715 0.7851563
vt 0.08398438 0.7861328
vt 0.08508301 0.7832031
vt 0.08374023 0.7841797
vt 0.08642578 0.7841797
vt 0.08660889 0.7822266
vt 0.1094971 0.7749023
vt 0.1112061 0.7744141
vt 0.1103516 0.7729492
vt 0.1085815 0.7734375
vt 0.1112061 0.7714844
vt 0.1094971 0.7714844
vt 0.1025391 0.7802734
vt 0.1027832 0.78125
vt 0.1040039 0.7827148
vt 0.1040039 0.7797852
vt 0.112854 0.777832
vt 0.112854 0.7753906
vt 0.1115112 0.7758789
vt 0.1113892 0.7768555
vt 0.1109009 0.7861328
vt 0.1124878 0.784668
vt 0.1109009 0.7841797
vt 0.1124878 0.7866211
vt 0.100769 0.7919922
vt 0.102356 0.7929688
vt 0.102356 0.7910156
vt 0.100769 0.793457
vt 0.03329468 0.7832031
vt 0.03225708 0.7832031
vt 0.03274536 0.7841797
vt 0.0333252 0.78125
vt 0.03225708 0.78125
vt 0.03292847 0.7792969
vt 0.03405762 0.78125
vt 0.03405762 0.7827148
vt 0.08660889 0.7734375
vt 0.08514404 0.7719727
vt 0.08435059 0.7719727
vt 0.08477783 0.7739258
vt 0.08660889 0.7758789
vt 0.08349609 0.7724609
vt 0.08532715 0.7768555
vt 0.08294678 0.7739258
vt 0.08361816 0.7763672
vt 0.08239746 0.7734375
vt 0.08093262 0.7724609
vt 0.08013916 0.7724609
vt 0.08062744 0.7739258
vt 0.08239746 0.7758789
vt 0.07928467 0.7724609
vt 0.08099365 0.7773438
vt 0.07867432 0.7744141
vt 0.0793457 0.7763672
vt 0.1101685 0.7822266
vt 0.1120605 0.78125
vt 0.1119995 0.7802734
vt 0.1100464 0.7802734
vt 0.1120605 0.7797852
vt 0.1101685 0.7788086
vt 0.04177856 0.7705078
vt 0.04171753 0.7724609
vt 0.04190063 0.7724609
vt 0.04159546 0.7705078
vt 0.04171753 0.7675781
vt 0.04150391 0.7675781
vt 0.04168701 0.7636719
vt 0.04190063 0.7636719
vt 0.04067993 0.765625
vt 0.04107666 0.7636719
vt 0.04077148 0.7636719
vt 0.04098511 0.765625
vt 0.0406189 0.7685547
vt 0.04092407 0.769043
vt 0.04107666 0.7724609
vt 0.04077148 0.7724609
vt 0.03451538 0.7807617
vt 0.03500366 0.7792969
vt 0.03469849 0.7792969
vt 0.03482056 0.78125
vt 0.034729 0.7832031
vt 0.03500366 0.7832031
vt 0.04486084 0.7832031
vt 0.04486084 0.7807617
vt 0.04455566 0.7802734
vt 0.04455566 0.7832031
vt 0.08660889 0.7895508
vt 0.08660889 0.7875977
vt 0.08496094 0.7871094
vt 0.08544922 0.7900391
vt 0.0838623 0.7890625
vt 0.08325195 0.7871094
vt 0.0760498 0.7832031
vt 0.07781982 0.7841797
vt 0.07849121 0.7841797
vt 0.07751465 0.7822266
vt 0.07598877 0.7817383
vt 0.07928467 0.7836914
vt 0.07702637 0.7802734
vt 0.07928467 0.78125
vt 0.07861328 0.7802734
vt 0.09429932 0.7929688
vt 0.09417725 0.7924805
vt 0.09375 0.7924805
vt 0.09320068 0.7929688
vt 0.09381104 0.7939453
vt 0.09429932 0.7939453
vt 0.1118774 0.7929688
vt 0.1113892 0.7929688
vt 0.1107178 0.793457
vt 0.1118774 0.7939453
vt 0.1112671 0.7944336
vt 0.1117554 0.7944336
vt 0.1010742 0.7895508
vt 0.1019897 0.7875977
vt 0.100769 0.7880859
vt 0.1036377 0.7880859
vt 0.1026001 0.7905273
vt 0.1036377 0.7895508
vt 0.09063721 0.7910156
vt 0.09240723 0.7910156
vt 0.0914917 0.7895508
vt 0.08966064 0.7895508
vt 0.09240723 0.7880859
vt 0.09063721 0.7880859
vt 0.09838867 0.7910156
vt 0.1001587 0.7910156
vt 0.0993042 0.7895508
vt 0.09741211 0.7895508
vt 0.1001587 0.7880859
vt 0.09838867 0.7880859
vt 0.08026123 0.7900391
vt 0.08135986 0.7905273
vt 0.0826416 0.7900391
vt 0.0803833 0.7880859
vt 0.0826416 0.7880859
vt 0.08172607 0.7871094
vt 0.1102905 0.7680664
vt 0.1115723 0.7695313
vt 0.1119385 0.7680664
vt 0.1097412 0.7695313
vt 0.1102295 0.7709961
vt 0.1119385 0.7709961
vt 0.1109009 0.7905273
vt 0.1124878 0.7915039
vt 0.1124878 0.7900391
vt 0.1107178 0.7924805
vt 0.01939392 0.7807617
vt 0.01939392 0.7797852
vt 0.01829529 0.7797852
vt 0.01831055 0.7807617
vt 0.01916504 0.7719727
vt 0.02009583 0.7714844
vt 0.01956177 0.7695313
vt 0.02124023 0.7714844
vt 0.02006531 0.7729492
vt 0.02124023 0.7729492
vt 0.02006531 0.7753906
vt 0.01916504 0.7734375
vt 0.02168274 0.7705078
vt 0.02287292 0.7705078
vt 0.022995 0.7695313
vt 0.02168274 0.7724609
vt 0.02287292 0.7724609
vt 0.02311707 0.7749023
vt 0.02398682 0.7705078
vt 0.02398682 0.7724609
vt 0.04376221 0.7880859
vt 0.04464722 0.7890625
vt 0.04464722 0.7871094
vt 0.04312134 0.7871094
vt 0.0317688 0.7832031
vt 0.03070068 0.784668
vt 0.0317688 0.7851563
vt 0.03065491 0.7832031
vt 0.03131104 0.7807617
vt 0.02983093 0.7841797
vt 0.02983093 0.7827148
vt 0.04403687 0.7700195
vt 0.04403687 0.7685547
vt 0.04315186 0.7680664
vt 0.04312134 0.7695313
vt 0.04351807 0.7719727
vt 0.02264404 0.7905273
vt 0.02360535 0.7915039
vt 0.02360535 0.7900391
vt 0.02191162 0.7915039
vt 0.04312134 0.7661133
vt 0.04318237 0.7675781
vt 0.04388428 0.7675781
vt 0.04388428 0.765625
vt 0.04345703 0.7636719
vt 0.08599854 0.7773438
vt 0.08465576 0.7783203
vt 0.08496094 0.7792969
vt 0.08660889 0.7792969
vt 0.08496094 0.7802734
vt 0.08660889 0.78125
vt 0.08416748 0.7802734
vt 0.08496094 0.7817383
vt 0.08337402 0.7802734
vt 0.08319092 0.7817383
vt 0.09661865 0.7744141
vt 0.09710693 0.7763672
vt 0.09790039 0.7763672
vt 0.09844971 0.7749023
vt 0.09729004 0.7724609
vt 0.09869385 0.7763672
vt 0.09893799 0.7714844
vt 0.1002197 0.7753906
vt 0.1002197 0.7729492
vt 0.1016235 0.7836914
vt 0.1040649 0.7851563
vt 0.1038208 0.7832031
vt 0.100769 0.7851563
vt 0.1018066 0.7866211
vt 0.1040649 0.7871094
vt 0.09710693 0.7670898
vt 0.09735107 0.7685547
vt 0.09820557 0.769043
vt 0.09893799 0.7675781
vt 0.09771729 0.7651367
vt 0.09893799 0.769043
vt 0.09924316 0.7646484
vt 0.1005249 0.7680664
vt 0.1005249 0.765625
vt 0.03591919 0.7817383
vt 0.03610229 0.7836914
vt 0.03637695 0.7836914
vt 0.03561401 0.7817383
vt 0.03573608 0.7788086
vt 0.03543091 0.7788086
vt 0.03610229 0.7753906
vt 0.03637695 0.7749023
vt 0.0423584 0.765625
vt 0.04269409 0.7636719
vt 0.04238892 0.7636719
vt 0.04269409 0.765625
vt 0.0423584 0.7685547
vt 0.04266357 0.7685547
vt 0.04269409 0.7719727
vt 0.04238892 0.7719727
vt 0.03570557 0.7719727
vt 0.03594971 0.7695313
vt 0.03573608 0.7695313
vt 0.03591919 0.7719727
vt 0.03573608 0.7749023
vt 0.03594971 0.7744141
vt 0.04470825 0.7719727
vt 0.04470825 0.7680664
vt 0.04446411 0.7680664
vt 0.04446411 0.7719727
vt 0.09729004 0.7851563
vt 0.09661865 0.7871094
vt 0.09844971 0.7875977
vt 0.09893799 0.7841797
vt 0.1001587 0.7851563
vt 0.1001587 0.7875977
vt 0.1004639 0.7700195
vt 0.09973145 0.7700195
vt 0.0994873 0.7700195
vt 0.1004639 0.7709961
vt 0.09838867 0.793457
vt 0.09906006 0.7929688
vt 0.09906006 0.7924805
vt 0.09838867 0.7924805
vt 0.09765625 0.7929688
vt 0.09741211 0.7924805
vt 0.09814453 0.7915039
vt 0.09747314 0.7919922
vt 0.1069336 0.7817383
vt 0.1078491 0.7788086
vt 0.1066284 0.7797852
vt 0.1094971 0.7792969
vt 0.1083984 0.7822266
vt 0.1094971 0.78125
vt 0.1053467 0.7915039
vt 0.1070557 0.7910156
vt 0.1062012 0.7900391
vt 0.1043701 0.7895508
vt 0.1070557 0.7885742
vt 0.1053467 0.7880859
vt 0.07788086 0.7915039
vt 0.07965088 0.7915039
vt 0.07879639 0.7900391
vt 0.0769043 0.7900391
vt 0.07965088 0.7885742
vt 0.07788086 0.7885742
vt 0.09301758 0.7871094
vt 0.09442139 0.7885742
vt 0.0960083 0.7880859
vt 0.09332275 0.7856445
vt 0.0960083 0.7861328
vt 0.0947876 0.7851563
vt 0.08135986 0.7929688
vt 0.0826416 0.7919922
vt 0.08111572 0.7910156
vt 0.0826416 0.793457
vt 0.105896 0.7705078
vt 0.1072998 0.7695313
vt 0.105896 0.769043
vt 0.1074829 0.7709961
vt 0.1086426 0.7705078
vt 0.1086426 0.769043
vt 0.01911926 0.7919922
vt 0.01911926 0.7910156
vt 0.0181427 0.7910156
vt 0.01812744 0.7919922
vt 0.03582764 0.7661133
vt 0.03659058 0.7666016
vt 0.03659058 0.7641602
vt 0.03475952 0.765625
vt 0.03466797 0.7666016
vt 0.0357666 0.7670898
vt 0.03491211 0.769043
vt 0.03649902 0.7675781
vt 0.0282135 0.7719727
vt 0.02880859 0.7695313
vt 0.02716064 0.7719727
vt 0.02938843 0.7719727
vt 0.02938843 0.7739258
vt 0.02822876 0.7739258
vt 0.02716064 0.7739258
vt 0.02801514 0.7749023
vt 0.0173645 0.7661133
vt 0.01795959 0.7636719
vt 0.01629639 0.765625
vt 0.01855469 0.7661133
vt 0.01855469 0.7680664
vt 0.01737976 0.7680664
vt 0.01629639 0.7675781
vt 0.0171814 0.769043
vt 0.02442932 0.7714844
vt 0.02442932 0.7734375
vt 0.02555847 0.7734375
vt 0.02560425 0.7749023
vt 0.02671814 0.7734375
vt 0.02555847 0.7714844
vt 0.02548218 0.7695313
vt 0.02671814 0.7714844
vt 0.02983093 0.7714844
vt 0.02983093 0.7734375
vt 0.03097534 0.7734375
vt 0.03105164 0.7749023
vt 0.03216553 0.7734375
vt 0.03097534 0.7714844
vt 0.03115845 0.7695313
vt 0.03216553 0.7714844
vt 0.03182983 0.7783203
vt 0.03182983 0.7763672
vt 0.0307312 0.7768555
vt 0.03111267 0.7749023
vt 0.02983093 0.7768555
vt 0.03070068 0.7783203
vt 0.03131104 0.7807617
vt 0.02983093 0.7783203
vn 0.4633789 0.8862305 0.00843811
vn -0.329834 0.8754883 0.3537598
vn 0.2834473 0.8496094 -0.4443359
vn -0.1574707 0.8349609 0.5273438
vn -0.329834 0.8754883 0.3537598
vn 0.4633789 0.8862305 0.00843811
vn -0.6103516 0.2460938 -0.7529297
vn -0.7739258 0.1877441 -0.6049805
vn -0.7788086 -0.09301758 -0.6201172
vn 0.8027344 0.314209 -0.5068359
vn 0.4841309 0.8657227 0.128418
vn 0.4719238 0.8730469 -0.1218262
vn 0.9882813 0.01079559 -0.1514893
vn 0.4841309 0.8657227 0.128418
vn 0.8027344 0.314209 -0.5068359
vn -0.6665039 0.6904297 0.2814941
vn -0.6826172 0.550293 0.4807129
vn -0.4118652 0.8671875 0.2797852
vn 0.3999023 0.1936035 -0.8959961
vn 0.004299164 0.890625 -0.4545898
vn 0.01661682 0.01452637 -1
vn 0.28125 0.8320313 -0.4777832
vn 0.004299164 0.890625 -0.4545898
vn 0.3999023 0.1936035 -0.8959961
vn 0.4831543 -0.6674805 -0.5664063
vn 0.3444824 -0.8583984 -0.3798828
vn 0.324707 -0.6044922 -0.7275391
vn 0.5185547 -0.574707 -0.6328125
vn 0.3415527 -0.546875 -0.7641602
vn -0.1224365 -0.9736328 -0.1923828
vn 0.6708984 -0.5874023 -0.4526367
vn 0.3444824 -0.8583984 -0.3798828
vn 0.4831543 -0.6674805 -0.5664063
vn 0.703125 -0.5209961 -0.4841309
vn 0.5185547 -0.574707 -0.6328125
vn -0.1224365 -0.9736328 -0.1923828
vn -0.1339111 0.1329346 -0.9819336
vn 0.6035156 -0.3320313 -0.7250977
vn 0.590332 0.2868652 -0.7543945
vn 0.1115112 -0.4238281 -0.8989258
vn -0.6884766 -0.223999 -0.6894531
vn -0.253418 -0.6801758 -0.6879883
vn -0.8388672 -0.543457 -0.02619934
vn -0.3688965 -0.8994141 -0.2347412
vn 0.2199707 -0.4880371 0.8447266
vn 0.3579102 -0.8588867 0.3659668
vn -0.08660889 -0.9790039 0.184082
vn -0.442627 -0.6621094 0.6049805
vn -0.08856201 0.5117188 0.8544922
vn -0.3688965 -0.8994141 -0.2347412
vn -0.3146973 0.8974609 0.3095703
vn -0.8388672 -0.543457 -0.02619934
vn -0.8720703 0.435791 0.222168
vn 0.2763672 0.8916016 0.3588867
vn 0.590332 0.2868652 -0.7543945
vn 0.9702148 0.2110596 -0.1184082
vn -0.3647461 0.8515625 0.3764648
vn -0.4829102 0.8305664 -0.2775879
vn -0.1339111 0.1329346 -0.9819336
vn -0.578125 -0.3249512 0.7485352
vn -0.4101563 0.1605225 -0.8979492
vn -0.5576172 -0.3986816 0.7280273
vn -0.3532715 0.1398926 -0.9248047
vn -0.6176758 -0.1395264 0.7739258
vn -0.3242188 0.03271484 -0.9453125
vn -0.3828125 -0.04492188 -0.9228516
vn -0.6162109 -0.02601624 0.7871094
vn -0.3532715 0.1398926 -0.9248047
vn 0.9555664 0.2287598 0.1860352
vn -0.4101563 0.1605225 -0.8979492
vn 0.9707031 0.2058105 0.1251221
vn -0.3242188 0.03271484 -0.9453125
vn 0.9882813 0.1206665 0.09155273
vn 0.9707031 0.2058105 0.1251221
vn -0.5576172 -0.3986816 0.7280273
vn 0.9555664 0.2287598 0.1860352
vn -0.578125 -0.3249512 0.7485352
vn 0.9882813 0.1206665 0.09155273
vn -0.6176758 -0.1395264 0.7739258
vn -0.6162109 -0.02601624 0.7871094
vn 0.9824219 0.07116699 0.173584
vn 0.590332 0.2868652 -0.7543945
vn 0.6035156 -0.3320313 -0.7250977
vn 0.8818359 -0.3669434 -0.2963867
vn 0.9702148 0.2110596 -0.1184082
vn 0.7709961 -0.6240234 0.1289063
vn 0.8393555 -0.1434326 0.5239258
vn 0.3579102 -0.8588867 0.3659668
vn 0.2199707 -0.4880371 0.8447266
vn -0.8720703 0.435791 0.222168
vn -0.8388672 -0.543457 -0.02619934
vn -0.6884766 -0.223999 -0.6894531
vn -0.2408447 0.8564453 0.456543
vn -0.4829102 0.8305664 -0.2775879
vn -0.1339111 0.1329346 -0.9819336
vn 0.2763672 0.8916016 0.3588867
vn 0.9702148 0.2110596 -0.1184082
vn 0.8393555 -0.1434326 0.5239258
vn -0.4016113 0.8540039 0.3308105
vn -0.08856201 0.5117188 0.8544922
vn 0.2199707 -0.4880371 0.8447266
vn -0.253418 -0.6801758 -0.6879883
vn -0.3688965 -0.8994141 -0.2347412
vn -0.08660889 -0.9790039 0.184082
vn 0.3515625 -0.855957 -0.3791504
vn 0.6035156 -0.3320313 -0.7250977
vn 0.1115112 -0.4238281 -0.8989258
vn 0.8818359 -0.3669434 -0.2963867
vn 0.6035156 -0.3320313 -0.7250977
vn 0.3515625 -0.855957 -0.3791504
vn 0.7709961 -0.6240234 0.1289063
vn -0.08660889 -0.9790039 0.184082
vn 0.3579102 -0.8588867 0.3659668
vn -0.3242188 0.03271484 -0.9453125
vn -0.3828125 -0.04492188 -0.9228516
vn 0.9824219 0.07116699 0.173584
vn 0.9882813 0.1206665 0.09155273
vn -0.4016113 0.8540039 0.3308105
vn -0.875 0.1573486 0.4575195
vn 0.2763672 0.8916016 0.3588867
vn -0.5566406 0.8061523 0.2006836
vn -0.08856201 0.5117188 0.8544922
vn -0.1286621 0.8564453 -0.4995117
vn -0.8720703 0.435791 0.222168
vn 0.4633789 0.8862305 0.00843811
vn 0.2834473 0.8496094 -0.4443359
vn -0.3146973 0.8974609 0.3095703
vn -0.1286621 0.8564453 -0.4995117
vn -0.08856201 0.5117188 0.8544922
vn -0.329834 0.8754883 0.3537598
vn -0.5566406 0.8061523 0.2006836
vn 0.2763672 0.8916016 0.3588867
vn -0.875 0.1573486 0.4575195
vn -0.6347656 -0.008255005 0.7724609
vn -0.3647461 0.8515625 0.3764648
vn -0.2281494 0.2185059 0.9487305
vn -0.4829102 0.8305664 -0.2775879
vn -0.4829102 0.8305664 -0.2775879
vn -0.2281494 0.2185059 0.9487305
vn -0.1574707 0.8349609 0.5273438
vn -0.2408447 0.8564453 0.456543
vn -0.2408447 0.8564453 0.456543
vn -0.1574707 0.8349609 0.5273438
vn 0.4633789 0.8862305 0.00843811
vn -0.8720703 0.435791 0.222168
vn -0.875 0.1573486 0.4575195
vn -0.329834 0.8754883 0.3537598
vn -0.6347656 -0.008255005 0.7724609
vn -0.5566406 0.8061523 0.2006836
vn -0.2281494 0.2185059 0.9487305
vn -0.329834 0.8754883 0.3537598
vn -0.1574707 0.8349609 0.5273438
vn -0.6347656 -0.008255005 0.7724609
vn -0.7739258 0.1877441 -0.6049805
vn -0.8823242 0.2324219 -0.4094238
vn -0.7788086 -0.09301758 -0.6201172
vn -0.6601563 0.5541992 -0.5068359
vn -0.8007813 0.5102539 -0.3139648
vn -0.609375 0.6552734 -0.4462891
vn -0.5068359 0.5317383 -0.6787109
vn -0.6103516 0.2460938 -0.7529297
vn -0.5576172 -0.0294342 0.8295898
vn -0.6850586 -0.5292969 0.5009766
vn -0.934082 -0.3498535 0.06860352
vn -0.9433594 0.2497559 0.2183838
vn 0.1784668 0.7143555 0.6762695
vn -0.8549805 -0.2854004 -0.4333496
vn 0.5253906 0.8408203 0.1296387
vn -0.8007813 0.315918 -0.5087891
vn 0.04159546 0.9628906 -0.2661133
vn 0.3986816 -0.3308105 -0.8554688
vn -0.02294922 -0.7431641 -0.6689453
vn 0.1845703 -0.9458008 -0.2678223
vn 0.7304688 -0.6230469 -0.2800293
vn 0.6381836 0.6162109 -0.4616699
vn 0.1153564 -0.9643555 0.2385254
vn 0.4433594 0.8828125 0.1547852
vn 0.6035156 -0.6494141 0.4628906
vn 0.7973633 0.3493652 0.4924316
vn 0.6035156 -0.6494141 0.4628906
vn 0.1153564 -0.9643555 0.2385254
vn -0.2736816 -0.7988281 0.5356445
vn 0.0489502 -0.4106445 0.9106445
vn -0.6850586 -0.5292969 0.5009766
vn -0.5576172 -0.0294342 0.8295898
vn 0.9296875 -0.2880859 -0.2304688
vn -0.295166 -0.02485657 0.9550781
vn 0.9003906 -0.3605957 -0.2429199
vn -0.3557129 -0.04144287 0.9335938
vn 0.9765625 -0.1079102 -0.1867676
vn -0.3911133 -0.1456299 0.9086914
vn -0.3325195 -0.2263184 0.9155273
vn 0.984375 0.005580902 -0.175415
vn -0.3557129 -0.04144287 0.9335938
vn -0.5854492 0.3769531 -0.7177734
vn -0.295166 -0.02485657 0.9550781
vn -0.637207 0.3476563 -0.6875
vn -0.3911133 -0.1456299 0.9086914
vn -0.6733398 0.2617188 -0.6914063
vn -0.6137695 0.2241211 -0.7568359
vn -0.3325195 -0.2263184 0.9155273
vn -0.637207 0.3476563 -0.6875
vn 0.9003906 -0.3605957 -0.2429199
vn -0.5854492 0.3769531 -0.7177734
vn 0.9296875 -0.2880859 -0.2304688
vn -0.6733398 0.2617188 -0.6914063
vn 0.9765625 -0.1079102 -0.1867676
vn -0.6733398 0.2617188 -0.6914063
vn -0.6137695 0.2241211 -0.7568359
vn 0.984375 0.005580902 -0.175415
vn 0.9765625 -0.1079102 -0.1867676
vn 0.7973633 0.3493652 0.4924316
vn 0.6035156 -0.6494141 0.4628906
vn 0.0489502 -0.4106445 0.9106445
vn 0.4873047 0.8730469 -0.004680634
vn 0.1784668 0.7143555 0.6762695
vn -0.5576172 -0.0294342 0.8295898
vn -0.8007813 0.315918 -0.5087891
vn -0.8549805 -0.2854004 -0.4333496
vn -0.4885254 -0.4921875 -0.7207031
vn -0.2753906 0.04293823 -0.9604492
vn 0.04159546 0.9628906 -0.2661133
vn -0.02294922 -0.7431641 -0.6689453
vn 0.5214844 0.8330078 0.1846924
vn 0.3986816 -0.3308105 -0.8554688
vn 0.6381836 0.6162109 -0.4616699
vn -0.2736816 -0.7988281 0.5356445
vn 0.1153564 -0.9643555 0.2385254
vn 0.1845703 -0.9458008 -0.2678223
vn -0.5170898 -0.847168 -0.1202393
vn -0.934082 -0.3498535 0.06860352
vn -0.6850586 -0.5292969 0.5009766
vn -0.8549805 -0.2854004 -0.4333496
vn -0.934082 -0.3498535 0.06860352
vn -0.5170898 -0.847168 -0.1202393
vn -0.4885254 -0.4921875 -0.7207031
vn 0.1845703 -0.9458008 -0.2678223
vn -0.02294922 -0.7431641 -0.6689453
vn 0.5214844 0.8330078 0.1846924
vn 0.9570313 0.09680176 0.2736816
vn 0.04159546 0.9628906 -0.2661133
vn 0.5507813 0.7451172 0.376709
vn 0.6381836 0.6162109 -0.4616699
vn -0.2408447 0.7470703 0.6196289
vn 0.7973633 0.3493652 0.4924316
vn -0.3430176 0.9287109 -0.1424561
vn -0.5126953 0.8032227 0.3029785
vn 0.4433594 0.8828125 0.1547852
vn -0.2408447 0.7470703 0.6196289
vn 0.6381836 0.6162109 -0.4616699
vn 0.04159546 0.9628906 -0.2661133
vn 0.9570313 0.09680176 0.2736816
vn 0.9882813 0.01079559 -0.1514893
vn 0.5253906 0.8408203 0.1296387
vn 0.8027344 0.314209 -0.5068359
vn 0.1784668 0.7143555 0.6762695
vn 0.1784668 0.7143555 0.6762695
vn 0.8027344 0.314209 -0.5068359
vn 0.4719238 0.8730469 -0.1218262
vn 0.4873047 0.8730469 -0.004680634
vn -0.3430176 0.9287109 -0.1424561
vn 0.7973633 0.3493652 0.4924316
vn 0.9570313 0.09680176 0.2736816
vn 0.4841309 0.8657227 0.128418
vn 0.9882813 0.01079559 -0.1514893
vn 0.5507813 0.7451172 0.376709
vn -0.2408447 0.7470703 0.6196289
vn -0.5126953 0.8032227 0.3029785
vn -0.3430176 0.9287109 -0.1424561
vn 0.4841309 0.8657227 0.128418
vn -0.5126953 0.8032227 0.3029785
vn 0.4719238 0.8730469 -0.1218262
vn 0.8613281 0.4609375 0.2141113
vn 0.8212891 0.5703125 -0.02127075
vn 0.737793 0.6738281 0.03390503
vn 0.7993164 0.5532227 0.2341309
vn 0.7993164 0.5532227 0.2341309
vn 0.737793 0.6738281 0.03390503
vn 0.5209961 0.8457031 0.1127319
vn 0.7231445 0.6591797 -0.206665
vn 0.8212891 0.5703125 -0.02127075
vn 0.7705078 0.5893555 -0.2425537
vn 0.04296875 0.9985352 -0.03640747
vn 0.8613281 0.4609375 0.2141113
vn -0.7558594 0.6523438 0.0581665
vn -0.6665039 0.6904297 0.2814941
vn -0.4118652 0.8671875 0.2797852
vn -0.7939453 0.6069336 0.03720093
vn -0.7646484 0.5893555 0.260498
vn 0.04296875 0.9985352 -0.03640747
vn -0.6826172 0.550293 0.4807129
vn -0.7236328 0.4848633 0.4909668
vn -0.1507568 0.4709473 -0.8691406
vn -0.3120117 0.4921875 -0.8125
vn -0.1647949 0.2653809 -0.949707
vn 0.02038574 0.4919434 -0.8706055
vn 0.09753418 0.7441406 -0.6606445
vn -0.1507568 0.4709473 -0.8691406
vn 0.02038574 0.4919434 -0.8706055
vn -0.1082764 0.7929688 -0.5996094
vn 0.04296875 0.9985352 -0.03640747
vn -0.3120117 0.4921875 -0.8125
vn -0.3129883 0.7460938 -0.5878906
vn -0.8037109 -0.5947266 -0.002742767
vn -0.9746094 -0.2229004 -3.027916E-05
vn -0.9350586 -0.2836914 0.2116699
vn -0.7983398 -0.5600586 0.222168
vn -0.08087158 -0.9638672 -0.2536621
vn -0.9746094 -0.2229004 -3.027916E-05
vn -0.9990234 0.04382324 0
vn -0.9350586 -0.2836914 0.2116699
vn -0.9350586 -0.2836914 -0.211792
vn -0.7958984 -0.5629883 -0.2220459
vn -0.9350586 -0.2836914 -0.211792
vn -0.9746094 -0.2229004 -3.027916E-05
vn -0.8037109 -0.5947266 -0.002742767
vn -0.08087158 -0.9638672 -0.2536621
vn 0.7094727 0.137085 0.6914063
vn 0.4880371 -0.4284668 0.7602539
vn -0.009078979 -0.3620605 0.9321289
vn -0.00510788 0.2548828 0.9667969
vn -0.4919434 -0.4099121 0.7680664
vn -0.6938477 0.1599121 0.7021484
vn -0.6586914 -0.6616211 0.3579102
vn -0.9765625 -0.1872559 0.1070557
vn -0.4741211 -0.8754883 -0.09216309
vn -0.6772461 -0.5004883 -0.5390625
vn -0.6772461 -0.5004883 -0.5390625
vn -0.4741211 -0.8754883 -0.09216309
vn -0.00819397 -0.9736328 -0.2279053
vn -0.003595352 -0.6411133 -0.7675781
vn -0.4777832 0.5205078 -0.7075195
vn 0.4699707 -0.8793945 -0.07324219
vn 0.01878357 0.9121094 -0.4099121
vn 0.6938477 -0.5029297 -0.5151367
vn 0.5239258 0.4838867 -0.7011719
vn -0.4694824 0.878418 -0.08654785
vn -0.00510788 0.2548828 0.9667969
vn -0.6938477 0.1599121 0.7021484
vn 0.01800537 0.8686523 -0.494873
vn 0.5131836 0.855957 -0.06021118
vn 0.7094727 0.137085 0.6914063
vn 0.6938477 -0.5029297 -0.5151367
vn 0.4699707 -0.8793945 -0.07324219
vn 0.6518555 -0.6669922 0.3608398
vn 0.9755859 -0.1912842 0.1074829
vn 0.5239258 0.4838867 -0.7011719
vn 0.4880371 -0.4284668 0.7602539
vn -0.1240234 0.8681641 -0.4804688
vn 0.7094727 0.137085 0.6914063
vn 0.5131836 0.855957 -0.06021118
vn 4.518032E-05 -0.2956543 -0.9550781
vn 0.8725586 0.1807861 0.4541016
vn -5.781651E-06 -0.3703613 -0.9287109
vn 0.8457031 0.1573486 0.5102539
vn 0.008277893 -0.1084595 -0.9941406
vn 0.8398438 0.04885864 0.5410156
vn 0.8745117 -0.02577209 0.484375
vn -0.005649567 0.00485611 -1
vn 0.8457031 0.1573486 0.5102539
vn -0.8725586 0.1807861 0.4541016
vn 0.8725586 0.1807861 0.4541016
vn -0.8452148 0.1571045 0.5107422
vn 0.8398438 0.04885864 0.5410156
vn -0.8354492 0.07110596 0.5454102
vn -0.8793945 0.0219574 0.4755859
vn 0.8745117 -0.02577209 0.484375
vn -0.8452148 0.1571045 0.5107422
vn -5.781651E-06 -0.3703613 -0.9287109
vn -0.8725586 0.1807861 0.4541016
vn 4.518032E-05 -0.2956543 -0.9550781
vn -0.8354492 0.07110596 0.5454102
vn 0.008277893 -0.1084595 -0.9941406
vn -0.8354492 0.07110596 0.5454102
vn -0.8793945 0.0219574 0.4755859
vn -0.005649567 0.00485611 -1
vn 0.008277893 -0.1084595 -0.9941406
vn -0.4694824 0.878418 -0.08654785
vn -0.6938477 0.1599121 0.7021484
vn -0.9765625 -0.1872559 0.1070557
vn 0.07165527 0.8730469 -0.4819336
vn -0.4777832 0.5205078 -0.7075195
vn -0.6772461 -0.5004883 -0.5390625
vn 0.6518555 -0.6669922 0.3608398
vn 0.4699707 -0.8793945 -0.07324219
vn -0.00819397 -0.9736328 -0.2279053
vn -0.00623703 -0.8725586 0.4887695
vn -0.009078979 -0.3620605 0.9321289
vn 0.4880371 -0.4284668 0.7602539
vn 0.6518555 -0.6669922 0.3608398
vn -0.00623703 -0.8725586 0.4887695
vn -0.4919434 -0.4099121 0.7680664
vn -0.6586914 -0.6616211 0.3579102
vn -0.00819397 -0.9736328 -0.2279053
vn -0.4741211 -0.8754883 -0.09216309
vn 0.07165527 0.8730469 -0.4819336
vn 0.3999023 0.1936035 -0.8959961
vn -0.4694824 0.878418 -0.08654785
vn 0.28125 0.8320313 -0.4777832
vn -0.4777832 0.5205078 -0.7075195
vn 0.3823242 0.8574219 0.3442383
vn 0.5239258 0.4838867 -0.7011719
vn -0.407959 0.8569336 0.3144531
vn 0.02000427 0.8295898 0.5581055
vn 0.01878357 0.9121094 -0.4099121
vn 0.3823242 0.8574219 0.3442383
vn -0.4777832 0.5205078 -0.7075195
vn -0.4694824 0.878418 -0.08654785
vn 0.3999023 0.1936035 -0.8959961
vn 0.01661682 0.01452637 -1
vn 0.01800537 0.8686523 -0.494873
vn -0.425293 0.2219238 -0.8774414
vn 0.5131836 0.855957 -0.06021118
vn 0.5131836 0.855957 -0.06021118
vn -0.425293 0.2219238 -0.8774414
vn -0.239624 0.8408203 -0.4853516
vn -0.1240234 0.8681641 -0.4804688
vn -0.407959 0.8569336 0.3144531
vn 0.5239258 0.4838867 -0.7011719
vn 0.3823242 0.8574219 0.3442383
vn 0.004299164 0.890625 -0.4545898
vn 0.28125 0.8320313 -0.4777832
vn 0.02000427 0.8295898 0.5581055
vn -0.407959 0.8569336 0.3144531
vn 0.004299164 0.890625 -0.4545898
vn 0.02000427 0.8295898 0.5581055
vn -0.239624 0.8408203 -0.4853516
vn -0.425293 0.2219238 -0.8774414
vn 0.01661682 0.01452637 -1
vn -0.01190948 0.59375 -0.8046875
vn -0.2402344 0.5595703 -0.793457
vn -0.2297363 0.6235352 -0.7475586
vn 7.69496E-05 0.6928711 -0.7211914
vn 7.69496E-05 0.6928711 -0.7211914
vn -0.2297363 0.6235352 -0.7475586
vn 0 0.8696289 -0.4938965
vn 0.2302246 0.6230469 -0.7475586
vn 0.2421875 0.546875 -0.8017578
vn -0.01190948 0.59375 -0.8046875
vn 0.0189209 0.722168 -0.6914063
vn -0.2402344 0.5595703 -0.793457
vn 0.01080322 -0.612793 -0.7900391
vn -0.08087158 -0.9638672 -0.2536621
vn 0.223877 -0.5776367 -0.7851563
vn -0.2247314 -0.5698242 -0.7900391
vn -0.2125244 -0.6132813 -0.7607422
vn 7.003546E-05 -0.7080078 -0.7060547
vn 0.2130127 -0.6132813 -0.7607422
vn 0 -0.8989258 -0.4384766
vn -0.4631348 -0.6425781 0.6103516
vn -0.1224365 -0.9736328 -0.1923828
vn -0.6308594 -0.6152344 0.4729004
vn -0.2822266 -0.5927734 0.7543945
vn -0.2749023 -0.6279297 0.7280273
vn -0.4025879 -0.7290039 0.5532227
vn -0.6079102 -0.6445313 0.4638672
vn -0.2271729 -0.9111328 0.34375
vn 0.7802734 -0.5927734 0.2003174
vn 0.9428711 -0.2897949 0.1641846
vn 0.9667969 -0.255127 -1.823902E-05
vn 0.9990234 -0.0423584 0
vn 0.9428711 -0.2897949 -0.1643066
vn 0.7646484 -0.6445313 -0.002613068
vn -0.08087158 -0.9638672 -0.2536621
vn 0.7797852 -0.5932617 -0.2001953
vn 0.06311035 -0.3535156 -0.9331055
vn 0.0418396 -0.06060791 -0.9970703
vn -0.1710205 0.007541656 -0.9853516
vn -0.1644287 0.2727051 -0.9477539
vn -0.3754883 -0.06051636 -0.9248047
vn -0.1533203 -0.3808594 -0.9116211
vn -0.1564941 -0.4968262 -0.8535156
vn -0.375 -0.3464355 -0.8598633
vn -0.4619141 -0.6088867 -0.6450195
vn -0.621582 -0.3212891 -0.7143555
vn -0.7441406 -0.2924805 -0.6005859
vn -0.7797852 -0.0814209 -0.6206055
vn -0.8251953 -0.3312988 -0.4570313
vn -0.574707 -0.6665039 -0.4750977
vn -0.1224365 -0.9736328 -0.1923828
vn -0.7089844 -0.6225586 -0.3310547
g flower red1_0
f 3/3/3 2/2/2 1/1/1
f 6/6/6 5/5/5 4/4/4
f 9/9/9 8/8/8 7/7/7
f 12/12/12 11/11/11 10/10/10
f 15/15/15 14/14/14 13/13/13
f 18/18/18 17/17/17 16/16/16
f 21/21/21 20/20/20 19/19/19
f 24/24/24 23/23/23 22/22/22
f 27/27/27 26/26/26 25/25/25
f 27/27/27 25/25/25 28/28/28
f 29/29/29 27/27/27 28/28/28
f 28/28/28 30/30/30 29/29/29
f 33/33/33 32/32/32 31/31/31
f 33/33/33 31/31/31 34/34/34
f 35/35/35 33/33/33 34/34/34
f 34/34/34 36/36/36 35/35/35
f 39/39/39 38/38/38 37/37/37
f 38/38/38 40/40/40 37/37/37
f 37/37/37 40/40/40 41/41/41
f 40/40/40 42/42/42 41/41/41
f 41/41/41 42/42/42 43/43/43
f 42/42/42 44/44/44 43/43/43
f 47/47/47 46/46/46 45/45/45
f 48/48/48 47/47/47 45/45/45
f 48/48/48 45/45/45 49/49/49
f 50/50/50 47/47/47 48/48/48
f 51/51/51 48/48/48 49/49/49
f 52/52/52 50/50/50 48/48/48
f 48/48/48 51/51/51 53/53/53
f 52/52/52 48/48/48 53/53/53
f 56/56/56 55/55/55 54/54/54
f 55/55/55 57/57/57 54/54/54
f 57/57/57 55/55/55 58/58/58
f 55/55/55 59/59/59 58/58/58
f 62/62/62 61/61/61 60/60/60
f 61/61/61 63/63/63 60/60/60
f 60/60/60 63/63/63 64/64/64
f 63/63/63 65/65/65 64/64/64
f 65/65/65 66/66/66 64/64/64
f 66/66/66 67/67/67 64/64/64
f 70/70/70 69/69/69 68/68/68
f 69/69/69 71/71/71 68/68/68
f 68/68/68 71/71/71 72/72/72
f 71/71/71 73/73/73 72/72/72
f 76/76/76 75/75/75 74/74/74
f 75/75/75 77/77/77 74/74/74
f 74/74/74 77/77/77 78/78/78
f 77/77/77 79/79/79 78/78/78
f 79/79/79 80/80/80 78/78/78
f 80/80/80 81/81/81 78/78/78
f 84/84/84 83/83/83 82/82/82
f 85/85/85 84/84/84 82/82/82
f 86/86/86 84/84/84 85/85/85
f 87/87/87 86/86/86 85/85/85
f 88/88/88 86/86/86 87/87/87
f 89/89/89 88/88/88 87/87/87
f 92/92/92 91/91/91 90/90/90
f 93/93/93 92/92/92 90/90/90
f 92/92/92 93/93/93 94/94/94
f 95/95/95 92/92/92 94/94/94
f 98/98/98 97/97/97 96/96/96
f 99/99/99 98/98/98 96/96/96
f 98/98/98 99/99/99 100/100/100
f 101/101/101 98/98/98 100/100/100
f 104/104/104 103/103/103 102/102/102
f 105/105/105 104/104/104 102/102/102
f 105/105/105 102/102/102 106/106/106
f 102/102/102 107/107/107 106/106/106
f 110/110/110 109/109/109 108/108/108
f 111/111/111 110/110/110 108/108/108
f 110/110/110 111/111/111 112/112/112
f 111/111/111 113/113/113 112/112/112
f 116/116/116 115/115/115 114/114/114
f 117/117/117 116/116/116 114/114/114
f 120/120/120 119/119/119 118/118/118
f 119/119/119 121/121/121 118/118/118
f 118/118/118 121/121/121 122/122/122
f 121/121/121 123/123/123 122/122/122
f 126/126/126 125/125/125 124/124/124
f 127/127/127 126/126/126 124/124/124
f 128/128/128 126/126/126 127/127/127
f 129/129/129 128/128/128 127/127/127
f 128/128/128 130/130/130 126/126/126
f 131/131/131 130/130/130 128/128/128
f 134/134/134 133/133/133 132/132/132
f 135/135/135 134/134/134 132/132/132
f 136/136/136 134/134/134 135/135/135
f 137/137/137 136/136/136 135/135/135
f 140/140/140 139/139/139 138/138/138
f 141/141/141 140/140/140 138/138/138
f 144/144/144 143/143/143 142/142/142
f 145/145/145 144/144/144 142/142/142
f 148/148/148 147/147/147 146/146/146
f 146/146/146 147/147/147 149/149/149
f 152/152/152 151/151/151 150/150/150
f 150/150/150 151/151/151 153/153/153
f 156/156/156 155/155/155 154/154/154
f 154/154/154 155/155/155 157/157/157
f 155/155/155 158/158/158 157/157/157
f 159/159/159 157/157/157 158/158/158
f 159/159/159 160/160/160 157/157/157
f 154/154/154 157/157/157 160/160/160
f 161/161/161 154/154/154 160/160/160
f 164/164/164 163/163/163 162/162/162
f 165/165/165 164/164/164 162/162/162
f 165/165/165 162/162/162 166/166/166
f 167/167/167 164/164/164 165/165/165
f 168/168/168 165/165/165 166/166/166
f 169/169/169 167/167/167 165/165/165
f 165/165/165 168/168/168 170/170/170
f 169/169/169 165/165/165 170/170/170
f 173/173/173 172/172/172 171/171/171
f 174/174/174 173/173/173 171/171/171
f 174/174/174 171/171/171 175/175/175
f 176/176/176 173/173/173 174/174/174
f 177/177/177 174/174/174 175/175/175
f 178/178/178 176/176/176 174/174/174
f 174/174/174 177/177/177 179/179/179
f 178/178/178 174/174/174 179/179/179
f 182/182/182 181/181/181 180/180/180
f 183/183/183 182/182/182 180/180/180
f 184/184/184 182/182/182 183/183/183
f 185/185/185 184/184/184 183/183/183
f 188/188/188 187/187/187 186/186/186
f 187/187/187 189/189/189 186/186/186
f 186/186/186 189/189/189 190/190/190
f 189/189/189 191/191/191 190/190/190
f 191/191/191 192/192/192 190/190/190
f 192/192/192 193/193/193 190/190/190
f 196/196/196 195/195/195 194/194/194
f 195/195/195 197/197/197 194/194/194
f 194/194/194 197/197/197 198/198/198
f 197/197/197 199/199/199 198/198/198
f 199/199/199 200/200/200 198/198/198
f 200/200/200 201/201/201 198/198/198
f 204/204/204 203/203/203 202/202/202
f 203/203/203 205/205/205 202/202/202
f 202/202/202 205/205/205 206/206/206
f 205/205/205 207/207/207 206/206/206
f 210/210/210 209/209/209 208/208/208
f 211/211/211 210/210/210 208/208/208
f 214/214/214 213/213/213 212/212/212
f 215/215/215 214/214/214 212/212/212
f 214/214/214 215/215/215 216/216/216
f 217/217/217 214/214/214 216/216/216
f 220/220/220 219/219/219 218/218/218
f 221/221/221 220/220/220 218/218/218
f 221/221/221 218/218/218 222/222/222
f 223/223/223 220/220/220 221/221/221
f 224/224/224 221/221/221 222/222/222
f 225/225/225 223/223/223 221/221/221
f 221/221/221 224/224/224 226/226/226
f 225/225/225 221/221/221 226/226/226
f 229/229/229 228/228/228 227/227/227
f 230/230/230 229/229/229 227/227/227
f 230/230/230 227/227/227 231/231/231
f 227/227/227 232/232/232 231/231/231
f 235/235/235 234/234/234 233/233/233
f 236/236/236 235/235/235 233/233/233
f 235/235/235 236/236/236 237/237/237
f 236/236/236 238/238/238 237/237/237
f 241/241/241 240/240/240 239/239/239
f 240/240/240 242/242/242 239/239/239
f 239/239/239 242/242/242 243/243/243
f 242/242/242 244/244/244 243/243/243
f 247/247/247 246/246/246 245/245/245
f 248/248/248 247/247/247 245/245/245
f 249/249/249 247/247/247 248/248/248
f 250/250/250 249/249/249 248/248/248
f 253/253/253 252/252/252 251/251/251
f 254/254/254 253/253/253 251/251/251
f 255/255/255 253/253/253 254/254/254
f 256/256/256 255/255/255 254/254/254
f 259/259/259 258/258/258 257/257/257
f 260/260/260 259/259/259 257/257/257
f 261/261/261 259/259/259 260/260/260
f 262/262/262 261/261/261 260/260/260
f 265/265/265 264/264/264 263/263/263
f 263/263/263 264/264/264 266/266/266
f 266/266/266 264/264/264 267/267/267
f 267/267/267 264/264/264 268/268/268
f 271/271/271 270/270/270 269/269/269
f 269/269/269 270/270/270 272/272/272
f 275/275/275 274/274/274 273/273/273
f 276/276/276 275/275/275 273/273/273
f 279/279/279 278/278/278 277/277/277
f 279/279/279 280/280/280 278/278/278
f 278/278/278 280/280/280 281/281/281
f 280/280/280 282/282/282 281/281/281
f 283/283/283 281/281/281 282/282/282
f 283/283/283 284/284/284 281/281/281
f 287/287/287 286/286/286 285/285/285
f 285/285/285 286/286/286 288/288/288
f 286/286/286 289/289/289 288/288/288
f 290/290/290 288/288/288 289/289/289
f 286/286/286 291/291/291 289/289/289
f 290/290/290 289/289/289 292/292/292
f 291/291/291 292/292/292 289/289/289
f 295/295/295 294/294/294 293/293/293
f 295/295/295 293/293/293 296/296/296
f 299/299/299 298/298/298 297/297/297
f 298/298/298 300/300/300 297/297/297
f 301/301/301 297/297/297 300/300/300
f 298/298/298 302/302/302 300/300/300
f 301/301/301 300/300/300 303/303/303
f 302/302/302 303/303/303 300/300/300
f 306/306/306 305/305/305 304/304/304
f 307/307/307 306/306/306 304/304/304
f 304/304/304 308/308/308 307/307/307
f 311/311/311 310/310/310 309/309/309
f 309/309/309 310/310/310 312/312/312
f 315/315/315 314/314/314 313/313/313
f 316/316/316 315/315/315 313/313/313
f 313/313/313 317/317/317 316/316/316
f 320/320/320 319/319/319 318/318/318
f 321/321/321 320/320/320 318/318/318
f 322/322/322 320/320/320 321/321/321
f 323/323/323 322/322/322 321/321/321
f 324/324/324 322/322/322 323/323/323
f 325/325/325 324/324/324 323/323/323
f 326/326/326 324/324/324 325/325/325
f 327/327/327 326/326/326 325/325/325
f 330/330/330 329/329/329 328/328/328
f 331/331/331 330/330/330 328/328/328
f 331/331/331 328/328/328 332/332/332
f 333/333/333 330/330/330 331/331/331
f 334/334/334 331/331/331 332/332/332
f 335/335/335 333/333/333 331/331/331
f 331/331/331 334/334/334 336/336/336
f 335/335/335 331/331/331 336/336/336
f 339/339/339 338/338/338 337/337/337
f 338/338/338 340/340/340 337/337/337
f 340/340/340 338/338/338 341/341/341
f 338/338/338 342/342/342 341/341/341
f 345/345/345 344/344/344 343/343/343
f 346/346/346 345/345/345 343/343/343
f 346/346/346 343/343/343 347/347/347
f 348/348/348 345/345/345 346/346/346
f 349/349/349 346/346/346 347/347/347
f 350/350/350 348/348/348 346/346/346
f 346/346/346 349/349/349 351/351/351
f 350/350/350 346/346/346 351/351/351
f 354/354/354 353/353/353 352/352/352
f 353/353/353 355/355/355 352/352/352
f 352/352/352 355/355/355 356/356/356
f 355/355/355 357/357/357 356/356/356
f 357/357/357 358/358/358 356/356/356
f 358/358/358 359/359/359 356/356/356
f 362/362/362 361/361/361 360/360/360
f 361/361/361 363/363/363 360/360/360
f 360/360/360 363/363/363 364/364/364
f 363/363/363 365/365/365 364/364/364
f 365/365/365 366/366/366 364/364/364
f 366/366/366 367/367/367 364/364/364
f 370/370/370 369/369/369 368/368/368
f 369/369/369 371/371/371 368/368/368
f 368/368/368 371/371/371 372/372/372
f 371/371/371 373/373/373 372/372/372
f 376/376/376 375/375/375 374/374/374
f 377/377/377 376/376/376 374/374/374
f 380/380/380 379/379/379 378/378/378
f 381/381/381 380/380/380 378/378/378
f 380/380/380 381/381/381 382/382/382
f 383/383/383 380/380/380 382/382/382
f 386/386/386 385/385/385 384/384/384
f 387/387/387 386/386/386 384/384/384
f 390/390/390 389/389/389 388/388/388
f 391/391/391 390/390/390 388/388/388
f 391/391/391 388/388/388 392/392/392
f 393/393/393 391/391/391 392/392/392
f 391/391/391 393/393/393 394/394/394
f 393/393/393 395/395/395 394/394/394
f 398/398/398 397/397/397 396/396/396
f 397/397/397 399/399/399 396/396/396
f 396/396/396 399/399/399 400/400/400
f 399/399/399 401/401/401 400/400/400
f 404/404/404 403/403/403 402/402/402
f 405/405/405 404/404/404 402/402/402
f 406/406/406 404/404/404 405/405/405
f 407/407/407 406/406/406 405/405/405
f 410/410/410 409/409/409 408/408/408
f 411/411/411 410/410/410 408/408/408
f 412/412/412 410/410/410 411/411/411
f 413/413/413 412/412/412 411/411/411
f 416/416/416 415/415/415 414/414/414
f 417/417/417 416/416/416 414/414/414
f 418/418/418 416/416/416 417/417/417
f 419/419/419 418/418/418 417/417/417
f 422/422/422 421/421/421 420/420/420
f 420/420/420 421/421/421 423/423/423
f 426/426/426 425/425/425 424/424/424
f 424/424/424 425/425/425 427/427/427
f 427/427/427 425/425/425 428/428/428
f 428/428/428 425/425/425 429/429/429
f 432/432/432 431/431/431 430/430/430
f 433/433/433 432/432/432 430/430/430
f 436/436/436 435/435/435 434/434/434
f 436/436/436 434/434/434 437/437/437
f 437/437/437 434/434/434 438/438/438
f 434/434/434 439/439/439 438/438/438
f 440/440/440 438/438/438 439/439/439
f 440/440/440 439/439/439 441/441/441
f 444/444/444 443/443/443 442/442/442
f 442/442/442 443/443/443 445/445/445
f 445/445/445 446/446/446 442/442/442
f 442/442/442 447/447/447 444/444/444
f 446/446/446 447/447/447 442/442/442
f 447/447/447 448/448/448 444/444/444
f 446/446/446 449/449/449 447/447/447
f 447/447/447 449/449/449 448/448/448
f 452/452/452 451/451/451 450/450/450
f 450/450/450 451/451/451 453/453/453
f 453/453/453 454/454/454 450/450/450
f 450/450/450 455/455/455 452/452/452
f 454/454/454 455/455/455 450/450/450
f 455/455/455 456/456/456 452/452/452
f 454/454/454 457/457/457 455/455/455
f 455/455/455 457/457/457 456/456/456
f 460/460/460 459/459/459 458/458/458
f 460/460/460 461/461/461 459/459/459
f 462/462/462 461/461/461 460/460/460
f 463/463/463 460/460/460 458/458/458
f 462/462/462 460/460/460 463/463/463
f 458/458/458 464/464/464 463/463/463
f 465/465/465 462/462/462 463/463/463
f 463/463/463 464/464/464 465/465/465
f 468/468/468 467/467/467 466/466/466
f 468/468/468 469/469/469 467/467/467
f 470/470/470 469/469/469 468/468/468
f 471/471/471 468/468/468 466/466/466
f 470/470/470 468/468/468 471/471/471
f 466/466/466 472/472/472 471/471/471
f 473/473/473 470/470/470 471/471/471
f 471/471/471 472/472/472 473/473/473
f 476/476/476 475/475/475 474/474/474
f 476/476/476 477/477/477 475/475/475
f 478/478/478 477/477/477 476/476/476
f 479/479/479 476/476/476 474/474/474
f 478/478/478 476/476/476 479/479/479
f 474/474/474 480/480/480 479/479/479
f 481/481/481 478/478/478 479/479/479
f 479/479/479 480/480/480 481/481/481
