g Fries
v -5.487539 11.26699 10.02091
v 10.80689 -0.1236328 -1.400937
v -5.452637 0.09414063 9.435395
v 14.7183 22.77188 -0.9354687
v 11.56783 11.03852 -1.34583
v 11.56783 11.03852 -1.34583
v 14.7183 22.77188 -0.9354687
v 6.606133 22.81648 -13.10839
v 10.80689 -0.1236328 -1.400937
v 11.56783 11.03852 -1.34583
v -5.487539 11.26699 10.02091
v 14.7183 22.77188 -0.9354687
v -6.103183 23.05078 12.94125
v 5.732402 11.07059 -10.1023
v -14.21537 23.09539 0.7683398
v -11.32297 11.29906 1.264443
v 6.606133 22.81648 -13.10839
v -11.32297 11.29906 1.264443
v -5.452637 0.09414063 9.435395
v -10.80689 0.1235937 1.400933
v -5.487539 11.26699 10.02091
v -10.80689 0.1235937 1.400933
v 5.732402 11.07059 -10.1023
v 5.452617 -0.09421875 -9.4354
v -11.32297 11.29906 1.264443
v -6.103183 23.05078 12.94125
v -11.32297 11.29906 1.264443
v -5.487539 11.26699 10.02091
v -14.21537 23.09539 0.7683398
v 5.452617 -0.09421875 -9.4354
v 11.56783 11.03852 -1.34583
v 10.80689 -0.1236328 -1.400937
v 5.732402 11.07059 -10.1023
v 6.606133 22.81648 -13.10839
v -14.2831 37.52953 1.400293
v -15.88498 36.2909 -1.249458
v -13.26328 37.01859 -3.174521
v -11.66146 38.25726 -0.5247363
v -11.98363 25.09484 0.652207
v -8.968281 1.3925 2.253247
v -6.19498 1.355312 0.404956
v -9.276464 25.57719 -1.231147
v -15.88498 36.2909 -1.249458
v -13.26328 37.01859 -3.174521
v -10.24219 25.93285 3.370005
v -7.118906 1.382305 5.028335
v -8.968281 1.3925 2.253247
v -11.98363 25.09484 0.652207
v -14.2831 37.52953 1.400293
v -15.88498 36.2909 -1.249458
v -7.535039 26.4152 1.486655
v -4.345625 1.345156 3.180054
v -7.118906 1.382305 5.028335
v -10.24219 25.93285 3.370005
v -11.66146 38.25726 -0.5247363
v -14.2831 37.52953 1.400293
v -9.276464 25.57719 -1.231147
v -6.19498 1.355312 0.404956
v -4.345625 1.345156 3.180054
v -7.535039 26.4152 1.486655
v -13.26328 37.01859 -3.174521
v -11.66146 38.25726 -0.5247363
v -6.30459 37.93285 6.222798
v -8.153965 37.94305 3.44769
v -5.424687 38.54246 1.631064
v -3.575332 38.5323 4.406177
v -6.661894 25.82129 2.40895
v -5.626211 1.353555 1.629121
v -2.85293 1.316406 -0.219165
v -3.906621 26.20984 0.5742236
v -8.153965 37.94305 3.44769
v -5.424687 38.54246 1.631064
v -4.81252 25.81113 5.184058
v -3.776855 1.343398 4.404214
v -5.626211 1.353555 1.629121
v -6.661894 25.82129 2.40895
v -6.30459 37.93285 6.222798
v -8.153965 37.94305 3.44769
v -2.057246 26.19969 3.349341
v -1.003574 1.30625 2.555928
v -3.776855 1.343398 4.404214
v -4.81252 25.81113 5.184058
v -3.575332 38.5323 4.406177
v -6.30459 37.93285 6.222798
v -3.906621 26.20984 0.5742236
v -2.85293 1.316406 -0.219165
v -1.003574 1.30625 2.555928
v -2.057246 26.19969 3.349341
v -5.424687 38.54246 1.631064
v -3.575332 38.5323 4.406177
v -7.147558 34.75879 16.72254
v -10.21711 34.78769 15.41931
v -9.175195 36.84246 13.01078
v -6.105625 36.81355 14.31404
v -7.84459 24.59984 9.605131
v -6.034629 1.369687 4.826616
v -4.732383 1.344219 1.758755
v -6.655 26.02043 6.834663
v -10.21711 34.78769 15.41931
v -9.175195 36.84246 13.01078
v -4.775039 24.57094 10.90835
v -2.965078 1.340781 6.129858
v -6.034629 1.369687 4.826616
v -7.84459 24.59984 9.605131
v -7.147558 34.75879 16.72254
v -10.21711 34.78769 15.41931
v -3.585371 25.99152 8.137866
v -1.662754 1.315313 3.061948
v -2.965078 1.340781 6.129858
v -4.775039 24.57094 10.90835
v -6.105625 36.81355 14.31404
v -7.147558 34.75879 16.72254
v -6.655 26.02043 6.834663
v -4.732383 1.344219 1.758755
v -1.662754 1.315313 3.061948
v -3.585371 25.99152 8.137866
v -9.175195 36.84246 13.01078
v -6.105625 36.81355 14.31404
v 4.717031 41.30492 8.113715
v 3.712598 39.94324 11.04939
v 0.5635742 40.82227 10.30471
v 1.568027 42.18394 7.369009
v 2.382148 27.55766 6.825181
v 1.121738 1.286172 3.445923
v -2.084004 1.318008 2.534526
v -0.7959375 28.16527 5.987837
v 3.712598 39.94324 11.04939
v 0.5635742 40.82227 10.30471
v 3.338984 28.47609 3.738315
v 2.033477 1.264492 0.238125
v 1.121738 1.286172 3.445923
v 2.382148 27.55766 6.825181
v 4.717031 41.30492 8.113715
v 3.712598 39.94324 11.04939
v 0.1608203 29.08367 2.901025
v -1.172324 1.296289 -0.6732227
v 2.033477 1.264492 0.238125
v 3.338984 28.47609 3.738315
v 1.568027 42.18394 7.369009
v 4.717031 41.30492 8.113715
v -0.7959375 28.16527 5.987837
v -2.084004 1.318008 2.534526
v -1.172324 1.296289 -0.6732227
v 0.1608203 29.08367 2.901025
v 0.5635742 40.82227 10.30471
v 1.568027 42.18394 7.369009
v 8.519101 37.75754 2.730815
v 6.246113 37.79137 5.170874
v 3.859355 38.44543 2.938384
v 6.132324 38.4116 0.4983398
v 4.684785 25.70226 3.883901
v 3.270117 1.260664 2.904971
v 0.8315234 1.279101 0.6330908
v 2.270781 26.14594 1.629087
v 6.246113 37.79137 5.170874
v 3.859355 38.44543 2.938384
v 6.957773 25.66844 1.443867
v 5.543105 1.226797 0.464917
v 3.270117 1.260664 2.904971
v 4.684785 25.70226 3.883901
v 8.519101 37.75754 2.730815
v 6.246113 37.79137 5.170874
v 4.543769 26.11211 -0.8109863
v 3.104473 1.245273 -1.806982
v 5.543105 1.226797 0.464917
v 6.957773 25.66844 1.443867
v 6.132324 38.4116 0.4983398
v 8.519101 37.75754 2.730815
v 2.270781 26.14594 1.629087
v 0.8315234 1.279101 0.6330908
v 3.104473 1.245273 -1.806982
v 4.543769 26.11211 -0.8109863
v 3.859355 38.44543 2.938384
v 6.132324 38.4116 0.4983398
v -5.031719 40.6473 -7.813286
v -3.444414 39.26133 -10.45409
v -0.5134766 40.0666 -9.047129
v -2.100762 41.45258 -6.406333
v -3.339062 27.1102 -5.982837
v -3.427695 1.315156 -2.285542
v -0.4964062 1.288828 -0.6995654
v -0.4058203 27.64918 -4.477881
v -3.444414 39.26133 -10.45409
v -0.5134766 40.0666 -9.047129
v -4.922578 28.06137 -3.182031
v -5.014433 1.343281 0.6475781
v -3.427695 1.315156 -2.285542
v -3.339062 27.1102 -5.982837
v -5.031719 40.6473 -7.813286
v -3.444414 39.26133 -10.45409
v -1.989355 28.60031 -1.677085
v -2.083105 1.316914 2.23353
v -5.014433 1.343281 0.6475781
v -4.922578 28.06137 -3.182031
v -2.100762 41.45258 -6.406333
v -5.031719 40.6473 -7.813286
v -0.4058203 27.64918 -4.477881
v -0.4964062 1.288828 -0.6995654
v -2.083105 1.316914 2.23353
v -1.989355 28.60031 -1.677085
v -0.5134766 40.0666 -9.047129
v -2.100762 41.45258 -6.406333
v 0.05746094 34.56551 -14.63413
v 3.38541 34.52824 -14.84613
v 3.574062 36.61058 -12.25057
v 0.2460742 36.64785 -12.0386
v 3.678457 24.40762 -8.465351
v 3.760176 1.233359 -3.108457
v 3.97207 1.243125 0.2177588
v 3.885371 25.86 -5.472632
v 3.38541 34.52824 -14.84613
v 3.574062 36.61058 -12.25057
v 0.3505664 24.44488 -8.253423
v 0.432207 1.270625 -2.896465
v 3.760176 1.233359 -3.108457
v 3.678457 24.40762 -8.465351
v 0.05746094 34.56551 -14.63413
v 3.38541 34.52824 -14.84613
v 0.5574609 25.89726 -5.260703
v 0.6441992 1.28043 0.429707
v 0.432207 1.270625 -2.896465
v 0.3505664 24.44488 -8.253423
v 0.2460742 36.64785 -12.0386
v 0.05746094 34.56551 -14.63413
v 3.885371 25.86 -5.472632
v 3.97207 1.243125 0.2177588
v 0.6441992 1.28043 0.429707
v 0.5574609 25.89726 -5.260703
v 3.574062 36.61058 -12.25057
v 0.2460742 36.64785 -12.0386
v 8.998867 35.34176 -11.39773
v 12.05068 34.12539 -11.81027
v 12.79873 34.85223 -8.654072
v 9.746992 36.06863 -8.241596
v 8.641992 23.5968 -8.803457
v 5.715937 1.200234 -6.305723
v 6.325176 1.205508 -3.028921
v 9.315391 24.09293 -5.581397
v 12.05068 34.12539 -11.81027
v 12.79873 34.85223 -8.654072
v 5.468184 24.43645 -8.283316
v 2.437441 1.238398 -5.696226
v 5.715937 1.200234 -6.305723
v 8.641992 23.5968 -8.803457
v 8.998867 35.34176 -11.39773
v 12.05068 34.12539 -11.81027
v 6.141582 24.93258 -5.06126
v 3.04668 1.243672 -2.419414
v 2.437441 1.238398 -5.696226
v 5.468184 24.43645 -8.283316
v 9.746992 36.06863 -8.241596
v 8.998867 35.34176 -11.39773
v 9.315391 24.09293 -5.581397
v 6.325176 1.205508 -3.028921
v 3.04668 1.243672 -2.419414
v 6.141582 24.93258 -5.06126
v 12.79873 34.85223 -8.654072
v 9.746992 36.06863 -8.241596
v 19.20631 34.3959 -3.557715
v 19.1699 34.40844 -0.2230811
v 16.58453 36.5116 -0.2592236
v 16.62102 36.49906 -3.593921
v 12.70279 24.33855 -0.2558105
v 7.165996 1.206523 -0.2292139
v 3.833437 1.242891 -0.2657764
v 9.714883 25.81492 -0.2940185
v 19.1699 34.40844 -0.2230811
v 16.58453 36.5116 -0.2592236
v 12.7392 24.32602 -3.590474
v 7.202402 1.193945 -3.563872
v 7.165996 1.206523 -0.2292139
v 12.70279 24.33855 -0.2558105
v 19.20631 34.3959 -3.557715
v 19.1699 34.40844 -0.2230811
v 9.751308 25.80238 -3.628643
v 3.869844 1.230391 -3.600415
v 7.202402 1.193945 -3.563872
v 12.7392 24.32602 -3.590474
v 16.62102 36.49906 -3.593921
v 19.20631 34.3959 -3.557715
v 9.714883 25.81492 -0.2940185
v 3.833437 1.242891 -0.2657764
v 3.869844 1.230391 -3.600415
v 9.751308 25.80238 -3.628643
v 16.58453 36.5116 -0.2592236
v 16.62102 36.49906 -3.593921
vt 0.3317871 0.9511719
vt 0.3535156 0.9399414
vt 0.3317871 0.9399414
vt 0.3535156 0.9619141
vt 0.3535156 0.9511719
vt 0.3317871 0.9511719
vt 0.3317871 0.9619141
vt 0.3535156 0.9619141
vt 0.3535156 0.9399414
vt 0.3535156 0.9511719
vt 0.3317871 0.9511719
vt 0.3535156 0.9619141
vt 0.3317871 0.9619141
vt 0.3317871 0.9511719
vt 0.3535156 0.9619141
vt 0.3535156 0.9511719
vt 0.3317871 0.9619141
vt 0.3317871 0.9511719
vt 0.3535156 0.9399414
vt 0.3317871 0.9399414
vt 0.3535156 0.9511719
vt 0.3535156 0.9399414
vt 0.3317871 0.9511719
vt 0.3317871 0.9399414
vt 0.3535156 0.9511719
vt 0.3535156 0.9619141
vt 0.3317871 0.9511719
vt 0.3535156 0.9511719
vt 0.3317871 0.9619141
vt 0.3535156 0.9399414
vt 0.3317871 0.9511719
vt 0.3317871 0.9399414
vt 0.3535156 0.9511719
vt 0.3535156 0.9619141
vt 0.1503906 0.8671875
vt 0.1503906 0.8671875
vt 0.1503906 0.8671875
vt 0.1503906 0.8671875
vt 0.1257324 0.8452148
vt 0.1257324 0.8701172
vt 0.1257324 0.8701172
vt 0.1257324 0.8452148
vt 0.1257324 0.8330078
vt 0.1257324 0.8330078
vt 0.1708984 0.8452148
vt 0.1708984 0.8701172
vt 0.1708984 0.8701172
vt 0.1708984 0.8452148
vt 0.1708984 0.8330078
vt 0.1708984 0.8330078
vt 0.1257324 0.8452148
vt 0.1257324 0.8701172
vt 0.1257324 0.8701172
vt 0.1257324 0.8452148
vt 0.1257324 0.8330078
vt 0.1257324 0.8330078
vt 0.1708984 0.8452148
vt 0.1708984 0.8701172
vt 0.1708984 0.8701172
vt 0.1708984 0.8452148
vt 0.1708984 0.8330078
vt 0.1708984 0.8330078
vt 0.1503906 0.8671875
vt 0.1503906 0.8671875
vt 0.1503906 0.8671875
vt 0.1503906 0.8671875
vt 0.1708984 0.8452148
vt 0.1708984 0.8701172
vt 0.1708984 0.8701172
vt 0.1708984 0.8452148
vt 0.1708984 0.8330078
vt 0.1708984 0.8330078
vt 0.1257324 0.8452148
vt 0.1257324 0.8701172
vt 0.1257324 0.8701172
vt 0.1257324 0.8452148
vt 0.1257324 0.8330078
vt 0.1257324 0.8330078
vt 0.1708984 0.8452148
vt 0.1708984 0.8701172
vt 0.1708984 0.8701172
vt 0.1708984 0.8452148
vt 0.1708984 0.8330078
vt 0.1708984 0.8330078
vt 0.1257324 0.8452148
vt 0.1257324 0.8701172
vt 0.1257324 0.8701172
vt 0.1257324 0.8452148
vt 0.1257324 0.8330078
vt 0.1257324 0.8330078
vt 0.1503906 0.8671875
vt 0.1503906 0.8671875
vt 0.1503906 0.8671875
vt 0.1503906 0.8671875
vt 0.1257324 0.8452148
vt 0.1257324 0.8701172
vt 0.1257324 0.8701172
vt 0.1257324 0.8452148
vt 0.1257324 0.8330078
vt 0.1257324 0.8330078
vt 0.1708984 0.8452148
vt 0.1708984 0.8701172
vt 0.1708984 0.8701172
vt 0.1708984 0.8452148
vt 0.1708984 0.8330078
vt 0.1708984 0.8330078
vt 0.1257324 0.8452148
vt 0.1257324 0.8701172
vt 0.1257324 0.8701172
vt 0.1257324 0.8452148
vt 0.1257324 0.8330078
vt 0.1257324 0.8330078
vt 0.1708984 0.8452148
vt 0.1708984 0.8701172
vt 0.1708984 0.8701172
vt 0.1708984 0.8452148
vt 0.1708984 0.8330078
vt 0.1708984 0.8330078
vt 0.1503906 0.8671875
vt 0.1503906 0.8671875
vt 0.1503906 0.8671875
vt 0.1503906 0.8671875
vt 0.1708984 0.8452148
vt 0.1708984 0.8701172
vt 0.1708984 0.8701172
vt 0.1708984 0.8452148
vt 0.1708984 0.8330078
vt 0.1708984 0.8330078
vt 0.1257324 0.8452148
vt 0.1257324 0.8701172
vt 0.1257324 0.8701172
vt 0.1257324 0.8452148
vt 0.1257324 0.8330078
vt 0.1257324 0.8330078
vt 0.1708984 0.8452148
vt 0.1708984 0.8701172
vt 0.1708984 0.8701172
vt 0.1708984 0.8452148
vt 0.1708984 0.8330078
vt 0.1708984 0.8330078
vt 0.1257324 0.8452148
vt 0.1257324 0.8701172
vt 0.1257324 0.8701172
vt 0.1257324 0.8452148
vt 0.1257324 0.8330078
vt 0.1257324 0.8330078
vt 0.1503906 0.8671875
vt 0.1503906 0.8671875
vt 0.1503906 0.8671875
vt 0.1503906 0.8671875
vt 0.1257324 0.8452148
vt 0.1257324 0.8701172
vt 0.1257324 0.8701172
vt 0.1257324 0.8452148
vt 0.1257324 0.8330078
vt 0.1257324 0.8330078
vt 0.1708984 0.8452148
vt 0.1708984 0.8701172
vt 0.1708984 0.8701172
vt 0.1708984 0.8452148
vt 0.1708984 0.8330078
vt 0.1708984 0.8330078
vt 0.1257324 0.8452148
vt 0.1257324 0.8701172
vt 0.1257324 0.8701172
vt 0.1257324 0.8452148
vt 0.1257324 0.8330078
vt 0.1257324 0.8330078
vt 0.1708984 0.8452148
vt 0.1708984 0.8701172
vt 0.1708984 0.8701172
vt 0.1708984 0.8452148
vt 0.1708984 0.8330078
vt 0.1708984 0.8330078
vt 0.1503906 0.8671875
vt 0.1503906 0.8671875
vt 0.1503906 0.8671875
vt 0.1503906 0.8671875
vt 0.1257324 0.8452148
vt 0.1257324 0.8701172
vt 0.1257324 0.8701172
vt 0.1257324 0.8452148
vt 0.1257324 0.8330078
vt 0.1257324 0.8330078
vt 0.1708984 0.8452148
vt 0.1708984 0.8701172
vt 0.1708984 0.8701172
vt 0.1708984 0.8452148
vt 0.1708984 0.8330078
vt 0.1708984 0.8330078
vt 0.1257324 0.8452148
vt 0.1257324 0.8701172
vt 0.1257324 0.8701172
vt 0.1257324 0.8452148
vt 0.1257324 0.8330078
vt 0.1257324 0.8330078
vt 0.1708984 0.8452148
vt 0.1708984 0.8701172
vt 0.1708984 0.8701172
vt 0.1708984 0.8452148
vt 0.1708984 0.8330078
vt 0.1708984 0.8330078
vt 0.1503906 0.8671875
vt 0.1503906 0.8671875
vt 0.1503906 0.8671875
vt 0.1503906 0.8671875
vt 0.1257324 0.8452148
vt 0.1257324 0.8701172
vt 0.1257324 0.8701172
vt 0.1257324 0.8452148
vt 0.1257324 0.8330078
vt 0.1257324 0.8330078
vt 0.1708984 0.8452148
vt 0.1708984 0.8701172
vt 0.1708984 0.8701172
vt 0.1708984 0.8452148
vt 0.1708984 0.8330078
vt 0.1708984 0.8330078
vt 0.1257324 0.8452148
vt 0.1257324 0.8701172
vt 0.1257324 0.8701172
vt 0.1257324 0.8452148
vt 0.1257324 0.8330078
vt 0.1257324 0.8330078
vt 0.1708984 0.8452148
vt 0.1708984 0.8701172
vt 0.1708984 0.8701172
vt 0.1708984 0.8452148
vt 0.1708984 0.8330078
vt 0.1708984 0.8330078
vt 0.1503906 0.8671875
vt 0.1503906 0.8671875
vt 0.1503906 0.8671875
vt 0.1503906 0.8671875
vt 0.1708984 0.8452148
vt 0.1708984 0.8701172
vt 0.1708984 0.8701172
vt 0.1708984 0.8452148
vt 0.1708984 0.8330078
vt 0.1708984 0.8330078
vt 0.1257324 0.8452148
vt 0.1257324 0.8701172
vt 0.1257324 0.8701172
vt 0.1257324 0.8452148
vt 0.1257324 0.8330078
vt 0.1257324 0.8330078
vt 0.1708984 0.8452148
vt 0.1708984 0.8701172
vt 0.1708984 0.8701172
vt 0.1708984 0.8452148
vt 0.1708984 0.8330078
vt 0.1708984 0.8330078
vt 0.1257324 0.8452148
vt 0.1257324 0.8701172
vt 0.1257324 0.8701172
vt 0.1257324 0.8452148
vt 0.1257324 0.8330078
vt 0.1257324 0.8330078
vt 0.1503906 0.8671875
vt 0.1503906 0.8671875
vt 0.1503906 0.8671875
vt 0.1503906 0.8671875
vt 0.1708984 0.8452148
vt 0.1708984 0.8701172
vt 0.1708984 0.8701172
vt 0.1708984 0.8452148
vt 0.1708984 0.8330078
vt 0.1708984 0.8330078
vt 0.1257324 0.8452148
vt 0.1257324 0.8701172
vt 0.1257324 0.8701172
vt 0.1257324 0.8452148
vt 0.1257324 0.8330078
vt 0.1257324 0.8330078
vt 0.1708984 0.8452148
vt 0.1708984 0.8701172
vt 0.1708984 0.8701172
vt 0.1708984 0.8452148
vt 0.1708984 0.8330078
vt 0.1708984 0.8330078
vt 0.1257324 0.8452148
vt 0.1257324 0.8701172
vt 0.1257324 0.8701172
vt 0.1257324 0.8452148
vt 0.1257324 0.8330078
vt 0.1257324 0.8330078
vn 0.01096344 1 -0.003665924
vn 0.01091766 1 -0.003623962
vn 0.01096344 1 -0.003646851
vn 0.01098633 1 -0.003662109
vn 0.01091003 1 -0.003639221
vn 0.01091003 1 -0.003639221
vn 0.01098633 1 -0.003662109
vn 0.01100159 1 -0.003673553
vn 0.01104736 1 -0.003639221
vn 0.01100159 1 -0.003665924
vn 0.01101685 1 -0.003637314
vn 0.01093292 1 -0.003604889
vn 0.0110321 1 -0.003620148
vn 0.01092529 1 -0.003633499
vn 0.01094818 1 -0.003644943
vn 0.01099396 1 -0.003677368
vn 0.01097107 1 -0.003664017
vn 0.0110321 1 -0.003658295
vn 0.01096344 1 -0.003646851
vn 0.0110321 1 -0.003662109
vn 0.01096344 1 -0.003665924
vn 0.01099396 1 -0.00365448
vn 0.01091766 1 -0.00369072
vn 0.01368713 1 -0.003087997
vn 0.01098633 1 -0.003646851
vn 0.0110321 1 -0.003620148
vn 0.0109787 1 -0.00362587
vn 0.01101685 1 -0.003713608
vn 0.01094818 1 -0.003679276
vn 0.01368713 1 -0.003087997
vn 0.01100159 1 -0.003665924
vn 0.01104736 1 -0.003639221
vn 0.01091766 1 -0.00369072
vn 0.01091766 1 -0.00371933
vn -0.3991699 0.6015625 0.6918945
vn -0.9448242 0.2272949 -0.2357178
vn -0.05215454 0.442627 -0.8950195
vn 0.5488281 0.8354492 0.02868652
vn -0.953125 -0.2443848 -0.1796875
vn -0.972168 -0.1365967 -0.1911621
vn 0.1983643 -0.04092407 -0.9794922
vn 0.2043457 -0.06652832 -0.9765625
vn -0.9448242 0.2272949 -0.2357178
vn -0.05215454 0.442627 -0.8950195
vn -0.2043457 0.06652832 0.9765625
vn -0.1983643 0.04092407 0.9794922
vn -0.972168 -0.1365967 -0.1911621
vn -0.953125 -0.2443848 -0.1796875
vn -0.3991699 0.6015625 0.6918945
vn -0.9448242 0.2272949 -0.2357178
vn 0.953125 0.2443848 0.1796875
vn 0.972168 0.1364746 0.1911621
vn -0.1983643 0.04092407 0.9794922
vn -0.2043457 0.06652832 0.9765625
vn 0.5488281 0.8354492 0.02868652
vn -0.3991699 0.6015625 0.6918945
vn 0.2043457 -0.06652832 -0.9765625
vn 0.1983643 -0.04092407 -0.9794922
vn 0.972168 0.1364746 0.1911621
vn 0.953125 0.2443848 0.1796875
vn -0.05215454 0.442627 -0.8950195
vn 0.5488281 0.8354492 0.02868652
vn -0.2380371 0.4755859 0.8466797
vn -0.871582 0.4790039 -0.1038818
vn 0.07043457 0.6625977 -0.7456055
vn 0.7177734 0.6586914 0.2254639
vn -0.9775391 -0.06903076 -0.1990967
vn -0.9799805 -0.03518677 -0.1968994
vn 0.1955566 0.03952026 -0.9799805
vn 0.1928711 0.07324219 -0.9785156
vn -0.871582 0.4790039 -0.1038818
vn 0.07043457 0.6625977 -0.7456055
vn -0.1928711 -0.07330322 0.9785156
vn -0.1955566 -0.03952026 0.9799805
vn -0.9799805 -0.03518677 -0.1968994
vn -0.9775391 -0.06903076 -0.1990967
vn -0.2380371 0.4755859 0.8466797
vn -0.871582 0.4790039 -0.1038818
vn 0.9775391 0.06903076 0.1989746
vn 0.9799805 0.03500366 0.1968994
vn -0.1955566 -0.03952026 0.9799805
vn -0.1928711 -0.07330322 0.9785156
vn 0.7177734 0.6586914 0.2254639
vn -0.2380371 0.4755859 0.8466797
vn 0.1928711 0.07324219 -0.9785156
vn 0.1955566 0.03952026 -0.9799805
vn 0.9799805 0.03500366 0.1968994
vn 0.9775391 0.06903076 0.1989746
vn 0.07043457 0.6625977 -0.7456055
vn 0.7177734 0.6586914 0.2254639
vn 0.1943359 0.1414795 0.9707031
vn -0.8310547 0.151123 0.5351563
vn -0.4909668 0.7924805 -0.3615723
vn 0.6137695 0.7822266 0.1074829
vn -0.9121094 -0.2570801 0.3198242
vn -0.921875 -0.1456299 0.3588867
vn -0.3796387 0.157959 -0.9116211
vn -0.3989258 0.2695313 -0.8764648
vn -0.8310547 0.151123 0.5351563
vn -0.4909668 0.7924805 -0.3615723
vn 0.3989258 -0.2695313 0.8764648
vn 0.3796387 -0.1578369 0.9116211
vn -0.921875 -0.1456299 0.3588867
vn -0.9121094 -0.2570801 0.3198242
vn 0.1943359 0.1414795 0.9707031
vn -0.8310547 0.151123 0.5351563
vn 0.9121094 0.2570801 -0.3200684
vn 0.921875 0.145752 -0.3588867
vn 0.3796387 -0.1578369 0.9116211
vn 0.3989258 -0.2695313 0.8764648
vn 0.6137695 0.7822266 0.1074829
vn 0.1943359 0.1414795 0.9707031
vn -0.3989258 0.2695313 -0.8764648
vn -0.3796387 0.157959 -0.9116211
vn 0.921875 0.145752 -0.3588867
vn 0.9121094 0.2570801 -0.3200684
vn -0.4909668 0.7924805 -0.3615723
vn 0.6137695 0.7822266 0.1074829
vn 0.8110352 0.5708008 -0.1276855
vn 0.4321289 0.2252197 0.8730469
vn -0.6279297 0.4440918 0.6391602
vn -0.3249512 0.8388672 -0.4362793
vn 0.4777832 -0.2329102 0.847168
vn 0.4829102 -0.1345215 0.8652344
vn -0.8745117 -0.02043152 0.4848633
vn -0.8764648 -0.04397583 0.4794922
vn 0.4321289 0.2252197 0.8730469
vn -0.6279297 0.4440918 0.6391602
vn 0.8764648 0.04400635 -0.4794922
vn 0.8745117 0.02041626 -0.4848633
vn 0.4829102 -0.1345215 0.8652344
vn 0.4777832 -0.2329102 0.847168
vn 0.8110352 0.5708008 -0.1276855
vn 0.4321289 0.2252197 0.8730469
vn -0.4777832 0.2329102 -0.847168
vn -0.4829102 0.1345215 -0.8652344
vn 0.8745117 0.02041626 -0.4848633
vn 0.8764648 0.04400635 -0.4794922
vn -0.3249512 0.8388672 -0.4362793
vn 0.8110352 0.5708008 -0.1276855
vn -0.8764648 -0.04397583 0.4794922
vn -0.8745117 -0.02043152 0.4848633
vn -0.4829102 0.1345215 -0.8652344
vn -0.4777832 0.2329102 -0.847168
vn -0.6279297 0.4440918 0.6391602
vn -0.3249512 0.8388672 -0.4362793
vn 0.8867188 0.4602051 0.0390625
vn 0.1081543 0.4719238 0.875
vn -0.7304688 0.6743164 0.1077271
vn 0.06500244 0.6625977 -0.7460938
vn 0.03071594 -0.07568359 0.996582
vn 0.03384399 -0.04196167 0.9985352
vn -0.9975586 0.05630493 0.03622437
vn -0.9951172 0.09008789 0.03866577
vn 0.1081543 0.4719238 0.875
vn -0.7304688 0.6743164 0.1077271
vn 0.9951172 -0.09002686 -0.03866577
vn 0.9975586 -0.05630493 -0.03622437
vn 0.03384399 -0.04196167 0.9985352
vn 0.03071594 -0.07568359 0.996582
vn 0.8867188 0.4602051 0.0390625
vn 0.1081543 0.4719238 0.875
vn -0.03074646 0.07574463 -0.996582
vn -0.03387451 0.04199219 -0.9985352
vn 0.9975586 -0.05630493 -0.03622437
vn 0.9951172 -0.09002686 -0.03866577
vn 0.06500244 0.6625977 -0.7460938
vn 0.8867188 0.4602051 0.0390625
vn -0.9951172 0.09008789 0.03866577
vn -0.9975586 0.05630493 0.03622437
vn -0.03387451 0.04199219 -0.9985352
vn -0.03074646 0.07574463 -0.996582
vn -0.7304688 0.6743164 0.1077271
vn 0.06500244 0.6625977 -0.7460938
vn -0.8046875 0.5913086 -0.05108643
vn -0.2281494 0.2246094 -0.9472656
vn 0.7626953 0.4265137 -0.486084
vn 0.2399902 0.8369141 0.4919434
vn -0.2875977 -0.2348633 -0.9287109
vn -0.286377 -0.1350098 -0.9487305
vn 0.9580078 -0.04388428 -0.282959
vn 0.9584961 -0.06781006 -0.2770996
vn -0.2281494 0.2246094 -0.9472656
vn 0.7626953 0.4265137 -0.486084
vn -0.9584961 0.06774902 0.2770996
vn -0.9580078 0.04385376 0.282959
vn -0.286377 -0.1350098 -0.9487305
vn -0.2875977 -0.2348633 -0.9287109
vn -0.8046875 0.5913086 -0.05108643
vn -0.2281494 0.2246094 -0.9472656
vn 0.2875977 0.2348633 0.9287109
vn 0.286377 0.1350098 0.9487305
vn -0.9580078 0.04385376 0.282959
vn -0.9584961 0.06774902 0.2770996
vn 0.2399902 0.8369141 0.4919434
vn -0.8046875 0.5913086 -0.05108643
vn 0.9584961 -0.06781006 -0.2770996
vn 0.9580078 -0.04388428 -0.282959
vn 0.286377 0.1350098 0.9487305
vn 0.2875977 0.2348633 0.9287109
vn 0.7626953 0.4265137 -0.486084
vn 0.2399902 0.8369141 0.4919434
vn -0.6064453 0.1437988 -0.7822266
vn 0.5053711 0.1314697 -0.8530273
vn 0.6162109 0.7822266 0.09356689
vn -0.581543 0.7954102 0.1699219
vn 0.6665039 -0.2780762 -0.6918945
vn 0.6601563 -0.1669922 -0.7324219
vn 0.7509766 0.151123 0.6425781
vn 0.7548828 0.262207 0.6010742
vn 0.5053711 0.1314697 -0.8530273
vn 0.6162109 0.7822266 0.09356689
vn -0.7548828 -0.2619629 -0.6010742
vn -0.7509766 -0.151123 -0.6425781
vn 0.6601563 -0.1669922 -0.7324219
vn 0.6665039 -0.2780762 -0.6918945
vn -0.6064453 0.1437988 -0.7822266
vn 0.5053711 0.1314697 -0.8530273
vn -0.6665039 0.2780762 0.6918945
vn -0.6601563 0.1669922 0.7324219
vn -0.7509766 -0.151123 -0.6425781
vn -0.7548828 -0.2619629 -0.6010742
vn -0.581543 0.7954102 0.1699219
vn -0.6064453 0.1437988 -0.7822266
vn 0.7548828 0.262207 0.6010742
vn 0.7509766 0.151123 0.6425781
vn -0.6601563 0.1669922 0.7324219
vn -0.6665039 0.2780762 0.6918945
vn 0.6162109 0.7822266 0.09356689
vn -0.581543 0.7954102 0.1699219
vn -0.4758301 0.6044922 -0.6386719
vn 0.5888672 0.2022705 -0.7827148
vn 0.8432617 0.4421387 0.3056641
vn -0.2322998 0.8481445 0.4760742
vn 0.5336914 -0.2756348 -0.7993164
vn 0.5551758 -0.1634521 -0.8154297
vn 0.8217773 -0.04397583 0.5678711
vn 0.8164063 -0.07055664 0.5737305
vn 0.5888672 0.2022705 -0.7827148
vn 0.8432617 0.4421387 0.3056641
vn -0.8164063 0.07055664 -0.5732422
vn -0.8217773 0.04403687 -0.5678711
vn 0.5551758 -0.1634521 -0.8154297
vn 0.5336914 -0.2756348 -0.7993164
vn -0.4758301 0.6044922 -0.6386719
vn 0.5888672 0.2022705 -0.7827148
vn -0.5336914 0.2756348 0.7993164
vn -0.5551758 0.1634521 0.8154297
vn -0.8217773 0.04403687 -0.5678711
vn -0.8164063 0.07055664 -0.5732422
vn -0.2322998 0.8481445 0.4760742
vn -0.4758301 0.6044922 -0.6386719
vn 0.8164063 -0.07055664 0.5737305
vn 0.8217773 -0.04397583 0.5678711
vn -0.5551758 0.1634521 0.8154297
vn -0.5336914 0.2756348 0.7993164
vn 0.8432617 0.4421387 0.3056641
vn -0.2322998 0.8481445 0.4760742
vn 0.8261719 0.1290283 -0.5483398
vn 0.8139648 0.1331787 0.5654297
vn -0.1328125 0.7919922 0.5957031
vn -0.1196899 0.7875977 -0.6044922
vn 0.6381836 -0.2727051 0.7202148
vn 0.6796875 -0.1618652 0.715332
vn -0.6953125 0.1672363 0.6987305
vn -0.6538086 0.2780762 0.7041016
vn 0.8139648 0.1331787 0.5654297
vn -0.1328125 0.7919922 0.5957031
vn 0.6533203 -0.2780762 -0.7041016
vn 0.6953125 -0.1672363 -0.6987305
vn 0.6796875 -0.1618652 0.715332
vn 0.6381836 -0.2727051 0.7202148
vn 0.8261719 0.1290283 -0.5483398
vn 0.8139648 0.1331787 0.5654297
vn -0.6381836 0.2724609 -0.7202148
vn -0.6796875 0.1618652 -0.715332
vn 0.6953125 -0.1672363 -0.6987305
vn 0.6533203 -0.2780762 -0.7041016
vn -0.1196899 0.7875977 -0.6044922
vn 0.8261719 0.1290283 -0.5483398
vn -0.6538086 0.2780762 0.7041016
vn -0.6953125 0.1672363 0.6987305
vn -0.6796875 0.1618652 -0.715332
vn -0.6381836 0.2724609 -0.7202148
vn -0.1328125 0.7919922 0.5957031
vn -0.1196899 0.7875977 -0.6044922
g Fries_0
f 3/3/3 2/2/2 1/1/1
f 5/5/5 4/4/4 1/1/1
f 8/8/8 7/7/7 6/6/6
f 11/11/11 10/10/10 9/9/9
f 11/11/11 13/13/13 12/12/12
f 16/16/16 15/15/15 14/14/14
f 15/15/15 17/17/17 14/14/14
f 20/20/20 19/19/19 18/18/18
f 19/19/19 21/21/21 18/18/18
f 24/24/24 23/23/23 22/22/22
f 23/23/23 25/25/25 22/22/22
f 28/28/28 27/27/27 26/26/26
f 27/27/27 29/29/29 26/26/26
f 32/32/32 31/31/31 30/30/30
f 31/31/31 33/33/33 30/30/30
f 33/33/33 31/31/31 34/34/34
f 37/37/37 36/36/36 35/35/35
f 38/38/38 37/37/37 35/35/35
f 41/41/41 40/40/40 39/39/39
f 42/42/42 41/41/41 39/39/39
f 42/42/42 39/39/39 43/43/43
f 44/44/44 42/42/42 43/43/43
f 47/47/47 46/46/46 45/45/45
f 48/48/48 47/47/47 45/45/45
f 48/48/48 45/45/45 49/49/49
f 50/50/50 48/48/48 49/49/49
f 53/53/53 52/52/52 51/51/51
f 54/54/54 53/53/53 51/51/51
f 54/54/54 51/51/51 55/55/55
f 56/56/56 54/54/54 55/55/55
f 59/59/59 58/58/58 57/57/57
f 60/60/60 59/59/59 57/57/57
f 60/60/60 57/57/57 61/61/61
f 62/62/62 60/60/60 61/61/61
f 65/65/65 64/64/64 63/63/63
f 66/66/66 65/65/65 63/63/63
f 69/69/69 68/68/68 67/67/67
f 70/70/70 69/69/69 67/67/67
f 70/70/70 67/67/67 71/71/71
f 72/72/72 70/70/70 71/71/71
f 75/75/75 74/74/74 73/73/73
f 76/76/76 75/75/75 73/73/73
f 76/76/76 73/73/73 77/77/77
f 78/78/78 76/76/76 77/77/77
f 81/81/81 80/80/80 79/79/79
f 82/82/82 81/81/81 79/79/79
f 82/82/82 79/79/79 83/83/83
f 84/84/84 82/82/82 83/83/83
f 87/87/87 86/86/86 85/85/85
f 88/88/88 87/87/87 85/85/85
f 88/88/88 85/85/85 89/89/89
f 90/90/90 88/88/88 89/89/89
f 93/93/93 92/92/92 91/91/91
f 94/94/94 93/93/93 91/91/91
f 97/97/97 96/96/96 95/95/95
f 98/98/98 97/97/97 95/95/95
f 98/98/98 95/95/95 99/99/99
f 100/100/100 98/98/98 99/99/99
f 103/103/103 102/102/102 101/101/101
f 104/104/104 103/103/103 101/101/101
f 104/104/104 101/101/101 105/105/105
f 106/106/106 104/104/104 105/105/105
f 109/109/109 108/108/108 107/107/107
f 110/110/110 109/109/109 107/107/107
f 110/110/110 107/107/107 111/111/111
f 112/112/112 110/110/110 111/111/111
f 115/115/115 114/114/114 113/113/113
f 116/116/116 115/115/115 113/113/113
f 116/116/116 113/113/113 117/117/117
f 118/118/118 116/116/116 117/117/117
f 121/121/121 120/120/120 119/119/119
f 122/122/122 121/121/121 119/119/119
f 125/125/125 124/124/124 123/123/123
f 126/126/126 125/125/125 123/123/123
f 126/126/126 123/123/123 127/127/127
f 128/128/128 126/126/126 127/127/127
f 131/131/131 130/130/130 129/129/129
f 132/132/132 131/131/131 129/129/129
f 132/132/132 129/129/129 133/133/133
f 134/134/134 132/132/132 133/133/133
f 137/137/137 136/136/136 135/135/135
f 138/138/138 137/137/137 135/135/135
f 138/138/138 135/135/135 139/139/139
f 140/140/140 138/138/138 139/139/139
f 143/143/143 142/142/142 141/141/141
f 144/144/144 143/143/143 141/141/141
f 144/144/144 141/141/141 145/145/145
f 146/146/146 144/144/144 145/145/145
f 149/149/149 148/148/148 147/147/147
f 150/150/150 149/149/149 147/147/147
f 153/153/153 152/152/152 151/151/151
f 154/154/154 153/153/153 151/151/151
f 154/154/154 151/151/151 155/155/155
f 156/156/156 154/154/154 155/155/155
f 159/159/159 158/158/158 157/157/157
f 160/160/160 159/159/159 157/157/157
f 160/160/160 157/157/157 161/161/161
f 162/162/162 160/160/160 161/161/161
f 165/165/165 164/164/164 163/163/163
f 166/166/166 165/165/165 163/163/163
f 166/166/166 163/163/163 167/167/167
f 168/168/168 166/166/166 167/167/167
f 171/171/171 170/170/170 169/169/169
f 172/172/172 171/171/171 169/169/169
f 172/172/172 169/169/169 173/173/173
f 174/174/174 172/172/172 173/173/173
f 177/177/177 176/176/176 175/175/175
f 178/178/178 177/177/177 175/175/175
f 181/181/181 180/180/180 179/179/179
f 182/182/182 181/181/181 179/179/179
f 182/182/182 179/179/179 183/183/183
f 184/184/184 182/182/182 183/183/183
f 187/187/187 186/186/186 185/185/185
f 188/188/188 187/187/187 185/185/185
f 188/188/188 185/185/185 189/189/189
f 190/190/190 188/188/188 189/189/189
f 193/193/193 192/192/192 191/191/191
f 194/194/194 193/193/193 191/191/191
f 194/194/194 191/191/191 195/195/195
f 196/196/196 194/194/194 195/195/195
f 199/199/199 198/198/198 197/197/197
f 200/200/200 199/199/199 197/197/197
f 200/200/200 197/197/197 201/201/201
f 202/202/202 200/200/200 201/201/201
f 205/205/205 204/204/204 203/203/203
f 206/206/206 205/205/205 203/203/203
f 209/209/209 208/208/208 207/207/207
f 210/210/210 209/209/209 207/207/207
f 210/210/210 207/207/207 211/211/211
f 212/212/212 210/210/210 211/211/211
f 215/215/215 214/214/214 213/213/213
f 216/216/216 215/215/215 213/213/213
f 216/216/216 213/213/213 217/217/217
f 218/218/218 216/216/216 217/217/217
f 221/221/221 220/220/220 219/219/219
f 222/222/222 221/221/221 219/219/219
f 222/222/222 219/219/219 223/223/223
f 224/224/224 222/222/222 223/223/223
f 227/227/227 226/226/226 225/225/225
f 228/228/228 227/227/227 225/225/225
f 228/228/228 225/225/225 229/229/229
f 230/230/230 228/228/228 229/229/229
f 233/233/233 232/232/232 231/231/231
f 234/234/234 233/233/233 231/231/231
f 237/237/237 236/236/236 235/235/235
f 238/238/238 237/237/237 235/235/235
f 238/238/238 235/235/235 239/239/239
f 240/240/240 238/238/238 239/239/239
f 243/243/243 242/242/242 241/241/241
f 244/244/244 243/243/243 241/241/241
f 244/244/244 241/241/241 245/245/245
f 246/246/246 244/244/244 245/245/245
f 249/249/249 248/248/248 247/247/247
f 250/250/250 249/249/249 247/247/247
f 250/250/250 247/247/247 251/251/251
f 252/252/252 250/250/250 251/251/251
f 255/255/255 254/254/254 253/253/253
f 256/256/256 255/255/255 253/253/253
f 256/256/256 253/253/253 257/257/257
f 258/258/258 256/256/256 257/257/257
f 261/261/261 260/260/260 259/259/259
f 262/262/262 261/261/261 259/259/259
f 265/265/265 264/264/264 263/263/263
f 266/266/266 265/265/265 263/263/263
f 266/266/266 263/263/263 267/267/267
f 268/268/268 266/266/266 267/267/267
f 271/271/271 270/270/270 269/269/269
f 272/272/272 271/271/271 269/269/269
f 272/272/272 269/269/269 273/273/273
f 274/274/274 272/272/272 273/273/273
f 277/277/277 276/276/276 275/275/275
f 278/278/278 277/277/277 275/275/275
f 278/278/278 275/275/275 279/279/279
f 280/280/280 278/278/278 279/279/279
f 283/283/283 282/282/282 281/281/281
f 284/284/284 283/283/283 281/281/281
f 284/284/284 281/281/281 285/285/285
f 286/286/286 284/284/284 285/285/285
