g Front_Wheel
v -0.05697611 -0.6405324 0.2090276
v -0.03795626 -0.581996 0.2492662
v 0.02276327 -0.581996 0.2492662
v 0.04178286 -0.6405324 0.209027
v -0.05697611 -0.6405324 0.1232439
v 0.07188654 -0.5463057 0.2492662
v 0.04178286 -0.6405324 0.1232439
v -0.0504389 -0.620413 0.08839589
v 0.03524542 -0.620413 0.08839589
v 0.1216807 -0.5824833 0.209027
v 0.09064983 -0.4885578 0.2492662
v 0.1216807 -0.5824833 0.1232439
v 0.1045658 -0.5700489 0.08839528
v 0.1521988 -0.4885578 0.209027
v 0.07188654 -0.43081 0.2492662
v 0.1521988 -0.4885578 0.1232439
v 0.1310439 -0.4885578 0.08839589
v 0.1216807 -0.3946324 0.2090276
v 0.02276327 -0.3951197 0.2492668
v 0.1216807 -0.3946324 0.1232433
v 0.1045658 -0.4070674 0.08839589
v 0.04178286 -0.3365833 0.2090276
v -0.03795626 -0.3951197 0.2492668
v 0.04178286 -0.3365833 0.1232433
v 0.03524542 -0.3567033 0.08839528
v -0.05697611 -0.3365833 0.2090276
v -0.08707952 -0.43081 0.2492668
v -0.05697611 -0.3365833 0.1232433
v -0.0504389 -0.3567033 0.08839528
v -0.1368737 -0.3946324 0.2090276
v -0.1058431 -0.4885578 0.2492668
v -0.1368738 -0.3946324 0.1232433
v -0.1197591 -0.4070674 0.08839589
v -0.1673919 -0.4885578 0.2090276
v -0.08707952 -0.5463057 0.2492668
v -0.167392 -0.4885578 0.1232439
v -0.146237 -0.4885578 0.08839589
v -0.1368737 -0.5824833 0.2090276
v -0.03795626 -0.581996 0.2492662
v -0.05697611 -0.6405324 0.2090276
v -0.1368738 -0.5824833 0.1232439
v -0.1197591 -0.5700489 0.08839528
v -0.05697611 -0.6405324 0.1232439
v -0.0504389 -0.620413 0.08839589
v 0.01519228 -0.4894963 -0.03947093
v 0.01519228 -0.4894963 0.03947011
v 0.01519228 1.876404E-07 0.03947011
v 0.01519228 1.876404E-07 -0.03947093
v 0.01519228 -0.4894963 0.03947011
v -0.03038454 1.876404E-07 -7.152969E-07
v 0.01519228 1.876404E-07 0.03947011
v -0.03038454 -0.4894963 -7.152969E-07
v 0.01519228 1.876404E-07 -0.03947093
v 0.01519228 -0.4894963 -0.03947093
v -0.007596035 -0.4448613 0.1627794
v -0.03237154 -0.530687 0.16278
v -0.03237154 -0.530687 -0.1627809
v -0.007596035 -0.4448616 -0.1627809
v -0.03237154 -0.530687 0.16278
v 0.01717951 -0.530687 -0.1627809
v -0.03237154 -0.530687 -0.1627809
v 0.01717951 -0.530687 0.16278
v -0.007596035 -0.4448616 -0.1627809
v -0.007596035 -0.4448613 0.1627794
v -0.05697557 -0.6405324 -0.2095063
v -0.03795603 -0.581996 -0.249745
v -0.08707918 -0.5463057 -0.249745
v -0.1368733 -0.5824833 -0.2095063
v -0.05697557 -0.6405324 -0.1237226
v -0.1058427 -0.4885578 -0.249745
v -0.1368733 -0.5824833 -0.1237226
v -0.0504384 -0.620413 -0.08887462
v -0.1197585 -0.5700489 -0.088874
v -0.1673915 -0.4885578 -0.2095063
v -0.08707918 -0.4308103 -0.2497456
v -0.1673915 -0.4885578 -0.123722
v -0.1462366 -0.4885578 -0.08887462
v -0.1368733 -0.3946324 -0.2095057
v -0.03795603 -0.3951201 -0.2497456
v -0.1368733 -0.3946324 -0.123722
v -0.1197585 -0.4070674 -0.08887462
v -0.05697584 -0.3365833 -0.2095057
v 0.02276373 -0.3951201 -0.2497456
v -0.05697557 -0.3365833 -0.123722
v -0.0504384 -0.3567033 -0.088874
v 0.04178335 -0.3365833 -0.2095057
v 0.07188702 -0.43081 -0.249745
v 0.04178335 -0.3365833 -0.123722
v 0.03524591 -0.3567033 -0.088874
v 0.1216812 -0.3946324 -0.2095057
v 0.09065056 -0.4885578 -0.249745
v 0.121681 -0.3946324 -0.123722
v 0.1045661 -0.4070674 -0.08887462
v 0.1521993 -0.4885578 -0.2095063
v 0.07188702 -0.5463057 -0.249745
v 0.1521993 -0.4885578 -0.1237226
v 0.1310441 -0.4885578 -0.08887462
v 0.1216812 -0.5824833 -0.2095063
v 0.02276373 -0.581996 -0.249745
v 0.121681 -0.5824833 -0.1237226
v 0.1045661 -0.5700489 -0.088874
v 0.04178335 -0.6405324 -0.2095063
v -0.03795603 -0.581996 -0.249745
v -0.05697557 -0.6405324 -0.2095063
v 0.04178335 -0.6405324 -0.1237226
v 0.03524614 -0.620413 -0.08887462
v -0.05697557 -0.6405324 -0.1237226
v -0.0504384 -0.620413 -0.08887462
v -0.08707952 -0.5463057 0.2492668
v -0.1058431 -0.4885578 0.2492668
v -0.08707952 -0.43081 0.2492668
v 0.02276327 -0.3951197 0.2492668
v -0.03795626 -0.3951197 0.2492668
v 0.09064983 -0.4885578 0.2492662
v 0.07188654 -0.43081 0.2492662
v 0.02276327 -0.581996 0.2492662
v 0.07188654 -0.5463057 0.2492662
v -0.03795626 -0.581996 0.2492662
v -0.146237 -0.4885578 0.08839589
v -0.1197591 -0.5700489 0.08839528
v -0.0504389 -0.620413 0.08839589
v 0.03524542 -0.620413 0.08839589
v 0.1045658 -0.5700489 0.08839528
v 0.1045658 -0.4070674 0.08839589
v 0.1310439 -0.4885578 0.08839589
v -0.0504389 -0.3567033 0.08839528
v 0.03524542 -0.3567033 0.08839528
v -0.1197591 -0.4070674 0.08839589
v 0.07188702 -0.5463057 -0.249745
v 0.09065056 -0.4885578 -0.249745
v 0.07188702 -0.43081 -0.249745
v -0.03795603 -0.3951201 -0.2497456
v 0.02276373 -0.3951201 -0.2497456
v -0.03795603 -0.581996 -0.249745
v 0.02276373 -0.581996 -0.249745
v -0.08707918 -0.5463057 -0.249745
v -0.1058427 -0.4885578 -0.249745
v -0.08707918 -0.4308103 -0.2497456
v 0.03524614 -0.620413 -0.08887462
v -0.0504384 -0.620413 -0.08887462
v -0.1197585 -0.5700489 -0.088874
v 0.1045661 -0.5700489 -0.088874
v 0.1310441 -0.4885578 -0.08887462
v 0.03524591 -0.3567033 -0.088874
v 0.1045661 -0.4070674 -0.08887462
v -0.1462366 -0.4885578 -0.08887462
v -0.1197585 -0.4070674 -0.08887462
v -0.0504384 -0.3567033 -0.088874
vt 0.133667 0.8222656
vt 0.133667 0.8188477
vt 0.1364746 0.8188477
vt 0.1364746 0.8222656
vt 0.133667 0.8261719
vt 0.1397705 0.8188477
vt 0.1364746 0.8261719
vt 0.133667 0.8286133
vt 0.1364746 0.8286133
vt 0.1397705 0.8222656
vt 0.1435547 0.8188477
vt 0.1397705 0.8261719
vt 0.1397705 0.8286133
vt 0.1435547 0.8222656
vt 0.1478271 0.8188477
vt 0.1435547 0.8261719
vt 0.1435547 0.8286133
vt 0.1478271 0.8222656
vt 0.1524658 0.8188477
vt 0.1478271 0.8261719
vt 0.1478271 0.8286133
vt 0.1524658 0.8222656
vt 0.1575928 0.8188477
vt 0.1524658 0.8261719
vt 0.1524658 0.8286133
vt 0.1575928 0.8222656
vt 0.1627197 0.8188477
vt 0.1575928 0.8261719
vt 0.1575928 0.8286133
vt 0.1627197 0.8222656
vt 0.1679688 0.8188477
vt 0.1627197 0.8261719
vt 0.1627197 0.8286133
vt 0.1679688 0.8222656
vt 0.1733398 0.8188477
vt 0.1679688 0.8261719
vt 0.1679688 0.8286133
vt 0.1733398 0.8222656
vt 0.1784668 0.8188477
vt 0.1784668 0.8222656
vt 0.1733398 0.8261719
vt 0.1733398 0.8286133
vt 0.1784668 0.8261719
vt 0.1784668 0.8286133
vt 0.2227783 0.8813477
vt 0.2227783 0.8793945
vt 0.2167969 0.8793945
vt 0.2167969 0.8813477
vt 0.2227783 0.8793945
vt 0.2167969 0.8803711
vt 0.2167969 0.8793945
vt 0.2227783 0.8803711
vt 0.2167969 0.8813477
vt 0.2227783 0.8813477
vt 0.2207031 0.8798828
vt 0.2207031 0.8842773
vt 0.2288818 0.8842773
vt 0.2288818 0.8798828
vt 0.2207031 0.8842773
vt 0.2288818 0.8828125
vt 0.2288818 0.8842773
vt 0.2207031 0.8828125
vt 0.2288818 0.8798828
vt 0.2207031 0.8798828
vt 0.133667 0.8222656
vt 0.133667 0.8188477
vt 0.1364746 0.8188477
vt 0.1364746 0.8222656
vt 0.133667 0.8261719
vt 0.1397705 0.8188477
vt 0.1364746 0.8261719
vt 0.133667 0.8286133
vt 0.1364746 0.8286133
vt 0.1397705 0.8222656
vt 0.1435547 0.8188477
vt 0.1397705 0.8261719
vt 0.1397705 0.8286133
vt 0.1435547 0.8222656
vt 0.1478271 0.8188477
vt 0.1435547 0.8261719
vt 0.1435547 0.8286133
vt 0.1478271 0.8222656
vt 0.1524658 0.8188477
vt 0.1478271 0.8261719
vt 0.1478271 0.8286133
vt 0.1524658 0.8222656
vt 0.1575928 0.8188477
vt 0.1524658 0.8261719
vt 0.1524658 0.8286133
vt 0.1575928 0.8222656
vt 0.1627197 0.8188477
vt 0.1575928 0.8261719
vt 0.1575928 0.8286133
vt 0.1627197 0.8222656
vt 0.1679688 0.8188477
vt 0.1627197 0.8261719
vt 0.1627197 0.8286133
vt 0.1679688 0.8222656
vt 0.1733398 0.8188477
vt 0.1679688 0.8261719
vt 0.1679688 0.8286133
vt 0.1733398 0.8222656
vt 0.1784668 0.8188477
vt 0.1784668 0.8222656
vt 0.1733398 0.8261719
vt 0.1733398 0.8286133
vt 0.1784668 0.8261719
vt 0.1784668 0.8286133
vt 0.7182617 0.9189453
vt 0.7226563 0.9204102
vt 0.7250977 0.9238281
vt 0.7226563 0.9321289
vt 0.7250977 0.9287109
vt 0.7138672 0.9321289
vt 0.7182617 0.9335938
vt 0.7114258 0.9238281
vt 0.7114258 0.9287109
vt 0.7138672 0.9204102
vt 0.1639404 0.8334961
vt 0.1604004 0.8325195
vt 0.1583252 0.8295898
vt 0.1583252 0.8256836
vt 0.1604004 0.8227539
vt 0.1673584 0.8227539
vt 0.1639404 0.8217773
vt 0.1695557 0.8295898
vt 0.1695557 0.8256836
vt 0.1673584 0.8325195
vt 0.7319336 0.9335938
vt 0.7275391 0.9321289
vt 0.7250977 0.9287109
vt 0.7275391 0.9204102
vt 0.7250977 0.9238281
vt 0.7387695 0.9287109
vt 0.7363281 0.9321289
vt 0.7387695 0.9238281
vt 0.7363281 0.9204102
vt 0.7319336 0.9189453
vt 0.1583252 0.8295898
vt 0.1561279 0.8325195
vt 0.1525879 0.8334961
vt 0.1583252 0.8256836
vt 0.1561279 0.8227539
vt 0.1491699 0.8227539
vt 0.1525879 0.8217773
vt 0.1491699 0.8325195
vt 0.1469727 0.8295898
vt 0.1469727 0.8256836
vn -0.2900391 -0.8930664 0.3444824
vn -0.1518555 -0.4672852 0.8710938
vn 0.1087646 -0.3347168 0.9360352
vn 0.2900391 -0.8930664 0.3444824
vn -0.3054199 -0.9399414 -0.1523438
vn 0.3974609 -0.2888184 0.8710938
vn 0.3054199 -0.9399414 -0.1523438
vn -0.1473389 -0.4533691 -0.8789063
vn 0.1120605 -0.3449707 -0.9321289
vn 0.7592773 -0.5517578 0.3444824
vn 0.3068848 -2.741814E-06 0.9516602
vn 0.7998047 -0.5810547 -0.1523438
vn 0.2004395 -0.1456299 -0.96875
vn 0.9389648 1.788139E-07 0.3444824
vn 0.3974609 0.2888184 0.8710938
vn 0.9882813 3.576279E-07 -0.1523438
vn 0.6660156 -1.013279E-06 -0.7456055
vn 0.7592773 0.5517578 0.3444824
vn 0.09484863 0.2919922 0.9516602
vn 0.7998047 0.5810547 -0.1523438
vn 0.2004395 0.1456299 -0.96875
vn 0.2900391 0.8930664 0.3444824
vn -0.1518555 0.4672852 0.8710938
vn 0.3054199 0.9399414 -0.1523438
vn 0.2059326 0.6337891 -0.7456055
vn -0.2900391 0.8930664 0.3444824
vn -0.284668 0.2069092 0.9360352
vn -0.3054199 0.9399414 -0.1523438
vn -0.09820557 0.3022461 -0.9482422
vn -0.7592773 0.5517578 0.3444824
vn -0.4912109 -4.172325E-07 0.8710938
vn -0.7998047 0.5810547 -0.1523438
vn -0.5390625 0.3916016 -0.7456055
vn -0.9389648 2.384186E-07 0.3444824
vn -0.2653809 -0.1928711 0.9448242
vn -0.9882813 1.788139E-07 -0.1523438
vn -0.3037109 -1.013279E-06 -0.9526367
vn -0.7592773 -0.5517578 0.3444824
vn -0.1518555 -0.4672852 0.8710938
vn -0.2900391 -0.8930664 0.3444824
vn -0.7998047 -0.5810547 -0.1523438
vn -0.5390625 -0.3916016 -0.7456055
vn -0.3054199 -0.9399414 -0.1523438
vn -0.1473389 -0.4533691 -0.8789063
vn 0.6547852 0 -0.7558594
vn 0.6547852 0 0.7558594
vn 0.6547852 0 0.7558594
vn 0.6547852 0 -0.7558594
vn 0.6547852 0 0.7558594
vn -1 0 0
vn 0.6547852 0 0.7558594
vn -1 0 0
vn 0.6547852 0 -0.7558594
vn 0.6547852 0 -0.7558594
vn -1.549721E-06 1 0
vn -0.9609375 -0.2773438 0
vn -0.9609375 -0.2773438 0
vn -1.430511E-06 1 0
vn -0.9609375 -0.2773438 0
vn 0.9609375 -0.2773438 0
vn -0.9609375 -0.2773438 0
vn 0.9609375 -0.2773438 0
vn -1.430511E-06 1 0
vn -1.549721E-06 1 0
vn -0.2900391 -0.8930664 -0.3444824
vn -0.09484863 -0.2919922 -0.9516602
vn -0.3044434 -0.2211914 -0.9267578
vn -0.7592773 -0.5517578 -0.3444824
vn -0.3054199 -0.9399414 0.1523438
vn -0.427002 5.364418E-07 -0.9042969
vn -0.7998047 -0.5810547 0.1523438
vn -0.2059326 -0.6337891 0.7456055
vn -0.2457275 -0.1785889 0.9526367
vn -0.9389648 1.192093E-07 -0.3444824
vn -0.3974609 0.2888184 -0.8710938
vn -0.9882813 -4.172325E-07 0.1523438
vn -0.3625488 1.966953E-06 0.9321289
vn -0.7592773 0.5517578 -0.3444824
vn -0.1062012 0.3269043 -0.9389648
vn -0.7998047 0.5810547 0.1523438
vn -0.385498 0.2800293 0.8789063
vn -0.2900391 0.8930664 -0.3444824
vn 0.1518555 0.4672852 -0.8710938
vn -0.3054199 0.9399414 0.1523438
vn -0.2059326 0.6337891 0.7456055
vn 0.2900391 0.8930664 -0.3444824
vn 0.284668 0.2069092 -0.9360352
vn 0.3054199 0.9399414 0.1523438
vn 0.08270264 0.2546387 0.9633789
vn 0.7592773 0.5517578 -0.3444824
vn 0.4912109 1.966953E-06 -0.8710938
vn 0.7998047 0.5810547 0.1523438
vn 0.5390625 0.3916016 0.7456055
vn 0.9389648 5.364418E-07 -0.3444824
vn 0.2484131 -0.1804199 -0.9516602
vn 0.9882813 -2.384186E-07 0.1523438
vn 0.2476807 -4.768372E-07 0.96875
vn 0.7592773 -0.5517578 -0.3444824
vn 0.1518555 -0.4672852 -0.8710938
vn 0.7998047 -0.5810547 0.1523438
vn 0.293457 -0.2131348 0.9321289
vn 0.2900391 -0.8930664 -0.3444824
vn -0.09484863 -0.2919922 -0.9516602
vn -0.2900391 -0.8930664 -0.3444824
vn 0.3054199 -0.9399414 0.1523438
vn 0.1473389 -0.4533691 0.8789063
vn -0.3054199 -0.9399414 0.1523438
vn -0.2059326 -0.6337891 0.7456055
vn -0.2653809 -0.1928711 0.9448242
vn -0.4912109 -4.172325E-07 0.8710938
vn -0.284668 0.2069092 0.9360352
vn 0.09484863 0.2919922 0.9516602
vn -0.1518555 0.4672852 0.8710938
vn 0.3068848 -2.741814E-06 0.9516602
vn 0.3974609 0.2888184 0.8710938
vn 0.1087646 -0.3347168 0.9360352
vn 0.3974609 -0.2888184 0.8710938
vn -0.1518555 -0.4672852 0.8710938
vn -0.3037109 -1.013279E-06 -0.9526367
vn -0.5390625 -0.3916016 -0.7456055
vn -0.1473389 -0.4533691 -0.8789063
vn 0.1120605 -0.3449707 -0.9321289
vn 0.2004395 -0.1456299 -0.96875
vn 0.2004395 0.1456299 -0.96875
vn 0.6660156 -1.013279E-06 -0.7456055
vn -0.09820557 0.3022461 -0.9482422
vn 0.2059326 0.6337891 -0.7456055
vn -0.5390625 0.3916016 -0.7456055
vn 0.2484131 -0.1804199 -0.9516602
vn 0.4912109 1.966953E-06 -0.8710938
vn 0.284668 0.2069092 -0.9360352
vn -0.1062012 0.3269043 -0.9389648
vn 0.1518555 0.4672852 -0.8710938
vn -0.09484863 -0.2919922 -0.9516602
vn 0.1518555 -0.4672852 -0.8710938
vn -0.3044434 -0.2211914 -0.9267578
vn -0.427002 5.364418E-07 -0.9042969
vn -0.3974609 0.2888184 -0.8710938
vn 0.1473389 -0.4533691 0.8789063
vn -0.2059326 -0.6337891 0.7456055
vn -0.2457275 -0.1785889 0.9526367
vn 0.293457 -0.2131348 0.9321289
vn 0.2476807 -4.768372E-07 0.96875
vn 0.08270264 0.2546387 0.9633789
vn 0.5390625 0.3916016 0.7456055
vn -0.3625488 1.966953E-06 0.9321289
vn -0.385498 0.2800293 0.8789063
vn -0.2059326 0.6337891 0.7456055
g Front_Wheel_0
f 3/3/3 2/2/2 1/1/1
f 4/4/4 3/3/3 1/1/1
f 1/1/1 5/5/5 4/4/4
f 6/6/6 3/3/3 4/4/4
f 5/5/5 7/7/7 4/4/4
f 5/5/5 8/8/8 7/7/7
f 8/8/8 9/9/9 7/7/7
f 10/10/10 6/6/6 4/4/4
f 4/4/4 7/7/7 10/10/10
f 11/11/11 6/6/6 10/10/10
f 7/7/7 9/9/9 12/12/12
f 7/7/7 12/12/12 10/10/10
f 9/9/9 13/13/13 12/12/12
f 14/14/14 11/11/11 10/10/10
f 10/10/10 12/12/12 14/14/14
f 15/15/15 11/11/11 14/14/14
f 12/12/12 13/13/13 16/16/16
f 12/12/12 16/16/16 14/14/14
f 13/13/13 17/17/17 16/16/16
f 18/18/18 15/15/15 14/14/14
f 14/14/14 16/16/16 18/18/18
f 19/19/19 15/15/15 18/18/18
f 16/16/16 17/17/17 20/20/20
f 16/16/16 20/20/20 18/18/18
f 17/17/17 21/21/21 20/20/20
f 22/22/22 19/19/19 18/18/18
f 18/18/18 20/20/20 22/22/22
f 23/23/23 19/19/19 22/22/22
f 20/20/20 21/21/21 24/24/24
f 20/20/20 24/24/24 22/22/22
f 21/21/21 25/25/25 24/24/24
f 26/26/26 23/23/23 22/22/22
f 22/22/22 24/24/24 26/26/26
f 27/27/27 23/23/23 26/26/26
f 24/24/24 25/25/25 28/28/28
f 24/24/24 28/28/28 26/26/26
f 25/25/25 29/29/29 28/28/28
f 30/30/30 27/27/27 26/26/26
f 26/26/26 28/28/28 30/30/30
f 31/31/31 27/27/27 30/30/30
f 28/28/28 29/29/29 32/32/32
f 28/28/28 32/32/32 30/30/30
f 29/29/29 33/33/33 32/32/32
f 34/34/34 31/31/31 30/30/30
f 30/30/30 32/32/32 34/34/34
f 35/35/35 31/31/31 34/34/34
f 32/32/32 33/33/33 36/36/36
f 32/32/32 36/36/36 34/34/34
f 33/33/33 37/37/37 36/36/36
f 38/38/38 35/35/35 34/34/34
f 34/34/34 36/36/36 38/38/38
f 39/39/39 35/35/35 38/38/38
f 40/40/40 39/39/39 38/38/38
f 36/36/36 37/37/37 41/41/41
f 36/36/36 41/41/41 38/38/38
f 38/38/38 41/41/41 40/40/40
f 37/37/37 42/42/42 41/41/41
f 41/41/41 43/43/43 40/40/40
f 41/41/41 42/42/42 43/43/43
f 42/42/42 44/44/44 43/43/43
f 47/47/47 46/46/46 45/45/45
f 48/48/48 47/47/47 45/45/45
f 51/51/51 50/50/50 49/49/49
f 50/50/50 52/52/52 49/49/49
f 50/50/50 53/53/53 52/52/52
f 53/53/53 54/54/54 52/52/52
f 57/57/57 56/56/56 55/55/55
f 58/58/58 57/57/57 55/55/55
f 61/61/61 60/60/60 59/59/59
f 60/60/60 62/62/62 59/59/59
f 60/60/60 63/63/63 62/62/62
f 63/63/63 64/64/64 62/62/62
f 67/67/67 66/66/66 65/65/65
f 68/68/68 67/67/67 65/65/65
f 65/65/65 69/69/69 68/68/68
f 70/70/70 67/67/67 68/68/68
f 69/69/69 71/71/71 68/68/68
f 69/69/69 72/72/72 71/71/71
f 72/72/72 73/73/73 71/71/71
f 74/74/74 70/70/70 68/68/68
f 68/68/68 71/71/71 74/74/74
f 75/75/75 70/70/70 74/74/74
f 71/71/71 73/73/73 76/76/76
f 71/71/71 76/76/76 74/74/74
f 73/73/73 77/77/77 76/76/76
f 78/78/78 75/75/75 74/74/74
f 74/74/74 76/76/76 78/78/78
f 79/79/79 75/75/75 78/78/78
f 76/76/76 77/77/77 80/80/80
f 76/76/76 80/80/80 78/78/78
f 77/77/77 81/81/81 80/80/80
f 82/82/82 79/79/79 78/78/78
f 78/78/78 80/80/80 82/82/82
f 83/83/83 79/79/79 82/82/82
f 80/80/80 81/81/81 84/84/84
f 80/80/80 84/84/84 82/82/82
f 81/81/81 85/85/85 84/84/84
f 86/86/86 83/83/83 82/82/82
f 82/82/82 84/84/84 86/86/86
f 87/87/87 83/83/83 86/86/86
f 84/84/84 85/85/85 88/88/88
f 84/84/84 88/88/88 86/86/86
f 85/85/85 89/89/89 88/88/88
f 90/90/90 87/87/87 86/86/86
f 86/86/86 88/88/88 90/90/90
f 91/91/91 87/87/87 90/90/90
f 88/88/88 89/89/89 92/92/92
f 88/88/88 92/92/92 90/90/90
f 89/89/89 93/93/93 92/92/92
f 94/94/94 91/91/91 90/90/90
f 90/90/90 92/92/92 94/94/94
f 95/95/95 91/91/91 94/94/94
f 92/92/92 93/93/93 96/96/96
f 92/92/92 96/96/96 94/94/94
f 93/93/93 97/97/97 96/96/96
f 98/98/98 95/95/95 94/94/94
f 94/94/94 96/96/96 98/98/98
f 99/99/99 95/95/95 98/98/98
f 96/96/96 97/97/97 100/100/100
f 96/96/96 100/100/100 98/98/98
f 97/97/97 101/101/101 100/100/100
f 102/102/102 99/99/99 98/98/98
f 98/98/98 100/100/100 102/102/102
f 103/103/103 99/99/99 102/102/102
f 104/104/104 103/103/103 102/102/102
f 100/100/100 101/101/101 105/105/105
f 100/100/100 105/105/105 102/102/102
f 102/102/102 105/105/105 104/104/104
f 101/101/101 106/106/106 105/105/105
f 105/105/105 107/107/107 104/104/104
f 105/105/105 106/106/106 107/107/107
f 106/106/106 108/108/108 107/107/107
f 111/111/111 110/110/110 109/109/109
f 112/112/112 111/111/111 109/109/109
f 112/112/112 113/113/113 111/111/111
f 109/109/109 114/114/114 112/112/112
f 114/114/114 115/115/115 112/112/112
f 109/109/109 116/116/116 114/114/114
f 116/116/116 117/117/117 114/114/114
f 109/109/109 118/118/118 116/116/116
f 121/121/121 120/120/120 119/119/119
f 119/119/119 122/122/122 121/121/121
f 119/119/119 123/123/123 122/122/122
f 119/119/119 124/124/124 123/123/123
f 124/124/124 125/125/125 123/123/123
f 119/119/119 126/126/126 124/124/124
f 126/126/126 127/127/127 124/124/124
f 119/119/119 128/128/128 126/126/126
f 131/131/131 130/130/130 129/129/129
f 132/132/132 131/131/131 129/129/129
f 132/132/132 133/133/133 131/131/131
f 129/129/129 134/134/134 132/132/132
f 129/129/129 135/135/135 134/134/134
f 132/132/132 134/134/134 136/136/136
f 132/132/132 136/136/136 137/137/137
f 137/137/137 138/138/138 132/132/132
f 141/141/141 140/140/140 139/139/139
f 141/141/141 139/139/139 142/142/142
f 141/141/141 142/142/142 143/143/143
f 143/143/143 144/144/144 141/141/141
f 143/143/143 145/145/145 144/144/144
f 144/144/144 146/146/146 141/141/141
f 144/144/144 147/147/147 146/146/146
f 144/144/144 148/148/148 147/147/147
