g Glow
v -10.52859 -1.537369 -2.052098
v -11.01267 0.4647578 -0.7300665
v -11.01267 -1.537368 -0.7300658
v -10.52859 0.4647574 -2.052099
v -7.005507 0.4647551 -8.127019
v -7.005507 -1.537371 -8.127018
v -6.098453 -1.537372 -9.203756
v -6.098453 0.4647547 -9.203756
v -4.877835 -1.537372 -9.905329
v -4.877835 0.4647544 -9.90533
v -3.490877 -1.537372 -10.14712
v -3.490877 0.4647543 -10.14712
v 3.531699 0.4647542 -10.1335
v 3.531699 -1.537372 -10.1335
v 4.917708 -1.537372 -9.886337
v 4.917708 0.4647542 -9.886337
v 6.135596 -1.537372 -9.180037
v 6.135596 0.4647545 -9.180037
v 7.038468 -1.537372 -8.09979
v 7.038468 0.4647548 -8.09979
v 10.53796 0.4647569 -2.011254
v 10.53796 -1.537369 -2.011254
v 11.01692 -1.537369 -0.6873531
v 11.01692 0.4647574 -0.6873538
v -11.01267 -1.537368 -0.7300658
v -11.01267 0.4647578 -0.7300665
v -11.0154 0.4647583 0.6778059
v -11.0154 -1.537368 0.6778066
v -10.53644 0.4647588 2.001707
v -10.53644 -1.537367 2.001708
v -7.036949 -1.537365 8.090243
v -7.036949 0.4647609 8.090243
v -6.134076 0.4647613 9.17049
v -6.134076 -1.537365 9.170491
v -4.916188 0.4647615 9.876791
v -4.916188 -1.537365 9.876791
v -3.530178 0.4647616 10.12395
v -3.530178 -1.537365 10.12395
v 3.492398 -1.537365 10.13757
v 3.492398 0.4647614 10.13757
v 4.879355 0.4647613 9.895784
v 4.879355 -1.537365 9.895785
v 6.099973 0.464761 9.194212
v 6.099973 -1.537365 9.194213
v 7.007027 0.4647606 8.117474
v 7.007027 -1.537366 8.117475
v 10.53011 -1.537368 2.042553
v 10.53011 0.4647584 2.042553
v 11.01419 0.4647579 0.7205195
v 11.01419 -1.537368 0.7205202
v 11.01692 0.4647574 -0.6873538
v 11.01692 -1.537369 -0.6873531
vt 0.02185059 0.04959106
vt -5.960464E-08 0.9868164
vt -5.960464E-08 0.04959106
vt 0.02185059 0.9868164
vt 0.1812744 0.9868164
vt 0.1812744 0.04959106
vt 0.22229 0.04959106
vt 0.22229 0.9868164
vt 0.2775879 0.04959106
vt 0.2775879 0.9868164
vt 0.3405762 0.04959106
vt 0.3405762 0.9868164
vt 0.6591797 0.9868164
vt 0.6591797 0.04959106
vt 0.722168 0.04959106
vt 0.722168 0.9868164
vt 0.777832 0.04959106
vt 0.777832 0.9868164
vt 0.8188477 0.04959106
vt 0.8188477 0.9868164
vt 0.9780273 0.9868164
vt 0.9780273 0.04959106
vt 1 0.04959106
vt 1 0.9868164
vt -5.960464E-08 0.04959106
vt -5.960464E-08 0.9868164
vt 0 0.9868164
vt 0 0.04959106
vt 0.02185059 0.9868164
vt 0.02185059 0.04959106
vt 0.1812744 0.04959106
vt 0.1812744 0.9868164
vt 0.22229 0.9868164
vt 0.22229 0.04959106
vt 0.2775879 0.9868164
vt 0.2775879 0.04959106
vt 0.3405762 0.9868164
vt 0.3405762 0.04959106
vt 0.6591797 0.04959106
vt 0.6591797 0.9868164
vt 0.722168 0.9868164
vt 0.722168 0.04959106
vt 0.777832 0.9868164
vt 0.777832 0.04959106
vt 0.8188477 0.9868164
vt 0.8188477 0.04959106
vt 0.9780273 0.04959106
vt 0.9780273 0.9868164
vt 1 0.9868164
vt 1 0.04959106
vt 1 0.9868164
vt 1 0.04959106
vn -0.9052734 0 -0.4243164
vn -0.984375 0 -0.1755371
vn -0.984375 0 -0.1755371
vn -0.9052734 0 -0.4243164
vn -0.8178711 0 -0.5751953
vn -0.8178711 0 -0.5751953
vn -0.6411133 0 -0.7670898
vn -0.6411133 0 -0.7670898
vn -0.3400879 0 -0.9404297
vn -0.3400879 0 -0.9404297
vn -0.08520508 0 -0.996582
vn -0.08520508 0 -0.996582
vn 0.08911133 0 -0.9960938
vn 0.08911133 0 -0.9960938
vn 0.34375 0 -0.9389648
vn 0.34375 0 -0.9389648
vn 0.644043 0 -0.7646484
vn 0.644043 0 -0.7646484
vn 0.8203125 0 -0.5717773
vn 0.8203125 0 -0.5717773
vn 0.9072266 0 -0.4208984
vn 0.9072266 0 -0.4208984
vn 0.9853516 0 -0.1717529
vn 0.9853516 0 -0.1717529
vn -0.984375 0 -0.1755371
vn -0.984375 0 -0.1755371
vn -0.9853516 0 0.1717529
vn -0.9853516 0 0.1717529
vn -0.9072266 0 0.4208984
vn -0.9072266 0 0.4208984
vn -0.8203125 0 0.5717773
vn -0.8203125 0 0.5717773
vn -0.644043 0 0.7646484
vn -0.644043 0 0.7646484
vn -0.34375 0 0.9389648
vn -0.34375 0 0.9389648
vn -0.08911133 0 0.9960938
vn -0.08911133 0 0.9960938
vn 0.08520508 0 0.996582
vn 0.08520508 0 0.996582
vn 0.3400879 0 0.9404297
vn 0.3400879 0 0.9404297
vn 0.6411133 0 0.7670898
vn 0.6411133 0 0.7670898
vn 0.8178711 0 0.5751953
vn 0.8178711 0 0.5751953
vn 0.9052734 0 0.4243164
vn 0.9052734 0 0.4243164
vn 0.984375 0 0.1755371
vn 0.984375 0 0.1755371
vn 0.9853516 0 -0.1717529
vn 0.9853516 0 -0.1717529
g Glow_0
f 3/3/3 2/2/2 1/1/1
f 2/2/2 4/4/4 1/1/1
f 1/1/1 4/4/4 5/5/5
f 6/6/6 1/1/1 5/5/5
f 6/6/6 5/5/5 7/7/7
f 5/5/5 8/8/8 7/7/7
f 7/7/7 8/8/8 9/9/9
f 8/8/8 10/10/10 9/9/9
f 9/9/9 10/10/10 11/11/11
f 10/10/10 12/12/12 11/11/11
f 11/11/11 12/12/12 13/13/13
f 14/14/14 11/11/11 13/13/13
f 14/14/14 13/13/13 15/15/15
f 13/13/13 16/16/16 15/15/15
f 15/15/15 16/16/16 17/17/17
f 16/16/16 18/18/18 17/17/17
f 17/17/17 18/18/18 19/19/19
f 18/18/18 20/20/20 19/19/19
f 19/19/19 20/20/20 21/21/21
f 22/22/22 19/19/19 21/21/21
f 22/22/22 21/21/21 23/23/23
f 21/21/21 24/24/24 23/23/23
f 27/27/27 26/26/26 25/25/25
f 28/28/28 27/27/27 25/25/25
f 29/29/29 27/27/27 28/28/28
f 30/30/30 29/29/29 28/28/28
f 30/30/30 31/31/31 29/29/29
f 31/31/31 32/32/32 29/29/29
f 33/33/33 32/32/32 31/31/31
f 34/34/34 33/33/33 31/31/31
f 35/35/35 33/33/33 34/34/34
f 36/36/36 35/35/35 34/34/34
f 37/37/37 35/35/35 36/36/36
f 38/38/38 37/37/37 36/36/36
f 38/38/38 39/39/39 37/37/37
f 39/39/39 40/40/40 37/37/37
f 41/41/41 40/40/40 39/39/39
f 42/42/42 41/41/41 39/39/39
f 43/43/43 41/41/41 42/42/42
f 44/44/44 43/43/43 42/42/42
f 45/45/45 43/43/43 44/44/44
f 46/46/46 45/45/45 44/44/44
f 46/46/46 47/47/47 45/45/45
f 47/47/47 48/48/48 45/45/45
f 49/49/49 48/48/48 47/47/47
f 50/50/50 49/49/49 47/47/47
f 51/51/51 49/49/49 50/50/50
f 52/52/52 51/51/51 50/50/50
