g Glow
v -11.16165 -0.6864345 -1.52353
v -11.18362 0.02424088 -1.526492
v -11.1376 0.0241606 0.1519403
v -11.11469 -0.6688389 0.1548
v -10.94156 -1.362529 -1.526492
v -10.90027 -1.328228 0.15194
v -6.634935 -8.745538 0.1519388
v -6.685351 -8.763973 -1.526494
v -6.195432 -9.274929 -1.524287
v -6.157206 -9.243946 0.1540736
v -5.608526 -9.67071 -1.526494
v -5.585445 -9.630893 0.1519387
v -4.978829 -9.998143 -1.523816
v -4.970721 -9.949011 0.1545252
v -4.28652 -10.15447 -1.526494
v -4.295578 -10.10155 0.1519386
v 4.260665 -10.11632 0.151938
v 4.251425 -10.1692 -1.526495
v 4.937393 -10.0173 -1.523837
v 4.929658 -9.96818 0.154509
v 5.575093 -9.690012 -1.526495
v 5.55215 -9.650116 0.1519379
v 6.17541 -9.310671 -1.523726
v 6.136838 -9.278988 0.1546114
v 6.655043 -8.787 -1.526495
v 6.604689 -8.768388 0.151938
v 10.8956 -1.365847 0.1519388
v 10.93678 -1.400291 -1.526494
v 11.1405 -0.7216294 -1.524103
v 11.09435 -0.7039878 0.1542515
v 11.18362 -0.01436524 -1.526494
v 11.1376 -0.01428514 0.1519389
v 11.13504 0.6698686 -1.524441
v 11.18362 -0.01436524 -1.526494
v 11.1376 -0.01428514 0.1519389
v 11.08904 0.65295 0.1539213
v 10.94156 1.372405 -1.526494
v 10.90027 1.338103 0.151939
v 6.634933 8.755411 0.1519403
v 6.685349 8.773848 -1.526492
v 6.207552 9.299204 -1.523734
v 6.168958 9.267753 0.1546089
v 5.608524 9.680584 -1.526492
v 5.585445 9.640767 0.1519405
v 4.968029 9.978505 -1.524735
v 4.960292 9.930307 0.153637
v 4.286519 10.16434 -1.526492
v 4.295577 10.11143 0.1519406
v -4.260668 10.12619 0.1519412
v -4.251427 10.17908 -1.526491
v -4.952983 10.04921 -1.523071
v -4.944783 9.999394 0.1552502
v -5.575095 9.699886 -1.526492
v -5.552152 9.65999 0.1519413
v -6.191006 9.339195 -1.522998
v -6.151896 9.306833 0.1553127
v -6.655044 8.796874 -1.526492
v -6.604691 8.77826 0.151941
v -10.93678 1.410166 -1.526492
v -10.8956 1.375723 0.1519404
v -11.15902 0.7348051 -1.52355
v -11.11229 0.7170762 0.1547867
v -11.18362 0.02424088 -1.526492
v -11.1376 0.0241606 0.1519403
vt 0.005462646 0.04959106
vt 0 0.04959106
vt 0 0.9868164
vt 0.005462646 0.9868164
vt 0.01092529 0.04959106
vt 0.01092529 0.9868164
vt 0.2017822 0.9868164
vt 0.2017822 0.04959106
vt 0.2259521 0.04959106
vt 0.2259521 0.9868164
vt 0.25 0.04959106
vt 0.25 0.9868164
vt 0.279541 0.04959106
vt 0.279541 0.9868164
vt 0.309082 0.04959106
vt 0.309082 0.9868164
vt 0.690918 0.9868164
vt 0.690918 0.04959106
vt 0.7202148 0.04959106
vt 0.7202148 0.9868164
vt 0.75 0.04959106
vt 0.75 0.9868164
vt 0.7739258 0.04959106
vt 0.7739258 0.9868164
vt 0.7983398 0.04959106
vt 0.7983398 0.9868164
vt 0.9892578 0.9868164
vt 0.9892578 0.04959106
vt 0.9946289 0.04959106
vt 0.9946289 0.9868164
vt 1 0.04959106
vt 1 0.9868164
vt 0.9946289 0.04959106
vt 1 0.04959106
vt 1 0.9868164
vt 0.9946289 0.9868164
vt 0.9892578 0.04959106
vt 0.9892578 0.9868164
vt 0.7983398 0.9868164
vt 0.7983398 0.04959106
vt 0.7739258 0.04959106
vt 0.7739258 0.9868164
vt 0.75 0.04959106
vt 0.75 0.9868164
vt 0.7202148 0.04959106
vt 0.7202148 0.9868164
vt 0.690918 0.04959106
vt 0.690918 0.9868164
vt 0.309082 0.9868164
vt 0.309082 0.04959106
vt 0.279541 0.04959106
vt 0.279541 0.9868164
vt 0.25 0.04959106
vt 0.25 0.9868164
vt 0.2259521 0.04959106
vt 0.2259521 0.9868164
vt 0.2017822 0.04959106
vt 0.2017822 0.9868164
vt 0.01092529 0.04959106
vt 0.01092529 0.9868164
vt 0.005462646 0.04959106
vt 0.005462646 0.9868164
vt 0 0.04959106
vt 0 0.9868164
vn -0.984375 -0.1728516 0.02909851
vn -0.9995117 0.001788139 0.02783203
vn -0.9995117 0.001788139 0.02783203
vn -0.9848633 -0.171875 0.02908325
vn -0.9130859 -0.4067383 0.0308075
vn -0.9135742 -0.4052734 0.03079224
vn -0.7993164 -0.6000977 0.03057861
vn -0.800293 -0.5986328 0.03059387
vn -0.6445313 -0.7641602 0.02862549
vn -0.644043 -0.7646484 0.02862549
vn -0.5107422 -0.859375 0.02778625
vn -0.5107422 -0.859375 0.02778625
vn -0.3427734 -0.9389648 0.02893066
vn -0.3435059 -0.9384766 0.02891541
vn -0.1108398 -0.9931641 0.0307312
vn -0.1123657 -0.9931641 0.03071594
vn 0.1085205 -0.9936523 0.03070068
vn 0.1070557 -0.9936523 0.03071594
vn 0.3381348 -0.9404297 0.02890015
vn 0.3391113 -0.9404297 0.02888489
vn 0.4958496 -0.8681641 0.02781677
vn 0.4958496 -0.8681641 0.02781677
vn 0.6420898 -0.7661133 0.02897644
vn 0.6411133 -0.7666016 0.02897644
vn 0.8061523 -0.5908203 0.03076172
vn 0.8051758 -0.5922852 0.03074646
vn 0.9174805 -0.3962402 0.03063965
vn 0.9169922 -0.3977051 0.03065491
vn 0.9838867 -0.1761475 0.0287323
vn 0.9838867 -0.175293 0.0287323
vn 0.9995117 0.005004883 0.027771
vn 0.9995117 0.005004883 0.027771
vn 0.9848633 0.1696777 0.02854919
vn 0.9995117 0.005004883 0.027771
vn 0.9995117 0.005004883 0.027771
vn 0.9853516 0.1690674 0.02853394
vn 0.921875 0.3857422 0.03056335
vn 0.9228516 0.3842773 0.0305481
vn 0.8071289 0.5893555 0.0307312
vn 0.8081055 0.5883789 0.0307312
vn 0.6445313 0.7641602 0.02894592
vn 0.644043 0.7646484 0.02893066
vn 0.4802246 0.8764648 0.027771
vn 0.4802246 0.8764648 0.027771
vn 0.3427734 0.9389648 0.02839661
vn 0.3432617 0.9389648 0.02839661
vn 0.1325684 0.9907227 0.03050232
vn 0.1342773 0.9902344 0.03048706
vn -0.09112549 0.9956055 0.03088379
vn -0.08984375 0.9956055 0.03089905
vn -0.3393555 0.9404297 0.02932739
vn -0.340332 0.9399414 0.02931213
vn -0.4973145 0.8671875 0.02787781
vn -0.4973145 0.8671875 0.02787781
vn -0.6420898 0.7661133 0.02941895
vn -0.6411133 0.7670898 0.02940369
vn -0.815918 0.5776367 0.03094482
vn -0.8149414 0.5786133 0.03092957
vn -0.9116211 0.409668 0.03077698
vn -0.9121094 0.4084473 0.03077698
vn -0.9838867 0.1761475 0.02905273
vn -0.9838867 0.1751709 0.02903748
vn -0.9995117 0.001788139 0.02783203
vn -0.9995117 0.001788139 0.02783203
g Glow_0
f 3/3/3 2/2/2 1/1/1
f 4/4/4 3/3/3 1/1/1
f 4/4/4 1/1/1 5/5/5
f 6/6/6 4/4/4 5/5/5
f 7/7/7 6/6/6 5/5/5
f 8/8/8 7/7/7 5/5/5
f 7/7/7 8/8/8 9/9/9
f 10/10/10 7/7/7 9/9/9
f 10/10/10 9/9/9 11/11/11
f 12/12/12 10/10/10 11/11/11
f 12/12/12 11/11/11 13/13/13
f 14/14/14 12/12/12 13/13/13
f 14/14/14 13/13/13 15/15/15
f 16/16/16 14/14/14 15/15/15
f 17/17/17 16/16/16 15/15/15
f 18/18/18 17/17/17 15/15/15
f 17/17/17 18/18/18 19/19/19
f 20/20/20 17/17/17 19/19/19
f 20/20/20 19/19/19 21/21/21
f 22/22/22 20/20/20 21/21/21
f 22/22/22 21/21/21 23/23/23
f 24/24/24 22/22/22 23/23/23
f 24/24/24 23/23/23 25/25/25
f 26/26/26 24/24/24 25/25/25
f 27/27/27 26/26/26 25/25/25
f 28/28/28 27/27/27 25/25/25
f 27/27/27 28/28/28 29/29/29
f 30/30/30 27/27/27 29/29/29
f 30/30/30 29/29/29 31/31/31
f 32/32/32 30/30/30 31/31/31
f 35/35/35 34/34/34 33/33/33
f 36/36/36 35/35/35 33/33/33
f 36/36/36 33/33/33 37/37/37
f 38/38/38 36/36/36 37/37/37
f 39/39/39 38/38/38 37/37/37
f 40/40/40 39/39/39 37/37/37
f 39/39/39 40/40/40 41/41/41
f 42/42/42 39/39/39 41/41/41
f 42/42/42 41/41/41 43/43/43
f 44/44/44 42/42/42 43/43/43
f 44/44/44 43/43/43 45/45/45
f 46/46/46 44/44/44 45/45/45
f 46/46/46 45/45/45 47/47/47
f 48/48/48 46/46/46 47/47/47
f 49/49/49 48/48/48 47/47/47
f 50/50/50 49/49/49 47/47/47
f 49/49/49 50/50/50 51/51/51
f 52/52/52 49/49/49 51/51/51
f 52/52/52 51/51/51 53/53/53
f 54/54/54 52/52/52 53/53/53
f 54/54/54 53/53/53 55/55/55
f 56/56/56 54/54/54 55/55/55
f 56/56/56 55/55/55 57/57/57
f 58/58/58 56/56/56 57/57/57
f 58/58/58 57/57/57 59/59/59
f 60/60/60 58/58/58 59/59/59
f 60/60/60 59/59/59 61/61/61
f 62/62/62 60/60/60 61/61/61
f 62/62/62 61/61/61 63/63/63
f 64/64/64 62/62/62 63/63/63
