g Glow
v -10.86435 2.066605 -2.134178
v -11.36665 2.066605 -0.7705343
v -11.36665 2.047375E-07 -0.7705338
v -10.86435 -2.124971E-07 -2.134177
v -7.215752 -1.678379E-06 -8.39773
v -7.215752 2.066603 -8.39773
v -6.277349 2.066603 -9.507339
v -6.277349 -1.9653E-06 -9.507339
v -5.016026 2.066603 -10.22908
v -5.016026 -2.116057E-06 -10.22908
v -3.583927 2.066603 -10.4759
v -3.583927 -2.246055E-06 -10.4759
v 3.664774 -2.36404E-06 -10.44789
v 3.664774 2.066603 -10.44789
v 5.09492 2.066603 -10.19001
v 5.09492 -2.233559E-06 -10.19001
v 6.350628 2.066603 -9.458546
v 6.350628 -2.082376E-06 -9.458546
v 7.28043 2.066603 -8.341718
v 7.28043 -1.795139E-06 -8.341718
v 10.88052 -2.088245E-07 -2.050158
v 10.88052 2.066605 -2.050158
v 11.37227 2.066605 -0.682673
v 11.37227 -2.984056E-08 -0.6826724
v -11.36665 2.047375E-07 -0.7705338
v -11.36665 2.066605 -0.7705343
v -11.37227 5.066777E-07 0.6826712
v -11.37227 2.066605 0.6826706
v -10.88052 6.856617E-07 2.050157
v -10.88052 2.066606 2.050157
v -7.280429 2.066607 8.341716
v -7.280429 2.271977E-06 8.341716
v -6.350627 2.559213E-06 9.458544
v -6.350627 2.066607 9.458544
v -5.094924 2.710396E-06 10.19001
v -5.094924 2.066607 10.19001
v -3.664773 2.840877E-06 10.44789
v -3.664773 2.066607 10.44789
v 3.583928 2.066607 10.4759
v 3.583928 2.722893E-06 10.4759
v 5.016027 2.592895E-06 10.22908
v 5.016027 2.066607 10.22908
v 6.27735 2.442137E-06 9.507339
v 6.27735 2.066607 9.507339
v 7.215753 2.155216E-06 8.39773
v 7.215753 2.066607 8.39773
v 10.86436 2.066606 2.134178
v 10.86436 6.893343E-07 2.134178
v 11.36665 2.720997E-07 0.7705348
v 11.36665 2.066605 0.7705343
v 11.37227 -2.984056E-08 -0.6826724
v 11.37227 2.066605 -0.682673
vt 0.02185059 0.9868164
vt -5.960464E-08 0.9868164
vt -5.960464E-08 0.04959106
vt 0.02185059 0.04959106
vt 0.1812744 0.04959106
vt 0.1812744 0.9868164
vt 0.22229 0.9868164
vt 0.22229 0.04959106
vt 0.2775879 0.9868164
vt 0.2775879 0.04959106
vt 0.3405762 0.9868164
vt 0.3405762 0.04959106
vt 0.6591797 0.04959106
vt 0.6591797 0.9868164
vt 0.722168 0.9868164
vt 0.722168 0.04959106
vt 0.777832 0.9868164
vt 0.777832 0.04959106
vt 0.8188477 0.9868164
vt 0.8188477 0.04959106
vt 0.9780273 0.04959106
vt 0.9780273 0.9868164
vt 1 0.9868164
vt 1 0.04959106
vt -5.960464E-08 0.04959106
vt -5.960464E-08 0.9868164
vt 0 0.04959106
vt 0 0.9868164
vt 0.02185059 0.04959106
vt 0.02185059 0.9868164
vt 0.1812744 0.9868164
vt 0.1812744 0.04959106
vt 0.22229 0.04959106
vt 0.22229 0.9868164
vt 0.2775879 0.04959106
vt 0.2775879 0.9868164
vt 0.3405762 0.04959106
vt 0.3405762 0.9868164
vt 0.6591797 0.9868164
vt 0.6591797 0.04959106
vt 0.722168 0.04959106
vt 0.722168 0.9868164
vt 0.777832 0.04959106
vt 0.777832 0.9868164
vt 0.8188477 0.04959106
vt 0.8188477 0.9868164
vt 0.9780273 0.9868164
vt 0.9780273 0.04959106
vt 1 0.04959106
vt 1 0.9868164
vt 1 0.04959106
vt 1 0.9868164
vn -0.9047852 0 -0.4260254
vn -0.9838867 0 -0.1774902
vn -0.9838867 0 -0.1774902
vn -0.9047852 0 -0.4260254
vn -0.8168945 0 -0.5766602
vn -0.8168945 0 -0.5766602
vn -0.6396484 0 -0.7685547
vn -0.6396484 0 -0.7685547
vn -0.3383789 0 -0.940918
vn -0.3383789 0 -0.940918
vn -0.08331299 0 -0.996582
vn -0.08331299 0 -0.996582
vn 0.09100342 0 -0.9960938
vn 0.09100342 0 -0.9960938
vn 0.3457031 0 -0.9384766
vn 0.3457031 0 -0.9384766
vn 0.6455078 0 -0.7636719
vn 0.6455078 0 -0.7636719
vn 0.8212891 0 -0.5703125
vn 0.8212891 0 -0.5703125
vn 0.9077148 0 -0.4191895
vn 0.9077148 0 -0.4191895
vn 0.9853516 0 -0.1697998
vn 0.9853516 0 -0.1697998
vn -0.9838867 0 -0.1774902
vn -0.9838867 0 -0.1774902
vn -0.9853516 0 0.1697998
vn -0.9853516 0 0.1697998
vn -0.9077148 0 0.4191895
vn -0.9077148 0 0.4191895
vn -0.8212891 0 0.5703125
vn -0.8212891 0 0.5703125
vn -0.6455078 0 0.7636719
vn -0.6455078 0 0.7636719
vn -0.3457031 0 0.9384766
vn -0.3457031 0 0.9384766
vn -0.09100342 0 0.9960938
vn -0.09100342 0 0.9960938
vn 0.08331299 0 0.996582
vn 0.08331299 0 0.996582
vn 0.3383789 0 0.940918
vn 0.3383789 0 0.940918
vn 0.6396484 0 0.7685547
vn 0.6396484 0 0.7685547
vn 0.8168945 0 0.5766602
vn 0.8168945 0 0.5766602
vn 0.9047852 0 0.4260254
vn 0.9047852 0 0.4260254
vn 0.9838867 0 0.1774902
vn 0.9838867 0 0.1774902
vn 0.9853516 0 -0.1697998
vn 0.9853516 0 -0.1697998
g Glow_0
f 3/3/3 2/2/2 1/1/1
f 3/3/3 1/1/1 4/4/4
f 5/5/5 4/4/4 1/1/1
f 5/5/5 1/1/1 6/6/6
f 5/5/5 6/6/6 7/7/7
f 5/5/5 7/7/7 8/8/8
f 8/8/8 7/7/7 9/9/9
f 8/8/8 9/9/9 10/10/10
f 10/10/10 9/9/9 11/11/11
f 10/10/10 11/11/11 12/12/12
f 13/13/13 12/12/12 11/11/11
f 13/13/13 11/11/11 14/14/14
f 13/13/13 14/14/14 15/15/15
f 13/13/13 15/15/15 16/16/16
f 16/16/16 15/15/15 17/17/17
f 16/16/16 17/17/17 18/18/18
f 18/18/18 17/17/17 19/19/19
f 18/18/18 19/19/19 20/20/20
f 21/21/21 20/20/20 19/19/19
f 21/21/21 19/19/19 22/22/22
f 21/21/21 22/22/22 23/23/23
f 21/21/21 23/23/23 24/24/24
f 27/27/27 26/26/26 25/25/25
f 27/27/27 28/28/28 26/26/26
f 29/29/29 28/28/28 27/27/27
f 29/29/29 30/30/30 28/28/28
f 29/29/29 31/31/31 30/30/30
f 29/29/29 32/32/32 31/31/31
f 33/33/33 31/31/31 32/32/32
f 33/33/33 34/34/34 31/31/31
f 35/35/35 34/34/34 33/33/33
f 35/35/35 36/36/36 34/34/34
f 37/37/37 36/36/36 35/35/35
f 37/37/37 38/38/38 36/36/36
f 37/37/37 39/39/39 38/38/38
f 37/37/37 40/40/40 39/39/39
f 41/41/41 39/39/39 40/40/40
f 41/41/41 42/42/42 39/39/39
f 43/43/43 42/42/42 41/41/41
f 43/43/43 44/44/44 42/42/42
f 45/45/45 44/44/44 43/43/43
f 45/45/45 46/46/46 44/44/44
f 45/45/45 47/47/47 46/46/46
f 45/45/45 48/48/48 47/47/47
f 49/49/49 47/47/47 48/48/48
f 49/49/49 50/50/50 47/47/47
f 51/51/51 50/50/50 49/49/49
f 51/51/51 52/52/52 50/50/50
