g Glow
v -11.15923 -1.676503 0.6914424
v -11.1812 -1.679466 -0.01923303
v -11.13518 0.4250024 -0.01915262
v -11.11228 0.4278621 0.6738468
v -10.93914 -1.679466 1.367537
v -10.89785 0.425002 1.333236
v -6.63252 0.4250003 8.750546
v -6.682935 -1.679468 8.768981
v -6.193016 -1.677261 9.279937
v -6.15479 0.427135 9.248954
v -5.606111 -1.679468 9.675717
v -5.58303 0.4250001 9.6359
v -4.976413 -1.67679 10.00315
v -4.968305 0.4275866 9.954019
v -4.284104 -1.679468 10.15947
v -4.293162 0.425 10.10656
v 4.263081 0.4249994 10.12133
v 4.25384 -1.679469 10.17421
v 4.939809 -1.676811 10.0223
v 4.932074 0.4275704 9.973187
v 5.577509 -1.679469 9.69502
v 5.554565 0.4249994 9.655124
v 6.177825 -1.6767 9.315679
v 6.139254 0.4276728 9.283996
v 6.657458 -1.679469 8.792007
v 6.607104 0.4249995 8.773396
v 10.89802 0.4250008 1.370855
v 10.93919 -1.679467 1.405298
v 11.14291 -1.677076 0.7266373
v 11.09677 0.4273136 0.7089958
v 11.18604 -1.679467 0.0193731
v 11.14001 0.4250011 0.01929312
v 11.13745 -1.677415 -0.6648607
v 11.18604 -1.679467 0.0193731
v 11.14001 0.4250011 0.01929312
v 11.09146 0.4269835 -0.647942
v 10.94398 -1.679467 -1.367397
v 10.90268 0.4250013 -1.333095
v 6.637349 0.4250031 -8.750403
v 6.687765 -1.679465 -8.76884
v 6.209968 -1.676706 -9.294196
v 6.171373 0.4276717 -9.262745
v 5.61094 -1.679465 -9.675576
v 5.587861 0.4250033 -9.635759
v 4.970444 -1.677708 -9.973497
v 4.962708 0.4266999 -9.9253
v 4.288934 -1.679465 -10.15933
v 4.297992 0.4250035 -10.10642
v -4.258252 0.4250041 -10.12119
v -4.249011 -1.679464 -10.17407
v -4.950567 -1.676043 -10.0442
v -4.942368 0.4283131 -9.994387
v -5.57268 -1.679464 -9.694879
v -5.549736 0.4250042 -9.654983
v -6.18859 -1.67597 -9.334188
v -6.14948 0.4283755 -9.301826
v -6.652628 -1.679464 -8.791866
v -6.602275 0.4250038 -8.773252
v -10.93436 -1.679465 -1.405158
v -10.89318 0.4250027 -1.370715
v -11.15661 -1.676523 -0.7297972
v -11.10988 0.4278489 -0.7120682
v -11.1812 -1.679466 -0.01923303
v -11.13518 0.4250024 -0.01915262
vt 0.005462646 0.04959106
vt 0 0.04959106
vt 0 0.9868164
vt 0.005462646 0.9868164
vt 0.01092529 0.04959106
vt 0.01092529 0.9868164
vt 0.2017822 0.9868164
vt 0.2017822 0.04959106
vt 0.2259521 0.04959106
vt 0.2259521 0.9868164
vt 0.25 0.04959106
vt 0.25 0.9868164
vt 0.279541 0.04959106
vt 0.279541 0.9868164
vt 0.309082 0.04959106
vt 0.309082 0.9868164
vt 0.690918 0.9868164
vt 0.690918 0.04959106
vt 0.7202148 0.04959106
vt 0.7202148 0.9868164
vt 0.75 0.04959106
vt 0.75 0.9868164
vt 0.7739258 0.04959106
vt 0.7739258 0.9868164
vt 0.7983398 0.04959106
vt 0.7983398 0.9868164
vt 0.9892578 0.9868164
vt 0.9892578 0.04959106
vt 0.9946289 0.04959106
vt 0.9946289 0.9868164
vt 1 0.04959106
vt 1 0.9868164
vt 0.9946289 0.04959106
vt 1 0.04959106
vt 1 0.9868164
vt 0.9946289 0.9868164
vt 0.9892578 0.04959106
vt 0.9892578 0.9868164
vt 0.7983398 0.9868164
vt 0.7983398 0.04959106
vt 0.7739258 0.04959106
vt 0.7739258 0.9868164
vt 0.75 0.04959106
vt 0.75 0.9868164
vt 0.7202148 0.04959106
vt 0.7202148 0.9868164
vt 0.690918 0.04959106
vt 0.690918 0.9868164
vt 0.309082 0.9868164
vt 0.309082 0.04959106
vt 0.279541 0.04959106
vt 0.279541 0.9868164
vt 0.25 0.04959106
vt 0.25 0.9868164
vt 0.2259521 0.04959106
vt 0.2259521 0.9868164
vt 0.2017822 0.04959106
vt 0.2017822 0.9868164
vt 0.01092529 0.04959106
vt 0.01092529 0.9868164
vt 0.005462646 0.04959106
vt 0.005462646 0.9868164
vt 0 0.04959106
vt 0 0.9868164
vn -0.9848633 0.02320862 0.1727295
vn -0.9995117 0.02220154 -0.001789093
vn -0.9995117 0.02220154 -0.001789093
vn -0.9848633 0.02320862 0.1719971
vn -0.9130859 0.02456665 0.4064941
vn -0.9135742 0.02456665 0.4055176
vn -0.7998047 0.0243988 0.6000977
vn -0.800293 0.02441406 0.5991211
vn -0.6445313 0.02284241 0.7641602
vn -0.644043 0.02282715 0.7646484
vn -0.5107422 0.02217102 0.859375
vn -0.5107422 0.02217102 0.859375
vn -0.3427734 0.02307129 0.9389648
vn -0.3435059 0.02307129 0.9389648
vn -0.1110229 0.02452087 0.9936523
vn -0.1122437 0.02450562 0.9931641
vn 0.1084595 0.02449036 0.9936523
vn 0.1071777 0.02450562 0.9941406
vn 0.3383789 0.02305603 0.940918
vn 0.3391113 0.02304077 0.9404297
vn 0.4958496 0.02218628 0.8681641
vn 0.4958496 0.02218628 0.8681641
vn 0.6420898 0.02311707 0.7666016
vn 0.6411133 0.02311707 0.7670898
vn 0.8061523 0.02453613 0.5913086
vn 0.8051758 0.02452087 0.5922852
vn 0.9174805 0.02442932 0.3964844
vn 0.9169922 0.02444458 0.3977051
vn 0.9838867 0.0229187 0.1760254
vn 0.984375 0.0229187 0.175415
vn 0.9995117 0.02215576 -0.005008698
vn 0.9995117 0.02215576 -0.005004883
vn 0.9853516 0.02276611 -0.1696777
vn 0.9995117 0.02215576 -0.005008698
vn 0.9995117 0.02215576 -0.005004883
vn 0.9853516 0.02276611 -0.1691895
vn 0.9223633 0.02436829 -0.3857422
vn 0.9228516 0.02436829 -0.3842773
vn 0.8076172 0.02450562 -0.5893555
vn 0.8081055 0.02452087 -0.5883789
vn 0.6445313 0.02308655 -0.7641602
vn 0.644043 0.02308655 -0.7646484
vn 0.4804688 0.0221405 -0.8769531
vn 0.4804688 0.0221405 -0.8769531
vn 0.3430176 0.02264404 -0.9389648
vn 0.3432617 0.02264404 -0.9389648
vn 0.1326904 0.02432251 -0.9907227
vn 0.1341553 0.02432251 -0.9907227
vn -0.09106445 0.02464294 -0.9956055
vn -0.08996582 0.02464294 -0.9956055
vn -0.3393555 0.02339172 -0.9404297
vn -0.340332 0.02339172 -0.9399414
vn -0.4975586 0.02223206 -0.8671875
vn -0.4975586 0.02223206 -0.8671875
vn -0.6420898 0.02346802 -0.7661133
vn -0.6411133 0.02346802 -0.7670898
vn -0.815918 0.02467346 -0.5776367
vn -0.8154297 0.02467346 -0.5786133
vn -0.9121094 0.02455139 -0.409668
vn -0.9125977 0.02455139 -0.4086914
vn -0.9838867 0.0231781 -0.1761475
vn -0.984375 0.02316284 -0.175415
vn -0.9995117 0.02220154 -0.001789093
vn -0.9995117 0.02220154 -0.001789093
g Glow_0
f 3/3/3 2/2/2 1/1/1
f 4/4/4 3/3/3 1/1/1
f 4/4/4 1/1/1 5/5/5
f 6/6/6 4/4/4 5/5/5
f 7/7/7 6/6/6 5/5/5
f 8/8/8 7/7/7 5/5/5
f 7/7/7 8/8/8 9/9/9
f 10/10/10 7/7/7 9/9/9
f 10/10/10 9/9/9 11/11/11
f 12/12/12 10/10/10 11/11/11
f 12/12/12 11/11/11 13/13/13
f 14/14/14 12/12/12 13/13/13
f 14/14/14 13/13/13 15/15/15
f 16/16/16 14/14/14 15/15/15
f 17/17/17 16/16/16 15/15/15
f 18/18/18 17/17/17 15/15/15
f 17/17/17 18/18/18 19/19/19
f 20/20/20 17/17/17 19/19/19
f 20/20/20 19/19/19 21/21/21
f 22/22/22 20/20/20 21/21/21
f 22/22/22 21/21/21 23/23/23
f 24/24/24 22/22/22 23/23/23
f 24/24/24 23/23/23 25/25/25
f 26/26/26 24/24/24 25/25/25
f 27/27/27 26/26/26 25/25/25
f 28/28/28 27/27/27 25/25/25
f 27/27/27 28/28/28 29/29/29
f 30/30/30 27/27/27 29/29/29
f 30/30/30 29/29/29 31/31/31
f 32/32/32 30/30/30 31/31/31
f 35/35/35 34/34/34 33/33/33
f 36/36/36 35/35/35 33/33/33
f 36/36/36 33/33/33 37/37/37
f 38/38/38 36/36/36 37/37/37
f 39/39/39 38/38/38 37/37/37
f 40/40/40 39/39/39 37/37/37
f 39/39/39 40/40/40 41/41/41
f 42/42/42 39/39/39 41/41/41
f 42/42/42 41/41/41 43/43/43
f 44/44/44 42/42/42 43/43/43
f 44/44/44 43/43/43 45/45/45
f 46/46/46 44/44/44 45/45/45
f 46/46/46 45/45/45 47/47/47
f 48/48/48 46/46/46 47/47/47
f 49/49/49 48/48/48 47/47/47
f 50/50/50 49/49/49 47/47/47
f 49/49/49 50/50/50 51/51/51
f 52/52/52 49/49/49 51/51/51
f 52/52/52 51/51/51 53/53/53
f 54/54/54 52/52/52 53/53/53
f 54/54/54 53/53/53 55/55/55
f 56/56/56 54/54/54 55/55/55
f 56/56/56 55/55/55 57/57/57
f 58/58/58 56/56/56 57/57/57
f 58/58/58 57/57/57 59/59/59
f 60/60/60 58/58/58 59/59/59
f 60/60/60 59/59/59 61/61/61
f 62/62/62 60/60/60 61/61/61
f 62/62/62 61/61/61 63/63/63
f 64/64/64 62/62/62 63/63/63
