g Ground
v -94.4582 11.08299 82.9021
v -28.05647 5.647196 113.5822
v -34.98762 -52.38271 111.1178
v -94.4582 11.08299 82.9021
v -34.98762 -52.38271 111.1178
v -103.3124 -46.77968 81.20291
v 55.6072 -2.385579 116.304
v 116.7615 -8.472005 80.69978
v 119.6218 -66.28182 77.9985
v 55.6072 -2.385579 116.304
v 119.6218 -66.28182 77.9985
v 49.42516 -60.4778 113.36
v 116.7615 -8.472005 80.69978
v 149.432 -9.939046 22.06065
v 140.6636 -67.76736 17.69457
v 116.7615 -8.472005 80.69978
v 140.6636 -67.76736 17.69457
v 119.6218 -66.28182 77.9985
v 134.1419 -7.074544 -38.2461
v 99.38174 -1.956258 -78.84852
v 92.27578 -60.00313 -79.21885
v 125.6047 -64.97775 -39.26682
v 99.38174 -1.956258 -78.84852
v 35.3168 4.525065 -117.483
v 29.79134 -53.67744 -117.3487
v 92.27578 -60.00313 -79.21885
v 35.3168 4.525065 -117.483
v -47.55671 11.36705 -132.0176
v -53.04633 -46.8315 -132.3406
v 29.79134 -53.67744 -117.3487
v -47.55671 11.36705 -132.0176
v -104.1719 15.9868 -90.31123
v -109.5494 -42.2156 -91.04273
v -53.04633 -46.8315 -132.3406
v -104.1719 15.9868 -90.31123
v -139.9265 18.43321 -34.30209
v -145.4954 -39.7444 -35.47149
v -109.5494 -42.2156 -91.04273
v -139.9265 18.43321 -34.30209
v -145.7908 16.22154 22.58065
v -155.8315 -41.53816 21.36775
v -145.4954 -39.7444 -35.47149
v -145.7908 16.22154 22.58065
v -94.4582 11.08299 82.9021
v -103.3124 -46.77968 81.20291
v -155.8315 -41.53816 21.36775
v -28.05647 5.647196 113.5822
v 55.6072 -2.385579 116.304
v 49.42516 -60.4778 113.36
v -34.98762 -52.38271 111.1178
v 149.432 -9.939046 22.06065
v 134.1419 -7.074544 -38.2461
v 125.6047 -64.97775 -39.26682
v 140.6636 -67.76736 17.69457
v -145.7908 16.22154 22.58065
v -139.9265 18.43321 -34.30209
v 4.990044 4.227397 8.840615
v -94.4582 11.08299 82.9021
v -104.1719 15.9868 -90.31123
v -28.05647 5.647196 113.5822
v -47.55671 11.36705 -132.0176
v 55.6072 -2.385579 116.304
v 35.3168 4.525065 -117.483
v 116.7615 -8.472005 80.69978
v 99.38174 -1.956258 -78.84852
v 149.432 -9.939046 22.06065
v 134.1419 -7.074544 -38.2461
vt 0.3479004 0.9584961
vt 0.3457031 0.9599609
vt 0.3459473 0.9599609
vt 0.3479004 0.9584961
vt 0.3459473 0.9599609
vt 0.3483887 0.9584961
vt 0.3427734 0.9599609
vt 0.3405762 0.9584961
vt 0.3405762 0.9584961
vt 0.3427734 0.9599609
vt 0.3405762 0.9584961
vt 0.3430176 0.9599609
vt 0.3405762 0.9584961
vt 0.3393555 0.9560547
vt 0.3398438 0.9555664
vt 0.3405762 0.9584961
vt 0.3398438 0.9555664
vt 0.3405762 0.9584961
vt 0.3398438 0.953125
vt 0.3410645 0.9516602
vt 0.3415527 0.9516602
vt 0.340332 0.953125
vt 0.3410645 0.9516602
vt 0.3435059 0.949707
vt 0.3435059 0.949707
vt 0.3415527 0.9516602
vt 0.3435059 0.949707
vt 0.3461914 0.9492188
vt 0.3464355 0.9492188
vt 0.3435059 0.949707
vt 0.3461914 0.9492188
vt 0.3483887 0.9511719
vt 0.3483887 0.9511719
vt 0.3464355 0.9492188
vt 0.3483887 0.9511719
vt 0.3496094 0.9536133
vt 0.3498535 0.9536133
vt 0.3483887 0.9511719
vt 0.3496094 0.9536133
vt 0.3498535 0.9560547
vt 0.3500977 0.9560547
vt 0.3498535 0.9536133
vt 0.3498535 0.9560547
vt 0.3479004 0.9584961
vt 0.3483887 0.9584961
vt 0.3500977 0.9560547
vt 0.3457031 0.9599609
vt 0.3427734 0.9599609
vt 0.3430176 0.9599609
vt 0.3459473 0.9599609
vt 0.3393555 0.9560547
vt 0.3398438 0.953125
vt 0.340332 0.953125
vt 0.3398438 0.9555664
vt 0.3498535 0.9560547
vt 0.3496094 0.9536133
vt 0.3444824 0.9555664
vt 0.3479004 0.9584961
vt 0.3483887 0.9511719
vt 0.3457031 0.9599609
vt 0.3461914 0.9492188
vt 0.3427734 0.9599609
vt 0.3435059 0.949707
vt 0.3405762 0.9584961
vt 0.3410645 0.9516602
vt 0.3393555 0.9560547
vt 0.3398438 0.953125
vn -0.4084473 0.02285767 0.9125977
vn -0.4084473 0.02285767 0.9125977
vn -0.4084473 0.02285767 0.9125977
vn -0.4084473 0.02285767 0.9125977
vn -0.4084473 0.02285767 0.9125977
vn -0.4084473 0.02285767 0.9125977
vn 0.4707031 -0.05636597 0.8803711
vn 0.4707031 -0.05636597 0.8803711
vn 0.4707031 -0.05636597 0.8803711
vn 0.4707031 -0.05636597 0.8803711
vn 0.4707031 -0.05636597 0.8803711
vn 0.4707031 -0.05636597 0.8803711
vn 0.9082031 -0.07159424 0.4118652
vn 0.9082031 -0.07159424 0.4118652
vn 0.9082031 -0.07159424 0.4118652
vn 0.9082031 -0.07159424 0.4121094
vn 0.9082031 -0.07159424 0.4121094
vn 0.9082031 -0.07159424 0.4121094
vn 0.7543945 -0.09399414 -0.6494141
vn 0.7543945 -0.09399414 -0.6494141
vn 0.7543945 -0.09399414 -0.6494141
vn 0.7543945 -0.09399414 -0.6494141
vn 0.5136719 -0.05410767 -0.855957
vn 0.5136719 -0.05410767 -0.855957
vn 0.5136719 -0.05410767 -0.855957
vn 0.5136719 -0.05407715 -0.855957
vn 0.1741943 -0.01486206 -0.984375
vn 0.1741943 -0.01486206 -0.984375
vn 0.1741943 -0.01486206 -0.984375
vn 0.1741943 -0.01491547 -0.984375
vn -0.5874023 0.06216431 -0.8071289
vn -0.5874023 0.06216431 -0.8071289
vn -0.5874023 0.06216431 -0.8071289
vn -0.5869141 0.06210327 -0.8071289
vn -0.8364258 0.08752441 -0.5410156
vn -0.8364258 0.08752441 -0.5410156
vn -0.8364258 0.08752441 -0.5410156
vn -0.8364258 0.08746338 -0.5415039
vn -0.9814453 0.1348877 -0.1351318
vn -0.9814453 0.1348877 -0.1351318
vn -0.9814453 0.1348877 -0.1351318
vn -0.9814453 0.1350098 -0.1350098
vn -0.7480469 0.1056519 0.6552734
vn -0.7480469 0.1056519 0.6552734
vn -0.7480469 0.1056519 0.6552734
vn -0.7480469 0.1057129 0.6552734
vn -0.03359985 -0.04272461 0.9985352
vn -0.03359985 -0.04272461 0.9985352
vn -0.03359985 -0.04272461 0.9985352
vn -0.03356934 -0.04269409 0.9985352
vn 0.9580078 -0.1314697 -0.2543945
vn 0.9580078 -0.1314697 -0.2543945
vn 0.9580078 -0.1314697 -0.2543945
vn 0.9580078 -0.1314697 -0.2543945
vn 0.08227539 0.9960938 0.03341675
vn 0.08831787 0.9956055 0.03112793
vn 0.08996582 0.9956055 0.02102661
vn 0.0791626 0.996582 0.01400757
vn 0.09289551 0.9956055 0.01580811
vn 0.08569336 0.9960938 0.01352692
vn 0.08654785 0.9960938 0.01821899
vn 0.1011353 0.9946289 0.01358032
vn 0.08233643 0.996582 0.02210999
vn 0.0994873 0.9946289 0.02107239
vn 0.09350586 0.9951172 0.03048706
vn 0.09527588 0.9951172 0.02548218
vn 0.09777832 0.9946289 0.02940369
g Ground_0
f 3/3/3 2/2/2 1/1/1
f 6/6/6 5/5/5 4/4/4
f 9/9/9 8/8/8 7/7/7
f 12/12/12 11/11/11 10/10/10
f 15/15/15 14/14/14 13/13/13
f 18/18/18 17/17/17 16/16/16
f 21/21/21 20/20/20 19/19/19
f 22/22/22 21/21/21 19/19/19
f 25/25/25 24/24/24 23/23/23
f 26/26/26 25/25/25 23/23/23
f 29/29/29 28/28/28 27/27/27
f 30/30/30 29/29/29 27/27/27
f 33/33/33 32/32/32 31/31/31
f 34/34/34 33/33/33 31/31/31
f 37/37/37 36/36/36 35/35/35
f 38/38/38 37/37/37 35/35/35
f 41/41/41 40/40/40 39/39/39
f 42/42/42 41/41/41 39/39/39
f 45/45/45 44/44/44 43/43/43
f 46/46/46 45/45/45 43/43/43
f 49/49/49 48/48/48 47/47/47
f 50/50/50 49/49/49 47/47/47
f 53/53/53 52/52/52 51/51/51
f 54/54/54 53/53/53 51/51/51
f 57/57/57 56/56/56 55/55/55
f 57/57/57 55/55/55 58/58/58
f 57/57/57 59/59/59 56/56/56
f 57/57/57 58/58/58 60/60/60
f 57/57/57 61/61/61 59/59/59
f 57/57/57 60/60/60 62/62/62
f 57/57/57 63/63/63 61/61/61
f 57/57/57 62/62/62 64/64/64
f 57/57/57 65/65/65 63/63/63
f 57/57/57 64/64/64 66/66/66
f 57/57/57 67/67/67 65/65/65
f 57/57/57 66/66/66 67/67/67
