g hair001
v -3.942618 4.673885 1.420896
v -4.704032 3.385111 1.947335
v -4.446701 3.916363 0.9057505
v -3.963036 4.334507 2.407568
v -4.55616 2.87753 2.740205
v -3.341341 5.25647 1.712821
v -5.241241 2.40017 1.418783
v -3.393824 5.001704 2.237053
v -2.823585 5.27881 2.582575
v -2.72462 5.747047 2.038151
v -2.076992 5.627306 2.986839
v -1.980702 6.1198 2.388846
v -1.195985 5.872283 3.268111
v -1.098219 6.284652 2.619103
v -0.1944614 6.235353 2.687393
v -0.2303319 5.895156 3.316293
v 0.7186368 6.294413 2.613767
v 0.7427084 5.937024 3.29051
v 1.67925 6.221899 2.422601
v 1.708675 5.770032 3.072675
v 2.602323 5.857555 2.095384
v 2.604179 5.391869 2.718214
v 3.358128 5.240362 1.692326
v 3.448132 4.882071 2.337415
v 4.026078 4.56254 1.166632
v 4.212723 4.216388 1.919631
v -1.24615 5.324949 3.83074
v -0.2592842 5.354265 3.873137
v 0.7235392 5.406048 3.864838
v 1.699092 5.28169 3.676233
v 2.55553 4.911768 3.287119
v 3.419312 4.495955 2.949808
v 4.172287 3.882011 2.622439
v 4.696308 3.02104 2.33086
v 4.759288 3.250812 1.493245
v 3.923456 3.531025 3.132041
v 3.339378 4.126163 3.489164
v 2.542413 4.49301 3.841419
v 1.667986 4.730145 4.204028
v 2.402774 3.925469 4.092545
v 4.968627 1.980676 2.23886
v 4.65958 2.144253 2.902266
v 5.387122 2.011827 1.14087
v 5.21655 1.087971 1.600695
v 5.659899 1.001068 0.2132253
v 3.096181 3.652472 3.740957
v 4.35257 2.8448 2.880685
v 3.624595 3.165822 3.433866
v 4.883974 1.342349 2.306236
v 4.041121 2.688639 3.238636
v 3.315336 2.889284 3.345896
v 2.789651 3.227195 3.587073
v 3.724664 2.446691 3.201565
v 4.120212 2.010866 3.187116
v 4.331471 2.299934 3.199707
v 4.509408 1.609061 2.91502
v 4.134907 1.491106 2.675518
v 3.428926 2.196188 2.988373
v 3.864328 1.806507 3.020855
v 3.060321 2.724032 3.165619
v 3.687525 1.607034 2.381842
v 2.611747 3.003987 3.245621
v 4.090734 1.170118 2.075008
v 4.455898 1.222102 2.170971
v 4.269209 0.7859892 1.594797
v 2.145432 3.483214 3.775989
v 2.001188 3.252372 3.331156
v 4.717925 0.8774286 1.648012
v 1.586103 4.101303 4.450352
v 1.396963 3.634956 3.963077
v 1.262997 3.39751 3.450135
v 5.455899 0.502019 0.994348
v 4.920198 0.3068495 1.308746
v 4.259236 0.400605 1.138032
v 4.175349 -0.3013088 0.5208263
v 4.943239 -0.6276857 0.9849873
v 4.039055 -1.355694 -0.04114245
v 5.86686 -0.4159591 0.7946156
v 5.898802 -0.1387977 -0.3505522
v 5.927725 -1.409985 -0.5477491
v 0.5752473 3.68802 4.063598
v 0.5301288 3.429164 3.529546
v 4.823692 -1.617166 0.4160847
v 3.9144 -2.457323 -0.2696021
v 5.662707 -1.635047 0.2811832
v 4.624458 -2.764619 0.2408008
v 3.792552 -3.550261 -0.8160525
v 5.756183 -2.868699 0.1805894
v 6.331167 -2.557264 -0.7809802
v 5.76574 -3.469546 -1.27806
v 5.56023 -4.088755 -0.4092471
v 4.489027 -3.86338 -0.2782706
v 4.950096 -4.876701 -1.305687
v 3.710333 -4.407228 -1.205262
v 4.223976 -4.770459 -0.9268759
v 4.408023 -5.554191 -2.063411
v 3.761413 -5.327926 -1.681158
v 3.440543 -5.020339 -1.685561
v 2.945939 -5.254802 -2.080089
v 3.133877 -5.585265 -2.347698
v 3.424159 -5.709462 -2.795809
v 2.097777 -5.340213 -2.454153
v 2.277373 -5.849252 -2.743178
v 2.543369 -6.154539 -3.332983
v 1.275606 -5.418733 -2.838306
v 1.458588 -5.73983 -3.219098
v 1.622928 -5.83227 -3.783459
v 0.7681029 -5.69045 -4.032279
v 0.5293617 -5.443107 -3.190807
v 0.6554859 -5.621139 -3.547813
v -0.1480514 -5.684819 -4.17128
v -0.1728385 -5.587867 -3.663422
v -0.11884 -5.443107 -3.356884
v -1.04268 -5.715378 -3.462742
v -1.120839 -5.776159 -4.069867
v -0.8726919 -5.442837 -3.042245
v -2.006548 -5.943994 -3.079306
v -2.149694 -6.017574 -3.885416
v -1.794623 -5.384037 -2.579579
v -3.143546 -5.76073 -2.599037
v -3.254047 -5.522919 -3.298066
v -3.17069 -5.240362 -1.97587
v -3.874084 -5.20637 -1.592064
v -4.173588 -5.641442 -2.011853
v -4.220985 -4.793406 -1.050449
v -3.682415 -4.504088 -1.259498
v -4.90747 -4.893782 -1.33989
v -4.501715 -4.010608 -0.3330122
v -3.792552 -3.675549 -0.8663421
v -5.435366 -4.139549 -0.491963
v -4.639025 -2.992636 0.1786806
v -3.88326 -2.673409 -0.383875
v -5.786871 -3.068873 0.2665101
v -5.671307 -3.594702 -1.331283
v -6.290397 -2.688093 -0.7107174
v -6.026727 -1.682068 -0.5676987
v -4.748686 -1.969117 0.1748529
v -3.982999 -1.822633 -0.170883
v -5.5577 -1.931969 0.1484406
v -5.687439 -1.016124 0.5171938
v -5.938426 -0.5715713 -0.4880562
v -4.801551 -1.06281 0.7074985
v -4.115454 -0.7675624 0.1814959
v -4.202562 0.1326524 0.8776867
v -5.729015 0.06742224 0.9195929
v -5.809 0.6009277 -0.08820585
v -5.511833 1.546972 0.5284034
v -4.88044 -0.1253939 1.1282
v -4.844069 0.6525431 1.476727
v -4.295178 0.6605736 1.420344
v -5.450173 0.901331 1.350071
v -5.231639 1.506965 1.951583
v -4.671577 1.123993 2.032259
v -4.169094 1.08892 1.919321
v -3.921666 1.495837 2.325204
v -4.205771 1.412289 2.620111
v -4.823699 2.23959 2.31884
v -4.588237 1.859716 2.444865
v -3.737997 2.06064 3.064835
v -3.446743 2.029495 2.777215
v -4.213602 2.448012 3.016856
v -3.340745 2.782233 3.257559
v -3.08392 2.656167 3.106363
v -3.684438 3.128553 3.396062
v -2.997588 3.622563 3.833351
v -2.737426 3.233533 3.609311
v -1.973334 3.540857 3.825509
v -2.564147 3.026507 3.251973
v -1.833984 3.285248 3.358105
v -1.02518 3.444267 3.488466
v -3.94093 3.685533 3.119051
v -3.027767 4.722735 3.056585
v -3.131065 4.209582 3.609192
v -2.143261 5.048117 3.503342
v -2.268447 4.599232 4.136544
v -2.168073 3.954016 4.217522
v -1.266997 4.73217 4.334219
v -1.251623 4.126405 4.520314
v -0.253413 4.832102 4.526558
v -1.141787 3.663745 4.004498
v -0.2540827 3.41901 3.549761
v -0.2769428 3.645942 4.100749
v -0.2907866 4.145713 4.520643
v 0.645743 4.140113 4.541046
v 0.6998389 4.823715 4.367639
v 4.026078 4.56254 1.166632
v 4.759288 3.250812 1.493245
v 4.212723 4.216388 1.919631
v 4.5419 3.69579 0.5705072
v 5.387122 2.011827 1.14087
v 3.989878 4.20388 -0.2267827
v 3.595665 4.890842 0.5382772
v 3.132781 5.417474 1.083881
v 3.358128 5.240362 1.692326
v 2.602323 5.857555 2.095384
v 2.412967 5.945826 1.448711
v 1.67925 6.221899 2.422601
v 1.479193 6.25821 1.744967
v 0.7186368 6.294413 2.613767
v 0.6674206 6.226463 1.988562
v -0.1944614 6.235353 2.687393
v -0.16786 6.194713 2.02017
v -1.098219 6.284652 2.619103
v -0.9232731 6.239663 1.938817
v -1.980702 6.1198 2.388846
v -1.760572 6.199498 1.652669
v -2.72462 5.747047 2.038151
v -2.506586 5.900285 1.414301
v -3.341341 5.25647 1.712821
v -3.107875 5.436679 1.097023
v -3.499138 5.021666 0.6893428
v -3.942618 4.673885 1.420896
v -3.874816 4.448854 0.03965688
v -4.446701 3.916363 0.9057505
v -4.814187 3.047222 0.2516067
v -4.187354 3.608425 -0.7520316
v -4.704032 3.385111 1.947335
v -5.241241 2.40017 1.418783
v -4.367141 2.767859 -1.393975
v -5.511833 1.546972 0.5284034
v -5.125245 2.173024 -0.5001121
v -4.54764 1.903047 -2.22723
v -5.316669 1.161402 -1.220037
v -5.809 0.6009277 -0.08820585
v -5.938426 -0.5715713 -0.4880562
v -4.514452 0.9350096 -3.024538
v -5.232224 -0.1674068 -1.835167
v -6.026727 -1.682068 -0.5676987
v -4.572244 -0.9511667 -2.774805
v -4.078671 -0.05106355 -3.621671
v -3.590055 -0.6974086 -4.030134
v -3.8844 -1.574862 -3.346794
v -2.914602 -1.26934 -4.412004
v -4.948149 -1.975634 -2.277415
v -5.627094 -1.549536 -1.603876
v -5.391137 -2.881412 -1.973433
v -5.877174 -2.381944 -1.508163
v -6.290397 -2.688093 -0.7107174
v -5.671307 -3.594702 -1.331283
v -5.07922 -4.366053 -2.109837
v -5.435366 -4.139549 -0.491963
v -4.90747 -4.893782 -1.33989
v -4.173588 -5.641442 -2.011853
v -4.205619 -2.552802 -2.855484
v -4.666463 -3.48575 -2.52157
v -4.142385 -4.943059 -2.658304
v -3.143546 -5.76073 -2.599037
v -3.254047 -5.522919 -3.298066
v -3.854589 -4.103092 -3.116559
v -3.131984 -2.056526 -3.799052
v -3.314893 -3.171372 -3.462623
v -2.372619 -3.056406 -3.8693
v -2.362077 -2.297236 -4.172976
v -1.55774 -2.417217 -4.411954
v -2.31433 -1.566568 -4.627266
v -1.519975 -1.694969 -4.755553
v -0.711972 -1.78137 -4.85842
v -3.074605 -4.738728 -3.69688
v -2.659148 -4.043766 -3.764357
v -2.172738 -5.114395 -4.310863
v -2.149694 -6.017574 -3.885416
v -0.7080117 -2.470553 -4.490596
v 0.1860375 -1.79305 -4.899117
v -1.882231 -4.401738 -4.135639
v -1.107789 -5.20243 -4.452814
v -1.120839 -5.776159 -4.069867
v -0.1480514 -5.684819 -4.17128
v -0.9779647 -4.511132 -4.432614
v -1.621541 -3.780569 -4.024732
v -0.09086066 -5.212522 -4.486601
v 0.7681029 -5.69045 -4.032279
v -2.217625 -3.655163 -3.790226
v -1.563488 -3.099693 -4.094187
v -0.8144171 -3.847672 -4.263141
v -0.7382932 -3.159785 -4.189591
v -0.005033874 -4.598423 -4.384155
v 0.0904134 -3.924815 -4.152784
v 0.8803976 -5.279737 -4.469802
v 1.622928 -5.83227 -3.783459
v 0.1596835 -3.181443 -4.147731
v 0.9590958 -4.626849 -4.477043
v 1.046028 -3.916462 -4.28243
v 1.82299 -5.400089 -4.358289
v 2.543369 -6.154539 -3.332983
v 1.871235 -4.705161 -4.263425
v 0.17205 -2.484233 -4.497198
v 1.033917 -1.762472 -4.827549
v 1.056852 -2.462488 -4.447331
v 1.886214 -1.644861 -4.702109
v 1.060349 -3.186364 -4.19795
v 1.961868 -3.993638 -3.981036
v 2.625384 -4.794176 -4.088913
v 1.919856 -2.38396 -4.286926
v 2.719597 -2.188611 -4.004054
v 2.634985 -1.506103 -4.570086
v 3.188491 -1.037428 -4.257159
v 1.947053 -3.162467 -3.945993
v 2.852979 -3.064052 -3.585049
v 3.44406 -1.823693 -3.654408
v 3.840001 -0.4857688 -3.888825
v 2.733537 -5.480924 -3.944171
v 3.501406 -5.10278 -3.3462
v 3.424159 -5.709462 -2.795809
v 4.408023 -5.554191 -2.063411
v 3.067297 -4.139136 -3.559666
v 3.757471 -2.739206 -3.292717
v 4.082894 -3.724433 -3.061275
v 4.829901 -3.23668 -2.431883
v 4.297368 -4.66947 -2.644732
v 5.113591 -4.150165 -1.979572
v 4.950096 -4.876701 -1.305687
v 5.56023 -4.088755 -0.4092471
v 5.76574 -3.469546 -1.27806
v 4.414257 -2.272698 -2.708238
v 5.067355 -1.743177 -2.144684
v 5.49639 -2.696558 -1.87823
v 6.331167 -2.557264 -0.7809802
v 4.135921 -1.322732 -3.234653
v 4.198036 0.2190316 -3.45811
v 5.973257 -2.204591 -1.464672
v 5.927725 -1.409985 -0.5477491
v 4.718035 -0.6628153 -2.640294
v 4.608598 1.233301 -2.823746
v 5.620988 -1.341329 -1.451363
v 5.311027 0.1714345 -1.675674
v 5.273406 1.599183 -0.9221979
v 5.898802 -0.1387977 -0.3505522
v 4.494727 2.277759 -1.881846
v 5.659899 1.001068 0.2132253
v 4.271798 3.181152 -1.043686
v 4.962527 2.669425 -0.09140992
vt 0.01491472 0.9857244
vt 0.01207718 0.9811077
vt 0.01300857 0.9827959
vt 0.0148636 0.9847231
vt 0.01264004 0.9794292
vt 0.01716832 0.987942
vt 0.01004249 0.9773369
vt 0.01698578 0.9871399
vt 0.01911878 0.9882435
vt 0.0194782 0.9898287
vt 0.02190908 0.9896213
vt 0.02225734 0.9912823
vt 0.02519064 0.9905794
vt 0.02554051 0.9919299
vt 0.0288917 0.9917419
vt 0.02877036 0.9906415
vt 0.03227501 0.9919159
vt 0.03237902 0.9907728
vt 0.03582704 0.9915704
vt 0.03594765 0.9900705
vt 0.03922782 0.9901094
vt 0.03924341 0.9885455
vt 0.04199944 0.9876969
vt 0.04234545 0.9865351
vt 0.04443975 0.9850309
vt 0.04514809 0.9839408
vt 0.02500927 0.9886953
vt 0.02866965 0.98879
vt 0.03231373 0.9889539
vt 0.03591993 0.9884172
vt 0.03907157 0.9869223
vt 0.04225085 0.9852698
vt 0.04501497 0.9828908
vt 0.04692497 0.9796112
vt 0.04713392 0.9802386
vt 0.04410171 0.9817315
vt 0.04196452 0.9840463
vt 0.03903215 0.9855195
vt 0.03580963 0.9865165
vt 0.03850903 0.9834866
vt 0.04790411 0.9757249
vt 0.04678638 0.9765114
vt 0.04941735 0.9755462
vt 0.04877666 0.9722458
vt 0.05037016 0.9715647
vt 0.04105996 0.9823642
vt 0.04566581 0.9791113
vt 0.04299523 0.9804652
vt 0.04757599 0.9733779
vt 0.04451996 0.9786339
vt 0.0418387 0.9794251
vt 0.03990756 0.980756
vt 0.04333935 0.977735
vt 0.04479377 0.9761047
vt 0.04558472 0.9771746
vt 0.04621641 0.9745344
vt 0.04481384 0.9740306
vt 0.04222912 0.9767584
vt 0.04383422 0.9753109
vt 0.04088284 0.9787719
vt 0.04314815 0.9743978
vt 0.03923072 0.9798457
vt 0.04462052 0.9726909
vt 0.04597933 0.9729003
vt 0.04525582 0.9711462
vt 0.03753257 0.9817698
vt 0.03697668 0.9808032
vt 0.04692336 0.9714867
vt 0.03549881 0.9842529
vt 0.03476837 0.982399
vt 0.03424786 0.981389
vt 0.04962696 0.9699191
vt 0.04764654 0.9692859
vt 0.04519289 0.9696077
vt 0.04483937 0.9668657
vt 0.04769436 0.9657477
vt 0.04428943 0.9628555
vt 0.05111923 0.9664658
vt 0.05120682 0.9672102
vt 0.0512746 0.9624841
vt 0.03172715 0.9826418
vt 0.03153488 0.9815459
vt 0.04720674 0.9619731
vt 0.04379182 0.9587725
vt 0.05031319 0.9618559
vt 0.04643404 0.9577255
vt 0.04328194 0.9550247
vt 0.05062601 0.9573013
vt 0.05273405 0.9582176
vt 0.05060056 0.9548183
vt 0.04985389 0.9527643
vt 0.04588512 0.9537356
vt 0.04755096 0.949852
vt 0.04296152 0.9519941
vt 0.04487263 0.9504952
vt 0.04551026 0.9473602
vt 0.04313236 0.948466
vt 0.04194684 0.9497662
vt 0.04010233 0.9489787
vt 0.04078636 0.9475859
vt 0.04184084 0.9468212
vt 0.0369492 0.9487624
vt 0.03759855 0.9466156
vt 0.03855437 0.9451488
vt 0.03388759 0.9483078
vt 0.03454636 0.94687
vt 0.03512949 0.9462066
vt 0.03195157 0.9465844
vt 0.03110489 0.9479428
vt 0.03155626 0.9471228
vt 0.02854812 0.9464771
vt 0.02847819 0.9470629
vt 0.02869285 0.9477501
vt 0.02525635 0.9465446
vt 0.02494206 0.946094
vt 0.02591005 0.9478559
vt 0.02169071 0.9457093
vt 0.02112866 0.9451955
vt 0.02250493 0.9479932
vt 0.01749278 0.9464053
vt 0.01706183 0.9470761
vt 0.01742355 0.9485165
vt 0.01482813 0.9486474
vt 0.01369509 0.9469229
vt 0.01356684 0.950257
vt 0.0155606 0.9513564
vt 0.01101054 0.9497889
vt 0.0125623 0.9532558
vt 0.01517464 0.9544722
vt 0.009096676 0.9527337
vt 0.01209011 0.9570742
vt 0.0148737 0.9581584
vt 0.007841474 0.9568326
vt 0.008206273 0.9545381
vt 0.005952974 0.9580283
vt 0.006959108 0.9617622
vt 0.01171299 0.9608465
vt 0.01454314 0.9612897
vt 0.00871445 0.9609971
vt 0.008268542 0.9644697
vt 0.007316993 0.9658768
vt 0.01155582 0.9643155
vt 0.01408716 0.9652684
vt 0.0138105 0.9687607
vt 0.008156239 0.9685794
vt 0.007840131 0.9703067
vt 0.008986455 0.9739551
vt 0.01130133 0.9678854
vt 0.01146955 0.9708573
vt 0.0135021 0.9708582
vt 0.009226105 0.971768
vt 0.01007284 0.9741596
vt 0.01214038 0.9727385
vt 0.01399766 0.9725655
vt 0.01494018 0.9741737
vt 0.01389513 0.9739445
vt 0.01161699 0.976961
vt 0.0124839 0.9755758
vt 0.01566225 0.9764572
vt 0.01673063 0.9762585
vt 0.01390802 0.9778966
vt 0.01716025 0.9791746
vt 0.01810343 0.9786597
vt 0.01590049 0.9805066
vt 0.01847436 0.9824345
vt 0.01942047 0.9809238
vt 0.0222681 0.9820994
vt 0.0200446 0.9800569
vt 0.02276181 0.9810271
vt 0.02576846 0.9816298
vt 0.01495451 0.9825074
vt 0.01836288 0.9863068
vt 0.01798678 0.9845559
vt 0.0216655 0.9876071
vt 0.02121281 0.9861169
vt 0.02157103 0.983742
vt 0.0249351 0.9866349
vt 0.0249831 0.984437
vt 0.02870135 0.9870287
vt 0.0253599 0.9825808
vt 0.02862829 0.9815326
vt 0.02856851 0.9825171
vt 0.02854493 0.9844822
vt 0.0320171 0.9844434
vt 0.03222905 0.9869314
vt 0.04443975 0.9850309
vt 0.04713392 0.9802386
vt 0.04514809 0.9839408
vt 0.04630857 0.9816518
vt 0.04941735 0.9755462
vt 0.04424738 0.9833344
vt 0.04283062 0.9860899
vt 0.0411473 0.9881962
vt 0.04199944 0.9876969
vt 0.03922782 0.9901094
vt 0.03850599 0.9902699
vt 0.03582704 0.9915704
vt 0.03506293 0.9915299
vt 0.03227501 0.9919159
vt 0.03206184 0.9914998
vt 0.0288917 0.9917419
vt 0.02896592 0.9914126
vt 0.02554051 0.9919299
vt 0.02616428 0.991578
vt 0.02225734 0.9912823
vt 0.02304961 0.9913751
vt 0.0194782 0.9898287
vt 0.02026868 0.9902244
vt 0.01716832 0.987942
vt 0.01801739 0.9884408
vt 0.01654168 0.9868047
vt 0.01491472 0.9857244
vt 0.01511288 0.9845235
vt 0.01300857 0.9827959
vt 0.01160197 0.979418
vt 0.01390561 0.981211
vt 0.01207718 0.9811077
vt 0.01004249 0.9773369
vt 0.0131959 0.9779355
vt 0.008986455 0.9739551
vt 0.01040091 0.9759949
vt 0.01247511 0.9745243
vt 0.009641143 0.9720714
vt 0.007840131 0.9703067
vt 0.007316993 0.9658768
vt 0.01254618 0.9707367
vt 0.00989969 0.9670013
vt 0.006959108 0.9617622
vt 0.01229397 0.9638501
vt 0.01411642 0.9669263
vt 0.01589739 0.9644227
vt 0.01480852 0.9613867
vt 0.01837349 0.9622051
vt 0.01089269 0.9602212
vt 0.008409251 0.9619806
vt 0.009239349 0.9569876
vt 0.007465259 0.9589502
vt 0.005952974 0.9580283
vt 0.008206273 0.9545381
vt 0.010358 0.9515283
vt 0.009096676 0.9527337
vt 0.01101054 0.9497889
vt 0.01369509 0.9469229
vt 0.01361123 0.9579366
vt 0.01189284 0.9546236
vt 0.01380058 0.9493004
vt 0.01749278 0.9464053
vt 0.01706183 0.9470761
vt 0.01486823 0.9522222
vt 0.01756994 0.9594855
vt 0.01687726 0.9555089
vt 0.02035839 0.95581
vt 0.02040483 0.9584926
vt 0.02337499 0.9579755
vt 0.02058373 0.9610413
vt 0.02352058 0.9605134
vt 0.02650969 0.9601566
vt 0.01772687 0.9497914
vt 0.01927827 0.9522664
vt 0.02104244 0.9483159
vt 0.02112866 0.9451955
vt 0.02652042 0.9577523
vt 0.02983647 0.9600849
vt 0.02213818 0.9508938
vt 0.02498472 0.9480102
vt 0.02494206 0.946094
vt 0.02854812 0.9464771
vt 0.0254781 0.9504506
vt 0.0231209 0.9531431
vt 0.02875416 0.9480145
vt 0.03195157 0.9465844
vt 0.02092222 0.9536542
vt 0.02334866 0.9555892
vt 0.02610302 0.9528456
vt 0.02640257 0.9553424
vt 0.02908486 0.9501622
vt 0.02945914 0.9525924
vt 0.03235535 0.9478351
vt 0.03512949 0.9462066
vt 0.02973196 0.955256
vt 0.03265559 0.9500769
vt 0.03299708 0.952606
vt 0.03585219 0.9474552
vt 0.03855437 0.9451488
vt 0.0360429 0.94986
vt 0.02978177 0.957689
vt 0.0329823 0.9602014
vt 0.03306349 0.9577676
vt 0.03614832 0.9606556
vt 0.03306838 0.9552273
vt 0.03640052 0.9523931
vt 0.03884313 0.9495977
vt 0.03626948 0.9580844
vt 0.03924806 0.9588506
vt 0.03893152 0.9611834
vt 0.04100539 0.9629669
vt 0.03636418 0.9553561
vt 0.03973616 0.9558131
vt 0.04195384 0.9602584
vt 0.04344636 0.965075
vt 0.03924103 0.9472736
vt 0.04211155 0.9486977
vt 0.04184084 0.9468212
vt 0.04551026 0.9473602
vt 0.0405095 0.9519801
vt 0.04310605 0.9570285
vt 0.04429859 0.9535523
vt 0.04709858 0.9554306
vt 0.04509073 0.9503222
vt 0.04814654 0.9522634
vt 0.04755096 0.949852
vt 0.04985389 0.9527643
vt 0.05060056 0.9548183
vt 0.04557107 0.9588488
vt 0.04802377 0.9608982
vt 0.04959976 0.9574881
vt 0.05273405 0.9582176
vt 0.04454461 0.9621819
vt 0.04480571 0.9677707
vt 0.05139295 0.9593596
vt 0.0512746 0.9624841
vt 0.0467389 0.9647365
vt 0.0463749 0.9716613
vt 0.05010934 0.9625238
vt 0.04899116 0.9680324
vt 0.04891452 0.9734908
vt 0.05120682 0.9672102
vt 0.04601211 0.9757647
vt 0.05037016 0.9715647
vt 0.04523886 0.9793276
vt 0.04781819 0.9776706
vn -0.7693195 0.6377565 0.03760631
vn -0.8797689 0.4177186 0.2269752
vn -0.8404859 0.5372736 -0.07014649
vn -0.7448833 0.5709754 0.3451609
vn -0.7907211 0.1452789 0.5946882
vn -0.6781905 0.7237492 0.127455
vn -0.938583 0.2958222 0.1776263
vn -0.6594278 0.6580002 0.3635804
vn -0.5898658 0.6529517 0.4750919
vn -0.5756782 0.7882854 0.2172574
vn -0.4681081 0.6892052 0.5530559
vn -0.3767186 0.8860812 0.27008
vn -0.2088502 0.7695588 0.6034573
vn -0.1117922 0.9577004 0.2651649
vn -0.009484557 0.971974 0.2348969
vn -0.02912961 0.801743 0.5969586
vn 0.04326859 0.9712503 0.2340957
vn 0.1051082 0.8054357 0.5832886
vn 0.2828956 0.923255 0.259943
vn 0.3682815 0.743611 0.5580423
vn 0.538735 0.8132331 0.2200376
vn 0.5555822 0.6711018 0.4908676
vn 0.6840701 0.7190574 0.1224937
vn 0.6699643 0.64817 0.3619718
vn 0.7828844 0.6220123 -0.01388688
vn 0.8109869 0.551576 0.1951001
vn -0.2322175 0.7086715 0.666228
vn -0.03962025 0.7215861 0.6911901
vn 0.1168101 0.7122369 0.6921517
vn 0.3654316 0.677668 0.6381425
vn 0.5246136 0.6513242 0.5482311
vn 0.6305183 0.6016353 0.4903893
vn 0.7807855 0.4573978 0.4256304
vn 0.8697659 0.3273011 0.3692982
vn 0.9010738 0.4192711 0.1108047
vn 0.6938384 0.2801435 0.6634063
vn 0.6032921 0.4041022 0.687561
vn 0.5018343 0.4736769 0.7237352
vn 0.3268711 0.4833798 0.8120955
vn 0.3355943 -0.1837385 0.9239137
vn 0.9081485 0.09445126 0.4078545
vn 0.7649887 0.04884544 0.6421887
vn 0.95928 0.2399277 0.1490524
vn 0.7732559 -0.3130799 0.5514129
vn 0.9730152 0.2305968 0.008152884
vn 0.3890197 -0.1275663 0.9123544
vn 0.7487532 0.2761388 0.602591
vn 0.3981542 -0.1021763 0.9116102
vn 0.627017 -0.547562 0.5540988
vn 0.3869745 0.04711748 0.9208857
vn -0.05918478 -0.4793229 0.8756407
vn -0.02940849 -0.6317027 0.7746528
vn -0.14052 -0.3069264 0.9413025
vn 0.03268973 -0.3578088 0.9332225
vn 0.4446257 0.06233791 0.8935447
vn 0.4031904 -0.5695491 0.716276
vn -0.2200701 -0.8233098 0.5231922
vn -0.3747092 -0.5008194 0.7802389
vn -0.3762878 -0.6407008 0.6692608
vn -0.228989 -0.5947595 0.7706006
vn -0.4508968 -0.7851688 0.4245022
vn -0.2087678 -0.7542862 0.6224695
vn -0.1485201 -0.8328047 0.5332711
vn 0.02086081 -0.8527616 0.5218835
vn -0.06494232 -0.7295754 0.68081
vn -0.007215713 -0.748495 0.6631012
vn -0.1436947 -0.8507944 0.5054708
vn 0.1537837 -0.7134062 0.6836683
vn 0.2152772 -0.2134626 0.9529373
vn 0.01756729 -0.8089212 0.5876545
vn -0.03966436 -0.8958623 0.442558
vn 0.8015348 -0.07268228 0.5935143
vn 0.077874 -0.4570912 0.8860041
vn -0.3298561 -0.5395999 0.7746141
vn -0.5243448 -0.38281 0.7606044
vn -0.1139784 -0.3907863 0.9133975
vn -0.5718988 -0.2065855 0.7938855
vn 0.7810535 -0.133032 0.6101295
vn 0.9870837 0.1246998 -0.100577
vn 0.9916161 0.1285411 -0.01321333
vn 0.0256426 -0.8164071 0.576907
vn 0.02199304 -0.9081983 0.4179618
vn -0.2301289 -0.2651034 0.9363551
vn -0.6079596 -0.1667687 0.7762559
vn 0.6595231 -0.1642295 0.7335244
vn -0.2953972 -0.2440557 0.923676
vn -0.6452632 -0.2805725 0.7105734
vn 0.5789348 -0.2690599 0.7697021
vn 0.9977731 -0.05686668 -0.03485554
vn 0.8851576 -0.3482027 -0.3086273
vn 0.585458 -0.6400701 0.4975431
vn -0.3073781 -0.4631942 0.831246
vn 0.6068614 -0.7697865 0.1978585
vn -0.6074305 -0.3451962 0.7154495
vn -0.2476379 -0.6168067 0.7471445
vn 0.5225961 -0.8513344 -0.04607715
vn -0.2163167 -0.7574991 0.6159563
vn -0.4843405 -0.5069695 0.713019
vn -0.3145709 -0.6052415 0.7312509
vn -0.1211668 -0.8132097 0.5692174
vn 0.4462797 -0.8846919 -0.1347393
vn -0.2879975 -0.6430829 0.7095785
vn -0.1936114 -0.8249665 0.5309849
vn 0.175037 -0.9724985 -0.1536513
vn -0.3077627 -0.7669105 0.5631434
vn -0.2955137 -0.8851646 0.3593816
vn -0.08617733 -0.9489942 -0.3032877
vn -0.047454 -0.9395896 -0.3389978
vn -0.1801372 -0.8758665 0.44767
vn -0.1517106 -0.9470209 0.2830817
vn 0.0240265 -0.907235 -0.4199373
vn 0.05970444 -0.9577506 0.2813344
vn 0.04596043 -0.8982143 0.4371483
vn 0.2384258 -0.9241627 0.2984569
vn 0.06589288 -0.8780984 -0.4739211
vn 0.2668769 -0.8219526 0.5031607
vn 0.09225295 -0.9441848 0.316235
vn -0.2166223 -0.8443121 -0.490114
vn 0.2536405 -0.7454371 0.6164333
vn -0.1535917 -0.9656422 0.2096298
vn -0.580649 -0.6113473 -0.5376815
vn 0.2895316 -0.6932958 0.6599337
vn 0.234402 -0.6675906 0.7066671
vn -0.3617928 -0.9247571 0.1180269
vn 0.22571 -0.6260198 0.7464277
vn 0.5292351 -0.4185717 0.7380434
vn -0.5732559 -0.7873895 0.2267059
vn 0.3007059 -0.5149809 0.8027269
vn 0.627438 -0.3120311 0.713413
vn -0.5487628 -0.687674 0.4753563
vn 0.3148258 -0.2218471 0.922859
vn 0.5917485 -0.1550743 0.7910662
vn -0.5443496 -0.2710663 0.7938555
vn -0.8808658 -0.360452 -0.3068384
vn -0.9968827 -0.07887394 -0.001978396
vn -0.9896764 0.1328126 0.05386375
vn 0.2693791 -0.1872469 0.9446552
vn 0.542984 -0.1643837 0.8234964
vn -0.5449441 -0.0876198 0.8338817
vn -0.6891365 -0.2753996 0.670258
vn -0.9927418 0.06623427 -0.1003824
vn 0.1996344 -0.411989 0.8890507
vn 0.5636269 -0.3416843 0.7520482
vn 0.450623 -0.4602109 0.7649475
vn -0.7861955 -0.1490244 0.5997403
vn -0.9799519 0.1861696 -0.07095789
vn -0.95873 0.2838075 0.01703227
vn 0.07926466 -0.4445114 0.8922593
vn -0.1131858 -0.5841647 0.8037043
vn 0.2027345 -0.6570052 0.726115
vn -0.811331 -0.1605429 0.5621103
vn -0.7951007 -0.1522913 0.5870453
vn -0.2233616 -0.6726546 0.7054399
vn 0.1825225 -0.831575 0.524565
vn 0.3962204 -0.8107505 0.4309212
vn -0.06374963 -0.6931165 0.7180011
vn -0.8247173 0.07442957 0.5606261
vn -0.64483 -0.2026742 0.736965
vn 0.07645714 -0.5405245 0.8378469
vn 0.4811875 -0.6463442 0.5921975
vn -0.516039 -0.1817053 0.8370704
vn 0.07887959 -0.5214155 0.8496493
vn 0.3299901 -0.6315414 0.7016138
vn -0.4177673 -0.1433024 0.8971816
vn -0.3685006 -0.221915 0.9027519
vn 0.04763784 -0.6807858 0.7309318
vn 0.03280209 -0.7764769 0.6292914
vn 0.2135111 -0.7700897 0.6011446
vn 0.1328634 -0.8594459 0.49366
vn 0.001417033 -0.9106188 0.4132447
vn -0.6969224 0.3377179 0.6326498
vn -0.5852636 0.6374589 0.5011116
vn -0.600966 0.4172962 0.6816918
vn -0.460927 0.6780869 0.5724897
vn -0.4408412 0.4627401 0.7691103
vn -0.2666091 -0.2761813 0.9233869
vn -0.2195996 0.466107 0.8570415
vn -0.1417589 -0.2809179 0.9492047
vn -0.02750372 0.4447556 0.8952296
vn -0.02475805 -0.8190358 0.573208
vn -0.008130603 -0.919192 0.3937258
vn -0.0087507 -0.8195484 0.5729432
vn -0.01522222 -0.3115639 0.9501033
vn 0.07898921 -0.2809047 0.9564795
vn 0.1206202 0.473616 0.8724326
vn 0.7828844 0.6220123 -0.01388688
vn 0.9010738 0.4192711 0.1108047
vn 0.8109869 0.551576 0.1951001
vn 0.8513531 0.5087994 -0.1277536
vn 0.95928 0.2399277 0.1490524
vn 0.7994231 0.5521985 -0.2366423
vn 0.7368672 0.6640288 -0.1268569
vn 0.6516567 0.7566035 -0.05380164
vn 0.6840701 0.7190574 0.1224937
vn 0.538735 0.8132331 0.2200376
vn 0.4790023 0.8775537 -0.0213625
vn 0.2828956 0.923255 0.259943
vn 0.1806336 0.9833561 -0.01954941
vn 0.04326859 0.9712503 0.2340957
vn -0.01852721 0.9983827 -0.05374859
vn -0.009484557 0.971974 0.2348969
vn 0.002221177 0.9976484 -0.068503
vn -0.1117922 0.9577004 0.2651649
vn -0.02558151 0.999171 -0.03167011
vn -0.3767186 0.8860812 0.27008
vn -0.2710319 0.9625477 0.006603327
vn -0.5756782 0.7882854 0.2172574
vn -0.515533 0.8568511 0.005638583
vn -0.6781905 0.7237492 0.127455
vn -0.6519327 0.7573886 -0.03669161
vn -0.728712 0.6772285 -0.1016883
vn -0.7693195 0.6377565 0.03760631
vn -0.7979838 0.5738091 -0.1842958
vn -0.8404859 0.5372736 -0.07014649
vn -0.8685758 0.4669873 -0.1658281
vn -0.8235222 0.5005147 -0.2670137
vn -0.8797689 0.4177186 0.2269752
vn -0.938583 0.2958222 0.1776263
vn -0.8225862 0.4662257 -0.3255542
vn -0.95873 0.2838075 0.01703227
vn -0.8737722 0.4247572 -0.2368616
vn -0.8611004 0.3301765 -0.3866388
vn -0.8941999 0.2939727 -0.3376189
vn -0.9799519 0.1861696 -0.07095789
vn -0.9927418 0.06623427 -0.1003824
vn -0.8700272 0.08695691 -0.4852742
vn -0.8691115 0.1077312 -0.4827412
vn -0.9896764 0.1328126 0.05386375
vn -0.7653211 -0.07730815 -0.6389891
vn -0.799006 -0.1258369 -0.5880089
vn -0.7035427 -0.2693 -0.6576511
vn -0.6765934 -0.2041135 -0.707502
vn -0.5745152 -0.3887857 -0.7202625
vn -0.6791543 0.00660625 -0.7339658
vn -0.8283062 0.1337199 -0.5440845
vn -0.7159752 -0.053106 -0.696103
vn -0.828219 0.04515415 -0.5585824
vn -0.9968827 -0.07887394 -0.001978396
vn -0.8808658 -0.360452 -0.3068384
vn -0.7834229 -0.3465654 -0.5158886
vn -0.5487628 -0.687674 0.4753563
vn -0.5732559 -0.7873895 0.2267059
vn -0.3617928 -0.9247571 0.1180269
vn -0.6178263 -0.06349275 -0.783747
vn -0.6393182 -0.0561984 -0.7668859
vn -0.6675454 -0.4177464 -0.6163368
vn -0.1535917 -0.9656422 0.2096298
vn -0.580649 -0.6113473 -0.5376815
vn -0.586634 -0.06714852 -0.8070636
vn -0.5532683 -0.2916797 -0.7802673
vn -0.4945237 -0.07272705 -0.8661161
vn -0.3383777 -0.1986594 -0.9198016
vn -0.3733554 -0.3820018 -0.8453877
vn -0.2047991 -0.4207928 -0.8837368
vn -0.3885801 -0.4494076 -0.804387
vn -0.2010711 -0.4487807 -0.8707274
vn -0.08297975 -0.4655644 -0.8811153
vn -0.5574367 -0.06327232 -0.8278049
vn -0.3836493 0.1405038 -0.9127278
vn -0.3552676 -0.1111699 -0.9281304
vn -0.2166223 -0.8443121 -0.490114
vn -0.06853773 -0.441333 -0.8947222
vn 0.02338545 -0.48816 -0.8724409
vn -0.2899513 0.2560176 -0.9221623
vn -0.08928106 -0.2020653 -0.975294
vn 0.06589288 -0.8780984 -0.4739211
vn 0.0240265 -0.907235 -0.4199373
vn -0.08916492 0.2096869 -0.9736945
vn -0.273687 0.1247762 -0.9536909
vn -0.003875721 -0.2712518 -0.9625006
vn -0.047454 -0.9395896 -0.3389978
vn -0.3099932 0.05446828 -0.9491772
vn -0.2376487 -0.2295299 -0.9438427
vn -0.06153218 0.1612133 -0.9849996
vn -0.05548654 -0.1951266 -0.9792072
vn -0.004695343 0.1861067 -0.9825183
vn -0.004598914 0.1752937 -0.9845054
vn 0.05346053 -0.3481574 -0.9359105
vn -0.08617733 -0.9489942 -0.3032877
vn -0.001612414 -0.1775967 -0.9841021
vn 0.07821871 0.1804453 -0.98047
vn 0.1028747 0.1833683 -0.9776466
vn 0.1870875 -0.4032388 -0.895766
vn 0.175037 -0.9724985 -0.1536513
vn 0.2832066 0.1741456 -0.9431157
vn 0.01447548 -0.4477834 -0.8940248
vn 0.1363452 -0.4792541 -0.867021
vn 0.12945 -0.4264028 -0.8952226
vn 0.2621312 -0.4954664 -0.8281305
vn 0.1171301 -0.1563049 -0.9807392
vn 0.3222046 0.1980607 -0.9257193
vn 0.4551658 0.1500177 -0.8776782
vn 0.2875708 -0.4248639 -0.8583668
vn 0.4498362 -0.3838722 -0.8064053
vn 0.4786584 -0.4644831 -0.7450783
vn 0.6337441 -0.355828 -0.6868442
vn 0.329879 -0.1463668 -0.9326074
vn 0.4001006 -0.1344897 -0.9065495
vn 0.5986097 -0.2786089 -0.7510284
vn 0.7400875 -0.2103538 -0.6387658
vn 0.4871525 -0.4011571 -0.775729
vn 0.6558921 -0.2802624 -0.7008984
vn 0.4462797 -0.8846919 -0.1347393
vn 0.5225961 -0.8513344 -0.04607715
vn 0.4783728 0.06154212 -0.8759978
vn 0.5422097 -0.09090004 -0.8353118
vn 0.5783445 -0.05140046 -0.8141717
vn 0.680693 -0.05569124 -0.7304488
vn 0.6955944 -0.2748439 -0.663784
vn 0.800194 -0.3074429 -0.5149451
vn 0.6068614 -0.7697865 0.1978585
vn 0.585458 -0.6400701 0.4975431
vn 0.8851576 -0.3482027 -0.3086273
vn 0.6650697 -0.03872671 -0.7457764
vn 0.7124933 0.03769869 -0.7006655
vn 0.7165153 -0.04292829 -0.6962492
vn 0.9977731 -0.05686668 -0.03485554
vn 0.7180611 -0.170256 -0.6748341
vn 0.8293523 -0.05663515 -0.5558481
vn 0.8244795 0.1210727 -0.5527883
vn 0.9916161 0.1285411 -0.01321333
vn 0.80525 -0.04065749 -0.5915399
vn 0.8775531 0.1572447 -0.4529621
vn 0.84958 0.166261 -0.5005707
vn 0.8925394 0.1456181 -0.4268121
vn 0.8944287 0.350428 -0.2778444
vn 0.9870837 0.1246998 -0.100577
vn 0.8504357 0.3973217 -0.3448108
vn 0.9730152 0.2305968 0.008152884
vn 0.8150879 0.4911523 -0.3072476
vn 0.8731499 0.4473789 -0.1935493
g hair001_0
f 3/3/3 2/2/2 1/1/1
f 2/2/2 4/4/4 1/1/1
f 4/4/4 2/2/2 5/5/5
f 1/1/1 4/4/4 6/6/6
f 2/2/2 7/7/7 5/5/5
f 4/4/4 8/8/8 6/6/6
f 8/8/8 9/9/9 6/6/6
f 8/8/8 4/4/4 9/9/9
f 9/9/9 10/10/10 6/6/6
f 9/9/9 11/11/11 10/10/10
f 11/11/11 12/12/12 10/10/10
f 11/11/11 13/13/13 12/12/12
f 13/13/13 14/14/14 12/12/12
f 15/15/15 14/14/14 13/13/13
f 16/16/16 15/15/15 13/13/13
f 17/17/17 15/15/15 16/16/16
f 18/18/18 17/17/17 16/16/16
f 19/19/19 17/17/17 18/18/18
f 20/20/20 19/19/19 18/18/18
f 21/21/21 19/19/19 20/20/20
f 22/22/22 21/21/21 20/20/20
f 23/23/23 21/21/21 22/22/22
f 24/24/24 23/23/23 22/22/22
f 23/23/23 24/24/24 25/25/25
f 24/24/24 26/26/26 25/25/25
f 27/27/27 13/13/13 11/11/11
f 28/28/28 16/16/16 13/13/13
f 27/27/27 28/28/28 13/13/13
f 29/29/29 18/18/18 16/16/16
f 28/28/28 29/29/29 16/16/16
f 30/30/30 20/20/20 18/18/18
f 29/29/29 30/30/30 18/18/18
f 31/31/31 22/22/22 20/20/20
f 30/30/30 31/31/31 20/20/20
f 32/32/32 24/24/24 22/22/22
f 31/31/31 32/32/32 22/22/22
f 33/33/33 26/26/26 24/24/24
f 32/32/32 33/33/33 24/24/24
f 33/33/33 34/34/34 26/26/26
f 34/34/34 35/35/35 26/26/26
f 33/33/33 32/32/32 36/36/36
f 33/33/33 36/36/36 34/34/34
f 37/37/37 32/32/32 31/31/31
f 32/32/32 37/37/37 36/36/36
f 38/38/38 31/31/31 30/30/30
f 38/38/38 37/37/37 31/31/31
f 39/39/39 38/38/38 30/30/30
f 39/39/39 30/30/30 29/29/29
f 37/37/37 38/38/38 40/40/40
f 40/40/40 38/38/38 39/39/39
f 34/34/34 41/41/41 35/35/35
f 42/42/42 41/41/41 34/34/34
f 41/41/41 43/43/43 35/35/35
f 43/43/43 41/41/41 44/44/44
f 43/43/43 44/44/44 45/45/45
f 36/36/36 37/37/37 46/46/46
f 46/46/46 37/37/37 40/40/40
f 36/36/36 47/47/47 34/34/34
f 47/47/47 42/42/42 34/34/34
f 47/47/47 36/36/36 48/48/48
f 48/48/48 36/36/36 46/46/46
f 41/41/41 49/49/49 44/44/44
f 41/41/41 42/42/42 49/49/49
f 50/50/50 47/47/47 48/48/48
f 42/42/42 47/47/47 50/50/50
f 51/51/51 48/48/48 46/46/46
f 52/52/52 46/46/46 40/40/40
f 52/52/52 51/51/51 46/46/46
f 53/53/53 50/50/50 48/48/48
f 51/51/51 53/53/53 48/48/48
f 50/50/50 53/53/53 54/54/54
f 55/55/55 42/42/42 50/50/50
f 55/55/55 50/50/50 54/54/54
f 42/42/42 55/55/55 54/54/54
f 42/42/42 56/56/56 49/49/49
f 56/56/56 42/42/42 54/54/54
f 49/49/49 56/56/56 57/57/57
f 57/57/57 56/56/56 54/54/54
f 53/53/53 58/58/58 54/54/54
f 58/58/58 53/53/53 51/51/51
f 59/59/59 57/57/57 54/54/54
f 58/58/58 59/59/59 54/54/54
f 59/59/59 58/58/58 57/57/57
f 60/60/60 58/58/58 51/51/51
f 58/58/58 61/61/61 57/57/57
f 62/62/62 60/60/60 51/51/51
f 52/52/52 62/62/62 51/51/51
f 61/61/61 63/63/63 57/57/57
f 64/64/64 49/49/49 57/57/57
f 63/63/63 64/64/64 57/57/57
f 44/44/44 49/49/49 64/64/64
f 63/63/63 65/65/65 64/64/64
f 62/62/62 52/52/52 66/66/66
f 66/66/66 52/52/52 40/40/40
f 67/67/67 62/62/62 66/66/66
f 68/68/68 44/44/44 64/64/64
f 65/65/65 68/68/68 64/64/64
f 66/66/66 40/40/40 69/69/69
f 69/69/69 40/40/40 39/39/39
f 67/67/67 66/66/66 70/70/70
f 70/70/70 66/66/66 69/69/69
f 71/71/71 67/67/67 70/70/70
f 44/44/44 68/68/68 72/72/72
f 44/44/44 72/72/72 45/45/45
f 68/68/68 65/65/65 73/73/73
f 68/68/68 73/73/73 72/72/72
f 65/65/65 74/74/74 73/73/73
f 74/74/74 75/75/75 73/73/73
f 75/75/75 76/76/76 73/73/73
f 73/73/73 76/76/76 72/72/72
f 75/75/75 77/77/77 76/76/76
f 72/72/72 78/78/78 45/45/45
f 76/76/76 78/78/78 72/72/72
f 78/78/78 79/79/79 45/45/45
f 79/79/79 78/78/78 80/80/80
f 71/71/71 70/70/70 81/81/81
f 82/82/82 71/71/71 81/81/81
f 77/77/77 83/83/83 76/76/76
f 77/77/77 84/84/84 83/83/83
f 78/78/78 76/76/76 85/85/85
f 78/78/78 85/85/85 80/80/80
f 76/76/76 83/83/83 85/85/85
f 84/84/84 86/86/86 83/83/83
f 83/83/83 86/86/86 85/85/85
f 84/84/84 87/87/87 86/86/86
f 85/85/85 88/88/88 80/80/80
f 86/86/86 88/88/88 85/85/85
f 88/88/88 89/89/89 80/80/80
f 90/90/90 89/89/89 88/88/88
f 91/91/91 90/90/90 88/88/88
f 87/87/87 92/92/92 86/86/86
f 86/86/86 92/92/92 88/88/88
f 92/92/92 91/91/91 88/88/88
f 93/93/93 91/91/91 92/92/92
f 87/87/87 94/94/94 92/92/92
f 95/95/95 93/93/93 92/92/92
f 94/94/94 95/95/95 92/92/92
f 93/93/93 95/95/95 96/96/96
f 95/95/95 94/94/94 97/97/97
f 95/95/95 97/97/97 96/96/96
f 94/94/94 98/98/98 97/97/97
f 98/98/98 99/99/99 97/97/97
f 97/97/97 100/100/100 96/96/96
f 99/99/99 100/100/100 97/97/97
f 100/100/100 101/101/101 96/96/96
f 99/99/99 102/102/102 100/100/100
f 100/100/100 103/103/103 101/101/101
f 102/102/102 103/103/103 100/100/100
f 103/103/103 104/104/104 101/101/101
f 102/102/102 105/105/105 103/103/103
f 103/103/103 106/106/106 104/104/104
f 105/105/105 106/106/106 103/103/103
f 106/106/106 107/107/107 104/104/104
f 108/108/108 107/107/107 106/106/106
f 105/105/105 109/109/109 106/106/106
f 110/110/110 108/108/108 106/106/106
f 109/109/109 110/110/110 106/106/106
f 108/108/108 110/110/110 111/111/111
f 110/110/110 109/109/109 112/112/112
f 110/110/110 112/112/112 111/111/111
f 109/109/109 113/113/113 112/112/112
f 111/111/111 112/112/112 114/114/114
f 112/112/112 113/113/113 114/114/114
f 115/115/115 111/111/111 114/114/114
f 113/113/113 116/116/116 114/114/114
f 115/115/115 114/114/114 117/117/117
f 114/114/114 116/116/116 117/117/117
f 118/118/118 115/115/115 117/117/117
f 116/116/116 119/119/119 117/117/117
f 118/118/118 117/117/117 120/120/120
f 117/117/117 119/119/119 120/120/120
f 121/121/121 118/118/118 120/120/120
f 119/119/119 122/122/122 120/120/120
f 122/122/122 123/123/123 120/120/120
f 123/123/123 124/124/124 120/120/120
f 123/123/123 122/122/122 125/125/125
f 124/124/124 123/123/123 125/125/125
f 122/122/122 126/126/126 125/125/125
f 127/127/127 124/124/124 125/125/125
f 125/125/125 126/126/126 128/128/128
f 127/127/127 125/125/125 128/128/128
f 126/126/126 129/129/129 128/128/128
f 130/130/130 127/127/127 128/128/128
f 128/128/128 129/129/129 131/131/131
f 130/130/130 128/128/128 131/131/131
f 129/129/129 132/132/132 131/131/131
f 133/133/133 130/130/130 131/131/131
f 134/134/134 130/130/130 133/133/133
f 135/135/135 134/134/134 133/133/133
f 135/135/135 133/133/133 136/136/136
f 131/131/131 132/132/132 137/137/137
f 133/133/133 131/131/131 137/137/137
f 132/132/132 138/138/138 137/137/137
f 133/133/133 139/139/139 136/136/136
f 139/139/139 133/133/133 137/137/137
f 139/139/139 140/140/140 136/136/136
f 139/139/139 137/137/137 140/140/140
f 140/140/140 141/141/141 136/136/136
f 137/137/137 138/138/138 142/142/142
f 137/137/137 142/142/142 140/140/140
f 138/138/138 143/143/143 142/142/142
f 143/143/143 144/144/144 142/142/142
f 140/140/140 145/145/145 141/141/141
f 145/145/145 146/146/146 141/141/141
f 146/146/146 145/145/145 147/147/147
f 142/142/142 148/148/148 140/140/140
f 144/144/144 148/148/148 142/142/142
f 148/148/148 145/145/145 140/140/140
f 148/148/148 144/144/144 149/149/149
f 145/145/145 148/148/148 149/149/149
f 144/144/144 150/150/150 149/149/149
f 145/145/145 151/151/151 147/147/147
f 151/151/151 145/145/145 149/149/149
f 147/147/147 151/151/151 152/152/152
f 151/151/151 149/149/149 152/152/152
f 7/7/7 147/147/147 152/152/152
f 149/149/149 150/150/150 153/153/153
f 149/149/149 153/153/153 152/152/152
f 150/150/150 154/154/154 153/153/153
f 154/154/154 155/155/155 153/153/153
f 155/155/155 156/156/156 153/153/153
f 153/153/153 156/156/156 152/152/152
f 157/157/157 7/7/7 152/152/152
f 7/7/7 157/157/157 5/5/5
f 158/158/158 157/157/157 152/152/152
f 156/156/156 158/158/158 152/152/152
f 157/157/157 158/158/158 5/5/5
f 156/156/156 155/155/155 159/159/159
f 155/155/155 160/160/160 159/159/159
f 158/158/158 156/156/156 161/161/161
f 156/156/156 159/159/159 161/161/161
f 158/158/158 161/161/161 5/5/5
f 159/159/159 160/160/160 162/162/162
f 159/159/159 162/162/162 161/161/161
f 160/160/160 163/163/163 162/162/162
f 161/161/161 164/164/164 5/5/5
f 162/162/162 164/164/164 161/161/161
f 164/164/164 162/162/162 165/165/165
f 162/162/162 163/163/163 166/166/166
f 162/162/162 166/166/166 165/165/165
f 165/165/165 166/166/166 167/167/167
f 163/163/163 168/168/168 166/166/166
f 166/166/166 168/168/168 167/167/167
f 168/168/168 169/169/169 167/167/167
f 169/169/169 170/170/170 167/167/167
f 164/164/164 171/171/171 5/5/5
f 171/171/171 164/164/164 165/165/165
f 171/171/171 4/4/4 5/5/5
f 172/172/172 4/4/4 171/171/171
f 4/4/4 172/172/172 9/9/9
f 173/173/173 172/172/172 171/171/171
f 173/173/173 171/171/171 165/165/165
f 172/172/172 174/174/174 9/9/9
f 172/172/172 173/173/173 174/174/174
f 174/174/174 11/11/11 9/9/9
f 174/174/174 27/27/27 11/11/11
f 173/173/173 175/175/175 174/174/174
f 175/175/175 173/173/173 165/165/165
f 174/174/174 175/175/175 27/27/27
f 176/176/176 175/175/175 165/165/165
f 176/176/176 165/165/165 167/167/167
f 175/175/175 177/177/177 27/27/27
f 175/175/175 176/176/176 177/177/177
f 27/27/27 177/177/177 28/28/28
f 178/178/178 176/176/176 167/167/167
f 176/176/176 178/178/178 177/177/177
f 177/177/177 179/179/179 28/28/28
f 177/177/177 178/178/178 179/179/179
f 28/28/28 179/179/179 29/29/29
f 180/180/180 178/178/178 167/167/167
f 170/170/170 180/180/180 167/167/167
f 170/170/170 181/181/181 180/180/180
f 181/181/181 182/182/182 180/180/180
f 180/180/180 182/182/182 178/178/178
f 181/181/181 82/82/82 182/182/182
f 82/82/82 81/81/81 182/182/182
f 182/182/182 183/183/183 178/178/178
f 182/182/182 81/81/81 183/183/183
f 178/178/178 183/183/183 179/179/179
f 81/81/81 184/184/184 183/183/183
f 183/183/183 184/184/184 179/179/179
f 81/81/81 70/70/70 184/184/184
f 70/70/70 69/69/69 184/184/184
f 179/179/179 185/185/185 29/29/29
f 184/184/184 185/185/185 179/179/179
f 184/184/184 69/69/69 185/185/185
f 185/185/185 39/39/39 29/29/29
f 69/69/69 39/39/39 185/185/185
f 188/188/188 187/187/187 186/186/186
f 187/187/187 189/189/189 186/186/186
f 187/187/187 190/190/190 189/189/189
f 189/189/189 191/191/191 186/186/186
f 191/191/191 192/192/192 186/186/186
f 192/192/192 193/193/193 186/186/186
f 193/193/193 194/194/194 186/186/186
f 194/194/194 193/193/193 195/195/195
f 193/193/193 196/196/196 195/195/195
f 195/195/195 196/196/196 197/197/197
f 196/196/196 198/198/198 197/197/197
f 197/197/197 198/198/198 199/199/199
f 198/198/198 200/200/200 199/199/199
f 199/199/199 200/200/200 201/201/201
f 200/200/200 202/202/202 201/201/201
f 201/201/201 202/202/202 203/203/203
f 202/202/202 204/204/204 203/203/203
f 203/203/203 204/204/204 205/205/205
f 204/204/204 206/206/206 205/205/205
f 205/205/205 206/206/206 207/207/207
f 206/206/206 208/208/208 207/207/207
f 207/207/207 208/208/208 209/209/209
f 208/208/208 210/210/210 209/209/209
f 210/210/210 211/211/211 209/209/209
f 211/211/211 212/212/212 209/209/209
f 211/211/211 213/213/213 212/212/212
f 213/213/213 214/214/214 212/212/212
f 214/214/214 213/213/213 215/215/215
f 213/213/213 216/216/216 215/215/215
f 217/217/217 214/214/214 215/215/215
f 218/218/218 217/217/217 215/215/215
f 216/216/216 219/219/219 215/215/215
f 218/218/218 215/215/215 220/220/220
f 219/219/219 221/221/221 215/215/215
f 215/215/215 221/221/221 220/220/220
f 219/219/219 222/222/222 221/221/221
f 221/221/221 223/223/223 220/220/220
f 222/222/222 223/223/223 221/221/221
f 223/223/223 224/224/224 220/220/220
f 224/224/224 223/223/223 225/225/225
f 222/222/222 226/226/226 223/223/223
f 223/223/223 227/227/227 225/225/225
f 226/226/226 227/227/227 223/223/223
f 225/225/225 227/227/227 228/228/228
f 227/227/227 226/226/226 229/229/229
f 226/226/226 230/230/230 229/229/229
f 230/230/230 231/231/231 229/229/229
f 231/231/231 232/232/232 229/229/229
f 231/231/231 233/233/233 232/232/232
f 227/227/227 229/229/229 234/234/234
f 229/229/229 232/232/232 234/234/234
f 227/227/227 235/235/235 228/228/228
f 235/235/235 227/227/227 234/234/234
f 235/235/235 234/234/234 236/236/236
f 235/235/235 237/237/237 228/228/228
f 237/237/237 235/235/235 236/236/236
f 237/237/237 238/238/238 228/228/228
f 238/238/238 237/237/237 236/236/236
f 239/239/239 238/238/238 236/236/236
f 239/239/239 236/236/236 240/240/240
f 241/241/241 239/239/239 240/240/240
f 242/242/242 241/241/241 240/240/240
f 243/243/243 242/242/242 240/240/240
f 232/232/232 244/244/244 234/234/234
f 234/234/234 244/244/244 236/236/236
f 236/236/236 245/245/245 240/240/240
f 244/244/244 245/245/245 236/236/236
f 246/246/246 243/243/243 240/240/240
f 243/243/243 246/246/246 247/247/247
f 246/246/246 248/248/248 247/247/247
f 249/249/249 246/246/246 240/240/240
f 245/245/245 249/249/249 240/240/240
f 246/246/246 249/249/249 248/248/248
f 232/232/232 250/250/250 244/244/244
f 233/233/233 250/250/250 232/232/232
f 244/244/244 251/251/251 245/245/245
f 251/251/251 249/249/249 245/245/245
f 250/250/250 251/251/251 244/244/244
f 251/251/251 250/250/250 252/252/252
f 250/250/250 233/233/233 253/253/253
f 250/250/250 253/253/253 252/252/252
f 253/253/253 254/254/254 252/252/252
f 233/233/233 255/255/255 253/253/253
f 253/253/253 255/255/255 254/254/254
f 255/255/255 256/256/256 254/254/254
f 256/256/256 257/257/257 254/254/254
f 249/249/249 258/258/258 248/248/248
f 249/249/249 251/251/251 258/258/258
f 259/259/259 251/251/251 252/252/252
f 251/251/251 259/259/259 258/258/258
f 258/258/258 260/260/260 248/248/248
f 260/260/260 261/261/261 248/248/248
f 257/257/257 262/262/262 254/254/254
f 257/257/257 263/263/263 262/262/262
f 259/259/259 264/264/264 258/258/258
f 264/264/264 260/260/260 258/258/258
f 260/260/260 265/265/265 261/261/261
f 265/265/265 266/266/266 261/261/261
f 267/267/267 266/266/266 265/265/265
f 264/264/264 268/268/268 260/260/260
f 268/268/268 265/265/265 260/260/260
f 269/269/269 264/264/264 259/259/259
f 264/264/264 269/269/269 268/268/268
f 270/270/270 267/267/267 265/265/265
f 271/271/271 267/267/267 270/270/270
f 272/272/272 269/269/269 259/259/259
f 272/272/272 259/259/259 252/252/252
f 269/269/269 272/272/272 252/252/252
f 273/273/273 269/269/269 252/252/252
f 254/254/254 273/273/273 252/252/252
f 274/274/274 269/269/269 273/273/273
f 269/269/269 274/274/274 268/268/268
f 275/275/275 273/273/273 254/254/254
f 275/275/275 274/274/274 273/273/273
f 262/262/262 275/275/275 254/254/254
f 268/268/268 276/276/276 265/265/265
f 276/276/276 270/270/270 265/265/265
f 274/274/274 277/277/277 268/268/268
f 277/277/277 274/274/274 275/275/275
f 277/277/277 276/276/276 268/268/268
f 278/278/278 271/271/271 270/270/270
f 279/279/279 271/271/271 278/278/278
f 280/280/280 275/275/275 262/262/262
f 280/280/280 277/277/277 275/275/275
f 276/276/276 281/281/281 270/270/270
f 281/281/281 278/278/278 270/270/270
f 277/277/277 282/282/282 276/276/276
f 282/282/282 281/281/281 276/276/276
f 282/282/282 277/277/277 280/280/280
f 283/283/283 279/279/279 278/278/278
f 279/279/279 283/283/283 284/284/284
f 281/281/281 285/285/285 278/278/278
f 285/285/285 281/281/281 282/282/282
f 285/285/285 283/283/283 278/278/278
f 286/286/286 280/280/280 262/262/262
f 263/263/263 286/286/286 262/262/262
f 263/263/263 287/287/287 286/286/286
f 287/287/287 288/288/288 286/286/286
f 286/286/286 288/288/288 280/280/280
f 287/287/287 289/289/289 288/288/288
f 290/290/290 282/282/282 280/280/280
f 288/288/288 290/290/290 280/280/280
f 291/291/291 285/285/285 282/282/282
f 291/291/291 282/282/282 290/290/290
f 285/285/285 292/292/292 283/283/283
f 292/292/292 285/285/285 291/291/291
f 289/289/289 293/293/293 288/288/288
f 288/288/288 293/293/293 290/290/290
f 293/293/293 289/289/289 294/294/294
f 289/289/289 295/295/295 294/294/294
f 295/295/295 296/296/296 294/294/294
f 293/293/293 297/297/297 290/290/290
f 297/297/297 291/291/291 290/290/290
f 297/297/297 293/293/293 294/294/294
f 291/291/291 297/297/297 298/298/298
f 298/298/298 297/297/297 294/294/294
f 296/296/296 299/299/299 294/294/294
f 296/296/296 300/300/300 299/299/299
f 292/292/292 301/301/301 283/283/283
f 301/301/301 292/292/292 302/302/302
f 283/283/283 301/301/301 284/284/284
f 284/284/284 301/301/301 302/302/302
f 303/303/303 284/284/284 302/302/302
f 304/304/304 303/303/303 302/302/302
f 305/305/305 292/292/292 291/291/291
f 305/305/305 291/291/291 298/298/298
f 292/292/292 305/305/305 302/302/302
f 306/306/306 298/298/298 294/294/294
f 299/299/299 306/306/306 294/294/294
f 307/307/307 305/305/305 298/298/298
f 305/305/305 307/307/307 302/302/302
f 306/306/306 307/307/307 298/298/298
f 308/308/308 307/307/307 306/306/306
f 307/307/307 309/309/309 302/302/302
f 309/309/309 304/304/304 302/302/302
f 307/307/307 308/308/308 309/309/309
f 309/309/309 310/310/310 304/304/304
f 308/308/308 310/310/310 309/309/309
f 310/310/310 311/311/311 304/304/304
f 311/311/311 310/310/310 312/312/312
f 310/310/310 313/313/313 312/312/312
f 310/310/310 308/308/308 313/313/313
f 314/314/314 306/306/306 299/299/299
f 314/314/314 308/308/308 306/306/306
f 308/308/308 314/314/314 315/315/315
f 308/308/308 316/316/316 313/313/313
f 316/316/316 308/308/308 315/315/315
f 313/313/313 316/316/316 317/317/317
f 318/318/318 314/314/314 299/299/299
f 314/314/314 318/318/318 315/315/315
f 300/300/300 318/318/318 299/299/299
f 300/300/300 319/319/319 318/318/318
f 316/316/316 320/320/320 317/317/317
f 320/320/320 316/316/316 315/315/315
f 317/317/317 320/320/320 321/321/321
f 319/319/319 322/322/322 318/318/318
f 318/318/318 322/322/322 315/315/315
f 319/319/319 323/323/323 322/322/322
f 320/320/320 324/324/324 321/321/321
f 324/324/324 320/320/320 315/315/315
f 322/322/322 325/325/325 315/315/315
f 325/325/325 324/324/324 315/315/315
f 324/324/324 325/325/325 321/321/321
f 323/323/323 325/325/325 322/322/322
f 325/325/325 323/323/323 326/326/326
f 325/325/325 327/327/327 321/321/321
f 327/327/327 325/325/325 326/326/326
f 323/323/323 328/328/328 326/326/326
f 329/329/329 327/327/327 326/326/326
f 190/190/190 329/329/329 326/326/326
f 328/328/328 330/330/330 326/326/326
f 331/331/331 190/190/190 326/326/326
f 330/330/330 331/331/331 326/326/326
f 190/190/190 331/331/331 189/189/189
f 331/331/331 330/330/330 189/189/189
f 330/330/330 191/191/191 189/189/189
