g Helicopter_TopWings
v -1.408263 -0.1393243 3.07465
v -1.385841 -0.2834808 3.043643
v -1.499172 -0.2716424 2.923108
v -1.525373 -0.1270898 2.950095
v -1.554603 -0.2356354 2.768837
v -1.582652 -0.0898834 2.790679
v -1.394956 -0.08593443 3.055431
v -1.503126 -0.07463316 2.940387
v -1.250229 -0.07221372 3.118385
v -1.251569 -0.1244708 3.142809
v -1.093965 -0.03584837 3.118362
v -1.082388 -0.08509763 3.142783
v -0.9531859 0.01688112 3.055366
v -0.9299706 -0.02801207 3.074581
v -1.55603 -0.0402667 2.793144
v -1.570196 -0.03414243 2.623987
v -0.8523329 0.0767914 2.940405
v -0.8206853 0.03690737 2.950008
v -0.7288824 0.1518042 2.531232
v -0.6985671 0.1161914 2.543493
v -0.5922637 0.1685108 2.191283
v -0.6221981 0.1999994 2.179073
v -0.8523329 0.0767914 2.940405
v -0.4686068 0.203183 1.78418
v -1.544535 0.0111719 2.639312
v -0.7288824 0.1518042 2.531232
v -1.36183 0.05331606 2.254989
v -1.334837 0.09436159 2.267657
v -1.153525 0.1496295 1.947958
v -1.180507 0.1127478 1.93541
v -0.4982055 0.2299048 1.772043
v -0.3607302 0.2109125 1.431267
v -0.9426528 0.1877722 1.57872
v -0.3901284 0.2335077 1.419206
v 0.02917274 0.184397 0.05580338
v 0.06026222 0.1775641 0.06031601
v -0.7587212 0.1985657 1.258878
v -0.04478538 0.1773859 0.02363297
v -0.7858425 0.170614 1.246354
v -0.06863304 0.1653455 0.004250644
v -0.9696819 0.1556818 1.566224
v -0.9541 0.0509363 1.572642
v -1.164172 -0.008769511 1.94059
v -0.7708492 0.08051821 1.253129
v -0.7858425 0.170614 1.246354
v -0.06863304 0.1653455 0.004250644
v -0.05722435 0.132378 0.01297715
v -0.369612 0.1185535 1.427658
v 0.06026222 0.1775641 0.06031601
v 0.04845192 0.1423956 0.05894333
v -0.3607302 0.2109125 1.431267
v -0.4766164 0.09619936 1.780336
v -0.4686068 0.203183 1.78418
v -0.5987267 0.044834 2.186546
v -0.5922637 0.1685108 2.191283
v -0.7032232 -0.02177977 2.537443
v -0.6985671 0.1161914 2.543493
v -0.8172634 -0.1129577 2.923064
v -0.8206853 0.03690737 2.950008
v -0.9299706 -0.02801207 3.074581
v -0.9229854 -0.1757593 3.043576
v -1.082388 -0.08509763 3.142783
v -1.070484 -0.2310046 3.109578
v -1.234205 -0.269107 3.109601
v -1.251569 -0.1244708 3.142809
v -1.408263 -0.1393243 3.07465
v -1.385841 -0.2834808 3.043643
v -0.7708492 0.08051821 1.253129
v -0.0431765 0.1313361 0.02427994
v -0.05722435 0.132378 0.01297715
v -0.7544155 0.07531435 1.260608
v -0.9375939 0.04465029 1.580044
v -0.9541 0.0509363 1.572642
v -0.3858218 0.1102558 1.420937
v 0.03078102 0.1383472 0.05645035
v 0.04845192 0.1423956 0.05894333
v -0.369612 0.1185535 1.427658
v -0.4766164 0.09619936 1.780336
v -0.4927447 0.08682009 1.773542
v -0.5987267 0.044834 2.186546
v -0.614684 0.0342676 2.179495
v -0.7032232 -0.02177977 2.537443
v -1.147513 -0.01624265 1.947728
v -1.164172 -0.008769511 1.94059
v -0.7189654 -0.03331907 2.530022
v -1.327924 -0.09104673 2.26514
v -1.344776 -0.08259702 2.258382
v -1.542553 -0.1817126 2.60758
v -0.8320068 -0.1249499 2.912714
v -0.8172634 -0.1129577 2.923064
v -1.524209 -0.1905682 2.611621
v -1.554603 -0.2356354 2.768837
v -0.9328609 -0.1848608 3.027676
v -0.9229854 -0.1757593 3.043576
v -1.535704 -0.2420093 2.765453
v -1.499172 -0.2716424 2.923108
v -1.07364 -0.2375879 3.09067
v -1.070484 -0.2310046 3.109578
v -1.482799 -0.2763763 2.912696
v -1.385841 -0.2834808 3.043643
v -1.229903 -0.2739545 3.090693
v -1.234205 -0.269107 3.109601
v -1.37463 -0.2876751 3.02774
v -1.582652 -0.0898834 2.790679
v -1.554603 -0.2356354 2.768837
v -1.542553 -0.1817126 2.60758
v -1.570196 -0.03414243 2.623987
v -1.344776 -0.08259702 2.258382
v -1.36183 0.05331606 2.254989
v -1.164172 -0.008769511 1.94059
v -1.180507 0.1127478 1.93541
v 2.722972 -0.1393249 1.966903
v 2.696602 -0.2834808 1.939174
v 2.557323 -0.2716412 2.028469
v 2.579044 -0.1270898 2.059176
v 2.395502 -0.2356347 2.054657
v 2.411827 -0.0898834 2.086237
v 2.706518 -0.08593443 1.950296
v 2.573583 -0.07463316 2.035525
v 2.794955 -0.07221434 1.819575
v 2.818718 -0.1244714 1.825373
v 2.823599 -0.03584715 1.665959
v 2.84973 -0.08509763 1.659058
v 2.7875 0.01688051 1.516012
v 2.810647 -0.02801207 1.496715
v 2.419133 -0.0402667 2.060519
v 2.250248 -0.03414243 2.043413
v 2.69299 0.0767914 1.39578
v 2.708235 0.03690798 1.366431
v 2.313409 0.1518042 1.19936
v 2.331023 0.1161908 1.171809
v 2.004293 0.168512 1.002696
v 1.986799 0.1999994 1.029883
v 2.69299 0.0767914 1.39578
v 1.626785 0.203183 0.806453
v 2.27002 0.01117251 2.020998
v 2.313409 0.1518042 1.19936
v 1.925739 0.05331545 1.770888
v 1.943143 0.09436159 1.746678
v 1.662133 0.1496308 1.509793
v 1.644848 0.1127484 1.534015
v 1.609424 0.2299048 0.8333232
v 1.299652 0.2109119 0.6356651
v 1.337847 0.1877722 1.234761
v 1.282402 0.2335071 0.6623503
v 0.01906105 0.184397 4.501663E-05
v 0.02920143 0.1775647 -0.02968918
v 1.057175 0.1985657 0.9952751
v -0.02613182 0.1773865 0.06684586
v 1.039887 0.1706134 1.019639
v -0.04955955 0.1653455 0.08673233
v 1.320605 0.1556818 1.259039
v 1.329771 0.0509363 1.2449
v 1.652936 -0.0087689 1.518907
v 1.049299 0.08051821 1.006143
v 1.039887 0.1706134 1.019639
v -0.04955955 0.1653455 0.08673233
v -0.03888817 0.132378 0.07711869
v 1.294475 0.1185535 0.6437337
v 0.02920143 0.1775647 -0.02968918
v 0.02568459 0.1423956 -0.01833145
v 1.299652 0.2109119 0.6356651
v 1.621537 0.09619936 0.8136213
v 1.626785 0.203183 0.806453
v 1.998451 0.04483339 1.00818
v 2.004293 0.168512 1.002696
v 2.324223 -0.02177977 1.175277
v 2.331023 0.1161908 1.171809
v 2.682377 -0.1129577 1.358125
v 2.708235 0.03690798 1.366431
v 2.810647 -0.02801207 1.496715
v 2.781449 -0.1757599 1.484161
v 2.84973 -0.08509763 1.659058
v 2.819272 -0.2310046 1.641264
v 2.789259 -0.2691064 1.802211
v 2.818718 -0.1244714 1.825373
v 2.722972 -0.1393249 1.966903
v 2.696602 -0.2834808 1.939174
v 1.049299 0.08051821 1.006143
v -0.02520103 0.1313361 0.06538223
v -0.03888817 0.132378 0.07711869
v 1.059667 0.07531435 0.9913603
v 1.340075 0.04465029 1.230031
v 1.329771 0.0509363 1.2449
v 1.284894 0.1102564 0.6584352
v 0.01999245 0.1383472 -0.001417691
v 0.02568459 0.1423956 -0.01833145
v 1.294475 0.1185535 0.6437337
v 1.621537 0.09619936 0.8136213
v 1.6119 0.0868207 0.8282298
v 1.998451 0.04483339 1.00818
v 1.988592 0.03426882 1.022573
v 2.324223 -0.02177977 1.175277
v 1.663009 -0.01624265 1.50384
v 1.652936 -0.0087689 1.518907
v 2.314039 -0.03331907 1.18939
v 1.941938 -0.09104612 1.73942
v 1.932203 -0.08259702 1.754746
v 2.239191 -0.1817126 2.013228
v 2.669498 -0.1249499 1.370719
v 2.682377 -0.1129577 1.358125
v 2.246529 -0.1905688 1.995938
v 2.395502 -0.2356347 2.054657
v 2.764007 -0.1848608 1.490952
v 2.781449 -0.1757599 1.484161
v 2.39564 -0.2420086 2.035458
v 2.557323 -0.2716412 2.028469
v 2.800107 -0.2375885 1.640898
v 2.819272 -0.2310046 1.641264
v 2.550091 -0.2763751 2.010463
v 2.696602 -0.2834808 1.939174
v 2.771462 -0.2739545 1.794513
v 2.789259 -0.2691064 1.802211
v 2.683026 -0.2876751 1.925236
v 2.411827 -0.0898834 2.086237
v 2.395502 -0.2356347 2.054657
v 2.239191 -0.1817126 2.013228
v 2.250248 -0.03414243 2.043413
v 1.932203 -0.08259702 1.754746
v 1.925739 0.05331545 1.770888
v 1.652936 -0.0087689 1.518907
v 1.644848 0.1127484 1.534015
v -2.623009 -0.1393249 -2.057421
v -2.598246 -0.2834808 -2.02825
v -2.454155 -0.2716412 -2.109555
v -2.474112 -0.1270898 -2.141436
v -2.291114 -0.2356347 -2.126581
v -2.305634 -0.0898834 -2.159031
v -2.607518 -0.08593443 -2.039913
v -2.469992 -0.07463255 -2.117515
v -2.703181 -0.07221372 -1.914382
v -2.72658 -0.1244714 -1.921511
v -2.740437 -0.03584776 -1.762625
v -2.766916 -0.08509763 -1.757208
v -2.712844 0.01688051 -1.610882
v -2.737043 -0.02801207 -1.592921
v -2.314379 -0.04026731 -2.133767
v -2.146726 -0.03414305 -2.107169
v -2.625262 0.0767914 -1.485516
v -2.642137 0.03690859 -1.457072
v -2.257352 0.1518042 -1.268018
v -2.276492 0.1161908 -1.241503
v -1.95981 0.168512 -1.054246
v -1.940811 0.1999988 -1.080403
v -2.625262 0.0767914 -1.485516
v -1.59396 0.203183 -0.8370408
v -2.167731 0.01117251 -2.085905
v -2.257352 0.1518042 -1.268018
v -1.83809 0.05331545 -1.81679
v -1.856831 0.09436159 -1.793599
v -1.589617 0.1496308 -1.541256
v -1.570994 0.1127484 -1.564465
v -1.575113 0.2299048 -0.8628898
v -1.276972 0.2109125 -0.6480894
v -1.281344 0.1877728 -1.248386
v -1.258246 0.2335071 -0.6737605
v -0.03423546 0.184397 0.05868515
v -0.04603538 0.1775641 0.08780136
v -1.014615 0.1985657 -0.9934636
v 0.01464943 0.1773865 -0.005461575
v -0.9959826 0.170614 -1.016814
v 0.03916176 0.1653455 -0.02399673
v -1.262761 0.1556824 -1.271654
v -1.272711 0.0509363 -1.258053
v -1.579921 -0.0087689 -1.549837
v -1.00614 0.08051882 -1.00387
v -0.9959826 0.170614 -1.016814
v 0.03916176 0.1653455 -0.02399673
v 0.02796486 0.132378 -0.01499893
v -1.271348 0.1185535 -0.6558534
v -0.04603538 0.1775641 0.08780136
v -0.04188377 0.1423956 0.0766594
v -1.276972 0.2109125 -0.6480894
v -1.588316 0.09619936 -0.8439021
v -1.59396 0.203183 -0.8370408
v -1.953668 0.04483339 -1.059392
v -1.95981 0.168512 -1.054246
v -2.269506 -0.02177977 -1.244582
v -2.276492 0.1161908 -1.241503
v -2.616788 -0.1129577 -1.447322
v -2.642137 0.03690859 -1.457072
v -2.737043 -0.02801207 -1.592921
v -2.708599 -0.1757599 -1.578742
v -2.766916 -0.08509763 -1.757208
v -2.737508 -0.231004 -1.737727
v -2.698474 -0.2691064 -1.896726
v -2.72658 -0.1244714 -1.921511
v -2.623009 -0.1393249 -2.057421
v -2.598246 -0.2834808 -2.02825
v -1.00614 0.08051882 -1.00387
v 0.01363747 0.1313361 -0.004053494
v 0.02796486 0.132378 -0.01499893
v -1.017323 0.07531435 -0.989695
v -1.283837 0.04465029 -1.243789
v -1.272711 0.0509363 -1.258053
v -1.260954 0.1102564 -0.6699916
v -0.03524742 0.1383466 0.06009385
v -0.04188377 0.1423956 0.0766594
v -1.271348 0.1185535 -0.6558534
v -1.588316 0.09619936 -0.8439021
v -1.577872 0.08682009 -0.8579445
v -1.953668 0.04483339 -1.059392
v -1.943015 0.03426882 -1.073207
v -2.269506 -0.02177977 -1.244582
v -1.590827 -0.01624265 -1.535361
v -1.579921 -0.0087689 -1.549837
v -2.258544 -0.03331907 -1.258099
v -1.856036 -0.09104551 -1.786286
v -1.845454 -0.08259702 -1.801038
v -2.137387 -0.1817132 -2.076409
v -2.603219 -0.1249499 -1.459171
v -2.616788 -0.1129577 -1.447322
v -2.145688 -0.1905688 -2.05956
v -2.291114 -0.2356347 -2.126581
v -2.690802 -0.1848608 -1.584538
v -2.708599 -0.1757599 -1.578742
v -2.292336 -0.2420086 -2.107421
v -2.454155 -0.2716412 -2.109555
v -2.718395 -0.2375885 -1.736281
v -2.737508 -0.231004 -1.737727
v -2.447949 -0.2763751 -2.091169
v -2.598246 -0.2834808 -2.02825
v -2.681139 -0.2739545 -1.888037
v -2.698474 -0.2691064 -1.896726
v -2.585476 -0.2876751 -2.013569
v -2.305634 -0.0898834 -2.159031
v -2.291114 -0.2356347 -2.126581
v -2.137387 -0.1817132 -2.076409
v -2.146726 -0.03414305 -2.107169
v -1.845454 -0.08259702 -1.801038
v -1.83809 0.05331545 -1.81679
v -1.579921 -0.0087689 -1.549837
v -1.570994 0.1127484 -1.564465
v 1.324454 -0.1393249 -3.040786
v 1.302769 -0.2834814 -3.009259
v 1.418905 -0.2716406 -2.891426
v 1.444463 -0.1270904 -2.919022
v 1.477952 -0.2356347 -2.738503
v 1.505478 -0.0898834 -2.760998
v 1.311603 -0.08593443 -3.021257
v 1.42245 -0.07463316 -2.908793
v 1.165433 -0.07221372 -3.080787
v 1.166199 -0.1244708 -3.105236
v 1.009214 -0.03584776 -3.077085
v 0.9970639 -0.08509763 -3.101228
v 0.8699564 0.01688051 -3.010793
v 0.8462955 -0.02801207 -3.029456
v 1.478807 -0.04026731 -2.762836
v 1.496951 -0.03414305 -2.594059
v 0.7718375 0.0767914 -2.89349
v 0.7399729 0.03690859 -2.902345
v 0.6580539 0.1518042 -2.481525
v 0.6274583 0.1161914 -2.493068
v 0.5294755 0.168512 -2.138453
v 0.5596891 0.1999994 -2.126951
v 0.7718375 0.0767914 -2.89349
v 0.4154361 0.203183 -1.728552
v 1.470936 0.01117251 -2.608776
v 0.6580539 0.1518042 -2.481525
v 1.297329 0.05331606 -2.220258
v 1.270046 0.09436159 -2.232287
v 1.09631 0.1496308 -1.908409
v 1.12358 0.1127484 -1.8965
v 0.4453129 0.2299048 -1.717115
v 0.3158982 0.2109119 -1.373197
v 0.894188 0.1877722 -1.534309
v 0.3455717 0.2335077 -1.361832
v -0.04151634 0.184397 0.01106308
v -0.07270408 0.1775647 0.007283786
v 0.7178367 0.1985657 -1.210225
v 0.03317787 0.1773859 0.04148423
v 0.7452451 0.1706134 -1.198342
v 0.05747414 0.1653455 0.06029953
v 0.9215031 0.1556824 -1.522452
v 0.9057755 0.0509363 -1.528502
v 1.107127 -0.0087689 -1.901294
v 0.7300962 0.08051821 -1.204764
v 0.7452451 0.1706134 -1.198342
v 0.05747414 0.1653455 0.06029953
v 0.04586403 0.132378 0.05184403
v 0.3248624 0.1185535 -1.369798
v -0.07270408 0.1775647 0.007283786
v -0.0608651 0.1423956 0.008378146
v 0.3158982 0.2109119 -1.373197
v 0.4235343 0.09619936 -1.724897
v 0.4154361 0.203183 -1.728552
v 0.5360478 0.044834 -2.13387
v 0.5294755 0.168512 -2.138453
v 0.6322556 -0.02177977 -2.48713
v 0.6274583 0.1161914 -2.493068
v 0.737186 -0.1129577 -2.875329
v 0.7399729 0.03690859 -2.902345
v 0.8462955 -0.02801207 -3.029456
v 0.8400419 -0.1757599 -2.998296
v 0.9970639 -0.08509763 -3.101228
v 0.9859458 -0.2310046 -3.067751
v 1.149621 -0.2691064 -3.071629
v 1.166199 -0.1244708 -3.105236
v 1.324454 -0.1393249 -3.040786
v 1.302769 -0.2834814 -3.009259
v 0.7300962 0.08051821 -1.204764
v 0.03155312 0.1313361 0.04087632
v 0.04586403 0.132378 0.05184403
v 0.7134916 0.07531435 -1.211854
v 0.8890995 0.04465029 -1.535513
v 0.9057755 0.0509363 -1.528502
v 0.341226 0.1102558 -1.363461
v -0.04314049 0.1383472 0.01045456
v -0.0608651 0.1423956 0.008378146
v 0.3248624 0.1185535 -1.369798
v 0.4235343 0.09619936 -1.724897
v 0.4398185 0.0868207 -1.718486
v 0.5360478 0.044834 -2.13387
v 0.5521665 0.03426882 -2.127198
v 0.6322556 -0.02177977 -2.48713
v 1.090305 -0.01624265 -1.908037
v 1.107127 -0.0087689 -1.901294
v 0.6481675 -0.03331907 -2.480081
v 1.263193 -0.09104612 -2.229608
v 1.2802 -0.08259702 -2.22325
v 1.469701 -0.1817132 -2.577006
v 0.7521684 -0.1249505 -2.865327
v 0.737186 -0.1129577 -2.875329
v 1.451267 -0.1905682 -2.580613
v 1.477952 -0.2356347 -2.738503
v 0.850289 -0.1848602 -2.982632
v 0.8400419 -0.1757599 -2.998296
v 1.459137 -0.2420086 -2.734673
v 1.418905 -0.2716406 -2.891426
v 0.9895462 -0.2375879 -3.048924
v 0.9859458 -0.2310046 -3.067751
v 1.402781 -0.2763757 -2.88063
v 1.302769 -0.2834814 -3.009259
v 1.145764 -0.273955 -3.052624
v 1.149621 -0.2691064 -3.071629
v 1.291935 -0.2876751 -2.993096
v 1.505478 -0.0898834 -2.760998
v 1.477952 -0.2356347 -2.738503
v 1.469701 -0.1817132 -2.577006
v 1.496951 -0.03414305 -2.594059
v 1.2802 -0.08259702 -2.22325
v 1.297329 0.05331606 -2.220258
v 1.107127 -0.0087689 -1.901294
v 1.12358 0.1127484 -1.8965
vt 0.1104736 0.9111328
vt 0.1118774 0.9072266
vt 0.1113892 0.9082031
vt 0.1100464 0.9101563
vt 0.1104126 0.9086914
vt 0.1091919 0.9091797
vt 0.1101074 0.9111328
vt 0.1097412 0.9101563
vt 0.1101074 0.9121094
vt 0.1104736 0.9121094
vt 0.1096802 0.9130859
vt 0.1099854 0.9130859
vt 0.1088867 0.9135742
vt 0.1090698 0.9135742
vt 0.1090088 0.909668
vt 0.1080933 0.9086914
vt 0.1079102 0.9135742
vt 0.1079712 0.9140625
vt 0.1049805 0.9140625
vt 0.1050415 0.9140625
vt 0.102356 0.9140625
vt 0.102356 0.9135742
vt 0.1079102 0.9135742
vt 0.09924316 0.9135742
vt 0.1080322 0.9091797
vt 0.1049805 0.9140625
vt 0.1051025 0.9086914
vt 0.1050415 0.9091797
vt 0.102356 0.9091797
vt 0.102356 0.9091797
vt 0.09924316 0.9135742
vt 0.09655762 0.9135742
vt 0.09924316 0.909668
vt 0.09655762 0.9130859
vt 0.08618164 0.9121094
vt 0.08612061 0.9121094
vt 0.09649658 0.9101563
vt 0.08618164 0.9111328
vt 0.09649658 0.909668
vt 0.08612061 0.9111328
vt 0.09924316 0.9091797
vt 0.09924316 0.9082031
vt 0.1027832 0.9086914
vt 0.09619141 0.9077148
vt 0.09649658 0.909668
vt 0.08612061 0.9111328
vt 0.08557129 0.90625
vt 0.09625244 0.9042969
vt 0.08612061 0.9121094
vt 0.08557129 0.9052734
vt 0.09655762 0.9135742
vt 0.09936523 0.9038086
vt 0.09924316 0.9135742
vt 0.1029053 0.9038086
vt 0.102356 0.9140625
vt 0.105957 0.9033203
vt 0.1050415 0.9140625
vt 0.1092529 0.9033203
vt 0.1079712 0.9140625
vt 0.1090698 0.9135742
vt 0.1104736 0.9038086
vt 0.1099854 0.9130859
vt 0.1113892 0.9047852
vt 0.1119385 0.9057617
vt 0.1104736 0.9121094
vt 0.1104736 0.9111328
vt 0.1118774 0.9072266
vt 0.09619141 0.9077148
vt 0.08563232 0.90625
vt 0.08557129 0.90625
vt 0.09619141 0.9077148
vt 0.0993042 0.9082031
vt 0.09924316 0.9082031
vt 0.09631348 0.9042969
vt 0.08563232 0.9052734
vt 0.08557129 0.9052734
vt 0.09625244 0.9042969
vt 0.09936523 0.9038086
vt 0.09936523 0.9042969
vt 0.1029053 0.9038086
vt 0.1029053 0.9038086
vt 0.105957 0.9033203
vt 0.1028442 0.9086914
vt 0.1027832 0.9086914
vt 0.105957 0.9033203
vt 0.105896 0.9091797
vt 0.105835 0.9091797
vt 0.1091919 0.9091797
vt 0.1092529 0.9033203
vt 0.1092529 0.9033203
vt 0.1091919 0.9091797
vt 0.1104126 0.9086914
vt 0.1104126 0.9038086
vt 0.1104736 0.9038086
vt 0.1103516 0.9086914
vt 0.1113892 0.9082031
vt 0.1112671 0.9047852
vt 0.1113892 0.9047852
vt 0.1112671 0.9082031
vt 0.1118774 0.9072266
vt 0.1117554 0.9057617
vt 0.1119385 0.9057617
vt 0.1117554 0.9072266
vt 0.1091919 0.9091797
vt 0.1104126 0.9086914
vt 0.1091919 0.9091797
vt 0.1080933 0.9086914
vt 0.105835 0.9091797
vt 0.1051025 0.9086914
vt 0.1027832 0.9086914
vt 0.102356 0.9091797
vt 0.1104736 0.9111328
vt 0.1118774 0.9072266
vt 0.1113892 0.9082031
vt 0.1100464 0.9101563
vt 0.1104126 0.9086914
vt 0.1091919 0.9091797
vt 0.1101074 0.9111328
vt 0.1097412 0.9101563
vt 0.1101074 0.9121094
vt 0.1104736 0.9121094
vt 0.1096802 0.9130859
vt 0.1099854 0.9130859
vt 0.1088867 0.9135742
vt 0.1090698 0.9135742
vt 0.1090088 0.909668
vt 0.1080933 0.9086914
vt 0.1079102 0.9135742
vt 0.1079712 0.9140625
vt 0.1049805 0.9140625
vt 0.1050415 0.9140625
vt 0.102356 0.9140625
vt 0.102356 0.9135742
vt 0.1079102 0.9135742
vt 0.09924316 0.9135742
vt 0.1080322 0.9091797
vt 0.1049805 0.9140625
vt 0.1051025 0.9086914
vt 0.1050415 0.9091797
vt 0.102356 0.9091797
vt 0.102356 0.9091797
vt 0.09924316 0.9135742
vt 0.09655762 0.9135742
vt 0.09924316 0.909668
vt 0.09655762 0.9130859
vt 0.08618164 0.9121094
vt 0.08612061 0.9121094
vt 0.09649658 0.9101563
vt 0.08618164 0.9111328
vt 0.09649658 0.909668
vt 0.08612061 0.9111328
vt 0.09924316 0.9091797
vt 0.09924316 0.9082031
vt 0.1027832 0.9086914
vt 0.09619141 0.9077148
vt 0.09649658 0.909668
vt 0.08612061 0.9111328
vt 0.08557129 0.90625
vt 0.09625244 0.9042969
vt 0.08612061 0.9121094
vt 0.08557129 0.9052734
vt 0.09655762 0.9135742
vt 0.09936523 0.9038086
vt 0.09924316 0.9135742
vt 0.1029053 0.9038086
vt 0.102356 0.9140625
vt 0.105957 0.9033203
vt 0.1050415 0.9140625
vt 0.1092529 0.9033203
vt 0.1079712 0.9140625
vt 0.1090698 0.9135742
vt 0.1104736 0.9038086
vt 0.1099854 0.9130859
vt 0.1113892 0.9047852
vt 0.1119385 0.9057617
vt 0.1104736 0.9121094
vt 0.1104736 0.9111328
vt 0.1118774 0.9072266
vt 0.09619141 0.9077148
vt 0.08563232 0.90625
vt 0.08557129 0.90625
vt 0.09619141 0.9077148
vt 0.0993042 0.9082031
vt 0.09924316 0.9082031
vt 0.09631348 0.9042969
vt 0.08563232 0.9052734
vt 0.08557129 0.9052734
vt 0.09625244 0.9042969
vt 0.09936523 0.9038086
vt 0.09936523 0.9042969
vt 0.1029053 0.9038086
vt 0.1029053 0.9038086
vt 0.105957 0.9033203
vt 0.1028442 0.9086914
vt 0.1027832 0.9086914
vt 0.105957 0.9033203
vt 0.105896 0.9091797
vt 0.105835 0.9091797
vt 0.1091919 0.9091797
vt 0.1092529 0.9033203
vt 0.1092529 0.9033203
vt 0.1091919 0.9091797
vt 0.1104126 0.9086914
vt 0.1104126 0.9038086
vt 0.1104736 0.9038086
vt 0.1103516 0.9086914
vt 0.1113892 0.9082031
vt 0.1112671 0.9047852
vt 0.1113892 0.9047852
vt 0.1112671 0.9082031
vt 0.1118774 0.9072266
vt 0.1117554 0.9057617
vt 0.1119385 0.9057617
vt 0.1117554 0.9072266
vt 0.1091919 0.9091797
vt 0.1104126 0.9086914
vt 0.1091919 0.9091797
vt 0.1080933 0.9086914
vt 0.105835 0.9091797
vt 0.1051025 0.9086914
vt 0.1027832 0.9086914
vt 0.102356 0.9091797
vt 0.1104736 0.9111328
vt 0.1118774 0.9072266
vt 0.1113892 0.9082031
vt 0.1100464 0.9101563
vt 0.1104126 0.9086914
vt 0.1091919 0.9091797
vt 0.1101074 0.9111328
vt 0.1097412 0.9101563
vt 0.1101074 0.9121094
vt 0.1104736 0.9121094
vt 0.1096802 0.9130859
vt 0.1099854 0.9130859
vt 0.1088867 0.9135742
vt 0.1090698 0.9135742
vt 0.1090088 0.909668
vt 0.1080933 0.9086914
vt 0.1079102 0.9135742
vt 0.1079712 0.9140625
vt 0.1049805 0.9140625
vt 0.1050415 0.9140625
vt 0.102356 0.9140625
vt 0.102356 0.9135742
vt 0.1079102 0.9135742
vt 0.09924316 0.9135742
vt 0.1080322 0.9091797
vt 0.1049805 0.9140625
vt 0.1051025 0.9086914
vt 0.1050415 0.9091797
vt 0.102356 0.9091797
vt 0.102356 0.9091797
vt 0.09924316 0.9135742
vt 0.09655762 0.9135742
vt 0.09924316 0.909668
vt 0.09655762 0.9130859
vt 0.08618164 0.9121094
vt 0.08612061 0.9121094
vt 0.09649658 0.9101563
vt 0.08618164 0.9111328
vt 0.09649658 0.909668
vt 0.08612061 0.9111328
vt 0.09924316 0.9091797
vt 0.09924316 0.9082031
vt 0.1027832 0.9086914
vt 0.09619141 0.9077148
vt 0.09649658 0.909668
vt 0.08612061 0.9111328
vt 0.08557129 0.90625
vt 0.09625244 0.9042969
vt 0.08612061 0.9121094
vt 0.08557129 0.9052734
vt 0.09655762 0.9135742
vt 0.09936523 0.9038086
vt 0.09924316 0.9135742
vt 0.1029053 0.9038086
vt 0.102356 0.9140625
vt 0.105957 0.9033203
vt 0.1050415 0.9140625
vt 0.1092529 0.9033203
vt 0.1079712 0.9140625
vt 0.1090698 0.9135742
vt 0.1104736 0.9038086
vt 0.1099854 0.9130859
vt 0.1113892 0.9047852
vt 0.1119385 0.9057617
vt 0.1104736 0.9121094
vt 0.1104736 0.9111328
vt 0.1118774 0.9072266
vt 0.09619141 0.9077148
vt 0.08563232 0.90625
vt 0.08557129 0.90625
vt 0.09619141 0.9077148
vt 0.0993042 0.9082031
vt 0.09924316 0.9082031
vt 0.09631348 0.9042969
vt 0.08563232 0.9052734
vt 0.08557129 0.9052734
vt 0.09625244 0.9042969
vt 0.09936523 0.9038086
vt 0.09936523 0.9042969
vt 0.1029053 0.9038086
vt 0.1029053 0.9038086
vt 0.105957 0.9033203
vt 0.1028442 0.9086914
vt 0.1027832 0.9086914
vt 0.105957 0.9033203
vt 0.105896 0.9091797
vt 0.105835 0.9091797
vt 0.1091919 0.9091797
vt 0.1092529 0.9033203
vt 0.1092529 0.9033203
vt 0.1091919 0.9091797
vt 0.1104126 0.9086914
vt 0.1104126 0.9038086
vt 0.1104736 0.9038086
vt 0.1103516 0.9086914
vt 0.1113892 0.9082031
vt 0.1112671 0.9047852
vt 0.1113892 0.9047852
vt 0.1112671 0.9082031
vt 0.1118774 0.9072266
vt 0.1117554 0.9057617
vt 0.1119385 0.9057617
vt 0.1117554 0.9072266
vt 0.1091919 0.9091797
vt 0.1104126 0.9086914
vt 0.1091919 0.9091797
vt 0.1080933 0.9086914
vt 0.105835 0.9091797
vt 0.1051025 0.9086914
vt 0.1027832 0.9086914
vt 0.102356 0.9091797
vt 0.1104736 0.9111328
vt 0.1118774 0.9072266
vt 0.1113892 0.9082031
vt 0.1100464 0.9101563
vt 0.1104126 0.9086914
vt 0.1091919 0.9091797
vt 0.1101074 0.9111328
vt 0.1097412 0.9101563
vt 0.1101074 0.9121094
vt 0.1104736 0.9121094
vt 0.1096802 0.9130859
vt 0.1099854 0.9130859
vt 0.1088867 0.9135742
vt 0.1090698 0.9135742
vt 0.1090088 0.909668
vt 0.1080933 0.9086914
vt 0.1079102 0.9135742
vt 0.1079712 0.9140625
vt 0.1049805 0.9140625
vt 0.1050415 0.9140625
vt 0.102356 0.9140625
vt 0.102356 0.9135742
vt 0.1079102 0.9135742
vt 0.09924316 0.9135742
vt 0.1080322 0.9091797
vt 0.1049805 0.9140625
vt 0.1051025 0.9086914
vt 0.1050415 0.9091797
vt 0.102356 0.9091797
vt 0.102356 0.9091797
vt 0.09924316 0.9135742
vt 0.09655762 0.9135742
vt 0.09924316 0.909668
vt 0.09655762 0.9130859
vt 0.08618164 0.9121094
vt 0.08612061 0.9121094
vt 0.09649658 0.9101563
vt 0.08618164 0.9111328
vt 0.09649658 0.909668
vt 0.08612061 0.9111328
vt 0.09924316 0.9091797
vt 0.09924316 0.9082031
vt 0.1027832 0.9086914
vt 0.09619141 0.9077148
vt 0.09649658 0.909668
vt 0.08612061 0.9111328
vt 0.08557129 0.90625
vt 0.09625244 0.9042969
vt 0.08612061 0.9121094
vt 0.08557129 0.9052734
vt 0.09655762 0.9135742
vt 0.09936523 0.9038086
vt 0.09924316 0.9135742
vt 0.1029053 0.9038086
vt 0.102356 0.9140625
vt 0.105957 0.9033203
vt 0.1050415 0.9140625
vt 0.1092529 0.9033203
vt 0.1079712 0.9140625
vt 0.1090698 0.9135742
vt 0.1104736 0.9038086
vt 0.1099854 0.9130859
vt 0.1113892 0.9047852
vt 0.1119385 0.9057617
vt 0.1104736 0.9121094
vt 0.1104736 0.9111328
vt 0.1118774 0.9072266
vt 0.09619141 0.9077148
vt 0.08563232 0.90625
vt 0.08557129 0.90625
vt 0.09619141 0.9077148
vt 0.0993042 0.9082031
vt 0.09924316 0.9082031
vt 0.09631348 0.9042969
vt 0.08563232 0.9052734
vt 0.08557129 0.9052734
vt 0.09625244 0.9042969
vt 0.09936523 0.9038086
vt 0.09936523 0.9042969
vt 0.1029053 0.9038086
vt 0.1029053 0.9038086
vt 0.105957 0.9033203
vt 0.1028442 0.9086914
vt 0.1027832 0.9086914
vt 0.105957 0.9033203
vt 0.105896 0.9091797
vt 0.105835 0.9091797
vt 0.1091919 0.9091797
vt 0.1092529 0.9033203
vt 0.1092529 0.9033203
vt 0.1091919 0.9091797
vt 0.1104126 0.9086914
vt 0.1104126 0.9038086
vt 0.1104736 0.9038086
vt 0.1103516 0.9086914
vt 0.1113892 0.9082031
vt 0.1112671 0.9047852
vt 0.1113892 0.9047852
vt 0.1112671 0.9082031
vt 0.1118774 0.9072266
vt 0.1117554 0.9057617
vt 0.1119385 0.9057617
vt 0.1117554 0.9072266
vt 0.1091919 0.9091797
vt 0.1104126 0.9086914
vt 0.1091919 0.9091797
vt 0.1080933 0.9086914
vt 0.105835 0.9091797
vt 0.1051025 0.9086914
vt 0.1027832 0.9086914
vt 0.102356 0.9091797
vn -0.574707 0.05792236 0.8164063
vn -0.5551758 -0.2565918 0.7910156
vn -0.8388672 -0.243042 0.4870605
vn -0.8452148 0.07263184 0.5292969
vn -0.9741211 -0.2022705 0.09857178
vn -0.9794922 0.1173706 0.1641846
vn -0.4226074 0.6870117 0.5913086
vn -0.5541992 0.6962891 0.4560547
vn -0.2512207 0.6982422 0.6704102
vn -0.2141113 0.07580566 0.9736328
vn -0.06518555 0.7294922 0.6806641
vn 0.1744385 0.1231079 0.9770508
vn 0.1092529 0.7768555 0.6201172
vn 0.5273438 0.1922607 0.8276367
vn -0.6264648 0.7255859 0.2841797
vn -0.949707 0.2086182 -0.2327881
vn 0.5961914 0.6157227 0.5151367
vn 0.7924805 0.2993164 0.53125
vn 0.6665039 0.6777344 0.3112793
vn 0.8813477 0.3452148 0.3220215
vn 0.8779297 0.3679199 0.3061523
vn 0.2800293 0.9418945 0.1859131
vn -0.1818848 0.9609375 0.2088623
vn 0.6044922 0.7651367 0.2216797
vn -0.5922852 0.8051758 0.03601074
vn -0.1434326 0.9829102 0.1154175
vn -0.862793 0.2543945 -0.4372559
vn -0.4890137 0.8662109 -0.1030273
vn -0.449707 0.8833008 -0.131958
vn -0.8515625 0.2749023 -0.4462891
vn 0.2695313 0.9550781 0.1245117
vn 0.5048828 0.8505859 0.1483154
vn -0.402832 0.8999023 -0.1668701
vn 0.2177734 0.9741211 0.05654907
vn 0.1810303 0.9833984 0.02297974
vn 0.4130859 0.9052734 0.09967041
vn -0.3276367 0.9277344 -0.1789551
vn -0.2836914 0.9423828 -0.1772461
vn -0.5581055 0.7695313 -0.310791
vn -0.4755859 0.8325195 -0.2836914
vn -0.8374023 0.296875 -0.4589844
vn -0.8500977 -0.1560059 -0.5029297
vn -0.8505859 -0.1357422 -0.5078125
vn -0.8452148 -0.2034912 -0.4943848
vn -0.8452148 -0.2044678 -0.4941406
vn -0.8388672 -0.2414551 -0.4880371
vn -0.8388672 -0.2414551 -0.4880371
vn 0.9492188 -0.1273193 0.2880859
vn 0.9428711 -0.1643066 0.2893066
vn 0.9428711 -0.1643066 0.2893066
vn 0.9492188 -0.1278076 0.2880859
vn 0.9555664 -0.08050537 0.2839355
vn 0.9550781 -0.08129883 0.2841797
vn 0.9580078 -0.06063843 0.2800293
vn 0.8779297 0.3679199 0.3061523
vn 0.9594727 -0.04327393 0.2785645
vn 0.8813477 0.3452148 0.3220215
vn 0.8759766 -0.06945801 0.4770508
vn 0.7924805 0.2993164 0.53125
vn 0.5273438 0.1922607 0.8276367
vn 0.605957 -0.1358643 0.7836914
vn 0.1744385 0.1231079 0.9770508
vn 0.2375488 -0.1971436 0.9511719
vn -0.1732178 -0.2401123 0.9550781
vn -0.2141113 0.07580566 0.9736328
vn -0.574707 0.05792236 0.8164063
vn -0.5551758 -0.2565918 0.7910156
vn -0.1828613 -0.9677734 -0.1723633
vn -0.02067566 -0.9980469 -0.0562439
vn -0.1295166 -0.984375 -0.1173706
vn -0.03933716 -0.9951172 -0.09216309
vn -0.0619812 -0.984375 -0.1639404
vn -0.2421875 -0.9345703 -0.2600098
vn 0.2460938 -0.96875 0.03341675
vn 0.2097168 -0.9765625 0.04467773
vn 0.3220215 -0.9433594 0.0803833
vn 0.3911133 -0.9169922 0.08013916
vn 0.4841309 -0.8725586 0.06158447
vn 0.3088379 -0.9511719 0.0003395081
vn 0.5415039 -0.8398438 0.02790833
vn 0.3522949 -0.9345703 -0.04510498
vn 0.5913086 -0.8066406 0.002502441
vn -0.06158447 -0.9711914 -0.2297363
vn -0.2631836 -0.90625 -0.3305664
vn 0.3896484 -0.9169922 -0.0824585
vn -0.06323242 -0.9560547 -0.2856445
vn -0.2849121 -0.8759766 -0.3891602
vn -0.3244629 -0.8706055 -0.3693848
vn 0.4384766 -0.8955078 -0.07733154
vn 0.6015625 -0.7978516 0.04174805
vn -0.1048584 -0.9414063 -0.3210449
vn -0.3464355 -0.9130859 -0.2149658
vn 0.3945313 -0.9179688 -0.03762817
vn 0.5166016 -0.8408203 0.1605225
vn -0.1026001 -0.9609375 -0.2565918
vn -0.2766113 -0.9609375 0.001840591
vn 0.2875977 -0.9575195 0.01803589
vn 0.3300781 -0.9072266 0.2607422
vn -0.06216431 -0.9892578 -0.1323242
vn -0.1149902 -0.9775391 0.1767578
vn 0.1578369 -0.9873047 0.02233887
vn 0.1038208 -0.9575195 0.269043
vn 0.03134155 -0.9990234 -0.03109741
vn -0.9794922 0.1173706 0.1641846
vn -0.9741211 -0.2022705 0.09857178
vn -0.9389648 -0.1450195 -0.3120117
vn -0.949707 0.2086182 -0.2327881
vn -0.8515625 -0.1182251 -0.5102539
vn -0.862793 0.2543945 -0.4372559
vn -0.8505859 -0.1357422 -0.5078125
vn -0.8515625 0.2749023 -0.4462891
vn 0.6967773 0.05792236 0.7148438
vn 0.6757813 -0.2565918 0.690918
vn 0.3249512 -0.243042 0.9140625
vn 0.3654785 0.07263184 0.9277344
vn -0.08184814 -0.2022705 0.9760742
vn -0.01823425 0.1173706 0.9931641
vn 0.5039063 0.6870117 0.5239258
vn 0.3466797 0.6962891 0.628418
vn 0.612793 0.6982422 0.369873
vn 0.9179688 0.07580566 0.3891602
vn 0.6572266 0.7294922 0.1889648
vn 0.9921875 0.1231079 0.007774353
vn 0.6298828 0.7768555 0.006374359
vn 0.9101563 0.1922607 -0.3664551
vn 0.1644287 0.7255859 0.6679688
vn -0.4030762 0.2086182 0.8911133
vn 0.6157227 0.6157227 -0.4914551
vn 0.6674805 0.2993164 -0.6816406
vn 0.4282227 0.6777344 -0.5981445
vn 0.4782715 0.3452148 -0.8076172
vn 0.4619141 0.3679199 -0.8071289
vn 0.2341309 0.9418945 -0.2412109
vn 0.171875 0.9609375 0.2171631
vn 0.3288574 0.7651367 -0.5537109
vn -0.07324219 0.8051758 0.5888672
vn 0.0871582 0.9829102 0.1621094
vn -0.5878906 0.2543945 0.7675781
vn -0.190918 0.8662109 0.4616699
vn -0.2121582 0.8833008 0.4177246
vn -0.5947266 0.2749023 0.7553711
vn 0.171875 0.9550781 -0.2420654
vn 0.2384033 0.8505859 -0.4689941
vn -0.237915 0.8999023 0.3654785
vn 0.09552002 0.9741211 -0.2037354
vn 0.05578613 0.9833984 -0.1737061
vn 0.1737061 0.9052734 -0.3876953
vn -0.2359619 0.9277344 0.2893066
vn -0.2263184 0.9423828 0.24646
vn -0.407959 0.7695313 0.4916992
vn -0.3662109 0.8325195 0.4155273
vn -0.6049805 0.296875 0.7387695
vn -0.6503906 -0.1560059 0.7436523
vn -0.6552734 -0.1357422 0.7431641
vn -0.6411133 -0.2034912 0.7402344
vn -0.640625 -0.2044678 0.7397461
vn -0.6337891 -0.2414551 0.7348633
vn -0.6337891 -0.2414551 0.7348633
vn 0.4572754 -0.1273193 -0.8798828
vn 0.4575195 -0.1643066 -0.8740234
vn 0.4575195 -0.1643066 -0.8740234
vn 0.4572754 -0.1278076 -0.8798828
vn 0.4545898 -0.08050537 -0.887207
vn 0.4545898 -0.08129883 -0.887207
vn 0.4511719 -0.06063843 -0.890625
vn 0.4619141 0.3679199 -0.8071289
vn 0.449707 -0.04327393 -0.8920898
vn 0.4782715 0.3452148 -0.8076172
vn 0.6293945 -0.06945801 -0.7739258
vn 0.6674805 0.2993164 -0.6816406
vn 0.9101563 0.1922607 -0.3664551
vn 0.8818359 -0.1358643 -0.4519043
vn 0.9921875 0.1231079 0.007774353
vn 0.9785156 -0.1971436 -0.05899048
vn 0.9072266 -0.2401123 0.345459
vn 0.9179688 0.07580566 0.3891602
vn 0.6967773 0.05792236 0.7148438
vn 0.6757813 -0.2565918 0.690918
vn -0.2030029 -0.9677734 0.1481934
vn -0.05908203 -0.9980469 0.01000214
vn -0.1391602 -0.984375 0.1057129
vn -0.09777832 -0.9951172 0.02177429
vn -0.1724854 -0.984375 0.03086853
vn -0.3000488 -0.9345703 0.1904297
vn 0.07800293 -0.96875 -0.2358398
vn 0.08239746 -0.9765625 -0.197876
vn 0.1380615 -0.9433594 -0.3017578
vn 0.1505127 -0.9169922 -0.3696289
vn 0.1494141 -0.8725586 -0.4645996
vn 0.05697632 -0.9511719 -0.3034668
vn 0.1268311 -0.8398438 -0.5273438
vn 0.02027893 -0.9345703 -0.3547363
vn 0.1109619 -0.8066406 -0.5810547
vn -0.2371826 -0.9711914 0.0184021
vn -0.3730469 -0.90625 0.197998
vn -0.00957489 -0.9169922 -0.3981934
vn -0.2924805 -0.9560547 0.009773254
vn -0.4348145 -0.8759766 0.2086182
vn -0.4226074 -0.8706055 0.2512207
vn 0.004451752 -0.8955078 -0.4453125
vn 0.1514893 -0.7978516 -0.5839844
vn -0.3349609 -0.9414063 0.04415894
vn -0.2749023 -0.9130859 0.3010254
vn 0.03536987 -0.9179688 -0.3947754
vn 0.2526855 -0.8408203 -0.4782715
vn -0.2709961 -0.9609375 0.05377197
vn -0.0489502 -0.9609375 0.2722168
vn 0.07049561 -0.9575195 -0.279541
vn 0.3168945 -0.9072266 -0.2766113
vn -0.1414795 -0.9892578 0.03683472
vn 0.1525879 -0.9775391 0.1455078
vn 0.05093384 -0.9873047 -0.151123
vn 0.2836914 -0.9575195 -0.05267334
vn -0.02482605 -0.9990234 -0.03652954
vn -0.01823425 0.1173706 0.9931641
vn -0.08184814 -0.2022705 0.9760742
vn -0.4790039 -0.1450195 0.8657227
vn -0.4030762 0.2086182 0.8911133
vn -0.6582031 -0.1182251 0.7436523
vn -0.5878906 0.2543945 0.7675781
vn -0.6552734 -0.1357422 0.7431641
vn -0.5947266 0.2749023 0.7553711
vn -0.6552734 0.05792236 -0.7529297
vn -0.6357422 -0.2565918 -0.7280273
vn -0.2729492 -0.243042 -0.9306641
vn -0.3125 0.07263184 -0.9472656
vn 0.1367188 -0.2022705 -0.9697266
vn 0.07415771 0.1173706 -0.9902344
vn -0.4736328 0.6870117 -0.5512695
vn -0.310791 0.6962891 -0.6469727
vn -0.5908203 0.6982422 -0.4038086
vn -0.8945313 0.07580566 -0.4401855
vn -0.6455078 0.7294922 -0.225708
vn -0.9902344 0.1231079 -0.06365967
vn -0.628418 0.7768555 -0.0418396
vn -0.9296875 0.1922607 0.3146973
vn -0.1264648 0.7255859 -0.6762695
vn 0.4526367 0.2086182 -0.8666992
vn -0.6425781 0.6157227 0.4560547
vn -0.7050781 0.2993164 0.6430664
vn -0.4611816 0.6777344 0.5727539
vn -0.5229492 0.3452148 0.7792969
vn -0.5068359 0.3679199 0.7797852
vn -0.2473145 0.9418945 0.2276611
vn -0.1594238 0.9609375 -0.2264404
vn -0.3596191 0.7651367 0.5341797
vn 0.1062622 0.8051758 -0.5834961
vn -0.07788086 0.9829102 -0.166748
vn 0.6303711 0.2543945 -0.7333984
vn 0.2166748 0.8662109 -0.4501953
vn 0.2353516 0.8833008 -0.4052734
vn 0.6367188 0.2749023 -0.7207031
vn -0.1851807 0.9550781 0.2319336
vn -0.2644043 0.8505859 0.454834
vn 0.2580566 0.8999023 -0.3515625
vn -0.1068726 0.9741211 0.197998
vn -0.06549072 0.9833984 0.1702881
vn -0.1953125 0.9052734 0.3774414
vn 0.2519531 0.9277344 -0.2756348
vn 0.2398682 0.9423828 -0.2332764
vn 0.4350586 0.7695313 -0.4680176
vn 0.388916 0.8325195 -0.3942871
vn 0.6455078 0.296875 -0.7036133
vn 0.6914063 -0.1560059 -0.7055664
vn 0.6962891 -0.1357422 -0.7050781
vn 0.6816406 -0.2034912 -0.7026367
vn 0.6816406 -0.2044678 -0.7026367
vn 0.6738281 -0.2414551 -0.6982422
vn 0.6738281 -0.2414551 -0.6982422
vn -0.5063477 -0.1273193 0.8530273
vn -0.5058594 -0.1643066 0.8466797
vn -0.5058594 -0.1643066 0.8466797
vn -0.5063477 -0.1278076 0.8530273
vn -0.5039063 -0.08050537 0.8598633
vn -0.5039063 -0.08129883 0.8598633
vn -0.5004883 -0.06063843 0.8637695
vn -0.5068359 0.3679199 0.7797852
vn -0.4992676 -0.04327393 0.8652344
vn -0.5229492 0.3452148 0.7792969
vn -0.6723633 -0.06945801 0.7373047
vn -0.7050781 0.2993164 0.6430664
vn -0.9296875 0.1922607 0.3146973
vn -0.9057617 -0.1358643 0.4016113
vn -0.9902344 0.1231079 -0.06365967
vn -0.9804688 -0.1971436 0.00374794
vn -0.8862305 -0.2401123 -0.3959961
vn -0.8945313 0.07580566 -0.4401855
vn -0.6552734 0.05792236 -0.7529297
vn -0.6357422 -0.2565918 -0.7280273
vn 0.2110596 -0.9677734 -0.1364746
vn 0.05957031 -0.9980469 -0.006656647
vn 0.1448975 -0.984375 -0.09771729
vn 0.09887695 -0.9951172 -0.01623535
vn 0.1739502 -0.984375 -0.02108765
vn 0.3103027 -0.9345703 -0.1732178
vn -0.09118652 -0.96875 0.230957
vn -0.09344482 -0.9765625 0.1929932
vn -0.1549072 -0.9433594 0.293457
vn -0.1711426 -0.9169922 0.3605957
vn -0.175293 -0.8725586 0.4555664
vn -0.07397461 -0.9511719 0.2998047
vn -0.1563721 -0.8398438 0.5195313
vn -0.04022217 -0.9345703 0.3530273
vn -0.1435547 -0.8066406 0.5737305
vn 0.237915 -0.9711914 -0.005001068
vn 0.3837891 -0.90625 -0.1767578
vn -0.01287842 -0.9169922 0.3981934
vn 0.2924805 -0.9560547 0.006717682
vn 0.4458008 -0.8759766 -0.1837158
vn 0.4360352 -0.8706055 -0.2269287
vn -0.02954102 -0.8955078 0.4443359
vn -0.184082 -0.7978516 0.5742188
vn 0.3369141 -0.9414063 -0.02522278
vn 0.2912598 -0.9130859 -0.2851563
vn -0.05755615 -0.9179688 0.3920898
vn -0.2790527 -0.8408203 0.4633789
vn 0.2736816 -0.9609375 -0.03839111
vn 0.06420898 -0.9609375 -0.269043
vn -0.08612061 -0.9575195 0.2751465
vn -0.3320313 -0.9072266 0.2583008
vn 0.1433105 -0.9892578 -0.02880859
vn -0.144165 -0.9775391 -0.1538086
vn -0.05935669 -0.9873047 0.1479492
vn -0.2861328 -0.9575195 0.03659058
vn 0.02272034 -0.9990234 0.03787231
vn 0.07415771 0.1173706 -0.9902344
vn 0.1367188 -0.2022705 -0.9697266
vn 0.5268555 -0.1450195 -0.8374023
vn 0.4526367 0.2086182 -0.8666992
vn 0.6987305 -0.1182251 -0.7055664
vn 0.6303711 0.2543945 -0.7333984
vn 0.6962891 -0.1357422 -0.7050781
vn 0.6367188 0.2749023 -0.7207031
vn 0.5556641 0.05792236 -0.8295898
vn 0.5366211 -0.2565918 -0.8041992
vn 0.8271484 -0.243042 -0.5068359
vn 0.8325195 0.07263184 -0.5493164
vn 0.9716797 -0.2022705 -0.121521
vn 0.9750977 0.1173706 -0.1872559
vn 0.4084473 0.6870117 -0.6010742
vn 0.5429688 0.6962891 -0.4689941
vn 0.2353516 0.6982422 -0.6757813
vn 0.1911621 0.07580566 -0.9785156
vn 0.0491333 0.7294922 -0.6821289
vn -0.1973877 0.1231079 -0.9726563
vn -0.1238403 0.7768555 -0.6176758
vn -0.5463867 0.1922607 -0.8149414
vn 0.6196289 0.7255859 -0.2988281
vn 0.9550781 0.2086182 0.2103271
vn -0.6079102 0.6157227 -0.5009766
vn -0.8046875 0.2993164 -0.5126953
vn -0.6733398 0.6777344 -0.2954102
vn -0.8886719 0.3452148 -0.3012695
vn -0.8852539 0.3679199 -0.2851563
vn -0.2844238 0.9418945 -0.1793213
vn 0.177002 0.9609375 -0.2130127
vn -0.6098633 0.7651367 -0.2073975
vn 0.5913086 0.8051758 -0.04995728
vn 0.140625 0.9829102 -0.1187744
vn 0.8725586 0.2543945 0.416748
vn 0.4912109 0.8662109 0.0914917
vn 0.4526367 0.8833008 0.1212769
vn 0.8618164 0.2749023 0.4260254
vn -0.2722168 0.9550781 -0.1181641
vn -0.5083008 0.8505859 -0.1363525
vn 0.4067383 0.8999023 0.1572266
vn -0.2191162 0.9741211 -0.0513916
vn -0.1815186 0.9833984 -0.01870728
vn -0.4152832 0.9052734 -0.08990479
vn 0.3317871 0.9277344 0.1711426
vn 0.2878418 0.9423828 0.1705322
vn 0.5654297 0.769043 0.2976074
vn 0.4821777 0.8325195 0.2724609
vn 0.8481445 0.296875 0.439209
vn 0.8618164 -0.1560059 0.482666
vn 0.8623047 -0.1357422 0.487793
vn 0.8564453 -0.2034912 0.4743652
vn 0.8564453 -0.2044678 0.4741211
vn 0.8500977 -0.2414551 0.4682617
vn 0.8500977 -0.2414551 0.4682617
vn -0.9555664 -0.1273193 -0.265625
vn -0.949707 -0.1643066 -0.2670898
vn -0.949707 -0.1643066 -0.2670898
vn -0.9555664 -0.1278076 -0.265625
vn -0.9619141 -0.08050537 -0.2614746
vn -0.9619141 -0.08129883 -0.2617188
vn -0.9643555 -0.06063843 -0.2573242
vn -0.8852539 0.3679199 -0.2851563
vn -0.9658203 -0.04327393 -0.2558594
vn -0.8886719 0.3452148 -0.3012695
vn -0.887207 -0.06945801 -0.4562988
vn -0.8046875 0.2993164 -0.5126953
vn -0.5463867 0.1922607 -0.8149414
vn -0.6245117 -0.1358643 -0.7695313
vn -0.1973877 0.1231079 -0.9726563
vn -0.2597656 -0.1971436 -0.9453125
vn 0.1507568 -0.2401123 -0.9589844
vn 0.1911621 0.07580566 -0.9785156
vn 0.5556641 0.05792236 -0.8295898
vn 0.5366211 -0.2565918 -0.8041992
vn 0.1868896 -0.9677734 0.1680908
vn 0.02198792 -0.9980469 0.05575562
vn 0.1322021 -0.984375 0.1143188
vn 0.04150391 -0.9951172 0.09118652
vn 0.0657959 -0.984375 0.1623535
vn 0.248291 -0.9345703 0.2541504
vn -0.2468262 -0.96875 -0.02761841
vn -0.2106934 -0.9765625 -0.03973389
vn -0.3237305 -0.9433594 -0.07275391
vn -0.3928223 -0.9169922 -0.07092285
vn -0.4855957 -0.8725586 -0.05014038
vn -0.3085938 -0.9511719 0.006931305
vn -0.5424805 -0.8398438 -0.01515198
vn -0.3510742 -0.9345703 0.05340576
vn -0.5913086 -0.8066406 0.01141357
vn 0.0670166 -0.9711914 0.2282715
vn 0.270752 -0.90625 0.3242188
vn -0.3876953 -0.9169922 0.09161377
vn 0.06994629 -0.9560547 0.2841797
vn 0.2939453 -0.8759766 0.3823242
vn 0.3330078 -0.8706055 0.3615723
vn -0.4365234 -0.8955078 0.08758545
vn -0.6025391 -0.7978516 -0.02758789
vn 0.1123657 -0.9414063 0.3186035
vn 0.3513184 -0.9130859 0.206665
vn -0.3935547 -0.9179688 0.04690552
vn -0.5200195 -0.8408203 -0.1483154
vn 0.1085815 -0.9609375 0.2541504
vn 0.2766113 -0.9609375 -0.008354187
vn -0.2880859 -0.9575195 -0.01126099
vn -0.3359375 -0.9072266 -0.2529297
vn 0.06524658 -0.9892578 0.1307373
vn 0.1108398 -0.9775391 -0.1794434
vn -0.1583252 -0.9873047 -0.01861572
vn -0.1101074 -0.9575195 -0.2666016
vn -0.03060913 -0.9990234 0.03182983
vn 0.9750977 0.1173706 -0.1872559
vn 0.9716797 -0.2022705 -0.121521
vn 0.9458008 -0.1450195 0.2897949
vn 0.9550781 0.2086182 0.2103271
vn 0.8637695 -0.1182251 0.4902344
vn 0.8725586 0.2543945 0.416748
vn 0.8623047 -0.1357422 0.487793
vn 0.8618164 0.2749023 0.4260254
g Helicopter_TopWings_0
f 3/3/3 2/2/2 1/1/1
f 4/4/4 3/3/3 1/1/1
f 5/5/5 3/3/3 4/4/4
f 6/6/6 5/5/5 4/4/4
f 4/4/4 1/1/1 7/7/7
f 4/4/4 8/8/8 6/6/6
f 8/8/8 4/4/4 7/7/7
f 9/9/9 7/7/7 1/1/1
f 10/10/10 9/9/9 1/1/1
f 7/7/7 9/9/9 11/11/11
f 9/9/9 10/10/10 11/11/11
f 8/8/8 7/7/7 11/11/11
f 10/10/10 12/12/12 11/11/11
f 13/13/13 11/11/11 12/12/12
f 8/8/8 11/11/11 13/13/13
f 14/14/14 13/13/13 12/12/12
f 8/8/8 15/15/15 6/6/6
f 15/15/15 8/8/8 13/13/13
f 6/6/6 15/15/15 16/16/16
f 17/17/17 13/13/13 14/14/14
f 18/18/18 17/17/17 14/14/14
f 17/17/17 18/18/18 19/19/19
f 18/18/18 20/20/20 19/19/19
f 19/19/19 20/20/20 21/21/21
f 22/22/22 19/19/19 21/21/21
f 15/15/15 13/13/13 23/23/23
f 22/22/22 21/21/21 24/24/24
f 15/15/15 25/25/25 16/16/16
f 25/25/25 15/15/15 23/23/23
f 25/25/25 23/23/23 26/26/26
f 27/27/27 16/16/16 25/25/25
f 28/28/28 25/25/25 26/26/26
f 28/28/28 27/27/27 25/25/25
f 26/26/26 22/22/22 28/28/28
f 28/28/28 29/29/29 27/27/27
f 22/22/22 29/29/29 28/28/28
f 29/29/29 30/30/30 27/27/27
f 31/31/31 22/22/22 24/24/24
f 22/22/22 31/31/31 29/29/29
f 31/31/31 24/24/24 32/32/32
f 31/31/31 33/33/33 29/29/29
f 29/29/29 33/33/33 30/30/30
f 34/34/34 31/31/31 32/32/32
f 31/31/31 34/34/34 33/33/33
f 35/35/35 34/34/34 32/32/32
f 36/36/36 35/35/35 32/32/32
f 37/37/37 34/34/34 35/35/35
f 34/34/34 37/37/37 33/33/33
f 38/38/38 37/37/37 35/35/35
f 37/37/37 38/38/38 39/39/39
f 38/38/38 40/40/40 39/39/39
f 37/37/37 39/39/39 41/41/41
f 33/33/33 37/37/37 41/41/41
f 33/33/33 41/41/41 30/30/30
f 30/30/30 41/41/41 42/42/42
f 43/43/43 30/30/30 42/42/42
f 42/42/42 41/41/41 44/44/44
f 41/41/41 45/45/45 44/44/44
f 44/44/44 45/45/45 46/46/46
f 47/47/47 44/44/44 46/46/46
f 50/50/50 49/49/49 48/48/48
f 49/49/49 51/51/51 48/48/48
f 48/48/48 51/51/51 52/52/52
f 51/51/51 53/53/53 52/52/52
f 52/52/52 53/53/53 54/54/54
f 53/53/53 55/55/55 54/54/54
f 54/54/54 55/55/55 56/56/56
f 55/55/55 57/57/57 56/56/56
f 56/56/56 57/57/57 58/58/58
f 57/57/57 59/59/59 58/58/58
f 58/58/58 59/59/59 60/60/60
f 61/61/61 58/58/58 60/60/60
f 61/61/61 60/60/60 62/62/62
f 63/63/63 61/61/61 62/62/62
f 64/64/64 63/63/63 62/62/62
f 65/65/65 64/64/64 62/62/62
f 64/64/64 65/65/65 66/66/66
f 67/67/67 64/64/64 66/66/66
f 70/70/70 69/69/69 68/68/68
f 69/69/69 71/71/71 68/68/68
f 71/71/71 72/72/72 68/68/68
f 72/72/72 73/73/73 68/68/68
f 74/74/74 71/71/71 69/69/69
f 75/75/75 74/74/74 69/69/69
f 74/74/74 75/75/75 76/76/76
f 77/77/77 74/74/74 76/76/76
f 74/74/74 77/77/77 78/78/78
f 71/71/71 74/74/74 79/79/79
f 79/79/79 74/74/74 78/78/78
f 72/72/72 71/71/71 79/79/79
f 79/79/79 78/78/78 80/80/80
f 81/81/81 79/79/79 80/80/80
f 72/72/72 79/79/79 81/81/81
f 81/81/81 80/80/80 82/82/82
f 72/72/72 83/83/83 73/73/73
f 83/83/83 72/72/72 81/81/81
f 83/83/83 84/84/84 73/73/73
f 85/85/85 81/81/81 82/82/82
f 83/83/83 81/81/81 85/85/85
f 83/83/83 86/86/86 84/84/84
f 86/86/86 83/83/83 85/85/85
f 86/86/86 87/87/87 84/84/84
f 87/87/87 86/86/86 88/88/88
f 89/89/89 85/85/85 82/82/82
f 85/85/85 89/89/89 86/86/86
f 90/90/90 89/89/89 82/82/82
f 86/86/86 91/91/91 88/88/88
f 89/89/89 91/91/91 86/86/86
f 88/88/88 91/91/91 92/92/92
f 93/93/93 89/89/89 90/90/90
f 89/89/89 93/93/93 91/91/91
f 94/94/94 93/93/93 90/90/90
f 91/91/91 95/95/95 92/92/92
f 93/93/93 95/95/95 91/91/91
f 92/92/92 95/95/95 96/96/96
f 97/97/97 93/93/93 94/94/94
f 93/93/93 97/97/97 95/95/95
f 98/98/98 97/97/97 94/94/94
f 95/95/95 99/99/99 96/96/96
f 97/97/97 99/99/99 95/95/95
f 96/96/96 99/99/99 100/100/100
f 101/101/101 97/97/97 98/98/98
f 97/97/97 101/101/101 99/99/99
f 102/102/102 101/101/101 98/98/98
f 100/100/100 103/103/103 102/102/102
f 99/99/99 103/103/103 100/100/100
f 103/103/103 101/101/101 102/102/102
f 101/101/101 103/103/103 99/99/99
f 106/106/106 105/105/105 104/104/104
f 107/107/107 106/106/106 104/104/104
f 108/108/108 106/106/106 107/107/107
f 109/109/109 108/108/108 107/107/107
f 108/108/108 109/109/109 110/110/110
f 109/109/109 111/111/111 110/110/110
f 114/114/114 113/113/113 112/112/112
f 115/115/115 114/114/114 112/112/112
f 116/116/116 114/114/114 115/115/115
f 117/117/117 116/116/116 115/115/115
f 115/115/115 112/112/112 118/118/118
f 115/115/115 119/119/119 117/117/117
f 119/119/119 115/115/115 118/118/118
f 120/120/120 118/118/118 112/112/112
f 121/121/121 120/120/120 112/112/112
f 118/118/118 120/120/120 122/122/122
f 120/120/120 121/121/121 122/122/122
f 119/119/119 118/118/118 122/122/122
f 121/121/121 123/123/123 122/122/122
f 124/124/124 122/122/122 123/123/123
f 119/119/119 122/122/122 124/124/124
f 125/125/125 124/124/124 123/123/123
f 119/119/119 126/126/126 117/117/117
f 126/126/126 119/119/119 124/124/124
f 117/117/117 126/126/126 127/127/127
f 128/128/128 124/124/124 125/125/125
f 129/129/129 128/128/128 125/125/125
f 128/128/128 129/129/129 130/130/130
f 129/129/129 131/131/131 130/130/130
f 130/130/130 131/131/131 132/132/132
f 133/133/133 130/130/130 132/132/132
f 126/126/126 124/124/124 134/134/134
f 133/133/133 132/132/132 135/135/135
f 126/126/126 136/136/136 127/127/127
f 136/136/136 126/126/126 134/134/134
f 136/136/136 134/134/134 137/137/137
f 138/138/138 127/127/127 136/136/136
f 139/139/139 136/136/136 137/137/137
f 139/139/139 138/138/138 136/136/136
f 137/137/137 133/133/133 139/139/139
f 139/139/139 140/140/140 138/138/138
f 133/133/133 140/140/140 139/139/139
f 140/140/140 141/141/141 138/138/138
f 142/142/142 133/133/133 135/135/135
f 133/133/133 142/142/142 140/140/140
f 142/142/142 135/135/135 143/143/143
f 142/142/142 144/144/144 140/140/140
f 140/140/140 144/144/144 141/141/141
f 145/145/145 142/142/142 143/143/143
f 142/142/142 145/145/145 144/144/144
f 146/146/146 145/145/145 143/143/143
f 147/147/147 146/146/146 143/143/143
f 148/148/148 145/145/145 146/146/146
f 145/145/145 148/148/148 144/144/144
f 149/149/149 148/148/148 146/146/146
f 148/148/148 149/149/149 150/150/150
f 149/149/149 151/151/151 150/150/150
f 148/148/148 150/150/150 152/152/152
f 144/144/144 148/148/148 152/152/152
f 144/144/144 152/152/152 141/141/141
f 141/141/141 152/152/152 153/153/153
f 154/154/154 141/141/141 153/153/153
f 153/153/153 152/152/152 155/155/155
f 152/152/152 156/156/156 155/155/155
f 155/155/155 156/156/156 157/157/157
f 158/158/158 155/155/155 157/157/157
f 161/161/161 160/160/160 159/159/159
f 160/160/160 162/162/162 159/159/159
f 159/159/159 162/162/162 163/163/163
f 162/162/162 164/164/164 163/163/163
f 163/163/163 164/164/164 165/165/165
f 164/164/164 166/166/166 165/165/165
f 165/165/165 166/166/166 167/167/167
f 166/166/166 168/168/168 167/167/167
f 167/167/167 168/168/168 169/169/169
f 168/168/168 170/170/170 169/169/169
f 169/169/169 170/170/170 171/171/171
f 172/172/172 169/169/169 171/171/171
f 172/172/172 171/171/171 173/173/173
f 174/174/174 172/172/172 173/173/173
f 175/175/175 174/174/174 173/173/173
f 176/176/176 175/175/175 173/173/173
f 175/175/175 176/176/176 177/177/177
f 178/178/178 175/175/175 177/177/177
f 181/181/181 180/180/180 179/179/179
f 180/180/180 182/182/182 179/179/179
f 182/182/182 183/183/183 179/179/179
f 183/183/183 184/184/184 179/179/179
f 185/185/185 182/182/182 180/180/180
f 186/186/186 185/185/185 180/180/180
f 185/185/185 186/186/186 187/187/187
f 188/188/188 185/185/185 187/187/187
f 185/185/185 188/188/188 189/189/189
f 182/182/182 185/185/185 190/190/190
f 190/190/190 185/185/185 189/189/189
f 183/183/183 182/182/182 190/190/190
f 190/190/190 189/189/189 191/191/191
f 192/192/192 190/190/190 191/191/191
f 183/183/183 190/190/190 192/192/192
f 192/192/192 191/191/191 193/193/193
f 183/183/183 194/194/194 184/184/184
f 194/194/194 183/183/183 192/192/192
f 194/194/194 195/195/195 184/184/184
f 196/196/196 192/192/192 193/193/193
f 194/194/194 192/192/192 196/196/196
f 194/194/194 197/197/197 195/195/195
f 197/197/197 194/194/194 196/196/196
f 197/197/197 198/198/198 195/195/195
f 198/198/198 197/197/197 199/199/199
f 200/200/200 196/196/196 193/193/193
f 196/196/196 200/200/200 197/197/197
f 201/201/201 200/200/200 193/193/193
f 197/197/197 202/202/202 199/199/199
f 200/200/200 202/202/202 197/197/197
f 199/199/199 202/202/202 203/203/203
f 204/204/204 200/200/200 201/201/201
f 200/200/200 204/204/204 202/202/202
f 205/205/205 204/204/204 201/201/201
f 202/202/202 206/206/206 203/203/203
f 204/204/204 206/206/206 202/202/202
f 203/203/203 206/206/206 207/207/207
f 208/208/208 204/204/204 205/205/205
f 204/204/204 208/208/208 206/206/206
f 209/209/209 208/208/208 205/205/205
f 206/206/206 210/210/210 207/207/207
f 208/208/208 210/210/210 206/206/206
f 207/207/207 210/210/210 211/211/211
f 212/212/212 208/208/208 209/209/209
f 208/208/208 212/212/212 210/210/210
f 213/213/213 212/212/212 209/209/209
f 211/211/211 214/214/214 213/213/213
f 210/210/210 214/214/214 211/211/211
f 214/214/214 212/212/212 213/213/213
f 212/212/212 214/214/214 210/210/210
f 217/217/217 216/216/216 215/215/215
f 218/218/218 217/217/217 215/215/215
f 219/219/219 217/217/217 218/218/218
f 220/220/220 219/219/219 218/218/218
f 219/219/219 220/220/220 221/221/221
f 220/220/220 222/222/222 221/221/221
f 225/225/225 224/224/224 223/223/223
f 226/226/226 225/225/225 223/223/223
f 227/227/227 225/225/225 226/226/226
f 228/228/228 227/227/227 226/226/226
f 226/226/226 223/223/223 229/229/229
f 226/226/226 230/230/230 228/228/228
f 230/230/230 226/226/226 229/229/229
f 231/231/231 229/229/229 223/223/223
f 232/232/232 231/231/231 223/223/223
f 229/229/229 231/231/231 233/233/233
f 231/231/231 232/232/232 233/233/233
f 230/230/230 229/229/229 233/233/233
f 232/232/232 234/234/234 233/233/233
f 235/235/235 233/233/233 234/234/234
f 230/230/230 233/233/233 235/235/235
f 236/236/236 235/235/235 234/234/234
f 230/230/230 237/237/237 228/228/228
f 237/237/237 230/230/230 235/235/235
f 228/228/228 237/237/237 238/238/238
f 239/239/239 235/235/235 236/236/236
f 240/240/240 239/239/239 236/236/236
f 239/239/239 240/240/240 241/241/241
f 240/240/240 242/242/242 241/241/241
f 241/241/241 242/242/242 243/243/243
f 244/244/244 241/241/241 243/243/243
f 237/237/237 235/235/235 245/245/245
f 244/244/244 243/243/243 246/246/246
f 237/237/237 247/247/247 238/238/238
f 247/247/247 237/237/237 245/245/245
f 247/247/247 245/245/245 248/248/248
f 249/249/249 238/238/238 247/247/247
f 250/250/250 247/247/247 248/248/248
f 250/250/250 249/249/249 247/247/247
f 248/248/248 244/244/244 250/250/250
f 250/250/250 251/251/251 249/249/249
f 244/244/244 251/251/251 250/250/250
f 251/251/251 252/252/252 249/249/249
f 253/253/253 244/244/244 246/246/246
f 244/244/244 253/253/253 251/251/251
f 253/253/253 246/246/246 254/254/254
f 253/253/253 255/255/255 251/251/251
f 251/251/251 255/255/255 252/252/252
f 256/256/256 253/253/253 254/254/254
f 253/253/253 256/256/256 255/255/255
f 257/257/257 256/256/256 254/254/254
f 258/258/258 257/257/257 254/254/254
f 259/259/259 256/256/256 257/257/257
f 256/256/256 259/259/259 255/255/255
f 260/260/260 259/259/259 257/257/257
f 259/259/259 260/260/260 261/261/261
f 260/260/260 262/262/262 261/261/261
f 259/259/259 261/261/261 263/263/263
f 255/255/255 259/259/259 263/263/263
f 255/255/255 263/263/263 252/252/252
f 252/252/252 263/263/263 264/264/264
f 265/265/265 252/252/252 264/264/264
f 264/264/264 263/263/263 266/266/266
f 263/263/263 267/267/267 266/266/266
f 266/266/266 267/267/267 268/268/268
f 269/269/269 266/266/266 268/268/268
f 272/272/272 271/271/271 270/270/270
f 271/271/271 273/273/273 270/270/270
f 270/270/270 273/273/273 274/274/274
f 273/273/273 275/275/275 274/274/274
f 274/274/274 275/275/275 276/276/276
f 275/275/275 277/277/277 276/276/276
f 276/276/276 277/277/277 278/278/278
f 277/277/277 279/279/279 278/278/278
f 278/278/278 279/279/279 280/280/280
f 279/279/279 281/281/281 280/280/280
f 280/280/280 281/281/281 282/282/282
f 283/283/283 280/280/280 282/282/282
f 283/283/283 282/282/282 284/284/284
f 285/285/285 283/283/283 284/284/284
f 286/286/286 285/285/285 284/284/284
f 287/287/287 286/286/286 284/284/284
f 286/286/286 287/287/287 288/288/288
f 289/289/289 286/286/286 288/288/288
f 292/292/292 291/291/291 290/290/290
f 291/291/291 293/293/293 290/290/290
f 293/293/293 294/294/294 290/290/290
f 294/294/294 295/295/295 290/290/290
f 296/296/296 293/293/293 291/291/291
f 297/297/297 296/296/296 291/291/291
f 296/296/296 297/297/297 298/298/298
f 299/299/299 296/296/296 298/298/298
f 296/296/296 299/299/299 300/300/300
f 293/293/293 296/296/296 301/301/301
f 301/301/301 296/296/296 300/300/300
f 294/294/294 293/293/293 301/301/301
f 301/301/301 300/300/300 302/302/302
f 303/303/303 301/301/301 302/302/302
f 294/294/294 301/301/301 303/303/303
f 303/303/303 302/302/302 304/304/304
f 294/294/294 305/305/305 295/295/295
f 305/305/305 294/294/294 303/303/303
f 305/305/305 306/306/306 295/295/295
f 307/307/307 303/303/303 304/304/304
f 305/305/305 303/303/303 307/307/307
f 305/305/305 308/308/308 306/306/306
f 308/308/308 305/305/305 307/307/307
f 308/308/308 309/309/309 306/306/306
f 309/309/309 308/308/308 310/310/310
f 311/311/311 307/307/307 304/304/304
f 307/307/307 311/311/311 308/308/308
f 312/312/312 311/311/311 304/304/304
f 308/308/308 313/313/313 310/310/310
f 311/311/311 313/313/313 308/308/308
f 310/310/310 313/313/313 314/314/314
f 315/315/315 311/311/311 312/312/312
f 311/311/311 315/315/315 313/313/313
f 316/316/316 315/315/315 312/312/312
f 313/313/313 317/317/317 314/314/314
f 315/315/315 317/317/317 313/313/313
f 314/314/314 317/317/317 318/318/318
f 319/319/319 315/315/315 316/316/316
f 315/315/315 319/319/319 317/317/317
f 320/320/320 319/319/319 316/316/316
f 317/317/317 321/321/321 318/318/318
f 319/319/319 321/321/321 317/317/317
f 318/318/318 321/321/321 322/322/322
f 323/323/323 319/319/319 320/320/320
f 319/319/319 323/323/323 321/321/321
f 324/324/324 323/323/323 320/320/320
f 322/322/322 325/325/325 324/324/324
f 321/321/321 325/325/325 322/322/322
f 325/325/325 323/323/323 324/324/324
f 323/323/323 325/325/325 321/321/321
f 328/328/328 327/327/327 326/326/326
f 329/329/329 328/328/328 326/326/326
f 330/330/330 328/328/328 329/329/329
f 331/331/331 330/330/330 329/329/329
f 330/330/330 331/331/331 332/332/332
f 331/331/331 333/333/333 332/332/332
f 336/336/336 335/335/335 334/334/334
f 337/337/337 336/336/336 334/334/334
f 338/338/338 336/336/336 337/337/337
f 339/339/339 338/338/338 337/337/337
f 337/337/337 334/334/334 340/340/340
f 337/337/337 341/341/341 339/339/339
f 341/341/341 337/337/337 340/340/340
f 342/342/342 340/340/340 334/334/334
f 343/343/343 342/342/342 334/334/334
f 340/340/340 342/342/342 344/344/344
f 342/342/342 343/343/343 344/344/344
f 341/341/341 340/340/340 344/344/344
f 343/343/343 345/345/345 344/344/344
f 346/346/346 344/344/344 345/345/345
f 341/341/341 344/344/344 346/346/346
f 347/347/347 346/346/346 345/345/345
f 341/341/341 348/348/348 339/339/339
f 348/348/348 341/341/341 346/346/346
f 339/339/339 348/348/348 349/349/349
f 350/350/350 346/346/346 347/347/347
f 351/351/351 350/350/350 347/347/347
f 350/350/350 351/351/351 352/352/352
f 351/351/351 353/353/353 352/352/352
f 352/352/352 353/353/353 354/354/354
f 355/355/355 352/352/352 354/354/354
f 348/348/348 346/346/346 356/356/356
f 355/355/355 354/354/354 357/357/357
f 348/348/348 358/358/358 349/349/349
f 358/358/358 348/348/348 356/356/356
f 358/358/358 356/356/356 359/359/359
f 360/360/360 349/349/349 358/358/358
f 361/361/361 358/358/358 359/359/359
f 361/361/361 360/360/360 358/358/358
f 359/359/359 355/355/355 361/361/361
f 361/361/361 362/362/362 360/360/360
f 355/355/355 362/362/362 361/361/361
f 362/362/362 363/363/363 360/360/360
f 364/364/364 355/355/355 357/357/357
f 355/355/355 364/364/364 362/362/362
f 364/364/364 357/357/357 365/365/365
f 364/364/364 366/366/366 362/362/362
f 362/362/362 366/366/366 363/363/363
f 367/367/367 364/364/364 365/365/365
f 364/364/364 367/367/367 366/366/366
f 368/368/368 367/367/367 365/365/365
f 369/369/369 368/368/368 365/365/365
f 370/370/370 367/367/367 368/368/368
f 367/367/367 370/370/370 366/366/366
f 371/371/371 370/370/370 368/368/368
f 370/370/370 371/371/371 372/372/372
f 371/371/371 373/373/373 372/372/372
f 370/370/370 372/372/372 374/374/374
f 366/366/366 370/370/370 374/374/374
f 366/366/366 374/374/374 363/363/363
f 363/363/363 374/374/374 375/375/375
f 376/376/376 363/363/363 375/375/375
f 375/375/375 374/374/374 377/377/377
f 374/374/374 378/378/378 377/377/377
f 377/377/377 378/378/378 379/379/379
f 380/380/380 377/377/377 379/379/379
f 383/383/383 382/382/382 381/381/381
f 382/382/382 384/384/384 381/381/381
f 381/381/381 384/384/384 385/385/385
f 384/384/384 386/386/386 385/385/385
f 385/385/385 386/386/386 387/387/387
f 386/386/386 388/388/388 387/387/387
f 387/387/387 388/388/388 389/389/389
f 388/388/388 390/390/390 389/389/389
f 389/389/389 390/390/390 391/391/391
f 390/390/390 392/392/392 391/391/391
f 391/391/391 392/392/392 393/393/393
f 394/394/394 391/391/391 393/393/393
f 394/394/394 393/393/393 395/395/395
f 396/396/396 394/394/394 395/395/395
f 397/397/397 396/396/396 395/395/395
f 398/398/398 397/397/397 395/395/395
f 397/397/397 398/398/398 399/399/399
f 400/400/400 397/397/397 399/399/399
f 403/403/403 402/402/402 401/401/401
f 402/402/402 404/404/404 401/401/401
f 404/404/404 405/405/405 401/401/401
f 405/405/405 406/406/406 401/401/401
f 407/407/407 404/404/404 402/402/402
f 408/408/408 407/407/407 402/402/402
f 407/407/407 408/408/408 409/409/409
f 410/410/410 407/407/407 409/409/409
f 407/407/407 410/410/410 411/411/411
f 404/404/404 407/407/407 412/412/412
f 412/412/412 407/407/407 411/411/411
f 405/405/405 404/404/404 412/412/412
f 412/412/412 411/411/411 413/413/413
f 414/414/414 412/412/412 413/413/413
f 405/405/405 412/412/412 414/414/414
f 414/414/414 413/413/413 415/415/415
f 405/405/405 416/416/416 406/406/406
f 416/416/416 405/405/405 414/414/414
f 416/416/416 417/417/417 406/406/406
f 418/418/418 414/414/414 415/415/415
f 416/416/416 414/414/414 418/418/418
f 416/416/416 419/419/419 417/417/417
f 419/419/419 416/416/416 418/418/418
f 419/419/419 420/420/420 417/417/417
f 420/420/420 419/419/419 421/421/421
f 422/422/422 418/418/418 415/415/415
f 418/418/418 422/422/422 419/419/419
f 423/423/423 422/422/422 415/415/415
f 419/419/419 424/424/424 421/421/421
f 422/422/422 424/424/424 419/419/419
f 421/421/421 424/424/424 425/425/425
f 426/426/426 422/422/422 423/423/423
f 422/422/422 426/426/426 424/424/424
f 427/427/427 426/426/426 423/423/423
f 424/424/424 428/428/428 425/425/425
f 426/426/426 428/428/428 424/424/424
f 425/425/425 428/428/428 429/429/429
f 430/430/430 426/426/426 427/427/427
f 426/426/426 430/430/430 428/428/428
f 431/431/431 430/430/430 427/427/427
f 428/428/428 432/432/432 429/429/429
f 430/430/430 432/432/432 428/428/428
f 429/429/429 432/432/432 433/433/433
f 434/434/434 430/430/430 431/431/431
f 430/430/430 434/434/434 432/432/432
f 435/435/435 434/434/434 431/431/431
f 433/433/433 436/436/436 435/435/435
f 432/432/432 436/436/436 433/433/433
f 436/436/436 434/434/434 435/435/435
f 434/434/434 436/436/436 432/432/432
f 439/439/439 438/438/438 437/437/437
f 440/440/440 439/439/439 437/437/437
f 441/441/441 439/439/439 440/440/440
f 442/442/442 441/441/441 440/440/440
f 441/441/441 442/442/442 443/443/443
f 442/442/442 444/444/444 443/443/443
