g HexaBase
v -8.450768 0.6082195 -7.131433
v -11.05134 0.6082195 -0.375255
v -11.05134 -0.6082193 -0.375255
v -11.32957 0.6082195 1.049165
v -11.32957 -0.6082193 1.049165
v -11.10385 0.6082195 2.482846
v -11.10385 -0.6082193 2.482846
v -10.40139 0.6082195 3.752863
v -8.450768 -0.6082193 -7.131433
v -7.702131 -0.6082193 -8.374788
v -7.702131 0.6082195 -8.374788
v -6.57339 -0.6082193 -9.287111
v -6.57339 0.6082195 -9.287111
v -5.200687 -0.6082193 -9.758364
v -5.200687 0.6082195 -9.758364
v 1.95062 0.6082195 -10.8843
v -11.25947 -0.8659259 1.050453
v -10.98472 -0.8659259 -0.3560894
v -8.388494 -0.8659259 -7.100987
v -7.649255 -0.8659259 -8.328738
v -6.539453 -0.8659259 -9.225755
v -11.03753 -0.8659259 2.460079
v 1.95062 -0.6082193 -10.8843
v -5.183979 -0.8659259 -9.691092
v 3.401717 -0.6082193 -10.85764
v 3.401717 0.6082195 -10.85764
v 1.955392 -0.8659259 -10.81514
v 4.756182 -0.6082193 -10.33628
v 4.756182 0.6082195 -10.33628
v 3.388274 -0.8659259 -10.78882
v 5.850651 -0.6082193 -9.383106
v 5.850651 0.6082195 -9.383106
v 10.40139 0.6082195 -3.752861
v 4.720014 -0.8659259 -10.27621
v -6.446733 -1.05458 -9.058123
v -5.138334 -1.05458 -9.507298
v 1.968428 -1.05458 -10.62622
v 3.351547 -1.05458 -10.60081
v -7.504795 -1.05458 -8.202927
v -8.218362 -1.05458 -7.017816
v -10.80273 -1.05458 -0.3037236
v -11.06793 -1.05458 1.053973
v -10.85634 -1.05458 2.397879
v -7.307458 -1.123633 -8.031069
v -7.985957 -1.123633 -6.904199
v 1.149219E-06 -1.123633 1.073457E-06
v -6.320078 -1.123633 -8.829136
v -10.55413 -1.123633 -0.2321901
v -5.075982 -1.123633 -9.256236
v -10.80629 -1.123633 1.058779
v 1.986236 -1.123633 -10.36814
v -10.60884 -1.123633 2.31291
v 3.301381 -1.123633 -10.34398
v -9.972192 -1.123633 3.46394
v 4.6212 -1.05458 -10.11209
v -10.18679 -1.05458 3.608401
v -5.478145 -1.123633 9.024049
v -10.34389 -0.8659259 3.714153
v -5.664398 -1.05458 9.20358
v -10.40139 -0.6082193 3.752863
v -5.800742 -0.8659259 9.335005
v -5.85065 -0.6082193 9.383111
v -5.85065 0.6082195 9.383111
v -4.756182 0.6082195 10.33628
v -4.486218 -1.123633 9.887918
v -4.621199 -1.05458 10.1121
v -4.756182 -0.6082193 10.33628
v -3.401716 0.6082195 10.85764
v -4.720013 -0.8659259 10.27621
v -3.301382 -1.123633 10.34398
v -3.401716 -0.6082193 10.85764
v -1.950617 0.6082195 10.8843
v -3.388272 -0.8659259 10.78882
v -3.351547 -1.05458 10.60081
v -1.986235 -1.123633 10.36814
v -1.968427 -1.05458 10.62622
v -1.95539 -0.8659259 10.81515
v -1.950617 -0.6082193 10.8843
v 5.075981 -1.123633 9.256239
v 5.200687 -0.6082193 9.758368
v 5.200687 0.6082195 9.758368
v 6.573389 0.6082195 9.287116
v 5.183979 -0.8659259 9.691094
v 5.138333 -1.05458 9.507302
v 6.320078 -1.123633 8.82914
v 7.307458 -1.123633 8.031072
v 7.985957 -1.123633 6.904204
v 6.446733 -1.05458 9.058126
v 6.573389 -0.6082193 9.287116
v 7.702129 0.6082195 8.374792
v 6.539453 -0.8659259 9.22576
v 7.504794 -1.05458 8.20293
v 7.702129 -0.6082193 8.374792
v 8.450768 0.6082195 7.131437
v 7.649255 -0.8659259 8.328742
v 8.218362 -1.05458 7.01782
v 8.388494 -0.8659259 7.100992
v 8.450768 -0.6082193 7.131437
v 10.55413 -1.123633 0.2321916
v 11.05134 -0.6082193 0.3752574
v 11.05134 0.6082195 0.3752574
v 11.32957 0.6082195 -1.049163
v 10.98472 -0.8659259 0.3560916
v 10.80273 -1.05458 0.3037248
v 11.32957 -0.6082193 -1.049163
v 11.10385 0.6082195 -2.482845
v 10.80629 -1.123633 -1.058777
v 11.25947 -0.8659259 -1.050451
v 11.06793 -1.05458 -1.053972
v 11.10385 -0.6082193 -2.482845
v 10.60884 -1.123633 -2.312908
v 11.03753 -0.8659259 -2.460079
v 10.85634 -1.05458 -2.397876
v 10.40139 -0.6082193 -3.752861
v 9.972196 -1.123633 -3.463939
v 10.18679 -1.05458 -3.6084
v 10.34389 -0.8659259 -3.714152
v 5.800742 -0.8659259 -9.335
v 5.664399 -1.05458 -9.203578
v 5.478147 -1.123633 -9.024045
v 4.486218 -1.123633 -9.887913
v -5.183979 0.8659261 -9.691092
v -6.539453 0.8659261 -9.225755
v -6.57339 0.6082195 -9.287111
v -5.200687 0.6082195 -9.758364
v -7.702131 0.6082195 -8.374788
v 1.955392 0.8659261 -10.81514
v 1.95062 0.6082195 -10.8843
v -7.649255 0.8659261 -8.328738
v -8.450768 0.6082195 -7.131433
v 3.388274 0.8659261 -10.78882
v 3.401717 0.6082195 -10.85764
v -8.388494 0.8659261 -7.100987
v -11.05134 0.6082195 -0.375255
v 4.720014 0.8659261 -10.27621
v 4.756182 0.6082195 -10.33628
v -10.98472 0.8659261 -0.3560894
v -11.32957 0.6082195 1.049165
v 5.800742 0.8659261 -9.335
v 5.850651 0.6082195 -9.383106
v -11.25947 0.8659261 1.050453
v -11.10385 0.6082195 2.482846
v 10.34389 0.8659261 -3.714152
v 10.40139 0.6082195 -3.752861
v -11.03753 0.8659261 2.460079
v -10.40139 0.6082195 3.752863
v 11.03753 0.8659261 -2.460079
v 11.10385 0.6082195 -2.482845
v -10.34389 0.8659261 3.714153
v -5.85065 0.6082195 9.383111
v 11.25947 0.8659261 -1.050451
v 11.32957 0.6082195 -1.049163
v -5.800742 0.8659261 9.335005
v -4.756182 0.6082195 10.33628
v 10.98472 0.8659261 0.3560916
v 11.05134 0.6082195 0.3752574
v -4.720013 0.8659261 10.27621
v -3.401716 0.6082195 10.85764
v 8.388494 0.8659261 7.100992
v 8.450768 0.6082195 7.131437
v -3.388272 0.8659261 10.78882
v -1.950617 0.6082195 10.8843
v 7.649255 0.8659261 8.328742
v 7.702129 0.6082195 8.374792
v -1.95539 0.8659261 10.81515
v 5.200687 0.6082195 9.758368
v 6.539453 0.8659261 9.22576
v 6.573389 0.6082195 9.287116
v 5.183979 0.8659261 9.691094
v 8.218362 1.054581 7.01782
v 7.504794 1.054581 8.20293
v 6.446733 1.054581 9.058126
v 5.138333 1.054581 9.507302
v -1.968427 1.054581 10.62622
v -3.351547 1.054581 10.60081
v 10.80273 1.054581 0.3037248
v -4.621199 1.054581 10.1121
v 11.06793 1.054581 -1.053972
v -5.664398 1.054581 9.20358
v 10.85634 1.054581 -2.397876
v -10.18679 1.054581 3.608401
v 10.18679 1.054581 -3.6084
v -10.85634 1.054581 2.397879
v 5.664399 1.054581 -9.203578
v -11.06793 1.054581 1.053973
v 4.6212 1.054581 -10.11209
v -10.80273 1.054581 -0.3037236
v 3.351547 1.054581 -10.60081
v -8.218362 1.054581 -7.017816
v 1.968428 1.054581 -10.62622
v -7.504795 1.054581 -8.202927
v -5.138334 1.054581 -9.507298
v -6.446733 1.054581 -9.058123
v 4.486218 1.123632 -9.887913
v 3.301381 1.123632 -10.34398
v 1.30583E-06 1.123633 1.145579E-06
v 5.478147 1.123632 -9.024045
v 1.986236 1.123632 -10.36814
v 9.972196 1.123632 -3.463939
v -5.075982 1.123632 -9.256236
v 10.60884 1.123632 -2.312908
v -6.320078 1.123632 -8.829136
v 10.80629 1.123632 -1.058777
v -7.307458 1.123632 -8.031069
v 10.55413 1.123632 0.2321916
v -7.985957 1.123632 -6.904199
v 7.985956 1.123632 6.904203
v -10.55413 1.123632 -0.2321901
v 7.307458 1.123632 8.031072
v -10.80629 1.123632 1.058779
v 6.320078 1.123632 8.82914
v -10.60884 1.123632 2.31291
v 5.075981 1.123632 9.256239
v -9.972192 1.123632 3.46394
v -1.986235 1.123632 10.36814
v -5.478145 1.123632 9.024049
v -3.301382 1.123632 10.34398
v -4.486218 1.123632 9.887918
vt 0.3569336 0.9418945
vt 0.3591309 0.9472656
vt 0.3591309 0.9472656
vt 0.359375 0.9487305
vt 0.359375 0.9487305
vt 0.3591309 0.949707
vt 0.3591309 0.949707
vt 0.3586426 0.9506836
vt 0.3569336 0.9418945
vt 0.3564453 0.9404297
vt 0.3564453 0.9404297
vt 0.3554688 0.9399414
vt 0.3554688 0.9399414
vt 0.354248 0.9394531
vt 0.354248 0.9394531
vt 0.3486328 0.9384766
vt 0.359375 0.9487305
vt 0.3591309 0.9472656
vt 0.3569336 0.9418945
vt 0.3564453 0.940918
vt 0.3554688 0.9399414
vt 0.3591309 0.949707
vt 0.3486328 0.9384766
vt 0.354248 0.9394531
vt 0.3474121 0.9384766
vt 0.3474121 0.9384766
vt 0.3486328 0.9384766
vt 0.3461914 0.9389648
vt 0.3461914 0.9389648
vt 0.3474121 0.9384766
vt 0.345459 0.9399414
vt 0.345459 0.9399414
vt 0.3417969 0.9443359
vt 0.3461914 0.9389648
vt 0.3554688 0.9399414
vt 0.354248 0.9394531
vt 0.3486328 0.9389648
vt 0.3474121 0.9389648
vt 0.3562012 0.940918
vt 0.3566895 0.9418945
vt 0.3588867 0.9472656
vt 0.3591309 0.9487305
vt 0.3588867 0.949707
vt 0.355957 0.940918
vt 0.3566895 0.9418945
vt 0.3500977 0.9477539
vt 0.3552246 0.9404297
vt 0.3586426 0.9477539
vt 0.354248 0.9399414
vt 0.3588867 0.9487305
vt 0.3486328 0.9389648
vt 0.3586426 0.949707
vt 0.3474121 0.9389648
vt 0.3581543 0.9506836
vt 0.3464355 0.9389648
vt 0.3583984 0.9506836
vt 0.3544922 0.9555664
vt 0.3586426 0.9506836
vt 0.3547363 0.9555664
vt 0.3586426 0.9506836
vt 0.3547363 0.9555664
vt 0.3549805 0.9555664
vt 0.3549805 0.9555664
vt 0.3540039 0.956543
vt 0.3537598 0.9560547
vt 0.3537598 0.9560547
vt 0.3540039 0.956543
vt 0.3527832 0.9570313
vt 0.3540039 0.956543
vt 0.3527832 0.956543
vt 0.3527832 0.9570313
vt 0.3518066 0.9570313
vt 0.3527832 0.9570313
vt 0.3527832 0.956543
vt 0.3518066 0.956543
vt 0.3518066 0.956543
vt 0.3518066 0.9570313
vt 0.3518066 0.9570313
vt 0.3459473 0.9555664
vt 0.3459473 0.9560547
vt 0.3459473 0.9560547
vt 0.3447266 0.9555664
vt 0.3459473 0.9560547
vt 0.3459473 0.9555664
vt 0.3449707 0.9550781
vt 0.3442383 0.9545898
vt 0.34375 0.9536133
vt 0.3449707 0.9555664
vt 0.3447266 0.9555664
vt 0.3439941 0.9545898
vt 0.3447266 0.9555664
vt 0.3439941 0.9545898
vt 0.3439941 0.9545898
vt 0.3432617 0.9536133
vt 0.3439941 0.9545898
vt 0.3435059 0.9536133
vt 0.3432617 0.9536133
vt 0.3432617 0.9536133
vt 0.3415527 0.9477539
vt 0.3410645 0.9482422
vt 0.3410645 0.9482422
vt 0.3408203 0.9467773
vt 0.3413086 0.9482422
vt 0.3413086 0.9477539
vt 0.3408203 0.9467773
vt 0.3410645 0.9458008
vt 0.3413086 0.9467773
vt 0.3410645 0.9467773
vt 0.3410645 0.9467773
vt 0.3410645 0.9458008
vt 0.3415527 0.9458008
vt 0.3410645 0.9458008
vt 0.3413086 0.9458008
vt 0.3417969 0.9443359
vt 0.342041 0.9448242
vt 0.3417969 0.9448242
vt 0.3417969 0.9448242
vt 0.345459 0.9399414
vt 0.345459 0.9399414
vt 0.3457031 0.9399414
vt 0.3464355 0.9394531
vt 0.03405762 0.949707
vt 0.03363037 0.949707
vt 0.03363037 0.949707
vt 0.03405762 0.949707
vt 0.03326416 0.9492188
vt 0.0362854 0.9501953
vt 0.0362854 0.9501953
vt 0.03329468 0.9492188
vt 0.03305054 0.9487305
vt 0.03671265 0.9501953
vt 0.03671265 0.9501953
vt 0.03305054 0.9487305
vt 0.03222656 0.9467773
vt 0.03713989 0.949707
vt 0.03713989 0.949707
vt 0.03225708 0.9467773
vt 0.03213501 0.9462891
vt 0.03747559 0.949707
vt 0.03747559 0.949707
vt 0.03216553 0.9462891
vt 0.03219604 0.9458008
vt 0.03887939 0.9477539
vt 0.03890991 0.9477539
vt 0.03222656 0.9458008
vt 0.03244019 0.9453125
vt 0.03909302 0.9472656
vt 0.03912354 0.9472656
vt 0.03244019 0.9453125
vt 0.03384399 0.9433594
vt 0.03915405 0.9467773
vt 0.03918457 0.9467773
vt 0.03387451 0.9433594
vt 0.03417969 0.9433594
vt 0.03909302 0.9462891
vt 0.03909302 0.9462891
vt 0.03421021 0.9433594
vt 0.03460693 0.9428711
vt 0.03826904 0.9443359
vt 0.03829956 0.9443359
vt 0.03460693 0.9428711
vt 0.0350647 0.9428711
vt 0.03805542 0.9438477
vt 0.03805542 0.9438477
vt 0.0350647 0.9428711
vt 0.03729248 0.9433594
vt 0.03768921 0.9433594
vt 0.03771973 0.9433594
vt 0.03729248 0.9433594
vt 0.03820801 0.9443359
vt 0.03799438 0.9438477
vt 0.03765869 0.9433594
vt 0.03726196 0.9433594
vt 0.0350647 0.9428711
vt 0.03463745 0.9428711
vt 0.03903198 0.9462891
vt 0.03424072 0.9433594
vt 0.03909302 0.9467773
vt 0.03390503 0.9433594
vt 0.03903198 0.9472656
vt 0.03250122 0.9453125
vt 0.03884888 0.9477539
vt 0.0322876 0.9458008
vt 0.03741455 0.949707
vt 0.03222656 0.9462891
vt 0.03710938 0.949707
vt 0.03231812 0.9467773
vt 0.03671265 0.9501953
vt 0.03311157 0.9487305
vt 0.0362854 0.9501953
vt 0.0333252 0.9492188
vt 0.03405762 0.949707
vt 0.03366089 0.9492188
vt 0.03704834 0.949707
vt 0.03668213 0.949707
vt 0.03567505 0.9462891
vt 0.03738403 0.9492188
vt 0.0362854 0.949707
vt 0.03875732 0.9477539
vt 0.03408813 0.949707
vt 0.03897095 0.9472656
vt 0.03369141 0.9492188
vt 0.03903198 0.9467773
vt 0.03338623 0.9492188
vt 0.03894043 0.9462891
vt 0.03317261 0.9487305
vt 0.03814697 0.9443359
vt 0.03237915 0.9467773
vt 0.03793335 0.9438477
vt 0.03231812 0.9462891
vt 0.03762817 0.9438477
vt 0.03237915 0.9458008
vt 0.03723145 0.9433594
vt 0.03256226 0.9453125
vt 0.03503418 0.9433594
vt 0.03396606 0.9438477
vt 0.03463745 0.9433594
vt 0.03427124 0.9433594
vn -0.9213867 0.04626465 -0.3857422
vn -0.9423828 0.04626465 -0.331543
vn -0.9423828 -0.04626465 -0.331543
vn -0.9985352 0.04608154 -0.01838684
vn -0.9985352 -0.04608154 -0.01838684
vn -0.9448242 0.04608154 0.3244629
vn -0.9448242 -0.04608154 0.3244629
vn -0.7949219 0.04626465 0.6049805
vn -0.9213867 -0.04626465 -0.3857422
vn -0.753418 -0.04608154 -0.65625
vn -0.753418 0.04608154 -0.65625
vn -0.4833984 -0.04608154 -0.8740234
vn -0.4833984 0.04608154 -0.8740234
vn -0.18396 -0.04626465 -0.9819336
vn -0.18396 0.04626465 -0.9819336
vn -0.1265869 0.04626465 -0.9907227
vn -0.8720703 -0.489502 -0.01643372
vn -0.8203125 -0.4936523 -0.2890625
vn -0.8022461 -0.4936523 -0.3356934
vn -0.6577148 -0.489502 -0.5722656
vn -0.4216309 -0.489502 -0.7631836
vn -0.824707 -0.489502 0.2834473
vn -0.1265869 -0.04626465 -0.9907227
vn -0.1599121 -0.4936523 -0.8549805
vn 0.1915283 -0.04608154 -0.9804688
vn 0.1915283 0.04608154 -0.9804688
vn -0.1105347 -0.4936523 -0.862793
vn 0.5151367 -0.04608154 -0.855957
vn 0.5151367 0.04608154 -0.855957
vn 0.166748 -0.489502 -0.855957
vn 0.7583008 -0.04626465 -0.6503906
vn 0.7583008 0.04626465 -0.6503906
vn 0.7949219 0.04626465 -0.6049805
vn 0.4501953 -0.489502 -0.746582
vn -0.2519531 -0.8530273 -0.4567871
vn -0.09375 -0.859375 -0.5029297
vn -0.06524658 -0.859375 -0.5073242
vn 0.09936523 -0.8530273 -0.512207
vn -0.3937988 -0.8530273 -0.342041
vn -0.4719238 -0.859375 -0.1971436
vn -0.4821777 -0.859375 -0.170166
vn -0.5214844 -0.8530273 -0.01021576
vn -0.4931641 -0.8530273 0.1699219
vn -0.01169586 -1 -0.01013947
vn -0.01519012 -1 -0.006332397
vn 0 -1 0
vn -0.007461548 -1 -0.01356506
vn -0.01551056 -1 -0.005485535
vn -0.003005981 -1 -0.01617432
vn -0.01547241 -1 -0.0003194809
vn -0.002109528 -1 -0.01631165
vn -0.01462555 -1 0.005058289
vn 0.002933502 -1 -0.01519775
vn -0.01307678 -1 0.009986877
vn 0.2695313 -0.8530273 -0.4465332
vn -0.4064941 -0.859375 0.3100586
vn -0.01250458 -1 0.01068878
vn -0.6918945 -0.4936523 0.5268555
vn -0.3884277 -0.859375 0.3325195
vn -0.7949219 -0.04626465 0.6049805
vn -0.6601563 -0.4936523 0.565918
vn -0.7583008 -0.04626465 0.6503906
vn -0.7583008 0.04626465 0.6503906
vn -0.5151367 0.04608154 0.855957
vn -0.008010864 -1 0.01324463
vn -0.2695313 -0.8530273 0.4465332
vn -0.5151367 -0.04608154 0.855957
vn -0.1915283 0.04608154 0.9804688
vn -0.4501953 -0.489502 0.746582
vn -0.002933502 -1 0.01519775
vn -0.1915283 -0.04608154 0.9804688
vn 0.1265869 0.04626465 0.9907227
vn -0.166748 -0.489502 0.855957
vn -0.09936523 -0.8530273 0.512207
vn 0.002109528 -1 0.01631165
vn 0.06524658 -0.859375 0.5073242
vn 0.1105347 -0.4936523 0.862793
vn 0.1265869 -0.04626465 0.9907227
vn 0.003005981 -1 0.01617432
vn 0.18396 -0.04626465 0.9819336
vn 0.18396 0.04626465 0.9819336
vn 0.4833984 0.04608154 0.8740234
vn 0.1599121 -0.4936523 0.8549805
vn 0.09375 -0.859375 0.5029297
vn 0.007461548 -1 0.01356506
vn 0.01169586 -1 0.01013947
vn 0.01519012 -1 0.006332397
vn 0.2519531 -0.8530273 0.4567871
vn 0.4833984 -0.04608154 0.8740234
vn 0.753418 0.04608154 0.65625
vn 0.4216309 -0.489502 0.7631836
vn 0.3937988 -0.8530273 0.342041
vn 0.753418 -0.04608154 0.65625
vn 0.9213867 0.04626465 0.3857422
vn 0.6577148 -0.489502 0.5722656
vn 0.4719238 -0.859375 0.1971436
vn 0.8022461 -0.4936523 0.3356934
vn 0.9213867 -0.04626465 0.3857422
vn 0.01551056 -1 0.005485535
vn 0.9423828 -0.04626465 0.331543
vn 0.9423828 0.04626465 0.331543
vn 0.9985352 0.04608154 0.01838684
vn 0.8203125 -0.4936523 0.2890625
vn 0.4821777 -0.859375 0.170166
vn 0.9985352 -0.04608154 0.01838684
vn 0.9448242 0.04608154 -0.3244629
vn 0.01547241 -1 0.0003194809
vn 0.8720703 -0.489502 0.01643372
vn 0.5214844 -0.8530273 0.01021576
vn 0.9448242 -0.04608154 -0.3244629
vn 0.01462555 -1 -0.005058289
vn 0.824707 -0.489502 -0.2834473
vn 0.4931641 -0.8530273 -0.1699219
vn 0.7949219 -0.04626465 -0.6049805
vn 0.01307678 -1 -0.009986877
vn 0.4064941 -0.859375 -0.3100586
vn 0.6918945 -0.4936523 -0.5268555
vn 0.6601563 -0.4936523 -0.565918
vn 0.3884277 -0.859375 -0.3325195
vn 0.01250458 -1 -0.01068878
vn 0.008010864 -1 -0.01324463
vn -0.1599121 0.4936523 -0.8549805
vn -0.4216309 0.489502 -0.7631836
vn -0.4833984 0.04608154 -0.8740234
vn -0.18396 0.04626465 -0.9819336
vn -0.753418 0.04608154 -0.65625
vn -0.1105347 0.4936523 -0.862793
vn -0.1265869 0.04626465 -0.9907227
vn -0.6577148 0.489502 -0.5722656
vn -0.9213867 0.04626465 -0.3857422
vn 0.166748 0.489502 -0.855957
vn 0.1915283 0.04608154 -0.9804688
vn -0.8022461 0.4936523 -0.3356934
vn -0.9423828 0.04626465 -0.331543
vn 0.4501953 0.489502 -0.746582
vn 0.5151367 0.04608154 -0.855957
vn -0.8203125 0.4936523 -0.2890625
vn -0.9985352 0.04608154 -0.01838684
vn 0.6601563 0.4936523 -0.565918
vn 0.7583008 0.04626465 -0.6503906
vn -0.8720703 0.489502 -0.01643372
vn -0.9448242 0.04608154 0.3244629
vn 0.6918945 0.4936523 -0.5268555
vn 0.7949219 0.04626465 -0.6049805
vn -0.824707 0.489502 0.2834473
vn -0.7949219 0.04626465 0.6049805
vn 0.824707 0.489502 -0.2834473
vn 0.9448242 0.04608154 -0.3244629
vn -0.6918945 0.4936523 0.5268555
vn -0.7583008 0.04626465 0.6503906
vn 0.8720703 0.489502 0.01643372
vn 0.9985352 0.04608154 0.01838684
vn -0.6601563 0.4936523 0.565918
vn -0.5151367 0.04608154 0.855957
vn 0.8203125 0.4936523 0.2890625
vn 0.9423828 0.04626465 0.331543
vn -0.4501953 0.489502 0.746582
vn -0.1915283 0.04608154 0.9804688
vn 0.8022461 0.4936523 0.3356934
vn 0.9213867 0.04626465 0.3857422
vn -0.166748 0.489502 0.855957
vn 0.1265869 0.04626465 0.9907227
vn 0.6577148 0.489502 0.5722656
vn 0.753418 0.04608154 0.65625
vn 0.1105347 0.4936523 0.862793
vn 0.18396 0.04626465 0.9819336
vn 0.4216309 0.489502 0.7631836
vn 0.4833984 0.04608154 0.8740234
vn 0.1599121 0.4936523 0.8549805
vn 0.4719238 0.859375 0.1971436
vn 0.3937988 0.8530273 0.342041
vn 0.2519531 0.8530273 0.4567871
vn 0.09375 0.859375 0.5029297
vn 0.06524658 0.859375 0.5073242
vn -0.09936523 0.8530273 0.512207
vn 0.4821777 0.859375 0.170166
vn -0.2695313 0.8530273 0.4465332
vn 0.5214844 0.8530273 0.01021576
vn -0.3884277 0.859375 0.3325195
vn 0.4931641 0.8530273 -0.1699219
vn -0.4064941 0.859375 0.3100586
vn 0.4064941 0.859375 -0.3100586
vn -0.4931641 0.8530273 0.1699219
vn 0.3884277 0.859375 -0.3325195
vn -0.5214844 0.8530273 -0.01021576
vn 0.2695313 0.8530273 -0.4465332
vn -0.4821777 0.859375 -0.170166
vn 0.09936523 0.8530273 -0.512207
vn -0.4719238 0.859375 -0.1971436
vn -0.06524658 0.859375 -0.5073242
vn -0.3937988 0.8530273 -0.342041
vn -0.09375 0.859375 -0.5029297
vn -0.2519531 0.8530273 -0.4567871
vn 0.008010864 1 -0.01324463
vn 0.002933502 1 -0.01519775
vn 0 1 0
vn 0.01250458 1 -0.01068878
vn -0.002109528 1 -0.01631165
vn 0.01307678 1 -0.009986877
vn -0.003005981 1 -0.01617432
vn 0.01462555 1 -0.005058289
vn -0.007461548 1 -0.01356506
vn 0.01547241 1 0.0003194809
vn -0.01169586 1 -0.01013947
vn 0.01551056 1 0.005485535
vn -0.01519012 1 -0.006332397
vn 0.01519012 1 0.006332397
vn -0.01551056 1 -0.005485535
vn 0.01169586 1 0.01013947
vn -0.01547241 1 -0.0003194809
vn 0.007461548 1 0.01356506
vn -0.01462555 1 0.005058289
vn 0.003005981 1 0.01617432
vn -0.01307678 1 0.009986877
vn 0.002109528 1 0.01631165
vn -0.01250458 1 0.01068878
vn -0.002933502 1 0.01519775
vn -0.008010864 1 0.01324463
g HexaBase_0
f 3/3/3 2/2/2 1/1/1
f 4/4/4 2/2/2 3/3/3
f 5/5/5 4/4/4 3/3/3
f 6/6/6 4/4/4 5/5/5
f 7/7/7 6/6/6 5/5/5
f 8/8/8 6/6/6 7/7/7
f 9/9/9 3/3/3 1/1/1
f 9/9/9 1/1/1 10/10/10
f 1/1/1 11/11/11 10/10/10
f 10/10/10 11/11/11 12/12/12
f 11/11/11 13/13/13 12/12/12
f 12/12/12 13/13/13 14/14/14
f 13/13/13 15/15/15 14/14/14
f 14/14/14 15/15/15 16/16/16
f 17/17/17 5/5/5 3/3/3
f 3/3/3 9/9/9 18/18/18
f 18/18/18 17/17/17 3/3/3
f 9/9/9 10/10/10 19/19/19
f 9/9/9 19/19/19 18/18/18
f 20/20/20 10/10/10 12/12/12
f 10/10/10 20/20/20 19/19/19
f 21/21/21 12/12/12 14/14/14
f 21/21/21 20/20/20 12/12/12
f 17/17/17 22/22/22 5/5/5
f 22/22/22 7/7/7 5/5/5
f 23/23/23 14/14/14 16/16/16
f 24/24/24 21/21/21 14/14/14
f 24/24/24 14/14/14 23/23/23
f 23/23/23 16/16/16 25/25/25
f 16/16/16 26/26/26 25/25/25
f 27/27/27 24/24/24 23/23/23
f 23/23/23 25/25/25 27/27/27
f 25/25/25 26/26/26 28/28/28
f 26/26/26 29/29/29 28/28/28
f 25/25/25 30/30/30 27/27/27
f 30/30/30 25/25/25 28/28/28
f 28/28/28 29/29/29 31/31/31
f 29/29/29 32/32/32 31/31/31
f 31/31/31 32/32/32 33/33/33
f 34/34/34 30/30/30 28/28/28
f 34/34/34 28/28/28 31/31/31
f 35/35/35 21/21/21 24/24/24
f 36/36/36 24/24/24 27/27/27
f 36/36/36 35/35/35 24/24/24
f 27/27/27 30/30/30 37/37/37
f 37/37/37 36/36/36 27/27/27
f 38/38/38 30/30/30 34/34/34
f 30/30/30 38/38/38 37/37/37
f 35/35/35 39/39/39 21/21/21
f 39/39/39 20/20/20 21/21/21
f 20/20/20 39/39/39 40/40/40
f 19/19/19 20/20/20 40/40/40
f 19/19/19 40/40/40 41/41/41
f 18/18/18 19/19/19 41/41/41
f 41/41/41 42/42/42 18/18/18
f 42/42/42 17/17/17 18/18/18
f 42/42/42 43/43/43 17/17/17
f 43/43/43 22/22/22 17/17/17
f 44/44/44 39/39/39 35/35/35
f 40/40/40 39/39/39 45/45/45
f 39/39/39 44/44/44 45/45/45
f 45/45/45 44/44/44 46/46/46
f 47/47/47 44/44/44 35/35/35
f 44/44/44 47/47/47 46/46/46
f 47/47/47 35/35/35 36/36/36
f 40/40/40 45/45/45 48/48/48
f 41/41/41 40/40/40 48/48/48
f 48/48/48 45/45/45 46/46/46
f 49/49/49 47/47/47 36/36/36
f 47/47/47 49/49/49 46/46/46
f 49/49/49 36/36/36 37/37/37
f 48/48/48 50/50/50 41/41/41
f 50/50/50 48/48/48 46/46/46
f 50/50/50 42/42/42 41/41/41
f 51/51/51 49/49/49 37/37/37
f 49/49/49 51/51/51 46/46/46
f 37/37/37 38/38/38 51/51/51
f 50/50/50 52/52/52 42/42/42
f 52/52/52 50/50/50 46/46/46
f 51/51/51 53/53/53 46/46/46
f 38/38/38 53/53/53 51/51/51
f 54/54/54 52/52/52 46/46/46
f 52/52/52 43/43/43 42/42/42
f 43/43/43 52/52/52 54/54/54
f 53/53/53 38/38/38 55/55/55
f 55/55/55 38/38/38 34/34/34
f 56/56/56 43/43/43 54/54/54
f 22/22/22 43/43/43 56/56/56
f 57/57/57 54/54/54 46/46/46
f 54/54/54 57/57/57 56/56/56
f 58/58/58 22/22/22 56/56/56
f 7/7/7 22/22/22 58/58/58
f 57/57/57 59/59/59 56/56/56
f 56/56/56 59/59/59 58/58/58
f 60/60/60 7/7/7 58/58/58
f 60/60/60 8/8/8 7/7/7
f 58/58/58 61/61/61 60/60/60
f 59/59/59 61/61/61 58/58/58
f 60/60/60 62/62/62 8/8/8
f 61/61/61 62/62/62 60/60/60
f 62/62/62 63/63/63 8/8/8
f 64/64/64 63/63/63 62/62/62
f 57/57/57 65/65/65 59/59/59
f 65/65/65 57/57/57 46/46/46
f 59/59/59 66/66/66 61/61/61
f 65/65/65 66/66/66 59/59/59
f 67/67/67 64/64/64 62/62/62
f 68/68/68 64/64/64 67/67/67
f 61/61/61 69/69/69 62/62/62
f 66/66/66 69/69/69 61/61/61
f 69/69/69 67/67/67 62/62/62
f 65/65/65 70/70/70 66/66/66
f 70/70/70 65/65/65 46/46/46
f 71/71/71 68/68/68 67/67/67
f 72/72/72 68/68/68 71/71/71
f 69/69/69 73/73/73 67/67/67
f 73/73/73 71/71/71 67/67/67
f 66/66/66 74/74/74 69/69/69
f 70/70/70 74/74/74 66/66/66
f 74/74/74 73/73/73 69/69/69
f 74/74/74 70/70/70 75/75/75
f 75/75/75 70/70/70 46/46/46
f 73/73/73 74/74/74 76/76/76
f 76/76/76 74/74/74 75/75/75
f 71/71/71 73/73/73 77/77/77
f 77/77/77 73/73/73 76/76/76
f 78/78/78 72/72/72 71/71/71
f 78/78/78 71/71/71 77/77/77
f 79/79/79 75/75/75 46/46/46
f 75/75/75 79/79/79 76/76/76
f 78/78/78 80/80/80 72/72/72
f 80/80/80 81/81/81 72/72/72
f 82/82/82 81/81/81 80/80/80
f 77/77/77 83/83/83 78/78/78
f 83/83/83 80/80/80 78/78/78
f 76/76/76 84/84/84 77/77/77
f 79/79/79 84/84/84 76/76/76
f 84/84/84 83/83/83 77/77/77
f 85/85/85 79/79/79 46/46/46
f 79/79/79 85/85/85 84/84/84
f 86/86/86 85/85/85 46/46/46
f 87/87/87 86/86/86 46/46/46
f 85/85/85 88/88/88 84/84/84
f 84/84/84 88/88/88 83/83/83
f 85/85/85 86/86/86 88/88/88
f 89/89/89 82/82/82 80/80/80
f 90/90/90 82/82/82 89/89/89
f 83/83/83 91/91/91 80/80/80
f 88/88/88 91/91/91 83/83/83
f 91/91/91 89/89/89 80/80/80
f 86/86/86 92/92/92 88/88/88
f 88/88/88 92/92/92 91/91/91
f 92/92/92 86/86/86 87/87/87
f 93/93/93 90/90/90 89/89/89
f 94/94/94 90/90/90 93/93/93
f 91/91/91 95/95/95 89/89/89
f 92/92/92 95/95/95 91/91/91
f 95/95/95 93/93/93 89/89/89
f 96/96/96 92/92/92 87/87/87
f 95/95/95 92/92/92 96/96/96
f 93/93/93 95/95/95 97/97/97
f 97/97/97 95/95/95 96/96/96
f 98/98/98 94/94/94 93/93/93
f 98/98/98 93/93/93 97/97/97
f 87/87/87 99/99/99 96/96/96
f 99/99/99 87/87/87 46/46/46
f 98/98/98 100/100/100 94/94/94
f 100/100/100 101/101/101 94/94/94
f 102/102/102 101/101/101 100/100/100
f 97/97/97 103/103/103 98/98/98
f 103/103/103 100/100/100 98/98/98
f 96/96/96 104/104/104 97/97/97
f 99/99/99 104/104/104 96/96/96
f 104/104/104 103/103/103 97/97/97
f 105/105/105 102/102/102 100/100/100
f 106/106/106 102/102/102 105/105/105
f 99/99/99 107/107/107 104/104/104
f 107/107/107 99/99/99 46/46/46
f 103/103/103 108/108/108 100/100/100
f 108/108/108 105/105/105 100/100/100
f 104/104/104 109/109/109 103/103/103
f 107/107/107 109/109/109 104/104/104
f 109/109/109 108/108/108 103/103/103
f 110/110/110 106/106/106 105/105/105
f 33/33/33 106/106/106 110/110/110
f 107/107/107 111/111/111 109/109/109
f 111/111/111 107/107/107 46/46/46
f 108/108/108 112/112/112 105/105/105
f 112/112/112 110/110/110 105/105/105
f 109/109/109 113/113/113 108/108/108
f 111/111/111 113/113/113 109/109/109
f 113/113/113 112/112/112 108/108/108
f 114/114/114 33/33/33 110/110/110
f 114/114/114 31/31/31 33/33/33
f 113/113/113 111/111/111 115/115/115
f 115/115/115 111/111/111 46/46/46
f 112/112/112 113/113/113 116/116/116
f 116/116/116 113/113/113 115/115/115
f 110/110/110 112/112/112 117/117/117
f 114/114/114 110/110/110 117/117/117
f 117/117/117 112/112/112 116/116/116
f 118/118/118 31/31/31 114/114/114
f 117/117/117 118/118/118 114/114/114
f 118/118/118 34/34/34 31/31/31
f 55/55/55 34/34/34 118/118/118
f 119/119/119 118/118/118 117/117/117
f 116/116/116 119/119/119 117/117/117
f 119/119/119 55/55/55 118/118/118
f 115/115/115 120/120/120 116/116/116
f 120/120/120 115/115/115 46/46/46
f 120/120/120 119/119/119 116/116/116
f 121/121/121 55/55/55 119/119/119
f 120/120/120 121/121/121 119/119/119
f 121/121/121 120/120/120 46/46/46
f 121/121/121 53/53/53 55/55/55
f 53/53/53 121/121/121 46/46/46
f 124/124/124 123/123/123 122/122/122
f 125/125/125 124/124/124 122/122/122
f 124/124/124 126/126/126 123/123/123
f 125/125/125 122/122/122 127/127/127
f 128/128/128 125/125/125 127/127/127
f 126/126/126 129/129/129 123/123/123
f 129/129/129 126/126/126 130/130/130
f 127/127/127 131/131/131 128/128/128
f 131/131/131 132/132/132 128/128/128
f 133/133/133 129/129/129 130/130/130
f 133/133/133 130/130/130 134/134/134
f 132/132/132 131/131/131 135/135/135
f 136/136/136 132/132/132 135/135/135
f 137/137/137 133/133/133 134/134/134
f 134/134/134 138/138/138 137/137/137
f 136/136/136 135/135/135 139/139/139
f 140/140/140 136/136/136 139/139/139
f 138/138/138 141/141/141 137/137/137
f 138/138/138 142/142/142 141/141/141
f 140/140/140 139/139/139 143/143/143
f 144/144/144 140/140/140 143/143/143
f 142/142/142 145/145/145 141/141/141
f 145/145/145 142/142/142 146/146/146
f 143/143/143 147/147/147 144/144/144
f 147/147/147 148/148/148 144/144/144
f 149/149/149 145/145/145 146/146/146
f 146/146/146 150/150/150 149/149/149
f 148/148/148 147/147/147 151/151/151
f 152/152/152 148/148/148 151/151/151
f 150/150/150 153/153/153 149/149/149
f 150/150/150 154/154/154 153/153/153
f 152/152/152 151/151/151 155/155/155
f 156/156/156 152/152/152 155/155/155
f 154/154/154 157/157/157 153/153/153
f 154/154/154 158/158/158 157/157/157
f 156/156/156 155/155/155 159/159/159
f 160/160/160 156/156/156 159/159/159
f 158/158/158 161/161/161 157/157/157
f 161/161/161 158/158/158 162/162/162
f 159/159/159 163/163/163 160/160/160
f 163/163/163 164/164/164 160/160/160
f 165/165/165 161/161/161 162/162/162
f 162/162/162 166/166/166 165/165/165
f 164/164/164 163/163/163 167/167/167
f 168/168/168 164/164/164 167/167/167
f 166/166/166 168/168/168 169/169/169
f 166/166/166 169/169/169 165/165/165
f 168/168/168 167/167/167 169/169/169
f 159/159/159 155/155/155 170/170/170
f 171/171/171 163/163/163 159/159/159
f 170/170/170 171/171/171 159/159/159
f 167/167/167 163/163/163 172/172/172
f 163/163/163 171/171/171 172/172/172
f 169/169/169 167/167/167 173/173/173
f 167/167/167 172/172/172 173/173/173
f 165/165/165 169/169/169 174/174/174
f 169/169/169 173/173/173 174/174/174
f 175/175/175 161/161/161 165/165/165
f 174/174/174 175/175/175 165/165/165
f 155/155/155 176/176/176 170/170/170
f 155/155/155 151/151/151 176/176/176
f 161/161/161 175/175/175 177/177/177
f 157/157/157 161/161/161 177/177/177
f 151/151/151 178/178/178 176/176/176
f 151/151/151 147/147/147 178/178/178
f 157/157/157 177/177/177 179/179/179
f 153/153/153 157/157/157 179/179/179
f 147/147/147 180/180/180 178/178/178
f 180/180/180 147/147/147 143/143/143
f 153/153/153 179/179/179 181/181/181
f 149/149/149 153/153/153 181/181/181
f 182/182/182 180/180/180 143/143/143
f 143/143/143 139/139/139 182/182/182
f 181/181/181 183/183/183 149/149/149
f 183/183/183 145/145/145 149/149/149
f 139/139/139 184/184/184 182/182/182
f 139/139/139 135/135/135 184/184/184
f 145/145/145 183/183/183 185/185/185
f 141/141/141 145/145/145 185/185/185
f 135/135/135 186/186/186 184/184/184
f 135/135/135 131/131/131 186/186/186
f 141/141/141 185/185/185 187/187/187
f 137/137/137 141/141/141 187/187/187
f 131/131/131 188/188/188 186/186/186
f 188/188/188 131/131/131 127/127/127
f 187/187/187 189/189/189 137/137/137
f 189/189/189 133/133/133 137/137/137
f 190/190/190 188/188/188 127/127/127
f 127/127/127 122/122/122 190/190/190
f 189/189/189 191/191/191 133/133/133
f 191/191/191 129/129/129 133/133/133
f 122/122/122 192/192/192 190/190/190
f 122/122/122 123/123/123 192/192/192
f 123/123/123 129/129/129 193/193/193
f 129/129/129 191/191/191 193/193/193
f 123/123/123 193/193/193 192/192/192
f 186/186/186 188/188/188 194/194/194
f 195/195/195 188/188/188 190/190/190
f 188/188/188 195/195/195 194/194/194
f 194/194/194 195/195/195 196/196/196
f 186/186/186 194/194/194 197/197/197
f 197/197/197 194/194/194 196/196/196
f 184/184/184 186/186/186 197/197/197
f 198/198/198 195/195/195 190/190/190
f 190/190/190 192/192/192 198/198/198
f 195/195/195 198/198/198 196/196/196
f 184/184/184 197/197/197 199/199/199
f 199/199/199 197/197/197 196/196/196
f 182/182/182 184/184/184 199/199/199
f 192/192/192 200/200/200 198/198/198
f 192/192/192 193/193/193 200/200/200
f 198/198/198 200/200/200 196/196/196
f 199/199/199 201/201/201 182/182/182
f 201/201/201 199/199/199 196/196/196
f 201/201/201 180/180/180 182/182/182
f 193/193/193 202/202/202 200/200/200
f 200/200/200 202/202/202 196/196/196
f 203/203/203 201/201/201 196/196/196
f 180/180/180 201/201/201 203/203/203
f 202/202/202 204/204/204 196/196/196
f 193/193/193 191/191/191 202/202/202
f 191/191/191 204/204/204 202/202/202
f 178/178/178 180/180/180 203/203/203
f 204/204/204 191/191/191 189/189/189
f 178/178/178 203/203/203 205/205/205
f 205/205/205 203/203/203 196/196/196
f 176/176/176 178/178/178 205/205/205
f 206/206/206 204/204/204 189/189/189
f 204/204/204 206/206/206 196/196/196
f 206/206/206 189/189/189 187/187/187
f 176/176/176 205/205/205 207/207/207
f 207/207/207 205/205/205 196/196/196
f 170/170/170 176/176/176 207/207/207
f 208/208/208 206/206/206 187/187/187
f 206/206/206 208/208/208 196/196/196
f 187/187/187 185/185/185 208/208/208
f 207/207/207 209/209/209 170/170/170
f 209/209/209 207/207/207 196/196/196
f 209/209/209 171/171/171 170/170/170
f 208/208/208 210/210/210 196/196/196
f 185/185/185 210/210/210 208/208/208
f 211/211/211 209/209/209 196/196/196
f 171/171/171 209/209/209 211/211/211
f 210/210/210 212/212/212 196/196/196
f 185/185/185 183/183/183 210/210/210
f 183/183/183 212/212/212 210/210/210
f 172/172/172 171/171/171 211/211/211
f 212/212/212 183/183/183 181/181/181
f 172/172/172 211/211/211 213/213/213
f 213/213/213 211/211/211 196/196/196
f 173/173/173 172/172/172 213/213/213
f 214/214/214 212/212/212 181/181/181
f 212/212/212 214/214/214 196/196/196
f 181/181/181 179/179/179 214/214/214
f 173/173/173 213/213/213 215/215/215
f 215/215/215 213/213/213 196/196/196
f 174/174/174 173/173/173 215/215/215
f 179/179/179 216/216/216 214/214/214
f 214/214/214 216/216/216 196/196/196
f 179/179/179 177/177/177 216/216/216
f 215/215/215 217/217/217 174/174/174
f 217/217/217 215/215/215 196/196/196
f 217/217/217 175/175/175 174/174/174
f 216/216/216 218/218/218 196/196/196
f 177/177/177 218/218/218 216/216/216
f 177/177/177 175/175/175 218/218/218
f 218/218/218 217/217/217 196/196/196
f 175/175/175 217/217/217 218/218/218
