g HexaBase
v -7.477365 1.195457 -8.229001
v -6.566265 1.195457 -9.369009
v -6.519668 1.454587 -9.316096
v -5.320202 1.195457 -10.12865
v -5.294513 1.454587 -10.06299
v -3.889476 1.195457 -10.4163
v -3.881743 1.454587 -10.34703
v 3.38784 1.195457 -10.59009
v -7.419333 1.454587 -8.190396
v -6.392367 1.644284 -9.171536
v -5.224331 1.644284 -9.883613
v -10.90167 1.454587 -1.811832
v -10.96552 1.195457 -1.839771
v -11.36206 1.454587 -0.4463171
v -11.43177 1.195457 -0.456898
v -11.32781 1.454587 0.9881468
v -11.39693 1.195457 1.002043
v -10.8652 1.195457 2.361085
v 3.383426 1.454587 -10.52053
v -3.860622 1.644284 -10.15779
v 4.808143 1.454587 -10.30425
v 4.830667 1.195457 -10.37106
v 6.111568 1.195457 -9.671755
v 6.067553 1.454587 -9.616681
v 7.076046 1.195457 -8.576535
v 4.746601 1.644284 -10.12172
v 7.019923 1.454587 -8.535206
v 10.8652 1.195457 -2.361086
v 3.371361 1.644284 -10.33049
v 5.947294 1.644284 -9.466208
v 4.662536 1.713717 -9.872381
v -5.128458 1.713717 -9.638571
v -3.831773 1.713717 -9.899277
v -2.525215E-08 1.713717 -2.265686E-07
v -6.218465 1.713717 -8.974065
v 3.354882 1.713717 -10.07089
v 5.783019 1.713717 -9.260659
v 6.866593 1.644284 -8.422293
v -7.260786 1.644284 -8.084929
v 6.657135 1.713717 -8.268048
v -7.044208 1.713717 -7.940859
v -10.48891 1.713717 -1.631227
v 10.39909 1.713717 -2.130031
v -10.72721 1.644284 -1.7355
v 10.80276 1.454587 -2.330132
v 10.63215 1.644284 -2.24556
v -10.91148 1.713717 -0.3779144
v -11.17162 1.644284 -0.4174051
v 11.32781 1.454587 -0.98815
v 11.39693 1.195457 -1.002045
v 11.43177 1.195457 0.4568961
v 10.881 1.713717 -0.8983166
v 11.13896 1.644284 -0.950181
v 11.36206 1.454587 0.4463145
v 10.96552 1.195457 1.83977
v -11.13896 1.644284 0.9501798
v 11.17163 1.644284 0.4174024
v 10.90167 1.454587 1.81183
v 7.477365 1.195457 8.228999
v 10.91148 1.713717 0.3779123
v 10.72721 1.644284 1.735499
v 7.419332 1.454587 8.190396
v 10.48891 1.713717 1.631226
v 7.260786 1.644284 8.084929
v 6.519666 1.454587 9.316096
v 6.566263 1.195457 9.369009
v 5.3202 1.195457 10.12865
v 7.044206 1.713717 7.940859
v 6.218463 1.713717 8.974064
v 5.128456 1.713717 9.638573
v 3.831771 1.713717 9.899277
v 6.392366 1.644284 9.171536
v 5.294512 1.454587 10.06299
v 3.889474 1.195457 10.41631
v 5.224329 1.644284 9.883612
v 3.881742 1.454587 10.34704
v -3.387841 1.195457 10.59009
v 3.860621 1.644284 10.15779
v -3.383426 1.454587 10.52053
v -3.371363 1.644284 10.33049
v -4.808143 1.454587 10.30425
v -4.830668 1.195457 10.37105
v -6.11157 1.195457 9.671755
v -4.746602 1.644284 10.12172
v -6.067553 1.454587 9.616681
v -7.076048 1.195457 8.576533
v -3.354884 1.713717 10.07089
v -4.662536 1.713717 9.872378
v -7.019926 1.454587 8.535204
v -5.947295 1.644284 9.466207
v -10.80276 1.454587 2.330131
v -5.78302 1.713717 9.260659
v -6.866594 1.644284 8.422293
v -10.63215 1.644284 2.245558
v -6.657135 1.713717 8.268046
v -10.881 1.713717 0.8983142
v -10.39909 1.713717 2.13003
v -7.477365 1.195457 -8.229001
v -10.96552 1.195457 -1.839771
v -7.477365 -0.02770127 -8.229001
v -6.566265 1.195457 -9.369009
v -6.566265 -0.02770127 -9.369009
v -5.320202 1.195457 -10.12865
v -5.320202 -0.02770127 -10.12865
v -3.889476 1.195457 -10.4163
v -5.294513 -0.2868315 -10.06299
v -3.889476 -0.02770127 -10.4163
v -6.519668 -0.2868315 -9.316096
v 3.38784 -0.02770127 -10.59009
v 3.38784 1.195457 -10.59009
v 4.830667 1.195457 -10.37106
v 4.830667 -0.02770127 -10.37106
v 6.111568 1.195457 -9.671755
v 6.111568 -0.02770127 -9.671755
v 7.076046 1.195457 -8.576535
v -3.881743 -0.2868315 -10.34703
v 3.383426 -0.2868315 -10.52053
v 4.808143 -0.2868315 -10.30425
v 6.067553 -0.2868315 -9.616681
v 7.076046 -0.02770127 -8.576535
v -5.224331 -0.476528 -9.883613
v 10.8652 -0.02770127 -2.361086
v 10.8652 1.195457 -2.361086
v 11.39693 1.195457 -1.002045
v 11.39693 -0.02770127 -1.002045
v 11.43177 1.195457 0.4568961
v 11.43177 -0.02770127 0.4568961
v 10.96552 1.195457 1.83977
v 5.947294 -0.476528 -9.466208
v 7.019923 -0.2868315 -8.535206
v 10.80276 -0.2868315 -2.330132
v 11.32781 -0.2868315 -0.98815
v 11.36206 -0.2868315 0.4463145
v 10.96552 -0.02770127 1.83977
v 4.746601 -0.476528 -10.12172
v 7.477365 -0.02770127 8.228999
v 7.477365 1.195457 8.228999
v 6.566263 1.195457 9.369009
v 3.371361 -0.476528 -10.33049
v 6.566263 -0.02770127 9.369009
v 5.3202 1.195457 10.12865
v -3.860622 -0.476528 -10.15779
v 5.3202 -0.02770127 10.12865
v 3.889474 1.195457 10.41631
v 7.419332 -0.2868315 8.190396
v 6.519666 -0.2868315 9.316096
v 5.294512 -0.2868315 10.06299
v 3.889474 -0.02770127 10.41631
v 10.90167 -0.2868315 1.81183
v -3.387841 -0.02770127 10.59009
v -3.387841 1.195457 10.59009
v -4.830668 1.195457 10.37105
v 11.17163 -0.476528 0.4174024
v -4.830668 -0.02770127 10.37105
v -6.11157 1.195457 9.671755
v 11.13896 -0.476528 -0.950181
v -6.11157 -0.02770127 9.671755
v -7.076048 1.195457 8.576533
v 10.63215 -0.476528 -2.24556
v 6.866593 -0.476528 -8.422293
v 5.783019 -0.5459617 -9.260659
v 4.662536 -0.5459617 -9.872381
v -1.720588E-07 -0.545962 -3.185423E-07
v 3.354882 -0.5459617 -10.07089
v 6.657135 -0.5459617 -8.268048
v 10.39909 -0.5459617 -2.130031
v 10.881 -0.5459617 -0.8983166
v 10.91148 -0.5459617 0.3779123
v -3.831773 -0.5459617 -9.899277
v -5.128458 -0.5459617 -9.638571
v 10.48891 -0.5459617 1.631226
v 10.72721 -0.476528 1.735499
v -6.392367 -0.476528 -9.171536
v 7.044206 -0.5459617 7.94086
v 7.260784 -0.476528 8.084929
v 6.218463 -0.5459617 8.974064
v 6.392366 -0.476528 9.171536
v 5.128456 -0.5459617 9.638573
v 5.224329 -0.476528 9.883612
v 3.881742 -0.2868315 10.34704
v 3.860621 -0.476528 10.15779
v -3.383426 -0.2868315 10.52053
v 3.831771 -0.5459617 9.899277
v -3.371363 -0.476528 10.33049
v -3.354884 -0.5459617 10.07089
v -4.662536 -0.5459617 9.872378
v -5.78302 -0.5459617 9.260659
v -6.657135 -0.5459617 8.268046
v -4.746602 -0.476528 10.12172
v -4.808143 -0.2868315 10.30425
v -5.947295 -0.476528 9.466207
v -6.067553 -0.2868315 9.616681
v -6.866594 -0.476528 8.422293
v -7.076048 -0.02770127 8.576533
v -7.019926 -0.2868315 8.535204
v -10.39909 -0.5459617 2.13003
v -10.8652 -0.02770127 2.361085
v -10.8652 1.195457 2.361085
v -11.39693 1.195457 1.002043
v -10.80276 -0.2868315 2.330131
v -10.63215 -0.476528 2.245558
v -11.39693 -0.02770127 1.002043
v -11.43177 1.195457 -0.456898
v -10.881 -0.5459617 0.8983142
v -11.13896 -0.476528 0.9501798
v -11.32781 -0.2868315 0.9881468
v -11.43177 -0.02770127 -0.456898
v -10.91148 -0.5459617 -0.3779144
v -11.36206 -0.2868315 -0.4463171
v -10.96552 -0.02770127 -1.839771
v -11.17162 -0.476528 -0.4174051
v -7.419333 -0.2868315 -8.190396
v -10.90167 -0.2868315 -1.811832
v -10.72721 -0.476528 -1.7355
v -7.260786 -0.476528 -8.084929
v -10.48891 -0.5459617 -1.631227
v -7.044208 -0.5459617 -7.940859
v -6.218465 -0.5459617 -8.974065
vt 0.9301758 0.8432617
vt 0.9291992 0.8427734
vt 0.9291992 0.8432617
vt 0.9277344 0.8427734
vt 0.9282227 0.8427734
vt 0.9267578 0.8432617
vt 0.9272461 0.8432617
vt 0.9223633 0.8452148
vt 0.9296875 0.8432617
vt 0.9287109 0.8432617
vt 0.9282227 0.8432617
vt 0.934082 0.8461914
vt 0.934082 0.8461914
vt 0.9345703 0.8466797
vt 0.9350586 0.8466797
vt 0.9350586 0.8476563
vt 0.9355469 0.8476563
vt 0.9355469 0.8486328
vt 0.9228516 0.8457031
vt 0.9272461 0.8432617
vt 0.921875 0.8461914
vt 0.921875 0.8461914
vt 0.9213867 0.8466797
vt 0.9213867 0.847168
vt 0.9208984 0.8476563
vt 0.921875 0.8461914
vt 0.9208984 0.8476563
vt 0.9204102 0.8530273
vt 0.9228516 0.8457031
vt 0.9213867 0.847168
vt 0.9223633 0.8461914
vt 0.9282227 0.8432617
vt 0.9272461 0.84375
vt 0.9282227 0.8505859
vt 0.9287109 0.8432617
vt 0.9228516 0.8457031
vt 0.921875 0.847168
vt 0.9213867 0.8481445
vt 0.9296875 0.84375
vt 0.9213867 0.8481445
vt 0.9296875 0.84375
vt 0.9335938 0.8461914
vt 0.9213867 0.8530273
vt 0.934082 0.8461914
vt 0.9208984 0.8530273
vt 0.9208984 0.8530273
vt 0.9345703 0.847168
vt 0.9345703 0.8466797
vt 0.9208984 0.8540039
vt 0.9208984 0.8540039
vt 0.9213867 0.8549805
vt 0.9213867 0.8535156
vt 0.9208984 0.8535156
vt 0.9213867 0.8544922
vt 0.921875 0.8554688
vt 0.9350586 0.8476563
vt 0.9213867 0.8544922
vt 0.9223633 0.8554688
vt 0.9262695 0.8583984
vt 0.921875 0.8544922
vt 0.9223633 0.8549805
vt 0.9262695 0.8579102
vt 0.9223633 0.8549805
vt 0.9262695 0.8579102
vt 0.9272461 0.8583984
vt 0.9272461 0.8583984
vt 0.9282227 0.8588867
vt 0.9262695 0.8579102
vt 0.9272461 0.8579102
vt 0.9282227 0.8579102
vt 0.9291992 0.8579102
vt 0.9272461 0.8583984
vt 0.9282227 0.8583984
vt 0.9291992 0.8583984
vt 0.9282227 0.8583984
vt 0.9291992 0.8583984
vt 0.9335938 0.855957
vt 0.9291992 0.8579102
vt 0.9335938 0.855957
vt 0.9335938 0.855957
vt 0.934082 0.8554688
vt 0.9345703 0.8554688
vt 0.9350586 0.8544922
vt 0.934082 0.8549805
vt 0.9345703 0.8544922
vt 0.9350586 0.8535156
vt 0.9331055 0.8554688
vt 0.934082 0.8549805
vt 0.9350586 0.8535156
vt 0.9345703 0.8544922
vt 0.9355469 0.8486328
vt 0.9345703 0.8544922
vt 0.9350586 0.8535156
vt 0.9350586 0.8486328
vt 0.9345703 0.8535156
vt 0.9350586 0.8476563
vt 0.9350586 0.8486328
vt 0.5429688 0.7495117
vt 0.5385742 0.75
vt 0.5429688 0.75
vt 0.5439453 0.7495117
vt 0.5439453 0.75
vt 0.5449219 0.75
vt 0.5449219 0.7504883
vt 0.5458984 0.7504883
vt 0.5449219 0.7504883
vt 0.5454102 0.7509766
vt 0.5439453 0.7504883
vt 0.5483398 0.7543945
vt 0.5488281 0.7543945
vt 0.5493164 0.7553711
vt 0.5483398 0.7553711
vt 0.5493164 0.7563477
vt 0.5483398 0.7563477
vt 0.5493164 0.7573242
vt 0.5454102 0.7509766
vt 0.5478516 0.7548828
vt 0.5483398 0.7553711
vt 0.5483398 0.7563477
vt 0.5483398 0.7573242
vt 0.5444336 0.7509766
vt 0.546875 0.7612305
vt 0.5473633 0.7617188
vt 0.546875 0.7626953
vt 0.5458984 0.762207
vt 0.5458984 0.7631836
vt 0.5454102 0.7626953
vt 0.5449219 0.7636719
vt 0.5483398 0.7563477
vt 0.5483398 0.7573242
vt 0.5463867 0.7612305
vt 0.5458984 0.7617188
vt 0.5454102 0.762207
vt 0.5444336 0.7626953
vt 0.5483398 0.7553711
vt 0.5400391 0.7631836
vt 0.5400391 0.7641602
vt 0.5390625 0.7641602
vt 0.5478516 0.7548828
vt 0.5390625 0.7631836
vt 0.5380859 0.7636719
vt 0.5454102 0.7514648
vt 0.5385742 0.7626953
vt 0.5371094 0.7626953
vt 0.5400391 0.7631836
vt 0.5395508 0.7631836
vt 0.5385742 0.7626953
vt 0.5375977 0.762207
vt 0.5444336 0.7626953
vt 0.5351563 0.7587891
vt 0.534668 0.7592773
vt 0.5341797 0.7583008
vt 0.5454102 0.762207
vt 0.534668 0.7578125
vt 0.5341797 0.7573242
vt 0.5458984 0.7617188
vt 0.534668 0.7573242
vt 0.5341797 0.7558594
vt 0.5463867 0.7612305
vt 0.5483398 0.7573242
vt 0.5483398 0.7563477
vt 0.5478516 0.7553711
vt 0.5415039 0.7568359
vt 0.5478516 0.7548828
vt 0.5478516 0.7568359
vt 0.5463867 0.7612305
vt 0.5458984 0.7617188
vt 0.5454102 0.762207
vt 0.5449219 0.7514648
vt 0.5444336 0.7509766
vt 0.5444336 0.762207
vt 0.5444336 0.7626953
vt 0.5439453 0.7504883
vt 0.5400391 0.7626953
vt 0.5400391 0.7631836
vt 0.5395508 0.7626953
vt 0.5395508 0.7631836
vt 0.5385742 0.7626953
vt 0.5385742 0.7626953
vt 0.5380859 0.762207
vt 0.5380859 0.762207
vt 0.5351563 0.7587891
vt 0.5380859 0.762207
vt 0.5356445 0.7587891
vt 0.5356445 0.7587891
vt 0.5351563 0.7578125
vt 0.5351563 0.7573242
vt 0.5351563 0.7563477
vt 0.5351563 0.7578125
vt 0.5351563 0.7578125
vt 0.5351563 0.7573242
vt 0.534668 0.7573242
vt 0.5351563 0.7563477
vt 0.534668 0.7563477
vt 0.5351563 0.7563477
vt 0.5371094 0.7524414
vt 0.5366211 0.7519531
vt 0.5361328 0.7519531
vt 0.5366211 0.7509766
vt 0.5366211 0.7524414
vt 0.5366211 0.7524414
vt 0.5371094 0.7514648
vt 0.5375977 0.7504883
vt 0.5375977 0.7519531
vt 0.5371094 0.7514648
vt 0.5371094 0.7514648
vt 0.5375977 0.7509766
vt 0.5380859 0.7514648
vt 0.5380859 0.7509766
vt 0.5385742 0.7504883
vt 0.5380859 0.7509766
vt 0.5429688 0.75
vt 0.5385742 0.7504883
vt 0.5385742 0.7509766
vt 0.5429688 0.7504883
vt 0.5385742 0.7509766
vt 0.5429688 0.7504883
vt 0.5439453 0.7504883
vn -0.8623047 0.04626465 -0.5039063
vn -0.6601563 0.04608154 -0.7495117
vn -0.5766602 0.489502 -0.6542969
vn -0.3640137 0.04608154 -0.9301758
vn -0.3173828 0.489502 -0.8120117
vn -0.05282593 0.04626465 -0.9975586
vn -0.04571533 0.4936523 -0.8686523
vn 0.005161285 0.04626465 -0.9990234
vn -0.7509766 0.4936523 -0.4384766
vn -0.3452148 0.8530273 -0.3911133
vn -0.1894531 0.8530273 -0.486084
vn -0.7749023 0.4936523 -0.3945313
vn -0.8901367 0.04626465 -0.453125
vn -0.8618164 0.489502 -0.1312256
vn -0.987793 0.04608154 -0.1499023
vn -0.8549805 0.489502 0.1722412
vn -0.9794922 0.04608154 0.1968994
vn -0.8676758 0.04626465 0.494873
vn 0.00422287 0.4936523 -0.8696289
vn -0.02662659 0.859375 -0.5107422
vn 0.2783203 0.489502 -0.8266602
vn 0.3190918 0.04608154 -0.9467773
vn 0.6235352 0.04608154 -0.7802734
vn 0.5449219 0.489502 -0.6811523
vn 0.8374023 0.04626465 -0.5444336
vn 0.1660156 0.8530273 -0.4943848
vn 0.7290039 0.4936523 -0.473877
vn 0.8676758 0.04626465 -0.494873
vn 0.002220154 0.859375 -0.5112305
vn 0.3261719 0.8530273 -0.4069824
vn 0.00491333 1 -0.01467896
vn -0.005607605 1 -0.01442719
vn -0.0008459091 1 -0.01643372
vn 0 1 0
vn -0.01025391 1 -0.01159668
vn 6.049871E-05 1 -0.01644897
vn 0.009689331 1 -0.0120697
vn 0.4289551 0.859375 -0.2783203
vn -0.4416504 0.859375 -0.2575684
vn 0.0138092 1 -0.00894928
vn -0.01422119 1 -0.008277893
vn -0.01465607 1 -0.007484436
vn 0.01428223 1 -0.008171082
vn -0.4555664 0.859375 -0.2322998
vn 0.7553711 0.4936523 -0.4311523
vn 0.4438477 0.859375 -0.2536621
vn -0.01529694 1 -0.002357483
vn -0.515625 0.8530273 -0.07891846
vn 0.8549805 0.489502 -0.1722412
vn 0.9794922 0.04608154 -0.1968994
vn 0.987793 0.04608154 0.1499023
vn 0.01516724 1 -0.00308609
vn 0.5112305 0.8530273 -0.1034546
vn 0.8618164 0.489502 0.1312256
vn 0.8901367 0.04626465 0.453125
vn -0.5112305 0.8530273 0.1034546
vn 0.515625 0.8530273 0.07891846
vn 0.7749023 0.4936523 0.3945313
vn 0.8623047 0.04626465 0.5039063
vn 0.01529694 1 0.002357483
vn 0.4555664 0.859375 0.2322998
vn 0.7509766 0.4936523 0.4384766
vn 0.01465607 1 0.007484436
vn 0.4416504 0.859375 0.2575684
vn 0.5766602 0.489502 0.6542969
vn 0.6601563 0.04608154 0.7495117
vn 0.3640137 0.04608154 0.9301758
vn 0.01422119 1 0.008277893
vn 0.01025391 1 0.01159668
vn 0.005607605 1 0.01442719
vn 0.0008459091 1 0.01643372
vn 0.3452148 0.8530273 0.3911133
vn 0.3173828 0.489502 0.8120117
vn 0.05282593 0.04626465 0.9975586
vn 0.1894531 0.8530273 0.486084
vn 0.04571533 0.4936523 0.8686523
vn -0.005161285 0.04626465 0.9990234
vn 0.02662659 0.859375 0.5107422
vn -0.00422287 0.4936523 0.8696289
vn -0.002220154 0.859375 0.5112305
vn -0.2783203 0.489502 0.8266602
vn -0.3190918 0.04608154 0.9467773
vn -0.6235352 0.04608154 0.7802734
vn -0.1660156 0.8530273 0.4943848
vn -0.5449219 0.489502 0.6811523
vn -0.8374023 0.04626465 0.5444336
vn -6.055832E-05 1 0.01644897
vn -0.00491333 1 0.01467896
vn -0.7290039 0.4936523 0.473877
vn -0.3261719 0.8530273 0.4069824
vn -0.7553711 0.4936523 0.4311523
vn -0.009689331 1 0.0120697
vn -0.4289551 0.859375 0.2783203
vn -0.4438477 0.859375 0.2536621
vn -0.0138092 1 0.00894928
vn -0.01516724 1 0.00308609
vn -0.01428223 1 0.008171082
vn -0.8623047 0.04626465 -0.5039063
vn -0.8901367 0.04626465 -0.453125
vn -0.8623047 -0.04626465 -0.5039063
vn -0.6601563 0.04608154 -0.7495117
vn -0.6601563 -0.04608154 -0.7495117
vn -0.3640137 0.04608154 -0.9301758
vn -0.3640137 -0.04608154 -0.9301758
vn -0.05282593 0.04626465 -0.9975586
vn -0.3173828 -0.489502 -0.8120117
vn -0.05282593 -0.04626465 -0.9975586
vn -0.5766602 -0.489502 -0.6542969
vn 0.005161285 -0.04626465 -0.9990234
vn 0.005161285 0.04626465 -0.9990234
vn 0.3190918 0.04608154 -0.9467773
vn 0.3190918 -0.04608154 -0.9467773
vn 0.6235352 0.04608154 -0.7802734
vn 0.6235352 -0.04608154 -0.7802734
vn 0.8374023 0.04626465 -0.5444336
vn -0.04571533 -0.4936523 -0.8686523
vn 0.00422287 -0.4936523 -0.8696289
vn 0.2783203 -0.489502 -0.8266602
vn 0.5449219 -0.489502 -0.6811523
vn 0.8374023 -0.04626465 -0.5444336
vn -0.1894531 -0.8530273 -0.486084
vn 0.8676758 -0.04626465 -0.494873
vn 0.8676758 0.04626465 -0.494873
vn 0.9794922 0.04608154 -0.1968994
vn 0.9794922 -0.04608154 -0.1968994
vn 0.987793 0.04608154 0.1499023
vn 0.987793 -0.04608154 0.1499023
vn 0.8901367 0.04626465 0.453125
vn 0.3261719 -0.8530273 -0.4069824
vn 0.7290039 -0.4936523 -0.473877
vn 0.7553711 -0.4936523 -0.4311523
vn 0.8549805 -0.489502 -0.1722412
vn 0.8618164 -0.489502 0.1312256
vn 0.8901367 -0.04626465 0.453125
vn 0.1660156 -0.8530273 -0.4943848
vn 0.8623047 -0.04626465 0.5039063
vn 0.8623047 0.04626465 0.5039063
vn 0.6601563 0.04608154 0.7495117
vn 0.002220154 -0.859375 -0.5112305
vn 0.6601563 -0.04608154 0.7495117
vn 0.3640137 0.04608154 0.9301758
vn -0.02662659 -0.859375 -0.5107422
vn 0.3640137 -0.04608154 0.9301758
vn 0.05282593 0.04626465 0.9975586
vn 0.7509766 -0.4936523 0.4384766
vn 0.5766602 -0.489502 0.6542969
vn 0.3173828 -0.489502 0.8120117
vn 0.05282593 -0.04626465 0.9975586
vn 0.7749023 -0.4936523 0.3945313
vn -0.005161285 -0.04626465 0.9990234
vn -0.005161285 0.04626465 0.9990234
vn -0.3190918 0.04608154 0.9467773
vn 0.515625 -0.8530273 0.07891846
vn -0.3190918 -0.04608154 0.9467773
vn -0.6235352 0.04608154 0.7802734
vn 0.5112305 -0.8530273 -0.1034546
vn -0.6235352 -0.04608154 0.7802734
vn -0.8374023 0.04626465 0.5444336
vn 0.4438477 -0.859375 -0.2536621
vn 0.4289551 -0.859375 -0.2783203
vn 0.009689331 -1 -0.0120697
vn 0.00491333 -1 -0.01467896
vn 0 -1 0
vn 6.055832E-05 -1 -0.01644897
vn 0.0138092 -1 -0.00894928
vn 0.01428223 -1 -0.008171082
vn 0.01516724 -1 -0.00308609
vn 0.01529694 -1 0.002357483
vn -0.0008459091 -1 -0.01643372
vn -0.005607605 -1 -0.01442719
vn 0.01465607 -1 0.007484436
vn 0.4555664 -0.859375 0.2322998
vn -0.3452148 -0.8530273 -0.3911133
vn 0.01422119 -1 0.008277893
vn 0.4416504 -0.859375 0.2575684
vn 0.01025391 -1 0.01159668
vn 0.3452148 -0.8530273 0.3911133
vn 0.005607605 -1 0.01442719
vn 0.1894531 -0.8530273 0.486084
vn 0.04571533 -0.4936523 0.8686523
vn 0.02662659 -0.859375 0.5107422
vn -0.00422287 -0.4936523 0.8696289
vn 0.0008459091 -1 0.01643372
vn -0.002220154 -0.859375 0.5112305
vn -6.055832E-05 -1 0.01644897
vn -0.00491333 -1 0.01467896
vn -0.009689331 -1 0.0120697
vn -0.0138092 -1 0.00894928
vn -0.1660156 -0.8530273 0.4943848
vn -0.2783203 -0.489502 0.8266602
vn -0.3261719 -0.8530273 0.4069824
vn -0.5449219 -0.489502 0.6811523
vn -0.4289551 -0.859375 0.2783203
vn -0.8374023 -0.04626465 0.5444336
vn -0.7290039 -0.4936523 0.473877
vn -0.01428223 -1 0.008171082
vn -0.8676758 -0.04626465 0.494873
vn -0.8676758 0.04626465 0.494873
vn -0.9794922 0.04608154 0.1968994
vn -0.7553711 -0.4936523 0.4311523
vn -0.4438477 -0.859375 0.2536621
vn -0.9794922 -0.04608154 0.1968994
vn -0.987793 0.04608154 -0.1499023
vn -0.01516724 -1 0.00308609
vn -0.5112305 -0.8530273 0.1034546
vn -0.8549805 -0.489502 0.1722412
vn -0.987793 -0.04608154 -0.1499023
vn -0.01529694 -1 -0.002357483
vn -0.8618164 -0.489502 -0.1312256
vn -0.8901367 -0.04626465 -0.453125
vn -0.515625 -0.8530273 -0.07891846
vn -0.7509766 -0.4936523 -0.4384766
vn -0.7749023 -0.4936523 -0.3945313
vn -0.4555664 -0.859375 -0.2322998
vn -0.4416504 -0.859375 -0.2575684
vn -0.01465607 -1 -0.007484436
vn -0.01422119 -1 -0.008277893
vn -0.01025391 -1 -0.01159668
g HexaBase_0
f 3/3/3 2/2/2 1/1/1
f 4/4/4 2/2/2 3/3/3
f 4/4/4 3/3/3 5/5/5
f 6/6/6 4/4/4 5/5/5
f 6/6/6 5/5/5 7/7/7
f 8/8/8 6/6/6 7/7/7
f 3/3/3 1/1/1 9/9/9
f 5/5/5 3/3/3 10/10/10
f 10/10/10 3/3/3 9/9/9
f 7/7/7 5/5/5 11/11/11
f 5/5/5 10/10/10 11/11/11
f 12/12/12 9/9/9 1/1/1
f 12/12/12 1/1/1 13/13/13
f 13/13/13 14/14/14 12/12/12
f 13/13/13 15/15/15 14/14/14
f 15/15/15 16/16/16 14/14/14
f 15/15/15 17/17/17 16/16/16
f 16/16/16 17/17/17 18/18/18
f 8/8/8 7/7/7 19/19/19
f 7/7/7 11/11/11 20/20/20
f 19/19/19 7/7/7 20/20/20
f 21/21/21 8/8/8 19/19/19
f 21/21/21 22/22/22 8/8/8
f 23/23/23 22/22/22 21/21/21
f 23/23/23 21/21/21 24/24/24
f 25/25/25 23/23/23 24/24/24
f 26/26/26 21/21/21 19/19/19
f 24/24/24 21/21/21 26/26/26
f 25/25/25 24/24/24 27/27/27
f 28/28/28 25/25/25 27/27/27
f 19/19/19 20/20/20 29/29/29
f 26/26/26 19/19/19 29/29/29
f 24/24/24 26/26/26 30/30/30
f 27/27/27 24/24/24 30/30/30
f 31/31/31 26/26/26 29/29/29
f 30/30/30 26/26/26 31/31/31
f 20/20/20 11/11/11 32/32/32
f 29/29/29 20/20/20 33/33/33
f 20/20/20 32/32/32 33/33/33
f 33/33/33 32/32/32 34/34/34
f 11/11/11 35/35/35 32/32/32
f 32/32/32 35/35/35 34/34/34
f 11/11/11 10/10/10 35/35/35
f 29/29/29 33/33/33 36/36/36
f 31/31/31 29/29/29 36/36/36
f 36/36/36 33/33/33 34/34/34
f 31/31/31 36/36/36 34/34/34
f 30/30/30 31/31/31 37/37/37
f 37/37/37 31/31/31 34/34/34
f 27/27/27 30/30/30 38/38/38
f 38/38/38 30/30/30 37/37/37
f 35/35/35 10/10/10 39/39/39
f 10/10/10 9/9/9 39/39/39
f 40/40/40 37/37/37 34/34/34
f 38/38/38 37/37/37 40/40/40
f 35/35/35 41/41/41 34/34/34
f 35/35/35 39/39/39 41/41/41
f 41/41/41 42/42/42 34/34/34
f 42/42/42 41/41/41 39/39/39
f 43/43/43 40/40/40 34/34/34
f 44/44/44 39/39/39 9/9/9
f 42/42/42 39/39/39 44/44/44
f 44/44/44 9/9/9 12/12/12
f 45/45/45 27/27/27 38/38/38
f 28/28/28 27/27/27 45/45/45
f 46/46/46 38/38/38 40/40/40
f 46/46/46 40/40/40 43/43/43
f 45/45/45 38/38/38 46/46/46
f 44/44/44 47/47/47 42/42/42
f 42/42/42 47/47/47 34/34/34
f 12/12/12 48/48/48 44/44/44
f 44/44/44 48/48/48 47/47/47
f 12/12/12 14/14/14 48/48/48
f 49/49/49 28/28/28 45/45/45
f 49/49/49 50/50/50 28/28/28
f 51/51/51 50/50/50 49/49/49
f 52/52/52 46/46/46 43/43/43
f 52/52/52 43/43/43 34/34/34
f 53/53/53 45/45/45 46/46/46
f 53/53/53 49/49/49 45/45/45
f 52/52/52 53/53/53 46/46/46
f 51/51/51 49/49/49 54/54/54
f 54/54/54 49/49/49 53/53/53
f 55/55/55 51/51/51 54/54/54
f 14/14/14 56/56/56 48/48/48
f 14/14/14 16/16/16 56/56/56
f 57/57/57 53/53/53 52/52/52
f 54/54/54 53/53/53 57/57/57
f 55/55/55 54/54/54 58/58/58
f 58/58/58 54/54/54 57/57/57
f 59/59/59 55/55/55 58/58/58
f 57/57/57 52/52/52 60/60/60
f 60/60/60 52/52/52 34/34/34
f 58/58/58 57/57/57 61/61/61
f 61/61/61 57/57/57 60/60/60
f 59/59/59 58/58/58 62/62/62
f 62/62/62 58/58/58 61/61/61
f 61/61/61 60/60/60 63/63/63
f 63/63/63 60/60/60 34/34/34
f 64/64/64 61/61/61 63/63/63
f 62/62/62 61/61/61 64/64/64
f 65/65/65 59/59/59 62/62/62
f 65/65/65 66/66/66 59/59/59
f 67/67/67 66/66/66 65/65/65
f 68/68/68 63/63/63 34/34/34
f 64/64/64 63/63/63 68/68/68
f 69/69/69 68/68/68 34/34/34
f 69/69/69 64/64/64 68/68/68
f 70/70/70 69/69/69 34/34/34
f 71/71/71 70/70/70 34/34/34
f 72/72/72 62/62/62 64/64/64
f 72/72/72 65/65/65 62/62/62
f 69/69/69 72/72/72 64/64/64
f 67/67/67 65/65/65 73/73/73
f 73/73/73 65/65/65 72/72/72
f 74/74/74 67/67/67 73/73/73
f 75/75/75 72/72/72 69/69/69
f 75/75/75 69/69/69 70/70/70
f 73/73/73 72/72/72 75/75/75
f 74/74/74 73/73/73 76/76/76
f 76/76/76 73/73/73 75/75/75
f 77/77/77 74/74/74 76/76/76
f 78/78/78 75/75/75 70/70/70
f 76/76/76 75/75/75 78/78/78
f 78/78/78 70/70/70 71/71/71
f 77/77/77 76/76/76 79/79/79
f 79/79/79 76/76/76 78/78/78
f 80/80/80 78/78/78 71/71/71
f 79/79/79 78/78/78 80/80/80
f 81/81/81 77/77/77 79/79/79
f 81/81/81 82/82/82 77/77/77
f 83/83/83 82/82/82 81/81/81
f 84/84/84 81/81/81 79/79/79
f 84/84/84 79/79/79 80/80/80
f 83/83/83 81/81/81 85/85/85
f 85/85/85 81/81/81 84/84/84
f 86/86/86 83/83/83 85/85/85
f 80/80/80 71/71/71 87/87/87
f 87/87/87 71/71/71 34/34/34
f 88/88/88 80/80/80 87/87/87
f 88/88/88 84/84/84 80/80/80
f 88/88/88 87/87/87 34/34/34
f 86/86/86 85/85/85 89/89/89
f 18/18/18 86/86/86 89/89/89
f 85/85/85 84/84/84 90/90/90
f 90/90/90 84/84/84 88/88/88
f 89/89/89 85/85/85 90/90/90
f 18/18/18 89/89/89 91/91/91
f 16/16/16 18/18/18 91/91/91
f 56/56/56 16/16/16 91/91/91
f 90/90/90 88/88/88 92/92/92
f 92/92/92 88/88/88 34/34/34
f 89/89/89 90/90/90 93/93/93
f 91/91/91 89/89/89 93/93/93
f 93/93/93 90/90/90 92/92/92
f 56/56/56 91/91/91 94/94/94
f 91/91/91 93/93/93 94/94/94
f 93/93/93 92/92/92 95/95/95
f 95/95/95 92/92/92 34/34/34
f 94/94/94 93/93/93 95/95/95
f 96/96/96 56/56/56 94/94/94
f 48/48/48 56/56/56 96/96/96
f 48/48/48 96/96/96 47/47/47
f 47/47/47 96/96/96 34/34/34
f 94/94/94 95/95/95 97/97/97
f 97/97/97 95/95/95 34/34/34
f 96/96/96 97/97/97 34/34/34
f 96/96/96 94/94/94 97/97/97
f 100/100/100 99/99/99 98/98/98
f 100/100/100 98/98/98 101/101/101
f 100/100/100 101/101/101 102/102/102
f 102/102/102 101/101/101 103/103/103
f 102/102/102 103/103/103 104/104/104
f 104/104/104 103/103/103 105/105/105
f 106/106/106 102/102/102 104/104/104
f 104/104/104 105/105/105 107/107/107
f 106/106/106 104/104/104 107/107/107
f 100/100/100 102/102/102 108/108/108
f 106/106/106 108/108/108 102/102/102
f 109/109/109 107/107/107 105/105/105
f 109/109/109 105/105/105 110/110/110
f 109/109/109 110/110/110 111/111/111
f 109/109/109 111/111/111 112/112/112
f 112/112/112 111/111/111 113/113/113
f 112/112/112 113/113/113 114/114/114
f 114/114/114 113/113/113 115/115/115
f 106/106/106 107/107/107 116/116/116
f 117/117/117 107/107/107 109/109/109
f 117/117/117 116/116/116 107/107/107
f 109/109/109 112/112/112 118/118/118
f 109/109/109 118/118/118 117/117/117
f 119/119/119 112/112/112 114/114/114
f 119/119/119 118/118/118 112/112/112
f 114/114/114 115/115/115 120/120/120
f 119/119/119 114/114/114 120/120/120
f 121/121/121 108/108/108 106/106/106
f 121/121/121 106/106/106 116/116/116
f 122/122/122 120/120/120 115/115/115
f 122/122/122 115/115/115 123/123/123
f 122/122/122 123/123/123 124/124/124
f 122/122/122 124/124/124 125/125/125
f 125/125/125 124/124/124 126/126/126
f 125/125/125 126/126/126 127/127/127
f 127/127/127 126/126/126 128/128/128
f 129/129/129 118/118/118 119/119/119
f 119/119/119 120/120/120 130/130/130
f 129/129/129 119/119/119 130/130/130
f 131/131/131 120/120/120 122/122/122
f 131/131/131 130/130/130 120/120/120
f 122/122/122 125/125/125 132/132/132
f 122/122/122 132/132/132 131/131/131
f 133/133/133 125/125/125 127/127/127
f 133/133/133 132/132/132 125/125/125
f 127/127/127 128/128/128 134/134/134
f 133/133/133 127/127/127 134/134/134
f 129/129/129 135/135/135 118/118/118
f 117/117/117 118/118/118 135/135/135
f 136/136/136 134/134/134 128/128/128
f 136/136/136 128/128/128 137/137/137
f 136/136/136 137/137/137 138/138/138
f 117/117/117 135/135/135 139/139/139
f 139/139/139 116/116/116 117/117/117
f 136/136/136 138/138/138 140/140/140
f 140/140/140 138/138/138 141/141/141
f 139/139/139 142/142/142 116/116/116
f 121/121/121 116/116/116 142/142/142
f 140/140/140 141/141/141 143/143/143
f 143/143/143 141/141/141 144/144/144
f 145/145/145 134/134/134 136/136/136
f 136/136/136 140/140/140 146/146/146
f 136/136/136 146/146/146 145/145/145
f 147/147/147 140/140/140 143/143/143
f 147/147/147 146/146/146 140/140/140
f 143/143/143 144/144/144 148/148/148
f 147/147/147 143/143/143 148/148/148
f 145/145/145 149/149/149 134/134/134
f 133/133/133 134/134/134 149/149/149
f 150/150/150 148/148/148 144/144/144
f 150/150/150 144/144/144 151/151/151
f 150/150/150 151/151/151 152/152/152
f 153/153/153 133/133/133 149/149/149
f 153/153/153 132/132/132 133/133/133
f 150/150/150 152/152/152 154/154/154
f 154/154/154 152/152/152 155/155/155
f 153/153/153 156/156/156 132/132/132
f 131/131/131 132/132/132 156/156/156
f 154/154/154 155/155/155 157/157/157
f 157/157/157 155/155/155 158/158/158
f 131/131/131 156/156/156 159/159/159
f 159/159/159 130/130/130 131/131/131
f 159/159/159 160/160/160 130/130/130
f 129/129/129 130/130/130 160/160/160
f 161/161/161 129/129/129 160/160/160
f 161/161/161 135/135/135 129/129/129
f 161/161/161 162/162/162 135/135/135
f 162/162/162 161/161/161 163/163/163
f 139/139/139 135/135/135 162/162/162
f 139/139/139 162/162/162 164/164/164
f 164/164/164 162/162/162 163/163/163
f 164/164/164 142/142/142 139/139/139
f 161/161/161 160/160/160 165/165/165
f 161/161/161 165/165/165 163/163/163
f 166/166/166 165/165/165 160/160/160
f 166/166/166 160/160/160 159/159/159
f 165/165/165 166/166/166 163/163/163
f 159/159/159 167/167/167 166/166/166
f 159/159/159 156/156/156 167/167/167
f 166/166/166 167/167/167 163/163/163
f 168/168/168 167/167/167 156/156/156
f 167/167/167 168/168/168 163/163/163
f 168/168/168 156/156/156 153/153/153
f 169/169/169 164/164/164 163/163/163
f 164/164/164 169/169/169 142/142/142
f 170/170/170 169/169/169 163/163/163
f 170/170/170 142/142/142 169/169/169
f 168/168/168 171/171/171 163/163/163
f 170/170/170 121/121/121 142/142/142
f 168/168/168 153/153/153 172/172/172
f 168/168/168 172/172/172 171/171/171
f 153/153/153 149/149/149 172/172/172
f 170/170/170 173/173/173 121/121/121
f 121/121/121 173/173/173 108/108/108
f 174/174/174 171/171/171 172/172/172
f 171/171/171 174/174/174 163/163/163
f 175/175/175 172/172/172 149/149/149
f 174/174/174 172/172/172 175/175/175
f 175/175/175 149/149/149 145/145/145
f 175/175/175 176/176/176 174/174/174
f 174/174/174 176/176/176 163/163/163
f 145/145/145 177/177/177 175/175/175
f 175/175/175 177/177/177 176/176/176
f 145/145/145 146/146/146 177/177/177
f 178/178/178 176/176/176 177/177/177
f 176/176/176 178/178/178 163/163/163
f 179/179/179 177/177/177 146/146/146
f 178/178/178 177/177/177 179/179/179
f 179/179/179 146/146/146 147/147/147
f 179/179/179 147/147/147 180/180/180
f 147/147/147 148/148/148 180/180/180
f 178/178/178 179/179/179 181/181/181
f 179/179/179 180/180/180 181/181/181
f 182/182/182 180/180/180 148/148/148
f 182/182/182 148/148/148 150/150/150
f 178/178/178 183/183/183 163/163/163
f 178/178/178 181/181/181 183/183/183
f 184/184/184 181/181/181 180/180/180
f 184/184/184 180/180/180 182/182/182
f 185/185/185 183/183/183 181/181/181
f 183/183/183 185/185/185 163/163/163
f 185/185/185 181/181/181 184/184/184
f 185/185/185 186/186/186 163/163/163
f 184/184/184 186/186/186 185/185/185
f 186/186/186 187/187/187 163/163/163
f 187/187/187 188/188/188 163/163/163
f 184/184/184 189/189/189 186/186/186
f 182/182/182 189/189/189 184/184/184
f 187/187/187 186/186/186 189/189/189
f 150/150/150 190/190/190 182/182/182
f 182/182/182 190/190/190 189/189/189
f 150/150/150 154/154/154 190/190/190
f 187/187/187 189/189/189 191/191/191
f 191/191/191 189/189/189 190/190/190
f 192/192/192 190/190/190 154/154/154
f 191/191/191 190/190/190 192/192/192
f 192/192/192 154/154/154 157/157/157
f 187/187/187 193/193/193 188/188/188
f 187/187/187 191/191/191 193/193/193
f 192/192/192 157/157/157 194/194/194
f 157/157/157 158/158/158 194/194/194
f 191/191/191 192/192/192 195/195/195
f 191/191/191 195/195/195 193/193/193
f 192/192/192 194/194/194 195/195/195
f 196/196/196 188/188/188 193/193/193
f 188/188/188 196/196/196 163/163/163
f 197/197/197 194/194/194 158/158/158
f 197/197/197 158/158/158 198/198/198
f 197/197/197 198/198/198 199/199/199
f 200/200/200 195/195/195 194/194/194
f 200/200/200 194/194/194 197/197/197
f 201/201/201 193/193/193 195/195/195
f 196/196/196 193/193/193 201/201/201
f 201/201/201 195/195/195 200/200/200
f 197/197/197 199/199/199 202/202/202
f 202/202/202 199/199/199 203/203/203
f 201/201/201 204/204/204 196/196/196
f 196/196/196 204/204/204 163/163/163
f 200/200/200 205/205/205 201/201/201
f 201/201/201 205/205/205 204/204/204
f 197/197/197 206/206/206 200/200/200
f 197/197/197 202/202/202 206/206/206
f 200/200/200 206/206/206 205/205/205
f 202/202/202 203/203/203 207/207/207
f 207/207/207 203/203/203 99/99/99
f 208/208/208 204/204/204 205/205/205
f 204/204/204 208/208/208 163/163/163
f 209/209/209 206/206/206 202/202/202
f 209/209/209 202/202/202 207/207/207
f 207/207/207 99/99/99 210/210/210
f 209/209/209 207/207/207 210/210/210
f 100/100/100 210/210/210 99/99/99
f 211/211/211 205/205/205 206/206/206
f 211/211/211 206/206/206 209/209/209
f 208/208/208 205/205/205 211/211/211
f 210/210/210 100/100/100 212/212/212
f 100/100/100 108/108/108 212/212/212
f 212/212/212 108/108/108 173/173/173
f 209/209/209 210/210/210 213/213/213
f 211/211/211 209/209/209 213/213/213
f 210/210/210 212/212/212 213/213/213
f 208/208/208 211/211/211 214/214/214
f 211/211/211 213/213/213 214/214/214
f 213/213/213 212/212/212 215/215/215
f 212/212/212 173/173/173 215/215/215
f 213/213/213 215/215/215 214/214/214
f 208/208/208 214/214/214 216/216/216
f 208/208/208 216/216/216 163/163/163
f 214/214/214 217/217/217 216/216/216
f 214/214/214 215/215/215 217/217/217
f 216/216/216 217/217/217 163/163/163
f 215/215/215 173/173/173 218/218/218
f 215/215/215 218/218/218 217/217/217
f 217/217/217 218/218/218 163/163/163
f 170/170/170 218/218/218 173/173/173
f 218/218/218 170/170/170 163/163/163
