g HexaGlow
v 10.92687 -1.020323 1.769243
v 11.22007 1.020323 0.3868338
v 11.22007 -1.020323 0.3868336
v 10.92687 1.020323 1.769244
v 6.388229 -1.020324 9.039758
v 6.388229 1.020322 9.039758
v 5.275029 -1.020324 9.910279
v 5.275029 1.020321 9.910279
v 3.931227 -1.020324 10.34757
v 3.931227 1.020321 10.34757
v -4.634545 -1.020324 10.05225
v -4.634545 1.020321 10.05225
v -5.94504 1.020321 9.523448
v -5.94504 -1.020324 9.523448
v -6.995642 -1.020324 8.578325
v -6.995642 1.020322 8.578325
v -11.02277 -1.020323 1.012491
v -11.02277 1.020323 1.012491
v -11.22007 -1.020323 -0.3868309
v -11.22007 1.020323 -0.3868307
v -10.92687 -1.020323 -1.769242
v -11.22007 1.020323 -0.3868307
v -11.22007 -1.020323 -0.3868309
v -10.92687 1.020323 -1.769241
v -6.388229 -1.020322 -9.039757
v -6.388229 1.020324 -9.039757
v -5.275029 -1.020321 -9.910279
v -5.275029 1.020324 -9.910279
v -3.931227 -1.020321 -10.34757
v -3.931227 1.020324 -10.34757
v 4.634544 -1.020321 -10.05225
v 4.634544 1.020324 -10.05225
v 5.94504 -1.020321 -9.523448
v 5.94504 1.020324 -9.523448
v 6.995643 1.020324 -8.578322
v 6.995643 -1.020322 -8.578322
v 11.02277 -1.020323 -1.012489
v 11.02277 1.020323 -1.012488
v 11.22007 -1.020323 0.3868336
v 11.22007 1.020323 0.3868338
vt 0.8168945 0.008636475
vt 0.8251953 0.9936523
vt 0.8251953 0.008636475
vt 0.8168945 0.9936523
vt 0.6928711 0.008636475
vt 0.6928711 0.9936523
vt 0.6625977 0.008636475
vt 0.6625977 0.9936523
vt 0.6259766 0.008636475
vt 0.6259766 0.9936523
vt 0.3920898 0.008636475
vt 0.3920898 0.9936523
vt 0.3564453 0.9936523
vt 0.3564453 0.008636475
vt 0.3276367 0.008636475
vt 0.3276367 0.9936523
vt 0.2177734 0.008636475
vt 0.2177734 0.9936523
vt 0.2124023 0.008636475
vt 0.2124023 0.9936523
vt 0.2203369 0.008636475
vt 0.2124023 0.9936523
vt 0.2124023 0.008636475
vt 0.2203369 0.9936523
vt 0.3442383 0.008636475
vt 0.3442383 0.9936523
vt 0.3747559 0.008636475
vt 0.3747559 0.9936523
vt 0.411377 0.008636475
vt 0.411377 0.9936523
vt 0.6450195 0.008636475
vt 0.6450195 0.9936523
vt 0.6811523 0.008636475
vt 0.6811523 0.9936523
vt 0.7094727 0.9936523
vt 0.7094727 0.008636475
vt 0.8193359 0.008636475
vt 0.8193359 0.9936523
vt 0.8251953 0.008636475
vt 0.8251953 0.9936523
vn 0.9272461 0 0.3742676
vn 0.9995117 0 0.03445435
vn 0.9995117 0 0.03445435
vn 0.9272461 0 0.3742676
vn 0.7436523 0 0.6689453
vn 0.7436523 0 0.6689453
vn 0.4699707 0 0.8828125
vn 0.4699707 0 0.8828125
vn 0.1396484 0 0.9902344
vn 0.1396484 0 0.9902344
vn -0.2075195 0 0.9780273
vn -0.2075195 0 0.9780273
vn -0.5297852 0 0.8481445
vn -0.5297852 0 0.8481445
vn -0.7875977 0 0.6162109
vn -0.7875977 0 0.6162109
vn -0.9506836 0 0.3093262
vn -0.9506836 0 0.3093262
vn -0.9995117 0 -0.03445435
vn -0.9995117 0 -0.03445435
vn -0.9272461 0 -0.3742676
vn -0.9995117 0 -0.03445435
vn -0.9995117 0 -0.03445435
vn -0.9272461 0 -0.3742676
vn -0.7436523 0 -0.6689453
vn -0.7436523 0 -0.6689453
vn -0.4699707 0 -0.8828125
vn -0.4699707 0 -0.8828125
vn -0.1396484 0 -0.9902344
vn -0.1396484 0 -0.9902344
vn 0.2075195 0 -0.9780273
vn 0.2075195 0 -0.9780273
vn 0.5297852 0 -0.8481445
vn 0.5297852 0 -0.8481445
vn 0.7875977 0 -0.6162109
vn 0.7875977 0 -0.6162109
vn 0.9506836 0 -0.3093262
vn 0.9506836 0 -0.3093262
vn 0.9995117 0 0.03445435
vn 0.9995117 0 0.03445435
g HexaGlow_0
f 3/3/3 2/2/2 1/1/1
f 2/2/2 4/4/4 1/1/1
f 1/1/1 4/4/4 5/5/5
f 4/4/4 6/6/6 5/5/5
f 5/5/5 6/6/6 7/7/7
f 6/6/6 8/8/8 7/7/7
f 9/9/9 7/7/7 8/8/8
f 10/10/10 9/9/9 8/8/8
f 9/9/9 10/10/10 11/11/11
f 10/10/10 12/12/12 11/11/11
f 11/11/11 12/12/12 13/13/13
f 14/14/14 11/11/11 13/13/13
f 15/15/15 14/14/14 13/13/13
f 16/16/16 15/15/15 13/13/13
f 15/15/15 16/16/16 17/17/17
f 16/16/16 18/18/18 17/17/17
f 17/17/17 18/18/18 19/19/19
f 18/18/18 20/20/20 19/19/19
f 23/23/23 22/22/22 21/21/21
f 22/22/22 24/24/24 21/21/21
f 21/21/21 24/24/24 25/25/25
f 24/24/24 26/26/26 25/25/25
f 25/25/25 26/26/26 27/27/27
f 26/26/26 28/28/28 27/27/27
f 29/29/29 27/27/27 28/28/28
f 30/30/30 29/29/29 28/28/28
f 29/29/29 30/30/30 31/31/31
f 30/30/30 32/32/32 31/31/31
f 33/33/33 31/31/31 32/32/32
f 34/34/34 33/33/33 32/32/32
f 33/33/33 34/34/34 35/35/35
f 36/36/36 33/33/33 35/35/35
f 36/36/36 35/35/35 37/37/37
f 35/35/35 38/38/38 37/37/37
f 39/39/39 37/37/37 38/38/38
f 40/40/40 39/39/39 38/38/38
