g Hexaglow
v 10.4024 -1.445713 1.731005
v 10.91148 0.07124067 0.3779131
v 10.84223 -1.445712 0.4186668
v 10.48891 0.07124047 1.631226
v 7.044209 0.07123883 7.940858
v 7.105115 -1.445716 7.796638
v 6.242964 -1.445717 8.879402
v 6.218465 0.07123873 8.974064
v 5.062478 -1.445717 9.601995
v 5.128459 0.07123898 9.638572
v 3.706044 -1.445717 9.877262
v 3.831774 0.071239 9.899277
v -3.354882 0.07123869 10.07089
v -3.195593 -1.445718 10.05455
v -4.56437 -1.445718 9.849282
v -4.662535 0.071239 9.87238
v -5.780396 -1.445718 9.18825
v -5.783018 0.07123856 9.260659
v -6.697001 -1.445717 8.151175
v -6.657135 0.07123889 8.268048
v -10.39909 0.0712391 2.130032
v -10.30135 -1.445714 2.262826
v -10.80798 -1.445714 0.9747989
v -10.881 0.07124034 0.8983172
v 10.84223 -1.445712 0.4186668
v 10.91148 0.07124067 0.3779131
v 10.881 0.07123981 -0.8983153
v 10.80669 -1.445711 -0.9649602
v 10.39909 0.07124103 -2.130031
v 10.30006 -1.445711 -2.252989
v 6.695713 -1.445708 -8.141337
v 6.657135 0.07124137 -8.268048
v 5.78302 0.07124171 -9.260661
v 5.779107 -1.445708 -9.178411
v 4.662535 0.07124214 -9.872379
v 4.563081 -1.445708 -9.839445
v 3.354883 0.07124218 -10.07089
v 3.194302 -1.445707 -10.04471
v -3.707334 -1.445708 -9.867426
v -3.831772 0.07124212 -9.899278
v -5.128456 0.071242 -9.638575
v -5.063767 -1.445708 -9.59216
v -6.218463 0.07124177 -8.974064
v -6.244254 -1.445709 -8.869567
v -7.044207 0.0712412 -7.94086
v -7.106405 -1.445709 -7.786802
v -10.40369 -1.445713 -1.721168
v -10.48891 0.07124072 -1.631225
v -10.91148 0.07124054 -0.3779117
v -10.84352 -1.445713 -0.4088287
v -10.881 0.07124034 0.8983172
v -10.80798 -1.445714 0.9747989
vt 0.02185059 0.04959106
vt -5.960464E-08 0.9868164
vt -5.960464E-08 0.04959106
vt 0.02185059 0.9868164
vt 0.1812744 0.9868164
vt 0.1812744 0.04959106
vt 0.22229 0.04959106
vt 0.22229 0.9868164
vt 0.2775879 0.04959106
vt 0.2775879 0.9868164
vt 0.3405762 0.04959106
vt 0.3405762 0.9868164
vt 0.6591797 0.9868164
vt 0.6591797 0.04959106
vt 0.722168 0.04959106
vt 0.722168 0.9868164
vt 0.777832 0.04959106
vt 0.777832 0.9868164
vt 0.8188477 0.04959106
vt 0.8188477 0.9868164
vt 0.9780273 0.9868164
vt 0.9780273 0.04959106
vt 1 0.04959106
vt 1 0.9868164
vt -5.960464E-08 0.04959106
vt -5.960464E-08 0.9868164
vt 0 0.9868164
vt 0 0.04959106
vt 0.02185059 0.9868164
vt 0.02185059 0.04959106
vt 0.1812744 0.04959106
vt 0.1812744 0.9868164
vt 0.22229 0.9868164
vt 0.22229 0.04959106
vt 0.2775879 0.9868164
vt 0.2775879 0.04959106
vt 0.3405762 0.9868164
vt 0.3405762 0.04959106
vt 0.6591797 0.04959106
vt 0.6591797 0.9868164
vt 0.722168 0.9868164
vt 0.722168 0.04959106
vt 0.777832 0.9868164
vt 0.777832 0.04959106
vt 0.8188477 0.9868164
vt 0.8188477 0.04959106
vt 0.9780273 0.04959106
vt 0.9780273 0.9868164
vt 1 0.9868164
vt 1 0.04959106
vt 1 0.9868164
vt 1 0.04959106
vn 0.9145508 -0.02372742 0.4040527
vn 0.9882813 -0.04122925 0.1453857
vn 0.9873047 -0.04095459 0.15271
vn 0.9179688 -0.02476501 0.395752
vn 0.8295898 -0.02124023 0.5576172
vn 0.8359375 -0.02041626 0.5483398
vn 0.6655273 -0.03579712 0.7456055
vn 0.6567383 -0.03637695 0.753418
vn 0.3615723 -0.03817749 0.9316406
vn 0.3681641 -0.03842163 0.9291992
vn 0.1073608 -0.02149963 0.9941406
vn 0.1162109 -0.0224762 0.9931641
vn -0.06817627 -0.0194397 0.9975586
vn -0.05667114 -0.01856995 0.9980469
vn -0.3125 -0.03469849 0.9492188
vn -0.3242188 -0.03536987 0.9453125
vn -0.6254883 -0.03826904 0.7792969
vn -0.6206055 -0.03845215 0.7832031
vn -0.8071289 -0.02243042 0.5898438
vn -0.8017578 -0.02334595 0.597168
vn -0.8979492 -0.02090454 0.4394531
vn -0.8925781 -0.01998901 0.4501953
vn -0.9780273 -0.03683472 0.2043457
vn -0.980957 -0.03753662 0.1915283
vn 0.9873047 -0.04095459 0.15271
vn 0.9882813 -0.04122925 0.1453857
vn 0.9804688 -0.0395813 -0.1921387
vn 0.9785156 -0.03900146 -0.2036133
vn 0.8979492 -0.02450562 -0.4396973
vn 0.8925781 -0.02368164 -0.4499512
vn 0.8071289 -0.0269165 -0.5898438
vn 0.8017578 -0.02792358 -0.597168
vn 0.6201172 -0.04406738 -0.7832031
vn 0.6259766 -0.04382324 -0.7788086
vn 0.3239746 -0.04174805 -0.9453125
vn 0.3125 -0.0411377 -0.9492188
vn 0.06817627 -0.02597046 -0.9975586
vn 0.05664063 -0.02508545 -0.9980469
vn -0.1074219 -0.02784729 -0.9936523
vn -0.1160889 -0.02879333 -0.9926758
vn -0.3676758 -0.0440979 -0.9287109
vn -0.3618164 -0.04391479 -0.9311523
vn -0.65625 -0.04071045 -0.753418
vn -0.6660156 -0.04003906 -0.7451172
vn -0.8295898 -0.02416992 -0.5581055
vn -0.8359375 -0.02323914 -0.5478516
vn -0.9145508 -0.02560425 -0.4038086
vn -0.9179688 -0.02650452 -0.3959961
vn -0.9882813 -0.0413208 -0.1461182
vn -0.9873047 -0.04110718 -0.1519775
vn -0.980957 -0.03753662 0.1915283
vn -0.9780273 -0.03683472 0.2043457
g Hexaglow_0
f 3/3/3 2/2/2 1/1/1
f 2/2/2 4/4/4 1/1/1
f 1/1/1 4/4/4 5/5/5
f 6/6/6 1/1/1 5/5/5
f 6/6/6 5/5/5 7/7/7
f 5/5/5 8/8/8 7/7/7
f 7/7/7 8/8/8 9/9/9
f 8/8/8 10/10/10 9/9/9
f 9/9/9 10/10/10 11/11/11
f 10/10/10 12/12/12 11/11/11
f 11/11/11 12/12/12 13/13/13
f 14/14/14 11/11/11 13/13/13
f 14/14/14 13/13/13 15/15/15
f 13/13/13 16/16/16 15/15/15
f 15/15/15 16/16/16 17/17/17
f 16/16/16 18/18/18 17/17/17
f 17/17/17 18/18/18 19/19/19
f 18/18/18 20/20/20 19/19/19
f 19/19/19 20/20/20 21/21/21
f 22/22/22 19/19/19 21/21/21
f 22/22/22 21/21/21 23/23/23
f 21/21/21 24/24/24 23/23/23
f 27/27/27 26/26/26 25/25/25
f 28/28/28 27/27/27 25/25/25
f 29/29/29 27/27/27 28/28/28
f 30/30/30 29/29/29 28/28/28
f 30/30/30 31/31/31 29/29/29
f 31/31/31 32/32/32 29/29/29
f 33/33/33 32/32/32 31/31/31
f 34/34/34 33/33/33 31/31/31
f 35/35/35 33/33/33 34/34/34
f 36/36/36 35/35/35 34/34/34
f 37/37/37 35/35/35 36/36/36
f 38/38/38 37/37/37 36/36/36
f 38/38/38 39/39/39 37/37/37
f 39/39/39 40/40/40 37/37/37
f 41/41/41 40/40/40 39/39/39
f 42/42/42 41/41/41 39/39/39
f 43/43/43 41/41/41 42/42/42
f 44/44/44 43/43/43 42/42/42
f 45/45/45 43/43/43 44/44/44
f 46/46/46 45/45/45 44/44/44
f 46/46/46 47/47/47 45/45/45
f 47/47/47 48/48/48 45/45/45
f 49/49/49 48/48/48 47/47/47
f 50/50/50 49/49/49 47/47/47
f 51/51/51 49/49/49 50/50/50
f 52/52/52 51/51/51 50/50/50
