g HexaLand_Water
v -2.89023 2.248974 4.039567
v -7.044208 2.248973 7.940858
v -3.217506 2.248974 3.627059
v -6.218466 2.248973 8.974064
v -2.534157 2.248974 4.476746
v -7.260787 2.17954 8.084927
v -6.346798 2.173733 9.204225
v -7.419333 1.989843 8.190394
v -6.423172 2.035716 9.345279
v -7.477366 1.730713 8.228999
v -6.566266 1.730713 9.369008
v -5.128458 2.248973 9.638571
v -1.858805 2.248974 5.121078
v -3.831774 2.248973 9.899276
v -5.220424 2.173733 9.863227
v -0.1382622 2.248974 5.66614
v -3.868256 2.173733 10.14941
v -0.238446 2.248973 10.00054
v 1.847202 2.248974 5.545045
v 3.277381 2.265637 10.0883
v -0.243168 2.173733 10.25068
v 3.371361 2.17954 10.33049
v -5.256908 2.035716 10.00622
v -5.320203 1.730713 10.12865
v -0.2415092 2.035716 10.36819
v 3.383425 1.989843 10.52053
v -3.882724 2.035716 10.26692
v -3.889477 1.730713 10.4163
v -3.868256 2.173733 10.14941
v -5.220424 2.173733 9.863227
v -0.2508185 1.730713 10.5032
v 3.38784 1.730713 10.59009
v -5.220424 2.173733 9.863227
v -5.256908 2.035716 10.00622
v -6.346798 2.173733 9.204225
v -5.128458 2.248973 9.638571
v -5.220424 2.173733 9.863227
v -6.346798 2.173733 9.204225
vt 0.8657227 0.8505859
vt 0.8710938 0.8354492
vt 0.8671875 0.8515625
vt 0.8676758 0.8339844
vt 0.8637695 0.8496094
vt 0.8710938 0.8354492
vt 0.8676758 0.8339844
vt 0.8710938 0.8354492
vt 0.8676758 0.8339844
vt 0.8710938 0.8354492
vt 0.8676758 0.8339844
vt 0.8637695 0.8339844
vt 0.8618164 0.8481445
vt 0.8603516 0.8349609
vt 0.8637695 0.8339844
vt 0.8564453 0.8500977
vt 0.8603516 0.8349609
vt 0.8510742 0.8393555
vt 0.8520508 0.8535156
vt 0.8417969 0.8442383
vt 0.8510742 0.8393555
vt 0.8417969 0.8442383
vt 0.8637695 0.8339844
vt 0.8637695 0.8339844
vt 0.8510742 0.8393555
vt 0.8417969 0.8442383
vt 0.8603516 0.8349609
vt 0.8603516 0.8349609
vt 0.8603516 0.8349609
vt 0.8637695 0.8339844
vt 0.8510742 0.8393555
vt 0.8417969 0.8442383
vt 0.8637695 0.8339844
vt 0.8637695 0.8339844
vt 0.8676758 0.8339844
vt 0.8637695 0.8339844
vt 0.8637695 0.8339844
vt 0.8676758 0.8339844
vn 0 1 0
vn -0.1049805 0.9907227 0.08612061
vn 0 1 0
vn -0.1030884 0.987793 0.1156006
vn 0 1 0
vn -0.3964844 0.8588867 0.3242188
vn -0.3354492 0.8588867 0.3869629
vn -0.6577148 0.5258789 0.5395508
vn -0.527832 0.5463867 0.6503906
vn -0.7299805 0.3266602 0.6000977
vn -0.6337891 0.3422852 0.6938477
vn -0.05755615 0.9873047 0.1494141
vn 0 1 0
vn -0.01766968 0.9882813 0.1529541
vn -0.1859131 0.8540039 0.486084
vn -0.001432419 1 -0.000670433
vn -0.06112671 0.8388672 0.5410156
vn -0.005432129 0.9882813 0.1517334
vn -0.003038406 1 -0.001421928
vn -0.007591248 0.980957 0.1928711
vn -0.01538086 0.8398438 0.5429688
vn -0.01617432 0.8212891 0.5703125
vn -0.2880859 0.5571289 0.7788086
vn -0.3330078 0.3896484 0.8588867
vn -0.02359009 0.5327148 0.8457031
vn -0.02488708 0.5161133 0.855957
vn -0.09259033 0.5498047 0.8300781
vn -0.09771729 0.4213867 0.9013672
vn -0.06112671 0.8388672 0.5410156
vn -0.1859131 0.8540039 0.486084
vn -0.02609253 0.3828125 0.9233398
vn -0.02879333 0.3410645 0.9394531
vn -0.1859131 0.8540039 0.486084
vn -0.2880859 0.5571289 0.7788086
vn -0.3354492 0.8588867 0.3869629
vn -0.05755615 0.9873047 0.1494141
vn -0.1859131 0.8540039 0.486084
vn -0.3354492 0.8588867 0.3869629
g HexaLand_Water_0
f 3/3/3 2/2/2 1/1/1
f 2/2/2 4/4/4 1/1/1
f 1/1/1 4/4/4 5/5/5
f 2/2/2 6/6/6 4/4/4
f 6/6/6 7/7/7 4/4/4
f 6/6/6 8/8/8 7/7/7
f 8/8/8 9/9/9 7/7/7
f 8/8/8 10/10/10 9/9/9
f 10/10/10 11/11/11 9/9/9
f 4/4/4 12/12/12 5/5/5
f 5/5/5 12/12/12 13/13/13
f 12/12/12 14/14/14 13/13/13
f 12/12/12 15/15/15 14/14/14
f 13/13/13 14/14/14 16/16/16
f 15/15/15 17/17/17 14/14/14
f 14/14/14 18/18/18 16/16/16
f 14/14/14 17/17/17 18/18/18
f 19/19/19 16/16/16 18/18/18
f 20/20/20 19/19/19 18/18/18
f 17/17/17 21/21/21 18/18/18
f 18/18/18 21/21/21 20/20/20
f 21/21/21 22/22/22 20/20/20
f 9/9/9 11/11/11 23/23/23
f 11/11/11 24/24/24 23/23/23
f 21/21/21 25/25/25 22/22/22
f 25/25/25 26/26/26 22/22/22
f 23/23/23 24/24/24 27/27/27
f 27/27/27 25/25/25 21/21/21
f 24/24/24 28/28/28 27/27/27
f 27/27/27 28/28/28 25/25/25
f 29/29/29 27/27/27 21/21/21
f 23/23/23 27/27/27 29/29/29
f 30/30/30 23/23/23 29/29/29
f 28/28/28 31/31/31 25/25/25
f 25/25/25 31/31/31 26/26/26
f 31/31/31 32/32/32 26/26/26
f 9/9/9 34/34/34 33/33/33
f 35/35/35 9/9/9 33/33/33
f 38/38/38 37/37/37 36/36/36
f 4/4/4 38/38/38 36/36/36
