g horse_1
v 15.27258 208.9579 -74.23805
v 19.98989 230.6359 -94.92744
v 6.950407 211.2458 -74.49245
v 6.950407 211.2458 -74.49245
v 19.98989 230.6359 -94.92744
v 6.238157 215.8217 -71.36855
v 6.238157 215.8217 -71.36855
v 19.98989 230.6359 -94.92744
v 13.84805 218.1097 -67.99031
v 13.84805 218.1097 -67.99031
v 19.98989 230.6359 -94.92744
v 22.17022 215.8217 -67.73592
v 22.17022 215.8217 -67.73592
v 19.98989 230.6359 -94.92744
v 22.88247 211.2458 -70.85982
v 22.88247 211.2458 -70.85982
v 19.98989 230.6359 -94.92744
v 15.27258 208.9579 -74.23805
v -19.29135 198.2644 9.965923
v -22.24313 199.9274 10.27769
v -22.09509 184.926 9.861431
v -19.11341 185.1837 9.639446
v -21.60379 181.3464 7.706707
v -18.67819 182.0159 7.730694
v -20.47098 179.0493 2.738384
v -17.65668 179.9561 3.250591
v -17.50739 179.1618 -10.25954
v -14.76016 180.0658 -9.453083
v -16.87531 180.2321 -13.03176
v -14.18924 181.0326 -11.95705
v -16.15009 183.899 -16.21242
v -13.54929 184.2902 -14.76375
v -15.97907 199.8993 -16.98214
v -13.39948 198.2096 -15.45833
v 20.57879 199.8993 -8.646748
v 17.59363 198.2096 -8.391682
v 20.55603 186.4745 -8.566486
v 17.56827 186.6021 -8.318012
v 17.08441 182.0805 -6.195758
v 20.01889 181.4498 -6.210651
v 19.04196 179.1618 -1.925983
v 16.21667 180.0658 -2.390095
v 16.07837 179.0493 11.07188
v 13.32016 179.9562 10.31352
v 12.29867 182.0159 14.79362
v 14.94555 181.3464 16.0402
v 11.86346 185.1837 16.70237
v 14.45425 184.926 18.19493
v 14.40725 199.9274 18.6342
v 11.88229 198.2644 17.07371
v -19.11341 185.1837 9.639446
v -16.76642 196.6014 11.52647
v -19.29135 198.2644 9.965923
v -16.64328 184.8966 11.20726
v -18.67819 182.0159 7.730694
v -16.1456 181.2701 9.024517
v -17.65668 179.9561 3.250591
v -15.00009 178.9459 4.00053
v -14.76016 180.0658 -9.453083
v -12.02884 179.0587 -9.030964
v -14.18924 181.0326 -11.95705
v -11.3898 180.1409 -11.8337
v -10.65485 183.8544 -15.05696
v -13.54929 184.2902 -14.76375
v -13.39948 198.2096 -15.45833
v -10.48346 196.5747 -15.8265
v -16.64328 184.8966 11.20726
v -17.1933 196.6014 13.39866
v -16.76642 196.6014 11.52647
v -17.15488 184.3518 12.99699
v -16.1456 181.2701 9.024517
v -16.53864 179.8547 10.29429
v -15.00009 178.9459 4.00053
v -15.15781 177.0289 4.238323
v -12.02884 179.0587 -9.030964
v -12.04471 177.1476 -9.415241
v -11.3898 180.1409 -11.8337
v -11.27637 178.4487 -12.78499
v -10.65485 183.8544 -15.05696
v -10.36121 183.0273 -16.79879
v -10.48346 196.5747 -15.8265
v -10.14704 196.6295 -17.71859
v -15.64264 199.9541 -18.87423
v -15.97907 199.8993 -16.98214
v -16.15009 183.899 -16.21242
v -15.85648 183.0719 -17.95424
v -16.87531 180.2321 -13.03176
v -16.7619 178.5399 -13.98305
v -17.50739 179.1618 -10.25954
v -17.52326 177.2506 -10.64376
v -20.47098 179.0493 2.738384
v -20.62869 177.1322 2.976116
v -21.60379 181.3464 7.706707
v -21.99683 179.931 8.976482
v -22.09509 184.926 9.861431
v -22.60669 184.3812 11.65116
v -22.24313 199.9274 10.27769
v -22.67001 199.9274 12.14988
v 11.02853 198.2644 20.81816
v 13.98037 199.9274 20.50645
v 14.13946 184.3812 20.02958
v 11.23382 184.0941 20.37169
v 14.7493 179.931 17.35484
v 11.90619 179.1852 17.42302
v 16.1174 177.1322 11.35447
v 13.39831 176.122 10.8787
v 19.22287 177.2507 -2.2654
v 16.57846 176.2436 -3.068928
v 17.90799 179.4138 -8.899921
v 20.43069 180.1165 -7.562824
v 21.08038 186.2048 -10.41225
v 18.61697 186.0626 -12.00954
v 21.09576 199.9541 -10.49758
v 18.62756 198.3192 -12.09346
v -20.14511 198.2644 13.71037
v -17.1933 196.6014 13.39866
v -17.15488 184.3518 12.99699
v -20.13657 184.0942 13.21904
v -16.53864 179.8547 10.29429
v -19.46427 179.1852 10.2703
v -15.15781 177.0289 4.238323
v -17.97211 176.122 3.726055
v -14.79193 176.2435 -10.22164
v -12.04471 177.1476 -9.415241
v -11.27637 178.4487 -12.78499
v -13.96247 177.6482 -13.8597
v -10.36121 183.0273 -16.79879
v -12.96201 182.636 -18.24739
v -10.14704 196.6295 -17.71859
v -12.72659 198.3192 -19.24239
v 15.64239 196.6295 -11.8384
v 18.62756 198.3192 -12.09346
v 15.62927 186.1902 -11.76107
v 18.61697 186.0626 -12.00954
v 14.97348 180.0446 -8.885029
v 17.90799 179.4138 -8.899921
v 13.7532 177.1476 -3.5331
v 16.57846 176.2436 -3.068928
v 10.64013 177.0288 10.1204
v 13.39831 176.122 10.8787
v 9.259275 179.8547 16.17643
v 11.90619 179.1852 17.42302
v 8.643064 184.3519 18.87919
v 11.23382 184.0941 20.37169
v 8.503599 196.6014 19.25773
v 11.02853 198.2644 20.81816
v 13.98037 199.9274 20.50645
v 14.40725 199.9274 18.6342
v 14.45425 184.926 18.19493
v 14.13946 184.3812 20.02958
v 14.94555 181.3464 16.0402
v 14.7493 179.931 17.35484
v 16.07837 179.0493 11.07188
v 16.1174 177.1322 11.35447
v 19.04196 179.1618 -1.925983
v 19.22287 177.2507 -2.2654
v 20.01889 181.4498 -6.210651
v 20.43069 180.1165 -7.562824
v 20.55603 186.4745 -8.566486
v 21.08038 186.2048 -10.41225
v 20.57879 199.8993 -8.646748
v 21.09576 199.9541 -10.49758
v 8.957884 184.8966 17.04448
v 11.88229 198.2644 17.07371
v 8.930479 196.6014 17.38548
v 11.86346 185.1837 16.70237
v 9.455534 181.2701 14.86174
v 12.29867 182.0159 14.79362
v 10.60104 178.9459 9.837749
v 13.32016 179.9562 10.31352
v 13.57232 179.0587 -3.193683
v 16.21667 180.0658 -2.390095
v 14.56167 181.3779 -7.532917
v 17.08441 182.0805 -6.195758
v 15.10489 186.4599 -9.915302
v 17.56827 186.6021 -8.318012
v 15.12539 196.5747 -9.987507
v 17.59363 198.2096 -8.391682
v 8.930479 196.6014 17.38548
v 8.503599 196.6014 19.25773
v 8.643064 184.3519 18.87919
v 8.957884 184.8966 17.04448
v 9.455534 181.2701 14.86174
v 9.259275 179.8547 16.17643
v 10.64013 177.0288 10.1204
v 10.60104 178.9459 9.837749
v 13.7532 177.1476 -3.5331
v 13.57232 179.0587 -3.193683
v 14.97348 180.0446 -8.885029
v 14.56167 181.3779 -7.532917
v 15.62927 186.1902 -11.76107
v 15.10489 186.4599 -9.915302
v 15.64239 196.6295 -11.8384
v 15.12539 196.5747 -9.987507
v 15.12539 196.5747 -9.987507
v 15.64239 196.6295 -11.8384
v -10.14704 196.6295 -17.71859
v -10.48346 196.5747 -15.8265
v 2.210661 211.9501 -67.67018
v 27.17528 210.0542 -66.75874
v 3.246825 210.0542 -72.21461
v 26.13911 211.9501 -62.21431
v 1.253294 213.5358 -63.47151
v 25.18179 213.5358 -58.01564
v 0.4536726 214.5014 -59.96443
v 24.38217 214.5014 -54.50862
v -0.7720659 214.1432 -54.58852
v 23.1564 214.1432 -49.13264
v -1.800691 211.3805 -50.07717
v 22.1278 211.3805 -44.62136
v -2.452272 206.6965 -47.21944
v 21.47622 206.6965 -41.76357
v -2.676515 204.3781 -46.23579
v 21.25192 204.3781 -40.77999
v -3.053743 201.2678 -44.58156
v 20.87475 201.2678 -39.12569
v -3.552339 197.5286 -42.39473
v 20.37616 197.5286 -36.93886
v -4.011568 191.6608 -40.38051
v 19.9169 191.6608 -34.9247
v -4.051149 188.7671 -40.20699
v 19.87729 188.7671 -34.75118
v -4.482821 190.3689 -38.31368
v 19.44561 190.3689 -32.85781
v -5.441439 192.9745 -34.10933
v 18.487 192.9745 -28.65352
v -7.222445 196.5034 -26.29818
v 16.70599 196.5034 -20.8423
v -9.414644 200.4939 -16.68355
v 14.51379 200.4939 -11.22768
v -20.77875 179.1657 33.15727
v 3.149718 179.1657 38.61308
v 5.642241 190.039 27.68144
v -18.28626 190.039 22.22556
v -3.812227 174.5337 -51.03957
v -5.885469 169.1217 -41.94661
v 22.86001 169.1217 -35.39248
v 24.93322 174.5336 -44.48543
v -2.286562 183.0956 -57.73085
v 26.45892 183.0956 -51.17671
v -1.420107 195.52 -61.53096
v 27.32533 195.52 -54.97676
v -1.408785 195.7215 -61.58064
v 27.3367 195.7215 -55.02651
v -22.67001 199.9274 12.14988
v -22.24313 199.9274 10.27769
v 14.40725 199.9274 18.6342
v 13.98037 199.9274 20.50645
v -13.73917 198.2913 -17.50454
v 11.45541 198.2644 18.9459
v -20.39432 198.2913 11.68394
v 18.11059 198.2644 -10.24263
v 18.11059 187.4101 -10.24257
v 12.31384 179.8035 15.18107
v 11.56238 184.4323 18.47691
v 11.45541 187.4101 18.9459
v 11.86004 181.8448 17.17131
v 16.67697 178.4644 -3.955036
v 13.55099 177.9834 9.754986
v 12.88904 178.4644 12.65824
v 16.01501 177.9833 -1.051716
v 17.70596 181.8448 -8.467976
v 17.2522 179.8035 -6.477741
v 18.00366 184.4323 -9.773579
v 8.739073 160.0704 -11.24843
v 8.739073 0.3832778 -11.24837
v 14.11093 0.3832778 1.944073
v 14.11093 160.0704 1.944012
v 5.371824 0.3832625 13.19248
v 5.371824 160.0704 13.19242
v -8.739107 0.3832625 11.24839
v -8.739107 160.0704 11.24833
v -14.11093 0.3832625 -1.944111
v -14.11093 160.0704 -1.944111
v -5.371859 0.3832778 -13.19246
v -5.371859 160.0704 -13.19252
v 8.739073 0.3832778 -11.24837
v 8.739073 160.0704 -11.24843
v 21.80588 149.1062 -30.76931
v 20.36621 131.315 -24.45516
v -8.379274 131.315 -31.0093
v -6.939608 149.1062 -37.32344
v -8.477419 129.4309 -30.57888
v -8.379274 131.315 -31.0093
v 20.36621 131.315 -24.45516
v 20.26806 129.4309 -24.02474
v -7.647401 122.7956 -34.2192
v 21.09805 122.7956 -27.665
v -6.876619 121.3999 -37.59969
v 21.86883 121.3999 -31.04555
v -5.256197 123.5981 -44.70668
v 23.4893 123.5981 -38.15255
v -4.919497 125.8296 -46.18337
v 23.826 125.8296 -39.62923
v -3.224428 145.7043 -53.61763
v 25.52105 145.7043 -47.06343
v -3.007265 150.7815 -54.57014
v 25.73822 150.7815 -48.01601
v -3.447237 158.2005 -52.6404
v 25.29825 158.2005 -46.08626
v 22.86001 169.1217 -35.39248
v -5.885469 169.1217 -41.94661
v -29.27353 186.554 70.41405
v -6.29233 189.2304 80.0244
v -30.22079 189.2304 74.56853
v -5.345095 186.554 75.86992
v -3.713319 182.6689 68.71324
v -27.64179 182.669 63.25743
v -26.42081 182.0642 57.90251
v -2.492372 182.0642 63.35838
v -25.30118 183.9815 52.99199
v -1.372743 183.9815 58.4478
v -23.67679 192.9617 45.86766
v 0.2516462 192.9617 51.32353
v -21.69361 200.1972 37.16978
v 2.234831 200.1971 42.62565
v -20.30045 200.2723 31.05961
v 3.627989 200.2723 36.51542
v -19.26813 196.8803 26.53202
v 4.660307 196.8803 31.98789
v -18.28626 190.039 22.22556
v 5.642241 190.039 27.68144
v -30.22079 189.2304 74.56853
v -6.29233 189.2304 80.0244
v -6.025301 182.909 78.85313
v -29.95374 182.909 73.39732
v -5.515505 173.5916 76.61729
v -29.44394 173.5916 71.16142
v -4.191683 165.6554 70.81126
v -28.12015 165.6554 65.35539
v -2.22397 161.8527 62.18132
v -26.15244 161.8527 56.72544
v -0.03302174 162.9964 52.57206
v -23.96149 162.9964 47.11619
v -22.03433 171.8782 38.66417
v 1.894102 171.8782 44.11998
v 3.149718 179.1657 38.61308
v -20.77875 179.1657 33.15727
v 27.3367 195.7215 -55.02651
v 28.94736 186.6897 -62.09065
v 0.2018721 186.6897 -68.64479
v -1.408785 195.7215 -61.58064
v 3.246825 210.0542 -72.21461
v 27.17528 210.0542 -66.75874
v 26.66827 216.071 -64.53511
v 2.739805 216.071 -69.99092
v 26.19931 221.2738 -62.47841
v 2.270872 221.2738 -67.93428
v 25.80653 224.8487 -60.75569
v 1.878081 224.8486 -66.21156
v 24.19647 231.6302 -53.69429
v 0.2680342 231.6302 -59.1501
v 22.11191 233.838 -44.55159
v -1.816561 233.838 -50.00747
v 19.99835 231.0002 -35.282
v -3.930116 231.0002 -40.73781
v 19.53686 228.1464 -33.25801
v -4.391573 228.1464 -38.71389
v 18.96969 222.3902 -30.77047
v -4.958742 222.3902 -36.22634
v 18.32882 214.6114 -27.9598
v -5.599611 214.6115 -33.41567
v 17.65249 208.4759 -24.99355
v -6.275942 208.476 -30.44942
v 16.67605 203.7659 -20.71102
v -7.252382 203.7659 -26.16689
v 15.42636 201.2564 -15.23006
v -8.502108 201.2564 -20.68587
v 14.51379 200.4939 -11.22768
v -9.414644 200.4939 -16.68355
v 29.21213 207.9014 -65.92024
v 31.80279 209.61 -62.29439
v 28.55429 209.61 -63.03505
v 32.46062 207.9015 -65.17958
v 35.0513 206.1929 -61.55373
v 29.21213 204.4845 -65.92024
v 32.46062 204.4845 -65.17952
v 35.0513 206.1929 -61.55373
v 28.55429 202.776 -63.03511
v 31.80279 202.776 -62.29439
v 35.0513 206.1929 -61.55373
v 27.89647 204.4845 -60.14992
v 31.14495 204.4845 -59.4092
v 35.0513 206.1929 -61.55373
v 27.89647 207.9015 -60.14992
v 31.14495 207.9015 -59.40926
v 35.0513 206.1929 -61.55373
v 28.55429 209.61 -63.03505
v 31.80279 209.61 -62.29439
v 35.0513 206.1929 -61.55373
v -5.256197 123.5981 -44.70668
v -7.647401 122.7956 -34.2192
v -6.876619 121.3999 -37.59969
v -8.477419 129.4309 -30.57888
v -8.379274 131.315 -31.0093
v -6.939608 149.1062 -37.32344
v -4.919497 125.8296 -46.18337
v -3.224428 145.7043 -53.61763
v -3.007265 150.7815 -54.57014
v -3.447237 158.2005 -52.6404
v -5.885469 169.1217 -41.94661
v -9.2941 158.7064 -26.99691
v -17.93546 158.9212 10.90263
v -8.162233 197.6567 -31.96102
v -3.812227 174.5337 -51.03957
v -2.286562 183.0956 -57.73085
v -18.96704 197.385 15.42704
v -7.704195 200.4761 -33.97011
v -1.420107 195.52 -61.53096
v -1.408785 195.7215 -61.58064
v -21.98334 191.2006 28.65605
v -5.972841 210.0717 -41.5635
v -22.01694 191.0701 28.80338
v -23.14084 178.6913 33.73259
v -4.700838 215.9522 -47.14217
v -21.77008 158.9212 27.72068
v -18.04636 156.9892 11.38902
v -19.18021 147.2941 16.36186
v -2.489168 221.106 -56.84218
v -22.77399 156.2103 32.12352
v -21.12881 140.9503 24.90806
v -22.31808 139.4081 30.124
v 0.3844892 222.2072 -69.44563
v 2.05432 216.8639 -76.76936
v 2.976073 203.6454 -80.81203
v 0.2018721 186.6897 -68.64479
v 3.414427 195.622 -82.73451
v 2.100065 182.5717 -76.96992
v 3.607634 190.0731 -83.5818
v 3.222075 184.6807 -81.89088
v -23.64362 156.0514 35.9376
v -25.22238 156.3844 42.86192
v -25.99191 151.3662 46.23686
v -25.92639 125.8546 45.94944
v -24.55866 121.6814 39.95091
v -23.76734 121.6646 36.48027
v -22.40973 125.5629 30.52604
v -18.96704 197.385 15.42704
v -8.162233 197.6567 -31.96102
v 20.58325 197.6567 -25.40688
v 9.77844 197.385 21.98118
v -21.98334 191.2006 28.65605
v 6.762114 191.2006 35.21025
v -22.01694 191.0701 28.80338
v 6.728544 191.0701 35.35759
v -23.14084 178.6913 33.73259
v 5.604643 178.6913 40.28672
v -21.77008 158.9212 27.72068
v 6.97537 158.9212 34.27482
v 4.186796 121.6814 46.50505
v 6.335722 125.5629 37.08018
v 4.978148 121.6646 43.0344
v 2.81909 125.8546 52.50358
v 2.753569 151.3662 52.79106
v 6.427397 139.4081 36.67814
v 3.5231 156.3844 49.41612
v 5.101866 156.0514 42.49174
v 5.971495 156.2103 38.67765
v 6.97537 158.9212 34.27482
v 7.616667 140.9504 31.46226
v 9.565275 147.294 22.91606
v 10.69912 156.9892 17.94316
v 10.80999 158.9212 17.45677
v 5.604643 178.6913 40.28672
v 6.728544 191.0701 35.35759
v 6.762114 191.2006 35.21025
v 9.77844 197.385 21.98118
v 22.86001 169.1217 -35.39248
v 19.45132 158.7064 -20.44271
v 20.58325 197.6567 -25.40688
v 21.80588 149.1062 -30.76931
v 24.93322 174.5336 -44.48543
v 21.04129 200.476 -27.41591
v 26.45892 183.0956 -51.17671
v 22.77264 210.0717 -35.00936
v 27.32533 195.52 -54.97676
v 24.04463 215.9522 -40.58803
v 27.3367 195.7215 -55.02651
v 25.29825 158.2005 -46.08626
v 26.2563 221.1059 -50.28804
v 25.73822 150.7815 -48.01601
v 29.12997 222.2072 -62.8915
v 25.52105 145.7043 -47.06343
v 23.826 125.8296 -39.62923
v 30.7998 216.8639 -70.21516
v 23.4893 123.5981 -38.15255
v 31.72155 203.6454 -74.25789
v 32.15991 195.622 -76.18037
v 20.36621 131.315 -24.45516
v 20.26806 129.4309 -24.02474
v 21.09805 122.7956 -27.665
v 21.86883 121.3999 -31.04555
v 32.3531 190.073 -77.02766
v 28.94736 186.6897 -62.09065
v 30.84553 182.5717 -70.41579
v 31.96757 184.6807 -75.33669
v -22.77399 156.2103 32.12352
v -21.77008 158.9212 27.72068
v 6.97537 158.9212 34.27482
v 5.971495 156.2103 38.67765
v -23.64362 156.0514 35.9376
v 5.101866 156.0514 42.49174
v -25.22238 156.3844 42.86192
v 3.5231 156.3844 49.41612
v 2.753569 151.3662 52.79106
v -25.99191 151.3662 46.23686
v -25.92639 125.8546 45.94944
v 2.81909 125.8546 52.50358
v -24.55866 121.6814 39.95091
v 4.186796 121.6814 46.50505
v -23.76734 121.6646 36.48027
v 4.978148 121.6646 43.0344
v -22.40973 125.5629 30.52604
v 6.335722 125.5629 37.08018
v -22.31808 139.4081 30.124
v 6.427397 139.4081 36.67814
v -21.12881 140.9503 24.90806
v 7.616667 140.9504 31.46226
v -19.18021 147.2941 16.36186
v 9.565275 147.294 22.91606
v -18.04636 156.9892 11.38902
v 10.69912 156.9892 17.94316
v -17.93546 158.9212 10.90263
v 10.80999 158.9212 17.45677
v 28.94736 186.6897 -62.09065
v 2.100065 182.5717 -76.96992
v 0.2018721 186.6897 -68.64479
v 30.84553 182.5717 -70.41579
v 3.222075 184.6807 -81.89088
v 31.96757 184.6807 -75.33669
v 3.607634 190.0731 -83.5818
v 32.3531 190.073 -77.02766
v 3.414427 195.622 -82.73451
v 32.15991 195.622 -76.18037
v 2.976073 203.6454 -80.81203
v 31.72155 203.6454 -74.25789
v 2.05432 216.8639 -76.76936
v 30.7998 216.8639 -70.21516
v 0.3844892 222.2072 -69.44563
v 29.12997 222.2072 -62.8915
v -2.489168 221.106 -56.84218
v 26.2563 221.1059 -50.28804
v -4.700838 215.9522 -47.14217
v 24.04463 215.9522 -40.58803
v 22.77264 210.0717 -35.00936
v -5.972841 210.0717 -41.5635
v -7.704195 200.4761 -33.97011
v 21.04129 200.476 -27.41591
v -8.162233 197.6567 -31.96102
v 20.58325 197.6567 -25.40688
v -4.011568 191.6608 -40.38051
v -4.482821 190.3689 -38.31368
v -4.051149 188.7671 -40.20699
v -5.441439 192.9745 -34.10933
v -3.552339 197.5286 -42.39473
v -7.222445 196.5034 -26.29818
v -7.252382 203.7659 -26.16689
v -3.053743 201.2678 -44.58156
v -8.502108 201.2564 -20.68587
v -9.414644 200.4939 -16.68355
v -6.275942 208.476 -30.44942
v -2.676515 204.3781 -46.23579
v -2.452272 206.6965 -47.21944
v -5.599611 214.6115 -33.41567
v -1.800691 211.3805 -50.07717
v -4.958742 222.3902 -36.22634
v -4.391573 228.1464 -38.71389
v -0.7720659 214.1432 -54.58852
v -3.930116 231.0002 -40.73781
v -1.816561 233.838 -50.00747
v 0.4536726 214.5014 -59.96443
v 0.2680342 231.6302 -59.1501
v 1.878081 224.8486 -66.21156
v 1.253294 213.5358 -63.47151
v 2.270872 221.2738 -67.93428
v 2.210661 211.9501 -67.67018
v 2.739805 216.071 -69.99092
v 3.246825 210.0542 -72.21461
v 26.13911 211.9501 -62.21431
v 26.66827 216.071 -64.53511
v 27.17528 210.0542 -66.75874
v 25.18179 213.5358 -58.01564
v 26.19931 221.2738 -62.47841
v 24.38217 214.5014 -54.50862
v 25.80653 224.8487 -60.75569
v 24.19647 231.6302 -53.69429
v 23.1564 214.1432 -49.13264
v 22.11191 233.838 -44.55159
v 19.99835 231.0002 -35.282
v 19.53686 228.1464 -33.25801
v 22.1278 211.3805 -44.62136
v 18.96969 222.3902 -30.77047
v 18.32882 214.6114 -27.9598
v 21.47622 206.6965 -41.76357
v 17.65249 208.4759 -24.99355
v 21.25192 204.3781 -40.77999
v 20.87475 201.2678 -39.12569
v 20.37616 197.5286 -36.93886
v 16.67605 203.7659 -20.71102
v 16.70599 196.5034 -20.8423
v 15.42636 201.2564 -15.23006
v 14.51379 200.4939 -11.22768
v 18.487 192.9745 -28.65352
v 19.9169 191.6608 -34.9247
v 19.44561 190.3689 -32.85781
v 19.87729 188.7671 -34.75118
v -12.72659 198.3192 -19.24239
v -15.64264 199.9541 -18.87423
v -15.85648 183.0719 -17.95424
v -12.96201 182.636 -18.24739
v -16.7619 178.5399 -13.98305
v -13.96247 177.6482 -13.8597
v -17.52326 177.2506 -10.64376
v -14.79193 176.2435 -10.22164
v -20.62869 177.1322 2.976116
v -17.97211 176.122 3.726055
v -21.99683 179.931 8.976482
v -19.46427 179.1852 10.2703
v -22.60669 184.3812 11.65116
v -20.13657 184.0942 13.21904
v -22.67001 199.9274 12.14988
v -20.14511 198.2644 13.71037
v 22.17022 215.8217 -67.73592
v 6.238157 215.8217 -71.36855
v 13.84805 218.1097 -67.99031
v 15.27258 208.9579 -74.23805
v 22.88247 211.2458 -70.85982
v 6.950407 211.2458 -74.49245
v -15.64264 199.9541 -18.87423
v 18.62756 198.3192 -12.09346
v 21.09576 199.9541 -10.49758
v -12.72659 198.3192 -19.24239
v -10.48346 196.5747 -15.8265
v 17.59363 198.2096 -8.391682
v 15.12539 196.5747 -9.987507
v -13.39948 198.2096 -15.45833
v 21.09576 199.9541 -10.49758
v 20.57879 199.8993 -8.646748
v -15.97907 199.8993 -16.98214
v -15.64264 199.9541 -18.87423
v 13.98037 199.9274 20.50645
v -20.14511 198.2644 13.71037
v -22.67001 199.9274 12.14988
v 11.02853 198.2644 20.81816
v 11.88229 198.2644 17.07371
v -22.24313 199.9274 10.27769
v -19.29135 198.2644 9.965923
v 14.40725 199.9274 18.6342
v 8.930479 196.6014 17.38548
v -19.29135 198.2644 9.965923
v -16.76642 196.6014 11.52647
v 11.88229 198.2644 17.07371
v 11.02853 198.2644 20.81816
v -17.1933 196.6014 13.39866
v -20.14511 198.2644 13.71037
v 8.503599 196.6014 19.25773
v -13.73917 187.4264 -17.5046
v -14.14377 181.8611 -15.72988
v -13.84607 184.4486 -17.03554
v -20.39432 198.2913 11.68394
v -13.73917 198.2913 -17.50454
v -18.29874 177.9996 2.493023
v -15.17279 178.4806 -11.21694
v -14.59757 179.8198 -13.7397
v -15.83475 177.9996 -8.313679
v -20.28742 184.4486 11.21495
v -20.39432 187.4263 11.68394
v -19.53592 179.8198 7.919048
v -18.96073 178.4806 5.396343
v -19.98972 181.8611 9.909344
v 10.80999 158.9212 17.45677
v 19.45132 158.7064 -20.44271
v -9.2941 158.7064 -26.99691
v -17.93546 158.9212 10.90263
v -16.76642 196.6014 11.52647
v -17.1933 196.6014 13.39866
v 8.503599 196.6014 19.25773
v 8.930479 196.6014 17.38548
v 19.45132 158.7064 -20.44271
v 21.80588 149.1062 -30.76931
v -6.939608 149.1062 -37.32344
v -9.2941 158.7064 -26.99691
v -29.95374 182.909 73.39732
v -29.27353 186.554 70.41405
v -30.22079 189.2304 74.56853
v -27.64179 182.669 63.25743
v -29.44394 173.5916 71.16142
v -28.12015 165.6554 65.35539
v -26.42081 182.0642 57.90251
v -26.15244 161.8527 56.72544
v -23.96149 162.9964 47.11619
v -22.03433 171.8782 38.66417
v -25.30118 183.9815 52.99199
v -23.67679 192.9617 45.86766
v -20.77875 179.1657 33.15727
v -21.69361 200.1972 37.16978
v -20.30045 200.2723 31.05961
v -19.26813 196.8803 26.53202
v -18.28626 190.039 22.22556
v 3.149718 179.1657 38.61308
v 4.660307 196.8803 31.98789
v 5.642241 190.039 27.68144
v 3.627989 200.2723 36.51542
v 2.234831 200.1971 42.62565
v 0.2516462 192.9617 51.32353
v -1.372743 183.9815 58.4478
v 1.894102 171.8782 44.11998
v -0.03302174 162.9964 52.57206
v -2.492372 182.0642 63.35838
v -2.22397 161.8527 62.18132
v -4.191683 165.6554 70.81126
v -5.515505 173.5916 76.61729
v -3.713319 182.6689 68.71324
v -6.025301 182.909 78.85313
v -5.345095 186.554 75.86992
v -6.29233 189.2304 80.0244
v -4.632174 206.193 -70.77657
v -2.604158 204.4845 -67.0862
v -1.446382 202.776 -69.84114
v 1.739439 202.776 -68.90565
v 0.5816328 204.4845 -66.15071
v -2.604158 207.9015 -67.0862
v -4.632174 206.193 -70.77657
v 0.5816328 207.9015 -66.15071
v -1.446382 209.61 -69.84114
v -4.632174 206.193 -70.77657
v 1.739439 209.61 -68.90565
v -0.2885759 207.9015 -72.59602
v -4.632174 206.193 -70.77657
v 2.897246 207.9015 -71.6606
v -0.2885759 204.4845 -72.59602
v -4.632174 206.193 -70.77657
v 2.897246 204.4845 -71.6606
v -1.446382 202.776 -69.84114
v 1.739439 202.776 -68.90565
v -4.632174 206.193 -70.77657
vt 0.3381348 0.9472656
vt 0.3393555 0.9682617
vt 0.3435059 0.9492188
vt 0.3435059 0.9492188
vt 0.3393555 0.9682617
vt 0.3432617 0.9536133
vt 0.3432617 0.9536133
vt 0.3393555 0.9682617
vt 0.3378906 0.9560547
vt 0.3378906 0.9560547
vt 0.3393555 0.9682617
vt 0.3325195 0.9536133
vt 0.3325195 0.9536133
vt 0.3393555 0.9682617
vt 0.3325195 0.9492188
vt 0.3325195 0.9492188
vt 0.3393555 0.9682617
vt 0.3381348 0.9472656
vt 0.4284668 0.9545898
vt 0.4279785 0.9555664
vt 0.4282227 0.9555664
vt 0.4287109 0.9545898
vt 0.4294434 0.9555664
vt 0.4299316 0.9545898
vt 0.432373 0.9555664
vt 0.4326172 0.9545898
vt 0.4401855 0.9555664
vt 0.4399414 0.9545898
vt 0.4416504 0.9555664
vt 0.4414063 0.9545898
vt 0.4436035 0.9555664
vt 0.4431152 0.9545898
vt 0.4440918 0.9555664
vt 0.4436035 0.9545898
vt 0.4440918 0.9428711
vt 0.4436035 0.9438477
vt 0.4440918 0.9428711
vt 0.4436035 0.9438477
vt 0.4423828 0.9438477
vt 0.442627 0.9428711
vt 0.4401855 0.9428711
vt 0.4399414 0.9438477
vt 0.432373 0.9428711
vt 0.4326172 0.9438477
vt 0.4299316 0.9438477
vt 0.4294434 0.9428711
vt 0.4287109 0.9438477
vt 0.4282227 0.9428711
vt 0.4279785 0.9428711
vt 0.4284668 0.9438477
vt 0.4287109 0.9545898
vt 0.4279785 0.9536133
vt 0.4284668 0.9545898
vt 0.4282227 0.9536133
vt 0.4299316 0.9545898
vt 0.4294434 0.9536133
vt 0.4326172 0.9545898
vt 0.432373 0.9536133
vt 0.4399414 0.9545898
vt 0.4401855 0.9536133
vt 0.4414063 0.9545898
vt 0.4418945 0.9536133
vt 0.4436035 0.9536133
vt 0.4431152 0.9545898
vt 0.4436035 0.9545898
vt 0.4440918 0.9536133
vt 0.4282227 0.9536133
vt 0.427002 0.9536133
vt 0.4279785 0.9536133
vt 0.427002 0.9536133
vt 0.4294434 0.9536133
vt 0.4287109 0.9536133
vt 0.432373 0.9536133
vt 0.432373 0.9536133
vt 0.4401855 0.9536133
vt 0.4404297 0.9536133
vt 0.4418945 0.9536133
vt 0.4423828 0.9536133
vt 0.4436035 0.9536133
vt 0.4448242 0.9536133
vt 0.4440918 0.9536133
vt 0.4453125 0.9536133
vt 0.4453125 0.9555664
vt 0.4440918 0.9555664
vt 0.4436035 0.9555664
vt 0.4445801 0.9555664
vt 0.4416504 0.9555664
vt 0.4423828 0.9555664
vt 0.4401855 0.9555664
vt 0.4404297 0.9555664
vt 0.432373 0.9555664
vt 0.432373 0.9555664
vt 0.4294434 0.9555664
vt 0.4287109 0.9555664
vt 0.4282227 0.9555664
vt 0.4272461 0.9555664
vt 0.4279785 0.9555664
vt 0.427002 0.9555664
vt 0.4262695 0.9438477
vt 0.427002 0.9428711
vt 0.4272461 0.9428711
vt 0.4265137 0.9438477
vt 0.4287109 0.9428711
vt 0.4284668 0.9438477
vt 0.432373 0.9428711
vt 0.4321289 0.9438477
vt 0.4404297 0.9428711
vt 0.4404297 0.9438477
vt 0.4438477 0.9438477
vt 0.4433594 0.9428711
vt 0.4450684 0.9428711
vt 0.4458008 0.9438477
vt 0.4453125 0.9428711
vt 0.4458008 0.9438477
vt 0.4262695 0.9545898
vt 0.427002 0.9536133
vt 0.427002 0.9536133
vt 0.4265137 0.9545898
vt 0.4287109 0.9536133
vt 0.4284668 0.9545898
vt 0.432373 0.9536133
vt 0.4321289 0.9545898
vt 0.4404297 0.9545898
vt 0.4404297 0.9536133
vt 0.4423828 0.9536133
vt 0.442627 0.9545898
vt 0.4448242 0.9536133
vt 0.4453125 0.9545898
vt 0.4453125 0.9536133
vt 0.4458008 0.9545898
vt 0.4453125 0.9448242
vt 0.4458008 0.9438477
vt 0.4453125 0.9448242
vt 0.4458008 0.9438477
vt 0.4436035 0.9448242
vt 0.4438477 0.9438477
vt 0.4404297 0.9448242
vt 0.4404297 0.9438477
vt 0.432373 0.9448242
vt 0.4321289 0.9438477
vt 0.4287109 0.9448242
vt 0.4284668 0.9438477
vt 0.427002 0.9448242
vt 0.4265137 0.9438477
vt 0.427002 0.9448242
vt 0.4262695 0.9438477
vt 0.427002 0.9428711
vt 0.4279785 0.9428711
vt 0.4282227 0.9428711
vt 0.4272461 0.9428711
vt 0.4294434 0.9428711
vt 0.4287109 0.9428711
vt 0.432373 0.9428711
vt 0.432373 0.9428711
vt 0.4401855 0.9428711
vt 0.4404297 0.9428711
vt 0.442627 0.9428711
vt 0.4433594 0.9428711
vt 0.4440918 0.9428711
vt 0.4450684 0.9428711
vt 0.4440918 0.9428711
vt 0.4453125 0.9428711
vt 0.4282227 0.9448242
vt 0.4284668 0.9438477
vt 0.4279785 0.9448242
vt 0.4287109 0.9438477
vt 0.4294434 0.9448242
vt 0.4299316 0.9438477
vt 0.432373 0.9448242
vt 0.4326172 0.9438477
vt 0.4401855 0.9448242
vt 0.4399414 0.9438477
vt 0.442627 0.9448242
vt 0.4423828 0.9438477
vt 0.4440918 0.9448242
vt 0.4436035 0.9438477
vt 0.4440918 0.9448242
vt 0.4436035 0.9438477
vt 0.4279785 0.9448242
vt 0.427002 0.9448242
vt 0.427002 0.9448242
vt 0.4282227 0.9448242
vt 0.4294434 0.9448242
vt 0.4287109 0.9448242
vt 0.432373 0.9448242
vt 0.432373 0.9448242
vt 0.4404297 0.9448242
vt 0.4401855 0.9448242
vt 0.4436035 0.9448242
vt 0.442627 0.9448242
vt 0.4453125 0.9448242
vt 0.4440918 0.9448242
vt 0.4453125 0.9448242
vt 0.4440918 0.9448242
vt 0.4440918 0.9448242
vt 0.4453125 0.9448242
vt 0.4453125 0.9536133
vt 0.4440918 0.9536133
vt 0.2303467 0.9545898
vt 0.2297363 0.9545898
vt 0.2297363 0.9545898
vt 0.2303467 0.9545898
vt 0.230957 0.9545898
vt 0.230957 0.9545898
vt 0.2314453 0.9545898
vt 0.2314453 0.9545898
vt 0.2321777 0.9550781
vt 0.2321777 0.9550781
vt 0.2325439 0.9555664
vt 0.2325439 0.9555664
vt 0.232666 0.956543
vt 0.232666 0.956543
vt 0.2327881 0.956543
vt 0.2327881 0.956543
vt 0.2327881 0.9570313
vt 0.2327881 0.9570313
vt 0.2329102 0.9575195
vt 0.2329102 0.9575195
vt 0.2329102 0.9584961
vt 0.2329102 0.9584961
vt 0.2327881 0.9589844
vt 0.2327881 0.9589844
vt 0.2331543 0.9589844
vt 0.2331543 0.9589844
vt 0.2337646 0.9584961
vt 0.2337646 0.9584961
vt 0.2348633 0.9584961
vt 0.2348633 0.9584961
vt 0.2362061 0.9584961
vt 0.2362061 0.9584961
vt 0.2398682 0.9541016
vt 0.2398682 0.9541016
vt 0.2406006 0.9570313
vt 0.2406006 0.9570313
vt 0.8349609 0.9370117
vt 0.8344727 0.9365234
vt 0.8344727 0.9365234
vt 0.8349609 0.9370117
vt 0.8354492 0.9375
vt 0.8354492 0.9375
vt 0.8359375 0.9384766
vt 0.8359375 0.9384766
vt 0.8359375 0.9384766
vt 0.8359375 0.9384766
vt 0.427002 0.9555664
vt 0.4279785 0.9555664
vt 0.4279785 0.9428711
vt 0.427002 0.9428711
vt 0.348877 0.9609375
vt 0.3352051 0.9609375
vt 0.3352051 0.9609375
vt 0.348877 0.9609375
vt 0.348877 0.9545898
vt 0.3369141 0.9501953
vt 0.3354492 0.9526367
vt 0.3352051 0.9545898
vt 0.3359375 0.9511719
vt 0.3459473 0.9492188
vt 0.3393555 0.9487305
vt 0.3381348 0.9492188
vt 0.3444824 0.9487305
vt 0.3479004 0.9511719
vt 0.3469238 0.9501953
vt 0.3486328 0.9526367
vt 0.3481445 0.9638672
vt 0.3481445 0.9428711
vt 0.3452148 0.9428711
vt 0.3452148 0.9638672
vt 0.3422852 0.9428711
vt 0.3422852 0.9638672
vt 0.3393555 0.9428711
vt 0.3393555 0.9638672
vt 0.3364258 0.9428711
vt 0.3364258 0.9638672
vt 0.333252 0.9428711
vt 0.333252 0.9638672
vt 0.3303223 0.9428711
vt 0.3303223 0.9638672
vt 0.8344727 0.9350586
vt 0.8339844 0.934082
vt 0.8339844 0.934082
vt 0.8344727 0.9350586
vt 0.8339844 0.934082
vt 0.8339844 0.934082
vt 0.8339844 0.934082
vt 0.8339844 0.934082
vt 0.8339844 0.9335938
vt 0.8339844 0.9335938
vt 0.8344727 0.9331055
vt 0.8344727 0.9331055
vt 0.8349609 0.9335938
vt 0.8349609 0.9335938
vt 0.8349609 0.9335938
vt 0.8349609 0.9335938
vt 0.8354492 0.9350586
vt 0.8354492 0.9350586
vt 0.8354492 0.9355469
vt 0.8354492 0.9355469
vt 0.8354492 0.9360352
vt 0.8354492 0.9360352
vt 0.8344727 0.9365234
vt 0.8344727 0.9365234
vt 0.2327881 0.9516602
vt 0.2318115 0.9516602
vt 0.2318115 0.9516602
vt 0.2327881 0.9516602
vt 0.234375 0.9516602
vt 0.234375 0.9516602
vt 0.2353516 0.9521484
vt 0.2353516 0.9521484
vt 0.2359619 0.953125
vt 0.2359619 0.953125
vt 0.2363281 0.9550781
vt 0.2363281 0.9550781
vt 0.2370605 0.9570313
vt 0.2370605 0.9570313
vt 0.2381592 0.9580078
vt 0.2381592 0.9580078
vt 0.2392578 0.9575195
vt 0.2392578 0.9575195
vt 0.2406006 0.9570313
vt 0.2406006 0.9570313
vt 0.2318115 0.9516602
vt 0.2318115 0.9516602
vt 0.232666 0.9511719
vt 0.232666 0.9511719
vt 0.2338867 0.949707
vt 0.2338867 0.949707
vt 0.2355957 0.9487305
vt 0.2355957 0.9487305
vt 0.2374268 0.9492188
vt 0.2374268 0.9492188
vt 0.2390137 0.9501953
vt 0.2390137 0.9501953
vt 0.239624 0.9526367
vt 0.239624 0.9526367
vt 0.2398682 0.9541016
vt 0.2398682 0.9541016
vt 0.8359375 0.9384766
vt 0.8364258 0.9375
vt 0.8364258 0.9375
vt 0.8359375 0.9384766
vt 0.2297363 0.9545898
vt 0.2297363 0.9545898
vt 0.2303467 0.9541016
vt 0.2303467 0.9541016
vt 0.230835 0.9536133
vt 0.230835 0.9536133
vt 0.2312012 0.953125
vt 0.2312012 0.953125
vt 0.2322998 0.9526367
vt 0.2322998 0.9526367
vt 0.2335205 0.9526367
vt 0.2335205 0.9526367
vt 0.2346191 0.9536133
vt 0.2346191 0.9536133
vt 0.2347412 0.9541016
vt 0.2347412 0.9541016
vt 0.2347412 0.9550781
vt 0.2347412 0.9550781
vt 0.2347412 0.9560547
vt 0.2347412 0.9560547
vt 0.2348633 0.9570313
vt 0.2348633 0.9570313
vt 0.2352295 0.9575195
vt 0.2352295 0.9575195
vt 0.2357178 0.9584961
vt 0.2357178 0.9584961
vt 0.2362061 0.9584961
vt 0.2362061 0.9584961
vt 0.7353516 0.9477539
vt 0.7373047 0.9506836
vt 0.7373047 0.9477539
vt 0.7353516 0.9506836
vt 0.7353516 0.956543
vt 0.7333984 0.9477539
vt 0.7333984 0.9506836
vt 0.7333984 0.956543
vt 0.7314453 0.9477539
vt 0.7314453 0.9506836
vt 0.7314453 0.956543
vt 0.7294922 0.9477539
vt 0.7294922 0.9506836
vt 0.7294922 0.956543
vt 0.7275391 0.9477539
vt 0.7275391 0.9506836
vt 0.7275391 0.956543
vt 0.7255859 0.9477539
vt 0.7255859 0.9506836
vt 0.7255859 0.956543
vt 0.8349609 0.9335938
vt 0.8339844 0.9335938
vt 0.8344727 0.9331055
vt 0.8339844 0.934082
vt 0.8339844 0.934082
vt 0.8344727 0.9350586
vt 0.8349609 0.9335938
vt 0.8354492 0.9350586
vt 0.8354492 0.9355469
vt 0.8354492 0.9360352
vt 0.8344727 0.9365234
vt 0.8334961 0.9360352
vt 0.8310547 0.9360352
vt 0.8339844 0.9384766
vt 0.8349609 0.9370117
vt 0.8354492 0.9375
vt 0.8305664 0.9384766
vt 0.8339844 0.9384766
vt 0.8359375 0.9384766
vt 0.8359375 0.9384766
vt 0.8295898 0.9379883
vt 0.8344727 0.9394531
vt 0.8295898 0.9379883
vt 0.8291016 0.9370117
vt 0.8349609 0.9399414
vt 0.8295898 0.9360352
vt 0.8310547 0.9355469
vt 0.8305664 0.9350586
vt 0.8354492 0.9399414
vt 0.8295898 0.9355469
vt 0.8300781 0.9345703
vt 0.8295898 0.9345703
vt 0.8364258 0.9399414
vt 0.8369141 0.9399414
vt 0.8374023 0.9389648
vt 0.8364258 0.9375
vt 0.8374023 0.9384766
vt 0.8369141 0.9375
vt 0.8374023 0.9379883
vt 0.8374023 0.9375
vt 0.8291016 0.9355469
vt 0.8286133 0.9355469
vt 0.8286133 0.9355469
vt 0.8286133 0.9335938
vt 0.8291016 0.9331055
vt 0.8291016 0.9331055
vt 0.8295898 0.9335938
vt 0.8305664 0.9384766
vt 0.8339844 0.9384766
vt 0.8339844 0.9384766
vt 0.8305664 0.9384766
vt 0.8295898 0.9379883
vt 0.8295898 0.9379883
vt 0.8295898 0.9379883
vt 0.8295898 0.9379883
vt 0.8291016 0.9370117
vt 0.8291016 0.9370117
vt 0.8295898 0.9360352
vt 0.8295898 0.9360352
vt 0.8291016 0.9331055
vt 0.8295898 0.9335938
vt 0.8291016 0.9331055
vt 0.8286133 0.9335938
vt 0.8286133 0.9355469
vt 0.8295898 0.9345703
vt 0.8286133 0.9355469
vt 0.8291016 0.9355469
vt 0.8295898 0.9355469
vt 0.8295898 0.9360352
vt 0.8300781 0.9345703
vt 0.8305664 0.9350586
vt 0.8310547 0.9355469
vt 0.8310547 0.9360352
vt 0.8291016 0.9370117
vt 0.8295898 0.9379883
vt 0.8295898 0.9379883
vt 0.8305664 0.9384766
vt 0.8344727 0.9365234
vt 0.8334961 0.9360352
vt 0.8339844 0.9384766
vt 0.8344727 0.9350586
vt 0.8349609 0.9370117
vt 0.8339844 0.9384766
vt 0.8354492 0.9375
vt 0.8344727 0.9394531
vt 0.8359375 0.9384766
vt 0.8349609 0.9399414
vt 0.8359375 0.9384766
vt 0.8354492 0.9360352
vt 0.8354492 0.9399414
vt 0.8354492 0.9355469
vt 0.8364258 0.9399414
vt 0.8354492 0.9350586
vt 0.8349609 0.9335938
vt 0.8369141 0.9399414
vt 0.8349609 0.9335938
vt 0.8374023 0.9389648
vt 0.8374023 0.9384766
vt 0.8339844 0.934082
vt 0.8339844 0.934082
vt 0.8339844 0.9335938
vt 0.8344727 0.9331055
vt 0.8374023 0.9379883
vt 0.8364258 0.9375
vt 0.8369141 0.9375
vt 0.8374023 0.9375
vt 0.8295898 0.9355469
vt 0.8295898 0.9360352
vt 0.8295898 0.9360352
vt 0.8295898 0.9355469
vt 0.8291016 0.9355469
vt 0.8291016 0.9355469
vt 0.8286133 0.9355469
vt 0.8286133 0.9355469
vt 0.8286133 0.9355469
vt 0.8286133 0.9355469
vt 0.8286133 0.9335938
vt 0.8286133 0.9335938
vt 0.8291016 0.9331055
vt 0.8291016 0.9331055
vt 0.8291016 0.9331055
vt 0.8291016 0.9331055
vt 0.8295898 0.9335938
vt 0.8295898 0.9335938
vt 0.8295898 0.9345703
vt 0.8295898 0.9345703
vt 0.8300781 0.9345703
vt 0.8300781 0.9345703
vt 0.8305664 0.9350586
vt 0.8305664 0.9350586
vt 0.8310547 0.9355469
vt 0.8310547 0.9355469
vt 0.8310547 0.9360352
vt 0.8310547 0.9360352
vt 0.8364258 0.9375
vt 0.8369141 0.9375
vt 0.8364258 0.9375
vt 0.8369141 0.9375
vt 0.8374023 0.9375
vt 0.8374023 0.9375
vt 0.8374023 0.9379883
vt 0.8374023 0.9379883
vt 0.8374023 0.9384766
vt 0.8374023 0.9384766
vt 0.8374023 0.9389648
vt 0.8374023 0.9389648
vt 0.8369141 0.9399414
vt 0.8369141 0.9399414
vt 0.8364258 0.9399414
vt 0.8364258 0.9399414
vt 0.8354492 0.9399414
vt 0.8354492 0.9399414
vt 0.8349609 0.9399414
vt 0.8349609 0.9399414
vt 0.8344727 0.9394531
vt 0.8344727 0.9394531
vt 0.8339844 0.9384766
vt 0.8339844 0.9384766
vt 0.8339844 0.9384766
vt 0.8339844 0.9384766
vt 0.2329102 0.9584961
vt 0.2331543 0.9589844
vt 0.2327881 0.9589844
vt 0.2337646 0.9584961
vt 0.2329102 0.9575195
vt 0.2348633 0.9584961
vt 0.2352295 0.9575195
vt 0.2327881 0.9570313
vt 0.2357178 0.9584961
vt 0.2362061 0.9584961
vt 0.2348633 0.9570313
vt 0.2327881 0.956543
vt 0.232666 0.956543
vt 0.2347412 0.9560547
vt 0.2325439 0.9555664
vt 0.2347412 0.9550781
vt 0.2347412 0.9541016
vt 0.2321777 0.9550781
vt 0.2346191 0.9536133
vt 0.2335205 0.9526367
vt 0.2314453 0.9545898
vt 0.2322998 0.9526367
vt 0.2312012 0.953125
vt 0.230957 0.9545898
vt 0.230835 0.9536133
vt 0.2303467 0.9545898
vt 0.2303467 0.9541016
vt 0.2297363 0.9545898
vt 0.2303467 0.9545898
vt 0.2303467 0.9541016
vt 0.2297363 0.9545898
vt 0.230957 0.9545898
vt 0.230835 0.9536133
vt 0.2314453 0.9545898
vt 0.2312012 0.953125
vt 0.2322998 0.9526367
vt 0.2321777 0.9550781
vt 0.2335205 0.9526367
vt 0.2346191 0.9536133
vt 0.2347412 0.9541016
vt 0.2325439 0.9555664
vt 0.2347412 0.9550781
vt 0.2347412 0.9560547
vt 0.232666 0.956543
vt 0.2348633 0.9570313
vt 0.2327881 0.956543
vt 0.2327881 0.9570313
vt 0.2329102 0.9575195
vt 0.2352295 0.9575195
vt 0.2348633 0.9584961
vt 0.2357178 0.9584961
vt 0.2362061 0.9584961
vt 0.2337646 0.9584961
vt 0.2329102 0.9584961
vt 0.2331543 0.9589844
vt 0.2327881 0.9589844
vt 0.4458008 0.9545898
vt 0.4453125 0.9555664
vt 0.4445801 0.9555664
vt 0.4453125 0.9545898
vt 0.4423828 0.9555664
vt 0.442627 0.9545898
vt 0.4404297 0.9555664
vt 0.4404297 0.9545898
vt 0.432373 0.9555664
vt 0.4321289 0.9545898
vt 0.4287109 0.9555664
vt 0.4284668 0.9545898
vt 0.4272461 0.9555664
vt 0.4265137 0.9545898
vt 0.427002 0.9555664
vt 0.4262695 0.9545898
vt 0.3325195 0.9536133
vt 0.3432617 0.9536133
vt 0.3378906 0.9560547
vt 0.3381348 0.9472656
vt 0.3325195 0.9492188
vt 0.3435059 0.9492188
vt 0.4453125 0.9555664
vt 0.4458008 0.9438477
vt 0.4453125 0.9428711
vt 0.4458008 0.9545898
vt 0.4440918 0.9536133
vt 0.4436035 0.9438477
vt 0.4440918 0.9448242
vt 0.4436035 0.9545898
vt 0.4453125 0.9428711
vt 0.4440918 0.9428711
vt 0.4440918 0.9555664
vt 0.4453125 0.9555664
vt 0.427002 0.9428711
vt 0.4262695 0.9545898
vt 0.427002 0.9555664
vt 0.4262695 0.9438477
vt 0.4284668 0.9438477
vt 0.4279785 0.9555664
vt 0.4284668 0.9545898
vt 0.4279785 0.9428711
vt 0.4279785 0.9448242
vt 0.4284668 0.9545898
vt 0.4279785 0.9536133
vt 0.4284668 0.9438477
vt 0.4262695 0.9438477
vt 0.427002 0.9536133
vt 0.4262695 0.9545898
vt 0.427002 0.9448242
vt 0.348877 0.9545898
vt 0.3479004 0.9511719
vt 0.3486328 0.9526367
vt 0.3352051 0.9609375
vt 0.348877 0.9609375
vt 0.3393555 0.9487305
vt 0.3459473 0.9492188
vt 0.3469238 0.9501953
vt 0.3444824 0.9487305
vt 0.3354492 0.9526367
vt 0.3352051 0.9545898
vt 0.3369141 0.9501953
vt 0.3381348 0.9492188
vt 0.3359375 0.9511719
vt 0.8310547 0.9360352
vt 0.8334961 0.9360352
vt 0.8334961 0.9360352
vt 0.8310547 0.9360352
vt 0.4279785 0.9536133
vt 0.427002 0.9536133
vt 0.427002 0.9448242
vt 0.4279785 0.9448242
vt 0.8334961 0.9360352
vt 0.8344727 0.9350586
vt 0.8344727 0.9350586
vt 0.8334961 0.9360352
vt 0.232666 0.9511719
vt 0.2327881 0.9516602
vt 0.2318115 0.9516602
vt 0.234375 0.9516602
vt 0.2338867 0.949707
vt 0.2355957 0.9487305
vt 0.2353516 0.9521484
vt 0.2374268 0.9492188
vt 0.2390137 0.9501953
vt 0.239624 0.9526367
vt 0.2359619 0.953125
vt 0.2363281 0.9550781
vt 0.2398682 0.9541016
vt 0.2370605 0.9570313
vt 0.2381592 0.9580078
vt 0.2392578 0.9575195
vt 0.2406006 0.9570313
vt 0.2398682 0.9541016
vt 0.2392578 0.9575195
vt 0.2406006 0.9570313
vt 0.2381592 0.9580078
vt 0.2370605 0.9570313
vt 0.2363281 0.9550781
vt 0.2359619 0.953125
vt 0.239624 0.9526367
vt 0.2390137 0.9501953
vt 0.2353516 0.9521484
vt 0.2374268 0.9492188
vt 0.2355957 0.9487305
vt 0.2338867 0.949707
vt 0.234375 0.9516602
vt 0.232666 0.9511719
vt 0.2327881 0.9516602
vt 0.2318115 0.9516602
vt 0.7255859 0.956543
vt 0.7275391 0.9506836
vt 0.7255859 0.9506836
vt 0.7255859 0.9477539
vt 0.7275391 0.9477539
vt 0.7294922 0.9506836
vt 0.7275391 0.956543
vt 0.7294922 0.9477539
vt 0.7314453 0.9506836
vt 0.7294922 0.956543
vt 0.7314453 0.9477539
vt 0.7333984 0.9506836
vt 0.7314453 0.956543
vt 0.7333984 0.9477539
vt 0.7353516 0.9506836
vt 0.7333984 0.956543
vt 0.7353516 0.9477539
vt 0.7373047 0.9506836
vt 0.7373047 0.9477539
vt 0.7353516 0.956543
vn 0.1588135 -0.699707 -0.6967773
vn -0.1599121 -0.6630859 -0.7314453
vn -0.7495117 -0.1699219 -0.6396484
vn -0.7495117 -0.1699219 -0.6396484
vn -0.8920898 0.1516113 -0.4255371
vn -0.7993164 0.59375 -0.09301758
vn -0.7993164 0.59375 -0.09301758
vn -0.3974609 0.8632813 0.310791
vn -0.09179688 0.9106445 0.4025879
vn -0.09179688 0.9106445 0.4025879
vn 0.2235107 0.8632813 0.4523926
vn 0.7602539 0.59375 0.2626953
vn 0.7602539 0.59375 0.2626953
vn 0.9882813 0.1516113 0.003326416
vn 0.9526367 -0.1699219 -0.2514648
vn 0.9526367 -0.1699219 -0.2514648
vn 0.4611816 -0.6630859 -0.5898438
vn 0.1588135 -0.699707 -0.6967773
vn -0.09973145 0.001512527 -0.9951172
vn -0.1035767 0.002569199 -0.9946289
vn -0.09399414 0.2595215 -0.9609375
vn -0.09454346 0.2678223 -0.9589844
vn -0.151001 0.6855469 -0.7124023
vn -0.1535645 0.6962891 -0.7011719
vn -0.2675781 0.9428711 -0.1984863
vn -0.2683105 0.9433594 -0.1953125
vn -0.3405762 0.9331055 0.1140137
vn -0.3393555 0.9345703 0.1080933
vn -0.404541 0.8237305 0.3974609
vn -0.4020996 0.8300781 0.3864746
vn -0.4921875 0.3891602 0.7788086
vn -0.4907227 0.4040527 0.7719727
vn -0.4387207 0.1308594 0.8891602
vn -0.3503418 0.2724609 0.8959961
vn 0.01041412 0.1312256 0.9912109
vn -0.07281494 0.2729492 0.9594727
vn 0.08764648 0.12854 0.987793
vn 0.08776855 0.1326904 0.9873047
vn 0.1446533 0.6552734 0.7412109
vn 0.1420898 0.6435547 0.7524414
vn 0.2575684 0.9331055 0.2504883
vn 0.2587891 0.9345703 0.2451172
vn 0.3273926 0.9428711 -0.06286621
vn 0.3266602 0.9433594 -0.06015015
vn 0.4423828 0.6958008 -0.5654297
vn 0.4448242 0.6855469 -0.5761719
vn 0.5009766 0.2678223 -0.8232422
vn 0.5014648 0.2595215 -0.8251953
vn 0.5214844 -0.001505852 -0.8530273
vn 0.5273438 -0.00315094 -0.8496094
vn 0.5385742 0.2636719 -0.800293
vn 0.53125 0.001522064 -0.847168
vn 0.5273438 0.002967834 -0.8496094
vn 0.5390625 0.255127 -0.8027344
vn 0.480957 0.6860352 -0.5458984
vn 0.4836426 0.6743164 -0.5581055
vn 0.3669434 0.9291992 -0.0484314
vn 0.3676758 0.9287109 -0.05175781
vn 0.3005371 0.9199219 0.2512207
vn 0.2990723 0.9189453 0.2573242
vn 0.2374268 0.8178711 0.5244141
vn 0.2346191 0.8105469 0.5366211
vn 0.1499023 0.3823242 0.9116211
vn 0.1516113 0.3979492 0.9047852
vn 0.1262207 -1.460314E-05 0.9921875
vn 0.1248169 -0.0007333755 0.9921875
vn 0.9624023 -0.01496124 0.2705078
vn 0.9726563 0.003408432 0.2316895
vn 0.9750977 0.005378723 0.22229
vn 0.9624023 -0.0138092 0.2709961
vn 0.9663086 -0.03918457 0.255127
vn 0.965332 -0.03674316 0.2578125
vn 0.972168 -0.05157471 0.2290039
vn 0.972168 -0.05151367 0.2293701
vn 0.9755859 -0.0508728 0.2127686
vn 0.9760742 -0.05072021 0.2119141
vn 0.9790039 -0.0458374 0.1982422
vn 0.9794922 -0.04443359 0.1958008
vn 0.9838867 -0.02323914 0.1768799
vn 0.984375 -0.02049255 0.1756592
vn 0.9848633 -0.0003881454 0.1737061
vn 0.984375 -0.001102448 0.1750488
vn -0.9848633 -0.0003800392 -0.1743164
vn -0.984375 -0.0005865097 -0.1750488
vn -0.9838867 0.0229187 -0.1767578
vn -0.984375 0.02049255 -0.1756592
vn -0.9794922 0.04519653 -0.1971436
vn -0.9794922 0.04431152 -0.1956787
vn -0.9760742 0.05081177 -0.2124023
vn -0.9760742 0.05081177 -0.2124023
vn -0.972168 0.05157471 -0.2290039
vn -0.972168 0.05157471 -0.2290039
vn -0.9658203 0.03887939 -0.2556152
vn -0.9658203 0.03738403 -0.2573242
vn -0.9624023 0.01522827 -0.2705078
vn -0.9624023 0.01417542 -0.270752
vn -0.9731445 0.002836227 -0.229248
vn -0.9750977 0.003902435 -0.22229
vn 0.1103516 -0.001561165 0.9936523
vn 0.1065063 -0.002641678 0.9941406
vn 0.1385498 -0.2644043 0.9545898
vn 0.1379395 -0.2548828 0.9570313
vn 0.1966553 -0.6860352 0.7006836
vn 0.1939697 -0.6743164 0.7124023
vn 0.3098145 -0.9291992 0.2017822
vn 0.3088379 -0.9287109 0.2060547
vn 0.3796387 -0.9199219 -0.09667969
vn 0.3811035 -0.9189453 -0.102356
vn 0.4929199 -0.6328125 -0.597168
vn 0.4902344 -0.6459961 -0.5854492
vn 0.5449219 -0.1307373 -0.8286133
vn 0.5449219 -0.1263428 -0.8291016
vn 0.5439453 3.230572E-05 -0.8393555
vn 0.5429688 0.0004303455 -0.8398438
vn 0.09967041 0.00148201 0.9951172
vn 0.1068726 0.003391266 0.9941406
vn 0.09454346 -0.2678223 0.9589844
vn 0.09399414 -0.2595215 0.9609375
vn 0.1534424 -0.6958008 0.7016602
vn 0.151001 -0.6855469 0.7124023
vn 0.2683105 -0.9433594 0.1958008
vn 0.2675781 -0.9428711 0.1984863
vn 0.3405762 -0.9331055 -0.1140747
vn 0.3393555 -0.9345703 -0.1087036
vn 0.4020996 -0.8295898 -0.3874512
vn 0.404541 -0.8237305 -0.3974609
vn 0.4907227 -0.4033203 -0.7724609
vn 0.4921875 -0.3891602 -0.7788086
vn 0.3503418 -0.2724609 -0.8959961
vn 0.439209 -0.1309814 -0.8886719
vn 0.07281494 -0.2727051 -0.9594727
vn -0.01012421 -0.1306152 -0.9912109
vn -0.08776855 -0.1328125 -0.9873047
vn -0.08764648 -0.12854 -0.987793
vn -0.1445313 -0.6547852 -0.7416992
vn -0.1420898 -0.6430664 -0.7524414
vn -0.2587891 -0.9345703 -0.2445068
vn -0.2575684 -0.9331055 -0.2504883
vn -0.3266602 -0.9433594 0.05969238
vn -0.3273926 -0.9428711 0.06286621
vn -0.4423828 -0.6958008 0.565918
vn -0.4448242 -0.6855469 0.5761719
vn -0.5004883 -0.2692871 0.8227539
vn -0.5014648 -0.2595215 0.8251953
vn -0.5205078 -0.001509666 0.8540039
vn -0.5244141 -0.003019333 0.8515625
vn 0.9765625 -0.003017426 0.21521
vn 0.9750977 -0.004169464 0.22229
vn 0.9848633 0.01527405 0.1734619
vn 0.9848633 0.01389313 0.1730957
vn 0.9814453 0.03900146 0.1885986
vn 0.9819336 0.03677368 0.1861572
vn 0.9750977 0.05154419 0.2149658
vn 0.9750977 0.05157471 0.2149658
vn 0.9716797 0.05099487 0.230835
vn 0.9711914 0.0506897 0.2322998
vn 0.965332 0.03677368 0.2578125
vn 0.9648438 0.03439331 0.2600098
vn 0.9624023 0.007259369 0.2722168
vn 0.9624023 0.00724411 0.2722168
vn 0.9628906 0.0003745556 0.2697754
vn 0.9628906 0.0005731583 0.269043
vn -0.1379395 0.255127 -0.9570313
vn -0.1104736 -0.001580238 -0.9936523
vn -0.1029663 -0.003667831 -0.9946289
vn -0.1384277 0.2644043 -0.9545898
vn -0.1939697 0.6743164 -0.7124023
vn -0.1967773 0.6860352 -0.7001953
vn -0.3088379 0.9287109 -0.2060547
vn -0.3095703 0.9291992 -0.2028809
vn -0.3811035 0.9189453 0.1022949
vn -0.3796387 0.9199219 0.0960083
vn -0.4929199 0.6328125 0.597168
vn -0.4902344 0.6459961 0.5854492
vn -0.5449219 0.1263428 0.8291016
vn -0.5444336 0.1312256 0.828125
vn -0.5439453 1.41263E-05 0.8393555
vn -0.5439453 8.761883E-06 0.8393555
vn -0.9770508 -0.00352478 -0.2127686
vn -0.9750977 -0.005592346 -0.22229
vn -0.9848633 -0.01463318 -0.1733398
vn -0.9848633 -0.01463318 -0.1733398
vn -0.9814453 -0.03918457 -0.1888428
vn -0.9819336 -0.03686523 -0.1862793
vn -0.9755859 -0.05148315 -0.2143555
vn -0.9750977 -0.05157471 -0.2149658
vn -0.9716797 -0.05081177 -0.2316895
vn -0.9716797 -0.05093384 -0.230957
vn -0.9648438 -0.03439331 -0.2600098
vn -0.965332 -0.03659058 -0.2578125
vn -0.9624023 -0.007293701 -0.2722168
vn -0.9624023 -0.00725174 -0.2722168
vn -0.9628906 0.000426054 -0.2705078
vn -0.9628906 0.001094818 -0.269043
vn 0.006343842 -0.9995117 -0.02781677
vn 0.006343842 -0.9995117 -0.02781677
vn 0.006343842 -0.9995117 -0.02781677
vn 0.006343842 -0.9995117 -0.02781677
vn -0.08032227 -0.9326172 0.3522949
vn -0.08374023 -0.9262695 0.3674316
vn -0.08374023 -0.9262695 0.3674316
vn -0.08032227 -0.9326172 0.3522949
vn -0.06732178 -0.953125 0.295166
vn -0.06732178 -0.953125 0.295166
vn -0.02209473 -0.9951172 0.09692383
vn -0.02206421 -0.9951172 0.09680176
vn 0.06781006 -0.9521484 -0.2976074
vn 0.06781006 -0.9521484 -0.2976074
vn 0.1584473 -0.7011719 -0.6953125
vn 0.1584473 -0.7011719 -0.6953125
vn 0.1968994 -0.4643555 -0.8632813
vn 0.1967773 -0.4650879 -0.8632813
vn 0.199707 -0.4394531 -0.8759766
vn 0.199707 -0.4394531 -0.8759766
vn 0.1929932 -0.4968262 -0.8461914
vn 0.1929932 -0.4968262 -0.8461914
vn 0.2015381 -0.4223633 -0.8837891
vn 0.2015381 -0.4223633 -0.8837891
vn 0.2180176 -0.1950684 -0.9560547
vn 0.2180176 -0.1951904 -0.9560547
vn 0.1325684 -0.8027344 -0.581543
vn 0.1325684 -0.8027344 -0.5810547
vn -0.1287842 -0.8149414 0.5649414
vn -0.1287842 -0.8149414 0.5649414
vn -0.102478 -0.887207 0.4494629
vn -0.1026611 -0.8867188 0.4504395
vn -0.08648682 -0.9213867 0.3793945
vn -0.08648682 -0.9213867 0.3793945
vn -0.08337402 -0.9267578 0.3657227
vn -0.08337402 -0.9267578 0.3657227
vn 0.1547852 -0.7177734 -0.6787109
vn 0.1547852 -0.7177734 -0.6787109
vn 0.1547852 -0.7177734 -0.6787109
vn 0.1547852 -0.7177734 -0.6787109
vn 0.1468506 -0.7509766 -0.644043
vn 0.1115723 -0.8647461 -0.4892578
vn 0.1115723 -0.8647461 -0.4892578
vn 0.1468506 -0.7509766 -0.644043
vn 0.1973877 -0.4599609 -0.8657227
vn 0.1973877 -0.4599609 -0.8657227
vn 0.2138672 -0.2724609 -0.9379883
vn 0.2138672 -0.2724609 -0.9379883
vn 0.2155762 -0.2453613 -0.9453125
vn 0.2155762 -0.2453613 -0.9453125
vn -1.013279E-06 1 0
vn -1.013279E-06 1 0
vn -1.013279E-06 1 0
vn -1.013279E-06 1 0
vn -0.7983398 0.5737305 -0.1820068
vn 0.7988281 0.5737305 0.1821289
vn -0.7983398 0.5737305 -0.1820068
vn 0.7988281 0.5732422 0.1818848
vn 0.9750977 -1.192093E-07 0.22229
vn 0.9750977 -3.397465E-06 0.22229
vn 0.9750977 1.013279E-06 0.22229
vn 0.9750977 0 0.2224121
vn 0.9750977 -1.841784E-05 0.22229
vn 0.9750977 1.430511E-06 0.22229
vn 0.9750977 -1.645088E-05 0.22229
vn 0.9750977 -2.509356E-05 0.22229
vn 0.9750977 5.042553E-05 0.22229
vn 0.9750977 4.172325E-07 0.22229
vn 0.9750977 4.661083E-05 0.22229
vn 0.9750977 2.861023E-06 0.22229
vn 0.6132813 -2.980232E-07 -0.7895508
vn 0.6132813 -2.980232E-07 -0.7895508
vn 0.9907227 0 0.1364746
vn 0.9907227 0 0.1364746
vn 0.3771973 3.576279E-07 0.9262695
vn 0.3771973 3.576279E-07 0.9262695
vn -0.6132813 2.384186E-07 0.7895508
vn -0.6132813 2.384186E-07 0.7895508
vn -0.9907227 0 -0.1364746
vn -0.9907227 0 -0.1364746
vn -0.3771973 -2.980232E-07 -0.9262695
vn -0.3771973 -2.980232E-07 -0.9262695
vn 0.6132813 -2.980232E-07 -0.7895508
vn 0.6132813 -2.980232E-07 -0.7895508
vn -0.2088623 0.342041 0.9160156
vn -0.2088623 0.342041 0.9160156
vn -0.2088623 0.342041 0.9160156
vn -0.2088623 0.342041 0.9160156
vn -0.2205811 -0.1243286 0.9672852
vn -0.2164307 0.2281494 0.9492188
vn -0.2164307 0.2281494 0.9492188
vn -0.2205811 -0.1243286 0.9672852
vn -0.1525879 -0.7270508 0.6694336
vn -0.1525879 -0.7270508 0.6694336
vn -0.01056671 -0.9990234 0.04632568
vn -0.01039124 -0.9990234 0.04559326
vn 0.1376953 -0.7851563 -0.6035156
vn 0.1376953 -0.7851563 -0.6035156
vn 0.1975098 -0.4589844 -0.8662109
vn 0.1975098 -0.4589844 -0.8662109
vn 0.2108154 -0.317627 -0.9243164
vn 0.2108154 -0.317627 -0.9243164
vn 0.22229 -0.009552002 -0.9750977
vn 0.22229 -0.009498596 -0.9750977
vn 0.1966553 0.4665527 -0.8623047
vn 0.1966553 0.4660645 -0.862793
vn 0.1567383 0.7094727 -0.6870117
vn 0.1567383 0.7094727 -0.6870117
vn 0.1150513 0.8554688 -0.5048828
vn 0.1182251 0.8466797 -0.5185547
vn 0.1182251 0.8466797 -0.5185547
vn 0.1150513 0.8554688 -0.5048828
vn 0.0607605 0.9619141 -0.2663574
vn 0.0607605 0.9619141 -0.2666016
vn -0.02896118 0.9916992 0.1270752
vn -0.02896118 0.9916992 0.1270752
vn -0.12854 0.815918 0.5634766
vn -0.12854 0.815918 0.5634766
vn -0.1707764 0.6401367 0.7490234
vn -0.1707764 0.6401367 0.7490234
vn -0.06695557 0.9536133 0.2939453
vn -0.0670166 0.9536133 0.2939453
vn 0.07110596 0.9472656 -0.3120117
vn 0.07110596 0.9472656 -0.3120117
vn 0.1634521 0.6782227 -0.7167969
vn 0.1634521 0.6782227 -0.7167969
vn 0.1867676 0.5424805 -0.8193359
vn 0.1867676 0.5424805 -0.8193359
vn -0.2183838 -0.1866455 0.9580078
vn -0.2183838 -0.1866455 0.9580078
vn -0.2178955 -0.197876 0.9555664
vn -0.2178955 -0.197876 0.9555664
vn -0.1998291 -0.4379883 0.8764648
vn -0.1998291 -0.4379883 0.8764648
vn -0.1409912 -0.7729492 0.6186523
vn -0.1409912 -0.7729492 0.6186523
vn -0.03326416 -0.9887695 0.145874
vn -0.03326416 -0.9887695 0.145874
vn 0.09014893 -0.9140625 -0.3955078
vn 0.09020996 -0.9140625 -0.3955078
vn 0.1724854 -0.6303711 -0.7568359
vn 0.1726074 -0.6303711 -0.7568359
vn 0.1756592 -0.612793 -0.7705078
vn 0.1756592 -0.612793 -0.7705078
vn -0.1733398 -0.6259766 0.7607422
vn -0.1733398 -0.6259766 0.7607422
vn -0.1733398 -0.6259766 0.7607422
vn -0.1733398 -0.6259766 0.7607422
vn 0.2078857 0.3544922 -0.9116211
vn 0.2078857 0.3544922 -0.9116211
vn 0.2069092 0.3652344 -0.9077148
vn 0.2069092 0.3652344 -0.9077148
vn 0.2027588 0.409668 -0.8891602
vn 0.2027588 0.409668 -0.8891602
vn 0.1800537 0.5869141 -0.7895508
vn 0.1800537 0.5869141 -0.7895508
vn 0.1081543 0.8735352 -0.4743652
vn 0.1081543 0.8735352 -0.4743652
vn -0.00687027 0.9995117 0.03012085
vn -0.006752014 0.9995117 0.02960205
vn -0.1339111 0.7983398 0.5874023
vn -0.1339111 0.7983398 0.5874023
vn -0.1929932 0.4960938 0.8466797
vn -0.1929932 0.4960938 0.8466797
vn -0.2059326 0.3764648 0.9033203
vn -0.2059326 0.3764648 0.9033203
vn -0.2041016 0.395752 0.8955078
vn -0.2041016 0.395752 0.8955078
vn -0.1837158 0.5629883 0.8056641
vn -0.1837158 0.5629883 0.8056641
vn -0.1312256 0.8071289 0.5756836
vn -0.1312256 0.8071289 0.5756836
vn -0.06646729 0.9541016 0.2915039
vn -0.06652832 0.9541016 0.291748
vn -0.04058838 0.9833984 0.1781006
vn -0.04058838 0.9833984 0.1781006
vn 0.2009277 0.427002 -0.8818359
vn 0.3835449 0.9194336 0.08740234
vn -2.264977E-06 1 2.026558E-06
vn 0.5356445 0.3891602 -0.7495117
vn 0.9750977 -4.172325E-07 0.22229
vn 0.2010498 -0.427002 -0.8818359
vn 0.5356445 -0.3891602 -0.7495117
vn 0.9750977 -4.172325E-07 0.22229
vn 3.576279E-07 -1 -7.987022E-06
vn 0.3835449 -0.9194336 0.08740234
vn 0.9750977 -4.172325E-07 0.22229
vn -0.2010498 -0.427002 0.8818359
vn 0.157959 -0.3891602 0.9077148
vn 0.9750977 -4.172325E-07 0.22229
vn -0.2010498 0.427002 0.8818359
vn 0.157959 0.3891602 0.9077148
vn 0.9750977 -4.172325E-07 0.22229
vn -2.264977E-06 1 2.026558E-06
vn 0.3835449 0.9194336 0.08740234
vn 0.9750977 -4.172325E-07 0.22229
vn -0.9750977 0 -0.22229
vn -0.9750977 -1.66893E-06 -0.22229
vn -0.9750977 -7.212162E-06 -0.22229
vn -0.9750977 1.847744E-06 -0.22229
vn -0.9750977 1.370907E-06 -0.22229
vn -0.9750977 8.34465E-07 -0.22229
vn -0.9750977 1.132488E-06 -0.22229
vn -0.9750977 -1.370907E-06 -0.22229
vn -0.9750977 0 -0.22229
vn -0.9750977 2.026558E-06 -0.22229
vn -0.9750977 5.960464E-07 -0.22229
vn -0.9750977 1.788139E-07 -0.22229
vn -0.9750977 -2.980232E-07 -0.22229
vn -0.9750977 -6.556511E-07 -0.22229
vn -0.9750977 -9.536743E-07 -0.22229
vn -0.9750977 -1.013279E-06 -0.22229
vn -0.9750977 2.980232E-07 -0.22229
vn -0.9750977 -1.013279E-06 -0.22229
vn -0.9750977 0 -0.22229
vn -0.9750977 1.788139E-07 -0.22229
vn -0.9750977 6.616116E-06 -0.22229
vn -0.9750977 1.072884E-06 -0.22229
vn -0.9750977 9.23872E-06 -0.22229
vn -0.9750977 4.768372E-07 -0.22229
vn -0.9750977 1.549721E-06 -0.22229
vn -0.9750977 7.748604E-07 -0.22229
vn -0.9750977 -2.980232E-07 -0.22229
vn -0.9750977 1.609325E-06 -0.22229
vn -0.9750977 5.364418E-07 -0.22229
vn -0.9750977 7.748604E-07 -0.22229
vn -0.9750977 8.940697E-07 -0.22229
vn -0.9750977 -1.788139E-07 -0.22229
vn -0.9750977 7.748604E-07 -0.22229
vn -0.9750977 5.364418E-07 -0.22229
vn -0.9750977 -2.980232E-07 -0.22229
vn -0.9750977 -4.768372E-07 -0.22229
vn -0.9750977 -4.768372E-07 -0.22229
vn -0.9750977 0 -0.22229
vn -0.9750977 -1.788139E-07 -0.22229
vn -0.9750977 3.695488E-06 -0.22229
vn -0.9750977 -5.364418E-07 -0.22229
vn -0.9750977 1.549721E-06 -0.22229
vn -0.9750977 1.847744E-06 -0.22229
vn -0.9750977 -5.364418E-07 -0.22229
vn -0.9750977 -2.384186E-07 -0.22229
vn -0.9750977 -2.384186E-07 -0.22229
vn -0.9750977 -1.490116E-06 -0.22229
vn -0.03939819 0.984375 0.1729736
vn 4.708767E-06 1 -1.949072E-05
vn 4.172325E-06 1 -1.960993E-05
vn -0.03955078 0.9838867 0.1734619
vn -0.1331787 0.8007813 0.5839844
vn -0.1331787 0.8007813 0.5839844
vn -0.164917 0.6708984 0.7231445
vn -0.164917 0.6708984 0.7231445
vn -0.222168 -0.02610779 0.9746094
vn -0.22229 -0.02610779 0.9746094
vn -0.2108154 -0.3171387 0.9248047
vn -0.2108154 -0.3171387 0.9248047
vn 0.9750977 3.039837E-06 0.22229
vn 0.9750977 9.536743E-07 0.22229
vn 0.9750977 1.609325E-05 0.22229
vn 0.9750977 -4.172325E-07 0.22229
vn 0.9750977 -2.503395E-06 0.22229
vn 0.9750977 -4.768372E-07 0.22229
vn 0.9750977 -1.490116E-06 0.22229
vn 0.9750977 8.940697E-07 0.22229
vn 0.9750977 1.788139E-07 0.22229
vn 0.9750977 1.192093E-07 0.22229
vn 0.9750977 2.384186E-07 0.22229
vn 0.9750977 8.34465E-07 0.22229
vn 0.9750977 8.940697E-06 0.22229
vn 0.9750977 3.397465E-06 0.22229
vn 0.9750977 -1.66893E-06 0.22229
vn 0.9750977 3.808737E-05 0.22229
vn 0.9750977 2.759695E-05 0.22229
vn 0.9750977 -1.013279E-06 0.22229
vn 0.9750977 -7.152557E-07 0.22229
vn 0.9750977 -3.278255E-06 0.22229
vn 0.9750977 -6.556511E-07 0.22229
vn 0.9750977 -3.576279E-07 0.22229
vn 0.9750977 0 0.22229
vn 0.9750977 1.192093E-07 0.22229
vn 0.9750977 0 0.22229
vn 0.9750977 -1.192093E-06 0.22229
vn 0.9750977 -8.34465E-07 0.22229
vn 0.9750977 -1.966953E-06 0.22229
vn 0.9750977 -1.609325E-06 0.22229
vn 0.9750977 -1.907349E-06 0.22229
vn 0.9750977 0 0.22229
vn 0.9750977 1.609325E-06 0.22229
vn 0.9750977 -2.384186E-07 0.22229
vn 0.9750977 3.278255E-06 0.22229
vn 0.9750977 -4.172325E-07 0.22229
vn 0.9750977 -5.364418E-07 0.22229
vn 0.9750977 -1.430511E-06 0.22229
vn 0.9750977 7.152557E-07 0.22229
vn 0.9750977 7.152557E-07 0.22229
vn 0.9750977 -1.430511E-06 0.22229
vn 0.9750977 -3.159046E-06 0.22229
vn 0.9750977 -3.516674E-06 0.22229
vn 0.9750977 -7.033348E-06 0.22229
vn 0.9750977 7.152557E-07 0.22229
vn 0.9750977 -8.940697E-07 0.22229
vn 0.9750977 0 0.22229
vn 0.9750977 9.536743E-06 0.22229
vn -0.06567383 0.9555664 0.2878418
vn -0.1144409 0.8574219 0.5019531
vn -0.1144409 0.8574219 0.5019531
vn -0.06567383 0.9555664 0.2878418
vn 0.02636719 0.9931641 -0.1156006
vn 0.02639771 0.9931641 -0.1157837
vn -0.1157837 0.8535156 0.5078125
vn -0.1157227 0.8535156 0.5078125
vn -0.2178955 0.1975098 0.9555664
vn -0.2178955 0.1975098 0.9555664
vn -0.2026367 -0.4108887 0.8886719
vn -0.2026367 -0.4108887 0.8886719
vn -0.06860352 -0.9511719 0.3007813
vn -0.06860352 -0.9511719 0.3007813
vn 0.06427002 -0.9570313 -0.2819824
vn 0.06427002 -0.9570313 -0.2819824
vn 0.2008057 -0.4294434 -0.8803711
vn 0.2008057 -0.4294434 -0.8803711
vn 0.1907959 -0.5136719 -0.8364258
vn 0.1907959 -0.5136719 -0.8364258
vn 0.09875488 -0.8959961 -0.4331055
vn 0.09875488 -0.8959961 -0.4331055
vn 0.1706543 -0.6411133 -0.7485352
vn 0.1706543 -0.6411133 -0.7485352
vn 0.2076416 -0.3564453 -0.9111328
vn 0.2077637 -0.3564453 -0.9111328
vn 0.21521 -0.25 -0.9438477
vn 0.21521 -0.25 -0.9438477
vn -0.09655762 -0.9008789 0.423584
vn -0.006481171 -0.9995117 0.02842712
vn -0.09655762 -0.9008789 0.423584
vn -0.006404877 -0.9995117 0.02809143
vn 0.1727295 -0.6298828 -0.7573242
vn 0.1726074 -0.6298828 -0.7573242
vn 0.2216797 -0.07385254 -0.972168
vn 0.2216797 -0.07391357 -0.972168
vn 0.2180176 0.1965332 -0.9560547
vn 0.2178955 0.1968994 -0.9560547
vn 0.2164307 0.2279053 -0.9492188
vn 0.2164307 0.2279053 -0.9492188
vn 0.177002 0.6049805 -0.7763672
vn 0.177002 0.6049805 -0.7763672
vn 0.07403564 0.9428711 -0.3244629
vn 0.07397461 0.9428711 -0.3244629
vn -0.05856323 0.9648438 0.2568359
vn -0.05859375 0.9648438 0.2568359
vn -0.1427002 0.7666016 0.6259766
vn -0.1428223 0.7666016 0.6259766
vn -0.1661377 0.6645508 0.7285156
vn -0.1662598 0.6640625 0.7290039
vn -0.1761475 0.6103516 0.7724609
vn -0.1761475 0.6103516 0.7724609
vn -0.1794434 0.5898438 0.7871094
vn -0.1794434 0.5898438 0.7871094
vn -0.9750977 -2.980232E-07 -0.22229
vn -0.9750977 2.44379E-06 -0.22229
vn -0.9750977 6.079674E-06 -0.22229
vn -0.9750977 -3.814697E-06 -0.22229
vn -0.9750977 -2.145767E-06 -0.22229
vn -0.9750977 -1.788139E-06 -0.22229
vn -0.9750977 -7.152557E-07 -0.22229
vn -0.9750977 6.496906E-06 -0.22229
vn -0.9750977 -5.424023E-06 -0.22229
vn -0.9750977 -7.867813E-06 -0.22229
vn -0.9750977 -9.536743E-07 -0.22229
vn -0.9750977 4.172325E-06 -0.22229
vn -0.9750977 -7.748604E-07 -0.22229
vn -0.9750977 -5.960464E-07 -0.22229
vn -0.9750977 7.748604E-07 -0.22229
vn -0.9750977 4.172325E-07 -0.22229
vn -0.9750977 0 -0.22229
vn -0.9750977 8.940697E-07 -0.22229
vn -0.9750977 5.960464E-07 -0.22229
vn -0.9750977 1.251698E-06 -0.22229
vn -0.9750977 2.205372E-06 -0.22229
vn -0.9750977 1.609325E-06 -0.22229
vn -0.9750977 2.44379E-06 -0.22229
vn -0.9750977 1.490116E-06 -0.22229
vn -0.9750977 2.026558E-06 -0.22229
vn -0.9750977 -5.364418E-07 -0.22229
vn -0.9750977 -6.556511E-07 -0.22229
vn -0.9750977 -2.384186E-07 -0.22229
vn 0.9750977 6.556511E-07 0.22229
vn 0.9750977 1.013279E-06 0.22229
vn 0.9750977 -5.364418E-07 0.22229
vn 0.9750977 8.940697E-07 0.22229
vn 0.9750977 7.152557E-07 0.22229
vn 0.9750977 6.556511E-07 0.22229
vn 0.9750977 1.192093E-06 0.22229
vn 0.9750977 8.940697E-07 0.22229
vn 0.9750977 4.768372E-07 0.22229
vn 0.9750977 -6.556511E-07 0.22229
vn 0.9750977 -1.192093E-07 0.22229
vn 0.9750977 1.192093E-06 0.22229
vn 0.9750977 7.748604E-07 0.22229
vn 0.9750977 9.536743E-07 0.22229
vn 0.9750977 -1.609325E-06 0.22229
vn 0.9750977 -1.788139E-06 0.22229
vn 0.9750977 6.556511E-07 0.22229
vn 0.9750977 9.536743E-07 0.22229
vn 0.9750977 5.424023E-06 0.22229
vn 0.9750977 7.748604E-07 0.22229
vn 0.9750977 1.430511E-06 0.22229
vn 0.9750977 -4.172325E-07 0.22229
vn 0.9750977 8.940697E-07 0.22229
vn 0.9750977 1.072884E-06 0.22229
vn 0.9750977 -4.827976E-06 0.22229
vn 0.9750977 -6.377697E-06 0.22229
vn 0.9750977 -9.655952E-06 0.22229
vn 0.9750977 -1.734495E-05 0.22229
vn -0.1262207 -1.955032E-05 -0.9921875
vn -0.1262207 -8.940697E-06 -0.9921875
vn -0.1516113 -0.3979492 -0.9047852
vn -0.1499023 -0.3823242 -0.9116211
vn -0.2374268 -0.8178711 -0.5239258
vn -0.2346191 -0.8105469 -0.5366211
vn -0.300293 -0.9199219 -0.251709
vn -0.2990723 -0.9189453 -0.2573242
vn -0.3669434 -0.9287109 0.04888916
vn -0.3676758 -0.9287109 0.05178833
vn -0.480957 -0.6855469 0.5463867
vn -0.4836426 -0.6743164 0.5581055
vn -0.5385742 -0.2641602 0.800293
vn -0.5390625 -0.255127 0.8027344
vn -0.5297852 0.001404762 0.8481445
vn -0.5244141 0.002887726 0.8515625
vn -0.1821289 -0.5737305 0.7988281
vn -0.1821289 -0.5737305 0.7988281
vn -0.1821289 -0.5737305 0.7988281
vn -0.1821289 -0.5737305 0.7988281
vn -0.1821289 -0.5737305 0.7988281
vn -0.1821289 -0.5737305 0.7988281
vn 0.189209 0.5244141 -0.8300781
vn 0.189209 0.5244141 -0.8300781
vn 0.189209 0.5244141 -0.8300781
vn 0.189209 0.5244141 -0.8300781
vn -0.189209 -0.5244141 0.8300781
vn -0.1893311 -0.5244141 0.8300781
vn -0.1893311 -0.5244141 0.8300781
vn -0.189209 -0.5244141 0.8300781
vn -0.006343842 0.9995117 0.02781677
vn -0.006343842 0.9995117 0.02781677
vn -0.006343842 0.9995117 0.02781677
vn -0.006343842 0.9995117 0.02781677
vn -0.1925049 0.5 0.8442383
vn -0.1925049 0.5 0.8442383
vn -0.1925049 0.5 0.8442383
vn -0.1925049 0.5 0.8442383
vn 0.1925049 0.5 -0.8442383
vn 0.1925049 0.5 -0.8442383
vn 0.1925049 0.5 -0.8442383
vn 0.1925049 0.5 -0.8442383
vn 0.1925049 -0.5 -0.8442383
vn 0.1925049 -0.5 -0.8442383
vn 0.1925049 -0.5 -0.8442383
vn 0.1925049 -0.5 -0.8442383
vn -0.1925049 -0.5 0.8442383
vn -0.1925049 -0.5 0.8442383
vn -0.1925049 -0.5 0.8442383
vn -0.1925049 -0.5 0.8442383
vn -0.9750977 -4.291534E-06 -0.22229
vn -0.9750977 -1.370907E-06 -0.22229
vn -0.9750977 -2.0504E-05 -0.22229
vn -0.7983398 0.5737305 -0.1820068
vn -0.7983398 0.5737305 -0.1820068
vn -0.9750977 2.264977E-06 -0.22229
vn -0.9750977 1.424551E-05 -0.22229
vn -0.9750977 9.834766E-06 -0.22229
vn -0.9750977 -4.708767E-06 -0.22229
vn -0.9750977 1.072884E-06 -0.22229
vn -0.9750977 0 -0.22229
vn -0.9750977 -8.34465E-07 -0.22229
vn -0.9750977 9.119511E-06 -0.22229
vn -0.9750977 -1.472235E-05 -0.22229
vn -0.001229286 -1 0.005386353
vn -0.001229286 -1 0.005386353
vn -0.001229286 -1 0.005386353
vn -0.001229286 -1 0.005386353
vn 0 -1 0
vn 0 -1 0
vn 0 -1 0
vn 0 -1 0
vn -0.149292 -0.7407227 0.6547852
vn -0.149292 -0.7407227 0.6547852
vn -0.149292 -0.7407227 0.6547852
vn -0.149292 -0.7407227 0.6547852
vn -0.9750977 -6.556511E-07 -0.22229
vn -0.9750977 -1.192093E-06 -0.22229
vn -0.9750977 -3.159046E-06 -0.22229
vn -0.9750977 4.768372E-07 -0.22229
vn -0.9750977 5.364418E-07 -0.22229
vn -0.9750977 5.960464E-07 -0.22229
vn -0.9750977 9.536743E-07 -0.22229
vn -0.9750977 5.364418E-07 -0.22229
vn -0.9750977 1.072884E-06 -0.22229
vn -0.9750977 2.980232E-07 -0.22229
vn -0.9750977 4.768372E-07 -0.22229
vn -0.9750977 1.788139E-07 -0.22229
vn -0.9750977 1.788139E-07 -0.22229
vn -0.9750977 1.132488E-06 -0.22229
vn -0.9750977 1.013279E-06 -0.22229
vn -0.9750977 1.311302E-06 -0.22229
vn -0.9750977 2.205372E-06 -0.22229
vn 0.9750977 0 0.22229
vn 0.9750977 8.940697E-07 0.22229
vn 0.9750977 1.609325E-06 0.22229
vn 0.9750977 2.980232E-07 0.22229
vn 0.9750977 -1.192093E-07 0.22229
vn 0.9750977 -4.172325E-07 0.22229
vn 0.9750977 4.172325E-07 0.22229
vn 0.9750977 2.980232E-07 0.22229
vn 0.9750977 1.132488E-06 0.22229
vn 0.9750977 7.152557E-07 0.22229
vn 0.9750977 1.192093E-06 0.22229
vn 0.9750977 6.556511E-07 0.22229
vn 0.9750977 0 0.22229
vn 0.9750977 0 0.22229
vn 0.9750977 -1.251698E-06 0.22229
vn 0.9750977 -1.847744E-06 0.22229
vn 0.9750977 -3.993511E-06 0.22229
vn -0.9433594 1.966953E-06 -0.3320313
vn -0.605957 -0.392334 0.6918945
vn -0.3681641 -0.918457 -0.1431885
vn 0.01073456 -0.9995117 -0.03656006
vn -0.2524414 -0.4438477 0.8598633
vn -0.605957 0.392334 0.6918945
vn -0.9433594 1.966953E-06 -0.3320313
vn -0.2524414 0.4438477 0.8598633
vn -0.3681641 0.918457 -0.1431885
vn -0.9433594 1.966953E-06 -0.3320313
vn 0.0107193 0.9995117 -0.03649902
vn -0.07348633 0.3869629 -0.9189453
vn -0.9433594 1.966953E-06 -0.3320313
vn 0.2568359 0.4101563 -0.875
vn -0.07348633 -0.3869629 -0.9189453
vn -0.9433594 1.966953E-06 -0.3320313
vn 0.2570801 -0.4101563 -0.875
vn -0.3681641 -0.918457 -0.1431885
vn 0.01073456 -0.9995117 -0.03656006
vn -0.9433594 1.966953E-06 -0.3320313
g horse_1_0
f 3/3/3 2/2/2 1/1/1
f 6/6/6 5/5/5 4/4/4
f 9/9/9 8/8/8 7/7/7
f 12/12/12 11/11/11 10/10/10
f 15/15/15 14/14/14 13/13/13
f 18/18/18 17/17/17 16/16/16
f 21/21/21 20/20/20 19/19/19
f 22/22/22 21/21/21 19/19/19
f 23/23/23 21/21/21 22/22/22
f 24/24/24 23/23/23 22/22/22
f 25/25/25 23/23/23 24/24/24
f 26/26/26 25/25/25 24/24/24
f 27/27/27 25/25/25 26/26/26
f 28/28/28 27/27/27 26/26/26
f 29/29/29 27/27/27 28/28/28
f 30/30/30 29/29/29 28/28/28
f 31/31/31 29/29/29 30/30/30
f 32/32/32 31/31/31 30/30/30
f 33/33/33 31/31/31 32/32/32
f 34/34/34 33/33/33 32/32/32
f 33/33/33 34/34/34 35/35/35
f 36/36/36 35/35/35 34/34/34
f 35/35/35 36/36/36 37/37/37
f 36/36/36 38/38/38 37/37/37
f 38/38/38 39/39/39 37/37/37
f 39/39/39 40/40/40 37/37/37
f 40/40/40 39/39/39 41/41/41
f 39/39/39 42/42/42 41/41/41
f 41/41/41 42/42/42 43/43/43
f 42/42/42 44/44/44 43/43/43
f 44/44/44 45/45/45 43/43/43
f 45/45/45 46/46/46 43/43/43
f 45/45/45 47/47/47 46/46/46
f 47/47/47 48/48/48 46/46/46
f 48/48/48 47/47/47 49/49/49
f 47/47/47 50/50/50 49/49/49
f 53/53/53 52/52/52 51/51/51
f 52/52/52 54/54/54 51/51/51
f 51/51/51 54/54/54 55/55/55
f 54/54/54 56/56/56 55/55/55
f 55/55/55 56/56/56 57/57/57
f 56/56/56 58/58/58 57/57/57
f 57/57/57 58/58/58 59/59/59
f 58/58/58 60/60/60 59/59/59
f 59/59/59 60/60/60 61/61/61
f 60/60/60 62/62/62 61/61/61
f 62/62/62 63/63/63 61/61/61
f 63/63/63 64/64/64 61/61/61
f 64/64/64 63/63/63 65/65/65
f 63/63/63 66/66/66 65/65/65
f 69/69/69 68/68/68 67/67/67
f 68/68/68 70/70/70 67/67/67
f 67/67/67 70/70/70 71/71/71
f 70/70/70 72/72/72 71/71/71
f 71/71/71 72/72/72 73/73/73
f 72/72/72 74/74/74 73/73/73
f 73/73/73 74/74/74 75/75/75
f 74/74/74 76/76/76 75/75/75
f 75/75/75 76/76/76 77/77/77
f 76/76/76 78/78/78 77/77/77
f 77/77/77 78/78/78 79/79/79
f 78/78/78 80/80/80 79/79/79
f 79/79/79 80/80/80 81/81/81
f 80/80/80 82/82/82 81/81/81
f 85/85/85 84/84/84 83/83/83
f 86/86/86 85/85/85 83/83/83
f 87/87/87 85/85/85 86/86/86
f 88/88/88 87/87/87 86/86/86
f 89/89/89 87/87/87 88/88/88
f 90/90/90 89/89/89 88/88/88
f 91/91/91 89/89/89 90/90/90
f 92/92/92 91/91/91 90/90/90
f 93/93/93 91/91/91 92/92/92
f 94/94/94 93/93/93 92/92/92
f 95/95/95 93/93/93 94/94/94
f 96/96/96 95/95/95 94/94/94
f 97/97/97 95/95/95 96/96/96
f 98/98/98 97/97/97 96/96/96
f 101/101/101 100/100/100 99/99/99
f 102/102/102 101/101/101 99/99/99
f 103/103/103 101/101/101 102/102/102
f 104/104/104 103/103/103 102/102/102
f 105/105/105 103/103/103 104/104/104
f 106/106/106 105/105/105 104/104/104
f 107/107/107 105/105/105 106/106/106
f 108/108/108 107/107/107 106/106/106
f 107/107/107 108/108/108 109/109/109
f 110/110/110 107/107/107 109/109/109
f 111/111/111 110/110/110 109/109/109
f 112/112/112 111/111/111 109/109/109
f 113/113/113 111/111/111 112/112/112
f 114/114/114 113/113/113 112/112/112
f 117/117/117 116/116/116 115/115/115
f 118/118/118 117/117/117 115/115/115
f 117/117/117 118/118/118 119/119/119
f 118/118/118 120/120/120 119/119/119
f 119/119/119 120/120/120 121/121/121
f 120/120/120 122/122/122 121/121/121
f 122/122/122 123/123/123 121/121/121
f 123/123/123 124/124/124 121/121/121
f 124/124/124 123/123/123 125/125/125
f 123/123/123 126/126/126 125/125/125
f 125/125/125 126/126/126 127/127/127
f 126/126/126 128/128/128 127/127/127
f 127/127/127 128/128/128 129/129/129
f 128/128/128 130/130/130 129/129/129
f 129/129/129 130/130/130 131/131/131
f 132/132/132 131/131/131 130/130/130
f 131/131/131 132/132/132 133/133/133
f 132/132/132 134/134/134 133/133/133
f 133/133/133 134/134/134 135/135/135
f 134/134/134 136/136/136 135/135/135
f 135/135/135 136/136/136 137/137/137
f 136/136/136 138/138/138 137/137/137
f 137/137/137 138/138/138 139/139/139
f 138/138/138 140/140/140 139/139/139
f 139/139/139 140/140/140 141/141/141
f 140/140/140 142/142/142 141/141/141
f 141/141/141 142/142/142 143/143/143
f 142/142/142 144/144/144 143/143/143
f 143/143/143 144/144/144 145/145/145
f 144/144/144 146/146/146 145/145/145
f 149/149/149 148/148/148 147/147/147
f 150/150/150 149/149/149 147/147/147
f 149/149/149 150/150/150 151/151/151
f 150/150/150 152/152/152 151/151/151
f 151/151/151 152/152/152 153/153/153
f 152/152/152 154/154/154 153/153/153
f 153/153/153 154/154/154 155/155/155
f 154/154/154 156/156/156 155/155/155
f 155/155/155 156/156/156 157/157/157
f 156/156/156 158/158/158 157/157/157
f 157/157/157 158/158/158 159/159/159
f 158/158/158 160/160/160 159/159/159
f 159/159/159 160/160/160 161/161/161
f 160/160/160 162/162/162 161/161/161
f 165/165/165 164/164/164 163/163/163
f 164/164/164 166/166/166 163/163/163
f 163/163/163 166/166/166 167/167/167
f 166/166/166 168/168/168 167/167/167
f 167/167/167 168/168/168 169/169/169
f 168/168/168 170/170/170 169/169/169
f 169/169/169 170/170/170 171/171/171
f 170/170/170 172/172/172 171/171/171
f 171/171/171 172/172/172 173/173/173
f 172/172/172 174/174/174 173/173/173
f 173/173/173 174/174/174 175/175/175
f 174/174/174 176/176/176 175/175/175
f 175/175/175 176/176/176 177/177/177
f 176/176/176 178/178/178 177/177/177
f 181/181/181 180/180/180 179/179/179
f 182/182/182 181/181/181 179/179/179
f 181/181/181 182/182/182 183/183/183
f 184/184/184 181/181/181 183/183/183
f 185/185/185 184/184/184 183/183/183
f 186/186/186 185/185/185 183/183/183
f 187/187/187 185/185/185 186/186/186
f 188/188/188 187/187/187 186/186/186
f 189/189/189 187/187/187 188/188/188
f 190/190/190 189/189/189 188/188/188
f 191/191/191 189/189/189 190/190/190
f 192/192/192 191/191/191 190/190/190
f 193/193/193 191/191/191 192/192/192
f 194/194/194 193/193/193 192/192/192
f 197/197/197 196/196/196 195/195/195
f 198/198/198 197/197/197 195/195/195
f 201/201/201 200/200/200 199/199/199
f 200/200/200 202/202/202 199/199/199
f 199/199/199 202/202/202 203/203/203
f 202/202/202 204/204/204 203/203/203
f 203/203/203 204/204/204 205/205/205
f 204/204/204 206/206/206 205/205/205
f 205/205/205 206/206/206 207/207/207
f 206/206/206 208/208/208 207/207/207
f 207/207/207 208/208/208 209/209/209
f 208/208/208 210/210/210 209/209/209
f 209/209/209 210/210/210 211/211/211
f 210/210/210 212/212/212 211/211/211
f 211/211/211 212/212/212 213/213/213
f 212/212/212 214/214/214 213/213/213
f 213/213/213 214/214/214 215/215/215
f 214/214/214 216/216/216 215/215/215
f 215/215/215 216/216/216 217/217/217
f 216/216/216 218/218/218 217/217/217
f 217/217/217 218/218/218 219/219/219
f 218/218/218 220/220/220 219/219/219
f 219/219/219 220/220/220 221/221/221
f 220/220/220 222/222/222 221/221/221
f 221/221/221 222/222/222 223/223/223
f 222/222/222 224/224/224 223/223/223
f 223/223/223 224/224/224 225/225/225
f 224/224/224 226/226/226 225/225/225
f 225/225/225 226/226/226 227/227/227
f 226/226/226 228/228/228 227/227/227
f 227/227/227 228/228/228 229/229/229
f 228/228/228 230/230/230 229/229/229
f 233/233/233 232/232/232 231/231/231
f 234/234/234 233/233/233 231/231/231
f 237/237/237 236/236/236 235/235/235
f 238/238/238 237/237/237 235/235/235
f 238/238/238 235/235/235 239/239/239
f 240/240/240 238/238/238 239/239/239
f 240/240/240 239/239/239 241/241/241
f 242/242/242 240/240/240 241/241/241
f 242/242/242 241/241/241 243/243/243
f 244/244/244 242/242/242 243/243/243
f 247/247/247 246/246/246 245/245/245
f 248/248/248 247/247/247 245/245/245
f 251/251/251 250/250/250 249/249/249
f 250/250/250 252/252/252 249/249/249
f 252/252/252 250/250/250 253/253/253
f 250/250/250 254/254/254 253/253/253
f 254/254/254 250/250/250 255/255/255
f 255/255/255 250/250/250 256/256/256
f 257/257/257 254/254/254 255/255/255
f 258/258/258 253/253/253 254/254/254
f 259/259/259 258/258/258 254/254/254
f 260/260/260 259/259/259 254/254/254
f 261/261/261 258/258/258 259/259/259
f 262/262/262 253/253/253 258/258/258
f 263/263/263 262/262/262 258/258/258
f 264/264/264 253/253/253 262/262/262
f 267/267/267 266/266/266 265/265/265
f 268/268/268 267/267/267 265/265/265
f 269/269/269 267/267/267 268/268/268
f 270/270/270 269/269/269 268/268/268
f 271/271/271 269/269/269 270/270/270
f 272/272/272 271/271/271 270/270/270
f 273/273/273 271/271/271 272/272/272
f 274/274/274 273/273/273 272/272/272
f 275/275/275 273/273/273 274/274/274
f 276/276/276 275/275/275 274/274/274
f 277/277/277 275/275/275 276/276/276
f 278/278/278 277/277/277 276/276/276
f 281/281/281 280/280/280 279/279/279
f 282/282/282 281/281/281 279/279/279
f 285/285/285 284/284/284 283/283/283
f 286/286/286 285/285/285 283/283/283
f 286/286/286 283/283/283 287/287/287
f 288/288/288 286/286/286 287/287/287
f 288/288/288 287/287/287 289/289/289
f 290/290/290 288/288/288 289/289/289
f 290/290/290 289/289/289 291/291/291
f 292/292/292 290/290/290 291/291/291
f 292/292/292 291/291/291 293/293/293
f 294/294/294 292/292/292 293/293/293
f 294/294/294 293/293/293 295/295/295
f 296/296/296 294/294/294 295/295/295
f 295/295/295 297/297/297 296/296/296
f 297/297/297 298/298/298 296/296/296
f 297/297/297 299/299/299 298/298/298
f 299/299/299 300/300/300 298/298/298
f 301/301/301 300/300/300 299/299/299
f 302/302/302 301/301/301 299/299/299
f 305/305/305 304/304/304 303/303/303
f 304/304/304 306/306/306 303/303/303
f 306/306/306 307/307/307 303/303/303
f 307/307/307 308/308/308 303/303/303
f 308/308/308 307/307/307 309/309/309
f 307/307/307 310/310/310 309/309/309
f 309/309/309 310/310/310 311/311/311
f 310/310/310 312/312/312 311/311/311
f 311/311/311 312/312/312 313/313/313
f 312/312/312 314/314/314 313/313/313
f 313/313/313 314/314/314 315/315/315
f 314/314/314 316/316/316 315/315/315
f 315/315/315 316/316/316 317/317/317
f 316/316/316 318/318/318 317/317/317
f 317/317/317 318/318/318 319/319/319
f 318/318/318 320/320/320 319/319/319
f 319/319/319 320/320/320 321/321/321
f 320/320/320 322/322/322 321/321/321
f 325/325/325 324/324/324 323/323/323
f 326/326/326 325/325/325 323/323/323
f 327/327/327 325/325/325 326/326/326
f 328/328/328 327/327/327 326/326/326
f 329/329/329 327/327/327 328/328/328
f 330/330/330 329/329/329 328/328/328
f 331/331/331 329/329/329 330/330/330
f 332/332/332 331/331/331 330/330/330
f 333/333/333 331/331/331 332/332/332
f 334/334/334 333/333/333 332/332/332
f 333/333/333 334/334/334 335/335/335
f 336/336/336 333/333/333 335/335/335
f 337/337/337 336/336/336 335/335/335
f 338/338/338 337/337/337 335/335/335
f 341/341/341 340/340/340 339/339/339
f 342/342/342 341/341/341 339/339/339
f 345/345/345 344/344/344 343/343/343
f 346/346/346 345/345/345 343/343/343
f 347/347/347 345/345/345 346/346/346
f 348/348/348 347/347/347 346/346/346
f 349/349/349 347/347/347 348/348/348
f 350/350/350 349/349/349 348/348/348
f 351/351/351 349/349/349 350/350/350
f 352/352/352 351/351/351 350/350/350
f 353/353/353 351/351/351 352/352/352
f 354/354/354 353/353/353 352/352/352
f 355/355/355 353/353/353 354/354/354
f 356/356/356 355/355/355 354/354/354
f 357/357/357 355/355/355 356/356/356
f 358/358/358 357/357/357 356/356/356
f 359/359/359 357/357/357 358/358/358
f 360/360/360 359/359/359 358/358/358
f 361/361/361 359/359/359 360/360/360
f 362/362/362 361/361/361 360/360/360
f 363/363/363 361/361/361 362/362/362
f 364/364/364 363/363/363 362/362/362
f 365/365/365 363/363/363 364/364/364
f 366/366/366 365/365/365 364/364/364
f 367/367/367 365/365/365 366/366/366
f 368/368/368 367/367/367 366/366/366
f 369/369/369 367/367/367 368/368/368
f 370/370/370 369/369/369 368/368/368
f 373/373/373 372/372/372 371/371/371
f 372/372/372 374/374/374 371/371/371
f 374/374/374 372/372/372 375/375/375
f 371/371/371 374/374/374 376/376/376
f 374/374/374 377/377/377 376/376/376
f 377/377/377 374/374/374 378/378/378
f 376/376/376 377/377/377 379/379/379
f 377/377/377 380/380/380 379/379/379
f 380/380/380 377/377/377 381/381/381
f 379/379/379 380/380/380 382/382/382
f 380/380/380 383/383/383 382/382/382
f 383/383/383 380/380/380 384/384/384
f 382/382/382 383/383/383 385/385/385
f 383/383/383 386/386/386 385/385/385
f 386/386/386 383/383/383 387/387/387
f 385/385/385 386/386/386 388/388/388
f 386/386/386 389/389/389 388/388/388
f 389/389/389 386/386/386 390/390/390
f 393/393/393 392/392/392 391/391/391
f 392/392/392 394/394/394 391/391/391
f 394/394/394 395/395/395 391/391/391
f 395/395/395 396/396/396 391/391/391
f 391/391/391 396/396/396 397/397/397
f 397/397/397 396/396/396 398/398/398
f 398/398/398 396/396/396 399/399/399
f 399/399/399 396/396/396 400/400/400
f 401/401/401 400/400/400 396/396/396
f 402/402/402 401/401/401 396/396/396
f 402/402/402 403/403/403 401/401/401
f 401/401/401 403/403/403 404/404/404
f 401/401/401 404/404/404 405/405/405
f 406/406/406 405/405/405 404/404/404
f 403/403/403 407/407/407 404/404/404
f 408/408/408 406/406/406 404/404/404
f 406/406/406 408/408/408 409/409/409
f 410/410/410 409/409/409 408/408/408
f 411/411/411 407/407/407 403/403/403
f 412/412/412 410/410/410 408/408/408
f 413/413/413 411/411/411 403/403/403
f 414/414/414 413/413/413 403/403/403
f 412/412/412 415/415/415 410/410/410
f 416/416/416 414/414/414 403/403/403
f 417/417/417 416/416/416 403/403/403
f 418/418/418 416/416/416 417/417/417
f 410/410/410 415/415/415 419/419/419
f 420/420/420 416/416/416 418/418/418
f 421/421/421 420/420/420 418/418/418
f 420/420/420 421/421/421 422/422/422
f 423/423/423 410/410/410 419/419/419
f 423/423/423 424/424/424 410/410/410
f 425/425/425 410/410/410 424/424/424
f 410/410/410 425/425/425 426/426/426
f 425/425/425 427/427/427 426/426/426
f 426/426/426 427/427/427 428/428/428
f 427/427/427 429/429/429 428/428/428
f 428/428/428 429/429/429 430/430/430
f 431/431/431 420/420/420 422/422/422
f 432/432/432 431/431/431 422/422/422
f 433/433/433 432/432/432 422/422/422
f 434/434/434 433/433/433 422/422/422
f 435/435/435 434/434/434 422/422/422
f 436/436/436 435/435/435 422/422/422
f 437/437/437 436/436/436 422/422/422
f 440/440/440 439/439/439 438/438/438
f 441/441/441 440/440/440 438/438/438
f 441/441/441 438/438/438 442/442/442
f 443/443/443 441/441/441 442/442/442
f 443/443/443 442/442/442 444/444/444
f 445/445/445 443/443/443 444/444/444
f 445/445/445 444/444/444 446/446/446
f 447/447/447 445/445/445 446/446/446
f 447/447/447 446/446/446 448/448/448
f 449/449/449 447/447/447 448/448/448
f 452/452/452 451/451/451 450/450/450
f 450/450/450 451/451/451 453/453/453
f 454/454/454 453/453/453 451/451/451
f 455/455/455 454/454/454 451/451/451
f 454/454/454 455/455/455 456/456/456
f 456/456/456 455/455/455 457/457/457
f 457/457/457 455/455/455 458/458/458
f 459/459/459 458/458/458 455/455/455
f 460/460/460 459/459/459 455/455/455
f 460/460/460 461/461/461 459/459/459
f 461/461/461 462/462/462 459/459/459
f 462/462/462 463/463/463 459/459/459
f 459/459/459 463/463/463 464/464/464
f 464/464/464 463/463/463 465/465/465
f 465/465/465 463/463/463 466/466/466
f 466/466/466 463/463/463 467/467/467
f 463/463/463 468/468/468 467/467/467
f 469/469/469 468/468/468 463/463/463
f 468/468/468 470/470/470 467/467/467
f 468/468/468 469/469/469 471/471/471
f 468/468/468 472/472/472 470/470/470
f 470/470/470 472/472/472 473/473/473
f 472/472/472 474/474/474 473/473/473
f 475/475/475 473/473/473 474/474/474
f 476/476/476 475/475/475 474/474/474
f 475/475/475 476/476/476 477/477/477
f 476/476/476 478/478/478 477/477/477
f 479/479/479 468/468/468 471/471/471
f 477/477/477 478/478/478 480/480/480
f 481/481/481 479/479/479 471/471/471
f 480/480/480 478/478/478 482/482/482
f 483/483/483 481/481/481 471/471/471
f 484/484/484 483/483/483 471/471/471
f 482/482/482 478/478/478 485/485/485
f 486/486/486 484/484/484 471/471/471
f 485/485/485 478/478/478 487/487/487
f 487/487/487 478/478/478 488/488/488
f 489/489/489 486/486/486 471/471/471
f 490/490/490 486/486/486 489/489/489
f 491/491/491 486/486/486 490/490/490
f 492/492/492 486/486/486 491/491/491
f 493/493/493 488/488/488 478/478/478
f 494/494/494 493/493/493 478/478/478
f 494/494/494 495/495/495 493/493/493
f 493/493/493 495/495/495 496/496/496
f 499/499/499 498/498/498 497/497/497
f 500/500/500 499/499/499 497/497/497
f 500/500/500 497/497/497 501/501/501
f 502/502/502 500/500/500 501/501/501
f 502/502/502 501/501/501 503/503/503
f 504/504/504 502/502/502 503/503/503
f 504/504/504 503/503/503 505/505/505
f 503/503/503 506/506/506 505/505/505
f 505/505/505 506/506/506 507/507/507
f 508/508/508 505/505/505 507/507/507
f 508/508/508 507/507/507 509/509/509
f 510/510/510 508/508/508 509/509/509
f 510/510/510 509/509/509 511/511/511
f 512/512/512 510/510/510 511/511/511
f 512/512/512 511/511/511 513/513/513
f 514/514/514 512/512/512 513/513/513
f 514/514/514 513/513/513 515/515/515
f 516/516/516 514/514/514 515/515/515
f 516/516/516 515/515/515 517/517/517
f 518/518/518 516/516/516 517/517/517
f 518/518/518 517/517/517 519/519/519
f 520/520/520 518/518/518 519/519/519
f 520/520/520 519/519/519 521/521/521
f 522/522/522 520/520/520 521/521/521
f 522/522/522 521/521/521 523/523/523
f 524/524/524 522/522/522 523/523/523
f 527/527/527 526/526/526 525/525/525
f 526/526/526 528/528/528 525/525/525
f 526/526/526 529/529/529 528/528/528
f 529/529/529 530/530/530 528/528/528
f 529/529/529 531/531/531 530/530/530
f 531/531/531 532/532/532 530/530/530
f 531/531/531 533/533/533 532/532/532
f 533/533/533 534/534/534 532/532/532
f 533/533/533 535/535/535 534/534/534
f 535/535/535 536/536/536 534/534/534
f 535/535/535 537/537/537 536/536/536
f 537/537/537 538/538/538 536/536/536
f 537/537/537 539/539/539 538/538/538
f 539/539/539 540/540/540 538/538/538
f 539/539/539 541/541/541 540/540/540
f 541/541/541 542/542/542 540/540/540
f 541/541/541 543/543/543 542/542/542
f 543/543/543 544/544/544 542/542/542
f 544/544/544 543/543/543 545/545/545
f 543/543/543 546/546/546 545/545/545
f 546/546/546 547/547/547 545/545/545
f 547/547/547 548/548/548 545/545/545
f 547/547/547 549/549/549 548/548/548
f 549/549/549 550/550/550 548/548/548
f 553/553/553 552/552/552 551/551/551
f 552/552/552 554/554/554 551/551/551
f 551/551/551 554/554/554 555/555/555
f 554/554/554 556/556/556 555/555/555
f 556/556/556 557/557/557 555/555/555
f 555/555/555 557/557/557 558/558/558
f 559/559/559 557/557/557 556/556/556
f 560/560/560 559/559/559 556/556/556
f 557/557/557 561/561/561 558/558/558
f 558/558/558 561/561/561 562/562/562
f 563/563/563 562/562/562 561/561/561
f 564/564/564 563/563/563 561/561/561
f 565/565/565 563/563/563 564/564/564
f 566/566/566 565/565/565 564/564/564
f 566/566/566 567/567/567 565/565/565
f 568/568/568 565/565/565 567/567/567
f 569/569/569 568/568/568 567/567/567
f 569/569/569 570/570/570 568/568/568
f 568/568/568 570/570/570 571/571/571
f 570/570/570 572/572/572 571/571/571
f 572/572/572 573/573/573 571/571/571
f 571/571/571 573/573/573 574/574/574
f 573/573/573 575/575/575 574/574/574
f 574/574/574 575/575/575 576/576/576
f 575/575/575 577/577/577 576/576/576
f 577/577/577 578/578/578 576/576/576
f 581/581/581 580/580/580 579/579/579
f 582/582/582 579/579/579 580/580/580
f 583/583/583 582/582/582 580/580/580
f 584/584/584 582/582/582 583/583/583
f 585/585/585 584/584/584 583/583/583
f 586/586/586 584/584/584 585/585/585
f 587/587/587 584/584/584 586/586/586
f 588/588/588 587/587/587 586/586/586
f 589/589/589 587/587/587 588/588/588
f 587/587/587 589/589/589 590/590/590
f 591/591/591 587/587/587 590/590/590
f 592/592/592 591/591/591 590/590/590
f 591/591/591 592/592/592 593/593/593
f 594/594/594 591/591/591 593/593/593
f 594/594/594 593/593/593 595/595/595
f 596/596/596 594/594/594 595/595/595
f 597/597/597 596/596/596 595/595/595
f 598/598/598 597/597/597 595/595/595
f 599/599/599 598/598/598 595/595/595
f 600/600/600 598/598/598 599/599/599
f 601/601/601 600/600/600 599/599/599
f 602/602/602 600/600/600 601/601/601
f 603/603/603 598/598/598 600/600/600
f 604/604/604 598/598/598 603/603/603
f 605/605/605 604/604/604 603/603/603
f 606/606/606 604/604/604 605/605/605
f 609/609/609 608/608/608 607/607/607
f 610/610/610 609/609/609 607/607/607
f 611/611/611 609/609/609 610/610/610
f 612/612/612 611/611/611 610/610/610
f 613/613/613 611/611/611 612/612/612
f 614/614/614 613/613/613 612/612/612
f 615/615/615 613/613/613 614/614/614
f 616/616/616 615/615/615 614/614/614
f 617/617/617 615/615/615 616/616/616
f 618/618/618 617/617/617 616/616/616
f 619/619/619 617/617/617 618/618/618
f 620/620/620 619/619/619 618/618/618
f 621/621/621 619/619/619 620/620/620
f 622/622/622 621/621/621 620/620/620
f 625/625/625 624/624/624 623/623/623
f 624/624/624 626/626/626 623/623/623
f 623/623/623 626/626/626 627/627/627
f 628/628/628 626/626/626 624/624/624
f 631/631/631 630/630/630 629/629/629
f 632/632/632 629/629/629 630/630/630
f 635/635/635 634/634/634 633/633/633
f 636/636/636 633/633/633 634/634/634
f 639/639/639 638/638/638 637/637/637
f 640/640/640 639/639/639 637/637/637
f 643/643/643 642/642/642 641/641/641
f 644/644/644 641/641/641 642/642/642
f 647/647/647 646/646/646 645/645/645
f 648/648/648 645/645/645 646/646/646
f 651/651/651 650/650/650 649/649/649
f 652/652/652 649/649/649 650/650/650
f 655/655/655 654/654/654 653/653/653
f 656/656/656 653/653/653 654/654/654
f 659/659/659 658/658/658 657/657/657
f 658/658/658 660/660/660 657/657/657
f 657/657/657 660/660/660 661/661/661
f 662/662/662 660/660/660 658/658/658
f 663/663/663 662/662/662 658/658/658
f 664/664/664 663/663/663 658/658/658
f 665/665/665 662/662/662 663/663/663
f 666/666/666 660/660/660 662/662/662
f 667/667/667 660/660/660 666/666/666
f 668/668/668 666/666/666 662/662/662
f 669/669/669 668/668/668 662/662/662
f 670/670/670 666/666/666 668/668/668
f 673/673/673 672/672/672 671/671/671
f 674/674/674 673/673/673 671/671/671
f 677/677/677 676/676/676 675/675/675
f 678/678/678 677/677/677 675/675/675
f 681/681/681 680/680/680 679/679/679
f 682/682/682 681/681/681 679/679/679
f 685/685/685 684/684/684 683/683/683
f 684/684/684 686/686/686 683/683/683
f 686/686/686 687/687/687 683/683/683
f 687/687/687 686/686/686 688/688/688
f 686/686/686 689/689/689 688/688/688
f 688/688/688 689/689/689 690/690/690
f 690/690/690 689/689/689 691/691/691
f 691/691/691 689/689/689 692/692/692
f 689/689/689 693/693/693 692/692/692
f 692/692/692 693/693/693 694/694/694
f 695/695/695 692/692/692 694/694/694
f 695/695/695 694/694/694 696/696/696
f 696/696/696 697/697/697 695/695/695
f 697/697/697 698/698/698 695/695/695
f 698/698/698 699/699/699 695/695/695
f 702/702/702 701/701/701 700/700/700
f 701/701/701 703/703/703 700/700/700
f 703/703/703 704/704/704 700/700/700
f 705/705/705 700/700/700 704/704/704
f 705/705/705 706/706/706 700/700/700
f 706/706/706 707/707/707 700/700/700
f 707/707/707 706/706/706 708/708/708
f 706/706/706 709/709/709 708/708/708
f 710/710/710 708/708/708 709/709/709
f 711/711/711 710/710/710 709/709/709
f 712/712/712 711/711/711 709/709/709
f 713/713/713 712/712/712 709/709/709
f 714/714/714 712/712/712 713/713/713
f 715/715/715 714/714/714 713/713/713
f 716/716/716 714/714/714 715/715/715
f 719/719/719 718/718/718 717/717/717
f 718/718/718 719/719/719 720/720/720
f 721/721/721 718/718/718 720/720/720
f 722/722/722 718/718/718 721/721/721
f 718/718/718 722/722/722 723/723/723
f 724/724/724 722/722/722 721/721/721
f 725/725/725 722/722/722 724/724/724
f 722/722/722 725/725/725 726/726/726
f 727/727/727 725/725/725 724/724/724
f 728/728/728 725/725/725 727/727/727
f 725/725/725 728/728/728 729/729/729
f 730/730/730 728/728/728 727/727/727
f 731/731/731 728/728/728 730/730/730
f 728/728/728 731/731/731 732/732/732
f 733/733/733 731/731/731 730/730/730
f 734/734/734 731/731/731 733/733/733
f 735/735/735 734/734/734 733/733/733
f 731/731/731 734/734/734 736/736/736
