g Lamp.002
v -0.3373709 0.4705632 -0.01456695
v -0.3471193 0.5188377 0.09076599
v -0.3659754 0.5121548 0.09076599
v -0.3197222 0.4790027 -0.01082612
v -0.314559 0.4373958 -0.08494067
v -0.3274479 0.5151994 0.09076599
v -0.2969103 0.4458349 -0.08119984
v -0.2868805 0.3971503 -0.1447715
v -0.3033476 0.4801571 -0.0006061941
v -0.312232 0.5022113 0.09076599
v -0.2692308 0.4055889 -0.1410307
v -0.2553577 0.3513167 -0.1962811
v -0.2926359 0.4737194 0.01335447
v -0.3055468 0.4833553 0.09076599
v -0.2805357 0.4469898 -0.07097992
v -0.237709 0.3597562 -0.1925404
v -0.2177935 0.2966983 -0.234702
v -0.2904558 0.4614127 0.02731507
v -0.3091869 0.4636838 0.09076599
v -0.269824 0.4405515 -0.05701927
v -0.2528563 0.4067442 -0.1308108
v -0.2001429 0.3051369 -0.2309613
v -0.1714678 0.2293413 -0.2541504
v -0.2973919 0.4465349 0.037535
v -0.3221731 0.448467 0.09076599
v -0.3115864 0.4330733 0.04127569
v -0.2213354 0.3609116 -0.1823205
v -0.2676439 0.4282448 -0.04305865
v -0.27458 0.413367 -0.03283874
v -0.2887754 0.3999054 -0.02909813
v -0.2421446 0.4003055 -0.1168502
v -0.1538191 0.2377803 -0.2504097
v -0.1214314 0.1565893 -0.265563
v -0.2469015 0.373121 -0.09266967
v -0.261095 0.3596594 -0.08892893
v -0.2399645 0.3879988 -0.1028895
v -0.2106218 0.3544734 -0.1683599
v -0.1837692 0.3062923 -0.2207414
v -0.1037827 0.1650274 -0.2618224
v -0.06784248 0.07867265 -0.269282
v -0.05019379 0.08711123 -0.2655414
v -0.2153788 0.3272893 -0.1441793
v -0.2295732 0.3138273 -0.1404386
v -0.2084427 0.3421662 -0.1543993
v -0.1730576 0.2998536 -0.2067807
v -0.1374435 0.2389352 -0.2401898
v -0.08740711 0.1661832 -0.2516025
v -0.03382015 0.08826613 -0.2553215
v -0.1778135 0.2726696 -0.1826003
v -0.192008 0.259208 -0.1788595
v -0.1708775 0.2875464 -0.1928201
v -0.1267309 0.2324965 -0.2262292
v -0.07669544 0.159745 -0.2376419
v -0.02310658 0.08182788 -0.2413609
v -0.1245527 0.2201903 -0.2122686
v -0.1314878 0.205312 -0.2020486
v -0.1456823 0.1918504 -0.1983079
v -0.07451534 0.1474388 -0.2236812
v -0.02092648 0.06952119 -0.2274002
v -0.08145237 0.132561 -0.2134613
v -0.0956459 0.1190994 -0.2097206
v -0.0278635 0.05464435 -0.2171803
v -0.04205704 0.0411818 -0.2134396
v -0.3115864 0.4330733 0.04127569
v -0.3410301 0.4417832 0.09076599
v -0.3221731 0.448467 0.09076599
v -0.3292351 0.4246347 0.037535
v -0.2887754 0.3999054 -0.02909813
v -0.3607006 0.4454229 0.09076599
v -0.3064241 0.3914664 -0.03283874
v -0.261095 0.3596594 -0.08892893
v -0.3456097 0.4234793 0.02731507
v -0.3759184 0.4584105 0.09076599
v -0.2787447 0.3512208 -0.09266967
v -0.2295732 0.3138273 -0.1404386
v -0.3563223 0.4299176 0.01335432
v -0.3826017 0.4772666 0.09076599
v -0.3227978 0.390311 -0.04305865
v -0.2472219 0.3053882 -0.1441793
v -0.192008 0.259208 -0.1788595
v -0.3585014 0.4422243 -0.0006061941
v -0.3789625 0.496938 0.09076599
v -0.3335104 0.3967497 -0.05701936
v -0.2951174 0.3500655 -0.1028895
v -0.2096567 0.2507694 -0.1826003
v -0.1456823 0.1918504 -0.1983079
v -0.3515654 0.4571025 -0.01082612
v -0.3659754 0.5121548 0.09076599
v -0.3373709 0.4705632 -0.01456695
v -0.2635965 0.3042333 -0.1543993
v -0.305831 0.3565042 -0.1168503
v -0.3356905 0.4090564 -0.07097992
v -0.3287535 0.4239342 -0.08119984
v -0.314559 0.4373958 -0.08494067
v -0.163331 0.1834118 -0.2020486
v -0.0956459 0.1190994 -0.2097206
v -0.2260313 0.2496135 -0.1928201
v -0.2743092 0.3106716 -0.1683599
v -0.3080111 0.3688099 -0.1308108
v -0.301074 0.3836877 -0.1410307
v -0.2868805 0.3971503 -0.1447715
v -0.1132956 0.1106603 -0.2134613
v -0.04205704 0.0411818 -0.2134396
v -0.05970764 0.03274345 -0.2171803
v -0.1797056 0.1822565 -0.2122686
v -0.1296701 0.1095052 -0.2236812
v -0.07608128 0.03158784 -0.2274002
v -0.2367439 0.2560527 -0.2067807
v -0.2764893 0.3229787 -0.1823205
v -0.2695522 0.3378561 -0.1925404
v -0.2553577 0.3513167 -0.1962811
v -0.1403818 0.1159439 -0.2376418
v -0.0867939 0.03802657 -0.2413608
v -0.1904182 0.1886957 -0.2262291
v -0.2389231 0.2683585 -0.2207414
v -0.231987 0.2832367 -0.2309613
v -0.2177935 0.2966983 -0.234702
v -0.1925974 0.2010019 -0.2401898
v -0.1856613 0.2158792 -0.2504097
v -0.1714678 0.2293413 -0.2541504
v -0.1425629 0.1282504 -0.2516025
v -0.1356258 0.1431277 -0.2618224
v -0.1214314 0.1565893 -0.265563
v -0.08897305 0.05033374 -0.2553215
v -0.08203697 0.06521058 -0.2655414
v -0.06784248 0.07867265 -0.269282
v -0.05019379 0.08711123 -0.2655414
v -0.03382015 0.08826613 -0.2553215
v -0.02310658 0.08182788 -0.2413609
v -0.02092648 0.06952119 -0.2274002
v -0.07608128 0.03158784 -0.2274002
v -0.0278635 0.05464435 -0.2171803
v -0.05970764 0.03274345 -0.2171803
v -0.04205704 0.0411818 -0.2134396
v 0.1221075 0.01118636 -1.177275
v 0.1713877 -0.2295516 -1.354404
v 0.07461071 -0.1032195 -1.177275
v 0.2799025 0.0318315 -1.354404
v 0.1739283 -0.2328684 -1.735916
v 0.2840462 0.03237271 -1.735916
v 0.1093998 0.2603576 -1.735916
v 0.1077967 0.2564995 -1.354404
v 0.04677868 0.1095231 -1.177275
v -0.07604885 0.09345365 -1.177275
v -0.1728239 0.2197855 -1.354404
v -0.1753645 0.2231038 -1.735916
v 0.04677868 0.1095231 -1.177275
v 0.1221075 0.01118636 -1.177275
v 0.07461071 -0.1032195 -1.177275
v -0.04821682 -0.119288 -1.177275
v -0.07604885 0.09345365 -1.177275
v -0.1092339 -0.2662647 -1.354404
v 0.1713877 -0.2295516 -1.354404
v -0.1235456 -0.02095246 -1.177275
v -0.1728239 0.2197855 -1.354404
v -0.2813396 -0.04159641 -1.354404
v -0.1753645 0.2231038 -1.735916
v -0.2854824 -0.0421381 -1.735916
v -0.110837 -0.2701244 -1.735916
v 0.1739283 -0.2328684 -1.735916
v 0.01344013 -0.1131115 -1.189199
v 0.1000891 -0.04673457 -1.189199
v 0.08593082 0.06149411 -1.189199
v -0.01487827 0.1033456 -1.1892
v -0.08736897 -0.07125974 -1.189199
v -0.1015272 0.03696847 -1.189199
v 0.08593082 0.06149411 0.490809
v 0.1000891 -0.04673457 0.4908091
v 0.01344013 -0.1131115 0.4908091
v -0.01487827 0.1033456 0.4908091
v -0.08736897 -0.07125974 0.4908091
v -0.1015272 0.03696847 0.4908091
v 0.1000891 -0.04673457 -1.189199
v 0.01344013 -0.1131115 0.4908091
v 0.1000891 -0.04673457 0.4908091
v 0.01344013 -0.1131115 -1.189199
v -0.08736897 -0.07125974 -1.189199
v -0.08736897 -0.07125974 0.4908091
v -0.1015272 0.03696847 -1.189199
v -0.1015272 0.03696847 0.4908091
v 0.1000891 -0.04673457 -1.189199
v 0.1000891 -0.04673457 0.4908091
v 0.08593082 0.06149411 0.490809
v 0.08593082 0.06149411 -1.189199
v -0.01487827 0.1033456 0.4908091
v -0.01487827 0.1033456 -1.1892
v -0.1015272 0.03696847 0.4908091
v -0.1015272 0.03696847 -1.189199
v 0.34972 -0.4623497 -0.01456713
v 0.361927 -0.5100613 0.09076592
v 0.3804159 -0.5024207 0.09076587
v 0.3325253 -0.4716806 -0.0108263
v 0.3252401 -0.430393 -0.08494081
v 0.3420954 -0.5074341 0.09076587
v 0.3080454 -0.4397247 -0.08119993
v 0.295536 -0.3916166 -0.1447717
v 0.3162317 -0.4736729 -0.0006063804
v 0.3262329 -0.4952431 0.09076581
v 0.2783422 -0.4009483 -0.1410309
v 0.2617083 -0.3474584 -0.1962813
v 0.3052053 -0.4677911 0.01335427
v 0.318593 -0.4767544 0.09076586
v 0.2917528 -0.4417164 -0.07098006
v 0.2445154 -0.3567905 -0.1925406
v 0.2213955 -0.2948332 -0.2347022
v 0.3023977 -0.4556124 0.02731498
v 0.3212194 -0.4569218 0.09076586
v 0.2807245 -0.4358344 -0.05701945
v 0.2620487 -0.4029405 -0.130811
v 0.2042017 -0.3041654 -0.2309615
v 0.1716824 -0.2299376 -0.2541505
v 0.3085632 -0.4403994 0.03753485
v 0.3334112 -0.4410601 0.09076583
v 0.3220501 -0.4262283 0.0412756
v 0.2282209 -0.3587818 -0.1823208
v 0.2779169 -0.4236557 -0.04305879
v 0.2840834 -0.4084423 -0.03283892
v 0.2975693 -0.3942719 -0.02909822
v 0.2510195 -0.3970582 -0.1168503
v 0.1544886 -0.2392688 -0.2504099
v 0.1179876 -0.1598425 -0.2655632
v 0.2543783 -0.3696668 -0.09266977
v 0.2678652 -0.3554964 -0.08892912
v 0.2482138 -0.3848796 -0.1028897
v 0.2171936 -0.3529012 -0.1683601
v 0.1879091 -0.3061581 -0.2207416
v 0.1007938 -0.1691742 -0.2618226
v 0.06048012 -0.08477235 -0.2692822
v 0.04328632 -0.09410357 -0.2655416
v 0.2205524 -0.3255088 -0.1441795
v 0.2340384 -0.3113372 -0.1404388
v 0.2143869 -0.3407226 -0.1543995
v 0.1768818 -0.3002765 -0.2067809
v 0.138195 -0.241261 -0.24019
v 0.08449936 -0.1711664 -0.2516027
v 0.02699184 -0.0960958 -0.2553217
v 0.1802397 -0.2728837 -0.1826004
v 0.1937256 -0.2587132 -0.1788597
v 0.1740742 -0.2880976 -0.1928203
v 0.1271677 -0.2353795 -0.2262294
v 0.07347202 -0.1652849 -0.237642
v 0.01596451 -0.0902133 -0.2413611
v 0.1243601 -0.2232008 -0.2122687
v 0.1305256 -0.2079871 -0.2020488
v 0.1440134 -0.1938171 -0.1983081
v 0.07066441 -0.1531062 -0.2236814
v 0.01315784 -0.07803512 -0.2274004
v 0.07683086 -0.137893 -0.2134615
v 0.09031677 -0.1237216 -0.2097208
v 0.01932335 -0.06282234 -0.2171805
v 0.03281021 -0.0486517 -0.2134398
v 0.3220501 -0.4262283 0.0412756
v 0.3519001 -0.433419 0.09076586
v 0.3334112 -0.4410601 0.09076583
v 0.3392439 -0.4168968 0.03753485
v 0.2975693 -0.3942719 -0.02909822
v 0.3717318 -0.4360468 0.09076583
v 0.3147631 -0.3849406 -0.03283888
v 0.2678652 -0.3554964 -0.08892912
v 0.3555374 -0.4149051 0.02731493
v 0.3875933 -0.4482384 0.09076583
v 0.285058 -0.3461642 -0.09266981
v 0.2340384 -0.3113372 -0.1404388
v 0.3665657 -0.4207869 0.01335418
v 0.3952341 -0.4667275 0.0907659
v 0.3310575 -0.3829491 -0.04305879
v 0.2512331 -0.3020062 -0.1441795
v 0.1937256 -0.2587132 -0.1788597
v 0.3693724 -0.4329655 -0.0006063804
v 0.3926077 -0.4865594 0.0907659
v 0.3420849 -0.3888299 -0.05701954
v 0.3013535 -0.3441722 -0.1028897
v 0.2109194 -0.2493815 -0.1826004
v 0.1440134 -0.1938171 -0.1983081
v 0.3632059 -0.4481788 -0.01082626
v 0.3804159 -0.5024207 0.09076587
v 0.34972 -0.4623497 -0.01456713
v 0.2675257 -0.3000138 -0.1543995
v 0.3123808 -0.3500545 -0.1168504
v 0.3448915 -0.4010086 -0.07098011
v 0.338726 -0.4162226 -0.08120003
v 0.3252401 -0.430393 -0.08494081
v 0.1612062 -0.1844854 -0.2020488
v 0.09031677 -0.1237216 -0.2097208
v 0.2272139 -0.2473896 -0.1928203
v 0.278554 -0.3058958 -0.1683601
v 0.3151884 -0.3622339 -0.130811
v 0.3090229 -0.3774462 -0.1410309
v 0.295536 -0.3916166 -0.1447717
v 0.1075106 -0.1143911 -0.2134615
v 0.03281021 -0.0486517 -0.2134398
v 0.05000305 -0.03931975 -0.2171805
v 0.1775007 -0.1824937 -0.2122687
v 0.1238041 -0.1123989 -0.2236814
v 0.06629658 -0.037328 -0.2274004
v 0.2382421 -0.2532709 -0.2067809
v 0.2813616 -0.3180745 -0.1823207
v 0.2751951 -0.3332877 -0.1925406
v 0.2617083 -0.3474584 -0.1962813
v 0.1348324 -0.1182797 -0.237642
v 0.07732487 -0.04320931 -0.241361
v 0.1885271 -0.1883738 -0.2262292
v 0.2410488 -0.2654502 -0.2207416
v 0.2348833 -0.2806637 -0.2309615
v 0.2213955 -0.2948332 -0.2347022
v 0.1913357 -0.2005532 -0.24019
v 0.1851692 -0.2157671 -0.2504099
v 0.1716824 -0.2299376 -0.2541505
v 0.137639 -0.1304591 -0.2516027
v 0.1314735 -0.1456726 -0.2618226
v 0.1179876 -0.1598425 -0.2655632
v 0.08013248 -0.05538774 -0.2553217
v 0.07396698 -0.07060122 -0.2655416
v 0.06629658 -0.037328 -0.2274004
v 0.06048012 -0.08477235 -0.2692822
v 0.05000305 -0.03931975 -0.2171805
v 0.04328632 -0.09410357 -0.2655416
v 0.03281021 -0.0486517 -0.2134398
v 0.02699184 -0.0960958 -0.2553217
v 0.01932335 -0.06282234 -0.2171805
v 0.01596451 -0.0902133 -0.2413611
v 0.01315784 -0.07803512 -0.2274004
v 0.5731173 -0.5572083 0.3624508
v 0.5893869 -0.4344013 0.3624508
v 0.5420723 -0.3199127 0.3624508
v 0.4976244 -0.655427 0.3624508
v 0.4438524 -0.2444198 0.3624508
v 0.3831358 -0.7027409 0.3624508
v 0.3210459 -0.2281511 0.3624508
v 0.2603292 -0.6864724 0.3624508
v 0.2065573 -0.2754655 0.3624508
v 0.1621103 -0.6109803 0.3624508
v 0.1310654 -0.3736849 0.3624508
v 0.1147957 -0.4964907 0.3624508
v 0.3251247 -0.4861045 0.6240519
v 0.3184099 -0.4698541 0.6240519
v 0.3207178 -0.4524221 0.6240519
v 0.3314342 -0.4384811 0.6240519
v 0.3390665 -0.496819 0.6240519
v 0.3476849 -0.4317644 0.6240519
v 0.3564987 -0.4991291 0.6240519
v 0.3210459 -0.2281511 0.3624508
v 0.2065573 -0.2754655 0.3624508
v 0.4438524 -0.2444198 0.3624508
v 0.3651171 -0.4340744 0.6240519
v 0.5420723 -0.3199127 0.3624508
v 0.3727493 -0.4924128 0.6240519
v 0.3790579 -0.4447894 0.6240519
v 0.5893869 -0.4344013 0.3624508
v 0.3834639 -0.4784718 0.6240519
v 0.4976244 -0.655427 0.3624508
v 0.5731173 -0.5572083 0.3624508
v 0.3857737 -0.4610403 0.6240519
v 0.3831358 -0.7027409 0.3624508
v 0.3727493 -0.4924128 0.6240519
v 0.4976244 -0.655427 0.3624508
v 0.3564987 -0.4991291 0.6240519
v 0.2603292 -0.6864724 0.3624508
v 0.3390665 -0.496819 0.6240519
v 0.1621103 -0.6109803 0.3624508
v 0.3251247 -0.4861045 0.6240519
v 0.1147957 -0.4964907 0.3624508
v 0.3184099 -0.4698541 0.6240519
v 0.1310654 -0.3736849 0.3624508
v 0.3207178 -0.4524221 0.6240519
v 0.2065573 -0.2754655 0.3624508
v 0.3314342 -0.4384811 0.6240519
v 0.2693958 -0.1170251 0.7295251
v 0.289279 0.03305697 0.7295251
v 0.2314558 0.1729743 0.7295251
v 0.1771374 -0.2370594 0.7295251
v 0.1114225 0.2652323 0.7295251
v 0.03722 -0.2948823 0.7295251
v -0.038661 0.2851155 0.7295251
v -0.1128626 -0.2749996 0.7295251
v -0.1785774 0.2272928 0.7295251
v -0.2328968 -0.1827395 0.7295251
v -0.2708368 0.1072588 0.7295251
v -0.290719 -0.04282331 0.7295251
v -0.03367519 -0.03012896 1.033442
v -0.04188156 -0.0102694 1.033442
v -0.03906059 0.0110333 1.033442
v -0.02596569 0.02807212 1.033442
v -0.0166378 -0.04322433 1.033442
v -0.1785774 0.2272928 0.7295251
v -0.2708368 0.1072588 0.7295251
v -0.038661 0.2851155 0.7295251
v -0.006104469 0.03627849 1.033442
v 0.004664421 -0.04604578 1.033442
v 0.1114225 0.2652323 0.7295251
v 0.01519775 0.03345656 1.033442
v 0.2314558 0.1729743 0.7295251
v 0.02452564 -0.03783917 1.033442
v 0.03223515 0.02036119 1.033442
v 0.289279 0.03305697 0.7295251
v 0.0376215 -0.02080131 1.033442
v 0.1771374 -0.2370594 0.7295251
v 0.2693958 -0.1170251 0.7295251
v 0.04044342 0.0005009174 1.033442
v 0.03722 -0.2948823 0.7295251
v 0.02452564 -0.03783917 1.033442
v 0.1771374 -0.2370594 0.7295251
v 0.004664421 -0.04604578 1.033442
v -0.1128626 -0.2749996 0.7295251
v -0.0166378 -0.04322433 1.033442
v -0.2328968 -0.1827395 0.7295251
v -0.03367519 -0.03012896 1.033442
v -0.290719 -0.04282331 0.7295251
v -0.04188156 -0.0102694 1.033442
v -0.2708368 0.1072588 0.7295251
v -0.03906059 0.0110333 1.033442
v -0.1056147 0.3610661 0.3730108
v -0.08667946 0.5040009 0.3730108
v -0.1417484 0.637254 0.3730108
v -0.1934805 0.2467487 0.3730108
v -0.2560663 0.7251194 0.3730108
v -0.3267336 0.19168 0.3730108
v -0.3990011 0.744055 0.3730108
v -0.4696684 0.2106152 0.3730108
v -0.5322533 0.6889856 0.3730108
v -0.5839863 0.2984812 0.3730108
v -0.62012 0.5746686 0.3730108
v -0.6390543 0.4317343 0.3730108
v -0.3942528 0.4438241 0.6624537
v -0.4020691 0.4627378 0.6624537
v -0.3993816 0.4830263 0.6624537
v -0.3869095 0.499253 0.6624537
v -0.378026 0.4313524 0.6624537
v -0.5322533 0.6889856 0.3730108
v -0.62012 0.5746686 0.3730108
v -0.3990011 0.744055 0.3730108
v -0.3679953 0.5070689 0.6624537
v -0.3577394 0.4286649 0.6624537
v -0.2560663 0.7251194 0.3730108
v -0.3477068 0.5043819 0.6624537
v -0.1417484 0.637254 0.3730108
v -0.3388243 0.4364808 0.6624537
v -0.331481 0.4919102 0.6624537
v -0.08667946 0.5040009 0.3730108
v -0.3263521 0.4527075 0.6624537
v -0.1934805 0.2467487 0.3730108
v -0.1056147 0.3610661 0.3730108
v -0.3236647 0.472996 0.6624537
v -0.3267336 0.19168 0.3730108
v -0.3388243 0.4364808 0.6624537
v -0.1934805 0.2467487 0.3730108
v -0.3577394 0.4286649 0.6624537
v -0.4696684 0.2106152 0.3730108
v -0.378026 0.4313524 0.6624537
v -0.5839863 0.2984812 0.3730108
v -0.3942528 0.4438241 0.6624537
v -0.6390543 0.4317343 0.3730108
v -0.4020691 0.4627378 0.6624537
v -0.62012 0.5746686 0.3730108
v -0.3993816 0.4830263 0.6624537
v 0.3331299 -0.3205149 0.07456132
v 0.2170944 -0.4094017 0.07456132
v 0.2360563 -0.5543344 0.07456132
v 0.3710527 -0.6103802 0.07456132
v 0.4681253 -0.376559 0.07456132
v 0.3250322 -0.2586243 0.365514
v 0.5176744 -0.3386033 0.365514
v 0.4870872 -0.5214934 0.07456132
v 0.544734 -0.5454249 0.365514
v 0.3791494 -0.6722693 0.365514
v 0.5176744 -0.3386033 0.365514
v 0.544734 -0.5454249 0.365514
v 0.3791494 -0.6722693 0.365514
v 0.3250322 -0.2586243 0.365514
v 0.1865072 -0.5922918 0.365514
v 0.1594486 -0.3854697 0.365514
v 0.2170944 -0.4094017 0.07456132
v 0.3331299 -0.3205149 0.07456132
v 0.3250322 -0.2586243 0.365514
v 0.1594486 -0.3854697 0.365514
v 0.1865072 -0.5922918 0.365514
v 0.2360563 -0.5543344 0.07456132
v 0.3791494 -0.6722693 0.365514
v 0.3710527 -0.6103802 0.07456132
v 0.1920042 0.1427515 0.7403273
v 0.2234964 -0.09796834 0.7403273
v 0.03077316 -0.2456026 0.7403273
v -0.03221321 0.2358377 0.7403273
v -0.1934423 -0.1525168 0.7403273
v -0.2249365 0.08820391 0.7403273
v -0.1578417 0.06034803 0.4016878
v -0.03221321 0.2358377 0.7403273
v -0.2249365 0.08820391 0.7403273
v -0.02278805 0.1638043 0.4016878
v -0.1357718 -0.1083398 0.4016878
v 0.02134895 -0.1735699 0.4016878
v 0.1343336 0.09857249 0.4016878
v 0.1920042 0.1427515 0.7403273
v 0.1564016 -0.0701139 0.4016878
v 0.2234964 -0.09796834 0.7403273
v -0.1578417 0.06034803 0.4016878
v -0.2249365 0.08820391 0.7403273
v -0.1934423 -0.1525168 0.7403273
v -0.1357718 -0.1083398 0.4016878
v 0.03077316 -0.2456026 0.7403273
v 0.02134895 -0.1735699 0.4016878
v 0.2234964 -0.09796834 0.7403273
v 0.1564016 -0.0701139 0.4016878
v -0.3407974 0.2991805 0.03793642
v -0.1386499 0.3747818 0.3765758
v -0.2057447 0.4026358 0.03793642
v -0.3313723 0.2271469 0.3765758
v -0.4979191 0.3644116 0.03793642
v -0.5555887 0.3202333 0.3765758
v -0.5199881 0.5330975 0.03793642
v -0.5870829 0.5609539 0.3765758
v -0.1701422 0.6155012 0.3765758
v -0.1386499 0.3747818 0.3765758
v -0.3313723 0.2271469 0.3765758
v -0.3943596 0.7085884 0.3765758
v -0.5555887 0.3202333 0.3765758
v -0.5870829 0.5609539 0.3765758
v -0.5199881 0.5330975 0.03793642
v -0.3943596 0.7085884 0.3765758
v -0.5870829 0.5609539 0.3765758
v -0.3849354 0.6365545 0.03793642
v -0.4979191 0.3644116 0.03793642
v -0.3407974 0.2991805 0.03793642
v -0.2278128 0.5713232 0.03793642
v -0.1701422 0.6155012 0.3765758
v -0.2057447 0.4026358 0.03793642
v -0.1386499 0.3747818 0.3765758
vt 0.090271 0.7890625
vt 0.08972168 0.7905273
vt 0.08953857 0.7905273
vt 0.09033203 0.7890625
vt 0.09082031 0.7880859
vt 0.08996582 0.7905273
vt 0.09094238 0.7880859
vt 0.0914917 0.7871094
vt 0.09051514 0.7890625
vt 0.090271 0.7905273
vt 0.09161377 0.7871094
vt 0.09228516 0.7866211
vt 0.09069824 0.7895508
vt 0.09051514 0.7905273
vt 0.09106445 0.7880859
vt 0.09240723 0.7866211
vt 0.09326172 0.7856445
vt 0.09088135 0.7895508
vt 0.09063721 0.7905273
vt 0.09124756 0.7885742
vt 0.09179688 0.7871094
vt 0.09332275 0.7856445
vt 0.09442139 0.7856445
vt 0.09094238 0.7900391
vt 0.09069824 0.7905273
vt 0.09094238 0.7900391
vt 0.0925293 0.7866211
vt 0.09143066 0.7885742
vt 0.0914917 0.7885742
vt 0.0914917 0.7890625
vt 0.09197998 0.7875977
vt 0.09454346 0.7856445
vt 0.09570313 0.7851563
vt 0.09216309 0.7880859
vt 0.09216309 0.7880859
vt 0.09210205 0.7875977
vt 0.0927124 0.7866211
vt 0.09350586 0.7861328
vt 0.0958252 0.7856445
vt 0.09710693 0.7851563
vt 0.09716797 0.7851563
vt 0.09295654 0.7871094
vt 0.09295654 0.7871094
vt 0.09289551 0.7871094
vt 0.09368896 0.7861328
vt 0.09466553 0.7856445
vt 0.09594727 0.7856445
vt 0.09735107 0.7856445
vt 0.09393311 0.7866211
vt 0.09393311 0.7866211
vt 0.09381104 0.7866211
vt 0.09484863 0.7861328
vt 0.09613037 0.7856445
vt 0.09753418 0.7856445
vt 0.09503174 0.7861328
vt 0.09509277 0.7861328
vt 0.09509277 0.7861328
vt 0.09631348 0.7861328
vt 0.09765625 0.7861328
vt 0.09637451 0.7861328
vt 0.09637451 0.7861328
vt 0.09777832 0.7861328
vt 0.09777832 0.7861328
vt 0.09094238 0.7900391
vt 0.09051514 0.7905273
vt 0.09069824 0.7905273
vt 0.09082031 0.7900391
vt 0.0914917 0.7890625
vt 0.090271 0.7905273
vt 0.09136963 0.7885742
vt 0.09216309 0.7880859
vt 0.09063721 0.7895508
vt 0.08996582 0.7905273
vt 0.09204102 0.7880859
vt 0.09295654 0.7871094
vt 0.0904541 0.7895508
vt 0.08972168 0.7905273
vt 0.09118652 0.7885742
vt 0.09283447 0.7871094
vt 0.09393311 0.7866211
vt 0.090271 0.7890625
vt 0.08953857 0.7905273
vt 0.09100342 0.7885742
vt 0.09191895 0.7875977
vt 0.09381104 0.7866211
vt 0.09509277 0.7861328
vt 0.09020996 0.7890625
vt 0.08953857 0.7905273
vt 0.090271 0.7890625
vt 0.0927124 0.7871094
vt 0.0916748 0.7875977
vt 0.09088135 0.7880859
vt 0.09075928 0.7880859
vt 0.09082031 0.7880859
vt 0.09503174 0.7861328
vt 0.09637451 0.7861328
vt 0.09362793 0.7866211
vt 0.0925293 0.7866211
vt 0.09155273 0.7875977
vt 0.0914917 0.7871094
vt 0.0914917 0.7871094
vt 0.09631348 0.7861328
vt 0.09777832 0.7861328
vt 0.09771729 0.7861328
vt 0.09484863 0.7861328
vt 0.09613037 0.7861328
vt 0.09753418 0.7861328
vt 0.09344482 0.7861328
vt 0.09234619 0.7866211
vt 0.09228516 0.7866211
vt 0.09228516 0.7866211
vt 0.09594727 0.7856445
vt 0.09735107 0.7856445
vt 0.09466553 0.7861328
vt 0.09332275 0.7861328
vt 0.09320068 0.7856445
vt 0.09326172 0.7856445
vt 0.09448242 0.7856445
vt 0.09442139 0.7856445
vt 0.09442139 0.7856445
vt 0.0958252 0.7856445
vt 0.09570313 0.7856445
vt 0.09570313 0.7851563
vt 0.09716797 0.7856445
vt 0.09710693 0.7851563
vt 0.09710693 0.7851563
vt 0.09716797 0.7851563
vt 0.09735107 0.7856445
vt 0.09753418 0.7856445
vt 0.09765625 0.7861328
vt 0.09753418 0.7861328
vt 0.09777832 0.7861328
vt 0.09771729 0.7861328
vt 0.09777832 0.7861328
vt 0.09960938 0.7714844
vt 0.1028442 0.7685547
vt 0.1004028 0.7709961
vt 0.1008301 0.769043
vt 0.1028442 0.762207
vt 0.1008301 0.7631836
vt 0.09667969 0.7636719
vt 0.09674072 0.769043
vt 0.09777832 0.7714844
vt 0.09667969 0.7709961
vt 0.09423828 0.7685547
vt 0.09405518 0.762207
vt 0.09777832 0.7714844
vt 0.09960938 0.7714844
vt 0.1004028 0.7709961
vt 0.09936523 0.7709961
vt 0.09667969 0.7709961
vt 0.1004639 0.7675781
vt 0.1028442 0.7685547
vt 0.09747314 0.7709961
vt 0.09423828 0.7685547
vt 0.09594727 0.7675781
vt 0.09405518 0.762207
vt 0.0958252 0.7612305
vt 0.1004639 0.7612305
vt 0.1028442 0.762207
vt 0.09991455 0.7709961
vt 0.1000366 0.7714844
vt 0.09869385 0.7714844
vt 0.097229 0.7714844
vt 0.09838867 0.7709961
vt 0.0970459 0.7709961
vt 0.09887695 0.7963867
vt 0.1002197 0.7963867
vt 0.1000977 0.7963867
vt 0.09747314 0.7963867
vt 0.09863281 0.796875
vt 0.09735107 0.7963867
vt 0.1000366 0.7714844
vt 0.1000977 0.7963867
vt 0.1002197 0.7963867
vt 0.09991455 0.7709961
vt 0.09838867 0.7709961
vt 0.09863281 0.796875
vt 0.0970459 0.7709961
vt 0.09735107 0.7963867
vt 0.1000366 0.7714844
vt 0.1002197 0.7963867
vt 0.09887695 0.7963867
vt 0.09869385 0.7714844
vt 0.09747314 0.7963867
vt 0.097229 0.7714844
vt 0.09735107 0.7963867
vt 0.0970459 0.7709961
vt 0.1071777 0.7890625
vt 0.1078491 0.7905273
vt 0.1079102 0.7905273
vt 0.1071167 0.7890625
vt 0.1065674 0.7880859
vt 0.107666 0.7905273
vt 0.1065674 0.7880859
vt 0.105896 0.7871094
vt 0.1069946 0.7895508
vt 0.1073608 0.7905273
vt 0.105835 0.7871094
vt 0.1050415 0.7866211
vt 0.1068726 0.7895508
vt 0.1070557 0.7905273
vt 0.1064453 0.7880859
vt 0.1049805 0.7866211
vt 0.1040649 0.7856445
vt 0.1066895 0.7895508
vt 0.1068726 0.7905273
vt 0.1062622 0.7885742
vt 0.1057129 0.7875977
vt 0.1040039 0.7856445
vt 0.1028442 0.7856445
vt 0.1065674 0.7900391
vt 0.1067505 0.7905273
vt 0.1065063 0.7900391
vt 0.1048584 0.7866211
vt 0.1060791 0.7885742
vt 0.105957 0.7890625
vt 0.105896 0.7890625
vt 0.1055298 0.7875977
vt 0.1028442 0.7856445
vt 0.1015625 0.7851563
vt 0.1052246 0.7880859
vt 0.1052246 0.7880859
vt 0.1053467 0.7875977
vt 0.1047363 0.7866211
vt 0.1038818 0.7861328
vt 0.1015015 0.7856445
vt 0.1001587 0.7851563
vt 0.1000977 0.7851563
vt 0.1044312 0.7871094
vt 0.1043701 0.7871094
vt 0.1045532 0.7871094
vt 0.1037598 0.7861328
vt 0.1026611 0.7856445
vt 0.1013794 0.7856445
vt 0.09997559 0.7856445
vt 0.1034546 0.7866211
vt 0.1033936 0.7866211
vt 0.1035767 0.7866211
vt 0.1025391 0.7861328
vt 0.1011963 0.7856445
vt 0.09979248 0.7856445
vt 0.102356 0.7861328
vt 0.1022339 0.7861328
vt 0.1021729 0.7861328
vt 0.1010132 0.7861328
vt 0.09960938 0.7861328
vt 0.1009521 0.7861328
vt 0.1008911 0.7861328
vt 0.09954834 0.7861328
vt 0.0994873 0.7861328
vt 0.1065063 0.7900391
vt 0.1068115 0.7905273
vt 0.1067505 0.7905273
vt 0.1065674 0.7900391
vt 0.105896 0.7890625
vt 0.1070557 0.7905273
vt 0.105957 0.7885742
vt 0.1052246 0.7880859
vt 0.1066284 0.7895508
vt 0.1072998 0.7905273
vt 0.1052246 0.7880859
vt 0.1043701 0.7871094
vt 0.1068115 0.7895508
vt 0.107605 0.7905273
vt 0.1060791 0.7885742
vt 0.1044312 0.7871094
vt 0.1033936 0.7866211
vt 0.1069946 0.7890625
vt 0.1077881 0.7905273
vt 0.1062622 0.7885742
vt 0.1053467 0.7875977
vt 0.1034546 0.7866211
vt 0.1021729 0.7861328
vt 0.1071167 0.7890625
vt 0.1079102 0.7905273
vt 0.1071777 0.7890625
vt 0.1045532 0.7871094
vt 0.1055298 0.7875977
vt 0.1063843 0.7880859
vt 0.1065063 0.7880859
vt 0.1065674 0.7880859
vt 0.1022339 0.7861328
vt 0.1008911 0.7861328
vt 0.1035767 0.7866211
vt 0.1047363 0.7866211
vt 0.1057129 0.7871094
vt 0.105835 0.7871094
vt 0.105896 0.7871094
vt 0.1009521 0.7861328
vt 0.0994873 0.7861328
vt 0.09954834 0.7861328
vt 0.102356 0.7861328
vt 0.1010742 0.7861328
vt 0.09967041 0.7861328
vt 0.1037598 0.7861328
vt 0.1048584 0.7866211
vt 0.1049805 0.7866211
vt 0.1050415 0.7866211
vt 0.1012573 0.7856445
vt 0.09985352 0.7856445
vt 0.1025391 0.7861328
vt 0.1038818 0.7861328
vt 0.1040039 0.7856445
vt 0.1040649 0.7856445
vt 0.1027222 0.7856445
vt 0.1028442 0.7856445
vt 0.1028442 0.7856445
vt 0.1014404 0.7856445
vt 0.1015015 0.7856445
vt 0.1015625 0.7851563
vt 0.1000366 0.7856445
vt 0.1001587 0.7851563
vt 0.09967041 0.7861328
vt 0.1001587 0.7851563
vt 0.09954834 0.7861328
vt 0.1000977 0.7851563
vt 0.0994873 0.7861328
vt 0.09997559 0.7856445
vt 0.09954834 0.7861328
vt 0.09979248 0.7856445
vt 0.09960938 0.7861328
vt 0.4851074 0.9013672
vt 0.4775391 0.9018555
vt 0.4672852 0.9018555
vt 0.4882813 0.9013672
vt 0.4570313 0.9018555
vt 0.4853516 0.9008789
vt 0.4489746 0.9013672
vt 0.4772949 0.9008789
vt 0.4453125 0.9013672
vt 0.4660645 0.9008789
vt 0.4472656 0.9008789
vt 0.454834 0.9008789
vt 0.4665527 0.9248047
vt 0.4650879 0.9248047
vt 0.4638672 0.9248047
vt 0.463623 0.9248047
vt 0.4680176 0.9248047
vt 0.4641113 0.9248047
vt 0.4692383 0.9248047
vt 0.4489746 0.9013672
vt 0.4453125 0.9013672
vt 0.4570313 0.9018555
vt 0.465332 0.9243164
vt 0.4672852 0.9018555
vt 0.4697266 0.9248047
vt 0.4667969 0.9243164
vt 0.4775391 0.9018555
vt 0.4692383 0.9248047
vt 0.4882813 0.9013672
vt 0.4851074 0.9013672
vt 0.4682617 0.9243164
vt 0.4853516 0.9008789
vt 0.4697266 0.9248047
vt 0.4882813 0.9013672
vt 0.4692383 0.9248047
vt 0.4772949 0.9008789
vt 0.4680176 0.9248047
vt 0.4660645 0.9008789
vt 0.4665527 0.9248047
vt 0.454834 0.9008789
vt 0.4650879 0.9248047
vt 0.4472656 0.9008789
vt 0.4638672 0.9248047
vt 0.4453125 0.9013672
vt 0.463623 0.9248047
vt 0.489502 0.8989258
vt 0.4819336 0.8984375
vt 0.4707031 0.8984375
vt 0.4914551 0.8999023
vt 0.4587402 0.8984375
vt 0.4868164 0.9003906
vt 0.4484863 0.8989258
vt 0.4763184 0.9013672
vt 0.442627 0.8999023
vt 0.4626465 0.9013672
vt 0.4431152 0.9003906
vt 0.4504395 0.9008789
vt 0.4665527 0.9257813
vt 0.4648438 0.925293
vt 0.4638672 0.925293
vt 0.463623 0.925293
vt 0.4685059 0.9257813
vt 0.442627 0.8999023
vt 0.4431152 0.9003906
vt 0.4484863 0.8989258
vt 0.4643555 0.9248047
vt 0.4699707 0.925293
vt 0.4587402 0.8984375
vt 0.4658203 0.9248047
vt 0.4707031 0.8984375
vt 0.4707031 0.925293
vt 0.4677734 0.9248047
vt 0.4819336 0.8984375
vt 0.470459 0.9248047
vt 0.4914551 0.8999023
vt 0.489502 0.8989258
vt 0.4692383 0.9248047
vt 0.4868164 0.9003906
vt 0.4707031 0.925293
vt 0.4914551 0.8999023
vt 0.4699707 0.925293
vt 0.4763184 0.9013672
vt 0.4685059 0.9257813
vt 0.4626465 0.9013672
vt 0.4665527 0.9257813
vt 0.4504395 0.9008789
vt 0.4648438 0.925293
vt 0.4431152 0.9003906
vt 0.4638672 0.925293
vt 0.4912109 0.9008789
vt 0.4848633 0.9008789
vt 0.4741211 0.9008789
vt 0.4914551 0.9003906
vt 0.4619141 0.9008789
vt 0.4851074 0.9003906
vt 0.4506836 0.9008789
vt 0.4733887 0.8999023
vt 0.4433594 0.9003906
vt 0.4597168 0.8999023
vt 0.4421387 0.9003906
vt 0.447998 0.8999023
vt 0.4665527 0.9262695
vt 0.4650879 0.9262695
vt 0.4641113 0.9262695
vt 0.4643555 0.9257813
vt 0.4685059 0.9262695
vt 0.4433594 0.9003906
vt 0.4421387 0.9003906
vt 0.4506836 0.9008789
vt 0.465332 0.9257813
vt 0.4702148 0.9262695
vt 0.4619141 0.9008789
vt 0.4667969 0.9257813
vt 0.4741211 0.9008789
vt 0.4711914 0.9257813
vt 0.46875 0.9257813
vt 0.4848633 0.9008789
vt 0.4711914 0.9257813
vt 0.4914551 0.9003906
vt 0.4912109 0.9008789
vt 0.4702148 0.9257813
vt 0.4851074 0.9003906
vt 0.4711914 0.9257813
vt 0.4914551 0.9003906
vt 0.4702148 0.9262695
vt 0.4733887 0.8999023
vt 0.4685059 0.9262695
vt 0.4597168 0.8999023
vt 0.4665527 0.9262695
vt 0.447998 0.8999023
vt 0.4650879 0.9262695
vt 0.4421387 0.9003906
vt 0.4641113 0.9262695
vt 0.8920898 0.9589844
vt 0.8930664 0.9575195
vt 0.9077148 0.956543
vt 0.9204102 0.9580078
vt 0.9047852 0.9599609
vt 0.8857422 0.9897461
vt 0.9038086 0.9902344
vt 0.918457 0.9594727
vt 0.9238281 0.9902344
vt 0.9267578 0.9892578
vt 0.9038086 0.9902344
vt 0.9238281 0.9902344
vt 0.9267578 0.9892578
vt 0.8857422 0.9897461
vt 0.9082031 0.9887695
vt 0.8867188 0.9887695
vt 0.8930664 0.9575195
vt 0.8920898 0.9589844
vt 0.8857422 0.9897461
vt 0.8867188 0.9887695
vt 0.9082031 0.9887695
vt 0.9077148 0.956543
vt 0.9267578 0.9892578
vt 0.9204102 0.9580078
vt 0.9082031 0.9907227
vt 0.9301758 0.9912109
vt 0.9301758 0.9926758
vt 0.8842773 0.9912109
vt 0.9047852 0.9936523
vt 0.8813477 0.9926758
vt 0.8896484 0.9541016
vt 0.8842773 0.9912109
vt 0.8813477 0.9926758
vt 0.8916016 0.9545898
vt 0.90625 0.9536133
vt 0.9233398 0.9541016
vt 0.9082031 0.9550781
vt 0.9082031 0.9907227
vt 0.9238281 0.9545898
vt 0.9301758 0.9912109
vt 0.8896484 0.9541016
vt 0.8813477 0.9926758
vt 0.9047852 0.9936523
vt 0.90625 0.9536133
vt 0.9301758 0.9926758
vt 0.9233398 0.9541016
vt 0.9301758 0.9912109
vt 0.9238281 0.9545898
vt 0.9233398 0.9545898
vt 0.9331055 0.9936523
vt 0.9262695 0.9570313
vt 0.9291992 0.9926758
vt 0.9038086 0.953125
vt 0.9008789 0.9921875
vt 0.8881836 0.9541016
vt 0.878418 0.9926758
vt 0.9121094 0.9941406
vt 0.9331055 0.9936523
vt 0.9291992 0.9926758
vt 0.8857422 0.9936523
vt 0.9008789 0.9921875
vt 0.878418 0.9926758
vt 0.8881836 0.9541016
vt 0.8857422 0.9936523
vt 0.878418 0.9926758
vt 0.8930664 0.9560547
vt 0.9038086 0.953125
vt 0.9233398 0.9545898
vt 0.9116211 0.9575195
vt 0.9121094 0.9941406
vt 0.9262695 0.9570313
vt 0.9331055 0.9936523
vn -0.5014648 0.7290039 -0.4660645
vn -0.1140137 0.9140625 -0.3886719
vn -0.5112305 0.7436523 -0.4309082
vn -0.07366943 0.9072266 -0.4140625
vn -0.4658203 0.6772461 -0.5693359
vn 0.3510742 0.9008789 -0.2543945
vn -0.03591919 0.862793 -0.5043945
vn -0.4123535 0.5996094 -0.6855469
vn 0.411377 0.8759766 -0.2521973
vn 0.78125 0.6235352 -0.034729
vn 0.02284241 0.7958984 -0.6049805
vn -0.3369141 0.4899902 -0.8037109
vn 0.8183594 0.5742188 -0.001940727
vn 0.9746094 0.1159058 0.1904297
vn 0.4338379 0.8466797 -0.3076172
vn 0.08953857 0.6987305 -0.7099609
vn -0.2132568 0.3100586 -0.9262695
vn 0.9677734 0.08203125 0.2388916
vn 0.8574219 -0.4008789 0.3225098
vn 0.8149414 0.5795898 -0.005619049
vn 0.4753418 0.800293 -0.3652344
vn 0.1855469 0.53125 -0.8266602
vn -0.104187 0.1514893 -0.9829102
vn 0.8334961 -0.3989258 0.3820801
vn 0.5288086 -0.769043 0.3588867
vn 0.5131836 -0.7460938 0.4243164
vn 0.5146484 0.7402344 -0.4321289
vn 0.9458008 0.1252441 0.2988281
vn 0.7993164 -0.3354492 0.498291
vn 0.4682617 -0.6806641 0.5634766
vn 0.8178711 0.5751953 -0.007381439
vn 0.2636719 0.3808594 -0.8862305
vn -0.04968262 0.07226563 -0.9960938
vn 0.7573242 -0.2563477 0.6005859
vn 0.4135742 -0.6010742 0.6835938
vn 0.918457 0.1748047 0.3544922
vn 0.8178711 0.5756836 -0.01629639
vn 0.5708008 0.6367188 -0.519043
vn 0.2976074 0.3000488 -0.90625
vn 0.2020264 -0.2937012 -0.934082
vn 0.4384766 -0.1436768 -0.887207
vn 0.6933594 -0.1534424 0.7041016
vn 0.3361816 -0.4890137 0.8046875
vn 0.8808594 0.2381592 0.409668
vn 0.8217773 0.5688477 -0.0302124
vn 0.6186523 0.5478516 -0.5634766
vn 0.6381836 0.4960938 -0.5888672
vn 0.7138672 -0.01121521 -0.7001953
vn 0.5698242 0.001204491 0.8217773
vn 0.2061768 -0.2998047 0.9316406
vn 0.8134766 0.3244629 0.482666
vn 0.8256836 0.5644531 -0.01377106
vn 0.8266602 0.5629883 -0.01324463
vn 0.9467773 0.003368378 -0.3212891
vn 0.7407227 0.385498 0.550293
vn 0.4501953 0.116394 0.8852539
vn 0.09985352 -0.1451416 0.984375
vn 0.699707 0.4204102 0.5776367
vn 0.621582 0.3952637 0.6762695
vn 0.385498 0.1760254 0.9057617
vn 0.04528809 -0.06585693 0.996582
vn 0.3217773 0.1768799 0.9301758
vn 0.02227783 -0.03237915 0.9990234
vn 0.5131836 -0.7460938 0.4243164
vn 0.06756592 -0.9443359 0.3225098
vn 0.5288086 -0.769043 0.3588867
vn 0.07434082 -0.9213867 0.3820801
vn 0.4682617 -0.6806641 0.5634766
vn -0.4570313 -0.8686523 0.1905518
vn 0.0271759 -0.8666992 0.498291
vn 0.4135742 -0.6010742 0.6835938
vn -0.4226074 -0.8740234 0.2388916
vn -0.8613281 -0.5063477 -0.034729
vn -0.03164673 -0.7988281 0.6005859
vn 0.3361816 -0.4890137 0.8046875
vn -0.8291016 -0.559082 -0.001942635
vn -0.9672852 -0.005466461 -0.2543945
vn -0.4553223 -0.8383789 0.2988281
vn -0.1047974 -0.7021484 0.7041016
vn 0.2061768 -0.2998047 0.9316406
vn -0.9648438 -0.07092285 -0.2521973
vn -0.8129883 0.4335938 -0.3886719
vn -0.8330078 -0.5537109 -0.005615234
vn -0.4919434 -0.7954102 0.3544922
vn -0.2049561 -0.5317383 0.8217773
vn 0.09985352 -0.1451416 0.984375
vn -0.8208008 0.3933105 -0.4140625
vn -0.5112305 0.7436523 -0.4309082
vn -0.5014648 0.7290039 -0.4660645
vn -0.5375977 -0.7373047 0.409668
vn -0.8295898 -0.5581055 -0.007369995
vn -0.9458008 -0.1022339 -0.3076172
vn -0.7924805 0.342041 -0.5043945
vn -0.4658203 0.6772461 -0.5693359
vn -0.2697754 -0.3789063 0.8852539
vn 0.04528809 -0.06585693 0.996582
vn -0.5942383 -0.6435547 0.482666
vn -0.8300781 -0.5576172 -0.01628113
vn -0.9174805 -0.1575928 -0.3652344
vn -0.7514648 0.2634277 -0.6049805
vn -0.4123535 0.5996094 -0.6855469
vn -0.3022461 -0.296875 0.9057617
vn 0.02227783 -0.03237915 0.9990234
vn -0.2802734 -0.2371826 0.9301758
vn -0.625 -0.5537109 0.5498047
vn -0.6430664 -0.5029297 0.5776367
vn -0.5913086 -0.4389648 0.6762695
vn -0.8251953 -0.5639648 -0.03022766
vn -0.8754883 -0.2158203 -0.4321289
vn -0.684082 0.1662598 -0.7099609
vn -0.3369141 0.4899902 -0.8037109
vn -0.8212891 -0.5703125 -0.01325226
vn -0.342041 -0.8833008 -0.3212891
vn -0.8222656 -0.5688477 -0.01379395
vn -0.7983398 -0.3051758 -0.519043
vn -0.5625 0.01681519 -0.8266602
vn -0.2132568 0.3100586 -0.9262695
vn -0.7324219 -0.3815918 -0.5634766
vn -0.4501953 -0.1099243 -0.8862305
vn -0.104187 0.1514893 -0.9829102
vn -0.6914063 -0.4182129 -0.5888672
vn -0.3867188 -0.1706543 -0.90625
vn -0.04968262 0.07226563 -0.9960938
vn -0.244873 -0.6704102 -0.7001953
vn -0.0227356 -0.4609375 -0.887207
vn 0.2020264 -0.2937012 -0.934082
vn 0.4384766 -0.1436768 -0.887207
vn 0.7138672 -0.01121521 -0.7001953
vn 0.9467773 0.003368378 -0.3212891
vn 0.439209 -0.6386719 -0.6318359
vn 0.439209 -0.6386719 -0.6318359
vn 0.439209 -0.6386719 -0.6318359
vn 0.439209 -0.6386719 -0.6318359
vn 0.439209 -0.6386719 -0.6318359
vn 0.5029297 0.0657959 0.8618164
vn 0.5742188 -0.7495117 0.3295898
vn 0.3083496 -0.4025879 0.8618164
vn 0.9360352 0.1224976 0.3295898
vn 0.6079102 -0.7939453 0.01095581
vn 0.9916992 0.1297607 0.01095581
vn 0.3833008 0.9233398 0.01094818
vn 0.3620605 0.8720703 0.3295898
vn 0.194458 0.4682617 0.8618164
vn -0.3083496 0.4025879 0.8618164
vn -0.5742188 0.7495117 0.3295898
vn -0.6079102 0.7939453 0.01094818
vn 0.194458 0.4682617 0.8618164
vn 0.5029297 0.0657959 0.8618164
vn 0.3083496 -0.4025879 0.8618164
vn -0.194458 -0.4682617 0.8618164
vn -0.3083496 0.4025879 0.8618164
vn -0.3620605 -0.8720703 0.3295898
vn 0.5742188 -0.7495117 0.3295898
vn -0.5029297 -0.0657959 0.8618164
vn -0.5742188 0.7495117 0.3295898
vn -0.9360352 -0.1224976 0.3295898
vn -0.6079102 0.7939453 0.01094818
vn -0.9916992 -0.1297607 0.01095581
vn -0.3833008 -0.9233398 0.01095581
vn 0.6079102 -0.7939453 0.01095581
vn 0 0 -1
vn 0 0 -1
vn 0 0 -1
vn 0 0 -1
vn 0 0 -1
vn 0 0 -1
vn 0 0 1
vn 0 0 1
vn 0 0 1
vn 0 0 1
vn 0 0 1
vn 0 0 1
vn 0.9233398 -0.3835449 0
vn 0.1297607 -0.9916992 0
vn 0.9233398 -0.3835449 0
vn 0.1297607 -0.9916992 0
vn -0.7939453 -0.6079102 0
vn -0.7939453 -0.6079102 0
vn -0.9233398 0.3835449 0
vn -0.9233398 0.3835449 0
vn 0.9233398 -0.3835449 0
vn 0.9233398 -0.3835449 0
vn 0.7939453 0.6079102 0
vn 0.7939453 0.6079102 0
vn -0.1297607 0.9916992 0
vn -0.1297607 0.9916992 0
vn -0.9233398 0.3835449 0
vn -0.9233398 0.3835449 0
vn 0.5380859 -0.7021484 -0.4660645
vn 0.1606445 -0.9072266 -0.3886719
vn 0.5488281 -0.7163086 -0.4309082
vn 0.1200562 -0.9023438 -0.4140625
vn 0.5 -0.652832 -0.5693359
vn -0.3044434 -0.9179688 -0.2543945
vn 0.08001709 -0.8598633 -0.5043945
vn 0.442627 -0.5776367 -0.6855469
vn -0.3662109 -0.8959961 -0.2521973
vn -0.7480469 -0.6625977 -0.034729
vn 0.01794434 -0.7958984 -0.6049805
vn 0.3615723 -0.472168 -0.8037109
vn -0.7880859 -0.6157227 -0.001942635
vn -0.9677734 -0.1656494 0.1904297
vn -0.3898926 -0.8676758 -0.3076172
vn -0.0536499 -0.7021484 -0.7099609
vn 0.2288818 -0.2988281 -0.9262695
vn -0.9619141 -0.1314697 0.2388916
vn -0.8769531 0.3564453 0.3225098
vn -0.7841797 -0.6206055 -0.005615234
vn -0.4338379 -0.8237305 -0.3652344
vn -0.1580811 -0.5400391 -0.8266602
vn 0.1118164 -0.1459961 -0.9829102
vn -0.8530273 0.3557129 0.3820801
vn -0.5673828 0.7407227 0.3588867
vn -0.5507813 0.71875 0.4243164
vn -0.4760742 -0.765625 -0.4321289
vn -0.9384766 -0.173584 0.2988281
vn -0.8154297 0.2939453 0.498291
vn -0.5024414 0.6557617 0.5634766
vn -0.7875977 -0.6162109 -0.007377625
vn -0.2437744 -0.394043 -0.8862305
vn 0.05331421 -0.06958008 -0.9960938
vn -0.7695313 0.2171631 0.6005859
vn -0.4438477 0.5791016 0.6835938
vn -0.9082031 -0.2215576 0.3544922
vn -0.7871094 -0.6166992 -0.01629639
vn -0.5375977 -0.6650391 -0.519043
vn -0.2819824 -0.3149414 -0.90625
vn -0.2167969 0.2832031 -0.934082
vn -0.4453125 0.1210327 -0.887207
vn -0.7001953 0.1177368 0.7041016
vn -0.3608398 0.4711914 0.8046875
vn -0.8671875 -0.282959 0.409668
vn -0.7915039 -0.6103516 -0.03022766
vn -0.5898438 -0.5786133 -0.5634766
vn -0.6118164 -0.5283203 -0.5888672
vn -0.7133789 -0.02537537 -0.7001953
vn -0.5688477 -0.03038025 0.8217773
vn -0.2213135 0.2888184 0.9316406
vn -0.7958984 -0.3657227 0.482666
vn -0.7954102 -0.605957 -0.01379395
vn -0.7963867 -0.6044922 -0.013237
vn -0.9453125 -0.05181885 -0.3212891
vn -0.7202148 -0.4230957 0.5498047
vn -0.4436035 -0.1392822 0.8852539
vn -0.1071167 0.1398926 0.984375
vn -0.6772461 -0.4558105 0.5776367
vn -0.6005859 -0.4265137 0.6762695
vn -0.3759766 -0.1955566 0.9057617
vn -0.04858398 0.06341553 0.996582
vn -0.3122559 -0.1931152 0.9301758
vn -0.02389526 0.03120422 0.9990234
vn -0.5507813 0.71875 0.4243164
vn -0.1158447 0.9394531 0.3225098
vn -0.5673828 0.7407227 0.3588867
vn -0.1213989 0.9160156 0.3820801
vn -0.5024414 0.6557617 0.5634766
vn 0.4118652 0.8911133 0.1905518
vn -0.07147217 0.8642578 0.498291
vn -0.4438477 0.5791016 0.6835938
vn 0.3774414 0.8945313 0.2388916
vn 0.8344727 0.5498047 -0.03469849
vn -0.00932312 0.7998047 0.6005859
vn -0.3608398 0.4711914 0.8046875
vn 0.7993164 0.6005859 -0.001940727
vn 0.965332 0.05496216 -0.2543945
vn 0.4118652 0.8608398 0.2988281
vn 0.06866455 0.706543 0.7041016
vn -0.2213135 0.2888184 0.9316406
vn 0.9599609 0.1202393 -0.2521973
vn 0.8339844 -0.3913574 -0.3886719
vn 0.8032227 0.5952148 -0.005626678
vn 0.4504395 0.8193359 0.3544922
vn 0.1774902 0.5415039 0.8217773
vn -0.1071167 0.1398926 0.984375
vn 0.8398438 -0.3508301 -0.4140625
vn 0.5488281 -0.7163086 -0.4309082
vn 0.5380859 -0.7021484 -0.4660645
vn 0.4990234 0.7636719 0.409668
vn 0.7998047 0.6000977 -0.007389069
vn 0.9394531 0.1505127 -0.3076172
vn 0.809082 -0.3010254 -0.5043945
vn 0.5 -0.652832 -0.5693359
vn 0.25 0.3920898 0.8852539
vn -0.04858398 0.06341553 0.996582
vn 0.5600586 0.6733398 0.482666
vn 0.800293 0.5996094 -0.01629639
vn 0.9082031 0.2043457 -0.3652344
vn 0.7641602 -0.2246094 -0.6049805
vn 0.442627 -0.5776367 -0.6855469
vn 0.2866211 0.3120117 0.9057617
vn -0.02389526 0.03120422 0.9990234
vn 0.2678223 0.2512207 0.9301758
vn 0.5957031 0.5849609 0.550293
vn 0.6162109 0.5351563 0.5776367
vn 0.5683594 0.46875 0.6762695
vn 0.7954102 0.6054688 -0.0302124
vn 0.8632813 0.2602539 -0.4321289
vn 0.6918945 -0.1311035 -0.7099609
vn 0.3615723 -0.472168 -0.8037109
vn 0.7910156 0.6118164 -0.01322937
vn 0.2961426 0.8994141 -0.3212891
vn 0.7919922 0.6103516 -0.01378632
vn 0.7817383 0.3457031 -0.519043
vn 0.5625 0.01198578 -0.8266602
vn 0.2288818 -0.2988281 -0.9262695
vn 0.7119141 0.4187012 -0.5634766
vn 0.4438477 0.1328125 -0.8862305
vn 0.1118164 -0.1459961 -0.9829102
vn 0.6694336 0.453125 -0.5888672
vn 0.3776855 0.1901855 -0.90625
vn 0.05331421 -0.06958008 -0.9960938
vn 0.2102051 0.6821289 -0.7001953
vn -0.0008792877 0.4614258 -0.887207
vn -0.4714355 0.6152344 -0.6318359
vn -0.2167969 0.2832031 -0.934082
vn -0.4714355 0.6152344 -0.6318359
vn -0.4453125 0.1210327 -0.887207
vn -0.4714355 0.6152344 -0.6318359
vn -0.7133789 -0.02537537 -0.7001953
vn -0.4714355 0.6152344 -0.6318359
vn -0.9453125 -0.05181885 -0.3212891
vn -0.4714355 0.6152344 -0.6318359
vn 0 0 -1
vn 0 0 -1
vn 0 0 -1
vn 0 0 -1
vn 0 0 -1
vn 0 0 -1
vn 0 0 -1
vn 0 0 -1
vn 0 0 -1
vn 0 0 -1
vn 0 0 -1
vn 0 0 -1
vn -0.3908691 -0.2995605 0.8701172
vn -0.4882813 -0.06390381 0.8701172
vn -0.454834 0.1888428 0.8701172
vn -0.2995605 0.3908691 0.8701172
vn -0.1888428 -0.454834 0.8701172
vn -0.06390381 0.4882813 0.8701172
vn 0.06390381 -0.4882813 0.8701172
vn -0.1020508 0.7797852 0.6176758
vn -0.4782715 0.6245117 0.6176758
vn 0.3015137 0.7265625 0.6176758
vn 0.1888428 0.454834 0.8701172
vn 0.6245117 0.4782715 0.6176758
vn 0.2995605 -0.3908691 0.8701172
vn 0.3908691 0.2995605 0.8701172
vn 0.7797852 0.1020508 0.6176758
vn 0.454834 -0.1888428 0.8701172
vn 0.4782715 -0.6245117 0.6176758
vn 0.7265625 -0.3015137 0.6176758
vn 0.4882813 0.06390381 0.8701172
vn 0.1020508 -0.7797852 0.6176758
vn 0.2995605 -0.3908691 0.8701172
vn 0.4782715 -0.6245117 0.6176758
vn 0.06390381 -0.4882813 0.8701172
vn -0.3015137 -0.7265625 0.6176758
vn -0.1888428 -0.454834 0.8701172
vn -0.6245117 -0.4782715 0.6176758
vn -0.3908691 -0.2995605 0.8701172
vn -0.7797852 -0.1020508 0.6176758
vn -0.4882813 -0.06390381 0.8701172
vn -0.7265625 0.3015137 0.6176758
vn -0.454834 0.1888428 0.8701172
vn -0.4782715 0.6245117 0.6176758
vn -0.2995605 0.3908691 0.8701172
vn 0 0 -1
vn 0 0 -1
vn 0 0 -1
vn 0 0 -1
vn 0 0 -1
vn 0 0 -1
vn 0 0 -1
vn 0 0 -1
vn 0 0 -1
vn 0 0 -1
vn 0 0 -1
vn 0 0 -1
vn -0.3815918 -0.2922363 0.8769531
vn -0.4765625 -0.06234741 0.8769531
vn -0.4440918 0.1843262 0.8769531
vn -0.2922363 0.3815918 0.8769531
vn -0.1843262 -0.4440918 0.8769531
vn -0.4689941 0.6123047 0.6367188
vn -0.7124023 0.2956543 0.6367188
vn -0.1000366 0.7646484 0.6367188
vn -0.06234741 0.4765625 0.8769531
vn 0.06234741 -0.4765625 0.8769531
vn 0.2956543 0.7119141 0.6367188
vn 0.1843262 0.4440918 0.8769531
vn 0.6123047 0.4689941 0.6367188
vn 0.2922363 -0.3815918 0.8769531
vn 0.3815918 0.2922363 0.8769531
vn 0.7646484 0.1000366 0.6367188
vn 0.4440918 -0.1843262 0.8769531
vn 0.4689941 -0.6123047 0.6367188
vn 0.7124023 -0.2956543 0.6367188
vn 0.4765625 0.06234741 0.8769531
vn 0.1000366 -0.7646484 0.6367188
vn 0.2922363 -0.3815918 0.8769531
vn 0.4689941 -0.6123047 0.6367188
vn 0.06234741 -0.4765625 0.8769531
vn -0.2956543 -0.7119141 0.6367188
vn -0.1843262 -0.4440918 0.8769531
vn -0.6123047 -0.4689941 0.6367188
vn -0.3815918 -0.2922363 0.8769531
vn -0.7646484 -0.1000366 0.6367188
vn -0.4765625 -0.06234741 0.8769531
vn -0.7124023 0.2956543 0.6367188
vn -0.4440918 0.1843262 0.8769531
vn 0 0 -1
vn 0 0 -1
vn 0 0 -1
vn 0 0 -1
vn 0 0 -1
vn 0 0 -1
vn 0 0 -1
vn 0 0 -1
vn 0 0 -1
vn 0 0 -1
vn 0 0 -1
vn 0 0 -1
vn -0.3815918 -0.2922363 0.8769531
vn -0.4765625 -0.06234741 0.8769531
vn -0.4440918 0.1843262 0.8769531
vn -0.2922363 0.3815918 0.8769531
vn -0.1843262 -0.4440918 0.8769531
vn -0.4689941 0.6123047 0.6367188
vn -0.7119141 0.2956543 0.6367188
vn -0.1000366 0.7646484 0.6367188
vn -0.06234741 0.4765625 0.8769531
vn 0.06234741 -0.4765625 0.8769531
vn 0.2956543 0.7124023 0.6367188
vn 0.1843262 0.4440918 0.8769531
vn 0.6123047 0.4689941 0.6367188
vn 0.2922363 -0.3815918 0.8769531
vn 0.3815918 0.2922363 0.8769531
vn 0.7646484 0.1000366 0.6367188
vn 0.4440918 -0.1843262 0.8769531
vn 0.4689941 -0.6123047 0.6367188
vn 0.7124023 -0.2956543 0.6367188
vn 0.4765625 0.06234741 0.8769531
vn 0.1000366 -0.7646484 0.6367188
vn 0.2922363 -0.3815918 0.8769531
vn 0.4689941 -0.6123047 0.6367188
vn 0.06234741 -0.4765625 0.8769531
vn -0.2956543 -0.7124023 0.6367188
vn -0.1843262 -0.4440918 0.8769531
vn -0.6123047 -0.4689941 0.6367188
vn -0.3815918 -0.2922363 0.8769531
vn -0.7646484 -0.1000366 0.6367188
vn -0.4765625 -0.06234741 0.8769531
vn -0.7119141 0.2956543 0.6367188
vn -0.4440918 0.1843262 0.8769531
vn -0.09411621 0.7192383 -0.6879883
vn -0.6699219 0.2783203 -0.6879883
vn -0.5761719 -0.4411621 -0.6879883
vn 0.09411621 -0.7192383 -0.6879883
vn 0.5761719 0.4411621 -0.6879883
vn -0.1268311 0.9697266 -0.2097168
vn 0.7763672 0.5947266 -0.2097168
vn 0.6699219 -0.2783203 -0.6879883
vn 0.902832 -0.375 -0.2097168
vn 0.1268311 -0.9697266 -0.2097168
vn 0 0 1
vn 0 0 1
vn 0 0 1
vn 0 0 1
vn 0 0 1
vn 0 0 1
vn -0.6699219 0.2783203 -0.6879883
vn -0.09411621 0.7192383 -0.6879883
vn -0.1268311 0.9697266 -0.2097168
vn -0.902832 0.375 -0.2097168
vn -0.7763672 -0.5947266 -0.2097168
vn -0.5761719 -0.4411621 -0.6879883
vn 0.1268311 -0.9697266 -0.2097168
vn 0.09411621 -0.7192383 -0.6879883
vn 0 0 1
vn 0 0 1
vn 0 0 1
vn 0 0 1
vn 0 0 1
vn 0 0 1
vn -0.6699219 0.2783203 -0.6879883
vn -0.1268311 0.9697266 -0.2097168
vn -0.902832 0.375 -0.2097168
vn -0.09411621 0.7192383 -0.6879883
vn -0.5761719 -0.4411621 -0.6879883
vn 0.09411621 -0.7192383 -0.6879883
vn 0.5761719 0.4411621 -0.6879883
vn 0.7763672 0.5947266 -0.2097168
vn 0.6699219 -0.2783203 -0.6879883
vn 0.902832 -0.375 -0.2097168
vn -0.6699219 0.2783203 -0.6879883
vn -0.902832 0.375 -0.2097168
vn -0.7763672 -0.5947266 -0.2097168
vn -0.5761719 -0.4411621 -0.6879883
vn 0.1268311 -0.9697266 -0.2097168
vn 0.09411621 -0.7192383 -0.6879883
vn 0.902832 -0.375 -0.2097168
vn 0.6699219 -0.2783203 -0.6879883
vn 0.09411621 -0.7192383 -0.6879883
vn 0.902832 -0.375 -0.2097168
vn 0.6699219 -0.2783203 -0.6879883
vn 0.1268311 -0.9697266 -0.2097168
vn -0.5761719 -0.4411621 -0.6879883
vn -0.7763672 -0.5947266 -0.2097168
vn -0.6699219 0.2783203 -0.6879883
vn -0.902832 0.375 -0.2097168
vn 0 0 1
vn 0 0 1
vn 0 0 1
vn 0 0 1
vn 0 0 1
vn 0 0 1
vn -0.6699219 0.2783203 -0.6879883
vn -0.1268311 0.9697266 -0.2097168
vn -0.902832 0.375 -0.2097168
vn -0.09411621 0.7192383 -0.6879883
vn -0.5761719 -0.4411621 -0.6879883
vn 0.09411621 -0.7192383 -0.6879883
vn 0.5761719 0.4411621 -0.6879883
vn 0.7763672 0.5947266 -0.2097168
vn 0.6699219 -0.2783203 -0.6879883
vn 0.902832 -0.375 -0.2097168
g Lamp.002_0
f 3/3/3 2/2/2 1/1/1
f 2/2/2 4/4/4 1/1/1
f 1/1/1 4/4/4 5/5/5
f 2/2/2 6/6/6 4/4/4
f 4/4/4 7/7/7 5/5/5
f 5/5/5 7/7/7 8/8/8
f 6/6/6 9/9/9 4/4/4
f 4/4/4 9/9/9 7/7/7
f 6/6/6 10/10/10 9/9/9
f 7/7/7 11/11/11 8/8/8
f 8/8/8 11/11/11 12/12/12
f 10/10/10 13/13/13 9/9/9
f 10/10/10 14/14/14 13/13/13
f 9/9/9 15/15/15 7/7/7
f 7/7/7 15/15/15 11/11/11
f 9/9/9 13/13/13 15/15/15
f 11/11/11 16/16/16 12/12/12
f 12/12/12 16/16/16 17/17/17
f 14/14/14 18/18/18 13/13/13
f 14/14/14 19/19/19 18/18/18
f 13/13/13 20/20/20 15/15/15
f 13/13/13 18/18/18 20/20/20
f 15/15/15 21/21/21 11/11/11
f 11/11/11 21/21/21 16/16/16
f 15/15/15 20/20/20 21/21/21
f 16/16/16 22/22/22 17/17/17
f 17/17/17 22/22/22 23/23/23
f 19/19/19 24/24/24 18/18/18
f 19/19/19 25/25/25 24/24/24
f 25/25/25 26/26/26 24/24/24
f 21/21/21 27/27/27 16/16/16
f 16/16/16 27/27/27 22/22/22
f 18/18/18 28/28/28 20/20/20
f 18/18/18 24/24/24 28/28/28
f 24/24/24 26/26/26 29/29/29
f 24/24/24 29/29/29 28/28/28
f 26/26/26 30/30/30 29/29/29
f 20/20/20 31/31/31 21/21/21
f 20/20/20 28/28/28 31/31/31
f 21/21/21 31/31/31 27/27/27
f 22/22/22 32/32/32 23/23/23
f 23/23/23 32/32/32 33/33/33
f 29/29/29 30/30/30 34/34/34
f 30/30/30 35/35/35 34/34/34
f 28/28/28 29/29/29 36/36/36
f 28/28/28 36/36/36 31/31/31
f 29/29/29 34/34/34 36/36/36
f 31/31/31 37/37/37 27/27/27
f 31/31/31 36/36/36 37/37/37
f 27/27/27 38/38/38 22/22/22
f 22/22/22 38/38/38 32/32/32
f 27/27/27 37/37/37 38/38/38
f 32/32/32 39/39/39 33/33/33
f 33/33/33 39/39/39 40/40/40
f 39/39/39 41/41/41 40/40/40
f 34/34/34 35/35/35 42/42/42
f 35/35/35 43/43/43 42/42/42
f 36/36/36 34/34/34 44/44/44
f 36/36/36 44/44/44 37/37/37
f 34/34/34 42/42/42 44/44/44
f 37/37/37 45/45/45 38/38/38
f 37/37/37 44/44/44 45/45/45
f 38/38/38 46/46/46 32/32/32
f 32/32/32 46/46/46 39/39/39
f 38/38/38 45/45/45 46/46/46
f 39/39/39 47/47/47 41/41/41
f 46/46/46 47/47/47 39/39/39
f 47/47/47 48/48/48 41/41/41
f 42/42/42 43/43/43 49/49/49
f 43/43/43 50/50/50 49/49/49
f 44/44/44 42/42/42 51/51/51
f 44/44/44 51/51/51 45/45/45
f 42/42/42 49/49/49 51/51/51
f 45/45/45 52/52/52 46/46/46
f 46/46/46 52/52/52 47/47/47
f 45/45/45 51/51/51 52/52/52
f 47/47/47 53/53/53 48/48/48
f 52/52/52 53/53/53 47/47/47
f 53/53/53 54/54/54 48/48/48
f 51/51/51 55/55/55 52/52/52
f 51/51/51 49/49/49 55/55/55
f 52/52/52 55/55/55 53/53/53
f 49/49/49 50/50/50 56/56/56
f 49/49/49 56/56/56 55/55/55
f 50/50/50 57/57/57 56/56/56
f 53/53/53 58/58/58 54/54/54
f 55/55/55 58/58/58 53/53/53
f 55/55/55 56/56/56 58/58/58
f 58/58/58 59/59/59 54/54/54
f 56/56/56 57/57/57 60/60/60
f 56/56/56 60/60/60 58/58/58
f 58/58/58 60/60/60 59/59/59
f 57/57/57 61/61/61 60/60/60
f 60/60/60 62/62/62 59/59/59
f 60/60/60 61/61/61 62/62/62
f 61/61/61 63/63/63 62/62/62
f 66/66/66 65/65/65 64/64/64
f 65/65/65 67/67/67 64/64/64
f 64/64/64 67/67/67 68/68/68
f 65/65/65 69/69/69 67/67/67
f 67/67/67 70/70/70 68/68/68
f 68/68/68 70/70/70 71/71/71
f 69/69/69 72/72/72 67/67/67
f 67/67/67 72/72/72 70/70/70
f 69/69/69 73/73/73 72/72/72
f 70/70/70 74/74/74 71/71/71
f 71/71/71 74/74/74 75/75/75
f 73/73/73 76/76/76 72/72/72
f 73/73/73 77/77/77 76/76/76
f 72/72/72 78/78/78 70/70/70
f 70/70/70 78/78/78 74/74/74
f 72/72/72 76/76/76 78/78/78
f 74/74/74 79/79/79 75/75/75
f 75/75/75 79/79/79 80/80/80
f 77/77/77 81/81/81 76/76/76
f 77/77/77 82/82/82 81/81/81
f 76/76/76 83/83/83 78/78/78
f 76/76/76 81/81/81 83/83/83
f 78/78/78 84/84/84 74/74/74
f 74/74/74 84/84/84 79/79/79
f 78/78/78 83/83/83 84/84/84
f 79/79/79 85/85/85 80/80/80
f 80/80/80 85/85/85 86/86/86
f 82/82/82 87/87/87 81/81/81
f 82/82/82 88/88/88 87/87/87
f 88/88/88 89/89/89 87/87/87
f 84/84/84 90/90/90 79/79/79
f 79/79/79 90/90/90 85/85/85
f 83/83/83 91/91/91 84/84/84
f 84/84/84 91/91/91 90/90/90
f 81/81/81 92/92/92 83/83/83
f 81/81/81 87/87/87 92/92/92
f 83/83/83 92/92/92 91/91/91
f 87/87/87 89/89/89 93/93/93
f 87/87/87 93/93/93 92/92/92
f 89/89/89 94/94/94 93/93/93
f 85/85/85 95/95/95 86/86/86
f 86/86/86 95/95/95 96/96/96
f 90/90/90 97/97/97 85/85/85
f 85/85/85 97/97/97 95/95/95
f 91/91/91 98/98/98 90/90/90
f 90/90/90 98/98/98 97/97/97
f 92/92/92 99/99/99 91/91/91
f 92/92/92 93/93/93 99/99/99
f 91/91/91 99/99/99 98/98/98
f 93/93/93 94/94/94 100/100/100
f 93/93/93 100/100/100 99/99/99
f 94/94/94 101/101/101 100/100/100
f 95/95/95 102/102/102 96/96/96
f 96/96/96 102/102/102 103/103/103
f 102/102/102 104/104/104 103/103/103
f 97/97/97 105/105/105 95/95/95
f 95/95/95 105/105/105 102/102/102
f 102/102/102 106/106/106 104/104/104
f 105/105/105 106/106/106 102/102/102
f 106/106/106 107/107/107 104/104/104
f 98/98/98 108/108/108 97/97/97
f 97/97/97 108/108/108 105/105/105
f 99/99/99 109/109/109 98/98/98
f 99/99/99 100/100/100 109/109/109
f 98/98/98 109/109/109 108/108/108
f 100/100/100 101/101/101 110/110/110
f 100/100/100 110/110/110 109/109/109
f 101/101/101 111/111/111 110/110/110
f 106/106/106 112/112/112 107/107/107
f 112/112/112 113/113/113 107/107/107
f 105/105/105 114/114/114 106/106/106
f 108/108/108 114/114/114 105/105/105
f 114/114/114 112/112/112 106/106/106
f 109/109/109 115/115/115 108/108/108
f 109/109/109 110/110/110 115/115/115
f 108/108/108 115/115/115 114/114/114
f 110/110/110 111/111/111 116/116/116
f 110/110/110 116/116/116 115/115/115
f 111/111/111 117/117/117 116/116/116
f 115/115/115 118/118/118 114/114/114
f 114/114/114 118/118/118 112/112/112
f 115/115/115 116/116/116 118/118/118
f 116/116/116 117/117/117 119/119/119
f 116/116/116 119/119/119 118/118/118
f 117/117/117 120/120/120 119/119/119
f 118/118/118 121/121/121 112/112/112
f 118/118/118 119/119/119 121/121/121
f 112/112/112 121/121/121 113/113/113
f 119/119/119 120/120/120 122/122/122
f 119/119/119 122/122/122 121/121/121
f 120/120/120 123/123/123 122/122/122
f 121/121/121 122/122/122 124/124/124
f 121/121/121 124/124/124 113/113/113
f 122/122/122 123/123/123 125/125/125
f 122/122/122 125/125/125 124/124/124
f 123/123/123 126/126/126 125/125/125
f 125/125/125 126/126/126 127/127/127
f 127/127/127 128/128/128 125/125/125
f 128/128/128 124/124/124 125/125/125
f 128/128/128 129/129/129 124/124/124
f 129/129/129 113/113/113 124/124/124
f 129/129/129 130/130/130 113/113/113
f 130/130/130 131/131/131 113/113/113
f 130/130/130 132/132/132 131/131/131
f 132/132/132 133/133/133 131/131/131
f 132/132/132 134/134/134 133/133/133
f 137/137/137 136/136/136 135/135/135
f 136/136/136 138/138/138 135/135/135
f 136/136/136 139/139/139 138/138/138
f 139/139/139 140/140/140 138/138/138
f 138/138/138 140/140/140 141/141/141
f 135/135/135 138/138/138 142/142/142
f 142/142/142 138/138/138 141/141/141
f 143/143/143 135/135/135 142/142/142
f 143/143/143 142/142/142 144/144/144
f 142/142/142 145/145/145 144/144/144
f 142/142/142 141/141/141 145/145/145
f 141/141/141 146/146/146 145/145/145
f 149/149/149 148/148/148 147/147/147
f 147/147/147 150/150/150 149/149/149
f 147/147/147 151/151/151 150/150/150
f 150/150/150 152/152/152 149/149/149
f 152/152/152 153/153/153 149/149/149
f 151/151/151 154/154/154 150/150/150
f 151/151/151 155/155/155 154/154/154
f 154/154/154 156/156/156 150/150/150
f 155/155/155 156/156/156 154/154/154
f 156/156/156 152/152/152 150/150/150
f 155/155/155 157/157/157 156/156/156
f 157/157/157 158/158/158 156/156/156
f 156/156/156 158/158/158 152/152/152
f 158/158/158 159/159/159 152/152/152
f 152/152/152 159/159/159 153/153/153
f 159/159/159 160/160/160 153/153/153
f 163/163/163 162/162/162 161/161/161
f 161/161/161 164/164/164 163/163/163
f 161/161/161 165/165/165 164/164/164
f 165/165/165 166/166/166 164/164/164
f 169/169/169 168/168/168 167/167/167
f 167/167/167 170/170/170 169/169/169
f 170/170/170 171/171/171 169/169/169
f 170/170/170 172/172/172 171/171/171
f 175/175/175 174/174/174 173/173/173
f 174/174/174 176/176/176 173/173/173
f 176/176/176 174/174/174 177/177/177
f 174/174/174 178/178/178 177/177/177
f 177/177/177 178/178/178 179/179/179
f 178/178/178 180/180/180 179/179/179
f 183/183/183 182/182/182 181/181/181
f 184/184/184 183/183/183 181/181/181
f 185/185/185 183/183/183 184/184/184
f 186/186/186 185/185/185 184/184/184
f 187/187/187 185/185/185 186/186/186
f 188/188/188 187/187/187 186/186/186
f 191/191/191 190/190/190 189/189/189
f 190/190/190 192/192/192 189/189/189
f 189/189/189 192/192/192 193/193/193
f 190/190/190 194/194/194 192/192/192
f 192/192/192 195/195/195 193/193/193
f 193/193/193 195/195/195 196/196/196
f 194/194/194 197/197/197 192/192/192
f 192/192/192 197/197/197 195/195/195
f 194/194/194 198/198/198 197/197/197
f 195/195/195 199/199/199 196/196/196
f 196/196/196 199/199/199 200/200/200
f 198/198/198 201/201/201 197/197/197
f 198/198/198 202/202/202 201/201/201
f 197/197/197 203/203/203 195/195/195
f 195/195/195 203/203/203 199/199/199
f 197/197/197 201/201/201 203/203/203
f 199/199/199 204/204/204 200/200/200
f 200/200/200 204/204/204 205/205/205
f 202/202/202 206/206/206 201/201/201
f 202/202/202 207/207/207 206/206/206
f 201/201/201 208/208/208 203/203/203
f 201/201/201 206/206/206 208/208/208
f 203/203/203 209/209/209 199/199/199
f 199/199/199 209/209/209 204/204/204
f 203/203/203 208/208/208 209/209/209
f 204/204/204 210/210/210 205/205/205
f 205/205/205 210/210/210 211/211/211
f 207/207/207 212/212/212 206/206/206
f 207/207/207 213/213/213 212/212/212
f 213/213/213 214/214/214 212/212/212
f 209/209/209 215/215/215 204/204/204
f 204/204/204 215/215/215 210/210/210
f 206/206/206 216/216/216 208/208/208
f 206/206/206 212/212/212 216/216/216
f 212/212/212 214/214/214 217/217/217
f 212/212/212 217/217/217 216/216/216
f 214/214/214 218/218/218 217/217/217
f 208/208/208 219/219/219 209/209/209
f 208/208/208 216/216/216 219/219/219
f 209/209/209 219/219/219 215/215/215
f 210/210/210 220/220/220 211/211/211
f 211/211/211 220/220/220 221/221/221
f 217/217/217 218/218/218 222/222/222
f 218/218/218 223/223/223 222/222/222
f 216/216/216 217/217/217 224/224/224
f 216/216/216 224/224/224 219/219/219
f 217/217/217 222/222/222 224/224/224
f 219/219/219 225/225/225 215/215/215
f 219/219/219 224/224/224 225/225/225
f 215/215/215 226/226/226 210/210/210
f 210/210/210 226/226/226 220/220/220
f 215/215/215 225/225/225 226/226/226
f 220/220/220 227/227/227 221/221/221
f 221/221/221 227/227/227 228/228/228
f 227/227/227 229/229/229 228/228/228
f 222/222/222 223/223/223 230/230/230
f 223/223/223 231/231/231 230/230/230
f 224/224/224 222/222/222 232/232/232
f 224/224/224 232/232/232 225/225/225
f 222/222/222 230/230/230 232/232/232
f 225/225/225 233/233/233 226/226/226
f 225/225/225 232/232/232 233/233/233
f 226/226/226 234/234/234 220/220/220
f 220/220/220 234/234/234 227/227/227
f 226/226/226 233/233/233 234/234/234
f 227/227/227 235/235/235 229/229/229
f 234/234/234 235/235/235 227/227/227
f 235/235/235 236/236/236 229/229/229
f 230/230/230 231/231/231 237/237/237
f 231/231/231 238/238/238 237/237/237
f 232/232/232 230/230/230 239/239/239
f 232/232/232 239/239/239 233/233/233
f 230/230/230 237/237/237 239/239/239
f 233/233/233 240/240/240 234/234/234
f 234/234/234 240/240/240 235/235/235
f 233/233/233 239/239/239 240/240/240
f 235/235/235 241/241/241 236/236/236
f 240/240/240 241/241/241 235/235/235
f 241/241/241 242/242/242 236/236/236
f 239/239/239 243/243/243 240/240/240
f 239/239/239 237/237/237 243/243/243
f 240/240/240 243/243/243 241/241/241
f 237/237/237 238/238/238 244/244/244
f 237/237/237 244/244/244 243/243/243
f 238/238/238 245/245/245 244/244/244
f 241/241/241 246/246/246 242/242/242
f 243/243/243 246/246/246 241/241/241
f 243/243/243 244/244/244 246/246/246
f 246/246/246 247/247/247 242/242/242
f 244/244/244 245/245/245 248/248/248
f 244/244/244 248/248/248 246/246/246
f 246/246/246 248/248/248 247/247/247
f 245/245/245 249/249/249 248/248/248
f 248/248/248 250/250/250 247/247/247
f 248/248/248 249/249/249 250/250/250
f 249/249/249 251/251/251 250/250/250
f 254/254/254 253/253/253 252/252/252
f 253/253/253 255/255/255 252/252/252
f 252/252/252 255/255/255 256/256/256
f 253/253/253 257/257/257 255/255/255
f 255/255/255 258/258/258 256/256/256
f 256/256/256 258/258/258 259/259/259
f 257/257/257 260/260/260 255/255/255
f 255/255/255 260/260/260 258/258/258
f 257/257/257 261/261/261 260/260/260
f 258/258/258 262/262/262 259/259/259
f 259/259/259 262/262/262 263/263/263
f 261/261/261 264/264/264 260/260/260
f 261/261/261 265/265/265 264/264/264
f 260/260/260 266/266/266 258/258/258
f 258/258/258 266/266/266 262/262/262
f 260/260/260 264/264/264 266/266/266
f 262/262/262 267/267/267 263/263/263
f 263/263/263 267/267/267 268/268/268
f 265/265/265 269/269/269 264/264/264
f 265/265/265 270/270/270 269/269/269
f 264/264/264 271/271/271 266/266/266
f 264/264/264 269/269/269 271/271/271
f 266/266/266 272/272/272 262/262/262
f 262/262/262 272/272/272 267/267/267
f 266/266/266 271/271/271 272/272/272
f 267/267/267 273/273/273 268/268/268
f 268/268/268 273/273/273 274/274/274
f 270/270/270 275/275/275 269/269/269
f 270/270/270 276/276/276 275/275/275
f 276/276/276 277/277/277 275/275/275
f 272/272/272 278/278/278 267/267/267
f 267/267/267 278/278/278 273/273/273
f 271/271/271 279/279/279 272/272/272
f 272/272/272 279/279/279 278/278/278
f 269/269/269 280/280/280 271/271/271
f 269/269/269 275/275/275 280/280/280
f 271/271/271 280/280/280 279/279/279
f 275/275/275 277/277/277 281/281/281
f 275/275/275 281/281/281 280/280/280
f 277/277/277 282/282/282 281/281/281
f 273/273/273 283/283/283 274/274/274
f 274/274/274 283/283/283 284/284/284
f 278/278/278 285/285/285 273/273/273
f 273/273/273 285/285/285 283/283/283
f 279/279/279 286/286/286 278/278/278
f 278/278/278 286/286/286 285/285/285
f 280/280/280 287/287/287 279/279/279
f 280/280/280 281/281/281 287/287/287
f 279/279/279 287/287/287 286/286/286
f 281/281/281 282/282/282 288/288/288
f 281/281/281 288/288/288 287/287/287
f 282/282/282 289/289/289 288/288/288
f 283/283/283 290/290/290 284/284/284
f 284/284/284 290/290/290 291/291/291
f 290/290/290 292/292/292 291/291/291
f 285/285/285 293/293/293 283/283/283
f 283/283/283 293/293/293 290/290/290
f 290/290/290 294/294/294 292/292/292
f 293/293/293 294/294/294 290/290/290
f 294/294/294 295/295/295 292/292/292
f 286/286/286 296/296/296 285/285/285
f 285/285/285 296/296/296 293/293/293
f 287/287/287 297/297/297 286/286/286
f 287/287/287 288/288/288 297/297/297
f 286/286/286 297/297/297 296/296/296
f 288/288/288 289/289/289 298/298/298
f 288/288/288 298/298/298 297/297/297
f 289/289/289 299/299/299 298/298/298
f 294/294/294 300/300/300 295/295/295
f 300/300/300 301/301/301 295/295/295
f 293/293/293 302/302/302 294/294/294
f 296/296/296 302/302/302 293/293/293
f 302/302/302 300/300/300 294/294/294
f 297/297/297 303/303/303 296/296/296
f 297/297/297 298/298/298 303/303/303
f 296/296/296 303/303/303 302/302/302
f 298/298/298 299/299/299 304/304/304
f 298/298/298 304/304/304 303/303/303
f 299/299/299 305/305/305 304/304/304
f 303/303/303 306/306/306 302/302/302
f 302/302/302 306/306/306 300/300/300
f 303/303/303 304/304/304 306/306/306
f 304/304/304 305/305/305 307/307/307
f 304/304/304 307/307/307 306/306/306
f 305/305/305 308/308/308 307/307/307
f 306/306/306 309/309/309 300/300/300
f 306/306/306 307/307/307 309/309/309
f 300/300/300 309/309/309 301/301/301
f 307/307/307 308/308/308 310/310/310
f 307/307/307 310/310/310 309/309/309
f 308/308/308 311/311/311 310/310/310
f 309/309/309 312/312/312 301/301/301
f 309/309/309 310/310/310 312/312/312
f 310/310/310 311/311/311 313/313/313
f 310/310/310 313/313/313 312/312/312
f 301/301/301 312/312/312 313/313/313
f 313/313/313 314/314/314 301/301/301
f 311/311/311 315/315/315 313/313/313
f 313/313/313 315/315/315 314/314/314
f 315/315/315 316/316/316 314/314/314
f 315/315/315 317/317/317 316/316/316
f 317/317/317 318/318/318 316/316/316
f 317/317/317 319/319/319 318/318/318
f 319/319/319 320/320/320 318/318/318
f 319/319/319 321/321/321 320/320/320
f 321/321/321 322/322/322 320/320/320
f 325/325/325 324/324/324 323/323/323
f 323/323/323 326/326/326 325/325/325
f 326/326/326 327/327/327 325/325/325
f 326/326/326 328/328/328 327/327/327
f 328/328/328 329/329/329 327/327/327
f 328/328/328 330/330/330 329/329/329
f 330/330/330 331/331/331 329/329/329
f 330/330/330 332/332/332 331/331/331
f 332/332/332 333/333/333 331/331/331
f 332/332/332 334/334/334 333/333/333
f 337/337/337 336/336/336 335/335/335
f 338/338/338 337/337/337 335/335/335
f 338/338/338 335/335/335 339/339/339
f 340/340/340 338/338/338 339/339/339
f 340/340/340 339/339/339 341/341/341
f 338/338/338 340/340/340 342/342/342
f 343/343/343 338/338/338 342/342/342
f 342/342/342 340/340/340 344/344/344
f 345/345/345 340/340/340 341/341/341
f 340/340/340 345/345/345 344/344/344
f 344/344/344 345/345/345 346/346/346
f 345/345/345 341/341/341 347/347/347
f 345/345/345 348/348/348 346/346/346
f 348/348/348 345/345/345 347/347/347
f 346/346/346 348/348/348 349/349/349
f 348/348/348 347/347/347 350/350/350
f 350/350/350 347/347/347 351/351/351
f 352/352/352 350/350/350 351/351/351
f 348/348/348 353/353/353 349/349/349
f 350/350/350 353/353/353 348/348/348
f 353/353/353 350/350/350 352/352/352
f 349/349/349 353/353/353 352/352/352
f 356/356/356 355/355/355 354/354/354
f 355/355/355 357/357/357 354/354/354
f 354/354/354 357/357/357 358/358/358
f 357/357/357 359/359/359 358/358/358
f 358/358/358 359/359/359 360/360/360
f 359/359/359 361/361/361 360/360/360
f 360/360/360 361/361/361 362/362/362
f 361/361/361 363/363/363 362/362/362
f 362/362/362 363/363/363 364/364/364
f 363/363/363 365/365/365 364/364/364
f 364/364/364 365/365/365 366/366/366
f 365/365/365 367/367/367 366/366/366
f 370/370/370 369/369/369 368/368/368
f 368/368/368 371/371/371 370/370/370
f 371/371/371 372/372/372 370/370/370
f 371/371/371 373/373/373 372/372/372
f 373/373/373 374/374/374 372/372/372
f 373/373/373 375/375/375 374/374/374
f 375/375/375 376/376/376 374/374/374
f 375/375/375 377/377/377 376/376/376
f 377/377/377 378/378/378 376/376/376
f 377/377/377 379/379/379 378/378/378
f 382/382/382 381/381/381 380/380/380
f 383/383/383 382/382/382 380/380/380
f 383/383/383 380/380/380 384/384/384
f 382/382/382 383/383/383 385/385/385
f 386/386/386 382/382/382 385/385/385
f 385/385/385 383/383/383 387/387/387
f 388/388/388 383/383/383 384/384/384
f 383/383/383 388/388/388 387/387/387
f 388/388/388 384/384/384 389/389/389
f 387/387/387 388/388/388 390/390/390
f 391/391/391 388/388/388 389/389/389
f 388/388/388 391/391/391 390/390/390
f 390/390/390 391/391/391 392/392/392
f 391/391/391 389/389/389 393/393/393
f 391/391/391 394/394/394 392/392/392
f 394/394/394 391/391/391 393/393/393
f 392/392/392 394/394/394 395/395/395
f 394/394/394 393/393/393 396/396/396
f 396/396/396 393/393/393 397/397/397
f 398/398/398 396/396/396 397/397/397
f 394/394/394 399/399/399 395/395/395
f 396/396/396 399/399/399 394/394/394
f 399/399/399 396/396/396 398/398/398
f 395/395/395 399/399/399 398/398/398
f 402/402/402 401/401/401 400/400/400
f 401/401/401 403/403/403 400/400/400
f 400/400/400 403/403/403 404/404/404
f 403/403/403 405/405/405 404/404/404
f 404/404/404 405/405/405 406/406/406
f 405/405/405 407/407/407 406/406/406
f 406/406/406 407/407/407 408/408/408
f 407/407/407 409/409/409 408/408/408
f 408/408/408 409/409/409 410/410/410
f 409/409/409 411/411/411 410/410/410
f 414/414/414 413/413/413 412/412/412
f 412/412/412 415/415/415 414/414/414
f 415/415/415 416/416/416 414/414/414
f 415/415/415 417/417/417 416/416/416
f 417/417/417 418/418/418 416/416/416
f 417/417/417 419/419/419 418/418/418
f 419/419/419 420/420/420 418/418/418
f 419/419/419 421/421/421 420/420/420
f 421/421/421 422/422/422 420/420/420
f 421/421/421 423/423/423 422/422/422
f 426/426/426 425/425/425 424/424/424
f 427/427/427 426/426/426 424/424/424
f 427/427/427 424/424/424 428/428/428
f 426/426/426 427/427/427 429/429/429
f 430/430/430 426/426/426 429/429/429
f 429/429/429 427/427/427 431/431/431
f 432/432/432 427/427/427 428/428/428
f 427/427/427 432/432/432 431/431/431
f 432/432/432 428/428/428 433/433/433
f 431/431/431 432/432/432 434/434/434
f 435/435/435 432/432/432 433/433/433
f 432/432/432 435/435/435 434/434/434
f 434/434/434 435/435/435 436/436/436
f 435/435/435 433/433/433 437/437/437
f 435/435/435 438/438/438 436/436/436
f 438/438/438 435/435/435 437/437/437
f 436/436/436 438/438/438 439/439/439
f 438/438/438 437/437/437 440/440/440
f 440/440/440 437/437/437 441/441/441
f 442/442/442 440/440/440 441/441/441
f 438/438/438 443/443/443 439/439/439
f 440/440/440 443/443/443 438/438/438
f 443/443/443 440/440/440 442/442/442
f 439/439/439 443/443/443 442/442/442
f 446/446/446 445/445/445 444/444/444
f 445/445/445 447/447/447 444/444/444
f 444/444/444 447/447/447 448/448/448
f 447/447/447 449/449/449 448/448/448
f 448/448/448 449/449/449 450/450/450
f 449/449/449 451/451/451 450/450/450
f 450/450/450 451/451/451 452/452/452
f 451/451/451 453/453/453 452/452/452
f 452/452/452 453/453/453 454/454/454
f 453/453/453 455/455/455 454/454/454
f 458/458/458 457/457/457 456/456/456
f 459/459/459 458/458/458 456/456/456
f 459/459/459 456/456/456 460/460/460
f 456/456/456 461/461/461 460/460/460
f 461/461/461 462/462/462 460/460/460
f 460/460/460 462/462/462 463/463/463
f 460/460/460 463/463/463 459/459/459
f 462/462/462 464/464/464 463/463/463
f 463/463/463 464/464/464 459/459/459
f 464/464/464 465/465/465 459/459/459
f 468/468/468 467/467/467 466/466/466
f 466/466/466 469/469/469 468/468/468
f 469/469/469 470/470/470 468/468/468
f 469/469/469 471/471/471 470/470/470
f 474/474/474 473/473/473 472/472/472
f 475/475/475 474/474/474 472/472/472
f 476/476/476 475/475/475 472/472/472
f 477/477/477 476/476/476 472/472/472
f 478/478/478 476/476/476 477/477/477
f 479/479/479 478/478/478 477/477/477
f 482/482/482 481/481/481 480/480/480
f 480/480/480 483/483/483 482/482/482
f 483/483/483 484/484/484 482/482/482
f 483/483/483 485/485/485 484/484/484
f 488/488/488 487/487/487 486/486/486
f 487/487/487 489/489/489 486/486/486
f 490/490/490 486/486/486 489/489/489
f 491/491/491 490/490/490 489/489/489
f 489/489/489 487/487/487 492/492/492
f 491/491/491 489/489/489 492/492/492
f 487/487/487 493/493/493 492/492/492
f 492/492/492 494/494/494 491/491/491
f 492/492/492 493/493/493 494/494/494
f 493/493/493 495/495/495 494/494/494
f 498/498/498 497/497/497 496/496/496
f 499/499/499 498/498/498 496/496/496
f 500/500/500 498/498/498 499/499/499
f 501/501/501 500/500/500 499/499/499
f 502/502/502 500/500/500 501/501/501
f 503/503/503 502/502/502 501/501/501
f 506/506/506 505/505/505 504/504/504
f 505/505/505 507/507/507 504/504/504
f 504/504/504 507/507/507 508/508/508
f 507/507/507 509/509/509 508/508/508
f 508/508/508 509/509/509 510/510/510
f 509/509/509 511/511/511 510/510/510
f 514/514/514 513/513/513 512/512/512
f 512/512/512 515/515/515 514/514/514
f 515/515/515 516/516/516 514/514/514
f 515/515/515 517/517/517 516/516/516
f 520/520/520 519/519/519 518/518/518
f 519/519/519 521/521/521 518/518/518
f 522/522/522 518/518/518 521/521/521
f 523/523/523 522/522/522 521/521/521
f 521/521/521 519/519/519 524/524/524
f 523/523/523 521/521/521 524/524/524
f 519/519/519 525/525/525 524/524/524
f 524/524/524 526/526/526 523/523/523
f 524/524/524 525/525/525 526/526/526
f 525/525/525 527/527/527 526/526/526
