g Light
v 330.4481 152.2097 -209.8541
v 341.5687 143.9438 -200.833
v 335.0489 158.2608 -205.9212
v 328.8271 143.9438 -211.3698
v 341.397 160.4756 -200.6254
v 330.6206 135.678 -210.0627
v 347.7904 158.2608 -195.3843
v 335.3474 129.6268 -206.2821
v 352.5172 152.2097 -191.6037
v 341.7407 127.412 -201.041
v 354.3102 143.9438 -190.2961
v 348.0889 129.6268 -195.7453
v 352.6896 135.678 -191.8123
v 160.8435 152.2097 -350.1121
v 171.9641 143.9438 -341.091
v 165.4443 158.2608 -346.1792
v 159.2225 143.9438 -351.6278
v 171.7924 160.4756 -340.8834
v 161.016 135.678 -350.3207
v 178.1858 158.2608 -335.6423
v 165.7428 129.6268 -346.5401
v 182.9126 152.2097 -331.8617
v 172.1361 127.412 -341.299
v 184.7056 143.9438 -330.554
v 178.4843 129.6268 -336.0032
v 183.085 135.678 -332.0703
vt 0.1278076 0.8618164
vt 0.1263428 0.8632813
vt 0.1271973 0.862793
vt 0.1280518 0.8618164
vt 0.1263428 0.8632813
vt 0.1278076 0.8618164
vt 0.1254883 0.8642578
vt 0.1270752 0.8623047
vt 0.1248779 0.8647461
vt 0.1263428 0.8632813
vt 0.1246338 0.8652344
vt 0.1254883 0.8642578
vt 0.1248169 0.8647461
vt 0.1503906 0.8393555
vt 0.1488037 0.8408203
vt 0.1496582 0.8398438
vt 0.1505127 0.8393555
vt 0.1489258 0.8408203
vt 0.1502686 0.8393555
vt 0.1480713 0.8417969
vt 0.1496582 0.8398438
vt 0.1473389 0.8422852
vt 0.1488037 0.8408203
vt 0.1472168 0.8427734
vt 0.1479492 0.8417969
vt 0.1473389 0.8422852
vn 0.637207 0.0163269 -0.7705078
vn 0.637207 0.01634216 -0.7705078
vn 0.637207 0.01631165 -0.7705078
vn 0.637207 0.01637268 -0.7705078
vn 0.637207 0.01629639 -0.7705078
vn 0.637207 0.01638794 -0.7705078
vn 0.637207 0.01631165 -0.7705078
vn 0.637207 0.01634216 -0.7705078
vn 0.637207 0.0163269 -0.7705078
vn 0.637207 0.0163269 -0.7705078
vn 0.637207 0.01637268 -0.7705078
vn 0.637207 0.01634216 -0.7705078
vn 0.637207 0.01638794 -0.7705078
vn 0.637207 0.0163269 -0.7705078
vn 0.637207 0.01634216 -0.7705078
vn 0.637207 0.01631165 -0.7705078
vn 0.637207 0.01637268 -0.7705078
vn 0.637207 0.01629639 -0.7705078
vn 0.637207 0.01638794 -0.7705078
vn 0.637207 0.01631165 -0.7705078
vn 0.637207 0.01634216 -0.7705078
vn 0.637207 0.0163269 -0.7705078
vn 0.637207 0.0163269 -0.7705078
vn 0.637207 0.01637268 -0.7705078
vn 0.637207 0.01634216 -0.7705078
vn 0.637207 0.01638794 -0.7705078
g Light_0
f 3/3/3 2/2/2 1/1/1
f 1/1/1 2/2/2 4/4/4
f 5/5/5 2/2/2 3/3/3
f 4/4/4 2/2/2 6/6/6
f 7/7/7 2/2/2 5/5/5
f 6/6/6 2/2/2 8/8/8
f 9/9/9 2/2/2 7/7/7
f 8/8/8 2/2/2 10/10/10
f 11/11/11 2/2/2 9/9/9
f 10/10/10 2/2/2 12/12/12
f 13/13/13 2/2/2 11/11/11
f 12/12/12 2/2/2 13/13/13
f 16/16/16 15/15/15 14/14/14
f 14/14/14 15/15/15 17/17/17
f 18/18/18 15/15/15 16/16/16
f 17/17/17 15/15/15 19/19/19
f 20/20/20 15/15/15 18/18/18
f 19/19/19 15/15/15 21/21/21
f 22/22/22 15/15/15 20/20/20
f 21/21/21 15/15/15 23/23/23
f 24/24/24 15/15/15 22/22/22
f 23/23/23 15/15/15 25/25/25
f 26/26/26 15/15/15 24/24/24
f 25/25/25 15/15/15 26/26/26
