g LightGlow
v -5 2.185569E-07 -5
v -5 -2.185569E-07 5
v 5 -2.185569E-07 5
v 5 2.185569E-07 -5
v 0.7818851 3.057347 -14.07715
v 0.7818851 3.057347 -2.023513
v 12.31658 6.556067 -2.023513
v 12.31658 6.556068 -14.07715
v 23.8534 9.54276 -13.25732
v 23.8534 9.542759 -1.203675
v 35.3881 13.04148 -1.203675
v 35.3881 13.04148 -13.25732
v 31.78656 9.075108 -4.832602
v 31.78656 9.075108 3.260787
v 39.53151 11.42432 3.260787
v 39.53151 11.42432 -4.832602
v 28.57346 14.22208 8.582437
v 27.63511 15.58694 12.93058
v 36.76263 13.83269 15.451
v 37.70098 12.46782 11.10286
v 16.84085 12.2226 21.00408
v 20.34727 13.65787 23.61941
v 26.83387 13.37917 15.07564
v 23.32744 11.9439 12.46031
v 17.03923 15.28543 13.33506
v 20.14087 17.06523 19.50272
v 35.78625 14.59149 12.34869
v 32.6846 12.81169 6.181031
v 1.671393 3.148007 7.226889
v 0.01785469 2.770222 11.65121
v 6.459864 8.37719 14.5376
v 8.113401 8.754974 10.11328
v 6.713488 7.788824 9.653339
v 3.744208 6.660852 13.16939
v 9.186131 10.7529 19.07781
v 12.15541 11.88087 15.56176
v 11.15876 11.18854 13.39474
v 7.43669 9.622736 16.43563
v 11.61198 14.10104 23.85218
v 15.33404 15.66685 20.8113
v 21.58139 7.358966 -9.248539
v 21.58139 7.358965 4.106987
v 26.66906 8.902165 4.106987
v 26.66906 8.902166 -9.248539
v 10.42935 3.908961 -9.240124
v 10.42935 3.908961 4.115403
v 15.51702 5.452161 4.115403
v 15.51702 5.452161 -9.240124
vt 0 0
vt 0 1
vt 1 1
vt 1 0
vt 0 0
vt 0 1
vt 1 1
vt 1 0
vt 0 0
vt 0 1
vt 1 1
vt 1 0
vt 0 0
vt 0 1
vt 1 1
vt 1 0
vt 0 0
vt 0 1
vt 1 1
vt 1 0
vt 0 0
vt 0 1
vt 1 1
vt 1 0
vt 0 0
vt 0 1
vt 1 1
vt 1 0
vt 0 0
vt 0 1
vt 1 1
vt 1 0
vt 0 0
vt 0 1
vt 1 1
vt 1 0
vt 0 0
vt 0 1
vt 1 1
vt 1 0
vt 0 0
vt 0 1
vt 1 1
vt 1 0
vt 0 0
vt 0 1
vt 1 1
vt 1 0
vn 0 -1 0
vn 0 -1 0
vn 0 -1 0
vn 0 -1 0
vn 0.2902832 -0.9570313 0
vn 0.2902832 -0.9570313 0
vn 0.2902832 -0.9570313 0
vn 0.2902832 -0.9570313 0
vn 0.2902832 -0.9570313 0
vn 0.2902832 -0.9570313 0
vn 0.2902832 -0.9570313 0
vn 0.2902832 -0.9570313 0
vn 0.2902832 -0.9570313 0
vn 0.2902832 -0.9570313 0
vn 0.2902832 -0.9570313 0
vn 0.2902832 -0.9570313 0
vn -0.2469482 -0.9384766 0.241333
vn -0.2469482 -0.9384766 0.241333
vn -0.2469482 -0.9384766 0.241333
vn -0.2469482 -0.9384766 0.241333
vn 0.2335205 -0.949707 0.208252
vn 0.2335205 -0.949707 0.208252
vn 0.2335205 -0.949707 0.208252
vn 0.2335205 -0.949707 0.208252
vn -0.02037048 -0.9580078 0.2866211
vn -0.02037048 -0.9580078 0.2866211
vn -0.02037048 -0.9580078 0.2866211
vn -0.02037048 -0.9580078 0.2866211
vn 0.6064453 -0.7788086 0.1600342
vn 0.6064453 -0.7788086 0.1600342
vn 0.6064453 -0.7788086 0.1600342
vn 0.6064453 -0.7788086 0.1600342
vn 0.4929199 -0.8588867 0.1407471
vn 0.4929199 -0.8588867 0.1407471
vn 0.4929199 -0.8588867 0.1407471
vn 0.4929199 -0.8588867 0.1407471
vn 0.519043 -0.8291016 0.208374
vn 0.519043 -0.8291016 0.208374
vn 0.519043 -0.8291016 0.208374
vn 0.519043 -0.8291016 0.208374
vn 0.2902832 -0.9570313 0
vn 0.2902832 -0.9570313 0
vn 0.2902832 -0.9570313 0
vn 0.2902832 -0.9570313 0
vn 0.2902832 -0.9570313 0
vn 0.2902832 -0.9570313 0
vn 0.2902832 -0.9570313 0
vn 0.2902832 -0.9570313 0
g LightGlow_0
f 3/3/3 2/2/2 1/1/1
f 4/4/4 3/3/3 1/1/1
f 7/7/7 6/6/6 5/5/5
f 8/8/8 7/7/7 5/5/5
f 11/11/11 10/10/10 9/9/9
f 12/12/12 11/11/11 9/9/9
f 15/15/15 14/14/14 13/13/13
f 16/16/16 15/15/15 13/13/13
f 19/19/19 18/18/18 17/17/17
f 20/20/20 19/19/19 17/17/17
f 23/23/23 22/22/22 21/21/21
f 24/24/24 23/23/23 21/21/21
f 27/27/27 26/26/26 25/25/25
f 28/28/28 27/27/27 25/25/25
f 31/31/31 30/30/30 29/29/29
f 32/32/32 31/31/31 29/29/29
f 35/35/35 34/34/34 33/33/33
f 36/36/36 35/35/35 33/33/33
f 39/39/39 38/38/38 37/37/37
f 40/40/40 39/39/39 37/37/37
f 43/43/43 42/42/42 41/41/41
f 44/44/44 43/43/43 41/41/41
f 47/47/47 46/46/46 45/45/45
f 48/48/48 47/47/47 45/45/45
