g LightShard.001
v 0.159446 0.3204359 0.5418754
v 0.2401977 0.4145115 0.4141865
v 9.145173 1.325008 6.850395
v 8.829488 0.9572343 7.349575
v 0.1020049 0.1757426 0.6281304
v 8.604932 0.3915782 7.686776
v 0.07661906 0.002459597 0.6598196
v 8.50569 -0.2858448 7.810659
v 0.08715288 -0.1730315 0.6321187
v 8.546868 -0.9719002 7.702367
v 8.722207 -1.562147 7.378385
v 0.1320037 -0.3240152 0.5492449
v 9.005002 -1.966722 6.888035
v 0.2043421 -0.4275044 0.4238148
v 9.352209 -2.124034 6.305969
v 0.2931561 -0.4677443 0.2749238
v 9.710963 -2.010132 5.720805
v 0.3849245 -0.4386085 0.1252406
v 10.02665 -1.642358 5.221619
v 0.465676 -0.3445328 -0.002449751
v 0.5231173 -0.1998393 -0.08870459
v 10.2512 -1.076701 4.88442
v 0.5485031 -0.02655649 -0.1203935
v 10.35045 -0.3992786 4.760536
v 10.30926 0.2867779 4.868829
v 0.5379688 0.1489349 -0.09269285
v 10.13393 0.8770232 5.192811
v 0.4931183 0.2999181 -0.009819269
v 9.851134 1.281599 5.683162
v 0.4207798 0.4034074 0.1156116
v 9.503926 1.43891 6.265227
v 0.3319659 0.4436473 0.264502
v 0.2401977 0.4145115 0.4141865
v 9.145173 1.325008 6.850395
vt 0.8666992 0.01870728
vt 0.9169922 0.01870728
vt 0.9169922 0.9624023
vt 0.8666992 0.9624023
vt 0.8149414 0.01870728
vt 0.8149414 0.9624023
vt 0.7617188 0.01870728
vt 0.7617188 0.9624023
vt 0.7075195 0.01870728
vt 0.7075195 0.9624023
vt 0.6523438 0.9624023
vt 0.6523438 0.01870728
vt 0.597168 0.9624023
vt 0.597168 0.01870728
vt 0.5410156 0.9624023
vt 0.5410156 0.01870728
vt 0.4848633 0.9624023
vt 0.4848633 0.01870728
vt 0.4287109 0.9624023
vt 0.4287109 0.01870728
vt 0.3725586 0.01870728
vt 0.3725586 0.9624023
vt 0.3164063 0.01870728
vt 0.3164063 0.9624023
vt 0.260498 0.9624023
vt 0.260498 0.01870728
vt 0.2047119 0.9624023
vt 0.2047119 0.01870728
vt 0.149292 0.9624023
vt 0.149292 0.01870728
vt 0.09423828 0.9624023
vt 0.09423828 0.01870728
vt 0.03982544 0.01870728
vt 0.03982544 0.9624023
vn -0.4558105 0.7280273 0.512207
vn -0.2695313 0.9326172 0.2409668
vn -0.2741699 0.9291992 0.2476807
vn -0.4584961 0.7231445 0.5166016
vn -0.5878906 0.4133301 0.6953125
vn -0.5888672 0.409668 0.6967773
vn -0.6459961 0.03634644 0.7626953
vn -0.6459961 0.03610229 0.7626953
vn -0.6206055 -0.345459 0.7036133
vn -0.621582 -0.3422852 0.7045898
vn -0.519043 -0.6694336 0.53125
vn -0.5166016 -0.6743164 0.527832
vn -0.3532715 -0.8964844 0.2675781
vn -0.3491211 -0.8999023 0.2609863
vn -0.1486816 -0.987793 -0.04785156
vn -0.1435547 -0.9882813 -0.05569458
vn 0.06384277 -0.9282227 -0.3671875
vn 0.06848145 -0.9248047 -0.3740234
vn 0.251709 -0.7250977 -0.6411133
vn 0.2546387 -0.7202148 -0.6450195
vn 0.3867188 -0.4057617 -0.828125
vn 0.3857422 -0.4091797 -0.8266602
vn 0.4445801 -0.02903748 -0.8950195
vn 0.4445801 -0.02929688 -0.8950195
vn 0.4191895 0.3557129 -0.8354492
vn 0.4196777 0.3525391 -0.8364258
vn 0.3132324 0.6860352 -0.6567383
vn 0.3156738 0.6811523 -0.6601563
vn 0.1437988 0.9106445 -0.387207
vn 0.1480713 0.9072266 -0.3937988
vn -0.06256104 0.9956055 -0.06951904
vn -0.05740356 0.9951172 -0.07733154
vn -0.2695313 0.9326172 0.2409668
vn -0.2741699 0.9291992 0.2476807
g LightShard.001_0
f 3/3/3 2/2/2 1/1/1
f 4/4/4 3/3/3 1/1/1
f 4/4/4 1/1/1 5/5/5
f 6/6/6 4/4/4 5/5/5
f 6/6/6 5/5/5 7/7/7
f 8/8/8 6/6/6 7/7/7
f 8/8/8 7/7/7 9/9/9
f 10/10/10 8/8/8 9/9/9
f 11/11/11 10/10/10 9/9/9
f 12/12/12 11/11/11 9/9/9
f 13/13/13 11/11/11 12/12/12
f 14/14/14 13/13/13 12/12/12
f 15/15/15 13/13/13 14/14/14
f 16/16/16 15/15/15 14/14/14
f 17/17/17 15/15/15 16/16/16
f 18/18/18 17/17/17 16/16/16
f 19/19/19 17/17/17 18/18/18
f 20/20/20 19/19/19 18/18/18
f 19/19/19 20/20/20 21/21/21
f 22/22/22 19/19/19 21/21/21
f 22/22/22 21/21/21 23/23/23
f 24/24/24 22/22/22 23/23/23
f 25/25/25 24/24/24 23/23/23
f 26/26/26 25/25/25 23/23/23
f 27/27/27 25/25/25 26/26/26
f 28/28/28 27/27/27 26/26/26
f 29/29/29 27/27/27 28/28/28
f 30/30/30 29/29/29 28/28/28
f 31/31/31 29/29/29 30/30/30
f 32/32/32 31/31/31 30/30/30
f 31/31/31 32/32/32 33/33/33
f 34/34/34 31/31/31 33/33/33
