g LightCone
v 7.812624 -13.35321 183.5894
v 76.94634 -41.4354 79.57544
v -2.454222 -18.8841 175.0512
v 99.47357 -29.29935 98.30976
v 172.0589 -59.18799 -34.7932
v 204.2376 -41.85223 -8.032365
v -2.454222 -18.8841 175.0512
v 54.41913 -29.29935 60.84109
v -12.72107 -13.35321 166.513
v 76.94634 -41.4354 79.57544
v 139.8802 -41.85223 -61.554
v 172.0589 -59.18799 -34.7932
v -12.72107 -13.35321 166.513
v 45.08819 -2.644038E-06 53.08115
v -16.97357 -2.644038E-06 162.9765
v 54.41913 -29.29935 60.84109
v 126.5513 -2.644038E-06 -72.63869
v 139.8802 -41.85223 -61.554
v -16.97357 -2.644038E-06 162.9765
v 54.41913 29.29935 60.84109
v -12.72107 13.35321 166.513
v 45.08819 -2.644038E-06 53.08115
v 139.8802 41.8522 -61.554
v 126.5513 -2.644038E-06 -72.63869
v -12.72107 13.35321 166.513
v 76.94634 41.43539 79.57544
v -2.454222 18.88412 175.0512
v 54.41913 29.29935 60.84109
v 172.0589 59.18801 -34.7932
v 139.8802 41.8522 -61.554
v -2.454222 18.88412 175.0512
v 99.47357 29.29935 98.30976
v 7.812624 13.35324 183.5894
v 76.94634 41.43539 79.57544
v 204.2376 41.85226 -8.032365
v 172.0589 59.18801 -34.7932
v 7.812624 13.35324 183.5894
v 108.8046 -2.644038E-06 106.0697
v 12.06513 -2.644038E-06 187.1259
v 99.47357 29.29935 98.30976
v 217.5665 -2.644038E-06 3.052322
v 204.2376 41.85226 -8.032365
v 12.06513 -2.644038E-06 187.1259
v 99.47357 -29.29935 98.30976
v 7.812624 -13.35321 183.5894
v 108.8046 -2.644038E-06 106.0697
v 204.2376 -41.85223 -8.032365
v 217.5665 -2.644038E-06 3.052322
v -161.7921 -13.35321 43.33139
v -92.65826 -41.4354 -60.68257
v -172.0589 -18.8841 34.79318
v -70.13104 -29.29935 -41.94823
v 2.454286 -59.18799 -175.0512
v 34.633 -41.85223 -148.2904
v -172.0589 -18.8841 34.79318
v -115.1855 -29.29935 -79.41692
v -182.3257 -13.35321 26.25497
v -92.65826 -41.4354 -60.68257
v -29.72442 -41.85223 -201.812
v 2.454286 -59.18799 -175.0512
v -182.3257 -13.35321 26.25497
v -124.5165 -2.644038E-06 -87.17686
v -186.5782 -2.644038E-06 22.71846
v -115.1855 -29.29935 -79.41692
v -43.05328 -2.644038E-06 -212.8967
v -29.72442 -41.85223 -201.812
v -186.5782 -2.644038E-06 22.71846
v -115.1855 29.29935 -79.41692
v -182.3257 13.35321 26.25497
v -124.5165 -2.644038E-06 -87.17686
v -29.72442 41.8522 -201.812
v -43.05328 -2.644038E-06 -212.8967
v -182.3257 13.35321 26.25497
v -92.65826 41.43539 -60.68257
v -172.0589 18.88412 34.79318
v -115.1855 29.29935 -79.41692
v 2.454286 59.18801 -175.0512
v -29.72442 41.8522 -201.812
v -172.0589 18.88412 34.79318
v -70.13104 29.29935 -41.94823
v -161.7921 13.35324 43.33141
v -92.65826 41.43539 -60.68257
v 34.633 41.85226 -148.2904
v 2.454286 59.18801 -175.0512
v -161.7921 13.35324 43.33141
v -60.80005 -2.644038E-06 -34.18828
v -157.5396 -2.644038E-06 46.8679
v -70.13104 29.29935 -41.94823
v 47.96185 -2.644038E-06 -137.2057
v 34.633 41.85226 -148.2904
v -157.5396 -2.644038E-06 46.8679
v -70.13104 -29.29935 -41.94823
v -161.7921 -13.35321 43.33139
v -60.80005 -2.644038E-06 -34.18828
v 34.633 -41.85223 -148.2904
v 47.96185 -2.644038E-06 -137.2057
vt 0.003158569 0.6577148
vt 0.3486328 0.7568359
vt 0.02073669 0.621582
vt 0.314209 0.8374023
vt 0.7495117 0.878418
vt 0.7055664 0.9980469
vt 0.02073669 0.621582
vt 0.3735352 0.6733398
vt 0.0333252 0.5830078
vt 0.3486328 0.7568359
vt 0.7817383 0.7543945
vt 0.7495117 0.878418
vt 0.0333252 0.5830078
vt 0.3884277 0.5874023
vt 0.040802 0.5424805
vt 0.3735352 0.6733398
vt 0.8012695 0.6274414
vt 0.7817383 0.7543945
vt 0.040802 0.5424805
vt 0.3933105 0.5009766
vt 0.04315186 0.5019531
vt 0.3884277 0.5874023
vt 0.8076172 0.4987793
vt 0.8012695 0.6274414
vt 0.04315186 0.5019531
vt 0.3879395 0.4145508
vt 0.04037476 0.4609375
vt 0.3933105 0.5009766
vt 0.7998047 0.3701172
vt 0.8076172 0.4987793
vt 0.04037476 0.4609375
vt 0.3725586 0.3288574
vt 0.0324707 0.4206543
vt 0.3879395 0.4145508
vt 0.7788086 0.2435303
vt 0.7998047 0.3701172
vt 0.0324707 0.4206543
vt 0.3474121 0.2451172
vt 0.01953125 0.3820801
vt 0.3725586 0.3288574
vt 0.7451172 0.1204224
vt 0.7788086 0.2435303
vt 0.01953125 0.3820801
vt 0.3125 0.1641846
vt 0.00161171 0.3457031
vt 0.3474121 0.2451172
vt 0.7006836 0.001991272
vt 0.7451172 0.1204224
vt 0.003158569 0.6577148
vt 0.3486328 0.7568359
vt 0.02073669 0.621582
vt 0.314209 0.8374023
vt 0.7495117 0.878418
vt 0.7055664 0.9980469
vt 0.02073669 0.621582
vt 0.3735352 0.6733398
vt 0.0333252 0.5830078
vt 0.3486328 0.7568359
vt 0.7817383 0.7543945
vt 0.7495117 0.878418
vt 0.0333252 0.5830078
vt 0.3884277 0.5874023
vt 0.040802 0.5424805
vt 0.3735352 0.6733398
vt 0.8012695 0.6274414
vt 0.7817383 0.7543945
vt 0.040802 0.5424805
vt 0.3933105 0.5009766
vt 0.04315186 0.5019531
vt 0.3884277 0.5874023
vt 0.8076172 0.4987793
vt 0.8012695 0.6274414
vt 0.04315186 0.5019531
vt 0.3879395 0.4145508
vt 0.04037476 0.4609375
vt 0.3933105 0.5009766
vt 0.7998047 0.3701172
vt 0.8076172 0.4987793
vt 0.04037476 0.4609375
vt 0.3725586 0.3288574
vt 0.0324707 0.4206543
vt 0.3879395 0.4145508
vt 0.7788086 0.2435303
vt 0.7998047 0.3701172
vt 0.0324707 0.4206543
vt 0.3474121 0.2451172
vt 0.01953125 0.3820801
vt 0.3725586 0.3288574
vt 0.7451172 0.1204224
vt 0.7788086 0.2435303
vt 0.01953125 0.3820801
vt 0.3125 0.1641846
vt 0.00161171 0.3457031
vt 0.3474121 0.2451172
vt 0.7006836 0.001991272
vt 0.7451172 0.1204224
vn 0.1843262 -0.9111328 0.3686523
vn 0.2103271 -0.9165039 0.3405762
vn 0.1843262 -0.9111328 0.3686523
vn 0.2103271 -0.9165039 0.3408203
vn 0.2224121 -0.918457 0.3273926
vn 0.2224121 -0.918457 0.3273926
vn -0.3959961 -0.9111328 -0.1140747
vn -0.373291 -0.9165039 -0.1446533
vn -0.3959961 -0.9111328 -0.1140747
vn -0.373291 -0.9165039 -0.1446533
vn -0.3625488 -0.918457 -0.1589355
vn -0.3625488 -0.918457 -0.1589355
vn -0.8061523 -0.3774414 -0.4553223
vn -0.7861328 -0.3796387 -0.4880371
vn -0.8061523 -0.3774414 -0.4553223
vn -0.7861328 -0.3796387 -0.4880371
vn -0.7763672 -0.3803711 -0.5029297
vn -0.7763672 -0.3803711 -0.5029297
vn -0.8061523 0.3774414 -0.4553223
vn -0.7861328 0.3796387 -0.4880371
vn -0.8061523 0.3774414 -0.4553223
vn -0.7861328 0.3796387 -0.4880371
vn -0.7763672 0.3803711 -0.5029297
vn -0.7763672 0.3803711 -0.5029297
vn -0.3959961 0.9111328 -0.1140747
vn -0.373291 0.9165039 -0.1446533
vn -0.3959961 0.9111328 -0.1140747
vn -0.373291 0.9165039 -0.1446533
vn -0.3625488 0.918457 -0.1589355
vn -0.3625488 0.918457 -0.1589355
vn 0.1843262 0.9111328 0.3686523
vn 0.2103271 0.9165039 0.3408203
vn 0.1843262 0.9111328 0.3686523
vn 0.2103271 0.9165039 0.3408203
vn 0.2224121 0.918457 0.3273926
vn 0.2224121 0.918457 0.3273926
vn 0.5947266 0.3774414 0.7099609
vn 0.6230469 0.3796387 0.684082
vn 0.5947266 0.3774414 0.7099609
vn 0.6230469 0.3796387 0.684082
vn 0.6357422 0.3803711 0.6713867
vn 0.6357422 0.3803711 0.6713867
vn 0.5947266 -0.3774414 0.7099609
vn 0.6230469 -0.3796387 0.684082
vn 0.5947266 -0.3774414 0.7099609
vn 0.6230469 -0.3796387 0.684082
vn 0.6357422 -0.3803711 0.6713867
vn 0.6357422 -0.3803711 0.6713867
vn 0.1843262 -0.9111328 0.3686523
vn 0.2103271 -0.9165039 0.3405762
vn 0.1843262 -0.9111328 0.3686523
vn 0.2103271 -0.9165039 0.3408203
vn 0.2224121 -0.918457 0.3273926
vn 0.2224121 -0.918457 0.3273926
vn -0.3959961 -0.9111328 -0.1140747
vn -0.373291 -0.9165039 -0.1446533
vn -0.3959961 -0.9111328 -0.1140747
vn -0.373291 -0.9165039 -0.1446533
vn -0.3625488 -0.918457 -0.1589355
vn -0.3625488 -0.918457 -0.1589355
vn -0.8061523 -0.3774414 -0.4553223
vn -0.7861328 -0.3796387 -0.487793
vn -0.8061523 -0.3774414 -0.4553223
vn -0.7861328 -0.3796387 -0.4880371
vn -0.7763672 -0.3803711 -0.5029297
vn -0.7763672 -0.3803711 -0.5029297
vn -0.8061523 0.3774414 -0.4553223
vn -0.7861328 0.3796387 -0.4880371
vn -0.8061523 0.3774414 -0.4553223
vn -0.7861328 0.3796387 -0.4880371
vn -0.7763672 0.3803711 -0.5029297
vn -0.7763672 0.3803711 -0.5029297
vn -0.3959961 0.9111328 -0.1140747
vn -0.373291 0.9165039 -0.1446533
vn -0.3959961 0.9111328 -0.1140747
vn -0.373291 0.9165039 -0.1446533
vn -0.3625488 0.918457 -0.1589355
vn -0.3625488 0.918457 -0.1589355
vn 0.1843262 0.9111328 0.3686523
vn 0.2103271 0.9165039 0.3408203
vn 0.1843262 0.9111328 0.3686523
vn 0.2103271 0.9165039 0.3408203
vn 0.2224121 0.918457 0.3273926
vn 0.2224121 0.918457 0.3273926
vn 0.5947266 0.3774414 0.7099609
vn 0.6230469 0.3796387 0.684082
vn 0.5947266 0.3774414 0.7099609
vn 0.6230469 0.3796387 0.684082
vn 0.6357422 0.3803711 0.6713867
vn 0.6357422 0.3803711 0.6713867
vn 0.5947266 -0.3774414 0.7099609
vn 0.6230469 -0.3796387 0.684082
vn 0.5947266 -0.3774414 0.7099609
vn 0.6230469 -0.3796387 0.684082
vn 0.6357422 -0.3803711 0.6713867
vn 0.6357422 -0.3803711 0.6713867
g LightCone_0
f 3/3/3 2/2/2 1/1/1
f 2/2/2 4/4/4 1/1/1
f 2/2/2 5/5/5 4/4/4
f 5/5/5 6/6/6 4/4/4
f 9/9/9 8/8/8 7/7/7
f 8/8/8 10/10/10 7/7/7
f 8/8/8 11/11/11 10/10/10
f 11/11/11 12/12/12 10/10/10
f 15/15/15 14/14/14 13/13/13
f 14/14/14 16/16/16 13/13/13
f 14/14/14 17/17/17 16/16/16
f 17/17/17 18/18/18 16/16/16
f 21/21/21 20/20/20 19/19/19
f 20/20/20 22/22/22 19/19/19
f 20/20/20 23/23/23 22/22/22
f 23/23/23 24/24/24 22/22/22
f 27/27/27 26/26/26 25/25/25
f 26/26/26 28/28/28 25/25/25
f 26/26/26 29/29/29 28/28/28
f 29/29/29 30/30/30 28/28/28
f 33/33/33 32/32/32 31/31/31
f 32/32/32 34/34/34 31/31/31
f 32/32/32 35/35/35 34/34/34
f 35/35/35 36/36/36 34/34/34
f 39/39/39 38/38/38 37/37/37
f 38/38/38 40/40/40 37/37/37
f 38/38/38 41/41/41 40/40/40
f 41/41/41 42/42/42 40/40/40
f 45/45/45 44/44/44 43/43/43
f 44/44/44 46/46/46 43/43/43
f 44/44/44 47/47/47 46/46/46
f 47/47/47 48/48/48 46/46/46
f 51/51/51 50/50/50 49/49/49
f 50/50/50 52/52/52 49/49/49
f 50/50/50 53/53/53 52/52/52
f 53/53/53 54/54/54 52/52/52
f 57/57/57 56/56/56 55/55/55
f 56/56/56 58/58/58 55/55/55
f 56/56/56 59/59/59 58/58/58
f 59/59/59 60/60/60 58/58/58
f 63/63/63 62/62/62 61/61/61
f 62/62/62 64/64/64 61/61/61
f 62/62/62 65/65/65 64/64/64
f 65/65/65 66/66/66 64/64/64
f 69/69/69 68/68/68 67/67/67
f 68/68/68 70/70/70 67/67/67
f 68/68/68 71/71/71 70/70/70
f 71/71/71 72/72/72 70/70/70
f 75/75/75 74/74/74 73/73/73
f 74/74/74 76/76/76 73/73/73
f 74/74/74 77/77/77 76/76/76
f 77/77/77 78/78/78 76/76/76
f 81/81/81 80/80/80 79/79/79
f 80/80/80 82/82/82 79/79/79
f 80/80/80 83/83/83 82/82/82
f 83/83/83 84/84/84 82/82/82
f 87/87/87 86/86/86 85/85/85
f 86/86/86 88/88/88 85/85/85
f 86/86/86 89/89/89 88/88/88
f 89/89/89 90/90/90 88/88/88
f 93/93/93 92/92/92 91/91/91
f 92/92/92 94/94/94 91/91/91
f 92/92/92 95/95/95 94/94/94
f 95/95/95 96/96/96 94/94/94
