g LightGlow.002
v -8.784074 2.374062 -6.68005
v -8.784075 2.374061 8.752247
v 6.119582 -1.630546 8.752247
v 6.119582 -1.630546 -6.68005
v -8.258946 1.034688 -11.92335
v -8.326333 1.010428 -0.4180918
v 3.165792 0.4601701 -0.3519421
v 3.233178 0.4844301 -11.8572
v -7.048756 3.945971 -9.480348
v -7.459194 -4.628463 -9.500833
v 1.115117 -5.039012 -9.451478
v 1.525554 3.535422 -9.430993
v -15.02611 1.571309 -12.287
v -15.0935 1.547049 -0.7817388
v -3.601371 0.9967912 -0.715589
v -3.533984 1.021051 -12.22085
v -13.81592 4.482593 -9.843995
v -14.22636 -4.091842 -9.86448
v -5.652046 -4.502391 -9.815125
v -5.241608 4.072043 -9.794641
v -23.38328 2.396439 -12.25973
v -23.45067 2.372179 -0.7544742
v -11.95854 1.821922 -0.6883245
v -11.89116 1.846182 -12.19358
v -22.17309 5.307719 -9.816732
v -22.58353 -3.266715 -9.837217
v -14.00922 -3.677264 -9.787863
v -13.59878 4.89717 -9.767378
v -23.22083 12.30634 -12.23501
v -23.28822 12.28208 -0.729754
v -24.03909 0.8011637 -0.7583604
v -23.97171 0.8254232 -12.26362
v -28.55206 1.451444 -9.604445
v -19.97265 1.735817 -9.553596
v -20.25712 10.31536 -9.537171
v -28.83654 10.03099 -9.58802
v -22.3155 20.04052 -12.46683
v -22.38289 20.01625 -0.9615712
v -23.13376 8.535336 -0.9901776
v -23.06638 8.559596 -12.49544
v -27.64674 9.18562 -9.836263
v -19.06732 9.469994 -9.785414
v -19.3518 18.04954 -9.768989
v -27.93121 17.76517 -9.819838
v -21.97919 27.29541 -12.50023
v -22.04657 27.27116 -0.9949765
v -22.79745 15.79024 -1.023583
v -22.73006 15.8145 -12.52884
v -27.98157 15.95486 -9.768108
v -18.88439 16.25639 -9.714191
v -19.18603 25.35372 -9.696775
v -28.28321 25.05218 -9.750692
v -21.61661 34.4669 -12.11987
v -21.684 34.44264 -0.6146116
v -22.43487 22.96172 -0.643218
v -22.36749 22.98598 -12.14848
v -21.20514 41.00399 -12.02196
v -21.27253 40.97973 -0.5166998
v -22.02341 29.49881 -0.5453062
v -21.95602 29.52308 -12.05056
v -27.89074 24.39106 -9.766076
v -18.82785 23.61602 -9.714629
v -18.05293 32.67904 -9.69098
v -27.11581 33.45408 -9.742427
v -27.30912 31.41063 -9.692076
v -18.24623 30.63559 -9.640629
v -17.47131 39.69861 -9.61698
v -26.5342 40.47365 -9.668427
v -20.84577 42.67662 -3.879889
v -20.89632 42.65842 4.750982
v -21.4596 34.04581 4.729522
v -21.40905 34.06401 -3.901349
v -21.94387 35.85804 -5.34019
v -22.00562 35.83581 5.201902
v -22.69363 25.31602 5.175691
v -22.63189 25.33824 -5.366402
v -21.99734 26.84999 -3.216262
v -22.05591 26.8289 6.783544
v -22.70853 16.85025 6.75868
v -22.64996 16.87134 -3.241125
v -23.02831 18.1997 -5.507643
v -23.09872 18.17435 6.513995
v -23.88329 6.178142 6.484105
v -23.81288 6.203489 -5.537533
v -23.94953 7.022131 -3.829574
v -24.00934 7.000597 6.383049
v -21.76503 -2.96257 6.375186
v -21.70521 -2.941036 -3.837437
v -23.34043 1.501342 -6.114855
v -23.21865 1.53596 6.387002
v -10.76181 0.4750379 6.268605
v -10.88358 0.4404196 -6.233253
v -16.39155 1.538532 -4.370355
v -16.39155 1.538531 9.132996
v -2.8882 1.538532 9.132996
v -2.8882 1.538533 -4.370355
vt 0 0
vt 0 1
vt 1 1
vt 1 0
vt 0 0
vt 0 1
vt 1 1
vt 1 0
vt 0 0
vt 0 1
vt 1 1
vt 1 0
vt 0 0
vt 0 1
vt 1 1
vt 1 0
vt 0 0
vt 0 1
vt 1 1
vt 1 0
vt 0 0
vt 0 1
vt 1 1
vt 1 0
vt 0 0
vt 0 1
vt 1 1
vt 1 0
vt 0 0
vt 0 1
vt 1 1
vt 1 0
vt 0 0
vt 0 1
vt 1 1
vt 1 0
vt 0 0
vt 0 1
vt 1 1
vt 1 0
vt 0 0
vt 0 1
vt 1 1
vt 1 0
vt 0 0
vt 0 1
vt 1 1
vt 1 0
vt 0 0
vt 0 1
vt 1 1
vt 1 0
vt 0 0
vt 0 1
vt 1 1
vt 1 0
vt 0 0
vt 0 1
vt 1 1
vt 1 0
vt 0 0
vt 0 1
vt 1 1
vt 1 0
vt 0 0
vt 0 1
vt 1 1
vt 1 0
vt 0 0
vt 0 1
vt 1 1
vt 1 0
vt 0 0
vt 0 1
vt 1 1
vt 1 0
vt 0 0
vt 0 1
vt 1 1
vt 1 0
vt 0 0
vt 0 1
vt 1 1
vt 1 0
vt 0 0
vt 0 1
vt 1 1
vt 1 0
vt 0 0
vt 0 1
vt 1 1
vt 1 0
vt 0 0
vt 0 1
vt 1 1
vt 1 0
vn -0.2595215 -0.9658203 0
vn -0.2595215 -0.9658203 0
vn -0.2595215 -0.9658203 0
vn -0.2595215 -0.9658203 0
vn -0.04782104 -0.9990234 -0.002386093
vn -0.04782104 -0.9990234 -0.002386093
vn -0.04782104 -0.9990234 -0.002386093
vn -0.04782104 -0.9990234 -0.002386093
vn 0.00585556 0.002109528 -1
vn 0.00585556 0.002109528 -1
vn 0.00585556 0.002109528 -1
vn 0.00585556 0.002109528 -1
vn -0.04782104 -0.9990234 -0.002386093
vn -0.04782104 -0.9990234 -0.002386093
vn -0.04782104 -0.9990234 -0.002386093
vn -0.04782104 -0.9990234 -0.002386093
vn 0.00585556 0.002109528 -1
vn 0.00585556 0.002109528 -1
vn 0.00585556 0.002109528 -1
vn 0.00585556 0.002109528 -1
vn -0.04782104 -0.9990234 -0.002386093
vn -0.04782104 -0.9990234 -0.002386093
vn -0.04782104 -0.9990234 -0.002386093
vn -0.04782104 -0.9990234 -0.002386093
vn 0.00585556 0.002109528 -1
vn 0.00585556 0.002109528 -1
vn 0.00585556 0.002109528 -1
vn 0.00585556 0.002109528 -1
vn -0.9980469 0.06524658 -0.005706787
vn -0.9980469 0.06524658 -0.005706787
vn -0.9980469 0.06524658 -0.005706787
vn -0.9980469 0.06524658 -0.005706787
vn 0.00585556 0.002109528 -1
vn 0.00585556 0.002109528 -1
vn 0.00585556 0.002109528 -1
vn 0.00585556 0.002109528 -1
vn -0.9980469 0.06524658 -0.005706787
vn -0.9980469 0.06524658 -0.005706787
vn -0.9980469 0.06524658 -0.005706787
vn -0.9980469 0.06524658 -0.005706787
vn 0.00585556 0.002109528 -1
vn 0.00585556 0.002109528 -1
vn 0.00585556 0.002109528 -1
vn 0.00585556 0.002109528 -1
vn -0.9980469 0.06524658 -0.005706787
vn -0.9980469 0.06524658 -0.005706787
vn -0.9980469 0.06524658 -0.005706787
vn -0.9980469 0.06524658 -0.005706787
vn 0.00585556 0.00210762 -1
vn 0.00585556 0.00210762 -1
vn 0.00585556 0.00210762 -1
vn 0.00585556 0.00210762 -1
vn -0.9980469 0.06524658 -0.005706787
vn -0.9980469 0.06524658 -0.005706787
vn -0.9980469 0.06524658 -0.005706787
vn -0.9980469 0.06524658 -0.005706787
vn -0.9980469 0.06524658 -0.005706787
vn -0.9980469 0.06524658 -0.005706787
vn -0.9980469 0.06524658 -0.005706787
vn -0.9980469 0.06524658 -0.005706787
vn 0.00585556 0.002109528 -1
vn 0.00585556 0.002109528 -1
vn 0.00585556 0.002109528 -1
vn 0.00585556 0.002109528 -1
vn 0.00585556 0.002109528 -1
vn 0.00585556 0.002109528 -1
vn 0.00585556 0.002109528 -1
vn 0.00585556 0.002109528 -1
vn -0.9980469 0.06524658 -0.005706787
vn -0.9980469 0.06524658 -0.005706787
vn -0.9980469 0.06524658 -0.005706787
vn -0.9980469 0.06524658 -0.005706787
vn -0.9980469 0.06524658 -0.005706787
vn -0.9980469 0.06524658 -0.005706787
vn -0.9980469 0.06524658 -0.005706787
vn -0.9980469 0.06524658 -0.005706787
vn -0.9980469 0.06524658 -0.005706787
vn -0.9980469 0.06524658 -0.005706787
vn -0.9980469 0.06524658 -0.005706787
vn -0.9980469 0.06524658 -0.005706787
vn -0.9980469 0.06524658 -0.005706787
vn -0.9980469 0.06524658 -0.005706787
vn -0.9980469 0.06524658 -0.005706787
vn -0.9980469 0.06524658 -0.005706787
vn -0.9755859 -0.2197266 -0.006175995
vn -0.9755859 -0.2197266 -0.006175995
vn -0.9755859 -0.2197266 -0.006175995
vn -0.9755859 -0.2197266 -0.006175995
vn -0.08483887 -0.996582 0.003585815
vn -0.08483887 -0.996582 0.003585815
vn -0.08483887 -0.996582 0.003585815
vn -0.08483887 -0.996582 0.003585815
vn 0 -1 0
vn 0 -1 0
vn 0 -1 0
vn 0 -1 0
g LightGlow.002_0
f 3/3/3 2/2/2 1/1/1
f 4/4/4 3/3/3 1/1/1
f 7/7/7 6/6/6 5/5/5
f 8/8/8 7/7/7 5/5/5
f 11/11/11 10/10/10 9/9/9
f 12/12/12 11/11/11 9/9/9
f 15/15/15 14/14/14 13/13/13
f 16/16/16 15/15/15 13/13/13
f 19/19/19 18/18/18 17/17/17
f 20/20/20 19/19/19 17/17/17
f 23/23/23 22/22/22 21/21/21
f 24/24/24 23/23/23 21/21/21
f 27/27/27 26/26/26 25/25/25
f 28/28/28 27/27/27 25/25/25
f 31/31/31 30/30/30 29/29/29
f 32/32/32 31/31/31 29/29/29
f 35/35/35 34/34/34 33/33/33
f 36/36/36 35/35/35 33/33/33
f 39/39/39 38/38/38 37/37/37
f 40/40/40 39/39/39 37/37/37
f 43/43/43 42/42/42 41/41/41
f 44/44/44 43/43/43 41/41/41
f 47/47/47 46/46/46 45/45/45
f 48/48/48 47/47/47 45/45/45
f 51/51/51 50/50/50 49/49/49
f 52/52/52 51/51/51 49/49/49
f 55/55/55 54/54/54 53/53/53
f 56/56/56 55/55/55 53/53/53
f 59/59/59 58/58/58 57/57/57
f 60/60/60 59/59/59 57/57/57
f 63/63/63 62/62/62 61/61/61
f 64/64/64 63/63/63 61/61/61
f 67/67/67 66/66/66 65/65/65
f 68/68/68 67/67/67 65/65/65
f 71/71/71 70/70/70 69/69/69
f 72/72/72 71/71/71 69/69/69
f 75/75/75 74/74/74 73/73/73
f 76/76/76 75/75/75 73/73/73
f 79/79/79 78/78/78 77/77/77
f 80/80/80 79/79/79 77/77/77
f 83/83/83 82/82/82 81/81/81
f 84/84/84 83/83/83 81/81/81
f 87/87/87 86/86/86 85/85/85
f 88/88/88 87/87/87 85/85/85
f 91/91/91 90/90/90 89/89/89
f 92/92/92 91/91/91 89/89/89
f 95/95/95 94/94/94 93/93/93
f 96/96/96 95/95/95 93/93/93
