g LightGlow.001
v -5 2.185569E-07 -5
v -5 -2.185569E-07 5
v 5 -2.185569E-07 5
v 5 2.185569E-07 -5
v 28.12393 6.361659 -6.032026
v 28.12393 11.00583 -6.032026
v 32.76811 11.00583 -6.032026
v 32.76811 6.361659 -6.032026
v 3.076857 6.608978 -14.23557
v 3.076857 11.5776 -14.23557
v 8.045481 11.5776 -14.23557
v 8.045481 6.608978 -14.23557
v 3.825323 6.793647 -0.2930145
v 3.825323 11.76227 -0.2930145
v 8.793947 11.76227 -0.2930145
v 8.793947 6.793647 -0.2930145
v 21.0342 6.852497 -20.39065
v 21.0342 11.82112 -20.39065
v 26.00283 11.82112 -20.39065
v 26.00283 6.852497 -20.39065
v 17.33039 2.155576 -18.97958
v 15.49698 6.466701 -18.24008
v 23.40251 10.30433 -21.01279
v 25.23592 5.9932 -21.75229
v 14.19607 0.9662192 -2.767029
v 14.08248 6.125036 -3.715162
v 23.89236 5.83481 -6.469591
v 24.00596 0.6759927 -5.521458
v 10.63285 2.208187 -16.24592
v 9.856934 6.875213 -16.57888
v 18.51645 8.108062 -19.47811
v 19.29236 3.441036 -19.14515
v 5.807009 4.946608 -0.3087387
v 7.575516 9.187379 -1.484442
v 15.52241 5.201502 -3.907721
v 13.7539 0.9607306 -2.732018
v 3.817119 5.314407 -14.19512
v 5.585626 9.555178 -15.37082
v 13.53252 5.569301 -17.7941
v 11.76401 1.32853 -16.61839
v 22.90422 0.8694358 -5.664339
v 20.78698 5.113381 -5.64847
v 28.82793 9.132462 -7.674002
v 30.94517 4.888517 -7.68987
v 20.5043 -0.002167786 -18.37868
v 20.5043 -0.002168301 -6.605478
v 32.2775 -0.002168301 -6.605478
v 32.2775 -0.002167786 -18.37868
v 4.7202 0.6785162 -20.73849
v 4.7202 0.6785157 -8.965295
v 16.4934 0.6785157 -8.965295
v 16.4934 0.6785162 -20.73849
vt 0 0
vt 0 1
vt 1 1
vt 1 0
vt 0 0
vt 0 1
vt 1 1
vt 1 0
vt 0 0
vt 0 1
vt 1 1
vt 1 0
vt 0 0
vt 0 1
vt 1 1
vt 1 0
vt 0 0
vt 0 1
vt 1 1
vt 1 0
vt 0 0
vt 0 1
vt 1 1
vt 1 0
vt 0 0
vt 0 1
vt 1 1
vt 1 0
vt 0 0
vt 0 1
vt 1 1
vt 1 0
vt 0 0
vt 0 1
vt 1 1
vt 1 0
vt 0 0
vt 0 1
vt 1 1
vt 1 0
vt 0 0
vt 0 1
vt 1 1
vt 1 0
vt 0 0
vt 0 1
vt 1 1
vt 1 0
vt 0 0
vt 0 1
vt 1 1
vt 1 0
vn 0 -1 0
vn 0 -1 0
vn 0 -1 0
vn 0 -1 0
vn 0 0 1
vn 0 0 1
vn 0 0 1
vn 0 0 1
vn 0 0 1
vn 0 0 1
vn 0 0 1
vn 0 0 1
vn 0 0 1
vn 0 0 1
vn 0 0 1
vn 0 0 1
vn 0 0 1
vn 0 0 1
vn 0 0 1
vn 0 0 1
vn 0.3383789 -0.01745605 0.940918
vn 0.3383789 -0.01745605 0.940918
vn 0.3383789 -0.01745605 0.940918
vn 0.3383789 -0.01745605 0.940918
vn 0.270752 0.1798096 0.9458008
vn 0.270752 0.1798096 0.9458008
vn 0.270752 0.1798096 0.9458008
vn 0.270752 0.1798096 0.9458008
vn 0.300293 0.1174316 0.9467773
vn 0.300293 0.1174316 0.9467773
vn 0.300293 0.1174316 0.9467773
vn 0.300293 0.1174316 0.9467773
vn 0.3422852 0.1157227 0.9326172
vn 0.3422852 0.1157227 0.9326172
vn 0.3422852 0.1157227 0.9326172
vn 0.3422852 0.1157227 0.9326172
vn 0.3422852 0.1157227 0.9326172
vn 0.3422852 0.1157227 0.9326172
vn 0.3422852 0.1157227 0.9326172
vn 0.3422852 0.1157227 0.9326172
vn 0.1981201 0.09521484 0.9755859
vn 0.1981201 0.09521484 0.9755859
vn 0.1981201 0.09521484 0.9755859
vn 0.1981201 0.09521484 0.9755859
vn 0 -1 0
vn 0 -1 0
vn 0 -1 0
vn 0 -1 0
vn 0 -1 0
vn 0 -1 0
vn 0 -1 0
vn 0 -1 0
g LightGlow.001_0
f 3/3/3 2/2/2 1/1/1
f 4/4/4 3/3/3 1/1/1
f 7/7/7 6/6/6 5/5/5
f 8/8/8 7/7/7 5/5/5
f 11/11/11 10/10/10 9/9/9
f 12/12/12 11/11/11 9/9/9
f 15/15/15 14/14/14 13/13/13
f 16/16/16 15/15/15 13/13/13
f 19/19/19 18/18/18 17/17/17
f 20/20/20 19/19/19 17/17/17
f 23/23/23 22/22/22 21/21/21
f 24/24/24 23/23/23 21/21/21
f 27/27/27 26/26/26 25/25/25
f 28/28/28 27/27/27 25/25/25
f 31/31/31 30/30/30 29/29/29
f 32/32/32 31/31/31 29/29/29
f 35/35/35 34/34/34 33/33/33
f 36/36/36 35/35/35 33/33/33
f 39/39/39 38/38/38 37/37/37
f 40/40/40 39/39/39 37/37/37
f 43/43/43 42/42/42 41/41/41
f 44/44/44 43/43/43 41/41/41
f 47/47/47 46/46/46 45/45/45
f 48/48/48 47/47/47 45/45/45
f 51/51/51 50/50/50 49/49/49
f 52/52/52 51/51/51 49/49/49
