g Moulin_Rouge_Windmill
v -1.648045 6.735945E-14 -1.153976
v -0.5207139 6.735945E-14 -1.943341
v -1.153973 6.735945E-14 -1.648047
v -2.004237 6.735945E-14 0.1753481
v -1.943338 -1.525878E-07 -0.5207183
v -1.422623 -1.525878E-07 1.422624
v -1.823393 -1.525878E-07 0.8502632
v 1.823395 -1.525878E-07 -0.850262
v 0.8502651 6.735945E-14 -1.823395
v 0.1753499 6.735945E-14 -2.004237
v 1.422625 1.52588E-07 -1.422623
v 1.153975 6.735945E-14 1.648046
v 1.94334 6.735945E-14 0.5207173
v 2.004238 6.735945E-14 -0.1753475
v 1.648048 6.735945E-14 1.153975
v -0.1753483 -1.525878E-07 2.004238
v 0.5207167 6.735945E-14 1.94334
v -0.8502628 6.735945E-14 1.823395
v -0.8502628 6.735945E-14 1.823395
v -0.1578788 0.7948309 1.804569
v -0.1753483 -1.525878E-07 2.004238
v -0.7655564 0.7948309 1.641742
v -0.1456901 1.650556 1.665254
v -1.422623 -1.525878E-07 1.422624
v -0.7064548 1.650556 1.514999
v -0.1387822 2.567177 1.586294
v -1.280898 0.7948309 1.280898
v -1.823393 -1.525878E-07 0.8502632
v -0.6729569 2.567177 1.443163
v -0.137155 3.54469 1.567688
v -1.641741 0.7948306 0.7655571
v -2.004237 6.735945E-14 0.1753481
v -1.182011 1.650556 1.182011
v -0.6650645 3.54469 1.426235
v -0.1408073 4.583099 1.609436
v -0.6827756 4.583099 1.464216
v -1.804568 0.7948309 0.1578791
v -1.943338 -1.525878E-07 -0.5207183
v -1.514998 1.650556 0.7064556
v -1.125963 2.567176 1.125964
v -1.112757 3.544691 1.112757
v -1.14239 4.583099 1.14239
v -1.749738 0.7948309 -0.4688422
v -1.648045 6.735945E-14 -1.153976
v -1.665255 1.650556 0.1456907
v -1.443163 2.567176 0.6729576
v -1.426235 3.544691 0.6650642
v -1.464216 4.583099 0.6827748
v -1.483863 0.7948309 -1.039014
v -1.153973 6.735945E-14 -1.648047
v -1.614657 1.650556 -0.4326476
v -1.586293 2.567176 0.1387825
v -1.567688 3.544691 0.1371547
v -1.609435 4.583099 0.1408067
v -1.039011 0.7948309 -1.483864
v -0.5207139 6.735945E-14 -1.943341
v -1.369306 1.650556 -0.9588008
v -1.538095 2.567176 -0.4121327
v -1.520054 3.544691 -0.4072988
v -1.560534 4.583099 -0.4181447
v -0.4688395 0.7948309 -1.749739
v 0.1753499 6.735945E-14 -2.004237
v -0.9587967 1.650556 -1.369309
v -1.30438 2.567177 -0.9133378
v -1.289079 3.544691 -0.9026247
v -1.323408 4.583099 -0.9266615
v 0.1578811 0.7948309 -1.80457
v 0.8502651 6.735945E-14 -1.823395
v -0.4326451 1.650556 -1.614657
v -0.9133353 2.567176 -1.304381
v -0.9026225 3.544691 -1.289081
v -0.9266593 4.583099 -1.323408
v 0.7655575 0.7948309 -1.641742
v 1.422625 1.52588E-07 -1.422623
v 0.1456929 1.650556 -1.665255
v -0.4121299 2.567177 -1.538096
v -0.4072965 3.54469 -1.520055
v -0.4181431 4.583099 -1.560534
v 1.280899 0.7948309 -1.280897
v 1.823395 -1.525878E-07 -0.850262
v 0.7064565 1.650556 -1.514998
v 0.1387844 2.567177 -1.586295
v 0.1371566 3.54469 -1.567688
v 0.1408089 4.583099 -1.609436
v 1.641743 0.7948309 -0.7655565
v 2.004238 6.735945E-14 -0.1753475
v 1.182011 1.650556 -1.182011
v 0.6729586 2.567176 -1.443163
v 0.6650655 3.544691 -1.426235
v 0.6827755 4.583099 -1.464215
v 1.80457 0.7948309 -0.1578789
v 1.94334 6.735945E-14 0.5207173
v 1.515 1.650556 -0.7064549
v 1.125966 2.567176 -1.125964
v 1.112758 3.544691 -1.112756
v 1.14239 4.583099 -1.14239
v 1.749739 0.7948309 0.468841
v 1.648048 6.735945E-14 1.153975
v 1.665255 1.650556 -0.1456905
v 1.443164 2.567176 -0.672957
v 1.426235 3.54469 -0.6650636
v 1.464216 4.583099 -0.6827742
v 1.483864 0.7948312 1.039013
v 1.153975 6.735945E-14 1.648046
v 1.614656 1.650556 0.4326466
v 1.586295 2.567177 -0.1387825
v 1.567688 3.54469 -0.1371544
v 1.609436 4.583099 -0.1408071
v 1.039013 0.7948306 1.483863
v 0.5207167 6.735945E-14 1.94334
v 1.369309 1.650556 0.9587997
v 1.538096 2.567177 0.4121318
v 1.520056 3.544691 0.4072975
v 1.560533 4.583099 0.4181443
v 0.4688411 0.7948309 1.749739
v -0.1753483 -1.525878E-07 2.004238
v -0.1578788 0.7948309 1.804569
v 0.9588003 1.650556 1.369307
v 1.304381 2.567176 0.9133369
v 1.289081 3.54469 0.9026237
v 1.323408 4.583099 0.9266609
v 0.4326467 1.650556 1.614657
v -0.1456901 1.650556 1.665254
v 0.913337 2.567177 1.30438
v 0.9026235 3.544691 1.28908
v 0.9266604 4.583099 1.323408
v 0.4121321 2.567176 1.538095
v -0.1387822 2.567177 1.586294
v 0.4072969 3.544691 1.520055
v 0.4181441 4.583099 1.560533
v -0.137155 3.54469 1.567688
v -0.1408073 4.583099 1.609436
v -1.609435 4.583099 0.1408067
v -1.14239 4.583099 1.14239
v -1.464216 4.583099 0.6827748
v -1.323408 4.583099 -0.9266615
v -1.560534 4.583099 -0.4181447
v -0.4181431 4.583099 -1.560534
v -0.9266593 4.583099 -1.323408
v 0.9266604 4.583099 1.323408
v -0.1408073 4.583099 1.609436
v -0.6827756 4.583099 1.464216
v 0.4181441 4.583099 1.560533
v 1.464216 4.583099 -0.6827742
v 1.560533 4.583099 0.4181443
v 1.323408 4.583099 0.9266609
v 1.609436 4.583099 -0.1408071
v 0.6827755 4.583099 -1.464215
v 1.14239 4.583099 -1.14239
v 0.1408089 4.583099 -1.609436
v 0.8796877 2.191508 -1.684833
v 1.292526 1.814208 -1.592383
v 1.287625 1.820499 -1.536356
v 0.8930697 2.177504 -1.737774
v 1.268758 1.797021 -1.643356
v 1.268757 0.1421663 -1.643355
v 1.292525 0.103907 -1.592383
v 1.287625 1.820499 -1.536356
v 1.287624 0.08990326 -1.536355
v 0.8924709 2.139244 -1.780313
v 1.222688 0.194429 -1.675614
v 1.222686 1.773542 -1.675615
v 0.3170034 2.177504 -1.947446
v 0.2932241 2.191508 -1.898289
v 0.8796877 2.191508 -1.684833
v 0.02454792 0.194429 -2.111701
v -0.03148052 0.1421663 -2.116604
v 1.292525 0.103907 -1.592383
v -0.08245281 0.103907 -2.092835
v 1.287624 0.08990326 -1.536355
v -0.1147129 0.08990326 -2.046764
v -0.03148052 1.797021 -2.116604
v 0.02454792 1.773542 -2.111702
v -0.08245159 1.814208 -2.092836
v -0.1147129 0.08990326 -2.046764
v -0.1147117 1.8205 -2.046765
v 0.07061786 0.2466922 -2.079443
v 0.07061847 1.750062 -2.079444
v 1.166659 0.2466922 -1.680516
v 0.3448061 2.139244 -1.979648
v 0.3691841 2.086982 -1.986265
v 0.3836068 2.034718 -1.965525
v -0.1147117 1.8205 -2.046765
v 0.2932241 2.191508 -1.898289
v 0.8780489 2.086982 -1.801054
v 1.166659 1.750063 -1.680517
v 0.8536702 2.034719 -1.794436
v 1.115687 0.2849513 -1.656747
v 1.115687 1.732875 -1.656748
v 1.083427 0.2989551 -1.610677
v 1.083427 1.726584 -1.610677
v 0.8258675 1.996459 -1.762235
v 1.083427 1.726584 -1.610677
v 0.8020876 1.982455 -1.713077
v 0.3842073 1.996459 -1.922985
v 0.8020876 1.982455 -1.713077
v 0.3708242 1.982455 -1.870044
v 0.09438679 1.732875 -2.028471
v 0.3708242 1.982455 -1.870044
v 0.08948505 1.726583 -1.972443
v 0.09438618 0.2849513 -2.02847
v 0.08948505 1.726583 -1.972443
v 0.08948505 0.2989551 -1.972443
v 1.115687 0.2849513 -1.656747
v 0.08948505 0.2989551 -1.972443
v 1.083427 0.2989551 -1.610677
v 0.8020876 1.982455 -1.713077
v 1.078526 1.732875 -1.55465
v 1.083427 1.726584 -1.610677
v 0.7887056 1.996459 -1.660136
v 1.102294 1.750063 -1.503677
v 1.102294 0.2466922 -1.503677
v 1.078526 0.2849513 -1.554649
v 1.083427 1.726584 -1.610677
v 1.083427 0.2989551 -1.610677
v 0.7893062 2.034719 -1.617596
v 1.148365 0.194429 -1.471418
v 1.148365 1.773542 -1.471418
v 0.3470461 1.996459 -1.820888
v 0.3708242 1.982455 -1.870044
v 0.8020876 1.982455 -1.713077
v -0.04977459 0.194429 -1.907505
v 0.006253853 0.2466922 -1.902603
v 1.078526 0.2849513 -1.554649
v 0.05722553 0.2849513 -1.926372
v 1.083427 0.2989551 -1.610677
v 0.08948505 0.2989551 -1.972443
v 0.8037264 2.086982 -1.596856
v 0.3192415 2.034718 -1.788686
v 1.204393 0.1421663 -1.466516
v -0.09584575 0.1421663 -1.939764
v 1.204394 1.797021 -1.466516
v -0.04977398 1.773542 -1.907506
v -0.09584454 1.797021 -1.939765
v 0.006253853 1.750062 -1.902604
v 0.05722553 0.2849513 -1.926372
v 0.05722553 1.732875 -1.926373
v 0.08948505 0.2989551 -1.972443
v 0.08948505 1.726583 -1.972443
v 0.08948505 1.726583 -1.972443
v 0.3708242 1.982455 -1.870044
v 0.2948647 2.086982 -1.782068
v 0.2804427 2.139244 -1.802807
v 0.8281063 2.139244 -1.603474
v 0.2798415 2.177504 -1.845347
v 0.8559102 2.177504 -1.635676
v 1.255365 1.814208 -1.490285
v 0.8796877 2.191508 -1.684833
v 0.2932241 2.191508 -1.898289
v -0.1196128 1.814209 -1.990737
v 0.2932241 2.191508 -1.898289
v -0.1147117 1.8205 -2.046765
v -0.1196135 0.103907 -1.990737
v -0.1147117 1.8205 -2.046765
v -0.1147129 0.08990326 -2.046764
v 1.287625 1.820499 -1.536356
v 0.8796877 2.191508 -1.684833
v 1.287624 0.08990326 -1.536355
v 1.287625 1.820499 -1.536356
v 1.255365 0.103907 -1.490284
v -0.1196135 0.103907 -1.990737
v 1.255365 0.103907 -1.490284
v -0.1147129 0.08990326 -2.046764
v 1.287624 0.08990326 -1.536355
v 1.191272 1.773542 -1.632046
v 0.8094729 2.086982 -1.655385
v 0.8466323 2.086982 -1.757484
v 1.15411 1.773542 -1.529947
v 1.19127 0.194429 -1.632045
v 1.15411 1.773542 -1.529947
v 1.191272 1.773542 -1.632046
v 1.15411 0.194429 -1.529946
v -0.006868705 0.194429 -2.068132
v 1.15411 0.194429 -1.529946
v 1.19127 0.194429 -1.632045
v -0.04402996 0.1944293 -1.966034
v -0.006868705 1.773542 -2.068133
v -0.04402996 0.1944293 -1.966034
v -0.006868705 0.194429 -2.068132
v -0.04402935 1.773542 -1.966035
v 0.3377694 2.086982 -1.942695
v -0.04402935 1.773542 -1.966035
v -0.006868705 1.773542 -2.068133
v 0.3006087 2.086982 -1.840597
v 0.8466323 2.086982 -1.757484
v 0.3006087 2.086982 -1.840597
v 0.3377694 2.086982 -1.942695
v 0.8094729 2.086982 -1.655385
v 1.15411 1.773542 -1.529947
v 0.3006087 2.086982 -1.840597
v 0.8094729 2.086982 -1.655385
v -0.04402935 1.773542 -1.966035
v 1.15411 0.194429 -1.529946
v -0.04402996 0.1944293 -1.966034
v 1.19127 0.194429 -1.632045
v -0.006868705 1.773542 -2.068133
v -0.006868705 0.194429 -2.068132
v 1.191272 1.773542 -1.632046
v 0.3377694 2.086982 -1.942695
v 0.8466323 2.086982 -1.757484
v -1.180641 4.363376 -0.8266957
v -0.3730351 4.363376 -1.392186
v -0.8266935 4.363376 -1.180643
v -1.435812 4.363376 0.1256157
v -1.392187 4.363376 -0.3730373
v -1.01915 4.363376 1.019149
v -1.306258 4.363376 0.6091166
v 1.306259 4.363376 -0.609117
v 0.6091194 4.363376 -1.306258
v 0.1256179 4.363376 -1.435812
v 1.019152 4.363376 -1.01915
v 0.8266945 4.363376 1.180642
v 1.392187 4.363376 0.3730363
v 1.435812 4.363376 -0.125616
v 1.180642 4.363376 0.8266948
v -0.1256169 4.363376 1.435812
v 0.3730361 4.363376 1.392185
v -0.6091179 4.363376 1.306257
v -0.6091179 4.363376 1.306257
v -0.1256169 6.297608 1.435812
v -0.1256169 4.363376 1.435812
v -0.6091179 6.297608 1.306257
v -1.01915 4.363376 1.019149
v -1.01915 6.297608 1.01915
v -1.306258 4.363376 0.6091166
v -1.306258 6.297608 0.6091166
v -1.435812 4.363376 0.1256157
v -1.435812 6.297608 0.1256157
v -1.392187 4.363376 -0.3730373
v -1.392187 6.297608 -0.3730373
v -1.180641 4.363376 -0.8266957
v -1.180641 6.297608 -0.8266957
v -0.8266935 4.363376 -1.180643
v -0.8266935 6.297608 -1.180643
v -0.3730351 4.363376 -1.392186
v -0.3730351 6.297608 -1.392186
v 0.1256179 4.363376 -1.435812
v 0.1256179 6.297608 -1.435812
v 0.6091194 4.363376 -1.306258
v 0.6091194 6.297608 -1.306258
v 1.019152 4.363376 -1.01915
v 1.019152 6.297608 -1.01915
v 1.306259 4.363376 -0.609117
v 1.306259 6.297608 -0.609117
v 1.435812 4.363376 -0.125616
v 1.435812 6.297608 -0.125616
v 1.392187 4.363376 0.3730363
v 1.392187 6.297608 0.3730363
v 1.180642 4.363376 0.8266948
v 1.180642 6.297608 0.8266948
v 0.8266945 4.363376 1.180642
v 0.8266945 6.297608 1.180642
v 0.3730361 4.363376 1.392185
v 0.3730361 6.297608 1.392185
v -0.1256169 4.363376 1.435812
v -0.1256169 6.297608 1.435812
v -1.435812 6.297608 0.1256157
v -1.01915 6.297608 1.01915
v -1.306258 6.297608 0.6091166
v -1.180641 6.297608 -0.8266957
v -1.392187 6.297608 -0.3730373
v -0.3730351 6.297608 -1.392186
v -0.8266935 6.297608 -1.180643
v 0.8266945 6.297608 1.180642
v -0.1256169 6.297608 1.435812
v -0.6091179 6.297608 1.306257
v 0.3730361 6.297608 1.392185
v 1.306259 6.297608 -0.609117
v 1.392187 6.297608 0.3730363
v 1.180642 6.297608 0.8266948
v 1.435812 6.297608 -0.125616
v 0.6091194 6.297608 -1.306258
v 1.019152 6.297608 -1.01915
v 0.1256179 6.297608 -1.435812
v -1.954414 6.208636 -1.368498
v -0.6175144 6.208636 -2.304604
v -1.368494 6.208636 -1.954417
v -2.376823 6.208636 0.2079448
v -2.304601 6.208636 -0.6175191
v -1.687085 6.208636 1.687086
v -2.162361 6.208636 1.008325
v 2.162361 6.208636 -1.008325
v 1.008327 6.208636 -2.16236
v 0.2079476 6.208636 -2.376822
v 1.687088 6.208636 -1.687086
v 1.368497 6.208636 1.954416
v 2.304603 6.208636 0.6175163
v 2.376822 6.208636 -0.2079445
v 1.954416 6.208636 1.368497
v -0.2079454 6.208636 2.376821
v 0.6175166 6.208636 2.304602
v -1.008327 6.208636 2.16236
v -1.008327 6.208636 2.16236
v -0.004158134 7.477941 0.04753644
v -0.2079454 6.208636 2.376821
v -0.02016643 7.477941 0.0432475
v -1.687085 6.208636 1.687086
v -0.03374187 7.477941 0.03374188
v -2.162361 6.208636 1.008325
v -0.04324688 7.477941 0.02016644
v -2.376823 6.208636 0.2079448
v -0.04753643 7.477941 0.004158752
v -2.304601 6.208636 -0.6175191
v -0.04609173 7.477941 -0.01235065
v -1.954414 6.208636 -1.368498
v -0.03908794 7.477941 -0.02737018
v -1.368494 6.208636 -1.954417
v -0.02736919 7.477941 -0.03908893
v -0.6175144 6.208636 -2.304604
v -0.01234966 7.477941 -0.04609271
v 0.2079476 6.208636 -2.376822
v 0.004159737 7.477941 -0.04753741
v 1.008327 6.208636 -2.16236
v 0.02016682 7.477941 -0.04324786
v 1.687088 6.208636 -1.687086
v 0.03374226 7.477941 -0.03374225
v 2.162361 6.208636 -1.008325
v 0.04324848 7.477941 -0.02016681
v 2.376822 6.208636 -0.2079445
v 0.04753742 7.477941 -0.004159119
v 2.304603 6.208636 0.6175163
v 0.04609272 7.477941 0.01235028
v 1.954416 6.208636 1.368497
v 0.03908893 7.477941 0.02736981
v 1.368497 6.208636 1.954416
v 0.02736958 7.477941 0.03908795
v 0.6175166 6.208636 2.304602
v 0.01235126 7.477941 0.04609174
v -0.2079454 6.208636 2.376821
v -0.004158134 7.477941 0.04753644
v -0.04753643 7.477941 0.004158752
v -0.03374187 7.477941 0.03374188
v -0.04324688 7.477941 0.02016644
v -0.03908794 7.477941 -0.02737018
v -0.04609173 7.477941 -0.01235065
v -0.01234966 7.477941 -0.04609271
v -0.02736919 7.477941 -0.03908893
v 0.02736958 7.477941 0.03908795
v -0.004158134 7.477941 0.04753644
v -0.02016643 7.477941 0.0432475
v 0.01235126 7.477941 0.04609174
v 0.04324848 7.477941 -0.02016681
v 0.04609272 7.477941 0.01235028
v 0.03908893 7.477941 0.02736981
v 0.04753742 7.477941 -0.004159119
v 0.02016682 7.477941 -0.04324786
v 0.03374226 7.477941 -0.03374225
v 0.004159737 7.477941 -0.04753741
v 0.2155025 4.86698 -0.6690541
v 0.5143672 5.089679 -0.560276
v 0.4030184 4.92045 -0.600804
v 0.007763863 5.341073 -0.7446657
v -0.04248089 5.141522 -0.7629536
v 0.03956196 4.954288 -0.7330922
v 0.3601778 5.441563 -0.6163973
v 0.4974483 5.295482 -0.5664345
v 0.1667867 5.459569 -0.6867861
v 0.007763863 5.341073 -0.7446657
v 0.6153877 5.459569 -1.919307
v 0.1667867 5.459569 -0.6867861
v 0.4563643 5.341073 -1.977186
v -0.04248089 5.141522 -0.7629536
v 0.4061202 5.141523 -1.995474
v 0.03956196 4.954288 -0.7330922
v 0.4881624 4.954289 -1.965613
v 0.2155025 4.86698 -0.6690541
v 0.6641036 4.86698 -1.901574
v 0.4030184 4.92045 -0.600804
v 0.8516189 4.92045 -1.833324
v 0.5143672 5.089679 -0.560276
v 0.9629689 5.089679 -1.792797
v 0.4974483 5.295482 -0.5664345
v 0.9460494 5.295483 -1.798955
v 0.3601778 5.441563 -0.6163973
v 0.8087783 5.441563 -1.848918
v 0.1667867 5.459569 -0.6867861
v 0.6153877 5.459569 -1.919307
v 0.4563643 5.341073 -1.977186
v 0.8087783 5.441563 -1.848918
v 0.6153877 5.459569 -1.919307
v 0.6641036 4.86698 -1.901574
v 0.4881624 4.954289 -1.965613
v 0.4061202 5.141523 -1.995474
v 0.9629689 5.089679 -1.792797
v 0.9460494 5.295483 -1.798955
v 0.8516189 4.92045 -1.833324
vt 0.02000427 0.8852539
vt 0.01275635 0.8852539
vt 0.01529694 0.8852539
vt 0.04418945 0.8852539
vt 0.02630615 0.8852539
vt 0.04901123 0.8852539
vt 0.04660034 0.8852539
vt 0.02598572 0.8852539
vt 0.01511383 0.8852539
vt 0.01269531 0.8852539
vt 0.01972961 0.8852539
vt 0.05126953 0.8852539
vt 0.04025269 0.8852539
vt 0.03311157 0.8852539
vt 0.04656982 0.8852539
vt 0.05386353 0.8852539
vt 0.05380249 0.8852539
vt 0.05145264 0.8852539
vt 0.05145264 0.8852539
vt 0.05386353 0.894043
vt 0.05386353 0.8852539
vt 0.05145264 0.894043
vt 0.05386353 0.902832
vt 0.04901123 0.8852539
vt 0.05145264 0.902832
vt 0.05386353 0.9116211
vt 0.04901123 0.894043
vt 0.04660034 0.8852539
vt 0.05145264 0.9116211
vt 0.05386353 0.9204102
vt 0.04660034 0.894043
vt 0.04418945 0.8852539
vt 0.04901123 0.902832
vt 0.05145264 0.9204102
vt 0.05386353 0.9291992
vt 0.05145264 0.9291992
vt 0.04418945 0.894043
vt 0.04174805 0.8852539
vt 0.04660034 0.902832
vt 0.04901123 0.9116211
vt 0.04901123 0.9204102
vt 0.04901123 0.9291992
vt 0.04174805 0.894043
vt 0.03933716 0.8852539
vt 0.04418945 0.902832
vt 0.04660034 0.9116211
vt 0.04660034 0.9204102
vt 0.04660034 0.9291992
vt 0.03933716 0.894043
vt 0.03692627 0.8852539
vt 0.04174805 0.902832
vt 0.04418945 0.9116211
vt 0.04418945 0.9204102
vt 0.04418945 0.9291992
vt 0.03692627 0.894043
vt 0.03448486 0.8852539
vt 0.03933716 0.902832
vt 0.04174805 0.9116211
vt 0.04174805 0.9204102
vt 0.04174805 0.9291992
vt 0.03448486 0.894043
vt 0.03207397 0.8852539
vt 0.03692627 0.902832
vt 0.03933716 0.9116211
vt 0.03933716 0.9204102
vt 0.03933716 0.9291992
vt 0.03207397 0.894043
vt 0.02964783 0.8852539
vt 0.03448486 0.902832
vt 0.03692627 0.9116211
vt 0.03692627 0.9204102
vt 0.03692627 0.9291992
vt 0.02964783 0.894043
vt 0.02722168 0.8852539
vt 0.03207397 0.902832
vt 0.03448486 0.9116211
vt 0.03448486 0.9204102
vt 0.03448486 0.9291992
vt 0.02722168 0.894043
vt 0.02481079 0.8852539
vt 0.02964783 0.902832
vt 0.03207397 0.9116211
vt 0.03207397 0.9204102
vt 0.03207397 0.9291992
vt 0.02481079 0.894043
vt 0.02238464 0.8852539
vt 0.02722168 0.902832
vt 0.02964783 0.9116211
vt 0.02964783 0.9204102
vt 0.02964783 0.9291992
vt 0.02238464 0.894043
vt 0.0199585 0.8852539
vt 0.02481079 0.902832
vt 0.02722168 0.9116211
vt 0.02722168 0.9204102
vt 0.02722168 0.9291992
vt 0.0199585 0.894043
vt 0.01753235 0.8852539
vt 0.02238464 0.902832
vt 0.02481079 0.9116211
vt 0.02481079 0.9204102
vt 0.02481079 0.9291992
vt 0.01753235 0.894043
vt 0.01511383 0.8852539
vt 0.0199585 0.902832
vt 0.02238464 0.9116211
vt 0.02238464 0.9204102
vt 0.02238464 0.9291992
vt 0.01511383 0.894043
vt 0.01269531 0.8852539
vt 0.01753235 0.902832
vt 0.0199585 0.9116211
vt 0.0199585 0.9204102
vt 0.0199585 0.9291992
vt 0.01269531 0.894043
vt 0.01027679 0.8852539
vt 0.01027679 0.894043
vt 0.01511383 0.902832
vt 0.01753235 0.9116211
vt 0.01753235 0.9204102
vt 0.01753235 0.9291992
vt 0.01269531 0.902832
vt 0.01027679 0.902832
vt 0.01511383 0.9116211
vt 0.01511383 0.9204102
vt 0.01511383 0.9291992
vt 0.01269531 0.9116211
vt 0.01027679 0.9116211
vt 0.01269531 0.9204102
vt 0.01269531 0.9291992
vt 0.01027679 0.9204102
vt 0.01027679 0.9291992
vt 0.04418945 0.9291992
vt 0.04901123 0.9291992
vt 0.04660034 0.9291992
vt 0.02000427 0.9291992
vt 0.04174805 0.9291992
vt 0.01275635 0.9291992
vt 0.01529694 0.9291992
vt 0.05126953 0.9291992
vt 0.05386353 0.9291992
vt 0.05145264 0.9291992
vt 0.05380249 0.9291992
vt 0.02598572 0.9291992
vt 0.04025269 0.9291992
vt 0.04656982 0.9291992
vt 0.03311157 0.9291992
vt 0.01511383 0.9291992
vt 0.01972961 0.9291992
vt 0.01269531 0.9291992
vt 0.2070313 0.9282227
vt 0.1948242 0.9204102
vt 0.1943359 0.9204102
vt 0.2072754 0.9282227
vt 0.1959229 0.9199219
vt 0.1959229 0.8857422
vt 0.1948242 0.8847656
vt 0.1943359 0.9204102
vt 0.1943359 0.8847656
vt 0.2076416 0.9272461
vt 0.1975098 0.8867188
vt 0.1975098 0.9194336
vt 0.2250977 0.9282227
vt 0.2253418 0.9282227
vt 0.2070313 0.9282227
vt 0.2347412 0.8867188
vt 0.2363281 0.8857422
vt 0.1948242 0.8847656
vt 0.2375488 0.8847656
vt 0.1943359 0.8847656
vt 0.237915 0.8847656
vt 0.2363281 0.9199219
vt 0.2347412 0.9194336
vt 0.2375488 0.9204102
vt 0.237915 0.8847656
vt 0.237915 0.9204102
vt 0.2331543 0.8881836
vt 0.2331543 0.9189453
vt 0.1990967 0.8881836
vt 0.2247314 0.9272461
vt 0.2241211 0.9262695
vt 0.2235107 0.9248047
vt 0.237915 0.9204102
vt 0.2253418 0.9282227
vt 0.208252 0.9262695
vt 0.1990967 0.9189453
vt 0.2088623 0.9248047
vt 0.2003174 0.8886719
vt 0.2003174 0.9189453
vt 0.2006836 0.8891602
vt 0.2006836 0.918457
vt 0.2093506 0.9243164
vt 0.2006836 0.918457
vt 0.2094727 0.9238281
vt 0.2230225 0.9243164
vt 0.2094727 0.9238281
vt 0.2229004 0.9238281
vt 0.2320557 0.9189453
vt 0.2229004 0.9238281
vt 0.2315674 0.918457
vt 0.2320557 0.8886719
vt 0.2315674 0.918457
vt 0.2315674 0.8891602
vt 0.2003174 0.8886719
vt 0.2315674 0.8891602
vt 0.2006836 0.8891602
vt 0.2094727 0.9238281
vt 0.2003174 0.9189453
vt 0.2006836 0.918457
vt 0.2093506 0.9243164
vt 0.1990967 0.9189453
vt 0.1990967 0.8881836
vt 0.2003174 0.8886719
vt 0.2006836 0.918457
vt 0.2006836 0.8891602
vt 0.2088623 0.9248047
vt 0.1975098 0.8867188
vt 0.1975098 0.9194336
vt 0.2230225 0.9243164
vt 0.2229004 0.9238281
vt 0.2094727 0.9238281
vt 0.2347412 0.8867188
vt 0.2331543 0.8881836
vt 0.2003174 0.8886719
vt 0.2320557 0.8886719
vt 0.2006836 0.8891602
vt 0.2315674 0.8891602
vt 0.208252 0.9262695
vt 0.2235107 0.9248047
vt 0.1959229 0.8857422
vt 0.2363281 0.8857422
vt 0.1959229 0.9199219
vt 0.2347412 0.9194336
vt 0.2363281 0.9199219
vt 0.2331543 0.9189453
vt 0.2320557 0.8886719
vt 0.2320557 0.9189453
vt 0.2315674 0.8891602
vt 0.2315674 0.918457
vt 0.2315674 0.918457
vt 0.2229004 0.9238281
vt 0.2241211 0.9262695
vt 0.2247314 0.9272461
vt 0.2076416 0.9272461
vt 0.2250977 0.9282227
vt 0.2072754 0.9282227
vt 0.1948242 0.9204102
vt 0.2070313 0.9282227
vt 0.2253418 0.9282227
vt 0.2375488 0.9204102
vt 0.2253418 0.9282227
vt 0.237915 0.9204102
vt 0.2375488 0.8847656
vt 0.237915 0.9204102
vt 0.237915 0.8847656
vt 0.1943359 0.9204102
vt 0.2070313 0.9282227
vt 0.1943359 0.8847656
vt 0.1943359 0.9204102
vt 0.1948242 0.8847656
vt 0.2375488 0.8847656
vt 0.1948242 0.8847656
vt 0.237915 0.8847656
vt 0.1943359 0.8847656
vt 0.1375732 0.9204102
vt 0.1501465 0.9277344
vt 0.1501465 0.9277344
vt 0.1375732 0.9204102
vt 0.1375732 0.8842773
vt 0.1375732 0.9204102
vt 0.1375732 0.9204102
vt 0.1375732 0.8842773
vt 0.1812744 0.8842773
vt 0.1375732 0.8842773
vt 0.1375732 0.8842773
vt 0.1812744 0.8842773
vt 0.1812744 0.9204102
vt 0.1812744 0.8842773
vt 0.1812744 0.8842773
vt 0.1812744 0.9204102
vt 0.1687012 0.9277344
vt 0.1812744 0.9204102
vt 0.1812744 0.9204102
vt 0.1687012 0.9277344
vt 0.1501465 0.9277344
vt 0.1687012 0.9277344
vt 0.1687012 0.9277344
vt 0.1501465 0.9277344
vt 0.1375732 0.9204102
vt 0.1687012 0.9277344
vt 0.1501465 0.9277344
vt 0.1812744 0.9204102
vt 0.1375732 0.8842773
vt 0.1812744 0.8842773
vt 0.1375732 0.8842773
vt 0.1812744 0.9204102
vt 0.1812744 0.8842773
vt 0.1375732 0.9204102
vt 0.1687012 0.9277344
vt 0.1501465 0.9277344
vt 0.07971191 0.8896484
vt 0.07244873 0.8896484
vt 0.07501221 0.8896484
vt 0.1038818 0.8896484
vt 0.08599854 0.8896484
vt 0.1087646 0.8896484
vt 0.1063232 0.8896484
vt 0.08569336 0.8896484
vt 0.0748291 0.8896484
vt 0.0723877 0.8896484
vt 0.07946777 0.8896484
vt 0.1109619 0.8896484
vt 0.09997559 0.8896484
vt 0.09283447 0.8896484
vt 0.1062622 0.8896484
vt 0.1135864 0.8896484
vt 0.1135254 0.8896484
vt 0.111145 0.8896484
vt 0.111145 0.8896484
vt 0.1135864 0.9331055
vt 0.1135864 0.8896484
vt 0.111145 0.9331055
vt 0.1087646 0.8896484
vt 0.1087646 0.9331055
vt 0.1063232 0.8896484
vt 0.1063232 0.9331055
vt 0.1038818 0.8896484
vt 0.1038818 0.9331055
vt 0.1015015 0.8896484
vt 0.1015015 0.9331055
vt 0.09906006 0.8896484
vt 0.09906006 0.9331055
vt 0.09661865 0.8896484
vt 0.09661865 0.9331055
vt 0.09423828 0.8896484
vt 0.09423828 0.9331055
vt 0.09179688 0.8896484
vt 0.09179688 0.9331055
vt 0.08935547 0.8896484
vt 0.08935547 0.9331055
vt 0.0869751 0.8896484
vt 0.0869751 0.9331055
vt 0.08453369 0.8896484
vt 0.08453369 0.9331055
vt 0.08209229 0.8896484
vt 0.08209229 0.9331055
vt 0.07965088 0.8896484
vt 0.07965088 0.9331055
vt 0.07727051 0.8896484
vt 0.07727051 0.9331055
vt 0.0748291 0.8896484
vt 0.0748291 0.9331055
vt 0.0723877 0.8896484
vt 0.0723877 0.9331055
vt 0.07000732 0.8896484
vt 0.07000732 0.9331055
vt 0.1038818 0.9331055
vt 0.1087646 0.9331055
vt 0.1063232 0.9331055
vt 0.07971191 0.9331055
vt 0.1015015 0.9331055
vt 0.07244873 0.9331055
vt 0.07501221 0.9331055
vt 0.1109619 0.9331055
vt 0.1135864 0.9331055
vt 0.111145 0.9331055
vt 0.1135254 0.9331055
vt 0.08569336 0.9331055
vt 0.09997559 0.9331055
vt 0.1062622 0.9331055
vt 0.09283447 0.9331055
vt 0.0748291 0.9331055
vt 0.07946777 0.9331055
vt 0.0723877 0.9331055
vt 0.2064209 0.8896484
vt 0.1990967 0.8896484
vt 0.2016602 0.8896484
vt 0.2305908 0.8896484
vt 0.2126465 0.8896484
vt 0.2354736 0.8896484
vt 0.2330322 0.8896484
vt 0.2124023 0.8896484
vt 0.2015381 0.8896484
vt 0.1990967 0.8896484
vt 0.2061768 0.8896484
vt 0.2376709 0.8896484
vt 0.2266846 0.8896484
vt 0.2194824 0.8896484
vt 0.2329102 0.8896484
vt 0.2402344 0.8896484
vt 0.2402344 0.8896484
vt 0.237793 0.8896484
vt 0.237793 0.8896484
vt 0.2402344 0.9331055
vt 0.2402344 0.8896484
vt 0.237793 0.9331055
vt 0.2354736 0.8896484
vt 0.2354736 0.9331055
vt 0.2330322 0.8896484
vt 0.2330322 0.9331055
vt 0.2305908 0.8896484
vt 0.2305908 0.9331055
vt 0.2281494 0.8896484
vt 0.2281494 0.9331055
vt 0.225708 0.8896484
vt 0.225708 0.9331055
vt 0.2232666 0.8896484
vt 0.2232666 0.9331055
vt 0.2209473 0.8896484
vt 0.2209473 0.9331055
vt 0.2185059 0.8896484
vt 0.2185059 0.9331055
vt 0.2160645 0.8896484
vt 0.2160645 0.9331055
vt 0.213623 0.8896484
vt 0.213623 0.9331055
vt 0.2111816 0.8896484
vt 0.2111816 0.9331055
vt 0.2087402 0.8896484
vt 0.2087402 0.9331055
vt 0.2062988 0.8896484
vt 0.2062988 0.9331055
vt 0.2039795 0.8896484
vt 0.2039795 0.9331055
vt 0.2015381 0.8896484
vt 0.2015381 0.9331055
vt 0.1990967 0.8896484
vt 0.1990967 0.9331055
vt 0.1966553 0.8896484
vt 0.1966553 0.9331055
vt 0.2305908 0.9331055
vt 0.2354736 0.9331055
vt 0.2330322 0.9331055
vt 0.2064209 0.9331055
vt 0.2281494 0.9331055
vt 0.1990967 0.9331055
vt 0.2016602 0.9331055
vt 0.2376709 0.9331055
vt 0.2402344 0.9331055
vt 0.237793 0.9331055
vt 0.2402344 0.9331055
vt 0.2124023 0.9331055
vt 0.2266846 0.9331055
vt 0.2329102 0.9331055
vt 0.2194824 0.9331055
vt 0.2015381 0.9331055
vt 0.2061768 0.9331055
vt 0.1990967 0.9331055
vt 0.2012939 0.887207
vt 0.2130127 0.887207
vt 0.2033691 0.887207
vt 0.2333984 0.887207
vt 0.229126 0.887207
vt 0.2076416 0.887207
vt 0.2354736 0.887207
vt 0.225708 0.887207
vt 0.2376709 0.887207
vt 0.2333984 0.887207
vt 0.2376709 0.9257813
vt 0.2376709 0.887207
vt 0.2333984 0.9257813
vt 0.229126 0.887207
vt 0.229126 0.9257813
vt 0.2248535 0.887207
vt 0.2248535 0.9257813
vt 0.2205811 0.887207
vt 0.2205811 0.9257813
vt 0.2163086 0.887207
vt 0.2163086 0.9257813
vt 0.2119141 0.887207
vt 0.2119141 0.9257813
vt 0.2076416 0.887207
vt 0.2076416 0.9257813
vt 0.2033691 0.887207
vt 0.2033691 0.9257813
vt 0.1990967 0.887207
vt 0.1990967 0.9257813
vt 0.2333984 0.9257813
vt 0.2354736 0.9257813
vt 0.2376709 0.9257813
vt 0.2012939 0.9257813
vt 0.2076416 0.9257813
vt 0.229126 0.9257813
vt 0.2130127 0.9257813
vt 0.225708 0.9257813
vt 0.2033691 0.9257813
vn 0 -1 0
vn 0 -1 0
vn 0 -1 0
vn 0 -1 0
vn 4.768372E-07 -1 1.192093E-07
vn 0 -1 0
vn 2.384186E-07 -1 -1.788139E-07
vn 0 -1 0
vn 0 -1 -1.192093E-07
vn 0 -1 0
vn 8.940697E-07 -1 -9.536743E-07
vn 0 -1 0
vn 0 -1 0
vn 2.384186E-07 -1 0
vn -2.384186E-07 -1 -1.192093E-07
vn 0 -1 0
vn 0 -1 -2.384186E-07
vn 0 -1 2.384186E-07
vn -0.409668 0.2445068 0.8789063
vn -0.08532715 0.2039795 0.9750977
vn -0.08453369 0.2445068 0.9658203
vn -0.4138184 0.2039795 0.887207
vn -0.08648682 0.1242676 0.9882813
vn -0.6855469 0.2445068 0.6855469
vn -0.4194336 0.1242676 0.8994141
vn -0.08703613 0.05282593 0.9946289
vn -0.6923828 0.2039795 0.6923828
vn -0.8789063 0.2445068 0.409668
vn -0.4221191 0.05282593 0.9052734
vn -0.0871582 -0.01064301 0.9960938
vn -0.887207 0.2039795 0.4138184
vn -0.9658203 0.2445068 0.08453369
vn -0.7016602 0.1242676 0.7016602
vn -0.4226074 -0.01064301 0.90625
vn -0.08709717 -0.04031372 0.9956055
vn -0.4223633 -0.04031372 0.9057617
vn -0.9750977 0.2039795 0.08532715
vn -0.9365234 0.2445068 -0.2509766
vn -0.8994141 0.1242676 0.4194336
vn -0.7060547 0.05282593 0.7060547
vn -0.7070313 -0.01064301 0.7070313
vn -0.706543 -0.04031372 0.706543
vn -0.9458008 0.2039795 -0.253418
vn -0.7944336 0.2445068 -0.5561523
vn -0.9882813 0.1242676 0.08648682
vn -0.9052734 0.05282593 0.4221191
vn -0.90625 -0.01064301 0.4226074
vn -0.9057617 -0.04031372 0.4223633
vn -0.8017578 0.2039795 -0.5615234
vn -0.5561523 0.2445068 -0.7944336
vn -0.9584961 0.1242676 -0.2568359
vn -0.9946289 0.05282593 0.08703613
vn -0.9960938 -0.01064301 0.0871582
vn -0.9956055 -0.04031372 0.08709717
vn -0.5615234 0.2039795 -0.8017578
vn -0.2509766 0.2445068 -0.9365234
vn -0.8129883 0.1242676 -0.5693359
vn -0.9643555 0.05282593 -0.2585449
vn -0.9658203 -0.01064301 -0.2587891
vn -0.965332 -0.04031372 -0.2585449
vn -0.253418 0.2039795 -0.9458008
vn 0.08453369 0.2445068 -0.9658203
vn -0.5693359 0.1242676 -0.8129883
vn -0.8178711 0.05282593 -0.5727539
vn -0.8193359 -0.01064301 -0.5737305
vn -0.8183594 -0.04031372 -0.5732422
vn 0.08532715 0.2039795 -0.9750977
vn 0.4099121 0.2445068 -0.8789063
vn -0.2568359 0.1242676 -0.9584961
vn -0.5727539 0.05282593 -0.8178711
vn -0.5737305 -0.01064301 -0.8193359
vn -0.5732422 -0.04031372 -0.8183594
vn 0.4138184 0.2039795 -0.887207
vn 0.6855469 0.2445068 -0.6855469
vn 0.08648682 0.1242676 -0.9882813
vn -0.2585449 0.05282593 -0.9643555
vn -0.2587891 -0.01064301 -0.9658203
vn -0.2585449 -0.04031372 -0.965332
vn 0.6923828 0.2039795 -0.6923828
vn 0.8789063 0.2445068 -0.409668
vn 0.4194336 0.1242676 -0.8994141
vn 0.08703613 0.05282593 -0.9946289
vn 0.0871582 -0.01064301 -0.9960938
vn 0.08709717 -0.04031372 -0.9956055
vn 0.887207 0.2039795 -0.4138184
vn 0.9658203 0.2445068 -0.08453369
vn 0.7016602 0.1242676 -0.7016602
vn 0.4221191 0.05282593 -0.9052734
vn 0.4226074 -0.01064301 -0.90625
vn 0.4223633 -0.04031372 -0.9057617
vn 0.9750977 0.2039795 -0.08532715
vn 0.9365234 0.2445068 0.2509766
vn 0.8994141 0.1242676 -0.4194336
vn 0.7060547 0.05282593 -0.7060547
vn 0.7070313 -0.01064301 -0.7070313
vn 0.706543 -0.04031372 -0.706543
vn 0.9458008 0.2039795 0.253418
vn 0.7944336 0.2445068 0.5561523
vn 0.9882813 0.1242676 -0.08648682
vn 0.9052734 0.05282593 -0.4221191
vn 0.90625 -0.01064301 -0.4226074
vn 0.9057617 -0.04031372 -0.4223633
vn 0.8017578 0.2039795 0.5615234
vn 0.5561523 0.2445068 0.7944336
vn 0.9584961 0.1242676 0.2568359
vn 0.9946289 0.05282593 -0.08703613
vn 0.9960938 -0.01064301 -0.0871582
vn 0.9956055 -0.04031372 -0.08709717
vn 0.5615234 0.2039795 0.8017578
vn 0.2509766 0.2445068 0.9365234
vn 0.8129883 0.1242676 0.5693359
vn 0.9643555 0.05282593 0.2585449
vn 0.9658203 -0.01064301 0.2587891
vn 0.965332 -0.04031372 0.2585449
vn 0.253418 0.2039795 0.9458008
vn -0.08453369 0.2445068 0.9658203
vn -0.08532715 0.2039795 0.9750977
vn 0.5693359 0.1242676 0.8129883
vn 0.8178711 0.05282593 0.5727539
vn 0.8193359 -0.01064301 0.5737305
vn 0.8183594 -0.04031372 0.5732422
vn 0.2568359 0.1242676 0.9584961
vn -0.08648682 0.1242676 0.9882813
vn 0.5727539 0.05282593 0.8178711
vn 0.5737305 -0.01064301 0.8193359
vn 0.5732422 -0.04031372 0.8183594
vn 0.2585449 0.05282593 0.9643555
vn -0.08703613 0.05282593 0.9946289
vn 0.2587891 -0.01064301 0.9658203
vn 0.2585449 -0.04031372 0.965332
vn -0.0871582 -0.01064301 0.9960938
vn -0.08709717 -0.04031372 0.9956055
vn -6.556511E-07 1 0
vn 0 1 1.192093E-07
vn -1.788139E-07 1 -4.172325E-07
vn 4.172325E-07 1 1.788139E-07
vn 3.695488E-06 1 1.251698E-06
vn 1.192093E-07 1 2.384186E-07
vn 2.44379E-06 1 3.099442E-06
vn -2.384186E-07 1 -3.576279E-07
vn 0 1 4.768372E-07
vn -6.556511E-07 1 2.563E-06
vn -1.370907E-06 1 -5.00679E-06
vn 2.980232E-07 1 -1.788139E-07
vn 0 1 0
vn -3.33786E-06 1 -2.026558E-06
vn 3.933907E-06 1 -1.192093E-07
vn 0 1 -2.980232E-07
vn 4.470348E-06 1 -4.768372E-06
vn -3.576279E-07 1 1.251698E-06
vn 0.6103516 0.7602539 0.222168
vn 0.8984375 0.3891602 -0.2041016
vn 0.6103516 0.7602539 0.222168
vn 0.4277344 0.8383789 -0.3383789
vn 0.7329102 0.2176514 -0.6450195
vn 0.6049805 -0.3583984 -0.7109375
vn 0.9975586 -1.788139E-07 -0.07092285
vn 0.9394531 0 0.342041
vn 0.9394531 0 0.342041
vn 0.4638672 0.5166016 -0.7197266
vn 0.4111328 -0.05789185 -0.909668
vn 0.392334 0.01276398 -0.9199219
vn -0.1102905 0.8383789 -0.5341797
vn -3.576279E-07 1 1.192093E-07
vn -2.980232E-07 1 0
vn 0.2697754 -0.05792236 -0.9609375
vn -0.006469727 -0.3583984 -0.9335938
vn 0.1392822 -0.9130859 -0.3825684
vn -0.3054199 -0.6708984 -0.6757813
vn 0 -1 -2.384186E-07
vn -1.788139E-07 -1 4.768372E-07
vn -0.1467285 0.2176514 -0.9648438
vn 0.2907715 0.01276398 -0.956543
vn -0.5571289 0.3891602 -0.7338867
vn -0.9394531 0 -0.342041
vn -0.9394531 0 -0.342041
vn 0.5107422 0.230957 -0.828125
vn 0.6694336 -0.1904297 -0.7177734
vn 0.1412354 0.230957 -0.9628906
vn 0.1071777 0.5166016 -0.8496094
vn 0.3120117 0.06130981 -0.9482422
vn 0.4423828 -0.4177246 -0.793457
vn -0.6103516 0.7602539 -0.222168
vn -0.6103516 0.7602539 -0.222168
vn 0.3703613 0.06130981 -0.9267578
vn -0.05136108 -0.1904297 -0.9804688
vn 0.1712646 -0.4177246 -0.8920898
vn -0.5800781 -3.576279E-07 -0.8144531
vn -0.5141602 -0.3623047 -0.7773438
vn -0.9394531 -1.788139E-07 -0.342041
vn -0.9394531 -1.788139E-07 -0.342041
vn -0.08099365 -0.796875 -0.5986328
vn -0.6103516 -0.7602539 -0.222168
vn -0.6103516 -0.7602539 -0.222168
vn 0.4467773 -0.796875 -0.4064941
vn -1.788139E-07 -1 3.576279E-07
vn 0 -1 0
vn 0.8935547 -0.3623047 -0.2646484
vn 0.6103516 -0.7602539 0.222168
vn 0.6103516 -0.7602539 0.222168
vn 0.6748047 0.5668945 -0.4729004
vn 0.9394531 0 0.342041
vn 0.9394531 1.192093E-07 0.342041
vn 0.1796875 0.8510742 -0.4936523
vn 0 1 0
vn 0 1 0
vn -0.6103516 -0.7602539 -0.222168
vn -0.8935547 -0.3623047 0.2646484
vn -0.6103516 -0.7602539 -0.222168
vn -0.4467773 -0.796875 0.4064941
vn -0.6694336 -0.1904297 0.7177734
vn -0.5107422 0.230957 0.828125
vn -0.9677734 0 0.2512207
vn -0.9394531 -1.788139E-07 -0.342041
vn -0.9394531 -1.788139E-07 -0.342041
vn -0.4423828 -0.4177246 0.793457
vn -0.2697754 -0.05789185 0.9609375
vn -0.2907715 0.01276398 0.956543
vn 0.08099365 -0.796875 0.5986328
vn 0 -1 0
vn -1.788139E-07 -1 3.576279E-07
vn -0.4111328 -0.05789185 0.909668
vn -0.1412354 0.230957 0.9628906
vn -0.1796875 0.8510742 0.4936523
vn -0.1796875 0.8510742 0.4936523
vn 0 1 0
vn 0 1 0
vn -0.3120117 0.06130981 0.9482422
vn -0.1712646 -0.4177246 0.8920898
vn 0.006469727 -0.3583984 0.9335938
vn -0.6049805 -0.3583984 0.7109375
vn 0.1467285 0.2176514 0.9648438
vn -0.392334 0.01276398 0.9199219
vn -0.7329102 0.2176514 0.6450195
vn 0.05136108 -0.1904297 0.9804688
vn 0.5800781 3.576279E-07 0.8144531
vn 0.5141602 -0.3623047 0.7773438
vn 0.9394531 1.192093E-07 0.342041
vn 0.9394531 0 0.342041
vn 0.6103516 -0.7602539 0.222168
vn 0.6103516 -0.7602539 0.222168
vn -0.3703613 0.06130981 0.9267578
vn -0.4638672 0.5166016 0.7197266
vn -0.1071777 0.5166016 0.8496094
vn -0.4277344 0.8383789 0.3383789
vn 0.1102905 0.8383789 0.5341797
vn 0.5571289 0.3891602 0.7338867
vn -2.980232E-07 1 0
vn -3.576279E-07 1 1.192093E-07
vn -0.8984375 0.3891602 0.2041016
vn -0.6103516 0.7602539 -0.222168
vn -0.6103516 0.7602539 -0.222168
vn -0.9975586 1.192093E-07 0.07092285
vn -0.9394531 0 -0.342041
vn -0.9394531 0 -0.342041
vn 0.6103516 0.7602539 0.222168
vn 0.6103516 0.7602539 0.222168
vn 0.9394531 0 0.342041
vn 0.9394531 0 0.342041
vn 0.71875 0 0.6953125
vn -0.1392822 -0.9130859 0.3825684
vn -0.1392822 -0.9130859 0.3825684
vn -1.788139E-07 -1 4.768372E-07
vn 0 -1 -2.384186E-07
vn 0.6103516 0.7602539 0.222168
vn 0.6103516 0.7602539 0.222168
vn 0.6103516 0.7602539 0.222168
vn 0.6103516 0.7602539 0.222168
vn 0.9394531 0 0.342041
vn 0.9394531 0 0.342041
vn 0.9394531 0 0.342041
vn 0.9394531 0 0.342041
vn -4.768372E-07 -1 1.013279E-06
vn 0 -1 0
vn 0 -1 0
vn -4.768372E-07 -1 1.072884E-06
vn -0.9394531 0 -0.342041
vn -0.9394531 -1.192093E-07 -0.342041
vn -0.9394531 -1.192093E-07 -0.342041
vn -0.9394531 0 -0.342041
vn -0.6103516 0.7602539 -0.222168
vn -0.6103516 0.7602539 -0.222168
vn -0.6103516 0.7602539 -0.222168
vn -0.6103516 0.7602539 -0.222168
vn 5.364418E-07 1 -2.145767E-06
vn 4.172325E-07 1 -1.251698E-06
vn 4.172325E-07 1 -1.072884E-06
vn 5.960464E-07 1 -2.264977E-06
vn -0.342041 4.172325E-07 0.9394531
vn -0.342041 4.768372E-07 0.9394531
vn -0.342041 2.384186E-07 0.9394531
vn -0.342041 4.768372E-07 0.9394531
vn -0.342041 3.576279E-07 0.9394531
vn -0.342041 3.576279E-07 0.9394531
vn 0.342041 -4.768372E-07 -0.9394531
vn 0.342041 -5.364418E-07 -0.9394531
vn 0.342041 -5.364418E-07 -0.9394531
vn 0.342041 -4.768372E-07 -0.9394531
vn 0.342041 -7.748604E-07 -0.9394531
vn 0.342041 -7.748604E-07 -0.9394531
vn 0 -1 0
vn 0 -1 0
vn 0 -1 0
vn 0 -1 0
vn 0 -1 0
vn 0 -1 0
vn 0 -1 0
vn 0 -1 0
vn 0 -1 0
vn 0 -1 0
vn 0 -1 0
vn 0 -1 0
vn 0 -1 0
vn 0 -1 0
vn 0 -1 0
vn 0 -1 0
vn 0 -1 0
vn 0 -1 0
vn -0.4226074 0 0.90625
vn -0.0871582 0 0.9960938
vn -0.0871582 0 0.9960938
vn -0.4226074 0 0.90625
vn -0.7070313 0 0.7070313
vn -0.7070313 0 0.7070313
vn -0.90625 0 0.4226074
vn -0.90625 0 0.4226074
vn -0.9960938 0 0.0871582
vn -0.9960938 0 0.0871582
vn -0.9658203 0 -0.2587891
vn -0.9658203 0 -0.2587891
vn -0.8193359 0 -0.5737305
vn -0.8193359 0 -0.5737305
vn -0.5737305 0 -0.8193359
vn -0.5737305 0 -0.8193359
vn -0.2587891 0 -0.9658203
vn -0.2587891 0 -0.9658203
vn 0.0871582 0 -0.9960938
vn 0.0871582 0 -0.9960938
vn 0.4226074 0 -0.90625
vn 0.4226074 0 -0.90625
vn 0.7070313 0 -0.7070313
vn 0.7070313 0 -0.7070313
vn 0.90625 0 -0.4226074
vn 0.90625 0 -0.4226074
vn 0.9960938 0 -0.0871582
vn 0.9960938 0 -0.0871582
vn 0.9658203 0 0.2587891
vn 0.9658203 0 0.2587891
vn 0.8193359 0 0.5737305
vn 0.8193359 0 0.5737305
vn 0.5737305 0 0.8193359
vn 0.5737305 0 0.8193359
vn 0.2587891 0 0.9658203
vn 0.2587891 0 0.9658203
vn -0.0871582 0 0.9960938
vn -0.0871582 0 0.9960938
vn 0 1 0
vn 0 1 0
vn 0 1 0
vn 0 1 0
vn 0 1 0
vn 0 1 0
vn 0 1 0
vn 0 1 0
vn 0 1 0
vn 0 1 0
vn 0 1 0
vn 0 1 0
vn 0 1 0
vn 0 1 0
vn 0 1 0
vn 0 1 0
vn 0 1 0
vn 0 1 0
vn 0 -1 0
vn 0 -1 0
vn 0 -1 0
vn 0 -1 0
vn 0 -1 0
vn 0 -1 0
vn 0 -1 0
vn 0 -1 0
vn 0 -1 0
vn 0 -1 0
vn 0 -1 0
vn 0 -1 0
vn 0 -1 0
vn 0 -1 0
vn 0 -1 0
vn 0 -1 0
vn 0 -1 0
vn 0 -1 0
vn -0.2016602 0.8789063 0.432373
vn -0.04159546 0.8789063 0.4753418
vn -0.04159546 0.8789063 0.4753418
vn -0.2016602 0.8789063 0.432373
vn -0.3374023 0.8789063 0.3374023
vn -0.3374023 0.8789063 0.3374023
vn -0.432373 0.8789063 0.2016602
vn -0.432373 0.8789063 0.2016602
vn -0.4753418 0.8789063 0.04159546
vn -0.4753418 0.8789063 0.04159546
vn -0.4609375 0.8789063 -0.1234741
vn -0.4609375 0.8789063 -0.1234741
vn -0.3908691 0.8789063 -0.2736816
vn -0.3908691 0.8789063 -0.2736816
vn -0.2736816 0.8789063 -0.3908691
vn -0.2736816 0.8789063 -0.3908691
vn -0.1234741 0.8789063 -0.4609375
vn -0.1234741 0.8789063 -0.4609375
vn 0.04159546 0.8789063 -0.4753418
vn 0.04159546 0.8789063 -0.4753418
vn 0.2016602 0.8789063 -0.432373
vn 0.2016602 0.8789063 -0.432373
vn 0.3374023 0.8789063 -0.3374023
vn 0.3374023 0.8789063 -0.3374023
vn 0.432373 0.8789063 -0.2016602
vn 0.432373 0.8789063 -0.2016602
vn 0.4753418 0.8789063 -0.04159546
vn 0.4753418 0.8789063 -0.04159546
vn 0.4609375 0.8789063 0.1234741
vn 0.4609375 0.8789063 0.1234741
vn 0.3908691 0.8789063 0.2736816
vn 0.3908691 0.8789063 0.2736816
vn 0.2736816 0.8789063 0.3908691
vn 0.2736816 0.8789063 0.3908691
vn 0.1234741 0.8789063 0.4609375
vn 0.1234741 0.8789063 0.4609375
vn -0.04159546 0.8789063 0.4753418
vn -0.04159546 0.8789063 0.4753418
vn 0 1 0
vn 0 1 0
vn 0 1 0
vn 0 1 0
vn 0 1 0
vn 0 1 0
vn 0 1 0
vn 0 1 0
vn 0 1 0
vn 0 1 0
vn 0 1 0
vn 0 1 0
vn 0 1 0
vn 0 1 0
vn 0 1 0
vn 0 1 0
vn 0 1 0
vn 0 1 0
vn -0.342041 8.34465E-07 0.9394531
vn -0.342041 7.748604E-07 0.9394531
vn -0.342041 8.34465E-07 0.9394531
vn -0.342041 7.748604E-07 0.9394531
vn -0.342041 7.748604E-07 0.9394531
vn -0.342041 1.311302E-06 0.9394531
vn -0.342041 7.748604E-07 0.9394531
vn -0.342041 7.748604E-07 0.9394531
vn -0.342041 8.34465E-07 0.9394531
vn -0.7539063 0.597168 -0.2744141
vn -0.2248535 0.9711914 -0.08184814
vn -0.2248535 0.9711914 -0.08184814
vn -0.7539063 0.597168 -0.2744141
vn -0.9355469 -0.09185791 -0.3405762
vn -0.9355469 -0.09185791 -0.3405762
vn -0.6420898 -0.7299805 -0.2337646
vn -0.6420898 -0.7299805 -0.2337646
vn -0.07513428 -0.996582 -0.02734375
vn -0.07513428 -0.996582 -0.02734375
vn 0.5126953 -0.8378906 0.1866455
vn 0.5126953 -0.8378906 0.1866455
vn 0.9042969 -0.2722168 0.3291016
vn 0.9042969 -0.2722168 0.3291016
vn 0.8427734 0.442627 0.3066406
vn 0.8427734 0.442627 0.3066406
vn 0.3720703 0.918457 0.135376
vn 0.3720703 0.918457 0.135376
vn -0.2248535 0.9711914 -0.08184814
vn -0.2248535 0.9711914 -0.08184814
vn 0.342041 -7.152557E-07 -0.9394531
vn 0.342041 -7.748604E-07 -0.9394531
vn 0.342041 -6.556511E-07 -0.9394531
vn 0.342041 -9.536743E-07 -0.9394531
vn 0.342041 -4.768372E-07 -0.9394531
vn 0.342041 -4.768372E-07 -0.9394531
vn 0.342041 -1.013279E-06 -0.9394531
vn 0.342041 -4.768372E-07 -0.9394531
vn 0.342041 -1.907349E-06 -0.9394531
g Moulin_Rouge_Windmill_0
f 3/3/3 2/2/2 1/1/1
f 2/2/2 4/4/4 1/1/1
f 1/1/1 4/4/4 5/5/5
f 6/6/6 4/4/4 2/2/2
f 7/7/7 4/4/4 6/6/6
f 8/8/8 6/6/6 2/2/2
f 9/9/9 8/8/8 2/2/2
f 10/10/10 9/9/9 2/2/2
f 11/11/11 8/8/8 9/9/9
f 12/12/12 6/6/6 8/8/8
f 13/13/13 12/12/12 8/8/8
f 14/14/14 13/13/13 8/8/8
f 15/15/15 12/12/12 13/13/13
f 16/16/16 6/6/6 12/12/12
f 17/17/17 16/16/16 12/12/12
f 18/18/18 6/6/6 16/16/16
f 21/21/21 20/20/20 19/19/19
f 22/22/22 19/19/19 20/20/20
f 20/20/20 23/23/23 22/22/22
f 19/19/19 22/22/22 24/24/24
f 25/25/25 22/22/22 23/23/23
f 23/23/23 26/26/26 25/25/25
f 27/27/27 24/24/24 22/22/22
f 22/22/22 25/25/25 27/27/27
f 24/24/24 27/27/27 28/28/28
f 29/29/29 25/25/25 26/26/26
f 26/26/26 30/30/30 29/29/29
f 31/31/31 28/28/28 27/27/27
f 28/28/28 31/31/31 32/32/32
f 33/33/33 27/27/27 25/25/25
f 25/25/25 29/29/29 33/33/33
f 27/27/27 33/33/33 31/31/31
f 34/34/34 29/29/29 30/30/30
f 30/30/30 35/35/35 34/34/34
f 36/36/36 34/34/34 35/35/35
f 37/37/37 32/32/32 31/31/31
f 32/32/32 37/37/37 38/38/38
f 39/39/39 31/31/31 33/33/33
f 31/31/31 39/39/39 37/37/37
f 40/40/40 33/33/33 29/29/29
f 29/29/29 34/34/34 40/40/40
f 33/33/33 40/40/40 39/39/39
f 34/34/34 36/36/36 41/41/41
f 41/41/41 40/40/40 34/34/34
f 42/42/42 41/41/41 36/36/36
f 43/43/43 38/38/38 37/37/37
f 38/38/38 43/43/43 44/44/44
f 45/45/45 37/37/37 39/39/39
f 37/37/37 45/45/45 43/43/43
f 46/46/46 39/39/39 40/40/40
f 40/40/40 41/41/41 46/46/46
f 39/39/39 46/46/46 45/45/45
f 41/41/41 42/42/42 47/47/47
f 47/47/47 46/46/46 41/41/41
f 48/48/48 47/47/47 42/42/42
f 49/49/49 44/44/44 43/43/43
f 44/44/44 49/49/49 50/50/50
f 51/51/51 43/43/43 45/45/45
f 43/43/43 51/51/51 49/49/49
f 52/52/52 45/45/45 46/46/46
f 46/46/46 47/47/47 52/52/52
f 45/45/45 52/52/52 51/51/51
f 47/47/47 48/48/48 53/53/53
f 53/53/53 52/52/52 47/47/47
f 54/54/54 53/53/53 48/48/48
f 55/55/55 50/50/50 49/49/49
f 50/50/50 55/55/55 56/56/56
f 57/57/57 49/49/49 51/51/51
f 49/49/49 57/57/57 55/55/55
f 58/58/58 51/51/51 52/52/52
f 52/52/52 53/53/53 58/58/58
f 51/51/51 58/58/58 57/57/57
f 53/53/53 54/54/54 59/59/59
f 59/59/59 58/58/58 53/53/53
f 60/60/60 59/59/59 54/54/54
f 61/61/61 56/56/56 55/55/55
f 56/56/56 61/61/61 62/62/62
f 63/63/63 55/55/55 57/57/57
f 55/55/55 63/63/63 61/61/61
f 64/64/64 57/57/57 58/58/58
f 58/58/58 59/59/59 64/64/64
f 57/57/57 64/64/64 63/63/63
f 59/59/59 60/60/60 65/65/65
f 65/65/65 64/64/64 59/59/59
f 66/66/66 65/65/65 60/60/60
f 67/67/67 62/62/62 61/61/61
f 62/62/62 67/67/67 68/68/68
f 69/69/69 61/61/61 63/63/63
f 61/61/61 69/69/69 67/67/67
f 70/70/70 63/63/63 64/64/64
f 64/64/64 65/65/65 70/70/70
f 63/63/63 70/70/70 69/69/69
f 65/65/65 66/66/66 71/71/71
f 71/71/71 70/70/70 65/65/65
f 72/72/72 71/71/71 66/66/66
f 73/73/73 68/68/68 67/67/67
f 68/68/68 73/73/73 74/74/74
f 75/75/75 67/67/67 69/69/69
f 67/67/67 75/75/75 73/73/73
f 76/76/76 69/69/69 70/70/70
f 70/70/70 71/71/71 76/76/76
f 69/69/69 76/76/76 75/75/75
f 71/71/71 72/72/72 77/77/77
f 77/77/77 76/76/76 71/71/71
f 78/78/78 77/77/77 72/72/72
f 79/79/79 74/74/74 73/73/73
f 74/74/74 79/79/79 80/80/80
f 81/81/81 73/73/73 75/75/75
f 73/73/73 81/81/81 79/79/79
f 82/82/82 75/75/75 76/76/76
f 76/76/76 77/77/77 82/82/82
f 75/75/75 82/82/82 81/81/81
f 77/77/77 78/78/78 83/83/83
f 83/83/83 82/82/82 77/77/77
f 84/84/84 83/83/83 78/78/78
f 85/85/85 80/80/80 79/79/79
f 80/80/80 85/85/85 86/86/86
f 87/87/87 79/79/79 81/81/81
f 79/79/79 87/87/87 85/85/85
f 88/88/88 81/81/81 82/82/82
f 82/82/82 83/83/83 88/88/88
f 81/81/81 88/88/88 87/87/87
f 83/83/83 84/84/84 89/89/89
f 89/89/89 88/88/88 83/83/83
f 90/90/90 89/89/89 84/84/84
f 91/91/91 86/86/86 85/85/85
f 86/86/86 91/91/91 92/92/92
f 93/93/93 85/85/85 87/87/87
f 85/85/85 93/93/93 91/91/91
f 94/94/94 87/87/87 88/88/88
f 88/88/88 89/89/89 94/94/94
f 87/87/87 94/94/94 93/93/93
f 89/89/89 90/90/90 95/95/95
f 95/95/95 94/94/94 89/89/89
f 96/96/96 95/95/95 90/90/90
f 97/97/97 92/92/92 91/91/91
f 92/92/92 97/97/97 98/98/98
f 99/99/99 91/91/91 93/93/93
f 91/91/91 99/99/99 97/97/97
f 100/100/100 93/93/93 94/94/94
f 94/94/94 95/95/95 100/100/100
f 93/93/93 100/100/100 99/99/99
f 95/95/95 96/96/96 101/101/101
f 101/101/101 100/100/100 95/95/95
f 102/102/102 101/101/101 96/96/96
f 103/103/103 98/98/98 97/97/97
f 98/98/98 103/103/103 104/104/104
f 105/105/105 97/97/97 99/99/99
f 97/97/97 105/105/105 103/103/103
f 106/106/106 99/99/99 100/100/100
f 100/100/100 101/101/101 106/106/106
f 99/99/99 106/106/106 105/105/105
f 101/101/101 102/102/102 107/107/107
f 107/107/107 106/106/106 101/101/101
f 108/108/108 107/107/107 102/102/102
f 109/109/109 104/104/104 103/103/103
f 104/104/104 109/109/109 110/110/110
f 111/111/111 103/103/103 105/105/105
f 103/103/103 111/111/111 109/109/109
f 112/112/112 105/105/105 106/106/106
f 106/106/106 107/107/107 112/112/112
f 105/105/105 112/112/112 111/111/111
f 107/107/107 108/108/108 113/113/113
f 113/113/113 112/112/112 107/107/107
f 114/114/114 113/113/113 108/108/108
f 115/115/115 110/110/110 109/109/109
f 110/110/110 115/115/115 116/116/116
f 117/117/117 116/116/116 115/115/115
f 118/118/118 109/109/109 111/111/111
f 109/109/109 118/118/118 115/115/115
f 119/119/119 111/111/111 112/112/112
f 112/112/112 113/113/113 119/119/119
f 111/111/111 119/119/119 118/118/118
f 113/113/113 114/114/114 120/120/120
f 120/120/120 119/119/119 113/113/113
f 121/121/121 120/120/120 114/114/114
f 115/115/115 122/122/122 117/117/117
f 122/122/122 115/115/115 118/118/118
f 123/123/123 117/117/117 122/122/122
f 124/124/124 118/118/118 119/119/119
f 119/119/119 120/120/120 124/124/124
f 118/118/118 124/124/124 122/122/122
f 120/120/120 121/121/121 125/125/125
f 125/125/125 124/124/124 120/120/120
f 126/126/126 125/125/125 121/121/121
f 122/122/122 127/127/127 123/123/123
f 127/127/127 122/122/122 124/124/124
f 124/124/124 125/125/125 127/127/127
f 128/128/128 123/123/123 127/127/127
f 125/125/125 126/126/126 129/129/129
f 129/129/129 127/127/127 125/125/125
f 127/127/127 129/129/129 128/128/128
f 130/130/130 129/129/129 126/126/126
f 131/131/131 128/128/128 129/129/129
f 129/129/129 130/130/130 131/131/131
f 132/132/132 131/131/131 130/130/130
f 135/135/135 134/134/134 133/133/133
f 134/134/134 136/136/136 133/133/133
f 133/133/133 136/136/136 137/137/137
f 138/138/138 136/136/136 134/134/134
f 139/139/139 136/136/136 138/138/138
f 140/140/140 138/138/138 134/134/134
f 141/141/141 140/140/140 134/134/134
f 142/142/142 141/141/141 134/134/134
f 143/143/143 140/140/140 141/141/141
f 144/144/144 138/138/138 140/140/140
f 145/145/145 144/144/144 140/140/140
f 146/146/146 145/145/145 140/140/140
f 147/147/147 144/144/144 145/145/145
f 148/148/148 138/138/138 144/144/144
f 149/149/149 148/148/148 144/144/144
f 150/150/150 138/138/138 148/148/148
f 153/153/153 152/152/152 151/151/151
f 154/154/154 151/151/151 152/152/152
f 152/152/152 155/155/155 154/154/154
f 155/155/155 152/152/152 156/156/156
f 157/157/157 156/156/156 152/152/152
f 152/152/152 158/158/158 157/157/157
f 159/159/159 157/157/157 158/158/158
f 160/160/160 154/154/154 155/155/155
f 156/156/156 161/161/161 155/155/155
f 155/155/155 162/162/162 160/160/160
f 162/162/162 155/155/155 161/161/161
f 154/154/154 160/160/160 163/163/163
f 163/163/163 164/164/164 154/154/154
f 165/165/165 154/154/154 164/164/164
f 161/161/161 156/156/156 166/166/166
f 167/167/167 166/166/166 156/156/156
f 156/156/156 168/168/168 167/167/167
f 169/169/169 167/167/167 168/168/168
f 168/168/168 170/170/170 169/169/169
f 171/171/171 169/169/169 170/170/170
f 167/167/167 169/169/169 172/172/172
f 166/166/166 167/167/167 173/173/173
f 172/172/172 173/173/173 167/167/167
f 174/174/174 172/172/172 169/169/169
f 169/169/169 175/175/175 174/174/174
f 176/176/176 174/174/174 175/175/175
f 166/166/166 177/177/177 161/161/161
f 173/173/173 178/178/178 166/166/166
f 177/177/177 166/166/166 178/178/178
f 179/179/179 161/161/161 177/177/177
f 161/161/161 179/179/179 162/162/162
f 172/172/172 174/174/174 180/180/180
f 173/173/173 172/172/172 181/181/181
f 180/180/180 181/181/181 172/172/172
f 178/178/178 173/173/173 182/182/182
f 181/181/181 182/182/182 173/173/173
f 163/163/163 180/180/180 174/174/174
f 174/174/174 183/183/183 163/163/163
f 184/184/184 163/163/163 183/183/183
f 180/180/180 163/163/163 160/160/160
f 160/160/160 185/185/185 180/180/180
f 185/185/185 160/160/160 162/162/162
f 181/181/181 180/180/180 185/185/185
f 162/162/162 186/186/186 185/185/185
f 186/186/186 162/162/162 179/179/179
f 185/185/185 187/187/187 181/181/181
f 182/182/182 181/181/181 187/187/187
f 187/187/187 185/185/185 186/186/186
f 179/179/179 188/188/188 186/186/186
f 189/189/189 186/186/186 188/188/188
f 186/186/186 189/189/189 187/187/187
f 188/188/188 190/190/190 189/189/189
f 191/191/191 189/189/189 190/190/190
f 192/192/192 187/187/187 189/189/189
f 187/187/187 192/192/192 182/182/182
f 189/189/189 193/193/193 192/192/192
f 194/194/194 192/192/192 193/193/193
f 195/195/195 182/182/182 192/192/192
f 192/192/192 196/196/196 195/195/195
f 197/197/197 195/195/195 196/196/196
f 182/182/182 195/195/195 178/178/178
f 198/198/198 178/178/178 195/195/195
f 195/195/195 199/199/199 198/198/198
f 200/200/200 198/198/198 199/199/199
f 178/178/178 198/198/198 177/177/177
f 201/201/201 177/177/177 198/198/198
f 198/198/198 202/202/202 201/201/201
f 203/203/203 201/201/201 202/202/202
f 177/177/177 201/201/201 179/179/179
f 204/204/204 179/179/179 201/201/201
f 201/201/201 205/205/205 204/204/204
f 206/206/206 204/204/204 205/205/205
f 209/209/209 208/208/208 207/207/207
f 210/210/210 207/207/207 208/208/208
f 208/208/208 211/211/211 210/210/210
f 211/211/211 208/208/208 212/212/212
f 213/213/213 212/212/212 208/208/208
f 208/208/208 214/214/214 213/213/213
f 215/215/215 213/213/213 214/214/214
f 216/216/216 210/210/210 211/211/211
f 212/212/212 217/217/217 211/211/211
f 211/211/211 218/218/218 216/216/216
f 218/218/218 211/211/211 217/217/217
f 210/210/210 216/216/216 219/219/219
f 219/219/219 220/220/220 210/210/210
f 221/221/221 210/210/210 220/220/220
f 217/217/217 212/212/212 222/222/222
f 223/223/223 222/222/222 212/212/212
f 212/212/212 224/224/224 223/223/223
f 225/225/225 223/223/223 224/224/224
f 224/224/224 226/226/226 225/225/225
f 227/227/227 225/225/225 226/226/226
f 228/228/228 216/216/216 218/218/218
f 229/229/229 219/219/219 216/216/216
f 216/216/216 228/228/228 229/229/229
f 217/217/217 230/230/230 218/218/218
f 222/222/222 231/231/231 217/217/217
f 230/230/230 217/217/217 231/231/231
f 218/218/218 232/232/232 228/228/228
f 232/232/232 218/218/218 230/230/230
f 222/222/222 223/223/223 233/233/233
f 231/231/231 222/222/222 234/234/234
f 233/233/233 234/234/234 222/222/222
f 235/235/235 233/233/233 223/223/223
f 223/223/223 236/236/236 235/235/235
f 237/237/237 235/235/235 236/236/236
f 219/219/219 229/229/229 237/237/237
f 235/235/235 237/237/237 229/229/229
f 236/236/236 238/238/238 237/237/237
f 239/239/239 237/237/237 238/238/238
f 237/237/237 240/240/240 219/219/219
f 241/241/241 219/219/219 240/240/240
f 229/229/229 242/242/242 235/235/235
f 233/233/233 235/235/235 242/242/242
f 242/242/242 229/229/229 228/228/228
f 242/242/242 243/243/243 233/233/233
f 234/234/234 233/233/233 243/243/243
f 228/228/228 244/244/244 242/242/242
f 243/243/243 242/242/242 244/244/244
f 244/244/244 228/228/228 232/232/232
f 243/243/243 245/245/245 234/234/234
f 244/244/244 246/246/246 243/243/243
f 245/245/245 243/243/243 246/246/246
f 232/232/232 247/247/247 244/244/244
f 246/246/246 244/244/244 247/247/247
f 246/246/246 248/248/248 245/245/245
f 249/249/249 245/245/245 248/248/248
f 250/250/250 234/234/234 245/245/245
f 245/245/245 251/251/251 250/250/250
f 252/252/252 250/250/250 251/251/251
f 234/234/234 250/250/250 231/231/231
f 253/253/253 231/231/231 250/250/250
f 250/250/250 254/254/254 253/253/253
f 255/255/255 253/253/253 254/254/254
f 247/247/247 256/256/256 246/246/246
f 257/257/257 246/246/246 256/256/256
f 259/259/259 247/247/247 258/258/258
f 260/260/260 258/258/258 247/247/247
f 247/247/247 232/232/232 260/260/260
f 230/230/230 260/260/260 232/232/232
f 231/231/231 261/261/261 230/230/230
f 262/262/262 230/230/230 261/261/261
f 261/261/261 263/263/263 262/262/262
f 264/264/264 262/262/262 263/263/263
f 267/267/267 266/266/266 265/265/265
f 268/268/268 265/265/265 266/266/266
f 271/271/271 270/270/270 269/269/269
f 272/272/272 269/269/269 270/270/270
f 275/275/275 274/274/274 273/273/273
f 276/276/276 273/273/273 274/274/274
f 279/279/279 278/278/278 277/277/277
f 280/280/280 277/277/277 278/278/278
f 283/283/283 282/282/282 281/281/281
f 284/284/284 281/281/281 282/282/282
f 287/287/287 286/286/286 285/285/285
f 288/288/288 285/285/285 286/286/286
f 291/291/291 290/290/290 289/289/289
f 290/290/290 292/292/292 289/289/289
f 289/289/289 292/292/292 293/293/293
f 292/292/292 294/294/294 293/293/293
f 297/297/297 296/296/296 295/295/295
f 296/296/296 298/298/298 295/295/295
f 299/299/299 298/298/298 296/296/296
f 300/300/300 298/298/298 299/299/299
f 303/303/303 302/302/302 301/301/301
f 302/302/302 304/304/304 301/301/301
f 301/301/301 304/304/304 305/305/305
f 306/306/306 304/304/304 302/302/302
f 307/307/307 304/304/304 306/306/306
f 308/308/308 306/306/306 302/302/302
f 309/309/309 308/308/308 302/302/302
f 310/310/310 309/309/309 302/302/302
f 311/311/311 308/308/308 309/309/309
f 312/312/312 306/306/306 308/308/308
f 313/313/313 312/312/312 308/308/308
f 314/314/314 313/313/313 308/308/308
f 315/315/315 312/312/312 313/313/313
f 316/316/316 306/306/306 312/312/312
f 317/317/317 316/316/316 312/312/312
f 318/318/318 306/306/306 316/316/316
f 321/321/321 320/320/320 319/319/319
f 322/322/322 319/319/319 320/320/320
f 319/319/319 322/322/322 323/323/323
f 324/324/324 323/323/323 322/322/322
f 323/323/323 324/324/324 325/325/325
f 326/326/326 325/325/325 324/324/324
f 325/325/325 326/326/326 327/327/327
f 328/328/328 327/327/327 326/326/326
f 327/327/327 328/328/328 329/329/329
f 330/330/330 329/329/329 328/328/328
f 329/329/329 330/330/330 331/331/331
f 332/332/332 331/331/331 330/330/330
f 331/331/331 332/332/332 333/333/333
f 334/334/334 333/333/333 332/332/332
f 333/333/333 334/334/334 335/335/335
f 336/336/336 335/335/335 334/334/334
f 335/335/335 336/336/336 337/337/337
f 338/338/338 337/337/337 336/336/336
f 337/337/337 338/338/338 339/339/339
f 340/340/340 339/339/339 338/338/338
f 339/339/339 340/340/340 341/341/341
f 342/342/342 341/341/341 340/340/340
f 341/341/341 342/342/342 343/343/343
f 344/344/344 343/343/343 342/342/342
f 343/343/343 344/344/344 345/345/345
f 346/346/346 345/345/345 344/344/344
f 345/345/345 346/346/346 347/347/347
f 348/348/348 347/347/347 346/346/346
f 347/347/347 348/348/348 349/349/349
f 350/350/350 349/349/349 348/348/348
f 349/349/349 350/350/350 351/351/351
f 352/352/352 351/351/351 350/350/350
f 351/351/351 352/352/352 353/353/353
f 354/354/354 353/353/353 352/352/352
f 353/353/353 354/354/354 355/355/355
f 356/356/356 355/355/355 354/354/354
f 359/359/359 358/358/358 357/357/357
f 358/358/358 360/360/360 357/357/357
f 357/357/357 360/360/360 361/361/361
f 362/362/362 360/360/360 358/358/358
f 363/363/363 360/360/360 362/362/362
f 364/364/364 362/362/362 358/358/358
f 365/365/365 364/364/364 358/358/358
f 366/366/366 365/365/365 358/358/358
f 367/367/367 364/364/364 365/365/365
f 368/368/368 362/362/362 364/364/364
f 369/369/369 368/368/368 364/364/364
f 370/370/370 369/369/369 364/364/364
f 371/371/371 368/368/368 369/369/369
f 372/372/372 362/362/362 368/368/368
f 373/373/373 372/372/372 368/368/368
f 374/374/374 362/362/362 372/372/372
f 377/377/377 376/376/376 375/375/375
f 376/376/376 378/378/378 375/375/375
f 375/375/375 378/378/378 379/379/379
f 380/380/380 378/378/378 376/376/376
f 381/381/381 378/378/378 380/380/380
f 382/382/382 380/380/380 376/376/376
f 383/383/383 382/382/382 376/376/376
f 384/384/384 383/383/383 376/376/376
f 385/385/385 382/382/382 383/383/383
f 386/386/386 380/380/380 382/382/382
f 387/387/387 386/386/386 382/382/382
f 388/388/388 387/387/387 382/382/382
f 389/389/389 386/386/386 387/387/387
f 390/390/390 380/380/380 386/386/386
f 391/391/391 390/390/390 386/386/386
f 392/392/392 380/380/380 390/390/390
f 395/395/395 394/394/394 393/393/393
f 396/396/396 393/393/393 394/394/394
f 393/393/393 396/396/396 397/397/397
f 398/398/398 397/397/397 396/396/396
f 397/397/397 398/398/398 399/399/399
f 400/400/400 399/399/399 398/398/398
f 399/399/399 400/400/400 401/401/401
f 402/402/402 401/401/401 400/400/400
f 401/401/401 402/402/402 403/403/403
f 404/404/404 403/403/403 402/402/402
f 403/403/403 404/404/404 405/405/405
f 406/406/406 405/405/405 404/404/404
f 405/405/405 406/406/406 407/407/407
f 408/408/408 407/407/407 406/406/406
f 407/407/407 408/408/408 409/409/409
f 410/410/410 409/409/409 408/408/408
f 409/409/409 410/410/410 411/411/411
f 412/412/412 411/411/411 410/410/410
f 411/411/411 412/412/412 413/413/413
f 414/414/414 413/413/413 412/412/412
f 413/413/413 414/414/414 415/415/415
f 416/416/416 415/415/415 414/414/414
f 415/415/415 416/416/416 417/417/417
f 418/418/418 417/417/417 416/416/416
f 417/417/417 418/418/418 419/419/419
f 420/420/420 419/419/419 418/418/418
f 419/419/419 420/420/420 421/421/421
f 422/422/422 421/421/421 420/420/420
f 421/421/421 422/422/422 423/423/423
f 424/424/424 423/423/423 422/422/422
f 423/423/423 424/424/424 425/425/425
f 426/426/426 425/425/425 424/424/424
f 425/425/425 426/426/426 427/427/427
f 428/428/428 427/427/427 426/426/426
f 427/427/427 428/428/428 429/429/429
f 430/430/430 429/429/429 428/428/428
f 433/433/433 432/432/432 431/431/431
f 432/432/432 434/434/434 431/431/431
f 431/431/431 434/434/434 435/435/435
f 436/436/436 434/434/434 432/432/432
f 437/437/437 434/434/434 436/436/436
f 438/438/438 436/436/436 432/432/432
f 439/439/439 438/438/438 432/432/432
f 440/440/440 439/439/439 432/432/432
f 441/441/441 438/438/438 439/439/439
f 442/442/442 436/436/436 438/438/438
f 443/443/443 442/442/442 438/438/438
f 444/444/444 443/443/443 438/438/438
f 445/445/445 442/442/442 443/443/443
f 446/446/446 436/436/436 442/442/442
f 447/447/447 446/446/446 442/442/442
f 448/448/448 436/436/436 446/446/446
f 451/451/451 450/450/450 449/449/449
f 450/450/450 452/452/452 449/449/449
f 452/452/452 453/453/453 449/449/449
f 449/449/449 453/453/453 454/454/454
f 455/455/455 452/452/452 450/450/450
f 456/456/456 455/455/455 450/450/450
f 457/457/457 452/452/452 455/455/455
f 460/460/460 459/459/459 458/458/458
f 461/461/461 458/458/458 459/459/459
f 458/458/458 461/461/461 462/462/462
f 463/463/463 462/462/462 461/461/461
f 462/462/462 463/463/463 464/464/464
f 465/465/465 464/464/464 463/463/463
f 464/464/464 465/465/465 466/466/466
f 467/467/467 466/466/466 465/465/465
f 466/466/466 467/467/467 468/468/468
f 469/469/469 468/468/468 467/467/467
f 468/468/468 469/469/469 470/470/470
f 471/471/471 470/470/470 469/469/469
f 470/470/470 471/471/471 472/472/472
f 473/473/473 472/472/472 471/471/471
f 472/472/472 473/473/473 474/474/474
f 475/475/475 474/474/474 473/473/473
f 474/474/474 475/475/475 476/476/476
f 477/477/477 476/476/476 475/475/475
f 480/480/480 479/479/479 478/478/478
f 479/479/479 481/481/481 478/478/478
f 481/481/481 482/482/482 478/478/478
f 478/478/478 482/482/482 483/483/483
f 484/484/484 481/481/481 479/479/479
f 485/485/485 484/484/484 479/479/479
f 486/486/486 481/481/481 484/484/484
