g Nut
v 9.00787E-09 -0.3452122 -0.3538246
v -0.09268048 0.2553033 -0.3417684
v 9.007881E-09 0.2553033 -0.3538246
v -0.09268048 -0.3452122 -0.3417684
v -0.1790449 0.2553033 -0.3064211
v -0.1790449 -0.3452122 -0.3064211
v -0.2532077 -0.3452122 -0.2501918
v -0.2532077 0.2553033 -0.2501919
v -0.3101149 -0.3452122 -0.1769124
v -0.3101149 0.2553033 -0.1769124
v -0.3458883 0.2553033 -0.0915767
v -0.3458883 -0.3452122 -0.09157666
v -0.3580899 0.2553033 -1.591779E-07
v -0.35809 -0.3452122 -1.368189E-07
v -0.3458884 -0.3452122 0.09157642
v -0.3458884 0.2553033 0.09157639
v -0.3101151 -0.3452122 0.1769122
v -0.3101151 0.2553033 0.1769121
v -0.253208 0.2553033 0.2501917
v -0.253208 -0.3452122 0.2501917
v -0.1790451 0.2553033 0.306421
v -0.1790451 -0.3452122 0.306421
v -0.09268066 -0.3452122 0.3417683
v -0.09268066 0.2553033 0.3417683
v -1.845076E-07 -0.3452122 0.3538246
v -1.845076E-07 0.2553033 0.3538246
v 0.0926803 0.2553033 0.3417684
v 0.0926803 -0.3452122 0.3417684
v 0.1790448 0.2553033 0.3064213
v 0.1790448 -0.3452122 0.3064213
v 0.2532077 -0.3452122 0.250192
v 0.2532077 0.2553033 0.2501919
v 0.3101148 -0.3452122 0.1769125
v 0.3101149 0.2553033 0.1769125
v 0.3458883 0.2553033 0.09157678
v 0.3458883 -0.3452122 0.09157681
v 0.35809 0.2553033 -2.139346E-08
v 0.35809 -0.3452122 9.654713E-10
v 0.3458883 -0.3452122 -0.09157653
v 0.3458884 0.2553033 -0.09157656
v 0.3101149 -0.3452122 -0.1769123
v 0.310115 0.2553033 -0.1769123
v 0.2532079 0.2553033 -0.2501918
v 0.2532078 -0.3452122 -0.2501918
v 0.1790449 0.2553033 -0.3064211
v 0.1790449 -0.3452122 -0.3064211
v 0.09268048 -0.3452122 -0.3417683
v 0.09268048 0.2553033 -0.3417684
v 9.00787E-09 -0.3452122 -0.3538246
v 9.007881E-09 0.2553033 -0.3538246
v 0.3810773 0.3030208 0.09689596
v 0.6737219 0.3030192 0.06263387
v 0.4019518 0.3030192 0.5595919
v 0.3341653 0.3030208 0.2001723
v -0.2826184 0.3030192 -0.6147772
v -0.105567 0.3030209 -0.3746811
v -0.1965233 0.3030209 -0.3377104
v -0.3309374 0.3030192 -0.607169
v -0.285762 0.2965382 -0.6549519
v -0.3445599 0.2965382 -0.6456935
v -0.3603551 0.3030192 -0.5901847
v -0.1965233 0.3030209 -0.3377104
v -0.2740956 0.3030209 -0.2782963
v -0.2886013 0.2706191 -0.6912385
v -0.3568644 0.2706192 -0.68049
v 0.2887866 0.2706191 -0.6936073
v -0.3869071 0.2965382 -0.6212445
v -0.4108894 0.2706192 -0.6492985
v 0.2863465 0.2965382 -0.6624226
v 0.3568642 0.2706192 -0.68049
v -0.4019518 0.3030192 -0.5595919
v -0.2740956 0.3030209 -0.2782963
v -0.3341654 0.3030209 -0.2001722
v -0.4305014 0.2965382 -0.5791947
v -0.4562882 0.2706192 -0.5969002
v 0.3445599 0.2965382 -0.6456936
v 0.4108894 0.2706192 -0.6492985
v 0.283645 0.3030192 -0.6278967
v 0.008174249 0.3030209 -0.386137
v -0.105567 0.3030209 -0.3746811
v -0.673722 0.3030192 -0.06263386
v -0.3341654 0.3030209 -0.2001722
v -0.3810773 0.3030209 -0.09689584
v -0.7100858 0.2965382 -0.07999872
v -0.7429307 0.2706192 -0.09568311
v 0.386907 0.2965382 -0.6212445
v 0.4543294 0.2706192 -0.5955554
v 0.3309372 0.3030192 -0.6071692
v 0.1066687 0.3030209 -0.3738087
v 0.008174249 0.3030209 -0.386137
v -0.7314669 0.2965382 -0.02444907
v -0.7677535 0.2706192 -0.03119134
v -0.6912924 0.3030192 -0.01698441
v -0.3941501 0.3030209 -0.0005788145
v -0.3810773 0.3030209 -0.09689584
v 0.4243239 0.2965382 -0.5749531
v 0.7450748 0.2706192 -0.09670704
v 0.3603551 0.3030192 -0.5901847
v 0.1975192 0.3030209 -0.3371427
v 0.1066687 0.3030209 -0.3738087
v -0.7314669 0.2965382 0.02444915
v -0.7677535 0.2706192 0.03119145
v -0.6912924 0.3030192 0.01698447
v -0.3941501 0.3030209 -0.0005788145
v -0.3808652 0.3030208 0.09549579
v 0.716848 0.2965382 -0.0832279
v 0.7677535 0.2706192 -0.03119142
v 0.7314669 0.2965382 -0.02444915
v 0.6855968 0.3030192 -0.06830454
v 0.6912923 0.3030192 -0.01698448
v -0.7168478 0.2965382 0.08322792
v -0.7450747 0.2706192 0.09670708
v -0.6855967 0.3030192 0.06830455
v -0.7168478 0.2965382 0.08322792
v -0.3808652 0.3030208 0.09549579
v -0.3424322 0.3030208 0.1859608
v -0.4243238 0.2965382 0.574953
v -0.4543294 0.2706192 0.5955552
v -0.3911034 0.3030192 0.5521433
v -0.6855967 0.3030192 0.06830455
v -0.360355 0.3030192 0.5901845
v -0.3869069 0.2965382 0.6212444
v -0.3309371 0.3030192 0.607169
v -0.4108893 0.2706192 0.6492984
v -0.3445598 0.2965382 0.6456935
v -0.3568642 0.2706192 0.6804898
v -0.3911034 0.3030192 0.5521433
v -0.6855967 0.3030192 0.06830455
v -0.3424322 0.3030208 0.1859608
v -0.2754012 0.3030208 0.2777943
v -0.3911034 0.3030192 0.5521433
v -0.2754012 0.3030208 0.2777943
v -0.1975193 0.3030208 0.3371425
v -0.360355 0.3030192 0.5901845
v -0.3309371 0.3030192 0.607169
v -0.360355 0.3030192 0.5901845
v -0.1975193 0.3030208 0.3371425
v -0.1066689 0.3030208 0.3738086
v -0.2836448 0.3030192 0.6278964
v -0.1066689 0.3030208 0.3738086
v -0.008174425 0.3030208 0.3861368
v -0.3309371 0.3030192 0.607169
v -0.3445598 0.2965382 0.6456935
v -0.2863464 0.2965382 0.6624224
v -0.3568642 0.2706192 0.6804898
v -0.2887866 0.2706193 0.6936072
v 0.2826184 0.3030192 0.6147771
v -0.008174425 0.3030208 0.3861368
v 0.1055668 0.3030208 0.374681
v 0.2857605 0.2965339 0.6549336
v 0.2886004 0.2706012 0.6912273
v 0.3445599 0.2965382 0.6456935
v 0.3568642 0.2706192 0.6804898
v 0.3309372 0.3030192 0.607169
v 0.1965232 0.3030208 0.3377104
v 0.1055668 0.3030208 0.374681
v 0.3869069 0.2965382 0.6212444
v 0.4108893 0.2706192 0.6492984
v 0.3603551 0.3030192 0.5901846
v 0.1965232 0.3030208 0.3377104
v 0.2740955 0.3030208 0.2782962
v 0.4305014 0.2965382 0.5791945
v 0.4562881 0.2706192 0.5969001
v 0.7100857 0.2965382 0.07999876
v 0.7429307 0.2706192 0.09568316
v 0.6737219 0.3030192 0.06263387
v 0.4019518 0.3030192 0.5595919
v 0.7314669 0.2965382 0.02444907
v 0.7677535 0.2706192 0.03119136
v 0.4019518 0.3030192 0.5595919
v 0.4305014 0.2965382 0.5791945
v 0.3603551 0.3030192 0.5901846
v 0.2740955 0.3030208 0.2782962
v 0.3341653 0.3030208 0.2001723
v 0.6737219 0.3030192 0.06263387
v 0.3810773 0.3030208 0.09689596
v 0.3941502 0.3030209 0.0005786213
v 0.6912923 0.3030192 0.01698438
v 0.7100857 0.2965382 0.07999876
v 0.7314669 0.2965382 0.02444907
v 0.6912923 0.3030192 -0.01698448
v 0.3941502 0.3030209 0.0005786213
v 0.3808652 0.3030209 -0.09549593
v 0.7314669 0.2965382 -0.02444915
v 0.7677535 0.2706192 0.03119136
v 0.7677535 0.2706192 -0.03119142
v 0.6855968 0.3030192 -0.06830454
v 0.6912923 0.3030192 -0.01698448
v 0.3808652 0.3030209 -0.09549593
v 0.3424321 0.3030209 -0.1859609
v 0.6855968 0.3030192 -0.06830454
v 0.3424321 0.3030209 -0.1859609
v 0.2754011 0.3030209 -0.2777947
v 0.3911035 0.3030192 -0.5521434
v 0.716848 0.2965382 -0.0832279
v 0.1975192 0.3030209 -0.3371427
v 0.2754011 0.3030209 -0.2777947
v 0.4629023 -0.3309093 -0.6014416
v 0.4414698 -0.367196 -0.5867257
v 0.7329775 -0.367196 -0.09093022
v 0.7531396 -0.3309093 -0.1005582
v 0.4682605 -0.2907348 -0.6051207
v 0.7581801 -0.2907348 -0.1029652
v 0.7581801 0.2097093 -0.1029652
v 0.4682605 0.2097093 -0.6051207
v 0.4661173 0.2382203 -0.6036491
v 0.7561638 0.2382203 -0.1020024
v 0.4543294 0.2706192 -0.5955554
v 0.7450748 0.2706192 -0.09670704
v 0.782009 0.2382203 -0.03384017
v 0.7450748 0.2706192 -0.09670704
v 0.7677535 0.2706192 -0.03119142
v 0.784601 0.2097093 -0.03432177
v 0.7581801 0.2097093 -0.1029652
v 0.784601 -0.2907347 -0.03432172
v 0.7581801 -0.2907348 -0.1029652
v 0.7781212 -0.3309093 -0.03311774
v 0.7531396 -0.3309093 -0.1005582
v 0.7522022 -0.367196 -0.02830184
v 0.7329775 -0.367196 -0.09093022
v 0.2897452 0.2382202 -0.7058585
v 0.2887866 0.2706191 -0.6936073
v -0.2886013 0.2706191 -0.6912385
v -0.2897168 0.2382202 -0.7054939
v -0.3568644 0.2706192 -0.68049
v 0.2899196 0.2097093 -0.7080858
v -0.3616982 0.2382202 -0.6941598
v -0.2899196 0.2097093 -0.7080858
v 0.2899195 -0.2907348 -0.7080858
v -0.362577 0.2097093 -0.6966452
v -0.2899196 -0.2907348 -0.7080858
v 0.2894838 -0.3309093 -0.7025172
v -0.2894126 -0.3309093 -0.701606
v 0.2877408 -0.367196 -0.6802424
v -0.2873845 -0.367196 -0.675687
v -0.3625771 -0.2907348 -0.6966452
v -0.3603799 -0.3309093 -0.6904316
v -0.3515911 -0.367196 -0.6655771
v -0.4177415 -0.3309093 -0.6573138
v -0.4006112 -0.367196 -0.6372752
v -0.422024 -0.2907348 -0.6623235
v -0.422024 0.2097094 -0.6623236
v -0.4636558 -0.3309093 -0.6019588
v -0.4452367 -0.367196 -0.589312
v -0.420311 0.2382203 -0.6603196
v -0.3616982 0.2382202 -0.6941598
v -0.4108894 0.2706192 -0.6492985
v -0.3568644 0.2706192 -0.68049
v -0.4682606 -0.2907348 -0.6051206
v -0.7523149 -0.3309093 -0.1001643
v -0.7288543 -0.367196 -0.08896121
v -0.4682606 0.2097093 -0.6051207
v -0.7581801 -0.2907348 -0.1029651
v -0.7781212 -0.3309093 -0.03311768
v -0.7522022 -0.367196 -0.02830177
v -0.4664186 0.2382203 -0.6038559
v -0.420311 0.2382203 -0.6603196
v -0.7581801 0.2097093 -0.1029652
v -0.784601 -0.2907347 -0.03432166
v -0.7781212 -0.3309093 0.03311783
v -0.7522022 -0.367196 0.02830191
v -0.4562882 0.2706192 -0.5969002
v -0.4108894 0.2706192 -0.6492985
v -0.7429307 0.2706192 -0.09568311
v -0.755834 0.2382203 -0.1018448
v -0.7677535 0.2706192 -0.03119134
v -0.7820091 0.2382203 -0.03384009
v -0.784601 0.2097093 -0.03432168
v -0.7531395 -0.3309093 0.1005583
v -0.7329775 -0.367196 0.09093032
v -0.4629023 -0.3309093 0.6014416
v -0.4414698 -0.367196 0.5867257
v -0.4177414 -0.3309093 0.6573139
v -0.4006111 -0.367196 0.6372753
v -0.3603797 -0.3309093 0.6904317
v -0.3515909 -0.3671959 0.6655772
v -0.2894837 -0.3309093 0.7025172
v -0.2877408 -0.367196 0.6802423
v 0.2894379 -0.3322731 0.7019308
v 0.2874911 -0.3680402 0.6770509
v 0.2899195 -0.2907347 0.7080858
v -0.2899195 -0.2907347 0.7080858
v -0.3625769 -0.2907347 0.6966453
v -0.2899195 0.2097094 0.7080858
v 0.2899195 0.2097094 0.7080858
v 0.2897165 0.2382049 0.7054921
v -0.4220239 -0.2907347 0.6623236
v -0.2897451 0.2382203 0.7058583
v 0.2886004 0.2706012 0.6912273
v -0.2887866 0.2706193 0.6936072
v -0.3625769 0.2097094 0.6966453
v -0.361698 0.2382203 0.6941597
v -0.3568642 0.2706192 0.6804898
v -0.4220239 0.2097093 0.6623236
v -0.4203109 0.2382202 0.6603196
v -0.4108893 0.2706192 0.6492984
v -0.4682605 -0.2907347 0.6051207
v -0.4682604 0.2097093 0.6051207
v -0.4661172 0.2382203 0.603649
v -0.4543294 0.2706192 0.5955552
v -0.75818 -0.2907347 0.1029653
v -0.75818 0.2097093 0.1029653
v -0.7561638 0.2382203 0.1020025
v -0.7450747 0.2706192 0.09670708
v -0.784601 -0.2907347 0.03432181
v -0.784601 0.2097093 0.03432179
v -0.7820091 0.2382203 0.0338402
v -0.7677535 0.2706192 0.03119145
v -0.7820091 0.2382203 -0.03384009
v -0.7677535 0.2706192 -0.03119134
v 0.7523149 -0.3309093 0.1001644
v 0.7288542 -0.367196 0.0889613
v 0.4452366 -0.3671959 0.5893121
v 0.4636557 -0.3309093 0.6019589
v 0.4006111 -0.3671959 0.6372753
v 0.75818 -0.2907347 0.1029652
v 0.4177414 -0.3309093 0.6573139
v 0.4682605 -0.2907347 0.6051207
v 0.4220239 -0.2907347 0.6623236
v 0.75818 0.2097093 0.1029652
v 0.422024 0.2097093 0.6623236
v 0.4682605 0.2097093 0.6051207
v 0.7558339 0.2382203 0.1018449
v 0.4664186 0.2382203 0.6038558
v 0.7429307 0.2706192 0.09568316
v 0.4203109 0.2382202 0.6603196
v 0.4562881 0.2706192 0.5969001
v 0.4108893 0.2706192 0.6492984
v 0.4661173 0.2382203 -0.6036491
v 0.4543294 0.2706192 -0.5955554
v 0.4108894 0.2706192 -0.6492985
v 0.420311 0.2382203 -0.6603197
v 0.3568642 0.2706192 -0.68049
v 0.3616981 0.2382202 -0.6941599
v 0.4682605 0.2097093 -0.6051207
v 0.422024 0.2097094 -0.6623237
v 0.362577 0.2097093 -0.6966453
v 0.422024 -0.2907348 -0.6623236
v 0.4682605 -0.2907348 -0.6051207
v 0.4629023 -0.3309093 -0.6014416
v 0.4177414 -0.3309093 -0.6573139
v 0.4414698 -0.367196 -0.5867257
v 0.4006111 -0.367196 -0.6372753
v 0.362577 -0.2907348 -0.6966453
v 0.3603797 -0.3309093 -0.6904317
v 0.3515909 -0.367196 -0.6655772
v 0.2894838 -0.3309093 -0.7025172
v 0.2877408 -0.367196 -0.6802424
v 0.2899195 -0.2907348 -0.7080858
v 0.2899196 0.2097093 -0.7080858
v 0.2897452 0.2382202 -0.7058585
v 0.3616981 0.2382202 -0.6941599
v 0.2887866 0.2706191 -0.6936073
v 0.3568642 0.2706192 -0.68049
v 0.3603797 -0.3309093 0.6904317
v 0.3515909 -0.367196 0.6655772
v 0.2874911 -0.3680402 0.6770509
v 0.2894379 -0.3322731 0.7019308
v 0.3625769 -0.2907347 0.6966453
v 0.2899195 -0.2907347 0.7080858
v 0.362577 0.2097094 0.6966453
v 0.2899195 0.2097094 0.7080858
v 0.3616981 0.2382203 0.6941597
v 0.2897165 0.2382049 0.7054921
v 0.3568642 0.2706192 0.6804898
v 0.2886004 0.2706012 0.6912273
v 0.782009 0.2382203 0.03384011
v 0.7677535 0.2706192 0.03119136
v 0.7677535 0.2706192 -0.03119142
v 0.782009 0.2382203 -0.03384017
v 0.784601 0.2097093 0.03432171
v 0.784601 0.2097093 -0.03432177
v 0.784601 -0.2907347 0.03432175
v 0.784601 -0.2907347 -0.03432172
v 0.7781212 -0.3309093 0.03311777
v 0.7781212 -0.3309093 -0.03311774
v 0.7522022 -0.367196 0.02830185
v 0.7522022 -0.367196 -0.02830184
v 0.7558339 0.2382203 0.1018449
v 0.7429307 0.2706192 0.09568316
v 0.7677535 0.2706192 0.03119136
v 0.782009 0.2382203 0.03384011
v 0.75818 0.2097093 0.1029652
v 0.784601 0.2097093 0.03432171
v 0.75818 -0.2907347 0.1029652
v 0.784601 -0.2907347 0.03432175
v 0.7523149 -0.3309093 0.1001644
v 0.7781212 -0.3309093 0.03311777
v 0.7288542 -0.367196 0.0889613
v 0.7522022 -0.367196 0.02830185
v 0.3616981 0.2382203 0.6941597
v 0.3568642 0.2706192 0.6804898
v 0.4108893 0.2706192 0.6492984
v 0.4203109 0.2382202 0.6603196
v 0.362577 0.2097094 0.6966453
v 0.422024 0.2097093 0.6623236
v 0.4220239 -0.2907347 0.6623236
v 0.3625769 -0.2907347 0.6966453
v 0.3603797 -0.3309093 0.6904317
v 0.4177414 -0.3309093 0.6573139
v 0.3515909 -0.367196 0.6655772
v 0.4006111 -0.3671959 0.6372753
v 0.3101149 -0.3452122 -0.1769123
v 0.3458883 -0.3452122 -0.09157653
v 0.380509 -0.3839391 -0.09540658
v 0.3421117 -0.3839383 -0.185787
v 0.3458884 0.2553033 -0.09157656
v 0.310115 0.2553033 -0.1769123
v 0.3424321 0.3030209 -0.1859609
v 0.3808652 0.3030209 -0.09549593
v 0.3458883 -0.3452122 -0.09157653
v 0.35809 -0.3452122 9.654713E-10
v 0.3937815 -0.3839397 0.0005781098
v 0.380509 -0.3839391 -0.09540658
v 0.35809 0.2553033 -2.139346E-08
v 0.3458884 0.2553033 -0.09157656
v 0.3808652 0.3030209 -0.09549593
v 0.3941502 0.3030209 0.0005786213
v 0.3458883 0.2553033 0.09157678
v 0.35809 0.2553033 -2.139346E-08
v 0.3941502 0.3030209 0.0005786213
v 0.3810773 0.3030208 0.09689596
v 0.35809 -0.3452122 9.654713E-10
v 0.3458883 -0.3452122 0.09157681
v 0.3807208 -0.3839398 0.09680536
v 0.3937815 -0.3839397 0.0005781098
v 0.3101149 0.2553033 0.1769125
v 0.3458883 0.2553033 0.09157678
v 0.3810773 0.3030208 0.09689596
v 0.3341653 0.3030208 0.2001723
v 0.3458883 -0.3452122 0.09157681
v 0.3101148 -0.3452122 0.1769125
v 0.3338527 -0.3839382 0.1999851
v 0.3807208 -0.3839398 0.09680536
v 0.3101148 -0.3452122 0.1769125
v 0.2532077 -0.3452122 0.250192
v 0.2738391 -0.383939 0.278036
v 0.3338527 -0.3839382 0.1999851
v 0.2532077 0.2553033 0.2501919
v 0.3101149 0.2553033 0.1769125
v 0.3341653 0.3030208 0.2001723
v 0.2740955 0.3030208 0.2782962
v 0.2532077 -0.3452122 0.250192
v 0.1790448 -0.3452122 0.3064213
v 0.1963393 -0.3839395 0.3373946
v 0.2738391 -0.383939 0.278036
v 0.1790448 0.2553033 0.3064213
v 0.2532077 0.2553033 0.2501919
v 0.2740955 0.3030208 0.2782962
v 0.1965232 0.3030208 0.3377104
v 0.0926803 0.2553033 0.3417684
v 0.1790448 0.2553033 0.3064213
v 0.1965232 0.3030208 0.3377104
v 0.1055668 0.3030208 0.374681
v 0.1790448 -0.3452122 0.3064213
v 0.0926803 -0.3452122 0.3417684
v 0.105468 -0.3839397 0.3743306
v 0.1963393 -0.3839395 0.3373946
v -1.845076E-07 0.2553033 0.3538246
v 0.0926803 0.2553033 0.3417684
v 0.1055668 0.3030208 0.374681
v -0.008174425 0.3030208 0.3861368
v 0.0926803 -0.3452122 0.3417684
v -1.845076E-07 -0.3452122 0.3538246
v -0.008166779 -0.3839382 0.3857757
v 0.105468 -0.3839397 0.3743306
v -1.845076E-07 -0.3452122 0.3538246
v -0.09268066 -0.3452122 0.3417683
v -0.1065691 -0.3839391 0.373459
v -0.008166779 -0.3839382 0.3857757
v -0.09268066 0.2553033 0.3417683
v -1.845076E-07 0.2553033 0.3538246
v -0.008174425 0.3030208 0.3861368
v -0.1066689 0.3030208 0.3738086
v -0.09268066 -0.3452122 0.3417683
v -0.1790451 -0.3452122 0.306421
v -0.1973346 -0.3839396 0.3368272
v -0.1065691 -0.3839391 0.373459
v -0.1790451 0.2553033 0.306421
v -0.09268066 0.2553033 0.3417683
v -0.1066689 0.3030208 0.3738086
v -0.1975193 0.3030208 0.3371425
v -0.253208 0.2553033 0.2501917
v -0.1790451 0.2553033 0.306421
v -0.1975193 0.3030208 0.3371425
v -0.2754012 0.3030208 0.2777943
v -0.1790451 -0.3452122 0.306421
v -0.253208 -0.3452122 0.2501917
v -0.2751436 -0.3839397 0.2775346
v -0.1973346 -0.3839396 0.3368272
v -0.3101151 0.2553033 0.1769121
v -0.253208 0.2553033 0.2501917
v -0.2754012 0.3030208 0.2777943
v -0.3424322 0.3030208 0.1859608
v -0.253208 -0.3452122 0.2501917
v -0.3101151 -0.3452122 0.1769122
v -0.3421119 -0.3839383 0.1857868
v -0.2751436 -0.3839397 0.2775346
v -0.3101151 -0.3452122 0.1769122
v -0.3458884 -0.3452122 0.09157642
v -0.380509 -0.3839391 0.09540649
v -0.3421119 -0.3839383 0.1857868
v -0.3458884 0.2553033 0.09157639
v -0.3101151 0.2553033 0.1769121
v -0.3424322 0.3030208 0.1859608
v -0.3808652 0.3030208 0.09549579
v -0.3458884 -0.3452122 0.09157642
v -0.35809 -0.3452122 -1.368189E-07
v -0.3937815 -0.3839397 -0.0005782436
v -0.380509 -0.3839391 0.09540649
v -0.3580899 0.2553033 -1.591779E-07
v -0.3458884 0.2553033 0.09157639
v -0.3808652 0.3030208 0.09549579
v -0.3941501 0.3030209 -0.0005788145
v -0.3458883 0.2553033 -0.0915767
v -0.3580899 0.2553033 -1.591779E-07
v -0.3941501 0.3030209 -0.0005788145
v -0.3810773 0.3030209 -0.09689584
v -0.35809 -0.3452122 -1.368189E-07
v -0.3458883 -0.3452122 -0.09157666
v -0.3807208 -0.3839398 -0.09680517
v -0.3937815 -0.3839397 -0.0005782436
v -0.3101149 0.2553033 -0.1769124
v -0.3458883 0.2553033 -0.0915767
v -0.3810773 0.3030209 -0.09689584
v -0.3341654 0.3030209 -0.2001722
v -0.3458883 -0.3452122 -0.09157666
v -0.3101149 -0.3452122 -0.1769124
v -0.3338528 -0.3839382 -0.199985
v -0.3807208 -0.3839398 -0.09680517
v -0.3101149 -0.3452122 -0.1769124
v -0.2532077 -0.3452122 -0.2501918
v -0.2738392 -0.3839391 -0.2780358
v -0.3338528 -0.3839382 -0.199985
v -0.2532077 0.2553033 -0.2501919
v -0.3101149 0.2553033 -0.1769124
v -0.3341654 0.3030209 -0.2001722
v -0.2740956 0.3030209 -0.2782963
v -0.2532077 -0.3452122 -0.2501918
v -0.1790449 -0.3452122 -0.3064211
v -0.1963395 -0.3839396 -0.3373944
v -0.2738392 -0.3839391 -0.2780358
v -0.1790449 0.2553033 -0.3064211
v -0.2532077 0.2553033 -0.2501919
v -0.2740956 0.3030209 -0.2782963
v -0.1965233 0.3030209 -0.3377104
v -0.09268048 0.2553033 -0.3417684
v -0.1790449 0.2553033 -0.3064211
v -0.1965233 0.3030209 -0.3377104
v -0.105567 0.3030209 -0.3746811
v -0.1790449 -0.3452122 -0.3064211
v -0.09268048 -0.3452122 -0.3417684
v -0.1054682 -0.3839397 -0.3743306
v -0.1963395 -0.3839396 -0.3373944
v 9.007881E-09 0.2553033 -0.3538246
v -0.09268048 0.2553033 -0.3417684
v -0.105567 0.3030209 -0.3746811
v 0.008174249 0.3030209 -0.386137
v -0.09268048 -0.3452122 -0.3417684
v 9.00787E-09 -0.3452122 -0.3538246
v 0.008166599 -0.3839382 -0.3857757
v -0.1054682 -0.3839397 -0.3743306
v 9.00787E-09 -0.3452122 -0.3538246
v 0.09268048 -0.3452122 -0.3417683
v 0.1065689 -0.3839391 -0.373459
v 0.008166599 -0.3839382 -0.3857757
v 0.09268048 0.2553033 -0.3417684
v 9.007881E-09 0.2553033 -0.3538246
v 0.008174249 0.3030209 -0.386137
v 0.1066687 0.3030209 -0.3738087
v 0.09268048 -0.3452122 -0.3417683
v 0.1790449 -0.3452122 -0.3064211
v 0.1973344 -0.3839396 -0.3368273
v 0.1065689 -0.3839391 -0.373459
v 0.1790449 0.2553033 -0.3064211
v 0.09268048 0.2553033 -0.3417684
v 0.1066687 0.3030209 -0.3738087
v 0.1975192 0.3030209 -0.3371427
v 0.2532079 0.2553033 -0.2501918
v 0.1790449 0.2553033 -0.3064211
v 0.1975192 0.3030209 -0.3371427
v 0.2754011 0.3030209 -0.2777947
v 0.1790449 -0.3452122 -0.3064211
v 0.2532078 -0.3452122 -0.2501918
v 0.2751434 -0.3839397 -0.2775347
v 0.1973344 -0.3839396 -0.3368273
v 0.310115 0.2553033 -0.1769123
v 0.2532079 0.2553033 -0.2501918
v 0.2754011 0.3030209 -0.2777947
v 0.3424321 0.3030209 -0.1859609
v 0.2532078 -0.3452122 -0.2501918
v 0.3101149 -0.3452122 -0.1769123
v 0.3421117 -0.3839383 -0.185787
v 0.2751434 -0.3839397 -0.2775347
v 0.3421117 -0.3839383 -0.185787
v 0.380509 -0.3839391 -0.09540658
v 0.6912923 -0.3839419 -0.01698444
v 0.6855968 -0.3839419 -0.06830448
v 0.7077749 -0.3814515 -0.07889525
v 0.7198032 -0.3814515 -0.02228195
v 0.6912923 -0.3839419 0.01698444
v 0.380509 -0.3839391 -0.09540658
v 0.3937815 -0.3839397 0.0005781098
v 0.4146791 -0.3814515 -0.5683308
v 0.3911034 -0.3839419 -0.5521433
v 0.3421117 -0.3839383 -0.185787
v 0.2751434 -0.3839397 -0.2775347
v 0.7329775 -0.367196 -0.09093022
v 0.4414698 -0.367196 -0.5867257
v 0.7522022 -0.367196 -0.02830184
v 0.4006111 -0.367196 -0.6372753
v 0.7198032 -0.3814515 0.02228195
v 0.7522022 -0.367196 0.02830185
v 0.3791983 -0.3814515 -0.6122271
v 0.3515909 -0.367196 -0.6655772
v 0.6995284 -0.3814515 0.07495736
v 0.7288542 -0.367196 0.0889613
v 0.6737218 -0.3839419 0.0626339
v 0.3807208 -0.3839398 0.09680536
v 0.3937815 -0.3839397 0.0005781098
v 0.3406049 -0.3814515 -0.6345089
v 0.2877408 -0.367196 -0.6802424
v 0.3603551 -0.3839419 -0.5901846
v 0.1973344 -0.3839396 -0.3368273
v 0.2751434 -0.3839397 -0.2775347
v 0.4222127 -0.3814514 0.5735035
v 0.4452366 -0.3671959 0.5893121
v 0.4019518 -0.3839419 0.5595919
v 0.3338527 -0.3839382 0.1999851
v 0.3807208 -0.3839398 0.09680536
v 0.2855622 -0.3814515 -0.6523988
v -0.2873845 -0.367196 -0.675687
v 0.3309372 -0.3839419 -0.607169
v 0.1973344 -0.3839396 -0.3368273
v 0.1065689 -0.3839391 -0.373459
v 0.3791983 -0.3814514 0.612227
v 0.4006111 -0.3671959 0.6372753
v 0.3603551 -0.3839419 0.5901846
v 0.2738391 -0.383939 0.278036
v 0.3338527 -0.3839382 0.1999851
v -0.2848493 -0.3814515 -0.6432881
v -0.3515911 -0.367196 -0.6655771
v 0.2836449 -0.3839419 -0.6278965
v 0.1065689 -0.3839391 -0.373459
v 0.008166599 -0.3839382 -0.3857757
v 0.3406048 -0.3814514 0.6345089
v 0.3515909 -0.367196 0.6655772
v 0.3309371 -0.3839419 0.607169
v 0.1963393 -0.3839395 0.3373946
v 0.2738391 -0.383939 0.278036
v -0.340605 -0.3814515 -0.6345088
v -0.4006112 -0.367196 -0.6372752
v -0.2826184 -0.3839419 -0.6147771
v 0.008166599 -0.3839382 -0.3857757
v -0.1054682 -0.3839397 -0.3743306
v 0.2849407 -0.3815813 0.6444572
v 0.2874911 -0.3680402 0.6770509
v 0.2826183 -0.3839419 0.6147772
v 0.1963393 -0.3839395 0.3373946
v 0.105468 -0.3839397 0.3743306
v -0.3791984 -0.3814515 -0.612227
v -0.4452367 -0.367196 -0.589312
v -0.3309373 -0.3839419 -0.6071689
v -0.1054682 -0.3839397 -0.3743306
v -0.1963395 -0.3839396 -0.3373944
v -0.2855621 -0.3814514 0.6523986
v -0.2877408 -0.367196 0.6802423
v -0.2836449 -0.3839419 0.6278964
v -0.008166779 -0.3839382 0.3857757
v 0.105468 -0.3839397 0.3743306
v -0.4222128 -0.3814515 -0.5735033
v -0.7288543 -0.367196 -0.08896121
v -0.3603552 -0.3839419 -0.5901845
v -0.1963395 -0.3839396 -0.3373944
v -0.2738392 -0.3839391 -0.2780358
v -0.3406049 -0.3814514 0.6345089
v -0.3515909 -0.3671959 0.6655772
v -0.3309372 -0.3839419 0.607169
v -0.1065691 -0.3839391 0.373459
v -0.008166779 -0.3839382 0.3857757
v -0.6995286 -0.3814515 -0.07495728
v -0.7522022 -0.367196 -0.02830177
v -0.4019518 -0.3839419 -0.5595918
v -0.2738392 -0.3839391 -0.2780358
v -0.3338528 -0.3839382 -0.199985
v -0.3791983 -0.3814514 0.6122271
v -0.4006111 -0.367196 0.6372753
v -0.360355 -0.3839419 0.5901846
v -0.1973346 -0.3839396 0.3368272
v -0.1065691 -0.3839391 0.373459
v -0.7198032 -0.3814515 -0.02228188
v -0.7522022 -0.367196 0.02830191
v -0.6737219 -0.3839419 -0.06263385
v -0.3338528 -0.3839382 -0.199985
v -0.3807208 -0.3839398 -0.09680517
v -0.4146791 -0.3814514 0.5683308
v -0.4414698 -0.367196 0.5867257
v -0.3911034 -0.3839419 0.5521433
v -0.1973346 -0.3839396 0.3368272
v -0.2751436 -0.3839397 0.2775346
v -0.7198032 -0.3814515 0.02228201
v -0.7329775 -0.367196 0.09093032
v -0.7077749 -0.3814515 0.07889535
v -0.6912923 -0.3839419 -0.01698437
v -0.3937815 -0.3839397 -0.0005782436
v -0.3807208 -0.3839398 -0.09680517
v -0.6912923 -0.3839419 0.01698449
v -0.3937815 -0.3839397 -0.0005782436
v -0.380509 -0.3839391 0.09540649
v -0.6855967 -0.3839419 0.06830458
v -0.380509 -0.3839391 0.09540649
v -0.3421119 -0.3839383 0.1857868
v -0.3421119 -0.3839383 0.1857868
v -0.2751436 -0.3839397 0.2775346
vt -5.960464E-08 0.1578369
vt 0.04165649 0.7597656
vt -5.960464E-08 0.7597656
vt 0.04165649 0.1578369
vt 0.08331299 0.7597656
vt 0.08331299 0.1578369
vt 0.125 0.1578369
vt 0.125 0.7597656
vt 0.166626 0.1578369
vt 0.166626 0.7597656
vt 0.208374 0.7597656
vt 0.208374 0.1578369
vt 0.25 0.7597656
vt 0.25 0.1578369
vt 0.291748 0.1578369
vt 0.291748 0.7597656
vt 0.333252 0.1578369
vt 0.333252 0.7597656
vt 0.375 0.7597656
vt 0.375 0.1578369
vt 0.416748 0.7597656
vt 0.416748 0.1578369
vt 0.458252 0.1578369
vt 0.458252 0.7597656
vt 0.5 0.1578369
vt 0.5 0.7597656
vt 0.5415039 0.7597656
vt 0.5415039 0.1578369
vt 0.5834961 0.7597656
vt 0.5834961 0.1578369
vt 0.625 0.1578369
vt 0.625 0.7597656
vt 0.6665039 0.1578369
vt 0.6665039 0.7597656
vt 0.7084961 0.7597656
vt 0.7084961 0.1578369
vt 0.75 0.7597656
vt 0.75 0.1578369
vt 0.7915039 0.1578369
vt 0.7915039 0.7597656
vt 0.8334961 0.1578369
vt 0.8334961 0.7597656
vt 0.875 0.7597656
vt 0.875 0.1578369
vt 0.9165039 0.7597656
vt 0.9165039 0.1578369
vt 0.9584961 0.1578369
vt 0.9584961 0.7597656
vt 1 0.1578369
vt 1 0.7597656
vt 0.7744141 1.001953
vt 0.7587891 1
vt 0.7392578 1
vt 0.7641602 1.001953
vt 0.9975586 1
vt 0.96875 1.020508
vt 0.9814453 1.020508
vt 1.012695 1
vt 1.009766 1
vt 1.021484 1
vt 1.013672 1
vt 0.9838867 1.00293
vt 0.9873047 1.00293
vt 1.021484 1
vt 1.03125 1
vt 0.9345703 1
vt 1.024414 1
vt 1.035156 1
vt 0.9379883 1
vt 0.921875 1
vt 1.006836 1
vt 0.9858398 0.9907227
vt 0.980957 0.9907227
vt 1.019531 1
vt 1.033203 1
vt 0.9228516 1
vt 0.9077148 1
vt 0.9418945 1
vt 0.9501953 1.006836
vt 0.9707031 1.006836
vt 0.9868164 1
vt 0.9819336 0.9975586
vt 0.9711914 0.9975586
vt 0.9946289 1
vt 1.001953 1
vt 0.9067383 1
vt 0.8925781 1
vt 0.9238281 1
vt 0.9291992 1.024414
vt 0.9521484 1.024414
vt 0.987793 1
vt 0.9960938 1
vt 0.9799805 1
vt 0.956543 0.9902344
vt 0.9726563 0.9902344
vt 0.8881836 1
vt 0.7744141 1
vt 0.9052734 1
vt 0.9018555 1.038086
vt 0.9291992 1.038086
vt 0.9741211 1
vt 0.9858398 1
vt 0.9628906 1
vt 0.9545898 0.9648438
vt 0.9306641 0.9648438
vt 0.7910156 1
vt 0.7602539 1
vt 0.7714844 1
vt 0.8081055 1
vt 0.7832031 1
vt 0.9550781 1
vt 0.9716797 1
vt 0.9379883 1
vt 0.9550781 1
vt 0.9296875 0.9667969
vt 0.9018555 0.9663086
vt 0.8579102 1
vt 0.8535156 1
vt 0.8623047 1
vt 0.9379883 1
vt 0.8408203 1
vt 0.8393555 1
vt 0.8222656 1
vt 0.8378906 1
vt 0.8232422 1
vt 0.8242188 1
vt 0.8623047 1
vt 0.9379883 1
vt 0.9042969 0.9912109
vt 0.8735352 0.9912109
vt 0.8623047 1
vt 0.8769531 0.9697266
vt 0.8481445 0.9692383
vt 0.8408203 1
vt 0.8222656 1
vt 0.8408203 1
vt 0.8442383 0.9619141
vt 0.8164063 0.9619141
vt 0.8041992 1
vt 0.8164063 0.9760742
vt 0.793457 0.9755859
vt 0.8222656 1
vt 0.8232422 1
vt 0.8076172 1
vt 0.8242188 1
vt 0.8115234 1
vt 0.7460938 1
vt 0.7954102 0.9931641
vt 0.7749023 0.9931641
vt 0.7348633 1
vt 0.7241211 1
vt 0.7241211 1
vt 0.7148438 1
vt 0.7338867 1
vt 0.7641602 0.9829102
vt 0.7763672 0.9829102
vt 0.7216797 1
vt 0.7109375 1
vt 0.7324219 1
vt 0.762207 0.9970703
vt 0.7587891 0.9970703
vt 0.7260742 1
vt 0.7128906 1
vt 0.7514648 1
vt 0.7436523 1
vt 0.7587891 1
vt 0.7392578 1
vt 0.7578125 1
vt 0.75 1
vt 0.7392578 1
vt 0.7260742 1
vt 0.7324219 1
vt 0.7602539 1.008789
vt 0.7646484 1.009766
vt 0.7587891 1
vt 0.7734375 1.009766
vt 0.7895508 1.009766
vt 0.7661133 1
vt 0.7514648 1
vt 0.7578125 1
vt 0.7832031 1
vt 0.7910156 1.035156
vt 0.8149414 1.035156
vt 0.7714844 1
vt 0.75 1
vt 0.7602539 1
vt 0.8081055 1
vt 0.7832031 1
vt 0.8164063 1.033203
vt 0.8442383 1.03418
vt 0.8081055 1
vt 0.8413086 1.008789
vt 0.8725586 1.008789
vt 0.8833008 1
vt 0.7910156 1
vt 0.8974609 1.030273
vt 0.8691406 1.030273
vt 0.8925781 0.05651855
vt 0.8925781 0
vt 0.7744141 0
vt 0.7744141 0.05651855
vt 0.8925781 0.1130371
vt 0.7744141 0.1130371
vt 0.7744141 0.8867188
vt 0.8925781 0.8867188
vt 0.8925781 0.9248047
vt 0.7744141 0.9248047
vt 0.8925781 0.980957
vt 0.7744141 0.980957
vt 0.7573242 0.9248047
vt 0.7739258 0.980957
vt 0.7578125 0.980957
vt 0.7568359 0.8867188
vt 0.7729492 0.8867188
vt 0.7475586 0.1130371
vt 0.7636719 0.1130371
vt 0.746582 0.05651855
vt 0.7626953 0.05651855
vt 0.7460938 0
vt 0.762207 0
vt -0.05911255 0.9248047
vt -0.05911255 0.980957
vt 0.05911255 0.980957
vt 0.05911255 0.9248047
vt 0.07525635 0.980957
vt -0.05911255 0.8867188
vt 0.07525635 0.9248047
vt 0.05911255 0.8867188
vt -0.05911255 0.1130371
vt 0.07525635 0.8867188
vt 0.05911255 0.1130371
vt -0.05911255 0.05651855
vt 0.05911255 0.05651855
vt -0.05911255 0
vt 0.05911255 0
vt 0.07525635 0.1130371
vt 0.07525635 0.05651855
vt 0.07525635 0
vt 0.09143066 0.05651855
vt 0.09143066 0
vt 0.09143066 0.1130371
vt 0.09143066 0.8867188
vt 0.1075439 0.05651855
vt 0.1075439 0
vt 0.09143066 0.9248047
vt 0.07525635 0.9248047
vt 0.09143066 0.980957
vt 0.07525635 0.980957
vt 0.1075439 0.1130371
vt 0.225708 0.05651855
vt 0.225708 0
vt 0.1075439 0.8867188
vt 0.225708 0.1130371
vt 0.2419434 0.05651855
vt 0.2419434 0
vt 0.1075439 0.9248047
vt 0.09143066 0.9248047
vt 0.225708 0.8867188
vt 0.2419434 0.1130371
vt 0.2580566 0.05651855
vt 0.2580566 0
vt 0.1075439 0.980957
vt 0.09143066 0.980957
vt 0.225708 0.980957
vt 0.225708 0.9248047
vt 0.2419434 0.980957
vt 0.2419434 0.9248047
vt 0.2419434 0.8867188
vt 0.2741699 0.05651855
vt 0.2741699 0
vt 0.392334 0.05651855
vt 0.392334 0
vt 0.4086914 0.05651855
vt 0.4086914 0
vt 0.4248047 0.05651855
vt 0.4248047 0
vt 0.440918 0.05651855
vt 0.440918 0
vt 0.5107422 0.05651855
vt 0.5107422 0
vt 0.5107422 0.1130371
vt 0.440918 0.1130371
vt 0.4248047 0.1130371
vt 0.440918 0.8867188
vt 0.5107422 0.8867188
vt 0.5107422 0.9248047
vt 0.4086914 0.1130371
vt 0.440918 0.9248047
vt 0.5107422 0.980957
vt 0.440918 0.980957
vt 0.4248047 0.8867188
vt 0.4248047 0.9248047
vt 0.4248047 0.980957
vt 0.4086914 0.8867188
vt 0.4086914 0.9248047
vt 0.4086914 0.980957
vt 0.392334 0.1130371
vt 0.392334 0.8867188
vt 0.392334 0.9248047
vt 0.392334 0.980957
vt 0.2741699 0.1130371
vt 0.2741699 0.8867188
vt 0.2741699 0.9248047
vt 0.2741699 0.980957
vt 0.2580566 0.1130371
vt 0.2580566 0.8867188
vt 0.2580566 0.9248047
vt 0.2580566 0.980957
vt 0.2419434 0.9248047
vt 0.2419434 0.980957
vt 0.7255859 0.05651855
vt 0.7255859 0
vt 0.6074219 0
vt 0.6074219 0.05651855
vt 0.5913086 0
vt 0.7255859 0.1130371
vt 0.5913086 0.05651855
vt 0.6074219 0.1130371
vt 0.5913086 0.1130371
vt 0.7255859 0.8867188
vt 0.5913086 0.8867188
vt 0.6074219 0.8867188
vt 0.7255859 0.9248047
vt 0.6074219 0.9248047
vt 0.7255859 0.980957
vt 0.5913086 0.9248047
vt 0.6074219 0.980957
vt 0.5913086 0.980957
vt 0.8925781 0.9248047
vt 0.8925781 0.980957
vt 0.8881836 0.980957
vt 0.8881836 0.9248047
vt 0.8842773 0.980957
vt 0.8842773 0.9248047
vt 0.8925781 0.8867188
vt 0.8881836 0.8867188
vt 0.8842773 0.8867188
vt 0.8881836 0.1130371
vt 0.8925781 0.1130371
vt 0.8925781 0.05651855
vt 0.8881836 0.05651855
vt 0.8925781 0
vt 0.8881836 0
vt 0.8842773 0.1130371
vt 0.8842773 0.05651855
vt 0.8842773 0
vt 0.8803711 0.05651855
vt 0.8803711 0
vt 0.8803711 0.1130371
vt 0.8803711 0.8867188
vt 0.8803711 0.9248047
vt 0.8842773 0.9248047
vt 0.8803711 0.980957
vt 0.8842773 0.980957
vt 0.5732422 0.05651855
vt 0.5751953 0
vt 0.559082 0
vt 0.5571289 0.05651855
vt 0.5717773 0.1130371
vt 0.5556641 0.1130371
vt 0.5463867 0.8867188
vt 0.5302734 0.8867188
vt 0.5454102 0.9248047
vt 0.5292969 0.9248047
vt 0.543457 0.980957
vt 0.5273438 0.980957
vt 0.7402344 0.9248047
vt 0.7416992 0.980957
vt 0.7578125 0.980957
vt 0.7563477 0.9248047
vt 0.7392578 0.8867188
vt 0.7553711 0.8867188
vt 0.7202148 0.1130371
vt 0.7368164 0.1130371
vt 0.7192383 0.05651855
vt 0.7353516 0.05651855
vt 0.7177734 0
vt 0.7338867 -1.192093E-07
vt 0.7231445 0.9248047
vt 0.7250977 0.980957
vt 0.7412109 0.980957
vt 0.7392578 0.9248047
vt 0.7216797 0.8867188
vt 0.737793 0.8867188
vt 0.6933594 0.1130371
vt 0.7094727 0.1130371
vt 0.6914063 0.05651855
vt 0.7075195 0.05651855
vt 0.6894531 0
vt 0.7055664 -5.960464E-08
vt 0.5605469 0.9248047
vt 0.5595703 0.980957
vt 0.5756836 0.980957
vt 0.5766602 0.9248047
vt 0.5610352 0.8867188
vt 0.5771484 0.8867188
vt 0.5893555 0.1130371
vt 0.5732422 0.1130371
vt 0.5742188 0.05651855
vt 0.590332 0.05651855
vt 0.5751953 0
vt 0.5913086 0
vt 0.828125 -0.0501709
vt 0.7983398 -0.04962158
vt 0.7949219 -0.03308105
vt 0.8242188 -0.03344727
vt 0.8203125 1.049805
vt 0.8486328 1.050781
vt 0.8442383 1.03418
vt 0.8164063 1.033203
vt 0.7973633 -0.0635376
vt 0.765625 -0.06323242
vt 0.7646484 -0.04214478
vt 0.7944336 -0.0423584
vt 0.7929688 1.052734
vt 0.8183594 1.052734
vt 0.8149414 1.035156
vt 0.7910156 1.035156
vt 0.7739258 1.014648
vt 0.7905273 1.014648
vt 0.7895508 1.009766
vt 0.7734375 1.009766
vt 0.7602539 -0.03549194
vt 0.7333984 -0.03515625
vt 0.7353516 -0.0234375
vt 0.7612305 -0.02365112
vt 0.765625 1.003906
vt 0.7753906 1.003906
vt 0.7744141 1.001953
vt 0.7641602 1.001953
vt 0.7373047 -0.009933472
vt 0.7163086 -0.009902954
vt 0.7133789 -0.006599426
vt 0.737793 -0.006622314
vt 0.7197266 -0.03771973
vt 0.7001953 -0.037323
vt 0.6967773 -0.02488708
vt 0.7158203 -0.02514648
vt 0.762207 1.013672
vt 0.7670898 1.013672
vt 0.7646484 1.009766
vt 0.7602539 1.008789
vt 0.6977539 -0.02894592
vt 0.6850586 -0.02879333
vt 0.6831055 -0.01919556
vt 0.6953125 -0.01928711
vt 0.7641602 0.9960938
vt 0.7602539 0.9960938
vt 0.7587891 0.9970703
vt 0.762207 0.9970703
vt 0.7797852 0.9741211
vt 0.7670898 0.9741211
vt 0.7641602 0.9829102
vt 0.7763672 0.9829102
vt 0.6860352 0.01061249
vt 0.6835938 0.01051331
vt 0.6811523 0.007011414
vt 0.6831055 0.007072449
vt 0.7939453 0.9897461
vt 0.7773438 0.9897461
vt 0.7749023 0.9931641
vt 0.7954102 0.9931641
vt 0.6826172 0.003396988
vt 0.6860352 0.003383636
vt 0.6855469 0.002256393
vt 0.6806641 0.002264023
vt 0.6850586 0.01244354
vt 0.6958008 0.01230621
vt 0.6953125 0.008209229
vt 0.6850586 0.008293152
vt 0.8149414 0.9638672
vt 0.7910156 0.9633789
vt 0.793457 0.9755859
vt 0.8164063 0.9760742
vt 0.6943359 0.03466797
vt 0.7128906 0.03448486
vt 0.7119141 0.022995
vt 0.6943359 0.02311707
vt 0.84375 0.9433594
vt 0.8149414 0.9428711
vt 0.8164063 0.9619141
vt 0.8442383 0.9619141
vt 0.8803711 0.9545898
vt 0.8505859 0.9541016
vt 0.8481445 0.9692383
vt 0.8769531 0.9697266
vt 0.7192383 0.04449463
vt 0.7436523 0.04406738
vt 0.7397461 0.02938843
vt 0.7158203 0.02966309
vt 0.9013672 0.9868164
vt 0.875 0.9863281
vt 0.8735352 0.9912109
vt 0.9042969 0.9912109
vt 0.7387695 0.01347351
vt 0.7631836 0.0134201
vt 0.7661133 0.00894928
vt 0.7363281 0.008979797
vt 0.7592773 0.0501709
vt 0.7890625 0.04962158
vt 0.7924805 0.03308105
vt 0.7631836 0.03344727
vt 0.9257813 0.9501953
vt 0.8974609 0.9492188
vt 0.9018555 0.9663086
vt 0.9296875 0.9667969
vt 0.7900391 0.0635376
vt 0.8217773 0.06323242
vt 0.8227539 0.04214478
vt 0.7929688 0.0423584
vt 0.9526367 0.9472656
vt 0.9272461 0.9472656
vt 0.9306641 0.9648438
vt 0.9545898 0.9648438
vt 0.972168 0.9853516
vt 0.9555664 0.9853516
vt 0.956543 0.9902344
vt 0.9726563 0.9902344
vt 0.8271484 0.03549194
vt 0.8540039 0.03515625
vt 0.8520508 0.0234375
vt 0.8261719 0.02365112
vt 0.9804688 0.996582
vt 0.9702148 0.996582
vt 0.9711914 0.9975586
vt 0.9819336 0.9975586
vt 0.8500977 0.009933472
vt 0.8710938 0.009902954
vt 0.8740234 0.006599426
vt 0.8496094 0.006622314
vt 0.8676758 0.03771973
vt 0.887207 0.037323
vt 0.890625 0.02488708
vt 0.871582 0.02514648
vt 0.9833984 0.9863281
vt 0.9790039 0.9858398
vt 0.980957 0.9907227
vt 0.9858398 0.9907227
vt 0.8896484 0.02894592
vt 0.9023438 0.02879333
vt 0.9042969 0.01919556
vt 0.8920898 0.01928711
vt 0.9819336 1.003906
vt 0.9858398 1.003906
vt 0.9873047 1.00293
vt 0.9838867 1.00293
vt 0.965332 1.03125
vt 0.9780273 1.03125
vt 0.9814453 1.020508
vt 0.96875 1.020508
vt 0.9018555 -0.00894928
vt 0.9042969 -0.008872986
vt 0.90625 -0.005912781
vt 0.9042969 -0.005966187
vt 0.9516602 1.009766
vt 0.9682617 1.009766
vt 0.9707031 1.006836
vt 0.9501953 1.006836
vt 0.9047852 -0.003536224
vt 0.9013672 -0.003522873
vt 0.9018555 -0.002349854
vt 0.9067383 -0.002357483
vt 0.9023438 -0.01244354
vt 0.8916016 -0.01231384
vt 0.8920898 -0.008209229
vt 0.9023438 -0.008293152
vt 0.9311523 1.036133
vt 0.9545898 1.037109
vt 0.9521484 1.024414
vt 0.9291992 1.024414
vt 0.8930664 -0.03466797
vt 0.8745117 -0.03448486
vt 0.8754883 -0.022995
vt 0.8930664 -0.02311707
vt 0.9018555 1.056641
vt 0.9311523 1.056641
vt 0.9291992 1.038086
vt 0.9018555 1.038086
vt 0.8657227 1.045898
vt 0.8955078 1.045898
vt 0.8974609 1.030273
vt 0.8691406 1.030273
vt 0.8681641 -0.04449463
vt 0.84375 -0.04406738
vt 0.8476563 -0.02938843
vt 0.871582 -0.02966309
vt 0.8442383 1.013672
vt 0.8706055 1.013672
vt 0.8725586 1.008789
vt 0.8413086 1.008789
vt 0.8486328 -0.01347351
vt 0.8242188 -0.0134201
vt 0.8212891 -0.00894928
vt 0.8510742 -0.008979797
vt 0.8242188 -0.03344727
vt 0.7949219 -0.03308105
vt 0.7729492 0
vt 0.7973633 0
vt 0.7895508 0
vt 0.7680664 0
vt 0.7524414 0
vt 0.7944336 -0.0423584
vt 0.7646484 -0.04214478
vt 0.8793945 0
vt 0.8730469 0
vt 0.8212891 -0.00894928
vt 0.8510742 -0.008979797
vt 0.7783203 0
vt 0.8891602 0
vt 0.7612305 0
vt 0.9042969 0
vt 0.75 0
vt 0.7460938 0
vt 0.8984375 0
vt 0.9150391 0
vt 0.734375 0
vt 0.7329102 0
vt 0.7353516 0
vt 0.7353516 -0.0234375
vt 0.7612305 -0.02365112
vt 0.9091797 0
vt 0.9208984 0
vt 0.894043 0
vt 0.871582 -0.02966309
vt 0.8476563 -0.02938843
vt 0.6679688 0
vt 0.6508789 0
vt 0.6796875 0
vt 0.7133789 -0.006599426
vt 0.737793 -0.006622314
vt 0.9150391 0
vt 0.9501953 0
vt 0.9052734 0
vt 0.8754883 -0.022995
vt 0.8930664 -0.02311707
vt 0.652832 0
vt 0.6401367 0
vt 0.6616211 0
vt 0.6967773 -0.02488708
vt 0.7158203 -0.02514648
vt 0.9389648 0
vt 0.9521484 0
vt 0.9116211 0
vt 0.8920898 -0.008209229
vt 0.9023438 -0.008293152
vt 0.6450195 0
vt 0.6352539 0
vt 0.6518555 0
vt 0.6831055 -0.01919556
vt 0.6953125 -0.01928711
vt 0.9423828 0
vt 0.9472656 0
vt 0.9311523 0
vt 0.9018555 -0.002349854
vt 0.9067383 -0.002357483
vt 0.6489258 0
vt 0.637207 0
vt 0.6567383 0
vt 0.6831055 0.007072449
vt 0.6811523 0.007011414
vt 0.9345703 0
vt 0.9365234 0
vt 0.9355469 0
vt 0.90625 -0.005912781
vt 0.9042969 -0.005966187
vt 0.6723633 0
vt 0.6665039 0
vt 0.6757813 0
vt 0.6855469 0.002256393
vt 0.6806641 0.002264023
vt 0.9194336 0
vt 0.8544922 0
vt 0.9257813 0
vt 0.9042969 0.01919556
vt 0.8920898 0.01928711
vt 0.6782227 0
vt 0.6723633 0
vt 0.6821289 0
vt 0.6953125 0.008209229
vt 0.6850586 0.008293152
vt 0.8530273 0
vt 0.8413086 0
vt 0.9077148 0
vt 0.890625 0.02488708
vt 0.871582 0.02514648
vt 0.6889648 0
vt 0.6831055 0
vt 0.6933594 0
vt 0.7119141 0.022995
vt 0.6943359 0.02311707
vt 0.8374023 0
vt 0.8261719 0
vt 0.8520508 0
vt 0.8740234 0.006599426
vt 0.8496094 0.006622314
vt 0.7080078 0
vt 0.6982422 0
vt 0.7143555 0
vt 0.7158203 0.02966309
vt 0.7397461 0.02938843
vt 0.8193359 0
vt 0.809082 0
vt 0.7978516 0
vt 0.8349609 0
vt 0.8261719 0.02365112
vt 0.8520508 0.0234375
vt 0.8144531 0
vt 0.8227539 0.04214478
vt 0.7929688 0.0423584
vt 0.7900391 0
vt 0.7924805 0.03308105
vt 0.7631836 0.03344727
vt 0.7661133 0.00894928
vt 0.7363281 0.008979797
vn 0 0 1
vn 0.2561035 0 0.9667969
vn 0 0 1
vn 0.2561035 0 0.9667969
vn 0.4956055 0 0.8686523
vn 0.4956055 0 0.8686523
vn 0.703125 0 0.7114258
vn 0.703125 0 0.7114258
vn 0.8632813 0 0.5043945
vn 0.8632813 0 0.5043945
vn 0.965332 0 0.2617188
vn 0.965332 0 0.2617188
vn 1 0 0
vn 1 0 0
vn 0.965332 0 -0.2617188
vn 0.965332 0 -0.2617188
vn 0.8632813 0 -0.5043945
vn 0.8632813 0 -0.5043945
vn 0.703125 0 -0.7114258
vn 0.703125 0 -0.7114258
vn 0.4956055 0 -0.8686523
vn 0.4956055 0 -0.8686523
vn 0.2561035 0 -0.9667969
vn 0.2561035 0 -0.9667969
vn 0 0 -1
vn 0 0 -1
vn -0.2561035 0 -0.9667969
vn -0.2561035 0 -0.9667969
vn -0.4956055 0 -0.8686523
vn -0.4956055 0 -0.8686523
vn -0.703125 0 -0.7114258
vn -0.703125 0 -0.7114258
vn -0.8632813 0 -0.5043945
vn -0.8632813 0 -0.5043945
vn -0.965332 0 -0.2617188
vn -0.965332 0 -0.2617188
vn -1 0 0
vn -1 0 0
vn -0.965332 0 0.2617188
vn -0.965332 0 0.2617188
vn -0.8632813 0 0.5043945
vn -0.8632813 0 0.5043945
vn -0.703125 0 0.7114258
vn -0.703125 0 0.7114258
vn -0.4956055 0 0.8686523
vn -0.4956055 0 0.8686523
vn -0.2561035 0 0.9667969
vn -0.2561035 0 0.9667969
vn 0 0 1
vn 0 0 1
vn 0 1 0
vn 0.07794189 0.9960938 0.03656006
vn 0.07385254 0.9951172 0.06185913
vn 0 1 0
vn -0.007324219 0.9960938 -0.08581543
vn 0 1 0
vn 0 1 0
vn -0.02923584 0.9960938 -0.0826416
vn -0.03253174 0.9169922 -0.3979492
vn -0.1325684 0.9174805 -0.3747559
vn -0.04898071 0.996582 -0.06988525
vn 0 1 0
vn 0 1 0
vn -0.06274414 0.6137695 -0.7871094
vn -0.2612305 0.621582 -0.7387695
vn 0.07647705 0.6015625 -0.7954102
vn -0.2469482 0.9150391 -0.3186035
vn -0.5039063 0.6098633 -0.6113281
vn 0.05093384 0.9086914 -0.4140625
vn 0.2775879 0.6098633 -0.7421875
vn -0.07385254 0.9951172 -0.06185913
vn 0 1 0
vn 0 1 0
vn -0.3330078 0.9086914 -0.2512207
vn -0.6503906 0.6015625 -0.4638672
vn 0.1524658 0.9150391 -0.373291
vn 0.5092773 0.621582 -0.5957031
vn 0.01664734 0.9951172 -0.09490967
vn 0 1 0
vn 0 1 0
vn -0.07794189 0.9960938 -0.03656006
vn 0 1 0
vn 0 1 0
vn -0.3608398 0.9169922 -0.1707764
vn -0.7128906 0.6137695 -0.3393555
vn 0.2583008 0.9174805 -0.3022461
vn 0.6503906 0.6137695 -0.447998
vn 0.03604126 0.996582 -0.07739258
vn 0 1 0
vn 0 1 0
vn -0.3908691 0.9174805 -0.07263184
vn -0.7700195 0.621582 -0.1430664
vn -0.08624268 0.9960938 -0.01602173
vn 0 1 0
vn 0 1 0
vn 0.3283691 0.9169922 -0.2271729
vn 0.7270508 0.6015625 -0.3312988
vn 0.05697632 0.9960938 -0.06665039
vn 0 1 0
vn 0 1 0
vn -0.3994141 0.9150391 0.05453491
vn -0.7817383 0.6098633 0.1307373
vn -0.08502197 0.996582 0.007465363
vn 0 1 0
vn 0 1 0
vn 0.3840332 0.9086914 -0.1628418
vn 0.7817383 0.6098633 -0.1307373
vn 0.3994141 0.9150391 -0.05453491
vn 0.09051514 0.9951172 -0.03302002
vn 0.08502197 0.996582 -0.007465363
vn -0.3840332 0.9086914 0.1628418
vn -0.7270508 0.6015625 0.3312988
vn -0.09051514 0.9951172 0.03302002
vn -0.3840332 0.9086914 0.1628418
vn 0 1 0
vn 0 1 0
vn -0.3283691 0.9169922 0.2271729
vn -0.6503906 0.6137695 0.447998
vn -0.07061768 0.9960938 0.04925537
vn -0.09051514 0.9951172 0.03302002
vn -0.05697632 0.9960938 0.06665039
vn -0.2583008 0.9174805 0.3022461
vn -0.03604126 0.996582 0.07739258
vn -0.5092773 0.621582 0.5957031
vn -0.1524658 0.9150391 0.373291
vn -0.2775879 0.6098633 0.7421875
vn -0.07061768 0.9960938 0.04925537
vn -0.09051514 0.9951172 0.03302002
vn 0 1 0
vn 0 1 0
vn -0.07061768 0.9960938 0.04925537
vn 0 1 0
vn 0 1 0
vn -0.05697632 0.9960938 0.06665039
vn -0.03604126 0.996582 0.07739258
vn -0.05697632 0.9960938 0.06665039
vn 0 1 0
vn 0 1 0
vn -0.01664734 0.9951172 0.09490967
vn 0 1 0
vn 0 1 0
vn -0.03604126 0.996582 0.07739258
vn -0.1524658 0.9150391 0.373291
vn -0.05093384 0.9086914 0.4140625
vn -0.2775879 0.6098633 0.7421875
vn -0.07647705 0.6015625 0.7954102
vn 0.007312775 0.9960938 0.08587646
vn 0 1 0
vn 0 1 0
vn 0.0324707 0.9169922 0.3979492
vn 0.06262207 0.6137695 0.7871094
vn 0.1324463 0.9174805 0.3747559
vn 0.2609863 0.621582 0.7387695
vn 0.02922058 0.9960938 0.08270264
vn 0 1 0
vn 0 1 0
vn 0.2469482 0.9150391 0.3186035
vn 0.5039063 0.6098633 0.6113281
vn 0.04898071 0.996582 0.06988525
vn 0 1 0
vn 0 1 0
vn 0.3330078 0.9086914 0.2512207
vn 0.6503906 0.6015625 0.4638672
vn 0.3608398 0.9169922 0.1707764
vn 0.7128906 0.6137695 0.3393555
vn 0.07794189 0.9960938 0.03656006
vn 0.07385254 0.9951172 0.06185913
vn 0.3908691 0.9174805 0.07263184
vn 0.7700195 0.621582 0.1430664
vn 0.07385254 0.9951172 0.06185913
vn 0.3330078 0.9086914 0.2512207
vn 0.04898071 0.996582 0.06988525
vn 0 1 0
vn 0 1 0
vn 0.07794189 0.9960938 0.03656006
vn 0 1 0
vn 0 1 0
vn 0.08624268 0.9960938 0.01602173
vn 0.3608398 0.9169922 0.1707764
vn 0.3908691 0.9174805 0.07263184
vn 0.08502197 0.996582 -0.007465363
vn 0 1 0
vn 0 1 0
vn 0.3994141 0.9150391 -0.05453491
vn 0.7700195 0.621582 0.1430664
vn 0.7817383 0.6098633 -0.1307373
vn 0.09051514 0.9951172 -0.03302002
vn 0.08502197 0.996582 -0.007465363
vn 0 1 0
vn 0 1 0
vn 0.09051514 0.9951172 -0.03302002
vn 0 1 0
vn 0 1 0
vn 0.07061768 0.9960938 -0.04925537
vn 0.3840332 0.9086914 -0.1628418
vn 0 1 0
vn 0 1 0
vn 0.7666016 -0.3666992 -0.5273438
vn 0.5341797 -0.7607422 -0.3686523
vn 0.605957 -0.7490234 -0.269043
vn 0.8466797 -0.3569336 -0.3947754
vn 0.8217773 -0.07702637 -0.5644531
vn 0.9003906 -0.07434082 -0.4284668
vn 0.9018555 0.04220581 -0.4299316
vn 0.8237305 0.04376221 -0.5654297
vn 0.7998047 0.2408447 -0.5498047
vn 0.8793945 0.2332764 -0.4150391
vn 0.6503906 0.6137695 -0.447998
vn 0.7270508 0.6015625 -0.3312988
vn 0.9550781 0.2412109 -0.1728516
vn 0.7270508 0.6015625 -0.3312988
vn 0.7817383 0.6098633 -0.1307373
vn 0.9824219 0.04425049 -0.1818848
vn 0.9018555 0.04220581 -0.4299316
vn 0.9804688 -0.07769775 -0.1806641
vn 0.9003906 -0.07434082 -0.4284668
vn 0.9165039 -0.3654785 -0.161499
vn 0.8466797 -0.3569336 -0.3947754
vn 0.6455078 -0.7573242 -0.100769
vn 0.605957 -0.7490234 -0.269043
vn 0.08026123 0.2332764 -0.9692383
vn 0.07647705 0.6015625 -0.7954102
vn -0.06274414 0.6137695 -0.7871094
vn -0.07611084 0.2408447 -0.9677734
vn -0.2612305 0.621582 -0.7387695
vn 0.07849121 0.04220581 -0.9960938
vn -0.3227539 0.2491455 -0.9130859
vn -0.07800293 0.04376221 -0.9960938
vn 0.0791626 -0.07434082 -0.9941406
vn -0.3330078 0.0458374 -0.9418945
vn -0.07794189 -0.07702637 -0.9941406
vn 0.08148193 -0.3569336 -0.9306641
vn -0.07336426 -0.3666992 -0.9272461
vn 0.06982422 -0.7490234 -0.6591797
vn -0.05209351 -0.7607422 -0.6469727
vn -0.3322754 -0.08044434 -0.9399414
vn -0.3088379 -0.3759766 -0.8735352
vn -0.2144775 -0.765625 -0.6064453
vn -0.5981445 -0.3654785 -0.7133789
vn -0.4099121 -0.7573242 -0.5083008
vn -0.6464844 -0.07769775 -0.7587891
vn -0.6489258 0.04425049 -0.7597656
vn -0.7651367 -0.3569336 -0.5356445
vn -0.5361328 -0.7490234 -0.3901367
vn -0.6269531 0.2412109 -0.7407227
vn -0.3227539 0.2491455 -0.9130859
vn -0.5039063 0.6098633 -0.6113281
vn -0.2612305 0.621582 -0.7387695
vn -0.8212891 -0.07434082 -0.5654297
vn -0.8398438 -0.3666992 -0.4001465
vn -0.5864258 -0.7607422 -0.2783203
vn -0.8232422 0.04220581 -0.565918
vn -0.8999023 -0.07702637 -0.4294434
vn -0.9111328 -0.3759766 -0.1693115
vn -0.6323242 -0.765625 -0.1174927
vn -0.7993164 0.2332764 -0.5541992
vn -0.6269531 0.2412109 -0.7407227
vn -0.9013672 0.04376221 -0.4304199
vn -0.9799805 -0.08044434 -0.1821289
vn -0.9165039 -0.3654785 0.161499
vn -0.6455078 -0.7573242 0.100769
vn -0.6503906 0.6015625 -0.4638672
vn -0.5039063 0.6098633 -0.6113281
vn -0.7128906 0.6137695 -0.3393555
vn -0.8759766 0.2408447 -0.4179688
vn -0.7700195 0.621582 -0.1430664
vn -0.9521484 0.2491455 -0.1768799
vn -0.9819336 0.0458374 -0.1824951
vn -0.8466797 -0.3569336 0.3947754
vn -0.605957 -0.7490234 0.269043
vn -0.7666016 -0.3666992 0.5273438
vn -0.5341797 -0.7607422 0.3686523
vn -0.6020508 -0.3759766 0.7041016
vn -0.4179688 -0.765625 0.4890137
vn -0.3186035 -0.3654785 0.8745117
vn -0.2353516 -0.7573242 0.609375
vn -0.08221436 -0.3537598 0.9316406
vn -0.07092285 -0.7495117 0.6582031
vn 0.07855225 -0.3625488 0.9287109
vn 0.05990601 -0.7617188 0.6450195
vn 0.07873535 -0.07385254 0.9941406
vn -0.07922363 -0.07275391 0.9941406
vn -0.3337402 -0.07769775 0.9394531
vn -0.07849121 0.04220581 0.9960938
vn 0.07800293 0.04379272 0.9960938
vn 0.07611084 0.2408447 0.9677734
vn -0.6474609 -0.08044434 0.7578125
vn -0.08026123 0.2333984 0.9692383
vn 0.06262207 0.6137695 0.7871094
vn -0.07647705 0.6015625 0.7954102
vn -0.3334961 0.04425049 0.9418945
vn -0.3278809 0.2412109 0.9135742
vn -0.2775879 0.6098633 0.7421875
vn -0.6489258 0.0458374 0.7592773
vn -0.6293945 0.2491455 0.7363281
vn -0.5092773 0.621582 0.5957031
vn -0.8217773 -0.07702637 0.5644531
vn -0.8237305 0.04376221 0.5654297
vn -0.7998047 0.2408447 0.5498047
vn -0.6503906 0.6137695 0.447998
vn -0.9003906 -0.07434082 0.4284668
vn -0.9018555 0.04220581 0.4299316
vn -0.8793945 0.2332764 0.4150391
vn -0.7270508 0.6015625 0.3312988
vn -0.9804688 -0.07769775 0.1806641
vn -0.9824219 0.04425049 0.1818848
vn -0.9550781 0.2412109 0.1728516
vn -0.7817383 0.6098633 0.1307373
vn -0.9521484 0.2491455 -0.1768799
vn -0.7700195 0.621582 -0.1430664
vn 0.8398438 -0.3666992 0.4001465
vn 0.5864258 -0.7607422 0.2783203
vn 0.5361328 -0.7490234 0.3901367
vn 0.7651367 -0.3569336 0.5356445
vn 0.4099121 -0.7573242 0.5083008
vn 0.8999023 -0.07702637 0.4294434
vn 0.5981445 -0.3654785 0.7133789
vn 0.8212891 -0.07434082 0.5654297
vn 0.6464844 -0.07769775 0.7587891
vn 0.9013672 0.04376221 0.4304199
vn 0.6489258 0.04425049 0.7597656
vn 0.8232422 0.04220581 0.565918
vn 0.8759766 0.2408447 0.4179688
vn 0.7993164 0.2332764 0.5541992
vn 0.7128906 0.6137695 0.3393555
vn 0.6269531 0.2412109 0.7407227
vn 0.6503906 0.6015625 0.4638672
vn 0.5039063 0.6098633 0.6113281
vn 0.7998047 0.2408447 -0.5498047
vn 0.6503906 0.6137695 -0.447998
vn 0.5092773 0.621582 -0.5957031
vn 0.6293945 0.2491455 -0.7363281
vn 0.2775879 0.6098633 -0.7421875
vn 0.3278809 0.2412109 -0.9135742
vn 0.8237305 0.04376221 -0.5654297
vn 0.6489258 0.0458374 -0.7592773
vn 0.3334961 0.04421997 -0.9418945
vn 0.6474609 -0.08044434 -0.7578125
vn 0.8217773 -0.07702637 -0.5644531
vn 0.7666016 -0.3666992 -0.5273438
vn 0.6020508 -0.3759766 -0.7041016
vn 0.5341797 -0.7607422 -0.3686523
vn 0.4179688 -0.765625 -0.4890137
vn 0.3337402 -0.07769775 -0.9394531
vn 0.3186035 -0.3654785 -0.8745117
vn 0.2353516 -0.7573242 -0.609375
vn 0.08148193 -0.3569336 -0.9306641
vn 0.06982422 -0.7490234 -0.6591797
vn 0.0791626 -0.07434082 -0.9941406
vn 0.07849121 0.04220581 -0.9960938
vn 0.08026123 0.2332764 -0.9692383
vn 0.3278809 0.2412109 -0.9135742
vn 0.07647705 0.6015625 -0.7954102
vn 0.2775879 0.6098633 -0.7421875
vn 0.3144531 -0.371582 0.8735352
vn 0.2230225 -0.7661133 0.6030273
vn 0.05990601 -0.7617188 0.6450195
vn 0.07855225 -0.3625488 0.9287109
vn 0.333252 -0.07879639 0.9394531
vn 0.07873535 -0.07385254 0.9941406
vn 0.3330078 0.04586792 0.9418945
vn 0.07800293 0.04379272 0.9960938
vn 0.3227539 0.2492676 0.9130859
vn 0.07611084 0.2408447 0.9677734
vn 0.2609863 0.621582 0.7387695
vn 0.06262207 0.6137695 0.7871094
vn 0.9521484 0.2491455 0.1768799
vn 0.7700195 0.621582 0.1430664
vn 0.7817383 0.6098633 -0.1307373
vn 0.9550781 0.2412109 -0.1728516
vn 0.9819336 0.0458374 0.1824951
vn 0.9824219 0.04425049 -0.1818848
vn 0.9799805 -0.08044434 0.1821289
vn 0.9804688 -0.07769775 -0.1806641
vn 0.9111328 -0.3759766 0.1693115
vn 0.9165039 -0.3654785 -0.161499
vn 0.6323242 -0.765625 0.1174927
vn 0.6455078 -0.7573242 -0.100769
vn 0.8759766 0.2408447 0.4179688
vn 0.7128906 0.6137695 0.3393555
vn 0.7700195 0.621582 0.1430664
vn 0.9521484 0.2491455 0.1768799
vn 0.9013672 0.04376221 0.4304199
vn 0.9819336 0.0458374 0.1824951
vn 0.8999023 -0.07702637 0.4294434
vn 0.9799805 -0.08044434 0.1821289
vn 0.8398438 -0.3666992 0.4001465
vn 0.9111328 -0.3759766 0.1693115
vn 0.5864258 -0.7607422 0.2783203
vn 0.6323242 -0.765625 0.1174927
vn 0.3227539 0.2492676 0.9130859
vn 0.2609863 0.621582 0.7387695
vn 0.5039063 0.6098633 0.6113281
vn 0.6269531 0.2412109 0.7407227
vn 0.3330078 0.04586792 0.9418945
vn 0.6489258 0.04425049 0.7597656
vn 0.6464844 -0.07769775 0.7587891
vn 0.333252 -0.07879639 0.9394531
vn 0.3144531 -0.371582 0.8735352
vn 0.5981445 -0.3654785 0.7133789
vn 0.2230225 -0.7661133 0.6030273
vn 0.4099121 -0.7573242 0.5083008
vn -0.6547852 -0.6484375 0.3876953
vn -0.7197266 -0.6635742 0.2047119
vn -0.722168 -0.6645508 0.1915283
vn -0.6640625 -0.6494141 0.3706055
vn -0.7783203 0.5883789 0.2202148
vn -0.7060547 0.5732422 0.4162598
vn -0.7143555 0.5737305 0.4003906
vn -0.7807617 0.5893555 0.2077637
vn -0.7197266 -0.6635742 0.2047119
vn -0.7368164 -0.6757813 0.001304626
vn -0.7368164 -0.6757813 -0.0001438856
vn -0.722168 -0.6645508 0.1915283
vn -0.7993164 0.6010742 0.001293182
vn -0.7783203 0.5883789 0.2202148
vn -0.7807617 0.5893555 0.2077637
vn -0.7993164 0.6010742 -8.893013E-05
vn -0.7783203 0.5864258 -0.2248535
vn -0.7993164 0.6010742 0.001293182
vn -0.7993164 0.6010742 -8.893013E-05
vn -0.7802734 0.5878906 -0.2142334
vn -0.7368164 -0.6757813 0.001304626
vn -0.7202148 -0.6616211 -0.2091064
vn -0.7216797 -0.6630859 -0.197876
vn -0.7368164 -0.6757813 -0.0001438856
vn -0.7089844 0.5732422 -0.4106445
vn -0.7783203 0.5864258 -0.2248535
vn -0.7802734 0.5878906 -0.2142334
vn -0.699707 0.5742188 -0.4250488
vn -0.7202148 -0.6616211 -0.2091064
vn -0.6591797 -0.6489258 -0.3803711
vn -0.6494141 -0.6494141 -0.3955078
vn -0.7216797 -0.6630859 -0.197876
vn -0.6591797 -0.6489258 -0.3803711
vn -0.5327148 -0.6621094 -0.5268555
vn -0.5234375 -0.6635742 -0.534668
vn -0.6494141 -0.6494141 -0.3955078
vn -0.574707 0.5869141 -0.5698242
vn -0.7089844 0.5732422 -0.4106445
vn -0.699707 0.5742188 -0.4250488
vn -0.5664063 0.5883789 -0.5771484
vn -0.5327148 -0.6621094 -0.5268555
vn -0.3671875 -0.6738281 -0.6416016
vn -0.3664551 -0.6738281 -0.6416016
vn -0.5234375 -0.6635742 -0.534668
vn -0.3979492 0.5986328 -0.6953125
vn -0.574707 0.5869141 -0.5698242
vn -0.5664063 0.5883789 -0.5771484
vn -0.3972168 0.5986328 -0.6958008
vn -0.1951904 0.5839844 -0.7880859
vn -0.3979492 0.5986328 -0.6953125
vn -0.3972168 0.5986328 -0.6958008
vn -0.2049561 0.5854492 -0.784668
vn -0.3671875 -0.6738281 -0.6416016
vn -0.1799316 -0.6591797 -0.7304688
vn -0.1900635 -0.6606445 -0.7260742
vn -0.3664551 -0.6738281 -0.6416016
vn -0.003240585 0.5712891 -0.8208008
vn -0.1951904 0.5839844 -0.7880859
vn -0.2049561 0.5854492 -0.784668
vn 0.01397705 0.5717773 -0.8203125
vn -0.1799316 -0.6591797 -0.7304688
vn -0.004188538 -0.6464844 -0.7626953
vn 0.01412964 -0.6474609 -0.7617188
vn -0.1900635 -0.6606445 -0.7260742
vn -0.004188538 -0.6464844 -0.7626953
vn 0.1833496 -0.6611328 -0.7275391
vn 0.1955566 -0.6621094 -0.7231445
vn 0.01412964 -0.6474609 -0.7617188
vn 0.1990967 0.5854492 -0.7856445
vn -0.003240585 0.5712891 -0.8208008
vn 0.01397705 0.5717773 -0.8203125
vn 0.2106934 0.5869141 -0.7817383
vn 0.1833496 -0.6611328 -0.7275391
vn 0.3649902 -0.6738281 -0.6425781
vn 0.3666992 -0.6738281 -0.6416016
vn 0.1955566 -0.6621094 -0.7231445
vn 0.395752 0.5986328 -0.6962891
vn 0.1990967 0.5854492 -0.7856445
vn 0.2106934 0.5869141 -0.7817383
vn 0.3972168 0.5986328 -0.6953125
vn 0.5791016 0.5849609 -0.5678711
vn 0.395752 0.5986328 -0.6962891
vn 0.3972168 0.5986328 -0.6953125
vn 0.5717773 0.5864258 -0.5737305
vn 0.3649902 -0.6738281 -0.6425781
vn 0.5371094 -0.6601563 -0.5249023
vn 0.5292969 -0.6616211 -0.53125
vn 0.3666992 -0.6738281 -0.6416016
vn 0.7060547 0.5732422 -0.4162598
vn 0.5791016 0.5849609 -0.5678711
vn 0.5717773 0.5864258 -0.5737305
vn 0.7143555 0.5737305 -0.4003906
vn 0.5371094 -0.6601563 -0.5249023
vn 0.6547852 -0.6484375 -0.3876953
vn 0.6640625 -0.6494141 -0.3706055
vn 0.5292969 -0.6616211 -0.53125
vn 0.6547852 -0.6484375 -0.3876953
vn 0.7197266 -0.6635742 -0.2047119
vn 0.722168 -0.6645508 -0.1915283
vn 0.6640625 -0.6494141 -0.3706055
vn 0.7783203 0.5883789 -0.2202148
vn 0.7060547 0.5732422 -0.4162598
vn 0.7143555 0.5737305 -0.4003906
vn 0.7807617 0.5893555 -0.2077637
vn 0.7197266 -0.6635742 -0.2047119
vn 0.7368164 -0.6757813 -0.001303673
vn 0.7368164 -0.6757813 0.000144124
vn 0.722168 -0.6645508 -0.1915283
vn 0.7993164 0.6010742 -0.001292229
vn 0.7783203 0.5883789 -0.2202148
vn 0.7807617 0.5893555 -0.2077637
vn 0.7993164 0.6010742 8.940697E-05
vn 0.7783203 0.5864258 0.2248535
vn 0.7993164 0.6010742 -0.001292229
vn 0.7993164 0.6010742 8.940697E-05
vn 0.7802734 0.5878906 0.2142334
vn 0.7368164 -0.6757813 -0.001303673
vn 0.7202148 -0.6616211 0.2091064
vn 0.7216797 -0.6630859 0.197876
vn 0.7368164 -0.6757813 0.000144124
vn 0.7089844 0.5732422 0.4106445
vn 0.7783203 0.5864258 0.2248535
vn 0.7802734 0.5878906 0.2142334
vn 0.699707 0.5742188 0.4250488
vn 0.7202148 -0.6616211 0.2091064
vn 0.6591797 -0.6489258 0.3803711
vn 0.6494141 -0.6494141 0.3955078
vn 0.7216797 -0.6630859 0.197876
vn 0.6591797 -0.6489258 0.3803711
vn 0.5327148 -0.6621094 0.5268555
vn 0.5234375 -0.6635742 0.534668
vn 0.6494141 -0.6494141 0.3955078
vn 0.574707 0.5869141 0.5698242
vn 0.7089844 0.5732422 0.4106445
vn 0.699707 0.5742188 0.4250488
vn 0.5664063 0.5883789 0.5771484
vn 0.5327148 -0.6621094 0.5268555
vn 0.3671875 -0.6738281 0.6416016
vn 0.3664551 -0.6738281 0.6416016
vn 0.5234375 -0.6635742 0.534668
vn 0.3979492 0.5986328 0.6953125
vn 0.574707 0.5869141 0.5698242
vn 0.5664063 0.5883789 0.5771484
vn 0.3972168 0.5986328 0.6958008
vn 0.1951904 0.5839844 0.7880859
vn 0.3979492 0.5986328 0.6953125
vn 0.3972168 0.5986328 0.6958008
vn 0.2049561 0.5854492 0.784668
vn 0.3671875 -0.6738281 0.6416016
vn 0.1799316 -0.6591797 0.7304688
vn 0.1900635 -0.6606445 0.7260742
vn 0.3664551 -0.6738281 0.6416016
vn 0.003240585 0.5712891 0.8208008
vn 0.1951904 0.5839844 0.7880859
vn 0.2049561 0.5854492 0.784668
vn -0.01397705 0.5717773 0.8203125
vn 0.1799316 -0.6591797 0.7304688
vn 0.004188538 -0.6464844 0.7626953
vn -0.01412964 -0.6474609 0.7617188
vn 0.1900635 -0.6606445 0.7260742
vn 0.004188538 -0.6464844 0.7626953
vn -0.1833496 -0.6611328 0.7275391
vn -0.1955566 -0.6621094 0.7231445
vn -0.01412964 -0.6474609 0.7617188
vn -0.1990967 0.5854492 0.7856445
vn 0.003240585 0.5712891 0.8208008
vn -0.01397705 0.5717773 0.8203125
vn -0.2106934 0.5869141 0.7817383
vn -0.1833496 -0.6611328 0.7275391
vn -0.3649902 -0.6738281 0.6425781
vn -0.3666992 -0.6738281 0.6416016
vn -0.1955566 -0.6621094 0.7231445
vn -0.395752 0.5986328 0.6962891
vn -0.1990967 0.5854492 0.7856445
vn -0.2106934 0.5869141 0.7817383
vn -0.3972168 0.5986328 0.6953125
vn -0.5791016 0.5849609 0.5678711
vn -0.395752 0.5986328 0.6962891
vn -0.3972168 0.5986328 0.6953125
vn -0.5717773 0.5864258 0.5737305
vn -0.3649902 -0.6738281 0.6425781
vn -0.5371094 -0.6601563 0.5249023
vn -0.5292969 -0.6616211 0.53125
vn -0.3666992 -0.6738281 0.6416016
vn -0.7060547 0.5732422 0.4162598
vn -0.5791016 0.5849609 0.5678711
vn -0.5717773 0.5864258 0.5737305
vn -0.7143555 0.5737305 0.4003906
vn -0.5371094 -0.6601563 0.5249023
vn -0.6547852 -0.6484375 0.3876953
vn -0.6640625 -0.6494141 0.3706055
vn -0.5292969 -0.6616211 0.53125
vn 0 -1 0
vn 0 -1 0
vn 0.04650879 -0.9990234 -0.003648758
vn 0.04956055 -0.9985352 -0.01751709
vn 0.2580566 -0.9604492 -0.1050415
vn 0.2629395 -0.9643555 -0.03179932
vn 0.04699707 -0.9990234 0.008735657
vn 0 -1 0
vn 0 -1 0
vn 0.2159424 -0.9648438 -0.1497803
vn 0.03851318 -0.9990234 -0.02688599
vn 0 -1 0
vn 0 -1 0
vn 0.605957 -0.7490234 -0.269043
vn 0.5341797 -0.7607422 -0.3686523
vn 0.6455078 -0.7573242 -0.100769
vn 0.4179688 -0.765625 -0.4890137
vn 0.2575684 -0.9648438 0.04785156
vn 0.6323242 -0.765625 0.1174927
vn 0.170166 -0.9648438 -0.1990967
vn 0.2353516 -0.7573242 -0.609375
vn 0.2376709 -0.9648438 0.1121826
vn 0.5864258 -0.7607422 0.2783203
vn 0.0425415 -0.9990234 0.01991272
vn -1.055002E-05 -1 0
vn 0 -1 0
vn 0.1040039 -0.9643555 -0.2436523
vn 0.06982422 -0.7490234 -0.6591797
vn 0.03106689 -0.9990234 -0.03634644
vn 0 -1 0
vn 0 -1 0
vn 0.2200928 -0.9604492 0.1710205
vn 0.5361328 -0.7490234 0.3901367
vn 0.03994751 -0.9985352 0.03417969
vn 0 -1 0
vn -1.055002E-05 -1 0
vn 0.03811646 -0.9604492 -0.276123
vn -0.05209351 -0.7607422 -0.6469727
vn 0.02009583 -0.9990234 -0.04211426
vn 0 -1 0
vn 0 -1 0
vn 0.1590576 -0.9643555 0.2119141
vn 0.4099121 -0.7573242 0.5083008
vn 0.02641296 -0.9990234 0.03845215
vn 0 -1 0
vn 0 -1 0
vn -0.021698 -0.9648438 -0.2619629
vn -0.2144775 -0.765625 -0.6064453
vn 0.009613037 -0.9985352 -0.05169678
vn 0 -1 0
vn 0 -1 1.120567E-05
vn 0.09130859 -0.9663086 0.241333
vn 0.2230225 -0.7661133 0.6030273
vn 0.01635742 -0.9990234 0.04385376
vn 0 -1 0
vn 0 -1 0
vn -0.08734131 -0.9648438 -0.2469482
vn -0.4099121 -0.7573242 -0.5083008
vn -0.00402832 -0.9990234 -0.04681396
vn 0 -1 1.120567E-05
vn 0 -1 1.102686E-05
vn 0.02534485 -0.9667969 0.2548828
vn 0.05990601 -0.7617188 0.6450195
vn 0.00434494 -0.9990234 0.04452515
vn 0 -1 0
vn 0 -1 -1.114607E-05
vn -0.1590576 -0.9643555 -0.2119141
vn -0.5361328 -0.7490234 -0.3901367
vn -0.01594543 -0.9990234 -0.04507446
vn 0 -1 1.102686E-05
vn 0 -1 0
vn -0.03866577 -0.9614258 0.2722168
vn -0.07092285 -0.7495117 0.6582031
vn -0.009689331 -0.9985352 0.05053711
vn 0 -1 -1.120567E-05
vn 0 -1 -1.114607E-05
vn -0.2200928 -0.9604492 -0.1710205
vn -0.5864258 -0.7607422 -0.2783203
vn -0.02641296 -0.9990234 -0.03845215
vn 0 -1 0
vn 0 -1 0
vn -0.1040039 -0.9643555 0.2436523
vn -0.2353516 -0.7573242 0.609375
vn -0.02009583 -0.9990234 0.04211426
vn 0 -1 0
vn 0 -1 -1.120567E-05
vn -0.2376709 -0.9648438 -0.1121826
vn -0.6323242 -0.765625 -0.1174927
vn -0.03994751 -0.9985352 -0.03417969
vn 0 -1 0
vn 0 -1 0
vn -0.170166 -0.9648438 0.1990967
vn -0.4179688 -0.765625 0.4890137
vn -0.03106689 -0.9990234 0.03634644
vn 0 -1 0
vn 0 -1 0
vn -0.2575684 -0.9648438 -0.04785156
vn -0.6455078 -0.7573242 0.100769
vn -0.0425415 -0.9990234 -0.01991272
vn 0 -1 0
vn 1.055002E-05 -1 0
vn -0.2159424 -0.9648438 0.1497803
vn -0.5341797 -0.7607422 0.3686523
vn -0.03851318 -0.9990234 0.02688599
vn 0 -1 0
vn 0 -1 0
vn -0.2629395 -0.9643555 0.03179932
vn -0.605957 -0.7490234 0.269043
vn -0.2580566 -0.9604492 0.1050415
vn -0.04699707 -0.9990234 -0.008735657
vn 0 -1 0
vn 1.055002E-05 -1 0
vn -0.04650879 -0.9990234 0.003648758
vn 0 -1 0
vn 0 -1 0
vn -0.04956055 -0.9985352 0.01751709
vn 0 -1 0
vn 0 -1 0
vn 0 -1 0
vn 0 -1 0
g Nut_0
f 3/3/3 2/2/2 1/1/1
f 2/2/2 4/4/4 1/1/1
f 2/2/2 5/5/5 4/4/4
f 5/5/5 6/6/6 4/4/4
f 6/6/6 5/5/5 7/7/7
f 5/5/5 8/8/8 7/7/7
f 7/7/7 8/8/8 9/9/9
f 8/8/8 10/10/10 9/9/9
f 10/10/10 11/11/11 9/9/9
f 11/11/11 12/12/12 9/9/9
f 11/11/11 13/13/13 12/12/12
f 13/13/13 14/14/14 12/12/12
f 14/14/14 13/13/13 15/15/15
f 13/13/13 16/16/16 15/15/15
f 15/15/15 16/16/16 17/17/17
f 16/16/16 18/18/18 17/17/17
f 18/18/18 19/19/19 17/17/17
f 19/19/19 20/20/20 17/17/17
f 19/19/19 21/21/21 20/20/20
f 21/21/21 22/22/22 20/20/20
f 22/22/22 21/21/21 23/23/23
f 21/21/21 24/24/24 23/23/23
f 23/23/23 24/24/24 25/25/25
f 24/24/24 26/26/26 25/25/25
f 26/26/26 27/27/27 25/25/25
f 27/27/27 28/28/28 25/25/25
f 27/27/27 29/29/29 28/28/28
f 29/29/29 30/30/30 28/28/28
f 30/30/30 29/29/29 31/31/31
f 29/29/29 32/32/32 31/31/31
f 31/31/31 32/32/32 33/33/33
f 32/32/32 34/34/34 33/33/33
f 34/34/34 35/35/35 33/33/33
f 35/35/35 36/36/36 33/33/33
f 35/35/35 37/37/37 36/36/36
f 37/37/37 38/38/38 36/36/36
f 38/38/38 37/37/37 39/39/39
f 37/37/37 40/40/40 39/39/39
f 39/39/39 40/40/40 41/41/41
f 40/40/40 42/42/42 41/41/41
f 42/42/42 43/43/43 41/41/41
f 43/43/43 44/44/44 41/41/41
f 43/43/43 45/45/45 44/44/44
f 45/45/45 46/46/46 44/44/44
f 46/46/46 45/45/45 47/47/47
f 45/45/45 48/48/48 47/47/47
f 47/47/47 48/48/48 49/49/49
f 48/48/48 50/50/50 49/49/49
f 53/53/53 52/52/52 51/51/51
f 54/54/54 53/53/53 51/51/51
f 57/57/57 56/56/56 55/55/55
f 58/58/58 57/57/57 55/55/55
f 55/55/55 59/59/59 58/58/58
f 59/59/59 60/60/60 58/58/58
f 58/58/58 60/60/60 61/61/61
f 62/62/62 58/58/58 61/61/61
f 63/63/63 62/62/62 61/61/61
f 59/59/59 64/64/64 60/60/60
f 64/64/64 65/65/65 60/60/60
f 66/66/66 64/64/64 59/59/59
f 60/60/60 65/65/65 67/67/67
f 60/60/60 67/67/67 61/61/61
f 65/65/65 68/68/68 67/67/67
f 69/69/69 66/66/66 59/59/59
f 69/69/69 59/59/59 55/55/55
f 70/70/70 66/66/66 69/69/69
f 61/61/61 67/67/67 71/71/71
f 72/72/72 61/61/61 71/71/71
f 73/73/73 72/72/72 71/71/71
f 67/67/67 68/68/68 74/74/74
f 67/67/67 74/74/74 71/71/71
f 68/68/68 75/75/75 74/74/74
f 76/76/76 70/70/70 69/69/69
f 77/77/77 70/70/70 76/76/76
f 78/78/78 69/69/69 55/55/55
f 76/76/76 69/69/69 78/78/78
f 79/79/79 78/78/78 55/55/55
f 80/80/80 79/79/79 55/55/55
f 71/71/71 74/74/74 81/81/81
f 82/82/82 71/71/71 81/81/81
f 83/83/83 82/82/82 81/81/81
f 74/74/74 75/75/75 84/84/84
f 74/74/74 84/84/84 81/81/81
f 75/75/75 85/85/85 84/84/84
f 86/86/86 77/77/77 76/76/76
f 87/87/87 77/77/77 86/86/86
f 88/88/88 76/76/76 78/78/78
f 86/86/86 76/76/76 88/88/88
f 89/89/89 88/88/88 78/78/78
f 90/90/90 89/89/89 78/78/78
f 84/84/84 85/85/85 91/91/91
f 85/85/85 92/92/92 91/91/91
f 81/81/81 84/84/84 93/93/93
f 84/84/84 91/91/91 93/93/93
f 93/93/93 94/94/94 81/81/81
f 94/94/94 95/95/95 81/81/81
f 96/96/96 87/87/87 86/86/86
f 97/97/97 87/87/87 96/96/96
f 98/98/98 86/86/86 88/88/88
f 96/96/96 86/86/86 98/98/98
f 99/99/99 98/98/98 88/88/88
f 100/100/100 99/99/99 88/88/88
f 91/91/91 92/92/92 101/101/101
f 92/92/92 102/102/102 101/101/101
f 93/93/93 91/91/91 103/103/103
f 91/91/91 101/101/101 103/103/103
f 104/104/104 93/93/93 103/103/103
f 105/105/105 104/104/104 103/103/103
f 106/106/106 97/97/97 96/96/96
f 107/107/107 97/97/97 106/106/106
f 108/108/108 107/107/107 106/106/106
f 108/108/108 106/106/106 109/109/109
f 110/110/110 108/108/108 109/109/109
f 101/101/101 102/102/102 111/111/111
f 102/102/102 112/112/112 111/111/111
f 103/103/103 101/101/101 113/113/113
f 101/101/101 114/114/114 113/113/113
f 115/115/115 103/103/103 113/113/113
f 116/116/116 115/115/115 113/113/113
f 111/111/111 112/112/112 117/117/117
f 112/112/112 118/118/118 117/117/117
f 111/111/111 117/117/117 119/119/119
f 120/120/120 111/111/111 119/119/119
f 119/119/119 117/117/117 121/121/121
f 117/117/117 118/118/118 122/122/122
f 117/117/117 122/122/122 121/121/121
f 121/121/121 122/122/122 123/123/123
f 118/118/118 124/124/124 122/122/122
f 122/122/122 125/125/125 123/123/123
f 122/122/122 124/124/124 125/125/125
f 124/124/124 126/126/126 125/125/125
f 129/129/129 128/128/128 127/127/127
f 130/130/130 129/129/129 127/127/127
f 133/133/133 132/132/132 131/131/131
f 134/134/134 133/133/133 131/131/131
f 137/137/137 136/136/136 135/135/135
f 138/138/138 137/137/137 135/135/135
f 141/141/141 140/140/140 139/139/139
f 140/140/140 142/142/142 139/139/139
f 142/142/142 143/143/143 139/139/139
f 143/143/143 144/144/144 139/139/139
f 143/143/143 145/145/145 144/144/144
f 145/145/145 146/146/146 144/144/144
f 139/139/139 144/144/144 147/147/147
f 148/148/148 139/139/139 147/147/147
f 149/149/149 148/148/148 147/147/147
f 144/144/144 146/146/146 150/150/150
f 144/144/144 150/150/150 147/147/147
f 146/146/146 151/151/151 150/150/150
f 150/150/150 151/151/151 152/152/152
f 151/151/151 153/153/153 152/152/152
f 147/147/147 150/150/150 154/154/154
f 150/150/150 152/152/152 154/154/154
f 154/154/154 155/155/155 147/147/147
f 155/155/155 156/156/156 147/147/147
f 152/152/152 153/153/153 157/157/157
f 153/153/153 158/158/158 157/157/157
f 154/154/154 152/152/152 159/159/159
f 152/152/152 157/157/157 159/159/159
f 154/154/154 159/159/159 160/160/160
f 159/159/159 161/161/161 160/160/160
f 157/157/157 158/158/158 162/162/162
f 158/158/158 163/163/163 162/162/162
f 162/162/162 163/163/163 164/164/164
f 163/163/163 165/165/165 164/164/164
f 162/162/162 164/164/164 166/166/166
f 167/167/167 162/162/162 166/166/166
f 164/164/164 165/165/165 168/168/168
f 165/165/165 169/169/169 168/168/168
f 157/157/157 171/171/171 170/170/170
f 172/172/172 157/157/157 170/170/170
f 172/172/172 170/170/170 173/173/173
f 170/170/170 174/174/174 173/173/173
f 177/177/177 176/176/176 175/175/175
f 178/178/178 177/177/177 175/175/175
f 175/175/175 179/179/179 178/178/178
f 179/179/179 180/180/180 178/178/178
f 178/178/178 180/180/180 181/181/181
f 182/182/182 178/178/178 181/181/181
f 183/183/183 182/182/182 181/181/181
f 180/180/180 184/184/184 181/181/181
f 180/180/180 185/185/185 184/184/184
f 185/185/185 186/186/186 184/184/184
f 189/189/189 188/188/188 187/187/187
f 190/190/190 189/189/189 187/187/187
f 193/193/193 192/192/192 191/191/191
f 194/194/194 193/193/193 191/191/191
f 191/191/191 195/195/195 194/194/194
f 195/195/195 96/96/96 194/194/194
f 194/194/194 96/96/96 98/98/98
f 98/98/98 196/196/196 194/194/194
f 196/196/196 197/197/197 194/194/194
f 200/200/200 199/199/199 198/198/198
f 201/201/201 200/200/200 198/198/198
f 201/201/201 198/198/198 202/202/202
f 203/203/203 201/201/201 202/202/202
f 204/204/204 203/203/203 202/202/202
f 205/205/205 204/204/204 202/202/202
f 205/205/205 206/206/206 204/204/204
f 206/206/206 207/207/207 204/204/204
f 206/206/206 208/208/208 207/207/207
f 208/208/208 209/209/209 207/207/207
f 207/207/207 211/211/211 210/210/210
f 211/211/211 212/212/212 210/210/210
f 207/207/207 210/210/210 213/213/213
f 214/214/214 207/207/207 213/213/213
f 213/213/213 215/215/215 214/214/214
f 215/215/215 216/216/216 214/214/214
f 215/215/215 217/217/217 216/216/216
f 217/217/217 218/218/218 216/216/216
f 217/217/217 219/219/219 218/218/218
f 219/219/219 220/220/220 218/218/218
f 223/223/223 222/222/222 221/221/221
f 224/224/224 223/223/223 221/221/221
f 225/225/225 223/223/223 224/224/224
f 224/224/224 221/221/221 226/226/226
f 227/227/227 225/225/225 224/224/224
f 228/228/228 224/224/224 226/226/226
f 227/227/227 224/224/224 228/228/228
f 226/226/226 229/229/229 228/228/228
f 230/230/230 227/227/227 228/228/228
f 229/229/229 231/231/231 228/228/228
f 230/230/230 228/228/228 231/231/231
f 229/229/229 232/232/232 231/231/231
f 232/232/232 233/233/233 231/231/231
f 232/232/232 234/234/234 233/233/233
f 234/234/234 235/235/235 233/233/233
f 231/231/231 233/233/233 236/236/236
f 236/236/236 230/230/230 231/231/231
f 233/233/233 235/235/235 237/237/237
f 233/233/233 237/237/237 236/236/236
f 235/235/235 238/238/238 237/237/237
f 237/237/237 238/238/238 239/239/239
f 238/238/238 240/240/240 239/239/239
f 236/236/236 237/237/237 241/241/241
f 237/237/237 239/239/239 241/241/241
f 242/242/242 230/230/230 236/236/236
f 241/241/241 242/242/242 236/236/236
f 239/239/239 240/240/240 243/243/243
f 240/240/240 244/244/244 243/243/243
f 242/242/242 245/245/245 230/230/230
f 245/245/245 246/246/246 230/230/230
f 245/245/245 247/247/247 246/246/246
f 247/247/247 248/248/248 246/246/246
f 241/241/241 239/239/239 249/249/249
f 239/239/239 243/243/243 249/249/249
f 243/243/243 244/244/244 250/250/250
f 244/244/244 251/251/251 250/250/250
f 252/252/252 242/242/242 241/241/241
f 249/249/249 252/252/252 241/241/241
f 249/249/249 243/243/243 253/253/253
f 243/243/243 250/250/250 253/253/253
f 250/250/250 251/251/251 254/254/254
f 251/251/251 255/255/255 254/254/254
f 252/252/252 256/256/256 242/242/242
f 256/256/256 257/257/257 242/242/242
f 252/252/252 249/249/249 258/258/258
f 249/249/249 253/253/253 258/258/258
f 253/253/253 250/250/250 259/259/259
f 250/250/250 254/254/254 259/259/259
f 254/254/254 255/255/255 260/260/260
f 255/255/255 261/261/261 260/260/260
f 256/256/256 262/262/262 257/257/257
f 262/262/262 263/263/263 257/257/257
f 264/264/264 262/262/262 256/256/256
f 265/265/265 256/256/256 252/252/252
f 265/265/265 264/264/264 256/256/256
f 258/258/258 265/265/265 252/252/252
f 266/266/266 264/264/264 265/265/265
f 267/267/267 266/266/266 265/265/265
f 267/267/267 265/265/265 258/258/258
f 268/268/268 267/267/267 258/258/258
f 268/268/268 258/258/258 253/253/253
f 259/259/259 268/268/268 253/253/253
f 260/260/260 261/261/261 269/269/269
f 261/261/261 270/270/270 269/269/269
f 269/269/269 270/270/270 271/271/271
f 270/270/270 272/272/272 271/271/271
f 271/271/271 272/272/272 273/273/273
f 272/272/272 274/274/274 273/273/273
f 273/273/273 274/274/274 275/275/275
f 274/274/274 276/276/276 275/275/275
f 275/275/275 276/276/276 277/277/277
f 276/276/276 278/278/278 277/277/277
f 277/277/277 278/278/278 279/279/279
f 278/278/278 280/280/280 279/279/279
f 277/277/277 279/279/279 281/281/281
f 275/275/275 277/277/277 282/282/282
f 282/282/282 277/277/277 281/281/281
f 273/273/273 275/275/275 283/283/283
f 283/283/283 275/275/275 282/282/282
f 284/284/284 282/282/282 281/281/281
f 282/282/282 284/284/284 283/283/283
f 285/285/285 284/284/284 281/281/281
f 285/285/285 286/286/286 284/284/284
f 271/271/271 273/273/273 287/287/287
f 287/287/287 273/273/273 283/283/283
f 286/286/286 288/288/288 284/284/284
f 286/286/286 289/289/289 288/288/288
f 289/289/289 290/290/290 288/288/288
f 284/284/284 291/291/291 283/283/283
f 284/284/284 288/288/288 291/291/291
f 288/288/288 290/290/290 292/292/292
f 288/288/288 292/292/292 291/291/291
f 290/290/290 293/293/293 292/292/292
f 283/283/283 291/291/291 294/294/294
f 291/291/291 292/292/292 294/294/294
f 287/287/287 283/283/283 294/294/294
f 292/292/292 293/293/293 295/295/295
f 292/292/292 295/295/295 294/294/294
f 293/293/293 296/296/296 295/295/295
f 297/297/297 271/271/271 287/287/287
f 269/269/269 271/271/271 297/297/297
f 287/287/287 294/294/294 298/298/298
f 294/294/294 295/295/295 298/298/298
f 297/297/297 287/287/287 298/298/298
f 295/295/295 296/296/296 299/299/299
f 295/295/295 299/299/299 298/298/298
f 296/296/296 300/300/300 299/299/299
f 301/301/301 269/269/269 297/297/297
f 260/260/260 269/269/269 301/301/301
f 298/298/298 302/302/302 297/297/297
f 298/298/298 299/299/299 302/302/302
f 302/302/302 301/301/301 297/297/297
f 299/299/299 300/300/300 303/303/303
f 299/299/299 303/303/303 302/302/302
f 300/300/300 304/304/304 303/303/303
f 305/305/305 260/260/260 301/301/301
f 301/301/301 302/302/302 305/305/305
f 254/254/254 260/260/260 305/305/305
f 259/259/259 254/254/254 305/305/305
f 302/302/302 306/306/306 305/305/305
f 305/305/305 306/306/306 259/259/259
f 302/302/302 303/303/303 306/306/306
f 306/306/306 268/268/268 259/259/259
f 303/303/303 304/304/304 307/307/307
f 303/303/303 307/307/307 306/306/306
f 306/306/306 307/307/307 268/268/268
f 304/304/304 308/308/308 307/307/307
f 307/307/307 309/309/309 268/268/268
f 307/307/307 308/308/308 309/309/309
f 308/308/308 310/310/310 309/309/309
f 313/313/313 312/312/312 311/311/311
f 314/314/314 313/313/313 311/311/311
f 315/315/315 313/313/313 314/314/314
f 314/314/314 311/311/311 316/316/316
f 317/317/317 315/315/315 314/314/314
f 318/318/318 314/314/314 316/316/316
f 317/317/317 314/314/314 318/318/318
f 319/319/319 317/317/317 318/318/318
f 318/318/318 316/316/316 320/320/320
f 319/319/319 318/318/318 321/321/321
f 322/322/322 318/318/318 320/320/320
f 318/318/318 322/322/322 321/321/321
f 320/320/320 323/323/323 322/322/322
f 322/322/322 324/324/324 321/321/321
f 323/323/323 324/324/324 322/322/322
f 323/323/323 325/325/325 324/324/324
f 324/324/324 326/326/326 321/321/321
f 325/325/325 327/327/327 324/324/324
f 324/324/324 327/327/327 326/326/326
f 327/327/327 328/328/328 326/326/326
f 331/331/331 330/330/330 329/329/329
f 332/332/332 331/331/331 329/329/329
f 333/333/333 331/331/331 332/332/332
f 334/334/334 333/333/333 332/332/332
f 332/332/332 329/329/329 335/335/335
f 334/334/334 332/332/332 336/336/336
f 336/336/336 332/332/332 335/335/335
f 337/337/337 334/334/334 336/336/336
f 338/338/338 336/336/336 335/335/335
f 337/337/337 336/336/336 338/338/338
f 339/339/339 338/338/338 335/335/335
f 339/339/339 340/340/340 338/338/338
f 340/340/340 341/341/341 338/338/338
f 340/340/340 342/342/342 341/341/341
f 342/342/342 343/343/343 341/341/341
f 338/338/338 341/341/341 344/344/344
f 344/344/344 337/337/337 338/338/338
f 341/341/341 343/343/343 345/345/345
f 341/341/341 345/345/345 344/344/344
f 343/343/343 346/346/346 345/345/345
f 345/345/345 346/346/346 347/347/347
f 346/346/346 348/348/348 347/347/347
f 345/345/345 347/347/347 349/349/349
f 344/344/344 345/345/345 349/349/349
f 349/349/349 350/350/350 344/344/344
f 350/350/350 337/337/337 344/344/344
f 350/350/350 351/351/351 337/337/337
f 351/351/351 352/352/352 337/337/337
f 351/351/351 353/353/353 352/352/352
f 353/353/353 354/354/354 352/352/352
f 357/357/357 356/356/356 355/355/355
f 358/358/358 357/357/357 355/355/355
f 358/358/358 355/355/355 359/359/359
f 360/360/360 358/358/358 359/359/359
f 359/359/359 361/361/361 360/360/360
f 361/361/361 362/362/362 360/360/360
f 361/361/361 363/363/363 362/362/362
f 363/363/363 364/364/364 362/362/362
f 363/363/363 365/365/365 364/364/364
f 365/365/365 366/366/366 364/364/364
f 369/369/369 368/368/368 367/367/367
f 370/370/370 369/369/369 367/367/367
f 370/370/370 367/367/367 371/371/371
f 372/372/372 370/370/370 371/371/371
f 371/371/371 373/373/373 372/372/372
f 373/373/373 374/374/374 372/372/372
f 373/373/373 375/375/375 374/374/374
f 375/375/375 376/376/376 374/374/374
f 375/375/375 377/377/377 376/376/376
f 377/377/377 378/378/378 376/376/376
f 381/381/381 380/380/380 379/379/379
f 382/382/382 381/381/381 379/379/379
f 382/382/382 379/379/379 383/383/383
f 384/384/384 382/382/382 383/383/383
f 383/383/383 385/385/385 384/384/384
f 385/385/385 386/386/386 384/384/384
f 385/385/385 387/387/387 386/386/386
f 387/387/387 388/388/388 386/386/386
f 387/387/387 389/389/389 388/388/388
f 389/389/389 390/390/390 388/388/388
f 393/393/393 392/392/392 391/391/391
f 394/394/394 393/393/393 391/391/391
f 394/394/394 391/391/391 395/395/395
f 396/396/396 394/394/394 395/395/395
f 397/397/397 396/396/396 395/395/395
f 398/398/398 397/397/397 395/395/395
f 398/398/398 399/399/399 397/397/397
f 399/399/399 400/400/400 397/397/397
f 399/399/399 401/401/401 400/400/400
f 401/401/401 402/402/402 400/400/400
f 405/405/405 404/404/404 403/403/403
f 406/406/406 405/405/405 403/403/403
f 409/409/409 408/408/408 407/407/407
f 410/410/410 409/409/409 407/407/407
f 413/413/413 412/412/412 411/411/411
f 414/414/414 413/413/413 411/411/411
f 417/417/417 416/416/416 415/415/415
f 418/418/418 417/417/417 415/415/415
f 421/421/421 420/420/420 419/419/419
f 422/422/422 421/421/421 419/419/419
f 425/425/425 424/424/424 423/423/423
f 426/426/426 425/425/425 423/423/423
f 429/429/429 428/428/428 427/427/427
f 430/430/430 429/429/429 427/427/427
f 433/433/433 432/432/432 431/431/431
f 434/434/434 433/433/433 431/431/431
f 437/437/437 436/436/436 435/435/435
f 438/438/438 437/437/437 435/435/435
f 441/441/441 440/440/440 439/439/439
f 442/442/442 441/441/441 439/439/439
f 445/445/445 444/444/444 443/443/443
f 446/446/446 445/445/445 443/443/443
f 449/449/449 448/448/448 447/447/447
f 450/450/450 449/449/449 447/447/447
f 453/453/453 452/452/452 451/451/451
f 454/454/454 453/453/453 451/451/451
f 457/457/457 456/456/456 455/455/455
f 458/458/458 457/457/457 455/455/455
f 461/461/461 460/460/460 459/459/459
f 462/462/462 461/461/461 459/459/459
f 465/465/465 464/464/464 463/463/463
f 466/466/466 465/465/465 463/463/463
f 469/469/469 468/468/468 467/467/467
f 470/470/470 469/469/469 467/467/467
f 473/473/473 472/472/472 471/471/471
f 474/474/474 473/473/473 471/471/471
f 477/477/477 476/476/476 475/475/475
f 478/478/478 477/477/477 475/475/475
f 481/481/481 480/480/480 479/479/479
f 482/482/482 481/481/481 479/479/479
f 485/485/485 484/484/484 483/483/483
f 486/486/486 485/485/485 483/483/483
f 489/489/489 488/488/488 487/487/487
f 490/490/490 489/489/489 487/487/487
f 493/493/493 492/492/492 491/491/491
f 494/494/494 493/493/493 491/491/491
f 497/497/497 496/496/496 495/495/495
f 498/498/498 497/497/497 495/495/495
f 501/501/501 500/500/500 499/499/499
f 502/502/502 501/501/501 499/499/499
f 505/505/505 504/504/504 503/503/503
f 506/506/506 505/505/505 503/503/503
f 509/509/509 508/508/508 507/507/507
f 510/510/510 509/509/509 507/507/507
f 513/513/513 512/512/512 511/511/511
f 514/514/514 513/513/513 511/511/511
f 517/517/517 516/516/516 515/515/515
f 518/518/518 517/517/517 515/515/515
f 521/521/521 520/520/520 519/519/519
f 522/522/522 521/521/521 519/519/519
f 525/525/525 524/524/524 523/523/523
f 526/526/526 525/525/525 523/523/523
f 529/529/529 528/528/528 527/527/527
f 530/530/530 529/529/529 527/527/527
f 533/533/533 532/532/532 531/531/531
f 534/534/534 533/533/533 531/531/531
f 537/537/537 536/536/536 535/535/535
f 538/538/538 537/537/537 535/535/535
f 541/541/541 540/540/540 539/539/539
f 542/542/542 541/541/541 539/539/539
f 545/545/545 544/544/544 543/543/543
f 546/546/546 545/545/545 543/543/543
f 549/549/549 548/548/548 547/547/547
f 550/550/550 549/549/549 547/547/547
f 553/553/553 552/552/552 551/551/551
f 554/554/554 553/553/553 551/551/551
f 557/557/557 556/556/556 555/555/555
f 558/558/558 557/557/557 555/555/555
f 561/561/561 560/560/560 559/559/559
f 562/562/562 561/561/561 559/559/559
f 565/565/565 564/564/564 563/563/563
f 566/566/566 565/565/565 563/563/563
f 569/569/569 568/568/568 567/567/567
f 570/570/570 569/569/569 567/567/567
f 573/573/573 572/572/572 571/571/571
f 574/574/574 573/573/573 571/571/571
f 577/577/577 576/576/576 575/575/575
f 578/578/578 577/577/577 575/575/575
f 581/581/581 580/580/580 579/579/579
f 582/582/582 581/581/581 579/579/579
f 585/585/585 584/584/584 583/583/583
f 586/586/586 585/585/585 583/583/583
f 589/589/589 588/588/588 587/587/587
f 590/590/590 589/589/589 587/587/587
f 593/593/593 592/592/592 591/591/591
f 594/594/594 593/593/593 591/591/591
f 597/597/597 596/596/596 595/595/595
f 598/598/598 597/597/597 595/595/595
f 598/598/598 599/599/599 597/597/597
f 599/599/599 600/600/600 597/597/597
f 597/597/597 600/600/600 601/601/601
f 597/597/597 601/601/601 602/602/602
f 601/601/601 603/603/603 602/602/602
f 604/604/604 599/599/599 598/598/598
f 605/605/605 604/604/604 598/598/598
f 598/598/598 606/606/606 605/605/605
f 606/606/606 607/607/607 605/605/605
f 599/599/599 608/608/608 600/600/600
f 609/609/609 608/608/608 599/599/599
f 604/604/604 609/609/609 599/599/599
f 608/608/608 610/610/610 600/600/600
f 611/611/611 609/609/609 604/604/604
f 600/600/600 610/610/610 612/612/612
f 600/600/600 612/612/612 601/601/601
f 610/610/610 613/613/613 612/612/612
f 614/614/614 611/611/611 604/604/604
f 614/614/614 604/604/604 605/605/605
f 615/615/615 611/611/611 614/614/614
f 612/612/612 613/613/613 616/616/616
f 613/613/613 617/617/617 616/616/616
f 601/601/601 612/612/612 618/618/618
f 612/612/612 616/616/616 618/618/618
f 618/618/618 619/619/619 601/601/601
f 619/619/619 620/620/620 601/601/601
f 621/621/621 615/615/615 614/614/614
f 622/622/622 615/615/615 621/621/621
f 623/623/623 614/614/614 605/605/605
f 621/621/621 614/614/614 623/623/623
f 623/623/623 605/605/605 624/624/624
f 605/605/605 625/625/625 624/624/624
f 616/616/616 617/617/617 626/626/626
f 617/617/617 627/627/627 626/626/626
f 618/618/618 616/616/616 628/628/628
f 616/616/616 626/626/626 628/628/628
f 628/628/628 629/629/629 618/618/618
f 629/629/629 630/630/630 618/618/618
f 631/631/631 622/622/622 621/621/621
f 632/632/632 622/622/622 631/631/631
f 633/633/633 621/621/621 623/623/623
f 631/631/631 621/621/621 633/633/633
f 623/623/623 634/634/634 633/633/633
f 634/634/634 635/635/635 633/633/633
f 626/626/626 627/627/627 636/636/636
f 627/627/627 637/637/637 636/636/636
f 628/628/628 626/626/626 638/638/638
f 626/626/626 636/636/636 638/638/638
f 638/638/638 639/639/639 628/628/628
f 639/639/639 640/640/640 628/628/628
f 641/641/641 632/632/632 631/631/631
f 642/642/642 632/632/632 641/641/641
f 643/643/643 631/631/631 633/633/633
f 641/641/641 631/631/631 643/643/643
f 633/633/633 644/644/644 643/643/643
f 644/644/644 645/645/645 643/643/643
f 636/636/636 637/637/637 646/646/646
f 637/637/637 647/647/647 646/646/646
f 638/638/638 636/636/636 648/648/648
f 636/636/636 646/646/646 648/648/648
f 648/648/648 649/649/649 638/638/638
f 649/649/649 650/650/650 638/638/638
f 651/651/651 642/642/642 641/641/641
f 652/652/652 642/642/642 651/651/651
f 653/653/653 641/641/641 643/643/643
f 651/651/651 641/641/641 653/653/653
f 643/643/643 654/654/654 653/653/653
f 654/654/654 655/655/655 653/653/653
f 646/646/646 647/647/647 656/656/656
f 647/647/647 657/657/657 656/656/656
f 648/648/648 646/646/646 658/658/658
f 646/646/646 656/656/656 658/658/658
f 648/648/648 658/658/658 659/659/659
f 658/658/658 660/660/660 659/659/659
f 661/661/661 652/652/652 651/651/651
f 662/662/662 652/652/652 661/661/661
f 663/663/663 651/651/651 653/653/653
f 661/661/661 651/651/651 663/663/663
f 653/653/653 664/664/664 663/663/663
f 664/664/664 665/665/665 663/663/663
f 656/656/656 657/657/657 666/666/666
f 657/657/657 667/667/667 666/666/666
f 658/658/658 656/656/656 668/668/668
f 656/656/656 666/666/666 668/668/668
f 668/668/668 669/669/669 658/658/658
f 669/669/669 670/670/670 658/658/658
f 671/671/671 662/662/662 661/661/661
f 672/672/672 662/662/662 671/671/671
f 673/673/673 661/661/661 663/663/663
f 671/671/671 661/661/661 673/673/673
f 663/663/663 674/674/674 673/673/673
f 674/674/674 675/675/675 673/673/673
f 666/666/666 667/667/667 676/676/676
f 667/667/667 677/677/677 676/676/676
f 668/668/668 666/666/666 678/678/678
f 666/666/666 676/676/676 678/678/678
f 678/678/678 679/679/679 668/668/668
f 679/679/679 680/680/680 668/668/668
f 681/681/681 672/672/672 671/671/671
f 682/682/682 672/672/672 681/681/681
f 683/683/683 671/671/671 673/673/673
f 681/681/681 671/671/671 683/683/683
f 673/673/673 684/684/684 683/683/683
f 684/684/684 685/685/685 683/683/683
f 676/676/676 677/677/677 686/686/686
f 677/677/677 687/687/687 686/686/686
f 678/678/678 676/676/676 688/688/688
f 676/676/676 686/686/686 688/688/688
f 688/688/688 689/689/689 678/678/678
f 689/689/689 690/690/690 678/678/678
f 691/691/691 682/682/682 681/681/681
f 692/692/692 682/682/682 691/691/691
f 693/693/693 681/681/681 683/683/683
f 691/691/691 681/681/681 693/693/693
f 683/683/683 694/694/694 693/693/693
f 694/694/694 695/695/695 693/693/693
f 686/686/686 687/687/687 696/696/696
f 687/687/687 697/697/697 696/696/696
f 688/688/688 686/686/686 698/698/698
f 686/686/686 696/696/696 698/698/698
f 688/688/688 698/698/698 699/699/699
f 698/698/698 700/700/700 699/699/699
f 701/701/701 692/692/692 691/691/691
f 702/702/702 692/692/692 701/701/701
f 697/697/697 702/702/702 703/703/703
f 696/696/696 697/697/697 703/703/703
f 703/703/703 702/702/702 701/701/701
f 704/704/704 691/691/691 693/693/693
f 701/701/701 691/691/691 704/704/704
f 704/704/704 693/693/693 705/705/705
f 693/693/693 706/706/706 705/705/705
f 707/707/707 701/701/701 704/704/704
f 703/703/703 701/701/701 707/707/707
f 704/704/704 708/708/708 707/707/707
f 708/708/708 709/709/709 707/707/707
f 696/696/696 703/703/703 710/710/710
f 710/710/710 703/703/703 707/707/707
f 698/698/698 696/696/696 710/710/710
f 707/707/707 711/711/711 710/710/710
f 711/711/711 712/712/712 710/710/710
f 710/710/710 713/713/713 698/698/698
f 713/713/713 714/714/714 698/698/698
