g Palace_Glow
v -0.7602184 2.459564 1.798372
v -0.7878525 4.346938 1.75326
v 0.7737684 4.395143 2.813452
v 0.8014002 2.507767 2.858563
v -2.922818 2.39281 0.3301705
v -2.950452 4.280184 0.2850588
v -1.388832 4.328387 1.345252
v -1.3612 2.441013 1.390362
v -0.7381153 0.9499311 1.834453
v -0.7657495 2.837305 1.789342
v 0.7958703 2.885509 2.849534
v 0.823503 0.998134 2.894643
v -2.901185 0.9152486 0.3654861
v -2.928819 2.802623 0.3203748
v -1.367199 2.850827 1.380567
v -1.339567 0.9634516 1.425677
v -1.187806 6.981597 0.1155364
v -1.201501 8.367973 0.09314071
v 0.3601191 8.416178 1.153334
v 0.374058 6.95192 1.176048
v -1.811135 4.479301 1.040251
v -1.83877 6.366673 0.9951393
v -0.2771497 6.414878 2.055331
v -0.249517 4.527504 2.100442
v 2.26188 3.043533 2.256663
v 2.248173 4.156823 2.220769
v 3.703962 4.205028 3.119204
v 3.717669 3.091737 3.155096
v 2.130116 2.892076 2.491883
v 3.585904 2.940279 3.390316
v 2.061329 2.39082 2.736272
v 3.517118 2.439023 3.634706
v 3.884884 2.996687 3.163676
v 3.825836 4.260546 3.173869
v 4.819998 4.30875 1.781693
v 4.879045 3.04489 1.7715
v 4.142687 2.881144 3.299965
v 5.136847 2.929347 1.90779
v 4.222364 2.494543 3.389858
v 5.216523 2.542745 1.997684
v 0.6122046 6.960664 1.258927
v 0.5644345 8.402173 1.272363
v 1.925062 8.456324 -0.5652627
v 1.97283 7.014814 -0.5786961
v 0.9246054 6.788405 1.473347
v 2.285231 6.842557 -0.3642772
v 0.9544225 6.218671 1.67421
v 2.315045 6.272821 -0.1634124
v 2.891172 6.15885 -0.7266029
v 3.175798 6.107647 -1.065755
v 4.50205 6.146303 -0.1142619
v 4.217425 6.197506 0.2248909
v 3.175798 6.107647 -1.065755
v 3.165695 7.490188 -1.099709
v 4.491948 7.528844 -0.1482147
v 4.50205 6.146303 -0.1142619
v -1.906447 6.15885 -3.89664
v -1.621821 6.107647 -4.235793
v -0.2955709 6.146303 -3.284298
v -0.5801961 6.197506 -2.945146
v -1.38225 6.895272 0.3722197
v -1.187806 6.981597 0.1155364
v 0.374058 6.95192 1.176048
v 0.179491 6.904534 1.432572
v -1.460868 6.472443 0.486778
v 0.10075 6.520645 1.546969
v -4.368871 3.055157 -2.209557
v -4.369752 4.156823 -2.237387
v -2.9588 4.205028 -1.270058
v -2.958252 3.10336 -1.241743
v -4.543054 2.903699 -1.947206
v -3.11517 2.951902 -1.005054
v -4.665997 2.39082 -1.760907
v -3.233271 2.439022 -0.8261334
v 2.754972 5.66039 -0.5388277
v 2.891172 6.15885 -0.7266029
v 4.217425 6.197506 0.2248909
v 4.081223 5.699045 0.4126647
v 4.72884 6.175079 0.1448753
v 4.368582 6.123876 -0.1125195
v 5.214068 6.162533 -1.508741
v 5.574327 6.213736 -1.251349
v 4.368582 6.123876 -0.1125195
v 4.335517 7.506416 -0.09980378
v 5.181005 7.545074 -1.496028
v 5.214068 6.162533 -1.508741
v 4.926639 5.676619 0.2660615
v 4.72884 6.175079 0.1448753
v 5.574327 6.213736 -1.251349
v 5.772123 5.715275 -1.130161
v -1.621821 6.107647 -4.235793
v -1.631925 7.490187 -4.269747
v -0.3056726 7.528844 -3.318253
v -0.2955709 6.146303 -3.284298
v -2.042649 5.660389 -3.708863
v -1.906447 6.15885 -3.89664
v -0.5801961 6.197506 -2.945146
v -0.7163968 5.699045 -2.757373
vt 0.9726563 0.9726563
vt 0.9726563 0.02749634
vt 0.02749634 0.02749634
vt 0.02749634 0.9726563
vt 0.9726563 0.9726563
vt 0.9726563 0.02749634
vt 0.02749634 0.02749634
vt 0.02749634 0.9726563
vt 0.9726563 0.9726563
vt 0.9726563 0.02749634
vt 0.02749634 0.02749634
vt 0.02749634 0.9726563
vt 0.9726563 0.9726563
vt 0.9726563 0.02749634
vt 0.02749634 0.02749634
vt 0.02749634 0.9726563
vt 0.9726563 0.5
vt 0.9726563 0.02749634
vt 0.02749634 0.02749634
vt 0.02749634 0.5
vt 0.9726563 0.9726563
vt 0.9726563 0.02749634
vt 0.02749634 0.02749634
vt 0.02749634 0.9726563
vt 0.9726563 0.5361328
vt 0.9726563 0.02749634
vt 0.02749634 0.02749634
vt 0.02783203 0.5776367
vt 0.9726563 0.7436523
vt 0.02760315 0.7485352
vt 0.9726563 0.9726563
vt 0.02749634 0.9726563
vt 0.9726563 0.5361328
vt 0.9726563 0.02749634
vt 0.02749634 0.02749634
vt 0.02783203 0.5776367
vt 0.9726563 0.7436523
vt 0.02760315 0.7485352
vt 0.9726563 0.9726563
vt 0.02749634 0.9726563
vt 0.9726563 0.5
vt 0.9726563 0.02749634
vt 0.02749634 0.02749634
vt 0.02749634 0.5
vt 0.9726563 0.7363281
vt 0.02749634 0.7363281
vt 0.9726563 0.9726563
vt 0.02749634 0.9726563
vt 0.9726563 0.7363281
vt 0.9726563 0.5
vt 0.02749634 0.5
vt 0.02749634 0.7363281
vt 0.9726563 0.5
vt 0.9726563 0.02749634
vt 0.02749634 0.02749634
vt 0.02749634 0.5
vt 0.9726563 0.7363281
vt 0.9726563 0.5
vt 0.02749634 0.5
vt 0.02749634 0.7363281
vt 0.9726563 0.7363281
vt 0.9726563 0.5
vt 0.02749634 0.5
vt 0.02749634 0.7363281
vt 0.9726563 0.9726563
vt 0.02749634 0.9726563
vt 0.9726563 0.5361328
vt 0.9726563 0.02749634
vt 0.02749634 0.02749634
vt 0.02783203 0.5776367
vt 0.9726563 0.7436523
vt 0.02760315 0.7485352
vt 0.9726563 0.9726563
vt 0.02749634 0.9726563
vt 0.9726563 0.9726563
vt 0.9726563 0.7363281
vt 0.02749634 0.7363281
vt 0.02749634 0.9726563
vt 0.9726563 0.7363281
vt 0.9726563 0.5
vt 0.02749634 0.5
vt 0.02749634 0.7363281
vt 0.9726563 0.5
vt 0.9726563 0.02749634
vt 0.02749634 0.02749634
vt 0.02749634 0.5
vt 0.9726563 0.9726563
vt 0.9726563 0.7363281
vt 0.02749634 0.7363281
vt 0.02749634 0.9726563
vt 0.9726563 0.5
vt 0.9726563 0.02749634
vt 0.02749634 0.02749634
vt 0.02749634 0.5
vt 0.9726563 0.9726563
vt 0.9726563 0.7363281
vt 0.02749634 0.7363281
vt 0.02749634 0.9726563
vn -0.5620117 0.01154327 0.8271484
vn -0.5620117 0.01154327 0.8271484
vn -0.5620117 0.01154327 0.8271484
vn -0.5620117 0.01154327 0.8271484
vn -0.5620117 0.01154327 0.8271484
vn -0.5620117 0.01154327 0.8271484
vn -0.5620117 0.01154327 0.8271484
vn -0.5620117 0.01154327 0.8271484
vn -0.5620117 0.01154327 0.8271484
vn -0.5620117 0.01154327 0.8271484
vn -0.5620117 0.01154327 0.8271484
vn -0.5620117 0.01154327 0.8271484
vn -0.5620117 0.01154327 0.8271484
vn -0.5620117 0.01154327 0.8271484
vn -0.5620117 0.01154327 0.8271484
vn -0.5620117 0.01154327 0.8271484
vn -0.5615234 0.007644653 0.8271484
vn -0.5615234 0.007644653 0.8271484
vn -0.5615234 0.007644653 0.8271484
vn -0.5615234 0.007644653 0.8271484
vn -0.5620117 0.01154327 0.8271484
vn -0.5620117 0.01154327 0.8271484
vn -0.5620117 0.01154327 0.8271484
vn -0.5620117 0.01154327 0.8271484
vn -0.4638672 0.5097656 0.7246094
vn -0.5253906 0.02095032 0.8505859
vn -0.5253906 0.02095032 0.8505859
vn -0.4619141 0.5170898 0.7207031
vn -0.3947754 0.6938477 0.6020508
vn -0.4030762 0.6762695 0.6166992
vn -0.4829102 0.4365234 0.7592773
vn -0.4829102 0.4365234 0.7592773
vn 0.6694336 0.5517578 0.4973145
vn 0.8129883 0.03329468 0.581543
vn 0.8129883 0.03329468 0.581543
vn 0.6459961 0.5922852 0.4816895
vn 0.5878906 0.6767578 0.4431152
vn 0.5913086 0.6723633 0.4455566
vn 0.7739258 0.2902832 0.5625
vn 0.7739258 0.2902832 0.5625
vn 0.6660156 0.5454102 0.5092773
vn 0.8032227 0.02107239 0.5952148
vn 0.8032227 0.02107239 0.5952148
vn 0.6611328 0.5541992 0.5058594
vn 0.625 0.6147461 0.480957
vn 0.5859375 0.6713867 0.4538574
vn 0.7753906 0.2456055 0.581543
vn 0.7753906 0.2456055 0.581543
vn 0.04907227 0.9926758 -0.1087036
vn 0.04907227 0.9926758 -0.1087036
vn 0.04907227 0.9926758 -0.1087036
vn 0.04907227 0.9926758 -0.1087036
vn -0.5830078 0.01568604 0.8120117
vn -0.5830078 0.01568604 0.8120117
vn -0.5830078 0.01568604 0.8120117
vn -0.5830078 0.01568604 0.8120117
vn 0.04907227 0.9926758 -0.1087036
vn 0.04907227 0.9926758 -0.1087036
vn 0.04907227 0.9926758 -0.1087036
vn 0.04907227 0.9926758 -0.1087036
vn -0.3757324 0.7431641 0.5537109
vn -0.1101074 0.9790039 0.1716309
vn -0.1101074 0.9790039 0.1716309
vn -0.3664551 0.7573242 0.5405273
vn -0.5351563 0.3256836 0.7792969
vn -0.5351563 0.3256836 0.7792969
vn -0.4885254 0.5341797 0.6899414
vn -0.565918 0.02062988 0.8242188
vn -0.565918 0.02062988 0.8242188
vn -0.4899902 0.5302734 0.6918945
vn -0.4204102 0.6801758 0.6005859
vn -0.4169922 0.6870117 0.5952148
vn -0.5136719 0.392334 0.7626953
vn -0.5136719 0.392334 0.7626953
vn -0.5366211 0.421875 0.730957
vn -0.5366211 0.421875 0.730957
vn -0.5366211 0.421875 0.730957
vn -0.5366211 0.421875 0.730957
vn -0.1121826 0.9926758 -0.04046631
vn -0.1121826 0.9926758 -0.04046631
vn -0.1121826 0.9926758 -0.04046631
vn -0.1121826 0.9926758 -0.04046631
vn 0.8549805 0.01568604 0.5180664
vn 0.8549805 0.01568604 0.5180664
vn 0.8549805 0.01568604 0.5180664
vn 0.8549805 0.01568604 0.5180664
vn 0.7705078 0.421875 0.4780273
vn 0.7705078 0.421875 0.4780273
vn 0.7705078 0.421875 0.4780273
vn 0.7705078 0.421875 0.4780273
vn -0.5830078 0.01568604 0.8120117
vn -0.5830078 0.01568604 0.8120117
vn -0.5830078 0.01568604 0.8120117
vn -0.5830078 0.01568604 0.8120117
vn -0.5366211 0.421875 0.730957
vn -0.5366211 0.421875 0.730957
vn -0.5366211 0.421875 0.730957
vn -0.5366211 0.421875 0.730957
g Palace_Glow_0
f 3/3/3 2/2/2 1/1/1
f 4/4/4 3/3/3 1/1/1
f 7/7/7 6/6/6 5/5/5
f 8/8/8 7/7/7 5/5/5
f 11/11/11 10/10/10 9/9/9
f 12/12/12 11/11/11 9/9/9
f 15/15/15 14/14/14 13/13/13
f 16/16/16 15/15/15 13/13/13
f 19/19/19 18/18/18 17/17/17
f 20/20/20 19/19/19 17/17/17
f 23/23/23 22/22/22 21/21/21
f 24/24/24 23/23/23 21/21/21
f 27/27/27 26/26/26 25/25/25
f 28/28/28 27/27/27 25/25/25
f 28/28/28 25/25/25 29/29/29
f 30/30/30 28/28/28 29/29/29
f 30/30/30 29/29/29 31/31/31
f 32/32/32 30/30/30 31/31/31
f 35/35/35 34/34/34 33/33/33
f 36/36/36 35/35/35 33/33/33
f 36/36/36 33/33/33 37/37/37
f 38/38/38 36/36/36 37/37/37
f 38/38/38 37/37/37 39/39/39
f 40/40/40 38/38/38 39/39/39
f 43/43/43 42/42/42 41/41/41
f 44/44/44 43/43/43 41/41/41
f 44/44/44 41/41/41 45/45/45
f 46/46/46 44/44/44 45/45/45
f 46/46/46 45/45/45 47/47/47
f 48/48/48 46/46/46 47/47/47
f 51/51/51 50/50/50 49/49/49
f 52/52/52 51/51/51 49/49/49
f 55/55/55 54/54/54 53/53/53
f 56/56/56 55/55/55 53/53/53
f 59/59/59 58/58/58 57/57/57
f 60/60/60 59/59/59 57/57/57
f 63/63/63 62/62/62 61/61/61
f 64/64/64 63/63/63 61/61/61
f 64/64/64 61/61/61 65/65/65
f 66/66/66 64/64/64 65/65/65
f 69/69/69 68/68/68 67/67/67
f 70/70/70 69/69/69 67/67/67
f 70/70/70 67/67/67 71/71/71
f 72/72/72 70/70/70 71/71/71
f 72/72/72 71/71/71 73/73/73
f 74/74/74 72/72/72 73/73/73
f 77/77/77 76/76/76 75/75/75
f 78/78/78 77/77/77 75/75/75
f 81/81/81 80/80/80 79/79/79
f 82/82/82 81/81/81 79/79/79
f 85/85/85 84/84/84 83/83/83
f 86/86/86 85/85/85 83/83/83
f 89/89/89 88/88/88 87/87/87
f 90/90/90 89/89/89 87/87/87
f 93/93/93 92/92/92 91/91/91
f 94/94/94 93/93/93 91/91/91
f 97/97/97 96/96/96 95/95/95
f 98/98/98 97/97/97 95/95/95
