g Pin
v -0.06187814 0.01978765 0.00818628
v -0.04825479 -0.03061846 -0.03527893
v -0.04995015 0.005938029 -0.04126465
v -0.0618594 -0.01484462 0.02144087
v -0.08399731 0.04490816 0.06174257
v -0.08551394 0.01202421 0.07881369
v -0.1159547 0.07689074 0.1155057
v -0.1183334 0.04488276 0.1340774
v -0.1568038 0.1102439 0.1680436
v -0.1587891 0.07794043 0.1861439
v -0.2053083 0.138609 0.2202568
v -0.2047747 0.1048843 0.2356658
v -0.2601014 0.1543643 0.2755013
v -0.2539894 0.1191192 0.2852738
v -0.3187548 0.1476341 0.3391697
v -0.3047245 0.1133281 0.3403234
v -0.2338456 0.09717165 0.3073558
v -0.2785522 0.09212591 0.3558334
v -0.1881074 0.08385588 0.2612605
v -0.1428707 0.05730535 0.2125234
v -0.1014663 0.023452 0.1592031
v -0.06681871 -0.01124667 0.1008144
v -0.2073643 0.09690488 0.3333124
v -0.250235 0.09212591 0.3797752
v -0.230589 0.1133281 0.4030041
v -0.1616729 0.0835558 0.2872643
v -0.115129 0.05622049 0.2371059
v -0.07179606 0.02078432 0.1812857
v -0.1846606 0.1184208 0.3532293
v -0.1355681 0.1040987 0.3037449
v -0.1744063 0.153501 0.3594988
v -0.2271184 0.1476341 0.4166473
v -0.1197642 0.1376379 0.3044071
v -0.06702971 0.1067332 0.2475941
v -0.0861603 0.07510028 0.2505017
v -0.0199399 0.06825797 0.1869664
v -0.04065576 0.03789867 0.1918903
v 0.0188002 0.02947505 0.1216967
v -0.002349019 -0.000461446 0.1273176
v 0.04735813 -0.002957185 0.05234639
v -0.03505254 -0.01601576 0.1193413
v 0.02651456 -0.03324555 0.05716716
v 0.06447038 -0.02276909 -0.019268
v -0.007229686 -0.04762094 0.05171272
v -0.04098552 -0.04059239 0.0380665
v 0.01000324 -0.06756514 -0.02058123
v -0.02535465 -0.05869415 -0.02737856
v 0.04431334 -0.05384298 -0.01748326
v 0.01457059 -0.06750643 -0.09641837
v -0.0213297 -0.05874854 -0.09332872
v -0.04498249 -0.0308727 -0.08711897
v -0.05205956 -0.01115462 -0.1286743
v 0.06882259 -0.02286765 -0.09015936
v 0.06277505 0.01378736 -0.02525373
v 0.06645188 0.01347852 -0.08320143
v 0.05909529 0.03403145 -0.1269986
v 0.05820557 0.006718338 -0.152064
v 0.04900572 -0.05380115 -0.0952078
v 0.002078235 -0.03275514 -0.1683933
v 0.03642699 -0.01879188 -0.1678754
v 0.03433809 0.06815767 -0.1837067
v 0.007859974 0.05475437 -0.2059405
v -0.03172064 -0.02983796 -0.1534198
v -0.02675974 0.04149189 -0.2067516
v -0.05629754 0.03343606 -0.1858303
v -0.09032076 0.166092 -0.1877785
v -0.04409835 0.1817262 -0.1869154
v -0.1253665 0.1449912 -0.1611657
v -0.06947097 0.03366391 -0.1511679
v -0.05116981 0.01615849 -0.1036089
v -0.06124821 0.04208842 -0.1160041
v -0.1358494 0.1264837 -0.1172423
v -0.2291556 0.214206 -0.1220225
v -0.2278969 0.1838588 -0.05802551
v -0.1177651 0.1176387 -0.0727854
v -0.03477013 0.0554917 -0.09377038
v -0.19557 0.1843434 0.005005243
v -0.07802144 0.1218347 -0.04477613
v -0.1445227 0.2154746 0.0429942
v -0.03179898 0.1374689 -0.04391301
v -0.09425328 0.2653614 0.04143086
v 0.003246795 0.1585697 -0.07052578
v -0.06396308 0.3149486 0.0009123797
v -0.3152842 0.1819399 0.3528129
v -0.3187548 0.1476341 0.3391697
v -0.2601014 0.1543643 0.2755013
v -0.2498472 0.1894445 0.2817707
v -0.2053083 0.138609 0.2202568
v -0.2956382 0.2031422 0.3760417
v -0.1895044 0.1721482 0.2209189
v -0.1568038 0.1102439 0.1680436
v -0.2271435 0.2109604 0.3016877
v -0.1376733 0.1418768 0.1651359
v -0.1159547 0.07689074 0.1155057
v -0.2006622 0.2106936 0.3276443
v -0.267321 0.2031422 0.3999836
v -0.2411487 0.18194 0.4154935
v -0.1633997 0.1926911 0.2373995
v -0.09523886 0.10725 0.1105818
v -0.08399731 0.04490816 0.06174257
v -0.1805184 0.1887461 0.3497262
v -0.2271184 0.1476341 0.4166473
v -0.1744063 0.153501 0.3594988
v -0.1369651 0.192391 0.2634034
v -0.1202978 0.1713625 0.2889979
v -0.1197642 0.1376379 0.3044071
v -0.1087046 0.1607566 0.1785317
v -0.08096284 0.1596718 0.2031142
v -0.06504446 0.1390367 0.2294936
v -0.06702971 0.1067332 0.2475941
v -0.03442833 0.1216967 0.143269
v -0.01756123 0.100266 0.1683947
v -0.0199399 0.06825797 0.1869664
v -0.06409857 0.1243644 0.1211864
v 0.001621604 0.08562986 0.0826248
v 0.02031684 0.06235899 0.1046256
v 0.0188002 0.02947505 0.1216967
v -0.06284812 0.07484461 0.05612165
v -0.06187814 0.01978765 0.00818628
v -0.03014457 0.09039894 0.06409796
v -0.04103467 0.05007599 0.003365514
v -0.04995015 0.005938029 -0.04126465
v 0.02646551 0.05742285 0.02246617
v 0.04733935 0.03167508 0.0390918
v 0.04735813 -0.002957185 0.05234639
v 0.06447038 -0.02276909 -0.019268
v 0.06277505 0.01378736 -0.02525373
v -0.007290393 0.06445139 0.008819941
v 0.03987488 0.04186308 -0.0331541
v -0.02979314 0.03701187 -0.0430494
v 0.004516989 0.05073405 -0.03995143
v 0.04279914 0.04135438 -0.07699169
v 0.06645188 0.01347852 -0.08320143
v 0.03875634 0.05271481 -0.1022531
v 0.05909529 0.03403145 -0.1269986
v 0.00689882 0.05011225 -0.07390204
v -0.0275363 0.03640695 -0.07511263
v -0.04735317 0.005473468 -0.08016103
v -0.02939126 0.04166869 -0.08779749
v -0.04498249 -0.0308727 -0.08711897
v -0.04825479 -0.03061846 -0.03527893
v -0.05205956 -0.01115462 -0.1286743
v -0.05116981 0.01615849 -0.1036089
v 0.004957497 0.05563197 -0.08727963
v -0.03477013 0.0554917 -0.09377038
v -0.06124821 0.04208842 -0.1160041
v -0.0001503825 0.06875418 -0.09295923
v -0.07802144 0.1218347 -0.04477613
v -0.03179898 0.1374689 -0.04391301
v 0.02938744 0.07681003 -0.1138805
v 0.003246795 0.1585697 -0.07052578
v 0.04256085 0.07658218 -0.148543
v 0.05820557 0.006718338 -0.152064
v 0.03433809 0.06815767 -0.1837067
v 0.01372956 0.1770773 -0.1144493
v -0.06396308 0.3149486 0.0009123797
v -0.06522177 0.3452957 -0.06308458
v -0.004354652 0.1859223 -0.1589062
v 0.007859974 0.05475437 -0.2059405
v -0.09754867 0.3448111 -0.1261153
v -0.04409835 0.1817262 -0.1869154
v -0.148596 0.3136799 -0.1641043
v -0.09032076 0.166092 -0.1877785
v -0.1988654 0.2637932 -0.162541
v -0.1253665 0.1449912 -0.1611657
v -0.2291556 0.214206 -0.1220225
v -0.2891374 0.09844809 0.536703
v -0.2570592 0.07888718 0.5107646
v -0.2655608 0.072782 0.5071739
v -0.2792283 0.1030209 0.5385306
v -0.3042258 0.1372643 0.5554706
v -0.2307418 0.07129139 0.4776805
v -0.2375723 0.06470392 0.4719891
v -0.2934158 0.1395196 0.5561777
v -0.3082168 0.1825189 0.5602316
v -0.2048266 0.0815469 0.444999
v -0.2100116 0.07561061 0.4372325
v -0.2971685 0.1820723 0.5606545
v -0.3004204 0.226387 0.5501627
v -0.1837945 0.1078805 0.4183709
v -0.1876441 0.1036162 0.4089137
v -0.2898376 0.2233213 0.5511869
v -0.2821848 0.2612834 0.5270051
v -0.1712822 0.1457387 0.4024006
v -0.1743373 0.1438783 0.3919293
v -0.2726907 0.2561343 0.5294118
v -0.256663 0.2811742 0.4947627
v -0.1694531 0.1885757 0.3998494
v -0.1723921 0.1894352 0.389216
v -0.2486926 0.2748376 0.4990945
v -0.2282678 0.2826201 0.4590108
v -0.1786236 0.2289844 0.4111584
v -0.1821449 0.2324097 0.4012432
v -0.2219928 0.2761971 0.465477
v -0.2019093 0.2653711 0.425931
v -0.197208 0.2599779 0.4343722
v -0.2742921 0.215874 0.5457122
v -0.2597736 0.2436571 0.5272751
v -0.2394542 0.2594933 0.5016052
v -0.2168472 0.2606445 0.4731409
v -0.1958617 0.2469115 0.4468042
v -0.1801261 0.2206691 0.4271488
v -0.1723613 0.1864546 0.4175733
v -0.2804992 0.1809481 0.5537287
v -0.17391 0.1501841 0.4197335
v -0.2773217 0.1449183 0.5499382
v -0.1845043 0.1181291 0.4332557
v -0.265309 0.1140145 0.5349962
v -0.2023124 0.09583226 0.455802
v -0.2465383 0.09358024 0.5114864
v -0.2242551 0.08714881 0.4834738
v -0.3153681 0.07678193 0.5458701
v -0.2751549 0.05141718 0.5111536
v -0.2848037 0.04350886 0.507589
v -0.3038945 0.0827037 0.5471492
v -0.3349284 0.1271026 0.5702
v -0.2410374 0.04157012 0.468264
v -0.2485199 0.03303656 0.461976
v -0.3222869 0.1300201 0.5700265
v -0.3401023 0.1857699 0.5763721
v -0.2074413 0.0548652 0.4258961
v -0.2127907 0.04717582 0.4169181
v -0.3271519 0.1851847 0.57583
v -0.3299952 0.2426399 0.563319
v -0.1801757 0.08900359 0.391376
v -0.1837938 0.08348181 0.380206
v -0.3176483 0.2386593 0.5635564
v -0.3063548 0.287879 0.5332978
v -0.1639549 0.1380824 0.3706723
v -0.1665431 0.1356769 0.3581877
v -0.2954193 0.2811975 0.5353276
v -0.2732687 0.3136651 0.4914994
v -0.1615838 0.1936156 0.3673649
v -0.1640214 0.1947361 0.3546704
v -0.2643086 0.305444 0.4960247
v -0.2364578 0.3155396 0.4451512
v -0.1734723 0.2460008 0.3820257
v -0.1766647 0.2504475 0.3702621
v -0.2296954 0.3072065 0.4524436
v -0.202287 0.2931782 0.402267
v -0.1975648 0.2861803 0.4121198
v -0.3031882 0.2289784 0.5519367
v -0.2843667 0.2649959 0.5280352
v -0.2580249 0.2855258 0.494757
v -0.2287176 0.2870181 0.4578565
v -0.2015122 0.269215 0.423714
v -0.1811129 0.2351946 0.398233
v -0.1710468 0.1908395 0.3858196
v -0.311235 0.183701 0.5623291
v -0.1730544 0.1438191 0.3886199
v -0.3071157 0.1369925 0.5574151
v -0.1867887 0.1022635 0.4061499
v -0.2915427 0.09692935 0.5380446
v -0.2098748 0.0733582 0.4353785
v -0.2672085 0.07043874 0.5075669
v -0.238321 0.06210113 0.4712518
v -0.2655608 0.072782 0.5071739
v -0.2375723 0.06470392 0.4719891
v -0.3485687 0.06419168 0.3838124
v -0.3765572 0.07226977 0.4189971
v -0.2891374 0.09844809 0.536703
v -0.321008 0.07509838 0.3490557
v -0.2100116 0.07561061 0.4372325
v -0.4001338 0.09793586 0.4485262
v -0.3042258 0.1372643 0.5554706
v -0.2986405 0.103104 0.3207369
v -0.1876441 0.1036162 0.4089137
v -0.4152221 0.136752 0.4672938
v -0.3082168 0.1825189 0.5602316
v -0.2853337 0.1433661 0.3037525
v -0.1743373 0.1438783 0.3919293
v -0.4192132 0.1820066 0.4720548
v -0.3004204 0.226387 0.5501627
v -0.2833885 0.1889229 0.3010393
v -0.1723921 0.1894352 0.389216
v -0.4114168 0.2258748 0.461986
v -0.2821848 0.2612834 0.5270051
v -0.2931413 0.2318974 0.3130664
v -0.1821449 0.2324097 0.4012432
v -0.3931812 0.2607712 0.4388283
v -0.256663 0.2811742 0.4947627
v -0.3129057 0.2648589 0.3377543
v -0.2019093 0.2653711 0.425931
v -0.3676593 0.280662 0.406586
v -0.2282678 0.2826201 0.4590108
v -0.3392642 0.2821079 0.3708341
v -0.4147905 0.2227447 0.451923
v -0.3976435 0.2555577 0.4301479
v -0.3736454 0.2742609 0.3998306
v -0.3469456 0.2756205 0.3662131
v -0.3221608 0.2594013 0.3351084
v -0.3035764 0.2284078 0.3118945
v -0.4221213 0.1814957 0.4613906
v -0.2944059 0.1879991 0.3005854
v -0.4183685 0.138943 0.4569139
v -0.2962349 0.1451621 0.3031367
v -0.4041811 0.1024443 0.4392668
v -0.3087473 0.1073038 0.3191071
v -0.382012 0.07831054 0.4115008
v -0.3297794 0.08097026 0.3457351
v -0.3556946 0.07071476 0.3784167
v -0.3125493 0.1495443 0.3095969
v -0.3231436 0.1174893 0.3231191
v -0.3409517 0.09519246 0.3456653
v -0.3628944 0.086509 0.3733371
v -0.3851776 0.09294043 0.4013498
v -0.4039484 0.1133747 0.4248596
v -0.4159611 0.1442785 0.4398015
v -0.4191385 0.1803083 0.443592
v -0.3110007 0.1858148 0.3074367
v -0.4129314 0.2152343 0.4355756
v -0.3187654 0.2200293 0.3170122
v -0.398413 0.2430173 0.4171385
v -0.334501 0.2462718 0.3366676
v -0.3780936 0.2588535 0.3914686
v -0.3554866 0.2600047 0.3630043
v -0.2848037 0.04350886 0.507589
v -0.2485199 0.03303656 0.461976
v -0.3356743 0.03263434 0.3927396
v -0.3719581 0.04310664 0.4383526
v -0.3153681 0.07678193 0.5458701
v -0.2999451 0.0467736 0.3476817
v -0.2127907 0.04717582 0.4169181
v -0.4025225 0.07637975 0.4766337
v -0.3349284 0.1271026 0.5702
v -0.2709482 0.08307959 0.3109697
v -0.1837938 0.08348181 0.380206
v -0.4220828 0.1267004 0.5009636
v -0.3401023 0.1857699 0.5763721
v -0.2536975 0.1352747 0.2889513
v -0.1665431 0.1356769 0.3581877
v -0.4272566 0.1853677 0.5071357
v -0.3299952 0.2426399 0.563319
v -0.2511758 0.1943339 0.285434
v -0.1640214 0.1947361 0.3546704
v -0.4171496 0.2422376 0.4940826
v -0.3063548 0.287879 0.5332978
v -0.2638191 0.2500454 0.3010257
v -0.1766647 0.2504475 0.3702621
v -0.3935092 0.2874768 0.4640614
v -0.2732687 0.3136651 0.4914994
v -0.2894413 0.292776 0.3330306
v -0.202287 0.2931782 0.402267
v -0.3604231 0.3132629 0.422263
v -0.2364578 0.3155396 0.4451512
v -0.3236122 0.3151374 0.3759147
v -0.4201506 0.2381862 0.4821274
v -0.3979217 0.2807244 0.4538986
v -0.3668109 0.304971 0.4145957
v -0.3321978 0.3067335 0.3710146
v -0.3000671 0.2857073 0.3306908
v -0.2759746 0.2455278 0.3005968
v -0.4296542 0.1847117 0.4944011
v -0.2640861 0.1931425 0.2859359
v -0.4247892 0.129547 0.4885975
v -0.2664572 0.1376094 0.2892433
v -0.4063968 0.08223068 0.4657202
v -0.282678 0.08853056 0.309947
v -0.3776572 0.05094416 0.4297247
v -0.3099437 0.05439218 0.3444672
v -0.3435397 0.0410971 0.386835
v -0.2819141 0.1433167 0.3021406
v -0.2956484 0.1017611 0.3196706
v -0.3187345 0.07285585 0.3488992
v -0.3471806 0.06159877 0.3847725
v -0.3760682 0.06993636 0.4210875
v -0.4004023 0.09642699 0.4515653
v -0.4159754 0.1364902 0.4709358
v -0.4200946 0.1831987 0.4758498
v -0.2799065 0.1903372 0.2993402
v -0.4120478 0.2284761 0.4654575
v -0.2899725 0.2346922 0.3117537
v -0.3932263 0.2644936 0.4415559
v -0.3103718 0.2687126 0.3372346
v -0.3668846 0.2850234 0.4082777
v -0.3375772 0.2865157 0.3713771
vt 0.3408203 0.9169922
vt 0.3422852 0.9130859
vt 0.3430176 0.9121094
vt 0.3398438 0.9189453
vt 0.3395996 0.9228516
vt 0.3383789 0.9248047
vt 0.3395996 0.9287109
vt 0.3383789 0.9311523
vt 0.3405762 0.9355469
vt 0.3393555 0.9379883
vt 0.3422852 0.9428711
vt 0.3410645 0.9448242
vt 0.3447266 0.9511719
vt 0.3432617 0.9521484
vt 0.3469238 0.9604492
vt 0.3449707 0.9599609
vt 0.3391113 0.953125
vt 0.3408203 0.9599609
vt 0.3371582 0.9462891
vt 0.3354492 0.9394531
vt 0.3347168 0.9326172
vt 0.3347168 0.9257813
vt 0.3342285 0.9541016
vt 0.3356934 0.9609375
vt 0.3317871 0.9614258
vt 0.3322754 0.9472656
vt 0.3305664 0.9399414
vt 0.3295898 0.9331055
vt 0.3303223 0.9541016
vt 0.328125 0.9467773
vt 0.3286133 0.9541016
vt 0.3305664 0.9624023
vt 0.326416 0.9458008
vt 0.3244629 0.9375
vt 0.326416 0.9394531
vt 0.3234863 0.9296875
vt 0.3254395 0.9321289
vt 0.3237305 0.9223633
vt 0.3256836 0.9243164
vt 0.3254395 0.9150391
vt 0.329834 0.9257813
vt 0.3273926 0.9169922
vt 0.3286133 0.9082031
vt 0.331543 0.9189453
vt 0.3361816 0.9194336
vt 0.3347168 0.9121094
vt 0.3391113 0.9130859
vt 0.3308105 0.9101563
vt 0.3393555 0.9047852
vt 0.3432617 0.9072266
vt 0.345459 0.9082031
vt 0.3493652 0.9047852
vt 0.333252 0.9013672
vt 0.3293457 0.9067383
vt 0.3330078 0.9013672
vt 0.3369141 0.8974609
vt 0.3388672 0.8959961
vt 0.3356934 0.902832
vt 0.3459473 0.8984375
vt 0.3422852 0.8964844
vt 0.3439941 0.8930664
vt 0.3483887 0.8930664
vt 0.3486328 0.9018555
vt 0.3522949 0.8950195
vt 0.3540039 0.8989258
vt 0.355957 0.8959961
vt 0.3520508 0.8935547
vt 0.3574219 0.8999023
vt 0.3530273 0.902832
vt 0.3476563 0.90625
vt 0.3496094 0.9052734
vt 0.355957 0.9038086
vt 0.3583984 0.9033203
vt 0.3566895 0.9067383
vt 0.3518066 0.90625
vt 0.3452148 0.9057617
vt 0.3525391 0.9086914
vt 0.3469238 0.90625
vt 0.3474121 0.9086914
vt 0.3427734 0.9038086
vt 0.3432617 0.9067383
vt 0.3413086 0.9003906
vt 0.3417969 0.902832
vt 0.3457031 0.9614258
vt 0.3469238 0.9604492
vt 0.3447266 0.9511719
vt 0.3432617 0.9506836
vt 0.3422852 0.9428711
vt 0.3417969 0.9624023
vt 0.3405762 0.9414063
vt 0.3405762 0.9355469
vt 0.3391113 0.9511719
vt 0.338623 0.9335938
vt 0.3395996 0.9287109
vt 0.3342285 0.9521484
vt 0.3366699 0.9628906
vt 0.3322754 0.9628906
vt 0.3364258 0.9414063
vt 0.3376465 0.9267578
vt 0.3395996 0.9228516
vt 0.3300781 0.953125
vt 0.3305664 0.9624023
vt 0.3286133 0.9541016
vt 0.331543 0.9423828
vt 0.3276367 0.9438477
vt 0.326416 0.9458008
vt 0.3344727 0.9331055
vt 0.3293457 0.9335938
vt 0.3254395 0.9355469
vt 0.3244629 0.9375
vt 0.3283691 0.9257813
vt 0.3244629 0.9277344
vt 0.3234863 0.9296875
vt 0.333252 0.9257813
vt 0.3286133 0.9189453
vt 0.3249512 0.9204102
vt 0.3237305 0.9223633
vt 0.3376465 0.9204102
vt 0.3408203 0.9169922
vt 0.3334961 0.9189453
vt 0.3388672 0.9145508
vt 0.3430176 0.9121094
vt 0.3300781 0.9125977
vt 0.326416 0.9130859
vt 0.3254395 0.9150391
vt 0.3286133 0.9082031
vt 0.3293457 0.9067383
vt 0.3347168 0.9130859
vt 0.3325195 0.9072266
vt 0.3410645 0.9101563
vt 0.3369141 0.9082031
vt 0.3352051 0.902832
vt 0.3330078 0.9013672
vt 0.3376465 0.9003906
vt 0.3369141 0.8974609
vt 0.3391113 0.9052734
vt 0.3430176 0.9072266
vt 0.345459 0.9086914
vt 0.3442383 0.90625
vt 0.345459 0.9082031
vt 0.3422852 0.9130859
vt 0.3493652 0.9047852
vt 0.3476563 0.90625
vt 0.340332 0.9038086
vt 0.3452148 0.9057617
vt 0.3496094 0.9052734
vt 0.3413086 0.9033203
vt 0.3469238 0.90625
vt 0.3427734 0.9038086
vt 0.3395996 0.8994141
vt 0.3413086 0.9003906
vt 0.3405762 0.8955078
vt 0.3388672 0.8959961
vt 0.3439941 0.8930664
vt 0.3430176 0.8964844
vt 0.3417969 0.902832
vt 0.3435059 0.8994141
vt 0.3469238 0.894043
vt 0.3483887 0.8930664
vt 0.3476563 0.8969727
vt 0.3520508 0.8935547
vt 0.3527832 0.8969727
vt 0.355957 0.8959961
vt 0.3569336 0.8994141
vt 0.3574219 0.8999023
vt 0.3583984 0.9033203
vt 0.361084 0.902832
vt 0.3571777 0.9047852
vt 0.3574219 0.9052734
vt 0.3605957 0.9023438
vt 0.3632813 0.8994141
vt 0.3530273 0.9057617
vt 0.3530273 0.90625
vt 0.362793 0.8989258
vt 0.3640137 0.8950195
vt 0.348877 0.9047852
vt 0.3486328 0.9052734
vt 0.3632813 0.8950195
vt 0.362793 0.890625
vt 0.3457031 0.9018555
vt 0.3452148 0.9023438
vt 0.3620605 0.890625
vt 0.3598633 0.887207
vt 0.34375 0.8984375
vt 0.3430176 0.8984375
vt 0.359375 0.8876953
vt 0.355957 0.8852539
vt 0.3432617 0.894043
vt 0.3427734 0.894043
vt 0.3557129 0.8857422
vt 0.3515625 0.8852539
vt 0.3447266 0.8901367
vt 0.3442383 0.8901367
vt 0.3515625 0.8857422
vt 0.3474121 0.8867188
vt 0.3476563 0.887207
vt 0.3608398 0.8916016
vt 0.3583984 0.8886719
vt 0.3552246 0.887207
vt 0.3518066 0.887207
vt 0.3483887 0.8886719
vt 0.3459473 0.8911133
vt 0.3447266 0.8945313
vt 0.3618164 0.8950195
vt 0.3449707 0.8979492
vt 0.3613281 0.8984375
vt 0.3466797 0.9008789
vt 0.359375 0.9013672
vt 0.3496094 0.9033203
vt 0.3564453 0.9033203
vt 0.3530273 0.9042969
vt 0.3093262 0.953125
vt 0.3134766 0.9511719
vt 0.3132324 0.9506836
vt 0.3098145 0.9536133
vt 0.3066406 0.9575195
vt 0.3181152 0.9501953
vt 0.3181152 0.949707
vt 0.307373 0.9575195
vt 0.3061523 0.9624023
vt 0.3225098 0.9516602
vt 0.3227539 0.9506836
vt 0.3068848 0.9624023
vt 0.307373 0.9667969
vt 0.3261719 0.9541016
vt 0.3266602 0.9541016
vt 0.3081055 0.9667969
vt 0.3105469 0.9707031
vt 0.3283691 0.9584961
vt 0.3288574 0.9580078
vt 0.3110352 0.9702148
vt 0.3149414 0.9726563
vt 0.3286133 0.9628906
vt 0.3291016 0.9628906
vt 0.3151855 0.972168
vt 0.3198242 0.9726563
vt 0.3269043 0.9672852
vt 0.3276367 0.9677734
vt 0.3195801 0.972168
vt 0.3242188 0.9711914
vt 0.3239746 0.9707031
vt 0.3095703 0.9658203
vt 0.3120117 0.96875
vt 0.3154297 0.9707031
vt 0.3193359 0.9707031
vt 0.322998 0.9692383
vt 0.3256836 0.9663086
vt 0.3269043 0.9628906
vt 0.3083496 0.9619141
vt 0.3266602 0.9589844
vt 0.3088379 0.9584961
vt 0.3249512 0.9555664
vt 0.3110352 0.9550781
vt 0.3217773 0.953125
vt 0.314209 0.9526367
vt 0.3181152 0.9521484
vt 0.3574219 0.9052734
vt 0.3530273 0.90625
vt 0.3535156 0.9057617
vt 0.3574219 0.9047852
vt 0.361084 0.902832
vt 0.3493652 0.9047852
vt 0.3486328 0.9052734
vt 0.3608398 0.902832
vt 0.3632813 0.8994141
vt 0.3461914 0.9023438
vt 0.3452148 0.9023438
vt 0.3630371 0.8989258
vt 0.3640137 0.8950195
vt 0.3442383 0.8984375
vt 0.3430176 0.8984375
vt 0.3635254 0.8950195
vt 0.362793 0.890625
vt 0.3439941 0.8945313
vt 0.3427734 0.894043
vt 0.3625488 0.8911133
vt 0.3598633 0.887207
vt 0.345459 0.890625
vt 0.3442383 0.8901367
vt 0.3598633 0.8881836
vt 0.355957 0.8852539
vt 0.3483887 0.8876953
vt 0.3474121 0.8867188
vt 0.3562012 0.8862305
vt 0.3515625 0.8852539
vt 0.3520508 0.8862305
vt 0.3620605 0.8916016
vt 0.359375 0.8886719
vt 0.355957 0.8867188
vt 0.3522949 0.8867188
vt 0.3486328 0.8881836
vt 0.3459473 0.8911133
vt 0.3630371 0.8950195
vt 0.3447266 0.8945313
vt 0.3625488 0.8989258
vt 0.3449707 0.8984375
vt 0.3605957 0.9023438
vt 0.3466797 0.9018555
vt 0.3574219 0.9042969
vt 0.3498535 0.9042969
vt 0.3535156 0.9047852
vt 0.3464355 0.8979492
vt 0.3479004 0.9008789
vt 0.3503418 0.902832
vt 0.3535156 0.9038086
vt 0.3566895 0.902832
vt 0.359375 0.9013672
vt 0.361084 0.8984375
vt 0.3615723 0.8950195
vt 0.3461914 0.8945313
vt 0.3605957 0.8920898
vt 0.347168 0.8916016
vt 0.3586426 0.8896484
vt 0.3496094 0.8891602
vt 0.3557129 0.8881836
vt 0.3525391 0.8881836
vt 0.3132324 0.9506836
vt 0.3181152 0.949707
vt 0.317627 0.9501953
vt 0.3132324 0.9511719
vt 0.3093262 0.953125
vt 0.3222656 0.9511719
vt 0.3227539 0.9506836
vt 0.3095703 0.9536133
vt 0.3066406 0.9575195
vt 0.3256836 0.9541016
vt 0.3266602 0.9541016
vt 0.3071289 0.9575195
vt 0.3061523 0.9624023
vt 0.3278809 0.9580078
vt 0.3288574 0.9580078
vt 0.3063965 0.9619141
vt 0.307373 0.9667969
vt 0.328125 0.9628906
vt 0.3291016 0.9628906
vt 0.3078613 0.9663086
vt 0.3105469 0.9707031
vt 0.3266602 0.9672852
vt 0.3276367 0.9677734
vt 0.310791 0.9697266
vt 0.3149414 0.9726563
vt 0.3234863 0.9702148
vt 0.3242188 0.9711914
vt 0.3146973 0.9716797
vt 0.3198242 0.9726563
vt 0.3193359 0.972168
vt 0.3083496 0.9663086
vt 0.3110352 0.9692383
vt 0.3149414 0.9711914
vt 0.3190918 0.9711914
vt 0.322998 0.9697266
vt 0.3259277 0.9667969
vt 0.3071289 0.9619141
vt 0.3273926 0.9628906
vt 0.3076172 0.9580078
vt 0.3271484 0.9584961
vt 0.3100586 0.9541016
vt 0.3251953 0.9545898
vt 0.3134766 0.9516602
vt 0.3217773 0.9521484
vt 0.317627 0.9511719
vt 0.3256836 0.9589844
vt 0.3239746 0.9555664
vt 0.3210449 0.9536133
vt 0.317627 0.9526367
vt 0.3139648 0.953125
vt 0.3110352 0.9550781
vt 0.309082 0.9584961
vt 0.3085938 0.9619141
vt 0.3259277 0.9624023
vt 0.3098145 0.965332
vt 0.324707 0.9658203
vt 0.3120117 0.9682617
vt 0.3222656 0.9682617
vt 0.3151855 0.9697266
vt 0.3188477 0.9697266
vn -0.9145508 0.1806641 -0.3620605
vn -0.9135742 -0.3981934 -0.08239746
vn -0.9594727 0.2207031 -0.1765137
vn -0.9033203 -0.4050293 -0.1418457
vn -0.859375 0.1262207 -0.4956055
vn -0.8779297 -0.4299316 -0.2106934
vn -0.8017578 0.07537842 -0.5932617
vn -0.8374023 -0.4665527 -0.284668
vn -0.7490234 0.03982544 -0.6611328
vn -0.7802734 -0.5083008 -0.364502
vn -0.715332 0.02798462 -0.6982422
vn -0.7060547 -0.5444336 -0.4526367
vn -0.7211914 0.03518677 -0.6918945
vn -0.6230469 -0.5595703 -0.546875
vn -0.7368164 0.04043579 -0.6748047
vn -0.5795898 -0.559082 -0.5927734
vn -0.2783203 -0.9428711 -0.1842041
vn -0.1918945 -0.9418945 -0.2749023
vn -0.420166 -0.9072266 -0.0272522
vn -0.5073242 -0.8583984 0.07519531
vn -0.5478516 -0.8256836 0.1334229
vn -0.5566406 -0.8164063 0.1534424
vn 0.1799316 -0.9501953 0.255127
vn 0.2714844 -0.9501953 0.1525879
vn 0.6274414 -0.5800781 0.5195313
vn 0.0317688 -0.9121094 0.4091797
vn -0.03756714 -0.8740234 0.4841309
vn -0.04931641 -0.8657227 0.4978027
vn 0.5649414 -0.5766602 0.590332
vn 0.4692383 -0.5595703 0.6831055
vn 0.7231445 0.0191803 0.6904297
vn 0.7338867 0.02186584 0.6791992
vn 0.722168 0.005893707 0.6918945
vn 0.7539063 -0.02398682 0.65625
vn 0.4440918 -0.5532227 0.7045898
vn 0.8027344 -0.07250977 0.5917969
vn 0.4650879 -0.5771484 0.6713867
vn 0.8569336 -0.1342773 0.4975586
vn 0.5112305 -0.628418 0.5864258
vn 0.9086914 -0.2016602 0.3654785
vn -0.02615356 -0.8896484 0.4562988
vn 0.5668945 -0.6977539 0.4379883
vn 0.949707 -0.2607422 0.1745605
vn 0.0163269 -0.9370117 0.3491211
vn -0.5439453 -0.8291016 0.1296387
vn 0.06335449 -0.987793 0.1417236
vn -0.5180664 -0.8544922 0.03805542
vn 0.6176758 -0.7626953 0.1932373
vn 0.07940674 -0.9716797 -0.2236328
vn -0.5009766 -0.8486328 -0.1688232
vn -0.909668 -0.4118652 -0.05114746
vn -0.9086914 -0.4121094 -0.06671143
vn 0.9580078 -0.2661133 -0.1083984
vn 0.9350586 0.3430176 0.09082031
vn 0.9453125 0.3256836 0.02471924
vn 0.9438477 0.3291016 -0.02815247
vn 0.8945313 -0.1116943 -0.4328613
vn 0.6279297 -0.7519531 -0.2008057
vn -0.01144409 -0.7246094 -0.6889648
vn 0.5322266 -0.5068359 -0.6782227
vn 0.7734375 0.1960449 -0.6030273
vn 0.347168 -0.01980591 -0.9375
vn -0.5546875 -0.6918945 -0.4626465
vn -0.1879883 -0.2451172 -0.9511719
vn -0.6479492 -0.409668 -0.6420898
vn -0.28125 -0.02938843 -0.9589844
vn 0.2315674 0.284668 -0.9301758
vn -0.6445313 -0.4072266 -0.6469727
vn -0.8740234 -0.4741211 -0.1068726
vn -0.9296875 0.0289917 0.3671875
vn -0.7592773 -0.4223633 0.4953613
vn -0.7055664 -0.7001953 -0.107605
vn -0.5913086 -0.5356445 -0.6030273
vn -0.5766602 -0.8134766 -0.07598877
vn -0.4467773 -0.7822266 0.4345703
vn -0.2883301 -0.2438965 0.9257813
vn -0.3112793 -0.8432617 0.4384766
vn 0.00636673 -0.6328125 0.7744141
vn 0.1220703 -0.6240234 0.7719727
vn 0.4926758 -0.3166504 0.8105469
vn 0.5795898 -0.2353516 0.7802734
vn 0.8530273 0.06164551 0.5180664
vn 0.875 0.1674805 0.4545898
vn -0.612793 0.6118164 -0.5
vn -0.7368164 0.04043579 -0.6748047
vn -0.7211914 0.03518677 -0.6918945
vn -0.5473633 0.6083984 -0.574707
vn -0.715332 0.02798462 -0.6982422
vn -0.2705078 0.9511719 -0.149292
vn -0.451416 0.5844727 -0.6743164
vn -0.7490234 0.03982544 -0.6611328
vn -0.1741943 0.953125 -0.2478027
vn -0.4287109 0.5698242 -0.7011719
vn -0.8017578 0.07537842 -0.5932617
vn 0.2614746 0.9501953 0.1689453
vn 0.166748 0.953125 0.2531738
vn 0.5512695 0.6079102 0.5712891
vn -0.02072144 0.9169922 -0.3981934
vn -0.4536133 0.5874023 -0.6704102
vn -0.859375 0.1262207 -0.4956055
vn 0.6035156 0.5991211 0.5263672
vn 0.7338867 0.02186584 0.6791992
vn 0.7231445 0.0191803 0.6904297
vn 0.4160156 0.9091797 0.02441406
vn 0.6992188 0.5644531 0.4389648
vn 0.722168 0.005893707 0.6918945
vn 0.0531311 0.8793945 -0.4731445
vn 0.5126953 0.855957 -0.06829834
vn 0.7792969 0.512207 0.3613281
vn 0.7539063 -0.02398682 0.65625
vn 0.5610352 0.8193359 -0.1203613
vn 0.8393555 0.4589844 0.2907715
vn 0.8027344 -0.07250977 0.5917969
vn 0.0680542 0.8701172 -0.487793
vn 0.5776367 0.8046875 -0.1374512
vn 0.8837891 0.4111328 0.2231445
vn 0.8569336 -0.1342773 0.4975586
vn -0.5039063 0.6337891 -0.5869141
vn -0.9145508 0.1806641 -0.3620605
vn 0.04769897 0.8925781 -0.4482422
vn -0.5644531 0.6977539 -0.440918
vn -0.9594727 0.2207031 -0.1765137
vn 0.574707 0.8105469 -0.1142578
vn 0.9150391 0.3723145 0.1567383
vn 0.9086914 -0.2016602 0.3654785
vn 0.949707 -0.2607422 0.1745605
vn 0.9350586 0.3430176 0.09082031
vn 0.008720398 0.9384766 -0.3447266
vn 0.5639648 0.8251953 -0.03186035
vn -0.6210938 0.7568359 -0.2043457
vn -0.03329468 0.9882813 -0.1478271
vn 0.5683594 0.8100586 0.144043
vn 0.9453125 0.3256836 0.02471924
vn 0.6391602 0.6577148 0.3989258
vn 0.9438477 0.3291016 -0.02815247
vn -0.04638672 0.9804688 0.1923828
vn -0.6450195 0.7456055 0.1685791
vn -0.9765625 0.1999512 0.08209229
vn -0.5698242 0.4768066 0.6694336
vn -0.909668 -0.4118652 -0.05114746
vn -0.9135742 -0.3981934 -0.08239746
vn -0.9086914 -0.4121094 -0.06671143
vn -0.9296875 0.0289917 0.3671875
vn 0.05847168 0.7294922 0.6816406
vn -0.2883301 -0.2438965 0.9257813
vn -0.7592773 -0.4223633 0.4953613
vn 0.3339844 0.03381348 0.9418945
vn 0.00636673 -0.6328125 0.7744141
vn 0.4926758 -0.3166504 0.8105469
vn 0.7988281 0.269043 0.5375977
vn 0.8530273 0.06164551 0.5180664
vn 0.9462891 0.3186035 -0.05444336
vn 0.8945313 -0.1116943 -0.4328613
vn 0.7734375 0.1960449 -0.6030273
vn 0.9360352 0.3508301 -0.01786804
vn 0.875 0.1674805 0.4545898
vn 0.8959961 0.4389648 -0.0647583
vn 0.6962891 0.4299316 -0.574707
vn 0.347168 -0.01980591 -0.9375
vn 0.6376953 0.4931641 -0.5917969
vn 0.2315674 0.284668 -0.9301758
vn 0.1765137 0.2971191 -0.9384766
vn -0.28125 -0.02938843 -0.9589844
vn -0.3076172 -0.1014404 -0.9462891
vn -0.6445313 -0.4072266 -0.6469727
vn -0.5913086 -0.5356445 -0.6030273
vn -0.1911621 -0.6591797 0.7270508
vn 0.4206543 -0.6225586 0.659668
vn 0.01360321 -0.8823242 0.4707031
vn 0.2758789 -0.4648438 0.8413086
vn -0.3220215 -0.3222656 0.8901367
vn 0.5927734 -0.6723633 0.4436035
vn 0.2565918 -0.9521484 0.1652832
vn 0.1831055 -0.2261963 0.956543
vn -0.3566895 0.07073975 0.9316406
vn 0.762207 -0.6049805 0.2299805
vn 0.4958496 -0.8574219 -0.1364746
vn 0.1585693 0.05194092 0.9858398
vn -0.2890625 0.4516602 0.8442383
vn 0.8994141 -0.4331055 0.05593872
vn 0.6899414 -0.6142578 -0.3823242
vn 0.206543 0.3215332 0.9243164
vn -0.1307373 0.7543945 0.6430664
vn 0.9814453 -0.1855469 -0.0484314
vn 0.8056641 -0.2648926 -0.5297852
vn 0.3186035 0.5361328 0.7817383
vn 0.09088135 0.9272461 0.3630371
vn 0.9931641 0.09448242 -0.06512451
vn 0.8227539 0.1307373 -0.5532227
vn 0.4753418 0.6582031 0.5834961
vn 0.3374023 0.9399414 0.0526123
vn 0.9335938 0.3586426 0.008811951
vn 0.737793 0.5039063 -0.4489746
vn 0.6499023 0.6669922 0.3637695
vn 0.5664063 0.7900391 -0.2346191
vn 0.8120117 0.5610352 0.1605225
vn 0.5976563 0.1357422 0.7900391
vn 0.644043 0.2248535 0.730957
vn 0.7094727 0.2756348 0.6489258
vn 0.7817383 0.2792969 0.5576172
vn 0.8491211 0.2352295 0.4733887
vn 0.8994141 0.151123 0.4104004
vn 0.9243164 0.04156494 0.3796387
vn 0.5776367 0.02392578 0.815918
vn 0.9194336 -0.074646 0.3867188
vn 0.5878906 -0.0914917 0.8037109
vn 0.8852539 -0.1773682 0.4299316
vn 0.6264648 -0.1905518 0.7558594
vn 0.828125 -0.2487793 0.5019531
vn 0.6865234 -0.2558594 0.6806641
vn 0.7578125 -0.2766113 0.5908203
vn -0.1583252 -0.6508789 0.7421875
vn 0.5390625 -0.4902344 0.6850586
vn 0.04382324 -0.8710938 0.4892578
vn 0.4245605 -0.3657227 0.828125
vn -0.2878418 -0.3181152 0.9033203
vn 0.6748047 -0.5292969 0.5141602
vn 0.2839355 -0.9404297 0.1873779
vn 0.3513184 -0.1774902 0.9194336
vn -0.3220215 0.07000732 0.9443359
vn 0.8081055 -0.4765625 0.3457031
vn 0.5200195 -0.8466797 -0.1106567
vn 0.3320313 0.04196167 0.9423828
vn -0.255127 0.4462891 0.8579102
vn 0.9169922 -0.3408203 0.2084961
vn 0.7119141 -0.6064453 -0.3535156
vn 0.369873 0.2546387 0.8935547
vn -0.09875488 0.7456055 0.6591797
vn 0.9814453 -0.1455078 0.1260986
vn 0.8261719 -0.2614746 -0.4992676
vn 0.458252 0.4240723 0.78125
vn 0.1201172 0.9160156 0.3828125
vn 0.9907227 0.07550049 0.112915
vn 0.8427734 0.1292725 -0.5224609
vn 0.5820313 0.5205078 0.625
vn 0.3635254 0.9282227 0.07611084
vn 0.9433594 0.2839355 0.1712646
vn 0.7592773 0.4978027 -0.4191895
vn 0.7197266 0.5273438 0.451416
vn 0.5898438 0.7802734 -0.2075195
vn 0.8476563 0.4438477 0.2910156
vn 0.7177734 0.05569458 0.6943359
vn 0.7358398 0.09075928 0.6708984
vn 0.7617188 0.1107178 0.6386719
vn 0.7900391 0.1121826 0.6025391
vn 0.8164063 0.09484863 0.5693359
vn 0.8364258 0.06173706 0.5449219
vn 0.8461914 0.01858521 0.5327148
vn 0.7099609 0.01164246 0.7045898
vn 0.8442383 -0.02716064 0.5351563
vn 0.7138672 -0.03381348 0.699707
vn 0.8310547 -0.06756592 0.5522461
vn 0.7290039 -0.07275391 0.6806641
vn 0.8085938 -0.09570313 0.5810547
vn 0.7524414 -0.09857178 0.6508789
vn 0.7807617 -0.1066895 0.6157227
vn 0.01360321 -0.8823242 0.4707031
vn 0.2565918 -0.9521484 0.1652832
vn -0.213623 -0.9545898 -0.208252
vn -0.4567871 -0.8842773 0.097229
vn -0.1911621 -0.6591797 0.7270508
vn 0.02563477 -0.8598633 -0.5102539
vn 0.4958496 -0.8574219 -0.1364746
vn -0.6616211 -0.6616211 0.3535156
vn -0.3220215 -0.3222656 0.8901367
vn 0.2198486 -0.6166992 -0.7558594
vn 0.6899414 -0.6142578 -0.3823242
vn -0.7924805 -0.3244629 0.5166016
vn -0.3566895 0.07073975 0.9316406
vn 0.3354492 -0.2670898 -0.9033203
vn 0.8056641 -0.2648926 -0.5297852
vn -0.8271484 0.06854248 0.5581055
vn -0.2890625 0.4516602 0.8442383
vn 0.3522949 0.12854 -0.9272461
vn 0.8227539 0.1307373 -0.5532227
vn -0.7592773 0.4494629 0.470459
vn -0.1307373 0.7543945 0.6430664
vn 0.2675781 0.5019531 -0.8227539
vn 0.737793 0.5039063 -0.4489746
vn -0.6010742 0.7524414 0.2692871
vn 0.09088135 0.9272461 0.3630371
vn 0.0960083 0.7880859 -0.6083984
vn 0.5664063 0.7900391 -0.2346191
vn -0.3793945 0.925293 -0.01055908
vn 0.3374023 0.9399414 0.0526123
vn -0.1329346 0.9375 -0.3210449
vn -0.9487305 0.3161621 0.006408691
vn -0.8364258 0.5307617 -0.1358643
vn -0.6796875 0.652832 -0.3339844
vn -0.5053711 0.6616211 -0.5537109
vn -0.3432617 0.5556641 -0.7573242
vn -0.2216797 0.3532715 -0.9086914
vn -0.996582 0.04663086 0.06829834
vn -0.1617432 0.08911133 -0.9829102
vn -0.972168 -0.2315674 0.03903198
vn -0.1737061 -0.190918 -0.9663086
vn -0.8793945 -0.4699707 -0.07629395
vn -0.2556152 -0.4382324 -0.8618164
vn -0.734375 -0.6279297 -0.2578125
vn -0.3930664 -0.6103516 -0.6875
vn -0.5625 -0.6772461 -0.4741211
vn -0.5839844 -0.08154297 -0.8076172
vn -0.6181641 -0.1842041 -0.7641602
vn -0.6748047 -0.2556152 -0.6918945
vn -0.7451172 -0.2834473 -0.6035156
vn -0.8168945 -0.2629395 -0.5136719
vn -0.8769531 -0.1973877 -0.4384766
vn -0.9155273 -0.09844971 -0.390625
vn -0.925293 0.01698303 -0.378418
vn -0.5791016 0.03460693 -0.8144531
vn -0.9057617 0.1289063 -0.4040527
vn -0.6040039 0.144165 -0.7836914
vn -0.8588867 0.2178955 -0.4631348
vn -0.6542969 0.2282715 -0.7207031
vn -0.7939453 0.2685547 -0.5454102
vn -0.7216797 0.2722168 -0.6367188
vn 0.04382324 -0.8710938 0.4892578
vn 0.2839355 -0.9404297 0.1873779
vn -0.2414551 -0.9428711 -0.2298584
vn -0.4814453 -0.8735352 0.07183838
vn -0.1583252 -0.6508789 0.7421875
vn -0.005069733 -0.8491211 -0.527832
vn 0.5200195 -0.8466797 -0.1106567
vn -0.6835938 -0.6533203 0.3251953
vn -0.2878418 -0.3181152 0.9033203
vn 0.1867676 -0.6088867 -0.7709961
vn 0.7119141 -0.6064453 -0.3535156
vn -0.8129883 -0.3205566 0.486084
vn -0.3220215 0.07000732 0.9443359
vn 0.3007813 -0.263916 -0.9165039
vn 0.8261719 -0.2614746 -0.4992676
vn -0.847168 0.06756592 0.5268555
vn -0.255127 0.4462891 0.8579102
vn 0.317627 0.1268311 -0.9399414
vn 0.8427734 0.1292725 -0.5224609
vn -0.7802734 0.4438477 0.4404297
vn -0.09875488 0.7456055 0.6591797
vn 0.2338867 0.4953613 -0.8364258
vn 0.7592773 0.4978027 -0.4191895
vn -0.6240234 0.7431641 0.2419434
vn 0.1201172 0.9160156 0.3828125
vn 0.06439209 0.777832 -0.625
vn 0.5898438 0.7802734 -0.2075195
vn -0.4050293 0.9135742 -0.03457642
vn 0.3635254 0.9282227 0.07611084
vn -0.1616211 0.9257813 -0.3410645
vn -0.9555664 0.2486572 -0.1593018
vn -0.8671875 0.4179688 -0.2714844
vn -0.7431641 0.5141602 -0.4279785
vn -0.6054688 0.5214844 -0.6015625
vn -0.4775391 0.4377441 -0.7617188
vn -0.3818359 0.277832 -0.8813477
vn -0.9931641 0.03582764 -0.1104126
vn -0.3344727 0.06939697 -0.9399414
vn -0.9741211 -0.1837158 -0.1335449
vn -0.3439941 -0.1516113 -0.9267578
vn -0.9008789 -0.3718262 -0.2244873
vn -0.4084473 -0.3469238 -0.8442383
vn -0.7861328 -0.4963379 -0.3676758
vn -0.5170898 -0.482666 -0.7070313
vn -0.6503906 -0.5356445 -0.5385742
vn -0.7124023 -0.03433228 -0.7011719
vn -0.7255859 -0.07476807 -0.684082
vn -0.7480469 -0.1029053 -0.6557617
vn -0.7758789 -0.1138306 -0.6206055
vn -0.8037109 -0.1057129 -0.5854492
vn -0.8276367 -0.07995605 -0.5556641
vn -0.8427734 -0.04098511 -0.5371094
vn -0.8466797 0.004459381 -0.5322266
vn -0.7104492 0.01140594 -0.7036133
vn -0.8388672 0.04852295 -0.5419922
vn -0.7202148 0.05456543 -0.6918945
vn -0.8203125 0.08355713 -0.5654297
vn -0.7397461 0.08764648 -0.6669922
vn -0.7949219 0.1035156 -0.5976563
vn -0.7666016 0.1049805 -0.6337891
g Pin_0
f 3/3/3 2/2/2 1/1/1
f 2/2/2 4/4/4 1/1/1
f 1/1/1 4/4/4 5/5/5
f 4/4/4 6/6/6 5/5/5
f 5/5/5 6/6/6 7/7/7
f 6/6/6 8/8/8 7/7/7
f 7/7/7 8/8/8 9/9/9
f 8/8/8 10/10/10 9/9/9
f 9/9/9 10/10/10 11/11/11
f 10/10/10 12/12/12 11/11/11
f 11/11/11 12/12/12 13/13/13
f 12/12/12 14/14/14 13/13/13
f 13/13/13 14/14/14 15/15/15
f 14/14/14 16/16/16 15/15/15
f 14/14/14 17/17/17 16/16/16
f 17/17/17 18/18/18 16/16/16
f 12/12/12 19/19/19 14/14/14
f 19/19/19 17/17/17 14/14/14
f 10/10/10 20/20/20 12/12/12
f 20/20/20 19/19/19 12/12/12
f 8/8/8 21/21/21 10/10/10
f 21/21/21 20/20/20 10/10/10
f 6/6/6 22/22/22 8/8/8
f 22/22/22 21/21/21 8/8/8
f 17/17/17 23/23/23 18/18/18
f 23/23/23 24/24/24 18/18/18
f 24/24/24 23/23/23 25/25/25
f 19/19/19 26/26/26 17/17/17
f 26/26/26 23/23/23 17/17/17
f 20/20/20 27/27/27 19/19/19
f 27/27/27 26/26/26 19/19/19
f 21/21/21 28/28/28 20/20/20
f 28/28/28 27/27/27 20/20/20
f 23/23/23 29/29/29 25/25/25
f 23/23/23 26/26/26 29/29/29
f 26/26/26 27/27/27 30/30/30
f 26/26/26 30/30/30 29/29/29
f 29/29/29 31/31/31 25/25/25
f 31/31/31 32/32/32 25/25/25
f 33/33/33 31/31/31 29/29/29
f 30/30/30 33/33/33 29/29/29
f 34/34/34 33/33/33 30/30/30
f 27/27/27 35/35/35 30/30/30
f 35/35/35 34/34/34 30/30/30
f 27/27/27 28/28/28 35/35/35
f 36/36/36 34/34/34 35/35/35
f 37/37/37 36/36/36 35/35/35
f 28/28/28 37/37/37 35/35/35
f 38/38/38 36/36/36 37/37/37
f 39/39/39 38/38/38 37/37/37
f 37/37/37 28/28/28 39/39/39
f 40/40/40 38/38/38 39/39/39
f 28/28/28 41/41/41 39/39/39
f 41/41/41 28/28/28 21/21/21
f 22/22/22 41/41/41 21/21/21
f 42/42/42 40/40/40 39/39/39
f 43/43/43 40/40/40 42/42/42
f 41/41/41 44/44/44 39/39/39
f 44/44/44 41/41/41 22/22/22
f 44/44/44 42/42/42 39/39/39
f 45/45/45 44/44/44 22/22/22
f 45/45/45 22/22/22 6/6/6
f 4/4/4 45/45/45 6/6/6
f 44/44/44 46/46/46 42/42/42
f 46/46/46 44/44/44 45/45/45
f 47/47/47 45/45/45 4/4/4
f 47/47/47 46/46/46 45/45/45
f 2/2/2 47/47/47 4/4/4
f 48/48/48 43/43/43 42/42/42
f 46/46/46 48/48/48 42/42/42
f 49/49/49 46/46/46 47/47/47
f 46/46/46 49/49/49 48/48/48
f 50/50/50 47/47/47 2/2/2
f 50/50/50 49/49/49 47/47/47
f 51/51/51 50/50/50 2/2/2
f 50/50/50 51/51/51 52/52/52
f 53/53/53 43/43/43 48/48/48
f 54/54/54 43/43/43 53/53/53
f 55/55/55 54/54/54 53/53/53
f 56/56/56 55/55/55 53/53/53
f 57/57/57 56/56/56 53/53/53
f 58/58/58 53/53/53 48/48/48
f 49/49/49 58/58/58 48/48/48
f 57/57/57 53/53/53 58/58/58
f 59/59/59 49/49/49 50/50/50
f 49/49/49 59/59/59 58/58/58
f 60/60/60 57/57/57 58/58/58
f 59/59/59 60/60/60 58/58/58
f 61/61/61 57/57/57 60/60/60
f 62/62/62 61/61/61 60/60/60
f 62/62/62 60/60/60 59/59/59
f 63/63/63 59/59/59 50/50/50
f 63/63/63 50/50/50 52/52/52
f 64/64/64 62/62/62 59/59/59
f 64/64/64 59/59/59 63/63/63
f 65/65/65 63/63/63 52/52/52
f 65/65/65 64/64/64 63/63/63
f 64/64/64 66/66/66 62/62/62
f 66/66/66 64/64/64 65/65/65
f 66/66/66 67/67/67 62/62/62
f 68/68/68 66/66/66 65/65/65
f 69/69/69 65/65/65 52/52/52
f 68/68/68 65/65/65 69/69/69
f 69/69/69 52/52/52 70/70/70
f 71/71/71 69/69/69 70/70/70
f 72/72/72 68/68/68 69/69/69
f 72/72/72 69/69/69 71/71/71
f 68/68/68 72/72/72 73/73/73
f 72/72/72 74/74/74 73/73/73
f 75/75/75 72/72/72 71/71/71
f 74/74/74 72/72/72 75/75/75
f 75/75/75 71/71/71 76/76/76
f 77/77/77 74/74/74 75/75/75
f 78/78/78 75/75/75 76/76/76
f 77/77/77 75/75/75 78/78/78
f 79/79/79 77/77/77 78/78/78
f 79/79/79 78/78/78 80/80/80
f 81/81/81 79/79/79 80/80/80
f 81/81/81 80/80/80 82/82/82
f 83/83/83 81/81/81 82/82/82
f 86/86/86 85/85/85 84/84/84
f 87/87/87 86/86/86 84/84/84
f 88/88/88 86/86/86 87/87/87
f 87/87/87 84/84/84 89/89/89
f 90/90/90 88/88/88 87/87/87
f 91/91/91 88/88/88 90/90/90
f 92/92/92 87/87/87 89/89/89
f 90/90/90 87/87/87 92/92/92
f 93/93/93 91/91/91 90/90/90
f 94/94/94 91/91/91 93/93/93
f 92/92/92 89/89/89 95/95/95
f 89/89/89 96/96/96 95/95/95
f 95/95/95 96/96/96 97/97/97
f 98/98/98 90/90/90 92/92/92
f 93/93/93 90/90/90 98/98/98
f 99/99/99 94/94/94 93/93/93
f 100/100/100 94/94/94 99/99/99
f 101/101/101 95/95/95 97/97/97
f 101/101/101 97/97/97 102/102/102
f 103/103/103 101/101/101 102/102/102
f 92/92/92 95/95/95 104/104/104
f 104/104/104 95/95/95 101/101/101
f 98/98/98 92/92/92 104/104/104
f 105/105/105 101/101/101 103/103/103
f 105/105/105 104/104/104 101/101/101
f 106/106/106 105/105/105 103/103/103
f 107/107/107 93/93/93 98/98/98
f 99/99/99 93/93/93 107/107/107
f 98/98/98 104/104/104 108/108/108
f 108/108/108 104/104/104 105/105/105
f 107/107/107 98/98/98 108/108/108
f 109/109/109 105/105/105 106/106/106
f 109/109/109 108/108/108 105/105/105
f 110/110/110 109/109/109 106/106/106
f 107/107/107 108/108/108 111/111/111
f 111/111/111 108/108/108 109/109/109
f 112/112/112 109/109/109 110/110/110
f 112/112/112 111/111/111 109/109/109
f 113/113/113 112/112/112 110/110/110
f 114/114/114 99/99/99 107/107/107
f 114/114/114 107/107/107 111/111/111
f 115/115/115 111/111/111 112/112/112
f 114/114/114 111/111/111 115/115/115
f 116/116/116 112/112/112 113/113/113
f 116/116/116 115/115/115 112/112/112
f 117/117/117 116/116/116 113/113/113
f 118/118/118 99/99/99 114/114/114
f 118/118/118 100/100/100 99/99/99
f 119/119/119 100/100/100 118/118/118
f 120/120/120 114/114/114 115/115/115
f 120/120/120 118/118/118 114/114/114
f 121/121/121 119/119/119 118/118/118
f 121/121/121 118/118/118 120/120/120
f 122/122/122 119/119/119 121/121/121
f 123/123/123 115/115/115 116/116/116
f 120/120/120 115/115/115 123/123/123
f 124/124/124 116/116/116 117/117/117
f 124/124/124 123/123/123 116/116/116
f 125/125/125 124/124/124 117/117/117
f 125/125/125 126/126/126 124/124/124
f 126/126/126 127/127/127 124/124/124
f 128/128/128 121/121/121 120/120/120
f 128/128/128 120/120/120 123/123/123
f 129/129/129 123/123/123 124/124/124
f 127/127/127 129/129/129 124/124/124
f 130/130/130 121/121/121 128/128/128
f 130/130/130 122/122/122 121/121/121
f 131/131/131 128/128/128 123/123/123
f 129/129/129 131/131/131 123/123/123
f 131/131/131 130/130/130 128/128/128
f 132/132/132 129/129/129 127/127/127
f 131/131/131 129/129/129 132/132/132
f 133/133/133 132/132/132 127/127/127
f 134/134/134 132/132/132 133/133/133
f 135/135/135 134/134/134 133/133/133
f 136/136/136 131/131/131 132/132/132
f 136/136/136 132/132/132 134/134/134
f 137/137/137 130/130/130 131/131/131
f 136/136/136 137/137/137 131/131/131
f 138/138/138 122/122/122 130/130/130
f 137/137/137 138/138/138 130/130/130
f 139/139/139 137/137/137 136/136/136
f 138/138/138 137/137/137 139/139/139
f 138/138/138 140/140/140 122/122/122
f 140/140/140 141/141/141 122/122/122
f 142/142/142 140/140/140 138/138/138
f 143/143/143 142/142/142 138/138/138
f 143/143/143 138/138/138 139/139/139
f 144/144/144 139/139/139 136/136/136
f 144/144/144 136/136/136 134/134/134
f 143/143/143 139/139/139 145/145/145
f 145/145/145 139/139/139 144/144/144
f 146/146/146 143/143/143 145/145/145
f 147/147/147 145/145/145 144/144/144
f 147/147/147 144/144/144 134/134/134
f 148/148/148 145/145/145 147/147/147
f 149/149/149 148/148/148 147/147/147
f 150/150/150 147/147/147 134/134/134
f 149/149/149 147/147/147 150/150/150
f 150/150/150 134/134/134 135/135/135
f 151/151/151 149/149/149 150/150/150
f 152/152/152 150/150/150 135/135/135
f 151/151/151 150/150/150 152/152/152
f 152/152/152 135/135/135 153/153/153
f 154/154/154 152/152/152 153/153/153
f 155/155/155 151/151/151 152/152/152
f 155/155/155 152/152/152 154/154/154
f 156/156/156 151/151/151 155/155/155
f 157/157/157 156/156/156 155/155/155
f 158/158/158 155/155/155 154/154/154
f 157/157/157 155/155/155 158/158/158
f 158/158/158 154/154/154 159/159/159
f 160/160/160 157/157/157 158/158/158
f 161/161/161 158/158/158 159/159/159
f 160/160/160 158/158/158 161/161/161
f 162/162/162 160/160/160 161/161/161
f 161/161/161 163/163/163 162/162/162
f 163/163/163 164/164/164 162/162/162
f 163/163/163 165/165/165 164/164/164
f 165/165/165 166/166/166 164/164/164
f 169/169/169 168/168/168 167/167/167
f 168/168/168 170/170/170 167/167/167
f 167/167/167 170/170/170 171/171/171
f 172/172/172 168/168/168 169/169/169
f 173/173/173 172/172/172 169/169/169
f 170/170/170 174/174/174 171/171/171
f 171/171/171 174/174/174 175/175/175
f 176/176/176 172/172/172 173/173/173
f 177/177/177 176/176/176 173/173/173
f 174/174/174 178/178/178 175/175/175
f 175/175/175 178/178/178 179/179/179
f 180/180/180 176/176/176 177/177/177
f 181/181/181 180/180/180 177/177/177
f 178/178/178 182/182/182 179/179/179
f 179/179/179 182/182/182 183/183/183
f 184/184/184 180/180/180 181/181/181
f 185/185/185 184/184/184 181/181/181
f 182/182/182 186/186/186 183/183/183
f 183/183/183 186/186/186 187/187/187
f 188/188/188 184/184/184 185/185/185
f 189/189/189 188/188/188 185/185/185
f 186/186/186 190/190/190 187/187/187
f 187/187/187 190/190/190 191/191/191
f 192/192/192 188/188/188 189/189/189
f 193/193/193 192/192/192 189/189/189
f 190/190/190 194/194/194 191/191/191
f 191/191/191 194/194/194 195/195/195
f 195/195/195 196/196/196 193/193/193
f 196/196/196 192/192/192 193/193/193
f 194/194/194 196/196/196 195/195/195
f 182/182/182 197/197/197 186/186/186
f 186/186/186 198/198/198 190/190/190
f 197/197/197 198/198/198 186/186/186
f 190/190/190 199/199/199 194/194/194
f 198/198/198 199/199/199 190/190/190
f 194/194/194 200/200/200 196/196/196
f 199/199/199 200/200/200 194/194/194
f 200/200/200 201/201/201 196/196/196
f 201/201/201 200/200/200 199/199/199
f 196/196/196 201/201/201 192/192/192
f 201/201/201 199/199/199 198/198/198
f 201/201/201 202/202/202 192/192/192
f 202/202/202 201/201/201 198/198/198
f 202/202/202 198/198/198 197/197/197
f 192/192/192 202/202/202 188/188/188
f 202/202/202 203/203/203 188/188/188
f 203/203/203 202/202/202 197/197/197
f 188/188/188 203/203/203 184/184/184
f 204/204/204 197/197/197 182/182/182
f 203/203/203 197/197/197 204/204/204
f 178/178/178 204/204/204 182/182/182
f 203/203/203 205/205/205 184/184/184
f 205/205/205 203/203/203 204/204/204
f 184/184/184 205/205/205 180/180/180
f 206/206/206 204/204/204 178/178/178
f 205/205/205 204/204/204 206/206/206
f 174/174/174 206/206/206 178/178/178
f 205/205/205 207/207/207 180/180/180
f 207/207/207 205/205/205 206/206/206
f 180/180/180 207/207/207 176/176/176
f 208/208/208 206/206/206 174/174/174
f 207/207/207 206/206/206 208/208/208
f 170/170/170 208/208/208 174/174/174
f 207/207/207 209/209/209 176/176/176
f 209/209/209 207/207/207 208/208/208
f 176/176/176 209/209/209 172/172/172
f 210/210/210 208/208/208 170/170/170
f 209/209/209 208/208/208 210/210/210
f 168/168/168 210/210/210 170/170/170
f 209/209/209 211/211/211 172/172/172
f 210/210/210 211/211/211 209/209/209
f 211/211/211 210/210/210 168/168/168
f 172/172/172 211/211/211 168/168/168
f 214/214/214 213/213/213 212/212/212
f 213/213/213 215/215/215 212/212/212
f 212/212/212 215/215/215 216/216/216
f 217/217/217 213/213/213 214/214/214
f 218/218/218 217/217/217 214/214/214
f 215/215/215 219/219/219 216/216/216
f 216/216/216 219/219/219 220/220/220
f 221/221/221 217/217/217 218/218/218
f 222/222/222 221/221/221 218/218/218
f 219/219/219 223/223/223 220/220/220
f 220/220/220 223/223/223 224/224/224
f 225/225/225 221/221/221 222/222/222
f 226/226/226 225/225/225 222/222/222
f 223/223/223 227/227/227 224/224/224
f 224/224/224 227/227/227 228/228/228
f 229/229/229 225/225/225 226/226/226
f 230/230/230 229/229/229 226/226/226
f 227/227/227 231/231/231 228/228/228
f 228/228/228 231/231/231 232/232/232
f 233/233/233 229/229/229 230/230/230
f 234/234/234 233/233/233 230/230/230
f 231/231/231 235/235/235 232/232/232
f 232/232/232 235/235/235 236/236/236
f 237/237/237 233/233/233 234/234/234
f 238/238/238 237/237/237 234/234/234
f 235/235/235 239/239/239 236/236/236
f 236/236/236 239/239/239 240/240/240
f 240/240/240 241/241/241 238/238/238
f 241/241/241 237/237/237 238/238/238
f 239/239/239 241/241/241 240/240/240
f 227/227/227 242/242/242 231/231/231
f 231/231/231 243/243/243 235/235/235
f 242/242/242 243/243/243 231/231/231
f 235/235/235 244/244/244 239/239/239
f 243/243/243 244/244/244 235/235/235
f 239/239/239 245/245/245 241/241/241
f 244/244/244 245/245/245 239/239/239
f 245/245/245 246/246/246 241/241/241
f 246/246/246 245/245/245 244/244/244
f 241/241/241 246/246/246 237/237/237
f 246/246/246 244/244/244 243/243/243
f 246/246/246 247/247/247 237/237/237
f 247/247/247 246/246/246 243/243/243
f 247/247/247 243/243/243 242/242/242
f 237/237/237 247/247/247 233/233/233
f 247/247/247 248/248/248 233/233/233
f 248/248/248 247/247/247 242/242/242
f 233/233/233 248/248/248 229/229/229
f 249/249/249 242/242/242 227/227/227
f 248/248/248 242/242/242 249/249/249
f 223/223/223 249/249/249 227/227/227
f 248/248/248 250/250/250 229/229/229
f 250/250/250 248/248/248 249/249/249
f 229/229/229 250/250/250 225/225/225
f 251/251/251 249/249/249 223/223/223
f 250/250/250 249/249/249 251/251/251
f 219/219/219 251/251/251 223/223/223
f 250/250/250 252/252/252 225/225/225
f 252/252/252 250/250/250 251/251/251
f 225/225/225 252/252/252 221/221/221
f 253/253/253 251/251/251 219/219/219
f 252/252/252 251/251/251 253/253/253
f 215/215/215 253/253/253 219/219/219
f 252/252/252 254/254/254 221/221/221
f 254/254/254 252/252/252 253/253/253
f 221/221/221 254/254/254 217/217/217
f 255/255/255 253/253/253 215/215/215
f 254/254/254 253/253/253 255/255/255
f 213/213/213 255/255/255 215/215/215
f 254/254/254 256/256/256 217/217/217
f 255/255/255 256/256/256 254/254/254
f 256/256/256 255/255/255 213/213/213
f 217/217/217 256/256/256 213/213/213
f 259/259/259 258/258/258 257/257/257
f 260/260/260 259/259/259 257/257/257
f 260/260/260 257/257/257 261/261/261
f 259/259/259 262/262/262 258/258/258
f 262/262/262 263/263/263 258/258/258
f 264/264/264 260/260/260 261/261/261
f 264/264/264 261/261/261 265/265/265
f 262/262/262 266/266/266 263/263/263
f 266/266/266 267/267/267 263/263/263
f 268/268/268 264/264/264 265/265/265
f 268/268/268 265/265/265 269/269/269
f 266/266/266 270/270/270 267/267/267
f 270/270/270 271/271/271 267/267/267
f 272/272/272 268/268/268 269/269/269
f 272/272/272 269/269/269 273/273/273
f 270/270/270 274/274/274 271/271/271
f 274/274/274 275/275/275 271/271/271
f 276/276/276 272/272/272 273/273/273
f 276/276/276 273/273/273 277/277/277
f 274/274/274 278/278/278 275/275/275
f 278/278/278 279/279/279 275/275/275
f 280/280/280 276/276/276 277/277/277
f 280/280/280 277/277/277 281/281/281
f 278/278/278 282/282/282 279/279/279
f 282/282/282 283/283/283 279/279/279
f 284/284/284 280/280/280 281/281/281
f 284/284/284 281/281/281 285/285/285
f 286/286/286 285/285/285 283/283/283
f 282/282/282 286/286/286 283/283/283
f 286/286/286 284/284/284 285/285/285
f 276/276/276 287/287/287 272/272/272
f 280/280/280 288/288/288 276/276/276
f 288/288/288 287/287/287 276/276/276
f 284/284/284 289/289/289 280/280/280
f 289/289/289 288/288/288 280/280/280
f 286/286/286 290/290/290 284/284/284
f 290/290/290 289/289/289 284/284/284
f 282/282/282 291/291/291 286/286/286
f 291/291/291 290/290/290 286/286/286
f 278/278/278 292/292/292 282/282/282
f 292/292/292 291/291/291 282/282/282
f 287/287/287 293/293/293 272/272/272
f 272/272/272 293/293/293 268/268/268
f 294/294/294 292/292/292 278/278/278
f 274/274/274 294/294/294 278/278/278
f 293/293/293 295/295/295 268/268/268
f 268/268/268 295/295/295 264/264/264
f 296/296/296 294/294/294 274/274/274
f 270/270/270 296/296/296 274/274/274
f 295/295/295 297/297/297 264/264/264
f 264/264/264 297/297/297 260/260/260
f 298/298/298 296/296/296 270/270/270
f 266/266/266 298/298/298 270/270/270
f 297/297/297 299/299/299 260/260/260
f 260/260/260 299/299/299 259/259/259
f 300/300/300 298/298/298 266/266/266
f 262/262/262 300/300/300 266/266/266
f 259/259/259 301/301/301 262/262/262
f 299/299/299 301/301/301 259/259/259
f 301/301/301 300/300/300 262/262/262
f 296/296/296 302/302/302 294/294/294
f 298/298/298 303/303/303 296/296/296
f 303/303/303 302/302/302 296/296/296
f 300/300/300 304/304/304 298/298/298
f 304/304/304 303/303/303 298/298/298
f 301/301/301 305/305/305 300/300/300
f 305/305/305 304/304/304 300/300/300
f 306/306/306 305/305/305 301/301/301
f 299/299/299 306/306/306 301/301/301
f 304/304/304 305/305/305 306/306/306
f 307/307/307 306/306/306 299/299/299
f 306/306/306 307/307/307 304/304/304
f 307/307/307 303/303/303 304/304/304
f 297/297/297 307/307/307 299/299/299
f 307/307/307 308/308/308 303/303/303
f 308/308/308 307/307/307 297/297/297
f 308/308/308 302/302/302 303/303/303
f 295/295/295 308/308/308 297/297/297
f 309/309/309 308/308/308 295/295/295
f 308/308/308 309/309/309 302/302/302
f 293/293/293 309/309/309 295/295/295
f 309/309/309 310/310/310 302/302/302
f 302/302/302 310/310/310 294/294/294
f 294/294/294 310/310/310 292/292/292
f 311/311/311 309/309/309 293/293/293
f 309/309/309 311/311/311 310/310/310
f 287/287/287 311/311/311 293/293/293
f 310/310/310 312/312/312 292/292/292
f 311/311/311 312/312/312 310/310/310
f 292/292/292 312/312/312 291/291/291
f 313/313/313 311/311/311 287/287/287
f 311/311/311 313/313/313 312/312/312
f 288/288/288 313/313/313 287/287/287
f 312/312/312 314/314/314 291/291/291
f 313/313/313 314/314/314 312/312/312
f 291/291/291 314/314/314 290/290/290
f 315/315/315 313/313/313 288/288/288
f 313/313/313 315/315/315 314/314/314
f 289/289/289 315/315/315 288/288/288
f 314/314/314 316/316/316 290/290/290
f 315/315/315 316/316/316 314/314/314
f 316/316/316 315/315/315 289/289/289
f 290/290/290 316/316/316 289/289/289
f 319/319/319 318/318/318 317/317/317
f 320/320/320 319/319/319 317/317/317
f 320/320/320 317/317/317 321/321/321
f 319/319/319 322/322/322 318/318/318
f 322/322/322 323/323/323 318/318/318
f 324/324/324 320/320/320 321/321/321
f 324/324/324 321/321/321 325/325/325
f 322/322/322 326/326/326 323/323/323
f 326/326/326 327/327/327 323/323/323
f 328/328/328 324/324/324 325/325/325
f 328/328/328 325/325/325 329/329/329
f 326/326/326 330/330/330 327/327/327
f 330/330/330 331/331/331 327/327/327
f 332/332/332 328/328/328 329/329/329
f 332/332/332 329/329/329 333/333/333
f 330/330/330 334/334/334 331/331/331
f 334/334/334 335/335/335 331/331/331
f 336/336/336 332/332/332 333/333/333
f 336/336/336 333/333/333 337/337/337
f 334/334/334 338/338/338 335/335/335
f 338/338/338 339/339/339 335/335/335
f 340/340/340 336/336/336 337/337/337
f 340/340/340 337/337/337 341/341/341
f 338/338/338 342/342/342 339/339/339
f 342/342/342 343/343/343 339/339/339
f 344/344/344 340/340/340 341/341/341
f 344/344/344 341/341/341 345/345/345
f 346/346/346 345/345/345 343/343/343
f 342/342/342 346/346/346 343/343/343
f 346/346/346 344/344/344 345/345/345
f 336/336/336 347/347/347 332/332/332
f 340/340/340 348/348/348 336/336/336
f 348/348/348 347/347/347 336/336/336
f 344/344/344 349/349/349 340/340/340
f 349/349/349 348/348/348 340/340/340
f 346/346/346 350/350/350 344/344/344
f 350/350/350 349/349/349 344/344/344
f 342/342/342 351/351/351 346/346/346
f 351/351/351 350/350/350 346/346/346
f 338/338/338 352/352/352 342/342/342
f 352/352/352 351/351/351 342/342/342
f 347/347/347 353/353/353 332/332/332
f 332/332/332 353/353/353 328/328/328
f 354/354/354 352/352/352 338/338/338
f 334/334/334 354/354/354 338/338/338
f 353/353/353 355/355/355 328/328/328
f 328/328/328 355/355/355 324/324/324
f 356/356/356 354/354/354 334/334/334
f 330/330/330 356/356/356 334/334/334
f 355/355/355 357/357/357 324/324/324
f 324/324/324 357/357/357 320/320/320
f 358/358/358 356/356/356 330/330/330
f 326/326/326 358/358/358 330/330/330
f 357/357/357 359/359/359 320/320/320
f 320/320/320 359/359/359 319/319/319
f 360/360/360 358/358/358 326/326/326
f 322/322/322 360/360/360 326/326/326
f 319/319/319 361/361/361 322/322/322
f 359/359/359 361/361/361 319/319/319
f 361/361/361 360/360/360 322/322/322
f 356/356/356 362/362/362 354/354/354
f 358/358/358 363/363/363 356/356/356
f 363/363/363 362/362/362 356/356/356
f 360/360/360 364/364/364 358/358/358
f 364/364/364 363/363/363 358/358/358
f 361/361/361 365/365/365 360/360/360
f 365/365/365 364/364/364 360/360/360
f 366/366/366 365/365/365 361/361/361
f 359/359/359 366/366/366 361/361/361
f 364/364/364 365/365/365 366/366/366
f 367/367/367 366/366/366 359/359/359
f 366/366/366 367/367/367 364/364/364
f 367/367/367 363/363/363 364/364/364
f 357/357/357 367/367/367 359/359/359
f 367/367/367 368/368/368 363/363/363
f 368/368/368 367/367/367 357/357/357
f 368/368/368 362/362/362 363/363/363
f 355/355/355 368/368/368 357/357/357
f 369/369/369 368/368/368 355/355/355
f 368/368/368 369/369/369 362/362/362
f 353/353/353 369/369/369 355/355/355
f 369/369/369 370/370/370 362/362/362
f 362/362/362 370/370/370 354/354/354
f 354/354/354 370/370/370 352/352/352
f 371/371/371 369/369/369 353/353/353
f 369/369/369 371/371/371 370/370/370
f 347/347/347 371/371/371 353/353/353
f 370/370/370 372/372/372 352/352/352
f 371/371/371 372/372/372 370/370/370
f 352/352/352 372/372/372 351/351/351
f 373/373/373 371/371/371 347/347/347
f 371/371/371 373/373/373 372/372/372
f 348/348/348 373/373/373 347/347/347
f 372/372/372 374/374/374 351/351/351
f 373/373/373 374/374/374 372/372/372
f 351/351/351 374/374/374 350/350/350
f 375/375/375 373/373/373 348/348/348
f 373/373/373 375/375/375 374/374/374
f 349/349/349 375/375/375 348/348/348
f 374/374/374 376/376/376 350/350/350
f 375/375/375 376/376/376 374/374/374
f 376/376/376 375/375/375 349/349/349
f 350/350/350 376/376/376 349/349/349
