g PolyLeafHigh
v 0.02660131 -0.03097122 0.01401628
v 0.05189516 -0.003144101 0.01199897
v 0.04430517 -0.01849421 0.01287525
v 0.03138173 -0.01438502 0.01090739
v -0.001352877 -0.0362411 0.01352034
v -0.003878978 -0.02349028 0.00949962
v 0.03360489 -5.997915E-07 0.008869278
v -0.02657636 -0.02621914 0.01343785
v -0.01048848 -3.142587E-06 0.004325521
v -0.02468329 -0.01527195 0.01029751
v -0.04708512 1.340574E-06 0.01481746
v -0.02609788 2.489419E-07 0.008439095
v 0.0517345 1.012121E-06 0.01447673
v 0.05189516 -0.003144101 0.01199897
v 0.03138173 -0.01438502 0.01090739
v 0.03360489 -5.997915E-07 0.008869278
v 0.02660315 0.03097525 0.01401668
v 0.04430656 0.01849663 0.01287537
v 0.05189538 0.003146158 0.01199898
v 0.03138431 0.01438587 0.01090752
v 0.0517345 1.012121E-06 0.01447673
v -0.001353753 0.03624609 0.01352074
v 0.03360489 -5.997915E-07 0.008869278
v -0.003881545 0.02349433 0.009499576
v -0.026578 0.02622225 0.01343803
v -0.01048848 -3.142587E-06 0.004325521
v -0.02468501 0.01527363 0.01029755
v -0.04708512 1.340574E-06 0.01481746
v -0.02609788 2.489419E-07 0.008439095
v 0.05254496 -0.002867109 0.005266179
v 0.02693041 -0.03158228 0.006961018
v 0.04489999 -0.01905794 0.006081901
v 0.03153938 -0.01524468 0.003254424
v 0.05241714 -8.628625E-05 0.002797159
v -0.001312588 -0.03693324 0.006516672
v 0.03293637 -4.955357E-05 -0.0009113026
v -0.003632278 -0.02398696 0.001580266
v -0.02676747 -0.02688047 0.006638012
v -0.007385914 1.944413E-05 -0.002504981
v -0.02476809 -0.01599477 0.003214743
v -0.04575457 -0.001925242 0.00837591
v -0.02593758 4.590435E-05 0.002709546
v -0.0467296 7.086886E-05 0.008610483
v 0.05254516 0.002869212 0.005266177
v 0.04490138 0.01906043 0.006081909
v 0.02693224 0.03158636 0.006961118
v 0.03154191 0.01524578 0.003254154
v -0.00131344 0.03693829 0.00651674
v 0.03293637 -4.955357E-05 -0.0009113026
v 0.05241714 -8.628625E-05 0.002797159
v -0.007385914 1.944413E-05 -0.002504981
v -0.003634613 0.023991 0.001579324
v -0.02676911 0.02688365 0.006638049
v -0.02593758 4.590435E-05 0.002709546
v -0.02476981 0.01599656 0.003214599
v -0.04568722 0.002286419 0.008360432
v -0.0467296 7.086886E-05 0.008610483
v 0.05189516 -0.003144101 0.01199897
v 0.05254496 -0.002867109 0.005266179
v 0.04489999 -0.01905794 0.006081901
v 0.04430517 -0.01849421 0.01287525
v 0.02693041 -0.03158228 0.006961018
v 0.02660131 -0.03097122 0.01401628
v -0.001312588 -0.03693324 0.006516672
v -0.001352877 -0.0362411 0.01352034
v -0.02676747 -0.02688047 0.006638012
v -0.02657636 -0.02621914 0.01343785
v -0.04708512 1.340574E-06 0.01481746
v -0.04575457 -0.001925242 0.00837591
v -0.0467296 7.086886E-05 0.008610483
v 0.04430656 0.01849663 0.01287537
v 0.05254516 0.002869212 0.005266177
v 0.05189538 0.003146158 0.01199898
v 0.04490138 0.01906043 0.006081909
v 0.02660315 0.03097525 0.01401668
v 0.02693224 0.03158636 0.006961118
v -0.001353753 0.03624609 0.01352074
v -0.00131344 0.03693829 0.00651674
v -0.026578 0.02622225 0.01343803
v -0.02676911 0.02688365 0.006638049
v -0.04708512 1.340574E-06 0.01481746
v -0.04568722 0.002286419 0.008360432
v -0.0467296 7.086886E-05 0.008610483
vt 0.75 0
vt 0.5 0.3665023
vt 1 0
vt 0.75 0.25
vt 0.5 0
vt 0.5 0.25
vt 0.75 0.5
vt 0.25 0
vt 0.5 0.5
vt 0.25 0.25
vt 0 0.9211733
vt 0.25 0.5
vt 0.5 0.4915023
vt 0.5 0.3665023
vt 0.75 0.25
vt 0.75 0.5
vt 0.75 0
vt 1 0
vt 1 0.4605867
vt 0.75 0.25
vt 1 0.5
vt 0.5 0
vt 0.75 0.5
vt 0.5 0.25
vt 0.25 0
vt 0.5 0.5
vt 0.25 0.25
vt 0 0.4830046
vt 0.25 0.5
vt 1 0.4605867
vt 0.75 0
vt 1 0
vt 0.75 0.25
vt 0.5 0.4915023
vt 0.5 0
vt 0.75 0.5
vt 0.5 0.25
vt 0.25 0
vt 0.5 0.5
vt 0.25 0.25
vt 0.02759442 0.8470908
vt 0.25 0.5
vt 0.01311389 0.8990805
vt 1 0.25
vt 1 0
vt 0.75 0
vt 0.75 0.25
vt 0.5 0
vt 0.75 0.5
vt 1 0.5
vt 0.5 0.5
vt 0.5 0.25
vt 0.25 0
vt 0.25 0.5
vt 0.25 0.25
vt 0.02831732 0.4566123
vt 0.01311389 0.4838961
vt 0.5 0.3665023
vt 1 0.4605867
vt 1 0
vt 1 0
vt 0.75 0
vt 0.75 0
vt 0.5 0
vt 0.5 0
vt 0.25 0
vt 0.25 0
vt 0 0.9211733
vt 0.02759442 0.8470908
vt 0.01311389 0.8990805
vt 1 0
vt 1 0.25
vt 1 0.4605867
vt 1 0
vt 0.75 0
vt 0.75 0
vt 0.5 0
vt 0.5 0
vt 0.25 0
vt 0.25 0
vt 0 0.4830046
vt 0.02831732 0.4566123
vt 0.01311389 0.4838961
vn -0.08770761 0.2212068 0.9712749
vn -0.1983302 -0.1984033 0.9598444
vn -0.09845072 0.1606837 0.9820836
vn -0.1267712 0.267853 0.9550831
vn -0.0001134648 0.2619991 0.9650682
vn 0.03504111 0.3085753 0.9505543
vn -0.1682708 6.102914E-06 0.9857408
vn 0.1965959 0.2639754 0.9442812
vn 0.0713203 5.587502E-05 0.9974534
vn 0.2590755 0.2854109 0.9227245
vn 0.3426894 2.892688E-06 0.9394487
vn 0.2431061 0.0002029229 0.9699997
vn -0.2460597 1.582689E-05 0.9692546
vn -0.1983302 -0.1984033 0.9598444
vn -0.1267712 0.267853 0.9550831
vn -0.1682708 6.102914E-06 0.9857408
vn -0.08770961 -0.221197 0.9712769
vn -0.09844315 -0.1606739 0.9820859
vn -0.198312 0.1984187 0.9598449
vn -0.1085555 -0.2701497 0.9566791
vn -0.2460597 1.582689E-05 0.9692546
vn -0.0001178218 -0.2619912 0.9650703
vn -0.1682708 6.102914E-06 0.9857408
vn 0.01704337 -0.3089384 0.9509293
vn 0.1966088 -0.2639757 0.9442784
vn 0.0713203 5.587502E-05 0.9974534
vn 0.2590747 -0.2853718 0.9227368
vn 0.3426894 2.892688E-06 0.9394487
vn 0.2431061 0.0002029229 0.9699997
vn 0.2125378 -0.3205478 -0.9230801
vn 0.1102103 -0.2639066 -0.9582312
vn 0.1505761 -0.1915607 -0.9698616
vn 0.1290351 -0.22918 -0.9647934
vn 0.2474834 -0.003405425 -0.9688862
vn -0.008206089 -0.3072954 -0.9515789
vn 0.1458904 -0.0002606231 -0.9893008
vn -0.04669241 -0.2486479 -0.9674678
vn -0.2331153 -0.2926563 -0.9273669
vn -0.08148143 -0.000244258 -0.9966748
vn -0.2511509 -0.1817198 -0.9507372
vn -0.2758988 -0.0628016 -0.9591329
vn -0.2347849 6.568596E-05 -0.9720473
vn -0.2677111 0.002025158 -0.9634972
vn 0.2122131 0.317223 -0.9243026
vn 0.1505907 0.1915554 -0.9698603
vn 0.1102261 0.2639098 -0.9582285
vn 0.1278806 0.2285021 -0.9651079
vn -0.008205313 0.3073051 -0.9515757
vn 0.1458904 -0.0002606231 -0.9893008
vn 0.2474834 -0.003405425 -0.9688862
vn -0.08148143 -0.000244258 -0.9966748
vn -0.04466925 0.248903 -0.9674979
vn -0.2325083 0.2927431 -0.9274919
vn -0.2347849 6.568596E-05 -0.9720473
vn -0.2502174 0.1817076 -0.9509855
vn -0.2796207 0.05966879 -0.9582546
vn -0.2677111 0.002025158 -0.9634972
vn 0.8985779 -0.4291086 0.09178033
vn 0.8985779 -0.4291086 0.09178033
vn 0.7647972 -0.6360548 0.1025653
vn 0.7561211 -0.6462791 0.1029761
vn 0.390606 -0.9146877 0.1037952
vn 0.3844747 -0.9173024 0.1036124
vn -0.09367061 -0.9906701 0.09898762
vn -0.09610475 -0.9904372 0.09898439
vn -0.5869431 -0.8048564 0.08777223
vn -0.6022016 -0.7931088 0.0912777
vn -0.9998255 -0.003180308 0.01840645
vn -0.837166 -0.5469478 -0.001036046
vn -0.9984773 -0.007353869 -0.05467293
vn 0.7561679 0.6462238 0.1029799
vn 0.8986077 0.4290456 0.09178315
vn 0.8986077 0.4290456 0.09178315
vn 0.764841 0.6360015 0.1025691
vn 0.384515 0.9172849 0.1036173
vn 0.390646 0.9146701 0.1038001
vn -0.09612405 0.990435 0.09898838
vn -0.0936885 0.990668 0.09899159
vn -0.6022417 0.7930781 0.09127939
vn -0.5865566 0.8049477 0.08950116
vn -0.9998255 -0.003180308 0.01840645
vn -0.8326876 0.5534106 0.01918693
vn -0.9984773 -0.007353869 -0.05467293
g PolyLeafHigh_0
f 3/3/3 2/2/2 1/1/1
f 2/2/2 4/4/4 1/1/1
f 1/1/1 4/4/4 5/5/5
f 4/4/4 6/6/6 5/5/5
f 6/6/6 4/4/4 7/7/7
f 5/5/5 6/6/6 8/8/8
f 9/9/9 6/6/6 7/7/7
f 6/6/6 10/10/10 8/8/8
f 10/10/10 6/6/6 9/9/9
f 8/8/8 10/10/10 11/11/11
f 12/12/12 10/10/10 9/9/9
f 11/11/11 10/10/10 12/12/12
f 15/15/15 14/14/14 13/13/13
f 16/16/16 15/15/15 13/13/13
f 19/19/19 18/18/18 17/17/17
f 20/20/20 19/19/19 17/17/17
f 19/19/19 20/20/20 21/21/21
f 20/20/20 17/17/17 22/22/22
f 20/20/20 23/23/23 21/21/21
f 24/24/24 20/20/20 22/22/22
f 20/20/20 24/24/24 23/23/23
f 24/24/24 22/22/22 25/25/25
f 24/24/24 26/26/26 23/23/23
f 27/27/27 24/24/24 25/25/25
f 24/24/24 27/27/27 26/26/26
f 25/25/25 28/28/28 27/27/27
f 27/27/27 29/29/29 26/26/26
f 27/27/27 28/28/28 29/29/29
f 32/32/32 31/31/31 30/30/30
f 31/31/31 33/33/33 30/30/30
f 34/34/34 30/30/30 33/33/33
f 31/31/31 35/35/35 33/33/33
f 36/36/36 34/34/34 33/33/33
f 35/35/35 37/37/37 33/33/33
f 36/36/36 33/33/33 37/37/37
f 35/35/35 38/38/38 37/37/37
f 39/39/39 36/36/36 37/37/37
f 38/38/38 40/40/40 37/37/37
f 39/39/39 37/37/37 40/40/40
f 38/38/38 41/41/41 40/40/40
f 42/42/42 39/39/39 40/40/40
f 42/42/42 40/40/40 41/41/41
f 43/43/43 42/42/42 41/41/41
f 46/46/46 45/45/45 44/44/44
f 47/47/47 46/46/46 44/44/44
f 48/48/48 46/46/46 47/47/47
f 49/49/49 47/47/47 44/44/44
f 50/50/50 49/49/49 44/44/44
f 49/49/49 51/51/51 47/47/47
f 52/52/52 48/48/48 47/47/47
f 51/51/51 52/52/52 47/47/47
f 53/53/53 48/48/48 52/52/52
f 51/51/51 54/54/54 52/52/52
f 55/55/55 53/53/53 52/52/52
f 54/54/54 55/55/55 52/52/52
f 53/53/53 55/55/55 56/56/56
f 54/54/54 57/57/57 55/55/55
f 57/57/57 56/56/56 55/55/55
f 60/60/60 59/59/59 58/58/58
f 61/61/61 60/60/60 58/58/58
f 62/62/62 60/60/60 61/61/61
f 63/63/63 62/62/62 61/61/61
f 64/64/64 62/62/62 63/63/63
f 65/65/65 64/64/64 63/63/63
f 66/66/66 64/64/64 65/65/65
f 67/67/67 66/66/66 65/65/65
f 68/68/68 66/66/66 67/67/67
f 66/66/66 68/68/68 69/69/69
f 70/70/70 69/69/69 68/68/68
f 73/73/73 72/72/72 71/71/71
f 72/72/72 74/74/74 71/71/71
f 71/71/71 74/74/74 75/75/75
f 74/74/74 76/76/76 75/75/75
f 75/75/75 76/76/76 77/77/77
f 76/76/76 78/78/78 77/77/77
f 77/77/77 78/78/78 79/79/79
f 78/78/78 80/80/80 79/79/79
f 80/80/80 81/81/81 79/79/79
f 80/80/80 82/82/82 81/81/81
f 83/83/83 81/81/81 82/82/82
