g PolyFireTetrahedron
v 0.007949614 -0.006764115 0.06995
v -0.01082944 0.006595428 0.034975
v 0.02273807 0.0006207645 0.034975
v 0.007949614 -0.006764115 0.06995
v 0.009399237 -0.01904353 0.034975
v -0.01082944 0.006595428 0.034975
v 0.007949614 -0.006764115 0.06995
v 0.02273807 0.0006207645 0.034975
v 0.009399237 -0.01904353 0.034975
v 0.02273807 0.0006207645 0.034975
v -0.01082944 0.006595428 0.034975
v 0.04364748 0.01995497 0
v -0.01082944 0.006595428 0.034975
v 0.009399237 -0.01904353 0.034975
v 0.007949614 -0.04504146 0
v 0.009399237 -0.01904353 0.034975
v 0.02273807 0.0006207645 0.034975
v 0.007949614 -0.04504146 0
v 0.007949614 -0.04504146 0
v 0.02273807 0.0006207645 0.034975
v 0.04364748 0.01995497 0
v -0.01082944 0.006595428 0.034975
v 0.007949614 -0.04504146 0
v -0.02960849 0.01995497 0
v 0.04364748 0.01995497 0
v -0.01082944 0.006595428 0.034975
v -0.02960849 0.01995497 0
v -0.02960849 0.01995497 0
v 0.007472466 -0.001453158 -0.02317371
v 0.04364748 0.01995497 0
v 0.04364748 0.01995497 0
v 0.007472466 -0.001453158 -0.02317371
v 0.007949614 -0.04504146 0
v 0.007949614 -0.04504146 0
v 0.007472466 -0.001453158 -0.02317371
v -0.02960849 0.01995497 0
vt 0.5 1
vt 0.75 0.5
vt 0.25 0.5
vt 0.5 1
vt 0.75 0.5
vt 0.25 0.5
vt 0.5 1
vt 0.25 0.5
vt 0.75 0.5
vt 0.25 0.5
vt 0.75 0.5
vt 0 0
vt 0.25 0.5
vt 0.75 0.5
vt 1 0
vt 0.75 0.5
vt 0.25 0.5
vt 1 0
vt 1 0
vt 0.25 0.5
vt 0 0
vt 0.25 0.5
vt 1 0
vt 0 0
vt 0 0
vt 0.75 0.5
vt 1 0
vt 1 0
vt 0.6666667 0
vt 0 0
vt 0 0
vt 0.6666667 0
vt 1 0
vt 1 0
vt 0.6666667 0
vt 1 0
vn 0.1686586 0.9475762 0.2713921
vn 0.1686586 0.9475762 0.2713921
vn 0.1686586 0.9475762 0.2713921
vn -0.7719809 -0.6090792 0.1818457
vn -0.7719809 -0.6090792 0.1818457
vn -0.7719809 -0.6090793 0.1818457
vn 0.8062665 -0.546913 0.225434
vn 0.8062665 -0.546913 0.225434
vn 0.8062665 -0.5469131 0.225434
vn 0.1469915 0.8258436 0.5444041
vn 0.1469915 0.8258436 0.5444041
vn 0.1469915 0.8258436 0.5444041
vn -0.7041594 -0.5555692 0.4421564
vn -0.7041594 -0.5555692 0.4421565
vn -0.7041594 -0.5555692 0.4421564
vn 0.7728317 -0.5242332 0.357646
vn 0.7728317 -0.5242332 0.357646
vn 0.7728317 -0.5242332 0.357646
vn 0.8487326 -0.4661478 0.2497184
vn 0.8487326 -0.4661478 0.2497184
vn 0.8487326 -0.4661478 0.2497184
vn -0.8351056 -0.4825647 0.2640643
vn -0.8351056 -0.4825647 0.2640643
vn -0.8351056 -0.4825647 0.2640643
vn 0 0.9341698 0.3568286
vn 0 0.9341698 0.3568286
vn 0 0.9341698 0.3568286
vn 0 0.7345346 -0.6785713
vn 0 0.7345346 -0.6785713
vn 0 0.7345346 -0.6785713
vn 0.6439111 -0.3536541 -0.6784595
vn 0.6439111 -0.3536541 -0.6784595
vn 0.6439111 -0.3536541 -0.6784595
vn -0.6361662 -0.3676079 -0.6783489
vn -0.6361662 -0.3676079 -0.6783489
vn -0.6361662 -0.3676079 -0.6783489
g PolyFireTetrahedron_0
f 3/3/3 2/2/2 1/1/1
f 6/6/6 5/5/5 4/4/4
f 9/9/9 8/8/8 7/7/7
f 12/12/12 11/11/11 10/10/10
f 15/15/15 14/14/14 13/13/13
f 18/18/18 17/17/17 16/16/16
f 21/21/21 20/20/20 19/19/19
f 24/24/24 23/23/23 22/22/22
f 27/27/27 26/26/26 25/25/25
f 30/30/30 29/29/29 28/28/28
f 33/33/33 32/32/32 31/31/31
f 36/36/36 35/35/35 34/34/34
