g Pond
v -0.05323744 -0.2973176 3.682266
v 0.9605174 0.05271431 4.181573
v 0.980619 -0.2975583 4.294228
v 0.007558346 0.1454038 3.580969
v -1.001393 -0.2973181 2.561001
v 1.037459 0.3543374 3.755793
v -0.9261546 0.145403 2.476786
v -3.798701 -0.2976325 -2.173415
v -3.68575 0.215012 -2.257863
v 0.2452011 0.4389421 3.260075
v 1.193104 0.6221606 3.222433
v -0.6383562 0.4389409 2.215212
v -3.367564 0.3059222 -2.593658
v 0.5645227 0.6194805 2.815126
v 1.454763 0.5890151 2.819191
v 1.056701 0.5807224 2.018232
v -0.2548742 0.6194809 1.846131
v -2.847048 0.5906562 -2.602953
v 0.2099485 0.5815759 1.288731
v -2.59382 0.5921537 -2.568747
v 0.01088953 0.5809886 0.3008451
v -2.383337 0.5923628 -2.47684
v -0.7952027 0.5811617 -0.6288996
v -2.100819 0.5836903 -2.104993
v -1.336079 0.5846936 -1.205643
v -1.803178 0.584634 -1.652269
vt 0.800293 0.8554688
vt 0.7885742 0.8637695
vt 0.7998047 0.8637695
vt 0.7885742 0.8544922
vt 0.8012695 0.8466797
vt 0.7724609 0.862793
vt 0.7890625 0.8452148
vt 0.7797852 0.8422852
vt 0.7666016 0.8413086
vt 0.7719727 0.8549805
vt 0.7548828 0.8618164
vt 0.7724609 0.8461914
vt 0.7568359 0.8422852
vt 0.7548828 0.855957
vt 0.7543945 0.8657227
vt 0.7548828 0.8613281
vt 0.7553711 0.8476563
vt 0.7446289 0.8442383
vt 0.7548828 0.8549805
vt 0.7436523 0.847168
vt 0.7539063 0.8544922
vt 0.7436523 0.8491211
vt 0.7446289 0.859375
vt 0.7436523 0.8515625
vt 0.7441406 0.8569336
vt 0.7441406 0.8535156
vn -0.6230469 0.2507324 0.7412109
vn -0.4243164 0.496582 0.7573242
vn -0.4958496 0.2498779 0.831543
vn -0.5288086 0.5537109 0.6430664
vn -0.7880859 0.2486572 0.5629883
vn -0.2202148 0.859375 0.4619141
vn -0.6611328 0.5839844 0.4709473
vn -0.8339844 0.2509766 0.4912109
vn -0.6401367 0.6728516 0.3703613
vn -0.2929688 0.8764648 0.3818359
vn -0.07476807 0.9824219 0.1713867
vn -0.3647461 0.8959961 0.2531738
vn -0.3747559 0.9042969 0.2049561
vn -0.09997559 0.9858398 0.1350098
vn 0.03436279 0.9985352 -0.03826904
vn 0.03399658 0.9990234 -0.034729
vn -0.1569824 0.9829102 0.09765625
vn -0.2597656 0.9560547 0.137207
vn 0.02963257 0.9990234 -0.02429199
vn 0.0267334 0.9995117 -0.01849365
vn 0.0267334 0.9995117 -0.01849365
vn 0.0267334 0.9995117 -0.01849365
vn 0.0267334 0.9995117 -0.01849365
vn 0.0267334 0.9995117 -0.01849365
vn 0.0267334 0.9995117 -0.01849365
vn 0.0267334 0.9995117 -0.01849365
g Pond_0
f 3/3/3 2/2/2 1/1/1
f 2/2/2 4/4/4 1/1/1
f 1/1/1 4/4/4 5/5/5
f 2/2/2 6/6/6 4/4/4
f 4/4/4 7/7/7 5/5/5
f 8/8/8 5/5/5 7/7/7
f 9/9/9 8/8/8 7/7/7
f 6/6/6 10/10/10 4/4/4
f 4/4/4 10/10/10 7/7/7
f 6/6/6 11/11/11 10/10/10
f 9/9/9 7/7/7 12/12/12
f 10/10/10 12/12/12 7/7/7
f 13/13/13 9/9/9 12/12/12
f 11/11/11 14/14/14 10/10/10
f 10/10/10 14/14/14 12/12/12
f 14/14/14 11/11/11 15/15/15
f 16/16/16 14/14/14 15/15/15
f 13/13/13 12/12/12 17/17/17
f 14/14/14 17/17/17 12/12/12
f 17/17/17 14/14/14 16/16/16
f 18/18/18 13/13/13 17/17/17
f 19/19/19 17/17/17 16/16/16
f 20/20/20 18/18/18 17/17/17
f 17/17/17 19/19/19 21/21/21
f 17/17/17 22/22/22 20/20/20
f 17/17/17 21/21/21 23/23/23
f 17/17/17 24/24/24 22/22/22
f 17/17/17 23/23/23 25/25/25
f 17/17/17 26/26/26 24/24/24
f 17/17/17 25/25/25 26/26/26
