g PopCorn_Bucket_01
v -3.235718 63.73264 -16.34125
v -7.368652 57.3327 -24.12024
v 2.885376 57.3327 -22.67572
v -3.235718 45.20852 -16.34125
v -3.235718 63.73264 -16.34125
v -11.91113 57.3327 -14.81445
v -7.368652 57.3327 -24.12024
v -3.235718 45.20852 -16.34125
v -3.235718 63.73264 -16.34125
v -4.464478 57.3327 -7.618652
v -11.91113 57.3327 -14.81445
v -3.235718 45.20852 -16.34125
v -3.235718 63.73264 -16.34125
v 4.680237 57.3327 -12.47717
v -4.464478 57.3327 -7.618652
v -3.235718 45.20852 -16.34125
v -3.235718 63.73264 -16.34125
v 2.885376 57.3327 -22.67572
v 4.680237 57.3327 -12.47717
v -3.235718 45.20852 -16.34125
v -11.41589 65.32986 -16.20111
v -15.03223 59.72995 -23.00769
v -6.059937 59.72995 -21.74377
v -11.41589 49.12131 -16.20111
v -11.41589 65.32986 -16.20111
v -19.00684 59.72995 -14.86517
v -15.03223 59.72995 -23.00769
v -11.41589 49.12131 -16.20111
v -11.41589 65.32986 -16.20111
v -12.49109 59.72995 -8.568848
v -19.00684 59.72995 -14.86517
v -11.41589 49.12131 -16.20111
v -11.41589 65.32986 -16.20111
v -4.489441 59.72995 -12.82007
v -12.49109 59.72995 -8.568848
v -11.41589 49.12131 -16.20111
v -11.41589 65.32986 -16.20111
v -6.059937 59.72995 -21.74377
v -4.489441 59.72995 -12.82007
v -11.41589 49.12131 -16.20111
v -15.86456 63.73264 -5.897278
v -19.9975 57.3327 -13.67627
v -9.743469 57.3327 -12.23175
v -15.86456 45.20852 -5.897278
v -15.86456 63.73264 -5.897278
v -24.53998 57.3327 -4.370483
v -19.9975 57.3327 -13.67627
v -15.86456 45.20852 -5.897278
v -15.86456 63.73264 -5.897278
v -17.09332 57.3327 2.825317
v -24.53998 57.3327 -4.370483
v -15.86456 45.20852 -5.897278
v -15.86456 63.73264 -5.897278
v -7.948608 57.3327 -2.033203
v -17.09332 57.3327 2.825317
v -15.86456 45.20852 -5.897278
v -15.86456 63.73264 -5.897278
v -9.743469 57.3327 -12.23175
v -7.948608 57.3327 -2.033203
v -15.86456 45.20852 -5.897278
v -15.10278 63.73264 10.30048
v -19.23572 57.3327 2.521484
v -8.981689 57.3327 3.966003
v -15.10278 45.20852 10.30048
v -15.10278 63.73264 10.30048
v -23.7782 57.3327 11.82727
v -19.23572 57.3327 2.521484
v -15.10278 45.20852 10.30048
v -15.10278 63.73264 10.30048
v -16.33154 57.3327 19.02307
v -23.7782 57.3327 11.82727
v -15.10278 45.20852 10.30048
v -15.10278 63.73264 10.30048
v -7.186829 57.3327 14.16455
v -16.33154 57.3327 19.02307
v -15.10278 45.20852 10.30048
v -15.10278 63.73264 10.30048
v -8.981689 57.3327 3.966003
v -7.186829 57.3327 14.16455
v -15.10278 45.20852 10.30048
v -2.722351 63.73264 16.40198
v -6.855286 57.3327 8.622986
v 3.398743 57.3327 10.0675
v -2.722351 45.20852 16.40198
v -2.722351 63.73264 16.40198
v -11.39777 57.3327 17.92877
v -6.855286 57.3327 8.622986
v -2.722351 45.20852 16.40198
v -2.722351 63.73264 16.40198
v -3.951111 57.3327 25.12457
v -11.39777 57.3327 17.92877
v -2.722351 45.20852 16.40198
v -2.722351 63.73264 16.40198
v 5.193604 57.3327 20.26605
v -3.951111 57.3327 25.12457
v -2.722351 45.20852 16.40198
v -2.722351 63.73264 16.40198
v 3.398743 57.3327 10.0675
v 5.193604 57.3327 20.26605
v -2.722351 45.20852 16.40198
v 0.821228 63.73264 -0.4512939
v -3.311707 57.3327 -8.230286
v 6.942322 57.3327 -6.785767
v 0.821228 45.20852 -0.4512939
v 0.821228 63.73264 -0.4512939
v -7.854187 57.3327 1.0755
v -3.311707 57.3327 -8.230286
v 0.821228 45.20852 -0.4512939
v 0.821228 63.73264 -0.4512939
v -0.4075317 57.3327 8.271301
v -7.854187 57.3327 1.0755
v 0.821228 45.20852 -0.4512939
v 0.821228 63.73264 -0.4512939
v 8.737183 57.3327 3.412781
v -0.4075317 57.3327 8.271301
v 0.821228 45.20852 -0.4512939
v 0.821228 63.73264 -0.4512939
v 6.942322 57.3327 -6.785767
v 8.737183 57.3327 3.412781
v 0.821228 45.20852 -0.4512939
v 14.11084 63.73264 11.24603
v 9.977905 57.3327 3.467041
v 20.23193 57.3327 4.91156
v 14.11084 45.20852 11.24603
v 14.11084 63.73264 11.24603
v 5.435425 57.3327 12.77283
v 9.977905 57.3327 3.467041
v 14.11084 45.20852 11.24603
v 14.11084 63.73264 11.24603
v 12.88208 57.3327 19.96863
v 5.435425 57.3327 12.77283
v 14.11084 45.20852 11.24603
v 14.11084 63.73264 11.24603
v 22.02679 57.3327 15.11011
v 12.88208 57.3327 19.96863
v 14.11084 45.20852 11.24603
v 14.11084 63.73264 11.24603
v 20.23193 57.3327 4.91156
v 22.02679 57.3327 15.11011
v 14.11084 45.20852 11.24603
v 15.24847 62.57486 -0.6984253
v 11.63214 56.97495 -7.505005
v 20.60443 56.97495 -6.241089
v 15.24847 46.3663 -0.6984253
v 15.24847 62.57486 -0.6984253
v 7.657532 56.97495 0.6375122
v 11.63214 56.97495 -7.505005
v 15.24847 46.3663 -0.6984253
v 15.24847 62.57486 -0.6984253
v 14.17328 56.97495 6.933838
v 7.657532 56.97495 0.6375122
v 15.24847 46.3663 -0.6984253
v 15.24847 62.57486 -0.6984253
v 22.17493 56.97495 2.682617
v 14.17328 56.97495 6.933838
v 15.24847 46.3663 -0.6984253
v 15.24847 62.57486 -0.6984253
v 20.60443 56.97495 -6.241089
v 22.17493 56.97495 2.682617
v 15.24847 46.3663 -0.6984253
v 11.25183 62.17749 -11.6441
v 7.118896 55.77756 -19.4231
v 17.37292 55.77756 -17.97858
v 11.25183 43.65338 -11.6441
v 11.25183 62.17749 -11.6441
v 2.576416 55.77756 -10.11731
v 7.118896 55.77756 -19.4231
v 11.25183 43.65338 -11.6441
v 11.25183 62.17749 -11.6441
v 10.02307 55.77756 -2.921509
v 2.576416 55.77756 -10.11731
v 11.25183 43.65338 -11.6441
v 11.25183 62.17749 -11.6441
v 19.16779 55.77756 -7.780029
v 10.02307 55.77756 -2.921509
v 11.25183 43.65338 -11.6441
v 11.25183 62.17749 -11.6441
v 17.37292 55.77756 -17.97858
v 19.16779 55.77756 -7.780029
v 11.25183 43.65338 -11.6441
v 20.84546 52.41696 -21.57208
v -0.5445557 49.30469 -31.79034
v 22.09406 49.30469 -22.86426
v -0.5137939 52.41696 -29.99371
v 18.34821 52.41696 -18.98779
v -22.86426 49.30469 -22.09412
v -0.4522705 52.41696 -26.40051
v 17.09955 49.30469 -17.69562
v -21.57208 52.41696 -20.84546
v -31.79034 49.30469 0.5445557
v -0.4214478 49.30469 -24.60394
v 18.34821 46.19241 -18.98779
v -29.99371 52.41696 0.5137939
v -22.09412 49.30469 22.86426
v -18.98779 52.41696 -18.34821
v -0.4522705 46.19241 -26.40051
v 20.84546 46.19241 -21.57208
v -20.84546 52.41696 21.57208
v 0.5445557 49.30469 31.79034
v -17.69562 49.30469 -17.09955
v -26.40051 52.41696 0.4522705
v -0.5137939 46.19241 -29.99371
v 22.09406 49.30469 -22.86426
v -0.5445557 49.30469 -31.79034
v 0.5137939 52.41696 29.99371
v 22.86426 49.30469 22.09406
v -18.98779 46.19244 -18.34821
v -21.57208 46.19244 -20.84546
v -22.86426 49.30469 -22.09412
v -24.60394 49.30469 0.4214478
v -18.34821 52.41696 18.98779
v 21.57208 52.41693 20.84546
v 31.79034 49.30469 -0.5445557
v -29.99371 46.19241 0.5137939
v -31.79034 49.30469 0.5445557
v -26.40051 46.19241 0.4522705
v -17.09955 49.30469 17.69562
v 0.4522705 52.41696 26.40051
v 29.99371 52.41696 -0.5137939
v 22.09406 49.30469 -22.86426
v 20.84546 52.41696 -21.57208
v -20.84546 46.19241 21.57208
v -22.09412 49.30469 22.86426
v -18.34821 46.19241 18.98779
v 18.98779 52.41693 18.34821
v 26.40051 52.41696 -0.4522705
v 18.34821 52.41696 -18.98779
v 0.4214478 49.30469 24.60394
v 0.5137939 46.19241 29.99371
v 0.5445557 49.30469 31.79034
v 0.4522705 46.19241 26.40051
v 17.69562 49.30469 17.09955
v 24.60394 49.30469 -0.4214478
v 17.09955 49.30469 -17.69562
v 18.98779 46.19241 18.34821
v 21.57208 46.19241 20.84546
v 22.86426 49.30469 22.09406
v 26.40051 46.19241 -0.4522705
v 18.34821 46.19241 -18.98779
v 29.99371 46.19241 -0.5137939
v 31.79034 49.30469 -0.5445557
v 20.84546 46.19241 -21.57208
v 22.09406 49.30469 -22.86426
v -26.1441 47.86862 7.487366
v -20.58594 0 5.895569
v -20.77576 0 -5.187256
v -26.38519 47.86862 -6.587769
v -6.587708 47.86862 26.38507
v -5.187195 0 20.77557
v -14.88013 0 15.39862
v -18.89771 47.86862 19.55627
v 26.38513 47.86859 6.587524
v 20.77563 0 5.187012
v 15.39868 0 14.87994
v 19.55634 47.86859 18.89752
v 26.14398 47.86862 -7.48761
v 20.58582 0 -5.895813
v 20.77563 0 5.187012
v 26.38513 47.86859 6.587524
v 19.55634 47.86859 18.89752
v 15.39868 0 14.87994
v 5.895569 0 20.58575
v 7.487427 47.86862 26.14392
v -18.89771 47.86862 19.55627
v -14.88013 0 15.39862
v -20.58594 0 5.895569
v -26.1441 47.86862 7.487366
v 6.587585 47.86862 -26.38525
v 5.187073 0 -20.77582
v 14.88 0 -15.39886
v 18.89764 47.86862 -19.55652
v -19.55646 47.86862 -18.89777
v -15.3988 0 -14.88019
v -5.895752 0 -20.586
v -7.487549 47.86862 -26.14417
v -7.487549 47.86862 -26.14417
v -5.895752 0 -20.586
v 5.187073 0 -20.77582
v 6.587585 47.86862 -26.38525
v -26.38519 47.86862 -6.587769
v -20.77576 0 -5.187256
v -15.3988 0 -14.88019
v -19.55646 47.86862 -18.89777
v 7.487427 47.86862 26.14392
v 5.895569 0 20.58575
v -5.187195 0 20.77557
v -6.587708 47.86862 26.38507
v 18.89764 47.86862 -19.55652
v 14.88 0 -15.39886
v 20.58582 0 -5.895813
v 26.14398 47.86862 -7.48761
vt 0.2402344 0.7294922
vt 0.2445068 0.7363281
vt 0.2445068 0.7294922
vt 0.2489014 0.7294922
vt 0.2402344 0.7363281
vt 0.2445068 0.7431641
vt 0.2445068 0.7363281
vt 0.2489014 0.7363281
vt 0.2402344 0.7431641
vt 0.2445068 0.75
vt 0.2445068 0.7431641
vt 0.2489014 0.7431641
vt 0.2402344 0.75
vt 0.2445068 0.7568359
vt 0.2445068 0.75
vt 0.2489014 0.75
vt 0.2402344 0.7568359
vt 0.2445068 0.7636719
vt 0.2445068 0.7568359
vt 0.2489014 0.7568359
vt 0.2402344 0.7294922
vt 0.2445068 0.7363281
vt 0.2445068 0.7294922
vt 0.2489014 0.7294922
vt 0.2402344 0.7363281
vt 0.2445068 0.7431641
vt 0.2445068 0.7363281
vt 0.2489014 0.7363281
vt 0.2402344 0.7431641
vt 0.2445068 0.75
vt 0.2445068 0.7431641
vt 0.2489014 0.7431641
vt 0.2402344 0.75
vt 0.2445068 0.7568359
vt 0.2445068 0.75
vt 0.2489014 0.75
vt 0.2402344 0.7568359
vt 0.2445068 0.7636719
vt 0.2445068 0.7568359
vt 0.2489014 0.7568359
vt 0.2402344 0.7294922
vt 0.2445068 0.7363281
vt 0.2445068 0.7294922
vt 0.2489014 0.7294922
vt 0.2402344 0.7363281
vt 0.2445068 0.7431641
vt 0.2445068 0.7363281
vt 0.2489014 0.7363281
vt 0.2402344 0.7431641
vt 0.2445068 0.75
vt 0.2445068 0.7431641
vt 0.2489014 0.7431641
vt 0.2402344 0.75
vt 0.2445068 0.7568359
vt 0.2445068 0.75
vt 0.2489014 0.75
vt 0.2402344 0.7568359
vt 0.2445068 0.7636719
vt 0.2445068 0.7568359
vt 0.2489014 0.7568359
vt 0.2402344 0.7294922
vt 0.2445068 0.7363281
vt 0.2445068 0.7294922
vt 0.2489014 0.7294922
vt 0.2402344 0.7363281
vt 0.2445068 0.7431641
vt 0.2445068 0.7363281
vt 0.2489014 0.7363281
vt 0.2402344 0.7431641
vt 0.2445068 0.75
vt 0.2445068 0.7431641
vt 0.2489014 0.7431641
vt 0.2402344 0.75
vt 0.2445068 0.7568359
vt 0.2445068 0.75
vt 0.2489014 0.75
vt 0.2402344 0.7568359
vt 0.2445068 0.7636719
vt 0.2445068 0.7568359
vt 0.2489014 0.7568359
vt 0.2402344 0.7294922
vt 0.2445068 0.7363281
vt 0.2445068 0.7294922
vt 0.2489014 0.7294922
vt 0.2402344 0.7363281
vt 0.2445068 0.7431641
vt 0.2445068 0.7363281
vt 0.2489014 0.7363281
vt 0.2402344 0.7431641
vt 0.2445068 0.75
vt 0.2445068 0.7431641
vt 0.2489014 0.7431641
vt 0.2402344 0.75
vt 0.2445068 0.7568359
vt 0.2445068 0.75
vt 0.2489014 0.75
vt 0.2402344 0.7568359
vt 0.2445068 0.7636719
vt 0.2445068 0.7568359
vt 0.2489014 0.7568359
vt 0.2402344 0.7294922
vt 0.2445068 0.7363281
vt 0.2445068 0.7294922
vt 0.2489014 0.7294922
vt 0.2402344 0.7363281
vt 0.2445068 0.7431641
vt 0.2445068 0.7363281
vt 0.2489014 0.7363281
vt 0.2402344 0.7431641
vt 0.2445068 0.75
vt 0.2445068 0.7431641
vt 0.2489014 0.7431641
vt 0.2402344 0.75
vt 0.2445068 0.7568359
vt 0.2445068 0.75
vt 0.2489014 0.75
vt 0.2402344 0.7568359
vt 0.2445068 0.7636719
vt 0.2445068 0.7568359
vt 0.2489014 0.7568359
vt 0.2402344 0.7294922
vt 0.2445068 0.7363281
vt 0.2445068 0.7294922
vt 0.2489014 0.7294922
vt 0.2402344 0.7363281
vt 0.2445068 0.7431641
vt 0.2445068 0.7363281
vt 0.2489014 0.7363281
vt 0.2402344 0.7431641
vt 0.2445068 0.75
vt 0.2445068 0.7431641
vt 0.2489014 0.7431641
vt 0.2402344 0.75
vt 0.2445068 0.7568359
vt 0.2445068 0.75
vt 0.2489014 0.75
vt 0.2402344 0.7568359
vt 0.2445068 0.7636719
vt 0.2445068 0.7568359
vt 0.2489014 0.7568359
vt 0.2402344 0.7294922
vt 0.2445068 0.7363281
vt 0.2445068 0.7294922
vt 0.2489014 0.7294922
vt 0.2402344 0.7363281
vt 0.2445068 0.7431641
vt 0.2445068 0.7363281
vt 0.2489014 0.7363281
vt 0.2402344 0.7431641
vt 0.2445068 0.75
vt 0.2445068 0.7431641
vt 0.2489014 0.7431641
vt 0.2402344 0.75
vt 0.2445068 0.7568359
vt 0.2445068 0.75
vt 0.2489014 0.75
vt 0.2402344 0.7568359
vt 0.2445068 0.7636719
vt 0.2445068 0.7568359
vt 0.2489014 0.7568359
vt 0.2402344 0.7294922
vt 0.2445068 0.7363281
vt 0.2445068 0.7294922
vt 0.2489014 0.7294922
vt 0.2402344 0.7363281
vt 0.2445068 0.7431641
vt 0.2445068 0.7363281
vt 0.2489014 0.7363281
vt 0.2402344 0.7431641
vt 0.2445068 0.75
vt 0.2445068 0.7431641
vt 0.2489014 0.7431641
vt 0.2402344 0.75
vt 0.2445068 0.7568359
vt 0.2445068 0.75
vt 0.2489014 0.75
vt 0.2402344 0.7568359
vt 0.2445068 0.7636719
vt 0.2445068 0.7568359
vt 0.2489014 0.7568359
vt 0.3156738 0.9609375
vt 0.3095703 0.9580078
vt 0.3095703 0.9609375
vt 0.3156738 0.9580078
vt 0.3215332 0.9609375
vt 0.3095703 0.9545898
vt 0.3215332 0.9580078
vt 0.3276367 0.9609375
vt 0.3156738 0.9545898
vt 0.3095703 0.9511719
vt 0.3276367 0.9580078
vt 0.3337402 0.9609375
vt 0.3156738 0.9511719
vt 0.3095703 0.9477539
vt 0.3215332 0.9545898
vt 0.3337402 0.9580078
vt 0.3398438 0.9609375
vt 0.3156738 0.9477539
vt 0.3095703 0.9443359
vt 0.3276367 0.9545898
vt 0.3215332 0.9511719
vt 0.3398438 0.9580078
vt 0.3457031 0.9609375
vt 0.3457031 0.9580078
vt 0.3156738 0.9443359
vt 0.3095703 0.940918
vt 0.3337402 0.9545898
vt 0.3398438 0.9545898
vt 0.3457031 0.9545898
vt 0.3276367 0.9511719
vt 0.3215332 0.9477539
vt 0.3156738 0.940918
vt 0.3095703 0.9375
vt 0.3398438 0.9511719
vt 0.3457031 0.9511719
vt 0.3337402 0.9511719
vt 0.3276367 0.9477539
vt 0.3215332 0.9443359
vt 0.3156738 0.9375
vt 0.3095703 0.934082
vt 0.3156738 0.934082
vt 0.3398438 0.9477539
vt 0.3457031 0.9477539
vt 0.3337402 0.9477539
vt 0.3215332 0.940918
vt 0.3215332 0.9375
vt 0.3215332 0.934082
vt 0.3276367 0.9443359
vt 0.3398438 0.9443359
vt 0.3457031 0.9443359
vt 0.3337402 0.9443359
vt 0.3276367 0.940918
vt 0.3276367 0.9375
vt 0.3276367 0.934082
vt 0.3337402 0.940918
vt 0.3398438 0.940918
vt 0.3457031 0.940918
vt 0.3337402 0.9375
vt 0.3337402 0.934082
vt 0.3398438 0.9375
vt 0.3457031 0.9375
vt 0.3398438 0.934082
vt 0.3457031 0.934082
vt 0.3371582 0.9682617
vt 0.3371582 0.9316406
vt 0.3347168 0.9316406
vt 0.3347168 0.9682617
vt 0.342041 0.9682617
vt 0.342041 0.9316406
vt 0.3395996 0.9316406
vt 0.3395996 0.9682617
vt 0.2563477 0.777832
vt 0.2563477 0.7412109
vt 0.2539063 0.7412109
vt 0.2539063 0.777832
vt 0.3520508 0.9682617
vt 0.3520508 0.9316406
vt 0.3496094 0.9316406
vt 0.3496094 0.9682617
vt 0.3469238 0.9682617
vt 0.3469238 0.9316406
vt 0.3444824 0.9316406
vt 0.3444824 0.9682617
vt 0.24646 0.777832
vt 0.24646 0.7412109
vt 0.2438965 0.7412109
vt 0.2438965 0.777832
vt 0.3271484 0.9682617
vt 0.3271484 0.9316406
vt 0.324707 0.9316406
vt 0.324707 0.9682617
vt 0.3320313 0.9682617
vt 0.3320313 0.9316406
vt 0.3295898 0.9316406
vt 0.3295898 0.9682617
vt 0.2365723 0.777832
vt 0.2365723 0.7412109
vt 0.2340088 0.7412109
vt 0.2340088 0.777832
vt 0.2414551 0.777832
vt 0.2414551 0.7412109
vt 0.2390137 0.7412109
vt 0.2390137 0.777832
vt 0.2514648 0.777832
vt 0.2514648 0.7412109
vt 0.2489014 0.7412109
vt 0.2489014 0.777832
vt 0.2315674 0.777832
vt 0.2315674 0.7412109
vt 0.229126 0.7412109
vt 0.229126 0.777832
vn 1.013279E-06 1 2.980232E-07
vn -0.465332 0.126709 -0.8759766
vn 0.6894531 0.126709 -0.7133789
vn 8.940697E-07 -1 0
vn 1.013279E-06 1 2.980232E-07
vn -0.9770508 0.126709 0.171875
vn -0.465332 0.126709 -0.8759766
vn 8.940697E-07 -1 0
vn 1.013279E-06 1 2.980232E-07
vn -0.1384277 0.126709 0.9824219
vn -0.9770508 0.126709 0.171875
vn 8.940697E-07 -1 0
vn 1.013279E-06 1 2.980232E-07
vn 0.8916016 0.126709 0.4350586
vn -0.1384277 0.126709 0.9824219
vn 8.940697E-07 -1 0
vn 1.013279E-06 1 2.980232E-07
vn 0.6894531 0.126709 -0.7133789
vn 0.8916016 0.126709 0.4350586
vn 8.940697E-07 -1 0
vn 2.980232E-07 1 0
vn -0.465332 0.126709 -0.8759766
vn 0.6894531 0.126709 -0.7133789
vn 2.384186E-07 -1 0
vn 2.980232E-07 1 0
vn -0.9770508 0.126709 0.171875
vn -0.465332 0.126709 -0.8759766
vn 2.384186E-07 -1 0
vn 2.980232E-07 1 0
vn -0.1384277 0.126709 0.9824219
vn -0.9770508 0.126709 0.171875
vn 2.384186E-07 -1 0
vn 2.980232E-07 1 0
vn 0.8916016 0.126709 0.4350586
vn -0.1384277 0.126709 0.9824219
vn 2.384186E-07 -1 0
vn 2.980232E-07 1 0
vn 0.6894531 0.126709 -0.7133789
vn 0.8916016 0.126709 0.4350586
vn 2.384186E-07 -1 0
vn 1.013279E-06 1 2.980232E-07
vn -0.465332 0.126709 -0.8759766
vn 0.6894531 0.126709 -0.7133789
vn 9.536743E-07 -1 1.192093E-07
vn 1.013279E-06 1 2.980232E-07
vn -0.9770508 0.126709 0.171875
vn -0.465332 0.126709 -0.8759766
vn 9.536743E-07 -1 1.192093E-07
vn 1.013279E-06 1 2.980232E-07
vn -0.1384277 0.126709 0.9824219
vn -0.9770508 0.126709 0.171875
vn 9.536743E-07 -1 1.192093E-07
vn 1.013279E-06 1 2.980232E-07
vn 0.8916016 0.126709 0.4350586
vn -0.1384277 0.126709 0.9824219
vn 9.536743E-07 -1 1.192093E-07
vn 1.013279E-06 1 2.980232E-07
vn 0.6894531 0.126709 -0.7133789
vn 0.8916016 0.126709 0.4350586
vn 9.536743E-07 -1 1.192093E-07
vn 9.536743E-07 1 2.980232E-07
vn -0.465332 0.126709 -0.8759766
vn 0.6894531 0.126709 -0.7133789
vn 1.013279E-06 -1 1.192093E-07
vn 9.536743E-07 1 2.980232E-07
vn -0.9770508 0.126709 0.171875
vn -0.465332 0.126709 -0.8759766
vn 1.013279E-06 -1 1.192093E-07
vn 9.536743E-07 1 2.980232E-07
vn -0.1384277 0.126709 0.9824219
vn -0.9770508 0.126709 0.171875
vn 1.013279E-06 -1 1.192093E-07
vn 9.536743E-07 1 2.980232E-07
vn 0.8916016 0.126709 0.4350586
vn -0.1384277 0.126709 0.9824219
vn 1.013279E-06 -1 1.192093E-07
vn 9.536743E-07 1 2.980232E-07
vn 0.6894531 0.126709 -0.7133789
vn 0.8916016 0.126709 0.4350586
vn 1.013279E-06 -1 1.192093E-07
vn 1.013279E-06 1 2.384186E-07
vn -0.465332 0.126709 -0.8759766
vn 0.6894531 0.126709 -0.7133789
vn 9.536743E-07 -1 0
vn 1.013279E-06 1 2.384186E-07
vn -0.9770508 0.126709 0.171875
vn -0.465332 0.126709 -0.8759766
vn 9.536743E-07 -1 0
vn 1.013279E-06 1 2.384186E-07
vn -0.1384277 0.126709 0.9824219
vn -0.9770508 0.126709 0.171875
vn 9.536743E-07 -1 0
vn 1.013279E-06 1 2.384186E-07
vn 0.8916016 0.126709 0.4350586
vn -0.1384277 0.126709 0.9824219
vn 9.536743E-07 -1 0
vn 1.013279E-06 1 2.384186E-07
vn 0.6894531 0.126709 -0.7133789
vn 0.8916016 0.126709 0.4350586
vn 9.536743E-07 -1 0
vn 1.013279E-06 1 2.980232E-07
vn -0.465332 0.126709 -0.8759766
vn 0.6894531 0.126709 -0.7133789
vn 1.013279E-06 -1 0
vn 1.013279E-06 1 2.980232E-07
vn -0.9770508 0.126709 0.171875
vn -0.465332 0.126709 -0.8759766
vn 1.013279E-06 -1 0
vn 1.013279E-06 1 2.980232E-07
vn -0.1384277 0.126709 0.9824219
vn -0.9770508 0.126709 0.171875
vn 1.013279E-06 -1 0
vn 1.013279E-06 1 2.980232E-07
vn 0.8916016 0.126709 0.4350586
vn -0.1384277 0.126709 0.9824219
vn 1.013279E-06 -1 0
vn 1.013279E-06 1 2.980232E-07
vn 0.6894531 0.126709 -0.7133789
vn 0.8916016 0.126709 0.4350586
vn 1.013279E-06 -1 0
vn 1.013279E-06 1 2.980232E-07
vn -0.465332 0.126709 -0.8759766
vn 0.6894531 0.126709 -0.7133789
vn 9.536743E-07 -1 0
vn 1.013279E-06 1 2.980232E-07
vn -0.9770508 0.126709 0.171875
vn -0.465332 0.126709 -0.8759766
vn 9.536743E-07 -1 0
vn 1.013279E-06 1 2.980232E-07
vn -0.1384277 0.126709 0.9824219
vn -0.9770508 0.126709 0.171875
vn 9.536743E-07 -1 0
vn 1.013279E-06 1 2.980232E-07
vn 0.8916016 0.126709 0.4350586
vn -0.1384277 0.126709 0.9824219
vn 9.536743E-07 -1 0
vn 1.013279E-06 1 2.980232E-07
vn 0.6894531 0.126709 -0.7133789
vn 0.8916016 0.126709 0.4350586
vn 9.536743E-07 -1 0
vn 4.172325E-07 1 -1.788139E-07
vn -0.465332 0.126709 -0.8759766
vn 0.6894531 0.126709 -0.7133789
vn 4.172325E-07 -1 1.788139E-07
vn 4.172325E-07 1 -1.788139E-07
vn -0.9770508 0.126709 0.171875
vn -0.465332 0.126709 -0.8759766
vn 4.172325E-07 -1 1.788139E-07
vn 4.172325E-07 1 -1.788139E-07
vn -0.1384277 0.126709 0.9824219
vn -0.9770508 0.126709 0.171875
vn 4.172325E-07 -1 1.788139E-07
vn 4.172325E-07 1 -1.788139E-07
vn 0.8916016 0.126709 0.4350586
vn -0.1384277 0.126709 0.9824219
vn 4.172325E-07 -1 1.788139E-07
vn 4.172325E-07 1 -1.788139E-07
vn 0.6894531 0.126709 -0.7133789
vn 0.8916016 0.126709 0.4350586
vn 4.172325E-07 -1 1.788139E-07
vn 9.536743E-07 1 0
vn -0.465332 0.126709 -0.8759766
vn 0.6894531 0.126709 -0.7133789
vn 7.748604E-07 -1 2.384186E-07
vn 9.536743E-07 1 0
vn -0.9770508 0.126709 0.171875
vn -0.465332 0.126709 -0.8759766
vn 7.748604E-07 -1 2.384186E-07
vn 9.536743E-07 1 0
vn -0.1384277 0.126709 0.9824219
vn -0.9770508 0.126709 0.171875
vn 7.748604E-07 -1 2.384186E-07
vn 9.536743E-07 1 0
vn 0.8916016 0.126709 0.4350586
vn -0.1384277 0.126709 0.9824219
vn 7.748604E-07 -1 2.384186E-07
vn 9.536743E-07 1 0
vn 0.6894531 0.126709 -0.7133789
vn 0.8916016 0.126709 0.4350586
vn 7.748604E-07 -1 2.384186E-07
vn 0.404541 0.8129883 -0.418457
vn -0.01712036 -7.152557E-07 -1
vn 0.6948242 -1.192093E-07 -0.7192383
vn -0.009971619 0.8129883 -0.5820313
vn -0.2746582 0.918457 0.2841797
vn -0.7192383 -8.940697E-07 -0.6948242
vn 0.006767273 0.918457 0.3950195
vn -0.6948242 -2.384186E-07 0.7192383
vn -0.418457 0.8129883 -0.404541
vn -1 -4.768372E-07 0.01712036
vn 0.01712036 -9.536743E-07 1
vn -0.2746582 -0.918457 0.2841797
vn -0.5820313 0.8129883 0.009971619
vn -0.6948242 -1.192093E-07 0.7192383
vn 0.2841797 0.918457 0.2746582
vn 0.006767273 -0.918457 0.3950195
vn 0.404541 -0.8129883 -0.418457
vn -0.404541 0.8129883 0.418457
vn 0.01712036 3.576279E-07 1
vn 0.7192383 -1.490116E-06 0.6948242
vn 0.3950195 0.918457 -0.006767273
vn -0.009971619 -0.8129883 -0.5820313
vn 0.6948242 -1.192093E-07 -0.7192383
vn -0.01712036 -7.152557E-07 -1
vn 0.009971619 0.8129883 0.5820313
vn 0.7192383 7.748604E-07 0.6948242
vn 0.2841797 -0.918457 0.2746582
vn -0.418457 -0.8129883 -0.404541
vn -0.7192383 -8.940697E-07 -0.6948242
vn 1 -5.364418E-07 -0.01712036
vn 0.2746582 0.918457 -0.2841797
vn 0.418457 0.8129883 0.404541
vn 1 4.768372E-07 -0.01712036
vn -0.5820313 -0.8129883 0.009971619
vn -1 -4.768372E-07 0.01712036
vn 0.3950195 -0.918457 -0.006767273
vn 0.6948242 -2.384186E-07 -0.7192383
vn -0.006767273 0.918457 -0.3950195
vn 0.5820313 0.8129883 -0.009971619
vn 0.6948242 -1.192093E-07 -0.7192383
vn 0.404541 0.8129883 -0.418457
vn -0.404541 -0.8129883 0.418457
vn -0.6948242 -1.192093E-07 0.7192383
vn 0.2746582 -0.918457 -0.2841797
vn -0.2841797 0.918457 -0.2746582
vn -0.3950195 0.918457 0.006771088
vn -0.2746582 0.918457 0.2841797
vn -0.01712036 1.788139E-07 -1
vn 0.009971619 -0.8129883 0.5820313
vn 0.01712036 3.576279E-07 1
vn -0.006767273 -0.918457 -0.3950195
vn -0.7192383 1.192093E-06 -0.6948242
vn -1 5.364418E-07 0.01712036
vn -0.6948242 -2.384186E-07 0.7192383
vn -0.2841797 -0.918457 -0.2746582
vn 0.418457 -0.8129883 0.404541
vn 0.7192383 7.748604E-07 0.6948242
vn -0.3950195 -0.918457 0.006767273
vn -0.2746582 -0.918457 0.2841797
vn 0.5820313 -0.8129883 -0.009971619
vn 1 4.768372E-07 -0.01712036
vn 0.404541 -0.8129883 -0.418457
vn 0.6948242 -1.192093E-07 -0.7192383
vn -0.9545898 -0.1199341 0.2734375
vn -0.9545898 -0.1199341 0.2734375
vn -0.9633789 -0.1199341 -0.2404785
vn -0.9633789 -0.1199341 -0.2404785
vn -0.2404785 -0.1199341 0.9633789
vn -0.2404785 -0.1199341 0.9633789
vn -0.6899414 -0.1199341 0.7138672
vn -0.6899414 -0.1199341 0.7138672
vn 0.9633789 -0.1199341 0.2404785
vn 0.9633789 -0.1199341 0.2404785
vn 0.7138672 -0.1199341 0.6899414
vn 0.7138672 -0.1199341 0.6899414
vn 0.9545898 -0.1199341 -0.2734375
vn 0.9545898 -0.1199341 -0.2734375
vn 0.9633789 -0.1199341 0.2404785
vn 0.9633789 -0.1199341 0.2404785
vn 0.7138672 -0.1199341 0.6899414
vn 0.7138672 -0.1199341 0.6899414
vn 0.2734375 -0.1199341 0.9545898
vn 0.2734375 -0.1199341 0.9545898
vn -0.6899414 -0.1199341 0.7138672
vn -0.6899414 -0.1199341 0.7138672
vn -0.9545898 -0.1199341 0.2734375
vn -0.9545898 -0.1199341 0.2734375
vn 0.2404785 -0.1199341 -0.9633789
vn 0.2404785 -0.1199341 -0.9633789
vn 0.6899414 -0.1199341 -0.7138672
vn 0.6899414 -0.1199341 -0.7138672
vn -0.7138672 -0.1199341 -0.6899414
vn -0.7138672 -0.1199341 -0.6899414
vn -0.2734375 -0.1199341 -0.9545898
vn -0.2734375 -0.1199341 -0.9545898
vn -0.2734375 -0.1199341 -0.9545898
vn -0.2734375 -0.1199341 -0.9545898
vn 0.2404785 -0.1199341 -0.9633789
vn 0.2404785 -0.1199341 -0.9633789
vn -0.9633789 -0.1199341 -0.2404785
vn -0.9633789 -0.1199341 -0.2404785
vn -0.7138672 -0.1199341 -0.6899414
vn -0.7138672 -0.1199341 -0.6899414
vn 0.2734375 -0.1199341 0.9545898
vn 0.2734375 -0.1199341 0.9545898
vn -0.2404785 -0.1199341 0.9633789
vn -0.2404785 -0.1199341 0.9633789
vn 0.6899414 -0.1199341 -0.7138672
vn 0.6899414 -0.1199341 -0.7138672
vn 0.9545898 -0.1199341 -0.2734375
vn 0.9545898 -0.1199341 -0.2734375
g PopCorn_Bucket_01_0
f 3/3/3 2/2/2 1/1/1
f 2/2/2 3/3/3 4/4/4
f 7/7/7 6/6/6 5/5/5
f 6/6/6 7/7/7 8/8/8
f 11/11/11 10/10/10 9/9/9
f 10/10/10 11/11/11 12/12/12
f 15/15/15 14/14/14 13/13/13
f 14/14/14 15/15/15 16/16/16
f 19/19/19 18/18/18 17/17/17
f 18/18/18 19/19/19 20/20/20
f 23/23/23 22/22/22 21/21/21
f 22/22/22 23/23/23 24/24/24
f 27/27/27 26/26/26 25/25/25
f 26/26/26 27/27/27 28/28/28
f 31/31/31 30/30/30 29/29/29
f 30/30/30 31/31/31 32/32/32
f 35/35/35 34/34/34 33/33/33
f 34/34/34 35/35/35 36/36/36
f 39/39/39 38/38/38 37/37/37
f 38/38/38 39/39/39 40/40/40
f 43/43/43 42/42/42 41/41/41
f 42/42/42 43/43/43 44/44/44
f 47/47/47 46/46/46 45/45/45
f 46/46/46 47/47/47 48/48/48
f 51/51/51 50/50/50 49/49/49
f 50/50/50 51/51/51 52/52/52
f 55/55/55 54/54/54 53/53/53
f 54/54/54 55/55/55 56/56/56
f 59/59/59 58/58/58 57/57/57
f 58/58/58 59/59/59 60/60/60
f 63/63/63 62/62/62 61/61/61
f 62/62/62 63/63/63 64/64/64
f 67/67/67 66/66/66 65/65/65
f 66/66/66 67/67/67 68/68/68
f 71/71/71 70/70/70 69/69/69
f 70/70/70 71/71/71 72/72/72
f 75/75/75 74/74/74 73/73/73
f 74/74/74 75/75/75 76/76/76
f 79/79/79 78/78/78 77/77/77
f 78/78/78 79/79/79 80/80/80
f 83/83/83 82/82/82 81/81/81
f 82/82/82 83/83/83 84/84/84
f 87/87/87 86/86/86 85/85/85
f 86/86/86 87/87/87 88/88/88
f 91/91/91 90/90/90 89/89/89
f 90/90/90 91/91/91 92/92/92
f 95/95/95 94/94/94 93/93/93
f 94/94/94 95/95/95 96/96/96
f 99/99/99 98/98/98 97/97/97
f 98/98/98 99/99/99 100/100/100
f 103/103/103 102/102/102 101/101/101
f 102/102/102 103/103/103 104/104/104
f 107/107/107 106/106/106 105/105/105
f 106/106/106 107/107/107 108/108/108
f 111/111/111 110/110/110 109/109/109
f 110/110/110 111/111/111 112/112/112
f 115/115/115 114/114/114 113/113/113
f 114/114/114 115/115/115 116/116/116
f 119/119/119 118/118/118 117/117/117
f 118/118/118 119/119/119 120/120/120
f 123/123/123 122/122/122 121/121/121
f 122/122/122 123/123/123 124/124/124
f 127/127/127 126/126/126 125/125/125
f 126/126/126 127/127/127 128/128/128
f 131/131/131 130/130/130 129/129/129
f 130/130/130 131/131/131 132/132/132
f 135/135/135 134/134/134 133/133/133
f 134/134/134 135/135/135 136/136/136
f 139/139/139 138/138/138 137/137/137
f 138/138/138 139/139/139 140/140/140
f 143/143/143 142/142/142 141/141/141
f 142/142/142 143/143/143 144/144/144
f 147/147/147 146/146/146 145/145/145
f 146/146/146 147/147/147 148/148/148
f 151/151/151 150/150/150 149/149/149
f 150/150/150 151/151/151 152/152/152
f 155/155/155 154/154/154 153/153/153
f 154/154/154 155/155/155 156/156/156
f 159/159/159 158/158/158 157/157/157
f 158/158/158 159/159/159 160/160/160
f 163/163/163 162/162/162 161/161/161
f 162/162/162 163/163/163 164/164/164
f 167/167/167 166/166/166 165/165/165
f 166/166/166 167/167/167 168/168/168
f 171/171/171 170/170/170 169/169/169
f 170/170/170 171/171/171 172/172/172
f 175/175/175 174/174/174 173/173/173
f 174/174/174 175/175/175 176/176/176
f 179/179/179 178/178/178 177/177/177
f 178/178/178 179/179/179 180/180/180
f 183/183/183 182/182/182 181/181/181
f 182/182/182 184/184/184 181/181/181
f 181/181/181 184/184/184 185/185/185
f 182/182/182 186/186/186 184/184/184
f 184/184/184 187/187/187 185/185/185
f 185/185/185 187/187/187 188/188/188
f 186/186/186 189/189/189 184/184/184
f 184/184/184 189/189/189 187/187/187
f 186/186/186 190/190/190 189/189/189
f 187/187/187 191/191/191 188/188/188
f 188/188/188 191/191/191 192/192/192
f 190/190/190 193/193/193 189/189/189
f 190/190/190 194/194/194 193/193/193
f 189/189/189 195/195/195 187/187/187
f 187/187/187 195/195/195 191/191/191
f 189/189/189 193/193/193 195/195/195
f 191/191/191 196/196/196 192/192/192
f 192/192/192 196/196/196 197/197/197
f 194/194/194 198/198/198 193/193/193
f 194/194/194 199/199/199 198/198/198
f 195/195/195 200/200/200 191/191/191
f 191/191/191 200/200/200 196/196/196
f 193/193/193 201/201/201 195/195/195
f 193/193/193 198/198/198 201/201/201
f 195/195/195 201/201/201 200/200/200
f 196/196/196 202/202/202 197/197/197
f 197/197/197 202/202/202 203/203/203
f 202/202/202 204/204/204 203/203/203
f 199/199/199 205/205/205 198/198/198
f 199/199/199 206/206/206 205/205/205
f 200/200/200 207/207/207 196/196/196
f 196/196/196 207/207/207 202/202/202
f 202/202/202 208/208/208 204/204/204
f 207/207/207 208/208/208 202/202/202
f 208/208/208 209/209/209 204/204/204
f 201/201/201 210/210/210 200/200/200
f 200/200/200 210/210/210 207/207/207
f 198/198/198 211/211/211 201/201/201
f 198/198/198 205/205/205 211/211/211
f 201/201/201 211/211/211 210/210/210
f 206/206/206 212/212/212 205/205/205
f 206/206/206 213/213/213 212/212/212
f 208/208/208 214/214/214 209/209/209
f 214/214/214 215/215/215 209/209/209
f 207/207/207 216/216/216 208/208/208
f 210/210/210 216/216/216 207/207/207
f 216/216/216 214/214/214 208/208/208
f 211/211/211 217/217/217 210/210/210
f 210/210/210 217/217/217 216/216/216
f 205/205/205 218/218/218 211/211/211
f 205/205/205 212/212/212 218/218/218
f 211/211/211 218/218/218 217/217/217
f 213/213/213 219/219/219 212/212/212
f 213/213/213 220/220/220 219/219/219
f 220/220/220 221/221/221 219/219/219
f 214/214/214 222/222/222 215/215/215
f 222/222/222 223/223/223 215/215/215
f 216/216/216 224/224/224 214/214/214
f 217/217/217 224/224/224 216/216/216
f 224/224/224 222/222/222 214/214/214
f 212/212/212 225/225/225 218/218/218
f 212/212/212 219/219/219 225/225/225
f 219/219/219 221/221/221 226/226/226
f 219/219/219 226/226/226 225/225/225
f 221/221/221 227/227/227 226/226/226
f 218/218/218 228/228/228 217/217/217
f 217/217/217 228/228/228 224/224/224
f 218/218/218 225/225/225 228/228/228
f 222/222/222 229/229/229 223/223/223
f 229/229/229 230/230/230 223/223/223
f 224/224/224 231/231/231 222/222/222
f 228/228/228 231/231/231 224/224/224
f 231/231/231 229/229/229 222/222/222
f 225/225/225 232/232/232 228/228/228
f 225/225/225 226/226/226 232/232/232
f 228/228/228 232/232/232 231/231/231
f 226/226/226 227/227/227 233/233/233
f 226/226/226 233/233/233 232/232/232
f 227/227/227 234/234/234 233/233/233
f 232/232/232 235/235/235 231/231/231
f 231/231/231 235/235/235 229/229/229
f 232/232/232 233/233/233 235/235/235
f 229/229/229 236/236/236 230/230/230
f 235/235/235 236/236/236 229/229/229
f 236/236/236 237/237/237 230/230/230
f 233/233/233 234/234/234 238/238/238
f 233/233/233 238/238/238 235/235/235
f 235/235/235 238/238/238 236/236/236
f 234/234/234 239/239/239 238/238/238
f 236/236/236 240/240/240 237/237/237
f 238/238/238 240/240/240 236/236/236
f 238/238/238 239/239/239 240/240/240
f 240/240/240 241/241/241 237/237/237
f 239/239/239 242/242/242 240/240/240
f 240/240/240 242/242/242 241/241/241
f 242/242/242 243/243/243 241/241/241
f 246/246/246 245/245/245 244/244/244
f 247/247/247 246/246/246 244/244/244
f 250/250/250 249/249/249 248/248/248
f 251/251/251 250/250/250 248/248/248
f 254/254/254 253/253/253 252/252/252
f 255/255/255 254/254/254 252/252/252
f 258/258/258 257/257/257 256/256/256
f 259/259/259 258/258/258 256/256/256
f 262/262/262 261/261/261 260/260/260
f 263/263/263 262/262/262 260/260/260
f 266/266/266 265/265/265 264/264/264
f 267/267/267 266/266/266 264/264/264
f 270/270/270 269/269/269 268/268/268
f 271/271/271 270/270/270 268/268/268
f 274/274/274 273/273/273 272/272/272
f 275/275/275 274/274/274 272/272/272
f 278/278/278 277/277/277 276/276/276
f 279/279/279 278/278/278 276/276/276
f 282/282/282 281/281/281 280/280/280
f 283/283/283 282/282/282 280/280/280
f 286/286/286 285/285/285 284/284/284
f 287/287/287 286/286/286 284/284/284
f 290/290/290 289/289/289 288/288/288
f 291/291/291 290/290/290 288/288/288
