g PopCorn_02
v -17.14311 3.9422 15.09069
v -21.27604 -2.457733 7.311694
v -11.02201 -2.457733 8.756213
v -17.14311 -14.58191 15.09069
v -17.14311 3.9422 15.09069
v -25.81852 -2.457733 16.61748
v -21.27604 -2.457733 7.311694
v -17.14311 -14.58191 15.09069
v -17.14311 3.9422 15.09069
v -18.37187 -2.457733 23.81328
v -25.81852 -2.457733 16.61748
v -17.14311 -14.58191 15.09069
v -17.14311 3.9422 15.09069
v -9.227153 -2.457733 18.95476
v -18.37187 -2.457733 23.81328
v -17.14311 -14.58191 15.09069
v -17.14311 3.9422 15.09069
v -11.02201 -2.457733 8.756213
v -9.227153 -2.457733 18.95476
v -17.14311 -14.58191 15.09069
v -0.793376 14.58191 15.42809
v -4.926311 8.181976 7.649096
v 5.327718 8.181976 9.093616
v -0.793376 -3.942199 15.42809
v -0.793376 14.58191 15.42809
v -9.468791 8.181976 16.95488
v -4.926311 8.181976 7.649096
v -0.793376 -3.942199 15.42809
v -0.793376 14.58191 15.42809
v -2.022136 8.181976 24.15068
v -9.468791 8.181976 16.95488
v -0.793376 -3.942199 15.42809
v -0.793376 14.58191 15.42809
v 7.122579 8.181976 19.29216
v -2.022136 8.181976 24.15068
v -0.793376 -3.942199 15.42809
v -0.793376 14.58191 15.42809
v 5.327718 8.181976 9.093616
v 7.122579 8.181976 19.29216
v -0.793376 -3.942199 15.42809
v -1.219096 14.58191 4.338854
v -5.352031 8.181976 -3.440137
v 4.901998 8.181976 -1.995618
v -1.219096 -3.942199 4.338854
v -1.219096 14.58191 4.338854
v -9.894511 8.181976 5.865649
v -5.352031 8.181976 -3.440137
v -1.219096 -3.942199 4.338854
v -1.219096 14.58191 4.338854
v -2.447856 8.181976 13.06145
v -9.894511 8.181976 5.865649
v -1.219096 -3.942199 4.338854
v -1.219096 14.58191 4.338854
v 6.696858 8.181976 8.202929
v -2.447856 8.181976 13.06145
v -1.219096 -3.942199 4.338854
v -1.219096 14.58191 4.338854
v 4.901998 8.181976 -1.995618
v 6.696858 8.181976 8.202929
v -1.219096 -3.942199 4.338854
v 15.97408 14.58191 -14.21827
v 11.84114 8.181976 -21.99726
v 22.09517 8.181976 -20.55275
v 15.97408 -3.942199 -14.21827
v 15.97408 14.58191 -14.21827
v 7.298665 8.181976 -12.69148
v 11.84114 8.181976 -21.99726
v 15.97408 -3.942199 -14.21827
v 15.97408 14.58191 -14.21827
v 14.74532 8.181976 -5.495679
v 7.298665 8.181976 -12.69148
v 15.97408 -3.942199 -14.21827
v 15.97408 14.58191 -14.21827
v 23.89004 8.181976 -10.3542
v 14.74532 8.181976 -5.495679
v 15.97408 -3.942199 -14.21827
v 15.97408 14.58191 -14.21827
v 22.09517 8.181976 -20.55275
v 23.89004 8.181976 -10.3542
v 15.97408 -3.942199 -14.21827
vt 0.2442627 0.7387695
vt 0.2485352 0.7456055
vt 0.2485352 0.7387695
vt 0.2529297 0.7387695
vt 0.2442627 0.7456055
vt 0.2485352 0.7519531
vt 0.2485352 0.7456055
vt 0.2529297 0.7456055
vt 0.2442627 0.7519531
vt 0.2485352 0.7587891
vt 0.2485352 0.7519531
vt 0.2529297 0.7519531
vt 0.2442627 0.7587891
vt 0.2485352 0.765625
vt 0.2485352 0.7587891
vt 0.2529297 0.7587891
vt 0.2442627 0.765625
vt 0.2485352 0.7724609
vt 0.2485352 0.765625
vt 0.2529297 0.765625
vt 0.2442627 0.7387695
vt 0.2485352 0.7456055
vt 0.2485352 0.7387695
vt 0.2529297 0.7387695
vt 0.2442627 0.7456055
vt 0.2485352 0.7519531
vt 0.2485352 0.7456055
vt 0.2529297 0.7456055
vt 0.2442627 0.7519531
vt 0.2485352 0.7587891
vt 0.2485352 0.7519531
vt 0.2529297 0.7519531
vt 0.2442627 0.7587891
vt 0.2485352 0.765625
vt 0.2485352 0.7587891
vt 0.2529297 0.7587891
vt 0.2442627 0.765625
vt 0.2485352 0.7724609
vt 0.2485352 0.765625
vt 0.2529297 0.765625
vt 0.2442627 0.7387695
vt 0.2485352 0.7456055
vt 0.2485352 0.7387695
vt 0.2529297 0.7387695
vt 0.2442627 0.7456055
vt 0.2485352 0.7519531
vt 0.2485352 0.7456055
vt 0.2529297 0.7456055
vt 0.2442627 0.7519531
vt 0.2485352 0.7587891
vt 0.2485352 0.7519531
vt 0.2529297 0.7519531
vt 0.2442627 0.7587891
vt 0.2485352 0.765625
vt 0.2485352 0.7587891
vt 0.2529297 0.7587891
vt 0.2442627 0.765625
vt 0.2485352 0.7724609
vt 0.2485352 0.765625
vt 0.2529297 0.765625
vt 0.2442627 0.7387695
vt 0.2485352 0.7456055
vt 0.2485352 0.7387695
vt 0.2529297 0.7387695
vt 0.2442627 0.7456055
vt 0.2485352 0.7519531
vt 0.2485352 0.7456055
vt 0.2529297 0.7456055
vt 0.2442627 0.7519531
vt 0.2485352 0.7587891
vt 0.2485352 0.7519531
vt 0.2529297 0.7519531
vt 0.2442627 0.7587891
vt 0.2485352 0.765625
vt 0.2485352 0.7587891
vt 0.2529297 0.7587891
vt 0.2442627 0.765625
vt 0.2485352 0.7724609
vt 0.2485352 0.765625
vt 0.2529297 0.765625
vn 1.013279E-06 1 1.192093E-07
vn -0.465332 0.126709 -0.8759766
vn 0.6894531 0.126709 -0.7133789
vn 1.013279E-06 -1 1.788139E-07
vn 1.013279E-06 1 1.192093E-07
vn -0.9770508 0.126709 0.171875
vn -0.465332 0.126709 -0.8759766
vn 1.013279E-06 -1 1.788139E-07
vn 1.013279E-06 1 1.192093E-07
vn -0.1384277 0.126709 0.9824219
vn -0.9770508 0.126709 0.171875
vn 1.013279E-06 -1 1.788139E-07
vn 1.013279E-06 1 1.192093E-07
vn 0.8916016 0.126709 0.4350586
vn -0.1384277 0.126709 0.9824219
vn 1.013279E-06 -1 1.788139E-07
vn 1.013279E-06 1 1.192093E-07
vn 0.6894531 0.126709 -0.7133789
vn 0.8916016 0.126709 0.4350586
vn 1.013279E-06 -1 1.788139E-07
vn 9.536743E-07 1 1.788139E-07
vn -0.465332 0.126709 -0.8759766
vn 0.6894531 0.126709 -0.7133789
vn 8.940697E-07 -1 1.192093E-07
vn 9.536743E-07 1 1.788139E-07
vn -0.9770508 0.126709 0.171875
vn -0.465332 0.126709 -0.8759766
vn 8.940697E-07 -1 1.192093E-07
vn 9.536743E-07 1 1.788139E-07
vn -0.1384277 0.126709 0.9824219
vn -0.9770508 0.126709 0.171875
vn 8.940697E-07 -1 1.192093E-07
vn 9.536743E-07 1 1.788139E-07
vn 0.8916016 0.126709 0.4350586
vn -0.1384277 0.126709 0.9824219
vn 8.940697E-07 -1 1.192093E-07
vn 9.536743E-07 1 1.788139E-07
vn 0.6894531 0.126709 -0.7133789
vn 0.8916016 0.126709 0.4350586
vn 8.940697E-07 -1 1.192093E-07
vn 9.536743E-07 1 1.192093E-07
vn -0.465332 0.126709 -0.8759766
vn 0.6894531 0.126709 -0.7133789
vn 9.536743E-07 -1 1.788139E-07
vn 9.536743E-07 1 1.192093E-07
vn -0.9770508 0.126709 0.171875
vn -0.465332 0.126709 -0.8759766
vn 9.536743E-07 -1 1.788139E-07
vn 9.536743E-07 1 1.192093E-07
vn -0.1384277 0.126709 0.9824219
vn -0.9770508 0.126709 0.171875
vn 9.536743E-07 -1 1.788139E-07
vn 9.536743E-07 1 1.192093E-07
vn 0.8916016 0.126709 0.4350586
vn -0.1384277 0.126709 0.9824219
vn 9.536743E-07 -1 1.788139E-07
vn 9.536743E-07 1 1.192093E-07
vn 0.6894531 0.126709 -0.7133789
vn 0.8916016 0.126709 0.4350586
vn 9.536743E-07 -1 1.788139E-07
vn 8.940697E-07 1 1.788139E-07
vn -0.465332 0.126709 -0.8759766
vn 0.6894531 0.126709 -0.7133789
vn 1.072884E-06 -1 0
vn 8.940697E-07 1 1.788139E-07
vn -0.9770508 0.126709 0.171875
vn -0.465332 0.126709 -0.8759766
vn 1.072884E-06 -1 0
vn 8.940697E-07 1 1.788139E-07
vn -0.1384277 0.126709 0.9824219
vn -0.9770508 0.126709 0.171875
vn 1.072884E-06 -1 0
vn 8.940697E-07 1 1.788139E-07
vn 0.8916016 0.126709 0.4350586
vn -0.1384277 0.126709 0.9824219
vn 1.072884E-06 -1 0
vn 8.940697E-07 1 1.788139E-07
vn 0.6894531 0.126709 -0.7133789
vn 0.8916016 0.126709 0.4350586
vn 1.072884E-06 -1 0
g PopCorn_02_0
f 3/3/3 2/2/2 1/1/1
f 2/2/2 3/3/3 4/4/4
f 7/7/7 6/6/6 5/5/5
f 6/6/6 7/7/7 8/8/8
f 11/11/11 10/10/10 9/9/9
f 10/10/10 11/11/11 12/12/12
f 15/15/15 14/14/14 13/13/13
f 14/14/14 15/15/15 16/16/16
f 19/19/19 18/18/18 17/17/17
f 18/18/18 19/19/19 20/20/20
f 23/23/23 22/22/22 21/21/21
f 22/22/22 23/23/23 24/24/24
f 27/27/27 26/26/26 25/25/25
f 26/26/26 27/27/27 28/28/28
f 31/31/31 30/30/30 29/29/29
f 30/30/30 31/31/31 32/32/32
f 35/35/35 34/34/34 33/33/33
f 34/34/34 35/35/35 36/36/36
f 39/39/39 38/38/38 37/37/37
f 38/38/38 39/39/39 40/40/40
f 43/43/43 42/42/42 41/41/41
f 42/42/42 43/43/43 44/44/44
f 47/47/47 46/46/46 45/45/45
f 46/46/46 47/47/47 48/48/48
f 51/51/51 50/50/50 49/49/49
f 50/50/50 51/51/51 52/52/52
f 55/55/55 54/54/54 53/53/53
f 54/54/54 55/55/55 56/56/56
f 59/59/59 58/58/58 57/57/57
f 58/58/58 59/59/59 60/60/60
f 63/63/63 62/62/62 61/61/61
f 62/62/62 63/63/63 64/64/64
f 67/67/67 66/66/66 65/65/65
f 66/66/66 67/67/67 68/68/68
f 71/71/71 70/70/70 69/69/69
f 70/70/70 71/71/71 72/72/72
f 75/75/75 74/74/74 73/73/73
f 74/74/74 75/75/75 76/76/76
f 79/79/79 78/78/78 77/77/77
f 78/78/78 79/79/79 80/80/80
