g PopCorn_04
v 37.19276 18.52411 -29.90424
v 33.05983 12.12418 -37.68324
v 43.31388 12.12418 -36.23872
v 37.19276 0 -29.90424
v 37.19276 18.52411 -29.90424
v 28.51738 12.12418 -28.37745
v 33.05983 12.12418 -37.68324
v 37.19276 0 -29.90424
v 37.19276 18.52411 -29.90424
v 35.964 12.12418 -21.18165
v 28.51738 12.12418 -28.37745
v 37.19276 0 -29.90424
v 37.19276 18.52411 -29.90424
v 45.10875 12.12418 -26.04017
v 35.964 12.12418 -21.18165
v 37.19276 0 -29.90424
v 37.19276 18.52411 -29.90424
v 43.31388 12.12418 -36.23872
v 45.10875 12.12418 -26.04017
v 37.19276 0 -29.90424
v 26.22215 18.52411 -13.8288
v 18.33632 12.12418 -17.75397
v 27.51835 12.12418 -22.54163
v 26.22215 0 -13.8288
v 26.22215 18.52411 -13.8288
v 20.05223 12.12418 -7.541877
v 18.33632 12.12418 -17.75397
v 26.22215 0 -13.8288
v 26.22215 18.52411 -13.8288
v 30.29475 12.12418 -6.018074
v 20.05223 12.12418 -7.541877
v 26.22215 0 -13.8288
v 26.22215 18.52411 -13.8288
v 34.9091 12.12418 -15.28846
v 30.29475 12.12418 -6.018074
v 26.22215 0 -13.8288
v 26.22215 18.52411 -13.8288
v 27.51835 12.12418 -22.54163
v 34.9091 12.12418 -15.28846
v 26.22215 0 -13.8288
v 25.77373 19.18152 5.925285
v 21.64079 12.78159 -1.853706
v 31.89485 12.78159 -0.4091869
v 25.77373 0.6574097 5.925285
v 25.77373 19.18152 5.925285
v 17.09834 12.78159 7.45208
v 21.64079 12.78159 -1.853706
v 25.77373 0.6574097 5.925285
v 25.77373 19.18152 5.925285
v 24.54497 12.78159 14.64788
v 17.09834 12.78159 7.45208
v 25.77373 0.6574097 5.925285
v 25.77373 19.18152 5.925285
v 33.68971 12.78159 9.78936
v 24.54497 12.78159 14.64788
v 25.77373 0.6574097 5.925285
v 25.77373 19.18152 5.925285
v 31.89485 12.78159 -0.4091869
v 33.68971 12.78159 9.78936
v 25.77373 0.6574097 5.925285
v 8.392074 18.52411 6.301872
v 4.259139 12.12418 -1.477119
v 14.5132 12.12418 -0.03259997
v 8.392074 0 6.301872
v 8.392074 18.52411 6.301872
v -0.2833113 12.12418 7.828667
v 4.259139 12.12418 -1.477119
v 8.392074 0 6.301872
v 8.392074 18.52411 6.301872
v 7.163313 12.12418 15.02447
v -0.2833113 12.12418 7.828667
v 8.392074 0 6.301872
v 8.392074 18.52411 6.301872
v 16.30806 12.12418 10.16595
v 7.163313 12.12418 15.02447
v 8.392074 0 6.301872
v 8.392074 18.52411 6.301872
v 14.5132 12.12418 -0.03259997
v 16.30806 12.12418 10.16595
v 8.392074 0 6.301872
v -8.293717 18.52411 0.8558887
v -12.42665 12.12418 -6.923103
v -2.172594 12.12418 -5.478584
v -8.293717 0 0.8558887
v -8.293717 18.52411 0.8558887
v -16.9691 12.12418 2.382683
v -12.42665 12.12418 -6.923103
v -8.293717 0 0.8558887
v -8.293717 18.52411 0.8558887
v -9.522477 12.12418 9.578484
v -16.9691 12.12418 2.382683
v -8.293717 0 0.8558887
v -8.293717 18.52411 0.8558887
v -0.3777327 12.12418 4.719964
v -9.522477 12.12418 9.578484
v -8.293717 0 0.8558887
v -8.293717 18.52411 0.8558887
v -2.172594 12.12418 -5.478584
v -0.3777327 12.12418 4.719964
v -8.293717 0 0.8558887
v 4.848433 18.52411 23.15508
v 0.7154985 12.12418 15.37609
v 10.96956 12.12418 16.82061
v 4.848433 0 23.15508
v 4.848433 18.52411 23.15508
v -3.826952 12.12418 24.68188
v 0.7154985 12.12418 15.37609
v 4.848433 0 23.15508
v 4.848433 18.52411 23.15508
v 3.619673 12.12418 31.87768
v -3.826952 12.12418 24.68188
v 4.848433 0 23.15508
v 4.848433 18.52411 23.15508
v 12.76442 12.12418 27.01916
v 3.619673 12.12418 31.87768
v 4.848433 0 23.15508
v 4.848433 18.52411 23.15508
v 10.96956 12.12418 16.82061
v 12.76442 12.12418 27.01916
v 4.848433 0 23.15508
v -21.11876 7.884399 31.11401
v -25.2517 1.484467 23.33501
v -14.99763 1.484467 24.77953
v -21.11876 -10.63971 31.11401
v -21.11876 7.884399 31.11401
v -29.79415 1.484467 32.6408
v -25.2517 1.484467 23.33501
v -21.11876 -10.63971 31.11401
v -21.11876 7.884399 31.11401
v -22.34752 1.484467 39.8366
v -29.79415 1.484467 32.6408
v -21.11876 -10.63971 31.11401
v -21.11876 7.884399 31.11401
v -13.20277 1.484467 34.97808
v -22.34752 1.484467 39.8366
v -21.11876 -10.63971 31.11401
v -21.11876 7.884399 31.11401
v -14.99763 1.484467 24.77953
v -13.20277 1.484467 34.97808
v -21.11876 -10.63971 31.11401
v -38.36177 18.52411 18.24407
v -42.49471 12.12418 10.46508
v -32.24068 12.12418 11.9096
v -38.36177 0 18.24407
v -38.36177 18.52411 18.24407
v -47.03719 12.12418 19.77087
v -42.49471 12.12418 10.46508
v -38.36177 0 18.24407
v -38.36177 18.52411 18.24407
v -39.59053 12.12418 26.96667
v -47.03719 12.12418 19.77087
v -38.36177 0 18.24407
v -38.36177 18.52411 18.24407
v -30.44582 12.12418 22.10815
v -39.59053 12.12418 26.96667
v -38.36177 0 18.24407
v -38.36177 18.52411 18.24407
v -32.24068 12.12418 11.9096
v -30.44582 12.12418 22.10815
v -38.36177 0 18.24407
vt 0.2442627 0.7387695
vt 0.2485352 0.7456055
vt 0.2485352 0.7387695
vt 0.2529297 0.7387695
vt 0.2442627 0.7456055
vt 0.2485352 0.7519531
vt 0.2485352 0.7456055
vt 0.2529297 0.7456055
vt 0.2442627 0.7519531
vt 0.2485352 0.7587891
vt 0.2485352 0.7519531
vt 0.2529297 0.7519531
vt 0.2442627 0.7587891
vt 0.2485352 0.765625
vt 0.2485352 0.7587891
vt 0.2529297 0.7587891
vt 0.2442627 0.765625
vt 0.2485352 0.7724609
vt 0.2485352 0.765625
vt 0.2529297 0.765625
vt 0.2442627 0.7387695
vt 0.2485352 0.7456055
vt 0.2485352 0.7387695
vt 0.2529297 0.7387695
vt 0.2442627 0.7456055
vt 0.2485352 0.7519531
vt 0.2485352 0.7456055
vt 0.2529297 0.7456055
vt 0.2442627 0.7519531
vt 0.2485352 0.7587891
vt 0.2485352 0.7519531
vt 0.2529297 0.7519531
vt 0.2442627 0.7587891
vt 0.2485352 0.765625
vt 0.2485352 0.7587891
vt 0.2529297 0.7587891
vt 0.2442627 0.765625
vt 0.2485352 0.7724609
vt 0.2485352 0.765625
vt 0.2529297 0.765625
vt 0.2442627 0.7387695
vt 0.2485352 0.7456055
vt 0.2485352 0.7387695
vt 0.2529297 0.7387695
vt 0.2442627 0.7456055
vt 0.2485352 0.7519531
vt 0.2485352 0.7456055
vt 0.2529297 0.7456055
vt 0.2442627 0.7519531
vt 0.2485352 0.7587891
vt 0.2485352 0.7519531
vt 0.2529297 0.7519531
vt 0.2442627 0.7587891
vt 0.2485352 0.765625
vt 0.2485352 0.7587891
vt 0.2529297 0.7587891
vt 0.2442627 0.765625
vt 0.2485352 0.7724609
vt 0.2485352 0.765625
vt 0.2529297 0.765625
vt 0.2442627 0.7387695
vt 0.2485352 0.7456055
vt 0.2485352 0.7387695
vt 0.2529297 0.7387695
vt 0.2442627 0.7456055
vt 0.2485352 0.7519531
vt 0.2485352 0.7456055
vt 0.2529297 0.7456055
vt 0.2442627 0.7519531
vt 0.2485352 0.7587891
vt 0.2485352 0.7519531
vt 0.2529297 0.7519531
vt 0.2442627 0.7587891
vt 0.2485352 0.765625
vt 0.2485352 0.7587891
vt 0.2529297 0.7587891
vt 0.2442627 0.765625
vt 0.2485352 0.7724609
vt 0.2485352 0.765625
vt 0.2529297 0.765625
vt 0.2442627 0.7387695
vt 0.2485352 0.7456055
vt 0.2485352 0.7387695
vt 0.2529297 0.7387695
vt 0.2442627 0.7456055
vt 0.2485352 0.7519531
vt 0.2485352 0.7456055
vt 0.2529297 0.7456055
vt 0.2442627 0.7519531
vt 0.2485352 0.7587891
vt 0.2485352 0.7519531
vt 0.2529297 0.7519531
vt 0.2442627 0.7587891
vt 0.2485352 0.765625
vt 0.2485352 0.7587891
vt 0.2529297 0.7587891
vt 0.2442627 0.765625
vt 0.2485352 0.7724609
vt 0.2485352 0.765625
vt 0.2529297 0.765625
vt 0.2442627 0.7387695
vt 0.2485352 0.7456055
vt 0.2485352 0.7387695
vt 0.2529297 0.7387695
vt 0.2442627 0.7456055
vt 0.2485352 0.7519531
vt 0.2485352 0.7456055
vt 0.2529297 0.7456055
vt 0.2442627 0.7519531
vt 0.2485352 0.7587891
vt 0.2485352 0.7519531
vt 0.2529297 0.7519531
vt 0.2442627 0.7587891
vt 0.2485352 0.765625
vt 0.2485352 0.7587891
vt 0.2529297 0.7587891
vt 0.2442627 0.765625
vt 0.2485352 0.7724609
vt 0.2485352 0.765625
vt 0.2529297 0.765625
vt 0.2442627 0.7387695
vt 0.2485352 0.7456055
vt 0.2485352 0.7387695
vt 0.2529297 0.7387695
vt 0.2442627 0.7456055
vt 0.2485352 0.7519531
vt 0.2485352 0.7456055
vt 0.2529297 0.7456055
vt 0.2442627 0.7519531
vt 0.2485352 0.7587891
vt 0.2485352 0.7519531
vt 0.2529297 0.7519531
vt 0.2442627 0.7587891
vt 0.2485352 0.765625
vt 0.2485352 0.7587891
vt 0.2529297 0.7587891
vt 0.2442627 0.765625
vt 0.2485352 0.7724609
vt 0.2485352 0.765625
vt 0.2529297 0.765625
vt 0.2442627 0.7387695
vt 0.2485352 0.7456055
vt 0.2485352 0.7387695
vt 0.2529297 0.7387695
vt 0.2442627 0.7456055
vt 0.2485352 0.7519531
vt 0.2485352 0.7456055
vt 0.2529297 0.7456055
vt 0.2442627 0.7519531
vt 0.2485352 0.7587891
vt 0.2485352 0.7519531
vt 0.2529297 0.7519531
vt 0.2442627 0.7587891
vt 0.2485352 0.765625
vt 0.2485352 0.7587891
vt 0.2529297 0.7587891
vt 0.2442627 0.765625
vt 0.2485352 0.7724609
vt 0.2485352 0.765625
vt 0.2529297 0.765625
vn -2.980232E-07 1 2.384186E-07
vn -0.465332 0.126709 -0.8759766
vn 0.6894531 0.126709 -0.7133789
vn -2.384186E-07 -1 3.576279E-07
vn -2.980232E-07 1 2.384186E-07
vn -0.9770508 0.126709 0.171875
vn -0.465332 0.126709 -0.8759766
vn -2.384186E-07 -1 3.576279E-07
vn -2.980232E-07 1 2.384186E-07
vn -0.1384277 0.126709 0.9824219
vn -0.9770508 0.126709 0.171875
vn -2.384186E-07 -1 3.576279E-07
vn -2.980232E-07 1 2.384186E-07
vn 0.8916016 0.126709 0.4350586
vn -0.1384277 0.126709 0.9824219
vn -2.384186E-07 -1 3.576279E-07
vn -2.980232E-07 1 2.384186E-07
vn 0.6894531 0.126709 -0.7133789
vn 0.8916016 0.126709 0.4350586
vn -2.384186E-07 -1 3.576279E-07
vn -2.384186E-07 1 1.192093E-07
vn -0.8881836 0.126709 -0.4418945
vn 0.1459961 0.126709 -0.980957
vn -3.576279E-07 -1 1.192093E-07
vn -2.384186E-07 1 1.192093E-07
vn -0.6948242 0.126709 0.7080078
vn -0.8881836 0.126709 -0.4418945
vn -3.576279E-07 -1 1.192093E-07
vn -2.384186E-07 1 1.192093E-07
vn 0.4584961 0.126709 0.8793945
vn -0.6948242 0.126709 0.7080078
vn -3.576279E-07 -1 1.192093E-07
vn -2.384186E-07 1 1.192093E-07
vn 0.9780273 0.126709 -0.1644287
vn 0.4584961 0.126709 0.8793945
vn -3.576279E-07 -1 1.192093E-07
vn -2.384186E-07 1 1.192093E-07
vn 0.1459961 0.126709 -0.980957
vn 0.9780273 0.126709 -0.1644287
vn -3.576279E-07 -1 1.192093E-07
vn -4.172325E-07 1 1.788139E-07
vn -0.465332 0.126709 -0.8759766
vn 0.6894531 0.126709 -0.7133789
vn -3.576279E-07 -1 2.384186E-07
vn -4.172325E-07 1 1.788139E-07
vn -0.9770508 0.126709 0.171875
vn -0.465332 0.126709 -0.8759766
vn -3.576279E-07 -1 2.384186E-07
vn -4.172325E-07 1 1.788139E-07
vn -0.1384277 0.126709 0.9824219
vn -0.9770508 0.126709 0.171875
vn -3.576279E-07 -1 2.384186E-07
vn -4.172325E-07 1 1.788139E-07
vn 0.8916016 0.126709 0.4350586
vn -0.1384277 0.126709 0.9824219
vn -3.576279E-07 -1 2.384186E-07
vn -4.172325E-07 1 1.788139E-07
vn 0.6894531 0.126709 -0.7133789
vn 0.8916016 0.126709 0.4350586
vn -3.576279E-07 -1 2.384186E-07
vn -4.768372E-07 1 2.384186E-07
vn -0.465332 0.126709 -0.8759766
vn 0.6894531 0.126709 -0.7133789
vn -4.172325E-07 -1 2.384186E-07
vn -4.768372E-07 1 2.384186E-07
vn -0.9770508 0.126709 0.171875
vn -0.465332 0.126709 -0.8759766
vn -4.172325E-07 -1 2.384186E-07
vn -4.768372E-07 1 2.384186E-07
vn -0.1384277 0.126709 0.9824219
vn -0.9770508 0.126709 0.171875
vn -4.172325E-07 -1 2.384186E-07
vn -4.768372E-07 1 2.384186E-07
vn 0.8916016 0.126709 0.4350586
vn -0.1384277 0.126709 0.9824219
vn -4.172325E-07 -1 2.384186E-07
vn -4.768372E-07 1 2.384186E-07
vn 0.6894531 0.126709 -0.7133789
vn 0.8916016 0.126709 0.4350586
vn -4.172325E-07 -1 2.384186E-07
vn -4.768372E-07 1 2.384186E-07
vn -0.465332 0.126709 -0.8759766
vn 0.6894531 0.126709 -0.7133789
vn -4.172325E-07 -1 2.980232E-07
vn -4.768372E-07 1 2.384186E-07
vn -0.9770508 0.126709 0.171875
vn -0.465332 0.126709 -0.8759766
vn -4.172325E-07 -1 2.980232E-07
vn -4.768372E-07 1 2.384186E-07
vn -0.1384277 0.126709 0.9824219
vn -0.9770508 0.126709 0.171875
vn -4.172325E-07 -1 2.980232E-07
vn -4.768372E-07 1 2.384186E-07
vn 0.8916016 0.126709 0.4350586
vn -0.1384277 0.126709 0.9824219
vn -4.172325E-07 -1 2.980232E-07
vn -4.768372E-07 1 2.384186E-07
vn 0.6894531 0.126709 -0.7133789
vn 0.8916016 0.126709 0.4350586
vn -4.172325E-07 -1 2.980232E-07
vn -5.364418E-07 1 2.384186E-07
vn -0.465332 0.126709 -0.8759766
vn 0.6894531 0.126709 -0.7133789
vn -4.172325E-07 -1 2.980232E-07
vn -5.364418E-07 1 2.384186E-07
vn -0.9770508 0.126709 0.171875
vn -0.465332 0.126709 -0.8759766
vn -4.172325E-07 -1 2.980232E-07
vn -5.364418E-07 1 2.384186E-07
vn -0.1384277 0.126709 0.9824219
vn -0.9770508 0.126709 0.171875
vn -4.172325E-07 -1 2.980232E-07
vn -5.364418E-07 1 2.384186E-07
vn 0.8916016 0.126709 0.4350586
vn -0.1384277 0.126709 0.9824219
vn -4.172325E-07 -1 2.980232E-07
vn -5.364418E-07 1 2.384186E-07
vn 0.6894531 0.126709 -0.7133789
vn 0.8916016 0.126709 0.4350586
vn -4.172325E-07 -1 2.980232E-07
vn -7.152557E-07 1 2.980232E-07
vn -0.465332 0.126709 -0.8759766
vn 0.6894531 0.126709 -0.7133789
vn -8.34465E-07 -1 3.576279E-07
vn -7.152557E-07 1 2.980232E-07
vn -0.9770508 0.126709 0.171875
vn -0.465332 0.126709 -0.8759766
vn -8.34465E-07 -1 3.576279E-07
vn -7.152557E-07 1 2.980232E-07
vn -0.1384277 0.126709 0.9824219
vn -0.9770508 0.126709 0.171875
vn -8.34465E-07 -1 3.576279E-07
vn -7.152557E-07 1 2.980232E-07
vn 0.8916016 0.126709 0.4350586
vn -0.1384277 0.126709 0.9824219
vn -8.34465E-07 -1 3.576279E-07
vn -7.152557E-07 1 2.980232E-07
vn 0.6894531 0.126709 -0.7133789
vn 0.8916016 0.126709 0.4350586
vn -8.34465E-07 -1 3.576279E-07
vn 1.192093E-06 1 0
vn -0.465332 0.126709 -0.8759766
vn 0.6894531 0.126709 -0.7133789
vn 1.013279E-06 -1 1.192093E-07
vn 1.192093E-06 1 0
vn -0.9770508 0.126709 0.171875
vn -0.465332 0.126709 -0.8759766
vn 1.013279E-06 -1 1.192093E-07
vn 1.192093E-06 1 0
vn -0.1384277 0.126709 0.9824219
vn -0.9770508 0.126709 0.171875
vn 1.013279E-06 -1 1.192093E-07
vn 1.192093E-06 1 0
vn 0.8916016 0.126709 0.4350586
vn -0.1384277 0.126709 0.9824219
vn 1.013279E-06 -1 1.192093E-07
vn 1.192093E-06 1 0
vn 0.6894531 0.126709 -0.7133789
vn 0.8916016 0.126709 0.4350586
vn 1.013279E-06 -1 1.192093E-07
g PopCorn_04_0
f 3/3/3 2/2/2 1/1/1
f 2/2/2 3/3/3 4/4/4
f 7/7/7 6/6/6 5/5/5
f 6/6/6 7/7/7 8/8/8
f 11/11/11 10/10/10 9/9/9
f 10/10/10 11/11/11 12/12/12
f 15/15/15 14/14/14 13/13/13
f 14/14/14 15/15/15 16/16/16
f 19/19/19 18/18/18 17/17/17
f 18/18/18 19/19/19 20/20/20
f 23/23/23 22/22/22 21/21/21
f 22/22/22 23/23/23 24/24/24
f 27/27/27 26/26/26 25/25/25
f 26/26/26 27/27/27 28/28/28
f 31/31/31 30/30/30 29/29/29
f 30/30/30 31/31/31 32/32/32
f 35/35/35 34/34/34 33/33/33
f 34/34/34 35/35/35 36/36/36
f 39/39/39 38/38/38 37/37/37
f 38/38/38 39/39/39 40/40/40
f 43/43/43 42/42/42 41/41/41
f 42/42/42 43/43/43 44/44/44
f 47/47/47 46/46/46 45/45/45
f 46/46/46 47/47/47 48/48/48
f 51/51/51 50/50/50 49/49/49
f 50/50/50 51/51/51 52/52/52
f 55/55/55 54/54/54 53/53/53
f 54/54/54 55/55/55 56/56/56
f 59/59/59 58/58/58 57/57/57
f 58/58/58 59/59/59 60/60/60
f 63/63/63 62/62/62 61/61/61
f 62/62/62 63/63/63 64/64/64
f 67/67/67 66/66/66 65/65/65
f 66/66/66 67/67/67 68/68/68
f 71/71/71 70/70/70 69/69/69
f 70/70/70 71/71/71 72/72/72
f 75/75/75 74/74/74 73/73/73
f 74/74/74 75/75/75 76/76/76
f 79/79/79 78/78/78 77/77/77
f 78/78/78 79/79/79 80/80/80
f 83/83/83 82/82/82 81/81/81
f 82/82/82 83/83/83 84/84/84
f 87/87/87 86/86/86 85/85/85
f 86/86/86 87/87/87 88/88/88
f 91/91/91 90/90/90 89/89/89
f 90/90/90 91/91/91 92/92/92
f 95/95/95 94/94/94 93/93/93
f 94/94/94 95/95/95 96/96/96
f 99/99/99 98/98/98 97/97/97
f 98/98/98 99/99/99 100/100/100
f 103/103/103 102/102/102 101/101/101
f 102/102/102 103/103/103 104/104/104
f 107/107/107 106/106/106 105/105/105
f 106/106/106 107/107/107 108/108/108
f 111/111/111 110/110/110 109/109/109
f 110/110/110 111/111/111 112/112/112
f 115/115/115 114/114/114 113/113/113
f 114/114/114 115/115/115 116/116/116
f 119/119/119 118/118/118 117/117/117
f 118/118/118 119/119/119 120/120/120
f 123/123/123 122/122/122 121/121/121
f 122/122/122 123/123/123 124/124/124
f 127/127/127 126/126/126 125/125/125
f 126/126/126 127/127/127 128/128/128
f 131/131/131 130/130/130 129/129/129
f 130/130/130 131/131/131 132/132/132
f 135/135/135 134/134/134 133/133/133
f 134/134/134 135/135/135 136/136/136
f 139/139/139 138/138/138 137/137/137
f 138/138/138 139/139/139 140/140/140
f 143/143/143 142/142/142 141/141/141
f 142/142/142 143/143/143 144/144/144
f 147/147/147 146/146/146 145/145/145
f 146/146/146 147/147/147 148/148/148
f 151/151/151 150/150/150 149/149/149
f 150/150/150 151/151/151 152/152/152
f 155/155/155 154/154/154 153/153/153
f 154/154/154 155/155/155 156/156/156
f 159/159/159 158/158/158 157/157/157
f 158/158/158 159/159/159 160/160/160
