g Pot_01
v -0.05266998 0.2120392 -0.2216286
v 0 0.2120392 0
v -0.1185782 0.2120392 -0.1945059
v 0.01839538 0.2120392 -0.2270561
v -0.1728812 0.2120392 -0.1483437
v 0.08765991 0.2120392 -0.2102588
v -0.21026 0.2120392 -0.08765975
v 0.1483435 0.2120392 -0.1728793
v -0.2270578 0.2120392 -0.01839554
v 0.1945056 0.2120392 -0.1185773
v -0.2216299 0.2120392 0.05266907
v 0.2216284 0.2120392 -0.05266754
v -0.1945068 0.2120392 0.1185779
v 0.2270575 0.2120392 0.01839783
v -0.1483441 0.2120392 0.1728813
v 0.2102585 0.2120392 0.08766098
v -0.08766052 0.2120392 0.2102608
v 0.1728787 0.2120392 0.1483443
v -0.01839661 0.2120392 0.2270567
v 0.1185776 0.2120392 0.1945068
v 0.05266785 0.2120392 0.2216292
v 0.02109833 0.02460663 -0.2604095
v -0.06040558 0.02460663 -0.2541846
v 0.02018951 0.00690155 -0.2491852
v 0.09620361 0.00690155 -0.230751
v 0.1005371 0.02460663 -0.2411453
v -0.05780212 0.00690155 -0.2432281
v -0.1359967 0.02460663 -0.2230771
v 0.1628 0.00690155 -0.1897278
v 0.1701334 0.02460663 -0.1982745
v -0.1301343 0.00690155 -0.2134619
v -0.1982761 0.02460663 -0.1701338
v 0.2134616 0.00690155 -0.1301338
v 0.2230774 0.02460663 -0.1359956
v -0.189729 0.00690155 -0.1628004
v -0.2411453 0.02460663 -0.1005362
v 0.2432272 0.00690155 -0.05780105
v 0.2541837 0.02460663 -0.06040466
v -0.2307513 0.00690155 -0.0962033
v -0.2604111 0.02460663 -0.02109848
v 0.2491855 0.00690155 0.02018921
v 0.2604098 0.02460663 0.02109848
v -0.2491861 0.00690155 -0.02018906
v -0.2541849 0.02460663 0.06040527
v 0.2307504 0.00690155 0.09620361
v 0.241145 0.02460663 0.1005374
v -0.2432287 0.00690155 0.05780151
v -0.223078 0.02460663 0.1359961
v 0.1897275 0.00690155 0.1628011
v 0.1982742 0.02460663 0.1701344
v -0.2134622 0.00690155 0.1301344
v -0.1701352 0.02460663 0.1982747
v 0.1301337 0.00690155 0.2134624
v 0.1359952 0.02460663 0.2230774
v -0.1628015 0.00690155 0.1897282
v -0.1005377 0.02460663 0.2411449
v 0.0578006 0.00690155 0.2432283
v 0.06040436 0.02460663 0.2541846
v -0.09620483 0.00690155 0.2307509
v -0.02109955 0.02460663 0.2604105
v -0.02018982 0.00690155 0.2491858
v -0.2237869 0 0.05318115
v -0.1963998 0 0.1197327
v -0.1497885 0 0.1745628
v -0.08851471 0 0.2123076
v 0 0 0
v -0.2292685 0 -0.01857468
v -0.01857574 0 0.2292674
v 0.05318054 0 0.2237868
v -0.2123068 0 -0.08851425
v 0.1197314 0 0.1963995
v -0.1745636 0 -0.1497871
v 0.1745624 0 0.1497878
v -0.1197327 0 -0.1963989
v 0.2123053 0 0.08851379
v -0.05318145 0 -0.2237857
v 0.2292682 0 0.01857635
v 0.01857452 0 -0.2292673
v 0.223786 0 -0.05318039
v 0.08851349 0 -0.2123059
v 0.1963989 0 -0.119731
v 0.1497873 0 -0.174563
v 0.01947754 0.3695822 -0.2404065
v -0.05576538 0.3695822 -0.2346596
v 0.02034515 0.391246 -0.251114
v 0.09694763 0.391246 -0.2325362
v 0.09281372 0.3695822 -0.2226222
v -0.05824951 0.391246 -0.2451115
v -0.1255496 0.3695822 -0.2059424
v 0.1640613 0.391246 -0.1911971
v 0.1570651 0.3695822 -0.1830446
v -0.1311417 0.391246 -0.2151144
v -0.1830463 0.3695822 -0.1570647
v 0.2151141 0.391246 -0.1311409
v 0.2059415 0.3695822 -0.125549
v -0.1911984 0.391246 -0.1640614
v -0.2226224 0.3695822 -0.09281418
v 0.2451108 0.391246 -0.05824905
v 0.2346591 0.3695822 -0.05576492
v -0.2325378 0.391246 -0.09694809
v -0.240408 0.3695822 -0.0194783
v 0.2511139 0.391246 0.02034592
v 0.2404065 0.3695822 0.019478
v -0.2511148 0.391246 -0.02034515
v -0.23466 0.3695822 0.05576492
v 0.2325366 0.391246 0.09694915
v 0.2226211 0.3695822 0.09281494
v -0.245112 0.391246 0.05824982
v -0.2059433 0.3695822 0.1255502
v 0.1911966 0.391246 0.1640617
v 0.1830438 0.3695822 0.1570659
v -0.2151157 0.391246 0.1311424
v -0.1570666 0.3695822 0.1830446
v 0.1311413 0.391246 0.2151152
v 0.1255496 0.3695822 0.205943
v -0.1640625 0.391246 0.1911975
v -0.09281585 0.3695822 0.2226222
v 0.05824829 0.391246 0.2451118
v 0.05576386 0.3695822 0.2346611
v -0.09694824 0.391246 0.2325374
v -0.01947815 0.3695822 0.2404073
v -0.02034607 0.391246 0.251115
v -0.2672507 0.4000058 0.06351074
v -0.2345453 0.4000058 0.1429872
v -0.1788797 0.4000058 0.2084672
v -0.1057053 0.4000058 0.2535406
v -0.02218384 0.4000058 0.2737961
v 0.06350922 0.4000058 0.2672507
v -0.2737967 0.4000058 -0.02218338
v 0.1429861 0.4000058 0.2345447
v -0.2535422 0.4000058 -0.1057042
v 0.2084656 0.4000058 0.1788802
v -0.2084671 0.4000058 -0.1788789
v 0.25354 0.4000058 0.1057053
v -0.1429868 0.4000058 -0.2345438
v 0.2737952 0.4000058 0.02218323
v -0.06351043 0.4000058 -0.2672498
v 0.2672504 0.4000058 -0.06350952
v 0.02218292 0.4000058 -0.2737956
v 0.2345438 0.4000058 -0.1429858
v 0.1057047 0.4000058 -0.2535406
v 0.1788794 0.4000058 -0.208466
v -0.1621844 0.4000058 -0.2660345
v -0.07203827 0.4000058 -0.3031316
v 0.02516083 0.4000058 -0.3105559
v 0.1198965 0.4000058 -0.2875812
v 0.2028958 0.4000058 -0.2364552
v 0.2660345 0.4000058 -0.162184
v -0.2364563 0.4000058 -0.2028964
v 0.3031311 0.4000058 -0.0720372
v -0.2875821 0.4000058 -0.1198969
v 0.3105554 0.4000058 0.02516144
v -0.3105572 0.4000058 -0.02516174
v 0.2875809 0.4000058 0.1198978
v -0.303132 0.4000058 0.07203735
v 0.2364545 0.4000058 0.2028966
v -0.2660351 0.4000058 0.1621846
v 0.1621835 0.4000058 0.2660344
v -0.2028973 0.4000058 0.2364557
v 0.07203674 0.4000058 0.3031318
v -0.1198984 0.4000058 0.2875813
v -0.02516174 0.4000058 0.3105565
v -0.3252609 0.3891754 0.07729599
v -0.2854559 0.3891754 0.174024
v -0.2177078 0.3891754 0.2537181
v -0.1286502 0.3891754 0.3085742
v -0.0269989 0.3891754 0.333228
v 0.07729583 0.3891754 0.3252615
v -0.3332272 0.3891754 -0.0269989
v 0.1740234 0.3891754 0.2854549
v -0.3085757 0.3891754 -0.128649
v 0.2537164 0.3891754 0.2177092
v -0.2537176 0.3891754 -0.2177074
v 0.308573 0.3891754 0.1286508
v -0.1740237 0.3891754 -0.285455
v 0.3332257 0.3891754 0.02699844
v -0.07729614 0.3891754 -0.32526
v 0.3252606 0.3891754 -0.07729431
v 0.02699646 0.3891754 -0.3332255
v 0.2854538 0.3891754 -0.174023
v 0.1286484 0.3891754 -0.3085745
v 0.2177069 0.3891754 -0.2537163
v -0.07859741 0.3648624 -0.3307341
v 0.02745117 0.3648624 -0.3388339
v 0.1308136 0.3648624 -0.3137662
v 0.2213718 0.3648624 -0.2579863
v 0.2902585 0.3648624 -0.176952
v 0.3307346 0.3648624 -0.07859588
v -0.1769531 0.3648624 -0.2902588
v 0.3388339 0.3648624 0.02745438
v -0.2579871 0.3648624 -0.2213722
v 0.3137665 0.3648624 0.1308159
v -0.3137683 0.3648624 -0.1308142
v 0.2579855 0.3648624 0.2213718
v -0.3388352 0.3648624 -0.0274527
v 0.1769519 0.3648624 0.2902594
v -0.3307351 0.3648624 0.07859756
v 0.07859619 0.3648624 0.3307343
v -0.2902594 0.3648624 0.176953
v -0.0274527 0.3648624 0.3388364
v -0.2213721 0.3648624 0.2579881
v -0.1308151 0.3648624 0.3137683
v -0.2541849 0.02460663 0.06040527
v -0.2604111 0.02460663 -0.02109848
v -0.223078 0.02460663 0.1359961
v -0.1701352 0.02460663 0.1982747
v -0.2411453 0.02460663 -0.1005362
v -0.1005377 0.02460663 0.2411449
v -0.02109955 0.02460663 0.2604105
v -0.1982761 0.02460663 -0.1701338
v 0.06040436 0.02460663 0.2541846
v -0.1359967 0.02460663 -0.2230771
v 0.1359952 0.02460663 0.2230774
v -0.06040558 0.02460663 -0.2541846
v 0.1982742 0.02460663 0.1701344
v 0.02109833 0.02460663 -0.2604095
v 0.241145 0.02460663 0.1005374
v 0.1005371 0.02460663 -0.2411453
v 0.2604098 0.02460663 0.02109848
v 0.1701334 0.02460663 -0.1982745
v 0.2541837 0.02460663 -0.06040466
v 0.2230774 0.02460663 -0.1359956
v -0.05266998 0.2120392 -0.2216286
v -0.1185782 0.2120392 -0.1945059
v -0.1255496 0.3695822 -0.2059424
v -0.05576538 0.3695822 -0.2346596
v -0.1830463 0.3695822 -0.1570647
v 0.01839538 0.2120392 -0.2270561
v -0.1728812 0.2120392 -0.1483437
v 0.01947754 0.3695822 -0.2404065
v -0.2226224 0.3695822 -0.09281418
v 0.08765991 0.2120392 -0.2102588
v -0.21026 0.2120392 -0.08765975
v 0.09281372 0.3695822 -0.2226222
v -0.240408 0.3695822 -0.0194783
v 0.1483435 0.2120392 -0.1728793
v -0.2270578 0.2120392 -0.01839554
v 0.1570651 0.3695822 -0.1830446
v -0.23466 0.3695822 0.05576492
v 0.1945056 0.2120392 -0.1185773
v -0.2216299 0.2120392 0.05266907
v 0.2059415 0.3695822 -0.125549
v -0.2059433 0.3695822 0.1255502
v 0.2216284 0.2120392 -0.05266754
v -0.1945068 0.2120392 0.1185779
v 0.2346591 0.3695822 -0.05576492
v -0.1570666 0.3695822 0.1830446
v 0.2270575 0.2120392 0.01839783
v -0.1483441 0.2120392 0.1728813
v 0.2404065 0.3695822 0.019478
v -0.09281585 0.3695822 0.2226222
v 0.2102585 0.2120392 0.08766098
v -0.08766052 0.2120392 0.2102608
v 0.2226211 0.3695822 0.09281494
v -0.01947815 0.3695822 0.2404073
v 0.1728787 0.2120392 0.1483443
v -0.01839661 0.2120392 0.2270567
v 0.1830438 0.3695822 0.1570659
v 0.05576386 0.3695822 0.2346611
v 0.1185776 0.2120392 0.1945068
v 0.05266785 0.2120392 0.2216292
v 0.1255496 0.3695822 0.205943
vt 0.3679199 0.859375
vt 0.3642578 0.8608398
vt 0.3681641 0.8603516
vt 0.3671875 0.8583984
vt 0.3681641 0.8618164
vt 0.3662109 0.8574219
vt 0.3676758 0.862793
vt 0.3649902 0.8569336
vt 0.3669434 0.8637695
vt 0.3637695 0.8569336
vt 0.3659668 0.8647461
vt 0.3625488 0.8574219
vt 0.3647461 0.8652344
vt 0.3615723 0.8579102
vt 0.3635254 0.8652344
vt 0.3605957 0.8588867
vt 0.3623047 0.8647461
vt 0.3603516 0.8603516
vt 0.3613281 0.8637695
vt 0.3603516 0.8613281
vt 0.3605957 0.862793
vt 0.4311523 0.8530273
vt 0.432373 0.8520508
vt 0.4311523 0.8525391
vt 0.4299316 0.8530273
vt 0.4299316 0.8535156
vt 0.4321289 0.8520508
vt 0.4331055 0.8510742
vt 0.4287109 0.8530273
vt 0.4287109 0.8535156
vt 0.4328613 0.8505859
vt 0.4335938 0.8496094
vt 0.4274902 0.8525391
vt 0.4272461 0.8530273
vt 0.4331055 0.8496094
vt 0.4335938 0.8481445
vt 0.4265137 0.8520508
vt 0.4262695 0.8520508
vt 0.4331055 0.8486328
vt 0.4331055 0.847168
vt 0.4257813 0.8510742
vt 0.4255371 0.8510742
vt 0.4328613 0.847168
vt 0.4321289 0.8461914
vt 0.425293 0.8496094
vt 0.4250488 0.8496094
vt 0.4318848 0.8461914
vt 0.4311523 0.8452148
vt 0.425293 0.8486328
vt 0.4250488 0.8486328
vt 0.4309082 0.8457031
vt 0.4299316 0.8447266
vt 0.4257813 0.847168
vt 0.425293 0.847168
vt 0.4296875 0.8452148
vt 0.4284668 0.8447266
vt 0.4262695 0.8461914
vt 0.4260254 0.8461914
vt 0.4284668 0.8452148
vt 0.4272461 0.8452148
vt 0.4274902 0.8457031
vt 0.4318848 0.8466797
vt 0.4309082 0.8457031
vt 0.4296875 0.8457031
vt 0.4287109 0.8457031
vt 0.4291992 0.8491211
vt 0.432373 0.847168
vt 0.4274902 0.8457031
vt 0.4265137 0.8466797
vt 0.4328613 0.8486328
vt 0.4260254 0.8476563
vt 0.4328613 0.8496094
vt 0.4255371 0.8486328
vt 0.4326172 0.8505859
vt 0.4255371 0.8496094
vt 0.4318848 0.8515625
vt 0.4260254 0.8505859
vt 0.4309082 0.8525391
vt 0.4267578 0.8515625
vt 0.4299316 0.8525391
vt 0.4277344 0.8525391
vt 0.4287109 0.8525391
vt 0.4245605 0.8491211
vt 0.4248047 0.8476563
vt 0.4240723 0.8491211
vt 0.4243164 0.8505859
vt 0.4248047 0.8505859
vt 0.4243164 0.847168
vt 0.4255371 0.8461914
vt 0.4250488 0.8520508
vt 0.425293 0.8515625
vt 0.4250488 0.8457031
vt 0.4265137 0.8452148
vt 0.4260254 0.8530273
vt 0.4262695 0.8525391
vt 0.4262695 0.8447266
vt 0.4279785 0.8447266
vt 0.4274902 0.8540039
vt 0.4277344 0.8535156
vt 0.4277344 0.8442383
vt 0.4294434 0.8442383
vt 0.4289551 0.8540039
vt 0.4289551 0.8535156
vt 0.4294434 0.84375
vt 0.4306641 0.8447266
vt 0.4306641 0.8540039
vt 0.4304199 0.8535156
vt 0.4309082 0.8442383
vt 0.4321289 0.8452148
vt 0.4321289 0.8535156
vt 0.4318848 0.8530273
vt 0.432373 0.8452148
vt 0.4331055 0.8466797
vt 0.4333496 0.8520508
vt 0.4328613 0.8520508
vt 0.4333496 0.8461914
vt 0.4335938 0.8476563
vt 0.434082 0.8505859
vt 0.4335938 0.8505859
vt 0.434082 0.8476563
vt 0.4338379 0.8491211
vt 0.4343262 0.8491211
vt 0.4311523 0.84375
vt 0.4326172 0.8447266
vt 0.4338379 0.8457031
vt 0.4345703 0.8476563
vt 0.4348145 0.8491211
vt 0.4343262 0.8510742
vt 0.4294434 0.8432617
vt 0.4335938 0.8525391
vt 0.4277344 0.84375
vt 0.432373 0.8535156
vt 0.4260254 0.8442383
vt 0.4306641 0.8544922
vt 0.4248047 0.8457031
vt 0.4289551 0.8544922
vt 0.4240723 0.847168
vt 0.4272461 0.8544922
vt 0.423584 0.8491211
vt 0.4257813 0.8535156
vt 0.4238281 0.8505859
vt 0.4245605 0.8520508
vt 0.4243164 0.8452148
vt 0.4233398 0.847168
vt 0.4228516 0.8486328
vt 0.4230957 0.8505859
vt 0.4240723 0.8525391
vt 0.425293 0.8540039
vt 0.4257813 0.84375
vt 0.427002 0.8549805
vt 0.4274902 0.8432617
vt 0.4289551 0.8554688
vt 0.4294434 0.8427734
vt 0.4309082 0.8549805
vt 0.4313965 0.8432617
vt 0.4326172 0.8540039
vt 0.4331055 0.8442383
vt 0.434082 0.8530273
vt 0.4343262 0.8457031
vt 0.4350586 0.8510742
vt 0.4353027 0.847168
vt 0.4355469 0.8491211
vt 0.4313965 0.8427734
vt 0.4333496 0.84375
vt 0.4348145 0.8452148
vt 0.435791 0.847168
vt 0.4360352 0.8491211
vt 0.4355469 0.8515625
vt 0.4294434 0.8422852
vt 0.4345703 0.8530273
vt 0.4272461 0.8427734
vt 0.4331055 0.8544922
vt 0.425293 0.8432617
vt 0.4311523 0.8554688
vt 0.4238281 0.8447266
vt 0.4289551 0.855957
vt 0.4228516 0.8466797
vt 0.427002 0.8554688
vt 0.4223633 0.8486328
vt 0.4250488 0.8544922
vt 0.4226074 0.8510742
vt 0.423584 0.8530273
vt 0.4223633 0.8466797
vt 0.421875 0.8486328
vt 0.4223633 0.8510742
vt 0.4233398 0.8530273
vt 0.4248047 0.8549805
vt 0.4267578 0.855957
vt 0.423584 0.8447266
vt 0.4289551 0.8564453
vt 0.4250488 0.8432617
vt 0.4311523 0.855957
vt 0.4272461 0.8422852
vt 0.4333496 0.8549805
vt 0.4294434 0.8417969
vt 0.4348145 0.8535156
vt 0.4316406 0.8422852
vt 0.4360352 0.8515625
vt 0.4335938 0.8432617
vt 0.4365234 0.8491211
vt 0.4353027 0.8452148
vt 0.4360352 0.847168
vt 0.4338379 0.8374023
vt 0.4301758 0.8369141
vt 0.4372559 0.8398438
vt 0.4396973 0.8427734
vt 0.4262695 0.8369141
vt 0.4411621 0.8461914
vt 0.4414063 0.8500977
vt 0.4226074 0.8383789
vt 0.4406738 0.8535156
vt 0.4196777 0.8413086
vt 0.4387207 0.8569336
vt 0.4177246 0.8442383
vt 0.435791 0.859375
vt 0.4169922 0.8481445
vt 0.4321289 0.8608398
vt 0.4172363 0.8520508
vt 0.4282227 0.8613281
vt 0.4187012 0.8554688
vt 0.4245605 0.8603516
vt 0.4211426 0.8583984
vt 0.3352051 0.8481445
vt 0.3359375 0.8466797
vt 0.3334961 0.8447266
vt 0.3322754 0.847168
vt 0.3352051 0.8432617
vt 0.3347168 0.8491211
vt 0.3369141 0.8457031
vt 0.3317871 0.8491211
vt 0.3374023 0.8422852
vt 0.3349609 0.8505859
vt 0.3381348 0.8452148
vt 0.3320313 0.8515625
vt 0.3395996 0.8422852
vt 0.3354492 0.8520508
vt 0.3395996 0.8452148
vt 0.3330078 0.8535156
vt 0.342041 0.8427734
vt 0.3364258 0.8530273
vt 0.3408203 0.8457031
vt 0.3344727 0.8554688
vt 0.3439941 0.84375
vt 0.3376465 0.8540039
vt 0.342041 0.8461914
vt 0.3366699 0.8564453
vt 0.345459 0.8457031
vt 0.3388672 0.8540039
vt 0.3430176 0.847168
vt 0.3388672 0.8569336
vt 0.3464355 0.8476563
vt 0.340332 0.8540039
vt 0.3435059 0.8486328
vt 0.3410645 0.8569336
vt 0.3466797 0.8500977
vt 0.3415527 0.8535156
vt 0.34375 0.8500977
vt 0.3432617 0.855957
vt 0.3461914 0.8525391
vt 0.3427734 0.8525391
vt 0.3432617 0.8510742
vt 0.3449707 0.8544922
vn 0.1883545 0.5800781 0.7924805
vn 0 1 -1.788139E-07
vn 0.4240723 0.5800781 0.6958008
vn -0.0657959 0.5800781 0.8120117
vn 0.6181641 0.5800781 0.5307617
vn -0.3134766 0.5800781 0.7519531
vn 0.7519531 0.5800781 0.3134766
vn -0.5307617 0.5800781 0.6181641
vn 0.8120117 0.5800781 0.0657959
vn -0.6958008 0.5800781 0.4240723
vn 0.7924805 0.5800781 -0.1883545
vn -0.7924805 0.5800781 0.1883545
vn 0.6958008 0.5800781 -0.4240723
vn -0.8120117 0.5800781 -0.0657959
vn 0.5307617 0.5800781 -0.6181641
vn -0.7519531 0.5800781 -0.3134766
vn 0.3134766 0.5800781 -0.7519531
vn -0.6181641 0.5800781 -0.5302734
vn 0.0657959 0.5800781 -0.8120117
vn -0.4240723 0.5800781 -0.6958008
vn -0.1883545 0.5800781 -0.7924805
vn 0.07836914 -0.2399902 -0.9677734
vn -0.2244873 -0.2399902 -0.9443359
vn 0.05230713 -0.762207 -0.6455078
vn 0.2491455 -0.762207 -0.5976563
vn 0.3735352 -0.2399902 -0.8959961
vn -0.1497803 -0.762207 -0.6298828
vn -0.5053711 -0.2399902 -0.8291016
vn 0.4216309 -0.762207 -0.4914551
vn 0.6323242 -0.2399902 -0.7368164
vn -0.3371582 -0.762207 -0.5527344
vn -0.7368164 -0.2399902 -0.6323242
vn 0.5527344 -0.762207 -0.3371582
vn 0.8291016 -0.2399902 -0.5053711
vn -0.4914551 -0.762207 -0.4216309
vn -0.8959961 -0.2399902 -0.3735352
vn 0.6298828 -0.762207 -0.1497803
vn 0.9443359 -0.2399902 -0.2244873
vn -0.5976563 -0.762207 -0.2491455
vn -0.9677734 -0.2399902 -0.07836914
vn 0.6455078 -0.762207 0.05227661
vn 0.9677734 -0.2399902 0.07836914
vn -0.6455078 -0.762207 -0.05230713
vn -0.9443359 -0.2399902 0.2244873
vn 0.5976563 -0.762207 0.2491455
vn 0.8959961 -0.2399902 0.3735352
vn -0.6298828 -0.762207 0.1497803
vn -0.8291016 -0.2399902 0.5053711
vn 0.4914551 -0.762207 0.4216309
vn 0.7368164 -0.2399902 0.6323242
vn -0.5527344 -0.762207 0.3371582
vn -0.6323242 -0.2399902 0.7368164
vn 0.3371582 -0.762207 0.5527344
vn 0.5053711 -0.2399902 0.8291016
vn -0.4216309 -0.762207 0.4914551
vn -0.3735352 -0.2399902 0.8959961
vn 0.1497803 -0.762207 0.6298828
vn 0.2244873 -0.2399902 0.9443359
vn -0.2491455 -0.762207 0.5976563
vn -0.07836914 -0.2399902 0.9677734
vn -0.05230713 -0.762207 0.6455078
vn -0.06057739 -0.9980469 0.01439667
vn -0.05316162 -0.9980469 0.03240967
vn -0.04055786 -0.9980469 0.04727173
vn -0.0239563 -0.9980469 0.0574646
vn 0 -1 -5.364418E-07
vn -0.06207275 -0.9980469 -0.005027771
vn -0.005027771 -0.9980469 0.06207275
vn 0.01439667 -0.9980469 0.06057739
vn -0.0574646 -0.9980469 -0.0239563
vn 0.03240967 -0.9980469 0.05316162
vn -0.04724121 -0.9980469 -0.04055786
vn 0.04724121 -0.9980469 0.04055786
vn -0.03240967 -0.9980469 -0.05316162
vn 0.0574646 -0.9980469 0.0239563
vn -0.01439667 -0.9980469 -0.06057739
vn 0.06207275 -0.9980469 0.005027771
vn 0.005027771 -0.9980469 -0.06207275
vn 0.06057739 -0.9980469 -0.0144043
vn 0.0239563 -0.9980469 -0.0574646
vn 0.05316162 -0.9980469 -0.03240967
vn 0.04055786 -0.9980469 -0.04724121
vn -0.07995605 0.1379395 0.9873047
vn 0.2290039 0.1379395 0.9633789
vn -0.05194092 0.765625 0.6411133
vn -0.2474365 0.765625 0.59375
vn -0.3811035 0.1379395 0.9140625
vn 0.1486816 0.765625 0.6254883
vn 0.515625 0.1379395 0.8457031
vn -0.4187012 0.765625 0.4880371
vn -0.6450195 0.1379395 0.7514648
vn 0.3347168 0.765625 0.5493164
vn 0.7514648 0.1379395 0.6450195
vn -0.5493164 0.765625 0.3347168
vn -0.8457031 0.1379395 0.515625
vn 0.4880371 0.765625 0.4187012
vn 0.9140625 0.1379395 0.3811035
vn -0.6254883 0.765625 0.1486816
vn -0.9633789 0.1379395 0.2290039
vn 0.59375 0.765625 0.2474365
vn 0.9873047 0.1379395 0.07995605
vn -0.6411133 0.765625 -0.05194092
vn -0.9873047 0.1379395 -0.07995605
vn 0.6411133 0.765625 0.05194092
vn 0.9633789 0.1379395 -0.2290039
vn -0.59375 0.765625 -0.2474365
vn -0.9140625 0.1379395 -0.3811035
vn 0.6254883 0.765625 -0.1486816
vn 0.8457031 0.1379395 -0.515625
vn -0.4880371 0.765625 -0.4187012
vn -0.7514648 0.1379395 -0.6450195
vn 0.5493164 0.765625 -0.3347168
vn 0.6450195 0.1379395 -0.7514648
vn -0.3347168 0.765625 -0.5493164
vn -0.515625 0.1379395 -0.8457031
vn 0.4187012 0.765625 -0.4880371
vn 0.3811035 0.1379395 -0.9140625
vn -0.1486816 0.765625 -0.6254883
vn -0.2290039 0.1379395 -0.9633789
vn 0.2474365 0.765625 -0.59375
vn 0.07995605 0.1379395 -0.9873047
vn 0.05194092 0.765625 -0.6411133
vn 0.1165771 0.9926758 -0.02770996
vn 0.102356 0.9926758 -0.06237793
vn 0.07806396 0.9926758 -0.09094238
vn 0.04611206 0.9926758 -0.1105957
vn 0.009681702 0.9926758 -0.1194458
vn -0.02770996 0.9926758 -0.1166382
vn 0.1194458 0.9926758 0.009681702
vn -0.06237793 0.9926758 -0.102356
vn 0.1105957 0.9926758 0.04611206
vn -0.09094238 0.9926758 -0.07806396
vn 0.09094238 0.9926758 0.07806396
vn -0.1105957 0.9926758 -0.04611206
vn 0.06237793 0.9926758 0.102356
vn -0.1194458 0.9926758 -0.009674072
vn 0.02770996 0.9926758 0.1165771
vn -0.1165771 0.9926758 0.02770996
vn -0.009681702 0.9926758 0.1194458
vn -0.102356 0.9926758 0.06237793
vn -0.04611206 0.9926758 0.1105957
vn -0.07806396 0.9926758 0.09094238
vn -0.109375 0.9775391 -0.1794434
vn -0.04858398 0.9775391 -0.2044678
vn 0.01696777 0.9775391 -0.2094727
vn 0.08087158 0.9775391 -0.1939697
vn 0.1368408 0.9775391 -0.1595459
vn 0.1794434 0.9775391 -0.109375
vn -0.1595459 0.9775391 -0.1368408
vn 0.2044678 0.9775391 -0.04858398
vn -0.1939697 0.9775391 -0.08087158
vn 0.2094727 0.9775391 0.01696777
vn -0.2094727 0.9775391 -0.01696777
vn 0.1939697 0.9775391 0.08087158
vn -0.2044678 0.9775391 0.04858398
vn 0.1595459 0.9775391 0.1368408
vn -0.1794434 0.9775391 0.109375
vn 0.109375 0.9775391 0.1794434
vn -0.1368408 0.9775391 0.1595459
vn 0.04858398 0.9775391 0.2044678
vn -0.08087158 0.9775391 0.1939697
vn -0.01696777 0.9775391 0.2094727
vn -0.7797852 0.5976563 0.1853027
vn -0.6845703 0.5976563 0.4172363
vn -0.5219727 0.5976563 0.6083984
vn -0.3085938 0.5976563 0.7397461
vn -0.0647583 0.5976563 0.7988281
vn 0.1853027 0.5976563 0.7797852
vn -0.7988281 0.5976563 -0.0647583
vn 0.4172363 0.5976563 0.6845703
vn -0.7397461 0.5976563 -0.3085938
vn 0.6083984 0.5976563 0.5219727
vn -0.6083984 0.5976563 -0.5219727
vn 0.7397461 0.5976563 0.3085938
vn -0.4172363 0.5976563 -0.6845703
vn 0.7988281 0.5976563 0.0647583
vn -0.1853027 0.5976563 -0.7797852
vn 0.7797852 0.5976563 -0.1853027
vn 0.0647583 0.5976563 -0.7988281
vn 0.6845703 0.5976563 -0.4172363
vn 0.3085938 0.5976563 -0.7397461
vn 0.5219727 0.5976563 -0.6083984
vn -0.2268066 -0.1932373 -0.9545898
vn 0.07922363 -0.1932373 -0.9780273
vn 0.3774414 -0.1932373 -0.9057617
vn 0.6391602 -0.1932373 -0.7446289
vn 0.8378906 -0.1932373 -0.5107422
vn 0.9545898 -0.1932373 -0.2268066
vn -0.5107422 -0.1932373 -0.8378906
vn 0.9780273 -0.1932373 0.07922363
vn -0.7446289 -0.1932373 -0.6391602
vn 0.9057617 -0.1932373 0.3776855
vn -0.9057617 -0.1932373 -0.3774414
vn 0.7446289 -0.1932373 0.6391602
vn -0.9780273 -0.1932373 -0.07922363
vn 0.5107422 -0.1932373 0.8378906
vn -0.9545898 -0.1932373 0.2268066
vn 0.2268066 -0.1932373 0.9545898
vn -0.8378906 -0.1932373 0.5107422
vn -0.07922363 -0.1932373 0.9780273
vn -0.6391602 -0.1932373 0.7446289
vn -0.3774414 -0.1932373 0.9057617
vn -0.9443359 -0.2399902 0.2244873
vn -0.9677734 -0.2399902 -0.07836914
vn -0.8291016 -0.2399902 0.5053711
vn -0.6323242 -0.2399902 0.7368164
vn -0.8959961 -0.2399902 -0.3735352
vn -0.3735352 -0.2399902 0.8959961
vn -0.07836914 -0.2399902 0.9677734
vn -0.7368164 -0.2399902 -0.6323242
vn 0.2244873 -0.2399902 0.9443359
vn -0.5053711 -0.2399902 -0.8291016
vn 0.5053711 -0.2399902 0.8291016
vn -0.2244873 -0.2399902 -0.9443359
vn 0.7368164 -0.2399902 0.6323242
vn 0.07836914 -0.2399902 -0.9677734
vn 0.8959961 -0.2399902 0.3735352
vn 0.3735352 -0.2399902 -0.8959961
vn 0.9677734 -0.2399902 0.07836914
vn 0.6323242 -0.2399902 -0.7368164
vn 0.9443359 -0.2399902 -0.2244873
vn 0.8291016 -0.2399902 -0.5053711
vn 0.1883545 0.5800781 0.7924805
vn 0.4240723 0.5800781 0.6958008
vn 0.515625 0.1379395 0.8457031
vn 0.2290039 0.1379395 0.9633789
vn 0.7514648 0.1379395 0.6450195
vn -0.0657959 0.5800781 0.8120117
vn 0.6181641 0.5800781 0.5307617
vn -0.07995605 0.1379395 0.9873047
vn 0.9140625 0.1379395 0.3811035
vn -0.3134766 0.5800781 0.7519531
vn 0.7519531 0.5800781 0.3134766
vn -0.3811035 0.1379395 0.9140625
vn 0.9873047 0.1379395 0.07995605
vn -0.5307617 0.5800781 0.6181641
vn 0.8120117 0.5800781 0.0657959
vn -0.6450195 0.1379395 0.7514648
vn 0.9633789 0.1379395 -0.2290039
vn -0.6958008 0.5800781 0.4240723
vn 0.7924805 0.5800781 -0.1883545
vn -0.8457031 0.1379395 0.515625
vn 0.8457031 0.1379395 -0.515625
vn -0.7924805 0.5800781 0.1883545
vn 0.6958008 0.5800781 -0.4240723
vn -0.9633789 0.1379395 0.2290039
vn 0.6450195 0.1379395 -0.7514648
vn -0.8120117 0.5800781 -0.0657959
vn 0.5307617 0.5800781 -0.6181641
vn -0.9873047 0.1379395 -0.07995605
vn 0.3811035 0.1379395 -0.9140625
vn -0.7519531 0.5800781 -0.3134766
vn 0.3134766 0.5800781 -0.7519531
vn -0.9140625 0.1379395 -0.3811035
vn 0.07995605 0.1379395 -0.9873047
vn -0.6181641 0.5800781 -0.5302734
vn 0.0657959 0.5800781 -0.8120117
vn -0.7514648 0.1379395 -0.6450195
vn -0.2290039 0.1379395 -0.9633789
vn -0.4240723 0.5800781 -0.6958008
vn -0.1883545 0.5800781 -0.7924805
vn -0.515625 0.1379395 -0.8457031
g Pot_01_0
f 3/3/3 2/2/2 1/1/1
f 1/1/1 2/2/2 4/4/4
f 5/5/5 2/2/2 3/3/3
f 4/4/4 2/2/2 6/6/6
f 7/7/7 2/2/2 5/5/5
f 6/6/6 2/2/2 8/8/8
f 9/9/9 2/2/2 7/7/7
f 8/8/8 2/2/2 10/10/10
f 11/11/11 2/2/2 9/9/9
f 10/10/10 2/2/2 12/12/12
f 13/13/13 2/2/2 11/11/11
f 12/12/12 2/2/2 14/14/14
f 15/15/15 2/2/2 13/13/13
f 14/14/14 2/2/2 16/16/16
f 17/17/17 2/2/2 15/15/15
f 16/16/16 2/2/2 18/18/18
f 19/19/19 2/2/2 17/17/17
f 18/18/18 2/2/2 20/20/20
f 21/21/21 2/2/2 19/19/19
f 20/20/20 2/2/2 21/21/21
f 24/24/24 23/23/23 22/22/22
f 25/25/25 24/24/24 22/22/22
f 25/25/25 22/22/22 26/26/26
f 24/24/24 27/27/27 23/23/23
f 27/27/27 28/28/28 23/23/23
f 29/29/29 25/25/25 26/26/26
f 29/29/29 26/26/26 30/30/30
f 27/27/27 31/31/31 28/28/28
f 32/32/32 28/28/28 31/31/31
f 33/33/33 29/29/29 30/30/30
f 33/33/33 30/30/30 34/34/34
f 32/32/32 31/31/31 35/35/35
f 35/35/35 36/36/36 32/32/32
f 37/37/37 33/33/33 34/34/34
f 37/37/37 34/34/34 38/38/38
f 35/35/35 39/39/39 36/36/36
f 39/39/39 40/40/40 36/36/36
f 41/41/41 37/37/37 38/38/38
f 41/41/41 38/38/38 42/42/42
f 39/39/39 43/43/43 40/40/40
f 43/43/43 44/44/44 40/40/40
f 45/45/45 41/41/41 42/42/42
f 45/45/45 42/42/42 46/46/46
f 43/43/43 47/47/47 44/44/44
f 47/47/47 48/48/48 44/44/44
f 49/49/49 45/45/45 46/46/46
f 49/49/49 46/46/46 50/50/50
f 47/47/47 51/51/51 48/48/48
f 51/51/51 52/52/52 48/48/48
f 53/53/53 49/49/49 50/50/50
f 53/53/53 50/50/50 54/54/54
f 51/51/51 55/55/55 52/52/52
f 55/55/55 56/56/56 52/52/52
f 57/57/57 53/53/53 54/54/54
f 57/57/57 54/54/54 58/58/58
f 55/55/55 59/59/59 56/56/56
f 59/59/59 60/60/60 56/56/56
f 61/61/61 58/58/58 60/60/60
f 61/61/61 57/57/57 58/58/58
f 59/59/59 61/61/61 60/60/60
f 62/62/62 51/51/51 47/47/47
f 63/63/63 55/55/55 51/51/51
f 62/62/62 63/63/63 51/51/51
f 64/64/64 59/59/59 55/55/55
f 63/63/63 64/64/64 55/55/55
f 65/65/65 61/61/61 59/59/59
f 64/64/64 65/65/65 59/59/59
f 63/63/63 66/66/66 64/64/64
f 62/62/62 66/66/66 63/63/63
f 64/64/64 66/66/66 65/65/65
f 67/67/67 66/66/66 62/62/62
f 67/67/67 62/62/62 47/47/47
f 65/65/65 66/66/66 68/68/68
f 65/65/65 68/68/68 61/61/61
f 68/68/68 57/57/57 61/61/61
f 67/67/67 47/47/47 43/43/43
f 68/68/68 69/69/69 57/57/57
f 68/68/68 66/66/66 69/69/69
f 69/69/69 53/53/53 57/57/57
f 70/70/70 67/67/67 43/43/43
f 70/70/70 66/66/66 67/67/67
f 70/70/70 43/43/43 39/39/39
f 69/69/69 71/71/71 53/53/53
f 69/69/69 66/66/66 71/71/71
f 71/71/71 49/49/49 53/53/53
f 72/72/72 70/70/70 39/39/39
f 72/72/72 66/66/66 70/70/70
f 72/72/72 39/39/39 35/35/35
f 71/71/71 73/73/73 49/49/49
f 71/71/71 66/66/66 73/73/73
f 73/73/73 45/45/45 49/49/49
f 35/35/35 74/74/74 72/72/72
f 74/74/74 66/66/66 72/72/72
f 73/73/73 66/66/66 75/75/75
f 73/73/73 75/75/75 45/45/45
f 76/76/76 66/66/66 74/74/74
f 35/35/35 31/31/31 74/74/74
f 76/76/76 74/74/74 31/31/31
f 75/75/75 41/41/41 45/45/45
f 76/76/76 31/31/31 27/27/27
f 75/75/75 77/77/77 41/41/41
f 75/75/75 66/66/66 77/77/77
f 77/77/77 37/37/37 41/41/41
f 78/78/78 76/76/76 27/27/27
f 78/78/78 66/66/66 76/76/76
f 78/78/78 27/27/27 24/24/24
f 77/77/77 79/79/79 37/37/37
f 77/77/77 66/66/66 79/79/79
f 79/79/79 33/33/33 37/37/37
f 80/80/80 78/78/78 24/24/24
f 80/80/80 66/66/66 78/78/78
f 80/80/80 24/24/24 25/25/25
f 79/79/79 81/81/81 33/33/33
f 79/79/79 66/66/66 81/81/81
f 81/81/81 29/29/29 33/33/33
f 82/82/82 25/25/25 29/29/29
f 82/82/82 80/80/80 25/25/25
f 82/82/82 66/66/66 80/80/80
f 81/81/81 66/66/66 82/82/82
f 81/81/81 82/82/82 29/29/29
f 85/85/85 84/84/84 83/83/83
f 86/86/86 85/85/85 83/83/83
f 86/86/86 83/83/83 87/87/87
f 85/85/85 88/88/88 84/84/84
f 88/88/88 89/89/89 84/84/84
f 90/90/90 86/86/86 87/87/87
f 90/90/90 87/87/87 91/91/91
f 88/88/88 92/92/92 89/89/89
f 93/93/93 89/89/89 92/92/92
f 94/94/94 90/90/90 91/91/91
f 94/94/94 91/91/91 95/95/95
f 93/93/93 92/92/92 96/96/96
f 96/96/96 97/97/97 93/93/93
f 98/98/98 94/94/94 95/95/95
f 98/98/98 95/95/95 99/99/99
f 96/96/96 100/100/100 97/97/97
f 100/100/100 101/101/101 97/97/97
f 102/102/102 98/98/98 99/99/99
f 102/102/102 99/99/99 103/103/103
f 100/100/100 104/104/104 101/101/101
f 104/104/104 105/105/105 101/101/101
f 106/106/106 102/102/102 103/103/103
f 106/106/106 103/103/103 107/107/107
f 104/104/104 108/108/108 105/105/105
f 108/108/108 109/109/109 105/105/105
f 110/110/110 106/106/106 107/107/107
f 110/110/110 107/107/107 111/111/111
f 108/108/108 112/112/112 109/109/109
f 112/112/112 113/113/113 109/109/109
f 114/114/114 110/110/110 111/111/111
f 114/114/114 111/111/111 115/115/115
f 112/112/112 116/116/116 113/113/113
f 116/116/116 117/117/117 113/113/113
f 118/118/118 114/114/114 115/115/115
f 118/118/118 115/115/115 119/119/119
f 116/116/116 120/120/120 117/117/117
f 120/120/120 121/121/121 117/117/117
f 122/122/122 119/119/119 121/121/121
f 122/122/122 118/118/118 119/119/119
f 120/120/120 122/122/122 121/121/121
f 123/123/123 112/112/112 108/108/108
f 124/124/124 116/116/116 112/112/112
f 123/123/123 124/124/124 112/112/112
f 125/125/125 120/120/120 116/116/116
f 124/124/124 125/125/125 116/116/116
f 126/126/126 122/122/122 120/120/120
f 125/125/125 126/126/126 120/120/120
f 127/127/127 118/118/118 122/122/122
f 126/126/126 127/127/127 122/122/122
f 128/128/128 114/114/114 118/118/118
f 127/127/127 128/128/128 118/118/118
f 129/129/129 123/123/123 108/108/108
f 129/129/129 108/108/108 104/104/104
f 128/128/128 130/130/130 114/114/114
f 130/130/130 110/110/110 114/114/114
f 131/131/131 129/129/129 104/104/104
f 131/131/131 104/104/104 100/100/100
f 130/130/130 132/132/132 110/110/110
f 132/132/132 106/106/106 110/110/110
f 133/133/133 131/131/131 100/100/100
f 133/133/133 100/100/100 96/96/96
f 132/132/132 134/134/134 106/106/106
f 134/134/134 102/102/102 106/106/106
f 96/96/96 135/135/135 133/133/133
f 96/96/96 92/92/92 135/135/135
f 134/134/134 136/136/136 102/102/102
f 136/136/136 98/98/98 102/102/102
f 137/137/137 135/135/135 92/92/92
f 137/137/137 92/92/92 88/88/88
f 136/136/136 138/138/138 98/98/98
f 138/138/138 94/94/94 98/98/98
f 139/139/139 137/137/137 88/88/88
f 139/139/139 88/88/88 85/85/85
f 138/138/138 140/140/140 94/94/94
f 140/140/140 90/90/90 94/94/94
f 141/141/141 139/139/139 85/85/85
f 141/141/141 85/85/85 86/86/86
f 142/142/142 86/86/86 90/90/90
f 140/140/140 142/142/142 90/90/90
f 142/142/142 141/141/141 86/86/86
f 143/143/143 135/135/135 137/137/137
f 144/144/144 137/137/137 139/139/139
f 143/143/143 137/137/137 144/144/144
f 145/145/145 139/139/139 141/141/141
f 144/144/144 139/139/139 145/145/145
f 146/146/146 141/141/141 142/142/142
f 145/145/145 141/141/141 146/146/146
f 147/147/147 142/142/142 140/140/140
f 146/146/146 142/142/142 147/147/147
f 148/148/148 140/140/140 138/138/138
f 147/147/147 140/140/140 148/148/148
f 149/149/149 135/135/135 143/143/143
f 149/149/149 133/133/133 135/135/135
f 148/148/148 138/138/138 150/150/150
f 150/150/150 138/138/138 136/136/136
f 151/151/151 133/133/133 149/149/149
f 151/151/151 131/131/131 133/133/133
f 150/150/150 136/136/136 152/152/152
f 152/152/152 136/136/136 134/134/134
f 153/153/153 131/131/131 151/151/151
f 153/153/153 129/129/129 131/131/131
f 152/152/152 134/134/134 154/154/154
f 154/154/154 134/134/134 132/132/132
f 155/155/155 129/129/129 153/153/153
f 155/155/155 123/123/123 129/129/129
f 154/154/154 132/132/132 156/156/156
f 156/156/156 132/132/132 130/130/130
f 157/157/157 123/123/123 155/155/155
f 157/157/157 124/124/124 123/123/123
f 156/156/156 130/130/130 158/158/158
f 158/158/158 130/130/130 128/128/128
f 159/159/159 124/124/124 157/157/157
f 159/159/159 125/125/125 124/124/124
f 158/158/158 128/128/128 160/160/160
f 160/160/160 128/128/128 127/127/127
f 161/161/161 125/125/125 159/159/159
f 161/161/161 126/126/126 125/125/125
f 162/162/162 127/127/127 126/126/126
f 160/160/160 127/127/127 162/162/162
f 162/162/162 126/126/126 161/161/161
f 163/163/163 157/157/157 155/155/155
f 164/164/164 159/159/159 157/157/157
f 163/163/163 164/164/164 157/157/157
f 165/165/165 161/161/161 159/159/159
f 164/164/164 165/165/165 159/159/159
f 166/166/166 162/162/162 161/161/161
f 165/165/165 166/166/166 161/161/161
f 167/167/167 160/160/160 162/162/162
f 166/166/166 167/167/167 162/162/162
f 168/168/168 158/158/158 160/160/160
f 167/167/167 168/168/168 160/160/160
f 169/169/169 163/163/163 155/155/155
f 169/169/169 155/155/155 153/153/153
f 168/168/168 170/170/170 158/158/158
f 170/170/170 156/156/156 158/158/158
f 171/171/171 169/169/169 153/153/153
f 171/171/171 153/153/153 151/151/151
f 170/170/170 172/172/172 156/156/156
f 172/172/172 154/154/154 156/156/156
f 173/173/173 171/171/171 151/151/151
f 173/173/173 151/151/151 149/149/149
f 172/172/172 174/174/174 154/154/154
f 174/174/174 152/152/152 154/154/154
f 149/149/149 175/175/175 173/173/173
f 149/149/149 143/143/143 175/175/175
f 174/174/174 176/176/176 152/152/152
f 176/176/176 150/150/150 152/152/152
f 177/177/177 175/175/175 143/143/143
f 177/177/177 143/143/143 144/144/144
f 176/176/176 178/178/178 150/150/150
f 178/178/178 148/148/148 150/150/150
f 179/179/179 177/177/177 144/144/144
f 179/179/179 144/144/144 145/145/145
f 178/178/178 180/180/180 148/148/148
f 180/180/180 147/147/147 148/148/148
f 181/181/181 179/179/179 145/145/145
f 181/181/181 145/145/145 146/146/146
f 182/182/182 146/146/146 147/147/147
f 180/180/180 182/182/182 147/147/147
f 182/182/182 181/181/181 146/146/146
f 183/183/183 175/175/175 177/177/177
f 184/184/184 177/177/177 179/179/179
f 184/184/184 183/183/183 177/177/177
f 185/185/185 179/179/179 181/181/181
f 185/185/185 184/184/184 179/179/179
f 186/186/186 181/181/181 182/182/182
f 186/186/186 185/185/185 181/181/181
f 187/187/187 182/182/182 180/180/180
f 187/187/187 186/186/186 182/182/182
f 188/188/188 180/180/180 178/178/178
f 188/188/188 187/187/187 180/180/180
f 183/183/183 189/189/189 175/175/175
f 173/173/173 175/175/175 189/189/189
f 190/190/190 188/188/188 178/178/178
f 190/190/190 178/178/178 176/176/176
f 173/173/173 189/189/189 191/191/191
f 191/191/191 171/171/171 173/173/173
f 192/192/192 190/190/190 176/176/176
f 192/192/192 176/176/176 174/174/174
f 191/191/191 193/193/193 171/171/171
f 193/193/193 169/169/169 171/171/171
f 194/194/194 192/192/192 174/174/174
f 194/194/194 174/174/174 172/172/172
f 193/193/193 195/195/195 169/169/169
f 195/195/195 163/163/163 169/169/169
f 196/196/196 194/194/194 172/172/172
f 196/196/196 172/172/172 170/170/170
f 195/195/195 197/197/197 163/163/163
f 197/197/197 164/164/164 163/163/163
f 198/198/198 196/196/196 170/170/170
f 198/198/198 170/170/170 168/168/168
f 197/197/197 199/199/199 164/164/164
f 199/199/199 165/165/165 164/164/164
f 200/200/200 198/198/198 168/168/168
f 200/200/200 168/168/168 167/167/167
f 199/199/199 201/201/201 165/165/165
f 201/201/201 166/166/166 165/165/165
f 202/202/202 167/167/167 166/166/166
f 202/202/202 200/200/200 167/167/167
f 201/201/201 202/202/202 166/166/166
f 203/203/203 197/197/197 195/195/195
f 203/203/203 195/195/195 204/204/204
f 205/205/205 197/197/197 203/203/203
f 205/205/205 199/199/199 197/197/197
f 204/204/204 195/195/195 193/193/193
f 206/206/206 199/199/199 205/205/205
f 206/206/206 201/201/201 199/199/199
f 204/204/204 193/193/193 207/207/207
f 208/208/208 201/201/201 206/206/206
f 208/208/208 202/202/202 201/201/201
f 207/207/207 193/193/193 191/191/191
f 209/209/209 202/202/202 208/208/208
f 209/209/209 200/200/200 202/202/202
f 207/207/207 191/191/191 210/210/210
f 211/211/211 200/200/200 209/209/209
f 210/210/210 191/191/191 189/189/189
f 211/211/211 198/198/198 200/200/200
f 210/210/210 189/189/189 212/212/212
f 213/213/213 198/198/198 211/211/211
f 212/212/212 189/189/189 183/183/183
f 213/213/213 196/196/196 198/198/198
f 212/212/212 183/183/183 214/214/214
f 215/215/215 196/196/196 213/213/213
f 214/214/214 183/183/183 184/184/184
f 215/215/215 194/194/194 196/196/196
f 214/214/214 184/184/184 216/216/216
f 217/217/217 194/194/194 215/215/215
f 216/216/216 184/184/184 185/185/185
f 217/217/217 192/192/192 194/194/194
f 216/216/216 185/185/185 218/218/218
f 219/219/219 192/192/192 217/217/217
f 218/218/218 185/185/185 186/186/186
f 219/219/219 190/190/190 192/192/192
f 218/218/218 186/186/186 220/220/220
f 221/221/221 190/190/190 219/219/219
f 220/220/220 186/186/186 187/187/187
f 221/221/221 188/188/188 190/190/190
f 220/220/220 187/187/187 222/222/222
f 222/222/222 188/188/188 221/221/221
f 222/222/222 187/187/187 188/188/188
f 225/225/225 224/224/224 223/223/223
f 225/225/225 223/223/223 226/226/226
f 227/227/227 224/224/224 225/225/225
f 226/226/226 223/223/223 228/228/228
f 227/227/227 229/229/229 224/224/224
f 226/226/226 228/228/228 230/230/230
f 231/231/231 229/229/229 227/227/227
f 230/230/230 228/228/228 232/232/232
f 231/231/231 233/233/233 229/229/229
f 230/230/230 232/232/232 234/234/234
f 235/235/235 233/233/233 231/231/231
f 234/234/234 232/232/232 236/236/236
f 235/235/235 237/237/237 233/233/233
f 234/234/234 236/236/236 238/238/238
f 239/239/239 237/237/237 235/235/235
f 238/238/238 236/236/236 240/240/240
f 239/239/239 241/241/241 237/237/237
f 238/238/238 240/240/240 242/242/242
f 243/243/243 241/241/241 239/239/239
f 242/242/242 240/240/240 244/244/244
f 243/243/243 245/245/245 241/241/241
f 242/242/242 244/244/244 246/246/246
f 247/247/247 245/245/245 243/243/243
f 246/246/246 244/244/244 248/248/248
f 247/247/247 249/249/249 245/245/245
f 246/246/246 248/248/248 250/250/250
f 251/251/251 249/249/249 247/247/247
f 250/250/250 248/248/248 252/252/252
f 251/251/251 253/253/253 249/249/249
f 250/250/250 252/252/252 254/254/254
f 255/255/255 253/253/253 251/251/251
f 254/254/254 252/252/252 256/256/256
f 255/255/255 257/257/257 253/253/253
f 254/254/254 256/256/256 258/258/258
f 259/259/259 257/257/257 255/255/255
f 258/258/258 256/256/256 260/260/260
f 259/259/259 261/261/261 257/257/257
f 258/258/258 260/260/260 262/262/262
f 262/262/262 261/261/261 259/259/259
f 262/262/262 260/260/260 261/261/261
