g PT_03_Canopy_03
v -139.4013 33.79517 20.36713
v -187.8509 -43.68103 25.90375
v -194.8514 -56.84253 -3.854614
v 36.93325 -13.57361 -100.4598
v 53.30743 -27.34778 -99.9812
v 57.53436 -69.42761 -148.0838
v -85.66171 12.50171 64.5667
v -106.8493 5.039551 17.83258
v -175.3963 -75.14258 29.06329
v -85.66171 12.50171 64.5667
v -175.3963 -75.14258 29.06329
v -136.1074 -63.61816 102.6004
v -18.96021 13.46094 -96.51538
v 4.062927 -80.80029 -160.5515
v -22.31619 -64.745 -157.0052
v 36.93325 -13.57361 -100.4598
v 4.062927 -80.80029 -160.5515
v 68.19305 -51.21228 -133.5253
v 47.12631 -82.75757 -161.8425
v -118.5522 -12.96826 -18.31885
v -152.7211 -59.57629 -69.15796
v -170.9505 -74.50195 -26.52057
v -109.9491 -50.12573 147.9126
v -103.0188 18.75586 75.578
v -108.8886 38.797 82.3922
v -109.9491 -50.12573 147.9126
v -109.7088 -65.17236 140.4705
v -103.0188 18.75586 75.578
v -1.992554 -61.93835 187.1765
v 1.156097 -67.72986 172.6522
v 4.443329 6.591431 100.4597
v -25.37592 38.44421 -124.6905
v -29.02039 -58.93323 -170.2051
v -18.1965 -47.17334 -177.2463
v 8.467804 36.68848 134.9352
v 30.25629 -61.77112 182.0835
v 21.78928 -48.02295 188.0494
v 30.25629 -61.77112 182.0835
v -22.90994 -88.27026 177.4344
v -21.2717 -87.12585 193.5945
v 30.25629 -61.77112 182.0835
v 25.15283 -65.77551 167.812
v -22.90994 -88.27026 177.4344
v -25.37592 38.44421 -124.6905
v 23.28778 157.0189 -65.24561
v -18.60748 156.0122 -69.24737
v 48.78372 14.71313 -131.1418
v 54.55307 156.9199 -41.29962
v 109.7261 15.29431 -85.6955
v 69.65259 156.5635 -4.116699
v 138.7373 13.82471 -15.91479
v 181.339 -66.67114 -62.91602
v 179.4485 -49.33777 -12.47266
v 162.1551 -69.54871 -93.12988
v 137.6878 -47.23462 -110.9149
v 8.497223 -56.53503 -186.9536
v -18.1965 -47.17334 -177.2463
v 70.7979 -32.85815 -153.3827
v 49.73147 -64.4032 -181.7
v 69.78897 -3.409546 -121.4044
v 70.83184 -52.09558 -164.1285
v 139.4941 -45.00842 -104.9764
v 106.4202 -58.80737 -142.6857
v -153.3652 -64.95239 -60.83392
v -89.39929 21.75195 -29.0412
v -18.96021 13.46094 -96.51538
v -23.16644 -44.21375 -141.4675
v -139.4013 33.79517 20.36713
v -74.36032 155.7255 -27.12885
v -81.26419 156.3579 14.00018
v -118.912 49.5614 -41.91973
v -152.3291 0.7276611 -27.5578
v -194.8514 -56.84253 -3.854614
v -145.2961 11.10925 -21.54144
v -173.0715 -41.85083 -71.91216
v -191.3009 -56.77625 -29.27484
v 138.7373 13.82471 -15.91479
v 64.23938 156.1135 35.33258
v 69.65259 156.5635 -4.116699
v 115.2538 31.44519 57.09405
v 40.35251 155.9393 65.85474
v 169.448 -52.98401 40.06378
v 168.3297 -42.42578 -8.875305
v 68.18912 40.60315 105.0336
v 4.040009 156.1667 80.48041
v 8.467804 36.68848 134.9352
v -35.39377 156.6058 74.73291
v 101.4502 -65.86523 164.8708
v 70.32077 -74.83484 190.2175
v 9.988831 -50.17175 191.3354
v 30.574 -69.57715 197.6396
v 124.9589 -74.15588 161.5067
v 98.62424 -52.19421 163.3815
v 170.2496 -99.53125 119.6724
v 170.6891 -49.66028 67.29522
v -65.61279 18.78528 141.8789
v -66.66995 156.4447 50.73785
v -108.8886 38.797 82.3922
v -81.26419 156.3579 14.00018
v -139.4013 33.79517 20.36713
v -194.4411 -57.34875 36.60138
v -155.1519 -45.82373 110.1384
v -109.9491 -50.12573 147.9126
v -70.62967 -13.07068 150.6561
v -58.29047 -59.39746 189.7325
v -26.27344 -70.51758 197.6718
v 21.78928 -48.02295 188.0494
v -118.912 49.5614 -41.91973
v -18.60748 156.0122 -69.24737
v -74.36032 155.7255 -27.12885
v -25.37592 38.44421 -124.6905
v -34.62277 -27.18945 -158.9964
v -167.4559 -47.8429 -76.24414
v 106.8493 -14.82568 -9.567383
v 85.70139 3.280884 42.18817
v 149.2818 -70.9519 37.38422
v 148.1636 -60.39404 -11.55505
v -167.4559 -47.8429 -76.24414
v -27.72763 -40.93237 -154.3846
v -34.62277 -27.18945 -158.9964
v -163.8322 -61.96436 -69.16394
v -23.16644 -44.21375 -141.4675
v -153.3652 -64.95239 -60.83392
v -47.48846 -21.75195 98.65271
v -85.66171 12.50171 64.5667
v -98.68851 -67.97986 130.8604
v -60.52499 -37.40747 126.2808
v -53.39011 -83.58911 163.3395
v 4.443329 6.591431 100.4597
v 4.443329 6.591431 100.4597
v -53.39011 -83.58911 163.3395
v -22.90994 -88.27026 177.4344
v 25.15283 -65.77551 167.812
v 85.70139 3.280884 42.18817
v 153.952 -116.601 106.3732
v 154.3915 -66.72961 53.99573
v 103.0703 -97.34497 144.6763
v 103.0703 -97.34497 144.6763
v 85.70139 3.280884 42.18817
v 49.66745 15.92664 81.02966
v 81.63666 -69.45325 151.2163
v 36.93325 -13.57361 -100.4598
v 82.14217 -15.19702 -64.86206
v 53.30743 -27.34778 -99.9812
v 127.8468 -63.14038 -88.45953
v 94.77283 -76.93994 -126.1686
v 82.14217 -15.19702 -64.86206
v 142.9455 -87.59265 -86.6203
v 118.4783 -65.27869 -104.4056
v 152.8844 -94.51538 -51.17273
v 106.8493 -14.82568 -9.567383
v 152.8844 -94.51538 -51.17273
v 82.14217 -15.19702 -64.86206
v 161.0729 -67.1709 -3.495911
v -106.8493 5.039551 17.83258
v -125.6704 -23.47119 -24.42389
v -174.6241 -74.74963 -1.266968
v -167.6237 -61.58826 28.49146
v 59.62411 -98.44103 165.1078
v 1.156097 -67.72986 172.6522
v 21.74124 -87.1355 178.9564
v 4.443329 6.591431 100.4597
v 93.97241 -83.25049 145.4628
v 49.66745 15.92664 81.02966
v -125.6704 -23.47119 -24.42389
v -106.8493 5.039551 17.83258
v -89.39929 21.75195 -29.0412
v -118.5522 -12.96826 -18.31885
v -152.7211 -59.57629 -69.15796
v 49.73147 -64.4032 -181.7
v 54.93152 -80.14185 -175.6473
v 78.19131 -45.19421 -144.2554
v 70.7979 -32.85815 -153.3827
v 106.4202 -58.80737 -142.6857
v 101.952 -75.31458 -140.238
v 138.4409 -60.26184 -98.3988
v 139.4941 -45.00842 -104.9764
v 181.339 -66.67114 -62.91602
v 175.2902 -61.11267 -0.5436401
v 179.4485 -49.33777 -12.47266
v 175.5474 -91.80298 -57.71967
v 161.0729 -67.1709 -3.495911
v 152.8844 -94.51538 -51.17273
v 168.3297 -42.42578 -8.875305
v 163.9148 -69.68738 41.72327
v 169.448 -52.98401 40.06378
v 162.957 -58.33813 -12.58087
v 149.2818 -70.9519 37.38422
v 148.1636 -60.39404 -11.55505
v 124.9589 -74.15588 161.5067
v 84.29431 -61.23132 165.0879
v 98.62424 -52.19421 163.3815
v 114.564 -93.85425 161.5814
v 81.63666 -69.45325 151.2163
v 103.0703 -97.34497 144.6763
v 30.574 -69.57715 197.6396
v -1.992554 -61.93835 187.1765
v 9.988831 -50.17175 191.3354
v 21.23773 -84.29053 194.9919
v 1.156097 -67.72986 172.6522
v 21.74124 -87.1355 178.9564
v -58.29047 -59.39746 189.7325
v -62.40527 -79.35986 180.8975
v -68.86765 -32.37451 143.6125
v -70.62967 -13.07068 150.6561
v -70.62967 -13.07068 150.6561
v -109.7088 -65.17236 140.4705
v -109.9491 -50.12573 147.9126
v -68.86765 -32.37451 143.6125
v -98.68851 -67.97986 130.8604
v -60.52499 -37.40747 126.2808
v -155.1519 -45.82373 110.1384
v -188.9672 -72.88672 34.09857
v -194.4411 -57.34875 36.60138
v -147.5594 -61.08167 112.5946
v -175.3963 -75.14258 29.06329
v -136.1074 -63.61816 102.6004
v -191.3009 -56.77625 -29.27484
v -166.1187 -56.78723 -76.51556
v -173.0715 -41.85083 -71.91216
v -185.8436 -72.2384 -28.65436
v -152.7211 -59.57629 -69.15796
v -170.9505 -74.50195 -26.52057
v 138.7373 13.82471 -15.91479
v 162.957 -58.33813 -12.58087
v 168.3297 -42.42578 -8.875305
v 127.8935 -5.35022 -8.274048
v 148.1636 -60.39404 -11.55505
v 106.8493 -14.82568 -9.567383
v 169.448 -52.98401 40.06378
v 105.6568 9.817017 52.00391
v 115.2538 31.44519 57.09405
v 163.9148 -69.68738 41.72327
v 85.70139 3.280884 42.18817
v 149.2818 -70.9519 37.38422
v -118.912 49.5614 -41.91973
v -163.8322 -61.96436 -69.16394
v -167.4559 -47.8429 -76.24414
v -107.2606 29.64722 -40.64008
v -153.3652 -64.95239 -60.83392
v -89.39929 21.75195 -29.0412
v -109.7088 -65.17236 140.4705
v -85.66171 12.50171 64.5667
v -103.0188 18.75586 75.578
v -98.68851 -67.97986 130.8604
v 98.62424 -52.19421 163.3815
v 61.37244 22.28735 96.93695
v 68.18912 40.60315 105.0336
v 84.29431 -61.23132 165.0879
v 49.66745 15.92664 81.02966
v 81.63666 -69.45325 151.2163
v -34.62277 -27.18945 -158.9964
v -26.27698 20.46924 -114.314
v -25.37592 38.44421 -124.6905
v -27.72763 -40.93237 -154.3846
v -18.96021 13.46094 -96.51538
v -23.16644 -44.21375 -141.4675
v 48.78372 14.71313 -131.1418
v 65.59717 -65.94482 -158.4085
v 70.83184 -52.09558 -164.1285
v 44.97577 -5.781616 -120.3155
v 57.53436 -69.42761 -148.0838
v 36.93325 -13.57361 -100.4598
v 139.4941 -45.00842 -104.9764
v 98.5795 -6.368896 -80.48114
v 109.7261 15.29431 -85.6955
v 138.4409 -60.26184 -98.3988
v 82.14217 -15.19702 -64.86206
v 127.8468 -63.14038 -88.45953
v -194.4411 -57.34875 36.60138
v -128.6104 12.39783 19.85052
v -139.4013 33.79517 20.36713
v -188.9672 -72.88672 34.09857
v -106.8493 5.039551 17.83258
v -175.3963 -75.14258 29.06329
v 9.988831 -50.17175 191.3354
v 9.169647 15.29248 122.7442
v 8.467804 36.68848 134.9352
v -1.992554 -61.93835 187.1765
v 4.443329 6.591431 100.4597
v -108.8886 38.797 82.3922
v -147.5594 -61.08167 112.5946
v -155.1519 -45.82373 110.1384
v -103.0188 18.75586 75.578
v -136.1074 -63.61816 102.6004
v -85.66171 12.50171 64.5667
v -139.4013 33.79517 20.36713
v -182.5961 -58.9646 31.02753
v -187.8509 -43.68103 25.90375
v -128.6104 12.39783 19.85052
v -167.6237 -61.58826 28.49146
v -106.8493 5.039551 17.83258
v -173.0715 -41.85083 -71.91216
v -107.2606 29.64722 -40.64008
v -118.912 49.5614 -41.91973
v -166.1187 -56.78723 -76.51556
v -89.39929 21.75195 -29.0412
v -152.7211 -59.57629 -69.15796
v -25.37592 38.44421 -124.6905
v -26.27698 20.46924 -114.314
v -29.02039 -58.93323 -170.2051
v -22.31619 -64.745 -157.0052
v -18.96021 13.46094 -96.51538
v 70.7979 -32.85815 -153.3827
v 44.97577 -5.781616 -120.3155
v 48.78372 14.71313 -131.1418
v 78.19131 -45.19421 -144.2554
v 36.93325 -13.57361 -100.4598
v 68.19305 -51.21228 -133.5253
v 109.7261 15.29431 -85.6955
v 127.0954 -59.9696 -116.55
v 137.6878 -47.23462 -110.9149
v 98.5795 -6.368896 -80.48114
v 118.4783 -65.27869 -104.4056
v 82.14217 -15.19702 -64.86206
v 179.4485 -49.33777 -12.47266
v 127.8935 -5.35022 -8.274048
v 138.7373 13.82471 -15.91479
v 175.2902 -61.11267 -0.5436401
v 106.8493 -14.82568 -9.567383
v 161.0729 -67.1709 -3.495911
v 115.2538 31.44519 57.09405
v 169.291 -61.48975 55.34174
v 170.6891 -49.66028 67.29522
v 105.6568 9.817017 52.00391
v 154.3915 -66.72961 53.99573
v 85.70139 3.280884 42.18817
v 68.18912 40.60315 105.0336
v 106.2885 -77.57825 153.6163
v 101.4502 -65.86523 164.8708
v 61.37244 22.28735 96.93695
v 93.97241 -83.25049 145.4628
v 49.66745 15.92664 81.02966
v 8.467804 36.68848 134.9352
v 9.169647 15.29248 122.7442
v 30.25629 -61.77112 182.0835
v 25.15283 -65.77551 167.812
v 4.443329 6.591431 100.4597
v 101.4502 -65.86523 164.8708
v 106.2885 -77.57825 153.6163
v 69.28699 -96.36804 183.2578
v 70.32077 -74.83484 190.2175
v 170.2496 -99.53125 119.6724
v 114.564 -93.85425 161.5814
v 124.9589 -74.15588 161.5067
v 168.6002 -114.4827 111.8068
v 103.0703 -97.34497 144.6763
v 153.952 -116.601 106.3732
v 170.6891 -49.66028 67.29522
v 168.6002 -114.4827 111.8068
v 170.2496 -99.53125 119.6724
v 169.291 -61.48975 55.34174
v 153.952 -116.601 106.3732
v 154.3915 -66.72961 53.99573
v 70.32077 -74.83484 190.2175
v 21.23773 -84.29053 194.9919
v 30.574 -69.57715 197.6396
v 69.28699 -96.36804 183.2578
v 21.74124 -87.1355 178.9564
v 59.62411 -98.44103 165.1078
v -26.27344 -70.51758 197.6718
v -62.40527 -79.35986 180.8975
v -58.29047 -59.39746 189.7325
v -21.2717 -87.12585 193.5945
v -53.39011 -83.58911 163.3395
v -22.90994 -88.27026 177.4344
v 21.78928 -48.02295 188.0494
v -21.2717 -87.12585 193.5945
v -26.27344 -70.51758 197.6718
v 30.25629 -61.77112 182.0835
v -187.8509 -43.68103 25.90375
v -190.2122 -73.4762 -3.974487
v -194.8514 -56.84253 -3.854614
v -182.5961 -58.9646 31.02753
v -174.6241 -74.74963 -1.266968
v -167.6237 -61.58826 28.49146
v -18.1965 -47.17334 -177.2463
v 2.552185 -77.53052 -180.9015
v 8.497223 -56.53503 -186.9536
v -29.02039 -58.93323 -170.2051
v 4.062927 -80.80029 -160.5515
v -22.31619 -64.745 -157.0052
v -145.2961 11.10925 -21.54144
v -185.8436 -72.2384 -28.65436
v -191.3009 -56.77625 -29.27484
v -134.5638 -4.088989 -16.81396
v -170.9505 -74.50195 -26.52057
v -118.5522 -12.96826 -18.31885
v -152.3291 0.7276611 -27.5578
v -134.5638 -4.088989 -16.81396
v -145.2961 11.10925 -21.54144
v -139.7143 -13.99036 -35.01367
v -118.5522 -12.96826 -18.31885
v -125.6704 -23.47119 -24.42389
v -194.8514 -56.84253 -3.854614
v -139.7143 -13.99036 -35.01367
v -152.3291 0.7276611 -27.5578
v -190.2122 -73.4762 -3.974487
v -125.6704 -23.47119 -24.42389
v -174.6241 -74.74963 -1.266968
v 8.497223 -56.53503 -186.9536
v 54.93152 -80.14185 -175.6473
v 49.73147 -64.4032 -181.7
v 2.552185 -77.53052 -180.9015
v 47.12631 -82.75757 -161.8425
v 4.062927 -80.80029 -160.5515
v 70.83184 -52.09558 -164.1285
v 58.15509 -18.77991 -115.683
v 69.78897 -3.409546 -121.4044
v 65.59717 -65.94482 -158.4085
v 53.30743 -27.34778 -99.9812
v 57.53436 -69.42761 -148.0838
v 69.78897 -3.409546 -121.4044
v 101.952 -75.31458 -140.238
v 106.4202 -58.80737 -142.6857
v 58.15509 -18.77991 -115.683
v 94.77283 -76.93994 -126.1686
v 53.30743 -27.34778 -99.9812
v 162.1551 -69.54871 -93.12988
v 175.5474 -91.80298 -57.71967
v 181.339 -66.67114 -62.91602
v 154.5916 -85.15576 -97.66211
v 152.8844 -94.51538 -51.17273
v 142.9455 -87.59265 -86.6203
v 137.6878 -47.23462 -110.9149
v 154.5916 -85.15576 -97.66211
v 162.1551 -69.54871 -93.12988
v 127.0954 -59.9696 -116.55
v 142.9455 -87.59265 -86.6203
v 118.4783 -65.27869 -104.4056
v -62.40527 -79.35986 180.8975
v -53.39011 -83.58911 163.3395
v -60.52499 -37.40747 126.2808
v -68.86765 -32.37451 143.6125
v 106.2885 -77.57825 153.6163
v 93.97241 -83.25049 145.4628
v 59.62411 -98.44103 165.1078
v 69.28699 -96.36804 183.2578
v 101.952 -75.31458 -140.238
v 94.77283 -76.93994 -126.1686
v 127.8468 -63.14038 -88.45953
v 138.4409 -60.26184 -98.3988
v 54.93152 -80.14185 -175.6473
v 47.12631 -82.75757 -161.8425
v 68.19305 -51.21228 -133.5253
v 78.19131 -45.19421 -144.2554
vt 0.4267578 0.6689453
vt 0.4228516 0.6586914
vt 0.421875 0.6567383
vt 0.4406738 0.6625977
vt 0.4418945 0.6606445
vt 0.4418945 0.6552734
vt 0.4316406 0.6660156
vt 0.4294434 0.6650391
vt 0.4238281 0.6547852
vt 0.4316406 0.6660156
vt 0.4238281 0.6547852
vt 0.4277344 0.65625
vt 0.4360352 0.6660156
vt 0.4372559 0.6538086
vt 0.4353027 0.6557617
vt 0.4406738 0.6625977
vt 0.4372559 0.6538086
vt 0.4428711 0.6577148
vt 0.440918 0.6533203
vt 0.4282227 0.6625977
vt 0.4250488 0.6567383
vt 0.4238281 0.6547852
vt 0.4301758 0.6577148
vt 0.4301758 0.6669922
vt 0.4299316 0.6694336
vt 0.4301758 0.6577148
vt 0.4301758 0.6557617
vt 0.4301758 0.6669922
vt 0.4394531 0.65625
vt 0.4396973 0.6557617
vt 0.4394531 0.6650391
vt 0.4353027 0.6694336
vt 0.4345703 0.6567383
vt 0.4353027 0.6582031
vt 0.4399414 0.6694336
vt 0.4421387 0.65625
vt 0.4414063 0.6582031
vt 0.4421387 0.65625
vt 0.4377441 0.652832
vt 0.4379883 0.652832
vt 0.4421387 0.65625
vt 0.4416504 0.6557617
vt 0.4377441 0.652832
vt 0.4353027 0.6694336
vt 0.4396973 0.6850586
vt 0.4362793 0.6850586
vt 0.4414063 0.6665039
vt 0.4423828 0.6850586
vt 0.4467773 0.6665039
vt 0.4440918 0.6850586
vt 0.449707 0.6660156
vt 0.4528809 0.6557617
vt 0.453125 0.6577148
vt 0.4511719 0.6552734
vt 0.4489746 0.6582031
vt 0.4375 0.6572266
vt 0.4353027 0.6582031
vt 0.4428711 0.6601563
vt 0.440918 0.6557617
vt 0.4431152 0.6640625
vt 0.4428711 0.6577148
vt 0.4489746 0.6586914
vt 0.4460449 0.6567383
vt 0.4250488 0.6557617
vt 0.4306641 0.6674805
vt 0.4360352 0.6660156
vt 0.4353027 0.6586914
vt 0.4267578 0.6689453
vt 0.4318848 0.6845703
vt 0.4316406 0.6850586
vt 0.4279785 0.6708984
vt 0.425293 0.6645508
vt 0.421875 0.6567383
vt 0.4260254 0.6660156
vt 0.4233398 0.6586914
vt 0.4221191 0.6567383
vt 0.449707 0.6660156
vt 0.4438477 0.6850586
vt 0.4440918 0.6850586
vt 0.4482422 0.668457
vt 0.4421387 0.6850586
vt 0.4526367 0.6572266
vt 0.4521484 0.6586914
vt 0.4448242 0.6699219
vt 0.439209 0.6850586
vt 0.4399414 0.6694336
vt 0.435791 0.6850586
vt 0.447998 0.6557617
vt 0.4455566 0.6547852
vt 0.4406738 0.6577148
vt 0.4423828 0.6552734
vt 0.4499512 0.6547852
vt 0.4477539 0.6577148
vt 0.4533691 0.6513672
vt 0.453125 0.6577148
vt 0.4338379 0.6669922
vt 0.4331055 0.6850586
vt 0.4299316 0.6694336
vt 0.4316406 0.6850586
vt 0.4267578 0.6689453
vt 0.4223633 0.6567383
vt 0.4262695 0.6582031
vt 0.4301758 0.6577148
vt 0.4335938 0.6625977
vt 0.4348145 0.6567383
vt 0.4375 0.6552734
vt 0.4414063 0.6582031
vt 0.4279785 0.6708984
vt 0.4362793 0.6850586
vt 0.4318848 0.6845703
vt 0.4353027 0.6694336
vt 0.434082 0.6606445
vt 0.423584 0.6582031
vt 0.4470215 0.6625977
vt 0.4458008 0.6650391
vt 0.4509277 0.6552734
vt 0.4504395 0.65625
vt 0.423584 0.6582031
vt 0.4348145 0.6591797
vt 0.434082 0.6606445
vt 0.4240723 0.65625
vt 0.4353027 0.6586914
vt 0.4250488 0.6557617
vt 0.4350586 0.6616211
vt 0.4316406 0.6660156
vt 0.4311523 0.6552734
vt 0.434082 0.659668
vt 0.4350586 0.6533203
vt 0.4394531 0.6650391
vt 0.4394531 0.6650391
vt 0.4350586 0.6533203
vt 0.4377441 0.652832
vt 0.4416504 0.6557617
vt 0.4458008 0.6650391
vt 0.4519043 0.6489258
vt 0.4516602 0.6557617
vt 0.447998 0.6518555
vt 0.447998 0.6518555
vt 0.4458008 0.6650391
vt 0.4431152 0.6665039
vt 0.4462891 0.6552734
vt 0.4406738 0.6625977
vt 0.4445801 0.6625977
vt 0.4418945 0.6606445
vt 0.4482422 0.65625
vt 0.4453125 0.6542969
vt 0.4445801 0.6625977
vt 0.4494629 0.652832
vt 0.4472656 0.6557617
vt 0.4506836 0.6518555
vt 0.4470215 0.6625977
vt 0.4506836 0.6518555
vt 0.4445801 0.6625977
vt 0.4516602 0.6557617
vt 0.4294434 0.6650391
vt 0.4274902 0.6611328
vt 0.423584 0.6547852
vt 0.4245605 0.65625
vt 0.4445801 0.6513672
vt 0.4396973 0.6557617
vt 0.4414063 0.652832
vt 0.4394531 0.6650391
vt 0.4472656 0.6533203
vt 0.4431152 0.6665039
vt 0.4274902 0.6611328
vt 0.4294434 0.6650391
vt 0.4306641 0.6674805
vt 0.4282227 0.6625977
vt 0.4250488 0.6567383
vt 0.440918 0.6557617
vt 0.4414063 0.6538086
vt 0.4436035 0.6586914
vt 0.4428711 0.6601563
vt 0.4460449 0.6567383
vt 0.4458008 0.6542969
vt 0.4489746 0.6567383
vt 0.4489746 0.6586914
vt 0.4528809 0.6557617
vt 0.4528809 0.65625
vt 0.453125 0.6577148
vt 0.4523926 0.6523438
vt 0.4516602 0.6557617
vt 0.4506836 0.6518555
vt 0.4521484 0.6586914
vt 0.4521484 0.6552734
vt 0.4526367 0.6572266
vt 0.4516602 0.6567383
vt 0.4509277 0.6552734
vt 0.4504395 0.65625
vt 0.4499512 0.6547852
vt 0.4465332 0.65625
vt 0.4477539 0.6577148
vt 0.4489746 0.6523438
vt 0.4462891 0.6552734
vt 0.447998 0.6518555
vt 0.4423828 0.6552734
vt 0.4394531 0.65625
vt 0.4406738 0.6577148
vt 0.4416504 0.6533203
vt 0.4396973 0.6557617
vt 0.4414063 0.652832
vt 0.4348145 0.6567383
vt 0.4343262 0.6538086
vt 0.4335938 0.6601563
vt 0.4335938 0.6625977
vt 0.4335938 0.6625977
vt 0.4301758 0.6557617
vt 0.4301758 0.6577148
vt 0.4335938 0.6601563
vt 0.4311523 0.6552734
vt 0.434082 0.659668
vt 0.4262695 0.6582031
vt 0.4228516 0.6547852
vt 0.4223633 0.6567383
vt 0.4267578 0.65625
vt 0.4238281 0.6547852
vt 0.4277344 0.65625
vt 0.4221191 0.6567383
vt 0.4238281 0.6567383
vt 0.4233398 0.6586914
vt 0.4226074 0.6547852
vt 0.4250488 0.6567383
vt 0.4238281 0.6547852
vt 0.449707 0.6660156
vt 0.4516602 0.6567383
vt 0.4521484 0.6586914
vt 0.4489746 0.6635742
vt 0.4504395 0.65625
vt 0.4470215 0.6625977
vt 0.4526367 0.6572266
vt 0.4475098 0.6655273
vt 0.4482422 0.668457
vt 0.4521484 0.6552734
vt 0.4458008 0.6650391
vt 0.4509277 0.6552734
vt 0.4279785 0.6708984
vt 0.4240723 0.65625
vt 0.423584 0.6582031
vt 0.4289551 0.668457
vt 0.4250488 0.6557617
vt 0.4306641 0.6674805
vt 0.4301758 0.6557617
vt 0.4316406 0.6660156
vt 0.4301758 0.6669922
vt 0.4311523 0.6552734
vt 0.4477539 0.6577148
vt 0.4440918 0.6674805
vt 0.4448242 0.6699219
vt 0.4465332 0.65625
vt 0.4431152 0.6665039
vt 0.4462891 0.6552734
vt 0.434082 0.6606445
vt 0.4353027 0.6669922
vt 0.4353027 0.6694336
vt 0.4348145 0.6591797
vt 0.4360352 0.6660156
vt 0.4353027 0.6586914
vt 0.4414063 0.6665039
vt 0.442627 0.6557617
vt 0.4428711 0.6577148
vt 0.4411621 0.6635742
vt 0.4418945 0.6552734
vt 0.4406738 0.6625977
vt 0.4489746 0.6586914
vt 0.4458008 0.6635742
vt 0.4467773 0.6665039
vt 0.4489746 0.6567383
vt 0.4445801 0.6625977
vt 0.4482422 0.65625
vt 0.4223633 0.6567383
vt 0.4277344 0.6660156
vt 0.4267578 0.6689453
vt 0.4228516 0.6547852
vt 0.4294434 0.6650391
vt 0.4238281 0.6547852
vt 0.4406738 0.6577148
vt 0.4399414 0.6665039
vt 0.4399414 0.6694336
vt 0.4394531 0.65625
vt 0.4394531 0.6650391
vt 0.4299316 0.6694336
vt 0.4267578 0.65625
vt 0.4262695 0.6582031
vt 0.4301758 0.6669922
vt 0.4277344 0.65625
vt 0.4316406 0.6660156
vt 0.4267578 0.6689453
vt 0.4233398 0.6567383
vt 0.4228516 0.6586914
vt 0.4277344 0.6660156
vt 0.4245605 0.65625
vt 0.4294434 0.6650391
vt 0.4233398 0.6586914
vt 0.4289551 0.668457
vt 0.4279785 0.6708984
vt 0.4238281 0.6567383
vt 0.4306641 0.6674805
vt 0.4250488 0.6567383
vt 0.4353027 0.6694336
vt 0.4353027 0.6669922
vt 0.4345703 0.6567383
vt 0.4353027 0.6557617
vt 0.4360352 0.6660156
vt 0.4428711 0.6601563
vt 0.4411621 0.6635742
vt 0.4414063 0.6665039
vt 0.4436035 0.6586914
vt 0.4406738 0.6625977
vt 0.4428711 0.6577148
vt 0.4467773 0.6665039
vt 0.447998 0.6567383
vt 0.4489746 0.6582031
vt 0.4458008 0.6635742
vt 0.4472656 0.6557617
vt 0.4445801 0.6625977
vt 0.453125 0.6577148
vt 0.4489746 0.6635742
vt 0.449707 0.6660156
vt 0.4528809 0.65625
vt 0.4470215 0.6625977
vt 0.4516602 0.6557617
vt 0.4482422 0.668457
vt 0.4528809 0.65625
vt 0.453125 0.6577148
vt 0.4475098 0.6655273
vt 0.4516602 0.6557617
vt 0.4458008 0.6650391
vt 0.4448242 0.6699219
vt 0.4482422 0.6542969
vt 0.447998 0.6557617
vt 0.4440918 0.6674805
vt 0.4472656 0.6533203
vt 0.4431152 0.6665039
vt 0.4399414 0.6694336
vt 0.4399414 0.6665039
vt 0.4421387 0.65625
vt 0.4416504 0.6557617
vt 0.4394531 0.6650391
vt 0.447998 0.6557617
vt 0.4482422 0.6542969
vt 0.4455566 0.6518555
vt 0.4455566 0.6547852
vt 0.4533691 0.6513672
vt 0.4489746 0.6523438
vt 0.4499512 0.6547852
vt 0.453125 0.6494141
vt 0.447998 0.6518555
vt 0.4519043 0.6489258
vt 0.453125 0.6577148
vt 0.453125 0.6494141
vt 0.4533691 0.6513672
vt 0.4528809 0.65625
vt 0.4519043 0.6489258
vt 0.4516602 0.6557617
vt 0.4455566 0.6547852
vt 0.4416504 0.6533203
vt 0.4423828 0.6552734
vt 0.4455566 0.6518555
vt 0.4414063 0.652832
vt 0.4445801 0.6513672
vt 0.4375 0.6552734
vt 0.4343262 0.6538086
vt 0.4348145 0.6567383
vt 0.4379883 0.652832
vt 0.4350586 0.6533203
vt 0.4377441 0.652832
vt 0.4414063 0.6582031
vt 0.4379883 0.652832
vt 0.4375 0.6552734
vt 0.4421387 0.65625
vt 0.4228516 0.6586914
vt 0.4223633 0.6547852
vt 0.421875 0.6567383
vt 0.4233398 0.6567383
vt 0.423584 0.6547852
vt 0.4245605 0.65625
vt 0.4353027 0.6582031
vt 0.4370117 0.6542969
vt 0.4375 0.6572266
vt 0.4345703 0.6567383
vt 0.4372559 0.6538086
vt 0.4353027 0.6557617
vt 0.4260254 0.6660156
vt 0.4226074 0.6547852
vt 0.4221191 0.6567383
vt 0.427002 0.6640625
vt 0.4238281 0.6547852
vt 0.4282227 0.6625977
vt 0.425293 0.6645508
vt 0.427002 0.6640625
vt 0.4260254 0.6660156
vt 0.4262695 0.6625977
vt 0.4282227 0.6625977
vt 0.4274902 0.6611328
vt 0.421875 0.6567383
vt 0.4262695 0.6625977
vt 0.425293 0.6645508
vt 0.4223633 0.6547852
vt 0.4274902 0.6611328
vt 0.423584 0.6547852
vt 0.4375 0.6572266
vt 0.4414063 0.6538086
vt 0.440918 0.6557617
vt 0.4370117 0.6542969
vt 0.440918 0.6533203
vt 0.4372559 0.6538086
vt 0.4428711 0.6577148
vt 0.4421387 0.6621094
vt 0.4431152 0.6640625
vt 0.442627 0.6557617
vt 0.4418945 0.6606445
vt 0.4418945 0.6552734
vt 0.4431152 0.6640625
vt 0.4458008 0.6542969
vt 0.4460449 0.6567383
vt 0.4421387 0.6621094
vt 0.4453125 0.6542969
vt 0.4418945 0.6606445
vt 0.4511719 0.6552734
vt 0.4523926 0.6523438
vt 0.4528809 0.6557617
vt 0.4504395 0.6533203
vt 0.4506836 0.6518555
vt 0.4494629 0.652832
vt 0.4489746 0.6582031
vt 0.4504395 0.6533203
vt 0.4511719 0.6552734
vt 0.447998 0.6567383
vt 0.4494629 0.652832
vt 0.4472656 0.6557617
vt 0.4343262 0.6538086
vt 0.4350586 0.6533203
vt 0.434082 0.659668
vt 0.4335938 0.6601563
vt 0.4482422 0.6542969
vt 0.4472656 0.6533203
vt 0.4445801 0.6513672
vt 0.4455566 0.6518555
vt 0.4458008 0.6542969
vt 0.4453125 0.6542969
vt 0.4482422 0.65625
vt 0.4489746 0.6567383
vt 0.4414063 0.6538086
vt 0.440918 0.6533203
vt 0.4428711 0.6577148
vt 0.4436035 0.6586914
vn -0.8554688 0.4882813 0.1738281
vn -0.8349609 0.5395508 -0.1068115
vn -0.8349609 0.5395508 -0.1067505
vn -0.5405273 -0.6230469 0.565918
vn -0.4575195 -0.6650391 0.590332
vn -0.5405273 -0.6230469 0.565918
vn 0.7255859 -0.6357422 -0.2644043
vn 0.7255859 -0.6357422 -0.2644043
vn 0.7255859 -0.6357422 -0.2644043
vn 0.7255859 -0.6357422 -0.2644043
vn 0.7255859 -0.6357422 -0.2644043
vn 0.7255859 -0.6357422 -0.2644043
vn -0.2355957 -0.5849609 0.7763672
vn -0.1472168 -0.6206055 0.7700195
vn -0.2355957 -0.5849609 0.7763672
vn -0.1705322 -0.6118164 0.7724609
vn -0.1472168 -0.6206055 0.7700195
vn -0.008483887 -0.6645508 0.7475586
vn -0.008453369 -0.6645508 0.7475586
vn 0.7661133 -0.6381836 0.07299805
vn 0.7617188 -0.6430664 0.07781982
vn 0.7617188 -0.6430664 0.07781982
vn -0.9780273 -0.09533691 -0.1845703
vn -0.8652344 -0.2709961 -0.4221191
vn -0.9780273 -0.09533691 -0.1845703
vn -0.9780273 -0.09533691 -0.1845703
vn -0.8320313 -0.3029785 -0.4645996
vn -0.8652344 -0.2709961 -0.4221191
vn -0.9829102 0.1530762 0.1016846
vn -0.9951172 0.09838867 0.003929138
vn -0.9951172 0.09838867 0.003910065
vn -0.9311523 0.182373 -0.3156738
vn -0.9985352 -0.03259277 0.03756714
vn -0.9311523 0.182373 -0.3154297
vn 0.9716797 0.2335205 0.03863525
vn 0.9829102 0.1312256 -0.1298828
vn 0.9716797 0.2335205 0.03866577
vn 0.4379883 -0.6269531 0.6445313
vn 0.4416504 -0.8955078 0.05368042
vn 0.4416504 -0.6425781 0.6259766
vn 0.4379883 -0.6269531 0.6445313
vn 0.4416504 -0.8955078 0.05368042
vn 0.4416504 -0.8955078 0.05368042
vn 0.06079102 0.4658203 -0.8828125
vn 0.326416 0.4445801 -0.8339844
vn 0.06439209 0.4260254 -0.9023438
vn 0.3085938 0.479248 -0.8217773
vn 0.7104492 0.4462891 -0.5444336
vn 0.6894531 0.4775391 -0.5444336
vn 0.8950195 0.4353027 -0.09643555
vn 0.8730469 0.4787598 -0.09057617
vn 0.7700195 0.5371094 -0.3442383
vn 0.8344727 0.5297852 -0.1507568
vn 0.7333984 0.4941406 -0.4667969
vn 0.7333984 0.4941406 -0.4667969
vn 0.1130981 0.5507813 -0.8266602
vn 0.0513916 0.5600586 -0.8266602
vn 0.2406006 0.5249023 -0.8164063
vn 0.2406006 0.5249023 -0.8164063
vn 0.5424805 0.4765625 -0.6918945
vn 0.6435547 0.3930664 -0.6567383
vn 0.4780273 0.5219727 -0.706543
vn 0.4780273 0.5219727 -0.706543
vn 0.5073242 -0.5791016 0.6386719
vn 0.5073242 -0.5791016 0.6386719
vn 0.5073242 -0.5791016 0.6386719
vn 0.5073242 -0.5791016 0.6386719
vn -0.8554688 0.4882813 0.1739502
vn -0.8955078 0.4084473 -0.1773682
vn -0.8994141 0.4238281 0.1069336
vn -0.8818359 0.4404297 -0.1677246
vn -0.8354492 0.5380859 -0.1126709
vn -0.8349609 0.5395508 -0.1067505
vn -0.8295898 0.5424805 -0.1322021
vn -0.8271484 0.5488281 -0.1208496
vn -0.8271484 0.5488281 -0.1207886
vn 0.8730469 0.4787598 -0.09057617
vn 0.8349609 0.4086914 0.3686523
vn 0.8950195 0.4353027 -0.09643555
vn 0.796875 0.4736328 0.3745117
vn 0.5556641 0.3937988 0.7324219
vn 0.855957 0.5009766 0.1280518
vn 0.855957 0.5009766 0.1280518
vn 0.5288086 0.4831543 0.6977539
vn 0.1453857 0.4211426 0.8950195
vn 0.1514893 0.480957 0.8632813
vn -0.3510742 0.4523926 0.8198242
vn 0.373291 0.5551758 0.7431641
vn 0.3356934 0.5498047 0.7646484
vn 0.2316895 0.5297852 0.815918
vn 0.2316895 0.5297852 0.815918
vn 0.6713867 0.5429688 0.5043945
vn 0.612793 0.5717773 0.5458984
vn 0.7045898 0.5244141 0.4782715
vn 0.7045898 0.5244141 0.4782715
vn -0.3623047 0.4697266 0.8051758
vn -0.7368164 0.4262695 0.5249023
vn -0.7387695 0.4638672 0.4887695
vn -0.8994141 0.4238281 0.1069336
vn -0.8554688 0.4882813 0.1739502
vn -0.7773438 0.5322266 0.3354492
vn -0.7773438 0.5322266 0.3354492
vn -0.5961914 0.4421387 0.6699219
vn -0.3710938 0.4904785 0.7885742
vn -0.0838623 0.5146484 0.8535156
vn -0.05560303 0.5175781 0.8540039
vn -0.05560303 0.5175781 0.8540039
vn -0.5546875 0.4291992 -0.7124023
vn -0.5825195 0.3620605 -0.7275391
vn -0.5825195 0.3620605 -0.7275391
vn -0.5512695 0.4379883 -0.7104492
vn -0.5302734 0.4816895 -0.6977539
vn -0.5302734 0.4816895 -0.6977539
vn -0.7514648 -0.6523438 -0.1005859
vn -0.7514648 -0.6523438 -0.1005859
vn -0.7514648 -0.6523438 -0.1005859
vn -0.7514648 -0.6523438 -0.1005859
vn -0.4099121 -0.4802246 -0.7753906
vn -0.263916 -0.7475586 -0.6098633
vn -0.4099121 -0.4802246 -0.7753906
vn -0.2641602 -0.7470703 -0.6098633
vn -0.01797485 -0.9624023 -0.2712402
vn -0.01799011 -0.9624023 -0.2712402
vn 0.2219238 -0.7133789 -0.6650391
vn 0.2232666 -0.7114258 -0.6665039
vn 0.2232666 -0.7114258 -0.6665039
vn 0.2218018 -0.7133789 -0.6645508
vn 0.1959229 -0.6645508 -0.7211914
vn 0.2016602 -0.6762695 -0.7084961
vn 0.2016602 -0.6762695 -0.7084961
vn 0.1958008 -0.6645508 -0.7211914
vn 0.1895752 -0.6508789 -0.7348633
vn 0.1895752 -0.6508789 -0.7348633
vn -0.6538086 -0.5927734 -0.4697266
vn -0.578125 -0.6157227 -0.5351563
vn -0.578125 -0.6157227 -0.5351563
vn -0.628418 -0.6015625 -0.4931641
vn -0.628418 -0.6015625 -0.4931641
vn -0.6538086 -0.5927734 -0.4697266
vn -0.71875 -0.565918 -0.4042969
vn -0.7182617 -0.565918 -0.4042969
vn -0.5405273 -0.6230469 0.565918
vn -0.4282227 -0.6777344 0.5976563
vn -0.4575195 -0.6650391 0.590332
vn -0.4199219 -0.6811523 0.5996094
vn -0.4199219 -0.6811523 0.5996094
vn -0.7402344 -0.6230469 0.2524414
vn -0.7426758 -0.6591797 0.117981
vn -0.7426758 -0.6591797 0.1179199
vn -0.7236328 -0.6386719 0.2617188
vn -0.7133789 -0.6005859 0.3608398
vn -0.7236328 -0.6386719 0.2617188
vn -0.7402344 -0.6230469 0.2524414
vn -0.6425781 -0.6118164 0.4614258
vn 0.7543945 -0.6489258 0.09893799
vn 0.7460938 -0.65625 0.1106567
vn 0.7431641 -0.6591797 0.1148682
vn 0.7431641 -0.6586914 0.1147461
vn -0.2751465 -0.6079102 -0.7446289
vn -0.4147949 -0.6279297 -0.6586914
vn -0.4147949 -0.6279297 -0.6582031
vn -0.2385254 -0.6005859 -0.7631836
vn -0.2010498 -0.5913086 -0.7807617
vn -0.2010498 -0.5913086 -0.7807617
vn 0.7460938 -0.65625 0.1106567
vn 0.7543945 -0.6489258 0.09893799
vn 0.7680664 -0.6362305 0.07092285
vn 0.7661133 -0.6381836 0.07299805
vn 0.7617188 -0.6430664 0.07781982
vn 0.7900391 0.02337646 -0.6123047
vn 0.8916016 -0.394043 -0.2231445
vn 0.8945313 -0.3686523 -0.253418
vn 0.7900391 0.02328491 -0.6123047
vn 0.7695313 -0.2946777 -0.5664063
vn 0.6474609 -0.6943359 -0.3139648
vn 0.6459961 -0.6967773 -0.3122559
vn 0.7695313 -0.2946777 -0.5664063
vn 0.9711914 -0.2094727 0.112854
vn 0.7373047 -0.5961914 0.3178711
vn 0.9711914 -0.2094727 0.112854
vn 0.7138672 -0.6176758 0.3293457
vn 0.2478027 -0.8554688 0.454834
vn 0.2478027 -0.8554688 0.454834
vn 0.9467773 -0.3110352 -0.08502197
vn 0.6674805 -0.7255859 -0.1673584
vn 0.9467773 -0.3110352 -0.08508301
vn 0.6757813 -0.7182617 -0.1660156
vn 0.1328125 -0.9692383 -0.208252
vn 0.1328125 -0.9692383 -0.208252
vn 0.08435059 -0.01078796 0.996582
vn -0.2766113 -0.3342285 0.9008789
vn 0.08428955 -0.01080322 0.996582
vn -0.3210449 -0.3723145 0.8710938
vn -0.6098633 -0.605957 0.5107422
vn -0.6098633 -0.605957 0.5107422
vn -0.3056641 0.001292229 0.9521484
vn -0.6030273 -0.3991699 0.690918
vn -0.3056641 0.001292229 0.9521484
vn -0.6162109 -0.421875 0.6650391
vn -0.7045898 -0.7006836 0.1138306
vn -0.7045898 -0.7006836 0.1138306
vn -0.9775391 -0.02593994 0.2089844
vn -0.9707031 -0.2272949 -0.07568359
vn -0.9775391 -0.2056885 -0.04370117
vn -0.9775391 -0.0259552 0.2089844
vn 0.2509766 -0.3637695 0.8969727
vn 0.4138184 -0.5327148 0.7382813
vn 0.2509766 -0.3637695 0.8969727
vn 0.3850098 -0.503418 0.7734375
vn 0.5234375 -0.6401367 0.5625
vn 0.5234375 -0.6401367 0.5625
vn -0.8066406 -0.3430176 0.480957
vn -0.5371094 -0.7431641 0.3991699
vn -0.8066406 -0.3430176 0.480957
vn -0.5419922 -0.7382813 0.401123
vn -0.07373047 -0.9790039 0.1894531
vn -0.0737915 -0.9790039 0.1894531
vn -0.8457031 -0.2861328 -0.4506836
vn -0.5488281 -0.6958008 -0.463623
vn -0.8457031 -0.2861328 -0.4506836
vn -0.546875 -0.6972656 -0.4633789
vn -0.05435181 -0.9394531 -0.3381348
vn -0.05435181 -0.9394531 -0.3381348
vn -0.08215332 -0.07348633 -0.9941406
vn -0.04122925 0.000402689 -0.9990234
vn -0.08215332 -0.07348633 -0.9941406
vn -0.04745483 -0.01078796 -0.9990234
vn -0.01046753 0.05566406 -0.9985352
vn -0.01047516 0.05566406 -0.9985352
vn 0.07067871 -0.1165771 0.9907227
vn -0.1025391 -0.2176514 0.9707031
vn 0.07067871 -0.1165161 0.9907227
vn -0.1270752 -0.2314453 0.9643555
vn -0.2954102 -0.3222656 0.8994141
vn -0.2954102 -0.3222656 0.8994141
vn -0.4985352 -0.01089478 0.8666992
vn -0.5268555 0.04373169 0.8486328
vn -0.4985352 -0.0109024 0.8666992
vn -0.5239258 0.03781128 0.8510742
vn -0.5493164 0.09051514 0.8305664
vn -0.5493164 0.09051514 0.8305664
vn -0.8320313 -0.3029785 -0.4645996
vn -0.6152344 -0.4453125 -0.6508789
vn -0.8652344 -0.2709961 -0.4221191
vn -0.6152344 -0.4453125 -0.6508789
vn -0.6274414 0.3193359 0.7099609
vn -0.796875 0.1835938 0.5756836
vn -0.6274414 0.3193359 0.7099609
vn -0.8027344 0.1778564 0.5693359
vn -0.9082031 0.04541016 0.4157715
vn -0.9082031 0.04541016 0.4157715
vn 0.9663086 0.06469727 -0.2495117
vn 0.9536133 0.1176147 -0.2768555
vn 0.9663086 0.06469727 -0.2495117
vn 0.9506836 0.1279297 -0.2819824
vn 0.9365234 0.1728516 -0.3044434
vn 0.9365234 0.1728516 -0.3044434
vn -0.8666992 -0.01207733 -0.4987793
vn -0.8769531 0.007873535 -0.4804688
vn -0.8666992 -0.01207733 -0.4987793
vn -0.8759766 0.006263733 -0.4821777
vn -0.8862305 0.02705383 -0.4626465
vn -0.8862305 0.02703857 -0.4626465
vn 0.5639648 0.07617188 0.8222656
vn 0.5942383 0.1448975 0.7910156
vn 0.5639648 0.07617188 0.8222656
vn 0.597168 0.1519775 0.7875977
vn 0.6206055 0.2138672 0.7543945
vn 0.6206055 0.2138672 0.7543945
vn -0.2264404 -0.02012634 -0.9736328
vn -0.211792 -0.0100174 -0.9770508
vn -0.2264404 -0.02011108 -0.9736328
vn -0.2103271 -0.008972168 -0.9775391
vn -0.1954346 0.001255989 -0.9804688
vn -0.1954346 0.001242638 -0.980957
vn -0.9516602 0.2163086 0.2177734
vn -0.9814453 0.1572266 0.1092529
vn -0.9516602 0.2163086 0.2178955
vn -0.9829102 0.1530762 0.1016846
vn -0.9951172 0.09838867 0.003910065
vn 0.4831543 0.07659912 0.8720703
vn 0.5454102 0.04840088 0.8364258
vn 0.4831543 0.07659912 0.8720703
vn 0.5390625 0.05148315 0.8408203
vn 0.59375 0.02519226 0.8041992
vn 0.59375 0.025177 0.8041992
vn -0.01173401 0.1195679 0.9926758
vn 0.06640625 0.07995605 0.9946289
vn -0.0117569 0.1195679 0.9926758
vn 0.06002808 0.08319092 0.9946289
vn 0.1348877 0.04452515 0.9897461
vn 0.1347656 0.04452515 0.9897461
vn 0.2237549 0.2102051 -0.9516602
vn 0.3762207 0.1126709 -0.9194336
vn 0.2237549 0.2102051 -0.9516602
vn 0.3862305 0.105835 -0.9165039
vn 0.5205078 0.00774765 -0.8540039
vn 0.5205078 0.007728577 -0.8540039
vn -0.9311523 0.182373 -0.3156738
vn -1 -0.008705139 -0.000787735
vn -0.9985352 -0.03259277 0.03756714
vn -0.9204102 -0.208252 0.3303223
vn -0.9204102 -0.208252 0.3303223
vn 0.855957 0.3337402 0.3952637
vn 0.824707 0.2849121 0.4882813
vn 0.855957 0.3337402 0.3952637
vn 0.8222656 0.2817383 0.4941406
vn 0.7866211 0.236084 0.5708008
vn 0.7866211 0.236084 0.5708008
vn -0.4035645 0.2658691 -0.8754883
vn -0.6049805 0.1365967 -0.784668
vn -0.4035645 0.2658691 -0.8754883
vn -0.5927734 0.1452637 -0.7919922
vn -0.746582 0.01776123 -0.6650391
vn -0.746582 0.01776123 -0.6650391
vn 0.3754883 0.3583984 0.8544922
vn 0.1341553 0.1953125 0.9716797
vn 0.3754883 0.3583984 0.8544922
vn 0.1137695 0.1810303 0.9770508
vn -0.1239624 0.01017761 0.9921875
vn -0.1239624 0.01014709 0.9921875
vn 0.4553223 0.2807617 -0.8447266
vn 0.3566895 0.2097168 -0.9101563
vn 0.4553223 0.2807617 -0.8447266
vn 0.3601074 0.2120361 -0.9086914
vn 0.2587891 0.1398926 -0.9555664
vn 0.2587891 0.1398926 -0.9555664
vn 0.9267578 0.1585693 -0.3408203
vn 0.8413086 0.02534485 -0.5400391
vn 0.9267578 0.1585693 -0.3408203
vn 0.8496094 0.03549194 -0.5258789
vn 0.7265625 -0.08868408 -0.6811523
vn 0.7265625 -0.08874512 -0.6811523
vn 0.9716797 0.2335205 0.03863525
vn 0.9833984 0.1385498 -0.1182861
vn 0.9829102 0.1312256 -0.1298828
vn 0.9614258 0.03839111 -0.2719727
vn 0.9614258 0.03842163 -0.2719727
vn 0.6699219 -0.2961426 0.6806641
vn 0.6254883 -0.6777344 0.3859863
vn 0.6176758 -0.6967773 0.3640137
vn 0.6699219 -0.2961426 0.6806641
vn 0.5375977 -0.3583984 0.7631836
vn 0.2814941 -0.7182617 0.6367188
vn 0.5375977 -0.3586426 0.7631836
vn 0.2573242 -0.7412109 0.6196289
vn -0.08032227 -0.9404297 0.3303223
vn -0.08032227 -0.9404297 0.3300781
vn 0.9956055 -0.07116699 -0.0569458
vn 0.7802734 -0.458252 -0.4250488
vn 0.9956055 -0.07116699 -0.0569458
vn 0.815918 -0.4248047 -0.3925781
vn 0.3208008 -0.6899414 -0.6489258
vn 0.3208008 -0.6899414 -0.6489258
vn 0.1483154 -0.2927246 0.9448242
vn -0.02253723 -0.7202148 0.6933594
vn 0.1483154 -0.2927246 0.9448242
vn -0.02813721 -0.730957 0.6816406
vn -0.2038574 -0.9599609 0.192749
vn -0.2038574 -0.9599609 0.192749
vn -0.3330078 -0.3210449 0.8867188
vn -0.3210449 -0.7202148 0.6152344
vn -0.3330078 -0.3210449 0.8867188
vn -0.3195801 -0.7294922 0.6044922
vn -0.2097168 -0.9716797 0.1090088
vn -0.2097168 -0.9716797 0.1090088
vn 0.2875977 -0.1833496 0.9399414
vn 0.4416504 -0.6425781 0.6259766
vn 0.2875977 -0.1834717 0.9399414
vn 0.4379883 -0.6269531 0.6445313
vn -0.9208984 -0.2370605 0.309082
vn -0.6313477 -0.6513672 0.4208984
vn -0.9208984 -0.2370605 0.309082
vn -0.6347656 -0.6484375 0.4204102
vn -0.1174927 -0.9033203 0.4125977
vn -0.1174927 -0.9033203 0.4125977
vn -0.3937988 -0.1601563 -0.9052734
vn -0.5424805 -0.5810547 -0.6064453
vn -0.3937988 -0.1601563 -0.9052734
vn -0.5419922 -0.5786133 -0.609375
vn -0.5283203 -0.8432617 -0.09887695
vn -0.5283203 -0.8432617 -0.09881592
vn -0.2479248 0.03796387 0.9682617
vn -0.1525879 -0.03585815 0.987793
vn -0.2479248 0.03796387 0.9682617
vn -0.1594238 -0.03063965 0.9868164
vn -0.05862427 -0.1065674 0.9926758
vn -0.05862427 -0.1065063 0.9926758
vn 0.5449219 0.4873047 -0.6821289
vn 0.5322266 0.4973145 -0.6850586
vn 0.5449219 0.4873047 -0.6821289
vn 0.53125 0.4980469 -0.6855469
vn 0.5180664 0.5078125 -0.6879883
vn 0.5180664 0.5078125 -0.6879883
vn -0.4660645 -0.04293823 -0.8837891
vn -0.1848145 -0.3076172 -0.9335938
vn -0.4660645 -0.04293823 -0.8837891
vn -0.1629639 -0.3251953 -0.9316406
vn 0.1673584 -0.550293 -0.8178711
vn 0.1673584 -0.550293 -0.8178711
vn 0.07116699 -0.3134766 -0.9467773
vn 0.0216217 -0.7353516 -0.6772461
vn 0.07116699 -0.3134766 -0.9467773
vn 0.02087402 -0.7402344 -0.6723633
vn -0.03973389 -0.9833984 -0.1767578
vn -0.03973389 -0.9833984 -0.1767578
vn 0.8422852 -0.3151855 0.4372559
vn 0.8754883 -0.2770996 0.3952637
vn 0.8422852 -0.3151855 0.4372559
vn 0.8759766 -0.2770996 0.3952637
vn 0.9101563 -0.2313232 0.3442383
vn 0.9101563 -0.2313232 0.3442383
vn -0.4777832 0.01629639 -0.878418
vn -0.6708984 -0.2091064 -0.7114258
vn -0.4777832 0.01629639 -0.878418
vn -0.6635742 -0.1990967 -0.7211914
vn -0.7866211 -0.4125977 -0.4589844
vn -0.7866211 -0.4125977 -0.4589844
vn 0.8271484 -0.2790527 -0.4880371
vn 0.5332031 -0.7387695 -0.4121094
vn 0.8271484 -0.2790527 -0.4880371
vn 0.5385742 -0.7338867 -0.4140625
vn 0.04678345 -0.9794922 -0.1955566
vn 0.04681396 -0.9794922 -0.1955566
vn 0.5454102 -0.04928589 -0.8369141
vn 0.1530762 -0.4936523 -0.855957
vn 0.5454102 -0.04925537 -0.8369141
vn 0.1798096 -0.4702148 -0.8637695
vn -0.3249512 -0.7744141 -0.5424805
vn -0.3249512 -0.7744141 -0.5429688
vn -0.9707031 -0.2272949 -0.07568359
vn -0.862793 -0.3864746 -0.326416
vn -0.862793 -0.3864746 -0.326416
vn -0.9775391 -0.2056885 -0.04370117
vn 0.6254883 -0.6777344 0.3859863
vn 0.3950195 -0.9165039 -0.06015015
vn 0.3950195 -0.9165039 -0.06015015
vn 0.6176758 -0.6967773 0.3640137
vn 0.6474609 -0.6943359 -0.3139648
vn 0.3220215 -0.9448242 0.06112671
vn 0.3220215 -0.9448242 0.06109619
vn 0.6459961 -0.6967773 -0.3122559
vn 0.8916016 -0.394043 -0.2231445
vn 0.6831055 -0.6845703 0.2548828
vn 0.6831055 -0.6845703 0.2548828
vn 0.8945313 -0.3686523 -0.253418
g PT_03_Canopy_03_0
f 3/3/3 2/2/2 1/1/1
f 6/6/6 5/5/5 4/4/4
f 9/9/9 8/8/8 7/7/7
f 12/12/12 11/11/11 10/10/10
f 15/15/15 14/14/14 13/13/13
f 17/17/17 16/16/16 13/13/13
f 18/18/18 16/16/16 17/17/17
f 19/19/19 18/18/18 17/17/17
f 22/22/22 21/21/21 20/20/20
f 25/25/25 24/24/24 23/23/23
f 28/28/28 27/27/27 26/26/26
f 31/31/31 30/30/30 29/29/29
f 34/34/34 33/33/33 32/32/32
f 37/37/37 36/36/36 35/35/35
f 40/40/40 39/39/39 38/38/38
f 43/43/43 42/42/42 41/41/41
f 46/46/46 45/45/45 44/44/44
f 45/45/45 47/47/47 44/44/44
f 45/45/45 48/48/48 47/47/47
f 48/48/48 49/49/49 47/47/47
f 48/48/48 50/50/50 49/49/49
f 50/50/50 51/51/51 49/49/49
f 52/52/52 49/49/49 51/51/51
f 51/51/51 53/53/53 52/52/52
f 52/52/52 54/54/54 49/49/49
f 54/54/54 55/55/55 49/49/49
f 47/47/47 56/56/56 44/44/44
f 56/56/56 57/57/57 44/44/44
f 47/47/47 58/58/58 56/56/56
f 58/58/58 59/59/59 56/56/56
f 49/49/49 60/60/60 47/47/47
f 60/60/60 61/61/61 47/47/47
f 49/49/49 62/62/62 60/60/60
f 62/62/62 63/63/63 60/60/60
f 66/66/66 65/65/65 64/64/64
f 67/67/67 66/66/66 64/64/64
f 70/70/70 69/69/69 68/68/68
f 69/69/69 71/71/71 68/68/68
f 68/68/68 71/71/71 72/72/72
f 72/72/72 73/73/73 68/68/68
f 71/71/71 74/74/74 72/72/72
f 71/71/71 75/75/75 74/74/74
f 75/75/75 76/76/76 74/74/74
f 79/79/79 78/78/78 77/77/77
f 78/78/78 80/80/80 77/77/77
f 78/78/78 81/81/81 80/80/80
f 80/80/80 82/82/82 77/77/77
f 82/82/82 83/83/83 77/77/77
f 81/81/81 84/84/84 80/80/80
f 81/81/81 85/85/85 84/84/84
f 85/85/85 86/86/86 84/84/84
f 85/85/85 87/87/87 86/86/86
f 88/88/88 84/84/84 86/86/86
f 89/89/89 88/88/88 86/86/86
f 86/86/86 90/90/90 89/89/89
f 90/90/90 91/91/91 89/89/89
f 80/80/80 84/84/84 92/92/92
f 84/84/84 93/93/93 92/92/92
f 92/92/92 94/94/94 80/80/80
f 94/94/94 95/95/95 80/80/80
f 87/87/87 96/96/96 86/86/86
f 87/87/87 97/97/97 96/96/96
f 97/97/97 98/98/98 96/96/96
f 97/97/97 99/99/99 98/98/98
f 99/99/99 100/100/100 98/98/98
f 100/100/100 101/101/101 98/98/98
f 101/101/101 102/102/102 98/98/98
f 98/98/98 103/103/103 96/96/96
f 103/103/103 104/104/104 96/96/96
f 96/96/96 104/104/104 105/105/105
f 86/86/86 96/96/96 105/105/105
f 105/105/105 106/106/106 86/86/86
f 106/106/106 107/107/107 86/86/86
f 110/110/110 109/109/109 108/108/108
f 109/109/109 111/111/111 108/108/108
f 111/111/111 112/112/112 108/108/108
f 112/112/112 113/113/113 108/108/108
f 116/116/116 115/115/115 114/114/114
f 117/117/117 116/116/116 114/114/114
f 120/120/120 119/119/119 118/118/118
f 119/119/119 121/121/121 118/118/118
f 119/119/119 122/122/122 121/121/121
f 122/122/122 123/123/123 121/121/121
f 126/126/126 125/125/125 124/124/124
f 127/127/127 126/126/126 124/124/124
f 127/127/127 124/124/124 128/128/128
f 124/124/124 129/129/129 128/128/128
f 132/132/132 131/131/131 130/130/130
f 133/133/133 132/132/132 130/130/130
f 136/136/136 135/135/135 134/134/134
f 135/135/135 137/137/137 134/134/134
f 140/140/140 139/139/139 138/138/138
f 141/141/141 140/140/140 138/138/138
f 144/144/144 143/143/143 142/142/142
f 145/145/145 143/143/143 144/144/144
f 146/146/146 145/145/145 144/144/144
f 149/149/149 148/148/148 147/147/147
f 148/148/148 150/150/150 147/147/147
f 153/153/153 152/152/152 151/151/151
f 154/154/154 151/151/151 152/152/152
f 157/157/157 156/156/156 155/155/155
f 158/158/158 157/157/157 155/155/155
f 161/161/161 160/160/160 159/159/159
f 160/160/160 162/162/162 159/159/159
f 163/163/163 159/159/159 162/162/162
f 164/164/164 163/163/163 162/162/162
f 167/167/167 166/166/166 165/165/165
f 168/168/168 167/167/167 165/165/165
f 169/169/169 167/167/167 168/168/168
f 172/172/172 171/171/171 170/170/170
f 173/173/173 172/172/172 170/170/170
f 176/176/176 175/175/175 174/174/174
f 177/177/177 176/176/176 174/174/174
f 180/180/180 179/179/179 178/178/178
f 179/179/179 181/181/181 178/178/178
f 179/179/179 182/182/182 181/181/181
f 182/182/182 183/183/183 181/181/181
f 186/186/186 185/185/185 184/184/184
f 185/185/185 187/187/187 184/184/184
f 185/185/185 188/188/188 187/187/187
f 188/188/188 189/189/189 187/187/187
f 192/192/192 191/191/191 190/190/190
f 191/191/191 193/193/193 190/190/190
f 191/191/191 194/194/194 193/193/193
f 194/194/194 195/195/195 193/193/193
f 198/198/198 197/197/197 196/196/196
f 197/197/197 199/199/199 196/196/196
f 197/197/197 200/200/200 199/199/199
f 200/200/200 201/201/201 199/199/199
f 204/204/204 203/203/203 202/202/202
f 205/205/205 204/204/204 202/202/202
f 208/208/208 207/207/207 206/206/206
f 207/207/207 209/209/209 206/206/206
f 207/207/207 210/210/210 209/209/209
f 210/210/210 211/211/211 209/209/209
f 214/214/214 213/213/213 212/212/212
f 213/213/213 215/215/215 212/212/212
f 213/213/213 216/216/216 215/215/215
f 216/216/216 217/217/217 215/215/215
f 220/220/220 219/219/219 218/218/218
f 219/219/219 221/221/221 218/218/218
f 219/219/219 222/222/222 221/221/221
f 222/222/222 223/223/223 221/221/221
f 226/226/226 225/225/225 224/224/224
f 225/225/225 227/227/227 224/224/224
f 225/225/225 228/228/228 227/227/227
f 228/228/228 229/229/229 227/227/227
f 232/232/232 231/231/231 230/230/230
f 231/231/231 233/233/233 230/230/230
f 231/231/231 234/234/234 233/233/233
f 234/234/234 235/235/235 233/233/233
f 238/238/238 237/237/237 236/236/236
f 237/237/237 239/239/239 236/236/236
f 237/237/237 240/240/240 239/239/239
f 240/240/240 241/241/241 239/239/239
f 244/244/244 243/243/243 242/242/242
f 243/243/243 245/245/245 242/242/242
f 248/248/248 247/247/247 246/246/246
f 247/247/247 249/249/249 246/246/246
f 247/247/247 250/250/250 249/249/249
f 250/250/250 251/251/251 249/249/249
f 254/254/254 253/253/253 252/252/252
f 253/253/253 255/255/255 252/252/252
f 253/253/253 256/256/256 255/255/255
f 256/256/256 257/257/257 255/255/255
f 260/260/260 259/259/259 258/258/258
f 259/259/259 261/261/261 258/258/258
f 259/259/259 262/262/262 261/261/261
f 262/262/262 263/263/263 261/261/261
f 266/266/266 265/265/265 264/264/264
f 265/265/265 267/267/267 264/264/264
f 265/265/265 268/268/268 267/267/267
f 268/268/268 269/269/269 267/267/267
f 272/272/272 271/271/271 270/270/270
f 271/271/271 273/273/273 270/270/270
f 271/271/271 274/274/274 273/273/273
f 274/274/274 275/275/275 273/273/273
f 278/278/278 277/277/277 276/276/276
f 277/277/277 279/279/279 276/276/276
f 277/277/277 280/280/280 279/279/279
f 283/283/283 282/282/282 281/281/281
f 282/282/282 284/284/284 281/281/281
f 282/282/282 285/285/285 284/284/284
f 285/285/285 286/286/286 284/284/284
f 289/289/289 288/288/288 287/287/287
f 288/288/288 290/290/290 287/287/287
f 288/288/288 291/291/291 290/290/290
f 291/291/291 292/292/292 290/290/290
f 295/295/295 294/294/294 293/293/293
f 294/294/294 296/296/296 293/293/293
f 294/294/294 297/297/297 296/296/296
f 297/297/297 298/298/298 296/296/296
f 301/301/301 300/300/300 299/299/299
f 301/301/301 302/302/302 300/300/300
f 302/302/302 303/303/303 300/300/300
f 306/306/306 305/305/305 304/304/304
f 305/305/305 307/307/307 304/304/304
f 305/305/305 308/308/308 307/307/307
f 308/308/308 309/309/309 307/307/307
f 312/312/312 311/311/311 310/310/310
f 311/311/311 313/313/313 310/310/310
f 311/311/311 314/314/314 313/313/313
f 314/314/314 315/315/315 313/313/313
f 318/318/318 317/317/317 316/316/316
f 317/317/317 319/319/319 316/316/316
f 317/317/317 320/320/320 319/319/319
f 320/320/320 321/321/321 319/319/319
f 324/324/324 323/323/323 322/322/322
f 323/323/323 325/325/325 322/322/322
f 323/323/323 326/326/326 325/325/325
f 326/326/326 327/327/327 325/325/325
f 330/330/330 329/329/329 328/328/328
f 329/329/329 331/331/331 328/328/328
f 329/329/329 332/332/332 331/331/331
f 332/332/332 333/333/333 331/331/331
f 336/336/336 335/335/335 334/334/334
f 336/336/336 337/337/337 335/335/335
f 337/337/337 338/338/338 335/335/335
f 341/341/341 340/340/340 339/339/339
f 342/342/342 341/341/341 339/339/339
f 345/345/345 344/344/344 343/343/343
f 344/344/344 346/346/346 343/343/343
f 344/344/344 347/347/347 346/346/346
f 347/347/347 348/348/348 346/346/346
f 351/351/351 350/350/350 349/349/349
f 350/350/350 352/352/352 349/349/349
f 350/350/350 353/353/353 352/352/352
f 353/353/353 354/354/354 352/352/352
f 357/357/357 356/356/356 355/355/355
f 356/356/356 358/358/358 355/355/355
f 356/356/356 359/359/359 358/358/358
f 359/359/359 360/360/360 358/358/358
f 363/363/363 362/362/362 361/361/361
f 362/362/362 364/364/364 361/361/361
f 362/362/362 365/365/365 364/364/364
f 365/365/365 366/366/366 364/364/364
f 369/369/369 368/368/368 367/367/367
f 368/368/368 370/370/370 367/367/367
f 373/373/373 372/372/372 371/371/371
f 372/372/372 374/374/374 371/371/371
f 372/372/372 375/375/375 374/374/374
f 375/375/375 376/376/376 374/374/374
f 379/379/379 378/378/378 377/377/377
f 378/378/378 380/380/380 377/377/377
f 378/378/378 381/381/381 380/380/380
f 381/381/381 382/382/382 380/380/380
f 385/385/385 384/384/384 383/383/383
f 384/384/384 386/386/386 383/383/383
f 384/384/384 387/387/387 386/386/386
f 387/387/387 388/388/388 386/386/386
f 391/391/391 390/390/390 389/389/389
f 390/390/390 392/392/392 389/389/389
f 390/390/390 393/393/393 392/392/392
f 393/393/393 394/394/394 392/392/392
f 397/397/397 396/396/396 395/395/395
f 396/396/396 398/398/398 395/395/395
f 396/396/396 399/399/399 398/398/398
f 399/399/399 400/400/400 398/398/398
f 403/403/403 402/402/402 401/401/401
f 402/402/402 404/404/404 401/401/401
f 402/402/402 405/405/405 404/404/404
f 405/405/405 406/406/406 404/404/404
f 409/409/409 408/408/408 407/407/407
f 408/408/408 410/410/410 407/407/407
f 408/408/408 411/411/411 410/410/410
f 411/411/411 412/412/412 410/410/410
f 415/415/415 414/414/414 413/413/413
f 414/414/414 416/416/416 413/413/413
f 414/414/414 417/417/417 416/416/416
f 417/417/417 418/418/418 416/416/416
f 421/421/421 420/420/420 419/419/419
f 420/420/420 422/422/422 419/419/419
f 420/420/420 423/423/423 422/422/422
f 423/423/423 424/424/424 422/422/422
f 427/427/427 426/426/426 425/425/425
f 426/426/426 428/428/428 425/425/425
f 426/426/426 429/429/429 428/428/428
f 429/429/429 430/430/430 428/428/428
f 433/433/433 432/432/432 431/431/431
f 434/434/434 433/433/433 431/431/431
f 437/437/437 436/436/436 435/435/435
f 438/438/438 437/437/437 435/435/435
f 441/441/441 440/440/440 439/439/439
f 442/442/442 441/441/441 439/439/439
f 445/445/445 444/444/444 443/443/443
f 446/446/446 445/445/445 443/443/443
