g PT_01_Canopy_03
v -137.3216 29.9425 33.49683
v -185.0581 -38.70166 43.45898
v -194.7616 -50.36267 14.46912
v 27.17296 -12.02637 -103.0117
v 43.52188 -24.23022 -104.0387
v 43.31388 -61.51318 -152.3262
v -79.75034 11.07642 72.57495
v -105.1399 4.464966 27.98383
v -172.3661 -66.57654 45.46155
v -79.75034 11.07642 72.57495
v -172.3661 -66.57654 45.46155
v -126.4905 -56.36597 115.0801
v -28.12217 11.92639 -93.95147
v -11.07647 -71.58923 -159.8312
v -37.01852 -57.36426 -153.8776
v 27.17296 -12.02637 -103.0117
v -11.07647 -71.58923 -159.8312
v 55.26439 -45.37415 -138.8079
v 31.68644 -73.32349 -165.0711
v -120.1129 -11.48987 -6.940216
v -158.8058 -52.78479 -54.42694
v -173.043 -66.00903 -10.29575
v -96.28185 -44.41162 157.7989
v -96.02299 16.61768 85.13348
v -101.2422 34.37415 92.45801
v -96.28185 -44.41162 157.7989
v -96.72594 -57.74292 150.3661
v -96.02299 16.61768 85.13348
v 14.82398 -54.87756 186.9838
v 16.62564 -60.00891 172.2317
v 13.26986 5.839966 100.0424
v -37.09796 34.06165 -121.4185
v -44.90649 -52.21509 -166.4061
v -34.77484 -41.79578 -174.4114
v 20.44305 32.50598 134.0027
v 46.46891 -54.72925 178.9509
v 38.58554 -42.54846 185.6692
v 46.46891 -54.72925 178.9509
v -6.899582 -78.20776 179.2036
v -3.784343 -77.19373 195.145
v 46.46891 -54.72925 178.9509
v 40.07652 -58.27734 165.2084
v -6.899582 -78.20776 179.2036
v -37.09796 34.06165 -121.4185
v 16.81868 139.119 -66.6933
v -25.26701 138.2272 -66.83111
v 36.15595 13.03577 -134.6523
v 50.15075 139.0314 -45.71942
v 101.014 13.55066 -94.99398
v 68.60079 138.7154 -10.08014
v 136.3102 12.24866 -28.17212
v 174.4161 -59.0708 -78.88669
v 177.1655 -43.71338 -28.48288
v 152.5388 -61.62036 -107.2112
v 126.5417 -41.8501 -122.6745
v -9.085314 -50.09021 -186.5289
v -34.77484 -41.79578 -174.4114
v 56.03481 -29.11243 -158.8206
v 32.45712 -57.0614 -185.0839
v 57.96661 -3.020996 -126.8847
v 55.08186 -46.15686 -169.5242
v 128.8857 -39.87756 -116.927
v 92.48892 -52.10364 -151.4399
v -158.6828 -57.54797 -46.07898
v -92.06775 19.27234 -20.29431
v -28.12217 11.92639 -93.95147
v -36.43839 -39.17346 -138.3274
v -137.3216 29.9425 33.49683
v -76.91676 137.973 -19.77097
v -80.01474 138.5333 21.81824
v -122.6383 43.9115 -30.40835
v -154.5955 0.6445313 -13.03854
v -194.7616 -50.36267 14.46912
v -147.0398 9.842773 -7.69339
v -179.3231 -37.07996 -55.30087
v -193.5603 -50.30396 -11.16971
v 136.3102 12.24866 -28.17212
v 66.83295 138.3168 29.69949
v 68.60079 138.7154 -10.08014
v 119.6301 27.86035 46.68469
v 45.8497 138.1624 62.28625
v 172.0315 -46.94397 24.74988
v 166.4241 -37.58948 -23.8797
v 77.16634 35.97437 98.74346
v 11.03364 138.3639 80.18457
v 20.44305 32.50598 134.0027
v -28.76131 138.753 78.08228
v 115.7815 -58.35681 155.2736
v 87.11106 -66.30383 183.3716
v 27.13665 -44.45239 190.0249
v 48.21375 -61.64551 194.4122
v 138.8819 -65.70227 149.7649
v 112.8307 -46.24438 154.05
v 180.1399 -88.18494 103.9485
v 175.7679 -43.99915 51.75238
v -52.68691 16.64368 147.7195
v -62.1087 138.6101 57.06055
v -101.2422 34.37415 92.45801
v -80.01474 138.5333 21.81824
v -137.3216 29.9425 33.49683
v -190.6381 -50.81116 54.71643
v -144.7624 -40.59998 124.3351
v -96.28185 -44.41162 157.7989
v -56.87667 -11.58069 156.9203
v -41.00132 -52.62634 194.6986
v -8.390577 -62.47888 199.6644
v 38.58554 -42.54846 185.6692
v -122.6383 43.9115 -30.40835
v -25.26701 138.2272 -66.83111
v -76.91676 137.973 -19.77097
v -37.09796 34.06165 -121.4185
v -49.45594 -24.09009 -154.7303
v -174.1291 -42.38892 -60.13018
v 105.1399 -13.13562 -18.92337
v 88.83382 2.906738 34.55548
v 151.7044 -62.86365 23.93344
v 146.0971 -53.50928 -24.69638
v -174.1291 -42.38892 -60.13018
v -42.16639 -36.26636 -150.7711
v -49.45594 -24.09009 -154.7303
v -169.8705 -54.90051 -53.41262
v -36.43839 -39.17346 -138.3274
v -158.6828 -57.54797 -46.07898
v -38.60847 -19.27234 103.0117
v -79.75034 11.07642 72.57495
v -86.63467 -60.23035 139.7847
v -49.05295 -33.14319 131.72
v -38.54524 -74.06018 167.967
v 13.26986 5.839966 100.0424
v 13.26986 5.839966 100.0424
v -38.54524 -74.06018 167.967
v -6.899582 -78.20776 179.2036
v 40.07652 -58.27734 165.2084
v 88.83382 2.906738 34.55548
v 162.6899 -103.3088 92.20215
v 158.3179 -59.12268 40.00562
v 115.5403 -86.24792 135.0156
v 115.5403 -86.24792 135.0156
v 88.83382 2.906738 34.55548
v 56.51874 14.11084 76.54163
v 94.79779 -61.53589 143.4962
v 27.17296 -12.02637 -103.0117
v 75.45966 -13.4646 -71.7157
v 43.52188 -24.23022 -104.0387
v 118.8043 -55.9425 -99.41031
v 82.40742 -68.16907 -133.9231
v 75.45966 -13.4646 -71.7157
v 134.0081 -77.60742 -98.96533
v 108.0111 -57.83704 -114.4288
v 147.16 -83.74097 -64.58011
v 105.1399 -13.13562 -18.92337
v 147.16 -83.74097 -64.58011
v 75.45966 -13.4646 -71.7157
v 159.6918 -59.51367 -17.85669
v -105.1399 4.464966 27.98383
v -127.7616 -20.79565 -12.36588
v -174.3822 -66.22839 15.18842
v -164.6787 -54.56738 44.17841
v 74.15386 -87.21899 159.3503
v 16.62564 -60.00891 172.2317
v 37.70266 -77.20227 176.619
v 13.26986 5.839966 100.0424
v 106.5531 -73.76013 136.6343
v 56.51874 14.11084 76.54163
v -127.7616 -20.79565 -12.36588
v -105.1399 4.464966 27.98383
v -92.06775 19.27234 -20.29431
v -120.1129 -11.48987 -6.940216
v -158.8058 -52.78479 -54.42694
v 32.45712 -57.0614 -185.0839
v 38.19101 -71.00586 -179.5342
v 64.23518 -40.04224 -150.4108
v 56.03481 -29.11243 -158.8206
v 92.48892 -52.10364 -151.4399
v 88.2643 -66.72888 -148.5922
v 128.4409 -53.39221 -110.2804
v 128.8857 -39.87756 -116.927
v 174.4161 -59.0708 -78.88669
v 174.1202 -54.146 -16.22241
v 177.1655 -43.71338 -28.48288
v 169.1261 -81.33777 -73.18045
v 159.6918 -59.51367 -17.85669
v 147.16 -83.74097 -64.58011
v 166.4241 -37.58948 -23.8797
v 166.6741 -61.74329 26.91046
v 172.0315 -46.94397 24.74988
v 160.7338 -51.68774 -27.07629
v 151.7044 -62.86365 23.93344
v 146.0971 -53.50928 -24.69638
v 138.8819 -65.70227 149.7649
v 98.71805 -54.25122 157.065
v 112.8307 -46.24438 154.05
v 128.5379 -83.15527 150.7939
v 94.79779 -61.53589 143.4962
v 115.5403 -86.24792 135.0156
v 48.21375 -61.64551 194.4122
v 14.82398 -54.87756 186.9838
v 27.13665 -44.45239 190.0249
v 38.6738 -74.68152 192.633
v 16.62564 -60.00891 172.2317
v 37.70266 -77.20227 176.619
v -41.00132 -52.62634 194.6986
v -45.91006 -70.31311 186.2786
v -55.76885 -28.68384 149.7446
v -56.87667 -11.58069 156.9203
v -56.87667 -11.58069 156.9203
v -96.72594 -57.74292 150.3661
v -96.28185 -44.41162 157.7989
v -55.76885 -28.68384 149.7446
v -86.63467 -60.23035 139.7847
v -49.05295 -33.14319 131.72
v -144.7624 -40.59998 124.3351
v -185.4171 -64.57776 51.72168
v -190.6381 -50.81116 54.71643
v -136.9764 -54.11853 126.0837
v -172.3661 -66.57654 45.46155
v -126.4905 -56.36597 115.0801
v -193.5603 -50.30396 -11.16971
v -172.8225 -50.31372 -60.52322
v -179.3231 -37.07996 -55.30087
v -188.0692 -64.00342 -11.05298
v -158.8058 -52.78479 -54.42694
v -173.043 -66.00903 -10.29575
v 136.3102 12.24866 -28.17212
v 160.7338 -51.68774 -27.07629
v 166.4241 -37.58948 -23.8797
v 126.2139 -4.740356 -19.56787
v 146.0971 -53.50928 -24.69638
v 105.1399 -13.13562 -18.92337
v 172.0315 -46.94397 24.74988
v 109.6062 8.697754 42.49731
v 119.6301 27.86035 46.68469
v 166.6741 -61.74329 26.91046
v 88.83382 2.906738 34.55548
v 151.7044 -62.86365 23.93344
v -122.6383 43.9115 -30.40835
v -169.8705 -54.90051 -53.41262
v -174.1291 -42.38892 -60.13018
v -110.9188 26.26733 -30.20398
v -158.6828 -57.54797 -46.07898
v -92.06775 19.27234 -20.29431
v -96.72594 -57.74292 150.3661
v -79.75034 11.07642 72.57495
v -96.02299 16.61768 85.13348
v -86.63467 -60.23035 139.7847
v 112.8307 -46.24438 154.05
v 69.63499 19.74658 91.30688
v 77.16634 35.97437 98.74346
v 98.71805 -54.25122 157.065
v 56.51874 14.11084 76.54163
v 94.79779 -61.53589 143.4962
v -49.45594 -24.09009 -154.7303
v -37.04237 18.13562 -111.003
v -37.09796 34.06165 -121.4185
v -42.16639 -36.26636 -150.7711
v -28.12217 11.92639 -93.95147
v -36.43839 -39.17346 -138.3274
v 36.15595 13.03577 -134.6523
v 50.39458 -58.42737 -163.3477
v 55.08186 -46.15686 -169.5242
v 33.3582 -5.122437 -123.5221
v 43.31388 -61.51318 -152.3262
v 27.17296 -12.02637 -103.0117
v 128.8857 -39.87756 -116.927
v 90.39328 -5.642944 -88.77813
v 101.014 13.55066 -94.99398
v 128.4409 -53.39221 -110.2804
v 75.45966 -13.4646 -71.7157
v 118.8043 -55.9425 -99.41031
v -190.6381 -50.81116 54.71643
v -126.6237 10.9845 31.99142
v -137.3216 29.9425 33.49683
v -185.4171 -64.57776 51.72168
v -105.1399 4.464966 27.98383
v -172.3661 -66.57654 45.46155
v 27.13665 -44.45239 190.0249
v 20.02249 13.54919 121.7986
v 20.44305 32.50598 134.0027
v 14.82398 -54.87756 186.9838
v 13.26986 5.839966 100.0424
v -101.2422 34.37415 92.45801
v -136.9764 -54.11853 126.0837
v -144.7624 -40.59998 124.3351
v -96.02299 16.61768 85.13348
v -126.4905 -56.36597 115.0801
v -79.75034 11.07642 72.57495
v -137.3216 29.9425 33.49683
v -179.3551 -52.24292 48.07849
v -185.0581 -38.70166 43.45898
v -126.6237 10.9845 31.99142
v -164.6787 -54.56738 44.17841
v -105.1399 4.464966 27.98383
v -179.3231 -37.07996 -55.30087
v -110.9188 26.26733 -30.20398
v -122.6383 43.9115 -30.40835
v -172.8225 -50.31372 -60.52322
v -92.06775 19.27234 -20.29431
v -158.8058 -52.78479 -54.42694
v -37.09796 34.06165 -121.4185
v -37.04237 18.13562 -111.003
v -44.90649 -52.21509 -166.4061
v -37.01852 -57.36426 -153.8776
v -28.12217 11.92639 -93.95147
v 56.03481 -29.11243 -158.8206
v 33.3582 -5.122437 -123.5221
v 36.15595 13.03577 -134.6523
v 64.23518 -40.04224 -150.4108
v 27.17296 -12.02637 -103.0117
v 55.26439 -45.37415 -138.8079
v 101.014 13.55066 -94.99398
v 115.4767 -53.1333 -127.3131
v 126.5417 -41.8501 -122.6745
v 90.39328 -5.642944 -88.77813
v 108.0111 -57.83704 -114.4288
v 75.45966 -13.4646 -71.7157
v 177.1655 -43.71338 -28.48288
v 126.2139 -4.740356 -19.56787
v 136.3102 12.24866 -28.17212
v 174.1202 -54.146 -16.22241
v 105.1399 -13.13562 -18.92337
v 159.6918 -59.51367 -17.85669
v 119.6301 27.86035 46.68469
v 173.2781 -54.4801 39.97766
v 175.7679 -43.99915 51.75238
v 109.6062 8.697754 42.49731
v 158.3179 -59.12268 40.00562
v 88.83382 2.906738 34.55548
v 77.16634 35.97437 98.74346
v 119.5659 -68.73462 143.6224
v 115.7815 -58.35681 155.2736
v 69.63499 19.74658 91.30688
v 106.5531 -73.76013 136.6343
v 56.51874 14.11084 76.54163
v 20.44305 32.50598 134.0027
v 20.02249 13.54919 121.7986
v 46.46891 -54.72925 178.9509
v 40.07652 -58.27734 165.2084
v 13.26986 5.839966 100.0424
v 115.7815 -58.35681 155.2736
v 119.5659 -68.73462 143.6224
v 85.44254 -85.38232 176.5363
v 87.11106 -66.30383 183.3716
v 180.1399 -88.18494 103.9485
v 128.5379 -83.15527 150.7939
v 138.8819 -65.70227 149.7649
v 177.7751 -101.4319 96.26758
v 115.5403 -86.24792 135.0156
v 162.6899 -103.3088 92.20215
v 175.7679 -43.99915 51.75238
v 177.7751 -101.4319 96.26758
v 180.1399 -88.18494 103.9485
v 173.2781 -54.4801 39.97766
v 162.6899 -103.3088 92.20215
v 158.3179 -59.12268 40.00562
v 87.11106 -66.30383 183.3716
v 38.6738 -74.68152 192.633
v 48.21375 -61.64551 194.4122
v 85.44254 -85.38232 176.5363
v 37.70266 -77.20227 176.619
v 74.15386 -87.21899 159.3503
v -8.390577 -62.47888 199.6644
v -45.91006 -70.31311 186.2786
v -41.00132 -52.62634 194.6986
v -3.784343 -77.19373 195.145
v -38.54524 -74.06018 167.967
v -6.899582 -78.20776 179.2036
v 38.58554 -42.54846 185.6692
v -3.784343 -77.19373 195.145
v -8.390577 -62.47888 199.6644
v 46.46891 -54.72925 178.9509
v -185.0581 -38.70166 43.45898
v -190.153 -65.1001 13.92371
v -194.7616 -50.36267 14.46912
v -179.3551 -52.24292 48.07849
v -174.3822 -66.22839 15.18842
v -164.6787 -54.56738 44.17841
v -34.77484 -41.79578 -174.4114
v -14.44948 -68.69226 -179.9565
v -9.085314 -50.09021 -186.5289
v -44.90649 -52.21509 -166.4061
v -11.07647 -71.58923 -159.8312
v -37.01852 -57.36426 -153.8776
v -147.0398 9.842773 -7.69339
v -188.0692 -64.00342 -11.05298
v -193.5603 -50.30396 -11.16971
v -135.9187 -3.623047 -3.971375
v -173.043 -66.00903 -10.29575
v -120.1129 -11.48987 -6.940216
v -154.5955 0.6445313 -13.03854
v -135.9187 -3.623047 -3.971375
v -147.0398 9.842773 -7.69339
v -142.7187 -12.39551 -21.62131
v -120.1129 -11.48987 -6.940216
v -127.7616 -20.79565 -12.36588
v -194.7616 -50.36267 14.46912
v -142.7187 -12.39551 -21.62131
v -154.5955 0.6445313 -13.03854
v -190.153 -65.1001 13.92371
v -127.7616 -20.79565 -12.36588
v -174.3822 -66.22839 15.18842
v -9.085314 -50.09021 -186.5289
v 38.19101 -71.00586 -179.5342
v 32.45712 -57.0614 -185.0839
v -14.44948 -68.69226 -179.9565
v 31.68644 -73.32349 -165.0711
v -11.07647 -71.58923 -159.8312
v 55.08186 -46.15686 -169.5242
v 46.90726 -16.63904 -120.1193
v 57.96661 -3.020996 -126.8847
v 50.39458 -58.42737 -163.3477
v 43.52188 -24.23022 -104.0387
v 43.31388 -61.51318 -152.3262
v 57.96661 -3.020996 -126.8847
v 88.2643 -66.72888 -148.5922
v 92.48892 -52.10364 -151.4399
v 46.90726 -16.63904 -120.1193
v 82.40742 -68.16907 -133.9231
v 43.52188 -24.23022 -104.0387
v 152.5388 -61.62036 -107.2112
v 169.1261 -81.33777 -73.18045
v 174.4161 -59.0708 -78.88669
v 144.5911 -75.44824 -111.0299
v 147.16 -83.74097 -64.58011
v 134.0081 -77.60742 -98.96533
v 126.5417 -41.8501 -122.6745
v 144.5911 -75.44824 -111.0299
v 152.5388 -61.62036 -107.2112
v 115.4767 -53.1333 -127.3131
v 134.0081 -77.60742 -98.96533
v 108.0111 -57.83704 -114.4288
v -45.91006 -70.31311 186.2786
v -38.54524 -74.06018 167.967
v -49.05295 -33.14319 131.72
v -55.76885 -28.68384 149.7446
v 119.5659 -68.73462 143.6224
v 106.5531 -73.76013 136.6343
v 74.15386 -87.21899 159.3503
v 85.44254 -85.38232 176.5363
v 88.2643 -66.72888 -148.5922
v 82.40742 -68.16907 -133.9231
v 118.8043 -55.9425 -99.41031
v 128.4409 -53.39221 -110.2804
v 38.19101 -71.00586 -179.5342
v 31.68644 -73.32349 -165.0711
v 55.26439 -45.37415 -138.8079
v 64.23518 -40.04224 -150.4108
vt 0.03771973 0.6689453
vt 0.03372192 0.6586914
vt 0.03289795 0.6567383
vt 0.05148315 0.6625977
vt 0.05285645 0.6606445
vt 0.05285645 0.6552734
vt 0.0425415 0.6660156
vt 0.04040527 0.6650391
vt 0.03479004 0.6547852
vt 0.0425415 0.6660156
vt 0.03479004 0.6547852
vt 0.03863525 0.65625
vt 0.046875 0.6660156
vt 0.04827881 0.6538086
vt 0.04611206 0.6557617
vt 0.05148315 0.6625977
vt 0.04827881 0.6538086
vt 0.05386353 0.6577148
vt 0.05187988 0.6533203
vt 0.03915405 0.6625977
vt 0.03591919 0.6567383
vt 0.034729 0.6547852
vt 0.04116821 0.6577148
vt 0.04116821 0.6669922
vt 0.04074097 0.6694336
vt 0.04116821 0.6577148
vt 0.04110718 0.6557617
vt 0.04116821 0.6669922
vt 0.05047607 0.65625
vt 0.05062866 0.6557617
vt 0.05032349 0.6650391
vt 0.04611206 0.6694336
vt 0.04547119 0.6567383
vt 0.04629517 0.6582031
vt 0.05093384 0.6694336
vt 0.05310059 0.65625
vt 0.05245972 0.6582031
vt 0.05310059 0.65625
vt 0.04864502 0.652832
vt 0.04888916 0.652832
vt 0.05310059 0.65625
vt 0.05258179 0.6557617
vt 0.04864502 0.652832
vt 0.04611206 0.6694336
vt 0.05062866 0.6850586
vt 0.04711914 0.6850586
vt 0.05224609 0.6665039
vt 0.05343628 0.6850586
vt 0.05767822 0.6665039
vt 0.05496216 0.6850586
vt 0.06063843 0.6660156
vt 0.06384277 0.6557617
vt 0.06408691 0.6577148
vt 0.06201172 0.6552734
vt 0.05981445 0.6582031
vt 0.04846191 0.6572266
vt 0.04629517 0.6582031
vt 0.05392456 0.6601563
vt 0.05194092 0.6557617
vt 0.05407715 0.6640625
vt 0.05383301 0.6577148
vt 0.06002808 0.6586914
vt 0.05697632 0.6567383
vt 0.03591919 0.6557617
vt 0.04150391 0.6674805
vt 0.046875 0.6660156
vt 0.0461731 0.6586914
vt 0.03771973 0.6689453
vt 0.04278564 0.6845703
vt 0.04251099 0.6850586
vt 0.03894043 0.6708984
vt 0.0362854 0.6645508
vt 0.03289795 0.6567383
vt 0.03689575 0.6660156
vt 0.03421021 0.6586914
vt 0.03302002 0.6567383
vt 0.06063843 0.6660156
vt 0.05480957 0.6850586
vt 0.05496216 0.6850586
vt 0.05923462 0.668457
vt 0.05307007 0.6850586
vt 0.06365967 0.6572266
vt 0.06317139 0.6586914
vt 0.05569458 0.6699219
vt 0.05014038 0.6850586
vt 0.05093384 0.6694336
vt 0.04681396 0.6850586
vt 0.05892944 0.6557617
vt 0.05651855 0.6547852
vt 0.05148315 0.6577148
vt 0.05325317 0.6552734
vt 0.06085205 0.6547852
vt 0.0586853 0.6577148
vt 0.06433105 0.6513672
vt 0.06396484 0.6577148
vt 0.0447998 0.6669922
vt 0.04400635 0.6850586
vt 0.04074097 0.6694336
vt 0.04251099 0.6850586
vt 0.03771973 0.6689453
vt 0.03326416 0.6567383
vt 0.03710938 0.6582031
vt 0.04116821 0.6577148
vt 0.04446411 0.6625977
vt 0.04577637 0.6567383
vt 0.04852295 0.6552734
vt 0.05245972 0.6582031
vt 0.03894043 0.6708984
vt 0.04711914 0.6850586
vt 0.04278564 0.6845703
vt 0.04611206 0.6694336
vt 0.04507446 0.6606445
vt 0.03463745 0.6582031
vt 0.05801392 0.6625977
vt 0.05667114 0.6650391
vt 0.06192017 0.6552734
vt 0.0614624 0.65625
vt 0.03463745 0.6582031
vt 0.04568481 0.6591797
vt 0.04507446 0.6606445
vt 0.03500366 0.65625
vt 0.0461731 0.6586914
vt 0.03591919 0.6557617
vt 0.04598999 0.6616211
vt 0.0425415 0.6660156
vt 0.04196167 0.6552734
vt 0.04510498 0.659668
vt 0.04598999 0.6533203
vt 0.05032349 0.6650391
vt 0.05032349 0.6650391
vt 0.04598999 0.6533203
vt 0.04864502 0.652832
vt 0.05258179 0.6557617
vt 0.05667114 0.6650391
vt 0.06286621 0.6489258
vt 0.06246948 0.6557617
vt 0.05889893 0.6518555
vt 0.05889893 0.6518555
vt 0.05667114 0.6650391
vt 0.05395508 0.6665039
vt 0.05715942 0.6552734
vt 0.05148315 0.6625977
vt 0.05554199 0.6625977
vt 0.05285645 0.6606445
vt 0.05917358 0.65625
vt 0.05612183 0.6542969
vt 0.05554199 0.6625977
vt 0.06045532 0.652832
vt 0.05825806 0.6557617
vt 0.06155396 0.6518555
vt 0.05801392 0.6625977
vt 0.06155396 0.6518555
vt 0.05554199 0.6625977
vt 0.06262207 0.6557617
vt 0.04040527 0.6650391
vt 0.03851318 0.6611328
vt 0.03460693 0.6547852
vt 0.03543091 0.65625
vt 0.05541992 0.6513672
vt 0.05062866 0.6557617
vt 0.05236816 0.652832
vt 0.05032349 0.6650391
vt 0.05813599 0.6533203
vt 0.05395508 0.6665039
vt 0.03851318 0.6611328
vt 0.04040527 0.6650391
vt 0.04150391 0.6674805
vt 0.03915405 0.6625977
vt 0.03591919 0.6567383
vt 0.05194092 0.6557617
vt 0.0524292 0.6538086
vt 0.05459595 0.6586914
vt 0.05392456 0.6601563
vt 0.05697632 0.6567383
vt 0.05661011 0.6542969
vt 0.05996704 0.6567383
vt 0.06002808 0.6586914
vt 0.06384277 0.6557617
vt 0.06378174 0.65625
vt 0.06408691 0.6577148
vt 0.06341553 0.6523438
vt 0.06262207 0.6557617
vt 0.06155396 0.6518555
vt 0.06317139 0.6586914
vt 0.06317139 0.6552734
vt 0.06365967 0.6572266
vt 0.06268311 0.6567383
vt 0.06192017 0.6552734
vt 0.0614624 0.65625
vt 0.06085205 0.6547852
vt 0.05749512 0.65625
vt 0.0586853 0.6577148
vt 0.05999756 0.6523438
vt 0.05715942 0.6552734
vt 0.05889893 0.6518555
vt 0.05325317 0.6552734
vt 0.05047607 0.65625
vt 0.05148315 0.6577148
vt 0.05245972 0.6533203
vt 0.05062866 0.6557617
vt 0.05236816 0.652832
vt 0.04577637 0.6567383
vt 0.04537964 0.6538086
vt 0.04455566 0.6601563
vt 0.04446411 0.6625977
vt 0.04446411 0.6625977
vt 0.04110718 0.6557617
vt 0.04116821 0.6577148
vt 0.04455566 0.6601563
vt 0.04196167 0.6552734
vt 0.04510498 0.659668
vt 0.03710938 0.6582031
vt 0.03369141 0.6547852
vt 0.03326416 0.6567383
vt 0.03775024 0.65625
vt 0.03479004 0.6547852
vt 0.03863525 0.65625
vt 0.03302002 0.6567383
vt 0.03475952 0.6567383
vt 0.03421021 0.6586914
vt 0.03347778 0.6547852
vt 0.03591919 0.6567383
vt 0.034729 0.6547852
vt 0.06063843 0.6660156
vt 0.06268311 0.6567383
vt 0.06317139 0.6586914
vt 0.05978394 0.6635742
vt 0.0614624 0.65625
vt 0.05801392 0.6625977
vt 0.06365967 0.6572266
vt 0.05841064 0.6655273
vt 0.05923462 0.668457
vt 0.06317139 0.6552734
vt 0.05667114 0.6650391
vt 0.06192017 0.6552734
vt 0.03894043 0.6708984
vt 0.03500366 0.65625
vt 0.03463745 0.6582031
vt 0.03991699 0.668457
vt 0.03591919 0.6557617
vt 0.04150391 0.6674805
vt 0.04110718 0.6557617
vt 0.0425415 0.6660156
vt 0.04116821 0.6669922
vt 0.04196167 0.6552734
vt 0.0586853 0.6577148
vt 0.05505371 0.6674805
vt 0.05569458 0.6699219
vt 0.05749512 0.65625
vt 0.05395508 0.6665039
vt 0.05715942 0.6552734
vt 0.04507446 0.6606445
vt 0.04611206 0.6669922
vt 0.04611206 0.6694336
vt 0.04568481 0.6591797
vt 0.046875 0.6660156
vt 0.0461731 0.6586914
vt 0.05224609 0.6665039
vt 0.05343628 0.6557617
vt 0.05383301 0.6577148
vt 0.05200195 0.6635742
vt 0.05285645 0.6552734
vt 0.05148315 0.6625977
vt 0.06002808 0.6586914
vt 0.05679321 0.6635742
vt 0.05767822 0.6665039
vt 0.05996704 0.6567383
vt 0.05554199 0.6625977
vt 0.05917358 0.65625
vt 0.03326416 0.6567383
vt 0.03860474 0.6660156
vt 0.03771973 0.6689453
vt 0.03369141 0.6547852
vt 0.04040527 0.6650391
vt 0.03479004 0.6547852
vt 0.05148315 0.6577148
vt 0.05090332 0.6665039
vt 0.05093384 0.6694336
vt 0.05047607 0.65625
vt 0.05032349 0.6650391
vt 0.04074097 0.6694336
vt 0.03775024 0.65625
vt 0.03710938 0.6582031
vt 0.04116821 0.6669922
vt 0.03863525 0.65625
vt 0.0425415 0.6660156
vt 0.03771973 0.6689453
vt 0.03421021 0.6567383
vt 0.03372192 0.6586914
vt 0.03860474 0.6660156
vt 0.03543091 0.65625
vt 0.04040527 0.6650391
vt 0.03421021 0.6586914
vt 0.03991699 0.668457
vt 0.03894043 0.6708984
vt 0.03475952 0.6567383
vt 0.04150391 0.6674805
vt 0.03591919 0.6567383
vt 0.04611206 0.6694336
vt 0.04611206 0.6669922
vt 0.04547119 0.6567383
vt 0.04611206 0.6557617
vt 0.046875 0.6660156
vt 0.05392456 0.6601563
vt 0.05200195 0.6635742
vt 0.05224609 0.6665039
vt 0.05459595 0.6586914
vt 0.05148315 0.6625977
vt 0.05386353 0.6577148
vt 0.05767822 0.6665039
vt 0.05889893 0.6567383
vt 0.05981445 0.6582031
vt 0.05679321 0.6635742
vt 0.05825806 0.6557617
vt 0.05554199 0.6625977
vt 0.06408691 0.6577148
vt 0.05978394 0.6635742
vt 0.06063843 0.6660156
vt 0.06378174 0.65625
vt 0.05801392 0.6625977
vt 0.06262207 0.6557617
vt 0.05923462 0.668457
vt 0.0637207 0.65625
vt 0.06396484 0.6577148
vt 0.05841064 0.6655273
vt 0.06246948 0.6557617
vt 0.05667114 0.6650391
vt 0.05569458 0.6699219
vt 0.05923462 0.6542969
vt 0.05892944 0.6557617
vt 0.05505371 0.6674805
vt 0.05813599 0.6533203
vt 0.05395508 0.6665039
vt 0.05093384 0.6694336
vt 0.05090332 0.6665039
vt 0.05310059 0.65625
vt 0.05258179 0.6557617
vt 0.05032349 0.6650391
vt 0.05892944 0.6557617
vt 0.05923462 0.6542969
vt 0.05636597 0.6518555
vt 0.05651855 0.6547852
vt 0.06433105 0.6513672
vt 0.05999756 0.6523438
vt 0.06085205 0.6547852
vt 0.06408691 0.6494141
vt 0.05889893 0.6518555
vt 0.06286621 0.6489258
vt 0.06396484 0.6577148
vt 0.06408691 0.6494141
vt 0.06433105 0.6513672
vt 0.0637207 0.65625
vt 0.06286621 0.6489258
vt 0.06246948 0.6557617
vt 0.05651855 0.6547852
vt 0.05245972 0.6533203
vt 0.05325317 0.6552734
vt 0.05636597 0.6518555
vt 0.05236816 0.652832
vt 0.05541992 0.6513672
vt 0.04852295 0.6552734
vt 0.04537964 0.6538086
vt 0.04577637 0.6567383
vt 0.04888916 0.652832
vt 0.04598999 0.6533203
vt 0.04864502 0.652832
vt 0.05245972 0.6582031
vt 0.04888916 0.652832
vt 0.04852295 0.6552734
vt 0.05310059 0.65625
vt 0.03372192 0.6586914
vt 0.03329468 0.6547852
vt 0.03289795 0.6567383
vt 0.03421021 0.6567383
vt 0.03460693 0.6547852
vt 0.03543091 0.65625
vt 0.04629517 0.6582031
vt 0.04800415 0.6542969
vt 0.04846191 0.6572266
vt 0.04547119 0.6567383
vt 0.04827881 0.6538086
vt 0.04611206 0.6557617
vt 0.03689575 0.6660156
vt 0.03347778 0.6547852
vt 0.03302002 0.6567383
vt 0.0378418 0.6640625
vt 0.034729 0.6547852
vt 0.03915405 0.6625977
vt 0.0362854 0.6645508
vt 0.0378418 0.6640625
vt 0.03689575 0.6660156
vt 0.03726196 0.6625977
vt 0.03915405 0.6625977
vt 0.03851318 0.6611328
vt 0.03289795 0.6567383
vt 0.03726196 0.6625977
vt 0.0362854 0.6645508
vt 0.03329468 0.6547852
vt 0.03851318 0.6611328
vt 0.03460693 0.6547852
vt 0.04846191 0.6572266
vt 0.0524292 0.6538086
vt 0.05194092 0.6557617
vt 0.04800415 0.6542969
vt 0.05187988 0.6533203
vt 0.04827881 0.6538086
vt 0.05383301 0.6577148
vt 0.05316162 0.6621094
vt 0.05407715 0.6640625
vt 0.05343628 0.6557617
vt 0.05285645 0.6606445
vt 0.05285645 0.6552734
vt 0.05407715 0.6640625
vt 0.05661011 0.6542969
vt 0.05697632 0.6567383
vt 0.05316162 0.6621094
vt 0.05612183 0.6542969
vt 0.05285645 0.6606445
vt 0.06201172 0.6552734
vt 0.06341553 0.6523438
vt 0.06384277 0.6557617
vt 0.06134033 0.6533203
vt 0.06155396 0.6518555
vt 0.06045532 0.652832
vt 0.05981445 0.6582031
vt 0.06134033 0.6533203
vt 0.06201172 0.6552734
vt 0.05889893 0.6567383
vt 0.06045532 0.652832
vt 0.05825806 0.6557617
vt 0.04537964 0.6538086
vt 0.04598999 0.6533203
vt 0.04510498 0.659668
vt 0.04455566 0.6601563
vt 0.05923462 0.6542969
vt 0.05813599 0.6533203
vt 0.05541992 0.6513672
vt 0.05636597 0.6518555
vt 0.05661011 0.6542969
vt 0.05612183 0.6542969
vt 0.05917358 0.65625
vt 0.05996704 0.6567383
vt 0.0524292 0.6538086
vt 0.05187988 0.6533203
vt 0.05386353 0.6577148
vt 0.05459595 0.6586914
vn -0.8100586 0.5341797 0.2423096
vn -0.8095703 0.5859375 -0.02854919
vn -0.8095703 0.5859375 -0.02854919
vn -0.4624023 -0.668457 0.5825195
vn -0.3796387 -0.7084961 0.5947266
vn -0.4624023 -0.668457 0.5825195
vn 0.6621094 -0.6806641 -0.3129883
vn 0.6621094 -0.6806641 -0.3129883
vn 0.6621094 -0.6806641 -0.3129883
vn 0.6621094 -0.6806641 -0.3129883
vn 0.6621094 -0.6806641 -0.3129883
vn 0.6621094 -0.6806641 -0.3129883
vn -0.15625 -0.6313477 0.7597656
vn -0.07568359 -0.6645508 0.7431641
vn -0.15625 -0.6313477 0.7597656
vn -0.08978271 -0.6591797 0.746582
vn -0.07568359 -0.6645508 0.7431641
vn 0.05685425 -0.7080078 0.7036133
vn 0.05685425 -0.7080078 0.7036133
vn 0.7299805 -0.6835938 0.002256393
vn 0.7255859 -0.6879883 0.007156372
vn 0.7255859 -0.6879883 0.007171631
vn -0.9897461 -0.1074829 -0.09381104
vn -0.8837891 -0.3117676 -0.348877
vn -0.9897461 -0.1074829 -0.09381104
vn -0.9897461 -0.1074829 -0.09381104
vn -0.8735352 -0.3234863 -0.3635254
vn -0.8837891 -0.3117676 -0.348877
vn -0.9638672 0.177124 0.1987305
vn -0.9892578 0.1109619 0.09515381
vn -0.9892578 0.1109009 0.09515381
vn -0.9521484 0.204834 -0.2276611
vn -0.9941406 -0.0194397 0.1050415
vn -0.9521484 0.204834 -0.2276611
vn 0.9638672 0.2617188 -0.050354
vn 0.9658203 0.1566162 -0.206543
vn 0.9638672 0.2614746 -0.05038452
vn 0.4714355 -0.690918 0.5478516
vn 0.4025879 -0.9150391 0.01168823
vn 0.4707031 -0.6743164 0.5688477
vn 0.4714355 -0.690918 0.5478516
vn 0.4025879 -0.9150391 0.01166534
vn 0.4025879 -0.9150391 0.01168823
vn -0.02000427 0.512207 -0.8588867
vn 0.2419434 0.4887695 -0.8383789
vn -0.01829529 0.4692383 -0.8828125
vn 0.2250977 0.5239258 -0.8217773
vn 0.6401367 0.4904785 -0.5913086
vn 0.6162109 0.5234375 -0.5888672
vn 0.8603516 0.4790039 -0.1733398
vn 0.8354492 0.5239258 -0.1647949
vn 0.7084961 0.5854492 -0.3947754
vn 0.7875977 0.5761719 -0.2185059
vn 0.6655273 0.5400391 -0.5151367
vn 0.6655273 0.5400391 -0.5151367
vn 0.03216553 0.5981445 -0.8007813
vn -0.02377319 0.6069336 -0.7944336
vn 0.1586914 0.5712891 -0.8051758
vn 0.1586914 0.5712891 -0.8051758
vn 0.4638672 0.5209961 -0.7167969
vn 0.5688477 0.4345703 -0.6987305
vn 0.3964844 0.5683594 -0.7207031
vn 0.3964844 0.5683594 -0.7207031
vn 0.5395508 -0.6254883 0.5639648
vn 0.5395508 -0.6254883 0.5639648
vn 0.5395508 -0.6254883 0.5639648
vn 0.5395508 -0.6254883 0.5639648
vn -0.8100586 0.5341797 0.2423096
vn -0.8876953 0.4509277 -0.09228516
vn -0.8647461 0.467041 0.1843262
vn -0.8696289 0.4863281 -0.08319092
vn -0.8105469 0.5844727 -0.03448486
vn -0.8095703 0.5859375 -0.02854919
vn -0.8061523 0.5888672 -0.05319214
vn -0.8022461 0.5952148 -0.04263306
vn -0.8022461 0.5952148 -0.04263306
vn 0.8354492 0.5239258 -0.1647949
vn 0.8461914 0.4511719 0.2841797
vn 0.8603516 0.4790039 -0.1733398
vn 0.8032227 0.519043 0.2922363
vn 0.6079102 0.4353027 0.6640625
vn 0.8359375 0.546875 0.04727173
vn 0.8359375 0.546875 0.04724121
vn 0.5722656 0.5297852 0.6259766
vn 0.2220459 0.4643555 0.8574219
vn 0.2225342 0.5268555 0.8203125
vn -0.2666016 0.4968262 0.8256836
vn 0.4223633 0.6020508 0.6777344
vn 0.3896484 0.5966797 0.7016602
vn 0.2944336 0.5761719 0.7626953
vn 0.2944336 0.5761719 0.7626953
vn 0.6855469 0.5908203 0.4257813
vn 0.6323242 0.6181641 0.4667969
vn 0.71875 0.5708008 0.3969727
vn 0.71875 0.5708008 0.3969727
vn -0.2785645 0.5146484 0.8110352
vn -0.6689453 0.4697266 0.5761719
vn -0.671875 0.5092773 0.5375977
vn -0.8647461 0.467041 0.1843262
vn -0.8100586 0.5341797 0.2423096
vn -0.7163086 0.5786133 0.390625
vn -0.7163086 0.5786133 0.390625
vn -0.5185547 0.4863281 0.7036133
vn -0.2873535 0.5361328 0.793457
vn -0.007232666 0.5605469 0.828125
vn 0.02226257 0.5639648 0.8256836
vn 0.02223206 0.5639648 0.8256836
vn -0.6025391 0.473877 -0.6425781
vn -0.6357422 0.4016113 -0.659668
vn -0.6357422 0.4016113 -0.659668
vn -0.5981445 0.4821777 -0.6401367
vn -0.5742188 0.5273438 -0.6264648
vn -0.5742188 0.5273438 -0.6264648
vn -0.7167969 -0.6967773 -0.02946472
vn -0.7167969 -0.6967773 -0.02946472
vn -0.7167969 -0.6967773 -0.02946472
vn -0.7167969 -0.6967773 -0.02947998
vn -0.4648438 -0.5253906 -0.7124023
vn -0.2937012 -0.7890625 -0.5395508
vn -0.4648438 -0.5253906 -0.7124023
vn -0.2988281 -0.7832031 -0.5449219
vn -0.03823853 -0.9702148 -0.2397461
vn -0.03823853 -0.9702148 -0.2397461
vn 0.1497803 -0.7543945 -0.6391602
vn 0.151001 -0.7524414 -0.6411133
vn 0.151001 -0.7524414 -0.6411133
vn 0.1497803 -0.7543945 -0.6391602
vn 0.1221313 -0.7089844 -0.6943359
vn 0.1278076 -0.7192383 -0.6831055
vn 0.1278076 -0.7192383 -0.6831055
vn 0.1221313 -0.7089844 -0.6943359
vn 0.1147461 -0.6953125 -0.7094727
vn 0.1147461 -0.6953125 -0.7094727
vn -0.6601563 -0.640625 -0.3928223
vn -0.5947266 -0.6616211 -0.4567871
vn -0.5947266 -0.6616211 -0.4567871
vn -0.6430664 -0.6464844 -0.4101563
vn -0.6430664 -0.6464844 -0.4101563
vn -0.659668 -0.640625 -0.3928223
vn -0.7216797 -0.6123047 -0.3227539
vn -0.7216797 -0.6123047 -0.3227539
vn -0.4624023 -0.668457 0.5825195
vn -0.3496094 -0.7211914 0.5981445
vn -0.3796387 -0.7084961 0.5947266
vn -0.3417969 -0.7241211 0.5986328
vn -0.3417969 -0.7241211 0.5986328
vn -0.6791992 -0.6699219 0.2995605
vn -0.6889648 -0.703125 0.1755371
vn -0.6889648 -0.703125 0.1755371
vn -0.6601563 -0.6831055 0.3129883
vn -0.6450195 -0.6469727 0.4069824
vn -0.6601563 -0.6831055 0.3127441
vn -0.6791992 -0.6699219 0.2995605
vn -0.5688477 -0.6577148 0.4936523
vn 0.7192383 -0.6943359 0.02886963
vn 0.7124023 -0.7006836 0.03921509
vn 0.7099609 -0.703125 0.04351807
vn 0.7099609 -0.703125 0.04351807
vn -0.3251953 -0.6538086 -0.6831055
vn -0.4499512 -0.6733398 -0.5869141
vn -0.4499512 -0.6733398 -0.5869141
vn -0.2958984 -0.6469727 -0.7026367
vn -0.2597656 -0.6376953 -0.7250977
vn -0.2597656 -0.6376953 -0.7250977
vn 0.7124023 -0.7006836 0.03918457
vn 0.7192383 -0.6943359 0.02883911
vn 0.7319336 -0.6816406 0.0003314018
vn 0.7299805 -0.6835938 0.002256393
vn 0.7255859 -0.6879883 0.007156372
vn 0.7304688 0.02626038 -0.6826172
vn 0.8515625 -0.4108887 -0.3256836
vn 0.8496094 -0.4350586 -0.2983398
vn 0.7304688 0.02626038 -0.6826172
vn 0.7060547 -0.3288574 -0.6269531
vn 0.581543 -0.7319336 -0.3547363
vn 0.5717773 -0.7470703 -0.3391113
vn 0.7060547 -0.3286133 -0.6269531
vn 0.9716797 -0.2349854 0.02305603
vn 0.706543 -0.6625977 0.2491455
vn 0.9716797 -0.2349854 0.02305603
vn 0.7192383 -0.6508789 0.2424316
vn 0.2634277 -0.8813477 0.3925781
vn 0.2631836 -0.8813477 0.3925781
vn 0.9223633 -0.3466797 -0.1694336
vn 0.6108398 -0.7626953 -0.2130127
vn 0.9223633 -0.3466797 -0.1694336
vn 0.6074219 -0.7651367 -0.2131348
vn 0.1008911 -0.9755859 -0.1958008
vn 0.1008911 -0.9755859 -0.1958008
vn 0.175415 -0.0121994 0.984375
vn -0.2176514 -0.3964844 0.8916016
vn 0.175415 -0.01216888 0.984375
vn -0.2109375 -0.390625 0.8959961
vn -0.5341797 -0.6518555 0.5385742
vn -0.5341797 -0.6518555 0.5385742
vn -0.2169189 0.00144577 0.9760742
vn -0.5415039 -0.4677734 0.6987305
vn -0.2169189 0.001441956 0.9760742
vn -0.5258789 -0.4414063 0.7270508
vn -0.6489258 -0.7421875 0.1671143
vn -0.6489258 -0.7421875 0.1671143
vn -0.9541016 -0.02929688 0.2978516
vn -0.9702148 -0.2392578 0.03482056
vn -0.9702148 -0.2399902 0.03369141
vn -0.9541016 -0.02926636 0.2978516
vn 0.326416 -0.4033203 0.8549805
vn 0.4562988 -0.5712891 0.6821289
vn 0.326416 -0.4033203 0.8549805
vn 0.442627 -0.5537109 0.7055664
vn 0.543457 -0.6850586 0.4855957
vn 0.543457 -0.6850586 0.4855957
vn -0.7475586 -0.3811035 0.5444336
vn -0.4675293 -0.7788086 0.4182129
vn -0.7475586 -0.3811035 0.5444336
vn -0.4611816 -0.784668 0.4147949
vn -0.04989624 -0.9833984 0.1738281
vn -0.04989624 -0.9833984 0.1738281
vn -0.8735352 -0.3193359 -0.3669434
vn -0.5395508 -0.7490234 -0.3852539
vn -0.8735352 -0.3193359 -0.3669434
vn -0.5610352 -0.7319336 -0.3869629
vn -0.07641602 -0.9516602 -0.2976074
vn -0.07641602 -0.9516602 -0.2976074
vn -0.1729736 -0.08288574 -0.9814453
vn -0.1357422 -0.005470276 -0.9907227
vn -0.1729736 -0.08288574 -0.9814453
vn -0.1369629 -0.008049011 -0.9907227
vn -0.1020508 0.06280518 -0.9926758
vn -0.1020508 0.06280518 -0.9926758
vn 0.1610107 -0.1313477 0.9780273
vn -0.02148438 -0.2493896 0.9682617
vn 0.1610107 -0.1313477 0.9780273
vn -0.02325439 -0.2504883 0.9677734
vn -0.2086182 -0.3586426 0.909668
vn -0.2086182 -0.3586426 0.909668
vn -0.4169922 -0.01229858 0.9086914
vn -0.4445801 0.04467773 0.8945313
vn -0.4169922 -0.01228333 0.9086914
vn -0.4450684 0.04574585 0.8945313
vn -0.470459 0.1020508 0.8764648
vn -0.470459 0.1020508 0.8764648
vn -0.8735352 -0.3234863 -0.3635254
vn -0.6547852 -0.489502 -0.5761719
vn -0.8837891 -0.3117676 -0.348877
vn -0.6547852 -0.489502 -0.5761719
vn -0.5522461 0.3554688 0.7539063
vn -0.7456055 0.1981201 0.6367188
vn -0.5522461 0.3554688 0.7539063
vn -0.7329102 0.2104492 0.6469727
vn -0.8662109 0.0512085 0.4973145
vn -0.8662109 0.05123901 0.4973145
vn 0.9384766 0.07299805 -0.3369141
vn 0.9213867 0.1356201 -0.3637695
vn 0.9384766 0.07299805 -0.3369141
vn 0.9204102 0.1392822 -0.3652344
vn 0.9013672 0.1943359 -0.3874512
vn 0.9013672 0.1942139 -0.3874512
vn -0.9086914 -0.0136261 -0.4169922
vn -0.9165039 0.007049561 -0.3996582
vn -0.9086914 -0.01363373 -0.4169922
vn -0.9169922 0.008239746 -0.3984375
vn -0.9248047 0.03053284 -0.3793945
vn -0.9248047 0.03053284 -0.3793945
vn 0.6367188 0.0859375 0.7661133
vn 0.6635742 0.1672363 0.7290039
vn 0.6367188 0.0859375 0.7661133
vn 0.6630859 0.164917 0.7304688
vn 0.6831055 0.2399902 0.6899414
vn 0.6831055 0.2399902 0.6899414
vn -0.3149414 -0.02268982 -0.9487305
vn -0.2998047 -0.01068878 -0.9541016
vn -0.3149414 -0.02272034 -0.9487305
vn -0.3005371 -0.01113129 -0.9536133
vn -0.284668 0.001411438 -0.9584961
vn -0.284668 0.001391411 -0.9584961
vn -0.921875 0.2425537 0.3022461
vn -0.9658203 0.1732178 0.1925049
vn -0.921875 0.2425537 0.3024902
vn -0.9638672 0.177124 0.1987305
vn -0.9892578 0.1109009 0.09515381
vn 0.5610352 0.08636475 0.8232422
vn 0.6157227 0.0569458 0.7861328
vn 0.5610352 0.08642578 0.8232422
vn 0.6162109 0.05664063 0.7856445
vn 0.6650391 0.02844238 0.7460938
vn 0.6650391 0.02842712 0.7460938
vn 0.0793457 0.1346436 0.987793
vn 0.1512451 0.09362793 0.9838867
vn 0.0793457 0.1346436 0.987793
vn 0.1547852 0.09161377 0.9838867
vn 0.2250977 0.05023193 0.9731445
vn 0.2250977 0.05023193 0.9731445
vn 0.1346436 0.2358398 -0.9624023
vn 0.2980957 0.1207275 -0.9467773
vn 0.1346436 0.2358398 -0.9624023
vn 0.2873535 0.1286621 -0.9492188
vn 0.4399414 0.008743286 -0.8979492
vn 0.4399414 0.008720398 -0.8979492
vn -0.9521484 0.204834 -0.2276611
vn -0.9936523 -0.02252197 0.1094971
vn -0.9941406 -0.0194397 0.1050415
vn -0.8813477 -0.2336426 0.4108887
vn -0.8813477 -0.2336426 0.4108887
vn 0.8754883 0.3710938 0.3103027
vn 0.8554688 0.3154297 0.4106445
vn 0.8754883 0.3708496 0.3103027
vn 0.8569336 0.3186035 0.4052734
vn 0.8295898 0.2644043 0.4921875
vn 0.8295898 0.2644043 0.4921875
vn -0.4775391 0.2971191 -0.8266602
vn -0.659668 0.1647949 -0.7333984
vn -0.4777832 0.2971191 -0.8266602
vn -0.6699219 0.1557617 -0.7255859
vn -0.8046875 0.02006531 -0.5932617
vn -0.8046875 0.02006531 -0.5932617
vn 0.4445801 0.3977051 0.8027344
vn 0.2078857 0.2080078 0.9555664
vn 0.4445801 0.3977051 0.8027344
vn 0.2210693 0.21875 0.9501953
vn -0.03231812 0.01145172 0.9995117
vn -0.03231812 0.01145935 0.9995117
vn 0.3718262 0.3134766 -0.8735352
vn 0.277832 0.2412109 -0.9296875
vn 0.3718262 0.3134766 -0.8735352
vn 0.2685547 0.2340088 -0.9345703
vn 0.1695557 0.1574707 -0.9726563
vn 0.1694336 0.1574707 -0.9726563
vn 0.8881836 0.1784668 -0.4230957
vn 0.796875 0.03903198 -0.6030273
vn 0.8881836 0.1783447 -0.4230957
vn 0.7915039 0.0324707 -0.6103516
vn 0.6606445 -0.1000366 -0.7441406
vn 0.6601563 -0.1000366 -0.7441406
vn 0.9638672 0.2617188 -0.050354
vn 0.9648438 0.1499023 -0.2160645
vn 0.9658203 0.1566162 -0.206543
vn 0.9321289 0.04336548 -0.3588867
vn 0.9321289 0.04333496 -0.3588867
vn 0.7211914 -0.3303223 0.6088867
vn 0.6108398 -0.7368164 0.2897949
vn 0.6147461 -0.7304688 0.2973633
vn 0.7211914 -0.3303223 0.6088867
vn 0.5952148 -0.3977051 0.6982422
vn 0.3076172 -0.7670898 0.5629883
vn 0.5952148 -0.3977051 0.6982422
vn 0.2954102 -0.7773438 0.5556641
vn -0.04458618 -0.9521484 0.3015137
vn -0.04455566 -0.9521484 0.3015137
vn 0.9858398 -0.08026123 -0.1480713
vn 0.7407227 -0.4831543 -0.4665527
vn 0.9858398 -0.08026123 -0.1480713
vn 0.7333984 -0.489502 -0.4711914
vn 0.2443848 -0.7324219 -0.6352539
vn 0.2443848 -0.7324219 -0.6352539
vn 0.2316895 -0.3266602 0.9165039
vn 0.03112793 -0.7724609 0.6342773
vn 0.2316895 -0.3266602 0.9165039
vn 0.0350647 -0.7661133 0.6416016
vn -0.1655273 -0.9682617 0.1882324
vn -0.1655273 -0.9682617 0.1882324
vn -0.2467041 -0.3574219 0.9008789
vn -0.2454834 -0.7680664 0.5913086
vn -0.2467041 -0.3574219 0.9008789
vn -0.2453613 -0.769043 0.590332
vn -0.177124 -0.9775391 0.1138916
vn -0.177124 -0.9775391 0.1138916
vn 0.3710938 -0.2060547 0.9052734
vn 0.4707031 -0.6743164 0.5688477
vn 0.3710938 -0.2060547 0.9052734
vn 0.4714355 -0.690918 0.5478516
vn -0.8818359 -0.265625 0.3894043
vn -0.5698242 -0.6865234 0.4516602
vn -0.8818359 -0.2653809 0.3894043
vn -0.5473633 -0.7050781 0.451416
vn -0.0715332 -0.921875 0.3811035
vn -0.0715332 -0.921875 0.3811035
vn -0.4736328 -0.1801758 -0.8623047
vn -0.5698242 -0.6118164 -0.5483398
vn -0.4736328 -0.1801758 -0.8623047
vn -0.5703125 -0.6469727 -0.5058594
vn -0.4897461 -0.8706055 -0.04568481
vn -0.4897461 -0.8706055 -0.04559326
vn -0.157959 0.04284668 0.9863281
vn -0.06939697 -0.03353882 0.9970703
vn -0.157959 0.04284668 0.9863281
vn -0.06210327 -0.0397644 0.9970703
vn 0.03274536 -0.1200562 0.9921875
vn 0.03271484 -0.1200562 0.9921875
vn 0.4650879 0.5332031 -0.7070313
vn 0.451416 0.543457 -0.7075195
vn 0.4648438 0.5332031 -0.7070313
vn 0.4516602 0.543457 -0.7075195
vn 0.4377441 0.5541992 -0.7080078
vn 0.4377441 0.5541992 -0.7080078
vn -0.5449219 -0.0484314 -0.8369141
vn -0.2443848 -0.3618164 -0.8994141
vn -0.5449219 -0.0484314 -0.8369141
vn -0.2666016 -0.3425293 -0.9008789
vn 0.08789063 -0.597168 -0.7973633
vn 0.08789063 -0.597168 -0.7973633
vn -0.01583862 -0.3491211 -0.9370117
vn -0.03814697 -0.7783203 -0.6264648
vn -0.01583862 -0.3491211 -0.9370117
vn -0.03839111 -0.7832031 -0.6206055
vn -0.04962158 -0.9868164 -0.1533203
vn -0.04962158 -0.9868164 -0.1533203
vn 0.8671875 -0.3508301 0.3532715
vn 0.9008789 -0.3071289 0.307373
vn 0.8671875 -0.3508301 0.3532715
vn 0.8964844 -0.3129883 0.3134766
vn 0.9306641 -0.2592773 0.2573242
vn 0.9306641 -0.2592773 0.2573242
vn -0.5566406 0.0184021 -0.8305664
vn -0.7192383 -0.2164307 -0.6606445
vn -0.5566406 0.01838684 -0.8305664
vn -0.7314453 -0.2393799 -0.6386719
vn -0.8071289 -0.4550781 -0.3762207
vn -0.8071289 -0.4550781 -0.3762207
vn 0.7705078 -0.3117676 -0.5561523
vn 0.4624023 -0.7758789 -0.4296875
vn 0.7705078 -0.3115234 -0.5561523
vn 0.4536133 -0.7832031 -0.425293
vn 0.0255127 -0.9838867 -0.177124
vn 0.02549744 -0.9838867 -0.177002
vn 0.4660645 -0.05560303 -0.8828125
vn 0.09405518 -0.5180664 -0.8500977
vn 0.4660645 -0.05557251 -0.8828125
vn 0.06945801 -0.5410156 -0.8378906
vn -0.3459473 -0.8100586 -0.4731445
vn -0.3459473 -0.8100586 -0.4731445
vn -0.9702148 -0.2392578 0.03482056
vn -0.8710938 -0.4274902 -0.2410889
vn -0.8710938 -0.4274902 -0.2410889
vn -0.9702148 -0.2399902 0.03369141
vn 0.6108398 -0.7368164 0.2897949
vn 0.3496094 -0.9326172 -0.08666992
vn 0.3496094 -0.9326172 -0.08673096
vn 0.6147461 -0.7304688 0.2973633
vn 0.581543 -0.7319336 -0.3547363
vn 0.2924805 -0.9560547 0.02804565
vn 0.2924805 -0.9560547 0.02806091
vn 0.5717773 -0.7470703 -0.3391113
vn 0.8515625 -0.4108887 -0.3256836
vn 0.6625977 -0.7270508 0.1799316
vn 0.6625977 -0.7270508 0.1799316
vn 0.8496094 -0.4350586 -0.2983398
g PT_01_Canopy_03_0
f 3/3/3 2/2/2 1/1/1
f 6/6/6 5/5/5 4/4/4
f 9/9/9 8/8/8 7/7/7
f 12/12/12 11/11/11 10/10/10
f 15/15/15 14/14/14 13/13/13
f 17/17/17 16/16/16 13/13/13
f 18/18/18 16/16/16 17/17/17
f 19/19/19 18/18/18 17/17/17
f 22/22/22 21/21/21 20/20/20
f 25/25/25 24/24/24 23/23/23
f 28/28/28 27/27/27 26/26/26
f 31/31/31 30/30/30 29/29/29
f 34/34/34 33/33/33 32/32/32
f 37/37/37 36/36/36 35/35/35
f 40/40/40 39/39/39 38/38/38
f 43/43/43 42/42/42 41/41/41
f 46/46/46 45/45/45 44/44/44
f 45/45/45 47/47/47 44/44/44
f 45/45/45 48/48/48 47/47/47
f 48/48/48 49/49/49 47/47/47
f 48/48/48 50/50/50 49/49/49
f 50/50/50 51/51/51 49/49/49
f 52/52/52 49/49/49 51/51/51
f 51/51/51 53/53/53 52/52/52
f 52/52/52 54/54/54 49/49/49
f 54/54/54 55/55/55 49/49/49
f 47/47/47 56/56/56 44/44/44
f 56/56/56 57/57/57 44/44/44
f 47/47/47 58/58/58 56/56/56
f 58/58/58 59/59/59 56/56/56
f 49/49/49 60/60/60 47/47/47
f 60/60/60 61/61/61 47/47/47
f 49/49/49 62/62/62 60/60/60
f 62/62/62 63/63/63 60/60/60
f 66/66/66 65/65/65 64/64/64
f 67/67/67 66/66/66 64/64/64
f 70/70/70 69/69/69 68/68/68
f 69/69/69 71/71/71 68/68/68
f 68/68/68 71/71/71 72/72/72
f 72/72/72 73/73/73 68/68/68
f 71/71/71 74/74/74 72/72/72
f 71/71/71 75/75/75 74/74/74
f 75/75/75 76/76/76 74/74/74
f 79/79/79 78/78/78 77/77/77
f 78/78/78 80/80/80 77/77/77
f 78/78/78 81/81/81 80/80/80
f 80/80/80 82/82/82 77/77/77
f 82/82/82 83/83/83 77/77/77
f 81/81/81 84/84/84 80/80/80
f 81/81/81 85/85/85 84/84/84
f 85/85/85 86/86/86 84/84/84
f 85/85/85 87/87/87 86/86/86
f 88/88/88 84/84/84 86/86/86
f 89/89/89 88/88/88 86/86/86
f 86/86/86 90/90/90 89/89/89
f 90/90/90 91/91/91 89/89/89
f 80/80/80 84/84/84 92/92/92
f 84/84/84 93/93/93 92/92/92
f 92/92/92 94/94/94 80/80/80
f 94/94/94 95/95/95 80/80/80
f 87/87/87 96/96/96 86/86/86
f 87/87/87 97/97/97 96/96/96
f 97/97/97 98/98/98 96/96/96
f 97/97/97 99/99/99 98/98/98
f 99/99/99 100/100/100 98/98/98
f 100/100/100 101/101/101 98/98/98
f 101/101/101 102/102/102 98/98/98
f 98/98/98 103/103/103 96/96/96
f 103/103/103 104/104/104 96/96/96
f 96/96/96 104/104/104 105/105/105
f 86/86/86 96/96/96 105/105/105
f 105/105/105 106/106/106 86/86/86
f 106/106/106 107/107/107 86/86/86
f 110/110/110 109/109/109 108/108/108
f 109/109/109 111/111/111 108/108/108
f 111/111/111 112/112/112 108/108/108
f 112/112/112 113/113/113 108/108/108
f 116/116/116 115/115/115 114/114/114
f 117/117/117 116/116/116 114/114/114
f 120/120/120 119/119/119 118/118/118
f 119/119/119 121/121/121 118/118/118
f 119/119/119 122/122/122 121/121/121
f 122/122/122 123/123/123 121/121/121
f 126/126/126 125/125/125 124/124/124
f 127/127/127 126/126/126 124/124/124
f 127/127/127 124/124/124 128/128/128
f 124/124/124 129/129/129 128/128/128
f 132/132/132 131/131/131 130/130/130
f 133/133/133 132/132/132 130/130/130
f 136/136/136 135/135/135 134/134/134
f 135/135/135 137/137/137 134/134/134
f 140/140/140 139/139/139 138/138/138
f 141/141/141 140/140/140 138/138/138
f 144/144/144 143/143/143 142/142/142
f 145/145/145 143/143/143 144/144/144
f 146/146/146 145/145/145 144/144/144
f 149/149/149 148/148/148 147/147/147
f 148/148/148 150/150/150 147/147/147
f 153/153/153 152/152/152 151/151/151
f 154/154/154 151/151/151 152/152/152
f 157/157/157 156/156/156 155/155/155
f 158/158/158 157/157/157 155/155/155
f 161/161/161 160/160/160 159/159/159
f 160/160/160 162/162/162 159/159/159
f 163/163/163 159/159/159 162/162/162
f 164/164/164 163/163/163 162/162/162
f 167/167/167 166/166/166 165/165/165
f 168/168/168 167/167/167 165/165/165
f 169/169/169 167/167/167 168/168/168
f 172/172/172 171/171/171 170/170/170
f 173/173/173 172/172/172 170/170/170
f 176/176/176 175/175/175 174/174/174
f 177/177/177 176/176/176 174/174/174
f 180/180/180 179/179/179 178/178/178
f 179/179/179 181/181/181 178/178/178
f 179/179/179 182/182/182 181/181/181
f 182/182/182 183/183/183 181/181/181
f 186/186/186 185/185/185 184/184/184
f 185/185/185 187/187/187 184/184/184
f 185/185/185 188/188/188 187/187/187
f 188/188/188 189/189/189 187/187/187
f 192/192/192 191/191/191 190/190/190
f 191/191/191 193/193/193 190/190/190
f 191/191/191 194/194/194 193/193/193
f 194/194/194 195/195/195 193/193/193
f 198/198/198 197/197/197 196/196/196
f 197/197/197 199/199/199 196/196/196
f 197/197/197 200/200/200 199/199/199
f 200/200/200 201/201/201 199/199/199
f 204/204/204 203/203/203 202/202/202
f 205/205/205 204/204/204 202/202/202
f 208/208/208 207/207/207 206/206/206
f 207/207/207 209/209/209 206/206/206
f 207/207/207 210/210/210 209/209/209
f 210/210/210 211/211/211 209/209/209
f 214/214/214 213/213/213 212/212/212
f 213/213/213 215/215/215 212/212/212
f 213/213/213 216/216/216 215/215/215
f 216/216/216 217/217/217 215/215/215
f 220/220/220 219/219/219 218/218/218
f 219/219/219 221/221/221 218/218/218
f 219/219/219 222/222/222 221/221/221
f 222/222/222 223/223/223 221/221/221
f 226/226/226 225/225/225 224/224/224
f 225/225/225 227/227/227 224/224/224
f 225/225/225 228/228/228 227/227/227
f 228/228/228 229/229/229 227/227/227
f 232/232/232 231/231/231 230/230/230
f 231/231/231 233/233/233 230/230/230
f 231/231/231 234/234/234 233/233/233
f 234/234/234 235/235/235 233/233/233
f 238/238/238 237/237/237 236/236/236
f 237/237/237 239/239/239 236/236/236
f 237/237/237 240/240/240 239/239/239
f 240/240/240 241/241/241 239/239/239
f 244/244/244 243/243/243 242/242/242
f 243/243/243 245/245/245 242/242/242
f 248/248/248 247/247/247 246/246/246
f 247/247/247 249/249/249 246/246/246
f 247/247/247 250/250/250 249/249/249
f 250/250/250 251/251/251 249/249/249
f 254/254/254 253/253/253 252/252/252
f 253/253/253 255/255/255 252/252/252
f 253/253/253 256/256/256 255/255/255
f 256/256/256 257/257/257 255/255/255
f 260/260/260 259/259/259 258/258/258
f 259/259/259 261/261/261 258/258/258
f 259/259/259 262/262/262 261/261/261
f 262/262/262 263/263/263 261/261/261
f 266/266/266 265/265/265 264/264/264
f 265/265/265 267/267/267 264/264/264
f 265/265/265 268/268/268 267/267/267
f 268/268/268 269/269/269 267/267/267
f 272/272/272 271/271/271 270/270/270
f 271/271/271 273/273/273 270/270/270
f 271/271/271 274/274/274 273/273/273
f 274/274/274 275/275/275 273/273/273
f 278/278/278 277/277/277 276/276/276
f 277/277/277 279/279/279 276/276/276
f 277/277/277 280/280/280 279/279/279
f 283/283/283 282/282/282 281/281/281
f 282/282/282 284/284/284 281/281/281
f 282/282/282 285/285/285 284/284/284
f 285/285/285 286/286/286 284/284/284
f 289/289/289 288/288/288 287/287/287
f 288/288/288 290/290/290 287/287/287
f 288/288/288 291/291/291 290/290/290
f 291/291/291 292/292/292 290/290/290
f 295/295/295 294/294/294 293/293/293
f 294/294/294 296/296/296 293/293/293
f 294/294/294 297/297/297 296/296/296
f 297/297/297 298/298/298 296/296/296
f 301/301/301 300/300/300 299/299/299
f 301/301/301 302/302/302 300/300/300
f 302/302/302 303/303/303 300/300/300
f 306/306/306 305/305/305 304/304/304
f 305/305/305 307/307/307 304/304/304
f 305/305/305 308/308/308 307/307/307
f 308/308/308 309/309/309 307/307/307
f 312/312/312 311/311/311 310/310/310
f 311/311/311 313/313/313 310/310/310
f 311/311/311 314/314/314 313/313/313
f 314/314/314 315/315/315 313/313/313
f 318/318/318 317/317/317 316/316/316
f 317/317/317 319/319/319 316/316/316
f 317/317/317 320/320/320 319/319/319
f 320/320/320 321/321/321 319/319/319
f 324/324/324 323/323/323 322/322/322
f 323/323/323 325/325/325 322/322/322
f 323/323/323 326/326/326 325/325/325
f 326/326/326 327/327/327 325/325/325
f 330/330/330 329/329/329 328/328/328
f 329/329/329 331/331/331 328/328/328
f 329/329/329 332/332/332 331/331/331
f 332/332/332 333/333/333 331/331/331
f 336/336/336 335/335/335 334/334/334
f 336/336/336 337/337/337 335/335/335
f 337/337/337 338/338/338 335/335/335
f 341/341/341 340/340/340 339/339/339
f 342/342/342 341/341/341 339/339/339
f 345/345/345 344/344/344 343/343/343
f 344/344/344 346/346/346 343/343/343
f 344/344/344 347/347/347 346/346/346
f 347/347/347 348/348/348 346/346/346
f 351/351/351 350/350/350 349/349/349
f 350/350/350 352/352/352 349/349/349
f 350/350/350 353/353/353 352/352/352
f 353/353/353 354/354/354 352/352/352
f 357/357/357 356/356/356 355/355/355
f 356/356/356 358/358/358 355/355/355
f 356/356/356 359/359/359 358/358/358
f 359/359/359 360/360/360 358/358/358
f 363/363/363 362/362/362 361/361/361
f 362/362/362 364/364/364 361/361/361
f 362/362/362 365/365/365 364/364/364
f 365/365/365 366/366/366 364/364/364
f 369/369/369 368/368/368 367/367/367
f 368/368/368 370/370/370 367/367/367
f 373/373/373 372/372/372 371/371/371
f 372/372/372 374/374/374 371/371/371
f 372/372/372 375/375/375 374/374/374
f 375/375/375 376/376/376 374/374/374
f 379/379/379 378/378/378 377/377/377
f 378/378/378 380/380/380 377/377/377
f 378/378/378 381/381/381 380/380/380
f 381/381/381 382/382/382 380/380/380
f 385/385/385 384/384/384 383/383/383
f 384/384/384 386/386/386 383/383/383
f 384/384/384 387/387/387 386/386/386
f 387/387/387 388/388/388 386/386/386
f 391/391/391 390/390/390 389/389/389
f 390/390/390 392/392/392 389/389/389
f 390/390/390 393/393/393 392/392/392
f 393/393/393 394/394/394 392/392/392
f 397/397/397 396/396/396 395/395/395
f 396/396/396 398/398/398 395/395/395
f 396/396/396 399/399/399 398/398/398
f 399/399/399 400/400/400 398/398/398
f 403/403/403 402/402/402 401/401/401
f 402/402/402 404/404/404 401/401/401
f 402/402/402 405/405/405 404/404/404
f 405/405/405 406/406/406 404/404/404
f 409/409/409 408/408/408 407/407/407
f 408/408/408 410/410/410 407/407/407
f 408/408/408 411/411/411 410/410/410
f 411/411/411 412/412/412 410/410/410
f 415/415/415 414/414/414 413/413/413
f 414/414/414 416/416/416 413/413/413
f 414/414/414 417/417/417 416/416/416
f 417/417/417 418/418/418 416/416/416
f 421/421/421 420/420/420 419/419/419
f 420/420/420 422/422/422 419/419/419
f 420/420/420 423/423/423 422/422/422
f 423/423/423 424/424/424 422/422/422
f 427/427/427 426/426/426 425/425/425
f 426/426/426 428/428/428 425/425/425
f 426/426/426 429/429/429 428/428/428
f 429/429/429 430/430/430 428/428/428
f 433/433/433 432/432/432 431/431/431
f 434/434/434 433/433/433 431/431/431
f 437/437/437 436/436/436 435/435/435
f 438/438/438 437/437/437 435/435/435
f 441/441/441 440/440/440 439/439/439
f 442/442/442 441/441/441 439/439/439
f 445/445/445 444/444/444 443/443/443
f 446/446/446 445/445/445 443/443/443
