g PT_01_Canopy_04
v -60.62779 -4.205444 -112.8759
v -66.63855 -5.702637 -111.3151
v -23.94061 16.64917 -119.0332
v 125.4531 3.354248 -6.22226
v 143.2679 -25.56604 49.32504
v 112.6 27.53931 35.57834
v 125.4531 3.354248 -6.22226
v 155.6997 -36.39453 7.642365
v 143.2679 -25.56604 49.32504
v 116.7838 23.25415 -24.44513
v 151.2826 -30.0918 -25.55136
v 112.6 27.53931 35.57834
v 69.62066 114.6843 23.69232
v 71.24651 115.0231 -12.12137
v 49.89947 114.2241 54.6539
v 77.22758 33.21021 81.32901
v 18.56108 114.0707 71.18893
v 24.46939 39.93835 102.0251
v -17.11771 114.4832 69.17722
v 42.23459 -36.29907 150.362
v 102.1865 -19.86877 101.0019
v 138.1472 -40.92004 96.43478
v 99.37358 -28.78235 118.9723
v 149.0422 -44.42188 66.34348
v 147.6749 -27.0946 40.52023
v 24.46939 39.93835 102.0251
v -33.47729 15.79138 116.4284
v -41.05255 -45.99951 164.708
v -55.89434 -29.56665 144.228
v 10.68821 -65.71753 176.3004
v 47.15176 -28.13525 147.7002
v -15.73435 -9.508301 -88.02132
v 43.04671 -55.93176 -124.7057
v -25.51227 -43.80896 -122.8494
v 85.15113 -2.148315 -16.23721
v 98.5444 -17.98474 -7.304169
v 130.7148 -45.72449 -26.69025
v 85.15113 -2.148315 -16.23721
v 79.47197 0.5285645 25.28811
v 98.5444 -17.98474 -7.304169
v 122.9741 -41.53418 48.84964
v 135.4059 -52.36279 7.167084
v 98.5444 -17.98474 -7.304169
v 79.47197 0.5285645 25.28811
v 122.9741 -41.53418 48.84964
v -85.15113 -6.790405 -27.23224
v -58.91903 -9.374878 -65.53863
v -88.75859 -50.67322 -96.93853
v -85.15113 -6.790405 -27.23224
v -88.75859 -50.67322 -96.93853
v -119.8812 -42.7384 -34.85849
v -48.26947 -26.15845 -89.58426
v -15.73435 -9.508301 -88.02132
v -54.69028 -27.68201 -87.83786
v 71.60113 -6.917847 -62.15045
v 113.9286 -55.45898 -67.40869
v 84.10638 -34.12219 -92.75513
v 85.15113 -2.148315 -16.23721
v 113.9286 -55.45898 -67.40869
v 125.6458 -32.71143 -9.101563
v 135.8914 -56.32495 -38.41278
v 101.399 -32.73181 93.64559
v 92.24213 -35.18115 82.64572
v 32.2902 -51.61145 132.0061
v -23.94061 16.64917 -119.0332
v -29.76461 -40.64661 -136.91
v -24.3641 -28.13892 -143.3842
v -55.89434 -29.56665 144.228
v -29.70888 -0.8016357 106.5015
v -33.47729 15.79138 116.4284
v -63.44413 -37.63013 133.4755
v -24.58517 -7.054199 88.02132
v -54.21596 -45.46106 123.9309
v -55.89434 -29.56665 144.228
v -63.44413 -37.63013 133.4755
v -29.70888 -0.8016357 106.5015
v 24.46939 39.93835 102.0251
v 54.64842 -38.59778 139.5244
v 47.15176 -28.13525 147.7002
v -79.58611 -64.88257 137.2889
v -98.8688 -59.4519 98.99991
v -111.4228 -56.21191 107.394
v -79.58611 -64.88257 137.2889
v -71.22773 -68.4834 119.7801
v -98.8688 -59.4519 98.99991
v -119.7969 21.16101 28.23172
v -63.34439 115.3115 -18.15536
v -64.97319 114.9785 17.62518
v -113.2823 16.36621 -35.72683
v -43.826 115.5249 -48.80771
v -144.5062 -33.19458 -50.81717
v -159.9393 -40.95508 35.21371
v -79.3836 16.8634 -90.19515
v -11.71393 115.5424 -65.36267
v -105.7973 -34.64355 -107.8688
v -136.9202 -26.70886 -45.78879
v -23.94061 16.64917 -119.0332
v 23.90465 115.4803 -63.7916
v -60.62779 -4.205444 -112.8759
v -78.40275 -32.87268 -126.4548
v -97.73613 -24.70728 -106.5733
v 41.1256 21.09766 -119.9741
v 54.38824 115.3302 -44.24915
v 50.90294 -34.73816 -149.979
v -24.3641 -28.13892 -143.3842
v 107.0812 -24.66541 -98.65955
v 93.36743 16.08008 -82.09695
v 71.24651 115.0231 -12.12137
v 116.7838 23.25415 -24.44513
v 137.7094 -33.72241 -79.26041
v 102.102 -18.10938 -102.06
v 143.7786 -16.54126 -17.80463
v 154.0243 -40.15479 -47.11551
v -66.63855 -5.702637 -111.3151
v -29.59635 -27.42578 -144.3098
v -23.94061 16.64917 -119.0332
v -61.61728 -35.61853 -137.5839
v -33.47729 15.79138 116.4284
v -48.46444 114.8264 49.38821
v -17.11771 114.4832 69.17722
v -87.43696 18.28809 83.39193
v -50.57998 -40.59631 150.3377
v -64.97319 114.9785 17.62518
v -85.45094 -46.93457 142.4292
v -119.7969 21.16101 28.23172
v -114.4745 -28.71753 98.03793
v -109.6894 -43.54102 116.2368
v -149.6292 -42.35693 60.78378
v -159.9393 -40.95508 35.21371
v -134.0075 -44.72559 82.90134
v -103.6751 -27.34766 107.8037
v 53.53635 8.584717 58.01706
v 19.07573 15.35461 69.24808
v 32.2902 -51.61145 132.0061
v 92.24213 -35.18115 82.64572
v -15.73435 -9.508301 -88.02132
v 27.13798 -14.677 -75.29082
v 43.04671 -55.93176 -124.7057
v 96.26416 -40.22778 -81.05612
v 71.60113 -6.917847 -62.15045
v -74.73269 -15.35461 18.24496
v -85.15113 -6.790405 -27.23224
v -124.3966 -49.36133 -50.2861
v -134.767 -62.91357 29.53726
v -125.9552 -64.21509 48.96652
v -62.09198 -9.188965 60.41214
v -62.09198 -9.188965 60.41214
v -125.9552 -64.21509 48.96652
v -116.0237 -60.86658 73.83401
v -85.69107 -43.48914 98.73648
v 19.07573 15.35461 69.24808
v 11.60724 -81.02234 155.4375
v 48.07082 -43.43994 126.8371
v -39.3945 -67.04211 137.5703
v -39.3945 -67.04211 137.5703
v 19.07573 15.35461 69.24808
v -24.58517 -7.054199 88.02132
v -54.21596 -45.46106 123.9309
v 79.47197 0.5285645 25.28811
v 131.7047 -60.12634 55.33627
v 130.3376 -42.79919 29.51321
v 111.9335 -65.3241 79.78989
v 53.53635 8.584717 58.01706
v 111.9335 -65.3241 79.78989
v 79.47197 0.5285645 25.28811
v 82.05756 -44.33301 107.6816
v -58.91903 -9.374878 -65.53863
v -68.81277 -48.91516 -108.6404
v -88.14619 -40.74976 -88.7589
v -48.26947 -26.15845 -89.58426
v -48.26947 -26.15845 -89.58426
v -15.73435 -9.508301 -88.02132
v -54.69028 -27.68201 -87.83786
v -20.6326 -43.49927 -126.2041
v -52.65342 -51.69153 -119.4785
v -71.22773 -68.4834 119.7801
v -103.654 -44.62842 80.80136
v -98.8688 -59.4519 98.99991
v -62.09198 -9.188965 60.41214
v -39.78802 -56.58301 133.1646
v -24.58517 -7.054199 88.02132
v 154.0243 -40.15479 -47.11551
v 139.6288 -27.38831 -7.877289
v 143.7786 -16.54126 -17.80463
v 150.8084 -53.14465 -39.66586
v 125.6458 -32.71143 -9.101563
v 135.8914 -56.32495 -38.41278
v 155.6997 -36.39453 7.642365
v 136.9391 -38.58923 51.8978
v 143.2679 -25.56604 49.32504
v 150.4243 -50.24902 6.599945
v 122.9741 -41.53418 48.84964
v 135.4059 -52.36279 7.167084
v 138.1472 -40.92004 96.43478
v 87.3772 -38.5304 120.468
v 99.37358 -28.78235 118.9723
v 129.3568 -61.8634 94.22391
v 82.05756 -44.33301 107.6816
v 111.9335 -65.3241 79.78989
v 102.1865 -19.86877 101.0019
v 38.32232 -49.53564 144.9626
v 42.23459 -36.29907 150.362
v 101.399 -32.73181 93.64559
v 32.2902 -51.61145 132.0061
v -41.05255 -45.99951 164.708
v -45.56592 -62.88208 155.919
v -63.44413 -37.63013 133.4755
v -55.89434 -29.56665 144.228
v -109.6894 -43.54102 116.2368
v -111.4228 -56.21191 107.394
v -116.208 -39.38135 86.97195
v -114.4745 -28.71753 98.03793
v -149.6292 -42.35693 60.78378
v -153.6656 -59.12964 33.12588
v -159.9393 -40.95508 35.21371
v -144.323 -60.22473 54.82302
v -134.767 -62.91357 29.53726
v -125.9552 -64.21509 48.96652
v -159.9393 -40.95508 35.21371
v -137.4926 -45.15063 -56.31631
v -144.5062 -33.19458 -50.81717
v -153.6656 -59.12964 33.12588
v -124.3966 -49.36133 -50.2861
v -134.767 -62.91357 29.53726
v -136.9202 -26.70886 -45.78879
v -133.4085 -40.01074 -39.6124
v -100.3577 -48.1759 -104.9479
v -105.7973 -34.64355 -107.8688
v -61.61728 -35.61853 -137.5839
v -23.91563 -40.57117 -140.319
v -29.59635 -27.42578 -144.3098
v -59.56053 -49.72705 -132.8954
v -20.6326 -43.49927 -126.2041
v -52.65342 -51.69153 -119.4785
v -24.3641 -28.13892 -143.3842
v 48.89241 -52.65796 -142.9475
v 50.90294 -34.73816 -149.979
v -29.76461 -40.64661 -136.91
v 43.04671 -55.93176 -124.7057
v -25.51227 -43.80896 -122.8494
v 50.90294 -34.73816 -149.979
v 108.1344 -36.78784 -89.74932
v 107.0812 -24.66541 -98.65955
v 48.89241 -52.65796 -142.9475
v 96.26416 -40.22778 -81.05612
v 43.04671 -55.93176 -124.7057
v 77.22758 33.21021 81.32901
v 101.399 -32.73181 93.64559
v 102.1865 -19.86877 101.0019
v 64.37773 16.60901 76.00229
v 92.24213 -35.18115 82.64572
v 53.53635 8.584717 58.01706
v 42.23459 -36.29907 150.362
v 23.73243 21.54968 90.35007
v 24.46939 39.93835 102.0251
v 38.32232 -49.53564 144.9626
v 19.07573 15.35461 69.24808
v 32.2902 -51.61145 132.0061
v -23.94061 16.64917 -119.0332
v -22.13456 -2.459839 -108.4572
v -29.76461 -40.64661 -136.91
v -25.51227 -43.80896 -122.8494
v -15.73435 -9.508301 -88.02132
v -144.5062 -33.19458 -50.81717
v -103.0134 -0.2042236 -34.76105
v -113.2823 16.36621 -35.72683
v -137.4926 -45.15063 -56.31631
v -85.15113 -6.790405 -27.23224
v -124.3966 -49.36133 -50.2861
v 107.0812 -24.66541 -98.65955
v 86.8175 -0.2125244 -73.75101
v 93.36743 16.08008 -82.09695
v 108.1344 -36.78784 -89.74932
v 71.60113 -6.917847 -62.15045
v 96.26416 -40.22778 -81.05612
v 116.7838 23.25415 -24.44513
v 143.7341 -42.0481 -26.71988
v 151.2826 -30.0918 -25.55136
v 105.9493 4.78418 -20.39908
v 130.7148 -45.72449 -26.69025
v 85.15113 -2.148315 -16.23721
v 143.2679 -25.56604 49.32504
v 101.6053 8.099609 29.65488
v 112.6 27.53931 35.57834
v 136.9391 -38.58923 51.8978
v 79.47197 0.5285645 25.28811
v 122.9741 -41.53418 48.84964
v -105.7973 -34.64355 -107.8688
v -73.841 -2.292847 -80.80899
v -79.3836 16.8634 -90.19515
v -100.3577 -48.1759 -104.9479
v -58.91903 -9.374878 -65.53863
v -88.75859 -50.67322 -96.93853
v -114.4745 -28.71753 98.03793
v -77.08081 -0.9693604 76.93491
v -87.43696 18.28809 83.39193
v -116.208 -39.38135 86.97195
v -62.09198 -9.188965 60.41214
v -103.654 -44.62842 80.80136
v -113.2823 16.36621 -35.72683
v -133.4085 -40.01074 -39.6124
v -136.9202 -26.70886 -45.78879
v -103.0134 -0.2042236 -34.76105
v -119.8812 -42.7384 -34.85849
v -85.15113 -6.790405 -27.23224
v -79.3836 16.8634 -90.19515
v -98.07357 -37.73657 -99.37866
v -97.73613 -24.70728 -106.5733
v -73.841 -2.292847 -80.80899
v -88.14619 -40.74976 -88.7589
v -58.91903 -9.374878 -65.53863
v -29.59635 -27.42578 -144.3098
v -22.13456 -2.459839 -108.4572
v -23.94061 16.64917 -119.0332
v -23.91563 -40.57117 -140.319
v -15.73435 -9.508301 -88.02132
v -20.6326 -43.49927 -126.2041
v 93.36743 16.08008 -82.09695
v 91.23373 -28.4801 -104.6418
v 102.102 -18.10938 -102.06
v 86.8175 -0.2125244 -73.75101
v 84.10638 -34.12219 -92.75513
v 71.60113 -6.917847 -62.15045
v 143.7786 -16.54126 -17.80463
v 105.9493 4.78418 -20.39908
v 116.7838 23.25415 -24.44513
v 139.6288 -27.38831 -7.877289
v 85.15113 -2.148315 -16.23721
v 125.6458 -32.71143 -9.101563
v 112.6 27.53931 35.57834
v 144.5146 -37.77039 29.59772
v 147.6749 -27.0946 40.52023
v 101.6053 8.099609 29.65488
v 130.3376 -42.79919 29.51321
v 79.47197 0.5285645 25.28811
v 99.37358 -28.78235 118.9723
v 64.37773 16.60901 76.00229
v 77.22758 33.21021 81.32901
v 87.3772 -38.5304 120.468
v 53.53635 8.584717 58.01706
v 82.05756 -44.33301 107.6816
v 24.46939 39.93835 102.0251
v 23.73243 21.54968 90.35007
v 54.64842 -38.59778 139.5244
v 48.07082 -43.43994 126.8371
v 19.07573 15.35461 69.24808
v -33.47729 15.79138 116.4284
v -40.13878 -51.53638 147.4779
v -50.57998 -40.59631 150.3377
v -29.70888 -0.8016357 106.5015
v -39.78802 -56.58301 133.1646
v -24.58517 -7.054199 88.02132
v -87.43696 18.28809 83.39193
v -94.39796 -39.31824 109.9643
v -103.6751 -27.34766 107.8037
v -77.08081 -0.9693604 76.93491
v -85.69107 -43.48914 98.73648
v -62.09198 -9.188965 60.41214
v -50.57998 -40.59631 150.3377
v -79.58611 -64.88257 137.2889
v -85.45094 -46.93457 142.4292
v -40.13878 -51.53638 147.4779
v -71.22773 -68.4834 119.7801
v -39.78802 -56.58301 133.1646
v 10.68821 -65.71753 176.3004
v -45.56592 -62.88208 155.919
v -41.05255 -45.99951 164.708
v 15.73444 -78.09888 169.6843
v -39.3945 -67.04211 137.5703
v 11.60724 -81.02234 155.4375
v 47.15176 -28.13525 147.7002
v 54.64842 -38.59778 139.5244
v 15.73444 -78.09888 169.6843
v 10.68821 -65.71753 176.3004
v -85.45094 -46.93457 142.4292
v -111.4228 -56.21191 107.394
v -109.6894 -43.54102 116.2368
v -79.58611 -64.88257 137.2889
v -134.0075 -44.72559 82.90134
v -144.323 -60.22473 54.82302
v -149.6292 -42.35693 60.78378
v -127.1138 -58.60559 84.41434
v -125.9552 -64.21509 48.96652
v -116.0237 -60.86658 73.83401
v -103.6751 -27.34766 107.8037
v -127.1138 -58.60559 84.41434
v -134.0075 -44.72559 82.90134
v -94.39796 -39.31824 109.9643
v -116.0237 -60.86658 73.83401
v -85.69107 -43.48914 98.73648
v -97.73613 -24.70728 -106.5733
v -98.07357 -37.73657 -99.37866
v -75.91306 -46.70129 -121.7437
v -78.40275 -32.87268 -126.4548
v 102.102 -18.10938 -102.06
v 129.0445 -51.39685 -79.42288
v 137.7094 -33.72241 -79.26041
v 91.23373 -28.4801 -104.6418
v 113.9286 -55.45898 -67.40869
v 84.10638 -34.12219 -92.75513
v -66.63855 -5.702637 -111.3151
v -67.34221 -18.60449 -97.72159
v -59.56053 -49.72705 -132.8954
v -61.61728 -35.61853 -137.5839
v -60.62779 -4.205444 -112.8759
v -67.34221 -18.60449 -97.72159
v -66.63855 -5.702637 -111.3151
v -50.0707 -17.63062 -105.513
v -54.69028 -27.68201 -87.83786
v -48.26947 -26.15845 -89.58426
v -78.40275 -32.87268 -126.4548
v -50.0707 -17.63062 -105.513
v -60.62779 -4.205444 -112.8759
v -75.91306 -46.70129 -121.7437
v -48.26947 -26.15845 -89.58426
v -68.81277 -48.91516 -108.6404
v 137.7094 -33.72241 -79.26041
v 150.8084 -53.14465 -39.66586
v 154.0243 -40.15479 -47.11551
v 129.0445 -51.39685 -79.42288
v 135.8914 -56.32495 -38.41278
v 113.9286 -55.45898 -67.40869
v 151.2826 -30.0918 -25.55136
v 114.9268 -11.14795 -11.59702
v 125.4531 3.354248 -6.22226
v 143.7341 -42.0481 -26.71988
v 98.5444 -17.98474 -7.304169
v 130.7148 -45.72449 -26.69025
v 125.4531 3.354248 -6.22226
v 150.4243 -50.24902 6.599945
v 155.6997 -36.39453 7.642365
v 114.9268 -11.14795 -11.59702
v 135.4059 -52.36279 7.167084
v 98.5444 -17.98474 -7.304169
v 149.0422 -44.42188 66.34348
v 146.5532 -56.95032 57.59243
v 129.3568 -61.8634 94.22391
v 138.1472 -40.92004 96.43478
v 147.6749 -27.0946 40.52023
v 146.5532 -56.95032 57.59243
v 149.0422 -44.42188 66.34348
v 144.5146 -37.77039 29.59772
v 131.7047 -60.12634 55.33627
v 130.3376 -42.79919 29.51321
v -67.34221 -18.60449 -97.72159
v -54.69028 -27.68201 -87.83786
v -52.65342 -51.69153 -119.4785
v -59.56053 -49.72705 -132.8954
v -98.07357 -37.73657 -99.37866
v -88.14619 -40.74976 -88.7589
v -68.81277 -48.91516 -108.6404
v -75.91306 -46.70129 -121.7437
v -133.4085 -40.01074 -39.6124
v -119.8812 -42.7384 -34.85849
v -88.75859 -50.67322 -96.93853
v -100.3577 -48.1759 -104.9479
v -111.4228 -56.21191 107.394
v -98.8688 -59.4519 98.99991
v -103.654 -44.62842 80.80136
v -116.208 -39.38135 86.97195
v -45.56592 -62.88208 155.919
v -39.3945 -67.04211 137.5703
v -54.21596 -45.46106 123.9309
v -63.44413 -37.63013 133.4755
v 54.64842 -38.59778 139.5244
v 48.07082 -43.43994 126.8371
v 11.60724 -81.02234 155.4375
v 15.73444 -78.09888 169.6843
v 146.5532 -56.95032 57.59243
v 131.7047 -60.12634 55.33627
v 111.9335 -65.3241 79.78989
v 129.3568 -61.8634 94.22391
vt 0.1396484 0.6591797
vt 0.138916 0.6586914
vt 0.1435547 0.6625977
vt 0.159668 0.6601563
vt 0.1616211 0.6552734
vt 0.1583252 0.6645508
vt 0.159668 0.6601563
vt 0.1629639 0.6538086
vt 0.1616211 0.6552734
vt 0.1586914 0.6635742
vt 0.1624756 0.6547852
vt 0.1583252 0.6645508
vt 0.1536865 0.6787109
vt 0.1538086 0.6787109
vt 0.1514893 0.6787109
vt 0.1544189 0.6650391
vt 0.1481934 0.6787109
vt 0.1488037 0.6665039
vt 0.1442871 0.6787109
vt 0.1506348 0.6538086
vt 0.1571045 0.65625
vt 0.1610107 0.652832
vt 0.1568604 0.6547852
vt 0.1622314 0.6523438
vt 0.1621094 0.6552734
vt 0.1488037 0.6665039
vt 0.1425781 0.6625977
vt 0.1417236 0.6518555
vt 0.1401367 0.6547852
vt 0.1473389 0.6489258
vt 0.1512451 0.6552734
vt 0.1444092 0.6582031
vt 0.1507568 0.6503906
vt 0.1434326 0.6523438
vt 0.1552734 0.6591797
vt 0.1567383 0.6567383
vt 0.1602783 0.6518555
vt 0.1552734 0.6591797
vt 0.1546631 0.659668
vt 0.1567383 0.6567383
vt 0.1594238 0.652832
vt 0.1607666 0.6508789
vt 0.1567383 0.6567383
vt 0.1546631 0.659668
vt 0.1594238 0.652832
vt 0.1369629 0.6586914
vt 0.1397705 0.6582031
vt 0.1365967 0.6513672
vt 0.1369629 0.6586914
vt 0.1365967 0.6513672
vt 0.1331787 0.652832
vt 0.1409912 0.6552734
vt 0.1444092 0.6582031
vt 0.1402588 0.6552734
vt 0.1538086 0.6586914
vt 0.1584473 0.6503906
vt 0.1551514 0.6538086
vt 0.1552734 0.6591797
vt 0.1584473 0.6503906
vt 0.159668 0.6542969
vt 0.1607666 0.6503906
vt 0.1571045 0.6542969
vt 0.1561279 0.6538086
vt 0.1496582 0.6508789
vt 0.1435547 0.6625977
vt 0.1429443 0.652832
vt 0.1435547 0.6552734
vt 0.1401367 0.6547852
vt 0.1429443 0.659668
vt 0.1425781 0.6625977
vt 0.1392822 0.6533203
vt 0.1434326 0.6586914
vt 0.1402588 0.6523438
vt 0.1401367 0.6547852
vt 0.1392822 0.6533203
vt 0.1429443 0.659668
vt 0.1488037 0.6665039
vt 0.1519775 0.6533203
vt 0.1512451 0.6552734
vt 0.1375732 0.6489258
vt 0.135498 0.6499023
vt 0.1341553 0.6503906
vt 0.1375732 0.6489258
vt 0.1384277 0.6484375
vt 0.135498 0.6499023
vt 0.1331787 0.6630859
vt 0.1392822 0.6791992
vt 0.1391602 0.6787109
vt 0.1339111 0.6625977
vt 0.1413574 0.6791992
vt 0.1306152 0.6542969
vt 0.1289063 0.652832
vt 0.1375732 0.6625977
vt 0.1448975 0.6791992
vt 0.1347656 0.6538086
vt 0.1313477 0.6552734
vt 0.1435547 0.6625977
vt 0.1486816 0.6791992
vt 0.1396484 0.6591797
vt 0.1376953 0.6542969
vt 0.1356201 0.6557617
vt 0.1505127 0.6630859
vt 0.1519775 0.6791992
vt 0.1516113 0.6538086
vt 0.1435547 0.6552734
vt 0.1577148 0.6557617
vt 0.15625 0.6625977
vt 0.1538086 0.6787109
vt 0.1586914 0.6635742
vt 0.1610107 0.6542969
vt 0.1571045 0.6567383
vt 0.1616211 0.6567383
vt 0.1627197 0.652832
vt 0.138916 0.6586914
vt 0.1429443 0.6552734
vt 0.1435547 0.6625977
vt 0.1395264 0.6538086
vt 0.1425781 0.6625977
vt 0.1408691 0.6787109
vt 0.1442871 0.6787109
vt 0.1367188 0.6625977
vt 0.140625 0.652832
vt 0.1391602 0.6787109
vt 0.1369629 0.6518555
vt 0.1331787 0.6630859
vt 0.1337891 0.6547852
vt 0.1342773 0.6523438
vt 0.1300049 0.652832
vt 0.1289063 0.652832
vt 0.1317139 0.6523438
vt 0.1350098 0.6552734
vt 0.1518555 0.6611328
vt 0.1481934 0.6621094
vt 0.1496582 0.6508789
vt 0.1561279 0.6538086
vt 0.1444092 0.6582031
vt 0.1490479 0.6572266
vt 0.1507568 0.6503906
vt 0.1564941 0.652832
vt 0.1538086 0.6586914
vt 0.1380615 0.6572266
vt 0.1369629 0.6586914
vt 0.1326904 0.6513672
vt 0.1315918 0.6494141
vt 0.1325684 0.6489258
vt 0.1394043 0.6582031
vt 0.1394043 0.6582031
vt 0.1325684 0.6489258
vt 0.133667 0.6494141
vt 0.1368408 0.6523438
vt 0.1481934 0.6621094
vt 0.1473389 0.6459961
vt 0.1513672 0.6523438
vt 0.1418457 0.6484375
vt 0.1418457 0.6484375
vt 0.1481934 0.6621094
vt 0.1434326 0.6586914
vt 0.1402588 0.6523438
vt 0.1546631 0.659668
vt 0.1602783 0.6499023
vt 0.1601563 0.6523438
vt 0.1582031 0.6489258
vt 0.1518555 0.6611328
vt 0.1582031 0.6489258
vt 0.1546631 0.659668
vt 0.1550293 0.6523438
vt 0.1397705 0.6582031
vt 0.1386719 0.6513672
vt 0.1365967 0.652832
vt 0.1409912 0.6552734
vt 0.1409912 0.6552734
vt 0.1444092 0.6582031
vt 0.1402588 0.6552734
vt 0.1439209 0.6523438
vt 0.1405029 0.6508789
vt 0.1384277 0.6484375
vt 0.1350098 0.6523438
vt 0.135498 0.6499023
vt 0.1394043 0.6582031
vt 0.1418457 0.6503906
vt 0.1434326 0.6586914
vt 0.1627197 0.652832
vt 0.1611328 0.6552734
vt 0.1616211 0.6567383
vt 0.1623535 0.6508789
vt 0.159668 0.6542969
vt 0.1607666 0.6503906
vt 0.1629639 0.6538086
vt 0.1608887 0.6533203
vt 0.1616211 0.6552734
vt 0.1623535 0.6513672
vt 0.1594238 0.652832
vt 0.1607666 0.6508789
vt 0.1610107 0.652832
vt 0.1555176 0.6533203
vt 0.1568604 0.6547852
vt 0.1600342 0.6494141
vt 0.1550293 0.6523438
vt 0.1582031 0.6489258
vt 0.1571045 0.65625
vt 0.1502686 0.6513672
vt 0.1506348 0.6538086
vt 0.1571045 0.6542969
vt 0.1496582 0.6508789
vt 0.1417236 0.6518555
vt 0.1412354 0.6494141
vt 0.1392822 0.6533203
vt 0.1401367 0.6547852
vt 0.1342773 0.6523438
vt 0.1341553 0.6503906
vt 0.133667 0.6533203
vt 0.1337891 0.6547852
vt 0.1300049 0.652832
vt 0.1295166 0.6499023
vt 0.1289063 0.652832
vt 0.1306152 0.6499023
vt 0.1315918 0.6494141
vt 0.1325684 0.6489258
vt 0.1289063 0.652832
vt 0.1313477 0.6523438
vt 0.1306152 0.6542969
vt 0.1295166 0.6499023
vt 0.1326904 0.6513672
vt 0.1315918 0.6494141
vt 0.1313477 0.6552734
vt 0.1317139 0.652832
vt 0.135376 0.6518555
vt 0.1347656 0.6538086
vt 0.1395264 0.6538086
vt 0.1435547 0.652832
vt 0.1429443 0.6552734
vt 0.1397705 0.6513672
vt 0.1439209 0.6523438
vt 0.1405029 0.6508789
vt 0.1435547 0.6552734
vt 0.1513672 0.6508789
vt 0.1516113 0.6538086
vt 0.1429443 0.652832
vt 0.1507568 0.6503906
vt 0.1434326 0.6523438
vt 0.1516113 0.6538086
vt 0.1578369 0.6538086
vt 0.1577148 0.6557617
vt 0.1513672 0.6508789
vt 0.1564941 0.652832
vt 0.1507568 0.6503906
vt 0.1544189 0.6650391
vt 0.1571045 0.6542969
vt 0.1571045 0.65625
vt 0.1530762 0.6625977
vt 0.1561279 0.6538086
vt 0.1518555 0.6611328
vt 0.1506348 0.6538086
vt 0.1486816 0.6630859
vt 0.1488037 0.6665039
vt 0.1502686 0.6513672
vt 0.1481934 0.6621094
vt 0.1496582 0.6508789
vt 0.1435547 0.6625977
vt 0.1437988 0.6591797
vt 0.1429443 0.652832
vt 0.1434326 0.6523438
vt 0.1444092 0.6582031
vt 0.1306152 0.6542969
vt 0.1350098 0.659668
vt 0.1339111 0.6625977
vt 0.1313477 0.6523438
vt 0.1369629 0.6586914
vt 0.1326904 0.6513672
vt 0.1577148 0.6557617
vt 0.1555176 0.659668
vt 0.15625 0.6625977
vt 0.1578369 0.6538086
vt 0.1538086 0.6586914
vt 0.1564941 0.652832
vt 0.1586914 0.6635742
vt 0.1616211 0.652832
vt 0.1624756 0.6547852
vt 0.1575928 0.6606445
vt 0.1602783 0.6518555
vt 0.1552734 0.6591797
vt 0.1616211 0.6552734
vt 0.1571045 0.6611328
vt 0.1583252 0.6645508
vt 0.1608887 0.6533203
vt 0.1546631 0.659668
vt 0.1594238 0.652832
vt 0.1347656 0.6538086
vt 0.1381836 0.6591797
vt 0.1375732 0.6625977
vt 0.135376 0.6518555
vt 0.1397705 0.6582031
vt 0.1365967 0.6513672
vt 0.1337891 0.6547852
vt 0.1378174 0.659668
vt 0.1367188 0.6625977
vt 0.133667 0.6533203
vt 0.1394043 0.6582031
vt 0.1350098 0.6523438
vt 0.1339111 0.6625977
vt 0.1317139 0.652832
vt 0.1313477 0.6552734
vt 0.1350098 0.659668
vt 0.1331787 0.652832
vt 0.1369629 0.6586914
vt 0.1375732 0.6625977
vt 0.1356201 0.6533203
vt 0.1356201 0.6557617
vt 0.1381836 0.6591797
vt 0.1365967 0.652832
vt 0.1397705 0.6582031
vt 0.1429443 0.6552734
vt 0.1437988 0.6591797
vt 0.1435547 0.6625977
vt 0.1435547 0.652832
vt 0.1444092 0.6582031
vt 0.1439209 0.6523438
vt 0.15625 0.6625977
vt 0.1560059 0.6547852
vt 0.1571045 0.6567383
vt 0.1555176 0.659668
vt 0.1551514 0.6538086
vt 0.1538086 0.6586914
vt 0.1616211 0.6567383
vt 0.1575928 0.6606445
vt 0.1586914 0.6635742
vt 0.1611328 0.6552734
vt 0.1552734 0.6591797
vt 0.159668 0.6542969
vt 0.1583252 0.6645508
vt 0.1617432 0.6533203
vt 0.1621094 0.6552734
vt 0.1571045 0.6611328
vt 0.1601563 0.6523438
vt 0.1546631 0.659668
vt 0.1568604 0.6547852
vt 0.1530762 0.6625977
vt 0.1544189 0.6650391
vt 0.1555176 0.6533203
vt 0.1518555 0.6611328
vt 0.1550293 0.6523438
vt 0.1488037 0.6665039
vt 0.1486816 0.6630859
vt 0.1519775 0.6533203
vt 0.1513672 0.6523438
vt 0.1481934 0.6621094
vt 0.1425781 0.6625977
vt 0.1418457 0.6513672
vt 0.140625 0.652832
vt 0.1429443 0.659668
vt 0.1418457 0.6503906
vt 0.1434326 0.6586914
vt 0.1367188 0.6625977
vt 0.1359863 0.6533203
vt 0.1350098 0.6552734
vt 0.1378174 0.659668
vt 0.1368408 0.6523438
vt 0.1394043 0.6582031
vt 0.140625 0.652832
vt 0.1375732 0.6489258
vt 0.1369629 0.6518555
vt 0.1418457 0.6513672
vt 0.1384277 0.6484375
vt 0.1418457 0.6503906
vt 0.1473389 0.6489258
vt 0.1412354 0.6494141
vt 0.1417236 0.6518555
vt 0.1478271 0.6464844
vt 0.1418457 0.6484375
vt 0.1473389 0.6459961
vt 0.1512451 0.6552734
vt 0.1519775 0.6533203
vt 0.1478271 0.6464844
vt 0.1473389 0.6489258
vt 0.1369629 0.6518555
vt 0.1341553 0.6503906
vt 0.1342773 0.6523438
vt 0.1375732 0.6489258
vt 0.1317139 0.6523438
vt 0.1306152 0.6499023
vt 0.1300049 0.652832
vt 0.1324463 0.6499023
vt 0.1325684 0.6489258
vt 0.133667 0.6494141
vt 0.1350098 0.6552734
vt 0.1324463 0.6499023
vt 0.1317139 0.6523438
vt 0.1359863 0.6533203
vt 0.133667 0.6494141
vt 0.1368408 0.6523438
vt 0.1356201 0.6557617
vt 0.1356201 0.6533203
vt 0.1379395 0.6518555
vt 0.1376953 0.6542969
vt 0.1571045 0.6567383
vt 0.1600342 0.6513672
vt 0.1610107 0.6542969
vt 0.1560059 0.6547852
vt 0.1584473 0.6503906
vt 0.1551514 0.6538086
vt 0.138916 0.6586914
vt 0.138916 0.6567383
vt 0.1397705 0.6513672
vt 0.1395264 0.6538086
vt 0.1396484 0.6591797
vt 0.138916 0.6567383
vt 0.138916 0.6586914
vt 0.1407471 0.6567383
vt 0.1402588 0.6552734
vt 0.1409912 0.6552734
vt 0.1376953 0.6542969
vt 0.1407471 0.6567383
vt 0.1396484 0.6591797
vt 0.1379395 0.6518555
vt 0.1409912 0.6552734
vt 0.1386719 0.6513672
vt 0.1610107 0.6542969
vt 0.1623535 0.6508789
vt 0.1627197 0.652832
vt 0.1600342 0.6513672
vt 0.1607666 0.6503906
vt 0.1584473 0.6503906
vt 0.1624756 0.6547852
vt 0.1585693 0.6577148
vt 0.159668 0.6601563
vt 0.1616211 0.652832
vt 0.1567383 0.6567383
vt 0.1602783 0.6518555
vt 0.159668 0.6601563
vt 0.1623535 0.6513672
vt 0.1629639 0.6538086
vt 0.1585693 0.6577148
vt 0.1607666 0.6508789
vt 0.1567383 0.6567383
vt 0.1622314 0.6523438
vt 0.1619873 0.6503906
vt 0.1600342 0.6494141
vt 0.1610107 0.652832
vt 0.1621094 0.6552734
vt 0.1619873 0.6503906
vt 0.1622314 0.6523438
vt 0.1617432 0.6533203
vt 0.1602783 0.6499023
vt 0.1601563 0.6523438
vt 0.138916 0.6567383
vt 0.1402588 0.6552734
vt 0.1405029 0.6508789
vt 0.1397705 0.6513672
vt 0.1356201 0.6533203
vt 0.1365967 0.652832
vt 0.1386719 0.6513672
vt 0.1379395 0.6518555
vt 0.1317139 0.652832
vt 0.1331787 0.652832
vt 0.1365967 0.6513672
vt 0.135376 0.6518555
vt 0.1341553 0.6503906
vt 0.135498 0.6499023
vt 0.1350098 0.6523438
vt 0.133667 0.6533203
vt 0.1412354 0.6494141
vt 0.1418457 0.6484375
vt 0.1402588 0.6523438
vt 0.1392822 0.6533203
vt 0.1519775 0.6533203
vt 0.1513672 0.6523438
vt 0.1473389 0.6459961
vt 0.1478271 0.6464844
vt 0.1619873 0.6503906
vt 0.1602783 0.6499023
vt 0.1582031 0.6489258
vt 0.1600342 0.6494141
vn -0.4157715 0.5209961 -0.7456055
vn -0.3679199 0.5317383 -0.7626953
vn -0.185791 0.4941406 -0.8491211
vn 0.8510742 0.5224609 0.05444336
vn 0.8330078 0.5527344 0.02055359
vn 0.8276367 0.5053711 0.2443848
vn 0.8510742 0.5224609 0.05444336
vn 0.8330078 0.5527344 0.02053833
vn 0.8330078 0.5527344 0.02055359
vn 0.84375 0.4924316 -0.2131348
vn 0.8735352 0.4758301 0.104126
vn 0.8276367 0.5053711 0.2443848
vn 0.8510742 0.4501953 0.270752
vn 0.8662109 0.4614258 -0.1918945
vn 0.5991211 0.4238281 0.6791992
vn 0.550293 0.5009766 0.6679688
vn 0.2000732 0.4101563 0.8896484
vn 0.2064209 0.4880371 0.8481445
vn 0.01646423 0.4108887 0.9116211
vn 0.4155273 0.5273438 0.7412109
vn 0.4152832 0.5273438 0.7412109
vn 0.7050781 0.5751953 0.4147949
vn 0.5390625 0.5693359 0.6206055
vn 0.8085938 0.5239258 0.267334
vn 0.8085938 0.5239258 0.267334
vn 0.206543 0.4880371 0.8481445
vn -0.07531738 0.5463867 0.8339844
vn -0.006622314 0.5869141 0.8095703
vn -0.1303711 0.6201172 0.7734375
vn 0.04251099 0.5708008 0.8198242
vn 0.04251099 0.5708008 0.8198242
vn -0.1781006 -0.7387695 0.6499023
vn -0.1939697 -0.7299805 0.6552734
vn -0.1781006 -0.7387695 0.6499023
vn -0.7265625 -0.6777344 -0.112793
vn -0.7011719 -0.7119141 -0.03948975
vn -0.7265625 -0.6777344 -0.112793
vn -0.7265625 -0.6777344 -0.112793
vn -0.6933594 -0.7202148 -0.01907349
vn -0.7011719 -0.7119141 -0.03948975
vn -0.6879883 -0.7255859 -0.005096436
vn -0.6879883 -0.7255859 -0.005073547
vn -0.7011719 -0.7119141 -0.03948975
vn -0.6933594 -0.7202148 -0.01907349
vn -0.6879883 -0.7255859 -0.005096436
vn 0.5878906 -0.6977539 0.4089355
vn 0.5878906 -0.6977539 0.4089355
vn 0.5878906 -0.6977539 0.4089355
vn 0.5878906 -0.6977539 0.4089355
vn 0.5878906 -0.6977539 0.4089355
vn 0.5878906 -0.6977539 0.4089355
vn 0.2915039 -0.730957 0.6171875
vn 0.329834 -0.7280273 0.6010742
vn 0.3300781 -0.730957 0.597168
vn -0.7080078 -0.6479492 0.2805176
vn -0.6538086 -0.6787109 0.3339844
vn -0.7080078 -0.6479492 0.2805176
vn -0.652832 -0.6791992 0.3352051
vn -0.6538086 -0.6787109 0.3339844
vn -0.5849609 -0.7089844 0.394043
vn -0.5849609 -0.7089844 0.394043
vn 0.5087891 -0.7802734 0.3642578
vn 0.2692871 -0.9628906 0.01114655
vn 0.2692871 -0.9628906 0.01118469
vn -0.9941406 0.1054688 -0.01408386
vn -0.9882813 0.03927612 0.1461182
vn -0.9941406 0.1054688 -0.01405334
vn -0.8686523 0.3896484 -0.3059082
vn -0.8461914 0.3103027 -0.4333496
vn -0.8686523 0.3896484 -0.3059082
vn -0.8481445 0.3151855 -0.4262695
vn -0.8115234 0.2366943 -0.534668
vn -0.8115234 0.2366943 -0.534668
vn -0.8686523 0.3896484 -0.3059082
vn -0.8481445 0.3151855 -0.4262695
vn -0.8461914 0.3103027 -0.4333496
vn 0.9448242 0.3049316 -0.121521
vn 0.9438477 0.2302246 -0.2374268
vn 0.9448242 0.3049316 -0.121582
vn -0.5620117 -0.7451172 0.3588867
vn -0.2956543 -0.9550781 0.01347351
vn -0.5541992 -0.7563477 0.347168
vn -0.5620117 -0.7451172 0.3588867
vn -0.2956543 -0.9550781 0.01347351
vn -0.2956543 -0.9550781 0.01347351
vn -0.8354492 0.5297852 0.1448975
vn -0.8286133 0.480957 -0.2868652
vn -0.8486328 0.4968262 0.1811523
vn -0.8168945 0.5097656 -0.2700195
vn -0.597168 0.4829102 -0.640625
vn -0.8334961 0.5410156 -0.1112671
vn -0.8149414 0.565918 0.1233521
vn -0.6201172 0.4985352 -0.605957
vn -0.2128906 0.4938965 -0.8432617
vn -0.7329102 0.5175781 -0.4418945
vn -0.7329102 0.5175781 -0.4418945
vn -0.185791 0.4941406 -0.8491211
vn 0.2617188 0.5126953 -0.8178711
vn -0.4157715 0.5209961 -0.7456055
vn -0.4179688 0.5297852 -0.737793
vn -0.4179688 0.5297852 -0.737793
vn 0.2600098 0.5043945 -0.8232422
vn 0.6689453 0.4846191 -0.5639648
vn 0.2539063 0.4941406 -0.831543
vn -0.04006958 0.4719238 -0.8808594
vn 0.5483398 0.4675293 -0.6933594
vn 0.6430664 0.5063477 -0.574707
vn 0.8662109 0.4614258 -0.1918945
vn 0.84375 0.4924316 -0.2131348
vn 0.7324219 0.5756836 -0.3632813
vn 0.6831055 0.5830078 -0.4399414
vn 0.7998047 0.5532227 -0.2336426
vn 0.7998047 0.5532227 -0.2336426
vn -0.3679199 0.5317383 -0.7626953
vn -0.3657227 0.5341797 -0.762207
vn -0.185791 0.4941406 -0.8491211
vn -0.3657227 0.5341797 -0.762207
vn -0.4165039 0.5151367 0.7490234
vn -0.6230469 0.4748535 0.621582
vn -0.4594727 0.4492188 0.7661133
vn -0.6020508 0.515625 0.609375
vn -0.357666 0.5947266 0.7202148
vn -0.8486328 0.4968262 0.1811523
vn -0.4123535 0.5849609 0.6987305
vn -0.8354492 0.5297852 0.1448975
vn -0.590332 0.5341797 0.6049805
vn -0.590332 0.5341797 0.6049805
vn -0.7182617 0.5419922 0.4365234
vn -0.8149414 0.565918 0.1233521
vn -0.6918945 0.5073242 0.5141602
vn -0.6918945 0.5073242 0.5141602
vn -0.3479004 -0.6757813 -0.6499023
vn -0.3479004 -0.6757813 -0.6499023
vn -0.3479004 -0.6757813 -0.6499023
vn -0.3479004 -0.6757813 -0.6499023
vn -0.1781006 -0.7387695 0.6499023
vn -0.194458 -0.7299805 0.6552734
vn -0.1939697 -0.7299805 0.6552734
vn -0.2111816 -0.7202148 0.6606445
vn -0.2111816 -0.7202148 0.6606445
vn 0.6582031 -0.7397461 -0.1402588
vn 0.6748047 -0.7265625 -0.12854
vn 0.6748047 -0.7265625 -0.12854
vn 0.6567383 -0.7407227 -0.1411133
vn 0.6352539 -0.7514648 -0.1784668
vn 0.637207 -0.7485352 -0.18396
vn 0.6367188 -0.7485352 -0.18396
vn 0.6352539 -0.7514648 -0.1784668
vn 0.6464844 -0.730957 -0.2183838
vn 0.6464844 -0.730957 -0.2183838
vn 0.0617981 -0.6616211 -0.7475586
vn 0.08953857 -0.6679688 -0.7387695
vn 0.08947754 -0.6679688 -0.7387695
vn 0.05700684 -0.6601563 -0.7490234
vn 0.05697632 -0.6601563 -0.7490234
vn 0.0617981 -0.6616211 -0.7475586
vn -0.05932617 -0.6269531 -0.7768555
vn -0.05932617 -0.6269531 -0.7768555
vn -0.6191406 -0.6625977 -0.4211426
vn -0.5175781 -0.6938477 -0.5004883
vn -0.5180664 -0.6938477 -0.5004883
vn -0.6088867 -0.6762695 -0.4145508
vn -0.6826172 -0.6420898 -0.3486328
vn -0.6088867 -0.6762695 -0.4145508
vn -0.6191406 -0.6625977 -0.4211426
vn -0.7124023 -0.6445313 -0.277832
vn 0.2949219 -0.7280273 0.6191406
vn 0.2827148 -0.7382813 0.6123047
vn 0.2827148 -0.7382813 0.6123047
vn 0.2915039 -0.730957 0.6171875
vn 0.2915039 -0.730957 0.6171875
vn 0.329834 -0.7280273 0.6010742
vn 0.3300781 -0.730957 0.597168
vn 0.3300781 -0.7329102 0.5952148
vn 0.3300781 -0.7329102 0.5952148
vn 0.4187012 -0.6777344 -0.6044922
vn 0.2719727 -0.703125 -0.6567383
vn 0.2719727 -0.703125 -0.6567383
vn 0.4267578 -0.6757813 -0.6010742
vn 0.4780273 -0.6616211 -0.5776367
vn 0.4780273 -0.6616211 -0.5776367
vn 0.9350586 -0.03137207 0.3532715
vn 0.6621094 -0.4523926 0.5976563
vn 0.9350586 -0.03146362 0.3532715
vn 0.6899414 -0.425293 0.5854492
vn 0.2131348 -0.722168 0.6582031
vn 0.2131348 -0.722168 0.6582031
vn 0.8671875 -0.3544922 0.3500977
vn 0.559082 -0.7470703 0.3596191
vn 0.8671875 -0.3544922 0.3500977
vn 0.5849609 -0.7260742 0.3620605
vn 0.1407471 -0.9477539 0.2868652
vn 0.1408691 -0.9477539 0.2868652
vn 0.3981934 -0.2900391 0.8701172
vn 0.1073608 -0.6621094 0.7416992
vn 0.3981934 -0.2900391 0.8701172
vn 0.1264648 -0.6430664 0.7553711
vn -0.1922607 -0.8686523 0.4562988
vn -0.1922607 -0.8686523 0.4562988
vn 0.6386719 -0.4274902 0.6396484
vn 0.515625 -0.7695313 0.3762207
vn 0.6386719 -0.4274902 0.6396484
vn 0.5087891 -0.7802734 0.3642578
vn 0.2692871 -0.9628906 0.01118469
vn -0.8183594 -0.05279541 0.5722656
vn -0.8891602 -0.3818359 0.2521973
vn -0.8876953 -0.3950195 0.2359619
vn -0.8183594 -0.05279541 0.5722656
vn -0.9765625 -0.03610229 0.2124023
vn -0.8911133 -0.4331055 -0.1342773
vn -0.8769531 -0.4545898 -0.1553955
vn -0.9765625 -0.03610229 0.2124023
vn -0.8696289 -0.355957 0.3427734
vn -0.6694336 -0.7026367 0.2412109
vn -0.8696289 -0.355957 0.3427734
vn -0.637207 -0.7368164 0.2258301
vn -0.1968994 -0.9799805 0.02978516
vn -0.1968994 -0.9799805 0.02980042
vn -0.9130859 -0.3503418 -0.2078857
vn -0.6416016 -0.7333984 -0.2242432
vn -0.9130859 -0.3503418 -0.2078857
vn -0.6928711 -0.6850586 -0.2249756
vn -0.2242432 -0.9555664 -0.1906738
vn -0.2242432 -0.9555664 -0.1905518
vn -0.8364258 -0.404541 -0.3701172
vn -0.5966797 -0.7763672 -0.2023926
vn -0.6010742 -0.7724609 -0.2052002
vn -0.8364258 -0.404541 -0.3701172
vn -0.1113892 -0.3300781 -0.9375
vn 0.05108643 -0.7431641 -0.6669922
vn -0.1113892 -0.3300781 -0.9375
vn 0.04302979 -0.7265625 -0.6855469
vn 0.1936035 -0.9511719 -0.2408447
vn 0.1934814 -0.9511719 -0.2406006
vn -0.1210327 -0.3779297 -0.9179688
vn -0.1589355 -0.7045898 -0.6918945
vn -0.1210327 -0.3779297 -0.9179688
vn -0.1629639 -0.7495117 -0.6416016
vn -0.1689453 -0.9648438 -0.2005615
vn -0.1689453 -0.9648438 -0.2005615
vn 0.668457 -0.3649902 -0.6479492
vn 0.5498047 -0.7368164 -0.3928223
vn 0.668457 -0.3649902 -0.6479492
vn 0.5776367 -0.6875 -0.4404297
vn 0.3012695 -0.9526367 -0.03930664
vn 0.3012695 -0.9526367 -0.03927612
vn 0.5957031 0.06884766 -0.800293
vn 0.6743164 0.2011719 -0.7104492
vn 0.5957031 0.06884766 -0.800293
vn 0.6733398 0.1989746 -0.7124023
vn 0.7255859 0.3117676 -0.6132813
vn 0.7255859 0.3117676 -0.6132813
vn -0.9589844 -0.01224518 0.2836914
vn -0.9580078 0.02001953 0.2858887
vn -0.9589844 -0.0122757 0.2836914
vn -0.9580078 0.01863098 0.2856445
vn -0.956543 0.05187988 0.2875977
vn -0.956543 0.05184937 0.2875977
vn -0.9941406 0.1054688 -0.01408386
vn -0.9892578 0.0413208 0.1412354
vn -0.9882813 0.03927612 0.1461182
vn -0.9570313 -0.0223999 0.2890625
vn -0.9570313 -0.02238464 0.2888184
vn 0.1676025 0.2529297 -0.9526367
vn 0.3078613 0.173584 -0.9355469
vn 0.1676025 0.2529297 -0.9526367
vn 0.3068848 0.1740723 -0.9355469
vn 0.4277344 0.09777832 -0.8984375
vn 0.4277344 0.09777832 -0.8984375
vn 0.8359375 0.1574707 0.5253906
vn 0.7299805 0.07635498 0.6791992
vn 0.8359375 0.1574707 0.5253906
vn 0.7226563 0.07116699 0.6875
vn 0.6005859 -0.004184723 0.7993164
vn 0.6005859 -0.004169464 0.7993164
vn -0.1262207 -0.01753235 -0.9916992
vn -0.1328125 0.0171814 -0.9912109
vn -0.1262207 -0.01754761 -0.9916992
vn -0.1330566 0.01852417 -0.9907227
vn -0.1396484 0.05465698 -0.9887695
vn -0.1396484 0.05465698 -0.9887695
vn -0.3601074 0.09643555 0.9277344
vn -0.3110352 0.1756592 0.934082
vn -0.3601074 0.09643555 0.9277344
vn -0.3117676 0.1744385 0.934082
vn -0.2636719 0.2470703 0.9326172
vn -0.2634277 0.2471924 0.9326172
vn 0.6748047 -0.05056763 -0.7363281
vn 0.671875 -0.004852295 -0.7407227
vn 0.6748047 -0.05053711 -0.7363281
vn 0.671875 -0.003948212 -0.7407227
vn 0.6674805 0.04193115 -0.7431641
vn 0.6674805 0.04196167 -0.7431641
vn -0.6137695 0.2597656 -0.7456055
vn -0.5737305 0.2580566 -0.7773438
vn -0.6137695 0.2597656 -0.7456055
vn -0.574707 0.2580566 -0.7763672
vn -0.5371094 0.2558594 -0.8037109
vn -0.5371094 0.2558594 -0.8037109
vn -0.3515625 0.06112671 0.934082
vn -0.3391113 0.09729004 0.9355469
vn -0.3515625 0.06112671 0.934082
vn -0.3398438 0.09558105 0.9355469
vn -0.328125 0.1280518 0.9360352
vn -0.328125 0.1280518 0.9360352
vn -0.7924805 0.1729736 0.5844727
vn -0.7456055 0.142334 0.6508789
vn -0.7924805 0.1729736 0.5844727
vn -0.7456055 0.142334 0.6508789
vn -0.6948242 0.1116333 0.7104492
vn -0.6948242 0.1115723 0.7104492
vn 0.9575195 0.100647 -0.2695313
vn 0.9609375 0.1182861 -0.2498779
vn 0.9575195 0.100647 -0.2695313
vn 0.9609375 0.1185303 -0.2496338
vn 0.9633789 0.1351318 -0.230957
vn 0.9633789 0.1351318 -0.230957
vn -0.7207031 0.3400879 -0.6040039
vn -0.7451172 0.3522949 -0.5664063
vn -0.7207031 0.3400879 -0.6040039
vn -0.7441406 0.3518066 -0.5678711
vn -0.7631836 0.3613281 -0.5361328
vn -0.7631836 0.3613281 -0.5361328
vn 0.1429443 0.3654785 0.9199219
vn 0.05859375 0.3217773 0.9448242
vn 0.1428223 0.3654785 0.9199219
vn 0.0607605 0.322998 0.9443359
vn -0.01757813 0.2800293 0.9599609
vn -0.01759338 0.2800293 0.9599609
vn 0.4204102 0.2844238 -0.8618164
vn 0.2678223 0.1768799 -0.9472656
vn 0.4204102 0.2844238 -0.8618164
vn 0.2600098 0.1712646 -0.9501953
vn 0.1010132 0.05975342 -0.9931641
vn 0.1010132 0.05978394 -0.9931641
vn -0.5014648 0.3586426 0.7871094
vn -0.7358398 0.1746826 0.6542969
vn -0.5014648 0.3586426 0.7871094
vn -0.7246094 0.1854248 0.6635742
vn -0.8828125 -0.01222229 0.4692383
vn -0.8828125 -0.01222992 0.4692383
vn 0.9448242 0.3049316 -0.121521
vn 0.9428711 0.2244873 -0.2459717
vn 0.9438477 0.2302246 -0.2374268
vn 0.9233398 0.1466064 -0.3549805
vn 0.9233398 0.1466064 -0.3549805
vn 0.8208008 0.1702881 0.5454102
vn 0.9257813 0.04180908 0.3762207
vn 0.8208008 0.1702881 0.5454102
vn 0.9272461 0.03887939 0.3720703
vn 0.9775391 -0.0847168 0.1923828
vn 0.9775391 -0.0847168 0.1923828
vn 0.6000977 0.2739258 0.7514648
vn 0.699707 0.2132568 0.6821289
vn 0.6000977 0.2739258 0.7514648
vn 0.7021484 0.2113037 0.6796875
vn 0.7841797 0.1501465 0.6025391
vn 0.7841797 0.1501465 0.6025391
vn -0.1379395 -0.3359375 0.9316406
vn 0.04626465 -0.7060547 0.7070313
vn -0.1379395 -0.3359375 0.9316406
vn 0.05438232 -0.71875 0.6928711
vn 0.2248535 -0.9228516 0.3122559
vn 0.2248535 -0.9228516 0.3122559
vn -0.324707 -0.4453125 0.8344727
vn -0.3398438 -0.7543945 0.5615234
vn -0.324707 -0.4450684 0.8344727
vn -0.3395996 -0.7587891 0.5556641
vn -0.2958984 -0.9370117 0.1850586
vn -0.2956543 -0.9370117 0.1850586
vn 0.6748047 -0.1027222 0.730957
vn 0.7895508 -0.4855957 0.3757324
vn 0.7890625 -0.4702148 0.3955078
vn 0.6748047 -0.1027222 0.730957
vn -0.6948242 -0.3742676 0.6142578
vn -0.5541992 -0.7563477 0.347168
vn -0.6948242 -0.3742676 0.6142578
vn -0.5620117 -0.7451172 0.3588867
vn -0.7861328 -0.3713379 0.4938965
vn -0.5239258 -0.7670898 0.3703613
vn -0.7861328 -0.3713379 0.4938965
vn -0.5151367 -0.7749023 0.3659668
vn -0.1237793 -0.980957 0.151123
vn -0.1237793 -0.980957 0.151123
vn -0.5307617 -0.2154541 0.8198242
vn -0.2193604 -0.6381836 0.737793
vn -0.5307617 -0.2154541 0.8198242
vn -0.2016602 -0.6552734 0.7280273
vn 0.1777344 -0.8881836 0.4233398
vn 0.1777344 -0.8881836 0.4233398
vn -0.7373047 -0.3222656 -0.59375
vn -0.6118164 -0.7299805 -0.3049316
vn -0.625 -0.7089844 -0.3266602
vn -0.7373047 -0.3222656 -0.59375
vn 0.4470215 -0.2266846 -0.8652344
vn 0.1672363 -0.5957031 -0.7856445
vn 0.4470215 -0.2266846 -0.8652344
vn 0.1411133 -0.621582 -0.7705078
vn -0.1748047 -0.8447266 -0.5058594
vn -0.1746826 -0.8447266 -0.5058594
vn -0.9892578 -0.1130371 -0.09381104
vn -0.921875 -0.3613281 0.1403809
vn -0.9296875 -0.3461914 0.1256104
vn -0.9892578 -0.1130371 -0.09381104
vn 0.2200928 0.6567383 0.7211914
vn 0.1710205 0.7612305 0.6254883
vn 0.2200928 0.6567383 0.7211914
vn 0.170166 0.7626953 0.6240234
vn 0.1173096 0.8496094 0.5136719
vn 0.1173096 0.8496094 0.5136719
vn 0.612793 -0.0559082 -0.7880859
vn 0.737793 -0.2583008 -0.6240234
vn 0.612793 -0.0559082 -0.7880859
vn 0.7294922 -0.2425537 -0.6391602
vn 0.8007813 -0.4389648 -0.407959
vn 0.8007813 -0.4389648 -0.407959
vn 0.7841797 -0.4138184 -0.4624023
vn 0.5390625 -0.7695313 -0.3425293
vn 0.7841797 -0.4138184 -0.4624023
vn 0.5332031 -0.7749023 -0.3393555
vn 0.1706543 -0.9746094 -0.1456299
vn 0.1706543 -0.9746094 -0.1456299
vn 0.1733398 -0.3464355 0.921875
vn 0.2069092 -0.3208008 0.9243164
vn 0.1733398 -0.3464355 0.921875
vn 0.2032471 -0.3234863 0.9243164
vn 0.2410889 -0.2937012 0.9248047
vn 0.2409668 -0.2937012 0.9248047
vn 0.4140625 -0.02478027 -0.9101563
vn 0.2249756 -0.2166748 -0.9501953
vn 0.4140625 -0.02478027 -0.9101563
vn 0.2022705 -0.2375488 -0.9501953
vn -0.01983643 -0.4223633 -0.90625
vn -0.01983643 -0.4223633 -0.90625
vn 0.8476563 -0.3999023 0.3483887
vn 0.5957031 -0.7836914 0.1760254
vn 0.6074219 -0.7729492 0.1831055
vn 0.8476563 -0.3999023 0.3483887
vn 0.9829102 -0.1184082 -0.1425781
vn 0.7524414 -0.5219727 -0.4018555
vn 0.9829102 -0.1184082 -0.1424561
vn 0.7299805 -0.543457 -0.4147949
vn 0.2675781 -0.7895508 -0.5522461
vn 0.2675781 -0.7895508 -0.5522461
vn -0.921875 -0.3613281 0.1403809
vn -0.7441406 -0.5649414 0.3569336
vn -0.7441406 -0.5649414 0.3569336
vn -0.9296875 -0.3461914 0.1256104
vn -0.6118164 -0.7299805 -0.3049316
vn -0.3452148 -0.9375 0.04116821
vn -0.3452148 -0.9375 0.0411377
vn -0.625 -0.7089844 -0.3266602
vn -0.5966797 -0.7763672 -0.2023926
vn -0.2116699 -0.9770508 0.0168457
vn -0.211792 -0.9770508 0.01678467
vn -0.6010742 -0.7724609 -0.2052002
vn -0.8911133 -0.4331055 -0.1342773
vn -0.5131836 -0.7216797 -0.4643555
vn -0.5131836 -0.7216797 -0.4643555
vn -0.8769531 -0.4545898 -0.1553955
vn -0.8891602 -0.3818359 0.2521973
vn -0.7563477 -0.6381836 -0.1431885
vn -0.7563477 -0.6381836 -0.1431885
vn -0.8876953 -0.3950195 0.2359619
vn 0.7895508 -0.4855957 0.3757324
vn 0.6879883 -0.7226563 -0.06518555
vn 0.6879883 -0.7226563 -0.06518555
vn 0.7890625 -0.4702148 0.3955078
vn 0.5957031 -0.7836914 0.1760254
vn 0.2164307 -0.9755859 -0.0305481
vn 0.2164307 -0.9755859 -0.03060913
vn 0.6074219 -0.7729492 0.1831055
g PT_01_Canopy_04_0
f 3/3/3 2/2/2 1/1/1
f 6/6/6 5/5/5 4/4/4
f 9/9/9 8/8/8 7/7/7
f 7/7/7 11/11/11 10/10/10
f 12/12/12 7/7/7 10/10/10
f 13/13/13 12/12/12 10/10/10
f 14/14/14 13/13/13 10/10/10
f 13/13/13 15/15/15 12/12/12
f 15/15/15 16/16/16 12/12/12
f 15/15/15 17/17/17 16/16/16
f 17/17/17 18/18/18 16/16/16
f 17/17/17 19/19/19 18/18/18
f 18/18/18 20/20/20 16/16/16
f 20/20/20 21/21/21 16/16/16
f 22/22/22 12/12/12 16/16/16
f 16/16/16 23/23/23 22/22/22
f 22/22/22 24/24/24 12/12/12
f 24/24/24 25/25/25 12/12/12
f 19/19/19 27/27/27 26/26/26
f 26/26/26 27/27/27 28/28/28
f 27/27/27 29/29/29 28/28/28
f 28/28/28 30/30/30 26/26/26
f 30/30/30 31/31/31 26/26/26
f 34/34/34 33/33/33 32/32/32
f 37/37/37 36/36/36 35/35/35
f 40/40/40 39/39/39 38/38/38
f 42/42/42 41/41/41 40/40/40
f 45/45/45 44/44/44 43/43/43
f 48/48/48 47/47/47 46/46/46
f 51/51/51 50/50/50 49/49/49
f 54/54/54 53/53/53 52/52/52
f 57/57/57 56/56/56 55/55/55
f 59/59/59 58/58/58 55/55/55
f 60/60/60 58/58/58 59/59/59
f 61/61/61 60/60/60 59/59/59
f 64/64/64 63/63/63 62/62/62
f 67/67/67 66/66/66 65/65/65
f 70/70/70 69/69/69 68/68/68
f 69/69/69 72/72/72 71/71/71
f 72/72/72 73/73/73 71/71/71
f 76/76/76 75/75/75 74/74/74
f 79/79/79 78/78/78 77/77/77
f 82/82/82 81/81/81 80/80/80
f 85/85/85 84/84/84 83/83/83
f 88/88/88 87/87/87 86/86/86
f 87/87/87 89/89/89 86/86/86
f 87/87/87 90/90/90 89/89/89
f 89/89/89 91/91/91 86/86/86
f 91/91/91 92/92/92 86/86/86
f 90/90/90 93/93/93 89/89/89
f 90/90/90 94/94/94 93/93/93
f 93/93/93 95/95/95 89/89/89
f 95/95/95 96/96/96 89/89/89
f 94/94/94 97/97/97 93/93/93
f 94/94/94 98/98/98 97/97/97
f 93/93/93 97/97/97 99/99/99
f 99/99/99 100/100/100 93/93/93
f 100/100/100 101/101/101 93/93/93
f 98/98/98 102/102/102 97/97/97
f 98/98/98 103/103/103 102/102/102
f 102/102/102 104/104/104 97/97/97
f 104/104/104 105/105/105 97/97/97
f 106/106/106 104/104/104 102/102/102
f 107/107/107 106/106/106 102/102/102
f 103/103/103 107/107/107 102/102/102
f 103/103/103 108/108/108 107/107/107
f 108/108/108 109/109/109 107/107/107
f 109/109/109 110/110/110 107/107/107
f 110/110/110 111/111/111 107/107/107
f 109/109/109 112/112/112 110/110/110
f 112/112/112 113/113/113 110/110/110
f 116/116/116 115/115/115 114/114/114
f 115/115/115 117/117/117 114/114/114
f 120/120/120 119/119/119 118/118/118
f 119/119/119 121/121/121 118/118/118
f 122/122/122 118/118/118 121/121/121
f 119/119/119 123/123/123 121/121/121
f 124/124/124 122/122/122 121/121/121
f 123/123/123 125/125/125 121/121/121
f 121/121/121 126/126/126 124/124/124
f 126/126/126 127/127/127 124/124/124
f 121/121/121 125/125/125 128/128/128
f 125/125/125 129/129/129 128/128/128
f 128/128/128 130/130/130 121/121/121
f 130/130/130 131/131/131 121/121/121
f 134/134/134 133/133/133 132/132/132
f 135/135/135 134/134/134 132/132/132
f 138/138/138 137/137/137 136/136/136
f 138/138/138 139/139/139 137/137/137
f 139/139/139 140/140/140 137/137/137
f 143/143/143 142/142/142 141/141/141
f 144/144/144 143/143/143 141/141/141
f 144/144/144 141/141/141 145/145/145
f 141/141/141 146/146/146 145/145/145
f 149/149/149 148/148/148 147/147/147
f 150/150/150 149/149/149 147/147/147
f 153/153/153 152/152/152 151/151/151
f 152/152/152 154/154/154 151/151/151
f 157/157/157 156/156/156 155/155/155
f 158/158/158 157/157/157 155/155/155
f 161/161/161 160/160/160 159/159/159
f 160/160/160 162/162/162 159/159/159
f 165/165/165 164/164/164 163/163/163
f 166/166/166 163/163/163 164/164/164
f 169/169/169 168/168/168 167/167/167
f 168/168/168 170/170/170 167/167/167
f 172/172/172 167/167/167 171/171/171
f 174/174/174 172/172/172 173/173/173
f 175/175/175 174/174/174 173/173/173
f 178/178/178 177/177/177 176/176/176
f 177/177/177 179/179/179 176/176/176
f 180/180/180 176/176/176 179/179/179
f 181/181/181 180/180/180 179/179/179
f 184/184/184 183/183/183 182/182/182
f 183/183/183 185/185/185 182/182/182
f 183/183/183 186/186/186 185/185/185
f 186/186/186 187/187/187 185/185/185
f 190/190/190 189/189/189 188/188/188
f 189/189/189 191/191/191 188/188/188
f 189/189/189 192/192/192 191/191/191
f 192/192/192 193/193/193 191/191/191
f 196/196/196 195/195/195 194/194/194
f 195/195/195 197/197/197 194/194/194
f 195/195/195 198/198/198 197/197/197
f 198/198/198 199/199/199 197/197/197
f 202/202/202 201/201/201 200/200/200
f 201/201/201 203/203/203 200/200/200
f 201/201/201 204/204/204 203/203/203
f 207/207/207 206/206/206 205/205/205
f 208/208/208 207/207/207 205/205/205
f 211/211/211 210/210/210 209/209/209
f 212/212/212 211/211/211 209/209/209
f 215/215/215 214/214/214 213/213/213
f 214/214/214 216/216/216 213/213/213
f 214/214/214 217/217/217 216/216/216
f 217/217/217 218/218/218 216/216/216
f 221/221/221 220/220/220 219/219/219
f 220/220/220 222/222/222 219/219/219
f 220/220/220 223/223/223 222/222/222
f 223/223/223 224/224/224 222/222/222
f 227/227/227 226/226/226 225/225/225
f 228/228/228 227/227/227 225/225/225
f 231/231/231 230/230/230 229/229/229
f 230/230/230 232/232/232 229/229/229
f 230/230/230 233/233/233 232/232/232
f 233/233/233 234/234/234 232/232/232
f 237/237/237 236/236/236 235/235/235
f 236/236/236 238/238/238 235/235/235
f 236/236/236 239/239/239 238/238/238
f 239/239/239 240/240/240 238/238/238
f 243/243/243 242/242/242 241/241/241
f 242/242/242 244/244/244 241/241/241
f 242/242/242 245/245/245 244/244/244
f 245/245/245 246/246/246 244/244/244
f 249/249/249 248/248/248 247/247/247
f 248/248/248 250/250/250 247/247/247
f 248/248/248 251/251/251 250/250/250
f 251/251/251 252/252/252 250/250/250
f 255/255/255 254/254/254 253/253/253
f 254/254/254 256/256/256 253/253/253
f 254/254/254 257/257/257 256/256/256
f 257/257/257 258/258/258 256/256/256
f 261/261/261 260/260/260 259/259/259
f 261/261/261 262/262/262 260/260/260
f 262/262/262 263/263/263 260/260/260
f 266/266/266 265/265/265 264/264/264
f 265/265/265 267/267/267 264/264/264
f 265/265/265 268/268/268 267/267/267
f 268/268/268 269/269/269 267/267/267
f 272/272/272 271/271/271 270/270/270
f 271/271/271 273/273/273 270/270/270
f 271/271/271 274/274/274 273/273/273
f 274/274/274 275/275/275 273/273/273
f 278/278/278 277/277/277 276/276/276
f 277/277/277 279/279/279 276/276/276
f 277/277/277 280/280/280 279/279/279
f 280/280/280 281/281/281 279/279/279
f 284/284/284 283/283/283 282/282/282
f 283/283/283 285/285/285 282/282/282
f 283/283/283 286/286/286 285/285/285
f 286/286/286 287/287/287 285/285/285
f 290/290/290 289/289/289 288/288/288
f 289/289/289 291/291/291 288/288/288
f 289/289/289 292/292/292 291/291/291
f 292/292/292 293/293/293 291/291/291
f 296/296/296 295/295/295 294/294/294
f 295/295/295 297/297/297 294/294/294
f 295/295/295 298/298/298 297/297/297
f 298/298/298 299/299/299 297/297/297
f 302/302/302 301/301/301 300/300/300
f 301/301/301 303/303/303 300/300/300
f 301/301/301 304/304/304 303/303/303
f 304/304/304 305/305/305 303/303/303
f 308/308/308 307/307/307 306/306/306
f 307/307/307 309/309/309 306/306/306
f 307/307/307 310/310/310 309/309/309
f 310/310/310 311/311/311 309/309/309
f 314/314/314 313/313/313 312/312/312
f 313/313/313 315/315/315 312/312/312
f 313/313/313 316/316/316 315/315/315
f 316/316/316 317/317/317 315/315/315
f 320/320/320 319/319/319 318/318/318
f 319/319/319 321/321/321 318/318/318
f 319/319/319 322/322/322 321/321/321
f 322/322/322 323/323/323 321/321/321
f 326/326/326 325/325/325 324/324/324
f 325/325/325 327/327/327 324/324/324
f 325/325/325 328/328/328 327/327/327
f 328/328/328 329/329/329 327/327/327
f 332/332/332 331/331/331 330/330/330
f 331/331/331 333/333/333 330/330/330
f 331/331/331 334/334/334 333/333/333
f 334/334/334 335/335/335 333/333/333
f 338/338/338 337/337/337 336/336/336
f 337/337/337 339/339/339 336/336/336
f 337/337/337 340/340/340 339/339/339
f 340/340/340 341/341/341 339/339/339
f 344/344/344 343/343/343 342/342/342
f 344/344/344 345/345/345 343/343/343
f 345/345/345 346/346/346 343/343/343
f 349/349/349 348/348/348 347/347/347
f 348/348/348 350/350/350 347/347/347
f 348/348/348 351/351/351 350/350/350
f 351/351/351 352/352/352 350/350/350
f 355/355/355 354/354/354 353/353/353
f 354/354/354 356/356/356 353/353/353
f 354/354/354 357/357/357 356/356/356
f 357/357/357 358/358/358 356/356/356
f 361/361/361 360/360/360 359/359/359
f 360/360/360 362/362/362 359/359/359
f 360/360/360 363/363/363 362/362/362
f 363/363/363 364/364/364 362/362/362
f 367/367/367 366/366/366 365/365/365
f 366/366/366 368/368/368 365/365/365
f 366/366/366 369/369/369 368/368/368
f 369/369/369 370/370/370 368/368/368
f 373/373/373 372/372/372 371/371/371
f 374/374/374 373/373/373 371/371/371
f 377/377/377 376/376/376 375/375/375
f 376/376/376 378/378/378 375/375/375
f 381/381/381 380/380/380 379/379/379
f 380/380/380 382/382/382 379/379/379
f 380/380/380 383/383/383 382/382/382
f 383/383/383 384/384/384 382/382/382
f 387/387/387 386/386/386 385/385/385
f 386/386/386 388/388/388 385/385/385
f 386/386/386 389/389/389 388/388/388
f 389/389/389 390/390/390 388/388/388
f 393/393/393 392/392/392 391/391/391
f 394/394/394 393/393/393 391/391/391
f 397/397/397 396/396/396 395/395/395
f 396/396/396 398/398/398 395/395/395
f 396/396/396 399/399/399 398/398/398
f 399/399/399 400/400/400 398/398/398
f 403/403/403 402/402/402 401/401/401
f 404/404/404 403/403/403 401/401/401
f 407/407/407 406/406/406 405/405/405
f 406/406/406 408/408/408 405/405/405
f 406/406/406 409/409/409 408/408/408
f 409/409/409 410/410/410 408/408/408
f 413/413/413 412/412/412 411/411/411
f 412/412/412 414/414/414 411/411/411
f 412/412/412 415/415/415 414/414/414
f 415/415/415 416/416/416 414/414/414
f 419/419/419 418/418/418 417/417/417
f 418/418/418 420/420/420 417/417/417
f 418/418/418 421/421/421 420/420/420
f 421/421/421 422/422/422 420/420/420
f 425/425/425 424/424/424 423/423/423
f 424/424/424 426/426/426 423/423/423
f 424/424/424 427/427/427 426/426/426
f 427/427/427 428/428/428 426/426/426
f 431/431/431 430/430/430 429/429/429
f 430/430/430 432/432/432 429/429/429
f 430/430/430 433/433/433 432/432/432
f 433/433/433 434/434/434 432/432/432
f 437/437/437 436/436/436 435/435/435
f 438/438/438 437/437/437 435/435/435
f 441/441/441 440/440/440 439/439/439
f 440/440/440 442/442/442 439/439/439
f 440/440/440 443/443/443 442/442/442
f 443/443/443 444/444/444 442/442/442
f 447/447/447 446/446/446 445/445/445
f 448/448/448 447/447/447 445/445/445
f 451/451/451 450/450/450 449/449/449
f 452/452/452 451/451/451 449/449/449
f 455/455/455 454/454/454 453/453/453
f 456/456/456 455/455/455 453/453/453
f 459/459/459 458/458/458 457/457/457
f 460/460/460 459/459/459 457/457/457
f 463/463/463 462/462/462 461/461/461
f 464/464/464 463/463/463 461/461/461
f 467/467/467 466/466/466 465/465/465
f 468/468/468 467/467/467 465/465/465
f 471/471/471 470/470/470 469/469/469
f 472/472/472 471/471/471 469/469/469
