g PT_01_Canopy_02
v 230.1365 -101.4741 -15.81833
v 117.3205 20.55225 78.577
v 189.9763 -81.45464 137.3157
v -44.44581 53.47693 -91.87627
v 8.631656 -7.759705 -146.5084
v 16.30072 -86.94727 -221.3973
v -44.44581 53.47693 -91.87627
v 16.30072 -86.94727 -221.3973
v -80.72872 -62.39496 -180.0381
v -148.6198 -7.967285 -2.280823
v -153.3663 -23.67334 -23.17959
v -213.8211 -76.80096 -6.555939
v 117.3205 20.55225 78.577
v 74.92775 -9.704712 141.5363
v 113.6198 -82.74011 199.4234
v 117.3205 20.55225 78.577
v 113.6198 -82.74011 199.4234
v 182.0731 -67.92315 121.0039
v -136.7695 -7.097412 76.98825
v -204.3564 -87.17834 64.1362
v -171.5121 -54.63965 113.0249
v -148.6198 -7.967285 -2.280823
v -204.3564 -87.17834 64.1362
v -199.2917 -53.89587 -20.465
v -223.502 -90.36529 14.91794
v -62.07772 76.8999 -120.9334
v -92.43008 -61.56262 -192.4886
v -84.25961 -47.4845 -200.9529
v 12.76967 -72.03662 -242.3117
v 5.977221 -0.2286377 -168.1373
v 11.74984 16.14392 -180.2016
v -6.143679 15.58337 191.2477
v -13.5174 -69.58661 229.7493
v -20.67986 -55.18323 233.7051
v -7.800177 -3.165894 181.5839
v -11.09374 -70.2699 215.1134
v -3.749811 -9.749695 159.5922
v -6.143679 15.58337 191.2477
v -7.800177 -3.165894 181.5839
v -13.5174 -69.58661 229.7493
v 88.37497 15.90759 171.2177
v 115.0466 -65.44006 206.2335
v 107.3474 -50.56561 213.2429
v 44.50715 -85.07549 239.3474
v 39.51858 -83.56641 222.2693
v -3.807744 -70.4522 219.7185
v 44.50715 -85.07549 239.3474
v -3.807744 -70.4522 219.7185
v -8.686733 -70.40289 236.7396
v -92.43008 -61.56262 -192.4886
v -80.72872 -62.39496 -180.0381
v 16.30072 -86.94727 -221.3973
v -161.2994 14.95422 92.76766
v -79.20007 199.2705 -2.303345
v -67.68709 198.6688 42.14767
v -182.0265 16.35669 -2.7453
v -230.9956 -66.16192 69.71738
v -191.8528 -39.16064 117.0446
v -219.4067 -38.26636 -16.00845
v -243.617 -74.73584 19.37439
v -11.09374 -70.2699 215.1134
v -3.749811 -9.749695 159.5922
v -136.7695 -7.097412 76.98825
v -176.6509 -64.19446 103.5945
v 143.274 42.61462 92.20223
v 42.95568 199.0235 75.42862
v 75.75974 198.4921 43.95627
v 88.37497 15.90759 171.2177
v -2.17264 198.7095 83.86526
v 127.166 -67.2384 215.0943
v 195.6192 -52.42163 136.675
v 88.37497 15.90759 171.2177
v -6.143679 15.58337 191.2477
v 56.90535 -15.76978 199.7149
v 78.42284 -65.20331 232.8275
v 107.3474 -50.56561 213.2429
v 59.74116 -17.54248 201.488
v 0.2490993 -54.79736 239.8951
v 43.57571 -67.91156 242.4458
v 230.1365 -101.4741 -15.81833
v 148.6198 -22.06122 -66.62524
v 117.3205 20.55225 78.577
v 223.0312 -95.79717 -56.117
v 203.9749 -80.41736 -87.12801
v 125.8657 -30.96399 -185.05
v 79.67104 198.864 -32.80325
v 48.83003 199.5844 -68.39063
v 179.6167 4.812012 -79.89194
v 143.2169 -67.9209 -191.4716
v 190.4824 -87.15613 -171.0269
v 220.0516 -58.90875 -102.3436
v 217.7821 -79.55121 -127.5436
v -144.8894 31.80042 -89.51126
v -34.94988 198.2765 -73.42587
v -65.82014 198.6582 -44.19976
v -62.07772 76.8999 -120.9334
v 5.903471 198.9702 -82.2196
v 11.74984 16.14392 -180.2016
v 48.83003 199.5844 -68.39063
v 12.76967 -72.03662 -242.3117
v -84.25961 -47.4845 -200.9529
v -159.3614 -80.87292 -190.9897
v -100.4011 -58.62793 -211.7311
v -186.0941 -80.69482 -155.5845
v -196.9134 -55.49316 -120.4051
v 11.74984 16.14392 -180.2016
v 125.8657 -30.96399 -185.05
v 48.83003 199.5844 -68.39063
v 109.166 -90.71747 -232.3365
v 144.1808 -64.81055 -197.5719
v 66.00102 -96.59747 -244.6198
v 6.86196 -60.32507 -237.5513
v -182.0265 16.35669 -2.7453
v -65.82014 198.6582 -44.19976
v -79.20007 199.2705 -2.303345
v -144.8894 31.80042 -89.51126
v -180.1341 -3.628662 -31.39541
v -234.1084 -62.34918 -13.89728
v -192.9522 -52.16973 -121.38
v -221.7293 -68.40679 -68.14483
v -6.143679 15.58337 191.2477
v -67.68709 198.6688 42.14767
v -2.17264 198.7095 83.86526
v -161.2994 14.95422 92.76766
v -189.4186 -49.15771 120.2147
v -20.67986 -55.18323 233.7051
v 179.6167 4.812012 -79.89194
v 75.75974 198.4921 43.95627
v 79.67104 198.864 -32.80325
v 143.274 42.61462 92.20223
v 256.7247 -80.11016 -18.1965
v 210.1212 -65.65997 140.3433
v 179.6167 4.812012 -79.89194
v 224.1447 -64.64556 -90.66019
v 243.2009 -80.02539 -59.64895
v 256.7247 -80.11016 -18.1965
v -20.67986 -55.18323 233.7051
v -189.4899 -63.38806 111.7943
v -189.4186 -49.15771 120.2147
v -13.5174 -69.58661 229.7493
v -176.6509 -64.19446 103.5945
v -11.09374 -70.2699 215.1134
v 256.7247 -80.11016 -18.1965
v 200.8855 -76.37671 144.8102
v 210.1212 -65.65997 140.3433
v 253.2123 -102.4305 -14.00885
v 189.9763 -81.45464 137.3157
v 230.1365 -101.4741 -15.81833
v 8.631656 -7.759705 -146.5084
v 58.52911 -111.7891 -225.0172
v -0.6099882 -75.51648 -217.9485
v 100.7208 -110.9801 -205.8245
v 100.7208 -110.9801 -205.8245
v 8.631656 -7.759705 -146.5084
v 110.5794 -53.47699 -159.5922
v 138.7986 -79.6012 -176.9551
v -148.6198 -7.967285 -2.280823
v -114.7928 6.258911 -70.33582
v -153.3663 -23.67334 -23.17959
v -172.6148 -67.39587 -116.3527
v -201.3919 -83.63262 -63.11731
v -114.7928 6.258911 -70.33582
v -172.7221 -95.76226 -139.2858
v -183.5414 -70.56049 -104.1064
v -137.3758 -103.8724 -167.4665
v -44.44581 53.47693 -91.87627
v -137.3758 -103.8724 -167.4665
v -114.7928 6.258911 -70.33582
v -85.18008 -73.14917 -196.5169
v 74.92775 -9.704712 141.5363
v 73.98723 -80.90777 212.7758
v 102.9118 -66.27007 193.1913
v 51.06059 -37.45313 173.7493
v 51.06059 -37.45313 173.7493
v -3.749811 -9.749695 159.5922
v 54.14271 -39.20166 175.4479
v -3.807744 -70.4522 219.7185
v 39.51858 -83.56641 222.2693
v 170.8563 -108.0275 -152.0631
v 206.4419 -74.71973 -87.09146
v 204.1724 -95.36224 -112.2915
v 148.6198 -22.06122 -66.62524
v 127.1795 -83.02599 -177.8361
v 110.5794 -53.47699 -159.5922
v -243.617 -74.73584 19.37439
v -213.9357 -49.28094 -30.44143
v -219.4067 -38.26636 -16.00845
v -241.6365 -91.06299 10.95355
v -199.2917 -53.89587 -20.465
v -223.502 -90.36529 14.91794
v -221.7293 -68.40679 -68.14483
v -185.8002 -67.14221 -126.2869
v -192.9522 -52.16973 -121.38
v -219.299 -85.28217 -64.26498
v -172.6148 -67.39587 -116.3527
v -201.3919 -83.63262 -63.11731
v -159.3614 -80.87292 -190.9897
v -85.06101 -69.42255 -214.0493
v -100.4011 -58.62793 -211.7311
v -149.5538 -104.0673 -189.9232
v -85.18008 -73.14917 -196.5169
v -137.3758 -103.8724 -167.4665
v -84.25961 -47.4845 -200.9529
v 14.38333 -85.87902 -235.7321
v 12.76967 -72.03662 -242.3117
v -92.43008 -61.56262 -192.4886
v 16.30072 -86.94727 -221.3973
v 109.166 -90.71747 -232.3365
v 113.5497 -112.3051 -225.3816
v 153.442 -75.3681 -185.7646
v 144.1808 -64.81055 -197.5719
v 217.7821 -79.55121 -127.5436
v 222.4415 -95.84722 -118.2389
v 224.0523 -70.79717 -87.39108
v 220.0516 -58.90875 -102.3436
v 195.6192 -52.42163 136.675
v 198.4001 -67.17932 126.3225
v 122.6925 -82.37445 211.6899
v 127.166 -67.2384 215.0943
v 43.57571 -67.91156 242.4458
v 44.50715 -85.07549 239.3474
v -8.686733 -70.40289 236.7396
v 0.2490993 -54.79736 239.8951
v -62.07772 76.8999 -120.9334
v -51.74967 60.41968 -112.964
v -92.43008 -61.56262 -192.4886
v -80.72872 -62.39496 -180.0381
v -44.44581 53.47693 -91.87627
v 12.76967 -72.03662 -242.3117
v 14.38333 -85.87902 -235.7321
v 5.977221 -0.2286377 -168.1373
v 8.631656 -7.759705 -146.5084
v 16.30072 -86.94727 -221.3973
v 210.1212 -65.65997 140.3433
v 135.5396 27.03223 86.61697
v 143.274 42.61462 92.20223
v 200.8855 -76.37671 144.8102
v 117.3205 20.55225 78.577
v 189.9763 -81.45464 137.3157
v 144.1808 -64.81055 -197.5719
v 120.1371 -46.28906 -176.4042
v 125.8657 -30.96399 -185.05
v 153.442 -75.3681 -185.7646
v 110.5794 -53.47699 -159.5922
v 138.7986 -79.6012 -176.9551
v -189.4186 -49.15771 120.2147
v -151.8548 -0.116333 89.05697
v -161.2994 14.95422 92.76766
v -189.4899 -63.38806 111.7943
v -136.7695 -7.097412 76.98825
v -176.6509 -64.19446 103.5945
v -182.0265 16.35669 -2.7453
v -226.2839 -74.70813 -11.16302
v -234.1084 -62.34918 -13.89728
v -170.2751 -0.8258057 -4.487274
v -213.8211 -76.80096 -6.555939
v -148.6198 -7.967285 -2.280823
v -192.9522 -52.16973 -121.38
v -135.1044 13.27222 -82.07816
v -144.8894 31.80042 -89.51126
v -185.8002 -67.14221 -126.2869
v -114.7928 6.258911 -70.33582
v -172.6148 -67.39587 -116.3527
v 127.166 -67.2384 215.0943
v 86.34077 -3.143433 160.9866
v 88.37497 15.90759 171.2177
v 122.6925 -82.37445 211.6899
v 74.92775 -9.704712 141.5363
v 113.6198 -82.74011 199.4234
v 220.0516 -58.90875 -102.3436
v 170.3133 -14.2738 -74.10648
v 179.6167 4.812012 -79.89194
v 224.0523 -70.79717 -87.39108
v 148.6198 -22.06122 -66.62524
v 206.4419 -74.71973 -87.09146
v 143.274 42.61462 92.20223
v 198.4001 -67.17932 126.3225
v 195.6192 -52.42163 136.675
v 135.5396 27.03223 86.61697
v 182.0731 -67.92315 121.0039
v 117.3205 20.55225 78.577
v 88.37497 15.90759 171.2177
v 86.34077 -3.143433 160.9866
v 115.0466 -65.44006 206.2335
v 102.9118 -66.27007 193.1913
v 74.92775 -9.704712 141.5363
v 0.2490993 -54.79736 239.8951
v -8.686733 -70.40289 236.7396
v -7.800177 -3.165894 181.5839
v -6.143679 15.58337 191.2477
v -161.2994 14.95422 92.76766
v -180.8507 -50.32183 127.3898
v -191.8528 -39.16064 117.0446
v -151.8548 -0.116333 89.05697
v -171.5121 -54.63965 113.0249
v -136.7695 -7.097412 76.98825
v -219.4067 -38.26636 -16.00845
v -170.2751 -0.8258057 -4.487274
v -182.0265 16.35669 -2.7453
v -213.9357 -49.28094 -30.44143
v -148.6198 -7.967285 -2.280823
v -199.2917 -53.89587 -20.465
v -144.8894 31.80042 -89.51126
v -201.4014 -67.19598 -105.6275
v -196.9134 -55.49316 -120.4051
v -135.1044 13.27222 -82.07816
v -183.5414 -70.56049 -104.1064
v -114.7928 6.258911 -70.33582
v -100.4011 -58.62793 -211.7311
v -51.74967 60.41968 -112.964
v -62.07772 76.8999 -120.9334
v -85.06101 -69.42255 -214.0493
v -44.44581 53.47693 -91.87627
v -85.18008 -73.14917 -196.5169
v 11.74984 16.14392 -180.2016
v 5.977221 -0.2286377 -168.1373
v -6.936936 -72.76477 -234.5196
v 6.86196 -60.32507 -237.5513
v 125.8657 -30.96399 -185.05
v 130.7803 -82.04308 -196.1199
v 143.2169 -67.9209 -191.4716
v 120.1371 -46.28906 -176.4042
v 127.1795 -83.02599 -177.8361
v 110.5794 -53.47699 -159.5922
v 179.6167 4.812012 -79.89194
v 216.2981 -78.77276 -100.4116
v 224.1447 -64.64556 -90.66019
v 170.3133 -14.2738 -74.10648
v 203.9749 -80.41736 -87.12801
v 148.6198 -22.06122 -66.62524
v 143.2169 -67.9209 -191.4716
v 184.6557 -109.1617 -170.6697
v 190.4824 -87.15613 -171.0269
v 130.7803 -82.04308 -196.1199
v 170.8563 -108.0275 -152.0631
v 127.1795 -83.02599 -177.8361
v 66.00102 -96.59747 -244.6198
v 58.30748 -113.9392 -243.9686
v 113.5497 -112.3051 -225.3816
v 109.166 -90.71747 -232.3365
v 6.86196 -60.32507 -237.5513
v -6.936936 -72.76477 -234.5196
v 58.30748 -113.9392 -243.9686
v 66.00102 -96.59747 -244.6198
v 190.4824 -87.15613 -171.0269
v 184.6557 -109.1617 -170.6697
v 222.4415 -95.84722 -118.2389
v 217.7821 -79.55121 -127.5436
v 243.2009 -80.02539 -59.64895
v 253.2123 -102.4305 -14.00885
v 256.7247 -80.11016 -18.1965
v 240.0643 -98.30957 -65.69778
v 230.1365 -101.4741 -15.81833
v 223.0312 -95.79717 -56.117
v 224.1447 -64.64556 -90.66019
v 240.0643 -98.30957 -65.69778
v 243.2009 -80.02539 -59.64895
v 216.2981 -78.77276 -100.4116
v 223.0312 -95.79717 -56.117
v 203.9749 -80.41736 -87.12801
v 107.3474 -50.56561 213.2429
v 115.0466 -65.44006 206.2335
v 76.84129 -81.51416 229.6662
v 78.42284 -65.20331 232.8275
v -191.8528 -39.16064 117.0446
v -225.041 -87.99976 75.08633
v -230.9956 -66.16192 69.71738
v -180.8507 -50.32183 127.3898
v -204.3564 -87.17834 64.1362
v -171.5121 -54.63965 113.0249
v 59.74116 -17.54248 201.488
v 67.08106 -28.87073 186.6725
v 44.50715 -85.07549 239.3474
v 43.57571 -67.91156 242.4458
v 56.90535 -15.76978 199.7149
v 67.08106 -28.87073 186.6725
v 59.74116 -17.54248 201.488
v 46.27727 -27.4256 189
v 54.14271 -39.20166 175.4479
v 51.06059 -37.45313 173.7493
v 78.42284 -65.20331 232.8275
v 46.27727 -27.4256 189
v 56.90535 -15.76978 199.7149
v 76.84129 -81.51416 229.6662
v 51.06059 -37.45313 173.7493
v 73.98723 -80.90777 212.7758
v -230.9956 -66.16192 69.71738
v -241.6365 -91.06299 10.95355
v -243.617 -74.73584 19.37439
v -225.041 -87.99976 75.08633
v -223.502 -90.36529 14.91794
v -204.3564 -87.17834 64.1362
v -234.1084 -62.34918 -13.89728
v -171.572 -19.25244 -23.39191
v -180.1341 -3.628662 -31.39541
v -226.2839 -74.70813 -11.16302
v -153.3663 -23.67334 -23.17959
v -213.8211 -76.80096 -6.555939
v -180.1341 -3.628662 -31.39541
v -219.299 -85.28217 -64.26498
v -221.7293 -68.40679 -68.14483
v -171.572 -19.25244 -23.39191
v -201.3919 -83.63262 -63.11731
v -153.3663 -23.67334 -23.17959
v -186.0941 -80.69482 -155.5845
v -190.258 -97.13611 -146.6778
v -149.5538 -104.0673 -189.9232
v -159.3614 -80.87292 -190.9897
v -196.9134 -55.49316 -120.4051
v -201.4014 -67.19598 -105.6275
v -190.258 -97.13611 -146.6778
v -186.0941 -80.69482 -155.5845
v -8.686733 -70.40289 236.7396
v -3.807744 -70.4522 219.7185
v -3.749811 -9.749695 159.5922
v -7.800177 -3.165894 181.5839
v 67.08106 -28.87073 186.6725
v 54.14271 -39.20166 175.4479
v 39.51858 -83.56641 222.2693
v 44.50715 -85.07549 239.3474
v 115.0466 -65.44006 206.2335
v 102.9118 -66.27007 193.1913
v 73.98723 -80.90777 212.7758
v 76.84129 -81.51416 229.6662
v 198.4001 -67.17932 126.3225
v 182.0731 -67.92315 121.0039
v 113.6198 -82.74011 199.4234
v 122.6925 -82.37445 211.6899
v 222.4415 -95.84722 -118.2389
v 204.1724 -95.36224 -112.2915
v 206.4419 -74.71973 -87.09146
v 224.0523 -70.79717 -87.39108
v 184.6557 -109.1617 -170.6697
v 170.8563 -108.0275 -152.0631
v 204.1724 -95.36224 -112.2915
v 222.4415 -95.84722 -118.2389
v 113.5497 -112.3051 -225.3816
v 100.7208 -110.9801 -205.8245
v 138.7986 -79.6012 -176.9551
v 153.442 -75.3681 -185.7646
v 58.30748 -113.9392 -243.9686
v 58.52911 -111.7891 -225.0172
v 100.7208 -110.9801 -205.8245
v 113.5497 -112.3051 -225.3816
v -6.936936 -72.76477 -234.5196
v -0.6099882 -75.51648 -217.9485
v 58.52911 -111.7891 -225.0172
v 58.30748 -113.9392 -243.9686
v 5.977221 -0.2286377 -168.1373
v 8.631656 -7.759705 -146.5084
v -0.6099882 -75.51648 -217.9485
v -6.936936 -72.76477 -234.5196
v -190.258 -97.13611 -146.6778
v -172.7221 -95.76226 -139.2858
v -137.3758 -103.8724 -167.4665
v -149.5538 -104.0673 -189.9232
v -201.4014 -67.19598 -105.6275
v -183.5414 -70.56049 -104.1064
v -172.7221 -95.76226 -139.2858
v -190.258 -97.13611 -146.6778
vt 0.163208 0.6518555
vt 0.1549072 0.6625977
vt 0.1602783 0.6533203
vt 0.1430664 0.6655273
vt 0.1469727 0.6601563
vt 0.1474609 0.652832
vt 0.1430664 0.6655273
vt 0.1474609 0.652832
vt 0.1403809 0.6552734
vt 0.135376 0.6601563
vt 0.1350098 0.6586914
vt 0.1306152 0.6538086
vt 0.1549072 0.6625977
vt 0.1518555 0.659668
vt 0.1546631 0.6533203
vt 0.1549072 0.6625977
vt 0.1546631 0.6533203
vt 0.159668 0.6547852
vt 0.1362305 0.6601563
vt 0.1313477 0.652832
vt 0.1337891 0.6557617
vt 0.135376 0.6601563
vt 0.1313477 0.652832
vt 0.1317139 0.6557617
vt 0.1298828 0.652832
vt 0.1417236 0.6674805
vt 0.1395264 0.6552734
vt 0.1401367 0.6567383
vt 0.1472168 0.6542969
vt 0.1467285 0.6606445
vt 0.1472168 0.6621094
vt 0.145874 0.6621094
vt 0.1452637 0.6547852
vt 0.1447754 0.6557617
vt 0.145752 0.6606445
vt 0.1455078 0.6542969
vt 0.1459961 0.659668
vt 0.145874 0.6621094
vt 0.145752 0.6606445
vt 0.1452637 0.6547852
vt 0.152832 0.6621094
vt 0.1547852 0.6547852
vt 0.1541748 0.65625
vt 0.1495361 0.6533203
vt 0.1491699 0.6533203
vt 0.1459961 0.6542969
vt 0.1495361 0.6533203
vt 0.1459961 0.6542969
vt 0.1456299 0.6542969
vt 0.1395264 0.6552734
vt 0.1403809 0.6552734
vt 0.1474609 0.652832
vt 0.1345215 0.6621094
vt 0.1405029 0.6782227
vt 0.1413574 0.6782227
vt 0.1329346 0.6621094
vt 0.1293945 0.6547852
vt 0.1322021 0.6572266
vt 0.130249 0.6572266
vt 0.128418 0.6542969
vt 0.1455078 0.6542969
vt 0.1459961 0.659668
vt 0.1362305 0.6601563
vt 0.1334229 0.6552734
vt 0.1568604 0.6645508
vt 0.1494141 0.6782227
vt 0.1518555 0.6782227
vt 0.152832 0.6621094
vt 0.1461182 0.6782227
vt 0.1556396 0.6547852
vt 0.1606445 0.65625
vt 0.152832 0.6621094
vt 0.145874 0.6621094
vt 0.1505127 0.6591797
vt 0.1520996 0.6547852
vt 0.1541748 0.65625
vt 0.1506348 0.6591797
vt 0.1463623 0.6557617
vt 0.1495361 0.6547852
vt 0.163208 0.6518555
vt 0.1572266 0.6586914
vt 0.1549072 0.6625977
vt 0.1625977 0.6523438
vt 0.1612549 0.6538086
vt 0.1555176 0.6582031
vt 0.1520996 0.6782227
vt 0.1499023 0.6782227
vt 0.1594238 0.6611328
vt 0.1568604 0.6547852
vt 0.1602783 0.652832
vt 0.1624756 0.6557617
vt 0.1622314 0.6538086
vt 0.1357422 0.6635742
vt 0.1437988 0.6782227
vt 0.1414795 0.6782227
vt 0.1417236 0.6674805
vt 0.1467285 0.6782227
vt 0.1472168 0.6621094
vt 0.1499023 0.6782227
vt 0.1472168 0.6542969
vt 0.1401367 0.6567383
vt 0.1346436 0.6538086
vt 0.138916 0.6557617
vt 0.1326904 0.6538086
vt 0.1318359 0.6557617
vt 0.1472168 0.6621094
vt 0.1555176 0.6582031
vt 0.1499023 0.6782227
vt 0.1542969 0.652832
vt 0.1568604 0.6547852
vt 0.151123 0.6523438
vt 0.1468506 0.6552734
vt 0.1329346 0.6621094
vt 0.1414795 0.6782227
vt 0.1405029 0.6782227
vt 0.1357422 0.6635742
vt 0.1330566 0.6606445
vt 0.1291504 0.6552734
vt 0.1322021 0.65625
vt 0.1300049 0.6547852
vt 0.145874 0.6621094
vt 0.1413574 0.6782227
vt 0.1461182 0.6782227
vt 0.1345215 0.6621094
vt 0.1324463 0.65625
vt 0.1447754 0.6557617
vt 0.1594238 0.6611328
vt 0.1518555 0.6782227
vt 0.1520996 0.6782227
vt 0.1568604 0.6645508
vt 0.1651611 0.6538086
vt 0.1617432 0.6547852
vt 0.1594238 0.6611328
vt 0.1627197 0.6547852
vt 0.1641846 0.6538086
vt 0.1651611 0.6538086
vt 0.1447754 0.6557617
vt 0.1324463 0.6552734
vt 0.1324463 0.65625
vt 0.1452637 0.6547852
vt 0.1334229 0.6552734
vt 0.1455078 0.6542969
vt 0.1651611 0.6538086
vt 0.1610107 0.6538086
vt 0.1617432 0.6547852
vt 0.164917 0.6518555
vt 0.1602783 0.6533203
vt 0.163208 0.6518555
vt 0.1469727 0.6601563
vt 0.1506348 0.6508789
vt 0.1462402 0.6542969
vt 0.1536865 0.6508789
vt 0.1536865 0.6508789
vt 0.1469727 0.6601563
vt 0.1544189 0.65625
vt 0.1564941 0.6538086
vt 0.135376 0.6601563
vt 0.1379395 0.6611328
vt 0.1350098 0.6586914
vt 0.133667 0.6547852
vt 0.1315918 0.6533203
vt 0.1379395 0.6611328
vt 0.133667 0.6523438
vt 0.1328125 0.6542969
vt 0.1362305 0.6513672
vt 0.1430664 0.6655273
vt 0.1362305 0.6513672
vt 0.1379395 0.6611328
vt 0.1400146 0.6542969
vt 0.1518555 0.659668
vt 0.1517334 0.6538086
vt 0.1538086 0.6547852
vt 0.1500244 0.6572266
vt 0.1500244 0.6572266
vt 0.1459961 0.659668
vt 0.1502686 0.6572266
vt 0.1459961 0.6542969
vt 0.1491699 0.6533203
vt 0.1588135 0.6513672
vt 0.161377 0.6542969
vt 0.1612549 0.6523438
vt 0.1572266 0.6586914
vt 0.1556396 0.6533203
vt 0.1544189 0.65625
vt 0.128418 0.6542969
vt 0.1306152 0.65625
vt 0.130249 0.6572266
vt 0.12854 0.652832
vt 0.1317139 0.6557617
vt 0.1298828 0.652832
vt 0.1300049 0.6547852
vt 0.1326904 0.6547852
vt 0.1322021 0.65625
vt 0.130249 0.6533203
vt 0.133667 0.6547852
vt 0.1315918 0.6533203
vt 0.1346436 0.6538086
vt 0.1400146 0.6547852
vt 0.138916 0.6557617
vt 0.135376 0.6513672
vt 0.1400146 0.6542969
vt 0.1362305 0.6513672
vt 0.1401367 0.6567383
vt 0.1473389 0.6533203
vt 0.1472168 0.6542969
vt 0.1395264 0.6552734
vt 0.1474609 0.652832
vt 0.1542969 0.652832
vt 0.1546631 0.6508789
vt 0.1575928 0.6542969
vt 0.1568604 0.6547852
vt 0.1622314 0.6538086
vt 0.1625977 0.6523438
vt 0.1627197 0.6542969
vt 0.1624756 0.6557617
vt 0.1606445 0.65625
vt 0.1608887 0.6547852
vt 0.1552734 0.6533203
vt 0.1556396 0.6547852
vt 0.1495361 0.6547852
vt 0.1495361 0.6533203
vt 0.1456299 0.6542969
vt 0.1463623 0.6557617
vt 0.1417236 0.6674805
vt 0.1424561 0.6660156
vt 0.1395264 0.6552734
vt 0.1403809 0.6552734
vt 0.1430664 0.6655273
vt 0.1472168 0.6542969
vt 0.1473389 0.6533203
vt 0.1467285 0.6606445
vt 0.1469727 0.6601563
vt 0.1474609 0.652832
vt 0.1617432 0.6547852
vt 0.15625 0.6630859
vt 0.1568604 0.6645508
vt 0.1610107 0.6538086
vt 0.1549072 0.6625977
vt 0.1602783 0.6533203
vt 0.1568604 0.6547852
vt 0.1551514 0.6567383
vt 0.1555176 0.6582031
vt 0.1575928 0.6542969
vt 0.1544189 0.65625
vt 0.1564941 0.6538086
vt 0.1324463 0.65625
vt 0.1351318 0.6606445
vt 0.1345215 0.6621094
vt 0.1324463 0.6552734
vt 0.1362305 0.6601563
vt 0.1334229 0.6552734
vt 0.1329346 0.6621094
vt 0.1297607 0.6542969
vt 0.1291504 0.6552734
vt 0.1337891 0.6606445
vt 0.1306152 0.6538086
vt 0.135376 0.6601563
vt 0.1322021 0.65625
vt 0.1363525 0.6621094
vt 0.1357422 0.6635742
vt 0.1326904 0.6547852
vt 0.1379395 0.6611328
vt 0.133667 0.6547852
vt 0.1556396 0.6547852
vt 0.1525879 0.6606445
vt 0.152832 0.6621094
vt 0.1552734 0.6533203
vt 0.1518555 0.659668
vt 0.1546631 0.6533203
vt 0.1624756 0.6557617
vt 0.1588135 0.659668
vt 0.1594238 0.6611328
vt 0.1627197 0.6542969
vt 0.1572266 0.6586914
vt 0.161377 0.6542969
vt 0.1568604 0.6645508
vt 0.1608887 0.6547852
vt 0.1606445 0.65625
vt 0.15625 0.6630859
vt 0.159668 0.6547852
vt 0.1549072 0.6625977
vt 0.152832 0.6621094
vt 0.1525879 0.6606445
vt 0.1547852 0.6547852
vt 0.1538086 0.6547852
vt 0.1518555 0.659668
vt 0.1463623 0.6557617
vt 0.1456299 0.6542969
vt 0.145752 0.6606445
vt 0.145874 0.6621094
vt 0.1345215 0.6621094
vt 0.1330566 0.65625
vt 0.1322021 0.6572266
vt 0.1351318 0.6606445
vt 0.1337891 0.6557617
vt 0.1362305 0.6601563
vt 0.130249 0.6572266
vt 0.1337891 0.6606445
vt 0.1329346 0.6621094
vt 0.1306152 0.65625
vt 0.135376 0.6601563
vt 0.1317139 0.6557617
vt 0.1357422 0.6635742
vt 0.1315918 0.6547852
vt 0.1318359 0.6557617
vt 0.1363525 0.6621094
vt 0.1328125 0.6542969
vt 0.1379395 0.6611328
vt 0.138916 0.6557617
vt 0.1424561 0.6660156
vt 0.1417236 0.6674805
vt 0.1400146 0.6547852
vt 0.1430664 0.6655273
vt 0.1400146 0.6542969
vt 0.1472168 0.6621094
vt 0.1467285 0.6606445
vt 0.145752 0.6542969
vt 0.1468506 0.6552734
vt 0.1555176 0.6582031
vt 0.1558838 0.6533203
vt 0.1568604 0.6547852
vt 0.1551514 0.6567383
vt 0.1556396 0.6533203
vt 0.1544189 0.65625
vt 0.1594238 0.6611328
vt 0.1621094 0.6538086
vt 0.1627197 0.6547852
vt 0.1588135 0.659668
vt 0.1612549 0.6538086
vt 0.1572266 0.6586914
vt 0.1568604 0.6547852
vt 0.15979 0.6508789
vt 0.1602783 0.652832
vt 0.1558838 0.6533203
vt 0.1588135 0.6513672
vt 0.1556396 0.6533203
vt 0.151123 0.6523438
vt 0.1506348 0.6508789
vt 0.1546631 0.6508789
vt 0.1542969 0.652832
vt 0.1468506 0.6552734
vt 0.145752 0.6542969
vt 0.1506348 0.6508789
vt 0.151123 0.6523438
vt 0.1602783 0.652832
vt 0.15979 0.6508789
vt 0.1625977 0.6523438
vt 0.1622314 0.6538086
vt 0.1641846 0.6538086
vt 0.164917 0.6518555
vt 0.1651611 0.6538086
vt 0.1639404 0.6518555
vt 0.163208 0.6518555
vt 0.1625977 0.6523438
vt 0.1627197 0.6547852
vt 0.1639404 0.6518555
vt 0.1641846 0.6538086
vt 0.1621094 0.6538086
vt 0.1625977 0.6523438
vt 0.1612549 0.6538086
vt 0.1541748 0.65625
vt 0.1547852 0.6547852
vt 0.1519775 0.6533203
vt 0.1520996 0.6547852
vt 0.1322021 0.6572266
vt 0.1297607 0.652832
vt 0.1293945 0.6547852
vt 0.1330566 0.65625
vt 0.1313477 0.652832
vt 0.1337891 0.6557617
vt 0.1506348 0.6591797
vt 0.1512451 0.6582031
vt 0.1495361 0.6533203
vt 0.1495361 0.6547852
vt 0.1505127 0.6591797
vt 0.1512451 0.6582031
vt 0.1506348 0.6591797
vt 0.1496582 0.6582031
vt 0.1502686 0.6572266
vt 0.1500244 0.6572266
vt 0.1520996 0.6547852
vt 0.1496582 0.6582031
vt 0.1505127 0.6591797
vt 0.1519775 0.6533203
vt 0.1500244 0.6572266
vt 0.1517334 0.6538086
vt 0.1293945 0.6547852
vt 0.12854 0.652832
vt 0.128418 0.6542969
vt 0.1297607 0.652832
vt 0.1298828 0.652832
vt 0.1313477 0.652832
vt 0.1291504 0.6552734
vt 0.1337891 0.6591797
vt 0.1330566 0.6606445
vt 0.1297607 0.6542969
vt 0.1350098 0.6586914
vt 0.1306152 0.6538086
vt 0.1330566 0.6606445
vt 0.130249 0.6533203
vt 0.1300049 0.6547852
vt 0.1337891 0.6591797
vt 0.1315918 0.6533203
vt 0.1350098 0.6586914
vt 0.1326904 0.6538086
vt 0.1323242 0.6523438
vt 0.135376 0.6513672
vt 0.1346436 0.6538086
vt 0.1318359 0.6557617
vt 0.1315918 0.6547852
vt 0.1323242 0.6523438
vt 0.1326904 0.6538086
vt 0.1456299 0.6542969
vt 0.1459961 0.6542969
vt 0.1459961 0.659668
vt 0.145752 0.6606445
vt 0.1512451 0.6582031
vt 0.1502686 0.6572266
vt 0.1491699 0.6533203
vt 0.1495361 0.6533203
vt 0.1547852 0.6547852
vt 0.1538086 0.6547852
vt 0.1517334 0.6538086
vt 0.1519775 0.6533203
vt 0.1608887 0.6547852
vt 0.159668 0.6547852
vt 0.1546631 0.6533203
vt 0.1552734 0.6533203
vt 0.1625977 0.6523438
vt 0.1612549 0.6523438
vt 0.161377 0.6542969
vt 0.1627197 0.6542969
vt 0.15979 0.6508789
vt 0.1588135 0.6513672
vt 0.1612549 0.6523438
vt 0.1625977 0.6523438
vt 0.1546631 0.6508789
vt 0.1536865 0.6508789
vt 0.1564941 0.6538086
vt 0.1575928 0.6542969
vt 0.1506348 0.6508789
vt 0.1506348 0.6508789
vt 0.1536865 0.6508789
vt 0.1546631 0.6508789
vt 0.145752 0.6542969
vt 0.1462402 0.6542969
vt 0.1506348 0.6508789
vt 0.1506348 0.6508789
vt 0.1467285 0.6606445
vt 0.1469727 0.6601563
vt 0.1462402 0.6542969
vt 0.145752 0.6542969
vt 0.1323242 0.6523438
vt 0.133667 0.6523438
vt 0.1362305 0.6513672
vt 0.135376 0.6513672
vt 0.1315918 0.6547852
vt 0.1328125 0.6542969
vt 0.133667 0.6523438
vt 0.1323242 0.6523438
vn -0.7456055 -0.6655273 -0.03271484
vn -0.7490234 -0.6611328 -0.04064941
vn -0.7490234 -0.6611328 -0.04064941
vn 0.1125488 -0.6469727 0.7543945
vn 0.1125488 -0.6469727 0.7543945
vn 0.1125488 -0.6469727 0.7543945
vn 0.1125488 -0.6469727 0.7543945
vn 0.1125488 -0.6469727 0.7543945
vn 0.1125488 -0.6469727 0.7543945
vn 0.7197266 -0.6235352 0.3051758
vn 0.7192383 -0.6621094 0.2108154
vn 0.7197266 -0.6235352 0.3051758
vn -0.4716797 -0.6630859 -0.5810547
vn -0.4716797 -0.6630859 -0.5810547
vn -0.4716797 -0.6630859 -0.5810547
vn -0.4716797 -0.6630859 -0.5810547
vn -0.4716797 -0.6630859 -0.5810547
vn -0.4716797 -0.6630859 -0.5810547
vn 0.7680664 -0.6318359 -0.1032104
vn 0.7426758 -0.6523438 -0.151123
vn 0.7680664 -0.6318359 -0.1032104
vn 0.7436523 -0.6518555 -0.1494141
vn 0.7426758 -0.6523438 -0.151123
vn 0.6972656 -0.6806641 -0.2259521
vn 0.6967773 -0.6806641 -0.2260742
vn -0.9614258 0.07421875 0.2641602
vn -0.9243164 0.005378723 0.3820801
vn -0.9614258 0.07421875 0.2641602
vn 0.9887695 -0.05023193 0.1391602
vn 0.9975586 0.06292725 0.02474976
vn 0.9887695 -0.05023193 0.1391602
vn 0.9589844 0.04388428 0.2807617
vn 0.9741211 0.03948975 0.2229004
vn 0.9589844 0.04391479 0.2807617
vn 0.9736328 0.03955078 0.223999
vn 0.9853516 0.03515625 0.1671143
vn 0.9853516 0.03518677 0.1672363
vn 0.9589844 0.04388428 0.2807617
vn 0.9736328 0.03955078 0.223999
vn 0.9741211 0.03948975 0.2229004
vn 0.9560547 0.2429199 -0.1639404
vn 0.9208984 0.08770752 -0.3798828
vn 0.9560547 0.2429199 -0.1639404
vn -0.2451172 -0.7338867 0.6337891
vn -0.2744141 -0.9609375 -0.04025269
vn -0.2744141 -0.9609375 -0.04025269
vn -0.2451172 -0.7338867 0.6337891
vn -0.2744141 -0.9609375 -0.04025269
vn -0.2481689 -0.7475586 0.6162109
vn -0.387207 -0.7885742 -0.4775391
vn -0.2167969 -0.9755859 0.04101563
vn -0.2167969 -0.9755859 0.04104614
vn -0.8222656 0.5297852 0.2081299
vn -0.8701172 0.4921875 -0.02630615
vn -0.8510742 0.4838867 0.2030029
vn -0.8564453 0.515625 -0.000472784
vn -0.7875977 0.5922852 0.1691895
vn -0.7700195 0.6005859 0.2150879
vn -0.8173828 0.5708008 0.07531738
vn -0.8173828 0.5708008 0.07531738
vn 0.4116211 -0.6269531 -0.6611328
vn 0.4116211 -0.6269531 -0.6611328
vn 0.4116211 -0.6269531 -0.6611328
vn 0.4116211 -0.6269531 -0.6611328
vn 0.6074219 0.5126953 0.6069336
vn 0.4040527 0.4997559 0.7661133
vn 0.6328125 0.4716797 0.6142578
vn 0.4267578 0.5395508 0.7255859
vn 0.1716309 0.4926758 0.8530273
vn 0.5600586 0.5800781 0.5917969
vn 0.5600586 0.5800781 0.5917969
vn 0.427002 0.5395508 0.7255859
vn 0.1688232 0.5107422 0.8427734
vn 0.1837158 0.5771484 0.7958984
vn 0.1871338 0.5795898 0.7929688
vn 0.1870117 0.5795898 0.7929688
vn 0.1544189 0.5800781 0.7998047
vn 0.1523438 0.5810547 0.7993164
vn 0.1523438 0.5810547 0.7993164
vn -0.7456055 -0.6655273 -0.03271484
vn -0.746582 -0.6645508 -0.03396606
vn -0.7490234 -0.6611328 -0.04064941
vn -0.706543 -0.7055664 0.05078125
vn -0.706543 -0.7055664 0.05081177
vn 0.6606445 0.515625 -0.5454102
vn 0.6865234 0.4924316 -0.5351563
vn 0.6865234 0.4924316 -0.5351563
vn 0.6767578 0.5039063 -0.5371094
vn 0.6083984 0.559082 -0.5629883
vn 0.6157227 0.5639648 -0.550293
vn 0.6367188 0.5771484 -0.5112305
vn 0.6367188 0.5771484 -0.5112305
vn -0.5620117 0.5390625 -0.6269531
vn -0.4160156 0.4362793 -0.7978516
vn -0.5507813 0.4328613 -0.7133789
vn -0.3955078 0.4824219 -0.7817383
vn 0.01681519 0.4758301 -0.8793945
vn 0.00793457 0.5244141 -0.8515625
vn 0.1916504 0.4821777 -0.8549805
vn -0.1959229 0.5585938 -0.8061523
vn -0.1959229 0.5585938 -0.8061523
vn -0.5522461 0.5766602 -0.6020508
vn -0.4562988 0.5805664 -0.6743164
vn -0.6391602 0.5498047 -0.5375977
vn -0.6391602 0.5498047 -0.5375977
vn 0.007957458 0.5244141 -0.8515625
vn 0.2137451 0.5195313 -0.8276367
vn 0.1916504 0.4821777 -0.8549805
vn 0.2242432 0.5595703 -0.7978516
vn 0.2387695 0.5605469 -0.7929688
vn 0.2069092 0.5585938 -0.8032227
vn 0.2069092 0.5585938 -0.8032227
vn -0.8564453 0.515625 -0.000472784
vn -0.8378906 0.4716797 -0.2744141
vn -0.8701172 0.4921875 -0.02630615
vn -0.8286133 0.4963379 -0.2583008
vn -0.8046875 0.5336914 -0.2609863
vn -0.8041992 0.4611816 -0.3747559
vn -0.7978516 0.5703125 -0.1940918
vn -0.7978516 0.5703125 -0.1940918
vn -0.4724121 0.4804688 0.7387695
vn -0.4794922 0.4516602 0.7524414
vn -0.4794922 0.4516602 0.7524414
vn -0.4724121 0.4802246 0.7387695
vn -0.4621582 0.519043 0.7192383
vn -0.4621582 0.519043 0.7192383
vn 0.8364258 0.5429688 0.07556152
vn 0.8989258 0.4304199 0.08068848
vn 0.8989258 0.4304199 0.08068848
vn 0.8422852 0.5317383 0.08795166
vn 0.7773438 0.625 0.06976318
vn 0.7719727 0.6289063 0.09429932
vn 0.8364258 0.5429688 0.07562256
vn 0.8027344 0.543457 -0.2449951
vn 0.8027344 0.543457 -0.2451172
vn 0.7773438 0.625 0.06976318
vn -0.5102539 -0.4445801 0.7363281
vn -0.3625488 -0.7875977 0.4980469
vn -0.5102539 -0.4445801 0.7363281
vn -0.3647461 -0.784668 0.5014648
vn -0.05493164 -0.9980469 0.02838135
vn -0.05496216 -0.9980469 0.02841187
vn 0.909668 -0.2678223 0.317627
vn 0.5854492 -0.7568359 0.2905273
vn 0.909668 -0.2678223 0.317627
vn 0.6474609 -0.7001953 0.3010254
vn 0.07348633 -0.9833984 0.1669922
vn 0.07348633 -0.9833984 0.1669922
vn -0.2597656 -0.6459961 0.7177734
vn -0.3134766 -0.6630859 0.6796875
vn -0.3134766 -0.6630859 0.6796875
vn -0.2344971 -0.637207 0.7338867
vn -0.2344971 -0.637207 0.7338867
vn -0.2597656 -0.6459961 0.7177734
vn -0.1500244 -0.6035156 0.7827148
vn -0.1500244 -0.6035156 0.7827148
vn 0.7197266 -0.6235352 0.3051758
vn 0.7172852 -0.6728516 0.180542
vn 0.7192383 -0.6621094 0.2108154
vn 0.7163086 -0.6767578 0.1695557
vn 0.7163086 -0.6767578 0.1695557
vn 0.5400391 -0.6176758 0.5717773
vn 0.4001465 -0.6582031 0.6376953
vn 0.4001465 -0.6582031 0.6376953
vn 0.5249023 -0.6333008 0.5688477
vn 0.590332 -0.6049805 0.5341797
vn 0.5249023 -0.6333008 0.5688477
vn 0.5395508 -0.6176758 0.5717773
vn 0.628418 -0.6054688 0.4882813
vn -0.1418457 -0.6972656 -0.7026367
vn -0.1262207 -0.7006836 -0.7021484
vn -0.1262207 -0.7006836 -0.7021484
vn -0.1390381 -0.6977539 -0.7026367
vn -0.1390381 -0.6977539 -0.7026367
vn -0.1641846 -0.6923828 -0.7026367
vn -0.1635742 -0.6923828 -0.7026367
vn -0.1634521 -0.6923828 -0.7026367
vn -0.1634521 -0.6923828 -0.7026367
vn -0.5639648 -0.6513672 0.5078125
vn -0.4265137 -0.6884766 0.5864258
vn -0.4265137 -0.6884766 0.5864258
vn -0.5458984 -0.6577148 0.5195313
vn -0.6254883 -0.6269531 0.4643555
vn -0.6254883 -0.6269531 0.4643555
vn -0.8803711 0.1390381 -0.4533691
vn -0.4760742 -0.4345703 -0.7646484
vn -0.8803711 0.1391602 -0.4533691
vn -0.515625 -0.401123 -0.7573242
vn 0.182251 -0.7475586 -0.6386719
vn 0.182251 -0.7475586 -0.6386719
vn -0.8251953 -0.2316895 -0.5151367
vn -0.4365234 -0.7700195 -0.4655762
vn -0.8251953 -0.2316895 -0.5151367
vn -0.4682617 -0.7446289 -0.4750977
vn 0.1226196 -0.9672852 -0.222168
vn 0.1226196 -0.9672852 -0.22229
vn -0.2692871 -0.1641846 -0.9487305
vn 0.1009521 -0.6870117 -0.7197266
vn -0.2692871 -0.1643066 -0.9487305
vn 0.08526611 -0.6704102 -0.7373047
vn 0.4072266 -0.890625 -0.201416
vn 0.4072266 -0.890625 -0.2015381
vn -0.4294434 -0.3481445 -0.8334961
vn -0.3947754 -0.7646484 -0.5092773
vn -0.4294434 -0.3481445 -0.8334961
vn -0.387207 -0.7885742 -0.4775391
vn -0.2167969 -0.9755859 0.04104614
vn 0.7353516 -0.08050537 -0.6728516
vn 0.765625 -0.6079102 -0.2109375
vn 0.7646484 -0.6098633 -0.2080078
vn 0.7353516 -0.08044434 -0.6728516
vn 0.9731445 0.1416016 -0.1827393
vn 0.8603516 -0.4223633 0.2849121
vn 0.8349609 -0.453125 0.3115234
vn 0.9726563 0.1416016 -0.1828613
vn 0.7402344 -0.3151855 0.59375
vn 0.5258789 -0.7885742 0.3183594
vn 0.5356445 -0.777832 0.3288574
vn 0.7402344 -0.3151855 0.59375
vn -0.09942627 -0.1630859 0.9814453
vn -0.2451172 -0.7338867 0.6337891
vn -0.2481689 -0.7475586 0.6162109
vn -0.09942627 -0.1630859 0.9814453
vn -0.9614258 0.07421875 0.2641602
vn -0.9228516 0.00387764 0.3845215
vn -0.9243164 0.005378723 0.3820801
vn -0.8740234 -0.05703735 0.4821777
vn -0.8740234 -0.05706787 0.4821777
vn 0.9887695 -0.05023193 0.1391602
vn 0.9980469 0.05456543 0.03326416
vn 0.9975586 0.06292725 0.02474976
vn 0.9819336 0.1688232 -0.08447266
vn 0.9819336 0.1688232 -0.08447266
vn -0.385498 0.2105713 0.8984375
vn -0.4528809 0.1739502 0.8745117
vn -0.385498 0.2105713 0.8984375
vn -0.4538574 0.1734619 0.8740234
vn -0.5087891 0.1414795 0.8491211
vn -0.5087891 0.1414795 0.8491211
vn 0.7592773 0.4641113 0.4562988
vn 0.6865234 0.395752 0.6098633
vn 0.7592773 0.4641113 0.4562988
vn 0.6855469 0.3950195 0.6113281
vn 0.6088867 0.3291016 0.7216797
vn 0.6088867 0.3291016 0.7216797
vn -0.6928711 0.07519531 -0.7172852
vn -0.6367188 0.05718994 -0.769043
vn -0.6928711 0.07519531 -0.7172852
vn -0.6337891 0.05627441 -0.7714844
vn -0.5795898 0.03967285 -0.8139648
vn -0.5795898 0.03967285 -0.8139648
vn -0.1089478 -0.03887939 0.9931641
vn -0.1403809 0.01368713 0.9902344
vn -0.1089478 -0.03884888 0.9931641
vn -0.1425781 0.01725769 0.9897461
vn -0.1759033 0.07409668 0.9814453
vn -0.1759033 0.07409668 0.9814453
vn 0.432373 0.1516113 -0.8886719
vn 0.498291 0.1211548 -0.8583984
vn 0.432373 0.1516113 -0.8886719
vn 0.4946289 0.1228638 -0.8603516
vn 0.5551758 0.09307861 -0.8266602
vn 0.5551758 0.09307861 -0.8266602
vn -0.8310547 -0.06240845 0.5527344
vn -0.8344727 -0.04296875 0.5498047
vn -0.8310547 -0.06237793 0.5532227
vn -0.8339844 -0.0435791 0.5498047
vn -0.8374023 -0.02336121 0.5458984
vn -0.8374023 -0.02333069 0.5458984
vn 0.671875 0.3291016 0.6635742
vn 0.4545898 0.1164551 0.8828125
vn 0.671875 0.3291016 0.6635742
vn 0.4726563 0.1324463 0.8710938
vn 0.2164307 -0.07971191 0.9731445
vn 0.2163086 -0.07971191 0.9731445
vn 0.7675781 0.1955566 -0.6108398
vn 0.5981445 0.02389526 -0.8007813
vn 0.7675781 0.1955566 -0.6108398
vn 0.59375 0.02011108 -0.8041992
vn 0.3828125 -0.1429443 -0.9125977
vn 0.3828125 -0.1429443 -0.9125977
vn 0.9560547 0.2429199 -0.1639404
vn 0.9179688 0.08062744 -0.388916
vn 0.9208984 0.08770752 -0.3798828
vn 0.8154297 -0.07836914 -0.5732422
vn 0.8154297 -0.07836914 -0.5732422
vn -0.9394531 0.1813965 0.2902832
vn -0.9985352 0.00970459 0.05380249
vn -0.9990234 0.004016876 0.04589844
vn -0.9394531 0.1813965 0.2902832
vn 0.2280273 0.4020996 0.8867188
vn 0.5273438 0.2183838 0.8212891
vn 0.2280273 0.4020996 0.8867188
vn 0.5361328 0.2116699 0.8168945
vn 0.7402344 0.02844238 0.671875
vn 0.7402344 0.02844238 0.671875
vn -0.123291 0.4360352 -0.8916016
vn 0.1337891 0.2629395 -0.9555664
vn -0.123291 0.4360352 -0.8916016
vn 0.1199341 0.2731934 -0.9545898
vn 0.34375 0.09332275 -0.9345703
vn 0.34375 0.09332275 -0.9345703
vn -0.7290039 0.317627 0.605957
vn -0.5625 0.1398926 0.8149414
vn -0.7290039 0.317627 0.605957
vn -0.5493164 0.1275635 0.8256836
vn -0.3398438 -0.05032349 0.9389648
vn -0.3400879 -0.05032349 0.9389648
vn 0.5639648 0.3786621 -0.7338867
vn 0.8525391 0.1340332 -0.5048828
vn 0.5639648 0.378418 -0.7338867
vn 0.8393555 0.1501465 -0.5224609
vn 0.9711914 -0.1109009 -0.2113037
vn 0.9711914 -0.1109009 -0.2113037
vn -0.8496094 0.3930664 -0.3513184
vn -0.984375 0.166748 -0.0557251
vn -0.9780273 0.1901855 -0.08520508
vn -0.8496094 0.3930664 -0.3513184
vn -0.4379883 0.1499023 -0.8862305
vn -0.7646484 -0.02909851 -0.644043
vn -0.4379883 0.1499023 -0.8862305
vn -0.7358398 -0.009735107 -0.6767578
vn -0.9116211 -0.1599121 -0.3789063
vn -0.9116211 -0.1599121 -0.3789063
vn -0.1286621 0.1828613 -0.9746094
vn -0.3308105 0.04525757 -0.9423828
vn -0.1286621 0.1828613 -0.9746094
vn -0.3325195 0.04403687 -0.9418945
vn -0.5014648 -0.08587646 -0.8608398
vn -0.5014648 -0.08581543 -0.8608398
vn 0.380127 -0.08270264 -0.9213867
vn -0.009681702 -0.6713867 -0.7407227
vn 0.380127 -0.08270264 -0.9213867
vn -0.02600098 -0.6884766 -0.7246094
vn -0.3886719 -0.9038086 -0.1795654
vn -0.3886719 -0.9038086 -0.1795654
vn 0.3071289 -0.2075195 -0.9287109
vn 0.1888428 -0.8276367 -0.5288086
vn 0.1955566 -0.8120117 -0.5498047
vn 0.3071289 -0.2075195 -0.9287109
vn -0.1431885 -0.01899719 -0.9897461
vn -0.465332 -0.6108398 -0.640625
vn -0.4602051 -0.5996094 -0.6547852
vn -0.1431885 -0.01899719 -0.9897461
vn 0.8325195 -0.1591797 -0.5302734
vn 0.6064453 -0.7670898 -0.208252
vn 0.5991211 -0.7749023 -0.2010498
vn 0.8325195 -0.1591797 -0.5302734
vn 0.949707 -0.1427002 -0.2783203
vn 0.6210938 -0.7412109 -0.2548828
vn 0.949707 -0.1428223 -0.2783203
vn 0.5844727 -0.7724609 -0.248291
vn -0.1018677 -0.9912109 -0.08319092
vn -0.1018677 -0.9912109 -0.08319092
vn 0.8344727 -0.01408386 -0.5512695
vn 0.4260254 -0.6542969 -0.625
vn 0.8344727 -0.01408386 -0.5512695
vn 0.3969727 -0.6777344 -0.6186523
vn -0.2683105 -0.9121094 -0.3098145
vn -0.2683105 -0.9121094 -0.3098145
vn 0.5805664 -0.1472168 0.8007813
vn 0.581543 -0.7060547 0.4035645
vn 0.5883789 -0.6850586 0.4294434
vn 0.5805664 -0.1473389 0.8007813
vn -0.7441406 -0.06567383 0.6650391
vn -0.3427734 -0.6064453 0.7172852
vn -0.7441406 -0.06567383 0.6650391
vn -0.3154297 -0.6289063 0.7109375
vn 0.2495117 -0.8740234 0.416748
vn 0.2495117 -0.8740234 0.416748
vn 0.9174805 0.0161438 0.3979492
vn 0.9467773 -0.3166504 0.05587769
vn 0.9501953 -0.3032227 0.07147217
vn 0.9174805 0.01612854 0.3979492
vn 0.08428955 0.7353516 -0.6728516
vn 0.08581543 0.7553711 -0.6494141
vn 0.08428955 0.7353516 -0.6728516
vn 0.0859375 0.7568359 -0.6479492
vn 0.08740234 0.7763672 -0.6240234
vn 0.08740234 0.7763672 -0.6240234
vn -0.7890625 0.04013062 0.6132813
vn -0.9057617 -0.2113037 0.3676758
vn -0.7890625 0.04013062 0.6132813
vn -0.9018555 -0.1964111 0.3845215
vn -0.8984375 -0.4331055 0.07299805
vn -0.8984375 -0.4331055 0.07299805
vn -0.9404297 -0.2165527 0.2619629
vn -0.5771484 -0.7929688 0.1956787
vn -0.9404297 -0.2165527 0.2619629
vn -0.5742188 -0.7954102 0.1950684
vn 0.04632568 -0.9980469 0.04043579
vn 0.0463562 -0.9980469 0.04043579
vn 0.07580566 -0.3181152 -0.9448242
vn 0.07653809 -0.324707 -0.9428711
vn 0.07580566 -0.3181152 -0.9448242
vn 0.07641602 -0.3237305 -0.9428711
vn 0.07727051 -0.3317871 -0.9399414
vn 0.07727051 -0.3317871 -0.9404297
vn -0.684082 0.03494263 0.7285156
vn -0.4438477 -0.2288818 0.8662109
vn -0.684082 0.03494263 0.7285156
vn -0.4086914 -0.2602539 0.875
vn -0.07086182 -0.4997559 0.8632813
vn -0.07086182 -0.4997559 0.8632813
vn -0.7446289 -0.2607422 -0.6147461
vn -0.5048828 -0.8125 -0.2912598
vn -0.5087891 -0.8085938 -0.2954102
vn -0.7446289 -0.2607422 -0.6147461
vn -0.9526367 0.03848267 -0.3022461
vn -0.8066406 -0.5639648 0.1755371
vn -0.831543 -0.5356445 0.1478271
vn -0.9526367 0.03845215 -0.3022461
vn -0.9985352 0.00970459 0.05380249
vn -0.9667969 -0.166748 -0.1929932
vn -0.9667969 -0.166748 -0.1929932
vn -0.9990234 0.004016876 0.04589844
vn 0.9467773 -0.3166504 0.05587769
vn 0.7587891 -0.578125 -0.3005371
vn 0.7587891 -0.578125 -0.3005371
vn 0.9501953 -0.3032227 0.07147217
vn 0.581543 -0.7060547 0.4035645
vn 0.3261719 -0.9321289 -0.1563721
vn 0.3261719 -0.9321289 -0.1563721
vn 0.5883789 -0.6850586 0.4294434
vn 0.5258789 -0.7885742 0.3183594
vn 0.1049805 -0.9902344 -0.08911133
vn 0.1049805 -0.9902344 -0.08911133
vn 0.5356445 -0.777832 0.3288574
vn 0.8603516 -0.4223633 0.2849121
vn 0.1804199 -0.7685547 0.6137695
vn 0.180542 -0.7685547 0.6137695
vn 0.8349609 -0.453125 0.3115234
vn 0.6064453 -0.7670898 -0.208252
vn 0.1013184 -0.9750977 0.1966553
vn 0.1013184 -0.9750977 0.1966553
vn 0.5991211 -0.7749023 -0.2010498
vn 0.765625 -0.6079102 -0.2109375
vn 0.435791 -0.8349609 0.3364258
vn 0.435791 -0.8349609 0.3364258
vn 0.7646484 -0.6098633 -0.2080078
vn 0.1888428 -0.8276367 -0.5288086
vn -0.008758545 -0.9960938 0.08703613
vn -0.008766174 -0.9960938 0.08703613
vn 0.1955566 -0.8120117 -0.5498047
vn -0.465332 -0.6108398 -0.640625
vn -0.519043 -0.8510742 0.08123779
vn -0.519043 -0.8510742 0.08129883
vn -0.4602051 -0.5996094 -0.6547852
vn -0.984375 0.166748 -0.0557251
vn -0.9750977 -0.05636597 0.2141113
vn -0.9750977 -0.05633545 0.2141113
vn -0.9780273 0.1901855 -0.08520508
vn -0.5048828 -0.8125 -0.2912598
vn -0.0758667 -0.9887695 0.1274414
vn -0.0758667 -0.9887695 0.1274414
vn -0.5087891 -0.8085938 -0.2954102
vn -0.8066406 -0.5639648 0.1755371
vn -0.1824951 -0.8208008 0.5410156
vn -0.1824951 -0.8208008 0.5410156
vn -0.831543 -0.5356445 0.1478271
g PT_01_Canopy_02_0
f 3/3/3 2/2/2 1/1/1
f 6/6/6 5/5/5 4/4/4
f 9/9/9 8/8/8 7/7/7
f 12/12/12 11/11/11 10/10/10
f 15/15/15 14/14/14 13/13/13
f 18/18/18 17/17/17 16/16/16
f 21/21/21 20/20/20 19/19/19
f 23/23/23 22/22/22 19/19/19
f 24/24/24 22/22/22 23/23/23
f 25/25/25 24/24/24 23/23/23
f 28/28/28 27/27/27 26/26/26
f 31/31/31 30/30/30 29/29/29
f 34/34/34 33/33/33 32/32/32
f 33/33/33 36/36/36 35/35/35
f 36/36/36 37/37/37 35/35/35
f 40/40/40 39/39/39 38/38/38
f 43/43/43 42/42/42 41/41/41
f 46/46/46 45/45/45 44/44/44
f 49/49/49 48/48/48 47/47/47
f 52/52/52 51/51/51 50/50/50
f 55/55/55 54/54/54 53/53/53
f 54/54/54 56/56/56 53/53/53
f 56/56/56 57/57/57 53/53/53
f 57/57/57 58/58/58 53/53/53
f 56/56/56 59/59/59 57/57/57
f 59/59/59 60/60/60 57/57/57
f 63/63/63 62/62/62 61/61/61
f 64/64/64 63/63/63 61/61/61
f 67/67/67 66/66/66 65/65/65
f 66/66/66 68/68/68 65/65/65
f 66/66/66 69/69/69 68/68/68
f 68/68/68 70/70/70 65/65/65
f 70/70/70 71/71/71 65/65/65
f 69/69/69 73/73/73 72/72/72
f 72/72/72 73/73/73 74/74/74
f 74/74/74 75/75/75 72/72/72
f 75/75/75 76/76/76 72/72/72
f 73/73/73 77/77/77 74/74/74
f 73/73/73 78/78/78 77/77/77
f 78/78/78 79/79/79 77/77/77
f 82/82/82 81/81/81 80/80/80
f 83/83/83 80/80/80 81/81/81
f 84/84/84 83/83/83 81/81/81
f 87/87/87 86/86/86 85/85/85
f 86/86/86 88/88/88 85/85/85
f 89/89/89 85/85/85 88/88/88
f 90/90/90 89/89/89 88/88/88
f 88/88/88 91/91/91 90/90/90
f 91/91/91 92/92/92 90/90/90
f 95/95/95 94/94/94 93/93/93
f 94/94/94 96/96/96 93/93/93
f 94/94/94 97/97/97 96/96/96
f 97/97/97 98/98/98 96/96/96
f 97/97/97 99/99/99 98/98/98
f 98/98/98 100/100/100 96/96/96
f 100/100/100 101/101/101 96/96/96
f 102/102/102 93/93/93 96/96/96
f 96/96/96 103/103/103 102/102/102
f 102/102/102 104/104/104 93/93/93
f 104/104/104 105/105/105 93/93/93
f 108/108/108 107/107/107 106/106/106
f 106/106/106 107/107/107 109/109/109
f 107/107/107 110/110/110 109/109/109
f 109/109/109 111/111/111 106/106/106
f 111/111/111 112/112/112 106/106/106
f 115/115/115 114/114/114 113/113/113
f 114/114/114 116/116/116 113/113/113
f 116/116/116 117/117/117 113/113/113
f 117/117/117 118/118/118 113/113/113
f 116/116/116 119/119/119 117/117/117
f 119/119/119 120/120/120 117/117/117
f 123/123/123 122/122/122 121/121/121
f 122/122/122 124/124/124 121/121/121
f 124/124/124 125/125/125 121/121/121
f 125/125/125 126/126/126 121/121/121
f 129/129/129 128/128/128 127/127/127
f 128/128/128 130/130/130 127/127/127
f 127/127/127 130/130/130 131/131/131
f 130/130/130 132/132/132 131/131/131
f 135/135/135 134/134/134 133/133/133
f 136/136/136 135/135/135 133/133/133
f 139/139/139 138/138/138 137/137/137
f 138/138/138 140/140/140 137/137/137
f 138/138/138 141/141/141 140/140/140
f 141/141/141 142/142/142 140/140/140
f 145/145/145 144/144/144 143/143/143
f 144/144/144 146/146/146 143/143/143
f 144/144/144 147/147/147 146/146/146
f 147/147/147 148/148/148 146/146/146
f 151/151/151 150/150/150 149/149/149
f 150/150/150 152/152/152 149/149/149
f 155/155/155 154/154/154 153/153/153
f 156/156/156 155/155/155 153/153/153
f 159/159/159 158/158/158 157/157/157
f 160/160/160 158/158/158 159/159/159
f 161/161/161 160/160/160 159/159/159
f 164/164/164 163/163/163 162/162/162
f 163/163/163 165/165/165 162/162/162
f 168/168/168 167/167/167 166/166/166
f 169/169/169 166/166/166 167/167/167
f 172/172/172 171/171/171 170/170/170
f 171/171/171 173/173/173 170/170/170
f 175/175/175 170/170/170 174/174/174
f 176/176/176 175/175/175 174/174/174
f 177/177/177 175/175/175 176/176/176
f 178/178/178 177/177/177 176/176/176
f 181/181/181 180/180/180 179/179/179
f 180/180/180 182/182/182 179/179/179
f 183/183/183 179/179/179 182/182/182
f 184/184/184 183/183/183 182/182/182
f 187/187/187 186/186/186 185/185/185
f 186/186/186 188/188/188 185/185/185
f 186/186/186 189/189/189 188/188/188
f 189/189/189 190/190/190 188/188/188
f 193/193/193 192/192/192 191/191/191
f 192/192/192 194/194/194 191/191/191
f 192/192/192 195/195/195 194/194/194
f 195/195/195 196/196/196 194/194/194
f 199/199/199 198/198/198 197/197/197
f 198/198/198 200/200/200 197/197/197
f 198/198/198 201/201/201 200/200/200
f 201/201/201 202/202/202 200/200/200
f 205/205/205 204/204/204 203/203/203
f 204/204/204 206/206/206 203/203/203
f 204/204/204 207/207/207 206/206/206
f 210/210/210 209/209/209 208/208/208
f 211/211/211 210/210/210 208/208/208
f 214/214/214 213/213/213 212/212/212
f 215/215/215 214/214/214 212/212/212
f 218/218/218 217/217/217 216/216/216
f 219/219/219 218/218/218 216/216/216
f 222/222/222 221/221/221 220/220/220
f 223/223/223 222/222/222 220/220/220
f 226/226/226 225/225/225 224/224/224
f 226/226/226 227/227/227 225/225/225
f 227/227/227 228/228/228 225/225/225
f 231/231/231 230/230/230 229/229/229
f 231/231/231 232/232/232 230/230/230
f 232/232/232 233/233/233 230/230/230
f 236/236/236 235/235/235 234/234/234
f 235/235/235 237/237/237 234/234/234
f 235/235/235 238/238/238 237/237/237
f 238/238/238 239/239/239 237/237/237
f 242/242/242 241/241/241 240/240/240
f 241/241/241 243/243/243 240/240/240
f 241/241/241 244/244/244 243/243/243
f 244/244/244 245/245/245 243/243/243
f 248/248/248 247/247/247 246/246/246
f 247/247/247 249/249/249 246/246/246
f 247/247/247 250/250/250 249/249/249
f 250/250/250 251/251/251 249/249/249
f 254/254/254 253/253/253 252/252/252
f 253/253/253 255/255/255 252/252/252
f 253/253/253 256/256/256 255/255/255
f 256/256/256 257/257/257 255/255/255
f 260/260/260 259/259/259 258/258/258
f 259/259/259 261/261/261 258/258/258
f 259/259/259 262/262/262 261/261/261
f 262/262/262 263/263/263 261/261/261
f 266/266/266 265/265/265 264/264/264
f 265/265/265 267/267/267 264/264/264
f 265/265/265 268/268/268 267/267/267
f 268/268/268 269/269/269 267/267/267
f 272/272/272 271/271/271 270/270/270
f 271/271/271 273/273/273 270/270/270
f 271/271/271 274/274/274 273/273/273
f 274/274/274 275/275/275 273/273/273
f 278/278/278 277/277/277 276/276/276
f 277/277/277 279/279/279 276/276/276
f 277/277/277 280/280/280 279/279/279
f 280/280/280 281/281/281 279/279/279
f 284/284/284 283/283/283 282/282/282
f 284/284/284 285/285/285 283/283/283
f 285/285/285 286/286/286 283/283/283
f 289/289/289 288/288/288 287/287/287
f 290/290/290 289/289/289 287/287/287
f 293/293/293 292/292/292 291/291/291
f 292/292/292 294/294/294 291/291/291
f 292/292/292 295/295/295 294/294/294
f 295/295/295 296/296/296 294/294/294
f 299/299/299 298/298/298 297/297/297
f 298/298/298 300/300/300 297/297/297
f 298/298/298 301/301/301 300/300/300
f 301/301/301 302/302/302 300/300/300
f 305/305/305 304/304/304 303/303/303
f 304/304/304 306/306/306 303/303/303
f 304/304/304 307/307/307 306/306/306
f 307/307/307 308/308/308 306/306/306
f 311/311/311 310/310/310 309/309/309
f 310/310/310 312/312/312 309/309/309
f 310/310/310 313/313/313 312/312/312
f 313/313/313 314/314/314 312/312/312
f 317/317/317 316/316/316 315/315/315
f 318/318/318 317/317/317 315/315/315
f 321/321/321 320/320/320 319/319/319
f 320/320/320 322/322/322 319/319/319
f 320/320/320 323/323/323 322/322/322
f 323/323/323 324/324/324 322/322/322
f 327/327/327 326/326/326 325/325/325
f 326/326/326 328/328/328 325/325/325
f 326/326/326 329/329/329 328/328/328
f 329/329/329 330/330/330 328/328/328
f 333/333/333 332/332/332 331/331/331
f 332/332/332 334/334/334 331/331/331
f 332/332/332 335/335/335 334/334/334
f 335/335/335 336/336/336 334/334/334
f 339/339/339 338/338/338 337/337/337
f 340/340/340 339/339/339 337/337/337
f 343/343/343 342/342/342 341/341/341
f 344/344/344 343/343/343 341/341/341
f 347/347/347 346/346/346 345/345/345
f 348/348/348 347/347/347 345/345/345
f 351/351/351 350/350/350 349/349/349
f 350/350/350 352/352/352 349/349/349
f 350/350/350 353/353/353 352/352/352
f 353/353/353 354/354/354 352/352/352
f 357/357/357 356/356/356 355/355/355
f 356/356/356 358/358/358 355/355/355
f 356/356/356 359/359/359 358/358/358
f 359/359/359 360/360/360 358/358/358
f 363/363/363 362/362/362 361/361/361
f 364/364/364 363/363/363 361/361/361
f 367/367/367 366/366/366 365/365/365
f 366/366/366 368/368/368 365/365/365
f 366/366/366 369/369/369 368/368/368
f 369/369/369 370/370/370 368/368/368
f 373/373/373 372/372/372 371/371/371
f 374/374/374 373/373/373 371/371/371
f 377/377/377 376/376/376 375/375/375
f 376/376/376 378/378/378 375/375/375
f 376/376/376 379/379/379 378/378/378
f 379/379/379 380/380/380 378/378/378
f 383/383/383 382/382/382 381/381/381
f 382/382/382 384/384/384 381/381/381
f 382/382/382 385/385/385 384/384/384
f 385/385/385 386/386/386 384/384/384
f 389/389/389 388/388/388 387/387/387
f 388/388/388 390/390/390 387/387/387
f 388/388/388 391/391/391 390/390/390
f 391/391/391 392/392/392 390/390/390
f 395/395/395 394/394/394 393/393/393
f 394/394/394 396/396/396 393/393/393
f 394/394/394 397/397/397 396/396/396
f 397/397/397 398/398/398 396/396/396
f 401/401/401 400/400/400 399/399/399
f 400/400/400 402/402/402 399/399/399
f 400/400/400 403/403/403 402/402/402
f 403/403/403 404/404/404 402/402/402
f 407/407/407 406/406/406 405/405/405
f 408/408/408 407/407/407 405/405/405
f 411/411/411 410/410/410 409/409/409
f 412/412/412 411/411/411 409/409/409
f 415/415/415 414/414/414 413/413/413
f 416/416/416 415/415/415 413/413/413
f 419/419/419 418/418/418 417/417/417
f 420/420/420 419/419/419 417/417/417
f 423/423/423 422/422/422 421/421/421
f 424/424/424 423/423/423 421/421/421
f 427/427/427 426/426/426 425/425/425
f 428/428/428 427/427/427 425/425/425
f 431/431/431 430/430/430 429/429/429
f 432/432/432 431/431/431 429/429/429
f 435/435/435 434/434/434 433/433/433
f 436/436/436 435/435/435 433/433/433
f 439/439/439 438/438/438 437/437/437
f 440/440/440 439/439/439 437/437/437
f 443/443/443 442/442/442 441/441/441
f 444/444/444 443/443/443 441/441/441
f 447/447/447 446/446/446 445/445/445
f 448/448/448 447/447/447 445/445/445
f 451/451/451 450/450/450 449/449/449
f 452/452/452 451/451/451 449/449/449
f 455/455/455 454/454/454 453/453/453
f 456/456/456 455/455/455 453/453/453
f 459/459/459 458/458/458 457/457/457
f 460/460/460 459/459/459 457/457/457
