g Pudding
v -6.87937 2.847041 7.84709
v -5.875908 2.431387 0
v -2.431391 5.875908 0
v -2.847031 6.879375 7.84709
v 2.439902 5.875908 0
v -7.412173 3.067734 8.19541
v 2.855552 6.879375 7.84708
v 5.884419 2.431387 0
v -3.067724 7.412168 8.19541
v 6.887886 2.847041 7.84708
v 5.884424 -2.439902 0
v -3.097446 7.483916 8.516885
v -7.483926 3.097451 8.516885
v -7.412173 3.067734 8.838349
v 3.07624 7.412168 8.19541
v 6.88789 -2.855547 7.84708
v 2.439902 -5.884424 0
v -3.067724 7.412168 8.838349
v -6.684233 2.766211 9.197031
v -2.766206 6.684238 9.197031
v 3.105957 7.483926 8.516885
v 3.07624 7.412168 8.838349
v 2.774722 6.684238 9.197012
v 7.420679 3.067724 8.19541
v 7.492436 3.097451 8.516885
v 7.420679 3.067724 8.838349
v 6.692749 2.766201 9.197012
v 7.492441 -3.105957 8.516885
v 7.420683 -3.07624 8.838349
v 6.692754 -2.774717 9.197012
v 7.420683 -3.07624 8.19541
v 3.076245 -7.420674 8.83834
v 2.774726 -6.692754 9.197021
v 3.105962 -7.492432 8.516875
v 2.855552 -6.887881 7.84708
v -2.431387 -5.884414 0
v -3.067724 -7.420683 8.838349
v -2.766201 -6.692744 9.197031
v 3.076245 -7.420674 8.1954
v -2.847036 -6.88789 7.84709
v -5.875903 -2.439902 0
v -3.097441 -7.492441 8.516885
v -7.412163 -3.07624 8.838349
v -6.684233 -2.774717 9.197031
v -3.067724 -7.420683 8.19543
v -6.87937 -2.855547 7.84709
v -5.875908 2.431387 0
v -6.87937 2.847041 7.84709
v -7.483916 -3.105957 8.516885
v -7.412163 -3.07624 8.19543
v -7.412173 3.067734 8.19541
v -7.483926 3.097451 8.516885
v -7.412173 3.067734 8.838349
v -6.684233 2.766211 9.197031
v 2.439902 -5.884424 0
v 5.884424 -2.439902 0
v -2.431387 -5.884414 0
v 2.439902 5.875908 0
v 5.884419 2.431387 0
v -5.875908 2.431387 0
v -5.875903 -2.439902 0
v -2.431391 5.875908 0
v -2.766206 6.684238 9.197031
v -3.848564 5.298183 11.75089
v -6.684233 2.766211 9.197031
v -6.469487 1.020781 11.75089
v -4.26248 2.64126 14.62676
v -6.684233 -2.774717 9.197031
v -4.86375 -1.140596 14.62674
v -2.445342 0.119873 16.70558
v -5.298174 -3.85709 11.75089
v -2.766201 -6.692744 9.197031
v -1.815645 -1.648613 16.70558
v 0.004257813 -0.004257813 17.73233
v -1.020767 -6.478008 11.75089
v 2.774726 -6.692754 9.197021
v -2.654111 -4.239932 14.62676
v 3.85709 -5.306699 11.75088
v 6.692754 -2.774717 9.197012
v -0.1198584 -2.453867 16.70558
v 1.139272 -4.869043 14.62674
v 6.478013 -1.029287 11.75088
v 6.692749 2.766201 9.197012
v 1.648628 -1.82415 16.70558
v 4.22708 -2.631572 14.62674
v 5.306704 3.848564 11.75089
v 2.774722 6.684238 9.197012
v 2.453872 -0.1283691 16.70558
v 4.848042 1.142119 14.62674
v 1.029287 6.469492 11.75089
v -2.766206 6.684238 9.197031
v -3.848564 5.298183 11.75089
v 1.824165 1.640107 16.70558
v 2.618711 4.249629 14.62674
v -1.154985 4.870576 14.62674
v -4.26248 2.64126 14.62676
v 0.1283887 2.445352 16.70558
v -1.640107 1.815645 16.70558
v -2.445342 0.119873 16.70558
vt 0.675293 0.9824219
vt 0.675293 0.953125
vt 0.6694336 0.9526367
vt 0.6694336 0.9824219
vt 0.6635742 0.953125
vt 0.675293 0.9858398
vt 0.6635742 0.9824219
vt 0.6577148 0.953125
vt 0.6694336 0.9858398
vt 0.6577148 0.9824219
vt 0.6523438 0.953125
vt 0.6694336 0.9882813
vt 0.675293 0.9882813
vt 0.675293 0.9912109
vt 0.6635742 0.9858398
vt 0.6523438 0.9824219
vt 0.6474609 0.953125
vt 0.6694336 0.9912109
vt 0.675293 0.9941406
vt 0.6694336 0.9941406
vt 0.6635742 0.9882813
vt 0.6635742 0.9912109
vt 0.6635742 0.9941406
vt 0.6577148 0.9858398
vt 0.6577148 0.9882813
vt 0.6577148 0.9912109
vt 0.6577148 0.9941406
vt 0.6523438 0.9882813
vt 0.6523438 0.9912109
vt 0.6523438 0.9941406
vt 0.6523438 0.9858398
vt 0.6474609 0.9912109
vt 0.6474609 0.9941406
vt 0.6474609 0.9882813
vt 0.6474609 0.9824219
vt 0.6411133 0.953125
vt 0.6411133 0.9912109
vt 0.6411133 0.9941406
vt 0.6474609 0.9858398
vt 0.6411133 0.9824219
vt 0.6357422 0.953125
vt 0.6411133 0.9882813
vt 0.6357422 0.9912109
vt 0.6357422 0.9941406
vt 0.6411133 0.9858398
vt 0.6357422 0.9824219
vt 0.6303711 0.953125
vt 0.6303711 0.9824219
vt 0.6357422 0.9882813
vt 0.6357422 0.9858398
vt 0.6303711 0.9858398
vt 0.6303711 0.9882813
vt 0.6303711 0.9912109
vt 0.6303711 0.9941406
vt 0.6723633 0.949707
vt 0.6767578 0.9516602
vt 0.6704102 0.9458008
vt 0.6826172 0.9458008
vt 0.6806641 0.949707
vt 0.6767578 0.9404297
vt 0.6723633 0.9418945
vt 0.6806641 0.9418945
vt 0.9619141 0.9423828
vt 0.9628906 0.9482422
vt 0.965332 0.9428711
vt 0.9658203 0.949707
vt 0.9633789 0.9560547
vt 0.96875 0.9462891
vt 0.965332 0.9584961
vt 0.9638672 0.9633789
vt 0.9682617 0.9536133
vt 0.972168 0.9536133
vt 0.9648438 0.9648438
vt 0.9633789 0.9702148
vt 0.9702148 0.9604492
vt 0.9741211 0.9643555
vt 0.9667969 0.9619141
vt 0.9711914 0.96875
vt 0.9741211 0.9775391
vt 0.965332 0.9672852
vt 0.9682617 0.9667969
vt 0.9711914 0.9780273
vt 0.972168 0.9902344
vt 0.9658203 0.9702148
vt 0.9682617 0.972168
vt 0.9692383 0.9853516
vt 0.9692383 0.9936523
vt 0.9658203 0.9731445
vt 0.9677734 0.9775391
vt 0.9667969 0.9897461
vt 0.9672852 0.9951172
vt 0.9648438 0.9921875
vt 0.965332 0.9750977
vt 0.9663086 0.980957
vt 0.9648438 0.9833984
vt 0.9624023 0.9838867
vt 0.9643555 0.9765625
vt 0.9628906 0.9765625
vt 0.9619141 0.9755859
vn -0.7358398 0.3049316 -0.6044922
vn -0.6762695 0.2802734 -0.6811523
vn -0.2802734 0.6762695 -0.6811523
vn -0.3049316 0.7358398 -0.6044922
vn 0.2802734 0.6762695 -0.6811523
vn -0.7719727 0.3195801 -0.5498047
vn 0.3049316 0.7358398 -0.6044922
vn 0.6762695 0.2802734 -0.6811523
vn -0.3195801 0.7719727 -0.5498047
vn 0.7358398 0.3049316 -0.6044922
vn 0.6762695 -0.2802734 -0.6811523
vn -0.3825684 0.9238281 0
vn -0.9238281 0.3825684 9.536743E-07
vn -0.7470703 0.3093262 0.5888672
vn 0.3195801 0.7719727 -0.5498047
vn 0.7358398 -0.3049316 -0.6044922
vn 0.2802734 -0.6762695 -0.6811523
vn -0.3093262 0.7470703 0.5888672
vn -0.6601563 0.2832031 0.6953125
vn -0.2666016 0.6674805 0.6953125
vn 0.3825684 0.9238281 1.788139E-07
vn 0.3093262 0.7470703 0.5888672
vn 0.2832031 0.6601563 0.6953125
vn 0.7719727 0.3195801 -0.5498047
vn 0.9238281 0.3825684 -1.251698E-06
vn 0.7470703 0.3093262 0.5888672
vn 0.6674805 0.2666016 0.6953125
vn 0.9238281 -0.3825684 1.788139E-06
vn 0.7470703 -0.3093262 0.5888672
vn 0.6601563 -0.2832031 0.6953125
vn 0.7719727 -0.3195801 -0.5498047
vn 0.3093262 -0.7470703 0.5888672
vn 0.2666016 -0.6674805 0.6953125
vn 0.3825684 -0.9238281 2.384186E-07
vn 0.3049316 -0.7358398 -0.6044922
vn -0.2802734 -0.6762695 -0.6811523
vn -0.3093262 -0.7470703 0.5888672
vn -0.2832031 -0.6601563 0.6953125
vn 0.3195801 -0.7714844 -0.5498047
vn -0.3049316 -0.7358398 -0.6044922
vn -0.6762695 -0.2802734 -0.6811523
vn -0.3825684 -0.9238281 0
vn -0.7470703 -0.3093262 0.5888672
vn -0.6674805 -0.2666016 0.6953125
vn -0.3195801 -0.7719727 -0.5498047
vn -0.7358398 -0.3049316 -0.6044922
vn -0.6762695 0.2802734 -0.6811523
vn -0.7358398 0.3049316 -0.6044922
vn -0.9238281 -0.3825684 0
vn -0.7719727 -0.3195801 -0.5498047
vn -0.7719727 0.3195801 -0.5498047
vn -0.9238281 0.3825684 9.536743E-07
vn -0.7470703 0.3093262 0.5888672
vn -0.6601563 0.2832031 0.6953125
vn 0.2802734 -0.6762695 -0.6811523
vn 0.6762695 -0.2802734 -0.6811523
vn -0.2802734 -0.6762695 -0.6811523
vn 0.2802734 0.6762695 -0.6811523
vn 0.6762695 0.2802734 -0.6811523
vn -0.6762695 0.2802734 -0.6811523
vn -0.6762695 -0.2802734 -0.6811523
vn -0.2802734 0.6762695 -0.6811523
vn -0.2666016 0.6674805 0.6953125
vn -0.5634766 0.7509766 0.3442383
vn -0.6601563 0.2832031 0.6953125
vn -0.9291992 0.1318359 0.3449707
vn -0.6708984 0.4143066 0.6152344
vn -0.6674805 -0.2666016 0.6953125
vn -0.7670898 -0.180542 0.6157227
vn -0.5268555 0.0284729 0.8496094
vn -0.7504883 -0.5629883 0.3459473
vn -0.2832031 -0.6601563 0.6953125
vn -0.3935547 -0.3520508 0.8491211
vn -4.172325E-07 0 1
vn -0.1323242 -0.9287109 0.3466797
vn 0.2666016 -0.6674805 0.6953125
vn -0.416748 -0.668457 0.6162109
vn 0.5634766 -0.7495117 0.3479004
vn 0.6601563 -0.2832031 0.6953125
vn -0.02941895 -0.527832 0.8486328
vn 0.180542 -0.7666016 0.6166992
vn 0.9277344 -0.1324463 0.3491211
vn 0.6674805 0.2666016 0.6953125
vn 0.3537598 -0.3942871 0.8481445
vn 0.6694336 -0.4135742 0.6171875
vn 0.75 0.5625 0.3479004
vn 0.2832031 0.6601563 0.6953125
vn 0.5297852 -0.02983093 0.8476563
vn 0.765625 0.1802979 0.6171875
vn 0.1329346 0.9287109 0.3459473
vn -0.2666016 0.6674805 0.6953125
vn -0.5634766 0.7509766 0.3442383
vn 0.3950195 0.3525391 0.8481445
vn 0.4140625 0.6699219 0.6162109
vn -0.1807861 0.7670898 0.6152344
vn -0.6708984 0.4143066 0.6152344
vn 0.03001404 0.5268555 0.8496094
vn -0.3508301 0.3925781 0.8500977
vn -0.5268555 0.0284729 0.8496094
g Pudding_0
f 3/3/3 2/2/2 1/1/1
f 4/4/4 3/3/3 1/1/1
f 5/5/5 3/3/3 4/4/4
f 4/4/4 1/1/1 6/6/6
f 7/7/7 5/5/5 4/4/4
f 8/8/8 5/5/5 7/7/7
f 9/9/9 4/4/4 6/6/6
f 7/7/7 4/4/4 9/9/9
f 10/10/10 8/8/8 7/7/7
f 11/11/11 8/8/8 10/10/10
f 12/12/12 9/9/9 6/6/6
f 13/13/13 12/12/12 6/6/6
f 12/12/12 13/13/13 14/14/14
f 15/15/15 7/7/7 9/9/9
f 10/10/10 7/7/7 15/15/15
f 16/16/16 11/11/11 10/10/10
f 17/17/17 11/11/11 16/16/16
f 18/18/18 12/12/12 14/14/14
f 18/18/18 14/14/14 19/19/19
f 20/20/20 18/18/18 19/19/19
f 9/9/9 12/12/12 21/21/21
f 21/21/21 12/12/12 18/18/18
f 15/15/15 9/9/9 21/21/21
f 22/22/22 18/18/18 20/20/20
f 22/22/22 21/21/21 18/18/18
f 23/23/23 22/22/22 20/20/20
f 24/24/24 10/10/10 15/15/15
f 16/16/16 10/10/10 24/24/24
f 15/15/15 21/21/21 25/25/25
f 25/25/25 21/21/21 22/22/22
f 24/24/24 15/15/15 25/25/25
f 26/26/26 22/22/22 23/23/23
f 26/26/26 25/25/25 22/22/22
f 27/27/27 26/26/26 23/23/23
f 24/24/24 25/25/25 28/28/28
f 28/28/28 25/25/25 26/26/26
f 29/29/29 26/26/26 27/27/27
f 29/29/29 28/28/28 26/26/26
f 30/30/30 29/29/29 27/27/27
f 31/31/31 16/16/16 24/24/24
f 31/31/31 24/24/24 28/28/28
f 32/32/32 29/29/29 30/30/30
f 33/33/33 32/32/32 30/30/30
f 34/34/34 28/28/28 29/29/29
f 31/31/31 28/28/28 34/34/34
f 32/32/32 34/34/34 29/29/29
f 35/35/35 16/16/16 31/31/31
f 35/35/35 17/17/17 16/16/16
f 36/36/36 17/17/17 35/35/35
f 37/37/37 32/32/32 33/33/33
f 38/38/38 37/37/37 33/33/33
f 39/39/39 31/31/31 34/34/34
f 39/39/39 35/35/35 31/31/31
f 40/40/40 36/36/36 35/35/35
f 40/40/40 35/35/35 39/39/39
f 41/41/41 36/36/36 40/40/40
f 42/42/42 34/34/34 32/32/32
f 39/39/39 34/34/34 42/42/42
f 37/37/37 42/42/42 32/32/32
f 43/43/43 37/37/37 38/38/38
f 44/44/44 43/43/43 38/38/38
f 45/45/45 40/40/40 39/39/39
f 45/45/45 39/39/39 42/42/42
f 46/46/46 41/41/41 40/40/40
f 46/46/46 40/40/40 45/45/45
f 47/47/47 41/41/41 46/46/46
f 48/48/48 47/47/47 46/46/46
f 49/49/49 42/42/42 37/37/37
f 45/45/45 42/42/42 49/49/49
f 43/43/43 49/49/49 37/37/37
f 50/50/50 46/46/46 45/45/45
f 48/48/48 46/46/46 50/50/50
f 50/50/50 45/45/45 49/49/49
f 51/51/51 48/48/48 50/50/50
f 52/52/52 51/51/51 50/50/50
f 49/49/49 52/52/52 50/50/50
f 52/52/52 49/49/49 43/43/43
f 53/53/53 52/52/52 43/43/43
f 53/53/53 43/43/43 44/44/44
f 54/54/54 53/53/53 44/44/44
f 57/57/57 56/56/56 55/55/55
f 58/58/58 56/56/56 57/57/57
f 58/58/58 59/59/59 56/56/56
f 60/60/60 58/58/58 57/57/57
f 60/60/60 57/57/57 61/61/61
f 58/58/58 60/60/60 62/62/62
f 65/65/65 64/64/64 63/63/63
f 64/64/64 65/65/65 66/66/66
f 67/67/67 64/64/64 66/66/66
f 68/68/68 66/66/66 65/65/65
f 67/67/67 66/66/66 69/69/69
f 70/70/70 67/67/67 69/69/69
f 66/66/66 68/68/68 71/71/71
f 69/69/69 66/66/66 71/71/71
f 72/72/72 71/71/71 68/68/68
f 70/70/70 69/69/69 73/73/73
f 74/74/74 70/70/70 73/73/73
f 71/71/71 72/72/72 75/75/75
f 76/76/76 75/75/75 72/72/72
f 69/69/69 71/71/71 77/77/77
f 69/69/69 77/77/77 73/73/73
f 77/77/77 71/71/71 75/75/75
f 75/75/75 76/76/76 78/78/78
f 79/79/79 78/78/78 76/76/76
f 73/73/73 77/77/77 80/80/80
f 74/74/74 73/73/73 80/80/80
f 77/77/77 75/75/75 81/81/81
f 77/77/77 81/81/81 80/80/80
f 81/81/81 75/75/75 78/78/78
f 78/78/78 79/79/79 82/82/82
f 83/83/83 82/82/82 79/79/79
f 80/80/80 81/81/81 84/84/84
f 74/74/74 80/80/80 84/84/84
f 81/81/81 78/78/78 85/85/85
f 81/81/81 85/85/85 84/84/84
f 85/85/85 78/78/78 82/82/82
f 82/82/82 83/83/83 86/86/86
f 87/87/87 86/86/86 83/83/83
f 84/84/84 85/85/85 88/88/88
f 88/88/88 74/74/74 84/84/84
f 85/85/85 82/82/82 89/89/89
f 85/85/85 89/89/89 88/88/88
f 89/89/89 82/82/82 86/86/86
f 86/86/86 87/87/87 90/90/90
f 91/91/91 90/90/90 87/87/87
f 90/90/90 91/91/91 92/92/92
f 88/88/88 89/89/89 93/93/93
f 74/74/74 88/88/88 93/93/93
f 89/89/89 86/86/86 94/94/94
f 94/94/94 86/86/86 90/90/90
f 89/89/89 94/94/94 93/93/93
f 95/95/95 90/90/90 92/92/92
f 94/94/94 90/90/90 95/95/95
f 95/95/95 92/92/92 96/96/96
f 93/93/93 94/94/94 97/97/97
f 74/74/74 93/93/93 97/97/97
f 94/94/94 95/95/95 97/97/97
f 95/95/95 96/96/96 98/98/98
f 97/97/97 95/95/95 98/98/98
f 98/98/98 74/74/74 97/97/97
f 98/98/98 96/96/96 99/99/99
f 74/74/74 98/98/98 99/99/99
