g Record
v -0.3407878 -0.2658732 0.3578582
v -0.2585604 -0.2870945 0.4202792
v -0.3407878 -0.2873367 0.3578582
v -0.2585604 -0.2661306 0.4202792
v -0.1657705 -0.2658732 0.4655305
v -0.1657705 -0.2873367 0.4655305
v -0.1588326 -0.2481829 0.4460469
v -0.06526329 -0.2661306 0.4891102
v -0.326525 -0.2481829 0.342881
v -0.2477391 -0.2488521 0.4026895
v -0.06253187 -0.2488521 0.4686396
v -0.1436569 -0.2361115 0.4034292
v 0.03632338 -0.2481829 0.4720871
v 0.03791 -0.2658732 0.4927081
v 0.1393184 -0.2661307 0.4733693
v 0.0328529 -0.2361115 0.4269814
v 0.1334876 -0.2488521 0.4535575
v -0.05655722 -0.2370616 0.4238634
v 0.1207336 -0.2370616 0.4102224
v 0.2251987 -0.2481829 0.4164988
v 0.2350355 -0.2658732 0.4346918
v 0.3198108 -0.2661307 0.3757784
v 0.2036821 -0.2361115 0.3767044
v -0.2240688 -0.2370616 0.3642145
v 0.3064259 -0.2488521 0.360051
v -0.2953272 -0.2361115 0.3101203
v 0.2771485 -0.2370616 0.3256499
v 0.3751352 -0.2481829 0.288894
v 0.3915213 -0.2658732 0.3015131
v 0.4450049 -0.2661306 0.2132118
v 0.3392929 -0.2361115 0.2612915
v 0.4263804 -0.2488521 0.2042883
v 0.4602073 -0.2481829 0.1113365
v 0.4803095 -0.2658732 0.1161998
v 0.4932537 -0.2661306 0.01377877
v -0.3901099 -0.2488521 0.2671105
v -0.3528369 -0.2370616 0.2415893
v 0.3856419 -0.2370616 0.1847695
v 0.4162369 -0.2361115 0.1006987
v -0.3959326 -0.2361115 0.1631885
v 0.4726098 -0.2488521 0.01320203
v -0.4071501 -0.2661307 0.2787781
v -0.4071501 -0.2870945 0.2787781
v -0.3407878 -0.2873367 0.3578582
v -0.4377582 -0.2481829 0.1804276
v -0.4568797 -0.2658732 0.1883088
v -0.4853398 -0.2661306 0.08907352
v -0.4650271 -0.2488521 0.08534552
v -0.4205962 -0.2370616 0.07719107
v -0.4733046 -0.2481829 -0.01302418
v -0.4939789 -0.2658732 -0.01359301
v -0.4796099 -0.2661306 -0.1160329
v 0.4274544 -0.2370616 0.01194056
v -0.4280828 -0.2361115 -0.01177994
v -0.459537 -0.2488521 -0.1111767
v 0.4212097 -0.2361115 -0.07730608
v -0.4270023 -0.2481829 -0.2045886
v -0.4456539 -0.2658732 -0.2135251
v -0.390951 -0.2661306 -0.3010764
v -0.4156306 -0.2370616 -0.1005544
v -0.3862043 -0.2361115 -0.1850414
v -0.3745888 -0.2488521 -0.2884756
v 0.4657055 -0.2481829 -0.08547235
v 0.4860478 -0.2658732 -0.08920579
v 0.4562144 -0.2661306 -0.1880369
v 0.3953561 -0.2370616 -0.1629532
v 0.4371207 -0.2488521 -0.1801672
v 0.3533516 -0.2361115 -0.2419441
v 0.3906789 -0.2481829 -0.2675025
v 0.4077441 -0.2658732 -0.2791871
v 0.3402915 -0.2661306 -0.3573395
v 0.3260495 -0.2488521 -0.3423839
v -0.3387987 -0.2370616 -0.2609133
v 0.2948972 -0.2370616 -0.309671
v 0.2481005 -0.2481828 -0.4032792
v 0.2589377 -0.2658732 -0.4208947
v 0.1655292 -0.2661306 -0.464855
v -0.2775526 -0.2361114 -0.3261273
v 0.2243957 -0.2361114 -0.3647481
v 0.1586013 -0.2488521 -0.4453997
v -0.3068728 -0.2481828 -0.3605786
v -0.3202771 -0.2658732 -0.3763288
v -0.2346932 -0.2661306 -0.4340611
v -0.2248707 -0.2488521 -0.4158947
v -0.2033854 -0.2370616 -0.3761581
v -0.1336822 -0.2481829 -0.4542215
v -0.1395216 -0.2658732 -0.4740621
v -0.03785471 -0.2661306 -0.491993
v 0.1434478 -0.2370616 -0.4028441
v -0.1209096 -0.2361114 -0.410823
v -0.03627037 -0.2488521 -0.4714019
v 0.05663986 -0.2361114 -0.424484
v -0.03280492 -0.2370616 -0.4263619
v 0.06262317 -0.2481829 -0.4693256
v 0.06535859 -0.2658732 -0.4898259
v -0.4568797 -0.2658732 0.1883088
v -0.4071501 -0.2661307 0.2787781
v -0.4568797 -0.2873367 0.1883088
v -0.4853398 -0.2661306 0.08907352
v -0.4853398 -0.2870945 0.08907352
v -0.4939789 -0.2658732 -0.01359301
v -0.4377582 -0.3050319 0.1804276
v -0.3901099 -0.3043778 0.2671105
v -0.4650271 -0.3043778 0.08534551
v -0.326525 -0.3050319 0.342881
v -0.2585604 -0.2870945 0.4202792
v -0.2477391 -0.3043778 0.4026895
v -0.1588326 -0.3050319 0.4460469
v -0.1657705 -0.2873367 0.4655305
v -0.4733046 -0.3050319 -0.01302415
v -0.4939789 -0.2873367 -0.01359301
v -0.4796099 -0.2661306 -0.1160329
v -0.06526329 -0.2870945 0.4891102
v -0.1657705 -0.2658732 0.4655305
v -0.06253187 -0.3043778 0.4686396
v -0.06526329 -0.2661306 0.4891102
v 0.03632338 -0.3050319 0.4720871
v -0.4796099 -0.2870945 -0.1160329
v -0.459537 -0.3043778 -0.1111767
v -0.4456539 -0.2658732 -0.2135251
v -0.4270022 -0.3050318 -0.2045886
v 0.03791 -0.2873367 0.4927081
v 0.03791 -0.2658732 0.4927081
v -0.4456539 -0.2873366 -0.2135251
v -0.390951 -0.2661306 -0.3010764
v 0.1393184 -0.2870945 0.4733693
v 0.1334876 -0.3043778 0.4535575
v 0.1393184 -0.2661307 0.4733693
v 0.2251987 -0.3050319 0.4164988
v -0.390951 -0.2870944 -0.3010764
v -0.3745887 -0.3043777 -0.2884756
v -0.3202771 -0.2658732 -0.3763288
v -0.3068728 -0.3050318 -0.3605786
v 0.2350355 -0.2873367 0.4346918
v 0.2350355 -0.2658732 0.4346918
v -0.3202771 -0.2873366 -0.3763288
v -0.2346932 -0.2661306 -0.4340611
v 0.3198108 -0.2870945 0.3757784
v 0.3064259 -0.3043778 0.3600511
v 0.3198108 -0.2661307 0.3757784
v 0.3751351 -0.3050319 0.288894
v -0.2346932 -0.2870945 -0.4340611
v -0.2248707 -0.3043778 -0.4158947
v -0.1395216 -0.2658732 -0.4740621
v -0.1336823 -0.3050319 -0.4542215
v 0.3915213 -0.2873367 0.3015131
v 0.3915213 -0.2658732 0.3015131
v -0.1395216 -0.2873367 -0.4740621
v -0.03785471 -0.2661306 -0.491993
v 0.4450049 -0.2870945 0.2132118
v 0.4263804 -0.3043778 0.2042883
v 0.4450049 -0.2661306 0.2132118
v 0.4602074 -0.3050319 0.1113365
v -0.03785471 -0.2870945 -0.491993
v -0.03627037 -0.3043778 -0.4714019
v 0.06535859 -0.2658732 -0.4898259
v 0.06262317 -0.3050318 -0.4693256
v 0.4803095 -0.2873367 0.1161998
v 0.4803095 -0.2658732 0.1161998
v 0.06535859 -0.2873367 -0.4898259
v 0.1655292 -0.2661306 -0.464855
v 0.4932537 -0.2870945 0.01377877
v 0.4726098 -0.3043778 0.01320203
v 0.4932537 -0.2661306 0.01377877
v 0.4657055 -0.3050318 -0.08547239
v 0.1655292 -0.2870945 -0.464855
v 0.1586013 -0.3043778 -0.4453997
v 0.2589377 -0.2658732 -0.4208947
v 0.2481005 -0.3050318 -0.4032792
v 0.4860478 -0.2873367 -0.08920579
v 0.4860478 -0.2658732 -0.08920579
v 0.2589377 -0.2873367 -0.4208947
v 0.3402915 -0.2661306 -0.3573395
v 0.4562144 -0.2870945 -0.1880369
v 0.4371207 -0.3043777 -0.1801672
v 0.4562144 -0.2661306 -0.1880369
v 0.3906789 -0.3050318 -0.2675025
v 0.3402915 -0.2870944 -0.3573395
v 0.3260495 -0.3043778 -0.3423839
v 0.4077441 -0.2658732 -0.2791871
v 0.4077441 -0.2873366 -0.2791871
vt 0.5195313 0.7553711
vt 0.5947266 0.7626953
vt 0.5195313 0.7553711
vt 0.5947266 0.7626953
vt 0.6694336 0.7553711
vt 0.6694336 0.7553711
vt 0.6660156 0.7402344
vt 0.7407227 0.7314453
vt 0.5229492 0.7402344
vt 0.5947266 0.7475586
vt 0.7348633 0.7177734
vt 0.6591797 0.7080078
vt 0.7973633 0.6821289
vt 0.8061523 0.6943359
vt 0.8618164 0.6435547
vt 0.777832 0.6552734
vt 0.8505859 0.6333008
vt 0.7211914 0.6875
vt 0.8261719 0.6113281
vt 0.8930664 0.5756836
vt 0.90625 0.5830078
vt 0.9365234 0.5141602
vt 0.8647461 0.559082
vt 0.5947266 0.7143555
vt 0.9223633 0.5092773
vt 0.5297852 0.7080078
vt 0.890625 0.4992676
vt 0.9375 0.4389648
vt 0.9526367 0.4406738
vt 0.9521484 0.3654785
vt 0.9047852 0.4355469
vt 0.9370117 0.3669434
vt 0.9228516 0.2963867
vt 0.9370117 0.291748
vt 0.9057617 0.2232666
vt 0.4543457 0.7177734
vt 0.4677734 0.6875
vt 0.9042969 0.3703613
vt 0.8911133 0.3066406
vt 0.4111328 0.6552734
vt 0.8930664 0.2307129
vt 0.4482422 0.7314453
vt 0.4482422 0.7314453
vt 0.5195313 0.7553711
vt 0.3918457 0.6821289
vt 0.3828125 0.6943359
vt 0.3273926 0.6435547
vt 0.338623 0.6333008
vt 0.3630371 0.6113281
vt 0.2958984 0.5756836
vt 0.2827148 0.5830078
vt 0.2526855 0.5141602
vt 0.8642578 0.2471924
vt 0.3244629 0.559082
vt 0.2668457 0.5092773
vt 0.8261719 0.1942139
vt 0.2514648 0.4389648
vt 0.2364502 0.4406738
vt 0.2369385 0.3654785
vt 0.2983398 0.4992676
vt 0.2841797 0.4355469
vt 0.2519531 0.3669434
vt 0.8510742 0.1721191
vt 0.8623047 0.1621094
vt 0.8056641 0.1121216
vt 0.777832 0.1508789
vt 0.796875 0.1243286
vt 0.7216797 0.1179199
vt 0.7348633 0.08782959
vt 0.7412109 0.07409668
vt 0.6694336 0.05133057
vt 0.6660156 0.06604004
vt 0.284668 0.3703613
vt 0.6591797 0.0982666
vt 0.5947266 0.05801392
vt 0.5947266 0.04293823
vt 0.5200195 0.05133057
vt 0.2978516 0.3066406
vt 0.5947266 0.09100342
vt 0.5229492 0.06604004
vt 0.2663574 0.2963867
vt 0.2521973 0.291748
vt 0.2832031 0.2232666
vt 0.2961426 0.2307129
vt 0.324707 0.2471924
vt 0.3381348 0.1721191
vt 0.3269043 0.1621094
vt 0.3833008 0.1121216
vt 0.5297852 0.0982666
vt 0.3625488 0.1942139
vt 0.3920898 0.1243286
vt 0.4675293 0.1179199
vt 0.411377 0.1508789
vt 0.4543457 0.08782959
vt 0.447998 0.07409668
vt 0.3828125 0.6943359
vt 0.4482422 0.7314453
vt 0.3828125 0.6943359
vt 0.3273926 0.6435547
vt 0.3273926 0.6435547
vt 0.2827148 0.5830078
vt 0.3918457 0.6821289
vt 0.4543457 0.7177734
vt 0.338623 0.6333008
vt 0.5229492 0.7402344
vt 0.5947266 0.7626953
vt 0.5947266 0.7475586
vt 0.6660156 0.7402344
vt 0.6694336 0.7553711
vt 0.2958984 0.5756836
vt 0.2827148 0.5830078
vt 0.2526855 0.5141602
vt 0.7407227 0.7314453
vt 0.6694336 0.7553711
vt 0.7348633 0.7177734
vt 0.7407227 0.7314453
vt 0.7973633 0.6821289
vt 0.2526855 0.5141602
vt 0.2668457 0.5092773
vt 0.2364502 0.4406738
vt 0.2514648 0.4389648
vt 0.8061523 0.6943359
vt 0.8061523 0.6943359
vt 0.2364502 0.4406738
vt 0.2369385 0.3654785
vt 0.8618164 0.6435547
vt 0.8505859 0.6333008
vt 0.8618164 0.6435547
vt 0.8930664 0.5756836
vt 0.2369385 0.3654785
vt 0.2519531 0.3669434
vt 0.2521973 0.291748
vt 0.2663574 0.2963867
vt 0.90625 0.5830078
vt 0.90625 0.5830078
vt 0.2521973 0.291748
vt 0.2832031 0.2232666
vt 0.9365234 0.5141602
vt 0.9223633 0.5092773
vt 0.9365234 0.5141602
vt 0.9375 0.4389648
vt 0.2832031 0.2232666
vt 0.2961426 0.2307129
vt 0.3269043 0.1621094
vt 0.3381348 0.1721191
vt 0.9526367 0.4406738
vt 0.9526367 0.4406738
vt 0.3269043 0.1621094
vt 0.3833008 0.1121216
vt 0.9521484 0.3654785
vt 0.9370117 0.3669434
vt 0.9521484 0.3654785
vt 0.9228516 0.2963867
vt 0.3833008 0.1121216
vt 0.3920898 0.1243286
vt 0.447998 0.07409668
vt 0.4543457 0.08782959
vt 0.9370117 0.291748
vt 0.9370117 0.291748
vt 0.447998 0.07409668
vt 0.5200195 0.05133057
vt 0.9057617 0.2232666
vt 0.8930664 0.2307129
vt 0.9057617 0.2232666
vt 0.8510742 0.1721191
vt 0.5200195 0.05133057
vt 0.5229492 0.06604004
vt 0.5947266 0.04293823
vt 0.5947266 0.05801392
vt 0.8623047 0.1621094
vt 0.8623047 0.1621094
vt 0.5947266 0.04293823
vt 0.6694336 0.05133057
vt 0.8056641 0.1121216
vt 0.796875 0.1243286
vt 0.8056641 0.1121216
vt 0.7348633 0.08782959
vt 0.6694336 0.05133057
vt 0.6660156 0.06604004
vt 0.7412109 0.07409668
vt 0.7412109 0.07409668
vn -0.6289063 0.4106445 0.6601563
vn -0.4777832 -0.4101563 0.7768555
vn -0.6289063 -0.4106445 0.6601563
vn -0.4777832 0.4101563 0.7768555
vn -0.3059082 0.4106445 0.8588867
vn -0.3059082 -0.4106445 0.8588867
vn -0.1585693 0.8813477 0.4455566
vn -0.1206055 0.4101563 0.9038086
vn -0.3261719 0.8813477 0.3425293
vn -0.2481689 0.8808594 0.4033203
vn -0.06262207 0.8808594 0.4694824
vn -0.04595947 0.9907227 0.1290283
vn 0.0362854 0.8813477 0.4714355
vn 0.06994629 0.4106445 0.9091797
vn 0.2575684 0.4101563 0.875
vn 0.01050568 0.9907227 0.1365967
vn 0.1337891 0.8808594 0.4543457
vn -0.0181427 0.9907227 0.1359863
vn 0.03872681 0.9907227 0.1315918
vn 0.2248535 0.8813477 0.4160156
vn 0.4335938 0.4106445 0.8022461
vn 0.5908203 0.4101563 0.6943359
vn 0.06518555 0.9907227 0.1204834
vn -0.07189941 0.9907227 0.1168823
vn 0.3068848 0.8808594 0.3605957
vn -0.09448242 0.9907227 0.09918213
vn 0.08892822 0.9907227 0.1044922
vn 0.3747559 0.8813477 0.2885742
vn 0.722168 0.4106445 0.5561523
vn 0.8222656 0.4101563 0.394043
vn 0.1085205 0.9907227 0.08355713
vn 0.4272461 0.8808594 0.2047119
vn 0.4597168 0.8813477 0.1112061
vn 0.8862305 0.4106445 0.2143555
vn 0.9116211 0.4101563 0.02546692
vn -0.3908691 0.8808594 0.2675781
vn -0.1132202 0.9907227 0.07751465
vn 0.1237183 0.9907227 0.05929565
vn 0.1331787 0.9907227 0.03222656
vn -0.126709 0.9907227 0.05221558
vn 0.4733887 0.8808594 0.01322937
vn -0.7524414 0.4101563 0.5151367
vn -0.7524414 -0.4101563 0.5151367
vn -0.6289063 -0.4106445 0.6601563
vn -0.4372559 0.8813477 0.1801758
vn -0.8427734 0.4106445 0.3474121
vn -0.8969727 0.4101563 0.1646729
vn -0.4658203 0.8808594 0.08557129
vn -0.1348877 0.9907227 0.02478027
vn -0.4726563 0.8813477 -0.01309204
vn -0.9116211 0.4106445 -0.0252533
vn -0.8862305 0.4101563 -0.2143555
vn 0.137207 0.9907227 0.003831863
vn -0.1369629 0.9907227 -0.003787994
vn -0.4604492 0.8808594 -0.1113281
vn 0.1347656 0.9907227 -0.0247345
vn -0.4265137 0.8813477 -0.2043457
vn -0.8222656 0.4106445 -0.394043
vn -0.7226563 0.4101563 -0.5566406
vn -0.1334229 0.9907227 -0.03225708
vn -0.1235352 0.9907227 -0.0592041
vn -0.3752441 0.8808594 -0.2890625
vn 0.4650879 0.8813477 -0.08538818
vn 0.8969727 0.4106445 -0.1645508
vn 0.8432617 0.4101563 -0.3474121
vn 0.1268311 0.9907227 -0.05227661
vn 0.4379883 0.8808594 -0.180542
vn 0.1130371 0.9907227 -0.07739258
vn 0.3901367 0.8813477 -0.2670898
vn 0.7524414 0.4106445 -0.5151367
vn 0.6289063 0.4101563 -0.6606445
vn 0.3266602 0.8808594 -0.3430176
vn -0.1087036 0.9907227 -0.08374023
vn 0.09460449 0.9907227 -0.09936523
vn 0.2478027 0.8813477 -0.402832
vn 0.4777832 0.4106445 -0.7763672
vn 0.3059082 0.4101563 -0.8588867
vn -0.08880615 0.9907227 -0.1043091
vn 0.07177734 0.9907227 -0.1166992
vn 0.1589355 0.8808594 -0.4462891
vn -0.3063965 0.8813477 -0.3601074
vn -0.5908203 0.4106445 -0.6943359
vn -0.4338379 0.4101563 -0.8022461
vn -0.2252197 0.8808594 -0.416748
vn -0.06524658 0.9907227 -0.1206665
vn -0.1335449 0.8813477 -0.4536133
vn -0.2573242 0.4106445 -0.8745117
vn -0.06994629 0.4101563 -0.9091797
vn 0.04602051 0.9907227 -0.1292725
vn -0.03866577 0.9907227 -0.1314697
vn -0.03634644 0.8808594 -0.472168
vn 0.01811218 0.9907227 -0.1357422
vn -0.01052856 0.9907227 -0.1368408
vn 0.06256104 0.8813477 -0.46875
vn 0.1206055 0.4106445 -0.9038086
vn -0.8427734 0.4106445 0.3474121
vn -0.7524414 0.4101563 0.5151367
vn -0.8432617 -0.4106445 0.3474121
vn -0.8969727 0.4101563 0.1646729
vn -0.8969727 -0.4101563 0.1646729
vn -0.9116211 0.4106445 -0.0252533
vn -0.5966797 -0.7636719 0.2459717
vn -0.5332031 -0.7631836 0.3652344
vn -0.6357422 -0.7631836 0.1167603
vn -0.4450684 -0.7636719 0.4675293
vn -0.4777832 -0.4101563 0.7768555
vn -0.338623 -0.7631836 0.5507813
vn -0.2165527 -0.7636719 0.6079102
vn -0.3059082 -0.4106445 0.8588867
vn -0.6450195 -0.7636719 -0.0178833
vn -0.9116211 -0.4106445 -0.0252533
vn -0.8862305 0.4101563 -0.2143555
vn -0.1206055 -0.4101563 0.9038086
vn -0.3059082 0.4106445 0.8588867
vn -0.08551025 -0.7631836 0.640625
vn -0.1206055 0.4101563 0.9038086
vn 0.04953003 -0.7636719 0.6435547
vn -0.8862305 -0.4101563 -0.2143555
vn -0.628418 -0.7631836 -0.1519775
vn -0.8222656 0.4106445 -0.394043
vn -0.5820313 -0.7636719 -0.2788086
vn 0.06994629 -0.4106445 0.9091797
vn 0.06994629 0.4106445 0.9091797
vn -0.8222656 -0.4106445 -0.394043
vn -0.7226563 0.4101563 -0.5566406
vn 0.2575684 -0.4101563 0.875
vn 0.1824951 -0.7631836 0.6201172
vn 0.2575684 0.4101563 0.875
vn 0.3071289 -0.7636719 0.5678711
vn -0.7226563 -0.4101563 -0.5566406
vn -0.512207 -0.7631836 -0.3945313
vn -0.5908203 0.4106445 -0.6943359
vn -0.418457 -0.7636719 -0.4914551
vn 0.4335938 -0.4106445 0.8022461
vn 0.4335938 0.4106445 0.8022461
vn -0.5908203 -0.4106445 -0.6943359
vn -0.4338379 0.4101563 -0.8022461
vn 0.5913086 -0.4101563 0.6943359
vn 0.4189453 -0.7631836 0.4921875
vn 0.5908203 0.4101563 0.6943359
vn 0.5112305 -0.7636719 0.3937988
vn -0.4338379 -0.4101563 -0.8022461
vn -0.307373 -0.7631836 -0.5688477
vn -0.2573242 0.4106445 -0.8745117
vn -0.182251 -0.7636719 -0.6191406
vn 0.7226563 -0.4106445 0.5561523
vn 0.722168 0.4106445 0.5561523
vn -0.2573242 -0.4106445 -0.8745117
vn -0.06994629 0.4101563 -0.9091797
vn 0.8222656 -0.4101563 0.394043
vn 0.5830078 -0.7631836 0.2792969
vn 0.8222656 0.4101563 0.394043
vn 0.6274414 -0.7636719 0.1517334
vn -0.06994629 -0.4101563 -0.9091797
vn -0.04959106 -0.7631836 -0.6445313
vn 0.1206055 0.4106445 -0.9038086
vn 0.08538818 -0.7636719 -0.6396484
vn 0.8862305 -0.4106445 0.2143555
vn 0.8862305 0.4106445 0.2143555
vn 0.1206055 -0.4106445 -0.9038086
vn 0.3059082 0.4101563 -0.8588867
vn 0.9116211 -0.4101563 0.02546692
vn 0.6459961 -0.7631836 0.01805115
vn 0.9116211 0.4101563 0.02546692
vn 0.6347656 -0.7636719 -0.1165161
vn 0.3059082 -0.4101563 -0.859375
vn 0.2169189 -0.7631836 -0.6088867
vn 0.4777832 0.4106445 -0.7763672
vn 0.3381348 -0.7636719 -0.5498047
vn 0.8969727 -0.4106445 -0.1645508
vn 0.8969727 0.4106445 -0.1645508
vn 0.4777832 -0.4106445 -0.7768555
vn 0.6289063 0.4101563 -0.6606445
vn 0.8432617 -0.4101563 -0.3474121
vn 0.5976563 -0.7631836 -0.2463379
vn 0.8432617 0.4101563 -0.3474121
vn 0.5327148 -0.7636719 -0.3647461
vn 0.6289063 -0.4101563 -0.6606445
vn 0.4458008 -0.7631836 -0.4682617
vn 0.7524414 0.4106445 -0.5151367
vn 0.7524414 -0.4106445 -0.5151367
g Record_0
f 3/3/3 2/2/2 1/1/1
f 2/2/2 4/4/4 1/1/1
f 5/5/5 4/4/4 2/2/2
f 6/6/6 5/5/5 2/2/2
f 5/5/5 7/7/7 4/4/4
f 7/7/7 5/5/5 8/8/8
f 9/9/9 1/1/1 4/4/4
f 7/7/7 10/10/10 4/4/4
f 10/10/10 9/9/9 4/4/4
f 11/11/11 7/7/7 8/8/8
f 7/7/7 12/12/12 10/10/10
f 12/12/12 7/7/7 11/11/11
f 13/13/13 11/11/11 8/8/8
f 14/14/14 13/13/13 8/8/8
f 13/13/13 14/14/14 15/15/15
f 13/13/13 16/16/16 11/11/11
f 17/17/17 13/13/13 15/15/15
f 16/16/16 13/13/13 17/17/17
f 16/16/16 18/18/18 11/11/11
f 18/18/18 12/12/12 11/11/11
f 18/18/18 16/16/16 19/19/19
f 19/19/19 16/16/16 17/17/17
f 12/12/12 18/18/18 19/19/19
f 20/20/20 17/17/17 15/15/15
f 21/21/21 20/20/20 15/15/15
f 20/20/20 21/21/21 22/22/22
f 23/23/23 19/19/19 17/17/17
f 12/12/12 19/19/19 23/23/23
f 20/20/20 23/23/23 17/17/17
f 12/12/12 24/24/24 10/10/10
f 24/24/24 12/12/12 23/23/23
f 25/25/25 20/20/20 22/22/22
f 23/23/23 20/20/20 25/25/25
f 24/24/24 26/26/26 10/10/10
f 26/26/26 9/9/9 10/10/10
f 24/24/24 23/23/23 27/27/27
f 27/27/27 23/23/23 25/25/25
f 26/26/26 24/24/24 27/27/27
f 28/28/28 25/25/25 22/22/22
f 29/29/29 28/28/28 22/22/22
f 28/28/28 29/29/29 30/30/30
f 31/31/31 27/27/27 25/25/25
f 28/28/28 31/31/31 25/25/25
f 26/26/26 27/27/27 31/31/31
f 32/32/32 28/28/28 30/30/30
f 31/31/31 28/28/28 32/32/32
f 33/33/33 32/32/32 30/30/30
f 34/34/34 33/33/33 30/30/30
f 33/33/33 34/34/34 35/35/35
f 9/9/9 26/26/26 36/36/36
f 37/37/37 26/26/26 31/31/31
f 26/26/26 37/37/37 36/36/36
f 38/38/38 31/31/31 32/32/32
f 37/37/37 31/31/31 38/38/38
f 33/33/33 39/39/39 32/32/32
f 39/39/39 38/38/38 32/32/32
f 40/40/40 37/37/37 38/38/38
f 37/37/37 40/40/40 36/36/36
f 40/40/40 38/38/38 39/39/39
f 41/41/41 33/33/33 35/35/35
f 39/39/39 33/33/33 41/41/41
f 9/9/9 36/36/36 42/42/42
f 1/1/1 9/9/9 42/42/42
f 1/1/1 42/42/42 43/43/43
f 44/44/44 1/1/1 43/43/43
f 36/36/36 45/45/45 42/42/42
f 40/40/40 45/45/45 36/36/36
f 45/45/45 46/46/46 42/42/42
f 46/46/46 45/45/45 47/47/47
f 45/45/45 40/40/40 48/48/48
f 45/45/45 48/48/48 47/47/47
f 49/49/49 40/40/40 39/39/39
f 40/40/40 49/49/49 48/48/48
f 48/48/48 50/50/50 47/47/47
f 50/50/50 51/51/51 47/47/47
f 51/51/51 50/50/50 52/52/52
f 49/49/49 39/39/39 53/53/53
f 53/53/53 39/39/39 41/41/41
f 49/49/49 54/54/54 48/48/48
f 54/54/54 50/50/50 48/48/48
f 54/54/54 49/49/49 53/53/53
f 50/50/50 55/55/55 52/52/52
f 50/50/50 54/54/54 55/55/55
f 56/56/56 53/53/53 41/41/41
f 54/54/54 53/53/53 56/56/56
f 55/55/55 57/57/57 52/52/52
f 57/57/57 58/58/58 52/52/52
f 58/58/58 57/57/57 59/59/59
f 54/54/54 60/60/60 55/55/55
f 60/60/60 54/54/54 56/56/56
f 61/61/61 57/57/57 55/55/55
f 60/60/60 61/61/61 55/55/55
f 57/57/57 62/62/62 59/59/59
f 57/57/57 61/61/61 62/62/62
f 63/63/63 56/56/56 41/41/41
f 63/63/63 41/41/41 35/35/35
f 64/64/64 63/63/63 35/35/35
f 63/63/63 64/64/64 65/65/65
f 60/60/60 56/56/56 66/66/66
f 61/61/61 60/60/60 66/66/66
f 56/56/56 63/63/63 67/67/67
f 67/67/67 63/63/63 65/65/65
f 66/66/66 56/56/56 67/67/67
f 61/61/61 66/66/66 68/68/68
f 68/68/68 66/66/66 67/67/67
f 69/69/69 67/67/67 65/65/65
f 69/69/69 68/68/68 67/67/67
f 70/70/70 69/69/69 65/65/65
f 69/69/69 70/70/70 71/71/71
f 72/72/72 69/69/69 71/71/71
f 68/68/68 69/69/69 72/72/72
f 73/73/73 61/61/61 68/68/68
f 61/61/61 73/73/73 62/62/62
f 73/73/73 68/68/68 74/74/74
f 74/74/74 68/68/68 72/72/72
f 75/75/75 72/72/72 71/71/71
f 76/76/76 75/75/75 71/71/71
f 75/75/75 76/76/76 77/77/77
f 73/73/73 78/78/78 62/62/62
f 78/78/78 73/73/73 74/74/74
f 79/79/79 74/74/74 72/72/72
f 75/75/75 79/79/79 72/72/72
f 78/78/78 74/74/74 79/79/79
f 80/80/80 75/75/75 77/77/77
f 79/79/79 75/75/75 80/80/80
f 78/78/78 81/81/81 62/62/62
f 62/62/62 81/81/81 59/59/59
f 81/81/81 82/82/82 59/59/59
f 82/82/82 81/81/81 83/83/83
f 81/81/81 78/78/78 84/84/84
f 81/81/81 84/84/84 83/83/83
f 85/85/85 78/78/78 79/79/79
f 78/78/78 85/85/85 84/84/84
f 84/84/84 86/86/86 83/83/83
f 86/86/86 87/87/87 83/83/83
f 87/87/87 86/86/86 88/88/88
f 85/85/85 79/79/79 89/89/89
f 89/89/89 79/79/79 80/80/80
f 85/85/85 90/90/90 84/84/84
f 90/90/90 86/86/86 84/84/84
f 90/90/90 85/85/85 89/89/89
f 86/86/86 91/91/91 88/88/88
f 86/86/86 90/90/90 91/91/91
f 92/92/92 89/89/89 80/80/80
f 90/90/90 89/89/89 92/92/92
f 90/90/90 93/93/93 91/91/91
f 92/92/92 93/93/93 90/90/90
f 93/93/93 92/92/92 91/91/91
f 91/91/91 94/94/94 88/88/88
f 92/92/92 94/94/94 91/91/91
f 94/94/94 92/92/92 80/80/80
f 94/94/94 95/95/95 88/88/88
f 94/94/94 80/80/80 77/77/77
f 95/95/95 94/94/94 77/77/77
f 43/43/43 97/97/97 96/96/96
f 98/98/98 43/43/43 96/96/96
f 98/98/98 96/96/96 99/99/99
f 100/100/100 98/98/98 99/99/99
f 100/100/100 99/99/99 101/101/101
f 98/98/98 102/102/102 43/43/43
f 102/102/102 98/98/98 100/100/100
f 102/102/102 103/103/103 43/43/43
f 104/104/104 102/102/102 100/100/100
f 103/103/103 105/105/105 43/43/43
f 105/105/105 44/44/44 43/43/43
f 44/44/44 105/105/105 106/106/106
f 105/105/105 107/107/107 106/106/106
f 107/107/107 108/108/108 106/106/106
f 108/108/108 109/109/109 106/106/106
f 110/110/110 104/104/104 100/100/100
f 111/111/111 100/100/100 101/101/101
f 111/111/111 110/110/110 100/100/100
f 111/111/111 101/101/101 112/112/112
f 109/109/109 108/108/108 113/113/113
f 109/109/109 113/113/113 114/114/114
f 108/108/108 115/115/115 113/113/113
f 113/113/113 116/116/116 114/114/114
f 115/115/115 117/117/117 113/113/113
f 110/110/110 111/111/111 118/118/118
f 118/118/118 111/111/111 112/112/112
f 119/119/119 110/110/110 118/118/118
f 118/118/118 112/112/112 120/120/120
f 121/121/121 119/119/119 118/118/118
f 113/113/113 122/122/122 116/116/116
f 117/117/117 122/122/122 113/113/113
f 122/122/122 123/123/123 116/116/116
f 124/124/124 118/118/118 120/120/120
f 124/124/124 121/121/121 118/118/118
f 124/124/124 120/120/120 125/125/125
f 122/122/122 117/117/117 126/126/126
f 122/122/122 126/126/126 123/123/123
f 117/117/117 127/127/127 126/126/126
f 126/126/126 128/128/128 123/123/123
f 127/127/127 129/129/129 126/126/126
f 121/121/121 124/124/124 130/130/130
f 130/130/130 124/124/124 125/125/125
f 131/131/131 121/121/121 130/130/130
f 130/130/130 125/125/125 132/132/132
f 133/133/133 131/131/131 130/130/130
f 126/126/126 134/134/134 128/128/128
f 129/129/129 134/134/134 126/126/126
f 134/134/134 135/135/135 128/128/128
f 136/136/136 130/130/130 132/132/132
f 136/136/136 133/133/133 130/130/130
f 136/136/136 132/132/132 137/137/137
f 134/134/134 129/129/129 138/138/138
f 134/134/134 138/138/138 135/135/135
f 129/129/129 139/139/139 138/138/138
f 138/138/138 140/140/140 135/135/135
f 139/139/139 141/141/141 138/138/138
f 133/133/133 136/136/136 142/142/142
f 142/142/142 136/136/136 137/137/137
f 143/143/143 133/133/133 142/142/142
f 142/142/142 137/137/137 144/144/144
f 145/145/145 143/143/143 142/142/142
f 138/138/138 146/146/146 140/140/140
f 141/141/141 146/146/146 138/138/138
f 146/146/146 147/147/147 140/140/140
f 148/148/148 142/142/142 144/144/144
f 148/148/148 145/145/145 142/142/142
f 148/148/148 144/144/144 149/149/149
f 146/146/146 141/141/141 150/150/150
f 146/146/146 150/150/150 147/147/147
f 141/141/141 151/151/151 150/150/150
f 150/150/150 152/152/152 147/147/147
f 151/151/151 153/153/153 150/150/150
f 145/145/145 148/148/148 154/154/154
f 154/154/154 148/148/148 149/149/149
f 155/155/155 145/145/145 154/154/154
f 154/154/154 149/149/149 156/156/156
f 157/157/157 155/155/155 154/154/154
f 150/150/150 158/158/158 152/152/152
f 153/153/153 158/158/158 150/150/150
f 158/158/158 159/159/159 152/152/152
f 160/160/160 154/154/154 156/156/156
f 160/160/160 157/157/157 154/154/154
f 160/160/160 156/156/156 161/161/161
f 158/158/158 153/153/153 162/162/162
f 158/158/158 162/162/162 159/159/159
f 153/153/153 163/163/163 162/162/162
f 162/162/162 164/164/164 159/159/159
f 163/163/163 165/165/165 162/162/162
f 157/157/157 160/160/160 166/166/166
f 166/166/166 160/160/160 161/161/161
f 167/167/167 157/157/157 166/166/166
f 166/166/166 161/161/161 168/168/168
f 169/169/169 167/167/167 166/166/166
f 162/162/162 170/170/170 164/164/164
f 165/165/165 170/170/170 162/162/162
f 170/170/170 171/171/171 164/164/164
f 172/172/172 166/166/166 168/168/168
f 172/172/172 169/169/169 166/166/166
f 172/172/172 168/168/168 173/173/173
f 170/170/170 165/165/165 174/174/174
f 170/170/170 174/174/174 171/171/171
f 165/165/165 175/175/175 174/174/174
f 174/174/174 176/176/176 171/171/171
f 175/175/175 177/177/177 174/174/174
f 169/169/169 172/172/172 178/178/178
f 178/178/178 172/172/172 173/173/173
f 179/179/179 169/169/169 178/178/178
f 177/177/177 179/179/179 178/178/178
f 178/178/178 173/173/173 180/180/180
f 181/181/181 180/180/180 176/176/176
f 174/174/174 181/181/181 176/176/176
f 177/177/177 181/181/181 174/174/174
f 181/181/181 178/178/178 180/180/180
f 181/181/181 177/177/177 178/178/178
