g RecorderBox
v -0.2907072 0.08586775 0.5595824
v -0.3162465 0.04117541 0.5639712
v -0.3779977 0.02628893 0.551716
v -0.3263506 -0.2999572 0.3263505
v -0.387006 -0.2904957 0.4189214
v -0.3451506 -0.2999572 0.3137887
v -0.3137886 -0.2999572 0.3451507
v -0.4061384 -0.2904968 0.4061382
v -0.3451507 -0.2999572 -0.3137886
v -0.4061383 -0.2904968 -0.4061383
v -0.3263506 -0.2999572 -0.3263505
v -0.4189214 -0.2904957 -0.387006
v -0.3137886 -0.2999572 -0.3451506
v 0.3137886 -0.2999572 -0.3451507
v 0.4061383 -0.2904968 -0.4061382
v 0.3263505 -0.2999572 -0.3263506
v 0.387006 -0.2904957 -0.4189214
v 0.3451506 -0.2999572 -0.3137886
v 0.3451507 -0.2999572 0.3137886
v 0.4061383 -0.2904968 0.4061383
v 0.3263506 -0.2999572 0.3263505
v 0.4189214 -0.2904957 0.387006
v 0.3137886 -0.2999572 0.3451507
v 0.3064658 -0.03297958 0.5751958
v 0.3271811 0.01130794 0.5708636
v 0.3949662 0.02633408 0.5479525
v 0.3949662 0.02633408 0.5479525
v 0.3271811 0.01130794 0.5708636
v 0.332591 0.02629246 0.5674056
v -0.3779977 0.02628893 0.551716
v -0.3162465 0.04117541 0.5639712
v -0.3238348 0.02629246 0.5674056
v -0.3293723 -0.1917774 0.5769533
v -0.3779977 0.02628893 0.551716
v -0.3028009 -0.03297958 0.5751958
v -0.4241252 -0.1918025 0.5581149
v -0.4297467 -0.242129 0.5511498
v -0.3416504 -0.2421136 0.5686677
v -0.5025254 -0.2421383 0.5025255
v 0.3293723 -0.1917774 0.5769533
v -0.3028009 -0.03297958 0.5751958
v 0.3064658 -0.03297958 0.5751958
v 0.3416504 -0.2421136 0.5686677
v -0.5044507 -0.1918175 0.5044508
v -0.3779977 0.02628893 0.551716
v -0.5511498 -0.242129 0.4297467
v -0.4884992 0.02641499 0.4932613
v 0.4241251 -0.1918025 0.5581149
v 0.3064658 -0.03297958 0.5751958
v 0.3949662 0.02633408 0.5479525
v 0.4297467 -0.242129 0.5511498
v -0.5581148 -0.1918025 0.4241251
v -0.5686676 -0.2421136 0.3416504
v 0.5044507 -0.1918175 0.5044508
v 0.5025255 -0.2421383 0.5025255
v -0.5769532 -0.1917774 0.3293723
v -0.5686677 -0.2421136 -0.3416504
v -0.5433637 0.0264259 0.4111446
v -0.562627 0.02644409 0.3142802
v -0.5200443 0.3463233 0.4019429
v -0.5401403 0.3463125 0.3009323
v -0.4628229 0.3463297 0.4875765
v -0.5070376 0.3622607 0.3938777
v -0.5266135 0.362252 0.2954785
v -0.4940309 0.3781981 0.3858124
v -0.5130866 0.3781914 0.2900248
v -0.4407686 0.3782021 0.4655222
v -0.4517958 0.3622659 0.4765494
v -0.3610587 0.3781981 0.5187846
v -0.3691241 0.3622607 0.5317913
v -0.2652711 0.3781914 0.5378402
v -0.3771893 0.3463233 0.5447981
v -0.3779977 0.02628893 0.551716
v -0.2707249 0.362252 0.5513672
v 0.2755718 0.3781914 0.5378402
v 0.2810255 0.362252 0.5513672
v 0.3713593 0.3781981 0.5187845
v -0.2761787 0.3463125 0.564894
v 0.3794247 0.3622607 0.5317912
v 0.4510692 0.3782021 0.4655222
v -0.2907072 0.08586775 0.5595824
v -0.3779977 0.02628893 0.551716
v 0.2943723 0.08586775 0.5595824
v 0.2864793 0.3463125 0.564894
v 0.3949662 0.02633408 0.5479525
v 0.38749 0.3463233 0.544798
v 0.4620964 0.3622659 0.4765494
v 0.5043316 0.3781981 0.3858124
v 0.4731234 0.3463297 0.4875765
v 0.3949662 0.02633408 0.5479525
v 0.492164 0.02641499 0.4932612
v 0.5173383 0.3622607 0.3938777
v 0.5233873 0.3781914 0.2900248
v 0.5303451 0.3463233 0.401943
v 0.5369142 0.362252 0.2954785
v 0.5233873 0.3781914 -0.2508181
v 0.5369141 0.3622519 -0.2562718
v 0.550441 0.3463125 0.3009323
v 0.5504409 0.3463125 -0.2617256
v 0.547029 0.0264259 0.4111446
v 0.5662919 0.02644409 0.3142803
v 0.5662919 0.02644403 -0.308421
v 0.5769532 -0.1917774 0.3293723
v 0.5769533 -0.1917774 -0.3293722
v 0.5686677 -0.2421136 0.3416504
v 0.5511499 -0.242129 0.4297468
v 0.5581149 -0.1918025 0.4241252
v 0.3949662 0.02633408 0.5479525
v 0.3221568 0.04117541 0.5639712
v 0.2943723 0.08586775 0.5595824
v 0.3949662 0.02633408 0.5479525
v 0.332591 0.02629246 0.5674056
v -0.387006 -0.2904957 0.4189214
v -0.3263506 -0.2999572 0.3263505
v -0.4061384 -0.2904968 0.4061382
v -0.4167123 -0.2823779 0.5022717
v -0.4680027 -0.2823823 0.4680027
v -0.4189214 -0.2904957 0.387006
v -0.3137886 -0.2999572 0.3451507
v -0.347566 -0.2823706 0.516023
v -0.3462186 -0.2904938 0.4270339
v -0.3451506 -0.2999572 0.3137887
v -0.3137886 -0.2999572 -0.3451506
v -0.3263506 -0.2999572 0.3263505
v -0.4297467 -0.242129 0.5511498
v -0.3416504 -0.2421136 0.5686677
v -0.5025254 -0.2421383 0.5025255
v 0.3416504 -0.2421136 0.5686677
v -0.5022715 -0.2823779 0.4167122
v -0.5511498 -0.242129 0.4297467
v 0.347566 -0.2823706 0.516023
v 0.4297467 -0.242129 0.5511498
v -0.5160229 -0.2823706 0.347566
v -0.5686676 -0.2421136 0.3416504
v -0.4270339 -0.2904938 0.3462185
v -0.5160229 -0.2823706 -0.347566
v -0.5686677 -0.2421136 -0.3416504
v -0.4270339 -0.2904938 -0.3462186
v -0.3152482 -0.2999572 -0.3378132
v -0.3152481 -0.2999572 0.3378131
v 0.3462185 -0.2904938 0.4270339
v -0.3378133 -0.2999572 0.3152481
v 0.3451507 -0.2999572 0.3137886
v 0.4167122 -0.2823779 0.5022716
v 0.5025255 -0.2421383 0.5025255
v 0.3378132 -0.2999572 0.3152481
v 0.387006 -0.2904957 0.4189214
v 0.4680026 -0.2823823 0.4680027
v 0.5511499 -0.242129 0.4297468
v 0.4061383 -0.2904968 0.4061383
v 0.5022716 -0.2823779 0.4167123
v 0.5686677 -0.2421136 0.3416504
v 0.5160229 -0.2823706 0.3475661
v 0.4189214 -0.2904957 0.387006
v 0.3263506 -0.2999572 0.3263505
v 0.4270339 -0.2904938 0.3462186
v 0.3137886 -0.2999572 0.3451507
v 0.3152481 -0.2999572 0.3378133
v 0.3137886 -0.2999572 0.3451507
v 0.3263506 -0.2999572 0.3263505
v 0.3137886 -0.2999572 -0.3451507
v 0.3152481 -0.2999572 0.3378133
v 0.3451506 -0.2999572 -0.3137886
v 0.3263505 -0.2999572 -0.3263506
v -0.3451507 -0.2999572 -0.3137886
v -0.3263506 -0.2999572 -0.3263505
v 0.3152481 -0.2999572 -0.3378132
v 0.4189214 -0.2904957 -0.387006
v 0.4061383 -0.2904968 -0.4061382
v 0.4270339 -0.2904938 -0.3462185
v 0.4270339 -0.2904938 0.3462186
v 0.5160229 -0.2823706 -0.3475659
v 0.5160229 -0.2823706 0.3475661
v 0.5022715 -0.2823779 -0.4167121
v 0.5686677 -0.2421136 -0.3416503
v 0.5686677 -0.2421136 0.3416504
v 0.5511498 -0.242129 -0.4297467
v 0.5025255 -0.2421383 -0.5025254
v 0.4680027 -0.2823823 -0.4680026
v 0.4297467 -0.2421291 -0.5511498
v 0.4167123 -0.2823779 -0.5022715
v 0.3416504 -0.2421136 -0.5686677
v 0.387006 -0.2904957 -0.4189214
v 0.3263505 -0.2999572 -0.3263506
v 0.347566 -0.2823706 -0.5160228
v -0.3416504 -0.2421136 -0.5686676
v 0.3462186 -0.2904938 -0.4270339
v -0.3475661 -0.2823706 -0.5160229
v -0.4297467 -0.2421291 -0.5511498
v 0.3378132 -0.2999572 -0.3152481
v -0.4167122 -0.2823779 -0.5022715
v -0.5025255 -0.2421383 -0.5025254
v -0.3462185 -0.2904938 -0.4270339
v -0.3378132 -0.2999572 -0.3152481
v -0.387006 -0.2904957 -0.4189214
v -0.4061383 -0.2904968 -0.4061383
v -0.4680027 -0.2823823 -0.4680027
v -0.5511498 -0.242129 -0.4297467
v -0.5022716 -0.2823779 -0.4167122
v -0.5686677 -0.2421136 -0.3416504
v -0.5160229 -0.2823706 -0.347566
v -0.4189214 -0.2904957 -0.387006
v -0.3263506 -0.2999572 -0.3263505
v -0.4270339 -0.2904938 -0.3462186
v -0.3137886 -0.2999572 -0.3451506
v -0.3152482 -0.2999572 -0.3378132
v 0.5686677 -0.2421136 0.3416504
v 0.5769533 -0.1917774 -0.3293722
v 0.5686677 -0.2421136 -0.3416503
v 0.5581149 -0.1918024 -0.4241251
v 0.5511498 -0.242129 -0.4297467
v 0.5470288 0.02642584 -0.4052854
v 0.5662919 0.02644403 -0.308421
v 0.5044507 -0.1918175 -0.5044508
v 0.5025255 -0.2421383 -0.5025254
v 0.4921641 0.02641505 -0.4874019
v 0.530345 0.3463233 -0.3627364
v 0.5504409 0.3463125 -0.2617256
v 0.4241251 -0.1918025 -0.5581149
v 0.4297467 -0.2421291 -0.5511498
v 0.4731235 0.3463296 -0.4483698
v 0.5173383 0.3622606 -0.3546711
v 0.5369141 0.3622519 -0.2562718
v 0.4100473 0.02642596 -0.5422668
v 0.3293723 -0.1917775 -0.5769532
v 0.3416504 -0.2421136 -0.5686677
v 0.5043316 0.378198 -0.3466057
v 0.5233873 0.3781914 -0.2508181
v 0.4510693 0.378202 -0.4263156
v 0.4620964 0.3622659 -0.4373427
v 0.3713594 0.378198 -0.479578
v 0.3794247 0.3622606 -0.4925846
v 0.2755717 0.3781914 -0.4986337
v 0.38749 0.3463233 -0.5055915
v 0.2810255 0.3622518 -0.5121606
v -0.2652711 0.3781914 -0.4986336
v 0.2864794 0.3463124 -0.5256874
v -0.2707249 0.3622518 -0.5121605
v -0.3610587 0.378198 -0.4795781
v 0.3131831 0.02644412 -0.5615298
v -0.369124 0.3622606 -0.4925846
v -0.4407685 0.378202 -0.4263157
v -0.2761787 0.3463124 -0.5256874
v -0.3095183 0.02644412 -0.5615297
v -0.4517957 0.3622659 -0.4373428
v -0.494031 0.378198 -0.3466058
v -0.3771893 0.3463233 -0.5055915
v -0.3293723 -0.1917775 -0.5769533
v -0.3416504 -0.2421136 -0.5686676
v -0.5070378 0.3622606 -0.3546711
v -0.5130866 0.3781914 -0.250818
v -0.4628228 0.3463296 -0.44837
v -0.4063825 0.0264259 -0.5422668
v -0.4241252 -0.1918025 -0.5581149
v -0.4297467 -0.2421291 -0.5511498
v -0.5266135 0.3622519 -0.2562718
v -0.5130866 0.3781914 0.2900248
v -0.5266135 0.362252 0.2954785
v -0.5200444 0.3463233 -0.3627364
v -0.4884991 0.02641505 -0.487402
v -0.5044507 -0.1918175 -0.5044508
v -0.5025255 -0.2421383 -0.5025254
v -0.5401403 0.3463125 -0.2617256
v -0.5401403 0.3463125 0.3009323
v -0.543364 0.0264259 -0.4052854
v -0.5581149 -0.1918024 -0.4241252
v -0.5511498 -0.242129 -0.4297467
v -0.5626268 0.02644403 -0.308421
v -0.562627 0.02644409 0.3142802
v -0.5769532 -0.1917774 -0.3293723
v -0.5686677 -0.2421136 -0.3416504
v -0.5769532 -0.1917774 0.3293723
v -0.3184248 0.01130794 0.5708635
v -0.3028009 -0.03297958 0.5751958
v -0.3779977 0.02628893 0.551716
v -0.3238348 0.02629246 0.5674056
v 0.2943723 0.08586775 0.5595824
v -0.3162465 0.04117541 0.5639712
v -0.2907072 0.08586775 0.5595824
v 0.3221568 0.04117541 0.5639712
v 0.3271811 0.01130794 0.5708636
v -0.3028009 -0.03297958 0.5751958
v -0.3184248 0.01130794 0.5708635
v 0.3064658 -0.03297958 0.5751958
v -0.3184248 0.01130794 0.5708635
v 0.332591 0.02629246 0.5674056
v 0.3271811 0.01130794 0.5708636
v -0.3238348 0.02629246 0.5674056
v 0.3221568 0.04117541 0.5639712
v -0.3162465 0.04117541 0.5639712
v -0.266737 0.2998898 0.5916673
v -0.2997389 0.2638962 0.5331139
v -0.266737 0.2777694 0.5282731
v -0.299739 0.2860167 0.5965081
v -0.3109022 0.2314573 0.544433
v -0.2667369 0.2985001 0.6054671
v -0.3109022 0.2535777 0.6078272
v -0.2844048 0.1983728 0.5559773
v -0.2844048 0.2204932 0.6193715
v -0.282074 0.2295779 0.6295164
v -0.3050757 0.2582977 0.6194951
v -0.2953852 0.2864571 0.6096693
v -0.2753071 0.2469271 0.6331038
v -0.2881603 0.2629753 0.6275041
v -0.2827453 0.2787105 0.6220135
v -0.2540753 0.248647 0.6325037
v -0.2440779 0.2326559 0.6284424
v -0.2507286 0.2787105 0.6220135
v -0.2453136 0.2629753 0.6275041
v -0.266737 0.28544 0.6196653
v -0.2380888 0.2864571 0.6096693
v -0.2844048 0.2204932 0.6193715
v -0.2406343 0.2019186 0.5547401
v -0.2844048 0.1983728 0.5559773
v -0.2406343 0.224039 0.6181342
v -0.2225717 0.2314573 0.5444329
v -0.2440779 0.2326559 0.6284424
v -0.282074 0.2295779 0.6295164
v -0.2225717 0.2535777 0.6078271
v -0.233735 0.2638962 0.5331138
v -0.2283982 0.2582977 0.6194951
v -0.233735 0.2860167 0.596508
v -0.266737 0.2777694 0.5282731
v -0.266737 0.2998898 0.5916673
v -0.2667369 0.2985001 0.6054671
v -0.2380888 0.2864571 0.6096693
v -0.2507286 0.2787105 0.6220135
v -0.2453136 0.2629753 0.6275041
v -0.2540753 0.248647 0.6325037
v -0.266737 0.2777694 0.5282731
v -0.2225717 0.2314573 0.5444329
v -0.233735 0.2638962 0.5331138
v -0.2406343 0.2019186 0.5547401
v -0.2844048 0.1983728 0.5559773
v -0.3109022 0.2314573 0.544433
v -0.2997389 0.2638962 0.5331139
v 0.1496468 0.06011158 0.5834786
v 0.1496468 -0.01745069 0.6096875
v 0.1496468 -0.01801705 0.5892608
v 0.1496468 0.06067795 0.6039053
v 0.1508999 -0.01443532 0.6145839
v 0.1509 0.0671736 0.6034246
v 0.1508999 0.06660725 0.5829979
v 0.1509 0.06369331 0.6088017
v 0.1544685 -0.01183745 0.6188021
v 0.1544685 0.06629121 0.6130199
v 0.1553057 0.07241303 0.6121028
v 0.1524123 0.07033417 0.6083978
v 0.1566047 0.07835764 0.6109429
v 0.1553057 0.07724163 0.6077049
v 0.1544685 0.07482311 0.6028586
v 0.1544685 0.07425663 0.5824317
v 0.173129 -0.0352802 0.5905383
v 0.1544685 -0.03216216 0.5903075
v 0.1634555 -0.03446987 0.5904784
v 0.1508999 -0.02451271 0.5897415
v 0.1496468 -0.01801705 0.5892608
v 0.1496468 0.06011158 0.5834786
v 0.1508999 0.06660725 0.5829979
v 0.1544685 0.07425663 0.5824317
v 0.1634555 0.07656416 0.582261
v 0.173129 0.07737455 0.5822011
v 0.3003793 0.07737455 0.5822011
v 0.3106368 0.07656416 0.5822611
v 0.3190396 0.07425663 0.5824319
v 0.3226083 0.06660725 0.582998
v 0.3238614 0.06011158 0.5834787
v 0.3238614 -0.01801705 0.5892609
v 0.3226083 -0.02451271 0.5897416
v 0.3190396 -0.03216216 0.5903077
v 0.3106368 -0.03446987 0.5904785
v 0.3003792 -0.0352802 0.5905384
v 0.1633045 -0.01775524 0.6203796
v 0.1566047 -0.0252986 0.6186144
v 0.1553057 -0.01850596 0.6188316
v 0.1634555 -0.01067251 0.6206936
v 0.1544685 -0.01183745 0.6188021
v 0.1544685 0.06629121 0.6130199
v 0.173129 -0.01026347 0.6213579
v 0.173129 -0.01716816 0.6211744
v 0.1634555 0.06745626 0.6149114
v 0.1553057 0.07241303 0.6121028
v 0.3003792 -0.01026347 0.6213579
v 0.3003792 -0.01716816 0.6211745
v 0.3107879 -0.01775524 0.6203797
v 0.1633045 0.0735516 0.6136221
v 0.1566047 0.07835764 0.6109429
v 0.1636179 0.0796217 0.6115693
v 0.173129 0.0678653 0.6155757
v 0.173129 0.07395181 0.6144307
v 0.173129 0.08043623 0.6119731
v 0.3003792 0.08043623 0.6119732
v 0.3003792 0.07395181 0.6144308
v 0.3104744 0.0796217 0.6115695
v 0.3003792 0.0678653 0.6155758
v 0.3107879 0.0735516 0.6136222
v 0.3169035 0.07835764 0.610943
v 0.3182024 0.07241303 0.6121029
v 0.3106368 0.06745626 0.6149115
v 0.3190396 0.06629121 0.6130199
v 0.3190396 -0.01183745 0.6188022
v 0.3106368 -0.01067251 0.6206937
v 0.3182024 -0.01850596 0.6188317
v 0.3169035 -0.0252986 0.6186145
v 0.1566047 -0.0252986 0.6186144
v 0.1633045 -0.01775524 0.6203796
v 0.1636179 -0.02571446 0.619365
v 0.173129 -0.01716816 0.6211744
v 0.173129 -0.02598247 0.6198489
v 0.3003792 -0.01716816 0.6211745
v 0.3003792 -0.02598247 0.619849
v 0.3104744 -0.02571446 0.6193652
v 0.3107879 -0.01775524 0.6203797
v 0.3169035 -0.0252986 0.6186145
v 0.1553057 -0.01850596 0.6188316
v 0.1508999 -0.01443532 0.6145839
v 0.1544685 -0.01183745 0.6188021
v 0.1524123 -0.02097294 0.6151553
v 0.1566047 -0.0252986 0.6186144
v 0.1553057 -0.02809444 0.6155006
v 0.1496468 -0.01745069 0.6096875
v 0.1509 -0.02394632 0.6101682
v 0.1544685 -0.0315958 0.6107343
v 0.1544685 -0.03216216 0.5903075
v 0.1508999 -0.02451271 0.5897415
v 0.1496468 -0.01801705 0.5892608
v 0.3210958 -0.02097294 0.6151553
v 0.3203563 -0.01745069 0.6096876
v 0.3226082 -0.02394632 0.6101683
v 0.3238614 -0.01801705 0.5892609
v 0.3203563 0.06067795 0.6039054
v 0.3238614 0.06011158 0.5834787
v 0.3226083 0.06660725 0.582998
v 0.3226082 0.0671736 0.6034247
v 0.3190396 0.07425663 0.5824319
v 0.3190396 0.07482311 0.6028587
v 0.3182024 0.07724163 0.6077051
v 0.3210958 0.07033417 0.6083978
v 0.3169035 0.07835764 0.610943
v 0.3182024 0.07241303 0.6121029
v 0.3226082 0.06369331 0.6088017
v 0.3190396 0.06629121 0.6130199
v 0.3226082 -0.01443532 0.614584
v 0.3190396 -0.01183745 0.6188022
v 0.3226082 -0.01443532 0.614584
v 0.3182024 -0.01850596 0.6188317
v 0.3190396 -0.01183745 0.6188022
v 0.3210958 -0.02097294 0.6151553
v 0.3169035 -0.0252986 0.6186145
v 0.3182024 -0.02809444 0.6155007
v 0.3203563 -0.01745069 0.6096876
v 0.3226082 0.06369331 0.6088017
v 0.3203563 0.06067795 0.6039054
v 0.3226082 -0.02394632 0.6101683
v 0.3190396 -0.0315958 0.6107344
v 0.3226083 -0.02451271 0.5897416
v 0.3190396 -0.03216216 0.5903077
v 0.3238614 -0.01801705 0.5892609
v 0.3210958 0.07033417 0.6083978
v 0.3226082 0.0671736 0.6034247
v 0.3226083 0.06660725 0.582998
v 0.1544685 -0.0315958 0.6107343
v 0.1634555 -0.03446987 0.5904784
v 0.1544685 -0.03216216 0.5903075
v 0.1634555 -0.03390351 0.6109051
v 0.1553057 -0.02809444 0.6155006
v 0.173129 -0.0352802 0.5905383
v 0.1633045 -0.02985844 0.6158128
v 0.1566047 -0.0252986 0.6186144
v 0.1636179 -0.02571446 0.619365
v 0.173129 -0.03471372 0.6109651
v 0.173129 -0.03088802 0.6158015
v 0.173129 -0.02598247 0.6198489
v 0.3003792 -0.02598247 0.619849
v 0.3003792 -0.03088802 0.6158016
v 0.3104744 -0.02571446 0.6193652
v 0.3003792 -0.03471372 0.6109652
v 0.3003792 -0.0352802 0.5905384
v 0.3106368 -0.03446987 0.5904785
v 0.3107879 -0.02985844 0.6158129
v 0.3169035 -0.0252986 0.6186145
v 0.3182024 -0.02809444 0.6155007
v 0.3106368 -0.03390351 0.6109052
v 0.3190396 -0.03216216 0.5903077
v 0.3190396 -0.0315958 0.6107344
v 0.3190396 0.07482311 0.6028587
v 0.3106368 0.07656416 0.5822611
v 0.3190396 0.07425663 0.5824319
v 0.3106368 0.07713065 0.6026878
v 0.3182024 0.07724163 0.6077051
v 0.3003793 0.07737455 0.5822011
v 0.3107879 0.07921959 0.6077402
v 0.3169035 0.07835764 0.610943
v 0.3104744 0.0796217 0.6115695
v 0.3003792 0.0779409 0.6026279
v 0.3003792 0.08014601 0.6075842
v 0.3003792 0.08043623 0.6119732
v 0.173129 0.08043623 0.6119731
v 0.173129 0.08014601 0.6075841
v 0.1636179 0.0796217 0.6115693
v 0.173129 0.0779409 0.6026278
v 0.173129 0.07737455 0.5822011
v 0.1634555 0.07656416 0.582261
v 0.1633045 0.07921959 0.6077401
v 0.1566047 0.07835764 0.6109429
v 0.1553057 0.07724163 0.6077049
v 0.1634555 0.07713065 0.6026878
v 0.1544685 0.07425663 0.5824317
v 0.1544685 0.07482311 0.6028586
v 0.1301452 0.5246092 0.0327408
v 0.1246824 0.3204107 -0.019235
v 0.1301452 0.3204107 0.0327408
v 0.1246824 0.5246092 -0.019235
v 0.09855131 0.3204107 -0.06449531
v 0.1112497 0.5579622 -0.01487045
v 0.1160987 0.5579622 0.03126445
v 0.08805519 0.5579622 -0.05504458
v 0.09855131 0.5246092 -0.06449531
v 0.05627039 0.3204107 -0.09521417
v 0.05052567 0.5579622 -0.08231135
v 0.05627039 0.5246092 -0.09521417
v 0.00515034 0.3204107 -0.10608
v 0.005150344 0.5579622 -0.09195618
v 0.00515034 0.5246092 -0.10608
v -0.0459697 0.3204107 -0.09521417
v -0.04022498 0.5579622 -0.08231132
v -0.0459697 0.5246092 -0.09521417
v -0.08825061 0.3204107 -0.06449528
v -0.07775449 0.5579622 -0.05504458
v -0.08825061 0.5246092 -0.06449528
v -0.1143817 0.3204107 -0.01923499
v -0.100949 0.5579622 -0.01487046
v -0.1143817 0.5246092 -0.01923499
v -0.1198445 0.3204107 0.0327408
v -0.105798 0.5579622 0.03126445
v -0.1198445 0.5246092 0.0327408
v -0.1198445 0.5246092 0.0327408
v -0.1036947 0.3204107 0.08244503
v -0.1198445 0.3204107 0.0327408
v -0.1036947 0.5246092 0.08244503
v -0.06872449 0.3204107 0.1212833
v -0.09146299 0.5579622 0.07538304
v -0.105798 0.5579622 0.03126445
v -0.06042267 0.5579622 0.1098568
v -0.06872449 0.5246092 0.1212833
v -0.02098071 0.3204107 0.1425402
v -0.01804417 0.5579622 0.1287249
v -0.02098071 0.5246092 0.1425402
v 0.0312814 0.3204107 0.1425402
v 0.02834486 0.5579622 0.128725
v 0.0312814 0.5246092 0.1425402
v 0.07902521 0.3204107 0.1212833
v 0.07072335 0.5579622 0.1098568
v 0.07902521 0.5246092 0.1212833
v 0.1139954 0.3204107 0.08244503
v 0.1017637 0.5579622 0.07538304
v 0.1139954 0.5246092 0.08244503
v 0.1301452 0.3204107 0.0327408
v 0.1160987 0.5579622 0.03126445
v 0.1301452 0.5246092 0.0327408
v 0.00515034 0.3204107 -0.10608
v 0.09855131 0.3204107 -0.06449531
v 0.05627039 0.3204107 -0.09521417
v 0.1246824 0.3204107 -0.019235
v 0.1301452 0.3204107 0.0327408
v 0.1139954 0.3204107 0.08244503
v 0.07902521 0.3204107 0.1212833
v 0.0312814 0.3204107 0.1425402
v -0.02098071 0.3204107 0.1425402
v -0.06872449 0.3204107 0.1212833
v -0.1036947 0.3204107 0.08244503
v -0.1198445 0.3204107 0.0327408
v -0.1143817 0.3204107 -0.01923499
v -0.08825061 0.3204107 -0.06449528
v -0.0459697 0.3204107 -0.09521417
v 0.1017637 0.5579622 0.07538304
v 0.08218732 0.5717775 0.02770022
v 0.1160987 0.5579622 0.03126445
v 0.0722338 0.5717775 0.05833396
v 0.07072335 0.5579622 0.1098568
v 0.05068095 0.5717775 0.08227082
v 0.02834486 0.5579622 0.128725
v 0.02125547 0.5717775 0.09537192
v -0.01804417 0.5579622 0.1287249
v -0.01095477 0.5717775 0.09537189
v -0.06042267 0.5579622 0.1098568
v -0.04038027 0.5717775 0.08227083
v -0.09146299 0.5579622 0.07538304
v -0.06193312 0.5717775 0.05833396
v -0.105798 0.5579622 0.03126445
v -0.07188662 0.5717775 0.02770023
v -0.100949 0.5579622 -0.01487046
v -0.07188662 0.5717775 0.02770023
v -0.105798 0.5579622 0.03126445
v -0.06851975 0.5717775 -0.004333556
v 0.03665671 0.5717775 -0.05116113
v -0.06193312 0.5717775 0.05833396
v -0.04038027 0.5717775 0.08227083
v -0.01095477 0.5717775 0.09537189
v 0.02125547 0.5717775 0.09537192
v 0.05068095 0.5717775 0.08227082
v 0.0722338 0.5717775 0.05833396
v 0.08218732 0.5717775 0.02770022
v 0.07882043 0.5717775 -0.004333571
v 0.1160987 0.5579622 0.03126445
v -0.07775449 0.5579622 -0.05504458
v 0.1112497 0.5579622 -0.01487045
v -0.05241462 0.5717775 -0.0322284
v -0.04022498 0.5579622 -0.08231132
v 0.06271531 0.5717775 -0.03222843
v 0.08805519 0.5579622 -0.05504458
v 0.05052567 0.5579622 -0.08231135
v -0.02635601 0.5717775 -0.0511611
v 0.005150344 0.5579622 -0.09195618
v 0.005150348 0.5717775 -0.05785798
v 0.4510693 0.378202 -0.4263156
v 0.3437082 0.4040706 -0.4237828
v 0.3713594 0.378198 -0.479578
v 0.4065475 0.4040706 -0.3817939
v 0.5043316 0.378198 -0.3466057
v 0.2627968 0.4040706 -0.4398783
v 0.2755717 0.3781914 -0.4986337
v 0.4485363 0.4040706 -0.3189545
v 0.5233873 0.3781914 -0.2508181
v -0.252496 0.4040706 -0.4398781
v -0.2652711 0.3781914 -0.4986336
v 0.4646317 0.4040706 -0.2380431
v 0.5233873 0.3781914 0.2900248
v -0.3334074 0.4040706 -0.4237828
v -0.3610587 0.378198 -0.4795781
v 0.4646318 0.4040708 0.2772497
v 0.5043316 0.3781981 0.3858124
v -0.3962468 0.4040706 -0.3817939
v -0.4407685 0.378202 -0.4263157
v 0.4485363 0.4040708 0.3581611
v 0.4510692 0.3782021 0.4655222
v -0.4382357 0.4040706 -0.3189545
v -0.494031 0.378198 -0.3466058
v 0.4065475 0.4040708 0.4210005
v 0.3713593 0.3781981 0.5187845
v -0.4543311 0.4040706 -0.2380431
v -0.5130866 0.3781914 -0.250818
v 0.3437081 0.4040708 0.4629893
v 0.2755718 0.3781914 0.5378402
v -0.4543311 0.4040708 0.2772497
v -0.5130866 0.3781914 0.2900248
v 0.2627968 0.4040708 0.4790847
v -0.2652711 0.3781914 0.5378402
v -0.4382357 0.4040708 0.3581612
v -0.4940309 0.3781981 0.3858124
v -0.2524961 0.4040708 0.4790848
v -0.3610587 0.3781981 0.5187846
v -0.3962469 0.4040708 0.4210005
v -0.4407686 0.3782021 0.4655222
v -0.3334076 0.4040708 0.4629893
v -0.3728189 0.4040708 0.2645521
v -0.361153 0.4040708 0.3231989
v -0.3360357 0.4040708 0.3607893
v -0.2984452 0.4040708 0.3859067
v -0.2397985 0.4040708 0.3975726
v 0.2500992 0.4040708 0.3975726
v -0.3728189 0.4040707 -0.2253455
v 0.3087458 0.4040708 0.3859067
v -0.3611531 0.4040706 -0.2839921
v 0.3463362 0.4040708 0.3607892
v -0.3360357 0.4040706 -0.3215827
v 0.3714538 0.4040708 0.3231988
v -0.2984452 0.4040706 -0.3467001
v 0.3831196 0.4040708 0.2645521
v -0.2397985 0.4040706 -0.3583659
v 0.3831195 0.4040707 -0.2253455
v 0.2500992 0.4040706 -0.3583659
v 0.3714537 0.4040706 -0.2839921
v 0.3087458 0.4040706 -0.3467001
v 0.3463362 0.4040706 -0.3215827
v -0.2614945 0.4040706 -0.2600651
v -0.2291115 0.4040706 -0.2665064
v 0.2394121 0.4040706 -0.2665064
v 0.2717952 0.4040706 -0.260065
v 0.2912601 0.4040707 -0.2146585
v -0.2693016 0.4040706 -0.2548486
v 0.2796022 0.4040706 -0.2548485
v 0.2848187 0.4040706 -0.2470415
v -0.2745181 0.4040706 -0.2470415
v -0.2809595 0.4040707 -0.2146585
v -0.2809595 0.4040708 0.2538652
v 0.2912601 0.4040708 0.2538652
v -0.274518 0.4040708 0.2862483
v 0.2848187 0.4040708 0.2862481
v -0.2693016 0.4040708 0.2940552
v 0.2796022 0.4040708 0.2940552
v -0.2614946 0.4040708 0.2992717
v 0.2717952 0.4040708 0.2992717
v -0.2291115 0.4040708 0.3057131
v 0.2394122 0.4040708 0.3057131
vt 0.04360962 0.8076172
vt 0.04333496 0.8071289
vt 0.03894043 0.8071289
vt 0.04037476 0.7905273
vt 0.03518677 0.7915039
vt 0.03875732 0.7905273
vt 0.04144287 0.7905273
vt 0.03356934 0.7915039
vt 0.03875732 0.7905273
vt 0.03356934 0.7915039
vt 0.04037476 0.7905273
vt 0.0324707 0.7915039
vt 0.04144287 0.7905273
vt 0.09503174 0.7905273
vt 0.1029053 0.7915039
vt 0.09613037 0.7905273
vt 0.1013184 0.7915039
vt 0.09771729 0.7905273
vt 0.09771729 0.7905273
vt 0.1029053 0.7915039
vt 0.09613037 0.7905273
vt 0.1040039 0.7915039
vt 0.09503174 0.7905273
vt 0.09387207 0.8051758
vt 0.09362793 0.8056641
vt 0.09796143 0.8056641
vt 0.09777832 0.8066406
vt 0.09362793 0.8056641
vt 0.09295654 0.8066406
vt 0.0383606 0.8061523
vt 0.04333496 0.8071289
vt 0.04351807 0.8066406
vt 0.0401001 0.7988281
vt 0.0345459 0.8046875
vt 0.04260254 0.8051758
vt 0.03201294 0.7988281
vt 0.03155518 0.7949219
vt 0.0390625 0.7949219
vt 0.02532959 0.7949219
vt 0.09637451 0.7988281
vt 0.04260254 0.8051758
vt 0.09387207 0.8051758
vt 0.09741211 0.7949219
vt 0.02516174 0.7988281
vt 0.03250122 0.8066406
vt 0.0211792 0.7949219
vt 0.02867126 0.8066406
vt 0.1044922 0.7988281
vt 0.09387207 0.8051758
vt 0.0982666 0.8051758
vt 0.1049194 0.7949219
vt 0.02058411 0.7988281
vt 0.01968384 0.7949219
vt 0.1113281 0.7988281
vt 0.111145 0.7949219
vt 0.01896667 0.7988281
vt 0.01968384 0.7949219
vt 0.02423096 0.8066406
vt 0.02268982 0.8066406
vt 0.02972412 0.8178711
vt 0.02825928 0.8178711
vt 0.03393555 0.8178711
vt 0.03068542 0.8188477
vt 0.0292511 0.8188477
vt 0.03164673 0.8198242
vt 0.03024292 0.8198242
vt 0.03555298 0.8198242
vt 0.034729 0.8188477
vt 0.04138184 0.8198242
vt 0.040802 0.8188477
vt 0.04840088 0.8198242
vt 0.04019165 0.8178711
vt 0.03607178 0.8081055
vt 0.04800415 0.8188477
vt 0.08807373 0.8198242
vt 0.08850098 0.8188477
vt 0.09509277 0.8198242
vt 0.04760742 0.8178711
vt 0.09570313 0.8188477
vt 0.1009521 0.8198242
vt 0.04360962 0.8076172
vt 0.03924561 0.8076172
vt 0.09283447 0.8076172
vt 0.08886719 0.8178711
vt 0.1004028 0.8081055
vt 0.09625244 0.8178711
vt 0.1017456 0.8188477
vt 0.1048584 0.8198242
vt 0.1025391 0.8178711
vt 0.1040039 0.8066406
vt 0.1078491 0.8066406
vt 0.105835 0.8188477
vt 0.1062622 0.8198242
vt 0.1067505 0.8178711
vt 0.1072388 0.8188477
vt 0.1062622 0.8198242
vt 0.1072388 0.8188477
vt 0.1082153 0.8178711
vt 0.1082153 0.8178711
vt 0.1122437 0.8066406
vt 0.1138306 0.8066406
vt 0.1138306 0.8066406
vt 0.1174927 0.7988281
vt 0.1174927 0.7988281
vt 0.1168213 0.7949219
vt 0.1152954 0.7949219
vt 0.1159058 0.7988281
vt 0.1019287 0.8046875
vt 0.09313965 0.8071289
vt 0.09283447 0.8076172
vt 0.097229 0.8076172
vt 0.09295654 0.8066406
vt 0.03518677 0.7915039
vt 0.04037476 0.7905273
vt 0.03356934 0.7915039
vt 0.03265381 0.7919922
vt 0.02827454 0.7919922
vt 0.0324707 0.7915039
vt 0.04144287 0.7905273
vt 0.03857422 0.7919922
vt 0.03866577 0.7915039
vt 0.03875732 0.7905273
vt 0.04144287 0.7905273
vt 0.04037476 0.7905273
vt 0.03155518 0.7949219
vt 0.0390625 0.7949219
vt 0.02532959 0.7949219
vt 0.09741211 0.7949219
vt 0.02534485 0.7919922
vt 0.0211792 0.7949219
vt 0.09790039 0.7919922
vt 0.1049194 0.7949219
vt 0.02416992 0.7919922
vt 0.01968384 0.7949219
vt 0.0317688 0.7915039
vt 0.02416992 0.7919922
vt 0.01968384 0.7949219
vt 0.0317688 0.7915039
vt 0.0413208 0.7905273
vt 0.0413208 0.7905273
vt 0.09783936 0.7915039
vt 0.03939819 0.7905273
vt 0.09771729 0.7905273
vt 0.1038208 0.7919922
vt 0.111145 0.7949219
vt 0.09710693 0.7905273
vt 0.1013184 0.7915039
vt 0.1082153 0.7919922
vt 0.1152954 0.7949219
vt 0.1029053 0.7915039
vt 0.111145 0.7919922
vt 0.1168213 0.7949219
vt 0.1123047 0.7919922
vt 0.1040039 0.7915039
vt 0.09613037 0.7905273
vt 0.1047363 0.7915039
vt 0.09503174 0.7905273
vt 0.09515381 0.7905273
vt 0.09503174 0.7905273
vt 0.09613037 0.7905273
vt 0.09503174 0.7905273
vt 0.09515381 0.7905273
vt 0.09771729 0.7905273
vt 0.09613037 0.7905273
vt 0.03875732 0.7905273
vt 0.04037476 0.7905273
vt 0.09515381 0.7905273
vt 0.1040039 0.7915039
vt 0.1029053 0.7915039
vt 0.1047363 0.7915039
vt 0.1047363 0.7915039
vt 0.1123047 0.7919922
vt 0.1123047 0.7919922
vt 0.111145 0.7919922
vt 0.1168213 0.7949219
vt 0.1168213 0.7949219
vt 0.1152954 0.7949219
vt 0.111145 0.7949219
vt 0.1082153 0.7919922
vt 0.1049194 0.7949219
vt 0.1038208 0.7919922
vt 0.09741211 0.7949219
vt 0.1013184 0.7915039
vt 0.09613037 0.7905273
vt 0.09790039 0.7919922
vt 0.0390625 0.7949219
vt 0.09783936 0.7915039
vt 0.03857422 0.7919922
vt 0.03155518 0.7949219
vt 0.09710693 0.7905273
vt 0.03265381 0.7919922
vt 0.02532959 0.7949219
vt 0.03866577 0.7915039
vt 0.03939819 0.7905273
vt 0.03518677 0.7915039
vt 0.03356934 0.7915039
vt 0.02827454 0.7919922
vt 0.0211792 0.7949219
vt 0.02534485 0.7919922
vt 0.01968384 0.7949219
vt 0.02416992 0.7919922
vt 0.0324707 0.7915039
vt 0.04037476 0.7905273
vt 0.0317688 0.7915039
vt 0.04144287 0.7905273
vt 0.0413208 0.7905273
vt 0.1168213 0.7949219
vt 0.1174927 0.7988281
vt 0.1168213 0.7949219
vt 0.1159058 0.7988281
vt 0.1152954 0.7949219
vt 0.1122437 0.8066406
vt 0.1138306 0.8066406
vt 0.1113281 0.7988281
vt 0.111145 0.7949219
vt 0.1078491 0.8066406
vt 0.1067505 0.8178711
vt 0.1082153 0.8178711
vt 0.1044922 0.7988281
vt 0.1049194 0.7949219
vt 0.1025391 0.8178711
vt 0.105835 0.8188477
vt 0.1072388 0.8188477
vt 0.1011963 0.8066406
vt 0.09637451 0.7988281
vt 0.09741211 0.7949219
vt 0.1048584 0.8198242
vt 0.1062622 0.8198242
vt 0.1009521 0.8198242
vt 0.1017456 0.8188477
vt 0.09509277 0.8198242
vt 0.09570313 0.8188477
vt 0.08807373 0.8198242
vt 0.09625244 0.8178711
vt 0.08850098 0.8188477
vt 0.04840088 0.8198242
vt 0.08886719 0.8178711
vt 0.04800415 0.8188477
vt 0.04138184 0.8198242
vt 0.09338379 0.8066406
vt 0.040802 0.8188477
vt 0.03555298 0.8198242
vt 0.04760742 0.8178711
vt 0.04312134 0.8066406
vt 0.034729 0.8188477
vt 0.03164673 0.8198242
vt 0.04019165 0.8178711
vt 0.0401001 0.7988281
vt 0.0390625 0.7949219
vt 0.03068542 0.8188477
vt 0.03024292 0.8198242
vt 0.03393555 0.8178711
vt 0.03530884 0.8066406
vt 0.03201294 0.7988281
vt 0.03155518 0.7949219
vt 0.0292511 0.8188477
vt 0.03024292 0.8198242
vt 0.0292511 0.8188477
vt 0.02972412 0.8178711
vt 0.02867126 0.8066406
vt 0.02516174 0.7988281
vt 0.02532959 0.7949219
vt 0.02825928 0.8178711
vt 0.02825928 0.8178711
vt 0.02423096 0.8066406
vt 0.02058411 0.7988281
vt 0.0211792 0.7949219
vt 0.02268982 0.8066406
vt 0.02268982 0.8066406
vt 0.01896667 0.7988281
vt 0.01968384 0.7949219
vt 0.01896667 0.7988281
vt 0.0428772 0.8056641
vt 0.04260254 0.8051758
vt 0.03823853 0.8051758
vt 0.04351807 0.8066406
vt 0.04910278 0.7910156
vt 0.08843994 0.7924805
vt 0.08679199 0.7910156
vt 0.04730225 0.7924805
vt 0.04693604 0.7949219
vt 0.08764648 0.7963867
vt 0.08862305 0.7949219
vt 0.04824829 0.7963867
vt 0.2954102 0.7485352
vt 0.3266602 0.7495117
vt 0.326416 0.7485352
vt 0.295166 0.7490234
vt 0.3261719 0.75
vt 0.2956543 0.75
vt 0.1707764 0.934082
vt 0.1828613 0.8837891
vt 0.1726074 0.8916016
vt 0.1812744 0.9272461
vt 0.206543 0.8818359
vt 0.1744385 0.9423828
vt 0.2055664 0.925293
vt 0.2286377 0.8891602
vt 0.2283936 0.9316406
vt 0.2247314 0.9404297
vt 0.204834 0.9350586
vt 0.1837158 0.9365234
vt 0.2139893 0.9477539
vt 0.2027588 0.9448242
vt 0.1911621 0.9453125
vt 0.211792 0.9516602
vt 0.2205811 0.9477539
vt 0.1903076 0.9516602
vt 0.2012939 0.953125
vt 0.1859131 0.9487305
vt 0.1826172 0.9482422
vt 0.2283936 0.9316406
vt 0.223877 0.8994141
vt 0.2286377 0.8891602
vt 0.2235107 0.940918
vt 0.2033691 0.902832
vt 0.2205811 0.9477539
vt 0.2247314 0.9404297
vt 0.2023926 0.9438477
vt 0.1817627 0.8994141
vt 0.2020264 0.9506836
vt 0.1802979 0.940918
vt 0.1726074 0.8916016
vt 0.1707764 0.934082
vt 0.1744385 0.9423828
vt 0.1826172 0.9482422
vt 0.1903076 0.9516602
vt 0.2012939 0.953125
vt 0.211792 0.9516602
vt 0.1726074 0.8916016
vt 0.2033691 0.902832
vt 0.1817627 0.8994141
vt 0.223877 0.8994141
vt 0.2286377 0.8891602
vt 0.206543 0.8818359
vt 0.1828613 0.8837891
vt 0.6469727 0.9257813
vt 0.6469727 0.9375
vt 0.6469727 0.9311523
vt 0.6469727 0.9326172
vt 0.6469727 0.9389648
vt 0.6469727 0.9321289
vt 0.6469727 0.925293
vt 0.6469727 0.934082
vt 0.6459961 0.9404297
vt 0.6459961 0.9350586
vt 0.6459961 0.9345703
vt 0.6464844 0.9335938
vt 0.6459961 0.934082
vt 0.6459961 0.9331055
vt 0.6459961 0.9316406
vt 0.6459961 0.9248047
vt 0.6425781 0.9321289
vt 0.6459961 0.9321289
vt 0.6445313 0.9321289
vt 0.6469727 0.9311523
vt 0.6469727 0.9311523
vt 0.6469727 0.9257813
vt 0.6469727 0.925293
vt 0.6459961 0.9248047
vt 0.6445313 0.9248047
vt 0.6425781 0.9248047
vt 0.6196289 0.9248047
vt 0.6176758 0.9248047
vt 0.6162109 0.9248047
vt 0.6152344 0.925293
vt 0.6152344 0.9257813
vt 0.6152344 0.9306641
vt 0.6152344 0.9311523
vt 0.6157227 0.9316406
vt 0.6176758 0.9321289
vt 0.6191406 0.9321289
vt 0.6445313 0.940918
vt 0.6455078 0.940918
vt 0.6459961 0.9404297
vt 0.6445313 0.940918
vt 0.6459961 0.9404297
vt 0.6459961 0.9350586
vt 0.6425781 0.940918
vt 0.6425781 0.9414063
vt 0.6445313 0.9360352
vt 0.6459961 0.9345703
vt 0.6191406 0.940918
vt 0.6191406 0.9414063
vt 0.6176758 0.940918
vt 0.6445313 0.9350586
vt 0.6459961 0.934082
vt 0.6445313 0.934082
vt 0.6425781 0.9360352
vt 0.6425781 0.9355469
vt 0.6425781 0.9345703
vt 0.6191406 0.934082
vt 0.6191406 0.9355469
vt 0.6176758 0.934082
vt 0.6191406 0.9360352
vt 0.6176758 0.9350586
vt 0.6162109 0.934082
vt 0.6162109 0.9345703
vt 0.6176758 0.9360352
vt 0.6157227 0.9350586
vt 0.6157227 0.9404297
vt 0.6176758 0.940918
vt 0.6162109 0.9404297
vt 0.6162109 0.940918
vt 0.6455078 0.940918
vt 0.6445313 0.940918
vt 0.6445313 0.940918
vt 0.6425781 0.9414063
vt 0.6425781 0.9414063
vt 0.6191406 0.9414063
vt 0.6191406 0.9414063
vt 0.6176758 0.940918
vt 0.6176758 0.940918
vt 0.6162109 0.940918
vt 0.6459961 0.9404297
vt 0.6469727 0.9389648
vt 0.6459961 0.9404297
vt 0.6464844 0.9394531
vt 0.6455078 0.940918
vt 0.6459961 0.9399414
vt 0.6469727 0.9375
vt 0.6469727 0.9379883
vt 0.6459961 0.9384766
vt 0.6459961 0.9321289
vt 0.6469727 0.9311523
vt 0.6469727 0.9311523
vt 0.6157227 0.9394531
vt 0.6157227 0.9375
vt 0.6152344 0.9379883
vt 0.6152344 0.9306641
vt 0.6157227 0.9321289
vt 0.6152344 0.9257813
vt 0.6152344 0.925293
vt 0.6152344 0.9321289
vt 0.6162109 0.9248047
vt 0.6157227 0.9311523
vt 0.6162109 0.9331055
vt 0.6157227 0.9335938
vt 0.6162109 0.934082
vt 0.6162109 0.9345703
vt 0.6152344 0.934082
vt 0.6157227 0.9350586
vt 0.6152344 0.9389648
vt 0.6157227 0.9404297
vt 0.6152344 0.9389648
vt 0.6162109 0.9404297
vt 0.6157227 0.9404297
vt 0.6157227 0.9394531
vt 0.6162109 0.940918
vt 0.6162109 0.9399414
vt 0.6157227 0.9375
vt 0.6152344 0.934082
vt 0.6157227 0.9321289
vt 0.6152344 0.9379883
vt 0.6157227 0.9384766
vt 0.6152344 0.9311523
vt 0.6157227 0.9316406
vt 0.6152344 0.9306641
vt 0.6157227 0.9335938
vt 0.6152344 0.9321289
vt 0.6152344 0.925293
vt 0.6459961 0.9384766
vt 0.6445313 0.9321289
vt 0.6459961 0.9321289
vt 0.6445313 0.9384766
vt 0.6459961 0.9399414
vt 0.6425781 0.9321289
vt 0.6445313 0.9399414
vt 0.6455078 0.940918
vt 0.6445313 0.940918
vt 0.6425781 0.9384766
vt 0.6425781 0.9399414
vt 0.6425781 0.9414063
vt 0.6191406 0.9414063
vt 0.6191406 0.9399414
vt 0.6176758 0.940918
vt 0.6191406 0.9384766
vt 0.6191406 0.9321289
vt 0.6176758 0.9321289
vt 0.6176758 0.9399414
vt 0.6162109 0.940918
vt 0.6162109 0.9399414
vt 0.6176758 0.9384766
vt 0.6157227 0.9316406
vt 0.6157227 0.9384766
vt 0.6157227 0.9311523
vt 0.6176758 0.9248047
vt 0.6162109 0.9248047
vt 0.6176758 0.9311523
vt 0.6162109 0.9331055
vt 0.6196289 0.9248047
vt 0.6176758 0.9331055
vt 0.6162109 0.934082
vt 0.6176758 0.934082
vt 0.6191406 0.9311523
vt 0.6191406 0.9326172
vt 0.6191406 0.934082
vt 0.6425781 0.9345703
vt 0.6425781 0.9331055
vt 0.6445313 0.934082
vt 0.6425781 0.9311523
vt 0.6425781 0.9248047
vt 0.6445313 0.9248047
vt 0.6445313 0.9331055
vt 0.6459961 0.934082
vt 0.6459961 0.9331055
vt 0.6445313 0.9311523
vt 0.6459961 0.9248047
vt 0.6459961 0.9316406
vt 0.08221436 0.8305664
vt 0.08148193 0.7954102
vt 0.08221436 0.7954102
vt 0.08148193 0.8305664
vt 0.07794189 0.7954102
vt 0.07965088 0.8364258
vt 0.08026123 0.8364258
vt 0.07647705 0.8364258
vt 0.07794189 0.8305664
vt 0.07220459 0.7954102
vt 0.07141113 0.8364258
vt 0.07220459 0.8305664
vt 0.06524658 0.7954102
vt 0.06524658 0.8364258
vt 0.06524658 0.8305664
vt 0.05834961 0.7954102
vt 0.05911255 0.8364258
vt 0.05834961 0.8305664
vt 0.0526123 0.7954102
vt 0.05404663 0.8364258
vt 0.0526123 0.8305664
vt 0.04907227 0.7954102
vt 0.05090332 0.8364258
vt 0.04907227 0.8305664
vt 0.04833984 0.7954102
vt 0.05023193 0.8364258
vt 0.04833984 0.8305664
vt 0.04833984 0.8305664
vt 0.05053711 0.7954102
vt 0.04833984 0.7954102
vt 0.05053711 0.8305664
vt 0.05526733 0.7954102
vt 0.05218506 0.8364258
vt 0.05023193 0.8364258
vt 0.05639648 0.8364258
vt 0.05526733 0.8305664
vt 0.06173706 0.7954102
vt 0.06213379 0.8364258
vt 0.06173706 0.8305664
vt 0.06878662 0.7954102
vt 0.06842041 0.8364258
vt 0.06878662 0.8305664
vt 0.07525635 0.7954102
vt 0.07415771 0.8364258
vt 0.07525635 0.8305664
vt 0.08001709 0.7954102
vt 0.07836914 0.8364258
vt 0.08001709 0.8305664
vt 0.08221436 0.7954102
vt 0.08026123 0.8364258
vt 0.08221436 0.8305664
vt 0.06524658 0.7954102
vt 0.07794189 0.7954102
vt 0.07220459 0.7954102
vt 0.08148193 0.7954102
vt 0.08221436 0.7954102
vt 0.08001709 0.7954102
vt 0.07525635 0.7954102
vt 0.06878662 0.7954102
vt 0.06173706 0.7954102
vt 0.05526733 0.7954102
vt 0.05053711 0.7954102
vt 0.04833984 0.7954102
vt 0.04907227 0.7954102
vt 0.0526123 0.7954102
vt 0.05834961 0.7954102
vt 0.07836914 0.8364258
vt 0.07568359 0.8388672
vt 0.08026123 0.8364258
vt 0.07434082 0.8388672
vt 0.07415771 0.8364258
vt 0.07141113 0.8388672
vt 0.06842041 0.8364258
vt 0.06744385 0.8388672
vt 0.06213379 0.8364258
vt 0.06311035 0.8388672
vt 0.05639648 0.8364258
vt 0.05911255 0.8388672
vt 0.05218506 0.8364258
vt 0.05618286 0.8388672
vt 0.05023193 0.8364258
vt 0.05484009 0.8388672
vt 0.05090332 0.8364258
vt 0.05484009 0.8388672
vt 0.05023193 0.8364258
vt 0.05529785 0.8388672
vt 0.06951904 0.8388672
vt 0.05618286 0.8388672
vt 0.05911255 0.8388672
vt 0.06311035 0.8388672
vt 0.06744385 0.8388672
vt 0.07141113 0.8388672
vt 0.07434082 0.8388672
vt 0.07568359 0.8388672
vt 0.07525635 0.8388672
vt 0.08026123 0.8364258
vt 0.05404663 0.8364258
vt 0.07965088 0.8364258
vt 0.0574646 0.8388672
vt 0.05911255 0.8364258
vt 0.07305908 0.8388672
vt 0.07647705 0.8364258
vt 0.07141113 0.8364258
vt 0.06100464 0.8388672
vt 0.06524658 0.8364258
vt 0.06524658 0.8388672
vt 0.07073975 0.8046875
vt 0.07055664 0.8046875
vt 0.07061768 0.8046875
vt 0.07067871 0.8041992
vt 0.07080078 0.8041992
vt 0.07043457 0.8046875
vt 0.07043457 0.8046875
vt 0.07073975 0.8041992
vt 0.07086182 0.8041992
vt 0.06964111 0.8046875
vt 0.06964111 0.8046875
vt 0.07073975 0.8037109
vt 0.07086182 0.8022461
vt 0.06951904 0.8046875
vt 0.06945801 0.8046875
vt 0.07073975 0.8022461
vt 0.07080078 0.8017578
vt 0.06939697 0.8041992
vt 0.06933594 0.8046875
vt 0.07073975 0.8022461
vt 0.07073975 0.8017578
vt 0.06933594 0.8041992
vt 0.0692749 0.8041992
vt 0.07067871 0.8017578
vt 0.07061768 0.8017578
vt 0.06933594 0.8037109
vt 0.06921387 0.8041992
vt 0.07055664 0.8017578
vt 0.07043457 0.8012695
vt 0.06933594 0.8022461
vt 0.06921387 0.8022461
vt 0.07043457 0.8017578
vt 0.06964111 0.8012695
vt 0.06933594 0.8022461
vt 0.0692749 0.8017578
vt 0.06964111 0.8017578
vt 0.06945801 0.8017578
vt 0.06939697 0.8017578
vt 0.06933594 0.8017578
vt 0.06951904 0.8017578
vt 0.06945801 0.8022461
vt 0.06945801 0.8022461
vt 0.06951904 0.8022461
vt 0.06958008 0.8017578
vt 0.06964111 0.8017578
vt 0.07043457 0.8017578
vt 0.06945801 0.8037109
vt 0.07049561 0.8017578
vt 0.06945801 0.8041992
vt 0.07055664 0.8022461
vt 0.06951904 0.8041992
vt 0.07061768 0.8022461
vt 0.06958008 0.8041992
vt 0.07061768 0.8022461
vt 0.06964111 0.8041992
vt 0.07061768 0.8037109
vt 0.07043457 0.8041992
vt 0.07061768 0.8041992
vt 0.07049561 0.8041992
vt 0.07055664 0.8041992
vt 0.06964111 0.8041992
vt 0.06970215 0.8041992
vt 0.07043457 0.8041992
vt 0.07043457 0.8041992
vt 0.07049561 0.8037109
vt 0.06964111 0.8041992
vt 0.07049561 0.8041992
vt 0.07049561 0.8041992
vt 0.06964111 0.8041992
vt 0.06958008 0.8037109
vt 0.06958008 0.8022461
vt 0.07049561 0.8022461
vt 0.06964111 0.8022461
vt 0.07049561 0.8022461
vt 0.06964111 0.8022461
vt 0.07049561 0.8022461
vt 0.06964111 0.8022461
vt 0.07043457 0.8022461
vt 0.06970215 0.8022461
vt 0.07043457 0.8022461
vn -0.06118774 0.05111694 0.996582
vn -0.1282959 0.2258301 0.9658203
vn -0.3413086 0.07189941 0.9370117
vn 0.706543 -0.03741455 -0.706543
vn -0.03390503 -0.9960938 0.08111572
vn 0.5839844 0.04510498 0.8105469
vn -0.8105469 0.04476929 -0.5839844
vn -0.06256104 -0.9960938 0.06256104
vn 0.5839844 0.04476929 -0.8105469
vn -0.06256104 -0.9960938 -0.06256104
vn 0.706543 -0.03741455 0.706543
vn -0.08111572 -0.9960938 -0.03390503
vn -0.8105469 0.04504395 0.5839844
vn 0.8105469 0.04476929 0.5839844
vn 0.06256104 -0.9960938 -0.06256104
vn -0.706543 -0.03741455 0.706543
vn 0.03390503 -0.9960938 -0.08111572
vn -0.5839844 0.04507446 -0.8105469
vn -0.5839844 0.04522705 0.8105469
vn 0.06256104 -0.9960938 0.06256104
vn -0.706543 -0.03741455 -0.706543
vn 0.08111572 -0.9960938 0.03390503
vn 0.8105469 0.04507446 -0.5839844
vn 0.1047974 0.0506897 0.9931641
vn 0.1677246 0.08319092 0.9824219
vn 0.3623047 0.07556152 0.9291992
vn 0.3623047 0.07556152 0.9291992
vn 0.1677246 0.08319092 0.9824219
vn 0.1870117 0.2498779 0.9501953
vn -0.3413086 0.07189941 0.9370117
vn -0.1282959 0.2258301 0.9658203
vn -0.1702881 0.2315674 0.9580078
vn -0.0994873 -0.05026245 0.9936523
vn -0.3413086 0.07189941 0.9370117
vn -0.1143188 0.04934692 0.9921875
vn -0.3840332 0.01174164 0.9233398
vn -0.3991699 -0.08178711 0.9130859
vn -0.1127319 -0.1345215 0.984375
vn -0.7060547 -0.05401611 0.7060547
vn 0.09460449 -0.05792236 0.9936523
vn -0.1143188 0.04934692 0.9921875
vn 0.1047974 0.0506897 0.9931641
vn 0.1126709 -0.1345215 0.984375
vn -0.7016602 0.02624512 0.7119141
vn -0.3413086 0.07189941 0.9370117
vn -0.9130859 -0.08178711 0.3991699
vn -0.6733398 0.07073975 0.7358398
vn 0.378418 -0.008712769 0.9257813
vn 0.1047974 0.0506897 0.9931641
vn 0.3623047 0.07556152 0.9291992
vn 0.3991699 -0.08178711 0.9130859
vn -0.9267578 -0.001348495 0.3754883
vn -0.984375 -0.1345215 0.1126709
vn 0.7070313 0.01084137 0.7070313
vn 0.7060547 -0.05401611 0.7060547
vn -0.9951172 -0.03509521 0.09222412
vn -0.984375 -0.1345215 -0.1127319
vn -0.9213867 0.08148193 0.3796387
vn -0.9926758 0.07281494 0.09686279
vn -0.8481445 0.3920898 0.3564453
vn -0.9199219 0.3806152 0.09381104
vn -0.6474609 0.394043 0.6518555
vn -0.6713867 0.6875 0.2758789
vn -0.7480469 0.659668 0.07275391
vn -0.5424805 0.8110352 0.2188721
vn -0.5957031 0.8012695 0.0546875
vn -0.4069824 0.8178711 0.4069824
vn -0.5053711 0.6992188 0.5053711
vn -0.2188721 0.8110352 0.5424805
vn -0.2758789 0.6875 0.6713867
vn -0.0546875 0.8012695 0.5957031
vn -0.3493652 0.3671875 0.8623047
vn -0.3413086 0.07189941 0.9370117
vn -0.07275391 0.659668 0.7480469
vn 0.0546875 0.8012695 0.5957031
vn 0.07275391 0.659668 0.7480469
vn 0.2188721 0.8110352 0.5424805
vn -0.09466553 0.3391113 0.9360352
vn 0.2758789 0.6875 0.6713867
vn 0.4069824 0.8178711 0.4069824
vn -0.06118774 0.05111694 0.996582
vn -0.3413086 0.07189941 0.9370117
vn 0.05667114 0.04281616 0.9975586
vn 0.09069824 0.3432617 0.9350586
vn 0.3623047 0.07556152 0.9291992
vn 0.3596191 0.3640137 0.859375
vn 0.5053711 0.6992188 0.5053711
vn 0.5424805 0.8110352 0.2188721
vn 0.6484375 0.3823242 0.6582031
vn 0.3623047 0.07556152 0.9291992
vn 0.6831055 0.07116699 0.7270508
vn 0.6713867 0.6875 0.2758789
vn 0.5957031 0.8012695 0.0546875
vn 0.8515625 0.3833008 0.3571777
vn 0.7480469 0.659668 0.07275391
vn 0.5957031 0.8012695 -0.0546875
vn 0.7480469 0.659668 -0.07275391
vn 0.9238281 0.3710938 0.09411621
vn 0.9223633 0.3752441 -0.09051514
vn 0.9228516 0.06427002 0.380127
vn 0.9936523 0.05422974 0.09698486
vn 0.9931641 0.06106567 -0.09924316
vn 0.9946289 -0.043396 0.09222412
vn 0.9946289 -0.04193115 -0.09307861
vn 0.984375 -0.1345215 0.1127319
vn 0.9130859 -0.08178711 0.3991699
vn 0.9267578 -0.008979797 0.3759766
vn 0.3623047 0.07556152 0.9291992
vn 0.1311035 0.2397461 0.9619141
vn 0.05667114 0.04281616 0.9975586
vn 0.3623047 0.07556152 0.9291992
vn 0.1870117 0.2498779 0.9501953
vn -0.03390503 -0.9960938 0.08111572
vn 0.706543 -0.03741455 -0.706543
vn -0.06256104 -0.9960938 0.06256104
vn -0.15979 -0.9140625 0.3723145
vn -0.2910156 -0.9116211 0.2910156
vn -0.08111572 -0.9960938 0.03390503
vn -0.8105469 0.04476929 -0.5839844
vn -0.04101563 -0.9238281 0.3803711
vn -0.008811951 -0.9960938 0.08746338
vn 0.5839844 0.04510498 0.8105469
vn -0.8105469 0.04504395 0.5839844
vn 0.706543 -0.03741455 -0.706543
vn -0.232666 -0.7802734 0.5805664
vn -0.05407715 -0.7900391 0.6103516
vn -0.449707 -0.7714844 0.449707
vn 0.05404663 -0.7900391 0.6103516
vn -0.3723145 -0.9140625 0.15979
vn -0.5805664 -0.7802734 0.232666
vn 0.04098511 -0.9238281 0.3803711
vn 0.232666 -0.7802734 0.5805664
vn -0.3803711 -0.9238281 0.04098511
vn -0.6103516 -0.7900391 0.05404663
vn -0.08746338 -0.9960938 0.008804321
vn -0.3803711 -0.9238281 -0.04101563
vn -0.6103516 -0.7900391 -0.05407715
vn -0.08746338 -0.9960938 -0.008811951
vn -0.04452515 -0.9990234 -0.004455566
vn -0.04452515 -0.9990234 0.004451752
vn 0.008804321 -0.9960938 0.08746338
vn -0.004455566 -0.9990234 0.04452515
vn -0.5839844 0.04522705 0.8105469
vn 0.15979 -0.9140625 0.3723145
vn 0.449707 -0.7714844 0.449707
vn 0.004451752 -0.9990234 0.04452515
vn 0.03390503 -0.9960938 0.08111572
vn 0.2910156 -0.9116211 0.2910156
vn 0.5805664 -0.7802734 0.232666
vn 0.06256104 -0.9960938 0.06256104
vn 0.3723145 -0.9140625 0.15979
vn 0.6103516 -0.7900391 0.05407715
vn 0.3803711 -0.9238281 0.04101563
vn 0.08111572 -0.9960938 0.03390503
vn -0.706543 -0.03741455 -0.706543
vn 0.08746338 -0.9960938 0.00881958
vn 0.8105469 0.04507446 -0.5839844
vn 0.04452515 -0.9990234 0.004455566
vn 0.8105469 0.04507446 -0.5839844
vn -0.706543 -0.03741455 -0.706543
vn 0.8105469 0.04476929 0.5839844
vn 0.04452515 -0.9990234 0.004455566
vn -0.5839844 0.04507446 -0.8105469
vn -0.706543 -0.03741455 0.706543
vn 0.5839844 0.04476929 -0.8105469
vn 0.706543 -0.03741455 0.706543
vn 0.04452515 -0.9990234 -0.004451752
vn 0.08111572 -0.9960938 -0.03390503
vn 0.06256104 -0.9960938 -0.06256104
vn 0.08746338 -0.9960938 -0.008804321
vn 0.08746338 -0.9960938 0.00881958
vn 0.3803711 -0.9238281 -0.04098511
vn 0.3803711 -0.9238281 0.04101563
vn 0.3723145 -0.9140625 -0.15979
vn 0.6103516 -0.7900391 -0.05404663
vn 0.6103516 -0.7900391 0.05407715
vn 0.5805664 -0.7802734 -0.232666
vn 0.449707 -0.7714844 -0.449707
vn 0.2910156 -0.9116211 -0.2910156
vn 0.232666 -0.7802734 -0.5805664
vn 0.15979 -0.9140625 -0.3723145
vn 0.05407715 -0.7900391 -0.6103516
vn 0.03390503 -0.9960938 -0.08111572
vn -0.706543 -0.03741455 0.706543
vn 0.04101563 -0.9238281 -0.3803711
vn -0.05404663 -0.7900391 -0.6103516
vn 0.00881958 -0.9960938 -0.08746338
vn -0.04098511 -0.9238281 -0.3803711
vn -0.232666 -0.7802734 -0.5805664
vn 0.004455566 -0.9990234 -0.04452515
vn -0.15979 -0.9140625 -0.3723145
vn -0.449707 -0.7714844 -0.449707
vn -0.008804321 -0.9960938 -0.08746338
vn -0.004451752 -0.9990234 -0.04452515
vn -0.03390503 -0.9960938 -0.08111572
vn -0.06256104 -0.9960938 -0.06256104
vn -0.2910156 -0.9116211 -0.2910156
vn -0.5805664 -0.7802734 -0.232666
vn -0.3723145 -0.9140625 -0.15979
vn -0.6103516 -0.7900391 -0.05407715
vn -0.3803711 -0.9238281 -0.04101563
vn -0.08111572 -0.9960938 -0.03390503
vn 0.706543 -0.03741455 0.706543
vn -0.08746338 -0.9960938 -0.008811951
vn -0.8105469 0.04504395 0.5839844
vn -0.04452515 -0.9990234 -0.004455566
vn 0.984375 -0.1345215 0.1127319
vn 0.9946289 -0.04193115 -0.09307861
vn 0.984375 -0.1345215 -0.1126709
vn 0.9262695 -0.003759384 -0.3771973
vn 0.9130859 -0.08178711 -0.3991699
vn 0.9194336 0.08947754 -0.3833008
vn 0.9931641 0.06106567 -0.09924316
vn 0.706543 0.02017212 -0.7075195
vn 0.7060547 -0.05401611 -0.7060547
vn 0.7016602 0.1108398 -0.7041016
vn 0.847168 0.4008789 -0.3481445
vn 0.9223633 0.3752441 -0.09051514
vn 0.3757324 0.001867294 -0.9267578
vn 0.3991699 -0.08178711 -0.9130859
vn 0.6435547 0.4211426 -0.6391602
vn 0.6713867 0.6875 -0.2758789
vn 0.7480469 0.659668 -0.07275391
vn 0.3796387 0.1112671 -0.918457
vn 0.09234619 -0.03237915 -0.9951172
vn 0.1127319 -0.1345215 -0.984375
vn 0.5424805 0.8110352 -0.2188721
vn 0.5957031 0.8012695 -0.0546875
vn 0.4069824 0.8178711 -0.4069824
vn 0.5053711 0.6992188 -0.5053711
vn 0.2188721 0.8110352 -0.5424805
vn 0.2758789 0.6875 -0.6713867
vn 0.0546875 0.8012695 -0.5957031
vn 0.3505859 0.4169922 -0.8383789
vn 0.07275391 0.659668 -0.7480469
vn -0.0546875 0.8012695 -0.5957031
vn 0.0916748 0.4013672 -0.9111328
vn -0.07275391 0.659668 -0.7480469
vn -0.2188721 0.8110352 -0.5424805
vn 0.09759521 0.09802246 -0.9902344
vn -0.2758789 0.6875 -0.6713867
vn -0.4069824 0.8178711 -0.4069824
vn -0.09094238 0.4023438 -0.9111328
vn -0.09771729 0.09985352 -0.9902344
vn -0.5053711 0.6992188 -0.5053711
vn -0.5424805 0.8110352 -0.2188721
vn -0.348877 0.4204102 -0.8374023
vn -0.09283447 -0.03146362 -0.9951172
vn -0.1126709 -0.1345215 -0.984375
vn -0.6713867 0.6875 -0.2758789
vn -0.5957031 0.8012695 -0.0546875
vn -0.640625 0.4277344 -0.6376953
vn -0.3793945 0.1182861 -0.9174805
vn -0.3764648 0.005104065 -0.9262695
vn -0.3991699 -0.08178711 -0.9130859
vn -0.7480469 0.659668 -0.07275391
vn -0.5957031 0.8012695 0.0546875
vn -0.7480469 0.659668 0.07275391
vn -0.84375 0.4099121 -0.347168
vn -0.7006836 0.1237183 -0.7026367
vn -0.706543 0.02597046 -0.7070313
vn -0.7060547 -0.05401611 -0.7060547
vn -0.918457 0.3847656 -0.09014893
vn -0.9199219 0.3806152 0.09381104
vn -0.9179688 0.1064453 -0.3825684
vn -0.9262695 0.003799438 -0.3769531
vn -0.9130859 -0.08178711 -0.3991699
vn -0.9916992 0.07958984 -0.09912109
vn -0.9926758 0.07281494 0.09686279
vn -0.9951172 -0.03369141 -0.09301758
vn -0.984375 -0.1345215 -0.1127319
vn -0.9951172 -0.03509521 0.09222412
vn -0.1512451 0.1022339 0.9833984
vn -0.1143188 0.04934692 0.9921875
vn -0.3413086 0.07189941 0.9370117
vn -0.1702881 0.2315674 0.9580078
vn 0.05667114 0.04281616 0.9975586
vn -0.1282959 0.2258301 0.9658203
vn -0.06118774 0.05111694 0.996582
vn 0.1311035 0.2397461 0.9619141
vn 0.1677246 0.08319092 0.9824219
vn -0.1143188 0.04934692 0.9921875
vn -0.1512451 0.1022339 0.9833984
vn 0.1047974 0.0506897 0.9931641
vn -0.1512451 0.1022339 0.9833984
vn 0.1870117 0.2498779 0.9501953
vn 0.1677246 0.08319092 0.9824219
vn -0.1702881 0.2315674 0.9580078
vn 0.1311035 0.2397461 0.9619141
vn -0.1282959 0.2258301 0.9658203
vn 0 0.9916992 -0.12854
vn -0.7431641 0.6318359 -0.220459
vn 0 0.9443359 -0.3293457
vn -0.7275391 0.6860352 -0.02186584
vn -0.9863281 -0.1566162 0.05465698
vn 0 0.9326172 0.3613281
vn -0.9658203 -0.08355713 0.244873
vn -0.4067383 -0.8623047 0.3010254
vn -0.3984375 -0.7792969 0.4836426
vn -0.314209 -0.4567871 0.8320313
vn -0.7548828 0.08911133 0.6499023
vn -0.565918 0.6948242 0.4443359
vn -0.1297607 0.03717041 0.9907227
vn -0.3054199 0.2568359 0.9169922
vn -0.2244873 0.5048828 0.8334961
vn 0.1600342 0.06103516 0.9853516
vn 0.4086914 -0.3999023 0.8203125
vn 0.2244873 0.5048828 0.8334961
vn 0.300293 0.2841797 0.9106445
vn 0 0.5991211 0.8007813
vn 0.565918 0.6948242 0.4443359
vn -0.3984375 -0.7792969 0.4836426
vn 0.5366211 -0.796875 0.2780762
vn -0.4067383 -0.8623047 0.3010254
vn 0.527832 -0.7114258 0.4641113
vn 0.9946289 -0.09869385 0.03442383
vn 0.4086914 -0.3999023 0.8203125
vn -0.314209 -0.4567871 0.8320313
vn 0.9731445 -0.02893066 0.2275391
vn 0.7431641 0.6318359 -0.220459
vn 0.7573242 0.1385498 0.6386719
vn 0.7275391 0.6860352 -0.02186584
vn 0 0.9443359 -0.3293457
vn 0 0.9916992 -0.12854
vn 0 0.9326172 0.3613281
vn 0.565918 0.6948242 0.4443359
vn 0.2244873 0.5048828 0.8334961
vn 0.300293 0.2841797 0.9106445
vn 0.1600342 0.06103516 0.9853516
vn 0 -0.3293457 -0.9443359
vn 0 -0.3293457 -0.9443359
vn 0 -0.3293457 -0.9443359
vn 0 -0.3293457 -0.9443359
vn 0 -0.3293457 -0.9443359
vn 0 -0.3293457 -0.9443359
vn 0 -0.3293457 -0.9443359
vn -0.9951172 0.09771729 -0.002708435
vn -0.9819336 -0.1010742 0.1600342
vn -0.9956055 -0.09216309 0.002557755
vn -0.9907227 0.0894165 0.1005249
vn -0.8803711 -0.05029297 0.4711914
vn -0.956543 0.2868652 0.05157471
vn -0.9501953 0.3110352 -0.008628845
vn -0.9145508 0.1337891 0.3823242
vn -0.7617188 -0.005531311 0.6479492
vn -0.7963867 0.1391602 0.5883789
vn -0.8232422 0.2502441 0.5097656
vn -0.9116211 0.3005371 0.2805176
vn -0.8759766 0.3535156 0.328125
vn -0.9057617 0.402832 0.1306152
vn -0.9067383 0.4204102 -0.03424072
vn -0.9067383 0.4221191 -0.01170349
vn 0 -0.0737915 -0.9970703
vn 0 -0.0737915 -0.9970703
vn 0 -0.07385254 -0.9970703
vn 0 -0.0737915 -0.9970703
vn 0 -0.0737915 -0.9970703
vn -1.418591E-05 -0.0737915 -0.9970703
vn 0 -0.0737915 -0.9970703
vn 0 -0.0737915 -0.9970703
vn 0 -0.0737915 -0.9970703
vn 0 -0.0737915 -0.9970703
vn 0 -0.0737915 -0.9970703
vn 0 -0.0737915 -0.9970703
vn 0 -0.0737915 -0.9970703
vn 0 -0.0737915 -0.9970703
vn 0 -0.0737915 -0.9970703
vn 0 -0.0737915 -0.9970703
vn 0 -0.0737915 -0.9970703
vn 0 -0.0737915 -0.9970703
vn 0 -0.07385254 -0.9970703
vn 0 -0.07373047 -0.9970703
vn -0.1211548 -0.0758667 0.9897461
vn -0.1489258 -0.09796143 0.9838867
vn -0.1901855 -0.04690552 0.9804688
vn -0.1367188 0.01916504 0.9902344
vn -0.2088623 0.02372742 0.9775391
vn -0.2191162 0.1176758 0.96875
vn -0.03640747 0.02270508 0.9990234
vn -0.0355835 -0.08441162 0.9956055
vn -0.144043 0.1363525 0.9799805
vn -0.2166748 0.2030029 0.9550781
vn 0.03439331 0.0227356 0.9990234
vn 0.03347778 -0.08453369 0.9960938
vn 0.1263428 -0.07562256 0.9892578
vn -0.1394043 0.251709 0.9575195
vn -0.1837158 0.270752 0.9448242
vn -0.109436 0.3300781 0.9375
vn -0.03887939 0.1318359 0.9907227
vn -0.04150391 0.2680664 0.9624023
vn -0.03421021 0.354248 0.9345703
vn 0.0322876 0.354248 0.9345703
vn 0.03909302 0.2680664 0.9624023
vn 0.1126709 0.329834 0.9375
vn 0.03674316 0.1318359 0.9907227
vn 0.1452637 0.2514648 0.9570313
vn 0.1965332 0.2746582 0.9414063
vn 0.2322998 0.2045898 0.9506836
vn 0.1494141 0.1364746 0.9794922
vn 0.2336426 0.117981 0.965332
vn 0.2225342 0.02250671 0.9746094
vn 0.1418457 0.01924133 0.9897461
vn 0.2036133 -0.04879761 0.9780273
vn 0.1590576 -0.1008911 0.9819336
vn -0.1489258 -0.09796143 0.9838867
vn -0.1211548 -0.0758667 0.9897461
vn -0.08746338 -0.1342773 0.9873047
vn -0.0355835 -0.08441162 0.9956055
vn -0.02703857 -0.1486816 0.9882813
vn 0.03347778 -0.08453369 0.9960938
vn 0.02548218 -0.1486816 0.9887695
vn 0.09051514 -0.1341553 0.9868164
vn 0.1263428 -0.07562256 0.9892578
vn 0.1590576 -0.1008911 0.9819336
vn -0.7319336 -0.1240234 0.6699219
vn -0.8803711 -0.05029297 0.4711914
vn -0.7617188 -0.005531311 0.6479492
vn -0.8266602 -0.1981201 0.5263672
vn -0.753418 -0.2407227 0.6118164
vn -0.815918 -0.3242188 0.4787598
vn -0.9819336 -0.1010742 0.1600342
vn -0.9321289 -0.2944336 0.2103271
vn -0.8955078 -0.4040527 0.1864014
vn -0.9067383 -0.4221191 0.01170349
vn -0.9526367 -0.3046875 0.00844574
vn -0.9956055 -0.09216309 0.002557755
vn 0.9052734 -0.1275635 0.4057617
vn 0.9951172 0.09216309 -0.03277588
vn 0.9750977 -0.1049805 0.196167
vn 0.9936523 -0.03289795 0.1054688
vn 0.9931641 -0.07019043 -0.09277344
vn 0.9804688 0.107666 0.1652832
vn 0.9619141 0.2666016 0.05969238
vn 0.9887695 0.002601624 0.1481934
vn 0.9067383 0.4221191 -0.01170349
vn 0.9067383 0.4204102 -0.03424072
vn 0.9057617 0.402832 0.1306152
vn 0.9316406 0.2546387 0.2595215
vn 0.8759766 0.3535156 0.328125
vn 0.8232422 0.2502441 0.5097656
vn 0.9902344 0.1154785 0.07659912
vn 0.7963867 0.1391602 0.5883789
vn 0.9829102 -0.08477783 0.1628418
vn 0.7617188 -0.005527496 0.6479492
vn 0.9829102 -0.08477783 0.1628418
vn 0.7319336 -0.1240234 0.6699219
vn 0.7617188 -0.005527496 0.6479492
vn 0.9052734 -0.1275635 0.4057617
vn 0.753418 -0.2407227 0.6118164
vn 0.815918 -0.3242188 0.4787598
vn 0.9951172 0.09216309 -0.03277588
vn 0.9902344 0.1154785 0.07659912
vn 0.9931641 -0.07019043 -0.09277344
vn 0.9750977 -0.1049805 0.196167
vn 0.8955078 -0.4040527 0.1864014
vn 0.9526367 -0.3046875 0.00844574
vn 0.9067383 -0.4221191 0.01170349
vn 0.9936523 -0.03289795 0.1054688
vn 0.9316406 0.2546387 0.2595215
vn 0.9887695 0.002601624 0.1481934
vn 0.9619141 0.2666016 0.05969238
vn -0.2407227 -0.9130859 0.3288574
vn -0.1673584 -0.9853516 0.02732849
vn -0.2491455 -0.9682617 0.02684021
vn -0.1561279 -0.9272461 0.3400879
vn -0.192627 -0.7338867 0.6513672
vn -0.04190063 -0.9985352 0.0276947
vn -0.1204834 -0.7143555 0.6889648
vn -0.1583252 -0.675293 0.7202148
vn -0.08996582 -0.6420898 0.7612305
vn -0.04193115 -0.9394531 0.3405762
vn -0.0357666 -0.7163086 0.6967773
vn -0.02845764 -0.6362305 0.7709961
vn 0.02680969 -0.6362305 0.7709961
vn 0.03372192 -0.7163086 0.6967773
vn 0.09326172 -0.6416016 0.7612305
vn 0.03964233 -0.9394531 0.3408203
vn 0.03952026 -0.9990234 0.0276947
vn 0.1733398 -0.984375 0.02729797
vn 0.1257324 -0.7143555 0.6884766
vn 0.1690674 -0.6704102 0.722168
vn 0.2059326 -0.7299805 0.6518555
vn 0.1616211 -0.9267578 0.3393555
vn 0.2651367 -0.9638672 0.02671814
vn 0.2563477 -0.9086914 0.3295898
vn 0.2631836 0.9438477 -0.2003174
vn 0.1723633 0.9848633 -0.02731323
vn 0.2651367 0.9638672 -0.0267334
vn 0.1697998 0.9624023 -0.2114258
vn 0.2484131 0.9111328 -0.328125
vn 0.03942871 0.9990234 -0.0276947
vn 0.1550293 0.9560547 -0.2490234
vn 0.2325439 0.9545898 -0.1871338
vn 0.1303711 0.9873047 -0.08862305
vn 0.04156494 0.9746094 -0.2199707
vn 0.04232788 0.9697266 -0.2410889
vn 0.03826904 0.9970703 -0.06591797
vn -0.04058838 0.9970703 -0.06591797
vn -0.04489136 0.9692383 -0.2410889
vn -0.1264648 0.987793 -0.08886719
vn -0.04403687 0.9746094 -0.2198486
vn -0.04180908 0.9985352 -0.0276947
vn -0.1665039 0.9858398 -0.02732849
vn -0.1488037 0.9570313 -0.2493896
vn -0.2167969 0.956543 -0.1960449
vn -0.2319336 0.9140625 -0.3330078
vn -0.1634521 0.9633789 -0.2115479
vn -0.2491455 0.9682617 -0.02684021
vn -0.2471924 0.9477539 -0.2027588
vn 0.9755859 0.1939697 0.1025391
vn 0.9511719 0 -0.309082
vn 0.9946289 0 0.1045532
vn 0.9331055 0.1939697 -0.3032227
vn 0.7431641 0 -0.6689453
vn 0.8759766 0.3898926 -0.284668
vn 0.9160156 0.3898926 0.09625244
vn 0.684082 0.3898926 -0.6162109
vn 0.7290039 0.1939697 -0.65625
vn 0.4067383 0 -0.9135742
vn 0.3745117 0.3898926 -0.8413086
vn 0.3989258 0.1939697 -0.8959961
vn 0 0 -1
vn 0 0.3898926 -0.9208984
vn 0 0.1939697 -0.980957
vn -0.4067383 0 -0.9135742
vn -0.3745117 0.3898926 -0.8413086
vn -0.3989258 0.1939697 -0.8959961
vn -0.7431641 0 -0.6689453
vn -0.684082 0.3898926 -0.6162109
vn -0.7290039 0.1939697 -0.65625
vn -0.9511719 0 -0.309082
vn -0.8759766 0.3898926 -0.284668
vn -0.9331055 0.1939697 -0.3032227
vn -0.9946289 0 0.1045532
vn -0.9160156 0.3898926 0.09625244
vn -0.9755859 0.1939697 0.1025391
vn -0.9755859 0.1939697 0.1025391
vn -0.8662109 0 0.5
vn -0.9946289 0 0.1045532
vn -0.8496094 0.1939697 0.4904785
vn -0.5878906 0 0.809082
vn -0.7973633 0.3898926 0.4604492
vn -0.9160156 0.3898926 0.09625244
vn -0.5410156 0.3898926 0.7451172
vn -0.5766602 0.1939697 0.793457
vn -0.2078857 0 0.9780273
vn -0.1914063 0.3898926 0.9008789
vn -0.2039795 0.1939697 0.9594727
vn 0.2078857 0 0.9780273
vn 0.1914063 0.3898926 0.9008789
vn 0.2039795 0.1939697 0.9594727
vn 0.5878906 0 0.809082
vn 0.5410156 0.3898926 0.7451172
vn 0.5766602 0.1939697 0.793457
vn 0.8662109 0 0.5
vn 0.7973633 0.3898926 0.4604492
vn 0.8496094 0.1939697 0.4904785
vn 0.9946289 0 0.1045532
vn 0.9160156 0.3898926 0.09625244
vn 0.9755859 0.1939697 0.1025391
vn 0 -1 0
vn 0 -1 0
vn 0 -1 0
vn 0 -1 0
vn 0 -1 0
vn 0 -1 0
vn 0 -1 0
vn 0 -1 0
vn 0 -1 0
vn 0 -1 0
vn 0 -1 0
vn 0 -1 0
vn 0 -1 0
vn 0 -1 0
vn 0 -1 0
vn 0.3251953 0.9267578 0.1877441
vn 0.2144775 0.9765625 0.02253723
vn 0.3735352 0.9267578 0.03924561
vn 0.1867676 0.9765625 0.1077881
vn 0.2207031 0.9267578 0.3037109
vn 0.126709 0.9765625 0.1744385
vn 0.07806396 0.9267578 0.3671875
vn 0.04483032 0.9765625 0.2109375
vn -0.07806396 0.9267578 0.3671875
vn -0.04483032 0.9765625 0.2109375
vn -0.2207031 0.9267578 0.3037109
vn -0.126709 0.9765625 0.1744385
vn -0.3251953 0.9267578 0.1877441
vn -0.1867676 0.9765625 0.1077881
vn -0.3735352 0.9267578 0.03924561
vn -0.2144775 0.9765625 0.02253723
vn -0.3571777 0.9267578 -0.1160278
vn -0.2144775 0.9765625 0.02253723
vn -0.3735352 0.9267578 0.03924561
vn -0.2050781 0.9765625 -0.06665039
vn 0.08770752 0.9765625 -0.1970215
vn -0.1867676 0.9765625 0.1077881
vn -0.126709 0.9765625 0.1744385
vn -0.04483032 0.9765625 0.2109375
vn 0.04483032 0.9765625 0.2109375
vn 0.126709 0.9765625 0.1744385
vn 0.1867676 0.9765625 0.1077881
vn 0.2144775 0.9765625 0.02253723
vn 0.2050781 0.9765625 -0.06665039
vn 0.3735352 0.9267578 0.03924561
vn -0.2790527 0.9267578 -0.2512207
vn 0.3571777 0.9267578 -0.1160278
vn -0.1602783 0.9765625 -0.1442871
vn -0.15271 0.9267578 -0.3430176
vn 0.1602783 0.9765625 -0.1442871
vn 0.2790527 0.9267578 -0.2512207
vn 0.15271 0.9267578 -0.3430176
vn -0.08770752 0.9765625 -0.1970215
vn 0 0.9267578 -0.3754883
vn 0 0.9765625 -0.2155762
vn 0.4069824 0.8178711 -0.4069824
vn 0.08209229 0.9755859 -0.2034912
vn 0.2188721 0.8110352 -0.5424805
vn 0.1533203 0.9760742 -0.1533203
vn 0.5424805 0.8110352 -0.2188721
vn 0.01953125 0.9765625 -0.2143555
vn 0.0546875 0.8012695 -0.5957031
vn 0.2034912 0.9755859 -0.08209229
vn 0.5957031 0.8012695 -0.0546875
vn -0.01954651 0.9765625 -0.2143555
vn -0.0546875 0.8012695 -0.5957031
vn 0.2143555 0.9765625 -0.01954651
vn 0.5957031 0.8012695 0.0546875
vn -0.08209229 0.9755859 -0.2034912
vn -0.2188721 0.8110352 -0.5424805
vn 0.2143555 0.9765625 0.01953125
vn 0.5424805 0.8110352 0.2188721
vn -0.1533203 0.9760742 -0.1533203
vn -0.4069824 0.8178711 -0.4069824
vn 0.2034912 0.9755859 0.08209229
vn 0.4069824 0.8178711 0.4069824
vn -0.2034912 0.9755859 -0.08209229
vn -0.5424805 0.8110352 -0.2188721
vn 0.1533203 0.9760742 0.1533203
vn 0.2188721 0.8110352 0.5424805
vn -0.2143555 0.9765625 -0.01953125
vn -0.5957031 0.8012695 -0.0546875
vn 0.08209229 0.9755859 0.2034912
vn 0.0546875 0.8012695 0.5957031
vn -0.2143555 0.9765625 0.01954651
vn -0.5957031 0.8012695 0.0546875
vn 0.01954651 0.9765625 0.2143555
vn -0.0546875 0.8012695 0.5957031
vn -0.2034912 0.9755859 0.08209229
vn -0.5424805 0.8110352 0.2188721
vn -0.01953125 0.9765625 0.2143555
vn -0.2188721 0.8110352 0.5424805
vn -0.1533203 0.9760742 0.1533203
vn -0.4069824 0.8178711 0.4069824
vn -0.08209229 0.9755859 0.2034912
vn 0 1 0
vn 0 1 0
vn 0 1 0
vn 0 1 0
vn 0 1 0
vn 0 1 0
vn 0 1 0
vn 0 1 0
vn 0 1 0
vn 0 1 0
vn 0 1 0
vn 0 1 0
vn 0 1 0
vn 0 1 0
vn 0 1 0
vn 0 1 0
vn 0 1 0
vn 0 1 0
vn 0 1 0
vn 0 1 0
vn 0 1 0
vn 0 1 0
vn 0 1 0
vn 0 1 0
vn 0 1 0
vn 0 1 0
vn 0 1 0
vn 0 1 0
vn 0 1 0
vn 0 1 0
vn 0 1 0
vn 0 1 0
vn 0 1 0
vn 0 1 0
vn 0 1 0
vn 0 1 0
vn 0 1 0
vn 0 1 0
vn 0 1 0
vn 0 1 0
g RecorderBox_0
f 3/3/3 2/2/2 1/1/1
f 6/6/6 5/5/5 4/4/4
f 4/4/4 8/8/8 7/7/7
f 11/11/11 10/10/10 9/9/9
f 13/13/13 12/12/12 11/11/11
f 16/16/16 15/15/15 14/14/14
f 18/18/18 17/17/17 16/16/16
f 21/21/21 20/20/20 19/19/19
f 23/23/23 22/22/22 21/21/21
f 26/26/26 25/25/25 24/24/24
f 29/29/29 28/28/28 27/27/27
f 32/32/32 31/31/31 30/30/30
f 35/35/35 34/34/34 33/33/33
f 36/36/36 33/33/33 34/34/34
f 36/36/36 37/37/37 33/33/33
f 38/38/38 33/33/33 37/37/37
f 37/37/37 36/36/36 39/39/39
f 33/33/33 38/38/38 40/40/40
f 33/33/33 40/40/40 41/41/41
f 42/42/42 41/41/41 40/40/40
f 43/43/43 40/40/40 38/38/38
f 44/44/44 39/39/39 36/36/36
f 36/36/36 45/45/45 44/44/44
f 39/39/39 44/44/44 46/46/46
f 47/47/47 44/44/44 45/45/45
f 40/40/40 43/43/43 48/48/48
f 40/40/40 48/48/48 49/49/49
f 50/50/50 49/49/49 48/48/48
f 51/51/51 48/48/48 43/43/43
f 52/52/52 46/46/46 44/44/44
f 44/44/44 47/47/47 52/52/52
f 46/46/46 52/52/52 53/53/53
f 48/48/48 51/51/51 54/54/54
f 55/55/55 54/54/54 51/51/51
f 56/56/56 53/53/53 52/52/52
f 53/53/53 56/56/56 57/57/57
f 52/52/52 58/58/58 56/56/56
f 58/58/58 52/52/52 47/47/47
f 59/59/59 56/56/56 58/58/58
f 58/58/58 60/60/60 59/59/59
f 61/61/61 59/59/59 60/60/60
f 47/47/47 62/62/62 58/58/58
f 60/60/60 58/58/58 62/62/62
f 60/60/60 63/63/63 61/61/61
f 64/64/64 61/61/61 63/63/63
f 63/63/63 65/65/65 64/64/64
f 66/66/66 64/64/64 65/65/65
f 65/65/65 63/63/63 67/67/67
f 63/63/63 60/60/60 68/68/68
f 68/68/68 67/67/67 63/63/63
f 62/62/62 68/68/68 60/60/60
f 67/67/67 68/68/68 69/69/69
f 70/70/70 69/69/69 68/68/68
f 68/68/68 62/62/62 70/70/70
f 69/69/69 70/70/70 71/71/71
f 62/62/62 47/47/47 72/72/72
f 72/72/72 70/70/70 62/62/62
f 73/73/73 72/72/72 47/47/47
f 74/74/74 71/71/71 70/70/70
f 70/70/70 72/72/72 74/74/74
f 71/71/71 74/74/74 75/75/75
f 76/76/76 75/75/75 74/74/74
f 75/75/75 76/76/76 77/77/77
f 78/78/78 74/74/74 72/72/72
f 74/74/74 78/78/78 76/76/76
f 79/79/79 77/77/77 76/76/76
f 77/77/77 79/79/79 80/80/80
f 78/78/78 72/72/72 81/81/81
f 82/82/82 81/81/81 72/72/72
f 81/81/81 83/83/83 78/78/78
f 84/84/84 76/76/76 78/78/78
f 84/84/84 78/78/78 83/83/83
f 76/76/76 84/84/84 79/79/79
f 83/83/83 85/85/85 84/84/84
f 86/86/86 84/84/84 85/85/85
f 86/86/86 79/79/79 84/84/84
f 87/87/87 80/80/80 79/79/79
f 79/79/79 86/86/86 87/87/87
f 80/80/80 87/87/87 88/88/88
f 89/89/89 87/87/87 86/86/86
f 86/86/86 90/90/90 89/89/89
f 91/91/91 89/89/89 90/90/90
f 92/92/92 88/88/88 87/87/87
f 87/87/87 89/89/89 92/92/92
f 88/88/88 92/92/92 93/93/93
f 94/94/94 92/92/92 89/89/89
f 89/89/89 91/91/91 94/94/94
f 95/95/95 93/93/93 92/92/92
f 92/92/92 94/94/94 95/95/95
f 93/93/93 95/95/95 96/96/96
f 97/97/97 96/96/96 95/95/95
f 95/95/95 98/98/98 97/97/97
f 98/98/98 95/95/95 94/94/94
f 99/99/99 97/97/97 98/98/98
f 94/94/94 100/100/100 98/98/98
f 100/100/100 94/94/94 91/91/91
f 98/98/98 101/101/101 99/99/99
f 101/101/101 98/98/98 100/100/100
f 102/102/102 99/99/99 101/101/101
f 101/101/101 103/103/103 102/102/102
f 104/104/104 102/102/102 103/103/103
f 103/103/103 105/105/105 104/104/104
f 105/105/105 103/103/103 106/106/106
f 103/103/103 101/101/101 107/107/107
f 107/107/107 106/106/106 103/103/103
f 100/100/100 107/107/107 101/101/101
f 106/106/106 107/107/107 55/55/55
f 54/54/54 55/55/55 107/107/107
f 107/107/107 100/100/100 54/54/54
f 91/91/91 54/54/54 100/100/100
f 54/54/54 91/91/91 48/48/48
f 108/108/108 48/48/48 91/91/91
f 111/111/111 110/110/110 109/109/109
f 109/109/109 112/112/112 111/111/111
f 115/115/115 114/114/114 113/113/113
f 113/113/113 116/116/116 115/115/115
f 117/117/117 115/115/115 116/116/116
f 115/115/115 117/117/117 118/118/118
f 118/118/118 119/119/119 115/115/115
f 116/116/116 113/113/113 120/120/120
f 121/121/121 120/120/120 113/113/113
f 113/113/113 122/122/122 121/121/121
f 122/122/122 119/119/119 123/123/123
f 124/124/124 119/119/119 122/122/122
f 116/116/116 125/125/125 117/117/117
f 125/125/125 116/116/116 126/126/126
f 120/120/120 126/126/126 116/116/116
f 127/127/127 117/117/117 125/125/125
f 126/126/126 120/120/120 128/128/128
f 117/117/117 127/127/127 129/129/129
f 129/129/129 118/118/118 117/117/117
f 130/130/130 129/129/129 127/127/127
f 131/131/131 128/128/128 120/120/120
f 128/128/128 131/131/131 132/132/132
f 120/120/120 121/121/121 131/131/131
f 129/129/129 130/130/130 133/133/133
f 134/134/134 133/133/133 130/130/130
f 118/118/118 129/129/129 135/135/135
f 133/133/133 135/135/135 129/129/129
f 133/133/133 134/134/134 136/136/136
f 137/137/137 136/136/136 134/134/134
f 136/136/136 138/138/138 133/133/133
f 135/135/135 133/133/133 138/138/138
f 138/138/138 139/139/139 135/135/135
f 135/135/135 140/140/140 118/118/118
f 140/140/140 135/135/135 139/139/139
f 119/119/119 118/118/118 140/140/140
f 119/119/119 140/140/140 139/139/139
f 123/123/123 119/119/119 139/139/139
f 141/141/141 131/131/131 121/121/121
f 121/121/121 142/142/142 141/141/141
f 142/142/142 121/121/121 122/122/122
f 142/142/142 122/122/122 143/143/143
f 143/143/143 122/122/122 123/123/123
f 131/131/131 141/141/141 144/144/144
f 144/144/144 132/132/132 131/131/131
f 132/132/132 144/144/144 145/145/145
f 146/146/146 141/141/141 142/142/142
f 146/146/146 142/142/142 143/143/143
f 141/141/141 146/146/146 147/147/147
f 147/147/147 144/144/144 141/141/141
f 143/143/143 147/147/147 146/146/146
f 148/148/148 145/145/145 144/144/144
f 144/144/144 147/147/147 148/148/148
f 145/145/145 148/148/148 149/149/149
f 147/147/147 143/143/143 150/150/150
f 150/150/150 148/148/148 147/147/147
f 151/151/151 149/149/149 148/148/148
f 148/148/148 150/150/150 151/151/151
f 149/149/149 151/151/151 152/152/152
f 153/153/153 152/152/152 151/151/151
f 154/154/154 151/151/151 150/150/150
f 151/151/151 154/154/154 153/153/153
f 150/150/150 155/155/155 154/154/154
f 156/156/156 153/153/153 154/154/154
f 154/154/154 157/157/157 156/156/156
f 158/158/158 156/156/156 157/157/157
f 160/160/160 143/143/143 159/159/159
f 159/159/159 143/143/143 123/123/123
f 161/161/161 159/159/159 123/123/123
f 162/162/162 159/159/159 161/161/161
f 163/163/163 161/161/161 123/123/123
f 164/164/164 161/161/161 163/163/163
f 165/165/165 163/163/163 123/123/123
f 166/166/166 165/165/165 123/123/123
f 167/167/167 162/162/162 161/161/161
f 161/161/161 168/168/168 167/167/167
f 168/168/168 161/161/161 169/169/169
f 167/167/167 170/170/170 162/162/162
f 170/170/170 167/167/167 168/168/168
f 171/171/171 162/162/162 170/170/170
f 170/170/170 172/172/172 171/171/171
f 173/173/173 171/171/171 172/172/172
f 168/168/168 174/174/174 170/170/170
f 172/172/172 170/170/170 174/174/174
f 172/172/172 175/175/175 173/173/173
f 176/176/176 173/173/173 175/175/175
f 175/175/175 172/172/172 177/177/177
f 174/174/174 177/177/177 172/172/172
f 177/177/177 174/174/174 178/178/178
f 174/174/174 168/168/168 179/179/179
f 179/179/179 178/178/178 174/174/174
f 169/169/169 179/179/179 168/168/168
f 178/178/178 179/179/179 180/180/180
f 181/181/181 180/180/180 179/179/179
f 179/179/179 169/169/169 181/181/181
f 180/180/180 181/181/181 182/182/182
f 183/183/183 181/181/181 169/169/169
f 169/169/169 184/184/184 183/183/183
f 185/185/185 182/182/182 181/181/181
f 181/181/181 183/183/183 185/185/185
f 182/182/182 185/185/185 186/186/186
f 187/187/187 185/185/185 183/183/183
f 183/183/183 163/163/163 187/187/187
f 188/188/188 186/186/186 185/185/185
f 185/185/185 187/187/187 188/188/188
f 186/186/186 188/188/188 189/189/189
f 190/190/190 187/187/187 163/163/163
f 190/190/190 163/163/163 165/165/165
f 191/191/191 189/189/189 188/188/188
f 189/189/189 191/191/191 192/192/192
f 193/193/193 188/188/188 187/187/187
f 187/187/187 190/190/190 193/193/193
f 188/188/188 193/193/193 191/191/191
f 194/194/194 190/190/190 165/165/165
f 194/194/194 193/193/193 190/190/190
f 165/165/165 195/195/195 194/194/194
f 193/193/193 194/194/194 195/195/195
f 195/195/195 191/191/191 193/193/193
f 195/195/195 165/165/165 196/196/196
f 197/197/197 192/192/192 191/191/191
f 191/191/191 195/195/195 197/197/197
f 196/196/196 197/197/197 195/195/195
f 192/192/192 197/197/197 198/198/198
f 199/199/199 198/198/198 197/197/197
f 197/197/197 196/196/196 199/199/199
f 198/198/198 199/199/199 200/200/200
f 201/201/201 200/200/200 199/199/199
f 202/202/202 199/199/199 196/196/196
f 199/199/199 202/202/202 201/201/201
f 196/196/196 203/203/203 202/202/202
f 204/204/204 201/201/201 202/202/202
f 202/202/202 205/205/205 204/204/204
f 206/206/206 204/204/204 205/205/205
f 209/209/209 208/208/208 207/207/207
f 208/208/208 209/209/209 210/210/210
f 211/211/211 210/210/210 209/209/209
f 210/210/210 212/212/212 208/208/208
f 213/213/213 208/208/208 212/212/212
f 210/210/210 211/211/211 214/214/214
f 215/215/215 214/214/214 211/211/211
f 212/212/212 210/210/210 216/216/216
f 214/214/214 216/216/216 210/210/210
f 212/212/212 217/217/217 213/213/213
f 218/218/218 213/213/213 217/217/217
f 214/214/214 215/215/215 219/219/219
f 220/220/220 219/219/219 215/215/215
f 216/216/216 221/221/221 212/212/212
f 217/217/217 212/212/212 221/221/221
f 217/217/217 222/222/222 218/218/218
f 223/223/223 218/218/218 222/222/222
f 216/216/216 214/214/214 224/224/224
f 219/219/219 224/224/224 214/214/214
f 219/219/219 220/220/220 225/225/225
f 226/226/226 225/225/225 220/220/220
f 222/222/222 227/227/227 223/223/223
f 228/228/228 223/223/223 227/227/227
f 227/227/227 222/222/222 229/229/229
f 222/222/222 217/217/217 230/230/230
f 230/230/230 229/229/229 222/222/222
f 229/229/229 230/230/230 231/231/231
f 221/221/221 230/230/230 217/217/217
f 232/232/232 231/231/231 230/230/230
f 230/230/230 221/221/221 232/232/232
f 231/231/231 232/232/232 233/233/233
f 234/234/234 232/232/232 221/221/221
f 221/221/221 216/216/216 234/234/234
f 224/224/224 234/234/234 216/216/216
f 235/235/235 233/233/233 232/232/232
f 232/232/232 234/234/234 235/235/235
f 233/233/233 235/235/235 236/236/236
f 234/234/234 224/224/224 237/237/237
f 237/237/237 235/235/235 234/234/234
f 238/238/238 236/236/236 235/235/235
f 235/235/235 237/237/237 238/238/238
f 236/236/236 238/238/238 239/239/239
f 240/240/240 237/237/237 224/224/224
f 224/224/224 219/219/219 240/240/240
f 225/225/225 240/240/240 219/219/219
f 241/241/241 239/239/239 238/238/238
f 239/239/239 241/241/241 242/242/242
f 243/243/243 238/238/238 237/237/237
f 237/237/237 240/240/240 243/243/243
f 238/238/238 243/243/243 241/241/241
f 240/240/240 225/225/225 244/244/244
f 244/244/244 243/243/243 240/240/240
f 245/245/245 242/242/242 241/241/241
f 242/242/242 245/245/245 246/246/246
f 247/247/247 241/241/241 243/243/243
f 243/243/243 244/244/244 247/247/247
f 241/241/241 247/247/247 245/245/245
f 248/248/248 244/244/244 225/225/225
f 225/225/225 226/226/226 248/248/248
f 249/249/249 248/248/248 226/226/226
f 250/250/250 246/246/246 245/245/245
f 246/246/246 250/250/250 251/251/251
f 252/252/252 245/245/245 247/247/247
f 245/245/245 252/252/252 250/250/250
f 253/253/253 247/247/247 244/244/244
f 244/244/244 248/248/248 253/253/253
f 247/247/247 253/253/253 252/252/252
f 248/248/248 249/249/249 254/254/254
f 254/254/254 253/253/253 248/248/248
f 255/255/255 254/254/254 249/249/249
f 256/256/256 251/251/251 250/250/250
f 251/251/251 256/256/256 257/257/257
f 258/258/258 257/257/257 256/256/256
f 259/259/259 250/250/250 252/252/252
f 250/250/250 259/259/259 256/256/256
f 260/260/260 252/252/252 253/253/253
f 253/253/253 254/254/254 260/260/260
f 252/252/252 260/260/260 259/259/259
f 254/254/254 255/255/255 261/261/261
f 261/261/261 260/260/260 254/254/254
f 262/262/262 261/261/261 255/255/255
f 256/256/256 263/263/263 258/258/258
f 263/263/263 256/256/256 259/259/259
f 264/264/264 258/258/258 263/263/263
f 265/265/265 259/259/259 260/260/260
f 260/260/260 261/261/261 265/265/265
f 259/259/259 265/265/265 263/263/263
f 261/261/261 262/262/262 266/266/266
f 266/266/266 265/265/265 261/261/261
f 267/267/267 266/266/266 262/262/262
f 263/263/263 268/268/268 264/264/264
f 268/268/268 263/263/263 265/265/265
f 269/269/269 264/264/264 268/268/268
f 266/266/266 270/270/270 265/265/265
f 266/266/266 267/267/267 270/270/270
f 268/268/268 265/265/265 270/270/270
f 268/268/268 270/270/270 269/269/269
f 271/271/271 270/270/270 267/267/267
f 272/272/272 269/269/269 270/270/270
f 270/270/270 271/271/271 272/272/272
f 275/275/275 274/274/274 273/273/273
f 273/273/273 276/276/276 275/275/275
f 279/279/279 278/278/278 277/277/277
f 280/280/280 277/277/277 278/278/278
f 283/283/283 282/282/282 281/281/281
f 284/284/284 281/281/281 282/282/282
f 287/287/287 286/286/286 285/285/285
f 288/288/288 285/285/285 286/286/286
f 286/286/286 289/289/289 288/288/288
f 290/290/290 288/288/288 289/289/289
f 293/293/293 292/292/292 291/291/291
f 294/294/294 291/291/291 292/292/292
f 292/292/292 295/295/295 294/294/294
f 291/291/291 294/294/294 296/296/296
f 297/297/297 294/294/294 295/295/295
f 295/295/295 298/298/298 297/297/297
f 299/299/299 297/297/297 298/298/298
f 299/299/299 300/300/300 297/297/297
f 297/297/297 301/301/301 294/294/294
f 301/301/301 297/297/297 300/300/300
f 302/302/302 296/296/296 294/294/294
f 302/302/302 294/294/294 301/301/301
f 300/300/300 303/303/303 301/301/301
f 301/301/301 304/304/304 302/302/302
f 304/304/304 301/301/301 303/303/303
f 302/302/302 305/305/305 296/296/296
f 305/305/305 302/302/302 304/304/304
f 303/303/303 300/300/300 306/306/306
f 307/307/307 306/306/306 300/300/300
f 303/303/303 308/308/308 304/304/304
f 306/306/306 308/308/308 303/303/303
f 304/304/304 308/308/308 305/305/305
f 309/309/309 308/308/308 306/306/306
f 310/310/310 296/296/296 305/305/305
f 305/305/305 308/308/308 310/310/310
f 296/296/296 310/310/310 311/311/311
f 308/308/308 311/311/311 310/310/310
f 314/314/314 313/313/313 312/312/312
f 315/315/315 312/312/312 313/313/313
f 313/313/313 316/316/316 315/315/315
f 315/315/315 317/317/317 312/312/312
f 318/318/318 312/312/312 317/317/317
f 319/319/319 315/315/315 316/316/316
f 316/316/316 320/320/320 319/319/319
f 317/317/317 315/315/315 321/321/321
f 319/319/319 321/321/321 315/315/315
f 322/322/322 319/319/319 320/320/320
f 320/320/320 323/323/323 322/322/322
f 324/324/324 322/322/322 323/323/323
f 324/324/324 325/325/325 322/322/322
f 326/326/326 322/322/322 325/325/325
f 322/322/322 326/326/326 319/319/319
f 321/321/321 319/319/319 326/326/326
f 326/326/326 327/327/327 321/321/321
f 328/328/328 321/321/321 327/327/327
f 321/321/321 328/328/328 317/317/317
f 329/329/329 317/317/317 328/328/328
f 332/332/332 331/331/331 330/330/330
f 331/331/331 333/333/333 330/330/330
f 333/333/333 334/334/334 330/330/330
f 334/334/334 335/335/335 330/330/330
f 335/335/335 336/336/336 330/330/330
f 339/339/339 338/338/338 337/337/337
f 340/340/340 337/337/337 338/338/338
f 338/338/338 341/341/341 340/340/340
f 340/340/340 342/342/342 337/337/337
f 343/343/343 337/337/337 342/342/342
f 344/344/344 340/340/340 341/341/341
f 341/341/341 345/345/345 344/344/344
f 346/346/346 344/344/344 345/345/345
f 346/346/346 347/347/347 344/344/344
f 344/344/344 348/348/348 340/340/340
f 348/348/348 344/344/344 347/347/347
f 342/342/342 340/340/340 348/348/348
f 347/347/347 349/349/349 348/348/348
f 350/350/350 348/348/348 349/349/349
f 348/348/348 350/350/350 342/342/342
f 351/351/351 342/342/342 350/350/350
f 342/342/342 351/351/351 343/343/343
f 352/352/352 343/343/343 351/351/351
f 355/355/355 354/354/354 353/353/353
f 354/354/354 356/356/356 353/353/353
f 356/356/356 357/357/357 353/353/353
f 357/357/357 358/358/358 353/353/353
f 358/358/358 359/359/359 353/353/353
f 359/359/359 360/360/360 353/353/353
f 360/360/360 361/361/361 353/353/353
f 361/361/361 362/362/362 353/353/353
f 362/362/362 363/363/363 353/353/353
f 363/363/363 364/364/364 353/353/353
f 364/364/364 365/365/365 353/353/353
f 365/365/365 366/366/366 353/353/353
f 366/366/366 367/367/367 353/353/353
f 367/367/367 368/368/368 353/353/353
f 368/368/368 369/369/369 353/353/353
f 369/369/369 370/370/370 353/353/353
f 370/370/370 371/371/371 353/353/353
f 371/371/371 372/372/372 353/353/353
f 375/375/375 374/374/374 373/373/373
f 373/373/373 376/376/376 375/375/375
f 377/377/377 375/375/375 376/376/376
f 377/377/377 376/376/376 378/378/378
f 376/376/376 373/373/373 379/379/379
f 380/380/380 379/379/379 373/373/373
f 381/381/381 378/378/378 376/376/376
f 376/376/376 379/379/379 381/381/381
f 378/378/378 381/381/381 382/382/382
f 379/379/379 380/380/380 383/383/383
f 384/384/384 383/383/383 380/380/380
f 384/384/384 385/385/385 383/383/383
f 386/386/386 382/382/382 381/381/381
f 382/382/382 386/386/386 387/387/387
f 388/388/388 387/387/387 386/386/386
f 389/389/389 381/381/381 379/379/379
f 381/381/381 389/389/389 386/386/386
f 379/379/379 383/383/383 389/389/389
f 386/386/386 390/390/390 388/388/388
f 390/390/390 386/386/386 389/389/389
f 391/391/391 388/388/388 390/390/390
f 391/391/391 390/390/390 392/392/392
f 393/393/393 392/392/392 390/390/390
f 390/390/390 389/389/389 393/393/393
f 392/392/392 393/393/393 394/394/394
f 395/395/395 389/389/389 383/383/383
f 395/395/395 393/393/393 389/389/389
f 396/396/396 394/394/394 393/393/393
f 393/393/393 395/395/395 396/396/396
f 394/394/394 396/396/396 397/397/397
f 398/398/398 397/397/397 396/396/396
f 396/396/396 399/399/399 398/398/398
f 399/399/399 396/396/396 395/395/395
f 400/400/400 398/398/398 399/399/399
f 400/400/400 399/399/399 401/401/401
f 383/383/383 402/402/402 395/395/395
f 399/399/399 395/395/395 402/402/402
f 402/402/402 401/401/401 399/399/399
f 402/402/402 383/383/383 385/385/385
f 401/401/401 402/402/402 403/403/403
f 385/385/385 403/403/403 402/402/402
f 403/403/403 385/385/385 404/404/404
f 407/407/407 406/406/406 405/405/405
f 406/406/406 407/407/407 408/408/408
f 409/409/409 408/408/408 407/407/407
f 408/408/408 409/409/409 410/410/410
f 411/411/411 410/410/410 409/409/409
f 411/411/411 412/412/412 410/410/410
f 413/413/413 410/410/410 412/412/412
f 412/412/412 414/414/414 413/413/413
f 417/417/417 416/416/416 415/415/415
f 418/418/418 415/415/415 416/416/416
f 415/415/415 418/418/418 419/419/419
f 420/420/420 419/419/419 418/418/418
f 416/416/416 421/421/421 418/418/418
f 418/418/418 422/422/422 420/420/420
f 422/422/422 418/418/418 421/421/421
f 423/423/423 420/420/420 422/422/422
f 423/423/423 422/422/422 424/424/424
f 425/425/425 424/424/424 422/422/422
f 422/422/422 421/421/421 425/425/425
f 426/426/426 425/425/425 421/421/421
f 429/429/429 428/428/428 427/427/427
f 428/428/428 429/429/429 430/430/430
f 428/428/428 430/430/430 431/431/431
f 432/432/432 431/431/431 430/430/430
f 432/432/432 433/433/433 431/431/431
f 433/433/433 435/435/435 434/434/434
f 436/436/436 434/434/434 435/435/435
f 436/436/436 437/437/437 434/434/434
f 438/438/438 434/434/434 437/437/437
f 437/437/437 439/439/439 438/438/438
f 440/440/440 438/438/438 439/439/439
f 441/441/441 431/431/431 438/438/438
f 438/438/438 440/440/440 441/441/441
f 442/442/442 441/441/441 440/440/440
f 441/441/441 442/442/442 443/443/443
f 444/444/444 443/443/443 442/442/442
f 447/447/447 446/446/446 445/445/445
f 448/448/448 445/445/445 446/446/446
f 446/446/446 449/449/449 448/448/448
f 450/450/450 448/448/448 449/449/449
f 445/445/445 448/448/448 451/451/451
f 445/445/445 451/451/451 452/452/452
f 453/453/453 452/452/452 451/451/451
f 448/448/448 450/450/450 454/454/454
f 455/455/455 454/454/454 450/450/450
f 454/454/454 455/455/455 456/456/456
f 457/457/457 456/456/456 455/455/455
f 456/456/456 458/458/458 454/454/454
f 460/460/460 459/459/459 453/453/453
f 460/460/460 453/453/453 461/461/461
f 464/464/464 463/463/463 462/462/462
f 465/465/465 462/462/462 463/463/463
f 462/462/462 465/465/465 466/466/466
f 463/463/463 467/467/467 465/465/465
f 468/468/468 466/466/466 465/465/465
f 466/466/466 468/468/468 469/469/469
f 470/470/470 469/469/469 468/468/468
f 471/471/471 465/465/465 467/467/467
f 465/465/465 471/471/471 468/468/468
f 468/468/468 472/472/472 470/470/470
f 472/472/472 468/468/468 471/471/471
f 473/473/473 470/470/470 472/472/472
f 473/473/473 472/472/472 474/474/474
f 475/475/475 474/474/474 472/472/472
f 472/472/472 471/471/471 475/475/475
f 474/474/474 475/475/475 476/476/476
f 471/471/471 467/467/467 477/477/477
f 477/477/477 475/475/475 471/471/471
f 478/478/478 477/477/477 467/467/467
f 478/478/478 479/479/479 477/477/477
f 480/480/480 476/476/476 475/475/475
f 475/475/475 477/477/477 480/480/480
f 476/476/476 480/480/480 481/481/481
f 482/482/482 481/481/481 480/480/480
f 483/483/483 477/477/477 479/479/479
f 483/483/483 480/480/480 477/477/477
f 480/480/480 483/483/483 482/482/482
f 479/479/479 484/484/484 483/483/483
f 485/485/485 482/482/482 483/483/483
f 485/485/485 483/483/483 484/484/484
f 488/488/488 487/487/487 486/486/486
f 489/489/489 486/486/486 487/487/487
f 486/486/486 489/489/489 490/490/490
f 487/487/487 491/491/491 489/489/489
f 492/492/492 490/490/490 489/489/489
f 490/490/490 492/492/492 493/493/493
f 494/494/494 493/493/493 492/492/492
f 495/495/495 489/489/489 491/491/491
f 489/489/489 495/495/495 492/492/492
f 492/492/492 496/496/496 494/494/494
f 496/496/496 492/492/492 495/495/495
f 497/497/497 494/494/494 496/496/496
f 497/497/497 496/496/496 498/498/498
f 499/499/499 498/498/498 496/496/496
f 496/496/496 495/495/495 499/499/499
f 498/498/498 499/499/499 500/500/500
f 495/495/495 491/491/491 501/501/501
f 501/501/501 499/499/499 495/495/495
f 502/502/502 501/501/501 491/491/491
f 502/502/502 503/503/503 501/501/501
f 504/504/504 500/500/500 499/499/499
f 499/499/499 501/501/501 504/504/504
f 500/500/500 504/504/504 505/505/505
f 506/506/506 505/505/505 504/504/504
f 507/507/507 501/501/501 503/503/503
f 507/507/507 504/504/504 501/501/501
f 504/504/504 507/507/507 506/506/506
f 503/503/503 508/508/508 507/507/507
f 509/509/509 506/506/506 507/507/507
f 509/509/509 507/507/507 508/508/508
f 512/512/512 511/511/511 510/510/510
f 513/513/513 510/510/510 511/511/511
f 511/511/511 514/514/514 513/513/513
f 513/513/513 515/515/515 510/510/510
f 516/516/516 510/510/510 515/515/515
f 515/515/515 513/513/513 517/517/517
f 518/518/518 513/513/513 514/514/514
f 518/518/518 517/517/517 513/513/513
f 514/514/514 519/519/519 518/518/518
f 517/517/517 518/518/518 520/520/520
f 521/521/521 518/518/518 519/519/519
f 521/521/521 520/520/520 518/518/518
f 519/519/519 522/522/522 521/521/521
f 520/520/520 521/521/521 523/523/523
f 524/524/524 521/521/521 522/522/522
f 524/524/524 523/523/523 521/521/521
f 522/522/522 525/525/525 524/524/524
f 523/523/523 524/524/524 526/526/526
f 527/527/527 524/524/524 525/525/525
f 527/527/527 526/526/526 524/524/524
f 525/525/525 528/528/528 527/527/527
f 526/526/526 527/527/527 529/529/529
f 530/530/530 527/527/527 528/528/528
f 530/530/530 529/529/529 527/527/527
f 528/528/528 531/531/531 530/530/530
f 529/529/529 530/530/530 532/532/532
f 533/533/533 530/530/530 531/531/531
f 533/533/533 532/532/532 530/530/530
f 531/531/531 534/534/534 533/533/533
f 532/532/532 533/533/533 535/535/535
f 536/536/536 533/533/533 534/534/534
f 536/536/536 535/535/535 533/533/533
f 539/539/539 538/538/538 537/537/537
f 540/540/540 537/537/537 538/538/538
f 538/538/538 541/541/541 540/540/540
f 540/540/540 542/542/542 537/537/537
f 543/543/543 537/537/537 542/542/542
f 542/542/542 540/540/540 544/544/544
f 545/545/545 540/540/540 541/541/541
f 545/545/545 544/544/544 540/540/540
f 541/541/541 546/546/546 545/545/545
f 544/544/544 545/545/545 547/547/547
f 548/548/548 545/545/545 546/546/546
f 548/548/548 547/547/547 545/545/545
f 546/546/546 549/549/549 548/548/548
f 547/547/547 548/548/548 550/550/550
f 551/551/551 548/548/548 549/549/549
f 551/551/551 550/550/550 548/548/548
f 549/549/549 552/552/552 551/551/551
f 550/550/550 551/551/551 553/553/553
f 554/554/554 551/551/551 552/552/552
f 554/554/554 553/553/553 551/551/551
f 552/552/552 555/555/555 554/554/554
f 553/553/553 554/554/554 556/556/556
f 557/557/557 554/554/554 555/555/555
f 557/557/557 556/556/556 554/554/554
f 555/555/555 558/558/558 557/557/557
f 556/556/556 557/557/557 559/559/559
f 560/560/560 557/557/557 558/558/558
f 560/560/560 559/559/559 557/557/557
f 563/563/563 562/562/562 561/561/561
f 562/562/562 564/564/564 561/561/561
f 564/564/564 565/565/565 561/561/561
f 565/565/565 566/566/566 561/561/561
f 566/566/566 567/567/567 561/561/561
f 567/567/567 568/568/568 561/561/561
f 568/568/568 569/569/569 561/561/561
f 569/569/569 570/570/570 561/561/561
f 570/570/570 571/571/571 561/561/561
f 571/571/571 572/572/572 561/561/561
f 572/572/572 573/573/573 561/561/561
f 573/573/573 574/574/574 561/561/561
f 574/574/574 575/575/575 561/561/561
f 578/578/578 577/577/577 576/576/576
f 579/579/579 576/576/576 577/577/577
f 576/576/576 579/579/579 580/580/580
f 581/581/581 580/580/580 579/579/579
f 580/580/580 581/581/581 582/582/582
f 583/583/583 582/582/582 581/581/581
f 582/582/582 583/583/583 584/584/584
f 585/585/585 584/584/584 583/583/583
f 584/584/584 585/585/585 586/586/586
f 587/587/587 586/586/586 585/585/585
f 586/586/586 587/587/587 588/588/588
f 589/589/589 588/588/588 587/587/587
f 588/588/588 589/589/589 590/590/590
f 591/591/591 590/590/590 589/589/589
f 594/594/594 593/593/593 592/592/592
f 595/595/595 592/592/592 593/593/593
f 595/595/595 593/593/593 596/596/596
f 593/593/593 597/597/597 596/596/596
f 597/597/597 598/598/598 596/596/596
f 598/598/598 599/599/599 596/596/596
f 599/599/599 600/600/600 596/596/596
f 600/600/600 601/601/601 596/596/596
f 601/601/601 602/602/602 596/596/596
f 602/602/602 603/603/603 596/596/596
f 603/603/603 604/604/604 596/596/596
f 603/603/603 605/605/605 604/604/604
f 592/592/592 595/595/595 606/606/606
f 607/607/607 604/604/604 605/605/605
f 608/608/608 606/606/606 595/595/595
f 608/608/608 595/595/595 596/596/596
f 606/606/606 608/608/608 609/609/609
f 604/604/604 607/607/607 610/610/610
f 604/604/604 610/610/610 596/596/596
f 611/611/611 610/610/610 607/607/607
f 610/610/610 611/611/611 596/596/596
f 612/612/612 596/596/596 611/611/611
f 613/613/613 609/609/609 608/608/608
f 613/613/613 608/608/608 596/596/596
f 609/609/609 613/613/613 614/614/614
f 614/614/614 615/615/615 612/612/612
f 596/596/596 612/612/612 615/615/615
f 615/615/615 614/614/614 613/613/613
f 615/615/615 613/613/613 596/596/596
f 618/618/618 617/617/617 616/616/616
f 619/619/619 616/616/616 617/617/617
f 616/616/616 619/619/619 620/620/620
f 617/617/617 618/618/618 621/621/621
f 622/622/622 621/621/621 618/618/618
f 623/623/623 620/620/620 619/619/619
f 620/620/620 623/623/623 624/624/624
f 621/621/621 622/622/622 625/625/625
f 626/626/626 625/625/625 622/622/622
f 627/627/627 624/624/624 623/623/623
f 624/624/624 627/627/627 628/628/628
f 625/625/625 626/626/626 629/629/629
f 630/630/630 629/629/629 626/626/626
f 631/631/631 628/628/628 627/627/627
f 628/628/628 631/631/631 632/632/632
f 629/629/629 630/630/630 633/633/633
f 634/634/634 633/633/633 630/630/630
f 635/635/635 632/632/632 631/631/631
f 632/632/632 635/635/635 636/636/636
f 633/633/633 634/634/634 637/637/637
f 638/638/638 637/637/637 634/634/634
f 639/639/639 636/636/636 635/635/635
f 636/636/636 639/639/639 640/640/640
f 637/637/637 638/638/638 641/641/641
f 642/642/642 641/641/641 638/638/638
f 643/643/643 640/640/640 639/639/639
f 640/640/640 643/643/643 644/644/644
f 641/641/641 642/642/642 645/645/645
f 646/646/646 645/645/645 642/642/642
f 647/647/647 644/644/644 643/643/643
f 644/644/644 647/647/647 648/648/648
f 645/645/645 646/646/646 649/649/649
f 650/650/650 649/649/649 646/646/646
f 651/651/651 648/648/648 647/647/647
f 648/648/648 651/651/651 652/652/652
f 649/649/649 650/650/650 653/653/653
f 654/654/654 653/653/653 650/650/650
f 652/652/652 655/655/655 654/654/654
f 655/655/655 652/652/652 651/651/651
f 653/653/653 654/654/654 655/655/655
f 645/645/645 656/656/656 641/641/641
f 649/649/649 657/657/657 645/645/645
f 656/656/656 645/645/645 657/657/657
f 653/653/653 658/658/658 649/649/649
f 657/657/657 649/649/649 658/658/658
f 655/655/655 659/659/659 653/653/653
f 658/658/658 653/653/653 659/659/659
f 651/651/651 660/660/660 655/655/655
f 659/659/659 655/655/655 660/660/660
f 647/647/647 661/661/661 651/651/651
f 660/660/660 651/651/651 661/661/661
f 662/662/662 641/641/641 656/656/656
f 641/641/641 662/662/662 637/637/637
f 661/661/661 647/647/647 663/663/663
f 643/643/643 663/663/663 647/647/647
f 664/664/664 637/637/637 662/662/662
f 637/637/637 664/664/664 633/633/633
f 663/663/663 643/643/643 665/665/665
f 639/639/639 665/665/665 643/643/643
f 666/666/666 633/633/633 664/664/664
f 633/633/633 666/666/666 629/629/629
f 665/665/665 639/639/639 667/667/667
f 635/635/635 667/667/667 639/639/639
f 668/668/668 629/629/629 666/666/666
f 629/629/629 668/668/668 625/625/625
f 667/667/667 635/635/635 669/669/669
f 631/631/631 669/669/669 635/635/635
f 670/670/670 625/625/625 668/668/668
f 625/625/625 670/670/670 621/621/621
f 669/669/669 631/631/631 671/671/671
f 627/627/627 671/671/671 631/631/631
f 672/672/672 621/621/621 670/670/670
f 621/621/621 672/672/672 617/617/617
f 671/671/671 627/627/627 673/673/673
f 623/623/623 673/673/673 627/627/627
f 674/674/674 617/617/617 672/672/672
f 617/617/617 674/674/674 619/619/619
f 619/619/619 675/675/675 623/623/623
f 673/673/673 623/623/623 675/675/675
f 675/675/675 619/619/619 674/674/674
f 668/668/668 676/676/676 670/670/670
f 670/670/670 677/677/677 672/672/672
f 677/677/677 670/670/670 676/676/676
f 672/672/672 678/678/678 674/674/674
f 678/678/678 672/672/672 677/677/677
f 674/674/674 679/679/679 675/675/675
f 679/679/679 674/674/674 678/678/678
f 678/678/678 677/677/677 680/680/680
f 677/677/677 676/676/676 680/680/680
f 679/679/679 678/678/678 680/680/680
f 676/676/676 668/668/668 681/681/681
f 676/676/676 681/681/681 680/680/680
f 682/682/682 679/679/679 680/680/680
f 682/682/682 675/675/675 679/679/679
f 675/675/675 682/682/682 673/673/673
f 683/683/683 682/682/682 680/680/680
f 683/683/683 673/673/673 682/682/682
f 673/673/673 683/683/683 671/671/671
f 680/680/680 671/671/671 683/683/683
f 666/666/666 681/681/681 668/668/668
f 671/671/671 680/680/680 669/669/669
f 681/681/681 666/666/666 684/684/684
f 681/681/681 684/684/684 680/680/680
f 664/664/664 684/684/684 666/666/666
f 684/684/684 664/664/664 685/685/685
f 684/684/684 685/685/685 680/680/680
f 662/662/662 685/685/685 664/664/664
f 685/685/685 662/662/662 686/686/686
f 685/685/685 686/686/686 680/680/680
f 656/656/656 686/686/686 662/662/662
f 687/687/687 669/669/669 680/680/680
f 686/686/686 688/688/688 680/680/680
f 686/686/686 656/656/656 688/688/688
f 689/689/689 687/687/687 680/680/680
f 669/669/669 687/687/687 667/667/667
f 689/689/689 667/667/667 687/687/687
f 657/657/657 688/688/688 656/656/656
f 667/667/667 689/689/689 665/665/665
f 688/688/688 657/657/657 690/690/690
f 688/688/688 690/690/690 680/680/680
f 658/658/658 690/690/690 657/657/657
f 691/691/691 665/665/665 689/689/689
f 691/691/691 689/689/689 680/680/680
f 665/665/665 691/691/691 663/663/663
f 690/690/690 658/658/658 692/692/692
f 690/690/690 692/692/692 680/680/680
f 659/659/659 692/692/692 658/658/658
f 693/693/693 663/663/663 691/691/691
f 693/693/693 691/691/691 680/680/680
f 663/663/663 693/693/693 661/661/661
f 692/692/692 659/659/659 694/694/694
f 692/692/692 694/694/694 680/680/680
f 660/660/660 694/694/694 659/659/659
f 695/695/695 661/661/661 693/693/693
f 695/695/695 693/693/693 680/680/680
f 694/694/694 695/695/695 680/680/680
f 694/694/694 660/660/660 695/695/695
f 661/661/661 695/695/695 660/660/660
