g River
v 2.672326 1.897083 -10.56012
v 2.658288 1.538943 -10.51521
v 3.662642 1.531129 -10.52101
v 3.729617 1.893176 -10.4255
v 5.117266 1.523314 -10.26477
v 2.568225 2.255223 -10.44863
v 5.122539 1.889268 -10.20831
v 6.365847 1.523249 -9.517797
v 3.832078 2.255223 -10.11689
v 6.322338 1.889236 -9.486655
v 7.313264 1.523184 -8.353848
v 7.237131 1.889203 -8.375682
v 5.006055 2.255223 -9.931746
v 6.176717 2.11919 -9.160043
v 6.888116 2.255223 -8.18039
v 5.503714 2.255223 -7.664846
v 2.334882 2.255223 -8.573638
v 1.322144 2.255223 -8.864082
v -0.2025138 2.255223 -6.901081
v 3.26121 2.255223 -8.307976
v 4.382462 2.255223 -7.986411
v 0.9478944 2.255223 -6.571154
v -1.420015 2.255223 -4.389419
v 2.995474 2.255223 -5.983926
v 4.308438 2.255223 -5.60738
v 1.874223 2.255223 -6.305491
v -0.3775465 2.255223 -4.090448
v 1.670034 2.255223 -3.503221
v 2.89117 2.255223 -3.15301
v 0.750825 2.255223 -0.2837128
v 0.548782 2.255223 -3.824785
v -2.787555 2.255223 -1.463634
v -4.040227 2.255223 -2.02893
v -6.509294 2.255223 -0.3380839
v -0.513516 2.255223 -0.6463141
v -1.634768 2.255223 -0.9678786
v -4.944708 2.255223 0.2582595
v -7.719587 2.255223 0.2367146
v -2.304363 2.255223 1.122216
v -1.012579 2.255223 1.451782
v -3.380123 2.255223 0.8546029
v -6.546229 2.255223 1.398724
v -9.351292 2.255223 0.6548754
v -4.506503 2.255223 3.011121
v -3.461898 2.255223 3.512625
v -5.372871 2.255223 2.560735
v -8.188461 2.255223 2.031449
v -6.793301 2.255223 4.760315
v -6.442523 2.255223 5.65804
v -7.548696 2.255223 6.428576
v -7.428814 2.255223 3.292394
v -9.730213 2.255223 2.506257
v -10.38699 2.255223 1.482229
v -10.78864 2.205611 1.803086
v -8.204679 2.255223 5.229213
v -9.185686 2.255223 3.425177
v -10.32812 2.205611 2.690393
v -10.88869 2.006439 1.883008
v -8.752027 2.205611 5.411057
v -7.977682 2.205611 6.727398
v -9.867022 2.205611 3.476672
v -10.47705 2.006439 2.736259
v -10.88869 1.49286 1.883008
v -10.47705 1.49286 2.736259
v -10.03673 2.006439 3.489498
v -10.03674 1.49286 3.489498
v -8.888368 2.006439 5.456352
v -8.084538 2.006439 6.801833
v -8.888368 1.49286 5.456352
v -8.084538 1.49286 6.801833
vt 0.2111816 0.9448242
vt 0.2098389 0.940918
vt 0.2093506 0.9462891
vt 0.2106934 0.9506836
vt 0.2086182 0.9545898
vt 0.2125244 0.9482422
vt 0.210083 0.9580078
vt 0.2081299 0.9633789
vt 0.2119141 0.9555664
vt 0.2095947 0.9663086
vt 0.2076416 0.972168
vt 0.2091064 0.9746094
vt 0.2113037 0.9609375
vt 0.2105713 0.96875
vt 0.2108154 0.9770508
vt 0.2121582 0.9731445
vt 0.2139893 0.9555664
vt 0.2145996 0.949707
vt 0.217041 0.9511719
vt 0.213501 0.9604492
vt 0.2128906 0.9667969
vt 0.2164307 0.9580078
vt 0.2197266 0.9570313
vt 0.21521 0.9697266
vt 0.2144775 0.9770508
vt 0.2159424 0.9633789
vt 0.2191162 0.9628906
vt 0.2178955 0.9746094
vt 0.2171631 0.9814453
vt 0.2208252 0.9848633
vt 0.2185059 0.9682617
vt 0.2227783 0.9638672
vt 0.2233887 0.9560547
vt 0.2264404 0.9526367
vt 0.2215576 0.9775391
vt 0.222168 0.9711914
vt 0.2255859 0.9619141
vt 0.2276611 0.949707
vt 0.2241211 0.9775391
vt 0.2232666 0.9848633
vt 0.2247314 0.9716797
vt 0.2275391 0.9599609
vt 0.229248 0.9443359
vt 0.2270508 0.9760742
vt 0.2265625 0.9829102
vt 0.227417 0.9702148
vt 0.229248 0.9555664
vt 0.2299805 0.9736328
vt 0.2303467 0.9794922
vt 0.2316895 0.9775391
vt 0.2294922 0.9643555
vt 0.230835 0.9506836
vt 0.2305908 0.9433594
vt 0.2312012 0.9428711
vt 0.2314453 0.9697266
vt 0.230957 0.9575195
vt 0.2314453 0.9492188
vt 0.2320557 0.9423828
vt 0.2319336 0.9677734
vt 0.2322998 0.9770508
vt 0.2315674 0.9545898
vt 0.2322998 0.9477539
vt 0.2342529 0.9394531
vt 0.2344971 0.9453125
vt 0.2324219 0.953125
vt 0.2346191 0.9506836
vt 0.2327881 0.9667969
vt 0.2331543 0.9760742
vt 0.2351074 0.9643555
vt 0.2353516 0.9736328
vn 0.1240845 0.302002 -0.9453125
vn 0.06256104 0.06292725 -0.9960938
vn 0.1064453 0.1173706 -0.9873047
vn 0.1391602 0.3493652 -0.9267578
vn 0.3347168 0.161377 -0.9282227
vn 0.08123779 0.9116211 -0.4023438
vn 0.3232422 0.4316406 -0.8422852
vn 0.6508789 0.1328125 -0.7475586
vn 0.07769775 0.894043 -0.4414063
vn 0.5791016 0.4555664 -0.6757813
vn 0.7670898 0.1333008 -0.6279297
vn 0.6835938 0.4509277 -0.5742188
vn 0.1695557 0.9013672 -0.3984375
vn 0.2719727 0.9121094 -0.3071289
vn 0.2736816 0.9174805 -0.2890625
vn -0.004756927 0.9980469 -0.0614624
vn 0 1 0
vn 0 1 0
vn 0 1 0
vn 0.008415222 1 0.002698898
vn 0.01768494 1 -0.006874084
vn 0 1 0
vn 0 1 0
vn 0 1 0
vn 0 1 0
vn 0 1 0
vn 0 1 0
vn 0 1 0
vn 0 1 0
vn 0 1 0
vn 0 1 0
vn 0 1 0
vn 0 1 -1.788139E-07
vn 0 1 0
vn 0 1 0
vn 0 1 0
vn 0 1 0
vn 0 1 0
vn 0 1 0
vn 0 1 0
vn 0 1 0
vn 0 1 0
vn 0 1 2.384186E-07
vn 0 1 0
vn 0 1 1.192093E-07
vn 0 1 0
vn 0 1 1.192093E-07
vn 0 1 0
vn 0 1 1.192093E-07
vn -0.04229736 0.9990234 0.02404785
vn 0 1 0
vn -0.03585815 0.9990234 0.02107239
vn -0.03567505 0.9990234 0.02085876
vn -0.4121094 0.8867188 0.2103271
vn -0.03820801 0.9990234 0.02159119
vn -0.03543091 0.9990234 0.02023315
vn -0.4333496 0.8691406 0.237915
vn -0.8530273 0.3117676 0.4189453
vn -0.4309082 0.8666992 0.2519531
vn -0.4506836 0.8520508 0.2661133
vn -0.4174805 0.8754883 0.243042
vn -0.8388672 0.3076172 0.4489746
vn -0.9008789 0 0.4345703
vn -0.8828125 0 0.4699707
vn -0.8188477 0.3173828 0.4780273
vn -0.8632813 0 0.5043945
vn -0.8212891 0.3034668 0.4833984
vn -0.8222656 0.2900391 0.489502
vn -0.8608398 0 0.5087891
vn -0.8583984 0 0.5126953
g River_0
f 3/3/3 2/2/2 1/1/1
f 4/4/4 3/3/3 1/1/1
f 5/5/5 3/3/3 4/4/4
f 4/4/4 1/1/1 6/6/6
f 7/7/7 5/5/5 4/4/4
f 8/8/8 5/5/5 7/7/7
f 9/9/9 4/4/4 6/6/6
f 7/7/7 4/4/4 9/9/9
f 10/10/10 8/8/8 7/7/7
f 11/11/11 8/8/8 10/10/10
f 12/12/12 11/11/11 10/10/10
f 10/10/10 7/7/7 13/13/13
f 13/13/13 7/7/7 9/9/9
f 12/12/12 10/10/10 14/14/14
f 14/14/14 10/10/10 13/13/13
f 15/15/15 12/12/12 14/14/14
f 16/16/16 15/15/15 14/14/14
f 17/17/17 9/9/9 6/6/6
f 18/18/18 17/17/17 6/6/6
f 17/17/17 18/18/18 19/19/19
f 20/20/20 13/13/13 9/9/9
f 17/17/17 20/20/20 9/9/9
f 21/21/21 14/14/14 13/13/13
f 21/21/21 16/16/16 14/14/14
f 20/20/20 21/21/21 13/13/13
f 22/22/22 17/17/17 19/19/19
f 20/20/20 17/17/17 22/22/22
f 22/22/22 19/19/19 23/23/23
f 16/16/16 21/21/21 24/24/24
f 25/25/25 16/16/16 24/24/24
f 21/21/21 20/20/20 26/26/26
f 26/26/26 20/20/20 22/22/22
f 24/24/24 21/21/21 26/26/26
f 27/27/27 22/22/22 23/23/23
f 26/26/26 22/22/22 27/27/27
f 25/25/25 24/24/24 28/28/28
f 29/29/29 25/25/25 28/28/28
f 30/30/30 29/29/29 28/28/28
f 24/24/24 26/26/26 31/31/31
f 28/28/28 24/24/24 31/31/31
f 31/31/31 26/26/26 27/27/27
f 32/32/32 27/27/27 23/23/23
f 33/33/33 32/32/32 23/23/23
f 32/32/32 33/33/33 34/34/34
f 35/35/35 30/30/30 28/28/28
f 35/35/35 28/28/28 31/31/31
f 36/36/36 31/31/31 27/27/27
f 32/32/32 36/36/36 27/27/27
f 36/36/36 35/35/35 31/31/31
f 37/37/37 32/32/32 34/34/34
f 36/36/36 32/32/32 37/37/37
f 37/37/37 34/34/34 38/38/38
f 30/30/30 35/35/35 39/39/39
f 40/40/40 30/30/30 39/39/39
f 35/35/35 36/36/36 41/41/41
f 41/41/41 36/36/36 37/37/37
f 39/39/39 35/35/35 41/41/41
f 42/42/42 37/37/37 38/38/38
f 41/41/41 37/37/37 42/42/42
f 42/42/42 38/38/38 43/43/43
f 40/40/40 39/39/39 44/44/44
f 45/45/45 40/40/40 44/44/44
f 39/39/39 41/41/41 46/46/46
f 46/46/46 41/41/41 42/42/42
f 44/44/44 39/39/39 46/46/46
f 47/47/47 42/42/42 43/43/43
f 46/46/46 42/42/42 47/47/47
f 45/45/45 44/44/44 48/48/48
f 49/49/49 45/45/45 48/48/48
f 50/50/50 49/49/49 48/48/48
f 44/44/44 46/46/46 51/51/51
f 48/48/48 44/44/44 51/51/51
f 51/51/51 46/46/46 47/47/47
f 52/52/52 47/47/47 43/43/43
f 53/53/53 52/52/52 43/43/43
f 52/52/52 53/53/53 54/54/54
f 55/55/55 50/50/50 48/48/48
f 55/55/55 48/48/48 51/51/51
f 56/56/56 51/51/51 47/47/47
f 52/52/52 56/56/56 47/47/47
f 56/56/56 55/55/55 51/51/51
f 57/57/57 52/52/52 54/54/54
f 56/56/56 52/52/52 57/57/57
f 57/57/57 54/54/54 58/58/58
f 50/50/50 55/55/55 59/59/59
f 60/60/60 50/50/50 59/59/59
f 55/55/55 56/56/56 61/61/61
f 61/61/61 56/56/56 57/57/57
f 59/59/59 55/55/55 61/61/61
f 62/62/62 57/57/57 58/58/58
f 61/61/61 57/57/57 62/62/62
f 58/58/58 63/63/63 62/62/62
f 63/63/63 64/64/64 62/62/62
f 65/65/65 61/61/61 62/62/62
f 62/62/62 64/64/64 65/65/65
f 59/59/59 61/61/61 65/65/65
f 64/64/64 66/66/66 65/65/65
f 60/60/60 59/59/59 67/67/67
f 67/67/67 59/59/59 65/65/65
f 65/65/65 66/66/66 67/67/67
f 68/68/68 60/60/60 67/67/67
f 66/66/66 69/69/69 67/67/67
f 67/67/67 69/69/69 68/68/68
f 69/69/69 70/70/70 68/68/68
