g Rooster_Compass
v -0.02056813 0.556638 -0.01721203
v -0.02684593 0.556638 -0.003288865
v -0.07202983 0.5338743 -0.009889245
v -0.05518651 0.5338743 -0.04724371
v -0.007759333 0.556638 -0.02553093
v -0.1096718 0.480315 -0.01523173
v -0.02082229 0.5338743 -0.06956208
v 0.007513762 0.556638 -0.02560389
v -0.08402681 0.480315 -0.07210648
v -0.1096718 0.4297707 -0.01523173
v 0.02015352 0.5338738 -0.06975853
v 0.02040195 0.556638 -0.01740849
v -0.08402705 0.4297707 -0.07210648
v -0.08794975 0.3842318 -0.01221526
v -0.03170395 0.480315 -0.1060883
v 0.05473065 0.5338743 -0.0477711
v 0.02681327 0.556638 -0.003546357
v 0.07193112 0.5338743 -0.01057971
v -0.06738424 0.3842318 -0.05782521
v -0.04880881 0.3527181 -0.006778836
v -0.03170419 0.4297707 -0.1060883
v 0.03068471 0.4803154 -0.1063877
v 0.08333087 0.480315 -0.07290995
v 0.1095202 0.480315 -0.01628315
v 0.03068447 0.4297707 -0.1063877
v 0.08333087 0.4297707 -0.07290947
v 0.1095202 0.4297707 -0.01628363
v -0.02542472 0.3842318 -0.08507597
v -0.03739548 0.3527181 -0.03209078
v 0.02460694 0.3842318 -0.0853163
v 0.06682611 0.3842318 -0.05846894
v 0.0878284 0.3842318 -0.0130583
v -0.03739548 2.384186E-07 -0.03209078
v -0.04880881 2.384186E-07 -0.006778836
v -0.01410961 2.384186E-07 -0.04721415
v -0.01410961 0.3527176 -0.04721367
v 0.0136559 2.384186E-07 -0.04734671
v 0.0136559 0.3527181 -0.04734671
v 0.03708577 2.384186E-07 -0.03244793
v 0.03708577 0.3527181 -0.03244746
v 0.04874086 0.3527181 -0.007246614
v 0.0487411 2.384186E-07 -0.00724709
v 0.02471209 0.556638 0.01158178
v 0.02681327 0.556638 -0.003546357
v 0.07193112 0.5338743 -0.01057971
v 0.06629443 0.5338743 0.03000677
v 0.01476598 0.556638 0.02317274
v 0.1095202 0.480315 -0.01628315
v 0.03960967 0.5338743 0.06110227
v 0.0001320839 0.556638 0.02754533
v 0.1009378 0.480315 0.04551256
v 0.1095202 0.4297707 -0.01628363
v 0.0003492832 0.5338743 0.07283533
v -0.01454306 0.556638 0.02331293
v 0.1009376 0.4297707 0.04551256
v 0.0878284 0.3842318 -0.0130583
v 0.06030822 0.4803154 0.09285867
v -0.03902173 0.5338743 0.06147993
v -0.02460027 0.556638 0.01181829
v 0.08094573 0.3842318 0.03649843
v 0.04874086 0.3527181 -0.007246614
v 0.06030822 0.4297707 0.09285867
v 0.0005311966 0.4803145 0.1107229
v -0.06600356 0.5338743 0.03064096
v -0.02684593 0.556638 -0.003288865
v -0.07202983 0.5338743 -0.009889245
v -0.05941486 0.480315 0.09343326
v -0.1004965 0.4803145 0.04647911
v -0.1096718 0.480315 -0.01523173
v 0.0005311966 0.4297707 0.1107229
v 0.04836345 0.3842323 0.07446706
v -0.05941463 0.4297707 0.09343326
v -0.1004965 0.4297707 0.04647911
v -0.1096718 0.4297707 -0.01523173
v 0.000426054 0.3842318 0.08879268
v 0.04492116 0.3527181 0.02025497
v -0.047647 0.3842318 0.07492769
v -0.08059216 0.3842318 0.03727329
v -0.08794975 0.3842318 -0.01221526
v 0.02683949 0.3527181 0.04132593
v 0.0449214 2.384186E-07 0.02025497
v 0.0487411 2.384186E-07 -0.00724709
v 0.02683949 2.384186E-07 0.04132593
v 0.0002362728 2.384186E-07 0.04927623
v 0.0002362728 0.3527181 0.04927623
v -0.02644205 2.384186E-07 0.04158151
v -0.02644205 0.3527181 0.04158151
v -0.04472518 2.384186E-07 0.02068508
v -0.04472518 0.3527181 0.02068508
v -0.04880881 2.384186E-07 -0.006778836
v -0.04880881 0.3527181 -0.006778836
v 0.2421246 1.84926 -0.007454157
v 0.2748263 1.842704 -0.007611036
v 0.2670634 1.855275 -0.007573843
v 0.2392561 1.87721 -0.007440329
v 0.2165427 1.840542 -0.007331133
v 0.2171793 1.879503 -0.007334471
v 0.07433629 1.884969 -0.006648779
v 0.2044098 1.820083 -0.007272959
v 0.04542542 1.908805 -0.006510496
v 0.03412271 1.84955 -0.006456137
v 0.04861045 1.930032 -0.006525755
v 0.1921542 1.730877 -0.007214308
v 0.1998584 1.904926 -0.007251501
v -0.006265879 1.801176 -0.006262541
v 0.0753653 1.945067 -0.006654024
v 0.1536438 1.728132 -0.007029772
v 0.2036433 1.925901 -0.007269144
v -0.01695609 1.783828 -0.006211042
v 0.09441304 1.981573 -0.006745577
v 0.151036 1.709872 -0.007017374
v 0.1809649 1.96604 -0.007160902
v 0.1280973 1.984432 -0.006907225
v 0.1524606 1.980059 -0.007023573
v -0.0274117 1.763726 -0.006160975
v 0.1798997 1.641104 -0.007155657
v -0.05036092 1.70238 -0.006050825
v 0.2517481 1.55362 -0.00750041
v -0.05919766 1.63108 -0.006008387
v 0.282742 1.487096 -0.007648706
v -0.0668211 1.514851 -0.00597167
v 0.2746902 1.406055 -0.007610083
v -0.09565449 1.454318 -0.005833864
v -0.2576025 1.356301 -0.00505662
v 0.1270826 1.17754 -0.006901979
v 0.0992558 1.115916 -0.006768942
v -0.3036458 1.359143 -0.004835844
v -0.1205344 1.47756 -0.005714178
v -0.3445587 1.297227 -0.004639864
v -0.2985156 1.294386 -0.00486064
v 0.007148981 1.136848 -0.006326914
v -0.3292906 1.402095 -0.00471282
v -0.1673152 1.550425 -0.005490065
v -0.3763046 1.371014 -0.004487753
v -0.1925642 1.584317 -0.005368948
v -0.3732998 1.449434 -0.004502058
v -0.2178128 1.618208 -0.005247831
v -0.4058855 1.433321 -0.004345655
v -0.2760103 1.658892 -0.004968882
v -0.4094684 1.46141 -0.004328489
v -0.3533816 1.682882 -0.004597425
v -0.4214025 1.453072 -0.004271269
v -0.4391026 1.681226 -0.004186392
v 0.09226155 1.079767 -0.006735563
v -0.4896982 1.42927 -0.003943682
v -0.4115117 1.299759 -0.004318476
v -0.4430397 1.248026 -0.004167318
v -0.514487 1.649326 -0.003824472
v -0.5580049 1.434254 -0.003616095
v -0.5069609 1.343829 -0.003860712
v -0.5529826 1.30497 -0.003639936
v -0.5773976 1.590944 -0.003522635
v -0.6163993 1.284146 -0.003335714
v -0.6697562 1.311427 -0.003079653
v -0.7032485 1.199565 -0.002918959
v -0.7210882 1.215439 -0.002833605
v 0.04022765 1.08986 -0.006485701
v 0.08837843 1.022986 -0.00671649
v 0.04351735 1.02862 -0.006501436
v 0.1355135 0.895889 -0.006942511
v 0.1034093 0.8953269 -0.006788969
v 0.2047524 0.8538668 -0.007274866
v 0.04638624 0.8527048 -0.006515265
v -0.1316249 1.175056 -0.005661249
v -0.04392815 1.088261 -0.00608182
v -0.1199098 1.10918 -0.005717516
v -0.06094551 1.033035 -0.00600028
v -0.09396172 1.042125 -0.00584197
v -0.0793705 0.9140379 -0.005911589
v -0.1055005 0.915899 -0.005786657
v -0.06536984 0.8864949 -0.0059793
v -0.118681 0.8902924 -0.005723238
v -0.02390575 0.8532288 -0.006177664
v -0.163449 0.8526976 -0.005508661
v -0.1548579 1.181452 -0.005549669
v -0.152806 1.117964 -0.005559683
v -0.1913879 1.080253 -0.00537467
v -0.1780903 1.187849 -0.005438566
v -0.2161148 1.121744 -0.005256414
v -0.2107804 1.196849 -0.005281687
v -0.2607121 1.10262 -0.005041838
v -0.2434704 1.20585 -0.005124807
v -0.2537174 1.16826 -0.005075693
v -0.2937019 1.229368 -0.004883528
v -0.2972295 1.153278 -0.004866838
v -0.3315802 1.229097 -0.00470233
v 0.2421849 1.84926 0.005172968
v 0.2671239 1.855275 0.005053759
v 0.2748868 1.842703 0.005016565
v 0.2393162 1.87721 0.005187273
v 0.2166033 1.840543 0.005295992
v 0.2172399 1.879503 0.005292654
v 0.07439685 1.884969 0.005978346
v 0.2044704 1.820082 0.005354166
v 0.04548597 1.908805 0.006117105
v 0.03418303 1.84955 0.006171465
v 0.04867077 1.930032 0.006101847
v 0.1922145 1.730877 0.005412817
v 0.1999185 1.904925 0.005376101
v -0.006204844 1.801175 0.006365061
v 0.07542586 1.945067 0.005973101
v 0.1537042 1.728131 0.00559783
v 0.2037041 1.925901 0.005357981
v -0.01689529 1.783828 0.006415606
v 0.0944736 1.981573 0.005882025
v 0.1510966 1.709871 0.005610228
v 0.1810257 1.966039 0.0054667
v 0.1281579 1.984432 0.005720377
v 0.1525214 1.980059 0.005603552
v -0.02735114 1.763726 0.00646615
v 0.1799605 1.641103 0.005471468
v -0.05030036 1.70238 0.006576777
v 0.2518086 1.55362 0.005127192
v -0.05913687 1.63108 0.006618738
v 0.2828023 1.487096 0.004978418
v -0.06676054 1.514851 0.006654978
v 0.2747507 1.406055 0.005017042
v -0.09559417 1.454318 0.006793261
v -0.2575419 1.356301 0.007570505
v 0.1271431 1.17754 0.005725145
v 0.09931636 1.115916 0.00585866
v -0.3035853 1.359143 0.007791281
v -0.1204736 1.477559 0.00691247
v -0.3444984 1.297228 0.007987261
v -0.2984548 1.294386 0.007766962
v 0.007209539 1.136848 0.006300211
v -0.3292301 1.402094 0.007914305
v -0.1672547 1.550425 0.007137537
v -0.3762443 1.371015 0.008139849
v -0.1925035 1.584317 0.007258654
v -0.3732393 1.449434 0.008125544
v -0.2177527 1.618208 0.00737977
v -0.4058249 1.433321 0.008281946
v -0.2759502 1.658892 0.00765872
v -0.4094081 1.46141 0.008299112
v -0.3533213 1.682882 0.008030176
v -0.4213417 1.453072 0.008356333
v -0.4390421 1.681226 0.00844121
v -0.4896376 1.42927 0.00868392
v -0.4114513 1.299759 0.008308649
v -0.4429796 1.248026 0.008459806
v -0.5144262 1.649326 0.008802652
v -0.5579445 1.434255 0.009011507
v -0.5069003 1.343829 0.008766413
v -0.5529222 1.304971 0.008987665
v -0.5773365 1.590943 0.00910449
v -0.6163387 1.284146 0.009291887
v -0.6696956 1.311428 0.009547472
v -0.7031879 1.199565 0.009708166
v -0.7210276 1.215439 0.009793997
v 0.1034701 0.8953269 0.005838633
v 0.204813 0.8538668 0.005352259
v 0.0464468 0.8527048 0.006112337
v 0.1355741 0.895889 0.005684614
v 0.04357791 1.028619 0.006125689
v 0.08843875 1.022986 0.005910635
v 0.04028821 1.08986 0.006141901
v 0.09232211 1.079768 0.005892038
v -0.1315644 1.175056 0.006965876
v -0.04386759 1.08826 0.006545305
v -0.119849 1.10918 0.006910086
v -0.06088519 1.033035 0.006627321
v -0.09390092 1.042125 0.006785631
v -0.0793097 0.9140379 0.006715059
v -0.1054399 0.915899 0.006840944
v -0.06530929 0.8864949 0.006648302
v -0.1186206 0.8902924 0.006903887
v -0.0238452 0.8532288 0.006448984
v -0.1633885 0.8526976 0.007118464
v -0.1547973 1.181453 0.007077456
v -0.1527455 1.117964 0.007067919
v -0.1913273 1.080252 0.007252932
v -0.1780298 1.187849 0.007189035
v -0.2160547 1.121745 0.007371187
v -0.2107198 1.196849 0.007345915
v -0.2606514 1.10262 0.007585287
v -0.2434096 1.20585 0.007502794
v -0.2536569 1.16826 0.007551908
v -0.2936413 1.229369 0.007743597
v -0.2971692 1.153279 0.007760763
v -0.3315196 1.229096 0.007925272
v -0.4430397 1.248026 -0.004167318
v -0.4429796 1.248026 0.008459806
v -0.4114513 1.299759 0.008308649
v -0.4115117 1.299759 -0.004318476
v -0.4213417 1.453072 0.008356333
v -0.4214025 1.453072 -0.004271269
v 0.007148981 1.136848 -0.006326914
v 0.007209539 1.136848 0.006300211
v 0.04028821 1.08986 0.006141901
v 0.04022765 1.08986 -0.006485701
v 0.04357791 1.028619 0.006125689
v 0.04351735 1.02862 -0.006501436
v 0.1034701 0.8953269 0.005838633
v 0.1034093 0.8953269 -0.006788969
v -0.4214025 1.453072 -0.004271269
v -0.4213417 1.453072 0.008356333
v -0.4094081 1.46141 0.008299112
v -0.4094684 1.46141 -0.004328489
v 0.1280973 1.984432 -0.006907225
v 0.1281579 1.984432 0.005720377
v 0.0944736 1.981573 0.005882025
v 0.09441304 1.981573 -0.006745577
v 0.151036 1.709872 -0.007017374
v 0.1537042 1.728131 0.00559783
v 0.1536438 1.728132 -0.007029772
v 0.1510966 1.709871 0.005610228
v 0.1798997 1.641104 -0.007155657
v 0.1799605 1.641103 0.005471468
v 0.2517481 1.55362 -0.00750041
v 0.2518086 1.55362 0.005127192
v 0.282742 1.487096 -0.007648706
v 0.2828023 1.487096 0.004978418
v 0.2746902 1.406055 -0.007610083
v 0.2747507 1.406055 0.005017042
v 0.1270826 1.17754 -0.006901979
v 0.1271431 1.17754 0.005725145
v 0.0992558 1.115916 -0.006768942
v 0.09931636 1.115916 0.00585866
v 0.09226155 1.079767 -0.006735563
v 0.09232211 1.079768 0.005892038
v 0.08837843 1.022986 -0.00671649
v 0.08843875 1.022986 0.005910635
v 0.1355135 0.895889 -0.006942511
v 0.1355741 0.895889 0.005684614
v 0.2047524 0.8538668 -0.007274866
v 0.204813 0.8538668 0.005352259
v 0.2165427 1.840542 -0.007331133
v 0.2421849 1.84926 0.005172968
v 0.2421246 1.84926 -0.007454157
v 0.2166033 1.840543 0.005295992
v 0.2044098 1.820083 -0.007272959
v 0.2044704 1.820082 0.005354166
v 0.1921542 1.730877 -0.007214308
v 0.1922145 1.730877 0.005412817
v 0.1536438 1.728132 -0.007029772
v 0.1537042 1.728131 0.00559783
v 0.1922145 1.730877 0.005412817
v 0.1921542 1.730877 -0.007214308
v 0.5025835 0.8696406 -0.002413511
v 0.4457724 0.8696406 -0.05705523
v 0.4460359 0.9546278 -0.002142191
v 0.4457722 0.7846529 -0.05705512
v 0.5025835 0.7846529 -0.002413392
v 0.4460356 0.6996658 -0.002142549
v 0.1034093 0.8953269 -0.006788969
v 0.1034701 0.8953269 0.005838633
v 0.0464468 0.8527048 0.006112337
v 0.04638624 0.8527048 -0.006515265
v 0.1524606 1.980059 -0.007023573
v 0.1281579 1.984432 0.005720377
v 0.1280973 1.984432 -0.006907225
v 0.1525214 1.980059 0.005603552
v 0.1809649 1.96604 -0.007160902
v 0.1810257 1.966039 0.0054667
v 0.2036433 1.925901 -0.007269144
v 0.2037041 1.925901 0.005357981
v 0.1998584 1.904926 -0.007251501
v 0.1999185 1.904925 0.005376101
v 0.2171793 1.879503 -0.007334471
v 0.2172399 1.879503 0.005292654
v 0.2392561 1.87721 -0.007440329
v 0.2393162 1.87721 0.005187273
v 0.2670634 1.855275 -0.007573843
v 0.2671239 1.855275 0.005053759
v 0.2748263 1.842704 -0.007611036
v 0.2748868 1.842703 0.005016565
v -0.3533816 1.682882 -0.004597425
v -0.3533213 1.682882 0.008030176
v -0.4390421 1.681226 0.00844121
v -0.4391026 1.681226 -0.004186392
v -0.5144262 1.649326 0.008802652
v -0.514487 1.649326 -0.003824472
v -0.5773365 1.590943 0.00910449
v -0.5773976 1.590944 -0.003522635
v -0.6696956 1.311428 0.009547472
v -0.6697562 1.311427 -0.003079653
v -0.7210276 1.215439 0.009793997
v -0.7210882 1.215439 -0.002833605
v -0.3763046 1.371014 -0.004487753
v -0.3762443 1.371015 0.008139849
v -0.3292301 1.402094 0.007914305
v -0.3292906 1.402095 -0.00471282
v -0.1913879 1.080253 -0.00537467
v -0.1913273 1.080252 0.007252932
v -0.1527455 1.117964 0.007067919
v -0.152806 1.117964 -0.005559683
v -0.1315644 1.175056 0.006965876
v -0.1316249 1.175056 -0.005661249
v -0.4094684 1.46141 -0.004328489
v -0.4094081 1.46141 0.008299112
v -0.4058249 1.433321 0.008281946
v -0.4058855 1.433321 -0.004345655
v 0.07433629 1.884969 -0.006648779
v 0.07439685 1.884969 0.005978346
v 0.03418303 1.84955 0.006171465
v 0.03412271 1.84955 -0.006456137
v -0.006204844 1.801175 0.006365061
v -0.006265879 1.801176 -0.006262541
v -0.01689529 1.783828 0.006415606
v -0.01695609 1.783828 -0.006211042
v -0.02735114 1.763726 0.00646615
v -0.0274117 1.763726 -0.006160975
v -0.05030036 1.70238 0.006576777
v -0.05036092 1.70238 -0.006050825
v -0.05913687 1.63108 0.006618738
v -0.05919766 1.63108 -0.006008387
v -0.06676054 1.514851 0.006654978
v -0.0668211 1.514851 -0.00597167
v -0.09559417 1.454318 0.006793261
v -0.09565449 1.454318 -0.005833864
v -0.118681 0.8902924 -0.005723238
v -0.1633885 0.8526976 0.007118464
v -0.163449 0.8526976 -0.005508661
v -0.1186206 0.8902924 0.006903887
v -0.1055005 0.915899 -0.005786657
v -0.1054399 0.915899 0.006840944
v -0.09396172 1.042125 -0.00584197
v -0.09390092 1.042125 0.006785631
v -0.1199098 1.10918 -0.005717516
v -0.119849 1.10918 0.006910086
v -0.1316249 1.175056 -0.005661249
v -0.1315644 1.175056 0.006965876
v -0.02390575 0.8532288 -0.006177664
v -0.0238452 0.8532288 0.006448984
v -0.06530929 0.8864949 0.006648302
v -0.06536984 0.8864949 -0.0059793
v -0.0793097 0.9140379 0.006715059
v -0.0793705 0.9140379 -0.005911589
v -0.06088519 1.033035 0.006627321
v -0.06094551 1.033035 -0.00600028
v -0.04386759 1.08826 0.006545305
v -0.04392815 1.088261 -0.00608182
v 0.007209539 1.136848 0.006300211
v 0.007148981 1.136848 -0.006326914
v -0.2607121 1.10262 -0.005041838
v -0.2606514 1.10262 0.007585287
v -0.2160547 1.121745 0.007371187
v -0.2161148 1.121744 -0.005256414
v -0.2985156 1.294386 -0.00486064
v -0.2984548 1.294386 0.007766962
v -0.3315196 1.229096 0.007925272
v -0.3315802 1.229097 -0.00470233
v -0.6163993 1.284146 -0.003335714
v -0.5579445 1.434255 0.009011507
v -0.5580049 1.434254 -0.003616095
v -0.6163387 1.284146 0.009291887
v -0.7032485 1.199565 -0.002918959
v -0.7031879 1.199565 0.009708166
v -0.3732998 1.449434 -0.004502058
v -0.3732393 1.449434 0.008125544
v -0.3762443 1.371015 0.008139849
v -0.3763046 1.371014 -0.004487753
v -0.2760103 1.658892 -0.004968882
v -0.3533213 1.682882 0.008030176
v -0.3533816 1.682882 -0.004597425
v -0.2759502 1.658892 0.00765872
v -0.2178128 1.618208 -0.005247831
v -0.2177527 1.618208 0.00737977
v -0.1925642 1.584317 -0.005368948
v -0.1925035 1.584317 0.007258654
v -0.1673152 1.550425 -0.005490065
v -0.1672547 1.550425 0.007137537
v -0.1205344 1.47756 -0.005714178
v -0.1204736 1.477559 0.00691247
v -0.09565449 1.454318 -0.005833864
v -0.09559417 1.454318 0.006793261
v -0.3292906 1.402095 -0.00471282
v -0.3292301 1.402094 0.007914305
v -0.3035853 1.359143 0.007791281
v -0.3036458 1.359143 -0.004835844
v 0.04542542 1.908805 -0.006510496
v 0.04548597 1.908805 0.006117105
v 0.07439685 1.884969 0.005978346
v 0.07433629 1.884969 -0.006648779
v -0.2161148 1.121744 -0.005256414
v -0.2160547 1.121745 0.007371187
v -0.1913273 1.080252 0.007252932
v -0.1913879 1.080253 -0.00537467
v -0.7210882 1.215439 -0.002833605
v -0.7210276 1.215439 0.009793997
v -0.7031879 1.199565 0.009708166
v -0.7032485 1.199565 -0.002918959
v -0.2972295 1.153278 -0.004866838
v -0.2971692 1.153279 0.007760763
v -0.2536569 1.16826 0.007551908
v -0.2537174 1.16826 -0.005075693
v -0.2537174 1.16826 -0.005075693
v -0.2536569 1.16826 0.007551908
v -0.2606514 1.10262 0.007585287
v -0.2607121 1.10262 -0.005041838
v -0.5580049 1.434254 -0.003616095
v -0.5579445 1.434255 0.009011507
v -0.5529222 1.304971 0.008987665
v -0.5529826 1.30497 -0.003639936
v -0.4058855 1.433321 -0.004345655
v -0.4058249 1.433321 0.008281946
v -0.3732393 1.449434 0.008125544
v -0.3732998 1.449434 -0.004502058
v -0.2937019 1.229368 -0.004883528
v -0.2936413 1.229369 0.007743597
v -0.2971692 1.153279 0.007760763
v -0.2972295 1.153278 -0.004866838
v -0.5069609 1.343829 -0.003860712
v -0.4896376 1.42927 0.00868392
v -0.4896982 1.42927 -0.003943682
v -0.5069003 1.343829 0.008766413
v -0.5529826 1.30497 -0.003639936
v -0.5529222 1.304971 0.008987665
v 0.04861045 1.930032 -0.006525755
v 0.04548597 1.908805 0.006117105
v 0.04542542 1.908805 -0.006510496
v 0.04867077 1.930032 0.006101847
v 0.0753653 1.945067 -0.006654024
v 0.07542586 1.945067 0.005973101
v 0.09441304 1.981573 -0.006745577
v 0.0944736 1.981573 0.005882025
v -0.3445587 1.297227 -0.004639864
v -0.3444984 1.297228 0.007987261
v -0.2984548 1.294386 0.007766962
v -0.2985156 1.294386 -0.00486064
v 0.2421246 1.84926 -0.007454157
v 0.2421849 1.84926 0.005172968
v 0.2748868 1.842703 0.005016565
v 0.2748263 1.842704 -0.007611036
v -0.4896982 1.42927 -0.003943682
v -0.4896376 1.42927 0.00868392
v -0.4429796 1.248026 0.008459806
v -0.4430397 1.248026 -0.004167318
v -0.3036458 1.359143 -0.004835844
v -0.3035853 1.359143 0.007791281
v -0.3444984 1.297228 0.007987261
v -0.3445587 1.297227 -0.004639864
v -0.3315802 1.229097 -0.00470233
v -0.3315196 1.229096 0.007925272
v -0.2936413 1.229369 0.007743597
v -0.2937019 1.229368 -0.004883528
v 0.5010102 0.798877 0.01050508
v 0.500927 0.796385 -0.006828427
v -0.6606565 0.7963846 -0.001256108
v -0.660573 0.798877 0.01607692
v 0.5010741 0.8103449 0.02373874
v -0.6605093 0.8103445 0.02931106
v 0.5010977 0.8271468 0.02867246
v -0.6604855 0.8271468 0.03424478
v 0.5010743 0.8439491 0.0237391
v -0.6605089 0.8439486 0.02931142
v 0.5010107 0.855417 0.01050448
v -0.660573 0.855417 0.01607728
v 0.5009277 0.8579094 -0.006829023
v -0.6606557 0.857909 -0.001256227
v 0.500927 0.796385 -0.006828427
v -0.660733 0.8036592 -0.01718533
v -0.6606565 0.7963846 -0.001256108
v 0.5008507 0.8036592 -0.02275765
v -0.6607783 0.8183911 -0.02665246
v 0.5008049 0.8183911 -0.03222525
v -0.6607778 0.8359029 -0.02665305
v 0.5008051 0.8359029 -0.03222489
v -0.6607323 0.8506343 -0.01718497
v 0.5008512 0.8506343 -0.02275777
v -0.6606557 0.857909 -0.001256227
v 0.5009277 0.8579094 -0.006829023
v -0.660573 0.798877 0.01607692
v -0.6606565 0.7963846 -0.001256108
v -0.660733 0.8036592 -0.01718533
v -0.6605093 0.8103445 0.02931106
v -0.6607783 0.8183911 -0.02665246
v -0.6604855 0.8271468 0.03424478
v -0.6607778 0.8359029 -0.02665305
v -0.6605089 0.8439486 0.02931142
v -0.6607323 0.8506343 -0.01718497
v -0.660573 0.855417 0.01607728
v -0.6606557 0.857909 -0.001256227
v 0.4460359 0.9546278 -0.002142191
v 0.4462988 0.8696406 0.0527699
v 0.5025835 0.8696406 -0.002413511
v 0.5025835 0.7846529 -0.002413392
v 0.4462991 0.7846529 0.05277002
v 0.4460356 0.6996658 -0.002142549
v 0.5042617 0.9302623 -0.002422094
v 0.4462988 0.8696406 0.0527699
v 0.4460359 0.9546278 -0.002142191
v 0.5044744 0.8615186 0.04199529
v 0.5235131 0.9222057 -0.002514124
v 0.4462991 0.7846529 0.05277002
v 0.5483179 0.855387 0.01720357
v 0.7506711 0.8271468 -0.003603697
v 0.5044746 0.7927754 0.04199541
v 0.4460356 0.6996658 -0.002142549
v 0.5042617 0.7240317 -0.002421975
v 0.5483177 0.798907 0.01720369
v 0.5235131 0.7320883 -0.002514482
v 0.5042617 0.7240317 -0.002421975
v 0.4457722 0.7846529 -0.05705512
v 0.4460356 0.6996658 -0.002142549
v 0.5040483 0.7927754 -0.0468384
v 0.5235131 0.7320883 -0.002514482
v 0.5040483 0.8615186 -0.04683852
v 0.4457724 0.8696406 -0.05705523
v 0.5481277 0.798907 -0.02246869
v 0.7506711 0.8271468 -0.003603697
v 0.5481274 0.855387 -0.02246881
v 0.5235131 0.9222057 -0.002514124
v 0.5042617 0.9302623 -0.002422094
v 0.4460359 0.9546278 -0.002142191
v -0.320451 0.847862 -0.00908637
v -0.320349 0.847862 0.01215529
v -0.398684 0.9867718 0.01253104
v -0.3987858 0.9867718 -0.0087111
v -0.320349 0.847862 0.01215529
v -0.4071677 0.847862 0.01257157
v -0.4855027 0.9867718 0.01294732
v -0.398684 0.9867718 0.01253104
v -0.4071677 0.847862 0.01257157
v -0.4072697 0.847862 -0.008670092
v -0.4856045 0.9867718 -0.008293867
v -0.4855027 0.9867718 0.01294732
v -0.4072697 0.847862 -0.008670092
v -0.320451 0.847862 -0.00908637
v -0.3987858 0.9867718 -0.0087111
v -0.4856045 0.9867718 -0.008293867
v -0.4340091 0.847862 -0.008541822
v -0.4339073 0.847862 0.01270032
v -0.5122421 0.9867718 0.01307607
v -0.5123439 0.9867718 -0.008166075
v -0.4855027 0.9867718 0.01294732
v -0.4856045 0.9867718 -0.008293867
v -0.3987858 0.9867718 -0.0087111
v -0.398684 0.9867718 0.01253104
v -0.4339073 0.847862 0.01270032
v -0.5207255 0.847862 0.0131166
v -0.5990605 0.9867718 0.01349235
v -0.5122421 0.9867718 0.01307607
v -0.5207255 0.847862 0.0131166
v -0.5208275 0.847862 -0.008125067
v -0.5991623 0.9867718 -0.007749319
v -0.5990605 0.9867718 0.01349235
v -0.5208275 0.847862 -0.008125067
v -0.4340091 0.847862 -0.008541822
v -0.5123439 0.9867718 -0.008166075
v -0.5991623 0.9867718 -0.007749319
v -0.5990605 0.9867718 0.01349235
v -0.5991623 0.9867718 -0.007749319
v -0.5123439 0.9867718 -0.008166075
v -0.5122421 0.9867718 0.01307607
v -0.5571024 0.847862 -0.007951498
v -0.5570004 0.847862 0.01329064
v -0.6353352 0.9867718 0.01366639
v -0.6354373 0.9867718 -0.00757575
v -0.5570004 0.847862 0.01329064
v -0.6438191 0.847862 0.0137074
v -0.7221539 0.9867713 0.01408315
v -0.6353352 0.9867718 0.01366639
v -0.6438191 0.847862 0.0137074
v -0.6439211 0.847862 -0.007534742
v -0.7222559 0.9867713 -0.007158995
v -0.7221539 0.9867713 0.01408315
v -0.6439211 0.847862 -0.007534742
v -0.5571024 0.847862 -0.007951498
v -0.6354373 0.9867718 -0.00757575
v -0.7222559 0.9867713 -0.007158995
v -0.7221539 0.9867713 0.01408315
v -0.7222559 0.9867713 -0.007158995
v -0.6354373 0.9867718 -0.00757575
v -0.6353352 0.9867718 0.01366639
v -0.320349 0.8064315 0.01215541
v -0.320451 0.8064315 -0.009086251
v -0.3987858 0.6675217 -0.008710504
v -0.3986843 0.6675217 0.01253116
v -0.320451 0.8064315 -0.009086251
v -0.4072697 0.8064315 -0.008669972
v -0.4856045 0.6675217 -0.008294225
v -0.3987858 0.6675217 -0.008710504
v -0.4072697 0.8064315 -0.008669972
v -0.4071677 0.8064315 0.01257169
v -0.4855025 0.6675217 0.01294744
v -0.4856045 0.6675217 -0.008294225
v -0.4071677 0.8064315 0.01257169
v -0.320349 0.8064315 0.01215541
v -0.3986843 0.6675217 0.01253116
v -0.4855025 0.6675217 0.01294744
v -0.4339073 0.8064315 0.01270044
v -0.4340093 0.8064315 -0.008541226
v -0.5123441 0.6675217 -0.008165479
v -0.5122421 0.6675217 0.01307571
v -0.4856045 0.6675217 -0.008294225
v -0.4855025 0.6675217 0.01294744
v -0.3986843 0.6675217 0.01253116
v -0.3987858 0.6675217 -0.008710504
v -0.4340093 0.8064315 -0.008541226
v -0.5208275 0.8064315 -0.008124948
v -0.5991623 0.6675217 -0.0077492
v -0.5123441 0.6675217 -0.008165479
v -0.5208275 0.8064315 -0.008124948
v -0.5207255 0.8064315 0.01311672
v -0.5990608 0.6675217 0.01349247
v -0.5991623 0.6675217 -0.0077492
v -0.5207255 0.8064315 0.01311672
v -0.4339073 0.8064315 0.01270044
v -0.5122421 0.6675217 0.01307571
v -0.5990608 0.6675217 0.01349247
v -0.5991623 0.6675217 -0.0077492
v -0.5990608 0.6675217 0.01349247
v -0.5122421 0.6675217 0.01307571
v -0.5123441 0.6675217 -0.008165479
v -0.5570006 0.8064315 0.01329076
v -0.5571024 0.8064315 -0.007951379
v -0.6354373 0.6675217 -0.007575154
v -0.6353352 0.6675217 0.01366651
v -0.5571024 0.8064315 -0.007951379
v -0.6439211 0.8064315 -0.007534623
v -0.7222559 0.6675217 -0.007158875
v -0.6354373 0.6675217 -0.007575154
v -0.6439211 0.8064315 -0.007534623
v -0.6438191 0.8064315 0.01370704
v -0.7221539 0.6675217 0.01408279
v -0.7222559 0.6675217 -0.007158875
v -0.6438191 0.8064315 0.01370704
v -0.5570006 0.8064315 0.01329076
v -0.6353352 0.6675217 0.01366651
v -0.7221539 0.6675217 0.01408279
v -0.7222559 0.6675217 -0.007158875
v -0.7221539 0.6675217 0.01408279
v -0.6353352 0.6675217 0.01366651
v -0.6354373 0.6675217 -0.007575154
v 0.03066611 0.8182786 0.012761
v 0.03307486 0.8182786 -0.004583955
v 0.03307486 0.5515544 -0.004583955
v 0.03066587 0.5515544 0.012761
v 0.01926184 0.818279 0.02604997
v 0.0192616 0.5515549 0.02604997
v 0.002483368 0.8182786 0.03106439
v 0.002483368 0.5515544 0.03106439
v -0.01434255 0.818279 0.02621162
v -0.01434255 0.5515549 0.02621162
v -0.02587342 0.8182786 0.01303232
v -0.02587342 0.5515544 0.01303232
v -0.02844882 0.818279 -0.004288793
v -0.02844882 0.5515549 -0.004288793
v 0.03307486 0.8182786 -0.004583955
v 0.02572393 0.5515549 -0.02047789
v 0.03307486 0.5515544 -0.004583955
v 0.0257237 0.8182786 -0.02047789
v 0.01094699 0.5515549 -0.02987492
v 0.01094699 0.8182786 -0.02987492
v -0.006564379 0.5515544 -0.02979052
v -0.006564379 0.8182786 -0.02979052
v -0.02125072 0.5515549 -0.02025282
v -0.02125072 0.8182786 -0.02025282
v -0.02844882 0.5515549 -0.004288793
v -0.02844882 0.818279 -0.004288793
vt 0.1384277 0.9291992
vt 0.1381836 0.9291992
vt 0.1363525 0.9282227
vt 0.1369629 0.9282227
vt 0.1390381 0.9291992
vt 0.1347656 0.9262695
vt 0.1384277 0.9282227
vt 0.1396484 0.9291992
vt 0.1357422 0.9262695
vt 0.1347656 0.9238281
vt 0.1401367 0.9282227
vt 0.1401367 0.9291992
vt 0.1357422 0.9238281
vt 0.1356201 0.9223633
vt 0.1379395 0.9262695
vt 0.1416016 0.9282227
vt 0.1403809 0.9291992
vt 0.142334 0.9282227
vt 0.1364746 0.9223633
vt 0.1373291 0.9208984
vt 0.1379395 0.9238281
vt 0.140625 0.9262695
vt 0.1428223 0.9262695
vt 0.1439209 0.9262695
vt 0.140625 0.9238281
vt 0.1428223 0.9238281
vt 0.1439209 0.9238281
vt 0.1383057 0.9223633
vt 0.1376953 0.9208984
vt 0.1403809 0.9223633
vt 0.1420898 0.9223633
vt 0.1429443 0.9223633
vt 0.1376953 0.90625
vt 0.1373291 0.90625
vt 0.1386719 0.90625
vt 0.1386719 0.9208984
vt 0.1398926 0.90625
vt 0.1398926 0.9208984
vt 0.1408691 0.90625
vt 0.1408691 0.9208984
vt 0.1413574 0.9208984
vt 0.1413574 0.90625
vt 0.1403809 0.9291992
vt 0.1403809 0.9291992
vt 0.142334 0.9282227
vt 0.1420898 0.9282227
vt 0.1398926 0.9291992
vt 0.1439209 0.9262695
vt 0.1409912 0.9282227
vt 0.1392822 0.9291992
vt 0.1435547 0.9262695
vt 0.1439209 0.9238281
vt 0.1392822 0.9282227
vt 0.1386719 0.9291992
vt 0.1435547 0.9238281
vt 0.1429443 0.9223633
vt 0.1418457 0.9262695
vt 0.1376953 0.9282227
vt 0.1383057 0.9291992
vt 0.1427002 0.9223633
vt 0.1413574 0.9208984
vt 0.1418457 0.9238281
vt 0.1392822 0.9262695
vt 0.1365967 0.9282227
vt 0.1381836 0.9291992
vt 0.1363525 0.9282227
vt 0.1368408 0.9262695
vt 0.1351318 0.9262695
vt 0.1347656 0.9262695
vt 0.1392822 0.9238281
vt 0.1413574 0.9223633
vt 0.1368408 0.9238281
vt 0.1351318 0.9238281
vt 0.1347656 0.9238281
vt 0.1392822 0.9223633
vt 0.1412354 0.9208984
vt 0.1373291 0.9223633
vt 0.1359863 0.9223633
vt 0.1356201 0.9223633
vt 0.1403809 0.9208984
vt 0.1412354 0.90625
vt 0.1413574 0.90625
vt 0.1403809 0.90625
vt 0.1392822 0.90625
vt 0.1392822 0.9208984
vt 0.1381836 0.90625
vt 0.1381836 0.9208984
vt 0.1374512 0.90625
vt 0.1374512 0.9208984
vt 0.1373291 0.90625
vt 0.1373291 0.9208984
vt 0.1494141 0.9833984
vt 0.1508789 0.9833984
vt 0.1505127 0.9838867
vt 0.149292 0.9848633
vt 0.1484375 0.9833984
vt 0.1484375 0.9848633
vt 0.1424561 0.9848633
vt 0.1479492 0.9824219
vt 0.1412354 0.9858398
vt 0.1407471 0.9833984
vt 0.1413574 0.9868164
vt 0.1473389 0.9785156
vt 0.1477051 0.9858398
vt 0.1390381 0.9814453
vt 0.1424561 0.987793
vt 0.145752 0.9785156
vt 0.1478271 0.9868164
vt 0.1385498 0.980957
vt 0.1433105 0.9892578
vt 0.1456299 0.9775391
vt 0.1468506 0.9882813
vt 0.1446533 0.9892578
vt 0.145752 0.9892578
vt 0.1381836 0.9799805
vt 0.1468506 0.9746094
vt 0.137207 0.9775391
vt 0.1499023 0.9711914
vt 0.1368408 0.9746094
vt 0.151123 0.9682617
vt 0.1364746 0.9697266
vt 0.1508789 0.9648438
vt 0.1352539 0.9667969
vt 0.12854 0.9628906
vt 0.1446533 0.9555664
vt 0.1434326 0.9526367
vt 0.1265869 0.9628906
vt 0.1342773 0.9677734
vt 0.1248779 0.9604492
vt 0.1268311 0.9604492
vt 0.1396484 0.9536133
vt 0.1254883 0.9648438
vt 0.1323242 0.9711914
vt 0.1235352 0.9633789
vt 0.1312256 0.9726563
vt 0.1236572 0.9667969
vt 0.130127 0.9741211
vt 0.1223145 0.9663086
vt 0.1276855 0.9755859
vt 0.1221313 0.9672852
vt 0.1245117 0.9765625
vt 0.1216431 0.9667969
vt 0.1209106 0.9765625
vt 0.1431885 0.9511719
vt 0.1187744 0.9658203
vt 0.1220703 0.9604492
vt 0.1207275 0.9584961
vt 0.1177368 0.9750977
vt 0.1159058 0.9663086
vt 0.118042 0.9624023
vt 0.1161499 0.9609375
vt 0.1151123 0.9726563
vt 0.1134644 0.9599609
vt 0.1112061 0.9609375
vt 0.1098022 0.956543
vt 0.1090698 0.9570313
vt 0.1409912 0.9516602
vt 0.1430664 0.9487305
vt 0.1411133 0.9492188
vt 0.1450195 0.9433594
vt 0.1436768 0.9433594
vt 0.1479492 0.9418945
vt 0.1412354 0.9418945
vt 0.1337891 0.9550781
vt 0.1374512 0.9516602
vt 0.1342773 0.9526367
vt 0.1367188 0.9492188
vt 0.135376 0.949707
vt 0.1359863 0.9443359
vt 0.1348877 0.9443359
vt 0.1365967 0.9433594
vt 0.1342773 0.9433594
vt 0.1383057 0.9418945
vt 0.1324463 0.9418945
vt 0.1328125 0.9555664
vt 0.1329346 0.953125
vt 0.1313477 0.9511719
vt 0.1318359 0.9560547
vt 0.130249 0.953125
vt 0.1304932 0.9560547
vt 0.128418 0.9521484
vt 0.1291504 0.956543
vt 0.1286621 0.9550781
vt 0.1269531 0.9575195
vt 0.1268311 0.9545898
vt 0.1253662 0.9575195
vt 0.1494141 0.9833984
vt 0.1505127 0.9838867
vt 0.1508789 0.9833984
vt 0.149292 0.9848633
vt 0.1484375 0.9833984
vt 0.1484375 0.9848633
vt 0.1424561 0.9848633
vt 0.1479492 0.9824219
vt 0.1412354 0.9858398
vt 0.1407471 0.9833984
vt 0.1413574 0.9868164
vt 0.1473389 0.9785156
vt 0.1477051 0.9858398
vt 0.1390381 0.9814453
vt 0.1424561 0.987793
vt 0.145752 0.9785156
vt 0.1478271 0.9868164
vt 0.1385498 0.980957
vt 0.1433105 0.9892578
vt 0.1456299 0.9775391
vt 0.1468506 0.9882813
vt 0.1446533 0.9892578
vt 0.145752 0.9892578
vt 0.1381836 0.9799805
vt 0.1468506 0.9746094
vt 0.137207 0.9775391
vt 0.1499023 0.9711914
vt 0.1368408 0.9746094
vt 0.151123 0.9682617
vt 0.1364746 0.9697266
vt 0.1508789 0.9648438
vt 0.1352539 0.9667969
vt 0.12854 0.9628906
vt 0.1446533 0.9555664
vt 0.1434326 0.9526367
vt 0.1265869 0.9628906
vt 0.1342773 0.9677734
vt 0.1248779 0.9604492
vt 0.1268311 0.9604492
vt 0.1396484 0.9536133
vt 0.1254883 0.9648438
vt 0.1323242 0.9711914
vt 0.1235352 0.9633789
vt 0.1312256 0.9726563
vt 0.1236572 0.9667969
vt 0.130127 0.9741211
vt 0.1223145 0.9663086
vt 0.1276855 0.9755859
vt 0.1221313 0.9672852
vt 0.1245117 0.9765625
vt 0.1216431 0.9667969
vt 0.1209106 0.9765625
vt 0.1187744 0.9658203
vt 0.1220703 0.9604492
vt 0.1207275 0.9584961
vt 0.1177368 0.9750977
vt 0.1159058 0.9663086
vt 0.118042 0.9624023
vt 0.1161499 0.9609375
vt 0.1151123 0.9726563
vt 0.1134644 0.9599609
vt 0.1112061 0.9609375
vt 0.1098022 0.956543
vt 0.1090698 0.9570313
vt 0.1436768 0.9433594
vt 0.1479492 0.9418945
vt 0.1412354 0.9418945
vt 0.1450195 0.9433594
vt 0.1411133 0.9492188
vt 0.1430664 0.9487305
vt 0.1409912 0.9516602
vt 0.1431885 0.9511719
vt 0.1337891 0.9550781
vt 0.1374512 0.9516602
vt 0.1342773 0.9526367
vt 0.1367188 0.9492188
vt 0.135376 0.949707
vt 0.1359863 0.9443359
vt 0.1348877 0.9443359
vt 0.1365967 0.9433594
vt 0.1343994 0.9433594
vt 0.1383057 0.9418945
vt 0.1324463 0.9418945
vt 0.1328125 0.9555664
vt 0.1329346 0.953125
vt 0.1313477 0.9511719
vt 0.1318359 0.9560547
vt 0.130249 0.953125
vt 0.1304932 0.9560547
vt 0.128418 0.9521484
vt 0.1291504 0.956543
vt 0.1286621 0.9550781
vt 0.1269531 0.9575195
vt 0.1268311 0.9545898
vt 0.1253662 0.9575195
vt 0.1207275 0.9584961
vt 0.1207275 0.9584961
vt 0.1220703 0.9604492
vt 0.1220703 0.9604492
vt 0.1216431 0.9667969
vt 0.1216431 0.9667969
vt 0.1396484 0.9536133
vt 0.1396484 0.9536133
vt 0.1409912 0.9516602
vt 0.1409912 0.9516602
vt 0.1411133 0.9492188
vt 0.1411133 0.9492188
vt 0.1436768 0.9433594
vt 0.1436768 0.9433594
vt 0.1216431 0.9667969
vt 0.1216431 0.9667969
vt 0.1221313 0.9672852
vt 0.1221313 0.9672852
vt 0.1446533 0.9892578
vt 0.1446533 0.9892578
vt 0.1433105 0.9892578
vt 0.1433105 0.9892578
vt 0.1456299 0.9775391
vt 0.145752 0.9785156
vt 0.145752 0.9785156
vt 0.1456299 0.9775391
vt 0.1468506 0.9746094
vt 0.1468506 0.9746094
vt 0.1499023 0.9711914
vt 0.1499023 0.9711914
vt 0.151123 0.9682617
vt 0.151123 0.9682617
vt 0.1508789 0.9648438
vt 0.1508789 0.9648438
vt 0.1446533 0.9555664
vt 0.1446533 0.9555664
vt 0.1434326 0.9526367
vt 0.1434326 0.9526367
vt 0.1431885 0.9511719
vt 0.1431885 0.9511719
vt 0.1430664 0.9487305
vt 0.1430664 0.9487305
vt 0.1450195 0.9433594
vt 0.1450195 0.9433594
vt 0.1479492 0.9418945
vt 0.1479492 0.9418945
vt 0.1484375 0.9833984
vt 0.1494141 0.9833984
vt 0.1494141 0.9833984
vt 0.1484375 0.9833984
vt 0.1479492 0.9824219
vt 0.1479492 0.9824219
vt 0.1473389 0.9785156
vt 0.1473389 0.9785156
vt 0.145752 0.9785156
vt 0.145752 0.9785156
vt 0.1473389 0.9785156
vt 0.1473389 0.9785156
vt 0.1604004 0.9423828
vt 0.157959 0.9423828
vt 0.1580811 0.9462891
vt 0.157959 0.9389648
vt 0.1604004 0.9389648
vt 0.1580811 0.9355469
vt 0.1436768 0.9433594
vt 0.1436768 0.9433594
vt 0.1412354 0.9418945
vt 0.1412354 0.9418945
vt 0.145752 0.9892578
vt 0.1446533 0.9892578
vt 0.1446533 0.9892578
vt 0.145752 0.9892578
vt 0.1468506 0.9882813
vt 0.1468506 0.9882813
vt 0.1478271 0.9868164
vt 0.1478271 0.9868164
vt 0.1477051 0.9858398
vt 0.1477051 0.9858398
vt 0.1484375 0.9848633
vt 0.1484375 0.9848633
vt 0.149292 0.9848633
vt 0.149292 0.9848633
vt 0.1505127 0.9838867
vt 0.1505127 0.9838867
vt 0.1508789 0.9833984
vt 0.1508789 0.9833984
vt 0.1245117 0.9765625
vt 0.1245117 0.9765625
vt 0.1209106 0.9765625
vt 0.1209106 0.9765625
vt 0.1177368 0.9750977
vt 0.1177368 0.9750977
vt 0.1151123 0.9726563
vt 0.1151123 0.9726563
vt 0.1112061 0.9609375
vt 0.1112061 0.9609375
vt 0.1090698 0.9570313
vt 0.1090698 0.9570313
vt 0.1235352 0.9633789
vt 0.1235352 0.9633789
vt 0.1254883 0.9648438
vt 0.1254883 0.9648438
vt 0.1313477 0.9511719
vt 0.1313477 0.9511719
vt 0.1329346 0.953125
vt 0.1329346 0.953125
vt 0.1337891 0.9550781
vt 0.1337891 0.9550781
vt 0.1221313 0.9672852
vt 0.1221313 0.9672852
vt 0.1223145 0.9663086
vt 0.1223145 0.9663086
vt 0.1424561 0.9848633
vt 0.1424561 0.9848633
vt 0.1407471 0.9833984
vt 0.1407471 0.9833984
vt 0.1390381 0.9814453
vt 0.1390381 0.9814453
vt 0.1385498 0.980957
vt 0.1385498 0.980957
vt 0.1381836 0.9799805
vt 0.1381836 0.9799805
vt 0.137207 0.9775391
vt 0.137207 0.9775391
vt 0.1368408 0.9746094
vt 0.1368408 0.9746094
vt 0.1364746 0.9697266
vt 0.1364746 0.9697266
vt 0.1352539 0.9667969
vt 0.1352539 0.9667969
vt 0.1342773 0.9433594
vt 0.1324463 0.9418945
vt 0.1324463 0.9418945
vt 0.1343994 0.9433594
vt 0.1348877 0.9443359
vt 0.1348877 0.9443359
vt 0.135376 0.949707
vt 0.135376 0.949707
vt 0.1342773 0.9526367
vt 0.1342773 0.9526367
vt 0.1337891 0.9550781
vt 0.1337891 0.9550781
vt 0.1383057 0.9418945
vt 0.1383057 0.9418945
vt 0.1365967 0.9433594
vt 0.1365967 0.9433594
vt 0.1359863 0.9443359
vt 0.1359863 0.9443359
vt 0.1367188 0.9492188
vt 0.1367188 0.9492188
vt 0.1374512 0.9516602
vt 0.1374512 0.9516602
vt 0.1396484 0.9536133
vt 0.1396484 0.9536133
vt 0.128418 0.9521484
vt 0.128418 0.9521484
vt 0.130249 0.953125
vt 0.130249 0.953125
vt 0.1268311 0.9604492
vt 0.1268311 0.9604492
vt 0.1253662 0.9575195
vt 0.1253662 0.9575195
vt 0.1134644 0.9599609
vt 0.1159058 0.9663086
vt 0.1159058 0.9663086
vt 0.1134644 0.9599609
vt 0.1098022 0.956543
vt 0.1098022 0.956543
vt 0.1236572 0.9667969
vt 0.1236572 0.9667969
vt 0.1235352 0.9633789
vt 0.1235352 0.9633789
vt 0.1276855 0.9755859
vt 0.1245117 0.9765625
vt 0.1245117 0.9765625
vt 0.1276855 0.9755859
vt 0.130127 0.9741211
vt 0.130127 0.9741211
vt 0.1312256 0.9726563
vt 0.1312256 0.9726563
vt 0.1323242 0.9711914
vt 0.1323242 0.9711914
vt 0.1342773 0.9677734
vt 0.1342773 0.9677734
vt 0.1352539 0.9667969
vt 0.1352539 0.9667969
vt 0.1254883 0.9648438
vt 0.1254883 0.9648438
vt 0.1265869 0.9628906
vt 0.1265869 0.9628906
vt 0.1412354 0.9858398
vt 0.1412354 0.9858398
vt 0.1424561 0.9848633
vt 0.1424561 0.9848633
vt 0.130249 0.953125
vt 0.130249 0.953125
vt 0.1313477 0.9511719
vt 0.1313477 0.9511719
vt 0.1090698 0.9570313
vt 0.1090698 0.9570313
vt 0.1098022 0.956543
vt 0.1098022 0.956543
vt 0.1268311 0.9545898
vt 0.1268311 0.9545898
vt 0.1286621 0.9550781
vt 0.1286621 0.9550781
vt 0.1286621 0.9550781
vt 0.1286621 0.9550781
vt 0.128418 0.9521484
vt 0.128418 0.9521484
vt 0.1159058 0.9663086
vt 0.1159058 0.9663086
vt 0.1161499 0.9609375
vt 0.1161499 0.9609375
vt 0.1223145 0.9663086
vt 0.1223145 0.9663086
vt 0.1236572 0.9667969
vt 0.1236572 0.9667969
vt 0.1269531 0.9575195
vt 0.1269531 0.9575195
vt 0.1268311 0.9545898
vt 0.1268311 0.9545898
vt 0.118042 0.9624023
vt 0.1187744 0.9658203
vt 0.1187744 0.9658203
vt 0.118042 0.9624023
vt 0.1161499 0.9609375
vt 0.1161499 0.9609375
vt 0.1413574 0.9868164
vt 0.1412354 0.9858398
vt 0.1412354 0.9858398
vt 0.1413574 0.9868164
vt 0.1424561 0.987793
vt 0.1424561 0.987793
vt 0.1433105 0.9892578
vt 0.1433105 0.9892578
vt 0.1248779 0.9604492
vt 0.1248779 0.9604492
vt 0.1268311 0.9604492
vt 0.1268311 0.9604492
vt 0.1494141 0.9833984
vt 0.1494141 0.9833984
vt 0.1508789 0.9833984
vt 0.1508789 0.9833984
vt 0.1187744 0.9658203
vt 0.1187744 0.9658203
vt 0.1207275 0.9584961
vt 0.1207275 0.9584961
vt 0.1265869 0.9628906
vt 0.1265869 0.9628906
vt 0.1248779 0.9604492
vt 0.1248779 0.9604492
vt 0.1253662 0.9575195
vt 0.1253662 0.9575195
vt 0.1269531 0.9575195
vt 0.1269531 0.9575195
vt 0.1602783 0.9394531
vt 0.1602783 0.9394531
vt 0.1116333 0.9394531
vt 0.1116333 0.9394531
vt 0.1602783 0.9399414
vt 0.1116333 0.9399414
vt 0.1602783 0.940918
vt 0.1116333 0.940918
vt 0.1602783 0.9414063
vt 0.1116333 0.9414063
vt 0.1602783 0.9418945
vt 0.1116333 0.9418945
vt 0.1602783 0.9418945
vt 0.1116333 0.9418945
vt 0.1602783 0.9394531
vt 0.1116333 0.9399414
vt 0.1116333 0.9394531
vt 0.1602783 0.9399414
vt 0.1115723 0.9404297
vt 0.1602783 0.9404297
vt 0.1115723 0.940918
vt 0.1602783 0.940918
vt 0.1116333 0.9418945
vt 0.1602783 0.9418945
vt 0.1116333 0.9418945
vt 0.1602783 0.9418945
vt 0.1116333 0.9394531
vt 0.1116333 0.9394531
vt 0.1116333 0.9399414
vt 0.1116333 0.9399414
vt 0.1115723 0.9404297
vt 0.1116333 0.940918
vt 0.1115723 0.940918
vt 0.1116333 0.9414063
vt 0.1116333 0.9418945
vt 0.1116333 0.9418945
vt 0.1116333 0.9418945
vt 0.1580811 0.9462891
vt 0.1580811 0.9423828
vt 0.1604004 0.9423828
vt 0.1604004 0.9389648
vt 0.1580811 0.9389648
vt 0.1580811 0.9355469
vt 0.1605225 0.9448242
vt 0.1580811 0.9423828
vt 0.1580811 0.9462891
vt 0.1605225 0.9423828
vt 0.1612549 0.9448242
vt 0.1580811 0.9389648
vt 0.1623535 0.9418945
vt 0.1707764 0.940918
vt 0.1605225 0.9394531
vt 0.1580811 0.9355469
vt 0.1605225 0.9365234
vt 0.1623535 0.9394531
vt 0.1612549 0.9365234
vt 0.1605225 0.9365234
vt 0.157959 0.9389648
vt 0.1580811 0.9355469
vt 0.1604004 0.9394531
vt 0.1612549 0.9365234
vt 0.1604004 0.9423828
vt 0.157959 0.9423828
vt 0.1623535 0.9394531
vt 0.1707764 0.940918
vt 0.1623535 0.9418945
vt 0.1612549 0.9448242
vt 0.1605225 0.9448242
vt 0.1580811 0.9462891
vt 0.1258545 0.9414063
vt 0.1258545 0.9414063
vt 0.1226196 0.9472656
vt 0.1226196 0.9472656
vt 0.1258545 0.9414063
vt 0.1222534 0.9414063
vt 0.1189575 0.9472656
vt 0.1226196 0.9472656
vt 0.1222534 0.9414063
vt 0.1222534 0.9414063
vt 0.1189575 0.9472656
vt 0.1189575 0.9472656
vt 0.1222534 0.9414063
vt 0.1258545 0.9414063
vt 0.1226196 0.9472656
vt 0.1189575 0.9472656
vt 0.1210938 0.9414063
vt 0.1210938 0.9414063
vt 0.1178589 0.9472656
vt 0.1177979 0.9472656
vt 0.1189575 0.9472656
vt 0.1189575 0.9472656
vt 0.1226196 0.9472656
vt 0.1226196 0.9472656
vt 0.1210938 0.9414063
vt 0.1174927 0.9414063
vt 0.1141968 0.9472656
vt 0.1178589 0.9472656
vt 0.1174927 0.9414063
vt 0.1174927 0.9414063
vt 0.1141968 0.9472656
vt 0.1141968 0.9472656
vt 0.1174927 0.9414063
vt 0.1210938 0.9414063
vt 0.1177979 0.9472656
vt 0.1141968 0.9472656
vt 0.1141968 0.9472656
vt 0.1141968 0.9472656
vt 0.1177979 0.9472656
vt 0.1178589 0.9472656
vt 0.1159668 0.9414063
vt 0.1159668 0.9414063
vt 0.1126709 0.9472656
vt 0.1126709 0.9472656
vt 0.1159668 0.9414063
vt 0.1123047 0.9414063
vt 0.1090088 0.9472656
vt 0.1126709 0.9472656
vt 0.1123047 0.9414063
vt 0.1123047 0.9414063
vt 0.1090088 0.9472656
vt 0.1090088 0.9472656
vt 0.1123047 0.9414063
vt 0.1159668 0.9414063
vt 0.1126709 0.9472656
vt 0.1090088 0.9472656
vt 0.1090088 0.9472656
vt 0.1090088 0.9472656
vt 0.1126709 0.9472656
vt 0.1126709 0.9472656
vt 0.1258545 0.9399414
vt 0.1258545 0.9399414
vt 0.1226196 0.934082
vt 0.1226196 0.934082
vt 0.1258545 0.9399414
vt 0.1222534 0.9399414
vt 0.1189575 0.934082
vt 0.1226196 0.934082
vt 0.1222534 0.9399414
vt 0.1222534 0.9399414
vt 0.1189575 0.934082
vt 0.1189575 0.934082
vt 0.1222534 0.9399414
vt 0.1258545 0.9399414
vt 0.1226196 0.934082
vt 0.1189575 0.934082
vt 0.1210938 0.9399414
vt 0.1210938 0.9399414
vt 0.1177979 0.934082
vt 0.1178589 0.934082
vt 0.1189575 0.934082
vt 0.1189575 0.934082
vt 0.1226196 0.934082
vt 0.1226196 0.934082
vt 0.1210938 0.9399414
vt 0.1174927 0.9399414
vt 0.1141968 0.934082
vt 0.1177979 0.934082
vt 0.1174927 0.9399414
vt 0.1174927 0.9399414
vt 0.1141968 0.934082
vt 0.1141968 0.934082
vt 0.1174927 0.9399414
vt 0.1210938 0.9399414
vt 0.1178589 0.934082
vt 0.1141968 0.934082
vt 0.1141968 0.934082
vt 0.1141968 0.934082
vt 0.1178589 0.934082
vt 0.1177979 0.934082
vt 0.1159668 0.9399414
vt 0.1159668 0.9399414
vt 0.1126709 0.934082
vt 0.1126709 0.934082
vt 0.1159668 0.9399414
vt 0.1123047 0.9399414
vt 0.1090088 0.934082
vt 0.1126709 0.934082
vt 0.1123047 0.9399414
vt 0.1123047 0.9399414
vt 0.1090088 0.934082
vt 0.1090088 0.934082
vt 0.1123047 0.9399414
vt 0.1159668 0.9399414
vt 0.1126709 0.934082
vt 0.1090088 0.934082
vt 0.1090088 0.934082
vt 0.1090088 0.934082
vt 0.1126709 0.934082
vt 0.1126709 0.934082
vt 0.140625 0.9404297
vt 0.1407471 0.9404297
vt 0.1407471 0.9291992
vt 0.140625 0.9291992
vt 0.1401367 0.9404297
vt 0.1401367 0.9291992
vt 0.1394043 0.9404297
vt 0.1394043 0.9291992
vt 0.1386719 0.9404297
vt 0.1386719 0.9291992
vt 0.1381836 0.9404297
vt 0.1381836 0.9291992
vt 0.1380615 0.9404297
vt 0.1380615 0.9291992
vt 0.1407471 0.9404297
vt 0.1403809 0.9291992
vt 0.1407471 0.9291992
vt 0.1403809 0.9404297
vt 0.1397705 0.9291992
vt 0.1397705 0.9404297
vt 0.1390381 0.9291992
vt 0.1390381 0.9404297
vt 0.1384277 0.9291992
vt 0.1384277 0.9404297
vt 0.1380615 0.9291992
vt 0.1380615 0.9404297
vn -0.3378906 0.8955078 -0.2893066
vn -0.4418945 0.8950195 -0.06072998
vn -0.6679688 0.7382813 -0.09277344
vn -0.5112305 0.7392578 -0.4387207
vn -0.1273193 0.8959961 -0.4255371
vn -0.9482422 0.2890625 -0.1318359
vn -0.192749 0.7397461 -0.6450195
vn 0.12323 0.8959961 -0.4267578
vn -0.7265625 0.2893066 -0.6235352
vn -0.9672852 -0.2143555 -0.1343994
vn 0.1865234 0.7397461 -0.6464844
vn 0.3352051 0.8955078 -0.2924805
vn -0.7412109 -0.2143555 -0.6362305
vn -0.7890625 -0.6044922 -0.1095581
vn -0.2739258 0.2895508 -0.9169922
vn 0.5068359 0.7392578 -0.4436035
vn 0.4414063 0.8950195 -0.06494141
vn 0.6669922 0.7382813 -0.09918213
vn -0.6044922 -0.6044922 -0.5185547
vn -0.8754883 -0.4675293 -0.121582
vn -0.2797852 -0.2143555 -0.9360352
vn 0.2651367 0.2895508 -0.9194336
vn 0.7202148 0.2893066 -0.6303711
vn 0.9467773 0.2890625 -0.1408691
vn 0.270752 -0.2143555 -0.9384766
vn 0.7353516 -0.2143555 -0.6430664
vn 0.9663086 -0.2143555 -0.1436768
vn -0.2280273 -0.6044922 -0.7631836
vn -0.6708984 -0.4675293 -0.5756836
vn 0.2207031 -0.6044922 -0.7651367
vn 0.5996094 -0.6044922 -0.5244141
vn 0.7880859 -0.6044922 -0.1171265
vn -0.7587891 0 -0.6513672
vn -0.9907227 0 -0.1375732
vn -0.286377 0 -0.9580078
vn -0.2531738 -0.4675293 -0.847168
vn 0.2770996 0 -0.9609375
vn 0.2449951 -0.4675293 -0.8491211
vn 0.7524414 0 -0.6586914
vn 0.6650391 -0.4675293 -0.5820313
vn 0.8745117 -0.4675293 -0.1300049
vn 0.9892578 0 -0.1470947
vn 0.4077148 0.894043 0.1845703
vn 0.4414063 0.8950195 -0.06494141
vn 0.6669922 0.7382813 -0.09918213
vn 0.6152344 0.737793 0.2775879
vn 0.2440186 0.8935547 0.3764648
vn 0.9467773 0.2890625 -0.1408691
vn 0.3681641 0.7373047 0.5668945
vn 0.002153397 0.8935547 0.4489746
vn 0.8730469 0.2888184 0.3935547
vn 0.9663086 -0.2143555 -0.1436768
vn 0.0032444 0.7368164 0.6757813
vn -0.2404785 0.8935547 0.3789063
vn 0.890625 -0.2143555 0.4016113
vn 0.7880859 -0.6044922 -0.1171265
vn 0.5214844 0.2885742 0.8027344
vn -0.3625488 0.7373047 0.5703125
vn -0.4060059 0.894043 0.1884766
vn 0.7260742 -0.6044922 0.3273926
vn 0.8745117 -0.4675293 -0.1300049
vn 0.5322266 -0.2143555 0.8193359
vn 0.00459671 0.2883301 0.9575195
vn -0.612793 0.737793 0.2834473
vn -0.4418945 0.8950195 -0.06072998
vn -0.6679688 0.7382813 -0.09277344
vn -0.5136719 0.2885742 0.8081055
vn -0.8691406 0.2888184 0.4018555
vn -0.9482422 0.2890625 -0.1318359
vn 0.004688263 -0.2143555 0.9765625
vn 0.4338379 -0.6044922 0.6679688
vn -0.5239258 -0.2143555 0.8242188
vn -0.8867188 -0.2143555 0.4099121
vn -0.9672852 -0.2143555 -0.1343994
vn 0.003824234 -0.6044922 0.7963867
vn 0.8056641 -0.4675293 0.3632813
vn -0.4274902 -0.6044922 0.6723633
vn -0.7231445 -0.6044922 0.3344727
vn -0.7890625 -0.6044922 -0.1095581
vn 0.4814453 -0.4675293 0.7412109
vn 0.9116211 0 0.4111328
vn 0.9892578 0 -0.1470947
vn 0.5444336 0 0.8388672
vn 0.004795074 0 1
vn 0.004241943 -0.4675293 0.8837891
vn -0.5366211 0 0.84375
vn -0.4743652 -0.4675293 0.7460938
vn -0.9077148 0 0.4196777
vn -0.8022461 -0.4675293 0.3710938
vn -0.9907227 0 -0.1375732
vn -0.8754883 -0.4675293 -0.121582
vn -0.004798889 0 -1
vn -0.004795074 0 -1
vn -0.004795074 0 -1
vn -0.004798889 0 -1
vn -0.004798889 0 -1
vn -0.004798889 0 -1
vn -0.004798889 0 -1
vn -0.004795074 0 -1
vn -0.004798889 0 -1
vn -0.004795074 0 -1
vn -0.004798889 0 -1
vn -0.004795074 0 -1
vn -0.004798889 0 -1
vn -0.004798889 0 -1
vn -0.004795074 0 -1
vn -0.004798889 0 -1
vn -0.004795074 0 -1
vn -0.004798889 0 -1
vn -0.004798889 0 -1
vn -0.004798889 0 -1
vn -0.004798889 0 -1
vn -0.004787445 2.872944E-05 -1
vn -0.004787445 2.872944E-05 -1
vn -0.004798889 0 -1
vn -0.004798889 0 -1
vn -0.004798889 0 -1
vn -0.004798889 0 -1
vn -0.004798889 0 -1
vn -0.004798889 0 -1
vn -0.004798889 0 -1
vn -0.004795074 0 -1
vn -0.004798889 0 -1
vn -0.004795074 0 -1
vn -0.004795074 0 -1
vn -0.004798889 0 -1
vn -0.004795074 0 -1
vn -0.004798889 0 -1
vn -0.004795074 0 -1
vn -0.004795074 0 -1
vn -0.004795074 0 -1
vn -0.004795074 0 -1
vn -0.004795074 0 -1
vn -0.004795074 0 -1
vn -0.004795074 0 -1
vn -0.004795074 0 -1
vn -0.004795074 0 -1
vn -0.004798889 0 -1
vn -0.004798889 0 -1
vn -0.004798889 0 -1
vn -0.004798889 0 -1
vn -0.004795074 0 -1
vn -0.004798889 0 -1
vn -0.004798889 0 -1
vn -0.004795074 0 -1
vn -0.004795074 0 -1
vn -0.004795074 0 -1
vn -0.004798889 0 -1
vn -0.004798889 0 -1
vn -0.004798889 0 -1
vn -0.004798889 0 -1
vn -0.004798889 0 -1
vn -0.004798889 0 -1
vn -0.004798889 0 -1
vn -0.004798889 0 -1
vn -0.004798889 0 -1
vn -0.004798889 0 -1
vn -0.00479126 0 -1
vn -0.004795074 0 -1
vn -0.00479126 0 -1
vn -0.00479126 0 -1
vn -0.004795074 0 -1
vn -0.004795074 0 -1
vn -0.004798889 0 -1
vn -0.004795074 0 -1
vn -0.004795074 0 -1
vn -0.00479126 0 -1
vn -0.00479126 0 -1
vn -0.004795074 0 -1
vn -0.004795074 0 -1
vn -0.004798889 0 -1
vn -0.004798889 0 -1
vn -0.004798889 0 -1
vn -0.004798889 0 -1
vn -0.004795074 0 -1
vn -0.004802704 0 -1
vn -0.004787445 0 -1
vn -0.004795074 0 -1
vn -0.004795074 0 -1
vn -0.004798889 0 -1
vn -0.004806519 0 -1
vn -0.004798889 0 -1
vn -0.004798889 0 -1
vn -0.004795074 0 -1
vn -0.004802704 0 -1
vn -0.00478363 0 -1
vn 0.004787445 -1.001358E-05 1
vn 0.00478363 -1.573563E-05 1
vn 0.00478363 -1.573563E-05 1
vn 0.00479126 0 1
vn 0.004798889 0 1
vn 0.004798889 0 1
vn 0.004802704 0 1
vn 0.004798889 0 1
vn 0.004798889 0 1
vn 0.004798889 0 1
vn 0.004798889 0 1
vn 0.004798889 0 1
vn 0.004798889 0 1
vn 0.004795074 0 1
vn 0.004798889 0 1
vn 0.004795074 0 1
vn 0.004798889 0 1
vn 0.004795074 0 1
vn 0.004795074 0 1
vn 0.004798889 0 1
vn 0.004795074 0 1
vn 0.004798889 0 1
vn 0.004798889 0 1
vn 0.004798889 0 1
vn 0.004798889 0 1
vn 0.004798889 0 1
vn 0.004795074 0 1
vn 0.004795074 0 1
vn 0.004795074 0 1
vn 0.004795074 0 1
vn 0.004795074 0 1
vn 0.004795074 0 1
vn 0.004795074 0 1
vn 0.004798889 0 1
vn 0.004798889 0 1
vn 0.004795074 0 1
vn 0.004798889 0 1
vn 0.00479126 0 1
vn 0.004795074 0 1
vn 0.004798889 0 1
vn 0.004798889 0 1
vn 0.004798889 0 1
vn 0.004795074 0 1
vn 0.004795074 0 1
vn 0.004795074 0 1
vn 0.004795074 0 1
vn 0.004798889 0 1
vn 0.004798889 0 1
vn 0.004798889 0 1
vn 0.004798889 0 1
vn 0.004795074 0 1
vn 0.004795074 0 1
vn 0.004798889 0 1
vn 0.004798889 0 1
vn 0.004798889 0 1
vn 0.004795074 0 1
vn 0.004795074 0 1
vn 0.004802704 0 1
vn 0.004802704 0 1
vn 0.004795074 0 1
vn 0.004795074 0 1
vn 0.004795074 0 1
vn 0.004795074 0 1
vn 0.004795074 0 1
vn 0.004798889 0 1
vn 0.004798889 0 1
vn 0.004798889 0 1
vn 0.004798889 0 1
vn 0.004798889 0 1
vn 0.004798889 0 1
vn 0.004798889 0 1
vn 0.004798889 0 1
vn 0.004795074 0 1
vn 0.004798889 0 1
vn 0.004798889 0 1
vn 0.004802704 0 1
vn 0.004802704 0 1
vn 0.004802704 0 1
vn 0.004802704 0 1
vn 0.004795074 0 1
vn 0.004798889 0 1
vn 0.004795074 0 1
vn 0.004795074 0 1
vn 0.004795074 0 1
vn 0.00479126 0 1
vn 0.00479126 0 1
vn 0.004795074 0 1
vn 0.004795074 0 1
vn 0.004798889 0 1
vn 0.004802704 0 1
vn 0.004798889 0 1
vn 0.004798889 0 1
vn 0.004795074 0 1
vn 0.004795074 0 1
vn 0.004795074 0 1
vn 0.8540039 -0.5205078 -0.004070282
vn 0.8540039 -0.5205078 -0.004070282
vn 0.9711914 -0.2391357 -0.004646301
vn 0.9711914 -0.2391357 -0.004646301
vn 0.9980469 0.06439209 -0.004787445
vn 0.9980469 0.06439209 -0.004787445
vn -0.8178711 -0.5756836 0.003921509
vn -0.8178711 -0.5756836 0.003921509
vn -0.9448242 -0.3273926 0.00453186
vn -0.9448242 -0.3273926 0.00453186
vn -0.9716797 -0.2357178 0.004653931
vn -0.9716797 -0.2357178 0.004653931
vn -0.9121094 -0.4099121 0.004360199
vn -0.9121094 -0.4099121 0.004360199
vn 0.5727539 -0.8198242 -0.002735138
vn 0.5727539 -0.8198242 -0.002735138
vn 0.5727539 -0.8198242 -0.002735138
vn 0.5727539 -0.8198242 -0.002735138
vn 0.04644775 0.9990234 -0.0002214909
vn 0.04644775 0.9990234 -0.0002214909
vn -0.08453369 0.996582 0.0004189014
vn -0.08453369 0.996582 0.0004189014
vn 0.9916992 0.1274414 -0.004764557
vn 0.9897461 -0.1413574 -0.004741669
vn 0.9897461 -0.1413574 -0.004741669
vn 0.9916992 0.1274414 -0.004764557
vn 0.8564453 0.5161133 -0.004112244
vn 0.8564453 0.5161133 -0.004112244
vn 0.8461914 0.5327148 -0.004047394
vn 0.8461914 0.5327148 -0.004047394
vn 0.9858398 0.1677246 -0.004722595
vn 0.9858398 0.1677246 -0.004722595
vn 0.9438477 -0.3300781 -0.00453186
vn 0.9438477 -0.3300781 -0.00453186
vn 0.8779297 -0.4785156 -0.004219055
vn 0.8779297 -0.4785156 -0.004219055
vn 0.953125 -0.3027344 -0.004570007
vn 0.953125 -0.3027344 -0.004570007
vn 0.9916992 -0.1293945 -0.004749298
vn 0.9916992 -0.1293945 -0.004749298
vn 0.9897461 0.1429443 -0.004741669
vn 0.9897461 0.1429443 -0.004741669
vn 0.7709961 0.6367188 -0.003688812
vn 0.7709961 0.6367188 -0.003688812
vn 0.519043 0.8549805 -0.002477646
vn 0.519043 0.8549805 -0.002477646
vn 0.6303711 -0.7763672 -0.002985001
vn 0.06524658 -0.9980469 -0.0003106594
vn 0.06524658 -0.9980469 -0.0003106594
vn 0.6303711 -0.7763672 -0.002985001
vn 0.9443359 -0.3295898 -0.004520416
vn 0.9443359 -0.3295898 -0.004520416
vn 0.9907227 -0.1361084 -0.004745483
vn 0.9907227 -0.1361084 -0.004745483
vn 0.07110596 -0.9975586 -0.0003361702
vn 0.07110596 -0.9975586 -0.0003361702
vn 0.07110596 -0.9975586 -0.0003361702
vn 0.07110596 -0.9975586 -0.0003361702
vn -0.6816406 -0.1829834 0.7084961
vn -0.6811523 -0.1849365 0.7084961
vn -0.6289063 -0.4206543 0.6538086
vn -0.6811523 0.1849365 0.7084961
vn -0.6816406 0.1829834 0.7084961
vn -0.6289063 0.4206543 0.6538086
vn -0.5986328 0.8007813 0.002883911
vn -0.5986328 0.8007813 0.002883911
vn -0.5986328 0.8007813 0.002883911
vn -0.5986328 0.8007813 0.002883911
vn 0.3120117 0.9501953 -0.001483917
vn 0.04644775 0.9990234 -0.0002214909
vn 0.04644775 0.9990234 -0.0002214909
vn 0.3120117 0.9501953 -0.001483917
vn 0.6865234 0.7270508 -0.003278732
vn 0.6865234 0.7270508 -0.003278732
vn 0.9858398 0.1671143 -0.004730225
vn 0.9858398 0.1671143 -0.004730225
vn 0.9780273 0.208252 -0.004680634
vn 0.9780273 0.208252 -0.004680634
vn 0.5126953 0.8588867 -0.002441406
vn 0.5126953 0.8588867 -0.002441406
vn 0.3762207 0.9267578 -0.001775742
vn 0.3762207 0.9267578 -0.001775742
vn 0.746582 0.6655273 -0.003557205
vn 0.746582 0.6655273 -0.003557205
vn 0.8510742 0.5253906 -0.004074097
vn 0.8510742 0.5253906 -0.004074097
vn 0.1402588 0.9902344 -0.0006666183
vn 0.1402588 0.9902344 -0.0006666183
vn -0.208252 0.9780273 0.0009965897
vn -0.208252 0.9780273 0.0009965897
vn -0.5429688 0.8398438 0.002639771
vn -0.5429688 0.8398438 0.002639771
vn -0.8413086 0.5405273 0.004074097
vn -0.8413086 0.5405273 0.004074097
vn -0.9189453 0.394043 0.004417419
vn -0.9189453 0.394043 0.004417419
vn -0.8818359 0.4716797 0.004238129
vn -0.8818359 0.4716797 0.004238129
vn 0.5512695 -0.8339844 -0.002616882
vn 0.5512695 -0.8339844 -0.002616882
vn 0.5512695 -0.8339844 -0.002616882
vn 0.5512695 -0.8339844 -0.002616882
vn 0.6992188 -0.715332 -0.003368378
vn 0.6992188 -0.715332 -0.003368378
vn 0.8383789 -0.5449219 -0.00402832
vn 0.8383789 -0.5449219 -0.00402832
vn 0.9375 -0.3479004 -0.004497528
vn 0.9375 -0.3479004 -0.004497528
vn -0.9921875 -0.1265869 0.004756927
vn -0.9921875 -0.1265869 0.004756927
vn -0.9921875 -0.1265869 0.004756927
vn -0.9921875 -0.1265869 0.004756927
vn -0.6611328 0.7504883 0.003171921
vn -0.6611328 0.7504883 0.003171921
vn -0.7163086 0.6977539 0.003448486
vn -0.7163086 0.6977539 0.003448486
vn -0.8115234 0.5844727 0.003921509
vn -0.8115234 0.5844727 0.003921509
vn -0.8696289 0.4934082 0.004180908
vn -0.8696289 0.4934082 0.004180908
vn -0.9135742 0.4067383 0.004371643
vn -0.9135742 0.4067383 0.004371643
vn -0.9711914 0.2382813 0.00466156
vn -0.9711914 0.2382813 0.00466156
vn -0.9956055 0.09423828 0.004787445
vn -0.9956055 0.09423828 0.004787445
vn -0.9677734 0.2521973 0.004638672
vn -0.9677734 0.2521973 0.004638672
vn -0.902832 0.4299316 0.004310608
vn -0.902832 0.4299316 0.004310608
vn -0.78125 0.6240234 0.003744125
vn -0.6430664 0.765625 0.003087997
vn -0.6430664 0.765625 0.003087997
vn -0.78125 0.6240234 0.003744125
vn -0.9599609 0.279541 0.00460434
vn -0.9599609 0.279541 0.00460434
vn -0.9902344 -0.1385498 0.004760742
vn -0.9902344 -0.1385498 0.004760742
vn -0.9628906 -0.2692871 0.004634857
vn -0.9628906 -0.2692871 0.004634857
vn -0.984375 -0.1750488 0.004734039
vn -0.984375 -0.1750488 0.004734039
vn 0.6259766 0.7797852 -0.003019333
vn 0.6259766 0.7797852 -0.003019333
vn 0.7758789 0.6308594 -0.003742218
vn 0.7758789 0.6308594 -0.003742218
vn 0.9873047 0.1577148 -0.004745483
vn 0.9873047 0.1577148 -0.004745483
vn 0.9746094 -0.2243652 -0.004669189
vn 0.9746094 -0.2243652 -0.004669189
vn 0.8500977 -0.5268555 -0.004066467
vn 0.8500977 -0.5268555 -0.004066467
vn 0.6894531 -0.7246094 -0.003297806
vn 0.6894531 -0.7246094 -0.003297806
vn 0.394043 -0.9189453 -0.001896858
vn 0.394043 -0.9189453 -0.001896858
vn 0.394043 -0.9189453 -0.001896858
vn 0.394043 -0.9189453 -0.001896858
vn -0.8920898 0.4519043 0.004306793
vn -0.8920898 0.4519043 0.004306793
vn -0.8920898 0.4519043 0.004306793
vn -0.8920898 0.4519043 0.004306793
vn 0.8339844 -0.5522461 -0.004001617
vn 0.9321289 -0.3625488 -0.004470825
vn 0.9321289 -0.3625488 -0.004470825
vn 0.8339844 -0.5522461 -0.004001617
vn 0.6977539 -0.7163086 -0.003349304
vn 0.6977539 -0.7163086 -0.003349304
vn -0.9990234 0.03829956 0.00478363
vn -0.9990234 0.03829956 0.00478363
vn -0.9990234 0.03829956 0.00478363
vn -0.9990234 0.03829956 0.00478363
vn 0.4396973 0.8979492 -0.002086639
vn 0.1402588 0.9902344 -0.0006666183
vn 0.1402588 0.9902344 -0.0006666183
vn 0.4396973 0.8979492 -0.002086639
vn 0.6962891 0.7177734 -0.003324509
vn 0.6962891 0.7177734 -0.003324509
vn 0.8017578 0.5976563 -0.003839493
vn 0.8017578 0.5976563 -0.003839493
vn 0.8222656 0.5693359 -0.003944397
vn 0.8222656 0.5693359 -0.003944397
vn 0.7680664 0.640625 -0.003681183
vn 0.7680664 0.640625 -0.003681183
vn 0.6826172 0.730957 -0.003257751
vn 0.6826172 0.730957 -0.003257751
vn -0.8583984 -0.5126953 0.004104614
vn -0.8583984 -0.5126953 0.004104614
vn -0.8583984 -0.5126953 0.004104614
vn -0.8583984 -0.5126953 0.004104614
vn -0.6362305 -0.7714844 0.003055573
vn -0.6362305 -0.7714844 0.003055573
vn -0.6362305 -0.7714844 0.003055573
vn -0.6362305 -0.7714844 0.003055573
vn -0.8588867 -0.5117188 0.004104614
vn -0.8588867 -0.5117188 0.004104614
vn -0.8588867 -0.5117188 0.004104614
vn -0.8588867 -0.5117188 0.004104614
vn -0.6645508 -0.7470703 0.00318718
vn -0.6645508 -0.7470703 0.00318718
vn -0.6645508 -0.7470703 0.00318718
vn -0.6645508 -0.7470703 0.00318718
vn 0.3254395 -0.9453125 -0.001564026
vn 0.3254395 -0.9453125 -0.001564026
vn 0.3254395 -0.9453125 -0.001564026
vn 0.3254395 -0.9453125 -0.001564026
vn -0.9941406 0.105957 0.004776001
vn -0.9941406 0.105957 0.004776001
vn -0.9941406 0.105957 0.004776001
vn -0.9941406 0.105957 0.004776001
vn -0.9990234 -0.03881836 0.004772186
vn -0.9990234 -0.03881836 0.004772186
vn -0.9990234 -0.03881836 0.004772186
vn -0.9990234 -0.03881836 0.004772186
vn 0.4433594 -0.8964844 -0.002109528
vn 0.4433594 -0.8964844 -0.002109528
vn 0.4433594 -0.8964844 -0.002109528
vn 0.4433594 -0.8964844 -0.002109528
vn -0.9990234 0.04632568 0.004779816
vn -0.9990234 0.04632568 0.004779816
vn -0.9990234 0.04632568 0.004779816
vn -0.9990234 0.04632568 0.004779816
vn 0.8603516 -0.5092773 -0.004119873
vn 0.9799805 -0.197998 -0.004703522
vn 0.9799805 -0.197998 -0.004703522
vn 0.8603516 -0.5092773 -0.004119873
vn 0.6450195 -0.7641602 -0.003076553
vn 0.6450195 -0.7641602 -0.003076553
vn -0.8232422 0.5678711 0.003936768
vn -0.9887695 0.1483154 0.00472641
vn -0.9887695 0.1483154 0.00472641
vn -0.8232422 0.5678711 0.003936768
vn -0.7177734 0.6962891 0.003442764
vn -0.7177734 0.6962891 0.003442764
vn -0.8867188 0.4626465 0.004257202
vn -0.8867188 0.4626465 0.004257202
vn -0.06158447 -0.9980469 0.0003068447
vn -0.06158447 -0.9980469 0.0003068447
vn -0.06158447 -0.9980469 0.0003068447
vn -0.06158447 -0.9980469 0.0003068447
vn 0.06524658 -0.9980469 -0.0003106594
vn 0.06524658 -0.9980469 -0.0003106594
vn -0.1965332 -0.9804688 0.0008845329
vn -0.1965332 -0.9804688 0.0008845329
vn -0.9682617 -0.2492676 0.004623413
vn -0.9682617 -0.2492676 0.004623413
vn -0.9682617 -0.2492676 0.004623413
vn -0.9682617 -0.2492676 0.004623413
vn -0.8344727 0.5512695 0.003974915
vn -0.8344727 0.5512695 0.003974915
vn -0.8344727 0.5512695 0.003974915
vn -0.8344727 0.5512695 0.003974915
vn 0.00718689 -1 -3.117323E-05
vn 0.00718689 -1 -3.117323E-05
vn 0.00718689 -1 -3.117323E-05
vn 0.00718689 -1 -3.117323E-05
vn 0.001993179 -0.909668 0.4155273
vn -0.000682354 -0.9897461 -0.142334
vn -0.000682354 -0.9897461 -0.142334
vn 0.001993179 -0.909668 0.4155273
vn 0.00403595 -0.5405273 0.8413086
vn 0.00403595 -0.5405273 0.8413086
vn 0.004798889 0 1
vn 0.004798889 -1.239777E-05 1
vn 0.00403595 0.5405273 0.8413086
vn 0.00403595 0.5405273 0.8413086
vn 0.001993179 0.909668 0.4152832
vn 0.001993179 0.909668 0.4152832
vn -0.0006828308 0.9897461 -0.142334
vn -0.0006828308 0.9897461 -0.142334
vn -0.000682354 -0.9897461 -0.142334
vn -0.003141403 -0.7558594 -0.6547852
vn -0.000682354 -0.9897461 -0.142334
vn -0.003141403 -0.7558594 -0.6547852
vn -0.00460434 -0.2817383 -0.9594727
vn -0.00460434 -0.2817383 -0.9594727
vn -0.00460434 0.2817383 -0.9594727
vn -0.00460434 0.2817383 -0.9594727
vn -0.003141403 0.7558594 -0.6547852
vn -0.003141403 0.7558594 -0.6547852
vn -0.0006828308 0.9897461 -0.142334
vn -0.0006828308 0.9897461 -0.142334
vn -1 0 0.004802704
vn -1 0 0.004802704
vn -1 0 0.004802704
vn -1 0 0.004802704
vn -1 0 0.004802704
vn -1 0 0.004802704
vn -1 0 0.004802704
vn -1 0 0.004802704
vn -1 0 0.004802704
vn -1 0 0.004802704
vn -1 0 0.004802704
vn -0.6352539 -0.4206543 -0.6479492
vn -0.6879883 -0.1849365 -0.7016602
vn -0.6884766 -0.1829834 -0.7021484
vn -0.6884766 0.1829834 -0.7021484
vn -0.6879883 0.1849365 -0.7016602
vn -0.6352539 0.4206543 -0.6479492
vn 0.3012695 0.5004883 0.8115234
vn 0.2132568 0.2895508 0.9331055
vn 0.2253418 0.5292969 0.8178711
vn 0.3339844 0.2486572 0.9091797
vn 0.3432617 0.421875 0.8393555
vn 0.2132568 -0.2895508 0.9331055
vn 0.2902832 0.2008057 0.9355469
vn 0.1335449 0 0.9912109
vn 0.3339844 -0.2486572 0.9091797
vn 0.2253418 -0.5292969 0.8178711
vn 0.3012695 -0.5004883 0.8115234
vn 0.2902832 -0.2008057 0.9355469
vn 0.3432617 -0.421875 0.8388672
vn 0.293457 -0.5004883 -0.8144531
vn 0.2043457 -0.2895508 -0.9350586
vn 0.2175293 -0.5292969 -0.8203125
vn 0.3254395 -0.2486572 -0.9121094
vn 0.3352051 -0.421875 -0.8422852
vn 0.3254395 0.2486572 -0.9121094
vn 0.2043457 0.2895508 -0.9350586
vn 0.2814941 -0.2008057 -0.9384766
vn 0.1240845 0 -0.9921875
vn 0.2814941 0.2008057 -0.9384766
vn 0.3352051 0.421875 -0.8422852
vn 0.293457 0.5004883 -0.8144531
vn 0.2175293 0.5292969 -0.8203125
vn 0.8710938 0.4912109 -0.004177094
vn 0.8710938 0.4912109 -0.004177094
vn 0.8710938 0.4912109 -0.004177094
vn 0.8710938 0.4912109 -0.004177094
vn 0.004795074 0 1
vn 0.004795074 0 1
vn 0.004795074 0 1
vn 0.004795074 0 1
vn -0.8710938 -0.4912109 0.004177094
vn -0.8710938 -0.4912109 0.004177094
vn -0.8710938 -0.4912109 0.004177094
vn -0.8710938 -0.4912109 0.004177094
vn -0.004798889 0 -1
vn -0.004798889 0 -1
vn -0.004798889 0 -1
vn -0.004798889 0 -1
vn 0.8710938 0.4912109 -0.004177094
vn 0.8710938 0.4912109 -0.004177094
vn 0.8710938 0.4912109 -0.004177094
vn 0.8710938 0.4912109 -0.004177094
vn 0 1 0
vn 0 1 0
vn 0 1 0
vn 0 1 0
vn 0.004795074 0 1
vn 0.004795074 0 1
vn 0.004795074 0 1
vn 0.004795074 0 1
vn -0.8710938 -0.4912109 0.004177094
vn -0.8710938 -0.4912109 0.004177094
vn -0.8710938 -0.4912109 0.004177094
vn -0.8710938 -0.4912109 0.004177094
vn -0.004798889 0 -1
vn -0.004798889 0 -1
vn -0.004798889 0 -1
vn -0.004798889 0 -1
vn 0 1 0
vn 0 1 0
vn 0 1 0
vn 0 1 0
vn 0.8710938 0.4912109 -0.004188538
vn 0.8710938 0.4912109 -0.004188538
vn 0.8710938 0.4912109 -0.004188538
vn 0.8710938 0.4912109 -0.004188538
vn 0.004798889 0 1
vn 0.004798889 0 1
vn 0.004798889 0 1
vn 0.004798889 0 1
vn -0.8710938 -0.4912109 0.004188538
vn -0.8710938 -0.4912109 0.004188538
vn -0.8710938 -0.4912109 0.004188538
vn -0.8710938 -0.4912109 0.004188538
vn -0.004798889 0 -1
vn -0.004798889 0 -1
vn -0.004798889 0 -1
vn -0.004798889 0 -1
vn 0 1 0
vn 0 1 0
vn 0 1 0
vn 0 1 0
vn 0.8710938 -0.4912109 -0.004169464
vn 0.8710938 -0.4912109 -0.004169464
vn 0.8710938 -0.4912109 -0.004169464
vn 0.8710938 -0.4912109 -0.004169464
vn -0.004795074 0 -1
vn -0.004795074 0 -1
vn -0.004795074 0 -1
vn -0.004795074 0 -1
vn -0.8710938 0.4912109 0.004188538
vn -0.8710938 0.4912109 0.004188538
vn -0.8710938 0.4912109 0.004188538
vn -0.8710938 0.4912109 0.004188538
vn 0.004795074 0 1
vn 0.004795074 0 1
vn 0.004795074 0 1
vn 0.004795074 0 1
vn 0.8710938 -0.4912109 -0.004188538
vn 0.8710938 -0.4912109 -0.004188538
vn 0.8710938 -0.4912109 -0.004188538
vn 0.8710938 -0.4912109 -0.004188538
vn 0 -1 -1.615286E-05
vn 0 -1 -1.615286E-05
vn 0 -1 -1.615286E-05
vn 0 -1 -1.615286E-05
vn -0.004795074 0 -1
vn -0.004795074 0 -1
vn -0.004795074 0 -1
vn -0.004795074 0 -1
vn -0.8710938 0.4912109 0.004169464
vn -0.8710938 0.4912109 0.004169464
vn -0.8710938 0.4912109 0.004169464
vn -0.8710938 0.4912109 0.004169464
vn 0.004798889 0 1
vn 0.004798889 0 1
vn 0.004798889 0 1
vn 0.004798889 0 1
vn 0 -1 1.615286E-05
vn 0 -1 1.615286E-05
vn 0 -1 1.615286E-05
vn 0 -1 1.615286E-05
vn 0.8710938 -0.4912109 -0.004188538
vn 0.8710938 -0.4912109 -0.004188538
vn 0.8710938 -0.4912109 -0.004188538
vn 0.8710938 -0.4912109 -0.004188538
vn -0.004795074 0 -1
vn -0.004795074 0 -1
vn -0.004795074 0 -1
vn -0.004795074 0 -1
vn -0.8710938 0.4912109 0.004188538
vn -0.8710938 0.4912109 0.004188538
vn -0.8710938 0.4912109 0.004188538
vn -0.8710938 0.4912109 0.004188538
vn 0.004795074 0 1
vn 0.004795074 0 1
vn 0.004795074 0 1
vn 0.004795074 0 1
vn 0 -1 0
vn 0 -1 0
vn 0 -1 0
vn 0 -1 0
vn 0.9116211 0 0.4111328
vn 0.9892578 0 -0.1470947
vn 0.9892578 0 -0.1470947
vn 0.9116211 0 0.4111328
vn 0.5444336 0 0.8388672
vn 0.5444336 0 0.8388672
vn 0.004810333 0 1
vn 0.004810333 0 1
vn -0.5366211 0 0.84375
vn -0.5366211 0 0.84375
vn -0.9077148 0 0.4196777
vn -0.9077148 0 0.4196777
vn -0.9907227 0 -0.1375732
vn -0.9907227 0 -0.1375732
vn 0.9892578 0 -0.1470947
vn 0.7524414 0 -0.6586914
vn 0.9892578 0 -0.1470947
vn 0.7524414 0 -0.6586914
vn 0.2770996 0 -0.9609375
vn 0.2770996 0 -0.9609375
vn -0.286377 0 -0.9580078
vn -0.286377 0 -0.9580078
vn -0.7587891 0 -0.6513672
vn -0.7587891 0 -0.6513672
vn -0.9907227 0 -0.1375732
vn -0.9907227 0 -0.1375732
g Rooster_Compass_0
f 3/3/3 2/2/2 1/1/1
f 4/4/4 3/3/3 1/1/1
f 4/4/4 1/1/1 5/5/5
f 3/3/3 4/4/4 6/6/6
f 7/7/7 4/4/4 5/5/5
f 7/7/7 5/5/5 8/8/8
f 4/4/4 9/9/9 6/6/6
f 4/4/4 7/7/7 9/9/9
f 6/6/6 9/9/9 10/10/10
f 11/11/11 7/7/7 8/8/8
f 11/11/11 8/8/8 12/12/12
f 9/9/9 13/13/13 10/10/10
f 10/10/10 13/13/13 14/14/14
f 7/7/7 15/15/15 9/9/9
f 7/7/7 11/11/11 15/15/15
f 9/9/9 15/15/15 13/13/13
f 16/16/16 11/11/11 12/12/12
f 16/16/16 12/12/12 17/17/17
f 18/18/18 16/16/16 17/17/17
f 13/13/13 19/19/19 14/14/14
f 14/14/14 19/19/19 20/20/20
f 15/15/15 21/21/21 13/13/13
f 13/13/13 21/21/21 19/19/19
f 11/11/11 22/22/22 15/15/15
f 11/11/11 16/16/16 22/22/22
f 15/15/15 22/22/22 21/21/21
f 16/16/16 18/18/18 23/23/23
f 16/16/16 23/23/23 22/22/22
f 18/18/18 24/24/24 23/23/23
f 22/22/22 25/25/25 21/21/21
f 22/22/22 23/23/23 25/25/25
f 23/23/23 24/24/24 26/26/26
f 23/23/23 26/26/26 25/25/25
f 24/24/24 27/27/27 26/26/26
f 21/21/21 28/28/28 19/19/19
f 21/21/21 25/25/25 28/28/28
f 19/19/19 29/29/29 20/20/20
f 19/19/19 28/28/28 29/29/29
f 25/25/25 26/26/26 30/30/30
f 25/25/25 30/30/30 28/28/28
f 26/26/26 27/27/27 31/31/31
f 26/26/26 31/31/31 30/30/30
f 27/27/27 32/32/32 31/31/31
f 29/29/29 33/33/33 20/20/20
f 33/33/33 34/34/34 20/20/20
f 35/35/35 33/33/33 29/29/29
f 28/28/28 36/36/36 29/29/29
f 36/36/36 35/35/35 29/29/29
f 28/28/28 30/30/30 36/36/36
f 37/37/37 35/35/35 36/36/36
f 30/30/30 38/38/38 36/36/36
f 38/38/38 37/37/37 36/36/36
f 30/30/30 31/31/31 38/38/38
f 39/39/39 37/37/37 38/38/38
f 31/31/31 32/32/32 40/40/40
f 31/31/31 40/40/40 38/38/38
f 40/40/40 39/39/39 38/38/38
f 32/32/32 41/41/41 40/40/40
f 42/42/42 39/39/39 40/40/40
f 41/41/41 42/42/42 40/40/40
f 45/45/45 44/44/44 43/43/43
f 46/46/46 45/45/45 43/43/43
f 46/46/46 43/43/43 47/47/47
f 45/45/45 46/46/46 48/48/48
f 49/49/49 46/46/46 47/47/47
f 49/49/49 47/47/47 50/50/50
f 46/46/46 51/51/51 48/48/48
f 46/46/46 49/49/49 51/51/51
f 48/48/48 51/51/51 52/52/52
f 53/53/53 49/49/49 50/50/50
f 53/53/53 50/50/50 54/54/54
f 51/51/51 55/55/55 52/52/52
f 52/52/52 55/55/55 56/56/56
f 49/49/49 57/57/57 51/51/51
f 49/49/49 53/53/53 57/57/57
f 51/51/51 57/57/57 55/55/55
f 58/58/58 53/53/53 54/54/54
f 58/58/58 54/54/54 59/59/59
f 55/55/55 60/60/60 56/56/56
f 56/56/56 60/60/60 61/61/61
f 57/57/57 62/62/62 55/55/55
f 55/55/55 62/62/62 60/60/60
f 53/53/53 63/63/63 57/57/57
f 53/53/53 58/58/58 63/63/63
f 57/57/57 63/63/63 62/62/62
f 64/64/64 58/58/58 59/59/59
f 64/64/64 59/59/59 65/65/65
f 66/66/66 64/64/64 65/65/65
f 58/58/58 67/67/67 63/63/63
f 58/58/58 64/64/64 67/67/67
f 64/64/64 66/66/66 68/68/68
f 64/64/64 68/68/68 67/67/67
f 66/66/66 69/69/69 68/68/68
f 63/63/63 70/70/70 62/62/62
f 63/63/63 67/67/67 70/70/70
f 62/62/62 71/71/71 60/60/60
f 62/62/62 70/70/70 71/71/71
f 67/67/67 68/68/68 72/72/72
f 67/67/67 72/72/72 70/70/70
f 68/68/68 69/69/69 73/73/73
f 68/68/68 73/73/73 72/72/72
f 69/69/69 74/74/74 73/73/73
f 70/70/70 72/72/72 75/75/75
f 70/70/70 75/75/75 71/71/71
f 60/60/60 71/71/71 76/76/76
f 60/60/60 76/76/76 61/61/61
f 72/72/72 73/73/73 77/77/77
f 72/72/72 77/77/77 75/75/75
f 73/73/73 74/74/74 78/78/78
f 73/73/73 78/78/78 77/77/77
f 74/74/74 79/79/79 78/78/78
f 71/71/71 75/75/75 80/80/80
f 71/71/71 80/80/80 76/76/76
f 76/76/76 81/81/81 61/61/61
f 81/81/81 82/82/82 61/61/61
f 83/83/83 81/81/81 76/76/76
f 80/80/80 83/83/83 76/76/76
f 84/84/84 83/83/83 80/80/80
f 75/75/75 85/85/85 80/80/80
f 85/85/85 84/84/84 80/80/80
f 75/75/75 77/77/77 85/85/85
f 86/86/86 84/84/84 85/85/85
f 77/77/77 87/87/87 85/85/85
f 87/87/87 86/86/86 85/85/85
f 77/77/77 78/78/78 87/87/87
f 88/88/88 86/86/86 87/87/87
f 78/78/78 89/89/89 87/87/87
f 89/89/89 88/88/88 87/87/87
f 78/78/78 79/79/79 89/89/89
f 90/90/90 88/88/88 89/89/89
f 79/79/79 91/91/91 89/89/89
f 91/91/91 90/90/90 89/89/89
f 94/94/94 93/93/93 92/92/92
f 95/95/95 94/94/94 92/92/92
f 95/95/95 92/92/92 96/96/96
f 97/97/97 95/95/95 96/96/96
f 97/97/97 96/96/96 98/98/98
f 98/98/98 96/96/96 99/99/99
f 100/100/100 97/97/97 98/98/98
f 101/101/101 98/98/98 99/99/99
f 100/100/100 102/102/102 97/97/97
f 101/101/101 99/99/99 103/103/103
f 102/102/102 104/104/104 97/97/97
f 105/105/105 101/101/101 103/103/103
f 102/102/102 106/106/106 104/104/104
f 105/105/105 103/103/103 107/107/107
f 106/106/106 108/108/108 104/104/104
f 109/109/109 105/105/105 107/107/107
f 106/106/106 110/110/110 108/108/108
f 109/109/109 107/107/107 111/111/111
f 110/110/110 112/112/112 108/108/108
f 110/110/110 113/113/113 112/112/112
f 113/113/113 114/114/114 112/112/112
f 115/115/115 109/109/109 111/111/111
f 115/115/115 111/111/111 116/116/116
f 117/117/117 115/115/115 116/116/116
f 117/117/117 116/116/116 118/118/118
f 119/119/119 117/117/117 118/118/118
f 119/119/119 118/118/118 120/120/120
f 121/121/121 119/119/119 120/120/120
f 121/121/121 120/120/120 122/122/122
f 123/123/123 121/121/121 122/122/122
f 124/124/124 123/123/123 122/122/122
f 125/125/125 124/124/124 122/122/122
f 124/124/124 125/125/125 126/126/126
f 124/124/124 127/127/127 123/123/123
f 127/127/127 128/128/128 123/123/123
f 129/129/129 127/127/127 124/124/124
f 130/130/130 129/129/129 124/124/124
f 126/126/126 131/131/131 124/124/124
f 127/127/127 132/132/132 128/128/128
f 132/132/132 133/133/133 128/128/128
f 132/132/132 134/134/134 133/133/133
f 134/134/134 135/135/135 133/133/133
f 134/134/134 136/136/136 135/135/135
f 136/136/136 137/137/137 135/135/135
f 136/136/136 138/138/138 137/137/137
f 138/138/138 139/139/139 137/137/137
f 138/138/138 140/140/140 139/139/139
f 140/140/140 141/141/141 139/139/139
f 140/140/140 142/142/142 141/141/141
f 142/142/142 143/143/143 141/141/141
f 126/126/126 144/144/144 131/131/131
f 142/142/142 145/145/145 143/143/143
f 142/142/142 146/146/146 145/145/145
f 146/146/146 147/147/147 145/145/145
f 145/145/145 148/148/148 143/143/143
f 145/145/145 149/149/149 148/148/148
f 145/145/145 150/150/150 149/149/149
f 150/150/150 151/151/151 149/149/149
f 149/149/149 152/152/152 148/148/148
f 149/149/149 153/153/153 152/152/152
f 153/153/153 154/154/154 152/152/152
f 153/153/153 155/155/155 154/154/154
f 155/155/155 156/156/156 154/154/154
f 144/144/144 158/158/158 157/157/157
f 144/144/144 157/157/157 131/131/131
f 158/158/158 159/159/159 157/157/157
f 158/158/158 160/160/160 159/159/159
f 160/160/160 161/161/161 159/159/159
f 160/160/160 162/162/162 161/161/161
f 162/162/162 163/163/163 161/161/161
f 131/131/131 165/165/165 164/164/164
f 131/131/131 164/164/164 124/124/124
f 165/165/165 166/166/166 164/164/164
f 165/165/165 167/167/167 166/166/166
f 167/167/167 168/168/168 166/166/166
f 167/167/167 169/169/169 168/168/168
f 169/169/169 170/170/170 168/168/168
f 169/169/169 171/171/171 170/170/170
f 171/171/171 172/172/172 170/170/170
f 171/171/171 173/173/173 172/172/172
f 173/173/173 174/174/174 172/172/172
f 164/164/164 175/175/175 124/124/124
f 164/164/164 176/176/176 175/175/175
f 176/176/176 177/177/177 175/175/175
f 175/175/175 177/177/177 178/178/178
f 175/175/175 178/178/178 124/124/124
f 177/177/177 179/179/179 178/178/178
f 178/178/178 179/179/179 180/180/180
f 178/178/178 180/180/180 124/124/124
f 179/179/179 181/181/181 180/180/180
f 180/180/180 181/181/181 182/182/182
f 180/180/180 182/182/182 124/124/124
f 181/181/181 183/183/183 182/182/182
f 182/182/182 184/184/184 124/124/124
f 182/182/182 183/183/183 184/184/184
f 183/183/183 185/185/185 184/184/184
f 184/184/184 130/130/130 124/124/124
f 186/186/186 130/130/130 184/184/184
f 189/189/189 188/188/188 187/187/187
f 188/188/188 190/190/190 187/187/187
f 187/187/187 190/190/190 191/191/191
f 190/190/190 192/192/192 191/191/191
f 191/191/191 192/192/192 193/193/193
f 191/191/191 193/193/193 194/194/194
f 192/192/192 195/195/195 193/193/193
f 193/193/193 196/196/196 194/194/194
f 197/197/197 195/195/195 192/192/192
f 194/194/194 196/196/196 198/198/198
f 199/199/199 197/197/197 192/192/192
f 196/196/196 200/200/200 198/198/198
f 201/201/201 197/197/197 199/199/199
f 198/198/198 200/200/200 202/202/202
f 203/203/203 201/201/201 199/199/199
f 200/200/200 204/204/204 202/202/202
f 205/205/205 201/201/201 203/203/203
f 202/202/202 204/204/204 206/206/206
f 207/207/207 205/205/205 203/203/203
f 208/208/208 205/205/205 207/207/207
f 209/209/209 208/208/208 207/207/207
f 204/204/204 210/210/210 206/206/206
f 206/206/206 210/210/210 211/211/211
f 210/210/210 212/212/212 211/211/211
f 211/211/211 212/212/212 213/213/213
f 212/212/212 214/214/214 213/213/213
f 213/213/213 214/214/214 215/215/215
f 214/214/214 216/216/216 215/215/215
f 215/215/215 216/216/216 217/217/217
f 216/216/216 218/218/218 217/217/217
f 218/218/218 219/219/219 217/217/217
f 219/219/219 220/220/220 217/217/217
f 221/221/221 220/220/220 219/219/219
f 222/222/222 219/219/219 218/218/218
f 223/223/223 222/222/222 218/218/218
f 222/222/222 224/224/224 219/219/219
f 224/224/224 225/225/225 219/219/219
f 219/219/219 226/226/226 221/221/221
f 227/227/227 222/222/222 223/223/223
f 228/228/228 227/227/227 223/223/223
f 229/229/229 227/227/227 228/228/228
f 230/230/230 229/229/229 228/228/228
f 231/231/231 229/229/229 230/230/230
f 232/232/232 231/231/231 230/230/230
f 233/233/233 231/231/231 232/232/232
f 234/234/234 233/233/233 232/232/232
f 235/235/235 233/233/233 234/234/234
f 236/236/236 235/235/235 234/234/234
f 237/237/237 235/235/235 236/236/236
f 238/238/238 237/237/237 236/236/236
f 239/239/239 237/237/237 238/238/238
f 240/240/240 237/237/237 239/239/239
f 241/241/241 240/240/240 239/239/239
f 242/242/242 239/239/239 238/238/238
f 243/243/243 239/239/239 242/242/242
f 244/244/244 239/239/239 243/243/243
f 245/245/245 244/244/244 243/243/243
f 246/246/246 243/243/243 242/242/242
f 247/247/247 243/243/243 246/246/246
f 248/248/248 247/247/247 246/246/246
f 249/249/249 247/247/247 248/248/248
f 250/250/250 249/249/249 248/248/248
f 253/253/253 252/252/252 251/251/251
f 252/252/252 254/254/254 251/251/251
f 251/251/251 254/254/254 255/255/255
f 254/254/254 256/256/256 255/255/255
f 255/255/255 256/256/256 257/257/257
f 256/256/256 258/258/258 257/257/257
f 257/257/257 258/258/258 226/226/226
f 258/258/258 221/221/221 226/226/226
f 260/260/260 226/226/226 259/259/259
f 219/219/219 259/259/259 226/226/226
f 261/261/261 260/260/260 259/259/259
f 262/262/262 260/260/260 261/261/261
f 263/263/263 262/262/262 261/261/261
f 264/264/264 262/262/262 263/263/263
f 265/265/265 264/264/264 263/263/263
f 266/266/266 264/264/264 265/265/265
f 267/267/267 266/266/266 265/265/265
f 268/268/268 266/266/266 267/267/267
f 269/269/269 268/268/268 267/267/267
f 219/219/219 270/270/270 259/259/259
f 271/271/271 259/259/259 270/270/270
f 272/272/272 271/271/271 270/270/270
f 272/272/272 270/270/270 273/273/273
f 219/219/219 273/273/273 270/270/270
f 274/274/274 272/272/272 273/273/273
f 274/274/274 273/273/273 275/275/275
f 219/219/219 275/275/275 273/273/273
f 276/276/276 274/274/274 275/275/275
f 276/276/276 275/275/275 277/277/277
f 219/219/219 277/277/277 275/275/275
f 278/278/278 276/276/276 277/277/277
f 219/219/219 279/279/279 277/277/277
f 278/278/278 277/277/277 279/279/279
f 280/280/280 278/278/278 279/279/279
f 219/219/219 225/225/225 279/279/279
f 225/225/225 281/281/281 279/279/279
f 284/284/284 283/283/283 282/282/282
f 285/285/285 284/284/284 282/282/282
f 286/286/286 284/284/284 285/285/285
f 287/287/287 286/286/286 285/285/285
f 290/290/290 289/289/289 288/288/288
f 291/291/291 290/290/290 288/288/288
f 292/292/292 290/290/290 291/291/291
f 293/293/293 292/292/292 291/291/291
f 294/294/294 292/292/292 293/293/293
f 295/295/295 294/294/294 293/293/293
f 298/298/298 297/297/297 296/296/296
f 299/299/299 298/298/298 296/296/296
f 302/302/302 301/301/301 300/300/300
f 303/303/303 302/302/302 300/300/300
f 306/306/306 305/305/305 304/304/304
f 305/305/305 307/307/307 304/304/304
f 304/304/304 307/307/307 308/308/308
f 307/307/307 309/309/309 308/308/308
f 308/308/308 309/309/309 310/310/310
f 309/309/309 311/311/311 310/310/310
f 310/310/310 311/311/311 312/312/312
f 311/311/311 313/313/313 312/312/312
f 312/312/312 313/313/313 314/314/314
f 313/313/313 315/315/315 314/314/314
f 314/314/314 315/315/315 316/316/316
f 315/315/315 317/317/317 316/316/316
f 316/316/316 317/317/317 318/318/318
f 317/317/317 319/319/319 318/318/318
f 318/318/318 319/319/319 320/320/320
f 319/319/319 321/321/321 320/320/320
f 320/320/320 321/321/321 322/322/322
f 321/321/321 323/323/323 322/322/322
f 322/322/322 323/323/323 324/324/324
f 323/323/323 325/325/325 324/324/324
f 324/324/324 325/325/325 326/326/326
f 325/325/325 327/327/327 326/326/326
f 330/330/330 329/329/329 328/328/328
f 329/329/329 331/331/331 328/328/328
f 328/328/328 331/331/331 332/332/332
f 331/331/331 333/333/333 332/332/332
f 332/332/332 333/333/333 334/334/334
f 333/333/333 335/335/335 334/334/334
f 338/338/338 337/337/337 336/336/336
f 339/339/339 338/338/338 336/336/336
f 342/342/342 341/341/341 340/340/340
f 341/341/341 343/343/343 340/340/340
f 343/343/343 344/344/344 340/340/340
f 343/343/343 345/345/345 344/344/344
f 348/348/348 347/347/347 346/346/346
f 349/349/349 348/348/348 346/346/346
f 352/352/352 351/351/351 350/350/350
f 351/351/351 353/353/353 350/350/350
f 350/350/350 353/353/353 354/354/354
f 353/353/353 355/355/355 354/354/354
f 354/354/354 355/355/355 356/356/356
f 355/355/355 357/357/357 356/356/356
f 356/356/356 357/357/357 358/358/358
f 357/357/357 359/359/359 358/358/358
f 358/358/358 359/359/359 360/360/360
f 359/359/359 361/361/361 360/360/360
f 360/360/360 361/361/361 362/362/362
f 361/361/361 363/363/363 362/362/362
f 362/362/362 363/363/363 364/364/364
f 363/363/363 365/365/365 364/364/364
f 364/364/364 365/365/365 366/366/366
f 365/365/365 367/367/367 366/366/366
f 370/370/370 369/369/369 368/368/368
f 371/371/371 370/370/370 368/368/368
f 372/372/372 370/370/370 371/371/371
f 373/373/373 372/372/372 371/371/371
f 374/374/374 372/372/372 373/373/373
f 375/375/375 374/374/374 373/373/373
f 376/376/376 374/374/374 375/375/375
f 377/377/377 376/376/376 375/375/375
f 378/378/378 376/376/376 377/377/377
f 379/379/379 378/378/378 377/377/377
f 382/382/382 381/381/381 380/380/380
f 383/383/383 382/382/382 380/380/380
f 386/386/386 385/385/385 384/384/384
f 387/387/387 386/386/386 384/384/384
f 388/388/388 386/386/386 387/387/387
f 389/389/389 388/388/388 387/387/387
f 392/392/392 391/391/391 390/390/390
f 393/393/393 392/392/392 390/390/390
f 396/396/396 395/395/395 394/394/394
f 397/397/397 396/396/396 394/394/394
f 398/398/398 396/396/396 397/397/397
f 399/399/399 398/398/398 397/397/397
f 400/400/400 398/398/398 399/399/399
f 401/401/401 400/400/400 399/399/399
f 402/402/402 400/400/400 401/401/401
f 403/403/403 402/402/402 401/401/401
f 404/404/404 402/402/402 403/403/403
f 405/405/405 404/404/404 403/403/403
f 406/406/406 404/404/404 405/405/405
f 407/407/407 406/406/406 405/405/405
f 408/408/408 406/406/406 407/407/407
f 409/409/409 408/408/408 407/407/407
f 410/410/410 408/408/408 409/409/409
f 411/411/411 410/410/410 409/409/409
f 414/414/414 413/413/413 412/412/412
f 413/413/413 415/415/415 412/412/412
f 412/412/412 415/415/415 416/416/416
f 415/415/415 417/417/417 416/416/416
f 416/416/416 417/417/417 418/418/418
f 417/417/417 419/419/419 418/418/418
f 418/418/418 419/419/419 420/420/420
f 419/419/419 421/421/421 420/420/420
f 420/420/420 421/421/421 422/422/422
f 421/421/421 423/423/423 422/422/422
f 426/426/426 425/425/425 424/424/424
f 427/427/427 426/426/426 424/424/424
f 428/428/428 426/426/426 427/427/427
f 429/429/429 428/428/428 427/427/427
f 430/430/430 428/428/428 429/429/429
f 431/431/431 430/430/430 429/429/429
f 432/432/432 430/430/430 431/431/431
f 433/433/433 432/432/432 431/431/431
f 434/434/434 432/432/432 433/433/433
f 435/435/435 434/434/434 433/433/433
f 438/438/438 437/437/437 436/436/436
f 439/439/439 438/438/438 436/436/436
f 442/442/442 441/441/441 440/440/440
f 443/443/443 442/442/442 440/440/440
f 446/446/446 445/445/445 444/444/444
f 445/445/445 447/447/447 444/444/444
f 444/444/444 447/447/447 448/448/448
f 447/447/447 449/449/449 448/448/448
f 452/452/452 451/451/451 450/450/450
f 453/453/453 452/452/452 450/450/450
f 456/456/456 455/455/455 454/454/454
f 455/455/455 457/457/457 454/454/454
f 454/454/454 457/457/457 458/458/458
f 457/457/457 459/459/459 458/458/458
f 458/458/458 459/459/459 460/460/460
f 459/459/459 461/461/461 460/460/460
f 460/460/460 461/461/461 462/462/462
f 461/461/461 463/463/463 462/462/462
f 462/462/462 463/463/463 464/464/464
f 463/463/463 465/465/465 464/464/464
f 464/464/464 465/465/465 466/466/466
f 465/465/465 467/467/467 466/466/466
f 470/470/470 469/469/469 468/468/468
f 471/471/471 470/470/470 468/468/468
f 474/474/474 473/473/473 472/472/472
f 475/475/475 474/474/474 472/472/472
f 478/478/478 477/477/477 476/476/476
f 479/479/479 478/478/478 476/476/476
f 482/482/482 481/481/481 480/480/480
f 483/483/483 482/482/482 480/480/480
f 486/486/486 485/485/485 484/484/484
f 487/487/487 486/486/486 484/484/484
f 490/490/490 489/489/489 488/488/488
f 491/491/491 490/490/490 488/488/488
f 494/494/494 493/493/493 492/492/492
f 495/495/495 494/494/494 492/492/492
f 498/498/498 497/497/497 496/496/496
f 499/499/499 498/498/498 496/496/496
f 502/502/502 501/501/501 500/500/500
f 503/503/503 502/502/502 500/500/500
f 506/506/506 505/505/505 504/504/504
f 505/505/505 507/507/507 504/504/504
f 504/504/504 507/507/507 508/508/508
f 507/507/507 509/509/509 508/508/508
f 512/512/512 511/511/511 510/510/510
f 511/511/511 513/513/513 510/510/510
f 510/510/510 513/513/513 514/514/514
f 513/513/513 515/515/515 514/514/514
f 514/514/514 515/515/515 516/516/516
f 515/515/515 517/517/517 516/516/516
f 520/520/520 519/519/519 518/518/518
f 521/521/521 520/520/520 518/518/518
f 524/524/524 523/523/523 522/522/522
f 525/525/525 524/524/524 522/522/522
f 528/528/528 527/527/527 526/526/526
f 529/529/529 528/528/528 526/526/526
f 532/532/532 531/531/531 530/530/530
f 533/533/533 532/532/532 530/530/530
f 536/536/536 535/535/535 534/534/534
f 537/537/537 536/536/536 534/534/534
f 540/540/540 539/539/539 538/538/538
f 541/541/541 540/540/540 538/538/538
f 541/541/541 538/538/538 542/542/542
f 543/543/543 541/541/541 542/542/542
f 543/543/543 542/542/542 544/544/544
f 545/545/545 543/543/543 544/544/544
f 545/545/545 544/544/544 546/546/546
f 547/547/547 545/545/545 546/546/546
f 547/547/547 546/546/546 548/548/548
f 549/549/549 547/547/547 548/548/548
f 549/549/549 548/548/548 550/550/550
f 551/551/551 549/549/549 550/550/550
f 554/554/554 553/553/553 552/552/552
f 553/553/553 555/555/555 552/552/552
f 553/553/553 556/556/556 555/555/555
f 556/556/556 557/557/557 555/555/555
f 556/556/556 558/558/558 557/557/557
f 558/558/558 559/559/559 557/557/557
f 558/558/558 560/560/560 559/559/559
f 560/560/560 561/561/561 559/559/559
f 560/560/560 562/562/562 561/561/561
f 562/562/562 563/563/563 561/561/561
f 566/566/566 565/565/565 564/564/564
f 564/564/564 567/567/567 566/566/566
f 567/567/567 568/568/568 566/566/566
f 567/567/567 569/569/569 568/568/568
f 569/569/569 570/570/570 568/568/568
f 569/569/569 571/571/571 570/570/570
f 571/571/571 572/572/572 570/570/570
f 571/571/571 573/573/573 572/572/572
f 573/573/573 574/574/574 572/572/572
f 577/577/577 576/576/576 575/575/575
f 577/577/577 578/578/578 576/576/576
f 578/578/578 579/579/579 576/576/576
f 579/579/579 578/578/578 580/580/580
f 583/583/583 582/582/582 581/581/581
f 582/582/582 584/584/584 581/581/581
f 581/581/581 584/584/584 585/585/585
f 584/584/584 582/582/582 586/586/586
f 584/584/584 587/587/587 585/585/585
f 585/585/585 587/587/587 588/588/588
f 589/589/589 584/584/584 586/586/586
f 587/587/587 584/584/584 589/589/589
f 589/589/589 586/586/586 590/590/590
f 591/591/591 589/589/589 590/590/590
f 588/588/588 587/587/587 592/592/592
f 592/592/592 587/587/587 589/589/589
f 592/592/592 589/589/589 591/591/591
f 588/588/588 592/592/592 593/593/593
f 593/593/593 592/592/592 591/591/591
f 596/596/596 595/595/595 594/594/594
f 595/595/595 597/597/597 594/594/594
f 594/594/594 597/597/597 598/598/598
f 599/599/599 597/597/597 595/595/595
f 600/600/600 599/599/599 595/595/595
f 597/597/597 601/601/601 598/598/598
f 598/598/598 601/601/601 602/602/602
f 603/603/603 601/601/601 597/597/597
f 603/603/603 602/602/602 601/601/601
f 599/599/599 603/603/603 597/597/597
f 604/604/604 602/602/602 603/603/603
f 604/604/604 603/603/603 599/599/599
f 605/605/605 604/604/604 599/599/599
f 605/605/605 599/599/599 600/600/600
f 606/606/606 605/605/605 600/600/600
f 609/609/609 608/608/608 607/607/607
f 610/610/610 609/609/609 607/607/607
f 613/613/613 612/612/612 611/611/611
f 614/614/614 613/613/613 611/611/611
f 617/617/617 616/616/616 615/615/615
f 618/618/618 617/617/617 615/615/615
f 621/621/621 620/620/620 619/619/619
f 622/622/622 621/621/621 619/619/619
f 625/625/625 624/624/624 623/623/623
f 626/626/626 625/625/625 623/623/623
f 629/629/629 628/628/628 627/627/627
f 630/630/630 629/629/629 627/627/627
f 633/633/633 632/632/632 631/631/631
f 634/634/634 633/633/633 631/631/631
f 637/637/637 636/636/636 635/635/635
f 638/638/638 637/637/637 635/635/635
f 641/641/641 640/640/640 639/639/639
f 642/642/642 641/641/641 639/639/639
f 645/645/645 644/644/644 643/643/643
f 646/646/646 645/645/645 643/643/643
f 649/649/649 648/648/648 647/647/647
f 650/650/650 649/649/649 647/647/647
f 653/653/653 652/652/652 651/651/651
f 654/654/654 653/653/653 651/651/651
f 657/657/657 656/656/656 655/655/655
f 658/658/658 657/657/657 655/655/655
f 661/661/661 660/660/660 659/659/659
f 662/662/662 661/661/661 659/659/659
f 665/665/665 664/664/664 663/663/663
f 666/666/666 665/665/665 663/663/663
f 669/669/669 668/668/668 667/667/667
f 670/670/670 669/669/669 667/667/667
f 673/673/673 672/672/672 671/671/671
f 674/674/674 673/673/673 671/671/671
f 677/677/677 676/676/676 675/675/675
f 678/678/678 677/677/677 675/675/675
f 681/681/681 680/680/680 679/679/679
f 682/682/682 681/681/681 679/679/679
f 685/685/685 684/684/684 683/683/683
f 686/686/686 685/685/685 683/683/683
f 689/689/689 688/688/688 687/687/687
f 690/690/690 689/689/689 687/687/687
f 693/693/693 692/692/692 691/691/691
f 694/694/694 693/693/693 691/691/691
f 697/697/697 696/696/696 695/695/695
f 698/698/698 697/697/697 695/695/695
f 701/701/701 700/700/700 699/699/699
f 702/702/702 701/701/701 699/699/699
f 705/705/705 704/704/704 703/703/703
f 706/706/706 705/705/705 703/703/703
f 709/709/709 708/708/708 707/707/707
f 710/710/710 709/709/709 707/707/707
f 713/713/713 712/712/712 711/711/711
f 714/714/714 713/713/713 711/711/711
f 717/717/717 716/716/716 715/715/715
f 718/718/718 717/717/717 715/715/715
f 721/721/721 720/720/720 719/719/719
f 722/722/722 721/721/721 719/719/719
f 725/725/725 724/724/724 723/723/723
f 726/726/726 725/725/725 723/723/723
f 729/729/729 728/728/728 727/727/727
f 730/730/730 729/729/729 727/727/727
f 730/730/730 727/727/727 731/731/731
f 732/732/732 730/730/730 731/731/731
f 732/732/732 731/731/731 733/733/733
f 734/734/734 732/732/732 733/733/733
f 734/734/734 733/733/733 735/735/735
f 736/736/736 734/734/734 735/735/735
f 736/736/736 735/735/735 737/737/737
f 738/738/738 736/736/736 737/737/737
f 738/738/738 737/737/737 739/739/739
f 740/740/740 738/738/738 739/739/739
f 743/743/743 742/742/742 741/741/741
f 742/742/742 744/744/744 741/741/741
f 742/742/742 745/745/745 744/744/744
f 745/745/745 746/746/746 744/744/744
f 745/745/745 747/747/747 746/746/746
f 747/747/747 748/748/748 746/746/746
f 747/747/747 749/749/749 748/748/748
f 749/749/749 750/750/750 748/748/748
f 749/749/749 751/751/751 750/750/750
f 751/751/751 752/752/752 750/750/750
