g Seat_07
v 0.2309982 -0.2364487 -1.014604
v 0.2660317 -0.1898563 -1.016622
v 0.2674728 -0.1962076 -1.025334
v 0.2293942 -0.2453677 -1.02284
v 0.2344619 -0.2419754 -0.9292502
v 0.2326064 -0.250148 -0.9292545
v 0.2283102 -0.2479337 -0.4075809
v 0.2271719 -0.2560965 -0.4075773
v 0.22113 -0.2380362 -0.2861124
v 0.219996 -0.2474417 -0.2778654
v 0.2579537 -0.1908804 -0.2891117
v 0.22113 -0.2380362 -0.2861124
v 0.219996 -0.2474417 -0.2778654
v 0.2592672 -0.1972525 -0.28025
v 0.3024612 -0.1216849 -0.2919559
v 0.2209133 -0.263414 -0.2665507
v 0.2271719 -0.2560965 -0.4075773
v 0.2320931 -0.2821872 -0.4074912
v 0.2287136 -0.2919522 -0.4075052
v 0.2165243 -0.2749527 -0.2554856
v 0.2171987 -0.3002188 -0.4075925
v 0.2035391 -0.2802927 -0.2440995
v 0.2666342 -0.2082718 -0.2648777
v 0.3066866 -0.1231644 -0.2835398
v 0.324664 -0.03888885 -0.292316
v 0.2665402 -0.216188 -0.2528843
v 0.3222079 -0.1284885 -0.2656955
v 0.329266 -0.03943633 -0.2837839
v 0.3222494 0.04839204 -0.2916202
v 0.1301779 -0.3260623 -0.2505686
v 0.1400027 -0.3430112 -0.4082004
v 0.05710047 -0.3690579 -0.4088859
v 0.3267953 0.04874848 -0.2832065
v 0.3009957 0.1310208 -0.2921287
v 0.3047958 0.1320773 -0.2840964
v 0.2531759 0.2026151 -0.2911668
v 0.3430947 0.04986176 -0.2657492
v 0.3458053 -0.04201445 -0.2656003
v 0.3272854 -0.1301419 -0.2543772
v 0.2769912 -0.2119589 -0.2408487
v 0.3512185 -0.04285552 -0.2542783
v 0.3253707 -0.1292544 -0.2421128
v 0.2560568 0.2044565 -0.2835886
v 0.1921139 0.2543796 -0.2880985
v 0.1910971 0.2605459 -0.2799753
v 0.1448727 0.2884152 -0.2840171
v 0.271387 0.213624 -0.266334
v 0.3216232 0.1379599 -0.2659934
v 0.3485128 0.05010407 -0.2544565
v 0.2442123 -0.1826071 -0.1522001
v 0.1410641 0.2972861 -0.2763785
v 0.147955 0.300693 -0.4091685
v 0.1446346 0.3080319 -0.4092087
v 0.1424526 0.3334311 -0.4092692
v 0.1373019 0.3130881 -0.2669053
v 0.3493844 -0.04290007 -0.2419614
v 0.3272164 0.1397067 -0.254705
v 0.1958584 0.2734384 -0.2656846
v 0.1294229 0.3234604 -0.2567258
v 0.1365719 0.3424069 -0.4093345
v 0.1149172 0.3250937 -0.2454099
v 0.1233706 0.3472726 -0.4094584
v 0.3464761 0.04962373 -0.2421787
v 0.3025222 -0.03682341 -0.1519236
v 0.2765585 0.2164633 -0.2552036
v 0.1936056 0.2812668 -0.2541318
v 0.3256955 0.1390543 -0.2423087
v 0.2046896 0.2802499 -0.2419394
v 0.2752438 0.2150241 -0.2428422
v 0.2820364 0.1204343 -0.1523569
v 0.1820089 0.2434897 -0.1534318
v 0.3003506 0.04318757 -0.1520725
v 0.2385793 0.1868698 -0.1528452
v 0.2054055 0.0879239 -0.0705796
v 0.22035 -0.02680083 -0.07026099
v 0.2187667 0.03156892 -0.07037146
v 0.2820083 -0.1121377 -0.1519822
v 0.1324301 0.1777011 -0.0713639
v 0.1737002 0.1363925 -0.07093543
v 0.1090145 0.04677155 -0.01805274
v 0.1132424 0.2804147 -0.1540946
v 0.2053842 -0.0817459 -0.07030494
v 0.1778103 -0.1331595 -0.07046363
v 0.1169589 -0.01421538 -0.01788428
v 0.1161154 0.01681367 -0.01794288
v 0.09216516 0.07253694 -0.0182389
v 0.07022547 0.09449555 -0.01846656
v 0.1090066 -0.04342315 -0.01790564
v 0.08226282 0.204642 -0.0718473
v -3.585739E-07 -2.959834E-07 -9.81395E-07
v 0.04355555 0.1088144 -0.0187229
v 0.07272791 -0.09203765 -0.01814673
v -0.01667638 0.115925 -0.01926551
v 0.09434961 -0.07075591 -0.0179917
v 0.01363978 0.116976 -0.01899939
v 0.02598231 0.2200009 -0.07236426
v 0.1371383 -0.1731949 -0.0707572
v -0.03105138 0.2180252 -0.07285987
v 0.03609949 0.3014645 -0.1548038
v 0.1884652 -0.2374796 -0.1526011
v 0.1205483 -0.2774991 -0.1531302
v 0.08759058 -0.2023904 -0.07114356
v 0.05321864 -0.3512436 -0.257042
v -0.04207433 0.298757 -0.155485
v 0.03121485 0.3503256 -0.2524918
v 0.03642908 0.3688119 -0.4102543
v -0.0499143 0.3677304 -0.4110093
v -0.04869543 0.3504037 -0.2590653
v -0.1393845 0.327048 -0.2609989
v -0.1452012 0.3429776 -0.4118052
v -0.2269382 0.291622 -0.4124381
v -0.1194053 0.2783615 -0.1561289
v -0.08746862 0.2031467 -0.07333167
v -0.2172758 0.2779251 -0.2604276
v -0.04666723 0.1080197 -0.01951392
v -0.1857547 0.2369791 -0.1566434
v -0.2838498 0.2117721 -0.260698
v -0.2968638 0.2221817 -0.4129398
v -0.3421906 0.1371915 -0.4132004
v -0.07239904 0.0919748 -0.01971167
v -0.1358744 0.1729562 -0.07370704
v -0.242533 0.180657 -0.1570511
v -0.3270288 0.1308579 -0.2611515
v -0.1772971 0.1318649 -0.07400428
v -0.09441931 0.07013154 -0.01987159
v -0.2792966 0.1116373 -0.1572623
v -0.3516907 0.04032502 -0.2612583
v -0.3680838 0.04212068 -0.4132731
v -0.3647901 -0.05417632 -0.4130881
v -0.1086759 0.04336152 -0.01995337
v -0.2041193 0.08151093 -0.07415687
v -0.3003098 0.03446748 -0.1573227
v -0.219448 0.02521333 -0.07420142
v -0.1168229 0.01343476 -0.01997596
v -0.3485495 -0.05137847 -0.2610453
v -0.1157877 -0.01687529 -0.01991675
v -0.2976432 -0.04368926 -0.1571744
v -0.2175013 -0.03180511 -0.07409216
v -0.2772556 -0.121022 -0.1568705
v -0.2026282 -0.08822539 -0.07387183
v -0.1078818 -0.04686675 -0.01979956
v -0.09183386 -0.07259795 -0.01961951
v -0.1724338 -0.1366318 -0.07352881
v -0.3246286 -0.1421133 -0.260684
v -0.2358689 -0.1873709 -0.1564005
v -0.3396713 -0.1494559 -0.4127164
v -0.288682 -0.2312039 -0.4121372
v -0.2760724 -0.21996 -0.2601407
v -0.2099921 -0.2865811 -0.2594535
v -0.219293 -0.3011624 -0.4114176
v -0.1342606 -0.3464627 -0.4105979
v -0.1795505 -0.2441495 -0.1558158
v -0.1313468 -0.1780545 -0.07310157
v -0.06999181 -0.09461943 -0.01939307
v -0.129014 -0.329722 -0.2586716
v -0.04322606 -0.1088803 -0.01913489
v -0.110535 -0.2809164 -0.1551511
v -0.08099706 -0.2048782 -0.07261817
v -0.0382047 -0.3548654 -0.2589664
v -0.03918981 -0.3723477 -0.4097251
v -0.0333695 -0.3019254 -0.1544401
v 0.01700831 -0.1159903 -0.01859534
v -0.02470128 -0.2202072 -0.07209815
v 0.04478419 -0.2992544 -0.1537595
v -0.01330114 -0.1170261 -0.0188584
v 0.03231776 -0.2182596 -0.07160255
v 0.04639002 -0.1075558 -0.01835242
v 0.1583267 0.2843027 -1.014733
v 0.1588552 0.2897556 -0.93077
v 0.1544448 0.297012 -0.93082
v 0.153876 0.2923349 -1.022832
v 0.2036874 0.2498581 -1.019194
v 0.1455648 0.3142807 -1.042092
v 0.1494247 0.3341507 -0.9309232
v 0.1423153 0.3420224 -0.9309995
v 0.2042648 0.2576303 -1.027346
v 0.2643942 0.1968869 -1.024477
v 0.1374014 0.3230765 -1.053632
v 0.1292928 0.3462717 -0.9311191
v 0.2706326 0.20254 -1.031595
v 0.3097531 0.125676 -1.022901
v 0.2037557 0.2721835 -1.043366
v 0.1239309 0.3241568 -1.064903
v 0.0414828 0.367435 -0.931923
v 0.3160134 0.1294284 -1.030381
v 0.3293185 0.04403535 -1.019258
v 0.2793215 0.2103885 -1.042226
v 0.2011373 0.2797739 -1.055393
v 0.3343502 0.04486909 -1.027387
v 0.3311544 -0.04062896 -1.019068
v 0.336025 -0.04137481 -1.027295
v 0.3098214 -0.1210409 -1.019188
v 0.3492263 0.0474112 -1.041296
v 0.3283511 0.1347916 -1.041783
v 0.2838461 0.2146103 -1.053212
v 0.2127474 0.2790634 -1.067611
v 0.3341122 0.1378403 -1.052725
v 0.314548 -0.1229941 -1.027335
v 0.2660317 -0.1898563 -1.016622
v 0.2674728 -0.1962076 -1.025334
v 0.328392 -0.1287564 -1.041175
v 0.3515286 -0.04320464 -1.04126
v 0.2735073 -0.20923 -1.041829
v 0.3552365 0.0484781 -1.052293
v 0.3578042 -0.04409209 -1.052192
v 0.3552365 0.0484781 -1.052293
v 0.2824215 0.2136679 -1.065618
v 0.3327523 0.1376096 -1.065226
v 0.2290292 -0.2657425 -1.039997
v 0.2293942 -0.2453677 -1.02284
v 0.2473702 0.1852536 -1.156063
v 0.3535446 0.04828217 -1.064695
v 0.3578042 -0.04409209 -1.052192
v 0.356398 -0.04415557 -1.064646
v 0.3340231 -0.1311239 -1.052176
v 0.328392 -0.1287564 -1.041175
v 0.3091445 0.04156709 -1.155288
v 0.238309 -0.2831619 -0.929152
v 0.2326064 -0.250148 -0.9292545
v 0.2735458 -0.2171213 -1.054006
v 0.2242416 -0.2765622 -1.051806
v 0.2340688 -0.2927444 -0.9291727
v 0.211805 -0.2815213 -1.063223
v 0.2226052 -0.3007034 -0.9292606
v 0.1448666 -0.3435184 -0.9298728
v 0.2845931 -0.2131326 -1.066164
v 0.3324423 -0.1305228 -1.064563
v 0.2908016 -0.1137509 -1.155198
v 0.3113143 -0.03844023 -1.155139
v 0.137839 -0.3274148 -1.058325
v 0.1972579 -0.239097 -1.155818
v 0.2530056 -0.1842239 -1.155417
v 0.2156222 -0.08362639 -1.238304
v 0.06019678 -0.3525223 -1.053396
v 0.06167201 -0.3698965 -0.9305601
v -0.03461706 -0.3731875 -0.9313987
v 0.2290035 0.02969209 -1.238368
v 0.230588 -0.02868072 -1.238261
v 0.1201766 -0.04547515 -1.292512
v 0.1272897 0.01476106 -1.292542
v 0.1880477 -0.1350369 -1.238463
v 0.2908297 0.1188156 -1.155573
v 0.1281313 -0.016268 -1.292488
v 0.2156423 0.08604768 -1.238576
v 0.1839376 0.1345175 -1.238933
v 0.1033358 0.07048127 -1.292845
v 0.1201876 0.0447165 -1.292654
v 0.1908016 0.2418723 -1.156648
v 0.01150294 -0.002113333 -1.312462
v 0.08389917 -0.09408355 -1.292749
v 0.0547262 0.1067612 -1.293328
v 0.02817835 -0.1180423 -1.2932
v -0.00550573 0.1138742 -1.293867
v -0.0320548 -0.1109335 -1.293741
v -0.06122716 0.08991852 -1.294317
v -0.08066076 -0.07465056 -1.294222
v -0.09750341 0.0413083 -1.294555
v -0.1046183 -0.01892791 -1.294522
v 0.1055178 -0.07280547 -1.292596
v 0.1473776 -0.1750699 -1.238756
v 0.1293417 -0.2791171 -1.156349
v 0.09782861 -0.2042679 -1.239143
v 0.0535763 -0.3008707 -1.156977
v 0.05756007 -0.1096036 -1.292956
v 0.04255396 -0.2201401 -1.239602
v -0.03126501 -0.3561075 -1.053136
v -0.02457616 -0.3035397 -1.157658
v -0.01446325 -0.2220871 -1.240099
v -0.1220365 -0.3310001 -1.055031
v -0.1296897 -0.3473032 -0.9322727
v -0.2147208 -0.3020035 -0.9330918
v -0.002129265 -0.1190787 -1.293463
v -0.07075841 -0.2067599 -1.240616
v -0.1017411 -0.2825296 -1.158369
v -0.203013 -0.2878647 -1.055808
v -0.1707557 -0.2457657 -1.159032
v -0.1211094 -0.179938 -1.2411
v -0.269094 -0.2212491 -1.056496
v -0.2841105 -0.2320438 -0.9338126
v -0.335098 -0.1502969 -0.93439
v -0.05881993 -0.09667327 -1.293996
v -0.1621979 -0.1385159 -1.241526
v -0.2270765 -0.1889877 -1.159618
v -0.3176505 -0.1433987 -1.057054
v -0.2684629 -0.1226382 -1.160088
v -0.1923929 -0.09010833 -1.241869
v -0.3415702 -0.05266021 -1.057403
v -0.3602182 -0.0550186 -0.9347641
v -0.09671056 -0.04891875 -1.294403
v -0.207266 -0.0336856 -1.242091
v -0.2888489 -0.04530425 -1.160391
v -0.2092127 0.02333589 -1.2422
v -0.2915159 0.03285187 -1.16054
v -0.3447098 0.03904389 -1.057547
v -0.1056522 0.01138276 -1.29458
v -0.1938825 0.07963654 -1.242157
v -0.3635138 0.04128022 -0.9349485
v -0.2705064 0.1100192 -1.160482
v -0.3200479 0.1295767 -1.057508
v -0.3376178 0.1363516 -0.9348734
v -0.2922831 0.2213278 -0.9346146
v -0.2768686 0.2104947 -1.057446
v -0.2337406 0.1790414 -1.160268
v -0.1670603 0.1299869 -1.242003
v -0.2102927 0.2766403 -1.056783
v -0.2223676 0.2907828 -0.9341135
v -0.1406315 0.342247 -0.9334794
v -0.08324682 0.06807587 -1.294474
v -0.125637 0.1710751 -1.241705
v -0.1769633 0.2353671 -1.159861
v -0.1324308 0.325715 -1.055108
v -0.1106138 0.276749 -1.159348
v -0.0772318 0.2012631 -1.241328
v -0.04171361 0.349122 -1.055421
v -0.04534337 0.3668954 -0.9326841
v -0.03549718 0.1059659 -1.294117
v -0.02081579 0.216141 -1.24086
v -0.03328161 0.2971414 -1.158705
v 0.03916773 0.3492978 -1.060115
v 0.04489222 0.2998489 -1.15802
v 0.1220364 0.2787973 -1.157308
v 0.03621729 0.2181186 -1.240364
v 0.09249719 0.2027634 -1.239846
v 0.02481043 0.1149246 -1.293604
v 0.1426675 0.1758249 -1.239362
v 0.08139734 0.09243989 -1.293071
v 0.1588552 0.2897556 -0.93077
v 0.147955 0.300693 -0.4091685
v 0.1446346 0.3080319 -0.4092087
v 0.1544448 0.297012 -0.93082
v 0.1494247 0.3341507 -0.9309232
v 0.1424526 0.3334311 -0.4092692
v 0.1365719 0.3424069 -0.4093345
v 0.1423153 0.3420224 -0.9309995
v 0.1233706 0.3472726 -0.4094584
v 0.1292928 0.3462717 -0.9311191
v 0.03642908 0.3688119 -0.4102543
v 0.0414828 0.367435 -0.931923
v -0.04534337 0.3668954 -0.9326841
v -0.0499143 0.3677304 -0.4110093
v -0.1452012 0.3429776 -0.4118052
v -0.1406315 0.342247 -0.9334794
v -0.2223676 0.2907828 -0.9341135
v -0.2269382 0.291622 -0.4124381
v -0.2968638 0.2221817 -0.4129398
v -0.2922831 0.2213278 -0.9346146
v -0.3376178 0.1363516 -0.9348734
v -0.3421906 0.1371915 -0.4132004
v -0.3680838 0.04212068 -0.4132731
v -0.3635138 0.04128022 -0.9349485
v -0.3396713 -0.1494559 -0.4127164
v -0.335098 -0.1502969 -0.93439
v -0.2841105 -0.2320438 -0.9338126
v -0.288682 -0.2312039 -0.4121372
v -0.219293 -0.3011624 -0.4114176
v -0.2147208 -0.3020035 -0.9330918
v -0.1296897 -0.3473032 -0.9322727
v -0.1342606 -0.3464627 -0.4105979
v -0.03918981 -0.3723477 -0.4097251
v -0.03461706 -0.3731875 -0.9313987
v 0.06167201 -0.3698965 -0.9305601
v 0.05710047 -0.3690579 -0.4088859
v 0.1400027 -0.3430112 -0.4082004
v 0.1448666 -0.3435184 -0.9298728
v 0.2226052 -0.3007034 -0.9292606
v 0.2171987 -0.3002188 -0.4075925
v 0.2287136 -0.2919522 -0.4075052
v 0.2340688 -0.2927444 -0.9291727
v 0.2320931 -0.2821872 -0.4074912
v 0.2271719 -0.2560965 -0.4075773
v 0.2326064 -0.250148 -0.9292545
v 0.238309 -0.2831619 -0.929152
v 0.2340688 -0.2927444 -0.9291727
v 0.2287136 -0.2919522 -0.4075052
v 0.328392 -0.1287564 -1.041175
v 0.3515286 -0.04320464 -1.04126
v 0.2531759 0.2026151 -0.2911668
v 0.1921139 0.2543796 -0.2880985
v 0.2053817 0.2428232 -0.2988364
v 0.2542147 0.2029184 -0.301832
v 0.3009957 0.1310208 -0.2921287
v 0.3017269 0.1312668 -0.3023276
v 0.3222494 0.04839204 -0.2916202
v 0.1510397 0.2826047 -0.2940421
v 0.1448727 0.2884152 -0.2840171
v 0.1553347 0.2934628 -0.4090916
v 0.147955 0.300693 -0.4091685
v 0.2716555 0.2107809 -0.4079386
v 0.1661105 0.2829159 -0.9306955
v 0.1588552 0.2897556 -0.93077
v 0.215541 0.2538077 -0.4084995
v 0.1649532 0.2778177 -1.005943
v 0.1583267 0.2843027 -1.014733
v 0.2266934 0.2486038 -0.930109
v 0.2164242 0.2365817 -1.012193
v 0.2036874 0.2498581 -1.019194
v 0.2627676 0.1955667 -1.016235
v 0.2643942 0.1968869 -1.024477
v 0.2762277 0.209946 -0.9296134
v 0.3086831 0.1249051 -1.014154
v 0.3097531 0.125676 -1.022901
v 0.3209738 0.1359988 -0.407385
v 0.3255026 0.135098 -0.9290617
v 0.3290994 0.04406098 -1.009735
v 0.3293185 0.04403535 -1.019258
v 0.3460324 0.04757844 -0.92874
v 0.3414584 0.04842011 -0.4070652
v 0.331163 -0.0405844 -1.009374
v 0.3311544 -0.04062896 -1.019068
v 0.3486941 -0.04302886 -0.9285703
v 0.3095919 -0.1209878 -1.009662
v 0.3098214 -0.1210409 -1.019188
v 0.3441458 -0.0422177 -0.4068961
v 0.3224557 0.04828462 -0.3011173
v 0.324664 -0.03888885 -0.292316
v 0.3248703 -0.03902739 -0.3016819
v 0.3024612 -0.1216849 -0.2919559
v 0.3253048 -0.1279397 -0.9286386
v 0.2752987 -0.1739151 -1.007882
v 0.2660317 -0.1898563 -1.016622
v 0.3027071 -0.1216861 -0.3014511
v 0.2579537 -0.1908804 -0.2891117
v 0.3207315 -0.1270993 -0.4069633
v 0.2671127 -0.1753714 -0.2994437
v 0.22113 -0.2380362 -0.2861124
v 0.2873031 -0.1813516 -0.9288846
v 0.235397 -0.2283859 -1.005672
v 0.2309982 -0.2364487 -1.014604
v 0.2796475 -0.184089 -0.4072337
v 0.2394784 -0.2331937 -0.9292197
v 0.2344619 -0.2419754 -0.9292502
v 0.233243 -0.2389224 -0.4075516
v 0.2283102 -0.2479337 -0.4075809
v 0.2254879 -0.2304434 -0.2960172
vt 0.1473389 0.9785156
vt 0.1470947 0.9780273
vt 0.1469727 0.9780273
vt 0.1472168 0.9790039
vt 0.1485596 0.9785156
vt 0.1485596 0.9785156
vt 0.1557617 0.9765625
vt 0.1558838 0.9765625
vt 0.1575928 0.9760742
vt 0.1577148 0.9760742
vt 0.1518555 0.9750977
vt 0.1523438 0.9746094
vt 0.1523438 0.9746094
vt 0.1518555 0.9750977
vt 0.1514893 0.9755859
vt 0.1523438 0.9746094
vt 0.15271 0.9750977
vt 0.15271 0.9750977
vt 0.15271 0.9750977
vt 0.1523438 0.9746094
vt 0.152832 0.9750977
vt 0.1522217 0.9746094
vt 0.1518555 0.9750977
vt 0.1514893 0.9755859
vt 0.151001 0.9755859
vt 0.1518555 0.9750977
vt 0.1514893 0.9755859
vt 0.151001 0.9755859
vt 0.1503906 0.9760742
vt 0.1524658 0.9741211
vt 0.1529541 0.9746094
vt 0.1530762 0.9736328
vt 0.1503906 0.9760742
vt 0.1499023 0.9755859
vt 0.1499023 0.9755859
vt 0.149292 0.9755859
vt 0.1503906 0.9760742
vt 0.151001 0.9755859
vt 0.1514893 0.9755859
vt 0.1518555 0.9750977
vt 0.151001 0.9755859
vt 0.1514893 0.9755859
vt 0.149292 0.9755859
vt 0.1489258 0.9750977
vt 0.1489258 0.9750977
vt 0.1485596 0.9746094
vt 0.149292 0.9755859
vt 0.1499023 0.9755859
vt 0.1503906 0.9760742
vt 0.1514893 0.9750977
vt 0.1485596 0.9746094
vt 0.1480713 0.9750977
vt 0.1480713 0.9750977
vt 0.1480713 0.9750977
vt 0.1485596 0.9746094
vt 0.151001 0.9755859
vt 0.1499023 0.9755859
vt 0.1489258 0.9750977
vt 0.1485596 0.9746094
vt 0.1480713 0.9750977
vt 0.1485596 0.9746094
vt 0.1480713 0.9750977
vt 0.1503906 0.9760742
vt 0.1508789 0.9750977
vt 0.149292 0.9755859
vt 0.1489258 0.9750977
vt 0.1499023 0.9755859
vt 0.1489258 0.9750977
vt 0.1494141 0.9755859
vt 0.1500244 0.9750977
vt 0.149292 0.9750977
vt 0.1503906 0.9755859
vt 0.1496582 0.9750977
vt 0.1501465 0.9746094
vt 0.1506348 0.9746094
vt 0.1503906 0.9746094
vt 0.1512451 0.9750977
vt 0.1496582 0.9746094
vt 0.1499023 0.9746094
vt 0.1502686 0.9741211
vt 0.1490479 0.9746094
vt 0.151001 0.9746094
vt 0.151123 0.9746094
vt 0.1505127 0.9741211
vt 0.1503906 0.9741211
vt 0.1501465 0.9741211
vt 0.1500244 0.9741211
vt 0.1506348 0.9741211
vt 0.1495361 0.9741211
vt 0.1503906 0.9736328
vt 0.1499023 0.9741211
vt 0.1508789 0.9741211
vt 0.1499023 0.9736328
vt 0.1507568 0.9741211
vt 0.1499023 0.9741211
vt 0.1494141 0.9741211
vt 0.1513672 0.9741211
vt 0.149292 0.9736328
vt 0.1489258 0.9741211
vt 0.1518555 0.9746094
vt 0.1519775 0.9741211
vt 0.1514893 0.9741211
vt 0.1525879 0.9736328
vt 0.1488037 0.9736328
vt 0.1484375 0.9741211
vt 0.1478271 0.9746094
vt 0.1477051 0.9736328
vt 0.1483154 0.9736328
vt 0.1484375 0.9731445
vt 0.1479492 0.9731445
vt 0.1480713 0.9726563
vt 0.1489258 0.9731445
vt 0.1494141 0.9736328
vt 0.1485596 0.9726563
vt 0.1499023 0.9736328
vt 0.1490479 0.9731445
vt 0.1489258 0.972168
vt 0.1485596 0.972168
vt 0.1490479 0.9711914
vt 0.1499023 0.9736328
vt 0.1495361 0.9731445
vt 0.149292 0.9726563
vt 0.149292 0.9716797
vt 0.1496582 0.9731445
vt 0.1500244 0.9736328
vt 0.1496582 0.972168
vt 0.1499023 0.9716797
vt 0.1497803 0.9711914
vt 0.151123 0.9711914
vt 0.1501465 0.9731445
vt 0.1499023 0.9726563
vt 0.1500244 0.972168
vt 0.1501465 0.9726563
vt 0.1502686 0.9731445
vt 0.1503906 0.9716797
vt 0.1503906 0.9731445
vt 0.1503906 0.972168
vt 0.1503906 0.9726563
vt 0.1508789 0.972168
vt 0.1506348 0.9726563
vt 0.1505127 0.9731445
vt 0.1506348 0.9731445
vt 0.151001 0.9726563
vt 0.151001 0.9716797
vt 0.1512451 0.972168
vt 0.151123 0.9711914
vt 0.1517334 0.9711914
vt 0.1514893 0.9716797
vt 0.1518555 0.972168
vt 0.1522217 0.972168
vt 0.15271 0.9726563
vt 0.1514893 0.9726563
vt 0.151123 0.9731445
vt 0.1507568 0.9736328
vt 0.1523438 0.9726563
vt 0.1508789 0.9736328
vt 0.1518555 0.9731445
vt 0.1513672 0.9731445
vt 0.1524658 0.9731445
vt 0.1529541 0.9731445
vt 0.1519775 0.9731445
vt 0.151001 0.9736328
vt 0.1514893 0.9736328
vt 0.1520996 0.9736328
vt 0.1508789 0.9736328
vt 0.1514893 0.9736328
vt 0.1508789 0.9741211
vt 0.1485596 0.9609375
vt 0.1480713 0.9604492
vt 0.1480713 0.9604492
vt 0.1485596 0.9609375
vt 0.1489258 0.9604492
vt 0.1485596 0.9609375
vt 0.1480713 0.9604492
vt 0.1480713 0.9604492
vt 0.1489258 0.9604492
vt 0.149292 0.9599609
vt 0.1485596 0.9609375
vt 0.1480713 0.9604492
vt 0.149292 0.9599609
vt 0.1499023 0.9599609
vt 0.1489258 0.9604492
vt 0.1485596 0.9609375
vt 0.1478271 0.9614258
vt 0.1499023 0.9599609
vt 0.1503906 0.9599609
vt 0.149292 0.9599609
vt 0.1489258 0.9604492
vt 0.1503906 0.9599609
vt 0.151001 0.9599609
vt 0.151001 0.9599609
vt 0.1514893 0.9599609
vt 0.1503906 0.9599609
vt 0.1499023 0.9599609
vt 0.149292 0.9599609
vt 0.1489258 0.9604492
vt 0.1499023 0.9599609
vt 0.1514893 0.9599609
vt 0.1518555 0.9604492
vt 0.1518555 0.9604492
vt 0.1514893 0.9599609
vt 0.151001 0.9599609
vt 0.1518555 0.9604492
vt 0.1503906 0.9599609
vt 0.151001 0.9599609
vt 0.1503906 0.9599609
vt 0.1494141 0.9599609
vt 0.1499023 0.9599609
vt 0.1523438 0.9609375
vt 0.1523438 0.9609375
vt 0.1496582 0.9604492
vt 0.1503906 0.9599609
vt 0.151001 0.9599609
vt 0.151001 0.9599609
vt 0.1514893 0.9599609
vt 0.1514893 0.9599609
vt 0.1503906 0.9604492
vt 0.15271 0.9604492
vt 0.15271 0.9604492
vt 0.1518555 0.9604492
vt 0.1523438 0.9609375
vt 0.15271 0.9604492
vt 0.1522217 0.9609375
vt 0.152832 0.9604492
vt 0.1529541 0.9614258
vt 0.1518555 0.9604492
vt 0.1514893 0.9599609
vt 0.1512451 0.9604492
vt 0.1508789 0.9604492
vt 0.1524658 0.9614258
vt 0.1518555 0.9609375
vt 0.1514893 0.9609375
vt 0.151001 0.9609375
vt 0.1525879 0.9619141
vt 0.1530762 0.9619141
vt 0.1529541 0.9624023
vt 0.1503906 0.9609375
vt 0.1506348 0.9609375
vt 0.1506348 0.9614258
vt 0.1503906 0.9614258
vt 0.151123 0.9609375
vt 0.1500244 0.9604492
vt 0.1505127 0.9614258
vt 0.1501465 0.9609375
vt 0.1499023 0.9609375
vt 0.1501465 0.9614258
vt 0.1502686 0.9614258
vt 0.149292 0.9609375
vt 0.1503906 0.9619141
vt 0.1508789 0.9614258
vt 0.1499023 0.9614258
vt 0.151001 0.9619141
vt 0.1499023 0.9619141
vt 0.1508789 0.9619141
vt 0.1499023 0.9619141
vt 0.1506348 0.9624023
vt 0.1501465 0.9624023
vt 0.1503906 0.9624023
vt 0.1507568 0.9614258
vt 0.1513672 0.9614258
vt 0.1519775 0.9614258
vt 0.1514893 0.9614258
vt 0.1520996 0.9619141
vt 0.1508789 0.9619141
vt 0.1514893 0.9619141
vt 0.1524658 0.9624023
vt 0.1519775 0.9624023
vt 0.1514893 0.9619141
vt 0.1523438 0.9628906
vt 0.15271 0.9633789
vt 0.1522217 0.9638672
vt 0.1508789 0.9619141
vt 0.1513672 0.9624023
vt 0.1518555 0.9628906
vt 0.1518555 0.9633789
vt 0.1514893 0.9628906
vt 0.151123 0.9624023
vt 0.1514893 0.9638672
vt 0.1517334 0.9643555
vt 0.151123 0.9643555
vt 0.1507568 0.9624023
vt 0.151001 0.9628906
vt 0.1512451 0.9633789
vt 0.151001 0.9638672
vt 0.1508789 0.9633789
vt 0.1506348 0.9628906
vt 0.1503906 0.9638672
vt 0.1503906 0.9643555
vt 0.1505127 0.9624023
vt 0.1503906 0.9628906
vt 0.1503906 0.9633789
vt 0.1501465 0.9628906
vt 0.1500244 0.9633789
vt 0.1499023 0.9638672
vt 0.1502686 0.9624023
vt 0.1499023 0.9628906
vt 0.1497803 0.9643555
vt 0.1496582 0.9633789
vt 0.149292 0.9638672
vt 0.1490479 0.9643555
vt 0.1485596 0.9638672
vt 0.1489258 0.9633789
vt 0.149292 0.9628906
vt 0.1496582 0.9624023
vt 0.1485596 0.9628906
vt 0.1480713 0.9633789
vt 0.1479492 0.9624023
vt 0.1500244 0.9624023
vt 0.1495361 0.9624023
vt 0.1490479 0.9628906
vt 0.1484375 0.9624023
vt 0.1489258 0.9624023
vt 0.1494141 0.9619141
vt 0.1483154 0.9619141
vt 0.1477051 0.9619141
vt 0.1499023 0.9619141
vt 0.149292 0.9619141
vt 0.1488037 0.9619141
vt 0.1484375 0.9614258
vt 0.1489258 0.9614258
vt 0.1490479 0.9609375
vt 0.1494141 0.9614258
vt 0.1495361 0.9614258
vt 0.1499023 0.9619141
vt 0.1496582 0.9609375
vt 0.1500244 0.9614258
vt 0.1496582 0.9643555
vt 0.1496582 0.9711914
vt 0.1496582 0.9711914
vt 0.1496582 0.9643555
vt 0.1496582 0.9643555
vt 0.1496582 0.9711914
vt 0.1496582 0.9711914
vt 0.1496582 0.9643555
vt 0.1497803 0.9711914
vt 0.1497803 0.9643555
vt 0.1499023 0.9711914
vt 0.1499023 0.9643555
vt 0.1500244 0.9643555
vt 0.1500244 0.9711914
vt 0.1502686 0.9711914
vt 0.1502686 0.9643555
vt 0.1503906 0.9643555
vt 0.1503906 0.9711914
vt 0.1506348 0.9711914
vt 0.1506348 0.9643555
vt 0.1507568 0.9643555
vt 0.1507568 0.9711914
vt 0.151001 0.9711914
vt 0.151001 0.9643555
vt 0.1513672 0.9711914
vt 0.1513672 0.9643555
vt 0.1514893 0.9643555
vt 0.1514893 0.9711914
vt 0.1517334 0.9711914
vt 0.1517334 0.9643555
vt 0.1518555 0.9643555
vt 0.1518555 0.9711914
vt 0.1520996 0.9711914
vt 0.1520996 0.9643555
vt 0.1522217 0.9643555
vt 0.1522217 0.9711914
vt 0.1523438 0.9711914
vt 0.1523438 0.9643555
vt 0.1525879 0.9643555
vt 0.1525879 0.9711914
vt 0.1525879 0.9711914
vt 0.1525879 0.9643555
vt 0.1496582 0.9711914
vt 0.1496582 0.9711914
vt 0.1496582 0.9643555
vt 0.1496582 0.9643555
vt 0.1496582 0.9643555
vt 0.1496582 0.9711914
vt 0.1514893 0.9599609
vt 0.151001 0.9599609
vt 0.2111816 0.9750977
vt 0.2115479 0.9765625
vt 0.2122803 0.9760742
vt 0.2120361 0.9750977
vt 0.2109375 0.9731445
vt 0.2119141 0.9731445
vt 0.2108154 0.9711914
vt 0.2125244 0.9770508
vt 0.2121582 0.9775391
vt 0.2143555 0.9775391
vt 0.2142334 0.9780273
vt 0.2141113 0.9746094
vt 0.2213135 0.9770508
vt 0.2214355 0.9780273
vt 0.2142334 0.9760742
vt 0.2225342 0.9770508
vt 0.2230225 0.9775391
vt 0.2211914 0.9760742
vt 0.2227783 0.9760742
vt 0.2236328 0.9765625
vt 0.2231445 0.9750977
vt 0.223999 0.9750977
vt 0.2213135 0.9746094
vt 0.2232666 0.9731445
vt 0.2242432 0.9731445
vt 0.2141113 0.9731445
vt 0.2213135 0.9731445
vt 0.2232666 0.9711914
vt 0.2243652 0.9711914
vt 0.2213135 0.9711914
vt 0.2141113 0.9711914
vt 0.2232666 0.9692383
vt 0.2242432 0.96875
vt 0.2213135 0.9692383
vt 0.2230225 0.9672852
vt 0.223999 0.9672852
vt 0.2141113 0.9692383
vt 0.2119141 0.9711914
vt 0.2109375 0.96875
vt 0.2119141 0.96875
vt 0.2111816 0.9667969
vt 0.2213135 0.9672852
vt 0.2227783 0.9658203
vt 0.2236328 0.9658203
vt 0.2121582 0.9672852
vt 0.2115479 0.965332
vt 0.2142334 0.9672852
vt 0.2124023 0.9658203
vt 0.2121582 0.9643555
vt 0.2213135 0.9658203
vt 0.2225342 0.9648438
vt 0.2230225 0.9648438
vt 0.2142334 0.9658203
vt 0.2213135 0.9648438
vt 0.2214355 0.9643555
vt 0.2143555 0.9648438
vt 0.2142334 0.9638672
vt 0.2126465 0.9648438
vn 0.9082031 -0.394043 0.1413574
vn 0.7758789 -0.5292969 0.3435059
vn 0.6625977 -0.4528809 0.5966797
vn 0.9755859 -0.1238403 0.1824951
vn 0.9365234 -0.3503418 -0.002639771
vn 0.9956055 0.09246826 0.001876831
vn 0.9414063 -0.3374023 0.0206604
vn 0.9951172 0.09887695 0.01895142
vn 0.9326172 -0.3432617 -0.111084
vn 0.980957 -0.07659912 -0.1772461
vn 0.7612305 -0.5576172 -0.3312988
vn 0.9326172 -0.3432617 -0.111084
vn 0.980957 -0.07659912 -0.1772461
vn 0.6391602 -0.4711914 -0.6079102
vn 0.8823242 -0.3945313 -0.2570801
vn 0.9604492 -0.2597656 -0.09973145
vn 0.9951172 0.09887695 0.01895142
vn 0.9995117 0.02630615 0.0236969
vn 0.7583008 -0.6508789 0.03842163
vn 0.6865234 -0.7231445 0.07635498
vn 0.4987793 -0.8662109 0.03616333
vn 0.5258789 -0.7973633 0.2961426
vn 0.6762695 -0.5029297 -0.5380859
vn 0.7128906 -0.3310547 -0.6181641
vn 0.9638672 -0.111145 -0.2424316
vn 0.7602539 -0.6196289 -0.1959229
vn 0.7412109 -0.3498535 -0.5727539
vn 0.7700195 -0.08868408 -0.6318359
vn 0.9643555 0.1362305 -0.2269287
vn 0.385498 -0.887207 0.2541504
vn 0.3977051 -0.9169922 0.03295898
vn 0.1623535 -0.9863281 0.02854919
vn 0.765625 0.1063232 -0.6342773
vn 0.8959961 0.4055176 -0.1806641
vn 0.6962891 0.310791 -0.6469727
vn 0.7333984 0.65625 -0.1767578
vn 0.7915039 0.1057129 -0.6020508
vn 0.7978516 -0.09429932 -0.5957031
vn 0.8828125 -0.4147949 -0.2199707
vn 0.7280273 -0.5693359 0.3823242
vn 0.9829102 -0.1153564 -0.1418457
vn 0.8452148 -0.3535156 0.401123
vn 0.5654297 0.5214844 -0.6391602
vn 0.5776367 0.7636719 -0.2888184
vn 0.4580078 0.6123047 -0.6445313
vn 0.8007813 0.5898438 -0.1049805
vn 0.5864258 0.5380859 -0.6054688
vn 0.7211914 0.3146973 -0.6166992
vn 0.9804688 0.128418 -0.147583
vn 0.6513672 -0.5009766 0.5698242
vn 0.9199219 0.3400879 -0.1956787
vn 0.8012695 0.5981445 0.0171051
vn 0.9814453 0.1904297 0.01963806
vn 0.9658203 0.2578125 0.02435303
vn 0.8598633 0.5004883 -0.1028442
vn 0.8974609 -0.1062622 0.4279785
vn 0.9077148 0.3896484 -0.1568604
vn 0.4875488 0.6533203 -0.5791016
vn 0.4658203 0.8813477 0.07727051
vn 0.5527344 0.8325195 0.03549194
vn 0.2927246 0.9111328 0.2902832
vn 0.2521973 0.9672852 0.03149414
vn 0.8969727 0.117981 0.4260254
vn 0.8071289 -0.09484863 0.5825195
vn 0.7182617 0.6538086 -0.2373047
vn 0.5517578 0.8076172 -0.2076416
vn 0.8295898 0.3591309 0.4279785
vn 0.5351563 0.7563477 0.3764648
vn 0.7011719 0.5913086 0.3977051
vn 0.7456055 0.3234863 0.5830078
vn 0.4816895 0.6689453 0.565918
vn 0.8061523 0.1064453 0.5825195
vn 0.6279297 0.5224609 0.5771484
vn 0.5668945 0.2479248 0.7856445
vn 0.6142578 -0.07208252 0.7856445
vn 0.612793 0.08184814 0.7861328
vn 0.7543945 -0.3083496 0.5791016
vn 0.3674316 0.5024414 0.7827148
vn 0.4777832 0.3952637 0.784668
vn 0.3134766 0.1397705 0.9394531
vn 0.300293 0.7709961 0.5615234
vn 0.5737305 -0.230957 0.7856445
vn 0.4943848 -0.3728027 0.7851563
vn 0.3393555 -0.03948975 0.9399414
vn 0.3344727 0.04696655 0.9414063
vn 0.260498 0.2189941 0.9404297
vn 0.2011719 0.2819824 0.9379883
vn 0.3132324 -0.1269531 0.940918
vn 0.223999 0.5825195 0.78125
vn -0.008758545 0.001606941 1
vn 0.1196899 0.3232422 0.9384766
vn 0.2034912 -0.2731934 0.9399414
vn -0.05889893 0.3439941 0.9370117
vn 0.2724609 -0.2078857 0.9394531
vn 0.03286743 0.3491211 0.9365234
vn 0.06652832 0.6225586 0.7797852
vn 0.3740234 -0.4953613 0.7841797
vn -0.09869385 0.6196289 0.7788086
vn 0.09393311 0.8183594 0.5668945
vn 0.4990234 -0.65625 0.565918
vn 0.3222656 -0.7548828 0.5712891
vn 0.2406006 -0.5742188 0.7827148
vn 0.15271 -0.9555664 0.2526855
vn -0.1291504 0.8144531 0.565918
vn 0.1168213 0.9614258 0.2491455
vn 0.1206055 0.9921875 0.02766418
vn -0.1390381 0.9902344 0.02282715
vn -0.1408691 0.9584961 0.2479248
vn -0.3842773 0.8896484 0.2474365
vn -0.3950195 0.918457 0.02081299
vn -0.6230469 0.7817383 0.01896667
vn -0.3310547 0.7587891 0.5605469
vn -0.2539063 0.5756836 0.7773438
vn -0.6044922 0.7573242 0.2471924
vn -0.1463623 0.3232422 0.9350586
vn -0.5175781 0.6474609 0.5595703
vn -0.7773438 0.5791016 0.2453613
vn -0.8012695 0.5981445 0.01779175
vn -0.9296875 0.3676758 0.01695251
vn -0.2232666 0.2727051 0.9360352
vn -0.3955078 0.4909668 0.7763672
vn -0.6660156 0.4941406 0.5585938
vn -0.9018555 0.3562012 0.2443848
vn -0.5083008 0.3754883 0.7753906
vn -0.2888184 0.2109375 0.934082
vn -0.7719727 0.3039551 0.5581055
vn -0.9628906 0.1138306 0.2442627
vn -0.9931641 0.1172485 0.01687622
vn -0.9892578 -0.1466064 0.01725769
vn -0.3300781 0.1289063 0.9350586
vn -0.5883789 0.230957 0.7749023
vn -0.8242188 0.09765625 0.5581055
vn -0.6279297 0.074646 0.7744141
vn -0.355957 0.04260254 0.9335938
vn -0.9589844 -0.1414795 0.244751
vn -0.3505859 -0.04910278 0.9350586
vn -0.8208008 -0.1200562 0.5581055
vn -0.625 -0.0904541 0.7753906
vn -0.7626953 -0.3249512 0.559082
vn -0.581543 -0.2458496 0.7753906
vn -0.329834 -0.1367188 0.934082
vn -0.279541 -0.213501 0.9360352
vn -0.496582 -0.3874512 0.7768555
vn -0.8911133 -0.3818359 0.2457275
vn -0.6513672 -0.5117188 0.5605469
vn -0.918457 -0.3947754 0.01835632
vn -0.7832031 -0.621582 0.01983643
vn -0.7602539 -0.6010742 0.2473145
vn -0.5810547 -0.7749023 0.2491455
vn -0.5981445 -0.8012695 0.02182007
vn -0.3679199 -0.9296875 0.02384949
vn -0.498291 -0.6601563 0.5620117
vn -0.3808594 -0.5 0.777832
vn -0.2176514 -0.2790527 0.9350586
vn -0.3579102 -0.8989258 0.2519531
vn -0.1356201 -0.3203125 0.9375
vn -0.3078613 -0.7666016 0.5634766
vn -0.2365723 -0.5800781 0.7792969
vn -0.1154785 -0.9609375 0.2521973
vn -0.1174927 -0.9926758 0.02604675
vn -0.1018677 -0.8188477 0.5649414
vn 0.04547119 -0.3413086 0.9389648
vn -0.0802002 -0.6201172 0.7807617
vn 0.1206665 -0.8125 0.5698242
vn -0.04928589 -0.3461914 0.9370117
vn 0.09136963 -0.6166992 0.7817383
vn 0.1300049 -0.3200684 0.9384766
vn 0.7480469 0.640625 0.1727295
vn 0.7890625 0.6142578 -0.003480911
vn 0.9790039 0.2033691 0.00396347
vn 0.8974609 0.4089355 0.1656494
vn 0.5756836 0.6699219 0.4692383
vn 0.8208008 0.5644531 0.08660889
vn 0.9643555 0.2651367 -0.001176834
vn 0.5444336 0.8383789 -0.02565002
vn 0.503418 0.6098633 0.6118164
vn 0.6494141 0.5405273 0.5351563
vn 0.4470215 0.890625 -0.08135986
vn 0.2509766 0.9672852 -0.03067017
vn 0.5317383 0.472168 0.703125
vn 0.8139648 0.3500977 0.4631348
vn 0.5302734 0.6831055 0.5024414
vn 0.2978516 0.9018555 -0.3129883
vn 0.1203003 0.9921875 -0.02987671
vn 0.6269531 0.2697754 0.730957
vn 0.9370117 0.1242676 0.3266602
vn 0.5913086 0.546875 0.5922852
vn 0.5620117 0.8032227 0.1960449
vn 0.7138672 0.09332275 0.6938477
vn 0.9521484 -0.1119385 0.2836914
vn 0.7250977 -0.08569336 0.6835938
vn 0.8759766 -0.3764648 0.3012695
vn 0.7558594 0.09924316 0.6474609
vn 0.703125 0.2990723 0.6455078
vn 0.7128906 0.6513672 0.2602539
vn 0.543457 0.753418 -0.3701172
vn 0.9008789 0.3886719 0.1923828
vn 0.6884766 -0.3120117 0.6542969
vn 0.7758789 -0.5292969 0.3435059
vn 0.6625977 -0.4528809 0.5966797
vn 0.7192383 -0.340332 0.6054688
vn 0.7583008 -0.08874512 0.6459961
vn 0.6918945 -0.4946289 0.5258789
vn 0.9736328 0.1279297 0.1899414
vn 0.9750977 -0.114624 0.1887207
vn 0.9736328 0.1279297 0.1899414
vn 0.7094727 0.5898438 -0.3852539
vn 0.8374023 0.3583984 -0.4130859
vn 0.9462891 -0.3041992 0.1082764
vn 0.9755859 -0.1238403 0.1824951
vn 0.6381836 0.5195313 -0.5683594
vn 0.9047852 0.1169434 -0.4089355
vn 0.9750977 -0.114624 0.1887207
vn 0.9057617 -0.107666 -0.4099121
vn 0.8735352 -0.4106445 0.2614746
vn 0.7192383 -0.340332 0.6054688
vn 0.815918 0.1046143 -0.5688477
vn 0.9995117 0.02351379 -0.002574921
vn 0.9956055 0.09246826 0.001876831
vn 0.7636719 -0.6103516 0.2088623
vn 0.6855469 -0.7250977 -0.06951904
vn 0.7558594 -0.6542969 -0.0219574
vn 0.5307617 -0.7895508 -0.309082
vn 0.4985352 -0.8666992 -0.02537537
vn 0.3974609 -0.9174805 -0.02410889
vn 0.7353516 -0.5698242 -0.3664551
vn 0.8530273 -0.3547363 -0.3825684
vn 0.7646484 -0.3098145 -0.5654297
vn 0.8173828 -0.09674072 -0.5678711
vn 0.3845215 -0.8813477 -0.2746582
vn 0.5083008 -0.6582031 -0.5556641
vn 0.6611328 -0.5019531 -0.5576172
vn 0.5874023 -0.2333984 -0.7749023
vn 0.1550293 -0.9477539 -0.2785645
vn 0.1628418 -0.9863281 -0.02366638
vn -0.1170044 -0.9926758 -0.02598572
vn 0.6264648 0.0793457 -0.7753906
vn 0.6279297 -0.07458496 -0.7744141
vn 0.329834 -0.1300049 -0.9350586
vn 0.3508301 0.04397583 -0.9355469
vn 0.5083008 -0.3752441 -0.7753906
vn 0.7553711 0.3215332 -0.5708008
vn 0.355957 -0.04251099 -0.9335938
vn 0.5805664 0.2453613 -0.7763672
vn 0.4914551 0.3928223 -0.7773438
vn 0.2770996 0.2159424 -0.9365234
vn 0.329834 0.1368408 -0.934082
vn 0.4914551 0.6660156 -0.5610352
vn 0.008758545 -0.001608849 -1
vn 0.2199707 -0.2763672 -0.9355469
vn 0.1361084 0.3203125 -0.9375
vn 0.06192017 -0.3442383 -0.9370117
vn -0.04248047 0.3408203 -0.9389648
vn -0.1192017 -0.3234863 -0.9389648
vn -0.2067871 0.2697754 -0.9404297
vn -0.2629395 -0.2165527 -0.9399414
vn -0.3137207 0.1258545 -0.940918
vn -0.3342285 -0.05212402 -0.940918
vn 0.2888184 -0.2109375 -0.934082
vn 0.3876953 -0.4978027 -0.7758789
vn 0.3320313 -0.7568359 -0.5629883
vn 0.2541504 -0.5766602 -0.7763672
vn 0.1306152 -0.8144531 -0.5649414
vn 0.1464844 -0.322998 -0.9350586
vn 0.1050415 -0.6191406 -0.777832
vn -0.1097412 -0.9526367 -0.2832031
vn -0.09197998 -0.8203125 -0.5644531
vn -0.06652832 -0.6225586 -0.7797852
vn -0.3498535 -0.8916016 -0.2871094
vn -0.3674316 -0.9296875 -0.02839661
vn -0.5976563 -0.8012695 -0.03079224
vn -0.03283691 -0.3491211 -0.9365234
vn -0.2229004 -0.5825195 -0.7817383
vn -0.2978516 -0.7685547 -0.5664063
vn -0.5708008 -0.7685547 -0.2888184
vn -0.4885254 -0.6621094 -0.5683594
vn -0.3671875 -0.5024414 -0.7827148
vn -0.7485352 -0.5961914 -0.2902832
vn -0.7827148 -0.621582 -0.03265381
vn -0.9179688 -0.3947754 -0.03424072
vn -0.2011719 -0.2819824 -0.9379883
vn -0.4829102 -0.3898926 -0.7841797
vn -0.6411133 -0.5136719 -0.5698242
vn -0.8779297 -0.3791504 -0.2919922
vn -0.7529297 -0.3266602 -0.5712891
vn -0.5678711 -0.248291 -0.784668
vn -0.9458008 -0.1411133 -0.2929688
vn -0.9887695 -0.1467285 -0.03521729
vn -0.3134766 -0.1397705 -0.9394531
vn -0.6113281 -0.09295654 -0.7856445
vn -0.8110352 -0.1218872 -0.5722656
vn -0.6142578 0.07214355 -0.7856445
vn -0.8144531 0.0958252 -0.5727539
vn -0.9492188 0.1119385 -0.293457
vn -0.3393555 0.0395813 -0.9399414
vn -0.574707 0.2285156 -0.7861328
vn -0.9926758 0.1171875 -0.03573608
vn -0.762207 0.3022461 -0.5722656
vn -0.8891602 0.3520508 -0.2929688
vn -0.9291992 0.3676758 -0.03552246
vn -0.8007813 0.5976563 -0.03482056
vn -0.765625 0.5727539 -0.2927246
vn -0.65625 0.4924316 -0.5717773
vn -0.4943848 0.3728027 -0.7851563
vn -0.59375 0.7495117 -0.2919922
vn -0.6225586 0.7817383 -0.03347778
vn -0.3945313 0.918457 -0.03170776
vn -0.2724609 0.2078857 -0.9394531
vn -0.3818359 0.4885254 -0.784668
vn -0.5078125 0.6455078 -0.5703125
vn -0.3759766 0.8803711 -0.2893066
vn -0.3210449 0.7573242 -0.5688477
vn -0.2402344 0.5732422 -0.7832031
vn -0.1351318 0.9492188 -0.2849121
vn -0.1384277 0.9897461 -0.0296936
vn -0.1300049 0.3200684 -0.9384766
vn -0.08502197 0.6171875 -0.7822266
vn -0.1189575 0.8125 -0.5703125
vn 0.1176147 0.9526367 -0.2800293
vn 0.1037598 0.8164063 -0.5678711
vn 0.3093262 0.769043 -0.5595703
vn 0.0802002 0.6201172 -0.7807617
vn 0.2376709 0.5795898 -0.7792969
vn 0.04928589 0.3461914 -0.9370117
vn 0.3811035 0.5 -0.777832
vn 0.2176514 0.2790527 -0.9350586
vn 0.7890625 0.6142578 -0.003480911
vn 0.8012695 0.5981445 0.0171051
vn 0.9814453 0.1904297 0.01963806
vn 0.9790039 0.2033691 0.00396347
vn 0.9643555 0.2651367 -0.001176834
vn 0.9658203 0.2578125 0.02435303
vn 0.5527344 0.8325195 0.03549194
vn 0.5444336 0.8383789 -0.02565002
vn 0.2521973 0.9672852 0.03149414
vn 0.2509766 0.9672852 -0.03067017
vn 0.1206055 0.9921875 0.02766418
vn 0.1203003 0.9921875 -0.02987671
vn -0.1384277 0.9897461 -0.0296936
vn -0.1390381 0.9902344 0.02282715
vn -0.3950195 0.918457 0.02081299
vn -0.3945313 0.918457 -0.03170776
vn -0.6225586 0.7817383 -0.03347778
vn -0.6230469 0.7817383 0.01896667
vn -0.8012695 0.5981445 0.01779175
vn -0.8007813 0.5976563 -0.03482056
vn -0.9291992 0.3676758 -0.03552246
vn -0.9296875 0.3676758 0.01695251
vn -0.9931641 0.1172485 0.01687622
vn -0.9926758 0.1171875 -0.03573608
vn -0.918457 -0.3947754 0.01835632
vn -0.9179688 -0.3947754 -0.03424072
vn -0.7827148 -0.621582 -0.03265381
vn -0.7832031 -0.621582 0.01983643
vn -0.5981445 -0.8012695 0.02182007
vn -0.5976563 -0.8012695 -0.03079224
vn -0.3674316 -0.9296875 -0.02839661
vn -0.3679199 -0.9296875 0.02384949
vn -0.1174927 -0.9926758 0.02604675
vn -0.1170044 -0.9926758 -0.02598572
vn 0.1628418 -0.9863281 -0.02366638
vn 0.1623535 -0.9863281 0.02854919
vn 0.3977051 -0.9169922 0.03295898
vn 0.3974609 -0.9174805 -0.02410889
vn 0.4985352 -0.8666992 -0.02537537
vn 0.4987793 -0.8662109 0.03616333
vn 0.7583008 -0.6508789 0.03842163
vn 0.7558594 -0.6542969 -0.0219574
vn 0.9995117 0.02630615 0.0236969
vn 0.9951172 0.09887695 0.01895142
vn 0.9956055 0.09246826 0.001876831
vn 0.9995117 0.02351379 -0.002574921
vn 0.7558594 -0.6542969 -0.0219574
vn 0.7583008 -0.6508789 0.03842163
vn 0.7192383 -0.340332 0.6054688
vn 0.7583008 -0.08874512 0.6459961
vn 0.7333984 0.65625 -0.1767578
vn 0.5776367 0.7636719 -0.2888184
vn 0.5947266 0.7949219 0.1192627
vn 0.7373047 0.6572266 0.1549072
vn 0.8959961 0.4055176 -0.1806641
vn 0.9018555 0.3974609 0.1704102
vn 0.9643555 0.1362305 -0.2269287
vn 0.5991211 0.7954102 0.08959961
vn 0.8007813 0.5898438 -0.1049805
vn 0.5541992 0.8320313 0.01837158
vn 0.8012695 0.5981445 0.0171051
vn 0.75 0.6606445 0.03256226
vn 0.5483398 0.8359375 -0.01660156
vn 0.7890625 0.6142578 -0.003480911
vn 0.5712891 0.8203125 0.02380371
vn 0.5849609 0.8066406 -0.08441162
vn 0.7480469 0.640625 0.1727295
vn 0.5703125 0.8212891 -0.02069092
vn 0.5986328 0.7900391 -0.131958
vn 0.5756836 0.6699219 0.4692383
vn 0.7539063 0.6328125 -0.177002
vn 0.6494141 0.5405273 0.5351563
vn 0.7509766 0.659668 -0.0243988
vn 0.9018555 0.3891602 -0.1878662
vn 0.8139648 0.3500977 0.4631348
vn 0.9179688 0.3952637 0.03579712
vn 0.9179688 0.3955078 -0.02339172
vn 0.9736328 0.1281738 -0.1878662
vn 0.9370117 0.1242676 0.3266602
vn 0.9912109 0.1292725 -0.02076721
vn 0.9907227 0.1292725 0.03686523
vn 0.9750977 -0.1149292 -0.1890869
vn 0.9521484 -0.1119385 0.2836914
vn 0.9926758 -0.1173096 -0.01994324
vn 0.9038086 -0.3884277 -0.1787109
vn 0.8759766 -0.3764648 0.3012695
vn 0.9921875 -0.1171265 0.03735352
vn 0.9770508 0.131958 0.1677246
vn 0.9638672 -0.111145 -0.2424316
vn 0.9790039 -0.1138306 0.1680908
vn 0.8823242 -0.3945313 -0.2570801
vn 0.9125977 -0.407959 -0.0186615
vn 0.7958984 -0.590332 -0.1342773
vn 0.7758789 -0.5292969 0.3435059
vn 0.902832 -0.4003906 0.1560059
vn 0.7612305 -0.5576172 -0.3312988
vn 0.9121094 -0.407959 0.03582764
vn 0.7983398 -0.5898438 0.1207275
vn 0.9326172 -0.3432617 -0.111084
vn 0.7836914 -0.6210938 -0.01464844
vn 0.7919922 -0.6044922 -0.08538818
vn 0.9082031 -0.394043 0.1413574
vn 0.784668 -0.6191406 0.02880859
vn 0.769043 -0.6386719 -0.01135254
vn 0.9365234 -0.3503418 -0.002639771
vn 0.7724609 -0.6347656 0.0241394
vn 0.9414063 -0.3374023 0.0206604
vn 0.8007813 -0.5917969 0.08978271
g Seat_07_0
f 3/3/3 2/2/2 1/1/1
f 4/4/4 3/3/3 1/1/1
f 1/1/1 5/5/5 4/4/4
f 5/5/5 6/6/6 4/4/4
f 5/5/5 7/7/7 6/6/6
f 7/7/7 8/8/8 6/6/6
f 7/7/7 9/9/9 8/8/8
f 9/9/9 10/10/10 8/8/8
f 13/13/13 12/12/12 11/11/11
f 14/14/14 13/13/13 11/11/11
f 14/14/14 11/11/11 15/15/15
f 16/16/16 13/13/13 14/14/14
f 17/17/17 13/13/13 16/16/16
f 18/18/18 17/17/17 16/16/16
f 19/19/19 18/18/18 16/16/16
f 20/20/20 19/19/19 16/16/16
f 21/21/21 19/19/19 20/20/20
f 22/22/22 21/21/21 20/20/20
f 16/16/16 23/23/23 20/20/20
f 23/23/23 16/16/16 14/14/14
f 24/24/24 14/14/14 15/15/15
f 15/15/15 25/25/25 24/24/24
f 23/23/23 26/26/26 20/20/20
f 20/20/20 26/26/26 22/22/22
f 23/23/23 14/14/14 27/27/27
f 14/14/14 24/24/24 27/27/27
f 23/23/23 27/27/27 26/26/26
f 25/25/25 28/28/28 24/24/24
f 27/27/27 24/24/24 28/28/28
f 25/25/25 29/29/29 28/28/28
f 21/21/21 22/22/22 30/30/30
f 31/31/31 21/21/21 30/30/30
f 31/31/31 30/30/30 32/32/32
f 29/29/29 33/33/33 28/28/28
f 29/29/29 34/34/34 33/33/33
f 34/34/34 35/35/35 33/33/33
f 34/34/34 36/36/36 35/35/35
f 28/28/28 33/33/33 37/37/37
f 37/37/37 33/33/33 35/35/35
f 38/38/38 27/27/27 28/28/28
f 38/38/38 28/28/28 37/37/37
f 27/27/27 38/38/38 39/39/39
f 27/27/27 39/39/39 26/26/26
f 26/26/26 40/40/40 22/22/22
f 26/26/26 39/39/39 40/40/40
f 38/38/38 41/41/41 39/39/39
f 38/38/38 37/37/37 41/41/41
f 39/39/39 42/42/42 40/40/40
f 39/39/39 41/41/41 42/42/42
f 36/36/36 43/43/43 35/35/35
f 36/36/36 44/44/44 43/43/43
f 44/44/44 45/45/45 43/43/43
f 44/44/44 46/46/46 45/45/45
f 35/35/35 43/43/43 47/47/47
f 47/47/47 43/43/43 45/45/45
f 48/48/48 37/37/37 35/35/35
f 48/48/48 35/35/35 47/47/47
f 37/37/37 49/49/49 41/41/41
f 37/37/37 48/48/48 49/49/49
f 40/40/40 42/42/42 50/50/50
f 40/40/40 50/50/50 22/22/22
f 46/46/46 51/51/51 45/45/45
f 51/51/51 46/46/46 52/52/52
f 53/53/53 51/51/51 52/52/52
f 51/51/51 53/53/53 54/54/54
f 45/45/45 51/51/51 55/55/55
f 55/55/55 51/51/51 54/54/54
f 41/41/41 56/56/56 42/42/42
f 41/41/41 49/49/49 56/56/56
f 48/48/48 57/57/57 49/49/49
f 48/48/48 47/47/47 57/57/57
f 58/58/58 47/47/47 45/45/45
f 58/58/58 45/45/45 55/55/55
f 55/55/55 54/54/54 59/59/59
f 54/54/54 60/60/60 59/59/59
f 59/59/59 60/60/60 61/61/61
f 60/60/60 62/62/62 61/61/61
f 49/49/49 63/63/63 56/56/56
f 49/49/49 57/57/57 63/63/63
f 56/56/56 64/64/64 42/42/42
f 56/56/56 63/63/63 64/64/64
f 47/47/47 58/58/58 65/65/65
f 47/47/47 65/65/65 57/57/57
f 58/58/58 55/55/55 66/66/66
f 55/55/55 59/59/59 66/66/66
f 58/58/58 66/66/66 65/65/65
f 57/57/57 65/65/65 67/67/67
f 57/57/57 67/67/67 63/63/63
f 66/66/66 59/59/59 68/68/68
f 59/59/59 61/61/61 68/68/68
f 65/65/65 66/66/66 69/69/69
f 65/65/65 69/69/69 67/67/67
f 66/66/66 68/68/68 69/69/69
f 67/67/67 70/70/70 63/63/63
f 67/67/67 69/69/69 70/70/70
f 68/68/68 71/71/71 69/69/69
f 68/68/68 61/61/61 71/71/71
f 63/63/63 72/72/72 64/64/64
f 70/70/70 72/72/72 63/63/63
f 69/69/69 73/73/73 70/70/70
f 71/71/71 73/73/73 69/69/69
f 70/70/70 74/74/74 72/72/72
f 70/70/70 73/73/73 74/74/74
f 64/64/64 72/72/72 75/75/75
f 74/74/74 76/76/76 72/72/72
f 72/72/72 76/76/76 75/75/75
f 64/64/64 75/75/75 77/77/77
f 64/64/64 77/77/77 42/42/42
f 42/42/42 77/77/77 50/50/50
f 71/71/71 78/78/78 73/73/73
f 73/73/73 79/79/79 74/74/74
f 78/78/78 79/79/79 73/73/73
f 74/74/74 80/80/80 76/76/76
f 74/74/74 79/79/79 80/80/80
f 71/71/71 81/81/81 78/78/78
f 61/61/61 81/81/81 71/71/71
f 75/75/75 82/82/82 77/77/77
f 50/50/50 77/77/77 83/83/83
f 77/77/77 82/82/82 83/83/83
f 75/75/75 76/76/76 84/84/84
f 75/75/75 84/84/84 82/82/82
f 80/80/80 85/85/85 76/76/76
f 76/76/76 85/85/85 84/84/84
f 79/79/79 86/86/86 80/80/80
f 80/80/80 86/86/86 85/85/85
f 78/78/78 87/87/87 79/79/79
f 87/87/87 86/86/86 79/79/79
f 84/84/84 88/88/88 82/82/82
f 84/84/84 85/85/85 88/88/88
f 78/78/78 89/89/89 87/87/87
f 81/81/81 89/89/89 78/78/78
f 86/86/86 90/90/90 85/85/85
f 85/85/85 90/90/90 88/88/88
f 87/87/87 91/91/91 86/86/86
f 91/91/91 90/90/90 86/86/86
f 89/89/89 91/91/91 87/87/87
f 88/88/88 90/90/90 92/92/92
f 93/93/93 90/90/90 91/91/91
f 82/82/82 88/88/88 94/94/94
f 94/94/94 88/88/88 92/92/92
f 83/83/83 82/82/82 94/94/94
f 95/95/95 91/91/91 89/89/89
f 95/95/95 93/93/93 91/91/91
f 96/96/96 89/89/89 81/81/81
f 96/96/96 95/95/95 89/89/89
f 83/83/83 94/94/94 97/97/97
f 94/94/94 92/92/92 97/97/97
f 98/98/98 93/93/93 95/95/95
f 96/96/96 98/98/98 95/95/95
f 99/99/99 96/96/96 81/81/81
f 99/99/99 81/81/81 61/61/61
f 83/83/83 97/97/97 100/100/100
f 50/50/50 83/83/83 100/100/100
f 50/50/50 100/100/100 22/22/22
f 22/22/22 100/100/100 101/101/101
f 30/30/30 22/22/22 101/101/101
f 100/100/100 97/97/97 102/102/102
f 101/101/101 100/100/100 102/102/102
f 30/30/30 101/101/101 103/103/103
f 30/30/30 103/103/103 32/32/32
f 104/104/104 98/98/98 96/96/96
f 99/99/99 104/104/104 96/96/96
f 105/105/105 99/99/99 61/61/61
f 105/105/105 61/61/61 62/62/62
f 106/106/106 105/105/105 62/62/62
f 106/106/106 107/107/107 105/105/105
f 105/105/105 108/108/108 99/99/99
f 107/107/107 108/108/108 105/105/105
f 108/108/108 104/104/104 99/99/99
f 109/109/109 108/108/108 107/107/107
f 110/110/110 109/109/109 107/107/107
f 110/110/110 111/111/111 109/109/109
f 112/112/112 104/104/104 108/108/108
f 109/109/109 112/112/112 108/108/108
f 113/113/113 98/98/98 104/104/104
f 112/112/112 113/113/113 104/104/104
f 111/111/111 114/114/114 109/109/109
f 109/109/109 114/114/114 112/112/112
f 113/113/113 115/115/115 98/98/98
f 115/115/115 93/93/93 98/98/98
f 112/112/112 116/116/116 113/113/113
f 114/114/114 116/116/116 112/112/112
f 117/117/117 114/114/114 111/111/111
f 118/118/118 117/117/117 111/111/111
f 118/118/118 119/119/119 117/117/117
f 115/115/115 120/120/120 93/93/93
f 120/120/120 90/90/90 93/93/93
f 113/113/113 121/121/121 115/115/115
f 116/116/116 121/121/121 113/113/113
f 121/121/121 120/120/120 115/115/115
f 122/122/122 116/116/116 114/114/114
f 117/117/117 122/122/122 114/114/114
f 119/119/119 123/123/123 117/117/117
f 117/117/117 123/123/123 122/122/122
f 124/124/124 121/121/121 116/116/116
f 122/122/122 124/124/124 116/116/116
f 125/125/125 120/120/120 121/121/121
f 124/124/124 125/125/125 121/121/121
f 122/122/122 126/126/126 124/124/124
f 123/123/123 126/126/126 122/122/122
f 127/127/127 123/123/123 119/119/119
f 128/128/128 127/127/127 119/119/119
f 128/128/128 129/129/129 127/127/127
f 125/125/125 130/130/130 120/120/120
f 130/130/130 90/90/90 120/120/120
f 124/124/124 131/131/131 125/125/125
f 126/126/126 131/131/131 124/124/124
f 131/131/131 130/130/130 125/125/125
f 132/132/132 126/126/126 123/123/123
f 127/127/127 132/132/132 123/123/123
f 133/133/133 131/131/131 126/126/126
f 132/132/132 133/133/133 126/126/126
f 134/134/134 130/130/130 131/131/131
f 133/133/133 134/134/134 131/131/131
f 127/127/127 135/135/135 132/132/132
f 129/129/129 135/135/135 127/127/127
f 134/134/134 136/136/136 130/130/130
f 136/136/136 90/90/90 130/130/130
f 132/132/132 137/137/137 133/133/133
f 135/135/135 137/137/137 132/132/132
f 133/133/133 138/138/138 134/134/134
f 138/138/138 136/136/136 134/134/134
f 137/137/137 138/138/138 133/133/133
f 139/139/139 137/137/137 135/135/135
f 140/140/140 138/138/138 137/137/137
f 139/139/139 140/140/140 137/137/137
f 141/141/141 136/136/136 138/138/138
f 140/140/140 141/141/141 138/138/138
f 141/141/141 142/142/142 136/136/136
f 142/142/142 90/90/90 136/136/136
f 140/140/140 143/143/143 141/141/141
f 143/143/143 142/142/142 141/141/141
f 144/144/144 135/135/135 129/129/129
f 144/144/144 139/139/139 135/135/135
f 139/139/139 145/145/145 140/140/140
f 145/145/145 143/143/143 140/140/140
f 146/146/146 144/144/144 129/129/129
f 146/146/146 147/147/147 144/144/144
f 144/144/144 148/148/148 139/139/139
f 147/147/147 148/148/148 144/144/144
f 148/148/148 145/145/145 139/139/139
f 149/149/149 148/148/148 147/147/147
f 150/150/150 149/149/149 147/147/147
f 150/150/150 151/151/151 149/149/149
f 152/152/152 145/145/145 148/148/148
f 149/149/149 152/152/152 148/148/148
f 153/153/153 143/143/143 145/145/145
f 152/152/152 153/153/153 145/145/145
f 154/154/154 142/142/142 143/143/143
f 153/153/153 154/154/154 143/143/143
f 151/151/151 155/155/155 149/149/149
f 149/149/149 155/155/155 152/152/152
f 154/154/154 156/156/156 142/142/142
f 156/156/156 90/90/90 142/142/142
f 152/152/152 157/157/157 153/153/153
f 155/155/155 157/157/157 152/152/152
f 153/153/153 158/158/158 154/154/154
f 158/158/158 156/156/156 154/154/154
f 157/157/157 158/158/158 153/153/153
f 159/159/159 155/155/155 151/151/151
f 160/160/160 159/159/159 151/151/151
f 160/160/160 32/32/32 159/159/159
f 32/32/32 103/103/103 159/159/159
f 159/159/159 161/161/161 155/155/155
f 161/161/161 157/157/157 155/155/155
f 159/159/159 103/103/103 161/161/161
f 162/162/162 90/90/90 156/156/156
f 92/92/92 90/90/90 162/162/162
f 163/163/163 158/158/158 157/157/157
f 161/161/161 163/163/163 157/157/157
f 103/103/103 164/164/164 161/161/161
f 161/161/161 164/164/164 163/163/163
f 101/101/101 164/164/164 103/103/103
f 101/101/101 102/102/102 164/164/164
f 165/165/165 156/156/156 158/158/158
f 163/163/163 165/165/165 158/158/158
f 165/165/165 162/162/162 156/156/156
f 164/164/164 166/166/166 163/163/163
f 163/163/163 166/166/166 165/165/165
f 102/102/102 166/166/166 164/164/164
f 166/166/166 162/162/162 165/165/165
f 167/167/167 92/92/92 162/162/162
f 167/167/167 162/162/162 166/166/166
f 102/102/102 167/167/167 166/166/166
f 97/97/97 92/92/92 167/167/167
f 102/102/102 97/97/97 167/167/167
f 170/170/170 169/169/169 168/168/168
f 171/171/171 170/170/170 168/168/168
f 171/171/171 168/168/168 172/172/172
f 170/170/170 171/171/171 173/173/173
f 174/174/174 170/170/170 173/173/173
f 175/175/175 174/174/174 173/173/173
f 176/176/176 171/171/171 172/172/172
f 173/173/173 171/171/171 176/176/176
f 176/176/176 172/172/172 177/177/177
f 178/178/178 175/175/175 173/173/173
f 179/179/179 175/175/175 178/178/178
f 180/180/180 176/176/176 177/177/177
f 180/180/180 177/177/177 181/181/181
f 182/182/182 173/173/173 176/176/176
f 178/178/178 173/173/173 182/182/182
f 183/183/183 179/179/179 178/178/178
f 184/184/184 179/179/179 183/183/183
f 185/185/185 180/180/180 181/181/181
f 185/185/185 181/181/181 186/186/186
f 176/176/176 180/180/180 187/187/187
f 182/182/182 176/176/176 187/187/187
f 187/187/187 180/180/180 185/185/185
f 188/188/188 178/178/178 182/182/182
f 183/183/183 178/178/178 188/188/188
f 188/188/188 182/182/182 187/187/187
f 189/189/189 185/185/185 186/186/186
f 189/189/189 186/186/186 190/190/190
f 191/191/191 189/189/189 190/190/190
f 191/191/191 190/190/190 192/192/192
f 185/185/185 189/189/189 193/193/193
f 193/193/193 189/189/189 191/191/191
f 194/194/194 187/187/187 185/185/185
f 194/194/194 185/185/185 193/193/193
f 195/195/195 188/188/188 187/187/187
f 195/195/195 187/187/187 194/194/194
f 196/196/196 183/183/183 188/188/188
f 196/196/196 188/188/188 195/195/195
f 197/197/197 195/195/195 194/194/194
f 197/197/197 194/194/194 193/193/193
f 198/198/198 191/191/191 192/192/192
f 198/198/198 192/192/192 199/199/199
f 200/200/200 198/198/198 199/199/199
f 191/191/191 198/198/198 201/201/201
f 201/201/201 198/198/198 200/200/200
f 202/202/202 191/191/191 201/201/201
f 202/202/202 193/193/193 191/191/191
f 203/203/203 201/201/201 200/200/200
f 204/204/204 193/193/193 202/202/202
f 205/205/205 204/204/204 202/202/202
f 206/206/206 197/197/197 193/193/193
f 207/207/207 195/195/195 197/197/197
f 207/207/207 196/196/196 195/195/195
f 208/208/208 197/197/197 206/206/206
f 208/208/208 207/207/207 197/197/197
f 203/203/203 200/200/200 209/209/209
f 200/200/200 210/210/210 209/209/209
f 196/196/196 207/207/207 211/211/211
f 211/211/211 207/207/207 208/208/208
f 212/212/212 208/208/208 206/206/206
f 212/212/212 206/206/206 213/213/213
f 214/214/214 212/212/212 213/213/213
f 214/214/214 213/213/213 215/215/215
f 215/215/215 216/216/216 203/203/203
f 208/208/208 212/212/212 217/217/217
f 217/217/217 212/212/212 214/214/214
f 209/209/209 210/210/210 218/218/218
f 210/210/210 219/219/219 218/218/218
f 220/220/220 203/203/203 209/209/209
f 220/220/220 215/215/215 203/203/203
f 209/209/209 218/218/218 221/221/221
f 221/221/221 220/220/220 209/209/209
f 218/218/218 222/222/222 221/221/221
f 221/221/221 222/222/222 223/223/223
f 222/222/222 224/224/224 223/223/223
f 223/223/223 224/224/224 225/225/225
f 226/226/226 220/220/220 221/221/221
f 223/223/223 226/226/226 221/221/221
f 227/227/227 215/215/215 220/220/220
f 226/226/226 227/227/227 220/220/220
f 227/227/227 214/214/214 215/215/215
f 214/214/214 227/227/227 228/228/228
f 228/228/228 227/227/227 226/226/226
f 229/229/229 214/214/214 228/228/228
f 229/229/229 217/217/217 214/214/214
f 230/230/230 223/223/223 225/225/225
f 226/226/226 223/223/223 231/231/231
f 231/231/231 223/223/223 230/230/230
f 232/232/232 228/228/228 226/226/226
f 232/232/232 226/226/226 231/231/231
f 229/229/229 228/228/228 233/233/233
f 233/233/233 228/228/228 232/232/232
f 230/230/230 225/225/225 234/234/234
f 225/225/225 235/235/235 234/234/234
f 234/234/234 235/235/235 236/236/236
f 237/237/237 217/217/217 229/229/229
f 238/238/238 229/229/229 233/233/233
f 238/238/238 237/237/237 229/229/229
f 238/238/238 233/233/233 239/239/239
f 240/240/240 237/237/237 238/238/238
f 241/241/241 233/233/233 232/232/232
f 239/239/239 233/233/233 241/241/241
f 242/242/242 217/217/217 237/237/237
f 242/242/242 208/208/208 217/217/217
f 242/242/242 211/211/211 208/208/208
f 243/243/243 238/238/238 239/239/239
f 243/243/243 240/240/240 238/238/238
f 243/243/243 239/239/239 240/240/240
f 244/244/244 242/242/242 237/237/237
f 244/244/244 237/237/237 240/240/240
f 245/245/245 211/211/211 242/242/242
f 244/244/244 245/245/245 242/242/242
f 246/246/246 245/245/245 244/244/244
f 247/247/247 244/244/244 240/240/240
f 247/247/247 246/246/246 244/244/244
f 247/247/247 240/240/240 246/246/246
f 248/248/248 211/211/211 245/245/245
f 248/248/248 196/196/196 211/211/211
f 239/239/239 249/249/249 240/240/240
f 240/240/240 249/249/249 246/246/246
f 250/250/250 249/249/249 239/239/239
f 246/246/246 249/249/249 251/251/251
f 252/252/252 249/249/249 250/250/250
f 251/251/251 249/249/249 253/253/253
f 254/254/254 249/249/249 252/252/252
f 253/253/253 249/249/249 255/255/255
f 256/256/256 249/249/249 254/254/254
f 255/255/255 249/249/249 257/257/257
f 258/258/258 249/249/249 256/256/256
f 257/257/257 249/249/249 258/258/258
f 259/259/259 250/250/250 239/239/239
f 259/259/259 239/239/239 241/241/241
f 259/259/259 241/241/241 250/250/250
f 241/241/241 260/260/260 250/250/250
f 241/241/241 232/232/232 260/260/260
f 232/232/232 231/231/231 260/260/260
f 260/260/260 231/231/231 261/261/261
f 261/261/261 231/231/231 230/230/230
f 250/250/250 260/260/260 262/262/262
f 262/262/262 260/260/260 261/261/261
f 261/261/261 230/230/230 263/263/263
f 230/230/230 234/234/234 263/263/263
f 264/264/264 250/250/250 262/262/262
f 264/264/264 252/252/252 250/250/250
f 264/264/264 262/262/262 252/252/252
f 262/262/262 261/261/261 265/265/265
f 261/261/261 263/263/263 265/265/265
f 262/262/262 265/265/265 252/252/252
f 263/263/263 234/234/234 266/266/266
f 266/266/266 234/234/234 236/236/236
f 265/265/265 263/263/263 267/267/267
f 267/267/267 263/263/263 266/266/266
f 252/252/252 265/265/265 268/268/268
f 268/268/268 265/265/265 267/267/267
f 266/266/266 236/236/236 269/269/269
f 236/236/236 270/270/270 269/269/269
f 269/269/269 270/270/270 271/271/271
f 272/272/272 252/252/252 268/268/268
f 272/272/272 254/254/254 252/252/252
f 272/272/272 268/268/268 254/254/254
f 268/268/268 267/267/267 273/273/273
f 268/268/268 273/273/273 254/254/254
f 267/267/267 266/266/266 274/274/274
f 266/266/266 269/269/269 274/274/274
f 267/267/267 274/274/274 273/273/273
f 275/275/275 269/269/269 271/271/271
f 274/274/274 269/269/269 275/275/275
f 273/273/273 274/274/274 276/276/276
f 276/276/276 274/274/274 275/275/275
f 254/254/254 273/273/273 277/277/277
f 277/277/277 273/273/273 276/276/276
f 275/275/275 271/271/271 278/278/278
f 271/271/271 279/279/279 278/278/278
f 278/278/278 279/279/279 280/280/280
f 281/281/281 254/254/254 277/277/277
f 281/281/281 256/256/256 254/254/254
f 281/281/281 277/277/277 256/256/256
f 277/277/277 276/276/276 282/282/282
f 277/277/277 282/282/282 256/256/256
f 276/276/276 275/275/275 283/283/283
f 275/275/275 278/278/278 283/283/283
f 276/276/276 283/283/283 282/282/282
f 284/284/284 278/278/278 280/280/280
f 283/283/283 278/278/278 284/284/284
f 282/282/282 283/283/283 285/285/285
f 285/285/285 283/283/283 284/284/284
f 256/256/256 282/282/282 286/286/286
f 286/286/286 282/282/282 285/285/285
f 284/284/284 280/280/280 287/287/287
f 280/280/280 288/288/288 287/287/287
f 289/289/289 256/256/256 286/286/286
f 289/289/289 258/258/258 256/256/256
f 289/289/289 286/286/286 258/258/258
f 286/286/286 285/285/285 290/290/290
f 286/286/286 290/290/290 258/258/258
f 285/285/285 284/284/284 291/291/291
f 284/284/284 287/287/287 291/291/291
f 285/285/285 291/291/291 290/290/290
f 258/258/258 290/290/290 292/292/292
f 290/290/290 291/291/291 293/293/293
f 292/292/292 290/290/290 293/293/293
f 291/291/291 287/287/287 294/294/294
f 293/293/293 291/291/291 294/294/294
f 295/295/295 258/258/258 292/292/292
f 295/295/295 257/257/257 258/258/258
f 295/295/295 292/292/292 257/257/257
f 292/292/292 293/293/293 296/296/296
f 292/292/292 296/296/296 257/257/257
f 294/294/294 287/287/287 297/297/297
f 287/287/287 288/288/288 297/297/297
f 293/293/293 294/294/294 298/298/298
f 293/293/293 298/298/298 296/296/296
f 294/294/294 297/297/297 299/299/299
f 294/294/294 299/299/299 298/298/298
f 297/297/297 300/300/300 299/299/299
f 299/299/299 300/300/300 301/301/301
f 298/298/298 299/299/299 302/302/302
f 302/302/302 299/299/299 301/301/301
f 296/296/296 298/298/298 303/303/303
f 303/303/303 298/298/298 302/302/302
f 257/257/257 296/296/296 304/304/304
f 304/304/304 296/296/296 303/303/303
f 302/302/302 301/301/301 305/305/305
f 301/301/301 306/306/306 305/305/305
f 305/305/305 306/306/306 307/307/307
f 308/308/308 257/257/257 304/304/304
f 308/308/308 255/255/255 257/257/257
f 308/308/308 304/304/304 255/255/255
f 304/304/304 303/303/303 309/309/309
f 304/304/304 309/309/309 255/255/255
f 303/303/303 302/302/302 310/310/310
f 302/302/302 305/305/305 310/310/310
f 303/303/303 310/310/310 309/309/309
f 311/311/311 305/305/305 307/307/307
f 310/310/310 305/305/305 311/311/311
f 309/309/309 310/310/310 312/312/312
f 312/312/312 310/310/310 311/311/311
f 255/255/255 309/309/309 313/313/313
f 313/313/313 309/309/309 312/312/312
f 311/311/311 307/307/307 314/314/314
f 307/307/307 315/315/315 314/314/314
f 314/314/314 315/315/315 184/184/184
f 316/316/316 255/255/255 313/313/313
f 316/316/316 253/253/253 255/255/255
f 316/316/316 313/313/313 253/253/253
f 313/313/313 312/312/312 317/317/317
f 313/313/313 317/317/317 253/253/253
f 312/312/312 311/311/311 318/318/318
f 311/311/311 314/314/314 318/318/318
f 312/312/312 318/318/318 317/317/317
f 319/319/319 314/314/314 184/184/184
f 318/318/318 314/314/314 319/319/319
f 319/319/319 184/184/184 183/183/183
f 317/317/317 318/318/318 320/320/320
f 320/320/320 318/318/318 319/319/319
f 319/319/319 183/183/183 321/321/321
f 320/320/320 319/319/319 321/321/321
f 321/321/321 183/183/183 196/196/196
f 248/248/248 321/321/321 196/196/196
f 253/253/253 317/317/317 322/322/322
f 322/322/322 317/317/317 320/320/320
f 320/320/320 321/321/321 323/323/323
f 323/323/323 321/321/321 248/248/248
f 322/322/322 320/320/320 323/323/323
f 324/324/324 253/253/253 322/322/322
f 324/324/324 251/251/251 253/253/253
f 324/324/324 322/322/322 251/251/251
f 322/322/322 323/323/323 251/251/251
f 325/325/325 323/323/323 248/248/248
f 251/251/251 323/323/323 325/325/325
f 325/325/325 248/248/248 245/245/245
f 325/325/325 245/245/245 246/246/246
f 326/326/326 246/246/246 251/251/251
f 326/326/326 325/325/325 246/246/246
f 326/326/326 251/251/251 325/325/325
f 329/329/329 328/328/328 327/327/327
f 330/330/330 329/329/329 327/327/327
f 329/329/329 330/330/330 331/331/331
f 332/332/332 329/329/329 331/331/331
f 333/333/333 332/332/332 331/331/331
f 334/334/334 333/333/333 331/331/331
f 335/335/335 333/333/333 334/334/334
f 336/336/336 335/335/335 334/334/334
f 337/337/337 335/335/335 336/336/336
f 338/338/338 337/337/337 336/336/336
f 338/338/338 339/339/339 337/337/337
f 339/339/339 340/340/340 337/337/337
f 341/341/341 340/340/340 339/339/339
f 342/342/342 341/341/341 339/339/339
f 342/342/342 343/343/343 341/341/341
f 343/343/343 344/344/344 341/341/341
f 345/345/345 344/344/344 343/343/343
f 346/346/346 345/345/345 343/343/343
f 346/346/346 347/347/347 345/345/345
f 347/347/347 348/348/348 345/345/345
f 349/349/349 348/348/348 347/347/347
f 350/350/350 349/349/349 347/347/347
f 350/350/350 288/288/288 349/349/349
f 288/288/288 129/129/129 349/349/349
f 351/351/351 129/129/129 288/288/288
f 352/352/352 351/351/351 288/288/288
f 352/352/352 353/353/353 351/351/351
f 353/353/353 354/354/354 351/351/351
f 355/355/355 354/354/354 353/353/353
f 356/356/356 355/355/355 353/353/353
f 356/356/356 357/357/357 355/355/355
f 357/357/357 358/358/358 355/355/355
f 359/359/359 358/358/358 357/357/357
f 360/360/360 359/359/359 357/357/357
f 360/360/360 361/361/361 359/359/359
f 361/361/361 362/362/362 359/359/359
f 363/363/363 362/362/362 361/361/361
f 364/364/364 363/363/363 361/361/361
f 364/364/364 365/365/365 363/363/363
f 365/365/365 366/366/366 363/363/363
f 367/367/367 366/366/366 365/365/365
f 368/368/368 367/367/367 365/365/365
f 371/371/371 370/370/370 369/369/369
f 372/372/372 371/371/371 369/369/369
f 372/372/372 369/369/369 373/373/373
f 369/369/369 374/374/374 373/373/373
f 205/205/205 376/376/376 375/375/375
f 215/215/215 205/205/205 375/375/375
f 379/379/379 378/378/378 377/377/377
f 380/380/380 379/379/379 377/377/377
f 380/380/380 377/377/377 381/381/381
f 382/382/382 380/380/380 381/381/381
f 382/382/382 381/381/381 383/383/383
f 379/379/379 384/384/384 378/378/378
f 384/384/384 385/385/385 378/378/378
f 385/385/385 384/384/384 386/386/386
f 386/386/386 384/384/384 379/379/379
f 387/387/387 385/385/385 386/386/386
f 379/379/379 380/380/380 388/388/388
f 388/388/388 380/380/380 382/382/382
f 387/387/387 386/386/386 389/389/389
f 390/390/390 387/387/387 389/389/389
f 391/391/391 386/386/386 379/379/379
f 391/391/391 379/379/379 388/388/388
f 389/389/389 386/386/386 391/391/391
f 390/390/390 389/389/389 392/392/392
f 393/393/393 390/390/390 392/392/392
f 394/394/394 389/389/389 391/391/391
f 392/392/392 389/389/389 394/394/394
f 393/393/393 392/392/392 395/395/395
f 395/395/395 392/392/392 394/394/394
f 396/396/396 393/393/393 395/395/395
f 396/396/396 395/395/395 397/397/397
f 395/395/395 394/394/394 397/397/397
f 398/398/398 396/396/396 397/397/397
f 394/394/394 391/391/391 399/399/399
f 391/391/391 388/388/388 399/399/399
f 394/394/394 399/399/399 397/397/397
f 398/398/398 397/397/397 400/400/400
f 401/401/401 398/398/398 400/400/400
f 399/399/399 388/388/388 402/402/402
f 402/402/402 388/388/388 382/382/382
f 397/397/397 399/399/399 403/403/403
f 400/400/400 397/397/397 403/403/403
f 403/403/403 399/399/399 402/402/402
f 401/401/401 400/400/400 404/404/404
f 400/400/400 403/403/403 404/404/404
f 405/405/405 401/401/401 404/404/404
f 403/403/403 402/402/402 406/406/406
f 403/403/403 406/406/406 404/404/404
f 402/402/402 382/382/382 407/407/407
f 402/402/402 407/407/407 406/406/406
f 405/405/405 404/404/404 408/408/408
f 409/409/409 405/405/405 408/408/408
f 404/404/404 406/406/406 410/410/410
f 408/408/408 404/404/404 410/410/410
f 409/409/409 408/408/408 411/411/411
f 408/408/408 410/410/410 411/411/411
f 412/412/412 409/409/409 411/411/411
f 410/410/410 406/406/406 413/413/413
f 406/406/406 407/407/407 413/413/413
f 382/382/382 414/414/414 407/407/407
f 414/414/414 382/382/382 383/383/383
f 414/414/414 383/383/383 415/415/415
f 407/407/407 414/414/414 416/416/416
f 416/416/416 414/414/414 415/415/415
f 413/413/413 407/407/407 416/416/416
f 416/416/416 415/415/415 417/417/417
f 410/410/410 413/413/413 418/418/418
f 410/410/410 418/418/418 411/411/411
f 412/412/412 411/411/411 419/419/419
f 420/420/420 412/412/412 419/419/419
f 421/421/421 416/416/416 417/417/417
f 417/417/417 422/422/422 421/421/421
f 413/413/413 416/416/416 423/423/423
f 416/416/416 421/421/421 423/423/423
f 413/413/413 423/423/423 418/418/418
f 422/422/422 424/424/424 421/421/421
f 423/423/423 421/421/421 424/424/424
f 422/422/422 425/425/425 424/424/424
f 411/411/411 418/418/418 426/426/426
f 419/419/419 411/411/411 426/426/426
f 420/420/420 419/419/419 427/427/427
f 419/419/419 426/426/426 427/427/427
f 428/428/428 420/420/420 427/427/427
f 418/418/418 423/423/423 429/429/429
f 426/426/426 418/418/418 429/429/429
f 429/429/429 423/423/423 424/424/424
f 426/426/426 430/430/430 427/427/427
f 427/427/427 430/430/430 428/428/428
f 426/426/426 429/429/429 430/430/430
f 430/430/430 431/431/431 428/428/428
f 429/429/429 432/432/432 430/430/430
f 430/430/430 432/432/432 431/431/431
f 429/429/429 424/424/424 432/432/432
f 432/432/432 433/433/433 431/431/431
f 425/425/425 434/434/434 424/424/424
f 434/434/434 425/425/425 433/433/433
f 424/424/424 434/434/434 432/432/432
f 432/432/432 434/434/434 433/433/433
