g Seat_08
v 0.1668672 -0.2824956 -1.015401
v 0.2120582 -0.2456694 -1.017358
v 0.2119258 -0.2521605 -1.026086
v 0.1631642 -0.2907487 -1.023655
v 0.1689546 -0.2889018 -0.9300644
v 0.1651912 -0.2963896 -0.9300846
v 0.1618727 -0.2944877 -0.4084031
v 0.1588063 -0.3021385 -0.4084153
v 0.1573512 -0.2834538 -0.2869047
v 0.1539967 -0.2923326 -0.2786778
v 0.2044166 -0.2465086 -0.2898423
v 0.1573512 -0.2834538 -0.2869047
v 0.1539967 -0.2923326 -0.2786778
v 0.2041676 -0.2530315 -0.2809971
v 0.2642299 -0.1900133 -0.292584
v 0.1510628 -0.3080864 -0.2673985
v 0.1588063 -0.3021385 -0.4084153
v 0.1573219 -0.3286479 -0.4083951
v 0.1516981 -0.3373161 -0.4084257
v 0.1440382 -0.3182609 -0.256356
v 0.1385341 -0.3425774 -0.4085191
v 0.1301576 -0.3203557 -0.2449644
v 0.208683 -0.2655351 -0.2656578
v 0.2679817 -0.192484 -0.2841764
v 0.3056581 -0.1149663 -0.2927854
v 0.2066994 -0.2732262 -0.2536802
v 0.2817824 -0.201422 -0.2663633
v 0.3099977 -0.116624 -0.28426
v 0.3242653 -0.02965989 -0.2918937
v 0.04795181 -0.3471623 -0.25145
v 0.0533229 -0.3655864 -0.4091294
v -0.03340622 -0.3709709 -0.4097751
v 0.3287685 -0.03042527 -0.2834843
v 0.323467 0.05565566 -0.2921916
v 0.3274135 0.05575027 -0.2841624
v 0.2942305 0.1366334 -0.2910123
v 0.3448695 -0.03330002 -0.2660423
v 0.3254469 -0.1231407 -0.2661021
v 0.2863222 -0.2042741 -0.2550535
v 0.2178664 -0.2716594 -0.241649
v 0.3305073 -0.1252843 -0.2547886
v 0.2846846 -0.2029826 -0.2427848
v 0.2974745 0.1377095 -0.2834348
v 0.247383 0.201534 -0.2877561
v 0.2478786 0.2077437 -0.2796201
v 0.2096937 0.2459041 -0.2835429
v 0.3145668 0.1428877 -0.2661778
v 0.3451735 0.05737624 -0.266063
v 0.3501942 -0.03439255 -0.2547556
v 0.1931471 -0.2355144 -0.1528965
v 0.2081313 0.2554109 -0.2758824
v 0.2155568 0.2573897 -0.4086692
v 0.2140944 0.2653108 -0.4086912
v 0.2180739 0.2904915 -0.4086918
v 0.2082765 0.2716304 -0.2663688
v 0.3287245 -0.1249175 -0.2424705
v 0.3510298 0.05770217 -0.2547788
v 0.255605 0.2190816 -0.2653044
v 0.2031251 0.2835658 -0.2561564
v 0.214518 0.3006172 -0.4087302
v 0.1894423 0.2886061 -0.2448191
v 0.2028725 0.3085091 -0.4088279
v 0.3481093 -0.03439988 -0.2424766
v 0.2847456 -0.1079906 -0.1523631
v 0.3202772 0.1443758 -0.2550468
v 0.2553035 0.2271931 -0.2537327
v 0.3494045 0.05740432 -0.2423838
v 0.2658272 0.2235158 -0.2415562
v 0.3186616 0.1432637 -0.2426878
v 0.3026063 0.04958693 -0.1524217
v 0.2350404 0.1930574 -0.153104
v 0.3018434 -0.02979783 -0.1523301
v 0.2763649 0.1245125 -0.1527085
v 0.2204616 0.03622146 -0.07062662
v 0.2074312 -0.07873704 -0.07058206
v 0.2199055 -0.02169358 -0.07055887
v 0.2467531 -0.1761784 -0.1525657
v 0.1711708 0.1408919 -0.07112405
v 0.2013167 0.09088454 -0.07083718
v 0.1170448 0.01928054 -0.01807657
v 0.1771474 0.2454109 -0.1536021
v 0.1797133 -0.1284825 -0.07073037
v 0.1406044 -0.1717741 -0.07097147
v 0.1101161 -0.04183091 -0.01805582
v 0.1167458 -0.01150559 -0.01804178
v 0.1068703 0.04833816 -0.01818704
v 0.09084488 0.0749208 -0.01833719
v 0.09538528 -0.06827562 -0.0181315
v 0.1289357 0.1790883 -0.07148843
v 1.529198E-07 -4.650372E-07 -1.006156E-06
v 0.06839004 0.09522414 -0.0185325
v 0.04849746 -0.1067595 -0.0184379
v 0.01162613 0.1165858 -0.0189866
v 0.0745961 -0.09129075 -0.01826028
v 0.04130875 0.1103279 -0.01875467
v 0.07798721 0.2075093 -0.07190347
v 0.09151199 -0.2008757 -0.07130472
v 0.02214737 0.219283 -0.07233682
v 0.1073116 0.2843642 -0.154174
v 0.1258571 -0.2754002 -0.1533525
v 0.05031876 -0.297946 -0.1538932
v 0.03640518 -0.2173235 -0.07169656
v -0.03280747 -0.3531175 -0.257888
v 0.03077286 0.3005025 -0.1547679
v 0.1142384 0.3332088 -0.251746
v 0.1236415 0.3502888 -0.4094736
v 0.03956314 0.3699678 -0.4101273
v 0.03667862 0.3524812 -0.2582243
v -0.05696518 0.3515828 -0.2601036
v -0.05887924 0.3688118 -0.4108658
v -0.1505547 0.3385799 -0.4115177
v -0.04919418 0.2992671 -0.1553654
v -0.03619247 0.2183821 -0.07277383
v -0.1443687 0.3225911 -0.2595487
v -0.01938644 0.1161104 -0.01921793
v -0.123535 0.2750221 -0.155894
v -0.2248772 0.2743532 -0.2598887
v -0.2351036 0.2879555 -0.4120908
v -0.2995073 0.2163313 -0.4124876
v -0.0482164 0.1067122 -0.01942056
v -0.09043014 0.2006941 -0.0731608
v -0.1921739 0.233976 -0.1563603
v -0.2862157 0.2061702 -0.2604722
v -0.1405058 0.1707491 -0.07349893
v -0.07483505 0.09079421 -0.01960306
v -0.244431 0.1758003 -0.1566819
v -0.3318877 0.1242049 -0.2607505
v -0.3474644 0.1302559 -0.4127433
v -0.3673814 0.03598281 -0.4127781
v -0.09510238 0.06822829 -0.01972818
v -0.1786308 0.1283052 -0.07373391
v -0.2833519 0.1059309 -0.1568894
v -0.2070238 0.07733291 -0.07388467
v -0.1101952 0.04113235 -0.01980875
v -0.3508519 0.03442825 -0.2607469
v -0.1164659 0.0114595 -0.01981851
v -0.2995238 0.02941848 -0.15692
v -0.2188225 0.02151443 -0.07390481
v -0.2982957 -0.05054734 -0.1568119
v -0.2179271 -0.03682664 -0.07382913
v -0.1159898 -0.01955247 -0.01977701
v -0.1065868 -0.04838426 -0.01967264
v -0.2002348 -0.09106614 -0.07362893
v -0.3494102 -0.05939622 -0.2606162
v -0.274044 -0.1248918 -0.1565397
v -0.3658678 -0.06254075 -0.4126475
v -0.3359917 -0.1541399 -0.4123105
v -0.3209581 -0.1466234 -0.2603031
v -0.2728014 -0.2271599 -0.2598435
v -0.2854234 -0.2387102 -0.4118284
v -0.2137511 -0.303098 -0.4112125
v -0.2330003 -0.1935307 -0.1561479
v -0.1702916 -0.1411418 -0.07334451
v -0.09066879 -0.07500535 -0.01952005
v -0.2045457 -0.2884789 -0.2592539
v -0.06810898 -0.0952739 -0.0193284
v -0.1748302 -0.2457902 -0.1556474
v -0.127852 -0.1792674 -0.0729783
v -0.1224272 -0.3346837 -0.2597135
v -0.127672 -0.351049 -0.4105082
v -0.104962 -0.2847087 -0.1550755
v -0.01134323 -0.116635 -0.01887613
v -0.07688095 -0.2076628 -0.07256265
v -0.028452 -0.3008781 -0.1544804
v -0.04101364 -0.1103655 -0.0191044
v -0.02106186 -0.2194597 -0.07212747
v 0.01920425 -0.1155009 -0.01864725
v 0.2213203 0.2404744 -1.014283
v 0.2231923 0.2454341 -0.9303074
v 0.2206538 0.2535371 -0.9303355
v 0.2189229 0.2493587 -1.022357
v 0.2570827 0.1961592 -1.018872
v 0.2161104 0.2727058 -1.041559
v 0.2246944 0.2907954 -0.9303507
v 0.2196828 0.300143 -0.9304007
v 0.2595039 0.2035847 -1.027008
v 0.3032967 0.1301771 -1.024348
v 0.2102894 0.2832319 -1.053071
v 0.2080604 0.3073952 -0.9304966
v 0.3107069 0.1341853 -1.03146
v 0.3302376 0.050157 -1.022984
v 0.2624941 0.2178743 -1.042998
v 0.197466 0.2875417 -1.064323
v 0.1278975 0.3490193 -0.9311497
v 0.3372108 0.05231521 -1.030462
v 0.3296376 -0.03380173 -1.019545
v 0.3210182 0.1397444 -1.042082
v 0.2617665 0.2259004 -1.055003
v 0.3347163 -0.03418015 -1.027679
v 0.3110969 -0.1164323 -1.019547
v 0.315641 -0.1183049 -1.027783
v 0.2710841 -0.1893718 -1.019822
v 0.3497584 -0.03524949 -1.0416
v 0.3504677 0.05458815 -1.041867
v 0.3264174 0.142784 -1.053066
v 0.2728578 0.2224544 -1.067237
v 0.3567854 0.05619216 -1.05281
v 0.2751985 -0.1923821 -1.02798
v 0.2120582 -0.2456694 -1.017358
v 0.2119258 -0.2521605 -1.026086
v 0.2872469 -0.2012651 -1.041849
v 0.3302425 -0.1237682 -1.041768
v 0.2146492 -0.2662096 -1.042617
v 0.3558437 -0.03562913 -1.052602
v 0.3361146 -0.1261095 -1.052712
v 0.3558437 -0.03562913 -1.052602
v 0.3248 0.1422407 -1.065472
v 0.355403 0.05632522 -1.065309
v 0.1579079 -0.3103972 -1.040858
v 0.1631642 -0.2907487 -1.023655
v 0.2838978 0.1232936 -1.155939
v 0.3541456 -0.03538315 -1.065001
v 0.3361146 -0.1261095 -1.052712
v 0.3347267 -0.1258031 -1.065163
v 0.2921376 -0.2048882 -1.052862
v 0.2872469 -0.2012651 -1.041849
v 0.3093758 -0.03102097 -1.155556
v 0.1628029 -0.3298064 -0.9300626
v 0.1651912 -0.2963896 -0.9300846
v 0.2127858 -0.2738493 -1.054811
v 0.1506557 -0.3197233 -1.052685
v 0.1563863 -0.3380919 -0.9301004
v 0.1373866 -0.3215239 -1.064099
v 0.1433485 -0.3430656 -0.930192
v 0.05760391 -0.3659672 -0.9308091
v 0.2244594 -0.2725993 -1.066974
v 0.2907411 -0.2038945 -1.065244
v 0.2542872 -0.1773955 -1.155792
v 0.292278 -0.1092107 -1.155591
v 0.05456741 -0.348333 -1.059216
v 0.1333907 -0.2766216 -1.156582
v 0.2006801 -0.2367351 -1.156124
v 0.1884871 -0.1299028 -1.238741
v -0.02682846 -0.3540813 -1.054251
v -0.02948959 -0.3716032 -0.9314548
v -0.1237559 -0.3516826 -0.9321885
v 0.2286775 -0.02310959 -1.23857
v 0.2162038 -0.08015549 -1.238593
v 0.1049568 -0.06982469 -1.292751
v 0.1263197 -0.01305588 -1.292657
v 0.1493776 -0.1731914 -1.238984
v 0.3101393 0.04836501 -1.155649
v 0.1196889 -0.04337998 -1.292671
v 0.2292335 0.03480605 -1.238635
v 0.2100905 0.08946975 -1.238846
v 0.11644 0.04678542 -1.292805
v 0.1266151 0.01772903 -1.292693
v 0.242574 0.1918367 -1.156328
v 0.009854889 -0.001594703 -1.312475
v 0.058069 -0.1083025 -1.293054
v 0.07796158 0.09367385 -1.29315
v -0.001772308 -0.1181841 -1.293491
v 0.02119644 0.115038 -1.293603
v -0.05853866 -0.0968242 -1.293946
v -0.03864609 0.1051594 -1.29404
v -0.09701461 -0.04993333 -1.294289
v -0.08552963 0.06667922 -1.294344
v -0.106895 0.009911034 -1.294436
v 0.08416641 -0.09283616 -1.292878
v 0.1002858 -0.2022893 -1.239316
v 0.05785294 -0.2991673 -1.15712
v 0.04517715 -0.2187395 -1.23971
v -0.02091782 -0.3020976 -1.157707
v 0.0287764 -0.1170451 -1.293263
v -0.01229172 -0.2208788 -1.24014
v -0.1164757 -0.3356084 -1.053891
v -0.09742782 -0.285927 -1.158302
v -0.0681102 -0.2090813 -1.240573
v -0.1985661 -0.2894426 -1.05562
v -0.2098351 -0.3037328 -0.9328928
v -0.2815068 -0.2393449 -0.9335093
v -0.03144272 -0.1119145 -1.293722
v -0.1190807 -0.1806889 -1.240991
v -0.1672935 -0.2470079 -1.158875
v -0.2668223 -0.2281291 -1.056208
v -0.2254655 -0.1947502 -1.159376
v -0.1615208 -0.1425627 -1.241355
v -0.3149827 -0.1475969 -1.056668
v -0.332075 -0.1547734 -0.9339908
v -0.3619517 -0.06317551 -0.9343284
v -0.08109787 -0.07655564 -1.294139
v -0.1914659 -0.09248826 -1.241641
v -0.2665117 -0.1261125 -1.159768
v -0.3434319 -0.06036668 -1.056993
v -0.2907616 -0.05176805 -1.16004
v -0.2091588 -0.03824753 -1.241839
v -0.3448717 0.03346145 -1.057114
v -0.363466 0.03534682 -0.934459
v -0.1064201 -0.02110093 -1.294396
v -0.2100535 0.02009597 -1.241918
v -0.2919896 0.028199 -1.160146
v -0.1982555 0.0759175 -1.241896
v -0.2758189 0.1047114 -1.160119
v -0.3259074 0.1232368 -1.057048
v -0.1006236 0.03958388 -1.294425
v -0.1698589 0.1268922 -1.241745
v -0.3435496 0.1296211 -0.9344224
v -0.2368993 0.1745784 -1.159912
v -0.2802354 0.2052034 -1.056838
v -0.29559 0.2156972 -0.934166
v -0.2311827 0.2873054 -0.9337705
v -0.2188939 0.2733907 -1.056646
v -0.1846416 0.2327571 -1.15959
v -0.1317345 0.1693312 -1.24151
v -0.1383873 0.3216206 -1.055913
v -0.1466386 0.3379463 -0.9331974
v -0.05493881 0.3682857 -0.9325461
v -0.06526413 0.08924086 -1.294219
v -0.08165878 0.1992744 -1.24117
v -0.116002 0.2738057 -1.159123
v -0.05102035 0.3505659 -1.054221
v -0.04166 0.2980513 -1.158596
v -0.02742416 0.21696 -1.240783
v 0.04266251 0.3515144 -1.054588
v 0.04347977 0.3693391 -0.9318094
v -0.009815521 0.1145613 -1.293835
v 0.03091446 0.2178609 -1.240348
v 0.03830704 0.299283 -1.157997
v 0.121219 0.332281 -1.059378
v 0.1148463 0.2831447 -1.1574
v 0.1846815 0.2441896 -1.156826
v 0.08675552 0.206089 -1.239916
v 0.137704 0.1776723 -1.239499
v 0.05087906 0.10878 -1.293371
v 0.1799422 0.1394771 -1.239134
v 0.100414 0.07336928 -1.292957
v 0.2231923 0.2454341 -0.9303074
v 0.2155568 0.2573897 -0.4086692
v 0.2140944 0.2653108 -0.4086912
v 0.2206538 0.2535371 -0.9303355
v 0.2246944 0.2907954 -0.9303507
v 0.2180739 0.2904915 -0.4086918
v 0.214518 0.3006172 -0.4087302
v 0.2196828 0.300143 -0.9304007
v 0.2028725 0.3085091 -0.4088279
v 0.2080604 0.3073952 -0.9304966
v 0.1236415 0.3502888 -0.4094736
v 0.1278975 0.3490193 -0.9311497
v 0.04347977 0.3693391 -0.9318094
v 0.03956314 0.3699678 -0.4101273
v -0.05887924 0.3688118 -0.4108658
v -0.05493881 0.3682857 -0.9325461
v -0.1466386 0.3379463 -0.9331974
v -0.1505547 0.3385799 -0.4115177
v -0.2351036 0.2879555 -0.4120908
v -0.2311827 0.2873054 -0.9337705
v -0.29559 0.2156972 -0.934166
v -0.2995073 0.2163313 -0.4124876
v -0.3474644 0.1302559 -0.4127433
v -0.3435496 0.1296211 -0.9344224
v -0.3658678 -0.06254075 -0.4126475
v -0.3619517 -0.06317551 -0.9343284
v -0.332075 -0.1547734 -0.9339908
v -0.3359917 -0.1541399 -0.4123105
v -0.2854234 -0.2387102 -0.4118284
v -0.2815068 -0.2393449 -0.9335093
v -0.2098351 -0.3037328 -0.9328928
v -0.2137511 -0.303098 -0.4112125
v -0.127672 -0.351049 -0.4105082
v -0.1237559 -0.3516826 -0.9321885
v -0.02948959 -0.3716032 -0.9314548
v -0.03340622 -0.3709709 -0.4097751
v 0.0533229 -0.3655864 -0.4091294
v 0.05760391 -0.3659672 -0.9308091
v 0.1433485 -0.3430656 -0.930192
v 0.1385341 -0.3425774 -0.4085191
v 0.1516981 -0.3373161 -0.4084257
v 0.1563863 -0.3380919 -0.9301004
v 0.1573219 -0.3286479 -0.4083951
v 0.1588063 -0.3021385 -0.4084153
v 0.1651912 -0.2963896 -0.9300846
v 0.1628029 -0.3298064 -0.9300626
v 0.1563863 -0.3380919 -0.9301004
v 0.1516981 -0.3373161 -0.4084257
v 0.2872469 -0.2012651 -1.041849
v 0.3302425 -0.1237682 -1.041768
v 0.2942305 0.1366334 -0.2910123
v 0.247383 0.201534 -0.2877561
v 0.25748 0.1871565 -0.2985374
v 0.2953078 0.1367036 -0.3016795
v 0.323467 0.05565566 -0.2921916
v 0.3242299 0.05574416 -0.3023911
v 0.3242653 -0.02965989 -0.2918937
v 0.2142799 0.2388075 -0.2935893
v 0.2096937 0.2459041 -0.2835429
v 0.2209865 0.2485994 -0.4086191
v 0.2155568 0.2573897 -0.4086692
v 0.3140584 0.1404109 -0.4077879
v 0.2285951 0.2370528 -0.9302561
v 0.2231923 0.2454341 -0.9303074
v 0.2699116 0.1956502 -0.408187
v 0.2262013 0.2325654 -1.005514
v 0.2213203 0.2404744 -1.014283
v 0.2791695 0.1892 -0.9298191
v 0.2662654 0.1801967 -1.011917
v 0.2570827 0.1961592 -1.018872
v 0.3014064 0.1292659 -1.016106
v 0.3032967 0.1301771 -1.024348
v 0.3179774 0.1397816 -0.9294669
v 0.3290187 0.04964431 -1.014236
v 0.3302376 0.050157 -1.022984
v 0.3439857 0.05597487 -0.4074613
v 0.3478456 0.0552925 -0.929141
v 0.3294356 -0.03374802 -1.010023
v 0.3296376 -0.03380173 -1.019545
v 0.3467665 -0.03459641 -0.9290397
v 0.342848 -0.03395981 -0.4073588
v 0.311122 -0.1164147 -1.009852
v 0.3110969 -0.1164323 -1.019547
v 0.3276015 -0.1231932 -0.9290757
v 0.2708815 -0.1892888 -1.010295
v 0.2710841 -0.1893718 -1.019822
v 0.3237013 -0.1225932 -0.407396
v 0.3244337 -0.0297905 -0.3013902
v 0.3056581 -0.1149663 -0.2927854
v 0.3058192 -0.1151274 -0.3021525
v 0.2642299 -0.1900133 -0.292584
v 0.2845143 -0.2000066 -0.9293064
v 0.2248866 -0.2324406 -1.008592
v 0.2120582 -0.2456694 -1.017358
v 0.264463 -0.1900499 -0.3020799
v 0.2044166 -0.2465086 -0.2898423
v 0.2805952 -0.199373 -0.4076261
v 0.2170241 -0.2336272 -0.3001487
v 0.1573512 -0.2834538 -0.2869047
v 0.234803 -0.2427354 -0.9296287
v 0.1730775 -0.2757463 -1.006457
v 0.1668672 -0.2824956 -1.015401
v 0.2270338 -0.2448338 -0.4079734
v 0.1759328 -0.2815807 -0.9300224
v 0.1689546 -0.2889018 -0.9300644
v 0.1688234 -0.2869237 -0.4083591
v 0.1618727 -0.2944877 -0.4084031
v 0.1633998 -0.2771062 -0.2967973
vt 0.1473389 0.9785156
vt 0.1470947 0.9780273
vt 0.1469727 0.9780273
vt 0.1472168 0.9790039
vt 0.1485596 0.9785156
vt 0.1485596 0.9785156
vt 0.1557617 0.9765625
vt 0.1558838 0.9765625
vt 0.1575928 0.9760742
vt 0.1577148 0.9760742
vt 0.1518555 0.9750977
vt 0.1523438 0.9746094
vt 0.1523438 0.9746094
vt 0.1518555 0.9750977
vt 0.1514893 0.9755859
vt 0.1523438 0.9746094
vt 0.15271 0.9750977
vt 0.15271 0.9750977
vt 0.15271 0.9750977
vt 0.1523438 0.9746094
vt 0.152832 0.9750977
vt 0.1522217 0.9746094
vt 0.1518555 0.9750977
vt 0.1514893 0.9755859
vt 0.151001 0.9755859
vt 0.1518555 0.9750977
vt 0.1514893 0.9755859
vt 0.151001 0.9755859
vt 0.1503906 0.9760742
vt 0.1524658 0.9741211
vt 0.1529541 0.9746094
vt 0.1530762 0.9736328
vt 0.1503906 0.9760742
vt 0.1499023 0.9755859
vt 0.1499023 0.9755859
vt 0.149292 0.9755859
vt 0.1503906 0.9760742
vt 0.151001 0.9755859
vt 0.1514893 0.9755859
vt 0.1518555 0.9750977
vt 0.151001 0.9755859
vt 0.1514893 0.9755859
vt 0.149292 0.9755859
vt 0.1489258 0.9750977
vt 0.1489258 0.9750977
vt 0.1485596 0.9746094
vt 0.149292 0.9755859
vt 0.1499023 0.9755859
vt 0.1503906 0.9760742
vt 0.1514893 0.9750977
vt 0.1485596 0.9746094
vt 0.1480713 0.9750977
vt 0.1480713 0.9750977
vt 0.1480713 0.9750977
vt 0.1485596 0.9746094
vt 0.151001 0.9755859
vt 0.1499023 0.9755859
vt 0.1489258 0.9750977
vt 0.1485596 0.9746094
vt 0.1480713 0.9750977
vt 0.1485596 0.9746094
vt 0.1480713 0.9750977
vt 0.1503906 0.9760742
vt 0.1508789 0.9750977
vt 0.149292 0.9755859
vt 0.1489258 0.9750977
vt 0.1499023 0.9755859
vt 0.1489258 0.9750977
vt 0.1494141 0.9755859
vt 0.1500244 0.9750977
vt 0.149292 0.9750977
vt 0.1503906 0.9755859
vt 0.1496582 0.9750977
vt 0.1501465 0.9746094
vt 0.1506348 0.9746094
vt 0.1503906 0.9746094
vt 0.1512451 0.9750977
vt 0.1496582 0.9746094
vt 0.1499023 0.9746094
vt 0.1502686 0.9741211
vt 0.1490479 0.9746094
vt 0.151001 0.9746094
vt 0.151123 0.9746094
vt 0.1505127 0.9741211
vt 0.1503906 0.9741211
vt 0.1501465 0.9741211
vt 0.1500244 0.9741211
vt 0.1506348 0.9741211
vt 0.1495361 0.9741211
vt 0.1503906 0.9736328
vt 0.1499023 0.9741211
vt 0.1508789 0.9741211
vt 0.1499023 0.9736328
vt 0.1507568 0.9741211
vt 0.1499023 0.9741211
vt 0.1494141 0.9741211
vt 0.1513672 0.9741211
vt 0.149292 0.9736328
vt 0.1489258 0.9741211
vt 0.1518555 0.9746094
vt 0.1519775 0.9741211
vt 0.1514893 0.9741211
vt 0.1525879 0.9736328
vt 0.1488037 0.9736328
vt 0.1484375 0.9741211
vt 0.1478271 0.9746094
vt 0.1477051 0.9736328
vt 0.1483154 0.9736328
vt 0.1484375 0.9731445
vt 0.1479492 0.9731445
vt 0.1480713 0.9726563
vt 0.1489258 0.9731445
vt 0.1494141 0.9736328
vt 0.1485596 0.9726563
vt 0.1499023 0.9736328
vt 0.1490479 0.9731445
vt 0.1489258 0.972168
vt 0.1485596 0.972168
vt 0.1490479 0.9711914
vt 0.1499023 0.9736328
vt 0.1495361 0.9731445
vt 0.149292 0.9726563
vt 0.149292 0.9716797
vt 0.1496582 0.9731445
vt 0.1500244 0.9736328
vt 0.1496582 0.972168
vt 0.1499023 0.9716797
vt 0.1497803 0.9711914
vt 0.151123 0.9711914
vt 0.1501465 0.9731445
vt 0.1499023 0.9726563
vt 0.1500244 0.972168
vt 0.1501465 0.9726563
vt 0.1502686 0.9731445
vt 0.1503906 0.9716797
vt 0.1503906 0.9731445
vt 0.1503906 0.972168
vt 0.1503906 0.9726563
vt 0.1508789 0.972168
vt 0.1506348 0.9726563
vt 0.1505127 0.9731445
vt 0.1506348 0.9731445
vt 0.151001 0.9726563
vt 0.151001 0.9716797
vt 0.1512451 0.972168
vt 0.151123 0.9711914
vt 0.1517334 0.9711914
vt 0.1514893 0.9716797
vt 0.1518555 0.972168
vt 0.1522217 0.972168
vt 0.15271 0.9726563
vt 0.1514893 0.9726563
vt 0.151123 0.9731445
vt 0.1507568 0.9736328
vt 0.1523438 0.9726563
vt 0.1508789 0.9736328
vt 0.1518555 0.9731445
vt 0.1513672 0.9731445
vt 0.1524658 0.9731445
vt 0.1529541 0.9731445
vt 0.1519775 0.9731445
vt 0.151001 0.9736328
vt 0.1514893 0.9736328
vt 0.1520996 0.9736328
vt 0.1508789 0.9736328
vt 0.1514893 0.9736328
vt 0.1508789 0.9741211
vt 0.1485596 0.9609375
vt 0.1480713 0.9604492
vt 0.1480713 0.9604492
vt 0.1485596 0.9609375
vt 0.1489258 0.9604492
vt 0.1485596 0.9609375
vt 0.1480713 0.9604492
vt 0.1480713 0.9604492
vt 0.1489258 0.9604492
vt 0.149292 0.9599609
vt 0.1485596 0.9609375
vt 0.1480713 0.9604492
vt 0.149292 0.9599609
vt 0.1499023 0.9599609
vt 0.1489258 0.9604492
vt 0.1485596 0.9609375
vt 0.1478271 0.9614258
vt 0.1499023 0.9599609
vt 0.1503906 0.9599609
vt 0.149292 0.9599609
vt 0.1489258 0.9604492
vt 0.1503906 0.9599609
vt 0.151001 0.9599609
vt 0.151001 0.9599609
vt 0.1514893 0.9599609
vt 0.1503906 0.9599609
vt 0.1499023 0.9599609
vt 0.149292 0.9599609
vt 0.1489258 0.9604492
vt 0.1499023 0.9599609
vt 0.1514893 0.9599609
vt 0.1518555 0.9604492
vt 0.1518555 0.9604492
vt 0.1514893 0.9599609
vt 0.151001 0.9599609
vt 0.1518555 0.9604492
vt 0.1503906 0.9599609
vt 0.151001 0.9599609
vt 0.1503906 0.9599609
vt 0.1494141 0.9599609
vt 0.1499023 0.9599609
vt 0.1523438 0.9609375
vt 0.1523438 0.9609375
vt 0.1496582 0.9604492
vt 0.1503906 0.9599609
vt 0.151001 0.9599609
vt 0.151001 0.9599609
vt 0.1514893 0.9599609
vt 0.1514893 0.9599609
vt 0.1503906 0.9604492
vt 0.15271 0.9604492
vt 0.15271 0.9604492
vt 0.1518555 0.9604492
vt 0.1523438 0.9609375
vt 0.15271 0.9604492
vt 0.1522217 0.9609375
vt 0.152832 0.9604492
vt 0.1529541 0.9614258
vt 0.1518555 0.9604492
vt 0.1514893 0.9599609
vt 0.1512451 0.9604492
vt 0.1508789 0.9604492
vt 0.1524658 0.9614258
vt 0.1518555 0.9609375
vt 0.1514893 0.9609375
vt 0.151001 0.9609375
vt 0.1525879 0.9619141
vt 0.1530762 0.9619141
vt 0.1529541 0.9624023
vt 0.1503906 0.9609375
vt 0.1506348 0.9609375
vt 0.1506348 0.9614258
vt 0.1503906 0.9614258
vt 0.151123 0.9609375
vt 0.1500244 0.9604492
vt 0.1505127 0.9614258
vt 0.1501465 0.9609375
vt 0.1499023 0.9609375
vt 0.1501465 0.9614258
vt 0.1502686 0.9614258
vt 0.149292 0.9609375
vt 0.1503906 0.9619141
vt 0.1508789 0.9614258
vt 0.1499023 0.9614258
vt 0.151001 0.9619141
vt 0.1499023 0.9619141
vt 0.1508789 0.9619141
vt 0.1499023 0.9619141
vt 0.1506348 0.9624023
vt 0.1501465 0.9624023
vt 0.1503906 0.9624023
vt 0.1507568 0.9614258
vt 0.1513672 0.9614258
vt 0.1519775 0.9614258
vt 0.1514893 0.9614258
vt 0.1520996 0.9619141
vt 0.1508789 0.9619141
vt 0.1514893 0.9619141
vt 0.1524658 0.9624023
vt 0.1519775 0.9624023
vt 0.1514893 0.9619141
vt 0.1523438 0.9628906
vt 0.15271 0.9633789
vt 0.1522217 0.9638672
vt 0.1508789 0.9619141
vt 0.1513672 0.9624023
vt 0.1518555 0.9628906
vt 0.1518555 0.9633789
vt 0.1514893 0.9628906
vt 0.151123 0.9624023
vt 0.1514893 0.9638672
vt 0.1517334 0.9643555
vt 0.151123 0.9643555
vt 0.1507568 0.9624023
vt 0.151001 0.9628906
vt 0.1512451 0.9633789
vt 0.151001 0.9638672
vt 0.1508789 0.9633789
vt 0.1506348 0.9628906
vt 0.1503906 0.9638672
vt 0.1503906 0.9643555
vt 0.1505127 0.9624023
vt 0.1503906 0.9628906
vt 0.1503906 0.9633789
vt 0.1501465 0.9628906
vt 0.1500244 0.9633789
vt 0.1499023 0.9638672
vt 0.1502686 0.9624023
vt 0.1499023 0.9628906
vt 0.1497803 0.9643555
vt 0.1496582 0.9633789
vt 0.149292 0.9638672
vt 0.1490479 0.9643555
vt 0.1485596 0.9638672
vt 0.1489258 0.9633789
vt 0.149292 0.9628906
vt 0.1496582 0.9624023
vt 0.1485596 0.9628906
vt 0.1480713 0.9633789
vt 0.1479492 0.9624023
vt 0.1500244 0.9624023
vt 0.1495361 0.9624023
vt 0.1490479 0.9628906
vt 0.1484375 0.9624023
vt 0.1489258 0.9624023
vt 0.1494141 0.9619141
vt 0.1483154 0.9619141
vt 0.1477051 0.9619141
vt 0.1499023 0.9619141
vt 0.149292 0.9619141
vt 0.1488037 0.9619141
vt 0.1484375 0.9614258
vt 0.1489258 0.9614258
vt 0.1490479 0.9609375
vt 0.1494141 0.9614258
vt 0.1495361 0.9614258
vt 0.1499023 0.9619141
vt 0.1496582 0.9609375
vt 0.1500244 0.9614258
vt 0.1496582 0.9643555
vt 0.1496582 0.9711914
vt 0.1496582 0.9711914
vt 0.1496582 0.9643555
vt 0.1496582 0.9643555
vt 0.1496582 0.9711914
vt 0.1496582 0.9711914
vt 0.1496582 0.9643555
vt 0.1497803 0.9711914
vt 0.1497803 0.9643555
vt 0.1499023 0.9711914
vt 0.1499023 0.9643555
vt 0.1500244 0.9643555
vt 0.1500244 0.9711914
vt 0.1502686 0.9711914
vt 0.1502686 0.9643555
vt 0.1503906 0.9643555
vt 0.1503906 0.9711914
vt 0.1506348 0.9711914
vt 0.1506348 0.9643555
vt 0.1507568 0.9643555
vt 0.1507568 0.9711914
vt 0.151001 0.9711914
vt 0.151001 0.9643555
vt 0.1513672 0.9711914
vt 0.1513672 0.9643555
vt 0.1514893 0.9643555
vt 0.1514893 0.9711914
vt 0.1517334 0.9711914
vt 0.1517334 0.9643555
vt 0.1518555 0.9643555
vt 0.1518555 0.9711914
vt 0.1520996 0.9711914
vt 0.1520996 0.9643555
vt 0.1522217 0.9643555
vt 0.1522217 0.9711914
vt 0.1523438 0.9711914
vt 0.1523438 0.9643555
vt 0.1525879 0.9643555
vt 0.1525879 0.9711914
vt 0.1525879 0.9711914
vt 0.1525879 0.9643555
vt 0.1496582 0.9711914
vt 0.1496582 0.9711914
vt 0.1496582 0.9643555
vt 0.1496582 0.9643555
vt 0.1496582 0.9643555
vt 0.1496582 0.9711914
vt 0.1514893 0.9599609
vt 0.151001 0.9599609
vt 0.2111816 0.9750977
vt 0.2115479 0.9765625
vt 0.2122803 0.9760742
vt 0.2120361 0.9750977
vt 0.2109375 0.9731445
vt 0.2119141 0.9731445
vt 0.2108154 0.9711914
vt 0.2125244 0.9770508
vt 0.2121582 0.9775391
vt 0.2143555 0.9775391
vt 0.2142334 0.9780273
vt 0.2141113 0.9746094
vt 0.2213135 0.9770508
vt 0.2214355 0.9780273
vt 0.2142334 0.9760742
vt 0.2225342 0.9770508
vt 0.2230225 0.9775391
vt 0.2211914 0.9760742
vt 0.2227783 0.9760742
vt 0.2236328 0.9765625
vt 0.2231445 0.9750977
vt 0.223999 0.9750977
vt 0.2213135 0.9746094
vt 0.2232666 0.9731445
vt 0.2242432 0.9731445
vt 0.2141113 0.9731445
vt 0.2213135 0.9731445
vt 0.2232666 0.9711914
vt 0.2243652 0.9711914
vt 0.2213135 0.9711914
vt 0.2141113 0.9711914
vt 0.2232666 0.9692383
vt 0.2242432 0.96875
vt 0.2213135 0.9692383
vt 0.2230225 0.9672852
vt 0.223999 0.9672852
vt 0.2141113 0.9692383
vt 0.2119141 0.9711914
vt 0.2109375 0.96875
vt 0.2119141 0.96875
vt 0.2111816 0.9667969
vt 0.2213135 0.9672852
vt 0.2227783 0.9658203
vt 0.2236328 0.9658203
vt 0.2121582 0.9672852
vt 0.2115479 0.965332
vt 0.2142334 0.9672852
vt 0.2124023 0.9658203
vt 0.2121582 0.9643555
vt 0.2213135 0.9658203
vt 0.2225342 0.9648438
vt 0.2230225 0.9648438
vt 0.2142334 0.9658203
vt 0.2213135 0.9648438
vt 0.2214355 0.9643555
vt 0.2143555 0.9648438
vt 0.2142334 0.9638672
vt 0.2126465 0.9648438
vn 0.7871094 -0.6005859 0.1394043
vn 0.6264648 -0.7006836 0.3413086
vn 0.534668 -0.6000977 0.5947266
vn 0.9174805 -0.3547363 0.1810303
vn 0.8251953 -0.5649414 -0.004528046
vn 0.9887695 -0.1491699 0.0009055138
vn 0.8325195 -0.5532227 0.01879883
vn 0.9897461 -0.1428223 0.01800537
vn 0.8227539 -0.5566406 -0.112915
vn 0.934082 -0.3093262 -0.1785889
vn 0.6044922 -0.7231445 -0.3334961
vn 0.8227539 -0.5566406 -0.112915
vn 0.934082 -0.3093262 -0.1785889
vn 0.5068359 -0.609375 -0.6098633
vn 0.7617188 -0.5942383 -0.2590332
vn 0.8701172 -0.4824219 -0.1015015
vn 0.9897461 -0.1428223 0.01800537
vn 0.9765625 -0.2143555 0.02256775
vn 0.5800781 -0.8139648 0.03607178
vn 0.4929199 -0.8666992 0.07391357
vn 0.2763672 -0.9604492 0.03363037
vn 0.3193359 -0.9008789 0.2937012
vn 0.5356445 -0.6494141 -0.5400391
vn 0.6123047 -0.4909668 -0.6196289
vn 0.9086914 -0.338623 -0.2437744
vn 0.5888672 -0.7832031 -0.1982422
vn 0.6352539 -0.5161133 -0.5742188
vn 0.7260742 -0.2695313 -0.6328125
vn 0.96875 -0.09869385 -0.2277832
vn 0.161499 -0.9541016 0.251709
vn 0.1660156 -0.9858398 0.03045654
vn -0.07910156 -0.996582 0.02615356
vn 0.7685547 -0.07904053 -0.6347656
vn 0.9672852 0.1789551 -0.1807861
vn 0.75 0.1361084 -0.6469727
vn 0.8696289 0.4614258 -0.1761475
vn 0.793457 -0.0859375 -0.6025391
vn 0.7514648 -0.2814941 -0.5966797
vn 0.7573242 -0.6137695 -0.2219238
vn 0.5703125 -0.7280273 0.380127
vn 0.9267578 -0.3476563 -0.1433105
vn 0.7358398 -0.546875 0.3994141
vn 0.6738281 0.3720703 -0.6386719
vn 0.7436523 0.6030273 -0.2878418
vn 0.5913086 0.4858398 -0.644043
vn 0.918457 0.3808594 -0.1046143
vn 0.6977539 0.3830566 -0.6049805
vn 0.7753906 0.1337891 -0.6171875
vn 0.9829102 -0.1104126 -0.1484375
vn 0.5126953 -0.644043 0.5678711
vn 0.9746094 0.1097412 -0.1960449
vn 0.9213867 0.3884277 0.01750183
vn 0.9985352 -0.05081177 0.01890564
vn 0.9995117 0.01834106 0.02378845
vn 0.9545898 0.279541 -0.1027222
vn 0.8461914 -0.3195801 0.4267578
vn 0.9746094 0.1607666 -0.1569824
vn 0.6298828 0.5185547 -0.5786133
vn 0.6635742 0.7436523 0.07867432
vn 0.7368164 0.675293 0.03668213
vn 0.5029297 0.8134766 0.2919922
vn 0.4770508 0.878418 0.03335571
vn 0.8994141 -0.1018066 0.425293
vn 0.7612305 -0.2873535 0.5810547
vn 0.8540039 0.4628906 -0.2366943
vn 0.7294922 0.6523438 -0.206543
vn 0.8916016 0.1484375 0.4277344
vn 0.7011719 0.6044922 0.3776855
vn 0.8232422 0.4047852 0.3981934
vn 0.8017578 0.1335449 0.5825195
vn 0.628418 0.5327148 0.5668945
vn 0.8081055 -0.09155273 0.581543
vn 0.7348633 0.3549805 0.5776367
vn 0.6103516 0.1026611 0.7856445
vn 0.5795898 -0.2193604 0.784668
vn 0.6147461 -0.06951904 0.7856445
vn 0.6586914 -0.4819336 0.5776367
vn 0.4777832 0.3979492 0.7832031
vn 0.559082 0.267334 0.784668
vn 0.3383789 0.0581665 0.9389648
vn 0.4770508 0.675293 0.5629883
vn 0.5019531 -0.3637695 0.784668
vn 0.3908691 -0.4824219 0.7836914
vn 0.3205566 -0.1221313 0.9394531
vn 0.3366699 -0.0369873 0.940918
vn 0.3061523 0.1477051 0.9404297
vn 0.2636719 0.2232666 0.9384766
vn 0.2741699 -0.2008057 0.9404297
vn 0.357666 0.5097656 0.7827148
vn -0.00750351 0.001211166 1
vn 0.1943359 0.2827148 0.9394531
vn 0.1325684 -0.3164063 0.9394531
vn 0.0259552 0.3457031 0.9379883
vn 0.2150879 -0.2695313 0.9384766
vn 0.116272 0.3288574 0.9370117
vn 0.2144775 0.5864258 0.78125
vn 0.2446289 -0.5727539 0.7827148
vn 0.05340576 0.6230469 0.7802734
vn 0.2878418 0.7705078 0.5688477
vn 0.3271484 -0.7583008 0.5639648
vn 0.1318359 -0.8115234 0.5688477
vn 0.09619141 -0.6171875 0.7807617
vn -0.08099365 -0.9648438 0.2504883
vn 0.07049561 0.8203125 0.5678711
vn 0.3442383 0.9047852 0.2512207
vn 0.3552246 0.934082 0.02973938
vn 0.1026611 0.9946289 0.02520752
vn 0.09344482 0.9638672 0.2502441
vn -0.1594238 0.9550781 0.2498779
vn -0.1630859 0.9863281 0.02333069
vn -0.4172363 0.9086914 0.02145386
vn -0.1387939 0.8149414 0.5625
vn -0.1077271 0.6181641 0.7788086
vn -0.404541 0.8798828 0.2496338
vn -0.06402588 0.3466797 0.9360352
vn -0.3464355 0.7514648 0.5615234
vn -0.6157227 0.7480469 0.2475586
vn -0.6342773 0.7729492 0.02006531
vn -0.8144531 0.5800781 0.01887512
vn -0.1506348 0.3161621 0.9365234
vn -0.265625 0.5698242 0.777832
vn -0.5273438 0.6381836 0.5605469
vn -0.7900391 0.5615234 0.2462158
vn -0.4025879 0.484375 0.7768555
vn -0.229126 0.2717285 0.9345703
vn -0.6762695 0.4790039 0.5595703
vn -0.9072266 0.3410645 0.2457275
vn -0.9355469 0.3520508 0.01831055
vn -0.9951172 0.09503174 0.01811218
vn -0.2888184 0.2020264 0.9355469
vn -0.5151367 0.3635254 0.7763672
vn -0.7763672 0.2912598 0.559082
vn -0.5913086 0.2213135 0.7753906
vn -0.3347168 0.1244507 0.934082
vn -0.9648438 0.09228516 0.2456055
vn -0.3515625 0.03421021 0.9355469
vn -0.8256836 0.07910156 0.559082
vn -0.6279297 0.06036377 0.7758789
vn -0.8178711 -0.133667 0.5595703
vn -0.6230469 -0.1009521 0.7758789
vn -0.3525391 -0.05587769 0.934082
vn -0.3220215 -0.1425781 0.9360352
vn -0.574707 -0.2587891 0.7763672
vn -0.956543 -0.1573486 0.2459717
vn -0.7543945 -0.342041 0.5600586
vn -0.9863281 -0.1628418 0.01855469
vn -0.909668 -0.4152832 0.01937866
vn -0.8818359 -0.4016113 0.2468262
vn -0.7495117 -0.6132813 0.2480469
vn -0.7729492 -0.6342773 0.02073669
vn -0.5800781 -0.8139648 0.0222168
vn -0.6420898 -0.5224609 0.5610352
vn -0.4892578 -0.395752 0.7768555
vn -0.2775879 -0.2209473 0.9350586
vn -0.5629883 -0.7875977 0.2502441
vn -0.2080078 -0.2807617 0.9370117
vn -0.4824219 -0.671875 0.5620117
vn -0.3684082 -0.5083008 0.7783203
vn -0.3425293 -0.9057617 0.2502441
vn -0.3522949 -0.9355469 0.02397156
vn -0.295166 -0.7714844 0.5634766
vn -0.03720093 -0.3444824 0.9379883
vn -0.2261963 -0.5844727 0.7792969
vn -0.07757568 -0.8193359 0.5678711
vn -0.1303711 -0.326416 0.9360352
vn -0.05889893 -0.6225586 0.7802734
vn 0.04995728 -0.3442383 0.9375
vn 0.8803711 0.4418945 0.1733398
vn 0.9135742 0.4069824 -0.003044128
vn 0.9995117 -0.03759766 0.003259659
vn 0.9692383 0.1811523 0.1655273
vn 0.7197266 0.5107422 0.4699707
vn 0.9326172 0.3508301 0.08685303
vn 0.9995117 0.02600098 -0.001725197
vn 0.7299805 0.6831055 -0.02441406
vn 0.6357422 0.4694824 0.612793
vn 0.7602539 0.3671875 0.5356445
vn 0.6479492 0.7578125 -0.07989502
vn 0.4758301 0.8789063 -0.02880859
vn 0.6298828 0.3288574 0.7036133
vn 0.8745117 0.1433105 0.4631348
vn 0.6791992 0.534668 0.5029297
vn 0.5053711 0.8046875 -0.3112793
vn 0.3549805 0.9345703 -0.02780151
vn 0.6738281 0.1095581 0.730957
vn 0.9394531 -0.1050415 0.3256836
vn 0.7060547 0.3876953 0.5927734
vn 0.7387695 0.6445313 0.1971436
vn 0.7158203 -0.0824585 0.6933594
vn 0.8979492 -0.3378906 0.2824707
vn 0.6835938 -0.2587891 0.6826172
vn 0.7602539 -0.5766602 0.2993164
vn 0.7578125 -0.08666992 0.6464844
vn 0.7543945 0.1199341 0.6450195
vn 0.8481445 0.4606934 0.2607422
vn 0.7080078 0.6020508 -0.3691406
vn 0.9682617 0.1605225 0.1922607
vn 0.59375 -0.4699707 0.652832
vn 0.6264648 -0.7006836 0.3413086
vn 0.534668 -0.6000977 0.5947266
vn 0.6171875 -0.5043945 0.6040039
vn 0.715332 -0.2697754 0.6450195
vn 0.5532227 -0.6474609 0.5239258
vn 0.9755859 -0.1099243 0.1890869
vn 0.9194336 -0.3457031 0.1872559
vn 0.9755859 -0.1099243 0.1890869
vn 0.8300781 0.4033203 -0.3847656
vn 0.8984375 0.1479492 -0.4133301
vn 0.8457031 -0.5229492 0.1065063
vn 0.9174805 -0.3547363 0.1810303
vn 0.7436523 0.3525391 -0.5678711
vn 0.90625 -0.1027222 -0.4099121
vn 0.9194336 -0.3457031 0.1872559
vn 0.8530273 -0.3210449 -0.4111328
vn 0.7495117 -0.6088867 0.2595215
vn 0.6171875 -0.5043945 0.6040039
vn 0.8168945 -0.09289551 -0.5693359
vn 0.9760742 -0.2171631 -0.003704071
vn 0.9887695 -0.1491699 0.0009055138
vn 0.5952148 -0.7768555 0.206665
vn 0.4912109 -0.8681641 -0.07196045
vn 0.5766602 -0.8168945 -0.02430725
vn 0.3254395 -0.8930664 -0.3112793
vn 0.2758789 -0.9609375 -0.02790833
vn 0.1657715 -0.9858398 -0.02662659
vn 0.5771484 -0.7290039 -0.3686523
vn 0.7426758 -0.5483398 -0.3842773
vn 0.6674805 -0.4829102 -0.5668945
vn 0.7700195 -0.2885742 -0.5693359
vn 0.1616211 -0.9472656 -0.2770996
vn 0.3352051 -0.7592773 -0.5576172
vn 0.5209961 -0.6445313 -0.5595703
vn 0.5136719 -0.3657227 -0.7763672
vn -0.07720947 -0.956543 -0.2807617
vn -0.07873535 -0.996582 -0.02606201
vn -0.3518066 -0.9355469 -0.02806091
vn 0.6264648 -0.07141113 -0.7758789
vn 0.5913086 -0.2213135 -0.7753906
vn 0.2883301 -0.203125 -0.9355469
vn 0.3505859 -0.03927612 -0.9355469
vn 0.4025879 -0.484375 -0.7768555
vn 0.8100586 0.1322021 -0.5712891
vn 0.3347168 -0.1243896 -0.934082
vn 0.6220703 0.100769 -0.7763672
vn 0.5708008 0.2653809 -0.7768555
vn 0.3200684 0.1453857 -0.9360352
vn 0.3525391 0.0559082 -0.934082
vn 0.6367188 0.5302734 -0.5600586
vn 0.00750351 -0.00121212 -1
vn 0.1466064 -0.3186035 -0.9365234
vn 0.2084961 0.2805176 -0.9370117
vn -0.02308655 -0.3466797 -0.9375
vn 0.04003906 0.3435059 -0.9384766
vn -0.1938477 -0.282959 -0.9394531
vn -0.1365967 0.3137207 -0.9394531
vn -0.3078613 -0.1447754 -0.9404297
vn -0.2749023 0.1998291 -0.9404297
vn -0.3376465 0.03192139 -0.940918
vn 0.229126 -0.2717285 -0.9345703
vn 0.2563477 -0.5742188 -0.7773438
vn 0.1402588 -0.8129883 -0.5649414
vn 0.1079102 -0.6191406 -0.777832
vn -0.06903076 -0.8208008 -0.5668945
vn 0.06402588 -0.3464355 -0.9360352
vn -0.04718018 -0.6245117 -0.7797852
vn -0.3354492 -0.8979492 -0.2851563
vn -0.2866211 -0.7729492 -0.565918
vn -0.2144775 -0.5864258 -0.78125
vn -0.5537109 -0.7807617 -0.2885742
vn -0.5795898 -0.8144531 -0.03004456
vn -0.7724609 -0.6342773 -0.03186035
vn -0.116272 -0.3288574 -0.9370117
vn -0.3566895 -0.5102539 -0.7827148
vn -0.4741211 -0.6733398 -0.5673828
vn -0.7387695 -0.6083984 -0.2897949
vn -0.6333008 -0.5239258 -0.5693359
vn -0.4775391 -0.3977051 -0.7832031
vn -0.8696289 -0.3984375 -0.2907715
vn -0.9091797 -0.4152832 -0.03311157
vn -0.9858398 -0.1628418 -0.03405762
vn -0.2636719 -0.2231445 -0.9384766
vn -0.5629883 -0.2607422 -0.784668
vn -0.7460938 -0.3435059 -0.5703125
vn -0.9433594 -0.1564941 -0.291748
vn -0.8095703 -0.1351318 -0.5712891
vn -0.6113281 -0.1028442 -0.784668
vn -0.9521484 0.09075928 -0.2919922
vn -0.9951172 0.0949707 -0.03436279
vn -0.3383789 -0.05813599 -0.9394531
vn -0.6162109 0.05847168 -0.7851563
vn -0.8168945 0.07775879 -0.5712891
vn -0.5795898 0.2193604 -0.784668
vn -0.7675781 0.2897949 -0.5712891
vn -0.8950195 0.3371582 -0.2919922
vn -0.3205566 0.1221924 -0.9394531
vn -0.503418 0.3615723 -0.784668
vn -0.9355469 0.3520508 -0.03430176
vn -0.6679688 0.4777832 -0.5708008
vn -0.7788086 0.5556641 -0.2912598
vn -0.8139648 0.5800781 -0.03359985
vn -0.6337891 0.7724609 -0.03256226
vn -0.605957 0.7407227 -0.2905273
vn -0.519043 0.6367188 -0.5703125
vn -0.3908691 0.482666 -0.7836914
vn -0.3967285 0.8710938 -0.2895508
vn -0.4169922 0.9082031 -0.03100586
vn -0.1625977 0.9863281 -0.02919006
vn -0.2150879 0.2695313 -0.9384766
vn -0.2539063 0.5678711 -0.7832031
vn -0.3381348 0.75 -0.5683594
vn -0.1539307 0.9453125 -0.2868652
vn -0.130249 0.8134766 -0.5668945
vn -0.0960083 0.6162109 -0.7817383
vn 0.09649658 0.9545898 -0.2827148
vn 0.1032715 0.9941406 -0.02731323
vn -0.04995728 0.3442383 -0.9375
vn 0.06512451 0.621582 -0.7807617
vn 0.07922363 0.8188477 -0.5683594
vn 0.3427734 0.8974609 -0.2780762
vn 0.2963867 0.769043 -0.565918
vn 0.4846191 0.6733398 -0.5581055
vn 0.2261963 0.5844727 -0.7792969
vn 0.3693848 0.5078125 -0.7783203
vn 0.1303711 0.326416 -0.9360352
vn 0.489502 0.3959961 -0.7768555
vn 0.2775879 0.2209473 -0.9350586
vn 0.9135742 0.4069824 -0.003044128
vn 0.9213867 0.3884277 0.01750183
vn 0.9985352 -0.05081177 0.01890564
vn 0.9995117 -0.03759766 0.003259659
vn 0.9995117 0.02600098 -0.001725197
vn 0.9995117 0.01834106 0.02378845
vn 0.7368164 0.675293 0.03668213
vn 0.7299805 0.6831055 -0.02441406
vn 0.4770508 0.878418 0.03335571
vn 0.4758301 0.8789063 -0.02880859
vn 0.3552246 0.934082 0.02973938
vn 0.3549805 0.9345703 -0.02780151
vn 0.1032715 0.9941406 -0.02731323
vn 0.1026611 0.9946289 0.02520752
vn -0.1630859 0.9863281 0.02333069
vn -0.1625977 0.9863281 -0.02919006
vn -0.4169922 0.9082031 -0.03100586
vn -0.4172363 0.9086914 0.02145386
vn -0.6342773 0.7729492 0.02006531
vn -0.6337891 0.7724609 -0.03256226
vn -0.8139648 0.5800781 -0.03359985
vn -0.8144531 0.5800781 0.01887512
vn -0.9355469 0.3520508 0.01831055
vn -0.9355469 0.3520508 -0.03430176
vn -0.9863281 -0.1628418 0.01855469
vn -0.9858398 -0.1628418 -0.03405762
vn -0.9091797 -0.4152832 -0.03311157
vn -0.909668 -0.4152832 0.01937866
vn -0.7729492 -0.6342773 0.02073669
vn -0.7724609 -0.6342773 -0.03186035
vn -0.5795898 -0.8144531 -0.03004456
vn -0.5800781 -0.8139648 0.0222168
vn -0.3522949 -0.9355469 0.02397156
vn -0.3518066 -0.9355469 -0.02806091
vn -0.07873535 -0.996582 -0.02606201
vn -0.07910156 -0.996582 0.02615356
vn 0.1660156 -0.9858398 0.03045654
vn 0.1657715 -0.9858398 -0.02662659
vn 0.2758789 -0.9609375 -0.02790833
vn 0.2763672 -0.9604492 0.03363037
vn 0.5800781 -0.8139648 0.03607178
vn 0.5766602 -0.8168945 -0.02430725
vn 0.9765625 -0.2143555 0.02256775
vn 0.9897461 -0.1428223 0.01800537
vn 0.9887695 -0.1491699 0.0009055138
vn 0.9760742 -0.2171631 -0.003704071
vn 0.5766602 -0.8168945 -0.02430725
vn 0.5800781 -0.8139648 0.03607178
vn 0.6171875 -0.5043945 0.6040039
vn 0.715332 -0.2697754 0.6450195
vn 0.8696289 0.4614258 -0.1761475
vn 0.7436523 0.6030273 -0.2878418
vn 0.7680664 0.6289063 0.1203613
vn 0.8740234 0.4606934 0.1555176
vn 0.9672852 0.1789551 -0.1807861
vn 0.9707031 0.1690674 0.170166
vn 0.96875 -0.09869385 -0.2277832
vn 0.7724609 0.628418 0.09063721
vn 0.918457 0.3808594 -0.1046143
vn 0.737793 0.6748047 0.01957703
vn 0.9213867 0.3884277 0.01750183
vn 0.8867188 0.4614258 0.03314209
vn 0.7329102 0.6801758 -0.01538849
vn 0.9135742 0.4069824 -0.003044128
vn 0.7514648 0.6591797 0.02496338
vn 0.7612305 0.6430664 -0.08331299
vn 0.8803711 0.4418945 0.1733398
vn 0.7509766 0.6601563 -0.01953125
vn 0.7709961 0.6235352 -0.1308594
vn 0.7197266 0.5107422 0.4699707
vn 0.8837891 0.4335938 -0.1765137
vn 0.7602539 0.3671875 0.5356445
vn 0.8876953 0.4602051 -0.02381897
vn 0.96875 0.1617432 -0.1879883
vn 0.8745117 0.1433105 0.4631348
vn 0.9858398 0.163208 0.0355835
vn 0.9863281 0.1634521 -0.02360535
vn 0.9760742 -0.1088257 -0.1888428
vn 0.9394531 -0.1050415 0.3256836
vn 0.9936523 -0.1124878 -0.02165222
vn 0.9931641 -0.1124268 0.03598022
vn 0.9189453 -0.3452148 -0.1905518
vn 0.8979492 -0.3378906 0.2824707
vn 0.9355469 -0.3520508 -0.02137756
vn 0.7841797 -0.59375 -0.1806641
vn 0.7602539 -0.5766602 0.2993164
vn 0.9350586 -0.3520508 0.03591919
vn 0.9799805 -0.1067505 0.1668701
vn 0.9086914 -0.338623 -0.2437744
vn 0.9233398 -0.3459473 0.166626
vn 0.7617188 -0.5942383 -0.2590332
vn 0.7880859 -0.6152344 -0.0206604
vn 0.6308594 -0.7636719 -0.1365967
vn 0.6264648 -0.7006836 0.3413086
vn 0.7807617 -0.6054688 0.1540527
vn 0.6044922 -0.7231445 -0.3334961
vn 0.7875977 -0.6152344 0.03384399
vn 0.6337891 -0.7646484 0.1184692
vn 0.8227539 -0.5566406 -0.112915
vn 0.6118164 -0.7910156 -0.01696777
vn 0.6235352 -0.7768555 -0.08770752
vn 0.7871094 -0.6005859 0.1394043
vn 0.612793 -0.7895508 0.02650452
vn 0.5932617 -0.8046875 -0.01368713
vn 0.8251953 -0.5649414 -0.004528046
vn 0.5976563 -0.8012695 0.02182007
vn 0.8325195 -0.5532227 0.01879883
vn 0.6352539 -0.7670898 0.08752441
g Seat_08_0
f 3/3/3 2/2/2 1/1/1
f 4/4/4 3/3/3 1/1/1
f 1/1/1 5/5/5 4/4/4
f 5/5/5 6/6/6 4/4/4
f 5/5/5 7/7/7 6/6/6
f 7/7/7 8/8/8 6/6/6
f 7/7/7 9/9/9 8/8/8
f 9/9/9 10/10/10 8/8/8
f 13/13/13 12/12/12 11/11/11
f 14/14/14 13/13/13 11/11/11
f 14/14/14 11/11/11 15/15/15
f 16/16/16 13/13/13 14/14/14
f 17/17/17 13/13/13 16/16/16
f 18/18/18 17/17/17 16/16/16
f 19/19/19 18/18/18 16/16/16
f 20/20/20 19/19/19 16/16/16
f 21/21/21 19/19/19 20/20/20
f 22/22/22 21/21/21 20/20/20
f 16/16/16 23/23/23 20/20/20
f 23/23/23 16/16/16 14/14/14
f 24/24/24 14/14/14 15/15/15
f 15/15/15 25/25/25 24/24/24
f 23/23/23 26/26/26 20/20/20
f 20/20/20 26/26/26 22/22/22
f 23/23/23 14/14/14 27/27/27
f 14/14/14 24/24/24 27/27/27
f 23/23/23 27/27/27 26/26/26
f 25/25/25 28/28/28 24/24/24
f 27/27/27 24/24/24 28/28/28
f 25/25/25 29/29/29 28/28/28
f 21/21/21 22/22/22 30/30/30
f 31/31/31 21/21/21 30/30/30
f 31/31/31 30/30/30 32/32/32
f 29/29/29 33/33/33 28/28/28
f 29/29/29 34/34/34 33/33/33
f 34/34/34 35/35/35 33/33/33
f 34/34/34 36/36/36 35/35/35
f 28/28/28 33/33/33 37/37/37
f 37/37/37 33/33/33 35/35/35
f 38/38/38 27/27/27 28/28/28
f 38/38/38 28/28/28 37/37/37
f 27/27/27 38/38/38 39/39/39
f 27/27/27 39/39/39 26/26/26
f 26/26/26 40/40/40 22/22/22
f 26/26/26 39/39/39 40/40/40
f 38/38/38 41/41/41 39/39/39
f 38/38/38 37/37/37 41/41/41
f 39/39/39 42/42/42 40/40/40
f 39/39/39 41/41/41 42/42/42
f 36/36/36 43/43/43 35/35/35
f 36/36/36 44/44/44 43/43/43
f 44/44/44 45/45/45 43/43/43
f 44/44/44 46/46/46 45/45/45
f 35/35/35 43/43/43 47/47/47
f 47/47/47 43/43/43 45/45/45
f 48/48/48 37/37/37 35/35/35
f 48/48/48 35/35/35 47/47/47
f 37/37/37 49/49/49 41/41/41
f 37/37/37 48/48/48 49/49/49
f 40/40/40 42/42/42 50/50/50
f 40/40/40 50/50/50 22/22/22
f 46/46/46 51/51/51 45/45/45
f 51/51/51 46/46/46 52/52/52
f 53/53/53 51/51/51 52/52/52
f 51/51/51 53/53/53 54/54/54
f 45/45/45 51/51/51 55/55/55
f 55/55/55 51/51/51 54/54/54
f 41/41/41 56/56/56 42/42/42
f 41/41/41 49/49/49 56/56/56
f 48/48/48 57/57/57 49/49/49
f 48/48/48 47/47/47 57/57/57
f 58/58/58 47/47/47 45/45/45
f 58/58/58 45/45/45 55/55/55
f 55/55/55 54/54/54 59/59/59
f 54/54/54 60/60/60 59/59/59
f 59/59/59 60/60/60 61/61/61
f 60/60/60 62/62/62 61/61/61
f 49/49/49 63/63/63 56/56/56
f 49/49/49 57/57/57 63/63/63
f 56/56/56 64/64/64 42/42/42
f 56/56/56 63/63/63 64/64/64
f 47/47/47 58/58/58 65/65/65
f 47/47/47 65/65/65 57/57/57
f 58/58/58 55/55/55 66/66/66
f 55/55/55 59/59/59 66/66/66
f 58/58/58 66/66/66 65/65/65
f 57/57/57 65/65/65 67/67/67
f 57/57/57 67/67/67 63/63/63
f 66/66/66 59/59/59 68/68/68
f 59/59/59 61/61/61 68/68/68
f 65/65/65 66/66/66 69/69/69
f 65/65/65 69/69/69 67/67/67
f 66/66/66 68/68/68 69/69/69
f 67/67/67 70/70/70 63/63/63
f 67/67/67 69/69/69 70/70/70
f 68/68/68 71/71/71 69/69/69
f 68/68/68 61/61/61 71/71/71
f 63/63/63 72/72/72 64/64/64
f 70/70/70 72/72/72 63/63/63
f 69/69/69 73/73/73 70/70/70
f 71/71/71 73/73/73 69/69/69
f 70/70/70 74/74/74 72/72/72
f 70/70/70 73/73/73 74/74/74
f 64/64/64 72/72/72 75/75/75
f 74/74/74 76/76/76 72/72/72
f 72/72/72 76/76/76 75/75/75
f 64/64/64 75/75/75 77/77/77
f 64/64/64 77/77/77 42/42/42
f 42/42/42 77/77/77 50/50/50
f 71/71/71 78/78/78 73/73/73
f 73/73/73 79/79/79 74/74/74
f 78/78/78 79/79/79 73/73/73
f 74/74/74 80/80/80 76/76/76
f 74/74/74 79/79/79 80/80/80
f 71/71/71 81/81/81 78/78/78
f 61/61/61 81/81/81 71/71/71
f 75/75/75 82/82/82 77/77/77
f 50/50/50 77/77/77 83/83/83
f 77/77/77 82/82/82 83/83/83
f 75/75/75 76/76/76 84/84/84
f 75/75/75 84/84/84 82/82/82
f 80/80/80 85/85/85 76/76/76
f 76/76/76 85/85/85 84/84/84
f 79/79/79 86/86/86 80/80/80
f 80/80/80 86/86/86 85/85/85
f 78/78/78 87/87/87 79/79/79
f 87/87/87 86/86/86 79/79/79
f 84/84/84 88/88/88 82/82/82
f 84/84/84 85/85/85 88/88/88
f 78/78/78 89/89/89 87/87/87
f 81/81/81 89/89/89 78/78/78
f 86/86/86 90/90/90 85/85/85
f 85/85/85 90/90/90 88/88/88
f 87/87/87 91/91/91 86/86/86
f 91/91/91 90/90/90 86/86/86
f 89/89/89 91/91/91 87/87/87
f 88/88/88 90/90/90 92/92/92
f 93/93/93 90/90/90 91/91/91
f 82/82/82 88/88/88 94/94/94
f 94/94/94 88/88/88 92/92/92
f 83/83/83 82/82/82 94/94/94
f 95/95/95 91/91/91 89/89/89
f 95/95/95 93/93/93 91/91/91
f 96/96/96 89/89/89 81/81/81
f 96/96/96 95/95/95 89/89/89
f 83/83/83 94/94/94 97/97/97
f 94/94/94 92/92/92 97/97/97
f 98/98/98 93/93/93 95/95/95
f 96/96/96 98/98/98 95/95/95
f 99/99/99 96/96/96 81/81/81
f 99/99/99 81/81/81 61/61/61
f 83/83/83 97/97/97 100/100/100
f 50/50/50 83/83/83 100/100/100
f 50/50/50 100/100/100 22/22/22
f 22/22/22 100/100/100 101/101/101
f 30/30/30 22/22/22 101/101/101
f 100/100/100 97/97/97 102/102/102
f 101/101/101 100/100/100 102/102/102
f 30/30/30 101/101/101 103/103/103
f 30/30/30 103/103/103 32/32/32
f 104/104/104 98/98/98 96/96/96
f 99/99/99 104/104/104 96/96/96
f 105/105/105 99/99/99 61/61/61
f 105/105/105 61/61/61 62/62/62
f 106/106/106 105/105/105 62/62/62
f 106/106/106 107/107/107 105/105/105
f 105/105/105 108/108/108 99/99/99
f 107/107/107 108/108/108 105/105/105
f 108/108/108 104/104/104 99/99/99
f 109/109/109 108/108/108 107/107/107
f 110/110/110 109/109/109 107/107/107
f 110/110/110 111/111/111 109/109/109
f 112/112/112 104/104/104 108/108/108
f 109/109/109 112/112/112 108/108/108
f 113/113/113 98/98/98 104/104/104
f 112/112/112 113/113/113 104/104/104
f 111/111/111 114/114/114 109/109/109
f 109/109/109 114/114/114 112/112/112
f 113/113/113 115/115/115 98/98/98
f 115/115/115 93/93/93 98/98/98
f 112/112/112 116/116/116 113/113/113
f 114/114/114 116/116/116 112/112/112
f 117/117/117 114/114/114 111/111/111
f 118/118/118 117/117/117 111/111/111
f 118/118/118 119/119/119 117/117/117
f 115/115/115 120/120/120 93/93/93
f 120/120/120 90/90/90 93/93/93
f 113/113/113 121/121/121 115/115/115
f 116/116/116 121/121/121 113/113/113
f 121/121/121 120/120/120 115/115/115
f 122/122/122 116/116/116 114/114/114
f 117/117/117 122/122/122 114/114/114
f 119/119/119 123/123/123 117/117/117
f 117/117/117 123/123/123 122/122/122
f 124/124/124 121/121/121 116/116/116
f 122/122/122 124/124/124 116/116/116
f 125/125/125 120/120/120 121/121/121
f 124/124/124 125/125/125 121/121/121
f 122/122/122 126/126/126 124/124/124
f 123/123/123 126/126/126 122/122/122
f 127/127/127 123/123/123 119/119/119
f 128/128/128 127/127/127 119/119/119
f 128/128/128 129/129/129 127/127/127
f 125/125/125 130/130/130 120/120/120
f 130/130/130 90/90/90 120/120/120
f 124/124/124 131/131/131 125/125/125
f 126/126/126 131/131/131 124/124/124
f 131/131/131 130/130/130 125/125/125
f 132/132/132 126/126/126 123/123/123
f 127/127/127 132/132/132 123/123/123
f 133/133/133 131/131/131 126/126/126
f 132/132/132 133/133/133 126/126/126
f 134/134/134 130/130/130 131/131/131
f 133/133/133 134/134/134 131/131/131
f 127/127/127 135/135/135 132/132/132
f 129/129/129 135/135/135 127/127/127
f 134/134/134 136/136/136 130/130/130
f 136/136/136 90/90/90 130/130/130
f 132/132/132 137/137/137 133/133/133
f 135/135/135 137/137/137 132/132/132
f 133/133/133 138/138/138 134/134/134
f 138/138/138 136/136/136 134/134/134
f 137/137/137 138/138/138 133/133/133
f 139/139/139 137/137/137 135/135/135
f 140/140/140 138/138/138 137/137/137
f 139/139/139 140/140/140 137/137/137
f 141/141/141 136/136/136 138/138/138
f 140/140/140 141/141/141 138/138/138
f 141/141/141 142/142/142 136/136/136
f 142/142/142 90/90/90 136/136/136
f 140/140/140 143/143/143 141/141/141
f 143/143/143 142/142/142 141/141/141
f 144/144/144 135/135/135 129/129/129
f 144/144/144 139/139/139 135/135/135
f 139/139/139 145/145/145 140/140/140
f 145/145/145 143/143/143 140/140/140
f 146/146/146 144/144/144 129/129/129
f 146/146/146 147/147/147 144/144/144
f 144/144/144 148/148/148 139/139/139
f 147/147/147 148/148/148 144/144/144
f 148/148/148 145/145/145 139/139/139
f 149/149/149 148/148/148 147/147/147
f 150/150/150 149/149/149 147/147/147
f 150/150/150 151/151/151 149/149/149
f 152/152/152 145/145/145 148/148/148
f 149/149/149 152/152/152 148/148/148
f 153/153/153 143/143/143 145/145/145
f 152/152/152 153/153/153 145/145/145
f 154/154/154 142/142/142 143/143/143
f 153/153/153 154/154/154 143/143/143
f 151/151/151 155/155/155 149/149/149
f 149/149/149 155/155/155 152/152/152
f 154/154/154 156/156/156 142/142/142
f 156/156/156 90/90/90 142/142/142
f 152/152/152 157/157/157 153/153/153
f 155/155/155 157/157/157 152/152/152
f 153/153/153 158/158/158 154/154/154
f 158/158/158 156/156/156 154/154/154
f 157/157/157 158/158/158 153/153/153
f 159/159/159 155/155/155 151/151/151
f 160/160/160 159/159/159 151/151/151
f 160/160/160 32/32/32 159/159/159
f 32/32/32 103/103/103 159/159/159
f 159/159/159 161/161/161 155/155/155
f 161/161/161 157/157/157 155/155/155
f 159/159/159 103/103/103 161/161/161
f 162/162/162 90/90/90 156/156/156
f 92/92/92 90/90/90 162/162/162
f 163/163/163 158/158/158 157/157/157
f 161/161/161 163/163/163 157/157/157
f 103/103/103 164/164/164 161/161/161
f 161/161/161 164/164/164 163/163/163
f 101/101/101 164/164/164 103/103/103
f 101/101/101 102/102/102 164/164/164
f 165/165/165 156/156/156 158/158/158
f 163/163/163 165/165/165 158/158/158
f 165/165/165 162/162/162 156/156/156
f 164/164/164 166/166/166 163/163/163
f 163/163/163 166/166/166 165/165/165
f 102/102/102 166/166/166 164/164/164
f 166/166/166 162/162/162 165/165/165
f 167/167/167 92/92/92 162/162/162
f 167/167/167 162/162/162 166/166/166
f 102/102/102 167/167/167 166/166/166
f 97/97/97 92/92/92 167/167/167
f 102/102/102 97/97/97 167/167/167
f 170/170/170 169/169/169 168/168/168
f 171/171/171 170/170/170 168/168/168
f 171/171/171 168/168/168 172/172/172
f 170/170/170 171/171/171 173/173/173
f 174/174/174 170/170/170 173/173/173
f 175/175/175 174/174/174 173/173/173
f 176/176/176 171/171/171 172/172/172
f 173/173/173 171/171/171 176/176/176
f 176/176/176 172/172/172 177/177/177
f 178/178/178 175/175/175 173/173/173
f 179/179/179 175/175/175 178/178/178
f 180/180/180 176/176/176 177/177/177
f 180/180/180 177/177/177 181/181/181
f 182/182/182 173/173/173 176/176/176
f 178/178/178 173/173/173 182/182/182
f 183/183/183 179/179/179 178/178/178
f 184/184/184 179/179/179 183/183/183
f 185/185/185 180/180/180 181/181/181
f 185/185/185 181/181/181 186/186/186
f 176/176/176 180/180/180 187/187/187
f 182/182/182 176/176/176 187/187/187
f 187/187/187 180/180/180 185/185/185
f 188/188/188 178/178/178 182/182/182
f 183/183/183 178/178/178 188/188/188
f 188/188/188 182/182/182 187/187/187
f 189/189/189 185/185/185 186/186/186
f 189/189/189 186/186/186 190/190/190
f 191/191/191 189/189/189 190/190/190
f 191/191/191 190/190/190 192/192/192
f 185/185/185 189/189/189 193/193/193
f 193/193/193 189/189/189 191/191/191
f 194/194/194 187/187/187 185/185/185
f 194/194/194 185/185/185 193/193/193
f 195/195/195 188/188/188 187/187/187
f 195/195/195 187/187/187 194/194/194
f 196/196/196 183/183/183 188/188/188
f 196/196/196 188/188/188 195/195/195
f 197/197/197 195/195/195 194/194/194
f 197/197/197 194/194/194 193/193/193
f 198/198/198 191/191/191 192/192/192
f 198/198/198 192/192/192 199/199/199
f 200/200/200 198/198/198 199/199/199
f 191/191/191 198/198/198 201/201/201
f 201/201/201 198/198/198 200/200/200
f 202/202/202 191/191/191 201/201/201
f 202/202/202 193/193/193 191/191/191
f 203/203/203 201/201/201 200/200/200
f 204/204/204 193/193/193 202/202/202
f 205/205/205 204/204/204 202/202/202
f 206/206/206 197/197/197 193/193/193
f 207/207/207 195/195/195 197/197/197
f 207/207/207 196/196/196 195/195/195
f 208/208/208 197/197/197 206/206/206
f 208/208/208 207/207/207 197/197/197
f 203/203/203 200/200/200 209/209/209
f 200/200/200 210/210/210 209/209/209
f 196/196/196 207/207/207 211/211/211
f 211/211/211 207/207/207 208/208/208
f 212/212/212 208/208/208 206/206/206
f 212/212/212 206/206/206 213/213/213
f 214/214/214 212/212/212 213/213/213
f 214/214/214 213/213/213 215/215/215
f 215/215/215 216/216/216 203/203/203
f 208/208/208 212/212/212 217/217/217
f 217/217/217 212/212/212 214/214/214
f 209/209/209 210/210/210 218/218/218
f 210/210/210 219/219/219 218/218/218
f 220/220/220 203/203/203 209/209/209
f 220/220/220 215/215/215 203/203/203
f 209/209/209 218/218/218 221/221/221
f 221/221/221 220/220/220 209/209/209
f 218/218/218 222/222/222 221/221/221
f 221/221/221 222/222/222 223/223/223
f 222/222/222 224/224/224 223/223/223
f 223/223/223 224/224/224 225/225/225
f 226/226/226 220/220/220 221/221/221
f 223/223/223 226/226/226 221/221/221
f 227/227/227 215/215/215 220/220/220
f 226/226/226 227/227/227 220/220/220
f 227/227/227 214/214/214 215/215/215
f 214/214/214 227/227/227 228/228/228
f 228/228/228 227/227/227 226/226/226
f 229/229/229 214/214/214 228/228/228
f 229/229/229 217/217/217 214/214/214
f 230/230/230 223/223/223 225/225/225
f 226/226/226 223/223/223 231/231/231
f 231/231/231 223/223/223 230/230/230
f 232/232/232 228/228/228 226/226/226
f 232/232/232 226/226/226 231/231/231
f 229/229/229 228/228/228 233/233/233
f 233/233/233 228/228/228 232/232/232
f 230/230/230 225/225/225 234/234/234
f 225/225/225 235/235/235 234/234/234
f 234/234/234 235/235/235 236/236/236
f 237/237/237 217/217/217 229/229/229
f 238/238/238 229/229/229 233/233/233
f 238/238/238 237/237/237 229/229/229
f 238/238/238 233/233/233 239/239/239
f 240/240/240 237/237/237 238/238/238
f 241/241/241 233/233/233 232/232/232
f 239/239/239 233/233/233 241/241/241
f 242/242/242 217/217/217 237/237/237
f 242/242/242 208/208/208 217/217/217
f 242/242/242 211/211/211 208/208/208
f 243/243/243 238/238/238 239/239/239
f 243/243/243 240/240/240 238/238/238
f 243/243/243 239/239/239 240/240/240
f 244/244/244 242/242/242 237/237/237
f 244/244/244 237/237/237 240/240/240
f 245/245/245 211/211/211 242/242/242
f 244/244/244 245/245/245 242/242/242
f 246/246/246 245/245/245 244/244/244
f 247/247/247 244/244/244 240/240/240
f 247/247/247 246/246/246 244/244/244
f 247/247/247 240/240/240 246/246/246
f 248/248/248 211/211/211 245/245/245
f 248/248/248 196/196/196 211/211/211
f 239/239/239 249/249/249 240/240/240
f 240/240/240 249/249/249 246/246/246
f 250/250/250 249/249/249 239/239/239
f 246/246/246 249/249/249 251/251/251
f 252/252/252 249/249/249 250/250/250
f 251/251/251 249/249/249 253/253/253
f 254/254/254 249/249/249 252/252/252
f 253/253/253 249/249/249 255/255/255
f 256/256/256 249/249/249 254/254/254
f 255/255/255 249/249/249 257/257/257
f 258/258/258 249/249/249 256/256/256
f 257/257/257 249/249/249 258/258/258
f 259/259/259 250/250/250 239/239/239
f 259/259/259 239/239/239 241/241/241
f 259/259/259 241/241/241 250/250/250
f 241/241/241 260/260/260 250/250/250
f 241/241/241 232/232/232 260/260/260
f 232/232/232 231/231/231 260/260/260
f 260/260/260 231/231/231 261/261/261
f 261/261/261 231/231/231 230/230/230
f 250/250/250 260/260/260 262/262/262
f 262/262/262 260/260/260 261/261/261
f 261/261/261 230/230/230 263/263/263
f 230/230/230 234/234/234 263/263/263
f 264/264/264 250/250/250 262/262/262
f 264/264/264 252/252/252 250/250/250
f 264/264/264 262/262/262 252/252/252
f 262/262/262 261/261/261 265/265/265
f 261/261/261 263/263/263 265/265/265
f 262/262/262 265/265/265 252/252/252
f 263/263/263 234/234/234 266/266/266
f 266/266/266 234/234/234 236/236/236
f 265/265/265 263/263/263 267/267/267
f 267/267/267 263/263/263 266/266/266
f 252/252/252 265/265/265 268/268/268
f 268/268/268 265/265/265 267/267/267
f 266/266/266 236/236/236 269/269/269
f 236/236/236 270/270/270 269/269/269
f 269/269/269 270/270/270 271/271/271
f 272/272/272 252/252/252 268/268/268
f 272/272/272 254/254/254 252/252/252
f 272/272/272 268/268/268 254/254/254
f 268/268/268 267/267/267 273/273/273
f 268/268/268 273/273/273 254/254/254
f 267/267/267 266/266/266 274/274/274
f 266/266/266 269/269/269 274/274/274
f 267/267/267 274/274/274 273/273/273
f 275/275/275 269/269/269 271/271/271
f 274/274/274 269/269/269 275/275/275
f 273/273/273 274/274/274 276/276/276
f 276/276/276 274/274/274 275/275/275
f 254/254/254 273/273/273 277/277/277
f 277/277/277 273/273/273 276/276/276
f 275/275/275 271/271/271 278/278/278
f 271/271/271 279/279/279 278/278/278
f 278/278/278 279/279/279 280/280/280
f 281/281/281 254/254/254 277/277/277
f 281/281/281 256/256/256 254/254/254
f 281/281/281 277/277/277 256/256/256
f 277/277/277 276/276/276 282/282/282
f 277/277/277 282/282/282 256/256/256
f 276/276/276 275/275/275 283/283/283
f 275/275/275 278/278/278 283/283/283
f 276/276/276 283/283/283 282/282/282
f 284/284/284 278/278/278 280/280/280
f 283/283/283 278/278/278 284/284/284
f 282/282/282 283/283/283 285/285/285
f 285/285/285 283/283/283 284/284/284
f 256/256/256 282/282/282 286/286/286
f 286/286/286 282/282/282 285/285/285
f 284/284/284 280/280/280 287/287/287
f 280/280/280 288/288/288 287/287/287
f 289/289/289 256/256/256 286/286/286
f 289/289/289 258/258/258 256/256/256
f 289/289/289 286/286/286 258/258/258
f 286/286/286 285/285/285 290/290/290
f 286/286/286 290/290/290 258/258/258
f 285/285/285 284/284/284 291/291/291
f 284/284/284 287/287/287 291/291/291
f 285/285/285 291/291/291 290/290/290
f 258/258/258 290/290/290 292/292/292
f 290/290/290 291/291/291 293/293/293
f 292/292/292 290/290/290 293/293/293
f 291/291/291 287/287/287 294/294/294
f 293/293/293 291/291/291 294/294/294
f 295/295/295 258/258/258 292/292/292
f 295/295/295 257/257/257 258/258/258
f 295/295/295 292/292/292 257/257/257
f 292/292/292 293/293/293 296/296/296
f 292/292/292 296/296/296 257/257/257
f 294/294/294 287/287/287 297/297/297
f 287/287/287 288/288/288 297/297/297
f 293/293/293 294/294/294 298/298/298
f 293/293/293 298/298/298 296/296/296
f 294/294/294 297/297/297 299/299/299
f 294/294/294 299/299/299 298/298/298
f 297/297/297 300/300/300 299/299/299
f 299/299/299 300/300/300 301/301/301
f 298/298/298 299/299/299 302/302/302
f 302/302/302 299/299/299 301/301/301
f 296/296/296 298/298/298 303/303/303
f 303/303/303 298/298/298 302/302/302
f 257/257/257 296/296/296 304/304/304
f 304/304/304 296/296/296 303/303/303
f 302/302/302 301/301/301 305/305/305
f 301/301/301 306/306/306 305/305/305
f 305/305/305 306/306/306 307/307/307
f 308/308/308 257/257/257 304/304/304
f 308/308/308 255/255/255 257/257/257
f 308/308/308 304/304/304 255/255/255
f 304/304/304 303/303/303 309/309/309
f 304/304/304 309/309/309 255/255/255
f 303/303/303 302/302/302 310/310/310
f 302/302/302 305/305/305 310/310/310
f 303/303/303 310/310/310 309/309/309
f 311/311/311 305/305/305 307/307/307
f 310/310/310 305/305/305 311/311/311
f 309/309/309 310/310/310 312/312/312
f 312/312/312 310/310/310 311/311/311
f 255/255/255 309/309/309 313/313/313
f 313/313/313 309/309/309 312/312/312
f 311/311/311 307/307/307 314/314/314
f 307/307/307 315/315/315 314/314/314
f 314/314/314 315/315/315 184/184/184
f 316/316/316 255/255/255 313/313/313
f 316/316/316 253/253/253 255/255/255
f 316/316/316 313/313/313 253/253/253
f 313/313/313 312/312/312 317/317/317
f 313/313/313 317/317/317 253/253/253
f 312/312/312 311/311/311 318/318/318
f 311/311/311 314/314/314 318/318/318
f 312/312/312 318/318/318 317/317/317
f 319/319/319 314/314/314 184/184/184
f 318/318/318 314/314/314 319/319/319
f 319/319/319 184/184/184 183/183/183
f 317/317/317 318/318/318 320/320/320
f 320/320/320 318/318/318 319/319/319
f 319/319/319 183/183/183 321/321/321
f 320/320/320 319/319/319 321/321/321
f 321/321/321 183/183/183 196/196/196
f 248/248/248 321/321/321 196/196/196
f 253/253/253 317/317/317 322/322/322
f 322/322/322 317/317/317 320/320/320
f 320/320/320 321/321/321 323/323/323
f 323/323/323 321/321/321 248/248/248
f 322/322/322 320/320/320 323/323/323
f 324/324/324 253/253/253 322/322/322
f 324/324/324 251/251/251 253/253/253
f 324/324/324 322/322/322 251/251/251
f 322/322/322 323/323/323 251/251/251
f 325/325/325 323/323/323 248/248/248
f 251/251/251 323/323/323 325/325/325
f 325/325/325 248/248/248 245/245/245
f 325/325/325 245/245/245 246/246/246
f 326/326/326 246/246/246 251/251/251
f 326/326/326 325/325/325 246/246/246
f 326/326/326 251/251/251 325/325/325
f 329/329/329 328/328/328 327/327/327
f 330/330/330 329/329/329 327/327/327
f 329/329/329 330/330/330 331/331/331
f 332/332/332 329/329/329 331/331/331
f 333/333/333 332/332/332 331/331/331
f 334/334/334 333/333/333 331/331/331
f 335/335/335 333/333/333 334/334/334
f 336/336/336 335/335/335 334/334/334
f 337/337/337 335/335/335 336/336/336
f 338/338/338 337/337/337 336/336/336
f 338/338/338 339/339/339 337/337/337
f 339/339/339 340/340/340 337/337/337
f 341/341/341 340/340/340 339/339/339
f 342/342/342 341/341/341 339/339/339
f 342/342/342 343/343/343 341/341/341
f 343/343/343 344/344/344 341/341/341
f 345/345/345 344/344/344 343/343/343
f 346/346/346 345/345/345 343/343/343
f 346/346/346 347/347/347 345/345/345
f 347/347/347 348/348/348 345/345/345
f 349/349/349 348/348/348 347/347/347
f 350/350/350 349/349/349 347/347/347
f 350/350/350 288/288/288 349/349/349
f 288/288/288 129/129/129 349/349/349
f 351/351/351 129/129/129 288/288/288
f 352/352/352 351/351/351 288/288/288
f 352/352/352 353/353/353 351/351/351
f 353/353/353 354/354/354 351/351/351
f 355/355/355 354/354/354 353/353/353
f 356/356/356 355/355/355 353/353/353
f 356/356/356 357/357/357 355/355/355
f 357/357/357 358/358/358 355/355/355
f 359/359/359 358/358/358 357/357/357
f 360/360/360 359/359/359 357/357/357
f 360/360/360 361/361/361 359/359/359
f 361/361/361 362/362/362 359/359/359
f 363/363/363 362/362/362 361/361/361
f 364/364/364 363/363/363 361/361/361
f 364/364/364 365/365/365 363/363/363
f 365/365/365 366/366/366 363/363/363
f 367/367/367 366/366/366 365/365/365
f 368/368/368 367/367/367 365/365/365
f 371/371/371 370/370/370 369/369/369
f 372/372/372 371/371/371 369/369/369
f 372/372/372 369/369/369 373/373/373
f 369/369/369 374/374/374 373/373/373
f 205/205/205 376/376/376 375/375/375
f 215/215/215 205/205/205 375/375/375
f 379/379/379 378/378/378 377/377/377
f 380/380/380 379/379/379 377/377/377
f 380/380/380 377/377/377 381/381/381
f 382/382/382 380/380/380 381/381/381
f 382/382/382 381/381/381 383/383/383
f 379/379/379 384/384/384 378/378/378
f 384/384/384 385/385/385 378/378/378
f 385/385/385 384/384/384 386/386/386
f 386/386/386 384/384/384 379/379/379
f 387/387/387 385/385/385 386/386/386
f 379/379/379 380/380/380 388/388/388
f 388/388/388 380/380/380 382/382/382
f 387/387/387 386/386/386 389/389/389
f 390/390/390 387/387/387 389/389/389
f 391/391/391 386/386/386 379/379/379
f 391/391/391 379/379/379 388/388/388
f 389/389/389 386/386/386 391/391/391
f 390/390/390 389/389/389 392/392/392
f 393/393/393 390/390/390 392/392/392
f 394/394/394 389/389/389 391/391/391
f 392/392/392 389/389/389 394/394/394
f 393/393/393 392/392/392 395/395/395
f 395/395/395 392/392/392 394/394/394
f 396/396/396 393/393/393 395/395/395
f 396/396/396 395/395/395 397/397/397
f 395/395/395 394/394/394 397/397/397
f 398/398/398 396/396/396 397/397/397
f 394/394/394 391/391/391 399/399/399
f 391/391/391 388/388/388 399/399/399
f 394/394/394 399/399/399 397/397/397
f 398/398/398 397/397/397 400/400/400
f 401/401/401 398/398/398 400/400/400
f 399/399/399 388/388/388 402/402/402
f 402/402/402 388/388/388 382/382/382
f 397/397/397 399/399/399 403/403/403
f 400/400/400 397/397/397 403/403/403
f 403/403/403 399/399/399 402/402/402
f 401/401/401 400/400/400 404/404/404
f 400/400/400 403/403/403 404/404/404
f 405/405/405 401/401/401 404/404/404
f 403/403/403 402/402/402 406/406/406
f 403/403/403 406/406/406 404/404/404
f 402/402/402 382/382/382 407/407/407
f 402/402/402 407/407/407 406/406/406
f 405/405/405 404/404/404 408/408/408
f 409/409/409 405/405/405 408/408/408
f 404/404/404 406/406/406 410/410/410
f 408/408/408 404/404/404 410/410/410
f 409/409/409 408/408/408 411/411/411
f 408/408/408 410/410/410 411/411/411
f 412/412/412 409/409/409 411/411/411
f 410/410/410 406/406/406 413/413/413
f 406/406/406 407/407/407 413/413/413
f 382/382/382 414/414/414 407/407/407
f 414/414/414 382/382/382 383/383/383
f 414/414/414 383/383/383 415/415/415
f 407/407/407 414/414/414 416/416/416
f 416/416/416 414/414/414 415/415/415
f 413/413/413 407/407/407 416/416/416
f 416/416/416 415/415/415 417/417/417
f 410/410/410 413/413/413 418/418/418
f 410/410/410 418/418/418 411/411/411
f 412/412/412 411/411/411 419/419/419
f 420/420/420 412/412/412 419/419/419
f 421/421/421 416/416/416 417/417/417
f 417/417/417 422/422/422 421/421/421
f 413/413/413 416/416/416 423/423/423
f 416/416/416 421/421/421 423/423/423
f 413/413/413 423/423/423 418/418/418
f 422/422/422 424/424/424 421/421/421
f 423/423/423 421/421/421 424/424/424
f 422/422/422 425/425/425 424/424/424
f 411/411/411 418/418/418 426/426/426
f 419/419/419 411/411/411 426/426/426
f 420/420/420 419/419/419 427/427/427
f 419/419/419 426/426/426 427/427/427
f 428/428/428 420/420/420 427/427/427
f 418/418/418 423/423/423 429/429/429
f 426/426/426 418/418/418 429/429/429
f 429/429/429 423/423/423 424/424/424
f 426/426/426 430/430/430 427/427/427
f 427/427/427 430/430/430 428/428/428
f 426/426/426 429/429/429 430/430/430
f 430/430/430 431/431/431 428/428/428
f 429/429/429 432/432/432 430/430/430
f 430/430/430 432/432/432 431/431/431
f 429/429/429 424/424/424 432/432/432
f 432/432/432 433/433/433 431/431/431
f 425/425/425 434/434/434 424/424/424
f 434/434/434 425/425/425 433/433/433
f 424/424/424 434/434/434 432/432/432
f 432/432/432 434/434/434 433/433/433
