g Seat_02
v 0.08778237 -0.3201123 -1.014155
v 0.1407139 -0.295711 -1.016413
v 0.1389405 -0.3020068 -1.025103
v 0.0821119 -0.3272223 -1.022354
v 0.08850167 -0.3264185 -0.928789
v 0.08299141 -0.3327332 -0.9287592
v 0.08203622 -0.3275159 -0.4070905
v 0.07716073 -0.3341614 -0.4070551
v 0.08082101 -0.3151098 -0.2856464
v 0.07538888 -0.3228332 -0.2773627
v 0.135593 -0.2910657 -0.2888898
v 0.08082101 -0.3151098 -0.2856464
v 0.07538888 -0.3228332 -0.2773627
v 0.1337577 -0.2972766 -0.2800067
v 0.2075819 -0.251261 -0.2920721
v 0.06866159 -0.3373035 -0.2659894
v 0.07716073 -0.3341614 -0.4070551
v 0.06912057 -0.3594653 -0.4068817
v 0.06151559 -0.3664593 -0.4068536
v 0.05936196 -0.3453546 -0.2548749
v 0.04745553 -0.3682776 -0.406889
v 0.04543649 -0.3438702 -0.2434442
v 0.1350687 -0.3104364 -0.2646075
v 0.2106287 -0.2545483 -0.2836585
v 0.2663935 -0.1888989 -0.2927783
v 0.1312736 -0.3173327 -0.2525842
v 0.2218296 -0.2665539 -0.265824
v 0.2702134 -0.191543 -0.2842536
v 0.305662 -0.1109113 -0.2924024
v -0.04087699 -0.3493896 -0.2496076
v -0.04080192 -0.369342 -0.4071936
v -0.1261428 -0.352959 -0.4076263
v 0.3098612 -0.1127332 -0.2839978
v 0.3261353 -0.02808776 -0.2931744
v 0.330008 -0.02894043 -0.285155
v 0.3179908 0.05762452 -0.2923871
v 0.3247993 -0.1194421 -0.2665735
v 0.2836155 -0.2016138 -0.2660919
v 0.2255549 -0.2703906 -0.2545081
v 0.1425208 -0.3185376 -0.2405853
v 0.2880198 -0.204895 -0.2547772
v 0.2243324 -0.2686725 -0.2422437
v 0.3214271 0.05789551 -0.2848218
v 0.2887925 0.1321619 -0.2893952
v 0.2908491 0.1380927 -0.281294
v 0.2633567 0.184541 -0.285351
v 0.3393287 0.0587378 -0.26763
v 0.3476752 -0.03170044 -0.2671021
v 0.329722 -0.1217712 -0.2552936
v 0.1278846 -0.2769415 -0.151983
v 0.2642359 0.1941748 -0.2777387
v 0.2714674 0.1935937 -0.4105518
v 0.2720237 0.2016284 -0.4106134
v 0.2821485 0.2250244 -0.4107642
v 0.2684498 0.2098938 -0.2683173
v 0.2864262 -0.2040356 -0.2424567
v 0.3534662 -0.03278808 -0.2558325
v 0.3012037 0.1472192 -0.2670587
v 0.2664677 0.2227856 -0.258161
v 0.2812269 0.2357153 -0.4108514
v 0.2545106 0.2311304 -0.2468244
v 0.2719123 0.2462598 -0.4109668
v 0.3277421 -0.1212 -0.2430103
v 0.2483567 -0.1762488 -0.1523554
v 0.3452674 0.05881104 -0.2565192
v 0.3029713 0.1552063 -0.2555322
v 0.3518598 -0.03261108 -0.243432
v 0.3122889 0.1490832 -0.2433569
v 0.3434681 0.05819764 -0.244151
v 0.3048985 -0.02808654 -0.1533295
v 0.2751899 0.1276843 -0.154671
v 0.2843891 -0.104779 -0.1527936
v 0.298144 0.05101075 -0.1539813
v 0.2222938 -0.02017334 -0.07128908
v 0.1810447 -0.1282623 -0.07057679
v 0.2073322 -0.07612304 -0.07089784
v 0.1945808 -0.2328259 -0.1520966
v 0.2006208 0.09347168 -0.07226808
v 0.2173652 0.03753418 -0.07176515
v 0.1180952 -0.0105664 -0.01842897
v 0.2321565 0.1928039 -0.1553412
v 0.1418122 -0.1695367 -0.07038942
v 0.09315316 -0.2017248 -0.0703058
v 0.09616707 -0.06802612 -0.01805177
v 0.1101386 -0.04030761 -0.01822267
v 0.1154798 0.02010803 -0.01868043
v 0.1065769 0.04984497 -0.01894593
v 0.07531442 -0.08996826 -0.01794923
v 0.1692292 0.1409814 -0.07275697
v 8.724606E-08 -6.075309E-07 -1.232825E-06
v 0.08988687 0.07509888 -0.01920716
v 0.02031991 -0.1155627 -0.01794435
v 0.04022958 0.1099219 -0.01966127
v 0.04944833 -0.1070813 -0.01790651
v 0.0674183 0.09647033 -0.01945741
v 0.1269624 0.1811926 -0.07322389
v 0.03835885 -0.2176831 -0.07037416
v 0.07581185 0.2065015 -0.07360597
v 0.1742204 0.2479199 -0.1559839
v 0.05278085 -0.2988135 -0.1520758
v -0.02599265 -0.3018384 -0.1523322
v -0.01910941 -0.2198901 -0.0705597
v -0.1205956 -0.3350757 -0.2558429
v 0.1041126 0.2826086 -0.156507
v 0.1927607 0.2930225 -0.253841
v 0.2055811 0.3064526 -0.4116809
v 0.1290504 0.3464477 -0.4122699
v 0.1224238 0.3309729 -0.2602655
v 0.03149972 0.3534161 -0.2619421
v 0.03342019 0.3698425 -0.4127948
v -0.06289725 0.3633923 -0.4130859
v 0.02635568 0.3013257 -0.1569318
v 0.01908517 0.2201563 -0.07391603
v -0.06036917 0.3471094 -0.2610431
v 0.01007699 0.1171851 -0.01982484
v -0.05168387 0.296358 -0.1571674
v -0.1503533 0.3204419 -0.2609467
v -0.1573925 0.3354187 -0.4131995
v -0.2376049 0.2820898 -0.4130609
v -0.02018729 0.1152624 -0.01991517
v -0.03784964 0.216532 -0.07408998
v -0.1283813 0.2736987 -0.1572614
v -0.2267424 0.269682 -0.2610187
v -0.09380607 0.2 -0.0741559
v -0.04993277 0.1064734 -0.01995179
v -0.1934817 0.2303699 -0.1571485
v -0.291389 0.2016736 -0.2607446
v -0.3054882 0.2106708 -0.4127338
v -0.3482549 0.1243298 -0.4122009
v -0.07518119 0.08966675 -0.01990907
v -0.1413 0.1683893 -0.07407411
v -0.2485781 0.172395 -0.1568854
v -0.1814947 0.126095 -0.07388185
v -0.09654563 0.06718384 -0.0198047
v -0.3321142 0.1194507 -0.2601984
v -0.1100091 0.04000855 -0.01963868
v -0.2832946 0.1023218 -0.1564533
v -0.2068206 0.07497437 -0.0735663
v -0.3020205 0.02457215 -0.1559021
v -0.2204821 0.01824951 -0.07316408
v -0.117271 0.00985596 -0.01942445
v -0.1153445 -0.02040893 -0.01917848
v -0.2168554 -0.03868591 -0.07270021
v -0.3540823 0.02822571 -0.2595484
v -0.2970464 -0.0534674 -0.1552649
v -0.3713253 0.02853638 -0.4115234
v -0.3652013 -0.06761474 -0.4107385
v -0.34825 -0.06333618 -0.2588086
v -0.3216647 -0.1533264 -0.2579993
v -0.3372863 -0.1621112 -0.4098895
v -0.2839049 -0.2423169 -0.4090643
v -0.2743895 -0.1301623 -0.1545764
v -0.2003252 -0.09463867 -0.07219728
v -0.1065578 -0.05015502 -0.01891175
v -0.2708318 -0.2297082 -0.2572113
v -0.08975638 -0.0754016 -0.01865174
v -0.2310637 -0.19526 -0.1539056
v -0.1687169 -0.1421307 -0.07170839
v -0.2028072 -0.2949109 -0.257583
v -0.2124782 -0.3101916 -0.4082727
v -0.1730883 -0.2503503 -0.1532611
v -0.04009635 -0.1102258 -0.01819947
v -0.1264226 -0.1823242 -0.07123964
v -0.1030144 -0.2850623 -0.1527374
v -0.06727195 -0.09676514 -0.01840089
v -0.07529899 -0.2076483 -0.07085573
v -0.01022788 -0.1167346 -0.018042
v 0.2707643 0.1728162 -1.016072
v 0.2741004 0.1775635 -0.9321295
v 0.2736591 0.1860437 -0.9321973
v 0.2706278 0.1819782 -1.02419
v 0.2943482 0.1209692 -1.020489
v 0.2736527 0.2051953 -1.043516
v 0.2868513 0.2211206 -0.932431
v 0.284326 0.2314221 -0.9325207
v 0.2985157 0.1275177 -1.028672
v 0.3226554 0.0455304 -1.025693
v 0.2705982 0.2167834 -1.055074
v 0.2748768 0.2413391 -0.9326318
v 0.3308045 0.04753174 -1.032842
v 0.3288227 -0.03867004 -1.023938
v 0.3049137 0.1405347 -1.044745
v 0.2592124 0.2240967 -1.066324
v 0.2076026 0.3016132 -0.9333514
v 0.3360886 -0.03835327 -1.031442
v 0.3073441 -0.1198157 -1.020029
v 0.3421397 0.05029541 -1.043518
v 0.3061677 0.1484302 -1.056794
v 0.3121406 -0.121488 -1.028171
v 0.2688099 -0.1952246 -1.019531
v 0.2727155 -0.1982092 -1.027766
v 0.2118925 -0.2559003 -1.019315
v 0.3263953 -0.1263367 -1.042116
v 0.349455 -0.03950927 -1.042888
v 0.3480872 0.05184143 -1.054529
v 0.3160105 0.1422693 -1.069033
v 0.3559339 -0.03958374 -1.053853
v 0.2150999 -0.259881 -1.027463
v 0.1407139 -0.295711 -1.016413
v 0.1389405 -0.3020068 -1.025103
v 0.2245082 -0.2715521 -1.041308
v 0.2854493 -0.2072064 -1.041751
v 0.1380229 -0.3163721 -1.041562
v 0.3321549 -0.1282751 -1.053129
v 0.2905158 -0.2109894 -1.052693
v 0.3321549 -0.1282751 -1.053129
v 0.3463453 0.05165711 -1.066927
v 0.3545875 -0.03917114 -1.06635
v 0.0720704 -0.3450269 -1.039437
v 0.0821119 -0.3272223 -1.022354
v 0.3017036 0.04305176 -1.157202
v 0.3305308 -0.127674 -1.065527
v 0.2905158 -0.2109894 -1.052693
v 0.2892051 -0.2104077 -1.065143
v 0.2283051 -0.276333 -1.052311
v 0.2245082 -0.2715521 -1.041308
v 0.287949 -0.1127423 -1.156013
v 0.07235543 -0.364502 -0.9285449
v 0.08299141 -0.3327332 -0.9287592
v 0.1342719 -0.3233667 -1.053709
v 0.06268258 -0.3523096 -1.051197
v 0.06407724 -0.3709277 -0.9285247
v 0.04934457 -0.350805 -1.062571
v 0.05021127 -0.3724982 -0.9285601
v -0.03853568 -0.3733264 -0.928869
v 0.1458479 -0.3251227 -1.065903
v 0.2271565 -0.275083 -1.064694
v 0.1981422 -0.2407831 -1.155314
v 0.2519163 -0.1842084 -1.155572
v -0.0375228 -0.3561188 -1.057365
v 0.05634133 -0.3067755 -1.155296
v 0.1314454 -0.2849023 -1.155202
v 0.1459596 -0.1788043 -1.238389
v -0.1177685 -0.3413904 -1.052199
v -0.124291 -0.3570971 -0.9293017
v -0.210627 -0.3143298 -0.9299475
v 0.2114796 -0.08538696 -1.238898
v 0.1851917 -0.1375281 -1.238578
v 0.07983773 -0.1000806 -1.292557
v 0.1146665 -0.05042114 -1.292825
v 0.09729989 -0.2109894 -1.238307
v 0.308459 -0.03604858 -1.15655
v 0.1006931 -0.07813903 -1.292656
v 0.2264417 -0.02943542 -1.239288
v 0.2215147 0.0282721 -1.239764
v 0.1200001 0.0099939 -1.293287
v 0.1226185 -0.02068115 -1.293033
v 0.2787495 0.1197241 -1.157889
v 0.004658901 -0.0104126 -1.312463
v 0.02484628 -0.1256702 -1.292548
v 0.09440988 0.06498536 -1.293813
v -0.03557273 -0.1203381 -1.292805
v 0.04475411 0.09981201 -1.294266
v -0.08523246 -0.08551513 -1.293259
v -0.01566489 0.1051459 -1.294523
v -0.1108208 -0.03052185 -1.293784
v -0.07065604 0.07955445 -1.294515
v -0.1054851 0.02989624 -1.294244
v 0.05397164 -0.1171893 -1.292513
v 0.04250802 -0.2269458 -1.238375
v -0.02243277 -0.3097998 -1.155551
v -0.01496238 -0.2291528 -1.238563
v -0.09945365 -0.2930219 -1.155956
v -0.005702428 -0.126842 -1.292647
v -0.07115378 -0.2169147 -1.238859
v -0.1999901 -0.3011701 -1.051754
v -0.1695269 -0.2583093 -1.156481
v -0.1222753 -0.19159 -1.239241
v -0.2680025 -0.2360229 -1.05357
v -0.2820556 -0.2464557 -0.9307404
v -0.3354357 -0.16625 -0.9315655
v -0.06274802 -0.1068774 -1.293008
v -0.1645714 -0.1513989 -1.23971
v -0.2275002 -0.203219 -1.157123
v -0.3188399 -0.1596454 -1.054356
v -0.2708272 -0.1381226 -1.157795
v -0.1961809 -0.1039075 -1.240198
v -0.3454278 -0.06965942 -1.055165
v -0.3633495 -0.07175292 -0.9324139
v -0.3694735 0.02439636 -0.9331988
v -0.1020342 -0.06026733 -1.293517
v -0.2127117 -0.04795532 -1.2407
v -0.2934862 -0.0614276 -1.158484
v -0.3512585 0.02190552 -1.055919
v -0.2984594 0.01661133 -1.159122
v -0.216339 0.008981937 -1.241164
v -0.3292864 0.1131335 -1.056558
v -0.3464046 0.1201898 -0.9338763
v -0.1127483 -0.0002563449 -1.29403
v -0.2026763 0.06570862 -1.241566
v -0.2797332 0.09436279 -1.159671
v -0.1773492 0.1168323 -1.241882
v -0.2450176 0.1644354 -1.160104
v -0.2885607 0.1953564 -1.057034
v -0.0920217 0.05707154 -1.294412
v -0.1371517 0.1591284 -1.242076
v -0.3036376 0.206532 -0.9344091
v -0.189923 0.2224084 -1.160369
v -0.2239141 0.2633649 -1.057377
v -0.2357531 0.277951 -0.9347351
v -0.1555407 0.331264 -0.9348742
v -0.1475249 0.3141266 -1.057694
v -0.1248223 0.2657397 -1.16048
v -0.08965872 0.1907361 -1.242158
v -0.05754203 0.3407886 -1.057399
v -0.06104789 0.3592542 -0.9347601
v 0.03532205 0.3658008 -0.9344708
v -0.04540946 0.09635864 -1.294557
v -0.03370414 0.2072656 -1.242089
v -0.04812186 0.2884015 -1.160389
v 0.0342872 0.3470703 -1.056052
v 0.02991708 0.2933691 -1.160152
v 0.02322824 0.2108881 -1.241917
v 0.1252522 0.3246551 -1.056622
v 0.1309028 0.3423138 -0.9339459
v 0.01459786 0.1070715 -1.29443
v 0.07995491 0.1972321 -1.241608
v 0.1076731 0.2746491 -1.159729
v 0.1965266 0.2864392 -1.061468
v 0.1777833 0.2399597 -1.159201
v 0.2357179 0.1848431 -1.158557
v 0.1311051 0.1719269 -1.241226
v 0.1733741 0.1317175 -1.240757
v 0.07194223 0.08635925 -1.294063
v 0.2047682 0.0842102 -1.240268
v 0.1110984 0.03972901 -1.293556
v 0.2741004 0.1775635 -0.9321295
v 0.2714674 0.1935937 -0.4105518
v 0.2720237 0.2016284 -0.4106134
v 0.2736591 0.1860437 -0.9321973
v 0.2868513 0.2211206 -0.932431
v 0.2821485 0.2250244 -0.4107642
v 0.2812269 0.2357153 -0.4108514
v 0.284326 0.2314221 -0.9325207
v 0.2719123 0.2462598 -0.4109668
v 0.2748768 0.2413391 -0.9326318
v 0.2055811 0.3064526 -0.4116809
v 0.2076026 0.3016132 -0.9333514
v 0.1309028 0.3423138 -0.9339459
v 0.1290504 0.3464477 -0.4122699
v 0.03342019 0.3698425 -0.4127948
v 0.03532205 0.3658008 -0.9344708
v -0.06104789 0.3592542 -0.9347601
v -0.06289725 0.3633923 -0.4130859
v -0.1573925 0.3354187 -0.4131995
v -0.1555407 0.331264 -0.9348742
v -0.2357531 0.277951 -0.9347351
v -0.2376049 0.2820898 -0.4130609
v -0.3054882 0.2106708 -0.4127338
v -0.3036376 0.206532 -0.9344091
v -0.3713253 0.02853638 -0.4115234
v -0.3694735 0.02439636 -0.9331988
v -0.3633495 -0.07175292 -0.9324139
v -0.3652013 -0.06761474 -0.4107385
v -0.3372863 -0.1621112 -0.4098895
v -0.3354357 -0.16625 -0.9315655
v -0.2820556 -0.2464557 -0.9307404
v -0.2839049 -0.2423169 -0.4090643
v -0.2124782 -0.3101916 -0.4082727
v -0.210627 -0.3143298 -0.9299475
v -0.124291 -0.3570971 -0.9293017
v -0.1261428 -0.352959 -0.4076263
v -0.04080192 -0.369342 -0.4071936
v -0.03853568 -0.3733264 -0.928869
v 0.05021127 -0.3724982 -0.9285601
v 0.04745553 -0.3682776 -0.406889
v 0.06151559 -0.3664593 -0.4068536
v 0.06407724 -0.3709277 -0.9285247
v 0.06912057 -0.3594653 -0.4068817
v 0.07716073 -0.3341614 -0.4070551
v 0.08299141 -0.3327332 -0.9287592
v 0.07235543 -0.364502 -0.9285449
v 0.06407724 -0.3709277 -0.9285247
v 0.06151559 -0.3664593 -0.4068536
v 0.2245082 -0.2715521 -1.041308
v 0.2854493 -0.2072064 -1.041751
v 0.3179908 0.05762452 -0.2923871
v 0.2887925 0.1321619 -0.2893952
v 0.2949552 0.1156714 -0.3001166
v 0.3190138 0.05737183 -0.3030548
v 0.3261353 -0.02808776 -0.2931744
v 0.3268604 -0.02824157 -0.3033765
v 0.305662 -0.1109113 -0.2924024
v 0.2659965 0.176477 -0.2953662
v 0.2633567 0.184541 -0.285351
v 0.2745365 0.183728 -0.4104626
v 0.2714674 0.1935937 -0.4105518
v 0.3377351 0.05577393 -0.409223
v 0.2772447 0.1681018 -0.9320428
v 0.2741004 0.1775635 -0.9321295
v 0.3087354 0.1202649 -0.4098383
v 0.2735523 0.1639844 -1.007269
v 0.2707643 0.1728162 -1.016072
v 0.314311 0.1091632 -0.931444
v 0.299289 0.1032568 -1.013464
v 0.2943482 0.1209692 -1.020489
v 0.3206251 0.0451587 -1.017441
v 0.3226554 0.0455304 -1.025693
v 0.3395893 0.05163941 -0.9308978
v 0.3275456 -0.0388208 -1.015186
v 0.3288227 -0.03867004 -1.023938
v 0.3456922 -0.03345092 -0.4084875
v 0.3474763 -0.03762329 -0.9301623
v 0.3071937 -0.119668 -1.010507
v 0.3073441 -0.1198157 -1.020029
v 0.3240461 -0.1244092 -0.9295568
v 0.322194 -0.1202679 -0.4078802
v 0.2688715 -0.195166 -1.009836
v 0.2688099 -0.1952246 -1.019531
v 0.2834199 -0.2054407 -0.9290582
v 0.2117487 -0.2557226 -1.009789
v 0.2118925 -0.2559003 -1.019315
v 0.2815763 -0.2013391 -0.407381
v 0.3057603 -0.1111255 -0.3018976
v 0.2663935 -0.1888989 -0.2927783
v 0.2664768 -0.1891412 -0.3021448
v 0.2075819 -0.251261 -0.2920721
v 0.2225608 -0.2691028 -0.9287695
v 0.1564625 -0.286051 -1.007748
v 0.1407139 -0.295711 -1.016413
v 0.207765 -0.2514001 -0.301568
v 0.135593 -0.2910657 -0.2888898
v 0.2207075 -0.2649634 -0.4070941
v 0.150976 -0.2817798 -0.2992944
v 0.08082101 -0.3151098 -0.2856464
v 0.163773 -0.2981054 -0.9287469
v 0.0955082 -0.3150775 -1.005263
v 0.08778237 -0.3201123 -1.014155
v 0.1575101 -0.2956531 -0.4070758
v 0.0970826 -0.3210657 -0.9288018
v 0.08850167 -0.3264185 -0.928789
v 0.09065071 -0.3219208 -0.4071039
v 0.08203622 -0.3275159 -0.4070905
v 0.08822427 -0.3105164 -0.295586
vt 0.1473389 0.9785156
vt 0.1470947 0.9780273
vt 0.1469727 0.9780273
vt 0.1472168 0.9790039
vt 0.1485596 0.9785156
vt 0.1485596 0.9785156
vt 0.1557617 0.9765625
vt 0.1558838 0.9765625
vt 0.1575928 0.9760742
vt 0.1577148 0.9760742
vt 0.1518555 0.9750977
vt 0.1523438 0.9746094
vt 0.1523438 0.9746094
vt 0.1518555 0.9750977
vt 0.1514893 0.9755859
vt 0.1523438 0.9746094
vt 0.15271 0.9750977
vt 0.15271 0.9750977
vt 0.15271 0.9750977
vt 0.1523438 0.9746094
vt 0.152832 0.9750977
vt 0.1522217 0.9746094
vt 0.1518555 0.9750977
vt 0.1514893 0.9755859
vt 0.151001 0.9755859
vt 0.1518555 0.9750977
vt 0.1514893 0.9755859
vt 0.151001 0.9755859
vt 0.1503906 0.9760742
vt 0.1524658 0.9741211
vt 0.1529541 0.9746094
vt 0.1530762 0.9736328
vt 0.1503906 0.9760742
vt 0.1499023 0.9755859
vt 0.1499023 0.9755859
vt 0.149292 0.9755859
vt 0.1503906 0.9760742
vt 0.151001 0.9755859
vt 0.1514893 0.9755859
vt 0.1518555 0.9750977
vt 0.151001 0.9755859
vt 0.1514893 0.9755859
vt 0.149292 0.9755859
vt 0.1489258 0.9750977
vt 0.1489258 0.9750977
vt 0.1485596 0.9746094
vt 0.149292 0.9755859
vt 0.1499023 0.9755859
vt 0.1503906 0.9760742
vt 0.1514893 0.9750977
vt 0.1485596 0.9746094
vt 0.1480713 0.9750977
vt 0.1480713 0.9750977
vt 0.1480713 0.9750977
vt 0.1485596 0.9746094
vt 0.151001 0.9755859
vt 0.1499023 0.9755859
vt 0.1489258 0.9750977
vt 0.1485596 0.9746094
vt 0.1480713 0.9750977
vt 0.1485596 0.9746094
vt 0.1480713 0.9750977
vt 0.1503906 0.9760742
vt 0.1508789 0.9750977
vt 0.149292 0.9755859
vt 0.1489258 0.9750977
vt 0.1499023 0.9755859
vt 0.1489258 0.9750977
vt 0.1494141 0.9755859
vt 0.1500244 0.9750977
vt 0.149292 0.9750977
vt 0.1503906 0.9755859
vt 0.1496582 0.9750977
vt 0.1501465 0.9746094
vt 0.1506348 0.9746094
vt 0.1503906 0.9746094
vt 0.1512451 0.9750977
vt 0.1496582 0.9746094
vt 0.1499023 0.9746094
vt 0.1502686 0.9741211
vt 0.1490479 0.9746094
vt 0.151001 0.9746094
vt 0.151123 0.9746094
vt 0.1505127 0.9741211
vt 0.1503906 0.9741211
vt 0.1501465 0.9741211
vt 0.1500244 0.9741211
vt 0.1506348 0.9741211
vt 0.1495361 0.9741211
vt 0.1503906 0.9736328
vt 0.1499023 0.9741211
vt 0.1508789 0.9741211
vt 0.1499023 0.9736328
vt 0.1507568 0.9741211
vt 0.1499023 0.9741211
vt 0.1494141 0.9741211
vt 0.1513672 0.9741211
vt 0.149292 0.9736328
vt 0.1489258 0.9741211
vt 0.1518555 0.9746094
vt 0.1519775 0.9741211
vt 0.1514893 0.9741211
vt 0.1525879 0.9736328
vt 0.1488037 0.9736328
vt 0.1484375 0.9741211
vt 0.1478271 0.9746094
vt 0.1477051 0.9736328
vt 0.1483154 0.9736328
vt 0.1484375 0.9731445
vt 0.1479492 0.9731445
vt 0.1480713 0.9726563
vt 0.1489258 0.9731445
vt 0.1494141 0.9736328
vt 0.1485596 0.9726563
vt 0.1499023 0.9736328
vt 0.1490479 0.9731445
vt 0.1489258 0.972168
vt 0.1485596 0.972168
vt 0.1490479 0.9711914
vt 0.1499023 0.9736328
vt 0.1495361 0.9731445
vt 0.149292 0.9726563
vt 0.149292 0.9716797
vt 0.1496582 0.9731445
vt 0.1500244 0.9736328
vt 0.1496582 0.972168
vt 0.1499023 0.9716797
vt 0.1497803 0.9711914
vt 0.151123 0.9711914
vt 0.1501465 0.9731445
vt 0.1499023 0.9726563
vt 0.1500244 0.972168
vt 0.1501465 0.9726563
vt 0.1502686 0.9731445
vt 0.1503906 0.9716797
vt 0.1503906 0.9731445
vt 0.1503906 0.972168
vt 0.1503906 0.9726563
vt 0.1508789 0.972168
vt 0.1506348 0.9726563
vt 0.1505127 0.9731445
vt 0.1506348 0.9731445
vt 0.151001 0.9726563
vt 0.151001 0.9716797
vt 0.1512451 0.972168
vt 0.151123 0.9711914
vt 0.1517334 0.9711914
vt 0.1514893 0.9716797
vt 0.1518555 0.972168
vt 0.1522217 0.972168
vt 0.15271 0.9726563
vt 0.1514893 0.9726563
vt 0.151123 0.9731445
vt 0.1507568 0.9736328
vt 0.1523438 0.9726563
vt 0.1508789 0.9736328
vt 0.1518555 0.9731445
vt 0.1513672 0.9731445
vt 0.1524658 0.9731445
vt 0.1529541 0.9731445
vt 0.1519775 0.9731445
vt 0.151001 0.9736328
vt 0.1514893 0.9736328
vt 0.1520996 0.9736328
vt 0.1508789 0.9736328
vt 0.1514893 0.9736328
vt 0.1508789 0.9741211
vt 0.1485596 0.9609375
vt 0.1480713 0.9604492
vt 0.1480713 0.9604492
vt 0.1485596 0.9609375
vt 0.1489258 0.9604492
vt 0.1485596 0.9609375
vt 0.1480713 0.9604492
vt 0.1480713 0.9604492
vt 0.1489258 0.9604492
vt 0.149292 0.9599609
vt 0.1485596 0.9609375
vt 0.1480713 0.9604492
vt 0.149292 0.9599609
vt 0.1499023 0.9599609
vt 0.1489258 0.9604492
vt 0.1485596 0.9609375
vt 0.1478271 0.9614258
vt 0.1499023 0.9599609
vt 0.1503906 0.9599609
vt 0.149292 0.9599609
vt 0.1489258 0.9604492
vt 0.1503906 0.9599609
vt 0.151001 0.9599609
vt 0.151001 0.9599609
vt 0.1514893 0.9599609
vt 0.1503906 0.9599609
vt 0.1499023 0.9599609
vt 0.149292 0.9599609
vt 0.1489258 0.9604492
vt 0.1499023 0.9599609
vt 0.1514893 0.9599609
vt 0.1518555 0.9604492
vt 0.1518555 0.9604492
vt 0.1514893 0.9599609
vt 0.151001 0.9599609
vt 0.1518555 0.9604492
vt 0.1503906 0.9599609
vt 0.151001 0.9599609
vt 0.1503906 0.9599609
vt 0.1494141 0.9599609
vt 0.1499023 0.9599609
vt 0.1523438 0.9609375
vt 0.1523438 0.9609375
vt 0.1496582 0.9604492
vt 0.1503906 0.9599609
vt 0.151001 0.9599609
vt 0.151001 0.9599609
vt 0.1514893 0.9599609
vt 0.1514893 0.9599609
vt 0.1503906 0.9604492
vt 0.15271 0.9604492
vt 0.15271 0.9604492
vt 0.1518555 0.9604492
vt 0.1523438 0.9609375
vt 0.15271 0.9604492
vt 0.1522217 0.9609375
vt 0.152832 0.9604492
vt 0.1529541 0.9614258
vt 0.1518555 0.9604492
vt 0.1514893 0.9599609
vt 0.1512451 0.9604492
vt 0.1508789 0.9604492
vt 0.1524658 0.9614258
vt 0.1518555 0.9609375
vt 0.1514893 0.9609375
vt 0.151001 0.9609375
vt 0.1525879 0.9619141
vt 0.1530762 0.9619141
vt 0.1529541 0.9624023
vt 0.1503906 0.9609375
vt 0.1506348 0.9609375
vt 0.1506348 0.9614258
vt 0.1503906 0.9614258
vt 0.151123 0.9609375
vt 0.1500244 0.9604492
vt 0.1505127 0.9614258
vt 0.1501465 0.9609375
vt 0.1499023 0.9609375
vt 0.1501465 0.9614258
vt 0.1502686 0.9614258
vt 0.149292 0.9609375
vt 0.1503906 0.9619141
vt 0.1508789 0.9614258
vt 0.1499023 0.9614258
vt 0.151001 0.9619141
vt 0.1499023 0.9619141
vt 0.1508789 0.9619141
vt 0.1499023 0.9619141
vt 0.1506348 0.9624023
vt 0.1501465 0.9624023
vt 0.1503906 0.9624023
vt 0.1507568 0.9614258
vt 0.1513672 0.9614258
vt 0.1519775 0.9614258
vt 0.1514893 0.9614258
vt 0.1520996 0.9619141
vt 0.1508789 0.9619141
vt 0.1514893 0.9619141
vt 0.1524658 0.9624023
vt 0.1519775 0.9624023
vt 0.1514893 0.9619141
vt 0.1523438 0.9628906
vt 0.15271 0.9633789
vt 0.1522217 0.9638672
vt 0.1508789 0.9619141
vt 0.1513672 0.9624023
vt 0.1518555 0.9628906
vt 0.1518555 0.9633789
vt 0.1514893 0.9628906
vt 0.151123 0.9624023
vt 0.1514893 0.9638672
vt 0.1517334 0.9643555
vt 0.151123 0.9643555
vt 0.1507568 0.9624023
vt 0.151001 0.9628906
vt 0.1512451 0.9633789
vt 0.151001 0.9638672
vt 0.1508789 0.9633789
vt 0.1506348 0.9628906
vt 0.1503906 0.9638672
vt 0.1503906 0.9643555
vt 0.1505127 0.9624023
vt 0.1503906 0.9628906
vt 0.1503906 0.9633789
vt 0.1501465 0.9628906
vt 0.1500244 0.9633789
vt 0.1499023 0.9638672
vt 0.1502686 0.9624023
vt 0.1499023 0.9628906
vt 0.1497803 0.9643555
vt 0.1496582 0.9633789
vt 0.149292 0.9638672
vt 0.1490479 0.9643555
vt 0.1485596 0.9638672
vt 0.1489258 0.9633789
vt 0.149292 0.9628906
vt 0.1496582 0.9624023
vt 0.1485596 0.9628906
vt 0.1480713 0.9633789
vt 0.1479492 0.9624023
vt 0.1500244 0.9624023
vt 0.1495361 0.9624023
vt 0.1490479 0.9628906
vt 0.1484375 0.9624023
vt 0.1489258 0.9624023
vt 0.1494141 0.9619141
vt 0.1483154 0.9619141
vt 0.1477051 0.9619141
vt 0.1499023 0.9619141
vt 0.149292 0.9619141
vt 0.1488037 0.9619141
vt 0.1484375 0.9614258
vt 0.1489258 0.9614258
vt 0.1490479 0.9609375
vt 0.1494141 0.9614258
vt 0.1495361 0.9614258
vt 0.1499023 0.9619141
vt 0.1496582 0.9609375
vt 0.1500244 0.9614258
vt 0.1496582 0.9643555
vt 0.1496582 0.9711914
vt 0.1496582 0.9711914
vt 0.1496582 0.9643555
vt 0.1496582 0.9643555
vt 0.1496582 0.9711914
vt 0.1496582 0.9711914
vt 0.1496582 0.9643555
vt 0.1497803 0.9711914
vt 0.1497803 0.9643555
vt 0.1499023 0.9711914
vt 0.1499023 0.9643555
vt 0.1500244 0.9643555
vt 0.1500244 0.9711914
vt 0.1502686 0.9711914
vt 0.1502686 0.9643555
vt 0.1503906 0.9643555
vt 0.1503906 0.9711914
vt 0.1506348 0.9711914
vt 0.1506348 0.9643555
vt 0.1507568 0.9643555
vt 0.1507568 0.9711914
vt 0.151001 0.9711914
vt 0.151001 0.9643555
vt 0.1513672 0.9711914
vt 0.1513672 0.9643555
vt 0.1514893 0.9643555
vt 0.1514893 0.9711914
vt 0.1517334 0.9711914
vt 0.1517334 0.9643555
vt 0.1518555 0.9643555
vt 0.1518555 0.9711914
vt 0.1520996 0.9711914
vt 0.1520996 0.9643555
vt 0.1522217 0.9643555
vt 0.1522217 0.9711914
vt 0.1523438 0.9711914
vt 0.1523438 0.9643555
vt 0.1525879 0.9643555
vt 0.1525879 0.9711914
vt 0.1525879 0.9711914
vt 0.1525879 0.9643555
vt 0.1496582 0.9711914
vt 0.1496582 0.9711914
vt 0.1496582 0.9643555
vt 0.1496582 0.9643555
vt 0.1496582 0.9643555
vt 0.1496582 0.9711914
vt 0.1514893 0.9599609
vt 0.151001 0.9599609
vt 0.2111816 0.9750977
vt 0.2115479 0.9765625
vt 0.2122803 0.9760742
vt 0.2120361 0.9750977
vt 0.2109375 0.9731445
vt 0.2119141 0.9731445
vt 0.2108154 0.9711914
vt 0.2125244 0.9770508
vt 0.2121582 0.9775391
vt 0.2143555 0.9775391
vt 0.2142334 0.9780273
vt 0.2141113 0.9746094
vt 0.2213135 0.9770508
vt 0.2214355 0.9780273
vt 0.2142334 0.9760742
vt 0.2225342 0.9770508
vt 0.2230225 0.9775391
vt 0.2211914 0.9760742
vt 0.2227783 0.9760742
vt 0.2236328 0.9765625
vt 0.2231445 0.9750977
vt 0.223999 0.9750977
vt 0.2213135 0.9746094
vt 0.2232666 0.9731445
vt 0.2242432 0.9731445
vt 0.2141113 0.9731445
vt 0.2213135 0.9731445
vt 0.2232666 0.9711914
vt 0.2243652 0.9711914
vt 0.2213135 0.9711914
vt 0.2141113 0.9711914
vt 0.2232666 0.9692383
vt 0.2242432 0.96875
vt 0.2213135 0.9692383
vt 0.2230225 0.9672852
vt 0.223999 0.9672852
vt 0.2141113 0.9692383
vt 0.2119141 0.9711914
vt 0.2109375 0.96875
vt 0.2119141 0.96875
vt 0.2111816 0.9667969
vt 0.2213135 0.9672852
vt 0.2227783 0.9658203
vt 0.2236328 0.9658203
vt 0.2121582 0.9672852
vt 0.2115479 0.965332
vt 0.2142334 0.9672852
vt 0.2124023 0.9658203
vt 0.2121582 0.9643555
vt 0.2213135 0.9658203
vt 0.2225342 0.9648438
vt 0.2230225 0.9648438
vt 0.2142334 0.9658203
vt 0.2213135 0.9648438
vt 0.2214355 0.9643555
vt 0.2143555 0.9648438
vt 0.2142334 0.9638672
vt 0.2126465 0.9648438
vn 0.6132813 -0.7773438 0.1411133
vn 0.4333496 -0.8330078 0.3439941
vn 0.3703613 -0.7114258 0.597168
vn 0.8007813 -0.5712891 0.1810303
vn 0.6582031 -0.7524414 -0.003103256
vn 0.9204102 -0.3908691 -0.0003335476
vn 0.6689453 -0.7431641 0.0201416
vn 0.9228516 -0.3847656 0.01672363
vn 0.6577148 -0.7446289 -0.1115723
vn 0.8266602 -0.5332031 -0.178833
vn 0.4042969 -0.8525391 -0.3305664
vn 0.6577148 -0.7446289 -0.1115723
vn 0.8266602 -0.5332031 -0.178833
vn 0.3371582 -0.7192383 -0.6074219
vn 0.5888672 -0.7661133 -0.2573242
vn 0.722168 -0.6845703 -0.1005859
vn 0.9228516 -0.3847656 0.01672363
vn 0.8925781 -0.4506836 0.02172852
vn 0.3591309 -0.9326172 0.03939819
vn 0.2617188 -0.9619141 0.07775879
vn 0.02848816 -0.9990234 0.03842163
vn 0.0859375 -0.9506836 0.2980957
vn 0.3552246 -0.7646484 -0.5375977
vn 0.46875 -0.6308594 -0.6181641
vn 0.7949219 -0.5556641 -0.2437744
vn 0.3747559 -0.90625 -0.1950684
vn 0.4848633 -0.6611328 -0.5727539
vn 0.6337891 -0.4448242 -0.6328125
vn 0.9125977 -0.3378906 -0.229248
vn -0.08044434 -0.9633789 0.2565918
vn -0.08459473 -0.9956055 0.03561401
vn -0.324707 -0.9453125 0.03189087
vn 0.7226563 -0.2709961 -0.6362305
vn 0.9804688 -0.06842041 -0.1838379
vn 0.7583008 -0.05819702 -0.6494141
vn 0.956543 0.2293701 -0.180542
vn 0.7451172 -0.2836914 -0.6035156
vn 0.6557617 -0.4626465 -0.5966797
vn 0.5800781 -0.7841797 -0.2200928
vn 0.3720703 -0.8452148 0.3830566
vn 0.8105469 -0.5683594 -0.1433105
vn 0.5776367 -0.7109375 0.4008789
vn 0.7426758 0.1893311 -0.6420898
vn 0.8696289 0.3974609 -0.2927246
vn 0.6914063 0.3203125 -0.6479492
vn 0.984375 0.1395264 -0.1087036
vn 0.769043 0.1940918 -0.6088867
vn 0.7822266 -0.06652832 -0.6196289
vn 0.9238281 -0.3525391 -0.1499023
vn 0.3378906 -0.7485352 0.5708008
vn 0.9702148 -0.1373291 -0.1987305
vn 0.9892578 0.1467285 0.01339722
vn 0.9545898 -0.2978516 0.01708984
vn 0.9726563 -0.2310791 0.02157593
vn 0.9936523 0.03253174 -0.1062622
vn 0.7412109 -0.5180664 0.4267578
vn 0.9833984 -0.08770752 -0.1599121
vn 0.7373047 0.3425293 -0.5825195
vn 0.828125 0.5551758 0.07312012
vn 0.8818359 0.4707031 0.03137207
vn 0.690918 0.6640625 0.286377
vn 0.6806641 0.7319336 0.0274353
vn 0.847168 -0.3205566 0.4238281
vn 0.6679688 -0.4650879 0.5810547
vn 0.9418945 0.234375 -0.2409668
vn 0.8681641 0.4492188 -0.2116699
vn 0.9018555 -0.07623291 0.4250488
vn 0.8310547 0.4128418 0.3728027
vn 0.8994141 0.1889648 0.3942871
vn 0.8115234 -0.06744385 0.5800781
vn 0.7431641 0.3620605 0.5625
vn 0.762207 -0.2871094 0.5805664
vn 0.8022461 0.1635742 0.5742188
vn 0.6191406 -0.04870605 0.7836914
vn 0.5092773 -0.3530273 0.784668
vn 0.5805664 -0.2166748 0.784668
vn 0.5200195 -0.6279297 0.5791016
vn 0.5644531 0.2700195 0.7797852
vn 0.6108398 0.1233521 0.7822266
vn 0.345459 -0.02339172 0.9379883
vn 0.6318359 0.5375977 0.5581055
vn 0.3981934 -0.4733887 0.7856445
vn 0.2612305 -0.5610352 0.7856445
vn 0.2832031 -0.1934814 0.9394531
vn 0.3200684 -0.1150513 0.9404297
vn 0.3364258 0.07141113 0.9389648
vn 0.314209 0.1551514 0.9365234
vn 0.21875 -0.2580566 0.940918
vn 0.4760742 0.4082031 0.7788086
vn -0.003545761 0.007926941 1
vn 0.2619629 0.2301025 0.9375
vn 0.05273438 -0.3349609 0.940918
vn 0.1144409 0.3330078 0.9360352
vn 0.1444092 -0.3100586 0.9399414
vn 0.1977539 0.2939453 0.9350586
vn 0.3564453 0.5180664 0.7773438
vn 0.0970459 -0.6118164 0.7851563
vn 0.2095947 0.5942383 0.7763672
vn 0.4726563 0.6772461 0.5639648
vn 0.1300049 -0.8129883 0.5673828
vn -0.07244873 -0.8164063 0.5732422
vn -0.05786133 -0.6176758 0.7841797
vn -0.3178711 -0.9130859 0.2558594
vn 0.2744141 0.7792969 0.5629883
vn 0.5595703 0.7915039 0.2453613
vn 0.5766602 0.8164063 0.02377319
vn 0.347168 0.9375 0.0194397
vn 0.3312988 0.9111328 0.2446289
vn 0.08435059 0.9658203 0.244873
vn 0.08782959 0.9960938 0.01815796
vn -0.1778564 0.9838867 0.01725769
vn 0.07049561 0.8266602 0.5585938
vn 0.05227661 0.6293945 0.7753906
vn -0.171875 0.9541016 0.2454834
vn 0.02752686 0.3562012 0.934082
vn -0.1466064 0.8168945 0.5581055
vn -0.4091797 0.8789063 0.244751
vn -0.421875 0.9067383 0.01707458
vn -0.644043 0.7646484 0.01734924
vn -0.06402588 0.3483887 0.9350586
vn -0.1126709 0.621582 0.7753906
vn -0.3500977 0.7524414 0.5581055
vn -0.6245117 0.7416992 0.244751
vn -0.2666016 0.5732422 0.7749023
vn -0.151001 0.3249512 0.9335938
vn -0.5336914 0.6352539 0.5581055
vn -0.7929688 0.5576172 0.2457275
vn -0.8183594 0.5742188 0.01831055
vn -0.9404297 0.3400879 0.01966858
vn -0.2263184 0.2722168 0.9350586
vn -0.4057617 0.4841309 0.7753906
vn -0.6772461 0.4780273 0.559082
vn -0.5146484 0.3652344 0.7753906
vn -0.2900391 0.2084961 0.934082
vn -0.9106445 0.3308105 0.2470703
vn -0.3288574 0.1252441 0.9360352
vn -0.777832 0.2849121 0.5600586
vn -0.5908203 0.21875 0.7768555
vn -0.8237305 0.07696533 0.5620117
vn -0.6259766 0.06118774 0.7773438
vn -0.3520508 0.03823853 0.9350586
vn -0.3442383 -0.05325317 0.9375
vn -0.6181641 -0.1036987 0.7792969
vn -0.9648438 0.08703613 0.2489014
vn -0.8139648 -0.1405029 0.5634766
vn -0.9960938 0.08807373 0.02153015
vn -0.984375 -0.1755371 0.02360535
vn -0.953125 -0.1680908 0.2509766
vn -0.8779297 -0.40625 0.2531738
vn -0.90625 -0.4216309 0.02589417
vn -0.7646484 -0.644043 0.02798462
vn -0.75 -0.3435059 0.5654297
vn -0.5698242 -0.2575684 0.7802734
vn -0.3208008 -0.1402588 0.9365234
vn -0.7407227 -0.6210938 0.2558594
vn -0.2680664 -0.2155762 0.9389648
vn -0.6328125 -0.527832 0.5668945
vn -0.4807129 -0.3967285 0.7817383
vn -0.5566406 -0.7905273 0.2558594
vn -0.5742188 -0.8183594 0.02992249
vn -0.4760742 -0.6708984 0.5683594
vn -0.1185913 -0.3198242 0.9399414
vn -0.3620605 -0.5058594 0.7832031
vn -0.2773438 -0.7714844 0.5727539
vn -0.2043457 -0.2792969 0.9384766
vn -0.2094727 -0.5844727 0.7836914
vn -0.03411865 -0.3410645 0.9394531
vn 0.9628906 0.2095947 0.1689453
vn 0.9858398 0.1665039 -0.007228851
vn 0.9584961 -0.2851563 0.001376152
vn 0.984375 -0.06524658 0.1624756
vn 0.8261719 0.317627 0.4655762
vn 0.9907227 0.1079712 0.08294678
vn 0.9746094 -0.2237549 -0.003967285
vn 0.8769531 0.4797363 -0.0297699
vn 0.7348633 0.2995605 0.6088867
vn 0.8295898 0.1689453 0.5317383
vn 0.815918 0.5722656 -0.08551025
vn 0.6796875 0.7324219 -0.03469849
vn 0.6943359 0.1650391 0.7001953
vn 0.8842773 -0.07678223 0.4604492
vn 0.7924805 0.3510742 0.4987793
vn 0.6889648 0.6518555 -0.3168945
vn 0.5766602 0.8164063 -0.03378296
vn 0.6821289 -0.05810547 0.7290039
vn 0.8847656 -0.3342285 0.3244629
vn 0.7822266 0.2025146 0.5893555
vn 0.8764648 0.4411621 0.1920166
vn 0.675293 -0.2548828 0.6923828
vn 0.7861328 -0.5493164 0.2824707
vn 0.6000977 -0.4174805 0.6826172
vn 0.59375 -0.7460938 0.3010254
vn 0.7148438 -0.2695313 0.6455078
vn 0.7626953 -0.06860352 0.6430664
vn 0.9375 0.2362061 0.2563477
vn 0.8344727 0.4047852 -0.3740234
vn 0.9780273 -0.08465576 0.1893311
vn 0.4604492 -0.5996094 0.6542969
vn 0.4333496 -0.8330078 0.3439941
vn 0.3703613 -0.7114258 0.597168
vn 0.4741211 -0.6391602 0.6054688
vn 0.6274414 -0.4362793 0.6450195
vn 0.3762207 -0.762207 0.5263672
vn 0.918457 -0.3486328 0.1876221
vn 0.8051758 -0.5629883 0.1872559
vn 0.918457 -0.3486328 0.1876221
vn 0.9033203 0.1818848 -0.388916
vn 0.9057617 -0.08251953 -0.4160156
vn 0.6894531 -0.7163086 0.107666
vn 0.8007813 -0.5712891 0.1810303
vn 0.8061523 0.1535645 -0.5712891
vn 0.8505859 -0.3271484 -0.4111328
vn 0.8051758 -0.5629883 0.1872559
vn 0.7451172 -0.5253906 -0.4111328
vn 0.5751953 -0.7749023 0.2612305
vn 0.4741211 -0.6391602 0.6054688
vn 0.7661133 -0.2961426 -0.5708008
vn 0.8911133 -0.4533691 -0.00453949
vn 0.9204102 -0.3908691 -0.0003335476
vn 0.3835449 -0.8994141 0.2097168
vn 0.2592773 -0.9633789 -0.06817627
vn 0.3549805 -0.9345703 -0.02095032
vn 0.09173584 -0.9472656 -0.3071289
vn 0.02775574 -0.9995117 -0.02311707
vn -0.08508301 -0.9960938 -0.02146912
vn 0.3759766 -0.8515625 -0.3657227
vn 0.581543 -0.7177734 -0.3828125
vn 0.5244141 -0.6367188 -0.5654297
vn 0.671875 -0.4741211 -0.5693359
vn -0.08026123 -0.9589844 -0.2722168
vn 0.133667 -0.8217773 -0.5537109
vn 0.342041 -0.7568359 -0.5571289
vn 0.4038086 -0.4858398 -0.7753906
vn -0.3139648 -0.9086914 -0.2751465
vn -0.3244629 -0.9458008 -0.02032471
vn -0.5737305 -0.8183594 -0.02210999
vn 0.5864258 -0.2290039 -0.7768555
vn 0.5151367 -0.3654785 -0.7753906
vn 0.2254639 -0.2731934 -0.9350586
vn 0.3266602 -0.1298828 -0.9360352
vn 0.2666016 -0.5732422 -0.7749023
vn 0.8154297 -0.07653809 -0.5732422
vn 0.2900391 -0.208374 -0.934082
vn 0.625 -0.06109619 -0.7783203
vn 0.6162109 0.1109619 -0.7797852
vn 0.3430176 0.05651855 -0.9375
vn 0.3520508 -0.03823853 -0.9350586
vn 0.746582 0.3520508 -0.5644531
vn 0.003545761 -0.007926941 -1
vn 0.05941772 -0.3498535 -0.9350586
vn 0.2685547 0.21521 -0.9389648
vn -0.1119385 -0.3347168 -0.9355469
vn 0.1210938 0.3181152 -0.9404297
vn -0.2614746 -0.2304688 -0.9375
vn -0.05734253 0.3334961 -0.940918
vn -0.3374023 -0.06811523 -0.9389648
vn -0.2196045 0.2573242 -0.940918
vn -0.3222656 0.1104126 -0.9404297
vn 0.151001 -0.324707 -0.9335938
vn 0.1025391 -0.6240234 -0.7749023
vn -0.06854248 -0.8251953 -0.5605469
vn -0.05233765 -0.6303711 -0.7749023
vn -0.2731934 -0.7802734 -0.5625
vn -0.02745056 -0.355957 -0.934082
vn -0.2038574 -0.5966797 -0.7758789
vn -0.5493164 -0.7875977 -0.279541
vn -0.4719238 -0.6801758 -0.5610352
vn -0.3564453 -0.5180664 -0.7773438
vn -0.7319336 -0.6196289 -0.2832031
vn -0.7641602 -0.6445313 -0.02427673
vn -0.90625 -0.421875 -0.02671814
vn -0.1977539 -0.2939453 -0.9350586
vn -0.4753418 -0.4091797 -0.7788086
vn -0.6289063 -0.5366211 -0.5629883
vn -0.8681641 -0.4067383 -0.2849121
vn -0.7460938 -0.3525391 -0.5649414
vn -0.5644531 -0.2700195 -0.7802734
vn -0.9428711 -0.1707764 -0.2868652
vn -0.9838867 -0.1759033 -0.02888489
vn -0.9956055 0.08764648 -0.03106689
vn -0.314209 -0.1550293 -0.9365234
vn -0.612793 -0.1160889 -0.7817383
vn -0.8100586 -0.1495361 -0.5668945
vn -0.9536133 0.08203125 -0.2890625
vn -0.8198242 0.0680542 -0.5688477
vn -0.6201172 0.04879761 -0.7827148
vn -0.9003906 0.3237305 -0.2905273
vn -0.9399414 0.3395996 -0.0328064
vn -0.345459 0.02337646 -0.9379883
vn -0.5849609 0.2062988 -0.7841797
vn -0.7739258 0.2758789 -0.5703125
vn -0.5092773 0.3530273 -0.784668
vn -0.6733398 0.4692383 -0.5712891
vn -0.7836914 0.5483398 -0.2919922
vn -0.2832031 0.1936035 -0.9394531
vn -0.4001465 0.4716797 -0.7856445
vn -0.8183594 0.5737305 -0.03430176
vn -0.5297852 0.6259766 -0.5722656
vn -0.6166992 0.730957 -0.2927246
vn -0.644043 0.7641602 -0.03512573
vn -0.4216309 0.90625 -0.03555298
vn -0.4033203 0.8666992 -0.293457
vn -0.3459473 0.7431641 -0.5727539
vn -0.2609863 0.5610352 -0.7856445
vn -0.168335 0.940918 -0.2937012
vn -0.1776123 0.9833984 -0.03518677
vn 0.0880127 0.9956055 -0.03436279
vn -0.1444092 0.3100586 -0.9399414
vn -0.1071167 0.609375 -0.7856445
vn -0.1425781 0.8081055 -0.5717773
vn 0.08538818 0.9526367 -0.2919922
vn 0.07452393 0.8173828 -0.5708008
vn 0.05780029 0.6166992 -0.7851563
vn 0.3300781 0.8989258 -0.2880859
vn 0.3476563 0.9370117 -0.03308105
vn 0.03414917 0.3413086 -0.9394531
vn 0.2150879 0.581543 -0.7841797
vn 0.2788086 0.7705078 -0.5732422
vn 0.5541992 0.7822266 -0.2836914
vn 0.4768066 0.668457 -0.5708008
vn 0.6352539 0.5288086 -0.5629883
vn 0.3618164 0.5058594 -0.7832031
vn 0.4816895 0.3959961 -0.7817383
vn 0.2043457 0.2792969 -0.9384766
vn 0.5698242 0.2578125 -0.7802734
vn 0.3208008 0.1402588 -0.9365234
vn 0.9858398 0.1665039 -0.007228851
vn 0.9892578 0.1467285 0.01339722
vn 0.9545898 -0.2978516 0.01708984
vn 0.9584961 -0.2851563 0.001376152
vn 0.9746094 -0.2237549 -0.003967285
vn 0.9726563 -0.2310791 0.02157593
vn 0.8818359 0.4707031 0.03137207
vn 0.8769531 0.4797363 -0.0297699
vn 0.6806641 0.7319336 0.0274353
vn 0.6796875 0.7324219 -0.03469849
vn 0.5766602 0.8164063 0.02377319
vn 0.5766602 0.8164063 -0.03378296
vn 0.3476563 0.9370117 -0.03308105
vn 0.347168 0.9375 0.0194397
vn 0.08782959 0.9960938 0.01815796
vn 0.0880127 0.9956055 -0.03436279
vn -0.1776123 0.9833984 -0.03518677
vn -0.1778564 0.9838867 0.01725769
vn -0.421875 0.9067383 0.01707458
vn -0.4216309 0.90625 -0.03555298
vn -0.644043 0.7641602 -0.03512573
vn -0.644043 0.7646484 0.01734924
vn -0.8183594 0.5742188 0.01831055
vn -0.8183594 0.5737305 -0.03430176
vn -0.9960938 0.08807373 0.02153015
vn -0.9956055 0.08764648 -0.03106689
vn -0.9838867 -0.1759033 -0.02888489
vn -0.984375 -0.1755371 0.02360535
vn -0.90625 -0.4216309 0.02589417
vn -0.90625 -0.421875 -0.02671814
vn -0.7641602 -0.6445313 -0.02427673
vn -0.7646484 -0.644043 0.02798462
vn -0.5742188 -0.8183594 0.02992249
vn -0.5737305 -0.8183594 -0.02210999
vn -0.3244629 -0.9458008 -0.02032471
vn -0.324707 -0.9453125 0.03189087
vn -0.08459473 -0.9956055 0.03561401
vn -0.08508301 -0.9960938 -0.02146912
vn 0.02775574 -0.9995117 -0.02311707
vn 0.02848816 -0.9990234 0.03842163
vn 0.3591309 -0.9326172 0.03939819
vn 0.3549805 -0.9345703 -0.02095032
vn 0.8925781 -0.4506836 0.02172852
vn 0.9228516 -0.3847656 0.01672363
vn 0.9204102 -0.3908691 -0.0003335476
vn 0.8911133 -0.4533691 -0.00453949
vn 0.3549805 -0.9345703 -0.02095032
vn 0.3591309 -0.9326172 0.03939819
vn 0.4741211 -0.6391602 0.6054688
vn 0.6274414 -0.4362793 0.6450195
vn 0.956543 0.2293701 -0.180542
vn 0.8696289 0.3974609 -0.2927246
vn 0.9008789 0.4182129 0.1152344
vn 0.9614258 0.2293701 0.151123
vn 0.9804688 -0.06842041 -0.1838379
vn 0.9829102 -0.07720947 0.1672363
vn 0.9125977 -0.3378906 -0.229248
vn 0.9052734 0.4165039 0.08551025
vn 0.984375 0.1395264 -0.1087036
vn 0.8828125 0.4697266 0.01426697
vn 0.9892578 0.1467285 0.01339722
vn 0.9736328 0.2261963 0.02871704
vn 0.8793945 0.4758301 -0.02072144
vn 0.9858398 0.1665039 -0.007228851
vn 0.8920898 0.451416 0.0196991
vn 0.8974609 0.4326172 -0.08850098
vn 0.9628906 0.2095947 0.1689453
vn 0.8916016 0.4521484 -0.02478027
vn 0.9013672 0.4111328 -0.1359863
vn 0.8261719 0.317627 0.4655762
vn 0.9633789 0.1990967 -0.1807861
vn 0.8295898 0.1689453 0.5317383
vn 0.9741211 0.2246094 -0.02824402
vn 0.9780273 -0.08551025 -0.190918
vn 0.8842773 -0.07678223 0.4604492
vn 0.9956055 -0.08734131 0.03259277
vn 0.9956055 -0.08740234 -0.02658081
vn 0.9174805 -0.3493652 -0.1901855
vn 0.8847656 -0.3342285 0.3244629
vn 0.934082 -0.3564453 -0.02310181
vn 0.9335938 -0.355957 0.0345459
vn 0.8032227 -0.5639648 -0.1905518
vn 0.7861328 -0.5493164 0.2824707
vn 0.8183594 -0.5742188 -0.02137756
vn 0.6108398 -0.7709961 -0.1789551
vn 0.59375 -0.7460938 0.3010254
vn 0.8183594 -0.5737305 0.03591919
vn 0.9233398 -0.3466797 0.1654053
vn 0.7949219 -0.5556641 -0.2437744
vn 0.8085938 -0.5644531 0.166626
vn 0.5888672 -0.7661133 -0.2573242
vn 0.6098633 -0.7919922 -0.01887512
vn 0.4204102 -0.8974609 -0.133667
vn 0.4333496 -0.8330078 0.3439941
vn 0.6054688 -0.7802734 0.1558838
vn 0.4042969 -0.8525391 -0.3305664
vn 0.6098633 -0.7915039 0.03561401
vn 0.423584 -0.8974609 0.1213989
vn 0.6577148 -0.7446289 -0.1115723
vn 0.3955078 -0.918457 -0.01382446
vn 0.4104004 -0.9082031 -0.08465576
vn 0.6132813 -0.7773438 0.1411133
vn 0.3972168 -0.9174805 0.02963257
vn 0.3742676 -0.9272461 -0.01043701
vn 0.6582031 -0.7524414 -0.003103256
vn 0.3791504 -0.9248047 0.02503967
vn 0.6689453 -0.7431641 0.0201416
vn 0.4245605 -0.9008789 0.09051514
g Seat_02_0
f 3/3/3 2/2/2 1/1/1
f 4/4/4 3/3/3 1/1/1
f 1/1/1 5/5/5 4/4/4
f 5/5/5 6/6/6 4/4/4
f 5/5/5 7/7/7 6/6/6
f 7/7/7 8/8/8 6/6/6
f 7/7/7 9/9/9 8/8/8
f 9/9/9 10/10/10 8/8/8
f 13/13/13 12/12/12 11/11/11
f 14/14/14 13/13/13 11/11/11
f 14/14/14 11/11/11 15/15/15
f 16/16/16 13/13/13 14/14/14
f 17/17/17 13/13/13 16/16/16
f 18/18/18 17/17/17 16/16/16
f 19/19/19 18/18/18 16/16/16
f 20/20/20 19/19/19 16/16/16
f 21/21/21 19/19/19 20/20/20
f 22/22/22 21/21/21 20/20/20
f 16/16/16 23/23/23 20/20/20
f 23/23/23 16/16/16 14/14/14
f 24/24/24 14/14/14 15/15/15
f 15/15/15 25/25/25 24/24/24
f 23/23/23 26/26/26 20/20/20
f 20/20/20 26/26/26 22/22/22
f 23/23/23 14/14/14 27/27/27
f 14/14/14 24/24/24 27/27/27
f 23/23/23 27/27/27 26/26/26
f 25/25/25 28/28/28 24/24/24
f 27/27/27 24/24/24 28/28/28
f 25/25/25 29/29/29 28/28/28
f 21/21/21 22/22/22 30/30/30
f 31/31/31 21/21/21 30/30/30
f 31/31/31 30/30/30 32/32/32
f 29/29/29 33/33/33 28/28/28
f 29/29/29 34/34/34 33/33/33
f 34/34/34 35/35/35 33/33/33
f 34/34/34 36/36/36 35/35/35
f 28/28/28 33/33/33 37/37/37
f 37/37/37 33/33/33 35/35/35
f 38/38/38 27/27/27 28/28/28
f 38/38/38 28/28/28 37/37/37
f 27/27/27 38/38/38 39/39/39
f 27/27/27 39/39/39 26/26/26
f 26/26/26 40/40/40 22/22/22
f 26/26/26 39/39/39 40/40/40
f 38/38/38 41/41/41 39/39/39
f 38/38/38 37/37/37 41/41/41
f 39/39/39 42/42/42 40/40/40
f 39/39/39 41/41/41 42/42/42
f 36/36/36 43/43/43 35/35/35
f 36/36/36 44/44/44 43/43/43
f 44/44/44 45/45/45 43/43/43
f 44/44/44 46/46/46 45/45/45
f 35/35/35 43/43/43 47/47/47
f 47/47/47 43/43/43 45/45/45
f 48/48/48 37/37/37 35/35/35
f 48/48/48 35/35/35 47/47/47
f 37/37/37 49/49/49 41/41/41
f 37/37/37 48/48/48 49/49/49
f 40/40/40 42/42/42 50/50/50
f 40/40/40 50/50/50 22/22/22
f 46/46/46 51/51/51 45/45/45
f 51/51/51 46/46/46 52/52/52
f 53/53/53 51/51/51 52/52/52
f 51/51/51 53/53/53 54/54/54
f 45/45/45 51/51/51 55/55/55
f 55/55/55 51/51/51 54/54/54
f 41/41/41 56/56/56 42/42/42
f 41/41/41 49/49/49 56/56/56
f 48/48/48 57/57/57 49/49/49
f 48/48/48 47/47/47 57/57/57
f 58/58/58 47/47/47 45/45/45
f 58/58/58 45/45/45 55/55/55
f 55/55/55 54/54/54 59/59/59
f 54/54/54 60/60/60 59/59/59
f 59/59/59 60/60/60 61/61/61
f 60/60/60 62/62/62 61/61/61
f 49/49/49 63/63/63 56/56/56
f 49/49/49 57/57/57 63/63/63
f 56/56/56 64/64/64 42/42/42
f 56/56/56 63/63/63 64/64/64
f 47/47/47 58/58/58 65/65/65
f 47/47/47 65/65/65 57/57/57
f 58/58/58 55/55/55 66/66/66
f 55/55/55 59/59/59 66/66/66
f 58/58/58 66/66/66 65/65/65
f 57/57/57 65/65/65 67/67/67
f 57/57/57 67/67/67 63/63/63
f 66/66/66 59/59/59 68/68/68
f 59/59/59 61/61/61 68/68/68
f 65/65/65 66/66/66 69/69/69
f 65/65/65 69/69/69 67/67/67
f 66/66/66 68/68/68 69/69/69
f 67/67/67 70/70/70 63/63/63
f 67/67/67 69/69/69 70/70/70
f 68/68/68 71/71/71 69/69/69
f 68/68/68 61/61/61 71/71/71
f 63/63/63 72/72/72 64/64/64
f 70/70/70 72/72/72 63/63/63
f 69/69/69 73/73/73 70/70/70
f 71/71/71 73/73/73 69/69/69
f 70/70/70 74/74/74 72/72/72
f 70/70/70 73/73/73 74/74/74
f 64/64/64 72/72/72 75/75/75
f 74/74/74 76/76/76 72/72/72
f 72/72/72 76/76/76 75/75/75
f 64/64/64 75/75/75 77/77/77
f 64/64/64 77/77/77 42/42/42
f 42/42/42 77/77/77 50/50/50
f 71/71/71 78/78/78 73/73/73
f 73/73/73 79/79/79 74/74/74
f 78/78/78 79/79/79 73/73/73
f 74/74/74 80/80/80 76/76/76
f 74/74/74 79/79/79 80/80/80
f 71/71/71 81/81/81 78/78/78
f 61/61/61 81/81/81 71/71/71
f 75/75/75 82/82/82 77/77/77
f 50/50/50 77/77/77 83/83/83
f 77/77/77 82/82/82 83/83/83
f 75/75/75 76/76/76 84/84/84
f 75/75/75 84/84/84 82/82/82
f 80/80/80 85/85/85 76/76/76
f 76/76/76 85/85/85 84/84/84
f 79/79/79 86/86/86 80/80/80
f 80/80/80 86/86/86 85/85/85
f 78/78/78 87/87/87 79/79/79
f 87/87/87 86/86/86 79/79/79
f 84/84/84 88/88/88 82/82/82
f 84/84/84 85/85/85 88/88/88
f 78/78/78 89/89/89 87/87/87
f 81/81/81 89/89/89 78/78/78
f 86/86/86 90/90/90 85/85/85
f 85/85/85 90/90/90 88/88/88
f 87/87/87 91/91/91 86/86/86
f 91/91/91 90/90/90 86/86/86
f 89/89/89 91/91/91 87/87/87
f 88/88/88 90/90/90 92/92/92
f 93/93/93 90/90/90 91/91/91
f 82/82/82 88/88/88 94/94/94
f 94/94/94 88/88/88 92/92/92
f 83/83/83 82/82/82 94/94/94
f 95/95/95 91/91/91 89/89/89
f 95/95/95 93/93/93 91/91/91
f 96/96/96 89/89/89 81/81/81
f 96/96/96 95/95/95 89/89/89
f 83/83/83 94/94/94 97/97/97
f 94/94/94 92/92/92 97/97/97
f 98/98/98 93/93/93 95/95/95
f 96/96/96 98/98/98 95/95/95
f 99/99/99 96/96/96 81/81/81
f 99/99/99 81/81/81 61/61/61
f 83/83/83 97/97/97 100/100/100
f 50/50/50 83/83/83 100/100/100
f 50/50/50 100/100/100 22/22/22
f 22/22/22 100/100/100 101/101/101
f 30/30/30 22/22/22 101/101/101
f 100/100/100 97/97/97 102/102/102
f 101/101/101 100/100/100 102/102/102
f 30/30/30 101/101/101 103/103/103
f 30/30/30 103/103/103 32/32/32
f 104/104/104 98/98/98 96/96/96
f 99/99/99 104/104/104 96/96/96
f 105/105/105 99/99/99 61/61/61
f 105/105/105 61/61/61 62/62/62
f 106/106/106 105/105/105 62/62/62
f 106/106/106 107/107/107 105/105/105
f 105/105/105 108/108/108 99/99/99
f 107/107/107 108/108/108 105/105/105
f 108/108/108 104/104/104 99/99/99
f 109/109/109 108/108/108 107/107/107
f 110/110/110 109/109/109 107/107/107
f 110/110/110 111/111/111 109/109/109
f 112/112/112 104/104/104 108/108/108
f 109/109/109 112/112/112 108/108/108
f 113/113/113 98/98/98 104/104/104
f 112/112/112 113/113/113 104/104/104
f 111/111/111 114/114/114 109/109/109
f 109/109/109 114/114/114 112/112/112
f 113/113/113 115/115/115 98/98/98
f 115/115/115 93/93/93 98/98/98
f 112/112/112 116/116/116 113/113/113
f 114/114/114 116/116/116 112/112/112
f 117/117/117 114/114/114 111/111/111
f 118/118/118 117/117/117 111/111/111
f 118/118/118 119/119/119 117/117/117
f 115/115/115 120/120/120 93/93/93
f 120/120/120 90/90/90 93/93/93
f 113/113/113 121/121/121 115/115/115
f 116/116/116 121/121/121 113/113/113
f 121/121/121 120/120/120 115/115/115
f 122/122/122 116/116/116 114/114/114
f 117/117/117 122/122/122 114/114/114
f 119/119/119 123/123/123 117/117/117
f 117/117/117 123/123/123 122/122/122
f 124/124/124 121/121/121 116/116/116
f 122/122/122 124/124/124 116/116/116
f 125/125/125 120/120/120 121/121/121
f 124/124/124 125/125/125 121/121/121
f 122/122/122 126/126/126 124/124/124
f 123/123/123 126/126/126 122/122/122
f 127/127/127 123/123/123 119/119/119
f 128/128/128 127/127/127 119/119/119
f 128/128/128 129/129/129 127/127/127
f 125/125/125 130/130/130 120/120/120
f 130/130/130 90/90/90 120/120/120
f 124/124/124 131/131/131 125/125/125
f 126/126/126 131/131/131 124/124/124
f 131/131/131 130/130/130 125/125/125
f 132/132/132 126/126/126 123/123/123
f 127/127/127 132/132/132 123/123/123
f 133/133/133 131/131/131 126/126/126
f 132/132/132 133/133/133 126/126/126
f 134/134/134 130/130/130 131/131/131
f 133/133/133 134/134/134 131/131/131
f 127/127/127 135/135/135 132/132/132
f 129/129/129 135/135/135 127/127/127
f 134/134/134 136/136/136 130/130/130
f 136/136/136 90/90/90 130/130/130
f 132/132/132 137/137/137 133/133/133
f 135/135/135 137/137/137 132/132/132
f 133/133/133 138/138/138 134/134/134
f 138/138/138 136/136/136 134/134/134
f 137/137/137 138/138/138 133/133/133
f 139/139/139 137/137/137 135/135/135
f 140/140/140 138/138/138 137/137/137
f 139/139/139 140/140/140 137/137/137
f 141/141/141 136/136/136 138/138/138
f 140/140/140 141/141/141 138/138/138
f 141/141/141 142/142/142 136/136/136
f 142/142/142 90/90/90 136/136/136
f 140/140/140 143/143/143 141/141/141
f 143/143/143 142/142/142 141/141/141
f 144/144/144 135/135/135 129/129/129
f 144/144/144 139/139/139 135/135/135
f 139/139/139 145/145/145 140/140/140
f 145/145/145 143/143/143 140/140/140
f 146/146/146 144/144/144 129/129/129
f 146/146/146 147/147/147 144/144/144
f 144/144/144 148/148/148 139/139/139
f 147/147/147 148/148/148 144/144/144
f 148/148/148 145/145/145 139/139/139
f 149/149/149 148/148/148 147/147/147
f 150/150/150 149/149/149 147/147/147
f 150/150/150 151/151/151 149/149/149
f 152/152/152 145/145/145 148/148/148
f 149/149/149 152/152/152 148/148/148
f 153/153/153 143/143/143 145/145/145
f 152/152/152 153/153/153 145/145/145
f 154/154/154 142/142/142 143/143/143
f 153/153/153 154/154/154 143/143/143
f 151/151/151 155/155/155 149/149/149
f 149/149/149 155/155/155 152/152/152
f 154/154/154 156/156/156 142/142/142
f 156/156/156 90/90/90 142/142/142
f 152/152/152 157/157/157 153/153/153
f 155/155/155 157/157/157 152/152/152
f 153/153/153 158/158/158 154/154/154
f 158/158/158 156/156/156 154/154/154
f 157/157/157 158/158/158 153/153/153
f 159/159/159 155/155/155 151/151/151
f 160/160/160 159/159/159 151/151/151
f 160/160/160 32/32/32 159/159/159
f 32/32/32 103/103/103 159/159/159
f 159/159/159 161/161/161 155/155/155
f 161/161/161 157/157/157 155/155/155
f 159/159/159 103/103/103 161/161/161
f 162/162/162 90/90/90 156/156/156
f 92/92/92 90/90/90 162/162/162
f 163/163/163 158/158/158 157/157/157
f 161/161/161 163/163/163 157/157/157
f 103/103/103 164/164/164 161/161/161
f 161/161/161 164/164/164 163/163/163
f 101/101/101 164/164/164 103/103/103
f 101/101/101 102/102/102 164/164/164
f 165/165/165 156/156/156 158/158/158
f 163/163/163 165/165/165 158/158/158
f 165/165/165 162/162/162 156/156/156
f 164/164/164 166/166/166 163/163/163
f 163/163/163 166/166/166 165/165/165
f 102/102/102 166/166/166 164/164/164
f 166/166/166 162/162/162 165/165/165
f 167/167/167 92/92/92 162/162/162
f 167/167/167 162/162/162 166/166/166
f 102/102/102 167/167/167 166/166/166
f 97/97/97 92/92/92 167/167/167
f 102/102/102 97/97/97 167/167/167
f 170/170/170 169/169/169 168/168/168
f 171/171/171 170/170/170 168/168/168
f 171/171/171 168/168/168 172/172/172
f 170/170/170 171/171/171 173/173/173
f 174/174/174 170/170/170 173/173/173
f 175/175/175 174/174/174 173/173/173
f 176/176/176 171/171/171 172/172/172
f 173/173/173 171/171/171 176/176/176
f 176/176/176 172/172/172 177/177/177
f 178/178/178 175/175/175 173/173/173
f 179/179/179 175/175/175 178/178/178
f 180/180/180 176/176/176 177/177/177
f 180/180/180 177/177/177 181/181/181
f 182/182/182 173/173/173 176/176/176
f 178/178/178 173/173/173 182/182/182
f 183/183/183 179/179/179 178/178/178
f 184/184/184 179/179/179 183/183/183
f 185/185/185 180/180/180 181/181/181
f 185/185/185 181/181/181 186/186/186
f 176/176/176 180/180/180 187/187/187
f 182/182/182 176/176/176 187/187/187
f 187/187/187 180/180/180 185/185/185
f 188/188/188 178/178/178 182/182/182
f 183/183/183 178/178/178 188/188/188
f 188/188/188 182/182/182 187/187/187
f 189/189/189 185/185/185 186/186/186
f 189/189/189 186/186/186 190/190/190
f 191/191/191 189/189/189 190/190/190
f 191/191/191 190/190/190 192/192/192
f 185/185/185 189/189/189 193/193/193
f 193/193/193 189/189/189 191/191/191
f 194/194/194 187/187/187 185/185/185
f 194/194/194 185/185/185 193/193/193
f 195/195/195 188/188/188 187/187/187
f 195/195/195 187/187/187 194/194/194
f 196/196/196 183/183/183 188/188/188
f 196/196/196 188/188/188 195/195/195
f 197/197/197 195/195/195 194/194/194
f 197/197/197 194/194/194 193/193/193
f 198/198/198 191/191/191 192/192/192
f 198/198/198 192/192/192 199/199/199
f 200/200/200 198/198/198 199/199/199
f 191/191/191 198/198/198 201/201/201
f 201/201/201 198/198/198 200/200/200
f 202/202/202 191/191/191 201/201/201
f 202/202/202 193/193/193 191/191/191
f 203/203/203 201/201/201 200/200/200
f 204/204/204 193/193/193 202/202/202
f 205/205/205 204/204/204 202/202/202
f 206/206/206 197/197/197 193/193/193
f 207/207/207 195/195/195 197/197/197
f 207/207/207 196/196/196 195/195/195
f 208/208/208 197/197/197 206/206/206
f 208/208/208 207/207/207 197/197/197
f 203/203/203 200/200/200 209/209/209
f 200/200/200 210/210/210 209/209/209
f 196/196/196 207/207/207 211/211/211
f 211/211/211 207/207/207 208/208/208
f 212/212/212 208/208/208 206/206/206
f 212/212/212 206/206/206 213/213/213
f 214/214/214 212/212/212 213/213/213
f 214/214/214 213/213/213 215/215/215
f 215/215/215 216/216/216 203/203/203
f 208/208/208 212/212/212 217/217/217
f 217/217/217 212/212/212 214/214/214
f 209/209/209 210/210/210 218/218/218
f 210/210/210 219/219/219 218/218/218
f 220/220/220 203/203/203 209/209/209
f 220/220/220 215/215/215 203/203/203
f 209/209/209 218/218/218 221/221/221
f 221/221/221 220/220/220 209/209/209
f 218/218/218 222/222/222 221/221/221
f 221/221/221 222/222/222 223/223/223
f 222/222/222 224/224/224 223/223/223
f 223/223/223 224/224/224 225/225/225
f 226/226/226 220/220/220 221/221/221
f 223/223/223 226/226/226 221/221/221
f 227/227/227 215/215/215 220/220/220
f 226/226/226 227/227/227 220/220/220
f 227/227/227 214/214/214 215/215/215
f 214/214/214 227/227/227 228/228/228
f 228/228/228 227/227/227 226/226/226
f 229/229/229 214/214/214 228/228/228
f 229/229/229 217/217/217 214/214/214
f 230/230/230 223/223/223 225/225/225
f 226/226/226 223/223/223 231/231/231
f 231/231/231 223/223/223 230/230/230
f 232/232/232 228/228/228 226/226/226
f 232/232/232 226/226/226 231/231/231
f 229/229/229 228/228/228 233/233/233
f 233/233/233 228/228/228 232/232/232
f 230/230/230 225/225/225 234/234/234
f 225/225/225 235/235/235 234/234/234
f 234/234/234 235/235/235 236/236/236
f 237/237/237 217/217/217 229/229/229
f 238/238/238 229/229/229 233/233/233
f 238/238/238 237/237/237 229/229/229
f 238/238/238 233/233/233 239/239/239
f 240/240/240 237/237/237 238/238/238
f 241/241/241 233/233/233 232/232/232
f 239/239/239 233/233/233 241/241/241
f 242/242/242 217/217/217 237/237/237
f 242/242/242 208/208/208 217/217/217
f 242/242/242 211/211/211 208/208/208
f 243/243/243 238/238/238 239/239/239
f 243/243/243 240/240/240 238/238/238
f 243/243/243 239/239/239 240/240/240
f 244/244/244 242/242/242 237/237/237
f 244/244/244 237/237/237 240/240/240
f 245/245/245 211/211/211 242/242/242
f 244/244/244 245/245/245 242/242/242
f 246/246/246 245/245/245 244/244/244
f 247/247/247 244/244/244 240/240/240
f 247/247/247 246/246/246 244/244/244
f 247/247/247 240/240/240 246/246/246
f 248/248/248 211/211/211 245/245/245
f 248/248/248 196/196/196 211/211/211
f 239/239/239 249/249/249 240/240/240
f 240/240/240 249/249/249 246/246/246
f 250/250/250 249/249/249 239/239/239
f 246/246/246 249/249/249 251/251/251
f 252/252/252 249/249/249 250/250/250
f 251/251/251 249/249/249 253/253/253
f 254/254/254 249/249/249 252/252/252
f 253/253/253 249/249/249 255/255/255
f 256/256/256 249/249/249 254/254/254
f 255/255/255 249/249/249 257/257/257
f 258/258/258 249/249/249 256/256/256
f 257/257/257 249/249/249 258/258/258
f 259/259/259 250/250/250 239/239/239
f 259/259/259 239/239/239 241/241/241
f 259/259/259 241/241/241 250/250/250
f 241/241/241 260/260/260 250/250/250
f 241/241/241 232/232/232 260/260/260
f 232/232/232 231/231/231 260/260/260
f 260/260/260 231/231/231 261/261/261
f 261/261/261 231/231/231 230/230/230
f 250/250/250 260/260/260 262/262/262
f 262/262/262 260/260/260 261/261/261
f 261/261/261 230/230/230 263/263/263
f 230/230/230 234/234/234 263/263/263
f 264/264/264 250/250/250 262/262/262
f 264/264/264 252/252/252 250/250/250
f 264/264/264 262/262/262 252/252/252
f 262/262/262 261/261/261 265/265/265
f 261/261/261 263/263/263 265/265/265
f 262/262/262 265/265/265 252/252/252
f 263/263/263 234/234/234 266/266/266
f 266/266/266 234/234/234 236/236/236
f 265/265/265 263/263/263 267/267/267
f 267/267/267 263/263/263 266/266/266
f 252/252/252 265/265/265 268/268/268
f 268/268/268 265/265/265 267/267/267
f 266/266/266 236/236/236 269/269/269
f 236/236/236 270/270/270 269/269/269
f 269/269/269 270/270/270 271/271/271
f 272/272/272 252/252/252 268/268/268
f 272/272/272 254/254/254 252/252/252
f 272/272/272 268/268/268 254/254/254
f 268/268/268 267/267/267 273/273/273
f 268/268/268 273/273/273 254/254/254
f 267/267/267 266/266/266 274/274/274
f 266/266/266 269/269/269 274/274/274
f 267/267/267 274/274/274 273/273/273
f 275/275/275 269/269/269 271/271/271
f 274/274/274 269/269/269 275/275/275
f 273/273/273 274/274/274 276/276/276
f 276/276/276 274/274/274 275/275/275
f 254/254/254 273/273/273 277/277/277
f 277/277/277 273/273/273 276/276/276
f 275/275/275 271/271/271 278/278/278
f 271/271/271 279/279/279 278/278/278
f 278/278/278 279/279/279 280/280/280
f 281/281/281 254/254/254 277/277/277
f 281/281/281 256/256/256 254/254/254
f 281/281/281 277/277/277 256/256/256
f 277/277/277 276/276/276 282/282/282
f 277/277/277 282/282/282 256/256/256
f 276/276/276 275/275/275 283/283/283
f 275/275/275 278/278/278 283/283/283
f 276/276/276 283/283/283 282/282/282
f 284/284/284 278/278/278 280/280/280
f 283/283/283 278/278/278 284/284/284
f 282/282/282 283/283/283 285/285/285
f 285/285/285 283/283/283 284/284/284
f 256/256/256 282/282/282 286/286/286
f 286/286/286 282/282/282 285/285/285
f 284/284/284 280/280/280 287/287/287
f 280/280/280 288/288/288 287/287/287
f 289/289/289 256/256/256 286/286/286
f 289/289/289 258/258/258 256/256/256
f 289/289/289 286/286/286 258/258/258
f 286/286/286 285/285/285 290/290/290
f 286/286/286 290/290/290 258/258/258
f 285/285/285 284/284/284 291/291/291
f 284/284/284 287/287/287 291/291/291
f 285/285/285 291/291/291 290/290/290
f 258/258/258 290/290/290 292/292/292
f 290/290/290 291/291/291 293/293/293
f 292/292/292 290/290/290 293/293/293
f 291/291/291 287/287/287 294/294/294
f 293/293/293 291/291/291 294/294/294
f 295/295/295 258/258/258 292/292/292
f 295/295/295 257/257/257 258/258/258
f 295/295/295 292/292/292 257/257/257
f 292/292/292 293/293/293 296/296/296
f 292/292/292 296/296/296 257/257/257
f 294/294/294 287/287/287 297/297/297
f 287/287/287 288/288/288 297/297/297
f 293/293/293 294/294/294 298/298/298
f 293/293/293 298/298/298 296/296/296
f 294/294/294 297/297/297 299/299/299
f 294/294/294 299/299/299 298/298/298
f 297/297/297 300/300/300 299/299/299
f 299/299/299 300/300/300 301/301/301
f 298/298/298 299/299/299 302/302/302
f 302/302/302 299/299/299 301/301/301
f 296/296/296 298/298/298 303/303/303
f 303/303/303 298/298/298 302/302/302
f 257/257/257 296/296/296 304/304/304
f 304/304/304 296/296/296 303/303/303
f 302/302/302 301/301/301 305/305/305
f 301/301/301 306/306/306 305/305/305
f 305/305/305 306/306/306 307/307/307
f 308/308/308 257/257/257 304/304/304
f 308/308/308 255/255/255 257/257/257
f 308/308/308 304/304/304 255/255/255
f 304/304/304 303/303/303 309/309/309
f 304/304/304 309/309/309 255/255/255
f 303/303/303 302/302/302 310/310/310
f 302/302/302 305/305/305 310/310/310
f 303/303/303 310/310/310 309/309/309
f 311/311/311 305/305/305 307/307/307
f 310/310/310 305/305/305 311/311/311
f 309/309/309 310/310/310 312/312/312
f 312/312/312 310/310/310 311/311/311
f 255/255/255 309/309/309 313/313/313
f 313/313/313 309/309/309 312/312/312
f 311/311/311 307/307/307 314/314/314
f 307/307/307 315/315/315 314/314/314
f 314/314/314 315/315/315 184/184/184
f 316/316/316 255/255/255 313/313/313
f 316/316/316 253/253/253 255/255/255
f 316/316/316 313/313/313 253/253/253
f 313/313/313 312/312/312 317/317/317
f 313/313/313 317/317/317 253/253/253
f 312/312/312 311/311/311 318/318/318
f 311/311/311 314/314/314 318/318/318
f 312/312/312 318/318/318 317/317/317
f 319/319/319 314/314/314 184/184/184
f 318/318/318 314/314/314 319/319/319
f 319/319/319 184/184/184 183/183/183
f 317/317/317 318/318/318 320/320/320
f 320/320/320 318/318/318 319/319/319
f 319/319/319 183/183/183 321/321/321
f 320/320/320 319/319/319 321/321/321
f 321/321/321 183/183/183 196/196/196
f 248/248/248 321/321/321 196/196/196
f 253/253/253 317/317/317 322/322/322
f 322/322/322 317/317/317 320/320/320
f 320/320/320 321/321/321 323/323/323
f 323/323/323 321/321/321 248/248/248
f 322/322/322 320/320/320 323/323/323
f 324/324/324 253/253/253 322/322/322
f 324/324/324 251/251/251 253/253/253
f 324/324/324 322/322/322 251/251/251
f 322/322/322 323/323/323 251/251/251
f 325/325/325 323/323/323 248/248/248
f 251/251/251 323/323/323 325/325/325
f 325/325/325 248/248/248 245/245/245
f 325/325/325 245/245/245 246/246/246
f 326/326/326 246/246/246 251/251/251
f 326/326/326 325/325/325 246/246/246
f 326/326/326 251/251/251 325/325/325
f 329/329/329 328/328/328 327/327/327
f 330/330/330 329/329/329 327/327/327
f 329/329/329 330/330/330 331/331/331
f 332/332/332 329/329/329 331/331/331
f 333/333/333 332/332/332 331/331/331
f 334/334/334 333/333/333 331/331/331
f 335/335/335 333/333/333 334/334/334
f 336/336/336 335/335/335 334/334/334
f 337/337/337 335/335/335 336/336/336
f 338/338/338 337/337/337 336/336/336
f 338/338/338 339/339/339 337/337/337
f 339/339/339 340/340/340 337/337/337
f 341/341/341 340/340/340 339/339/339
f 342/342/342 341/341/341 339/339/339
f 342/342/342 343/343/343 341/341/341
f 343/343/343 344/344/344 341/341/341
f 345/345/345 344/344/344 343/343/343
f 346/346/346 345/345/345 343/343/343
f 346/346/346 347/347/347 345/345/345
f 347/347/347 348/348/348 345/345/345
f 349/349/349 348/348/348 347/347/347
f 350/350/350 349/349/349 347/347/347
f 350/350/350 288/288/288 349/349/349
f 288/288/288 129/129/129 349/349/349
f 351/351/351 129/129/129 288/288/288
f 352/352/352 351/351/351 288/288/288
f 352/352/352 353/353/353 351/351/351
f 353/353/353 354/354/354 351/351/351
f 355/355/355 354/354/354 353/353/353
f 356/356/356 355/355/355 353/353/353
f 356/356/356 357/357/357 355/355/355
f 357/357/357 358/358/358 355/355/355
f 359/359/359 358/358/358 357/357/357
f 360/360/360 359/359/359 357/357/357
f 360/360/360 361/361/361 359/359/359
f 361/361/361 362/362/362 359/359/359
f 363/363/363 362/362/362 361/361/361
f 364/364/364 363/363/363 361/361/361
f 364/364/364 365/365/365 363/363/363
f 365/365/365 366/366/366 363/363/363
f 367/367/367 366/366/366 365/365/365
f 368/368/368 367/367/367 365/365/365
f 371/371/371 370/370/370 369/369/369
f 372/372/372 371/371/371 369/369/369
f 372/372/372 369/369/369 373/373/373
f 369/369/369 374/374/374 373/373/373
f 205/205/205 376/376/376 375/375/375
f 215/215/215 205/205/205 375/375/375
f 379/379/379 378/378/378 377/377/377
f 380/380/380 379/379/379 377/377/377
f 380/380/380 377/377/377 381/381/381
f 382/382/382 380/380/380 381/381/381
f 382/382/382 381/381/381 383/383/383
f 379/379/379 384/384/384 378/378/378
f 384/384/384 385/385/385 378/378/378
f 385/385/385 384/384/384 386/386/386
f 386/386/386 384/384/384 379/379/379
f 387/387/387 385/385/385 386/386/386
f 379/379/379 380/380/380 388/388/388
f 388/388/388 380/380/380 382/382/382
f 387/387/387 386/386/386 389/389/389
f 390/390/390 387/387/387 389/389/389
f 391/391/391 386/386/386 379/379/379
f 391/391/391 379/379/379 388/388/388
f 389/389/389 386/386/386 391/391/391
f 390/390/390 389/389/389 392/392/392
f 393/393/393 390/390/390 392/392/392
f 394/394/394 389/389/389 391/391/391
f 392/392/392 389/389/389 394/394/394
f 393/393/393 392/392/392 395/395/395
f 395/395/395 392/392/392 394/394/394
f 396/396/396 393/393/393 395/395/395
f 396/396/396 395/395/395 397/397/397
f 395/395/395 394/394/394 397/397/397
f 398/398/398 396/396/396 397/397/397
f 394/394/394 391/391/391 399/399/399
f 391/391/391 388/388/388 399/399/399
f 394/394/394 399/399/399 397/397/397
f 398/398/398 397/397/397 400/400/400
f 401/401/401 398/398/398 400/400/400
f 399/399/399 388/388/388 402/402/402
f 402/402/402 388/388/388 382/382/382
f 397/397/397 399/399/399 403/403/403
f 400/400/400 397/397/397 403/403/403
f 403/403/403 399/399/399 402/402/402
f 401/401/401 400/400/400 404/404/404
f 400/400/400 403/403/403 404/404/404
f 405/405/405 401/401/401 404/404/404
f 403/403/403 402/402/402 406/406/406
f 403/403/403 406/406/406 404/404/404
f 402/402/402 382/382/382 407/407/407
f 402/402/402 407/407/407 406/406/406
f 405/405/405 404/404/404 408/408/408
f 409/409/409 405/405/405 408/408/408
f 404/404/404 406/406/406 410/410/410
f 408/408/408 404/404/404 410/410/410
f 409/409/409 408/408/408 411/411/411
f 408/408/408 410/410/410 411/411/411
f 412/412/412 409/409/409 411/411/411
f 410/410/410 406/406/406 413/413/413
f 406/406/406 407/407/407 413/413/413
f 382/382/382 414/414/414 407/407/407
f 414/414/414 382/382/382 383/383/383
f 414/414/414 383/383/383 415/415/415
f 407/407/407 414/414/414 416/416/416
f 416/416/416 414/414/414 415/415/415
f 413/413/413 407/407/407 416/416/416
f 416/416/416 415/415/415 417/417/417
f 410/410/410 413/413/413 418/418/418
f 410/410/410 418/418/418 411/411/411
f 412/412/412 411/411/411 419/419/419
f 420/420/420 412/412/412 419/419/419
f 421/421/421 416/416/416 417/417/417
f 417/417/417 422/422/422 421/421/421
f 413/413/413 416/416/416 423/423/423
f 416/416/416 421/421/421 423/423/423
f 413/413/413 423/423/423 418/418/418
f 422/422/422 424/424/424 421/421/421
f 423/423/423 421/421/421 424/424/424
f 422/422/422 425/425/425 424/424/424
f 411/411/411 418/418/418 426/426/426
f 419/419/419 411/411/411 426/426/426
f 420/420/420 419/419/419 427/427/427
f 419/419/419 426/426/426 427/427/427
f 428/428/428 420/420/420 427/427/427
f 418/418/418 423/423/423 429/429/429
f 426/426/426 418/418/418 429/429/429
f 429/429/429 423/423/423 424/424/424
f 426/426/426 430/430/430 427/427/427
f 427/427/427 430/430/430 428/428/428
f 426/426/426 429/429/429 430/430/430
f 430/430/430 431/431/431 428/428/428
f 429/429/429 432/432/432 430/430/430
f 430/430/430 432/432/432 431/431/431
f 429/429/429 424/424/424 432/432/432
f 432/432/432 433/433/433 431/431/431
f 425/425/425 434/434/434 424/424/424
f 434/434/434 425/425/425 433/433/433
f 424/424/424 434/434/434 432/432/432
f 432/432/432 434/434/434 433/433/433
