g Seat_01
v 3.384006 12.62929 10.23294
v 9.245275 -9.245263 10.23294
v 12.62928 3.384014 10.23294
v -9.245274 9.245283 10.23293
v -12.62927 -3.383994 10.23294
v -3.383996 -12.62927 10.23294
v 0.09737549 1.388291 9.797988
v -5.609792 7.095459 1.065322
v -3.929373 5.41502 -0.2778223
v -1.583049 3.068721 11.14113
v -1.189456 0.1014551 9.797997
v -3.929373 5.41502 -0.2778223
v -5.216196 4.128193 -0.2778223
v 0.09737549 1.388291 9.797988
v -2.86989 1.781894 11.14115
v -5.216196 4.128193 -0.2778223
v -6.896626 5.808623 1.065322
v -1.189456 0.1014551 9.797997
v -1.583049 3.068721 11.14113
v -6.896626 5.808623 1.065322
v -5.609792 7.095459 1.065322
v -2.86989 1.781894 11.14115
v -1.583049 3.068721 11.14113
v -1.189456 0.1014551 9.797997
v -2.86989 1.781894 11.14115
v 0.09737549 1.388291 9.797988
v -1.189446 0.8922656 9.797997
v -6.896606 -4.814912 1.065332
v -5.216179 -3.134463 -0.2778125
v -2.869873 -0.788164 11.14115
v 0.09739014 -0.3945605 9.797988
v -5.216179 -3.134463 -0.2778125
v -3.929351 -4.421309 -0.2778125
v -1.189446 0.8922656 9.797997
v -1.583044 -2.07499 11.14115
v -3.929351 -4.421309 -0.2778125
v -5.609775 -6.101728 1.065332
v 0.09739014 -0.3945605 9.797988
v -2.869873 -0.788164 11.14115
v -5.609775 -6.101728 1.065332
v -6.896606 -4.814912 1.065332
v -1.583044 -2.07499 11.14115
v -2.869873 -0.788164 11.14115
v 0.09739014 -0.3945605 9.797988
v -1.583044 -2.07499 11.14115
v -1.189446 0.8922656 9.797997
v -0.693435 1.388301 9.797988
v 5.013733 7.095459 1.065332
v 0.9869946 3.068721 11.14113
v 3.333303 5.415039 -0.2778125
v 0.5934057 0.1014648 9.797988
v 3.333303 5.415039 -0.2778125
v -0.693435 1.388301 9.797988
v 4.620129 4.128193 -0.2778125
v 2.273826 1.781894 11.14115
v 4.620129 4.128193 -0.2778125
v 0.5934057 0.1014648 9.797988
v 6.300569 5.808623 1.065332
v 0.9869946 3.068721 11.14113
v 6.300569 5.808623 1.065332
v 2.273826 1.781894 11.14115
v 5.013733 7.095459 1.065332
v 0.9869946 3.068721 11.14113
v 0.5934057 0.1014648 9.797988
v -0.693435 1.388301 9.797988
v 2.273826 1.781894 11.14115
v 0.5934253 0.8922656 9.797988
v 6.300583 -4.814902 1.065322
v 2.273845 -0.7881543 11.14115
v 4.620159 -3.134473 -0.2778223
v -0.6934106 -0.3945605 9.797997
v 4.620159 -3.134473 -0.2778223
v 0.5934253 0.8922656 9.797988
v 3.333328 -4.421299 -0.2778223
v 0.987019 -2.07499 11.14115
v 3.333328 -4.421299 -0.2778223
v -0.6934106 -0.3945605 9.797997
v 5.013747 -6.101728 1.065322
v 2.273845 -0.7881543 11.14115
v 5.013747 -6.101728 1.065322
v 0.987019 -2.07499 11.14115
v 6.300583 -4.814902 1.065322
v 2.273845 -0.7881543 11.14115
v -0.6934106 -0.3945605 9.797997
v 0.5934253 0.8922656 9.797988
v 0.987019 -2.07499 11.14115
v 3.384006 12.62929 11.22066
v -9.245274 9.245283 10.23293
v 3.384006 12.62929 10.23294
v -9.245271 9.245283 11.22065
v -12.62927 -3.383994 10.23294
v 12.62928 3.384014 11.22066
v 12.62928 3.384014 10.23294
v -12.62927 -3.383994 11.22065
v -3.383996 -12.62927 10.23294
v -3.383996 -12.62927 11.22066
v 9.245275 -9.245263 10.23294
v 9.245275 -9.245263 11.22065
v -11.4098 -3.057246 12.31399
v -8.352561 8.352569 12.31399
v 3.057253 11.40981 12.314
v 11.40981 3.057256 12.314
v -3.057241 -11.4098 12.31399
v 8.352561 -8.352549 12.31399
vt 0.7158203 0.8842773
vt 0.7529297 0.8613281
vt 0.7407227 0.8842773
vt 0.703125 0.8613281
vt 0.7158203 0.8388672
vt 0.7407227 0.8388672
vt 0.342041 0.8696289
vt 0.3552246 0.8374023
vt 0.3435059 0.8378906
vt 0.3540039 0.8691406
vt 0.342041 0.8696289
vt 0.3435059 0.8378906
vt 0.3435059 0.8378906
vt 0.342041 0.8696289
vt 0.3540039 0.8691406
vt 0.3435059 0.8378906
vt 0.3552246 0.8374023
vt 0.342041 0.8696289
vt 0.3540039 0.8691406
vt 0.3552246 0.8374023
vt 0.3552246 0.8374023
vt 0.3540039 0.8691406
vt 0.3540039 0.8691406
vt 0.342041 0.8696289
vt 0.3540039 0.8691406
vt 0.342041 0.8696289
vt 0.342041 0.8696289
vt 0.3552246 0.8374023
vt 0.3435059 0.8378906
vt 0.3540039 0.8691406
vt 0.342041 0.8696289
vt 0.3435059 0.8378906
vt 0.3435059 0.8378906
vt 0.342041 0.8696289
vt 0.3540039 0.8691406
vt 0.3435059 0.8378906
vt 0.3552246 0.8374023
vt 0.342041 0.8696289
vt 0.3540039 0.8691406
vt 0.3552246 0.8374023
vt 0.3552246 0.8374023
vt 0.3540039 0.8691406
vt 0.3540039 0.8691406
vt 0.342041 0.8696289
vt 0.3540039 0.8691406
vt 0.342041 0.8696289
vt 0.342041 0.8696289
vt 0.3552246 0.8374023
vt 0.3540039 0.8691406
vt 0.3435059 0.8378906
vt 0.342041 0.8696289
vt 0.3435059 0.8378906
vt 0.342041 0.8696289
vt 0.3435059 0.8378906
vt 0.3540039 0.8691406
vt 0.3435059 0.8378906
vt 0.342041 0.8696289
vt 0.3552246 0.8374023
vt 0.3540039 0.8691406
vt 0.3552246 0.8374023
vt 0.3540039 0.8691406
vt 0.3552246 0.8374023
vt 0.3540039 0.8691406
vt 0.342041 0.8696289
vt 0.342041 0.8696289
vt 0.3540039 0.8691406
vt 0.342041 0.8696289
vt 0.3552246 0.8374023
vt 0.3540039 0.8691406
vt 0.3435059 0.8378906
vt 0.342041 0.8696289
vt 0.3435059 0.8378906
vt 0.342041 0.8696289
vt 0.3435059 0.8378906
vt 0.3540039 0.8691406
vt 0.3435059 0.8378906
vt 0.342041 0.8696289
vt 0.3552246 0.8374023
vt 0.3540039 0.8691406
vt 0.3552246 0.8374023
vt 0.3540039 0.8691406
vt 0.3552246 0.8374023
vt 0.3540039 0.8691406
vt 0.342041 0.8696289
vt 0.342041 0.8696289
vt 0.3540039 0.8691406
vt 0.7158203 0.8842773
vt 0.703125 0.8613281
vt 0.7158203 0.8842773
vt 0.703125 0.8613281
vt 0.7158203 0.8388672
vt 0.7407227 0.8842773
vt 0.7407227 0.8842773
vt 0.7158203 0.8388672
vt 0.7407227 0.8388672
vt 0.7407227 0.8388672
vt 0.7529297 0.8613281
vt 0.7529297 0.8613281
vt 0.7167969 0.8408203
vt 0.7055664 0.8613281
vt 0.7167969 0.8818359
vt 0.7392578 0.8818359
vt 0.7392578 0.8408203
vt 0.7504883 0.8613281
vn 0 0 -1
vn 0 0 -1
vn -1.788139E-07 0 -1
vn 0 0 -1
vn 0 0 -1
vn 0 0 -1
vn 0.7070313 0.7070313 -6.556511E-07
vn 0.7070313 0.7070313 -9.536743E-07
vn 0.7070313 0.7070313 -1.013279E-06
vn 0.7070313 0.7070313 -5.960464E-07
vn 0.6157227 -0.6157227 -0.4919434
vn 0.6157227 -0.6157227 -0.4919434
vn 0.6157227 -0.6157227 -0.4919434
vn 0.6157227 -0.6157227 -0.4919434
vn -0.7070313 -0.7070313 0
vn -0.7070313 -0.7070313 0
vn -0.7070313 -0.7070313 0
vn -0.7070313 -0.7070313 0
vn -0.6157227 0.6157227 0.4919434
vn -0.6157227 0.6157227 0.4919434
vn -0.6157227 0.6157227 0.4919434
vn -0.6157227 0.6157227 0.4919434
vn 0.3479004 -0.3479004 0.8706055
vn 0.3479004 -0.3479004 0.8706055
vn 0.3479004 -0.3479004 0.8706055
vn 0.3479004 -0.3479004 0.8706055
vn -0.7070313 0.7070313 -4.172325E-07
vn -0.7070313 0.7070313 4.768372E-07
vn -0.7070313 0.7070313 7.152557E-07
vn -0.7070313 0.7070313 -5.960464E-07
vn 0.6157227 0.6157227 -0.4919434
vn 0.6157227 0.6157227 -0.4919434
vn 0.6157227 0.6157227 -0.4919434
vn 0.6157227 0.6157227 -0.4919434
vn 0.7070313 -0.7070313 0
vn 0.7070313 -0.7070313 0
vn 0.7070313 -0.7070313 0
vn 0.7070313 -0.7070313 0
vn -0.6157227 -0.6157227 0.4919434
vn -0.6157227 -0.6157227 0.4919434
vn -0.6157227 -0.6157227 0.4919434
vn -0.6157227 -0.6157227 0.4919434
vn 0.3479004 0.3479004 0.8706055
vn 0.3479004 0.3479004 0.8706055
vn 0.3479004 0.3479004 0.8706055
vn 0.3479004 0.3479004 0.8706055
vn -0.7070313 0.7070313 2.980232E-07
vn -0.7070313 0.7070313 2.384186E-07
vn -0.7070313 0.7070313 2.980232E-07
vn -0.7070313 0.7070313 1.788139E-07
vn -0.6157227 -0.6157227 -0.4919434
vn -0.6157227 -0.6157227 -0.4919434
vn -0.6157227 -0.6157227 -0.4919434
vn -0.6157227 -0.6157227 -0.4919434
vn 0.7070313 -0.7070313 1.788139E-07
vn 0.7070313 -0.7070313 0
vn 0.7070313 -0.7070313 2.384186E-07
vn 0.7070313 -0.7070313 0
vn 0.6157227 0.6157227 0.4919434
vn 0.6157227 0.6157227 0.4919434
vn 0.6157227 0.6157227 0.4919434
vn 0.6157227 0.6157227 0.4919434
vn -0.3479004 -0.3479004 0.8706055
vn -0.3479004 -0.3479004 0.8706055
vn -0.3479004 -0.3479004 0.8706055
vn -0.3479004 -0.3479004 0.8706055
vn 0.7070313 0.7070313 0
vn 0.7070313 0.7070313 3.576279E-07
vn 0.7070313 0.7070313 -1.788139E-07
vn 0.7070313 0.7070313 4.768372E-07
vn -0.6157227 0.6157227 -0.4919434
vn -0.6157227 0.6157227 -0.4919434
vn -0.6157227 0.6157227 -0.4919434
vn -0.6157227 0.6157227 -0.4919434
vn -0.7070313 -0.7070313 0
vn -0.7070313 -0.7070313 -1.192093E-07
vn -0.7070313 -0.7070313 1.192093E-07
vn -0.7070313 -0.7070313 -1.788139E-07
vn 0.6157227 -0.6157227 0.4919434
vn 0.6157227 -0.6157227 0.4919434
vn 0.6157227 -0.6157227 0.4919434
vn 0.6157227 -0.6157227 0.4919434
vn -0.3479004 0.3479004 0.8706055
vn -0.3479004 0.3479004 0.8706055
vn -0.3479004 0.3479004 0.8706055
vn -0.3479004 0.3479004 0.8706055
vn 0.2402344 0.8964844 0.3723145
vn -0.7070313 0.7070313 0
vn 0.2587891 0.9658203 0
vn -0.65625 0.65625 0.3723145
vn -0.9658203 -0.2587891 0
vn 0.8964844 0.2402344 0.3723145
vn 0.9658203 0.2587891 0
vn -0.8964844 -0.2402344 0.3723145
vn -0.2587891 -0.9658203 0
vn -0.2402344 -0.8964844 0.3723145
vn 0.7070313 -0.7070313 0
vn 0.65625 -0.65625 0.3723145
vn -0.4272461 -0.1144409 0.8969727
vn -0.3127441 0.3127441 0.8969727
vn 0.1144409 0.4272461 0.8969727
vn 0.4272461 0.1144409 0.8969727
vn -0.1144409 -0.4272461 0.8969727
vn 0.3127441 -0.3127441 0.8969727
g Seat_01_0
f 3/3/3 2/2/2 1/1/1
f 1/1/1 2/2/2 4/4/4
f 4/4/4 2/2/2 5/5/5
f 2/2/2 6/6/6 5/5/5
f 9/9/9 8/8/8 7/7/7
f 10/10/10 7/7/7 8/8/8
f 13/13/13 12/12/12 11/11/11
f 14/14/14 11/11/11 12/12/12
f 17/17/17 16/16/16 15/15/15
f 18/18/18 15/15/15 16/16/16
f 21/21/21 20/20/20 19/19/19
f 22/22/22 19/19/19 20/20/20
f 25/25/25 24/24/24 23/23/23
f 26/26/26 23/23/23 24/24/24
f 29/29/29 28/28/28 27/27/27
f 30/30/30 27/27/27 28/28/28
f 33/33/33 32/32/32 31/31/31
f 34/34/34 31/31/31 32/32/32
f 37/37/37 36/36/36 35/35/35
f 38/38/38 35/35/35 36/36/36
f 41/41/41 40/40/40 39/39/39
f 42/42/42 39/39/39 40/40/40
f 45/45/45 44/44/44 43/43/43
f 46/46/46 43/43/43 44/44/44
f 49/49/49 48/48/48 47/47/47
f 50/50/50 47/47/47 48/48/48
f 53/53/53 52/52/52 51/51/51
f 54/54/54 51/51/51 52/52/52
f 57/57/57 56/56/56 55/55/55
f 58/58/58 55/55/55 56/56/56
f 61/61/61 60/60/60 59/59/59
f 62/62/62 59/59/59 60/60/60
f 65/65/65 64/64/64 63/63/63
f 66/66/66 63/63/63 64/64/64
f 69/69/69 68/68/68 67/67/67
f 70/70/70 67/67/67 68/68/68
f 73/73/73 72/72/72 71/71/71
f 74/74/74 71/71/71 72/72/72
f 77/77/77 76/76/76 75/75/75
f 78/78/78 75/75/75 76/76/76
f 81/81/81 80/80/80 79/79/79
f 82/82/82 79/79/79 80/80/80
f 85/85/85 84/84/84 83/83/83
f 86/86/86 83/83/83 84/84/84
f 89/89/89 88/88/88 87/87/87
f 90/90/90 87/87/87 88/88/88
f 88/88/88 91/91/91 90/90/90
f 87/87/87 92/92/92 89/89/89
f 93/93/93 89/89/89 92/92/92
f 94/94/94 90/90/90 91/91/91
f 91/91/91 95/95/95 94/94/94
f 96/96/96 94/94/94 95/95/95
f 95/95/95 97/97/97 96/96/96
f 97/97/97 93/93/93 98/98/98
f 92/92/92 98/98/98 93/93/93
f 98/98/98 96/96/96 97/97/97
f 94/94/94 99/99/99 90/90/90
f 94/94/94 96/96/96 99/99/99
f 90/90/90 100/100/100 87/87/87
f 100/100/100 90/90/90 99/99/99
f 87/87/87 101/101/101 92/92/92
f 101/101/101 87/87/87 100/100/100
f 102/102/102 92/92/92 101/101/101
f 92/92/92 102/102/102 98/98/98
f 101/101/101 100/100/100 102/102/102
f 103/103/103 100/100/100 99/99/99
f 103/103/103 99/99/99 96/96/96
f 102/102/102 100/100/100 103/103/103
f 98/98/98 104/104/104 96/96/96
f 103/103/103 96/96/96 104/104/104
f 104/104/104 98/98/98 102/102/102
f 104/104/104 102/102/102 103/103/103
