g Seat_06
v 0.1845227 -0.2747173 -1.014481
v 0.2273908 -0.2352148 -1.016517
v 0.2276612 -0.241726 -1.025225
v 0.1813355 -0.2832043 -1.022713
v 0.1869324 -0.2807409 -0.9291238
v 0.1836316 -0.2884435 -0.9291244
v 0.1798078 -0.285255 -0.407452
v 0.1772135 -0.2930785 -0.4074447
v 0.174531 -0.2741698 -0.2859884
v 0.1717179 -0.2832122 -0.2777383
v 0.2192621 -0.2344372 -0.2890072
v 0.174531 -0.2741698 -0.2859884
v 0.1717179 -0.2832122 -0.2777383
v 0.2194037 -0.2409368 -0.2801424
v 0.275528 -0.1744134 -0.2918783
v 0.1697373 -0.2990832 -0.2664156
v 0.1772135 -0.2930785 -0.4074447
v 0.1773444 -0.3196288 -0.4073476
v 0.172258 -0.328623 -0.4073574
v 0.1633371 -0.3096349 -0.2553475
v 0.1594397 -0.3346764 -0.4074416
v 0.1496015 -0.3125378 -0.2439584
v 0.2246604 -0.2530987 -0.264764
v 0.2794162 -0.1766271 -0.2834615
v 0.3123111 -0.09698478 -0.2922726
v 0.2231388 -0.2608617 -0.2527669
v 0.2937226 -0.1846569 -0.265613
v 0.316738 -0.09835014 -0.2837405
v 0.3256916 -0.01070183 -0.2916152
v 0.06918399 -0.3443169 -0.2504146
v 0.075788 -0.3628313 -0.4080367
v -0.01045407 -0.3734868 -0.4087185
v 0.3302265 -0.01116753 -0.2832021
v 0.3197016 0.0744056 -0.2921633
v 0.3236295 0.07476387 -0.2841317
v 0.2855899 0.1534565 -0.2912362
v 0.3464597 -0.01300652 -0.2657418
v 0.3325415 -0.1038628 -0.2655538
v 0.2984186 -0.1871947 -0.2542928
v 0.2341822 -0.2585839 -0.2407326
v 0.337714 -0.1056622 -0.2542312
v 0.2966956 -0.185971 -0.242029
v 0.2887568 0.1547504 -0.2836581
v 0.2348755 0.2153944 -0.2881948
v 0.2349878 0.2216468 -0.2800759
v 0.1945523 0.2574 -0.2841329
v 0.3054886 0.1610084 -0.2664059
v 0.3412433 0.0775196 -0.2660275
v 0.351832 -0.01374138 -0.2544503
v 0.2072394 -0.2237572 -0.1520998
v 0.1924082 0.2668159 -0.2764992
v 0.1998008 0.2688636 -0.4092892
v 0.1978598 0.276681 -0.4093337
v 0.2002991 0.302057 -0.4094045
v 0.1915592 0.2830421 -0.2670339
v 0.3359021 -0.1053698 -0.2419155
v 0.34706 0.07823372 -0.254739
v 0.2419983 0.2334742 -0.2657888
v 0.1856824 0.2946705 -0.2568594
v 0.1961334 0.3119471 -0.4094753
v 0.1717108 0.2989002 -0.245544
v 0.184028 0.3191151 -0.4096017
v 0.3497418 -0.01384087 -0.2421719
v 0.2909064 -0.09089348 -0.1518832
v 0.3110892 0.162873 -0.2552773
v 0.2411948 0.2415858 -0.254241
v 0.3454459 0.07787178 -0.2423446
v 0.2519135 0.2385902 -0.2420473
v 0.3095352 0.1617005 -0.2429159
v 0.2991428 0.06747811 -0.1523879
v 0.2229706 0.2065675 -0.1535256
v 0.3032126 -0.01180474 -0.1520675
v 0.2683911 0.1406666 -0.152908
v 0.2179016 0.04937141 -0.07060204
v 0.2118933 -0.06616691 -0.07023278
v 0.2208713 -0.008469163 -0.07036705
v 0.2571344 -0.1612676 -0.1519119
v 0.1623313 0.1508454 -0.07143272
v 0.1954663 0.1027668 -0.0709829
v 0.1156668 0.02631721 -0.0180642
v 0.1619977 0.2552979 -0.1542098
v 0.187255 -0.1175072 -0.07025231
v 0.1508533 -0.1630993 -0.07039086
v 0.1124716 -0.03510185 -0.01786828
v 0.1172428 -0.004429857 -0.0179403
v 0.1037442 0.054701 -0.01826501
v 0.08612917 0.08025886 -0.01850243
v 0.09937747 -0.06239372 -0.01787743
v 0.117851 0.186399 -0.07193138
v -2.723893E-07 7.437547E-08 -8.461934E-07
v 0.06248172 0.09915657 -0.01876733
v 0.05492038 -0.1036614 -0.01810143
v 0.004522738 0.1170228 -0.01931725
v 0.08002749 -0.08663261 -0.01795129
v 0.03453037 0.1125843 -0.01905053
v 0.06526645 0.2116645 -0.07245812
v 0.1036243 -0.1951354 -0.07066917
v 0.008813509 0.2200159 -0.0729586
v 0.0899219 0.2899268 -0.1549349
v 0.1425037 -0.2676659 -0.1524801
v 0.06847782 -0.2947692 -0.1529989
v 0.04961978 -0.2149084 -0.07104699
v -0.01105771 -0.3551952 -0.2568819
v 0.01254337 0.3013746 -0.1556197
v 0.0939374 0.3388233 -0.2526436
v 0.1024024 0.3559937 -0.4104146
v 0.01728214 0.3705152 -0.4111751
v 0.01535343 0.3533204 -0.2592238
v -0.0780621 0.3467182 -0.2611544
v -0.08090726 0.363368 -0.411968
v -0.1705716 0.3276099 -0.4125863
v -0.06719906 0.2952723 -0.1562606
v -0.04936307 0.2155653 -0.07342858
v -0.1635394 0.3124622 -0.2605672
v -0.02640286 0.1146595 -0.01956567
v -0.139928 0.2665455 -0.1567635
v -0.2409616 0.2594129 -0.2608157
v -0.2518823 0.2719312 -0.4130624
v -0.311806 0.1965186 -0.4132876
v -0.05460751 0.1035242 -0.01975854
v -0.1024231 0.1946076 -0.07379479
v -0.2059396 0.2213972 -0.1571493
v -0.2980358 0.1876209 -0.2612362
v -0.1505819 0.1616688 -0.07407616
v -0.08020871 0.08601326 -0.01990929
v -0.2545587 0.1601478 -0.1573342
v -0.3386349 0.1030268 -0.2613039
v -0.3544357 0.1076838 -0.4133218
v -0.3685772 0.01237373 -0.4130941
v -0.09906369 0.06225593 -0.01998132
v -0.1860534 0.1169825 -0.07420921
v -0.2891552 0.08803841 -0.1573623
v -0.2112924 0.06437629 -0.07423058
v -0.1124786 0.03429206 -0.01999169
v -0.3520989 0.01226265 -0.2610506
v -0.116932 0.004293287 -0.01991967
v -0.3006396 0.01068306 -0.1571786
v -0.2196691 0.0079438 -0.07409508
v -0.2945468 -0.06905876 -0.1568386
v -0.2152249 -0.0502343 -0.07384911
v -0.1145691 -0.02663201 -0.01978905
v -0.1034298 -0.05483818 -0.01959374
v -0.1942645 -0.1032958 -0.0734829
v -0.3449484 -0.08129875 -0.2606466
v -0.265816 -0.1417882 -0.1563369
v -0.3610705 -0.08587456 -0.4126785
v -0.3256747 -0.1754833 -0.4120583
v -0.311242 -0.1666314 -0.2600655
v -0.2582714 -0.2440862 -0.2593441
v -0.2700521 -0.2568169 -0.4113015
v -0.1945941 -0.3167211 -0.4104562
v -0.2206704 -0.2077996 -0.1557223
v -0.1613284 -0.1514544 -0.07303307
v -0.08592099 -0.0804406 -0.01935631
v -0.1864117 -0.301134 -0.258536
v -0.06216915 -0.09929802 -0.01909081
v -0.1594259 -0.2564196 -0.1550356
v -0.1166482 -0.186925 -0.07253319
v -0.1016324 -0.3422564 -0.2588137
v -0.1057559 -0.3593419 -0.4095632
v -0.08732053 -0.2910119 -0.1543093
v -0.004207731 -0.117163 -0.01854333
v -0.06404324 -0.2121642 -0.07200462
v -0.009968229 -0.3024926 -0.1536233
v -0.0342059 -0.1127111 -0.01880822
v -0.007610136 -0.2205395 -0.07150292
v 0.02621402 -0.1141711 -0.01830102
v 0.2070426 0.2505982 -1.014847
v 0.2085468 0.2559034 -0.9308852
v 0.2055191 0.2638367 -0.9309389
v 0.2041159 0.2592982 -1.022949
v 0.2454404 0.2085291 -1.019287
v 0.1999024 0.2823744 -1.042219
v 0.2072849 0.3012714 -0.9310592
v 0.2017133 0.3102967 -0.9311385
v 0.2474115 0.2160657 -1.027443
v 0.295589 0.1454676 -1.024544
v 0.1934607 0.292494 -1.053764
v 0.1896714 0.3168275 -0.9312624
v 0.302746 0.1498994 -1.031663
v 0.3273493 0.06724007 -1.022932
v 0.2495377 0.2304652 -1.043471
v 0.1804059 0.2959833 -1.065036
v 0.1071241 0.3534925 -0.9320833
v 0.3341843 0.06979744 -1.030412
v 0.3318567 -0.01658928 -1.01925
v 0.3127082 0.156045 -1.042296
v 0.2483322 0.2383973 -1.055501
v 0.3369565 -0.01668205 -1.027379
v 0.3183811 -0.1001946 -1.019024
v 0.3230365 -0.1018108 -1.027251
v 0.2828821 -0.1754345 -1.019109
v 0.3520465 -0.01687248 -1.041287
v 0.3472864 0.07284065 -1.041817
v 0.3179206 0.1593757 -1.053285
v 0.2596234 0.2355982 -1.067718
v 0.3535044 0.07479439 -1.05276
v 0.2871793 -0.1782128 -1.027256
v 0.2273908 -0.2352148 -1.016517
v 0.2276612 -0.241726 -1.025225
v 0.2997556 -0.1863854 -1.041092
v 0.3379551 -0.1064159 -1.041212
v 0.231247 -0.255631 -1.041715
v 0.3581513 -0.01691277 -1.052287
v 0.3439667 -0.1084264 -1.052145
v 0.3581513 -0.01691277 -1.052287
v 0.3163495 0.1587 -1.065689
v 0.3521244 0.0748072 -1.06526
v 0.1772989 -0.3031859 -1.039862
v 0.1813355 -0.2832043 -1.022713
v 0.276745 0.1370399 -1.156124
v 0.3564512 -0.01680657 -1.064687
v 0.3439667 -0.1084264 -1.052145
v 0.3425721 -0.1082409 -1.064598
v 0.3048667 -0.1897362 -1.052092
v 0.2997556 -0.1863854 -1.041092
v 0.3115686 -0.01543694 -1.15528
v 0.1832819 -0.3219439 -0.9290066
v 0.1836316 -0.2884435 -0.9291244
v 0.2298603 -0.2634051 -1.053888
v 0.170636 -0.3129687 -1.051666
v 0.1773807 -0.3306042 -0.9290243
v 0.1575098 -0.3156072 -1.063081
v 0.1646698 -0.3363628 -0.9291085
v 0.08047885 -0.3644433 -0.9297097
v 0.2414456 -0.2614813 -1.066048
v 0.3034211 -0.1888647 -1.064476
v 0.2654907 -0.1648925 -1.155125
v 0.2992609 -0.0945214 -1.155097
v 0.07647403 -0.3473937 -1.058168
v 0.1508588 -0.2712957 -1.155696
v 0.2155957 -0.2273858 -1.155315
v 0.1969849 -0.1217303 -1.23825
v -0.004425016 -0.3580712 -1.053234
v -0.006108976 -0.3753716 -0.9303902
v -0.101412 -0.3612273 -0.9312356
v 0.2306003 -0.01268914 -1.238363
v 0.2216223 -0.07038811 -1.23823
v 0.1099933 -0.06700248 -1.292481
v 0.1278626 -0.009039232 -1.292539
v 0.1605832 -0.1673193 -1.238388
v 0.3074985 0.06384834 -1.155603
v 0.1230902 -0.03971062 -1.292469
v 0.227631 0.04515266 -1.238597
v 0.205196 0.09854866 -1.238978
v 0.1143588 0.0500898 -1.292867
v 0.1262836 0.02170662 -1.292664
v 0.2313263 0.2029389 -1.156739
v 0.01093051 -0.004744798 -1.31246
v 0.06553622 -0.1082641 -1.292702
v 0.07309756 0.09454719 -1.293371
v 0.006407809 -0.1217712 -1.293145
v 0.01513736 0.1124158 -1.293919
v -0.05155361 -0.1039074 -1.293694
v -0.04399227 0.0989112 -1.294361
v -0.09281308 -0.05944694 -1.294195
v -0.08844724 0.05764778 -1.294582
v -0.1063171 -0.000314867 -1.294522
v 0.09064273 -0.09123711 -1.292555
v 0.1133542 -0.1993529 -1.238666
v 0.07683383 -0.2983996 -1.156215
v 0.05934848 -0.2191277 -1.239045
v -0.001612516 -0.3061193 -1.156839
v 0.03682987 -0.1187743 -1.292901
v 0.002117648 -0.2247625 -1.239502
v -0.0950311 -0.3450884 -1.052981
v -0.07896389 -0.2946386 -1.157525
v -0.05431454 -0.2163854 -1.240001
v -0.1797793 -0.3040099 -1.054893
v -0.1902502 -0.3186083 -0.9321291
v -0.265708 -0.2587042 -0.9329756
v -0.02358944 -0.1173199 -1.29341
v -0.1069189 -0.1911498 -1.240531
v -0.151069 -0.2600451 -1.158252
v -0.25164 -0.2469665 -1.055697
v -0.2123138 -0.2114269 -1.158938
v -0.1516009 -0.1556799 -1.24103
v -0.3046124 -0.1695165 -1.056421
v -0.3213293 -0.1773693 -0.9337319
v -0.3567248 -0.08776115 -0.9343514
v -0.07530545 -0.08504997 -1.293959
v -0.1845379 -0.1075219 -1.241478
v -0.2574609 -0.1454162 -1.159553
v -0.3383184 -0.08418083 -1.057016
v -0.2861907 -0.07268669 -1.160055
v -0.2054992 -0.05445854 -1.241844
v -0.3454657 0.00938484 -1.057407
v -0.364233 0.01048591 -0.9347689
v -0.1039541 -0.03124016 -1.29439
v -0.2099438 0.003721998 -1.242092
v -0.292283 0.007056959 -1.160394
v -0.2015652 0.06015754 -1.242227
v -0.2807992 0.08441047 -1.160579
v -0.3320013 0.1001484 -1.05759
v -0.1018628 0.02968391 -1.294593
v -0.1763244 0.1127662 -1.242207
v -0.3500927 0.1057972 -0.9349959
v -0.2462051 0.156518 -1.160551
v -0.2914028 0.1847425 -1.057592
v -0.3074615 0.1946332 -0.9349611
v -0.2475329 0.2700306 -0.9347353
v -0.2343267 0.2565382 -1.057561
v -0.1975854 0.2177698 -1.160367
v -0.1408539 0.1574482 -1.242074
v -0.1569052 0.3095801 -1.056922
v -0.166228 0.3257239 -0.9342592
v -0.07654476 0.36159 -0.9336428
v -0.06959164 0.08140144 -1.294511
v -0.09269406 0.1903846 -1.241791
v -0.1315722 0.2629218 -1.159979
v -0.07146237 0.3437946 -1.055263
v -0.05884396 0.291648 -1.15948
v -0.03963559 0.2113398 -1.241424
v 0.02198825 0.350442 -1.055579
v 0.02162662 0.3686347 -0.9328505
v -0.01578732 0.1100507 -1.294167
v 0.01853885 0.2157905 -1.240957
v 0.02089878 0.2977467 -1.158838
v 0.1015735 0.3360133 -1.060267
v 0.09827792 0.2862995 -1.158149
v 0.1703543 0.2516694 -1.157422
v 0.0749924 0.2074415 -1.240457
v 0.1275766 0.182179 -1.239929
v 0.04514591 0.1079774 -1.293651
v 0.1720587 0.1466273 -1.239428
v 0.09674411 0.07564827 -1.293106
v 0.2085468 0.2559034 -0.9308852
v 0.1998008 0.2688636 -0.4092892
v 0.1978598 0.276681 -0.4093337
v 0.2055191 0.2638367 -0.9309389
v 0.2072849 0.3012714 -0.9310592
v 0.2002991 0.302057 -0.4094045
v 0.1961334 0.3119471 -0.4094753
v 0.2017133 0.3102967 -0.9311385
v 0.184028 0.3191151 -0.4096017
v 0.1896714 0.3168275 -0.9312624
v 0.1024024 0.3559937 -0.4104146
v 0.1071241 0.3534925 -0.9320833
v 0.02162662 0.3686347 -0.9328505
v 0.01728214 0.3705152 -0.4111751
v -0.08090726 0.363368 -0.411968
v -0.07654476 0.36159 -0.9336428
v -0.166228 0.3257239 -0.9342592
v -0.1705716 0.3276099 -0.4125863
v -0.2518823 0.2719312 -0.4130624
v -0.2475329 0.2700306 -0.9347353
v -0.3074615 0.1946332 -0.9349611
v -0.311806 0.1965186 -0.4132876
v -0.3544357 0.1076838 -0.4133218
v -0.3500927 0.1057972 -0.9349959
v -0.3610705 -0.08587456 -0.4126785
v -0.3567248 -0.08776115 -0.9343514
v -0.3213293 -0.1773693 -0.9337319
v -0.3256747 -0.1754833 -0.4120583
v -0.2700521 -0.2568169 -0.4113015
v -0.265708 -0.2587042 -0.9329756
v -0.1902502 -0.3186083 -0.9321291
v -0.1945941 -0.3167211 -0.4104562
v -0.1057559 -0.3593419 -0.4095632
v -0.101412 -0.3612273 -0.9312356
v -0.006108976 -0.3753716 -0.9303902
v -0.01045407 -0.3734868 -0.4087185
v 0.075788 -0.3628313 -0.4080367
v 0.08047885 -0.3644433 -0.9297097
v 0.1646698 -0.3363628 -0.9291085
v 0.1594397 -0.3346764 -0.4074416
v 0.172258 -0.328623 -0.4073574
v 0.1773807 -0.3306042 -0.9290243
v 0.1773444 -0.3196288 -0.4073476
v 0.1772135 -0.2930785 -0.4074447
v 0.1836316 -0.2884435 -0.9291244
v 0.1832819 -0.3219439 -0.9290066
v 0.1773807 -0.3306042 -0.9290243
v 0.172258 -0.328623 -0.4073574
v 0.2997556 -0.1863854 -1.041092
v 0.3379551 -0.1064159 -1.041212
v 0.2855899 0.1534565 -0.2912362
v 0.2348755 0.2153944 -0.2881948
v 0.245838 0.2016279 -0.2989278
v 0.2866675 0.1535621 -0.3019009
v 0.3197016 0.0744056 -0.2921633
v 0.3204648 0.0745118 -0.3023629
v 0.3256916 -0.01070183 -0.2916152
v 0.1995697 0.2505677 -0.2941549
v 0.1945523 0.2574 -0.2841329
v 0.2057544 0.26042 -0.4092086
v 0.1998008 0.2688636 -0.4092892
v 0.3052393 0.1581007 -0.4080099
v 0.2144486 0.2478663 -0.9308065
v 0.2085468 0.2559034 -0.9308852
v 0.2578128 0.2105488 -0.4085952
v 0.2123908 0.2430274 -1.006052
v 0.2070426 0.2505982 -1.014847
v 0.2678427 0.2031831 -0.9302004
v 0.2555719 0.1931751 -1.01228
v 0.2454404 0.2085291 -1.019287
v 0.2937512 0.1444666 -1.016301
v 0.295589 0.1454676 -1.024544
v 0.3095856 0.1562196 -0.9296834
v 0.3261573 0.06667854 -1.014183
v 0.3273493 0.06724007 -1.022932
v 0.34025 0.0756446 -0.4074203
v 0.344541 0.07370613 -0.9290944
v 0.3316455 -0.01652092 -1.009727
v 0.3318567 -0.01658928 -1.01925
v 0.3489353 -0.01608086 -0.9287325
v 0.3445896 -0.01419304 -0.4070589
v 0.3183976 -0.1001482 -1.009328
v 0.3183811 -0.1001946 -1.019024
v 0.3351984 -0.1056799 -0.9285225
v 0.2826673 -0.1753374 -1.009584
v 0.2828821 -0.1754345 -1.019109
v 0.3308722 -0.1038268 -0.4068496
v 0.3258744 -0.01084831 -0.3011135
v 0.3123111 -0.09698478 -0.2922726
v 0.3124887 -0.0971624 -0.301639
v 0.275528 -0.1744134 -0.2918783
v 0.2968671 -0.1849743 -0.9285567
v 0.239383 -0.2212041 -1.007783
v 0.2273908 -0.2352148 -1.016517
v 0.2757688 -0.1744628 -0.3013723
v 0.2192621 -0.2344372 -0.2890072
v 0.2925202 -0.1830883 -0.4068832
v 0.2310703 -0.220841 -0.2993447
v 0.174531 -0.2741698 -0.2859884
v 0.2498481 -0.2306506 -0.9287813
v 0.1903043 -0.2675768 -1.005551
v 0.1845227 -0.2747173 -1.014481
v 0.241825 -0.231726 -0.4071285
v 0.1934522 -0.2730077 -0.9290981
v 0.1869324 -0.2807409 -0.9291238
v 0.1862848 -0.2772826 -0.407427
v 0.1798078 -0.285255 -0.407452
v 0.1801877 -0.2674932 -0.2958962
vt 0.1473389 0.9785156
vt 0.1470947 0.9780273
vt 0.1469727 0.9780273
vt 0.1472168 0.9790039
vt 0.1485596 0.9785156
vt 0.1485596 0.9785156
vt 0.1557617 0.9765625
vt 0.1558838 0.9765625
vt 0.1575928 0.9760742
vt 0.1577148 0.9760742
vt 0.1518555 0.9750977
vt 0.1523438 0.9746094
vt 0.1523438 0.9746094
vt 0.1518555 0.9750977
vt 0.1514893 0.9755859
vt 0.1523438 0.9746094
vt 0.15271 0.9750977
vt 0.15271 0.9750977
vt 0.15271 0.9750977
vt 0.1523438 0.9746094
vt 0.152832 0.9750977
vt 0.1522217 0.9746094
vt 0.1518555 0.9750977
vt 0.1514893 0.9755859
vt 0.151001 0.9755859
vt 0.1518555 0.9750977
vt 0.1514893 0.9755859
vt 0.151001 0.9755859
vt 0.1503906 0.9760742
vt 0.1524658 0.9741211
vt 0.1529541 0.9746094
vt 0.1530762 0.9736328
vt 0.1503906 0.9760742
vt 0.1499023 0.9755859
vt 0.1499023 0.9755859
vt 0.149292 0.9755859
vt 0.1503906 0.9760742
vt 0.151001 0.9755859
vt 0.1514893 0.9755859
vt 0.1518555 0.9750977
vt 0.151001 0.9755859
vt 0.1514893 0.9755859
vt 0.149292 0.9755859
vt 0.1489258 0.9750977
vt 0.1489258 0.9750977
vt 0.1485596 0.9746094
vt 0.149292 0.9755859
vt 0.1499023 0.9755859
vt 0.1503906 0.9760742
vt 0.1514893 0.9750977
vt 0.1485596 0.9746094
vt 0.1480713 0.9750977
vt 0.1480713 0.9750977
vt 0.1480713 0.9750977
vt 0.1485596 0.9746094
vt 0.151001 0.9755859
vt 0.1499023 0.9755859
vt 0.1489258 0.9750977
vt 0.1485596 0.9746094
vt 0.1480713 0.9750977
vt 0.1485596 0.9746094
vt 0.1480713 0.9750977
vt 0.1503906 0.9760742
vt 0.1508789 0.9750977
vt 0.149292 0.9755859
vt 0.1489258 0.9750977
vt 0.1499023 0.9755859
vt 0.1489258 0.9750977
vt 0.1494141 0.9755859
vt 0.1500244 0.9750977
vt 0.149292 0.9750977
vt 0.1503906 0.9755859
vt 0.1496582 0.9750977
vt 0.1501465 0.9746094
vt 0.1506348 0.9746094
vt 0.1503906 0.9746094
vt 0.1512451 0.9750977
vt 0.1496582 0.9746094
vt 0.1499023 0.9746094
vt 0.1502686 0.9741211
vt 0.1490479 0.9746094
vt 0.151001 0.9746094
vt 0.151123 0.9746094
vt 0.1505127 0.9741211
vt 0.1503906 0.9741211
vt 0.1501465 0.9741211
vt 0.1500244 0.9741211
vt 0.1506348 0.9741211
vt 0.1495361 0.9741211
vt 0.1503906 0.9736328
vt 0.1499023 0.9741211
vt 0.1508789 0.9741211
vt 0.1499023 0.9736328
vt 0.1507568 0.9741211
vt 0.1499023 0.9741211
vt 0.1494141 0.9741211
vt 0.1513672 0.9741211
vt 0.149292 0.9736328
vt 0.1489258 0.9741211
vt 0.1518555 0.9746094
vt 0.1519775 0.9741211
vt 0.1514893 0.9741211
vt 0.1525879 0.9736328
vt 0.1488037 0.9736328
vt 0.1484375 0.9741211
vt 0.1478271 0.9746094
vt 0.1477051 0.9736328
vt 0.1483154 0.9736328
vt 0.1484375 0.9731445
vt 0.1479492 0.9731445
vt 0.1480713 0.9726563
vt 0.1489258 0.9731445
vt 0.1494141 0.9736328
vt 0.1485596 0.9726563
vt 0.1499023 0.9736328
vt 0.1490479 0.9731445
vt 0.1489258 0.972168
vt 0.1485596 0.972168
vt 0.1490479 0.9711914
vt 0.1499023 0.9736328
vt 0.1495361 0.9731445
vt 0.149292 0.9726563
vt 0.149292 0.9716797
vt 0.1496582 0.9731445
vt 0.1500244 0.9736328
vt 0.1496582 0.972168
vt 0.1499023 0.9716797
vt 0.1497803 0.9711914
vt 0.151123 0.9711914
vt 0.1501465 0.9731445
vt 0.1499023 0.9726563
vt 0.1500244 0.972168
vt 0.1501465 0.9726563
vt 0.1502686 0.9731445
vt 0.1503906 0.9716797
vt 0.1503906 0.9731445
vt 0.1503906 0.972168
vt 0.1503906 0.9726563
vt 0.1508789 0.972168
vt 0.1506348 0.9726563
vt 0.1505127 0.9731445
vt 0.1506348 0.9731445
vt 0.151001 0.9726563
vt 0.151001 0.9716797
vt 0.1512451 0.972168
vt 0.151123 0.9711914
vt 0.1517334 0.9711914
vt 0.1514893 0.9716797
vt 0.1518555 0.972168
vt 0.1522217 0.972168
vt 0.15271 0.9726563
vt 0.1514893 0.9726563
vt 0.151123 0.9731445
vt 0.1507568 0.9736328
vt 0.1523438 0.9726563
vt 0.1508789 0.9736328
vt 0.1518555 0.9731445
vt 0.1513672 0.9731445
vt 0.1524658 0.9731445
vt 0.1529541 0.9731445
vt 0.1519775 0.9731445
vt 0.151001 0.9736328
vt 0.1514893 0.9736328
vt 0.1520996 0.9736328
vt 0.1508789 0.9736328
vt 0.1514893 0.9736328
vt 0.1508789 0.9741211
vt 0.1485596 0.9609375
vt 0.1480713 0.9604492
vt 0.1480713 0.9604492
vt 0.1485596 0.9609375
vt 0.1489258 0.9604492
vt 0.1485596 0.9609375
vt 0.1480713 0.9604492
vt 0.1480713 0.9604492
vt 0.1489258 0.9604492
vt 0.149292 0.9599609
vt 0.1485596 0.9609375
vt 0.1480713 0.9604492
vt 0.149292 0.9599609
vt 0.1499023 0.9599609
vt 0.1489258 0.9604492
vt 0.1485596 0.9609375
vt 0.1478271 0.9614258
vt 0.1499023 0.9599609
vt 0.1503906 0.9599609
vt 0.149292 0.9599609
vt 0.1489258 0.9604492
vt 0.1503906 0.9599609
vt 0.151001 0.9599609
vt 0.151001 0.9599609
vt 0.1514893 0.9599609
vt 0.1503906 0.9599609
vt 0.1499023 0.9599609
vt 0.149292 0.9599609
vt 0.1489258 0.9604492
vt 0.1499023 0.9599609
vt 0.1514893 0.9599609
vt 0.1518555 0.9604492
vt 0.1518555 0.9604492
vt 0.1514893 0.9599609
vt 0.151001 0.9599609
vt 0.1518555 0.9604492
vt 0.1503906 0.9599609
vt 0.151001 0.9599609
vt 0.1503906 0.9599609
vt 0.1494141 0.9599609
vt 0.1499023 0.9599609
vt 0.1523438 0.9609375
vt 0.1523438 0.9609375
vt 0.1496582 0.9604492
vt 0.1503906 0.9599609
vt 0.151001 0.9599609
vt 0.151001 0.9599609
vt 0.1514893 0.9599609
vt 0.1514893 0.9599609
vt 0.1503906 0.9604492
vt 0.15271 0.9604492
vt 0.15271 0.9604492
vt 0.1518555 0.9604492
vt 0.1523438 0.9609375
vt 0.15271 0.9604492
vt 0.1522217 0.9609375
vt 0.152832 0.9604492
vt 0.1529541 0.9614258
vt 0.1518555 0.9604492
vt 0.1514893 0.9599609
vt 0.1512451 0.9604492
vt 0.1508789 0.9604492
vt 0.1524658 0.9614258
vt 0.1518555 0.9609375
vt 0.1514893 0.9609375
vt 0.151001 0.9609375
vt 0.1525879 0.9619141
vt 0.1530762 0.9619141
vt 0.1529541 0.9624023
vt 0.1503906 0.9609375
vt 0.1506348 0.9609375
vt 0.1506348 0.9614258
vt 0.1503906 0.9614258
vt 0.151123 0.9609375
vt 0.1500244 0.9604492
vt 0.1505127 0.9614258
vt 0.1501465 0.9609375
vt 0.1499023 0.9609375
vt 0.1501465 0.9614258
vt 0.1502686 0.9614258
vt 0.149292 0.9609375
vt 0.1503906 0.9619141
vt 0.1508789 0.9614258
vt 0.1499023 0.9614258
vt 0.151001 0.9619141
vt 0.1499023 0.9619141
vt 0.1508789 0.9619141
vt 0.1499023 0.9619141
vt 0.1506348 0.9624023
vt 0.1501465 0.9624023
vt 0.1503906 0.9624023
vt 0.1507568 0.9614258
vt 0.1513672 0.9614258
vt 0.1519775 0.9614258
vt 0.1514893 0.9614258
vt 0.1520996 0.9619141
vt 0.1508789 0.9619141
vt 0.1514893 0.9619141
vt 0.1524658 0.9624023
vt 0.1519775 0.9624023
vt 0.1514893 0.9619141
vt 0.1523438 0.9628906
vt 0.15271 0.9633789
vt 0.1522217 0.9638672
vt 0.1508789 0.9619141
vt 0.1513672 0.9624023
vt 0.1518555 0.9628906
vt 0.1518555 0.9633789
vt 0.1514893 0.9628906
vt 0.151123 0.9624023
vt 0.1514893 0.9638672
vt 0.1517334 0.9643555
vt 0.151123 0.9643555
vt 0.1507568 0.9624023
vt 0.151001 0.9628906
vt 0.1512451 0.9633789
vt 0.151001 0.9638672
vt 0.1508789 0.9633789
vt 0.1506348 0.9628906
vt 0.1503906 0.9638672
vt 0.1503906 0.9643555
vt 0.1505127 0.9624023
vt 0.1503906 0.9628906
vt 0.1503906 0.9633789
vt 0.1501465 0.9628906
vt 0.1500244 0.9633789
vt 0.1499023 0.9638672
vt 0.1502686 0.9624023
vt 0.1499023 0.9628906
vt 0.1497803 0.9643555
vt 0.1496582 0.9633789
vt 0.149292 0.9638672
vt 0.1490479 0.9643555
vt 0.1485596 0.9638672
vt 0.1489258 0.9633789
vt 0.149292 0.9628906
vt 0.1496582 0.9624023
vt 0.1485596 0.9628906
vt 0.1480713 0.9633789
vt 0.1479492 0.9624023
vt 0.1500244 0.9624023
vt 0.1495361 0.9624023
vt 0.1490479 0.9628906
vt 0.1484375 0.9624023
vt 0.1489258 0.9624023
vt 0.1494141 0.9619141
vt 0.1483154 0.9619141
vt 0.1477051 0.9619141
vt 0.1499023 0.9619141
vt 0.149292 0.9619141
vt 0.1488037 0.9619141
vt 0.1484375 0.9614258
vt 0.1489258 0.9614258
vt 0.1490479 0.9609375
vt 0.1494141 0.9614258
vt 0.1495361 0.9614258
vt 0.1499023 0.9619141
vt 0.1496582 0.9609375
vt 0.1500244 0.9614258
vt 0.1496582 0.9643555
vt 0.1496582 0.9711914
vt 0.1496582 0.9711914
vt 0.1496582 0.9643555
vt 0.1496582 0.9643555
vt 0.1496582 0.9711914
vt 0.1496582 0.9711914
vt 0.1496582 0.9643555
vt 0.1497803 0.9711914
vt 0.1497803 0.9643555
vt 0.1499023 0.9711914
vt 0.1499023 0.9643555
vt 0.1500244 0.9643555
vt 0.1500244 0.9711914
vt 0.1502686 0.9711914
vt 0.1502686 0.9643555
vt 0.1503906 0.9643555
vt 0.1503906 0.9711914
vt 0.1506348 0.9711914
vt 0.1506348 0.9643555
vt 0.1507568 0.9643555
vt 0.1507568 0.9711914
vt 0.151001 0.9711914
vt 0.151001 0.9643555
vt 0.1513672 0.9711914
vt 0.1513672 0.9643555
vt 0.1514893 0.9643555
vt 0.1514893 0.9711914
vt 0.1517334 0.9711914
vt 0.1517334 0.9643555
vt 0.1518555 0.9643555
vt 0.1518555 0.9711914
vt 0.1520996 0.9711914
vt 0.1520996 0.9643555
vt 0.1522217 0.9643555
vt 0.1522217 0.9711914
vt 0.1523438 0.9711914
vt 0.1523438 0.9643555
vt 0.1525879 0.9643555
vt 0.1525879 0.9711914
vt 0.1525879 0.9711914
vt 0.1525879 0.9643555
vt 0.1496582 0.9711914
vt 0.1496582 0.9711914
vt 0.1496582 0.9643555
vt 0.1496582 0.9643555
vt 0.1496582 0.9643555
vt 0.1496582 0.9711914
vt 0.1514893 0.9599609
vt 0.151001 0.9599609
vt 0.2111816 0.9750977
vt 0.2115479 0.9765625
vt 0.2122803 0.9760742
vt 0.2120361 0.9750977
vt 0.2109375 0.9731445
vt 0.2119141 0.9731445
vt 0.2108154 0.9711914
vt 0.2125244 0.9770508
vt 0.2121582 0.9775391
vt 0.2143555 0.9775391
vt 0.2142334 0.9780273
vt 0.2141113 0.9746094
vt 0.2213135 0.9770508
vt 0.2214355 0.9780273
vt 0.2142334 0.9760742
vt 0.2225342 0.9770508
vt 0.2230225 0.9775391
vt 0.2211914 0.9760742
vt 0.2227783 0.9760742
vt 0.2236328 0.9765625
vt 0.2231445 0.9750977
vt 0.223999 0.9750977
vt 0.2213135 0.9746094
vt 0.2232666 0.9731445
vt 0.2242432 0.9731445
vt 0.2141113 0.9731445
vt 0.2213135 0.9731445
vt 0.2232666 0.9711914
vt 0.2243652 0.9711914
vt 0.2213135 0.9711914
vt 0.2141113 0.9711914
vt 0.2232666 0.9692383
vt 0.2242432 0.96875
vt 0.2213135 0.9692383
vt 0.2230225 0.9672852
vt 0.223999 0.9672852
vt 0.2141113 0.9692383
vt 0.2119141 0.9711914
vt 0.2109375 0.96875
vt 0.2119141 0.96875
vt 0.2111816 0.9667969
vt 0.2213135 0.9672852
vt 0.2227783 0.9658203
vt 0.2236328 0.9658203
vt 0.2121582 0.9672852
vt 0.2115479 0.965332
vt 0.2142334 0.9672852
vt 0.2124023 0.9658203
vt 0.2121582 0.9643555
vt 0.2213135 0.9658203
vt 0.2225342 0.9648438
vt 0.2230225 0.9648438
vt 0.2142334 0.9658203
vt 0.2213135 0.9648438
vt 0.2214355 0.9643555
vt 0.2143555 0.9648438
vt 0.2142334 0.9638672
vt 0.2126465 0.9648438
vn 0.8222656 -0.5512695 0.1416016
vn 0.6674805 -0.6606445 0.34375
vn 0.5698242 -0.5649414 0.5966797
vn 0.9370117 -0.2978516 0.1826172
vn 0.8579102 -0.5136719 -0.002408981
vn 0.9960938 -0.08874512 0.001915932
vn 0.8647461 -0.5014648 0.02088928
vn 0.996582 -0.08227539 0.01899719
vn 0.8554688 -0.5058594 -0.1108398
vn 0.9511719 -0.2524414 -0.177124
vn 0.6479492 -0.6860352 -0.3310547
vn 0.8554688 -0.5058594 -0.1108398
vn 0.9511719 -0.2524414 -0.177124
vn 0.543457 -0.5791016 -0.6074219
vn 0.7963867 -0.5473633 -0.2568359
vn 0.8979492 -0.4289551 -0.09954834
vn 0.996582 -0.08227539 0.01899719
vn 0.987793 -0.154541 0.02375793
vn 0.628418 -0.7768555 0.03875732
vn 0.5449219 -0.8349609 0.07672119
vn 0.3342285 -0.9418945 0.03659058
vn 0.373291 -0.8789063 0.2966309
vn 0.5742188 -0.6171875 -0.5380859
vn 0.6416016 -0.4545898 -0.6181641
vn 0.9277344 -0.2834473 -0.2423096
vn 0.6357422 -0.746582 -0.1956787
vn 0.6660156 -0.4780273 -0.5722656
vn 0.7416992 -0.2265625 -0.6313477
vn 0.9731445 -0.04022217 -0.2269287
vn 0.2189941 -0.9418945 0.2543945
vn 0.225708 -0.9736328 0.03341675
vn -0.01831055 -0.9995117 0.0289917
vn 0.7724609 -0.03390503 -0.6342773
vn 0.9545898 0.2369385 -0.1807861
vn 0.7412109 0.1796875 -0.6469727
vn 0.8398438 0.5126953 -0.177002
vn 0.7978516 -0.03918457 -0.6020508
vn 0.7675781 -0.2370605 -0.5957031
vn 0.793457 -0.5673828 -0.2197266
vn 0.6132813 -0.690918 0.3825684
vn 0.9462891 -0.2910156 -0.1417236
vn 0.7675781 -0.5 0.4013672
vn 0.6503906 0.4104004 -0.6391602
vn 0.7060547 0.6464844 -0.2890625
vn 0.5610352 0.519043 -0.6450195
vn 0.894043 0.435791 -0.1051636
vn 0.6738281 0.4230957 -0.605957
vn 0.7661133 0.1789551 -0.6171875
vn 0.987793 -0.05081177 -0.147583
vn 0.550293 -0.6098633 0.5703125
vn 0.9663086 0.1682129 -0.1958008
vn 0.8959961 0.4438477 0.01690674
vn 1 0.01010895 0.01963806
vn 0.996582 0.07922363 0.02430725
vn 0.9360352 0.3369141 -0.1029663
vn 0.8637695 -0.2663574 0.4279785
vn 0.9628906 0.2193604 -0.1569824
vn 0.5976563 0.5541992 -0.5795898
vn 0.6171875 0.7832031 0.0769043
vn 0.6938477 0.7192383 0.03515625
vn 0.4523926 0.8432617 0.2900391
vn 0.4226074 0.9057617 0.03108215
vn 0.9033203 -0.0456543 0.4260254
vn 0.7768555 -0.2387695 0.5825195
vn 0.824707 0.5131836 -0.2375488
vn 0.6884766 0.6948242 -0.2080078
vn 0.8803711 0.2036133 0.4279785
vn 0.6630859 0.6474609 0.3762207
vn 0.796875 0.4553223 0.3974609
vn 0.7915039 0.1837158 0.5830078
vn 0.5947266 0.5712891 0.565918
vn 0.8120117 -0.04049683 0.5825195
vn 0.7119141 0.4006348 0.5771484
vn 0.6025391 0.1418457 0.7856445
vn 0.5913086 -0.1813965 0.7856445
vn 0.6171875 -0.02973938 0.7861328
vn 0.6865234 -0.439209 0.5795898
vn 0.4521484 0.4284668 0.7822266
vn 0.5415039 0.3029785 0.7841797
vn 0.3334961 0.08135986 0.9389648
vn 0.4345703 0.7045898 0.5610352
vn 0.5224609 -0.3303223 0.7861328
vn 0.4189453 -0.4555664 0.7856445
vn 0.3266602 -0.09967041 0.9399414
vn 0.3374023 -0.0137558 0.9414063
vn 0.2958984 0.1687012 0.9404297
vn 0.2487793 0.2415771 0.9379883
vn 0.2851563 -0.1810303 0.9414063
vn 0.3254395 0.5327148 0.78125
vn -0.008323669 0.003610611 1
vn 0.1760254 0.296875 0.9384766
vn 0.1508789 -0.3051758 0.9404297
vn 0.004154205 0.3493652 0.9370117
vn 0.2303467 -0.2531738 0.9394531
vn 0.09533691 0.3378906 0.9365234
vn 0.1778564 0.6005859 0.7797852
vn 0.2785645 -0.5541992 0.7841797
vn 0.01476288 0.6274414 0.7783203
vn 0.2401123 0.7880859 0.5668945
vn 0.3723145 -0.7353516 0.5664063
vn 0.1806641 -0.800293 0.5712891
vn 0.1329346 -0.6079102 0.7827148
vn -0.02227783 -0.9672852 0.2531738
vn 0.01998901 0.824707 0.5654297
vn 0.2883301 0.9248047 0.2487793
vn 0.2978516 0.9541016 0.02723694
vn 0.04190063 0.9990234 0.02238464
vn 0.03442383 0.9682617 0.2475586
vn -0.2174072 0.9443359 0.2469482
vn -0.2227783 0.9746094 0.02037048
vn -0.4719238 0.8813477 0.01856995
vn -0.1885986 0.8066406 0.5600586
vn -0.145752 0.612793 0.7768555
vn -0.4575195 0.8540039 0.2468262
vn -0.08569336 0.3447266 0.9345703
vn -0.3920898 0.7304688 0.559082
vn -0.6601563 0.7099609 0.2451172
vn -0.6801758 0.7329102 0.01745605
vn -0.8481445 0.5297852 0.01672363
vn -0.1704102 0.309082 0.9355469
vn -0.300293 0.5546875 0.7758789
vn -0.565918 0.6064453 0.5585938
vn -0.8227539 0.5131836 0.2441406
vn -0.4318848 0.4611816 0.7749023
vn -0.2459717 0.2600098 0.9335938
vn -0.7045898 0.4387207 0.5576172
vn -0.9267578 0.2858887 0.2441406
vn -0.9555664 0.2946777 0.01673889
vn -0.9990234 0.03430176 0.01725769
vn -0.3015137 0.1867676 0.9350586
vn -0.5366211 0.3337402 0.7749023
vn -0.7929688 0.2449951 0.5576172
vn -0.6040039 0.1871338 0.7744141
vn -0.3422852 0.1065674 0.9335938
vn -0.96875 0.03405762 0.244751
vn -0.3537598 0.01542664 0.9350586
vn -0.8291016 0.03033447 0.5581055
vn -0.6313477 0.02423096 0.7753906
vn -0.809082 -0.1816406 0.559082
vn -0.6162109 -0.1364746 0.7753906
vn -0.3491211 -0.07452393 0.934082
vn -0.3134766 -0.1591797 0.9360352
vn -0.5581055 -0.2910156 0.7768555
vn -0.9453125 -0.2145996 0.2458496
vn -0.7329102 -0.3857422 0.5605469
vn -0.9746094 -0.2225342 0.01846313
vn -0.8828125 -0.4697266 0.02005005
vn -0.855957 -0.4538574 0.2474365
vn -0.7114258 -0.6572266 0.2493896
vn -0.7329102 -0.6801758 0.02212524
vn -0.5297852 -0.8481445 0.02423096
vn -0.609375 -0.559082 0.5620117
vn -0.4648438 -0.4226074 0.777832
vn -0.2644043 -0.2347412 0.9355469
vn -0.5146484 -0.8193359 0.2521973
vn -0.1912842 -0.2902832 0.9375
vn -0.4411621 -0.6982422 0.5634766
vn -0.3374023 -0.5273438 0.7797852
vn -0.2871094 -0.9238281 0.2526855
vn -0.2946777 -0.9550781 0.026474
vn -0.2479248 -0.7866211 0.5654297
vn -0.01686096 -0.3435059 0.9389648
vn -0.1907959 -0.5947266 0.7807617
vn -0.02799988 -0.8208008 0.5703125
vn -0.1109619 -0.3310547 0.9370117
vn -0.02146912 -0.6230469 0.7822266
vn 0.07012939 -0.3378906 0.9384766
vn 0.8515625 0.4951172 0.1724854
vn 0.887207 0.4616699 -0.00369072
vn 0.9995117 0.02330017 0.003952026
vn 0.956543 0.2402344 0.1655273
vn 0.6870117 0.5551758 0.4689941
vn 0.9091797 0.4072266 0.08642578
vn 0.9960938 0.08679199 -0.001216888
vn 0.6870117 0.7260742 -0.02597046
vn 0.6054688 0.5092773 0.6118164
vn 0.7363281 0.4145508 0.5351563
vn 0.6005859 0.7954102 -0.08172607
vn 0.4216309 0.90625 -0.03108215
vn 0.6083984 0.3686523 0.7026367
vn 0.8637695 0.1976318 0.4631348
vn 0.6450195 0.5761719 0.5019531
vn 0.4558105 0.8330078 -0.3132324
vn 0.2973633 0.9541016 -0.03030396
vn 0.6650391 0.1524658 0.730957
vn 0.9438477 -0.04675293 0.3266602
vn 0.6806641 0.4316406 0.5922852
vn 0.6977539 0.6889648 0.1956787
vn 0.7192383 -0.03677368 0.6938477
vn 0.9165039 -0.2819824 0.2839355
vn 0.6977539 -0.2148438 0.6835938
vn 0.793457 -0.5283203 0.3015137
vn 0.7612305 -0.0385437 0.6474609
vn 0.7451172 0.1674805 0.6455078
vn 0.8183594 0.512207 0.2600098
vn 0.6704102 0.6430664 -0.3706055
vn 0.956543 0.2197266 0.1923828
vn 0.6210938 -0.4309082 0.6547852
vn 0.6674805 -0.6606445 0.34375
vn 0.5698242 -0.5649414 0.5966797
vn 0.6459961 -0.4643555 0.605957
vn 0.7294922 -0.223877 0.6459961
vn 0.5913086 -0.6113281 0.5263672
vn 0.9804688 -0.04980469 0.1900635
vn 0.9384766 -0.2885742 0.1888428
vn 0.9804688 -0.04980469 0.1900635
vn 0.8041992 0.4519043 -0.385498
vn 0.8881836 0.2011719 -0.4133301
vn 0.8759766 -0.4699707 0.1085205
vn 0.9370117 -0.2978516 0.1826172
vn 0.7211914 0.3955078 -0.5683594
vn 0.9111328 -0.04852295 -0.4089355
vn 0.9384766 -0.2885742 0.1888428
vn 0.871582 -0.2695313 -0.4099121
vn 0.7851563 -0.5615234 0.2617188
vn 0.6459961 -0.4643555 0.605957
vn 0.8212891 -0.0446167 -0.5688477
vn 0.9873047 -0.1573486 -0.002504349
vn 0.9960938 -0.08874512 0.001915932
vn 0.6411133 -0.7382813 0.2092285
vn 0.543457 -0.8369141 -0.06915283
vn 0.625 -0.7802734 -0.02160645
vn 0.3793945 -0.8720703 -0.3085938
vn 0.3337402 -0.9423828 -0.02496338
vn 0.2254639 -0.9741211 -0.02368164
vn 0.6206055 -0.6933594 -0.3662109
vn 0.7753906 -0.5029297 -0.3823242
vn 0.6962891 -0.4428711 -0.5649414
vn 0.7866211 -0.2429199 -0.5678711
vn 0.2192383 -0.9365234 -0.2744141
vn 0.3813477 -0.7392578 -0.5551758
vn 0.5595703 -0.6132813 -0.5576172
vn 0.5356445 -0.3359375 -0.7749023
vn -0.01861572 -0.9604492 -0.2780762
vn -0.01792908 -0.9995117 -0.02320862
vn -0.2941895 -0.9555664 -0.02555847
vn 0.6303711 -0.03536987 -0.7753906
vn 0.6044922 -0.1871338 -0.7744141
vn 0.3007813 -0.1878662 -0.9350586
vn 0.3530273 -0.02052307 -0.9355469
vn 0.4318848 -0.4611816 -0.7749023
vn 0.8012695 0.1796875 -0.5708008
vn 0.3422852 -0.1064453 -0.9335938
vn 0.6152344 0.1362305 -0.7763672
vn 0.5541992 0.2973633 -0.7773438
vn 0.3115234 0.1619873 -0.9365234
vn 0.3491211 0.07458496 -0.934082
vn 0.6035156 0.5664063 -0.5610352
vn 0.008323669 -0.003612518 -1
vn 0.1663818 -0.3117676 -0.9355469
vn 0.1916504 0.2900391 -0.9375
vn -0.001226425 -0.3500977 -0.9365234
vn 0.01976013 0.3425293 -0.9394531
vn -0.1755371 -0.2971191 -0.9384766
vn -0.1547852 0.3022461 -0.9404297
vn -0.2978516 -0.1658936 -0.9399414
vn -0.2858887 0.1800537 -0.9414063
vn -0.3381348 0.008636475 -0.940918
vn 0.2459717 -0.2600098 -0.9335938
vn 0.2915039 -0.5600586 -0.7753906
vn 0.1899414 -0.8046875 -0.5625
vn 0.1459961 -0.6137695 -0.7758789
vn -0.01850891 -0.8251953 -0.5649414
vn 0.08575439 -0.3444824 -0.9350586
vn -0.008476257 -0.628418 -0.777832
vn -0.2800293 -0.9174805 -0.2827148
vn -0.2385254 -0.7905273 -0.5639648
vn -0.1777344 -0.6005859 -0.7797852
vn -0.5048828 -0.8139648 -0.2866211
vn -0.5292969 -0.8481445 -0.02801514
vn -0.7324219 -0.6801758 -0.03048706
vn -0.09533691 -0.3378906 -0.9365234
vn -0.3244629 -0.5332031 -0.78125
vn -0.4318848 -0.7021484 -0.565918
vn -0.7001953 -0.6533203 -0.2883301
vn -0.6000977 -0.5629883 -0.5683594
vn -0.4519043 -0.4282227 -0.7827148
vn -0.84375 -0.4516602 -0.2902832
vn -0.8823242 -0.4699707 -0.03244019
vn -0.9741211 -0.2226563 -0.03414917
vn -0.2487793 -0.2414551 -0.9379883
vn -0.5454102 -0.2966309 -0.7841797
vn -0.7236328 -0.3898926 -0.5698242
vn -0.9321289 -0.2144775 -0.2919922
vn -0.7993164 -0.185791 -0.5712891
vn -0.6030273 -0.1420898 -0.784668
vn -0.9555664 0.03182983 -0.2929688
vn -0.9990234 0.03411865 -0.03521729
vn -0.3334961 -0.08129883 -0.9394531
vn -0.6181641 0.01858521 -0.7856445
vn -0.8198242 0.02624512 -0.5722656
vn -0.5913086 0.1815186 -0.7856445
vn -0.7836914 0.2409668 -0.5727539
vn -0.9135742 0.28125 -0.293457
vn -0.3266602 0.09979248 -0.9399414
vn -0.5239258 0.328125 -0.7861328
vn -0.9550781 0.2944336 -0.03585815
vn -0.6953125 0.4345703 -0.5727539
vn -0.8110352 0.5063477 -0.2932129
vn -0.8476563 0.5292969 -0.0357666
vn -0.6796875 0.7324219 -0.03515625
vn -0.6499023 0.7016602 -0.2929688
vn -0.5561523 0.6025391 -0.5722656
vn -0.4189453 0.4555664 -0.7856445
vn -0.4487305 0.8442383 -0.2924805
vn -0.4714355 0.8813477 -0.03387451
vn -0.22229 0.9746094 -0.03213501
vn -0.2303467 0.2531738 -0.9394531
vn -0.2873535 0.5488281 -0.784668
vn -0.3828125 0.7265625 -0.5708008
vn -0.2109375 0.9335938 -0.2897949
vn -0.1790771 0.8022461 -0.5693359
vn -0.1326904 0.6069336 -0.7836914
vn 0.03845215 0.9575195 -0.2854004
vn 0.04257202 0.9985352 -0.03013611
vn -0.07012939 0.3378906 -0.9384766
vn 0.02775574 0.6220703 -0.7827148
vn 0.0296936 0.8208008 -0.5708008
vn 0.2875977 0.9155273 -0.2802734
vn 0.2495117 0.7841797 -0.5683594
vn 0.4431152 0.7001953 -0.5595703
vn 0.1907959 0.5947266 -0.7807617
vn 0.3383789 0.5268555 -0.7797852
vn 0.1109619 0.3310547 -0.9370117
vn 0.4650879 0.4228516 -0.777832
vn 0.2644043 0.2347412 -0.9355469
vn 0.887207 0.4616699 -0.00369072
vn 0.8959961 0.4438477 0.01690674
vn 1 0.01010895 0.01963806
vn 0.9995117 0.02330017 0.003952026
vn 0.9960938 0.08679199 -0.001216888
vn 0.996582 0.07922363 0.02430725
vn 0.6938477 0.7192383 0.03515625
vn 0.6870117 0.7260742 -0.02597046
vn 0.4226074 0.9057617 0.03108215
vn 0.4216309 0.90625 -0.03108215
vn 0.2978516 0.9541016 0.02723694
vn 0.2973633 0.9541016 -0.03030396
vn 0.04257202 0.9985352 -0.03013611
vn 0.04190063 0.9990234 0.02238464
vn -0.2227783 0.9746094 0.02037048
vn -0.22229 0.9746094 -0.03213501
vn -0.4714355 0.8813477 -0.03387451
vn -0.4719238 0.8813477 0.01856995
vn -0.6801758 0.7329102 0.01745605
vn -0.6796875 0.7324219 -0.03515625
vn -0.8476563 0.5292969 -0.0357666
vn -0.8481445 0.5297852 0.01672363
vn -0.9555664 0.2946777 0.01673889
vn -0.9550781 0.2944336 -0.03585815
vn -0.9746094 -0.2225342 0.01846313
vn -0.9741211 -0.2226563 -0.03414917
vn -0.8823242 -0.4699707 -0.03244019
vn -0.8828125 -0.4697266 0.02005005
vn -0.7329102 -0.6801758 0.02212524
vn -0.7324219 -0.6801758 -0.03048706
vn -0.5292969 -0.8481445 -0.02801514
vn -0.5297852 -0.8481445 0.02423096
vn -0.2946777 -0.9550781 0.026474
vn -0.2941895 -0.9555664 -0.02555847
vn -0.01792908 -0.9995117 -0.02320862
vn -0.01831055 -0.9995117 0.0289917
vn 0.225708 -0.9736328 0.03341675
vn 0.2254639 -0.9741211 -0.02368164
vn 0.3337402 -0.9423828 -0.02496338
vn 0.3342285 -0.9418945 0.03659058
vn 0.628418 -0.7768555 0.03875732
vn 0.625 -0.7802734 -0.02160645
vn 0.987793 -0.154541 0.02375793
vn 0.996582 -0.08227539 0.01899719
vn 0.9960938 -0.08874512 0.001915932
vn 0.9873047 -0.1573486 -0.002504349
vn 0.625 -0.7802734 -0.02160645
vn 0.628418 -0.7768555 0.03875732
vn 0.6459961 -0.4643555 0.605957
vn 0.7294922 -0.223877 0.6459961
vn 0.8398438 0.5126953 -0.177002
vn 0.7060547 0.6464844 -0.2890625
vn 0.7285156 0.6748047 0.1189575
vn 0.8442383 0.5136719 0.1546631
vn 0.9545898 0.2369385 -0.1807861
vn 0.9584961 0.2282715 0.1702881
vn 0.9731445 -0.04022217 -0.2269287
vn 0.7329102 0.6743164 0.08929443
vn 0.894043 0.435791 -0.1051636
vn 0.6953125 0.7182617 0.01805115
vn 0.8959961 0.4438477 0.01690674
vn 0.8569336 0.5146484 0.03231812
vn 0.6904297 0.7231445 -0.016922
vn 0.887207 0.4616699 -0.00369072
vn 0.7099609 0.7036133 0.02348328
vn 0.7207031 0.6879883 -0.0847168
vn 0.8515625 0.4951172 0.1724854
vn 0.7094727 0.7045898 -0.02099609
vn 0.7314453 0.6689453 -0.1322021
vn 0.6870117 0.5551758 0.4689941
vn 0.8554688 0.486084 -0.1772461
vn 0.7363281 0.4145508 0.5351563
vn 0.8579102 0.5131836 -0.02462769
vn 0.9570313 0.2198486 -0.1879883
vn 0.8637695 0.1976318 0.4631348
vn 0.9741211 0.2230225 0.03567505
vn 0.9746094 0.2231445 -0.02349854
vn 0.980957 -0.04974365 -0.1878662
vn 0.9438477 -0.04675293 0.3266602
vn 0.9985352 -0.05184937 -0.02075195
vn 0.9980469 -0.05169678 0.03689575
vn 0.9384766 -0.2890625 -0.1889648
vn 0.9165039 -0.2819824 0.2839355
vn 0.9555664 -0.2946777 -0.01980591
vn 0.8188477 -0.5454102 -0.1784668
vn 0.793457 -0.5283203 0.3015137
vn 0.9550781 -0.2944336 0.0375061
vn 0.9848633 -0.04641724 0.1677246
vn 0.9277344 -0.2834473 -0.2423096
vn 0.9423828 -0.2885742 0.1682129
vn 0.7963867 -0.5473633 -0.2568359
vn 0.8242188 -0.565918 -0.01841736
vn 0.6762695 -0.7241211 -0.1340332
vn 0.6674805 -0.6606445 0.34375
vn 0.815918 -0.5566406 0.1563721
vn 0.6479492 -0.6860352 -0.3310547
vn 0.8237305 -0.565918 0.03607178
vn 0.6787109 -0.7241211 0.1210938
vn 0.8554688 -0.5058594 -0.1108398
vn 0.6586914 -0.7519531 -0.01431274
vn 0.6699219 -0.7373047 -0.08508301
vn 0.8222656 -0.5512695 0.1416016
vn 0.6601563 -0.7509766 0.02914429
vn 0.6411133 -0.7670898 -0.01100159
vn 0.8579102 -0.5136719 -0.002408981
vn 0.6455078 -0.7636719 0.02449036
vn 0.8647461 -0.5014648 0.02088928
vn 0.6806641 -0.7270508 0.09014893
g Seat_06_0
f 3/3/3 2/2/2 1/1/1
f 4/4/4 3/3/3 1/1/1
f 1/1/1 5/5/5 4/4/4
f 5/5/5 6/6/6 4/4/4
f 5/5/5 7/7/7 6/6/6
f 7/7/7 8/8/8 6/6/6
f 7/7/7 9/9/9 8/8/8
f 9/9/9 10/10/10 8/8/8
f 13/13/13 12/12/12 11/11/11
f 14/14/14 13/13/13 11/11/11
f 14/14/14 11/11/11 15/15/15
f 16/16/16 13/13/13 14/14/14
f 17/17/17 13/13/13 16/16/16
f 18/18/18 17/17/17 16/16/16
f 19/19/19 18/18/18 16/16/16
f 20/20/20 19/19/19 16/16/16
f 21/21/21 19/19/19 20/20/20
f 22/22/22 21/21/21 20/20/20
f 16/16/16 23/23/23 20/20/20
f 23/23/23 16/16/16 14/14/14
f 24/24/24 14/14/14 15/15/15
f 15/15/15 25/25/25 24/24/24
f 23/23/23 26/26/26 20/20/20
f 20/20/20 26/26/26 22/22/22
f 23/23/23 14/14/14 27/27/27
f 14/14/14 24/24/24 27/27/27
f 23/23/23 27/27/27 26/26/26
f 25/25/25 28/28/28 24/24/24
f 27/27/27 24/24/24 28/28/28
f 25/25/25 29/29/29 28/28/28
f 21/21/21 22/22/22 30/30/30
f 31/31/31 21/21/21 30/30/30
f 31/31/31 30/30/30 32/32/32
f 29/29/29 33/33/33 28/28/28
f 29/29/29 34/34/34 33/33/33
f 34/34/34 35/35/35 33/33/33
f 34/34/34 36/36/36 35/35/35
f 28/28/28 33/33/33 37/37/37
f 37/37/37 33/33/33 35/35/35
f 38/38/38 27/27/27 28/28/28
f 38/38/38 28/28/28 37/37/37
f 27/27/27 38/38/38 39/39/39
f 27/27/27 39/39/39 26/26/26
f 26/26/26 40/40/40 22/22/22
f 26/26/26 39/39/39 40/40/40
f 38/38/38 41/41/41 39/39/39
f 38/38/38 37/37/37 41/41/41
f 39/39/39 42/42/42 40/40/40
f 39/39/39 41/41/41 42/42/42
f 36/36/36 43/43/43 35/35/35
f 36/36/36 44/44/44 43/43/43
f 44/44/44 45/45/45 43/43/43
f 44/44/44 46/46/46 45/45/45
f 35/35/35 43/43/43 47/47/47
f 47/47/47 43/43/43 45/45/45
f 48/48/48 37/37/37 35/35/35
f 48/48/48 35/35/35 47/47/47
f 37/37/37 49/49/49 41/41/41
f 37/37/37 48/48/48 49/49/49
f 40/40/40 42/42/42 50/50/50
f 40/40/40 50/50/50 22/22/22
f 46/46/46 51/51/51 45/45/45
f 51/51/51 46/46/46 52/52/52
f 53/53/53 51/51/51 52/52/52
f 51/51/51 53/53/53 54/54/54
f 45/45/45 51/51/51 55/55/55
f 55/55/55 51/51/51 54/54/54
f 41/41/41 56/56/56 42/42/42
f 41/41/41 49/49/49 56/56/56
f 48/48/48 57/57/57 49/49/49
f 48/48/48 47/47/47 57/57/57
f 58/58/58 47/47/47 45/45/45
f 58/58/58 45/45/45 55/55/55
f 55/55/55 54/54/54 59/59/59
f 54/54/54 60/60/60 59/59/59
f 59/59/59 60/60/60 61/61/61
f 60/60/60 62/62/62 61/61/61
f 49/49/49 63/63/63 56/56/56
f 49/49/49 57/57/57 63/63/63
f 56/56/56 64/64/64 42/42/42
f 56/56/56 63/63/63 64/64/64
f 47/47/47 58/58/58 65/65/65
f 47/47/47 65/65/65 57/57/57
f 58/58/58 55/55/55 66/66/66
f 55/55/55 59/59/59 66/66/66
f 58/58/58 66/66/66 65/65/65
f 57/57/57 65/65/65 67/67/67
f 57/57/57 67/67/67 63/63/63
f 66/66/66 59/59/59 68/68/68
f 59/59/59 61/61/61 68/68/68
f 65/65/65 66/66/66 69/69/69
f 65/65/65 69/69/69 67/67/67
f 66/66/66 68/68/68 69/69/69
f 67/67/67 70/70/70 63/63/63
f 67/67/67 69/69/69 70/70/70
f 68/68/68 71/71/71 69/69/69
f 68/68/68 61/61/61 71/71/71
f 63/63/63 72/72/72 64/64/64
f 70/70/70 72/72/72 63/63/63
f 69/69/69 73/73/73 70/70/70
f 71/71/71 73/73/73 69/69/69
f 70/70/70 74/74/74 72/72/72
f 70/70/70 73/73/73 74/74/74
f 64/64/64 72/72/72 75/75/75
f 74/74/74 76/76/76 72/72/72
f 72/72/72 76/76/76 75/75/75
f 64/64/64 75/75/75 77/77/77
f 64/64/64 77/77/77 42/42/42
f 42/42/42 77/77/77 50/50/50
f 71/71/71 78/78/78 73/73/73
f 73/73/73 79/79/79 74/74/74
f 78/78/78 79/79/79 73/73/73
f 74/74/74 80/80/80 76/76/76
f 74/74/74 79/79/79 80/80/80
f 71/71/71 81/81/81 78/78/78
f 61/61/61 81/81/81 71/71/71
f 75/75/75 82/82/82 77/77/77
f 50/50/50 77/77/77 83/83/83
f 77/77/77 82/82/82 83/83/83
f 75/75/75 76/76/76 84/84/84
f 75/75/75 84/84/84 82/82/82
f 80/80/80 85/85/85 76/76/76
f 76/76/76 85/85/85 84/84/84
f 79/79/79 86/86/86 80/80/80
f 80/80/80 86/86/86 85/85/85
f 78/78/78 87/87/87 79/79/79
f 87/87/87 86/86/86 79/79/79
f 84/84/84 88/88/88 82/82/82
f 84/84/84 85/85/85 88/88/88
f 78/78/78 89/89/89 87/87/87
f 81/81/81 89/89/89 78/78/78
f 86/86/86 90/90/90 85/85/85
f 85/85/85 90/90/90 88/88/88
f 87/87/87 91/91/91 86/86/86
f 91/91/91 90/90/90 86/86/86
f 89/89/89 91/91/91 87/87/87
f 88/88/88 90/90/90 92/92/92
f 93/93/93 90/90/90 91/91/91
f 82/82/82 88/88/88 94/94/94
f 94/94/94 88/88/88 92/92/92
f 83/83/83 82/82/82 94/94/94
f 95/95/95 91/91/91 89/89/89
f 95/95/95 93/93/93 91/91/91
f 96/96/96 89/89/89 81/81/81
f 96/96/96 95/95/95 89/89/89
f 83/83/83 94/94/94 97/97/97
f 94/94/94 92/92/92 97/97/97
f 98/98/98 93/93/93 95/95/95
f 96/96/96 98/98/98 95/95/95
f 99/99/99 96/96/96 81/81/81
f 99/99/99 81/81/81 61/61/61
f 83/83/83 97/97/97 100/100/100
f 50/50/50 83/83/83 100/100/100
f 50/50/50 100/100/100 22/22/22
f 22/22/22 100/100/100 101/101/101
f 30/30/30 22/22/22 101/101/101
f 100/100/100 97/97/97 102/102/102
f 101/101/101 100/100/100 102/102/102
f 30/30/30 101/101/101 103/103/103
f 30/30/30 103/103/103 32/32/32
f 104/104/104 98/98/98 96/96/96
f 99/99/99 104/104/104 96/96/96
f 105/105/105 99/99/99 61/61/61
f 105/105/105 61/61/61 62/62/62
f 106/106/106 105/105/105 62/62/62
f 106/106/106 107/107/107 105/105/105
f 105/105/105 108/108/108 99/99/99
f 107/107/107 108/108/108 105/105/105
f 108/108/108 104/104/104 99/99/99
f 109/109/109 108/108/108 107/107/107
f 110/110/110 109/109/109 107/107/107
f 110/110/110 111/111/111 109/109/109
f 112/112/112 104/104/104 108/108/108
f 109/109/109 112/112/112 108/108/108
f 113/113/113 98/98/98 104/104/104
f 112/112/112 113/113/113 104/104/104
f 111/111/111 114/114/114 109/109/109
f 109/109/109 114/114/114 112/112/112
f 113/113/113 115/115/115 98/98/98
f 115/115/115 93/93/93 98/98/98
f 112/112/112 116/116/116 113/113/113
f 114/114/114 116/116/116 112/112/112
f 117/117/117 114/114/114 111/111/111
f 118/118/118 117/117/117 111/111/111
f 118/118/118 119/119/119 117/117/117
f 115/115/115 120/120/120 93/93/93
f 120/120/120 90/90/90 93/93/93
f 113/113/113 121/121/121 115/115/115
f 116/116/116 121/121/121 113/113/113
f 121/121/121 120/120/120 115/115/115
f 122/122/122 116/116/116 114/114/114
f 117/117/117 122/122/122 114/114/114
f 119/119/119 123/123/123 117/117/117
f 117/117/117 123/123/123 122/122/122
f 124/124/124 121/121/121 116/116/116
f 122/122/122 124/124/124 116/116/116
f 125/125/125 120/120/120 121/121/121
f 124/124/124 125/125/125 121/121/121
f 122/122/122 126/126/126 124/124/124
f 123/123/123 126/126/126 122/122/122
f 127/127/127 123/123/123 119/119/119
f 128/128/128 127/127/127 119/119/119
f 128/128/128 129/129/129 127/127/127
f 125/125/125 130/130/130 120/120/120
f 130/130/130 90/90/90 120/120/120
f 124/124/124 131/131/131 125/125/125
f 126/126/126 131/131/131 124/124/124
f 131/131/131 130/130/130 125/125/125
f 132/132/132 126/126/126 123/123/123
f 127/127/127 132/132/132 123/123/123
f 133/133/133 131/131/131 126/126/126
f 132/132/132 133/133/133 126/126/126
f 134/134/134 130/130/130 131/131/131
f 133/133/133 134/134/134 131/131/131
f 127/127/127 135/135/135 132/132/132
f 129/129/129 135/135/135 127/127/127
f 134/134/134 136/136/136 130/130/130
f 136/136/136 90/90/90 130/130/130
f 132/132/132 137/137/137 133/133/133
f 135/135/135 137/137/137 132/132/132
f 133/133/133 138/138/138 134/134/134
f 138/138/138 136/136/136 134/134/134
f 137/137/137 138/138/138 133/133/133
f 139/139/139 137/137/137 135/135/135
f 140/140/140 138/138/138 137/137/137
f 139/139/139 140/140/140 137/137/137
f 141/141/141 136/136/136 138/138/138
f 140/140/140 141/141/141 138/138/138
f 141/141/141 142/142/142 136/136/136
f 142/142/142 90/90/90 136/136/136
f 140/140/140 143/143/143 141/141/141
f 143/143/143 142/142/142 141/141/141
f 144/144/144 135/135/135 129/129/129
f 144/144/144 139/139/139 135/135/135
f 139/139/139 145/145/145 140/140/140
f 145/145/145 143/143/143 140/140/140
f 146/146/146 144/144/144 129/129/129
f 146/146/146 147/147/147 144/144/144
f 144/144/144 148/148/148 139/139/139
f 147/147/147 148/148/148 144/144/144
f 148/148/148 145/145/145 139/139/139
f 149/149/149 148/148/148 147/147/147
f 150/150/150 149/149/149 147/147/147
f 150/150/150 151/151/151 149/149/149
f 152/152/152 145/145/145 148/148/148
f 149/149/149 152/152/152 148/148/148
f 153/153/153 143/143/143 145/145/145
f 152/152/152 153/153/153 145/145/145
f 154/154/154 142/142/142 143/143/143
f 153/153/153 154/154/154 143/143/143
f 151/151/151 155/155/155 149/149/149
f 149/149/149 155/155/155 152/152/152
f 154/154/154 156/156/156 142/142/142
f 156/156/156 90/90/90 142/142/142
f 152/152/152 157/157/157 153/153/153
f 155/155/155 157/157/157 152/152/152
f 153/153/153 158/158/158 154/154/154
f 158/158/158 156/156/156 154/154/154
f 157/157/157 158/158/158 153/153/153
f 159/159/159 155/155/155 151/151/151
f 160/160/160 159/159/159 151/151/151
f 160/160/160 32/32/32 159/159/159
f 32/32/32 103/103/103 159/159/159
f 159/159/159 161/161/161 155/155/155
f 161/161/161 157/157/157 155/155/155
f 159/159/159 103/103/103 161/161/161
f 162/162/162 90/90/90 156/156/156
f 92/92/92 90/90/90 162/162/162
f 163/163/163 158/158/158 157/157/157
f 161/161/161 163/163/163 157/157/157
f 103/103/103 164/164/164 161/161/161
f 161/161/161 164/164/164 163/163/163
f 101/101/101 164/164/164 103/103/103
f 101/101/101 102/102/102 164/164/164
f 165/165/165 156/156/156 158/158/158
f 163/163/163 165/165/165 158/158/158
f 165/165/165 162/162/162 156/156/156
f 164/164/164 166/166/166 163/163/163
f 163/163/163 166/166/166 165/165/165
f 102/102/102 166/166/166 164/164/164
f 166/166/166 162/162/162 165/165/165
f 167/167/167 92/92/92 162/162/162
f 167/167/167 162/162/162 166/166/166
f 102/102/102 167/167/167 166/166/166
f 97/97/97 92/92/92 167/167/167
f 102/102/102 97/97/97 167/167/167
f 170/170/170 169/169/169 168/168/168
f 171/171/171 170/170/170 168/168/168
f 171/171/171 168/168/168 172/172/172
f 170/170/170 171/171/171 173/173/173
f 174/174/174 170/170/170 173/173/173
f 175/175/175 174/174/174 173/173/173
f 176/176/176 171/171/171 172/172/172
f 173/173/173 171/171/171 176/176/176
f 176/176/176 172/172/172 177/177/177
f 178/178/178 175/175/175 173/173/173
f 179/179/179 175/175/175 178/178/178
f 180/180/180 176/176/176 177/177/177
f 180/180/180 177/177/177 181/181/181
f 182/182/182 173/173/173 176/176/176
f 178/178/178 173/173/173 182/182/182
f 183/183/183 179/179/179 178/178/178
f 184/184/184 179/179/179 183/183/183
f 185/185/185 180/180/180 181/181/181
f 185/185/185 181/181/181 186/186/186
f 176/176/176 180/180/180 187/187/187
f 182/182/182 176/176/176 187/187/187
f 187/187/187 180/180/180 185/185/185
f 188/188/188 178/178/178 182/182/182
f 183/183/183 178/178/178 188/188/188
f 188/188/188 182/182/182 187/187/187
f 189/189/189 185/185/185 186/186/186
f 189/189/189 186/186/186 190/190/190
f 191/191/191 189/189/189 190/190/190
f 191/191/191 190/190/190 192/192/192
f 185/185/185 189/189/189 193/193/193
f 193/193/193 189/189/189 191/191/191
f 194/194/194 187/187/187 185/185/185
f 194/194/194 185/185/185 193/193/193
f 195/195/195 188/188/188 187/187/187
f 195/195/195 187/187/187 194/194/194
f 196/196/196 183/183/183 188/188/188
f 196/196/196 188/188/188 195/195/195
f 197/197/197 195/195/195 194/194/194
f 197/197/197 194/194/194 193/193/193
f 198/198/198 191/191/191 192/192/192
f 198/198/198 192/192/192 199/199/199
f 200/200/200 198/198/198 199/199/199
f 191/191/191 198/198/198 201/201/201
f 201/201/201 198/198/198 200/200/200
f 202/202/202 191/191/191 201/201/201
f 202/202/202 193/193/193 191/191/191
f 203/203/203 201/201/201 200/200/200
f 204/204/204 193/193/193 202/202/202
f 205/205/205 204/204/204 202/202/202
f 206/206/206 197/197/197 193/193/193
f 207/207/207 195/195/195 197/197/197
f 207/207/207 196/196/196 195/195/195
f 208/208/208 197/197/197 206/206/206
f 208/208/208 207/207/207 197/197/197
f 203/203/203 200/200/200 209/209/209
f 200/200/200 210/210/210 209/209/209
f 196/196/196 207/207/207 211/211/211
f 211/211/211 207/207/207 208/208/208
f 212/212/212 208/208/208 206/206/206
f 212/212/212 206/206/206 213/213/213
f 214/214/214 212/212/212 213/213/213
f 214/214/214 213/213/213 215/215/215
f 215/215/215 216/216/216 203/203/203
f 208/208/208 212/212/212 217/217/217
f 217/217/217 212/212/212 214/214/214
f 209/209/209 210/210/210 218/218/218
f 210/210/210 219/219/219 218/218/218
f 220/220/220 203/203/203 209/209/209
f 220/220/220 215/215/215 203/203/203
f 209/209/209 218/218/218 221/221/221
f 221/221/221 220/220/220 209/209/209
f 218/218/218 222/222/222 221/221/221
f 221/221/221 222/222/222 223/223/223
f 222/222/222 224/224/224 223/223/223
f 223/223/223 224/224/224 225/225/225
f 226/226/226 220/220/220 221/221/221
f 223/223/223 226/226/226 221/221/221
f 227/227/227 215/215/215 220/220/220
f 226/226/226 227/227/227 220/220/220
f 227/227/227 214/214/214 215/215/215
f 214/214/214 227/227/227 228/228/228
f 228/228/228 227/227/227 226/226/226
f 229/229/229 214/214/214 228/228/228
f 229/229/229 217/217/217 214/214/214
f 230/230/230 223/223/223 225/225/225
f 226/226/226 223/223/223 231/231/231
f 231/231/231 223/223/223 230/230/230
f 232/232/232 228/228/228 226/226/226
f 232/232/232 226/226/226 231/231/231
f 229/229/229 228/228/228 233/233/233
f 233/233/233 228/228/228 232/232/232
f 230/230/230 225/225/225 234/234/234
f 225/225/225 235/235/235 234/234/234
f 234/234/234 235/235/235 236/236/236
f 237/237/237 217/217/217 229/229/229
f 238/238/238 229/229/229 233/233/233
f 238/238/238 237/237/237 229/229/229
f 238/238/238 233/233/233 239/239/239
f 240/240/240 237/237/237 238/238/238
f 241/241/241 233/233/233 232/232/232
f 239/239/239 233/233/233 241/241/241
f 242/242/242 217/217/217 237/237/237
f 242/242/242 208/208/208 217/217/217
f 242/242/242 211/211/211 208/208/208
f 243/243/243 238/238/238 239/239/239
f 243/243/243 240/240/240 238/238/238
f 243/243/243 239/239/239 240/240/240
f 244/244/244 242/242/242 237/237/237
f 244/244/244 237/237/237 240/240/240
f 245/245/245 211/211/211 242/242/242
f 244/244/244 245/245/245 242/242/242
f 246/246/246 245/245/245 244/244/244
f 247/247/247 244/244/244 240/240/240
f 247/247/247 246/246/246 244/244/244
f 247/247/247 240/240/240 246/246/246
f 248/248/248 211/211/211 245/245/245
f 248/248/248 196/196/196 211/211/211
f 239/239/239 249/249/249 240/240/240
f 240/240/240 249/249/249 246/246/246
f 250/250/250 249/249/249 239/239/239
f 246/246/246 249/249/249 251/251/251
f 252/252/252 249/249/249 250/250/250
f 251/251/251 249/249/249 253/253/253
f 254/254/254 249/249/249 252/252/252
f 253/253/253 249/249/249 255/255/255
f 256/256/256 249/249/249 254/254/254
f 255/255/255 249/249/249 257/257/257
f 258/258/258 249/249/249 256/256/256
f 257/257/257 249/249/249 258/258/258
f 259/259/259 250/250/250 239/239/239
f 259/259/259 239/239/239 241/241/241
f 259/259/259 241/241/241 250/250/250
f 241/241/241 260/260/260 250/250/250
f 241/241/241 232/232/232 260/260/260
f 232/232/232 231/231/231 260/260/260
f 260/260/260 231/231/231 261/261/261
f 261/261/261 231/231/231 230/230/230
f 250/250/250 260/260/260 262/262/262
f 262/262/262 260/260/260 261/261/261
f 261/261/261 230/230/230 263/263/263
f 230/230/230 234/234/234 263/263/263
f 264/264/264 250/250/250 262/262/262
f 264/264/264 252/252/252 250/250/250
f 264/264/264 262/262/262 252/252/252
f 262/262/262 261/261/261 265/265/265
f 261/261/261 263/263/263 265/265/265
f 262/262/262 265/265/265 252/252/252
f 263/263/263 234/234/234 266/266/266
f 266/266/266 234/234/234 236/236/236
f 265/265/265 263/263/263 267/267/267
f 267/267/267 263/263/263 266/266/266
f 252/252/252 265/265/265 268/268/268
f 268/268/268 265/265/265 267/267/267
f 266/266/266 236/236/236 269/269/269
f 236/236/236 270/270/270 269/269/269
f 269/269/269 270/270/270 271/271/271
f 272/272/272 252/252/252 268/268/268
f 272/272/272 254/254/254 252/252/252
f 272/272/272 268/268/268 254/254/254
f 268/268/268 267/267/267 273/273/273
f 268/268/268 273/273/273 254/254/254
f 267/267/267 266/266/266 274/274/274
f 266/266/266 269/269/269 274/274/274
f 267/267/267 274/274/274 273/273/273
f 275/275/275 269/269/269 271/271/271
f 274/274/274 269/269/269 275/275/275
f 273/273/273 274/274/274 276/276/276
f 276/276/276 274/274/274 275/275/275
f 254/254/254 273/273/273 277/277/277
f 277/277/277 273/273/273 276/276/276
f 275/275/275 271/271/271 278/278/278
f 271/271/271 279/279/279 278/278/278
f 278/278/278 279/279/279 280/280/280
f 281/281/281 254/254/254 277/277/277
f 281/281/281 256/256/256 254/254/254
f 281/281/281 277/277/277 256/256/256
f 277/277/277 276/276/276 282/282/282
f 277/277/277 282/282/282 256/256/256
f 276/276/276 275/275/275 283/283/283
f 275/275/275 278/278/278 283/283/283
f 276/276/276 283/283/283 282/282/282
f 284/284/284 278/278/278 280/280/280
f 283/283/283 278/278/278 284/284/284
f 282/282/282 283/283/283 285/285/285
f 285/285/285 283/283/283 284/284/284
f 256/256/256 282/282/282 286/286/286
f 286/286/286 282/282/282 285/285/285
f 284/284/284 280/280/280 287/287/287
f 280/280/280 288/288/288 287/287/287
f 289/289/289 256/256/256 286/286/286
f 289/289/289 258/258/258 256/256/256
f 289/289/289 286/286/286 258/258/258
f 286/286/286 285/285/285 290/290/290
f 286/286/286 290/290/290 258/258/258
f 285/285/285 284/284/284 291/291/291
f 284/284/284 287/287/287 291/291/291
f 285/285/285 291/291/291 290/290/290
f 258/258/258 290/290/290 292/292/292
f 290/290/290 291/291/291 293/293/293
f 292/292/292 290/290/290 293/293/293
f 291/291/291 287/287/287 294/294/294
f 293/293/293 291/291/291 294/294/294
f 295/295/295 258/258/258 292/292/292
f 295/295/295 257/257/257 258/258/258
f 295/295/295 292/292/292 257/257/257
f 292/292/292 293/293/293 296/296/296
f 292/292/292 296/296/296 257/257/257
f 294/294/294 287/287/287 297/297/297
f 287/287/287 288/288/288 297/297/297
f 293/293/293 294/294/294 298/298/298
f 293/293/293 298/298/298 296/296/296
f 294/294/294 297/297/297 299/299/299
f 294/294/294 299/299/299 298/298/298
f 297/297/297 300/300/300 299/299/299
f 299/299/299 300/300/300 301/301/301
f 298/298/298 299/299/299 302/302/302
f 302/302/302 299/299/299 301/301/301
f 296/296/296 298/298/298 303/303/303
f 303/303/303 298/298/298 302/302/302
f 257/257/257 296/296/296 304/304/304
f 304/304/304 296/296/296 303/303/303
f 302/302/302 301/301/301 305/305/305
f 301/301/301 306/306/306 305/305/305
f 305/305/305 306/306/306 307/307/307
f 308/308/308 257/257/257 304/304/304
f 308/308/308 255/255/255 257/257/257
f 308/308/308 304/304/304 255/255/255
f 304/304/304 303/303/303 309/309/309
f 304/304/304 309/309/309 255/255/255
f 303/303/303 302/302/302 310/310/310
f 302/302/302 305/305/305 310/310/310
f 303/303/303 310/310/310 309/309/309
f 311/311/311 305/305/305 307/307/307
f 310/310/310 305/305/305 311/311/311
f 309/309/309 310/310/310 312/312/312
f 312/312/312 310/310/310 311/311/311
f 255/255/255 309/309/309 313/313/313
f 313/313/313 309/309/309 312/312/312
f 311/311/311 307/307/307 314/314/314
f 307/307/307 315/315/315 314/314/314
f 314/314/314 315/315/315 184/184/184
f 316/316/316 255/255/255 313/313/313
f 316/316/316 253/253/253 255/255/255
f 316/316/316 313/313/313 253/253/253
f 313/313/313 312/312/312 317/317/317
f 313/313/313 317/317/317 253/253/253
f 312/312/312 311/311/311 318/318/318
f 311/311/311 314/314/314 318/318/318
f 312/312/312 318/318/318 317/317/317
f 319/319/319 314/314/314 184/184/184
f 318/318/318 314/314/314 319/319/319
f 319/319/319 184/184/184 183/183/183
f 317/317/317 318/318/318 320/320/320
f 320/320/320 318/318/318 319/319/319
f 319/319/319 183/183/183 321/321/321
f 320/320/320 319/319/319 321/321/321
f 321/321/321 183/183/183 196/196/196
f 248/248/248 321/321/321 196/196/196
f 253/253/253 317/317/317 322/322/322
f 322/322/322 317/317/317 320/320/320
f 320/320/320 321/321/321 323/323/323
f 323/323/323 321/321/321 248/248/248
f 322/322/322 320/320/320 323/323/323
f 324/324/324 253/253/253 322/322/322
f 324/324/324 251/251/251 253/253/253
f 324/324/324 322/322/322 251/251/251
f 322/322/322 323/323/323 251/251/251
f 325/325/325 323/323/323 248/248/248
f 251/251/251 323/323/323 325/325/325
f 325/325/325 248/248/248 245/245/245
f 325/325/325 245/245/245 246/246/246
f 326/326/326 246/246/246 251/251/251
f 326/326/326 325/325/325 246/246/246
f 326/326/326 251/251/251 325/325/325
f 329/329/329 328/328/328 327/327/327
f 330/330/330 329/329/329 327/327/327
f 329/329/329 330/330/330 331/331/331
f 332/332/332 329/329/329 331/331/331
f 333/333/333 332/332/332 331/331/331
f 334/334/334 333/333/333 331/331/331
f 335/335/335 333/333/333 334/334/334
f 336/336/336 335/335/335 334/334/334
f 337/337/337 335/335/335 336/336/336
f 338/338/338 337/337/337 336/336/336
f 338/338/338 339/339/339 337/337/337
f 339/339/339 340/340/340 337/337/337
f 341/341/341 340/340/340 339/339/339
f 342/342/342 341/341/341 339/339/339
f 342/342/342 343/343/343 341/341/341
f 343/343/343 344/344/344 341/341/341
f 345/345/345 344/344/344 343/343/343
f 346/346/346 345/345/345 343/343/343
f 346/346/346 347/347/347 345/345/345
f 347/347/347 348/348/348 345/345/345
f 349/349/349 348/348/348 347/347/347
f 350/350/350 349/349/349 347/347/347
f 350/350/350 288/288/288 349/349/349
f 288/288/288 129/129/129 349/349/349
f 351/351/351 129/129/129 288/288/288
f 352/352/352 351/351/351 288/288/288
f 352/352/352 353/353/353 351/351/351
f 353/353/353 354/354/354 351/351/351
f 355/355/355 354/354/354 353/353/353
f 356/356/356 355/355/355 353/353/353
f 356/356/356 357/357/357 355/355/355
f 357/357/357 358/358/358 355/355/355
f 359/359/359 358/358/358 357/357/357
f 360/360/360 359/359/359 357/357/357
f 360/360/360 361/361/361 359/359/359
f 361/361/361 362/362/362 359/359/359
f 363/363/363 362/362/362 361/361/361
f 364/364/364 363/363/363 361/361/361
f 364/364/364 365/365/365 363/363/363
f 365/365/365 366/366/366 363/363/363
f 367/367/367 366/366/366 365/365/365
f 368/368/368 367/367/367 365/365/365
f 371/371/371 370/370/370 369/369/369
f 372/372/372 371/371/371 369/369/369
f 372/372/372 369/369/369 373/373/373
f 369/369/369 374/374/374 373/373/373
f 205/205/205 376/376/376 375/375/375
f 215/215/215 205/205/205 375/375/375
f 379/379/379 378/378/378 377/377/377
f 380/380/380 379/379/379 377/377/377
f 380/380/380 377/377/377 381/381/381
f 382/382/382 380/380/380 381/381/381
f 382/382/382 381/381/381 383/383/383
f 379/379/379 384/384/384 378/378/378
f 384/384/384 385/385/385 378/378/378
f 385/385/385 384/384/384 386/386/386
f 386/386/386 384/384/384 379/379/379
f 387/387/387 385/385/385 386/386/386
f 379/379/379 380/380/380 388/388/388
f 388/388/388 380/380/380 382/382/382
f 387/387/387 386/386/386 389/389/389
f 390/390/390 387/387/387 389/389/389
f 391/391/391 386/386/386 379/379/379
f 391/391/391 379/379/379 388/388/388
f 389/389/389 386/386/386 391/391/391
f 390/390/390 389/389/389 392/392/392
f 393/393/393 390/390/390 392/392/392
f 394/394/394 389/389/389 391/391/391
f 392/392/392 389/389/389 394/394/394
f 393/393/393 392/392/392 395/395/395
f 395/395/395 392/392/392 394/394/394
f 396/396/396 393/393/393 395/395/395
f 396/396/396 395/395/395 397/397/397
f 395/395/395 394/394/394 397/397/397
f 398/398/398 396/396/396 397/397/397
f 394/394/394 391/391/391 399/399/399
f 391/391/391 388/388/388 399/399/399
f 394/394/394 399/399/399 397/397/397
f 398/398/398 397/397/397 400/400/400
f 401/401/401 398/398/398 400/400/400
f 399/399/399 388/388/388 402/402/402
f 402/402/402 388/388/388 382/382/382
f 397/397/397 399/399/399 403/403/403
f 400/400/400 397/397/397 403/403/403
f 403/403/403 399/399/399 402/402/402
f 401/401/401 400/400/400 404/404/404
f 400/400/400 403/403/403 404/404/404
f 405/405/405 401/401/401 404/404/404
f 403/403/403 402/402/402 406/406/406
f 403/403/403 406/406/406 404/404/404
f 402/402/402 382/382/382 407/407/407
f 402/402/402 407/407/407 406/406/406
f 405/405/405 404/404/404 408/408/408
f 409/409/409 405/405/405 408/408/408
f 404/404/404 406/406/406 410/410/410
f 408/408/408 404/404/404 410/410/410
f 409/409/409 408/408/408 411/411/411
f 408/408/408 410/410/410 411/411/411
f 412/412/412 409/409/409 411/411/411
f 410/410/410 406/406/406 413/413/413
f 406/406/406 407/407/407 413/413/413
f 382/382/382 414/414/414 407/407/407
f 414/414/414 382/382/382 383/383/383
f 414/414/414 383/383/383 415/415/415
f 407/407/407 414/414/414 416/416/416
f 416/416/416 414/414/414 415/415/415
f 413/413/413 407/407/407 416/416/416
f 416/416/416 415/415/415 417/417/417
f 410/410/410 413/413/413 418/418/418
f 410/410/410 418/418/418 411/411/411
f 412/412/412 411/411/411 419/419/419
f 420/420/420 412/412/412 419/419/419
f 421/421/421 416/416/416 417/417/417
f 417/417/417 422/422/422 421/421/421
f 413/413/413 416/416/416 423/423/423
f 416/416/416 421/421/421 423/423/423
f 413/413/413 423/423/423 418/418/418
f 422/422/422 424/424/424 421/421/421
f 423/423/423 421/421/421 424/424/424
f 422/422/422 425/425/425 424/424/424
f 411/411/411 418/418/418 426/426/426
f 419/419/419 411/411/411 426/426/426
f 420/420/420 419/419/419 427/427/427
f 419/419/419 426/426/426 427/427/427
f 428/428/428 420/420/420 427/427/427
f 418/418/418 423/423/423 429/429/429
f 426/426/426 418/418/418 429/429/429
f 429/429/429 423/423/423 424/424/424
f 426/426/426 430/430/430 427/427/427
f 427/427/427 430/430/430 428/428/428
f 426/426/426 429/429/429 430/430/430
f 430/430/430 431/431/431 428/428/428
f 429/429/429 432/432/432 430/430/430
f 430/430/430 432/432/432 431/431/431
f 429/429/429 424/424/424 432/432/432
f 432/432/432 433/433/433 431/431/431
f 425/425/425 434/434/434 424/424/424
f 434/434/434 425/425/425 433/433/433
f 424/424/424 434/434/434 432/432/432
f 432/432/432 434/434/434 433/433/433
