g Seat_10
v 0.1277208 -0.2989947 -1.016356
v 0.1771678 -0.2681195 -1.018363
v 0.1762022 -0.2745233 -1.027102
v 0.122993 -0.3066998 -1.024615
v 0.1291929 -0.3057953 -0.9310367
v 0.1245201 -0.312752 -0.9310598
v 0.1227074 -0.3115753 -0.409368
v 0.1187065 -0.3187811 -0.4093893
v 0.1198949 -0.3003229 -0.2878384
v 0.1154735 -0.3087298 -0.2796201
v 0.1712114 -0.2695624 -0.290834
v 0.1198949 -0.3003229 -0.2878384
v 0.1154735 -0.3087298 -0.2796201
v 0.1701683 -0.2760223 -0.2819986
v 0.2376292 -0.2210052 -0.2936288
v 0.1106126 -0.3240155 -0.2683633
v 0.1187065 -0.3187811 -0.4093893
v 0.1139097 -0.3448956 -0.4094119
v 0.1072435 -0.3527899 -0.4094455
v 0.1023961 -0.3332525 -0.257319
v 0.09352461 -0.3563592 -0.409512
v 0.08838912 -0.3336151 -0.2458963
v 0.1731175 -0.2890252 -0.266694
v 0.2410606 -0.2239447 -0.2852347
v 0.288137 -0.1517425 -0.2937991
v 0.1702134 -0.2964337 -0.2547256
v 0.253676 -0.2345807 -0.2674734
v 0.2922563 -0.1539496 -0.2852884
v 0.3172935 -0.06944396 -0.2928
v 0.003455645 -0.3498907 -0.252214
v 0.006099688 -0.368504 -0.4099417
v -0.08062272 -0.362973 -0.4103689
v 0.3216856 -0.07078673 -0.2844034
v 0.3271971 0.01529847 -0.2929379
v 0.3311424 0.01488099 -0.2849197
v 0.3083445 0.09929994 -0.2915335
v 0.3373418 -0.07569395 -0.267009
v 0.3068095 -0.1623907 -0.2671841
v 0.2578489 -0.2380035 -0.2561819
v 0.1815184 -0.2963055 -0.2427219
v 0.3115873 -0.1651764 -0.2558877
v 0.2564146 -0.2365436 -0.2439065
v 0.3117161 0.09994446 -0.2839621
v 0.2700096 0.1695538 -0.2880343
v 0.2712999 0.1756354 -0.2798874
v 0.2381907 0.2182892 -0.2836392
v 0.3293633 0.1029022 -0.2667398
v 0.3490086 0.01422914 -0.2668643
v 0.3425127 -0.07746886 -0.2557394
v 0.1617351 -0.2575384 -0.153837
v 0.2378489 0.2278998 -0.2759573
v 0.2451487 0.2292194 -0.4087613
v 0.2446922 0.2372614 -0.4087631
v 0.2517955 0.2617462 -0.4087283
v 0.2400499 0.2439533 -0.2664151
v 0.3098936 -0.1646161 -0.2435641
v 0.3548863 0.01379457 -0.2555936
v 0.2804197 0.1858844 -0.2655722
v 0.2364592 0.2564191 -0.2561673
v 0.2495366 0.2722357 -0.4087393
v 0.2235435 0.2631097 -0.2447836
v 0.238972 0.2815253 -0.4087912
v 0.3404729 -0.07724181 -0.2434543
v 0.2685985 -0.1425043 -0.1533115
v 0.3352415 0.1036383 -0.2556222
v 0.2811656 0.1939447 -0.2539841
v 0.3532652 0.01367616 -0.2431955
v 0.2911754 0.1889508 -0.2418411
v 0.3335289 0.1027118 -0.2432602
v 0.3060716 0.01159242 -0.1531241
v 0.2570231 0.1624005 -0.1533646
v 0.2953642 -0.06707091 -0.1531778
v 0.289431 0.0892157 -0.1532065
v 0.2230943 0.008452772 -0.07113861
v 0.1957567 -0.1039654 -0.0712735
v 0.215283 -0.04893614 -0.07117767
v 0.2223582 -0.20539 -0.1535391
v 0.1873124 0.1184772 -0.07131378
v 0.2109526 0.06508363 -0.07119782
v 0.1184935 0.004495252 -0.01834808
v 0.2061467 0.2215997 -0.153616
v 0.1620213 -0.1498443 -0.07144012
v 0.117794 -0.1878912 -0.0716568
v 0.1039598 -0.05526549 -0.01842132
v 0.1143394 -0.02601012 -0.01837127
v 0.1120439 0.03459901 -0.01837799
v 0.09947494 0.06298158 -0.01843902
v 0.08603133 -0.07965513 -0.01850799
v 0.1501976 0.1616669 -0.07149689
v -1.650809E-07 -1.818131E-06 -9.147104E-07
v 0.07974348 0.08593934 -0.01853607
v 0.03468855 -0.1119562 -0.01876312
v 0.02610457 0.1142499 -0.01880157
v 0.06251998 -0.09988219 -0.01862518
v 0.05476668 0.1043195 -0.01865875
v 0.1032127 0.1962506 -0.07172577
v 0.06544051 -0.2106085 -0.07191559
v 0.04928877 0.214931 -0.07199005
v 0.1417454 0.2690009 -0.1539316
v 0.08997604 -0.2886737 -0.154191
v 0.01220687 -0.3015704 -0.1545731
v 0.008703448 -0.2200164 -0.07219391
v -0.07742815 -0.3456622 -0.2584506
v 0.06783187 0.2946075 -0.1542947
v 0.1545079 0.3168024 -0.251431
v 0.1656028 0.3329095 -0.4091519
v 0.08465315 0.3629742 -0.4095486
v 0.07996199 0.3456598 -0.25767
v -0.01306169 0.3565106 -0.2593045
v -0.01316056 0.3741693 -0.4100284
v -0.1079024 0.3556683 -0.4104953
v -0.01165849 0.3034064 -0.1546841
v -0.008705609 0.2213519 -0.0722763
v -0.1034078 0.338703 -0.2585727
v -0.004723676 0.1176654 -0.01895294
v -0.08845658 0.2886737 -0.1550613
v -0.1893288 0.3009369 -0.2587906
v -0.1981325 0.3160431 -0.4109409
v -0.2710072 0.2530573 -0.4112991
v -0.03450578 0.1119562 -0.01909759
v -0.06473283 0.2106037 -0.07255096
v -0.1616982 0.2565558 -0.1554233
v -0.2587331 0.2409833 -0.2593375
v -0.1181667 0.1871735 -0.07281525
v -0.06291093 0.09950013 -0.01923919
v -0.2208363 0.20539 -0.1557144
v -0.3143202 0.16539 -0.2596475
v -0.3293776 0.1736737 -0.4115866
v -0.3609554 0.082641 -0.4117428
v -0.08584611 0.07965272 -0.01935272
v -0.161313 0.1498431 -0.07302643
v -0.26821 0.1409515 -0.1559488
v -0.195873 0.1028326 -0.07319733
v -0.1042165 0.05466371 -0.01944244
v -0.3443886 0.07869935 -0.2597592
v -0.1141573 0.02601136 -0.01949127
v -0.2938454 0.06706972 -0.1560757
v -0.2145741 0.04893373 -0.07328888
v -0.3026515 -0.01241881 -0.1561197
v -0.2209987 -0.009059435 -0.07332306
v -0.1175734 -0.00481505 -0.01950714
v -0.1118581 -0.03459899 -0.0194809
v -0.2102455 -0.0650897 -0.07327057
v -0.3547181 -0.01456603 -0.2598056
v -0.2879109 -0.08921691 -0.1560483
v -0.3718031 -0.01529479 -0.4117978
v -0.353644 -0.1099176 -0.4117087
v -0.3374257 -0.1046722 -0.2597281
v -0.2997438 -0.1906122 -0.2595437
v -0.3140749 -0.2001593 -0.4115158
v -0.2510396 -0.2730255 -0.4112051
v -0.2557949 -0.1624603 -0.1558902
v -0.1868154 -0.1185223 -0.07315521
v -0.09940202 -0.06300718 -0.01942047
v -0.2397121 -0.260003 -0.2592471
v -0.07956071 -0.08594298 -0.01932342
v -0.2046315 -0.2215997 -0.1556387
v -0.1494887 -0.1616693 -0.07297149
v -0.1640346 -0.3161358 -0.2600076
v -0.1716481 -0.3313898 -0.4108169
v -0.140193 -0.2689715 -0.1553213
v -0.02591935 -0.1142523 -0.01905914
v -0.1024794 -0.1962311 -0.072742
v -0.06631242 -0.2946039 -0.1549588
v -0.0545717 -0.1043121 -0.01919891
v -0.04857805 -0.2149322 -0.0724765
v 0.004530475 -0.1169574 -0.01891022
v 0.2473051 0.2130206 -1.014417
v 0.2499852 0.2175263 -0.9304373
v 0.2484813 0.2258832 -0.9304453
v 0.2460216 0.2221539 -1.022469
v 0.2772197 0.1645831 -1.019183
v 0.2461125 0.2457099 -1.041621
v 0.2571605 0.2623419 -0.9304025
v 0.253361 0.2722431 -0.9304208
v 0.2805339 0.1716644 -1.027311
v 0.3147856 0.09334046 -1.0249
v 0.2416301 0.2569086 -1.053096
v 0.2427391 0.2808954 -0.9304727
v 0.3226219 0.0964032 -1.032025
v 0.3314855 0.01057191 -1.023755
v 0.2852525 0.1855011 -1.04328
v 0.22942 0.2628156 -1.064307
v 0.1684245 0.3322418 -0.9308377
v 0.3386571 0.01185487 -1.031246
v 0.3203715 -0.07265685 -1.020469
v 0.333524 0.1006488 -1.042664
v 0.2855082 0.1935797 -1.05527
v 0.3253441 -0.07365172 -1.028617
v 0.2916197 -0.1523102 -1.020576
v 0.2958739 -0.1547211 -1.028825
v 0.2427794 -0.2196588 -1.020878
v 0.3401012 -0.07656798 -1.04258
v 0.3520665 0.01247255 -1.042683
v 0.3392345 0.1030109 -1.053656
v 0.2960527 0.1887982 -1.067539
v 0.3585087 0.0132953 -1.05364
v 0.2464647 -0.2231439 -1.029052
v 0.1771678 -0.2681195 -1.018363
v 0.1762022 -0.2745233 -1.027102
v 0.2572703 -0.2334369 -1.042969
v 0.3096422 -0.1619415 -1.042859
v 0.1771043 -0.2887677 -1.043667
v 0.3460643 -0.0776837 -1.053599
v 0.3151487 -0.1649762 -1.053823
v 0.3460643 -0.0776837 -1.053599
v 0.337534 0.102702 -1.066059
v 0.3571251 0.01362855 -1.066134
v 0.1152757 -0.3254986 -1.04184
v 0.122993 -0.3066998 -1.024615
v 0.2943638 0.08922669 -1.156452
v 0.3443809 -0.0772003 -1.065993
v 0.3151487 -0.1649762 -1.053823
v 0.3137803 -0.164472 -1.06627
v 0.2616435 -0.2376214 -1.054002
v 0.2572703 -0.2334369 -1.042969
v 0.3002971 -0.06706481 -1.156422
v 0.1179613 -0.3456061 -0.9310928
v 0.1245201 -0.312752 -0.9310598
v 0.1742674 -0.296087 -1.05587
v 0.1068822 -0.3338153 -1.053665
v 0.1105565 -0.3530218 -0.9311306
v 0.09346419 -0.333913 -1.065047
v 0.0969969 -0.3563214 -0.9311966
v 0.009057452 -0.3682941 -0.9316293
v 0.1859764 -0.2962848 -1.068061
v 0.2603514 -0.2364325 -1.066378
v 0.2272935 -0.205379 -1.156782
v 0.2735313 -0.1424945 -1.156554
v 0.007950274 -0.350141 -1.059995
v 0.0949095 -0.2886651 -1.157437
v 0.1666685 -0.2575299 -1.157083
v 0.1677672 -0.1498321 -1.239471
v -0.07351152 -0.3456512 -1.054827
v -0.0780568 -0.3629657 -0.9320578
v -0.1690834 -0.3313849 -0.9325045
v 0.2210277 -0.04892149 -1.239208
v 0.2015025 -0.1039545 -1.239304
v 0.09229842 -0.07964171 -1.293149
v 0.1206102 -0.02599913 -1.293006
v 0.1235399 -0.1878766 -1.239689
v 0.3110057 0.01159974 -1.156369
v 0.1102306 -0.05525328 -1.293059
v 0.2288402 0.008468641 -1.239168
v 0.2166997 0.06510072 -1.239228
v 0.1183092 0.03461 -1.293018
v 0.1247636 0.004505018 -1.292986
v 0.2619566 0.1624103 -1.156608
v 0.006454913 1.283031E-05 -1.312497
v 0.04095808 -0.1119379 -1.293401
v 0.08601119 0.08595154 -1.293177
v -0.01965043 -0.1142401 -1.293698
v 0.03237166 0.1142633 -1.293439
v -0.07329362 -0.08593199 -1.293963
v -0.02823686 0.1119659 -1.293737
v -0.1055892 -0.03458678 -1.29412
v -0.07957536 0.07966615 -1.29399
v -0.107889 0.02602479 -1.294131
v 0.06878706 -0.0998651 -1.293264
v 0.07118758 -0.2105926 -1.239947
v 0.01713973 -0.3015631 -1.157818
v 0.0144493 -0.2200018 -1.240227
v -0.06137895 -0.2945941 -1.158204
v 0.01080001 -0.1169403 -1.293548
v -0.04283464 -0.21492 -1.240509
v -0.1601357 -0.316087 -1.054196
v -0.1352589 -0.2689605 -1.158568
v -0.09673356 -0.1962176 -1.240773
v -0.2357961 -0.2599908 -1.055627
v -0.2484743 -0.2730206 -0.9328939
v -0.3115108 -0.2001544 -0.9332047
v -0.04830217 -0.1042987 -1.293838
v -0.1437447 -0.1616583 -1.241005
v -0.1996938 -0.2215887 -1.158882
v -0.2958278 -0.1906036 -1.05592
v -0.2508595 -0.1624493 -1.159135
v -0.1810707 -0.1185138 -1.241186
v -0.3335133 -0.1046698 -1.056107
v -0.3510793 -0.1099115 -0.9333975
v -0.3692372 -0.0152899 -0.9334872
v -0.09313431 -0.06299376 -1.29406
v -0.2045027 -0.06507994 -1.2413
v -0.2829775 -0.08920836 -1.159293
v -0.3508046 -0.01456114 -1.056196
v -0.2977175 -0.01240904 -1.159364
v -0.2152577 -0.009049669 -1.241352
v -0.3404701 0.0787079 -1.056139
v -0.3583888 0.08264466 -0.9334317
v -0.1113045 -0.004802844 -1.294147
v -0.208832 0.04894716 -1.241321
v -0.2889101 0.06707948 -1.15932
v -0.190129 0.1028485 -1.241229
v -0.2632765 0.1409613 -1.159195
v -0.3104012 0.1653986 -1.055957
v -0.09794693 0.05467592 -1.294081
v -0.1555666 0.1498615 -1.241058
v -0.3268135 0.1736786 -0.9332754
v -0.2159041 0.2053998 -1.158961
v -0.2548146 0.2409931 -1.055716
v -0.2684413 0.2530634 -0.9329879
v -0.1955641 0.3160333 -0.9326285
v -0.1854103 0.3009528 -1.05556
v -0.1567653 0.256568 -1.158669
v -0.112422 0.1871857 -1.240846
v -0.09949052 0.3387067 -1.054951
v -0.1053371 0.3556732 -0.9321854
v -0.01055741 0.3742779 -0.9317178
v -0.05664201 0.09950989 -1.293877
v -0.05898698 0.2106159 -1.240581
v -0.08352189 0.2886859 -1.158307
v -0.009180463 0.3564691 -1.053436
v -0.006725018 0.3034198 -1.157931
v -0.002962812 0.2213629 -1.240307
v 0.08388045 0.3456683 -1.054048
v 0.08721907 0.362984 -0.9312381
v 0.001544024 0.1176776 -1.29359
v 0.05502974 0.214942 -1.240022
v 0.07276717 0.2946161 -1.157541
v 0.1593956 0.3167499 -1.05908
v 0.1466801 0.2690106 -1.157175
v 0.2110826 0.2216083 -1.156858
v 0.1089549 0.1962616 -1.239758
v 0.1559416 0.1616815 -1.239527
v 0.06103621 0.1043341 -1.293298
v 0.1930565 0.1184918 -1.239345
v 0.1057426 0.06299134 -1.293079
v 0.2499852 0.2175263 -0.9304373
v 0.2451487 0.2292194 -0.4087613
v 0.2446922 0.2372614 -0.4087631
v 0.2484813 0.2258832 -0.9304453
v 0.2571605 0.2623419 -0.9304025
v 0.2517955 0.2617462 -0.4087283
v 0.2495366 0.2722357 -0.4087393
v 0.253361 0.2722431 -0.9304208
v 0.238972 0.2815253 -0.4087912
v 0.2427391 0.2808954 -0.9304727
v 0.1656028 0.3329095 -0.4091519
v 0.1684245 0.3322418 -0.9308377
v 0.08721907 0.362984 -0.9312381
v 0.08465315 0.3629742 -0.4095486
v -0.01316056 0.3741693 -0.4100284
v -0.01055741 0.3742779 -0.9317178
v -0.1053371 0.3556732 -0.9321854
v -0.1079024 0.3556683 -0.4104953
v -0.1981325 0.3160431 -0.4109409
v -0.1955641 0.3160333 -0.9326285
v -0.2684413 0.2530634 -0.9329879
v -0.2710072 0.2530573 -0.4112991
v -0.3293776 0.1736737 -0.4115866
v -0.3268135 0.1736786 -0.9332754
v -0.3718031 -0.01529479 -0.4117978
v -0.3692372 -0.0152899 -0.9334872
v -0.3510793 -0.1099115 -0.9333975
v -0.353644 -0.1099176 -0.4117087
v -0.3140749 -0.2001593 -0.4115158
v -0.3115108 -0.2001544 -0.9332047
v -0.2484743 -0.2730206 -0.9328939
v -0.2510396 -0.2730255 -0.4112051
v -0.1716481 -0.3313898 -0.4108169
v -0.1690834 -0.3313849 -0.9325045
v -0.0780568 -0.3629657 -0.9320578
v -0.08062272 -0.362973 -0.4103689
v 0.006099688 -0.368504 -0.4099417
v 0.009057452 -0.3682941 -0.9316293
v 0.0969969 -0.3563214 -0.9311966
v 0.09352461 -0.3563592 -0.409512
v 0.1072435 -0.3527899 -0.4094455
v 0.1105565 -0.3530218 -0.9311306
v 0.1139097 -0.3448956 -0.4094119
v 0.1187065 -0.3187811 -0.4093893
v 0.1245201 -0.312752 -0.9310598
v 0.1179613 -0.3456061 -0.9310928
v 0.1105565 -0.3530218 -0.9311306
v 0.1072435 -0.3527899 -0.4094455
v 0.2572703 -0.2334369 -1.042969
v 0.3096422 -0.1619415 -1.042859
v 0.3083445 0.09929994 -0.2915335
v 0.2700096 0.1695538 -0.2880343
v 0.2781993 0.1540485 -0.2988687
v 0.3093944 0.09925843 -0.3022024
v 0.3271971 0.01529847 -0.2929379
v 0.3279393 0.01531434 -0.30314
v 0.3172935 -0.06944396 -0.2928
v 0.2418254 0.2106952 -0.2937118
v 0.2381907 0.2182892 -0.2836392
v 0.249434 0.2198175 -0.4087387
v 0.2451487 0.2292194 -0.4087613
v 0.3282115 0.1008148 -0.4083536
v 0.254293 0.2085333 -0.9304172
v 0.2499852 0.2175263 -0.9304373
v 0.2913365 0.161153 -0.4085349
v 0.2511784 0.2045453 -1.005677
v 0.2473051 0.2130206 -1.014417
v 0.2984727 0.1547186 -0.9302005
v 0.2843449 0.14758 -1.012281
v 0.2772197 0.1645831 -1.019183
v 0.3128148 0.09265564 -1.016655
v 0.3147856 0.09334046 -1.0249
v 0.3307787 0.1008246 -0.930043
v 0.330233 0.01019716 -1.015005
v 0.3314855 0.01057191 -1.023755
v 0.347318 0.01329408 -0.4082608
v 0.3498216 0.01325746 -0.9299502
v 0.3202012 -0.07259825 -1.010946
v 0.3203715 -0.07265685 -1.020469
v 0.3374822 -0.07578795 -0.9300113
v 0.3349168 -0.07579039 -0.4083212
v 0.2916704 -0.1523175 -1.010881
v 0.2916197 -0.1523102 -1.020576
v 0.3073619 -0.1612823 -0.9301596
v 0.2426103 -0.2195721 -1.011352
v 0.2427794 -0.2196588 -1.020878
v 0.3048094 -0.1613251 -0.4084714
v 0.3174217 -0.06957335 -0.3022977
v 0.288137 -0.1517425 -0.2937991
v 0.2882548 -0.1519025 -0.3031668
v 0.2376292 -0.2210052 -0.2936288
v 0.2549864 -0.2320892 -0.930419
v 0.1915733 -0.2566205 -1.009607
v 0.1771678 -0.2681195 -1.018363
v 0.2378319 -0.2210492 -0.3031253
v 0.1712114 -0.2695624 -0.290834
v 0.2524193 -0.2320941 -0.4087296
v 0.1853111 -0.2583404 -0.3011496
v 0.1198949 -0.3003229 -0.2878384
v 0.2003087 -0.2682477 -0.9306875
v 0.1347496 -0.2930951 -1.007416
v 0.1277208 -0.2989947 -1.016356
v 0.1935795 -0.2704803 -0.4090201
v 0.1370335 -0.2994073 -0.9309976
v 0.1291929 -0.3057953 -0.9310367
v 0.1305516 -0.304942 -0.4093289
v 0.1227074 -0.3115753 -0.409368
v 0.1266661 -0.2947626 -0.2977359
vt 0.1473389 0.9785156
vt 0.1470947 0.9780273
vt 0.1469727 0.9780273
vt 0.1472168 0.9790039
vt 0.1485596 0.9785156
vt 0.1485596 0.9785156
vt 0.1557617 0.9765625
vt 0.1558838 0.9765625
vt 0.1575928 0.9760742
vt 0.1577148 0.9760742
vt 0.1518555 0.9750977
vt 0.1523438 0.9746094
vt 0.1523438 0.9746094
vt 0.1518555 0.9750977
vt 0.1514893 0.9755859
vt 0.1523438 0.9746094
vt 0.15271 0.9750977
vt 0.15271 0.9750977
vt 0.15271 0.9750977
vt 0.1523438 0.9746094
vt 0.152832 0.9750977
vt 0.1522217 0.9746094
vt 0.1518555 0.9750977
vt 0.1514893 0.9755859
vt 0.151001 0.9755859
vt 0.1518555 0.9750977
vt 0.1514893 0.9755859
vt 0.151001 0.9755859
vt 0.1503906 0.9760742
vt 0.1524658 0.9741211
vt 0.1529541 0.9746094
vt 0.1530762 0.9736328
vt 0.1503906 0.9760742
vt 0.1499023 0.9755859
vt 0.1499023 0.9755859
vt 0.149292 0.9755859
vt 0.1503906 0.9760742
vt 0.151001 0.9755859
vt 0.1514893 0.9755859
vt 0.1518555 0.9750977
vt 0.151001 0.9755859
vt 0.1514893 0.9755859
vt 0.149292 0.9755859
vt 0.1489258 0.9750977
vt 0.1489258 0.9750977
vt 0.1485596 0.9746094
vt 0.149292 0.9755859
vt 0.1499023 0.9755859
vt 0.1503906 0.9760742
vt 0.1514893 0.9750977
vt 0.1485596 0.9746094
vt 0.1480713 0.9750977
vt 0.1480713 0.9750977
vt 0.1480713 0.9750977
vt 0.1485596 0.9746094
vt 0.151001 0.9755859
vt 0.1499023 0.9755859
vt 0.1489258 0.9750977
vt 0.1485596 0.9746094
vt 0.1480713 0.9750977
vt 0.1485596 0.9746094
vt 0.1480713 0.9750977
vt 0.1503906 0.9760742
vt 0.1508789 0.9750977
vt 0.149292 0.9755859
vt 0.1489258 0.9750977
vt 0.1499023 0.9755859
vt 0.1489258 0.9750977
vt 0.1494141 0.9755859
vt 0.1500244 0.9750977
vt 0.149292 0.9750977
vt 0.1503906 0.9755859
vt 0.1496582 0.9750977
vt 0.1501465 0.9746094
vt 0.1506348 0.9746094
vt 0.1503906 0.9746094
vt 0.1512451 0.9750977
vt 0.1496582 0.9746094
vt 0.1499023 0.9746094
vt 0.1502686 0.9741211
vt 0.1490479 0.9746094
vt 0.151001 0.9746094
vt 0.151123 0.9746094
vt 0.1505127 0.9741211
vt 0.1503906 0.9741211
vt 0.1501465 0.9741211
vt 0.1500244 0.9741211
vt 0.1506348 0.9741211
vt 0.1495361 0.9741211
vt 0.1503906 0.9736328
vt 0.1499023 0.9741211
vt 0.1508789 0.9741211
vt 0.1499023 0.9736328
vt 0.1507568 0.9741211
vt 0.1499023 0.9741211
vt 0.1494141 0.9741211
vt 0.1513672 0.9741211
vt 0.149292 0.9736328
vt 0.1489258 0.9741211
vt 0.1518555 0.9746094
vt 0.1519775 0.9741211
vt 0.1514893 0.9741211
vt 0.1525879 0.9736328
vt 0.1488037 0.9736328
vt 0.1484375 0.9741211
vt 0.1478271 0.9746094
vt 0.1477051 0.9736328
vt 0.1483154 0.9736328
vt 0.1484375 0.9731445
vt 0.1479492 0.9731445
vt 0.1480713 0.9726563
vt 0.1489258 0.9731445
vt 0.1494141 0.9736328
vt 0.1485596 0.9726563
vt 0.1499023 0.9736328
vt 0.1490479 0.9731445
vt 0.1489258 0.972168
vt 0.1485596 0.972168
vt 0.1490479 0.9711914
vt 0.1499023 0.9736328
vt 0.1495361 0.9731445
vt 0.149292 0.9726563
vt 0.149292 0.9716797
vt 0.1496582 0.9731445
vt 0.1500244 0.9736328
vt 0.1496582 0.972168
vt 0.1499023 0.9716797
vt 0.1497803 0.9711914
vt 0.151123 0.9711914
vt 0.1501465 0.9731445
vt 0.1499023 0.9726563
vt 0.1500244 0.972168
vt 0.1501465 0.9726563
vt 0.1502686 0.9731445
vt 0.1503906 0.9716797
vt 0.1503906 0.9731445
vt 0.1503906 0.972168
vt 0.1503906 0.9726563
vt 0.1508789 0.972168
vt 0.1506348 0.9726563
vt 0.1505127 0.9731445
vt 0.1506348 0.9731445
vt 0.151001 0.9726563
vt 0.151001 0.9716797
vt 0.1512451 0.972168
vt 0.151123 0.9711914
vt 0.1517334 0.9711914
vt 0.1514893 0.9716797
vt 0.1518555 0.972168
vt 0.1522217 0.972168
vt 0.15271 0.9726563
vt 0.1514893 0.9726563
vt 0.151123 0.9731445
vt 0.1507568 0.9736328
vt 0.1523438 0.9726563
vt 0.1508789 0.9736328
vt 0.1518555 0.9731445
vt 0.1513672 0.9731445
vt 0.1524658 0.9731445
vt 0.1529541 0.9731445
vt 0.1519775 0.9731445
vt 0.151001 0.9736328
vt 0.1514893 0.9736328
vt 0.1520996 0.9736328
vt 0.1508789 0.9736328
vt 0.1514893 0.9736328
vt 0.1508789 0.9741211
vt 0.1485596 0.9609375
vt 0.1480713 0.9604492
vt 0.1480713 0.9604492
vt 0.1485596 0.9609375
vt 0.1489258 0.9604492
vt 0.1485596 0.9609375
vt 0.1480713 0.9604492
vt 0.1480713 0.9604492
vt 0.1489258 0.9604492
vt 0.149292 0.9599609
vt 0.1485596 0.9609375
vt 0.1480713 0.9604492
vt 0.149292 0.9599609
vt 0.1499023 0.9599609
vt 0.1489258 0.9604492
vt 0.1485596 0.9609375
vt 0.1478271 0.9614258
vt 0.1499023 0.9599609
vt 0.1503906 0.9599609
vt 0.149292 0.9599609
vt 0.1489258 0.9604492
vt 0.1503906 0.9599609
vt 0.151001 0.9599609
vt 0.151001 0.9599609
vt 0.1514893 0.9599609
vt 0.1503906 0.9599609
vt 0.1499023 0.9599609
vt 0.149292 0.9599609
vt 0.1489258 0.9604492
vt 0.1499023 0.9599609
vt 0.1514893 0.9599609
vt 0.1518555 0.9604492
vt 0.1518555 0.9604492
vt 0.1514893 0.9599609
vt 0.151001 0.9599609
vt 0.1518555 0.9604492
vt 0.1503906 0.9599609
vt 0.151001 0.9599609
vt 0.1503906 0.9599609
vt 0.1494141 0.9599609
vt 0.1499023 0.9599609
vt 0.1523438 0.9609375
vt 0.1523438 0.9609375
vt 0.1496582 0.9604492
vt 0.1503906 0.9599609
vt 0.151001 0.9599609
vt 0.151001 0.9599609
vt 0.1514893 0.9599609
vt 0.1514893 0.9599609
vt 0.1503906 0.9604492
vt 0.15271 0.9604492
vt 0.15271 0.9604492
vt 0.1518555 0.9604492
vt 0.1523438 0.9609375
vt 0.15271 0.9604492
vt 0.1522217 0.9609375
vt 0.152832 0.9604492
vt 0.1529541 0.9614258
vt 0.1518555 0.9604492
vt 0.1514893 0.9599609
vt 0.1512451 0.9604492
vt 0.1508789 0.9604492
vt 0.1524658 0.9614258
vt 0.1518555 0.9609375
vt 0.1514893 0.9609375
vt 0.151001 0.9609375
vt 0.1525879 0.9619141
vt 0.1530762 0.9619141
vt 0.1529541 0.9624023
vt 0.1503906 0.9609375
vt 0.1506348 0.9609375
vt 0.1506348 0.9614258
vt 0.1503906 0.9614258
vt 0.151123 0.9609375
vt 0.1500244 0.9604492
vt 0.1505127 0.9614258
vt 0.1501465 0.9609375
vt 0.1499023 0.9609375
vt 0.1501465 0.9614258
vt 0.1502686 0.9614258
vt 0.149292 0.9609375
vt 0.1503906 0.9619141
vt 0.1508789 0.9614258
vt 0.1499023 0.9614258
vt 0.151001 0.9619141
vt 0.1499023 0.9619141
vt 0.1508789 0.9619141
vt 0.1499023 0.9619141
vt 0.1506348 0.9624023
vt 0.1501465 0.9624023
vt 0.1503906 0.9624023
vt 0.1507568 0.9614258
vt 0.1513672 0.9614258
vt 0.1519775 0.9614258
vt 0.1514893 0.9614258
vt 0.1520996 0.9619141
vt 0.1508789 0.9619141
vt 0.1514893 0.9619141
vt 0.1524658 0.9624023
vt 0.1519775 0.9624023
vt 0.1514893 0.9619141
vt 0.1523438 0.9628906
vt 0.15271 0.9633789
vt 0.1522217 0.9638672
vt 0.1508789 0.9619141
vt 0.1513672 0.9624023
vt 0.1518555 0.9628906
vt 0.1518555 0.9633789
vt 0.1514893 0.9628906
vt 0.151123 0.9624023
vt 0.1514893 0.9638672
vt 0.1517334 0.9643555
vt 0.151123 0.9643555
vt 0.1507568 0.9624023
vt 0.151001 0.9628906
vt 0.1512451 0.9633789
vt 0.151001 0.9638672
vt 0.1508789 0.9633789
vt 0.1506348 0.9628906
vt 0.1503906 0.9638672
vt 0.1503906 0.9643555
vt 0.1505127 0.9624023
vt 0.1503906 0.9628906
vt 0.1503906 0.9633789
vt 0.1501465 0.9628906
vt 0.1500244 0.9633789
vt 0.1499023 0.9638672
vt 0.1502686 0.9624023
vt 0.1499023 0.9628906
vt 0.1497803 0.9643555
vt 0.1496582 0.9633789
vt 0.149292 0.9638672
vt 0.1490479 0.9643555
vt 0.1485596 0.9638672
vt 0.1489258 0.9633789
vt 0.149292 0.9628906
vt 0.1496582 0.9624023
vt 0.1485596 0.9628906
vt 0.1480713 0.9633789
vt 0.1479492 0.9624023
vt 0.1500244 0.9624023
vt 0.1495361 0.9624023
vt 0.1490479 0.9628906
vt 0.1484375 0.9624023
vt 0.1489258 0.9624023
vt 0.1494141 0.9619141
vt 0.1483154 0.9619141
vt 0.1477051 0.9619141
vt 0.1499023 0.9619141
vt 0.149292 0.9619141
vt 0.1488037 0.9619141
vt 0.1484375 0.9614258
vt 0.1489258 0.9614258
vt 0.1490479 0.9609375
vt 0.1494141 0.9614258
vt 0.1495361 0.9614258
vt 0.1499023 0.9619141
vt 0.1496582 0.9609375
vt 0.1500244 0.9614258
vt 0.1496582 0.9643555
vt 0.1496582 0.9711914
vt 0.1496582 0.9711914
vt 0.1496582 0.9643555
vt 0.1496582 0.9643555
vt 0.1496582 0.9711914
vt 0.1496582 0.9711914
vt 0.1496582 0.9643555
vt 0.1497803 0.9711914
vt 0.1497803 0.9643555
vt 0.1499023 0.9711914
vt 0.1499023 0.9643555
vt 0.1500244 0.9643555
vt 0.1500244 0.9711914
vt 0.1502686 0.9711914
vt 0.1502686 0.9643555
vt 0.1503906 0.9643555
vt 0.1503906 0.9711914
vt 0.1506348 0.9711914
vt 0.1506348 0.9643555
vt 0.1507568 0.9643555
vt 0.1507568 0.9711914
vt 0.151001 0.9711914
vt 0.151001 0.9643555
vt 0.1513672 0.9711914
vt 0.1513672 0.9643555
vt 0.1514893 0.9643555
vt 0.1514893 0.9711914
vt 0.1517334 0.9711914
vt 0.1517334 0.9643555
vt 0.1518555 0.9643555
vt 0.1518555 0.9711914
vt 0.1520996 0.9711914
vt 0.1520996 0.9643555
vt 0.1522217 0.9643555
vt 0.1522217 0.9711914
vt 0.1523438 0.9711914
vt 0.1523438 0.9643555
vt 0.1525879 0.9643555
vt 0.1525879 0.9711914
vt 0.1525879 0.9711914
vt 0.1525879 0.9643555
vt 0.1496582 0.9711914
vt 0.1496582 0.9711914
vt 0.1496582 0.9643555
vt 0.1496582 0.9643555
vt 0.1496582 0.9643555
vt 0.1496582 0.9711914
vt 0.1514893 0.9599609
vt 0.151001 0.9599609
vt 0.2111816 0.9750977
vt 0.2115479 0.9765625
vt 0.2122803 0.9760742
vt 0.2120361 0.9750977
vt 0.2109375 0.9731445
vt 0.2119141 0.9731445
vt 0.2108154 0.9711914
vt 0.2125244 0.9770508
vt 0.2121582 0.9775391
vt 0.2143555 0.9775391
vt 0.2142334 0.9780273
vt 0.2141113 0.9746094
vt 0.2213135 0.9770508
vt 0.2214355 0.9780273
vt 0.2142334 0.9760742
vt 0.2225342 0.9770508
vt 0.2230225 0.9775391
vt 0.2211914 0.9760742
vt 0.2227783 0.9760742
vt 0.2236328 0.9765625
vt 0.2231445 0.9750977
vt 0.223999 0.9750977
vt 0.2213135 0.9746094
vt 0.2232666 0.9731445
vt 0.2242432 0.9731445
vt 0.2141113 0.9731445
vt 0.2213135 0.9731445
vt 0.2232666 0.9711914
vt 0.2243652 0.9711914
vt 0.2213135 0.9711914
vt 0.2141113 0.9711914
vt 0.2232666 0.9692383
vt 0.2242432 0.96875
vt 0.2213135 0.9692383
vt 0.2230225 0.9672852
vt 0.223999 0.9672852
vt 0.2141113 0.9692383
vt 0.2119141 0.9711914
vt 0.2109375 0.96875
vt 0.2119141 0.96875
vt 0.2111816 0.9667969
vt 0.2213135 0.9672852
vt 0.2227783 0.9658203
vt 0.2236328 0.9658203
vt 0.2121582 0.9672852
vt 0.2115479 0.965332
vt 0.2142334 0.9672852
vt 0.2124023 0.9658203
vt 0.2121582 0.9643555
vt 0.2213135 0.9658203
vt 0.2225342 0.9648438
vt 0.2230225 0.9648438
vt 0.2142334 0.9658203
vt 0.2213135 0.9648438
vt 0.2214355 0.9643555
vt 0.2143555 0.9648438
vt 0.2142334 0.9638672
vt 0.2126465 0.9648438
vn 0.7060547 -0.6948242 0.1362305
vn 0.5341797 -0.7744141 0.3383789
vn 0.4567871 -0.6635742 0.5922852
vn 0.8657227 -0.4672852 0.1779785
vn 0.7475586 -0.6640625 -0.007740021
vn 0.9624023 -0.2719727 -0.001970291
vn 0.7568359 -0.6533203 0.01557922
vn 0.9638672 -0.2658691 0.01513672
vn 0.746582 -0.6552734 -0.1161499
vn 0.887207 -0.423584 -0.1816406
vn 0.5083008 -0.7924805 -0.3364258
vn 0.746582 -0.6552734 -0.1161499
vn 0.887207 -0.423584 -0.1816406
vn 0.4250488 -0.6665039 -0.6123047
vn 0.6801758 -0.684082 -0.262207
vn 0.8022461 -0.5874023 -0.1046753
vn 0.9638672 -0.2658691 0.01513672
vn 0.9418945 -0.3352051 0.01960754
vn 0.4733887 -0.8803711 0.03302002
vn 0.3806152 -0.921875 0.07104492
vn 0.1538086 -0.987793 0.03114319
vn 0.2045898 -0.9345703 0.2912598
vn 0.4487305 -0.7099609 -0.5429688
vn 0.5444336 -0.5625 -0.6220703
vn 0.8583984 -0.4494629 -0.2468262
vn 0.4855957 -0.8505859 -0.2011719
vn 0.5644531 -0.590332 -0.5771484
vn 0.6850586 -0.3569336 -0.6352539
vn 0.9482422 -0.2188721 -0.2305908
vn 0.0411377 -0.9672852 0.2495117
vn 0.04119873 -0.9985352 0.02819824
vn -0.2033691 -0.9790039 0.02452087
vn 0.7509766 -0.1733398 -0.637207
vn 0.9814453 0.05670166 -0.1829834
vn 0.7597656 0.0423584 -0.6489258
vn 0.9199219 0.3491211 -0.1776123
vn 0.7749023 -0.1833496 -0.6049805
vn 0.7084961 -0.3723145 -0.5991211
vn 0.6738281 -0.7036133 -0.2250977
vn 0.4753418 -0.7949219 0.3771973
vn 0.8754883 -0.4606934 -0.1463623
vn 0.6625977 -0.6357422 0.3964844
vn 0.7133789 0.2858887 -0.6396484
vn 0.8129883 0.5058594 -0.2885742
vn 0.6459961 0.4094238 -0.6445313
vn 0.9589844 0.2629395 -0.1063232
vn 0.7392578 0.2937012 -0.6064453
vn 0.784668 0.03689575 -0.6186523
vn 0.9609375 -0.2324219 -0.1512451
vn 0.4291992 -0.7041016 0.5654297
vn 0.9799805 -0.01287079 -0.1983643
vn 0.9628906 0.2697754 0.01579285
vn 0.984375 -0.1756592 0.01618958
vn 0.9941406 -0.1071777 0.0211792
vn 0.9819336 0.157959 -0.1047363
vn 0.800293 -0.4240723 0.4238281
vn 0.9863281 0.03771973 -0.1593018
vn 0.6884766 0.4367676 -0.5791016
vn 0.7519531 0.6542969 0.07830811
vn 0.8154297 0.5776367 0.03601074
vn 0.6015625 0.7431641 0.2922363
vn 0.5834961 0.8115234 0.03372192
vn 0.8803711 -0.2145996 0.4226074
vn 0.7207031 -0.3818359 0.5786133
vn 0.9047852 0.3527832 -0.2380371
vn 0.8046875 0.5561523 -0.2072754
vn 0.9042969 0.03457642 0.4257813
vn 0.7724609 0.5112305 0.3769531
vn 0.8681641 0.2976074 0.3967285
vn 0.8134766 0.03076172 0.5810547
vn 0.6918945 0.4484863 0.5664063
vn 0.7919922 -0.1933594 0.5791016
vn 0.7753906 0.2587891 0.5761719
vn 0.6201172 0.02368164 0.7841797
vn 0.5493164 -0.2919922 0.7827148
vn 0.6030273 -0.1477051 0.7836914
vn 0.5947266 -0.5620117 0.5751953
vn 0.5258789 0.3330078 0.7827148
vn 0.590332 0.1933594 0.7836914
vn 0.3452148 0.01324463 0.9384766
vn 0.559082 0.6088867 0.5629883
vn 0.4543457 -0.4255371 0.7827148
vn 0.3293457 -0.5292969 0.7817383
vn 0.3049316 -0.1633301 0.9384766
vn 0.331543 -0.08093262 0.9399414
vn 0.3244629 0.1061401 0.9399414
vn 0.291748 0.1864014 0.9379883
vn 0.2491455 -0.2355957 0.9394531
vn 0.4206543 0.4589844 0.7827148
vn -0.00491333 -1.466274E-05 1
vn 0.2304688 0.2541504 0.9394531
vn 0.09405518 -0.3325195 0.9384766
vn 0.0713501 0.3376465 0.9384766
vn 0.1818848 -0.2963867 0.9375
vn 0.1588135 0.3095703 0.9375
vn 0.2880859 0.5532227 0.7817383
vn 0.1728516 -0.6005859 0.7807617
vn 0.1329346 0.6098633 0.78125
vn 0.3835449 0.7270508 0.5693359
vn 0.230957 -0.7944336 0.5615234
vn 0.03044128 -0.8232422 0.5673828
vn 0.01991272 -0.6259766 0.7797852
vn -0.2006836 -0.9477539 0.2489014
vn 0.1740723 0.8037109 0.5688477
vn 0.4555664 0.8540039 0.2519531
vn 0.4697266 0.8823242 0.03051758
vn 0.2265625 0.9736328 0.02676392
vn 0.2141113 0.9438477 0.251709
vn -0.03781128 0.9667969 0.2519531
vn -0.03805542 0.9990234 0.02557373
vn -0.3000488 0.9536133 0.02423096
vn -0.03417969 0.824707 0.5644531
vn -0.02754211 0.625 0.7802734
vn -0.2905273 0.9228516 0.2521973
vn -0.01782227 0.3498535 0.9365234
vn -0.248291 0.7875977 0.5634766
vn -0.5166016 0.8188477 0.2504883
vn -0.5322266 0.8461914 0.02316284
vn -0.7348633 0.6777344 0.02209473
vn -0.107666 0.3305664 0.9375
vn -0.1901855 0.5966797 0.7797852
vn -0.4418945 0.6982422 0.5634766
vn -0.7128906 0.6557617 0.2493896
vn -0.3369141 0.5292969 0.7788086
vn -0.19104 0.2963867 0.9355469
vn -0.609375 0.559082 0.5625
vn -0.8569336 0.4516602 0.2487793
vn -0.8842773 0.4665527 0.02142334
vn -0.9755859 0.2189941 0.02090454
vn -0.2590332 0.2346191 0.9370117
vn -0.463623 0.423584 0.7783203
vn -0.7324219 0.3850098 0.5615234
vn -0.5571289 0.2919922 0.7773438
vn -0.314209 0.1634521 0.9350586
vn -0.9453125 0.2119141 0.248291
vn -0.3422852 0.07598877 0.9365234
vn -0.8076172 0.1807861 0.5610352
vn -0.6137695 0.1369629 0.7773438
vn -0.8271484 -0.03131104 0.5610352
vn -0.6289063 -0.02371216 0.7773438
vn -0.3544922 -0.01325989 0.9350586
vn -0.3352051 -0.1030273 0.9365234
vn -0.6005859 -0.1864014 0.7773438
vn -0.9677734 -0.03671265 0.2481689
vn -0.7900391 -0.2459717 0.5615234
vn -0.9990234 -0.03793335 0.02085876
vn -0.9541016 -0.2980957 0.02099609
vn -0.9248047 -0.2883301 0.2484131
vn -0.8203125 -0.5151367 0.2489014
vn -0.8461914 -0.5322266 0.02160645
vn -0.6777344 -0.7348633 0.02224731
vn -0.7011719 -0.439209 0.5620117
vn -0.5332031 -0.3330078 0.777832
vn -0.3010254 -0.1864014 0.9350586
vn -0.6567383 -0.7114258 0.2504883
vn -0.2392578 -0.2543945 0.9370117
vn -0.5615234 -0.6074219 0.5620117
vn -0.4274902 -0.4597168 0.7783203
vn -0.4528809 -0.855957 0.2493896
vn -0.4667969 -0.8842773 0.02316284
vn -0.3881836 -0.7299805 0.5629883
vn -0.07781982 -0.3391113 0.9375
vn -0.2958984 -0.5532227 0.7788086
vn -0.1783447 -0.8041992 0.5668945
vn -0.1680908 -0.3095703 0.9360352
vn -0.1346436 -0.6118164 0.7792969
vn 0.008659363 -0.3498535 0.9370117
vn 0.9291992 0.3276367 0.1717529
vn 0.9570313 0.2890625 -0.004695892
vn 0.9868164 -0.1625977 0.000562191
vn 0.9848633 0.05780029 0.163208
vn 0.7792969 0.4155273 0.4689941
vn 0.9692383 0.230957 0.08508301
vn 0.9951172 -0.0994873 -0.004306793
vn 0.8095703 0.5864258 -0.02508545
vn 0.690918 0.3847656 0.6118164
vn 0.8017578 0.2678223 0.5341797
vn 0.7373047 0.6704102 -0.0802002
vn 0.5820313 0.8125 -0.02844238
vn 0.6679688 0.2457275 0.7021484
vn 0.8867188 0.03155518 0.4609375
vn 0.7416992 0.4440918 0.5024414
vn 0.6015625 0.7358398 -0.3110352
vn 0.4692383 0.8828125 -0.02702332
vn 0.684082 0.02267456 0.7290039
vn 0.9199219 -0.2226563 0.3232422
vn 0.7504883 0.2949219 0.5917969
vn 0.8139648 0.5463867 0.1964111
vn 0.7016602 -0.1730957 0.6914063
vn 0.8491211 -0.4484863 0.2792969
vn 0.6474609 -0.3439941 0.6801758
vn 0.6826172 -0.6679688 0.2963867
vn 0.7426758 -0.182373 0.6445313
vn 0.7651367 0.02301025 0.6435547
vn 0.8999023 0.3500977 0.2592773
vn 0.7768555 0.5092773 -0.369873
vn 0.980957 0.03753662 0.1899414
vn 0.5317383 -0.5419922 0.6503906
vn 0.5341797 -0.7744141 0.3383789
vn 0.4567871 -0.6635742 0.5922852
vn 0.550293 -0.5791016 0.6015625
vn 0.6772461 -0.3586426 0.6425781
vn 0.46875 -0.7128906 0.5214844
vn 0.9545898 -0.2318115 0.1864014
vn 0.8691406 -0.4587402 0.1842041
vn 0.9545898 -0.2318115 0.1864014
vn 0.8735352 0.296875 -0.3862305
vn 0.9091797 0.03503418 -0.4155273
vn 0.7739258 -0.625 0.1033325
vn 0.8657227 -0.4672852 0.1779785
vn 0.7807617 0.2578125 -0.5693359
vn 0.8852539 -0.2145996 -0.4123535
vn 0.8691406 -0.4587402 0.1842041
vn 0.8051758 -0.4245605 -0.4140625
vn 0.6679688 -0.6987305 0.2563477
vn 0.550293 -0.5791016 0.6015625
vn 0.7973633 -0.1933594 -0.5717773
vn 0.9414063 -0.3378906 -0.006671906
vn 0.9624023 -0.2719727 -0.001970291
vn 0.4936523 -0.8457031 0.2036133
vn 0.378418 -0.9223633 -0.07489014
vn 0.4694824 -0.8823242 -0.02732849
vn 0.2102051 -0.9257813 -0.3139648
vn 0.1530762 -0.987793 -0.03039551
vn 0.040802 -0.9985352 -0.02888489
vn 0.4802246 -0.7944336 -0.371582
vn 0.6674805 -0.6362305 -0.387207
vn 0.6000977 -0.5615234 -0.5693359
vn 0.7260742 -0.3815918 -0.5717773
vn 0.04095459 -0.9594727 -0.2792969
vn 0.236084 -0.7944336 -0.5595703
vn 0.4345703 -0.7036133 -0.5620117
vn 0.4619141 -0.4255371 -0.7783203
vn -0.1971436 -0.9389648 -0.2822266
vn -0.203125 -0.9790039 -0.0276947
vn -0.4665527 -0.8842773 -0.02886963
vn 0.6108398 -0.1477051 -0.777832
vn 0.5571289 -0.2919922 -0.7773438
vn 0.2583008 -0.2355957 -0.9370117
vn 0.3408203 -0.08087158 -0.9365234
vn 0.3369141 -0.5292969 -0.7788086
vn 0.8188477 0.03083801 -0.5727539
vn 0.314209 -0.1633301 -0.9350586
vn 0.6279297 0.0236969 -0.777832
vn 0.5976563 0.1933594 -0.777832
vn 0.3337402 0.1061401 -0.9365234
vn 0.3544922 0.01328278 -0.9350586
vn 0.6967773 0.4472656 -0.5605469
vn 0.00491333 1.329184E-05 -1
vn 0.1032715 -0.3325195 -0.9375
vn 0.2397461 0.2541504 -0.9370117
vn -0.06860352 -0.3391113 -0.9384766
vn 0.08056641 0.3376465 -0.9379883
vn -0.2301025 -0.2543945 -0.9394531
vn -0.09844971 0.3305664 -0.9384766
vn -0.3259277 -0.1030273 -0.9399414
vn -0.2498779 0.2347412 -0.9394531
vn -0.3330078 0.0760498 -0.9399414
vn 0.19104 -0.2963867 -0.9355469
vn 0.1804199 -0.6005859 -0.7792969
vn 0.03591919 -0.8232422 -0.5668945
vn 0.02758789 -0.6259766 -0.7792969
vn -0.1727295 -0.8041992 -0.5683594
vn 0.0178833 -0.3496094 -0.9365234
vn -0.1269531 -0.6118164 -0.7807617
vn -0.4460449 -0.8481445 -0.2858887
vn -0.3825684 -0.7299805 -0.5664063
vn -0.2880859 -0.5532227 -0.7817383
vn -0.6479492 -0.7045898 -0.2885742
vn -0.6772461 -0.7348633 -0.03001404
vn -0.8461914 -0.5322266 -0.03100586
vn -0.1588135 -0.3095703 -0.9375
vn -0.4196777 -0.4597168 -0.7827148
vn -0.5561523 -0.6069336 -0.5673828
vn -0.8100586 -0.5102539 -0.2890625
vn -0.6953125 -0.439209 -0.5688477
vn -0.5253906 -0.3330078 -0.7827148
vn -0.9135742 -0.2856445 -0.2893066
vn -0.9541016 -0.2978516 -0.03146362
vn -0.9985352 -0.03793335 -0.03173828
vn -0.291748 -0.1864014 -0.9379883
vn -0.5927734 -0.1864014 -0.7832031
vn -0.784668 -0.2459717 -0.5688477
vn -0.956543 -0.03637695 -0.2895508
vn -0.8212891 -0.03128052 -0.5693359
vn -0.6210938 -0.02371216 -0.7832031
vn -0.934082 0.210083 -0.2893066
vn -0.9750977 0.2189941 -0.03158569
vn -0.3452148 -0.01324463 -0.9384766
vn -0.605957 0.1369629 -0.7836914
vn -0.8022461 0.1807861 -0.5693359
vn -0.5493164 0.2919922 -0.7827148
vn -0.7265625 0.3850098 -0.5688477
vn -0.8461914 0.4475098 -0.2890625
vn -0.3049316 0.1634521 -0.9379883
vn -0.4558105 0.423584 -0.7827148
vn -0.8837891 0.4665527 -0.03118896
vn -0.6040039 0.559082 -0.5683594
vn -0.7036133 0.6499023 -0.2880859
vn -0.7348633 0.6777344 -0.03039551
vn -0.5322266 0.8461914 -0.02946472
vn -0.5087891 0.8115234 -0.2875977
vn -0.4365234 0.6982422 -0.5673828
vn -0.3291016 0.5292969 -0.7817383
vn -0.2851563 0.9145508 -0.2868652
vn -0.2998047 0.9536133 -0.02822876
vn -0.03778076 0.9990234 -0.02694702
vn -0.1817627 0.2963867 -0.9375
vn -0.1824951 0.5966797 -0.78125
vn -0.2427979 0.7875977 -0.565918
vn -0.03488159 0.9580078 -0.2849121
vn -0.02861023 0.824707 -0.5649414
vn -0.01986694 0.625 -0.7802734
vn 0.2147217 0.9355469 -0.28125
vn 0.2270508 0.9736328 -0.02575684
vn -0.008644104 0.3498535 -0.9365234
vn 0.140625 0.6098633 -0.7797852
vn 0.1799316 0.8037109 -0.5668945
vn 0.4519043 0.8481445 -0.2773438
vn 0.3891602 0.7270508 -0.5654297
vn 0.5639648 0.6088867 -0.5581055
vn 0.2958984 0.5532227 -0.7788086
vn 0.4282227 0.4589844 -0.7783203
vn 0.1680908 0.3095703 -0.9360352
vn 0.5332031 0.333252 -0.7773438
vn 0.3010254 0.1864014 -0.9350586
vn 0.9570313 0.2890625 -0.004695892
vn 0.9628906 0.2697754 0.01579285
vn 0.984375 -0.1756592 0.01618958
vn 0.9868164 -0.1625977 0.000562191
vn 0.9951172 -0.0994873 -0.004306793
vn 0.9941406 -0.1071777 0.0211792
vn 0.8154297 0.5776367 0.03601074
vn 0.8095703 0.5864258 -0.02508545
vn 0.5834961 0.8115234 0.03372192
vn 0.5820313 0.8125 -0.02844238
vn 0.4697266 0.8823242 0.03051758
vn 0.4692383 0.8828125 -0.02702332
vn 0.2270508 0.9736328 -0.02575684
vn 0.2265625 0.9736328 0.02676392
vn -0.03805542 0.9990234 0.02557373
vn -0.03778076 0.9990234 -0.02694702
vn -0.2998047 0.9536133 -0.02822876
vn -0.3000488 0.9536133 0.02423096
vn -0.5322266 0.8461914 0.02316284
vn -0.5322266 0.8461914 -0.02946472
vn -0.7348633 0.6777344 -0.03039551
vn -0.7348633 0.6777344 0.02209473
vn -0.8842773 0.4665527 0.02142334
vn -0.8837891 0.4665527 -0.03118896
vn -0.9990234 -0.03793335 0.02085876
vn -0.9985352 -0.03793335 -0.03173828
vn -0.9541016 -0.2978516 -0.03146362
vn -0.9541016 -0.2980957 0.02099609
vn -0.8461914 -0.5322266 0.02160645
vn -0.8461914 -0.5322266 -0.03100586
vn -0.6772461 -0.7348633 -0.03001404
vn -0.6777344 -0.7348633 0.02224731
vn -0.4667969 -0.8842773 0.02316284
vn -0.4665527 -0.8842773 -0.02886963
vn -0.203125 -0.9790039 -0.0276947
vn -0.2033691 -0.9790039 0.02452087
vn 0.04119873 -0.9985352 0.02819824
vn 0.040802 -0.9985352 -0.02888489
vn 0.1530762 -0.987793 -0.03039551
vn 0.1538086 -0.987793 0.03114319
vn 0.4733887 -0.8803711 0.03302002
vn 0.4694824 -0.8823242 -0.02732849
vn 0.9418945 -0.3352051 0.01960754
vn 0.9638672 -0.2658691 0.01513672
vn 0.9624023 -0.2719727 -0.001970291
vn 0.9414063 -0.3378906 -0.006671906
vn 0.4694824 -0.8823242 -0.02732849
vn 0.4733887 -0.8803711 0.03302002
vn 0.550293 -0.5791016 0.6015625
vn 0.6772461 -0.3586426 0.6425781
vn 0.9199219 0.3491211 -0.1776123
vn 0.8129883 0.5058594 -0.2885742
vn 0.8413086 0.5273438 0.1194458
vn 0.9248047 0.347168 0.1540527
vn 0.9814453 0.05670166 -0.1829834
vn 0.9848633 0.0456543 0.1679688
vn 0.9482422 -0.2188721 -0.2305908
vn 0.8457031 0.5263672 0.08978271
vn 0.9589844 0.2629395 -0.1063232
vn 0.8164063 0.5766602 0.01887512
vn 0.9628906 0.2697754 0.01579285
vn 0.9375 0.3464355 0.03167725
vn 0.8125 0.5825195 -0.0160675
vn 0.9570313 0.2890625 -0.004695892
vn 0.828125 0.5595703 0.02420044
vn 0.8359375 0.5424805 -0.08410645
vn 0.9291992 0.3276367 0.1717529
vn 0.8276367 0.5610352 -0.02027893
vn 0.8427734 0.5224609 -0.1317139
vn 0.7792969 0.4155273 0.4689941
vn 0.9306641 0.3198242 -0.1779785
vn 0.8017578 0.2678223 0.5341797
vn 0.9379883 0.345459 -0.02529907
vn 0.980957 0.03945923 -0.1903076
vn 0.8867188 0.03155518 0.4609375
vn 0.9985352 0.03820801 0.03329468
vn 0.9990234 0.03863525 -0.02589417
vn 0.9541016 -0.2298584 -0.1915283
vn 0.9199219 -0.2226563 0.3232422
vn 0.9711914 -0.236084 -0.0244751
vn 0.9711914 -0.236084 0.03317261
vn 0.8681641 -0.4572754 -0.1936035
vn 0.8491211 -0.4484863 0.2792969
vn 0.8842773 -0.4665527 -0.02449036
vn 0.703125 -0.6870117 -0.1838379
vn 0.6826172 -0.6679688 0.2963867
vn 0.8837891 -0.4665527 0.0328064
vn 0.9594727 -0.229126 0.1640625
vn 0.8583984 -0.4494629 -0.2468262
vn 0.8730469 -0.4592285 0.1635742
vn 0.6801758 -0.684082 -0.262207
vn 0.7045898 -0.7089844 -0.02386475
vn 0.5297852 -0.8364258 -0.1396484
vn 0.5341797 -0.7744141 0.3383789
vn 0.6987305 -0.6992188 0.1508789
vn 0.5083008 -0.7924805 -0.3364258
vn 0.7045898 -0.7089844 0.03063965
vn 0.5332031 -0.8383789 0.1154175
vn 0.746582 -0.6552734 -0.1161499
vn 0.5078125 -0.8613281 -0.02003479
vn 0.5214844 -0.8486328 -0.09075928
vn 0.7060547 -0.6948242 0.1362305
vn 0.5092773 -0.8603516 0.0234375
vn 0.487793 -0.8725586 -0.01672363
vn 0.7475586 -0.6640625 -0.007740021
vn 0.4924316 -0.8701172 0.01876831
vn 0.7568359 -0.6533203 0.01557922
vn 0.534668 -0.8408203 0.08447266
g Seat_10_0
f 3/3/3 2/2/2 1/1/1
f 4/4/4 3/3/3 1/1/1
f 1/1/1 5/5/5 4/4/4
f 5/5/5 6/6/6 4/4/4
f 5/5/5 7/7/7 6/6/6
f 7/7/7 8/8/8 6/6/6
f 7/7/7 9/9/9 8/8/8
f 9/9/9 10/10/10 8/8/8
f 13/13/13 12/12/12 11/11/11
f 14/14/14 13/13/13 11/11/11
f 14/14/14 11/11/11 15/15/15
f 16/16/16 13/13/13 14/14/14
f 17/17/17 13/13/13 16/16/16
f 18/18/18 17/17/17 16/16/16
f 19/19/19 18/18/18 16/16/16
f 20/20/20 19/19/19 16/16/16
f 21/21/21 19/19/19 20/20/20
f 22/22/22 21/21/21 20/20/20
f 16/16/16 23/23/23 20/20/20
f 23/23/23 16/16/16 14/14/14
f 24/24/24 14/14/14 15/15/15
f 15/15/15 25/25/25 24/24/24
f 23/23/23 26/26/26 20/20/20
f 20/20/20 26/26/26 22/22/22
f 23/23/23 14/14/14 27/27/27
f 14/14/14 24/24/24 27/27/27
f 23/23/23 27/27/27 26/26/26
f 25/25/25 28/28/28 24/24/24
f 27/27/27 24/24/24 28/28/28
f 25/25/25 29/29/29 28/28/28
f 21/21/21 22/22/22 30/30/30
f 31/31/31 21/21/21 30/30/30
f 31/31/31 30/30/30 32/32/32
f 29/29/29 33/33/33 28/28/28
f 29/29/29 34/34/34 33/33/33
f 34/34/34 35/35/35 33/33/33
f 34/34/34 36/36/36 35/35/35
f 28/28/28 33/33/33 37/37/37
f 37/37/37 33/33/33 35/35/35
f 38/38/38 27/27/27 28/28/28
f 38/38/38 28/28/28 37/37/37
f 27/27/27 38/38/38 39/39/39
f 27/27/27 39/39/39 26/26/26
f 26/26/26 40/40/40 22/22/22
f 26/26/26 39/39/39 40/40/40
f 38/38/38 41/41/41 39/39/39
f 38/38/38 37/37/37 41/41/41
f 39/39/39 42/42/42 40/40/40
f 39/39/39 41/41/41 42/42/42
f 36/36/36 43/43/43 35/35/35
f 36/36/36 44/44/44 43/43/43
f 44/44/44 45/45/45 43/43/43
f 44/44/44 46/46/46 45/45/45
f 35/35/35 43/43/43 47/47/47
f 47/47/47 43/43/43 45/45/45
f 48/48/48 37/37/37 35/35/35
f 48/48/48 35/35/35 47/47/47
f 37/37/37 49/49/49 41/41/41
f 37/37/37 48/48/48 49/49/49
f 40/40/40 42/42/42 50/50/50
f 40/40/40 50/50/50 22/22/22
f 46/46/46 51/51/51 45/45/45
f 51/51/51 46/46/46 52/52/52
f 53/53/53 51/51/51 52/52/52
f 51/51/51 53/53/53 54/54/54
f 45/45/45 51/51/51 55/55/55
f 55/55/55 51/51/51 54/54/54
f 41/41/41 56/56/56 42/42/42
f 41/41/41 49/49/49 56/56/56
f 48/48/48 57/57/57 49/49/49
f 48/48/48 47/47/47 57/57/57
f 58/58/58 47/47/47 45/45/45
f 58/58/58 45/45/45 55/55/55
f 55/55/55 54/54/54 59/59/59
f 54/54/54 60/60/60 59/59/59
f 59/59/59 60/60/60 61/61/61
f 60/60/60 62/62/62 61/61/61
f 49/49/49 63/63/63 56/56/56
f 49/49/49 57/57/57 63/63/63
f 56/56/56 64/64/64 42/42/42
f 56/56/56 63/63/63 64/64/64
f 47/47/47 58/58/58 65/65/65
f 47/47/47 65/65/65 57/57/57
f 58/58/58 55/55/55 66/66/66
f 55/55/55 59/59/59 66/66/66
f 58/58/58 66/66/66 65/65/65
f 57/57/57 65/65/65 67/67/67
f 57/57/57 67/67/67 63/63/63
f 66/66/66 59/59/59 68/68/68
f 59/59/59 61/61/61 68/68/68
f 65/65/65 66/66/66 69/69/69
f 65/65/65 69/69/69 67/67/67
f 66/66/66 68/68/68 69/69/69
f 67/67/67 70/70/70 63/63/63
f 67/67/67 69/69/69 70/70/70
f 68/68/68 71/71/71 69/69/69
f 68/68/68 61/61/61 71/71/71
f 63/63/63 72/72/72 64/64/64
f 70/70/70 72/72/72 63/63/63
f 69/69/69 73/73/73 70/70/70
f 71/71/71 73/73/73 69/69/69
f 70/70/70 74/74/74 72/72/72
f 70/70/70 73/73/73 74/74/74
f 64/64/64 72/72/72 75/75/75
f 74/74/74 76/76/76 72/72/72
f 72/72/72 76/76/76 75/75/75
f 64/64/64 75/75/75 77/77/77
f 64/64/64 77/77/77 42/42/42
f 42/42/42 77/77/77 50/50/50
f 71/71/71 78/78/78 73/73/73
f 73/73/73 79/79/79 74/74/74
f 78/78/78 79/79/79 73/73/73
f 74/74/74 80/80/80 76/76/76
f 74/74/74 79/79/79 80/80/80
f 71/71/71 81/81/81 78/78/78
f 61/61/61 81/81/81 71/71/71
f 75/75/75 82/82/82 77/77/77
f 50/50/50 77/77/77 83/83/83
f 77/77/77 82/82/82 83/83/83
f 75/75/75 76/76/76 84/84/84
f 75/75/75 84/84/84 82/82/82
f 80/80/80 85/85/85 76/76/76
f 76/76/76 85/85/85 84/84/84
f 79/79/79 86/86/86 80/80/80
f 80/80/80 86/86/86 85/85/85
f 78/78/78 87/87/87 79/79/79
f 87/87/87 86/86/86 79/79/79
f 84/84/84 88/88/88 82/82/82
f 84/84/84 85/85/85 88/88/88
f 78/78/78 89/89/89 87/87/87
f 81/81/81 89/89/89 78/78/78
f 86/86/86 90/90/90 85/85/85
f 85/85/85 90/90/90 88/88/88
f 87/87/87 91/91/91 86/86/86
f 91/91/91 90/90/90 86/86/86
f 89/89/89 91/91/91 87/87/87
f 88/88/88 90/90/90 92/92/92
f 93/93/93 90/90/90 91/91/91
f 82/82/82 88/88/88 94/94/94
f 94/94/94 88/88/88 92/92/92
f 83/83/83 82/82/82 94/94/94
f 95/95/95 91/91/91 89/89/89
f 95/95/95 93/93/93 91/91/91
f 96/96/96 89/89/89 81/81/81
f 96/96/96 95/95/95 89/89/89
f 83/83/83 94/94/94 97/97/97
f 94/94/94 92/92/92 97/97/97
f 98/98/98 93/93/93 95/95/95
f 96/96/96 98/98/98 95/95/95
f 99/99/99 96/96/96 81/81/81
f 99/99/99 81/81/81 61/61/61
f 83/83/83 97/97/97 100/100/100
f 50/50/50 83/83/83 100/100/100
f 50/50/50 100/100/100 22/22/22
f 22/22/22 100/100/100 101/101/101
f 30/30/30 22/22/22 101/101/101
f 100/100/100 97/97/97 102/102/102
f 101/101/101 100/100/100 102/102/102
f 30/30/30 101/101/101 103/103/103
f 30/30/30 103/103/103 32/32/32
f 104/104/104 98/98/98 96/96/96
f 99/99/99 104/104/104 96/96/96
f 105/105/105 99/99/99 61/61/61
f 105/105/105 61/61/61 62/62/62
f 106/106/106 105/105/105 62/62/62
f 106/106/106 107/107/107 105/105/105
f 105/105/105 108/108/108 99/99/99
f 107/107/107 108/108/108 105/105/105
f 108/108/108 104/104/104 99/99/99
f 109/109/109 108/108/108 107/107/107
f 110/110/110 109/109/109 107/107/107
f 110/110/110 111/111/111 109/109/109
f 112/112/112 104/104/104 108/108/108
f 109/109/109 112/112/112 108/108/108
f 113/113/113 98/98/98 104/104/104
f 112/112/112 113/113/113 104/104/104
f 111/111/111 114/114/114 109/109/109
f 109/109/109 114/114/114 112/112/112
f 113/113/113 115/115/115 98/98/98
f 115/115/115 93/93/93 98/98/98
f 112/112/112 116/116/116 113/113/113
f 114/114/114 116/116/116 112/112/112
f 117/117/117 114/114/114 111/111/111
f 118/118/118 117/117/117 111/111/111
f 118/118/118 119/119/119 117/117/117
f 115/115/115 120/120/120 93/93/93
f 120/120/120 90/90/90 93/93/93
f 113/113/113 121/121/121 115/115/115
f 116/116/116 121/121/121 113/113/113
f 121/121/121 120/120/120 115/115/115
f 122/122/122 116/116/116 114/114/114
f 117/117/117 122/122/122 114/114/114
f 119/119/119 123/123/123 117/117/117
f 117/117/117 123/123/123 122/122/122
f 124/124/124 121/121/121 116/116/116
f 122/122/122 124/124/124 116/116/116
f 125/125/125 120/120/120 121/121/121
f 124/124/124 125/125/125 121/121/121
f 122/122/122 126/126/126 124/124/124
f 123/123/123 126/126/126 122/122/122
f 127/127/127 123/123/123 119/119/119
f 128/128/128 127/127/127 119/119/119
f 128/128/128 129/129/129 127/127/127
f 125/125/125 130/130/130 120/120/120
f 130/130/130 90/90/90 120/120/120
f 124/124/124 131/131/131 125/125/125
f 126/126/126 131/131/131 124/124/124
f 131/131/131 130/130/130 125/125/125
f 132/132/132 126/126/126 123/123/123
f 127/127/127 132/132/132 123/123/123
f 133/133/133 131/131/131 126/126/126
f 132/132/132 133/133/133 126/126/126
f 134/134/134 130/130/130 131/131/131
f 133/133/133 134/134/134 131/131/131
f 127/127/127 135/135/135 132/132/132
f 129/129/129 135/135/135 127/127/127
f 134/134/134 136/136/136 130/130/130
f 136/136/136 90/90/90 130/130/130
f 132/132/132 137/137/137 133/133/133
f 135/135/135 137/137/137 132/132/132
f 133/133/133 138/138/138 134/134/134
f 138/138/138 136/136/136 134/134/134
f 137/137/137 138/138/138 133/133/133
f 139/139/139 137/137/137 135/135/135
f 140/140/140 138/138/138 137/137/137
f 139/139/139 140/140/140 137/137/137
f 141/141/141 136/136/136 138/138/138
f 140/140/140 141/141/141 138/138/138
f 141/141/141 142/142/142 136/136/136
f 142/142/142 90/90/90 136/136/136
f 140/140/140 143/143/143 141/141/141
f 143/143/143 142/142/142 141/141/141
f 144/144/144 135/135/135 129/129/129
f 144/144/144 139/139/139 135/135/135
f 139/139/139 145/145/145 140/140/140
f 145/145/145 143/143/143 140/140/140
f 146/146/146 144/144/144 129/129/129
f 146/146/146 147/147/147 144/144/144
f 144/144/144 148/148/148 139/139/139
f 147/147/147 148/148/148 144/144/144
f 148/148/148 145/145/145 139/139/139
f 149/149/149 148/148/148 147/147/147
f 150/150/150 149/149/149 147/147/147
f 150/150/150 151/151/151 149/149/149
f 152/152/152 145/145/145 148/148/148
f 149/149/149 152/152/152 148/148/148
f 153/153/153 143/143/143 145/145/145
f 152/152/152 153/153/153 145/145/145
f 154/154/154 142/142/142 143/143/143
f 153/153/153 154/154/154 143/143/143
f 151/151/151 155/155/155 149/149/149
f 149/149/149 155/155/155 152/152/152
f 154/154/154 156/156/156 142/142/142
f 156/156/156 90/90/90 142/142/142
f 152/152/152 157/157/157 153/153/153
f 155/155/155 157/157/157 152/152/152
f 153/153/153 158/158/158 154/154/154
f 158/158/158 156/156/156 154/154/154
f 157/157/157 158/158/158 153/153/153
f 159/159/159 155/155/155 151/151/151
f 160/160/160 159/159/159 151/151/151
f 160/160/160 32/32/32 159/159/159
f 32/32/32 103/103/103 159/159/159
f 159/159/159 161/161/161 155/155/155
f 161/161/161 157/157/157 155/155/155
f 159/159/159 103/103/103 161/161/161
f 162/162/162 90/90/90 156/156/156
f 92/92/92 90/90/90 162/162/162
f 163/163/163 158/158/158 157/157/157
f 161/161/161 163/163/163 157/157/157
f 103/103/103 164/164/164 161/161/161
f 161/161/161 164/164/164 163/163/163
f 101/101/101 164/164/164 103/103/103
f 101/101/101 102/102/102 164/164/164
f 165/165/165 156/156/156 158/158/158
f 163/163/163 165/165/165 158/158/158
f 165/165/165 162/162/162 156/156/156
f 164/164/164 166/166/166 163/163/163
f 163/163/163 166/166/166 165/165/165
f 102/102/102 166/166/166 164/164/164
f 166/166/166 162/162/162 165/165/165
f 167/167/167 92/92/92 162/162/162
f 167/167/167 162/162/162 166/166/166
f 102/102/102 167/167/167 166/166/166
f 97/97/97 92/92/92 167/167/167
f 102/102/102 97/97/97 167/167/167
f 170/170/170 169/169/169 168/168/168
f 171/171/171 170/170/170 168/168/168
f 171/171/171 168/168/168 172/172/172
f 170/170/170 171/171/171 173/173/173
f 174/174/174 170/170/170 173/173/173
f 175/175/175 174/174/174 173/173/173
f 176/176/176 171/171/171 172/172/172
f 173/173/173 171/171/171 176/176/176
f 176/176/176 172/172/172 177/177/177
f 178/178/178 175/175/175 173/173/173
f 179/179/179 175/175/175 178/178/178
f 180/180/180 176/176/176 177/177/177
f 180/180/180 177/177/177 181/181/181
f 182/182/182 173/173/173 176/176/176
f 178/178/178 173/173/173 182/182/182
f 183/183/183 179/179/179 178/178/178
f 184/184/184 179/179/179 183/183/183
f 185/185/185 180/180/180 181/181/181
f 185/185/185 181/181/181 186/186/186
f 176/176/176 180/180/180 187/187/187
f 182/182/182 176/176/176 187/187/187
f 187/187/187 180/180/180 185/185/185
f 188/188/188 178/178/178 182/182/182
f 183/183/183 178/178/178 188/188/188
f 188/188/188 182/182/182 187/187/187
f 189/189/189 185/185/185 186/186/186
f 189/189/189 186/186/186 190/190/190
f 191/191/191 189/189/189 190/190/190
f 191/191/191 190/190/190 192/192/192
f 185/185/185 189/189/189 193/193/193
f 193/193/193 189/189/189 191/191/191
f 194/194/194 187/187/187 185/185/185
f 194/194/194 185/185/185 193/193/193
f 195/195/195 188/188/188 187/187/187
f 195/195/195 187/187/187 194/194/194
f 196/196/196 183/183/183 188/188/188
f 196/196/196 188/188/188 195/195/195
f 197/197/197 195/195/195 194/194/194
f 197/197/197 194/194/194 193/193/193
f 198/198/198 191/191/191 192/192/192
f 198/198/198 192/192/192 199/199/199
f 200/200/200 198/198/198 199/199/199
f 191/191/191 198/198/198 201/201/201
f 201/201/201 198/198/198 200/200/200
f 202/202/202 191/191/191 201/201/201
f 202/202/202 193/193/193 191/191/191
f 203/203/203 201/201/201 200/200/200
f 204/204/204 193/193/193 202/202/202
f 205/205/205 204/204/204 202/202/202
f 206/206/206 197/197/197 193/193/193
f 207/207/207 195/195/195 197/197/197
f 207/207/207 196/196/196 195/195/195
f 208/208/208 197/197/197 206/206/206
f 208/208/208 207/207/207 197/197/197
f 203/203/203 200/200/200 209/209/209
f 200/200/200 210/210/210 209/209/209
f 196/196/196 207/207/207 211/211/211
f 211/211/211 207/207/207 208/208/208
f 212/212/212 208/208/208 206/206/206
f 212/212/212 206/206/206 213/213/213
f 214/214/214 212/212/212 213/213/213
f 214/214/214 213/213/213 215/215/215
f 215/215/215 216/216/216 203/203/203
f 208/208/208 212/212/212 217/217/217
f 217/217/217 212/212/212 214/214/214
f 209/209/209 210/210/210 218/218/218
f 210/210/210 219/219/219 218/218/218
f 220/220/220 203/203/203 209/209/209
f 220/220/220 215/215/215 203/203/203
f 209/209/209 218/218/218 221/221/221
f 221/221/221 220/220/220 209/209/209
f 218/218/218 222/222/222 221/221/221
f 221/221/221 222/222/222 223/223/223
f 222/222/222 224/224/224 223/223/223
f 223/223/223 224/224/224 225/225/225
f 226/226/226 220/220/220 221/221/221
f 223/223/223 226/226/226 221/221/221
f 227/227/227 215/215/215 220/220/220
f 226/226/226 227/227/227 220/220/220
f 227/227/227 214/214/214 215/215/215
f 214/214/214 227/227/227 228/228/228
f 228/228/228 227/227/227 226/226/226
f 229/229/229 214/214/214 228/228/228
f 229/229/229 217/217/217 214/214/214
f 230/230/230 223/223/223 225/225/225
f 226/226/226 223/223/223 231/231/231
f 231/231/231 223/223/223 230/230/230
f 232/232/232 228/228/228 226/226/226
f 232/232/232 226/226/226 231/231/231
f 229/229/229 228/228/228 233/233/233
f 233/233/233 228/228/228 232/232/232
f 230/230/230 225/225/225 234/234/234
f 225/225/225 235/235/235 234/234/234
f 234/234/234 235/235/235 236/236/236
f 237/237/237 217/217/217 229/229/229
f 238/238/238 229/229/229 233/233/233
f 238/238/238 237/237/237 229/229/229
f 238/238/238 233/233/233 239/239/239
f 240/240/240 237/237/237 238/238/238
f 241/241/241 233/233/233 232/232/232
f 239/239/239 233/233/233 241/241/241
f 242/242/242 217/217/217 237/237/237
f 242/242/242 208/208/208 217/217/217
f 242/242/242 211/211/211 208/208/208
f 243/243/243 238/238/238 239/239/239
f 243/243/243 240/240/240 238/238/238
f 243/243/243 239/239/239 240/240/240
f 244/244/244 242/242/242 237/237/237
f 244/244/244 237/237/237 240/240/240
f 245/245/245 211/211/211 242/242/242
f 244/244/244 245/245/245 242/242/242
f 246/246/246 245/245/245 244/244/244
f 247/247/247 244/244/244 240/240/240
f 247/247/247 246/246/246 244/244/244
f 247/247/247 240/240/240 246/246/246
f 248/248/248 211/211/211 245/245/245
f 248/248/248 196/196/196 211/211/211
f 239/239/239 249/249/249 240/240/240
f 240/240/240 249/249/249 246/246/246
f 250/250/250 249/249/249 239/239/239
f 246/246/246 249/249/249 251/251/251
f 252/252/252 249/249/249 250/250/250
f 251/251/251 249/249/249 253/253/253
f 254/254/254 249/249/249 252/252/252
f 253/253/253 249/249/249 255/255/255
f 256/256/256 249/249/249 254/254/254
f 255/255/255 249/249/249 257/257/257
f 258/258/258 249/249/249 256/256/256
f 257/257/257 249/249/249 258/258/258
f 259/259/259 250/250/250 239/239/239
f 259/259/259 239/239/239 241/241/241
f 259/259/259 241/241/241 250/250/250
f 241/241/241 260/260/260 250/250/250
f 241/241/241 232/232/232 260/260/260
f 232/232/232 231/231/231 260/260/260
f 260/260/260 231/231/231 261/261/261
f 261/261/261 231/231/231 230/230/230
f 250/250/250 260/260/260 262/262/262
f 262/262/262 260/260/260 261/261/261
f 261/261/261 230/230/230 263/263/263
f 230/230/230 234/234/234 263/263/263
f 264/264/264 250/250/250 262/262/262
f 264/264/264 252/252/252 250/250/250
f 264/264/264 262/262/262 252/252/252
f 262/262/262 261/261/261 265/265/265
f 261/261/261 263/263/263 265/265/265
f 262/262/262 265/265/265 252/252/252
f 263/263/263 234/234/234 266/266/266
f 266/266/266 234/234/234 236/236/236
f 265/265/265 263/263/263 267/267/267
f 267/267/267 263/263/263 266/266/266
f 252/252/252 265/265/265 268/268/268
f 268/268/268 265/265/265 267/267/267
f 266/266/266 236/236/236 269/269/269
f 236/236/236 270/270/270 269/269/269
f 269/269/269 270/270/270 271/271/271
f 272/272/272 252/252/252 268/268/268
f 272/272/272 254/254/254 252/252/252
f 272/272/272 268/268/268 254/254/254
f 268/268/268 267/267/267 273/273/273
f 268/268/268 273/273/273 254/254/254
f 267/267/267 266/266/266 274/274/274
f 266/266/266 269/269/269 274/274/274
f 267/267/267 274/274/274 273/273/273
f 275/275/275 269/269/269 271/271/271
f 274/274/274 269/269/269 275/275/275
f 273/273/273 274/274/274 276/276/276
f 276/276/276 274/274/274 275/275/275
f 254/254/254 273/273/273 277/277/277
f 277/277/277 273/273/273 276/276/276
f 275/275/275 271/271/271 278/278/278
f 271/271/271 279/279/279 278/278/278
f 278/278/278 279/279/279 280/280/280
f 281/281/281 254/254/254 277/277/277
f 281/281/281 256/256/256 254/254/254
f 281/281/281 277/277/277 256/256/256
f 277/277/277 276/276/276 282/282/282
f 277/277/277 282/282/282 256/256/256
f 276/276/276 275/275/275 283/283/283
f 275/275/275 278/278/278 283/283/283
f 276/276/276 283/283/283 282/282/282
f 284/284/284 278/278/278 280/280/280
f 283/283/283 278/278/278 284/284/284
f 282/282/282 283/283/283 285/285/285
f 285/285/285 283/283/283 284/284/284
f 256/256/256 282/282/282 286/286/286
f 286/286/286 282/282/282 285/285/285
f 284/284/284 280/280/280 287/287/287
f 280/280/280 288/288/288 287/287/287
f 289/289/289 256/256/256 286/286/286
f 289/289/289 258/258/258 256/256/256
f 289/289/289 286/286/286 258/258/258
f 286/286/286 285/285/285 290/290/290
f 286/286/286 290/290/290 258/258/258
f 285/285/285 284/284/284 291/291/291
f 284/284/284 287/287/287 291/291/291
f 285/285/285 291/291/291 290/290/290
f 258/258/258 290/290/290 292/292/292
f 290/290/290 291/291/291 293/293/293
f 292/292/292 290/290/290 293/293/293
f 291/291/291 287/287/287 294/294/294
f 293/293/293 291/291/291 294/294/294
f 295/295/295 258/258/258 292/292/292
f 295/295/295 257/257/257 258/258/258
f 295/295/295 292/292/292 257/257/257
f 292/292/292 293/293/293 296/296/296
f 292/292/292 296/296/296 257/257/257
f 294/294/294 287/287/287 297/297/297
f 287/287/287 288/288/288 297/297/297
f 293/293/293 294/294/294 298/298/298
f 293/293/293 298/298/298 296/296/296
f 294/294/294 297/297/297 299/299/299
f 294/294/294 299/299/299 298/298/298
f 297/297/297 300/300/300 299/299/299
f 299/299/299 300/300/300 301/301/301
f 298/298/298 299/299/299 302/302/302
f 302/302/302 299/299/299 301/301/301
f 296/296/296 298/298/298 303/303/303
f 303/303/303 298/298/298 302/302/302
f 257/257/257 296/296/296 304/304/304
f 304/304/304 296/296/296 303/303/303
f 302/302/302 301/301/301 305/305/305
f 301/301/301 306/306/306 305/305/305
f 305/305/305 306/306/306 307/307/307
f 308/308/308 257/257/257 304/304/304
f 308/308/308 255/255/255 257/257/257
f 308/308/308 304/304/304 255/255/255
f 304/304/304 303/303/303 309/309/309
f 304/304/304 309/309/309 255/255/255
f 303/303/303 302/302/302 310/310/310
f 302/302/302 305/305/305 310/310/310
f 303/303/303 310/310/310 309/309/309
f 311/311/311 305/305/305 307/307/307
f 310/310/310 305/305/305 311/311/311
f 309/309/309 310/310/310 312/312/312
f 312/312/312 310/310/310 311/311/311
f 255/255/255 309/309/309 313/313/313
f 313/313/313 309/309/309 312/312/312
f 311/311/311 307/307/307 314/314/314
f 307/307/307 315/315/315 314/314/314
f 314/314/314 315/315/315 184/184/184
f 316/316/316 255/255/255 313/313/313
f 316/316/316 253/253/253 255/255/255
f 316/316/316 313/313/313 253/253/253
f 313/313/313 312/312/312 317/317/317
f 313/313/313 317/317/317 253/253/253
f 312/312/312 311/311/311 318/318/318
f 311/311/311 314/314/314 318/318/318
f 312/312/312 318/318/318 317/317/317
f 319/319/319 314/314/314 184/184/184
f 318/318/318 314/314/314 319/319/319
f 319/319/319 184/184/184 183/183/183
f 317/317/317 318/318/318 320/320/320
f 320/320/320 318/318/318 319/319/319
f 319/319/319 183/183/183 321/321/321
f 320/320/320 319/319/319 321/321/321
f 321/321/321 183/183/183 196/196/196
f 248/248/248 321/321/321 196/196/196
f 253/253/253 317/317/317 322/322/322
f 322/322/322 317/317/317 320/320/320
f 320/320/320 321/321/321 323/323/323
f 323/323/323 321/321/321 248/248/248
f 322/322/322 320/320/320 323/323/323
f 324/324/324 253/253/253 322/322/322
f 324/324/324 251/251/251 253/253/253
f 324/324/324 322/322/322 251/251/251
f 322/322/322 323/323/323 251/251/251
f 325/325/325 323/323/323 248/248/248
f 251/251/251 323/323/323 325/325/325
f 325/325/325 248/248/248 245/245/245
f 325/325/325 245/245/245 246/246/246
f 326/326/326 246/246/246 251/251/251
f 326/326/326 325/325/325 246/246/246
f 326/326/326 251/251/251 325/325/325
f 329/329/329 328/328/328 327/327/327
f 330/330/330 329/329/329 327/327/327
f 329/329/329 330/330/330 331/331/331
f 332/332/332 329/329/329 331/331/331
f 333/333/333 332/332/332 331/331/331
f 334/334/334 333/333/333 331/331/331
f 335/335/335 333/333/333 334/334/334
f 336/336/336 335/335/335 334/334/334
f 337/337/337 335/335/335 336/336/336
f 338/338/338 337/337/337 336/336/336
f 338/338/338 339/339/339 337/337/337
f 339/339/339 340/340/340 337/337/337
f 341/341/341 340/340/340 339/339/339
f 342/342/342 341/341/341 339/339/339
f 342/342/342 343/343/343 341/341/341
f 343/343/343 344/344/344 341/341/341
f 345/345/345 344/344/344 343/343/343
f 346/346/346 345/345/345 343/343/343
f 346/346/346 347/347/347 345/345/345
f 347/347/347 348/348/348 345/345/345
f 349/349/349 348/348/348 347/347/347
f 350/350/350 349/349/349 347/347/347
f 350/350/350 288/288/288 349/349/349
f 288/288/288 129/129/129 349/349/349
f 351/351/351 129/129/129 288/288/288
f 352/352/352 351/351/351 288/288/288
f 352/352/352 353/353/353 351/351/351
f 353/353/353 354/354/354 351/351/351
f 355/355/355 354/354/354 353/353/353
f 356/356/356 355/355/355 353/353/353
f 356/356/356 357/357/357 355/355/355
f 357/357/357 358/358/358 355/355/355
f 359/359/359 358/358/358 357/357/357
f 360/360/360 359/359/359 357/357/357
f 360/360/360 361/361/361 359/359/359
f 361/361/361 362/362/362 359/359/359
f 363/363/363 362/362/362 361/361/361
f 364/364/364 363/363/363 361/361/361
f 364/364/364 365/365/365 363/363/363
f 365/365/365 366/366/366 363/363/363
f 367/367/367 366/366/366 365/365/365
f 368/368/368 367/367/367 365/365/365
f 371/371/371 370/370/370 369/369/369
f 372/372/372 371/371/371 369/369/369
f 372/372/372 369/369/369 373/373/373
f 369/369/369 374/374/374 373/373/373
f 205/205/205 376/376/376 375/375/375
f 215/215/215 205/205/205 375/375/375
f 379/379/379 378/378/378 377/377/377
f 380/380/380 379/379/379 377/377/377
f 380/380/380 377/377/377 381/381/381
f 382/382/382 380/380/380 381/381/381
f 382/382/382 381/381/381 383/383/383
f 379/379/379 384/384/384 378/378/378
f 384/384/384 385/385/385 378/378/378
f 385/385/385 384/384/384 386/386/386
f 386/386/386 384/384/384 379/379/379
f 387/387/387 385/385/385 386/386/386
f 379/379/379 380/380/380 388/388/388
f 388/388/388 380/380/380 382/382/382
f 387/387/387 386/386/386 389/389/389
f 390/390/390 387/387/387 389/389/389
f 391/391/391 386/386/386 379/379/379
f 391/391/391 379/379/379 388/388/388
f 389/389/389 386/386/386 391/391/391
f 390/390/390 389/389/389 392/392/392
f 393/393/393 390/390/390 392/392/392
f 394/394/394 389/389/389 391/391/391
f 392/392/392 389/389/389 394/394/394
f 393/393/393 392/392/392 395/395/395
f 395/395/395 392/392/392 394/394/394
f 396/396/396 393/393/393 395/395/395
f 396/396/396 395/395/395 397/397/397
f 395/395/395 394/394/394 397/397/397
f 398/398/398 396/396/396 397/397/397
f 394/394/394 391/391/391 399/399/399
f 391/391/391 388/388/388 399/399/399
f 394/394/394 399/399/399 397/397/397
f 398/398/398 397/397/397 400/400/400
f 401/401/401 398/398/398 400/400/400
f 399/399/399 388/388/388 402/402/402
f 402/402/402 388/388/388 382/382/382
f 397/397/397 399/399/399 403/403/403
f 400/400/400 397/397/397 403/403/403
f 403/403/403 399/399/399 402/402/402
f 401/401/401 400/400/400 404/404/404
f 400/400/400 403/403/403 404/404/404
f 405/405/405 401/401/401 404/404/404
f 403/403/403 402/402/402 406/406/406
f 403/403/403 406/406/406 404/404/404
f 402/402/402 382/382/382 407/407/407
f 402/402/402 407/407/407 406/406/406
f 405/405/405 404/404/404 408/408/408
f 409/409/409 405/405/405 408/408/408
f 404/404/404 406/406/406 410/410/410
f 408/408/408 404/404/404 410/410/410
f 409/409/409 408/408/408 411/411/411
f 408/408/408 410/410/410 411/411/411
f 412/412/412 409/409/409 411/411/411
f 410/410/410 406/406/406 413/413/413
f 406/406/406 407/407/407 413/413/413
f 382/382/382 414/414/414 407/407/407
f 414/414/414 382/382/382 383/383/383
f 414/414/414 383/383/383 415/415/415
f 407/407/407 414/414/414 416/416/416
f 416/416/416 414/414/414 415/415/415
f 413/413/413 407/407/407 416/416/416
f 416/416/416 415/415/415 417/417/417
f 410/410/410 413/413/413 418/418/418
f 410/410/410 418/418/418 411/411/411
f 412/412/412 411/411/411 419/419/419
f 420/420/420 412/412/412 419/419/419
f 421/421/421 416/416/416 417/417/417
f 417/417/417 422/422/422 421/421/421
f 413/413/413 416/416/416 423/423/423
f 416/416/416 421/421/421 423/423/423
f 413/413/413 423/423/423 418/418/418
f 422/422/422 424/424/424 421/421/421
f 423/423/423 421/421/421 424/424/424
f 422/422/422 425/425/425 424/424/424
f 411/411/411 418/418/418 426/426/426
f 419/419/419 411/411/411 426/426/426
f 420/420/420 419/419/419 427/427/427
f 419/419/419 426/426/426 427/427/427
f 428/428/428 420/420/420 427/427/427
f 418/418/418 423/423/423 429/429/429
f 426/426/426 418/418/418 429/429/429
f 429/429/429 423/423/423 424/424/424
f 426/426/426 430/430/430 427/427/427
f 427/427/427 430/430/430 428/428/428
f 426/426/426 429/429/429 430/430/430
f 430/430/430 431/431/431 428/428/428
f 429/429/429 432/432/432 430/430/430
f 430/430/430 432/432/432 431/431/431
f 429/429/429 424/424/424 432/432/432
f 432/432/432 433/433/433 431/431/431
f 425/425/425 434/434/434 424/424/424
f 434/434/434 425/425/425 433/433/433
f 424/424/424 434/434/434 432/432/432
f 432/432/432 434/434/434 433/433/433
