g Seat_16
v 0.3248309 -0.01260967 -1.016373
v 0.3172888 0.04518574 -1.018639
v 0.3227117 0.04160664 -1.027363
v 0.3298748 -0.02014873 -1.024599
v 0.3316457 -0.01371318 -0.9310499
v 0.3360332 -0.02085308 -0.9310419
v 0.3343119 -0.01966655 -0.4093513
v 0.3392043 -0.02629985 -0.4093403
v 0.322932 -0.0170042 -0.2878291
v 0.3287433 -0.02447978 -0.2795777
v 0.3162712 0.04244038 -0.2910896
v 0.322932 -0.0170042 -0.2878291
v 0.3287433 -0.02447978 -0.2795777
v 0.3217137 0.03884785 -0.2822395
v 0.2996944 0.1230153 -0.2942427
v 0.3406301 -0.03520244 -0.268274
v 0.3392043 -0.02629985 -0.4093403
v 0.3609656 -0.04151103 -0.4093
v 0.3653768 -0.0508543 -0.4092903
v 0.345621 -0.04646465 -0.2571803
v 0.3629241 -0.06481792 -0.4092964
v 0.3401345 -0.05930522 -0.2456983
v 0.3347716 0.03619649 -0.2669258
v 0.3037958 0.1249526 -0.2858588
v 0.2576756 0.1977309 -0.2947437
v 0.3403055 0.0305312 -0.2549336
v 0.318714 0.1320888 -0.268133
v 0.261395 0.2005983 -0.2862464
v 0.1949281 0.2584462 -0.294004
v 0.3196538 -0.1433506 -0.2516352
v 0.3376521 -0.149387 -0.4093415
v 0.2965912 -0.2259739 -0.4094154
v 0.1979747 0.2619216 -0.2856233
v 0.1219571 0.3026601 -0.2943269
v 0.1239795 0.306111 -0.2863239
v 0.03771716 0.320414 -0.2929853
v 0.2089465 0.2742018 -0.2682856
v 0.2751227 0.2104116 -0.2681867
v 0.3235639 0.1345131 -0.2568543
v 0.3448873 0.04092183 -0.2429762
v 0.2796439 0.2136513 -0.2569056
v 0.3216425 0.133871 -0.2445747
v 0.03853289 0.3237831 -0.2854286
v -0.0421124 0.3147463 -0.2894441
v -0.04710615 0.3184828 -0.2813142
v -0.09966122 0.3060707 -0.2849995
v 0.04317736 0.3411428 -0.2682856
v 0.1319976 0.322173 -0.2683424
v 0.2127126 0.2782192 -0.2570356
v 0.3014224 0.03943135 -0.1540754
v -0.1085441 0.3097878 -0.2773322
v -0.1067375 0.3163784 -0.4101686
v -0.1142421 0.3193044 -0.4101814
v -0.1335615 0.3359377 -0.4102168
v -0.1222303 0.3185024 -0.2678254
v 0.2784331 0.2123989 -0.2445765
v 0.1348374 0.3273891 -0.2570979
v -0.052637 0.3311025 -0.2670539
v -0.1350581 0.3204604 -0.2575843
v -0.1440419 0.3382412 -0.4102363
v -0.1465071 0.3115444 -0.2461592
v -0.1568827 0.3324904 -0.4102601
v 0.2116603 0.2765126 -0.2447425
v 0.2411813 0.1844277 -0.1541889
v 0.04495257 0.3468447 -0.2571931
v -0.05965711 0.3351808 -0.2554823
v 0.1342751 0.3259218 -0.24469
v -0.05095395 0.3422658 -0.2433735
v 0.04508669 0.3449575 -0.2448249
v 0.1165807 0.2825331 -0.1544215
v -0.0409741 0.300569 -0.1547102
v 0.1836858 0.2401125 -0.1542964
v 0.03905932 0.2996437 -0.1545619
v 0.08498095 0.2061208 -0.07208383
v 0.1758814 0.1345498 -0.07191355
v 0.1339369 0.1751735 -0.07199167
v 0.2791741 0.1162404 -0.1541187
v -0.02996549 0.2192812 -0.07229685
v 0.02842394 0.2186037 -0.07218882
v 0.04513491 0.1095693 -0.01885019
v -0.1159584 0.2788845 -0.1548481
v 0.2035979 0.08480488 -0.07186227
v 0.2198313 0.02876606 -0.07183115
v 0.09345599 0.07152119 -0.01876169
v 0.0711574 0.09311543 -0.01880442
v 0.01507311 0.1162075 -0.01890329
v -0.01596708 0.1165664 -0.01896128
v 0.1081923 0.04507954 -0.01873179
v -0.08467053 0.2034633 -0.07239694
v -2.799217E-07 -1.025683E-06 -1.317549E-06
v -0.04504697 0.1081557 -0.01901438
v 0.116245 -0.01504253 -0.01871836
v -0.09308285 0.07112324 -0.0191041
v 0.1168239 0.0152895 -0.01871653
v -0.07214246 0.0930727 -0.01906443
v -0.1356486 0.1750905 -0.07248788
v 0.2187453 -0.02829326 -0.07183176
v -0.1750438 0.1338015 -0.07255808
v -0.1858317 0.2399953 -0.1549763
v 0.2999319 -0.03877788 -0.1540766
v 0.2793552 -0.1148765 -0.1541114
v 0.2037334 -0.08381207 -0.071858
v 0.2822029 -0.2151951 -0.2575397
v -0.2398304 0.1833986 -0.1550739
v -0.2240297 0.2710231 -0.2526081
v -0.2341029 0.2870986 -0.4104005
v -0.2950795 0.2259535 -0.4105104
v -0.2812495 0.2151772 -0.2585847
v -0.3297663 0.1350624 -0.2598506
v -0.3458995 0.1416311 -0.4106031
v -0.3684309 0.04776387 -0.4106422
v -0.2808592 0.1147475 -0.1551454
v -0.2049775 0.08371601 -0.07261362
v -0.3511024 0.04548725 -0.2587116
v -0.1089973 0.04450215 -0.01913096
v -0.2993623 0.03876973 -0.1551783
v -0.3524458 -0.04835674 -0.2585078
v -0.3698725 -0.05077373 -0.4106428
v -0.3428559 -0.1432298 -0.4105915
v -0.1161769 0.01503926 -0.01914316
v -0.2184767 0.02828633 -0.07263742
v -0.3005763 -0.04119731 -0.1551795
v -0.3267433 -0.1363975 -0.2586622
v -0.2193629 -0.03005351 -0.07263742
v -0.1166468 -0.01597393 -0.01914438
v -0.2786033 -0.1162486 -0.1551386
v -0.2810759 -0.2183665 -0.2586128
v -0.2948951 -0.229304 -0.4105012
v -0.2252101 -0.295847 -0.4103718
v -0.1081227 -0.04508159 -0.01912912
v -0.2033314 -0.08480938 -0.07260507
v -0.2396702 -0.1861119 -0.155066
v -0.1749281 -0.1357762 -0.0725532
v -0.0930232 -0.07217266 -0.01909922
v -0.2147114 -0.281732 -0.2584516
v -0.07108976 -0.09311993 -0.0190571
v -0.183116 -0.2401231 -0.1549616
v -0.1336696 -0.1751792 -0.07247629
v -0.11447 -0.2811558 -0.1548347
v -0.08358701 -0.205117 -0.07238352
v -0.04446836 -0.109033 -0.01900828
v -0.01500348 -0.1162083 -0.01895578
v -0.02815366 -0.2186119 -0.0722822
v -0.1341673 -0.3298753 -0.2582966
v -0.03848935 -0.2996531 -0.1546937
v -0.1406325 -0.3464012 -0.4102168
v -0.04701871 -0.3691929 -0.4100434
v -0.04502149 -0.3515782 -0.2581404
v 0.04880572 -0.3530039 -0.2579682
v 0.05150652 -0.3706907 -0.4098622
v 0.1439756 -0.3436229 -0.4096925
v 0.04147677 -0.3008665 -0.1545472
v 0.03018542 -0.2194969 -0.07217417
v 0.01601061 -0.1166795 -0.01889841
v 0.136865 -0.3272264 -0.2578053
v 0.04511813 -0.1081602 -0.01884653
v 0.1165277 -0.2788963 -0.1544087
v 0.08493838 -0.203469 -0.07207468
v 0.2193653 -0.2817124 -0.2587849
v 0.2300473 -0.2956529 -0.4095356
v 0.1863873 -0.2399607 -0.1542811
v 0.09315478 -0.07112651 -0.01875803
v 0.1359059 -0.1750645 -0.07198252
v 0.2403978 -0.1834043 -0.1541822
v 0.07220919 -0.09306133 -0.01879526
v 0.1753102 -0.1338047 -0.07190988
v 0.1082643 -0.04455425 -0.01873179
v -0.09122647 0.3088857 -1.015799
v -0.09419446 0.313572 -0.931839
v -0.1024208 0.3156777 -0.9318549
v -0.100068 0.311476 -1.02386
v -0.03473874 0.3159523 -1.020608
v -0.1214625 0.3212587 -1.043052
v -0.1319773 0.3387172 -0.9319093
v -0.1425642 0.3393752 -0.9319293
v -0.03980481 0.3218715 -1.028762
v 0.04566988 0.3204994 -1.026361
v -0.1335115 0.3217812 -1.054529
v -0.1548469 0.3333083 -0.9319519
v 0.04613787 0.3288674 -1.033524
v 0.1278964 0.3013088 -1.025146
v -0.05043348 0.3318398 -1.044774
v -0.1439601 0.31308 -1.065699
v -0.232425 0.2870424 -0.9320936
v 0.129706 0.3083315 -1.03267
v 0.1989859 0.2566396 -1.021674
v 0.0468027 0.3404995 -1.044216
v -0.05767881 0.3353774 -1.056778
v 0.201955 0.2607118 -1.029841
v 0.2594966 0.197394 -1.021525
v 0.2634534 0.2002236 -1.029788
v 0.3004659 0.1249868 -1.02151
v 0.2107353 0.2728615 -1.043858
v 0.1347135 0.3207338 -1.044164
v 0.04702441 0.3466262 -1.055236
v -0.04895002 0.342925 -1.069084
v 0.1366397 0.3268886 -1.055148
v 0.3051662 0.1268557 -1.029693
v 0.3172888 0.04518574 -1.018639
v 0.3227117 0.04160664 -1.027363
v 0.3190149 0.1323452 -1.043638
v 0.2757387 0.2096853 -1.043867
v 0.3360392 0.03643452 -1.043907
v 0.2142253 0.2777712 -1.0549
v 0.2807849 0.213384 -1.054848
v 0.2142253 0.2777712 -1.0549
v 0.04659609 0.3448952 -1.067631
v 0.1357595 0.3257094 -1.067637
v 0.3437639 -0.03505718 -1.04176
v 0.3298748 -0.02014873 -1.024599
v 0.04090182 0.299623 -1.15782
v 0.213084 0.2763857 -1.067288
v 0.2807849 0.213384 -1.054848
v 0.2797553 0.2122927 -1.067289
v 0.3246352 0.1345351 -1.054682
v 0.3190149 0.1323452 -1.043638
v 0.185533 0.2400881 -1.15755
v 0.3631932 -0.04046977 -0.9309919
v 0.3360332 -0.02085308 -0.9310419
v 0.3415174 0.03075947 -1.056086
v 0.3478409 -0.04619854 -1.053536
v 0.3668616 -0.05028545 -0.930987
v 0.3423541 -0.05849468 -1.064862
v 0.3642304 -0.06399028 -0.9309894
v 0.3385856 -0.1489549 -0.9310352
v 0.3465578 0.04127339 -1.068326
v 0.3230159 0.1337978 -1.067055
v 0.2810164 0.1162209 -1.157371
v 0.2430252 0.1844057 -1.157443
v 0.3215891 -0.1429991 -1.059426
v 0.3017769 -0.03879985 -1.157333
v 0.3032671 0.03941059 -1.157331
v 0.2057445 0.08478046 -1.239906
v 0.2836635 -0.2152085 -1.053926
v 0.2975487 -0.2259849 -0.9311091
v 0.2310047 -0.2956639 -0.9312299
v 0.1360802 0.1751516 -1.240035
v 0.1780268 0.1345278 -1.239957
v 0.1105338 0.04505268 -1.293386
v 0.07350206 0.09309101 -1.293453
v 0.2219766 0.02874409 -1.239874
v 0.1184268 0.28251 -1.157675
v 0.09579959 0.07149678 -1.293413
v 0.08712405 0.2061 -1.240125
v 0.03056643 0.2185842 -1.240231
v 0.01741519 0.1161782 -1.293558
v 0.04747942 0.1095424 -1.293501
v -0.03913037 0.3005483 -1.157965
v 0.002411372 -2.666045E-05 -1.312512
v 0.1185828 -0.0150645 -1.293369
v -0.04270429 0.1081276 -1.293668
v 0.09549624 -0.07115337 -1.293411
v -0.09074262 0.0710976 -1.293754
v 0.04746142 -0.1081883 -1.293499
v -0.1138313 0.01501118 -1.293795
v -0.01265928 -0.1162339 -1.293607
v -0.1057794 -0.04510844 -1.293779
v -0.06874906 -0.09314556 -1.293712
v 0.1191619 0.01526509 -1.293369
v 0.2208887 -0.02831279 -1.239875
v 0.2812007 -0.1148985 -1.157369
v 0.2058777 -0.08383282 -1.239902
v 0.2422411 -0.1834263 -1.157438
v 0.1106023 -0.04457622 -1.293382
v 0.1774558 -0.1338291 -1.239954
v 0.2207839 -0.2817173 -1.052985
v 0.18823 -0.2399803 -1.157536
v 0.1380522 -0.1750877 -1.240025
v 0.1383249 -0.327241 -1.054193
v 0.1449335 -0.3436338 -0.9313874
v 0.05246584 -0.3707041 -0.9315571
v 0.07455157 -0.09308574 -1.293447
v 0.0870859 -0.2034922 -1.240118
v 0.1183707 -0.2789146 -1.157664
v 0.05026858 -0.3530211 -1.054354
v 0.04332156 -0.300886 -1.157802
v 0.03233401 -0.2195213 -1.240217
v -0.04355527 -0.3516001 -1.054527
v -0.04606031 -0.3692051 -0.9317365
v -0.1396733 -0.3464122 -0.9319093
v 0.01835421 -0.1167063 -1.293552
v -0.02600553 -0.2186387 -1.240324
v -0.0366435 -0.2996739 -1.157949
v -0.1327034 -0.3298948 -1.054697
v -0.1126259 -0.2811766 -1.15809
v -0.08144101 -0.2051426 -1.240425
v -0.213249 -0.2817478 -1.054839
v -0.22425 -0.2958592 -0.9320661
v -0.04212674 -0.1090599 -1.29366
v -0.1315248 -0.1752049 -1.240519
v -0.1812727 -0.2401426 -1.158217
v -0.1727852 -0.1357994 -1.240596
v -0.2378258 -0.1861314 -1.158323
v -0.2796119 -0.2183812 -1.054931
v -0.09068158 -0.07220073 -1.293752
v -0.20119 -0.08482891 -1.240649
v -0.2939381 -0.2293174 -0.9321961
v -0.2767591 -0.1162706 -1.158395
v -0.3252797 -0.1364122 -1.05505
v -0.3418971 -0.1432396 -0.9322846
v -0.3688996 -0.0507896 -0.9323365
v -0.350987 -0.04837139 -1.055285
v -0.2987339 -0.04121806 -1.158436
v -0.2172175 -0.03007671 -1.240681
v -0.3496351 0.04547017 -1.055098
v -0.3674745 0.04775166 -0.9323359
v -0.3450178 0.141697 -0.9322968
v -0.1143019 -0.016002 -1.293796
v -0.2163301 0.02826313 -1.240678
v -0.2975215 0.03875019 -1.158434
v -0.3282719 0.1350038 -1.053989
v -0.2790178 0.114728 -1.158404
v -0.2028297 0.08369038 -1.240656
v -0.279785 0.2151625 -1.054971
v -0.2941261 0.2259462 -0.9322053
v -0.1066554 0.04447407 -1.293784
v -0.1728969 0.1337734 -1.240603
v -0.2379872 0.1833779 -1.158331
v -0.2221095 0.2718141 -1.060269
v -0.1839872 0.2399745 -1.158229
v -0.1141133 0.2788649 -1.1581
v -0.1335035 0.1750661 -1.240532
v -0.08252835 0.2034389 -1.240439
v -0.06980252 0.09304585 -1.293718
v -0.0278227 0.2192592 -1.240339
v -0.01362333 0.1165371 -1.293614
v -0.09419446 0.313572 -0.931839
v -0.1067375 0.3163784 -0.4101686
v -0.1142421 0.3193044 -0.4101814
v -0.1024208 0.3156777 -0.9318549
v -0.1319773 0.3387172 -0.9319093
v -0.1335615 0.3359377 -0.4102168
v -0.1440419 0.3382412 -0.4102363
v -0.1425642 0.3393752 -0.9319293
v -0.1568827 0.3324904 -0.4102601
v -0.1548469 0.3333083 -0.9319519
v -0.2341029 0.2870986 -0.4104005
v -0.232425 0.2870424 -0.9320936
v -0.2941261 0.2259462 -0.9322053
v -0.2950795 0.2259535 -0.4105104
v -0.3458995 0.1416311 -0.4106031
v -0.3450178 0.141697 -0.9322968
v -0.3674745 0.04775166 -0.9323359
v -0.3684309 0.04776387 -0.4106422
v -0.3698725 -0.05077373 -0.4106428
v -0.3688996 -0.0507896 -0.9323365
v -0.3418971 -0.1432396 -0.9322846
v -0.3428559 -0.1432298 -0.4105915
v -0.2948951 -0.229304 -0.4105012
v -0.2939381 -0.2293174 -0.9321961
v -0.1406325 -0.3464012 -0.4102168
v -0.1396733 -0.3464122 -0.9319093
v -0.04606031 -0.3692051 -0.9317365
v -0.04701871 -0.3691929 -0.4100434
v 0.05150652 -0.3706907 -0.4098622
v 0.05246584 -0.3707041 -0.9315571
v 0.1449335 -0.3436338 -0.9313874
v 0.1439756 -0.3436229 -0.4096925
v 0.2300473 -0.2956529 -0.4095356
v 0.2310047 -0.2956639 -0.9312299
v 0.2975487 -0.2259849 -0.9311091
v 0.2965912 -0.2259739 -0.4094154
v 0.3376521 -0.149387 -0.4093415
v 0.3385856 -0.1489549 -0.9310352
v 0.3642304 -0.06399028 -0.9309894
v 0.3629241 -0.06481792 -0.4092964
v 0.3653768 -0.0508543 -0.4092903
v 0.3668616 -0.05028545 -0.930987
v 0.3609656 -0.04151103 -0.4093
v 0.3392043 -0.02629985 -0.4093403
v 0.3360332 -0.02085308 -0.9310419
v 0.3631932 -0.04046977 -0.9309919
v 0.3668616 -0.05028545 -0.930987
v 0.3653768 -0.0508543 -0.4092903
v 0.3190149 0.1323452 -1.043638
v 0.2757387 0.2096853 -1.043867
v 0.03771716 0.320414 -0.2929853
v -0.0421124 0.3147463 -0.2894441
v -0.02460721 0.315707 -0.3002869
v 0.03819003 0.3213051 -0.3036573
v 0.1219571 0.3026601 -0.2943269
v 0.1222499 0.3032949 -0.3045313
v 0.1949281 0.2584462 -0.294004
v -0.0912457 0.3061782 -0.2950727
v -0.09966122 0.3060707 -0.2849995
v -0.09640469 0.3163698 -0.4101484
v -0.1067375 0.3163784 -0.4101686
v 0.04456972 0.3385903 -0.4098909
v -0.08422513 0.3137551 -0.9318208
v -0.09419446 0.313572 -0.931839
v -0.02563428 0.3301149 -0.4100184
v -0.08190518 0.308926 -1.007061
v -0.09122647 0.3088857 -1.015799
v -0.01691877 0.3315859 -0.9316968
v -0.01631223 0.3154006 -1.013708
v -0.03473874 0.3159523 -1.020608
v 0.04547518 0.3184597 -1.018107
v 0.04566988 0.3204994 -1.026361
v 0.04552554 0.3385829 -0.9315839
v 0.1277182 0.3000539 -1.01639
v 0.1278964 0.3013088 -1.025146
v 0.132119 0.3196096 -0.4097273
v 0.1330887 0.3195253 -0.9314234
v 0.1988645 0.2565493 -1.012149
v 0.1989859 0.2566396 -1.021674
v 0.2089603 0.27131 -0.9312818
v 0.2079993 0.2713198 -0.4095875
v 0.2595246 0.1974794 -1.01183
v 0.2594966 0.197394 -1.021525
v 0.2742148 0.2083925 -0.9311603
v 0.3003183 0.1249135 -1.011983
v 0.3004659 0.1249868 -1.02151
v 0.2732938 0.2083998 -0.4094667
v 0.1950969 0.258467 -0.3035017
v 0.2576756 0.1977309 -0.2947437
v 0.2578676 0.1977285 -0.3041108
v 0.2996944 0.1230153 -0.2942427
v 0.3168616 0.1313344 -0.931081
v 0.3128169 0.06310567 -1.009963
v 0.3172888 0.04518574 -1.018639
v 0.2998177 0.1231386 -0.3037397
v 0.3162712 0.04244038 -0.2910896
v 0.3159017 0.131343 -0.4093867
v 0.3119188 0.05988057 -0.3014845
v 0.322932 -0.0170042 -0.2878291
v 0.3270375 0.06657612 -0.9310603
v 0.3223876 -0.003725391 -1.007471
v 0.3248309 -0.01260967 -1.016373
v 0.3263753 0.06187275 -0.4093672
v 0.3290927 -0.003928028 -0.9310548
v 0.3316457 -0.01371318 -0.9310499
v 0.3315369 -0.009776416 -0.4093556
v 0.3343119 -0.01966655 -0.4093513
v 0.3206847 -0.008578907 -0.2977631
vt 0.1473389 0.9785156
vt 0.1470947 0.9780273
vt 0.1469727 0.9780273
vt 0.1472168 0.9790039
vt 0.1485596 0.9785156
vt 0.1485596 0.9785156
vt 0.1557617 0.9765625
vt 0.1558838 0.9765625
vt 0.1575928 0.9760742
vt 0.1577148 0.9760742
vt 0.1518555 0.9750977
vt 0.1523438 0.9746094
vt 0.1523438 0.9746094
vt 0.1518555 0.9750977
vt 0.1514893 0.9755859
vt 0.1523438 0.9746094
vt 0.15271 0.9750977
vt 0.15271 0.9750977
vt 0.15271 0.9750977
vt 0.1523438 0.9746094
vt 0.152832 0.9750977
vt 0.1522217 0.9746094
vt 0.1518555 0.9750977
vt 0.1514893 0.9755859
vt 0.151001 0.9755859
vt 0.1518555 0.9750977
vt 0.1514893 0.9755859
vt 0.151001 0.9755859
vt 0.1503906 0.9760742
vt 0.1524658 0.9741211
vt 0.1529541 0.9746094
vt 0.1530762 0.9736328
vt 0.1503906 0.9760742
vt 0.1499023 0.9755859
vt 0.1499023 0.9755859
vt 0.149292 0.9755859
vt 0.1503906 0.9760742
vt 0.151001 0.9755859
vt 0.1514893 0.9755859
vt 0.1518555 0.9750977
vt 0.151001 0.9755859
vt 0.1514893 0.9755859
vt 0.149292 0.9755859
vt 0.1489258 0.9750977
vt 0.1489258 0.9750977
vt 0.1485596 0.9746094
vt 0.149292 0.9755859
vt 0.1499023 0.9755859
vt 0.1503906 0.9760742
vt 0.1514893 0.9750977
vt 0.1485596 0.9746094
vt 0.1480713 0.9750977
vt 0.1480713 0.9750977
vt 0.1480713 0.9750977
vt 0.1485596 0.9746094
vt 0.151001 0.9755859
vt 0.1499023 0.9755859
vt 0.1489258 0.9750977
vt 0.1485596 0.9746094
vt 0.1480713 0.9750977
vt 0.1485596 0.9746094
vt 0.1480713 0.9750977
vt 0.1503906 0.9760742
vt 0.1508789 0.9750977
vt 0.149292 0.9755859
vt 0.1489258 0.9750977
vt 0.1499023 0.9755859
vt 0.1489258 0.9750977
vt 0.1494141 0.9755859
vt 0.1500244 0.9750977
vt 0.149292 0.9750977
vt 0.1503906 0.9755859
vt 0.1496582 0.9750977
vt 0.1501465 0.9746094
vt 0.1506348 0.9746094
vt 0.1503906 0.9746094
vt 0.1512451 0.9750977
vt 0.1496582 0.9746094
vt 0.1499023 0.9746094
vt 0.1502686 0.9741211
vt 0.1490479 0.9746094
vt 0.151001 0.9746094
vt 0.151123 0.9746094
vt 0.1505127 0.9741211
vt 0.1503906 0.9741211
vt 0.1501465 0.9741211
vt 0.1500244 0.9741211
vt 0.1506348 0.9741211
vt 0.1495361 0.9741211
vt 0.1503906 0.9736328
vt 0.1499023 0.9741211
vt 0.1508789 0.9741211
vt 0.1499023 0.9736328
vt 0.1507568 0.9741211
vt 0.1499023 0.9741211
vt 0.1494141 0.9741211
vt 0.1513672 0.9741211
vt 0.149292 0.9736328
vt 0.1489258 0.9741211
vt 0.1518555 0.9746094
vt 0.1519775 0.9741211
vt 0.1514893 0.9741211
vt 0.1525879 0.9736328
vt 0.1488037 0.9736328
vt 0.1484375 0.9741211
vt 0.1478271 0.9746094
vt 0.1477051 0.9736328
vt 0.1483154 0.9736328
vt 0.1484375 0.9731445
vt 0.1479492 0.9731445
vt 0.1480713 0.9726563
vt 0.1489258 0.9731445
vt 0.1494141 0.9736328
vt 0.1485596 0.9726563
vt 0.1499023 0.9736328
vt 0.1490479 0.9731445
vt 0.1489258 0.972168
vt 0.1485596 0.972168
vt 0.1490479 0.9711914
vt 0.1499023 0.9736328
vt 0.1495361 0.9731445
vt 0.149292 0.9726563
vt 0.149292 0.9716797
vt 0.1496582 0.9731445
vt 0.1500244 0.9736328
vt 0.1496582 0.972168
vt 0.1499023 0.9716797
vt 0.1497803 0.9711914
vt 0.151123 0.9711914
vt 0.1501465 0.9731445
vt 0.1499023 0.9726563
vt 0.1500244 0.972168
vt 0.1501465 0.9726563
vt 0.1502686 0.9731445
vt 0.1503906 0.9716797
vt 0.1503906 0.9731445
vt 0.1503906 0.972168
vt 0.1503906 0.9726563
vt 0.1508789 0.972168
vt 0.1506348 0.9726563
vt 0.1505127 0.9731445
vt 0.1506348 0.9731445
vt 0.151001 0.9726563
vt 0.151001 0.9716797
vt 0.1512451 0.972168
vt 0.151123 0.9711914
vt 0.1517334 0.9711914
vt 0.1514893 0.9716797
vt 0.1518555 0.972168
vt 0.1522217 0.972168
vt 0.15271 0.9726563
vt 0.1514893 0.9726563
vt 0.151123 0.9731445
vt 0.1507568 0.9736328
vt 0.1523438 0.9726563
vt 0.1508789 0.9736328
vt 0.1518555 0.9731445
vt 0.1513672 0.9731445
vt 0.1524658 0.9731445
vt 0.1529541 0.9731445
vt 0.1519775 0.9731445
vt 0.151001 0.9736328
vt 0.1514893 0.9736328
vt 0.1520996 0.9736328
vt 0.1508789 0.9736328
vt 0.1514893 0.9736328
vt 0.1508789 0.9741211
vt 0.1485596 0.9609375
vt 0.1480713 0.9604492
vt 0.1480713 0.9604492
vt 0.1485596 0.9609375
vt 0.1489258 0.9604492
vt 0.1485596 0.9609375
vt 0.1480713 0.9604492
vt 0.1480713 0.9604492
vt 0.1489258 0.9604492
vt 0.149292 0.9599609
vt 0.1485596 0.9609375
vt 0.1480713 0.9604492
vt 0.149292 0.9599609
vt 0.1499023 0.9599609
vt 0.1489258 0.9604492
vt 0.1485596 0.9609375
vt 0.1478271 0.9614258
vt 0.1499023 0.9599609
vt 0.1503906 0.9599609
vt 0.149292 0.9599609
vt 0.1489258 0.9604492
vt 0.1503906 0.9599609
vt 0.151001 0.9599609
vt 0.151001 0.9599609
vt 0.1514893 0.9599609
vt 0.1503906 0.9599609
vt 0.1499023 0.9599609
vt 0.149292 0.9599609
vt 0.1489258 0.9604492
vt 0.1499023 0.9599609
vt 0.1514893 0.9599609
vt 0.1518555 0.9604492
vt 0.1518555 0.9604492
vt 0.1514893 0.9599609
vt 0.151001 0.9599609
vt 0.1518555 0.9604492
vt 0.1503906 0.9599609
vt 0.151001 0.9599609
vt 0.1503906 0.9599609
vt 0.1494141 0.9599609
vt 0.1499023 0.9599609
vt 0.1523438 0.9609375
vt 0.1523438 0.9609375
vt 0.1496582 0.9604492
vt 0.1503906 0.9599609
vt 0.151001 0.9599609
vt 0.151001 0.9599609
vt 0.1514893 0.9599609
vt 0.1514893 0.9599609
vt 0.1503906 0.9604492
vt 0.15271 0.9604492
vt 0.15271 0.9604492
vt 0.1518555 0.9604492
vt 0.1523438 0.9609375
vt 0.15271 0.9604492
vt 0.1522217 0.9609375
vt 0.152832 0.9604492
vt 0.1529541 0.9614258
vt 0.1518555 0.9604492
vt 0.1514893 0.9599609
vt 0.1512451 0.9604492
vt 0.1508789 0.9604492
vt 0.1524658 0.9614258
vt 0.1518555 0.9609375
vt 0.1514893 0.9609375
vt 0.151001 0.9609375
vt 0.1525879 0.9619141
vt 0.1530762 0.9619141
vt 0.1529541 0.9624023
vt 0.1503906 0.9609375
vt 0.1506348 0.9609375
vt 0.1506348 0.9614258
vt 0.1503906 0.9614258
vt 0.151123 0.9609375
vt 0.1500244 0.9604492
vt 0.1505127 0.9614258
vt 0.1501465 0.9609375
vt 0.1499023 0.9609375
vt 0.1501465 0.9614258
vt 0.1502686 0.9614258
vt 0.149292 0.9609375
vt 0.1503906 0.9619141
vt 0.1508789 0.9614258
vt 0.1499023 0.9614258
vt 0.151001 0.9619141
vt 0.1499023 0.9619141
vt 0.1508789 0.9619141
vt 0.1499023 0.9619141
vt 0.1506348 0.9624023
vt 0.1501465 0.9624023
vt 0.1503906 0.9624023
vt 0.1507568 0.9614258
vt 0.1513672 0.9614258
vt 0.1519775 0.9614258
vt 0.1514893 0.9614258
vt 0.1520996 0.9619141
vt 0.1508789 0.9619141
vt 0.1514893 0.9619141
vt 0.1524658 0.9624023
vt 0.1519775 0.9624023
vt 0.1514893 0.9619141
vt 0.1523438 0.9628906
vt 0.15271 0.9633789
vt 0.1522217 0.9638672
vt 0.1508789 0.9619141
vt 0.1513672 0.9624023
vt 0.1518555 0.9628906
vt 0.1518555 0.9633789
vt 0.1514893 0.9628906
vt 0.151123 0.9624023
vt 0.1514893 0.9638672
vt 0.1517334 0.9643555
vt 0.151123 0.9643555
vt 0.1507568 0.9624023
vt 0.151001 0.9628906
vt 0.1512451 0.9633789
vt 0.151001 0.9638672
vt 0.1508789 0.9633789
vt 0.1506348 0.9628906
vt 0.1503906 0.9638672
vt 0.1503906 0.9643555
vt 0.1505127 0.9624023
vt 0.1503906 0.9628906
vt 0.1503906 0.9633789
vt 0.1501465 0.9628906
vt 0.1500244 0.9633789
vt 0.1499023 0.9638672
vt 0.1502686 0.9624023
vt 0.1499023 0.9628906
vt 0.1497803 0.9643555
vt 0.1496582 0.9633789
vt 0.149292 0.9638672
vt 0.1490479 0.9643555
vt 0.1485596 0.9638672
vt 0.1489258 0.9633789
vt 0.149292 0.9628906
vt 0.1496582 0.9624023
vt 0.1485596 0.9628906
vt 0.1480713 0.9633789
vt 0.1479492 0.9624023
vt 0.1500244 0.9624023
vt 0.1495361 0.9624023
vt 0.1490479 0.9628906
vt 0.1484375 0.9624023
vt 0.1489258 0.9624023
vt 0.1494141 0.9619141
vt 0.1483154 0.9619141
vt 0.1477051 0.9619141
vt 0.1499023 0.9619141
vt 0.149292 0.9619141
vt 0.1488037 0.9619141
vt 0.1484375 0.9614258
vt 0.1489258 0.9614258
vt 0.1490479 0.9609375
vt 0.1494141 0.9614258
vt 0.1495361 0.9614258
vt 0.1499023 0.9619141
vt 0.1496582 0.9609375
vt 0.1500244 0.9614258
vt 0.1496582 0.9643555
vt 0.1496582 0.9711914
vt 0.1496582 0.9711914
vt 0.1496582 0.9643555
vt 0.1496582 0.9643555
vt 0.1496582 0.9711914
vt 0.1496582 0.9711914
vt 0.1496582 0.9643555
vt 0.1497803 0.9711914
vt 0.1497803 0.9643555
vt 0.1499023 0.9711914
vt 0.1499023 0.9643555
vt 0.1500244 0.9643555
vt 0.1500244 0.9711914
vt 0.1502686 0.9711914
vt 0.1502686 0.9643555
vt 0.1503906 0.9643555
vt 0.1503906 0.9711914
vt 0.1506348 0.9711914
vt 0.1506348 0.9643555
vt 0.1507568 0.9643555
vt 0.1507568 0.9711914
vt 0.151001 0.9711914
vt 0.151001 0.9643555
vt 0.1513672 0.9711914
vt 0.1513672 0.9643555
vt 0.1514893 0.9643555
vt 0.1514893 0.9711914
vt 0.1517334 0.9711914
vt 0.1517334 0.9643555
vt 0.1518555 0.9643555
vt 0.1518555 0.9711914
vt 0.1520996 0.9711914
vt 0.1520996 0.9643555
vt 0.1522217 0.9643555
vt 0.1522217 0.9711914
vt 0.1523438 0.9711914
vt 0.1523438 0.9643555
vt 0.1525879 0.9643555
vt 0.1525879 0.9711914
vt 0.1525879 0.9711914
vt 0.1525879 0.9643555
vt 0.1496582 0.9711914
vt 0.1496582 0.9711914
vt 0.1496582 0.9643555
vt 0.1496582 0.9643555
vt 0.1496582 0.9643555
vt 0.1496582 0.9711914
vt 0.1514893 0.9599609
vt 0.151001 0.9599609
vt 0.2111816 0.9750977
vt 0.2115479 0.9765625
vt 0.2122803 0.9760742
vt 0.2120361 0.9750977
vt 0.2109375 0.9731445
vt 0.2119141 0.9731445
vt 0.2108154 0.9711914
vt 0.2125244 0.9770508
vt 0.2121582 0.9775391
vt 0.2143555 0.9775391
vt 0.2142334 0.9780273
vt 0.2141113 0.9746094
vt 0.2213135 0.9770508
vt 0.2214355 0.9780273
vt 0.2142334 0.9760742
vt 0.2225342 0.9770508
vt 0.2230225 0.9775391
vt 0.2211914 0.9760742
vt 0.2227783 0.9760742
vt 0.2236328 0.9765625
vt 0.2231445 0.9750977
vt 0.223999 0.9750977
vt 0.2213135 0.9746094
vt 0.2232666 0.9731445
vt 0.2242432 0.9731445
vt 0.2141113 0.9731445
vt 0.2213135 0.9731445
vt 0.2232666 0.9711914
vt 0.2243652 0.9711914
vt 0.2213135 0.9711914
vt 0.2141113 0.9711914
vt 0.2232666 0.9692383
vt 0.2242432 0.96875
vt 0.2213135 0.9692383
vt 0.2230225 0.9672852
vt 0.223999 0.9672852
vt 0.2141113 0.9692383
vt 0.2119141 0.9711914
vt 0.2109375 0.96875
vt 0.2119141 0.96875
vt 0.2111816 0.9667969
vt 0.2213135 0.9672852
vt 0.2227783 0.9658203
vt 0.2236328 0.9658203
vt 0.2121582 0.9672852
vt 0.2115479 0.965332
vt 0.2142334 0.9672852
vt 0.2124023 0.9658203
vt 0.2121582 0.9643555
vt 0.2213135 0.9658203
vt 0.2225342 0.9648438
vt 0.2230225 0.9648438
vt 0.2142334 0.9658203
vt 0.2213135 0.9648438
vt 0.2214355 0.9643555
vt 0.2143555 0.9648438
vt 0.2142334 0.9638672
vt 0.2126465 0.9648438
vn 0.925293 0.3540039 0.1345215
vn 0.9267578 0.1658936 0.3374023
vn 0.793457 0.142334 0.5913086
vn 0.7851563 0.5942383 0.1751709
vn 0.9145508 0.4042969 -0.009742737
vn 0.6469727 0.762207 -0.005527496
vn 0.9086914 0.4169922 0.01352692
vn 0.6420898 0.7666016 0.01155853
vn 0.90625 0.40625 -0.1181641
vn 0.7539063 0.6303711 -0.1846924
vn 0.9321289 0.1315918 -0.3371582
vn 0.90625 0.40625 -0.1181641
vn 0.7539063 0.6303711 -0.1846924
vn 0.7827148 0.1069336 -0.612793
vn 0.9052734 0.3334961 -0.263916
vn 0.8676758 0.4853516 -0.1069946
vn 0.6420898 0.7666016 0.01155853
vn 0.6962891 0.7177734 0.01623535
vn 0.9975586 0.06506348 0.03253174
vn 0.996582 -0.03659058 0.07098389
vn 0.9624023 -0.2702637 0.03216553
vn 0.9350586 -0.2008057 0.2919922
vn 0.8320313 0.1106567 -0.543457
vn 0.737793 0.2587891 -0.6235352
vn 0.765625 0.5932617 -0.2496338
vn 0.9755859 0.08746338 -0.2017822
vn 0.7714844 0.2653809 -0.578125
vn 0.6088867 0.4719238 -0.637207
vn 0.5927734 0.7705078 -0.2341309
vn 0.8969727 -0.3632813 0.2509766
vn 0.9257813 -0.3771973 0.02970886
vn 0.8056641 -0.5913086 0.02702332
vn 0.4694824 0.6083984 -0.6401367
vn 0.3562012 0.9155273 -0.1872559
vn 0.2770996 0.7055664 -0.6518555
vn 0.06469727 0.980957 -0.1820068
vn 0.4887695 0.6259766 -0.6079102
vn 0.6328125 0.4873047 -0.6015625
vn 0.9199219 0.3198242 -0.2266846
vn 0.9204102 0.1038818 0.376709
vn 0.7827148 0.6040039 -0.149292
vn 0.8535156 0.3400879 0.3947754
vn 0.03616333 0.7651367 -0.6430664
vn -0.1224976 0.9482422 -0.2927246
vn -0.104187 0.7543945 -0.6479492
vn 0.1591797 0.980957 -0.1107788
vn 0.03970337 0.7915039 -0.6098633
vn 0.2922363 0.7260742 -0.6220703
vn 0.6103516 0.7768555 -0.1547852
vn 0.8188477 0.1002808 0.5649414
vn 0.4187012 0.8852539 -0.2025146
vn 0.1546631 0.987793 0.01131439
vn 0.5688477 0.8222656 0.01237488
vn 0.5102539 0.8598633 0.01721191
vn 0.2641602 0.9584961 -0.1090698
vn 0.7182617 0.5537109 0.4211426
vn 0.3754883 0.9121094 -0.1634521
vn -0.1113281 0.8051758 -0.5825195
vn -0.282959 0.9560547 0.07403564
vn -0.1866455 0.9819336 0.03161621
vn -0.4260254 0.8574219 0.2883301
vn -0.4956055 0.8681641 0.02990723
vn 0.5610352 0.7133789 0.4194336
vn 0.6469727 0.4995117 0.5761719
vn 0.05508423 0.96875 -0.2424316
vn -0.1716309 0.9624023 -0.2115479
vn 0.3442383 0.8388672 0.421875
vn -0.1439209 0.9165039 0.3728027
vn 0.09014893 0.9150391 0.3928223
vn 0.3100586 0.7553711 0.5776367
vn -0.1204224 0.8178711 0.5625
vn 0.5048828 0.6425781 0.5761719
vn 0.08679199 0.8154297 0.5727539
vn 0.2363281 0.5776367 0.78125
vn 0.4941406 0.3820801 0.78125
vn 0.3850098 0.4907227 0.7817383
vn 0.7583008 0.3100586 0.5732422
vn -0.08447266 0.6201172 0.7797852
vn 0.06945801 0.6206055 0.78125
vn 0.1315918 0.3237305 0.9370117
vn -0.3212891 0.7641602 0.5595703
vn 0.5761719 0.2398682 0.78125
vn 0.6186523 0.08306885 0.78125
vn 0.2753906 0.2137451 0.9370117
vn 0.2115479 0.2722168 0.9389648
vn 0.03842163 0.3435059 0.9384766
vn -0.04815674 0.3469238 0.9365234
vn 0.3181152 0.1329346 0.9384766
vn -0.2426758 0.5766602 0.7797852
vn -0.001832008 2.139807E-05 1
vn -0.1352539 0.3195801 0.9379883
vn 0.3417969 -0.04840088 0.9384766
vn -0.2773438 0.2093506 0.9375
vn 0.3452148 0.04650879 0.9375
vn -0.2154541 0.2773438 0.9365234
vn -0.3833008 0.4953613 0.7792969
vn 0.6181641 -0.08874512 0.78125
vn -0.4995117 0.3779297 0.7797852
vn -0.5019531 0.6533203 0.5668945
vn 0.8188477 -0.1175537 0.5620117
vn 0.7612305 -0.3117676 0.5683594
vn 0.5776367 -0.2384033 0.7807617
vn 0.7788086 -0.5751953 0.2512207
vn -0.6586914 0.494873 0.5668945
vn -0.5874023 0.7700195 0.2485352
vn -0.6074219 0.7939453 0.02706909
vn -0.7915039 0.6108398 0.02416992
vn -0.7695313 0.5878906 0.2492676
vn -0.8950195 0.3684082 0.2504883
vn -0.9243164 0.3806152 0.02404785
vn -0.9921875 0.1233521 0.02386475
vn -0.7641602 0.3139648 0.5634766
vn -0.5800781 0.2381592 0.7792969
vn -0.9604492 0.1203003 0.2519531
vn -0.3254395 0.1333008 0.9360352
vn -0.8198242 0.1040039 0.5634766
vn -0.9594727 -0.128418 0.2514648
vn -0.9907227 -0.1326904 0.0239563
vn -0.921875 -0.3869629 0.02401733
vn -0.3452148 0.04360962 0.9375
vn -0.621582 0.07843018 0.7792969
vn -0.8183594 -0.109436 0.5639648
vn -0.8925781 -0.3747559 0.2512207
vn -0.621582 -0.08300781 0.7792969
vn -0.3486328 -0.04644775 0.9360352
vn -0.7617188 -0.3198242 0.5639648
vn -0.7666016 -0.5908203 0.2514648
vn -0.7919922 -0.6103516 0.02432251
vn -0.6044922 -0.7963867 0.02459717
vn -0.3208008 -0.1339111 0.9375
vn -0.5776367 -0.2421875 0.7792969
vn -0.6542969 -0.503418 0.5639648
vn -0.4968262 -0.3818359 0.7792969
vn -0.2790527 -0.2137451 0.9360352
vn -0.5854492 -0.7705078 0.2519531
vn -0.2111816 -0.2756348 0.9379883
vn -0.4997559 -0.6572266 0.5644531
vn -0.3793945 -0.4980469 0.7797852
vn -0.3149414 -0.7626953 0.5649414
vn -0.239502 -0.5786133 0.7797852
vn -0.1350098 -0.3237305 0.9365234
vn -0.04528809 -0.3435059 0.9379883
vn -0.07983398 -0.6201172 0.7802734
vn -0.3686523 -0.8945313 0.2521973
vn -0.1044922 -0.8183594 0.5649414
vn -0.3806152 -0.9243164 0.02508545
vn -0.1254883 -0.9916992 0.02548218
vn -0.1218262 -0.9599609 0.2526855
vn 0.1279297 -0.9589844 0.2531738
vn 0.1325684 -0.9907227 0.02603149
vn 0.387207 -0.921875 0.02630615
vn 0.1083984 -0.8173828 0.5654297
vn 0.08154297 -0.6201172 0.7802734
vn 0.04470825 -0.3469238 0.9370117
vn 0.3740234 -0.8920898 0.2543945
vn 0.1322021 -0.3190918 0.9384766
vn 0.3190918 -0.7607422 0.5654297
vn 0.2408447 -0.5761719 0.7807617
vn 0.5908203 -0.7666016 0.2526855
vn 0.6103516 -0.7919922 0.02661133
vn 0.5029297 -0.6538086 0.5654297
vn 0.2763672 -0.2075195 0.9384766
vn 0.3803711 -0.4953613 0.7807617
vn 0.6577148 -0.4938965 0.5688477
vn 0.2120361 -0.2773438 0.9370117
vn 0.5009766 -0.373291 0.7807617
vn 0.3220215 -0.1331787 0.9375
vn 0.08789063 0.9819336 0.1673584
vn 0.1346436 0.9907227 -0.009178162
vn 0.5576172 0.8300781 -0.00328064
vn 0.3566895 0.9204102 0.1590576
vn -0.05407715 0.8837891 0.4650879
vn 0.192627 0.9780273 0.08062744
vn 0.5039063 0.8637695 -0.008293152
vn -0.1968994 0.9799805 -0.02944946
vn -0.06292725 0.7910156 0.6083984
vn 0.08947754 0.8427734 0.5302734
vn -0.3037109 0.9492188 -0.08441162
vn -0.4970703 0.8671875 -0.03222656
vn 0.05413818 0.7128906 0.6992188
vn 0.3398438 0.8217773 0.4572754
vn -0.09570313 0.8618164 0.4985352
vn -0.4191895 0.8515625 -0.3149414
vn -0.6079102 0.793457 -0.0304718
vn 0.2636719 0.6347656 0.7265625
vn 0.5849609 0.7456055 0.3195801
vn 0.04360962 0.8076172 0.5878906
vn -0.1588135 0.9682617 0.1921387
vn 0.4489746 0.5693359 0.6884766
vn 0.7607422 0.5874023 0.2766113
vn 0.5820313 0.4489746 0.6782227
vn 0.8911133 0.3447266 0.2946777
vn 0.4746094 0.6025391 0.6416016
vn 0.2971191 0.7084961 0.6401367
vn 0.05545044 0.965332 0.255127
vn -0.1405029 0.9165039 -0.3740234
vn 0.3735352 0.9086914 0.185791
vn 0.7143555 0.2614746 0.6494141
vn 0.9267578 0.1658936 0.3374023
vn 0.793457 0.142334 0.5913086
vn 0.7553711 0.2626953 0.6000977
vn 0.6079102 0.4699707 0.6401367
vn 0.8432617 0.1325684 0.5205078
vn 0.6074219 0.7729492 0.1827393
vn 0.7783203 0.6010742 0.1813965
vn 0.6074219 0.7729492 0.1827393
vn 0.0927124 0.9160156 -0.3903809
vn 0.3457031 0.8393555 -0.4191895
vn 0.8901367 0.4448242 0.1011353
vn 0.7851563 0.5942383 0.1751709
vn 0.08966064 0.8149414 -0.5727539
vn 0.5629883 0.7143555 -0.4157715
vn 0.7783203 0.6010742 0.1813965
vn 0.7207031 0.5541992 -0.416748
vn 0.9130859 0.3186035 0.2546387
vn 0.7553711 0.2626953 0.6000977
vn 0.5068359 0.6425781 -0.574707
vn 0.6982422 0.7158203 -0.01003265
vn 0.6469727 0.762207 -0.005527496
vn 0.9741211 0.09857178 0.2030029
vn 0.996582 -0.03939819 -0.07489014
vn 0.9975586 0.06036377 -0.02780151
vn 0.9296875 -0.1949463 -0.3132324
vn 0.9619141 -0.2712402 -0.02937317
vn 0.925293 -0.3779297 -0.02735901
vn 0.9223633 0.1049805 -0.3720703
vn 0.855957 0.3410645 -0.388916
vn 0.7597656 0.3103027 -0.5712891
vn 0.6489258 0.4995117 -0.5742188
vn 0.8896484 -0.3625488 -0.277832
vn 0.8203125 -0.1177368 -0.5595703
vn 0.8203125 0.1004639 -0.5629883
vn 0.5786133 0.2398682 -0.7792969
vn 0.7719727 -0.5708008 -0.2800293
vn 0.8061523 -0.5913086 -0.02519226
vn 0.6103516 -0.7915039 -0.02542114
vn 0.3879395 0.4907227 -0.7802734
vn 0.4968262 0.3820801 -0.7792969
vn 0.3215332 0.1329346 -0.9375
vn 0.2149658 0.2722168 -0.9379883
vn 0.621582 0.08300781 -0.7792969
vn 0.3120117 0.7553711 -0.5761719
vn 0.2790527 0.2137451 -0.9360352
vn 0.2391357 0.5776367 -0.7807617
vn 0.0723877 0.6206055 -0.7807617
vn 0.04187012 0.3432617 -0.9384766
vn 0.1350098 0.3237305 -0.9365234
vn -0.1176147 0.8168945 -0.5644531
vn 0.001832962 -2.241135E-05 -1
vn 0.3452148 -0.04846191 -0.9375
vn -0.1318359 0.3195801 -0.9384766
vn 0.2797852 -0.2075195 -0.9375
vn -0.2739258 0.2093506 -0.9384766
vn 0.1357422 -0.3193359 -0.9379883
vn -0.3417969 0.04354858 -0.9389648
vn -0.04187012 -0.3435059 -0.9384766
vn -0.3173828 -0.1340332 -0.9389648
vn -0.2077637 -0.2756348 -0.9384766
vn 0.3486328 0.04647827 -0.9360352
vn 0.6210938 -0.08874512 -0.7788086
vn 0.7636719 -0.3117676 -0.5654297
vn 0.5805664 -0.2385254 -0.7783203
vn 0.659668 -0.4938965 -0.5664063
vn 0.3254395 -0.1331787 -0.9360352
vn 0.5039063 -0.373291 -0.7788086
vn 0.5859375 -0.7592773 -0.2827148
vn 0.5048828 -0.6538086 -0.5639648
vn 0.3833008 -0.4953613 -0.7792969
vn 0.3718262 -0.8837891 -0.284668
vn 0.387207 -0.9213867 -0.02593994
vn 0.1326904 -0.9907227 -0.02658081
vn 0.2154541 -0.2773438 -0.9365234
vn 0.2436523 -0.5761719 -0.7802734
vn 0.3212891 -0.7607422 -0.5644531
vn 0.1278076 -0.9501953 -0.284668
vn 0.1105347 -0.8173828 -0.5649414
vn 0.08441162 -0.6201172 -0.7802734
vn -0.1196899 -0.9511719 -0.2849121
vn -0.1253662 -0.9916992 -0.0269928
vn -0.3803711 -0.9243164 -0.0275116
vn 0.04812622 -0.3469238 -0.9365234
vn -0.07696533 -0.6201172 -0.7807617
vn -0.102417 -0.8183594 -0.5654297
vn -0.3642578 -0.8862305 -0.2856445
vn -0.3129883 -0.7626953 -0.565918
vn -0.2366943 -0.5786133 -0.7807617
vn -0.5791016 -0.7636719 -0.2858887
vn -0.6044922 -0.7963867 -0.02787781
vn -0.1315918 -0.3237305 -0.9370117
vn -0.3764648 -0.4980469 -0.78125
vn -0.4978027 -0.6572266 -0.565918
vn -0.4938965 -0.3818359 -0.78125
vn -0.6523438 -0.503418 -0.5664063
vn -0.7587891 -0.5854492 -0.286377
vn -0.2756348 -0.2137451 -0.9370117
vn -0.574707 -0.2421875 -0.7817383
vn -0.7915039 -0.6103516 -0.02827454
vn -0.7592773 -0.3198242 -0.5664063
vn -0.8833008 -0.3713379 -0.286377
vn -0.9213867 -0.3869629 -0.0284729
vn -0.9907227 -0.1326904 -0.02867126
vn -0.949707 -0.1271973 -0.2868652
vn -0.8164063 -0.1094971 -0.5668945
vn -0.6186523 -0.08300781 -0.78125
vn -0.9501953 0.1192627 -0.2873535
vn -0.9921875 0.123291 -0.02859497
vn -0.9243164 0.3806152 -0.0284729
vn -0.3452148 -0.04647827 -0.9375
vn -0.6186523 0.07836914 -0.7817383
vn -0.8173828 0.1039429 -0.5664063
vn -0.8857422 0.3649902 -0.286377
vn -0.762207 0.3139648 -0.5664063
vn -0.5771484 0.2380371 -0.78125
vn -0.7617188 0.5825195 -0.2836914
vn -0.7910156 0.6108398 -0.02835083
vn -0.3220215 0.1333008 -0.9375
vn -0.496582 0.3779297 -0.78125
vn -0.65625 0.4951172 -0.5693359
vn -0.5834961 0.762207 -0.2805176
vn -0.5 0.6533203 -0.5683594
vn -0.3195801 0.7631836 -0.5615234
vn -0.3803711 0.4953613 -0.7807617
vn -0.2397461 0.5766602 -0.7807617
vn -0.2120361 0.2773438 -0.9370117
vn -0.081604 0.6201172 -0.7802734
vn -0.04470825 0.3469238 -0.9370117
vn 0.1346436 0.9907227 -0.009178162
vn 0.1546631 0.987793 0.01131439
vn 0.5688477 0.8222656 0.01237488
vn 0.5576172 0.8300781 -0.00328064
vn 0.5039063 0.8637695 -0.008293152
vn 0.5102539 0.8598633 0.01721191
vn -0.1866455 0.9819336 0.03161621
vn -0.1968994 0.9799805 -0.02944946
vn -0.4956055 0.8681641 0.02990723
vn -0.4970703 0.8671875 -0.03222656
vn -0.6074219 0.7939453 0.02706909
vn -0.6079102 0.793457 -0.0304718
vn -0.7910156 0.6108398 -0.02835083
vn -0.7915039 0.6108398 0.02416992
vn -0.9243164 0.3806152 0.02404785
vn -0.9243164 0.3806152 -0.0284729
vn -0.9921875 0.123291 -0.02859497
vn -0.9921875 0.1233521 0.02386475
vn -0.9907227 -0.1326904 0.0239563
vn -0.9907227 -0.1326904 -0.02867126
vn -0.9213867 -0.3869629 -0.0284729
vn -0.921875 -0.3869629 0.02401733
vn -0.7919922 -0.6103516 0.02432251
vn -0.7915039 -0.6103516 -0.02827454
vn -0.3806152 -0.9243164 0.02508545
vn -0.3803711 -0.9243164 -0.0275116
vn -0.1253662 -0.9916992 -0.0269928
vn -0.1254883 -0.9916992 0.02548218
vn 0.1325684 -0.9907227 0.02603149
vn 0.1326904 -0.9907227 -0.02658081
vn 0.387207 -0.9213867 -0.02593994
vn 0.387207 -0.921875 0.02630615
vn 0.6103516 -0.7919922 0.02661133
vn 0.6103516 -0.7915039 -0.02542114
vn 0.8061523 -0.5913086 -0.02519226
vn 0.8056641 -0.5913086 0.02702332
vn 0.9257813 -0.3771973 0.02970886
vn 0.925293 -0.3779297 -0.02735901
vn 0.9619141 -0.2712402 -0.02937317
vn 0.9624023 -0.2702637 0.03216553
vn 0.9975586 0.06506348 0.03253174
vn 0.9975586 0.06036377 -0.02780151
vn 0.6962891 0.7177734 0.01623535
vn 0.6420898 0.7666016 0.01155853
vn 0.6469727 0.762207 -0.005527496
vn 0.6982422 0.7158203 -0.01003265
vn 0.9975586 0.06036377 -0.02780151
vn 0.9975586 0.06506348 0.03253174
vn 0.7553711 0.2626953 0.6000977
vn 0.6079102 0.4699707 0.6401367
vn 0.06469727 0.980957 -0.1820068
vn -0.1224976 0.9482422 -0.2927246
vn -0.130127 0.9848633 0.1150513
vn 0.06842041 0.9863281 0.1496582
vn 0.3562012 0.9155273 -0.1872559
vn 0.3676758 0.9155273 0.1638184
vn 0.5927734 0.7705078 -0.2341309
vn -0.1274414 0.9882813 0.08538818
vn 0.1591797 0.980957 -0.1107788
vn -0.1855469 0.9824219 0.01449585
vn 0.1546631 0.987793 0.01131439
vn 0.07427979 0.9970703 0.02716064
vn -0.1925049 0.980957 -0.02043152
vn 0.1346436 0.9907227 -0.009178162
vn -0.1651611 0.9858398 0.01979065
vn -0.1463623 0.9853516 -0.08850098
vn 0.08789063 0.9819336 0.1673584
vn -0.1663818 0.9858398 -0.02468872
vn -0.125 0.9829102 -0.1361084
vn -0.05407715 0.8837891 0.4650879
vn 0.09558105 0.9785156 -0.1824951
vn 0.08947754 0.8427734 0.5302734
vn 0.07556152 0.996582 -0.02980042
vn 0.371582 0.9077148 -0.194458
vn 0.3398438 0.8217773 0.4572754
vn 0.380127 0.9243164 0.02905273
vn 0.3798828 0.9243164 -0.03013611
vn 0.6054688 0.7714844 -0.1951904
vn 0.5849609 0.7456055 0.3195801
vn 0.6181641 0.7856445 -0.02812195
vn 0.6181641 0.7856445 0.0295105
vn 0.7763672 0.5986328 -0.1964111
vn 0.7607422 0.5874023 0.2766113
vn 0.7919922 0.6103516 -0.02738953
vn 0.9169922 0.3535156 -0.1856689
vn 0.8911133 0.3447266 0.2946777
vn 0.7915039 0.6103516 0.02990723
vn 0.6069336 0.7783203 0.1605225
vn 0.765625 0.5932617 -0.2496338
vn 0.7807617 0.6040039 0.1607666
vn 0.9052734 0.3334961 -0.263916
vn 0.9375 0.3464355 -0.02560425
vn 0.980957 0.1337891 -0.1403809
vn 0.9267578 0.1658936 0.3374023
vn 0.9262695 0.3459473 0.1491699
vn 0.9321289 0.1315918 -0.3371582
vn 0.9375 0.3464355 0.02890015
vn 0.9838867 0.137207 0.114563
vn 0.90625 0.40625 -0.1181641
vn 0.9941406 0.1039429 -0.02069092
vn 0.9882813 0.1212158 -0.0914917
vn 0.925293 0.3540039 0.1345215
vn 0.9941406 0.105957 0.02276611
vn 0.996582 0.08105469 -0.01728821
vn 0.9145508 0.4042969 -0.009742737
vn 0.9960938 0.08654785 0.01818848
vn 0.9086914 0.4169922 0.01352692
vn 0.9868164 0.137207 0.08361816
g Seat_16_0
f 3/3/3 2/2/2 1/1/1
f 4/4/4 3/3/3 1/1/1
f 1/1/1 5/5/5 4/4/4
f 5/5/5 6/6/6 4/4/4
f 5/5/5 7/7/7 6/6/6
f 7/7/7 8/8/8 6/6/6
f 7/7/7 9/9/9 8/8/8
f 9/9/9 10/10/10 8/8/8
f 13/13/13 12/12/12 11/11/11
f 14/14/14 13/13/13 11/11/11
f 14/14/14 11/11/11 15/15/15
f 16/16/16 13/13/13 14/14/14
f 17/17/17 13/13/13 16/16/16
f 18/18/18 17/17/17 16/16/16
f 19/19/19 18/18/18 16/16/16
f 20/20/20 19/19/19 16/16/16
f 21/21/21 19/19/19 20/20/20
f 22/22/22 21/21/21 20/20/20
f 16/16/16 23/23/23 20/20/20
f 23/23/23 16/16/16 14/14/14
f 24/24/24 14/14/14 15/15/15
f 15/15/15 25/25/25 24/24/24
f 23/23/23 26/26/26 20/20/20
f 20/20/20 26/26/26 22/22/22
f 23/23/23 14/14/14 27/27/27
f 14/14/14 24/24/24 27/27/27
f 23/23/23 27/27/27 26/26/26
f 25/25/25 28/28/28 24/24/24
f 27/27/27 24/24/24 28/28/28
f 25/25/25 29/29/29 28/28/28
f 21/21/21 22/22/22 30/30/30
f 31/31/31 21/21/21 30/30/30
f 31/31/31 30/30/30 32/32/32
f 29/29/29 33/33/33 28/28/28
f 29/29/29 34/34/34 33/33/33
f 34/34/34 35/35/35 33/33/33
f 34/34/34 36/36/36 35/35/35
f 28/28/28 33/33/33 37/37/37
f 37/37/37 33/33/33 35/35/35
f 38/38/38 27/27/27 28/28/28
f 38/38/38 28/28/28 37/37/37
f 27/27/27 38/38/38 39/39/39
f 27/27/27 39/39/39 26/26/26
f 26/26/26 40/40/40 22/22/22
f 26/26/26 39/39/39 40/40/40
f 38/38/38 41/41/41 39/39/39
f 38/38/38 37/37/37 41/41/41
f 39/39/39 42/42/42 40/40/40
f 39/39/39 41/41/41 42/42/42
f 36/36/36 43/43/43 35/35/35
f 36/36/36 44/44/44 43/43/43
f 44/44/44 45/45/45 43/43/43
f 44/44/44 46/46/46 45/45/45
f 35/35/35 43/43/43 47/47/47
f 47/47/47 43/43/43 45/45/45
f 48/48/48 37/37/37 35/35/35
f 48/48/48 35/35/35 47/47/47
f 37/37/37 49/49/49 41/41/41
f 37/37/37 48/48/48 49/49/49
f 40/40/40 42/42/42 50/50/50
f 40/40/40 50/50/50 22/22/22
f 46/46/46 51/51/51 45/45/45
f 51/51/51 46/46/46 52/52/52
f 53/53/53 51/51/51 52/52/52
f 51/51/51 53/53/53 54/54/54
f 45/45/45 51/51/51 55/55/55
f 55/55/55 51/51/51 54/54/54
f 41/41/41 56/56/56 42/42/42
f 41/41/41 49/49/49 56/56/56
f 48/48/48 57/57/57 49/49/49
f 48/48/48 47/47/47 57/57/57
f 58/58/58 47/47/47 45/45/45
f 58/58/58 45/45/45 55/55/55
f 55/55/55 54/54/54 59/59/59
f 54/54/54 60/60/60 59/59/59
f 59/59/59 60/60/60 61/61/61
f 60/60/60 62/62/62 61/61/61
f 49/49/49 63/63/63 56/56/56
f 49/49/49 57/57/57 63/63/63
f 56/56/56 64/64/64 42/42/42
f 56/56/56 63/63/63 64/64/64
f 47/47/47 58/58/58 65/65/65
f 47/47/47 65/65/65 57/57/57
f 58/58/58 55/55/55 66/66/66
f 55/55/55 59/59/59 66/66/66
f 58/58/58 66/66/66 65/65/65
f 57/57/57 65/65/65 67/67/67
f 57/57/57 67/67/67 63/63/63
f 66/66/66 59/59/59 68/68/68
f 59/59/59 61/61/61 68/68/68
f 65/65/65 66/66/66 69/69/69
f 65/65/65 69/69/69 67/67/67
f 66/66/66 68/68/68 69/69/69
f 67/67/67 70/70/70 63/63/63
f 67/67/67 69/69/69 70/70/70
f 68/68/68 71/71/71 69/69/69
f 68/68/68 61/61/61 71/71/71
f 63/63/63 72/72/72 64/64/64
f 70/70/70 72/72/72 63/63/63
f 69/69/69 73/73/73 70/70/70
f 71/71/71 73/73/73 69/69/69
f 70/70/70 74/74/74 72/72/72
f 70/70/70 73/73/73 74/74/74
f 64/64/64 72/72/72 75/75/75
f 74/74/74 76/76/76 72/72/72
f 72/72/72 76/76/76 75/75/75
f 64/64/64 75/75/75 77/77/77
f 64/64/64 77/77/77 42/42/42
f 42/42/42 77/77/77 50/50/50
f 71/71/71 78/78/78 73/73/73
f 73/73/73 79/79/79 74/74/74
f 78/78/78 79/79/79 73/73/73
f 74/74/74 80/80/80 76/76/76
f 74/74/74 79/79/79 80/80/80
f 71/71/71 81/81/81 78/78/78
f 61/61/61 81/81/81 71/71/71
f 75/75/75 82/82/82 77/77/77
f 50/50/50 77/77/77 83/83/83
f 77/77/77 82/82/82 83/83/83
f 75/75/75 76/76/76 84/84/84
f 75/75/75 84/84/84 82/82/82
f 80/80/80 85/85/85 76/76/76
f 76/76/76 85/85/85 84/84/84
f 79/79/79 86/86/86 80/80/80
f 80/80/80 86/86/86 85/85/85
f 78/78/78 87/87/87 79/79/79
f 87/87/87 86/86/86 79/79/79
f 84/84/84 88/88/88 82/82/82
f 84/84/84 85/85/85 88/88/88
f 78/78/78 89/89/89 87/87/87
f 81/81/81 89/89/89 78/78/78
f 86/86/86 90/90/90 85/85/85
f 85/85/85 90/90/90 88/88/88
f 87/87/87 91/91/91 86/86/86
f 91/91/91 90/90/90 86/86/86
f 89/89/89 91/91/91 87/87/87
f 88/88/88 90/90/90 92/92/92
f 93/93/93 90/90/90 91/91/91
f 82/82/82 88/88/88 94/94/94
f 94/94/94 88/88/88 92/92/92
f 83/83/83 82/82/82 94/94/94
f 95/95/95 91/91/91 89/89/89
f 95/95/95 93/93/93 91/91/91
f 96/96/96 89/89/89 81/81/81
f 96/96/96 95/95/95 89/89/89
f 83/83/83 94/94/94 97/97/97
f 94/94/94 92/92/92 97/97/97
f 98/98/98 93/93/93 95/95/95
f 96/96/96 98/98/98 95/95/95
f 99/99/99 96/96/96 81/81/81
f 99/99/99 81/81/81 61/61/61
f 83/83/83 97/97/97 100/100/100
f 50/50/50 83/83/83 100/100/100
f 50/50/50 100/100/100 22/22/22
f 22/22/22 100/100/100 101/101/101
f 30/30/30 22/22/22 101/101/101
f 100/100/100 97/97/97 102/102/102
f 101/101/101 100/100/100 102/102/102
f 30/30/30 101/101/101 103/103/103
f 30/30/30 103/103/103 32/32/32
f 104/104/104 98/98/98 96/96/96
f 99/99/99 104/104/104 96/96/96
f 105/105/105 99/99/99 61/61/61
f 105/105/105 61/61/61 62/62/62
f 106/106/106 105/105/105 62/62/62
f 106/106/106 107/107/107 105/105/105
f 105/105/105 108/108/108 99/99/99
f 107/107/107 108/108/108 105/105/105
f 108/108/108 104/104/104 99/99/99
f 109/109/109 108/108/108 107/107/107
f 110/110/110 109/109/109 107/107/107
f 110/110/110 111/111/111 109/109/109
f 112/112/112 104/104/104 108/108/108
f 109/109/109 112/112/112 108/108/108
f 113/113/113 98/98/98 104/104/104
f 112/112/112 113/113/113 104/104/104
f 111/111/111 114/114/114 109/109/109
f 109/109/109 114/114/114 112/112/112
f 113/113/113 115/115/115 98/98/98
f 115/115/115 93/93/93 98/98/98
f 112/112/112 116/116/116 113/113/113
f 114/114/114 116/116/116 112/112/112
f 117/117/117 114/114/114 111/111/111
f 118/118/118 117/117/117 111/111/111
f 118/118/118 119/119/119 117/117/117
f 115/115/115 120/120/120 93/93/93
f 120/120/120 90/90/90 93/93/93
f 113/113/113 121/121/121 115/115/115
f 116/116/116 121/121/121 113/113/113
f 121/121/121 120/120/120 115/115/115
f 122/122/122 116/116/116 114/114/114
f 117/117/117 122/122/122 114/114/114
f 119/119/119 123/123/123 117/117/117
f 117/117/117 123/123/123 122/122/122
f 124/124/124 121/121/121 116/116/116
f 122/122/122 124/124/124 116/116/116
f 125/125/125 120/120/120 121/121/121
f 124/124/124 125/125/125 121/121/121
f 122/122/122 126/126/126 124/124/124
f 123/123/123 126/126/126 122/122/122
f 127/127/127 123/123/123 119/119/119
f 128/128/128 127/127/127 119/119/119
f 128/128/128 129/129/129 127/127/127
f 125/125/125 130/130/130 120/120/120
f 130/130/130 90/90/90 120/120/120
f 124/124/124 131/131/131 125/125/125
f 126/126/126 131/131/131 124/124/124
f 131/131/131 130/130/130 125/125/125
f 132/132/132 126/126/126 123/123/123
f 127/127/127 132/132/132 123/123/123
f 133/133/133 131/131/131 126/126/126
f 132/132/132 133/133/133 126/126/126
f 134/134/134 130/130/130 131/131/131
f 133/133/133 134/134/134 131/131/131
f 127/127/127 135/135/135 132/132/132
f 129/129/129 135/135/135 127/127/127
f 134/134/134 136/136/136 130/130/130
f 136/136/136 90/90/90 130/130/130
f 132/132/132 137/137/137 133/133/133
f 135/135/135 137/137/137 132/132/132
f 133/133/133 138/138/138 134/134/134
f 138/138/138 136/136/136 134/134/134
f 137/137/137 138/138/138 133/133/133
f 139/139/139 137/137/137 135/135/135
f 140/140/140 138/138/138 137/137/137
f 139/139/139 140/140/140 137/137/137
f 141/141/141 136/136/136 138/138/138
f 140/140/140 141/141/141 138/138/138
f 141/141/141 142/142/142 136/136/136
f 142/142/142 90/90/90 136/136/136
f 140/140/140 143/143/143 141/141/141
f 143/143/143 142/142/142 141/141/141
f 144/144/144 135/135/135 129/129/129
f 144/144/144 139/139/139 135/135/135
f 139/139/139 145/145/145 140/140/140
f 145/145/145 143/143/143 140/140/140
f 146/146/146 144/144/144 129/129/129
f 146/146/146 147/147/147 144/144/144
f 144/144/144 148/148/148 139/139/139
f 147/147/147 148/148/148 144/144/144
f 148/148/148 145/145/145 139/139/139
f 149/149/149 148/148/148 147/147/147
f 150/150/150 149/149/149 147/147/147
f 150/150/150 151/151/151 149/149/149
f 152/152/152 145/145/145 148/148/148
f 149/149/149 152/152/152 148/148/148
f 153/153/153 143/143/143 145/145/145
f 152/152/152 153/153/153 145/145/145
f 154/154/154 142/142/142 143/143/143
f 153/153/153 154/154/154 143/143/143
f 151/151/151 155/155/155 149/149/149
f 149/149/149 155/155/155 152/152/152
f 154/154/154 156/156/156 142/142/142
f 156/156/156 90/90/90 142/142/142
f 152/152/152 157/157/157 153/153/153
f 155/155/155 157/157/157 152/152/152
f 153/153/153 158/158/158 154/154/154
f 158/158/158 156/156/156 154/154/154
f 157/157/157 158/158/158 153/153/153
f 159/159/159 155/155/155 151/151/151
f 160/160/160 159/159/159 151/151/151
f 160/160/160 32/32/32 159/159/159
f 32/32/32 103/103/103 159/159/159
f 159/159/159 161/161/161 155/155/155
f 161/161/161 157/157/157 155/155/155
f 159/159/159 103/103/103 161/161/161
f 162/162/162 90/90/90 156/156/156
f 92/92/92 90/90/90 162/162/162
f 163/163/163 158/158/158 157/157/157
f 161/161/161 163/163/163 157/157/157
f 103/103/103 164/164/164 161/161/161
f 161/161/161 164/164/164 163/163/163
f 101/101/101 164/164/164 103/103/103
f 101/101/101 102/102/102 164/164/164
f 165/165/165 156/156/156 158/158/158
f 163/163/163 165/165/165 158/158/158
f 165/165/165 162/162/162 156/156/156
f 164/164/164 166/166/166 163/163/163
f 163/163/163 166/166/166 165/165/165
f 102/102/102 166/166/166 164/164/164
f 166/166/166 162/162/162 165/165/165
f 167/167/167 92/92/92 162/162/162
f 167/167/167 162/162/162 166/166/166
f 102/102/102 167/167/167 166/166/166
f 97/97/97 92/92/92 167/167/167
f 102/102/102 97/97/97 167/167/167
f 170/170/170 169/169/169 168/168/168
f 171/171/171 170/170/170 168/168/168
f 171/171/171 168/168/168 172/172/172
f 170/170/170 171/171/171 173/173/173
f 174/174/174 170/170/170 173/173/173
f 175/175/175 174/174/174 173/173/173
f 176/176/176 171/171/171 172/172/172
f 173/173/173 171/171/171 176/176/176
f 176/176/176 172/172/172 177/177/177
f 178/178/178 175/175/175 173/173/173
f 179/179/179 175/175/175 178/178/178
f 180/180/180 176/176/176 177/177/177
f 180/180/180 177/177/177 181/181/181
f 182/182/182 173/173/173 176/176/176
f 178/178/178 173/173/173 182/182/182
f 183/183/183 179/179/179 178/178/178
f 184/184/184 179/179/179 183/183/183
f 185/185/185 180/180/180 181/181/181
f 185/185/185 181/181/181 186/186/186
f 176/176/176 180/180/180 187/187/187
f 182/182/182 176/176/176 187/187/187
f 187/187/187 180/180/180 185/185/185
f 188/188/188 178/178/178 182/182/182
f 183/183/183 178/178/178 188/188/188
f 188/188/188 182/182/182 187/187/187
f 189/189/189 185/185/185 186/186/186
f 189/189/189 186/186/186 190/190/190
f 191/191/191 189/189/189 190/190/190
f 191/191/191 190/190/190 192/192/192
f 185/185/185 189/189/189 193/193/193
f 193/193/193 189/189/189 191/191/191
f 194/194/194 187/187/187 185/185/185
f 194/194/194 185/185/185 193/193/193
f 195/195/195 188/188/188 187/187/187
f 195/195/195 187/187/187 194/194/194
f 196/196/196 183/183/183 188/188/188
f 196/196/196 188/188/188 195/195/195
f 197/197/197 195/195/195 194/194/194
f 197/197/197 194/194/194 193/193/193
f 198/198/198 191/191/191 192/192/192
f 198/198/198 192/192/192 199/199/199
f 200/200/200 198/198/198 199/199/199
f 191/191/191 198/198/198 201/201/201
f 201/201/201 198/198/198 200/200/200
f 202/202/202 191/191/191 201/201/201
f 202/202/202 193/193/193 191/191/191
f 203/203/203 201/201/201 200/200/200
f 204/204/204 193/193/193 202/202/202
f 205/205/205 204/204/204 202/202/202
f 206/206/206 197/197/197 193/193/193
f 207/207/207 195/195/195 197/197/197
f 207/207/207 196/196/196 195/195/195
f 208/208/208 197/197/197 206/206/206
f 208/208/208 207/207/207 197/197/197
f 203/203/203 200/200/200 209/209/209
f 200/200/200 210/210/210 209/209/209
f 196/196/196 207/207/207 211/211/211
f 211/211/211 207/207/207 208/208/208
f 212/212/212 208/208/208 206/206/206
f 212/212/212 206/206/206 213/213/213
f 214/214/214 212/212/212 213/213/213
f 214/214/214 213/213/213 215/215/215
f 215/215/215 216/216/216 203/203/203
f 208/208/208 212/212/212 217/217/217
f 217/217/217 212/212/212 214/214/214
f 209/209/209 210/210/210 218/218/218
f 210/210/210 219/219/219 218/218/218
f 220/220/220 203/203/203 209/209/209
f 220/220/220 215/215/215 203/203/203
f 209/209/209 218/218/218 221/221/221
f 221/221/221 220/220/220 209/209/209
f 218/218/218 222/222/222 221/221/221
f 221/221/221 222/222/222 223/223/223
f 222/222/222 224/224/224 223/223/223
f 223/223/223 224/224/224 225/225/225
f 226/226/226 220/220/220 221/221/221
f 223/223/223 226/226/226 221/221/221
f 227/227/227 215/215/215 220/220/220
f 226/226/226 227/227/227 220/220/220
f 227/227/227 214/214/214 215/215/215
f 214/214/214 227/227/227 228/228/228
f 228/228/228 227/227/227 226/226/226
f 229/229/229 214/214/214 228/228/228
f 229/229/229 217/217/217 214/214/214
f 230/230/230 223/223/223 225/225/225
f 226/226/226 223/223/223 231/231/231
f 231/231/231 223/223/223 230/230/230
f 232/232/232 228/228/228 226/226/226
f 232/232/232 226/226/226 231/231/231
f 229/229/229 228/228/228 233/233/233
f 233/233/233 228/228/228 232/232/232
f 230/230/230 225/225/225 234/234/234
f 225/225/225 235/235/235 234/234/234
f 234/234/234 235/235/235 236/236/236
f 237/237/237 217/217/217 229/229/229
f 238/238/238 229/229/229 233/233/233
f 238/238/238 237/237/237 229/229/229
f 238/238/238 233/233/233 239/239/239
f 240/240/240 237/237/237 238/238/238
f 241/241/241 233/233/233 232/232/232
f 239/239/239 233/233/233 241/241/241
f 242/242/242 217/217/217 237/237/237
f 242/242/242 208/208/208 217/217/217
f 242/242/242 211/211/211 208/208/208
f 243/243/243 238/238/238 239/239/239
f 243/243/243 240/240/240 238/238/238
f 243/243/243 239/239/239 240/240/240
f 244/244/244 242/242/242 237/237/237
f 244/244/244 237/237/237 240/240/240
f 245/245/245 211/211/211 242/242/242
f 244/244/244 245/245/245 242/242/242
f 246/246/246 245/245/245 244/244/244
f 247/247/247 244/244/244 240/240/240
f 247/247/247 246/246/246 244/244/244
f 247/247/247 240/240/240 246/246/246
f 248/248/248 211/211/211 245/245/245
f 248/248/248 196/196/196 211/211/211
f 239/239/239 249/249/249 240/240/240
f 240/240/240 249/249/249 246/246/246
f 250/250/250 249/249/249 239/239/239
f 246/246/246 249/249/249 251/251/251
f 252/252/252 249/249/249 250/250/250
f 251/251/251 249/249/249 253/253/253
f 254/254/254 249/249/249 252/252/252
f 253/253/253 249/249/249 255/255/255
f 256/256/256 249/249/249 254/254/254
f 255/255/255 249/249/249 257/257/257
f 258/258/258 249/249/249 256/256/256
f 257/257/257 249/249/249 258/258/258
f 259/259/259 250/250/250 239/239/239
f 259/259/259 239/239/239 241/241/241
f 259/259/259 241/241/241 250/250/250
f 241/241/241 260/260/260 250/250/250
f 241/241/241 232/232/232 260/260/260
f 232/232/232 231/231/231 260/260/260
f 260/260/260 231/231/231 261/261/261
f 261/261/261 231/231/231 230/230/230
f 250/250/250 260/260/260 262/262/262
f 262/262/262 260/260/260 261/261/261
f 261/261/261 230/230/230 263/263/263
f 230/230/230 234/234/234 263/263/263
f 264/264/264 250/250/250 262/262/262
f 264/264/264 252/252/252 250/250/250
f 264/264/264 262/262/262 252/252/252
f 262/262/262 261/261/261 265/265/265
f 261/261/261 263/263/263 265/265/265
f 262/262/262 265/265/265 252/252/252
f 263/263/263 234/234/234 266/266/266
f 266/266/266 234/234/234 236/236/236
f 265/265/265 263/263/263 267/267/267
f 267/267/267 263/263/263 266/266/266
f 252/252/252 265/265/265 268/268/268
f 268/268/268 265/265/265 267/267/267
f 266/266/266 236/236/236 269/269/269
f 236/236/236 270/270/270 269/269/269
f 269/269/269 270/270/270 271/271/271
f 272/272/272 252/252/252 268/268/268
f 272/272/272 254/254/254 252/252/252
f 272/272/272 268/268/268 254/254/254
f 268/268/268 267/267/267 273/273/273
f 268/268/268 273/273/273 254/254/254
f 267/267/267 266/266/266 274/274/274
f 266/266/266 269/269/269 274/274/274
f 267/267/267 274/274/274 273/273/273
f 275/275/275 269/269/269 271/271/271
f 274/274/274 269/269/269 275/275/275
f 273/273/273 274/274/274 276/276/276
f 276/276/276 274/274/274 275/275/275
f 254/254/254 273/273/273 277/277/277
f 277/277/277 273/273/273 276/276/276
f 275/275/275 271/271/271 278/278/278
f 271/271/271 279/279/279 278/278/278
f 278/278/278 279/279/279 280/280/280
f 281/281/281 254/254/254 277/277/277
f 281/281/281 256/256/256 254/254/254
f 281/281/281 277/277/277 256/256/256
f 277/277/277 276/276/276 282/282/282
f 277/277/277 282/282/282 256/256/256
f 276/276/276 275/275/275 283/283/283
f 275/275/275 278/278/278 283/283/283
f 276/276/276 283/283/283 282/282/282
f 284/284/284 278/278/278 280/280/280
f 283/283/283 278/278/278 284/284/284
f 282/282/282 283/283/283 285/285/285
f 285/285/285 283/283/283 284/284/284
f 256/256/256 282/282/282 286/286/286
f 286/286/286 282/282/282 285/285/285
f 284/284/284 280/280/280 287/287/287
f 280/280/280 288/288/288 287/287/287
f 289/289/289 256/256/256 286/286/286
f 289/289/289 258/258/258 256/256/256
f 289/289/289 286/286/286 258/258/258
f 286/286/286 285/285/285 290/290/290
f 286/286/286 290/290/290 258/258/258
f 285/285/285 284/284/284 291/291/291
f 284/284/284 287/287/287 291/291/291
f 285/285/285 291/291/291 290/290/290
f 258/258/258 290/290/290 292/292/292
f 290/290/290 291/291/291 293/293/293
f 292/292/292 290/290/290 293/293/293
f 291/291/291 287/287/287 294/294/294
f 293/293/293 291/291/291 294/294/294
f 295/295/295 258/258/258 292/292/292
f 295/295/295 257/257/257 258/258/258
f 295/295/295 292/292/292 257/257/257
f 292/292/292 293/293/293 296/296/296
f 292/292/292 296/296/296 257/257/257
f 294/294/294 287/287/287 297/297/297
f 287/287/287 288/288/288 297/297/297
f 293/293/293 294/294/294 298/298/298
f 293/293/293 298/298/298 296/296/296
f 294/294/294 297/297/297 299/299/299
f 294/294/294 299/299/299 298/298/298
f 297/297/297 300/300/300 299/299/299
f 299/299/299 300/300/300 301/301/301
f 298/298/298 299/299/299 302/302/302
f 302/302/302 299/299/299 301/301/301
f 296/296/296 298/298/298 303/303/303
f 303/303/303 298/298/298 302/302/302
f 257/257/257 296/296/296 304/304/304
f 304/304/304 296/296/296 303/303/303
f 302/302/302 301/301/301 305/305/305
f 301/301/301 306/306/306 305/305/305
f 305/305/305 306/306/306 307/307/307
f 308/308/308 257/257/257 304/304/304
f 308/308/308 255/255/255 257/257/257
f 308/308/308 304/304/304 255/255/255
f 304/304/304 303/303/303 309/309/309
f 304/304/304 309/309/309 255/255/255
f 303/303/303 302/302/302 310/310/310
f 302/302/302 305/305/305 310/310/310
f 303/303/303 310/310/310 309/309/309
f 311/311/311 305/305/305 307/307/307
f 310/310/310 305/305/305 311/311/311
f 309/309/309 310/310/310 312/312/312
f 312/312/312 310/310/310 311/311/311
f 255/255/255 309/309/309 313/313/313
f 313/313/313 309/309/309 312/312/312
f 311/311/311 307/307/307 314/314/314
f 307/307/307 315/315/315 314/314/314
f 314/314/314 315/315/315 184/184/184
f 316/316/316 255/255/255 313/313/313
f 316/316/316 253/253/253 255/255/255
f 316/316/316 313/313/313 253/253/253
f 313/313/313 312/312/312 317/317/317
f 313/313/313 317/317/317 253/253/253
f 312/312/312 311/311/311 318/318/318
f 311/311/311 314/314/314 318/318/318
f 312/312/312 318/318/318 317/317/317
f 319/319/319 314/314/314 184/184/184
f 318/318/318 314/314/314 319/319/319
f 319/319/319 184/184/184 183/183/183
f 317/317/317 318/318/318 320/320/320
f 320/320/320 318/318/318 319/319/319
f 319/319/319 183/183/183 321/321/321
f 320/320/320 319/319/319 321/321/321
f 321/321/321 183/183/183 196/196/196
f 248/248/248 321/321/321 196/196/196
f 253/253/253 317/317/317 322/322/322
f 322/322/322 317/317/317 320/320/320
f 320/320/320 321/321/321 323/323/323
f 323/323/323 321/321/321 248/248/248
f 322/322/322 320/320/320 323/323/323
f 324/324/324 253/253/253 322/322/322
f 324/324/324 251/251/251 253/253/253
f 324/324/324 322/322/322 251/251/251
f 322/322/322 323/323/323 251/251/251
f 325/325/325 323/323/323 248/248/248
f 251/251/251 323/323/323 325/325/325
f 325/325/325 248/248/248 245/245/245
f 325/325/325 245/245/245 246/246/246
f 326/326/326 246/246/246 251/251/251
f 326/326/326 325/325/325 246/246/246
f 326/326/326 251/251/251 325/325/325
f 329/329/329 328/328/328 327/327/327
f 330/330/330 329/329/329 327/327/327
f 329/329/329 330/330/330 331/331/331
f 332/332/332 329/329/329 331/331/331
f 333/333/333 332/332/332 331/331/331
f 334/334/334 333/333/333 331/331/331
f 335/335/335 333/333/333 334/334/334
f 336/336/336 335/335/335 334/334/334
f 337/337/337 335/335/335 336/336/336
f 338/338/338 337/337/337 336/336/336
f 338/338/338 339/339/339 337/337/337
f 339/339/339 340/340/340 337/337/337
f 341/341/341 340/340/340 339/339/339
f 342/342/342 341/341/341 339/339/339
f 342/342/342 343/343/343 341/341/341
f 343/343/343 344/344/344 341/341/341
f 345/345/345 344/344/344 343/343/343
f 346/346/346 345/345/345 343/343/343
f 346/346/346 347/347/347 345/345/345
f 347/347/347 348/348/348 345/345/345
f 349/349/349 348/348/348 347/347/347
f 350/350/350 349/349/349 347/347/347
f 350/350/350 288/288/288 349/349/349
f 288/288/288 129/129/129 349/349/349
f 351/351/351 129/129/129 288/288/288
f 352/352/352 351/351/351 288/288/288
f 352/352/352 353/353/353 351/351/351
f 353/353/353 354/354/354 351/351/351
f 355/355/355 354/354/354 353/353/353
f 356/356/356 355/355/355 353/353/353
f 356/356/356 357/357/357 355/355/355
f 357/357/357 358/358/358 355/355/355
f 359/359/359 358/358/358 357/357/357
f 360/360/360 359/359/359 357/357/357
f 360/360/360 361/361/361 359/359/359
f 361/361/361 362/362/362 359/359/359
f 363/363/363 362/362/362 361/361/361
f 364/364/364 363/363/363 361/361/361
f 364/364/364 365/365/365 363/363/363
f 365/365/365 366/366/366 363/363/363
f 367/367/367 366/366/366 365/365/365
f 368/368/368 367/367/367 365/365/365
f 371/371/371 370/370/370 369/369/369
f 372/372/372 371/371/371 369/369/369
f 372/372/372 369/369/369 373/373/373
f 369/369/369 374/374/374 373/373/373
f 205/205/205 376/376/376 375/375/375
f 215/215/215 205/205/205 375/375/375
f 379/379/379 378/378/378 377/377/377
f 380/380/380 379/379/379 377/377/377
f 380/380/380 377/377/377 381/381/381
f 382/382/382 380/380/380 381/381/381
f 382/382/382 381/381/381 383/383/383
f 379/379/379 384/384/384 378/378/378
f 384/384/384 385/385/385 378/378/378
f 385/385/385 384/384/384 386/386/386
f 386/386/386 384/384/384 379/379/379
f 387/387/387 385/385/385 386/386/386
f 379/379/379 380/380/380 388/388/388
f 388/388/388 380/380/380 382/382/382
f 387/387/387 386/386/386 389/389/389
f 390/390/390 387/387/387 389/389/389
f 391/391/391 386/386/386 379/379/379
f 391/391/391 379/379/379 388/388/388
f 389/389/389 386/386/386 391/391/391
f 390/390/390 389/389/389 392/392/392
f 393/393/393 390/390/390 392/392/392
f 394/394/394 389/389/389 391/391/391
f 392/392/392 389/389/389 394/394/394
f 393/393/393 392/392/392 395/395/395
f 395/395/395 392/392/392 394/394/394
f 396/396/396 393/393/393 395/395/395
f 396/396/396 395/395/395 397/397/397
f 395/395/395 394/394/394 397/397/397
f 398/398/398 396/396/396 397/397/397
f 394/394/394 391/391/391 399/399/399
f 391/391/391 388/388/388 399/399/399
f 394/394/394 399/399/399 397/397/397
f 398/398/398 397/397/397 400/400/400
f 401/401/401 398/398/398 400/400/400
f 399/399/399 388/388/388 402/402/402
f 402/402/402 388/388/388 382/382/382
f 397/397/397 399/399/399 403/403/403
f 400/400/400 397/397/397 403/403/403
f 403/403/403 399/399/399 402/402/402
f 401/401/401 400/400/400 404/404/404
f 400/400/400 403/403/403 404/404/404
f 405/405/405 401/401/401 404/404/404
f 403/403/403 402/402/402 406/406/406
f 403/403/403 406/406/406 404/404/404
f 402/402/402 382/382/382 407/407/407
f 402/402/402 407/407/407 406/406/406
f 405/405/405 404/404/404 408/408/408
f 409/409/409 405/405/405 408/408/408
f 404/404/404 406/406/406 410/410/410
f 408/408/408 404/404/404 410/410/410
f 409/409/409 408/408/408 411/411/411
f 408/408/408 410/410/410 411/411/411
f 412/412/412 409/409/409 411/411/411
f 410/410/410 406/406/406 413/413/413
f 406/406/406 407/407/407 413/413/413
f 382/382/382 414/414/414 407/407/407
f 414/414/414 382/382/382 383/383/383
f 414/414/414 383/383/383 415/415/415
f 407/407/407 414/414/414 416/416/416
f 416/416/416 414/414/414 415/415/415
f 413/413/413 407/407/407 416/416/416
f 416/416/416 415/415/415 417/417/417
f 410/410/410 413/413/413 418/418/418
f 410/410/410 418/418/418 411/411/411
f 412/412/412 411/411/411 419/419/419
f 420/420/420 412/412/412 419/419/419
f 421/421/421 416/416/416 417/417/417
f 417/417/417 422/422/422 421/421/421
f 413/413/413 416/416/416 423/423/423
f 416/416/416 421/421/421 423/423/423
f 413/413/413 423/423/423 418/418/418
f 422/422/422 424/424/424 421/421/421
f 423/423/423 421/421/421 424/424/424
f 422/422/422 425/425/425 424/424/424
f 411/411/411 418/418/418 426/426/426
f 419/419/419 411/411/411 426/426/426
f 420/420/420 419/419/419 427/427/427
f 419/419/419 426/426/426 427/427/427
f 428/428/428 420/420/420 427/427/427
f 418/418/418 423/423/423 429/429/429
f 426/426/426 418/418/418 429/429/429
f 429/429/429 423/423/423 424/424/424
f 426/426/426 430/430/430 427/427/427
f 427/427/427 430/430/430 428/428/428
f 426/426/426 429/429/429 430/430/430
f 430/430/430 431/431/431 428/428/428
f 429/429/429 432/432/432 430/430/430
f 430/430/430 432/432/432 431/431/431
f 429/429/429 424/424/424 432/432/432
f 432/432/432 433/433/433 431/431/431
f 425/425/425 434/434/434 424/424/424
f 434/434/434 425/425/425 433/433/433
f 424/424/424 434/434/434 432/432/432
f 432/432/432 434/434/434 433/433/433
