g Seat_14
v 0.2409972 -0.2177213 -1.016468
v 0.2723708 -0.1685977 -1.01869
v 0.2742262 -0.1748172 -1.027418
v 0.2400175 -0.2267325 -1.0247
v 0.245487 -0.2230081 -0.9311473
v 0.2442574 -0.2312967 -0.9311455
v 0.2435644 -0.2296597 -0.4094531
v 0.2430486 -0.237886 -0.4094494
v 0.2365258 -0.2203946 -0.2879266
v 0.23617 -0.2298624 -0.2796813
v 0.2696343 -0.1705716 -0.2911419
v 0.2365258 -0.2203946 -0.2879266
v 0.23617 -0.2298624 -0.2796813
v 0.2714925 -0.1768301 -0.2822961
v 0.3087289 -0.09819243 -0.2942327
v 0.238381 -0.2457242 -0.2683898
v 0.2430486 -0.237886 -0.4094494
v 0.2499409 -0.2635269 -0.409425
v 0.2473141 -0.2735196 -0.409425
v 0.2349622 -0.2575687 -0.2573046
v 0.2364599 -0.2826395 -0.409439
v 0.2225033 -0.2638858 -0.2458318
v 0.2797866 -0.1872647 -0.2669879
v 0.3131146 -0.09934966 -0.2858495
v 0.3245678 -0.01394561 -0.2946673
v 0.2803814 -0.19517 -0.2550018
v 0.3291245 -0.1034854 -0.2681225
v 0.3292584 -0.01414581 -0.2861688
v 0.3155276 0.07289765 -0.2938665
v 0.1527912 -0.3150992 -0.2518237
v 0.1627402 -0.3311795 -0.4095379
v 0.0820568 -0.3634549 -0.4096569
v 0.3200924 0.07359589 -0.2854858
v 0.2880477 0.1536704 -0.29414
v 0.2918133 0.1550095 -0.2861352
v 0.2349294 0.2214194 -0.292763
v 0.3363862 0.0759372 -0.2681432
v 0.3460769 -0.01546661 -0.2681079
v 0.3343953 -0.1047537 -0.2568414
v 0.2905672 -0.1901651 -0.243037
v 0.3516204 -0.01589996 -0.2568255
v 0.3325069 -0.1040188 -0.2445617
v 0.2377174 0.2234714 -0.2852032
v 0.1701321 0.2683896 -0.2892059
v 0.168706 0.2744565 -0.2810711
v 0.1204687 0.2987314 -0.2847521
v 0.2524282 0.2337704 -0.2680511
v 0.3082757 0.1621457 -0.2681439
v 0.3418505 0.07658417 -0.2568896
v 0.2562902 -0.1634329 -0.1541271
v 0.1160523 0.3072836 -0.2770794
v 0.1217068 0.3112668 -0.4099102
v 0.1178379 0.318331 -0.4099194
v 0.1137307 0.3434921 -0.4099377
v 0.1111664 0.3227487 -0.267564
v 0.3498836 -0.01608917 -0.2444964
v 0.313801 0.1643088 -0.2568957
v 0.1725765 0.2876681 -0.2668005
v 0.1025954 0.3324863 -0.2573168
v 0.1071825 0.3519931 -0.4099536
v 0.08808997 0.3330075 -0.2458947
v 0.09364951 0.3558407 -0.4099774
v 0.3399447 0.07594574 -0.2445977
v 0.3033442 -0.01363677 -0.1541192
v 0.2574505 0.2369919 -0.2569549
v 0.1698177 0.2952963 -0.2552239
v 0.3124235 0.1635373 -0.2444891
v 0.1810346 0.2951193 -0.2431127
v 0.2563372 0.2354489 -0.2445855
v 0.2709557 0.1416074 -0.1542462
v 0.1618546 0.2567001 -0.1544824
v 0.295093 0.06597748 -0.1541729
v 0.222569 0.2045456 -0.154356
v 0.1976098 0.1033249 -0.07195673
v 0.2212385 -0.00993072 -0.07186274
v 0.2152196 0.04815033 -0.07190058
v 0.2886182 -0.09029204 -0.1541088
v 0.1180154 0.1872922 -0.07212885
v 0.1623083 0.1492416 -0.0720373
v 0.1050097 0.05493622 -0.01878352
v 0.09047507 0.288287 -0.154616
v 0.2104952 -0.06585357 -0.0718542
v 0.18691 -0.1192166 -0.07186762
v 0.1175696 -0.005270075 -0.01873347
v 0.1143682 0.02560517 -0.01875483
v 0.08624823 0.0793454 -0.0188238
v 0.06270117 0.09957124 -0.01887141
v 0.1118618 -0.03499786 -0.01872736
v 0.06594168 0.2103403 -0.07222651
v 2.200268E-07 -2.995796E-07 -5.575196E-07
v 0.03501777 0.111821 -0.01892329
v 0.07938529 -0.08623076 -0.0187591
v -0.02558282 0.1143308 -0.01902827
v 0.09932563 -0.06336578 -0.0187353
v 0.004566412 0.1176828 -0.01897822
v 0.008653784 0.221373 -0.07232478
v 0.1494005 -0.1622281 -0.07190973
v -0.04806679 0.2150668 -0.07241511
v 0.01195151 0.3034091 -0.1547527
v 0.2048762 -0.2223856 -0.1541839
v 0.140198 -0.2674551 -0.15427
v 0.1022147 -0.1951077 -0.0719726
v 0.07792411 -0.3460586 -0.2577709
v -0.06579247 0.2947641 -0.1548766
v 0.002660895 0.3518027 -0.2523535
v 0.005318366 0.3707065 -0.4101306
v -0.08069619 0.3630624 -0.4102691
v -0.07706887 0.3458053 -0.2583551
v -0.1657305 0.315621 -0.2596649
v -0.173827 0.3311325 -0.4104083
v -0.2514242 0.2737094 -0.4105108
v -0.1413517 0.2685471 -0.154989
v -0.1031913 0.1959396 -0.07249933
v -0.2396532 0.2607162 -0.2585858
v -0.05488686 0.104166 -0.01907099
v -0.2043632 0.2222385 -0.155072
v -0.3010044 0.1896921 -0.2584502
v -0.3158675 0.1991513 -0.4105822
v -0.3546004 0.1109604 -0.4106048
v -0.07932412 0.08621186 -0.01910151
v -0.1491613 0.1621554 -0.07255854
v -0.2566943 0.1617612 -0.1551293
v -0.3379061 0.1057272 -0.2586755
v -0.1873403 0.1180331 -0.07260066
v -0.09961968 0.06275605 -0.0191247
v -0.2881042 0.09014497 -0.1551489
v -0.355611 0.01358124 -0.2586968
v -0.3731889 0.01419526 -0.4105902
v -0.362579 -0.08157256 -0.4105261
v -0.1117999 0.03497895 -0.01913203
v -0.210256 0.06578339 -0.07261408
v -0.3031866 0.01160004 -0.1551385
v -0.2212582 0.008483587 -0.07260554
v -0.1176472 0.004519964 -0.01912775
v -0.3455045 -0.07761749 -0.2585998
v -0.1143093 -0.02562408 -0.01910639
v -0.2945821 -0.06612701 -0.1550878
v -0.2149802 -0.04822052 -0.07256769
v -0.2683713 -0.1416849 -0.1550073
v -0.1958579 -0.1033462 -0.07251155
v -0.1041451 -0.05492706 -0.01907649
v -0.08618554 -0.07936309 -0.0190362
v -0.1620686 -0.1493155 -0.07243403
v -0.3147495 -0.1662698 -0.2585003
v -0.222056 -0.2046927 -0.1548998
v -0.3302853 -0.1746646 -0.410429
v -0.2732233 -0.2522977 -0.4102978
v -0.2604113 -0.2401993 -0.2583831
v -0.1894512 -0.3016019 -0.2582366
v -0.1987112 -0.3167776 -0.4101446
v -0.1104771 -0.3554788 -0.4099786
v -0.1615791 -0.2570255 -0.1547765
v -0.1179473 -0.1874942 -0.07234126
v -0.06273065 -0.09966094 -0.01898737
v -0.1054244 -0.3384573 -0.2580773
v -0.03495644 -0.1118436 -0.01893611
v -0.08996484 -0.2884366 -0.1546417
v -0.06570122 -0.2104117 -0.07224421
v -0.01297006 -0.3566226 -0.2590466
v -0.01370766 -0.3740579 -0.4098108
v -0.0114222 -0.3035159 -0.1545037
v 0.02564597 -0.1143509 -0.01883356
v -0.008400201 -0.2214151 -0.07214472
v 0.06630576 -0.29491 -0.154378
v -0.004497613 -0.1176895 -0.01888178
v 0.04830649 -0.2151358 -0.07205317
v 0.05430213 -0.1037063 -0.01879267
v 0.1289324 0.2959958 -1.015551
v 0.1296496 0.301434 -0.9315868
v 0.1247005 0.3083334 -0.9315984
v 0.1238265 0.3036703 -1.023608
v 0.1767475 0.2651022 -1.020369
v 0.1137315 0.3249301 -1.042787
v 0.1168688 0.3449826 -0.9316289
v 0.1091814 0.352291 -0.9316454
v 0.1766744 0.2728989 -1.028517
v 0.2412682 0.2169028 -1.026141
v 0.1048403 0.3330832 -1.05426
v 0.09587286 0.355538 -0.9316686
v 0.2470077 0.2230197 -1.033298
v 0.2919219 0.1493478 -1.024961
v 0.1749441 0.2873801 -1.04452
v 0.09124533 0.3331406 -1.065433
v 0.006704321 0.3699606 -0.9318236
v 0.2978245 0.153569 -1.03248
v 0.3176659 0.06943085 -1.02154
v 0.2549975 0.2315097 -1.043981
v 0.1716695 0.2947543 -1.056519
v 0.3225608 0.07064911 -1.029704
v 0.3259368 -0.01484893 -1.02145
v 0.3307902 -0.01521636 -1.029712
v 0.3107798 -0.09664946 -1.021498
v 0.3370992 0.07432221 -1.043716
v 0.3096358 0.1598618 -1.043966
v 0.2591085 0.236069 -1.054996
v 0.1832111 0.294935 -1.068821
v 0.3150692 0.1633444 -1.054948
v 0.3155834 -0.09823394 -1.029681
v 0.2723708 -0.1685977 -1.01869
v 0.2742262 -0.1748172 -1.027418
v 0.3297254 -0.1029202 -1.043626
v 0.3462875 -0.01585601 -1.043788
v 0.2811167 -0.1873343 -1.043969
v 0.3429323 0.07584809 -1.054755
v 0.3525326 -0.01625884 -1.054767
v 0.3429323 0.07584809 -1.054755
v 0.2576704 0.2350265 -1.067392
v 0.3136414 0.1630173 -1.067436
v 0.2410793 -0.2470682 -1.041876
v 0.2400175 -0.2267325 -1.0247
v 0.2242318 0.204072 -1.157613
v 0.3411703 0.07552949 -1.067144
v 0.3525326 -0.01625884 -1.054767
v 0.3510462 -0.01642364 -1.06721
v 0.33544 -0.1048477 -1.05467
v 0.3297254 -0.1029202 -1.043626
v 0.296758 0.06549896 -1.157425
v 0.2524545 -0.2637808 -0.9311168
v 0.2442574 -0.2312967 -0.9311455
v 0.2816674 -0.1951956 -1.056154
v 0.2370431 -0.2582156 -1.05366
v 0.2489556 -0.2736588 -0.9311187
v 0.2249386 -0.2641006 -1.064994
v 0.23813 -0.2824661 -0.9311321
v 0.1638709 -0.3310708 -0.9312316
v 0.2922903 -0.1903726 -1.068387
v 0.3337295 -0.1043631 -1.067043
v 0.2902822 -0.09076568 -1.157361
v 0.3050075 -0.01411163 -1.157374
v 0.154714 -0.3154886 -1.059614
v 0.2065401 -0.2228616 -1.15744
v 0.2579542 -0.1639078 -1.157382
v 0.2124329 -0.06640655 -1.239898
v 0.07924338 -0.346431 -1.054156
v 0.08292136 -0.3637002 -0.9313512
v -0.01284356 -0.3743045 -0.9315038
v 0.2171557 0.04760102 -1.239943
v 0.2231759 -0.01048248 -1.239905
v 0.1139745 -0.03559966 -1.293383
v 0.1164852 0.02500336 -1.293404
v 0.1888479 -0.1197659 -1.239911
v 0.2726197 0.1411325 -1.157502
v 0.1196851 -0.005871882 -1.293386
v 0.1995464 0.102778 -1.239998
v 0.1642452 0.148696 -1.24008
v 0.08836066 0.07873993 -1.293477
v 0.1071242 0.05433197 -1.293433
v 0.1635183 0.2562241 -1.157736
v 0.002176123 -0.000619196 -1.312512
v 0.0814968 -0.08682647 -1.293411
v 0.03713172 0.111218 -1.293577
v 0.02775962 -0.1149527 -1.293486
v -0.02347024 0.1137289 -1.293678
v -0.03284341 -0.1124466 -1.293589
v -0.07721002 0.08560517 -1.293754
v -0.08407021 -0.07996612 -1.293687
v -0.1096845 0.03437714 -1.293784
v -0.1121964 -0.02622589 -1.293759
v 0.101437 -0.06396514 -1.293389
v 0.1513386 -0.1627762 -1.239953
v 0.1418618 -0.26793 -1.157526
v 0.1041515 -0.195657 -1.240017
v 0.06796882 -0.2953836 -1.157635
v 0.05641471 -0.1043045 -1.293443
v 0.05024253 -0.2156876 -1.240098
v -0.01167611 -0.3569632 -1.053246
v -0.009757928 -0.3039896 -1.157759
v -0.006463098 -0.2219644 -1.240188
v -0.104105 -0.3388309 -1.054465
v -0.1096127 -0.3557254 -0.9316741
v -0.1978466 -0.3170242 -0.9318383
v -0.002383813 -0.1182913 -1.293535
v -0.06376382 -0.2109634 -1.240287
v -0.08830026 -0.2889102 -1.157897
v -0.188132 -0.3019778 -1.054623
v -0.1599144 -0.2575003 -1.158032
v -0.1160099 -0.1880484 -1.240385
v -0.2590913 -0.2405813 -1.05477
v -0.2723584 -0.2525455 -0.9319927
v -0.3294193 -0.1749124 -0.9321239
v -0.06061608 -0.1002627 -1.29364
v -0.1601324 -0.1498721 -1.240475
v -0.2203922 -0.2051688 -1.158157
v -0.3134308 -0.1666495 -1.054901
v -0.2667071 -0.1421609 -1.158263
v -0.1939237 -0.1039004 -1.240553
v -0.3441836 -0.07799225 -1.054987
v -0.3617139 -0.08182036 -0.9322216
v -0.1020318 -0.05552886 -1.293729
v -0.2130455 -0.04877227 -1.240611
v -0.2929179 -0.06660064 -1.158343
v -0.2193238 0.007936711 -1.240649
v -0.301522 0.01112641 -1.158393
v -0.3542895 0.01320649 -1.055015
v -0.1155335 0.003918157 -1.29378
v -0.2083198 0.06524017 -1.240658
v -0.3723257 0.01394868 -0.9322838
v -0.2864418 0.08966767 -1.158406
v -0.3365845 0.1053537 -1.055062
v -0.3537354 0.110715 -0.9322985
v -0.3149935 0.1988925 -0.9322765
v -0.2996856 0.189321 -1.055227
v -0.2550325 0.1612863 -1.158387
v -0.185404 0.1174851 -1.240645
v -0.2383299 0.2603378 -1.054972
v -0.2505608 0.2734641 -0.9322051
v -0.1729725 0.3309945 -0.9321044
v -0.09750466 0.0621518 -1.293776
v -0.1472247 0.1616037 -1.240602
v -0.2027 0.2217673 -1.158327
v -0.1644144 0.3151913 -1.053804
v -0.1396891 0.2680759 -1.158248
v -0.1012547 0.1953854 -1.240541
v -0.07574609 0.3454306 -1.054742
v -0.07983254 0.3628195 -0.9319646
v -0.05277367 0.1035629 -1.293723
v -0.04613183 0.2145102 -1.240459
v -0.06412973 0.2942905 -1.158135
v 0.004853125 0.3517599 -1.060013
v 0.01361594 0.3029355 -1.158007
v 0.09214011 0.287811 -1.157869
v 0.01058799 0.22082 -1.240369
v 0.06787559 0.2097909 -1.24027
v 0.006679297 0.1170822 -1.293631
v 0.1199505 0.1867453 -1.240172
v 0.06481467 0.09896699 -1.293527
v 0.1296496 0.301434 -0.9315868
v 0.1217068 0.3112668 -0.4099102
v 0.1178379 0.318331 -0.4099194
v 0.1247005 0.3083334 -0.9315984
v 0.1168688 0.3449826 -0.9316289
v 0.1137307 0.3434921 -0.4099377
v 0.1071825 0.3519931 -0.4099536
v 0.1091814 0.352291 -0.9316454
v 0.09364951 0.3558407 -0.4099774
v 0.09587286 0.355538 -0.9316686
v 0.005318366 0.3707065 -0.4101306
v 0.006704321 0.3699606 -0.9318236
v -0.07983254 0.3628195 -0.9319646
v -0.08069619 0.3630624 -0.4102691
v -0.173827 0.3311325 -0.4104083
v -0.1729725 0.3309945 -0.9321044
v -0.2505608 0.2734641 -0.9322051
v -0.2514242 0.2737094 -0.4105108
v -0.3158675 0.1991513 -0.4105822
v -0.3149935 0.1988925 -0.9322765
v -0.3537354 0.110715 -0.9322985
v -0.3546004 0.1109604 -0.4106048
v -0.3731889 0.01419526 -0.4105902
v -0.3723257 0.01394868 -0.9322838
v -0.3302853 -0.1746646 -0.410429
v -0.3294193 -0.1749124 -0.9321239
v -0.2723584 -0.2525455 -0.9319927
v -0.2732233 -0.2522977 -0.4102978
v -0.1987112 -0.3167776 -0.4101446
v -0.1978466 -0.3170242 -0.9318383
v -0.1096127 -0.3557254 -0.9316741
v -0.1104771 -0.3554788 -0.4099786
v -0.01370766 -0.3740579 -0.4098108
v -0.01284356 -0.3743045 -0.9315038
v 0.08292136 -0.3637002 -0.9313512
v 0.0820568 -0.3634549 -0.4096569
v 0.1627402 -0.3311795 -0.4095379
v 0.1638709 -0.3310708 -0.9312316
v 0.23813 -0.2824661 -0.9311321
v 0.2364599 -0.2826395 -0.409439
v 0.2473141 -0.2735196 -0.409425
v 0.2489556 -0.2736588 -0.9311187
v 0.2499409 -0.2635269 -0.409425
v 0.2430486 -0.237886 -0.4094494
v 0.2442574 -0.2312967 -0.9311455
v 0.2524545 -0.2637808 -0.9311168
v 0.2489556 -0.2736588 -0.9311187
v 0.2473141 -0.2735196 -0.409425
v 0.3297254 -0.1029202 -1.043626
v 0.3462875 -0.01585601 -1.043788
v 0.2349294 0.2214194 -0.292763
v 0.1701321 0.2683896 -0.2892059
v 0.184161 0.2578805 -0.3000518
v 0.2358662 0.2218063 -0.3034356
v 0.2880477 0.1536704 -0.29414
v 0.2886837 0.1539768 -0.3043432
v 0.3155276 0.07289765 -0.2938665
v 0.1269875 0.2934116 -0.2948266
v 0.1204687 0.2987314 -0.2847521
v 0.129616 0.3046188 -0.4098938
v 0.1217068 0.3112668 -0.4099102
v 0.2518923 0.2310226 -0.4096563
v 0.1374042 0.2951645 -0.9315709
v 0.1296496 0.301434 -0.9315868
v 0.1926653 0.2696567 -0.4097729
v 0.136097 0.290029 -1.006814
v 0.1289324 0.2959958 -1.015551
v 0.2004244 0.26556 -0.9314519
v 0.1905071 0.2528305 -1.013474
v 0.1767475 0.2651022 -1.020369
v 0.2398058 0.2154599 -1.017889
v 0.2412682 0.2169028 -1.026141
v 0.2527578 0.2307809 -0.9313494
v 0.2909759 0.1484946 -1.016207
v 0.2919219 0.1493478 -1.024961
v 0.3067586 0.1602072 -0.4095312
v 0.3075851 0.1598972 -0.9312255
v 0.3175139 0.06943452 -1.012015
v 0.3176659 0.06943085 -1.02154
v 0.3347124 0.07419404 -0.9311401
v 0.3338462 0.07444061 -0.4094451
v 0.3260119 -0.01480743 -1.011756
v 0.3259368 -0.01484893 -1.02145
v 0.3442588 -0.01594879 -0.9310815
v 0.3106167 -0.09661894 -1.011971
v 0.3107798 -0.09664946 -1.021498
v 0.3434203 -0.01573028 -0.4093878
v 0.3156725 0.07281098 -0.3033642
v 0.3245678 -0.01394561 -0.2946673
v 0.3247155 -0.01406402 -0.3040368
v 0.3087289 -0.09819243 -0.2942327
v 0.3273957 -0.1023929 -0.9310686
v 0.280461 -0.1520022 -1.009999
v 0.2723708 -0.1685977 -1.01869
v 0.3089052 -0.09816924 -0.3037292
v 0.2696343 -0.1705716 -0.2911419
v 0.3265283 -0.1021463 -0.4093744
v 0.277513 -0.154407 -0.3015228
v 0.2365258 -0.2203946 -0.2879266
v 0.2935647 -0.1585403 -0.9310985
v 0.2448342 -0.2093497 -1.00756
v 0.2409972 -0.2177213 -1.016468
v 0.2898975 -0.1620962 -0.4094085
v 0.2498215 -0.2138687 -0.9311449
v 0.245487 -0.2230081 -0.9311473
v 0.2477959 -0.2203006 -0.4094494
v 0.2435644 -0.2296597 -0.4094531
v 0.2402227 -0.2124881 -0.2978539
vt 0.1473389 0.9785156
vt 0.1470947 0.9780273
vt 0.1469727 0.9780273
vt 0.1472168 0.9790039
vt 0.1485596 0.9785156
vt 0.1485596 0.9785156
vt 0.1557617 0.9765625
vt 0.1558838 0.9765625
vt 0.1575928 0.9760742
vt 0.1577148 0.9760742
vt 0.1518555 0.9750977
vt 0.1523438 0.9746094
vt 0.1523438 0.9746094
vt 0.1518555 0.9750977
vt 0.1514893 0.9755859
vt 0.1523438 0.9746094
vt 0.15271 0.9750977
vt 0.15271 0.9750977
vt 0.15271 0.9750977
vt 0.1523438 0.9746094
vt 0.152832 0.9750977
vt 0.1522217 0.9746094
vt 0.1518555 0.9750977
vt 0.1514893 0.9755859
vt 0.151001 0.9755859
vt 0.1518555 0.9750977
vt 0.1514893 0.9755859
vt 0.151001 0.9755859
vt 0.1503906 0.9760742
vt 0.1524658 0.9741211
vt 0.1529541 0.9746094
vt 0.1530762 0.9736328
vt 0.1503906 0.9760742
vt 0.1499023 0.9755859
vt 0.1499023 0.9755859
vt 0.149292 0.9755859
vt 0.1503906 0.9760742
vt 0.151001 0.9755859
vt 0.1514893 0.9755859
vt 0.1518555 0.9750977
vt 0.151001 0.9755859
vt 0.1514893 0.9755859
vt 0.149292 0.9755859
vt 0.1489258 0.9750977
vt 0.1489258 0.9750977
vt 0.1485596 0.9746094
vt 0.149292 0.9755859
vt 0.1499023 0.9755859
vt 0.1503906 0.9760742
vt 0.1514893 0.9750977
vt 0.1485596 0.9746094
vt 0.1480713 0.9750977
vt 0.1480713 0.9750977
vt 0.1480713 0.9750977
vt 0.1485596 0.9746094
vt 0.151001 0.9755859
vt 0.1499023 0.9755859
vt 0.1489258 0.9750977
vt 0.1485596 0.9746094
vt 0.1480713 0.9750977
vt 0.1485596 0.9746094
vt 0.1480713 0.9750977
vt 0.1503906 0.9760742
vt 0.1508789 0.9750977
vt 0.149292 0.9755859
vt 0.1489258 0.9750977
vt 0.1499023 0.9755859
vt 0.1489258 0.9750977
vt 0.1494141 0.9755859
vt 0.1500244 0.9750977
vt 0.149292 0.9750977
vt 0.1503906 0.9755859
vt 0.1496582 0.9750977
vt 0.1501465 0.9746094
vt 0.1506348 0.9746094
vt 0.1503906 0.9746094
vt 0.1512451 0.9750977
vt 0.1496582 0.9746094
vt 0.1499023 0.9746094
vt 0.1502686 0.9741211
vt 0.1490479 0.9746094
vt 0.151001 0.9746094
vt 0.151123 0.9746094
vt 0.1505127 0.9741211
vt 0.1503906 0.9741211
vt 0.1501465 0.9741211
vt 0.1500244 0.9741211
vt 0.1506348 0.9741211
vt 0.1495361 0.9741211
vt 0.1503906 0.9736328
vt 0.1499023 0.9741211
vt 0.1508789 0.9741211
vt 0.1499023 0.9736328
vt 0.1507568 0.9741211
vt 0.1499023 0.9741211
vt 0.1494141 0.9741211
vt 0.1513672 0.9741211
vt 0.149292 0.9736328
vt 0.1489258 0.9741211
vt 0.1518555 0.9746094
vt 0.1519775 0.9741211
vt 0.1514893 0.9741211
vt 0.1525879 0.9736328
vt 0.1488037 0.9736328
vt 0.1484375 0.9741211
vt 0.1478271 0.9746094
vt 0.1477051 0.9736328
vt 0.1483154 0.9736328
vt 0.1484375 0.9731445
vt 0.1479492 0.9731445
vt 0.1480713 0.9726563
vt 0.1489258 0.9731445
vt 0.1494141 0.9736328
vt 0.1485596 0.9726563
vt 0.1499023 0.9736328
vt 0.1490479 0.9731445
vt 0.1489258 0.972168
vt 0.1485596 0.972168
vt 0.1490479 0.9711914
vt 0.1499023 0.9736328
vt 0.1495361 0.9731445
vt 0.149292 0.9726563
vt 0.149292 0.9716797
vt 0.1496582 0.9731445
vt 0.1500244 0.9736328
vt 0.1496582 0.972168
vt 0.1499023 0.9716797
vt 0.1497803 0.9711914
vt 0.151123 0.9711914
vt 0.1501465 0.9731445
vt 0.1499023 0.9726563
vt 0.1500244 0.972168
vt 0.1501465 0.9726563
vt 0.1502686 0.9731445
vt 0.1503906 0.9716797
vt 0.1503906 0.9731445
vt 0.1503906 0.972168
vt 0.1503906 0.9726563
vt 0.1508789 0.972168
vt 0.1506348 0.9726563
vt 0.1505127 0.9731445
vt 0.1506348 0.9731445
vt 0.151001 0.9726563
vt 0.151001 0.9716797
vt 0.1512451 0.972168
vt 0.151123 0.9711914
vt 0.1517334 0.9711914
vt 0.1514893 0.9716797
vt 0.1518555 0.972168
vt 0.1522217 0.972168
vt 0.15271 0.9726563
vt 0.1514893 0.9726563
vt 0.151123 0.9731445
vt 0.1507568 0.9736328
vt 0.1523438 0.9726563
vt 0.1508789 0.9736328
vt 0.1518555 0.9731445
vt 0.1513672 0.9731445
vt 0.1524658 0.9731445
vt 0.1529541 0.9731445
vt 0.1519775 0.9731445
vt 0.151001 0.9736328
vt 0.1514893 0.9736328
vt 0.1520996 0.9736328
vt 0.1508789 0.9736328
vt 0.1514893 0.9736328
vt 0.1508789 0.9741211
vt 0.1485596 0.9609375
vt 0.1480713 0.9604492
vt 0.1480713 0.9604492
vt 0.1485596 0.9609375
vt 0.1489258 0.9604492
vt 0.1485596 0.9609375
vt 0.1480713 0.9604492
vt 0.1480713 0.9604492
vt 0.1489258 0.9604492
vt 0.149292 0.9599609
vt 0.1485596 0.9609375
vt 0.1480713 0.9604492
vt 0.149292 0.9599609
vt 0.1499023 0.9599609
vt 0.1489258 0.9604492
vt 0.1485596 0.9609375
vt 0.1478271 0.9614258
vt 0.1499023 0.9599609
vt 0.1503906 0.9599609
vt 0.149292 0.9599609
vt 0.1489258 0.9604492
vt 0.1503906 0.9599609
vt 0.151001 0.9599609
vt 0.151001 0.9599609
vt 0.1514893 0.9599609
vt 0.1503906 0.9599609
vt 0.1499023 0.9599609
vt 0.149292 0.9599609
vt 0.1489258 0.9604492
vt 0.1499023 0.9599609
vt 0.1514893 0.9599609
vt 0.1518555 0.9604492
vt 0.1518555 0.9604492
vt 0.1514893 0.9599609
vt 0.151001 0.9599609
vt 0.1518555 0.9604492
vt 0.1503906 0.9599609
vt 0.151001 0.9599609
vt 0.1503906 0.9599609
vt 0.1494141 0.9599609
vt 0.1499023 0.9599609
vt 0.1523438 0.9609375
vt 0.1523438 0.9609375
vt 0.1496582 0.9604492
vt 0.1503906 0.9599609
vt 0.151001 0.9599609
vt 0.151001 0.9599609
vt 0.1514893 0.9599609
vt 0.1514893 0.9599609
vt 0.1503906 0.9604492
vt 0.15271 0.9604492
vt 0.15271 0.9604492
vt 0.1518555 0.9604492
vt 0.1523438 0.9609375
vt 0.15271 0.9604492
vt 0.1522217 0.9609375
vt 0.152832 0.9604492
vt 0.1529541 0.9614258
vt 0.1518555 0.9604492
vt 0.1514893 0.9599609
vt 0.1512451 0.9604492
vt 0.1508789 0.9604492
vt 0.1524658 0.9614258
vt 0.1518555 0.9609375
vt 0.1514893 0.9609375
vt 0.151001 0.9609375
vt 0.1525879 0.9619141
vt 0.1530762 0.9619141
vt 0.1529541 0.9624023
vt 0.1503906 0.9609375
vt 0.1506348 0.9609375
vt 0.1506348 0.9614258
vt 0.1503906 0.9614258
vt 0.151123 0.9609375
vt 0.1500244 0.9604492
vt 0.1505127 0.9614258
vt 0.1501465 0.9609375
vt 0.1499023 0.9609375
vt 0.1501465 0.9614258
vt 0.1502686 0.9614258
vt 0.149292 0.9609375
vt 0.1503906 0.9619141
vt 0.1508789 0.9614258
vt 0.1499023 0.9614258
vt 0.151001 0.9619141
vt 0.1499023 0.9619141
vt 0.1508789 0.9619141
vt 0.1499023 0.9619141
vt 0.1506348 0.9624023
vt 0.1501465 0.9624023
vt 0.1503906 0.9624023
vt 0.1507568 0.9614258
vt 0.1513672 0.9614258
vt 0.1519775 0.9614258
vt 0.1514893 0.9614258
vt 0.1520996 0.9619141
vt 0.1508789 0.9619141
vt 0.1514893 0.9619141
vt 0.1524658 0.9624023
vt 0.1519775 0.9624023
vt 0.1514893 0.9619141
vt 0.1523438 0.9628906
vt 0.15271 0.9633789
vt 0.1522217 0.9638672
vt 0.1508789 0.9619141
vt 0.1513672 0.9624023
vt 0.1518555 0.9628906
vt 0.1518555 0.9633789
vt 0.1514893 0.9628906
vt 0.151123 0.9624023
vt 0.1514893 0.9638672
vt 0.1517334 0.9643555
vt 0.151123 0.9643555
vt 0.1507568 0.9624023
vt 0.151001 0.9628906
vt 0.1512451 0.9633789
vt 0.151001 0.9638672
vt 0.1508789 0.9633789
vt 0.1506348 0.9628906
vt 0.1503906 0.9638672
vt 0.1503906 0.9643555
vt 0.1505127 0.9624023
vt 0.1503906 0.9628906
vt 0.1503906 0.9633789
vt 0.1501465 0.9628906
vt 0.1500244 0.9633789
vt 0.1499023 0.9638672
vt 0.1502686 0.9624023
vt 0.1499023 0.9628906
vt 0.1497803 0.9643555
vt 0.1496582 0.9633789
vt 0.149292 0.9638672
vt 0.1490479 0.9643555
vt 0.1485596 0.9638672
vt 0.1489258 0.9633789
vt 0.149292 0.9628906
vt 0.1496582 0.9624023
vt 0.1485596 0.9628906
vt 0.1480713 0.9633789
vt 0.1479492 0.9624023
vt 0.1500244 0.9624023
vt 0.1495361 0.9624023
vt 0.1490479 0.9628906
vt 0.1484375 0.9624023
vt 0.1489258 0.9624023
vt 0.1494141 0.9619141
vt 0.1483154 0.9619141
vt 0.1477051 0.9619141
vt 0.1499023 0.9619141
vt 0.149292 0.9619141
vt 0.1488037 0.9619141
vt 0.1484375 0.9614258
vt 0.1489258 0.9614258
vt 0.1490479 0.9609375
vt 0.1494141 0.9614258
vt 0.1495361 0.9614258
vt 0.1499023 0.9619141
vt 0.1496582 0.9609375
vt 0.1500244 0.9614258
vt 0.1496582 0.9643555
vt 0.1496582 0.9711914
vt 0.1496582 0.9711914
vt 0.1496582 0.9643555
vt 0.1496582 0.9643555
vt 0.1496582 0.9711914
vt 0.1496582 0.9711914
vt 0.1496582 0.9643555
vt 0.1497803 0.9711914
vt 0.1497803 0.9643555
vt 0.1499023 0.9711914
vt 0.1499023 0.9643555
vt 0.1500244 0.9643555
vt 0.1500244 0.9711914
vt 0.1502686 0.9711914
vt 0.1502686 0.9643555
vt 0.1503906 0.9643555
vt 0.1503906 0.9711914
vt 0.1506348 0.9711914
vt 0.1506348 0.9643555
vt 0.1507568 0.9643555
vt 0.1507568 0.9711914
vt 0.151001 0.9711914
vt 0.151001 0.9643555
vt 0.1513672 0.9711914
vt 0.1513672 0.9643555
vt 0.1514893 0.9643555
vt 0.1514893 0.9711914
vt 0.1517334 0.9711914
vt 0.1517334 0.9643555
vt 0.1518555 0.9643555
vt 0.1518555 0.9711914
vt 0.1520996 0.9711914
vt 0.1520996 0.9643555
vt 0.1522217 0.9643555
vt 0.1522217 0.9711914
vt 0.1523438 0.9711914
vt 0.1523438 0.9643555
vt 0.1525879 0.9643555
vt 0.1525879 0.9711914
vt 0.1525879 0.9711914
vt 0.1525879 0.9643555
vt 0.1496582 0.9711914
vt 0.1496582 0.9711914
vt 0.1496582 0.9643555
vt 0.1496582 0.9643555
vt 0.1496582 0.9643555
vt 0.1496582 0.9711914
vt 0.1514893 0.9599609
vt 0.151001 0.9599609
vt 0.2111816 0.9750977
vt 0.2115479 0.9765625
vt 0.2122803 0.9760742
vt 0.2120361 0.9750977
vt 0.2109375 0.9731445
vt 0.2119141 0.9731445
vt 0.2108154 0.9711914
vt 0.2125244 0.9770508
vt 0.2121582 0.9775391
vt 0.2143555 0.9775391
vt 0.2142334 0.9780273
vt 0.2141113 0.9746094
vt 0.2213135 0.9770508
vt 0.2214355 0.9780273
vt 0.2142334 0.9760742
vt 0.2225342 0.9770508
vt 0.2230225 0.9775391
vt 0.2211914 0.9760742
vt 0.2227783 0.9760742
vt 0.2236328 0.9765625
vt 0.2231445 0.9750977
vt 0.223999 0.9750977
vt 0.2213135 0.9746094
vt 0.2232666 0.9731445
vt 0.2242432 0.9731445
vt 0.2141113 0.9731445
vt 0.2213135 0.9731445
vt 0.2232666 0.9711914
vt 0.2243652 0.9711914
vt 0.2213135 0.9711914
vt 0.2141113 0.9711914
vt 0.2232666 0.9692383
vt 0.2242432 0.96875
vt 0.2213135 0.9692383
vt 0.2230225 0.9672852
vt 0.223999 0.9672852
vt 0.2141113 0.9692383
vt 0.2119141 0.9711914
vt 0.2109375 0.96875
vt 0.2119141 0.96875
vt 0.2111816 0.9667969
vt 0.2213135 0.9672852
vt 0.2227783 0.9658203
vt 0.2236328 0.9658203
vt 0.2121582 0.9672852
vt 0.2115479 0.965332
vt 0.2142334 0.9672852
vt 0.2124023 0.9658203
vt 0.2121582 0.9643555
vt 0.2213135 0.9658203
vt 0.2225342 0.9648438
vt 0.2230225 0.9648438
vt 0.2142334 0.9658203
vt 0.2213135 0.9648438
vt 0.2214355 0.9643555
vt 0.2143555 0.9648438
vt 0.2142334 0.9638672
vt 0.2126465 0.9648438
vn 0.9365234 -0.3237305 0.1345215
vn 0.8164063 -0.46875 0.3374023
vn 0.6992188 -0.4016113 0.5913086
vn 0.9833984 -0.04937744 0.175415
vn 0.9604492 -0.2780762 -0.009689331
vn 0.9858398 0.1679688 -0.005146027
vn 0.9643555 -0.2646484 0.01358795
vn 0.9848633 0.1743164 0.01194763
vn 0.9550781 -0.2712402 -0.118103
vn 0.9829102 -0.001643181 -0.1843262
vn 0.7988281 -0.4980469 -0.3371582
vn 0.9550781 -0.2712402 -0.118103
vn 0.9829102 -0.001643181 -0.1843262
vn 0.668457 -0.4208984 -0.612793
vn 0.9077148 -0.3261719 -0.263916
vn 0.9765625 -0.185791 -0.1068726
vn 0.9848633 0.1743164 0.01194763
vn 0.9946289 0.1022339 0.0165863
vn 0.8056641 -0.5913086 0.03231812
vn 0.7402344 -0.6689453 0.07073975
vn 0.5634766 -0.8256836 0.03170776
vn 0.5869141 -0.7548828 0.2915039
vn 0.7084961 -0.449707 -0.543457
vn 0.7314453 -0.2753906 -0.6235352
vn 0.9677734 -0.03741455 -0.2493896
vn 0.8037109 -0.5600586 -0.2020264
vn 0.7617188 -0.2919922 -0.578125
vn 0.7700195 -0.02954102 -0.637207
vn 0.949707 0.2092285 -0.2337646
vn 0.4536133 -0.8554688 0.2504883
vn 0.4665527 -0.8837891 0.02919006
vn 0.2371826 -0.9711914 0.02638245
vn 0.7509766 0.1645508 -0.6396484
vn 0.8613281 0.4724121 -0.1866455
vn 0.6660156 0.3630371 -0.6518555
vn 0.6801758 0.7099609 -0.1813965
vn 0.7768555 0.1658936 -0.6074219
vn 0.7983398 -0.03308105 -0.6015625
vn 0.9101563 -0.3461914 -0.2266846
vn 0.7719727 -0.512207 0.3764648
vn 0.987793 -0.04019165 -0.1490479
vn 0.8725586 -0.2883301 0.3947754
vn 0.5195313 0.5629883 -0.6425781
vn 0.515625 0.8051758 -0.2919922
vn 0.4055176 0.6455078 -0.6474609
vn 0.7524414 0.6494141 -0.1101074
vn 0.5395508 0.5810547 -0.609375
vn 0.690918 0.3688965 -0.621582
vn 0.9667969 0.2026367 -0.1544189
vn 0.6918945 -0.4499512 0.5649414
vn 0.8896484 0.4089355 -0.2019043
vn 0.753418 0.6572266 0.01198578
vn 0.9643555 0.2644043 0.01281738
vn 0.9438477 0.3305664 0.0177002
vn 0.8183594 0.5644531 -0.1084595
vn 0.90625 -0.03790283 0.4213867
vn 0.8740234 0.4575195 -0.1629639
vn 0.432373 0.6884766 -0.5820313
vn 0.3979492 0.9145508 0.0748291
vn 0.4882813 0.8720703 0.03237915
vn 0.2246094 0.9306641 0.2890625
vn 0.1782227 0.9833984 0.03067017
vn 0.8886719 0.1856689 0.4196777
vn 0.8164063 -0.03344727 0.5766602
vn 0.6650391 0.706543 -0.2416992
vn 0.4870605 0.8476563 -0.2108154
vn 0.8027344 0.4208984 0.4223633
vn 0.4790039 0.7944336 0.3735352
vn 0.6572266 0.6430664 0.3933105
vn 0.7226563 0.3789063 0.5776367
vn 0.4333496 0.7036133 0.5629883
vn 0.7998047 0.1672363 0.5766602
vn 0.590332 0.5683594 0.5732422
vn 0.5522461 0.2900391 0.7817383
vn 0.6240234 -0.0255127 0.78125
vn 0.6103516 0.1278076 0.7817383
vn 0.7802734 -0.2504883 0.5732422
vn 0.3337402 0.5288086 0.7802734
vn 0.4519043 0.4301758 0.78125
vn 0.3088379 0.1628418 0.9370117
vn 0.244873 0.7915039 0.5600586
vn 0.5952148 -0.1870117 0.7817383
vn 0.5268555 -0.3344727 0.78125
vn 0.3481445 -0.01398468 0.9375
vn 0.3366699 0.07183838 0.9389648
vn 0.2498779 0.2376709 0.9384766
vn 0.1859131 0.2961426 0.9370117
vn 0.3288574 -0.1032715 0.9389648
vn 0.1846924 0.597168 0.7802734
vn -0.001653671 0.0004692078 1
vn 0.1015015 0.3310547 0.9379883
vn 0.2304688 -0.2575684 0.9384766
vn -0.078125 0.3381348 0.9379883
vn 0.2941895 -0.1870117 0.9375
vn 0.01295471 0.3503418 0.9365234
vn 0.02462769 0.6254883 0.7797852
vn 0.4162598 -0.4658203 0.7807617
vn -0.1398926 0.6098633 0.7797852
vn 0.03549194 0.8227539 0.5673828
vn 0.5517578 -0.6166992 0.5615234
vn 0.3828125 -0.7285156 0.5678711
vn 0.2893066 -0.5546875 0.7802734
vn 0.2266846 -0.940918 0.2507324
vn -0.1866455 0.8017578 0.5673828
vn 0.0451355 0.9672852 0.2492676
vn 0.04501343 0.9985352 0.02780151
vn -0.2137451 0.9765625 0.02482605
vn -0.2115479 0.9448242 0.2498779
vn -0.4489746 0.8574219 0.2509766
vn -0.463623 0.8857422 0.02456665
vn -0.6806641 0.7319336 0.0242157
vn -0.3837891 0.7314453 0.5639648
vn -0.2912598 0.5546875 0.7792969
vn -0.6582031 0.7089844 0.2521973
vn -0.1638184 0.3105469 0.9365234
vn -0.5610352 0.605957 0.5634766
vn -0.8173828 0.5180664 0.2514648
vn -0.8442383 0.5351563 0.02412415
vn -0.9550781 0.2958984 0.02397156
vn -0.2365723 0.2546387 0.9375
vn -0.4260254 0.4592285 0.7797852
vn -0.6977539 0.4418945 0.5639648
vn -0.9248047 0.286377 0.2512207
vn -0.5297852 0.3352051 0.7792969
vn -0.2971191 0.1878662 0.9360352
vn -0.7890625 0.2441406 0.5639648
vn -0.9672852 0.04016113 0.2512207
vn -0.9990234 0.04141235 0.02409363
vn -0.9750977 -0.2214355 0.02418518
vn -0.3322754 0.1029663 0.9375
vn -0.5986328 0.1851807 0.7792969
vn -0.8251953 0.03442383 0.5639648
vn -0.6264648 0.02627563 0.7792969
vn -0.3513184 0.01496887 0.9360352
vn -0.9438477 -0.2141113 0.2514648
vn -0.3391113 -0.0760498 0.9375
vn -0.8051758 -0.1824951 0.5639648
vn -0.6108398 -0.1380615 0.7797852
vn -0.7319336 -0.3823242 0.5644531
vn -0.5556641 -0.2895508 0.7792969
vn -0.3117676 -0.1618652 0.9360352
vn -0.2556152 -0.2346191 0.9379883
vn -0.4599609 -0.4243164 0.7797852
vn -0.8574219 -0.4484863 0.251709
vn -0.6064453 -0.5600586 0.5644531
vn -0.8857422 -0.463623 0.02452087
vn -0.7333984 -0.6791992 0.02481079
vn -0.7104492 -0.6572266 0.2521973
vn -0.5185547 -0.8168945 0.2524414
vn -0.5351563 -0.8442383 0.02528381
vn -0.2958984 -0.9550781 0.02554321
vn -0.442627 -0.6962891 0.5649414
vn -0.3361816 -0.527832 0.7797852
vn -0.1890869 -0.295166 0.9365234
vn -0.2868652 -0.9238281 0.2536621
vn -0.104126 -0.3303223 0.9379883
vn -0.2446289 -0.7880859 0.5649414
vn -0.1861572 -0.5966797 0.7802734
vn -0.04025269 -0.9667969 0.2519531
vn -0.04144287 -0.9990234 0.02587891
vn -0.03521729 -0.8242188 0.5649414
vn 0.07806396 -0.3371582 0.9379883
vn -0.02719116 -0.6245117 0.7802734
vn 0.1862793 -0.8012695 0.5683594
vn -0.0160675 -0.3493652 0.9370117
vn 0.1436768 -0.6083984 0.7802734
vn 0.1607666 -0.3095703 0.9370117
vn 0.6982422 0.6958008 0.1680908
vn 0.7402344 0.6723633 -0.008499146
vn 0.9609375 0.2773438 -0.002826691
vn 0.8647461 0.4758301 0.159668
vn 0.5263672 0.7114258 0.4658203
vn 0.7763672 0.6254883 0.08129883
vn 0.9414063 0.3376465 -0.007797241
vn 0.479248 0.8774414 -0.02868652
vn 0.4602051 0.6459961 0.6088867
vn 0.6103516 0.5878906 0.5307617
vn 0.3774414 0.9223633 -0.0836792
vn 0.1765137 0.9838867 -0.03149414
vn 0.4995117 0.5107422 0.699707
vn 0.7885742 0.4108887 0.4577637
vn 0.4804688 0.7211914 0.4990234
vn 0.2261963 0.921875 -0.314209
vn 0.04431152 0.9985352 -0.02973938
vn 0.6098633 0.3161621 0.7265625
vn 0.9272461 0.1950684 0.3200684
vn 0.5522461 0.590332 0.5888672
vn 0.5009766 0.84375 0.1928711
vn 0.7099609 0.1469727 0.6889648
vn 0.9599609 -0.03933716 0.2768555
vn 0.734375 -0.03059387 0.6782227
vn 0.9042969 -0.3088379 0.2946777
vn 0.7504883 0.1561279 0.6420898
vn 0.6826172 0.3513184 0.640625
vn 0.6630859 0.7036133 0.2556152
vn 0.4816895 0.7929688 -0.373291
vn 0.8701172 0.4560547 0.1864014
vn 0.7148438 -0.2592773 0.6494141
vn 0.8164063 -0.46875 0.3374023
vn 0.6992188 -0.4016113 0.5913086
vn 0.7475586 -0.2849121 0.6000977
vn 0.7675781 -0.03114319 0.640625
vn 0.730957 -0.440918 0.5205078
vn 0.9624023 0.2015381 0.1831055
vn 0.9824219 -0.04016113 0.1816406
vn 0.9624023 0.2015381 0.1831055
vn 0.659668 0.6425781 -0.3896484
vn 0.8046875 0.4211426 -0.4187012
vn 0.9677734 -0.2314453 0.1012573
vn 0.9833984 -0.04937744 0.175415
vn 0.5927734 0.5668945 -0.5722656
vn 0.890625 0.1856689 -0.4152832
vn 0.9824219 -0.04016113 0.1816406
vn 0.9082031 -0.03829956 -0.4165039
vn 0.9042969 -0.3430176 0.2546387
vn 0.7475586 -0.2849121 0.6000977
vn 0.8012695 0.166626 -0.5742188
vn 0.9951172 0.0994873 -0.00969696
vn 0.9858398 0.1679688 -0.005146027
vn 0.8095703 -0.5507813 0.2028809
vn 0.737793 -0.6704102 -0.07519531
vn 0.8032227 -0.5952148 -0.02801514
vn 0.5869141 -0.746582 -0.3134766
vn 0.5625 -0.8261719 -0.02981567
vn 0.4660645 -0.8842773 -0.02787781
vn 0.7739258 -0.512207 -0.3723145
vn 0.875 -0.2885742 -0.388916
vn 0.7817383 -0.2504883 -0.5712891
vn 0.8183594 -0.0340271 -0.5742188
vn 0.4484863 -0.8491211 -0.2783203
vn 0.5532227 -0.6171875 -0.5595703
vn 0.6933594 -0.4499512 -0.5629883
vn 0.5976563 -0.1877441 -0.7792969
vn 0.2246094 -0.9331055 -0.2805176
vn 0.2371826 -0.9711914 -0.02583313
vn -0.04135132 -0.9990234 -0.02615356
vn 0.612793 0.1270752 -0.7797852
vn 0.6264648 -0.02624512 -0.7792969
vn 0.3320313 -0.104126 -0.9375
vn 0.3398438 0.07098389 -0.9379883
vn 0.5297852 -0.3352051 -0.7792969
vn 0.7246094 0.378418 -0.5761719
vn 0.3513184 -0.01488495 -0.9360352
vn 0.5546875 0.2893066 -0.7802734
vn 0.4545898 0.4294434 -0.7802734
vn 0.2529297 0.2368164 -0.9379883
vn 0.3117676 0.1619873 -0.9360352
vn 0.4353027 0.7021484 -0.5639648
vn 0.001653671 -0.0004708767 -1
vn 0.2335205 -0.2583008 -0.9375
vn 0.1046143 0.3300781 -0.9379883
vn 0.08117676 -0.3381348 -0.9375
vn -0.07501221 0.3371582 -0.9384766
vn -0.1010132 -0.3310547 -0.9379883
vn -0.2335205 0.2536621 -0.9384766
vn -0.2526855 -0.2354736 -0.9384766
vn -0.3291016 0.1021118 -0.9389648
vn -0.3361816 -0.07696533 -0.9384766
vn 0.2973633 -0.1878662 -0.9360352
vn 0.4187012 -0.4665527 -0.7792969
vn 0.3845215 -0.7290039 -0.565918
vn 0.291748 -0.5551758 -0.7788086
vn 0.1882324 -0.8022461 -0.5668945
vn 0.1638184 -0.3105469 -0.9365234
vn 0.1462402 -0.609375 -0.7792969
vn -0.03900146 -0.9580078 -0.2834473
vn -0.03335571 -0.824707 -0.5644531
vn -0.02461243 -0.6254883 -0.7797852
vn -0.2832031 -0.9155273 -0.2854004
vn -0.2956543 -0.9550781 -0.02671814
vn -0.5351563 -0.8442383 -0.02732849
vn -0.01293945 -0.3503418 -0.9365234
vn -0.1835938 -0.5976563 -0.7802734
vn -0.2426758 -0.7885742 -0.5649414
vn -0.5126953 -0.8095703 -0.2854004
vn -0.4406738 -0.6967773 -0.565918
vn -0.3337402 -0.5288086 -0.7807617
vn -0.703125 -0.6513672 -0.2856445
vn -0.7333984 -0.6791992 -0.02767944
vn -0.8857422 -0.463623 -0.02809143
vn -0.1859131 -0.2961426 -0.9370117
vn -0.4575195 -0.4250488 -0.78125
vn -0.6044922 -0.5605469 -0.565918
vn -0.8486328 -0.4445801 -0.2861328
vn -0.7299805 -0.3828125 -0.5664063
vn -0.5527344 -0.2902832 -0.78125
vn -0.934082 -0.2124023 -0.286377
vn -0.9746094 -0.2214355 -0.02828979
vn -0.3085938 -0.1627197 -0.9370117
vn -0.6083984 -0.1387939 -0.78125
vn -0.8037109 -0.1829834 -0.5664063
vn -0.6235352 0.02555847 -0.78125
vn -0.8232422 0.03387451 -0.5664063
vn -0.9570313 0.03955078 -0.2866211
vn -0.3481445 0.01409912 -0.9375
vn -0.5957031 0.1845703 -0.7817383
vn -0.9985352 0.04138184 -0.02851868
vn -0.7871094 0.2436523 -0.5668945
vn -0.9150391 0.2834473 -0.286377
vn -0.9545898 0.2958984 -0.02851868
vn -0.8442383 0.5351563 -0.02850342
vn -0.809082 0.5131836 -0.2866211
vn -0.6958008 0.4414063 -0.5668945
vn -0.5268555 0.3344727 -0.78125
vn -0.6513672 0.7026367 -0.2868652
vn -0.6806641 0.7319336 -0.02824402
vn -0.4633789 0.8857422 -0.0279541
vn -0.2941895 0.1870117 -0.9375
vn -0.4233398 0.458252 -0.78125
vn -0.559082 0.6054688 -0.565918
vn -0.4440918 0.8491211 -0.2858887
vn -0.3818359 0.730957 -0.565918
vn -0.2888184 0.5537109 -0.7807617
vn -0.2088623 0.9360352 -0.282959
vn -0.213501 0.9765625 -0.0276947
vn -0.1607666 0.3098145 -0.9370117
vn -0.1373291 0.609375 -0.78125
vn -0.1845703 0.8017578 -0.5688477
vn 0.04278564 0.9589844 -0.2797852
vn 0.03726196 0.8222656 -0.5678711
vn 0.2459717 0.7905273 -0.5610352
vn 0.02720642 0.6245117 -0.7802734
vn 0.1872559 0.5966797 -0.7802734
vn 0.0160675 0.3493652 -0.9370117
vn 0.3361816 0.527832 -0.7797852
vn 0.1890869 0.295166 -0.9365234
vn 0.7402344 0.6723633 -0.008499146
vn 0.753418 0.6572266 0.01198578
vn 0.9643555 0.2644043 0.01281738
vn 0.9609375 0.2773438 -0.002826691
vn 0.9414063 0.3376465 -0.007797241
vn 0.9438477 0.3305664 0.0177002
vn 0.4882813 0.8720703 0.03237915
vn 0.479248 0.8774414 -0.02868652
vn 0.1782227 0.9833984 0.03067017
vn 0.1765137 0.9838867 -0.03149414
vn 0.04501343 0.9985352 0.02780151
vn 0.04431152 0.9985352 -0.02973938
vn -0.213501 0.9765625 -0.0276947
vn -0.2137451 0.9765625 0.02482605
vn -0.463623 0.8857422 0.02456665
vn -0.4633789 0.8857422 -0.0279541
vn -0.6806641 0.7319336 -0.02824402
vn -0.6806641 0.7319336 0.0242157
vn -0.8442383 0.5351563 0.02412415
vn -0.8442383 0.5351563 -0.02850342
vn -0.9545898 0.2958984 -0.02851868
vn -0.9550781 0.2958984 0.02397156
vn -0.9990234 0.04141235 0.02409363
vn -0.9985352 0.04138184 -0.02851868
vn -0.8857422 -0.463623 0.02452087
vn -0.8857422 -0.463623 -0.02809143
vn -0.7333984 -0.6791992 -0.02767944
vn -0.7333984 -0.6791992 0.02481079
vn -0.5351563 -0.8442383 0.02528381
vn -0.5351563 -0.8442383 -0.02732849
vn -0.2956543 -0.9550781 -0.02671814
vn -0.2958984 -0.9550781 0.02554321
vn -0.04144287 -0.9990234 0.02587891
vn -0.04135132 -0.9990234 -0.02615356
vn 0.2371826 -0.9711914 -0.02583313
vn 0.2371826 -0.9711914 0.02638245
vn 0.4665527 -0.8837891 0.02919006
vn 0.4660645 -0.8842773 -0.02787781
vn 0.5625 -0.8261719 -0.02981567
vn 0.5634766 -0.8256836 0.03170776
vn 0.8056641 -0.5913086 0.03231812
vn 0.8032227 -0.5952148 -0.02801514
vn 0.9946289 0.1022339 0.0165863
vn 0.9848633 0.1743164 0.01194763
vn 0.9858398 0.1679688 -0.005146027
vn 0.9951172 0.0994873 -0.00969696
vn 0.8032227 -0.5952148 -0.02801514
vn 0.8056641 -0.5913086 0.03231812
vn 0.7475586 -0.2849121 0.6000977
vn 0.7675781 -0.03114319 0.640625
vn 0.6801758 0.7099609 -0.1813965
vn 0.515625 0.8051758 -0.2919922
vn 0.5332031 0.8378906 0.1158447
vn 0.6865234 0.7114258 0.1502686
vn 0.8613281 0.4724121 -0.1866455
vn 0.8701172 0.4648438 0.1643066
vn 0.949707 0.2092285 -0.2337646
vn 0.5375977 0.8388672 0.08612061
vn 0.7524414 0.6494141 -0.1101074
vn 0.489502 0.8720703 0.01525879
vn 0.753418 0.6572266 0.01198578
vn 0.6977539 0.7158203 0.02786255
vn 0.4831543 0.8754883 -0.01966858
vn 0.7402344 0.6723633 -0.008499146
vn 0.5073242 0.8613281 0.02055359
vn 0.5214844 0.8486328 -0.08776855
vn 0.6982422 0.6958008 0.1680908
vn 0.5063477 0.8623047 -0.02392578
vn 0.5361328 0.8334961 -0.135376
vn 0.5263672 0.7114258 0.4658203
vn 0.7021484 0.6884766 -0.1817627
vn 0.6103516 0.5878906 0.5307617
vn 0.6987305 0.7148438 -0.02909851
vn 0.8681641 0.4567871 -0.1938477
vn 0.7885742 0.4108887 0.4577637
vn 0.8852539 0.4638672 0.02963257
vn 0.8852539 0.4641113 -0.02955627
vn 0.9599609 0.2020264 -0.1947021
vn 0.9272461 0.1950684 0.3200684
vn 0.9785156 0.2042236 -0.02772522
vn 0.9785156 0.2042236 0.02992249
vn 0.9794922 -0.04031372 -0.196167
vn 0.9599609 -0.03933716 0.2768555
vn 0.9985352 -0.04144287 -0.02716064
vn 0.9296875 -0.3183594 -0.1855469
vn 0.9042969 -0.3088379 0.2946777
vn 0.9985352 -0.04135132 0.03015137
vn 0.965332 0.2058105 0.1608887
vn 0.9677734 -0.03741455 -0.2493896
vn 0.9863281 -0.03912354 0.1610107
vn 0.9077148 -0.3261719 -0.263916
vn 0.940918 -0.3374023 -0.02560425
vn 0.8374023 -0.527832 -0.140625
vn 0.8164063 -0.46875 0.3374023
vn 0.9321289 -0.3305664 0.1491699
vn 0.7988281 -0.4980469 -0.3371582
vn 0.940918 -0.3374023 0.02890015
vn 0.8417969 -0.5273438 0.1144409
vn 0.9550781 -0.2712402 -0.118103
vn 0.8286133 -0.5595703 -0.02087402
vn 0.8349609 -0.5424805 -0.0916748
vn 0.9365234 -0.3237305 0.1345215
vn 0.8295898 -0.5576172 0.02258301
vn 0.8154297 -0.5786133 -0.01750183
vn 0.9604492 -0.2780762 -0.009689331
vn 0.8188477 -0.5737305 0.01797485
vn 0.9643555 -0.2646484 0.01358795
vn 0.8442383 -0.5292969 0.08349609
g Seat_14_0
f 3/3/3 2/2/2 1/1/1
f 4/4/4 3/3/3 1/1/1
f 1/1/1 5/5/5 4/4/4
f 5/5/5 6/6/6 4/4/4
f 5/5/5 7/7/7 6/6/6
f 7/7/7 8/8/8 6/6/6
f 7/7/7 9/9/9 8/8/8
f 9/9/9 10/10/10 8/8/8
f 13/13/13 12/12/12 11/11/11
f 14/14/14 13/13/13 11/11/11
f 14/14/14 11/11/11 15/15/15
f 16/16/16 13/13/13 14/14/14
f 17/17/17 13/13/13 16/16/16
f 18/18/18 17/17/17 16/16/16
f 19/19/19 18/18/18 16/16/16
f 20/20/20 19/19/19 16/16/16
f 21/21/21 19/19/19 20/20/20
f 22/22/22 21/21/21 20/20/20
f 16/16/16 23/23/23 20/20/20
f 23/23/23 16/16/16 14/14/14
f 24/24/24 14/14/14 15/15/15
f 15/15/15 25/25/25 24/24/24
f 23/23/23 26/26/26 20/20/20
f 20/20/20 26/26/26 22/22/22
f 23/23/23 14/14/14 27/27/27
f 14/14/14 24/24/24 27/27/27
f 23/23/23 27/27/27 26/26/26
f 25/25/25 28/28/28 24/24/24
f 27/27/27 24/24/24 28/28/28
f 25/25/25 29/29/29 28/28/28
f 21/21/21 22/22/22 30/30/30
f 31/31/31 21/21/21 30/30/30
f 31/31/31 30/30/30 32/32/32
f 29/29/29 33/33/33 28/28/28
f 29/29/29 34/34/34 33/33/33
f 34/34/34 35/35/35 33/33/33
f 34/34/34 36/36/36 35/35/35
f 28/28/28 33/33/33 37/37/37
f 37/37/37 33/33/33 35/35/35
f 38/38/38 27/27/27 28/28/28
f 38/38/38 28/28/28 37/37/37
f 27/27/27 38/38/38 39/39/39
f 27/27/27 39/39/39 26/26/26
f 26/26/26 40/40/40 22/22/22
f 26/26/26 39/39/39 40/40/40
f 38/38/38 41/41/41 39/39/39
f 38/38/38 37/37/37 41/41/41
f 39/39/39 42/42/42 40/40/40
f 39/39/39 41/41/41 42/42/42
f 36/36/36 43/43/43 35/35/35
f 36/36/36 44/44/44 43/43/43
f 44/44/44 45/45/45 43/43/43
f 44/44/44 46/46/46 45/45/45
f 35/35/35 43/43/43 47/47/47
f 47/47/47 43/43/43 45/45/45
f 48/48/48 37/37/37 35/35/35
f 48/48/48 35/35/35 47/47/47
f 37/37/37 49/49/49 41/41/41
f 37/37/37 48/48/48 49/49/49
f 40/40/40 42/42/42 50/50/50
f 40/40/40 50/50/50 22/22/22
f 46/46/46 51/51/51 45/45/45
f 51/51/51 46/46/46 52/52/52
f 53/53/53 51/51/51 52/52/52
f 51/51/51 53/53/53 54/54/54
f 45/45/45 51/51/51 55/55/55
f 55/55/55 51/51/51 54/54/54
f 41/41/41 56/56/56 42/42/42
f 41/41/41 49/49/49 56/56/56
f 48/48/48 57/57/57 49/49/49
f 48/48/48 47/47/47 57/57/57
f 58/58/58 47/47/47 45/45/45
f 58/58/58 45/45/45 55/55/55
f 55/55/55 54/54/54 59/59/59
f 54/54/54 60/60/60 59/59/59
f 59/59/59 60/60/60 61/61/61
f 60/60/60 62/62/62 61/61/61
f 49/49/49 63/63/63 56/56/56
f 49/49/49 57/57/57 63/63/63
f 56/56/56 64/64/64 42/42/42
f 56/56/56 63/63/63 64/64/64
f 47/47/47 58/58/58 65/65/65
f 47/47/47 65/65/65 57/57/57
f 58/58/58 55/55/55 66/66/66
f 55/55/55 59/59/59 66/66/66
f 58/58/58 66/66/66 65/65/65
f 57/57/57 65/65/65 67/67/67
f 57/57/57 67/67/67 63/63/63
f 66/66/66 59/59/59 68/68/68
f 59/59/59 61/61/61 68/68/68
f 65/65/65 66/66/66 69/69/69
f 65/65/65 69/69/69 67/67/67
f 66/66/66 68/68/68 69/69/69
f 67/67/67 70/70/70 63/63/63
f 67/67/67 69/69/69 70/70/70
f 68/68/68 71/71/71 69/69/69
f 68/68/68 61/61/61 71/71/71
f 63/63/63 72/72/72 64/64/64
f 70/70/70 72/72/72 63/63/63
f 69/69/69 73/73/73 70/70/70
f 71/71/71 73/73/73 69/69/69
f 70/70/70 74/74/74 72/72/72
f 70/70/70 73/73/73 74/74/74
f 64/64/64 72/72/72 75/75/75
f 74/74/74 76/76/76 72/72/72
f 72/72/72 76/76/76 75/75/75
f 64/64/64 75/75/75 77/77/77
f 64/64/64 77/77/77 42/42/42
f 42/42/42 77/77/77 50/50/50
f 71/71/71 78/78/78 73/73/73
f 73/73/73 79/79/79 74/74/74
f 78/78/78 79/79/79 73/73/73
f 74/74/74 80/80/80 76/76/76
f 74/74/74 79/79/79 80/80/80
f 71/71/71 81/81/81 78/78/78
f 61/61/61 81/81/81 71/71/71
f 75/75/75 82/82/82 77/77/77
f 50/50/50 77/77/77 83/83/83
f 77/77/77 82/82/82 83/83/83
f 75/75/75 76/76/76 84/84/84
f 75/75/75 84/84/84 82/82/82
f 80/80/80 85/85/85 76/76/76
f 76/76/76 85/85/85 84/84/84
f 79/79/79 86/86/86 80/80/80
f 80/80/80 86/86/86 85/85/85
f 78/78/78 87/87/87 79/79/79
f 87/87/87 86/86/86 79/79/79
f 84/84/84 88/88/88 82/82/82
f 84/84/84 85/85/85 88/88/88
f 78/78/78 89/89/89 87/87/87
f 81/81/81 89/89/89 78/78/78
f 86/86/86 90/90/90 85/85/85
f 85/85/85 90/90/90 88/88/88
f 87/87/87 91/91/91 86/86/86
f 91/91/91 90/90/90 86/86/86
f 89/89/89 91/91/91 87/87/87
f 88/88/88 90/90/90 92/92/92
f 93/93/93 90/90/90 91/91/91
f 82/82/82 88/88/88 94/94/94
f 94/94/94 88/88/88 92/92/92
f 83/83/83 82/82/82 94/94/94
f 95/95/95 91/91/91 89/89/89
f 95/95/95 93/93/93 91/91/91
f 96/96/96 89/89/89 81/81/81
f 96/96/96 95/95/95 89/89/89
f 83/83/83 94/94/94 97/97/97
f 94/94/94 92/92/92 97/97/97
f 98/98/98 93/93/93 95/95/95
f 96/96/96 98/98/98 95/95/95
f 99/99/99 96/96/96 81/81/81
f 99/99/99 81/81/81 61/61/61
f 83/83/83 97/97/97 100/100/100
f 50/50/50 83/83/83 100/100/100
f 50/50/50 100/100/100 22/22/22
f 22/22/22 100/100/100 101/101/101
f 30/30/30 22/22/22 101/101/101
f 100/100/100 97/97/97 102/102/102
f 101/101/101 100/100/100 102/102/102
f 30/30/30 101/101/101 103/103/103
f 30/30/30 103/103/103 32/32/32
f 104/104/104 98/98/98 96/96/96
f 99/99/99 104/104/104 96/96/96
f 105/105/105 99/99/99 61/61/61
f 105/105/105 61/61/61 62/62/62
f 106/106/106 105/105/105 62/62/62
f 106/106/106 107/107/107 105/105/105
f 105/105/105 108/108/108 99/99/99
f 107/107/107 108/108/108 105/105/105
f 108/108/108 104/104/104 99/99/99
f 109/109/109 108/108/108 107/107/107
f 110/110/110 109/109/109 107/107/107
f 110/110/110 111/111/111 109/109/109
f 112/112/112 104/104/104 108/108/108
f 109/109/109 112/112/112 108/108/108
f 113/113/113 98/98/98 104/104/104
f 112/112/112 113/113/113 104/104/104
f 111/111/111 114/114/114 109/109/109
f 109/109/109 114/114/114 112/112/112
f 113/113/113 115/115/115 98/98/98
f 115/115/115 93/93/93 98/98/98
f 112/112/112 116/116/116 113/113/113
f 114/114/114 116/116/116 112/112/112
f 117/117/117 114/114/114 111/111/111
f 118/118/118 117/117/117 111/111/111
f 118/118/118 119/119/119 117/117/117
f 115/115/115 120/120/120 93/93/93
f 120/120/120 90/90/90 93/93/93
f 113/113/113 121/121/121 115/115/115
f 116/116/116 121/121/121 113/113/113
f 121/121/121 120/120/120 115/115/115
f 122/122/122 116/116/116 114/114/114
f 117/117/117 122/122/122 114/114/114
f 119/119/119 123/123/123 117/117/117
f 117/117/117 123/123/123 122/122/122
f 124/124/124 121/121/121 116/116/116
f 122/122/122 124/124/124 116/116/116
f 125/125/125 120/120/120 121/121/121
f 124/124/124 125/125/125 121/121/121
f 122/122/122 126/126/126 124/124/124
f 123/123/123 126/126/126 122/122/122
f 127/127/127 123/123/123 119/119/119
f 128/128/128 127/127/127 119/119/119
f 128/128/128 129/129/129 127/127/127
f 125/125/125 130/130/130 120/120/120
f 130/130/130 90/90/90 120/120/120
f 124/124/124 131/131/131 125/125/125
f 126/126/126 131/131/131 124/124/124
f 131/131/131 130/130/130 125/125/125
f 132/132/132 126/126/126 123/123/123
f 127/127/127 132/132/132 123/123/123
f 133/133/133 131/131/131 126/126/126
f 132/132/132 133/133/133 126/126/126
f 134/134/134 130/130/130 131/131/131
f 133/133/133 134/134/134 131/131/131
f 127/127/127 135/135/135 132/132/132
f 129/129/129 135/135/135 127/127/127
f 134/134/134 136/136/136 130/130/130
f 136/136/136 90/90/90 130/130/130
f 132/132/132 137/137/137 133/133/133
f 135/135/135 137/137/137 132/132/132
f 133/133/133 138/138/138 134/134/134
f 138/138/138 136/136/136 134/134/134
f 137/137/137 138/138/138 133/133/133
f 139/139/139 137/137/137 135/135/135
f 140/140/140 138/138/138 137/137/137
f 139/139/139 140/140/140 137/137/137
f 141/141/141 136/136/136 138/138/138
f 140/140/140 141/141/141 138/138/138
f 141/141/141 142/142/142 136/136/136
f 142/142/142 90/90/90 136/136/136
f 140/140/140 143/143/143 141/141/141
f 143/143/143 142/142/142 141/141/141
f 144/144/144 135/135/135 129/129/129
f 144/144/144 139/139/139 135/135/135
f 139/139/139 145/145/145 140/140/140
f 145/145/145 143/143/143 140/140/140
f 146/146/146 144/144/144 129/129/129
f 146/146/146 147/147/147 144/144/144
f 144/144/144 148/148/148 139/139/139
f 147/147/147 148/148/148 144/144/144
f 148/148/148 145/145/145 139/139/139
f 149/149/149 148/148/148 147/147/147
f 150/150/150 149/149/149 147/147/147
f 150/150/150 151/151/151 149/149/149
f 152/152/152 145/145/145 148/148/148
f 149/149/149 152/152/152 148/148/148
f 153/153/153 143/143/143 145/145/145
f 152/152/152 153/153/153 145/145/145
f 154/154/154 142/142/142 143/143/143
f 153/153/153 154/154/154 143/143/143
f 151/151/151 155/155/155 149/149/149
f 149/149/149 155/155/155 152/152/152
f 154/154/154 156/156/156 142/142/142
f 156/156/156 90/90/90 142/142/142
f 152/152/152 157/157/157 153/153/153
f 155/155/155 157/157/157 152/152/152
f 153/153/153 158/158/158 154/154/154
f 158/158/158 156/156/156 154/154/154
f 157/157/157 158/158/158 153/153/153
f 159/159/159 155/155/155 151/151/151
f 160/160/160 159/159/159 151/151/151
f 160/160/160 32/32/32 159/159/159
f 32/32/32 103/103/103 159/159/159
f 159/159/159 161/161/161 155/155/155
f 161/161/161 157/157/157 155/155/155
f 159/159/159 103/103/103 161/161/161
f 162/162/162 90/90/90 156/156/156
f 92/92/92 90/90/90 162/162/162
f 163/163/163 158/158/158 157/157/157
f 161/161/161 163/163/163 157/157/157
f 103/103/103 164/164/164 161/161/161
f 161/161/161 164/164/164 163/163/163
f 101/101/101 164/164/164 103/103/103
f 101/101/101 102/102/102 164/164/164
f 165/165/165 156/156/156 158/158/158
f 163/163/163 165/165/165 158/158/158
f 165/165/165 162/162/162 156/156/156
f 164/164/164 166/166/166 163/163/163
f 163/163/163 166/166/166 165/165/165
f 102/102/102 166/166/166 164/164/164
f 166/166/166 162/162/162 165/165/165
f 167/167/167 92/92/92 162/162/162
f 167/167/167 162/162/162 166/166/166
f 102/102/102 167/167/167 166/166/166
f 97/97/97 92/92/92 167/167/167
f 102/102/102 97/97/97 167/167/167
f 170/170/170 169/169/169 168/168/168
f 171/171/171 170/170/170 168/168/168
f 171/171/171 168/168/168 172/172/172
f 170/170/170 171/171/171 173/173/173
f 174/174/174 170/170/170 173/173/173
f 175/175/175 174/174/174 173/173/173
f 176/176/176 171/171/171 172/172/172
f 173/173/173 171/171/171 176/176/176
f 176/176/176 172/172/172 177/177/177
f 178/178/178 175/175/175 173/173/173
f 179/179/179 175/175/175 178/178/178
f 180/180/180 176/176/176 177/177/177
f 180/180/180 177/177/177 181/181/181
f 182/182/182 173/173/173 176/176/176
f 178/178/178 173/173/173 182/182/182
f 183/183/183 179/179/179 178/178/178
f 184/184/184 179/179/179 183/183/183
f 185/185/185 180/180/180 181/181/181
f 185/185/185 181/181/181 186/186/186
f 176/176/176 180/180/180 187/187/187
f 182/182/182 176/176/176 187/187/187
f 187/187/187 180/180/180 185/185/185
f 188/188/188 178/178/178 182/182/182
f 183/183/183 178/178/178 188/188/188
f 188/188/188 182/182/182 187/187/187
f 189/189/189 185/185/185 186/186/186
f 189/189/189 186/186/186 190/190/190
f 191/191/191 189/189/189 190/190/190
f 191/191/191 190/190/190 192/192/192
f 185/185/185 189/189/189 193/193/193
f 193/193/193 189/189/189 191/191/191
f 194/194/194 187/187/187 185/185/185
f 194/194/194 185/185/185 193/193/193
f 195/195/195 188/188/188 187/187/187
f 195/195/195 187/187/187 194/194/194
f 196/196/196 183/183/183 188/188/188
f 196/196/196 188/188/188 195/195/195
f 197/197/197 195/195/195 194/194/194
f 197/197/197 194/194/194 193/193/193
f 198/198/198 191/191/191 192/192/192
f 198/198/198 192/192/192 199/199/199
f 200/200/200 198/198/198 199/199/199
f 191/191/191 198/198/198 201/201/201
f 201/201/201 198/198/198 200/200/200
f 202/202/202 191/191/191 201/201/201
f 202/202/202 193/193/193 191/191/191
f 203/203/203 201/201/201 200/200/200
f 204/204/204 193/193/193 202/202/202
f 205/205/205 204/204/204 202/202/202
f 206/206/206 197/197/197 193/193/193
f 207/207/207 195/195/195 197/197/197
f 207/207/207 196/196/196 195/195/195
f 208/208/208 197/197/197 206/206/206
f 208/208/208 207/207/207 197/197/197
f 203/203/203 200/200/200 209/209/209
f 200/200/200 210/210/210 209/209/209
f 196/196/196 207/207/207 211/211/211
f 211/211/211 207/207/207 208/208/208
f 212/212/212 208/208/208 206/206/206
f 212/212/212 206/206/206 213/213/213
f 214/214/214 212/212/212 213/213/213
f 214/214/214 213/213/213 215/215/215
f 215/215/215 216/216/216 203/203/203
f 208/208/208 212/212/212 217/217/217
f 217/217/217 212/212/212 214/214/214
f 209/209/209 210/210/210 218/218/218
f 210/210/210 219/219/219 218/218/218
f 220/220/220 203/203/203 209/209/209
f 220/220/220 215/215/215 203/203/203
f 209/209/209 218/218/218 221/221/221
f 221/221/221 220/220/220 209/209/209
f 218/218/218 222/222/222 221/221/221
f 221/221/221 222/222/222 223/223/223
f 222/222/222 224/224/224 223/223/223
f 223/223/223 224/224/224 225/225/225
f 226/226/226 220/220/220 221/221/221
f 223/223/223 226/226/226 221/221/221
f 227/227/227 215/215/215 220/220/220
f 226/226/226 227/227/227 220/220/220
f 227/227/227 214/214/214 215/215/215
f 214/214/214 227/227/227 228/228/228
f 228/228/228 227/227/227 226/226/226
f 229/229/229 214/214/214 228/228/228
f 229/229/229 217/217/217 214/214/214
f 230/230/230 223/223/223 225/225/225
f 226/226/226 223/223/223 231/231/231
f 231/231/231 223/223/223 230/230/230
f 232/232/232 228/228/228 226/226/226
f 232/232/232 226/226/226 231/231/231
f 229/229/229 228/228/228 233/233/233
f 233/233/233 228/228/228 232/232/232
f 230/230/230 225/225/225 234/234/234
f 225/225/225 235/235/235 234/234/234
f 234/234/234 235/235/235 236/236/236
f 237/237/237 217/217/217 229/229/229
f 238/238/238 229/229/229 233/233/233
f 238/238/238 237/237/237 229/229/229
f 238/238/238 233/233/233 239/239/239
f 240/240/240 237/237/237 238/238/238
f 241/241/241 233/233/233 232/232/232
f 239/239/239 233/233/233 241/241/241
f 242/242/242 217/217/217 237/237/237
f 242/242/242 208/208/208 217/217/217
f 242/242/242 211/211/211 208/208/208
f 243/243/243 238/238/238 239/239/239
f 243/243/243 240/240/240 238/238/238
f 243/243/243 239/239/239 240/240/240
f 244/244/244 242/242/242 237/237/237
f 244/244/244 237/237/237 240/240/240
f 245/245/245 211/211/211 242/242/242
f 244/244/244 245/245/245 242/242/242
f 246/246/246 245/245/245 244/244/244
f 247/247/247 244/244/244 240/240/240
f 247/247/247 246/246/246 244/244/244
f 247/247/247 240/240/240 246/246/246
f 248/248/248 211/211/211 245/245/245
f 248/248/248 196/196/196 211/211/211
f 239/239/239 249/249/249 240/240/240
f 240/240/240 249/249/249 246/246/246
f 250/250/250 249/249/249 239/239/239
f 246/246/246 249/249/249 251/251/251
f 252/252/252 249/249/249 250/250/250
f 251/251/251 249/249/249 253/253/253
f 254/254/254 249/249/249 252/252/252
f 253/253/253 249/249/249 255/255/255
f 256/256/256 249/249/249 254/254/254
f 255/255/255 249/249/249 257/257/257
f 258/258/258 249/249/249 256/256/256
f 257/257/257 249/249/249 258/258/258
f 259/259/259 250/250/250 239/239/239
f 259/259/259 239/239/239 241/241/241
f 259/259/259 241/241/241 250/250/250
f 241/241/241 260/260/260 250/250/250
f 241/241/241 232/232/232 260/260/260
f 232/232/232 231/231/231 260/260/260
f 260/260/260 231/231/231 261/261/261
f 261/261/261 231/231/231 230/230/230
f 250/250/250 260/260/260 262/262/262
f 262/262/262 260/260/260 261/261/261
f 261/261/261 230/230/230 263/263/263
f 230/230/230 234/234/234 263/263/263
f 264/264/264 250/250/250 262/262/262
f 264/264/264 252/252/252 250/250/250
f 264/264/264 262/262/262 252/252/252
f 262/262/262 261/261/261 265/265/265
f 261/261/261 263/263/263 265/265/265
f 262/262/262 265/265/265 252/252/252
f 263/263/263 234/234/234 266/266/266
f 266/266/266 234/234/234 236/236/236
f 265/265/265 263/263/263 267/267/267
f 267/267/267 263/263/263 266/266/266
f 252/252/252 265/265/265 268/268/268
f 268/268/268 265/265/265 267/267/267
f 266/266/266 236/236/236 269/269/269
f 236/236/236 270/270/270 269/269/269
f 269/269/269 270/270/270 271/271/271
f 272/272/272 252/252/252 268/268/268
f 272/272/272 254/254/254 252/252/252
f 272/272/272 268/268/268 254/254/254
f 268/268/268 267/267/267 273/273/273
f 268/268/268 273/273/273 254/254/254
f 267/267/267 266/266/266 274/274/274
f 266/266/266 269/269/269 274/274/274
f 267/267/267 274/274/274 273/273/273
f 275/275/275 269/269/269 271/271/271
f 274/274/274 269/269/269 275/275/275
f 273/273/273 274/274/274 276/276/276
f 276/276/276 274/274/274 275/275/275
f 254/254/254 273/273/273 277/277/277
f 277/277/277 273/273/273 276/276/276
f 275/275/275 271/271/271 278/278/278
f 271/271/271 279/279/279 278/278/278
f 278/278/278 279/279/279 280/280/280
f 281/281/281 254/254/254 277/277/277
f 281/281/281 256/256/256 254/254/254
f 281/281/281 277/277/277 256/256/256
f 277/277/277 276/276/276 282/282/282
f 277/277/277 282/282/282 256/256/256
f 276/276/276 275/275/275 283/283/283
f 275/275/275 278/278/278 283/283/283
f 276/276/276 283/283/283 282/282/282
f 284/284/284 278/278/278 280/280/280
f 283/283/283 278/278/278 284/284/284
f 282/282/282 283/283/283 285/285/285
f 285/285/285 283/283/283 284/284/284
f 256/256/256 282/282/282 286/286/286
f 286/286/286 282/282/282 285/285/285
f 284/284/284 280/280/280 287/287/287
f 280/280/280 288/288/288 287/287/287
f 289/289/289 256/256/256 286/286/286
f 289/289/289 258/258/258 256/256/256
f 289/289/289 286/286/286 258/258/258
f 286/286/286 285/285/285 290/290/290
f 286/286/286 290/290/290 258/258/258
f 285/285/285 284/284/284 291/291/291
f 284/284/284 287/287/287 291/291/291
f 285/285/285 291/291/291 290/290/290
f 258/258/258 290/290/290 292/292/292
f 290/290/290 291/291/291 293/293/293
f 292/292/292 290/290/290 293/293/293
f 291/291/291 287/287/287 294/294/294
f 293/293/293 291/291/291 294/294/294
f 295/295/295 258/258/258 292/292/292
f 295/295/295 257/257/257 258/258/258
f 295/295/295 292/292/292 257/257/257
f 292/292/292 293/293/293 296/296/296
f 292/292/292 296/296/296 257/257/257
f 294/294/294 287/287/287 297/297/297
f 287/287/287 288/288/288 297/297/297
f 293/293/293 294/294/294 298/298/298
f 293/293/293 298/298/298 296/296/296
f 294/294/294 297/297/297 299/299/299
f 294/294/294 299/299/299 298/298/298
f 297/297/297 300/300/300 299/299/299
f 299/299/299 300/300/300 301/301/301
f 298/298/298 299/299/299 302/302/302
f 302/302/302 299/299/299 301/301/301
f 296/296/296 298/298/298 303/303/303
f 303/303/303 298/298/298 302/302/302
f 257/257/257 296/296/296 304/304/304
f 304/304/304 296/296/296 303/303/303
f 302/302/302 301/301/301 305/305/305
f 301/301/301 306/306/306 305/305/305
f 305/305/305 306/306/306 307/307/307
f 308/308/308 257/257/257 304/304/304
f 308/308/308 255/255/255 257/257/257
f 308/308/308 304/304/304 255/255/255
f 304/304/304 303/303/303 309/309/309
f 304/304/304 309/309/309 255/255/255
f 303/303/303 302/302/302 310/310/310
f 302/302/302 305/305/305 310/310/310
f 303/303/303 310/310/310 309/309/309
f 311/311/311 305/305/305 307/307/307
f 310/310/310 305/305/305 311/311/311
f 309/309/309 310/310/310 312/312/312
f 312/312/312 310/310/310 311/311/311
f 255/255/255 309/309/309 313/313/313
f 313/313/313 309/309/309 312/312/312
f 311/311/311 307/307/307 314/314/314
f 307/307/307 315/315/315 314/314/314
f 314/314/314 315/315/315 184/184/184
f 316/316/316 255/255/255 313/313/313
f 316/316/316 253/253/253 255/255/255
f 316/316/316 313/313/313 253/253/253
f 313/313/313 312/312/312 317/317/317
f 313/313/313 317/317/317 253/253/253
f 312/312/312 311/311/311 318/318/318
f 311/311/311 314/314/314 318/318/318
f 312/312/312 318/318/318 317/317/317
f 319/319/319 314/314/314 184/184/184
f 318/318/318 314/314/314 319/319/319
f 319/319/319 184/184/184 183/183/183
f 317/317/317 318/318/318 320/320/320
f 320/320/320 318/318/318 319/319/319
f 319/319/319 183/183/183 321/321/321
f 320/320/320 319/319/319 321/321/321
f 321/321/321 183/183/183 196/196/196
f 248/248/248 321/321/321 196/196/196
f 253/253/253 317/317/317 322/322/322
f 322/322/322 317/317/317 320/320/320
f 320/320/320 321/321/321 323/323/323
f 323/323/323 321/321/321 248/248/248
f 322/322/322 320/320/320 323/323/323
f 324/324/324 253/253/253 322/322/322
f 324/324/324 251/251/251 253/253/253
f 324/324/324 322/322/322 251/251/251
f 322/322/322 323/323/323 251/251/251
f 325/325/325 323/323/323 248/248/248
f 251/251/251 323/323/323 325/325/325
f 325/325/325 248/248/248 245/245/245
f 325/325/325 245/245/245 246/246/246
f 326/326/326 246/246/246 251/251/251
f 326/326/326 325/325/325 246/246/246
f 326/326/326 251/251/251 325/325/325
f 329/329/329 328/328/328 327/327/327
f 330/330/330 329/329/329 327/327/327
f 329/329/329 330/330/330 331/331/331
f 332/332/332 329/329/329 331/331/331
f 333/333/333 332/332/332 331/331/331
f 334/334/334 333/333/333 331/331/331
f 335/335/335 333/333/333 334/334/334
f 336/336/336 335/335/335 334/334/334
f 337/337/337 335/335/335 336/336/336
f 338/338/338 337/337/337 336/336/336
f 338/338/338 339/339/339 337/337/337
f 339/339/339 340/340/340 337/337/337
f 341/341/341 340/340/340 339/339/339
f 342/342/342 341/341/341 339/339/339
f 342/342/342 343/343/343 341/341/341
f 343/343/343 344/344/344 341/341/341
f 345/345/345 344/344/344 343/343/343
f 346/346/346 345/345/345 343/343/343
f 346/346/346 347/347/347 345/345/345
f 347/347/347 348/348/348 345/345/345
f 349/349/349 348/348/348 347/347/347
f 350/350/350 349/349/349 347/347/347
f 350/350/350 288/288/288 349/349/349
f 288/288/288 129/129/129 349/349/349
f 351/351/351 129/129/129 288/288/288
f 352/352/352 351/351/351 288/288/288
f 352/352/352 353/353/353 351/351/351
f 353/353/353 354/354/354 351/351/351
f 355/355/355 354/354/354 353/353/353
f 356/356/356 355/355/355 353/353/353
f 356/356/356 357/357/357 355/355/355
f 357/357/357 358/358/358 355/355/355
f 359/359/359 358/358/358 357/357/357
f 360/360/360 359/359/359 357/357/357
f 360/360/360 361/361/361 359/359/359
f 361/361/361 362/362/362 359/359/359
f 363/363/363 362/362/362 361/361/361
f 364/364/364 363/363/363 361/361/361
f 364/364/364 365/365/365 363/363/363
f 365/365/365 366/366/366 363/363/363
f 367/367/367 366/366/366 365/365/365
f 368/368/368 367/367/367 365/365/365
f 371/371/371 370/370/370 369/369/369
f 372/372/372 371/371/371 369/369/369
f 372/372/372 369/369/369 373/373/373
f 369/369/369 374/374/374 373/373/373
f 205/205/205 376/376/376 375/375/375
f 215/215/215 205/205/205 375/375/375
f 379/379/379 378/378/378 377/377/377
f 380/380/380 379/379/379 377/377/377
f 380/380/380 377/377/377 381/381/381
f 382/382/382 380/380/380 381/381/381
f 382/382/382 381/381/381 383/383/383
f 379/379/379 384/384/384 378/378/378
f 384/384/384 385/385/385 378/378/378
f 385/385/385 384/384/384 386/386/386
f 386/386/386 384/384/384 379/379/379
f 387/387/387 385/385/385 386/386/386
f 379/379/379 380/380/380 388/388/388
f 388/388/388 380/380/380 382/382/382
f 387/387/387 386/386/386 389/389/389
f 390/390/390 387/387/387 389/389/389
f 391/391/391 386/386/386 379/379/379
f 391/391/391 379/379/379 388/388/388
f 389/389/389 386/386/386 391/391/391
f 390/390/390 389/389/389 392/392/392
f 393/393/393 390/390/390 392/392/392
f 394/394/394 389/389/389 391/391/391
f 392/392/392 389/389/389 394/394/394
f 393/393/393 392/392/392 395/395/395
f 395/395/395 392/392/392 394/394/394
f 396/396/396 393/393/393 395/395/395
f 396/396/396 395/395/395 397/397/397
f 395/395/395 394/394/394 397/397/397
f 398/398/398 396/396/396 397/397/397
f 394/394/394 391/391/391 399/399/399
f 391/391/391 388/388/388 399/399/399
f 394/394/394 399/399/399 397/397/397
f 398/398/398 397/397/397 400/400/400
f 401/401/401 398/398/398 400/400/400
f 399/399/399 388/388/388 402/402/402
f 402/402/402 388/388/388 382/382/382
f 397/397/397 399/399/399 403/403/403
f 400/400/400 397/397/397 403/403/403
f 403/403/403 399/399/399 402/402/402
f 401/401/401 400/400/400 404/404/404
f 400/400/400 403/403/403 404/404/404
f 405/405/405 401/401/401 404/404/404
f 403/403/403 402/402/402 406/406/406
f 403/403/403 406/406/406 404/404/404
f 402/402/402 382/382/382 407/407/407
f 402/402/402 407/407/407 406/406/406
f 405/405/405 404/404/404 408/408/408
f 409/409/409 405/405/405 408/408/408
f 404/404/404 406/406/406 410/410/410
f 408/408/408 404/404/404 410/410/410
f 409/409/409 408/408/408 411/411/411
f 408/408/408 410/410/410 411/411/411
f 412/412/412 409/409/409 411/411/411
f 410/410/410 406/406/406 413/413/413
f 406/406/406 407/407/407 413/413/413
f 382/382/382 414/414/414 407/407/407
f 414/414/414 382/382/382 383/383/383
f 414/414/414 383/383/383 415/415/415
f 407/407/407 414/414/414 416/416/416
f 416/416/416 414/414/414 415/415/415
f 413/413/413 407/407/407 416/416/416
f 416/416/416 415/415/415 417/417/417
f 410/410/410 413/413/413 418/418/418
f 410/410/410 418/418/418 411/411/411
f 412/412/412 411/411/411 419/419/419
f 420/420/420 412/412/412 419/419/419
f 421/421/421 416/416/416 417/417/417
f 417/417/417 422/422/422 421/421/421
f 413/413/413 416/416/416 423/423/423
f 416/416/416 421/421/421 423/423/423
f 413/413/413 423/423/423 418/418/418
f 422/422/422 424/424/424 421/421/421
f 423/423/423 421/421/421 424/424/424
f 422/422/422 425/425/425 424/424/424
f 411/411/411 418/418/418 426/426/426
f 419/419/419 411/411/411 426/426/426
f 420/420/420 419/419/419 427/427/427
f 419/419/419 426/426/426 427/427/427
f 428/428/428 420/420/420 427/427/427
f 418/418/418 423/423/423 429/429/429
f 426/426/426 418/418/418 429/429/429
f 429/429/429 423/423/423 424/424/424
f 426/426/426 430/430/430 427/427/427
f 427/427/427 430/430/430 428/428/428
f 426/426/426 429/429/429 430/430/430
f 430/430/430 431/431/431 428/428/428
f 429/429/429 432/432/432 430/430/430
f 430/430/430 432/432/432 431/431/431
f 429/429/429 424/424/424 432/432/432
f 432/432/432 433/433/433 431/431/431
f 425/425/425 434/434/434 424/424/424
f 434/434/434 425/425/425 433/433/433
f 424/424/424 434/434/434 432/432/432
f 432/432/432 434/434/434 433/433/433
