g Seat_01
v 0.2378348 -0.229323 -1.01466
v 0.2704333 -0.1810149 -1.017074
v 0.2721551 -0.1873272 -1.025763
v 0.2366492 -0.2383526 -1.022845
v 0.241991 -0.2342486 -0.9293007
v 0.2405548 -0.2425054 -0.9292561
v 0.2386853 -0.2379571 -0.4075831
v 0.2379645 -0.2461675 -0.4075368
v 0.2315979 -0.2278448 -0.2861293
v 0.2309857 -0.2372552 -0.2778316
v 0.2659521 -0.178886 -0.2895351
v 0.2315979 -0.2278448 -0.2861293
v 0.2309857 -0.2372552 -0.2778316
v 0.2676325 -0.1851397 -0.2806502
v 0.3068561 -0.1075262 -0.292925
v 0.2327728 -0.2531036 -0.2664479
v 0.2379645 -0.2461675 -0.4075368
v 0.2442111 -0.271972 -0.4073549
v 0.2413345 -0.2818963 -0.407306
v 0.229032 -0.2647967 -0.2553072
v 0.2302542 -0.2907415 -0.4072969
v 0.2163913 -0.2707366 -0.2438301
v 0.2756268 -0.1956939 -0.2652638
v 0.311192 -0.1087469 -0.2845253
v 0.3248028 -0.02370781 -0.2937831
v 0.2759946 -0.2035455 -0.2532332
v 0.327052 -0.1131841 -0.2667366
v 0.3294671 -0.0239788 -0.2852724
v 0.3179401 0.06333809 -0.2934816
v 0.1454315 -0.3202203 -0.2497133
v 0.1553424 -0.3374187 -0.4073116
v 0.07387451 -0.3676629 -0.4074537
v 0.322503 0.06396797 -0.2850917
v 0.2924951 0.1447724 -0.2942653
v 0.2962729 0.1460603 -0.2862593
v 0.2410889 0.2138374 -0.2933913
v 0.3388095 0.06599678 -0.2677223
v 0.346206 -0.02561943 -0.2671614
v 0.3322622 -0.1145208 -0.2554353
v 0.2862756 -0.1987298 -0.2412721
v 0.3517096 -0.02612724 -0.2558644
v 0.3303644 -0.1136724 -0.2431661
v 0.2439099 0.2158613 -0.2858363
v 0.1774805 0.2624348 -0.2902522
v 0.176189 0.268581 -0.2821541
v 0.1285828 0.2940363 -0.2860878
v 0.2588342 0.2258832 -0.2687026
v 0.3128683 0.1528828 -0.2682662
v 0.3442615 0.06657051 -0.2564607
v 0.2524719 -0.1706548 -0.1525948
v 0.1243634 0.3027375 -0.2784731
v 0.1304272 0.3058405 -0.4113087
v 0.1267364 0.3130012 -0.411368
v 0.1232611 0.3382563 -0.4115327
v 0.119845 0.3183735 -0.2690547
v 0.3499408 -0.02620659 -0.2435378
v 0.3184201 0.1549689 -0.2570156
v 0.1803558 0.2817695 -0.2679457
v 0.1114978 0.3283808 -0.2588814
v 0.1169275 0.3469184 -0.4116121
v 0.09698364 0.3293268 -0.2475002
v 0.1034964 0.3511042 -0.4116896
v 0.3423114 0.06604683 -0.2441695
v 0.3032648 -0.02208671 -0.1532924
v 0.2639093 0.2290363 -0.2576137
v 0.1777618 0.2895283 -0.2564186
v 0.3169943 0.1543 -0.2446095
v 0.1889435 0.2891389 -0.2442781
v 0.2627273 0.2275935 -0.24524
v 0.2747796 0.1339167 -0.1543495
v 0.1685986 0.2517023 -0.1554872
v 0.2970132 0.05770699 -0.1538002
v 0.2279852 0.1980463 -0.1549257
v 0.2003052 0.09794136 -0.07203386
v 0.221087 -0.01586967 -0.07125871
v 0.2165262 0.04234321 -0.07163163
v 0.2866229 -0.09834892 -0.1528975
v 0.1228418 0.183874 -0.07286271
v 0.1661661 0.1447272 -0.07245378
v 0.1063971 0.05218208 -0.01882524
v 0.09803405 0.2850678 -0.15597
v 0.2089453 -0.07150444 -0.07097124
v 0.1840295 -0.1242596 -0.07075029
v 0.1174451 -0.008318403 -0.01841508
v 0.115018 0.02262642 -0.01861223
v 0.08825286 0.0770539 -0.01904557
v 0.06522156 0.09786323 -0.01926164
v 0.1109924 -0.0378936 -0.01825883
v 0.0713623 0.2082185 -0.07321672
v 7.28304E-10 -5.317063E-07 -1.996974E-06
v 0.03785461 0.1108015 -0.01945085
v 0.07724243 -0.08829521 -0.01809037
v -0.02266418 0.1148273 -0.01971757
v 0.09774841 -0.06593803 -0.01814348
v 0.007559204 0.117425 -0.01961259
v 0.0143689 0.2206831 -0.07351579
v 0.1454547 -0.1663177 -0.07064958
v -0.04249145 0.2157978 -0.07371354
v 0.01991455 0.3021516 -0.1563832
v 0.1995962 -0.2283001 -0.152455
v 0.1338089 -0.2717352 -0.1524538
v 0.09745971 -0.1980047 -0.07064836
v 0.06982483 -0.3493267 -0.2556758
v -0.05802185 0.2954572 -0.1566524
v 0.01206787 0.3502204 -0.254272
v 0.0155658 0.3681757 -0.4121437
v -0.07061248 0.3626887 -0.4124525
v -0.06777283 0.3461896 -0.2604372
v -0.15716 0.3182307 -0.2618013
v -0.1645142 0.3331037 -0.4126472
v -0.2435248 0.2776423 -0.4126259
v -0.1342133 0.2711396 -0.1568086
v -0.09807709 0.1980573 -0.07382707
v -0.2324396 0.2652009 -0.2606032
v -0.05221374 0.1054011 -0.01977678
v -0.1983652 0.2264252 -0.1567921
v -0.2955505 0.1957368 -0.2602296
v -0.3098178 0.2047236 -0.4124477
v -0.3507489 0.1175312 -0.4120827
v -0.07709442 0.08806465 -0.01976945
v -0.144881 0.1654365 -0.07381608
v -0.2521966 0.1672785 -0.1566493
v -0.3345447 0.1127241 -0.2600856
v -0.1841528 0.1222858 -0.07370927
v -0.09796997 0.0651252 -0.0197133
v -0.2853912 0.09647285 -0.1563527
v -0.3545538 0.02105171 -0.2596461
v -0.3717572 0.02126412 -0.4115834
v -0.3635507 -0.07473686 -0.4109682
v -0.1108423 0.03766182 -0.01960099
v -0.2083716 0.07062813 -0.07349259
v -0.3024374 0.01833199 -0.1559468
v -0.2208063 0.01362129 -0.07319719
v -0.1174521 0.007360308 -0.0194423
v -0.3467364 -0.07037041 -0.259023
v -0.1148706 -0.02285698 -0.01924821
v -0.295784 -0.05958549 -0.15545
v -0.2159521 -0.04322197 -0.07283342
v -0.2714764 -0.1357745 -0.1548915
v -0.1982172 -0.09880791 -0.07242692
v -0.1054449 -0.05240532 -0.01903276
v -0.08810242 -0.07728325 -0.01881425
v -0.1655914 -0.1456084 -0.07201432
v -0.3182141 -0.1597625 -0.2583632
v -0.2267551 -0.1999224 -0.1543239
v -0.3336011 -0.1686077 -0.4102809
v -0.2785046 -0.2476458 -0.409582
v -0.2657464 -0.2350274 -0.257704
v -0.1963498 -0.2981878 -0.2570467
v -0.2056317 -0.3139678 -0.4088905
v -0.118396 -0.3548675 -0.4082948
v -0.1676102 -0.2537518 -0.1537624
v -0.1224408 -0.1848785 -0.07160417
v -0.0651648 -0.09816093 -0.01859514
v -0.1132736 -0.3371367 -0.2564772
v -0.0377063 -0.1110357 -0.01840837
v -0.09680572 -0.2869463 -0.153279
v -0.07078674 -0.209096 -0.07125138
v -0.02130066 -0.3576165 -0.2571181
v -0.02212372 -0.3758636 -0.4077864
v -0.01866699 -0.3039874 -0.1528645
v 0.02281555 -0.1150616 -0.01814348
v -0.01377991 -0.2215313 -0.07094926
v 0.05925232 -0.2973296 -0.1525935
v -0.007402343 -0.1176434 -0.01824724
v 0.0430664 -0.2166741 -0.07075212
v 0.05172791 -0.1051373 -0.01808915
v 0.1386813 0.2870368 -1.016836
v 0.139339 0.2929194 -0.9329023
v 0.1345639 0.2999409 -0.9329634
v 0.1337885 0.2947907 -1.024949
v 0.1857184 0.2549286 -1.021369
v 0.124274 0.3161896 -1.04427
v 0.1276538 0.3367743 -0.9332154
v 0.1201508 0.3442731 -0.9332917
v 0.1858578 0.2626801 -1.029561
v 0.2490234 0.2050983 -1.026716
v 0.1156162 0.3245014 -1.055808
v 0.1069293 0.3478522 -0.9333656
v 0.254931 0.2110273 -1.033892
v 0.2979651 0.1363019 -1.025039
v 0.1845282 0.2771101 -1.045646
v 0.1020538 0.3248371 -1.067015
v 0.01815064 0.3645039 -0.9338197
v 0.3039893 0.1403327 -1.032568
v 0.3216891 0.0557856 -1.021116
v 0.2631555 0.2192561 -1.044602
v 0.1814691 0.2844977 -1.057693
v 0.3266327 0.05683418 -1.029276
v 0.3278445 -0.02867363 -1.020544
v 0.3327069 -0.02920952 -1.028792
v 0.3106415 -0.1100689 -1.020181
v 0.3412909 0.06006416 -1.043272
v 0.3159814 0.1462617 -1.044059
v 0.2674054 0.2236494 -1.055632
v 0.1930408 0.2843207 -1.069968
v 0.3215259 0.1495478 -1.055045
v 0.3154233 -0.1118182 -1.028345
v 0.2704333 -0.1810149 -1.017074
v 0.2721551 -0.1873272 -1.025763
v 0.3294766 -0.1169341 -1.042227
v 0.3482159 -0.03031547 -1.042826
v 0.2787671 -0.2001043 -1.042227
v 0.3471863 0.06138252 -1.054305
v 0.3544748 -0.03093559 -1.053789
v 0.3471863 0.06138252 -1.054305
v 0.2659717 0.2225739 -1.068024
v 0.320119 0.1491865 -1.067536
v 0.2372412 -0.258803 -1.039906
v 0.2366492 -0.2383526 -1.022845
v 0.2319769 0.1919672 -1.158157
v 0.3454455 0.06103828 -1.066695
v 0.3544748 -0.03093559 -1.053789
v 0.353013 -0.03113212 -1.066233
v 0.3351663 -0.1190655 -1.053246
v 0.3294766 -0.1169341 -1.042227
v 0.3010058 0.05162422 -1.15703
v 0.247933 -0.2751836 -0.9290303
v 0.2405548 -0.2425054 -0.9292561
v 0.2791498 -0.2080437 -1.054367
v 0.2329535 -0.2699114 -1.051641
v 0.2441894 -0.28497 -0.9289851
v 0.2207318 -0.2755547 -1.06297
v 0.2331473 -0.2935027 -0.9289766
v 0.1576929 -0.3402312 -0.9289943
v 0.2899191 -0.2035564 -1.0666
v 0.3334973 -0.1186065 -1.065628
v 0.2906146 -0.1044244 -1.156125
v 0.3072571 -0.02816581 -1.156521
v 0.1492285 -0.325136 -1.057482
v 0.2035889 -0.2343816 -1.155687
v 0.2564645 -0.1767351 -1.155825
v 0.2135944 -0.07858208 -1.238986
v 0.07299438 -0.3541473 -1.052041
v 0.07595154 -0.3708221 -0.9291334
v -0.02004883 -0.379024 -0.9294661
v 0.2211743 0.03527046 -1.239645
v 0.2257355 -0.02294487 -1.239274
v 0.1160638 -0.04561577 -1.292881
v 0.1200934 0.01490547 -1.29323
v 0.1886789 -0.1313323 -1.238765
v 0.278772 0.1278364 -1.157581
v 0.1225183 -0.01604057 -1.293034
v 0.204953 0.09086861 -1.240047
v 0.1708142 0.1376557 -1.240466
v 0.09332458 0.06932808 -1.293666
v 0.1114709 0.04445869 -1.293444
v 0.1725909 0.2456232 -1.158717
v 0.005223084 -0.007952192 -1.312479
v 0.08231354 -0.09601127 -1.292708
v 0.04292572 0.1030781 -1.294072
v 0.02788666 -0.1227825 -1.292764
v -0.01759399 0.1071064 -1.294337
v -0.03263336 -0.1187591 -1.293031
v -0.07202118 0.0803376 -1.294391
v -0.08302917 -0.08500542 -1.293433
v -0.1057696 0.02994087 -1.294219
v -0.1097992 -0.03058036 -1.29387
v 0.1028195 -0.07365776 -1.292764
v 0.1501032 -0.173388 -1.238664
v 0.1378015 -0.2778155 -1.155685
v 0.1021075 -0.2050774 -1.238663
v 0.06324463 -0.3034087 -1.155825
v 0.05680115 -0.1128558 -1.292708
v 0.04771423 -0.2237505 -1.238767
v -0.01816284 -0.3623919 -1.051298
v -0.01467285 -0.310064 -1.156094
v -0.009130553 -0.2286065 -1.238964
v -0.110105 -0.3419585 -1.052845
v -0.1163208 -0.3580291 -0.9299775
v -0.2035562 -0.3171294 -0.9305726
v -0.002329711 -0.1253655 -1.292869
v -0.06613708 -0.2161736 -1.239266
v -0.09281189 -0.2930218 -1.156509
v -0.1931811 -0.3030132 -1.053413
v -0.1636157 -0.2598296 -1.156994
v -0.117793 -0.1919573 -1.239618
v -0.2625781 -0.2398589 -1.054071
v -0.2764282 -0.2508062 -0.9312642
v -0.3315246 -0.1717693 -0.9319618
v -0.06009216 -0.1058831 -1.293216
v -0.1609442 -0.1526885 -1.240026
v -0.2227637 -0.2060015 -1.157555
v -0.3150482 -0.1645904 -1.054741
v -0.2674835 -0.1418548 -1.158123
v -0.1935712 -0.1058855 -1.24044
v -0.3435681 -0.07519341 -1.055392
v -0.3614752 -0.0778997 -0.9326503
v -0.1003726 -0.06012749 -1.293652
v -0.2113071 -0.05029839 -1.240849
v -0.2917914 -0.06566337 -1.158681
v -0.2161615 0.006548541 -1.241214
v -0.2984442 0.01225411 -1.159179
v -0.351384 0.01622872 -1.055944
v -0.1123798 -0.0003630805 -1.294063
v -0.2037228 0.06355781 -1.241509
v -0.369682 0.01810372 -0.9332631
v -0.2813998 0.09039253 -1.159585
v -0.3313751 0.1079011 -1.056453
v -0.3486719 0.1143708 -0.933763
v -0.3077322 0.2015498 -0.9341285
v -0.2923822 0.1909162 -1.056986
v -0.2482062 0.1612006 -1.159881
v -0.1795047 0.1152106 -1.241725
v -0.229267 0.260373 -1.056969
v -0.2414502 0.2744819 -0.9343068
v -0.1624445 0.330052 -0.9343281
v -0.09289673 0.05740059 -1.294334
v -0.1402316 0.1583601 -1.241829
v -0.194375 0.2203498 -1.160024
v -0.1540018 0.3133637 -1.05592
v -0.1302222 0.2650642 -1.160042
v -0.09343018 0.1909785 -1.241842
v -0.06460174 0.3413654 -1.056804
v -0.06853759 0.3595332 -0.9341353
v -0.04714203 0.09767769 -1.294396
v -0.03784546 0.2087177 -1.241727
v -0.05402954 0.2893781 -1.159886
v 0.01614258 0.3456452 -1.061912
v 0.02390686 0.2960737 -1.159616
v 0.1020273 0.2789887 -1.159198
v 0.01901428 0.2136054 -1.241531
v 0.07600708 0.2011433 -1.24123
v 0.01263092 0.1097041 -1.294232
v 0.1274878 0.1768012 -1.240877
v 0.07029266 0.0901374 -1.293886
v 0.139339 0.2929194 -0.9329023
v 0.1304272 0.3058405 -0.4113087
v 0.1267364 0.3130012 -0.411368
v 0.1345639 0.2999409 -0.9329634
v 0.1276538 0.3367743 -0.9332154
v 0.1232611 0.3382563 -0.4115327
v 0.1169275 0.3469184 -0.4116121
v 0.1201508 0.3442731 -0.9332917
v 0.1034964 0.3511042 -0.4116896
v 0.1069293 0.3478522 -0.9333656
v 0.0155658 0.3681757 -0.4121437
v 0.01815064 0.3645039 -0.9338197
v -0.06853759 0.3595332 -0.9341353
v -0.07061248 0.3626887 -0.4124525
v -0.1645142 0.3331037 -0.4126472
v -0.1624445 0.330052 -0.9343281
v -0.2414502 0.2744819 -0.9343068
v -0.2435248 0.2776423 -0.4126259
v -0.3098178 0.2047236 -0.4124477
v -0.3077322 0.2015498 -0.9341285
v -0.3486719 0.1143708 -0.933763
v -0.3507489 0.1175312 -0.4120827
v -0.3717572 0.02126412 -0.4115834
v -0.369682 0.01810372 -0.9332631
v -0.3336011 -0.1686077 -0.4102809
v -0.3315246 -0.1717693 -0.9319618
v -0.2764282 -0.2508062 -0.9312642
v -0.2785046 -0.2476458 -0.409582
v -0.2056317 -0.3139678 -0.4088905
v -0.2035562 -0.3171294 -0.9305726
v -0.1163208 -0.3580291 -0.9299775
v -0.118396 -0.3548675 -0.4082948
v -0.02212372 -0.3758636 -0.4077864
v -0.02004883 -0.379024 -0.9294661
v 0.07595154 -0.3708221 -0.9291334
v 0.07387451 -0.3676629 -0.4074537
v 0.1553424 -0.3374187 -0.4073116
v 0.1576929 -0.3402312 -0.9289943
v 0.2331473 -0.2935027 -0.9289766
v 0.2302542 -0.2907415 -0.4072969
v 0.2413345 -0.2818963 -0.407306
v 0.2441894 -0.28497 -0.9289851
v 0.2442111 -0.271972 -0.4073549
v 0.2379645 -0.2461675 -0.4075368
v 0.2405548 -0.2425054 -0.9292561
v 0.247933 -0.2751836 -0.9290303
v 0.2441894 -0.28497 -0.9289851
v 0.2413345 -0.2818963 -0.407306
v 0.3294766 -0.1169341 -1.042227
v 0.3482159 -0.03031547 -1.042826
v 0.2410889 0.2138374 -0.2933913
v 0.1774805 0.2624348 -0.2902522
v 0.1912668 0.2515168 -0.3010036
v 0.2420602 0.2141413 -0.3040627
v 0.2924951 0.1447724 -0.2942653
v 0.2931632 0.1450056 -0.3044679
v 0.3179401 0.06333809 -0.2934816
v 0.1349896 0.288498 -0.2961183
v 0.1285828 0.2940363 -0.2860878
v 0.1381674 0.2989973 -0.4112361
v 0.1304272 0.3058405 -0.4113087
v 0.258559 0.222364 -0.4102937
v 0.1469339 0.2864594 -0.9328334
v 0.139339 0.2929194 -0.9329023
v 0.2003198 0.2624677 -0.410768
v 0.1456738 0.2809406 -1.008051
v 0.1386813 0.2870368 -1.016836
v 0.2091913 0.2552863 -0.9323952
v 0.1991501 0.2423542 -1.014371
v 0.1857184 0.2549286 -1.021369
v 0.2475067 0.203736 -1.018458
v 0.2490234 0.2050983 -1.026716
v 0.2606354 0.2192084 -0.9319734
v 0.2969763 0.1355207 -1.016283
v 0.2979651 0.1363019 -1.025039
v 0.311633 0.1501984 -0.4096449
v 0.3136688 0.1469746 -0.9313258
v 0.3215149 0.05584541 -1.011593
v 0.3216891 0.0557856 -1.021116
v 0.3386389 0.06061836 -0.9307039
v 0.3365613 0.0637812 -0.4090211
v 0.3278986 -0.02858085 -1.010849
v 0.3278445 -0.02867363 -1.020544
v 0.3459229 -0.02973198 -0.9301277
v 0.3104574 -0.109981 -1.010656
v 0.3106415 -0.1100689 -1.020181
v 0.3438711 -0.02659965 -0.4084456
v 0.3181055 0.06319649 -0.3029799
v 0.3248028 -0.02370781 -0.2937831
v 0.3249698 -0.02388115 -0.3031502
v 0.3068561 -0.1075262 -0.292925
v 0.3268982 -0.1157244 -0.9296815
v 0.2789184 -0.1645794 -1.008453
v 0.2704333 -0.1810149 -1.017074
v 0.3070547 -0.1075616 -0.3024226
v 0.2659521 -0.178886 -0.2895351
v 0.3248193 -0.1125652 -0.4080006
v 0.2742578 -0.1629815 -0.2999843
v 0.2315979 -0.2278448 -0.2861293
v 0.2916693 -0.1710076 -0.9294862
v 0.2418597 -0.2210027 -1.005789
v 0.2378348 -0.229323 -1.01466
v 0.286698 -0.1715765 -0.4077943
v 0.2465533 -0.2252215 -0.9293373
v 0.241991 -0.2342486 -0.9293007
v 0.2431491 -0.2287066 -0.4076222
v 0.2386853 -0.2379571 -0.4075831
v 0.2355167 -0.2200872 -0.2960878
vt 0.1473389 0.9785156
vt 0.1470947 0.9780273
vt 0.1469727 0.9780273
vt 0.1472168 0.9790039
vt 0.1485596 0.9785156
vt 0.1485596 0.9785156
vt 0.1557617 0.9765625
vt 0.1558838 0.9765625
vt 0.1575928 0.9760742
vt 0.1577148 0.9760742
vt 0.1518555 0.9750977
vt 0.1523438 0.9746094
vt 0.1523438 0.9746094
vt 0.1518555 0.9750977
vt 0.1514893 0.9755859
vt 0.1523438 0.9746094
vt 0.15271 0.9750977
vt 0.15271 0.9750977
vt 0.15271 0.9750977
vt 0.1523438 0.9746094
vt 0.152832 0.9750977
vt 0.1522217 0.9746094
vt 0.1518555 0.9750977
vt 0.1514893 0.9755859
vt 0.151001 0.9755859
vt 0.1518555 0.9750977
vt 0.1514893 0.9755859
vt 0.151001 0.9755859
vt 0.1503906 0.9760742
vt 0.1524658 0.9741211
vt 0.1529541 0.9746094
vt 0.1530762 0.9736328
vt 0.1503906 0.9760742
vt 0.1499023 0.9755859
vt 0.1499023 0.9755859
vt 0.149292 0.9755859
vt 0.1503906 0.9760742
vt 0.151001 0.9755859
vt 0.1514893 0.9755859
vt 0.1518555 0.9750977
vt 0.151001 0.9755859
vt 0.1514893 0.9755859
vt 0.149292 0.9755859
vt 0.1489258 0.9750977
vt 0.1489258 0.9750977
vt 0.1485596 0.9746094
vt 0.149292 0.9755859
vt 0.1499023 0.9755859
vt 0.1503906 0.9760742
vt 0.1514893 0.9750977
vt 0.1485596 0.9746094
vt 0.1480713 0.9750977
vt 0.1480713 0.9750977
vt 0.1480713 0.9750977
vt 0.1485596 0.9746094
vt 0.151001 0.9755859
vt 0.1499023 0.9755859
vt 0.1489258 0.9750977
vt 0.1485596 0.9746094
vt 0.1480713 0.9750977
vt 0.1485596 0.9746094
vt 0.1480713 0.9750977
vt 0.1503906 0.9760742
vt 0.1508789 0.9750977
vt 0.149292 0.9755859
vt 0.1489258 0.9750977
vt 0.1499023 0.9755859
vt 0.1489258 0.9750977
vt 0.1494141 0.9755859
vt 0.1500244 0.9750977
vt 0.149292 0.9750977
vt 0.1503906 0.9755859
vt 0.1496582 0.9750977
vt 0.1501465 0.9746094
vt 0.1506348 0.9746094
vt 0.1503906 0.9746094
vt 0.1512451 0.9750977
vt 0.1496582 0.9746094
vt 0.1499023 0.9746094
vt 0.1502686 0.9741211
vt 0.1490479 0.9746094
vt 0.151001 0.9746094
vt 0.151123 0.9746094
vt 0.1505127 0.9741211
vt 0.1503906 0.9741211
vt 0.1501465 0.9741211
vt 0.1500244 0.9741211
vt 0.1506348 0.9741211
vt 0.1495361 0.9741211
vt 0.1503906 0.9736328
vt 0.1499023 0.9741211
vt 0.1508789 0.9741211
vt 0.1499023 0.9736328
vt 0.1507568 0.9741211
vt 0.1499023 0.9741211
vt 0.1494141 0.9741211
vt 0.1513672 0.9741211
vt 0.149292 0.9736328
vt 0.1489258 0.9741211
vt 0.1518555 0.9746094
vt 0.1519775 0.9741211
vt 0.1514893 0.9741211
vt 0.1525879 0.9736328
vt 0.1488037 0.9736328
vt 0.1484375 0.9741211
vt 0.1478271 0.9746094
vt 0.1477051 0.9736328
vt 0.1483154 0.9736328
vt 0.1484375 0.9731445
vt 0.1479492 0.9731445
vt 0.1480713 0.9726563
vt 0.1489258 0.9731445
vt 0.1494141 0.9736328
vt 0.1485596 0.9726563
vt 0.1499023 0.9736328
vt 0.1490479 0.9731445
vt 0.1489258 0.972168
vt 0.1485596 0.972168
vt 0.1490479 0.9711914
vt 0.1499023 0.9736328
vt 0.1495361 0.9731445
vt 0.149292 0.9726563
vt 0.149292 0.9716797
vt 0.1496582 0.9731445
vt 0.1500244 0.9736328
vt 0.1496582 0.972168
vt 0.1499023 0.9716797
vt 0.1497803 0.9711914
vt 0.151123 0.9711914
vt 0.1501465 0.9731445
vt 0.1499023 0.9726563
vt 0.1500244 0.972168
vt 0.1501465 0.9726563
vt 0.1502686 0.9731445
vt 0.1503906 0.9716797
vt 0.1503906 0.9731445
vt 0.1503906 0.972168
vt 0.1503906 0.9726563
vt 0.1508789 0.972168
vt 0.1506348 0.9726563
vt 0.1505127 0.9731445
vt 0.1506348 0.9731445
vt 0.151001 0.9726563
vt 0.151001 0.9716797
vt 0.1512451 0.972168
vt 0.151123 0.9711914
vt 0.1517334 0.9711914
vt 0.1514893 0.9716797
vt 0.1518555 0.972168
vt 0.1522217 0.972168
vt 0.15271 0.9726563
vt 0.1514893 0.9726563
vt 0.151123 0.9731445
vt 0.1507568 0.9736328
vt 0.1523438 0.9726563
vt 0.1508789 0.9736328
vt 0.1518555 0.9731445
vt 0.1513672 0.9731445
vt 0.1524658 0.9731445
vt 0.1529541 0.9731445
vt 0.1519775 0.9731445
vt 0.151001 0.9736328
vt 0.1514893 0.9736328
vt 0.1520996 0.9736328
vt 0.1508789 0.9736328
vt 0.1514893 0.9736328
vt 0.1508789 0.9741211
vt 0.1485596 0.9609375
vt 0.1480713 0.9604492
vt 0.1480713 0.9604492
vt 0.1485596 0.9609375
vt 0.1489258 0.9604492
vt 0.1485596 0.9609375
vt 0.1480713 0.9604492
vt 0.1480713 0.9604492
vt 0.1489258 0.9604492
vt 0.149292 0.9599609
vt 0.1485596 0.9609375
vt 0.1480713 0.9604492
vt 0.149292 0.9599609
vt 0.1499023 0.9599609
vt 0.1489258 0.9604492
vt 0.1485596 0.9609375
vt 0.1478271 0.9614258
vt 0.1499023 0.9599609
vt 0.1503906 0.9599609
vt 0.149292 0.9599609
vt 0.1489258 0.9604492
vt 0.1503906 0.9599609
vt 0.151001 0.9599609
vt 0.151001 0.9599609
vt 0.1514893 0.9599609
vt 0.1503906 0.9599609
vt 0.1499023 0.9599609
vt 0.149292 0.9599609
vt 0.1489258 0.9604492
vt 0.1499023 0.9599609
vt 0.1514893 0.9599609
vt 0.1518555 0.9604492
vt 0.1518555 0.9604492
vt 0.1514893 0.9599609
vt 0.151001 0.9599609
vt 0.1518555 0.9604492
vt 0.1503906 0.9599609
vt 0.151001 0.9599609
vt 0.1503906 0.9599609
vt 0.1494141 0.9599609
vt 0.1499023 0.9599609
vt 0.1523438 0.9609375
vt 0.1523438 0.9609375
vt 0.1496582 0.9604492
vt 0.1503906 0.9599609
vt 0.151001 0.9599609
vt 0.151001 0.9599609
vt 0.1514893 0.9599609
vt 0.1514893 0.9599609
vt 0.1503906 0.9604492
vt 0.15271 0.9604492
vt 0.15271 0.9604492
vt 0.1518555 0.9604492
vt 0.1523438 0.9609375
vt 0.15271 0.9604492
vt 0.1522217 0.9609375
vt 0.152832 0.9604492
vt 0.1529541 0.9614258
vt 0.1518555 0.9604492
vt 0.1514893 0.9599609
vt 0.1512451 0.9604492
vt 0.1508789 0.9604492
vt 0.1524658 0.9614258
vt 0.1518555 0.9609375
vt 0.1514893 0.9609375
vt 0.151001 0.9609375
vt 0.1525879 0.9619141
vt 0.1530762 0.9619141
vt 0.1529541 0.9624023
vt 0.1503906 0.9609375
vt 0.1506348 0.9609375
vt 0.1506348 0.9614258
vt 0.1503906 0.9614258
vt 0.151123 0.9609375
vt 0.1500244 0.9604492
vt 0.1505127 0.9614258
vt 0.1501465 0.9609375
vt 0.1499023 0.9609375
vt 0.1501465 0.9614258
vt 0.1502686 0.9614258
vt 0.149292 0.9609375
vt 0.1503906 0.9619141
vt 0.1508789 0.9614258
vt 0.1499023 0.9614258
vt 0.151001 0.9619141
vt 0.1499023 0.9619141
vt 0.1508789 0.9619141
vt 0.1499023 0.9619141
vt 0.1506348 0.9624023
vt 0.1501465 0.9624023
vt 0.1503906 0.9624023
vt 0.1507568 0.9614258
vt 0.1513672 0.9614258
vt 0.1519775 0.9614258
vt 0.1514893 0.9614258
vt 0.1520996 0.9619141
vt 0.1508789 0.9619141
vt 0.1514893 0.9619141
vt 0.1524658 0.9624023
vt 0.1519775 0.9624023
vt 0.1514893 0.9619141
vt 0.1523438 0.9628906
vt 0.15271 0.9633789
vt 0.1522217 0.9638672
vt 0.1508789 0.9619141
vt 0.1513672 0.9624023
vt 0.1518555 0.9628906
vt 0.1518555 0.9633789
vt 0.1514893 0.9628906
vt 0.151123 0.9624023
vt 0.1514893 0.9638672
vt 0.1517334 0.9643555
vt 0.151123 0.9643555
vt 0.1507568 0.9624023
vt 0.151001 0.9628906
vt 0.1512451 0.9633789
vt 0.151001 0.9638672
vt 0.1508789 0.9633789
vt 0.1506348 0.9628906
vt 0.1503906 0.9638672
vt 0.1503906 0.9643555
vt 0.1505127 0.9624023
vt 0.1503906 0.9628906
vt 0.1503906 0.9633789
vt 0.1501465 0.9628906
vt 0.1500244 0.9633789
vt 0.1499023 0.9638672
vt 0.1502686 0.9624023
vt 0.1499023 0.9628906
vt 0.1497803 0.9643555
vt 0.1496582 0.9633789
vt 0.149292 0.9638672
vt 0.1490479 0.9643555
vt 0.1485596 0.9638672
vt 0.1489258 0.9633789
vt 0.149292 0.9628906
vt 0.1496582 0.9624023
vt 0.1485596 0.9628906
vt 0.1480713 0.9633789
vt 0.1479492 0.9624023
vt 0.1500244 0.9624023
vt 0.1495361 0.9624023
vt 0.1490479 0.9628906
vt 0.1484375 0.9624023
vt 0.1489258 0.9624023
vt 0.1494141 0.9619141
vt 0.1483154 0.9619141
vt 0.1477051 0.9619141
vt 0.1499023 0.9619141
vt 0.149292 0.9619141
vt 0.1488037 0.9619141
vt 0.1484375 0.9614258
vt 0.1489258 0.9614258
vt 0.1490479 0.9609375
vt 0.1494141 0.9614258
vt 0.1495361 0.9614258
vt 0.1499023 0.9619141
vt 0.1496582 0.9609375
vt 0.1500244 0.9614258
vt 0.1496582 0.9643555
vt 0.1496582 0.9711914
vt 0.1496582 0.9711914
vt 0.1496582 0.9643555
vt 0.1496582 0.9643555
vt 0.1496582 0.9711914
vt 0.1496582 0.9711914
vt 0.1496582 0.9643555
vt 0.1497803 0.9711914
vt 0.1497803 0.9643555
vt 0.1499023 0.9711914
vt 0.1499023 0.9643555
vt 0.1500244 0.9643555
vt 0.1500244 0.9711914
vt 0.1502686 0.9711914
vt 0.1502686 0.9643555
vt 0.1503906 0.9643555
vt 0.1503906 0.9711914
vt 0.1506348 0.9711914
vt 0.1506348 0.9643555
vt 0.1507568 0.9643555
vt 0.1507568 0.9711914
vt 0.151001 0.9711914
vt 0.151001 0.9643555
vt 0.1513672 0.9711914
vt 0.1513672 0.9643555
vt 0.1514893 0.9643555
vt 0.1514893 0.9711914
vt 0.1517334 0.9711914
vt 0.1517334 0.9643555
vt 0.1518555 0.9643555
vt 0.1518555 0.9711914
vt 0.1520996 0.9711914
vt 0.1520996 0.9643555
vt 0.1522217 0.9643555
vt 0.1522217 0.9711914
vt 0.1523438 0.9711914
vt 0.1523438 0.9643555
vt 0.1525879 0.9643555
vt 0.1525879 0.9711914
vt 0.1525879 0.9711914
vt 0.1525879 0.9643555
vt 0.1496582 0.9711914
vt 0.1496582 0.9711914
vt 0.1496582 0.9643555
vt 0.1496582 0.9643555
vt 0.1496582 0.9643555
vt 0.1496582 0.9711914
vt 0.1514893 0.9599609
vt 0.151001 0.9599609
vt 0.2111816 0.9750977
vt 0.2115479 0.9765625
vt 0.2122803 0.9760742
vt 0.2120361 0.9750977
vt 0.2109375 0.9731445
vt 0.2119141 0.9731445
vt 0.2108154 0.9711914
vt 0.2125244 0.9770508
vt 0.2121582 0.9775391
vt 0.2143555 0.9775391
vt 0.2142334 0.9780273
vt 0.2141113 0.9746094
vt 0.2213135 0.9770508
vt 0.2214355 0.9780273
vt 0.2142334 0.9760742
vt 0.2225342 0.9770508
vt 0.2230225 0.9775391
vt 0.2211914 0.9760742
vt 0.2227783 0.9760742
vt 0.2236328 0.9765625
vt 0.2231445 0.9750977
vt 0.223999 0.9750977
vt 0.2213135 0.9746094
vt 0.2232666 0.9731445
vt 0.2242432 0.9731445
vt 0.2141113 0.9731445
vt 0.2213135 0.9731445
vt 0.2232666 0.9711914
vt 0.2243652 0.9711914
vt 0.2213135 0.9711914
vt 0.2141113 0.9711914
vt 0.2232666 0.9692383
vt 0.2242432 0.96875
vt 0.2213135 0.9692383
vt 0.2230225 0.9672852
vt 0.223999 0.9672852
vt 0.2141113 0.9692383
vt 0.2119141 0.9711914
vt 0.2109375 0.96875
vt 0.2119141 0.96875
vt 0.2111816 0.9667969
vt 0.2213135 0.9672852
vt 0.2227783 0.9658203
vt 0.2236328 0.9658203
vt 0.2121582 0.9672852
vt 0.2115479 0.965332
vt 0.2142334 0.9672852
vt 0.2124023 0.9658203
vt 0.2121582 0.9643555
vt 0.2213135 0.9658203
vt 0.2225342 0.9648438
vt 0.2230225 0.9648438
vt 0.2142334 0.9658203
vt 0.2213135 0.9648438
vt 0.2214355 0.9643555
vt 0.2143555 0.9648438
vt 0.2142334 0.9638672
vt 0.2126465 0.9648438
vn 0.9277344 -0.3464355 0.1385498
vn 0.8037109 -0.4873047 0.342041
vn 0.6875 -0.4155273 0.5952148
vn 0.9814453 -0.07305908 0.1781006
vn 0.953125 -0.3022461 -0.005786896
vn 0.9897461 0.1431885 -0.003629684
vn 0.9570313 -0.2888184 0.01742554
vn 0.9887695 0.1496582 0.01342773
vn 0.9482422 -0.2956543 -0.1142578
vn 0.9829102 -0.02728271 -0.1818848
vn 0.7871094 -0.5200195 -0.3325195
vn 0.9482422 -0.2956543 -0.1142578
vn 0.9829102 -0.02728271 -0.1818848
vn 0.6591797 -0.440918 -0.6088867
vn 0.8999023 -0.3503418 -0.2597656
vn 0.972168 -0.2108154 -0.1034546
vn 0.9887695 0.1496582 0.01342773
vn 0.9970703 0.07733154 0.01847839
vn 0.7905273 -0.6108398 0.03756714
vn 0.7226563 -0.6865234 0.07623291
vn 0.5424805 -0.8393555 0.03762817
vn 0.5673828 -0.7680664 0.2971191
vn 0.6987305 -0.470459 -0.5395508
vn 0.7260742 -0.2971191 -0.6201172
vn 0.9667969 -0.06304932 -0.2468262
vn 0.7895508 -0.5810547 -0.1968994
vn 0.7553711 -0.314209 -0.574707
vn 0.7705078 -0.05236816 -0.6352539
vn 0.9550781 0.184082 -0.2325439
vn 0.4313965 -0.8647461 0.2563477
vn 0.4440918 -0.8955078 0.03518677
vn 0.2126465 -0.9765625 0.0322876
vn 0.7563477 0.1422119 -0.6386719
vn 0.8735352 0.449707 -0.1871338
vn 0.6762695 0.3427734 -0.6518555
vn 0.6982422 0.6918945 -0.1835938
vn 0.7822266 0.1429443 -0.6064453
vn 0.7983398 -0.05639648 -0.5991211
vn 0.9018555 -0.3701172 -0.2225342
vn 0.7578125 -0.5292969 0.3811035
vn 0.9868164 -0.0657959 -0.1463623
vn 0.8637695 -0.3078613 0.3984375
vn 0.5351563 0.5463867 -0.6445313
vn 0.5366211 0.7905273 -0.295166
vn 0.4230957 0.6313477 -0.6499023
vn 0.769043 0.6293945 -0.1118164
vn 0.5551758 0.5639648 -0.6113281
vn 0.7011719 0.3481445 -0.6220703
vn 0.972168 0.1774902 -0.1531982
vn 0.6787109 -0.4641113 0.5688477
vn 0.9003906 0.385498 -0.2020264
vn 0.7695313 0.6381836 0.01024628
vn 0.9707031 0.2403564 0.01374817
vn 0.9516602 0.3068848 0.01821899
vn 0.8325195 0.5429688 -0.1095581
vn 0.9038086 -0.05825806 0.4238281
vn 0.8857422 0.4345703 -0.163208
vn 0.4509277 0.6743164 -0.5849609
vn 0.4204102 0.9042969 0.07080078
vn 0.5097656 0.8598633 0.02880859
vn 0.2471924 0.9262695 0.284668
vn 0.2027588 0.9790039 0.02571106
vn 0.8916016 0.1656494 0.4208984
vn 0.8139648 -0.05072021 0.5786133
vn 0.6831055 0.6884766 -0.2438965
vn 0.5087891 0.8339844 -0.2142334
vn 0.8120117 0.4030762 0.4221191
vn 0.4978027 0.7841797 0.3703613
vn 0.6723633 0.628418 0.3913574
vn 0.730957 0.3637695 0.5776367
vn 0.4494629 0.6958008 0.5605469
vn 0.8022461 0.1502686 0.5776367
vn 0.6030273 0.5566406 0.5717773
vn 0.5571289 0.2802734 0.7817383
vn 0.6210938 -0.0368042 0.7827148
vn 0.6113281 0.1168213 0.7827148
vn 0.7719727 -0.2666016 0.5766602
vn 0.3449707 0.5244141 0.7783203
vn 0.4606934 0.4230957 0.7802734
vn 0.3105469 0.1601563 0.9370117
vn 0.2634277 0.7880859 0.5561523
vn 0.5883789 -0.1975098 0.7841797
vn 0.5166016 -0.3432617 0.7841797
vn 0.345459 -0.01750183 0.9379883
vn 0.3361816 0.06860352 0.9394531
vn 0.2536621 0.2365723 0.9379883
vn 0.1911621 0.2966309 0.9355469
vn 0.3239746 -0.1062622 0.9399414
vn 0.1977539 0.5966797 0.777832
vn -0.003974915 0.006053925 1
vn 0.107605 0.3334961 0.9365234
vn 0.2216797 -0.2580566 0.9404297
vn -0.07183838 0.3449707 0.9360352
vn 0.2871094 -0.1890869 0.9389648
vn 0.01954651 0.3549805 0.9345703
vn 0.03848267 0.6289063 0.7768555
vn 0.4025879 -0.4716797 0.784668
vn -0.1264648 0.6176758 0.7763672
vn 0.05477905 0.824707 0.5629883
vn 0.534668 -0.6274414 0.5664063
vn 0.3630371 -0.7348633 0.5727539
vn 0.2734375 -0.5576172 0.7841797
vn 0.2025146 -0.9453125 0.2563477
vn -0.1677246 0.8095703 0.5625
vn 0.06878662 0.9672852 0.2440186
vn 0.06994629 0.9970703 0.02244568
vn -0.1893311 0.9819336 0.01893616
vn -0.1884766 0.9511719 0.2441406
vn -0.4279785 0.8701172 0.2452393
vn -0.4414063 0.8969727 0.01856995
vn -0.6621094 0.7490234 0.01852417
vn -0.3664551 0.7436523 0.5585938
vn -0.2790527 0.565918 0.7758789
vn -0.6411133 0.7270508 0.2467041
vn -0.1582031 0.3198242 0.934082
vn -0.546875 0.6230469 0.559082
vn -0.8046875 0.5395508 0.2467041
vn -0.8305664 0.5561523 0.01908875
vn -0.9472656 0.3198242 0.01998901
vn -0.2322998 0.265625 0.9355469
vn -0.4162598 0.473877 0.7758789
vn -0.6875 0.4624023 0.5600586
vn -0.9174805 0.310791 0.2473145
vn -0.5229492 0.3527832 0.7758789
vn -0.2946777 0.2004395 0.9345703
vn -0.7836914 0.2670898 0.5605469
vn -0.9663086 0.0657959 0.2486572
vn -0.9975586 0.06652832 0.02139282
vn -0.9799805 -0.1967773 0.022995
vn -0.3317871 0.1164551 0.9360352
vn -0.5957031 0.2044678 0.7768555
vn -0.8251953 0.05819702 0.5615234
vn -0.6274414 0.04629517 0.7773438
vn -0.3530273 0.02896118 0.9350586
vn -0.949707 -0.1890869 0.2502441
vn -0.3432617 -0.06234741 0.9370117
vn -0.8110352 -0.1590576 0.5629883
vn -0.6162109 -0.1184082 0.7788086
vn -0.7426758 -0.3605957 0.5644531
vn -0.5644531 -0.2712402 0.7797852
vn -0.3178711 -0.1488037 0.9365234
vn -0.2636719 -0.2229004 0.9384766
vn -0.4724121 -0.4084473 0.78125
vn -0.8691406 -0.4255371 0.2521973
vn -0.621582 -0.5415039 0.565918
vn -0.8969727 -0.4411621 0.02487183
vn -0.7504883 -0.6601563 0.02671814
vn -0.7270508 -0.6376953 0.2539063
vn -0.5395508 -0.8022461 0.2556152
vn -0.5561523 -0.8305664 0.02859497
vn -0.3198242 -0.9467773 0.03004456
vn -0.4611816 -0.6821289 0.5673828
vn -0.3510742 -0.5151367 0.7817383
vn -0.1986084 -0.2851563 0.9375
vn -0.3105469 -0.9150391 0.2580566
vn -0.114563 -0.3222656 0.9394531
vn -0.265625 -0.7788086 0.5683594
vn -0.2028809 -0.5874023 0.7832031
vn -0.06506348 -0.9643555 0.2570801
vn -0.06652832 -0.9970703 0.03125
vn -0.05718994 -0.8198242 0.5693359
vn 0.06738281 -0.3337402 0.9404297
vn -0.04467773 -0.6191406 0.7836914
vn 0.1647949 -0.8027344 0.5732422
vn -0.02700806 -0.34375 0.9384766
vn 0.1264648 -0.6074219 0.7841797
vn 0.1507568 -0.3083496 0.9394531
vn 0.715332 0.6787109 0.1660156
vn 0.7568359 0.6538086 -0.01036072
vn 0.9672852 0.2531738 -0.001972198
vn 0.8759766 0.454834 0.1591797
vn 0.5429688 0.7006836 0.4631348
vn 0.7915039 0.605957 0.07977295
vn 0.9492188 0.3139648 -0.007324219
vn 0.5009766 0.8647461 -0.03231812
vn 0.4748535 0.6376953 0.6064453
vn 0.6235352 0.5751953 0.5292969
vn 0.4006348 0.9121094 -0.08776855
vn 0.2011719 0.9790039 -0.03643799
vn 0.5107422 0.5019531 0.6982422
vn 0.7973633 0.3935547 0.4575195
vn 0.4970703 0.7119141 0.4963379
vn 0.25 0.9145508 -0.3186035
vn 0.06939697 0.9970703 -0.03509521
vn 0.6157227 0.3049316 0.7265625
vn 0.9311523 0.1734619 0.3212891
vn 0.5654297 0.5795898 0.5869141
vn 0.5214844 0.8320313 0.1894531
vn 0.7114258 0.1330566 0.6899414
vn 0.9580078 -0.06182861 0.279541
vn 0.7314453 -0.04522705 0.6801758
vn 0.8955078 -0.329834 0.298584
vn 0.7529297 0.1408691 0.6430664
vn 0.6899414 0.3376465 0.640625
vn 0.6796875 0.6884766 0.253418
vn 0.5024414 0.7783203 -0.3764648
vn 0.8808594 0.4350586 0.1860352
vn 0.7070313 -0.2734375 0.6523438
vn 0.8037109 -0.4873047 0.342041
vn 0.6875 -0.4155273 0.5952148
vn 0.7387695 -0.300293 0.6035156
vn 0.7646484 -0.04681396 0.6425781
vn 0.71875 -0.4562988 0.5249023
vn 0.9663086 0.1783447 0.1844482
vn 0.980957 -0.06378174 0.1842041
vn 0.9663086 0.1783447 0.1844482
vn 0.6767578 0.6235352 -0.3916016
vn 0.815918 0.3986816 -0.4191895
vn 0.9614258 -0.255127 0.1048584
vn 0.9814453 -0.07305908 0.1781006
vn 0.6079102 0.5488281 -0.5737305
vn 0.8959961 0.1608887 -0.4140625
vn 0.980957 -0.06378174 0.1842041
vn 0.9082031 -0.06335449 -0.4140625
vn 0.8945313 -0.3642578 0.2587891
vn 0.7387695 -0.300293 0.6035156
vn 0.8066406 0.1433105 -0.5732422
vn 0.9970703 0.07446289 -0.007781982
vn 0.9897461 0.1431885 -0.003629684
vn 0.7949219 -0.5698242 0.2078857
vn 0.7211914 -0.6894531 -0.06970215
vn 0.7880859 -0.6152344 -0.02276611
vn 0.5688477 -0.7626953 -0.3081055
vn 0.5419922 -0.840332 -0.02389526
vn 0.4438477 -0.8959961 -0.0218811
vn 0.7617188 -0.5332031 -0.3676758
vn 0.8681641 -0.3125 -0.3852539
vn 0.7763672 -0.2731934 -0.5678711
vn 0.8183594 -0.05767822 -0.5717773
vn 0.4277344 -0.8618164 -0.2727051
vn 0.5385742 -0.6337891 -0.5551758
vn 0.6831055 -0.470459 -0.5585938
vn 0.5947266 -0.2070313 -0.7768555
vn 0.2017822 -0.9399414 -0.2749023
vn 0.2127686 -0.9770508 -0.01991272
vn -0.06634521 -0.9975586 -0.02078247
vn 0.6176758 0.1073608 -0.7792969
vn 0.6274414 -0.04626465 -0.7773438
vn 0.3312988 -0.1176147 -0.9360352
vn 0.34375 0.05722046 -0.9375
vn 0.5229492 -0.3527832 -0.7758789
vn 0.7353516 0.3569336 -0.5761719
vn 0.3530273 -0.02886963 -0.9350586
vn 0.5634766 0.2709961 -0.7802734
vn 0.467041 0.4135742 -0.7817383
vn 0.2609863 0.2252197 -0.9384766
vn 0.3178711 0.1489258 -0.9365234
vn 0.4541016 0.6875 -0.5664063
vn 0.003974915 -0.006057739 -1
vn 0.229248 -0.2692871 -0.9355469
vn 0.1150513 0.3222656 -0.9394531
vn 0.07489014 -0.3452148 -0.9355469
vn -0.06439209 0.3337402 -0.9404297
vn -0.1070557 -0.3337402 -0.9365234
vn -0.2248535 0.2541504 -0.9404297
vn -0.2561035 -0.2342529 -0.9379883
vn -0.3242188 0.1051025 -0.9399414
vn -0.3356934 -0.07373047 -0.9389648
vn 0.2946777 -0.2004395 -0.9345703
vn 0.4086914 -0.4812012 -0.7753906
vn 0.3674316 -0.7416992 -0.5610352
vn 0.279541 -0.5668945 -0.7749023
vn 0.1693115 -0.8095703 -0.5620117
vn 0.1582031 -0.3198242 -0.934082
vn 0.1326904 -0.6171875 -0.7758789
vn -0.06234741 -0.9584961 -0.2783203
vn -0.05270386 -0.8266602 -0.5600586
vn -0.03845215 -0.6289063 -0.7763672
vn -0.3051758 -0.909668 -0.2810059
vn -0.3195801 -0.9472656 -0.02220154
vn -0.5561523 -0.8305664 -0.02401733
vn -0.01953125 -0.3549805 -0.9345703
vn -0.1966553 -0.597168 -0.777832
vn -0.2609863 -0.7856445 -0.5610352
vn -0.5322266 -0.7983398 -0.2822266
vn -0.4567871 -0.6889648 -0.5629883
vn -0.3449707 -0.5244141 -0.7783203
vn -0.7182617 -0.6352539 -0.2836914
vn -0.75 -0.6606445 -0.02575684
vn -0.8969727 -0.4414063 -0.02774048
vn -0.1911621 -0.2966309 -0.9355469
vn -0.4660645 -0.4177246 -0.7797852
vn -0.6166992 -0.5483398 -0.5644531
vn -0.8588867 -0.4248047 -0.2858887
vn -0.737793 -0.3674316 -0.565918
vn -0.5581055 -0.2807617 -0.7807617
vn -0.9384766 -0.1905518 -0.2873535
vn -0.9799805 -0.1971436 -0.02949524
vn -0.3105469 -0.1601563 -0.9370117
vn -0.6098633 -0.1279297 -0.7822266
vn -0.8066406 -0.1658936 -0.5673828
vn -0.6210938 0.03683472 -0.7827148
vn -0.8208008 0.05136108 -0.5688477
vn -0.9550781 0.06192017 -0.2890625
vn -0.3457031 0.0176239 -0.9379883
vn -0.5893555 0.1950684 -0.7841797
vn -0.9975586 0.06622314 -0.03120422
vn -0.7792969 0.2600098 -0.5698242
vn -0.9072266 0.3046875 -0.2900391
vn -0.9467773 0.3195801 -0.03250122
vn -0.8305664 0.5561523 -0.03353882
vn -0.7954102 0.5317383 -0.2915039
vn -0.6831055 0.4555664 -0.5708008
vn -0.5166016 0.3432617 -0.7841797
vn -0.6328125 0.7167969 -0.2924805
vn -0.6621094 0.7485352 -0.03393555
vn -0.4411621 0.8969727 -0.03396606
vn -0.2871094 0.1890869 -0.9389648
vn -0.4099121 0.4645996 -0.7851563
vn -0.5424805 0.6162109 -0.5708008
vn -0.421875 0.8583984 -0.2915039
vn -0.3620605 0.7368164 -0.5708008
vn -0.2729492 0.5566406 -0.784668
vn -0.1846924 0.9394531 -0.2885742
vn -0.1888428 0.9814453 -0.03356934
vn -0.1507568 0.3085938 -0.9389648
vn -0.1202393 0.6079102 -0.784668
vn -0.1630859 0.8027344 -0.5737305
vn 0.06750488 0.9560547 -0.2849121
vn 0.05917358 0.8178711 -0.5722656
vn 0.2670898 0.7807617 -0.5644531
vn 0.04467773 0.6191406 -0.7836914
vn 0.2039795 0.5874023 -0.7832031
vn 0.0269928 0.34375 -0.9384766
vn 0.3513184 0.5151367 -0.7817383
vn 0.1986084 0.2851563 -0.9375
vn 0.7568359 0.6538086 -0.01036072
vn 0.7695313 0.6381836 0.01024628
vn 0.9707031 0.2403564 0.01374817
vn 0.9672852 0.2531738 -0.001972198
vn 0.9492188 0.3139648 -0.007324219
vn 0.9516602 0.3068848 0.01821899
vn 0.5097656 0.8598633 0.02880859
vn 0.5009766 0.8647461 -0.03231812
vn 0.2027588 0.9790039 0.02571106
vn 0.2011719 0.9790039 -0.03643799
vn 0.06994629 0.9970703 0.02244568
vn 0.06939697 0.9970703 -0.03509521
vn -0.1888428 0.9814453 -0.03356934
vn -0.1893311 0.9819336 0.01893616
vn -0.4414063 0.8969727 0.01856995
vn -0.4411621 0.8969727 -0.03396606
vn -0.6621094 0.7485352 -0.03393555
vn -0.6621094 0.7490234 0.01852417
vn -0.8305664 0.5561523 0.01908875
vn -0.8305664 0.5561523 -0.03353882
vn -0.9467773 0.3195801 -0.03250122
vn -0.9472656 0.3198242 0.01998901
vn -0.9975586 0.06652832 0.02139282
vn -0.9975586 0.06622314 -0.03120422
vn -0.8969727 -0.4411621 0.02487183
vn -0.8969727 -0.4414063 -0.02774048
vn -0.75 -0.6606445 -0.02575684
vn -0.7504883 -0.6601563 0.02671814
vn -0.5561523 -0.8305664 0.02859497
vn -0.5561523 -0.8305664 -0.02401733
vn -0.3195801 -0.9472656 -0.02220154
vn -0.3198242 -0.9467773 0.03004456
vn -0.06652832 -0.9970703 0.03125
vn -0.06634521 -0.9975586 -0.02078247
vn 0.2127686 -0.9770508 -0.01991272
vn 0.2126465 -0.9765625 0.0322876
vn 0.4440918 -0.8955078 0.03518677
vn 0.4438477 -0.8959961 -0.0218811
vn 0.5419922 -0.840332 -0.02389526
vn 0.5424805 -0.8393555 0.03762817
vn 0.7905273 -0.6108398 0.03756714
vn 0.7880859 -0.6152344 -0.02276611
vn 0.9970703 0.07733154 0.01847839
vn 0.9887695 0.1496582 0.01342773
vn 0.9897461 0.1431885 -0.003629684
vn 0.9970703 0.07446289 -0.007781982
vn 0.7880859 -0.6152344 -0.02276611
vn 0.7905273 -0.6108398 0.03756714
vn 0.7387695 -0.300293 0.6035156
vn 0.7646484 -0.04681396 0.6425781
vn 0.6982422 0.6918945 -0.1835938
vn 0.5366211 0.7905273 -0.295166
vn 0.5537109 0.8251953 0.1125488
vn 0.7036133 0.6948242 0.1480713
vn 0.8735352 0.449707 -0.1871338
vn 0.8808594 0.4438477 0.1639404
vn 0.9550781 0.184082 -0.2325439
vn 0.5581055 0.8256836 0.08282471
vn 0.769043 0.6293945 -0.1118164
vn 0.5112305 0.859375 0.01168823
vn 0.7695313 0.6381836 0.01024628
vn 0.715332 0.6982422 0.02566528
vn 0.5048828 0.862793 -0.02328491
vn 0.7568359 0.6538086 -0.01036072
vn 0.5288086 0.8486328 0.01707458
vn 0.5424805 0.8349609 -0.09112549
vn 0.715332 0.6787109 0.1660156
vn 0.527832 0.8491211 -0.02740479
vn 0.5571289 0.8188477 -0.1386719
vn 0.5429688 0.7006836 0.4631348
vn 0.7197266 0.6694336 -0.1838379
vn 0.6235352 0.5751953 0.5292969
vn 0.7163086 0.6972656 -0.03128052
vn 0.8798828 0.4335938 -0.1942139
vn 0.7973633 0.3935547 0.4575195
vn 0.8964844 0.4416504 0.02926636
vn 0.8964844 0.4416504 -0.02992249
vn 0.9648438 0.1767578 -0.1934814
vn 0.9311523 0.1734619 0.3212891
vn 0.9833984 0.1795654 -0.02642822
vn 0.9833984 0.1798096 0.03121948
vn 0.9790039 -0.06591797 -0.1936035
vn 0.9580078 -0.06182861 0.279541
vn 0.9975586 -0.06658936 -0.02445984
vn 0.921875 -0.3427734 -0.1815186
vn 0.8955078 -0.329834 0.298584
vn 0.9970703 -0.06622314 0.03283691
vn 0.9697266 0.1824951 0.1621094
vn 0.9667969 -0.06304932 -0.2468262
vn 0.984375 -0.06292725 0.1635742
vn 0.8999023 -0.3503418 -0.2597656
vn 0.9321289 -0.3608398 -0.02142334
vn 0.8242188 -0.5493164 -0.1356201
vn 0.8037109 -0.4873047 0.342041
vn 0.9228516 -0.3530273 0.1533203
vn 0.7871094 -0.5200195 -0.3325195
vn 0.9321289 -0.3605957 0.03308105
vn 0.828125 -0.5478516 0.1193848
vn 0.9482422 -0.2956543 -0.1142578
vn 0.8144531 -0.5800781 -0.01576233
vn 0.8212891 -0.5634766 -0.08666992
vn 0.9277344 -0.3464355 0.1385498
vn 0.8154297 -0.578125 0.02767944
vn 0.8007813 -0.5986328 -0.01230621
vn 0.953125 -0.3022461 -0.005786896
vn 0.8041992 -0.5942383 0.02314758
vn 0.9570313 -0.2888184 0.01742554
vn 0.8305664 -0.5498047 0.08850098
g Seat_01_0
f 3/3/3 2/2/2 1/1/1
f 4/4/4 3/3/3 1/1/1
f 1/1/1 5/5/5 4/4/4
f 5/5/5 6/6/6 4/4/4
f 5/5/5 7/7/7 6/6/6
f 7/7/7 8/8/8 6/6/6
f 7/7/7 9/9/9 8/8/8
f 9/9/9 10/10/10 8/8/8
f 13/13/13 12/12/12 11/11/11
f 14/14/14 13/13/13 11/11/11
f 14/14/14 11/11/11 15/15/15
f 16/16/16 13/13/13 14/14/14
f 17/17/17 13/13/13 16/16/16
f 18/18/18 17/17/17 16/16/16
f 19/19/19 18/18/18 16/16/16
f 20/20/20 19/19/19 16/16/16
f 21/21/21 19/19/19 20/20/20
f 22/22/22 21/21/21 20/20/20
f 16/16/16 23/23/23 20/20/20
f 23/23/23 16/16/16 14/14/14
f 24/24/24 14/14/14 15/15/15
f 15/15/15 25/25/25 24/24/24
f 23/23/23 26/26/26 20/20/20
f 20/20/20 26/26/26 22/22/22
f 23/23/23 14/14/14 27/27/27
f 14/14/14 24/24/24 27/27/27
f 23/23/23 27/27/27 26/26/26
f 25/25/25 28/28/28 24/24/24
f 27/27/27 24/24/24 28/28/28
f 25/25/25 29/29/29 28/28/28
f 21/21/21 22/22/22 30/30/30
f 31/31/31 21/21/21 30/30/30
f 31/31/31 30/30/30 32/32/32
f 29/29/29 33/33/33 28/28/28
f 29/29/29 34/34/34 33/33/33
f 34/34/34 35/35/35 33/33/33
f 34/34/34 36/36/36 35/35/35
f 28/28/28 33/33/33 37/37/37
f 37/37/37 33/33/33 35/35/35
f 38/38/38 27/27/27 28/28/28
f 38/38/38 28/28/28 37/37/37
f 27/27/27 38/38/38 39/39/39
f 27/27/27 39/39/39 26/26/26
f 26/26/26 40/40/40 22/22/22
f 26/26/26 39/39/39 40/40/40
f 38/38/38 41/41/41 39/39/39
f 38/38/38 37/37/37 41/41/41
f 39/39/39 42/42/42 40/40/40
f 39/39/39 41/41/41 42/42/42
f 36/36/36 43/43/43 35/35/35
f 36/36/36 44/44/44 43/43/43
f 44/44/44 45/45/45 43/43/43
f 44/44/44 46/46/46 45/45/45
f 35/35/35 43/43/43 47/47/47
f 47/47/47 43/43/43 45/45/45
f 48/48/48 37/37/37 35/35/35
f 48/48/48 35/35/35 47/47/47
f 37/37/37 49/49/49 41/41/41
f 37/37/37 48/48/48 49/49/49
f 40/40/40 42/42/42 50/50/50
f 40/40/40 50/50/50 22/22/22
f 46/46/46 51/51/51 45/45/45
f 51/51/51 46/46/46 52/52/52
f 53/53/53 51/51/51 52/52/52
f 51/51/51 53/53/53 54/54/54
f 45/45/45 51/51/51 55/55/55
f 55/55/55 51/51/51 54/54/54
f 41/41/41 56/56/56 42/42/42
f 41/41/41 49/49/49 56/56/56
f 48/48/48 57/57/57 49/49/49
f 48/48/48 47/47/47 57/57/57
f 58/58/58 47/47/47 45/45/45
f 58/58/58 45/45/45 55/55/55
f 55/55/55 54/54/54 59/59/59
f 54/54/54 60/60/60 59/59/59
f 59/59/59 60/60/60 61/61/61
f 60/60/60 62/62/62 61/61/61
f 49/49/49 63/63/63 56/56/56
f 49/49/49 57/57/57 63/63/63
f 56/56/56 64/64/64 42/42/42
f 56/56/56 63/63/63 64/64/64
f 47/47/47 58/58/58 65/65/65
f 47/47/47 65/65/65 57/57/57
f 58/58/58 55/55/55 66/66/66
f 55/55/55 59/59/59 66/66/66
f 58/58/58 66/66/66 65/65/65
f 57/57/57 65/65/65 67/67/67
f 57/57/57 67/67/67 63/63/63
f 66/66/66 59/59/59 68/68/68
f 59/59/59 61/61/61 68/68/68
f 65/65/65 66/66/66 69/69/69
f 65/65/65 69/69/69 67/67/67
f 66/66/66 68/68/68 69/69/69
f 67/67/67 70/70/70 63/63/63
f 67/67/67 69/69/69 70/70/70
f 68/68/68 71/71/71 69/69/69
f 68/68/68 61/61/61 71/71/71
f 63/63/63 72/72/72 64/64/64
f 70/70/70 72/72/72 63/63/63
f 69/69/69 73/73/73 70/70/70
f 71/71/71 73/73/73 69/69/69
f 70/70/70 74/74/74 72/72/72
f 70/70/70 73/73/73 74/74/74
f 64/64/64 72/72/72 75/75/75
f 74/74/74 76/76/76 72/72/72
f 72/72/72 76/76/76 75/75/75
f 64/64/64 75/75/75 77/77/77
f 64/64/64 77/77/77 42/42/42
f 42/42/42 77/77/77 50/50/50
f 71/71/71 78/78/78 73/73/73
f 73/73/73 79/79/79 74/74/74
f 78/78/78 79/79/79 73/73/73
f 74/74/74 80/80/80 76/76/76
f 74/74/74 79/79/79 80/80/80
f 71/71/71 81/81/81 78/78/78
f 61/61/61 81/81/81 71/71/71
f 75/75/75 82/82/82 77/77/77
f 50/50/50 77/77/77 83/83/83
f 77/77/77 82/82/82 83/83/83
f 75/75/75 76/76/76 84/84/84
f 75/75/75 84/84/84 82/82/82
f 80/80/80 85/85/85 76/76/76
f 76/76/76 85/85/85 84/84/84
f 79/79/79 86/86/86 80/80/80
f 80/80/80 86/86/86 85/85/85
f 78/78/78 87/87/87 79/79/79
f 87/87/87 86/86/86 79/79/79
f 84/84/84 88/88/88 82/82/82
f 84/84/84 85/85/85 88/88/88
f 78/78/78 89/89/89 87/87/87
f 81/81/81 89/89/89 78/78/78
f 86/86/86 90/90/90 85/85/85
f 85/85/85 90/90/90 88/88/88
f 87/87/87 91/91/91 86/86/86
f 91/91/91 90/90/90 86/86/86
f 89/89/89 91/91/91 87/87/87
f 88/88/88 90/90/90 92/92/92
f 93/93/93 90/90/90 91/91/91
f 82/82/82 88/88/88 94/94/94
f 94/94/94 88/88/88 92/92/92
f 83/83/83 82/82/82 94/94/94
f 95/95/95 91/91/91 89/89/89
f 95/95/95 93/93/93 91/91/91
f 96/96/96 89/89/89 81/81/81
f 96/96/96 95/95/95 89/89/89
f 83/83/83 94/94/94 97/97/97
f 94/94/94 92/92/92 97/97/97
f 98/98/98 93/93/93 95/95/95
f 96/96/96 98/98/98 95/95/95
f 99/99/99 96/96/96 81/81/81
f 99/99/99 81/81/81 61/61/61
f 83/83/83 97/97/97 100/100/100
f 50/50/50 83/83/83 100/100/100
f 50/50/50 100/100/100 22/22/22
f 22/22/22 100/100/100 101/101/101
f 30/30/30 22/22/22 101/101/101
f 100/100/100 97/97/97 102/102/102
f 101/101/101 100/100/100 102/102/102
f 30/30/30 101/101/101 103/103/103
f 30/30/30 103/103/103 32/32/32
f 104/104/104 98/98/98 96/96/96
f 99/99/99 104/104/104 96/96/96
f 105/105/105 99/99/99 61/61/61
f 105/105/105 61/61/61 62/62/62
f 106/106/106 105/105/105 62/62/62
f 106/106/106 107/107/107 105/105/105
f 105/105/105 108/108/108 99/99/99
f 107/107/107 108/108/108 105/105/105
f 108/108/108 104/104/104 99/99/99
f 109/109/109 108/108/108 107/107/107
f 110/110/110 109/109/109 107/107/107
f 110/110/110 111/111/111 109/109/109
f 112/112/112 104/104/104 108/108/108
f 109/109/109 112/112/112 108/108/108
f 113/113/113 98/98/98 104/104/104
f 112/112/112 113/113/113 104/104/104
f 111/111/111 114/114/114 109/109/109
f 109/109/109 114/114/114 112/112/112
f 113/113/113 115/115/115 98/98/98
f 115/115/115 93/93/93 98/98/98
f 112/112/112 116/116/116 113/113/113
f 114/114/114 116/116/116 112/112/112
f 117/117/117 114/114/114 111/111/111
f 118/118/118 117/117/117 111/111/111
f 118/118/118 119/119/119 117/117/117
f 115/115/115 120/120/120 93/93/93
f 120/120/120 90/90/90 93/93/93
f 113/113/113 121/121/121 115/115/115
f 116/116/116 121/121/121 113/113/113
f 121/121/121 120/120/120 115/115/115
f 122/122/122 116/116/116 114/114/114
f 117/117/117 122/122/122 114/114/114
f 119/119/119 123/123/123 117/117/117
f 117/117/117 123/123/123 122/122/122
f 124/124/124 121/121/121 116/116/116
f 122/122/122 124/124/124 116/116/116
f 125/125/125 120/120/120 121/121/121
f 124/124/124 125/125/125 121/121/121
f 122/122/122 126/126/126 124/124/124
f 123/123/123 126/126/126 122/122/122
f 127/127/127 123/123/123 119/119/119
f 128/128/128 127/127/127 119/119/119
f 128/128/128 129/129/129 127/127/127
f 125/125/125 130/130/130 120/120/120
f 130/130/130 90/90/90 120/120/120
f 124/124/124 131/131/131 125/125/125
f 126/126/126 131/131/131 124/124/124
f 131/131/131 130/130/130 125/125/125
f 132/132/132 126/126/126 123/123/123
f 127/127/127 132/132/132 123/123/123
f 133/133/133 131/131/131 126/126/126
f 132/132/132 133/133/133 126/126/126
f 134/134/134 130/130/130 131/131/131
f 133/133/133 134/134/134 131/131/131
f 127/127/127 135/135/135 132/132/132
f 129/129/129 135/135/135 127/127/127
f 134/134/134 136/136/136 130/130/130
f 136/136/136 90/90/90 130/130/130
f 132/132/132 137/137/137 133/133/133
f 135/135/135 137/137/137 132/132/132
f 133/133/133 138/138/138 134/134/134
f 138/138/138 136/136/136 134/134/134
f 137/137/137 138/138/138 133/133/133
f 139/139/139 137/137/137 135/135/135
f 140/140/140 138/138/138 137/137/137
f 139/139/139 140/140/140 137/137/137
f 141/141/141 136/136/136 138/138/138
f 140/140/140 141/141/141 138/138/138
f 141/141/141 142/142/142 136/136/136
f 142/142/142 90/90/90 136/136/136
f 140/140/140 143/143/143 141/141/141
f 143/143/143 142/142/142 141/141/141
f 144/144/144 135/135/135 129/129/129
f 144/144/144 139/139/139 135/135/135
f 139/139/139 145/145/145 140/140/140
f 145/145/145 143/143/143 140/140/140
f 146/146/146 144/144/144 129/129/129
f 146/146/146 147/147/147 144/144/144
f 144/144/144 148/148/148 139/139/139
f 147/147/147 148/148/148 144/144/144
f 148/148/148 145/145/145 139/139/139
f 149/149/149 148/148/148 147/147/147
f 150/150/150 149/149/149 147/147/147
f 150/150/150 151/151/151 149/149/149
f 152/152/152 145/145/145 148/148/148
f 149/149/149 152/152/152 148/148/148
f 153/153/153 143/143/143 145/145/145
f 152/152/152 153/153/153 145/145/145
f 154/154/154 142/142/142 143/143/143
f 153/153/153 154/154/154 143/143/143
f 151/151/151 155/155/155 149/149/149
f 149/149/149 155/155/155 152/152/152
f 154/154/154 156/156/156 142/142/142
f 156/156/156 90/90/90 142/142/142
f 152/152/152 157/157/157 153/153/153
f 155/155/155 157/157/157 152/152/152
f 153/153/153 158/158/158 154/154/154
f 158/158/158 156/156/156 154/154/154
f 157/157/157 158/158/158 153/153/153
f 159/159/159 155/155/155 151/151/151
f 160/160/160 159/159/159 151/151/151
f 160/160/160 32/32/32 159/159/159
f 32/32/32 103/103/103 159/159/159
f 159/159/159 161/161/161 155/155/155
f 161/161/161 157/157/157 155/155/155
f 159/159/159 103/103/103 161/161/161
f 162/162/162 90/90/90 156/156/156
f 92/92/92 90/90/90 162/162/162
f 163/163/163 158/158/158 157/157/157
f 161/161/161 163/163/163 157/157/157
f 103/103/103 164/164/164 161/161/161
f 161/161/161 164/164/164 163/163/163
f 101/101/101 164/164/164 103/103/103
f 101/101/101 102/102/102 164/164/164
f 165/165/165 156/156/156 158/158/158
f 163/163/163 165/165/165 158/158/158
f 165/165/165 162/162/162 156/156/156
f 164/164/164 166/166/166 163/163/163
f 163/163/163 166/166/166 165/165/165
f 102/102/102 166/166/166 164/164/164
f 166/166/166 162/162/162 165/165/165
f 167/167/167 92/92/92 162/162/162
f 167/167/167 162/162/162 166/166/166
f 102/102/102 167/167/167 166/166/166
f 97/97/97 92/92/92 167/167/167
f 102/102/102 97/97/97 167/167/167
f 170/170/170 169/169/169 168/168/168
f 171/171/171 170/170/170 168/168/168
f 171/171/171 168/168/168 172/172/172
f 170/170/170 171/171/171 173/173/173
f 174/174/174 170/170/170 173/173/173
f 175/175/175 174/174/174 173/173/173
f 176/176/176 171/171/171 172/172/172
f 173/173/173 171/171/171 176/176/176
f 176/176/176 172/172/172 177/177/177
f 178/178/178 175/175/175 173/173/173
f 179/179/179 175/175/175 178/178/178
f 180/180/180 176/176/176 177/177/177
f 180/180/180 177/177/177 181/181/181
f 182/182/182 173/173/173 176/176/176
f 178/178/178 173/173/173 182/182/182
f 183/183/183 179/179/179 178/178/178
f 184/184/184 179/179/179 183/183/183
f 185/185/185 180/180/180 181/181/181
f 185/185/185 181/181/181 186/186/186
f 176/176/176 180/180/180 187/187/187
f 182/182/182 176/176/176 187/187/187
f 187/187/187 180/180/180 185/185/185
f 188/188/188 178/178/178 182/182/182
f 183/183/183 178/178/178 188/188/188
f 188/188/188 182/182/182 187/187/187
f 189/189/189 185/185/185 186/186/186
f 189/189/189 186/186/186 190/190/190
f 191/191/191 189/189/189 190/190/190
f 191/191/191 190/190/190 192/192/192
f 185/185/185 189/189/189 193/193/193
f 193/193/193 189/189/189 191/191/191
f 194/194/194 187/187/187 185/185/185
f 194/194/194 185/185/185 193/193/193
f 195/195/195 188/188/188 187/187/187
f 195/195/195 187/187/187 194/194/194
f 196/196/196 183/183/183 188/188/188
f 196/196/196 188/188/188 195/195/195
f 197/197/197 195/195/195 194/194/194
f 197/197/197 194/194/194 193/193/193
f 198/198/198 191/191/191 192/192/192
f 198/198/198 192/192/192 199/199/199
f 200/200/200 198/198/198 199/199/199
f 191/191/191 198/198/198 201/201/201
f 201/201/201 198/198/198 200/200/200
f 202/202/202 191/191/191 201/201/201
f 202/202/202 193/193/193 191/191/191
f 203/203/203 201/201/201 200/200/200
f 204/204/204 193/193/193 202/202/202
f 205/205/205 204/204/204 202/202/202
f 206/206/206 197/197/197 193/193/193
f 207/207/207 195/195/195 197/197/197
f 207/207/207 196/196/196 195/195/195
f 208/208/208 197/197/197 206/206/206
f 208/208/208 207/207/207 197/197/197
f 203/203/203 200/200/200 209/209/209
f 200/200/200 210/210/210 209/209/209
f 196/196/196 207/207/207 211/211/211
f 211/211/211 207/207/207 208/208/208
f 212/212/212 208/208/208 206/206/206
f 212/212/212 206/206/206 213/213/213
f 214/214/214 212/212/212 213/213/213
f 214/214/214 213/213/213 215/215/215
f 215/215/215 216/216/216 203/203/203
f 208/208/208 212/212/212 217/217/217
f 217/217/217 212/212/212 214/214/214
f 209/209/209 210/210/210 218/218/218
f 210/210/210 219/219/219 218/218/218
f 220/220/220 203/203/203 209/209/209
f 220/220/220 215/215/215 203/203/203
f 209/209/209 218/218/218 221/221/221
f 221/221/221 220/220/220 209/209/209
f 218/218/218 222/222/222 221/221/221
f 221/221/221 222/222/222 223/223/223
f 222/222/222 224/224/224 223/223/223
f 223/223/223 224/224/224 225/225/225
f 226/226/226 220/220/220 221/221/221
f 223/223/223 226/226/226 221/221/221
f 227/227/227 215/215/215 220/220/220
f 226/226/226 227/227/227 220/220/220
f 227/227/227 214/214/214 215/215/215
f 214/214/214 227/227/227 228/228/228
f 228/228/228 227/227/227 226/226/226
f 229/229/229 214/214/214 228/228/228
f 229/229/229 217/217/217 214/214/214
f 230/230/230 223/223/223 225/225/225
f 226/226/226 223/223/223 231/231/231
f 231/231/231 223/223/223 230/230/230
f 232/232/232 228/228/228 226/226/226
f 232/232/232 226/226/226 231/231/231
f 229/229/229 228/228/228 233/233/233
f 233/233/233 228/228/228 232/232/232
f 230/230/230 225/225/225 234/234/234
f 225/225/225 235/235/235 234/234/234
f 234/234/234 235/235/235 236/236/236
f 237/237/237 217/217/217 229/229/229
f 238/238/238 229/229/229 233/233/233
f 238/238/238 237/237/237 229/229/229
f 238/238/238 233/233/233 239/239/239
f 240/240/240 237/237/237 238/238/238
f 241/241/241 233/233/233 232/232/232
f 239/239/239 233/233/233 241/241/241
f 242/242/242 217/217/217 237/237/237
f 242/242/242 208/208/208 217/217/217
f 242/242/242 211/211/211 208/208/208
f 243/243/243 238/238/238 239/239/239
f 243/243/243 240/240/240 238/238/238
f 243/243/243 239/239/239 240/240/240
f 244/244/244 242/242/242 237/237/237
f 244/244/244 237/237/237 240/240/240
f 245/245/245 211/211/211 242/242/242
f 244/244/244 245/245/245 242/242/242
f 246/246/246 245/245/245 244/244/244
f 247/247/247 244/244/244 240/240/240
f 247/247/247 246/246/246 244/244/244
f 247/247/247 240/240/240 246/246/246
f 248/248/248 211/211/211 245/245/245
f 248/248/248 196/196/196 211/211/211
f 239/239/239 249/249/249 240/240/240
f 240/240/240 249/249/249 246/246/246
f 250/250/250 249/249/249 239/239/239
f 246/246/246 249/249/249 251/251/251
f 252/252/252 249/249/249 250/250/250
f 251/251/251 249/249/249 253/253/253
f 254/254/254 249/249/249 252/252/252
f 253/253/253 249/249/249 255/255/255
f 256/256/256 249/249/249 254/254/254
f 255/255/255 249/249/249 257/257/257
f 258/258/258 249/249/249 256/256/256
f 257/257/257 249/249/249 258/258/258
f 259/259/259 250/250/250 239/239/239
f 259/259/259 239/239/239 241/241/241
f 259/259/259 241/241/241 250/250/250
f 241/241/241 260/260/260 250/250/250
f 241/241/241 232/232/232 260/260/260
f 232/232/232 231/231/231 260/260/260
f 260/260/260 231/231/231 261/261/261
f 261/261/261 231/231/231 230/230/230
f 250/250/250 260/260/260 262/262/262
f 262/262/262 260/260/260 261/261/261
f 261/261/261 230/230/230 263/263/263
f 230/230/230 234/234/234 263/263/263
f 264/264/264 250/250/250 262/262/262
f 264/264/264 252/252/252 250/250/250
f 264/264/264 262/262/262 252/252/252
f 262/262/262 261/261/261 265/265/265
f 261/261/261 263/263/263 265/265/265
f 262/262/262 265/265/265 252/252/252
f 263/263/263 234/234/234 266/266/266
f 266/266/266 234/234/234 236/236/236
f 265/265/265 263/263/263 267/267/267
f 267/267/267 263/263/263 266/266/266
f 252/252/252 265/265/265 268/268/268
f 268/268/268 265/265/265 267/267/267
f 266/266/266 236/236/236 269/269/269
f 236/236/236 270/270/270 269/269/269
f 269/269/269 270/270/270 271/271/271
f 272/272/272 252/252/252 268/268/268
f 272/272/272 254/254/254 252/252/252
f 272/272/272 268/268/268 254/254/254
f 268/268/268 267/267/267 273/273/273
f 268/268/268 273/273/273 254/254/254
f 267/267/267 266/266/266 274/274/274
f 266/266/266 269/269/269 274/274/274
f 267/267/267 274/274/274 273/273/273
f 275/275/275 269/269/269 271/271/271
f 274/274/274 269/269/269 275/275/275
f 273/273/273 274/274/274 276/276/276
f 276/276/276 274/274/274 275/275/275
f 254/254/254 273/273/273 277/277/277
f 277/277/277 273/273/273 276/276/276
f 275/275/275 271/271/271 278/278/278
f 271/271/271 279/279/279 278/278/278
f 278/278/278 279/279/279 280/280/280
f 281/281/281 254/254/254 277/277/277
f 281/281/281 256/256/256 254/254/254
f 281/281/281 277/277/277 256/256/256
f 277/277/277 276/276/276 282/282/282
f 277/277/277 282/282/282 256/256/256
f 276/276/276 275/275/275 283/283/283
f 275/275/275 278/278/278 283/283/283
f 276/276/276 283/283/283 282/282/282
f 284/284/284 278/278/278 280/280/280
f 283/283/283 278/278/278 284/284/284
f 282/282/282 283/283/283 285/285/285
f 285/285/285 283/283/283 284/284/284
f 256/256/256 282/282/282 286/286/286
f 286/286/286 282/282/282 285/285/285
f 284/284/284 280/280/280 287/287/287
f 280/280/280 288/288/288 287/287/287
f 289/289/289 256/256/256 286/286/286
f 289/289/289 258/258/258 256/256/256
f 289/289/289 286/286/286 258/258/258
f 286/286/286 285/285/285 290/290/290
f 286/286/286 290/290/290 258/258/258
f 285/285/285 284/284/284 291/291/291
f 284/284/284 287/287/287 291/291/291
f 285/285/285 291/291/291 290/290/290
f 258/258/258 290/290/290 292/292/292
f 290/290/290 291/291/291 293/293/293
f 292/292/292 290/290/290 293/293/293
f 291/291/291 287/287/287 294/294/294
f 293/293/293 291/291/291 294/294/294
f 295/295/295 258/258/258 292/292/292
f 295/295/295 257/257/257 258/258/258
f 295/295/295 292/292/292 257/257/257
f 292/292/292 293/293/293 296/296/296
f 292/292/292 296/296/296 257/257/257
f 294/294/294 287/287/287 297/297/297
f 287/287/287 288/288/288 297/297/297
f 293/293/293 294/294/294 298/298/298
f 293/293/293 298/298/298 296/296/296
f 294/294/294 297/297/297 299/299/299
f 294/294/294 299/299/299 298/298/298
f 297/297/297 300/300/300 299/299/299
f 299/299/299 300/300/300 301/301/301
f 298/298/298 299/299/299 302/302/302
f 302/302/302 299/299/299 301/301/301
f 296/296/296 298/298/298 303/303/303
f 303/303/303 298/298/298 302/302/302
f 257/257/257 296/296/296 304/304/304
f 304/304/304 296/296/296 303/303/303
f 302/302/302 301/301/301 305/305/305
f 301/301/301 306/306/306 305/305/305
f 305/305/305 306/306/306 307/307/307
f 308/308/308 257/257/257 304/304/304
f 308/308/308 255/255/255 257/257/257
f 308/308/308 304/304/304 255/255/255
f 304/304/304 303/303/303 309/309/309
f 304/304/304 309/309/309 255/255/255
f 303/303/303 302/302/302 310/310/310
f 302/302/302 305/305/305 310/310/310
f 303/303/303 310/310/310 309/309/309
f 311/311/311 305/305/305 307/307/307
f 310/310/310 305/305/305 311/311/311
f 309/309/309 310/310/310 312/312/312
f 312/312/312 310/310/310 311/311/311
f 255/255/255 309/309/309 313/313/313
f 313/313/313 309/309/309 312/312/312
f 311/311/311 307/307/307 314/314/314
f 307/307/307 315/315/315 314/314/314
f 314/314/314 315/315/315 184/184/184
f 316/316/316 255/255/255 313/313/313
f 316/316/316 253/253/253 255/255/255
f 316/316/316 313/313/313 253/253/253
f 313/313/313 312/312/312 317/317/317
f 313/313/313 317/317/317 253/253/253
f 312/312/312 311/311/311 318/318/318
f 311/311/311 314/314/314 318/318/318
f 312/312/312 318/318/318 317/317/317
f 319/319/319 314/314/314 184/184/184
f 318/318/318 314/314/314 319/319/319
f 319/319/319 184/184/184 183/183/183
f 317/317/317 318/318/318 320/320/320
f 320/320/320 318/318/318 319/319/319
f 319/319/319 183/183/183 321/321/321
f 320/320/320 319/319/319 321/321/321
f 321/321/321 183/183/183 196/196/196
f 248/248/248 321/321/321 196/196/196
f 253/253/253 317/317/317 322/322/322
f 322/322/322 317/317/317 320/320/320
f 320/320/320 321/321/321 323/323/323
f 323/323/323 321/321/321 248/248/248
f 322/322/322 320/320/320 323/323/323
f 324/324/324 253/253/253 322/322/322
f 324/324/324 251/251/251 253/253/253
f 324/324/324 322/322/322 251/251/251
f 322/322/322 323/323/323 251/251/251
f 325/325/325 323/323/323 248/248/248
f 251/251/251 323/323/323 325/325/325
f 325/325/325 248/248/248 245/245/245
f 325/325/325 245/245/245 246/246/246
f 326/326/326 246/246/246 251/251/251
f 326/326/326 325/325/325 246/246/246
f 326/326/326 251/251/251 325/325/325
f 329/329/329 328/328/328 327/327/327
f 330/330/330 329/329/329 327/327/327
f 329/329/329 330/330/330 331/331/331
f 332/332/332 329/329/329 331/331/331
f 333/333/333 332/332/332 331/331/331
f 334/334/334 333/333/333 331/331/331
f 335/335/335 333/333/333 334/334/334
f 336/336/336 335/335/335 334/334/334
f 337/337/337 335/335/335 336/336/336
f 338/338/338 337/337/337 336/336/336
f 338/338/338 339/339/339 337/337/337
f 339/339/339 340/340/340 337/337/337
f 341/341/341 340/340/340 339/339/339
f 342/342/342 341/341/341 339/339/339
f 342/342/342 343/343/343 341/341/341
f 343/343/343 344/344/344 341/341/341
f 345/345/345 344/344/344 343/343/343
f 346/346/346 345/345/345 343/343/343
f 346/346/346 347/347/347 345/345/345
f 347/347/347 348/348/348 345/345/345
f 349/349/349 348/348/348 347/347/347
f 350/350/350 349/349/349 347/347/347
f 350/350/350 288/288/288 349/349/349
f 288/288/288 129/129/129 349/349/349
f 351/351/351 129/129/129 288/288/288
f 352/352/352 351/351/351 288/288/288
f 352/352/352 353/353/353 351/351/351
f 353/353/353 354/354/354 351/351/351
f 355/355/355 354/354/354 353/353/353
f 356/356/356 355/355/355 353/353/353
f 356/356/356 357/357/357 355/355/355
f 357/357/357 358/358/358 355/355/355
f 359/359/359 358/358/358 357/357/357
f 360/360/360 359/359/359 357/357/357
f 360/360/360 361/361/361 359/359/359
f 361/361/361 362/362/362 359/359/359
f 363/363/363 362/362/362 361/361/361
f 364/364/364 363/363/363 361/361/361
f 364/364/364 365/365/365 363/363/363
f 365/365/365 366/366/366 363/363/363
f 367/367/367 366/366/366 365/365/365
f 368/368/368 367/367/367 365/365/365
f 371/371/371 370/370/370 369/369/369
f 372/372/372 371/371/371 369/369/369
f 372/372/372 369/369/369 373/373/373
f 369/369/369 374/374/374 373/373/373
f 205/205/205 376/376/376 375/375/375
f 215/215/215 205/205/205 375/375/375
f 379/379/379 378/378/378 377/377/377
f 380/380/380 379/379/379 377/377/377
f 380/380/380 377/377/377 381/381/381
f 382/382/382 380/380/380 381/381/381
f 382/382/382 381/381/381 383/383/383
f 379/379/379 384/384/384 378/378/378
f 384/384/384 385/385/385 378/378/378
f 385/385/385 384/384/384 386/386/386
f 386/386/386 384/384/384 379/379/379
f 387/387/387 385/385/385 386/386/386
f 379/379/379 380/380/380 388/388/388
f 388/388/388 380/380/380 382/382/382
f 387/387/387 386/386/386 389/389/389
f 390/390/390 387/387/387 389/389/389
f 391/391/391 386/386/386 379/379/379
f 391/391/391 379/379/379 388/388/388
f 389/389/389 386/386/386 391/391/391
f 390/390/390 389/389/389 392/392/392
f 393/393/393 390/390/390 392/392/392
f 394/394/394 389/389/389 391/391/391
f 392/392/392 389/389/389 394/394/394
f 393/393/393 392/392/392 395/395/395
f 395/395/395 392/392/392 394/394/394
f 396/396/396 393/393/393 395/395/395
f 396/396/396 395/395/395 397/397/397
f 395/395/395 394/394/394 397/397/397
f 398/398/398 396/396/396 397/397/397
f 394/394/394 391/391/391 399/399/399
f 391/391/391 388/388/388 399/399/399
f 394/394/394 399/399/399 397/397/397
f 398/398/398 397/397/397 400/400/400
f 401/401/401 398/398/398 400/400/400
f 399/399/399 388/388/388 402/402/402
f 402/402/402 388/388/388 382/382/382
f 397/397/397 399/399/399 403/403/403
f 400/400/400 397/397/397 403/403/403
f 403/403/403 399/399/399 402/402/402
f 401/401/401 400/400/400 404/404/404
f 400/400/400 403/403/403 404/404/404
f 405/405/405 401/401/401 404/404/404
f 403/403/403 402/402/402 406/406/406
f 403/403/403 406/406/406 404/404/404
f 402/402/402 382/382/382 407/407/407
f 402/402/402 407/407/407 406/406/406
f 405/405/405 404/404/404 408/408/408
f 409/409/409 405/405/405 408/408/408
f 404/404/404 406/406/406 410/410/410
f 408/408/408 404/404/404 410/410/410
f 409/409/409 408/408/408 411/411/411
f 408/408/408 410/410/410 411/411/411
f 412/412/412 409/409/409 411/411/411
f 410/410/410 406/406/406 413/413/413
f 406/406/406 407/407/407 413/413/413
f 382/382/382 414/414/414 407/407/407
f 414/414/414 382/382/382 383/383/383
f 414/414/414 383/383/383 415/415/415
f 407/407/407 414/414/414 416/416/416
f 416/416/416 414/414/414 415/415/415
f 413/413/413 407/407/407 416/416/416
f 416/416/416 415/415/415 417/417/417
f 410/410/410 413/413/413 418/418/418
f 410/410/410 418/418/418 411/411/411
f 412/412/412 411/411/411 419/419/419
f 420/420/420 412/412/412 419/419/419
f 421/421/421 416/416/416 417/417/417
f 417/417/417 422/422/422 421/421/421
f 413/413/413 416/416/416 423/423/423
f 416/416/416 421/421/421 423/423/423
f 413/413/413 423/423/423 418/418/418
f 422/422/422 424/424/424 421/421/421
f 423/423/423 421/421/421 424/424/424
f 422/422/422 425/425/425 424/424/424
f 411/411/411 418/418/418 426/426/426
f 419/419/419 411/411/411 426/426/426
f 420/420/420 419/419/419 427/427/427
f 419/419/419 426/426/426 427/427/427
f 428/428/428 420/420/420 427/427/427
f 418/418/418 423/423/423 429/429/429
f 426/426/426 418/418/418 429/429/429
f 429/429/429 423/423/423 424/424/424
f 426/426/426 430/430/430 427/427/427
f 427/427/427 430/430/430 428/428/428
f 426/426/426 429/429/429 430/430/430
f 430/430/430 431/431/431 428/428/428
f 429/429/429 432/432/432 430/430/430
f 430/430/430 432/432/432 431/431/431
f 429/429/429 424/424/424 432/432/432
f 432/432/432 433/433/433 431/431/431
f 425/425/425 434/434/434 424/424/424
f 434/434/434 425/425/425 433/433/433
f 424/424/424 434/434/434 432/432/432
f 432/432/432 434/434/434 433/433/433
