g Set_0_Glow
v -4.017936 -0.2165695 -6.081691
v -0.3197895 -0.270908 -3.752688
v -1.162731 -4.375614 -2.509978
v -4.860877 -4.321275 -4.83898
v -2.740796 2.200711 -2.57379
v 3.614603 2.388778 -1.210006
v 3.377078 -3.80666 0.7512423
v -2.978321 -3.994727 -0.6125416
v 1.147646 -1.060379 -1.703511
v 4.811179 -0.5840938 -0.9001009
v 4.797677 -3.808921 1.073244
v 1.134143 -4.285206 0.2698337
vt 1 1
vt 5.960464E-08 1
vt -5.960464E-08 2.384186E-07
vt 1 5.960464E-08
vt 1 1
vt 5.960464E-08 1
vt -5.960464E-08 2.384186E-07
vt 1 5.960464E-08
vt 1 1
vt 5.960464E-08 1
vt -5.960464E-08 2.384186E-07
vt 1 5.960464E-08
vn -0.4968262 0.3432617 0.796875
vn -0.4968262 0.3432617 0.796875
vn -0.4968262 0.3432617 0.796875
vn -0.4968262 0.3432617 0.796875
vn -0.2084961 0.3024902 0.9301758
vn -0.2084961 0.3024902 0.9301758
vn -0.2084961 0.3024902 0.9301758
vn -0.2084961 0.3024902 0.9301758
vn -0.2470703 0.5063477 0.8261719
vn -0.2470703 0.5063477 0.8261719
vn -0.2470703 0.5063477 0.8261719
vn -0.2470703 0.5063477 0.8261719
g Set_0_Glow_0
f 3/3/3 2/2/2 1/1/1
f 4/4/4 3/3/3 1/1/1
f 7/7/7 6/6/6 5/5/5
f 8/8/8 7/7/7 5/5/5
f 11/11/11 10/10/10 9/9/9
f 12/12/12 11/11/11 9/9/9
