g Set_1_Candle
v -1.484086 0.7305393 -2.784953
v -1.695381 0.7088115 -2.64111
v -1.66716 0.7141362 -2.793194
v -1.634768 0.7171713 -2.813209
v -1.626537 0.7349797 -2.995357
v -1.657216 0.7176113 -2.844894
v -1.686553 0.7148119 -2.822736
v -1.657216 0.7176113 -2.844894
v -1.657876 0.7383313 -2.8445
v -1.68743 0.7362915 -2.824353
v -1.66716 0.7141362 -2.793194
v -1.658046 0.7503725 -2.783174
v -1.479414 -0.08173345 -2.783321
v -1.695905 -0.08169547 -2.636418
v -1.695381 0.7088115 -2.64111
v -1.484086 0.7305393 -2.784953
v -1.626339 -0.08172029 -2.999807
v -1.626537 0.7349797 -2.995357
v -1.66716 0.7141362 -2.793194
v -1.695381 0.7088115 -2.64111
v -1.837882 0.7129796 -2.851605
v -1.686553 0.7148119 -2.822736
v -1.626537 0.7349797 -2.995357
v -1.657216 0.7176113 -2.844894
v -1.657216 0.7176113 -2.844894
v -1.611399 0.7835402 -2.812714
v -1.657876 0.7383313 -2.8445
v -1.634768 0.7171713 -2.813209
v -1.66716 0.7141362 -2.793194
v -1.658046 0.7503725 -2.783174
v -1.695905 -0.08169547 -2.636418
v -1.837882 0.7129796 -2.851605
v -1.695381 0.7088115 -2.64111
v -1.842812 -0.08170985 -2.852876
v -1.626339 -0.08172029 -2.999807
v -1.626537 0.7349797 -2.995357
v -1.647457 0.7764012 -2.896554
v -1.68743 0.7362915 -2.824353
v -1.657876 0.7383313 -2.8445
v -1.74003 0.7790232 -2.83415
v -1.658046 0.7503725 -2.783174
v -1.676376 0.7670885 -2.744411
v -1.588198 0.7651234 -2.804891
v -1.647457 0.7764012 -2.896554
v -1.657876 0.7383313 -2.8445
v -1.611399 0.7835402 -2.812714
v -1.658046 0.7503725 -2.783174
v -1.676376 0.7670885 -2.744411
v -0.3224263 1.12578 3.095662
v -0.451058 1.104053 3.316548
v -0.4911643 1.109377 3.167158
v -0.4705666 1.112412 3.135133
v -0.5416719 1.130221 2.967235
v -0.5044817 1.112852 3.116223
v -0.5213991 1.110053 3.148864
v -0.5044817 1.112852 3.116223
v -0.5049077 1.133572 3.116862
v -0.5228876 1.131533 3.147783
v -0.4911643 1.109377 3.167158
v -0.4786201 1.145614 3.172269
v -0.3175068 0.3135077 3.09512
v -0.4495078 0.3135457 3.321007
v -0.451058 1.104053 3.316548
v -0.3224263 1.12578 3.095662
v -0.5434119 0.3135209 2.963134
v -0.5416719 1.130221 2.967235
v -0.4911643 1.109377 3.167158
v -0.451058 1.104053 3.316548
v -0.670387 1.108221 3.18806
v -0.5213991 1.110053 3.148864
v -0.5416719 1.130221 2.967235
v -0.5044817 1.112852 3.116223
v -0.5044817 1.112852 3.116223
v -0.4492681 1.178781 3.125504
v -0.5049077 1.133572 3.116862
v -0.4705666 1.112412 3.135133
v -0.4911643 1.109377 3.167158
v -0.4786201 1.145614 3.172269
v -0.4495078 0.3135457 3.321007
v -0.670387 1.108221 3.18806
v -0.451058 1.104053 3.316548
v -0.6753837 0.3135313 3.189039
v -0.5434119 0.3135209 2.963134
v -0.5416719 1.130221 2.967235
v -0.4786201 1.145614 3.172269
v -0.5228876 1.131533 3.147783
v -0.5745711 1.174264 3.161621
v -0.4784468 1.16233 3.215147
v 2.334602 0.5804418 -0.2908179
v 2.123307 0.5587139 -0.1469753
v 2.151528 0.5640386 -0.2990589
v 2.18392 0.5670738 -0.3190738
v 2.192151 0.584882 -0.5012218
v 2.161472 0.5675137 -0.3507584
v 2.132135 0.5647143 -0.3286002
v 2.161472 0.5675137 -0.3507584
v 2.160812 0.5882337 -0.3503653
v 2.131258 0.586194 -0.3302175
v 2.151528 0.5640386 -0.2990589
v 2.160642 0.6002749 -0.2890386
v 2.339274 -0.2318311 -0.2891857
v 2.122783 -0.2317931 -0.1422832
v 2.123307 0.5587139 -0.1469753
v 2.334602 0.5804418 -0.2908179
v 2.192349 -0.2318179 -0.5056723
v 2.192151 0.584882 -0.5012218
v 2.151528 0.5640386 -0.2990589
v 2.123307 0.5587139 -0.1469753
v 1.980806 0.562882 -0.3574702
v 2.132135 0.5647143 -0.3286002
v 2.192151 0.584882 -0.5012218
v 2.161472 0.5675137 -0.3507584
v 2.161472 0.5675137 -0.3507584
v 2.207289 0.6334426 -0.3185785
v 2.160812 0.5882337 -0.3503653
v 2.18392 0.5670738 -0.3190738
v 2.151528 0.5640386 -0.2990589
v 2.160642 0.6002749 -0.2890386
v 2.122783 -0.2317931 -0.1422832
v 1.980806 0.562882 -0.3574702
v 2.123307 0.5587139 -0.1469753
v 1.975876 -0.2318074 -0.3587406
v 2.192349 -0.2318179 -0.5056723
v 2.192151 0.584882 -0.5012218
v 2.171232 0.6263036 -0.4024186
v 2.131258 0.586194 -0.3302175
v 2.160812 0.5882337 -0.3503653
v 2.078659 0.6289256 -0.3400148
v 2.160642 0.6002749 -0.2890386
v 2.142312 0.616991 -0.2502756
v -1.633363 0.8822463 -2.909733
v -1.752728 0.8837409 -2.828781
v -1.739415 0.9738784 -2.832078
v -1.644803 0.9794871 -2.89562
v -1.671837 1.074867 -2.828697
v -1.674335 0.996644 -2.742759
v -1.671718 0.8769342 -2.711143
v -0.5179491 1.171642 3.065402
v -0.5049077 1.133572 3.116862
v -0.5109147 1.277487 3.047435
v -0.583714 1.278982 3.17194
v -0.5731232 1.36912 3.163225
v -0.5151514 1.374728 3.065101
v -0.5106906 1.470108 3.13714
v -0.4758935 1.391885 3.215758
v -0.4599007 1.272175 3.243156
v 2.185325 0.7321488 -0.4155977
v 2.06596 0.7336434 -0.3346461
v 2.079273 0.8237808 -0.3379433
v 2.173886 0.8293895 -0.4014846
v 2.146851 0.9247696 -0.3345619
v 2.144353 0.8465464 -0.248624
v 2.14697 0.7268365 -0.2170075
v 2.160642 0.6002749 -0.2890386
v 2.142312 0.616991 -0.2502756
v 2.23049 0.6150258 -0.3107554
v 2.207289 0.6334426 -0.3185785
v 2.160812 0.5882337 -0.3503653
v 2.171232 0.6263036 -0.4024186
v 2.264157 0.725706 -0.2970435
v 2.185325 0.7321488 -0.4155977
v 2.14697 0.7268365 -0.2170075
v 2.173886 0.8293895 -0.4014846
v 2.23173 0.8496109 -0.3090343
v 2.144353 0.8465464 -0.248624
v 2.146851 0.9247696 -0.3345619
v -0.4786201 1.145614 3.172269
v -0.4784468 1.16233 3.215147
v -0.4249612 1.160365 3.12256
v -0.4492681 1.178781 3.125504
v -0.5049077 1.133572 3.116862
v -0.5179491 1.171642 3.065402
v -0.3886724 1.271045 3.120416
v -0.5109147 1.277487 3.047435
v -0.4599007 1.272175 3.243156
v -0.5151514 1.374728 3.065101
v -0.4231 1.39495 3.123578
v -0.4758935 1.391885 3.215758
v -0.5106906 1.470108 3.13714
v -1.554531 0.8758036 -2.791179
v -1.633363 0.8822463 -2.909733
v -1.671718 0.8769342 -2.711143
v -1.644803 0.9794871 -2.89562
v -1.586958 0.9997084 -2.803169
v -1.674335 0.996644 -2.742759
v -1.671837 1.074867 -2.828697
vt 0.7827148 0.9785156
vt 0.7734375 0.9780273
vt 0.7783203 0.9780273
vt 0.7792969 0.9780273
vt 0.7841797 0.9785156
vt 0.7797852 0.9780273
vt 0.7783203 0.9780273
vt 0.7797852 0.9780273
vt 0.7797852 0.9785156
vt 0.7783203 0.9785156
vt 0.7783203 0.9780273
vt 0.7783203 0.9790039
vt 0.7817383 0.9467773
vt 0.7729492 0.9467773
vt 0.7734375 0.9780273
vt 0.7827148 0.9785156
vt 0.7836914 0.9467773
vt 0.7841797 0.9785156
vt 0.7783203 0.9780273
vt 0.7734375 0.9780273
vt 0.7753906 0.9780273
vt 0.7783203 0.9780273
vt 0.7841797 0.9785156
vt 0.7797852 0.9780273
vt 0.7797852 0.9780273
vt 0.7802734 0.9794922
vt 0.7797852 0.9785156
vt 0.7792969 0.9780273
vt 0.7783203 0.9780273
vt 0.7783203 0.9790039
vt 0.7729492 0.9467773
vt 0.7753906 0.9780273
vt 0.7734375 0.9780273
vt 0.7744141 0.9467773
vt 0.7836914 0.9467773
vt 0.7841797 0.9785156
vt 0.2145996 0.9750977
vt 0.2183838 0.9770508
vt 0.2166748 0.9770508
vt 0.2198486 0.9750977
vt 0.21875 0.9765625
vt 0.2207031 0.9755859
vt 0.2156982 0.9755859
vt 0.2145996 0.9750977
vt 0.2166748 0.9770508
vt 0.2163086 0.9750977
vt 0.21875 0.9765625
vt 0.2207031 0.9755859
vt 0.7827148 0.9785156
vt 0.7734375 0.9780273
vt 0.7783203 0.9780273
vt 0.7792969 0.9780273
vt 0.7841797 0.9785156
vt 0.7797852 0.9780273
vt 0.7783203 0.9780273
vt 0.7797852 0.9780273
vt 0.7797852 0.9785156
vt 0.7783203 0.9785156
vt 0.7783203 0.9780273
vt 0.7783203 0.9790039
vt 0.7817383 0.9467773
vt 0.7729492 0.9467773
vt 0.7734375 0.9780273
vt 0.7827148 0.9785156
vt 0.7836914 0.9467773
vt 0.7841797 0.9785156
vt 0.7783203 0.9780273
vt 0.7734375 0.9780273
vt 0.7753906 0.9780273
vt 0.7783203 0.9780273
vt 0.7841797 0.9785156
vt 0.7797852 0.9780273
vt 0.7797852 0.9780273
vt 0.7802734 0.9794922
vt 0.7797852 0.9785156
vt 0.7792969 0.9780273
vt 0.7783203 0.9780273
vt 0.7783203 0.9790039
vt 0.7729492 0.9467773
vt 0.7753906 0.9780273
vt 0.7734375 0.9780273
vt 0.7744141 0.9467773
vt 0.7836914 0.9467773
vt 0.7841797 0.9785156
vt 0.21875 0.9765625
vt 0.2183838 0.9770508
vt 0.2198486 0.9750977
vt 0.2207031 0.9755859
vt 0.7827148 0.9785156
vt 0.7734375 0.9780273
vt 0.7783203 0.9780273
vt 0.7792969 0.9780273
vt 0.7841797 0.9785156
vt 0.7797852 0.9780273
vt 0.7783203 0.9780273
vt 0.7797852 0.9780273
vt 0.7797852 0.9785156
vt 0.7783203 0.9785156
vt 0.7783203 0.9780273
vt 0.7783203 0.9790039
vt 0.7817383 0.9467773
vt 0.7729492 0.9467773
vt 0.7734375 0.9780273
vt 0.7827148 0.9785156
vt 0.7836914 0.9467773
vt 0.7841797 0.9785156
vt 0.7783203 0.9780273
vt 0.7734375 0.9780273
vt 0.7753906 0.9780273
vt 0.7783203 0.9780273
vt 0.7841797 0.9785156
vt 0.7797852 0.9780273
vt 0.7797852 0.9780273
vt 0.7802734 0.9794922
vt 0.7797852 0.9785156
vt 0.7792969 0.9780273
vt 0.7783203 0.9780273
vt 0.7783203 0.9790039
vt 0.7729492 0.9467773
vt 0.7753906 0.9780273
vt 0.7734375 0.9780273
vt 0.7744141 0.9467773
vt 0.7836914 0.9467773
vt 0.7841797 0.9785156
vt 0.2145996 0.9750977
vt 0.2183838 0.9770508
vt 0.2166748 0.9770508
vt 0.2198486 0.9750977
vt 0.21875 0.9765625
vt 0.2207031 0.9755859
vt 0.2137451 0.9702148
vt 0.220459 0.9702148
vt 0.2198486 0.9658203
vt 0.2145996 0.9658203
vt 0.2177734 0.9609375
vt 0.2207031 0.9648438
vt 0.2216797 0.9707031
vt 0.2145996 0.9750977
vt 0.2166748 0.9770508
vt 0.2137451 0.9702148
vt 0.220459 0.9702148
vt 0.2198486 0.9658203
vt 0.2145996 0.9658203
vt 0.2177734 0.9609375
vt 0.2207031 0.9648438
vt 0.2216797 0.9707031
vt 0.2137451 0.9702148
vt 0.220459 0.9702148
vt 0.2198486 0.9658203
vt 0.2145996 0.9658203
vt 0.2177734 0.9609375
vt 0.2207031 0.9648438
vt 0.2216797 0.9707031
vt 0.21875 0.9765625
vt 0.2207031 0.9755859
vt 0.2156982 0.9755859
vt 0.2163086 0.9750977
vt 0.2166748 0.9770508
vt 0.2145996 0.9750977
vt 0.2150879 0.9707031
vt 0.2137451 0.9702148
vt 0.2216797 0.9707031
vt 0.2145996 0.9658203
vt 0.2158203 0.9648438
vt 0.2207031 0.9648438
vt 0.2177734 0.9609375
vt 0.21875 0.9765625
vt 0.2207031 0.9755859
vt 0.2156982 0.9755859
vt 0.2163086 0.9750977
vt 0.2166748 0.9770508
vt 0.2145996 0.9750977
vt 0.2150879 0.9707031
vt 0.2137451 0.9702148
vt 0.2216797 0.9707031
vt 0.2145996 0.9658203
vt 0.2158203 0.9648438
vt 0.2207031 0.9648438
vt 0.2177734 0.9609375
vt 0.2150879 0.9707031
vt 0.2137451 0.9702148
vt 0.2216797 0.9707031
vt 0.2145996 0.9658203
vt 0.2158203 0.9648438
vt 0.2207031 0.9648438
vt 0.2177734 0.9609375
vn 0.7744141 0.6108398 0.1643066
vn -0.1658936 0.5576172 0.8134766
vn -0.1932373 0.8701172 0.453125
vn 0.4462891 0.8857422 0.1264648
vn 0.1368408 0.6210938 -0.7719727
vn -0.02064514 0.9169922 -0.3984375
vn -0.4536133 0.8911133 0.01093292
vn -0.02064514 0.9169922 -0.3984375
vn 0.07244873 -0.6152344 -0.784668
vn -0.8076172 -0.5639648 -0.1706543
vn -0.1932373 0.8701172 0.453125
vn -0.03652954 -0.8320313 0.5537109
vn 0.9819336 0.005771637 0.1884766
vn -0.1877441 0.006210327 0.9824219
vn -0.1658936 0.5576172 0.8134766
vn 0.7744141 0.6108398 0.1643066
vn 0.1876221 0.005683899 -0.9824219
vn 0.1368408 0.6210938 -0.7719727
vn -0.1932373 0.8701172 0.453125
vn -0.1658936 0.5576172 0.8134766
vn -0.8110352 0.5683594 -0.1397705
vn -0.4536133 0.8911133 0.01093292
vn 0.1368408 0.6210938 -0.7719727
vn -0.02064514 0.9169922 -0.3984375
vn -0.02064514 0.9169922 -0.3984375
vn 0.4772949 -0.878418 -0.02615356
vn 0.07244873 -0.6152344 -0.784668
vn 0.4462891 0.8857422 0.1264648
vn -0.1932373 0.8701172 0.453125
vn -0.03652954 -0.8320313 0.5537109
vn -0.1877441 0.006210327 0.9824219
vn -0.8110352 0.5683594 -0.1397705
vn -0.1658936 0.5576172 0.8134766
vn -0.9819336 0.006111145 -0.1881104
vn 0.1876221 0.005683899 -0.9824219
vn 0.1368408 0.6210938 -0.7719727
vn 0.1056519 -0.5083008 -0.8544922
vn -0.8076172 -0.5639648 -0.1706543
vn 0.07244873 -0.6152344 -0.784668
vn -0.875 -0.442627 -0.1972656
vn -0.03652954 -0.8320313 0.5537109
vn -0.2592773 -0.6040039 0.753418
vn 0.7470703 -0.6606445 0.074646
vn 0.1056519 -0.5083008 -0.8544922
vn 0.07244873 -0.6152344 -0.784668
vn 0.4772949 -0.878418 -0.02615356
vn -0.03652954 -0.8320313 0.5537109
vn -0.2592773 -0.6040039 0.753418
vn 0.7700195 0.6108398 -0.1856689
vn 0.2010498 0.5576172 0.8056641
vn 0.02096558 0.8701172 0.4921875
vn 0.4570313 0.8857422 -0.07824707
vn -0.2093506 0.6210938 -0.7553711
vn -0.1904297 0.9169922 -0.3505859
vn -0.404541 0.8911133 0.2054443
vn -0.1904297 0.9169922 -0.3505859
vn -0.2729492 -0.6152344 -0.7392578
vn -0.8022461 -0.5639648 0.1943359
vn 0.02096558 0.8701172 0.4921875
vn 0.2056885 -0.8320313 0.5151367
vn 0.9672852 0.005771637 -0.253418
vn 0.2539063 0.006210327 0.9672852
vn 0.2010498 0.5576172 0.8056641
vn 0.7700195 0.6108398 -0.1856689
vn -0.2541504 0.005683899 -0.9672852
vn -0.2093506 0.6210938 -0.7553711
vn 0.02096558 0.8701172 0.4921875
vn 0.2010498 0.5576172 0.8056641
vn -0.7919922 0.5683594 0.2235107
vn -0.404541 0.8911133 0.2054443
vn -0.2093506 0.6210938 -0.7553711
vn -0.1904297 0.9169922 -0.3505859
vn -0.1904297 0.9169922 -0.3505859
vn 0.4194336 -0.878418 -0.2293701
vn -0.2729492 -0.6152344 -0.7392578
vn 0.4570313 0.8857422 -0.07824707
vn 0.02096558 0.8701172 0.4921875
vn 0.2056885 -0.8320313 0.5151367
vn 0.2539063 0.006210327 0.9672852
vn -0.7919922 0.5683594 0.2235107
vn 0.2010498 0.5576172 0.8056641
vn -0.9672852 0.006111145 0.2536621
vn -0.2541504 0.005683899 -0.9672852
vn -0.2093506 0.6210938 -0.7553711
vn 0.2056885 -0.8320313 0.5151367
vn -0.8022461 -0.5639648 0.1943359
vn -0.8745117 -0.442627 0.1992188
vn 0.09082031 -0.6040039 0.7915039
vn 0.7744141 0.6108398 0.1643066
vn -0.1658936 0.5576172 0.8134766
vn -0.1932373 0.8701172 0.453125
vn 0.4462891 0.8857422 0.1264648
vn 0.1368408 0.6210938 -0.7719727
vn -0.02064514 0.9169922 -0.3984375
vn -0.4536133 0.8911133 0.01093292
vn -0.02064514 0.9169922 -0.3984375
vn 0.07244873 -0.6152344 -0.784668
vn -0.8076172 -0.5639648 -0.1706543
vn -0.1932373 0.8701172 0.453125
vn -0.03652954 -0.8320313 0.5537109
vn 0.9819336 0.005771637 0.1884766
vn -0.1877441 0.006210327 0.9824219
vn -0.1658936 0.5576172 0.8134766
vn 0.7744141 0.6108398 0.1643066
vn 0.1876221 0.005683899 -0.9824219
vn 0.1368408 0.6210938 -0.7719727
vn -0.1932373 0.8701172 0.453125
vn -0.1658936 0.5576172 0.8134766
vn -0.8110352 0.5683594 -0.1397705
vn -0.4536133 0.8911133 0.01093292
vn 0.1368408 0.6210938 -0.7719727
vn -0.02064514 0.9169922 -0.3984375
vn -0.02064514 0.9169922 -0.3984375
vn 0.4772949 -0.878418 -0.02615356
vn 0.07244873 -0.6152344 -0.784668
vn 0.4462891 0.8857422 0.1264648
vn -0.1932373 0.8701172 0.453125
vn -0.03652954 -0.8320313 0.5537109
vn -0.1877441 0.006210327 0.9824219
vn -0.8110352 0.5683594 -0.1397705
vn -0.1658936 0.5576172 0.8134766
vn -0.9819336 0.006111145 -0.1881104
vn 0.1876221 0.005683899 -0.9824219
vn 0.1368408 0.6210938 -0.7719727
vn 0.1056519 -0.5083008 -0.8544922
vn -0.8076172 -0.5639648 -0.1706543
vn 0.07244873 -0.6152344 -0.784668
vn -0.875 -0.442627 -0.1972656
vn -0.03652954 -0.8320313 0.5537109
vn -0.2592773 -0.6040039 0.753418
vn 0.2307129 0.007686615 -0.9731445
vn -0.9873047 0.01282501 -0.1575928
vn -0.9321289 0.3063965 -0.1921387
vn 0.1573486 0.3422852 -0.9262695
vn -0.1222534 0.9853516 -0.1203003
vn -0.1868896 0.4716797 0.8618164
vn -0.1535645 -0.01464081 0.987793
vn -0.2731934 -0.5083008 -0.8164063
vn -0.2729492 -0.6152344 -0.7392578
vn -0.2114258 0.007686615 -0.9775391
vn -0.9589844 0.01282501 0.2834473
vn -0.9238281 0.3063965 0.2286377
vn -0.2573242 0.3422852 -0.9038086
vn -0.1622314 0.9853516 -0.05578613
vn 0.2028809 0.4716797 0.8579102
vn 0.2873535 -0.01464081 0.9575195
vn 0.2307129 0.007686615 -0.9731445
vn -0.9873047 0.01281738 -0.1575928
vn -0.9321289 0.3063965 -0.1921387
vn 0.1573486 0.3422852 -0.9262695
vn -0.1222534 0.9853516 -0.1203003
vn -0.1868896 0.4716797 0.8618164
vn -0.1535645 -0.01464081 0.987793
vn -0.03652954 -0.8320313 0.5537109
vn -0.2592773 -0.6040039 0.753418
vn 0.7470703 -0.6606445 0.074646
vn 0.4772949 -0.878418 -0.02615356
vn 0.07244873 -0.6152344 -0.784668
vn 0.1056519 -0.5083008 -0.8544922
vn 0.9775391 -0.02076721 0.2095947
vn 0.2307129 0.007686615 -0.9731445
vn -0.1535645 -0.01464081 0.987793
vn 0.1573486 0.3422852 -0.9262695
vn 0.8540039 0.4987793 0.1480713
vn -0.1868896 0.4716797 0.8618164
vn -0.1222534 0.9853516 -0.1203003
vn 0.2056885 -0.8320313 0.5151367
vn 0.09082031 -0.6040039 0.7915039
vn 0.7060547 -0.6606445 -0.2546387
vn 0.4194336 -0.878418 -0.2293701
vn -0.2729492 -0.6152344 -0.7392578
vn -0.2731934 -0.5083008 -0.8164063
vn 0.9726563 -0.02078247 -0.2322998
vn -0.2114258 0.007686615 -0.9775391
vn 0.2873535 -0.01464081 0.9575195
vn -0.2573242 0.3422852 -0.9038086
vn 0.8344727 0.4987793 -0.2344971
vn 0.2028809 0.4716797 0.8579102
vn -0.1622314 0.9853516 -0.05578613
vn 0.9775391 -0.02078247 0.2095947
vn 0.2307129 0.007686615 -0.9731445
vn -0.1535645 -0.01464081 0.987793
vn 0.1573486 0.3422852 -0.9262695
vn 0.8540039 0.4987793 0.1480713
vn -0.1868896 0.4716797 0.8618164
vn -0.1222534 0.9853516 -0.1203003
g Set_1_Candle_0
f 3/3/3 2/2/2 1/1/1
f 4/4/4 3/3/3 1/1/1
f 4/4/4 1/1/1 5/5/5
f 6/6/6 4/4/4 5/5/5
f 9/9/9 8/8/8 7/7/7
f 10/10/10 9/9/9 7/7/7
f 10/10/10 7/7/7 11/11/11
f 12/12/12 10/10/10 11/11/11
f 15/15/15 14/14/14 13/13/13
f 16/16/16 15/15/15 13/13/13
f 16/16/16 13/13/13 17/17/17
f 18/18/18 16/16/16 17/17/17
f 21/21/21 20/20/20 19/19/19
f 22/22/22 21/21/21 19/19/19
f 23/23/23 21/21/21 22/22/22
f 24/24/24 23/23/23 22/22/22
f 27/27/27 26/26/26 25/25/25
f 26/26/26 28/28/28 25/25/25
f 28/28/28 26/26/26 29/29/29
f 26/26/26 30/30/30 29/29/29
f 33/33/33 32/32/32 31/31/31
f 32/32/32 34/34/34 31/31/31
f 34/34/34 32/32/32 35/35/35
f 32/32/32 36/36/36 35/35/35
f 39/39/39 38/38/38 37/37/37
f 38/38/38 40/40/40 37/37/37
f 40/40/40 38/38/38 41/41/41
f 42/42/42 40/40/40 41/41/41
f 45/45/45 44/44/44 43/43/43
f 46/46/46 45/45/45 43/43/43
f 46/46/46 43/43/43 47/47/47
f 43/43/43 48/48/48 47/47/47
f 51/51/51 50/50/50 49/49/49
f 52/52/52 51/51/51 49/49/49
f 52/52/52 49/49/49 53/53/53
f 54/54/54 52/52/52 53/53/53
f 57/57/57 56/56/56 55/55/55
f 58/58/58 57/57/57 55/55/55
f 58/58/58 55/55/55 59/59/59
f 60/60/60 58/58/58 59/59/59
f 63/63/63 62/62/62 61/61/61
f 64/64/64 63/63/63 61/61/61
f 64/64/64 61/61/61 65/65/65
f 66/66/66 64/64/64 65/65/65
f 69/69/69 68/68/68 67/67/67
f 70/70/70 69/69/69 67/67/67
f 71/71/71 69/69/69 70/70/70
f 72/72/72 71/71/71 70/70/70
f 75/75/75 74/74/74 73/73/73
f 74/74/74 76/76/76 73/73/73
f 76/76/76 74/74/74 77/77/77
f 74/74/74 78/78/78 77/77/77
f 81/81/81 80/80/80 79/79/79
f 80/80/80 82/82/82 79/79/79
f 82/82/82 80/80/80 83/83/83
f 80/80/80 84/84/84 83/83/83
f 87/87/87 86/86/86 85/85/85
f 88/88/88 87/87/87 85/85/85
f 91/91/91 90/90/90 89/89/89
f 92/92/92 91/91/91 89/89/89
f 92/92/92 89/89/89 93/93/93
f 94/94/94 92/92/92 93/93/93
f 97/97/97 96/96/96 95/95/95
f 98/98/98 97/97/97 95/95/95
f 98/98/98 95/95/95 99/99/99
f 100/100/100 98/98/98 99/99/99
f 103/103/103 102/102/102 101/101/101
f 104/104/104 103/103/103 101/101/101
f 104/104/104 101/101/101 105/105/105
f 106/106/106 104/104/104 105/105/105
f 109/109/109 108/108/108 107/107/107
f 110/110/110 109/109/109 107/107/107
f 111/111/111 109/109/109 110/110/110
f 112/112/112 111/111/111 110/110/110
f 115/115/115 114/114/114 113/113/113
f 114/114/114 116/116/116 113/113/113
f 116/116/116 114/114/114 117/117/117
f 114/114/114 118/118/118 117/117/117
f 121/121/121 120/120/120 119/119/119
f 120/120/120 122/122/122 119/119/119
f 122/122/122 120/120/120 123/123/123
f 120/120/120 124/124/124 123/123/123
f 127/127/127 126/126/126 125/125/125
f 126/126/126 128/128/128 125/125/125
f 128/128/128 126/126/126 129/129/129
f 130/130/130 128/128/128 129/129/129
g Set_1_Candle_1
f 37/37/37 40/40/40 131/131/131
f 40/40/40 132/132/132 131/131/131
f 131/131/131 132/132/132 133/133/133
f 134/134/134 131/131/131 133/133/133
f 133/133/133 135/135/135 134/134/134
f 135/135/135 133/133/133 136/136/136
f 137/137/137 136/136/136 133/133/133
f 132/132/132 137/137/137 133/133/133
f 132/132/132 40/40/40 137/137/137
f 40/40/40 42/42/42 137/137/137
f 139/139/139 86/86/86 138/138/138
f 86/86/86 87/87/87 138/138/138
f 138/138/138 87/87/87 140/140/140
f 87/87/87 141/141/141 140/140/140
f 140/140/140 141/141/141 142/142/142
f 143/143/143 140/140/140 142/142/142
f 142/142/142 144/144/144 143/143/143
f 144/144/144 142/142/142 145/145/145
f 146/146/146 145/145/145 142/142/142
f 141/141/141 146/146/146 142/142/142
f 141/141/141 87/87/87 146/146/146
f 87/87/87 88/88/88 146/146/146
f 125/125/125 128/128/128 147/147/147
f 128/128/128 148/148/148 147/147/147
f 147/147/147 148/148/148 149/149/149
f 150/150/150 147/147/147 149/149/149
f 149/149/149 151/151/151 150/150/150
f 151/151/151 149/149/149 152/152/152
f 153/153/153 152/152/152 149/149/149
f 148/148/148 153/153/153 149/149/149
f 148/148/148 128/128/128 153/153/153
f 128/128/128 130/130/130 153/153/153
f 156/156/156 155/155/155 154/154/154
f 157/157/157 156/156/156 154/154/154
f 157/157/157 158/158/158 156/156/156
f 158/158/158 159/159/159 156/156/156
f 155/155/155 156/156/156 160/160/160
f 160/160/160 156/156/156 159/159/159
f 161/161/161 160/160/160 159/159/159
f 162/162/162 155/155/155 160/160/160
f 160/160/160 161/161/161 163/163/163
f 162/162/162 160/160/160 164/164/164
f 164/164/164 160/160/160 163/163/163
f 165/165/165 162/162/162 164/164/164
f 164/164/164 163/163/163 166/166/166
f 165/165/165 164/164/164 166/166/166
f 169/169/169 168/168/168 167/167/167
f 170/170/170 169/169/169 167/167/167
f 170/170/170 171/171/171 169/169/169
f 171/171/171 172/172/172 169/169/169
f 168/168/168 169/169/169 173/173/173
f 173/173/173 169/169/169 172/172/172
f 174/174/174 173/173/173 172/172/172
f 175/175/175 168/168/168 173/173/173
f 173/173/173 174/174/174 176/176/176
f 175/175/175 173/173/173 177/177/177
f 177/177/177 173/173/173 176/176/176
f 178/178/178 175/175/175 177/177/177
f 177/177/177 176/176/176 179/179/179
f 178/178/178 177/177/177 179/179/179
f 48/48/48 43/43/43 180/180/180
f 180/180/180 43/43/43 44/44/44
f 181/181/181 180/180/180 44/44/44
f 182/182/182 48/48/48 180/180/180
f 180/180/180 181/181/181 183/183/183
f 182/182/182 180/180/180 184/184/184
f 184/184/184 180/180/180 183/183/183
f 185/185/185 182/182/182 184/184/184
f 184/184/184 183/183/183 186/186/186
f 185/185/185 184/184/184 186/186/186
