g Shader
v -0.4338828 0.760474 -0.9473454
v -0.215648 0.760474 -1.107719
v -0.2156481 0.2851757 -1.107719
v -0.4338828 0.2851757 -0.9473454
v -0.2379299 1.045653 1.051198
v -0.4445223 1.045653 0.7700698
v -0.4545271 0.760474 0.8258503
v -0.2941534 0.760474 1.044085
v -0.4460391 1.045653 -0.884249
v -0.4338828 0.760474 -0.9473454
v -0.5823044 0.760474 -1.149316
v -0.6461506 1.045653 -1.156558
v 0.06878638 1.045653 -1.266646
v 0.3573166 1.045653 -1.478677
v 0.2982647 0.760474 -1.485377
v 0.08002967 0.760474 -1.325003
v 1.036695 1.045653 0.3155797
v 1.002484 0.7604743 0.2618262
v 0.7543786 0.7604743 0.247599
v 0.7156736 1.045653 0.2971711
v -0.1274429 1.045653 -1.533672
v 0.06878638 1.045653 -1.266646
v 0.08002967 0.760474 -1.325003
v -0.06839192 0.760474 -1.526974
v 0.724955 1.045653 -0.1500054
v 0.7156736 1.045653 0.2971711
v 0.7543786 0.7604743 0.247599
v 0.7615518 0.7604743 -0.09800699
v -0.2156481 0.2851757 -1.107719
v -0.1788442 -3.25574E-06 -1.103544
v -0.4408904 -3.247323E-06 -0.9109744
v -0.4338828 0.2851757 -0.9473454
v -0.4445223 1.045653 0.7700698
v -0.7405512 1.045653 0.9876119
v -0.6843286 0.760474 0.9947241
v -0.4545271 0.760474 0.8258503
v -0.06557059 1.045653 1.276767
v -0.3701662 1.045653 1.500604
v -0.3066708 0.760474 1.508636
v -0.07686937 0.760474 1.339763
v -0.4338828 0.2851757 -0.9473454
v -0.4408904 -3.247323E-06 -0.9109744
v -0.6191081 -3.235202E-06 -1.153491
v -0.5823044 0.2851757 -1.149316
v -0.5823044 0.2851757 -1.149316
v -0.6191081 -3.235202E-06 -1.153491
v -0.357062 -3.243619E-06 -1.346061
v -0.3640696 0.2851757 -1.30969
v 0.2982646 0.2851757 -1.485377
v 0.2982647 0.760474 -1.485377
v 0.1498431 0.760474 -1.687347
v 0.1498431 0.2851757 -1.687347
v 0.08002961 0.2851757 -1.325003
v 0.2982646 0.2851757 -1.485377
v 0.3348111 -3.272236E-06 -1.481231
v 0.07307094 -3.263829E-06 -1.288887
v -0.06839192 0.2851757 -1.526974
v 0.08002961 0.2851757 -1.325003
v 0.07307094 -3.263829E-06 -1.288887
v -0.1049384 -3.251722E-06 -1.53112
v -0.2941535 0.2851757 1.044085
v -0.4545271 0.2851757 0.8258503
v -0.448393 -3.276147E-06 0.7916478
v -0.25968 -3.288981E-06 1.048446
v -0.4545271 0.2851757 0.8258503
v -0.6843286 0.2851757 0.9947241
v -0.7188021 -3.26746E-06 0.9903628
v -0.448393 -3.276147E-06 0.7916478
v -0.1575949 1.045653 1.789869
v -0.1462969 0.760474 1.726871
v -0.3066708 0.760474 1.508636
v -0.3701662 1.045653 1.500604
v -0.1462969 0.2851757 1.726871
v -0.3066709 0.2851757 1.508636
v -0.3066708 0.760474 1.508636
v -0.1462969 0.760474 1.726871
v 0.1470007 1.045653 1.566031
v 0.08350456 0.760474 1.557998
v -0.1462969 0.760474 1.726871
v -0.1575949 1.045653 1.789869
v 0.7615518 0.285176 -0.09800701
v 0.7407992 -2.957669E-06 0.2649909
v 0.7487119 -2.951494E-06 -0.1162506
v 0.7543786 0.285176 0.247599
v 0.7615518 0.7604743 -0.09800699
v 0.7543786 0.7604743 0.247599
v 1.002484 0.285176 0.2618262
v 1.014487 -2.970174E-06 0.2806851
v 0.7407992 -2.957669E-06 0.2649909
v 0.7543786 0.285176 0.247599
v -0.201685 1.901237 0.9694386
v 0.7769826 1.896118 1.113937
v 0.2510858 1.901238 1.585644
v 0.1965712 1.896119 0.6491222
v 1.131775 1.896119 0.3052754
v 0.3967169 1.896119 0.1929397
v 0.3967169 1.896119 0.1929397
v 1.034704 1.896119 -0.5724424
v 0.3419572 1.896119 -0.3021986
v 0.2208755 1.896126 -0.5223445
v 0.1204852 1.900324 -0.6279039
v 0.8197163 1.896161 -0.9633583
v 0.7492861 1.90032 -1.089889
v 0.7769826 1.811202 1.113937
v -0.2016608 1.806206 0.9694096
v 0.251138 1.806207 1.585493
v 0.1965712 1.811202 0.6491222
v 1.131775 1.811202 0.3052754
v 0.3967169 1.811202 0.1929397
v 0.251138 1.806207 1.585493
v 0.2510858 1.901238 1.585644
v 0.7769826 1.896118 1.113937
v 0.7769826 1.811202 1.113937
v 1.131775 1.896119 0.3052754
v 1.131775 1.811202 0.3052754
v 1.034704 1.811202 -0.5724424
v 1.034704 1.896119 -0.5724424
v 0.8197163 1.896161 -0.9633583
v 0.8197163 1.81116 -0.9633583
v 0.7492861 1.90032 -1.089889
v 0.7492898 1.807466 -1.08966
v -0.3066709 0.2851757 1.508636
v -0.07686943 0.2851757 1.339763
v -0.07686937 0.760474 1.339763
v -0.3066708 0.760474 1.508636
v -0.1462969 0.2851757 1.726871
v -0.1523982 -3.305979E-06 1.76089
v -0.3409591 -3.293155E-06 1.504299
v -0.3066709 0.2851757 1.508636
v -0.07686943 0.2851757 1.339763
v -0.3066709 0.2851757 1.508636
v -0.3409591 -3.293155E-06 1.504299
v -0.07076818 -3.301834E-06 1.305744
v -0.3519124 1.045653 -1.372785
v -0.3640696 0.760474 -1.30969
v -0.215648 0.760474 -1.107719
v -0.1518009 1.045653 -1.100475
v -0.1518009 1.045653 -1.100475
v -0.215648 0.760474 -1.107719
v -0.4338828 0.760474 -0.9473454
v -0.4460391 1.045653 -0.884249
v 0.1498431 0.2851757 -1.687347
v 0.1568017 -3.260129E-06 -1.723464
v 0.3348111 -3.272236E-06 -1.481231
v 0.2982646 0.2851757 -1.485377
v 0.1610873 1.045653 -1.745704
v 0.1498431 0.760474 -1.687347
v 0.2982647 0.760474 -1.485377
v 0.3573166 1.045653 -1.478677
v -0.2156481 0.2851757 -1.107719
v -0.215648 0.760474 -1.107719
v -0.3640696 0.760474 -1.30969
v -0.3640696 0.2851757 -1.30969
v -0.1274429 1.045653 -1.533672
v -0.06839192 0.760474 -1.526974
v 0.1498431 0.760474 -1.687347
v 0.1610873 1.045653 -1.745704
v 1.021508 0.285176 -0.08467154
v 1.035473 -2.964566E-06 -0.10154
v 1.014487 -2.970174E-06 0.2806851
v 1.002484 0.285176 0.2618262
v 1.021508 0.7604743 -0.08467153
v 1.002484 0.7604743 0.2618262
v 0.724955 1.045653 -0.1500054
v 0.7615518 0.7604743 -0.09800699
v 1.021508 0.7604743 -0.08467153
v 1.061311 1.045653 -0.1327508
v 1.061311 1.045653 -0.1327508
v 1.021508 0.7604743 -0.08467153
v 1.002484 0.7604743 0.2618262
v 1.036695 1.045653 0.3155797
v -0.2379299 1.045653 1.051198
v -0.2941534 0.760474 1.044085
v -0.5239549 0.760474 1.212959
v -0.5339588 1.045653 1.268741
v -0.6843286 0.2851757 0.9947241
v -0.6843286 0.760474 0.9947241
v -0.5239549 0.760474 1.212959
v -0.5239549 0.2851757 1.212959
v -0.2941535 0.2851757 1.044085
v -0.25968 -3.288981E-06 1.048446
v -0.530089 -3.280295E-06 1.247161
v -0.5239549 0.2851757 1.212959
v 0.08350456 0.2851757 1.557998
v 0.08350456 0.760474 1.557998
v -0.07686937 0.760474 1.339763
v -0.07686943 0.2851757 1.339763
v -0.1462969 0.2851757 1.726871
v -0.1462969 0.760474 1.726871
v 0.08350456 0.760474 1.557998
v 0.08350456 0.2851757 1.557998
v -0.5339588 1.045653 1.268741
v -0.5239549 0.760474 1.212959
v -0.6843286 0.760474 0.9947241
v -0.7405512 1.045653 0.9876119
v -0.06557059 1.045653 1.276767
v -0.07686937 0.760474 1.339763
v 0.08350456 0.760474 1.557998
v 0.1470007 1.045653 1.566031
v -0.6843286 0.2851757 0.9947241
v -0.4545271 0.2851757 0.8258503
v -0.4545271 0.760474 0.8258503
v -0.6843286 0.760474 0.9947241
v 0.08002961 0.2851757 -1.325003
v -0.06839192 0.2851757 -1.526974
v -0.06839192 0.760474 -1.526974
v 0.08002967 0.760474 -1.325003
v -0.06839192 0.2851757 -1.526974
v -0.1049384 -3.251722E-06 -1.53112
v 0.1568017 -3.260129E-06 -1.723464
v 0.1498431 0.2851757 -1.687347
v 0.7769826 1.230701 1.113937
v 0.01426461 1.230701 0.1344913
v 1.131775 1.230701 0.3052756
v -0.105418 1.230701 0.4072782
v -0.3059216 1.22901 1.979822
v -0.9734081 1.229011 1.071514
v 0.1498431 0.2851757 -1.687347
v 0.1498431 0.760474 -1.687347
v -0.06839192 0.760474 -1.526974
v -0.06839192 0.2851757 -1.526974
v 1.021508 0.285176 -0.08467154
v 1.021508 0.7604743 -0.08467153
v 0.7615518 0.7604743 -0.09800699
v 0.7615518 0.285176 -0.09800701
v -0.07686943 0.2851757 1.339763
v -0.07076818 -3.301834E-06 1.305744
v 0.1177928 -3.314658E-06 1.562336
v 0.08350456 0.2851757 1.557998
v -0.6461506 1.045653 -1.156558
v -0.5823044 0.760474 -1.149316
v -0.3640696 0.760474 -1.30969
v -0.3519124 1.045653 -1.372785
v 0.04970813 1.239111 -2.039699
v -0.01848055 1.230701 -0.1615904
v -0.8885599 1.239052 -1.350006
v 1.034704 1.230701 -0.5724424
v 1.131775 1.230701 0.3052756
v 0.01426461 1.230701 0.1344913
v 0.08002967 0.760474 -1.325003
v 0.2982647 0.760474 -1.485377
v 0.2982646 0.2851757 -1.485377
v 0.08002961 0.2851757 -1.325003
v 1.002484 0.7604743 0.2618262
v 1.002484 0.285176 0.2618262
v 0.7543786 0.285176 0.247599
v 0.7543786 0.7604743 0.247599
v 0.05016088 1.045626 -2.042129
v 0.04891032 1.035558 -2.034918
v 1.029939 1.045653 -0.5705835
v 1.03947 1.055796 -0.5743014
v 1.126719 1.045653 0.3045027
v 1.034704 1.230701 -0.5724424
v 0.04970813 1.239111 -2.039699
v 1.136832 1.055796 0.3060482
v 1.131775 1.230701 0.3052756
v 0.7729899 1.045653 1.110739
v 0.7769826 1.230701 1.113937
v 0.7809753 1.055796 1.117135
v -0.3051992 1.045653 1.975096
v -0.3059216 1.22901 1.979822
v -0.3062828 1.055796 1.982185
v 0.05016088 1.045626 -2.042129
v 0.04970813 1.239111 -2.039699
v -0.8885599 1.239052 -1.350006
v -0.8911195 1.045626 -1.350413
v 0.04891032 1.035558 -2.034918
v -0.8836294 1.035563 -1.349423
v -0.02324599 1.055796 -0.1597313
v -0.01371513 1.045653 -0.1634494
v -0.01848055 1.230701 -0.1615904
v -0.8885599 1.239052 -1.350006
v 0.01426461 1.230701 0.1344913
v 0.009208113 1.055796 0.1337186
v 0.01932109 1.045653 0.1352641
v -0.105418 1.230701 0.4072782
v -0.1014254 1.045653 0.4104758
v -0.1094107 1.055796 0.4040807
v -0.9734081 1.229011 1.071514
v -0.9757714 1.055796 1.071153
v -0.9686815 1.045653 1.072236
v -0.3051992 1.045653 1.975096
v -0.3062828 1.055796 1.982185
v -0.9734081 1.229011 1.071514
v -0.3059216 1.22901 1.979822
v 0.2208755 1.811195 -0.5223445
v 0.3419572 1.811202 -0.3021986
v 1.034704 1.811202 -0.5724424
v 0.8197163 1.81116 -0.9633583
v 0.1209491 1.80747 -0.627812
v 0.7492898 1.807466 -1.08966
v -0.4338828 0.760474 -0.9473454
v -0.4338828 0.2851757 -0.9473454
v -0.5823044 0.2851757 -1.149316
v -0.5823044 0.760474 -1.149316
v -0.5239549 0.2851757 1.212959
v -0.5239549 0.760474 1.212959
v -0.2941534 0.760474 1.044085
v -0.2941535 0.2851757 1.044085
v -0.5823044 0.760474 -1.149316
v -0.5823044 0.2851757 -1.149316
v -0.3640696 0.2851757 -1.30969
v -0.3640696 0.760474 -1.30969
v 0.08350456 0.2851757 1.557998
v 0.1177928 -3.314658E-06 1.562336
v -0.1523982 -3.305979E-06 1.76089
v -0.1462969 0.2851757 1.726871
v -0.2016608 1.806206 0.9694096
v 0.1965712 1.896119 0.6491222
v -0.201685 1.901237 0.9694386
v 0.1965712 1.811202 0.6491222
v 0.3967169 1.811202 0.1929397
v 0.3967169 1.896119 0.1929397
v 0.3419572 1.811202 -0.3021986
v 0.3419572 1.896119 -0.3021986
v 0.2208755 1.811195 -0.5223445
v 0.2208755 1.896126 -0.5223445
v 0.1209491 1.80747 -0.627812
v 0.1204852 1.900324 -0.6279039
v 1.034704 1.811202 -0.5724424
v 0.3419572 1.811202 -0.3021986
v 0.3967169 1.811202 0.1929397
v 1.131775 1.811202 0.3052754
v 0.7615518 0.285176 -0.09800701
v 0.7487119 -2.951494E-06 -0.1162506
v 1.035473 -2.964566E-06 -0.10154
v 1.021508 0.285176 -0.08467154
v -0.2016608 1.806206 0.9694096
v -0.201685 1.901237 0.9694386
v 0.2510858 1.901238 1.585644
v 0.251138 1.806207 1.585493
v 0.7492898 1.807466 -1.08966
v 0.7492861 1.90032 -1.089889
v 0.1204852 1.900324 -0.6279039
v 0.1209491 1.80747 -0.627812
v -0.3640696 0.2851757 -1.30969
v -0.357062 -3.243619E-06 -1.346061
v -0.1788442 -3.25574E-06 -1.103544
v -0.2156481 0.2851757 -1.107719
v -0.5239549 0.2851757 1.212959
v -0.530089 -3.280295E-06 1.247161
v -0.7188021 -3.26746E-06 0.9903628
v -0.6843286 0.2851757 0.9947241
v -0.4545271 0.2851757 0.8258503
v -0.2941535 0.2851757 1.044085
v -0.2941534 0.760474 1.044085
v -0.4545271 0.760474 0.8258503
v 0.7306756 1.80613 -0.8969574
v 0.5124405 1.80613 -0.7365835
v 0.5387923 1.520951 -0.733407
v 0.7196012 1.520951 -0.8662777
v 0.7306756 1.235772 -0.8969575
v 0.5124404 1.235772 -0.7365835
v 0.9924292 1.80613 0.4017303
v 1.011453 1.80613 0.05523257
v 0.9894873 1.521351 0.08176716
v 0.9735487 1.521351 0.3720647
v 0.9924291 1.235772 0.4017303
v 1.011453 1.235772 0.05523253
v 0.7514967 1.80613 0.04189701
v 0.9894873 1.521351 0.08176716
v 1.011453 1.80613 0.05523257
v 0.7716941 1.521351 0.07059433
v 1.011453 1.235772 0.05523253
v 0.7514967 1.235772 0.041897
v 0.4101812 1.520951 0.95254
v 0.4075364 1.235772 0.9277954
v 0.6189291 1.235772 1.097086
v 0.5927955 1.520951 1.098784
v 0.6189291 1.80613 1.097086
v 0.4075365 1.80613 0.9277954
v 0.8313549 1.80613 -0.7080603
v 0.7306756 1.80613 -0.8969574
v 0.7196012 1.520951 -0.8662777
v 0.8030144 1.520951 -0.7097753
v 0.7306756 1.235772 -0.8969575
v 0.8313549 1.235772 -0.7080603
v 0.7443235 1.80613 0.3875031
v 0.9924292 1.80613 0.4017303
v 0.9735487 1.521351 0.3720647
v 0.7656845 1.521352 0.3601453
v 0.9924291 1.235772 0.4017303
v 0.7443235 1.235772 0.3875031
v 0.5967652 1.80613 -0.5456402
v 0.8313549 1.80613 -0.7080603
v 0.8030144 1.520951 -0.7097753
v 0.6086556 1.520951 -0.5752094
v 0.8313549 1.235772 -0.7080603
v 0.5967652 1.235772 -0.5456402
v 0.3899068 1.80613 1.332833
v 0.2564104 1.520951 1.113912
v 0.2295329 1.80613 1.114598
v 0.3949516 1.520951 1.302437
v 0.2295329 1.235772 1.114598
v 0.3899069 1.235772 1.332833
v 0.7514967 1.80613 0.04189701
v 0.7443235 1.80613 0.3875031
v 0.7656845 1.521352 0.3601453
v 0.7716941 1.521351 0.07059433
v 0.7514967 1.235772 0.041897
v 0.7443235 1.235772 0.3875031
v 0.5967652 1.80613 -0.5456402
v 0.5387923 1.520951 -0.733407
v 0.5124405 1.80613 -0.7365835
v 0.6086556 1.520951 -0.5752094
v 0.5124404 1.235772 -0.7365835
v 0.5967652 1.235772 -0.5456402
v 0.6189291 1.235772 1.097086
v 0.3899069 1.235772 1.332833
v 0.3949516 1.520951 1.302437
v 0.5927955 1.520951 1.098784
v 0.3899068 1.80613 1.332833
v 0.6189291 1.80613 1.097086
v 0.2564104 1.520951 1.113912
v 0.4075365 1.80613 0.9277954
v 0.2295329 1.80613 1.114598
v 0.4101812 1.520951 0.95254
v 0.4075364 1.235772 0.9277954
v 0.2295329 1.235772 1.114598
vt 0.8959961 0.9067383
vt 0.8945313 0.9067383
vt 0.8945313 0.9003906
vt 0.8959961 0.9003906
vt 0.9125977 0.9106445
vt 0.9101563 0.9106445
vt 0.9106445 0.9067383
vt 0.9125977 0.9067383
vt 0.8964844 0.9106445
vt 0.8959961 0.9067383
vt 0.894043 0.9067383
vt 0.894043 0.9106445
vt 0.8930664 0.9106445
vt 0.8911133 0.9106445
vt 0.8911133 0.9067383
vt 0.8925781 0.9067383
vt 0.90625 0.9106445
vt 0.9057617 0.9067383
vt 0.9057617 0.9067383
vt 0.90625 0.9106445
vt 0.890625 0.9106445
vt 0.8930664 0.9106445
vt 0.8925781 0.9067383
vt 0.8911133 0.9067383
vt 0.9023438 0.9106445
vt 0.90625 0.9106445
vt 0.9057617 0.9067383
vt 0.902832 0.9067383
vt 0.8945313 0.9003906
vt 0.8945313 0.8964844
vt 0.8959961 0.8964844
vt 0.8959961 0.9003906
vt 0.9101563 0.9106445
vt 0.9121094 0.9106445
vt 0.9121094 0.9067383
vt 0.9106445 0.9067383
vt 0.9145508 0.9106445
vt 0.9165039 0.9106445
vt 0.9165039 0.9067383
vt 0.9150391 0.9067383
vt 0.8959961 0.9003906
vt 0.8959961 0.8964844
vt 0.894043 0.8964844
vt 0.894043 0.9003906
vt 0.894043 0.9003906
vt 0.894043 0.8964844
vt 0.8925781 0.8964844
vt 0.8925781 0.9003906
vt 0.8911133 0.9003906
vt 0.8911133 0.9067383
vt 0.8896484 0.9067383
vt 0.8896484 0.9003906
vt 0.8925781 0.9003906
vt 0.8911133 0.9003906
vt 0.8911133 0.8964844
vt 0.8930664 0.8964844
vt 0.8911133 0.9003906
vt 0.8925781 0.9003906
vt 0.8930664 0.8964844
vt 0.890625 0.8964844
vt 0.9125977 0.9003906
vt 0.9106445 0.9003906
vt 0.9106445 0.8964844
vt 0.9125977 0.8964844
vt 0.9106445 0.9003906
vt 0.9121094 0.9003906
vt 0.9121094 0.8964844
vt 0.9106445 0.8964844
vt 0.9189453 0.9106445
vt 0.918457 0.9067383
vt 0.9165039 0.9067383
vt 0.9165039 0.9106445
vt 0.918457 0.9003906
vt 0.9165039 0.9003906
vt 0.9165039 0.9067383
vt 0.918457 0.9067383
vt 0.9169922 0.9106445
vt 0.9169922 0.9067383
vt 0.918457 0.9067383
vt 0.9189453 0.9106445
vt 0.902832 0.9003906
vt 0.9057617 0.8964844
vt 0.902832 0.8964844
vt 0.9057617 0.9003906
vt 0.902832 0.9067383
vt 0.9057617 0.9067383
vt 0.9057617 0.9003906
vt 0.90625 0.8964844
vt 0.9057617 0.8964844
vt 0.9057617 0.9003906
vt 0.8476563 0.902832
vt 0.8466797 0.9038086
vt 0.8432617 0.902832
vt 0.8500977 0.9038086
vt 0.8525391 0.9038086
vt 0.8535156 0.9033203
vt 0.8535156 0.9033203
vt 0.8588867 0.9033203
vt 0.8569336 0.9033203
vt 0.8583984 0.9033203
vt 0.859375 0.902832
vt 0.8618164 0.9033203
vt 0.862793 0.902832
vt 0.847168 0.9174805
vt 0.8481445 0.9179688
vt 0.84375 0.918457
vt 0.8505859 0.9174805
vt 0.8530273 0.9174805
vt 0.8535156 0.9169922
vt 0.84375 0.918457
vt 0.8432617 0.902832
vt 0.8466797 0.9038086
vt 0.847168 0.9174805
vt 0.8525391 0.9038086
vt 0.8530273 0.9174805
vt 0.859375 0.9169922
vt 0.8588867 0.9033203
vt 0.8618164 0.9033203
vt 0.8618164 0.9169922
vt 0.862793 0.902832
vt 0.862793 0.9174805
vt 0.9165039 0.9003906
vt 0.9150391 0.9003906
vt 0.9150391 0.9067383
vt 0.9165039 0.9067383
vt 0.918457 0.9003906
vt 0.918457 0.8964844
vt 0.9165039 0.8964844
vt 0.9165039 0.9003906
vt 0.9150391 0.9003906
vt 0.9165039 0.9003906
vt 0.9165039 0.8964844
vt 0.9145508 0.8964844
vt 0.8920898 0.9106445
vt 0.8925781 0.9067383
vt 0.8945313 0.9067383
vt 0.8945313 0.9106445
vt 0.8945313 0.9106445
vt 0.8945313 0.9067383
vt 0.8959961 0.9067383
vt 0.8964844 0.9106445
vt 0.8896484 0.9003906
vt 0.8891602 0.8964844
vt 0.8911133 0.8964844
vt 0.8911133 0.9003906
vt 0.8891602 0.9106445
vt 0.8896484 0.9067383
vt 0.8911133 0.9067383
vt 0.8911133 0.9106445
vt 0.8945313 0.9003906
vt 0.8945313 0.9067383
vt 0.8925781 0.9067383
vt 0.8925781 0.9003906
vt 0.890625 0.9106445
vt 0.8911133 0.9067383
vt 0.8896484 0.9067383
vt 0.8891602 0.9106445
vt 0.902832 0.9003906
vt 0.902832 0.8964844
vt 0.90625 0.8964844
vt 0.9057617 0.9003906
vt 0.902832 0.9067383
vt 0.9057617 0.9067383
vt 0.9023438 0.9106445
vt 0.902832 0.9067383
vt 0.902832 0.9067383
vt 0.902832 0.9106445
vt 0.902832 0.9106445
vt 0.902832 0.9067383
vt 0.9057617 0.9067383
vt 0.90625 0.9106445
vt 0.9125977 0.9106445
vt 0.9125977 0.9067383
vt 0.9140625 0.9067383
vt 0.9145508 0.9106445
vt 0.9121094 0.9003906
vt 0.9121094 0.9067383
vt 0.9140625 0.9067383
vt 0.9140625 0.9003906
vt 0.9125977 0.9003906
vt 0.9125977 0.8964844
vt 0.9140625 0.8964844
vt 0.9140625 0.9003906
vt 0.9169922 0.9003906
vt 0.9169922 0.9067383
vt 0.9150391 0.9067383
vt 0.9150391 0.9003906
vt 0.918457 0.9003906
vt 0.918457 0.9067383
vt 0.9169922 0.9067383
vt 0.9169922 0.9003906
vt 0.9145508 0.9106445
vt 0.9140625 0.9067383
vt 0.9121094 0.9067383
vt 0.9121094 0.9106445
vt 0.9145508 0.9106445
vt 0.9150391 0.9067383
vt 0.9169922 0.9067383
vt 0.9169922 0.9106445
vt 0.9121094 0.9003906
vt 0.9106445 0.9003906
vt 0.9106445 0.9067383
vt 0.9121094 0.9067383
vt 0.8925781 0.9003906
vt 0.8911133 0.9003906
vt 0.8911133 0.9067383
vt 0.8925781 0.9067383
vt 0.8911133 0.9003906
vt 0.890625 0.8964844
vt 0.8891602 0.8964844
vt 0.8896484 0.9003906
vt 0.8554688 0.9072266
vt 0.8491211 0.9072266
vt 0.8500977 0.9072266
vt 0.8510742 0.9072266
vt 0.8608398 0.9072266
vt 0.8549805 0.9072266
vt 0.8896484 0.9003906
vt 0.8896484 0.9067383
vt 0.8911133 0.9067383
vt 0.8911133 0.9003906
vt 0.902832 0.9003906
vt 0.902832 0.9067383
vt 0.902832 0.9067383
vt 0.902832 0.9003906
vt 0.9150391 0.9003906
vt 0.9145508 0.8964844
vt 0.9169922 0.8964844
vt 0.9169922 0.9003906
vt 0.894043 0.9106445
vt 0.894043 0.9067383
vt 0.8925781 0.9067383
vt 0.8920898 0.9106445
vt 0.8354492 0.9072266
vt 0.847168 0.9072266
vt 0.8398438 0.9072266
vt 0.8447266 0.9072266
vt 0.8500977 0.9072266
vt 0.8491211 0.9072266
vt 0.8925781 0.9067383
vt 0.8911133 0.9067383
vt 0.8911133 0.9003906
vt 0.8925781 0.9003906
vt 0.9057617 0.9067383
vt 0.9057617 0.9003906
vt 0.9057617 0.9003906
vt 0.9057617 0.9067383
vt 0.8354492 0.8974609
vt 0.8354492 0.8969727
vt 0.8447266 0.8974609
vt 0.8447266 0.8979492
vt 0.8500977 0.8974609
vt 0.8447266 0.9072266
vt 0.8354492 0.9072266
vt 0.8500977 0.8979492
vt 0.8500977 0.9072266
vt 0.8554688 0.8974609
vt 0.8554688 0.9072266
vt 0.8554688 0.8979492
vt 0.8608398 0.8974609
vt 0.8608398 0.9072266
vt 0.8608398 0.8979492
vt 0.8354492 0.8974609
vt 0.8354492 0.9072266
vt 0.8398438 0.9072266
vt 0.8398438 0.8974609
vt 0.8354492 0.8969727
vt 0.8398438 0.8969727
vt 0.847168 0.8979492
vt 0.847168 0.8974609
vt 0.847168 0.9072266
vt 0.8398438 0.9072266
vt 0.8491211 0.9072266
vt 0.8491211 0.8979492
vt 0.8491211 0.8974609
vt 0.8510742 0.9072266
vt 0.8510742 0.8974609
vt 0.8510742 0.8979492
vt 0.8549805 0.9072266
vt 0.8549805 0.8979492
vt 0.8549805 0.8974609
vt 0.8608398 0.8974609
vt 0.8608398 0.8979492
vt 0.8549805 0.9072266
vt 0.8608398 0.9072266
vt 0.8588867 0.9169922
vt 0.8574219 0.9169922
vt 0.859375 0.9169922
vt 0.8618164 0.9169922
vt 0.859375 0.9174805
vt 0.862793 0.9174805
vt 0.8959961 0.9067383
vt 0.8959961 0.9003906
vt 0.894043 0.9003906
vt 0.894043 0.9067383
vt 0.9140625 0.9003906
vt 0.9140625 0.9067383
vt 0.9125977 0.9067383
vt 0.9125977 0.9003906
vt 0.894043 0.9067383
vt 0.894043 0.9003906
vt 0.8925781 0.9003906
vt 0.8925781 0.9067383
vt 0.9169922 0.9003906
vt 0.9169922 0.8964844
vt 0.918457 0.8964844
vt 0.918457 0.9003906
vt 0.8481445 0.9179688
vt 0.8500977 0.9038086
vt 0.8476563 0.902832
vt 0.8505859 0.9174805
vt 0.8535156 0.9169922
vt 0.8535156 0.9033203
vt 0.8574219 0.9169922
vt 0.8569336 0.9033203
vt 0.8588867 0.9169922
vt 0.8583984 0.9033203
vt 0.859375 0.9174805
vt 0.859375 0.902832
vt 0.859375 0.9169922
vt 0.8574219 0.9169922
vt 0.8535156 0.9169922
vt 0.8530273 0.9174805
vt 0.902832 0.9003906
vt 0.902832 0.8964844
vt 0.902832 0.8964844
vt 0.902832 0.9003906
vt 0.8481445 0.9179688
vt 0.8476563 0.902832
vt 0.8432617 0.902832
vt 0.84375 0.918457
vt 0.862793 0.9174805
vt 0.862793 0.902832
vt 0.859375 0.902832
vt 0.859375 0.9174805
vt 0.8925781 0.9003906
vt 0.8925781 0.8964844
vt 0.8945313 0.8964844
vt 0.8945313 0.9003906
vt 0.9140625 0.9003906
vt 0.9140625 0.8964844
vt 0.9121094 0.8964844
vt 0.9121094 0.9003906
vt 0.9106445 0.9003906
vt 0.9125977 0.9003906
vt 0.9125977 0.9067383
vt 0.9106445 0.9067383
vt 0.8945313 0.9160156
vt 0.8959961 0.9160156
vt 0.8959961 0.9077148
vt 0.8950195 0.9077148
vt 0.8945313 0.8994141
vt 0.8959961 0.8994141
vt 0.90625 0.9160156
vt 0.9033203 0.9160156
vt 0.9033203 0.9077148
vt 0.90625 0.9077148
vt 0.90625 0.8994141
vt 0.9033203 0.8994141
vt 0.9033203 0.9160156
vt 0.9033203 0.9077148
vt 0.9033203 0.9160156
vt 0.9033203 0.9077148
vt 0.9033203 0.8994141
vt 0.9033203 0.8994141
vt 0.9116211 0.9077148
vt 0.9111328 0.8994141
vt 0.9125977 0.8994141
vt 0.9130859 0.9077148
vt 0.9125977 0.9160156
vt 0.9111328 0.9160156
vt 0.8964844 0.9160156
vt 0.8945313 0.9160156
vt 0.8950195 0.9077148
vt 0.8964844 0.9077148
vt 0.8945313 0.8994141
vt 0.8964844 0.8994141
vt 0.90625 0.9160156
vt 0.90625 0.9160156
vt 0.90625 0.9077148
vt 0.90625 0.9077148
vt 0.90625 0.8994141
vt 0.90625 0.8994141
vt 0.8979492 0.9160156
vt 0.8964844 0.9160156
vt 0.8964844 0.9077148
vt 0.8974609 0.9077148
vt 0.8964844 0.8994141
vt 0.8979492 0.8994141
vt 0.9150391 0.9160156
vt 0.9130859 0.9077148
vt 0.9130859 0.9160156
vt 0.9145508 0.9077148
vt 0.9130859 0.8994141
vt 0.9150391 0.8994141
vt 0.9033203 0.9160156
vt 0.90625 0.9160156
vt 0.90625 0.9077148
vt 0.9033203 0.9077148
vt 0.9033203 0.8994141
vt 0.90625 0.8994141
vt 0.8979492 0.9160156
vt 0.8959961 0.9077148
vt 0.8959961 0.9160156
vt 0.8974609 0.9077148
vt 0.8959961 0.8994141
vt 0.8979492 0.8994141
vt 0.9125977 0.8994141
vt 0.9150391 0.8994141
vt 0.9145508 0.9077148
vt 0.9130859 0.9077148
vt 0.9150391 0.9160156
vt 0.9125977 0.9160156
vt 0.9130859 0.9077148
vt 0.9111328 0.9160156
vt 0.9130859 0.9160156
vt 0.9116211 0.9077148
vt 0.9111328 0.8994141
vt 0.9130859 0.8994141
vn 0.5922852 0 0.8056641
vn 0.5922852 0 0.8056641
vn 0.5922852 0 0.8056641
vn 0.5922852 0 0.8056641
vn 0.7973633 -0.1425781 -0.5859375
vn 0.7973633 -0.1425781 -0.5859375
vn 0.7973633 -0.1425781 -0.5859375
vn 0.7973633 -0.1425781 -0.5859375
vn -0.7949219 -0.163208 0.5844727
vn -0.7949219 -0.163208 0.5844727
vn -0.7949219 -0.163208 0.5844727
vn -0.7949219 -0.163208 0.5844727
vn 0.5864258 -0.1401367 0.7978516
vn 0.5864258 -0.1401367 0.7978516
vn 0.5864258 -0.1401367 0.7978516
vn 0.5864258 -0.1401367 0.7978516
vn -0.05633545 -0.1783447 0.9824219
vn -0.05633545 -0.1783447 0.9824219
vn -0.05633545 -0.1783447 0.9824219
vn -0.05633545 -0.1783447 0.9824219
vn -0.7963867 -0.1512451 0.5854492
vn -0.7963867 -0.1512451 0.5854492
vn -0.7963867 -0.1512451 0.5854492
vn -0.7963867 -0.1512451 0.5854492
vn -0.9912109 -0.1309814 -0.02056885
vn -0.9912109 -0.1309814 -0.02056885
vn -0.9912109 -0.1309814 -0.02056885
vn -0.9912109 -0.1309814 -0.02056885
vn 0.5898438 0.08789063 0.8027344
vn 0.5898438 0.08789063 0.8027344
vn 0.5898438 0.08789063 0.8027344
vn 0.5898438 0.08789063 0.8027344
vn -0.5869141 -0.1356201 -0.7983398
vn -0.5869141 -0.1356201 -0.7983398
vn -0.5869141 -0.1356201 -0.7983398
vn -0.5869141 -0.1356201 -0.7983398
vn -0.5854492 -0.15271 -0.7963867
vn -0.5854492 -0.15271 -0.7963867
vn -0.5854492 -0.15271 -0.7963867
vn -0.5854492 -0.15271 -0.7963867
vn -0.8022461 0.09490967 0.5893555
vn -0.8022461 0.09490967 0.5893555
vn -0.8022461 0.09490967 0.5893555
vn -0.8022461 0.09490967 0.5893555
vn -0.5898438 0.08789063 -0.8027344
vn -0.5898438 0.08789063 -0.8027344
vn -0.5898438 0.08789063 -0.8027344
vn -0.5898438 0.08789063 -0.8027344
vn 0.8056641 0 -0.5922852
vn 0.8056641 0 -0.5922852
vn 0.8056641 0 -0.5922852
vn 0.8056641 0 -0.5922852
vn 0.5898438 0.08728027 0.8027344
vn 0.5898438 0.08728027 0.8027344
vn 0.5898438 0.08728027 0.8027344
vn 0.5898438 0.08728027 0.8027344
vn -0.8022461 0.09423828 0.5893555
vn -0.8022461 0.09423828 0.5893555
vn -0.8022461 0.09423828 0.5893555
vn -0.8022461 0.09423828 0.5893555
vn 0.8027344 0.0880127 -0.5898438
vn 0.8027344 0.0880127 -0.5898438
vn 0.8027344 0.0880127 -0.5898438
vn 0.8027344 0.0880127 -0.5898438
vn -0.590332 0.08361816 -0.8032227
vn -0.590332 0.08361816 -0.8032227
vn -0.590332 0.08361816 -0.8032227
vn -0.590332 0.08361816 -0.8032227
vn -0.7954102 -0.1606445 0.5844727
vn -0.7954102 -0.1606445 0.5844727
vn -0.7954102 -0.1606445 0.5844727
vn -0.7954102 -0.1606445 0.5844727
vn -0.8056641 0 0.5922852
vn -0.8056641 0 0.5922852
vn -0.8056641 0 0.5922852
vn -0.8056641 0 0.5922852
vn 0.5854492 -0.15271 0.7963867
vn 0.5854492 -0.15271 0.7963867
vn 0.5854492 -0.15271 0.7963867
vn 0.5854492 -0.15271 0.7963867
vn -0.9985352 0.04629517 -0.02072144
vn -0.9985352 0.04629517 -0.02072144
vn -0.9985352 0.04629517 -0.02072144
vn -0.9985352 0.04629517 -0.02072144
vn -1 0 -0.02075195
vn -1 0 -0.02075195
vn -0.05712891 0.06347656 0.996582
vn -0.05712891 0.06347656 0.996582
vn -0.05712891 0.06347656 0.996582
vn -0.05712891 0.06347656 0.996582
vn 0.006088257 1 -0.005821228
vn 0.003154755 1 -0.003013611
vn 0.006088257 1 -0.005821228
vn 0.003007889 1 -0.002874374
vn 0 1 0
vn 0 1 0
vn 0 1 0
vn 0.002696991 1 0.00369072
vn 0.002477646 1 0.003393173
vn 0.005146027 1 0.007045746
vn 0.005146027 1 0.007045746
vn 0.005146027 1 0.007045746
vn 0.005146027 1 0.007045746
vn 0.003078461 -1 -0.002941132
vn 0.005943298 -1 -0.005680084
vn 0.005943298 -1 -0.005680084
vn 0.00293541 -1 -0.00280571
vn 0 -1 0
vn 0 -1 0
vn 0.6674805 -0.0004277229 0.7446289
vn 0.6674805 -0.0004277229 0.7446289
vn 0.8095703 -0.0002192259 0.5869141
vn 0.8095703 -0.0002192259 0.5869141
vn 0.9882813 0 0.151123
vn 0.9882813 0 0.151123
vn 0.9536133 0 -0.3017578
vn 0.9536133 0 -0.3017578
vn 0.875 -0.0003061295 -0.484375
vn 0.875 -0.000305891 -0.484375
vn 0.8735352 -0.0006065369 -0.4865723
vn 0.8735352 -0.0006065369 -0.4865723
vn -0.5922852 0 -0.8056641
vn -0.5922852 0 -0.8056641
vn -0.5922852 0 -0.8056641
vn -0.5922852 0 -0.8056641
vn -0.8027344 0.08752441 0.5898438
vn -0.8027344 0.08752441 0.5898438
vn -0.8027344 0.08752441 0.5898438
vn -0.8027344 0.08752441 0.5898438
vn -0.590332 0.08319092 -0.8032227
vn -0.590332 0.08319092 -0.8032227
vn -0.590332 0.08319092 -0.8032227
vn -0.590332 0.08319092 -0.8032227
vn 0.7949219 -0.163208 -0.5844727
vn 0.7949219 -0.163208 -0.5844727
vn 0.7949219 -0.163208 -0.5844727
vn 0.7949219 -0.163208 -0.5844727
vn 0.5854492 -0.1512451 0.7963867
vn 0.5854492 -0.1512451 0.7963867
vn 0.5854492 -0.1512451 0.7963867
vn 0.5854492 -0.1512451 0.7963867
vn 0.8022461 0.09423828 -0.5893555
vn 0.8022461 0.09423828 -0.5893555
vn 0.8022461 0.09423828 -0.5893555
vn 0.8022461 0.09423828 -0.5893555
vn 0.7963867 -0.1512451 -0.5854492
vn 0.7963867 -0.1512451 -0.5854492
vn 0.7963867 -0.1512451 -0.5854492
vn 0.7963867 -0.1512451 -0.5854492
vn 0.8056641 0 -0.5922852
vn 0.8056641 0 -0.5922852
vn 0.8056641 0 -0.5922852
vn 0.8056641 0 -0.5922852
vn -0.5864258 -0.1401367 -0.7978516
vn -0.5864258 -0.1401367 -0.7978516
vn -0.5864258 -0.1401367 -0.7978516
vn -0.5864258 -0.1401367 -0.7978516
vn 0.9975586 0.04559326 0.05477905
vn 0.9975586 0.04559326 0.05477905
vn 0.9975586 0.04559326 0.05477905
vn 0.9975586 0.04559326 0.05477905
vn 0.9985352 0 0.05480957
vn 0.9985352 0 0.05480957
vn 0.05044556 -0.1728516 -0.9838867
vn 0.05044556 -0.1728516 -0.9838867
vn 0.05044556 -0.1728516 -0.9838867
vn 0.05044556 -0.1728516 -0.9838867
vn 0.9902344 -0.1290283 0.05435181
vn 0.9902344 -0.1290283 0.05435181
vn 0.9902344 -0.1290283 0.05435181
vn 0.9902344 -0.1290283 0.05435181
vn 0.5869141 -0.1356201 0.7983398
vn 0.5869141 -0.1356201 0.7983398
vn 0.5869141 -0.1356201 0.7983398
vn 0.5869141 -0.1356201 0.7983398
vn -0.8056641 0 0.5922852
vn -0.8056641 0 0.5922852
vn -0.8056641 0 0.5922852
vn -0.8056641 0 0.5922852
vn 0.590332 0.08361816 0.8032227
vn 0.590332 0.08361816 0.8032227
vn 0.590332 0.08361816 0.8032227
vn 0.590332 0.08361816 0.8032227
vn 0.8056641 0 -0.5922852
vn 0.8056641 0 -0.5922852
vn 0.8056641 0 -0.5922852
vn 0.8056641 0 -0.5922852
vn 0.5922852 0 0.8056641
vn 0.5922852 0 0.8056641
vn 0.5922852 0 0.8056641
vn 0.5922852 0 0.8056641
vn -0.7973633 -0.1425781 0.5859375
vn -0.7973633 -0.1425781 0.5859375
vn -0.7973633 -0.1425781 0.5859375
vn -0.7973633 -0.1425781 0.5859375
vn 0.7954102 -0.1606445 -0.5844727
vn 0.7954102 -0.1606445 -0.5844727
vn 0.7954102 -0.1606445 -0.5844727
vn 0.7954102 -0.1606445 -0.5844727
vn -0.5922852 0 -0.8056641
vn -0.5922852 0 -0.8056641
vn -0.5922852 0 -0.8056641
vn -0.5922852 0 -0.8056641
vn -0.8056641 0 0.5922852
vn -0.8056641 0 0.5922852
vn -0.8056641 0 0.5922852
vn -0.8056641 0 0.5922852
vn -0.5898438 0.08728027 -0.8027344
vn -0.5898438 0.08728027 -0.8027344
vn -0.5898438 0.08728027 -0.8027344
vn -0.5898438 0.08728027 -0.8027344
vn -0.0005021095 1 0.0004816055
vn 0 1 0
vn 0 1 0
vn -0.0004916191 1 0.0004718304
vn -0.0009889603 1 0.0009489059
vn -0.0009889603 1 0.0009489059
vn -0.5922852 0 -0.8056641
vn -0.5922852 0 -0.8056641
vn -0.5922852 0 -0.8056641
vn -0.5922852 0 -0.8056641
vn 0.05123901 0 -0.9985352
vn 0.05123901 0 -0.9985352
vn 0.05123901 0 -0.9985352
vn 0.05123901 0 -0.9985352
vn 0.8027344 0.08752441 -0.5898438
vn 0.8027344 0.08752441 -0.5898438
vn 0.8027344 0.08752441 -0.5898438
vn 0.8027344 0.08752441 -0.5898438
vn -0.5854492 -0.1512451 -0.7963867
vn -0.5854492 -0.1512451 -0.7963867
vn -0.5854492 -0.1512451 -0.7963867
vn -0.5854492 -0.1512451 -0.7963867
vn 0.002494812 1 0.004570007
vn 0.001247406 1 0.002283096
vn 0.002494812 1 0.004570007
vn 0.001267433 1 0.002321243
vn 0 1 0
vn 0 1 0
vn 0.5922852 0 0.8056641
vn 0.5922852 0 0.8056641
vn 0.5922852 0 0.8056641
vn 0.5922852 0 0.8056641
vn -0.05725098 0 0.9985352
vn -0.05725098 0 0.9985352
vn -0.05725098 0 0.9985352
vn -0.05725098 0 0.9985352
vn 0.144043 -0.3139648 -0.9384766
vn 0.08868408 -0.668457 -0.7382813
vn 0.703125 -0.659668 -0.2651367
vn 0.887207 -0.3217773 -0.3308105
vn 0.6958008 -0.7099609 0.1063843
vn 0.9384766 0.02392578 -0.3442383
vn 0.8295898 0.01824951 -0.5581055
vn 0.9257813 -0.3503418 0.1414795
vn 0.9882813 0.02923584 0.151001
vn 0.5917969 -0.6572266 0.4667969
vn 0.7924805 0.02432251 0.609375
vn 0.7470703 -0.3205566 0.5825195
vn -0.1345215 -0.6606445 0.7382813
vn 0.6235352 0.01898193 0.7817383
vn -0.1472168 -0.3085938 0.9399414
vn 0.144043 -0.3139648 -0.9384766
vn -0.5922852 0.009132385 -0.8056641
vn -0.5922852 0.009132385 -0.8056641
vn -0.9370117 -0.3105469 -0.1607666
vn 0.08868408 -0.668457 -0.7382813
vn -0.7314453 -0.6635742 -0.1573486
vn -0.8647461 -0.3657227 0.34375
vn -0.6914063 -0.6650391 0.2827148
vn -0.9316406 0.02410889 0.3625488
vn -0.8071289 0.01838684 0.5898438
vn -0.9882813 0.02923584 -0.151001
vn -0.9077148 -0.395752 -0.1386719
vn -0.6958008 -0.7099609 -0.1063843
vn -0.7866211 0.02450562 -0.6166992
vn -0.5834961 -0.6606445 -0.4724121
vn -0.7299805 -0.362793 -0.5795898
vn -0.6088867 0.01922607 -0.7929688
vn -0.9453125 -0.3049316 -0.116272
vn -0.7553711 -0.6523438 -0.06530762
vn -0.1345215 -0.6606445 0.7382813
vn -0.1472168 -0.3085938 0.9399414
vn -0.8056641 0.009757996 0.5922852
vn -0.8056641 0.009757996 0.5922852
vn 0.00761795 -1 0.01039886
vn 0 -1 3.528595E-05
vn 0 -1 3.838539E-05
vn 0.008262634 -1 0.01127625
vn 0.01525879 -0.9995117 0.02078247
vn 0.01525879 -0.9995117 0.02078247
vn -0.8056641 0 0.5922852
vn -0.8056641 0 0.5922852
vn -0.8056641 0 0.5922852
vn -0.8056641 0 0.5922852
vn 0.5922852 0 0.8056641
vn 0.5922852 0 0.8056641
vn 0.5922852 0 0.8056641
vn 0.5922852 0 0.8056641
vn -0.5922852 0 -0.8056641
vn -0.5922852 0 -0.8056641
vn -0.5922852 0 -0.8056641
vn -0.5922852 0 -0.8056641
vn 0.590332 0.08319092 0.8032227
vn 0.590332 0.08319092 0.8032227
vn 0.590332 0.08319092 0.8032227
vn 0.590332 0.08319092 0.8032227
vn -0.6269531 4.094839E-05 -0.7792969
vn -0.793457 2.133846E-05 -0.6083984
vn -0.6269531 4.094839E-05 -0.7792969
vn -0.793457 2.133846E-05 -0.6083984
vn -0.9882813 0 -0.151123
vn -0.9882813 0 -0.151123
vn -0.9536133 0 0.3017578
vn -0.9536133 0 0.3017578
vn -0.8066406 -0.0007810593 0.5908203
vn -0.8066406 -0.0007815361 0.5908203
vn -0.7250977 -0.001536369 0.6884766
vn -0.7250977 -0.001536369 0.6884766
vn 0 -1 3.838539E-05
vn 0 -1 3.528595E-05
vn 0 -1 0
vn 0 -1 0
vn 0.05114746 0.0614624 -0.996582
vn 0.05114746 0.0614624 -0.996582
vn 0.05114746 0.0614624 -0.996582
vn 0.05114746 0.0614624 -0.996582
vn -0.8056641 -0.0008826256 0.5922852
vn -0.8056641 -0.0008826256 0.5922852
vn -0.8056641 -0.0008826256 0.5922852
vn -0.8056641 -0.0008826256 0.5922852
vn -0.5922852 -0.002880096 -0.8056641
vn -0.5922852 -0.002880096 -0.8056641
vn -0.5922852 -0.002880096 -0.8056641
vn -0.5922852 -0.002880096 -0.8056641
vn 0.8022461 0.09490967 -0.5893555
vn 0.8022461 0.09490967 -0.5893555
vn 0.8022461 0.09490967 -0.5893555
vn 0.8022461 0.09490967 -0.5893555
vn -0.8027344 0.0880127 0.5898438
vn -0.8027344 0.0880127 0.5898438
vn -0.8027344 0.0880127 0.5898438
vn -0.8027344 0.0880127 0.5898438
vn 0.8056641 0 -0.5922852
vn 0.8056641 0 -0.5922852
vn 0.8056641 0 -0.5922852
vn 0.8056641 0 -0.5922852
vn -0.5908203 -0.0635376 -0.8041992
vn -0.5908203 -0.0635376 -0.8041992
vn -0.5922852 0 -0.8056641
vn -0.5922852 0 -0.8056641
vn -0.5908203 0.0635376 -0.8041992
vn -0.5908203 0.0635376 -0.8041992
vn 0.9960938 -0.07171631 0.0546875
vn 0.9960938 -0.07171631 0.0546875
vn 0.9985352 -0.0001060963 0.05480957
vn 0.9985352 -0.0001062751 0.05480957
vn 0.9960938 0.0715332 0.0546875
vn 0.9960938 0.0715332 0.0546875
vn 0.05099487 -0.09655762 -0.9941406
vn 0.05123901 -0.000140667 -0.9985352
vn 0.05099487 -0.09655762 -0.9941406
vn 0.05123901 -0.0001409054 -0.9985352
vn 0.05099487 0.09631348 -0.9941406
vn 0.05099487 0.09631348 -0.9941406
vn 0.625 0 -0.7807617
vn 0.6240234 0.0617981 -0.7792969
vn 0.6240234 0.0617981 -0.7792969
vn 0.625 0 -0.7807617
vn 0.6240234 -0.0617981 -0.7792969
vn 0.6240234 -0.0617981 -0.7792969
vn 0.8793945 -0.08459473 -0.46875
vn 0.8793945 -0.08459473 -0.46875
vn 0.8823242 0 -0.470459
vn 0.8823242 0 -0.470459
vn 0.8793945 0.08459473 -0.46875
vn 0.8793945 0.08459473 -0.46875
vn -0.05697632 -0.09973145 0.9931641
vn -0.05697632 -0.09973145 0.9931641
vn -0.05725098 -0.0001451969 0.9985352
vn -0.05725098 -0.0001451969 0.9985352
vn -0.05697632 0.09942627 0.9936523
vn -0.05697632 0.09942627 0.9936523
vn 0.5683594 -0.06140137 0.8208008
vn 0.5683594 -0.06140137 0.8208008
vn 0.5693359 0 0.8222656
vn 0.5693359 0 0.8222656
vn 0.5683594 0.06140137 0.8208008
vn 0.5683594 0.06140137 0.8208008
vn -0.8032227 -0.07714844 0.590332
vn -0.8056641 0 0.5922852
vn -0.8032227 -0.07714844 0.590332
vn -0.8056641 0 0.5922852
vn -0.8032227 0.07714844 0.590332
vn -0.8032227 0.07714844 0.590332
vn -0.9970703 -0.07281494 -0.02069092
vn -0.9970703 -0.07281494 -0.02069092
vn -1 -0.0001077056 -0.02075195
vn -1 -0.000107646 -0.02075195
vn -0.9970703 0.07263184 -0.02069092
vn -0.9970703 0.07263184 -0.02069092
vn -0.9116211 -0.07977295 0.4025879
vn -0.9145508 0 0.4040527
vn -0.9116211 -0.07977295 0.4025879
vn -0.9145508 0 0.4040527
vn -0.9116211 0.07977295 0.4025879
vn -0.9116211 0.07977295 0.4025879
vn 0.7158203 0.0614624 0.6953125
vn 0.7158203 0.0614624 0.6953125
vn 0.7172852 0 0.6967773
vn 0.7172852 0 0.6967773
vn 0.7158203 -0.0614624 0.6953125
vn 0.7158203 -0.0614624 0.6953125
vn -0.7241211 0 -0.6899414
vn -0.722168 -0.06640625 -0.6884766
vn -0.722168 -0.06640625 -0.6884766
vn -0.7241211 0 -0.6899414
vn -0.722168 0.06640625 -0.6884766
vn -0.722168 0.06640625 -0.6884766
g Shader_0
f 3/3/3 2/2/2 1/1/1
f 4/4/4 3/3/3 1/1/1
f 7/7/7 6/6/6 5/5/5
f 8/8/8 7/7/7 5/5/5
f 11/11/11 10/10/10 9/9/9
f 12/12/12 11/11/11 9/9/9
f 15/15/15 14/14/14 13/13/13
f 16/16/16 15/15/15 13/13/13
f 19/19/19 18/18/18 17/17/17
f 20/20/20 19/19/19 17/17/17
f 23/23/23 22/22/22 21/21/21
f 24/24/24 23/23/23 21/21/21
f 27/27/27 26/26/26 25/25/25
f 28/28/28 27/27/27 25/25/25
f 31/31/31 30/30/30 29/29/29
f 32/32/32 31/31/31 29/29/29
f 35/35/35 34/34/34 33/33/33
f 36/36/36 35/35/35 33/33/33
f 39/39/39 38/38/38 37/37/37
f 40/40/40 39/39/39 37/37/37
f 43/43/43 42/42/42 41/41/41
f 44/44/44 43/43/43 41/41/41
f 47/47/47 46/46/46 45/45/45
f 48/48/48 47/47/47 45/45/45
f 51/51/51 50/50/50 49/49/49
f 52/52/52 51/51/51 49/49/49
f 55/55/55 54/54/54 53/53/53
f 56/56/56 55/55/55 53/53/53
f 59/59/59 58/58/58 57/57/57
f 60/60/60 59/59/59 57/57/57
f 63/63/63 62/62/62 61/61/61
f 64/64/64 63/63/63 61/61/61
f 67/67/67 66/66/66 65/65/65
f 68/68/68 67/67/67 65/65/65
f 71/71/71 70/70/70 69/69/69
f 72/72/72 71/71/71 69/69/69
f 75/75/75 74/74/74 73/73/73
f 76/76/76 75/75/75 73/73/73
f 79/79/79 78/78/78 77/77/77
f 80/80/80 79/79/79 77/77/77
f 83/83/83 82/82/82 81/81/81
f 82/82/82 84/84/84 81/81/81
f 85/85/85 81/81/81 84/84/84
f 86/86/86 85/85/85 84/84/84
f 89/89/89 88/88/88 87/87/87
f 90/90/90 89/89/89 87/87/87
f 93/93/93 92/92/92 91/91/91
f 92/92/92 94/94/94 91/91/91
f 94/94/94 92/92/92 95/95/95
f 96/96/96 94/94/94 95/95/95
f 95/95/95 98/98/98 97/97/97
f 98/98/98 99/99/99 97/97/97
f 100/100/100 99/99/99 98/98/98
f 101/101/101 100/100/100 98/98/98
f 101/101/101 98/98/98 102/102/102
f 102/102/102 103/103/103 101/101/101
f 106/106/106 105/105/105 104/104/104
f 105/105/105 107/107/107 104/104/104
f 108/108/108 104/104/104 107/107/107
f 109/109/109 108/108/108 107/107/107
f 112/112/112 111/111/111 110/110/110
f 113/113/113 112/112/112 110/110/110
f 114/114/114 112/112/112 113/113/113
f 115/115/115 114/114/114 113/113/113
f 114/114/114 115/115/115 116/116/116
f 117/117/117 114/114/114 116/116/116
f 118/118/118 117/117/117 116/116/116
f 119/119/119 118/118/118 116/116/116
f 120/120/120 118/118/118 119/119/119
f 121/121/121 120/120/120 119/119/119
f 124/124/124 123/123/123 122/122/122
f 125/125/125 124/124/124 122/122/122
f 128/128/128 127/127/127 126/126/126
f 129/129/129 128/128/128 126/126/126
f 132/132/132 131/131/131 130/130/130
f 133/133/133 132/132/132 130/130/130
f 136/136/136 135/135/135 134/134/134
f 137/137/137 136/136/136 134/134/134
f 140/140/140 139/139/139 138/138/138
f 141/141/141 140/140/140 138/138/138
f 144/144/144 143/143/143 142/142/142
f 145/145/145 144/144/144 142/142/142
f 148/148/148 147/147/147 146/146/146
f 149/149/149 148/148/148 146/146/146
f 152/152/152 151/151/151 150/150/150
f 153/153/153 152/152/152 150/150/150
f 156/156/156 155/155/155 154/154/154
f 157/157/157 156/156/156 154/154/154
f 160/160/160 159/159/159 158/158/158
f 161/161/161 160/160/160 158/158/158
f 158/158/158 162/162/162 161/161/161
f 162/162/162 163/163/163 161/161/161
f 166/166/166 165/165/165 164/164/164
f 167/167/167 166/166/166 164/164/164
f 170/170/170 169/169/169 168/168/168
f 171/171/171 170/170/170 168/168/168
f 174/174/174 173/173/173 172/172/172
f 175/175/175 174/174/174 172/172/172
f 178/178/178 177/177/177 176/176/176
f 179/179/179 178/178/178 176/176/176
f 182/182/182 181/181/181 180/180/180
f 183/183/183 182/182/182 180/180/180
f 186/186/186 185/185/185 184/184/184
f 187/187/187 186/186/186 184/184/184
f 190/190/190 189/189/189 188/188/188
f 191/191/191 190/190/190 188/188/188
f 194/194/194 193/193/193 192/192/192
f 195/195/195 194/194/194 192/192/192
f 198/198/198 197/197/197 196/196/196
f 199/199/199 198/198/198 196/196/196
f 202/202/202 201/201/201 200/200/200
f 203/203/203 202/202/202 200/200/200
f 206/206/206 205/205/205 204/204/204
f 207/207/207 206/206/206 204/204/204
f 210/210/210 209/209/209 208/208/208
f 211/211/211 210/210/210 208/208/208
f 214/214/214 213/213/213 212/212/212
f 213/213/213 215/215/215 212/212/212
f 216/216/216 212/212/212 215/215/215
f 217/217/217 216/216/216 215/215/215
f 220/220/220 219/219/219 218/218/218
f 221/221/221 220/220/220 218/218/218
f 224/224/224 223/223/223 222/222/222
f 225/225/225 224/224/224 222/222/222
f 228/228/228 227/227/227 226/226/226
f 229/229/229 228/228/228 226/226/226
f 232/232/232 231/231/231 230/230/230
f 233/233/233 232/232/232 230/230/230
f 236/236/236 235/235/235 234/234/234
f 235/235/235 237/237/237 234/234/234
f 237/237/237 235/235/235 238/238/238
f 235/235/235 239/239/239 238/238/238
f 242/242/242 241/241/241 240/240/240
f 243/243/243 242/242/242 240/240/240
f 246/246/246 245/245/245 244/244/244
f 247/247/247 246/246/246 244/244/244
f 250/250/250 249/249/249 248/248/248
f 251/251/251 250/250/250 248/248/248
f 252/252/252 250/250/250 251/251/251
f 253/253/253 251/251/251 248/248/248
f 254/254/254 253/253/253 248/248/248
f 255/255/255 252/252/252 251/251/251
f 255/255/255 251/251/251 253/253/253
f 256/256/256 255/255/255 253/253/253
f 257/257/257 252/252/252 255/255/255
f 255/255/255 256/256/256 258/258/258
f 259/259/259 257/257/257 255/255/255
f 259/259/259 255/255/255 258/258/258
f 260/260/260 257/257/257 259/259/259
f 259/259/259 258/258/258 261/261/261
f 262/262/262 260/260/260 259/259/259
f 262/262/262 259/259/259 261/261/261
f 265/265/265 264/264/264 263/263/263
f 266/266/266 265/265/265 263/263/263
f 266/266/266 263/263/263 267/267/267
f 268/268/268 266/266/266 267/267/267
f 269/269/269 266/266/266 268/268/268
f 270/270/270 269/269/269 268/268/268
f 269/269/269 271/271/271 266/266/266
f 271/271/271 272/272/272 266/266/266
f 273/273/273 271/271/271 269/269/269
f 274/274/274 269/269/269 270/270/270
f 274/274/274 273/273/273 269/269/269
f 275/275/275 274/274/274 270/270/270
f 276/276/276 273/273/273 274/274/274
f 275/275/275 277/277/277 274/274/274
f 278/278/278 276/276/276 274/274/274
f 277/277/277 278/278/278 274/274/274
f 279/279/279 276/276/276 278/278/278
f 280/280/280 279/279/279 278/278/278
f 280/280/280 278/278/278 277/277/277
f 281/281/281 280/280/280 277/277/277
f 280/280/280 281/281/281 282/282/282
f 283/283/283 280/280/280 282/282/282
f 280/280/280 283/283/283 284/284/284
f 283/283/283 285/285/285 284/284/284
f 288/288/288 287/287/287 286/286/286
f 289/289/289 288/288/288 286/286/286
f 286/286/286 290/290/290 289/289/289
f 290/290/290 291/291/291 289/289/289
f 294/294/294 293/293/293 292/292/292
f 295/295/295 294/294/294 292/292/292
f 298/298/298 297/297/297 296/296/296
f 299/299/299 298/298/298 296/296/296
f 302/302/302 301/301/301 300/300/300
f 303/303/303 302/302/302 300/300/300
f 306/306/306 305/305/305 304/304/304
f 307/307/307 306/306/306 304/304/304
f 310/310/310 309/309/309 308/308/308
f 309/309/309 311/311/311 308/308/308
f 311/311/311 309/309/309 312/312/312
f 309/309/309 313/313/313 312/312/312
f 312/312/312 313/313/313 314/314/314
f 313/313/313 315/315/315 314/314/314
f 314/314/314 315/315/315 316/316/316
f 315/315/315 317/317/317 316/316/316
f 316/316/316 317/317/317 318/318/318
f 317/317/317 319/319/319 318/318/318
f 322/322/322 321/321/321 320/320/320
f 323/323/323 322/322/322 320/320/320
f 326/326/326 325/325/325 324/324/324
f 327/327/327 326/326/326 324/324/324
f 330/330/330 329/329/329 328/328/328
f 331/331/331 330/330/330 328/328/328
f 334/334/334 333/333/333 332/332/332
f 335/335/335 334/334/334 332/332/332
f 338/338/338 337/337/337 336/336/336
f 339/339/339 338/338/338 336/336/336
f 342/342/342 341/341/341 340/340/340
f 343/343/343 342/342/342 340/340/340
f 346/346/346 345/345/345 344/344/344
f 347/347/347 346/346/346 344/344/344
f 350/350/350 349/349/349 348/348/348
f 351/351/351 350/350/350 348/348/348
f 350/350/350 351/351/351 352/352/352
f 353/353/353 350/350/350 352/352/352
f 356/356/356 355/355/355 354/354/354
f 357/357/357 356/356/356 354/354/354
f 356/356/356 357/357/357 358/358/358
f 359/359/359 356/356/356 358/358/358
f 362/362/362 361/361/361 360/360/360
f 361/361/361 363/363/363 360/360/360
f 363/363/363 361/361/361 364/364/364
f 365/365/365 363/363/363 364/364/364
f 368/368/368 367/367/367 366/366/366
f 369/369/369 368/368/368 366/366/366
f 370/370/370 369/369/369 366/366/366
f 371/371/371 370/370/370 366/366/366
f 374/374/374 373/373/373 372/372/372
f 375/375/375 374/374/374 372/372/372
f 374/374/374 375/375/375 376/376/376
f 375/375/375 377/377/377 376/376/376
f 380/380/380 379/379/379 378/378/378
f 381/381/381 380/380/380 378/378/378
f 380/380/380 381/381/381 382/382/382
f 381/381/381 383/383/383 382/382/382
f 386/386/386 385/385/385 384/384/384
f 387/387/387 386/386/386 384/384/384
f 386/386/386 387/387/387 388/388/388
f 387/387/387 389/389/389 388/388/388
f 392/392/392 391/391/391 390/390/390
f 391/391/391 393/393/393 390/390/390
f 393/393/393 391/391/391 394/394/394
f 395/395/395 393/393/393 394/394/394
f 398/398/398 397/397/397 396/396/396
f 399/399/399 398/398/398 396/396/396
f 398/398/398 399/399/399 400/400/400
f 401/401/401 398/398/398 400/400/400
f 404/404/404 403/403/403 402/402/402
f 403/403/403 405/405/405 402/402/402
f 405/405/405 403/403/403 406/406/406
f 407/407/407 405/405/405 406/406/406
f 410/410/410 409/409/409 408/408/408
f 411/411/411 410/410/410 408/408/408
f 410/410/410 411/411/411 412/412/412
f 411/411/411 413/413/413 412/412/412
f 416/416/416 415/415/415 414/414/414
f 415/415/415 417/417/417 414/414/414
f 417/417/417 418/418/418 414/414/414
f 418/418/418 419/419/419 414/414/414
