g Shadow
v 0.2933941 -0.7226515 0
v 0.5605096 -0.7226515 0
v 0.5605096 0.7047613 0
v 0.2933941 0.7047613 0
v 0 -0.7226515 0
v 0 0.7047613 0
v -0.305532 -0.7226515 0
v -0.305532 0.7047613 0
v -0.5538313 -0.7226515 0
v -0.5538313 0.7047613 0
vt 0.6557617 0.1435547
vt 0.8481445 0.1435547
vt 0.8481445 0.8383789
vt 0.6557617 0.8383789
vt 0.5 0.1435547
vt 0.5 0.8383789
vt 0.3408203 0.1435547
vt 0.3408203 0.8383789
vt 0.1594238 0.1435547
vt 0.1594238 0.8383789
vn 0 0 -1
vn 0 0 -1
vn 0 0 -1
vn 0 0 -1
vn 0 0 -1
vn 0 0 -1
vn 0 0 -1
vn 0 0 -1
vn 0 0 -1
vn 0 0 -1
g Shadow_0
f 3/3/3 2/2/2 1/1/1
f 4/4/4 3/3/3 1/1/1
f 4/4/4 1/1/1 5/5/5
f 6/6/6 4/4/4 5/5/5
f 6/6/6 5/5/5 7/7/7
f 8/8/8 6/6/6 7/7/7
f 8/8/8 7/7/7 9/9/9
f 10/10/10 8/8/8 9/9/9
