g Shadow
v -10.91543 2.066604 -1.855319
v -11.38266 2.066604 -0.479262
v -11.38266 -1.962464E-07 -0.4792619
v -10.91543 -2.916139E-07 -1.855319
v -7.428393 -7.684511E-07 -8.210233
v -7.428393 2.066604 -8.210233
v -6.518706 2.066603 -9.343503
v -6.518706 -8.638185E-07 -9.343503
v -5.276278 2.066603 -10.0973
v -5.276278 -9.210389E-07 -10.0973
v -3.850965 2.066603 -10.3807
v -3.850965 -9.401124E-07 -10.3807
v 3.396075 -9.401124E-07 -10.53829
v 3.396075 2.066603 -10.53829
v 4.832357 2.066603 -10.31712
v 4.832357 -9.401124E-07 -10.31712
v 6.106378 2.066603 -9.61804
v 6.106378 -8.82892E-07 -9.61804
v 7.064469 2.066603 -8.525384
v 7.064469 -8.06598E-07 -8.525384
v 10.82446 -3.297608E-07 -2.328059
v 10.82446 2.066604 -2.328059
v 11.35106 2.066604 -0.9736128
v 11.35106 -2.343934E-07 -0.9736127
v -11.38266 -1.962464E-07 -0.4792619
v -11.38266 2.066604 -0.479262
v -11.35106 -8.180552E-08 0.9736103
v -11.35106 2.066604 0.9736102
v -10.82446 3.26354E-08 2.328058
v -10.82446 2.066604 2.328057
v -7.06447 2.066605 8.525381
v -7.06447 4.90399E-07 8.525381
v -6.106379 5.66693E-07 9.618037
v -6.106379 2.066605 9.618037
v -4.832358 6.239134E-07 10.31711
v -4.832358 2.066605 10.31711
v -3.396075 6.429869E-07 10.53829
v -3.396075 2.066605 10.53829
v 3.850965 2.066605 10.3807
v 3.850965 6.239134E-07 10.3807
v 5.276276 6.0484E-07 10.0973
v 5.276276 2.066605 10.0973
v 6.518705 5.476195E-07 9.343503
v 6.518705 2.066605 9.343503
v 7.428392 4.713256E-07 8.210232
v 7.428392 2.066605 8.210232
v 10.91543 2.066604 1.855319
v 10.91543 -5.511575E-09 1.855319
v 11.38266 -1.199525E-07 0.4792619
v 11.38266 2.066604 0.4792618
v 11.35106 -2.343934E-07 -0.9736127
v 11.35106 2.066604 -0.9736128
vt 0.02185059 0.9868164
vt -5.960464E-08 0.9868164
vt -5.960464E-08 0.04959106
vt 0.02185059 0.04959106
vt 0.1812744 0.04959106
vt 0.1812744 0.9868164
vt 0.22229 0.9868164
vt 0.22229 0.04959106
vt 0.2775879 0.9868164
vt 0.2775879 0.04959106
vt 0.3405762 0.9868164
vt 0.3405762 0.04959106
vt 0.6591797 0.04959106
vt 0.6591797 0.9868164
vt 0.722168 0.9868164
vt 0.722168 0.04959106
vt 0.777832 0.9868164
vt 0.777832 0.04959106
vt 0.8188477 0.9868164
vt 0.8188477 0.04959106
vt 0.9780273 0.04959106
vt 0.9780273 0.9868164
vt 1 0.9868164
vt 1 0.04959106
vt -5.960464E-08 0.04959106
vt -5.960464E-08 0.9868164
vt 0 0.04959106
vt 0 0.9868164
vt 0.02185059 0.04959106
vt 0.02185059 0.9868164
vt 0.1812744 0.9868164
vt 0.1812744 0.04959106
vt 0.22229 0.04959106
vt 0.22229 0.9868164
vt 0.2775879 0.04959106
vt 0.2775879 0.9868164
vt 0.3405762 0.04959106
vt 0.3405762 0.9868164
vt 0.6591797 0.9868164
vt 0.6591797 0.04959106
vt 0.722168 0.04959106
vt 0.722168 0.9868164
vt 0.777832 0.04959106
vt 0.777832 0.9868164
vt 0.8188477 0.04959106
vt 0.8188477 0.9868164
vt 0.9780273 0.9868164
vt 0.9780273 0.04959106
vt 1 0.04959106
vt 1 0.9868164
vt 1 0.04959106
vt 1 0.9868164
vn -0.8901367 0 -0.4553223
vn -0.9882813 0 -0.1522217
vn -0.9882813 0 -0.1522217
vn -0.8901367 4.768372E-07 -0.4553223
vn -0.8623047 0 -0.5063477
vn -0.8623047 -5.364418E-07 -0.5063477
vn -0.6591797 0 -0.7519531
vn -0.6591797 0 -0.7519531
vn -0.3623047 0 -0.9321289
vn -0.3623047 0 -0.9321289
vn -0.05078125 0 -0.9985352
vn -0.05078125 -2.264977E-06 -0.9985352
vn 0.007331848 0 -1
vn 0.00730896 -2.014637E-05 -1
vn 0.3215332 0 -0.9467773
vn 0.3215332 0 -0.9467773
vn 0.6259766 0 -0.7797852
vn 0.6259766 0 -0.7797852
vn 0.8393555 0 -0.543457
vn 0.8393555 2.276897E-05 -0.543457
vn 0.8696289 0 -0.4936523
vn 0.8696289 -2.014637E-05 -0.4936523
vn 0.980957 0 -0.1950684
vn 0.980957 0 -0.1950684
vn -0.9882813 0 -0.1522217
vn -0.9882813 0 -0.1522217
vn -0.980957 0 0.1950684
vn -0.980957 0 0.1950684
vn -0.8696289 0 0.4936523
vn -0.8696289 -2.837181E-05 0.4936523
vn -0.8393555 0 0.543457
vn -0.8393555 1.192093E-06 0.543457
vn -0.6259766 0 0.7797852
vn -0.6259766 0 0.7797852
vn -0.3215332 0 0.9467773
vn -0.3215332 0 0.9467773
vn -0.007331848 0 1
vn -0.00730896 2.264977E-06 1
vn 0.05078125 0 0.9985352
vn 0.05078125 2.288818E-05 0.9985352
vn 0.3623047 0 0.9321289
vn 0.3623047 0 0.9321289
vn 0.6591797 0 0.7519531
vn 0.6591797 0 0.7519531
vn 0.8623047 0 0.5063477
vn 0.8623047 -2.837181E-05 0.5063477
vn 0.8901367 0 0.4553223
vn 0.8901367 2.843142E-05 0.4553223
vn 0.9882813 0 0.1522217
vn 0.9882813 0 0.1522217
vn 0.980957 0 -0.1950684
vn 0.980957 0 -0.1950684
g Shadow_0
f 3/3/3 2/2/2 1/1/1
f 3/3/3 1/1/1 4/4/4
f 5/5/5 4/4/4 1/1/1
f 5/5/5 1/1/1 6/6/6
f 5/5/5 6/6/6 7/7/7
f 5/5/5 7/7/7 8/8/8
f 8/8/8 7/7/7 9/9/9
f 8/8/8 9/9/9 10/10/10
f 10/10/10 9/9/9 11/11/11
f 10/10/10 11/11/11 12/12/12
f 13/13/13 12/12/12 11/11/11
f 13/13/13 11/11/11 14/14/14
f 13/13/13 14/14/14 15/15/15
f 13/13/13 15/15/15 16/16/16
f 16/16/16 15/15/15 17/17/17
f 16/16/16 17/17/17 18/18/18
f 18/18/18 17/17/17 19/19/19
f 18/18/18 19/19/19 20/20/20
f 21/21/21 20/20/20 19/19/19
f 21/21/21 19/19/19 22/22/22
f 21/21/21 22/22/22 23/23/23
f 21/21/21 23/23/23 24/24/24
f 27/27/27 26/26/26 25/25/25
f 27/27/27 28/28/28 26/26/26
f 29/29/29 28/28/28 27/27/27
f 29/29/29 30/30/30 28/28/28
f 29/29/29 31/31/31 30/30/30
f 29/29/29 32/32/32 31/31/31
f 33/33/33 31/31/31 32/32/32
f 33/33/33 34/34/34 31/31/31
f 35/35/35 34/34/34 33/33/33
f 35/35/35 36/36/36 34/34/34
f 37/37/37 36/36/36 35/35/35
f 37/37/37 38/38/38 36/36/36
f 37/37/37 39/39/39 38/38/38
f 37/37/37 40/40/40 39/39/39
f 41/41/41 39/39/39 40/40/40
f 41/41/41 42/42/42 39/39/39
f 43/43/43 42/42/42 41/41/41
f 43/43/43 44/44/44 42/42/42
f 45/45/45 44/44/44 43/43/43
f 45/45/45 46/46/46 44/44/44
f 45/45/45 47/47/47 46/46/46
f 45/45/45 48/48/48 47/47/47
f 49/49/49 47/47/47 48/48/48
f 49/49/49 50/50/50 47/47/47
f 51/51/51 50/50/50 49/49/49
f 51/51/51 52/52/52 50/50/50
