g Small_Temple_Lower
v -0.01339405 277.2438 55.94164
v -1.609219 315.2076 29.03823
v -4.995022 329.6503 29.96325
v 8.502902 256.0245 49.48528
v 31.31925 206.0604 95.61947
v 22.42032 228.1058 101.298
v 62.23435 208.4371 181.7896
v 71.75668 186.1133 177.3834
v 89.67004 197.108 240.3273
v 87.78589 219.7195 269.639
v 105.8297 221.9468 277.6346
v 143.4088 198.8931 215.2137
v 83.25699 238.6758 283.4348
v 68.02432 226.7293 176.562
v 83.58065 257.2458 273.3856
v 100.1422 245.1259 289.7861
v 100.1422 245.1259 289.7861
v 163.8122 223.4391 249.9868
v 168.736 247.0481 257.213
v 168.0632 221.8612 231.6149
v 100.3646 187.1958 163.0951
v 175.8277 241.0168 239.3587
v 161.5094 259.7527 236.5592
v 108.8595 209.8801 158.544
v 60.21354 207.0032 81.91158
v 69.42795 229.3629 78.82591
v 31.41642 285.8167 23.68475
v 47.22568 277.9958 33.93749
v 29.66324 330.0555 14.34417
v 47.22568 277.9958 33.93749
v 33.48081 341.2816 34.58425
v 29.66324 330.0555 14.34417
v 42.61966 287.3186 53.06219
v 69.42795 229.3629 78.82591
v 4.364841 340.9778 47.84273
v 61.9531 244.9556 92.15404
v 13.55197 286.7545 66.419
v 96.63232 227.8118 162.2734
v 108.8595 209.8801 158.544
v -0.01339405 277.2438 55.94164
v -4.995022 329.6503 29.96325
v 22.42032 228.1058 101.298
v 33.05881 244.0127 105.8619
v 62.23435 208.4371 181.7896
v 68.02432 226.7293 176.562
v 87.78589 219.7195 269.639
v 175.8277 241.0168 239.3587
v 168.0632 221.8612 231.6149
v 161.5094 259.7527 236.5592
v 83.58065 257.2458 273.3856
v 168.736 247.0481 257.213
v 100.1422 245.1259 289.7861
v 86.91613 175.731 -183.1398
v 64.14685 175.731 -159.3004
v 64.14685 0 -159.3004
v 86.91613 0 -183.1398
v 94.16093 0 132.3486
v 118.0004 0 155.1177
v 118.0004 175.731 155.1177
v 94.16094 175.7309 132.3486
v 182.6825 0 19.12153
v 158.8431 0 -3.647619
v 158.8431 175.731 -3.647619
v 182.6825 175.731 19.12153
v -181.6122 175.731 27.48695
v -158.8429 175.731 3.647532
v -158.8429 0 3.647532
v -181.6122 0 27.48695
v 110.7557 0 -160.3707
v 87.98643 0 -136.5311
v 87.98643 175.731 -136.5313
v 110.7557 175.731 -160.3707
v -182.6825 175.731 -19.12159
v -205.4516 175.731 4.717798
v -205.4516 0 4.717798
v -182.6825 0 -19.12159
v 94.16094 175.7309 132.3486
v 71.39151 175.731 156.188
v 71.39151 0 156.188
v 94.16093 0 132.3486
v 86.91613 0 -183.1398
v 110.7557 0 -160.3707
v 110.7557 175.731 -160.3707
v 86.91613 175.731 -183.1398
v -86.91602 0 183.1398
v -110.7557 0 160.3707
v -110.7557 175.731 160.3707
v -86.91602 175.731 183.1398
v -95.23123 0 -178.9571
v -71.39154 0 -156.188
v -71.39154 175.731 -156.188
v -95.23123 175.731 -178.9571
v -64.14688 175.731 159.3004
v -87.98633 175.731 136.5313
v -87.98633 0 136.5313
v -64.14688 0 159.3004
v 95.23121 0 178.9573
v 71.39151 0 156.188
v 71.39151 175.731 156.188
v 95.23121 175.731 178.9573
v -71.39154 0 -156.188
v -94.16097 0 -132.3484
v -94.16097 175.731 -132.3484
v -71.39154 175.731 -156.188
v -182.6825 0 -19.12159
v -158.8429 0 3.647532
v -158.8429 175.731 3.647532
v -182.6825 175.731 -19.12159
v -181.6122 0 27.48695
v -205.4516 0 4.717798
v -205.4516 175.731 4.717798
v -181.6122 175.731 27.48695
v 118.0004 0 155.1177
v 95.23121 0 178.9573
v 95.23121 175.731 178.9573
v 118.0004 175.731 155.1177
v -94.16097 0 -132.3484
v -118.0004 0 -155.1177
v -118.0004 175.731 -155.1177
v -94.16097 175.731 -132.3484
v 87.98643 0 -136.5311
v 64.14685 0 -159.3004
v 64.14685 175.731 -159.3004
v 87.98643 175.731 -136.5313
v -95.23123 175.731 -178.9571
v -118.0004 175.731 -155.1177
v -118.0004 0 -155.1177
v -95.23123 0 -178.9571
v -90.4786 97.44617 165.3683
v -188.4525 68.19512 4.327509
v -188.4525 97.44617 4.327509
v -90.4786 68.19512 165.3683
v 97.974 68.19512 161.0408
v -84.42416 68.19512 154.3028
v 97.974 97.44617 161.0408
v 91.41812 97.44617 150.2649
v -84.42416 97.44617 154.3028
v 188.4525 97.44617 -4.32749
v 175.8422 97.44617 -4.037878
v 91.41812 97.44617 150.2649
v 84.42422 97.44617 -154.3028
v 90.47855 97.44617 -165.3683
v 188.4525 68.19512 -4.32749
v 175.8422 68.19512 -4.037878
v 91.41812 68.19512 150.2649
v 90.47855 68.19512 -165.3683
v 84.42422 68.19512 -154.3028
v -91.41805 97.44617 -150.2649
v 90.47855 97.44617 -165.3683
v -91.41805 68.19512 -150.2649
v -175.8422 97.44617 4.037928
v -175.8422 68.19512 4.037928
v -97.97403 68.19512 -161.0408
v -97.97403 97.44617 -161.0408
v 90.47855 68.19512 -165.3683
v 188.4525 97.44617 -4.32749
v 188.4525 68.19512 -4.32749
v -188.4525 97.44617 4.327509
v -188.4525 68.19512 4.327509
v -91.41805 68.19512 -150.2649
v -175.8422 68.19512 4.037928
v -90.4786 68.19512 165.3683
v -175.8422 97.44617 4.037928
v -91.41805 97.44617 -150.2649
v -90.4786 97.44617 165.3683
v 91.41812 68.19512 150.2649
v 175.8422 68.19512 -4.037878
v 175.8422 97.44617 -4.037878
v 181.6122 175.731 -27.48725
v 158.8431 175.731 -3.647619
v 158.8431 0 -3.647619
v 181.6122 0 -27.48725
v 205.4516 0 -4.71787
v 182.6825 0 19.12153
v 182.6825 175.731 19.12153
v 205.4516 175.731 -4.71787
v -110.7557 0 160.3707
v -87.98633 0 136.5313
v -87.98633 175.731 136.5313
v -110.7557 175.731 160.3707
v -86.91602 175.731 183.1398
v -64.14688 175.731 159.3004
v -64.14688 0 159.3004
v -86.91602 0 183.1398
v 181.6122 0 -27.48725
v 205.4516 0 -4.71787
v 205.4516 175.731 -4.71787
v 181.6122 175.731 -27.48725
v 51.49553 277.2438 23.7442
v 26.41208 315.2076 13.88719
v 25.82869 329.6503 17.34827
v 49.21549 256.0245 13.30326
v 100.6666 206.0604 11.98519
v 102.08 228.1058 22.44651
v 191.8505 208.4371 20.14165
v 191.8536 186.1133 9.649291
v 256.4979 197.108 19.84396
v 282.3044 219.7195 33.87078
v 297.142 221.9468 20.85722
v 256.2907 198.8931 -39.47301
v 292.9199 238.6758 43.77756
v 283.937 257.2458 39.26107
v 189.5398 226.7293 12.69097
v 305.7787 245.1259 31.12438
v 305.7787 245.1259 31.12438
v 296.4186 223.4391 -43.37558
v 305.0448 247.0481 -44.80704
v 281.5337 221.8612 -54.95314
v 190.9093 187.1958 -22.31441
v 291.8234 241.0168 -58.74485
v 283.2664 259.7527 -46.92833
v 190.3492 209.8801 -31.93527
v 100.3694 207.0032 -19.99445
v 101.4413 229.3629 -29.65248
v 35.43191 285.8167 -18.33074
v 51.37875 277.9958 -28.36817
v 26.21931 330.0555 -20.66487
v 51.37875 277.9958 -28.36817
v 46.18988 341.2816 -15.62393
v 26.21931 330.0555 -20.66487
v 66.79752 287.3186 -16.15214
v 101.4413 229.3629 -29.65248
v 45.98614 340.9778 16.36803
v 110.3946 244.9556 -17.26899
v 66.70326 286.7545 15.83733
v 188.5954 227.8118 -19.27291
v 190.3492 209.8801 -31.93527
v 51.49553 277.2438 23.7442
v 25.82869 329.6503 17.34827
v 102.08 228.1058 22.44651
v 110.6918 244.0127 14.71065
v 191.8505 208.4371 20.14165
v 189.5398 226.7293 12.69097
v 282.3044 219.7195 33.87078
v 291.8234 241.0168 -58.74485
v 281.5337 221.8612 -54.95314
v 283.2664 259.7527 -46.92833
v 283.937 257.2458 39.26107
v 305.0448 247.0481 -44.80704
v 305.7787 245.1259 31.12438
v 43.3684 277.2438 -36.52603
v 23.77647 315.2076 -18.01938
v 26.6605 329.6503 -16.01896
v 32.94946 256.0245 -38.90464
v 53.64591 206.0604 -86.02795
v 63.71458 228.1058 -82.85643
v 99.82056 208.4371 -165.0782
v 90.32642 186.1133 -169.5448
v 127.0547 197.108 -223.7099
v 150.7278 219.7195 -241.0969
v 145.2632 221.9468 -260.0612
v 73.2854 198.8931 -248.7582
v 164.2096 238.6758 -246.4891
v 92.09471 226.7293 -166.1568
v 156.3005 257.2458 -240.2811
v 158.2292 245.1259 -263.5092
v 158.2292 245.1259 -263.5092
v 86.82558 223.4391 -286.7336
v 89.20007 247.0481 -295.1493
v 70.0154 221.8612 -278.1885
v 60.99795 187.1958 -182.2889
v 70.96158 241.0168 -289.1137
v 78.01491 259.7527 -276.3425
v 52.05288 209.8801 -185.875
v 24.57828 207.0032 -99.36436
v 16.29396 229.3629 -104.4434
v -1.542963 285.8167 -39.88898
v -3.842299 277.9958 -58.59097
v -7.57472 330.0555 -32.5447
v -3.842299 277.9958 -58.59097
v 5.483521 341.2816 -48.47322
v -7.57472 330.0555 -32.5447
v 13.77278 287.3186 -67.34759
v 16.29396 229.3629 -104.4434
v 34.34916 340.9778 -34.67822
v 31.30994 244.9556 -107.2776
v 42.68275 286.7545 -53.65274
v 62.76603 227.8118 -178.9008
v 52.05288 209.8801 -185.875
v 43.3684 277.2438 -36.52603
v 26.6605 329.6503 -16.01896
v 63.71458 228.1058 -82.85643
v 60.37753 244.0127 -93.94114
v 99.82056 208.4371 -165.0782
v 92.09471 226.7293 -166.1568
v 150.7278 219.7195 -241.0969
v 70.96158 241.0168 -289.1137
v 70.0154 221.8612 -278.1885
v 78.01491 259.7527 -276.3425
v 156.3005 257.2458 -240.2811
v 89.20007 247.0481 -295.1493
v 158.2292 245.1259 -263.5092
v -2.091019 277.2438 -60.69736
v -0.4696074 315.2076 -33.79551
v 2.915319 329.6503 -34.72373
v -10.6012 256.0245 -54.23294
v -33.46138 206.0604 -100.3454
v -24.56785 228.1058 -106.0324
v -64.45838 208.4371 -186.4861
v -73.97652 186.1133 -182.0708
v -91.94971 197.108 -244.9977
v -90.09342 219.7195 -274.3111
v -108.1448 221.9468 -282.2896
v -145.6646 198.8931 -219.833
v -85.57761 238.6758 -288.1112
v -70.24338 226.7293 -181.2529
v -85.89175 257.2458 -278.0617
v -102.4689 245.1259 -294.4465
v -102.4689 245.1259 -294.4465
v -166.101 223.4391 -254.5867
v -171.0317 247.0481 -261.8082
v -170.3345 221.8612 -236.2107
v -102.5709 187.1958 -167.7553
v -178.1065 241.0168 -243.9471
v -163.7854 259.7527 -241.1613
v -111.0614 209.8801 -163.1961
v -62.34262 207.0032 -86.61005
v -71.55407 229.3629 -83.51563
v -33.49014 285.8167 -28.41061
v -49.30914 277.9958 -38.64833
v -31.72806 330.0555 -19.07169
v -49.30914 277.9958 -38.64833
v -35.56489 341.2816 -39.30814
v -31.72806 330.0555 -19.07169
v -44.72131 287.3186 -57.7774
v -71.55407 229.3629 -83.51563
v -6.461546 340.9778 -52.59433
v -64.0919 244.9556 -96.85086
v -15.66632 286.7545 -71.16183
v -98.83778 227.8118 -166.9372
v -111.0614 209.8801 -163.1961
v -2.091019 277.2438 -60.69736
v 2.915319 329.6503 -34.72373
v -24.56785 228.1058 -106.0324
v -35.21067 244.0127 -110.5862
v -64.45838 208.4371 -186.4861
v -70.24338 226.7293 -181.2529
v -90.09342 219.7195 -274.3111
v -178.1065 241.0168 -243.9471
v -170.3345 221.8612 -236.2107
v -163.7854 259.7527 -241.1613
v -85.89175 257.2458 -278.0617
v -171.0317 247.0481 -261.8082
v -102.4689 245.1259 -294.4465
v -50.66269 277.2438 -24.51372
v -25.5974 315.2076 -14.61065
v -25.00766 329.6503 -18.07065
v -48.40188 256.0245 -14.06859
v -99.85526 206.0604 -12.84505
v -101.2495 228.1058 -23.30894
v -191.024 208.4371 -21.16902
v -191.0464 186.1133 -10.67666
v -255.6719 197.108 -20.99008
v -281.4525 219.7195 -35.06429
v -283.0753 257.2458 -40.45756
v -296.3141 221.9468 -22.078
v -255.5737 198.8931 38.32717
v -292.0499 238.6758 -44.99057
v -304.9318 245.1259 -32.36101
v -304.9318 245.1259 -32.36101
v -295.7086 223.4391 42.15601
v -304.3375 247.0481 43.57162
v -280.845 221.8612 53.76086
v -190.1609 187.1958 21.28872
v -291.1416 241.0168 57.53371
v -282.5629 259.7527 45.73291
v -189.6184 209.8801 30.91059
v -99.61681 207.0032 19.13508
v -100.7065 229.3629 28.79111
v -34.6764 285.8167 17.59066
v -50.64167 277.9958 27.59877
v -25.4681 330.0555 19.94171
v -50.64167 277.9958 27.59877
v -45.42938 341.2816 14.8641
v -25.4681 330.0555 19.94171
v -66.03796 287.3186 15.35443
v -100.7065 229.3629 28.79111
v -45.1669 340.9778 -17.12745
v -109.637 244.9556 16.39119
v -65.88493 286.7545 -16.63482
v -187.8413 227.8118 18.25145
v -189.6184 209.8801 30.91059
v -50.66269 277.2438 -24.51372
v -25.00766 329.6503 -18.07065
v -101.2495 228.1058 -23.30894
v -109.8755 244.0127 -15.58893
v -191.024 208.4371 -21.16902
v -188.727 226.7293 -13.71409
v -283.0753 257.2458 -40.45756
v -291.1416 241.0168 57.53371
v -280.845 221.8612 53.76086
v -282.5629 259.7527 45.73291
v -304.3375 247.0481 43.57162
v -304.9318 245.1259 -32.36101
v -45.64092 277.2438 35.86737
v -26.43262 315.2076 16.96284
v -29.35707 329.6503 15.02199
v -35.1754 256.0245 38.03183
v -54.90115 206.0604 85.56963
v -65.03274 228.1058 82.60526
v -99.44504 208.4371 165.5501
v -89.86127 186.1133 169.8211
v -125.4711 197.108 224.728
v -148.7827 219.7195 242.5968
v -142.9303 221.9468 261.445
v -71.19948 198.8931 248.6683
v -162.1511 238.6758 248.2643
v -91.69869 226.7293 166.4701
v -154.371 257.2458 241.8954
v -155.8229 245.1259 265.1582
v -155.8229 245.1259 265.1582
v -83.95802 223.4391 286.9135
v -86.15945 247.0481 295.376
v -67.32668 221.8612 278.0254
v -60.27766 187.1958 181.9611
v -68.04858 241.0168 288.9677
v -75.36231 259.7527 276.3438
v -51.26093 209.8801 185.363
v -25.56617 207.0032 98.30717
v -17.17943 229.3629 103.2152
v -0.6700391 285.8167 38.30861
v 2.01231 277.9958 56.95954
v 5.209839 330.0555 30.84221
v 2.01231 277.9958 56.95954
v -7.518999 341.2816 47.03516
v 5.209839 330.0555 30.84221
v -15.41949 287.3186 66.07554
v -17.17943 229.3629 103.2152
v -36.66148 340.9778 33.83502
v -32.13414 244.9556 106.3567
v -44.60421 286.7545 52.97639
v -62.11484 227.8118 178.6099
v -51.26093 209.8801 185.363
v -45.64092 277.2438 35.86737
v -29.35707 329.6503 15.02199
v -65.03274 228.1058 82.60526
v -61.4691 244.0127 93.61921
v -99.44504 208.4371 165.5501
v -91.69869 226.7293 166.4701
v -148.7827 219.7195 242.5968
v -68.04858 241.0168 288.9677
v -67.32668 221.8612 278.0254
v -75.36231 259.7527 276.3438
v -154.371 257.2458 241.8954
v -86.15945 247.0481 295.376
v -155.8229 245.1259 265.1582
v -115.2483 194.9138 -231.0689
v -191.1538 160.8986 -115.9588
v -113.6522 182.1086 -227.4095
v -5.243924 159.3806 -228.3543
v -195.1286 174.0776 -118.5948
v -259.2924 204.5431 5.954248
v -255.7732 191.5547 5.873407
v -185.6295 160.8986 124.6109
v -189.4792 174.0776 127.4266
v -103.0937 182.1086 232.3869
v -244.0834 216.7139 5.604975
v -104.5201 194.9138 236.1155
v 5.24393 159.3806 228.3543
v -178.5609 188.1687 120.075
v -183.8844 188.1687 -111.7521
v -108.5828 207.7858 -217.5359
v -190.2475 206.8516 4.368738
v -5.355496 172.3668 -233.214
v -5.046292 186.6122 -219.7464
v -89.36385 202.2582 -168.3514
v 104.5201 194.9138 -236.1156
v 103.0938 182.1086 -232.3867
v 185.6295 160.8986 -124.611
v 98.48296 207.7858 -222.2908
v 178.5609 188.1687 -120.075
v 189.4791 174.0776 -127.4267
v 255.7732 191.5547 -5.873388
v -3.911099 187.9714 -170.3137
v -143.8171 189.2349 -85.02457
v 259.2924 204.5431 -5.954198
v -52.41659 224.4268 -93.3577
v 81.5419 202.2582 -172.276
v -79.76846 219.3492 -46.19053
v 195.1286 174.0776 118.5947
v 191.1538 160.8986 115.9587
v 115.2482 194.9138 231.0689
v 113.6522 182.1086 227.4095
v 5.355502 172.3668 233.214
v 108.5828 207.7858 217.5358
v 183.8844 188.1687 111.7521
v -98.48299 207.7858 222.2907
v 5.046237 186.6122 219.7465
v -139.7627 189.2349 91.53646
v 244.0834 216.7139 -5.604955
v 190.2475 206.8516 -4.368689
v 89.36385 202.2582 168.3517
v -81.54196 202.2582 172.2762
v -105.2153 225.4697 2.416101
v -57.50167 271.8146 1.320459
v -77.56412 219.3492 49.80364
v 139.7627 189.2349 -91.53653
v 48.07602 224.4268 -95.66532
v 3.911105 187.9714 170.314
v 2.170444 218.9147 94.51146
v -48.07577 224.4268 95.66527
v -42.43423 269.5157 27.65066
v 77.56406 219.3492 -49.80344
v 42.43424 269.5157 -27.65073
v -2.170438 218.9146 -94.51151
v 105.2156 225.4697 -2.416052
v -26.85568 271.649 53.55111
v 26.85569 271.649 -53.55119
v 143.8171 189.2349 85.02453
v 52.4166 224.4268 93.35763
v 79.7684 219.3492 46.19048
v 29.2855 271.649 52.26192
v 1.215061 269.4621 52.90652
v 43.65897 269.5157 25.67367
v 57.50162 271.8146 -1.32041
v -16.67434 328.7335 35.09722
v 0.7969086 327.489 34.69604
v -26.32833 327.36 18.07632
v 18.26786 328.7335 34.29482
v 27.13028 327.36 16.84872
v 35.70932 328.6099 -0.8199826
v 26.32828 327.36 -18.07603
v -35.70932 328.6099 0.820032
v 16.67435 328.7335 -35.09727
v -27.13034 327.36 -16.84849
v -43.65871 269.5157 -25.67374
v -18.26785 328.7335 -34.2949
v -1.214749 269.4621 -52.90659
v -0.7965972 327.489 -34.69608
v -29.28549 271.649 -52.262
v 142.4643 157.6041 83.86552
v 191.1538 160.8986 115.9587
v 255.7732 191.5547 -5.873388
v 113.6522 182.1086 227.4095
v 191.119 175.126 -4.388708
v 89.46988 170.5035 168.3408
v 185.6295 160.8986 -124.611
v 138.4643 157.6041 -90.31663
v 103.0938 182.1086 -232.3867
v 81.64832 170.5035 -172.2703
v 5.24393 159.3806 228.3543
v 3.868625 156.3508 168.4624
v -81.6481 170.5035 172.2703
v -103.0937 182.1086 232.3869
v -5.243924 159.3806 -228.3543
v -3.868619 156.3508 -168.4624
v -138.4643 157.6041 90.31658
v -185.6295 160.8986 124.6109
v -255.7732 191.5547 5.873407
v -191.119 175.126 4.388758
v -89.46988 170.5035 -168.3409
v -113.6522 182.1086 -227.4095
v -191.1538 160.8986 -115.9588
v -142.4641 157.6041 -83.86527
vt 0.6586914 0.9121094
vt 0.6572266 0.9101563
vt 0.6577148 0.9101563
vt 0.6582031 0.9121094
vt 0.6601563 0.9160156
vt 0.6601563 0.9160156
vt 0.6640625 0.9238281
vt 0.6635742 0.9238281
vt 0.6665039 0.9287109
vt 0.6669922 0.9291992
vt 0.6669922 0.9301758
vt 0.6640625 0.9301758
vt 0.6679688 0.9301758
vt 0.6635742 0.9233398
vt 0.668457 0.9306641
vt 0.6679688 0.9316406
vt 0.6679688 0.9311523
vt 0.6650391 0.9311523
vt 0.6655273 0.9326172
vt 0.6640625 0.9306641
vt 0.6625977 0.9243164
vt 0.6645508 0.9316406
vt 0.6650391 0.9326172
vt 0.6621094 0.9243164
vt 0.6586914 0.9169922
vt 0.6586914 0.9169922
vt 0.65625 0.9116211
vt 0.6567383 0.9130859
vt 0.6557617 0.9111328
vt 0.6567383 0.9130859
vt 0.6567383 0.9121094
vt 0.6557617 0.9111328
vt 0.6577148 0.9140625
vt 0.6586914 0.9169922
vt 0.6582031 0.9116211
vt 0.6591797 0.9174805
vt 0.6591797 0.9130859
vt 0.6625977 0.9243164
vt 0.6621094 0.9243164
vt 0.6586914 0.9121094
vt 0.6577148 0.9101563
vt 0.6601563 0.9160156
vt 0.6606445 0.9169922
vt 0.6640625 0.9238281
vt 0.6635742 0.9233398
vt 0.6669922 0.9291992
vt 0.6645508 0.9316406
vt 0.6640625 0.9306641
vt 0.6650391 0.9326172
vt 0.668457 0.9306641
vt 0.6655273 0.9326172
vt 0.6679688 0.9316406
vt 0.1644287 0.9819336
vt 0.1625977 0.9819336
vt 0.1625977 0.9482422
vt 0.1644287 0.9482422
vt 0.1656494 0.9482422
vt 0.1676025 0.9482422
vt 0.1676025 0.9819336
vt 0.1656494 0.9819336
vt 0.1733398 0.9482422
vt 0.1715088 0.9482422
vt 0.1715088 0.9819336
vt 0.1733398 0.9819336
vt 0.1400146 0.9819336
vt 0.1418457 0.9819336
vt 0.1418457 0.9482422
vt 0.1400146 0.9482422
vt 0.1669922 0.9482422
vt 0.1651611 0.9482422
vt 0.1651611 0.9819336
vt 0.1669922 0.9819336
vt 0.1392822 0.9819336
vt 0.1374512 0.9819336
vt 0.1374512 0.9482422
vt 0.1392822 0.9482422
vt 0.1651611 0.9819336
vt 0.1633301 0.9819336
vt 0.1633301 0.9482422
vt 0.1651611 0.9482422
vt 0.1650391 0.9482422
vt 0.1669922 0.9482422
vt 0.1669922 0.9819336
vt 0.1650391 0.9819336
vt 0.1481934 0.9482422
vt 0.1462402 0.9482422
vt 0.1462402 0.9819336
vt 0.1481934 0.9819336
vt 0.1480713 0.9482422
vt 0.1499023 0.9482422
vt 0.1499023 0.9819336
vt 0.1480713 0.9819336
vt 0.1506348 0.9819336
vt 0.1486816 0.9819336
vt 0.1486816 0.9482422
vt 0.1506348 0.9482422
vt 0.1652832 0.9482422
vt 0.1633301 0.9482422
vt 0.1633301 0.9819336
vt 0.1652832 0.9819336
vt 0.1500244 0.9482422
vt 0.1480713 0.9482422
vt 0.1480713 0.9819336
vt 0.1500244 0.9819336
vt 0.1398926 0.9482422
vt 0.1418457 0.9482422
vt 0.1418457 0.9819336
vt 0.1398926 0.9819336
vt 0.1394043 0.9482422
vt 0.1374512 0.9482422
vt 0.1374512 0.9819336
vt 0.1394043 0.9819336
vt 0.1676025 0.9482422
vt 0.1657715 0.9482422
vt 0.1657715 0.9819336
vt 0.1676025 0.9819336
vt 0.147583 0.9482422
vt 0.1456299 0.9482422
vt 0.1456299 0.9819336
vt 0.147583 0.9819336
vt 0.1645508 0.9482422
vt 0.1625977 0.9482422
vt 0.1625977 0.9819336
vt 0.1645508 0.9819336
vt 0.1474609 0.9819336
vt 0.1456299 0.9819336
vt 0.1456299 0.9482422
vt 0.1474609 0.9482422
vt 0.1481934 0.9667969
vt 0.1390381 0.9614258
vt 0.1390381 0.9667969
vt 0.1481934 0.9614258
vt 0.1657715 0.9614258
vt 0.1488037 0.9614258
vt 0.1657715 0.9667969
vt 0.1651611 0.9667969
vt 0.1488037 0.9667969
vt 0.1741943 0.9667969
vt 0.1730957 0.9667969
vt 0.1651611 0.9667969
vt 0.1645508 0.9667969
vt 0.1650391 0.9667969
vt 0.1741943 0.9614258
vt 0.1730957 0.9614258
vt 0.1651611 0.9614258
vt 0.1650391 0.9614258
vt 0.1645508 0.9614258
vt 0.1480713 0.9667969
vt 0.1650391 0.9667969
vt 0.1480713 0.9614258
vt 0.1402588 0.9667969
vt 0.1402588 0.9614258
vt 0.1474609 0.9614258
vt 0.1474609 0.9667969
vt 0.1650391 0.9614258
vt 0.1741943 0.9667969
vt 0.1741943 0.9614258
vt 0.1390381 0.9667969
vt 0.1390381 0.9614258
vt 0.1480713 0.9614258
vt 0.1402588 0.9614258
vt 0.1481934 0.9614258
vt 0.1402588 0.9667969
vt 0.1480713 0.9667969
vt 0.1481934 0.9667969
vt 0.1651611 0.9614258
vt 0.1730957 0.9614258
vt 0.1730957 0.9667969
vt 0.1733398 0.9819336
vt 0.1715088 0.9819336
vt 0.1715088 0.9482422
vt 0.1733398 0.9482422
vt 0.1757813 0.9482422
vt 0.1739502 0.9482422
vt 0.1739502 0.9819336
vt 0.1757813 0.9819336
vt 0.1462402 0.9482422
vt 0.1480713 0.9482422
vt 0.1480713 0.9819336
vt 0.1462402 0.9819336
vt 0.1488037 0.9819336
vt 0.1506348 0.9819336
vt 0.1506348 0.9482422
vt 0.1488037 0.9482422
vt 0.1738281 0.9482422
vt 0.1757813 0.9482422
vt 0.1757813 0.9819336
vt 0.1738281 0.9819336
vt 0.6586914 0.9121094
vt 0.6572266 0.9101563
vt 0.6577148 0.9101563
vt 0.6582031 0.9121094
vt 0.6601563 0.9160156
vt 0.6601563 0.9160156
vt 0.6640625 0.9238281
vt 0.6635742 0.9238281
vt 0.6665039 0.9287109
vt 0.6669922 0.9291992
vt 0.6669922 0.9301758
vt 0.6640625 0.9301758
vt 0.6679688 0.9301758
vt 0.668457 0.9306641
vt 0.6635742 0.9233398
vt 0.6679688 0.9316406
vt 0.6679688 0.9311523
vt 0.6650391 0.9311523
vt 0.6655273 0.9326172
vt 0.6640625 0.9306641
vt 0.6625977 0.9243164
vt 0.6645508 0.9316406
vt 0.6650391 0.9326172
vt 0.6621094 0.9243164
vt 0.6586914 0.9169922
vt 0.6586914 0.9169922
vt 0.65625 0.9116211
vt 0.6567383 0.9130859
vt 0.6557617 0.9111328
vt 0.6567383 0.9130859
vt 0.6567383 0.9121094
vt 0.6557617 0.9111328
vt 0.6577148 0.9140625
vt 0.6586914 0.9169922
vt 0.6582031 0.9116211
vt 0.6591797 0.9174805
vt 0.6591797 0.9130859
vt 0.6625977 0.9243164
vt 0.6621094 0.9243164
vt 0.6586914 0.9121094
vt 0.6577148 0.9101563
vt 0.6601563 0.9160156
vt 0.6606445 0.9169922
vt 0.6640625 0.9238281
vt 0.6635742 0.9233398
vt 0.6669922 0.9291992
vt 0.6645508 0.9316406
vt 0.6640625 0.9306641
vt 0.6650391 0.9326172
vt 0.668457 0.9306641
vt 0.6655273 0.9326172
vt 0.6679688 0.9316406
vt 0.6586914 0.9121094
vt 0.6572266 0.9101563
vt 0.6577148 0.9101563
vt 0.6582031 0.9121094
vt 0.6601563 0.9160156
vt 0.6601563 0.9160156
vt 0.6640625 0.9238281
vt 0.6635742 0.9238281
vt 0.6665039 0.9287109
vt 0.6669922 0.9291992
vt 0.6669922 0.9301758
vt 0.6640625 0.9301758
vt 0.6679688 0.9301758
vt 0.6635742 0.9233398
vt 0.668457 0.9306641
vt 0.6679688 0.9316406
vt 0.6679688 0.9311523
vt 0.6650391 0.9311523
vt 0.6655273 0.9326172
vt 0.6640625 0.9306641
vt 0.6625977 0.9243164
vt 0.6645508 0.9316406
vt 0.6650391 0.9326172
vt 0.6621094 0.9243164
vt 0.6586914 0.9169922
vt 0.6586914 0.9169922
vt 0.65625 0.9116211
vt 0.6567383 0.9130859
vt 0.6557617 0.9111328
vt 0.6567383 0.9130859
vt 0.6567383 0.9121094
vt 0.6557617 0.9111328
vt 0.6577148 0.9140625
vt 0.6586914 0.9169922
vt 0.6582031 0.9116211
vt 0.6591797 0.9174805
vt 0.6591797 0.9130859
vt 0.6625977 0.9243164
vt 0.6621094 0.9243164
vt 0.6586914 0.9121094
vt 0.6577148 0.9101563
vt 0.6601563 0.9160156
vt 0.6606445 0.9169922
vt 0.6640625 0.9238281
vt 0.6635742 0.9233398
vt 0.6669922 0.9291992
vt 0.6645508 0.9316406
vt 0.6640625 0.9306641
vt 0.6650391 0.9326172
vt 0.668457 0.9306641
vt 0.6655273 0.9326172
vt 0.6679688 0.9316406
vt 0.6586914 0.9121094
vt 0.6572266 0.9101563
vt 0.6577148 0.9101563
vt 0.6582031 0.9121094
vt 0.6601563 0.9160156
vt 0.6601563 0.9160156
vt 0.6640625 0.9238281
vt 0.6635742 0.9238281
vt 0.6665039 0.9287109
vt 0.6669922 0.9291992
vt 0.6669922 0.9301758
vt 0.6640625 0.9301758
vt 0.6679688 0.9301758
vt 0.6635742 0.9233398
vt 0.668457 0.9306641
vt 0.6679688 0.9316406
vt 0.6679688 0.9311523
vt 0.6650391 0.9311523
vt 0.6655273 0.9326172
vt 0.6640625 0.9306641
vt 0.6625977 0.9243164
vt 0.6645508 0.9316406
vt 0.6650391 0.9326172
vt 0.6621094 0.9243164
vt 0.6586914 0.9169922
vt 0.6586914 0.9169922
vt 0.65625 0.9116211
vt 0.6567383 0.9130859
vt 0.6557617 0.9111328
vt 0.6567383 0.9130859
vt 0.6567383 0.9121094
vt 0.6557617 0.9111328
vt 0.6577148 0.9140625
vt 0.6586914 0.9169922
vt 0.6582031 0.9116211
vt 0.6591797 0.9174805
vt 0.6591797 0.9130859
vt 0.6625977 0.9243164
vt 0.6621094 0.9243164
vt 0.6586914 0.9121094
vt 0.6577148 0.9101563
vt 0.6601563 0.9160156
vt 0.6606445 0.9169922
vt 0.6640625 0.9238281
vt 0.6635742 0.9233398
vt 0.6669922 0.9291992
vt 0.6645508 0.9316406
vt 0.6640625 0.9306641
vt 0.6650391 0.9326172
vt 0.668457 0.9306641
vt 0.6655273 0.9326172
vt 0.6679688 0.9316406
vt 0.6586914 0.9121094
vt 0.6572266 0.9101563
vt 0.6577148 0.9101563
vt 0.6582031 0.9121094
vt 0.6601563 0.9160156
vt 0.6601563 0.9160156
vt 0.6640625 0.9238281
vt 0.6635742 0.9238281
vt 0.6665039 0.9287109
vt 0.6669922 0.9291992
vt 0.668457 0.9306641
vt 0.6669922 0.9301758
vt 0.6640625 0.9301758
vt 0.6679688 0.9301758
vt 0.6679688 0.9316406
vt 0.6679688 0.9311523
vt 0.6650391 0.9311523
vt 0.6655273 0.9326172
vt 0.6640625 0.9306641
vt 0.6625977 0.9243164
vt 0.6645508 0.9316406
vt 0.6650391 0.9326172
vt 0.6621094 0.9243164
vt 0.6586914 0.9169922
vt 0.6586914 0.9169922
vt 0.65625 0.9116211
vt 0.6567383 0.9130859
vt 0.6557617 0.9111328
vt 0.6567383 0.9130859
vt 0.6567383 0.9121094
vt 0.6557617 0.9111328
vt 0.6577148 0.9140625
vt 0.6586914 0.9169922
vt 0.6582031 0.9116211
vt 0.6591797 0.9174805
vt 0.6591797 0.9130859
vt 0.6625977 0.9243164
vt 0.6621094 0.9243164
vt 0.6586914 0.9121094
vt 0.6577148 0.9101563
vt 0.6601563 0.9160156
vt 0.6606445 0.9169922
vt 0.6640625 0.9238281
vt 0.6635742 0.9233398
vt 0.668457 0.9306641
vt 0.6645508 0.9316406
vt 0.6640625 0.9306641
vt 0.6650391 0.9326172
vt 0.6655273 0.9326172
vt 0.6679688 0.9316406
vt 0.6586914 0.9121094
vt 0.6572266 0.9101563
vt 0.6577148 0.9101563
vt 0.6582031 0.9121094
vt 0.6601563 0.9160156
vt 0.6601563 0.9160156
vt 0.6640625 0.9238281
vt 0.6635742 0.9238281
vt 0.6665039 0.9287109
vt 0.6669922 0.9291992
vt 0.6669922 0.9301758
vt 0.6640625 0.9301758
vt 0.6679688 0.9301758
vt 0.6635742 0.9233398
vt 0.668457 0.9306641
vt 0.6679688 0.9316406
vt 0.6679688 0.9311523
vt 0.6650391 0.9311523
vt 0.6655273 0.9326172
vt 0.6640625 0.9306641
vt 0.6625977 0.9243164
vt 0.6645508 0.9316406
vt 0.6650391 0.9326172
vt 0.6621094 0.9243164
vt 0.6586914 0.9169922
vt 0.6586914 0.9169922
vt 0.65625 0.9116211
vt 0.6567383 0.9130859
vt 0.6557617 0.9111328
vt 0.6567383 0.9130859
vt 0.6567383 0.9121094
vt 0.6557617 0.9111328
vt 0.6577148 0.9140625
vt 0.6586914 0.9169922
vt 0.6582031 0.9116211
vt 0.6591797 0.9174805
vt 0.6591797 0.9130859
vt 0.6625977 0.9243164
vt 0.6621094 0.9243164
vt 0.6586914 0.9121094
vt 0.6577148 0.9101563
vt 0.6601563 0.9160156
vt 0.6606445 0.9169922
vt 0.6640625 0.9238281
vt 0.6635742 0.9233398
vt 0.6669922 0.9291992
vt 0.6645508 0.9316406
vt 0.6640625 0.9306641
vt 0.6650391 0.9326172
vt 0.668457 0.9306641
vt 0.6655273 0.9326172
vt 0.6679688 0.9316406
vt 0.6020508 0.8876953
vt 0.6083984 0.8969727
vt 0.6020508 0.887207
vt 0.59375 0.8876953
vt 0.6079102 0.8969727
vt 0.6132813 0.9072266
vt 0.6132813 0.9072266
vt 0.6083984 0.9174805
vt 0.6079102 0.9174805
vt 0.6020508 0.9267578
vt 0.6132813 0.9072266
vt 0.6020508 0.9267578
vt 0.59375 0.9267578
vt 0.6079102 0.9174805
vt 0.6079102 0.8969727
vt 0.6020508 0.8876953
vt 0.6088867 0.9072266
vt 0.59375 0.8876953
vt 0.59375 0.8876953
vt 0.6005859 0.8920898
vt 0.5854492 0.8876953
vt 0.5854492 0.887207
vt 0.5791016 0.8969727
vt 0.5854492 0.8876953
vt 0.5791016 0.8969727
vt 0.5791016 0.8969727
vt 0.5737305 0.9072266
vt 0.59375 0.8920898
vt 0.6049805 0.8994141
vt 0.5742188 0.9072266
vt 0.5976563 0.8989258
vt 0.5869141 0.8920898
vt 0.6000977 0.902832
vt 0.5791016 0.9174805
vt 0.5791016 0.9174805
vt 0.5854492 0.9267578
vt 0.5854492 0.9267578
vt 0.59375 0.9267578
vt 0.5854492 0.9267578
vt 0.5791016 0.9174805
vt 0.6020508 0.9267578
vt 0.59375 0.9267578
vt 0.6049805 0.9150391
vt 0.5742188 0.9072266
vt 0.5786133 0.9072266
vt 0.5869141 0.9223633
vt 0.6005859 0.9223633
vt 0.6020508 0.9072266
vt 0.5981445 0.9072266
vt 0.6000977 0.9116211
vt 0.5825195 0.8994141
vt 0.5898438 0.8989258
vt 0.59375 0.9223633
vt 0.59375 0.9155273
vt 0.5976563 0.9155273
vt 0.597168 0.909668
vt 0.5874023 0.902832
vt 0.590332 0.9047852
vt 0.59375 0.8989258
vt 0.5854492 0.9072266
vt 0.5957031 0.9116211
vt 0.5913086 0.9023438
vt 0.5825195 0.9150391
vt 0.5898438 0.9155273
vt 0.5874023 0.9116211
vt 0.5913086 0.9116211
vt 0.59375 0.9116211
vt 0.590332 0.909668
vt 0.5888672 0.9072266
vt 0.5952148 0.9101563
vt 0.59375 0.9101563
vt 0.5957031 0.9086914
vt 0.5922852 0.9101563
vt 0.5913086 0.9086914
vt 0.5908203 0.9072266
vt 0.5913086 0.9057617
vt 0.5966797 0.9072266
vt 0.5922852 0.9042969
vt 0.5957031 0.9057617
vt 0.597168 0.9047852
vt 0.5952148 0.9042969
vt 0.59375 0.9023438
vt 0.59375 0.9042969
vt 0.5957031 0.9023438
vt 0.5825195 0.9150391
vt 0.5791016 0.9174805
vt 0.5737305 0.9072266
vt 0.5854492 0.9267578
vt 0.5786133 0.9072266
vt 0.5869141 0.9223633
vt 0.5791016 0.8969727
vt 0.5825195 0.8994141
vt 0.5854492 0.887207
vt 0.5869141 0.8920898
vt 0.59375 0.9267578
vt 0.59375 0.921875
vt 0.6005859 0.9223633
vt 0.6020508 0.9267578
vt 0.59375 0.8876953
vt 0.59375 0.8920898
vt 0.6049805 0.9150391
vt 0.6083984 0.9174805
vt 0.6132813 0.9072266
vt 0.6088867 0.9072266
vt 0.6005859 0.8920898
vt 0.6020508 0.887207
vt 0.6083984 0.8969727
vt 0.6049805 0.8994141
vn -0.9770508 -0.1710205 0.1262207
vn -0.7084961 -0.1917725 -0.6791992
vn -0.7324219 0.3186035 -0.6015625
vn -0.7119141 -0.4921875 -0.5009766
vn -0.6191406 -0.7695313 -0.1582031
vn -0.9257813 -0.2145996 0.3115234
vn -0.9077148 -0.2254639 0.354248
vn -0.4309082 -0.8779297 0.2095947
vn -0.4060059 -0.862793 0.3012695
vn -0.784668 -0.5024414 0.3625488
vn 0.3085938 -0.6230469 0.71875
vn 0.5117188 -0.8383789 -0.1888428
vn -0.9335938 -0.1583252 0.3215332
vn -0.3129883 0.9487305 0.04147339
vn -0.5649414 0.7797852 -0.2700195
vn 0.4287109 0.1882324 0.8837891
vn 0.4287109 0.1882324 0.8837891
vn 0.3952637 -0.6206055 0.6772461
vn 0.4550781 0.08935547 0.8857422
vn 0.8027344 -0.3125 -0.5078125
vn 0.4570313 -0.8554688 -0.2440186
vn 0.7836914 0.1605225 -0.6000977
vn 0.07476807 0.8564453 -0.5107422
vn 0.8369141 -0.08001709 -0.5419922
vn 0.2961426 -0.7456055 -0.597168
vn 0.8647461 -0.08630371 -0.4943848
vn -0.002471924 -0.340332 -0.9404297
vn 0.7919922 -0.09088135 -0.6040039
vn 0.0480957 0.3383789 -0.9399414
vn 0.7919922 -0.09088135 -0.6040039
vn 0.4682617 0.8129883 0.3464355
vn 0.0480957 0.3383789 -0.9399414
vn 0.6699219 0.4914551 0.5566406
vn 0.8647461 -0.08630371 -0.4943848
vn -0.09484863 0.7973633 0.5961914
vn 0.5205078 0.8173828 0.2473145
vn -0.07818604 0.4663086 0.8813477
vn 0.1248779 0.862793 -0.4899902
vn 0.8369141 -0.08001709 -0.5419922
vn -0.9770508 -0.1710205 0.1262207
vn -0.7324219 0.3186035 -0.6015625
vn -0.9257813 -0.2145996 0.3115234
vn -0.2269287 0.7744141 0.5908203
vn -0.9077148 -0.2254639 0.354248
vn -0.3129883 0.9487305 0.04147339
vn -0.784668 -0.5024414 0.3625488
vn 0.7836914 0.1605225 -0.6000977
vn 0.8027344 -0.3125 -0.5078125
vn 0.07476807 0.8564453 -0.5107422
vn -0.5649414 0.7797852 -0.2700195
vn 0.4550781 0.08935547 0.8857422
vn 0.4287109 0.1882324 0.8837891
vn 0.09057617 0.6894531 -0.71875
vn -0.71875 0.6894531 -0.09063721
vn -0.7177734 -0.6962891 0.01657104
vn -0.0151825 -0.6962891 -0.7172852
vn -0.01644897 -0.6962891 -0.7177734
vn 0.7172852 -0.6967773 -0.01631165
vn 0.7192383 0.6884766 0.09307861
vn 0.09185791 0.6889648 -0.7192383
vn 0.01644897 -0.6967773 0.7172852
vn -0.7143555 -0.6889648 0.1247559
vn -0.7172852 0.6962891 0.01789856
vn -0.09185791 0.6889648 0.7192383
vn -0.09063721 0.6894531 0.71875
vn 0.71875 0.6894531 0.09197998
vn 0.7172852 -0.6967773 -0.01644897
vn 0.01652527 -0.6962891 0.7177734
vn 0.7172852 -0.6962891 -0.01507568
vn 0.0164032 -0.6967773 0.7172852
vn -0.09204102 0.6894531 0.71875
vn 0.7192383 0.6889648 0.09185791
vn 0.09185791 0.6889648 -0.7192383
vn -0.71875 0.6894531 -0.09057617
vn -0.7172852 -0.6962891 0.01531982
vn -0.01520538 -0.6962891 -0.7172852
vn 0.09185791 0.6889648 -0.7192383
vn -0.71875 0.6894531 -0.09057617
vn -0.7172852 -0.6967773 0.01631165
vn -0.01644897 -0.6962891 -0.7177734
vn -0.0151825 -0.6962891 -0.7172852
vn 0.7172852 -0.6962891 -0.01507568
vn 0.7192383 0.6889648 0.09185791
vn 0.09057617 0.6894531 -0.71875
vn 0.01513672 -0.6962891 0.7172852
vn -0.7250977 -0.5810547 -0.3696289
vn -0.7363281 0.4633789 -0.4929199
vn -0.09057617 0.6894531 0.71875
vn -0.01513672 -0.6962891 -0.7172852
vn 0.7172852 -0.6962891 -0.01513672
vn 0.7192383 0.6889648 0.09185791
vn 0.09057617 0.6894531 -0.71875
vn 0.71875 0.6894531 0.09204102
vn -0.3991699 0.5883789 -0.703125
vn -0.3989258 -0.5883789 -0.703125
vn 0.7177734 -0.6962891 -0.0165863
vn 0.01638794 -0.6962891 0.7177734
vn -0.7172852 -0.6967773 0.01631165
vn -0.71875 0.6894531 -0.09057617
vn -0.09204102 0.6894531 0.71875
vn 0.7172852 -0.6962891 -0.01513672
vn 0.01649475 -0.6967773 0.7167969
vn -0.09197998 0.6894531 0.71875
vn 0.7192383 0.6889648 0.09185791
vn -0.01520538 -0.6962891 -0.7172852
vn 0.7172852 -0.6967773 -0.01644897
vn 0.71875 0.6894531 0.09197998
vn 0.09185791 0.6889648 -0.7192383
vn 0.01652527 -0.6962891 0.7177734
vn -0.7172852 -0.6962891 0.01531982
vn -0.71875 0.6894531 -0.09057617
vn -0.09063721 0.6894531 0.71875
vn 0.7172852 -0.6967773 -0.01631165
vn 0.01638794 -0.6962891 0.7177734
vn -0.09204102 0.6894531 0.71875
vn 0.7192383 0.6884766 0.09307861
vn 0.01649475 -0.6967773 0.7167969
vn -0.7177734 -0.6962891 0.01664734
vn -0.71875 0.6894531 -0.09075928
vn -0.09197998 0.6894531 0.71875
vn 0.0164032 -0.6967773 0.7172852
vn -0.7177734 -0.6962891 0.01657104
vn -0.71875 0.6894531 -0.09063721
vn -0.09204102 0.6894531 0.71875
vn 0.09057617 0.6894531 -0.71875
vn -0.71875 0.6894531 -0.09075928
vn -0.7177734 -0.6962891 0.01664734
vn -0.01513672 -0.6962891 -0.7172852
vn -0.2983398 0.7836914 0.5449219
vn -0.6210938 -0.7836914 0.01428986
vn -0.6210938 0.7836914 0.0142746
vn -0.2983398 -0.7836914 0.5449219
vn 0.322998 -0.7836914 0.5307617
vn 0.1774902 -0.9291992 -0.3242188
vn 0.3227539 0.7836914 0.5307617
vn -0.1920166 0.9291992 -0.315918
vn 0.1774902 0.9291992 -0.3242188
vn 0.6210938 0.7836914 -0.0142746
vn -0.3696289 0.9291992 0.008483887
vn -0.1920166 0.9291992 -0.315918
vn -0.1774902 0.9291992 0.3242188
vn 0.2983398 0.7836914 -0.5449219
vn 0.6210938 -0.7836914 -0.01447296
vn -0.3696289 -0.9291992 0.008483887
vn -0.1921387 -0.9291992 -0.315918
vn 0.2983398 -0.7836914 -0.5449219
vn -0.1774902 -0.9291992 0.3242188
vn 0.1921387 0.9291992 0.315918
vn 0.2983398 0.7836914 -0.5449219
vn 0.1921387 -0.9291992 0.315918
vn 0.3696289 0.9291992 -0.00843811
vn 0.3696289 -0.9291992 -0.008476257
vn -0.322998 -0.7836914 -0.5307617
vn -0.3232422 0.7836914 -0.5307617
vn 0.2983398 -0.7836914 -0.5449219
vn 0.6210938 0.7836914 -0.0142746
vn 0.6210938 -0.7836914 -0.01447296
vn -0.6210938 0.7836914 0.0142746
vn -0.6210938 -0.7836914 0.01428986
vn 0.1921387 -0.9291992 0.315918
vn 0.3696289 -0.9291992 -0.008476257
vn -0.2983398 -0.7836914 0.5449219
vn 0.3696289 0.9291992 -0.00843811
vn 0.1921387 0.9291992 0.315918
vn -0.2983398 0.7836914 0.5449219
vn -0.1921387 -0.9291992 -0.315918
vn -0.3696289 -0.9291992 0.008483887
vn -0.3696289 0.9291992 0.008483887
vn -0.01643372 0.6967773 -0.7172852
vn -0.7172852 0.6962891 0.01789856
vn -0.7143555 -0.6889648 0.1247559
vn -0.1235962 -0.6894531 -0.7138672
vn 0.7138672 -0.6894531 -0.1234131
vn 0.01644897 -0.6967773 0.7172852
vn -0.09185791 0.6889648 0.7192383
vn 0.7172852 0.6962891 -0.01522064
vn -0.7250977 -0.5810547 -0.3696289
vn -0.3989258 -0.5883789 -0.703125
vn -0.3991699 0.5883789 -0.703125
vn -0.7363281 0.4633789 -0.4929199
vn -0.09057617 0.6894531 0.71875
vn 0.71875 0.6894531 0.09204102
vn 0.7177734 -0.6962891 -0.0165863
vn 0.01513672 -0.6962891 0.7172852
vn -0.1235962 -0.6894531 -0.7138672
vn 0.7138672 -0.6894531 -0.1234131
vn 0.7172852 0.6962891 -0.01522064
vn -0.01643372 0.6967773 -0.7172852
vn -0.2961426 -0.1710205 0.9399414
vn -0.9140625 -0.1917725 0.357666
vn -0.8535156 0.3186035 0.4118652
vn -0.7539063 -0.4921875 0.4355469
vn -0.4035645 -0.7695313 0.4951172
vn -0.1063843 -0.2145996 0.9707031
vn -0.05993652 -0.2254639 0.9726563
vn 0.009117126 -0.8779297 0.4790039
vn 0.1028442 -0.862793 0.494873
vn -0.0008502007 -0.5024414 0.8647461
vn 0.7822266 -0.6230469 0.02207947
vn 0.04373169 -0.8383789 -0.543457
vn -0.1005859 -0.1583252 0.9824219
vn -0.4824219 0.7797852 0.3994141
vn -0.09381104 0.9487305 0.3012695
vn 0.9819336 0.1882324 -0.01765442
vn 0.9819336 0.1882324 -0.01765442
vn 0.7807617 -0.6206055 -0.07403564
vn 0.9951172 0.08935547 -0.04077148
vn -0.1236572 -0.3122559 -0.9418945
vn -0.02935791 -0.8554688 -0.5170898
vn -0.215332 0.1605225 -0.9633789
vn -0.4321289 0.8564453 -0.2824707
vn -0.1400146 -0.08001709 -0.9868164
vn -0.4174805 -0.7456055 -0.5195313
vn -0.08514404 -0.08630371 -0.9926758
vn -0.8544922 -0.340332 -0.3928223
vn -0.21521 -0.09088135 -0.972168
vn -0.8325195 0.3383789 -0.4384766
vn -0.21521 -0.09088135 -0.972168
vn 0.5112305 0.8129883 -0.2792969
vn -0.8325195 0.3383789 -0.4384766
vn 0.7866211 0.4914551 -0.3737793
vn -0.08514404 -0.08630371 -0.9926758
vn 0.5009766 0.7973633 0.3364258
vn 0.4431152 0.8173828 -0.3686523
vn 0.7666016 0.4663086 0.4411621
vn -0.3920898 0.862793 -0.3190918
vn -0.1400146 -0.08001709 -0.9868164
vn -0.2961426 -0.1710205 0.9399414
vn -0.8535156 0.3186035 0.4118652
vn -0.1063843 -0.2145996 0.9707031
vn 0.4406738 0.7744141 0.4541016
vn -0.05993652 -0.2254639 0.9726563
vn -0.09381104 0.9487305 0.3012695
vn -0.0008502007 -0.5024414 0.8647461
vn -0.215332 0.1605225 -0.9633789
vn -0.1236572 -0.3122559 -0.9418945
vn -0.4321289 0.8564453 -0.2824707
vn -0.4824219 0.7797852 0.3994141
vn 0.9951172 0.08935547 -0.04077148
vn 0.9819336 0.1882324 -0.01765442
vn 0.7246094 -0.1710205 0.6679688
vn -0.06524658 -0.1917725 0.9794922
vn 0.009620667 0.3186035 0.9477539
vn 0.07348633 -0.4921875 0.8671875
vn 0.2763672 -0.7695313 0.5761719
vn 0.8334961 -0.2145996 0.5092773
vn 0.8544922 -0.2254639 0.4680176
vn 0.4372559 -0.8779297 0.1955566
vn 0.4916992 -0.862793 0.1174927
vn 0.7822266 -0.5024414 0.3686523
vn 0.3527832 -0.6230469 -0.6982422
vn -0.4733887 -0.8383789 -0.270752
vn 0.8461914 -0.1583252 0.5087891
vn 0.2327881 0.9487305 0.2131348
vn 0.1561279 0.7797852 0.6064453
vn 0.4018555 0.1882324 -0.8959961
vn 0.4018555 0.1882324 -0.8959961
vn 0.2651367 -0.6206055 -0.737793
vn 0.3864746 0.08935547 -0.9179688
vn -0.9047852 -0.3122559 -0.2888184
vn -0.4804688 -0.8554688 -0.1934814
vn -0.9633789 0.1605225 -0.2149658
vn -0.4394531 0.8564453 0.270752
vn -0.9526367 -0.08001709 -0.2932129
vn -0.6479492 -0.7456055 0.1567383
vn -0.9345703 -0.08630371 -0.3452148
vn -0.7192383 -0.340332 0.605957
vn -0.9716797 -0.09088135 -0.2189941
vn -0.7509766 0.3383789 0.5668945
vn -0.9716797 -0.09088135 -0.2189941
vn -0.03540039 0.8129883 -0.581543
vn -0.7509766 0.3383789 0.5668945
vn -0.003635406 0.4914551 -0.8710938
vn -0.9345703 -0.08630371 -0.3452148
vn 0.5175781 0.7973633 -0.3103027
vn -0.1450195 0.8173828 -0.5576172
vn 0.7255859 0.4663086 -0.5063477
vn -0.4555664 0.862793 0.2189941
vn -0.9526367 -0.08001709 -0.2932129
vn 0.7246094 -0.1710205 0.6679688
vn 0.009620667 0.3186035 0.9477539
vn 0.8334961 -0.2145996 0.5092773
vn 0.5986328 0.7744141 -0.2055664
vn 0.8544922 -0.2254639 0.4680176
vn 0.2327881 0.9487305 0.2131348
vn 0.7822266 -0.5024414 0.3686523
vn -0.9633789 0.1605225 -0.2149658
vn -0.9047852 -0.3122559 -0.2888184
vn -0.4394531 0.8564453 0.270752
vn 0.1561279 0.7797852 0.6064453
vn 0.3864746 0.08935547 -0.9179688
vn 0.4018555 0.1882324 -0.8959961
vn 0.9770508 -0.1710205 -0.1270752
vn 0.7089844 -0.1917725 0.6782227
vn 0.7329102 0.3186035 0.6010742
vn 0.7124023 -0.4921875 0.5
vn 0.6191406 -0.7695313 0.1575928
vn 0.925293 -0.2145996 -0.3122559
vn 0.9072266 -0.2254639 -0.3549805
vn 0.4306641 -0.8779297 -0.2099609
vn 0.4057617 -0.862793 -0.3017578
vn 0.784668 -0.5024414 -0.3632813
vn -0.3093262 -0.6230469 -0.71875
vn -0.5117188 -0.8383789 0.1893311
vn 0.9331055 -0.1583252 -0.3222656
vn 0.3127441 0.9487305 -0.04177856
vn 0.5654297 0.7797852 0.2695313
vn -0.4294434 0.1882324 -0.8833008
vn -0.4294434 0.1882324 -0.8833008
vn -0.395752 -0.6206055 -0.6767578
vn -0.4560547 0.08935547 -0.8852539
vn -0.8022461 -0.3125 0.5087891
vn -0.4567871 -0.8554688 0.2443848
vn -0.7832031 0.1605225 0.6010742
vn -0.07427979 0.8564453 0.5107422
vn -0.8359375 -0.08001709 0.5424805
vn -0.2954102 -0.7456055 0.597168
vn -0.8642578 -0.08630371 0.4951172
vn 0.003364563 -0.340332 0.9404297
vn -0.7915039 -0.09088135 0.6044922
vn -0.04721069 0.3383789 0.9399414
vn -0.7915039 -0.09088135 0.6044922
vn -0.46875 0.8129883 -0.3459473
vn -0.04721069 0.3383789 0.9399414
vn -0.6704102 0.4914551 -0.5561523
vn -0.8642578 -0.08630371 0.4951172
vn 0.09423828 0.7973633 -0.5961914
vn -0.5209961 0.8173828 -0.2468262
vn 0.07733154 0.4663086 -0.8813477
vn -0.1244507 0.862793 0.4899902
vn -0.8359375 -0.08001709 0.5424805
vn 0.9770508 -0.1710205 -0.1270752
vn 0.7329102 0.3186035 0.6010742
vn 0.925293 -0.2145996 -0.3122559
vn 0.2264404 0.7744141 -0.5908203
vn 0.9072266 -0.2254639 -0.3549805
vn 0.3127441 0.9487305 -0.04177856
vn 0.784668 -0.5024414 -0.3632813
vn -0.7832031 0.1605225 0.6010742
vn -0.8022461 -0.3125 0.5087891
vn -0.07427979 0.8564453 0.5107422
vn 0.5654297 0.7797852 0.2695313
vn -0.4560547 0.08935547 -0.8852539
vn -0.4294434 0.1882324 -0.8833008
vn 0.2978516 -0.1710205 -0.9389648
vn 0.9145508 -0.1917725 -0.355957
vn 0.8544922 0.3186035 -0.4104004
vn 0.7543945 -0.4921875 -0.434082
vn 0.404541 -0.7695313 -0.4943848
vn 0.1082153 -0.2145996 -0.9707031
vn 0.06170654 -0.2254639 -0.972168
vn -0.008232117 -0.8779297 -0.4790039
vn -0.1019287 -0.862793 -0.4951172
vn 0.002437592 -0.5024414 -0.8647461
vn 0.4831543 0.7797852 -0.3984375
vn -0.7817383 -0.6230469 -0.02351379
vn -0.04470825 -0.8383789 0.543457
vn 0.102417 -0.1583252 -0.9819336
vn -0.9819336 0.1882324 0.01585388
vn -0.9819336 0.1882324 0.01585388
vn -0.7807617 -0.6206055 0.07263184
vn -0.9951172 0.08935547 0.03894043
vn 0.1218872 -0.3125 0.9418945
vn 0.02841187 -0.8554688 0.5170898
vn 0.213623 0.1605225 0.9638672
vn 0.4313965 0.8564453 0.2832031
vn 0.1381836 -0.08001709 0.9873047
vn 0.4165039 -0.7456055 0.5205078
vn 0.08331299 -0.08630371 0.9926758
vn 0.8535156 -0.340332 0.3945313
vn 0.2133789 -0.09088135 0.9726563
vn 0.831543 0.3383789 0.4401855
vn 0.2133789 -0.09088135 0.9726563
vn -0.5117188 0.8129883 0.2785645
vn 0.831543 0.3383789 0.4401855
vn -0.7871094 0.4914551 0.3723145
vn 0.08331299 -0.08630371 0.9926758
vn -0.5004883 0.7973633 -0.3374023
vn -0.4438477 0.8173828 0.3676758
vn -0.7661133 0.4663086 -0.442627
vn 0.3913574 0.862793 0.3198242
vn 0.1381836 -0.08001709 0.9873047
vn 0.2978516 -0.1710205 -0.9389648
vn 0.8544922 0.3186035 -0.4104004
vn 0.1082153 -0.2145996 -0.9707031
vn -0.4396973 0.7744141 -0.4550781
vn 0.06170654 -0.2254639 -0.972168
vn 0.09436035 0.9487305 -0.3012695
vn 0.4831543 0.7797852 -0.3984375
vn 0.213623 0.1605225 0.9638672
vn 0.1218872 -0.3125 0.9418945
vn 0.4313965 0.8564453 0.2832031
vn -0.9951172 0.08935547 0.03894043
vn -0.9819336 0.1882324 0.01585388
vn -0.737793 -0.1710205 -0.652832
vn 0.04516602 -0.1917725 -0.9804688
vn -0.02905273 0.3186035 -0.9472656
vn -0.09124756 -0.4921875 -0.8657227
vn -0.2880859 -0.7695313 -0.5703125
vn -0.84375 -0.2145996 -0.4921875
vn -0.8637695 -0.2254639 -0.4504395
vn -0.4414063 -0.8779297 -0.1865234
vn -0.4938965 -0.862793 -0.1074219
vn -0.7895508 -0.5024414 -0.3525391
vn -0.3383789 -0.6230469 0.7055664
vn 0.4790039 -0.8383789 0.2609863
vn -0.8564453 -0.1583252 -0.4914551
vn -0.2371826 0.9487305 -0.208374
vn -0.1685791 0.7797852 -0.6030273
vn -0.3833008 0.1882324 0.9042969
vn -0.3833008 0.1882324 0.9042969
vn -0.2498779 -0.6206055 0.7431641
vn -0.3676758 0.08935547 0.9257813
vn 0.9106445 -0.3125 0.2702637
vn 0.484375 -0.8554688 0.1835938
vn 0.9677734 0.1605225 0.1950684
vn 0.4338379 0.8564453 -0.2797852
vn 0.9584961 -0.08001709 0.2734375
vn 0.6445313 -0.7456055 -0.1699219
vn 0.9414063 -0.08630371 0.3259277
vn 0.706543 -0.340332 -0.6206055
vn 0.9755859 -0.09088135 0.1989746
vn 0.7392578 0.3383789 -0.5820313
vn 0.9755859 -0.09088135 0.1989746
vn 0.04733276 0.8129883 0.5805664
vn 0.7392578 0.3383789 -0.5820313
vn 0.02149963 0.4914551 0.8706055
vn 0.9414063 -0.08630371 0.3259277
vn -0.5112305 0.7973633 0.3208008
vn 0.1563721 0.8173828 0.5546875
vn -0.7148438 0.4663086 0.5209961
vn 0.4511719 0.862793 -0.2282715
vn 0.9584961 -0.08001709 0.2734375
vn -0.737793 -0.1710205 -0.652832
vn -0.02905273 0.3186035 -0.9472656
vn -0.84375 -0.2145996 -0.4921875
vn -0.5942383 0.7744141 0.2177734
vn -0.8637695 -0.2254639 -0.4504395
vn -0.2371826 0.9487305 -0.208374
vn -0.7895508 -0.5024414 -0.3525391
vn 0.9677734 0.1605225 0.1950684
vn 0.9106445 -0.3125 0.2702637
vn 0.4338379 0.8564453 -0.2797852
vn -0.1685791 0.7797852 -0.6030273
vn -0.3676758 0.08935547 0.9257813
vn -0.3833008 0.1882324 0.9042969
vn -0.4094238 0.3925781 -0.8237305
vn -0.5708008 -0.7539063 -0.3254395
vn -0.340332 -0.7177734 -0.6074219
vn -0.01477051 -0.7651367 -0.644043
vn -0.8100586 0.2685547 -0.5209961
vn -0.9052734 0.4240723 0.02084351
vn -0.7226563 -0.6914063 0.01657104
vn -0.5551758 -0.7539063 0.3510742
vn -0.7856445 0.2685547 0.5576172
vn -0.3120117 -0.7177734 0.6225586
vn -0.1993408 0.9799805 0.004562378
vn -0.3710938 0.3925781 0.8413086
vn 0.01478577 -0.7651367 0.6435547
vn -0.3110352 0.9145508 0.2583008
vn -0.3225098 0.9145508 -0.2436523
vn -0.1358643 0.9394531 -0.3144531
vn 0.09643555 0.9907227 -0.09320068
vn -0.02212524 0.269043 -0.9628906
vn -0.009109497 0.9179688 -0.3964844
vn 0.0154953 1 0.01348114
vn 0.3713379 0.3925781 -0.8413086
vn 0.3120117 -0.7177734 -0.6225586
vn 0.5551758 -0.7539063 -0.3513184
vn 0.1206055 0.9394531 -0.3205566
vn 0.3110352 0.9145508 -0.2583008
vn 0.7856445 0.2685547 -0.5576172
vn 0.7226563 -0.6914063 -0.01661682
vn -0.003427505 0.9887695 -0.1480713
vn -0.1062622 0.9897461 -0.09417725
vn 0.9052734 0.4240723 -0.02078247
vn -0.2427979 0.8769531 -0.4150391
vn -0.01487732 1 0.01422119
vn -0.5170898 0.8027344 -0.2976074
vn 0.8105469 0.2683105 0.5209961
vn 0.5717773 -0.7539063 0.322998
vn 0.4094238 0.3925781 0.8237305
vn 0.340332 -0.7177734 0.6074219
vn 0.02217102 0.2685547 0.9628906
vn 0.135376 0.9394531 0.3144531
vn 0.3225098 0.9145508 0.2435303
vn -0.1202393 0.9394531 0.3208008
vn 0.009109497 0.9179688 0.3964844
vn -0.1020508 0.9897461 0.09869385
vn 0.2963867 0.9550781 -0.007297516
vn -0.08703613 0.9960938 0.00198555
vn -0.01551819 1 -0.01357269
vn 0.01485443 1 -0.01417542
vn -0.4567871 0.8896484 0.01049042
vn -0.8447266 0.534668 0.01939392
vn -0.5024414 0.8027344 0.3210449
vn 0.1018066 0.9897461 -0.09887695
vn 0.2235107 0.8769531 -0.4257813
vn 0.003396988 0.9887695 0.1479492
vn 0.01377106 0.800293 0.5996094
vn -0.2235107 0.8769531 0.4257813
vn -0.7636719 0.4602051 0.4523926
vn 0.5029297 0.8027344 -0.3208008
vn 0.7636719 0.4604492 -0.4528809
vn -0.01377869 0.7998047 -0.6000977
vn 0.4567871 0.8896484 -0.01049042
vn -0.4091797 0.5258789 0.7456055
vn 0.4091797 0.5258789 -0.7456055
vn 0.1062012 0.9897461 0.09368896
vn 0.2427979 0.8769531 0.4150391
vn 0.5170898 0.8027344 0.2976074
vn 0.4431152 0.5258789 0.7260742
vn 0.02041626 0.4567871 0.8891602
vn 0.7841797 0.4602051 0.4165039
vn 0.8447266 0.534668 -0.01940918
vn -0.309082 0.7763672 0.5493164
vn 0.02279663 0.1188354 0.9926758
vn -0.8579102 0.1895752 0.4780273
vn 0.3339844 0.7763672 0.534668
vn 0.8789063 0.1895752 0.4379883
vn 0.6108398 0.7915039 -0.01405334
vn 0.8579102 0.1895752 -0.4777832
vn -0.6108398 0.7915039 0.01405334
vn 0.309082 0.7763672 -0.5493164
vn -0.8789063 0.1895752 -0.4379883
vn -0.7841797 0.4602051 -0.4157715
vn -0.3339844 0.7763672 -0.534668
vn -0.02043152 0.4567871 -0.8891602
vn -0.02275085 0.1188354 -0.9926758
vn -0.4431152 0.5258789 -0.7260742
vn -0.2445068 -0.9536133 -0.1763916
vn 0.5717773 -0.7539063 0.322998
vn 0.7226563 -0.6914063 -0.01661682
vn 0.340332 -0.7177734 0.6074219
vn -0.02999878 -0.9995117 0.0006961823
vn -0.03796387 -0.9951172 -0.09063721
vn 0.5551758 -0.7539063 -0.3513184
vn -0.236084 -0.9536133 0.1875
vn 0.3120117 -0.7177734 -0.6225586
vn -0.03378296 -0.9951172 0.09228516
vn 0.01478577 -0.7651367 0.6435547
vn -0.007083893 -0.9516602 -0.3078613
vn 0.03378296 -0.9951172 -0.09228516
vn -0.3120117 -0.7177734 0.6225586
vn -0.01477051 -0.7651367 -0.644043
vn 0.007080078 -0.9516602 0.3076172
vn 0.236084 -0.9536133 -0.1875
vn -0.5551758 -0.7539063 0.3510742
vn -0.7226563 -0.6914063 0.01657104
vn 0.02999878 -0.9995117 -0.0006814003
vn 0.03796387 -0.9951172 0.09063721
vn -0.340332 -0.7177734 -0.6074219
vn -0.5708008 -0.7539063 -0.3254395
vn 0.2445068 -0.9536133 0.1765137
g Small_Temple_Lower_0
f 3/3/3 2/2/2 1/1/1
f 2/2/2 4/4/4 1/1/1
f 1/1/1 4/4/4 5/5/5
f 6/6/6 1/1/1 5/5/5
f 6/6/6 5/5/5 7/7/7
f 5/5/5 8/8/8 7/7/7
f 7/7/7 8/8/8 9/9/9
f 10/10/10 7/7/7 9/9/9
f 11/11/11 10/10/10 9/9/9
f 9/9/9 12/12/12 11/11/11
f 13/13/13 10/10/10 11/11/11
f 10/10/10 13/13/13 14/14/14
f 13/13/13 15/15/15 14/14/14
f 15/15/15 13/13/13 16/16/16
f 17/17/17 13/13/13 11/11/11
f 17/17/17 11/11/11 18/18/18
f 12/12/12 18/18/18 11/11/11
f 19/19/19 17/17/17 18/18/18
f 12/12/12 20/20/20 18/18/18
f 18/18/18 20/20/20 19/19/19
f 12/12/12 21/21/21 20/20/20
f 20/20/20 22/22/22 19/19/19
f 19/19/19 22/22/22 23/23/23
f 21/21/21 24/24/24 20/20/20
f 21/21/21 25/25/25 24/24/24
f 25/25/25 26/26/26 24/24/24
f 25/25/25 27/27/27 26/26/26
f 27/27/27 28/28/28 26/26/26
f 27/27/27 29/29/29 28/28/28
f 32/32/32 31/31/31 30/30/30
f 31/31/31 33/33/33 30/30/30
f 30/30/30 33/33/33 34/34/34
f 31/31/31 35/35/35 33/33/33
f 33/33/33 36/36/36 34/34/34
f 35/35/35 37/37/37 33/33/33
f 33/33/33 37/37/37 36/36/36
f 34/34/34 36/36/36 38/38/38
f 39/39/39 34/34/34 38/38/38
f 40/40/40 37/37/37 35/35/35
f 41/41/41 40/40/40 35/35/35
f 37/37/37 40/40/40 42/42/42
f 37/37/37 43/43/43 36/36/36
f 43/43/43 37/37/37 42/42/42
f 36/36/36 43/43/43 38/38/38
f 43/43/43 42/42/42 44/44/44
f 45/45/45 43/43/43 44/44/44
f 43/43/43 45/45/45 38/38/38
f 45/45/45 44/44/44 46/46/46
f 47/47/47 39/39/39 38/38/38
f 48/48/48 39/39/39 47/47/47
f 49/49/49 47/47/47 38/38/38
f 38/38/38 45/45/45 49/49/49
f 45/45/45 50/50/50 49/49/49
f 51/51/51 49/49/49 50/50/50
f 52/52/52 51/51/51 50/50/50
f 55/55/55 54/54/54 53/53/53
f 56/56/56 55/55/55 53/53/53
f 59/59/59 58/58/58 57/57/57
f 60/60/60 59/59/59 57/57/57
f 63/63/63 62/62/62 61/61/61
f 64/64/64 63/63/63 61/61/61
f 67/67/67 66/66/66 65/65/65
f 68/68/68 67/67/67 65/65/65
f 71/71/71 70/70/70 69/69/69
f 72/72/72 71/71/71 69/69/69
f 75/75/75 74/74/74 73/73/73
f 76/76/76 75/75/75 73/73/73
f 79/79/79 78/78/78 77/77/77
f 80/80/80 79/79/79 77/77/77
f 83/83/83 82/82/82 81/81/81
f 84/84/84 83/83/83 81/81/81
f 87/87/87 86/86/86 85/85/85
f 88/88/88 87/87/87 85/85/85
f 91/91/91 90/90/90 89/89/89
f 92/92/92 91/91/91 89/89/89
f 95/95/95 94/94/94 93/93/93
f 96/96/96 95/95/95 93/93/93
f 99/99/99 98/98/98 97/97/97
f 100/100/100 99/99/99 97/97/97
f 103/103/103 102/102/102 101/101/101
f 104/104/104 103/103/103 101/101/101
f 107/107/107 106/106/106 105/105/105
f 108/108/108 107/107/107 105/105/105
f 111/111/111 110/110/110 109/109/109
f 112/112/112 111/111/111 109/109/109
f 115/115/115 114/114/114 113/113/113
f 116/116/116 115/115/115 113/113/113
f 119/119/119 118/118/118 117/117/117
f 120/120/120 119/119/119 117/117/117
f 123/123/123 122/122/122 121/121/121
f 124/124/124 123/123/123 121/121/121
f 127/127/127 126/126/126 125/125/125
f 128/128/128 127/127/127 125/125/125
f 131/131/131 130/130/130 129/129/129
f 130/130/130 132/132/132 129/129/129
f 132/132/132 133/133/133 129/129/129
f 133/133/133 132/132/132 134/134/134
f 133/133/133 135/135/135 129/129/129
f 129/129/129 135/135/135 136/136/136
f 137/137/137 129/129/129 136/136/136
f 135/135/135 133/133/133 138/138/138
f 135/135/135 138/138/138 139/139/139
f 140/140/140 135/135/135 139/139/139
f 141/141/141 139/139/139 138/138/138
f 142/142/142 141/141/141 138/138/138
f 133/133/133 143/143/143 138/138/138
f 144/144/144 139/139/139 141/141/141
f 133/133/133 145/145/145 143/143/143
f 145/145/145 144/144/144 143/143/143
f 143/143/143 144/144/144 146/146/146
f 144/144/144 147/147/147 146/146/146
f 147/147/147 144/144/144 141/141/141
f 141/141/141 148/148/148 147/147/147
f 148/148/148 141/141/141 149/149/149
f 148/148/148 150/150/150 147/147/147
f 150/150/150 148/148/148 151/151/151
f 152/152/152 150/150/150 151/151/151
f 150/150/150 153/153/153 147/147/147
f 154/154/154 148/148/148 149/149/149
f 154/154/154 149/149/149 153/153/153
f 153/153/153 155/155/155 147/147/147
f 149/149/149 155/155/155 153/153/153
f 155/155/155 149/149/149 156/156/156
f 157/157/157 155/155/155 156/156/156
f 158/158/158 154/154/154 153/153/153
f 159/159/159 158/158/158 153/153/153
f 159/159/159 153/153/153 160/160/160
f 161/161/161 159/159/159 160/160/160
f 162/162/162 159/159/159 161/161/161
f 134/134/134 162/162/162 161/161/161
f 134/134/134 161/161/161 163/163/163
f 154/154/154 158/158/158 163/163/163
f 164/164/164 154/154/154 163/163/163
f 163/163/163 158/158/158 137/137/137
f 137/137/137 134/134/134 163/163/163
f 158/158/158 165/165/165 137/137/137
f 166/166/166 134/134/134 137/137/137
f 166/166/166 133/133/133 134/134/134
f 136/136/136 166/166/166 137/137/137
f 167/167/167 166/166/166 136/136/136
f 168/168/168 167/167/167 136/136/136
f 171/171/171 170/170/170 169/169/169
f 172/172/172 171/171/171 169/169/169
f 175/175/175 174/174/174 173/173/173
f 176/176/176 175/175/175 173/173/173
f 179/179/179 178/178/178 177/177/177
f 180/180/180 179/179/179 177/177/177
f 183/183/183 182/182/182 181/181/181
f 184/184/184 183/183/183 181/181/181
f 187/187/187 186/186/186 185/185/185
f 188/188/188 187/187/187 185/185/185
f 191/191/191 190/190/190 189/189/189
f 190/190/190 192/192/192 189/189/189
f 189/189/189 192/192/192 193/193/193
f 194/194/194 189/189/189 193/193/193
f 194/194/194 193/193/193 195/195/195
f 193/193/193 196/196/196 195/195/195
f 195/195/195 196/196/196 197/197/197
f 198/198/198 195/195/195 197/197/197
f 199/199/199 198/198/198 197/197/197
f 197/197/197 200/200/200 199/199/199
f 201/201/201 198/198/198 199/199/199
f 198/198/198 201/201/201 202/202/202
f 202/202/202 203/203/203 198/198/198
f 202/202/202 201/201/201 204/204/204
f 205/205/205 201/201/201 199/199/199
f 205/205/205 199/199/199 206/206/206
f 200/200/200 206/206/206 199/199/199
f 207/207/207 205/205/205 206/206/206
f 200/200/200 208/208/208 206/206/206
f 206/206/206 208/208/208 207/207/207
f 200/200/200 209/209/209 208/208/208
f 208/208/208 210/210/210 207/207/207
f 207/207/207 210/210/210 211/211/211
f 209/209/209 212/212/212 208/208/208
f 209/209/209 213/213/213 212/212/212
f 213/213/213 214/214/214 212/212/212
f 213/213/213 215/215/215 214/214/214
f 215/215/215 216/216/216 214/214/214
f 215/215/215 217/217/217 216/216/216
f 220/220/220 219/219/219 218/218/218
f 219/219/219 221/221/221 218/218/218
f 218/218/218 221/221/221 222/222/222
f 219/219/219 223/223/223 221/221/221
f 221/221/221 224/224/224 222/222/222
f 223/223/223 225/225/225 221/221/221
f 221/221/221 225/225/225 224/224/224
f 222/222/222 224/224/224 226/226/226
f 227/227/227 222/222/222 226/226/226
f 228/228/228 225/225/225 223/223/223
f 229/229/229 228/228/228 223/223/223
f 225/225/225 228/228/228 230/230/230
f 225/225/225 231/231/231 224/224/224
f 231/231/231 225/225/225 230/230/230
f 224/224/224 231/231/231 226/226/226
f 231/231/231 230/230/230 232/232/232
f 233/233/233 231/231/231 232/232/232
f 231/231/231 233/233/233 226/226/226
f 233/233/233 232/232/232 234/234/234
f 235/235/235 227/227/227 226/226/226
f 236/236/236 227/227/227 235/235/235
f 237/237/237 235/235/235 226/226/226
f 226/226/226 233/233/233 237/237/237
f 233/233/233 238/238/238 237/237/237
f 239/239/239 237/237/237 238/238/238
f 240/240/240 239/239/239 238/238/238
f 243/243/243 242/242/242 241/241/241
f 242/242/242 244/244/244 241/241/241
f 241/241/241 244/244/244 245/245/245
f 246/246/246 241/241/241 245/245/245
f 246/246/246 245/245/245 247/247/247
f 245/245/245 248/248/248 247/247/247
f 247/247/247 248/248/248 249/249/249
f 250/250/250 247/247/247 249/249/249
f 251/251/251 250/250/250 249/249/249
f 249/249/249 252/252/252 251/251/251
f 253/253/253 250/250/250 251/251/251
f 250/250/250 253/253/253 254/254/254
f 253/253/253 255/255/255 254/254/254
f 255/255/255 253/253/253 256/256/256
f 257/257/257 253/253/253 251/251/251
f 257/257/257 251/251/251 258/258/258
f 252/252/252 258/258/258 251/251/251
f 259/259/259 257/257/257 258/258/258
f 252/252/252 260/260/260 258/258/258
f 258/258/258 260/260/260 259/259/259
f 252/252/252 261/261/261 260/260/260
f 260/260/260 262/262/262 259/259/259
f 259/259/259 262/262/262 263/263/263
f 261/261/261 264/264/264 260/260/260
f 261/261/261 265/265/265 264/264/264
f 265/265/265 266/266/266 264/264/264
f 265/265/265 267/267/267 266/266/266
f 267/267/267 268/268/268 266/266/266
f 267/267/267 269/269/269 268/268/268
f 272/272/272 271/271/271 270/270/270
f 271/271/271 273/273/273 270/270/270
f 270/270/270 273/273/273 274/274/274
f 271/271/271 275/275/275 273/273/273
f 273/273/273 276/276/276 274/274/274
f 275/275/275 277/277/277 273/273/273
f 273/273/273 277/277/277 276/276/276
f 274/274/274 276/276/276 278/278/278
f 279/279/279 274/274/274 278/278/278
f 280/280/280 277/277/277 275/275/275
f 281/281/281 280/280/280 275/275/275
f 277/277/277 280/280/280 282/282/282
f 277/277/277 283/283/283 276/276/276
f 283/283/283 277/277/277 282/282/282
f 276/276/276 283/283/283 278/278/278
f 283/283/283 282/282/282 284/284/284
f 285/285/285 283/283/283 284/284/284
f 283/283/283 285/285/285 278/278/278
f 285/285/285 284/284/284 286/286/286
f 287/287/287 279/279/279 278/278/278
f 288/288/288 279/279/279 287/287/287
f 289/289/289 287/287/287 278/278/278
f 278/278/278 285/285/285 289/289/289
f 285/285/285 290/290/290 289/289/289
f 291/291/291 289/289/289 290/290/290
f 292/292/292 291/291/291 290/290/290
f 295/295/295 294/294/294 293/293/293
f 294/294/294 296/296/296 293/293/293
f 293/293/293 296/296/296 297/297/297
f 298/298/298 293/293/293 297/297/297
f 298/298/298 297/297/297 299/299/299
f 297/297/297 300/300/300 299/299/299
f 299/299/299 300/300/300 301/301/301
f 302/302/302 299/299/299 301/301/301
f 303/303/303 302/302/302 301/301/301
f 301/301/301 304/304/304 303/303/303
f 305/305/305 302/302/302 303/303/303
f 302/302/302 305/305/305 306/306/306
f 305/305/305 307/307/307 306/306/306
f 307/307/307 305/305/305 308/308/308
f 309/309/309 305/305/305 303/303/303
f 309/309/309 303/303/303 310/310/310
f 304/304/304 310/310/310 303/303/303
f 311/311/311 309/309/309 310/310/310
f 304/304/304 312/312/312 310/310/310
f 310/310/310 312/312/312 311/311/311
f 304/304/304 313/313/313 312/312/312
f 312/312/312 314/314/314 311/311/311
f 311/311/311 314/314/314 315/315/315
f 313/313/313 316/316/316 312/312/312
f 313/313/313 317/317/317 316/316/316
f 317/317/317 318/318/318 316/316/316
f 317/317/317 319/319/319 318/318/318
f 319/319/319 320/320/320 318/318/318
f 319/319/319 321/321/321 320/320/320
f 324/324/324 323/323/323 322/322/322
f 323/323/323 325/325/325 322/322/322
f 322/322/322 325/325/325 326/326/326
f 323/323/323 327/327/327 325/325/325
f 325/325/325 328/328/328 326/326/326
f 327/327/327 329/329/329 325/325/325
f 325/325/325 329/329/329 328/328/328
f 326/326/326 328/328/328 330/330/330
f 331/331/331 326/326/326 330/330/330
f 332/332/332 329/329/329 327/327/327
f 333/333/333 332/332/332 327/327/327
f 329/329/329 332/332/332 334/334/334
f 329/329/329 335/335/335 328/328/328
f 335/335/335 329/329/329 334/334/334
f 328/328/328 335/335/335 330/330/330
f 335/335/335 334/334/334 336/336/336
f 337/337/337 335/335/335 336/336/336
f 335/335/335 337/337/337 330/330/330
f 337/337/337 336/336/336 338/338/338
f 339/339/339 331/331/331 330/330/330
f 340/340/340 331/331/331 339/339/339
f 341/341/341 339/339/339 330/330/330
f 330/330/330 337/337/337 341/341/341
f 337/337/337 342/342/342 341/341/341
f 343/343/343 341/341/341 342/342/342
f 344/344/344 343/343/343 342/342/342
f 347/347/347 346/346/346 345/345/345
f 346/346/346 348/348/348 345/345/345
f 345/345/345 348/348/348 349/349/349
f 350/350/350 345/345/345 349/349/349
f 350/350/350 349/349/349 351/351/351
f 349/349/349 352/352/352 351/351/351
f 351/351/351 352/352/352 353/353/353
f 354/354/354 351/351/351 353/353/353
f 351/351/351 354/354/354 355/355/355
f 356/356/356 354/354/354 353/353/353
f 353/353/353 357/357/357 356/356/356
f 354/354/354 358/358/358 355/355/355
f 358/358/358 354/354/354 356/356/356
f 355/355/355 358/358/358 359/359/359
f 360/360/360 358/358/358 356/356/356
f 360/360/360 356/356/356 361/361/361
f 357/357/357 361/361/361 356/356/356
f 362/362/362 360/360/360 361/361/361
f 357/357/357 363/363/363 361/361/361
f 361/361/361 363/363/363 362/362/362
f 357/357/357 364/364/364 363/363/363
f 363/363/363 365/365/365 362/362/362
f 362/362/362 365/365/365 366/366/366
f 364/364/364 367/367/367 363/363/363
f 364/364/364 368/368/368 367/367/367
f 368/368/368 369/369/369 367/367/367
f 368/368/368 370/370/370 369/369/369
f 370/370/370 371/371/371 369/369/369
f 370/370/370 372/372/372 371/371/371
f 375/375/375 374/374/374 373/373/373
f 374/374/374 376/376/376 373/373/373
f 373/373/373 376/376/376 377/377/377
f 374/374/374 378/378/378 376/376/376
f 376/376/376 379/379/379 377/377/377
f 378/378/378 380/380/380 376/376/376
f 376/376/376 380/380/380 379/379/379
f 377/377/377 379/379/379 381/381/381
f 382/382/382 377/377/377 381/381/381
f 383/383/383 380/380/380 378/378/378
f 384/384/384 383/383/383 378/378/378
f 380/380/380 383/383/383 385/385/385
f 380/380/380 386/386/386 379/379/379
f 386/386/386 380/380/380 385/385/385
f 379/379/379 386/386/386 381/381/381
f 386/386/386 385/385/385 387/387/387
f 388/388/388 386/386/386 387/387/387
f 386/386/386 388/388/388 381/381/381
f 389/389/389 388/388/388 387/387/387
f 390/390/390 382/382/382 381/381/381
f 391/391/391 382/382/382 390/390/390
f 392/392/392 390/390/390 381/381/381
f 381/381/381 388/388/388 392/392/392
f 388/388/388 389/389/389 392/392/392
f 393/393/393 392/392/392 389/389/389
f 394/394/394 393/393/393 389/389/389
f 397/397/397 396/396/396 395/395/395
f 396/396/396 398/398/398 395/395/395
f 395/395/395 398/398/398 399/399/399
f 400/400/400 395/395/395 399/399/399
f 400/400/400 399/399/399 401/401/401
f 399/399/399 402/402/402 401/401/401
f 401/401/401 402/402/402 403/403/403
f 404/404/404 401/401/401 403/403/403
f 405/405/405 404/404/404 403/403/403
f 403/403/403 406/406/406 405/405/405
f 407/407/407 404/404/404 405/405/405
f 404/404/404 407/407/407 408/408/408
f 407/407/407 409/409/409 408/408/408
f 409/409/409 407/407/407 410/410/410
f 411/411/411 407/407/407 405/405/405
f 411/411/411 405/405/405 412/412/412
f 406/406/406 412/412/412 405/405/405
f 413/413/413 411/411/411 412/412/412
f 406/406/406 414/414/414 412/412/412
f 412/412/412 414/414/414 413/413/413
f 406/406/406 415/415/415 414/414/414
f 414/414/414 416/416/416 413/413/413
f 413/413/413 416/416/416 417/417/417
f 415/415/415 418/418/418 414/414/414
f 415/415/415 419/419/419 418/418/418
f 419/419/419 420/420/420 418/418/418
f 419/419/419 421/421/421 420/420/420
f 421/421/421 422/422/422 420/420/420
f 421/421/421 423/423/423 422/422/422
f 426/426/426 425/425/425 424/424/424
f 425/425/425 427/427/427 424/424/424
f 424/424/424 427/427/427 428/428/428
f 425/425/425 429/429/429 427/427/427
f 427/427/427 430/430/430 428/428/428
f 429/429/429 431/431/431 427/427/427
f 427/427/427 431/431/431 430/430/430
f 428/428/428 430/430/430 432/432/432
f 433/433/433 428/428/428 432/432/432
f 434/434/434 431/431/431 429/429/429
f 435/435/435 434/434/434 429/429/429
f 431/431/431 434/434/434 436/436/436
f 431/431/431 437/437/437 430/430/430
f 437/437/437 431/431/431 436/436/436
f 430/430/430 437/437/437 432/432/432
f 437/437/437 436/436/436 438/438/438
f 439/439/439 437/437/437 438/438/438
f 437/437/437 439/439/439 432/432/432
f 439/439/439 438/438/438 440/440/440
f 441/441/441 433/433/433 432/432/432
f 442/442/442 433/433/433 441/441/441
f 443/443/443 441/441/441 432/432/432
f 432/432/432 439/439/439 443/443/443
f 439/439/439 444/444/444 443/443/443
f 445/445/445 443/443/443 444/444/444
f 446/446/446 445/445/445 444/444/444
f 449/449/449 448/448/448 447/447/447
f 450/450/450 449/449/449 447/447/447
f 448/448/448 451/451/451 447/447/447
f 451/451/451 448/448/448 452/452/452
f 448/448/448 453/453/453 452/452/452
f 453/453/453 454/454/454 452/452/452
f 454/454/454 455/455/455 452/452/452
f 455/455/455 454/454/454 456/456/456
f 451/451/451 452/452/452 457/457/457
f 457/457/457 452/452/452 455/455/455
f 458/458/458 455/455/455 456/456/456
f 456/456/456 459/459/459 458/458/458
f 460/460/460 457/457/457 455/455/455
f 460/460/460 455/455/455 458/458/458
f 461/461/461 451/451/451 457/457/457
f 447/447/447 451/451/451 462/462/462
f 451/451/451 461/461/461 462/462/462
f 463/463/463 457/457/457 460/460/460
f 457/457/457 463/463/463 461/461/461
f 464/464/464 450/450/450 447/447/447
f 447/447/447 462/462/462 465/465/465
f 464/464/464 447/447/447 465/465/465
f 466/466/466 462/462/462 461/461/461
f 465/465/465 462/462/462 466/466/466
f 464/464/464 467/467/467 450/450/450
f 467/467/467 468/468/468 450/450/450
f 468/468/468 467/467/467 469/469/469
f 465/465/465 470/470/470 464/464/464
f 470/470/470 467/467/467 464/464/464
f 470/470/470 471/471/471 467/467/467
f 467/467/467 472/472/472 469/469/469
f 471/471/471 472/472/472 467/467/467
f 473/473/473 469/469/469 472/472/472
f 470/470/470 465/465/465 474/474/474
f 474/474/474 465/465/465 466/466/466
f 475/475/475 466/466/466 461/461/461
f 463/463/463 475/475/475 461/461/461
f 476/476/476 473/473/473 472/472/472
f 472/472/472 471/471/471 476/476/476
f 466/466/466 475/475/475 477/477/477
f 474/474/474 466/466/466 477/477/477
f 470/470/470 478/478/478 471/471/471
f 478/478/478 470/470/470 474/474/474
f 475/475/475 463/463/463 479/479/479
f 475/475/475 479/479/479 477/477/477
f 473/473/473 476/476/476 480/480/480
f 481/481/481 473/473/473 480/480/480
f 481/481/481 480/480/480 482/482/482
f 483/483/483 481/481/481 482/482/482
f 483/483/483 482/482/482 459/459/459
f 482/482/482 484/484/484 459/459/459
f 459/459/459 484/484/484 458/458/458
f 482/482/482 480/480/480 485/485/485
f 482/482/482 485/485/485 484/484/484
f 480/480/480 476/476/476 486/486/486
f 480/480/480 486/486/486 485/485/485
f 487/487/487 458/458/458 484/484/484
f 487/487/487 460/460/460 458/458/458
f 485/485/485 488/488/488 484/484/484
f 488/488/488 487/487/487 484/484/484
f 460/460/460 487/487/487 489/489/489
f 489/489/489 463/463/463 460/460/460
f 476/476/476 490/490/490 486/486/486
f 471/471/471 490/490/490 476/476/476
f 491/491/491 490/490/490 471/471/471
f 486/486/486 490/490/490 491/491/491
f 485/485/485 486/486/486 492/492/492
f 485/485/485 492/492/492 488/488/488
f 493/493/493 487/487/487 488/488/488
f 487/487/487 493/493/493 489/489/489
f 463/463/463 489/489/489 494/494/494
f 463/463/463 494/494/494 479/479/479
f 494/494/494 495/495/495 479/479/479
f 489/489/489 496/496/496 494/494/494
f 489/489/489 493/493/493 496/496/496
f 495/495/495 494/494/494 496/496/496
f 497/497/497 491/491/491 471/471/471
f 478/478/478 497/497/497 471/471/471
f 478/478/478 498/498/498 497/497/497
f 478/478/478 474/474/474 498/498/498
f 499/499/499 493/493/493 488/488/488
f 493/493/493 499/499/499 500/500/500
f 492/492/492 499/499/499 488/488/488
f 500/500/500 499/499/499 492/492/492
f 493/493/493 501/501/501 496/496/496
f 501/501/501 493/493/493 500/500/500
f 496/496/496 501/501/501 502/502/502
f 502/502/502 495/495/495 496/496/496
f 497/497/497 503/503/503 491/491/491
f 498/498/498 503/503/503 497/497/497
f 504/504/504 503/503/503 498/498/498
f 474/474/474 505/505/505 498/498/498
f 505/505/505 474/474/474 477/477/477
f 503/503/503 506/506/506 491/491/491
f 503/503/503 504/504/504 506/506/506
f 501/501/501 500/500/500 507/507/507
f 501/501/501 507/507/507 502/502/502
f 508/508/508 504/504/504 498/498/498
f 508/508/508 498/498/498 505/505/505
f 491/491/491 506/506/506 509/509/509
f 509/509/509 486/486/486 491/491/491
f 486/486/486 509/509/509 492/492/492
f 492/492/492 509/509/509 510/510/510
f 510/510/510 500/500/500 492/492/492
f 509/509/509 511/511/511 510/510/510
f 506/506/506 511/511/511 509/509/509
f 510/510/510 512/512/512 500/500/500
f 512/512/512 510/510/510 511/511/511
f 500/500/500 513/513/513 507/507/507
f 512/512/512 513/513/513 500/500/500
f 514/514/514 511/511/511 506/506/506
f 514/514/514 512/512/512 511/511/511
f 504/504/504 515/515/515 506/506/506
f 515/515/515 514/514/514 506/506/506
f 516/516/516 507/507/507 513/513/513
f 507/507/507 516/516/516 502/502/502
f 517/517/517 516/516/516 513/513/513
f 516/516/516 518/518/518 502/502/502
f 519/519/519 517/517/517 513/513/513
f 512/512/512 519/519/519 513/513/513
f 512/512/512 514/514/514 519/519/519
f 514/514/514 520/520/520 519/519/519
f 502/502/502 518/518/518 495/495/495
f 520/520/520 514/514/514 521/521/521
f 514/514/514 515/515/515 521/521/521
f 521/521/521 515/515/515 504/504/504
f 522/522/522 521/521/521 504/504/504
f 518/518/518 523/523/523 495/495/495
f 522/522/522 504/504/504 524/524/524
f 495/495/495 523/523/523 525/525/525
f 504/504/504 508/508/508 524/524/524
f 526/526/526 495/495/495 525/525/525
f 495/495/495 526/526/526 479/479/479
f 525/525/525 527/527/527 526/526/526
f 479/479/479 526/526/526 477/477/477
f 508/508/508 528/528/528 524/524/524
f 528/528/528 529/529/529 524/524/524
f 528/528/528 508/508/508 505/505/505
f 530/530/530 527/527/527 529/529/529
f 527/527/527 530/530/530 526/526/526
f 526/526/526 530/530/530 477/477/477
f 477/477/477 530/530/530 505/505/505
f 528/528/528 530/530/530 529/529/529
f 530/530/530 528/528/528 505/505/505
f 533/533/533 532/532/532 531/531/531
f 532/532/532 534/534/534 531/531/531
f 535/535/535 533/533/533 531/531/531
f 534/534/534 536/536/536 531/531/531
f 533/533/533 535/535/535 537/537/537
f 535/535/535 538/538/538 537/537/537
f 537/537/537 538/538/538 539/539/539
f 538/538/538 540/540/540 539/539/539
f 534/534/534 541/541/541 536/536/536
f 541/541/541 542/542/542 536/536/536
f 542/542/542 541/541/541 543/543/543
f 541/541/541 544/544/544 543/543/543
f 539/539/539 540/540/540 545/545/545
f 540/540/540 546/546/546 545/545/545
f 543/543/543 544/544/544 547/547/547
f 544/544/544 548/548/548 547/547/547
f 548/548/548 549/549/549 547/547/547
f 549/549/549 550/550/550 547/547/547
f 545/545/545 546/546/546 551/551/551
f 552/552/552 545/545/545 551/551/551
f 550/550/550 549/549/549 553/553/553
f 553/553/553 552/552/552 551/551/551
f 554/554/554 550/550/550 553/553/553
f 554/554/554 553/553/553 551/551/551
