g SoundSymbol
v 0.02767069 0.2129496 9.77707E-10
v -0.002985512 0.256516 3.23789E-09
v -0.004018631 0.2593289 -0.01118365
v 0.02467404 0.2129496 -0.01118365
v -0.006841176 0.267014 -0.01937065
v 0.02467404 -0.09601972 -0.01118365
v 0.02767069 -0.09601972 -9.777066E-10
v 0.02754259 -0.1524659 -4.169473E-09
v 0.01648703 0.2129496 -0.01937065
v -0.01069685 0.277512 -0.0223673
v 0.01648703 -0.09601972 -0.01937065
v 0.02570035 -0.1501024 -0.01118366
v 0.02570035 -0.1501024 0.01118365
v 0.02066727 -0.1436452 0.01937065
v 0.02066727 -0.1436452 -0.01937066
v 0.01379196 -0.1348246 0.0223673
v 0.005303386 0.2129496 -0.0223673
v -0.01455252 0.28801 -0.01937065
v 0.005303386 -0.09601972 -0.02236731
v 0.01379196 -0.1348246 -0.02236731
v 0.006916641 -0.1260039 0.01937065
v 0.006916641 -0.1260039 -0.01937066
v -0.005880262 -0.09601972 -0.01937065
v -0.005880262 0.2129496 -0.01937065
v -0.01737506 0.2956951 -0.01118365
v -0.01406726 -0.09601972 -0.01118365
v 0.001883566 -0.1195467 -0.01118365
v -0.01406726 0.2129496 -0.01118365
v -0.01840818 0.298508 5.073419E-09
v -0.01706392 0.2129496 9.77707E-10
v -0.01706392 -0.09601972 -9.777066E-10
v 4.133125E-05 -0.1171833 -2.627219E-09
v 0.02767069 -0.09601972 -9.777066E-10
v 0.02754259 -0.1524659 -4.169473E-09
v 0.02570035 -0.1501024 0.01118365
v 0.02467404 -0.09601972 0.01118365
v 0.02066727 -0.1436452 0.01937065
v 0.02467404 0.2129496 0.01118365
v 0.02767069 0.2129496 9.77707E-10
v -0.002985512 0.256516 3.23789E-09
v -0.004018631 0.2593289 0.01118365
v 0.01648703 0.2129496 0.01937065
v -0.006841176 0.267014 0.01937065
v 0.01648703 -0.09601972 0.01937065
v 0.01379196 -0.1348246 0.0223673
v 0.005303386 0.2129496 0.0223673
v -0.01069685 0.277512 0.02236731
v 0.005303386 -0.09601972 0.0223673
v 0.006916641 -0.1260039 0.01937065
v -0.005880262 0.2129496 0.01937065
v -0.01455252 0.28801 0.01937066
v -0.005880262 -0.09601972 0.01937065
v -0.01406726 0.2129496 0.01118365
v -0.01737506 0.2956951 0.01118366
v 0.001883566 -0.1195467 0.01118365
v 0.006916641 -0.1260039 -0.01937066
v 0.001883566 -0.1195467 -0.01118365
v 4.133125E-05 -0.1171833 -2.627219E-09
v -0.01406726 -0.09601972 0.01118365
v -0.01706392 -0.09601972 -9.777066E-10
v -0.01706392 0.2129496 9.77707E-10
v -0.01840818 0.298508 5.073419E-09
v -0.01840818 0.298508 5.073419E-09
v 0.05729362 0.2268088 0.009757206
v -0.01737506 0.2956951 0.01118366
v 0.0584658 0.2291458 2.214687E-09
v -0.01737506 0.2956951 -0.01118365
v 0.05729362 0.2268088 -0.009757204
v -0.01455252 0.28801 -0.01937065
v 0.1235467 0.1612468 4.435956E-09
v 0.05409121 0.2204242 -0.01689997
v -0.01069685 0.277512 -0.0223673
v 0.1202754 0.1604762 -0.01226469
v 0.1396522 0.1398051 5.138374E-09
v 0.04971662 0.2117026 -0.01951441
v -0.006841176 0.267014 -0.01937065
v 0.111374 0.1583758 -0.02116442
v 0.1362433 0.1389755 -0.01311563
v 0.1512498 0.1165065 5.824996E-09
v 0.04534204 0.202981 -0.01689998
v -0.004018631 0.2593289 -0.01118365
v 0.04213961 0.1965964 -0.009757205
v 0.09932244 0.1555081 -0.02429873
v 0.1269323 0.1367078 -0.0227164
v 0.1476748 0.1156295 -0.01409031
v 0.1646308 0.07734687 6.987371E-09
v 0.08744107 0.1526207 -0.02090477
v 0.1142232 0.1336024 -0.02622918
v 0.1603357 0.07767835 -0.01572559
v 0.16785 0.05015252 6.802288E-09
v 0.13788 0.113224 -0.02448196
v 0.07888012 0.1504838 -0.0120035
v 0.04096744 0.1942594 6.897574E-10
v 0.07577957 0.1496962 3.308693E-09
v 0.1633938 0.05048613 -0.01648502
v 0.1622781 0.02355016 5.068484E-09
v 0.1015343 0.1304799 -0.02271357
v 0.09226273 0.1281791 -0.01311296
v 0.08887319 0.1273337 4.551569E-09
v 0.1486284 0.07859457 -0.02716166
v 0.1244261 0.1099109 -0.02840417
v 0.1577511 0.02388305 -0.01663605
v 0.1382983 -0.02971312 -5.022467E-10
v 0.1008704 0.1040774 -0.01434241
v 0.09719093 0.1031633 5.746097E-09
v 0.110871 0.1065589 -0.02473194
v 0.1327131 0.07985742 -0.03123187
v 0.151226 0.05139878 -0.02852028
v 0.1346287 -0.02745083 -0.01608877
v 0.1137282 -0.04759164 -1.285094E-09
v 0.1054325 0.08195047 -0.01548857
v 0.1012517 0.08224708 6.730981E-09
v 0.1169117 0.08109504 -0.02692294
v 0.1346253 0.05264798 -0.03287425
v 0.1453786 0.02478606 -0.02877898
v 0.1113738 -0.04614022 -0.01032219
v 0.09393231 -0.04829925 -3.725025E-09
v 0.09345736 -0.04800645 -0.002082298
v 0.1059699 0.05482724 -0.01637723
v 0.1015535 0.05516914 6.521624E-09
v 0.1180614 0.05390175 -0.02841257
v 0.1246029 -0.02127025 -0.02786656
v 0.1049415 -0.04217489 -0.01787856
v 0.09215979 -0.04720653 -0.003606642
v 0.1284717 0.02601687 -0.03316432
v 0.09923671 0.02829606 -0.01650504
v 0.09473096 0.02869218 4.401321E-09
v 0.1115763 0.02728851 -0.02864994
v 0.1109074 -0.01282735 -0.03217753
v 0.09615475 -0.03675811 -0.02064438
v 0.09038723 -0.04611379 -0.004164591
v 0.09721193 -0.004384472 -0.02786656
v 0.08718614 0.001796144 -0.01608877
v 0.08351643 0.004058409 9.739531E-10
v 0.08736803 -0.03134135 -0.01787856
v 0.08861471 -0.04502108 -0.003606642
v 0.08093571 -0.02737602 -0.01032219
v 0.07858132 -0.0259246 -3.379979E-10
v 0.0873171 -0.04422116 -0.002082298
v 0.08684216 -0.04392835 -3.533967E-09
v -0.002985512 0.256516 3.23789E-09
v 0.04213961 0.1965964 -0.009757205
v -0.004018631 0.2593289 -0.01118365
v 0.04096744 0.1942594 6.897574E-10
v -0.004018631 0.2593289 0.01118365
v 0.04213961 0.1965964 0.009757205
v -0.006841176 0.267014 0.01937065
v 0.07577957 0.1496962 3.308693E-09
v 0.04534204 0.202981 0.01689998
v -0.01069685 0.277512 0.02236731
v 0.07888012 0.1504838 0.0120035
v 0.08887319 0.1273337 4.551569E-09
v 0.04971662 0.2117026 0.01951441
v -0.01455252 0.28801 0.01937066
v 0.08744107 0.1526207 0.02090477
v 0.09226273 0.1281791 0.01311297
v 0.09719093 0.1031633 5.746097E-09
v 0.05409121 0.2204242 0.01689998
v -0.01737506 0.2956951 0.01118366
v 0.05729362 0.2268088 0.009757206
v 0.09932244 0.1555081 0.02429874
v 0.1015343 0.1304799 0.02271358
v 0.1008704 0.1040774 0.01434242
v 0.1012517 0.08224708 6.730981E-09
v 0.111374 0.1583758 0.02116443
v 0.1142232 0.1336024 0.02622919
v 0.1054325 0.08195047 0.01548858
v 0.1015535 0.05516914 6.521624E-09
v 0.110871 0.1065589 0.02473195
v 0.1202754 0.1604762 0.0122647
v 0.0584658 0.2291458 2.214687E-09
v 0.1235467 0.1612468 4.435956E-09
v 0.1059699 0.05482722 0.01637724
v 0.09473096 0.02869218 4.401321E-09
v 0.1269323 0.1367078 0.02271641
v 0.1362433 0.1389755 0.01311564
v 0.1396522 0.1398051 5.138374E-09
v 0.1169117 0.08109502 0.02692295
v 0.1244261 0.1099109 0.02840419
v 0.09923671 0.02829606 0.01650505
v 0.08351643 0.004058409 9.739531E-10
v 0.1476748 0.1156295 0.01409032
v 0.1512498 0.1165065 5.824996E-09
v 0.13788 0.113224 0.02448196
v 0.1180613 0.05390175 0.02841257
v 0.1327131 0.07985742 0.03123189
v 0.08718614 0.001796144 0.01608877
v 0.07858132 -0.0259246 -3.379979E-10
v 0.1603357 0.07767835 0.0157256
v 0.1646308 0.07734687 6.987371E-09
v 0.1486284 0.07859457 0.02716167
v 0.1346253 0.05264798 0.03287425
v 0.1115763 0.02728851 0.02864995
v 0.08093571 -0.02737602 0.01032219
v 0.08684216 -0.04392835 -3.533967E-09
v 0.1633938 0.05048613 0.01648503
v 0.16785 0.05015252 6.802288E-09
v 0.151226 0.05139878 0.02852029
v 0.09721193 -0.004384472 0.02786656
v 0.1284717 0.02601685 0.03316432
v 0.1577511 0.02388307 0.01663606
v 0.1622781 0.02355016 5.068484E-09
v 0.1453786 0.02478606 0.02877899
v 0.1109074 -0.01282735 0.03217753
v 0.08736803 -0.03134135 0.01787856
v 0.1346287 -0.02745083 0.01608877
v 0.1382983 -0.02971312 -5.022467E-10
v 0.1246029 -0.02127025 0.02786656
v 0.1113738 -0.04614022 0.01032219
v 0.1137282 -0.04759164 -1.285094E-09
v 0.09615475 -0.03675811 0.02064438
v 0.1049415 -0.04217489 0.01787856
v 0.0873171 -0.04422116 0.00208229
v 0.09345736 -0.04800645 0.00208229
v 0.09393231 -0.04829925 -3.725025E-09
v 0.0873171 -0.04422116 -0.002082298
v 0.09345736 -0.04800645 -0.002082298
v 0.08861471 -0.04502108 -0.003606642
v 0.09215979 -0.04720653 -0.003606642
v 0.09038723 -0.04611379 -0.004164591
v 0.09215979 -0.04720653 0.003606635
v 0.08861471 -0.04502108 0.003606635
v 0.09038723 -0.04611379 0.004164584
v -0.09437533 -0.04268896 -3.364481E-10
v -0.04390398 -0.05142719 -5.383172E-10
v -0.04647698 -0.05943238 -0.02284289
v -0.09437533 -0.0514272 -0.02406996
v -0.1448467 -0.05142719 6.728961E-10
v -0.007575024 -0.08307531 -0.02143347
v -0.002024753 -0.077525 1.345789E-10
v -0.1422737 -0.05943237 -0.02284289
v -0.1867259 -0.077525 2.018684E-10
v 0.0160679 -0.1219772 -0.02284289
v 0.02407308 -0.1194042 4.037373E-10
v -0.1811756 -0.08307531 -0.02143347
v -0.2128237 -0.1194042 -5.383176E-10
v 0.02407308 -0.1698756 -0.02406996
v 0.03281131 -0.1698756 -4.037385E-10
v -0.2048185 -0.1219772 -0.02284289
v -0.221562 -0.1698756 -4.037385E-10
v 0.01606789 -0.2177739 -0.02284289
v 0.02407308 -0.220347 -8.074763E-10
v -0.2128237 -0.1698756 -0.02406996
v -0.2128237 -0.220347 6.728959E-10
v -0.007575033 -0.2566759 -0.02143347
v -0.002024743 -0.2622262 2.018676E-10
v -0.2048186 -0.2177739 -0.02284289
v -0.1867259 -0.2622262 2.018684E-10
v -0.04647699 -0.2803188 -0.02284289
v -0.04390398 -0.288324 6.72895E-10
v -0.1811756 -0.2566759 -0.02143347
v -0.1448467 -0.288324 -5.383189E-10
v -0.09437533 -0.288324 -0.02406996
v -0.09437533 -0.2970622 -3.364488E-10
v -0.1422737 -0.2803188 -0.02284289
v -0.01862448 -0.2456265 -0.03612585
v -0.04943235 -0.2566759 -0.04139537
v -0.007575024 -0.2148186 -0.04139536
v -0.09437533 -0.2622262 -0.04404231
v -0.1393183 -0.2566759 -0.04139536
v -0.1701262 -0.2456264 -0.03612585
v -0.002024753 -0.1698756 -0.04404231
v -0.04647698 -0.2177739 -0.05267076
v -0.1811756 -0.2148186 -0.04139537
v -0.1422737 -0.2177739 -0.05267075
v -0.09437533 -0.220347 -0.05648845
v -0.007575033 -0.1249326 -0.04139537
v -0.04390398 -0.1698756 -0.05648845
v -0.1867259 -0.1698756 -0.04404231
v -0.09437533 -0.1698756 -0.06065575
v -0.1448467 -0.1698756 -0.05648845
v -0.01862447 -0.09412473 -0.03612585
v -0.04647698 -0.1219772 -0.05267075
v -0.04943235 -0.08307529 -0.04139536
v -0.09437533 -0.1194042 -0.05648845
v -0.09437533 -0.07752502 -0.04404232
v -0.1422737 -0.1219772 -0.05267076
v -0.1393183 -0.08307531 -0.04139537
v -0.1811756 -0.1249326 -0.04139536
v -0.1701262 -0.09412473 -0.03612585
v -0.2048186 -0.1219772 0.02284289
v -0.1811756 -0.08307531 0.02143346
v -0.1867259 -0.077525 2.018684E-10
v -0.2128237 -0.1194042 -5.383176E-10
v -0.1448467 -0.05142719 6.728961E-10
v -0.2128237 -0.1698756 0.02406996
v -0.221562 -0.1698756 -4.037385E-10
v -0.1422737 -0.05943237 0.02284289
v -0.09437533 -0.04268896 -3.364481E-10
v -0.2048185 -0.2177739 0.02284289
v -0.2128237 -0.220347 6.728959E-10
v -0.09437533 -0.0514272 0.02406996
v -0.04390398 -0.05142719 -5.383172E-10
v -0.1811756 -0.2566759 0.02143346
v -0.1867259 -0.2622262 2.018684E-10
v -0.04647698 -0.05943237 0.02284289
v -0.002024753 -0.077525 1.345789E-10
v -0.1422737 -0.2803188 0.02284289
v -0.1448467 -0.288324 -5.383189E-10
v -0.007575033 -0.08307531 0.02143346
v 0.02407308 -0.1194042 4.037373E-10
v -0.09437533 -0.288324 0.02406996
v -0.09437533 -0.2970622 -3.364488E-10
v 0.01606789 -0.1219772 0.02284289
v 0.03281131 -0.1698756 -4.037385E-10
v -0.04647699 -0.2803188 0.02284289
v -0.04390398 -0.288324 6.72895E-10
v 0.02407307 -0.1698756 0.02406996
v 0.02407308 -0.220347 -8.074763E-10
v -0.007575033 -0.2566759 0.02143346
v -0.002024743 -0.2622262 2.018676E-10
v 0.0160679 -0.2177739 0.02284289
v -0.09437533 -0.2622262 0.04404232
v -0.04943235 -0.2566759 0.04139536
v -0.01862447 -0.2456265 0.03612585
v -0.007575024 -0.2148186 0.04139536
v -0.002024753 -0.1698756 0.04404231
v -0.007575033 -0.1249326 0.04139536
v -0.04647698 -0.2177739 0.05267076
v -0.04390398 -0.1698756 0.05648845
v -0.09437533 -0.220347 0.05648845
v -0.1393183 -0.2566759 0.04139536
v -0.01862447 -0.09412473 0.03612585
v -0.04943235 -0.08307531 0.04139536
v -0.04647699 -0.1219772 0.05267076
v -0.09437533 -0.07752502 0.04404232
v -0.09437533 -0.1194042 0.05648845
v -0.1393183 -0.08307529 0.04139536
v -0.09437533 -0.1698756 0.06065575
v -0.1701262 -0.09412473 0.03612585
v -0.1422737 -0.1219772 0.05267075
v -0.1811756 -0.1249326 0.04139536
v -0.1448467 -0.1698756 0.05648845
v -0.1867259 -0.1698756 0.04404232
v -0.1422737 -0.2177739 0.05267076
v -0.1811756 -0.2148186 0.04139536
v -0.1701262 -0.2456265 0.03612585
vt 0.9086914 0.9423828
vt 0.9047852 0.9487305
vt 0.9042969 0.9487305
vt 0.9086914 0.9423828
vt 0.9042969 0.9501953
vt 0.9086914 0.8994141
vt 0.9086914 0.8994141
vt 0.9086914 0.8916016
vt 0.9072266 0.9423828
vt 0.9038086 0.9516602
vt 0.9072266 0.8994141
vt 0.9086914 0.8920898
vt 0.9086914 0.8920898
vt 0.9077148 0.8930664
vt 0.9077148 0.8930664
vt 0.9067383 0.894043
vt 0.9057617 0.9423828
vt 0.902832 0.953125
vt 0.9057617 0.8994141
vt 0.9067383 0.894043
vt 0.90625 0.8955078
vt 0.90625 0.8955078
vt 0.9042969 0.8994141
vt 0.9042969 0.9423828
vt 0.902832 0.9541016
vt 0.9033203 0.8994141
vt 0.9052734 0.8964844
vt 0.9033203 0.9423828
vt 0.9023438 0.9545898
vt 0.902832 0.9423828
vt 0.902832 0.8994141
vt 0.9052734 0.8964844
vt 0.9086914 0.8994141
vt 0.9086914 0.8916016
vt 0.9086914 0.8920898
vt 0.9086914 0.8994141
vt 0.9077148 0.8930664
vt 0.9086914 0.9423828
vt 0.9086914 0.9423828
vt 0.9047852 0.9487305
vt 0.9042969 0.9487305
vt 0.9072266 0.9423828
vt 0.9042969 0.9501953
vt 0.9072266 0.8994141
vt 0.9067383 0.894043
vt 0.9057617 0.9423828
vt 0.9038086 0.9516602
vt 0.9057617 0.8994141
vt 0.90625 0.8955078
vt 0.9042969 0.9423828
vt 0.902832 0.953125
vt 0.9042969 0.8994141
vt 0.9033203 0.9423828
vt 0.902832 0.9541016
vt 0.9052734 0.8964844
vt 0.90625 0.8955078
vt 0.9052734 0.8964844
vt 0.9052734 0.8964844
vt 0.9033203 0.8994141
vt 0.902832 0.8994141
vt 0.902832 0.9423828
vt 0.9023438 0.9545898
vt 0.8833008 0.9379883
vt 0.8994141 0.9492188
vt 0.8833008 0.9379883
vt 0.8989258 0.9492188
vt 0.8847656 0.9379883
vt 0.8999023 0.9487305
vt 0.8867188 0.9379883
vt 0.9140625 0.9584961
vt 0.9013672 0.9477539
vt 0.8886719 0.9379883
vt 0.9145508 0.9575195
vt 0.918457 0.9604492
vt 0.902832 0.9462891
vt 0.890625 0.9384766
vt 0.9145508 0.9555664
vt 0.9189453 0.9594727
vt 0.9233398 0.9614258
vt 0.9038086 0.9453125
vt 0.8916016 0.9389648
vt 0.9047852 0.9448242
vt 0.9145508 0.953125
vt 0.9189453 0.9570313
vt 0.9233398 0.9604492
vt 0.9311523 0.9624023
vt 0.9145508 0.9506836
vt 0.9194336 0.9545898
vt 0.9306641 0.9609375
vt 0.9360352 0.9619141
vt 0.9238281 0.9580078
vt 0.9145508 0.949707
vt 0.9047852 0.9448242
vt 0.9145508 0.9492188
vt 0.9360352 0.9604492
vt 0.940918 0.9599609
vt 0.9194336 0.9526367
vt 0.9189453 0.9511719
vt 0.9189453 0.9506836
vt 0.9301758 0.9584961
vt 0.9238281 0.9555664
vt 0.9404297 0.9584961
vt 0.949707 0.9536133
vt 0.9238281 0.9516602
vt 0.9238281 0.9511719
vt 0.9238281 0.953125
vt 0.9296875 0.9560547
vt 0.9350586 0.9580078
vt 0.9487305 0.9526367
vt 0.9516602 0.9482422
vt 0.9277344 0.9516602
vt 0.9277344 0.9511719
vt 0.9287109 0.953125
vt 0.9345703 0.9550781
vt 0.9399414 0.9560547
vt 0.9511719 0.9477539
vt 0.9511719 0.9448242
vt 0.9511719 0.9443359
vt 0.9331055 0.9506836
vt 0.9326172 0.9501953
vt 0.9335938 0.9521484
vt 0.9472656 0.9506836
vt 0.9501953 0.9462891
vt 0.9506836 0.9443359
vt 0.9389648 0.953125
vt 0.9375 0.9482422
vt 0.9370117 0.9477539
vt 0.9379883 0.9501953
vt 0.9453125 0.9482422
vt 0.9487305 0.9453125
vt 0.9506836 0.9438477
vt 0.9428711 0.9462891
vt 0.9414063 0.9448242
vt 0.940918 0.9448242
vt 0.9477539 0.9438477
vt 0.9501953 0.9438477
vt 0.9467773 0.9428711
vt 0.9462891 0.9428711
vt 0.9501953 0.9433594
vt 0.9501953 0.9433594
vt 0.8916016 0.9389648
vt 0.9047852 0.9448242
vt 0.8916016 0.9389648
vt 0.9047852 0.9448242
vt 0.890625 0.9389648
vt 0.9042969 0.9453125
vt 0.8886719 0.9389648
vt 0.9145508 0.9492188
vt 0.902832 0.9462891
vt 0.8867188 0.9389648
vt 0.9140625 0.9501953
vt 0.9189453 0.9506836
vt 0.9013672 0.9472656
vt 0.8847656 0.9384766
vt 0.9135742 0.9521484
vt 0.918457 0.9516602
vt 0.9238281 0.9511719
vt 0.8999023 0.9482422
vt 0.8833008 0.9379883
vt 0.8994141 0.9492188
vt 0.9135742 0.9545898
vt 0.918457 0.9536133
vt 0.9233398 0.9521484
vt 0.9277344 0.9511719
vt 0.9135742 0.956543
vt 0.918457 0.956543
vt 0.9277344 0.9521484
vt 0.9326172 0.9501953
vt 0.9233398 0.9545898
vt 0.9140625 0.9580078
vt 0.8989258 0.9492188
vt 0.9140625 0.9584961
vt 0.9326172 0.9511719
vt 0.9370117 0.9477539
vt 0.918457 0.9584961
vt 0.918457 0.9604492
vt 0.918457 0.9604492
vt 0.9282227 0.9545898
vt 0.9233398 0.9575195
vt 0.9375 0.9492188
vt 0.940918 0.9448242
vt 0.9233398 0.9614258
vt 0.9233398 0.9614258
vt 0.9228516 0.9599609
vt 0.9331055 0.9541016
vt 0.9291992 0.9580078
vt 0.9418945 0.9458008
vt 0.9462891 0.9428711
vt 0.9306641 0.9624023
vt 0.9311523 0.9624023
vt 0.9301758 0.9604492
vt 0.934082 0.9570313
vt 0.9379883 0.9516602
vt 0.9467773 0.9433594
vt 0.9501953 0.9433594
vt 0.9360352 0.9619141
vt 0.9360352 0.9619141
vt 0.9350586 0.9599609
vt 0.9433594 0.9477539
vt 0.9389648 0.9550781
vt 0.9404297 0.9594727
vt 0.940918 0.9599609
vt 0.9399414 0.9580078
vt 0.9458008 0.949707
vt 0.9477539 0.9443359
vt 0.9492188 0.953125
vt 0.949707 0.9536133
vt 0.9477539 0.9521484
vt 0.9516602 0.9482422
vt 0.9516602 0.9482422
vt 0.9492188 0.9458008
vt 0.9506836 0.9472656
vt 0.9501953 0.9438477
vt 0.9511719 0.9448242
vt 0.9511719 0.9448242
vt 0.9501953 0.9433594
vt 0.9511719 0.9443359
vt 0.9501953 0.9438477
vt 0.9506836 0.9443359
vt 0.9506836 0.9438477
vt 0.9506836 0.9443359
vt 0.9501953 0.9438477
vt 0.9506836 0.9443359
vt 0.8920898 0.9067383
vt 0.8989258 0.9057617
vt 0.8984375 0.9047852
vt 0.8920898 0.9057617
vt 0.8847656 0.9057617
vt 0.9038086 0.9013672
vt 0.9047852 0.9023438
vt 0.8852539 0.9047852
vt 0.8789063 0.9023438
vt 0.9072266 0.8959961
vt 0.9082031 0.8964844
vt 0.8798828 0.9013672
vt 0.8754883 0.8964844
vt 0.9082031 0.8891602
vt 0.909668 0.8891602
vt 0.8764648 0.8959961
vt 0.8740234 0.8891602
vt 0.9072266 0.8828125
vt 0.9082031 0.8823242
vt 0.8754883 0.8891602
vt 0.8754883 0.8823242
vt 0.9038086 0.8774414
vt 0.9047852 0.8764648
vt 0.8764648 0.8828125
vt 0.8789063 0.8764648
vt 0.8984375 0.8740234
vt 0.8989258 0.8730469
vt 0.8798828 0.8774414
vt 0.8847656 0.8730469
vt 0.8920898 0.8730469
vt 0.8920898 0.871582
vt 0.8852539 0.8740234
vt 0.9023438 0.8789063
vt 0.8979492 0.8774414
vt 0.9038086 0.8828125
vt 0.8920898 0.8764648
vt 0.8857422 0.8774414
vt 0.8813477 0.8789063
vt 0.9047852 0.8891602
vt 0.8984375 0.8828125
vt 0.8798828 0.8828125
vt 0.8852539 0.8828125
vt 0.8920898 0.8823242
vt 0.9038086 0.8955078
vt 0.8989258 0.8891602
vt 0.8789063 0.8891602
vt 0.8920898 0.8891602
vt 0.8847656 0.8891602
vt 0.9023438 0.8999023
vt 0.8984375 0.8959961
vt 0.8979492 0.9013672
vt 0.8920898 0.8964844
vt 0.8920898 0.9023438
vt 0.8852539 0.8959961
vt 0.8857422 0.9013672
vt 0.8798828 0.8955078
vt 0.8813477 0.8999023
vt 0.8764648 0.8959961
vt 0.8798828 0.9013672
vt 0.8789063 0.9023438
vt 0.8754883 0.8964844
vt 0.8847656 0.9057617
vt 0.8754883 0.8891602
vt 0.8740234 0.8891602
vt 0.8852539 0.9047852
vt 0.8920898 0.9067383
vt 0.8764648 0.8828125
vt 0.8754883 0.8823242
vt 0.8920898 0.9057617
vt 0.8989258 0.9057617
vt 0.8798828 0.8774414
vt 0.8789063 0.8764648
vt 0.8984375 0.9047852
vt 0.9047852 0.9023438
vt 0.8852539 0.8740234
vt 0.8847656 0.8730469
vt 0.9038086 0.9013672
vt 0.9082031 0.8964844
vt 0.8920898 0.8730469
vt 0.8920898 0.871582
vt 0.9072266 0.8959961
vt 0.909668 0.8891602
vt 0.8984375 0.8740234
vt 0.8989258 0.8730469
vt 0.9082031 0.8891602
vt 0.9082031 0.8823242
vt 0.9038086 0.8774414
vt 0.9047852 0.8764648
vt 0.9072266 0.8828125
vt 0.8920898 0.8764648
vt 0.8979492 0.8774414
vt 0.9023438 0.8789063
vt 0.9038086 0.8828125
vt 0.9047852 0.8891602
vt 0.9038086 0.8955078
vt 0.8984375 0.8828125
vt 0.8989258 0.8891602
vt 0.8920898 0.8823242
vt 0.8857422 0.8774414
vt 0.9023438 0.8999023
vt 0.8979492 0.9013672
vt 0.8984375 0.8959961
vt 0.8920898 0.9023438
vt 0.8920898 0.8964844
vt 0.8857422 0.9013672
vt 0.8920898 0.8891602
vt 0.8813477 0.8999023
vt 0.8852539 0.8959961
vt 0.8798828 0.8955078
vt 0.8847656 0.8891602
vt 0.8789063 0.8891602
vt 0.8852539 0.8828125
vt 0.8798828 0.8828125
vt 0.8813477 0.8789063
vn 0.9604492 0.2775879 0
vn 0.7070313 -0.7070313 0
vn 0.1766357 -0.1190796 -0.9770508
vn 0.8930664 0.2568359 -0.3688965
vn 0.1207275 -0.06652832 -0.9902344
vn 0.8862305 0.01248169 -0.4633789
vn 1 0.004085541 0
vn 0.355957 -0.9345703 0
vn 0.6298828 0.1708984 -0.7578125
vn -0.06222534 0.07067871 -0.9956055
vn 0.5371094 0.0234375 -0.8432617
vn 0.230835 -0.824707 -0.5161133
vn 0.230835 -0.824707 0.5161133
vn -0.04980469 -0.605957 0.7939453
vn -0.04980469 -0.605957 -0.7939453
vn -0.3803711 -0.4277344 0.8198242
vn 0.04620361 0.02993774 -0.9985352
vn -0.1794434 0.3583984 -0.9160156
vn -0.03106689 -0.02212524 -0.9995117
vn -0.3803711 -0.4277344 -0.8198242
vn -0.7060547 -0.4311523 0.5615234
vn -0.7060547 -0.4311523 -0.5615234
vn -0.5874023 -0.1573486 -0.7939453
vn -0.5727539 -0.03601074 -0.8188477
vn -0.3151855 0.6982422 -0.6430664
vn -0.8759766 -0.2680664 -0.401123
vn -0.8095703 -0.5512695 -0.2025146
vn -0.9013672 -0.02365112 -0.4326172
vn -0.4047852 0.9145508 0
vn -1 -0.01396942 0
vn -0.9536133 -0.300293 0
vn -0.7978516 -0.6030273 0
vn 1 0.004085541 0
vn 0.355957 -0.9345703 0
vn 0.230835 -0.824707 0.5161133
vn 0.8862305 0.01248169 0.4633789
vn -0.04980469 -0.605957 0.7939453
vn 0.8930664 0.2568359 0.3688965
vn 0.9604492 0.2775879 0
vn 0.7070313 -0.7070313 0
vn 0.1766357 -0.1190796 0.9770508
vn 0.6298828 0.1708984 0.7578125
vn 0.1207275 -0.06652832 0.9902344
vn 0.5371094 0.0234375 0.8432617
vn -0.3803711 -0.4277344 0.8198242
vn 0.04620361 0.02993774 0.9985352
vn -0.06222534 0.07067871 0.9956055
vn -0.03106689 -0.02212524 0.9995117
vn -0.7060547 -0.4311523 0.5615234
vn -0.5727539 -0.03601074 0.8188477
vn -0.1794434 0.3583984 0.9160156
vn -0.5874023 -0.1573486 0.7939453
vn -0.9013672 -0.02365112 0.4326172
vn -0.3151855 0.6982422 0.6430664
vn -0.8095703 -0.5512695 0.2025146
vn -0.7060547 -0.4311523 -0.5615234
vn -0.8095703 -0.5512695 -0.2025146
vn -0.7978516 -0.6030273 0
vn -0.8759766 -0.2680664 0.401123
vn -0.9536133 -0.300293 0
vn -1 -0.01396942 0
vn -0.4047852 0.9145508 0
vn -0.4047852 0.9145508 0
vn 0.637207 0.6489258 0.4155273
vn -0.3151855 0.6982422 0.6430664
vn 0.6972656 0.7167969 0
vn -0.3151855 0.6982422 -0.6430664
vn 0.637207 0.6489258 -0.4155273
vn -0.1794434 0.3583984 -0.9160156
vn 0.7641602 0.6445313 0
vn 0.4194336 0.420166 -0.8046875
vn -0.06222534 0.07067871 -0.9956055
vn 0.6689453 0.578125 -0.4675293
vn 0.8525391 0.5224609 0
vn -0.01649475 0.01480865 -0.9995117
vn 0.1207275 -0.06652832 -0.9902344
vn 0.3886719 0.3781738 -0.840332
vn 0.7441406 0.470459 -0.4743652
vn 0.9228516 0.3852539 0
vn -0.4768066 -0.3640137 -0.800293
vn 0.1766357 -0.1190796 -0.9770508
vn -0.7285156 -0.5517578 -0.4055176
vn -0.02630615 0.06994629 -0.9970703
vn 0.435791 0.3186035 -0.8417969
vn 0.8046875 0.3496094 -0.4797363
vn 0.9760742 0.2177734 0
vn -0.4455566 -0.2563477 -0.8579102
vn -0.00761795 0.08856201 -0.9960938
vn 0.8496094 0.2020264 -0.4868164
vn 0.9990234 -0.04498291 0
vn 0.472168 0.2463379 -0.8461914
vn -0.7294922 -0.4858398 -0.4812012
vn -0.7983398 -0.6020508 0
vn -0.8251953 -0.5649414 0
vn 0.8676758 -0.03448486 -0.4956055
vn 0.9521484 -0.3063965 0
vn -0.4638672 -0.1622314 -0.8710938
vn -0.7919922 -0.3513184 -0.4997559
vn -0.9077148 -0.4199219 0
vn 0.5 0.1552734 -0.8520508
vn -0.001391411 0.09143066 -0.9956055
vn 0.8271484 -0.2697754 -0.4929199
vn 0.7788086 -0.6269531 0
vn -0.8398438 -0.2091064 -0.5014648
vn -0.9663086 -0.2580566 0
vn -0.4868164 -0.07800293 -0.8701172
vn 0.01177979 0.08148193 -0.996582
vn 0.5107422 -0.005840302 -0.8598633
vn 0.6640625 -0.5678711 -0.4868164
vn 0.3535156 -0.9355469 0
vn -0.8588867 -0.07574463 -0.5068359
vn -0.9946289 -0.1033936 0
vn -0.4880371 -0.004711151 -0.8730469
vn 0.02217102 0.03378296 -0.9990234
vn 0.4833984 -0.1658936 -0.859375
vn 0.2631836 -0.8798828 -0.3959961
vn -0.2115479 -0.9775391 0
vn -0.2495117 -0.9541016 -0.1663818
vn -0.8505859 0.1078491 -0.5151367
vn -0.9926758 0.1206055 0
vn -0.4741211 0.07513428 -0.8774414
vn 0.3459473 -0.4033203 -0.847168
vn 0.01655579 -0.7275391 -0.6855469
vn -0.3532715 -0.8901367 -0.2883301
vn 0.009399414 -0.01303101 -1
vn -0.8149414 0.284668 -0.5048828
vn -0.9423828 0.3349609 0
vn -0.4667969 0.1533203 -0.8710938
vn -0.09228516 -0.1741943 -0.9804688
vn -0.3205566 -0.5200195 -0.7919922
vn -0.494873 -0.8027344 -0.3327637
vn -0.5288086 0.05889893 -0.8466797
vn -0.8427734 0.2314453 -0.4863281
vn -0.9555664 0.2949219 0
vn -0.6577148 -0.3120117 -0.6855469
vn -0.6367188 -0.715332 -0.2883301
vn -0.9042969 -0.1600342 -0.3959961
vn -0.9946289 -0.1043091 0
vn -0.7402344 -0.6513672 -0.1663818
vn -0.7783203 -0.6279297 0
vn 0.7070313 -0.7070313 0
vn -0.7285156 -0.5517578 -0.4055176
vn 0.1766357 -0.1190796 -0.9770508
vn -0.7983398 -0.6020508 0
vn 0.1766357 -0.1190796 0.9770508
vn -0.7285156 -0.5517578 0.4055176
vn 0.1207275 -0.06652832 0.9902344
vn -0.8251953 -0.5649414 0
vn -0.4768066 -0.3640137 0.800293
vn -0.06222534 0.07067871 0.9956055
vn -0.7294922 -0.4858398 0.4812012
vn -0.9077148 -0.4199219 0
vn -0.01649475 0.01480865 0.9995117
vn -0.1794434 0.3583984 0.9160156
vn -0.4455566 -0.2563477 0.8579102
vn -0.7919922 -0.3513184 0.4997559
vn -0.9663086 -0.2580566 0
vn 0.4194336 0.420166 0.8046875
vn -0.3151855 0.6982422 0.6430664
vn 0.637207 0.6489258 0.4155273
vn -0.02630615 0.06994629 0.9970703
vn -0.4638672 -0.1622314 0.8710938
vn -0.8398438 -0.2091064 0.5014648
vn -0.9946289 -0.1033936 0
vn 0.3886719 0.3781738 0.840332
vn -0.00761795 0.08856201 0.9960938
vn -0.8588867 -0.07574463 0.5068359
vn -0.9926758 0.1206055 0
vn -0.4868164 -0.07800293 0.8701172
vn 0.6689453 0.578125 0.4675293
vn 0.6972656 0.7167969 0
vn 0.7641602 0.6445313 0
vn -0.8505859 0.1078491 0.5151367
vn -0.9423828 0.3349609 0
vn 0.435791 0.3186035 0.8417969
vn 0.7441406 0.470459 0.4743652
vn 0.8525391 0.5224609 0
vn -0.4880371 -0.004711151 0.8730469
vn -0.001391411 0.09143066 0.9956055
vn -0.8149414 0.284668 0.5048828
vn -0.9555664 0.2949219 0
vn 0.8046875 0.3496094 0.4797363
vn 0.9228516 0.3852539 0
vn 0.472168 0.2463379 0.8461914
vn -0.4741211 0.07513428 0.8774414
vn 0.01177979 0.08148193 0.996582
vn -0.8427734 0.2314453 0.4863281
vn -0.9946289 -0.1043091 0
vn 0.8496094 0.2020264 0.4868164
vn 0.9760742 0.2177734 0
vn 0.5 0.1552734 0.8520508
vn 0.02217102 0.03378296 0.9990234
vn -0.4667969 0.1533203 0.8710938
vn -0.9042969 -0.1600342 0.3959961
vn -0.7783203 -0.6279297 0
vn 0.8676758 -0.03448486 0.4956055
vn 0.9990234 -0.04498291 0
vn 0.5107422 -0.005840302 0.8598633
vn -0.5288086 0.05889893 0.8466797
vn 0.009399414 -0.01303101 1
vn 0.8271484 -0.2697754 0.4929199
vn 0.9521484 -0.3063965 0
vn 0.4833984 -0.1658936 0.859375
vn -0.09228516 -0.1741943 0.9804688
vn -0.6577148 -0.3120117 0.6855469
vn 0.6640625 -0.5678711 0.4868164
vn 0.7788086 -0.6269531 0
vn 0.3459473 -0.4033203 0.847168
vn 0.2631836 -0.8798828 0.3959961
vn 0.3535156 -0.9355469 0
vn -0.3205566 -0.5200195 0.7919922
vn 0.01655579 -0.7275391 0.6855469
vn -0.7402344 -0.6513672 0.1663818
vn -0.2495117 -0.9541016 0.1663818
vn -0.2115479 -0.9775391 0
vn -0.7402344 -0.6513672 -0.1663818
vn -0.2495117 -0.9541016 -0.1663818
vn -0.6367188 -0.715332 -0.2883301
vn -0.3532715 -0.8901367 -0.2883301
vn -0.494873 -0.8027344 -0.3327637
vn -0.3532715 -0.8901367 0.2883301
vn -0.6367188 -0.715332 0.2883301
vn -0.494873 -0.8027344 0.3327637
vn 0 -1 0
vn -0.3549805 -0.9350586 0
vn -0.2939453 -0.7709961 0.5649414
vn 0 -0.8129883 0.5820313
vn 0.3549805 -0.9350586 0
vn -0.5927734 -0.5927734 0.5449219
vn -0.7070313 -0.7070313 0
vn 0.2939453 -0.7709961 0.5649414
vn 0.7070313 -0.7070313 0
vn -0.7709961 -0.2939453 0.5649414
vn -0.9350586 -0.3549805 0
vn 0.5927734 -0.5927734 0.5449219
vn 0.9350586 -0.3549805 0
vn -0.8129883 0 0.5820313
vn -1 0 0
vn 0.7709961 -0.2939453 0.5649414
vn 1 0 0
vn -0.7709961 0.2939453 0.5649414
vn -0.9350586 0.3549805 0
vn 0.8129883 0 0.5820313
vn 0.9350586 0.3549805 0
vn -0.5927734 0.5927734 0.5449219
vn -0.7070313 0.7070313 0
vn 0.7709961 0.2939453 0.5649414
vn 0.7070313 0.7070313 0
vn -0.2939453 0.7709961 0.5649414
vn -0.3549805 0.9350586 0
vn 0.5927734 0.5927734 0.5449219
vn 0.3549805 0.9350586 0
vn 0 0.8129883 0.5820313
vn 0 1 0
vn 0.2939453 0.7709961 0.5649414
vn -0.4023438 0.4023438 0.8222656
vn -0.2089844 0.449707 0.8681641
vn -0.449707 0.2089844 0.8681641
vn 0 0.4621582 0.8867188
vn 0.2089844 0.449707 0.8681641
vn 0.4023438 0.4023438 0.8222656
vn -0.4621582 0 0.8867188
vn -0.1838379 0.1838379 0.9658203
vn 0.449707 0.2089844 0.8681641
vn 0.1838379 0.1838379 0.9658203
vn 0 0.1873779 0.9824219
vn -0.449707 -0.2089844 0.8681641
vn -0.1873779 0 0.9824219
vn 0.4621582 0 0.8867188
vn 0 0 1
vn 0.1873779 0 0.9824219
vn -0.4023438 -0.4023438 0.8222656
vn -0.1838379 -0.1838379 0.9658203
vn -0.2089844 -0.449707 0.8681641
vn 0 -0.1873779 0.9824219
vn 0 -0.4621582 0.8867188
vn 0.1838379 -0.1838379 0.9658203
vn 0.2089844 -0.449707 0.8681641
vn 0.449707 -0.2089844 0.8681641
vn 0.4023438 -0.4023438 0.8222656
vn 0.7709961 -0.2939453 -0.5649414
vn 0.5927734 -0.5927734 -0.5449219
vn 0.7070313 -0.7070313 0
vn 0.9350586 -0.3549805 0
vn 0.3549805 -0.9350586 0
vn 0.8129883 0 -0.5820313
vn 1 0 0
vn 0.2939453 -0.7709961 -0.5649414
vn 0 -1 0
vn 0.7709961 0.2939453 -0.5649414
vn 0.9350586 0.3549805 0
vn 0 -0.8129883 -0.5820313
vn -0.3549805 -0.9350586 0
vn 0.5927734 0.5927734 -0.5449219
vn 0.7070313 0.7070313 0
vn -0.2939453 -0.7709961 -0.5649414
vn -0.7070313 -0.7070313 0
vn 0.2939453 0.7709961 -0.5649414
vn 0.3549805 0.9350586 0
vn -0.5927734 -0.5927734 -0.5449219
vn -0.9350586 -0.3549805 0
vn 0 0.8129883 -0.5820313
vn 0 1 0
vn -0.7709961 -0.2939453 -0.5649414
vn -1 0 0
vn -0.2939453 0.7709961 -0.5649414
vn -0.3549805 0.9350586 0
vn -0.8129883 0 -0.5820313
vn -0.9350586 0.3549805 0
vn -0.5927734 0.5927734 -0.5449219
vn -0.7070313 0.7070313 0
vn -0.7709961 0.2939453 -0.5649414
vn 0 0.4621582 -0.8867188
vn -0.2089844 0.449707 -0.8681641
vn -0.4023438 0.4023438 -0.8222656
vn -0.449707 0.2089844 -0.8681641
vn -0.4621582 0 -0.8867188
vn -0.449707 -0.2089844 -0.8681641
vn -0.1838379 0.1838379 -0.9658203
vn -0.1873779 0 -0.9824219
vn 0 0.1873779 -0.9824219
vn 0.2089844 0.449707 -0.8681641
vn -0.4023438 -0.4023438 -0.8222656
vn -0.2089844 -0.449707 -0.8681641
vn -0.1838379 -0.1838379 -0.9658203
vn 0 -0.4621582 -0.8867188
vn 0 -0.1873779 -0.9824219
vn 0.2089844 -0.449707 -0.8681641
vn 0 0 -1
vn 0.4023438 -0.4023438 -0.8222656
vn 0.1838379 -0.1838379 -0.9658203
vn 0.449707 -0.2089844 -0.8681641
vn 0.1873779 0 -0.9824219
vn 0.4621582 0 -0.8867188
vn 0.1838379 0.1838379 -0.9658203
vn 0.449707 0.2089844 -0.8681641
vn 0.4023438 0.4023438 -0.8222656
g SoundSymbol_0
f 3/3/3 2/2/2 1/1/1
f 4/4/4 3/3/3 1/1/1
f 5/5/5 3/3/3 4/4/4
f 6/6/6 4/4/4 1/1/1
f 7/7/7 6/6/6 1/1/1
f 7/7/7 8/8/8 6/6/6
f 9/9/9 5/5/5 4/4/4
f 10/10/10 5/5/5 9/9/9
f 6/6/6 11/11/11 4/4/4
f 11/11/11 9/9/9 4/4/4
f 8/8/8 12/12/12 6/6/6
f 6/6/6 12/12/12 11/11/11
f 12/12/12 8/8/8 13/13/13
f 13/13/13 14/14/14 12/12/12
f 14/14/14 15/15/15 12/12/12
f 12/12/12 15/15/15 11/11/11
f 14/14/14 16/16/16 15/15/15
f 17/17/17 10/10/10 9/9/9
f 18/18/18 10/10/10 17/17/17
f 11/11/11 19/19/19 9/9/9
f 11/11/11 15/15/15 19/19/19
f 19/19/19 17/17/17 9/9/9
f 16/16/16 20/20/20 15/15/15
f 15/15/15 20/20/20 19/19/19
f 16/16/16 21/21/21 20/20/20
f 21/21/21 22/22/22 20/20/20
f 19/19/19 20/20/20 23/23/23
f 19/19/19 23/23/23 17/17/17
f 20/20/20 22/22/22 23/23/23
f 24/24/24 18/18/18 17/17/17
f 23/23/23 24/24/24 17/17/17
f 25/25/25 18/18/18 24/24/24
f 23/23/23 22/22/22 26/26/26
f 23/23/23 26/26/26 24/24/24
f 22/22/22 27/27/27 26/26/26
f 28/28/28 25/25/25 24/24/24
f 26/26/26 28/28/28 24/24/24
f 29/29/29 25/25/25 28/28/28
f 30/30/30 29/29/29 28/28/28
f 31/31/31 30/30/30 28/28/28
f 26/26/26 31/31/31 28/28/28
f 26/26/26 27/27/27 31/31/31
f 27/27/27 32/32/32 31/31/31
f 35/35/35 34/34/34 33/33/33
f 36/36/36 35/35/35 33/33/33
f 37/37/37 35/35/35 36/36/36
f 36/36/36 33/33/33 38/38/38
f 33/33/33 39/39/39 38/38/38
f 39/39/39 40/40/40 38/38/38
f 40/40/40 41/41/41 38/38/38
f 38/38/38 41/41/41 42/42/42
f 36/36/36 38/38/38 42/42/42
f 41/41/41 43/43/43 42/42/42
f 44/44/44 37/37/37 36/36/36
f 44/44/44 36/36/36 42/42/42
f 45/45/45 37/37/37 44/44/44
f 42/42/42 43/43/43 46/46/46
f 44/44/44 42/42/42 46/46/46
f 43/43/43 47/47/47 46/46/46
f 48/48/48 45/45/45 44/44/44
f 48/48/48 44/44/44 46/46/46
f 49/49/49 45/45/45 48/48/48
f 46/46/46 47/47/47 50/50/50
f 48/48/48 46/46/46 50/50/50
f 47/47/47 51/51/51 50/50/50
f 52/52/52 49/49/49 48/48/48
f 52/52/52 48/48/48 50/50/50
f 50/50/50 51/51/51 53/53/53
f 52/52/52 50/50/50 53/53/53
f 51/51/51 54/54/54 53/53/53
f 55/55/55 49/49/49 52/52/52
f 49/49/49 55/55/55 56/56/56
f 55/55/55 57/57/57 56/56/56
f 55/55/55 58/58/58 57/57/57
f 59/59/59 55/55/55 52/52/52
f 58/58/58 55/55/55 59/59/59
f 59/59/59 52/52/52 53/53/53
f 60/60/60 58/58/58 59/59/59
f 60/60/60 59/59/59 61/61/61
f 59/59/59 53/53/53 61/61/61
f 53/53/53 54/54/54 61/61/61
f 54/54/54 62/62/62 61/61/61
f 65/65/65 64/64/64 63/63/63
f 64/64/64 66/66/66 63/63/63
f 63/63/63 66/66/66 67/67/67
f 66/66/66 68/68/68 67/67/67
f 67/67/67 68/68/68 69/69/69
f 66/66/66 70/70/70 68/68/68
f 68/68/68 71/71/71 69/69/69
f 69/69/69 71/71/71 72/72/72
f 70/70/70 73/73/73 68/68/68
f 68/68/68 73/73/73 71/71/71
f 70/70/70 74/74/74 73/73/73
f 71/71/71 75/75/75 72/72/72
f 72/72/72 75/75/75 76/76/76
f 73/73/73 77/77/77 71/71/71
f 71/71/71 77/77/77 75/75/75
f 74/74/74 78/78/78 73/73/73
f 73/73/73 78/78/78 77/77/77
f 74/74/74 79/79/79 78/78/78
f 75/75/75 80/80/80 76/76/76
f 76/76/76 80/80/80 81/81/81
f 80/80/80 82/82/82 81/81/81
f 77/77/77 83/83/83 75/75/75
f 75/75/75 83/83/83 80/80/80
f 78/78/78 84/84/84 77/77/77
f 77/77/77 84/84/84 83/83/83
f 79/79/79 85/85/85 78/78/78
f 78/78/78 85/85/85 84/84/84
f 79/79/79 86/86/86 85/85/85
f 80/80/80 87/87/87 82/82/82
f 83/83/83 87/87/87 80/80/80
f 84/84/84 88/88/88 83/83/83
f 83/83/83 88/88/88 87/87/87
f 86/86/86 89/89/89 85/85/85
f 86/86/86 90/90/90 89/89/89
f 85/85/85 91/91/91 84/84/84
f 84/84/84 91/91/91 88/88/88
f 85/85/85 89/89/89 91/91/91
f 87/87/87 92/92/92 82/82/82
f 82/82/82 92/92/92 93/93/93
f 92/92/92 94/94/94 93/93/93
f 90/90/90 95/95/95 89/89/89
f 90/90/90 96/96/96 95/95/95
f 88/88/88 97/97/97 87/87/87
f 87/87/87 97/97/97 92/92/92
f 92/92/92 98/98/98 94/94/94
f 97/97/97 98/98/98 92/92/92
f 98/98/98 99/99/99 94/94/94
f 89/89/89 100/100/100 91/91/91
f 89/89/89 95/95/95 100/100/100
f 91/91/91 101/101/101 88/88/88
f 88/88/88 101/101/101 97/97/97
f 91/91/91 100/100/100 101/101/101
f 96/96/96 102/102/102 95/95/95
f 96/96/96 103/103/103 102/102/102
f 98/98/98 104/104/104 99/99/99
f 104/104/104 105/105/105 99/99/99
f 97/97/97 106/106/106 98/98/98
f 101/101/101 106/106/106 97/97/97
f 106/106/106 104/104/104 98/98/98
f 100/100/100 107/107/107 101/101/101
f 101/101/101 107/107/107 106/106/106
f 95/95/95 108/108/108 100/100/100
f 95/95/95 102/102/102 108/108/108
f 100/100/100 108/108/108 107/107/107
f 103/103/103 109/109/109 102/102/102
f 103/103/103 110/110/110 109/109/109
f 104/104/104 111/111/111 105/105/105
f 111/111/111 112/112/112 105/105/105
f 106/106/106 113/113/113 104/104/104
f 107/107/107 113/113/113 106/106/106
f 113/113/113 111/111/111 104/104/104
f 108/108/108 114/114/114 107/107/107
f 107/107/107 114/114/114 113/113/113
f 102/102/102 115/115/115 108/108/108
f 102/102/102 109/109/109 115/115/115
f 108/108/108 115/115/115 114/114/114
f 110/110/110 116/116/116 109/109/109
f 110/110/110 117/117/117 116/116/116
f 117/117/117 118/118/118 116/116/116
f 111/111/111 119/119/119 112/112/112
f 119/119/119 120/120/120 112/112/112
f 113/113/113 121/121/121 111/111/111
f 114/114/114 121/121/121 113/113/113
f 121/121/121 119/119/119 111/111/111
f 109/109/109 122/122/122 115/115/115
f 109/109/109 116/116/116 122/122/122
f 116/116/116 118/118/118 123/123/123
f 116/116/116 123/123/123 122/122/122
f 118/118/118 124/124/124 123/123/123
f 115/115/115 125/125/125 114/114/114
f 114/114/114 125/125/125 121/121/121
f 115/115/115 122/122/122 125/125/125
f 119/119/119 126/126/126 120/120/120
f 126/126/126 127/127/127 120/120/120
f 121/121/121 128/128/128 119/119/119
f 125/125/125 128/128/128 121/121/121
f 128/128/128 126/126/126 119/119/119
f 122/122/122 129/129/129 125/125/125
f 122/122/122 123/123/123 129/129/129
f 125/125/125 129/129/129 128/128/128
f 123/123/123 124/124/124 130/130/130
f 123/123/123 130/130/130 129/129/129
f 124/124/124 131/131/131 130/130/130
f 129/129/129 132/132/132 128/128/128
f 128/128/128 132/132/132 126/126/126
f 129/129/129 130/130/130 132/132/132
f 126/126/126 133/133/133 127/127/127
f 132/132/132 133/133/133 126/126/126
f 133/133/133 134/134/134 127/127/127
f 130/130/130 131/131/131 135/135/135
f 130/130/130 135/135/135 132/132/132
f 132/132/132 135/135/135 133/133/133
f 131/131/131 136/136/136 135/135/135
f 133/133/133 137/137/137 134/134/134
f 135/135/135 137/137/137 133/133/133
f 135/135/135 136/136/136 137/137/137
f 137/137/137 138/138/138 134/134/134
f 136/136/136 139/139/139 137/137/137
f 137/137/137 139/139/139 138/138/138
f 139/139/139 140/140/140 138/138/138
f 143/143/143 142/142/142 141/141/141
f 142/142/142 144/144/144 141/141/141
f 141/141/141 144/144/144 145/145/145
f 144/144/144 146/146/146 145/145/145
f 145/145/145 146/146/146 147/147/147
f 144/144/144 148/148/148 146/146/146
f 146/146/146 149/149/149 147/147/147
f 147/147/147 149/149/149 150/150/150
f 148/148/148 151/151/151 146/146/146
f 146/146/146 151/151/151 149/149/149
f 148/148/148 152/152/152 151/151/151
f 149/149/149 153/153/153 150/150/150
f 150/150/150 153/153/153 154/154/154
f 151/151/151 155/155/155 149/149/149
f 149/149/149 155/155/155 153/153/153
f 152/152/152 156/156/156 151/151/151
f 151/151/151 156/156/156 155/155/155
f 152/152/152 157/157/157 156/156/156
f 153/153/153 158/158/158 154/154/154
f 154/154/154 158/158/158 159/159/159
f 158/158/158 160/160/160 159/159/159
f 155/155/155 161/161/161 153/153/153
f 153/153/153 161/161/161 158/158/158
f 156/156/156 162/162/162 155/155/155
f 155/155/155 162/162/162 161/161/161
f 157/157/157 163/163/163 156/156/156
f 156/156/156 163/163/163 162/162/162
f 157/157/157 164/164/164 163/163/163
f 158/158/158 165/165/165 160/160/160
f 161/161/161 165/165/165 158/158/158
f 162/162/162 166/166/166 161/161/161
f 161/161/161 166/166/166 165/165/165
f 164/164/164 167/167/167 163/163/163
f 164/164/164 168/168/168 167/167/167
f 163/163/163 169/169/169 162/162/162
f 162/162/162 169/169/169 166/166/166
f 163/163/163 167/167/167 169/169/169
f 165/165/165 170/170/170 160/160/160
f 160/160/160 170/170/170 171/171/171
f 170/170/170 172/172/172 171/171/171
f 168/168/168 173/173/173 167/167/167
f 168/168/168 174/174/174 173/173/173
f 166/166/166 175/175/175 165/165/165
f 165/165/165 175/175/175 170/170/170
f 170/170/170 176/176/176 172/172/172
f 175/175/175 176/176/176 170/170/170
f 176/176/176 177/177/177 172/172/172
f 167/167/167 178/178/178 169/169/169
f 167/167/167 173/173/173 178/178/178
f 169/169/169 179/179/179 166/166/166
f 166/166/166 179/179/179 175/175/175
f 169/169/169 178/178/178 179/179/179
f 174/174/174 180/180/180 173/173/173
f 174/174/174 181/181/181 180/180/180
f 176/176/176 182/182/182 177/177/177
f 182/182/182 183/183/183 177/177/177
f 175/175/175 184/184/184 176/176/176
f 179/179/179 184/184/184 175/175/175
f 184/184/184 182/182/182 176/176/176
f 173/173/173 185/185/185 178/178/178
f 173/173/173 180/180/180 185/185/185
f 178/178/178 186/186/186 179/179/179
f 179/179/179 186/186/186 184/184/184
f 178/178/178 185/185/185 186/186/186
f 181/181/181 187/187/187 180/180/180
f 181/181/181 188/188/188 187/187/187
f 182/182/182 189/189/189 183/183/183
f 189/189/189 190/190/190 183/183/183
f 184/184/184 191/191/191 182/182/182
f 186/186/186 191/191/191 184/184/184
f 191/191/191 189/189/189 182/182/182
f 185/185/185 192/192/192 186/186/186
f 186/186/186 192/192/192 191/191/191
f 180/180/180 193/193/193 185/185/185
f 180/180/180 187/187/187 193/193/193
f 185/185/185 193/193/193 192/192/192
f 188/188/188 194/194/194 187/187/187
f 188/188/188 195/195/195 194/194/194
f 189/189/189 196/196/196 190/190/190
f 196/196/196 197/197/197 190/190/190
f 191/191/191 198/198/198 189/189/189
f 192/192/192 198/198/198 191/191/191
f 198/198/198 196/196/196 189/189/189
f 187/187/187 199/199/199 193/193/193
f 187/187/187 194/194/194 199/199/199
f 193/193/193 200/200/200 192/192/192
f 192/192/192 200/200/200 198/198/198
f 193/193/193 199/199/199 200/200/200
f 196/196/196 201/201/201 197/197/197
f 201/201/201 202/202/202 197/197/197
f 198/198/198 203/203/203 196/196/196
f 200/200/200 203/203/203 198/198/198
f 203/203/203 201/201/201 196/196/196
f 199/199/199 204/204/204 200/200/200
f 200/200/200 204/204/204 203/203/203
f 194/194/194 205/205/205 199/199/199
f 199/199/199 205/205/205 204/204/204
f 201/201/201 206/206/206 202/202/202
f 206/206/206 207/207/207 202/202/202
f 203/203/203 208/208/208 201/201/201
f 204/204/204 208/208/208 203/203/203
f 208/208/208 206/206/206 201/201/201
f 206/206/206 209/209/209 207/207/207
f 209/209/209 210/210/210 207/207/207
f 204/204/204 211/211/211 208/208/208
f 205/205/205 211/211/211 204/204/204
f 208/208/208 212/212/212 206/206/206
f 212/212/212 209/209/209 206/206/206
f 211/211/211 212/212/212 208/208/208
f 194/194/194 213/213/213 205/205/205
f 195/195/195 213/213/213 194/194/194
f 209/209/209 214/214/214 210/210/210
f 214/214/214 213/213/213 195/195/195
f 214/214/214 215/215/215 210/210/210
f 215/215/215 214/214/214 195/195/195
f 215/215/215 195/195/195 216/216/216
f 217/217/217 215/215/215 216/216/216
f 217/217/217 216/216/216 218/218/218
f 219/219/219 217/217/217 218/218/218
f 218/218/218 220/220/220 219/219/219
f 221/221/221 214/214/214 209/209/209
f 212/212/212 221/221/221 209/209/209
f 214/214/214 221/221/221 213/213/213
f 213/213/213 222/222/222 205/205/205
f 221/221/221 222/222/222 213/213/213
f 205/205/205 222/222/222 211/211/211
f 223/223/223 221/221/221 212/212/212
f 211/211/211 223/223/223 212/212/212
f 221/221/221 223/223/223 222/222/222
f 222/222/222 223/223/223 211/211/211
f 226/226/226 225/225/225 224/224/224
f 227/227/227 226/226/226 224/224/224
f 227/227/227 224/224/224 228/228/228
f 226/226/226 229/229/229 225/225/225
f 229/229/229 230/230/230 225/225/225
f 231/231/231 227/227/227 228/228/228
f 231/231/231 228/228/228 232/232/232
f 229/229/229 233/233/233 230/230/230
f 233/233/233 234/234/234 230/230/230
f 235/235/235 231/231/231 232/232/232
f 235/235/235 232/232/232 236/236/236
f 233/233/233 237/237/237 234/234/234
f 237/237/237 238/238/238 234/234/234
f 239/239/239 235/235/235 236/236/236
f 239/239/239 236/236/236 240/240/240
f 237/237/237 241/241/241 238/238/238
f 241/241/241 242/242/242 238/238/238
f 243/243/243 239/239/239 240/240/240
f 243/243/243 240/240/240 244/244/244
f 241/241/241 245/245/245 242/242/242
f 245/245/245 246/246/246 242/242/242
f 247/247/247 243/243/243 244/244/244
f 247/247/247 244/244/244 248/248/248
f 245/245/245 249/249/249 246/246/246
f 249/249/249 250/250/250 246/246/246
f 251/251/251 247/247/247 248/248/248
f 251/251/251 248/248/248 252/252/252
f 249/249/249 253/253/253 250/250/250
f 253/253/253 254/254/254 250/250/250
f 255/255/255 252/252/252 254/254/254
f 255/255/255 251/251/251 252/252/252
f 253/253/253 255/255/255 254/254/254
f 256/256/256 245/245/245 241/241/241
f 257/257/257 249/249/249 245/245/245
f 256/256/256 257/257/257 245/245/245
f 258/258/258 256/256/256 241/241/241
f 256/256/256 258/258/258 257/257/257
f 258/258/258 241/241/241 237/237/237
f 259/259/259 253/253/253 249/249/249
f 257/257/257 259/259/259 249/249/249
f 260/260/260 255/255/255 253/253/253
f 259/259/259 260/260/260 253/253/253
f 261/261/261 251/251/251 255/255/255
f 260/260/260 261/261/261 255/255/255
f 262/262/262 258/258/258 237/237/237
f 262/262/262 237/237/237 233/233/233
f 258/258/258 263/263/263 257/257/257
f 257/257/257 263/263/263 259/259/259
f 258/258/258 262/262/262 263/263/263
f 261/261/261 264/264/264 251/251/251
f 264/264/264 247/247/247 251/251/251
f 260/260/260 265/265/265 261/261/261
f 265/265/265 264/264/264 261/261/261
f 259/259/259 266/266/266 260/260/260
f 263/263/263 266/266/266 259/259/259
f 266/266/266 265/265/265 260/260/260
f 267/267/267 262/262/262 233/233/233
f 267/267/267 233/233/233 229/229/229
f 262/262/262 268/268/268 263/263/263
f 263/263/263 268/268/268 266/266/266
f 262/262/262 267/267/267 268/268/268
f 264/264/264 269/269/269 247/247/247
f 269/269/269 243/243/243 247/247/247
f 266/266/266 270/270/270 265/265/265
f 268/268/268 270/270/270 266/266/266
f 265/265/265 271/271/271 264/264/264
f 271/271/271 269/269/269 264/264/264
f 270/270/270 271/271/271 265/265/265
f 272/272/272 267/267/267 229/229/229
f 272/272/272 229/229/229 226/226/226
f 267/267/267 273/273/273 268/268/268
f 268/268/268 273/273/273 270/270/270
f 267/267/267 272/272/272 273/273/273
f 274/274/274 272/272/272 226/226/226
f 272/272/272 274/274/274 273/273/273
f 274/274/274 226/226/226 227/227/227
f 273/273/273 275/275/275 270/270/270
f 270/270/270 275/275/275 271/271/271
f 273/273/273 274/274/274 275/275/275
f 276/276/276 274/274/274 227/227/227
f 274/274/274 276/276/276 275/275/275
f 276/276/276 227/227/227 231/231/231
f 275/275/275 277/277/277 271/271/271
f 271/271/271 277/277/277 269/269/269
f 275/275/275 276/276/276 277/277/277
f 278/278/278 276/276/276 231/231/231
f 276/276/276 278/278/278 277/277/277
f 278/278/278 231/231/231 235/235/235
f 277/277/277 279/279/279 269/269/269
f 277/277/277 278/278/278 279/279/279
f 269/269/269 279/279/279 243/243/243
f 279/279/279 239/239/239 243/243/243
f 280/280/280 235/235/235 239/239/239
f 280/280/280 278/278/278 235/235/235
f 279/279/279 280/280/280 239/239/239
f 278/278/278 280/280/280 279/279/279
f 283/283/283 282/282/282 281/281/281
f 284/284/284 283/283/283 281/281/281
f 283/283/283 285/285/285 282/282/282
f 284/284/284 281/281/281 286/286/286
f 287/287/287 284/284/284 286/286/286
f 285/285/285 288/288/288 282/282/282
f 285/285/285 289/289/289 288/288/288
f 287/287/287 286/286/286 290/290/290
f 291/291/291 287/287/287 290/290/290
f 289/289/289 292/292/292 288/288/288
f 289/289/289 293/293/293 292/292/292
f 291/291/291 290/290/290 294/294/294
f 295/295/295 291/291/291 294/294/294
f 293/293/293 296/296/296 292/292/292
f 293/293/293 297/297/297 296/296/296
f 295/295/295 294/294/294 298/298/298
f 299/299/299 295/295/295 298/298/298
f 297/297/297 300/300/300 296/296/296
f 297/297/297 301/301/301 300/300/300
f 299/299/299 298/298/298 302/302/302
f 303/303/303 299/299/299 302/302/302
f 301/301/301 304/304/304 300/300/300
f 301/301/301 305/305/305 304/304/304
f 303/303/303 302/302/302 306/306/306
f 307/307/307 303/303/303 306/306/306
f 305/305/305 308/308/308 304/304/304
f 305/305/305 309/309/309 308/308/308
f 307/307/307 306/306/306 310/310/310
f 311/311/311 307/307/307 310/310/310
f 309/309/309 311/311/311 312/312/312
f 309/309/309 312/312/312 308/308/308
f 311/311/311 310/310/310 312/312/312
f 302/302/302 298/298/298 313/313/313
f 306/306/306 302/302/302 314/314/314
f 302/302/302 313/313/313 314/314/314
f 310/310/310 306/306/306 315/315/315
f 306/306/306 314/314/314 315/315/315
f 312/312/312 310/310/310 316/316/316
f 310/310/310 315/315/315 316/316/316
f 308/308/308 312/312/312 317/317/317
f 312/312/312 316/316/316 317/317/317
f 304/304/304 308/308/308 318/318/318
f 308/308/308 317/317/317 318/318/318
f 314/314/314 319/319/319 315/315/315
f 319/319/319 316/316/316 315/315/315
f 320/320/320 317/317/317 316/316/316
f 319/319/319 320/320/320 316/316/316
f 321/321/321 319/319/319 314/314/314
f 313/313/313 321/321/321 314/314/314
f 298/298/298 322/322/322 313/313/313
f 298/298/298 294/294/294 322/322/322
f 304/304/304 318/318/318 323/323/323
f 300/300/300 304/304/304 323/323/323
f 300/300/300 323/323/323 324/324/324
f 324/324/324 323/323/323 318/318/318
f 296/296/296 300/300/300 324/324/324
f 325/325/325 318/318/318 317/317/317
f 325/325/325 324/324/324 318/318/318
f 320/320/320 325/325/325 317/317/317
f 296/296/296 324/324/324 326/326/326
f 326/326/326 324/324/324 325/325/325
f 292/292/292 296/296/296 326/326/326
f 327/327/327 325/325/325 320/320/320
f 327/327/327 326/326/326 325/325/325
f 292/292/292 326/326/326 328/328/328
f 328/328/328 326/326/326 327/327/327
f 288/288/288 292/292/292 328/328/328
f 329/329/329 327/327/327 320/320/320
f 329/329/329 320/320/320 319/319/319
f 321/321/321 329/329/329 319/319/319
f 288/288/288 328/328/328 330/330/330
f 282/282/282 288/288/288 330/330/330
f 331/331/331 328/328/328 327/327/327
f 331/331/331 327/327/327 329/329/329
f 330/330/330 328/328/328 331/331/331
f 282/282/282 330/330/330 332/332/332
f 332/332/332 330/330/330 331/331/331
f 281/281/281 282/282/282 332/332/332
f 333/333/333 331/331/331 329/329/329
f 333/333/333 329/329/329 321/321/321
f 332/332/332 331/331/331 333/333/333
f 281/281/281 332/332/332 334/334/334
f 334/334/334 332/332/332 333/333/333
f 286/286/286 281/281/281 334/334/334
f 335/335/335 333/333/333 321/321/321
f 334/334/334 333/333/333 335/335/335
f 335/335/335 321/321/321 313/313/313
f 322/322/322 335/335/335 313/313/313
f 286/286/286 334/334/334 336/336/336
f 336/336/336 334/334/334 335/335/335
f 336/336/336 335/335/335 322/322/322
f 290/290/290 286/286/286 336/336/336
f 337/337/337 336/336/336 322/322/322
f 290/290/290 336/336/336 337/337/337
f 294/294/294 337/337/337 322/322/322
f 294/294/294 290/290/290 337/337/337
