g SpotLight
v -1 -1 0
v -1 1 0
v 1 1 0
v 1 -1 0
v -0.7403256 -0.906684 0.05175614
v -0.7403256 1.093316 0.05175614
v 1.259675 1.093316 0.05175614
v 1.259675 -0.906684 0.05175614
v 0.6266323 -1.413543 1.011348
v 0.2411438 0.9277813 0.3323357
v 0.4846453 0.962723 0.3739861
v 0.5545444 -1.423887 0.9990178
v 0.105048 0.845793 0.1399702
v 0.5142536 -1.44816 0.9420686
v 0.1560809 0.7647858 -0.09042525
v 0.5293618 -1.472142 0.8738607
v 0.3643481 0.7322123 -0.2238882
v 0.5910187 -1.481785 0.8343495
v 0.6078496 0.767154 -0.1822379
v 0.6631066 -1.471441 0.8466799
v 0.7439455 0.8491423 0.01012766
v 0.7033973 -1.447168 0.9036291
v 0.6929126 0.9301496 0.2405232
v 0.6882892 -1.423186 0.971837
v 0.4846453 0.962723 0.3739861
v 0.6266323 -1.413543 1.011348
v -0.286754 -1.498598 1.034426
v -0.6722425 0.8427269 0.3554132
v -0.4287411 0.8776686 0.3970636
v -0.3588419 -1.508942 1.022095
v -0.8083384 0.7607386 0.1630477
v -0.3991327 -1.533214 0.9651461
v -0.7573055 0.6797314 -0.06734776
v -0.3840246 -1.557196 0.8969382
v -0.5490382 0.6471579 -0.2008107
v -0.3223677 -1.566839 0.8574269
v -0.3055367 0.6820996 -0.1591604
v -0.2502798 -1.556495 0.8697574
v -0.1694409 0.7640879 0.03320515
v -0.209989 -1.532223 0.9267066
v -0.2204738 0.8450952 0.2636006
v -0.2250971 -1.508241 0.9949145
v -0.4287411 0.8776686 0.3970636
v -0.286754 -1.498598 1.034426
vt 0 0
vt 0 1
vt 1 1
vt 1 0
vt 0 0
vt 0 1
vt 1 1
vt 1 0
vt 0.6176758 0.02566528
vt 0.828125 0.9277344
vt 0.9394531 0.8920898
vt 0.5844727 0.03625488
vt 0.7143555 0.9536133
vt 0.5507813 0.04388428
vt 0.5986328 0.9692383
vt 0.5166016 0.04846191
vt 0.4819336 0.9741211
vt 0.4819336 0.05001831
vt 0.3654785 0.9692383
vt 0.4475098 0.04846191
vt 0.2497559 0.9536133
vt 0.4133301 0.04388428
vt 0.1358643 0.9277344
vt 0.3796387 0.03625488
vt 0.02474976 0.8920898
vt 0.3466797 0.02566528
vt 0.6176758 0.02566528
vt 0.828125 0.9277344
vt 0.9394531 0.8920898
vt 0.5844727 0.03625488
vt 0.7143555 0.9536133
vt 0.5507813 0.04388428
vt 0.5986328 0.9692383
vt 0.5166016 0.04846191
vt 0.4819336 0.9741211
vt 0.4819336 0.05001831
vt 0.3654785 0.9692383
vt 0.4475098 0.04846191
vt 0.2497559 0.9536133
vt 0.4133301 0.04388428
vt 0.1358643 0.9277344
vt 0.3796387 0.03625488
vt 0.02474976 0.8920898
vt 0.3466797 0.02566528
vn 0 0 1
vn 0 0 1
vn 0 0 1
vn 0 0 1
vn 0 0 1
vn 0 0 1
vn 0 0 1
vn 0 0 1
vn 0.1906738 0.2648926 0.9453125
vn -0.5532227 0.1582031 0.8178711
vn 0.1906738 0.2648926 0.9453125
vn -0.5532227 0.1582031 0.8178711
vn -0.96875 -0.09222412 0.2304688
vn -0.96875 -0.09222412 0.2304688
vn -0.8129883 -0.3395996 -0.4731445
vn -0.8129883 -0.3395996 -0.4731445
vn -0.1767578 -0.439209 -0.8808594
vn -0.1767578 -0.439209 -0.8808594
vn 0.5668945 -0.3325195 -0.753418
vn 0.5668945 -0.3325195 -0.753418
vn 0.9829102 -0.08197021 -0.1661377
vn 0.9829102 -0.08197021 -0.1661377
vn 0.8266602 0.1654053 0.5375977
vn 0.8266602 0.1654053 0.5375977
vn 0.1906738 0.2648926 0.9453125
vn 0.1906738 0.2648926 0.9453125
vn 0.1906738 0.2648926 0.9453125
vn -0.5532227 0.1582031 0.8178711
vn 0.1906738 0.2648926 0.9453125
vn -0.5532227 0.1582031 0.8178711
vn -0.96875 -0.09222412 0.2304688
vn -0.96875 -0.09222412 0.2304688
vn -0.8129883 -0.3395996 -0.4731445
vn -0.8129883 -0.3395996 -0.4731445
vn -0.1767578 -0.439209 -0.8808594
vn -0.1767578 -0.439209 -0.8808594
vn 0.5668945 -0.3325195 -0.753418
vn 0.5668945 -0.3325195 -0.753418
vn 0.9829102 -0.08197021 -0.1661377
vn 0.9829102 -0.08197021 -0.1661377
vn 0.8266602 0.1654053 0.5375977
vn 0.8266602 0.1654053 0.5375977
vn 0.1906738 0.2648926 0.9453125
vn 0.1906738 0.2648926 0.9453125
g SpotLight_0
f 3/3/3 2/2/2 1/1/1
f 4/4/4 3/3/3 1/1/1
f 7/7/7 6/6/6 5/5/5
f 8/8/8 7/7/7 5/5/5
g SpotLight_1
f 11/11/11 10/10/10 9/9/9
f 10/10/10 12/12/12 9/9/9
f 10/10/10 13/13/13 12/12/12
f 13/13/13 14/14/14 12/12/12
f 13/13/13 15/15/15 14/14/14
f 15/15/15 16/16/16 14/14/14
f 15/15/15 17/17/17 16/16/16
f 17/17/17 18/18/18 16/16/16
f 17/17/17 19/19/19 18/18/18
f 19/19/19 20/20/20 18/18/18
f 19/19/19 21/21/21 20/20/20
f 21/21/21 22/22/22 20/20/20
f 21/21/21 23/23/23 22/22/22
f 23/23/23 24/24/24 22/22/22
f 23/23/23 25/25/25 24/24/24
f 25/25/25 26/26/26 24/24/24
f 29/29/29 28/28/28 27/27/27
f 28/28/28 30/30/30 27/27/27
f 28/28/28 31/31/31 30/30/30
f 31/31/31 32/32/32 30/30/30
f 31/31/31 33/33/33 32/32/32
f 33/33/33 34/34/34 32/32/32
f 33/33/33 35/35/35 34/34/34
f 35/35/35 36/36/36 34/34/34
f 35/35/35 37/37/37 36/36/36
f 37/37/37 38/38/38 36/36/36
f 37/37/37 39/39/39 38/38/38
f 39/39/39 40/40/40 38/38/38
f 39/39/39 41/41/41 40/40/40
f 41/41/41 42/42/42 40/40/40
f 41/41/41 43/43/43 42/42/42
f 43/43/43 44/44/44 42/42/42
