g Stairs1
v 2.023276 -0.3168871 1.083182
v 2.023276 0.2420033 1.083182
v 2.014441 -0.3168871 1.026554
v 2.014441 0.2420033 1.026554
v 2.009901 0.2852223 1.079938
v 0.005061044 -0.3168871 -2.269481
v 1.995714 0.2949541 1.037971
v 0.005061044 0.2420033 -2.269481
v -0.04122863 -0.3168871 -2.303274
v -0.01366652 0.2949541 -2.258064
v -0.04122863 0.2420033 -2.303274
v -0.09785613 -0.3168871 -2.29444
v -0.05887755 0.3168871 -2.230502
v 1.950502 0.3168871 1.065533
v -0.04447219 0.2852223 -2.2899
v -0.09785613 0.2420033 -2.29444
v -2.023276 -0.3168871 -1.120636
v -2.023276 0.2420033 -1.120636
v -2.011859 0.2949541 -1.101909
v -0.08643965 0.2949541 -2.275712
v -1.984297 0.3168871 -1.056698
v 0.06406175 -0.3168871 2.303274
v 0.06406175 0.2420033 2.303274
v 1.989482 -0.3168871 1.129471
v 1.989482 0.2420033 1.129471
v 2.023276 -0.3168871 1.083182
v 2.023276 0.2420033 1.083182
v 2.009901 0.2852223 1.079938
v 1.978064 0.2949541 1.110744
v 0.05264527 0.2949541 2.284548
v 1.950502 0.3168871 1.065533
v 1.995714 0.2949541 1.037971
v 0.02508286 0.3168871 2.239336
v -1.984297 0.3168871 -1.056698
v -0.05887755 0.3168871 -2.230502
vt 0.270752 0.7280273
vt 0.270752 0.7578125
vt 0.270752 0.7280273
vt 0.270752 0.7578125
vt 0.2705078 0.7602539
vt 0.2454834 0.7280273
vt 0.2705078 0.7607422
vt 0.2454834 0.7578125
vt 0.244873 0.7280273
vt 0.2452393 0.7607422
vt 0.244873 0.7578125
vt 0.2442627 0.7280273
vt 0.244751 0.762207
vt 0.2697754 0.762207
vt 0.244873 0.7602539
vt 0.2442627 0.7578125
vt 0.2200928 0.7280273
vt 0.2200928 0.7578125
vt 0.2202148 0.7607422
vt 0.2443848 0.7607422
vt 0.2205811 0.762207
vt 0.2462158 0.7280273
vt 0.2462158 0.7578125
vt 0.2702637 0.7280273
vt 0.2702637 0.7578125
vt 0.270752 0.7280273
vt 0.270752 0.7578125
vt 0.2705078 0.7602539
vt 0.2702637 0.7607422
vt 0.2460938 0.7607422
vt 0.2697754 0.762207
vt 0.2705078 0.7607422
vt 0.2457275 0.762207
vt 0.2205811 0.762207
vt 0.244751 0.762207
vn 0.9716797 0 0.2357178
vn 0.9716797 0.02452087 0.2355957
vn 0.8569336 0 -0.515625
vn 0.855957 0.03567505 -0.515625
vn 0.793457 0.5771484 0.1923828
vn 0.8510742 0 -0.5253906
vn 0.605957 0.7070313 -0.3647461
vn 0.8505859 0.03567505 -0.5249023
vn 0.2357178 0 -0.9716797
vn 0.6015625 0.7070313 -0.3713379
vn 0.2355957 0.02452087 -0.9716797
vn -0.512207 0 -0.8588867
vn 0.005180359 1 -0.009674072
vn 0.01097107 1 -0.0001758337
vn 0.1923828 0.5771484 -0.793457
vn -0.512207 0.03555298 -0.8579102
vn -0.5205078 0 -0.8540039
vn -0.5200195 0.03582764 -0.8535156
vn -0.3681641 0.7070313 -0.6040039
vn -0.3625488 0.7070313 -0.6069336
vn -0.002918243 1 -0.004787445
vn 0.5205078 0 0.8540039
vn 0.5200195 0.03582764 0.8535156
vn 0.5288086 0 0.8486328
vn 0.527832 0.03555298 0.8486328
vn 0.9716797 0 0.2357178
vn 0.9716797 0.02452087 0.2355957
vn 0.793457 0.5771484 0.1923828
vn 0.3735352 0.7070313 0.6005859
vn 0.3681641 0.7070313 0.6040039
vn 0.01097107 1 -0.0001758337
vn 0.605957 0.7070313 -0.3647461
vn 0.002918243 1 0.004787445
vn -0.002918243 1 -0.004787445
vn 0.005180359 1 -0.009674072
g Stairs1_0
f 3/3/3 2/2/2 1/1/1
f 3/3/3 4/4/4 2/2/2
f 4/4/4 5/5/5 2/2/2
f 6/6/6 4/4/4 3/3/3
f 4/4/4 7/7/7 5/5/5
f 6/6/6 8/8/8 4/4/4
f 8/8/8 6/6/6 9/9/9
f 4/4/4 10/10/10 7/7/7
f 4/4/4 8/8/8 10/10/10
f 8/8/8 9/9/9 11/11/11
f 11/11/11 9/9/9 12/12/12
f 7/7/7 10/10/10 13/13/13
f 7/7/7 13/13/13 14/14/14
f 8/8/8 15/15/15 10/10/10
f 8/8/8 11/11/11 15/15/15
f 13/13/13 10/10/10 15/15/15
f 11/11/11 12/12/12 16/16/16
f 16/16/16 15/15/15 11/11/11
f 16/16/16 12/12/12 17/17/17
f 16/16/16 17/17/17 18/18/18
f 19/19/19 16/16/16 18/18/18
f 13/13/13 15/15/15 20/20/20
f 16/16/16 20/20/20 15/15/15
f 19/19/19 20/20/20 16/16/16
f 21/21/21 13/13/13 20/20/20
f 21/21/21 20/20/20 19/19/19
f 24/24/24 23/23/23 22/22/22
f 24/24/24 25/25/25 23/23/23
f 26/26/26 25/25/25 24/24/24
f 26/26/26 27/27/27 25/25/25
f 25/25/25 27/27/27 28/28/28
f 23/23/23 25/25/25 29/29/29
f 25/25/25 28/28/28 29/29/29
f 23/23/23 29/29/29 30/30/30
f 31/31/31 29/29/29 28/28/28
f 30/30/30 29/29/29 31/31/31
f 31/31/31 28/28/28 32/32/32
f 30/30/30 31/31/31 33/33/33
f 31/31/31 34/34/34 33/33/33
f 31/31/31 35/35/35 34/34/34
