g Stairs2
v 1.491037 -0.2515282 0.9654744
v 1.491037 0.1766447 0.9654744
v 1.482202 -0.2515282 0.9088463
v 1.482202 0.1766447 0.9088463
v 1.477662 0.2198634 0.9622303
v -0.1341223 -0.2515282 -1.74245
v 1.463475 0.2295952 0.9202628
v -0.1341223 0.1766447 -1.74245
v -0.1804121 -0.2515282 -1.776245
v -0.1528493 0.2295952 -1.731034
v -0.1804121 0.1766447 -1.776245
v -0.2370399 -0.2515282 -1.767409
v -0.1980606 0.2515282 -1.703471
v 1.418263 0.2515282 0.9478251
v -0.1836555 0.2198634 -1.76287
v -0.2370399 0.1766447 -1.767409
v -1.491037 -0.2515282 -1.002928
v -1.491037 0.1766447 -1.002928
v -1.47962 0.2295952 -0.984201
v -0.2256233 0.2295952 -1.748682
v -1.452058 0.2515282 -0.9389898
v 0.2032449 -0.2515282 1.776245
v 0.2032449 0.1766447 1.776245
v 1.457243 -0.2515282 1.011764
v 1.457243 0.1766447 1.011764
v 1.491037 -0.2515282 0.9654744
v 1.491037 0.1766447 0.9654744
v 1.477662 0.2198634 0.9622303
v 1.445826 0.2295952 0.9930367
v 0.1918285 0.2295952 1.757518
v 1.418263 0.2515282 0.9478251
v 1.463475 0.2295952 0.9202628
v 0.1642662 0.2515282 1.712306
v -1.452058 0.2515282 -0.9389898
v -0.1980606 0.2515282 -1.703471
vt 0.2714844 0.7324219
vt 0.2714844 0.7573242
vt 0.2712402 0.7324219
vt 0.2712402 0.7573242
vt 0.2712402 0.7597656
vt 0.2443848 0.7324219
vt 0.2709961 0.7602539
vt 0.2443848 0.7573242
vt 0.2435303 0.7324219
vt 0.2440186 0.7602539
vt 0.2435303 0.7573242
vt 0.2425537 0.7324219
vt 0.2432861 0.7612305
vt 0.2702637 0.7612305
vt 0.2435303 0.7597656
vt 0.2425537 0.7573242
vt 0.2216797 0.7324219
vt 0.2216797 0.7573242
vt 0.2219238 0.7602539
vt 0.2427979 0.7602539
vt 0.22229 0.7612305
vt 0.25 0.7324219
vt 0.25 0.7573242
vt 0.2709961 0.7324219
vt 0.2709961 0.7573242
vt 0.2714844 0.7324219
vt 0.2714844 0.7573242
vt 0.2712402 0.7597656
vt 0.270752 0.7602539
vt 0.2497559 0.7602539
vt 0.2702637 0.7612305
vt 0.2709961 0.7602539
vt 0.2492676 0.7612305
vt 0.22229 0.7612305
vt 0.2432861 0.7612305
vn 0.9716797 0 0.2357178
vn 0.9711914 0.03137207 0.2355957
vn 0.8574219 0 -0.5146484
vn 0.8564453 0.04528809 -0.5141602
vn 0.793457 0.5771484 0.1923828
vn 0.8500977 0 -0.5263672
vn 0.605957 0.7070313 -0.3640137
vn 0.8496094 0.04528809 -0.5258789
vn 0.2357178 0 -0.9716797
vn 0.6015625 0.7070313 -0.3720703
vn 0.2355957 0.03137207 -0.9711914
vn -0.5083008 0 -0.8613281
vn 0.008666992 1 -0.01332092
vn 0.01580811 1 -0.001601219
vn 0.1923828 0.5771484 -0.793457
vn -0.5083008 0.04504395 -0.8603516
vn -0.5205078 0 -0.8540039
vn -0.5200195 0.04553223 -0.8530273
vn -0.3681641 0.7070313 -0.6035156
vn -0.3598633 0.7070313 -0.6088867
vn -0.003614426 1 -0.00592804
vn 0.5205078 0 0.8540039
vn 0.5200195 0.04553223 0.8530273
vn 0.5327148 0 0.8461914
vn 0.5317383 0.04504395 0.8457031
vn 0.9716797 0 0.2357178
vn 0.9711914 0.03137207 0.2355957
vn 0.793457 0.5771484 0.1923828
vn 0.3764648 0.7070313 0.5986328
vn 0.3681641 0.7070313 0.6035156
vn 0.01580811 1 -0.001601219
vn 0.605957 0.7070313 -0.3640137
vn 0.003614426 1 0.00592804
vn -0.003614426 1 -0.00592804
vn 0.008666992 1 -0.01332092
g Stairs2_0
f 3/3/3 2/2/2 1/1/1
f 3/3/3 4/4/4 2/2/2
f 4/4/4 5/5/5 2/2/2
f 6/6/6 4/4/4 3/3/3
f 4/4/4 7/7/7 5/5/5
f 6/6/6 8/8/8 4/4/4
f 8/8/8 6/6/6 9/9/9
f 4/4/4 10/10/10 7/7/7
f 4/4/4 8/8/8 10/10/10
f 8/8/8 9/9/9 11/11/11
f 11/11/11 9/9/9 12/12/12
f 7/7/7 10/10/10 13/13/13
f 7/7/7 13/13/13 14/14/14
f 8/8/8 15/15/15 10/10/10
f 8/8/8 11/11/11 15/15/15
f 13/13/13 10/10/10 15/15/15
f 11/11/11 12/12/12 16/16/16
f 16/16/16 15/15/15 11/11/11
f 16/16/16 12/12/12 17/17/17
f 16/16/16 17/17/17 18/18/18
f 19/19/19 16/16/16 18/18/18
f 13/13/13 15/15/15 20/20/20
f 16/16/16 20/20/20 15/15/15
f 19/19/19 20/20/20 16/16/16
f 21/21/21 13/13/13 20/20/20
f 21/21/21 20/20/20 19/19/19
f 24/24/24 23/23/23 22/22/22
f 24/24/24 25/25/25 23/23/23
f 26/26/26 25/25/25 24/24/24
f 26/26/26 27/27/27 25/25/25
f 25/25/25 27/27/27 28/28/28
f 23/23/23 25/25/25 29/29/29
f 25/25/25 28/28/28 29/29/29
f 23/23/23 29/29/29 30/30/30
f 31/31/31 29/29/29 28/28/28
f 30/30/30 29/29/29 31/31/31
f 31/31/31 28/28/28 32/32/32
f 30/30/30 31/31/31 33/33/33
f 31/31/31 34/34/34 33/33/33
f 31/31/31 35/35/35 34/34/34
