g stome_03
v 40.49827 93.84991 18.98138
v 18.17542 98.3577 34.43893
v 7.164467 103.8627 36.10348
v -43.94695 88.20361 -28.53736
v -46.10015 94.06003 -1.730017
v -60.91045 69.44048 3.837794
v -61.74266 62.65847 -33.62558
v -28.84902 58.18777 -51.8013
v -21.69662 85.49503 -44.07975
v -25.23409 101.6964 17.87228
v -46.10015 94.06003 -1.730017
v -43.94695 88.20361 -28.53736
v -8.860099 103.8307 -11.47941
v 7.164467 103.8627 36.10348
v 23.53834 105.9969 6.751734
v 40.49827 93.84991 18.98138
v 39.50178 100.3942 -20.95096
v 42.57899 89.79269 -7.910802
v 23.53489 75.08676 51.3565
v 18.17542 98.3577 34.43893
v 40.49827 93.84991 18.98138
v 57.61433 70.63907 33.53854
v 42.57899 89.79269 -7.910802
v 55.59632 63.83404 -4.282629
v 39.50178 100.3942 -20.95096
v 11.44987 58.50735 -42.18668
v 43.84827 60.67361 -23.95548
v 7.103279 98.22794 -39.1821
v -28.84902 58.18777 -51.8013
v -21.69662 85.49503 -44.07975
v 7.103279 98.22794 -39.1821
v 39.50178 100.3942 -20.95096
v 23.53834 105.9969 6.751734
v -8.860099 103.8307 -11.47941
v -21.69662 85.49503 -44.07975
v -43.94695 88.20361 -28.53736
v -60.91045 69.44048 3.837794
v -46.10015 94.06003 -1.730017
v -25.23409 101.6964 17.87228
v -30.56844 73.25464 30.73147
v 1.830025 75.42093 48.96261
v 7.164467 103.8627 36.10348
v 23.53489 75.08676 51.3565
v 18.17542 98.3577 34.43893
v 55.59632 63.83404 -4.282629
v 42.57899 89.79269 -7.910802
v 39.50178 100.3942 -20.95096
v 43.84827 60.67361 -23.95548
v -30.89483 0.4756775 -41.3082
v -28.84902 58.18777 -51.8013
v -61.74266 62.65847 -33.62558
v -62.71907 5.017883 -22.53074
v -60.91045 69.44048 3.837794
v -62.95623 11.72839 14.3309
v -62.95623 11.72839 14.3309
v -60.91045 69.44048 3.837794
v -30.56844 73.25464 30.73147
v -34.54833 16.22137 44.58099
v 1.830025 75.42093 48.96261
v -2.149894 18.38766 62.81219
v 23.53489 75.08676 51.3565
v 21.48908 17.37466 61.8496
v 55.56849 12.92697 44.03164
v 21.48908 17.37466 61.8496
v 23.53489 75.08676 51.3565
v 57.61433 70.63907 33.53854
v 55.59632 63.83404 -4.282629
v 53.55048 6.121948 6.210443
v 53.55048 6.121948 6.210443
v 55.59632 63.83404 -4.282629
v 43.84827 60.67361 -23.95548
v 44.06837 2.16626 -17.39457
v 11.44987 58.50735 -42.18668
v 44.06837 2.16626 -17.39457
v 43.84827 60.67361 -23.95548
v 11.66987 -3.410605E-12 -35.62571
v -28.84902 58.18777 -51.8013
v -30.89483 0.4756775 -41.3082
v -161.2824 112.7748 -106.8301
v -166.0813 121.2978 -73.82446
v -184.8434 90.64526 -66.88513
v -182.9408 80.45172 -113.3713
v -102.5805 135.7653 -22.97424
v -141.5993 131.9283 -48.11469
v -118.9024 133.4069 -83.56665
v -79.88368 137.2439 -58.42627
v -59.58165 122.7758 -41.30265
v -88.67177 128.9101 -23.94815
v -83.14262 100.6462 -1.357671
v -88.67177 128.9101 -23.94815
v -59.58165 122.7758 -41.30265
v -39.19456 94.58737 -20.7533
v -57.77773 129.1239 -91.49603
v -90.88596 75.54523 -118.218
v -51.86732 79.38223 -93.07758
v -96.79652 125.2869 -116.6365
v -140.4451 74.33688 -133.3036
v -132.2876 108.8847 -124.379
v -54.87797 116.497 -74.50262
v -38.74434 84.33786 -67.77625
v -39.19456 94.58737 -20.7533
v -59.58165 122.7758 -41.30265
v -96.79652 125.2869 -116.6365
v -57.77773 129.1239 -91.49603
v -79.88368 137.2439 -58.42627
v -118.9024 133.4069 -83.56665
v -132.2876 108.8847 -124.379
v -161.2824 112.7748 -106.8301
v -140.4451 74.33688 -133.3036
v -132.2876 108.8847 -124.379
v -161.2824 112.7748 -106.8301
v -182.9408 80.45172 -113.3713
v -141.5993 131.9283 -48.11469
v -166.0813 121.2978 -73.82446
v -161.2824 112.7748 -106.8301
v -118.9024 133.4069 -83.56665
v -184.8434 90.64526 -66.88513
v -166.0813 121.2978 -73.82446
v -141.5993 131.9283 -48.11469
v -149.0724 96.91828 -31.17285
v -110.0537 100.7552 -6.032471
v -102.5805 135.7653 -22.97424
v -83.14262 100.6462 -1.357671
v -88.67177 128.9101 -23.94815
v -57.77773 129.1239 -91.49603
v -54.87797 116.497 -74.50262
v -59.58165 122.7758 -41.30265
v -79.88368 137.2439 -58.42627
v -38.74434 84.33786 -67.77625
v -54.87797 116.497 -74.50262
v -57.77773 129.1239 -91.49603
v -51.86732 79.38223 -93.07758
v -143.4442 2.665806 -117.7103
v -140.4451 74.33688 -133.3036
v -182.9408 80.45172 -113.3713
v -184.652 8.907291 -96.94824
v -184.8434 90.64526 -66.88513
v -187.8425 18.97419 -51.29181
v -184.652 8.907291 -96.94824
v -182.9408 80.45172 -113.3713
v -187.8425 18.97419 -51.29181
v -184.8434 90.64526 -66.88513
v -149.0724 96.91828 -31.17285
v -154.7498 26.23096 -11.57282
v -110.0537 100.7552 -6.032471
v -115.7311 30.068 13.56762
v -83.14262 100.6462 -1.357671
v -86.14171 28.97516 14.23565
v -42.19365 22.91629 -5.159976
v -86.14171 28.97516 14.23565
v -83.14262 100.6462 -1.357671
v -39.19456 94.58737 -20.7533
v -38.74434 84.33786 -67.77625
v -41.74342 12.66678 -52.18292
v -42.19365 22.91629 -5.159976
v -39.19456 94.58737 -20.7533
v -41.74342 12.66678 -52.18292
v -38.74434 84.33786 -67.77625
v -51.86732 79.38223 -93.07758
v -51.72862 6.558598 -82.17822
v -90.88596 75.54523 -118.218
v -51.72862 6.558598 -82.17822
v -51.86732 79.38223 -93.07758
v -90.74738 2.721592 -107.3186
v -140.4451 74.33688 -133.3036
v -143.4442 2.665806 -117.7103
vt 0.6240234 0.9619141
vt 0.637207 0.9624023
vt 0.6420898 0.9584961
vt 0.6425781 0.9619141
vt 0.6513672 0.9624023
vt 0.6572266 0.9423828
vt 0.6464844 0.9423828
vt 0.628418 0.9423828
vt 0.6293945 0.9624023
vt 0.6494141 0.9584961
vt 0.6513672 0.9624023
vt 0.6425781 0.9619141
vt 0.6347656 0.9628906
vt 0.6420898 0.9584961
vt 0.6279297 0.9628906
vt 0.6240234 0.9619141
vt 0.6132813 0.9628906
vt 0.6152344 0.9624023
vt 0.6381836 0.9423828
vt 0.637207 0.9624023
vt 0.6240234 0.9619141
vt 0.6196289 0.9423828
vt 0.6152344 0.9624023
vt 0.609375 0.9423828
vt 0.6132813 0.9628906
vt 0.6152344 0.9423828
vt 0.6083984 0.9423828
vt 0.6206055 0.9628906
vt 0.628418 0.9423828
vt 0.6293945 0.9624023
vt 0.6206055 0.9628906
vt 0.6132813 0.9628906
vt 0.6279297 0.9628906
vt 0.6347656 0.9628906
vt 0.6293945 0.9624023
vt 0.6425781 0.9619141
vt 0.6572266 0.9423828
vt 0.6513672 0.9624023
vt 0.6494141 0.9584961
vt 0.6533203 0.9423828
vt 0.6459961 0.9423828
vt 0.6420898 0.9584961
vt 0.6381836 0.9423828
vt 0.637207 0.9624023
vt 0.609375 0.9423828
vt 0.6152344 0.9624023
vt 0.6132813 0.9628906
vt 0.6083984 0.9423828
vt 0.628418 0.9257813
vt 0.628418 0.9423828
vt 0.6464844 0.9423828
vt 0.6459961 0.9257813
vt 0.6572266 0.9423828
vt 0.6572266 0.9257813
vt 0.6572266 0.9257813
vt 0.6572266 0.9423828
vt 0.6533203 0.9423828
vt 0.6552734 0.9257813
vt 0.6459961 0.9423828
vt 0.6479492 0.9257813
vt 0.6381836 0.9423828
vt 0.6381836 0.9257813
vt 0.6196289 0.9257813
vt 0.6381836 0.9257813
vt 0.6381836 0.9423828
vt 0.6196289 0.9423828
vt 0.609375 0.9423828
vt 0.609375 0.9257813
vt 0.609375 0.9257813
vt 0.609375 0.9423828
vt 0.6083984 0.9423828
vt 0.605957 0.9257813
vt 0.6152344 0.9423828
vt 0.605957 0.9257813
vt 0.6083984 0.9423828
vt 0.6132813 0.9257813
vt 0.628418 0.9423828
vt 0.628418 0.9257813
vt 0.6425781 0.9726563
vt 0.6513672 0.9731445
vt 0.6572266 0.9580078
vt 0.6464844 0.9580078
vt 0.6420898 0.9760742
vt 0.6494141 0.9760742
vt 0.6347656 0.9804688
vt 0.6279297 0.9804688
vt 0.6240234 0.9726563
vt 0.637207 0.9731445
vt 0.6381836 0.9580078
vt 0.637207 0.9731445
vt 0.6240234 0.9726563
vt 0.6196289 0.9580078
vt 0.6132813 0.9804688
vt 0.6152344 0.9580078
vt 0.6083984 0.9580078
vt 0.6206055 0.9804688
vt 0.628418 0.9580078
vt 0.6293945 0.9731445
vt 0.6152344 0.9731445
vt 0.609375 0.9580078
vt 0.6196289 0.9580078
vt 0.6240234 0.9726563
vt 0.6206055 0.9804688
vt 0.6132813 0.9804688
vt 0.6279297 0.9804688
vt 0.6347656 0.9804688
vt 0.6293945 0.9731445
vt 0.6425781 0.9726563
vt 0.628418 0.9580078
vt 0.6293945 0.9731445
vt 0.6425781 0.9726563
vt 0.6464844 0.9580078
vt 0.6494141 0.9760742
vt 0.6513672 0.9731445
vt 0.6425781 0.9726563
vt 0.6347656 0.9804688
vt 0.6572266 0.9580078
vt 0.6513672 0.9731445
vt 0.6494141 0.9760742
vt 0.6533203 0.9580078
vt 0.6459961 0.9580078
vt 0.6420898 0.9760742
vt 0.6381836 0.9580078
vt 0.637207 0.9731445
vt 0.6132813 0.9804688
vt 0.6152344 0.9731445
vt 0.6240234 0.9726563
vt 0.6279297 0.9804688
vt 0.609375 0.9580078
vt 0.6152344 0.9731445
vt 0.6132813 0.9804688
vt 0.6083984 0.9580078
vt 0.628418 0.9433594
vt 0.628418 0.9580078
vt 0.6464844 0.9580078
vt 0.6459961 0.9433594
vt 0.6572266 0.9580078
vt 0.6572266 0.9433594
vt 0.6459961 0.9433594
vt 0.6464844 0.9580078
vt 0.6572266 0.9433594
vt 0.6572266 0.9580078
vt 0.6533203 0.9580078
vt 0.6552734 0.9433594
vt 0.6459961 0.9580078
vt 0.6479492 0.9433594
vt 0.6381836 0.9580078
vt 0.6381836 0.9433594
vt 0.6196289 0.9433594
vt 0.6381836 0.9433594
vt 0.6381836 0.9580078
vt 0.6196289 0.9580078
vt 0.609375 0.9580078
vt 0.609375 0.9433594
vt 0.6196289 0.9433594
vt 0.6196289 0.9580078
vt 0.609375 0.9433594
vt 0.609375 0.9580078
vt 0.6083984 0.9580078
vt 0.605957 0.9433594
vt 0.6152344 0.9580078
vt 0.605957 0.9433594
vt 0.6083984 0.9580078
vt 0.6132813 0.9433594
vt 0.628418 0.9580078
vt 0.628418 0.9433594
vn 0.5698242 0.7954102 0.206543
vn 0.4182129 0.8515625 0.315918
vn 0.02001953 0.9960938 0.08795166
vn -0.6938477 0.5136719 -0.5043945
vn -0.8325195 0.5400391 -0.123291
vn -0.8325195 0.5400391 -0.123291
vn -0.6943359 0.5141602 -0.503418
vn -0.4389648 0.4018555 -0.8037109
vn -0.4389648 0.4018555 -0.8037109
vn -0.168335 0.984375 -0.04931641
vn -0.2890625 0.9443359 -0.157959
vn -0.2744141 0.9204102 -0.2790527
vn -0.1378174 0.9760742 -0.1695557
vn 0.02001953 0.9960938 0.08795166
vn 0.1534424 0.9882813 0.004016876
vn 0.5698242 0.7954102 0.206543
vn 0.2010498 0.972168 -0.1187134
vn 0.6884766 0.7182617 0.1005249
vn 0.4633789 0.6396484 0.6132813
vn 0.4633789 0.6396484 0.6132813
vn 0.7255859 0.6230469 0.291748
vn 0.7250977 0.6235352 0.2922363
vn 0.8632813 0.498291 -0.08288574
vn 0.8632813 0.498291 -0.08282471
vn 0.5844727 0.1464844 -0.7978516
vn 0.3549805 0.1329346 -0.925293
vn 0.621582 0.1564941 -0.7675781
vn 0.3674316 0.1315918 -0.9208984
vn 0.1763916 0.1483154 -0.9731445
vn 0.1763916 0.1483154 -0.9731445
vn -0.08746338 0.9580078 -0.2736816
vn 0.2010498 0.972168 -0.1187134
vn 0.1534424 0.9882813 0.004016876
vn -0.1378174 0.9760742 -0.1695557
vn -0.2556152 0.8823242 -0.3955078
vn -0.2744141 0.9204102 -0.2790527
vn -0.6518555 0.4575195 0.6049805
vn -0.6518555 0.4575195 0.6049805
vn -0.5527344 0.4492188 0.7016602
vn -0.5537109 0.4492188 0.7011719
vn -0.324707 0.4672852 0.8222656
vn -0.3310547 0.4660645 0.8203125
vn 0.06958008 0.4978027 0.8642578
vn 0.06958008 0.4978027 0.8642578
vn 0.9042969 0.2357178 -0.3562012
vn 0.9042969 0.2355957 -0.3562012
vn 0.5844727 0.1464844 -0.7978516
vn 0.621582 0.1564941 -0.7675781
vn -0.5058594 -0.145874 -0.8500977
vn -0.5058594 -0.145874 -0.8500977
vn -0.8701172 -0.06848145 -0.4875488
vn -0.8701172 -0.06848145 -0.4875488
vn -0.9995117 0.02677917 0.003149033
vn -0.9995117 0.02677917 0.00315094
vn -0.6987305 0.1834717 0.6914063
vn -0.6987305 0.1833496 0.6914063
vn -0.6044922 0.2110596 0.7680664
vn -0.6030273 0.2113037 0.769043
vn -0.3200684 0.2333984 0.9179688
vn -0.3244629 0.2335205 0.9165039
vn -0.02464294 0.2087402 0.9775391
vn -0.0246582 0.2087402 0.9775391
vn 0.8701172 0.0581665 0.489502
vn 0.4731445 0.1413574 0.8696289
vn 0.4731445 0.1413574 0.8696289
vn 0.8701172 0.0581665 0.489502
vn 0.9980469 -0.04364014 -0.04541016
vn 0.9980469 -0.04364014 -0.04541016
vn 0.8999023 -0.0770874 -0.4289551
vn 0.8999023 -0.0770874 -0.4289551
vn 0.6860352 -0.09191895 -0.7216797
vn 0.6801758 -0.09210205 -0.7275391
vn 0.3303223 -0.1237793 -0.9355469
vn 0.6801758 -0.09210205 -0.7275391
vn 0.6860352 -0.09191895 -0.7216797
vn 0.3327637 -0.1234131 -0.9350586
vn 0.1793213 -0.1456299 -0.9731445
vn 0.1793213 -0.1456299 -0.9731445
vn -0.8261719 0.5288086 -0.1942139
vn -0.8261719 0.5288086 -0.1942139
vn -0.8261719 0.5288086 -0.1942139
vn -0.8261719 0.5288086 -0.1942139
vn 0.009483337 0.9985352 0.05221558
vn -0.1699219 0.980957 -0.09588623
vn -0.1748047 0.9794922 -0.100769
vn 0.03967285 0.996582 0.07281494
vn 0.3935547 0.8657227 0.3095703
vn 0.3935547 0.8657227 0.3095703
vn 0.4213867 0.6650391 0.6166992
vn 0.4213867 0.6650391 0.6166992
vn 0.4213867 0.6645508 0.6166992
vn 0.4213867 0.6650391 0.6166992
vn 0.6318359 0.121582 -0.7651367
vn 0.4108887 0.1016846 -0.90625
vn 0.6669922 0.1329346 -0.7333984
vn 0.4230957 0.100647 -0.9003906
vn 0.2354736 0.1140137 -0.965332
vn 0.2354736 0.1140137 -0.965332
vn 0.8637695 0.5014648 -0.04766846
vn 0.8637695 0.5014648 -0.04776001
vn 0.8637695 0.5014648 -0.04779053
vn 0.8637695 0.5014648 -0.04776001
vn -0.07519531 0.9467773 -0.3137207
vn 0.203125 0.96875 -0.1418457
vn 0.253418 0.9599609 -0.1185303
vn -0.08709717 0.9423828 -0.3237305
vn -0.2352295 0.8652344 -0.4428711
vn -0.2352295 0.8652344 -0.442627
vn -0.390625 0.3691406 -0.8432617
vn -0.3903809 0.3691406 -0.8432617
vn -0.3903809 0.3691406 -0.8432617
vn -0.3903809 0.3691406 -0.8432617
vn -0.1699219 0.980957 -0.09588623
vn -0.2834473 0.9355469 -0.2102051
vn -0.2834473 0.9355469 -0.2102051
vn -0.1748047 0.9794922 -0.100769
vn -0.6899414 0.4743652 0.5463867
vn -0.6899414 0.4743652 0.5463867
vn -0.5976563 0.470459 0.6494141
vn -0.5981445 0.470459 0.6489258
vn -0.3774414 0.4943848 0.7832031
vn -0.3835449 0.4931641 0.7807617
vn 0.01344299 0.5292969 0.8481445
vn 0.01345825 0.5292969 0.8481445
vn 0.203125 0.96875 -0.1418457
vn 0.6772461 0.7265625 0.1162109
vn 0.6772461 0.7265625 0.1162109
vn 0.253418 0.9599609 -0.1185303
vn 0.9233398 0.229126 -0.3081055
vn 0.9233398 0.229126 -0.3083496
vn 0.6318359 0.121582 -0.7651367
vn 0.6669922 0.1329346 -0.7333984
vn -0.451416 -0.180542 -0.8740234
vn -0.451416 -0.180542 -0.8740234
vn -0.451416 -0.180542 -0.8740234
vn -0.451416 -0.180542 -0.8740234
vn -0.9980469 0.01953125 -0.05944824
vn -0.9980469 0.01953125 -0.05944824
vn -0.9980469 0.01954651 -0.05950928
vn -0.9980469 0.01953125 -0.05944824
vn -0.7412109 0.2033691 0.6401367
vn -0.7412109 0.2033691 0.6401367
vn -0.6518555 0.2344971 0.7211914
vn -0.6508789 0.2348633 0.722168
vn -0.3774414 0.2644043 0.8876953
vn -0.3818359 0.2644043 0.8857422
vn -0.08612061 0.2440186 0.9658203
vn -0.08612061 0.2440186 0.9658203
vn 0.4177246 0.1763916 0.8911133
vn 0.4177246 0.1763916 0.8911133
vn 0.4177246 0.1763916 0.8911133
vn 0.4177246 0.1763916 0.8911133
vn 0.9990234 -0.03793335 0.01783752
vn 0.9990234 -0.03793335 0.01783752
vn 0.9990234 -0.03793335 0.01783752
vn 0.9990234 -0.03793335 0.01783752
vn 0.925293 -0.08605957 -0.3693848
vn 0.925293 -0.08605957 -0.3693848
vn 0.7299805 -0.1131592 -0.6743164
vn 0.7241211 -0.1135864 -0.6801758
vn 0.3881836 -0.1553955 -0.9082031
vn 0.7241211 -0.1135864 -0.6801758
vn 0.7299805 -0.1131592 -0.6743164
vn 0.390625 -0.1549072 -0.9072266
vn 0.2398682 -0.1796875 -0.9541016
vn 0.2398682 -0.1796875 -0.9541016
g stome_03_0
f 3/3/3 2/2/2 1/1/1
f 6/6/6 5/5/5 4/4/4
f 7/7/7 6/6/6 4/4/4
f 7/7/7 4/4/4 8/8/8
f 4/4/4 9/9/9 8/8/8
f 12/12/12 11/11/11 10/10/10
f 13/13/13 12/12/12 10/10/10
f 13/13/13 10/10/10 14/14/14
f 15/15/15 13/13/13 14/14/14
f 15/15/15 14/14/14 16/16/16
f 15/15/15 16/16/16 17/17/17
f 16/16/16 18/18/18 17/17/17
f 21/21/21 20/20/20 19/19/19
f 22/22/22 21/21/21 19/19/19
f 21/21/21 22/22/22 23/23/23
f 22/22/22 24/24/24 23/23/23
f 27/27/27 26/26/26 25/25/25
f 26/26/26 28/28/28 25/25/25
f 26/26/26 29/29/29 28/28/28
f 29/29/29 30/30/30 28/28/28
f 33/33/33 32/32/32 31/31/31
f 34/34/34 33/33/33 31/31/31
f 34/34/34 31/31/31 35/35/35
f 36/36/36 34/34/34 35/35/35
f 39/39/39 38/38/38 37/37/37
f 40/40/40 39/39/39 37/37/37
f 40/40/40 41/41/41 39/39/39
f 41/41/41 42/42/42 39/39/39
f 41/41/41 43/43/43 42/42/42
f 43/43/43 44/44/44 42/42/42
f 47/47/47 46/46/46 45/45/45
f 48/48/48 47/47/47 45/45/45
f 51/51/51 50/50/50 49/49/49
f 52/52/52 51/51/51 49/49/49
f 51/51/51 52/52/52 53/53/53
f 52/52/52 54/54/54 53/53/53
f 57/57/57 56/56/56 55/55/55
f 58/58/58 57/57/57 55/55/55
f 57/57/57 58/58/58 59/59/59
f 58/58/58 60/60/60 59/59/59
f 59/59/59 60/60/60 61/61/61
f 60/60/60 62/62/62 61/61/61
f 65/65/65 64/64/64 63/63/63
f 66/66/66 65/65/65 63/63/63
f 66/66/66 63/63/63 67/67/67
f 63/63/63 68/68/68 67/67/67
f 71/71/71 70/70/70 69/69/69
f 72/72/72 71/71/71 69/69/69
f 75/75/75 74/74/74 73/73/73
f 74/74/74 76/76/76 73/73/73
f 73/73/73 76/76/76 77/77/77
f 76/76/76 78/78/78 77/77/77
f 81/81/81 80/80/80 79/79/79
f 82/82/82 81/81/81 79/79/79
f 85/85/85 84/84/84 83/83/83
f 86/86/86 85/85/85 83/83/83
f 86/86/86 83/83/83 87/87/87
f 83/83/83 88/88/88 87/87/87
f 91/91/91 90/90/90 89/89/89
f 92/92/92 91/91/91 89/89/89
f 95/95/95 94/94/94 93/93/93
f 94/94/94 96/96/96 93/93/93
f 94/94/94 97/97/97 96/96/96
f 97/97/97 98/98/98 96/96/96
f 101/101/101 100/100/100 99/99/99
f 102/102/102 101/101/101 99/99/99
f 105/105/105 104/104/104 103/103/103
f 106/106/106 105/105/105 103/103/103
f 106/106/106 103/103/103 107/107/107
f 108/108/108 106/106/106 107/107/107
f 111/111/111 110/110/110 109/109/109
f 112/112/112 111/111/111 109/109/109
f 115/115/115 114/114/114 113/113/113
f 116/116/116 115/115/115 113/113/113
f 119/119/119 118/118/118 117/117/117
f 120/120/120 119/119/119 117/117/117
f 120/120/120 121/121/121 119/119/119
f 121/121/121 122/122/122 119/119/119
f 121/121/121 123/123/123 122/122/122
f 123/123/123 124/124/124 122/122/122
f 127/127/127 126/126/126 125/125/125
f 128/128/128 127/127/127 125/125/125
f 131/131/131 130/130/130 129/129/129
f 132/132/132 131/131/131 129/129/129
f 135/135/135 134/134/134 133/133/133
f 136/136/136 135/135/135 133/133/133
f 139/139/139 138/138/138 137/137/137
f 140/140/140 139/139/139 137/137/137
f 143/143/143 142/142/142 141/141/141
f 144/144/144 143/143/143 141/141/141
f 143/143/143 144/144/144 145/145/145
f 144/144/144 146/146/146 145/145/145
f 145/145/145 146/146/146 147/147/147
f 146/146/146 148/148/148 147/147/147
f 151/151/151 150/150/150 149/149/149
f 152/152/152 151/151/151 149/149/149
f 155/155/155 154/154/154 153/153/153
f 156/156/156 155/155/155 153/153/153
f 159/159/159 158/158/158 157/157/157
f 160/160/160 159/159/159 157/157/157
f 163/163/163 162/162/162 161/161/161
f 162/162/162 164/164/164 161/161/161
f 161/161/161 164/164/164 165/165/165
f 164/164/164 166/166/166 165/165/165
