g stone_07
v 64.69534 225.9822 -67.16231
v 23.24588 241.1048 -54.38533
v 0.3823547 204.3221 -76.96327
v 56.4999 186.2078 -100.6663
v 102.0471 169.3314 -60.29271
v 100.6282 214.4716 -41.69647
v -3.420258 254.5935 51.74363
v 6.284943 253.5497 -9.632999
v 61.56094 248.489 -0.8065071
v 51.85598 249.5328 60.57014
v 112.18 231.0671 7.493816
v 102.4749 232.1109 68.87047
v 39.39956 228.7029 92.81342
v 3.991974 243.1757 67.3802
v 81.3743 216.5424 80.06911
v -24.91342 207.0428 83.01243
v 3.991974 243.1757 67.3802
v 39.39956 228.7029 92.81342
v 20.74612 190.0533 125.4474
v 81.3743 216.5424 80.06911
v 76.7515 172.0521 99.68302
v 102.4749 232.1109 68.87047
v 109.7014 164.2434 8.238338
v 99.99637 165.2872 69.61504
v 112.18 231.0671 7.493816
v 102.0471 169.3314 -60.29271
v 100.6282 214.4716 -41.69647
v 100.6282 214.4716 -41.69647
v 112.18 231.0671 7.493816
v 61.56094 248.489 -0.8065071
v 64.69534 225.9822 -67.16231
v 6.284943 253.5497 -9.632999
v 23.24588 241.1048 -54.38533
v 0.3823547 204.3221 -76.96327
v 23.24588 241.1048 -54.38533
v 6.284943 253.5497 -9.632999
v -23.53598 210.1007 -13.60942
v -33.24099 211.1445 47.76725
v -3.420258 254.5935 51.74363
v -24.91342 207.0428 83.01243
v 3.991974 243.1757 67.3802
v 76.7515 172.0521 99.68302
v 81.3743 216.5424 80.06911
v 102.4749 232.1109 68.87047
v 99.99637 165.2872 69.61504
v 66.50211 0 -83.24004
v 102.0471 169.3314 -60.29271
v 56.4999 186.2078 -100.6663
v 21.40091 16.27164 -133.3397
v 0.3823547 204.3221 -76.96327
v -45.48105 42.41013 -112.0436
v -45.48105 42.41013 -112.0436
v 0.3823547 204.3221 -76.96327
v -23.53598 210.1007 -13.60942
v -90.41501 61.19324 -39.58062
v -33.24099 211.1445 47.76725
v -112.18 71.08868 33.46171
v -24.91342 207.0428 83.01243
v -102.2104 68.20224 78.33818
v -58.06332 52.4002 133.3397
v -102.2104 68.20224 78.33818
v -24.91342 207.0428 83.01243
v 20.74612 190.0533 125.4474
v 76.7515 172.0521 99.68302
v 9.77298 25.7921 107.1418
v 9.77298 25.7921 107.1418
v 76.7515 172.0521 99.68302
v 99.99637 165.2872 69.61504
v 49.25003 9.952194 74.98378
v 109.7014 164.2434 8.238338
v 49.25003 9.952194 74.98378
v 99.99637 165.2872 69.61504
v 71.01492 0.05673218 1.94138
v 102.0471 169.3314 -60.29271
v 66.50211 0 -83.24004
v -146.1663 175.8221 -360.7865
v -130.2826 167.2128 -371.972
v -139.2068 180.5159 -366.2267
v -141.5433 159.618 -363.1695
v -85.59306 124.5022 -346.5532
v -92.84873 119.6087 -340.8814
v -97.13651 118.9798 -331.3957
v -150.2791 175.2189 -351.688
v -142.2387 190.1928 -352.5596
v -148.1979 158.642 -348.4477
v -149.9741 178.9367 -342.4064
v -147.7046 164.6576 -333.4299
v -96.8187 122.8558 -321.7191
v -145.368 185.5554 -336.4871
v -138.2201 192.5471 -336.1909
v -140.2517 175.367 -323.8522
v -92.01651 129.7562 -315.5479
v -128.6861 186.6794 -323.373
v -84.56436 137.0453 -315.2393
v -83.27378 210.6741 -380.576
v -62.0228 115.2517 -339.5406
v -45.88139 118.6289 -338.2339
v -58.22232 215.9157 -378.5482
v -34.07151 123.7116 -327.8246
v -84.29898 236.0408 -371.3981
v -98.02261 235.6746 -363.4415
v -105.479 210.0816 -367.7021
v -81.17252 251.4763 -349.4727
v -104.7452 238.3214 -349.3144
v -101.899 242.9702 -334.4125
v -90.57114 247.8455 -324.4281
v -75.08853 251.0849 -323.1748
v -68.81631 239.2802 -370.1447
v -39.89347 223.804 -362.3929
v -35.28824 231.326 -338.2813
v -31.10422 128.5583 -312.2888
v -38.11289 131.3177 -297.5603
v -57.48844 244.1555 -360.1602
v -61.36496 251.4512 -331.1313
v -68.37095 235.016 -302.549
v -54.64225 248.8043 -345.2585
v -46.16568 235.6086 -315.4229
v -52.42045 130.9359 -289.2653
v -68.56187 127.5586 -290.572
v -68.37095 235.016 -302.549
v -52.42045 130.9359 -289.2653
v -93.4224 229.7745 -304.5771
v -75.08853 251.0849 -323.1748
v -80.37173 122.4759 -300.9814
v -90.57114 247.8455 -324.4281
v -111.7513 221.8862 -320.7321
v -101.899 242.9702 -334.4125
v -83.33902 117.6292 -316.5172
v -116.3565 214.3641 -344.8438
v -104.7452 238.3214 -349.3144
v -105.479 210.0816 -367.7021
v -98.02261 235.6746 -363.4415
v -76.33036 114.8698 -331.2456
v -62.0228 115.2517 -339.5406
v -83.27378 210.6741 -380.576
v -139.2068 180.5159 -366.2267
v -142.2387 190.1928 -352.5596
v -146.1663 175.8221 -360.7865
v -132.0589 187.5075 -365.9306
v -118.7169 178.5253 -371.493
v -130.2826 167.2128 -371.972
v -78.14097 131.7914 -346.2445
v -85.59306 124.5022 -346.5532
v -73.33891 138.6918 -340.0733
v -111.2641 189.2347 -361.9153
v -73.0209 142.5677 -330.3968
v -127.4527 194.1263 -360.0113
v -110.7707 195.2504 -346.8973
v -77.30875 141.9389 -320.911
v -127.1479 197.8441 -350.7297
v -117.4253 194.2743 -332.1754
v -84.56436 137.0453 -315.2393
v -128.6861 186.6794 -323.373
v -131.2607 197.2408 -341.6312
v -138.2201 192.5471 -336.1909
v -6.131631 165.0945 -350.1397
v -34.96036 121.8515 -329.9305
v -28.04233 118.7955 -325.6302
v 4.605186 160.3516 -343.4659
v -0.7889746 177.1739 -344.9335
v 10.70785 160.0098 -331.4259
v -24.11026 118.5754 -317.8726
v -24.66617 121.2751 -309.6205
v 5.846767 174.2426 -340.8087
v 0.5927343 184.9886 -333.1613
v 9.618252 174.0314 -333.3678
v 9.845058 164.1996 -318.619
v 9.085166 176.6208 -325.4526
v 2.346523 171.3205 -309.9369
v -29.49759 125.8633 -304.0264
v -36.75919 130.5876 -303.2267
v -8.923437 178.6528 -308.6957
v 4.451015 181.0218 -320.0868
v -2.514316 185.5534 -319.3197
v 53.79297 216.3886 -253.2066
v 18.2948 228.5525 -237.0623
v -7.178462 183.1221 -248.0975
v 39.12293 168.8301 -275.4855
v 92.28004 158.9407 -248.2296
v 93.99768 210.1468 -237.1628
v 20.74781 247.325 -146.1375
v 13.78858 243.2096 -198.4214
v 67.24463 245.5466 -200.0956
v 74.20386 249.662 -147.8118
v 116.7651 233.5067 -200.1614
v 123.7242 237.6221 -147.8775
v 71.93164 227.1152 -116.9309
v 32.10108 236.7171 -133.3359
v 107.804 218.3114 -133.4364
v 10.96021 193.8487 -111.8218
v 32.10108 236.7171 -133.3359
v 71.93164 227.1152 -116.9309
v 64.76074 183.9913 -82.87017
v 107.804 218.3114 -133.4364
v 110.4189 169.6673 -111.9539
v 123.7242 237.6221 -147.8775
v 117.3474 159.0508 -192.3922
v 124.3064 163.1661 -140.1084
v 116.7651 233.5067 -200.1614
v 92.28004 158.9407 -248.2296
v 93.99768 210.1468 -237.1628
v 93.99768 210.1468 -237.1628
v 116.7651 233.5067 -200.1614
v 67.24463 245.5466 -200.0956
v 53.79297 216.3886 -253.2066
v 13.78858 243.2096 -198.4214
v 18.2948 228.5525 -237.0623
v -7.178462 183.1221 -248.0975
v 18.2948 228.5525 -237.0623
v 13.78858 243.2096 -198.4214
v -12.99853 190.7418 -192.2191
v -6.039301 194.8572 -139.9353
v 20.74781 247.325 -146.1375
v 10.96021 193.8487 -111.8218
v 32.10108 236.7171 -133.3359
v 110.4189 169.6673 -111.9539
v 107.804 218.3114 -133.4364
v 123.7242 237.6221 -147.8775
v 124.3064 163.1661 -140.1084
v 48.5708 -20.94452 -228.2525
v 92.28004 158.9407 -248.2296
v 39.12293 168.8301 -275.4855
v -4.356441 -10.91931 -253.7827
v -7.178462 183.1221 -248.0975
v -50.88757 3.236894 -228.1205
v -50.88757 3.236894 -228.1205
v -7.178462 183.1221 -248.0975
v -12.99853 190.7418 -192.2191
v -62.70752 12.31535 -172.2341
v -6.039301 194.8572 -139.9353
v -55.74847 16.43076 -119.9503
v 10.96021 193.8487 -111.8218
v -32.7489 13.96349 -91.84476
v 21.05164 4.106081 -62.8931
v -32.7489 13.96349 -91.84476
v 10.96021 193.8487 -111.8218
v 64.76074 183.9913 -82.87017
v 110.4189 169.6673 -111.9539
v 66.70972 -10.21795 -91.97681
v 66.70972 -10.21795 -91.97681
v 110.4189 169.6673 -111.9539
v 124.3064 163.1661 -140.1084
v 87.62634 -18.42804 -120.1406
v 117.3474 159.0508 -192.3922
v 87.62634 -18.42804 -120.1406
v 124.3064 163.1661 -140.1084
v 80.66711 -22.54342 -172.4245
v 92.28004 158.9407 -248.2296
v 48.5708 -20.94452 -228.2525
v 0.5927343 184.9886 -333.1613
v -7.754189 181.7055 -344.1664
v -0.7889746 177.1739 -344.9335
v -6.131631 165.0945 -350.1397
v -17.40165 172.4267 -348.8986
v -34.96036 121.8515 -329.9305
v -42.22208 126.576 -329.1307
v -47.0535 131.1642 -323.5365
v -12.38853 186.1065 -338.8005
v -24.90006 179.5477 -340.2164
v -47.60941 133.8639 -315.2846
v -12.92161 188.6958 -330.8853
v -25.76273 183.7374 -327.4095
v -9.150059 188.4847 -323.4443
v -2.514316 185.5534 -319.3197
v -19.66019 183.3955 -315.3696
v -43.67734 133.6436 -307.5269
v -8.923437 178.6528 -308.6957
v -36.75919 130.5876 -303.2267
vt 0.6425781 0.9643555
vt 0.6513672 0.965332
vt 0.6572266 0.9501953
vt 0.6464844 0.9501953
vt 0.628418 0.9501953
vt 0.6293945 0.965332
vt 0.6420898 0.9677734
vt 0.6494141 0.9677734
vt 0.6347656 0.9726563
vt 0.6279297 0.9726563
vt 0.6206055 0.9726563
vt 0.6132813 0.9726563
vt 0.6240234 0.9643555
vt 0.637207 0.965332
vt 0.6152344 0.965332
vt 0.6381836 0.9501953
vt 0.637207 0.965332
vt 0.6240234 0.9643555
vt 0.6196289 0.9501953
vt 0.6152344 0.965332
vt 0.609375 0.9501953
vt 0.6132813 0.9726563
vt 0.6152344 0.9501953
vt 0.6083984 0.9501953
vt 0.6206055 0.9726563
vt 0.628418 0.9501953
vt 0.6293945 0.965332
vt 0.6293945 0.965332
vt 0.6206055 0.9726563
vt 0.6347656 0.9726563
vt 0.6425781 0.9643555
vt 0.6494141 0.9677734
vt 0.6513672 0.965332
vt 0.6572266 0.9501953
vt 0.6513672 0.965332
vt 0.6494141 0.9677734
vt 0.6533203 0.9501953
vt 0.6459961 0.9501953
vt 0.6420898 0.9677734
vt 0.6381836 0.9501953
vt 0.637207 0.965332
vt 0.609375 0.9501953
vt 0.6152344 0.965332
vt 0.6132813 0.9726563
vt 0.6083984 0.9501953
vt 0.628418 0.9355469
vt 0.628418 0.9501953
vt 0.6464844 0.9501953
vt 0.6459961 0.9355469
vt 0.6572266 0.9501953
vt 0.6572266 0.9355469
vt 0.6572266 0.9355469
vt 0.6572266 0.9501953
vt 0.6533203 0.9501953
vt 0.6552734 0.9355469
vt 0.6459961 0.9501953
vt 0.6479492 0.9355469
vt 0.6381836 0.9501953
vt 0.6381836 0.9355469
vt 0.6196289 0.9355469
vt 0.6381836 0.9355469
vt 0.6381836 0.9501953
vt 0.6196289 0.9501953
vt 0.609375 0.9501953
vt 0.609375 0.9355469
vt 0.609375 0.9355469
vt 0.609375 0.9501953
vt 0.6083984 0.9501953
vt 0.605957 0.9355469
vt 0.6152344 0.9501953
vt 0.605957 0.9355469
vt 0.6083984 0.9501953
vt 0.6132813 0.9355469
vt 0.628418 0.9501953
vt 0.628418 0.9355469
vt 0.5253906 0.9887695
vt 0.5170898 0.9780273
vt 0.5249023 0.9882813
vt 0.5180664 0.9790039
vt 0.5239258 0.9125977
vt 0.5249023 0.9135742
vt 0.5307617 0.9140625
vt 0.53125 0.9897461
vt 0.5380859 0.9926758
vt 0.5273438 0.9804688
vt 0.5395508 0.9902344
vt 0.5410156 0.9814453
vt 0.5395508 0.9145508
vt 0.5473633 0.9902344
vt 0.5517578 0.9897461
vt 0.5537109 0.9814453
vt 0.5478516 0.9150391
vt 0.5610352 0.980957
vt 0.5522461 0.9145508
vt 0.5151367 0.9755859
vt 0.5195313 0.9189453
vt 0.5229492 0.9150391
vt 0.5209961 0.9692383
vt 0.53125 0.9125977
vt 0.5253906 0.9853516
vt 0.5273438 0.9892578
vt 0.5185547 0.9814453
vt 0.5400391 0.9892578
vt 0.5336914 0.9916992
vt 0.5429688 0.9916992
vt 0.5507813 0.9892578
vt 0.5541992 0.9853516
vt 0.5288086 0.9819336
vt 0.5336914 0.965332
vt 0.5483398 0.965332
vt 0.5405273 0.9125977
vt 0.5478516 0.9150391
vt 0.5366211 0.9794922
vt 0.5522461 0.9814453
vt 0.5625 0.9750977
vt 0.5454102 0.9790039
vt 0.5595703 0.96875
vt 0.5498047 0.9189453
vt 0.5458984 0.9228516
vt 0.5625 0.9750977
vt 0.5498047 0.9189453
vt 0.5566406 0.9814453
vt 0.5541992 0.9853516
vt 0.5380859 0.925293
vt 0.5507813 0.9892578
vt 0.5439453 0.9853516
vt 0.5429688 0.9916992
vt 0.5283203 0.925293
vt 0.5292969 0.9853516
vt 0.5336914 0.9916992
vt 0.5185547 0.9814453
vt 0.5273438 0.9892578
vt 0.5214844 0.9233398
vt 0.5195313 0.9189453
vt 0.5151367 0.9755859
vt 0.5249023 0.9882813
vt 0.5380859 0.9926758
vt 0.5253906 0.9887695
vt 0.5292969 0.987793
vt 0.5244141 0.9775391
vt 0.5170898 0.9780273
vt 0.5288086 0.9121094
vt 0.5239258 0.9125977
vt 0.5371094 0.9125977
vt 0.5371094 0.9775391
vt 0.5458984 0.9130859
vt 0.5371094 0.987793
vt 0.5507813 0.9785156
vt 0.5517578 0.9135742
vt 0.5454102 0.9882813
vt 0.5600586 0.9794922
vt 0.5522461 0.9145508
vt 0.5610352 0.980957
vt 0.5512695 0.9892578
vt 0.5517578 0.9897461
vt 0.5205078 0.9755859
vt 0.5263672 0.9160156
vt 0.5307617 0.9165039
vt 0.527832 0.9755859
vt 0.527832 0.9858398
vt 0.5395508 0.9755859
vt 0.5380859 0.9165039
vt 0.5458984 0.9160156
vt 0.5322266 0.9858398
vt 0.5400391 0.9897461
vt 0.5395508 0.9858398
vt 0.5522461 0.9755859
vt 0.5473633 0.9858398
vt 0.5600586 0.9750977
vt 0.550293 0.9160156
vt 0.5507813 0.9160156
vt 0.5605469 0.9750977
vt 0.5522461 0.9858398
vt 0.5527344 0.9858398
vt 0.6425781 0.96875
vt 0.6513672 0.9692383
vt 0.6572266 0.9545898
vt 0.6464844 0.9545898
vt 0.628418 0.9545898
vt 0.6293945 0.9692383
vt 0.6420898 0.972168
vt 0.6494141 0.972168
vt 0.6347656 0.9765625
vt 0.6279297 0.9765625
vt 0.6206055 0.9765625
vt 0.6132813 0.9765625
vt 0.6240234 0.96875
vt 0.637207 0.9692383
vt 0.6152344 0.9692383
vt 0.6381836 0.9545898
vt 0.637207 0.9692383
vt 0.6240234 0.96875
vt 0.6196289 0.9545898
vt 0.6152344 0.9692383
vt 0.609375 0.9545898
vt 0.6132813 0.9765625
vt 0.6152344 0.9545898
vt 0.6083984 0.9545898
vt 0.6206055 0.9765625
vt 0.628418 0.9545898
vt 0.6293945 0.9692383
vt 0.6293945 0.9692383
vt 0.6206055 0.9765625
vt 0.6347656 0.9765625
vt 0.6425781 0.96875
vt 0.6494141 0.972168
vt 0.6513672 0.9692383
vt 0.6572266 0.9545898
vt 0.6513672 0.9692383
vt 0.6494141 0.972168
vt 0.6533203 0.9545898
vt 0.6459961 0.9545898
vt 0.6420898 0.972168
vt 0.6381836 0.9545898
vt 0.637207 0.9692383
vt 0.609375 0.9545898
vt 0.6152344 0.9692383
vt 0.6132813 0.9765625
vt 0.6083984 0.9545898
vt 0.628418 0.9399414
vt 0.628418 0.9545898
vt 0.6464844 0.9545898
vt 0.6459961 0.9399414
vt 0.6572266 0.9545898
vt 0.6572266 0.9399414
vt 0.6572266 0.9399414
vt 0.6572266 0.9545898
vt 0.6533203 0.9545898
vt 0.6552734 0.9399414
vt 0.6459961 0.9545898
vt 0.6479492 0.9399414
vt 0.6381836 0.9545898
vt 0.6381836 0.9399414
vt 0.6196289 0.9399414
vt 0.6381836 0.9399414
vt 0.6381836 0.9545898
vt 0.6196289 0.9545898
vt 0.609375 0.9545898
vt 0.609375 0.9399414
vt 0.609375 0.9399414
vt 0.609375 0.9545898
vt 0.6083984 0.9545898
vt 0.605957 0.9399414
vt 0.6152344 0.9545898
vt 0.605957 0.9399414
vt 0.6083984 0.9545898
vt 0.6132813 0.9399414
vt 0.628418 0.9545898
vt 0.628418 0.9399414
vt 0.5400391 0.9897461
vt 0.527832 0.9858398
vt 0.527832 0.9858398
vt 0.5205078 0.9755859
vt 0.5209961 0.9750977
vt 0.5263672 0.9160156
vt 0.5268555 0.9160156
vt 0.5317383 0.9160156
vt 0.5327148 0.9858398
vt 0.5288086 0.9750977
vt 0.5390625 0.9160156
vt 0.5405273 0.9858398
vt 0.5410156 0.9750977
vt 0.5478516 0.9858398
vt 0.5527344 0.9858398
vt 0.5532227 0.9750977
vt 0.5463867 0.9160156
vt 0.5605469 0.9750977
vt 0.5507813 0.9160156
vn 0.3112793 0.5268555 -0.7910156
vn -0.0859375 0.6113281 -0.7866211
vn -0.0859375 0.6113281 -0.7866211
vn 0.310791 0.5273438 -0.7910156
vn 0.6591797 0.354248 -0.6630859
vn 0.6591797 0.354248 -0.6630859
vn 0.06872559 0.9912109 0.1138916
vn 0.1318359 0.9848633 -0.1106567
vn 0.2526855 0.9594727 -0.1243286
vn 0.1904297 0.9589844 0.2092285
vn 0.3637695 0.9243164 -0.1144409
vn 0.3183594 0.9243164 0.2102051
vn 0.1133423 0.7456055 0.65625
vn -0.03120422 0.8305664 0.5561523
vn 0.2407227 0.6445313 0.7255859
vn -0.3237305 0.6499023 0.6879883
vn -0.3237305 0.6499023 0.6879883
vn 0.06137085 0.5683594 0.8208008
vn 0.06066895 0.5683594 0.8203125
vn 0.4379883 0.3874512 0.8110352
vn 0.4379883 0.387207 0.8115234
vn 0.9599609 -0.01050568 0.2800293
vn 0.9995117 -0.01296997 0.02005005
vn 0.9453125 -0.001213074 0.3256836
vn 0.9995117 -0.01512146 0.03338623
vn 0.9863281 0.0165863 -0.1625977
vn 0.9863281 0.01657104 -0.1625977
vn 0.4101563 0.8544922 -0.3190918
vn 0.3637695 0.9243164 -0.1144409
vn 0.2526855 0.9594727 -0.1243286
vn 0.3010254 0.9072266 -0.2937012
vn 0.1318359 0.9848633 -0.1106567
vn 0.1866455 0.9462891 -0.263916
vn -0.715332 0.5922852 -0.3703613
vn -0.715332 0.5922852 -0.3703613
vn -0.7739258 0.5839844 -0.2449951
vn -0.7734375 0.5844727 -0.2458496
vn -0.8071289 0.590332 0.01143646
vn -0.8076172 0.5898438 0.004772186
vn -0.7099609 0.5820313 0.3969727
vn -0.7099609 0.5820313 0.3969727
vn 0.668457 0.09234619 0.737793
vn 0.668457 0.09228516 0.737793
vn 0.9599609 -0.01050568 0.2800293
vn 0.9453125 -0.001213074 0.3256836
vn 0.7006836 -0.02906799 -0.7128906
vn 0.7006836 -0.02906799 -0.7128906
vn 0.2271729 0.1394043 -0.9638672
vn 0.2880859 0.1213989 -0.949707
vn -0.2512207 0.2521973 -0.9345703
vn -0.2512207 0.2521973 -0.9345703
vn -0.7949219 0.3811035 -0.4719238
vn -0.7949219 0.3811035 -0.4719238
vn -0.8310547 0.4257813 -0.3583984
vn -0.8266602 0.4196777 -0.3752441
vn -0.8774414 0.4763184 -0.05584717
vn -0.8759766 0.4755859 -0.07891846
vn -0.8544922 0.4626465 0.2354736
vn -0.8544922 0.4626465 0.2355957
vn -0.1993408 0.15625 0.9672852
vn -0.6225586 0.3596191 0.6948242
vn -0.6225586 0.3596191 0.6948242
vn -0.1019287 0.1070557 0.9892578
vn 0.3447266 -0.126709 0.9301758
vn 0.3447266 -0.126709 0.9301758
vn 0.6455078 -0.2209473 0.730957
vn 0.6455078 -0.2209473 0.730957
vn 0.8598633 -0.2568359 0.4411621
vn 0.8569336 -0.2563477 0.4470215
vn 0.9692383 -0.2374268 0.0682373
vn 0.8569336 -0.2563477 0.4470215
vn 0.8598633 -0.2568359 0.4411621
vn 0.9697266 -0.236084 0.06008911
vn 0.9741211 -0.2094727 -0.08398438
vn 0.9741211 -0.2094727 -0.08398438
vn -0.8105469 0.1192627 -0.5737305
vn -0.1917725 -0.2015381 -0.9604492
vn -0.5380859 0.3029785 -0.7866211
vn -0.597168 -0.4958496 -0.6303711
vn 0.08148193 -0.4846191 -0.8710938
vn -0.3481445 -0.769043 -0.5361328
vn -0.6010742 -0.7988281 0.02310181
vn -0.9711914 0.09564209 -0.2174072
vn -0.6704102 0.6962891 -0.2568359
vn -0.8339844 -0.5463867 -0.07366943
vn -0.9594727 0.2412109 0.1459961
vn -0.8100586 -0.3300781 0.4846191
vn -0.5800781 -0.574707 0.5771484
vn -0.7792969 0.5004883 0.3776855
vn -0.4992676 0.7739258 0.3894043
vn -0.5351563 0.074646 0.8413086
vn -0.2971191 -0.1738281 0.9389648
vn -0.1082153 0.503418 0.8574219
vn 0.1407471 0.2504883 0.9580078
vn -0.222168 -0.06262207 -0.9731445
vn -0.1486816 -0.4487305 -0.8813477
vn 0.4575195 -0.3249512 -0.8276367
vn 0.3637695 0.07049561 -0.9287109
vn 0.8925781 -0.1289063 -0.4321289
vn -0.2507324 0.5483398 -0.7978516
vn -0.5893555 0.5390625 -0.6015625
vn -0.737793 -0.09381104 -0.668457
vn -0.1772461 0.9487305 -0.2619629
vn -0.7553711 0.6044922 -0.2526855
vn -0.6850586 0.7192383 0.1150513
vn -0.4055176 0.8393555 0.3615723
vn -0.02345276 0.9194336 0.392334
vn 0.1313477 0.6279297 -0.7670898
vn 0.8051758 0.2442627 -0.5400391
vn 0.9150391 0.4025879 0.02137756
vn 0.9916992 0.04373169 0.1207275
vn 0.7333984 0.1444092 0.6640625
vn 0.4108887 0.7485352 -0.5205078
vn 0.3151855 0.9287109 0.1960449
vn 0.1369629 0.4790039 0.8671875
vn 0.4812012 0.8632813 -0.15271
vn 0.6591797 0.5 0.5615234
vn 0.2055664 0.1313477 0.9697266
vn -0.3901367 0.009597778 0.9208984
vn 0.1369629 0.4790039 0.8671875
vn 0.2055664 0.1313477 0.9697266
vn -0.4523926 0.3476563 0.8212891
vn -0.02345276 0.9194336 0.392334
vn -0.8261719 -0.1744385 0.5356445
vn -0.4055176 0.8393555 0.3615723
vn -0.8833008 0.15625 0.4418945
vn -0.6850586 0.7192383 0.1150513
vn -0.9365234 -0.3496094 -0.02534485
vn -0.9921875 -0.01111603 -0.1231079
vn -0.7553711 0.6044922 -0.2526855
vn -0.737793 -0.09381104 -0.668457
vn -0.5893555 0.5390625 -0.6015625
vn -0.6796875 -0.458252 -0.5727539
vn -0.1486816 -0.4487305 -0.8813477
vn -0.222168 -0.06262207 -0.9731445
vn -0.5380859 0.3029785 -0.7866211
vn -0.6704102 0.6962891 -0.2568359
vn -0.8105469 0.1192627 -0.5737305
vn -0.2580566 0.5766602 -0.7749023
vn 0.2314453 0.2269287 -0.9458008
vn -0.1917725 -0.2015381 -0.9604492
vn 0.5273438 -0.05297852 -0.8481445
vn 0.08148193 -0.4846191 -0.8710938
vn 0.8037109 0.3579102 -0.4755859
vn 0.5249023 0.6225586 -0.5805664
vn 0.815918 0.5737305 0.07110596
vn -0.07763672 0.8359375 -0.543457
vn 0.5546875 0.8320313 -0.02560425
vn 0.565918 0.5361328 0.6264648
vn -0.06573486 0.9814453 -0.1799316
vn 0.3081055 0.7924805 0.5258789
vn 0.1407471 0.2504883 0.9580078
vn -0.1082153 0.503418 0.8574219
vn -0.2266846 0.9580078 0.1762695
vn -0.4992676 0.7739258 0.3894043
vn 0.1845703 -0.09588623 -0.9780273
vn -0.01603699 -0.4533691 -0.8911133
vn 0.4763184 -0.6621094 -0.5786133
vn 0.6645508 -0.324707 -0.6728516
vn 0.4362793 0.442627 -0.7836914
vn 0.9248047 -0.3535156 -0.1398926
vn 0.7382813 -0.6728516 -0.05218506
vn 0.6987305 -0.484375 0.5268555
vn 0.7475586 0.3049316 -0.5898438
vn 0.5117188 0.8261719 -0.2358398
vn 0.9248047 0.2949219 -0.2407227
vn 0.8842773 -0.1688232 0.4353027
vn 0.8994141 0.4165039 0.1307373
vn 0.5444336 0.1444092 0.8261719
vn 0.3603516 -0.1617432 0.9189453
vn -0.1474609 0.1719971 0.9741211
vn 0.03475952 0.4663086 0.8837891
vn 0.6821289 0.6230469 0.3825684
vn 0.3552246 0.8359375 0.4187012
vn 0.09442139 0.3500977 -0.9321289
vn -0.3088379 0.4360352 -0.8452148
vn -0.3088379 0.4362793 -0.8452148
vn 0.07250977 0.3564453 -0.9316406
vn 0.4414063 0.2203369 -0.8696289
vn 0.4414063 0.220459 -0.8696289
vn -0.04534912 0.9960938 0.07562256
vn -0.01982117 0.9711914 -0.2373047
vn 0.1173096 0.9506836 -0.2868652
vn 0.1234741 0.9799805 0.1567383
vn 0.2521973 0.9213867 -0.2954102
vn 0.2756348 0.9501953 0.1468506
vn 0.1500244 0.7211914 0.6762695
vn -0.03442383 0.7924805 0.6088867
vn 0.2939453 0.640625 0.7094727
vn -0.2531738 0.5825195 0.7724609
vn -0.2531738 0.5825195 0.7724609
vn 0.1245728 0.5522461 0.8242188
vn 0.1473389 0.5478516 0.8237305
vn 0.5307617 0.4194336 0.7363281
vn 0.5307617 0.4194336 0.7363281
vn 0.9995117 0.02194214 -0.01520538
vn 0.9609375 -0.001673698 -0.2768555
vn 0.996582 0.04205322 0.06964111
vn 0.965332 -0.002157211 -0.2609863
vn 0.8886719 0.003993988 -0.4587402
vn 0.8886719 0.004009247 -0.4587402
vn 0.2600098 0.7851563 -0.5620117
vn 0.2521973 0.9213867 -0.2954102
vn 0.1173096 0.9506836 -0.2868652
vn 0.1315918 0.8564453 -0.4992676
vn -0.01982117 0.9711914 -0.2373047
vn 0.01309204 0.9018555 -0.4318848
vn -0.859375 0.46875 -0.2043457
vn -0.859375 0.46875 -0.2043457
vn -0.8823242 0.4689941 -0.04125977
vn -0.8818359 0.4692383 -0.05014038
vn -0.8417969 0.486084 0.2342529
vn -0.8452148 0.4848633 0.2247314
vn -0.6430664 0.4934082 0.5854492
vn -0.6430664 0.4934082 0.5854492
vn 0.784668 0.1624756 0.5981445
vn 0.784668 0.1624756 0.5981445
vn 0.9995117 0.02194214 -0.01520538
vn 0.996582 0.04205322 0.06964111
vn 0.4057617 -0.2016602 -0.8916016
vn 0.4057617 -0.2016602 -0.8916016
vn -0.02792358 -0.1083984 -0.9936523
vn -0.02745056 -0.1085205 -0.9936523
vn -0.4916992 0.01835632 -0.8706055
vn -0.4919434 0.01835632 -0.8706055
vn -0.9555664 0.2285156 -0.1849365
vn -0.9555664 0.2285156 -0.1849365
vn -0.9658203 0.2548828 -0.04602051
vn -0.9658203 0.255127 -0.04580688
vn -0.9116211 0.2817383 0.2990723
vn -0.9125977 0.2817383 0.2956543
vn -0.7773438 0.2663574 0.5698242
vn -0.7773438 0.2663574 0.5698242
vn 0.02661133 0.1039429 0.9941406
vn -0.4348145 0.203125 0.8774414
vn -0.4348145 0.203125 0.8774414
vn 0.02661133 0.1039429 0.9941406
vn 0.5292969 -0.03445435 0.8476563
vn 0.5292969 -0.03445435 0.8476563
vn 0.8291016 -0.1242065 0.5449219
vn 0.8291016 -0.1242065 0.5449219
vn 0.9702148 -0.1860352 0.1540527
vn 0.9707031 -0.1864014 0.1503906
vn 0.9262695 -0.2298584 -0.298584
vn 0.9707031 -0.1864014 0.1503906
vn 0.9702148 -0.1860352 0.1540527
vn 0.9272461 -0.2296143 -0.2961426
vn 0.862793 -0.2409668 -0.4448242
vn 0.862793 -0.2409668 -0.4448242
vn 0.5117188 0.8261719 -0.2358398
vn 0.109314 0.6552734 -0.7475586
vn 0.4362793 0.442627 -0.7836914
vn 0.1845703 -0.09588623 -0.9780273
vn -0.3237305 0.2224121 -0.9194336
vn -0.01603699 -0.4533691 -0.8911133
vn -0.5327148 -0.1130981 -0.8383789
vn -0.8706055 0.2138672 -0.4431152
vn -0.1081543 0.8618164 -0.4956055
vn -0.6665039 0.5239258 -0.5307617
vn -0.902832 0.4064941 0.1397705
vn -0.1331787 0.9833984 -0.1242065
vn -0.7158203 0.6967773 0.04962158
vn 0.04382324 0.9731445 0.2250977
vn 0.3552246 0.8359375 0.4187012
vn -0.4494629 0.6743164 0.5859375
vn -0.6303711 0.3891602 0.6713867
vn 0.03475952 0.4663086 0.8837891
vn -0.1474609 0.1719971 0.9741211
g stone_07_0
f 3/3/3 2/2/2 1/1/1
f 4/4/4 3/3/3 1/1/1
f 4/4/4 1/1/1 5/5/5
f 1/1/1 6/6/6 5/5/5
f 9/9/9 8/8/8 7/7/7
f 10/10/10 9/9/9 7/7/7
f 9/9/9 10/10/10 11/11/11
f 10/10/10 12/12/12 11/11/11
f 10/10/10 7/7/7 13/13/13
f 10/10/10 13/13/13 12/12/12
f 7/7/7 14/14/14 13/13/13
f 13/13/13 15/15/15 12/12/12
f 18/18/18 17/17/17 16/16/16
f 19/19/19 18/18/18 16/16/16
f 18/18/18 19/19/19 20/20/20
f 19/19/19 21/21/21 20/20/20
f 24/24/24 23/23/23 22/22/22
f 23/23/23 25/25/25 22/22/22
f 23/23/23 26/26/26 25/25/25
f 26/26/26 27/27/27 25/25/25
f 30/30/30 29/29/29 28/28/28
f 31/31/31 30/30/30 28/28/28
f 30/30/30 31/31/31 32/32/32
f 31/31/31 33/33/33 32/32/32
f 36/36/36 35/35/35 34/34/34
f 37/37/37 36/36/36 34/34/34
f 37/37/37 38/38/38 36/36/36
f 38/38/38 39/39/39 36/36/36
f 38/38/38 40/40/40 39/39/39
f 40/40/40 41/41/41 39/39/39
f 44/44/44 43/43/43 42/42/42
f 45/45/45 44/44/44 42/42/42
f 48/48/48 47/47/47 46/46/46
f 49/49/49 48/48/48 46/46/46
f 48/48/48 49/49/49 50/50/50
f 49/49/49 51/51/51 50/50/50
f 54/54/54 53/53/53 52/52/52
f 55/55/55 54/54/54 52/52/52
f 54/54/54 55/55/55 56/56/56
f 55/55/55 57/57/57 56/56/56
f 56/56/56 57/57/57 58/58/58
f 57/57/57 59/59/59 58/58/58
f 62/62/62 61/61/61 60/60/60
f 63/63/63 62/62/62 60/60/60
f 63/63/63 60/60/60 64/64/64
f 60/60/60 65/65/65 64/64/64
f 68/68/68 67/67/67 66/66/66
f 69/69/69 68/68/68 66/66/66
f 72/72/72 71/71/71 70/70/70
f 71/71/71 73/73/73 70/70/70
f 70/70/70 73/73/73 74/74/74
f 73/73/73 75/75/75 74/74/74
f 78/78/78 77/77/77 76/76/76
f 77/77/77 79/79/79 76/76/76
f 79/79/79 77/77/77 80/80/80
f 81/81/81 79/79/79 80/80/80
f 81/81/81 82/82/82 79/79/79
f 76/76/76 79/79/79 83/83/83
f 83/83/83 84/84/84 76/76/76
f 82/82/82 85/85/85 79/79/79
f 79/79/79 85/85/85 83/83/83
f 83/83/83 86/86/86 84/84/84
f 83/83/83 85/85/85 86/86/86
f 87/87/87 85/85/85 82/82/82
f 85/85/85 87/87/87 86/86/86
f 88/88/88 87/87/87 82/82/82
f 86/86/86 89/89/89 84/84/84
f 86/86/86 87/87/87 89/89/89
f 90/90/90 84/84/84 89/89/89
f 91/91/91 87/87/87 88/88/88
f 87/87/87 91/91/91 89/89/89
f 89/89/89 91/91/91 90/90/90
f 92/92/92 91/91/91 88/88/88
f 91/91/91 93/93/93 90/90/90
f 93/93/93 91/91/91 92/92/92
f 94/94/94 93/93/93 92/92/92
f 97/97/97 96/96/96 95/95/95
f 98/98/98 97/97/97 95/95/95
f 99/99/99 97/97/97 98/98/98
f 98/98/98 95/95/95 100/100/100
f 100/100/100 95/95/95 101/101/101
f 95/95/95 102/102/102 101/101/101
f 101/101/101 103/103/103 100/100/100
f 104/104/104 103/103/103 101/101/101
f 105/105/105 103/103/103 104/104/104
f 106/106/106 103/103/103 105/105/105
f 107/107/107 103/103/103 106/106/106
f 108/108/108 98/98/98 100/100/100
f 108/108/108 100/100/100 103/103/103
f 109/109/109 99/99/99 98/98/98
f 109/109/109 98/98/98 108/108/108
f 99/99/99 109/109/109 110/110/110
f 111/111/111 99/99/99 110/110/110
f 111/111/111 110/110/110 112/112/112
f 113/113/113 109/109/109 108/108/108
f 113/113/113 108/108/108 103/103/103
f 110/110/110 109/109/109 113/113/113
f 114/114/114 103/103/103 107/107/107
f 107/107/107 115/115/115 114/114/114
f 116/116/116 113/113/113 103/103/103
f 116/116/116 110/110/110 113/113/113
f 114/114/114 116/116/116 103/103/103
f 110/110/110 117/117/117 112/112/112
f 117/117/117 110/110/110 116/116/116
f 114/114/114 117/117/117 116/116/116
f 115/115/115 117/117/117 114/114/114
f 112/112/112 117/117/117 118/118/118
f 117/117/117 115/115/115 118/118/118
f 121/121/121 120/120/120 119/119/119
f 120/120/120 122/122/122 119/119/119
f 122/122/122 120/120/120 123/123/123
f 119/119/119 122/122/122 124/124/124
f 125/125/125 122/122/122 123/123/123
f 122/122/122 126/126/126 124/124/124
f 126/126/126 122/122/122 125/125/125
f 127/127/127 126/126/126 125/125/125
f 124/124/124 126/126/126 128/128/128
f 129/129/129 126/126/126 127/127/127
f 126/126/126 129/129/129 128/128/128
f 130/130/130 129/129/129 127/127/127
f 128/128/128 129/129/129 131/131/131
f 131/131/131 129/129/129 130/130/130
f 132/132/132 131/131/131 130/130/130
f 133/133/133 128/128/128 131/131/131
f 133/133/133 131/131/131 134/134/134
f 131/131/131 135/135/135 134/134/134
f 138/138/138 137/137/137 136/136/136
f 136/136/136 137/137/137 139/139/139
f 139/139/139 140/140/140 136/136/136
f 140/140/140 141/141/141 136/136/136
f 140/140/140 142/142/142 141/141/141
f 142/142/142 143/143/143 141/141/141
f 144/144/144 142/142/142 140/140/140
f 145/145/145 144/144/144 140/140/140
f 145/145/145 140/140/140 139/139/139
f 144/144/144 145/145/145 146/146/146
f 147/147/147 145/145/145 139/139/139
f 139/139/139 137/137/137 147/147/147
f 145/145/145 148/148/148 146/146/146
f 148/148/148 145/145/145 147/147/147
f 146/146/146 148/148/148 149/149/149
f 147/147/147 137/137/137 150/150/150
f 150/150/150 148/148/148 147/147/147
f 148/148/148 151/151/151 149/149/149
f 151/151/151 148/148/148 150/150/150
f 149/149/149 151/151/151 152/152/152
f 151/151/151 153/153/153 152/152/152
f 154/154/154 150/150/150 137/137/137
f 154/154/154 151/151/151 150/150/150
f 153/153/153 151/151/151 154/154/154
f 155/155/155 154/154/154 137/137/137
f 155/155/155 153/153/153 154/154/154
f 158/158/158 157/157/157 156/156/156
f 159/159/159 158/158/158 156/156/156
f 159/159/159 156/156/156 160/160/160
f 158/158/158 159/159/159 161/161/161
f 162/162/162 158/158/158 161/161/161
f 162/162/162 161/161/161 163/163/163
f 164/164/164 159/159/159 160/160/160
f 161/161/161 159/159/159 164/164/164
f 160/160/160 165/165/165 164/164/164
f 166/166/166 161/161/161 164/164/164
f 164/164/164 165/165/165 166/166/166
f 161/161/161 167/167/167 163/163/163
f 167/167/167 161/161/161 166/166/166
f 166/166/166 165/165/165 168/168/168
f 168/168/168 167/167/167 166/166/166
f 163/163/163 167/167/167 169/169/169
f 169/169/169 167/167/167 168/168/168
f 170/170/170 163/163/163 169/169/169
f 170/170/170 169/169/169 171/171/171
f 169/169/169 172/172/172 171/171/171
f 168/168/168 165/165/165 173/173/173
f 173/173/173 169/169/169 168/168/168
f 172/172/172 169/169/169 173/173/173
f 173/173/173 165/165/165 174/174/174
f 174/174/174 172/172/172 173/173/173
f 177/177/177 176/176/176 175/175/175
f 178/178/178 177/177/177 175/175/175
f 178/178/178 175/175/175 179/179/179
f 175/175/175 180/180/180 179/179/179
f 183/183/183 182/182/182 181/181/181
f 184/184/184 183/183/183 181/181/181
f 183/183/183 184/184/184 185/185/185
f 184/184/184 186/186/186 185/185/185
f 184/184/184 181/181/181 187/187/187
f 184/184/184 187/187/187 186/186/186
f 181/181/181 188/188/188 187/187/187
f 187/187/187 189/189/189 186/186/186
f 192/192/192 191/191/191 190/190/190
f 193/193/193 192/192/192 190/190/190
f 192/192/192 193/193/193 194/194/194
f 193/193/193 195/195/195 194/194/194
f 198/198/198 197/197/197 196/196/196
f 197/197/197 199/199/199 196/196/196
f 197/197/197 200/200/200 199/199/199
f 200/200/200 201/201/201 199/199/199
f 204/204/204 203/203/203 202/202/202
f 205/205/205 204/204/204 202/202/202
f 204/204/204 205/205/205 206/206/206
f 205/205/205 207/207/207 206/206/206
f 210/210/210 209/209/209 208/208/208
f 211/211/211 210/210/210 208/208/208
f 211/211/211 212/212/212 210/210/210
f 212/212/212 213/213/213 210/210/210
f 212/212/212 214/214/214 213/213/213
f 214/214/214 215/215/215 213/213/213
f 218/218/218 217/217/217 216/216/216
f 219/219/219 218/218/218 216/216/216
f 222/222/222 221/221/221 220/220/220
f 223/223/223 222/222/222 220/220/220
f 222/222/222 223/223/223 224/224/224
f 223/223/223 225/225/225 224/224/224
f 228/228/228 227/227/227 226/226/226
f 229/229/229 228/228/228 226/226/226
f 228/228/228 229/229/229 230/230/230
f 229/229/229 231/231/231 230/230/230
f 230/230/230 231/231/231 232/232/232
f 231/231/231 233/233/233 232/232/232
f 236/236/236 235/235/235 234/234/234
f 237/237/237 236/236/236 234/234/234
f 237/237/237 234/234/234 238/238/238
f 234/234/234 239/239/239 238/238/238
f 242/242/242 241/241/241 240/240/240
f 243/243/243 242/242/242 240/240/240
f 246/246/246 245/245/245 244/244/244
f 245/245/245 247/247/247 244/244/244
f 244/244/244 247/247/247 248/248/248
f 247/247/247 249/249/249 248/248/248
f 252/252/252 251/251/251 250/250/250
f 252/252/252 253/253/253 251/251/251
f 253/253/253 254/254/254 251/251/251
f 253/253/253 255/255/255 254/254/254
f 255/255/255 256/256/256 254/254/254
f 256/256/256 257/257/257 254/254/254
f 251/251/251 254/254/254 258/258/258
f 258/258/258 250/250/250 251/251/251
f 257/257/257 259/259/259 254/254/254
f 254/254/254 259/259/259 258/258/258
f 257/257/257 260/260/260 259/259/259
f 261/261/261 250/250/250 258/258/258
f 258/258/258 259/259/259 261/261/261
f 260/260/260 262/262/262 259/259/259
f 259/259/259 262/262/262 261/261/261
f 263/263/263 250/250/250 261/261/261
f 261/261/261 262/262/262 263/263/263
f 264/264/264 250/250/250 263/263/263
f 265/265/265 262/262/262 260/260/260
f 262/262/262 265/265/265 263/263/263
f 263/263/263 265/265/265 264/264/264
f 266/266/266 265/265/265 260/260/260
f 265/265/265 267/267/267 264/264/264
f 266/266/266 268/268/268 265/265/265
f 268/268/268 267/267/267 265/265/265
