g Tail
v -0.3483092 0.03995904 -0.8128381
v -0.02745028 0.08584279 -0.921805
v 0.004675693 0.08760615 0.003516769
v -0.3483092 0.03995904 -0.8128381
v -0.5289253 0.002927977 -0.5713916
v -0.2081327 0.00757327 -0.01246872
v -0.2081327 0.00757327 -0.01246872
v -0.5289253 0.002927977 -0.5713916
v -0.2771384 0.05923535 0.005220222
v 0.3000779 0.03812613 -0.8359098
v 0.004675693 0.08760615 0.003516769
v -0.02745028 0.08584279 -0.921805
v 0.3000779 0.03812613 -0.8359098
v 0.2170433 0.00639621 -0.0266056
v 0.4975298 -0.0005872905 -0.6076246
v 0.2170433 0.00639621 -0.0266056
v 0.2864898 0.05923535 0.005220222
v 0.4975298 -0.0005872905 -0.6076246
v -0.008692491 0.006285262 -0.3883333
v -0.02745028 0.08584279 -0.921805
v -0.3483092 0.03995904 -0.8128381
v -0.2081327 0.00757327 -0.01246872
v 0.004675706 -0.09279979 0.06831112
v 0.004675693 0.08760615 0.003516769
v -0.2771384 0.05923535 0.005220222
v -0.5289253 0.002927977 -0.5713916
v -0.3483092 0.03995904 -0.8128381
v -0.008692491 0.006285262 -0.3883333
v 0.3000779 0.03812613 -0.8359098
v -0.02745028 0.08584279 -0.921805
v 0.2170433 0.00639621 -0.0266056
v 0.004675706 -0.09279979 0.06831112
v 0.004675693 0.08760615 0.003516769
v 0.3000779 0.03812613 -0.8359098
v 0.4975298 -0.0005872905 -0.6076246
v 0.2864898 0.05923535 0.005220222
v 0.004675693 0.08760615 0.003516769
v -0.2081327 0.00757327 -0.01246872
v -0.2771384 0.05923535 0.005220222
v 0.2170433 0.00639621 -0.0266056
v 0.2864898 0.05923535 0.005220222
v 0.004675706 -0.09279979 0.06831112
vt 0.6650391 0.8427734
vt 0.6606445 0.7978516
vt 0.5576172 0.8896484
vt 0.6650391 0.8427734
vt 0.6645508 0.7939453
vt 0.5561523 0.8710938
vt 0.5561523 0.8710938
vt 0.6645508 0.7939453
vt 0.5566406 0.8583984
vt 0.6650391 0.8427734
vt 0.5576172 0.8896484
vt 0.6606445 0.7978516
vt 0.6650391 0.8427734
vt 0.5561523 0.8710938
vt 0.6645508 0.7939453
vt 0.5561523 0.8710938
vt 0.5566406 0.8583984
vt 0.6645508 0.7939453
vt 0.5961914 0.8369141
vt 0.6606445 0.7978516
vt 0.6650391 0.8427734
vt 0.5561523 0.8710938
vt 0.5498047 0.8530273
vt 0.5576172 0.8896484
vt 0.5566406 0.8583984
vt 0.6645508 0.7939453
vt 0.6650391 0.8427734
vt 0.5961914 0.8369141
vt 0.6650391 0.8427734
vt 0.6606445 0.7978516
vt 0.5561523 0.8710938
vt 0.5498047 0.8530273
vt 0.5576172 0.8896484
vt 0.6650391 0.8427734
vt 0.6645508 0.7939453
vt 0.5566406 0.8583984
vt 0.5546875 0.8671875
vt 0.5683594 0.8735352
vt 0.5732422 0.8706055
vt 0.5395508 0.871582
vt 0.5351563 0.8676758
vt 0.5537109 0.8793945
vn -0.1556396 0.987793 0.009628296
vn 0.002815247 1 -0.002002716
vn 0.02262878 0.637207 0.7705078
vn 0.0703125 -0.9926758 -0.09832764
vn 0.1211548 -0.9907227 -0.06130981
vn -0.2160645 -0.9677734 -0.130127
vn -0.5195313 -0.7983398 0.3046875
vn -0.5195313 -0.7983398 0.3046875
vn -0.5195313 -0.7983398 0.3046875
vn 0.1621094 0.9868164 -0.001109123
vn 0.02262878 0.637207 0.7705078
vn 0.002815247 1 -0.002002716
vn -0.08349609 -0.9921875 -0.09289551
vn 0.1968994 -0.9702148 -0.1424561
vn -0.1333008 -0.9897461 -0.05249023
vn 0.5087891 -0.8222656 0.2553711
vn 0.5087891 -0.8222656 0.2553711
vn 0.5087891 -0.8222656 0.2553711
vn -0.005729675 -0.9960938 -0.08557129
vn -0.008033752 -0.9892578 -0.1472168
vn 0.0703125 -0.9926758 -0.09832764
vn -0.2160645 -0.9677734 -0.130127
vn -0.01266479 -0.9770508 -0.2116699
vn 0.02262878 0.637207 0.7705078
vn -0.09240723 0.9379883 0.3347168
vn -0.1643066 0.9863281 0.007221222
vn -0.1556396 0.987793 0.009628296
vn -0.005729675 -0.9960938 -0.08557129
vn -0.08349609 -0.9921875 -0.09289551
vn -0.008033752 -0.9892578 -0.1472168
vn 0.1968994 -0.9702148 -0.1424561
vn -0.01266479 -0.9770508 -0.2116699
vn 0.02262878 0.637207 0.7705078
vn 0.1621094 0.9868164 -0.001109123
vn 0.1706543 0.9853516 -0.004524231
vn 0.09100342 0.9262695 0.3659668
vn 0.02262878 0.637207 0.7705078
vn 0.03503418 -0.1156006 0.9926758
vn -0.09240723 0.9379883 0.3347168
vn -0.02981567 -0.2558594 0.9663086
vn 0.09100342 0.9262695 0.3659668
vn 0.02677917 0.6606445 0.7504883
g Tail_0
f 3/3/3 2/2/2 1/1/1
f 6/6/6 5/5/5 4/4/4
f 9/9/9 8/8/8 7/7/7
f 12/12/12 11/11/11 10/10/10
f 15/15/15 14/14/14 13/13/13
f 18/18/18 17/17/17 16/16/16
f 21/21/21 20/20/20 19/19/19
f 19/19/19 22/22/22 21/21/21
f 22/22/22 19/19/19 23/23/23
f 26/26/26 25/25/25 24/24/24
f 24/24/24 27/27/27 26/26/26
f 30/30/30 29/29/29 28/28/28
f 31/31/31 28/28/28 29/29/29
f 28/28/28 31/31/31 32/32/32
f 35/35/35 34/34/34 33/33/33
f 33/33/33 36/36/36 35/35/35
f 39/39/39 38/38/38 37/37/37
f 38/38/38 40/40/40 37/37/37
f 40/40/40 41/41/41 37/37/37
f 42/42/42 40/40/40 38/38/38
