g Tower_Road
v -4.566186 0.04603925 -1.063123
v 0.44567 0.04603986 -4.673995
v 2.141124 0.04603955 -2.909032
v 3.059324 0.04603925 -1.02392
v -3.617768 0.04603864 0.5872471
v 3.602334 0.04603864 0.3042418
v 3.756987 0.04603833 2.476273
v -2.772887 0.04603833 1.598261
v -1.672841 0.04603833 2.236329
v -0.3757549 0.04603833 2.467728
vt 0.1358643 0.9780273
vt 0.1480713 0.9775391
vt 0.1483154 0.972168
vt 0.1478271 0.9658203
vt 0.1352539 0.9726563
vt 0.1466064 0.9599609
vt 0.1447754 0.9550781
vt 0.135376 0.96875
vt 0.1363525 0.965332
vt 0.1381836 0.9624023
vn 0 1 2.384186E-07
vn 0 1 2.384186E-07
vn 0 1 2.384186E-07
vn 0 1 2.384186E-07
vn 0 1 2.384186E-07
vn 0 1 2.384186E-07
vn 0 1 2.384186E-07
vn 0 1 2.384186E-07
vn 0 1 2.384186E-07
vn 0 1 2.384186E-07
g Tower_Road_0
f 3/3/3 2/2/2 1/1/1
f 1/1/1 4/4/4 3/3/3
f 1/1/1 5/5/5 4/4/4
f 5/5/5 6/6/6 4/4/4
f 5/5/5 7/7/7 6/6/6
f 5/5/5 8/8/8 7/7/7
f 8/8/8 9/9/9 7/7/7
f 9/9/9 10/10/10 7/7/7
