g Toxic
v 1.062804 -0.08740377 3.730504
v 0.6597281 0.2515361 3.711651
v 1.515504 0.2883444 1.484198
v 2.010388 -0.1445286 1.723038
v 1.434582 -0.5772413 3.436271
v 2.182236 -0.5085496 1.723038
v 2.045229 -0.1445289 0.2640966
v 2.217076 -0.5085497 0.2640966
v 1.534304 0.2883444 0.3260822
v 1.578979 -0.1445289 -1.118777
v 1.750826 -0.5085497 -1.118777
v -1.091176 -0.08740425 -5.981613
v -0.9507637 -0.4175797 -6.067261
v -1.412818 0.2515376 -5.832047
v 1.142503 0.2883444 -0.8162597
v -3.422377 0.2515368 -0.2397379
v -3.468119 0.2515368 0.6302006
v -3.463932 0.2515368 1.196561
v -3.339185 0.2515366 1.71648
v 0.6597281 0.2515361 3.711651
v -1.232711 0.2515366 3.088655
vt 0.4384766 0.7475586
vt 0.4365234 0.7480469
vt 0.4418945 0.7578125
vt 0.4440918 0.7563477
vt 0.4404297 0.7485352
vt 0.4448242 0.7563477
vt 0.4450684 0.7631836
vt 0.4460449 0.7631836
vt 0.442627 0.7631836
vt 0.4438477 0.7700195
vt 0.4445801 0.7695313
vt 0.4343262 0.7939453
vt 0.4350586 0.7944336
vt 0.4326172 0.793457
vt 0.4416504 0.7685547
vt 0.4199219 0.7685547
vt 0.4191895 0.7646484
vt 0.4189453 0.762207
vt 0.4191895 0.7597656
vt 0.4365234 0.7480469
vt 0.4282227 0.7519531
vn 0.6831055 0.6674805 0.2966309
vn 0.2841797 0.9511719 0.1220093
vn 0.3625488 0.9291992 0.06903076
vn 0.78125 0.5947266 0.1883545
vn 0.8339844 0.3994141 0.3811035
vn 0.8857422 0.4208984 0.1958008
vn 0.7929688 0.5966797 -0.1241455
vn 0.8964844 0.4233398 -0.1300049
vn 0.3679199 0.9282227 -0.05770874
vn 0.7363281 0.5927734 -0.326416
vn 0.8393555 0.4118652 -0.3547363
vn 0.706543 0.5986328 -0.3771973
vn 0.8012695 0.4138184 -0.432373
vn 0.3056641 0.9384766 -0.1621094
vn 0.3295898 0.9335938 -0.1396484
vn -0.007621765 1 0.001573563
vn -0.007621765 1 0.001573563
vn -0.007621765 1 0.001573563
vn -0.007621765 1 0.001573563
vn -0.007621765 1 0.001573563
vn -0.007621765 1 0.001573563
g Toxic_0
f 3/3/3 2/2/2 1/1/1
f 4/4/4 3/3/3 1/1/1
f 1/1/1 5/5/5 4/4/4
f 5/5/5 6/6/6 4/4/4
f 4/4/4 6/6/6 7/7/7
f 6/6/6 8/8/8 7/7/7
f 9/9/9 3/3/3 4/4/4
f 7/7/7 9/9/9 4/4/4
f 7/7/7 8/8/8 10/10/10
f 8/8/8 11/11/11 10/10/10
f 10/10/10 11/11/11 12/12/12
f 11/11/11 13/13/13 12/12/12
f 12/12/12 14/14/14 10/10/10
f 10/10/10 15/15/15 7/7/7
f 14/14/14 15/15/15 10/10/10
f 15/15/15 9/9/9 7/7/7
f 15/15/15 14/14/14 16/16/16
f 16/16/16 9/9/9 15/15/15
f 16/16/16 17/17/17 9/9/9
f 17/17/17 3/3/3 9/9/9
f 17/17/17 18/18/18 3/3/3
f 18/18/18 19/19/19 3/3/3
f 19/19/19 20/20/20 3/3/3
f 19/19/19 21/21/21 20/20/20
