g Tyre
v -0.2306137 0.5846981 2.107131
v -0.1417305 0.7673366 2.107131
v 0.05026408 0.8336312 2.107131
v 0.03429182 0.5687258 2.120059
v -0.1643188 0.3927035 2.107131
v 0.2329022 0.7447482 2.107131
v 0.01831951 0.3038204 2.107131
v 0.2991974 0.5527535 2.107131
v 0.210314 0.3701152 2.107131
v 0.2211517 0.3578864 1.083666
v 0.3155078 0.5517701 1.083666
v 0.2451308 0.7555864 1.083666
v 0.05124717 0.8499423 1.083666
v 0.01733564 0.2875096 1.083666
v -0.1525687 0.7795655 1.083666
v -0.1765479 0.3818655 1.083666
v -0.2469251 0.5856817 1.083666
v 2.095008 0.4444769 2.107131
v 2.183891 0.6271154 2.107131
v 2.375886 0.69341 2.107131
v 2.359913 0.4285046 2.12006
v 2.161303 0.2524823 2.107131
v 2.558524 0.604527 2.107131
v 2.343941 0.1635991 2.107131
v 2.624819 0.4125322 2.107131
v 2.535936 0.2298939 2.107131
v 2.546774 0.2176652 1.083666
v 2.64113 0.4115489 1.083666
v 2.570753 0.6153652 1.083666
v 2.376869 0.7097211 1.083666
v 2.342957 0.1472883 1.083666
v 2.173054 0.6393442 1.083666
v 2.149074 0.2416443 1.083666
v 2.078697 0.4454606 1.083666
v -1.287208 0.6484045 2.107131
v -1.536141 0.9292822 2.107131
v -1.353503 0.8403993 2.107131
v -1.552113 0.6643768 2.12006
v -1.376091 0.4657662 2.107131
v -1.728136 0.8629874 2.107131
v -1.568086 0.3994713 2.107131
v -1.817019 0.6803491 2.107131
v -1.750724 0.4883544 2.107131
v -1.365253 0.4535374 1.083666
v -1.270897 0.6474211 1.083666
v -1.341275 0.8512373 1.083666
v -1.535158 0.9455933 1.083666
v -1.56907 0.3831605 1.083666
v -1.738974 0.8752165 1.083666
v -1.762953 0.4775165 1.083666
v -1.83333 0.6813326 1.083666
v 2.095006 0.444477 -2.107133
v 2.375885 0.6934101 -2.107133
v 2.18389 0.6271155 -2.107133
v 2.359912 0.4285047 -2.120062
v 2.161302 0.2524824 -2.107133
v 2.558522 0.6045271 -2.107133
v 2.34394 0.1635992 -2.107133
v 2.624817 0.4125324 -2.107133
v 2.535934 0.229894 -2.107133
v 2.570752 0.6153651 -1.083668
v 2.641129 0.4115488 -1.083669
v 2.546773 0.2176652 -1.083668
v 2.376868 0.7097211 -1.083668
v 2.342957 0.1472884 -1.083668
v 2.173053 0.6393442 -1.083668
v 2.149073 0.2416443 -1.083668
v 2.078696 0.4454606 -1.083668
v -0.2306154 0.5846983 -2.107132
v 0.05026238 0.8336313 -2.107132
v -0.1417322 0.7673367 -2.107132
v 0.03429012 0.5687259 -2.120061
v -0.1643205 0.3927036 -2.107132
v 0.2329006 0.7447483 -2.107132
v 0.01831781 0.3038205 -2.107132
v 0.2991957 0.5527536 -2.107132
v 0.2103123 0.3701153 -2.107132
v 0.2451299 0.7555864 -1.083668
v 0.3155069 0.5517701 -1.083668
v 0.2211508 0.3578865 -1.083668
v 0.0512463 0.8499423 -1.083668
v 0.01733477 0.2875096 -1.083668
v -0.1525696 0.7795655 -1.083667
v -0.1765488 0.3818656 -1.083667
v -0.246926 0.5856817 -1.083667
v -1.28721 0.6484046 -2.107133
v -1.353505 0.8403994 -2.107133
v -1.536143 0.9292824 -2.107132
v -1.552115 0.6643769 -2.120061
v -1.376093 0.4657663 -2.107133
v -1.728137 0.8629875 -2.107132
v -1.568087 0.3994715 -2.107132
v -1.81702 0.6803492 -2.107132
v -1.750726 0.4883545 -2.107132
v -1.341276 0.8512373 -1.083668
v -1.270898 0.6474211 -1.083668
v -1.365254 0.4535375 -1.083668
v -1.535159 0.9455933 -1.083668
v -1.56907 0.3831606 -1.083668
v -1.738975 0.8752165 -1.083667
v -1.762954 0.4775166 -1.083667
v -1.833331 0.6813326 -1.083668
v -1.761144 0.9002299 -1.179925
v -1.533147 0.9789561 -1.179925
v -1.535159 0.9455933 -1.083668
v -1.738975 0.8752165 -1.083667
v -1.341276 0.8512373 -1.083668
v -1.866694 0.6833442 -1.179925
v -1.316262 0.8734062 -1.179925
v -1.833331 0.6813326 -1.083668
v -1.270898 0.6474211 -1.083668
v -1.787968 0.4553478 -1.179925
v -1.237535 0.6454095 -1.179925
v -1.762954 0.4775166 -1.083667
v -1.365254 0.4535375 -1.083668
v -1.571082 0.3497978 -1.179925
v -1.343085 0.4285241 -1.179925
v -1.56907 0.3831606 -1.083668
v -1.057767 1.102503 -1.205753
v -0.8927565 0.6246215 -1.205754
v -1.237535 0.6454095 -1.179925
v -1.316262 0.8734062 -1.179925
v -1.343085 0.4285241 -1.179925
v -1.512359 1.323735 -1.205753
v -1.11399 0.1700289 -1.205753
v -1.533147 0.9789561 -1.179925
v -1.571082 0.3497978 -1.179925
v -1.99024 1.158725 -1.205753
v -1.59187 0.005018771 -1.205753
v -1.761144 0.9002299 -1.179925
v -1.787968 0.4553478 -1.179925
v -2.211473 0.7041324 -1.205753
v -2.046462 0.2262516 -1.205753
v -1.866694 0.6833442 -1.179925
v -1.303432 0.3837819 -2.25186
v -1.177859 0.6418114 -2.25186
v -1.28721 0.6484046 -2.107133
v -1.376093 0.4657663 -2.107133
v -1.353505 0.8403994 -2.107133
v -1.574681 0.2901212 -2.25186
v -1.27152 0.9130595 -2.25186
v -1.568087 0.3994715 -2.107132
v -1.536143 0.9292824 -2.107132
v -1.83271 0.4156942 -2.25186
v -1.52955 1.038632 -2.25186
v -1.750726 0.4883545 -2.107132
v -1.728137 0.8629875 -2.107132
v -1.92637 0.6869424 -2.25186
v -1.800798 0.9449719 -2.25186
v -1.81702 0.6803492 -2.107132
v -1.11399 0.1700289 -1.205753
v -1.023436 0.06785478 -1.679456
v -1.600087 -0.1312605 -1.679455
v -1.59187 0.005018771 -1.205753
v -0.8927565 0.6246215 -1.205754
v -2.148637 0.1356978 -1.679455
v -0.7564775 0.6164045 -1.679456
v -2.046462 0.2262516 -1.205753
v -1.057767 1.102503 -1.205753
v -2.347752 0.7123493 -1.679455
v -0.9555927 1.193056 -1.679456
v -2.211473 0.7041324 -1.205753
v -1.512359 1.323735 -1.205753
v -2.080793 1.260899 -1.679455
v -1.504142 1.460014 -1.679455
v -1.99024 1.158725 -1.205753
v -2.217284 0.7044829 -2.146754
v -2.05082 0.22239 -2.146754
v -1.83271 0.4156942 -2.25186
v -1.92637 0.6869424 -2.25186
v -1.574681 0.2901212 -2.25186
v -1.994102 1.163082 -2.146754
v -1.592221 -0.0007928273 -2.146754
v -1.800798 0.9449719 -2.25186
v -1.303432 0.3837819 -2.25186
v -1.512009 1.329547 -2.146755
v -1.110128 0.1656716 -2.146755
v -1.52955 1.038632 -2.25186
v -1.177859 0.6418114 -2.25186
v -1.05341 1.106364 -2.146755
v -0.8869454 0.624271 -2.146755
v -1.27152 0.9130595 -2.25186
v -1.504142 1.460014 -1.679455
v -1.512009 1.329547 -2.146755
v -1.05341 1.106364 -2.146755
v -2.080793 1.260899 -1.679455
v -0.9555927 1.193056 -1.679456
v -1.994102 1.163082 -2.146754
v -0.8869454 0.624271 -2.146755
v -2.347752 0.7123493 -1.679455
v -0.7564775 0.6164045 -1.679456
v -2.217284 0.7044829 -2.146754
v -1.110128 0.1656716 -2.146755
v -2.148637 0.1356978 -1.679455
v -1.023436 0.06785478 -1.679456
v -2.05082 0.22239 -2.146754
v -1.592221 -0.0007928273 -2.146754
v -1.600087 -0.1312605 -1.679455
v 0.2701434 0.777755 -1.179925
v 0.0512463 0.8499423 -1.083668
v 0.05325786 0.8833051 -1.179925
v 0.2451299 0.7555864 -1.083668
v -0.1525696 0.7795655 -1.083667
v 0.3488698 0.5497585 -1.179925
v -0.1747385 0.8045791 -1.179925
v 0.3155069 0.5517701 -1.083668
v -0.246926 0.5856817 -1.083667
v 0.2433195 0.332873 -1.179925
v -0.2802888 0.5876933 -1.179925
v 0.2211508 0.3578865 -1.083668
v -0.1765488 0.3818656 -1.083667
v 0.01532315 0.2541468 -1.179925
v -0.2015627 0.359697 -1.179925
v 0.01733477 0.2875096 -1.083668
v -0.4038345 1.063074 -1.205753
v -0.2802888 0.5876933 -1.179925
v -0.6250677 0.6084817 -1.205753
v -0.1747385 0.8045791 -1.179925
v -0.2015627 0.359697 -1.179925
v 0.07404639 1.228084 -1.205753
v -0.4600576 0.1306008 -1.205753
v 0.05325786 0.8833051 -1.179925
v 0.01532315 0.2541468 -1.179925
v 0.5286387 1.006851 -1.205753
v -0.0054651 -0.09063219 -1.205753
v 0.2701434 0.777755 -1.179925
v 0.2433195 0.332873 -1.179925
v 0.6936488 0.5289703 -1.205753
v 0.4724158 0.07437778 -1.205753
v 0.3488698 0.5497585 -1.179925
v -0.2463051 0.3200434 -2.25186
v -0.2306154 0.5846983 -2.107132
v -0.3399656 0.5912915 -2.25186
v -0.1643205 0.3927036 -2.107132
v -0.1417322 0.7673367 -2.107132
v 0.01172455 0.1944702 -2.25186
v -0.2143927 0.8493211 -2.25186
v 0.01831781 0.3038205 -2.107132
v 0.05026238 0.8336313 -2.107132
v 0.2829726 0.2881308 -2.25186
v 0.05685557 0.9429814 -2.25186
v 0.2103123 0.3701153 -2.107132
v 0.2329006 0.7447483 -2.107132
v 0.4085459 0.5461604 -2.25186
v 0.3148851 0.8174084 -2.25186
v 0.2991957 0.5527536 -2.107132
v -0.4600576 0.1306008 -1.205753
v -0.01368217 -0.2269115 -1.679455
v -0.5622321 0.04004714 -1.679455
v -0.0054651 -0.09063219 -1.205753
v -0.6250677 0.6084817 -1.205753
v 0.5629693 -0.02779644 -1.679455
v -0.7613472 0.6166985 -1.679455
v 0.4724158 0.07437778 -1.205753
v -0.4038345 1.063074 -1.205753
v 0.829928 0.5207534 -1.679456
v -0.4943884 1.165248 -1.679455
v 0.6936488 0.5289703 -1.205753
v 0.07404639 1.228084 -1.205753
v 0.6308126 1.097405 -1.679455
v 0.08226276 1.364363 -1.679455
v 0.5286387 1.006851 -1.205753
v 0.6994599 0.5286199 -2.146755
v 0.4085459 0.5461604 -2.25186
v 0.2829726 0.2881308 -2.25186
v 0.476277 0.07002058 -2.146755
v 0.5329954 1.010713 -2.146755
v 0.01172455 0.1944702 -2.25186
v 0.3148851 0.8174084 -2.25186
v -0.005815886 -0.09644379 -2.146755
v 0.07439611 1.233896 -2.146755
v -0.2463051 0.3200434 -2.25186
v 0.05685557 0.9429814 -2.25186
v -0.4644152 0.1267391 -2.146754
v -0.4076968 1.067431 -2.146754
v -0.3399656 0.5912915 -2.25186
v -0.2143927 0.8493211 -2.25186
v -0.6308796 0.608832 -2.146754
v 0.08226276 1.364363 -1.679455
v -0.4943884 1.165248 -1.679455
v -0.4076968 1.067431 -2.146754
v 0.07439611 1.233896 -2.146755
v -0.6308796 0.608832 -2.146754
v 0.6308126 1.097405 -1.679455
v -0.7613472 0.6166985 -1.679455
v 0.5329954 1.010713 -2.146755
v -0.4644152 0.1267391 -2.146754
v 0.829928 0.5207534 -1.679456
v -0.5622321 0.04004714 -1.679455
v 0.6994599 0.5286199 -2.146755
v -0.005815886 -0.09644379 -2.146755
v 0.5629693 -0.02779644 -1.679455
v -0.01368217 -0.2269115 -1.679455
v 0.476277 0.07002058 -2.146755
v 2.595766 0.6375338 -1.179926
v 2.376868 0.7097211 -1.083668
v 2.37888 0.7430838 -1.179926
v 2.570752 0.6153651 -1.083668
v 2.173053 0.6393442 -1.083668
v 2.674492 0.4095373 -1.179926
v 2.150884 0.6643578 -1.179926
v 2.641129 0.4115488 -1.083669
v 2.078696 0.4454606 -1.083668
v 2.568942 0.1926517 -1.179926
v 2.045333 0.4474721 -1.179926
v 2.546773 0.2176652 -1.083668
v 2.149073 0.2416443 -1.083668
v 2.340945 0.1139256 -1.179926
v 2.124059 0.2194758 -1.179926
v 2.342957 0.1472884 -1.083668
v 1.921788 0.9228531 -1.205754
v 2.045333 0.4474721 -1.179926
v 1.700554 0.4682605 -1.205754
v 2.150884 0.6643578 -1.179926
v 2.124059 0.2194758 -1.179926
v 2.399668 1.087863 -1.205754
v 1.865564 -0.009620428 -1.205754
v 2.37888 0.7430838 -1.179926
v 2.340945 0.1139256 -1.179926
v 2.854261 0.8666298 -1.205754
v 2.320157 -0.2308534 -1.205754
v 2.595766 0.6375338 -1.179926
v 2.568942 0.1926517 -1.179926
v 3.019271 0.388749 -1.205754
v 2.798038 -0.06584347 -1.205754
v 2.674492 0.4095373 -1.179926
v 2.079317 0.1798221 -2.251861
v 2.095006 0.444477 -2.107133
v 1.985657 0.4510702 -2.251861
v 2.161302 0.2524824 -2.107133
v 2.18389 0.6271155 -2.107133
v 2.337347 0.054249 -2.251861
v 2.11123 0.7090998 -2.251861
v 2.34394 0.1635992 -2.107133
v 2.375885 0.6934101 -2.107133
v 2.608595 0.1479095 -2.251861
v 2.382478 0.8027602 -2.251861
v 2.535934 0.229894 -2.107133
v 2.558522 0.6045271 -2.107133
v 2.734168 0.4059392 -2.251861
v 2.640507 0.6771872 -2.251861
v 2.624817 0.4125324 -2.107133
v 1.865564 -0.009620428 -1.205754
v 2.31194 -0.3671327 -1.679456
v 1.76339 -0.1001741 -1.679456
v 2.320157 -0.2308534 -1.205754
v 1.700554 0.4682605 -1.205754
v 2.888591 -0.1680176 -1.679456
v 1.564275 0.4764772 -1.679456
v 2.798038 -0.06584347 -1.205754
v 1.921788 0.9228531 -1.205754
v 3.15555 0.3805322 -1.679456
v 1.831234 1.025027 -1.679456
v 3.019271 0.388749 -1.205754
v 2.399668 1.087863 -1.205754
v 2.956435 0.9571838 -1.679456
v 2.407885 1.224142 -1.679456
v 2.854261 0.8666298 -1.205754
v 3.025081 0.3883987 -2.146756
v 2.734168 0.4059392 -2.251861
v 2.608595 0.1479095 -2.251861
v 2.801899 -0.07020067 -2.146755
v 2.858618 0.8704915 -2.146755
v 2.337347 0.054249 -2.251861
v 2.640507 0.6771872 -2.251861
v 2.319806 -0.236665 -2.146755
v 2.400018 1.093674 -2.146755
v 2.079317 0.1798221 -2.251861
v 2.382478 0.8027602 -2.251861
v 1.861207 -0.01348213 -2.146755
v 1.917925 0.92721 -2.146755
v 1.985657 0.4510702 -2.251861
v 2.11123 0.7090998 -2.251861
v 1.694743 0.4686108 -2.146755
v 2.407885 1.224142 -1.679456
v 1.831234 1.025027 -1.679456
v 1.917925 0.92721 -2.146755
v 2.400018 1.093674 -2.146755
v 1.694743 0.4686108 -2.146755
v 2.956435 0.9571838 -1.679456
v 1.564275 0.4764772 -1.679456
v 2.858618 0.8704915 -2.146755
v 1.861207 -0.01348213 -2.146755
v 3.15555 0.3805322 -1.679456
v 1.76339 -0.1001741 -1.679456
v 3.025081 0.3883987 -2.146756
v 2.319806 -0.236665 -2.146755
v 2.888591 -0.1680176 -1.679456
v 2.31194 -0.3671327 -1.679456
v 2.801899 -0.07020067 -2.146755
v -1.761143 0.9002299 1.179924
v -1.535158 0.9455933 1.083666
v -1.533146 0.9789561 1.179924
v -1.738974 0.8752165 1.083666
v -1.341275 0.8512373 1.083666
v -1.866693 0.6833442 1.179924
v -1.316261 0.8734062 1.179924
v -1.83333 0.6813326 1.083666
v -1.270897 0.6474211 1.083666
v -1.787967 0.4553478 1.179924
v -1.237535 0.6454095 1.179924
v -1.762953 0.4775165 1.083666
v -1.365253 0.4535374 1.083666
v -1.571081 0.3497978 1.179924
v -1.343084 0.428524 1.179924
v -1.56907 0.3831605 1.083666
v -1.057766 1.102502 1.205752
v -1.237535 0.6454095 1.179924
v -0.8927555 0.6246215 1.205752
v -1.316261 0.8734062 1.179924
v -1.343084 0.428524 1.179924
v -1.512358 1.323735 1.205752
v -1.113989 0.1700288 1.205752
v -1.533146 0.9789561 1.179924
v -1.571081 0.3497978 1.179924
v -1.990239 1.158725 1.205752
v -1.591869 0.005018698 1.205752
v -1.761143 0.9002299 1.179924
v -1.787967 0.4553478 1.179924
v -2.211472 0.7041324 1.205752
v -2.046461 0.2262516 1.205752
v -1.866693 0.6833442 1.179924
v -1.303431 0.3837818 2.251858
v -1.287208 0.6484045 2.107131
v -1.177858 0.6418113 2.251858
v -1.376091 0.4657662 2.107131
v -1.353503 0.8403993 2.107131
v -1.574679 0.2901211 2.251859
v -1.271518 0.9130594 2.251858
v -1.568086 0.3994713 2.107131
v -1.536141 0.9292822 2.107131
v -1.832708 0.4156941 2.251859
v -1.529548 1.038632 2.251859
v -1.750724 0.4883544 2.107131
v -1.728136 0.8629874 2.107131
v -1.926368 0.6869423 2.251859
v -1.800796 0.9449717 2.251859
v -1.817019 0.6803491 2.107131
v -1.113989 0.1700288 1.205752
v -1.600086 -0.1312606 1.679454
v -1.023435 0.0678547 1.679454
v -1.591869 0.005018698 1.205752
v -0.8927555 0.6246215 1.205752
v -2.148635 0.1356977 1.679454
v -0.7564761 0.6164044 1.679454
v -2.046461 0.2262516 1.205752
v -1.057766 1.102502 1.205752
v -2.347751 0.7123492 1.679454
v -0.9555914 1.193056 1.679454
v -2.211472 0.7041324 1.205752
v -1.512358 1.323735 1.205752
v -2.080792 1.260899 1.679454
v -1.504141 1.460014 1.679454
v -1.990239 1.158725 1.205752
v -2.217282 0.7044827 2.146754
v -1.926368 0.6869423 2.251859
v -1.832708 0.4156941 2.251859
v -2.050818 0.2223898 2.146753
v -1.9941 1.163082 2.146753
v -1.574679 0.2901211 2.251859
v -1.800796 0.9449717 2.251859
v -1.592219 -0.0007929525 2.146754
v -1.512007 1.329547 2.146754
v -1.303431 0.3837818 2.251858
v -1.529548 1.038632 2.251859
v -1.110126 0.1656715 2.146753
v -1.053408 1.106364 2.146753
v -1.177858 0.6418113 2.251858
v -1.271518 0.9130594 2.251858
v -0.8869436 0.6242709 2.146753
v -1.504141 1.460014 1.679454
v -0.9555914 1.193056 1.679454
v -1.053408 1.106364 2.146753
v -1.512007 1.329547 2.146754
v -0.8869436 0.6242709 2.146753
v -2.080792 1.260899 1.679454
v -0.7564761 0.6164044 1.679454
v -1.9941 1.163082 2.146753
v -1.110126 0.1656715 2.146753
v -2.347751 0.7123492 1.679454
v -1.023435 0.0678547 1.679454
v -2.217282 0.7044827 2.146754
v -1.592219 -0.0007929525 2.146754
v -2.148635 0.1356977 1.679454
v -1.600086 -0.1312606 1.679454
v -2.050818 0.2223898 2.146753
v 2.595767 0.6375338 1.179924
v 2.378881 0.7430839 1.179924
v 2.376869 0.7097211 1.083666
v 2.570753 0.6153652 1.083666
v 2.173054 0.6393442 1.083666
v 2.674493 0.4095373 1.179924
v 2.150884 0.6643578 1.179924
v 2.64113 0.4115489 1.083666
v 2.078697 0.4454606 1.083666
v 2.568943 0.1926517 1.179924
v 2.045334 0.4474721 1.179924
v 2.546774 0.2176652 1.083666
v 2.149074 0.2416443 1.083666
v 2.340946 0.1139255 1.179924
v 2.12406 0.2194757 1.179924
v 2.342957 0.1472883 1.083666
v 1.921788 0.922853 1.205752
v 1.700555 0.4682605 1.205752
v 2.045334 0.4474721 1.179924
v 2.150884 0.6643578 1.179924
v 2.12406 0.2194757 1.179924
v 2.399669 1.087863 1.205752
v 1.865565 -0.009620478 1.205752
v 2.378881 0.7430839 1.179924
v 2.340946 0.1139255 1.179924
v 2.854262 0.8666298 1.205752
v 2.320158 -0.2308535 1.205752
v 2.595767 0.6375338 1.179924
v 2.568943 0.1926517 1.179924
v 3.019272 0.388749 1.205752
v 2.798039 -0.06584352 1.205752
v 2.674493 0.4095373 1.179924
v 2.079319 0.1798221 2.251858
v 1.985658 0.45107 2.251859
v 2.095008 0.4444769 2.107131
v 2.161303 0.2524823 2.107131
v 2.183891 0.6271154 2.107131
v 2.337348 0.05424888 2.251858
v 2.111231 0.7090997 2.251858
v 2.343941 0.1635991 2.107131
v 2.375886 0.69341 2.107131
v 2.608596 0.1479094 2.251858
v 2.382479 0.8027601 2.251858
v 2.535936 0.2298939 2.107131
v 2.558524 0.604527 2.107131
v 2.734169 0.405939 2.251858
v 2.640509 0.6771871 2.251858
v 2.624819 0.4125322 2.107131
v 1.865565 -0.009620478 1.205752
v 1.763391 -0.1001742 1.679454
v 2.311941 -0.3671328 1.679454
v 2.320158 -0.2308535 1.205752
v 1.700555 0.4682605 1.205752
v 2.888592 -0.1680177 1.679454
v 1.564276 0.4764771 1.679454
v 2.798039 -0.06584352 1.205752
v 1.921788 0.922853 1.205752
v 3.155551 0.3805321 1.679454
v 1.831235 1.025027 1.679454
v 3.019272 0.388749 1.205752
v 2.399669 1.087863 1.205752
v 2.956436 0.9571837 1.679454
v 2.407886 1.224142 1.679454
v 2.854262 0.8666298 1.205752
v 3.025083 0.3883986 2.146753
v 2.801901 -0.07020078 2.146753
v 2.608596 0.1479094 2.251858
v 2.734169 0.405939 2.251858
v 2.337348 0.05424888 2.251858
v 2.858619 0.8704916 2.146753
v 2.319808 -0.2366651 2.146753
v 2.640509 0.6771871 2.251858
v 2.079319 0.1798221 2.251858
v 2.400019 1.093674 2.146753
v 1.861208 -0.01348223 2.146753
v 2.382479 0.8027601 2.251858
v 1.985658 0.45107 2.251859
v 1.917927 0.92721 2.146754
v 1.694744 0.4686106 2.146754
v 2.111231 0.7090997 2.251858
v 2.407886 1.224142 1.679454
v 2.400019 1.093674 2.146753
v 1.917927 0.92721 2.146754
v 2.956436 0.9571837 1.679454
v 1.831235 1.025027 1.679454
v 2.858619 0.8704916 2.146753
v 1.694744 0.4686106 2.146754
v 3.155551 0.3805321 1.679454
v 1.564276 0.4764771 1.679454
v 3.025083 0.3883986 2.146753
v 1.861208 -0.01348223 2.146753
v 2.888592 -0.1680177 1.679454
v 1.763391 -0.1001742 1.679454
v 2.801901 -0.07020078 2.146753
v 2.319808 -0.2366651 2.146753
v 2.311941 -0.3671328 1.679454
v 0.2701444 0.777755 1.179923
v 0.0532588 0.8833051 1.179923
v 0.05124717 0.8499423 1.083666
v 0.2451308 0.7555864 1.083666
v -0.1525687 0.7795655 1.083666
v 0.3488708 0.5497585 1.179923
v -0.1747376 0.8045791 1.179923
v 0.3155078 0.5517701 1.083666
v -0.2469251 0.5856817 1.083666
v 0.2433205 0.3328729 1.179923
v -0.2802879 0.5876933 1.179923
v 0.2211517 0.3578864 1.083666
v -0.1765479 0.3818655 1.083666
v 0.01532409 0.2541468 1.179923
v -0.2015618 0.359697 1.179923
v 0.01733564 0.2875096 1.083666
v -0.4038335 1.063074 1.205752
v -0.6250667 0.6084817 1.205752
v -0.2802879 0.5876933 1.179923
v -0.1747376 0.8045791 1.179923
v -0.2015618 0.359697 1.179923
v 0.07404736 1.228084 1.205752
v -0.4600567 0.1306008 1.205752
v 0.0532588 0.8833051 1.179923
v 0.01532409 0.2541468 1.179923
v 0.5286397 1.006851 1.205751
v -0.005464132 -0.09063227 1.205752
v 0.2701444 0.777755 1.179923
v 0.2433205 0.3328729 1.179923
v 0.6936498 0.5289703 1.205751
v 0.4724168 0.07437771 1.205751
v 0.3488708 0.5497585 1.179923
v -0.2463033 0.3200433 2.251858
v -0.3399639 0.5912914 2.251858
v -0.2306137 0.5846981 2.107131
v -0.1643188 0.3927035 2.107131
v -0.1417305 0.7673366 2.107131
v 0.01172636 0.1944701 2.251858
v -0.2143909 0.8493209 2.251858
v 0.01831951 0.3038204 2.107131
v 0.05026408 0.8336312 2.107131
v 0.2829744 0.2881307 2.251858
v 0.05685738 0.9429813 2.251858
v 0.210314 0.3701152 2.107131
v 0.2329022 0.7447482 2.107131
v 0.4085477 0.5461603 2.251858
v 0.3148869 0.8174083 2.251858
v 0.2991974 0.5527535 2.107131
v -0.4600567 0.1306008 1.205752
v -0.5622307 0.04004704 1.679454
v -0.01368082 -0.2269116 1.679453
v -0.005464132 -0.09063227 1.205752
v -0.6250667 0.6084817 1.205752
v 0.5629706 -0.02779654 1.679453
v -0.7613459 0.6166984 1.679454
v 0.4724168 0.07437771 1.205751
v -0.4038335 1.063074 1.205752
v 0.8299294 0.5207533 1.679453
v -0.4943871 1.165248 1.679454
v 0.6936498 0.5289703 1.205751
v 0.07404736 1.228084 1.205752
v 0.630814 1.097405 1.679453
v 0.0822641 1.364363 1.679453
v 0.5286397 1.006851 1.205751
v 0.6994616 0.5286198 2.146753
v 0.4762787 0.07002046 2.146753
v 0.2829744 0.2881307 2.251858
v 0.4085477 0.5461603 2.251858
v 0.01172636 0.1944701 2.251858
v 0.5329971 1.010713 2.146753
v -0.005814163 -0.09644391 2.146753
v 0.3148869 0.8174083 2.251858
v -0.2463033 0.3200433 2.251858
v 0.07439784 1.233896 2.146753
v -0.4644135 0.126739 2.146753
v 0.05685738 0.9429813 2.251858
v -0.3399639 0.5912914 2.251858
v -0.407695 1.067431 2.146753
v -0.6308779 0.6088319 2.146753
v -0.2143909 0.8493209 2.251858
v 0.0822641 1.364363 1.679453
v 0.07439784 1.233896 2.146753
v -0.407695 1.067431 2.146753
v 0.630814 1.097405 1.679453
v -0.4943871 1.165248 1.679454
v 0.5329971 1.010713 2.146753
v -0.6308779 0.6088319 2.146753
v 0.8299294 0.5207533 1.679453
v -0.7613459 0.6166984 1.679454
v 0.6994616 0.5286198 2.146753
v -0.4644135 0.126739 2.146753
v 0.5629706 -0.02779654 1.679453
v -0.5622307 0.04004704 1.679454
v 0.4762787 0.07002046 2.146753
v -0.005814163 -0.09644391 2.146753
v -0.01368082 -0.2269116 1.679453
vt 0.9599609 0.9204102
vt 0.9599609 0.9194336
vt 0.9594727 0.9194336
vt 0.9594727 0.9204102
vt 0.9599609 0.9208984
vt 0.9589844 0.9194336
vt 0.9594727 0.9208984
vt 0.9584961 0.9204102
vt 0.9589844 0.9208984
vt 0.7768555 0.9716797
vt 0.7768555 0.972168
vt 0.7768555 0.9731445
vt 0.7758789 0.9736328
vt 0.7758789 0.9711914
vt 0.7753906 0.9731445
vt 0.7753906 0.9716797
vt 0.7749023 0.972168
vt 0.9536133 0.9204102
vt 0.9536133 0.9194336
vt 0.9526367 0.9194336
vt 0.9526367 0.9204102
vt 0.9536133 0.9208984
vt 0.9521484 0.9194336
vt 0.9526367 0.9208984
vt 0.9521484 0.9204102
vt 0.9521484 0.9208984
vt 0.7856445 0.9716797
vt 0.7856445 0.972168
vt 0.7856445 0.9731445
vt 0.784668 0.9736328
vt 0.784668 0.9711914
vt 0.7841797 0.9731445
vt 0.7841797 0.9716797
vt 0.7836914 0.972168
vt 0.9633789 0.9204102
vt 0.9638672 0.9194336
vt 0.9633789 0.9194336
vt 0.9638672 0.9204102
vt 0.9633789 0.9208984
vt 0.9643555 0.9194336
vt 0.9638672 0.9208984
vt 0.9648438 0.9204102
vt 0.9643555 0.9208984
vt 0.7705078 0.9716797
vt 0.7709961 0.972168
vt 0.7705078 0.9731445
vt 0.7700195 0.9736328
vt 0.7700195 0.9711914
vt 0.769043 0.9731445
vt 0.769043 0.9716797
vt 0.769043 0.972168
vt 0.7836914 0.972168
vt 0.784668 0.9736328
vt 0.7841797 0.9731445
vt 0.784668 0.972168
vt 0.7841797 0.9716797
vt 0.7856445 0.9731445
vt 0.784668 0.9711914
vt 0.7856445 0.972168
vt 0.7856445 0.9716797
vt 0.7856445 0.9731445
vt 0.7856445 0.972168
vt 0.7856445 0.9716797
vt 0.784668 0.9736328
vt 0.784668 0.9711914
vt 0.7841797 0.9731445
vt 0.7841797 0.9716797
vt 0.7836914 0.972168
vt 0.7749023 0.972168
vt 0.7758789 0.9736328
vt 0.7753906 0.9731445
vt 0.7758789 0.972168
vt 0.7753906 0.9716797
vt 0.7768555 0.9731445
vt 0.7758789 0.9711914
vt 0.7768555 0.972168
vt 0.7768555 0.9716797
vt 0.7768555 0.9731445
vt 0.7768555 0.972168
vt 0.7768555 0.9716797
vt 0.7758789 0.9736328
vt 0.7758789 0.9711914
vt 0.7753906 0.9731445
vt 0.7753906 0.9716797
vt 0.7749023 0.972168
vt 0.7709961 0.972168
vt 0.7705078 0.9731445
vt 0.7700195 0.9736328
vt 0.7700195 0.972168
vt 0.7705078 0.9716797
vt 0.769043 0.9731445
vt 0.7700195 0.9711914
vt 0.769043 0.972168
vt 0.769043 0.9716797
vt 0.7705078 0.9731445
vt 0.7709961 0.972168
vt 0.7705078 0.9716797
vt 0.7700195 0.9736328
vt 0.7700195 0.9711914
vt 0.769043 0.9731445
vt 0.769043 0.9716797
vt 0.769043 0.972168
vt 0.769043 0.9731445
vt 0.7700195 0.9736328
vt 0.7700195 0.9736328
vt 0.769043 0.9731445
vt 0.7705078 0.9731445
vt 0.7685547 0.972168
vt 0.7705078 0.9731445
vt 0.769043 0.972168
vt 0.7709961 0.972168
vt 0.769043 0.9716797
vt 0.7709961 0.972168
vt 0.769043 0.9716797
vt 0.7705078 0.9716797
vt 0.7700195 0.9711914
vt 0.7705078 0.9716797
vt 0.7700195 0.9711914
vt 0.7714844 0.9741211
vt 0.7724609 0.972168
vt 0.7709961 0.972168
vt 0.7705078 0.9731445
vt 0.7705078 0.9716797
vt 0.7700195 0.9750977
vt 0.7714844 0.9707031
vt 0.7700195 0.9736328
vt 0.7700195 0.9711914
vt 0.7680664 0.9741211
vt 0.7700195 0.9697266
vt 0.769043 0.9731445
vt 0.769043 0.9716797
vt 0.7675781 0.972168
vt 0.7680664 0.9707031
vt 0.7685547 0.972168
vt 0.7709961 0.9711914
vt 0.7714844 0.972168
vt 0.7709961 0.972168
vt 0.7705078 0.9716797
vt 0.7705078 0.9731445
vt 0.7700195 0.9711914
vt 0.7709961 0.9736328
vt 0.7700195 0.9711914
vt 0.7700195 0.9736328
vt 0.769043 0.9711914
vt 0.7700195 0.9736328
vt 0.769043 0.9716797
vt 0.769043 0.9731445
vt 0.7685547 0.972168
vt 0.769043 0.9736328
vt 0.769043 0.972168
vt 0.7714844 0.9707031
vt 0.7719727 0.9702148
vt 0.7700195 0.9692383
vt 0.7700195 0.9697266
vt 0.7724609 0.972168
vt 0.7675781 0.9702148
vt 0.7729492 0.972168
vt 0.7680664 0.9707031
vt 0.7714844 0.9741211
vt 0.7670898 0.972168
vt 0.7719727 0.9746094
vt 0.7675781 0.972168
vt 0.7700195 0.9750977
vt 0.7675781 0.9746094
vt 0.7700195 0.9755859
vt 0.7680664 0.9741211
vt 0.7675781 0.972168
vt 0.7680664 0.9707031
vt 0.769043 0.9711914
vt 0.7685547 0.972168
vt 0.7700195 0.9711914
vt 0.7680664 0.9741211
vt 0.7700195 0.9697266
vt 0.769043 0.9736328
vt 0.7709961 0.9711914
vt 0.7700195 0.9750977
vt 0.7714844 0.9707031
vt 0.7700195 0.9736328
vt 0.7714844 0.972168
vt 0.7714844 0.9741211
vt 0.7724609 0.972168
vt 0.7709961 0.9736328
vt 0.7700195 0.9755859
vt 0.7700195 0.9750977
vt 0.7714844 0.9741211
vt 0.7675781 0.9746094
vt 0.7719727 0.9746094
vt 0.7680664 0.9741211
vt 0.7724609 0.972168
vt 0.7670898 0.972168
vt 0.7729492 0.972168
vt 0.7675781 0.972168
vt 0.7714844 0.9707031
vt 0.7675781 0.9702148
vt 0.7719727 0.9702148
vt 0.7680664 0.9707031
vt 0.7700195 0.9697266
vt 0.7700195 0.9692383
vt 0.7768555 0.9731445
vt 0.7758789 0.9736328
vt 0.7758789 0.9736328
vt 0.7768555 0.9731445
vt 0.7753906 0.9731445
vt 0.7773438 0.972168
vt 0.7749023 0.9731445
vt 0.7768555 0.972168
vt 0.7749023 0.972168
vt 0.7768555 0.9716797
vt 0.7749023 0.972168
vt 0.7768555 0.9716797
vt 0.7753906 0.9716797
vt 0.7758789 0.9711914
vt 0.7749023 0.9716797
vt 0.7758789 0.9711914
vt 0.7739258 0.9741211
vt 0.7749023 0.972168
vt 0.7734375 0.972168
vt 0.7749023 0.9731445
vt 0.7749023 0.9716797
vt 0.7758789 0.9750977
vt 0.7739258 0.9707031
vt 0.7758789 0.9736328
vt 0.7758789 0.9711914
vt 0.777832 0.9741211
vt 0.7758789 0.9697266
vt 0.7768555 0.9731445
vt 0.7768555 0.9716797
vt 0.7783203 0.972168
vt 0.777832 0.9707031
vt 0.7773438 0.972168
vt 0.7749023 0.9711914
vt 0.7749023 0.972168
vt 0.7744141 0.972168
vt 0.7753906 0.9716797
vt 0.7753906 0.9731445
vt 0.7758789 0.9711914
vt 0.7749023 0.9736328
vt 0.7758789 0.9711914
vt 0.7758789 0.9736328
vt 0.7768555 0.9711914
vt 0.7758789 0.9736328
vt 0.7768555 0.9716797
vt 0.7768555 0.9731445
vt 0.7773438 0.972168
vt 0.7768555 0.9736328
vt 0.7768555 0.972168
vt 0.7739258 0.9707031
vt 0.7758789 0.9692383
vt 0.7739258 0.9702148
vt 0.7758789 0.9697266
vt 0.7734375 0.972168
vt 0.777832 0.9702148
vt 0.7729492 0.972168
vt 0.777832 0.9707031
vt 0.7739258 0.9741211
vt 0.7788086 0.972168
vt 0.7739258 0.9746094
vt 0.7783203 0.972168
vt 0.7758789 0.9750977
vt 0.777832 0.9746094
vt 0.7758789 0.9755859
vt 0.777832 0.9741211
vt 0.7783203 0.972168
vt 0.7773438 0.972168
vt 0.7768555 0.9711914
vt 0.777832 0.9707031
vt 0.777832 0.9741211
vt 0.7758789 0.9711914
vt 0.7768555 0.9736328
vt 0.7758789 0.9697266
vt 0.7758789 0.9750977
vt 0.7749023 0.9711914
vt 0.7758789 0.9736328
vt 0.7739258 0.9707031
vt 0.7739258 0.9741211
vt 0.7744141 0.972168
vt 0.7749023 0.9736328
vt 0.7734375 0.972168
vt 0.7758789 0.9755859
vt 0.7739258 0.9746094
vt 0.7739258 0.9741211
vt 0.7758789 0.9750977
vt 0.7734375 0.972168
vt 0.777832 0.9746094
vt 0.7729492 0.972168
vt 0.777832 0.9741211
vt 0.7739258 0.9707031
vt 0.7788086 0.972168
vt 0.7739258 0.9702148
vt 0.7783203 0.972168
vt 0.7758789 0.9697266
vt 0.777832 0.9702148
vt 0.7758789 0.9692383
vt 0.777832 0.9707031
vt 0.7856445 0.9731445
vt 0.784668 0.9736328
vt 0.784668 0.9736328
vt 0.7856445 0.9731445
vt 0.7841797 0.9731445
vt 0.7861328 0.972168
vt 0.7836914 0.9731445
vt 0.7856445 0.972168
vt 0.7836914 0.972168
vt 0.7856445 0.9716797
vt 0.7836914 0.972168
vt 0.7856445 0.9716797
vt 0.7841797 0.9716797
vt 0.784668 0.9711914
vt 0.7836914 0.9716797
vt 0.784668 0.9711914
vt 0.7832031 0.9741211
vt 0.7836914 0.972168
vt 0.7822266 0.972168
vt 0.7836914 0.9731445
vt 0.7836914 0.9716797
vt 0.784668 0.9750977
vt 0.7832031 0.9707031
vt 0.784668 0.9736328
vt 0.784668 0.9711914
vt 0.7866211 0.9741211
vt 0.784668 0.9697266
vt 0.7856445 0.9731445
vt 0.7856445 0.9716797
vt 0.7871094 0.972168
vt 0.7866211 0.9707031
vt 0.7861328 0.972168
vt 0.7836914 0.9711914
vt 0.7836914 0.972168
vt 0.7832031 0.972168
vt 0.7841797 0.9716797
vt 0.7841797 0.9731445
vt 0.784668 0.9711914
vt 0.7836914 0.9736328
vt 0.784668 0.9711914
vt 0.784668 0.9736328
vt 0.7856445 0.9711914
vt 0.784668 0.9736328
vt 0.7856445 0.9716797
vt 0.7856445 0.9731445
vt 0.7861328 0.972168
vt 0.7856445 0.9736328
vt 0.7856445 0.972168
vt 0.7832031 0.9707031
vt 0.784668 0.9692383
vt 0.7827148 0.9702148
vt 0.784668 0.9697266
vt 0.7822266 0.972168
vt 0.7871094 0.9702148
vt 0.7817383 0.972168
vt 0.7866211 0.9707031
vt 0.7832031 0.9741211
vt 0.7875977 0.972168
vt 0.7827148 0.9746094
vt 0.7871094 0.972168
vt 0.784668 0.9750977
vt 0.7871094 0.9746094
vt 0.784668 0.9755859
vt 0.7866211 0.9741211
vt 0.7871094 0.972168
vt 0.7861328 0.972168
vt 0.7856445 0.9711914
vt 0.7866211 0.9707031
vt 0.7866211 0.9741211
vt 0.784668 0.9711914
vt 0.7856445 0.9736328
vt 0.784668 0.9697266
vt 0.784668 0.9750977
vt 0.7836914 0.9711914
vt 0.784668 0.9736328
vt 0.7827148 0.9707031
vt 0.7827148 0.9741211
vt 0.7832031 0.972168
vt 0.7836914 0.9736328
vt 0.7822266 0.972168
vt 0.784668 0.9755859
vt 0.7827148 0.9746094
vt 0.7827148 0.9741211
vt 0.784668 0.9750977
vt 0.7822266 0.972168
vt 0.7871094 0.9746094
vt 0.7817383 0.972168
vt 0.7866211 0.9741211
vt 0.7827148 0.9707031
vt 0.7875977 0.972168
vt 0.7827148 0.9702148
vt 0.7871094 0.972168
vt 0.784668 0.9697266
vt 0.7871094 0.9702148
vt 0.784668 0.9692383
vt 0.7866211 0.9707031
vt 0.769043 0.9731445
vt 0.7700195 0.9736328
vt 0.7700195 0.9736328
vt 0.769043 0.9731445
vt 0.7705078 0.9731445
vt 0.7685547 0.972168
vt 0.7705078 0.9731445
vt 0.769043 0.972168
vt 0.7709961 0.972168
vt 0.769043 0.9716797
vt 0.7709961 0.972168
vt 0.769043 0.9716797
vt 0.7705078 0.9716797
vt 0.7700195 0.9711914
vt 0.7705078 0.9716797
vt 0.7700195 0.9711914
vt 0.7714844 0.9741211
vt 0.7709961 0.972168
vt 0.7724609 0.972168
vt 0.7705078 0.9731445
vt 0.7705078 0.9716797
vt 0.7700195 0.9750977
vt 0.7714844 0.9707031
vt 0.7700195 0.9736328
vt 0.7700195 0.9711914
vt 0.7680664 0.9741211
vt 0.7700195 0.9697266
vt 0.769043 0.9731445
vt 0.769043 0.9716797
vt 0.7675781 0.972168
vt 0.7680664 0.9707031
vt 0.7685547 0.972168
vt 0.7709961 0.9711914
vt 0.7709961 0.972168
vt 0.7714844 0.972168
vt 0.7705078 0.9716797
vt 0.7705078 0.9731445
vt 0.7700195 0.9711914
vt 0.7709961 0.9736328
vt 0.7700195 0.9711914
vt 0.7700195 0.9736328
vt 0.769043 0.9711914
vt 0.7700195 0.9736328
vt 0.769043 0.9716797
vt 0.769043 0.9731445
vt 0.7685547 0.972168
vt 0.769043 0.9736328
vt 0.769043 0.972168
vt 0.7714844 0.9707031
vt 0.7700195 0.9692383
vt 0.7719727 0.9702148
vt 0.7700195 0.9697266
vt 0.7724609 0.972168
vt 0.7675781 0.9702148
vt 0.7729492 0.972168
vt 0.7680664 0.9707031
vt 0.7714844 0.9741211
vt 0.7670898 0.972168
vt 0.7719727 0.9746094
vt 0.7675781 0.972168
vt 0.7700195 0.9750977
vt 0.7675781 0.9746094
vt 0.7700195 0.9755859
vt 0.7680664 0.9741211
vt 0.7675781 0.972168
vt 0.7685547 0.972168
vt 0.769043 0.9711914
vt 0.7680664 0.9707031
vt 0.7680664 0.9741211
vt 0.7700195 0.9711914
vt 0.769043 0.9736328
vt 0.7700195 0.9697266
vt 0.7700195 0.9750977
vt 0.7709961 0.9711914
vt 0.7700195 0.9736328
vt 0.7714844 0.9707031
vt 0.7714844 0.9741211
vt 0.7714844 0.972168
vt 0.7709961 0.9736328
vt 0.7724609 0.972168
vt 0.7700195 0.9755859
vt 0.7719727 0.9746094
vt 0.7714844 0.9741211
vt 0.7700195 0.9750977
vt 0.7724609 0.972168
vt 0.7675781 0.9746094
vt 0.7729492 0.972168
vt 0.7680664 0.9741211
vt 0.7714844 0.9707031
vt 0.7670898 0.972168
vt 0.7719727 0.9702148
vt 0.7675781 0.972168
vt 0.7700195 0.9697266
vt 0.7675781 0.9702148
vt 0.7700195 0.9692383
vt 0.7680664 0.9707031
vt 0.7856445 0.9731445
vt 0.784668 0.9736328
vt 0.784668 0.9736328
vt 0.7856445 0.9731445
vt 0.7841797 0.9731445
vt 0.7861328 0.972168
vt 0.7836914 0.9731445
vt 0.7856445 0.972168
vt 0.7836914 0.972168
vt 0.7856445 0.9716797
vt 0.7836914 0.972168
vt 0.7856445 0.9716797
vt 0.7841797 0.9716797
vt 0.784668 0.9711914
vt 0.7836914 0.9716797
vt 0.784668 0.9711914
vt 0.7832031 0.9741211
vt 0.7822266 0.972168
vt 0.7836914 0.972168
vt 0.7836914 0.9731445
vt 0.7836914 0.9716797
vt 0.784668 0.9750977
vt 0.7832031 0.9707031
vt 0.784668 0.9736328
vt 0.784668 0.9711914
vt 0.7866211 0.9741211
vt 0.784668 0.9697266
vt 0.7856445 0.9731445
vt 0.7856445 0.9716797
vt 0.7871094 0.972168
vt 0.7866211 0.9707031
vt 0.7861328 0.972168
vt 0.7836914 0.9711914
vt 0.7832031 0.972168
vt 0.7836914 0.972168
vt 0.7841797 0.9716797
vt 0.7841797 0.9731445
vt 0.784668 0.9711914
vt 0.7836914 0.9736328
vt 0.784668 0.9711914
vt 0.784668 0.9736328
vt 0.7856445 0.9711914
vt 0.784668 0.9736328
vt 0.7856445 0.9716797
vt 0.7856445 0.9731445
vt 0.7861328 0.972168
vt 0.7856445 0.9736328
vt 0.7856445 0.972168
vt 0.7832031 0.9707031
vt 0.7827148 0.9702148
vt 0.784668 0.9692383
vt 0.784668 0.9697266
vt 0.7822266 0.972168
vt 0.7871094 0.9702148
vt 0.7817383 0.972168
vt 0.7866211 0.9707031
vt 0.7832031 0.9741211
vt 0.7875977 0.972168
vt 0.7827148 0.9746094
vt 0.7871094 0.972168
vt 0.784668 0.9750977
vt 0.7871094 0.9746094
vt 0.784668 0.9755859
vt 0.7866211 0.9741211
vt 0.7871094 0.972168
vt 0.7866211 0.9707031
vt 0.7856445 0.9711914
vt 0.7861328 0.972168
vt 0.784668 0.9711914
vt 0.7866211 0.9741211
vt 0.784668 0.9697266
vt 0.7856445 0.9736328
vt 0.7836914 0.9711914
vt 0.784668 0.9750977
vt 0.7827148 0.9707031
vt 0.784668 0.9736328
vt 0.7832031 0.972168
vt 0.7827148 0.9741211
vt 0.7822266 0.972168
vt 0.7836914 0.9736328
vt 0.784668 0.9755859
vt 0.784668 0.9750977
vt 0.7827148 0.9741211
vt 0.7871094 0.9746094
vt 0.7827148 0.9746094
vt 0.7866211 0.9741211
vt 0.7822266 0.972168
vt 0.7875977 0.972168
vt 0.7817383 0.972168
vt 0.7871094 0.972168
vt 0.7827148 0.9707031
vt 0.7871094 0.9702148
vt 0.7827148 0.9702148
vt 0.7866211 0.9707031
vt 0.784668 0.9697266
vt 0.784668 0.9692383
vt 0.7768555 0.9731445
vt 0.7758789 0.9736328
vt 0.7758789 0.9736328
vt 0.7768555 0.9731445
vt 0.7753906 0.9731445
vt 0.7773438 0.972168
vt 0.7749023 0.9731445
vt 0.7768555 0.972168
vt 0.7749023 0.972168
vt 0.7768555 0.9716797
vt 0.7749023 0.972168
vt 0.7768555 0.9716797
vt 0.7753906 0.9716797
vt 0.7758789 0.9711914
vt 0.7749023 0.9716797
vt 0.7758789 0.9711914
vt 0.7739258 0.9741211
vt 0.7734375 0.972168
vt 0.7749023 0.972168
vt 0.7749023 0.9731445
vt 0.7749023 0.9716797
vt 0.7758789 0.9750977
vt 0.7739258 0.9707031
vt 0.7758789 0.9736328
vt 0.7758789 0.9711914
vt 0.777832 0.9741211
vt 0.7758789 0.9697266
vt 0.7768555 0.9731445
vt 0.7768555 0.9716797
vt 0.7783203 0.972168
vt 0.777832 0.9707031
vt 0.7773438 0.972168
vt 0.7749023 0.9711914
vt 0.7744141 0.972168
vt 0.7749023 0.972168
vt 0.7753906 0.9716797
vt 0.7753906 0.9731445
vt 0.7758789 0.9711914
vt 0.7749023 0.9736328
vt 0.7758789 0.9711914
vt 0.7758789 0.9736328
vt 0.7768555 0.9711914
vt 0.7758789 0.9736328
vt 0.7768555 0.9716797
vt 0.7768555 0.9731445
vt 0.7773438 0.972168
vt 0.7768555 0.9736328
vt 0.7768555 0.972168
vt 0.7739258 0.9707031
vt 0.7739258 0.9702148
vt 0.7758789 0.9692383
vt 0.7758789 0.9697266
vt 0.7734375 0.972168
vt 0.777832 0.9702148
vt 0.7729492 0.972168
vt 0.777832 0.9707031
vt 0.7739258 0.9741211
vt 0.7788086 0.972168
vt 0.7739258 0.9746094
vt 0.7783203 0.972168
vt 0.7758789 0.9750977
vt 0.777832 0.9746094
vt 0.7758789 0.9755859
vt 0.777832 0.9741211
vt 0.7783203 0.972168
vt 0.777832 0.9707031
vt 0.7768555 0.9711914
vt 0.7773438 0.972168
vt 0.7758789 0.9711914
vt 0.777832 0.9741211
vt 0.7758789 0.9697266
vt 0.7768555 0.9736328
vt 0.7749023 0.9711914
vt 0.7758789 0.9750977
vt 0.7739258 0.9707031
vt 0.7758789 0.9736328
vt 0.7744141 0.972168
vt 0.7739258 0.9741211
vt 0.7734375 0.972168
vt 0.7749023 0.9736328
vt 0.7758789 0.9755859
vt 0.7758789 0.9750977
vt 0.7739258 0.9741211
vt 0.777832 0.9746094
vt 0.7739258 0.9746094
vt 0.777832 0.9741211
vt 0.7734375 0.972168
vt 0.7788086 0.972168
vt 0.7729492 0.972168
vt 0.7783203 0.972168
vt 0.7739258 0.9707031
vt 0.777832 0.9702148
vt 0.7739258 0.9702148
vt 0.777832 0.9707031
vt 0.7758789 0.9697266
vt 0.7758789 0.9692383
vn -0.03436279 0.002071381 0.9995117
vn -0.0322876 0.03640747 0.9990234
vn 0.002071381 0.03436279 0.9995117
vn 0 0 1
vn -0.03640747 -0.0322876 0.9990234
vn 0.03640747 0.0322876 0.9990234
vn -0.002071381 -0.03436279 0.9995117
vn 0.03436279 -0.002071381 0.9995117
vn 0.0322876 -0.03640747 0.9990234
vn 0 0 -1
vn 0 0 -1
vn 0 0 -1
vn 0 0 -1
vn 0 0 -1
vn 0 0 -1
vn 0 0 -1
vn 0 0 -1
vn -0.03436279 0.002071381 0.9995117
vn -0.0322876 0.03640747 0.9990234
vn 0.002071381 0.03436279 0.9995117
vn 0 0 1
vn -0.03640747 -0.0322876 0.9990234
vn 0.03640747 0.0322876 0.9990234
vn -0.002073288 -0.03436279 0.9995117
vn 0.03436279 -0.002071381 0.9995117
vn 0.0322876 -0.03640747 0.9990234
vn 0 0 -1
vn 0 0 -1
vn 0 0 -1
vn 0 0 -1
vn 0 0 -1
vn 0 0 -1
vn 0 0 -1
vn 0 0 -1
vn 0.03436279 -0.002071381 0.9995117
vn 0.002073288 0.03436279 0.9995117
vn 0.03640747 0.0322876 0.9990234
vn 0 0 1
vn 0.0322876 -0.03640747 0.9990234
vn -0.0322876 0.03640747 0.9990234
vn -0.002071381 -0.03436279 0.9995117
vn -0.03436279 0.002071381 0.9995117
vn -0.03640747 -0.0322876 0.9990234
vn 0 0 -1
vn 0 0 -1
vn 0 0 -1
vn 0 0 -1
vn 0 0 -1
vn 0 0 -1
vn 0 0 -1
vn 0 0 -1
vn -0.03436279 0.002071381 -0.9995117
vn 0.002073288 0.03436279 -0.9995117
vn -0.03225708 0.03640747 -0.9990234
vn 0 0 -1
vn -0.03640747 -0.0322876 -0.9990234
vn 0.03640747 0.0322876 -0.9990234
vn -0.002071381 -0.03436279 -0.9995117
vn 0.03436279 -0.002071381 -0.9995117
vn 0.0322876 -0.03640747 -0.9990234
vn 0 0 1
vn 0 0 1
vn 0 0 1
vn 0 0 1
vn 0 0 1
vn 0 0 1
vn 0 0 1
vn 0 0 1
vn -0.03436279 0.002071381 -0.9995117
vn 0.002071381 0.03436279 -0.9995117
vn -0.0322876 0.03640747 -0.9990234
vn 0 0 -1
vn -0.03640747 -0.0322876 -0.9990234
vn 0.03640747 0.0322876 -0.9990234
vn -0.002071381 -0.03436279 -0.9995117
vn 0.03436279 -0.002071381 -0.9995117
vn 0.0322876 -0.03640747 -0.9990234
vn 0 0 1
vn 0 0 1
vn 0 0 1
vn 0 0 1
vn 0 0 1
vn 0 0 1
vn 0 0 1
vn 0 0 1
vn 0.03436279 -0.002071381 -0.9995117
vn 0.03640747 0.0322876 -0.9990234
vn 0.002071381 0.03436279 -0.9995117
vn 0 0 -1
vn 0.03225708 -0.03640747 -0.9990234
vn -0.0322876 0.03640747 -0.9990234
vn -0.002073288 -0.03436279 -0.9995117
vn -0.03436279 0.002071381 -0.9995117
vn -0.03640747 -0.0322876 -0.9990234
vn 0 0 1
vn 0 0 1
vn 0 0 1
vn 0 0 1
vn 0 0 1
vn 0 0 1
vn 0 0 1
vn 0 0 1
vn -0.6264648 0.7070313 0.328125
vn 0.05685425 0.9428711 0.328125
vn 0.05685425 0.9428711 0.328125
vn -0.6264648 0.7070313 0.328125
vn 0.7070313 0.6264648 0.328125
vn -0.9428711 0.05685425 0.328125
vn 0.7070313 0.6264648 0.328125
vn -0.9428711 0.05685425 0.328125
vn 0.9428711 -0.05685425 0.328125
vn -0.7070313 -0.6264648 0.328125
vn 0.9428711 -0.05685425 0.328125
vn -0.7070313 -0.6264648 0.328125
vn 0.6264648 -0.7070313 0.328125
vn -0.05685425 -0.9428711 0.328125
vn 0.6264648 -0.7070313 0.328125
vn -0.05685425 -0.9428711 0.328125
vn 0.05581665 0.04946899 0.9970703
vn 0.07446289 -0.004486084 0.9970703
vn 0.07446289 -0.004486084 0.9970703
vn 0.05581665 0.04946899 0.9970703
vn 0.04946899 -0.05581665 0.9970703
vn 0.004486084 0.07446289 0.9970703
vn 0.04946899 -0.05581665 0.9970703
vn 0.004489899 0.07446289 0.9970703
vn -0.004486084 -0.07446289 0.9970703
vn -0.04946899 0.05581665 0.9970703
vn -0.004486084 -0.07446289 0.9970703
vn -0.04946899 0.05581665 0.9970703
vn -0.05581665 -0.04946899 0.9970703
vn -0.07446289 0.004486084 0.9970703
vn -0.05581665 -0.04946899 0.9970703
vn -0.07446289 0.004486084 0.9970703
vn -0.5288086 0.5966797 -0.6035156
vn -0.7958984 0.04797363 -0.6035156
vn -0.7958984 0.04797363 -0.6035156
vn -0.5288086 0.5966797 -0.6035156
vn -0.5966797 -0.5288086 -0.6035156
vn 0.04797363 0.7958984 -0.6035156
vn -0.5966797 -0.5288086 -0.6035156
vn 0.04797363 0.7958984 -0.6035156
vn -0.04797363 -0.7958984 -0.6035156
vn 0.5966797 0.5288086 -0.6035156
vn -0.04797363 -0.7958984 -0.6035156
vn 0.5966797 0.5288086 -0.6035156
vn 0.5288086 -0.5966797 -0.6035156
vn 0.7958984 -0.04797363 -0.6035156
vn 0.5288086 -0.5966797 -0.6035156
vn 0.7958984 -0.04797363 -0.6035156
vn 0.637207 -0.7192383 0.2768555
vn 0.6630859 -0.7485352 0.003698349
vn -0.06018066 -0.9980469 0.003698349
vn -0.05783081 -0.9589844 0.2768555
vn 0.9589844 -0.05783081 0.2768555
vn -0.7485352 -0.6630859 0.003698349
vn 0.9980469 -0.06018066 0.003698349
vn -0.7192383 -0.637207 0.2768555
vn 0.7192383 0.637207 0.2768555
vn -0.9980469 0.06018066 0.003698349
vn 0.7485352 0.6630859 0.003698349
vn -0.9589844 0.05783081 0.2768555
vn 0.05783081 0.9589844 0.2768555
vn -0.6630859 0.7485352 0.003698349
vn 0.06018066 0.9980469 0.003698349
vn -0.637207 0.7192383 0.2768555
vn -0.338623 0.02041626 -0.940918
vn -0.2539063 -0.2249756 -0.940918
vn -0.2539063 -0.2249756 -0.940918
vn -0.338623 0.02041626 -0.940918
vn -0.02041626 -0.338623 -0.940918
vn -0.2249756 0.2539063 -0.940918
vn -0.02041626 -0.338623 -0.940918
vn -0.2249756 0.2539063 -0.940918
vn 0.2249756 -0.2539063 -0.940918
vn 0.02041626 0.338623 -0.940918
vn 0.2249756 -0.2539063 -0.940918
vn 0.02041626 0.338623 -0.940918
vn 0.338623 -0.02041626 -0.940918
vn 0.2539063 0.2249756 -0.940918
vn 0.338623 -0.02041626 -0.940918
vn 0.2539063 0.2249756 -0.940918
vn 0.06018066 0.9980469 0.003698349
vn 0.05795288 0.9614258 -0.2692871
vn 0.7207031 0.6386719 -0.2692871
vn -0.6630859 0.7485352 0.003698349
vn 0.7485352 0.6630859 0.003698349
vn -0.6386719 0.7207031 -0.2692871
vn 0.9614258 -0.05795288 -0.2692871
vn -0.9980469 0.06018066 0.003698349
vn 0.9980469 -0.06018066 0.003698349
vn -0.9614258 0.05795288 -0.2692871
vn 0.6386719 -0.7207031 -0.2692871
vn -0.7485352 -0.6630859 0.003698349
vn 0.6630859 -0.7485352 0.003698349
vn -0.7207031 -0.6386719 -0.2692871
vn -0.05795288 -0.9614258 -0.2692871
vn -0.06018066 -0.9980469 0.003698349
vn 0.7070313 0.6264648 0.328125
vn 0.05685425 0.9428711 0.328125
vn 0.05685425 0.9428711 0.328125
vn 0.7070313 0.6264648 0.328125
vn -0.6264648 0.7070313 0.328125
vn 0.9428711 -0.05685425 0.328125
vn -0.6264648 0.7070313 0.328125
vn 0.9428711 -0.05685425 0.328125
vn -0.9428711 0.05685425 0.328125
vn 0.6264648 -0.7070313 0.328125
vn -0.9428711 0.05685425 0.328125
vn 0.6264648 -0.7070313 0.328125
vn -0.7070313 -0.6264648 0.328125
vn -0.05685425 -0.9428711 0.328125
vn -0.7070313 -0.6264648 0.328125
vn -0.05685425 -0.9428711 0.328125
vn -0.04946899 0.05581665 0.9970703
vn -0.07446289 0.004486084 0.9970703
vn -0.07446289 0.004486084 0.9970703
vn -0.04946899 0.05581665 0.9970703
vn -0.05581665 -0.04946899 0.9970703
vn 0.004489899 0.07446289 0.9970703
vn -0.05581665 -0.04946899 0.9970703
vn 0.004489899 0.07446289 0.9970703
vn -0.004486084 -0.07446289 0.9970703
vn 0.05581665 0.04946899 0.9970703
vn -0.004486084 -0.07446289 0.9970703
vn 0.05581665 0.04946899 0.9970703
vn 0.04946899 -0.05581665 0.9970703
vn 0.07446289 -0.004486084 0.9970703
vn 0.04946899 -0.05581665 0.9970703
vn 0.07446289 -0.004486084 0.9970703
vn 0.5966797 0.5288086 -0.6035156
vn 0.7958984 -0.04797363 -0.6035156
vn 0.7958984 -0.04797363 -0.6035156
vn 0.5966797 0.5288086 -0.6035156
vn 0.5288086 -0.5966797 -0.6035156
vn 0.04797363 0.7958984 -0.6035156
vn 0.5288086 -0.5966797 -0.6035156
vn 0.04797363 0.7958984 -0.6035156
vn -0.04797363 -0.7958984 -0.6035156
vn -0.5288086 0.5966797 -0.6035156
vn -0.04797363 -0.7958984 -0.6035156
vn -0.5288086 0.5966797 -0.6035156
vn -0.5966797 -0.5288086 -0.6035156
vn -0.7958984 0.04797363 -0.6035156
vn -0.5966797 -0.5288086 -0.6035156
vn -0.7958984 0.04797363 -0.6035156
vn -0.7192383 -0.637207 0.2768555
vn -0.06018066 -0.9980469 0.003698349
vn -0.7485352 -0.6630859 0.003698349
vn -0.05783081 -0.9589844 0.2768555
vn -0.9589844 0.05783081 0.2768555
vn 0.6630859 -0.7485352 0.003698349
vn -0.9980469 0.06018066 0.003698349
vn 0.637207 -0.7192383 0.2768555
vn -0.637207 0.7192383 0.2768555
vn 0.9980469 -0.06018066 0.003698349
vn -0.6630859 0.7485352 0.003698349
vn 0.9589844 -0.05783081 0.2768555
vn 0.05783081 0.9589844 0.2768555
vn 0.7485352 0.6630859 0.003698349
vn 0.06018066 0.9980469 0.003698349
vn 0.7192383 0.637207 0.2768555
vn 0.338623 -0.02041626 -0.940918
vn 0.338623 -0.02041626 -0.940918
vn 0.2249756 -0.2539063 -0.940918
vn 0.2249756 -0.2539063 -0.940918
vn 0.2539063 0.2249756 -0.940918
vn -0.02041626 -0.338623 -0.940918
vn 0.2539063 0.2249756 -0.940918
vn -0.02041626 -0.338623 -0.940918
vn 0.02041626 0.338623 -0.940918
vn -0.2539063 -0.2249756 -0.940918
vn 0.02041626 0.338623 -0.940918
vn -0.2539063 -0.2249756 -0.940918
vn -0.2249756 0.2539063 -0.940918
vn -0.338623 0.02041626 -0.940918
vn -0.2249756 0.2539063 -0.940918
vn -0.338623 0.02041626 -0.940918
vn 0.06018066 0.9980469 0.003698349
vn -0.6630859 0.7485352 0.003698349
vn -0.6386719 0.7207031 -0.2692871
vn 0.05795288 0.9614258 -0.2692871
vn -0.9614258 0.05795288 -0.2692871
vn 0.7485352 0.6630859 0.003698349
vn -0.9980469 0.06018066 0.003698349
vn 0.7207031 0.6386719 -0.2692871
vn -0.7207031 -0.6386719 -0.2692871
vn 0.9980469 -0.06018066 0.003698349
vn -0.7485352 -0.6630859 0.003698349
vn 0.9614258 -0.05795288 -0.2692871
vn -0.05795288 -0.9614258 -0.2692871
vn 0.6630859 -0.7485352 0.003698349
vn -0.06018066 -0.9980469 0.003698349
vn 0.6386719 -0.7207031 -0.2692871
vn 0.7070313 0.6264648 0.328125
vn 0.05685425 0.9428711 0.328125
vn 0.05685425 0.9428711 0.328125
vn 0.7070313 0.6264648 0.328125
vn -0.6264648 0.7070313 0.328125
vn 0.9428711 -0.05685425 0.328125
vn -0.6264648 0.7070313 0.328125
vn 0.9428711 -0.05685425 0.328125
vn -0.9428711 0.05685425 0.328125
vn 0.6264648 -0.7070313 0.328125
vn -0.9428711 0.05685425 0.328125
vn 0.6264648 -0.7070313 0.328125
vn -0.7070313 -0.6264648 0.328125
vn -0.05685425 -0.9428711 0.328125
vn -0.7070313 -0.6264648 0.328125
vn -0.05685425 -0.9428711 0.328125
vn -0.04946899 0.05581665 0.9970703
vn -0.07446289 0.004486084 0.9970703
vn -0.07446289 0.004486084 0.9970703
vn -0.04946899 0.05581665 0.9970703
vn -0.05581665 -0.04946899 0.9970703
vn 0.004489899 0.07446289 0.9970703
vn -0.05581665 -0.04946899 0.9970703
vn 0.004489899 0.07446289 0.9970703
vn -0.004486084 -0.07446289 0.9970703
vn 0.05581665 0.04946899 0.9970703
vn -0.004486084 -0.07446289 0.9970703
vn 0.05581665 0.04946899 0.9970703
vn 0.04946899 -0.05581665 0.9970703
vn 0.07446289 -0.004486084 0.9970703
vn 0.04946899 -0.05581665 0.9970703
vn 0.07446289 -0.004486084 0.9970703
vn 0.5966797 0.5288086 -0.6035156
vn 0.7958984 -0.04797363 -0.6035156
vn 0.7958984 -0.04797363 -0.6035156
vn 0.5966797 0.5288086 -0.6035156
vn 0.5288086 -0.5966797 -0.6035156
vn 0.04797363 0.7958984 -0.6035156
vn 0.5288086 -0.5966797 -0.6035156
vn 0.04797363 0.7958984 -0.6035156
vn -0.04797363 -0.7958984 -0.6035156
vn -0.5288086 0.5966797 -0.6035156
vn -0.04797363 -0.7958984 -0.6035156
vn -0.5288086 0.5966797 -0.6035156
vn -0.5966797 -0.5288086 -0.6035156
vn -0.7958984 0.04797363 -0.6035156
vn -0.5966797 -0.5288086 -0.6035156
vn -0.7958984 0.04797363 -0.6035156
vn -0.7192383 -0.637207 0.2768555
vn -0.06018066 -0.9980469 0.003698349
vn -0.7485352 -0.6630859 0.003698349
vn -0.05783081 -0.9589844 0.2768555
vn -0.9589844 0.05783081 0.2768555
vn 0.6630859 -0.7485352 0.003698349
vn -0.9980469 0.06018066 0.003700256
vn 0.637207 -0.7192383 0.2768555
vn -0.637207 0.7192383 0.2768555
vn 0.9980469 -0.06018066 0.003698349
vn -0.6630859 0.7485352 0.003698349
vn 0.9589844 -0.05783081 0.2768555
vn 0.05783081 0.9589844 0.2768555
vn 0.7485352 0.6630859 0.003698349
vn 0.06018066 0.9980469 0.003698349
vn 0.7192383 0.637207 0.2768555
vn 0.338623 -0.02041626 -0.940918
vn 0.338623 -0.02041626 -0.940918
vn 0.2249756 -0.2539063 -0.940918
vn 0.2249756 -0.2539063 -0.940918
vn 0.2539063 0.2249756 -0.940918
vn -0.02041626 -0.338623 -0.940918
vn 0.2539063 0.2249756 -0.940918
vn -0.02041626 -0.338623 -0.940918
vn 0.02041626 0.338623 -0.940918
vn -0.2539063 -0.2249756 -0.940918
vn 0.02041626 0.338623 -0.940918
vn -0.2539063 -0.2249756 -0.940918
vn -0.2249756 0.2539063 -0.940918
vn -0.338623 0.02041626 -0.940918
vn -0.2249756 0.2539063 -0.940918
vn -0.338623 0.02041626 -0.940918
vn 0.06018066 0.9980469 0.003698349
vn -0.6630859 0.7485352 0.003698349
vn -0.6386719 0.7207031 -0.2692871
vn 0.05795288 0.9614258 -0.2692871
vn -0.9614258 0.05795288 -0.2692871
vn 0.7485352 0.6630859 0.003698349
vn -0.9980469 0.06018066 0.003700256
vn 0.7207031 0.6386719 -0.2692871
vn -0.7207031 -0.6386719 -0.2692871
vn 0.9980469 -0.06018066 0.003698349
vn -0.7485352 -0.6630859 0.003698349
vn 0.9614258 -0.05795288 -0.2692871
vn -0.05795288 -0.9614258 -0.2692871
vn 0.6630859 -0.7485352 0.003698349
vn -0.06018066 -0.9980469 0.003698349
vn 0.6386719 -0.7207031 -0.2692871
vn -0.6264648 0.7070313 -0.328125
vn 0.05685425 0.9428711 -0.328125
vn 0.05685425 0.9428711 -0.328125
vn -0.6264648 0.7070313 -0.328125
vn 0.7070313 0.6264648 -0.328125
vn -0.9428711 0.05685425 -0.328125
vn 0.7070313 0.6264648 -0.328125
vn -0.9428711 0.05685425 -0.328125
vn 0.9428711 -0.05685425 -0.328125
vn -0.7070313 -0.6264648 -0.328125
vn 0.9428711 -0.05685425 -0.328125
vn -0.7070313 -0.6264648 -0.328125
vn 0.6264648 -0.7070313 -0.328125
vn -0.05685425 -0.9428711 -0.328125
vn 0.6264648 -0.7070313 -0.328125
vn -0.05685425 -0.9428711 -0.328125
vn 0.05581665 0.04946899 -0.9970703
vn 0.07446289 -0.004486084 -0.9970703
vn 0.07446289 -0.004486084 -0.9970703
vn 0.05581665 0.04946899 -0.9970703
vn 0.04946899 -0.05581665 -0.9970703
vn 0.004486084 0.07446289 -0.9970703
vn 0.04946899 -0.05581665 -0.9970703
vn 0.004486084 0.07446289 -0.9970703
vn -0.004489899 -0.07446289 -0.9970703
vn -0.04946899 0.05581665 -0.9970703
vn -0.004489899 -0.07446289 -0.9970703
vn -0.04946899 0.05581665 -0.9970703
vn -0.05581665 -0.04946899 -0.9970703
vn -0.07446289 0.004486084 -0.9970703
vn -0.05581665 -0.04946899 -0.9970703
vn -0.07446289 0.004486084 -0.9970703
vn -0.5288086 0.5966797 0.6035156
vn -0.7958984 0.04797363 0.6035156
vn -0.7958984 0.04797363 0.6035156
vn -0.5288086 0.5966797 0.6035156
vn -0.5966797 -0.5288086 0.6035156
vn 0.04797363 0.7958984 0.6035156
vn -0.5966797 -0.5288086 0.6035156
vn 0.04797363 0.7958984 0.6035156
vn -0.04797363 -0.7958984 0.6035156
vn 0.5966797 0.5288086 0.6035156
vn -0.04797363 -0.7958984 0.6035156
vn 0.5966797 0.5288086 0.6035156
vn 0.5288086 -0.5966797 0.6035156
vn 0.7958984 -0.04797363 0.6035156
vn 0.5288086 -0.5966797 0.6035156
vn 0.7958984 -0.04797363 0.6035156
vn 0.637207 -0.7192383 -0.2768555
vn -0.06018066 -0.9980469 -0.003698349
vn 0.6630859 -0.7485352 -0.003698349
vn -0.05783081 -0.9589844 -0.2768555
vn 0.9589844 -0.05783081 -0.2768555
vn -0.7485352 -0.6630859 -0.003698349
vn 0.9980469 -0.06018066 -0.003698349
vn -0.7192383 -0.637207 -0.2768555
vn 0.7192383 0.637207 -0.2768555
vn -0.9980469 0.06018066 -0.003698349
vn 0.7485352 0.6630859 -0.003698349
vn -0.9589844 0.05783081 -0.2768555
vn 0.05783081 0.9589844 -0.2768555
vn -0.6630859 0.7485352 -0.003698349
vn 0.06018066 0.9980469 -0.003698349
vn -0.637207 0.7192383 -0.2768555
vn -0.338623 0.02041626 0.940918
vn -0.338623 0.02041626 0.940918
vn -0.2539063 -0.2249756 0.940918
vn -0.2539063 -0.2249756 0.940918
vn -0.2249756 0.2539063 0.940918
vn -0.02041626 -0.338623 0.940918
vn -0.2249756 0.2539063 0.940918
vn -0.02041626 -0.338623 0.940918
vn 0.02041626 0.338623 0.940918
vn 0.2249756 -0.2539063 0.940918
vn 0.02041626 0.338623 0.940918
vn 0.2249756 -0.2539063 0.940918
vn 0.2539063 0.2249756 0.940918
vn 0.338623 -0.02041626 0.940918
vn 0.2539063 0.2249756 0.940918
vn 0.338623 -0.02041626 0.940918
vn 0.06018066 0.9980469 -0.003698349
vn 0.7485352 0.6630859 -0.003698349
vn 0.7207031 0.6386719 0.2692871
vn 0.05795288 0.9614258 0.2692871
vn 0.9614258 -0.05795288 0.2692871
vn -0.6630859 0.7485352 -0.003698349
vn 0.9980469 -0.06018066 -0.003698349
vn -0.6386719 0.7207031 0.2692871
vn 0.6386719 -0.7207031 0.2692871
vn -0.9980469 0.06018066 -0.003698349
vn 0.6630859 -0.7485352 -0.003698349
vn -0.9614258 0.05795288 0.2692871
vn -0.05795288 -0.9614258 0.2692871
vn -0.7485352 -0.6630859 -0.003698349
vn -0.06018066 -0.9980469 -0.003698349
vn -0.7207031 -0.6386719 0.2692871
vn 0.7070313 0.6264648 -0.328125
vn 0.05685425 0.9428711 -0.328125
vn 0.05685425 0.9428711 -0.328125
vn 0.7070313 0.6264648 -0.328125
vn -0.6264648 0.7070313 -0.328125
vn 0.9428711 -0.05685425 -0.328125
vn -0.6264648 0.7070313 -0.328125
vn 0.9428711 -0.05685425 -0.328125
vn -0.9428711 0.05685425 -0.328125
vn 0.6264648 -0.7070313 -0.328125
vn -0.9428711 0.05685425 -0.328125
vn 0.6264648 -0.7070313 -0.328125
vn -0.7070313 -0.6264648 -0.328125
vn -0.05685425 -0.9428711 -0.328125
vn -0.7070313 -0.6264648 -0.328125
vn -0.05685425 -0.9428711 -0.328125
vn -0.04946899 0.05581665 -0.9970703
vn -0.07446289 0.004486084 -0.9970703
vn -0.07446289 0.004486084 -0.9970703
vn -0.04946899 0.05581665 -0.9970703
vn -0.05581665 -0.04946899 -0.9970703
vn 0.004486084 0.07446289 -0.9970703
vn -0.05581665 -0.04946899 -0.9970703
vn 0.004486084 0.07446289 -0.9970703
vn -0.004489899 -0.07446289 -0.9970703
vn 0.05581665 0.04946899 -0.9970703
vn -0.004489899 -0.07446289 -0.9970703
vn 0.05581665 0.04946899 -0.9970703
vn 0.04946899 -0.05581665 -0.9970703
vn 0.07446289 -0.004486084 -0.9970703
vn 0.04946899 -0.05581665 -0.9970703
vn 0.07446289 -0.004486084 -0.9970703
vn 0.5966797 0.5288086 0.6035156
vn 0.7958984 -0.04797363 0.6035156
vn 0.7958984 -0.04797363 0.6035156
vn 0.5966797 0.5288086 0.6035156
vn 0.5288086 -0.5966797 0.6035156
vn 0.04797363 0.7958984 0.6035156
vn 0.5288086 -0.5966797 0.6035156
vn 0.04797363 0.7958984 0.6035156
vn -0.04797363 -0.7958984 0.6035156
vn -0.5288086 0.5966797 0.6035156
vn -0.04797363 -0.7958984 0.6035156
vn -0.5288086 0.5966797 0.6035156
vn -0.5966797 -0.5288086 0.6035156
vn -0.7958984 0.04797363 0.6035156
vn -0.5966797 -0.5288086 0.6035156
vn -0.7958984 0.04797363 0.6035156
vn -0.7192383 -0.637207 -0.2768555
vn -0.7485352 -0.6630859 -0.003698349
vn -0.06018066 -0.9980469 -0.003698349
vn -0.05783081 -0.9589844 -0.2768555
vn -0.9589844 0.05783081 -0.2768555
vn 0.6630859 -0.7485352 -0.003698349
vn -0.9980469 0.06018066 -0.003698349
vn 0.637207 -0.7192383 -0.2768555
vn -0.637207 0.7192383 -0.2768555
vn 0.9980469 -0.06018066 -0.003698349
vn -0.6630859 0.7485352 -0.003698349
vn 0.9589844 -0.05783081 -0.2768555
vn 0.05783081 0.9589844 -0.2768555
vn 0.7485352 0.6630859 -0.003698349
vn 0.06018066 0.9980469 -0.003698349
vn 0.7192383 0.637207 -0.2768555
vn 0.338623 -0.02041626 0.940918
vn 0.2249756 -0.2539063 0.940918
vn 0.2249756 -0.2539063 0.940918
vn 0.338623 -0.02041626 0.940918
vn -0.02041626 -0.338623 0.940918
vn 0.2539063 0.2249756 0.940918
vn -0.02041626 -0.338623 0.940918
vn 0.2539063 0.2249756 0.940918
vn -0.2539063 -0.2249756 0.940918
vn 0.02041626 0.338623 0.940918
vn -0.2539063 -0.2249756 0.940918
vn 0.02041626 0.338623 0.940918
vn -0.338623 0.02041626 0.940918
vn -0.2249756 0.2539063 0.940918
vn -0.338623 0.02041626 0.940918
vn -0.2249756 0.2539063 0.940918
vn 0.06018066 0.9980469 -0.003698349
vn 0.05795288 0.9614258 0.2692871
vn -0.6386719 0.7207031 0.2692871
vn 0.7485352 0.6630859 -0.003698349
vn -0.6630859 0.7485352 -0.003698349
vn 0.7207031 0.6386719 0.2692871
vn -0.9614258 0.05795288 0.2692871
vn 0.9980469 -0.06018066 -0.003698349
vn -0.9980469 0.06018066 -0.003698349
vn 0.9614258 -0.05795288 0.2692871
vn -0.7207031 -0.6386719 0.2692871
vn 0.6630859 -0.7485352 -0.003698349
vn -0.7485352 -0.6630859 -0.003698349
vn 0.6386719 -0.7207031 0.2692871
vn -0.05795288 -0.9614258 0.2692871
vn -0.06018066 -0.9980469 -0.003698349
vn 0.7070313 0.6264648 -0.328125
vn 0.05685425 0.9428711 -0.328125
vn 0.05685425 0.9428711 -0.328125
vn 0.7070313 0.6264648 -0.328125
vn -0.6264648 0.7070313 -0.328125
vn 0.9428711 -0.05685425 -0.328125
vn -0.6264648 0.7070313 -0.328125
vn 0.9428711 -0.05685425 -0.328125
vn -0.9428711 0.05685425 -0.328125
vn 0.6264648 -0.7070313 -0.328125
vn -0.9428711 0.05685425 -0.328125
vn 0.6264648 -0.7070313 -0.328125
vn -0.7070313 -0.6264648 -0.328125
vn -0.05685425 -0.9428711 -0.328125
vn -0.7070313 -0.6264648 -0.328125
vn -0.05685425 -0.9428711 -0.328125
vn -0.04946899 0.05581665 -0.9970703
vn -0.07446289 0.004486084 -0.9970703
vn -0.07446289 0.004486084 -0.9970703
vn -0.04946899 0.05581665 -0.9970703
vn -0.05581665 -0.04946899 -0.9970703
vn 0.004486084 0.07446289 -0.9970703
vn -0.05581665 -0.04946899 -0.9970703
vn 0.004486084 0.07446289 -0.9970703
vn -0.004489899 -0.07446289 -0.9970703
vn 0.05581665 0.04946899 -0.9970703
vn -0.004489899 -0.07446289 -0.9970703
vn 0.05581665 0.04946899 -0.9970703
vn 0.04946899 -0.05581665 -0.9970703
vn 0.07446289 -0.004486084 -0.9970703
vn 0.04946899 -0.05581665 -0.9970703
vn 0.07446289 -0.004486084 -0.9970703
vn 0.5966797 0.5288086 0.6035156
vn 0.7958984 -0.04797363 0.6035156
vn 0.7958984 -0.04797363 0.6035156
vn 0.5966797 0.5288086 0.6035156
vn 0.5288086 -0.5966797 0.6035156
vn 0.04797363 0.7958984 0.6035156
vn 0.5288086 -0.5966797 0.6035156
vn 0.04797363 0.7958984 0.6035156
vn -0.04797363 -0.7958984 0.6035156
vn -0.5288086 0.5966797 0.6035156
vn -0.04797363 -0.7958984 0.6035156
vn -0.5288086 0.5966797 0.6035156
vn -0.5966797 -0.5288086 0.6035156
vn -0.7958984 0.04797363 0.6035156
vn -0.5966797 -0.5288086 0.6035156
vn -0.7958984 0.04797363 0.6035156
vn -0.7192383 -0.637207 -0.2768555
vn -0.7485352 -0.6630859 -0.003698349
vn -0.06018066 -0.9980469 -0.003698349
vn -0.05783081 -0.9589844 -0.2768555
vn -0.9589844 0.05783081 -0.2768555
vn 0.6630859 -0.7485352 -0.003698349
vn -0.9980469 0.06018066 -0.003698349
vn 0.637207 -0.7192383 -0.2768555
vn -0.637207 0.7192383 -0.2768555
vn 0.9980469 -0.06018066 -0.003698349
vn -0.6630859 0.7485352 -0.003698349
vn 0.9589844 -0.05783081 -0.2768555
vn 0.05783081 0.9589844 -0.2768555
vn 0.7485352 0.6630859 -0.003698349
vn 0.06018066 0.9980469 -0.003698349
vn 0.7192383 0.637207 -0.2768555
vn 0.338623 -0.02041626 0.940918
vn 0.2249756 -0.2539063 0.940918
vn 0.2249756 -0.2539063 0.940918
vn 0.338623 -0.02041626 0.940918
vn -0.02041626 -0.338623 0.940918
vn 0.2539063 0.2249756 0.940918
vn -0.02041626 -0.338623 0.940918
vn 0.2539063 0.2249756 0.940918
vn -0.2539063 -0.2249756 0.940918
vn 0.02041626 0.338623 0.940918
vn -0.2539063 -0.2249756 0.940918
vn 0.02041626 0.338623 0.940918
vn -0.338623 0.02041626 0.940918
vn -0.2249756 0.2539063 0.940918
vn -0.338623 0.02041626 0.940918
vn -0.2249756 0.2539063 0.940918
vn 0.06018066 0.9980469 -0.003698349
vn 0.05795288 0.9614258 0.2692871
vn -0.6386719 0.7207031 0.2692871
vn 0.7485352 0.6630859 -0.003698349
vn -0.6630859 0.7485352 -0.003698349
vn 0.7207031 0.6386719 0.2692871
vn -0.9614258 0.05795288 0.2692871
vn 0.9980469 -0.06018066 -0.003698349
vn -0.9980469 0.06018066 -0.003698349
vn 0.9614258 -0.05795288 0.2692871
vn -0.7207031 -0.6386719 0.2692871
vn 0.6630859 -0.7485352 -0.003698349
vn -0.7485352 -0.6630859 -0.003698349
vn 0.6386719 -0.7207031 0.2692871
vn -0.05795288 -0.9614258 0.2692871
vn -0.06018066 -0.9980469 -0.003698349
g Tyre_0
f 3/3/3 2/2/2 1/1/1
f 4/4/4 3/3/3 1/1/1
f 4/4/4 1/1/1 5/5/5
f 6/6/6 3/3/3 4/4/4
f 7/7/7 4/4/4 5/5/5
f 8/8/8 6/6/6 4/4/4
f 8/8/8 4/4/4 7/7/7
f 9/9/9 8/8/8 7/7/7
f 12/12/12 11/11/11 10/10/10
f 10/10/10 13/13/13 12/12/12
f 10/10/10 14/14/14 13/13/13
f 14/14/14 15/15/15 13/13/13
f 14/14/14 16/16/16 15/15/15
f 16/16/16 17/17/17 15/15/15
f 20/20/20 19/19/19 18/18/18
f 21/21/21 20/20/20 18/18/18
f 21/21/21 18/18/18 22/22/22
f 23/23/23 20/20/20 21/21/21
f 24/24/24 21/21/21 22/22/22
f 25/25/25 23/23/23 21/21/21
f 25/25/25 21/21/21 24/24/24
f 26/26/26 25/25/25 24/24/24
f 29/29/29 28/28/28 27/27/27
f 27/27/27 30/30/30 29/29/29
f 27/27/27 31/31/31 30/30/30
f 31/31/31 32/32/32 30/30/30
f 31/31/31 33/33/33 32/32/32
f 33/33/33 34/34/34 32/32/32
f 37/37/37 36/36/36 35/35/35
f 36/36/36 38/38/38 35/35/35
f 35/35/35 38/38/38 39/39/39
f 36/36/36 40/40/40 38/38/38
f 38/38/38 41/41/41 39/39/39
f 40/40/40 42/42/42 38/38/38
f 38/38/38 42/42/42 41/41/41
f 42/42/42 43/43/43 41/41/41
f 46/46/46 45/45/45 44/44/44
f 44/44/44 47/47/47 46/46/46
f 44/44/44 48/48/48 47/47/47
f 48/48/48 49/49/49 47/47/47
f 48/48/48 50/50/50 49/49/49
f 50/50/50 51/51/51 49/49/49
f 54/54/54 53/53/53 52/52/52
f 53/53/53 55/55/55 52/52/52
f 52/52/52 55/55/55 56/56/56
f 53/53/53 57/57/57 55/55/55
f 55/55/55 58/58/58 56/56/56
f 57/57/57 59/59/59 55/55/55
f 55/55/55 59/59/59 58/58/58
f 59/59/59 60/60/60 58/58/58
f 63/63/63 62/62/62 61/61/61
f 61/61/61 64/64/64 63/63/63
f 64/64/64 65/65/65 63/63/63
f 64/64/64 66/66/66 65/65/65
f 66/66/66 67/67/67 65/65/65
f 66/66/66 68/68/68 67/67/67
f 71/71/71 70/70/70 69/69/69
f 70/70/70 72/72/72 69/69/69
f 69/69/69 72/72/72 73/73/73
f 70/70/70 74/74/74 72/72/72
f 72/72/72 75/75/75 73/73/73
f 74/74/74 76/76/76 72/72/72
f 72/72/72 76/76/76 75/75/75
f 76/76/76 77/77/77 75/75/75
f 80/80/80 79/79/79 78/78/78
f 78/78/78 81/81/81 80/80/80
f 81/81/81 82/82/82 80/80/80
f 81/81/81 83/83/83 82/82/82
f 83/83/83 84/84/84 82/82/82
f 83/83/83 85/85/85 84/84/84
f 88/88/88 87/87/87 86/86/86
f 89/89/89 88/88/88 86/86/86
f 89/89/89 86/86/86 90/90/90
f 91/91/91 88/88/88 89/89/89
f 92/92/92 89/89/89 90/90/90
f 93/93/93 91/91/91 89/89/89
f 93/93/93 89/89/89 92/92/92
f 94/94/94 93/93/93 92/92/92
f 97/97/97 96/96/96 95/95/95
f 95/95/95 98/98/98 97/97/97
f 98/98/98 99/99/99 97/97/97
f 98/98/98 100/100/100 99/99/99
f 100/100/100 101/101/101 99/99/99
f 100/100/100 102/102/102 101/101/101
f 105/105/105 104/104/104 103/103/103
f 106/106/106 105/105/105 103/103/103
f 105/105/105 107/107/107 104/104/104
f 106/106/106 103/103/103 108/108/108
f 107/107/107 109/109/109 104/104/104
f 110/110/110 106/106/106 108/108/108
f 107/107/107 111/111/111 109/109/109
f 110/110/110 108/108/108 112/112/112
f 111/111/111 113/113/113 109/109/109
f 114/114/114 110/110/110 112/112/112
f 111/111/111 115/115/115 113/113/113
f 114/114/114 112/112/112 116/116/116
f 115/115/115 117/117/117 113/113/113
f 118/118/118 114/114/114 116/116/116
f 118/118/118 116/116/116 117/117/117
f 115/115/115 118/118/118 117/117/117
f 121/121/121 120/120/120 119/119/119
f 122/122/122 121/121/121 119/119/119
f 121/121/121 123/123/123 120/120/120
f 122/122/122 119/119/119 124/124/124
f 123/123/123 125/125/125 120/120/120
f 126/126/126 122/122/122 124/124/124
f 123/123/123 127/127/127 125/125/125
f 126/126/126 124/124/124 128/128/128
f 127/127/127 129/129/129 125/125/125
f 130/130/130 126/126/126 128/128/128
f 127/127/127 131/131/131 129/129/129
f 130/130/130 128/128/128 132/132/132
f 131/131/131 133/133/133 129/129/129
f 134/134/134 130/130/130 132/132/132
f 134/134/134 132/132/132 133/133/133
f 131/131/131 134/134/134 133/133/133
f 137/137/137 136/136/136 135/135/135
f 138/138/138 137/137/137 135/135/135
f 137/137/137 139/139/139 136/136/136
f 138/138/138 135/135/135 140/140/140
f 139/139/139 141/141/141 136/136/136
f 142/142/142 138/138/138 140/140/140
f 139/139/139 143/143/143 141/141/141
f 142/142/142 140/140/140 144/144/144
f 143/143/143 145/145/145 141/141/141
f 146/146/146 142/142/142 144/144/144
f 143/143/143 147/147/147 145/145/145
f 146/146/146 144/144/144 148/148/148
f 147/147/147 149/149/149 145/145/145
f 150/150/150 146/146/146 148/148/148
f 150/150/150 148/148/148 149/149/149
f 147/147/147 150/150/150 149/149/149
f 153/153/153 152/152/152 151/151/151
f 154/154/154 153/153/153 151/151/151
f 151/151/151 152/152/152 155/155/155
f 156/156/156 153/153/153 154/154/154
f 152/152/152 157/157/157 155/155/155
f 158/158/158 156/156/156 154/154/154
f 155/155/155 157/157/157 159/159/159
f 160/160/160 156/156/156 158/158/158
f 157/157/157 161/161/161 159/159/159
f 162/162/162 160/160/160 158/158/158
f 159/159/159 161/161/161 163/163/163
f 164/164/164 160/160/160 162/162/162
f 161/161/161 165/165/165 163/163/163
f 166/166/166 164/164/164 162/162/162
f 163/163/163 165/165/165 166/166/166
f 165/165/165 164/164/164 166/166/166
f 169/169/169 168/168/168 167/167/167
f 170/170/170 169/169/169 167/167/167
f 169/169/169 171/171/171 168/168/168
f 170/170/170 167/167/167 172/172/172
f 171/171/171 173/173/173 168/168/168
f 174/174/174 170/170/170 172/172/172
f 171/171/171 175/175/175 173/173/173
f 174/174/174 172/172/172 176/176/176
f 175/175/175 177/177/177 173/173/173
f 178/178/178 174/174/174 176/176/176
f 175/175/175 179/179/179 177/177/177
f 178/178/178 176/176/176 180/180/180
f 179/179/179 181/181/181 177/177/177
f 182/182/182 178/178/178 180/180/180
f 182/182/182 180/180/180 181/181/181
f 179/179/179 182/182/182 181/181/181
f 185/185/185 184/184/184 183/183/183
f 183/183/183 184/184/184 186/186/186
f 187/187/187 185/185/185 183/183/183
f 184/184/184 188/188/188 186/186/186
f 189/189/189 185/185/185 187/187/187
f 186/186/186 188/188/188 190/190/190
f 191/191/191 189/189/189 187/187/187
f 188/188/188 192/192/192 190/190/190
f 193/193/193 189/189/189 191/191/191
f 190/190/190 192/192/192 194/194/194
f 195/195/195 193/193/193 191/191/191
f 192/192/192 196/196/196 194/194/194
f 197/197/197 193/193/193 195/195/195
f 194/194/194 196/196/196 198/198/198
f 198/198/198 197/197/197 195/195/195
f 196/196/196 197/197/197 198/198/198
f 201/201/201 200/200/200 199/199/199
f 200/200/200 202/202/202 199/199/199
f 203/203/203 200/200/200 201/201/201
f 199/199/199 202/202/202 204/204/204
f 205/205/205 203/203/203 201/201/201
f 202/202/202 206/206/206 204/204/204
f 207/207/207 203/203/203 205/205/205
f 204/204/204 206/206/206 208/208/208
f 209/209/209 207/207/207 205/205/205
f 206/206/206 210/210/210 208/208/208
f 211/211/211 207/207/207 209/209/209
f 208/208/208 210/210/210 212/212/212
f 213/213/213 211/211/211 209/209/209
f 210/210/210 214/214/214 212/212/212
f 214/214/214 211/211/211 213/213/213
f 212/212/212 214/214/214 213/213/213
f 217/217/217 216/216/216 215/215/215
f 216/216/216 218/218/218 215/215/215
f 219/219/219 216/216/216 217/217/217
f 215/215/215 218/218/218 220/220/220
f 221/221/221 219/219/219 217/217/217
f 218/218/218 222/222/222 220/220/220
f 223/223/223 219/219/219 221/221/221
f 220/220/220 222/222/222 224/224/224
f 225/225/225 223/223/223 221/221/221
f 222/222/222 226/226/226 224/224/224
f 227/227/227 223/223/223 225/225/225
f 224/224/224 226/226/226 228/228/228
f 229/229/229 227/227/227 225/225/225
f 226/226/226 230/230/230 228/228/228
f 230/230/230 227/227/227 229/229/229
f 228/228/228 230/230/230 229/229/229
f 233/233/233 232/232/232 231/231/231
f 232/232/232 234/234/234 231/231/231
f 235/235/235 232/232/232 233/233/233
f 231/231/231 234/234/234 236/236/236
f 237/237/237 235/235/235 233/233/233
f 234/234/234 238/238/238 236/236/236
f 239/239/239 235/235/235 237/237/237
f 236/236/236 238/238/238 240/240/240
f 241/241/241 239/239/239 237/237/237
f 238/238/238 242/242/242 240/240/240
f 243/243/243 239/239/239 241/241/241
f 240/240/240 242/242/242 244/244/244
f 245/245/245 243/243/243 241/241/241
f 242/242/242 246/246/246 244/244/244
f 246/246/246 243/243/243 245/245/245
f 244/244/244 246/246/246 245/245/245
f 249/249/249 248/248/248 247/247/247
f 248/248/248 250/250/250 247/247/247
f 249/249/249 247/247/247 251/251/251
f 248/248/248 252/252/252 250/250/250
f 253/253/253 249/249/249 251/251/251
f 252/252/252 254/254/254 250/250/250
f 253/253/253 251/251/251 255/255/255
f 252/252/252 256/256/256 254/254/254
f 257/257/257 253/253/253 255/255/255
f 256/256/256 258/258/258 254/254/254
f 257/257/257 255/255/255 259/259/259
f 256/256/256 260/260/260 258/258/258
f 261/261/261 257/257/257 259/259/259
f 260/260/260 262/262/262 258/258/258
f 261/261/261 259/259/259 262/262/262
f 260/260/260 261/261/261 262/262/262
f 265/265/265 264/264/264 263/263/263
f 266/266/266 265/265/265 263/263/263
f 263/263/263 264/264/264 267/267/267
f 268/268/268 265/265/265 266/266/266
f 264/264/264 269/269/269 267/267/267
f 270/270/270 268/268/268 266/266/266
f 267/267/267 269/269/269 271/271/271
f 272/272/272 268/268/268 270/270/270
f 269/269/269 273/273/273 271/271/271
f 274/274/274 272/272/272 270/270/270
f 271/271/271 273/273/273 275/275/275
f 276/276/276 272/272/272 274/274/274
f 273/273/273 277/277/277 275/275/275
f 278/278/278 276/276/276 274/274/274
f 275/275/275 277/277/277 278/278/278
f 277/277/277 276/276/276 278/278/278
f 281/281/281 280/280/280 279/279/279
f 282/282/282 281/281/281 279/279/279
f 281/281/281 283/283/283 280/280/280
f 282/282/282 279/279/279 284/284/284
f 283/283/283 285/285/285 280/280/280
f 286/286/286 282/282/282 284/284/284
f 283/283/283 287/287/287 285/285/285
f 286/286/286 284/284/284 288/288/288
f 287/287/287 289/289/289 285/285/285
f 290/290/290 286/286/286 288/288/288
f 287/287/287 291/291/291 289/289/289
f 290/290/290 288/288/288 292/292/292
f 291/291/291 293/293/293 289/289/289
f 294/294/294 290/290/290 292/292/292
f 294/294/294 292/292/292 293/293/293
f 291/291/291 294/294/294 293/293/293
f 297/297/297 296/296/296 295/295/295
f 296/296/296 298/298/298 295/295/295
f 299/299/299 296/296/296 297/297/297
f 295/295/295 298/298/298 300/300/300
f 301/301/301 299/299/299 297/297/297
f 298/298/298 302/302/302 300/300/300
f 303/303/303 299/299/299 301/301/301
f 300/300/300 302/302/302 304/304/304
f 305/305/305 303/303/303 301/301/301
f 302/302/302 306/306/306 304/304/304
f 307/307/307 303/303/303 305/305/305
f 304/304/304 306/306/306 308/308/308
f 309/309/309 307/307/307 305/305/305
f 306/306/306 310/310/310 308/308/308
f 310/310/310 307/307/307 309/309/309
f 308/308/308 310/310/310 309/309/309
f 313/313/313 312/312/312 311/311/311
f 312/312/312 314/314/314 311/311/311
f 315/315/315 312/312/312 313/313/313
f 311/311/311 314/314/314 316/316/316
f 317/317/317 315/315/315 313/313/313
f 314/314/314 318/318/318 316/316/316
f 319/319/319 315/315/315 317/317/317
f 316/316/316 318/318/318 320/320/320
f 321/321/321 319/319/319 317/317/317
f 318/318/318 322/322/322 320/320/320
f 323/323/323 319/319/319 321/321/321
f 320/320/320 322/322/322 324/324/324
f 325/325/325 323/323/323 321/321/321
f 322/322/322 326/326/326 324/324/324
f 326/326/326 323/323/323 325/325/325
f 324/324/324 326/326/326 325/325/325
f 329/329/329 328/328/328 327/327/327
f 328/328/328 330/330/330 327/327/327
f 331/331/331 328/328/328 329/329/329
f 327/327/327 330/330/330 332/332/332
f 333/333/333 331/331/331 329/329/329
f 330/330/330 334/334/334 332/332/332
f 335/335/335 331/331/331 333/333/333
f 332/332/332 334/334/334 336/336/336
f 337/337/337 335/335/335 333/333/333
f 334/334/334 338/338/338 336/336/336
f 339/339/339 335/335/335 337/337/337
f 336/336/336 338/338/338 340/340/340
f 341/341/341 339/339/339 337/337/337
f 338/338/338 342/342/342 340/340/340
f 342/342/342 339/339/339 341/341/341
f 340/340/340 342/342/342 341/341/341
f 345/345/345 344/344/344 343/343/343
f 344/344/344 346/346/346 343/343/343
f 345/345/345 343/343/343 347/347/347
f 344/344/344 348/348/348 346/346/346
f 349/349/349 345/345/345 347/347/347
f 348/348/348 350/350/350 346/346/346
f 349/349/349 347/347/347 351/351/351
f 348/348/348 352/352/352 350/350/350
f 353/353/353 349/349/349 351/351/351
f 352/352/352 354/354/354 350/350/350
f 353/353/353 351/351/351 355/355/355
f 352/352/352 356/356/356 354/354/354
f 357/357/357 353/353/353 355/355/355
f 356/356/356 358/358/358 354/354/354
f 357/357/357 355/355/355 358/358/358
f 356/356/356 357/357/357 358/358/358
f 361/361/361 360/360/360 359/359/359
f 362/362/362 361/361/361 359/359/359
f 359/359/359 360/360/360 363/363/363
f 364/364/364 361/361/361 362/362/362
f 360/360/360 365/365/365 363/363/363
f 366/366/366 364/364/364 362/362/362
f 363/363/363 365/365/365 367/367/367
f 368/368/368 364/364/364 366/366/366
f 365/365/365 369/369/369 367/367/367
f 370/370/370 368/368/368 366/366/366
f 367/367/367 369/369/369 371/371/371
f 372/372/372 368/368/368 370/370/370
f 369/369/369 373/373/373 371/371/371
f 374/374/374 372/372/372 370/370/370
f 371/371/371 373/373/373 374/374/374
f 373/373/373 372/372/372 374/374/374
f 377/377/377 376/376/376 375/375/375
f 378/378/378 377/377/377 375/375/375
f 377/377/377 379/379/379 376/376/376
f 378/378/378 375/375/375 380/380/380
f 379/379/379 381/381/381 376/376/376
f 382/382/382 378/378/378 380/380/380
f 379/379/379 383/383/383 381/381/381
f 382/382/382 380/380/380 384/384/384
f 383/383/383 385/385/385 381/381/381
f 386/386/386 382/382/382 384/384/384
f 383/383/383 387/387/387 385/385/385
f 386/386/386 384/384/384 388/388/388
f 387/387/387 389/389/389 385/385/385
f 390/390/390 386/386/386 388/388/388
f 390/390/390 388/388/388 389/389/389
f 387/387/387 390/390/390 389/389/389
f 393/393/393 392/392/392 391/391/391
f 392/392/392 394/394/394 391/391/391
f 395/395/395 392/392/392 393/393/393
f 391/391/391 394/394/394 396/396/396
f 397/397/397 395/395/395 393/393/393
f 394/394/394 398/398/398 396/396/396
f 399/399/399 395/395/395 397/397/397
f 396/396/396 398/398/398 400/400/400
f 401/401/401 399/399/399 397/397/397
f 398/398/398 402/402/402 400/400/400
f 403/403/403 399/399/399 401/401/401
f 400/400/400 402/402/402 404/404/404
f 405/405/405 403/403/403 401/401/401
f 402/402/402 406/406/406 404/404/404
f 406/406/406 403/403/403 405/405/405
f 404/404/404 406/406/406 405/405/405
f 409/409/409 408/408/408 407/407/407
f 408/408/408 410/410/410 407/407/407
f 411/411/411 408/408/408 409/409/409
f 407/407/407 410/410/410 412/412/412
f 413/413/413 411/411/411 409/409/409
f 410/410/410 414/414/414 412/412/412
f 415/415/415 411/411/411 413/413/413
f 412/412/412 414/414/414 416/416/416
f 417/417/417 415/415/415 413/413/413
f 414/414/414 418/418/418 416/416/416
f 419/419/419 415/415/415 417/417/417
f 416/416/416 418/418/418 420/420/420
f 421/421/421 419/419/419 417/417/417
f 418/418/418 422/422/422 420/420/420
f 422/422/422 419/419/419 421/421/421
f 420/420/420 422/422/422 421/421/421
f 425/425/425 424/424/424 423/423/423
f 424/424/424 426/426/426 423/423/423
f 427/427/427 424/424/424 425/425/425
f 423/423/423 426/426/426 428/428/428
f 429/429/429 427/427/427 425/425/425
f 426/426/426 430/430/430 428/428/428
f 431/431/431 427/427/427 429/429/429
f 428/428/428 430/430/430 432/432/432
f 433/433/433 431/431/431 429/429/429
f 430/430/430 434/434/434 432/432/432
f 435/435/435 431/431/431 433/433/433
f 432/432/432 434/434/434 436/436/436
f 437/437/437 435/435/435 433/433/433
f 434/434/434 438/438/438 436/436/436
f 438/438/438 435/435/435 437/437/437
f 436/436/436 438/438/438 437/437/437
f 441/441/441 440/440/440 439/439/439
f 440/440/440 442/442/442 439/439/439
f 441/441/441 439/439/439 443/443/443
f 440/440/440 444/444/444 442/442/442
f 445/445/445 441/441/441 443/443/443
f 444/444/444 446/446/446 442/442/442
f 445/445/445 443/443/443 447/447/447
f 444/444/444 448/448/448 446/446/446
f 449/449/449 445/445/445 447/447/447
f 448/448/448 450/450/450 446/446/446
f 449/449/449 447/447/447 451/451/451
f 448/448/448 452/452/452 450/450/450
f 453/453/453 449/449/449 451/451/451
f 452/452/452 454/454/454 450/450/450
f 453/453/453 451/451/451 454/454/454
f 452/452/452 453/453/453 454/454/454
f 457/457/457 456/456/456 455/455/455
f 458/458/458 457/457/457 455/455/455
f 455/455/455 456/456/456 459/459/459
f 460/460/460 457/457/457 458/458/458
f 456/456/456 461/461/461 459/459/459
f 462/462/462 460/460/460 458/458/458
f 459/459/459 461/461/461 463/463/463
f 464/464/464 460/460/460 462/462/462
f 461/461/461 465/465/465 463/463/463
f 466/466/466 464/464/464 462/462/462
f 463/463/463 465/465/465 467/467/467
f 468/468/468 464/464/464 466/466/466
f 465/465/465 469/469/469 467/467/467
f 470/470/470 468/468/468 466/466/466
f 467/467/467 469/469/469 470/470/470
f 469/469/469 468/468/468 470/470/470
f 473/473/473 472/472/472 471/471/471
f 474/474/474 473/473/473 471/471/471
f 473/473/473 475/475/475 472/472/472
f 474/474/474 471/471/471 476/476/476
f 475/475/475 477/477/477 472/472/472
f 478/478/478 474/474/474 476/476/476
f 475/475/475 479/479/479 477/477/477
f 478/478/478 476/476/476 480/480/480
f 479/479/479 481/481/481 477/477/477
f 482/482/482 478/478/478 480/480/480
f 479/479/479 483/483/483 481/481/481
f 482/482/482 480/480/480 484/484/484
f 483/483/483 485/485/485 481/481/481
f 486/486/486 482/482/482 484/484/484
f 486/486/486 484/484/484 485/485/485
f 483/483/483 486/486/486 485/485/485
f 489/489/489 488/488/488 487/487/487
f 490/490/490 489/489/489 487/487/487
f 489/489/489 491/491/491 488/488/488
f 490/490/490 487/487/487 492/492/492
f 491/491/491 493/493/493 488/488/488
f 494/494/494 490/490/490 492/492/492
f 491/491/491 495/495/495 493/493/493
f 494/494/494 492/492/492 496/496/496
f 495/495/495 497/497/497 493/493/493
f 498/498/498 494/494/494 496/496/496
f 495/495/495 499/499/499 497/497/497
f 498/498/498 496/496/496 500/500/500
f 499/499/499 501/501/501 497/497/497
f 502/502/502 498/498/498 500/500/500
f 502/502/502 500/500/500 501/501/501
f 499/499/499 502/502/502 501/501/501
f 505/505/505 504/504/504 503/503/503
f 506/506/506 505/505/505 503/503/503
f 505/505/505 507/507/507 504/504/504
f 506/506/506 503/503/503 508/508/508
f 507/507/507 509/509/509 504/504/504
f 510/510/510 506/506/506 508/508/508
f 507/507/507 511/511/511 509/509/509
f 510/510/510 508/508/508 512/512/512
f 511/511/511 513/513/513 509/509/509
f 514/514/514 510/510/510 512/512/512
f 511/511/511 515/515/515 513/513/513
f 514/514/514 512/512/512 516/516/516
f 515/515/515 517/517/517 513/513/513
f 518/518/518 514/514/514 516/516/516
f 518/518/518 516/516/516 517/517/517
f 515/515/515 518/518/518 517/517/517
f 521/521/521 520/520/520 519/519/519
f 522/522/522 521/521/521 519/519/519
f 521/521/521 523/523/523 520/520/520
f 522/522/522 519/519/519 524/524/524
f 523/523/523 525/525/525 520/520/520
f 526/526/526 522/522/522 524/524/524
f 523/523/523 527/527/527 525/525/525
f 526/526/526 524/524/524 528/528/528
f 527/527/527 529/529/529 525/525/525
f 530/530/530 526/526/526 528/528/528
f 527/527/527 531/531/531 529/529/529
f 530/530/530 528/528/528 532/532/532
f 531/531/531 533/533/533 529/529/529
f 534/534/534 530/530/530 532/532/532
f 534/534/534 532/532/532 533/533/533
f 531/531/531 534/534/534 533/533/533
f 537/537/537 536/536/536 535/535/535
f 538/538/538 537/537/537 535/535/535
f 535/535/535 536/536/536 539/539/539
f 540/540/540 537/537/537 538/538/538
f 536/536/536 541/541/541 539/539/539
f 542/542/542 540/540/540 538/538/538
f 539/539/539 541/541/541 543/543/543
f 544/544/544 540/540/540 542/542/542
f 541/541/541 545/545/545 543/543/543
f 546/546/546 544/544/544 542/542/542
f 543/543/543 545/545/545 547/547/547
f 548/548/548 544/544/544 546/546/546
f 545/545/545 549/549/549 547/547/547
f 550/550/550 548/548/548 546/546/546
f 547/547/547 549/549/549 550/550/550
f 549/549/549 548/548/548 550/550/550
f 553/553/553 552/552/552 551/551/551
f 554/554/554 553/553/553 551/551/551
f 553/553/553 555/555/555 552/552/552
f 554/554/554 551/551/551 556/556/556
f 555/555/555 557/557/557 552/552/552
f 558/558/558 554/554/554 556/556/556
f 555/555/555 559/559/559 557/557/557
f 558/558/558 556/556/556 560/560/560
f 559/559/559 561/561/561 557/557/557
f 562/562/562 558/558/558 560/560/560
f 559/559/559 563/563/563 561/561/561
f 562/562/562 560/560/560 564/564/564
f 563/563/563 565/565/565 561/561/561
f 566/566/566 562/562/562 564/564/564
f 566/566/566 564/564/564 565/565/565
f 563/563/563 566/566/566 565/565/565
f 569/569/569 568/568/568 567/567/567
f 567/567/567 568/568/568 570/570/570
f 571/571/571 569/569/569 567/567/567
f 568/568/568 572/572/572 570/570/570
f 573/573/573 569/569/569 571/571/571
f 570/570/570 572/572/572 574/574/574
f 575/575/575 573/573/573 571/571/571
f 572/572/572 576/576/576 574/574/574
f 577/577/577 573/573/573 575/575/575
f 574/574/574 576/576/576 578/578/578
f 579/579/579 577/577/577 575/575/575
f 576/576/576 580/580/580 578/578/578
f 581/581/581 577/577/577 579/579/579
f 578/578/578 580/580/580 582/582/582
f 582/582/582 581/581/581 579/579/579
f 580/580/580 581/581/581 582/582/582
f 585/585/585 584/584/584 583/583/583
f 586/586/586 585/585/585 583/583/583
f 585/585/585 587/587/587 584/584/584
f 586/586/586 583/583/583 588/588/588
f 587/587/587 589/589/589 584/584/584
f 590/590/590 586/586/586 588/588/588
f 587/587/587 591/591/591 589/589/589
f 590/590/590 588/588/588 592/592/592
f 591/591/591 593/593/593 589/589/589
f 594/594/594 590/590/590 592/592/592
f 591/591/591 595/595/595 593/593/593
f 594/594/594 592/592/592 596/596/596
f 595/595/595 597/597/597 593/593/593
f 598/598/598 594/594/594 596/596/596
f 598/598/598 596/596/596 597/597/597
f 595/595/595 598/598/598 597/597/597
f 601/601/601 600/600/600 599/599/599
f 602/602/602 601/601/601 599/599/599
f 601/601/601 603/603/603 600/600/600
f 602/602/602 599/599/599 604/604/604
f 603/603/603 605/605/605 600/600/600
f 606/606/606 602/602/602 604/604/604
f 603/603/603 607/607/607 605/605/605
f 606/606/606 604/604/604 608/608/608
f 607/607/607 609/609/609 605/605/605
f 610/610/610 606/606/606 608/608/608
f 607/607/607 611/611/611 609/609/609
f 610/610/610 608/608/608 612/612/612
f 611/611/611 613/613/613 609/609/609
f 614/614/614 610/610/610 612/612/612
f 614/614/614 612/612/612 613/613/613
f 611/611/611 614/614/614 613/613/613
f 617/617/617 616/616/616 615/615/615
f 618/618/618 617/617/617 615/615/615
f 617/617/617 619/619/619 616/616/616
f 618/618/618 615/615/615 620/620/620
f 619/619/619 621/621/621 616/616/616
f 622/622/622 618/618/618 620/620/620
f 619/619/619 623/623/623 621/621/621
f 622/622/622 620/620/620 624/624/624
f 623/623/623 625/625/625 621/621/621
f 626/626/626 622/622/622 624/624/624
f 623/623/623 627/627/627 625/625/625
f 626/626/626 624/624/624 628/628/628
f 627/627/627 629/629/629 625/625/625
f 630/630/630 626/626/626 628/628/628
f 630/630/630 628/628/628 629/629/629
f 627/627/627 630/630/630 629/629/629
f 633/633/633 632/632/632 631/631/631
f 634/634/634 633/633/633 631/631/631
f 631/631/631 632/632/632 635/635/635
f 636/636/636 633/633/633 634/634/634
f 632/632/632 637/637/637 635/635/635
f 638/638/638 636/636/636 634/634/634
f 635/635/635 637/637/637 639/639/639
f 640/640/640 636/636/636 638/638/638
f 637/637/637 641/641/641 639/639/639
f 642/642/642 640/640/640 638/638/638
f 639/639/639 641/641/641 643/643/643
f 644/644/644 640/640/640 642/642/642
f 641/641/641 645/645/645 643/643/643
f 646/646/646 644/644/644 642/642/642
f 643/643/643 645/645/645 646/646/646
f 645/645/645 644/644/644 646/646/646
f 649/649/649 648/648/648 647/647/647
f 650/650/650 649/649/649 647/647/647
f 649/649/649 651/651/651 648/648/648
f 650/650/650 647/647/647 652/652/652
f 651/651/651 653/653/653 648/648/648
f 654/654/654 650/650/650 652/652/652
f 651/651/651 655/655/655 653/653/653
f 654/654/654 652/652/652 656/656/656
f 655/655/655 657/657/657 653/653/653
f 658/658/658 654/654/654 656/656/656
f 655/655/655 659/659/659 657/657/657
f 658/658/658 656/656/656 660/660/660
f 659/659/659 661/661/661 657/657/657
f 662/662/662 658/658/658 660/660/660
f 662/662/662 660/660/660 661/661/661
f 659/659/659 662/662/662 661/661/661
f 665/665/665 664/664/664 663/663/663
f 663/663/663 664/664/664 666/666/666
f 667/667/667 665/665/665 663/663/663
f 664/664/664 668/668/668 666/666/666
f 669/669/669 665/665/665 667/667/667
f 666/666/666 668/668/668 670/670/670
f 671/671/671 669/669/669 667/667/667
f 668/668/668 672/672/672 670/670/670
f 673/673/673 669/669/669 671/671/671
f 670/670/670 672/672/672 674/674/674
f 675/675/675 673/673/673 671/671/671
f 672/672/672 676/676/676 674/674/674
f 677/677/677 673/673/673 675/675/675
f 674/674/674 676/676/676 678/678/678
f 678/678/678 677/677/677 675/675/675
f 676/676/676 677/677/677 678/678/678
