g VillageSHope_GLow
v 1.183044 2.769521 3.061315
v 1.009364 2.769521 2.784255
v 1.009364 3.828426 2.784255
v 1.183044 3.828426 3.061315
v 1.509826 2.769521 3.049433
v 1.509826 3.828426 3.049433
v 1.662927 2.769521 2.760492
v 1.662927 3.828426 2.760492
v 1.489246 2.769521 2.483431
v 1.489246 3.828426 2.483431
v 1.162465 2.769521 2.495313
v 1.162465 3.828426 2.495313
v 1.009364 2.769521 2.784255
v 1.009364 3.828426 2.784255
v 1.162465 3.828426 2.495313
v 1.489246 3.828426 2.483431
v 1.662927 3.828426 2.760492
v 1.009364 3.828426 2.784255
v 1.509826 3.828426 3.049433
v 1.183044 3.828426 3.061315
v 1.662927 2.769521 2.760492
v 1.489246 2.769521 2.483431
v 1.162465 2.769521 2.495313
v 1.009364 2.769521 2.784255
v 1.509826 2.769521 3.049433
v 1.183044 2.769521 3.061315
v 3.505627 2.546178 1.247877
v 3.339302 2.546178 0.9825505
v 3.339302 3.664181 0.9825504
v 3.505627 3.664181 1.247877
v 3.81857 2.546178 1.236499
v 3.81857 3.664181 1.236499
v 3.965187 2.546178 0.9597932
v 3.965187 3.664181 0.9597932
v 3.798862 2.546178 0.6944662
v 3.798862 3.664181 0.6944662
v 3.485919 2.546178 0.7058445
v 3.485919 3.664181 0.7058445
v 3.339302 2.546178 0.9825505
v 3.339302 3.664181 0.9825504
v 3.485919 3.664181 0.7058445
v 3.798862 3.664181 0.6944662
v 3.965187 3.664181 0.9597932
v 3.339302 3.664181 0.9825504
v 3.81857 3.664181 1.236499
v 3.505627 3.664181 1.247877
v 3.965187 2.546178 0.9597932
v 3.798862 2.546178 0.6944662
v 3.485919 2.546178 0.7058445
v 3.339302 2.546178 0.9825505
v 3.81857 2.546178 1.236499
v 3.505627 2.546178 1.247877
vt 0.09118652 0.6967773
vt 0.09118652 0.7954102
vt 0.8823242 0.7954102
vt 0.8823242 0.6967773
vt 0.09118652 0.5986328
vt 0.8823242 0.5986328
vt 0.09118652 0.5
vt 0.8823242 0.5
vt 0.09118652 0.4016113
vt 0.8823242 0.4016113
vt 0.09118652 0.3029785
vt 0.8823242 0.3029785
vt 0.09118652 0.2044678
vt 0.8823242 0.2044678
vt 0.1259766 0.890625
vt 0.4873047 0.890625
vt 0.8486328 0.890625
vt 0.1259766 0.890625
vt 0.8486328 0.890625
vt 0.4873047 0.890625
vt 0.8486328 0.1164551
vt 0.4873047 0.1164551
vt 0.1259766 0.1164551
vt 0.1259766 0.1164551
vt 0.8486328 0.1164551
vt 0.4873047 0.1164551
vt 0.09118652 0.6967773
vt 0.09118652 0.7954102
vt 0.8823242 0.7954102
vt 0.8823242 0.6967773
vt 0.09118652 0.5986328
vt 0.8823242 0.5986328
vt 0.09118652 0.5
vt 0.8823242 0.5
vt 0.09118652 0.4016113
vt 0.8823242 0.4016113
vt 0.09118652 0.3029785
vt 0.8823242 0.3029785
vt 0.09118652 0.2044678
vt 0.8823242 0.2044678
vt 0.1259766 0.890625
vt 0.4873047 0.890625
vt 0.8486328 0.890625
vt 0.1259766 0.890625
vt 0.8486328 0.890625
vt 0.4873047 0.890625
vt 0.8486328 0.1164551
vt 0.4873047 0.1164551
vt 0.1259766 0.1164551
vt 0.1259766 0.1164551
vt 0.8486328 0.1164551
vt 0.4873047 0.1164551
vn -0.4682617 0 0.8837891
vn -0.9995117 0 0.03634644
vn -0.9995117 0 0.03634644
vn -0.4682617 0 0.8837891
vn 0.53125 0 0.847168
vn 0.53125 0 0.847168
vn 0.9995117 0 -0.03634644
vn 0.9995117 0 -0.03634644
vn 0.4682617 0 -0.8837891
vn 0.4682617 0 -0.8837891
vn -0.53125 0 -0.847168
vn -0.53125 0 -0.847168
vn -0.9995117 0 0.03634644
vn -0.9995117 0 0.03634644
vn 0 1 0
vn 0 1 0
vn 0 1 0
vn 0 1 0
vn 0 1 0
vn 0 1 0
vn 0 -1 0
vn 0 -1 0
vn 0 -1 0
vn 0 -1 0
vn 0 -1 0
vn 0 -1 0
vn -0.4682617 0 0.8837891
vn -0.9995117 0 0.03634644
vn -0.9995117 0 0.03634644
vn -0.4682617 0 0.8837891
vn 0.53125 0 0.847168
vn 0.53125 0 0.847168
vn 0.9995117 0 -0.03634644
vn 0.9995117 0 -0.03634644
vn 0.4682617 0 -0.8837891
vn 0.4682617 0 -0.8837891
vn -0.53125 0 -0.847168
vn -0.53125 0 -0.847168
vn -0.9995117 0 0.03634644
vn -0.9995117 0 0.03634644
vn 0 1 0
vn 0 1 0
vn 0 1 0
vn 0 1 0
vn 0 1 0
vn 0 1 0
vn 0 -1 0
vn 0 -1 0
vn 0 -1 0
vn 0 -1 0
vn 0 -1 0
vn 0 -1 0
g VillageSHope_GLow_0
f 3/3/3 2/2/2 1/1/1
f 4/4/4 3/3/3 1/1/1
f 4/4/4 1/1/1 5/5/5
f 6/6/6 4/4/4 5/5/5
f 6/6/6 5/5/5 7/7/7
f 8/8/8 6/6/6 7/7/7
f 8/8/8 7/7/7 9/9/9
f 10/10/10 8/8/8 9/9/9
f 10/10/10 9/9/9 11/11/11
f 12/12/12 10/10/10 11/11/11
f 12/12/12 11/11/11 13/13/13
f 14/14/14 12/12/12 13/13/13
f 17/17/17 16/16/16 15/15/15
f 15/15/15 18/18/18 17/17/17
f 18/18/18 19/19/19 17/17/17
f 18/18/18 20/20/20 19/19/19
f 23/23/23 22/22/22 21/21/21
f 21/21/21 24/24/24 23/23/23
f 21/21/21 25/25/25 24/24/24
f 25/25/25 26/26/26 24/24/24
f 29/29/29 28/28/28 27/27/27
f 30/30/30 29/29/29 27/27/27
f 30/30/30 27/27/27 31/31/31
f 32/32/32 30/30/30 31/31/31
f 32/32/32 31/31/31 33/33/33
f 34/34/34 32/32/32 33/33/33
f 34/34/34 33/33/33 35/35/35
f 36/36/36 34/34/34 35/35/35
f 36/36/36 35/35/35 37/37/37
f 38/38/38 36/36/36 37/37/37
f 38/38/38 37/37/37 39/39/39
f 40/40/40 38/38/38 39/39/39
f 43/43/43 42/42/42 41/41/41
f 41/41/41 44/44/44 43/43/43
f 44/44/44 45/45/45 43/43/43
f 44/44/44 46/46/46 45/45/45
f 49/49/49 48/48/48 47/47/47
f 47/47/47 50/50/50 49/49/49
f 47/47/47 51/51/51 50/50/50
f 51/51/51 52/52/52 50/50/50
