g Water
v 1.800814 2.602619 -2.13181
v 2.133872 2.602618 -1.119953
v 2.043725 2.602618 -0.003115767
v 1.391425 2.602717 -1.078626
v 1.265982 2.602619 -3.160435
v 1.917902 2.602897 0.9864025
v 0.619141 2.602718 -2.154554
v 0.3275911 2.602619 -4.222594
v 0.9796289 2.602862 -0.1020703
v 1.720724 2.603733 1.721284
v -0.3931122 2.602718 -3.231317
v -0.9739932 2.602619 -5.336905
v 0.563019 2.603296 0.7212248
v 1.510159 2.605459 2.348433
v -0.00587083 2.60276 -1.188324
v -1.634609 2.602718 -4.347456
v -1.085824 2.602723 -2.270145
v -0.5872253 2.60289 -0.3014063
v 0.006050529 2.603988 1.439338
v -3.094619 2.602718 -5.541502
v -2.59841 2.602619 -6.522017
v -4.541047 2.602565 -6.675528
v -4.180202 2.602489 -7.575504
v -5.741773 2.602105 -7.611575
v -5.353906 2.602096 -8.294972
v -6.574989 2.595323 -8.269224
v -6.101266 2.595363 -8.743279
v -2.277192 2.602719 -3.389544
v -1.722551 2.60274 -1.36918
v -3.596929 2.602718 -4.588545
v -4.921873 2.602551 -5.790249
v -6.128848 2.602051 -6.917757
v -7.018812 2.595245 -7.761222
v -1.196372 2.603124 0.5172346
v -4.111449 2.602718 -3.690695
v -5.342675 2.602556 -4.934369
v -6.514322 2.602069 -6.203052
v -2.883706 2.602723 -2.494731
v -7.402841 2.595286 -7.185317
v -2.345 2.602789 -0.5052733
v -0.8268214 2.604906 2.10035
v -1.904762 2.603484 1.27863
v 0.05131654 2.607294 2.820486
v 0.5420256 2.610779 3.449642
v 1.344176 2.608406 3.014754
v 0.9740626 2.614013 3.967425
v 1.43296 2.611285 3.617293
v 1.676184 2.615647 4.35347
v 1.986691 2.612802 4.053097
v 2.565396 2.615698 4.618784
v 2.837712 2.612957 4.338179
v 3.558723 2.614184 4.774399
v 3.818374 2.611751 4.488562
v 4.64126 2.611324 4.82803
v 4.927868 2.609432 4.49321
v 5.798131 2.607338 4.787392
v 6.165386 2.606246 4.341107
v 6.992171 2.602691 4.69962
v 7.466917 2.602626 4.11062
v 6.626749 2.602773 5.199191
v 5.480155 2.608699 5.196341
v 6.479981 2.602888 5.519899
v 4.35533 2.613767 5.168005
v 5.260743 2.610791 5.530618
v 6.386302 2.603391 5.759672
v 3.274021 2.61732 5.088697
v 4.070746 2.61751 5.518298
v 5.038226 2.614184 5.846407
v 6.180163 2.60464 6.016436
v 2.257535 2.619212 4.938862
v 2.939224 2.62206 5.459901
v 3.737899 2.623227 5.901535
v 4.710927 2.619447 6.199896
v 5.779506 2.614628 6.399995
v 1.327176 2.6193 4.698958
v 1.878564 2.624469 5.337881
v 2.533083 2.628968 5.893435
v 3.30717 2.631591 6.340326
v 4.21988 2.631677 6.658873
v 5.102304 2.641349 7.020138
v 0.501053 2.617429 4.362355
v 0.9011694 2.624766 5.134688
v 1.420971 2.631994 5.813596
v 2.034355 2.638605 6.394706
v 2.739526 2.645134 6.868065
v 3.506102 2.655967 7.291131
v 4.559712 2.68574 7.747566
v -0.2027311 2.61345 3.922421
v -0.000179454 2.622423 4.846883
v 0.3987594 2.632896 5.653507
v 0.8772315 2.642314 6.363767
v 1.417728 2.651608 6.977884
v 1.995948 2.666386 7.51813
v 2.735516 2.695061 8.034314
v 4.562879 2.748737 8.452991
v 2.074062 2.751703 8.826065
v 4.80836 2.795154 9.016376
v 1.074748 2.698428 8.275388
v 0.6578963 2.668609 7.657136
v 0.2338955 2.653925 6.99159
v -0.1794575 2.644541 6.248242
v 1.638723 2.793153 9.489337
v 4.992728 2.789805 9.317702
v -0.02575409 2.744339 9.124672
v -0.2591885 2.690085 8.425097
v -0.5224829 2.665325 7.700271
v 1.5465 2.786669 9.847152
v 5.125772 2.740282 9.469498
v -0.9149969 2.77646 9.853212
v -1.347573 2.716515 9.274365
v 1.613884 2.737732 10.02789
v 5.217302 2.654177 9.584288
v -1.20242 2.767126 10.24824
v 1.65737 2.651822 10.15999
v 5.269022 2.519986 9.660128
v -0.8325591 2.654914 6.912441
v -1.357389 2.675811 8.47471
v -2.236881 2.73058 9.998916
v -1.193108 2.718482 10.44821
v 1.678653 2.517632 10.24358
v 5.282635 2.326207 9.695103
v -1.55962 2.659227 7.639658
v -2.236317 2.684679 9.29978
v -2.556723 2.714969 10.39264
v -1.192143 2.63267 10.59154
v 1.67943 2.323852 10.27883
v 5.277437 2.112779 9.708982
v -2.310961 2.661381 8.415493
v -2.930207 2.683203 9.989696
v -2.5903 2.666032 10.59236
v -1.197507 2.49967 10.67976
v -3.036898 2.665284 9.225512
v -3.210019 2.66266 10.35864
v -2.62081 2.580122 10.73483
v -3.598269 2.662018 9.888818
v -3.275826 2.614004 10.5415
v -3.855913 2.642666 10.22448
v -1.207182 2.30946 10.71436
v -2.645242 2.450692 10.82141
v -3.327714 2.528187 10.6732
v -3.947803 2.596021 10.37678
v 1.670383 2.110425 10.28941
v 1.662195 1.917291 10.299
v 5.272742 1.919645 9.721548
v 1.654438 1.734303 10.30808
v 5.268291 1.736658 9.733442
v -1.238379 1.732463 10.73493
v -1.228697 1.911555 10.72855
v -2.689116 1.73185 10.86623
v -1.218476 2.100577 10.72181
v -2.680266 1.899254 10.86228
v -3.404613 1.73185 10.78921
v -2.660598 2.271192 10.85349
v -2.670924 2.075941 10.8581
v -3.397417 1.887566 10.78697
v -4.091677 1.73185 10.59109
v -3.363607 2.402326 10.75344
v -3.381435 2.233537 10.782
v -4.085038 1.88367 10.58943
v -4.733033 1.73185 10.27783
v -3.389826 2.051917 10.78462
v -4.011926 2.510875 10.49002
v -4.726174 1.881979 10.27536
v -5.311384 1.73185 9.855403
v -4.051636 2.386205 10.56079
v -4.070282 2.220985 10.58574
v -4.078026 2.04391 10.58768
v -5.303868 1.876902 9.850541
v -5.863446 1.73185 9.32175
v -4.718935 2.040431 10.27277
v -4.710934 2.215534 10.2699
v -4.692092 2.379203 10.2478
v -4.652327 2.503356 10.18747
v -5.85761 1.872766 9.316353
v -6.425921 1.73185 8.674866
v -6.426863 1.873892 8.67427
v -5.295945 2.029998 9.845405
v -5.851456 2.021494 9.310658
v -6.427866 2.023809 8.673647
v -6.428971 2.189479 8.672949
v -5.287186 2.199179 9.839739
v -5.844655 2.185851 9.304364
v -5.267744 2.358196 9.818769
v -5.825328 2.340972 9.284389
v -6.411564 2.345316 8.655377
v -5.227792 2.480799 9.767736
v -5.781599 2.461995 9.237651
v -7.00375 2.355672 7.97248
v -7.019126 2.197965 7.987566
v -6.357028 2.465733 8.604121
v -6.938265 2.475267 7.914941
v -7.579189 2.356486 7.276485
v -7.594125 2.199207 7.290307
v -7.509483 2.473854 7.217965
v -8.288872 2.352993 6.397313
v -8.304183 2.197062 6.410357
v -8.218144 2.467943 6.340997
v -9.283751 2.350427 5.164864
v -9.299484 2.195384 5.176871
v -9.211699 2.463986 5.111784
v -10.22479 2.348781 3.948621
v -10.24114 2.194255 3.959186
v -10.15032 2.461643 3.900935
v -10.7729 2.348047 3.118037
v -10.79024 2.193758 3.126621
v -10.69423 2.460576 3.079035
v -11.06487 2.347814 2.459636
v -11.0832 2.19361 2.465695
v -10.98182 2.4602 2.432178
v -11.23745 2.34767 1.759953
v -11.25642 2.193529 1.762933
v -11.15148 2.459931 1.746461
v -11.28716 2.347608 1.041015
v -11.30635 2.1935 1.040861
v -11.20005 2.459795 1.041743
v -11.21055 2.34762 0.3248656
v -11.22949 2.193507 0.3220146
v -11.1243 2.459813 0.3378859
v -10.94243 2.348528 -0.6343065
v -10.96007 2.194136 -0.6415449
v -10.85817 2.461077 -0.6110904
v -10.41767 2.351152 -2.082313
v -10.43234 2.195972 -2.09776
v -10.33556 2.464678 -2.051168
v -9.7652 2.352894 -3.773198
v -9.777834 2.197191 -3.794096
v -9.684901 2.467062 -3.736872
v -9.114017 2.351152 -5.461016
v -9.128082 2.195972 -5.478025
v -9.034656 2.464678 -5.422736
v -8.531958 2.348526 -6.881583
v -8.548095 2.194135 -6.89272
v -8.454535 2.461076 -6.840637
v -8.086912 2.347612 -7.770706
v -8.102861 2.193501 -7.781314
v -8.014277 2.459808 -7.722419
v -7.657914 2.338929 -8.343757
v -7.672552 2.185704 -8.357509
v -7.595279 2.454376 -8.288902
v -7.124025 2.312991 -8.816104
v -7.137344 2.162381 -8.83497
v -7.078969 2.438284 -8.760852
v -8.338539 2.535901 -6.780248
v -7.9064 2.534533 -7.650696
v -7.501328 2.533102 -8.206676
v -7.008486 2.529081 -8.675921
v -8.912603 2.539736 -5.367575
v -9.559315 2.542269 -3.685441
v -10.20942 2.539737 -2.006592
v -10.73199 2.535904 -0.577028
v -10.9962 2.534536 0.3572409
v -11.07059 2.534509 1.04286
v -11.02377 2.534697 1.726475
v -10.85872 2.534716 2.391
v -10.57839 2.534182 3.019363
v -10.04205 2.534634 3.826346
v -9.108901 2.53761 5.026743
v -8.118509 2.541752 6.24769
v -7.410424 2.545702 7.116308
v -6.842933 2.546761 7.812425
v -6.274287 2.542233 8.515886
v -5.710868 2.54426 9.162747
v -5.159037 2.564986 9.689067
v -4.583219 2.587783 10.09403
v -4.476339 2.632268 9.972534
v -5.053223 2.608752 9.585181
v -5.610537 2.583106 9.058218
v -6.172261 2.566318 8.387403
v -6.738016 2.560164 7.662444
v -4.236558 2.648755 9.671958
v -4.840558 2.625148 9.31479
v -5.425919 2.596748 8.805893
v -6.008279 2.569108 8.133822
v -3.768746 2.649181 9.041236
v -5.102331 2.603403 8.28761
v -4.451289 2.627222 8.736593
v -6.587265 2.554842 7.408005
v -3.156371 2.644982 8.25271
v -5.739695 2.58172 7.670291
v -4.658452 2.606384 7.604163
v -3.930084 2.624796 7.991632
v -2.482883 2.647589 7.478739
v -3.321636 2.627689 7.220955
v -4.112975 2.609006 6.856349
v -5.367829 2.595306 7.062209
v -1.796937 2.648922 6.736747
v -2.674541 2.630296 6.460821
v -3.510397 2.610967 6.095698
v -1.147183 2.640902 6.044132
v -2.037418 2.62701 5.747453
v -0.5446023 2.629933 5.410861
v -1.420163 2.621369 5.083354
v -0.8326989 2.616914 4.471004
v -2.895201 2.611964 5.373731
v -4.894008 2.601019 6.37495
v -2.271532 2.611918 4.682363
v -0.9047236 2.60902 3.386446
v -1.643523 2.610749 4.013502
v -1.725475 2.605805 2.761704
v -4.349498 2.602869 5.652409
v -2.479789 2.606438 3.480852
v -2.65107 2.603788 2.040397
v -3.765568 2.604867 4.938492
v -3.142305 2.606295 4.21928
v -2.994884 2.602893 0.3447309
v -3.373985 2.603857 2.860151
v -3.480635 2.602736 -1.610341
v -3.667608 2.602957 1.214705
v -4.644061 2.602718 -2.780122
v -4.094435 2.602762 -0.6836924
v -5.807745 2.60257 -4.013555
v -5.200668 2.602718 -1.788989
v -6.321353 2.602584 -2.93345
v -6.944142 2.602125 -5.309562
v -7.464233 2.602185 -4.079379
v -7.821147 2.595577 -6.323529
v -8.367783 2.59625 -4.957842
v -4.729043 2.602777 0.2902425
v -5.789339 2.602718 -0.7273819
v -6.884365 2.602592 -1.744792
v -8.049976 2.602216 -2.668605
v -8.990646 2.596683 -3.344776
v -4.358596 2.602885 2.138523
v -4.048724 2.603404 3.674653
v -4.650525 2.602142 4.420661
v -5.007022 2.602149 3.02905
v -5.388391 2.602759 1.316494
v -5.182604 2.600308 5.124863
v -5.552068 2.600218 3.79915
v -5.6482 2.598139 5.813967
v -6.418149 2.602717 0.3946028
v -5.998169 2.601727 2.285473
v -6.000488 2.597593 4.506959
v -6.040927 2.589977 6.449279
v -7.00316 2.601339 1.446934
v -7.497653 2.602584 -0.4983029
v -6.484081 2.598702 3.087583
v -6.359033 2.594777 5.210596
v -6.354428 2.570162 6.992123
v -6.660464 2.588806 5.848879
v -6.857219 2.594835 3.804618
v -7.460425 2.597204 2.299583
v -6.93756 2.576718 6.360566
v -7.1287 2.591279 4.518374
v -7.80687 2.592144 3.023784
v -7.16249 2.56657 6.737885
v -7.364655 2.588507 5.146681
v -8.059387 2.587989 3.690775
v -7.631253 2.586993 5.607389
v -7.307431 2.566419 6.973041
v -8.291748 2.585789 4.228371
v -7.868513 2.583365 5.924912
v -8.016442 2.574255 6.123673
v -8.577718 2.586589 4.564373
v -8.839924 2.584304 4.770595
v -9.000978 2.572847 4.918866
v -9.747869 2.581097 3.647654
v -9.924271 2.569545 3.735079
v -9.463741 2.584009 3.58459
v -10.44955 2.571702 2.948765
v -9.225719 2.585086 3.338573
v -9.976151 2.587752 3.021149
v -10.26353 2.585454 2.928834
v -10.7202 2.575308 2.343784
v -10.45468 2.591005 2.413201
v -10.8795 2.576351 1.704001
v -9.950572 2.590834 2.72192
v -10.55805 2.593094 1.825615
v -10.92436 2.576204 1.044181
v -9.898786 2.593127 2.237893
v -10.56256 2.593606 1.190009
v -10.85166 2.576241 0.3790951
v -9.024847 2.587682 2.879919
v -9.786374 2.595439 1.624652
v -10.4571 2.594423 0.5303188
v -8.799811 2.59164 2.26396
v -10.58866 2.577124 -0.5372504
v -9.578927 2.598573 0.9377818
v -8.489321 2.596803 1.546024
v -10.17201 2.595366 -0.3733315
v -10.06265 2.579516 -1.950848
v -8.064789 2.601131 0.6504803
v -9.225893 2.601254 0.03315181
v -8.676721 2.602186 -1.233372
v -9.637622 2.596254 -1.740818
v -9.410823 2.581089 -3.61923
v -8.770447 2.579514 -5.299921
v -8.206678 2.577119 -6.710818
v -7.784725 2.576233 -7.569765
v -7.392736 2.57616 -8.110822
v -6.918858 2.576205 -8.568026
v -6.461052 2.576298 -8.937303
v -6.364098 2.578736 -8.951651
v -6.528973 2.524333 -9.056385
v -6.416064 2.556488 -8.963698
v -6.388027 2.508671 -8.962492
v -6.480867 2.505534 -9.078026
v -6.445579 2.461137 -9.066296
v -6.378704 2.469298 -8.950363
v -6.433711 2.432655 -9.050185
v -6.477356 2.377955 -9.133888
v -6.458209 2.357488 -9.106896
v -6.572039 2.419062 -9.141906
v -6.512071 2.406093 -9.157581
v -6.497405 2.257916 -9.181095
v -6.474514 2.246156 -9.148688
v -6.596109 2.281871 -9.196041
v -6.534933 2.273433 -9.209108
v -6.507578 2.121715 -9.205164
v -6.482895 2.115984 -9.171214
v -6.607902 2.134376 -9.220619
v -7.134906 2.006522 -8.835605
v -6.544774 2.129393 -9.233684
v -6.512142 1.9807 -9.216184
v -6.486678 1.977086 -9.182445
v -6.613159 1.984881 -9.230076
v -7.132708 1.865483 -8.836179
v -6.614063 1.856799 -9.238592
v -6.551788 1.849468 -9.254954
v -6.552569 1.984404 -9.2543
v -6.510939 1.832909 -9.230254
v -6.471129 1.812756 -9.183857
v -7.019126 2.197965 7.987566
v -6.428971 2.189479 8.672949
v -6.427866 2.023809 8.673647
v -7.009893 2.029223 7.981695
v -7.594125 2.199207 7.290307
v -7.001528 1.876526 7.976384
v -6.426863 1.873892 8.67427
v -7.58224 2.030015 7.282168
v -8.304183 2.197062 6.410357
v -6.993612 1.73185 7.971346
v -6.425921 1.73185 8.674866
v -7.571485 1.876911 7.274803
v -8.292345 2.028647 6.402156
v -9.299484 2.195384 5.176871
v -7.561295 1.731851 7.267825
v -8.281644 1.876245 6.394731
v -9.287615 2.027576 5.168722
v -10.24114 2.194255 3.959186
v -8.271499 1.731851 6.387705
v -9.276876 1.875725 5.161357
v -10.22902 2.026856 3.951555
v -10.79024 2.193758 3.126621
v -10.21806 1.875375 3.944649
v -10.77753 2.026539 3.1203
v -11.0832 2.19361 2.465695
v -9.266701 1.73185 5.15437
v -10.20767 1.731851 3.938109
v -11.06982 2.026445 2.461263
v -11.25642 2.193529 1.762933
v -10.76602 1.87522 3.114577
v -11.24256 2.026394 1.760761
v -11.30635 2.1935 1.040861
v -11.29226 2.026375 1.040987
v -11.22949 2.193507 0.3220146
v -11.21546 2.02638 0.3241477
v -10.96007 2.194136 -0.6415449
v -10.9451 2.026781 -0.6408292
v -10.43234 2.195972 -2.09776
v -10.41416 2.027952 -2.105014
v -9.777834 2.197191 -3.794096
v -10.93155 1.875339 -0.6401817
v -11.20275 1.875143 0.3260772
v -11.2795 1.875141 1.041103
v -11.23001 1.87515 1.758796
v -9.757587 2.02873 -3.806679
v -9.128082 2.195972 -5.478025
v -10.39771 1.875908 -2.111578
v -10.91872 1.731852 -0.6395679
v -11.19072 1.731852 0.3279061
v -9.110358 2.027952 -5.484109
v -8.548095 2.194135 -6.89272
v -9.739269 1.876287 -3.818068
v -8.534236 2.026781 -6.889108
v -8.102861 2.193501 -7.781314
v -11.26742 1.731852 1.041212
v -10.38212 1.731852 -2.117797
v -9.094316 1.875909 -5.489615
v -8.091025 2.026376 -7.773466
v -7.672552 2.185704 -8.357509
v -9.721919 1.731852 -3.828857
v -9.739958 1.611912 -3.758118
v -10.35195 1.572112 -2.19314
v -10.88529 1.572112 -0.6950856
v -11.18217 1.611911 0.3291908
v -9.079117 1.731853 -5.49483
v -11.25877 1.611911 1.041283
v -8.521702 1.875339 -6.885849
v -8.509825 1.731853 -6.882751
v -11.21813 1.731852 1.756935
v -11.2096 1.611911 1.755598
v -8.080324 1.875142 -7.766363
v -8.070181 1.731853 -7.759639
v -11.05771 1.875175 2.457254
v -11.04624 1.731851 2.453455
v -11.03802 1.611911 2.450743
v -10.75513 1.731851 3.109156
v -10.74738 1.611911 3.105323
v -10.18001 1.611911 3.911067
v -9.266701 1.577386 5.15437
v -8.262236 1.61191 6.38159
v -7.549322 1.61191 7.253262
v -6.972138 1.61191 7.952855
v -6.396981 1.61191 8.649977
v -5.863446 1.73185 9.32175
v -5.82115 1.61191 9.289412
v -5.311384 1.73185 9.855403
v -5.305998 1.61191 9.848644
v -4.733033 1.73185 10.27783
v -4.727606 1.61191 10.27101
v -4.091677 1.73185 10.59109
v -4.084408 1.61191 10.5856
v -3.404613 1.73185 10.78921
v -3.396609 1.61191 10.78458
v -2.689116 1.73185 10.86623
v -2.684406 1.61191 10.86017
v -1.238379 1.732463 10.73493
v -1.247268 1.61191 10.7306
v 1.654438 1.734303 10.30808
v 1.615352 1.61191 10.31411
v 5.268291 1.736658 9.733442
v 4.46824 1.61191 9.835466
v -9.721919 1.731852 -3.828857
v -9.739958 1.611912 -3.758118
v -9.128103 1.611912 -5.468067
v -9.079117 1.731853 -5.49483
v -8.546177 1.611913 -6.861242
v -8.509825 1.731853 -6.882751
v -8.062985 1.611913 -7.754847
v -8.070181 1.731853 -7.759639
v -8.062985 1.611913 -7.754847
v -7.641422 1.611913 -8.333838
v -7.647874 1.731853 -8.339596
v -7.125203 1.611913 -8.83
v -7.655539 1.872722 -8.345156
v -7.130624 1.731853 -8.836719
v -6.587161 1.611913 -9.192059
v -7.132708 1.865483 -8.836179
v -7.134906 2.006522 -8.835605
v -6.614063 1.856799 -9.238592
v -7.663619 2.021402 -8.351027
v -7.137344 2.162381 -8.83497
v -6.600197 1.734931 -9.218696
v -6.531165 1.611913 -9.229734
v -6.544316 1.739584 -9.247008
v -6.551788 1.849468 -9.254954
v -6.497541 1.724395 -9.204042
v -6.499791 1.7507 -9.209474
v -6.510939 1.832909 -9.230254
v -6.471129 1.812756 -9.183857
vt 0.6054688 0.9165039
vt 0.6069336 0.9135742
vt 0.6064453 0.9101563
vt 0.6044922 0.9135742
vt 0.6040039 0.9199219
vt 0.605957 0.9072266
vt 0.6020508 0.9165039
vt 0.6010742 0.9228516
vt 0.6030273 0.9106445
vt 0.6054688 0.9047852
vt 0.5986328 0.9199219
vt 0.5966797 0.9262695
vt 0.6015625 0.9082031
vt 0.6049805 0.9033203
vt 0.5996094 0.9135742
vt 0.5947266 0.9233398
vt 0.5961914 0.9169922
vt 0.5981445 0.9111328
vt 0.6000977 0.9057617
vt 0.5898438 0.9267578
vt 0.5913086 0.9301758
vt 0.5849609 0.9301758
vt 0.5864258 0.9331055
vt 0.5810547 0.9331055
vt 0.5825195 0.9355469
vt 0.5786133 0.9350586
vt 0.5800781 0.9365234
vt 0.5922852 0.9204102
vt 0.5942383 0.9145508
vt 0.5883789 0.9243164
vt 0.5839844 0.9277344
vt 0.5800781 0.9311523
vt 0.5771484 0.9335938
vt 0.5961914 0.9086914
vt 0.5864258 0.9213867
vt 0.5825195 0.925293
vt 0.5786133 0.9291992
vt 0.590332 0.9179688
vt 0.5756836 0.9321289
vt 0.5922852 0.9116211
vt 0.597168 0.9038086
vt 0.59375 0.90625
vt 0.6000977 0.9018555
vt 0.6015625 0.8999023
vt 0.6040039 0.9008789
vt 0.6030273 0.8984375
vt 0.6044922 0.8994141
vt 0.6054688 0.8969727
vt 0.6064453 0.8979492
vt 0.6083984 0.8964844
vt 0.6088867 0.8969727
vt 0.6113281 0.8959961
vt 0.6123047 0.8964844
vt 0.6147461 0.8955078
vt 0.6157227 0.8964844
vt 0.6186523 0.8955078
vt 0.6196289 0.8969727
vt 0.6225586 0.8959961
vt 0.6240234 0.8979492
vt 0.6210938 0.8945313
vt 0.6176758 0.8945313
vt 0.6210938 0.8935547
vt 0.6137695 0.8945313
vt 0.6166992 0.8935547
vt 0.6206055 0.8925781
vt 0.6103516 0.8950195
vt 0.6132813 0.8935547
vt 0.6162109 0.8925781
vt 0.6201172 0.8920898
vt 0.6069336 0.8955078
vt 0.609375 0.8935547
vt 0.6118164 0.8925781
vt 0.6152344 0.8916016
vt 0.6186523 0.890625
vt 0.6040039 0.8959961
vt 0.605957 0.894043
vt 0.6079102 0.8925781
vt 0.6103516 0.8911133
vt 0.6137695 0.8901367
vt 0.6162109 0.8891602
vt 0.6015625 0.8969727
vt 0.6025391 0.8945313
vt 0.6044922 0.8925781
vt 0.6064453 0.8911133
vt 0.6088867 0.8896484
vt 0.6113281 0.8881836
vt 0.6147461 0.8867188
vt 0.5991211 0.8984375
vt 0.5996094 0.8955078
vt 0.6010742 0.8930664
vt 0.6025391 0.8911133
vt 0.6044922 0.8891602
vt 0.6064453 0.8876953
vt 0.6088867 0.8857422
vt 0.6147461 0.8847656
vt 0.6064453 0.8833008
vt 0.6152344 0.8828125
vt 0.6035156 0.8852539
vt 0.6020508 0.887207
vt 0.6005859 0.8891602
vt 0.5991211 0.8911133
vt 0.6049805 0.8813477
vt 0.6162109 0.8818359
vt 0.5996094 0.8828125
vt 0.5991211 0.8847656
vt 0.5981445 0.8867188
vt 0.6049805 0.8803711
vt 0.6166992 0.8813477
vt 0.5966797 0.8803711
vt 0.5957031 0.8823242
vt 0.6049805 0.8798828
vt 0.6166992 0.8813477
vt 0.5957031 0.8793945
vt 0.6049805 0.8793945
vt 0.6166992 0.8808594
vt 0.597168 0.8891602
vt 0.5952148 0.8847656
vt 0.5927734 0.8798828
vt 0.5961914 0.878418
vt 0.6054688 0.8793945
vt 0.6171875 0.8808594
vt 0.5947266 0.887207
vt 0.5927734 0.8823242
vt 0.5917969 0.8789063
vt 0.5961914 0.8779297
vt 0.6054688 0.8789063
vt 0.6171875 0.8808594
vt 0.5922852 0.8847656
vt 0.590332 0.8798828
vt 0.5913086 0.8779297
vt 0.5961914 0.8779297
vt 0.5898438 0.8823242
vt 0.5893555 0.8789063
vt 0.5913086 0.8779297
vt 0.5883789 0.8803711
vt 0.5893555 0.878418
vt 0.5874023 0.8793945
vt 0.5957031 0.8779297
vt 0.5913086 0.8774414
vt 0.5888672 0.8779297
vt 0.5869141 0.8789063
vt 0.6054688 0.8789063
vt 0.6054688 0.8789063
vt 0.6166992 0.8808594
vt 0.6049805 0.8789063
vt 0.6166992 0.8808594
vt 0.5957031 0.8779297
vt 0.5957031 0.8779297
vt 0.5913086 0.8774414
vt 0.5957031 0.8779297
vt 0.5913086 0.8774414
vt 0.5888672 0.8774414
vt 0.5913086 0.8774414
vt 0.5913086 0.8774414
vt 0.5888672 0.8774414
vt 0.5864258 0.878418
vt 0.5888672 0.8774414
vt 0.5888672 0.8774414
vt 0.5864258 0.878418
vt 0.5844727 0.8789063
vt 0.5888672 0.8774414
vt 0.5869141 0.878418
vt 0.5844727 0.8789063
vt 0.5825195 0.8803711
vt 0.5869141 0.878418
vt 0.5864258 0.878418
vt 0.5864258 0.878418
vt 0.5825195 0.8803711
vt 0.5810547 0.8818359
vt 0.5844727 0.8789063
vt 0.5844727 0.8789063
vt 0.5844727 0.8793945
vt 0.5849609 0.8793945
vt 0.5810547 0.8818359
vt 0.5791016 0.8837891
vt 0.5791016 0.8837891
vt 0.5825195 0.8803711
vt 0.5810547 0.8818359
vt 0.5791016 0.8837891
vt 0.5791016 0.8837891
vt 0.5825195 0.8803711
vt 0.5810547 0.8818359
vt 0.5825195 0.8803711
vt 0.5810547 0.8823242
vt 0.5791016 0.8837891
vt 0.5830078 0.8808594
vt 0.5810547 0.8823242
vt 0.5771484 0.8862305
vt 0.5771484 0.8862305
vt 0.5791016 0.8842773
vt 0.5771484 0.8862305
vt 0.5751953 0.8881836
vt 0.5751953 0.8881836
vt 0.5756836 0.8881836
vt 0.5727539 0.890625
vt 0.5727539 0.890625
vt 0.5732422 0.8911133
vt 0.5698242 0.8945313
vt 0.5698242 0.8945313
vt 0.5698242 0.8945313
vt 0.5668945 0.8984375
vt 0.5664063 0.8984375
vt 0.5668945 0.8984375
vt 0.5649414 0.9008789
vt 0.5649414 0.9008789
vt 0.5649414 0.9008789
vt 0.5639648 0.902832
vt 0.5639648 0.902832
vt 0.5644531 0.902832
vt 0.5634766 0.9047852
vt 0.5634766 0.9047852
vt 0.5634766 0.9047852
vt 0.5634766 0.9072266
vt 0.5629883 0.9072266
vt 0.5634766 0.9072266
vt 0.5634766 0.9091797
vt 0.5634766 0.9091797
vt 0.5639648 0.9091797
vt 0.5644531 0.9121094
vt 0.5644531 0.9121094
vt 0.5644531 0.9121094
vt 0.565918 0.9165039
vt 0.565918 0.9165039
vt 0.5664063 0.9165039
vt 0.5683594 0.921875
vt 0.5683594 0.921875
vt 0.5683594 0.9213867
vt 0.5703125 0.9267578
vt 0.5703125 0.9267578
vt 0.5703125 0.9267578
vt 0.5722656 0.9311523
vt 0.5722656 0.9311523
vt 0.5722656 0.9311523
vt 0.5737305 0.9335938
vt 0.5737305 0.9335938
vt 0.5737305 0.9335938
vt 0.5751953 0.9355469
vt 0.5751953 0.9355469
vt 0.5751953 0.9350586
vt 0.5766602 0.9370117
vt 0.5766602 0.9370117
vt 0.5766602 0.9365234
vt 0.5727539 0.9306641
vt 0.5742188 0.9335938
vt 0.5756836 0.9350586
vt 0.5771484 0.9365234
vt 0.5708008 0.9262695
vt 0.5688477 0.9213867
vt 0.5668945 0.9165039
vt 0.5649414 0.9121094
vt 0.5639648 0.9091797
vt 0.5639648 0.9072266
vt 0.5639648 0.9047852
vt 0.5644531 0.902832
vt 0.5654297 0.9008789
vt 0.5673828 0.8984375
vt 0.5703125 0.8950195
vt 0.5737305 0.8911133
vt 0.5756836 0.8886719
vt 0.5776367 0.8867188
vt 0.5795898 0.8842773
vt 0.581543 0.8823242
vt 0.5830078 0.8808594
vt 0.5849609 0.8798828
vt 0.5854492 0.8798828
vt 0.5834961 0.8813477
vt 0.581543 0.8828125
vt 0.5795898 0.8847656
vt 0.578125 0.887207
vt 0.5859375 0.8808594
vt 0.5839844 0.8818359
vt 0.5820313 0.8837891
vt 0.5805664 0.8857422
vt 0.5874023 0.8828125
vt 0.5834961 0.8852539
vt 0.5854492 0.8837891
vt 0.5786133 0.8876953
vt 0.5898438 0.8852539
vt 0.5810547 0.887207
vt 0.5849609 0.887207
vt 0.5869141 0.8862305
vt 0.5917969 0.8876953
vt 0.5888672 0.8881836
vt 0.5864258 0.8896484
vt 0.5825195 0.8886719
vt 0.5942383 0.8896484
vt 0.5913086 0.890625
vt 0.5883789 0.8916016
vt 0.5961914 0.8920898
vt 0.5932617 0.8930664
vt 0.5981445 0.894043
vt 0.5952148 0.8950195
vt 0.597168 0.8964844
vt 0.590332 0.894043
vt 0.5839844 0.8911133
vt 0.5922852 0.8959961
vt 0.5966797 0.8999023
vt 0.5947266 0.8979492
vt 0.5942383 0.9018555
vt 0.5859375 0.8930664
vt 0.5917969 0.8999023
vt 0.5913086 0.9038086
vt 0.5874023 0.8955078
vt 0.5898438 0.8974609
vt 0.590332 0.9091797
vt 0.5888672 0.9013672
vt 0.5883789 0.9150391
vt 0.5878906 0.9067383
vt 0.5849609 0.918457
vt 0.5864258 0.9121094
vt 0.5810547 0.9223633
vt 0.5830078 0.9155273
vt 0.5795898 0.9189453
vt 0.5771484 0.9262695
vt 0.5756836 0.9223633
vt 0.574707 0.9291992
vt 0.5727539 0.925293
vt 0.5844727 0.9091797
vt 0.5810547 0.9125977
vt 0.5776367 0.9155273
vt 0.5737305 0.918457
vt 0.5708008 0.9204102
vt 0.5859375 0.9038086
vt 0.5869141 0.8989258
vt 0.5849609 0.8969727
vt 0.5834961 0.9008789
vt 0.5825195 0.90625
vt 0.5830078 0.8945313
vt 0.5820313 0.8989258
vt 0.581543 0.8925781
vt 0.5791016 0.9091797
vt 0.5805664 0.9033203
vt 0.5805664 0.8964844
vt 0.5800781 0.890625
vt 0.5771484 0.9057617
vt 0.5756836 0.9116211
vt 0.5786133 0.9008789
vt 0.5791016 0.8945313
vt 0.5791016 0.8891602
vt 0.578125 0.8925781
vt 0.5776367 0.8989258
vt 0.5756836 0.9033203
vt 0.5771484 0.8911133
vt 0.5766602 0.8964844
vt 0.574707 0.9008789
vt 0.5766602 0.8896484
vt 0.5761719 0.8945313
vt 0.5737305 0.8989258
vt 0.5751953 0.8930664
vt 0.5761719 0.8891602
vt 0.5727539 0.8974609
vt 0.5742188 0.8920898
vt 0.5737305 0.8916016
vt 0.5722656 0.8964844
vt 0.5712891 0.8959961
vt 0.5708008 0.8955078
vt 0.5683594 0.8994141
vt 0.5678711 0.8989258
vt 0.5693359 0.8994141
vt 0.565918 0.9013672
vt 0.5698242 0.8999023
vt 0.5673828 0.9008789
vt 0.5664063 0.9013672
vt 0.5649414 0.9033203
vt 0.565918 0.902832
vt 0.5644531 0.9052734
vt 0.5673828 0.9018555
vt 0.5654297 0.9047852
vt 0.5644531 0.9072266
vt 0.5678711 0.9033203
vt 0.5654297 0.9067383
vt 0.5644531 0.9091797
vt 0.5708008 0.9013672
vt 0.5678711 0.9052734
vt 0.565918 0.9086914
vt 0.5712891 0.9033203
vt 0.5654297 0.9116211
vt 0.5688477 0.9072266
vt 0.5722656 0.9057617
vt 0.5668945 0.9111328
vt 0.5673828 0.9160156
vt 0.5737305 0.9082031
vt 0.5698242 0.9101563
vt 0.5717773 0.9140625
vt 0.5683594 0.9155273
vt 0.5693359 0.9213867
vt 0.5712891 0.9262695
vt 0.5732422 0.9306641
vt 0.574707 0.9331055
vt 0.5756836 0.9345703
vt 0.5776367 0.9360352
vt 0.5791016 0.9375
vt 0.5791016 0.9375
vt 0.5786133 0.9375
vt 0.5791016 0.9375
vt 0.5791016 0.9375
vt 0.5786133 0.9375
vt 0.5791016 0.9375
vt 0.5791016 0.9375
vt 0.5791016 0.9375
vt 0.5786133 0.9379883
vt 0.5791016 0.9379883
vt 0.5786133 0.9379883
vt 0.5786133 0.9379883
vt 0.5786133 0.9379883
vt 0.5786133 0.9379883
vt 0.5786133 0.9379883
vt 0.5786133 0.9379883
vt 0.5786133 0.9379883
vt 0.5786133 0.9379883
vt 0.5786133 0.9379883
vt 0.5766602 0.9370117
vt 0.5786133 0.9379883
vt 0.5786133 0.9379883
vt 0.5786133 0.9379883
vt 0.5786133 0.9379883
vt 0.5766602 0.9370117
vt 0.5786133 0.9379883
vt 0.5786133 0.9379883
vt 0.5786133 0.9379883
vt 0.5786133 0.9379883
vt 0.5791016 0.9379883
vt 0.5771484 0.8862305
vt 0.5791016 0.8837891
vt 0.5791016 0.8837891
vt 0.5771484 0.8862305
vt 0.5751953 0.8881836
vt 0.5771484 0.8862305
vt 0.5791016 0.8837891
vt 0.5751953 0.8881836
vt 0.5727539 0.890625
vt 0.5771484 0.8862305
vt 0.5791016 0.8837891
vt 0.5751953 0.8881836
vt 0.5727539 0.890625
vt 0.5698242 0.8945313
vt 0.5751953 0.8881836
vt 0.5727539 0.8911133
vt 0.5698242 0.8945313
vt 0.5664063 0.8984375
vt 0.5732422 0.8911133
vt 0.5698242 0.8945313
vt 0.5668945 0.8984375
vt 0.5649414 0.9008789
vt 0.5668945 0.8984375
vt 0.5649414 0.9008789
vt 0.5639648 0.902832
vt 0.5698242 0.8945313
vt 0.5668945 0.8984375
vt 0.5639648 0.902832
vt 0.5634766 0.9047852
vt 0.5649414 0.9008789
vt 0.5634766 0.9047852
vt 0.5629883 0.9072266
vt 0.5629883 0.9072266
vt 0.5634766 0.9091797
vt 0.5634766 0.9091797
vt 0.5644531 0.9121094
vt 0.5644531 0.9121094
vt 0.565918 0.9165039
vt 0.565918 0.9165039
vt 0.5683594 0.921875
vt 0.5644531 0.9121094
vt 0.5634766 0.9091797
vt 0.5634766 0.9072266
vt 0.5634766 0.9047852
vt 0.5683594 0.921875
vt 0.5703125 0.9267578
vt 0.565918 0.9165039
vt 0.5644531 0.9121094
vt 0.5634766 0.9091797
vt 0.5703125 0.9267578
vt 0.5722656 0.9311523
vt 0.5683594 0.921875
vt 0.5722656 0.9311523
vt 0.5737305 0.9335938
vt 0.5634766 0.9072266
vt 0.5664063 0.9165039
vt 0.5703125 0.9267578
vt 0.5737305 0.9335938
vt 0.5751953 0.9355469
vt 0.5683594 0.921875
vt 0.5683594 0.9213867
vt 0.5664063 0.9169922
vt 0.5644531 0.9121094
vt 0.5634766 0.9091797
vt 0.5703125 0.9267578
vt 0.5634766 0.9072266
vt 0.5722656 0.9311523
vt 0.5722656 0.9311523
vt 0.5634766 0.9047852
vt 0.5634766 0.9047852
vt 0.5737305 0.9335938
vt 0.5737305 0.9335938
vt 0.5639648 0.902832
vt 0.5639648 0.902832
vt 0.5639648 0.902832
vt 0.5649414 0.9008789
vt 0.5649414 0.9008789
vt 0.5668945 0.8984375
vt 0.5698242 0.8945313
vt 0.5732422 0.8911133
vt 0.5751953 0.8881836
vt 0.5771484 0.8862305
vt 0.5791016 0.8842773
vt 0.5810547 0.8818359
vt 0.5810547 0.8823242
vt 0.5825195 0.8803711
vt 0.5825195 0.8803711
vt 0.5844727 0.8789063
vt 0.5844727 0.8789063
vt 0.5864258 0.878418
vt 0.5864258 0.878418
vt 0.5888672 0.8774414
vt 0.5888672 0.8774414
vt 0.5913086 0.8774414
vt 0.5913086 0.8774414
vt 0.5957031 0.8779297
vt 0.5957031 0.8779297
vt 0.6049805 0.8789063
vt 0.6049805 0.8789063
vt 0.6166992 0.8808594
vt 0.6142578 0.8803711
vt 0.5683594 0.921875
vt 0.5683594 0.9213867
vt 0.5703125 0.9267578
vt 0.5703125 0.9267578
vt 0.5722656 0.9311523
vt 0.5722656 0.9311523
vt 0.5737305 0.9335938
vt 0.5737305 0.9335938
vt 0.5737305 0.9335938
vt 0.5751953 0.9355469
vt 0.5751953 0.9355469
vt 0.5766602 0.9370117
vt 0.5751953 0.9355469
vt 0.5766602 0.9370117
vt 0.5786133 0.9379883
vt 0.5766602 0.9370117
vt 0.5766602 0.9370117
vt 0.5786133 0.9379883
vt 0.5751953 0.9355469
vt 0.5766602 0.9370117
vt 0.5786133 0.9379883
vt 0.5786133 0.9379883
vt 0.5786133 0.9379883
vt 0.5786133 0.9379883
vt 0.5786133 0.9379883
vt 0.5786133 0.9379883
vt 0.5786133 0.9379883
vt 0.5791016 0.9379883
vn 9.24468E-05 1 -4.601479E-05
vn 0.0001323223 1 -1.519918E-05
vn 0.0002253056 1 -0.0001276731
vn 9.912252E-05 1 -6.741285E-05
vn 6.860495E-05 1 -5.525351E-05
vn 0.0003740788 1 -0.0005149841
vn 4.434586E-05 1 -4.756451E-05
vn 5.745888E-05 1 -5.978346E-05
vn 0.0001653433 1 -0.0002710819
vn 0.0004117489 1 -0.001254082
vn 3.135204E-05 1 -3.582239E-05
vn 5.376339E-05 1 -6.568432E-05
vn 0.0002045631 1 -0.000772953
vn 0.0001590252 1 -0.002563477
vn 2.074242E-05 1 -0.0001085997
vn 2.855062E-05 1 -3.504753E-05
vn 1.251698E-06 1 -2.682209E-05
vn -2.086163E-06 1 -0.0002911091
vn 4.36902E-05 1 -0.001503944
vn -9.000301E-06 1 -5.203485E-05
vn 1.621246E-05 1 -8.577108E-05
vn -0.0001428127 1 -9.804964E-05
vn -0.0001212955 1 -0.0001324415
vn -0.002132416 1 -0.001461029
vn -0.002216339 1 -0.001631737
vn -0.01229858 1 -0.01139832
vn -0.01166534 1 -0.01135254
vn 5.960464E-07 1 -3.755093E-06
vn -7.56979E-06 1 -7.688999E-05
vn -3.969669E-05 1 -2.020597E-05
vn -0.0001701117 1 -8.010864E-05
vn -0.002071381 1 -0.001273155
vn -0.01213837 1 -0.009216309
vn -8.285046E-05 1 -0.0005707741
vn -3.957748E-05 1 -2.610683E-05
vn -0.0001583099 1 -9.739399E-05
vn -0.002174377 1 -0.001205444
vn 3.576279E-07 1 -1.269579E-05
vn -0.01315308 1 -0.00750351
vn -3.20673E-05 1 -0.0001642704
vn -0.0003364086 1 -0.002012253
vn -0.0002741814 1 -0.0008416176
vn -0.0003325939 1 -0.003555298
vn -0.0002851486 1 -0.005825043
vn 2.390146E-05 1 -0.00510788
vn 0.0007586479 1 -0.006950378
vn 0.001014709 1 -0.006023407
vn 0.001955032 1 -0.007614136
vn 0.00201416 1 -0.007003784
vn 0.002513885 1 -0.007659912
vn 0.002361298 1 -0.007034302
vn 0.002851486 1 -0.006248474
vn 0.002475739 1 -0.00535965
vn 0.003246307 1 -0.003252029
vn 0.002794266 1 -0.002162933
vn 0.00378418 1 0.0003063679
vn 0.003412247 1 0.0011549
vn 0.003799438 1 0.001783371
vn 0.003536224 1 0.001757622
vn 0.004936218 1 0.001312256
vn 0.00484848 1 -0.001092911
vn 0.006305695 1 -0.001086235
vn 0.00421524 1 -0.005146027
vn 0.006084442 1 -0.004009247
vn 0.00769043 1 -0.002948761
vn 0.003505707 1 -0.008010864
vn 0.005123138 1 -0.00818634
vn 0.007385254 1 -0.005981445
vn 0.008552551 1 -0.007034302
vn 0.002845764 1 -0.009254456
vn 0.004020691 1 -0.01057434
vn 0.005813599 1 -0.01100922
vn 0.007499695 1 -0.01404572
vn 0.006881714 0.9995117 -0.0226593
vn 0.001930237 1 -0.00933075
vn 0.003149033 1 -0.01150513
vn 0.004257202 1 -0.01344299
vn 0.005661011 1 -0.01660156
vn 0.005081177 0.9995117 -0.02842712
vn 0.002059937 0.9990234 -0.04278564
vn 0.0002455711 1 -0.008811951
vn 0.001972198 1 -0.01180267
vn 0.003425598 1 -0.0141983
vn 0.003791809 1 -0.01725769
vn 0.003540039 0.9995117 -0.02589417
vn -8.755922E-05 0.9990234 -0.04684448
vn -0.006011963 0.9975586 -0.07043457
vn -0.001241684 1 -0.007305145
vn -0.0004796982 1 -0.0116272
vn 0.002130508 1 -0.01496887
vn 0.003143311 1 -0.01611328
vn 0.001519203 0.9995117 -0.02261353
vn -0.0016222 0.9990234 -0.04043579
vn -0.007415771 0.9975586 -0.07019043
vn -0.01042175 0.9970703 -0.07806396
vn -0.01152802 0.9970703 -0.07421875
vn -0.00447464 0.9995117 -0.0280304
vn -0.01026917 0.9980469 -0.06213379
vn -0.00422287 0.9995117 -0.03253174
vn 0.0007162094 1 -0.01722717
vn 0.001401901 1 -0.01577759
vn -0.007926941 0.9995117 -0.03277588
vn 0.02175903 0.9892578 0.1444092
vn -0.01815796 0.9975586 -0.0692749
vn -0.01579285 0.9985352 -0.05133057
vn -0.005413055 0.9995117 -0.02145386
vn 0.01206207 0.9941406 0.1072998
vn 0.06945801 0.8955078 0.4396973
vn -0.02050781 0.9995117 -0.03125
vn -0.03131104 0.9975586 -0.0645752
vn 0.05612183 0.921875 0.3835449
vn 0.1188354 0.6640625 0.737793
vn -0.00667572 0.9941406 0.1082764
vn 0.1071777 0.7084961 0.6977539
vn 0.151123 0.3271484 0.9326172
vn -0.002096176 1 -0.01325989
vn -0.01628113 0.9995117 -0.03265381
vn -0.04504395 0.9980469 -0.03839111
vn 0.034729 0.9262695 0.3754883
vn 0.1450195 0.3447266 0.9272461
vn 0.1586914 0.1138916 0.980957
vn -0.008346558 1 -0.01326752
vn -0.029953 0.9985352 -0.040802
vn -0.04824829 0.9941406 0.097229
vn 0.08178711 0.7138672 0.6958008
vn 0.1539307 0.1085815 0.9819336
vn 0.1586914 0.05123901 0.9858398
vn -0.01474762 0.9995117 -0.01846313
vn -0.04208374 0.9990234 -0.02030945
vn -0.02781677 0.925293 0.3779297
vn 0.1193848 0.3427734 0.9316406
vn -0.01945496 0.9995117 -0.01911926
vn -0.06228638 0.9936523 0.09210205
vn -0.005764008 0.7143555 0.7001953
vn -0.02536011 0.9995117 0.00106144
vn -0.1065063 0.921875 0.3725586
vn -0.05474854 0.9931641 0.102478
vn 0.1297607 0.09887695 0.9868164
vn 0.01794434 0.3457031 0.9379883
vn -0.1533203 0.715332 0.6816406
vn -0.1490479 0.9125977 0.3806152
vn 0.1539307 0.0440979 0.9873047
vn 0.1529541 0.04415894 0.9873047
vn 0.1577148 0.05126953 0.9863281
vn 0.1534424 -0.004669189 0.9882813
vn 0.1574707 0.04211426 0.9868164
vn 0.1276855 0.006889343 0.9916992
vn 0.1290283 0.03182983 0.9912109
vn 0.02476501 -0.004829407 0.9995117
vn 0.130127 0.03173828 0.9912109
vn 0.02961731 0.0247345 0.9990234
vn -0.1934814 -0.009536743 0.980957
vn 0.02963257 0.09558105 0.9951172
vn 0.03125 0.02464294 0.9990234
vn -0.1888428 0.02450562 0.9819336
vn -0.361084 -0.01233673 0.9326172
vn -0.1842041 0.3571777 0.9155273
vn -0.1875 0.09936523 0.9770508
vn -0.3586426 0.02833557 0.9331055
vn -0.5175781 -0.009132385 0.8554688
vn -0.1872559 0.02444458 0.9819336
vn -0.2583008 0.6962891 0.6699219
vn -0.5175781 0.04046631 0.8549805
vn -0.6503906 -0.04602051 0.7583008
vn -0.3371582 0.348877 0.8745117
vn -0.357666 0.1011963 0.9282227
vn -0.3588867 0.02833557 0.9331055
vn -0.6450195 0.05368042 0.762207
vn -0.7236328 -0.1235962 0.6791992
vn -0.5195313 0.04052734 0.8535156
vn -0.519043 0.1066895 0.8481445
vn -0.4941406 0.3317871 0.8037109
vn -0.3930664 0.6655273 0.6342773
vn -0.7226563 0.04180908 0.6899414
vn -0.7543945 -0.1501465 0.6391602
vn -0.7602539 -0.004364014 0.6494141
vn -0.6464844 0.05368042 0.7612305
vn -0.7182617 0.04180908 0.6943359
vn -0.753418 -0.00428009 0.6572266
vn -0.7456055 0.07373047 0.6625977
vn -0.6445313 0.1133423 0.7558594
vn -0.7119141 0.1047974 0.6943359
vn -0.6191406 0.3166504 0.71875
vn -0.6787109 0.3186035 0.6616211
vn -0.7006836 0.3383789 0.6279297
vn -0.5092773 0.6381836 0.5776367
vn -0.5498047 0.6494141 0.5249023
vn -0.7119141 0.3608398 0.6020508
vn -0.7646484 0.03970337 0.6430664
vn -0.5322266 0.7026367 0.4716797
vn -0.5043945 0.7519531 0.4240723
vn -0.7197266 0.373291 0.5854492
vn -0.7753906 0.02127075 0.6313477
vn -0.4963379 0.7695313 0.4016113
vn -0.7211914 0.376709 0.5810547
vn -0.7783203 0.01747131 0.6279297
vn -0.4992676 0.7680664 0.4006348
vn -0.7275391 0.375 0.574707
vn -0.784668 0.01678467 0.6201172
vn -0.5058594 0.7646484 0.3989258
vn -0.7514648 0.3706055 0.5458984
vn -0.8085938 0.01612854 0.5878906
vn -0.5253906 0.7597656 0.3823242
vn -0.8105469 0.3664551 0.4570313
vn -0.8710938 0.01589966 0.4909668
vn -0.5712891 0.7543945 0.3232422
vn -0.8808594 0.3652344 0.3012695
vn -0.9462891 0.01600647 0.3234863
vn -0.6240234 0.7514648 0.2138672
vn -0.9199219 0.3642578 0.144165
vn -0.987793 0.01593018 0.1547852
vn -0.6533203 0.75 0.102356
vn -0.9311523 0.3642578 -0.01745605
vn -0.9995117 0.01568604 -0.01867676
vn -0.6611328 0.7504883 -0.01280975
vn -0.9121094 0.3640137 -0.1873779
vn -0.9794922 0.01470947 -0.2015381
vn -0.6464844 0.7509766 -0.1333008
vn -0.8837891 0.3662109 -0.2905273
vn -0.949707 0.01422119 -0.3127441
vn -0.6230469 0.7548828 -0.2044678
vn -0.8706055 0.3688965 -0.3256836
vn -0.9360352 0.01490021 -0.3510742
vn -0.6088867 0.7602539 -0.2272949
vn -0.8666992 0.369873 -0.3344727
vn -0.9326172 0.01522827 -0.3598633
vn -0.6040039 0.762207 -0.2330322
vn -0.8637695 0.3688965 -0.3430176
vn -0.9291992 0.01540375 -0.3688965
vn -0.6035156 0.7602539 -0.2404785
vn -0.8496094 0.3671875 -0.378418
vn -0.9135742 0.01593018 -0.4064941
vn -0.5986328 0.7553711 -0.2668457
vn -0.7988281 0.3630371 -0.479248
vn -0.8583984 0.01867676 -0.5126953
vn -0.5708008 0.7460938 -0.3425293
vn -0.6865234 0.3486328 -0.6381836
vn -0.7382813 0.03585815 -0.6738281
vn -0.5136719 0.7109375 -0.4797363
vn -0.5878906 0.3198242 -0.7426758
vn -0.628418 0.07208252 -0.7744141
vn -0.4797363 0.6376953 -0.6030273
vn -0.3508301 0.9233398 -0.1563721
vn -0.3430176 0.9169922 -0.2041016
vn -0.3186035 0.9023438 -0.2905273
vn -0.3125 0.8720703 -0.3771973
vn -0.3432617 0.9291992 -0.137085
vn -0.3381348 0.9321289 -0.1304932
vn -0.3461914 0.9291992 -0.1290283
vn -0.3649902 0.9233398 -0.119751
vn -0.3864746 0.9189453 -0.08013916
vn -0.3964844 0.9179688 -0.008071899
vn -0.3911133 0.918457 0.06134033
vn -0.3691406 0.9204102 0.1276855
vn -0.3291016 0.925293 0.1875
vn -0.2949219 0.9311523 0.2145996
vn -0.2785645 0.9350586 0.2188721
vn -0.2602539 0.9423828 0.2095947
vn -0.2279053 0.9555664 0.185791
vn -0.2191162 0.9584961 0.1811523
vn -0.2629395 0.9389648 0.2219238
vn -0.3129883 0.9072266 0.2802734
vn -0.3061523 0.894043 0.3273926
vn -0.2314453 0.9018555 0.3647461
vn -0.07629395 0.9926758 0.09197998
vn -0.1014404 0.9921875 0.07434082
vn -0.09710693 0.9936523 0.0567627
vn -0.0607605 0.9975586 0.03201294
vn -0.02862549 0.9995117 0.02113342
vn -0.02867126 0.9995117 -0.0002844334
vn -0.03826904 0.9990234 -0.004390717
vn -0.03985596 0.9990234 -0.002962112
vn -0.0309906 0.9995117 2.235174E-05
vn -0.02030945 0.9995117 -0.01687622
vn -0.02796936 0.9995117 -0.008171082
vn -0.02503967 0.9995117 -0.0161438
vn -0.01459503 1 0.008811951
vn -0.0181427 0.9995117 -0.01615906
vn -0.02938843 0.9995117 0.004600525
vn -0.01860046 1 -0.007225037
vn -0.02055359 0.9995117 -0.01473236
vn -0.01541138 1 -0.01242828
vn -0.01902771 0.9995117 -0.01243591
vn -0.01390839 1 -0.007019043
vn -0.01705933 1 0.003196716
vn -0.01016998 1 -0.01422882
vn -0.0158844 1 -0.01432037
vn -0.01179504 1 -0.008056641
vn -0.004825592 1 -0.01748657
vn -0.01051331 1 -0.01586914
vn -0.001753807 1 -0.01577759
vn -0.005741119 1 -0.01329041
vn -0.00287056 1 -0.009597778
vn -0.008918762 1 -0.008323669
vn -0.007980347 1 -0.0003819466
vn -0.005645752 1 -0.007171631
vn -0.001400948 1 -0.004703522
vn -0.00308609 1 -0.005756378
vn -0.001066208 1 -0.002429962
vn -0.005409241 1 -0.00167942
vn -0.00213623 1 -0.002601624
vn -0.0006437302 1 -0.0009784698
vn -0.004562378 1 -0.001908302
vn -0.003404617 1 -0.002344131
vn -0.0001069307 1 -0.0002434254
vn -0.001198769 1 -0.0008702278
vn -3.874302E-06 1 -3.314018E-05
vn -0.0002422333 1 -0.0002484322
vn -4.1008E-05 1 -3.010035E-05
vn -2.497435E-05 1 -5.096197E-05
vn -0.0001550913 1 -9.548664E-05
vn -4.631281E-05 1 -3.236532E-05
vn -0.000156641 1 -8.589029E-05
vn -0.002325058 1 -0.001150131
vn -0.002292633 1 -0.001037598
vn -0.01379395 1 -0.006439209
vn -0.01308441 1 -0.005561829
vn -5.853176E-05 1 -3.993511E-05
vn -5.584955E-05 1 -3.021955E-05
vn -0.000166297 1 -7.736683E-05
vn -0.002326965 1 -0.000954628
vn -0.01294708 1 -0.005111694
vn -0.0005741119 1 -1.835823E-05
vn -0.001951218 1 -0.0003614426
vn -0.002811432 1 0.0002787113
vn -0.001452446 1 0.0006232262
vn -0.0004029274 1 0.0002849102
vn -0.003671646 1 0.0005378723
vn -0.002897263 1 0.001316071
vn -0.006450653 1 0.002737045
vn -0.0004165173 1 0.0003550053
vn -0.001623154 1 0.00130558
vn -0.004386902 1 0.001491547
vn -0.01461029 1 0.01052094
vn -0.001723289 1 0.001746178
vn -0.0003890991 1 0.0003118515
vn -0.003580093 1 0.002513885
vn -0.006160736 1 0.002986908
vn -0.0226593 0.9995117 0.01734924
vn -0.008666992 1 0.009750366
vn -0.0051651 1 0.002822876
vn -0.003696442 1 0.00362587
vn -0.009124756 1 0.01876831
vn -0.005722046 1 0.002681732
vn -0.00485611 1 0.004219055
vn -0.003341675 1 0.01799011
vn -0.004470825 1 0.003730774
vn -0.004852295 1 0.003381729
vn -0.003753662 1 0.008232117
vn -0.03744507 0.9985352 0.04022217
vn -0.00317955 1 0.001267433
vn -0.0117569 1 0.01742554
vn -0.07421875 0.9951172 0.06500244
vn -0.003761292 1 0.001958847
vn -0.020401 0.9995117 0.01548767
vn -0.09698486 0.9921875 0.07568359
vn -0.02827454 0.9995117 0.02200317
vn -0.1143188 0.9897461 0.08355713
vn -0.004116058 1 0.003667831
vn -0.1390381 0.9868164 0.08154297
vn -0.001274109 1 0.003299713
vn -0.004993439 1 0.01091766
vn -0.0368042 0.9990234 0.02815247
vn -0.1424561 0.9887695 0.0491333
vn -0.02598572 0.9995117 0.01344299
vn -0.1318359 0.9912109 0.01908875
vn -0.0005617142 1 0.006820679
vn -0.0201416 1 0.004882813
vn -0.1195068 0.9926758 -0.003837585
vn -3.302097E-05 1 0.004619598
vn -0.01792908 1 0.0009241104
vn -0.1069336 0.9941406 -0.02276611
vn -0.001587868 1 0.004814148
vn -0.001501083 1 0.004077911
vn -0.01675415 1 -0.002246857
vn -0.002155304 1 0.005249023
vn -0.09490967 0.9951172 -0.03100586
vn -0.002717972 1 0.0027771
vn -0.002159119 1 0.004234314
vn -0.015625 1 -0.004440308
vn -0.08496094 0.9960938 -0.03146362
vn -0.001153946 1 0.001842499
vn -0.002866745 1 0.0005598068
vn -0.002563477 1 -0.0006604195
vn -0.01406097 1 -0.005027771
vn -0.07989502 0.9960938 -0.03097534
vn -0.08172607 0.9960938 -0.03311157
vn -0.0859375 0.9956055 -0.03884888
vn -0.08355713 0.9951172 -0.04943848
vn -0.07684326 0.9946289 -0.06665039
vn -0.07427979 0.9936523 -0.08306885
vn -0.05960083 0.9951172 -0.08056641
vn -0.03036499 0.9990234 -0.03674316
vn -0.2998047 0.8408203 -0.4509277
vn 0.3608398 0.6875 -0.6298828
vn 0.7524414 0.2739258 -0.5991211
vn 0.3198242 0.6523438 -0.6870117
vn 0.753418 0.2763672 -0.5966797
vn 0.862793 0.06054688 -0.5019531
vn 0.8598633 0.07574463 -0.5048828
vn 0.7294922 0.1901855 -0.6567383
vn 0.8432617 0.0859375 -0.5307617
vn -0.4501953 0.5732422 -0.6845703
vn 0.2176514 0.4370117 -0.8725586
vn 0.7172852 0.1054688 -0.6884766
vn 0.8251953 0.06021118 -0.5620117
vn -0.5224609 0.2954102 -0.7998047
vn 0.1682129 0.2414551 -0.9555664
vn 0.71875 0.05560303 -0.6928711
vn 0.8110352 0.03305054 -0.5839844
vn -0.5581055 0.1005859 -0.8237305
vn -0.6416016 -0.006988525 -0.7666016
vn 0.1520996 0.1257324 -0.9804688
vn 0.7172852 0.05117798 -0.6948242
vn 0.7924805 0.05273438 -0.6074219
vn -0.5771484 0.03222656 -0.815918
vn -0.6479492 -0.03616333 -0.7607422
vn -0.5820313 -0.03695679 -0.8125
vn 0.09204102 -0.02963257 -0.9951172
vn 0.1269531 0.07183838 -0.9892578
vn 0.6899414 0.01609802 -0.7241211
vn 0.7729492 0.02752686 -0.6337891
vn -0.7646484 0.03970337 0.6430664
vn -0.7456055 0.07373047 0.6625977
vn -0.753418 -0.00428009 0.6572266
vn -0.7685547 -0.05413818 0.6376953
vn -0.7753906 0.02127075 0.6313477
vn -0.7729492 -0.05419922 0.6323242
vn -0.7602539 -0.004364014 0.6494141
vn -0.7739258 -0.08013916 0.628418
vn -0.7783203 0.01747131 0.6279297
vn -0.7685547 -0.1357422 0.6254883
vn -0.7543945 -0.1501465 0.6391602
vn -0.7749023 -0.0802002 0.6269531
vn -0.7753906 -0.08496094 0.6259766
vn -0.784668 0.01678467 0.6201172
vn -0.7714844 -0.1138306 0.6254883
vn -0.7753906 -0.08496094 0.6259766
vn -0.7817383 -0.08508301 0.6176758
vn -0.8085938 0.01612854 0.5878906
vn -0.7749023 -0.07861328 0.6274414
vn -0.7817383 -0.08508301 0.6176758
vn -0.8056641 -0.08496094 0.5859375
vn -0.8710938 0.01589966 0.4909668
vn -0.8056641 -0.08496094 0.5864258
vn -0.8676758 -0.08465576 0.4897461
vn -0.9462891 0.01600647 0.3234863
vn -0.7832031 -0.0869751 0.6157227
vn -0.8027344 -0.1193237 0.5839844
vn -0.9428711 -0.08416748 0.3225098
vn -0.987793 0.01593018 0.1547852
vn -0.8676758 -0.08465576 0.4897461
vn -0.984375 -0.0838623 0.1541748
vn -0.9995117 0.01568604 -0.01867676
vn -0.9960938 -0.08416748 -0.01878357
vn -0.9794922 0.01470947 -0.2015381
vn -0.9755859 -0.08520508 -0.201416
vn -0.949707 0.01422119 -0.3127441
vn -0.9462891 -0.08581543 -0.3122559
vn -0.9360352 0.01490021 -0.3510742
vn -0.9326172 -0.08544922 -0.3500977
vn -0.9326172 0.01522827 -0.3598633
vn -0.9458008 -0.08581543 -0.3125
vn -0.9755859 -0.08520508 -0.2019043
vn -0.9960938 -0.08416748 -0.01895142
vn -0.984375 -0.0838623 0.1541748
vn -0.9296875 -0.08502197 -0.3586426
vn -0.9291992 0.01540375 -0.3688965
vn -0.9326172 -0.08544922 -0.3500977
vn -0.9477539 -0.07751465 -0.3098145
vn -0.9746094 -0.08465576 -0.2064209
vn -0.9262695 -0.08453369 -0.3674316
vn -0.9135742 0.01593018 -0.4064941
vn -0.9296875 -0.08502197 -0.3586426
vn -0.9101563 -0.08398438 -0.4052734
vn -0.8583984 0.01867676 -0.5126953
vn -0.996582 -0.07861328 -0.01908875
vn -0.9350586 -0.06445313 -0.3483887
vn -0.9262695 -0.08453369 -0.3674316
vn -0.8564453 -0.08068848 -0.5097656
vn -0.7382813 0.03585815 -0.6738281
vn -0.934082 -0.01550293 -0.3569336
vn -0.9335938 0.0114975 -0.3581543
vn -0.9345703 -0.03955078 -0.3535156
vn -0.9453125 -0.05950928 -0.3212891
vn -0.9736328 -0.08422852 -0.2119141
vn -0.9287109 0.04119873 -0.3681641
vn -0.9970703 -0.07189941 -0.01919556
vn -0.9101563 -0.08392334 -0.4052734
vn -0.9101563 0.02418518 -0.4135742
vn -0.9848633 -0.07843018 0.1542969
vn -0.9853516 -0.07189941 0.1542969
vn -0.8574219 -0.08068848 -0.5083008
vn -0.8579102 -0.0425415 -0.512207
vn -0.9428711 -0.08416748 0.3227539
vn -0.9433594 -0.07861328 0.322998
vn -0.9438477 -0.07196045 0.3232422
vn -0.8632813 -0.1107178 0.4921875
vn -0.8574219 -0.1422119 0.4943848
vn -0.7993164 -0.1580811 0.5795898
vn -0.784668 -0.08892822 0.6137695
vn -0.7739258 -0.07177734 0.6293945
vn -0.7666016 -0.15271 0.6240234
vn -0.7539063 -0.2297363 0.6152344
vn -0.7246094 -0.3112793 0.6152344
vn -0.7236328 -0.1235962 0.6791992
vn -0.6977539 -0.3054199 0.6479492
vn -0.6503906 -0.04602051 0.7583008
vn -0.6479492 -0.1656494 0.7436523
vn -0.5175781 -0.009132385 0.8554688
vn -0.5146484 -0.07092285 0.8544922
vn -0.361084 -0.01233673 0.9326172
vn -0.3569336 -0.06378174 0.9321289
vn -0.1934814 -0.009536743 0.980957
vn -0.1890869 -0.05404663 0.9804688
vn 0.02476501 -0.004829407 0.9995117
vn 0.02728271 -0.04647827 0.9985352
vn 0.1276855 0.006889343 0.9916992
vn 0.1257324 -0.02970886 0.9916992
vn 0.1534424 -0.004669189 0.9882813
vn 0.1516113 -0.06176758 0.9863281
vn 0.1574707 0.04211426 0.9868164
vn 0.15979 -0.1137085 0.9804688
vn -0.934082 -0.01550293 -0.3569336
vn -0.9335938 0.0114975 -0.3581543
vn -0.9199219 0.1644287 -0.3554688
vn -0.9287109 0.04119873 -0.3681641
vn -0.8969727 0.1870117 -0.4008789
vn -0.9101563 0.02418518 -0.4135742
vn -0.8564453 0.003276825 -0.5166016
vn -0.8579102 -0.0425415 -0.512207
vn -0.8564453 0.003276825 -0.5166016
vn -0.7514648 -0.07189941 -0.6557617
vn -0.7509766 -0.06402588 -0.6572266
vn -0.6328125 -0.1118164 -0.7666016
vn -0.7485352 -0.05734253 -0.6606445
vn -0.6401367 -0.08770752 -0.7631836
vn -0.5581055 -0.1584473 -0.8144531
vn -0.6479492 -0.03616333 -0.7607422
vn -0.6416016 -0.006988525 -0.7666016
vn -0.5820313 -0.03695679 -0.8125
vn -0.7431641 -0.05728149 -0.6665039
vn -0.628418 0.07208252 -0.7744141
vn -0.5688477 -0.1293945 -0.8125
vn -0.3398438 -0.1936035 -0.9204102
vn -0.03219604 -0.1494141 -0.9882813
vn 0.09204102 -0.02963257 -0.9951172
vn 0.6777344 -0.04586792 -0.7338867
vn 0.6733398 -0.05957031 -0.7368164
vn 0.6899414 0.01609802 -0.7241211
vn 0.7729492 0.02752686 -0.6337891
g Water_0
f 3/3/3 2/2/2 1/1/1
f 4/4/4 3/3/3 1/1/1
f 4/4/4 1/1/1 5/5/5
f 6/6/6 3/3/3 4/4/4
f 7/7/7 4/4/4 5/5/5
f 7/7/7 5/5/5 8/8/8
f 9/9/9 6/6/6 4/4/4
f 9/9/9 4/4/4 7/7/7
f 10/10/10 6/6/6 9/9/9
f 11/11/11 7/7/7 8/8/8
f 11/11/11 8/8/8 12/12/12
f 13/13/13 10/10/10 9/9/9
f 14/14/14 10/10/10 13/13/13
f 15/15/15 9/9/9 7/7/7
f 15/15/15 7/7/7 11/11/11
f 13/13/13 9/9/9 15/15/15
f 16/16/16 11/11/11 12/12/12
f 17/17/17 15/15/15 11/11/11
f 17/17/17 11/11/11 16/16/16
f 18/18/18 13/13/13 15/15/15
f 18/18/18 15/15/15 17/17/17
f 19/19/19 14/14/14 13/13/13
f 19/19/19 13/13/13 18/18/18
f 16/16/16 12/12/12 20/20/20
f 12/12/12 21/21/21 20/20/20
f 20/20/20 21/21/21 22/22/22
f 21/21/21 23/23/23 22/22/22
f 22/22/22 23/23/23 24/24/24
f 23/23/23 25/25/25 24/24/24
f 24/24/24 25/25/25 26/26/26
f 25/25/25 27/27/27 26/26/26
f 28/28/28 17/17/17 16/16/16
f 29/29/29 18/18/18 17/17/17
f 29/29/29 17/17/17 28/28/28
f 16/16/16 20/20/20 30/30/30
f 28/28/28 16/16/16 30/30/30
f 20/20/20 22/22/22 31/31/31
f 30/30/30 20/20/20 31/31/31
f 22/22/22 24/24/24 32/32/32
f 31/31/31 22/22/22 32/32/32
f 24/24/24 26/26/26 33/33/33
f 32/32/32 24/24/24 33/33/33
f 34/34/34 18/18/18 29/29/29
f 34/34/34 19/19/19 18/18/18
f 28/28/28 30/30/30 35/35/35
f 30/30/30 31/31/31 36/36/36
f 35/35/35 30/30/30 36/36/36
f 31/31/31 32/32/32 37/37/37
f 36/36/36 31/31/31 37/37/37
f 38/38/38 29/29/29 28/28/28
f 38/38/38 28/28/28 35/35/35
f 32/32/32 33/33/33 39/39/39
f 37/37/37 32/32/32 39/39/39
f 40/40/40 34/34/34 29/29/29
f 40/40/40 29/29/29 38/38/38
f 41/41/41 19/19/19 34/34/34
f 42/42/42 34/34/34 40/40/40
f 42/42/42 41/41/41 34/34/34
f 41/41/41 43/43/43 19/19/19
f 43/43/43 14/14/14 19/19/19
f 43/43/43 44/44/44 14/14/14
f 44/44/44 45/45/45 14/14/14
f 44/44/44 46/46/46 45/45/45
f 46/46/46 47/47/47 45/45/45
f 46/46/46 48/48/48 47/47/47
f 48/48/48 49/49/49 47/47/47
f 48/48/48 50/50/50 49/49/49
f 50/50/50 51/51/51 49/49/49
f 50/50/50 52/52/52 51/51/51
f 52/52/52 53/53/53 51/51/51
f 52/52/52 54/54/54 53/53/53
f 54/54/54 55/55/55 53/53/53
f 54/54/54 56/56/56 55/55/55
f 56/56/56 57/57/57 55/55/55
f 56/56/56 58/58/58 57/57/57
f 58/58/58 59/59/59 57/57/57
f 60/60/60 58/58/58 56/56/56
f 61/61/61 60/60/60 56/56/56
f 61/61/61 56/56/56 54/54/54
f 62/62/62 60/60/60 61/61/61
f 63/63/63 54/54/54 52/52/52
f 63/63/63 61/61/61 54/54/54
f 64/64/64 62/62/62 61/61/61
f 64/64/64 61/61/61 63/63/63
f 65/65/65 62/62/62 64/64/64
f 66/66/66 52/52/52 50/50/50
f 66/66/66 63/63/63 52/52/52
f 67/67/67 64/64/64 63/63/63
f 67/67/67 63/63/63 66/66/66
f 68/68/68 65/65/65 64/64/64
f 68/68/68 64/64/64 67/67/67
f 69/69/69 65/65/65 68/68/68
f 70/70/70 66/66/66 50/50/50
f 70/70/70 50/50/50 48/48/48
f 71/71/71 67/67/67 66/66/66
f 71/71/71 66/66/66 70/70/70
f 72/72/72 68/68/68 67/67/67
f 72/72/72 67/67/67 71/71/71
f 73/73/73 69/69/69 68/68/68
f 73/73/73 68/68/68 72/72/72
f 74/74/74 69/69/69 73/73/73
f 75/75/75 70/70/70 48/48/48
f 75/75/75 48/48/48 46/46/46
f 76/76/76 71/71/71 70/70/70
f 76/76/76 70/70/70 75/75/75
f 77/77/77 72/72/72 71/71/71
f 77/77/77 71/71/71 76/76/76
f 78/78/78 73/73/73 72/72/72
f 78/78/78 72/72/72 77/77/77
f 79/79/79 74/74/74 73/73/73
f 79/79/79 73/73/73 78/78/78
f 80/80/80 74/74/74 79/79/79
f 81/81/81 75/75/75 46/46/46
f 81/81/81 46/46/46 44/44/44
f 82/82/82 76/76/76 75/75/75
f 82/82/82 75/75/75 81/81/81
f 83/83/83 77/77/77 76/76/76
f 83/83/83 76/76/76 82/82/82
f 84/84/84 78/78/78 77/77/77
f 84/84/84 77/77/77 83/83/83
f 85/85/85 79/79/79 78/78/78
f 85/85/85 78/78/78 84/84/84
f 86/86/86 80/80/80 79/79/79
f 86/86/86 79/79/79 85/85/85
f 87/87/87 80/80/80 86/86/86
f 88/88/88 81/81/81 44/44/44
f 88/88/88 44/44/44 43/43/43
f 89/89/89 82/82/82 81/81/81
f 89/89/89 81/81/81 88/88/88
f 90/90/90 83/83/83 82/82/82
f 90/90/90 82/82/82 89/89/89
f 91/91/91 84/84/84 83/83/83
f 91/91/91 83/83/83 90/90/90
f 92/92/92 85/85/85 84/84/84
f 92/92/92 84/84/84 91/91/91
f 93/93/93 86/86/86 85/85/85
f 93/93/93 85/85/85 92/92/92
f 94/94/94 87/87/87 86/86/86
f 94/94/94 86/86/86 93/93/93
f 95/95/95 87/87/87 94/94/94
f 96/96/96 95/95/95 94/94/94
f 97/97/97 95/95/95 96/96/96
f 98/98/98 94/94/94 93/93/93
f 96/96/96 94/94/94 98/98/98
f 99/99/99 93/93/93 92/92/92
f 98/98/98 93/93/93 99/99/99
f 100/100/100 92/92/92 91/91/91
f 99/99/99 92/92/92 100/100/100
f 101/101/101 91/91/91 90/90/90
f 100/100/100 91/91/91 101/101/101
f 102/102/102 97/97/97 96/96/96
f 103/103/103 97/97/97 102/102/102
f 104/104/104 96/96/96 98/98/98
f 102/102/102 96/96/96 104/104/104
f 105/105/105 98/98/98 99/99/99
f 104/104/104 98/98/98 105/105/105
f 106/106/106 99/99/99 100/100/100
f 105/105/105 99/99/99 106/106/106
f 107/107/107 103/103/103 102/102/102
f 108/108/108 103/103/103 107/107/107
f 109/109/109 102/102/102 104/104/104
f 107/107/107 102/102/102 109/109/109
f 110/110/110 104/104/104 105/105/105
f 109/109/109 104/104/104 110/110/110
f 111/111/111 108/108/108 107/107/107
f 112/112/112 108/108/108 111/111/111
f 113/113/113 107/107/107 109/109/109
f 111/111/111 107/107/107 113/113/113
f 114/114/114 112/112/112 111/111/111
f 115/115/115 112/112/112 114/114/114
f 106/106/106 100/100/100 116/116/116
f 116/116/116 100/100/100 101/101/101
f 117/117/117 105/105/105 106/106/106
f 110/110/110 105/105/105 117/117/117
f 118/118/118 109/109/109 110/110/110
f 113/113/113 109/109/109 118/118/118
f 119/119/119 111/111/111 113/113/113
f 114/114/114 111/111/111 119/119/119
f 120/120/120 115/115/115 114/114/114
f 121/121/121 115/115/115 120/120/120
f 122/122/122 106/106/106 116/116/116
f 117/117/117 106/106/106 122/122/122
f 123/123/123 110/110/110 117/117/117
f 118/118/118 110/110/110 123/123/123
f 124/124/124 113/113/113 118/118/118
f 119/119/119 113/113/113 124/124/124
f 125/125/125 114/114/114 119/119/119
f 120/120/120 114/114/114 125/125/125
f 126/126/126 121/121/121 120/120/120
f 127/127/127 121/121/121 126/126/126
f 128/128/128 117/117/117 122/122/122
f 123/123/123 117/117/117 128/128/128
f 129/129/129 118/118/118 123/123/123
f 124/124/124 118/118/118 129/129/129
f 130/130/130 119/119/119 124/124/124
f 125/125/125 119/119/119 130/130/130
f 131/131/131 120/120/120 125/125/125
f 126/126/126 120/120/120 131/131/131
f 132/132/132 123/123/123 128/128/128
f 129/129/129 123/123/123 132/132/132
f 133/133/133 124/124/124 129/129/129
f 130/130/130 124/124/124 133/133/133
f 134/134/134 125/125/125 130/130/130
f 131/131/131 125/125/125 134/134/134
f 135/135/135 129/129/129 132/132/132
f 133/133/133 129/129/129 135/135/135
f 136/136/136 130/130/130 133/133/133
f 134/134/134 130/130/130 136/136/136
f 137/137/137 133/133/133 135/135/135
f 136/136/136 133/133/133 137/137/137
f 138/138/138 126/126/126 131/131/131
f 139/139/139 131/131/131 134/134/134
f 138/138/138 131/131/131 139/139/139
f 140/140/140 134/134/134 136/136/136
f 139/139/139 134/134/134 140/140/140
f 141/141/141 136/136/136 137/137/137
f 140/140/140 136/136/136 141/141/141
f 142/142/142 126/126/126 138/138/138
f 142/142/142 127/127/127 126/126/126
f 142/142/142 143/143/143 127/127/127
f 143/143/143 144/144/144 127/127/127
f 143/143/143 145/145/145 144/144/144
f 145/145/145 146/146/146 144/144/144
f 147/147/147 145/145/145 143/143/143
f 148/148/148 147/147/147 143/143/143
f 148/148/148 143/143/143 142/142/142
f 149/149/149 147/147/147 148/148/148
f 150/150/150 142/142/142 138/138/138
f 150/150/150 148/148/148 142/142/142
f 151/151/151 149/149/149 148/148/148
f 151/151/151 148/148/148 150/150/150
f 152/152/152 149/149/149 151/151/151
f 150/150/150 138/138/138 153/153/153
f 153/153/153 138/138/138 139/139/139
f 154/154/154 151/151/151 150/150/150
f 154/154/154 150/150/150 153/153/153
f 155/155/155 152/152/152 151/151/151
f 155/155/155 151/151/151 154/154/154
f 156/156/156 152/152/152 155/155/155
f 153/153/153 139/139/139 157/157/157
f 157/157/157 139/139/139 140/140/140
f 154/154/154 153/153/153 158/158/158
f 158/158/158 153/153/153 157/157/157
f 159/159/159 156/156/156 155/155/155
f 160/160/160 156/156/156 159/159/159
f 161/161/161 155/155/155 154/154/154
f 161/161/161 154/154/154 158/158/158
f 159/159/159 155/155/155 161/161/161
f 157/157/157 140/140/140 162/162/162
f 162/162/162 140/140/140 141/141/141
f 163/163/163 160/160/160 159/159/159
f 164/164/164 160/160/160 163/163/163
f 158/158/158 157/157/157 165/165/165
f 165/165/165 157/157/157 162/162/162
f 161/161/161 158/158/158 166/166/166
f 166/166/166 158/158/158 165/165/165
f 167/167/167 159/159/159 161/161/161
f 163/163/163 159/159/159 167/167/167
f 167/167/167 161/161/161 166/166/166
f 168/168/168 164/164/164 163/163/163
f 169/169/169 164/164/164 168/168/168
f 170/170/170 163/163/163 167/167/167
f 168/168/168 163/163/163 170/170/170
f 167/167/167 166/166/166 171/171/171
f 170/170/170 167/167/167 171/171/171
f 166/166/166 165/165/165 172/172/172
f 171/171/171 166/166/166 172/172/172
f 165/165/165 162/162/162 173/173/173
f 172/172/172 165/165/165 173/173/173
f 174/174/174 169/169/169 168/168/168
f 175/175/175 169/169/169 174/174/174
f 176/176/176 175/175/175 174/174/174
f 177/177/177 168/168/168 170/170/170
f 174/174/174 168/168/168 177/177/177
f 176/176/176 174/174/174 178/178/178
f 178/178/178 174/174/174 177/177/177
f 179/179/179 176/176/176 178/178/178
f 179/179/179 178/178/178 180/180/180
f 170/170/170 171/171/171 181/181/181
f 177/177/177 170/170/170 181/181/181
f 178/178/178 177/177/177 182/182/182
f 178/178/178 182/182/182 180/180/180
f 177/177/177 181/181/181 182/182/182
f 171/171/171 172/172/172 183/183/183
f 181/181/181 171/171/171 183/183/183
f 182/182/182 181/181/181 184/184/184
f 181/181/181 183/183/183 184/184/184
f 180/180/180 182/182/182 185/185/185
f 182/182/182 184/184/184 185/185/185
f 183/183/183 172/172/172 186/186/186
f 172/172/172 173/173/173 186/186/186
f 184/184/184 183/183/183 187/187/187
f 183/183/183 186/186/186 187/187/187
f 180/180/180 185/185/185 188/188/188
f 189/189/189 180/180/180 188/188/188
f 185/185/185 184/184/184 190/190/190
f 184/184/184 187/187/187 190/190/190
f 188/188/188 185/185/185 191/191/191
f 185/185/185 190/190/190 191/191/191
f 189/189/189 188/188/188 192/192/192
f 193/193/193 189/189/189 192/192/192
f 188/188/188 191/191/191 194/194/194
f 192/192/192 188/188/188 194/194/194
f 193/193/193 192/192/192 195/195/195
f 196/196/196 193/193/193 195/195/195
f 192/192/192 194/194/194 197/197/197
f 195/195/195 192/192/192 197/197/197
f 196/196/196 195/195/195 198/198/198
f 199/199/199 196/196/196 198/198/198
f 195/195/195 197/197/197 200/200/200
f 198/198/198 195/195/195 200/200/200
f 199/199/199 198/198/198 201/201/201
f 202/202/202 199/199/199 201/201/201
f 198/198/198 200/200/200 203/203/203
f 201/201/201 198/198/198 203/203/203
f 201/201/201 204/204/204 202/202/202
f 204/204/204 205/205/205 202/202/202
f 203/203/203 206/206/206 201/201/201
f 206/206/206 204/204/204 201/201/201
f 204/204/204 207/207/207 205/205/205
f 207/207/207 208/208/208 205/205/205
f 206/206/206 209/209/209 204/204/204
f 209/209/209 207/207/207 204/204/204
f 208/208/208 207/207/207 210/210/210
f 211/211/211 208/208/208 210/210/210
f 207/207/207 209/209/209 212/212/212
f 210/210/210 207/207/207 212/212/212
f 211/211/211 210/210/210 213/213/213
f 214/214/214 211/211/211 213/213/213
f 210/210/210 212/212/212 215/215/215
f 213/213/213 210/210/210 215/215/215
f 214/214/214 213/213/213 216/216/216
f 217/217/217 214/214/214 216/216/216
f 213/213/213 215/215/215 218/218/218
f 216/216/216 213/213/213 218/218/218
f 217/217/217 216/216/216 219/219/219
f 220/220/220 217/217/217 219/219/219
f 216/216/216 218/218/218 221/221/221
f 219/219/219 216/216/216 221/221/221
f 219/219/219 222/222/222 220/220/220
f 222/222/222 223/223/223 220/220/220
f 221/221/221 224/224/224 219/219/219
f 224/224/224 222/222/222 219/219/219
f 222/222/222 225/225/225 223/223/223
f 225/225/225 226/226/226 223/223/223
f 224/224/224 227/227/227 222/222/222
f 227/227/227 225/225/225 222/222/222
f 225/225/225 228/228/228 226/226/226
f 228/228/228 229/229/229 226/226/226
f 227/227/227 230/230/230 225/225/225
f 230/230/230 228/228/228 225/225/225
f 228/228/228 231/231/231 229/229/229
f 231/231/231 232/232/232 229/229/229
f 230/230/230 233/233/233 228/228/228
f 233/233/233 231/231/231 228/228/228
f 231/231/231 234/234/234 232/232/232
f 234/234/234 235/235/235 232/232/232
f 233/233/233 236/236/236 231/231/231
f 236/236/236 234/234/234 231/231/231
f 234/234/234 237/237/237 235/235/235
f 237/237/237 238/238/238 235/235/235
f 236/236/236 239/239/239 234/234/234
f 239/239/239 237/237/237 234/234/234
f 238/238/238 237/237/237 240/240/240
f 241/241/241 238/238/238 240/240/240
f 237/237/237 239/239/239 242/242/242
f 240/240/240 237/237/237 242/242/242
f 243/243/243 233/233/233 230/230/230
f 244/244/244 236/236/236 233/233/233
f 243/243/243 244/244/244 233/233/233
f 245/245/245 239/239/239 236/236/236
f 244/244/244 245/245/245 236/236/236
f 242/242/242 239/239/239 246/246/246
f 239/239/239 245/245/245 246/246/246
f 247/247/247 243/243/243 230/230/230
f 247/247/247 230/230/230 227/227/227
f 248/248/248 247/247/247 227/227/227
f 248/248/248 227/227/227 224/224/224
f 249/249/249 248/248/248 224/224/224
f 249/249/249 224/224/224 221/221/221
f 250/250/250 249/249/249 221/221/221
f 221/221/221 218/218/218 250/250/250
f 218/218/218 251/251/251 250/250/250
f 218/218/218 215/215/215 251/251/251
f 215/215/215 252/252/252 251/251/251
f 215/215/215 212/212/212 252/252/252
f 212/212/212 253/253/253 252/252/252
f 212/212/212 209/209/209 253/253/253
f 209/209/209 254/254/254 253/253/253
f 254/254/254 209/209/209 206/206/206
f 255/255/255 254/254/254 206/206/206
f 255/255/255 206/206/206 203/203/203
f 256/256/256 255/255/255 203/203/203
f 203/203/203 200/200/200 256/256/256
f 200/200/200 257/257/257 256/256/256
f 200/200/200 197/197/197 257/257/257
f 197/197/197 258/258/258 257/257/257
f 197/197/197 194/194/194 258/258/258
f 194/194/194 259/259/259 258/258/258
f 194/194/194 191/191/191 259/259/259
f 191/191/191 260/260/260 259/259/259
f 191/191/191 190/190/190 260/260/260
f 190/190/190 261/261/261 260/260/260
f 190/190/190 187/187/187 261/261/261
f 187/187/187 262/262/262 261/261/261
f 187/187/187 186/186/186 262/262/262
f 186/186/186 263/263/263 262/262/262
f 186/186/186 173/173/173 263/263/263
f 173/173/173 264/264/264 263/263/263
f 173/173/173 162/162/162 264/264/264
f 162/162/162 141/141/141 264/264/264
f 264/264/264 141/141/141 265/265/265
f 141/141/141 137/137/137 265/265/265
f 263/263/263 264/264/264 266/266/266
f 264/264/264 265/265/265 266/266/266
f 262/262/262 263/263/263 267/267/267
f 263/263/263 266/266/266 267/267/267
f 261/261/261 262/262/262 268/268/268
f 262/262/262 267/267/267 268/268/268
f 260/260/260 261/261/261 269/269/269
f 261/261/261 268/268/268 269/269/269
f 265/265/265 137/137/137 270/270/270
f 137/137/137 135/135/135 270/270/270
f 266/266/266 265/265/265 271/271/271
f 265/265/265 270/270/270 271/271/271
f 267/267/267 266/266/266 272/272/272
f 266/266/266 271/271/271 272/272/272
f 268/268/268 267/267/267 273/273/273
f 267/267/267 272/272/272 273/273/273
f 270/270/270 135/135/135 274/274/274
f 135/135/135 132/132/132 274/274/274
f 272/272/272 271/271/271 275/275/275
f 273/273/273 272/272/272 275/275/275
f 271/271/271 270/270/270 276/276/276
f 270/270/270 274/274/274 276/276/276
f 271/271/271 276/276/276 275/275/275
f 268/268/268 273/273/273 277/277/277
f 269/269/269 268/268/268 277/277/277
f 274/274/274 132/132/132 278/278/278
f 132/132/132 128/128/128 278/278/278
f 279/279/279 273/273/273 275/275/275
f 277/277/277 273/273/273 279/279/279
f 275/275/275 276/276/276 280/280/280
f 279/279/279 275/275/275 280/280/280
f 276/276/276 274/274/274 281/281/281
f 274/274/274 278/278/278 281/281/281
f 276/276/276 281/281/281 280/280/280
f 278/278/278 128/128/128 282/282/282
f 128/128/128 122/122/122 282/282/282
f 281/281/281 278/278/278 283/283/283
f 278/278/278 282/282/282 283/283/283
f 280/280/280 281/281/281 284/284/284
f 281/281/281 283/283/283 284/284/284
f 285/285/285 279/279/279 280/280/280
f 285/285/285 280/280/280 284/284/284
f 282/282/282 122/122/122 286/286/286
f 122/122/122 116/116/116 286/286/286
f 283/283/283 282/282/282 287/287/287
f 282/282/282 286/286/286 287/287/287
f 284/284/284 283/283/283 288/288/288
f 283/283/283 287/287/287 288/288/288
f 286/286/286 116/116/116 289/289/289
f 116/116/116 101/101/101 289/289/289
f 287/287/287 286/286/286 290/290/290
f 286/286/286 289/289/289 290/290/290
f 289/289/289 101/101/101 291/291/291
f 101/101/101 90/90/90 291/291/291
f 291/291/291 90/90/90 89/89/89
f 289/289/289 291/291/291 292/292/292
f 290/290/290 289/289/289 292/292/292
f 291/291/291 89/89/89 293/293/293
f 292/292/292 291/291/291 293/293/293
f 293/293/293 89/89/89 88/88/88
f 287/287/287 290/290/290 294/294/294
f 288/288/288 287/287/287 294/294/294
f 295/295/295 284/284/284 288/288/288
f 295/295/295 285/285/285 284/284/284
f 290/290/290 292/292/292 296/296/296
f 294/294/294 290/290/290 296/296/296
f 293/293/293 88/88/88 297/297/297
f 297/297/297 88/88/88 43/43/43
f 297/297/297 43/43/43 41/41/41
f 292/292/292 293/293/293 298/298/298
f 298/298/298 293/293/293 297/297/297
f 296/296/296 292/292/292 298/298/298
f 299/299/299 297/297/297 41/41/41
f 298/298/298 297/297/297 299/299/299
f 299/299/299 41/41/41 42/42/42
f 300/300/300 288/288/288 294/294/294
f 300/300/300 295/295/295 288/288/288
f 301/301/301 298/298/298 299/299/299
f 296/296/296 298/298/298 301/301/301
f 302/302/302 299/299/299 42/42/42
f 301/301/301 299/299/299 302/302/302
f 303/303/303 294/294/294 296/296/296
f 303/303/303 300/300/300 294/294/294
f 304/304/304 296/296/296 301/301/301
f 304/304/304 303/303/303 296/296/296
f 302/302/302 42/42/42 305/305/305
f 305/305/305 42/42/42 40/40/40
f 306/306/306 301/301/301 302/302/302
f 304/304/304 301/301/301 306/306/306
f 305/305/305 40/40/40 307/307/307
f 307/307/307 40/40/40 38/38/38
f 308/308/308 302/302/302 305/305/305
f 306/306/306 302/302/302 308/308/308
f 307/307/307 38/38/38 309/309/309
f 38/38/38 35/35/35 309/309/309
f 310/310/310 305/305/305 307/307/307
f 308/308/308 305/305/305 310/310/310
f 309/309/309 35/35/35 311/311/311
f 35/35/35 36/36/36 311/311/311
f 307/307/307 309/309/309 312/312/312
f 310/310/310 307/307/307 312/312/312
f 309/309/309 311/311/311 313/313/313
f 312/312/312 309/309/309 313/313/313
f 311/311/311 36/36/36 314/314/314
f 36/36/36 37/37/37 314/314/314
f 313/313/313 311/311/311 315/315/315
f 311/311/311 314/314/314 315/315/315
f 314/314/314 37/37/37 316/316/316
f 37/37/37 39/39/39 316/316/316
f 315/315/315 314/314/314 317/317/317
f 314/314/314 316/316/316 317/317/317
f 318/318/318 308/308/308 310/310/310
f 310/310/310 312/312/312 319/319/319
f 318/318/318 310/310/310 319/319/319
f 312/312/312 313/313/313 320/320/320
f 319/319/319 312/312/312 320/320/320
f 313/313/313 315/315/315 321/321/321
f 320/320/320 313/313/313 321/321/321
f 315/315/315 317/317/317 322/322/322
f 321/321/321 315/315/315 322/322/322
f 323/323/323 308/308/308 318/318/318
f 323/323/323 306/306/306 308/308/308
f 324/324/324 306/306/306 323/323/323
f 324/324/324 304/304/304 306/306/306
f 324/324/324 325/325/325 304/304/304
f 325/325/325 303/303/303 304/304/304
f 326/326/326 324/324/324 323/323/323
f 324/324/324 326/326/326 325/325/325
f 327/327/327 323/323/323 318/318/318
f 326/326/326 323/323/323 327/327/327
f 325/325/325 328/328/328 303/303/303
f 328/328/328 300/300/300 303/303/303
f 326/326/326 329/329/329 325/325/325
f 325/325/325 329/329/329 328/328/328
f 328/328/328 330/330/330 300/300/300
f 330/330/330 295/295/295 300/300/300
f 327/327/327 318/318/318 331/331/331
f 318/318/318 319/319/319 331/331/331
f 332/332/332 326/326/326 327/327/327
f 326/326/326 332/332/332 329/329/329
f 329/329/329 333/333/333 328/328/328
f 328/328/328 333/333/333 330/330/330
f 330/330/330 334/334/334 295/295/295
f 334/334/334 285/285/285 295/295/295
f 327/327/327 331/331/331 335/335/335
f 332/332/332 327/327/327 335/335/335
f 331/331/331 319/319/319 336/336/336
f 319/319/319 320/320/320 336/336/336
f 332/332/332 337/337/337 329/329/329
f 329/329/329 337/337/337 333/333/333
f 333/333/333 338/338/338 330/330/330
f 330/330/330 338/338/338 334/334/334
f 334/334/334 339/339/339 285/285/285
f 339/339/339 279/279/279 285/285/285
f 339/339/339 277/277/277 279/279/279
f 334/334/334 340/340/340 339/339/339
f 338/338/338 340/340/340 334/334/334
f 333/333/333 341/341/341 338/338/338
f 337/337/337 341/341/341 333/333/333
f 342/342/342 337/337/337 332/332/332
f 335/335/335 342/342/342 332/332/332
f 339/339/339 343/343/343 277/277/277
f 340/340/340 343/343/343 339/339/339
f 338/338/338 344/344/344 340/340/340
f 341/341/341 344/344/344 338/338/338
f 345/345/345 341/341/341 337/337/337
f 342/342/342 345/345/345 337/337/337
f 343/343/343 346/346/346 277/277/277
f 269/269/269 277/277/277 346/346/346
f 340/340/340 347/347/347 343/343/343
f 344/344/344 347/347/347 340/340/340
f 348/348/348 344/344/344 341/341/341
f 345/345/345 348/348/348 341/341/341
f 343/343/343 349/349/349 346/346/346
f 347/347/347 349/349/349 343/343/343
f 350/350/350 269/269/269 346/346/346
f 260/260/260 269/269/269 350/350/350
f 259/259/259 260/260/260 350/350/350
f 351/351/351 347/347/347 344/344/344
f 348/348/348 351/351/351 344/344/344
f 350/350/350 346/346/346 352/352/352
f 349/349/349 352/352/352 346/346/346
f 259/259/259 350/350/350 353/353/353
f 353/353/353 350/350/350 352/352/352
f 258/258/258 259/259/259 353/353/353
f 354/354/354 349/349/349 347/347/347
f 351/351/351 354/354/354 347/347/347
f 355/355/355 352/352/352 349/349/349
f 353/353/353 352/352/352 355/355/355
f 354/354/354 355/355/355 349/349/349
f 258/258/258 353/353/353 356/356/356
f 356/356/356 353/353/353 355/355/355
f 257/257/257 258/258/258 356/356/356
f 357/357/357 355/355/355 354/354/354
f 356/356/356 355/355/355 357/357/357
f 257/257/257 356/356/356 358/358/358
f 358/358/358 356/356/356 357/357/357
f 256/256/256 257/257/257 358/358/358
f 359/359/359 354/354/354 351/351/351
f 359/359/359 357/357/357 354/354/354
f 358/358/358 360/360/360 256/256/256
f 360/360/360 255/255/255 256/256/256
f 361/361/361 359/359/359 351/351/351
f 361/361/361 351/351/351 348/348/348
f 359/359/359 362/362/362 357/357/357
f 362/362/362 359/359/359 361/361/361
f 357/357/357 363/363/363 358/358/358
f 363/363/363 360/360/360 358/358/358
f 362/362/362 363/363/363 357/357/357
f 360/360/360 364/364/364 255/255/255
f 364/364/364 254/254/254 255/255/255
f 363/363/363 365/365/365 360/360/360
f 363/363/363 362/362/362 365/365/365
f 365/365/365 364/364/364 360/360/360
f 254/254/254 364/364/364 366/366/366
f 253/253/253 254/254/254 366/366/366
f 362/362/362 367/367/367 365/365/365
f 367/367/367 362/362/362 361/361/361
f 364/364/364 365/365/365 368/368/368
f 368/368/368 365/365/365 367/367/367
f 366/366/366 364/364/364 368/368/368
f 253/253/253 366/366/366 369/369/369
f 252/252/252 253/253/253 369/369/369
f 370/370/370 367/367/367 361/361/361
f 370/370/370 368/368/368 367/367/367
f 366/366/366 368/368/368 371/371/371
f 369/369/369 366/366/366 371/371/371
f 371/371/371 368/368/368 370/370/370
f 252/252/252 369/369/369 372/372/372
f 251/251/251 252/252/252 372/372/372
f 373/373/373 370/370/370 361/361/361
f 373/373/373 361/361/361 348/348/348
f 373/373/373 348/348/348 345/345/345
f 374/374/374 371/371/371 370/370/370
f 374/374/374 370/370/370 373/373/373
f 369/369/369 371/371/371 375/375/375
f 372/372/372 369/369/369 375/375/375
f 375/375/375 371/371/371 374/374/374
f 376/376/376 373/373/373 345/345/345
f 376/376/376 374/374/374 373/373/373
f 376/376/376 345/345/345 342/342/342
f 251/251/251 372/372/372 377/377/377
f 250/250/250 251/251/251 377/377/377
f 378/378/378 375/375/375 374/374/374
f 378/378/378 374/374/374 376/376/376
f 379/379/379 376/376/376 342/342/342
f 379/379/379 378/378/378 376/376/376
f 379/379/379 342/342/342 335/335/335
f 372/372/372 375/375/375 380/380/380
f 380/380/380 375/375/375 378/378/378
f 377/377/377 372/372/372 380/380/380
f 377/377/377 381/381/381 250/250/250
f 381/381/381 249/249/249 250/250/250
f 382/382/382 379/379/379 335/335/335
f 335/335/335 331/331/331 382/382/382
f 331/331/331 336/336/336 382/382/382
f 383/383/383 378/378/378 379/379/379
f 382/382/382 383/383/383 379/379/379
f 382/382/382 336/336/336 383/383/383
f 383/383/383 380/380/380 378/378/378
f 336/336/336 384/384/384 383/383/383
f 383/383/383 384/384/384 380/380/380
f 336/336/336 320/320/320 384/384/384
f 320/320/320 321/321/321 384/384/384
f 380/380/380 385/385/385 377/377/377
f 384/384/384 385/385/385 380/380/380
f 384/384/384 321/321/321 385/385/385
f 385/385/385 381/381/381 377/377/377
f 321/321/321 322/322/322 385/385/385
f 385/385/385 322/322/322 381/381/381
f 381/381/381 386/386/386 249/249/249
f 322/322/322 386/386/386 381/381/381
f 386/386/386 248/248/248 249/249/249
f 322/322/322 317/317/317 386/386/386
f 386/386/386 387/387/387 248/248/248
f 317/317/317 387/387/387 386/386/386
f 387/387/387 247/247/247 248/248/248
f 317/317/317 316/316/316 387/387/387
f 387/387/387 388/388/388 247/247/247
f 316/316/316 388/388/388 387/387/387
f 388/388/388 243/243/243 247/247/247
f 316/316/316 39/39/39 388/388/388
f 388/388/388 389/389/389 243/243/243
f 39/39/39 389/389/389 388/388/388
f 389/389/389 244/244/244 243/243/243
f 39/39/39 33/33/33 389/389/389
f 389/389/389 390/390/390 244/244/244
f 33/33/33 390/390/390 389/389/389
f 390/390/390 245/245/245 244/244/244
f 390/390/390 33/33/33 26/26/26
f 245/245/245 390/390/390 391/391/391
f 391/391/391 390/390/390 26/26/26
f 391/391/391 26/26/26 27/27/27
f 246/246/246 245/245/245 391/391/391
f 392/392/392 391/391/391 27/27/27
f 246/246/246 391/391/391 392/392/392
f 27/27/27 393/393/393 392/392/392
f 394/394/394 246/246/246 392/392/392
f 242/242/242 246/246/246 394/394/394
f 395/395/395 392/392/392 393/393/393
f 396/396/396 395/395/395 393/393/393
f 392/392/392 395/395/395 397/397/397
f 394/394/394 392/392/392 397/397/397
f 395/395/395 396/396/396 398/398/398
f 397/397/397 395/395/395 398/398/398
f 396/396/396 399/399/399 398/398/398
f 399/399/399 400/400/400 398/398/398
f 398/398/398 400/400/400 401/401/401
f 398/398/398 401/401/401 397/397/397
f 400/400/400 402/402/402 401/401/401
f 403/403/403 242/242/242 394/394/394
f 240/240/240 242/242/242 403/403/403
f 397/397/397 404/404/404 394/394/394
f 401/401/401 404/404/404 397/397/397
f 404/404/404 403/403/403 394/394/394
f 401/401/401 402/402/402 405/405/405
f 401/401/401 405/405/405 404/404/404
f 402/402/402 406/406/406 405/405/405
f 407/407/407 240/240/240 403/403/403
f 241/241/241 240/240/240 407/407/407
f 404/404/404 408/408/408 403/403/403
f 405/405/405 408/408/408 404/404/404
f 408/408/408 407/407/407 403/403/403
f 405/405/405 406/406/406 409/409/409
f 405/405/405 409/409/409 408/408/408
f 406/406/406 410/410/410 409/409/409
f 411/411/411 241/241/241 407/407/407
f 412/412/412 241/241/241 411/411/411
f 408/408/408 413/413/413 407/407/407
f 409/409/409 413/413/413 408/408/408
f 413/413/413 411/411/411 407/407/407
f 409/409/409 410/410/410 414/414/414
f 409/409/409 414/414/414 413/413/413
f 410/410/410 415/415/415 414/414/414
f 416/416/416 412/412/412 411/411/411
f 417/417/417 412/412/412 416/416/416
f 418/418/418 417/417/417 416/416/416
f 419/419/419 418/418/418 416/416/416
f 413/413/413 420/420/420 411/411/411
f 420/420/420 416/416/416 411/411/411
f 420/420/420 419/419/419 416/416/416
f 414/414/414 420/420/420 413/413/413
f 421/421/421 419/419/419 420/420/420
f 414/414/414 421/421/421 420/420/420
f 414/414/414 415/415/415 421/421/421
f 415/415/415 422/422/422 421/421/421
f 425/425/425 424/424/424 423/423/423
f 426/426/426 425/425/425 423/423/423
f 426/426/426 423/423/423 427/427/427
f 426/426/426 428/428/428 425/425/425
f 428/428/428 429/429/429 425/425/425
f 430/430/430 426/426/426 427/427/427
f 430/430/430 427/427/427 431/431/431
f 428/428/428 432/432/432 429/429/429
f 432/432/432 433/433/433 429/429/429
f 434/434/434 428/428/428 426/426/426
f 430/430/430 434/434/434 426/426/426
f 435/435/435 430/430/430 431/431/431
f 435/435/435 431/431/431 436/436/436
f 437/437/437 432/432/432 428/428/428
f 434/434/434 437/437/437 428/428/428
f 438/438/438 434/434/434 430/430/430
f 435/435/435 438/438/438 430/430/430
f 439/439/439 435/435/435 436/436/436
f 439/439/439 436/436/436 440/440/440
f 441/441/441 437/437/437 434/434/434
f 438/438/438 441/441/441 434/434/434
f 442/442/442 438/438/438 435/435/435
f 439/439/439 442/442/442 435/435/435
f 443/443/443 439/439/439 440/440/440
f 440/440/440 444/444/444 443/443/443
f 443/443/443 445/445/445 439/439/439
f 445/445/445 442/442/442 439/439/439
f 444/444/444 446/446/446 443/443/443
f 443/443/443 446/446/446 445/445/445
f 444/444/444 447/447/447 446/446/446
f 442/442/442 448/448/448 438/438/438
f 448/448/448 441/441/441 438/438/438
f 445/445/445 449/449/449 442/442/442
f 449/449/449 448/448/448 442/442/442
f 447/447/447 450/450/450 446/446/446
f 450/450/450 447/447/447 451/451/451
f 446/446/446 452/452/452 445/445/445
f 445/445/445 452/452/452 449/449/449
f 446/446/446 450/450/450 452/452/452
f 453/453/453 450/450/450 451/451/451
f 453/453/453 451/451/451 454/454/454
f 455/455/455 453/453/453 454/454/454
f 455/455/455 454/454/454 456/456/456
f 457/457/457 455/455/455 456/456/456
f 457/457/457 456/456/456 458/458/458
f 459/459/459 457/457/457 458/458/458
f 458/458/458 460/460/460 459/459/459
f 460/460/460 461/461/461 459/459/459
f 460/460/460 462/462/462 461/461/461
f 459/459/459 463/463/463 457/457/457
f 459/459/459 461/461/461 463/463/463
f 457/457/457 464/464/464 455/455/455
f 463/463/463 464/464/464 457/457/457
f 455/455/455 465/465/465 453/453/453
f 464/464/464 465/465/465 455/455/455
f 453/453/453 466/466/466 450/450/450
f 465/465/465 466/466/466 453/453/453
f 462/462/462 467/467/467 461/461/461
f 462/462/462 468/468/468 467/467/467
f 461/461/461 469/469/469 463/463/463
f 461/461/461 467/467/467 469/469/469
f 463/463/463 470/470/470 464/464/464
f 463/463/463 469/469/469 470/470/470
f 464/464/464 471/471/471 465/465/465
f 470/470/470 471/471/471 464/464/464
f 468/468/468 472/472/472 467/467/467
f 468/468/468 473/473/473 472/472/472
f 467/467/467 474/474/474 469/469/469
f 467/467/467 472/472/472 474/474/474
f 473/473/473 475/475/475 472/472/472
f 473/473/473 476/476/476 475/475/475
f 465/465/465 477/477/477 466/466/466
f 471/471/471 477/477/477 465/465/465
f 469/469/469 478/478/478 470/470/470
f 469/469/469 474/474/474 478/478/478
f 472/472/472 479/479/479 474/474/474
f 472/472/472 475/475/475 479/479/479
f 476/476/476 480/480/480 475/475/475
f 476/476/476 481/481/481 480/480/480
f 474/474/474 482/482/482 478/478/478
f 474/474/474 479/479/479 482/482/482
f 482/482/482 483/483/483 478/478/478
f 483/483/483 484/484/484 478/478/478
f 478/478/478 484/484/484 470/470/470
f 484/484/484 485/485/485 470/470/470
f 470/470/470 485/485/485 471/471/471
f 485/485/485 486/486/486 471/471/471
f 471/471/471 486/486/486 477/477/477
f 479/479/479 487/487/487 482/482/482
f 486/486/486 488/488/488 477/477/477
f 479/479/479 489/489/489 487/487/487
f 475/475/475 489/489/489 479/479/479
f 489/489/489 490/490/490 487/487/487
f 475/475/475 480/480/480 489/489/489
f 477/477/477 488/488/488 491/491/491
f 477/477/477 491/491/491 466/466/466
f 488/488/488 492/492/492 491/491/491
f 489/489/489 493/493/493 490/490/490
f 480/480/480 493/493/493 489/489/489
f 493/493/493 494/494/494 490/490/490
f 466/466/466 491/491/491 495/495/495
f 466/466/466 495/495/495 450/450/450
f 450/450/450 495/495/495 452/452/452
f 491/491/491 492/492/492 496/496/496
f 491/491/491 496/496/496 495/495/495
f 492/492/492 497/497/497 496/496/496
f 452/452/452 495/495/495 498/498/498
f 495/495/495 496/496/496 498/498/498
f 496/496/496 497/497/497 498/498/498
f 497/497/497 499/499/499 498/498/498
f 452/452/452 498/498/498 449/449/449
f 498/498/498 499/499/499 449/449/449
f 499/499/499 500/500/500 449/449/449
f 449/449/449 500/500/500 448/448/448
f 500/500/500 501/501/501 448/448/448
f 448/448/448 501/501/501 441/441/441
f 501/501/501 502/502/502 441/441/441
f 441/441/441 502/502/502 437/437/437
f 502/502/502 503/503/503 437/437/437
f 437/437/437 503/503/503 432/432/432
f 503/503/503 504/504/504 432/432/432
f 432/432/432 504/504/504 433/433/433
f 504/504/504 505/505/505 433/433/433
f 433/433/433 505/505/505 506/506/506
f 505/505/505 507/507/507 506/506/506
f 506/506/506 507/507/507 508/508/508
f 507/507/507 509/509/509 508/508/508
f 508/508/508 509/509/509 510/510/510
f 509/509/509 511/511/511 510/510/510
f 510/510/510 511/511/511 512/512/512
f 511/511/511 513/513/513 512/512/512
f 512/512/512 513/513/513 514/514/514
f 513/513/513 515/515/515 514/514/514
f 514/514/514 515/515/515 516/516/516
f 515/515/515 517/517/517 516/516/516
f 516/516/516 517/517/517 518/518/518
f 517/517/517 519/519/519 518/518/518
f 518/518/518 519/519/519 520/520/520
f 519/519/519 521/521/521 520/520/520
f 520/520/520 521/521/521 522/522/522
f 521/521/521 523/523/523 522/522/522
f 526/526/526 525/525/525 524/524/524
f 527/527/527 526/526/526 524/524/524
f 528/528/528 526/526/526 527/527/527
f 529/529/529 528/528/528 527/527/527
f 530/530/530 528/528/528 529/529/529
f 531/531/531 530/530/530 529/529/529
f 533/533/533 532/532/532 494/494/494
f 534/534/534 533/533/533 494/494/494
f 535/535/535 533/533/533 534/534/534
f 536/536/536 534/534/534 494/494/494
f 493/493/493 536/536/536 494/494/494
f 537/537/537 535/535/535 534/534/534
f 538/538/538 535/535/535 537/537/537
f 534/534/534 536/536/536 539/539/539
f 537/537/537 534/534/534 539/539/539
f 539/539/539 536/536/536 540/540/540
f 537/537/537 539/539/539 541/541/541
f 542/542/542 536/536/536 493/493/493
f 536/536/536 542/542/542 540/540/540
f 480/480/480 542/542/542 493/493/493
f 540/540/540 542/542/542 543/543/543
f 481/481/481 542/542/542 480/480/480
f 542/542/542 481/481/481 543/543/543
f 544/544/544 538/538/538 537/537/537
f 544/544/544 537/537/537 541/541/541
f 545/545/545 538/538/538 544/544/544
f 546/546/546 544/544/544 541/541/541
f 546/546/546 545/545/545 544/544/544
f 547/547/547 546/546/546 541/541/541
f 548/548/548 545/545/545 546/546/546
f 549/549/549 546/546/546 547/547/547
f 549/549/549 548/548/548 546/546/546
f 550/550/550 549/549/549 547/547/547
f 551/551/551 548/548/548 549/549/549
f 550/550/550 551/551/551 549/549/549
