g Water_Alpha
v 652.7982 66.45085 932.6512
v 594.6492 66.45113 975.4178
v 593.9524 91.5204 974.2747
v 651.9926 91.51791 931.581
v 702.599 66.44939 880.3342
v 701.7391 91.50992 879.3093
v 780.4124 66.44835 757.6447
v 779.4623 91.50284 756.7508
v 922.6481 66.44862 503.7136
v 921.5295 91.50139 503.1028
v 1059.331 66.44835 246.7511
v 1058.066 91.50284 246.4352
v 1120.455 66.44939 114.95
v 1119.128 91.50992 114.781
v 1137.532 66.45087 44.76757
v 1136.196 91.51791 44.66873
v 1142.061 66.45111 -27.27242
v 1140.723 91.52039 -27.24049
v 1134.099 66.45087 -99.0141
v 1132.769 91.5179 -98.85168
v 1113.691 66.44937 -168.3014
v 1112.374 91.5099 -168.0693
v 1046.346 66.44835 -297.0346
v 1045.097 91.50282 -296.6588
v 897.5527 66.44862 -547.1799
v 896.4645 91.50137 -546.5166
v 743.3579 66.44731 -794.0327
v 742.4519 91.50146 -793.0944
v 659.7905 66.30933 -912.7025
v 658.9696 91.48543 -911.7775
v 607.5367 66.44951 -962.7473
v 606.7827 91.51616 -961.6404
v 547.4119 66.45111 -1002.69
v 546.7704 91.52039 -1001.515
v 481.3005 66.45085 -1031.666
v 480.7764 91.51791 -1030.433
v 411.0922 66.44939 -1048.636
v 410.6346 91.50992 -1047.379
v 265.9333 66.44835 -1054.679
v 265.6342 91.50282 -1053.41
v -25.09546 66.44862 -1050.893
v -25.06497 91.50137 -1049.619
v -315.9732 66.44835 -1040.783
v -315.6137 91.50282 -1039.529
v -460.6782 66.44939 -1027.818
v -460.161 91.50992 -1026.584
v -529.9965 66.45087 -1007.516
v -529.4139 91.51791 -1006.309
v -594.6494 66.45113 -975.4177
v -593.9526 91.5204 -974.2748
v -652.7983 66.45087 -932.6512
v -651.9927 91.51791 -931.5809
v -702.5991 66.44939 -880.3342
v -701.7393 91.50992 -879.3094
v -780.4124 66.44835 -757.6448
v -779.4623 91.50284 -756.7509
v -922.6481 66.44862 -503.7136
v -921.5295 91.50136 -503.1029
v -1059.331 66.44835 -246.7511
v -1058.066 91.50282 -246.4353
v -1120.455 66.44939 -114.9502
v -1119.128 91.50992 -114.7812
v -1137.532 66.45088 -44.76777
v -1136.196 91.51791 -44.66895
v -1142.061 66.45111 27.27219
v -1140.723 91.52039 27.24024
v -1134.099 66.45087 99.01387
v -1132.769 91.5179 98.85143
v -1113.691 66.44939 168.3012
v -1112.374 91.5099 168.0691
v -1046.346 66.44835 297.0344
v -1045.097 91.50282 296.6586
v -897.5527 66.44864 547.1797
v -896.4646 91.50137 546.5164
v -743.3583 66.44835 794.0323
v -742.452 91.50281 793.094
v -659.7772 66.44939 912.8676
v -658.9675 91.50989 911.803
v -607.535 66.44933 962.7487
v -606.7822 91.5159 961.6409
v -547.3211 66.26234 1002.591
v -546.7628 91.44341 1001.502
v -479.6734 61.38483 1028.484
v -480.7794 91.41336 1030.44
v -411.1236 66.40189 1048.628
v -410.6356 91.45894 1047.382
v -265.9334 66.44833 1054.679
v -265.6343 91.50276 1053.41
v 25.09538 66.44862 1050.894
v 25.06489 91.50139 1049.62
v 315.9731 66.44835 1040.784
v 315.6136 91.50284 1039.529
v 460.6779 66.44939 1027.818
v 460.1608 91.50992 1026.584
v 529.9962 66.45085 1007.516
v 529.4138 91.51791 1006.309
v 594.6492 66.45113 975.4178
v -479.2726 115.3797 1027.174
v -409.4301 115.3447 1044.035
v -264.9009 115.3426 1050.047
v 24.98501 115.3423 1046.276
v 314.7205 115.3426 1036.206
v 458.7981 115.3447 1023.301
v 527.7476 115.347 1003.106
v -545.0313 115.3476 998.329
v -478.0564 131.9944 1023.879
v -604.8413 115.3469 958.5959
v 592.0628 115.3478 971.1752
v -408.6799 131.9944 1040.645
v -543.3582 131.9944 995.2647
v -656.806 115.3447 908.9816
v 649.9083 115.347 928.6322
v 699.4453 115.3447 876.5941
v 647.6771 131.9944 925.9484
v 776.9169 115.3426 754.4343
v -476.4184 144.0367 1019.191
v -740.0203 115.3426 790.6588
v 590.2454 131.9944 968.1942
v 696.8848 131.9944 874.2494
v -893.6088 115.3423 544.7754
v 644.4357 144.0367 922.1857
v 526.3839 131.9944 999.8929
v -1041.818 115.3426 295.6125
v 587.6657 144.0367 963.9626
v 457.8867 131.9944 1019.951
v -1108.876 115.3447 167.4402
v 524.524 144.0367 995.2881
v 314.2333 131.9944 1032.792
v -1129.173 115.347 98.5208
v -1137.094 115.3478 27.15366
v -1125.734 131.9944 97.93053
v -1132.589 115.347 -44.51017
v 456.6941 144.0367 1015.136
v 24.90291 131.9944 1042.837
v -1105.565 131.9944 166.3951
v -1133.604 131.9944 27.07032
v -1115.604 115.3447 -114.3199
v 313.6296 144.0367 1027.877
v -264.5772 131.9944 1046.613
v -1120.854 144.0367 97.00482
v -1129.125 131.9944 -44.08477
v -1054.741 115.3426 -245.5469
v 24.78459 144.0367 1037.883
v -407.7184 144.0367 1035.778
v -1128.649 144.0367 26.95199
v -1112.247 131.9944 -113.4341
v -918.5939 115.3423 -501.5001
v -264.2088 144.0367 1041.676
v -1124.207 144.0367 -43.39305
v -1051.54 131.9944 -244.2618
v -776.9171 115.3426 -754.4344
v -1107.48 144.0367 -112.0593
v -915.5751 131.9944 -499.8521
v -699.4454 115.3447 -876.5941
v -1046.982 144.0367 -242.3273
v -649.9083 115.347 -928.6322
v -592.0629 115.3478 -971.1752
v -647.6772 131.9944 -925.9482
v -696.8849 131.9944 -874.2493
v -774.1053 131.9944 -752.4373
v -527.7476 115.347 -1003.106
v -590.2455 131.9944 -968.1941
v -644.4359 144.0367 -922.1855
v -458.7983 115.3447 -1023.301
v -526.384 131.9944 -999.893
v -314.7207 115.3426 -1036.206
v -911.2252 144.0367 -497.4773
v -693.1509 144.0367 -870.9832
v -587.6658 144.0367 -963.9625
v -457.8869 131.9944 -1019.951
v -24.98514 115.3423 -1046.276
v -770.0132 144.0367 -749.6494
v -639.2356 154.3498 -916.1489
v -524.5242 144.0367 -995.288
v -314.2335 131.9944 -1032.791
v 264.9008 115.3426 -1050.047
v -687.1603 154.3498 -865.7435
v -583.5271 154.3498 -957.1738
v -456.6943 144.0367 -1015.136
v -24.90303 131.9944 -1042.837
v 409.4301 115.3447 -1044.035
v -632.4906 162.3007 -908.3188
v -521.5403 154.3498 -987.9002
v -313.6298 144.0367 -1027.877
v 479.265 115.347 -1027.153
v 545.031 115.3478 -998.3292
v 478.0563 131.9944 -1023.879
v 604.8412 115.347 -958.5961
v -578.1589 162.3007 -948.3681
v 408.6797 131.9944 -1040.645
v 264.5771 131.9944 -1046.613
v 543.3581 131.9944 -995.265
v 656.8058 115.3445 -908.9818
v 476.4184 144.0367 -1019.191
v 602.7408 131.9944 -955.8087
v 740.0202 115.3426 -790.659
v -24.7847 144.0367 -1037.883
v 407.7183 144.0367 -1035.778
v 540.9834 144.0367 -990.915
v 654.3602 131.9944 -906.5175
v 893.6088 115.3423 -544.7755
v 264.2087 144.0367 -1041.676
v 473.7904 154.3498 -1011.669
v 599.6828 144.0367 -951.8956
v 737.3069 131.9944 -788.53
v 1041.818 115.3426 -295.6126
v 406.1758 154.3498 -1027.97
v 537.1733 154.3498 -983.9362
v 650.7864 144.0367 -903.077
v 890.6721 131.9944 -542.9854
v 1108.876 115.3447 -167.4403
v 470.3819 162.3007 -1001.912
v 594.7766 154.3498 -945.6174
v 733.3527 144.0367 -785.5499
v 1129.173 115.347 -98.52097
v 1137.094 115.3478 -27.15383
v 1125.734 131.9944 -97.93066
v 1132.589 115.347 44.51003
v 532.2314 162.3007 -974.8843
v 1105.565 131.9944 -166.3953
v 1038.682 131.9944 -294.1762
v 1133.604 131.9944 -27.07046
v 1115.604 115.3447 114.3197
v 1120.854 144.0367 -97.00494
v 1129.125 131.9944 44.08464
v 1054.741 115.3426 245.5468
v 886.4406 144.0367 -540.4056
v 1100.869 144.0367 -164.7946
v 1128.649 144.0367 -26.95213
v 1112.247 131.9944 113.4339
v 918.5936 115.3423 501.5
v 1051.54 131.9944 244.2616
v 1124.207 144.0367 43.39291
v 1113.026 154.3498 -95.51976
v 915.575 131.9944 499.852
v 1107.48 144.0367 112.0592
v 1120.7 154.3498 -26.76231
v 774.1051 131.9944 752.4371
v 1046.982 144.0367 242.3271
v 1116.317 154.3498 42.28308
v 693.1508 144.0367 870.9833
v 911.225 144.0367 497.4772
v 1099.833 154.3498 109.8536
v 639.2355 154.3498 916.149
v 770.0131 144.0367 749.6494
v 1039.67 154.3498 239.2236
v 687.1602 154.3498 865.7436
v 583.527 154.3498 957.1738
v 904.2463 154.3498 493.6673
v 763.4481 154.3498 745.1766
v 632.4904 162.3007 908.3188
v 521.5402 154.3498 987.9003
v 679.3898 162.3007 858.9471
v 578.1587 162.3007 948.3682
v 454.7806 154.3498 1007.41
v 624.6143 167.2566 899.1758
v 517.6699 162.3007 978.3176
v 312.6613 154.3498 1019.992
v 571.8903 167.2566 938.0859
v 452.2987 162.3007 997.39
v 24.59478 154.3498 1029.934
v 513.1506 167.2566 967.1281
v 311.4051 162.3007 1009.765
v 449.4007 167.2566 985.6894
v 600.8891 169.1779 866.3487
v 540.0626 169.8504 863.3776
v 451.7218 169.8504 866.7772
v 670.3168 167.2566 851.0111
v 754.9327 162.3007 739.3752
v 895.1943 162.3007 488.7255
v 1030.185 162.3007 235.198
v 1089.914 162.3007 106.9928
v 1106.083 162.3007 40.84354
v 1110.39 162.3007 -26.51611
v 1102.872 162.3007 -93.59335
v 1093.336 154.3498 -162.2265
v 1034.222 144.0367 -292.0263
v 1078.333 167.2566 103.6522
v 1094.133 167.2566 39.16263
v 1098.351 167.2566 -26.2286
v 1091.016 167.2566 -91.34394
v 1083.565 162.3007 -158.8954
v 1027.066 154.3498 -288.5772
v 879.6517 154.3498 -536.2668
v 1019.11 167.2566 230.4973
v 727.0087 154.3498 -780.7689
v 884.6248 167.2566 482.955
v 645.0527 154.3498 -897.5569
v 588.4128 162.3007 -937.4741
v 637.6157 162.3007 -890.3973
v 718.78 162.3007 -774.5674
v 744.9896 167.2566 732.601
v 870.8461 162.3007 -530.8985
v 612.3794 169.8504 799.3288
v 1017.784 162.3007 -284.1034
v 458.0161 170.715 661.2935
v 1072.156 167.2566 -155.0059
v 277.1232 170.715 589.7097
v 968.3659 169.8504 -91.55844
v 370.3965 169.8504 917.3422
v 998.22 169.8504 -23.83745
v 971.6324 169.8504 45.23135
v 309.9383 167.2566 997.8238
v 723.6322 170.715 -17.28031
v 979.64 169.8504 137.8982
v 24.34857 162.3007 1019.624
v 629.7471 170.715 67.0407
v 962.5845 169.1779 258.1634
v 708.3898 170.715 247.7967
v 834.9017 169.8504 421.0731
v -1.02854E-05 170.715 -1.985115E-05
v 625.8292 170.715 -97.02381
v 467.0317 170.715 425.0334
v 670.1716 169.8504 652.0788
v 971.941 169.8504 -184.5019
v 139.5965 170.715 737.3818
v 695.7543 170.715 -281.3277
v 1006.946 167.2566 -278.8795
v 257.7161 169.1779 962.7042
v 24.06109 167.2566 1007.585
v 52.79088 169.8504 933.5827
v -134.5738 170.715 616.9781
v 949.1644 169.1779 -303.8159
v 860.5638 167.2566 -524.6301
v 813.8513 169.8504 -460.4453
v 442.9999 170.715 -421.7538
v 709.1716 167.2566 -767.3263
v 637.4796 169.8504 -677.0527
v 413.0828 170.715 -582.0512
v 333.2143 170.715 -557.9672
v 343.6888 170.715 -727.3005
v 628.9317 167.2566 -882.0371
v 570.3158 169.8504 -802.5605
v 515.0581 169.8504 -830.3704
v 580.9822 167.2566 -927.9656
v 477.6755 169.8504 -899.3968
v 526.4609 167.2566 -964.3146
v 449.8353 169.1779 -953.5597
v 466.4019 167.2566 -990.5199
v 404.175 162.3007 -1017.843
v 401.8387 167.2566 -1006.017
v 386.0492 169.8504 -930.0005
v 263.6178 154.3498 -1033.754
v 262.8512 162.3007 -1023.479
v -24.59487 154.3498 -1029.934
v 134.5737 170.715 -616.9781
v 261.9561 167.2566 -1011.481
v -24.34866 162.3007 -1019.624
v -312.6614 154.3498 -1019.992
v 229.6308 169.8504 -906.4252
v -24.0612 167.2566 -1007.585
v -52.79103 169.8504 -933.5827
v -311.4052 162.3007 -1009.765
v -454.7808 154.3498 -1007.41
v -139.5967 170.715 -737.3818
v -257.7163 169.1779 -962.7042
v -309.9385 167.2566 -997.8236
v -452.2989 162.3007 -997.39
v -517.67 162.3007 -978.3176
v -370.3968 169.8504 -917.3422
v -449.4008 167.2566 -985.6894
v -513.1507 167.2566 -967.1281
v -571.8904 167.2566 -938.0859
v -277.1234 170.715 -589.7098
v -451.722 169.8504 -866.7772
v -540.0627 169.8504 -863.3776
v -624.6145 167.2566 -899.1758
v -458.0163 170.715 -661.2935
v -600.8892 169.1779 -866.3487
v -679.3901 162.3007 -858.9471
v -670.3169 167.2566 -851.011
v -612.3795 169.8504 -799.3288
v -467.0319 170.715 -425.0334
v -763.4482 154.3498 -745.1766
v -754.9329 162.3007 -739.3752
v -744.9898 167.2566 -732.601
v -904.2465 154.3498 -493.6673
v -895.1945 162.3007 -488.7255
v -1039.67 154.3498 -239.2237
v -708.3898 170.715 -247.7968
v -629.7471 170.715 -67.04081
v -723.6323 170.715 17.28019
v -670.1718 169.8504 -652.0789
v -834.9019 169.8504 -421.0731
v -884.6249 167.2566 -482.955
v -1030.185 162.3007 -235.1981
v -1099.833 154.3498 -109.8538
v -962.5845 169.1779 -258.1635
v -1019.11 167.2566 -230.4974
v -979.64 169.8504 -137.8983
v -1089.914 162.3007 -106.9929
v -1078.333 167.2566 -103.6524
v -971.6324 169.8504 -45.23152
v -1094.133 167.2566 -39.1628
v -1106.083 162.3007 -40.84369
v -998.2202 169.8504 23.83731
v -1098.351 167.2566 26.22845
v -1116.317 154.3498 -42.28323
v -968.366 169.8504 91.55834
v -1110.39 162.3007 26.51595
v -1120.7 154.3498 26.76217
v -1091.016 167.2566 91.34381
v -1102.872 162.3007 93.59322
v -1113.026 154.3498 95.51963
v -1100.869 144.0367 164.7944
v -1093.336 154.3498 162.2263
v -1083.565 162.3007 158.8953
v -1038.682 131.9944 294.1761
v -1034.222 144.0367 292.0262
v -890.6722 131.9944 542.9852
v -1072.156 167.2566 155.0058
v -1027.066 154.3498 288.5771
v -886.4406 144.0367 540.4054
v -737.3071 131.9944 788.5298
v -1017.784 162.3007 284.1033
v -879.6517 154.3498 536.2666
v -733.3527 144.0367 785.5497
v -654.3602 131.9944 906.5172
v -870.8461 162.3007 530.8983
v -727.0087 154.3498 780.7687
v -650.7864 144.0367 903.0767
v -602.7408 131.9944 955.8085
v -599.6828 144.0367 951.8954
v -540.9834 144.0367 990.9149
v -645.0528 154.3498 897.5568
v -718.7801 162.3007 774.5673
v -594.7767 154.3498 945.6172
v -473.7906 154.3498 1011.669
v -537.1734 154.3498 983.9361
v -637.6158 162.3007 890.3972
v -406.1758 154.3498 1027.97
v -588.4131 162.3007 937.4741
v -470.382 162.3007 1001.912
v -532.2316 162.3007 974.8842
v -263.6179 154.3498 1033.754
v -404.175 162.3007 1017.843
v -262.8513 162.3007 1023.479
v -466.402 167.2566 990.5199
v -526.4611 167.2566 964.3145
v -261.9562 167.2566 1011.481
v -401.8388 167.2566 1006.017
v -229.6309 169.8504 906.4252
v -386.0493 169.8504 930.0007
v -449.8355 169.1779 953.5598
v -343.6889 170.715 727.3005
v -580.9824 167.2566 927.9655
v -477.6758 169.8504 899.3969
v -628.9319 167.2566 882.037
v -333.2145 170.715 557.9672
v -515.0582 169.8504 830.3702
v -709.1717 167.2566 767.3262
v -413.083 170.715 582.0511
v -570.3159 169.8504 802.5604
v -860.5638 167.2566 524.6299
v -637.4796 169.8504 677.0526
v -1006.946 167.2566 278.8794
v -443 170.715 421.7538
v -813.8513 169.8504 460.4452
v -971.9411 169.8504 184.5018
v -695.7543 170.715 281.3276
v -949.1644 169.1779 303.8158
v -625.8292 170.715 97.02374
vt 0.9106445 0.8540039
vt 0.9106445 0.8554688
vt 0.9106445 0.8554688
vt 0.9106445 0.8540039
vt 0.9111328 0.8530273
vt 0.9111328 0.8530273
vt 0.9111328 0.8520508
vt 0.9121094 0.8505859
vt 0.9145508 0.8466797
vt 0.9145508 0.8466797
vt 0.9174805 0.8413086
vt 0.9169922 0.8427734
vt 0.9179688 0.840332
vt 0.9179688 0.840332
vt 0.9189453 0.8398438
vt 0.9189453 0.8398438
vt 0.9199219 0.8388672
vt 0.9199219 0.8388672
vt 0.9208984 0.8383789
vt 0.9208984 0.8383789
vt 0.9223633 0.8383789
vt 0.9223633 0.8383789
vt 0.9233398 0.8378906
vt 0.9243164 0.8378906
vt 0.9291992 0.8378906
vt 0.9291992 0.8378906
vt 0.9350586 0.8378906
vt 0.934082 0.8378906
vt 0.9365234 0.8383789
vt 0.9365234 0.8383789
vt 0.9375 0.8383789
vt 0.9375 0.8383789
vt 0.9384766 0.8388672
vt 0.9384766 0.8388672
vt 0.9394531 0.8398438
vt 0.9394531 0.8398438
vt 0.9404297 0.840332
vt 0.9404297 0.840332
vt 0.9414063 0.8413086
vt 0.9418945 0.8427734
vt 0.9443359 0.8466797
vt 0.9443359 0.8466797
vt 0.9472656 0.8520508
vt 0.9462891 0.8505859
vt 0.9477539 0.8530273
vt 0.9477539 0.8530273
vt 0.9477539 0.8540039
vt 0.9477539 0.8540039
vt 0.9477539 0.8554688
vt 0.9477539 0.8554688
vt 0.9477539 0.8564453
vt 0.9477539 0.8564453
vt 0.9477539 0.8574219
vt 0.9477539 0.8574219
vt 0.9472656 0.8588867
vt 0.9462891 0.8598633
vt 0.9443359 0.8637695
vt 0.9443359 0.8637695
vt 0.9414063 0.8691406
vt 0.9418945 0.8681641
vt 0.9404297 0.8701172
vt 0.9404297 0.8701172
vt 0.9394531 0.8710938
vt 0.9394531 0.8706055
vt 0.9384766 0.871582
vt 0.9384766 0.871582
vt 0.9375 0.8720703
vt 0.9375 0.8720703
vt 0.9365234 0.8720703
vt 0.9365234 0.8720703
vt 0.9350586 0.8725586
vt 0.934082 0.8725586
vt 0.9291992 0.8725586
vt 0.9291992 0.8725586
vt 0.9233398 0.8725586
vt 0.9243164 0.8725586
vt 0.9223633 0.8720703
vt 0.9223633 0.8720703
vt 0.9208984 0.8720703
vt 0.9208984 0.8720703
vt 0.9199219 0.871582
vt 0.9199219 0.871582
vt 0.9189453 0.8710938
vt 0.9189453 0.8706055
vt 0.9179688 0.8701172
vt 0.9179688 0.8701172
vt 0.9174805 0.8691406
vt 0.9169922 0.8681641
vt 0.9145508 0.8637695
vt 0.9145508 0.8637695
vt 0.9111328 0.8588867
vt 0.9121094 0.8598633
vt 0.9111328 0.8574219
vt 0.9111328 0.8574219
vt 0.9106445 0.8564453
vt 0.9106445 0.8564453
vt 0.9106445 0.8554688
vt 0.9189453 0.8706055
vt 0.9179688 0.8701172
vt 0.9169922 0.8681641
vt 0.9145508 0.8637695
vt 0.9121094 0.8598633
vt 0.9111328 0.8574219
vt 0.9106445 0.8564453
vt 0.9199219 0.871582
vt 0.9189453 0.8706055
vt 0.9208984 0.8720703
vt 0.9106445 0.8554688
vt 0.9179688 0.8701172
vt 0.9199219 0.871582
vt 0.9223633 0.8720703
vt 0.9106445 0.8540039
vt 0.9111328 0.8530273
vt 0.9106445 0.8540039
vt 0.9121094 0.8505859
vt 0.9189453 0.8706055
vt 0.9243164 0.8725586
vt 0.9106445 0.8554688
vt 0.9111328 0.8530273
vt 0.9291992 0.8725586
vt 0.9106445 0.8540039
vt 0.9106445 0.8564453
vt 0.934082 0.8725586
vt 0.9106445 0.8554688
vt 0.9111328 0.8574219
vt 0.9365234 0.8720703
vt 0.9106445 0.8564453
vt 0.9121094 0.8598633
vt 0.9375 0.8720703
vt 0.9384766 0.871582
vt 0.9375 0.8720703
vt 0.9394531 0.8706055
vt 0.9111328 0.8574219
vt 0.9145508 0.8637695
vt 0.9365234 0.8720703
vt 0.9384766 0.871582
vt 0.9404297 0.8701172
vt 0.9121094 0.8598633
vt 0.9169922 0.8681641
vt 0.9375 0.8720703
vt 0.9394531 0.8706055
vt 0.9418945 0.8681641
vt 0.9145508 0.8637695
vt 0.9179688 0.8696289
vt 0.9384766 0.871582
vt 0.9404297 0.8701172
vt 0.9443359 0.8637695
vt 0.9169922 0.8676758
vt 0.9394531 0.8706055
vt 0.9418945 0.8681641
vt 0.9462891 0.8598633
vt 0.9404297 0.8696289
vt 0.9443359 0.8637695
vt 0.9477539 0.8574219
vt 0.9414063 0.8676758
vt 0.9477539 0.8564453
vt 0.9477539 0.8554688
vt 0.9477539 0.8564453
vt 0.9477539 0.8574219
vt 0.9462891 0.8598633
vt 0.9477539 0.8540039
vt 0.9477539 0.8554688
vt 0.9477539 0.8564453
vt 0.9477539 0.8530273
vt 0.9477539 0.8540039
vt 0.9462891 0.8505859
vt 0.9438477 0.8637695
vt 0.9472656 0.8574219
vt 0.9477539 0.8554688
vt 0.9477539 0.8530273
vt 0.9443359 0.8466797
vt 0.9462891 0.8598633
vt 0.9477539 0.8564453
vt 0.9477539 0.8540039
vt 0.9462891 0.8505859
vt 0.9418945 0.8427734
vt 0.9472656 0.8574219
vt 0.9477539 0.8554688
vt 0.9472656 0.8530273
vt 0.9443359 0.8466797
vt 0.9404297 0.840332
vt 0.9472656 0.8564453
vt 0.9477539 0.8540039
vt 0.9462891 0.8510742
vt 0.9394531 0.8398438
vt 0.9384766 0.8388672
vt 0.9394531 0.8398438
vt 0.9375 0.8383789
vt 0.9477539 0.8554688
vt 0.9404297 0.8408203
vt 0.9418945 0.8427734
vt 0.9384766 0.8388672
vt 0.9365234 0.8383789
vt 0.9394531 0.8398438
vt 0.9375 0.8383789
vt 0.934082 0.8378906
vt 0.9438477 0.8466797
vt 0.9404297 0.8408203
vt 0.9384766 0.8393555
vt 0.9365234 0.8383789
vt 0.9291992 0.8378906
vt 0.9414063 0.8427734
vt 0.9394531 0.8398438
vt 0.9375 0.8388672
vt 0.934082 0.8383789
vt 0.9243164 0.8378906
vt 0.9404297 0.8408203
vt 0.9384766 0.8393555
vt 0.9365234 0.8383789
vt 0.9291992 0.8378906
vt 0.9223633 0.8383789
vt 0.9394531 0.8398438
vt 0.9375 0.8388672
vt 0.934082 0.8383789
vt 0.9208984 0.8383789
vt 0.9199219 0.8388672
vt 0.9208984 0.8383789
vt 0.9189453 0.8398438
vt 0.9384766 0.8393555
vt 0.9223633 0.8383789
vt 0.9243164 0.8383789
vt 0.9199219 0.8388672
vt 0.9179688 0.840332
vt 0.9208984 0.8388672
vt 0.9189453 0.8398438
vt 0.9169922 0.8427734
vt 0.9291992 0.8383789
vt 0.9223633 0.8383789
vt 0.9199219 0.8393555
vt 0.9179688 0.8408203
vt 0.9145508 0.8466797
vt 0.9169922 0.8427734
vt 0.9189453 0.8398438
vt 0.9208984 0.8388672
vt 0.9145508 0.8466797
vt 0.9179688 0.8408203
vt 0.9199219 0.8393555
vt 0.9121094 0.8505859
vt 0.9169922 0.8427734
vt 0.9189453 0.8398438
vt 0.9111328 0.8530273
vt 0.9145508 0.8466797
vt 0.918457 0.8408203
vt 0.9111328 0.8540039
vt 0.9121094 0.8510742
vt 0.9169922 0.8427734
vt 0.9111328 0.8530273
vt 0.9106445 0.8554688
vt 0.9145508 0.8466797
vt 0.9121094 0.8510742
vt 0.9111328 0.8540039
vt 0.9111328 0.8564453
vt 0.9116211 0.8530273
vt 0.9111328 0.8554688
vt 0.9111328 0.8574219
vt 0.9111328 0.8540039
vt 0.9111328 0.8564453
vt 0.9121094 0.859375
vt 0.9111328 0.8554688
vt 0.9116211 0.8574219
vt 0.9145508 0.8637695
vt 0.9111328 0.8564453
vt 0.9125977 0.859375
vt 0.9116211 0.8574219
vt 0.9121094 0.8540039
vt 0.9125977 0.8549805
vt 0.9130859 0.8564453
vt 0.9116211 0.8530273
vt 0.9125977 0.8510742
vt 0.9145508 0.8466797
vt 0.9169922 0.8427734
vt 0.918457 0.8408203
vt 0.9194336 0.8398438
vt 0.9199219 0.8393555
vt 0.9208984 0.8388672
vt 0.9223633 0.8383789
vt 0.9243164 0.8383789
vt 0.918457 0.8408203
vt 0.9194336 0.840332
vt 0.9204102 0.8393555
vt 0.9213867 0.8393555
vt 0.9223633 0.8388672
vt 0.9243164 0.8383789
vt 0.9291992 0.8383789
vt 0.9174805 0.8427734
vt 0.934082 0.8383789
vt 0.9150391 0.847168
vt 0.9365234 0.8383789
vt 0.9375 0.8388672
vt 0.9365234 0.8388672
vt 0.934082 0.8383789
vt 0.9125977 0.8510742
vt 0.9291992 0.8383789
vt 0.9125977 0.8535156
vt 0.9243164 0.8383789
vt 0.9160156 0.8544922
vt 0.9223633 0.8388672
vt 0.918457 0.8564453
vt 0.9223633 0.8408203
vt 0.9130859 0.8579102
vt 0.9208984 0.8408203
vt 0.9204102 0.8417969
vt 0.9125977 0.859375
vt 0.9233398 0.8447266
vt 0.9189453 0.8427734
vt 0.9145508 0.8637695
vt 0.9228516 0.847168
vt 0.9174805 0.84375
vt 0.9199219 0.8476563
vt 0.9160156 0.847168
vt 0.9291992 0.8554688
vt 0.925293 0.8457031
vt 0.9194336 0.8525391
vt 0.9145508 0.8515625
vt 0.9233398 0.8398438
vt 0.9174805 0.859375
vt 0.9272461 0.8432617
vt 0.9243164 0.8388672
vt 0.9135742 0.8598633
vt 0.9150391 0.8637695
vt 0.9155273 0.8623047
vt 0.921875 0.8623047
vt 0.925293 0.8393555
vt 0.9291992 0.8388672
vt 0.9287109 0.8398438
vt 0.9311523 0.8452148
vt 0.934082 0.8388672
vt 0.9331055 0.840332
vt 0.934082 0.8442383
vt 0.934082 0.8457031
vt 0.9365234 0.8442383
vt 0.9360352 0.8388672
vt 0.9355469 0.840332
vt 0.9365234 0.8408203
vt 0.9375 0.8393555
vt 0.9379883 0.8408203
vt 0.9384766 0.8393555
vt 0.9389648 0.8408203
vt 0.9389648 0.840332
vt 0.9399414 0.8408203
vt 0.9399414 0.8408203
vt 0.9389648 0.8417969
vt 0.9414063 0.8427734
vt 0.9414063 0.8427734
vt 0.9438477 0.8466797
vt 0.9370117 0.8481445
vt 0.9414063 0.8427734
vt 0.9438477 0.8466797
vt 0.9462891 0.8510742
vt 0.9399414 0.8442383
vt 0.9438477 0.847168
vt 0.9428711 0.8481445
vt 0.9462891 0.8510742
vt 0.9472656 0.8530273
vt 0.940918 0.8510742
vt 0.9448242 0.8505859
vt 0.9458008 0.8510742
vt 0.9472656 0.8530273
vt 0.9472656 0.8540039
vt 0.9453125 0.8525391
vt 0.9467773 0.8530273
vt 0.9472656 0.8540039
vt 0.9472656 0.8554688
vt 0.9399414 0.8540039
vt 0.9453125 0.8540039
vt 0.9458008 0.8554688
vt 0.9472656 0.8564453
vt 0.9423828 0.855957
vt 0.9467773 0.8564453
vt 0.9472656 0.8574219
vt 0.9467773 0.8574219
vt 0.9458008 0.8569336
vt 0.9394531 0.8583984
vt 0.9462891 0.859375
vt 0.9462891 0.859375
vt 0.9458008 0.859375
vt 0.9438477 0.8637695
vt 0.9438477 0.8637695
vt 0.9414063 0.8676758
vt 0.9389648 0.8632813
vt 0.9355469 0.8637695
vt 0.9350586 0.8657227
vt 0.9443359 0.8588867
vt 0.9423828 0.8632813
vt 0.9438477 0.8637695
vt 0.9414063 0.8676758
vt 0.9404297 0.8696289
vt 0.940918 0.8666992
vt 0.9414063 0.8676758
vt 0.9394531 0.8676758
vt 0.9399414 0.8696289
vt 0.9399414 0.8696289
vt 0.9379883 0.8686523
vt 0.9389648 0.8701172
vt 0.9394531 0.8706055
vt 0.9375 0.8696289
vt 0.9384766 0.8710938
vt 0.9394531 0.8706055
vt 0.9360352 0.8696289
vt 0.9384766 0.8710938
vt 0.9384766 0.8710938
vt 0.9375 0.871582
vt 0.9375 0.871582
vt 0.9375 0.871582
vt 0.9365234 0.8720703
vt 0.9365234 0.8720703
vt 0.9365234 0.8720703
vt 0.934082 0.8725586
vt 0.934082 0.8720703
vt 0.9291992 0.8725586
vt 0.9360352 0.871582
vt 0.934082 0.8720703
vt 0.9291992 0.8725586
vt 0.9243164 0.8725586
vt 0.934082 0.8720703
vt 0.9291992 0.8720703
vt 0.9243164 0.8720703
vt 0.9223633 0.8720703
vt 0.9291992 0.8720703
vt 0.9243164 0.8720703
vt 0.9223633 0.8720703
vt 0.9208984 0.8720703
vt 0.9208984 0.8720703
vt 0.9199219 0.871582
vt 0.9223633 0.8720703
vt 0.9243164 0.8720703
vt 0.9208984 0.871582
vt 0.9189453 0.8706055
vt 0.9199219 0.8710938
vt 0.9223633 0.8720703
vt 0.918457 0.8696289
vt 0.9208984 0.871582
vt 0.9194336 0.8706055
vt 0.9199219 0.8710938
vt 0.9169922 0.8676758
vt 0.918457 0.8696289
vt 0.9169922 0.8676758
vt 0.9194336 0.8701172
vt 0.9204102 0.8710938
vt 0.9174805 0.8676758
vt 0.918457 0.8696289
vt 0.918457 0.8662109
vt 0.9194336 0.8686523
vt 0.9199219 0.8696289
vt 0.921875 0.8662109
vt 0.9213867 0.871582
vt 0.9208984 0.8696289
vt 0.9223633 0.871582
vt 0.9243164 0.8647461
vt 0.921875 0.8696289
vt 0.9243164 0.871582
vt 0.9248047 0.8662109
vt 0.9228516 0.8701172
vt 0.9291992 0.8720703
vt 0.925293 0.8701172
vt 0.934082 0.871582
vt 0.9272461 0.8652344
vt 0.9296875 0.8706055
vt 0.9350586 0.8706055
vt 0.9311523 0.8676758
vt 0.9331055 0.8710938
vt 0.9331055 0.8647461
vn 0.659668 0.05322266 0.7495117
vn 0.5200195 0.05343628 0.8525391
vn 0.5180664 0.100769 0.8496094
vn 0.6577148 0.09991455 0.746582
vn 0.8066406 0.05178833 0.5888672
vn 0.8041992 0.09625244 0.5869141
vn 0.8623047 0.05075073 0.5039063
vn 0.859375 0.09411621 0.5024414
vn 0.8764648 0.05062866 0.4785156
vn 0.8740234 0.09399414 0.4770508
vn 0.8901367 0.05075073 0.4528809
vn 0.887207 0.09411621 0.451416
vn 0.9316406 0.05178833 0.3601074
vn 0.9282227 0.09625244 0.3588867
vn 0.9873047 0.05322266 0.1497803
vn 0.9838867 0.09991455 0.1491699
vn 0.9980469 0.05343628 -0.02383423
vn 0.9946289 0.100769 -0.02375793
vn 0.9790039 0.05322266 -0.1967773
vn 0.9755859 0.09991455 -0.1959229
vn 0.9130859 0.05178833 -0.4040527
vn 0.9101563 0.09625244 -0.402832
vn 0.8676758 0.05075073 -0.4946289
vn 0.8647461 0.09411621 -0.4931641
vn 0.8525391 0.05062866 -0.5200195
vn 0.8500977 0.09399414 -0.5180664
vn 0.8369141 0.05023193 -0.5449219
vn 0.8344727 0.09381104 -0.5429688
vn 0.777832 0.05007935 -0.6264648
vn 0.7749023 0.09521484 -0.6245117
vn 0.6240234 0.05221558 -0.7797852
vn 0.621582 0.09924316 -0.7773438
vn 0.4785156 0.05343628 -0.8764648
vn 0.4768066 0.100769 -0.8730469
vn 0.3190918 0.05322266 -0.9462891
vn 0.3181152 0.09991455 -0.9428711
vn 0.1066895 0.05178833 -0.9931641
vn 0.1062012 0.09625244 -0.9897461
vn 0.005325317 0.05075073 -0.9985352
vn 0.005256653 0.09411621 -0.9956055
vn -0.02384949 0.05062866 -0.9985352
vn -0.02377319 0.09399414 -0.9951172
vn -0.05297852 0.05075073 -0.9970703
vn -0.05276489 0.09411621 -0.9941406
vn -0.1539307 0.05178833 -0.9868164
vn -0.1533203 0.09625244 -0.9833984
vn -0.3640137 0.05322266 -0.9296875
vn -0.3625488 0.09991455 -0.9267578
vn -0.5200195 0.05343628 -0.8525391
vn -0.5180664 0.100769 -0.8496094
vn -0.659668 0.05322266 -0.7495117
vn -0.6577148 0.09991455 -0.746582
vn -0.8066406 0.05178833 -0.5888672
vn -0.8041992 0.09625244 -0.5869141
vn -0.8623047 0.05075073 -0.5039063
vn -0.859375 0.09411621 -0.5024414
vn -0.8764648 0.05062866 -0.4785156
vn -0.8740234 0.09399414 -0.4770508
vn -0.8901367 0.05075073 -0.4528809
vn -0.887207 0.09411621 -0.451416
vn -0.9316406 0.05178833 -0.3601074
vn -0.9282227 0.09625244 -0.3588867
vn -0.9873047 0.05322266 -0.1497803
vn -0.9838867 0.09991455 -0.1491699
vn -0.9980469 0.05343628 0.02383423
vn -0.9946289 0.100769 0.02375793
vn -0.9790039 0.05322266 0.1967773
vn -0.9755859 0.09991455 0.1959229
vn -0.9130859 0.05178833 0.4040527
vn -0.9101563 0.09625244 0.402832
vn -0.8676758 0.05075073 0.4946289
vn -0.8647461 0.09411621 0.4931641
vn -0.8525391 0.05062866 0.5200195
vn -0.8500977 0.09399414 0.5180664
vn -0.8374023 0.05075073 0.5444336
vn -0.8344727 0.09411621 0.5429688
vn -0.7773438 0.05178833 0.6264648
vn -0.7749023 0.09625244 0.6245117
vn -0.6230469 0.05200195 0.7807617
vn -0.6206055 0.09912109 0.777832
vn -0.4624023 0.01395416 0.8867188
vn -0.4699707 0.07897949 0.8793945
vn -0.3193359 -0.0168457 0.9472656
vn -0.3198242 0.06005859 0.9458008
vn -0.1212158 0.02676392 0.9921875
vn -0.1126099 0.08306885 0.9902344
vn -0.005340576 0.0506897 0.9985352
vn -0.005268097 0.09405518 0.9956055
vn 0.02384949 0.05062866 0.9985352
vn 0.02377319 0.09399414 0.9951172
vn 0.05297852 0.05075073 0.9970703
vn 0.05276489 0.09411621 0.9941406
vn 0.1539307 0.05178833 0.9868164
vn 0.1533203 0.09625244 0.9833984
vn 0.3640137 0.05322266 0.9296875
vn 0.3625488 0.09991455 0.9267578
vn 0.5200195 0.05343628 0.8525391
vn -0.314209 0.1716309 0.9335938
vn -0.1040039 0.1676025 0.9804688
vn -0.004917145 0.1652832 0.9863281
vn 0.02354431 0.1651611 0.9858398
vn 0.05197144 0.1652832 0.9848633
vn 0.1506348 0.1677246 0.9741211
vn 0.3583984 0.171875 0.9174805
vn -0.4719238 0.1724854 0.8647461
vn -0.3063965 0.28125 0.9091797
vn -0.6152344 0.1717529 0.769043
vn 0.5126953 0.1729736 0.8408203
vn -0.1015625 0.2792969 0.9545898
vn -0.4599609 0.28125 0.8422852
vn -0.7685547 0.1677246 0.6176758
vn 0.6513672 0.171875 0.7387695
vn 0.796875 0.1677246 0.5800781
vn 0.6342773 0.2807617 0.7202148
vn 0.8515625 0.1652832 0.4973145
vn -0.2768555 0.4968262 0.8227539
vn -0.8271484 0.1652832 0.5375977
vn 0.4995117 0.2810059 0.8193359
vn 0.7758789 0.2792969 0.5654297
vn -0.8422852 0.1651611 0.5131836
vn 0.5737305 0.4968262 0.6508789
vn 0.3493652 0.2807617 0.894043
vn -0.8564453 0.1652832 0.4887695
vn 0.4519043 0.496582 0.7412109
vn 0.1470947 0.2792969 0.9487305
vn -0.9008789 0.1677246 0.4001465
vn 0.315918 0.496582 0.8085938
vn 0.0506897 0.2792969 0.9589844
vn -0.9658203 0.171875 0.1947021
vn -0.9848633 0.1729736 0.02351379
vn -0.940918 0.2807617 0.1894531
vn -0.9736328 0.171875 -0.1484375
vn 0.1328125 0.4951172 0.8583984
vn 0.0229187 0.2800293 0.9594727
vn -0.8779297 0.2792969 0.3894043
vn -0.9594727 0.2810059 0.0229187
vn -0.9189453 0.1677246 -0.3566895
vn 0.04568481 0.4968262 0.8666992
vn -0.00484848 0.2792969 0.9604492
vn -0.8505859 0.4968262 0.1713867
vn -0.9487305 0.2807617 -0.1442871
vn -0.8789063 0.1652832 -0.4475098
vn 0.02069092 0.4985352 0.8666992
vn -0.09173584 0.4951172 0.8637695
vn -0.8676758 0.496582 0.02072144
vn -0.8955078 0.2792969 -0.347168
vn -0.8657227 0.1651611 -0.4726563
vn -0.004268646 0.4968262 0.8676758
vn -0.8579102 0.4968262 -0.1306152
vn -0.855957 0.2792969 -0.4355469
vn -0.8515625 0.1652832 -0.4973145
vn -0.8100586 0.4951172 -0.314209
vn -0.8427734 0.2800293 -0.4599609
vn -0.796875 0.1677246 -0.5800781
vn -0.7734375 0.4968262 -0.3937988
vn -0.6513672 0.171875 -0.7387695
vn -0.5126953 0.1729736 -0.8408203
vn -0.6342773 0.2807617 -0.7202148
vn -0.7758789 0.2792969 -0.5654297
vn -0.8291016 0.2792969 -0.484375
vn -0.3583984 0.171875 -0.9174805
vn -0.4995117 0.2810059 -0.8193359
vn -0.5737305 0.496582 -0.6508789
vn -0.1506348 0.1677246 -0.9741211
vn -0.3493652 0.2807617 -0.894043
vn -0.05197144 0.1652832 -0.9848633
vn -0.7607422 0.4985352 -0.4152832
vn -0.7021484 0.4951172 -0.5112305
vn -0.4519043 0.496582 -0.7412109
vn -0.1470947 0.2792969 -0.9487305
vn -0.02354431 0.1651611 -0.9858398
vn -0.7495117 0.4968262 -0.4375
vn -0.4702148 0.703125 -0.5332031
vn -0.315918 0.4968262 -0.8085938
vn -0.0506897 0.2792969 -0.9589844
vn 0.004905701 0.1652832 -0.9863281
vn -0.5766602 0.7016602 -0.4189453
vn -0.3701172 0.703125 -0.6074219
vn -0.1328125 0.4951172 -0.8583984
vn -0.0229187 0.2800293 -0.9594727
vn 0.1040039 0.1677246 -0.9804688
vn -0.3352051 0.8623047 -0.3793945
vn -0.2585449 0.703125 -0.6621094
vn -0.04568481 0.4968262 -0.8666992
vn 0.314209 0.171875 -0.9335938
vn 0.4719238 0.1729736 -0.8642578
vn 0.3063965 0.2807617 -0.909668
vn 0.6157227 0.1717529 -0.769043
vn -0.2636719 0.8623047 -0.4326172
vn 0.1016235 0.2792969 -0.9550781
vn 0.00484848 0.2792969 -0.9604492
vn 0.4599609 0.2810059 -0.8422852
vn 0.7685547 0.1674805 -0.6176758
vn 0.2768555 0.4968262 -0.8227539
vn 0.5996094 0.2807617 -0.7495117
vn 0.8271484 0.1652832 -0.5375977
vn -0.02069092 0.4985352 -0.8666992
vn 0.09173584 0.4951172 -0.8637695
vn 0.4160156 0.496582 -0.7617188
vn 0.7480469 0.2792969 -0.6020508
vn 0.8422852 0.1651611 -0.5131836
vn 0.004268646 0.4968262 -0.8676758
vn 0.2265625 0.703125 -0.6738281
vn 0.5419922 0.4968262 -0.6777344
vn 0.8051758 0.2792969 -0.5234375
vn 0.8564453 0.1652832 -0.4887695
vn 0.07446289 0.7016602 -0.7084961
vn 0.3408203 0.703125 -0.6240234
vn 0.6772461 0.4951172 -0.5444336
vn 0.8198242 0.2800293 -0.4997559
vn 0.9008789 0.1677246 -0.4001465
vn 0.1610107 0.8623047 -0.4799805
vn 0.4443359 0.703125 -0.5551758
vn 0.7275391 0.4968262 -0.4729004
vn 0.9658203 0.171875 -0.1947021
vn 0.9848633 0.1729736 -0.02351379
vn 0.940918 0.2807617 -0.1894531
vn 0.9736328 0.171875 0.1484375
vn 0.2426758 0.8623047 -0.4445801
vn 0.8779297 0.2792969 -0.3894043
vn 0.8339844 0.2792969 -0.4758301
vn 0.9594727 0.2810059 -0.02290344
vn 0.9189453 0.1677246 0.3566895
vn 0.8505859 0.4968262 -0.1713867
vn 0.9487305 0.2807617 0.1442871
vn 0.8789063 0.1652832 0.4475098
vn 0.7402344 0.4985352 -0.4511719
vn 0.7939453 0.4951172 -0.3525391
vn 0.8676758 0.496582 -0.02072144
vn 0.8955078 0.2792969 0.347168
vn 0.8657227 0.1651611 0.4726563
vn 0.855957 0.2792969 0.4355469
vn 0.8579102 0.4968262 0.1306152
vn 0.6967773 0.703125 -0.1407471
vn 0.8427734 0.2800293 0.4599609
vn 0.8100586 0.4951172 0.314209
vn 0.7109375 0.703125 -0.01698303
vn 0.8291016 0.2792969 0.484375
vn 0.7734375 0.4968262 0.3937988
vn 0.7026367 0.703125 0.1073608
vn 0.7021484 0.4951172 0.5112305
vn 0.7607422 0.4985352 0.4152832
vn 0.6640625 0.7016602 0.2585449
vn 0.4702148 0.703125 0.5332031
vn 0.7495117 0.4968262 0.4375
vn 0.6328125 0.7036133 0.3225098
vn 0.5766602 0.7016602 0.4189453
vn 0.3701172 0.703125 0.6074219
vn 0.6220703 0.7055664 0.3395996
vn 0.6137695 0.7036133 0.3579102
vn 0.3352051 0.8623047 0.3793945
vn 0.2583008 0.703125 0.6621094
vn 0.4118652 0.8608398 0.2983398
vn 0.2636719 0.8623047 0.4326172
vn 0.1082153 0.7016602 0.7041016
vn 0.07348633 0.9936523 0.08380127
vn 0.1837158 0.8623047 0.4716797
vn 0.03713989 0.7036133 0.7094727
vn 0.03713989 0.996582 0.07287598
vn 0.07647705 0.8608398 0.5029297
vn 0.016922 0.7055664 0.7084961
vn 0.02253723 0.9980469 0.06118774
vn 0.02613831 0.8632813 0.5039063
vn 0.01651001 0.996582 0.08026123
vn 0.01329041 1 0.01486969
vn 0.002758026 1 0.009941101
vn 0.001714706 1 0.005924225
vn 0.07281494 0.9960938 0.04833984
vn 0.4360352 0.8632813 0.2541504
vn 0.4404297 0.8652344 0.2404785
vn 0.4494629 0.8632813 0.2293701
vn 0.4736328 0.8608398 0.1850586
vn 0.5004883 0.8623047 0.07678223
vn 0.5063477 0.8623047 -0.01209259
vn 0.4960938 0.8623047 -0.1005859
vn 0.6508789 0.7016602 -0.2897949
vn 0.7539063 0.4968262 -0.4301758
vn 0.0770874 0.996582 0.02523804
vn 0.06222534 0.9980469 0.009399414
vn 0.0647583 0.9980469 -0.00154686
vn 0.06170654 0.9980469 -0.01235962
vn 0.4641113 0.8608398 -0.2075195
vn 0.6166992 0.7036133 -0.3522949
vn 0.6049805 0.7055664 -0.3688965
vn 0.1078491 0.9926758 0.05340576
vn 0.5957031 0.7036133 -0.3869629
vn 0.07409668 0.996582 0.04211426
vn 0.5556641 0.7016602 -0.4458008
vn 0.3166504 0.8623047 -0.3950195
vn 0.3972168 0.8608398 -0.317627
vn 0.4233398 0.8632813 -0.2746582
vn 0.06713867 0.9970703 0.03884888
vn 0.4284668 0.8652344 -0.2612305
vn 0.01049042 1 0.005435944
vn 0.4379883 0.8632813 -0.2504883
vn 0.001151085 1 0.001267433
vn 0.07580566 0.996582 -0.02890015
vn 0.0001521111 1 0.0003204346
vn 0.005977631 1 -0.001051903
vn 0.002538681 1 0.008506775
vn 0.01005554 1 -0.0002400875
vn 0.006019592 1 0.0007653236
vn 0.007678986 0.9926758 0.1201172
vn 0.001623154 1 -3.862381E-05
vn 0.00868988 1 0.001918793
vn 0.01197815 0.8652344 0.5014648
vn 0.0003678799 1 -2.139807E-05
vn 0.01519012 1 0.008201599
vn 0.001506805 1 0.0007257462
vn 0.009277344 1 0.006061554
vn 0 1 0
vn 0.0003814697 1 0
vn 0.0006160736 1 0.0004467964
vn 0.008506775 1 0.004890442
vn 0.008590698 1 -0.00233078
vn 8.308887E-05 1 0.001601219
vn 0.001511574 1 -0.0008649826
vn 0.1052246 0.9926758 -0.0585022
vn 0.0004963875 1 0.01725769
vn 0.0005722046 0.996582 0.08526611
vn -0.0006108284 1 0.01107025
vn -8.267164E-05 1 0.0007939339
vn 0.01478577 1 -0.008911133
vn 0.07098389 0.996582 -0.0451355
vn 0.008857727 1 -0.006526947
vn 0.0006151199 1 -0.0005702972
vn 0.06246948 0.9970703 -0.04086304
vn 0.007965088 1 -0.005565643
vn 0.001357079 1 -0.001127243
vn 0.0001430511 1 -0.0001200438
vn 0.0005989075 1 -0.001771927
vn 0.0567627 0.9975586 -0.04595947
vn 0.008880615 1 -0.007110596
vn 0.005519867 1 -0.004909515
vn 0.04501343 0.9975586 -0.0534668
vn 0.007820129 1 -0.007732391
vn 0.04556274 0.996582 -0.07012939
vn 0.006233215 1 -0.01893616
vn 0.03582764 0.9936523 -0.1055298
vn 0.05239868 0.8608398 -0.5058594
vn 0.005458832 0.9960938 -0.08721924
vn -0.0005350113 1 -0.01180267
vn 0.003238678 0.7036133 -0.7104492
vn 0.002052307 0.8632813 -0.5043945
vn -0.016922 0.7055664 -0.7084961
vn 8.267164E-05 1 -0.0007939339
vn 8.535385E-05 0.9970703 -0.07757568
vn -0.01197815 0.8652344 -0.5014648
vn -0.03713989 0.7036133 -0.7094727
vn -1.955032E-05 1 -0.009811401
vn -0.0005722046 0.996582 -0.08526611
vn 0.0006108284 1 -0.01107025
vn -0.02613831 0.8632813 -0.5039063
vn -0.1082153 0.7016602 -0.7041016
vn -8.308887E-05 1 -0.001601219
vn -0.0004963875 1 -0.01725769
vn -0.007678986 0.9926758 -0.1201172
vn -0.07647705 0.8608398 -0.5029297
vn -0.1837158 0.8623047 -0.4716797
vn -0.002538681 1 -0.008506775
vn -0.01651001 0.996582 -0.08026123
vn -0.02253723 0.9980469 -0.06118774
vn -0.03713989 0.996582 -0.07287598
vn -0.0001521111 1 -0.0003204346
vn -0.001714706 1 -0.005924225
vn -0.002758026 1 -0.009941101
vn -0.07348633 0.9936523 -0.08380127
vn -0.001151085 1 -0.001267433
vn -0.01329041 1 -0.01486969
vn -0.4118652 0.8608398 -0.2983398
vn -0.07281494 0.9960938 -0.04833984
vn -0.01049042 1 -0.005435944
vn -0.0006160736 1 -0.0004470348
vn -0.6137695 0.7036133 -0.3579102
vn -0.4360352 0.8632813 -0.2541504
vn -0.06713867 0.9970703 -0.03884888
vn -0.6220703 0.7055664 -0.3395996
vn -0.4404297 0.8652344 -0.2404785
vn -0.6328125 0.7036133 -0.3225098
vn -0.001506805 1 -0.0007257462
vn -0.0003678799 1 2.139807E-05
vn -0.001623154 1 3.862381E-05
vn -0.008506775 1 -0.004890442
vn -0.009277344 1 -0.006065369
vn -0.07409668 0.996582 -0.04211426
vn -0.4494629 0.8632813 -0.2293701
vn -0.6640625 0.7016602 -0.2585449
vn -0.01519012 1 -0.008201599
vn -0.1078491 0.9926758 -0.05340576
vn -0.00868988 1 -0.001918793
vn -0.4736328 0.8608398 -0.1850586
vn -0.0770874 0.996582 -0.02523804
vn -0.006019592 1 -0.0007653236
vn -0.06222534 0.9980469 -0.009399414
vn -0.5004883 0.8623047 -0.07678223
vn -0.01005554 1 0.0002400875
vn -0.0647583 0.9980469 0.001545906
vn -0.7026367 0.703125 -0.1073608
vn -0.005977631 1 0.001051903
vn -0.5063477 0.8623047 0.01209259
vn -0.7109375 0.703125 0.01698303
vn -0.06170654 0.9980469 0.01235962
vn -0.4960938 0.8623047 0.1005859
vn -0.6967773 0.703125 0.1407471
vn -0.7939453 0.4951172 0.3525391
vn -0.6508789 0.7016602 0.2897949
vn -0.4641113 0.8608398 0.2075195
vn -0.8339844 0.2792969 0.4758301
vn -0.7539063 0.4968262 0.4301758
vn -0.8198242 0.2800293 0.4997559
vn -0.07580566 0.996582 0.02890015
vn -0.6166992 0.7036133 0.3522949
vn -0.7402344 0.4985352 0.4511719
vn -0.8051758 0.2792969 0.5234375
vn -0.4379883 0.8632813 0.2504883
vn -0.6049805 0.7055664 0.3688965
vn -0.7275391 0.4968262 0.4729004
vn -0.7480469 0.2792969 0.6020508
vn -0.4284668 0.8652344 0.2612305
vn -0.5957031 0.7036133 0.3869629
vn -0.6772461 0.4951172 0.5444336
vn -0.5996094 0.2807617 0.7495117
vn -0.5419922 0.4968262 0.6777344
vn -0.4160156 0.496582 0.7617188
vn -0.5556641 0.7016602 0.4458008
vn -0.4233398 0.8632813 0.2746582
vn -0.4443359 0.703125 0.5551758
vn -0.2265625 0.703125 0.6738281
vn -0.3408203 0.703125 0.6240234
vn -0.3972168 0.8608398 0.317627
vn -0.07446289 0.7016602 0.7084961
vn -0.3166504 0.8623047 0.3950195
vn -0.1610107 0.8623047 0.4799805
vn -0.2426758 0.8623047 0.4445801
vn -0.003238678 0.7036133 0.7104492
vn -0.05239868 0.8608398 0.5058594
vn -0.002052307 0.8632813 0.5043945
vn -0.03582764 0.9936523 0.1055298
vn -0.04556274 0.996582 0.07012939
vn -8.535385E-05 0.9970703 0.07757568
vn -0.005458832 0.9960938 0.08721924
vn 1.955032E-05 1 0.009811401
vn 0.0005350113 1 0.01180267
vn -0.006233215 1 0.01893616
vn -0.0005989075 1 0.001771927
vn -0.04501343 0.9975586 0.0534668
vn -0.007820129 1 0.007732391
vn -0.0567627 0.9975586 0.04595947
vn -0.0001430511 1 0.0001199841
vn -0.005519867 1 0.004909515
vn -0.06246948 0.9970703 0.04086304
vn -0.001357079 1 0.001127243
vn -0.008880615 1 0.007110596
vn -0.07098389 0.996582 0.0451355
vn -0.007965088 1 0.005565643
vn -0.1052246 0.9926758 0.0585022
vn -0.0006151199 1 0.0005702972
vn -0.008857727 1 0.006526947
vn -0.008590698 1 0.00233078
vn -0.001511574 1 0.0008649826
vn -0.01478577 1 0.008911133
vn -0.0003814697 1 0
g Water_Alpha_0
f 3/3/3 2/2/2 1/1/1
f 4/4/4 3/3/3 1/1/1
f 4/4/4 1/1/1 5/5/5
f 6/6/6 4/4/4 5/5/5
f 6/6/6 5/5/5 7/7/7
f 8/8/8 6/6/6 7/7/7
f 8/8/8 7/7/7 9/9/9
f 10/10/10 8/8/8 9/9/9
f 10/10/10 9/9/9 11/11/11
f 12/12/12 10/10/10 11/11/11
f 12/12/12 11/11/11 13/13/13
f 14/14/14 12/12/12 13/13/13
f 14/14/14 13/13/13 15/15/15
f 16/16/16 14/14/14 15/15/15
f 16/16/16 15/15/15 17/17/17
f 18/18/18 16/16/16 17/17/17
f 18/18/18 17/17/17 19/19/19
f 20/20/20 18/18/18 19/19/19
f 20/20/20 19/19/19 21/21/21
f 22/22/22 20/20/20 21/21/21
f 22/22/22 21/21/21 23/23/23
f 24/24/24 22/22/22 23/23/23
f 24/24/24 23/23/23 25/25/25
f 26/26/26 24/24/24 25/25/25
f 26/26/26 25/25/25 27/27/27
f 28/28/28 26/26/26 27/27/27
f 28/28/28 27/27/27 29/29/29
f 30/30/30 28/28/28 29/29/29
f 30/30/30 29/29/29 31/31/31
f 32/32/32 30/30/30 31/31/31
f 32/32/32 31/31/31 33/33/33
f 34/34/34 32/32/32 33/33/33
f 34/34/34 33/33/33 35/35/35
f 36/36/36 34/34/34 35/35/35
f 36/36/36 35/35/35 37/37/37
f 38/38/38 36/36/36 37/37/37
f 38/38/38 37/37/37 39/39/39
f 40/40/40 38/38/38 39/39/39
f 40/40/40 39/39/39 41/41/41
f 42/42/42 40/40/40 41/41/41
f 42/42/42 41/41/41 43/43/43
f 44/44/44 42/42/42 43/43/43
f 44/44/44 43/43/43 45/45/45
f 46/46/46 44/44/44 45/45/45
f 46/46/46 45/45/45 47/47/47
f 48/48/48 46/46/46 47/47/47
f 48/48/48 47/47/47 49/49/49
f 50/50/50 48/48/48 49/49/49
f 50/50/50 49/49/49 51/51/51
f 52/52/52 50/50/50 51/51/51
f 52/52/52 51/51/51 53/53/53
f 54/54/54 52/52/52 53/53/53
f 54/54/54 53/53/53 55/55/55
f 56/56/56 54/54/54 55/55/55
f 56/56/56 55/55/55 57/57/57
f 58/58/58 56/56/56 57/57/57
f 58/58/58 57/57/57 59/59/59
f 60/60/60 58/58/58 59/59/59
f 60/60/60 59/59/59 61/61/61
f 62/62/62 60/60/60 61/61/61
f 62/62/62 61/61/61 63/63/63
f 64/64/64 62/62/62 63/63/63
f 64/64/64 63/63/63 65/65/65
f 66/66/66 64/64/64 65/65/65
f 66/66/66 65/65/65 67/67/67
f 68/68/68 66/66/66 67/67/67
f 68/68/68 67/67/67 69/69/69
f 70/70/70 68/68/68 69/69/69
f 70/70/70 69/69/69 71/71/71
f 72/72/72 70/70/70 71/71/71
f 72/72/72 71/71/71 73/73/73
f 74/74/74 72/72/72 73/73/73
f 74/74/74 73/73/73 75/75/75
f 76/76/76 74/74/74 75/75/75
f 76/76/76 75/75/75 77/77/77
f 78/78/78 76/76/76 77/77/77
f 78/78/78 77/77/77 79/79/79
f 80/80/80 78/78/78 79/79/79
f 80/80/80 79/79/79 81/81/81
f 82/82/82 80/80/80 81/81/81
f 82/82/82 81/81/81 83/83/83
f 84/84/84 82/82/82 83/83/83
f 84/84/84 83/83/83 85/85/85
f 86/86/86 84/84/84 85/85/85
f 86/86/86 85/85/85 87/87/87
f 88/88/88 86/86/86 87/87/87
f 88/88/88 87/87/87 89/89/89
f 90/90/90 88/88/88 89/89/89
f 90/90/90 89/89/89 91/91/91
f 92/92/92 90/90/90 91/91/91
f 92/92/92 91/91/91 93/93/93
f 94/94/94 92/92/92 93/93/93
f 94/94/94 93/93/93 95/95/95
f 96/96/96 94/94/94 95/95/95
f 96/96/96 95/95/95 97/97/97
f 3/3/3 96/96/96 97/97/97
f 98/98/98 84/84/84 86/86/86
f 99/99/99 86/86/86 88/88/88
f 99/99/99 98/98/98 86/86/86
f 100/100/100 88/88/88 90/90/90
f 100/100/100 99/99/99 88/88/88
f 101/101/101 90/90/90 92/92/92
f 101/101/101 100/100/100 90/90/90
f 102/102/102 92/92/92 94/94/94
f 102/102/102 101/101/101 92/92/92
f 103/103/103 94/94/94 96/96/96
f 103/103/103 102/102/102 94/94/94
f 104/104/104 96/96/96 3/3/3
f 104/104/104 103/103/103 96/96/96
f 98/98/98 105/105/105 84/84/84
f 105/105/105 82/82/82 84/84/84
f 106/106/106 98/98/98 99/99/99
f 105/105/105 98/98/98 106/106/106
f 105/105/105 107/107/107 82/82/82
f 107/107/107 80/80/80 82/82/82
f 108/108/108 104/104/104 3/3/3
f 108/108/108 3/3/3 4/4/4
f 109/109/109 106/106/106 99/99/99
f 109/109/109 99/99/99 100/100/100
f 110/110/110 105/105/105 106/106/106
f 107/107/107 105/105/105 110/110/110
f 107/107/107 111/111/111 80/80/80
f 111/111/111 78/78/78 80/80/80
f 112/112/112 108/108/108 4/4/4
f 112/112/112 4/4/4 6/6/6
f 113/113/113 112/112/112 6/6/6
f 113/113/113 6/6/6 8/8/8
f 108/108/108 112/112/112 114/114/114
f 114/114/114 112/112/112 113/113/113
f 115/115/115 113/113/113 8/8/8
f 115/115/115 8/8/8 10/10/10
f 110/110/110 106/106/106 116/116/116
f 116/116/116 106/106/106 109/109/109
f 111/111/111 117/117/117 78/78/78
f 117/117/117 76/76/76 78/78/78
f 118/118/118 108/108/108 114/114/114
f 104/104/104 108/108/108 118/118/118
f 119/119/119 114/114/114 113/113/113
f 119/119/119 113/113/113 115/115/115
f 117/117/117 120/120/120 76/76/76
f 120/120/120 74/74/74 76/76/76
f 118/118/118 114/114/114 121/121/121
f 121/121/121 114/114/114 119/119/119
f 122/122/122 104/104/104 118/118/118
f 103/103/103 104/104/104 122/122/122
f 120/120/120 123/123/123 74/74/74
f 123/123/123 72/72/72 74/74/74
f 124/124/124 118/118/118 121/121/121
f 122/122/122 118/118/118 124/124/124
f 125/125/125 103/103/103 122/122/122
f 102/102/102 103/103/103 125/125/125
f 123/123/123 126/126/126 72/72/72
f 126/126/126 70/70/70 72/72/72
f 127/127/127 122/122/122 124/124/124
f 125/125/125 122/122/122 127/127/127
f 128/128/128 102/102/102 125/125/125
f 101/101/101 102/102/102 128/128/128
f 126/126/126 129/129/129 70/70/70
f 129/129/129 68/68/68 70/70/70
f 129/129/129 130/130/130 68/68/68
f 130/130/130 66/66/66 68/68/68
f 131/131/131 129/129/129 126/126/126
f 130/130/130 129/129/129 131/131/131
f 130/130/130 132/132/132 66/66/66
f 132/132/132 64/64/64 66/66/66
f 133/133/133 125/125/125 127/127/127
f 128/128/128 125/125/125 133/133/133
f 134/134/134 101/101/101 128/128/128
f 100/100/100 101/101/101 134/134/134
f 135/135/135 131/131/131 126/126/126
f 135/135/135 126/126/126 123/123/123
f 136/136/136 130/130/130 131/131/131
f 132/132/132 130/130/130 136/136/136
f 132/132/132 137/137/137 64/64/64
f 137/137/137 62/62/62 64/64/64
f 138/138/138 128/128/128 133/133/133
f 134/134/134 128/128/128 138/138/138
f 139/139/139 100/100/100 134/134/134
f 139/139/139 109/109/109 100/100/100
f 140/140/140 131/131/131 135/135/135
f 136/136/136 131/131/131 140/140/140
f 141/141/141 132/132/132 136/136/136
f 137/137/137 132/132/132 141/141/141
f 137/137/137 142/142/142 62/62/62
f 142/142/142 60/60/60 62/62/62
f 143/143/143 134/134/134 138/138/138
f 139/139/139 134/134/134 143/143/143
f 144/144/144 109/109/109 139/139/139
f 144/144/144 116/116/116 109/109/109
f 145/145/145 136/136/136 140/140/140
f 141/141/141 136/136/136 145/145/145
f 146/146/146 137/137/137 141/141/141
f 142/142/142 137/137/137 146/146/146
f 142/142/142 147/147/147 60/60/60
f 147/147/147 58/58/58 60/60/60
f 148/148/148 139/139/139 143/143/143
f 148/148/148 144/144/144 139/139/139
f 149/149/149 141/141/141 145/145/145
f 146/146/146 141/141/141 149/149/149
f 150/150/150 142/142/142 146/146/146
f 142/142/142 150/150/150 147/147/147
f 147/147/147 151/151/151 58/58/58
f 151/151/151 56/56/56 58/58/58
f 152/152/152 146/146/146 149/149/149
f 150/150/150 146/146/146 152/152/152
f 150/150/150 153/153/153 147/147/147
f 147/147/147 153/153/153 151/151/151
f 151/151/151 154/154/154 56/56/56
f 154/154/154 54/54/54 56/56/56
f 155/155/155 150/150/150 152/152/152
f 150/150/150 155/155/155 153/153/153
f 154/154/154 156/156/156 54/54/54
f 156/156/156 52/52/52 54/54/54
f 156/156/156 157/157/157 52/52/52
f 157/157/157 50/50/50 52/52/52
f 158/158/158 156/156/156 154/154/154
f 157/157/157 156/156/156 158/158/158
f 159/159/159 154/154/154 151/151/151
f 159/159/159 158/158/158 154/154/154
f 153/153/153 160/160/160 151/151/151
f 160/160/160 159/159/159 151/151/151
f 157/157/157 161/161/161 50/50/50
f 161/161/161 48/48/48 50/50/50
f 162/162/162 157/157/157 158/158/158
f 161/161/161 157/157/157 162/162/162
f 163/163/163 158/158/158 159/159/159
f 162/162/162 158/158/158 163/163/163
f 161/161/161 164/164/164 48/48/48
f 164/164/164 46/46/46 48/48/48
f 165/165/165 161/161/161 162/162/162
f 164/164/164 161/161/161 165/165/165
f 164/164/164 166/166/166 46/46/46
f 166/166/166 44/44/44 46/46/46
f 153/153/153 167/167/167 160/160/160
f 155/155/155 167/167/167 153/153/153
f 168/168/168 159/159/159 160/160/160
f 168/168/168 163/163/163 159/159/159
f 169/169/169 162/162/162 163/163/163
f 165/165/165 162/162/162 169/169/169
f 170/170/170 164/164/164 165/165/165
f 166/166/166 164/164/164 170/170/170
f 166/166/166 171/171/171 44/44/44
f 171/171/171 42/42/42 44/44/44
f 167/167/167 172/172/172 160/160/160
f 172/172/172 168/168/168 160/160/160
f 173/173/173 163/163/163 168/168/168
f 169/169/169 163/163/163 173/173/173
f 174/174/174 165/165/165 169/169/169
f 170/170/170 165/165/165 174/174/174
f 175/175/175 166/166/166 170/170/170
f 171/171/171 166/166/166 175/175/175
f 171/171/171 176/176/176 42/42/42
f 176/176/176 40/40/40 42/42/42
f 177/177/177 168/168/168 172/172/172
f 177/177/177 173/173/173 168/168/168
f 178/178/178 169/169/169 173/173/173
f 174/174/174 169/169/169 178/178/178
f 179/179/179 170/170/170 174/174/174
f 175/175/175 170/170/170 179/179/179
f 180/180/180 171/171/171 175/175/175
f 176/176/176 171/171/171 180/180/180
f 176/176/176 181/181/181 40/40/40
f 181/181/181 38/38/38 40/40/40
f 182/182/182 173/173/173 177/177/177
f 178/178/178 173/173/173 182/182/182
f 183/183/183 174/174/174 178/178/178
f 179/179/179 174/174/174 183/183/183
f 184/184/184 175/175/175 179/179/179
f 180/180/180 175/175/175 184/184/184
f 181/181/181 185/185/185 38/38/38
f 185/185/185 36/36/36 38/38/38
f 185/185/185 186/186/186 36/36/36
f 186/186/186 34/34/34 36/36/36
f 187/187/187 185/185/185 181/181/181
f 186/186/186 185/185/185 187/187/187
f 186/186/186 188/188/188 34/34/34
f 188/188/188 32/32/32 34/34/34
f 183/183/183 178/178/178 189/189/189
f 189/189/189 178/178/178 182/182/182
f 190/190/190 187/187/187 181/181/181
f 190/190/190 181/181/181 176/176/176
f 191/191/191 176/176/176 180/180/180
f 191/191/191 190/190/190 176/176/176
f 192/192/192 186/186/186 187/187/187
f 188/188/188 186/186/186 192/192/192
f 188/188/188 193/193/193 32/32/32
f 193/193/193 30/30/30 32/32/32
f 194/194/194 187/187/187 190/190/190
f 192/192/192 187/187/187 194/194/194
f 195/195/195 188/188/188 192/192/192
f 193/193/193 188/188/188 195/195/195
f 193/193/193 196/196/196 30/30/30
f 196/196/196 28/28/28 30/30/30
f 191/191/191 180/180/180 197/197/197
f 197/197/197 180/180/180 184/184/184
f 198/198/198 190/190/190 191/191/191
f 198/198/198 194/194/194 190/190/190
f 199/199/199 192/192/192 194/194/194
f 195/195/195 192/192/192 199/199/199
f 200/200/200 193/193/193 195/195/195
f 196/196/196 193/193/193 200/200/200
f 196/196/196 201/201/201 28/28/28
f 201/201/201 26/26/26 28/28/28
f 202/202/202 191/191/191 197/197/197
f 202/202/202 198/198/198 191/191/191
f 203/203/203 194/194/194 198/198/198
f 199/199/199 194/194/194 203/203/203
f 204/204/204 195/195/195 199/199/199
f 200/200/200 195/195/195 204/204/204
f 205/205/205 196/196/196 200/200/200
f 201/201/201 196/196/196 205/205/205
f 201/201/201 206/206/206 26/26/26
f 206/206/206 24/24/24 26/26/26
f 207/207/207 198/198/198 202/202/202
f 207/207/207 203/203/203 198/198/198
f 208/208/208 199/199/199 203/203/203
f 204/204/204 199/199/199 208/208/208
f 209/209/209 200/200/200 204/204/204
f 205/205/205 200/200/200 209/209/209
f 210/210/210 201/201/201 205/205/205
f 206/206/206 201/201/201 210/210/210
f 206/206/206 211/211/211 24/24/24
f 211/211/211 22/22/22 24/24/24
f 212/212/212 203/203/203 207/207/207
f 208/208/208 203/203/203 212/212/212
f 213/213/213 204/204/204 208/208/208
f 209/209/209 204/204/204 213/213/213
f 214/214/214 205/205/205 209/209/209
f 210/210/210 205/205/205 214/214/214
f 211/211/211 215/215/215 22/22/22
f 215/215/215 20/20/20 22/22/22
f 215/215/215 216/216/216 20/20/20
f 216/216/216 18/18/18 20/20/20
f 217/217/217 215/215/215 211/211/211
f 216/216/216 215/215/215 217/217/217
f 216/216/216 218/218/218 18/18/18
f 218/218/218 16/16/16 18/18/18
f 213/213/213 208/208/208 219/219/219
f 219/219/219 208/208/208 212/212/212
f 220/220/220 217/217/217 211/211/211
f 220/220/220 211/211/211 206/206/206
f 221/221/221 206/206/206 210/210/210
f 221/221/221 220/220/220 206/206/206
f 222/222/222 216/216/216 217/217/217
f 218/218/218 216/216/216 222/222/222
f 218/218/218 223/223/223 16/16/16
f 223/223/223 14/14/14 16/16/16
f 224/224/224 217/217/217 220/220/220
f 222/222/222 217/217/217 224/224/224
f 225/225/225 218/218/218 222/222/222
f 223/223/223 218/218/218 225/225/225
f 223/223/223 226/226/226 14/14/14
f 226/226/226 12/12/12 14/14/14
f 221/221/221 210/210/210 227/227/227
f 227/227/227 210/210/210 214/214/214
f 228/228/228 220/220/220 221/221/221
f 228/228/228 224/224/224 220/220/220
f 229/229/229 222/222/222 224/224/224
f 225/225/225 222/222/222 229/229/229
f 230/230/230 223/223/223 225/225/225
f 226/226/226 223/223/223 230/230/230
f 226/226/226 231/231/231 12/12/12
f 231/231/231 10/10/10 12/12/12
f 231/231/231 115/115/115 10/10/10
f 231/231/231 226/226/226 232/232/232
f 232/232/232 226/226/226 230/230/230
f 230/230/230 225/225/225 233/233/233
f 233/233/233 225/225/225 229/229/229
f 229/229/229 224/224/224 234/234/234
f 234/234/234 224/224/224 228/228/228
f 115/115/115 231/231/231 235/235/235
f 235/235/235 231/231/231 232/232/232
f 232/232/232 230/230/230 236/236/236
f 236/236/236 230/230/230 233/233/233
f 233/233/233 229/229/229 237/237/237
f 237/237/237 229/229/229 234/234/234
f 238/238/238 115/115/115 235/235/235
f 238/238/238 119/119/119 115/115/115
f 235/235/235 232/232/232 239/239/239
f 239/239/239 232/232/232 236/236/236
f 236/236/236 233/233/233 240/240/240
f 240/240/240 233/233/233 237/237/237
f 241/241/241 119/119/119 238/238/238
f 241/241/241 121/121/121 119/119/119
f 238/238/238 235/235/235 242/242/242
f 242/242/242 235/235/235 239/239/239
f 239/239/239 236/236/236 243/243/243
f 243/243/243 236/236/236 240/240/240
f 244/244/244 121/121/121 241/241/241
f 124/124/124 121/121/121 244/244/244
f 245/245/245 241/241/241 238/238/238
f 245/245/245 238/238/238 242/242/242
f 242/242/242 239/239/239 246/246/246
f 246/246/246 239/239/239 243/243/243
f 247/247/247 244/244/244 241/241/241
f 247/247/247 241/241/241 245/245/245
f 248/248/248 124/124/124 244/244/244
f 127/127/127 124/124/124 248/248/248
f 245/245/245 242/242/242 249/249/249
f 249/249/249 242/242/242 246/246/246
f 250/250/250 247/247/247 245/245/245
f 250/250/250 245/245/245 249/249/249
f 251/251/251 244/244/244 247/247/247
f 248/248/248 244/244/244 251/251/251
f 252/252/252 127/127/127 248/248/248
f 133/133/133 127/127/127 252/252/252
f 253/253/253 247/247/247 250/250/250
f 253/253/253 251/251/251 247/247/247
f 254/254/254 248/248/248 251/251/251
f 252/252/252 248/248/248 254/254/254
f 255/255/255 133/133/133 252/252/252
f 138/138/138 133/133/133 255/255/255
f 256/256/256 251/251/251 253/253/253
f 254/254/254 251/251/251 256/256/256
f 257/257/257 252/252/252 254/254/254
f 255/255/255 252/252/252 257/257/257
f 258/258/258 138/138/138 255/255/255
f 143/143/143 138/138/138 258/258/258
f 259/259/259 254/254/254 256/256/256
f 257/257/257 254/254/254 259/259/259
f 260/260/260 255/255/255 257/257/257
f 258/258/258 255/255/255 260/260/260
f 261/261/261 143/143/143 258/258/258
f 148/148/148 143/143/143 261/261/261
f 262/262/262 257/257/257 259/259/259
f 260/260/260 257/257/257 262/262/262
f 263/263/263 258/258/258 260/260/260
f 261/261/261 258/258/258 263/263/263
f 264/264/264 260/260/260 262/262/262
f 263/263/263 260/260/260 264/264/264
f 259/259/259 256/256/256 265/265/265
f 262/262/262 259/259/259 266/266/266
f 266/266/266 259/259/259 265/265/265
f 264/264/264 262/262/262 267/267/267
f 267/267/267 262/262/262 266/266/266
f 265/265/265 256/256/256 268/268/268
f 268/268/268 256/256/256 253/253/253
f 268/268/268 253/253/253 269/269/269
f 269/269/269 253/253/253 250/250/250
f 269/269/269 250/250/250 270/270/270
f 250/250/250 249/249/249 270/270/270
f 270/270/270 249/249/249 271/271/271
f 249/249/249 246/246/246 271/271/271
f 271/271/271 246/246/246 272/272/272
f 246/246/246 243/243/243 272/272/272
f 272/272/272 243/243/243 273/273/273
f 243/243/243 240/240/240 273/273/273
f 273/273/273 240/240/240 274/274/274
f 240/240/240 237/237/237 274/274/274
f 274/274/274 237/237/237 275/275/275
f 237/237/237 234/234/234 275/275/275
f 275/275/275 234/234/234 276/276/276
f 276/276/276 234/234/234 228/228/228
f 276/276/276 228/228/228 277/277/277
f 277/277/277 228/228/228 221/221/221
f 277/277/277 221/221/221 227/227/227
f 271/271/271 272/272/272 278/278/278
f 272/272/272 273/273/273 279/279/279
f 278/278/278 272/272/272 279/279/279
f 273/273/273 274/274/274 280/280/280
f 279/279/279 273/273/273 280/280/280
f 274/274/274 275/275/275 281/281/281
f 280/280/280 274/274/274 281/281/281
f 282/282/282 275/275/275 276/276/276
f 281/281/281 275/275/275 282/282/282
f 283/283/283 276/276/276 277/277/277
f 282/282/282 276/276/276 283/283/283
f 277/277/277 227/227/227 284/284/284
f 283/283/283 277/277/277 284/284/284
f 285/285/285 271/271/271 278/278/278
f 270/270/270 271/271/271 285/285/285
f 284/284/284 227/227/227 286/286/286
f 227/227/227 214/214/214 286/286/286
f 287/287/287 270/270/270 285/285/285
f 269/269/269 270/270/270 287/287/287
f 286/286/286 214/214/214 288/288/288
f 214/214/214 209/209/209 288/288/288
f 288/288/288 209/209/209 213/213/213
f 288/288/288 213/213/213 289/289/289
f 289/289/289 213/213/213 219/219/219
f 286/286/286 288/288/288 290/290/290
f 290/290/290 288/288/288 289/289/289
f 284/284/284 286/286/286 291/291/291
f 291/291/291 286/286/286 290/290/290
f 292/292/292 269/269/269 287/287/287
f 292/292/292 268/268/268 269/269/269
f 293/293/293 284/284/284 291/291/291
f 283/283/283 284/284/284 293/293/293
f 294/294/294 268/268/268 292/292/292
f 294/294/294 265/265/265 268/268/268
f 295/295/295 283/283/283 293/293/293
f 295/295/295 282/282/282 283/283/283
f 265/265/265 294/294/294 296/296/296
f 266/266/266 265/265/265 296/296/296
f 297/297/297 282/282/282 295/295/295
f 297/297/297 281/281/281 282/282/282
f 266/266/266 296/296/296 298/298/298
f 267/267/267 266/266/266 298/298/298
f 299/299/299 281/281/281 297/297/297
f 280/280/280 281/281/281 299/299/299
f 300/300/300 267/267/267 298/298/298
f 300/300/300 264/264/264 267/267/267
f 301/301/301 280/280/280 299/299/299
f 279/279/279 280/280/280 301/301/301
f 302/302/302 279/279/279 301/301/301
f 278/278/278 279/279/279 302/302/302
f 303/303/303 264/264/264 300/300/300
f 303/303/303 263/263/263 264/264/264
f 304/304/304 301/301/301 299/299/299
f 301/301/301 304/304/304 302/302/302
f 305/305/305 278/278/278 302/302/302
f 285/285/285 278/278/278 305/305/305
f 306/306/306 263/263/263 303/303/303
f 306/306/306 261/261/261 263/263/263
f 304/304/304 307/307/307 302/302/302
f 305/305/305 302/302/302 307/307/307
f 308/308/308 285/285/285 305/305/305
f 287/287/287 285/285/285 308/308/308
f 309/309/309 305/305/305 307/307/307
f 308/308/308 305/305/305 309/309/309
f 310/310/310 287/287/287 308/308/308
f 310/310/310 308/308/308 309/309/309
f 292/292/292 287/287/287 310/310/310
f 307/307/307 304/304/304 311/311/311
f 309/309/309 307/307/307 311/311/311
f 304/304/304 312/312/312 311/311/311
f 313/313/313 309/309/309 311/311/311
f 310/310/310 309/309/309 313/313/313
f 296/296/296 313/313/313 311/311/311
f 312/312/312 304/304/304 299/299/299
f 314/314/314 292/292/292 310/310/310
f 314/314/314 310/310/310 313/313/313
f 314/314/314 294/294/294 292/292/292
f 294/294/294 314/314/314 313/313/313
f 296/296/296 294/294/294 313/313/313
f 298/298/298 296/296/296 311/311/311
f 312/312/312 299/299/299 315/315/315
f 315/315/315 299/299/299 297/297/297
f 316/316/316 298/298/298 311/311/311
f 316/316/316 300/300/300 298/298/298
f 311/311/311 312/312/312 317/317/317
f 317/317/317 312/312/312 315/315/315
f 315/315/315 297/297/297 318/318/318
f 318/318/318 297/297/297 295/295/295
f 319/319/319 300/300/300 316/316/316
f 319/319/319 303/303/303 300/300/300
f 320/320/320 303/303/303 319/319/319
f 320/320/320 306/306/306 303/303/303
f 321/321/321 319/319/319 316/316/316
f 321/321/321 320/320/320 319/319/319
f 322/322/322 316/316/316 311/311/311
f 321/321/321 316/316/316 322/322/322
f 317/317/317 315/315/315 323/323/323
f 323/323/323 315/315/315 318/318/318
f 318/318/318 295/295/295 324/324/324
f 295/295/295 293/293/293 324/324/324
f 323/323/323 318/318/318 325/325/325
f 325/325/325 317/317/317 323/323/323
f 318/318/318 324/324/324 325/325/325
f 326/326/326 311/311/311 317/317/317
f 326/326/326 317/317/317 325/325/325
f 324/324/324 293/293/293 327/327/327
f 293/293/293 291/291/291 327/327/327
f 325/325/325 324/324/324 328/328/328
f 328/328/328 326/326/326 325/325/325
f 324/324/324 327/327/327 328/328/328
f 326/326/326 329/329/329 311/311/311
f 329/329/329 326/326/326 328/328/328
f 329/329/329 330/330/330 311/311/311
f 330/330/330 331/331/331 311/311/311
f 327/327/327 291/291/291 332/332/332
f 291/291/291 290/290/290 332/332/332
f 328/328/328 327/327/327 333/333/333
f 333/333/333 329/329/329 328/328/328
f 327/327/327 332/332/332 333/333/333
f 329/329/329 333/333/333 334/334/334
f 330/330/330 329/329/329 334/334/334
f 333/333/333 332/332/332 334/334/334
f 332/332/332 290/290/290 335/335/335
f 332/332/332 335/335/335 334/334/334
f 290/290/290 289/289/289 335/335/335
f 334/334/334 336/336/336 330/330/330
f 334/334/334 335/335/335 336/336/336
f 336/336/336 331/331/331 330/330/330
f 335/335/335 289/289/289 337/337/337
f 335/335/335 337/337/337 336/336/336
f 289/289/289 219/219/219 337/337/337
f 336/336/336 337/337/337 338/338/338
f 336/336/336 338/338/338 331/331/331
f 337/337/337 219/219/219 339/339/339
f 337/337/337 339/339/339 338/338/338
f 219/219/219 212/212/212 339/339/339
f 339/339/339 212/212/212 340/340/340
f 340/340/340 212/212/212 207/207/207
f 338/338/338 339/339/339 341/341/341
f 341/341/341 339/339/339 340/340/340
f 338/338/338 342/342/342 331/331/331
f 342/342/342 338/338/338 341/341/341
f 340/340/340 207/207/207 343/343/343
f 343/343/343 207/207/207 202/202/202
f 341/341/341 340/340/340 344/344/344
f 344/344/344 340/340/340 343/343/343
f 343/343/343 202/202/202 345/345/345
f 202/202/202 197/197/197 345/345/345
f 331/331/331 342/342/342 346/346/346
f 331/331/331 346/346/346 311/311/311
f 342/342/342 341/341/341 347/347/347
f 347/347/347 341/341/341 344/344/344
f 344/344/344 343/343/343 348/348/348
f 343/343/343 345/345/345 348/348/348
f 345/345/345 197/197/197 349/349/349
f 197/197/197 184/184/184 349/349/349
f 342/342/342 350/350/350 346/346/346
f 350/350/350 342/342/342 347/347/347
f 347/347/347 344/344/344 351/351/351
f 344/344/344 348/348/348 351/351/351
f 350/350/350 347/347/347 352/352/352
f 350/350/350 352/352/352 346/346/346
f 347/347/347 351/351/351 352/352/352
f 348/348/348 345/345/345 353/353/353
f 345/345/345 349/349/349 353/353/353
f 349/349/349 184/184/184 354/354/354
f 184/184/184 179/179/179 354/354/354
f 354/354/354 179/179/179 183/183/183
f 352/352/352 355/355/355 346/346/346
f 346/346/346 355/355/355 311/311/311
f 352/352/352 351/351/351 356/356/356
f 352/352/352 356/356/356 355/355/355
f 351/351/351 348/348/348 357/357/357
f 351/351/351 357/357/357 356/356/356
f 348/348/348 353/353/353 357/357/357
f 349/349/349 354/354/354 358/358/358
f 353/353/353 349/349/349 358/358/358
f 354/354/354 183/183/183 359/359/359
f 358/358/358 354/354/354 359/359/359
f 359/359/359 183/183/183 189/189/189
f 356/356/356 360/360/360 355/355/355
f 356/356/356 357/357/357 360/360/360
f 357/357/357 353/353/353 361/361/361
f 353/353/353 358/358/358 361/361/361
f 357/357/357 361/361/361 360/360/360
f 358/358/358 359/359/359 362/362/362
f 361/361/361 358/358/358 362/362/362
f 359/359/359 189/189/189 363/363/363
f 362/362/362 359/359/359 363/363/363
f 355/355/355 360/360/360 364/364/364
f 355/355/355 364/364/364 311/311/311
f 360/360/360 361/361/361 365/365/365
f 361/361/361 362/362/362 365/365/365
f 360/360/360 365/365/365 364/364/364
f 365/365/365 362/362/362 366/366/366
f 365/365/365 366/366/366 364/364/364
f 362/362/362 363/363/363 366/366/366
f 363/363/363 189/189/189 367/367/367
f 189/189/189 182/182/182 367/367/367
f 366/366/366 368/368/368 364/364/364
f 364/364/364 368/368/368 311/311/311
f 366/366/366 363/363/363 369/369/369
f 363/363/363 367/367/367 369/369/369
f 366/366/366 369/369/369 368/368/368
f 367/367/367 182/182/182 370/370/370
f 370/370/370 182/182/182 177/177/177
f 369/369/369 367/367/367 371/371/371
f 371/371/371 367/367/367 370/370/370
f 369/369/369 372/372/372 368/368/368
f 372/372/372 369/369/369 371/371/371
f 368/368/368 373/373/373 311/311/311
f 368/368/368 372/372/372 373/373/373
f 370/370/370 177/177/177 374/374/374
f 374/374/374 177/177/177 172/172/172
f 371/371/371 370/370/370 375/375/375
f 375/375/375 370/370/370 374/374/374
f 372/372/372 371/371/371 376/376/376
f 376/376/376 371/371/371 375/375/375
f 377/377/377 374/374/374 172/172/172
f 167/167/167 377/377/377 172/172/172
f 378/378/378 375/375/375 374/374/374
f 377/377/377 378/378/378 374/374/374
f 379/379/379 377/377/377 167/167/167
f 155/155/155 379/379/379 167/167/167
f 373/373/373 380/380/380 311/311/311
f 380/380/380 381/381/381 311/311/311
f 381/381/381 382/382/382 311/311/311
f 372/372/372 383/383/383 373/373/373
f 383/383/383 372/372/372 376/376/376
f 383/383/383 384/384/384 373/373/373
f 384/384/384 383/383/383 376/376/376
f 384/384/384 380/380/380 373/373/373
f 385/385/385 376/376/376 375/375/375
f 385/385/385 384/384/384 376/376/376
f 378/378/378 385/385/385 375/375/375
f 386/386/386 378/378/378 377/377/377
f 379/379/379 386/386/386 377/377/377
f 379/379/379 155/155/155 387/387/387
f 155/155/155 152/152/152 387/387/387
f 384/384/384 388/388/388 380/380/380
f 388/388/388 384/384/384 385/385/385
f 389/389/389 385/385/385 378/378/378
f 389/389/389 388/388/388 385/385/385
f 386/386/386 389/389/389 378/378/378
f 388/388/388 390/390/390 380/380/380
f 388/388/388 389/389/389 390/390/390
f 380/380/380 390/390/390 381/381/381
f 386/386/386 379/379/379 391/391/391
f 379/379/379 387/387/387 391/391/391
f 389/389/389 386/386/386 392/392/392
f 389/389/389 392/392/392 390/390/390
f 386/386/386 391/391/391 392/392/392
f 390/390/390 393/393/393 381/381/381
f 390/390/390 392/392/392 393/393/393
f 382/382/382 381/381/381 393/393/393
f 392/392/392 391/391/391 394/394/394
f 392/392/392 394/394/394 393/393/393
f 391/391/391 387/387/387 395/395/395
f 391/391/391 395/395/395 394/394/394
f 393/393/393 394/394/394 396/396/396
f 396/396/396 382/382/382 393/393/393
f 394/394/394 397/397/397 396/396/396
f 394/394/394 395/395/395 397/397/397
f 387/387/387 398/398/398 395/395/395
f 387/387/387 152/152/152 398/398/398
f 152/152/152 149/149/149 398/398/398
f 382/382/382 396/396/396 399/399/399
f 396/396/396 397/397/397 399/399/399
f 395/395/395 400/400/400 397/397/397
f 395/395/395 398/398/398 400/400/400
f 398/398/398 149/149/149 401/401/401
f 398/398/398 401/401/401 400/400/400
f 149/149/149 145/145/145 401/401/401
f 397/397/397 400/400/400 402/402/402
f 397/397/397 402/402/402 399/399/399
f 400/400/400 401/401/401 403/403/403
f 400/400/400 403/403/403 402/402/402
f 401/401/401 145/145/145 404/404/404
f 401/401/401 404/404/404 403/403/403
f 145/145/145 140/140/140 404/404/404
f 404/404/404 140/140/140 405/405/405
f 405/405/405 140/140/140 135/135/135
f 403/403/403 404/404/404 406/406/406
f 406/406/406 404/404/404 405/405/405
f 402/402/402 403/403/403 407/407/407
f 407/407/407 403/403/403 406/406/406
f 405/405/405 135/135/135 408/408/408
f 408/408/408 135/135/135 123/123/123
f 406/406/406 405/405/405 409/409/409
f 409/409/409 405/405/405 408/408/408
f 408/408/408 123/123/123 410/410/410
f 123/123/123 120/120/120 410/410/410
f 411/411/411 402/402/402 407/407/407
f 399/399/399 402/402/402 411/411/411
f 407/407/407 406/406/406 412/412/412
f 412/412/412 406/406/406 409/409/409
f 409/409/409 408/408/408 413/413/413
f 408/408/408 410/410/410 413/413/413
f 410/410/410 120/120/120 414/414/414
f 120/120/120 117/117/117 414/414/414
f 411/411/411 407/407/407 415/415/415
f 415/415/415 407/407/407 412/412/412
f 412/412/412 409/409/409 416/416/416
f 409/409/409 413/413/413 416/416/416
f 413/413/413 410/410/410 417/417/417
f 410/410/410 414/414/414 417/417/417
f 414/414/414 117/117/117 418/418/418
f 117/117/117 111/111/111 418/418/418
f 415/415/415 412/412/412 419/419/419
f 412/412/412 416/416/416 419/419/419
f 416/416/416 413/413/413 420/420/420
f 413/413/413 417/417/417 420/420/420
f 417/417/417 414/414/414 421/421/421
f 414/414/414 418/418/418 421/421/421
f 418/418/418 111/111/111 422/422/422
f 111/111/111 107/107/107 422/422/422
f 422/422/422 107/107/107 110/110/110
f 418/418/418 422/422/422 423/423/423
f 421/421/421 418/418/418 423/423/423
f 422/422/422 110/110/110 424/424/424
f 423/423/423 422/422/422 424/424/424
f 424/424/424 110/110/110 116/116/116
f 417/417/417 421/421/421 425/425/425
f 420/420/420 417/417/417 425/425/425
f 416/416/416 420/420/420 426/426/426
f 419/419/419 416/416/416 426/426/426
f 421/421/421 423/423/423 427/427/427
f 425/425/425 421/421/421 427/427/427
f 424/424/424 116/116/116 428/428/428
f 428/428/428 116/116/116 144/144/144
f 423/423/423 424/424/424 429/429/429
f 427/427/427 423/423/423 429/429/429
f 429/429/429 424/424/424 428/428/428
f 420/420/420 425/425/425 430/430/430
f 426/426/426 420/420/420 430/430/430
f 431/431/431 428/428/428 144/144/144
f 431/431/431 144/144/144 148/148/148
f 425/425/425 427/427/427 432/432/432
f 430/430/430 425/425/425 432/432/432
f 429/429/429 428/428/428 433/433/433
f 433/433/433 428/428/428 431/431/431
f 427/427/427 429/429/429 434/434/434
f 432/432/432 427/427/427 434/434/434
f 434/434/434 429/429/429 433/433/433
f 435/435/435 431/431/431 148/148/148
f 435/435/435 148/148/148 261/261/261
f 435/435/435 261/261/261 306/306/306
f 436/436/436 433/433/433 431/431/431
f 436/436/436 431/431/431 435/435/435
f 437/437/437 435/435/435 306/306/306
f 437/437/437 436/436/436 435/435/435
f 437/437/437 306/306/306 320/320/320
f 434/434/434 433/433/433 438/438/438
f 438/438/438 433/433/433 436/436/436
f 432/432/432 434/434/434 439/439/439
f 439/439/439 434/434/434 438/438/438
f 440/440/440 437/437/437 320/320/320
f 440/440/440 320/320/320 321/321/321
f 441/441/441 436/436/436 437/437/437
f 441/441/441 438/438/438 436/436/436
f 440/440/440 441/441/441 437/437/437
f 442/442/442 440/440/440 321/321/321
f 442/442/442 321/321/321 322/322/322
f 442/442/442 443/443/443 440/440/440
f 443/443/443 441/441/441 440/440/440
f 443/443/443 442/442/442 322/322/322
f 444/444/444 438/438/438 441/441/441
f 443/443/443 444/444/444 441/441/441
f 439/439/439 438/438/438 444/444/444
f 445/445/445 443/443/443 322/322/322
f 444/444/444 443/443/443 445/445/445
f 445/445/445 322/322/322 311/311/311
f 446/446/446 432/432/432 439/439/439
f 430/430/430 432/432/432 446/446/446
f 447/447/447 439/439/439 444/444/444
f 447/447/447 444/444/444 445/445/445
f 446/446/446 439/439/439 447/447/447
f 448/448/448 430/430/430 446/446/446
f 426/426/426 430/430/430 448/448/448
f 447/447/447 445/445/445 449/449/449
f 449/449/449 445/445/445 311/311/311
f 450/450/450 446/446/446 447/447/447
f 450/450/450 447/447/447 449/449/449
f 448/448/448 446/446/446 450/450/450
f 451/451/451 426/426/426 448/448/448
f 419/419/419 426/426/426 451/451/451
f 449/449/449 452/452/452 450/450/450
f 452/452/452 449/449/449 311/311/311
f 453/453/453 448/448/448 450/450/450
f 451/451/451 448/448/448 453/453/453
f 452/452/452 453/453/453 450/450/450
f 454/454/454 419/419/419 451/451/451
f 415/415/415 419/419/419 454/454/454
f 455/455/455 451/451/451 453/453/453
f 453/453/453 452/452/452 455/455/455
f 454/454/454 451/451/451 455/455/455
f 456/456/456 415/415/415 454/454/454
f 456/456/456 411/411/411 415/415/415
f 452/452/452 457/457/457 455/455/455
f 457/457/457 452/452/452 311/311/311
f 458/458/458 454/454/454 455/455/455
f 455/455/455 457/457/457 458/458/458
f 456/456/456 454/454/454 458/458/458
f 459/459/459 411/411/411 456/456/456
f 459/459/459 399/399/399 411/411/411
f 457/457/457 311/311/311 460/460/460
f 457/457/457 460/460/460 458/458/458
f 461/461/461 456/456/456 458/458/458
f 461/461/461 459/459/459 456/456/456
f 458/458/458 460/460/460 461/461/461
f 460/460/460 459/459/459 461/461/461
f 462/462/462 399/399/399 459/459/459
f 460/460/460 462/462/462 459/459/459
f 311/311/311 462/462/462 460/460/460
f 462/462/462 382/382/382 399/399/399
f 382/382/382 462/462/462 311/311/311
