g Water
v 11.25565 0.7018132 2.89728
v 10.78163 2.07548 1.955226
v 11.27403 0.7141096 1.955226
v 10.76739 2.051744 2.89728
v 7.183647 8.336427 1.955229
v 7.16031 8.328513 2.897282
v 6.239792 9.430037 2.897282
v 6.25533 9.447289 1.955229
v 5.003059 10.17365 1.955228
v 5.003358 10.14722 2.897283
v 3.57788 10.4279 1.955228
v 3.590152 10.39933 2.897283
v 0.9520136 10.43319 1.955228
v 10.36024 1.862887 3.327015
v 6.792146 8.071825 3.327017
v 5.947266 9.082842 3.327016
v 10.80838 0.6238761 3.327015
v 10.80582 -0.6478209 3.327014
v 10.3527 -1.885019 3.327014
v 11.25277 -0.7275577 2.89728
v 11.27403 0.7141096 1.955226
v 11.27112 -0.7335695 1.955226
v 10.75908 -2.075512 2.897278
v 10.77325 -2.092946 1.955224
v 6.75965 -8.079546 3.327012
v 4.847223 9.720903 3.327017
v 7.126781 -8.337715 2.897275
v 10.75908 -2.075512 2.897278
v 5.910709 -9.087154 3.327011
v 7.150095 -8.339363 1.955222
v 10.77325 -2.092946 1.955224
v 6.201834 -9.435524 2.897275
v 6.217317 -9.44648 1.955222
v 4.962529 -10.14772 2.897274
v 4.962132 -10.1678 1.955222
v 4.808106 -9.720785 3.327011
v 3.548318 -10.39415 2.897275
v 3.535942 -10.41631 1.955221
v 3.550136 9.952308 3.327017
v 3.510098 -9.94697 3.327011
v -3.691061 -10.37959 2.897274
v -3.685188 -10.40178 1.955221
v 0.946085 9.957546 3.327016
v -3.651042 -9.93256 3.32701
v -5.104265 -10.12747 2.897274
v -5.110368 -10.14753 1.955221
v -6.36264 -9.421171 1.955221
v 0.9576502 10.40463 2.897282
v -3.611006 9.966714 3.327016
v -3.649228 10.4139 2.897282
v -3.643254 10.44243 1.955227
v -5.069444 10.19391 1.955227
v -4.948127 -9.701157 3.327009
v -4.909015 9.740531 3.319308
v -5.063435 10.16747 2.897282
v -6.324628 9.472595 1.955227
v -6.302743 9.455272 2.897281
v -7.25741 8.36548 1.955225
v -6.011614 9.106898 3.319307
v -7.22769 8.357463 2.897281
v -10.88056 2.11906 1.955223
v -6.048172 -9.063093 3.327009
v -6.86056 8.099291 3.319307
v -10.85999 2.095257 2.897278
v -11.37843 0.7596834 1.955223
v -6.340701 -9.41029 2.897274
v -6.893053 -8.052078 3.32701
v -10.45361 1.904761 3.319304
v -7.261218 -8.308765 2.897274
v -7.290959 -8.310309 1.955221
v -10.88894 -2.049367 1.955222
v -11.35368 0.7473025 2.897277
v -11.38024 -0.1427667 1.955222
v -10.86829 -2.032001 2.897276
v -10.90673 0.6675668 3.319304
v -11.35547 -0.1437373 2.897277
v -11.38134 -0.6879963 1.955222
v -11.35655 -0.6820712 2.897276
v -10.39614 -1.805258 3.327011
v -10.86855 -0.7167706 3.327011
v -10.90832 -0.1251807 3.319303
vt 0.7641602 0.3210449
vt 0.800293 0.3674316
vt 0.7963867 0.3181152
vt 0.7695313 0.3681641
vt 0.7919922 0.6010742
vt 0.7612305 0.5961914
vt 0.7509766 0.6391602
vt 0.7807617 0.6513672
vt 0.7529297 0.6953125
vt 0.7294922 0.675293
vt 0.7148438 0.7290039
vt 0.6967773 0.7041016
vt 0.6396484 0.7734375
vt 0.7495117 0.3691406
vt 0.7416992 0.59375
vt 0.7338867 0.6318359
vt 0.7441406 0.3273926
vt 0.7255859 0.2922363
vt 0.6948242 0.2626953
vt 0.7412109 0.2810059
vt 0.7919922 0.3046875
vt 0.7661133 0.2624512
vt 0.7089844 0.24646
vt 0.7333984 0.2248535
vt 0.4975586 0.1618652
vt 0.715332 0.6635742
vt 0.5043945 0.144043
vt 0.7050781 0.2456055
vt 0.4614258 0.1497803
vt 0.515625 0.1158447
vt 0.7182617 0.2191162
vt 0.463623 0.1323242
vt 0.4675293 0.1012573
vt 0.4226074 0.1328125
vt 0.416748 0.1033936
vt 0.4257813 0.1506348
vt 0.3820801 0.1464844
vt 0.3701172 0.1190796
vt 0.6855469 0.6879883
vt 0.3898926 0.1640625
vt 0.1915283 0.255127
vt 0.1738281 0.2310791
vt 0.6147461 0.7285156
vt 0.2027588 0.270752
vt 0.159668 0.2836914
vt 0.135498 0.2636719
vt 0.1098022 0.3078613
vt 0.625 0.7460938
vt 0.4873047 0.7939453
vt 0.4941406 0.8125
vt 0.5048828 0.8413086
vt 0.4550781 0.8549805
vt 0.1733398 0.2949219
vt 0.4499512 0.8051758
vt 0.4519043 0.8232422
vt 0.4033203 0.8510742
vt 0.4101563 0.8212891
vt 0.3569336 0.8330078
vt 0.4135742 0.8037109
vt 0.3696289 0.8061523
vt 0.1629639 0.7133789
vt 0.1547852 0.3254395
vt 0.3781738 0.7890625
vt 0.1817627 0.6894531
vt 0.1268311 0.6791992
vt 0.1380615 0.3186035
vt 0.1472168 0.362793
vt 0.1933594 0.6748047
vt 0.1281738 0.3603516
vt 0.09832764 0.3562012
vt 0.09350586 0.5834961
vt 0.1508789 0.6601563
vt 0.1091919 0.6508789
vt 0.123291 0.5805664
vt 0.1650391 0.6489258
vt 0.1379395 0.637207
vt 0.1018066 0.6323242
vt 0.1309814 0.6225586
vt 0.144165 0.5791016
vt 0.1472168 0.6132813
vt 0.1542969 0.6289063
vn 0.9072266 0.1574707 0.3901367
vn 0.9067383 0.4213867 0.02432251
vn 0.9848633 0.1726074 0.02146912
vn 0.8330078 0.3859863 0.3962402
vn 0.8203125 0.5712891 0.02511597
vn 0.7529297 0.5253906 0.3964844
vn 0.5927734 0.7036133 0.3916016
vn 0.644043 0.7646484 0.02462769
vn 0.3427734 0.9389648 0.02624512
vn 0.3168945 0.8632813 0.392334
vn 0.08825684 0.9956055 0.02903748
vn 0.08227539 0.9135742 0.3984375
vn 0.002010345 0.9995117 0.0302887
vn 0.3537598 0.1643066 0.9208984
vn 0.3200684 0.2232666 0.9208984
vn 0.260498 0.3093262 0.9145508
vn 0.3981934 0.06945801 0.9145508
vn 0.3979492 -0.07092285 0.9145508
vn 0.3532715 -0.1655273 0.9208984
vn 0.9067383 -0.1616211 0.3896484
vn 0.9848633 0.1726074 0.02146912
vn 0.984375 -0.1759033 0.02029419
vn 0.8320313 -0.3896484 0.3950195
vn 0.9047852 -0.4248047 0.02146912
vn 0.3190918 -0.2243652 0.9208984
vn 0.138916 0.3796387 0.9145508
vn 0.7514648 -0.5288086 0.3947754
vn 0.8320313 -0.3896484 0.3950195
vn 0.2592773 -0.3103027 0.9145508
vn 0.8183594 -0.574707 0.02125549
vn 0.9047852 -0.4248047 0.02146912
vn 0.590332 -0.7070313 0.3891602
vn 0.6416016 -0.7666016 0.01945496
vn 0.3137207 -0.8662109 0.3894043
vn 0.3393555 -0.9404297 0.01989746
vn 0.1374512 -0.380127 0.9145508
vn 0.07867432 -0.9150391 0.3952637
vn 0.08428955 -0.9960938 0.02232361
vn 0.03466797 0.3886719 0.9208984
vn 0.03311157 -0.3886719 0.9208984
vn -0.08215332 -0.9145508 0.3955078
vn -0.08868408 -0.9956055 0.02290344
vn 0.0006246567 0.3735352 0.9277344
vn -0.03491211 -0.3886719 0.9208984
vn -0.3166504 -0.8642578 0.390625
vn -0.34375 -0.9389648 0.0222168
vn -0.6450195 -0.7636719 0.02384949
vn 0.001838684 0.9140625 0.4057617
vn -0.03366089 0.3874512 0.9213867
vn -0.07879639 0.9130859 0.3996582
vn -0.08459473 0.9960938 0.02963257
vn -0.3395996 0.9399414 0.02854919
vn -0.1391602 -0.3796387 0.9145508
vn -0.1369629 0.3774414 0.9160156
vn -0.3127441 0.8632813 0.3962402
vn -0.6416016 0.7666016 0.0289917
vn -0.5878906 0.7045898 0.3974609
vn -0.8178711 0.5742188 0.03070068
vn -0.2565918 0.3068848 0.9165039
vn -0.7485352 0.5268555 0.4030762
vn -0.9047852 0.4248047 0.03048706
vn -0.2607422 -0.309082 0.9145508
vn -0.3156738 0.2220459 0.9223633
vn -0.8286133 0.3881836 0.4030762
vn -0.9838867 0.1765137 0.02816772
vn -0.5922852 -0.7041016 0.3913574
vn -0.3129883 -0.2177734 0.9243164
vn -0.3493652 0.1638184 0.9223633
vn -0.7495117 -0.5229492 0.40625
vn -0.8203125 -0.5708008 0.02684021
vn -0.9067383 -0.4208984 0.02763367
vn -0.9038086 0.1606445 0.3969727
vn -0.9995117 0.002008438 0.02629089
vn -0.8237305 -0.3864746 0.4143066
vn -0.3937988 0.0703125 0.9165039
vn -0.9111328 -0.003530502 0.4121094
vn -0.9848633 -0.1717529 0.0269928
vn -0.8999023 -0.1585693 0.4060059
vn -0.3293457 -0.1573486 0.9311523
vn -0.3774414 -0.08599854 0.921875
vn -0.3728027 -0.00447464 0.9277344
g Water_0
f 3/3/3 2/2/2 1/1/1
f 2/2/2 4/4/4 1/1/1
f 4/4/4 2/2/2 5/5/5
f 6/6/6 4/4/4 5/5/5
f 7/7/7 6/6/6 5/5/5
f 8/8/8 7/7/7 5/5/5
f 7/7/7 8/8/8 9/9/9
f 10/10/10 7/7/7 9/9/9
f 9/9/9 11/11/11 10/10/10
f 11/11/11 12/12/12 10/10/10
f 12/12/12 11/11/11 13/13/13
f 14/14/14 4/4/4 6/6/6
f 15/15/15 6/6/6 7/7/7
f 15/15/15 14/14/14 6/6/6
f 16/16/16 7/7/7 10/10/10
f 16/16/16 15/15/15 7/7/7
f 1/1/1 4/4/4 17/17/17
f 4/4/4 14/14/14 17/17/17
f 17/17/17 18/18/18 1/1/1
f 18/18/18 17/17/17 14/14/14
f 14/14/14 15/15/15 19/19/19
f 14/14/14 19/19/19 18/18/18
f 18/18/18 20/20/20 1/1/1
f 18/18/18 19/19/19 20/20/20
f 21/21/21 1/1/1 20/20/20
f 22/22/22 21/21/21 20/20/20
f 22/22/22 20/20/20 23/23/23
f 19/19/19 23/23/23 20/20/20
f 24/24/24 22/22/22 23/23/23
f 15/15/15 25/25/25 19/19/19
f 15/15/15 16/16/16 25/25/25
f 26/26/26 16/16/16 10/10/10
f 10/10/10 12/12/12 26/26/26
f 19/19/19 25/25/25 27/27/27
f 28/28/28 19/19/19 27/27/27
f 16/16/16 29/29/29 25/25/25
f 16/16/16 26/26/26 29/29/29
f 27/27/27 25/25/25 29/29/29
f 28/28/28 27/27/27 30/30/30
f 31/31/31 28/28/28 30/30/30
f 30/30/30 27/27/27 32/32/32
f 32/32/32 27/27/27 29/29/29
f 33/33/33 30/30/30 32/32/32
f 32/32/32 34/34/34 33/33/33
f 32/32/32 29/29/29 34/34/34
f 34/34/34 35/35/35 33/33/33
f 26/26/26 36/36/36 29/29/29
f 29/29/29 36/36/36 34/34/34
f 35/35/35 34/34/34 37/37/37
f 37/37/37 34/34/34 36/36/36
f 38/38/38 35/35/35 37/37/37
f 26/26/26 39/39/39 36/36/36
f 12/12/12 39/39/39 26/26/26
f 39/39/39 40/40/40 36/36/36
f 40/40/40 37/37/37 36/36/36
f 38/38/38 37/37/37 41/41/41
f 42/42/42 38/38/38 41/41/41
f 39/39/39 12/12/12 43/43/43
f 39/39/39 43/43/43 40/40/40
f 40/40/40 44/44/44 37/37/37
f 44/44/44 41/41/41 37/37/37
f 43/43/43 44/44/44 40/40/40
f 42/42/42 41/41/41 45/45/45
f 46/46/46 42/42/42 45/45/45
f 47/47/47 46/46/46 45/45/45
f 12/12/12 48/48/48 43/43/43
f 48/48/48 12/12/12 13/13/13
f 49/49/49 43/43/43 48/48/48
f 43/43/43 49/49/49 44/44/44
f 50/50/50 48/48/48 13/13/13
f 50/50/50 49/49/49 48/48/48
f 51/51/51 50/50/50 13/13/13
f 51/51/51 52/52/52 50/50/50
f 41/41/41 44/44/44 53/53/53
f 45/45/45 41/41/41 53/53/53
f 49/49/49 54/54/54 44/44/44
f 54/54/54 49/49/49 50/50/50
f 54/54/54 53/53/53 44/44/44
f 52/52/52 55/55/55 50/50/50
f 55/55/55 54/54/54 50/50/50
f 55/55/55 52/52/52 56/56/56
f 57/57/57 55/55/55 56/56/56
f 54/54/54 55/55/55 57/57/57
f 56/56/56 58/58/58 57/57/57
f 54/54/54 59/59/59 53/53/53
f 59/59/59 54/54/54 57/57/57
f 58/58/58 60/60/60 57/57/57
f 57/57/57 60/60/60 59/59/59
f 58/58/58 61/61/61 60/60/60
f 53/53/53 62/62/62 45/45/45
f 59/59/59 62/62/62 53/53/53
f 60/60/60 63/63/63 59/59/59
f 59/59/59 63/63/63 62/62/62
f 61/61/61 64/64/64 60/60/60
f 64/64/64 61/61/61 65/65/65
f 62/62/62 66/66/66 45/45/45
f 66/66/66 47/47/47 45/45/45
f 63/63/63 67/67/67 62/62/62
f 62/62/62 67/67/67 66/66/66
f 68/68/68 63/63/63 60/60/60
f 64/64/64 68/68/68 60/60/60
f 63/63/63 68/68/68 67/67/67
f 66/66/66 69/69/69 47/47/47
f 67/67/67 69/69/69 66/66/66
f 69/69/69 70/70/70 47/47/47
f 71/71/71 70/70/70 69/69/69
f 72/72/72 64/64/64 65/65/65
f 72/72/72 65/65/65 73/73/73
f 74/74/74 69/69/69 67/67/67
f 74/74/74 71/71/71 69/69/69
f 72/72/72 75/75/75 64/64/64
f 75/75/75 68/68/68 64/64/64
f 76/76/76 72/72/72 73/73/73
f 75/75/75 72/72/72 76/76/76
f 76/76/76 73/73/73 77/77/77
f 77/77/77 71/71/71 78/78/78
f 78/78/78 76/76/76 77/77/77
f 71/71/71 74/74/74 78/78/78
f 68/68/68 79/79/79 67/67/67
f 79/79/79 74/74/74 67/67/67
f 68/68/68 80/80/80 79/79/79
f 74/74/74 79/79/79 80/80/80
f 68/68/68 75/75/75 80/80/80
f 78/78/78 74/74/74 80/80/80
f 81/81/81 76/76/76 78/78/78
f 81/81/81 75/75/75 76/76/76
f 80/80/80 81/81/81 78/78/78
f 75/75/75 81/81/81 80/80/80
