g Water_Alpha
v -7.431203 -0.03249597 -8.213338
v -6.521171 -0.03249627 -9.347038
v -6.584619 0.5446775 -9.347174
v -7.49465 0.5446778 -8.213473
v -10.91956 -0.03249567 -1.856021
v -5.34172 0.5446775 -10.10126
v -5.278272 -0.03249627 -10.10112
v -10.98301 0.5446781 -1.856157
v -11.38696 -0.03249536 -0.4794422
v -6.538313 0.8028147 -9.294364
v -3.915868 0.5446775 -10.38477
v -3.85242 -0.03249627 -10.38463
v -11.45041 0.5446784 -0.4795776
v -11.35536 -0.03249536 0.9739801
v -5.316269 0.8028147 -10.03579
v 3.333912 0.5446775 -10.54242
v 3.39736 -0.03249627 -10.54228
v -11.41881 0.5446784 0.9738447
v -10.82856 -0.03249536 2.328941
v -10.89201 0.5446784 2.328805
v -7.067145 -0.03249475 8.52861
v -11.34992 0.8028153 0.9601486
v -11.38099 0.8028153 -0.4688893
v -3.908314 0.8028147 -10.31575
v 4.770742 0.5446775 -10.32116
v 4.834189 -0.03249627 -10.32102
v 6.045245 0.5446775 -9.621819
v 6.108692 -0.03249627 -9.621683
v 4.74816 0.8028147 -10.25465
v 7.003699 0.5446778 -8.528748
v 7.067147 -0.03249597 -8.528612
v -10.91946 0.8028153 -1.828189
v 3.329366 0.8028147 -10.47313
v 6.001282 0.8028147 -9.567048
v 10.76512 0.5446781 -2.329075
v 10.82856 -0.03249567 -2.32894
v -7.436923 0.8028147 -8.174894
v 4.686467 0.9917841 -10.07295
v 6.947701 0.8028147 -8.487695
v 11.29191 0.5446784 -0.9741163
v 11.35536 -0.03249536 -0.9739809
v 11.32352 0.5446784 0.4793067
v 11.38697 -0.03249536 0.4794421
v 11.22303 0.8028153 -0.9604194
v 10.85612 0.5446784 1.855885
v 10.91957 -0.03249536 1.856021
v 5.881162 0.9917841 -9.417405
v 10.70284 0.8028153 -2.298372
v 11.2541 0.8028153 0.4686184
v 7.367757 0.544679 8.213202
v 7.431205 -0.03249475 8.213339
v 6.794718 0.9917844 -8.375538
v 11.03483 0.9917848 -0.922998
v 10.79257 0.8028153 1.827917
v 6.457726 0.544679 9.346904
v 6.521173 -0.03249475 9.347039
v 5.214827 0.544679 10.10099
v 5.278275 -0.03249475 10.10112
v 6.41142 0.8028159 9.294097
v 3.788975 0.544679 10.3845
v 3.852423 -0.03249475 10.38463
v 10.53271 0.9917848 -2.214486
v 11.06445 0.991785 0.4394132
v 7.310029 0.8028159 8.174624
v 5.189377 0.8028159 10.03552
v -3.460805 0.544679 10.54214
v -3.397357 -0.03249475 10.54228
v 10.77774 1.060952 -0.8718792
v 10.61895 0.991785 1.751508
v 6.284914 0.9917856 9.149819
v 3.781421 0.8028159 10.31548
v -4.897635 0.544679 10.32089
v -4.834188 -0.03249475 10.32102
v -6.172138 0.544679 9.621547
v -6.10869 -0.03249475 9.621681
v -4.875052 0.8028159 10.25438
v -7.130593 0.544679 8.528475
v -6.128172 0.8028159 9.566775
v -3.456258 0.8028159 10.47286
v 5.119845 0.9917856 9.856683
v -7.074594 0.8028159 8.487423
v -4.813359 0.9917856 10.07268
v 3.760785 0.9917856 10.12691
v -10.82973 0.8028153 2.298101
v -6.008057 0.9917856 9.417133
v -3.443838 0.9917856 10.28358
v -6.921612 0.9917856 8.375266
v -11.16172 0.991785 0.9227271
v -4.729086 1.060953 9.824483
v -10.6596 0.991785 2.214214
v -11.19134 0.991785 -0.4396847
v -5.843975 1.060953 9.212724
v -0.06344574 1.060953 -0.0001350877
v -6.712632 1.060953 8.22206
v -3.42687 1.060953 10.02501
v 3.732592 1.060953 9.869326
v 5.024859 1.060953 9.612378
v 6.1121 1.060953 8.952737
v -10.42719 1.060953 2.099626
v -10.90463 1.060953 0.8716086
v 6.936872 1.060953 7.925248
v 7.152312 0.9917856 8.069226
v 10.38178 1.060953 1.647128
v 10.80539 1.060953 0.3995191
v -10.93228 1.060953 -0.399791
v 10.3003 1.060952 -2.099897
v 6.58574 1.060952 -8.222331
v 5.71708 1.060952 -9.212995
v -10.50867 1.060952 -1.6474
v -10.74584 0.9917848 -1.751778
v 4.602193 1.060952 -9.824753
v -7.279206 0.9917844 -8.069495
v 3.316946 0.9917841 -10.28385
v -7.063765 1.060952 -7.925519
v -6.411807 0.9917841 -9.150091
v -6.238993 1.060952 -8.953005
v -5.246737 0.9917841 -9.856954
v -3.887676 0.9917841 -10.12718
v -5.151753 1.060952 -9.612649
v -3.859487 1.060952 -9.869595
v 3.299978 1.060952 -10.02528
vt 0.9472656 0.8588867
vt 0.9477539 0.8564453
vt 0.9477539 0.8564453
vt 0.9472656 0.8588867
vt 0.9414063 0.8691406
vt 0.9477539 0.8540039
vt 0.9477539 0.8540039
vt 0.9414063 0.8691406
vt 0.9394531 0.8710938
vt 0.9477539 0.8564453
vt 0.9472656 0.8520508
vt 0.9472656 0.8520508
vt 0.9394531 0.8710938
vt 0.9375 0.8720703
vt 0.9477539 0.8540039
vt 0.9414063 0.8413086
vt 0.9414063 0.8413086
vt 0.9375 0.8720703
vt 0.9350586 0.8725586
vt 0.9350586 0.8725586
vt 0.9233398 0.8725586
vt 0.9375 0.8720703
vt 0.9394531 0.8706055
vt 0.9472656 0.8520508
vt 0.9394531 0.8398438
vt 0.9394531 0.8398438
vt 0.9375 0.8383789
vt 0.9375 0.8383789
vt 0.9394531 0.8398438
vt 0.9350586 0.8378906
vt 0.9350586 0.8378906
vt 0.940918 0.8691406
vt 0.940918 0.8413086
vt 0.9375 0.8383789
vt 0.9233398 0.8378906
vt 0.9233398 0.8378906
vt 0.9472656 0.8588867
vt 0.9394531 0.8398438
vt 0.9350586 0.8383789
vt 0.9208984 0.8383789
vt 0.9208984 0.8383789
vt 0.9189453 0.8398438
vt 0.9189453 0.8398438
vt 0.9208984 0.8383789
vt 0.9174805 0.8413086
vt 0.9174805 0.8413086
vt 0.9375 0.8388672
vt 0.9233398 0.8383789
vt 0.9189453 0.8398438
vt 0.9111328 0.8520508
vt 0.9111328 0.8520508
vt 0.9350586 0.8383789
vt 0.9208984 0.8388672
vt 0.9174805 0.8413086
vt 0.9106445 0.8540039
vt 0.9106445 0.8540039
vt 0.9106445 0.8564453
vt 0.9106445 0.8564453
vt 0.9106445 0.8540039
vt 0.9111328 0.8588867
vt 0.9111328 0.8588867
vt 0.9233398 0.8383789
vt 0.9189453 0.8398438
vt 0.9116211 0.8520508
vt 0.9106445 0.8564453
vt 0.9174805 0.8691406
vt 0.9174805 0.8691406
vt 0.9213867 0.8393555
vt 0.9174805 0.8417969
vt 0.9111328 0.8540039
vt 0.9116211 0.8588867
vt 0.9189453 0.8710938
vt 0.9189453 0.8710938
vt 0.9208984 0.8720703
vt 0.9208984 0.8720703
vt 0.9189453 0.8706055
vt 0.9233398 0.8725586
vt 0.9208984 0.8720703
vt 0.9174805 0.8691406
vt 0.9111328 0.8564453
vt 0.9233398 0.8725586
vt 0.9189453 0.8706055
vt 0.9116211 0.8583984
vt 0.9350586 0.8725586
vt 0.9208984 0.871582
vt 0.9174805 0.8686523
vt 0.9233398 0.8720703
vt 0.9375 0.871582
vt 0.9194336 0.8701172
vt 0.9350586 0.8720703
vt 0.9394531 0.8706055
vt 0.9213867 0.8710938
vt 0.9291992 0.8554688
vt 0.9233398 0.871582
vt 0.9179688 0.8686523
vt 0.9121094 0.8583984
vt 0.9116211 0.8564453
vt 0.9116211 0.8540039
vt 0.9350586 0.871582
vt 0.9375 0.8710938
vt 0.9121094 0.8520508
vt 0.9116211 0.8520508
vt 0.9179688 0.8417969
vt 0.9194336 0.840332
vt 0.9389648 0.8701172
vt 0.9233398 0.8388672
vt 0.9350586 0.8388672
vt 0.9375 0.8393555
vt 0.9404297 0.8686523
vt 0.940918 0.8686523
vt 0.9389648 0.840332
vt 0.9467773 0.8583984
vt 0.940918 0.8417969
vt 0.9462891 0.8583984
vt 0.9477539 0.8564453
vt 0.9472656 0.8564453
vt 0.9477539 0.8540039
vt 0.9467773 0.8520508
vt 0.9472656 0.8540039
vt 0.9462891 0.8520508
vt 0.9404297 0.8417969
vn -0.8569336 -0.09124756 -0.5068359
vn -0.6508789 -0.07171631 -0.7558594
vn -0.6621094 0.0447998 -0.7480469
vn -0.862793 0.03564453 -0.5043945
vn -0.8847656 -0.1004028 -0.4555664
vn -0.3669434 0.0609436 -0.9282227
vn -0.3515625 -0.03884888 -0.9355469
vn -0.8901367 0.03125 -0.4545898
vn -0.9824219 -0.1080322 -0.1530762
vn -0.5751953 0.489502 -0.6552734
vn -0.05358887 0.07537842 -0.9956055
vn -0.04476929 -0.0115509 -0.9990234
vn -0.9882813 0.02728271 -0.1512451
vn -0.9746094 -0.1071167 0.1962891
vn -0.3156738 0.489502 -0.8129883
vn 0.004207611 0.08496094 -0.996582
vn 0.01338196 0.007656097 -1
vn -0.980957 0.02767944 0.1933594
vn -0.8637695 -0.09820557 0.4938965
vn -0.8696289 0.03219604 0.4924316
vn -0.8344727 -0.08825684 0.5439453
vn -0.8549805 0.489502 0.1704102
vn -0.8618164 0.489502 -0.1331787
vn -0.04385376 0.4936523 -0.8686523
vn 0.314209 0.09881592 -0.9443359
vn 0.3320313 0.0362854 -0.9423828
vn 0.6181641 0.1159058 -0.7773438
vn 0.6318359 0.0692749 -0.7719727
vn 0.2800293 0.489502 -0.8256836
vn 0.831543 0.1262207 -0.5410156
vn 0.8383789 0.08868408 -0.5380859
vn -0.7739258 0.4936523 -0.3962402
vn 0.006061554 0.4936523 -0.8696289
vn 0.5463867 0.489502 -0.6796875
vn 0.8613281 0.1312256 -0.4904785
vn 0.8666992 0.09851074 -0.4892578
vn -0.75 0.4936523 -0.4399414
vn 0.1671143 0.8530273 -0.4941406
vn 0.7304688 0.4936523 -0.472168
vn 0.9711914 0.1361084 -0.1949463
vn 0.9755859 0.1071777 -0.1916504
vn 0.9790039 0.1364746 0.1517334
vn 0.9829102 0.1080933 0.1495361
vn 0.8549805 0.489502 -0.1704102
vn 0.8823242 0.1323242 0.4521484
vn 0.8867188 0.100647 0.4511719
vn 0.3271484 0.8530273 -0.4064941
vn 0.7563477 0.4936523 -0.4294434
vn 0.8618164 0.489502 0.1330566
vn 0.8544922 0.1278076 0.503418
vn 0.8603516 0.09161377 0.5009766
vn 0.4294434 0.859375 -0.2775879
vn 0.5117188 0.8530273 -0.102356
vn 0.7739258 0.4936523 0.3962402
vn 0.6513672 0.118042 0.7495117
vn 0.6640625 0.07318115 0.7441406
vn 0.3549805 0.1012573 0.9291992
vn 0.3725586 0.04116821 0.9272461
vn 0.5751953 0.489502 0.6552734
vn 0.0475769 0.08752441 0.9951172
vn 0.05673218 0.01289368 0.9985352
vn 0.4445801 0.859375 -0.2526855
vn 0.515625 0.8530273 0.08001709
vn 0.75 0.4936523 0.4399414
vn 0.3156738 0.489502 0.8129883
vn -0.01032257 0.07794189 0.9970703
vn -0.001214981 -0.006317139 1
vn 0.01515961 1 -0.003047943
vn 0.4550781 0.859375 0.2332764
vn 0.3444824 0.8530273 0.3918457
vn 0.04385376 0.4936523 0.8686523
vn -0.326416 0.06341553 0.9428711
vn -0.3103027 -0.03390503 0.9501953
vn -0.6289063 0.04678345 0.7758789
vn -0.6171875 -0.06762695 0.7841797
vn -0.2800293 0.489502 0.8256836
vn -0.840332 0.03720093 0.5410156
vn -0.5463867 0.489502 0.6796875
vn -0.006061554 0.4936523 0.8696289
vn 0.1884766 0.8530273 0.4863281
vn -0.7304688 0.4936523 0.472168
vn -0.1671143 0.8530273 0.4941406
vn 0.02555847 0.859375 0.5107422
vn -0.7563477 0.4936523 0.4294434
vn -0.3271484 0.8530273 0.4064941
vn -0.003324509 0.859375 0.5112305
vn -0.4294434 0.859375 0.2775879
vn -0.5112305 0.8530273 0.102356
vn -0.004940033 1 0.01465607
vn -0.4445801 0.859375 0.2526855
vn -0.515625 0.8530273 -0.08001709
vn -0.009712219 1 0.01204681
vn 0 1 0
vn -0.01383209 1 0.008934021
vn -9.357929E-05 1 0.01647949
vn 0.0008225441 1 0.01644897
vn 0.005577087 1 0.01442719
vn 0.01022339 1 0.01160431
vn -0.01431274 1 0.008155823
vn -0.01515961 1 0.003047943
vn 0.01422119 1 0.00831604
vn 0.4411621 0.859375 0.2585449
vn 0.01465607 1 0.007511139
vn 0.01528931 1 0.002386093
vn -0.01528931 1 -0.002388
vn 0.01431274 1 -0.008155823
vn 0.01383209 1 -0.008934021
vn 0.009712219 1 -0.01204681
vn -0.01465607 1 -0.007522583
vn -0.4550781 0.859375 -0.2332764
vn 0.004940033 1 -0.01465607
vn -0.4411621 0.859375 -0.2585449
vn 0.003324509 0.859375 -0.5112305
vn -0.01422119 1 -0.008323669
vn -0.3444824 0.8530273 -0.3918457
vn -0.01021576 1 -0.01160431
vn -0.1884766 0.8530273 -0.4863281
vn -0.02555847 0.859375 -0.5107422
vn -0.005577087 1 -0.01443481
vn -0.0008225441 1 -0.01644897
vn 9.375811E-05 1 -0.01647949
g Water_Alpha_0
f 3/3/3 2/2/2 1/1/1
f 3/3/3 1/1/1 4/4/4
f 4/4/4 1/1/1 5/5/5
f 6/6/6 2/2/2 3/3/3
f 6/6/6 7/7/7 2/2/2
f 4/4/4 5/5/5 8/8/8
f 8/8/8 5/5/5 9/9/9
f 10/10/10 3/3/3 4/4/4
f 6/6/6 3/3/3 10/10/10
f 11/11/11 7/7/7 6/6/6
f 11/11/11 12/12/12 7/7/7
f 8/8/8 9/9/9 13/13/13
f 13/13/13 9/9/9 14/14/14
f 6/6/6 10/10/10 15/15/15
f 11/11/11 6/6/6 15/15/15
f 16/16/16 12/12/12 11/11/11
f 16/16/16 17/17/17 12/12/12
f 13/13/13 14/14/14 18/18/18
f 18/18/18 14/14/14 19/19/19
f 18/18/18 19/19/19 20/20/20
f 20/20/20 19/19/19 21/21/21
f 13/13/13 18/18/18 22/22/22
f 22/22/22 18/18/18 20/20/20
f 8/8/8 13/13/13 23/23/23
f 13/13/13 22/22/22 23/23/23
f 11/11/11 15/15/15 24/24/24
f 16/16/16 11/11/11 24/24/24
f 25/25/25 17/17/17 16/16/16
f 25/25/25 26/26/26 17/17/17
f 27/27/27 26/26/26 25/25/25
f 27/27/27 28/28/28 26/26/26
f 29/29/29 25/25/25 16/16/16
f 27/27/27 25/25/25 29/29/29
f 30/30/30 28/28/28 27/27/27
f 30/30/30 31/31/31 28/28/28
f 8/8/8 23/23/23 32/32/32
f 32/32/32 4/4/4 8/8/8
f 16/16/16 24/24/24 33/33/33
f 29/29/29 16/16/16 33/33/33
f 27/27/27 29/29/29 34/34/34
f 30/30/30 27/27/27 34/34/34
f 35/35/35 31/31/31 30/30/30
f 35/35/35 36/36/36 31/31/31
f 32/32/32 37/37/37 4/4/4
f 10/10/10 4/4/4 37/37/37
f 38/38/38 29/29/29 33/33/33
f 34/34/34 29/29/29 38/38/38
f 30/30/30 34/34/34 39/39/39
f 35/35/35 30/30/30 39/39/39
f 40/40/40 36/36/36 35/35/35
f 40/40/40 41/41/41 36/36/36
f 42/42/42 41/41/41 40/40/40
f 42/42/42 43/43/43 41/41/41
f 44/44/44 40/40/40 35/35/35
f 42/42/42 40/40/40 44/44/44
f 45/45/45 43/43/43 42/42/42
f 45/45/45 46/46/46 43/43/43
f 34/34/34 38/38/38 47/47/47
f 39/39/39 34/34/34 47/47/47
f 35/35/35 39/39/39 48/48/48
f 44/44/44 35/35/35 48/48/48
f 42/42/42 44/44/44 49/49/49
f 45/45/45 42/42/42 49/49/49
f 50/50/50 46/46/46 45/45/45
f 50/50/50 51/51/51 46/46/46
f 39/39/39 47/47/47 52/52/52
f 48/48/48 39/39/39 52/52/52
f 53/53/53 44/44/44 48/48/48
f 49/49/49 44/44/44 53/53/53
f 45/45/45 49/49/49 54/54/54
f 50/50/50 45/45/45 54/54/54
f 55/55/55 51/51/51 50/50/50
f 55/55/55 56/56/56 51/51/51
f 57/57/57 56/56/56 55/55/55
f 57/57/57 58/58/58 56/56/56
f 59/59/59 55/55/55 50/50/50
f 57/57/57 55/55/55 59/59/59
f 60/60/60 58/58/58 57/57/57
f 60/60/60 61/61/61 58/58/58
f 53/53/53 48/48/48 62/62/62
f 48/48/48 52/52/52 62/62/62
f 49/49/49 53/53/53 63/63/63
f 54/54/54 49/49/49 63/63/63
f 50/50/50 54/54/54 64/64/64
f 59/59/59 50/50/50 64/64/64
f 57/57/57 59/59/59 65/65/65
f 60/60/60 57/57/57 65/65/65
f 66/66/66 61/61/61 60/60/60
f 66/66/66 67/67/67 61/61/61
f 68/68/68 53/53/53 62/62/62
f 63/63/63 53/53/53 68/68/68
f 54/54/54 63/63/63 69/69/69
f 64/64/64 54/54/54 69/69/69
f 70/70/70 59/59/59 64/64/64
f 65/65/65 59/59/59 70/70/70
f 60/60/60 65/65/65 71/71/71
f 66/66/66 60/60/60 71/71/71
f 72/72/72 67/67/67 66/66/66
f 72/72/72 73/73/73 67/67/67
f 74/74/74 73/73/73 72/72/72
f 74/74/74 75/75/75 73/73/73
f 76/76/76 72/72/72 66/66/66
f 74/74/74 72/72/72 76/76/76
f 77/77/77 75/75/75 74/74/74
f 77/77/77 21/21/21 75/75/75
f 20/20/20 21/21/21 77/77/77
f 77/77/77 74/74/74 78/78/78
f 74/74/74 76/76/76 78/78/78
f 76/76/76 66/66/66 79/79/79
f 66/66/66 71/71/71 79/79/79
f 71/71/71 65/65/65 80/80/80
f 65/65/65 70/70/70 80/80/80
f 20/20/20 77/77/77 81/81/81
f 77/77/77 78/78/78 81/81/81
f 78/78/78 76/76/76 82/82/82
f 82/82/82 76/76/76 79/79/79
f 79/79/79 71/71/71 83/83/83
f 71/71/71 80/80/80 83/83/83
f 20/20/20 81/81/81 84/84/84
f 22/22/22 20/20/20 84/84/84
f 81/81/81 78/78/78 85/85/85
f 78/78/78 82/82/82 85/85/85
f 82/82/82 79/79/79 86/86/86
f 79/79/79 83/83/83 86/86/86
f 84/84/84 81/81/81 87/87/87
f 81/81/81 85/85/85 87/87/87
f 88/88/88 22/22/22 84/84/84
f 23/23/23 22/22/22 88/88/88
f 85/85/85 82/82/82 89/89/89
f 89/89/89 82/82/82 86/86/86
f 84/84/84 87/87/87 90/90/90
f 88/88/88 84/84/84 90/90/90
f 23/23/23 88/88/88 91/91/91
f 32/32/32 23/23/23 91/91/91
f 87/87/87 85/85/85 92/92/92
f 85/85/85 89/89/89 92/92/92
f 92/92/92 89/89/89 93/93/93
f 87/87/87 92/92/92 94/94/94
f 90/90/90 87/87/87 94/94/94
f 94/94/94 92/92/92 93/93/93
f 89/89/89 86/86/86 95/95/95
f 89/89/89 95/95/95 93/93/93
f 86/86/86 96/96/96 95/95/95
f 95/95/95 96/96/96 93/93/93
f 86/86/86 83/83/83 96/96/96
f 83/83/83 97/97/97 96/96/96
f 96/96/96 97/97/97 93/93/93
f 83/83/83 80/80/80 97/97/97
f 80/80/80 98/98/98 97/97/97
f 97/97/97 98/98/98 93/93/93
f 80/80/80 70/70/70 98/98/98
f 99/99/99 94/94/94 93/93/93
f 90/90/90 94/94/94 99/99/99
f 100/100/100 99/99/99 93/93/93
f 100/100/100 90/90/90 99/99/99
f 98/98/98 101/101/101 93/93/93
f 100/100/100 88/88/88 90/90/90
f 91/91/91 88/88/88 100/100/100
f 98/98/98 70/70/70 102/102/102
f 98/98/98 102/102/102 101/101/101
f 70/70/70 64/64/64 102/102/102
f 64/64/64 69/69/69 102/102/102
f 102/102/102 103/103/103 101/101/101
f 102/102/102 69/69/69 103/103/103
f 101/101/101 103/103/103 93/93/93
f 69/69/69 104/104/104 103/103/103
f 103/103/103 104/104/104 93/93/93
f 69/69/69 63/63/63 104/104/104
f 63/63/63 68/68/68 104/104/104
f 104/104/104 68/68/68 93/93/93
f 91/91/91 100/100/100 105/105/105
f 105/105/105 100/100/100 93/93/93
f 68/68/68 106/106/106 93/93/93
f 68/68/68 62/62/62 106/106/106
f 106/106/106 107/107/107 93/93/93
f 62/62/62 107/107/107 106/106/106
f 62/62/62 52/52/52 107/107/107
f 107/107/107 108/108/108 93/93/93
f 52/52/52 108/108/108 107/107/107
f 109/109/109 105/105/105 93/93/93
f 52/52/52 47/47/47 108/108/108
f 110/110/110 91/91/91 105/105/105
f 110/110/110 105/105/105 109/109/109
f 32/32/32 91/91/91 110/110/110
f 110/110/110 37/37/37 32/32/32
f 47/47/47 111/111/111 108/108/108
f 108/108/108 111/111/111 93/93/93
f 47/47/47 38/38/38 111/111/111
f 109/109/109 112/112/112 110/110/110
f 110/110/110 112/112/112 37/37/37
f 111/111/111 38/38/38 113/113/113
f 38/38/38 33/33/33 113/113/113
f 114/114/114 109/109/109 93/93/93
f 109/109/109 114/114/114 112/112/112
f 115/115/115 37/37/37 112/112/112
f 115/115/115 10/10/10 37/37/37
f 15/15/15 10/10/10 115/115/115
f 116/116/116 112/112/112 114/114/114
f 116/116/116 115/115/115 112/112/112
f 116/116/116 114/114/114 93/93/93
f 15/15/15 115/115/115 117/117/117
f 117/117/117 115/115/115 116/116/116
f 24/24/24 15/15/15 117/117/117
f 33/33/33 24/24/24 118/118/118
f 24/24/24 117/117/117 118/118/118
f 33/33/33 118/118/118 113/113/113
f 117/117/117 116/116/116 119/119/119
f 118/118/118 117/117/117 119/119/119
f 119/119/119 116/116/116 93/93/93
f 118/118/118 119/119/119 120/120/120
f 113/113/113 118/118/118 120/120/120
f 120/120/120 119/119/119 93/93/93
f 113/113/113 120/120/120 121/121/121
f 121/121/121 120/120/120 93/93/93
f 111/111/111 113/113/113 121/121/121
f 111/111/111 121/121/121 93/93/93
