g Water
v -9.746307 4.854182 2.628145
v -0.5309789 4.854182 3.351537
v -9.423311 4.854182 5.83224
v -1.977978 4.854182 0.4610083
v 2.591225 4.854182 1.632217
v 1.144225 4.854182 -1.258313
v 0.5877295 4.854182 -1.790651
v -3.403083 4.854182 -3.113416
v 0.3867416 4.824624 -1.990576
v -3.485586 4.824624 -3.271076
v 0.2396085 4.743871 -2.152258
v -3.545982 4.74387 -3.401813
v -0.3350407 4.633559 -2.643496
v -3.517433 4.633559 -3.560221
v -0.3856948 2.896016 -2.970983
v -3.568087 2.896016 -3.887708
v -3.568087 2.896016 -3.887708
v -3.232346 2.896016 -4.525613
v 0.6054306 2.896016 -3.455257
v -0.3856948 2.896016 -2.970983
v -0.005866164 3.019489 0.008411401
v -3.015933 3.068996 -3.384805
v -2.749036 3.068996 -3.950345
v -2.5321 3.068996 -4.739467
v -2.246204 3.068996 -5.779437
v -1.020059 3.070592 -2.611726
v -1.896703 3.068996 -6.608674
v -0.4620625 3.070592 -4.501948
v -1.486122 3.019488 -7.582837
v 0.4535757 3.070592 -7.565827
v -1.405947 3.019488 -8.157874
v 1.046202 3.070592 -8.030671
v 1.894572 3.070592 -8.503915
v -2.320103 3.068996 -8.100917
v -1.95949 3.068996 -7.586987
v -2.841362 3.068995 -8.560332
v -1.370035 3.019487 -8.580297
v -3.13574 3.068995 -8.719712
v -3.86288 3.043784 -9.82272
v 2.474936 3.070592 -8.771146
v -3.79462 3.068996 -8.860169
v -4.68369 3.068996 -8.783229
v 3.3621 3.043784 -9.980054
v 3.503554 3.070591 -8.925801
v -5.114671 3.043783 -9.593225
v -5.910188 3.068995 -8.512301
v 4.638801 3.043783 -9.82614
v 4.191933 3.070591 -8.879949
v -3.851695 2.968736 -10.36517
v -6.200501 3.043784 -8.931264
v -6.635564 3.068995 -8.394973
v -6.981435 3.004589 -8.360328
v -5.210177 2.968736 -10.09204
v -6.373736 2.968736 -9.382698
v -7.336732 2.739406 -8.287225
v -6.515645 2.739406 -9.497762
v -7.432872 2.459325 -8.235788
v -6.562062 2.459325 -9.571571
v -5.29699 2.739406 -10.23795
v -3.880335 2.739406 -10.47131
v 3.357751 2.970502 -10.46849
v -5.32258 2.459325 -10.24808
v 4.722543 2.968736 -10.32924
v -6.562062 1.841624 -9.445104
v -5.32258 1.841624 -10.20471
v -3.888035 2.459325 -10.53867
v -3.888035 1.841624 -10.49529
v 3.380095 2.459325 -10.77792
v 3.380095 1.841624 -10.70963
v 3.375699 2.739406 -10.62718
v 4.816574 2.459325 -10.57856
v 4.816574 1.841624 -10.45209
v 4.794132 2.739406 -10.41858
v 6.116175 2.459325 -9.876804
v 6.116175 1.841624 -9.750337
v 6.07233 2.739406 -9.793938
v 7.163951 2.367917 -8.474595
v 7.014417 2.732494 -8.4842
v 5.918637 2.968736 -9.676239
v 6.933945 2.978701 -8.326782
v 5.754991 3.043784 -9.21676
v 6.673672 3.094606 -8.20686
v 5.389185 3.081971 -8.630977
v 7.015335 1.847673 -8.729431
v 6.116175 2.459325 -9.876804
v 7.163951 2.367917 -8.474595
v -7.432872 2.459325 -8.235788
v -7.372902 1.841624 -8.465035
v -6.562062 1.841624 -9.445104
v -7.372902 1.841624 -8.465035
v -7.147164 1.841624 -8.267814
v -6.400027 1.841624 -9.192319
v -6.562062 1.841624 -9.445104
v -5.237355 1.841624 -9.909248
v -5.32258 1.841624 -10.20471
v -3.845483 1.841624 -10.1657
v -3.888035 1.841624 -10.49529
v 3.354372 1.841624 -10.31333
v 3.380095 1.841624 -10.70963
v 4.748179 1.841624 -10.11396
v 4.816574 1.841624 -10.45209
v 5.97097 1.841624 -9.489017
v 6.116175 1.841624 -9.750337
v 6.899594 1.847673 -8.468431
v 7.015335 1.847673 -8.729431
vt 0.3132324 0.9121094
vt 0.01183319 0.2998047
vt 0.04174805 0.9902344
vt 0.2871094 0.309082
vt 0.07098389 0.0308075
vt 0.3461914 0.0401001
vt 0.404541 0.0617981
vt 0.6181641 0.2954102
vt 0.4262695 0.06939697
vt 0.6328125 0.2961426
vt 0.4433594 0.07446289
vt 0.6455078 0.2961426
vt 0.4909668 0.1062012
vt 0.6577148 0.2893066
vt 0.519043 0.09942627
vt 0.6860352 0.2824707
vt 0.6860352 0.2824707
vt 0.7294922 0.239502
vt 0.5405273 0.008491516
vt 0.519043 0.09942627
vt 0.5063477 0
vt 0.3015137 0.3183594
vt 0.3198242 0.371582
vt 0.3344727 0.4455566
vt 0.3540039 0.5429688
vt 0.4372559 0.2458496
vt 0.3776855 0.6210938
vt 0.4753418 0.4233398
vt 0.4057617 0.7124023
vt 0.5375977 0.7109375
vt 0.4111328 0.7661133
vt 0.578125 0.7543945
vt 0.6357422 0.7988281
vt 0.348877 0.7607422
vt 0.3735352 0.7128906
vt 0.3134766 0.8041992
vt 0.4135742 0.8061523
vt 0.293457 0.8188477
vt 0.2440186 0.9223633
vt 0.675293 0.8237305
vt 0.2486572 0.8320313
vt 0.1881104 0.8251953
vt 0.7353516 0.9375
vt 0.7451172 0.8383789
vt 0.1588135 0.9008789
vt 0.1046753 0.7993164
vt 0.8222656 0.9228516
vt 0.7919922 0.8339844
vt 0.244751 0.949707
vt 0.08496094 0.8388672
vt 0.05535889 0.7885742
vt 0.03182983 0.7866211
vt 0.1523438 0.9238281
vt 0.07318115 0.8574219
vt 0.003862381 0.7817383
vt 0.06137085 0.8789063
vt 0 0.7856445
vt 0.05819702 0.8837891
vt 0.1453857 0.9501953
vt 0.2432861 0.9780273
vt 0.7353516 0.9589844
vt 0.1435547 0.956543
vt 0.828125 0.9462891
vt 0.05819702 0.8837891
vt 0.1435547 0.956543
vt 0.2427979 0.9848633
vt 0.2427979 0.9848633
vt 0.7373047 1
vt 0.7373047 1
vt 0.7368164 0.9936523
vt 0.8369141 0.980957
vt 0.8369141 0.980957
vt 0.8354492 0.9746094
vt 0.9257813 0.9130859
vt 0.9257813 0.9130859
vt 0.9228516 0.9082031
vt 1 0.8017578
vt 0.9926758 0.800293
vt 0.9091797 0.8847656
vt 0.9790039 0.7871094
vt 0.8984375 0.8657227
vt 0.9609375 0.7729492
vt 0.8735352 0.8105469
vt 0.9897461 0.7973633
vt 0.9257813 0.9130859
vt 1 0.8017578
vt 0 0.7856445
vt 0.006004333 0.7792969
vt 0.05819702 0.8837891
vt 0.006004333 0.7792969
vt 0.006004333 0.7792969
vt 0.05819702 0.8837891
vt 0.05819702 0.8837891
vt 0.1435547 0.956543
vt 0.1435547 0.956543
vt 0.2427979 0.9848633
vt 0.2427979 0.9848633
vt 0.7373047 1
vt 0.7373047 1
vt 0.8369141 0.980957
vt 0.8369141 0.980957
vt 0.9257813 0.9130859
vt 0.9257813 0.9130859
vt 0.9897461 0.7973633
vt 0.9897461 0.7973633
vn 0 1 0
vn 0 1 0
vn 0 1 0
vn 0 1 0
vn 0 1 0
vn 0 1 0
vn 0.01081848 0.9995117 -0.03268433
vn 0.05303955 0.9858398 -0.1601563
vn 0.09545898 0.9526367 -0.2885742
vn 0.1617432 0.8569336 -0.489502
vn 0.1816406 0.8129883 -0.5532227
vn 0.1512451 0.8676758 -0.4733887
vn 0.2004395 0.7128906 -0.6723633
vn 0.2299805 0.5810547 -0.7807617
vn 0.2727051 0.1705322 -0.9467773
vn 0.2727051 0.1705322 -0.9467773
vn 0 1 0
vn 0 1 0
vn 0 1 0
vn 0 1 0
vn -0.001829147 1 0.009483337
vn 0.01073456 1 0.005065918
vn 0.01222992 1 0.00402832
vn -0.01869202 0.9995117 0.01579285
vn -0.006656647 1 0.003974915
vn -0.02388 0.9995117 0.01622009
vn -0.004699707 1 -0.009910583
vn -0.00236702 1 -0.004241943
vn 0.01454926 1 -0.01576233
vn -0.01721191 0.9995117 -0.01462555
vn 0.01628113 0.9995117 -0.01815796
vn -0.01846313 0.9995117 -0.01654053
vn -0.007194519 1 -0.002962112
vn 0.04974365 0.9985352 -0.02113342
vn 0.07049561 0.9975586 -0.01815796
vn 0.03359985 0.9985352 -0.04046631
vn 0.005226135 1 -0.01321411
vn 0.02571106 0.9990234 -0.04119873
vn -0.005973816 0.9960938 -0.0859375
vn -0.004863739 1 -0.005870819
vn 0.001247406 0.9995117 -0.02693176
vn -0.007671356 0.9995117 -0.02964783
vn 0.003253937 0.996582 -0.08428955
vn -0.0003559589 0.9995117 -0.0256958
vn -0.03598022 0.9951172 -0.09014893
vn -0.0116806 0.9990234 -0.04077148
vn 0.02946472 0.9951172 -0.09313965
vn 0.005268097 0.9995117 -0.03094482
vn -0.05487061 0.8183594 -0.5722656
vn -0.07348633 0.9926758 -0.09521484
vn -0.1173096 0.9858398 -0.1193237
vn -0.5 0.7958984 -0.3415527
vn -0.192749 0.8242188 -0.5322266
vn -0.3640137 0.8417969 -0.3984375
vn -0.7695313 0.3840332 -0.5097656
vn -0.6259766 0.4287109 -0.6513672
vn -0.8149414 0.1205444 -0.5664063
vn -0.6650391 0.07537842 -0.7431641
vn -0.3237305 0.3662109 -0.8725586
vn -0.09674072 0.3820801 -0.9189453
vn 0.0294342 0.8178711 -0.574707
vn -0.3515625 0.03881836 -0.9355469
vn 0.1643066 0.8071289 -0.5668945
vn -0.6821289 -0.05023193 -0.7294922
vn -0.3549805 -0.09503174 -0.9301758
vn -0.1104126 0.08843994 -0.9897461
vn -0.1154175 -0.07952881 -0.9902344
vn 0.05780029 0.1551514 -0.9863281
vn 0.06286621 -0.1226807 -0.9902344
vn 0.04901123 0.4602051 -0.8867188
vn 0.3032227 0.1444092 -0.9418945
vn 0.3222656 -0.168335 -0.9316406
vn 0.2749023 0.4814453 -0.8320313
vn 0.6328125 0.1275635 -0.7641602
vn 0.6494141 -0.1008301 -0.7539063
vn 0.5830078 0.4770508 -0.6577148
vn 0.7875977 0.1456299 -0.5986328
vn 0.6357422 0.6147461 -0.4665527
vn 0.3798828 0.8056641 -0.4545898
vn 0.2683105 0.9345703 -0.2331543
vn 0.1593018 0.9736328 -0.1630859
vn 0.09228516 0.9868164 -0.1335449
vn 0.04318237 0.9960938 -0.07702637
vn 0.7788086 -0.0309906 -0.6269531
vn 0.6328125 0.1275635 -0.7641602
vn 0.7875977 0.1456299 -0.5986328
vn -0.8149414 0.1205444 -0.5664063
vn -0.809082 0.009605408 -0.5874023
vn -0.6821289 -0.05023193 -0.7294922
vn 0 -1 0
vn 0 -1 0
vn 0 -1 0
vn 0 -1 0
vn 0 -1 0
vn 0 -1 0
vn 0 -1 0
vn 0 -1 0
vn 0 -1 0
vn 0 -1 0
vn 0 -1 0
vn 0 -1 0
vn 0.002300262 -1 0.001149178
vn 0.001873016 -1 0.0009355545
vn 0.004249573 -1 0.002122879
vn 0.004249573 -1 0.002122879
g Water_0
f 3/3/3 2/2/2 1/1/1
f 2/2/2 4/4/4 1/1/1
f 2/2/2 5/5/5 4/4/4
f 5/5/5 6/6/6 4/4/4
f 6/6/6 7/7/7 4/4/4
f 7/7/7 8/8/8 4/4/4
f 8/8/8 7/7/7 9/9/9
f 10/10/10 8/8/8 9/9/9
f 10/10/10 9/9/9 11/11/11
f 12/12/12 10/10/10 11/11/11
f 12/12/12 11/11/11 13/13/13
f 14/14/14 12/12/12 13/13/13
f 13/13/13 15/15/15 14/14/14
f 15/15/15 16/16/16 14/14/14
f 19/19/19 18/18/18 17/17/17
f 20/20/20 19/19/19 17/17/17
g Water_1
f 23/23/23 22/22/22 21/21/21
f 24/24/24 23/23/23 21/21/21
f 25/25/25 24/24/24 21/21/21
f 26/26/26 25/25/25 21/21/21
f 27/27/27 25/25/25 26/26/26
f 28/28/28 27/27/27 26/26/26
f 27/27/27 28/28/28 29/29/29
f 28/28/28 30/30/30 29/29/29
f 29/29/29 30/30/30 31/31/31
f 30/30/30 32/32/32 31/31/31
f 32/32/32 33/33/33 31/31/31
f 29/29/29 31/31/31 34/34/34
f 35/35/35 29/29/29 34/34/34
f 36/36/36 34/34/34 31/31/31
f 33/33/33 37/37/37 31/31/31
f 37/37/37 36/36/36 31/31/31
f 36/36/36 37/37/37 38/38/38
f 37/37/37 39/39/39 38/38/38
f 37/37/37 33/33/33 40/40/40
f 39/39/39 37/37/37 40/40/40
f 41/41/41 38/38/38 39/39/39
f 41/41/41 39/39/39 42/42/42
f 40/40/40 43/43/43 39/39/39
f 43/43/43 40/40/40 44/44/44
f 39/39/39 45/45/45 42/42/42
f 42/42/42 45/45/45 46/46/46
f 47/47/47 43/43/43 44/44/44
f 48/48/48 47/47/47 44/44/44
f 49/49/49 45/45/45 39/39/39
f 49/49/49 39/39/39 43/43/43
f 45/45/45 50/50/50 46/46/46
f 46/46/46 50/50/50 51/51/51
f 51/51/51 50/50/50 52/52/52
f 50/50/50 45/45/45 53/53/53
f 49/49/49 53/53/53 45/45/45
f 50/50/50 54/54/54 52/52/52
f 54/54/54 50/50/50 53/53/53
f 52/52/52 54/54/54 55/55/55
f 54/54/54 56/56/56 55/55/55
f 57/57/57 55/55/55 56/56/56
f 58/58/58 57/57/57 56/56/56
f 54/54/54 53/53/53 59/59/59
f 56/56/56 54/54/54 59/59/59
f 53/53/53 49/49/49 60/60/60
f 59/59/59 53/53/53 60/60/60
f 61/61/61 49/49/49 43/43/43
f 60/60/60 49/49/49 61/61/61
f 56/56/56 59/59/59 62/62/62
f 58/58/58 56/56/56 62/62/62
f 63/63/63 61/61/61 43/43/43
f 47/47/47 63/63/63 43/43/43
f 64/64/64 58/58/58 62/62/62
f 65/65/65 64/64/64 62/62/62
f 62/62/62 59/59/59 66/66/66
f 65/65/65 62/62/62 66/66/66
f 59/59/59 60/60/60 66/66/66
f 67/67/67 65/65/65 66/66/66
f 67/67/67 66/66/66 68/68/68
f 66/66/66 60/60/60 68/68/68
f 69/69/69 67/67/67 68/68/68
f 70/70/70 60/60/60 61/61/61
f 70/70/70 61/61/61 63/63/63
f 60/60/60 70/70/70 68/68/68
f 69/69/69 68/68/68 71/71/71
f 72/72/72 69/69/69 71/71/71
f 68/68/68 70/70/70 73/73/73
f 71/71/71 68/68/68 73/73/73
f 73/73/73 70/70/70 63/63/63
f 72/72/72 71/71/71 74/74/74
f 71/71/71 73/73/73 74/74/74
f 75/75/75 72/72/72 74/74/74
f 73/73/73 76/76/76 74/74/74
f 73/73/73 63/63/63 76/76/76
f 74/74/74 76/76/76 77/77/77
f 76/76/76 78/78/78 77/77/77
f 63/63/63 79/79/79 76/76/76
f 78/78/78 76/76/76 79/79/79
f 63/63/63 47/47/47 79/79/79
f 78/78/78 79/79/79 80/80/80
f 47/47/47 81/81/81 79/79/79
f 79/79/79 81/81/81 80/80/80
f 81/81/81 47/47/47 48/48/48
f 82/82/82 80/80/80 81/81/81
f 83/83/83 81/81/81 48/48/48
f 83/83/83 82/82/82 81/81/81
f 75/75/75 85/85/85 84/84/84
f 85/85/85 86/86/86 84/84/84
f 88/88/88 87/87/87 58/58/58
f 89/89/89 88/88/88 58/58/58
f 92/92/92 91/91/91 90/90/90
f 93/93/93 92/92/92 90/90/90
f 94/94/94 92/92/92 93/93/93
f 95/95/95 94/94/94 93/93/93
f 96/96/96 94/94/94 95/95/95
f 97/97/97 96/96/96 95/95/95
f 98/98/98 96/96/96 97/97/97
f 99/99/99 98/98/98 97/97/97
f 100/100/100 98/98/98 99/99/99
f 101/101/101 100/100/100 99/99/99
f 102/102/102 100/100/100 101/101/101
f 103/103/103 102/102/102 101/101/101
f 104/104/104 102/102/102 103/103/103
f 105/105/105 104/104/104 103/103/103
