g Water
v 6.541101 2.138553 9.333102
v 7.477366 1.730715 8.228998
v 6.566266 1.730713 9.369009
v 7.448712 2.138553 8.197463
v 10.96552 1.730714 1.839769
v 5.299814 2.138553 10.08984
v 5.320203 1.730713 10.12865
v 6.494683 2.39669 9.280392
v 3.874571 2.138553 10.37639
v 3.889477 1.730713 10.4163
v 10.9235 2.138553 1.832719
v 11.43177 1.730714 0.4568968
v 5.274224 2.39669 10.02443
v -3.374857 2.138553 10.54951
v -3.38784 1.730713 10.59009
v 11.38796 2.138553 0.4551456
v 11.39693 1.730714 -1.002045
v 3.866869 2.39669 10.30738
v -4.812155 2.138553 10.33131
v -4.830667 1.730712 10.37106
v -6.088147 2.138553 9.634696
v -6.111566 1.730713 9.671756
v -4.789716 2.39669 10.26476
v -7.048932 2.138553 8.543672
v -7.076045 1.730713 8.576535
v 11.35326 2.138553 -0.998206
v 10.8652 1.730714 -2.361087
v 10.82357 2.138553 -2.35204
v 7.076047 1.730714 -8.576534
v 11.2844 2.39669 -0.9843629
v -3.370459 2.39669 10.48021
v -6.044302 2.39669 9.579831
v -10.82357 2.138553 2.35204
v -10.8652 1.730714 2.361087
v 7.048934 2.138553 -8.543671
v 6.111568 1.730713 -9.671754
v -4.728411 2.585659 10.08293
v -6.993022 2.39669 8.502501
v -11.35326 2.138553 0.9982074
v -11.39693 1.730714 1.002046
v -11.38796 2.138553 -0.4551449
v -11.43177 1.730714 -0.4568954
v -11.2844 2.39669 0.9843636
v -10.9235 2.138553 -1.832718
v -10.96552 1.730713 -1.839768
v -5.924501 2.585659 9.429933
v -10.76136 2.39669 2.321203
v -11.31852 2.39669 -0.4446047
v -7.448711 2.138553 -8.197464
v -7.477366 1.730713 -8.228998
v -6.840279 2.585659 8.390017
v -11.09628 2.58566 0.9465407
v -10.85989 2.39669 -1.804885
v -6.541101 2.138553 -9.333104
v -6.566264 1.730713 -9.369008
v -5.299813 2.138553 -10.08984
v -5.320201 1.730713 -10.12865
v -6.494682 2.39669 -9.280396
v -3.87457 2.138553 -10.37639
v -3.889476 1.730714 -10.41631
v -10.59141 2.58566 2.236954
v -11.12881 2.58566 -0.4158042
v -7.3909 2.39669 -8.159009
v -5.274223 2.39669 -10.02443
v 3.374858 2.138553 -10.5495
v 3.38784 1.730714 -10.59009
v -10.8393 2.654827 0.8948734
v -10.68611 2.58566 -1.728847
v -6.367868 2.58566 -9.136389
v -3.866868 2.39669 -10.30739
v 4.812157 2.138553 -10.33131
v 4.830667 1.730714 -10.37105
v 6.088149 2.138553 -9.634693
v 4.789716 2.39669 -10.26476
v 6.0443 2.39669 -9.579829
v 3.370459 2.39669 -10.48021
v -5.20431 2.58566 -9.845737
v 6.993022 2.39669 -8.502499
v 4.728411 2.58566 -10.08293
v -3.845829 2.58566 -10.11887
v 10.76136 2.39669 -2.321202
v 5.924504 2.58566 -9.429932
v 3.358443 2.58566 -10.2909
v 6.840281 2.58566 -8.390017
v 4.644668 2.654827 -9.834551
v 5.760858 2.654827 -9.225172
v -1.539926E-07 2.654827 -8.824905E-09
v 3.342026 2.654827 -10.0323
v -3.817088 2.654827 -9.86134
v -5.108803 2.654827 -9.601635
v -6.194634 2.654827 -8.939675
v 6.631627 2.654827 -8.236364
v -7.017211 2.654827 -7.91043
v 10.35924 2.654827 -2.121869
v -10.44871 2.654827 -1.624973
v -7.232959 2.58566 -8.053947
v 10.5914 2.58566 -2.236953
v -10.86966 2.654827 -0.376463
v 10.8393 2.654827 -0.894873
v 11.09628 2.58566 -0.9465399
v 11.31852 2.39669 0.4446055
v 11.12881 2.58566 0.4158055
v 10.85989 2.39669 1.804887
v 10.86966 2.654827 0.3764647
v -10.35924 2.654827 2.12187
v -6.631627 2.654827 8.236364
v -5.760856 2.654827 9.225172
v 10.44871 2.654827 1.624975
v 10.68611 2.58566 1.728847
v 7.390902 2.39669 8.159008
v -4.644667 2.654827 9.83455
v 7.232961 2.585659 8.053946
v 6.36787 2.585659 9.13639
v -3.358442 2.585659 10.2909
v 7.017213 2.654827 7.910429
v 6.194635 2.654827 8.939672
v 5.20431 2.585659 9.845737
v 3.845829 2.585659 10.11886
v 5.108805 2.654827 9.601636
v 3.817091 2.654827 9.861338
v -3.342026 2.654827 10.0323
vt 0.9477539 0.8564453
vt 0.9472656 0.8588867
vt 0.9477539 0.8564453
vt 0.9472656 0.8588867
vt 0.9414063 0.8691406
vt 0.9477539 0.8540039
vt 0.9477539 0.8540039
vt 0.9477539 0.8564453
vt 0.9472656 0.8520508
vt 0.9472656 0.8520508
vt 0.9414063 0.8691406
vt 0.9394531 0.8710938
vt 0.9477539 0.8540039
vt 0.9414063 0.8413086
vt 0.9414063 0.8413086
vt 0.9394531 0.8710938
vt 0.9375 0.8720703
vt 0.9472656 0.8520508
vt 0.9394531 0.8398438
vt 0.9394531 0.8398438
vt 0.9375 0.8383789
vt 0.9375 0.8383789
vt 0.9394531 0.8398438
vt 0.9350586 0.8378906
vt 0.9350586 0.8378906
vt 0.9375 0.8720703
vt 0.9350586 0.8725586
vt 0.9350586 0.8725586
vt 0.9233398 0.8725586
vt 0.9375 0.8720703
vt 0.940918 0.8413086
vt 0.9375 0.8383789
vt 0.9233398 0.8378906
vt 0.9233398 0.8378906
vt 0.9233398 0.8725586
vt 0.9208984 0.8720703
vt 0.9394531 0.8398438
vt 0.9350586 0.8383789
vt 0.9208984 0.8383789
vt 0.9208984 0.8383789
vt 0.9189453 0.8398438
vt 0.9189453 0.8398438
vt 0.9208984 0.8383789
vt 0.9174805 0.8413086
vt 0.9174805 0.8413086
vt 0.9375 0.8388672
vt 0.9233398 0.8383789
vt 0.9189453 0.8398438
vt 0.9111328 0.8520508
vt 0.9111328 0.8520508
vt 0.9350586 0.8383789
vt 0.9208984 0.8388672
vt 0.9174805 0.8413086
vt 0.9106445 0.8540039
vt 0.9106445 0.8540039
vt 0.9106445 0.8564453
vt 0.9106445 0.8564453
vt 0.9106445 0.8540039
vt 0.9111328 0.8588867
vt 0.9111328 0.8588867
vt 0.9233398 0.8383789
vt 0.9189453 0.8398438
vt 0.9116211 0.8520508
vt 0.9106445 0.8564453
vt 0.9174805 0.8691406
vt 0.9174805 0.8691406
vt 0.9213867 0.8393555
vt 0.9174805 0.8417969
vt 0.9111328 0.8540039
vt 0.9116211 0.8588867
vt 0.9189453 0.8710938
vt 0.9189453 0.8710938
vt 0.9208984 0.8720703
vt 0.9189453 0.8706055
vt 0.9208984 0.8720703
vt 0.9174805 0.8691406
vt 0.9111328 0.8564453
vt 0.9233398 0.8725586
vt 0.9189453 0.8706055
vt 0.9116211 0.8583984
vt 0.9350586 0.8725586
vt 0.9208984 0.871582
vt 0.9174805 0.8686523
vt 0.9233398 0.8720703
vt 0.9194336 0.8701172
vt 0.9213867 0.8710938
vt 0.9291992 0.8554688
vt 0.9179688 0.8686523
vt 0.9121094 0.8583984
vt 0.9116211 0.8564453
vt 0.9116211 0.8540039
vt 0.9233398 0.871582
vt 0.9121094 0.8520508
vt 0.9350586 0.871582
vt 0.9179688 0.8417969
vt 0.9116211 0.8520508
vt 0.9350586 0.8720703
vt 0.9194336 0.840332
vt 0.9375 0.8710938
vt 0.9375 0.871582
vt 0.9394531 0.8706055
vt 0.9394531 0.8706055
vt 0.940918 0.8691406
vt 0.9389648 0.8701172
vt 0.9233398 0.8388672
vt 0.9350586 0.8388672
vt 0.9375 0.8393555
vt 0.9404297 0.8686523
vt 0.940918 0.8686523
vt 0.9472656 0.8588867
vt 0.9389648 0.840332
vt 0.9467773 0.8583984
vt 0.9477539 0.8564453
vt 0.940918 0.8417969
vt 0.9462891 0.8583984
vt 0.9472656 0.8564453
vt 0.9477539 0.8540039
vt 0.9467773 0.8520508
vt 0.9472656 0.8540039
vt 0.9462891 0.8520508
vt 0.9404297 0.8417969
vn 0.6503906 0.1833496 0.7373047
vn 0.8276367 0.1008301 0.5522461
vn 0.65625 0.1062622 0.7470703
vn 0.8193359 0.1800537 0.5444336
vn 0.9121094 0.1008301 0.3974609
vn 0.357666 0.1833496 0.9155273
vn 0.3635254 0.1062622 0.925293
vn 0.5751953 0.4926758 0.652832
vn 0.1083984 0.1800537 0.9775391
vn 0.1117554 0.1008301 0.9887695
vn 0.9008789 0.1800537 0.3950195
vn 0.9833984 0.1062622 0.1479492
vn 0.3171387 0.4926758 0.8105469
vn -0.06161499 0.1800537 0.9819336
vn -0.06439209 0.1008301 0.9926758
vn 0.9716797 0.1833496 0.1481934
vn 0.9750977 0.1062622 -0.1947021
vn 0.09637451 0.4951172 0.8632813
vn -0.3134766 0.1833496 0.9316406
vn -0.3188477 0.1062622 0.9418945
vn -0.6142578 0.1833496 0.7675781
vn -0.6196289 0.1062622 0.7773438
vn -0.2780762 0.4926758 0.824707
vn -0.7924805 0.1800537 0.5825195
vn -0.800293 0.1008301 0.5908203
vn 0.9633789 0.1833496 -0.194458
vn 0.8920898 0.1008301 -0.4406738
vn 0.8808594 0.1800537 -0.4375
vn 0.800293 0.1008301 -0.5908203
vn 0.8530273 0.4926758 -0.1715088
vn -0.05505371 0.4951172 0.8671875
vn -0.543457 0.4926758 0.6796875
vn -0.8808594 0.1800537 0.4375
vn -0.8920898 0.1008301 0.4406738
vn 0.7924805 0.1800537 -0.5825195
vn 0.6196289 0.1062622 -0.7773438
vn -0.1647949 0.8564453 0.4890137
vn -0.699707 0.4951172 0.5151367
vn -0.9633789 0.1833496 0.194458
vn -0.9750977 0.1062622 0.1947021
vn -0.9716797 0.1833496 -0.1481934
vn -0.9833984 0.1062622 -0.1479492
vn -0.8530273 0.4926758 0.1715088
vn -0.9008789 0.1800537 -0.3950195
vn -0.9121094 0.1008301 -0.3974609
vn -0.3220215 0.8564453 0.4030762
vn -0.7783203 0.4951172 0.3859863
vn -0.8603516 0.4926758 -0.1306152
vn -0.8193359 0.1800537 -0.5444336
vn -0.8276367 0.1008301 -0.5522461
vn -0.4101563 0.8603516 0.302002
vn -0.5058594 0.8564453 0.1016846
vn -0.7958984 0.4951172 -0.3483887
vn -0.6503906 0.1833496 -0.7373047
vn -0.65625 0.1062622 -0.7470703
vn -0.357666 0.1833496 -0.9155273
vn -0.3635254 0.1062622 -0.925293
vn -0.5751953 0.4926758 -0.652832
vn -0.1083984 0.1800537 -0.9775391
vn -0.1117554 0.1008301 -0.9887695
vn -0.4562988 0.8603516 0.2261963
vn -0.5102539 0.8564453 -0.07745361
vn -0.7236328 0.4951172 -0.4812012
vn -0.3171387 0.4926758 -0.8105469
vn 0.06161499 0.1800537 -0.9819336
vn 0.06439209 0.1008301 -0.9926758
vn -0.1398926 0.9897461 0.02812195
vn -0.4665527 0.8603516 -0.2042236
vn -0.3410645 0.8564453 -0.387207
vn -0.09637451 0.4951172 -0.8632813
vn 0.3134766 0.1833496 -0.9316406
vn 0.3188477 0.1062622 -0.9418945
vn 0.6142578 0.1833496 -0.7675781
vn 0.2780762 0.4926758 -0.824707
vn 0.543457 0.4926758 -0.6796875
vn 0.05505371 0.4951172 -0.8671875
vn -0.1879883 0.8564453 -0.4804688
vn 0.699707 0.4951172 -0.5151367
vn 0.1647949 0.8564453 -0.4890137
vn -0.05648804 0.8603516 -0.5063477
vn 0.7783203 0.4951172 -0.3859863
vn 0.3220215 0.8564453 -0.4030762
vn 0.03225708 0.8603516 -0.5083008
vn 0.4101563 0.8603516 -0.302002
vn 0.04556274 0.9897461 -0.1351318
vn 0.08905029 0.9897461 -0.1114502
vn 0 1 0
vn 0.00868988 0.9907227 -0.1368408
vn -0.01521301 0.9907227 -0.1363525
vn -0.05197144 0.9897461 -0.1328125
vn -0.09429932 0.9897461 -0.1070557
vn 0.1104126 0.9907227 -0.08129883
vn -0.1141968 0.9907227 -0.07592773
vn 0.1228638 0.9907227 -0.06091309
vn -0.1256104 0.9907227 -0.05496216
vn -0.4240723 0.8603516 -0.2822266
vn 0.4562988 0.8603516 -0.2261963
vn -0.1409912 0.9897461 -0.02140808
vn 0.1398926 0.9897461 -0.02812195
vn 0.5058594 0.8564453 -0.1016846
vn 0.8603516 0.4926758 0.1306152
vn 0.5102539 0.8564453 0.07745361
vn 0.7958984 0.4951172 0.3483887
vn 0.1409912 0.9897461 0.02140808
vn -0.1228638 0.9907227 0.06091309
vn -0.1104126 0.9907227 0.08129883
vn -0.08905029 0.9897461 0.1114502
vn 0.1256104 0.9907227 0.05496216
vn 0.4665527 0.8603516 0.2042236
vn 0.7236328 0.4951172 0.4812012
vn -0.04556274 0.9897461 0.1351318
vn 0.4240723 0.8603516 0.2822266
vn 0.3410645 0.8564453 0.387207
vn -0.03225708 0.8603516 0.5083008
vn 0.1141968 0.9907227 0.07592773
vn 0.09429932 0.9897461 0.1070557
vn 0.1879883 0.8564453 0.4804688
vn 0.05648804 0.8603516 0.5063477
vn 0.05197144 0.9897461 0.1328125
vn 0.01521301 0.9907227 0.1363525
vn -0.00868988 0.9907227 0.1368408
g Water_0
f 3/3/3 2/2/2 1/1/1
f 2/2/2 4/4/4 1/1/1
f 2/2/2 5/5/5 4/4/4
f 3/3/3 1/1/1 6/6/6
f 7/7/7 3/3/3 6/6/6
f 1/1/1 4/4/4 8/8/8
f 1/1/1 8/8/8 6/6/6
f 7/7/7 6/6/6 9/9/9
f 10/10/10 7/7/7 9/9/9
f 5/5/5 11/11/11 4/4/4
f 5/5/5 12/12/12 11/11/11
f 8/8/8 13/13/13 6/6/6
f 6/6/6 13/13/13 9/9/9
f 10/10/10 9/9/9 14/14/14
f 15/15/15 10/10/10 14/14/14
f 12/12/12 16/16/16 11/11/11
f 12/12/12 17/17/17 16/16/16
f 13/13/13 18/18/18 9/9/9
f 9/9/9 18/18/18 14/14/14
f 15/15/15 14/14/14 19/19/19
f 20/20/20 15/15/15 19/19/19
f 20/20/20 19/19/19 21/21/21
f 22/22/22 20/20/20 21/21/21
f 19/19/19 14/14/14 23/23/23
f 19/19/19 23/23/23 21/21/21
f 22/22/22 21/21/21 24/24/24
f 25/25/25 22/22/22 24/24/24
f 17/17/17 26/26/26 16/16/16
f 17/17/17 27/27/27 26/26/26
f 27/27/27 28/28/28 26/26/26
f 27/27/27 29/29/29 28/28/28
f 26/26/26 30/30/30 16/16/16
f 26/26/26 28/28/28 30/30/30
f 14/14/14 31/31/31 23/23/23
f 18/18/18 31/31/31 14/14/14
f 23/23/23 32/32/32 21/21/21
f 21/21/21 32/32/32 24/24/24
f 25/25/25 24/24/24 33/33/33
f 34/34/34 25/25/25 33/33/33
f 29/29/29 35/35/35 28/28/28
f 29/29/29 36/36/36 35/35/35
f 23/23/23 31/31/31 37/37/37
f 23/23/23 37/37/37 32/32/32
f 32/32/32 38/38/38 24/24/24
f 24/24/24 38/38/38 33/33/33
f 34/34/34 33/33/33 39/39/39
f 40/40/40 34/34/34 39/39/39
f 40/40/40 39/39/39 41/41/41
f 42/42/42 40/40/40 41/41/41
f 39/39/39 33/33/33 43/43/43
f 39/39/39 43/43/43 41/41/41
f 42/42/42 41/41/41 44/44/44
f 45/45/45 42/42/42 44/44/44
f 37/37/37 46/46/46 32/32/32
f 32/32/32 46/46/46 38/38/38
f 38/38/38 47/47/47 33/33/33
f 33/33/33 47/47/47 43/43/43
f 43/43/43 48/48/48 41/41/41
f 41/41/41 48/48/48 44/44/44
f 45/45/45 44/44/44 49/49/49
f 50/50/50 45/45/45 49/49/49
f 46/46/46 51/51/51 38/38/38
f 38/38/38 51/51/51 47/47/47
f 43/43/43 47/47/47 52/52/52
f 43/43/43 52/52/52 48/48/48
f 48/48/48 53/53/53 44/44/44
f 44/44/44 53/53/53 49/49/49
f 50/50/50 49/49/49 54/54/54
f 55/55/55 50/50/50 54/54/54
f 55/55/55 54/54/54 56/56/56
f 57/57/57 55/55/55 56/56/56
f 54/54/54 49/49/49 58/58/58
f 54/54/54 58/58/58 56/56/56
f 57/57/57 56/56/56 59/59/59
f 60/60/60 57/57/57 59/59/59
f 47/47/47 61/61/61 52/52/52
f 51/51/51 61/61/61 47/47/47
f 52/52/52 62/62/62 48/48/48
f 48/48/48 62/62/62 53/53/53
f 53/53/53 63/63/63 49/49/49
f 49/49/49 63/63/63 58/58/58
f 58/58/58 64/64/64 56/56/56
f 56/56/56 64/64/64 59/59/59
f 60/60/60 59/59/59 65/65/65
f 66/66/66 60/60/60 65/65/65
f 52/52/52 61/61/61 67/67/67
f 52/52/52 67/67/67 62/62/62
f 62/62/62 68/68/68 53/53/53
f 53/53/53 68/68/68 63/63/63
f 58/58/58 63/63/63 69/69/69
f 58/58/58 69/69/69 64/64/64
f 64/64/64 70/70/70 59/59/59
f 59/59/59 70/70/70 65/65/65
f 66/66/66 65/65/65 71/71/71
f 72/72/72 66/66/66 71/71/71
f 72/72/72 71/71/71 73/73/73
f 36/36/36 72/72/72 73/73/73
f 36/36/36 73/73/73 35/35/35
f 71/71/71 65/65/65 74/74/74
f 71/71/71 74/74/74 73/73/73
f 73/73/73 75/75/75 35/35/35
f 74/74/74 75/75/75 73/73/73
f 65/65/65 76/76/76 74/74/74
f 70/70/70 76/76/76 65/65/65
f 64/64/64 77/77/77 70/70/70
f 69/69/69 77/77/77 64/64/64
f 75/75/75 78/78/78 35/35/35
f 35/35/35 78/78/78 28/28/28
f 74/74/74 79/79/79 75/75/75
f 74/74/74 76/76/76 79/79/79
f 70/70/70 80/80/80 76/76/76
f 77/77/77 80/80/80 70/70/70
f 78/78/78 81/81/81 28/28/28
f 28/28/28 81/81/81 30/30/30
f 75/75/75 82/82/82 78/78/78
f 79/79/79 82/82/82 75/75/75
f 76/76/76 83/83/83 79/79/79
f 80/80/80 83/83/83 76/76/76
f 78/78/78 84/84/84 81/81/81
f 82/82/82 84/84/84 78/78/78
f 79/79/79 85/85/85 82/82/82
f 79/79/79 83/83/83 85/85/85
f 82/82/82 86/86/86 84/84/84
f 85/85/85 86/86/86 82/82/82
f 86/86/86 85/85/85 87/87/87
f 83/83/83 88/88/88 85/85/85
f 85/85/85 88/88/88 87/87/87
f 89/89/89 88/88/88 83/83/83
f 80/80/80 89/89/89 83/83/83
f 88/88/88 89/89/89 87/87/87
f 90/90/90 89/89/89 80/80/80
f 89/89/89 90/90/90 87/87/87
f 77/77/77 90/90/90 80/80/80
f 91/91/91 90/90/90 77/77/77
f 90/90/90 91/91/91 87/87/87
f 69/69/69 91/91/91 77/77/77
f 86/86/86 92/92/92 84/84/84
f 92/92/92 86/86/86 87/87/87
f 91/91/91 93/93/93 87/87/87
f 94/94/94 92/92/92 87/87/87
f 93/93/93 95/95/95 87/87/87
f 69/69/69 96/96/96 91/91/91
f 96/96/96 93/93/93 91/91/91
f 95/95/95 93/93/93 96/96/96
f 63/63/63 96/96/96 69/69/69
f 68/68/68 96/96/96 63/63/63
f 68/68/68 95/95/95 96/96/96
f 84/84/84 92/92/92 97/97/97
f 92/92/92 94/94/94 97/97/97
f 84/84/84 97/97/97 81/81/81
f 98/98/98 95/95/95 68/68/68
f 95/95/95 98/98/98 87/87/87
f 62/62/62 98/98/98 68/68/68
f 67/67/67 98/98/98 62/62/62
f 98/98/98 67/67/67 87/87/87
f 97/97/97 94/94/94 99/99/99
f 99/99/99 94/94/94 87/87/87
f 81/81/81 97/97/97 100/100/100
f 100/100/100 97/97/97 99/99/99
f 30/30/30 81/81/81 100/100/100
f 30/30/30 100/100/100 101/101/101
f 30/30/30 101/101/101 16/16/16
f 16/16/16 101/101/101 11/11/11
f 100/100/100 99/99/99 102/102/102
f 100/100/100 102/102/102 101/101/101
f 101/101/101 103/103/103 11/11/11
f 101/101/101 102/102/102 103/103/103
f 4/4/4 11/11/11 103/103/103
f 99/99/99 104/104/104 102/102/102
f 104/104/104 99/99/99 87/87/87
f 67/67/67 105/105/105 87/87/87
f 61/61/61 105/105/105 67/67/67
f 105/105/105 106/106/106 87/87/87
f 106/106/106 105/105/105 61/61/61
f 51/51/51 106/106/106 61/61/61
f 106/106/106 107/107/107 87/87/87
f 107/107/107 106/106/106 51/51/51
f 108/108/108 104/104/104 87/87/87
f 46/46/46 107/107/107 51/51/51
f 102/102/102 104/104/104 109/109/109
f 102/102/102 109/109/109 103/103/103
f 104/104/104 108/108/108 109/109/109
f 110/110/110 4/4/4 103/103/103
f 110/110/110 103/103/103 109/109/109
f 4/4/4 110/110/110 8/8/8
f 111/111/111 107/107/107 46/46/46
f 107/107/107 111/111/111 87/87/87
f 37/37/37 111/111/111 46/46/46
f 112/112/112 109/109/109 108/108/108
f 112/112/112 110/110/110 109/109/109
f 8/8/8 110/110/110 113/113/113
f 110/110/110 112/112/112 113/113/113
f 8/8/8 113/113/113 13/13/13
f 37/37/37 114/114/114 111/111/111
f 31/31/31 114/114/114 37/37/37
f 115/115/115 112/112/112 108/108/108
f 115/115/115 108/108/108 87/87/87
f 112/112/112 115/115/115 116/116/116
f 113/113/113 112/112/112 116/116/116
f 116/116/116 115/115/115 87/87/87
f 113/113/113 117/117/117 13/13/13
f 113/113/113 116/116/116 117/117/117
f 13/13/13 117/117/117 18/18/18
f 18/18/18 118/118/118 31/31/31
f 117/117/117 118/118/118 18/18/18
f 118/118/118 114/114/114 31/31/31
f 116/116/116 119/119/119 117/117/117
f 117/117/117 119/119/119 118/118/118
f 119/119/119 116/116/116 87/87/87
f 119/119/119 120/120/120 118/118/118
f 118/118/118 120/120/120 114/114/114
f 120/120/120 119/119/119 87/87/87
f 111/111/111 121/121/121 87/87/87
f 114/114/114 121/121/121 111/111/111
f 120/120/120 121/121/121 114/114/114
f 121/121/121 120/120/120 87/87/87
