g Water
v 10.83452 2.062677 -1.993242
v 9.27527 2.386693 -4.706527
v 9.342646 2.093166 -4.737912
v 10.83452 2.386693 -1.993241
v 9.103344 2.575663 -4.626434
v 11.32278 2.386693 -0.6433105
v 11.32278 2.062677 -0.6433104
v 11.3199 2.062678 0.7860628
v 10.66243 2.575663 -1.913419
v 8.868493 2.66205 -4.517027
v 11.3199 2.386693 0.7860632
v 10.82621 2.062676 2.134017
v 11.13374 2.575662 -0.6103687
v 10.42737 2.66205 -1.804384
v 4.78401 2.623078 -2.353603
v 4.347013 2.621791 -1.828639
v 4.379859 2.617364 -1.029613
v 10.87551 2.66205 -0.5653725
v 4.382445 2.611688 0.02059567
v 10.82621 2.386693 2.134017
v 10.18291 2.067162 3.309774
v 11.13099 2.575663 0.7523613
v 10.87295 2.66205 0.7063256
v 4.176012 2.606521 1.113577
v 10.16256 2.386693 3.278163
v 8.547931 2.061366 6.210998
v 8.492728 2.353553 6.172204
v 10.65445 2.575662 2.053503
v 10.41983 2.66205 1.943521
v 3.713271 2.603563 1.965018
v 9.992706 2.575662 3.194377
v 8.312483 2.575663 6.091132
v 8.075279 2.579366 5.986599
v 9.761674 2.638839 3.078482
v 3.16228 2.601938 2.73108
v 3.042721 2.60061 3.131199
v 3.495256 2.596252 3.746345
v 4.198369 2.591447 4.255772
v 5.464537 2.584308 4.829638
v 7.428688 2.58946 5.701656
v 6.764433 2.576789 5.461932
vt 0.590332 0.887207
vt 0.5986328 0.887207
vt 0.5986328 0.887207
vt 0.590332 0.887207
vt 0.5986328 0.8876953
vt 0.5869141 0.8881836
vt 0.5869141 0.8881836
vt 0.5834961 0.8901367
vt 0.590332 0.8876953
vt 0.5986328 0.8886719
vt 0.5834961 0.8901367
vt 0.5810547 0.8925781
vt 0.5869141 0.8886719
vt 0.5908203 0.8886719
vt 0.5991211 0.9008789
vt 0.5986328 0.9023438
vt 0.5966797 0.9033203
vt 0.5874023 0.8891602
vt 0.5942383 0.9047852
vt 0.5810547 0.8925781
vt 0.5791016 0.8959961
vt 0.5839844 0.8901367
vt 0.5844727 0.890625
vt 0.5922852 0.9067383
vt 0.5795898 0.8959961
vt 0.574707 0.9033203
vt 0.5751953 0.9033203
vt 0.581543 0.8930664
vt 0.5820313 0.8935547
vt 0.5908203 0.9086914
vt 0.5795898 0.8959961
vt 0.5751953 0.9038086
vt 0.5761719 0.9042969
vt 0.5805664 0.8964844
vt 0.5898438 0.9111328
vt 0.5888672 0.9116211
vt 0.5869141 0.9116211
vt 0.5849609 0.9106445
vt 0.5820313 0.9086914
vt 0.5776367 0.9052734
vt 0.5791016 0.90625
vn 0.9082031 0.05969238 -0.4138184
vn 0.7797852 0.4450684 -0.4406738
vn 0.8666992 0.1192017 -0.4838867
vn 0.8310547 0.404541 -0.3815918
vn 0.4484863 0.855957 -0.2578125
vn 0.9145508 0.3718262 -0.1593018
vn 0.9853516 0 -0.1716309
vn 0.984375 0 0.1756592
vn 0.484375 0.8457031 -0.2247314
vn 0.1306152 0.9887695 -0.07409668
vn 0.9140625 0.3718262 0.1630859
vn 0.9077148 0.02586365 0.418457
vn 0.5307617 0.8422852 -0.0925293
vn 0.1499023 0.9863281 -0.06829834
vn -0.007003784 1 0.005828857
vn -0.007003784 1 0.005828857
vn -0.007003784 1 0.005828857
vn 0.1699219 0.9848633 -0.02752686
vn -0.007003784 1 0.005828857
vn 0.8359375 0.3884277 0.3879395
vn 0.8647461 0.1089478 0.4907227
vn 0.5307617 0.8422852 0.09466553
vn 0.1697998 0.9848633 0.03347778
vn -0.007003784 1 0.005828857
vn 0.7851563 0.4248047 0.4504395
vn 0.8569336 0.1621094 0.4897461
vn 0.7758789 0.4448242 0.4477539
vn 0.4755859 0.8505859 0.2242432
vn 0.1392822 0.987793 0.07110596
vn -0.007003784 1 0.005828857
vn 0.4165039 0.8745117 0.2476807
vn 0.3759766 0.8989258 0.2252197
vn 0.04632568 0.9980469 0.03689575
vn 0.08203125 0.9951172 0.05758667
vn -0.007003784 1 0.005828857
vn -0.007003784 1 0.005828857
vn -0.007003784 1 0.005828857
vn -0.007003784 1 0.005828857
vn -0.007003784 1 0.005828857
vn -0.007003784 1 0.005828857
vn -0.007003784 1 0.005828857
g Water_0
f 3/3/3 2/2/2 1/1/1
f 2/2/2 4/4/4 1/1/1
f 2/2/2 5/5/5 4/4/4
f 1/1/1 4/4/4 6/6/6
f 7/7/7 1/1/1 6/6/6
f 7/7/7 6/6/6 8/8/8
f 5/5/5 9/9/9 4/4/4
f 5/5/5 10/10/10 9/9/9
f 6/6/6 11/11/11 8/8/8
f 8/8/8 11/11/11 12/12/12
f 6/6/6 4/4/4 13/13/13
f 4/4/4 9/9/9 13/13/13
f 6/6/6 13/13/13 11/11/11
f 10/10/10 14/14/14 9/9/9
f 14/14/14 10/10/10 15/15/15
f 15/15/15 16/16/16 14/14/14
f 16/16/16 17/17/17 14/14/14
f 9/9/9 14/14/14 18/18/18
f 17/17/17 18/18/18 14/14/14
f 13/13/13 9/9/9 18/18/18
f 17/17/17 19/19/19 18/18/18
f 11/11/11 20/20/20 12/12/12
f 21/21/21 12/12/12 20/20/20
f 13/13/13 22/22/22 11/11/11
f 13/13/13 18/18/18 22/22/22
f 11/11/11 22/22/22 20/20/20
f 19/19/19 23/23/23 18/18/18
f 18/18/18 23/23/23 22/22/22
f 19/19/19 24/24/24 23/23/23
f 25/25/25 21/21/21 20/20/20
f 26/26/26 21/21/21 25/25/25
f 27/27/27 26/26/26 25/25/25
f 22/22/22 28/28/28 20/20/20
f 22/22/22 23/23/23 28/28/28
f 25/25/25 20/20/20 28/28/28
f 24/24/24 29/29/29 23/23/23
f 23/23/23 29/29/29 28/28/28
f 24/24/24 30/30/30 29/29/29
f 27/27/27 25/25/25 31/31/31
f 31/31/31 25/25/25 28/28/28
f 32/32/32 27/27/27 31/31/31
f 33/33/33 32/32/32 31/31/31
f 30/30/30 34/34/34 29/29/29
f 28/28/28 29/29/29 34/34/34
f 31/31/31 28/28/28 34/34/34
f 34/34/34 33/33/33 31/31/31
f 30/30/30 35/35/35 34/34/34
f 35/35/35 36/36/36 34/34/34
f 36/36/36 33/33/33 34/34/34
f 36/36/36 37/37/37 33/33/33
f 37/37/37 38/38/38 33/33/33
f 38/38/38 39/39/39 33/33/33
f 39/39/39 40/40/40 33/33/33
f 39/39/39 41/41/41 40/40/40
