g WellStand
v -2.164554 3.928877 -0.4480256
v -2.345747 3.928878 -0.4169234
v -2.292792 2.957679 -0.2476008
v -2.152204 2.957679 -0.272027
v -2.098498 3.928878 -0.4337699
v -2.269742 1.986482 -0.1749509
v -2.100951 2.95768 -0.2608311
v -2.062144 3.928878 -0.3782191
v -2.146829 1.986482 -0.1965131
v -2.267113 1.015284 -0.1683643
v -2.072744 2.95768 -0.2172036
v -1.801434 3.928878 1.061134
v -2.102019 1.986482 -0.1866299
v -2.146215 1.015284 -0.1896666
v -2.275418 0.0440863 -0.1972305
v -2.148152 0.04408691 -0.2196711
v -2.10214 1.015284 -0.1799026
v -2.101755 0.0440863 -0.2093851
v -1.870458 2.95768 0.9132087
v -1.816078 3.928877 1.125438
v -2.077357 1.986482 -0.1481184
v -2.077883 1.015284 -0.1418548
v -2.076222 0.0440863 -0.1693048
v -1.881821 2.957679 0.9637112
v -1.873142 3.928878 1.160828
v -1.900502 1.986482 0.8497402
v -1.903929 1.015284 0.8439859
v -1.893104 0.0440863 0.8692042
v -1.926097 2.957679 0.9915048
v -2.054334 3.928878 1.19193
v -1.910437 1.986483 0.8943206
v -1.913701 1.015284 0.8880293
v -1.903391 0.0440863 0.9156007
v -2.066685 2.957679 1.015931
v -2.120391 3.928876 1.177674
v -1.949146 1.986482 0.9188552
v -1.951776 1.015284 0.9122684
v -1.943471 0.04408569 0.9411346
v -2.117938 2.957679 1.004735
v -2.156744 3.928877 1.122123
v -2.07206 1.986483 0.9404172
v -2.072674 1.015284 0.9335707
v -2.070736 0.04408569 0.9635752
v -2.146145 2.957679 0.9611076
v -2.417455 3.928877 -0.3172294
v -2.11687 1.986483 0.9305339
v -2.116748 1.015284 0.9238067
v -2.117133 0.04408569 0.9532892
v -2.34843 2.95768 -0.1693047
v -2.40281 3.928877 -0.381534
v -2.141531 1.986482 0.8920223
v -2.141005 1.015285 0.8857589
v -2.142667 0.0440863 0.9132088
v -2.337067 2.957679 -0.219807
v -2.345747 3.928878 -0.4169234
v -2.292792 2.957679 -0.2476008
v -2.318386 1.986482 -0.1058363
v -2.314959 1.015284 -0.1000819
v -2.325784 0.0440863 -0.1253002
v -2.308452 1.986483 -0.1504168
v -2.269742 1.986482 -0.1749509
v -2.305188 1.015284 -0.1441249
v -2.315498 0.04408569 -0.1716963
v -2.267113 1.015284 -0.1683643
v -2.275418 0.0440863 -0.1972305
v 1.111593 3.928877 -1.025699
v 0.9304001 3.928877 -0.9945969
v 0.9833555 2.957679 -0.8252742
v 1.123943 2.957679 -0.8497005
v 1.177649 3.928877 -1.011443
v 1.006405 1.986483 -0.7526246
v 1.175196 2.95768 -0.8385044
v 1.214003 3.928878 -0.9558926
v 1.129319 1.986481 -0.7741867
v 1.009034 1.015284 -0.7460378
v 1.203404 2.957679 -0.7948772
v 1.474714 3.928877 0.4834598
v 1.174128 1.986483 -0.7643034
v 1.129932 1.015284 -0.7673403
v 1.000729 0.0440863 -0.7749041
v 1.127995 0.0440863 -0.7973446
v 1.174007 1.015284 -0.757576
v 1.174391 0.0440863 -0.7870587
v 1.405689 2.957679 0.3355352
v 1.460069 3.928876 0.5477645
v 1.198789 1.986482 -0.7257919
v 1.198262 1.015284 -0.7195283
v 1.199925 0.04408691 -0.7469783
v 1.394326 2.957679 0.3860375
v 1.403005 3.928878 0.5831542
v 1.375645 1.986482 0.2720665
v 1.372217 1.015284 0.2663123
v 1.383042 0.0440863 0.2915305
v 1.35005 2.957679 0.4138312
v 1.221812 3.928877 0.614256
v 1.36571 1.986482 0.3166469
v 1.362447 1.015284 0.3103558
v 1.372757 0.0440863 0.337927
v 1.209463 2.957679 0.4382575
v 1.155757 3.928874 0.6000001
v 1.327 1.986482 0.3411815
v 1.324372 1.015284 0.3345948
v 1.332676 0.0440863 0.3634611
v 1.15821 2.957679 0.4270614
v 1.119403 3.928878 0.5444494
v 1.204087 1.986482 0.3627435
v 1.203474 1.015284 0.3558972
v 1.20541 0.0440863 0.3859015
v 1.130002 2.957679 0.3834339
v 0.8586924 3.928877 -0.8949029
v 1.159278 1.986482 0.3528602
v 1.159399 1.015284 0.346133
v 1.159014 0.0440863 0.3756157
v 0.9277176 2.957679 -0.7469783
v 0.873336 3.928877 -0.9592075
v 1.134616 1.986482 0.3143487
v 1.135142 1.015284 0.3080852
v 1.133481 0.0440863 0.3355352
v 0.9390799 2.957679 -0.7974807
v 0.9304001 3.928877 -0.9945969
v 0.9833555 2.957679 -0.8252742
v 0.957761 1.986482 -0.6835098
v 0.9611881 1.015284 -0.6777554
v 0.9503629 0.0440863 -0.7029737
v 0.9676945 1.986482 -0.7280902
v 1.006405 1.986483 -0.7526246
v 0.9709592 1.015284 -0.7217985
v 0.9606492 0.0440863 -0.7493699
v 1.009034 1.015284 -0.7460378
v 1.000729 0.0440863 -0.7749041
v -2.444191 3.517175 0.4696757
v 1.64668 3.431433 -0.1492281
v -2.444191 3.429143 0.4696758
v 1.730569 3.514886 -0.1640202
v 1.64668 2.920961 -0.1492281
v 1.73057 3.004416 -0.1640203
v 2.464059 2.911257 -0.3076243
v 2.469688 3.014122 -0.3086168
v 1.754581 3.046143 -0.2731219
v 2.45701 3.065554 -0.396979
v 1.694703 3.004416 -0.3674314
v 2.438701 3.014122 -0.4843482
v -2.470668 3.517175 0.3195154
v 1.694703 3.514886 -0.3674314
v 1.75458 3.556614 -0.2731219
v -2.45743 3.561191 0.3945956
v -2.45743 3.561191 0.3945956
v 1.75458 3.556614 -0.2731219
v 1.730569 3.514886 -0.1640202
v -2.444191 3.517175 0.4696757
v -2.444191 3.429143 0.4696758
v 1.64668 3.431433 -0.1492281
v 1.586801 3.389706 -0.2435377
v -2.45743 3.385126 0.3945956
v 1.610813 3.431433 -0.3526394
v -2.470669 3.429142 0.3195156
v 1.694703 3.514886 -0.3674314
v -2.470668 3.517175 0.3195154
v 1.694703 3.004416 -0.3674314
v 1.610813 2.920962 -0.3526394
v 2.438701 3.014122 -0.4843482
v 2.433072 2.911256 -0.4833556
v 1.586802 2.879235 -0.2435378
v 2.445749 2.859823 -0.3949935
v 1.64668 2.920961 -0.1492281
v 2.464059 2.911257 -0.3076243
v 1.586801 3.389706 -0.2435377
v 1.610813 2.920962 -0.3526394
v 1.610813 3.431433 -0.3526394
v 1.586802 2.879235 -0.2435378
v 1.64668 3.431433 -0.1492281
v 1.64668 2.920961 -0.1492281
v 1.694703 3.514886 -0.3674314
v 1.694703 3.004416 -0.3674314
v 1.754581 3.046143 -0.2731219
v 1.75458 3.556614 -0.2731219
v 1.73057 3.004416 -0.1640203
v 1.730569 3.514886 -0.1640202
v 2.433072 2.911256 -0.4833556
v 2.445749 2.859823 -0.3949935
v 2.464059 2.911257 -0.3076243
v 2.438701 3.014122 -0.4843482
v 2.469688 3.014122 -0.3086168
v 2.45701 3.065554 -0.396979
v -2.444191 3.429143 0.4696758
v -2.45743 3.385126 0.3945956
v -2.470669 3.429142 0.3195156
v -2.470668 3.517175 0.3195154
v -2.444191 3.517175 0.4696757
v -2.45743 3.561191 0.3945956
v -1.346974 3.685232 0.01425666
v -0.930649 3.766269 0.1924142
v -1.30273 3.821055 0.2580219
v -0.9651217 3.654497 -0.01401635
v -1.357619 3.391969 -0.04339547
v -0.9730282 3.405504 -0.06455254
v -1.260933 3.685232 0.5022184
v -0.882585 3.405504 0.4483784
v -1.251218 3.391969 0.5600346
v -0.8924398 3.654498 0.3981859
v -1.30273 3.821055 0.2580219
v -0.930649 3.766269 0.1924142
v -1.278584 3.15249 0.3948661
v -0.9094545 3.204499 0.3070325
v -0.9499355 3.204499 0.07745902
v -1.326843 3.152491 0.121172
v -0.9730282 3.405504 -0.06455254
v -1.357619 3.391969 -0.04339547
v -1.251218 3.391969 0.5600346
v -0.882585 3.405504 0.4483784
v -0.9094545 3.204499 0.3070325
v -1.278584 3.15249 0.3948661
v 0.1543583 3.405482 -0.2635079
v 0.4493742 3.393233 -0.3580408
v 0.458964 3.68256 -0.3009882
v 0.1642301 3.65459 -0.2132874
v 0.5002079 3.81663 -0.05988442
v 0.2024668 3.76644 -0.007384876
v 0.2024668 3.76644 -0.007384876
v 0.5002079 3.81663 -0.05988442
v 0.5439134 3.68256 0.1807853
v 0.236959 3.65459 0.1991781
v 0.5544157 3.393232 0.2376769
v 0.2448588 3.405482 0.2497465
v 0.2448588 3.405482 0.2497465
v 0.5544157 3.393232 0.2376769
v 0.5239848 3.156908 0.07525443
v 0.2217381 3.204334 0.1076765
v 0.1812229 3.204334 -0.1220982
v 0.4493742 3.393233 -0.3580408
v 0.1543583 3.405482 -0.2635079
v 0.4763304 3.156908 -0.1950057
v 0.2217381 3.204334 0.1076765
v 0.5239848 3.156908 0.07525443
v 0.4493742 3.393233 -0.3580408
v 0.4763304 3.156908 -0.1950057
v 0.5239848 3.156908 0.07525443
v 0.5544157 3.393232 0.2376769
v 0.5439134 3.68256 0.1807853
v 0.458964 3.68256 -0.3009882
v 0.5002079 3.81663 -0.05988442
v -1.251218 3.391969 0.5600346
v -1.278584 3.15249 0.3948661
v -1.326843 3.152491 0.121172
v -1.357619 3.391969 -0.04339547
v -1.260933 3.685232 0.5022184
v -1.346974 3.685232 0.01425666
v -1.30273 3.821055 0.2580219
v -0.7123616 3.401262 0.5003543
v 0.2406455 3.390751 0.30984
v 0.2090696 3.14103 0.138285
v -0.7379085 3.115705 0.2821662
v -0.828796 3.709081 -0.1044746
v 0.1399943 3.696868 -0.2582546
v 0.1837516 3.838391 -0.004079975
v -0.7811123 3.858309 0.1660468
v -0.9576272 3.696865 -0.06471962
v 0.2295683 3.696863 0.2497219
v -0.9118026 3.838401 0.189091
v -0.7333962 3.709081 0.4365624
v 0.2406455 3.390751 0.30984
v -0.868055 3.696865 0.4432677
v -0.7123616 3.401262 0.5003543
v -0.8638235 3.412488 0.5010428
v -0.7379085 3.115705 0.2821662
v 0.2090696 3.14103 0.138285
v 0.1588493 3.14103 -0.1465276
v -0.8077651 3.12316 0.01438621
v 0.129846 3.390752 -0.3185368
v -0.84006 3.386454 -0.1685805
v -0.9371352 3.141021 0.04672126
v -0.9687093 3.390747 -0.1248383
v -0.9076241 3.145639 0.2880778
v -0.6718197 3.142601 0.3149281
v -0.9059499 3.142398 0.3561223
v -0.84006 3.386454 -0.1685805
v 0.129846 3.390752 -0.3185368
v 0.1399943 3.696868 -0.2582546
v -0.828796 3.709081 -0.1044746
v -0.9687093 3.390747 -0.1248383
v -0.9576272 3.696865 -0.06471962
v -0.9059499 3.142398 0.3561223
v -0.8821725 1.462218 0.3370653
v -0.7007216 1.462233 0.3051189
v -0.6718197 3.142601 0.3149281
v -0.7123616 3.401262 0.5003543
v -0.8661385 3.170046 0.4997553
v -0.8638235 3.412488 0.5010428
v -0.6603487 3.170047 0.4635287
v -0.8561245 1.462239 0.4854722
v -0.6746334 1.462225 0.4535177
v -0.7379085 3.115705 0.2821662
v -0.6603487 3.170047 0.4635287
v -0.7123616 3.401262 0.5003543
v -0.6718197 3.142601 0.3149281
v -0.6746334 1.462225 0.4535177
v -0.7007216 1.462233 0.3051189
v -0.8561245 1.462239 0.4854722
v -0.6746334 1.462225 0.4535177
v -0.7007216 1.462233 0.3051189
v -0.8821725 1.462218 0.3370653
v -0.8661385 3.170046 0.4997553
v -0.8561245 1.462239 0.4854722
v -0.8821725 1.462218 0.3370653
v -0.9059499 3.142398 0.3561223
v -0.8638235 3.412488 0.5010428
v -0.9076241 3.145639 0.2880778
v -0.882585 3.405504 0.4483784
v -0.8924398 3.654498 0.3981859
v -0.9094545 3.204499 0.3070325
v -0.868055 3.696865 0.4432677
v -0.9371352 3.141021 0.04672126
v -0.930649 3.766269 0.1924142
v -0.9499355 3.204499 0.07745902
v -0.9118026 3.838401 0.189091
v -0.9687093 3.390747 -0.1248383
v -0.9651217 3.654497 -0.01401635
v -0.9730282 3.405504 -0.06455254
v -0.9576272 3.696865 -0.06471962
v 0.2217381 3.204334 0.1076765
v 0.2406455 3.390751 0.30984
v 0.2448588 3.405482 0.2497465
v 0.2090696 3.14103 0.138285
v 0.2295683 3.696863 0.2497219
v 0.1812229 3.204334 -0.1220982
v 0.236959 3.65459 0.1991781
v 0.1588493 3.14103 -0.1465276
v 0.1837516 3.838391 -0.004079975
v 0.1543583 3.405482 -0.2635079
v 0.2024668 3.76644 -0.007384876
v 0.129846 3.390752 -0.3185368
v 0.1399943 3.696868 -0.2582546
v 0.1642301 3.65459 -0.2132874
v 1.174391 0.0440863 -0.7870587
v 1.127995 0.0440863 -0.7973446
v 1.13105 -6.103515E-07 -0.7811042
v 1.163952 -1.136868E-15 -0.7738096
v 1.199925 0.04408691 -0.7469783
v 1.18206 -1.136868E-15 -0.745386
v 1.383042 0.0440863 0.2915305
v 1.138661 -0.01826111 -0.7383814
v 1.36571 -1.136868E-15 0.2961448
v 1.372757 0.0440863 0.337927
v 1.003413 -6.103515E-07 -0.7585983
v 1.000729 0.0440863 -0.7749041
v 1.358416 -1.136868E-15 0.3290475
v 1.332676 0.0440863 0.3634611
v 1.010872 -0.01826111 -0.7158486
v 0.97499 -1.136868E-15 -0.7404903
v 0.9606492 0.0440863 -0.7493699
v 0.9676957 -6.103515E-07 -0.7075877
v 0.9503629 0.0440863 -0.7029737
v 1.322533 -0.01826172 0.3044054
v 1.329992 -1.136868E-15 0.3471554
v 1.20541 0.0440863 0.3859015
v 1.194743 -0.01826111 0.3269383
v 1.151345 -6.103515E-07 0.3339431
v 1.133481 0.0440863 0.3355352
v 1.202356 -6.103515E-07 0.3696611
v 1.159014 0.0440863 0.3756157
v 1.169454 -6.103515E-07 0.3623667
v -2.101755 0.0440863 -0.2093851
v -2.148152 0.04408691 -0.2196711
v -2.145097 -6.103515E-07 -0.2034305
v -2.112195 6.103515E-07 -0.196136
v -2.076222 0.0440863 -0.1693048
v -2.094087 -1.136868E-15 -0.1677125
v -1.893104 0.0440863 0.8692042
v -2.137484 -0.01826172 -0.1607079
v -1.910437 -1.136868E-15 0.8738184
v -1.903391 0.0440863 0.9156007
v -2.272734 -6.103515E-07 -0.1809248
v -2.275418 0.0440863 -0.1972305
v -1.917731 -1.136868E-15 0.9067211
v -1.943471 0.04408569 0.9411346
v -2.265275 -0.01826111 -0.138175
v -2.301157 -1.136868E-15 -0.1628168
v -2.315498 0.04408569 -0.1716963
v -2.308452 -6.103515E-07 -0.1299142
v -2.325784 0.0440863 -0.1253002
v -1.953613 -0.01826111 0.8820791
v -1.946154 -1.136868E-15 0.924829
v -2.070736 0.04408569 0.9635752
v -2.081404 -0.01826111 0.9046119
v -2.124801 -1.136868E-15 0.9116166
v -2.142667 0.0440863 0.9132088
v -2.073791 -1.136868E-15 0.9473346
v -2.117133 0.04408569 0.9532892
v -2.106693 -6.103515E-07 0.9400403
v 1.162745 3.972963 -1.00122
v 1.11539 3.972964 -1.011435
v 1.111593 3.928877 -1.025699
v 1.177649 3.928877 -1.011443
v 0.9304001 3.928877 -0.9945969
v 1.188806 3.972964 -0.9614188
v 1.214003 3.928878 -0.9558926
v 1.126162 3.991225 -0.9548276
v 0.9316911 3.972963 -0.9799198
v 0.873336 3.928877 -0.9592075
v 1.45312 3.972964 0.4970464
v 1.474714 3.928877 0.4834598
v 1.391997 3.991225 0.5116954
v 1.442622 3.972963 0.5431205
v 1.460069 3.928876 0.5477645
v 1.401714 3.972963 0.5684771
v 1.403005 3.928878 0.5831542
v 0.9414091 3.991224 -0.9231386
v 0.8907828 3.972964 -0.9545632
v 0.8586924 3.928877 -0.8949029
v 0.8802854 3.972964 -0.9084893
v 1.119403 3.928878 0.5444494
v 1.1446 3.972965 0.5499755
v 1.155757 3.928874 0.6000001
v 1.207243 3.991224 0.5433846
v 1.218015 3.972964 0.5999918
v 1.221812 3.928877 0.614256
v 1.170661 3.972963 0.5897774
v -2.113403 3.972964 -0.4235468
v -2.160758 3.972964 -0.4337615
v -2.164554 3.928877 -0.4480256
v -2.098498 3.928878 -0.4337699
v -2.345747 3.928878 -0.4169234
v -2.087341 3.972963 -0.383745
v -2.062144 3.928878 -0.3782191
v -2.149984 3.991224 -0.3771541
v -2.344455 3.972963 -0.4022463
v -2.40281 3.928877 -0.381534
v -1.823027 3.972964 1.07472
v -1.801434 3.928878 1.061134
v -1.88415 3.991224 1.089369
v -1.833524 3.972964 1.120794
v -1.816078 3.928877 1.125438
v -1.874434 3.972964 1.146151
v -1.873142 3.928878 1.160828
v -2.334738 3.991224 -0.3454652
v -2.385363 3.972964 -0.3768897
v -2.417455 3.928877 -0.3172294
v -2.395862 3.972964 -0.3308161
v -2.156744 3.928877 1.122123
v -2.131547 3.972965 1.127649
v -2.120391 3.928876 1.177674
v -2.068905 3.991224 1.121058
v -2.058131 3.972964 1.177665
v -2.054334 3.928878 1.19193
v -2.105485 3.972963 1.167451
vt 0.6484375 0.8759766
vt 0.652832 0.8759766
vt 0.652832 0.8676758
vt 0.6484375 0.8676758
vt 0.6479492 0.8759766
vt 0.652832 0.8588867
vt 0.6479492 0.8676758
vt 0.6474609 0.8759766
vt 0.6484375 0.8588867
vt 0.652832 0.8500977
vt 0.6474609 0.8676758
vt 0.6347656 0.8759766
vt 0.6479492 0.8588867
vt 0.6484375 0.8500977
vt 0.652832 0.8413086
vt 0.6484375 0.8413086
vt 0.6479492 0.8500977
vt 0.6479492 0.8413086
vt 0.6347656 0.8676758
vt 0.6342773 0.8759766
vt 0.6474609 0.8588867
vt 0.6474609 0.8500977
vt 0.6474609 0.8413086
vt 0.6342773 0.8676758
vt 0.6337891 0.8759766
vt 0.6347656 0.8588867
vt 0.6347656 0.8500977
vt 0.6347656 0.8413086
vt 0.6337891 0.8676758
vt 0.6323242 0.8759766
vt 0.6342773 0.8588867
vt 0.6342773 0.8500977
vt 0.6342773 0.8413086
vt 0.6323242 0.8676758
vt 0.6318359 0.8759766
vt 0.6337891 0.8588867
vt 0.6337891 0.8500977
vt 0.6337891 0.8413086
vt 0.6318359 0.8676758
vt 0.6313477 0.8759766
vt 0.6323242 0.8588867
vt 0.6323242 0.8500977
vt 0.6323242 0.8413086
vt 0.6313477 0.8676758
vt 0.6191406 0.8759766
vt 0.6318359 0.8588867
vt 0.6318359 0.8500977
vt 0.6318359 0.8413086
vt 0.6191406 0.8676758
vt 0.6186523 0.8759766
vt 0.6313477 0.8588867
vt 0.6313477 0.8500977
vt 0.6313477 0.8413086
vt 0.6186523 0.8676758
vt 0.6181641 0.8759766
vt 0.6181641 0.8676758
vt 0.6191406 0.8588867
vt 0.6191406 0.8500977
vt 0.6191406 0.8413086
vt 0.6186523 0.8588867
vt 0.6181641 0.8588867
vt 0.6186523 0.8500977
vt 0.6186523 0.8413086
vt 0.6181641 0.8500977
vt 0.6181641 0.8413086
vt 0.6484375 0.8759766
vt 0.652832 0.8759766
vt 0.652832 0.8676758
vt 0.6484375 0.8676758
vt 0.6479492 0.8759766
vt 0.652832 0.8588867
vt 0.6479492 0.8676758
vt 0.6474609 0.8759766
vt 0.6484375 0.8588867
vt 0.652832 0.8500977
vt 0.6474609 0.8676758
vt 0.6347656 0.8759766
vt 0.6479492 0.8588867
vt 0.6484375 0.8500977
vt 0.652832 0.8413086
vt 0.6484375 0.8413086
vt 0.6479492 0.8500977
vt 0.6479492 0.8413086
vt 0.6347656 0.8676758
vt 0.6342773 0.8759766
vt 0.6474609 0.8588867
vt 0.6474609 0.8500977
vt 0.6474609 0.8413086
vt 0.6342773 0.8676758
vt 0.6337891 0.8759766
vt 0.6347656 0.8588867
vt 0.6347656 0.8500977
vt 0.6347656 0.8413086
vt 0.6337891 0.8676758
vt 0.6323242 0.8759766
vt 0.6342773 0.8588867
vt 0.6342773 0.8500977
vt 0.6342773 0.8413086
vt 0.6323242 0.8676758
vt 0.6318359 0.8759766
vt 0.6337891 0.8588867
vt 0.6337891 0.8500977
vt 0.6337891 0.8413086
vt 0.6318359 0.8676758
vt 0.6313477 0.8759766
vt 0.6323242 0.8588867
vt 0.6323242 0.8500977
vt 0.6323242 0.8413086
vt 0.6313477 0.8676758
vt 0.6191406 0.8759766
vt 0.6318359 0.8588867
vt 0.6318359 0.8500977
vt 0.6318359 0.8413086
vt 0.6191406 0.8676758
vt 0.6186523 0.8759766
vt 0.6313477 0.8588867
vt 0.6313477 0.8500977
vt 0.6313477 0.8413086
vt 0.6186523 0.8676758
vt 0.6181641 0.8759766
vt 0.6181641 0.8676758
vt 0.6191406 0.8588867
vt 0.6191406 0.8500977
vt 0.6191406 0.8413086
vt 0.6186523 0.8588867
vt 0.6181641 0.8588867
vt 0.6186523 0.8500977
vt 0.6186523 0.8413086
vt 0.6181641 0.8500977
vt 0.6181641 0.8413086
vt 0.7255859 0.8544922
vt 0.7250977 0.8320313
vt 0.7255859 0.8544922
vt 0.7255859 0.8310547
vt 0.7236328 0.8320313
vt 0.7241211 0.831543
vt 0.7236328 0.8266602
vt 0.7241211 0.8266602
vt 0.7246094 0.8310547
vt 0.7246094 0.8266602
vt 0.7250977 0.831543
vt 0.7250977 0.8266602
vt 0.7265625 0.8544922
vt 0.7265625 0.8310547
vt 0.7260742 0.8310547
vt 0.7260742 0.8544922
vt 0.6894531 0.8198242
vt 0.6894531 0.8198242
vt 0.6894531 0.8198242
vt 0.6894531 0.8198242
vt 0.7216797 0.8266602
vt 0.7216797 0.8491211
vt 0.722168 0.8491211
vt 0.722168 0.8266602
vt 0.7226563 0.8491211
vt 0.7226563 0.8266602
vt 0.7231445 0.8496094
vt 0.7231445 0.8266602
vt 0.7216797 0.8496094
vt 0.7211914 0.8491211
vt 0.7216797 0.8544922
vt 0.7211914 0.8544922
vt 0.7207031 0.8491211
vt 0.7207031 0.8544922
vt 0.7202148 0.8491211
vt 0.7202148 0.8544922
vt 0.7045898 0.8862305
vt 0.7041016 0.8833008
vt 0.7041016 0.8867188
vt 0.7045898 0.8833008
vt 0.7055664 0.8867188
vt 0.7055664 0.8833008
vt 0.7060547 0.8725586
vt 0.7060547 0.8754883
vt 0.7070313 0.8754883
vt 0.7070313 0.8720703
vt 0.7075195 0.8754883
vt 0.7075195 0.8725586
vt 0.7250977 0.8642578
vt 0.7255859 0.8647461
vt 0.7260742 0.8642578
vt 0.7250977 0.8637695
vt 0.7260742 0.8637695
vt 0.7255859 0.8632813
vt 0.7426758 0.8374023
vt 0.7431641 0.8374023
vt 0.7436523 0.8374023
vt 0.7436523 0.8369141
vt 0.7426758 0.8369141
vt 0.7431641 0.8364258
vt 0.612793 0.8154297
vt 0.6123047 0.8154297
vt 0.612793 0.8154297
vt 0.6123047 0.8154297
vt 0.612793 0.8149414
vt 0.6123047 0.8149414
vt 0.6044922 0.8203125
vt 0.6035156 0.8208008
vt 0.6044922 0.8208008
vt 0.6035156 0.8203125
vt 0.6044922 0.8203125
vt 0.6035156 0.8203125
vt 0.6074219 0.8203125
vt 0.6069336 0.8203125
vt 0.6069336 0.8203125
vt 0.6074219 0.8203125
vt 0.6069336 0.8208008
vt 0.6074219 0.8208008
vt 0.6079102 0.8125
vt 0.6088867 0.8125
vt 0.6088867 0.8120117
vt 0.6079102 0.8120117
vt 0.6035156 0.8203125
vt 0.6025391 0.8203125
vt 0.6025391 0.8203125
vt 0.6035156 0.8203125
vt 0.6025391 0.8208008
vt 0.6035156 0.8208008
vt 0.6118164 0.8203125
vt 0.6113281 0.8203125
vt 0.6113281 0.8203125
vt 0.6118164 0.8203125
vt 0.6113281 0.8208008
vt 0.6118164 0.8208008
vt 0.6088867 0.8125
vt 0.609375 0.8125
vt 0.609375 0.8120117
vt 0.6088867 0.8120117
vt 0.6137695 0.8154297
vt 0.612793 0.8154297
vt 0.6137695 0.8154297
vt 0.612793 0.8154297
vt 0.6137695 0.8149414
vt 0.612793 0.8149414
vt 0.6020508 0.8198242
vt 0.6015625 0.8198242
vt 0.6015625 0.8203125
vt 0.6015625 0.8203125
vt 0.6020508 0.8203125
vt 0.6025391 0.8198242
vt 0.6025391 0.8203125
vt 0.6030273 0.8193359
vt 0.6030273 0.8193359
vt 0.6025391 0.8198242
vt 0.6030273 0.8198242
vt 0.6035156 0.8193359
vt 0.6030273 0.8198242
vt 0.6035156 0.8198242
vt 0.8388672 0.8642578
vt 0.8388672 0.8588867
vt 0.8378906 0.8588867
vt 0.8378906 0.8642578
vt 0.8369141 0.8632813
vt 0.8369141 0.8574219
vt 0.8359375 0.8574219
vt 0.8359375 0.8632813
vt 0.8369141 0.8637695
vt 0.8349609 0.8574219
vt 0.8359375 0.8637695
vt 0.8349609 0.8632813
vt 0.8339844 0.8574219
vt 0.8349609 0.8637695
vt 0.8339844 0.8632813
vt 0.8339844 0.8637695
vt 0.8291016 0.8579102
vt 0.8291016 0.8637695
vt 0.8305664 0.8637695
vt 0.8305664 0.8579102
vt 0.831543 0.8637695
vt 0.831543 0.8579102
vt 0.8305664 0.8574219
vt 0.831543 0.8574219
vt 0.8291016 0.8574219
vt 0.8286133 0.8579102
vt 0.8286133 0.8574219
vt 0.8178711 0.8442383
vt 0.8178711 0.8500977
vt 0.8193359 0.8500977
vt 0.8193359 0.8442383
vt 0.8178711 0.84375
vt 0.8193359 0.84375
vt 0.8251953 0.8510742
vt 0.8251953 0.8598633
vt 0.8256836 0.8598633
vt 0.8256836 0.8510742
vt 0.8183594 0.8525391
vt 0.8188477 0.8535156
vt 0.8188477 0.8525391
vt 0.8183594 0.8535156
vt 0.8188477 0.8603516
vt 0.8183594 0.8603516
vt 0.8251953 0.8413086
vt 0.8256836 0.8413086
vt 0.8256836 0.840332
vt 0.8256836 0.8413086
vt 0.8256836 0.8500977
vt 0.8256836 0.8500977
vt 0.8056641 0.8374023
vt 0.8056641 0.8305664
vt 0.8022461 0.8305664
vt 0.8022461 0.8374023
vt 0.8168945 0.8525391
vt 0.8149414 0.84375
vt 0.8149414 0.84375
vt 0.8168945 0.8525391
vt 0.8173828 0.8535156
vt 0.8164063 0.8525391
vt 0.8168945 0.8535156
vt 0.8168945 0.8549805
vt 0.815918 0.8530273
vt 0.8173828 0.8549805
vt 0.8149414 0.8530273
vt 0.815918 0.8554688
vt 0.8149414 0.8530273
vt 0.8164063 0.855957
vt 0.8144531 0.8540039
vt 0.8149414 0.8554688
vt 0.8144531 0.8540039
vt 0.8149414 0.8554688
vt 0.7993164 0.8647461
vt 0.7993164 0.8657227
vt 0.7998047 0.8657227
vt 0.7988281 0.8647461
vt 0.8007813 0.8662109
vt 0.7998047 0.8637695
vt 0.8007813 0.8662109
vt 0.7993164 0.8632813
vt 0.8017578 0.8652344
vt 0.8007813 0.8632813
vt 0.8017578 0.8652344
vt 0.8007813 0.8632813
vt 0.8017578 0.8642578
vt 0.8017578 0.8642578
vt 0.6503906 0.8417969
vt 0.644043 0.8413086
vt 0.644043 0.8417969
vt 0.6484375 0.8422852
vt 0.652832 0.8432617
vt 0.6503906 0.8432617
vt 0.652832 0.8745117
vt 0.644043 0.8432617
vt 0.6503906 0.8745117
vt 0.6503906 0.8754883
vt 0.6264648 0.8417969
vt 0.6264648 0.8413086
vt 0.6484375 0.8754883
vt 0.644043 0.8759766
vt 0.6264648 0.8432617
vt 0.6220703 0.8422852
vt 0.6206055 0.8417969
vt 0.6206055 0.8432617
vt 0.6181641 0.8432617
vt 0.644043 0.8745117
vt 0.644043 0.8754883
vt 0.6264648 0.8759766
vt 0.6264648 0.8745117
vt 0.6206055 0.8745117
vt 0.6181641 0.8745117
vt 0.6264648 0.8754883
vt 0.6206055 0.8754883
vt 0.6220703 0.8754883
vt 0.6503906 0.8417969
vt 0.644043 0.8413086
vt 0.644043 0.8417969
vt 0.6484375 0.8422852
vt 0.652832 0.8432617
vt 0.6503906 0.8432617
vt 0.652832 0.8745117
vt 0.644043 0.8432617
vt 0.6503906 0.8745117
vt 0.6503906 0.8754883
vt 0.6264648 0.8417969
vt 0.6264648 0.8413086
vt 0.6484375 0.8754883
vt 0.644043 0.8759766
vt 0.6264648 0.8432617
vt 0.6220703 0.8422852
vt 0.6206055 0.8417969
vt 0.6206055 0.8432617
vt 0.6181641 0.8432617
vt 0.644043 0.8745117
vt 0.644043 0.8754883
vt 0.6264648 0.8759766
vt 0.6264648 0.8745117
vt 0.6206055 0.8745117
vt 0.6181641 0.8745117
vt 0.6264648 0.8754883
vt 0.6206055 0.8754883
vt 0.6220703 0.8754883
vt 0.6484375 0.8754883
vt 0.644043 0.8754883
vt 0.644043 0.8759766
vt 0.6503906 0.8754883
vt 0.6264648 0.8759766
vt 0.6503906 0.8745117
vt 0.652832 0.8745117
vt 0.644043 0.8745117
vt 0.6264648 0.8754883
vt 0.6206055 0.8754883
vt 0.6503906 0.8432617
vt 0.652832 0.8432617
vt 0.644043 0.8432617
vt 0.6484375 0.8422852
vt 0.6503906 0.8417969
vt 0.644043 0.8417969
vt 0.644043 0.8413086
vt 0.6264648 0.8745117
vt 0.6220703 0.8754883
vt 0.6181641 0.8745117
vt 0.6206055 0.8745117
vt 0.6181641 0.8432617
vt 0.6206055 0.8432617
vt 0.6206055 0.8417969
vt 0.6264648 0.8432617
vt 0.6264648 0.8417969
vt 0.6264648 0.8413086
vt 0.6220703 0.8422852
vt 0.6484375 0.8754883
vt 0.644043 0.8754883
vt 0.644043 0.8759766
vt 0.6503906 0.8754883
vt 0.6264648 0.8759766
vt 0.6503906 0.8745117
vt 0.652832 0.8745117
vt 0.644043 0.8745117
vt 0.6264648 0.8754883
vt 0.6206055 0.8754883
vt 0.6503906 0.8432617
vt 0.652832 0.8432617
vt 0.644043 0.8432617
vt 0.6484375 0.8422852
vt 0.6503906 0.8417969
vt 0.644043 0.8417969
vt 0.644043 0.8413086
vt 0.6264648 0.8745117
vt 0.6220703 0.8754883
vt 0.6181641 0.8745117
vt 0.6206055 0.8745117
vt 0.6181641 0.8432617
vt 0.6206055 0.8432617
vt 0.6206055 0.8417969
vt 0.6264648 0.8432617
vt 0.6264648 0.8417969
vt 0.6264648 0.8413086
vt 0.6220703 0.8422852
vn 0.01537323 0.06451416 -0.9975586
vn -0.3496094 0.06396484 -0.9345703
vn -0.3552246 -0.1297607 -0.9257813
vn 0.02191162 -0.1287842 -0.9912109
vn 0.5654297 0.1035767 -0.8178711
vn -0.3603516 -0.04290771 -0.9316406
vn 0.5722656 -0.1049805 -0.8129883
vn 0.9150391 0.1851807 -0.3579102
vn 0.02206421 -0.04248047 -0.9990234
vn -0.3620605 0.01177216 -0.9321289
vn 0.9311523 -0.05026245 -0.3615723
vn 0.9829102 0.184082 0.01681519
vn 0.5751953 -0.0345459 -0.8168945
vn 0.02198792 0.01190186 -0.9995117
vn -0.3540039 -0.1563721 -0.921875
vn 0.01739502 -0.1563721 -0.987793
vn 0.5751953 0.009666443 -0.8178711
vn 0.565918 -0.1617432 -0.8085938
vn 0.9985352 -0.05160522 0.01647949
vn 0.8115234 0.1021118 0.5751953
vn 0.9326172 -0.01669312 -0.3608398
vn 0.9326172 0.004360199 -0.361084
vn 0.9189453 -0.1759033 -0.3530273
vn 0.815918 -0.1077271 0.5683594
vn 0.3496094 0.06396484 0.9345703
vn 0.9995117 -0.01741028 0.01823425
vn 1 0.004116058 0.0198822
vn 0.984375 -0.1759033 0.01745605
vn 0.3552246 -0.1297607 0.9257813
vn -0.01537323 0.06451416 0.9975586
vn 0.8203125 -0.03582764 0.5712891
vn 0.8203125 0.009262085 0.5717773
vn 0.8081055 -0.1617432 0.5664063
vn -0.02191162 -0.1287842 0.9912109
vn -0.5654297 0.1035767 0.8178711
vn 0.3605957 -0.04290771 0.9316406
vn 0.3620605 0.01177216 0.9321289
vn 0.3540039 -0.1563721 0.921875
vn -0.5722656 -0.1049805 0.8129883
vn -0.9150391 0.1851807 0.3579102
vn -0.02206421 -0.04248047 0.9990234
vn -0.02198792 0.01190186 0.9995117
vn -0.01739502 -0.1563721 0.987793
vn -0.9311523 -0.05026245 0.3613281
vn -0.9829102 0.184082 -0.01681519
vn -0.5751953 -0.0345459 0.8168945
vn -0.5751953 0.009666443 0.8178711
vn -0.565918 -0.1617432 0.8085938
vn -0.9985352 -0.05160522 -0.01647949
vn -0.8115234 0.1021118 -0.5751953
vn -0.9326172 -0.01669312 0.3608398
vn -0.9326172 0.004360199 0.361084
vn -0.9189453 -0.1759033 0.3530273
vn -0.815918 -0.1077271 -0.5683594
vn -0.3496094 0.06396484 -0.9345703
vn -0.3552246 -0.1297607 -0.9257813
vn -0.9995117 -0.01741028 -0.01823425
vn -1 0.004116058 -0.0198822
vn -0.984375 -0.1759033 -0.01745605
vn -0.8203125 -0.03582764 -0.5712891
vn -0.3603516 -0.04290771 -0.9316406
vn -0.8203125 0.009262085 -0.5717773
vn -0.8081055 -0.1617432 -0.5664063
vn -0.3620605 0.01177216 -0.9321289
vn -0.3540039 -0.1563721 -0.921875
vn 0.01537323 0.06451416 -0.9975586
vn -0.3496094 0.06396484 -0.9345703
vn -0.3552246 -0.1297607 -0.9257813
vn 0.02191162 -0.1287842 -0.9912109
vn 0.5654297 0.1035767 -0.8178711
vn -0.3603516 -0.04290771 -0.9316406
vn 0.5722656 -0.1049805 -0.8129883
vn 0.9150391 0.1851807 -0.3579102
vn 0.02206421 -0.04248047 -0.9990234
vn -0.3620605 0.01177216 -0.9321289
vn 0.9311523 -0.05026245 -0.3613281
vn 0.9829102 0.184082 0.01681519
vn 0.5751953 -0.0345459 -0.8168945
vn 0.02198792 0.01190186 -0.9995117
vn -0.3540039 -0.1563721 -0.921875
vn 0.01739502 -0.1563721 -0.987793
vn 0.5751953 0.009666443 -0.8178711
vn 0.565918 -0.1617432 -0.8085938
vn 0.9985352 -0.05160522 0.01647949
vn 0.8115234 0.1021118 0.5751953
vn 0.9326172 -0.01669312 -0.3608398
vn 0.9326172 0.004360199 -0.361084
vn 0.9189453 -0.1759033 -0.3530273
vn 0.815918 -0.1077271 0.5683594
vn 0.3496094 0.06396484 0.9345703
vn 0.9995117 -0.01741028 0.01823425
vn 1 0.004116058 0.0198822
vn 0.984375 -0.1759033 0.01745605
vn 0.3552246 -0.1297607 0.9257813
vn -0.01537323 0.06451416 0.9975586
vn 0.8203125 -0.03582764 0.5712891
vn 0.8203125 0.009262085 0.5717773
vn 0.8081055 -0.1617432 0.5664063
vn -0.02191162 -0.1287842 0.9912109
vn -0.5654297 0.1035767 0.8178711
vn 0.3605957 -0.04290771 0.9316406
vn 0.3620605 0.01177216 0.9321289
vn 0.3540039 -0.1563721 0.921875
vn -0.5722656 -0.1049805 0.8129883
vn -0.9150391 0.1851807 0.3579102
vn -0.02206421 -0.04248047 0.9990234
vn -0.02198792 0.01190186 0.9995117
vn -0.01739502 -0.1563721 0.987793
vn -0.9311523 -0.05026245 0.3613281
vn -0.9829102 0.184082 -0.01681519
vn -0.5751953 -0.0345459 0.8168945
vn -0.5751953 0.009666443 0.8178711
vn -0.565918 -0.1617432 0.8085938
vn -0.9985352 -0.05160522 -0.01647949
vn -0.8115234 0.1021118 -0.5751953
vn -0.9326172 -0.01669312 0.3608398
vn -0.9326172 0.004360199 0.361084
vn -0.9189453 -0.1759033 0.3530273
vn -0.815918 -0.1077271 -0.5683594
vn -0.3496094 0.06396484 -0.9345703
vn -0.3552246 -0.1297607 -0.9257813
vn -0.9995117 -0.01741028 -0.01823425
vn -1 0.004116058 -0.0198822
vn -0.984375 -0.1759033 -0.01745605
vn -0.8203125 -0.03582764 -0.5712891
vn -0.3603516 -0.04290771 -0.9316406
vn -0.8203125 0.009262085 -0.5717773
vn -0.8081055 -0.1617432 -0.5664063
vn -0.3620605 0.01177216 -0.9321289
vn -0.3540039 -0.1563721 -0.921875
vn -0.5009766 0.4238281 0.7543945
vn -0.03106689 -0.1759033 0.9838867
vn -0.5029297 -0.4140625 0.7587891
vn 0.5688477 0.4362793 0.6972656
vn -0.3024902 -0.4301758 0.8505859
vn 0.3588867 0.177124 0.9165039
vn 0.7109375 -0.4421387 0.546875
vn 0.7368164 0.401123 0.5439453
vn 0.6967773 0.706543 -0.1228638
vn 0.6035156 0.7900391 -0.1064453
vn 0.02377319 0.177124 -0.9838867
vn 0.5063477 0.401123 -0.7631836
vn -0.722168 0.416748 -0.5517578
vn 0.3054199 0.4345703 -0.847168
vn 0.7070313 0.6967773 -0.1213379
vn -0.5864258 0.8041992 0.09838867
vn -0.5864258 0.8041992 0.09838867
vn 0.7070313 0.6967773 -0.1213379
vn 0.5688477 0.4362793 0.6972656
vn -0.5009766 0.4238281 0.7543945
vn -0.5029297 -0.4140625 0.7587891
vn -0.03106689 -0.1759033 0.9838867
vn -0.703125 -0.699707 0.1280518
vn -0.5859375 -0.8037109 0.1008301
vn -0.3486328 -0.1881104 -0.9179688
vn -0.7207031 -0.421875 -0.5498047
vn 0.3054199 0.4345703 -0.847168
vn -0.722168 0.416748 -0.5517578
vn 0.02377319 0.177124 -0.9838867
vn -0.5751953 -0.4301758 -0.6958008
vn 0.5063477 0.401123 -0.7631836
vn 0.480957 -0.4421387 -0.7568359
vn -0.7099609 -0.6928711 0.1252441
vn 0.5600586 -0.8227539 -0.09875488
vn -0.3024902 -0.4301758 0.8505859
vn 0.7109375 -0.4421387 0.546875
vn -0.703125 -0.699707 0.1280518
vn -0.5751953 -0.4301758 -0.6958008
vn -0.3486328 -0.1881104 -0.9179688
vn -0.7099609 -0.6928711 0.1252441
vn -0.03106689 -0.1759033 0.9838867
vn -0.3024902 -0.4301758 0.8505859
vn 0.3054199 0.4345703 -0.847168
vn 0.02377319 0.177124 -0.9838867
vn 0.6967773 0.706543 -0.1228638
vn 0.7070313 0.6967773 -0.1213379
vn 0.3588867 0.177124 0.9165039
vn 0.5688477 0.4362793 0.6972656
vn 0.480957 -0.4421387 -0.7568359
vn 0.5600586 -0.8227539 -0.09875488
vn 0.7109375 -0.4421387 0.546875
vn 0.5063477 0.401123 -0.7631836
vn 0.7368164 0.401123 0.5439453
vn 0.6035156 0.7900391 -0.1064453
vn -0.5029297 -0.4140625 0.7587891
vn -0.5859375 -0.8037109 0.1008301
vn -0.7207031 -0.421875 -0.5498047
vn -0.722168 0.416748 -0.5517578
vn -0.5009766 0.4238281 0.7543945
vn -0.5864258 0.8041992 0.09838867
vn -0.6801758 0.4868164 -0.5478516
vn -0.6640625 0.7382813 0.1171265
vn -0.550293 0.8295898 0.0970459
vn -0.7583008 0.4411621 -0.4799805
vn -0.7104492 -0.1695557 -0.6826172
vn -0.7749023 -0.1525879 -0.6132813
vn -0.4519043 0.4868164 0.7475586
vn -0.5419922 -0.1595459 0.8251953
vn -0.4343262 -0.1695557 0.8847656
vn -0.5610352 0.4450684 0.6977539
vn -0.550293 0.8295898 0.0970459
vn -0.6640625 0.7382813 0.1171265
vn -0.4853516 -0.7368164 0.4709473
vn -0.6230469 -0.6186523 0.4787598
vn -0.7392578 -0.6303711 -0.2365723
vn -0.6171875 -0.7368164 -0.2766113
vn -0.7749023 -0.1525879 -0.6132813
vn -0.7104492 -0.1695557 -0.6826172
vn -0.4343262 -0.1695557 0.8847656
vn -0.5419922 -0.1595459 0.8251953
vn -0.6230469 -0.6186523 0.4787598
vn -0.4853516 -0.7368164 0.4709473
vn 0.512207 -0.1534424 -0.8452148
vn 0.4267578 -0.1707764 -0.8881836
vn 0.4443359 0.489502 -0.75
vn 0.5419922 0.4443359 -0.7133789
vn 0.5429688 0.8339844 -0.09576416
vn 0.6577148 0.7441406 -0.1160278
vn 0.6577148 0.7441406 -0.1160278
vn 0.5429688 0.8339844 -0.09576416
vn 0.6743164 0.489502 0.5532227
vn 0.753418 0.4443359 0.4851074
vn 0.7050781 -0.1707764 0.6884766
vn 0.7705078 -0.1534424 0.6191406
vn 0.7705078 -0.1534424 0.6191406
vn 0.7050781 -0.1707764 0.6884766
vn 0.6103516 -0.7412109 0.2800293
vn 0.7128906 -0.6630859 0.2293701
vn 0.5913086 -0.6630859 -0.4592285
vn 0.4267578 -0.1707764 -0.8881836
vn 0.512207 -0.1534424 -0.8452148
vn 0.4775391 -0.7412109 -0.4716797
vn 0.7128906 -0.6630859 0.2293701
vn 0.6103516 -0.7412109 0.2800293
vn 0.4267578 -0.1707764 -0.8881836
vn 0.4775391 -0.7412109 -0.4716797
vn 0.6103516 -0.7412109 0.2800293
vn 0.7050781 -0.1707764 0.6884766
vn 0.6743164 0.489502 0.5532227
vn 0.4443359 0.489502 -0.75
vn 0.5429688 0.8339844 -0.09576416
vn -0.4343262 -0.1695557 0.8847656
vn -0.4853516 -0.7368164 0.4709473
vn -0.6171875 -0.7368164 -0.2766113
vn -0.7104492 -0.1695557 -0.6826172
vn -0.4519043 0.4868164 0.7475586
vn -0.6801758 0.4868164 -0.5478516
vn -0.550293 0.8295898 0.0970459
vn 0.2022705 -0.02589417 0.9790039
vn 0.6884766 -0.180542 0.7026367
vn 0.6025391 -0.7480469 0.277832
vn 0.111145 -0.965332 0.2355957
vn -0.2028809 0.5917969 -0.7802734
vn 0.4284668 0.4975586 -0.7543945
vn 0.5371094 0.8383789 -0.09472656
vn -0.06365967 0.9980469 0.01123047
vn -0.7070313 0.4753418 -0.5234375
vn 0.6601563 0.4995117 0.5605469
vn -0.5898438 0.8007813 0.1040039
vn 0.07452393 0.5947266 0.8007813
vn 0.6884766 -0.180542 0.7026367
vn -0.4921875 0.4794922 0.7265625
vn 0.2022705 -0.02589417 0.9790039
vn -0.53125 0.05020142 0.8457031
vn 0.111145 -0.965332 0.2355957
vn 0.6025391 -0.7480469 0.277832
vn 0.4729004 -0.7412109 -0.4763184
vn -0.1517334 -0.8828125 -0.4440918
vn 0.4074707 -0.1727295 -0.8969727
vn -0.2330322 -0.2052002 -0.9506836
vn -0.668457 -0.6962891 -0.2619629
vn -0.7348633 -0.1650391 -0.6582031
vn -0.6889648 -0.6948242 0.206543
vn 0.7680664 0.06658936 -0.637207
vn -0.9672852 -0.248291 -0.05218506
vn -0.2330322 -0.2052002 -0.9506836
vn 0.4074707 -0.1727295 -0.8969727
vn 0.4284668 0.4975586 -0.7543945
vn -0.2028809 0.5917969 -0.7802734
vn -0.7348633 -0.1650391 -0.6582031
vn -0.7070313 0.4753418 -0.5234375
vn -0.9672852 -0.248291 -0.05218506
vn -0.6704102 -0.5874023 -0.4536133
vn 0.4753418 -0.5874023 -0.6552734
vn 0.7680664 0.06658936 -0.637207
vn 0.2022705 -0.02589417 0.9790039
vn -0.5795898 -0.009284973 0.8149414
vn -0.53125 0.05020142 0.8457031
vn 0.8540039 0.1938477 0.4824219
vn -0.4536133 -0.5737305 0.6821289
vn 0.6591797 -0.5737305 0.4865723
vn 0.111145 -0.965332 0.2355957
vn 0.8540039 0.1938477 0.4824219
vn 0.2022705 -0.02589417 0.9790039
vn 0.7680664 0.06658936 -0.637207
vn 0.6591797 -0.5737305 0.4865723
vn 0.4753418 -0.5874023 -0.6552734
vn -0.4536133 -0.5737305 0.6821289
vn 0.6591797 -0.5737305 0.4865723
vn 0.4753418 -0.5874023 -0.6552734
vn -0.6704102 -0.5874023 -0.4536133
vn -0.5795898 -0.009284973 0.8149414
vn -0.4536133 -0.5737305 0.6821289
vn -0.6704102 -0.5874023 -0.4536133
vn -0.9672852 -0.248291 -0.05218506
vn -0.53125 0.05020142 0.8457031
vn -0.6889648 -0.6948242 0.206543
vn -0.5419922 -0.1595459 0.8251953
vn -0.5610352 0.4450684 0.6977539
vn -0.6230469 -0.6186523 0.4787598
vn -0.4921875 0.4794922 0.7265625
vn -0.668457 -0.6962891 -0.2619629
vn -0.6640625 0.7382813 0.1171265
vn -0.7392578 -0.6303711 -0.2365723
vn -0.5898438 0.8007813 0.1040039
vn -0.7348633 -0.1650391 -0.6582031
vn -0.7583008 0.4411621 -0.4799805
vn -0.7749023 -0.1525879 -0.6132813
vn -0.7070313 0.4753418 -0.5234375
vn 0.7128906 -0.6630859 0.2293701
vn 0.6884766 -0.180542 0.7026367
vn 0.7705078 -0.1534424 0.6191406
vn 0.6025391 -0.7480469 0.277832
vn 0.6601563 0.4995117 0.5605469
vn 0.5913086 -0.6630859 -0.4592285
vn 0.753418 0.4443359 0.4851074
vn 0.4729004 -0.7412109 -0.4763184
vn 0.5371094 0.8383789 -0.09472656
vn 0.512207 -0.1534424 -0.8452148
vn 0.6577148 0.7441406 -0.1160278
vn 0.4074707 -0.1727295 -0.8969727
vn 0.4284668 0.4975586 -0.7543945
vn 0.5419922 0.4443359 -0.7133789
vn 0.565918 -0.1617432 -0.8085938
vn 0.01739502 -0.1563721 -0.987793
vn 0.01773071 -0.6640625 -0.7470703
vn 0.4331055 -0.6503906 -0.6240234
vn 0.9189453 -0.1759033 -0.3530273
vn 0.6875 -0.6733398 -0.2712402
vn 0.984375 -0.1759033 0.01745605
vn 0.1345215 -0.9716797 -0.1949463
vn 0.7392578 -0.6733398 0.01968384
vn 0.8081055 -0.1617432 0.5664063
vn -0.2722168 -0.6640625 -0.6962891
vn -0.3540039 -0.1563721 -0.921875
vn 0.6206055 -0.6503906 0.4379883
vn 0.3540039 -0.1563721 0.921875
vn -0.1931152 -0.9716797 -0.137085
vn -0.6206055 -0.6503906 -0.4379883
vn -0.8081055 -0.1617432 -0.5664063
vn -0.7392578 -0.6733398 -0.01968384
vn -0.984375 -0.1759033 -0.01745605
vn 0.1931152 -0.9716797 0.137085
vn 0.2722168 -0.6640625 0.6962891
vn -0.01739502 -0.1563721 0.987793
vn -0.1345215 -0.9716797 0.1949463
vn -0.6875 -0.6733398 0.2712402
vn -0.9189453 -0.1759033 0.3530273
vn -0.01773071 -0.6640625 0.7470703
vn -0.565918 -0.1617432 0.8085938
vn -0.4331055 -0.6503906 0.6240234
vn 0.565918 -0.1617432 -0.8085938
vn 0.01739502 -0.1563721 -0.987793
vn 0.01773071 -0.6640625 -0.7470703
vn 0.4331055 -0.6503906 -0.6240234
vn 0.9189453 -0.1759033 -0.3530273
vn 0.6875 -0.6733398 -0.2712402
vn 0.984375 -0.1759033 0.01745605
vn 0.1345215 -0.9716797 -0.1949463
vn 0.7392578 -0.6733398 0.01968384
vn 0.8081055 -0.1617432 0.5664063
vn -0.2722168 -0.6640625 -0.6962891
vn -0.3540039 -0.1563721 -0.921875
vn 0.6206055 -0.6503906 0.4379883
vn 0.3540039 -0.1563721 0.921875
vn -0.1931152 -0.9716797 -0.137085
vn -0.6206055 -0.6503906 -0.4379883
vn -0.8081055 -0.1617432 -0.5664063
vn -0.7392578 -0.6733398 -0.01968384
vn -0.984375 -0.1759033 -0.01745605
vn 0.1931152 -0.9716797 0.137085
vn 0.2722168 -0.6640625 0.6962891
vn -0.01739502 -0.1563721 0.987793
vn -0.1345215 -0.9716797 0.1949463
vn -0.6875 -0.6733398 0.2712402
vn -0.9189453 -0.1759033 0.3530273
vn -0.01773071 -0.6640625 0.7470703
vn -0.565918 -0.1617432 0.8085938
vn -0.4331055 -0.6503906 0.6240234
vn 0.3986816 0.6782227 -0.6176758
vn 0.01876831 0.6796875 -0.7333984
vn 0.01537323 0.06451416 -0.9975586
vn 0.5654297 0.1035767 -0.8178711
vn -0.3496094 0.06396484 -0.9345703
vn 0.6254883 0.7329102 -0.2678223
vn 0.9150391 0.1851807 -0.3579102
vn 0.09619141 0.9838867 -0.1518555
vn -0.2631836 0.6796875 -0.6845703
vn -0.8115234 0.1021118 -0.5751953
vn 0.6791992 0.7329102 0.03222656
vn 0.9829102 0.184082 0.01681519
vn 0.1413574 0.9838867 0.1091919
vn 0.5859375 0.6782227 0.4436035
vn 0.8115234 0.1021118 0.5751953
vn 0.2631836 0.6796875 0.6845703
vn 0.3496094 0.06396484 0.9345703
vn -0.1413574 0.9838867 -0.1091919
vn -0.5859375 0.6782227 -0.4436035
vn -0.9829102 0.184082 -0.01681519
vn -0.6791992 0.7329102 -0.03222656
vn -0.9150391 0.1851807 0.3579102
vn -0.6254883 0.7329102 0.2678223
vn -0.5654297 0.1035767 0.8178711
vn -0.09619141 0.9838867 0.1518555
vn -0.01876831 0.6796875 0.7333984
vn -0.01537323 0.06451416 0.9975586
vn -0.3986816 0.6782227 0.6176758
vn 0.3986816 0.6782227 -0.6176758
vn 0.01876831 0.6796875 -0.7333984
vn 0.01537323 0.06451416 -0.9975586
vn 0.5654297 0.1035767 -0.8178711
vn -0.3496094 0.06396484 -0.9345703
vn 0.6254883 0.7329102 -0.2678223
vn 0.9150391 0.1851807 -0.3579102
vn 0.09619141 0.9838867 -0.1518555
vn -0.2631836 0.6796875 -0.6845703
vn -0.8115234 0.1021118 -0.5751953
vn 0.6791992 0.7329102 0.03222656
vn 0.9829102 0.184082 0.01681519
vn 0.1413574 0.9838867 0.1091919
vn 0.5859375 0.6782227 0.4436035
vn 0.8115234 0.1021118 0.5751953
vn 0.2631836 0.6796875 0.6845703
vn 0.3496094 0.06396484 0.9345703
vn -0.1413574 0.9838867 -0.1091919
vn -0.5859375 0.6782227 -0.4436035
vn -0.9829102 0.184082 -0.01681519
vn -0.6791992 0.7329102 -0.03222656
vn -0.9150391 0.1851807 0.3579102
vn -0.6254883 0.7329102 0.2678223
vn -0.5654297 0.1035767 0.8178711
vn -0.09619141 0.9838867 0.1518555
vn -0.01876831 0.6796875 0.7333984
vn -0.01537323 0.06451416 0.9975586
vn -0.3986816 0.6782227 0.6176758
g WellStand_0
f 3/3/3 2/2/2 1/1/1
f 4/4/4 3/3/3 1/1/1
f 4/4/4 1/1/1 5/5/5
f 6/6/6 3/3/3 4/4/4
f 7/7/7 4/4/4 5/5/5
f 7/7/7 5/5/5 8/8/8
f 9/9/9 6/6/6 4/4/4
f 9/9/9 4/4/4 7/7/7
f 10/10/10 6/6/6 9/9/9
f 11/11/11 7/7/7 8/8/8
f 11/11/11 8/8/8 12/12/12
f 13/13/13 9/9/9 7/7/7
f 13/13/13 7/7/7 11/11/11
f 14/14/14 10/10/10 9/9/9
f 14/14/14 9/9/9 13/13/13
f 15/15/15 10/10/10 14/14/14
f 16/16/16 15/15/15 14/14/14
f 16/16/16 14/14/14 17/17/17
f 17/17/17 14/14/14 13/13/13
f 18/18/18 16/16/16 17/17/17
f 19/19/19 11/11/11 12/12/12
f 19/19/19 12/12/12 20/20/20
f 21/21/21 13/13/13 11/11/11
f 17/17/17 13/13/13 21/21/21
f 21/21/21 11/11/11 19/19/19
f 18/18/18 17/17/17 22/22/22
f 22/22/22 17/17/17 21/21/21
f 23/23/23 18/18/18 22/22/22
f 24/24/24 19/19/19 20/20/20
f 24/24/24 20/20/20 25/25/25
f 26/26/26 21/21/21 19/19/19
f 22/22/22 21/21/21 26/26/26
f 26/26/26 19/19/19 24/24/24
f 23/23/23 22/22/22 27/27/27
f 27/27/27 22/22/22 26/26/26
f 28/28/28 23/23/23 27/27/27
f 29/29/29 24/24/24 25/25/25
f 29/29/29 25/25/25 30/30/30
f 31/31/31 26/26/26 24/24/24
f 27/27/27 26/26/26 31/31/31
f 31/31/31 24/24/24 29/29/29
f 28/28/28 27/27/27 32/32/32
f 32/32/32 27/27/27 31/31/31
f 33/33/33 28/28/28 32/32/32
f 34/34/34 29/29/29 30/30/30
f 34/34/34 30/30/30 35/35/35
f 36/36/36 31/31/31 29/29/29
f 32/32/32 31/31/31 36/36/36
f 36/36/36 29/29/29 34/34/34
f 33/33/33 32/32/32 37/37/37
f 37/37/37 32/32/32 36/36/36
f 38/38/38 33/33/33 37/37/37
f 39/39/39 34/34/34 35/35/35
f 39/39/39 35/35/35 40/40/40
f 41/41/41 36/36/36 34/34/34
f 37/37/37 36/36/36 41/41/41
f 41/41/41 34/34/34 39/39/39
f 38/38/38 37/37/37 42/42/42
f 42/42/42 37/37/37 41/41/41
f 43/43/43 38/38/38 42/42/42
f 44/44/44 39/39/39 40/40/40
f 44/44/44 40/40/40 45/45/45
f 46/46/46 41/41/41 39/39/39
f 42/42/42 41/41/41 46/46/46
f 46/46/46 39/39/39 44/44/44
f 43/43/43 42/42/42 47/47/47
f 47/47/47 42/42/42 46/46/46
f 48/48/48 43/43/43 47/47/47
f 49/49/49 44/44/44 45/45/45
f 49/49/49 45/45/45 50/50/50
f 51/51/51 46/46/46 44/44/44
f 47/47/47 46/46/46 51/51/51
f 51/51/51 44/44/44 49/49/49
f 48/48/48 47/47/47 52/52/52
f 52/52/52 47/47/47 51/51/51
f 53/53/53 48/48/48 52/52/52
f 54/54/54 49/49/49 50/50/50
f 54/54/54 50/50/50 55/55/55
f 56/56/56 54/54/54 55/55/55
f 57/57/57 51/51/51 49/49/49
f 52/52/52 51/51/51 57/57/57
f 57/57/57 49/49/49 54/54/54
f 53/53/53 52/52/52 58/58/58
f 58/58/58 52/52/52 57/57/57
f 59/59/59 53/53/53 58/58/58
f 60/60/60 54/54/54 56/56/56
f 60/60/60 57/57/57 54/54/54
f 58/58/58 57/57/57 60/60/60
f 61/61/61 60/60/60 56/56/56
f 59/59/59 58/58/58 62/62/62
f 62/62/62 58/58/58 60/60/60
f 62/62/62 60/60/60 61/61/61
f 63/63/63 59/59/59 62/62/62
f 64/64/64 62/62/62 61/61/61
f 63/63/63 62/62/62 64/64/64
f 65/65/65 63/63/63 64/64/64
f 68/68/68 67/67/67 66/66/66
f 69/69/69 68/68/68 66/66/66
f 69/69/69 66/66/66 70/70/70
f 71/71/71 68/68/68 69/69/69
f 72/72/72 69/69/69 70/70/70
f 72/72/72 70/70/70 73/73/73
f 74/74/74 71/71/71 69/69/69
f 74/74/74 69/69/69 72/72/72
f 75/75/75 71/71/71 74/74/74
f 76/76/76 72/72/72 73/73/73
f 76/76/76 73/73/73 77/77/77
f 78/78/78 74/74/74 72/72/72
f 78/78/78 72/72/72 76/76/76
f 79/79/79 75/75/75 74/74/74
f 79/79/79 74/74/74 78/78/78
f 80/80/80 75/75/75 79/79/79
f 81/81/81 80/80/80 79/79/79
f 81/81/81 79/79/79 82/82/82
f 82/82/82 79/79/79 78/78/78
f 83/83/83 81/81/81 82/82/82
f 84/84/84 76/76/76 77/77/77
f 84/84/84 77/77/77 85/85/85
f 86/86/86 78/78/78 76/76/76
f 82/82/82 78/78/78 86/86/86
f 86/86/86 76/76/76 84/84/84
f 83/83/83 82/82/82 87/87/87
f 87/87/87 82/82/82 86/86/86
f 88/88/88 83/83/83 87/87/87
f 89/89/89 84/84/84 85/85/85
f 89/89/89 85/85/85 90/90/90
f 91/91/91 86/86/86 84/84/84
f 87/87/87 86/86/86 91/91/91
f 91/91/91 84/84/84 89/89/89
f 88/88/88 87/87/87 92/92/92
f 92/92/92 87/87/87 91/91/91
f 93/93/93 88/88/88 92/92/92
f 94/94/94 89/89/89 90/90/90
f 94/94/94 90/90/90 95/95/95
f 96/96/96 91/91/91 89/89/89
f 92/92/92 91/91/91 96/96/96
f 96/96/96 89/89/89 94/94/94
f 93/93/93 92/92/92 97/97/97
f 97/97/97 92/92/92 96/96/96
f 98/98/98 93/93/93 97/97/97
f 99/99/99 94/94/94 95/95/95
f 99/99/99 95/95/95 100/100/100
f 101/101/101 96/96/96 94/94/94
f 97/97/97 96/96/96 101/101/101
f 101/101/101 94/94/94 99/99/99
f 98/98/98 97/97/97 102/102/102
f 102/102/102 97/97/97 101/101/101
f 103/103/103 98/98/98 102/102/102
f 104/104/104 99/99/99 100/100/100
f 104/104/104 100/100/100 105/105/105
f 106/106/106 101/101/101 99/99/99
f 102/102/102 101/101/101 106/106/106
f 106/106/106 99/99/99 104/104/104
f 103/103/103 102/102/102 107/107/107
f 107/107/107 102/102/102 106/106/106
f 108/108/108 103/103/103 107/107/107
f 109/109/109 104/104/104 105/105/105
f 109/109/109 105/105/105 110/110/110
f 111/111/111 106/106/106 104/104/104
f 107/107/107 106/106/106 111/111/111
f 111/111/111 104/104/104 109/109/109
f 108/108/108 107/107/107 112/112/112
f 112/112/112 107/107/107 111/111/111
f 113/113/113 108/108/108 112/112/112
f 114/114/114 109/109/109 110/110/110
f 114/114/114 110/110/110 115/115/115
f 116/116/116 111/111/111 109/109/109
f 112/112/112 111/111/111 116/116/116
f 116/116/116 109/109/109 114/114/114
f 113/113/113 112/112/112 117/117/117
f 117/117/117 112/112/112 116/116/116
f 118/118/118 113/113/113 117/117/117
f 119/119/119 114/114/114 115/115/115
f 119/119/119 115/115/115 120/120/120
f 121/121/121 119/119/119 120/120/120
f 122/122/122 116/116/116 114/114/114
f 117/117/117 116/116/116 122/122/122
f 122/122/122 114/114/114 119/119/119
f 118/118/118 117/117/117 123/123/123
f 123/123/123 117/117/117 122/122/122
f 124/124/124 118/118/118 123/123/123
f 125/125/125 119/119/119 121/121/121
f 125/125/125 122/122/122 119/119/119
f 123/123/123 122/122/122 125/125/125
f 126/126/126 125/125/125 121/121/121
f 124/124/124 123/123/123 127/127/127
f 127/127/127 123/123/123 125/125/125
f 127/127/127 125/125/125 126/126/126
f 128/128/128 124/124/124 127/127/127
f 129/129/129 127/127/127 126/126/126
f 128/128/128 127/127/127 129/129/129
f 130/130/130 128/128/128 129/129/129
f 133/133/133 132/132/132 131/131/131
f 132/132/132 134/134/134 131/131/131
f 132/132/132 135/135/135 134/134/134
f 135/135/135 136/136/136 134/134/134
f 135/135/135 137/137/137 136/136/136
f 137/137/137 138/138/138 136/136/136
f 136/136/136 138/138/138 139/139/139
f 138/138/138 140/140/140 139/139/139
f 139/139/139 140/140/140 141/141/141
f 140/140/140 142/142/142 141/141/141
f 145/145/145 144/144/144 143/143/143
f 146/146/146 145/145/145 143/143/143
f 149/149/149 148/148/148 147/147/147
f 150/150/150 149/149/149 147/147/147
f 153/153/153 152/152/152 151/151/151
f 154/154/154 153/153/153 151/151/151
f 155/155/155 153/153/153 154/154/154
f 156/156/156 155/155/155 154/154/154
f 157/157/157 155/155/155 156/156/156
f 158/158/158 157/157/157 156/156/156
f 157/157/157 159/159/159 155/155/155
f 159/159/159 160/160/160 155/155/155
f 159/159/159 161/161/161 160/160/160
f 161/161/161 162/162/162 160/160/160
f 160/160/160 162/162/162 163/163/163
f 162/162/162 164/164/164 163/163/163
f 163/163/163 164/164/164 165/165/165
f 164/164/164 166/166/166 165/165/165
f 169/169/169 168/168/168 167/167/167
f 168/168/168 170/170/170 167/167/167
f 167/167/167 170/170/170 171/171/171
f 170/170/170 172/172/172 171/171/171
f 175/175/175 174/174/174 173/173/173
f 176/176/176 175/175/175 173/173/173
f 177/177/177 175/175/175 176/176/176
f 178/178/178 177/177/177 176/176/176
f 181/181/181 180/180/180 179/179/179
f 179/179/179 182/182/182 181/181/181
f 182/182/182 183/183/183 181/181/181
f 182/182/182 184/184/184 183/183/183
f 187/187/187 186/186/186 185/185/185
f 185/185/185 188/188/188 187/187/187
f 185/185/185 189/189/189 188/188/188
f 189/189/189 190/190/190 188/188/188
f 193/193/193 192/192/192 191/191/191
f 192/192/192 194/194/194 191/191/191
f 191/191/191 194/194/194 195/195/195
f 194/194/194 196/196/196 195/195/195
f 199/199/199 198/198/198 197/197/197
f 198/198/198 200/200/200 197/197/197
f 197/197/197 200/200/200 201/201/201
f 200/200/200 202/202/202 201/201/201
f 205/205/205 204/204/204 203/203/203
f 206/206/206 205/205/205 203/203/203
f 207/207/207 205/205/205 206/206/206
f 208/208/208 207/207/207 206/206/206
f 211/211/211 210/210/210 209/209/209
f 212/212/212 211/211/211 209/209/209
f 215/215/215 214/214/214 213/213/213
f 216/216/216 215/215/215 213/213/213
f 217/217/217 215/215/215 216/216/216
f 218/218/218 217/217/217 216/216/216
f 221/221/221 220/220/220 219/219/219
f 222/222/222 221/221/221 219/219/219
f 223/223/223 221/221/221 222/222/222
f 224/224/224 223/223/223 222/222/222
f 227/227/227 226/226/226 225/225/225
f 228/228/228 227/227/227 225/225/225
f 231/231/231 230/230/230 229/229/229
f 230/230/230 232/232/232 229/229/229
f 229/229/229 232/232/232 233/233/233
f 232/232/232 234/234/234 233/233/233
f 237/237/237 236/236/236 235/235/235
f 235/235/235 238/238/238 237/237/237
f 235/235/235 239/239/239 238/238/238
f 235/235/235 240/240/240 239/239/239
f 240/240/240 241/241/241 239/239/239
f 244/244/244 243/243/243 242/242/242
f 242/242/242 245/245/245 244/244/244
f 242/242/242 246/246/246 245/245/245
f 246/246/246 247/247/247 245/245/245
f 246/246/246 248/248/248 247/247/247
f 251/251/251 250/250/250 249/249/249
f 252/252/252 251/251/251 249/249/249
f 255/255/255 254/254/254 253/253/253
f 256/256/256 255/255/255 253/253/253
f 256/256/256 253/253/253 257/257/257
f 258/258/258 255/255/255 256/256/256
f 259/259/259 256/256/256 257/257/257
f 260/260/260 258/258/258 256/256/256
f 260/260/260 256/256/256 259/259/259
f 261/261/261 258/258/258 260/260/260
f 262/262/262 260/260/260 259/259/259
f 263/263/263 261/261/261 260/260/260
f 263/263/263 260/260/260 262/262/262
f 264/264/264 263/263/263 262/262/262
f 267/267/267 266/266/266 265/265/265
f 268/268/268 267/267/267 265/265/265
f 269/269/269 267/267/267 268/268/268
f 270/270/270 269/269/269 268/268/268
f 270/270/270 268/268/268 271/271/271
f 272/272/272 270/270/270 271/271/271
f 271/271/271 268/268/268 273/273/273
f 268/268/268 265/265/265 273/273/273
f 265/265/265 274/274/274 273/273/273
f 274/274/274 275/275/275 273/273/273
f 278/278/278 277/277/277 276/276/276
f 279/279/279 278/278/278 276/276/276
f 279/279/279 276/276/276 280/280/280
f 281/281/281 279/279/279 280/280/280
f 284/284/284 283/283/283 282/282/282
f 285/285/285 284/284/284 282/282/282
f 288/288/288 287/287/287 286/286/286
f 287/287/287 289/289/289 286/286/286
f 287/287/287 290/290/290 289/289/289
f 290/290/290 291/291/291 289/289/289
f 294/294/294 293/293/293 292/292/292
f 293/293/293 295/295/295 292/292/292
f 293/293/293 296/296/296 295/295/295
f 296/296/296 297/297/297 295/295/295
f 300/300/300 299/299/299 298/298/298
f 301/301/301 300/300/300 298/298/298
f 304/304/304 303/303/303 302/302/302
f 305/305/305 304/304/304 302/302/302
f 305/305/305 302/302/302 306/306/306
f 307/307/307 305/305/305 306/306/306
f 307/307/307 306/306/306 308/308/308
f 308/308/308 306/306/306 309/309/309
f 310/310/310 307/307/307 308/308/308
f 306/306/306 311/311/311 309/309/309
f 312/312/312 307/307/307 310/310/310
f 309/309/309 311/311/311 313/313/313
f 314/314/314 312/312/312 310/310/310
f 311/311/311 315/315/315 313/313/313
f 316/316/316 312/312/312 314/314/314
f 313/313/313 315/315/315 317/317/317
f 318/318/318 316/316/316 314/314/314
f 315/315/315 319/319/319 317/317/317
f 319/319/319 316/316/316 318/318/318
f 317/317/317 319/319/319 318/318/318
f 322/322/322 321/321/321 320/320/320
f 321/321/321 323/323/323 320/320/320
f 324/324/324 321/321/321 322/322/322
f 320/320/320 323/323/323 325/325/325
f 326/326/326 324/324/324 322/322/322
f 323/323/323 327/327/327 325/325/325
f 328/328/328 324/324/324 326/326/326
f 325/325/325 327/327/327 329/329/329
f 330/330/330 328/328/328 326/326/326
f 327/327/327 331/331/331 329/329/329
f 332/332/332 328/328/328 330/330/330
f 329/329/329 331/331/331 333/333/333
f 333/333/333 332/332/332 330/330/330
f 331/331/331 332/332/332 333/333/333
f 336/336/336 335/335/335 334/334/334
f 337/337/337 336/336/336 334/334/334
f 337/337/337 334/334/334 338/338/338
f 339/339/339 337/337/337 338/338/338
f 339/339/339 338/338/338 340/340/340
f 341/341/341 337/337/337 339/339/339
f 341/341/341 336/336/336 337/337/337
f 342/342/342 339/339/339 340/340/340
f 341/341/341 339/339/339 342/342/342
f 342/342/342 340/340/340 343/343/343
f 336/336/336 344/344/344 335/335/335
f 344/344/344 345/345/345 335/335/335
f 346/346/346 342/342/342 343/343/343
f 346/346/346 343/343/343 347/347/347
f 348/348/348 344/344/344 336/336/336
f 341/341/341 348/348/348 336/336/336
f 344/344/344 349/349/349 345/345/345
f 348/348/348 349/349/349 344/344/344
f 349/349/349 350/350/350 345/345/345
f 349/349/349 351/351/351 350/350/350
f 348/348/348 351/351/351 349/349/349
f 351/351/351 352/352/352 350/350/350
f 353/353/353 342/342/342 346/346/346
f 353/353/353 341/341/341 342/342/342
f 354/354/354 346/346/346 347/347/347
f 353/353/353 346/346/346 354/354/354
f 354/354/354 347/347/347 355/355/355
f 356/356/356 348/348/348 341/341/341
f 348/348/348 356/356/356 351/351/351
f 353/353/353 356/356/356 341/341/341
f 351/351/351 357/357/357 352/352/352
f 356/356/356 357/357/357 351/351/351
f 357/357/357 358/358/358 352/352/352
f 359/359/359 354/354/354 355/355/355
f 353/353/353 354/354/354 359/359/359
f 356/356/356 353/353/353 359/359/359
f 359/359/359 355/355/355 360/360/360
f 361/361/361 360/360/360 358/358/358
f 357/357/357 361/361/361 358/358/358
f 356/356/356 361/361/361 357/357/357
f 361/361/361 359/359/359 360/360/360
f 356/356/356 359/359/359 361/361/361
f 364/364/364 363/363/363 362/362/362
f 365/365/365 364/364/364 362/362/362
f 365/365/365 362/362/362 366/366/366
f 367/367/367 365/365/365 366/366/366
f 367/367/367 366/366/366 368/368/368
f 369/369/369 365/365/365 367/367/367
f 369/369/369 364/364/364 365/365/365
f 370/370/370 367/367/367 368/368/368
f 369/369/369 367/367/367 370/370/370
f 370/370/370 368/368/368 371/371/371
f 364/364/364 372/372/372 363/363/363
f 372/372/372 373/373/373 363/363/363
f 374/374/374 370/370/370 371/371/371
f 374/374/374 371/371/371 375/375/375
f 376/376/376 372/372/372 364/364/364
f 369/369/369 376/376/376 364/364/364
f 372/372/372 377/377/377 373/373/373
f 376/376/376 377/377/377 372/372/372
f 377/377/377 378/378/378 373/373/373
f 377/377/377 379/379/379 378/378/378
f 376/376/376 379/379/379 377/377/377
f 379/379/379 380/380/380 378/378/378
f 381/381/381 370/370/370 374/374/374
f 381/381/381 369/369/369 370/370/370
f 382/382/382 374/374/374 375/375/375
f 381/381/381 374/374/374 382/382/382
f 382/382/382 375/375/375 383/383/383
f 384/384/384 376/376/376 369/369/369
f 376/376/376 384/384/384 379/379/379
f 381/381/381 384/384/384 369/369/369
f 379/379/379 385/385/385 380/380/380
f 384/384/384 385/385/385 379/379/379
f 385/385/385 386/386/386 380/380/380
f 387/387/387 382/382/382 383/383/383
f 381/381/381 382/382/382 387/387/387
f 384/384/384 381/381/381 387/387/387
f 387/387/387 383/383/383 388/388/388
f 389/389/389 388/388/388 386/386/386
f 385/385/385 389/389/389 386/386/386
f 384/384/384 389/389/389 385/385/385
f 389/389/389 387/387/387 388/388/388
f 384/384/384 387/387/387 389/389/389
f 392/392/392 391/391/391 390/390/390
f 393/393/393 392/392/392 390/390/390
f 392/392/392 394/394/394 391/391/391
f 393/393/393 390/390/390 395/395/395
f 396/396/396 393/393/393 395/395/395
f 390/390/390 391/391/391 397/397/397
f 395/395/395 390/390/390 397/397/397
f 394/394/394 398/398/398 391/391/391
f 391/391/391 398/398/398 397/397/397
f 394/394/394 399/399/399 398/398/398
f 396/396/396 395/395/395 400/400/400
f 401/401/401 396/396/396 400/400/400
f 395/395/395 397/397/397 402/402/402
f 400/400/400 395/395/395 402/402/402
f 401/401/401 400/400/400 403/403/403
f 403/403/403 400/400/400 402/402/402
f 404/404/404 401/401/401 403/403/403
f 404/404/404 403/403/403 405/405/405
f 405/405/405 403/403/403 402/402/402
f 406/406/406 404/404/404 405/405/405
f 398/398/398 407/407/407 397/397/397
f 402/402/402 397/397/397 407/407/407
f 399/399/399 408/408/408 398/398/398
f 398/398/398 408/408/408 407/407/407
f 399/399/399 409/409/409 408/408/408
f 409/409/409 410/410/410 408/408/408
f 408/408/408 410/410/410 407/407/407
f 409/409/409 411/411/411 410/410/410
f 411/411/411 412/412/412 410/410/410
f 410/410/410 412/412/412 407/407/407
f 411/411/411 413/413/413 412/412/412
f 414/414/414 402/402/402 407/407/407
f 405/405/405 402/402/402 414/414/414
f 412/412/412 414/414/414 407/407/407
f 406/406/406 405/405/405 415/415/415
f 415/415/415 405/405/405 414/414/414
f 416/416/416 406/406/406 415/415/415
f 413/413/413 417/417/417 412/412/412
f 412/412/412 417/417/417 414/414/414
f 417/417/417 415/415/415 414/414/414
f 416/416/416 415/415/415 417/417/417
f 413/413/413 416/416/416 417/417/417
f 420/420/420 419/419/419 418/418/418
f 421/421/421 420/420/420 418/418/418
f 420/420/420 422/422/422 419/419/419
f 421/421/421 418/418/418 423/423/423
f 424/424/424 421/421/421 423/423/423
f 418/418/418 419/419/419 425/425/425
f 423/423/423 418/418/418 425/425/425
f 422/422/422 426/426/426 419/419/419
f 419/419/419 426/426/426 425/425/425
f 422/422/422 427/427/427 426/426/426
f 424/424/424 423/423/423 428/428/428
f 429/429/429 424/424/424 428/428/428
f 423/423/423 425/425/425 430/430/430
f 428/428/428 423/423/423 430/430/430
f 429/429/429 428/428/428 431/431/431
f 431/431/431 428/428/428 430/430/430
f 432/432/432 429/429/429 431/431/431
f 432/432/432 431/431/431 433/433/433
f 433/433/433 431/431/431 430/430/430
f 434/434/434 432/432/432 433/433/433
f 426/426/426 435/435/435 425/425/425
f 430/430/430 425/425/425 435/435/435
f 427/427/427 436/436/436 426/426/426
f 426/426/426 436/436/436 435/435/435
f 427/427/427 437/437/437 436/436/436
f 437/437/437 438/438/438 436/436/436
f 436/436/436 438/438/438 435/435/435
f 437/437/437 439/439/439 438/438/438
f 439/439/439 440/440/440 438/438/438
f 438/438/438 440/440/440 435/435/435
f 439/439/439 441/441/441 440/440/440
f 442/442/442 430/430/430 435/435/435
f 433/433/433 430/430/430 442/442/442
f 440/440/440 442/442/442 435/435/435
f 434/434/434 433/433/433 443/443/443
f 443/443/443 433/433/433 442/442/442
f 444/444/444 434/434/434 443/443/443
f 441/441/441 445/445/445 440/440/440
f 440/440/440 445/445/445 442/442/442
f 445/445/445 443/443/443 442/442/442
f 444/444/444 443/443/443 445/445/445
f 441/441/441 444/444/444 445/445/445
