g WindMill_Stall
v 0.09111572 2.269623 -1.604042
v 0.3033081 2.681139 -1.791567
v 0.09111603 3.09265 -1.604043
v 0.09111603 3.09265 -1.604043
v 0.3033081 2.681139 -1.791567
v 0.3933095 3.09265 -1.523071
v 0.3933099 2.269626 -1.523072
v 0.3033081 2.681139 -1.791567
v 0.09111572 2.269623 -1.604042
v 0.3933095 3.09265 -1.523071
v 0.3033081 2.681139 -1.791567
v 0.3933099 2.269626 -1.523072
v 0.08467621 3.079101 -0.1666308
v -0.06019562 3.079101 0.3740368
v -0.1484387 3.731025 0.1773389
v -0.0900946 3.731025 -0.04040588
v -0.06019562 3.079101 0.3740368
v -0.4646918 3.079096 0.2656561
v -0.2899216 3.731025 0.1394311
v -0.1484387 3.731025 0.1773389
v -0.4646918 3.079096 0.2656561
v -0.3198199 3.079101 -0.2750146
v -0.2315768 3.731025 -0.07831665
v -0.2899216 3.731025 0.1394311
v -0.3198199 3.079101 -0.2750146
v 0.08467621 3.079101 -0.1666308
v -0.0900946 3.731025 -0.04040588
v -0.2315768 3.731025 -0.07831665
v -0.3198199 3.079101 -0.2750146
v -0.2262579 2.864632 -0.0942041
v -0.08675537 2.864632 -0.05682678
v 0.08467621 3.079101 -0.1666308
v -0.2899216 3.731025 0.1394311
v -0.2315768 3.731025 -0.07831665
v -0.0900946 3.731025 -0.04040588
v -0.1484387 3.731025 0.1773389
v -0.06019562 3.079101 0.3740368
v -0.1537576 2.864632 0.1932294
v -0.2932599 2.864632 0.155849
v -0.4646918 3.079096 0.2656561
v 0.08467621 3.079101 -0.1666308
v -0.08675537 2.864632 -0.05682678
v -0.1537576 2.864632 0.1932294
v -0.06019562 3.079101 0.3740368
v -0.4646918 3.079096 0.2656561
v -0.2932599 2.864632 0.155849
v -0.2262579 2.864632 -0.0942041
v -0.3198199 3.079101 -0.2750146
v 0.3933095 3.09265 -1.523071
v 0.3933099 2.269626 -1.523072
v -0.3077325 2.591396 0.6113806
v -0.3077334 2.818795 0.6113837
v 0.3933099 2.269626 -1.523072
v 0.09111572 2.269623 -1.604042
v -0.3689868 2.591396 0.5949695
v -0.3077325 2.591396 0.6113806
v 0.09111572 2.269623 -1.604042
v 0.09111603 3.09265 -1.604043
v -0.3689877 2.818795 0.5949695
v -0.3689868 2.591396 0.5949695
v 0.09111603 3.09265 -1.604043
v 0.3933095 3.09265 -1.523071
v -0.3077334 2.818795 0.6113837
v -0.3689877 2.818795 0.5949695
v -0.374805 2.705091 0.442005
v -0.2262143 2.705089 0.4818195
v -0.2624094 3.254962 0.6169031
v -0.4109997 3.254959 0.577085
v -0.4109994 2.155221 0.5770868
v -0.2624091 2.155221 0.6169012
v -0.2262143 2.705089 0.4818195
v -0.374805 2.705091 0.442005
v -0.9530374 2.705089 2.672311
v -0.9353707 3.59318 2.606379
v -0.8229352 3.59318 2.636503
v -0.8406021 2.705089 2.702436
v -0.9353707 1.816999 2.606377
v -0.9530374 2.705089 2.672311
v -0.8406021 2.705089 2.702436
v -0.8229352 1.816999 2.636505
v -0.374805 2.705091 0.442005
v -0.9353707 1.816999 2.606377
v -0.4109994 2.155221 0.5770868
v -0.9530374 2.705089 2.672311
v -0.4109997 3.254959 0.577085
v -0.9353707 3.59318 2.606379
v -0.2624094 3.254962 0.6169031
v -0.8229352 3.59318 2.636503
v -0.9353707 3.59318 2.606379
v -0.4109997 3.254959 0.577085
v -0.4109994 2.155221 0.5770868
v -0.9353707 1.816999 2.606377
v -0.8229352 1.816999 2.636505
v -0.2624091 2.155221 0.6169012
v -0.2262143 2.705089 0.4818195
v -0.8229352 3.59318 2.636503
v -0.2624094 3.254962 0.6169031
v -0.8406021 2.705089 2.702436
v -0.2624091 2.155221 0.6169012
v -0.8229352 1.816999 2.636505
v -0.2665595 0.1173857 0.07142517
v -0.4111447 0.08088054 0.1101666
v -0.3519989 0.08088054 -0.1105658
v -0.2461557 0.1173857 -0.0047229
v -0.2461563 2.657481 -0.0047229
v -0.2461557 0.1173857 -0.0047229
v -0.1700076 0.1173869 -0.02512634
v -0.1700079 2.657481 -0.02512634
v -0.2108151 2.657481 0.1271698
v -0.2108148 0.1173869 0.1271686
v -0.2665595 0.1173857 0.07142517
v -0.26656 2.657481 0.07142639
v -0.1142633 2.657478 0.03061951
v -0.114263 0.1173857 0.03061767
v -0.1346664 0.1173857 0.1067657
v -0.1346671 2.657482 0.1067651
v -0.26656 2.657481 0.07142639
v -0.2665595 0.1173857 0.07142517
v -0.2461557 0.1173857 -0.0047229
v -0.2461563 2.657481 -0.0047229
v -0.1346671 2.657482 0.1067651
v -0.1346664 0.1173857 0.1067657
v -0.2108148 0.1173869 0.1271686
v -0.2108151 2.657481 0.1271698
v -0.1700079 2.657481 -0.02512634
v -0.1700076 0.1173869 -0.02512634
v -0.114263 0.1173857 0.03061767
v -0.1142633 2.657478 0.03061951
v -0.3519989 0.08088054 -0.1105658
v -0.3298013 -8.147917E-07 -0.08837036
v -0.1393909 -8.147917E-07 -0.1393884
v -0.1312659 0.08088054 -0.1697125
v -0.1346664 0.1173857 0.1067657
v -0.02882355 0.08088054 0.2126099
v -0.2495563 0.08088054 0.2717541
v -0.2108148 0.1173869 0.1271686
v -0.1700076 0.1173869 -0.02512634
v -0.1312659 0.08088054 -0.1697125
v 0.03032165 0.08087932 -0.008123779
v -0.114263 0.1173857 0.03061767
v -0.2461557 0.1173857 -0.0047229
v -0.3519989 0.08088054 -0.1105658
v -0.1312659 0.08088054 -0.1697125
v -0.1700076 0.1173869 -0.02512634
v -0.2108148 0.1173869 0.1271686
v -0.2495563 0.08088054 0.2717541
v -0.4111447 0.08088054 0.1101666
v -0.2665595 0.1173857 0.07142517
v -0.114263 0.1173857 0.03061767
v 0.03032165 0.08087932 -0.008123779
v -0.02882355 0.08088054 0.2126099
v -0.1346664 0.1173857 0.1067657
v 1.136868E-15 -8.147917E-07 -6.103515E-07
v -0.1393909 -8.147917E-07 -0.1393884
v -0.3298013 -8.147917E-07 -0.08837036
v -0.3808221 -8.147917E-07 0.1020416
v -0.05102081 -8.147917E-07 0.1904114
v -0.2414316 -8.147917E-07 0.2414319
v 0.03032165 0.08087932 -0.008123779
v 1.136868E-15 -8.147917E-07 -6.103515E-07
v -0.05102081 -8.147917E-07 0.1904114
v -0.02882355 0.08088054 0.2126099
v -0.2495563 0.08088054 0.2717541
v -0.2414316 -8.147917E-07 0.2414319
v -0.3808221 -8.147917E-07 0.1020416
v -0.4111447 0.08088054 0.1101666
v -0.1312659 0.08088054 -0.1697125
v -0.1393909 -8.147917E-07 -0.1393884
v 1.136868E-15 -8.147917E-07 -6.103515E-07
v 0.03032165 0.08087932 -0.008123779
v -0.02882355 0.08088054 0.2126099
v -0.05102081 -8.147917E-07 0.1904114
v -0.2414316 -8.147917E-07 0.2414319
v -0.2495563 0.08088054 0.2717541
v -0.4111447 0.08088054 0.1101666
v -0.3808221 -8.147917E-07 0.1020416
v -0.3298013 -8.147917E-07 -0.08837036
v -0.3519989 0.08088054 -0.1105658
vt 0.8081055 0.7583008
vt 0.8095703 0.7592773
vt 0.8115234 0.7587891
vt 0.8188477 0.7583008
vt 0.8188477 0.7568359
vt 0.8173828 0.7578125
vt 0.8139648 0.7402344
vt 0.8139648 0.7382813
vt 0.8125 0.7397461
vt 0.8125 0.7314453
vt 0.8105469 0.730957
vt 0.809082 0.7319336
vt 0.8173828 0.7758789
vt 0.8134766 0.7758789
vt 0.8144531 0.7792969
vt 0.815918 0.7792969
vt 0.831543 0.7739258
vt 0.8286133 0.7744141
vt 0.8305664 0.777832
vt 0.831543 0.777832
vt 0.824707 0.7753906
vt 0.8208008 0.7753906
vt 0.8222656 0.7792969
vt 0.8237305 0.7792969
vt 0.8178711 0.7822266
vt 0.8203125 0.7832031
vt 0.8203125 0.7792969
vt 0.8193359 0.7788086
vt 0.8178711 0.7822266
vt 0.8183594 0.7841797
vt 0.8193359 0.7841797
vt 0.8203125 0.7832031
vt 0.8237305 0.7734375
vt 0.8237305 0.7719727
vt 0.8227539 0.7719727
vt 0.8227539 0.7734375
vt 0.831543 0.7739258
vt 0.8300781 0.7724609
vt 0.8291016 0.7729492
vt 0.8286133 0.7744141
vt 0.8173828 0.7758789
vt 0.8164063 0.7744141
vt 0.8144531 0.7744141
vt 0.8134766 0.7758789
vt 0.824707 0.7753906
vt 0.8237305 0.7739258
vt 0.8222656 0.7739258
vt 0.8208008 0.7753906
vt 0.8125 0.7314453
vt 0.809082 0.7319336
vt 0.8115234 0.7407227
vt 0.8125 0.7407227
vt 0.8051758 0.7792969
vt 0.8037109 0.7792969
vt 0.8041992 0.7885742
vt 0.8041992 0.7885742
vt 0.8081055 0.7583008
vt 0.8115234 0.7587891
vt 0.8115234 0.7495117
vt 0.8105469 0.7495117
vt 0.8383789 0.7397461
vt 0.8398438 0.7397461
vt 0.8393555 0.730957
vt 0.8388672 0.730957
vt 0.05645752 0.96875
vt 0.05709839 0.96875
vt 0.05709839 0.9667969
vt 0.05645752 0.9667969
vt 0.05645752 0.9707031
vt 0.05709839 0.9707031
vt 0.05709839 0.96875
vt 0.05645752 0.96875
vt 0.04449463 0.9526367
vt 0.04449463 0.9555664
vt 0.04498291 0.9555664
vt 0.04498291 0.9526367
vt 0.04449463 0.9492188
vt 0.04449463 0.9526367
vt 0.04498291 0.9526367
vt 0.04498291 0.9492188
vt 0.03103638 0.9248047
vt 0.03399658 0.9335938
vt 0.03326416 0.9257813
vt 0.0302887 0.9335938
vt 0.02870178 0.925293
vt 0.02661133 0.9331055
vt 0.03521729 0.9741211
vt 0.03515625 0.9663086
vt 0.03466797 0.9663086
vt 0.03457642 0.9741211
vt 0.06744385 0.9736328
vt 0.06738281 0.9658203
vt 0.06689453 0.9658203
vt 0.0668335 0.9736328
vt 0.02958679 0.9165039
vt 0.03399658 0.9243164
vt 0.03192139 0.9169922
vt 0.03033447 0.9248047
vt 0.02734375 0.9169922
vt 0.02661133 0.9248047
vt 0.8344727 0.7397461
vt 0.8354492 0.7402344
vt 0.8354492 0.7387695
vt 0.8344727 0.7392578
vt 0.8227539 0.7568359
vt 0.8227539 0.7719727
vt 0.8232422 0.7719727
vt 0.8232422 0.7568359
vt 0.8071289 0.7558594
vt 0.8071289 0.7709961
vt 0.8076172 0.7709961
vt 0.8076172 0.7558594
vt 0.8457031 0.7563477
vt 0.8457031 0.7412109
vt 0.8452148 0.7412109
vt 0.8452148 0.7563477
vt 0.8398438 0.7558594
vt 0.8398438 0.7407227
vt 0.8388672 0.7407227
vt 0.8388672 0.7558594
vt 0.8066406 0.7558594
vt 0.8066406 0.7709961
vt 0.8071289 0.7709961
vt 0.8071289 0.7558594
vt 0.8232422 0.7568359
vt 0.8232422 0.7719727
vt 0.8237305 0.7719727
vt 0.8237305 0.7568359
vt 0.8271484 0.7407227
vt 0.8276367 0.7407227
vt 0.8276367 0.7392578
vt 0.8271484 0.7392578
vt 0.8334961 0.7397461
vt 0.8330078 0.7402344
vt 0.8339844 0.7407227
vt 0.8339844 0.7397461
vt 0.8339844 0.7387695
vt 0.8339844 0.737793
vt 0.8330078 0.7387695
vt 0.8334961 0.7392578
vt 0.8344727 0.7392578
vt 0.8354492 0.7387695
vt 0.8339844 0.737793
vt 0.8339844 0.7387695
vt 0.8339844 0.7397461
vt 0.8339844 0.7407227
vt 0.8354492 0.7402344
vt 0.8344727 0.7397461
vt 0.8334961 0.7392578
vt 0.8330078 0.7387695
vt 0.8330078 0.7402344
vt 0.8334961 0.7397461
vt 0.8115234 0.7587891
vt 0.8129883 0.7592773
vt 0.8139648 0.7587891
vt 0.8139648 0.7573242
vt 0.8115234 0.7573242
vt 0.8129883 0.7568359
vt 0.8183594 0.7758789
vt 0.8188477 0.7753906
vt 0.8188477 0.7744141
vt 0.8183594 0.7744141
vt 0.8071289 0.7875977
vt 0.8081055 0.7875977
vt 0.8081055 0.7866211
vt 0.8076172 0.7866211
vt 0.8271484 0.7392578
vt 0.8276367 0.7392578
vt 0.8276367 0.7382813
vt 0.8271484 0.7382813
vt 0.8076172 0.7890625
vt 0.8081055 0.7890625
vt 0.8081055 0.7875977
vt 0.8071289 0.7875977
vt 0.8188477 0.7758789
vt 0.8183594 0.7758789
vt 0.8183594 0.7768555
vt 0.8188477 0.7768555
vn -0.6621094 0 -0.7495117
vn -0.6621094 0 -0.7495117
vn -0.6621094 0 -0.7495117
vn 0.2244873 0.4975586 -0.8378906
vn 0.2244873 0.4975586 -0.8378906
vn 0.2244873 0.4975586 -0.8378906
vn 0.2244873 -0.4975586 -0.8378906
vn 0.2244873 -0.4975586 -0.8378906
vn 0.2244873 -0.4975586 -0.8378906
vn 0.9482422 3.576279E-07 -0.3178711
vn 0.9482422 3.576279E-07 -0.3178711
vn 0.9482422 3.576279E-07 -0.3178711
vn 0.9453125 0.2044678 0.253418
vn 0.9453125 0.2044678 0.253418
vn 0.9453125 0.2044678 0.253418
vn 0.9453125 0.2044678 0.253418
vn -0.2507324 0.2484131 0.9355469
vn -0.2507324 0.2484131 0.9355469
vn -0.2507324 0.2484131 0.9355469
vn -0.2507324 0.2484131 0.9355469
vn -0.9453125 0.2044678 -0.253418
vn -0.9453125 0.2044678 -0.253418
vn -0.9453125 0.2044678 -0.253418
vn -0.9453125 0.2044678 -0.253418
vn 0.2507324 0.2484131 -0.9355469
vn 0.2507324 0.2484131 -0.9355469
vn 0.2507324 0.2484131 -0.9355469
vn 0.2507324 0.2484131 -0.9355469
vn 0.2119141 -0.5742188 -0.7910156
vn 0.2119141 -0.5742188 -0.7910156
vn 0.2119141 -0.5742188 -0.7910156
vn 0.2119141 -0.5742188 -0.7910156
vn -2.44379E-06 1 -7.152557E-07
vn -2.44379E-06 1 -7.152557E-07
vn -2.44379E-06 1 -7.152557E-07
vn -2.44379E-06 1 -7.152557E-07
vn -0.2119141 -0.5742188 0.7910156
vn -0.2119141 -0.5742188 0.7910156
vn -0.2119141 -0.5742188 0.7910156
vn -0.2119141 -0.5742188 0.7910156
vn 0.8139648 -0.5385742 0.2180176
vn 0.8139648 -0.5385742 0.2180176
vn 0.8139648 -0.5385742 0.2180176
vn 0.8139648 -0.5385742 0.2180176
vn -0.8139648 -0.5385742 -0.2180176
vn -0.8139648 -0.5385742 -0.2180176
vn -0.8139648 -0.5385742 -0.2180176
vn -0.8139648 -0.5385742 -0.2180176
vn 0.9501953 5.960464E-07 0.3120117
vn 0.9501953 5.960464E-07 0.3120117
vn 0.9501953 5.960464E-07 0.3120117
vn 0.9501953 5.960464E-07 0.3120117
vn -0.03671265 -0.9897461 0.137207
vn -0.03671265 -0.9897461 0.137207
vn -0.03671265 -0.9897461 0.137207
vn -0.03671265 -0.9897461 0.137207
vn -0.9790039 -2.384186E-07 -0.204834
vn -0.9790039 -2.384186E-07 -0.204834
vn -0.9790039 -2.384186E-07 -0.204834
vn -0.9790039 -2.384186E-07 -0.204834
vn -0.03134155 0.9926758 0.1170654
vn -0.03134155 0.9926758 0.1170654
vn -0.03134155 0.9926758 0.1170654
vn -0.03134155 0.9926758 0.1170654
vn 0.2507324 0.24646 -0.9360352
vn 0.2507324 0.24646 -0.9360352
vn 0.2507324 0.24646 -0.9360352
vn 0.2507324 0.24646 -0.9360352
vn 0.2507324 -0.24646 -0.9360352
vn 0.2507324 -0.24646 -0.9360352
vn 0.2507324 -0.24646 -0.9360352
vn 0.2507324 -0.24646 -0.9360352
vn -0.2580566 0.07666016 0.9628906
vn -0.2580566 0.07666016 0.9628906
vn -0.2580566 0.07666016 0.9628906
vn -0.2580566 0.07666016 0.9628906
vn -0.2580566 -0.07666016 0.9628906
vn -0.2580566 -0.07666016 0.9628906
vn -0.2580566 -0.07666016 0.9628906
vn -0.2580566 -0.07666016 0.9628906
vn -0.9682617 0.0004246235 -0.2504883
vn -0.9682617 0.0004246235 -0.2504883
vn -0.9682617 0.0004246235 -0.2504883
vn -0.9682617 0.0004246235 -0.2504883
vn -0.9682617 -0.0004246235 -0.2504883
vn -0.9682617 -0.0004246235 -0.2504883
vn 0.04122925 0.9873047 -0.1539307
vn 0.04122925 0.9873047 -0.1539307
vn 0.04122925 0.9873047 -0.1539307
vn 0.04122925 0.9873047 -0.1539307
vn 0.04122925 -0.9873047 -0.1539307
vn 0.04122925 -0.9873047 -0.1539307
vn 0.04122925 -0.9873047 -0.1539307
vn 0.04122925 -0.9873047 -0.1539307
vn 0.9638672 -0.0004251003 0.2670898
vn 0.9638672 -0.0004251003 0.2670898
vn 0.9638672 -0.0004251003 0.2670898
vn 0.9638672 -0.0004251003 0.2670898
vn 0.9638672 0.0004255772 0.2670898
vn 0.9638672 0.0004255772 0.2670898
vn -0.2617188 0.9624023 -0.07012939
vn -0.2617188 0.9624023 -0.07012939
vn -0.2617188 0.9624023 -0.07012939
vn -0.2617188 0.9624023 -0.07012939
vn -0.2587891 0 -0.9658203
vn -0.2587891 0 -0.9658203
vn -0.2587891 0 -0.9658203
vn -0.2587891 0 -0.9658203
vn -0.7070313 -2.384186E-07 0.7070313
vn -0.7070313 -2.384186E-07 0.7070313
vn -0.7070313 -2.384186E-07 0.7070313
vn -0.7070313 -2.384186E-07 0.7070313
vn 0.9658203 1.192093E-07 0.2587891
vn 0.9658203 1.192093E-07 0.2587891
vn 0.9658203 1.192093E-07 0.2587891
vn 0.9658203 1.192093E-07 0.2587891
vn -0.9658203 -1.192093E-07 -0.2587891
vn -0.9658203 -1.192093E-07 -0.2587891
vn -0.9658203 -1.192093E-07 -0.2587891
vn -0.9658203 -1.192093E-07 -0.2587891
vn 0.2587891 0 0.9658203
vn 0.2587891 0 0.9658203
vn 0.2587891 0 0.9658203
vn 0.2587891 0 0.9658203
vn 0.7070313 1.192093E-07 -0.7070313
vn 0.7070313 1.192093E-07 -0.7070313
vn 0.7070313 1.192093E-07 -0.7070313
vn 0.7070313 1.192093E-07 -0.7070313
vn -0.2453613 -0.3186035 -0.9155273
vn -0.2453613 -0.3186035 -0.9155273
vn -0.2453613 -0.3186035 -0.9155273
vn -0.2453613 -0.3186035 -0.9155273
vn 0.07012939 0.9624023 0.2617188
vn 0.07012939 0.9624023 0.2617188
vn 0.07012939 0.9624023 0.2617188
vn 0.07012939 0.9624023 0.2617188
vn 0.1916504 0.9624023 -0.1916504
vn 0.1916504 0.9624023 -0.1916504
vn 0.1916504 0.9624023 -0.1916504
vn 0.1916504 0.9624023 -0.1916504
vn -0.07019043 0.9624023 -0.2617188
vn -0.07019043 0.9624023 -0.2617188
vn -0.07019043 0.9624023 -0.2617188
vn -0.07019043 0.9624023 -0.2617188
vn -0.1916504 0.9624023 0.1916504
vn -0.1916504 0.9624023 0.1916504
vn -0.1916504 0.9624023 0.1916504
vn -0.1916504 0.9624023 0.1916504
vn 0.2617188 0.9624023 0.07012939
vn 0.2617188 0.9624023 0.07012939
vn 0.2617188 0.9624023 0.07012939
vn 0.2617188 0.9624023 0.07012939
vn 3.576279E-07 -1 -1.192093E-06
vn 3.576279E-07 -1 -1.192093E-06
vn 3.576279E-07 -1 -1.192093E-06
vn 3.576279E-07 -1 -1.192093E-06
vn 3.576279E-07 -1 -1.192093E-06
vn 3.576279E-07 -1 -1.192093E-06
vn 0.9155273 -0.3186035 0.2453613
vn 0.9155273 -0.3186035 0.2453613
vn 0.9155273 -0.3186035 0.2453613
vn 0.9155273 -0.3186035 0.2453613
vn -0.6704102 -0.3186035 0.6704102
vn -0.6704102 -0.3186035 0.6704102
vn -0.6704102 -0.3186035 0.6704102
vn -0.6704102 -0.3186035 0.6704102
vn 0.6704102 -0.3186035 -0.6704102
vn 0.6704102 -0.3186035 -0.6704102
vn 0.6704102 -0.3186035 -0.6704102
vn 0.6704102 -0.3186035 -0.6704102
vn 0.2453613 -0.3186035 0.9155273
vn 0.2453613 -0.3186035 0.9155273
vn 0.2453613 -0.3186035 0.9155273
vn 0.2453613 -0.3186035 0.9155273
vn -0.9155273 -0.3186035 -0.2453613
vn -0.9155273 -0.3186035 -0.2453613
vn -0.9155273 -0.3186035 -0.2453613
vn -0.9155273 -0.3186035 -0.2453613
g WindMill_Stall_0
f 3/3/3 2/2/2 1/1/1
f 6/6/6 5/5/5 4/4/4
f 9/9/9 8/8/8 7/7/7
f 12/12/12 11/11/11 10/10/10
f 15/15/15 14/14/14 13/13/13
f 16/16/16 15/15/15 13/13/13
f 19/19/19 18/18/18 17/17/17
f 20/20/20 19/19/19 17/17/17
f 23/23/23 22/22/22 21/21/21
f 24/24/24 23/23/23 21/21/21
f 27/27/27 26/26/26 25/25/25
f 28/28/28 27/27/27 25/25/25
f 31/31/31 30/30/30 29/29/29
f 32/32/32 31/31/31 29/29/29
f 35/35/35 34/34/34 33/33/33
f 36/36/36 35/35/35 33/33/33
f 39/39/39 38/38/38 37/37/37
f 40/40/40 39/39/39 37/37/37
f 43/43/43 42/42/42 41/41/41
f 44/44/44 43/43/43 41/41/41
f 47/47/47 46/46/46 45/45/45
f 48/48/48 47/47/47 45/45/45
f 51/51/51 50/50/50 49/49/49
f 52/52/52 51/51/51 49/49/49
f 55/55/55 54/54/54 53/53/53
f 56/56/56 55/55/55 53/53/53
f 59/59/59 58/58/58 57/57/57
f 60/60/60 59/59/59 57/57/57
f 63/63/63 62/62/62 61/61/61
f 64/64/64 63/63/63 61/61/61
f 67/67/67 66/66/66 65/65/65
f 68/68/68 67/67/67 65/65/65
f 71/71/71 70/70/70 69/69/69
f 72/72/72 71/71/71 69/69/69
f 75/75/75 74/74/74 73/73/73
f 76/76/76 75/75/75 73/73/73
f 79/79/79 78/78/78 77/77/77
f 80/80/80 79/79/79 77/77/77
f 83/83/83 82/82/82 81/81/81
f 82/82/82 84/84/84 81/81/81
f 81/81/81 84/84/84 85/85/85
f 84/84/84 86/86/86 85/85/85
f 89/89/89 88/88/88 87/87/87
f 90/90/90 89/89/89 87/87/87
f 93/93/93 92/92/92 91/91/91
f 94/94/94 93/93/93 91/91/91
f 97/97/97 96/96/96 95/95/95
f 96/96/96 98/98/98 95/95/95
f 95/95/95 98/98/98 99/99/99
f 98/98/98 100/100/100 99/99/99
f 103/103/103 102/102/102 101/101/101
f 104/104/104 103/103/103 101/101/101
f 107/107/107 106/106/106 105/105/105
f 108/108/108 107/107/107 105/105/105
f 111/111/111 110/110/110 109/109/109
f 112/112/112 111/111/111 109/109/109
f 115/115/115 114/114/114 113/113/113
f 116/116/116 115/115/115 113/113/113
f 119/119/119 118/118/118 117/117/117
f 120/120/120 119/119/119 117/117/117
f 123/123/123 122/122/122 121/121/121
f 124/124/124 123/123/123 121/121/121
f 127/127/127 126/126/126 125/125/125
f 128/128/128 127/127/127 125/125/125
f 131/131/131 130/130/130 129/129/129
f 132/132/132 131/131/131 129/129/129
f 135/135/135 134/134/134 133/133/133
f 136/136/136 135/135/135 133/133/133
f 139/139/139 138/138/138 137/137/137
f 140/140/140 139/139/139 137/137/137
f 143/143/143 142/142/142 141/141/141
f 144/144/144 143/143/143 141/141/141
f 147/147/147 146/146/146 145/145/145
f 148/148/148 147/147/147 145/145/145
f 151/151/151 150/150/150 149/149/149
f 152/152/152 151/151/151 149/149/149
f 155/155/155 154/154/154 153/153/153
f 153/153/153 156/156/156 155/155/155
f 153/153/153 157/157/157 156/156/156
f 157/157/157 158/158/158 156/156/156
f 161/161/161 160/160/160 159/159/159
f 162/162/162 161/161/161 159/159/159
f 165/165/165 164/164/164 163/163/163
f 166/166/166 165/165/165 163/163/163
f 169/169/169 168/168/168 167/167/167
f 170/170/170 169/169/169 167/167/167
f 173/173/173 172/172/172 171/171/171
f 174/174/174 173/173/173 171/171/171
f 177/177/177 176/176/176 175/175/175
f 178/178/178 177/177/177 175/175/175
