g WindMill_Fan
v -0.3408423 0.1792323 -0.9361186
v -0.2427555 0.3104369 -1.96337
v -0.2097047 0.310437 -0.9403563
v -0.3738936 0.1792323 -1.959133
v -0.3888425 7.028702E-07 -0.934567
v -0.4218932 6.581528E-07 -1.957583
v -0.3408425 -0.1792309 -0.9361186
v -0.3738936 -0.179231 -1.959133
v -0.209705 -0.3104374 -0.9403563
v -0.3738936 -0.179231 -1.959133
v -0.3408425 -0.1792309 -0.9361186
v -0.2427559 -0.3104375 -1.96337
v -0.03056797 -0.3584607 -0.9461417
v -0.06361812 -0.3584607 -1.969158
v 0.1485704 -0.3104355 -0.95193
v 0.1155188 -0.3104375 -1.974944
v 0.2797076 -0.1792309 -0.9561667
v 0.246657 -0.179231 -1.979181
v 0.3277067 7.018583E-07 -0.9577169
v 0.2946565 6.571408E-07 -1.980733
v 0.2797074 0.1792323 -0.9561667
v 0.2466573 0.1792323 -1.979181
v 0.1485702 0.3104389 -0.95193
v 0.1155188 0.3104369 -1.974944
v -0.03056744 0.3584621 -0.9461417
v -0.06361836 0.358462 -1.969158
v -0.2097047 0.310437 -0.9403563
v -0.2427555 0.3104369 -1.96337
v -0.5832171 2.576495 -0.8378273
v -0.5761883 2.576495 -0.6202708
v 0.3693616 2.576495 -0.650818
v 0.3623333 2.576495 -0.8683759
v 0.3623333 2.841531 -0.8683759
v 0.3693612 2.841531 -0.6508185
v -0.5761886 2.841531 -0.6202708
v -0.5832171 2.841531 -0.8378273
v -0.4077907 1.274565 -0.7997084
v -0.4037291 1.274565 -0.6740132
v 0.4288554 1.274565 -0.7009102
v 0.4247947 1.274565 -0.8266073
v 0.4247943 1.539603 -0.8266078
v 0.428855 1.539603 -0.7009102
v -0.4037291 1.539603 -0.6740132
v -0.4077909 1.539603 -0.7997084
v 0.3668923 3.813628 -0.9107553
v 0.3765156 3.813628 -0.6128947
v -0.7187164 3.813626 -0.5775101
v -0.7283399 3.813626 -0.8753707
v -0.7587365 3.78019 -0.8736793
v -0.7491587 3.780188 -0.5772354
v 0.3668923 3.813628 -0.9107553
v 0.3982819 4.467261 -0.9117677
v 0.4079049 4.467261 -0.613907
v 0.3765156 3.813628 -0.6128947
v 0.3725694 0.2325027 -0.835784
v 0.3773413 0.2325027 -0.6880732
v 0.7618948 4.467357 -0.6259386
v 0.7523096 4.467357 -0.9226119
v 0.721741 4.500808 -0.9222195
v 0.7313639 4.500808 -0.6243588
v 0.4430847 4.500808 -0.6150438
v 0.4334618 4.500808 -0.9129054
v 0.3982819 4.467261 -0.9117677
v 0.4079049 4.467261 -0.613907
v 0.3532534 3.54859 -0.9103085
v 0.1356301 0.4975421 -0.6802692
v 0.1308579 0.4975421 -0.8279762
v 0.3628762 3.54859 -0.6124646
v -0.3697847 3.548589 -0.8869497
v 0.16785 0.4634006 -0.6476974
v -0.3588503 3.548589 -0.5555331
v 0.4046295 3.64491 -0.5801985
v 0.3655269 0.2466476 -0.6540828
v 0.7490042 4.460517 -0.591324
v 0.3773413 0.2325027 -0.6880732
v 0.7618948 4.467357 -0.6259386
v 0.7313639 4.500808 -0.6243588
v 0.3656868 3.582133 -0.5789401
v 0.4422851 4.460774 -0.5814154
v 0.4430847 4.500808 -0.6150438
v 0.4079049 4.467261 -0.613907
v 0.4095939 3.780041 -0.5803592
v 0.3765156 3.813628 -0.6128947
v -0.6663654 3.780041 -0.5455973
v -0.7187164 3.813626 -0.5775101
v 0.330392 3.54859 -0.5778014
v -0.7113379 3.74803 -0.5449507
v -0.3955919 3.511128 -0.5552694
v -0.1746666 0.4975402 -0.636631
v -0.7491587 3.780188 -0.5772354
v -0.3858222 0.2660072 -0.6298084
v -0.4174622 0.2325027 -0.6623983
v -0.4174622 0.2325027 -0.6623983
v -0.4222343 0.2325027 -0.8101053
v -0.7587365 3.78019 -0.8736793
v -0.7491587 3.780188 -0.5772354
v -3.581804 -0.3101799 -0.4858465
v -0.5688752 -0.1514847 -0.8053646
v -0.5641035 -0.1514847 -0.6576633
v -3.591372 -0.3101799 -0.7820382
v -3.624199 -0.2783635 -0.7818079
v -3.614576 -0.2783635 -0.4839563
v -3.598882 0.4505813 -0.4844637
v -3.608505 0.4505794 -0.7823153
v -2.655976 -0.5084603 -0.7708611
v -2.628584 0.4373634 -0.5539618
v -2.635612 0.4373634 -0.7715197
v -2.648947 -0.5084603 -0.5533051
v -2.651674 0.4378784 -0.5293255
v -2.672037 -0.5079472 -0.528667
v -2.868789 0.4425552 -0.5223107
v -2.889151 -0.5032666 -0.5216537
v -2.89342 0.4430702 -0.5454068
v -2.913783 -0.5027516 -0.5447502
v -2.900449 0.4430702 -0.7629642
v -2.89342 0.4430702 -0.5454068
v -2.913783 -0.5027516 -0.5447502
v -2.920812 -0.5027516 -0.7623053
v -1.349867 -0.3624337 -0.7692728
v -1.345806 -0.3624337 -0.6435757
v -1.327876 0.470391 -0.6441545
v -1.331937 0.470391 -0.7698517
v -1.596774 0.4760997 -0.7612953
v -1.592713 0.4760997 -0.6355982
v -1.610644 -0.3567269 -0.6350188
v -1.614704 -0.3567269 -0.760715
v -0.2921265 0.3960598 -0.8143106
v -0.2873546 0.3960598 -0.6665998
v -4.508381 0.8695209 -0.4556704
v -4.517966 0.8695189 -0.7523442
v -3.608505 0.4505794 -0.7823153
v -3.598882 0.4505813 -0.4844637
v -0.5573971 0.1599853 -0.6578751
v -0.5621691 0.1599853 -0.8055859
v -0.3044718 -0.3989727 -0.6660485
v -0.3092436 -0.3989727 -0.8137541
v -3.863854 -0.6567681 -0.7733617
v -3.854277 -0.6567681 -0.4769172
v -3.887011 -0.6256192 -0.475152
v -3.896634 -0.6256192 -0.7730122
v -3.873049 0.4699295 -0.7737732
v -3.863425 0.4699295 -0.4759121
v -4.515888 0.5154064 -0.454834
v -4.525512 0.5154063 -0.7526937
v -4.548653 0.5513179 -0.4537754
v -4.558276 0.5513179 -0.7516356
v -4.552069 0.8396804 -0.7518368
v -4.542446 0.8396804 -0.4539757
v -4.508381 0.8695209 -0.4556704
v -4.517966 0.8695189 -0.7523442
v 3.512333 -0.3101799 -0.7150388
v 0.4898363 -0.1514847 -0.6917133
v 0.485064 -0.1514847 -0.8394151
v 3.502763 -0.3101799 -1.011232
v 3.535536 -0.2783635 -1.013122
v 3.545159 -0.2783635 -0.715271
v 3.529467 0.4505813 -0.7147627
v 3.519843 0.4505813 -1.012614
v 2.570039 -0.5084603 -0.9397011
v 2.549675 0.4373634 -0.9390426
v 2.556705 0.4373634 -0.7214861
v 2.577068 -0.5084603 -0.7221456
v 2.581337 0.4378765 -0.6983914
v 2.601701 -0.5079473 -0.699049
v 2.798451 0.4425552 -0.7054038
v 2.818814 -0.5032666 -0.7060623
v 2.821542 0.4430702 -0.7300429
v 2.841905 -0.5027516 -0.7307
v 2.814512 0.4430702 -0.9475985
v 2.834875 -0.5027516 -0.9482579
v 2.841905 -0.5027516 -0.7307
v 2.821542 0.4430702 -0.7300429
v 1.266758 -0.3624337 -0.8538089
v 1.248827 0.4703929 -0.8532295
v 1.252888 0.4703929 -0.7275333
v 1.270818 -0.3624337 -0.7281127
v 1.513664 0.4760997 -0.8617859
v 1.531594 -0.3567269 -0.8623648
v 1.535655 -0.3567269 -0.7366686
v 1.517724 0.4760997 -0.7360902
v 0.2083161 0.3960598 -0.8304777
v 4.429343 0.8695189 -1.041408
v 4.438927 0.8695189 -0.7447348
v 0.213088 0.3960598 -0.6827669
v 3.519843 0.4505813 -1.012614
v 0.4783577 0.1599872 -0.8392019
v 0.4831312 0.1599872 -0.691493
v 3.529467 0.4505813 -0.7147627
v 0.2302044 -0.3989727 -0.6833215
v 3.769996 -0.6564649 -1.053516
v 0.2243475 -0.3989727 -0.8646045
v 3.780812 -0.6564763 -0.7236719
v 3.817595 -0.6256192 -0.7240658
v 3.807972 -0.6256192 -1.021926
v 3.784386 0.4699295 -1.021165
v 3.79401 0.4699295 -0.7233052
v 4.446473 0.5154063 -0.7443843
v 4.436851 0.5154063 -1.042246
v 4.479238 0.5513179 -0.7454424
v 4.469614 0.5513179 -1.043303
v 4.463407 0.8396804 -1.043103
v 4.473031 0.8396804 -0.7452436
v 4.438927 0.8695189 -0.7447348
v 4.429343 0.8695189 -1.041408
v 0.4100006 -3.531425 -0.6148108
v 0.1616178 -0.5152257 -0.8289633
v 0.1663902 -0.5152256 -0.6812634
v 0.4004319 -3.531425 -0.9110039
v 0.3695142 -3.565099 -0.9108346
v 0.3791372 -3.565099 -0.6129845
v -0.3495812 -3.569354 -0.5894411
v -0.3592034 -3.569354 -0.8872922
v 0.5743055 -2.5918 -0.875224
v 0.5813346 -2.5918 -0.6576675
v -0.3641988 -2.597321 -0.6271199
v -0.3712276 -2.59732 -0.8446764
v -0.3696817 -2.862352 -0.8447269
v -0.3626531 -2.862352 -0.6271695
v 0.5828804 -2.856832 -0.6577171
v 0.5758513 -2.856832 -0.8752741
v 0.3941143 -1.29091 -0.8256163
v 0.3981751 -1.29091 -0.6999192
v -0.4343953 -1.295771 -0.6730217
v -0.4384558 -1.295771 -0.7987179
v -0.4369105 -1.560802 -0.7987675
v -0.4328496 -1.560802 -0.6730713
v 0.3997217 -1.555942 -0.6999692
v 0.3956597 -1.555942 -0.8256664
v -0.3930105 -0.253423 -0.8110514
v -0.388239 -0.253423 -0.6633406
v -0.7432721 -4.490434 -0.5773113
v -0.7528565 -4.490435 -0.8739846
v -0.3592034 -3.569354 -0.8872922
v -0.3495812 -3.569354 -0.5894411
v -0.1449866 -0.5170453 -0.6711988
v -0.1497581 -0.5170453 -0.8189092
v 0.4065508 -0.2487824 -0.6890187
v 0.4017792 -0.2487824 -0.8367262
v 0.7541628 -3.794458 -0.9225577
v 0.7637393 -3.794458 -0.6261137
v 0.7335389 -3.828072 -0.6244286
v 0.7239165 -3.828072 -0.9222892
v -0.3712972 -3.834466 -0.8869064
v -0.3616737 -3.834466 -0.5890458
v -0.389251 -4.48827 -0.5881546
v -0.3988742 -4.48827 -0.8860143
v -0.4242344 -4.522021 -0.5870245
v -0.4338579 -4.522022 -0.8848851
v -0.7221318 -4.523705 -0.875572
v -0.7125086 -4.523705 -0.5777114
v -0.7432721 -4.490434 -0.5773113
v -0.7528565 -4.490435 -0.8739846
v 3.807972 -0.6256192 -1.021926
v 3.771884 -0.5592626 -1.054365
v 3.769996 -0.6564649 -1.053516
v 3.749053 0.5012099 -1.053627
v 3.784386 0.4699295 -1.021165
v 4.428567 0.5485713 -1.07558
v 4.436851 0.5154063 -1.042246
v 4.469614 0.5513179 -1.043303
v 4.421705 0.855374 -1.075359
v 4.463407 0.8396804 -1.043103
v 4.429343 0.8695189 -1.041408
v 0.221643 0.3834617 -0.8645172
v 0.2083161 0.3960598 -0.8304777
v -0.7224316 3.741202 -0.9082167
v -0.4222343 0.2325027 -0.8101053
v -0.3927636 0.2660072 -0.8446674
v -0.7587365 3.78019 -0.8736793
v -0.7283399 3.813626 -0.8753707
v -0.6623635 3.780041 -0.9111049
v 0.3978023 3.780041 -0.9453565
v 0.3668923 3.813628 -0.9107553
v 0.430493 4.460774 -0.9464127
v 0.3982819 4.467261 -0.9117677
v 0.4334618 4.500808 -0.9129054
v 0.737213 4.460517 -0.9563219
v 0.721741 4.500808 -0.9222195
v 0.7523096 4.467357 -0.9226119
v 0.3585855 0.2466476 -0.8689418
v 0.3725694 0.2325027 -0.835784
v -0.4062517 3.511281 -0.8848469
v -0.2127301 0.463414 -0.8504839
v -0.1805235 0.4975402 -0.8179102
v -0.4424371 3.530907 -0.9171149
v -0.407638 3.588715 -0.9193341
v -0.3697847 3.548589 -0.8869497
v 0.3532534 3.54859 -0.9103085
v 0.369221 3.588977 -0.9444324
v 0.1308579 0.4975421 -0.8279762
v 0.1435243 0.4824626 -0.8619938
v -0.3955919 3.511128 -0.5552694
v -0.3588503 3.548589 -0.5555331
v -0.3697847 3.548589 -0.8869497
v -0.4062517 3.511281 -0.8848469
v -0.3362081 -0.3676884 -0.6314125
v -0.3044718 -0.3989727 -0.6660485
v -3.854277 -0.6567681 -0.4769172
v -3.813439 -0.6202137 -0.4448728
v -0.5295887 -0.1833508 -0.625165
v -3.887011 -0.6256192 -0.475152
v -3.597279 -0.3446724 -0.452003
v -0.5641035 -0.1514847 -0.6576633
v -3.581804 -0.3101799 -0.4858465
v -3.654256 -0.3085854 -0.4490662
v -3.614576 -0.2783635 -0.4839563
v -3.850922 -0.5592625 -0.4427132
v -3.863425 0.4699295 -0.4759121
v -3.82809 0.5012081 -0.4434519
v -4.515888 0.5154064 -0.454834
v -3.637785 0.4685066 -0.4495988
v -3.598882 0.4505813 -0.4844637
v -4.507607 0.5485713 -0.4214979
v -4.548653 0.5513179 -0.4537754
v -4.542446 0.8396804 -0.4539757
v -4.500744 0.8553741 -0.4217205
v -4.508381 0.8695209 -0.4556704
v -0.2873546 0.3960598 -0.6665998
v -0.3006815 0.3834617 -0.6325607
v -0.5409503 0.1734169 -0.6247973
v -0.5573971 0.1599853 -0.6578751
v -3.825171 -0.6202138 -0.8079748
v -0.3092436 -0.3989727 -0.8137541
v -0.3431501 -0.3676884 -0.8462701
v -3.863854 -0.6567681 -0.7733617
v -3.896634 -0.6256192 -0.7730122
v -3.862715 -0.5592626 -0.8077106
v -3.839883 0.501208 -0.8084483
v -3.873049 0.4699295 -0.7737732
v -4.519399 0.5485713 -0.7864943
v -4.525512 0.5154063 -0.7526937
v -4.558276 0.5513179 -0.7516356
v -4.512536 0.855374 -0.7867165
v -4.552069 0.8396804 -0.7518368
v -4.517966 0.8695189 -0.7523442
v -0.3076235 0.3834617 -0.8474178
v -0.2921265 0.3960598 -0.8143106
v -3.591372 -0.3101799 -0.7820382
v -0.53653 -0.1833508 -0.840023
v -0.5688752 -0.1514847 -0.8053646
v -3.608998 -0.3446743 -0.8148127
v -3.666047 -0.3085854 -0.814065
v -3.624199 -0.2783635 -0.7818079
v -3.608505 0.4505794 -0.7823153
v -3.649578 0.4685047 -0.8145962
v -0.5621691 0.1599853 -0.8055859
v -0.5478916 0.1734169 -0.8396564
v 0.2641096 -0.3676865 -0.6508064
v 3.780812 -0.6564763 -0.7236719
v 0.2302044 -0.3989727 -0.6833215
v 3.746131 -0.6202138 -0.6891022
v 0.4574906 -0.1833508 -0.6570544
v 3.817595 -0.6256192 -0.7240658
v 3.529959 -0.3446724 -0.6822643
v 0.4898363 -0.1514847 -0.6917133
v 3.512333 -0.3101799 -0.7150388
v 3.587007 -0.3085835 -0.6830149
v 3.545159 -0.2783635 -0.715271
v 3.783675 -0.5592626 -0.6893673
v 3.79401 0.4699295 -0.7233052
v 3.760844 0.5012099 -0.6886296
v 4.446473 0.5154063 -0.7443843
v 3.570539 0.4685066 -0.6824808
v 3.529467 0.4505813 -0.7147627
v 4.440362 0.5485713 -0.7105842
v 4.479238 0.5513179 -0.7454424
v 4.473031 0.8396804 -0.7452436
v 4.433497 0.855374 -0.7103625
v 4.438927 0.8695189 -0.7447348
v 0.213088 0.3960598 -0.6827669
v 0.228584 0.3834617 -0.6496587
v 0.4688526 0.1734169 -0.6574216
v 0.4831312 0.1599872 -0.691493
v 3.502763 -0.3101799 -1.011232
v 0.485064 -0.1514847 -0.8394151
v 0.4505501 -0.1833508 -0.871913
v 3.525413 -0.3450501 -1.045485
v 3.575216 -0.3085835 -1.048011
v 3.535536 -0.2783635 -1.013122
v 3.519843 0.4505813 -1.012614
v 3.558747 0.4685065 -1.047478
v 0.4783577 0.1599872 -0.8392019
v 0.4619108 0.1734168 -0.8722796
v 0.3772756 -0.2824643 -0.6544638
v 0.4065508 -0.2487824 -0.6890187
v 0.7637393 -3.794458 -0.6261137
v 0.7272077 -3.755691 -0.5915702
v 0.1983974 -0.4809201 -0.6486835
v 0.7335389 -3.828072 -0.6244286
v 0.445993 -3.547033 -0.58263
v 0.1663902 -0.5152256 -0.6812634
v 0.4100006 -3.531425 -0.6148108
v 0.4115319 -3.605043 -0.5804222
v 0.3791372 -3.565099 -0.6129845
v 0.6673689 -3.794879 -0.5886882
v -0.3616737 -3.834466 -0.5890458
v -0.3927791 -3.801069 -0.554437
v -0.389251 -4.48827 -0.5881546
v -0.3653132 -3.60984 -0.5553253
v -0.3495812 -3.569354 -0.5894411
v -0.4214991 -4.481978 -0.5535091
v -0.4242344 -4.522021 -0.5870245
v -0.7125086 -4.523705 -0.5777114
v -0.7282153 -4.483512 -0.5435999
v -0.7432721 -4.490434 -0.5773113
v -0.388239 -0.253423 -0.6633406
v -0.3741728 -0.2674916 -0.6301851
v -0.1577396 -0.5020478 -0.6371779
v -0.1449866 -0.5170453 -0.6711988
v 0.7154769 -3.755691 -0.9546731
v 0.4017792 -0.2487824 -0.8367262
v 0.3703344 -0.2824643 -0.8693209
v 0.7541628 -3.794458 -0.9225577
v 0.7239165 -3.828072 -0.9222892
v 0.6555769 -3.794879 -0.9536846
v -0.4045707 -3.801069 -0.9194344
v -0.3712972 -3.834466 -0.8869064
v -0.4332915 -4.481979 -0.9185074
v -0.3988742 -4.48827 -0.8860143
v -0.4338579 -4.522022 -0.8848851
v -0.7400073 -4.483513 -0.9085963
v -0.7221318 -4.523705 -0.875572
v -0.7528565 -4.490435 -0.8739846
v -0.3811142 -0.2674916 -0.8450441
v -0.3930105 -0.253423 -0.8110514
v 0.4004319 -3.531425 -0.9110039
v 0.1914561 -0.4809201 -0.8635416
v 0.1616178 -0.5152257 -0.8289633
v 0.4342721 -3.547033 -0.9454401
v 0.39974 -3.605043 -0.9454196
v 0.3695142 -3.565099 -0.9108346
v -0.3592034 -3.569354 -0.8872922
v -0.3771053 -3.60984 -0.9203208
v -0.1497581 -0.5170453 -0.8189092
v -0.1646807 -0.5020478 -0.8520365
v -0.3955919 3.511128 -0.5552694
v -0.4062517 3.511281 -0.8848469
v -0.1805235 0.4975402 -0.8179102
v -0.1746666 0.4975402 -0.636631
v 0.361562 2.817651 -0.8922426
v 0.3623333 2.841531 -0.8683759
v -0.5832171 2.841531 -0.8378273
v -0.5839884 2.817651 -0.861694
v 0.3623333 2.576495 -0.8683759
v 0.3615616 2.600375 -0.892243
v -0.5839881 2.600373 -0.8616935
v -0.5832171 2.576495 -0.8378273
v 0.3693612 2.841531 -0.6508185
v -0.5754172 2.817651 -0.5964032
v -0.5761886 2.841531 -0.6202708
v 0.3701327 2.817651 -0.6269523
v -0.5754176 2.600373 -0.5964037
v 0.3701327 2.600375 -0.6269523
v -0.5761883 2.576495 -0.6202708
v 0.3693616 2.576495 -0.650818
v 0.4240234 1.515723 -0.8504739
v 0.4247943 1.539603 -0.8266078
v -0.4077909 1.539603 -0.7997084
v -0.4085611 1.515723 -0.823576
v 0.4247947 1.274565 -0.8266073
v 0.4240235 1.298445 -0.8504739
v -0.4085609 1.298445 -0.8235756
v -0.4077907 1.274565 -0.7997084
v 0.428855 1.539603 -0.7009102
v -0.4029577 1.515723 -0.6501451
v -0.4037291 1.539603 -0.6740132
v 0.4296262 1.515723 -0.6770435
v -0.4029582 1.298445 -0.6501456
v 0.4296262 1.298445 -0.6770435
v -0.4037291 1.274565 -0.6740132
v 0.4288554 1.274565 -0.7009102
v -2.877359 0.4425552 -0.7876005
v -2.900449 0.4430702 -0.7629642
v -2.920812 -0.5027516 -0.7623053
v -2.897722 -0.5032666 -0.7869425
v -2.635612 0.4373634 -0.7715197
v -2.660244 0.4378784 -0.7946153
v -2.680608 -0.5079473 -0.7939577
v -2.655976 -0.5084603 -0.7708611
v -1.573684 0.4755847 -0.7859335
v -1.596774 0.4760997 -0.7612953
v -1.614704 -0.3567269 -0.760715
v -1.591614 -0.3572419 -0.7853537
v -1.331937 0.470391 -0.7698517
v -1.356569 0.470906 -0.7929463
v -1.3745 -0.3619206 -0.7923689
v -1.349867 -0.3624337 -0.7692728
v -1.592713 0.4760997 -0.6355982
v -1.586011 -0.3572419 -0.6119242
v -1.610644 -0.3567269 -0.6350188
v -1.568081 0.4755847 -0.6125021
v -1.368897 -0.3619206 -0.6189375
v -1.350966 0.470906 -0.6195183
v -1.345806 -0.3624337 -0.6435757
v -1.327876 0.470391 -0.6441545
v 2.789881 0.4425552 -0.9706945
v 2.810243 -0.5032666 -0.9713535
v 2.834875 -0.5027516 -0.9482579
v 2.814512 0.4430702 -0.9475985
v 2.549675 0.4373634 -0.9390426
v 2.570039 -0.5084603 -0.9397011
v 2.593129 -0.5079473 -0.9643393
v 2.572766 0.4378765 -0.9636807
v 1.489032 0.4755847 -0.8848815
v 1.506962 -0.3572419 -0.8854618
v 1.531594 -0.3567269 -0.8623648
v 1.513664 0.4760997 -0.8617859
v 1.248827 0.4703929 -0.8532295
v 1.266758 -0.3624337 -0.8538089
v 1.289847 -0.3619206 -0.8784466
v 1.271917 0.470906 -0.8778677
v 1.517724 0.4760997 -0.7360902
v 1.535655 -0.3567269 -0.7366686
v 1.512565 -0.3572419 -0.7120299
v 1.494635 0.4755847 -0.7114515
v 1.29545 -0.3619206 -0.7050161
v 1.27752 0.470906 -0.7044373
v 1.270818 -0.3624337 -0.7281127
v 1.252888 0.4703929 -0.7275333
v -0.3705921 -2.838474 -0.8685893
v -0.3696817 -2.862352 -0.8447269
v 0.5758513 -2.856832 -0.8752741
v 0.5749409 -2.832953 -0.8991359
v -0.3712276 -2.59732 -0.8446764
v -0.3718596 -2.621199 -0.8685468
v 0.5736738 -2.615678 -0.8990964
v 0.5743055 -2.5918 -0.875224
v -0.3626531 -2.862352 -0.6271695
v 0.5835118 -2.832953 -0.6338476
v 0.5828804 -2.856832 -0.6577171
v -0.3620213 -2.838474 -0.6032981
v 0.5822446 -2.615678 -0.6338052
v -0.3632888 -2.6212 -0.6032575
v 0.5813346 -2.5918 -0.6576675
v -0.3641988 -2.597321 -0.6271199
v -0.4378205 -1.536924 -0.8226299
v -0.4369105 -1.560802 -0.7987675
v 0.3956597 -1.555942 -0.8256664
v 0.3947501 -1.532064 -0.8495283
v -0.4384558 -1.295771 -0.7987179
v -0.4390875 -1.31965 -0.8225893
v 0.3934832 -1.314788 -0.8494877
v 0.3941143 -1.29091 -0.8256163
v -0.4328496 -1.560802 -0.6730713
v 0.4003526 -1.532064 -0.6760973
v 0.3997217 -1.555942 -0.6999692
v -0.4322165 -1.536924 -0.6492004
v 0.3990859 -1.314788 -0.6760573
v -0.4334847 -1.31965 -0.6491589
v 0.3981751 -1.29091 -0.6999192
v -0.4343953 -1.295771 -0.6730217
v -0.1210732 0.2087162 -0.01573516
v -0.1064349 0.1844471 0.003437988
v -0.1843503 0.1064918 0.005955691
v -0.2092413 0.1205032 -0.01288653
v -0.0006344616 0.2410038 -0.01962567
v -0.212869 7.44022E-07 0.006877422
v -0.2415132 7.432037E-07 -0.01184368
v -0.1843505 -0.1064884 0.005955701
v -0.2092413 -0.1205017 -0.01288652
v -0.1064342 -0.1844456 0.003438481
v -0.1210729 -0.2087147 -0.01573514
v 5.960464E-08 0.2129791 -9.309622E-09
v 0.1198048 0.2087162 -0.02351714
v 2.980232E-07 -0.2129795 9.309622E-09
v -0.0006344616 -0.2410042 -0.01962565
v 0.1064348 -0.1844456 -0.003437988
v 0.1198053 -0.2087147 -0.02351712
v 0.1064352 0.1844452 -0.003438004
v 0.2079728 0.1205032 -0.02636576
v 0.1843496 -0.1064884 -0.005955215
v 0.2079728 -0.1205017 -0.02636575
v 0.1843496 0.1064918 -0.005955224
v 0.2402442 7.425234E-07 -0.02740765
v 0.2128692 7.434207E-07 -0.006877422
v -0.2615125 0.43097 -0.3888207
v -0.2501575 0.4124496 -0.3685217
v -0.4243898 0.2381294 -0.3628922
v -0.443567 0.2488201 -0.3829398
v -0.01282151 0.4976413 -0.3968544
v -0.4881624 7.279489E-07 -0.3608327
v -0.5102037 7.270767E-07 -0.3807874
v -0.01215434 0.476258 -0.3762107
v 0.2358697 0.43097 -0.404891
v -0.4243898 -0.2381279 -0.3628922
v -0.443567 -0.2488205 -0.3829398
v 0.2258493 0.4124515 -0.3838988
v 0.4179242 0.248822 -0.4107728
v -0.2501576 -0.4124501 -0.3685217
v -0.261513 -0.4309704 -0.3888206
v 0.4000803 0.2381294 -0.3895283
v 0.4845602 7.256718E-07 -0.4129262
v -0.0121544 -0.4762547 -0.3762102
v -0.01282176 -0.4976399 -0.3968544
v 0.4638536 7.266045E-07 -0.3915892
v 0.4179246 -0.2488205 -0.4107728
v 0.2258496 -0.4124501 -0.3838997
v 0.2358696 -0.4309685 -0.404891
v 0.4000804 -0.2381279 -0.3895283
v -0.1928725 -0.3131764 -0.3703718
v -0.0121544 -0.361623 -0.3762102
v -0.3251674 -0.1808121 -0.366097
v 0.1685637 -0.3131764 -0.3820491
v 0.3008583 -0.1808121 -0.386322
v -0.3735906 7.277872E-07 -0.3645329
v 0.3492812 7.267664E-07 -0.387886
v 0.3008583 0.1808136 -0.386322
v -0.3251677 0.1808136 -0.366097
v 0.1685635 0.3131759 -0.3820491
v -0.1928727 0.3131759 -0.3703718
v -0.01215434 0.3616245 -0.3762107
v -0.3419034 0.5602825 -0.5650215
v -0.3305496 0.5417621 -0.5447206
v -0.5594051 0.3127887 -0.5373278
v -0.5785832 0.3234813 -0.557375
v -0.01859194 0.64696 -0.5754671
v -0.6431732 7.203523E-07 -0.5346222
v -0.6652143 7.194801E-07 -0.5545764
v -0.01792526 0.6255748 -0.5548215
v 0.3047187 0.5602825 -0.5859122
v -0.5594057 -0.3127873 -0.5373278
v -0.5785832 -0.3234799 -0.557375
v 0.2946991 0.541764 -0.5649209
v 0.541399 0.3234813 -0.5935588
v -0.3305492 -0.5417626 -0.5447206
v -0.3419038 -0.5602829 -0.5650225
v 0.5235556 0.3127887 -0.5723147
v 0.6280304 7.176537E-07 -0.5963593
v -0.01792553 -0.6255734 -0.5548215
v -0.01859219 -0.6469586 -0.5754671
v 0.6073231 7.185864E-07 -0.5750217
v 0.5413989 -0.323478 -0.5935583
v 0.2946995 -0.5417626 -0.5649204
v 0.3047192 -0.5602829 -0.5859122
v 0.5235555 -0.3127873 -0.5723147
v -0.2666162 -0.4309704 -0.5467863
v -0.01792553 -0.4976399 -0.5548215
v -0.4486701 -0.2488205 -0.5409055
v 0.2307665 -0.4309685 -0.5628557
v 0.4128206 -0.2488205 -0.568738
v -0.5153063 7.201718E-07 -0.5387526
v 0.4794566 7.18767E-07 -0.5708909
v 0.4128201 0.248822 -0.568738
v -0.4486703 0.2488201 -0.540906
v 0.2307661 0.43097 -0.5628562
v -0.2666157 0.43097 -0.5467868
v -0.01792526 0.4976413 -0.5548215
v -0.5898921 0.3234813 -0.9074049
v -0.3431915 0.5417621 -0.9360428
v -0.3532116 0.5602824 -0.9150519
v -0.5720487 0.3127887 -0.9286485
v -0.03056747 0.6255729 -0.9461417
v -0.6765224 7.041798E-07 -0.9046059
v -0.02990058 0.64696 -0.9254961
v -0.6558154 7.032472E-07 -0.9259424
v 0.2820568 0.541764 -0.9562435
v -0.589892 -0.3234799 -0.9074044
v 0.2934107 0.5602824 -0.9359417
v -0.5720488 -0.3127873 -0.928648
v 0.5109133 0.3127887 -0.9636364
v -0.3532117 -0.560283 -0.9150515
v 0.5300909 0.3234813 -0.9435892
v -0.3431916 -0.5417627 -0.9360428
v 0.5946812 7.014812E-07 -0.9663429
v -0.02990037 -0.6469606 -0.9254956
v 0.6167212 7.023535E-07 -0.9463873
v -0.03056774 -0.6255735 -0.9461417
v 0.5109132 -0.3127873 -0.9636359
v 0.2934107 -0.560283 -0.9359417
v 0.5300904 -0.323478 -0.9435892
v 0.2820565 -0.5417627 -0.9562435
v -0.1928725 -0.3131764 -0.3703718
v -0.1210729 -0.2087147 -0.01573514
v -0.0006344616 -0.2410042 -0.01962565
v -0.0121544 -0.361623 -0.3762102
v -0.3251674 -0.1808121 -0.366097
v 0.1198053 -0.2087147 -0.02351712
v -0.2092413 -0.1205017 -0.01288652
v 0.1685637 -0.3131764 -0.3820491
v -0.3735906 7.277872E-07 -0.3645329
v 0.2079728 -0.1205017 -0.02636575
v -0.2415132 7.432037E-07 -0.01184368
v 0.3008583 -0.1808121 -0.386322
v -0.3251677 0.1808136 -0.366097
v 0.2402442 7.425234E-07 -0.02740765
v -0.2092413 0.1205032 -0.01288653
v 0.3492812 7.267664E-07 -0.387886
v -0.1928727 0.3131759 -0.3703718
v 0.2079728 0.1205032 -0.02636576
v -0.1210732 0.2087162 -0.01573516
v 0.3008583 0.1808136 -0.386322
v -0.01215434 0.3616245 -0.3762107
v 0.1198048 0.2087162 -0.02351714
v -0.0006344616 0.2410038 -0.01962567
v 0.1685635 0.3131759 -0.3820491
v -0.2666157 0.43097 -0.5467868
v -0.2615125 0.43097 -0.3888207
v -0.443567 0.2488201 -0.3829398
v -0.4486703 0.2488201 -0.540906
v -0.01792526 0.4976413 -0.5548215
v -0.5102037 7.270767E-07 -0.3807874
v -0.01282151 0.4976413 -0.3968544
v -0.5153063 7.201718E-07 -0.5387526
v 0.2307661 0.43097 -0.5628562
v -0.443567 -0.2488205 -0.3829398
v 0.2358697 0.43097 -0.404891
v -0.4486701 -0.2488205 -0.5409055
v 0.4128201 0.248822 -0.568738
v -0.261513 -0.4309704 -0.3888206
v 0.4179242 0.248822 -0.4107728
v -0.2666162 -0.4309704 -0.5467863
v 0.4794566 7.18767E-07 -0.5708909
v -0.01282176 -0.4976399 -0.3968544
v 0.4845602 7.256718E-07 -0.4129262
v -0.01792553 -0.4976399 -0.5548215
v 0.4128206 -0.2488205 -0.568738
v 0.2358696 -0.4309685 -0.404891
v 0.4179246 -0.2488205 -0.4107728
v 0.2307665 -0.4309685 -0.5628557
v -0.3532116 0.5602824 -0.9150519
v -0.02990058 0.64696 -0.9254961
v -0.01859194 0.64696 -0.5754671
v -0.3419034 0.5602825 -0.5650215
v 0.3047187 0.5602825 -0.5859122
v -0.5898921 0.3234813 -0.9074049
v 0.2934107 0.5602824 -0.9359417
v -0.5785832 0.3234813 -0.557375
v 0.541399 0.3234813 -0.5935588
v -0.6765224 7.041798E-07 -0.9046059
v 0.5300909 0.3234813 -0.9435892
v -0.6652143 7.194801E-07 -0.5545764
v 0.6280304 7.176537E-07 -0.5963593
v -0.589892 -0.3234799 -0.9074044
v 0.6167212 7.023535E-07 -0.9463873
v -0.5785832 -0.3234799 -0.557375
v 0.5413989 -0.323478 -0.5935583
v -0.3532117 -0.560283 -0.9150515
v 0.5300904 -0.323478 -0.9435892
v -0.3419038 -0.5602829 -0.5650225
v 0.3047192 -0.5602829 -0.5859122
v -0.02990037 -0.6469606 -0.9254956
v 0.2934107 -0.560283 -0.9359417
v -0.01859219 -0.6469586 -0.5754671
vt 0.8857422 0.8154297
vt 0.8857422 0.8154297
vt 0.8857422 0.8154297
vt 0.8857422 0.8154297
vt 0.8857422 0.8154297
vt 0.8857422 0.8154297
vt 0.8857422 0.8154297
vt 0.8857422 0.8154297
vt 0.8857422 0.8154297
vt 0.8857422 0.8154297
vt 0.8857422 0.8154297
vt 0.8857422 0.8154297
vt 0.8857422 0.8149414
vt 0.8857422 0.8154297
vt 0.8857422 0.8154297
vt 0.8857422 0.8154297
vt 0.8857422 0.8154297
vt 0.8857422 0.8154297
vt 0.8862305 0.8154297
vt 0.8857422 0.8154297
vt 0.8857422 0.8154297
vt 0.8857422 0.8154297
vt 0.8857422 0.8154297
vt 0.8857422 0.8154297
vt 0.8857422 0.8154297
vt 0.8857422 0.8154297
vt 0.8857422 0.8154297
vt 0.8857422 0.8154297
vt 0.8422852 0.8154297
vt 0.8422852 0.815918
vt 0.7563477 0.815918
vt 0.7563477 0.8154297
vt 0.7563477 0.8164063
vt 0.7563477 0.8164063
vt 0.8422852 0.8164063
vt 0.8422852 0.8164063
vt 0.8422852 0.8154297
vt 0.8422852 0.8154297
vt 0.7563477 0.8154297
vt 0.7563477 0.8154297
vt 0.7563477 0.8164063
vt 0.7563477 0.8164063
vt 0.8422852 0.8164063
vt 0.8422852 0.8164063
vt 0.8100586 0.8154297
vt 0.8100586 0.8154297
vt 0.7875977 0.8154297
vt 0.7875977 0.8154297
vt 0.7866211 0.8154297
vt 0.7871094 0.8154297
vt 0.8100586 0.8154297
vt 0.8105469 0.8154297
vt 0.8110352 0.8154297
vt 0.8100586 0.8154297
vt 0.8095703 0.8149414
vt 0.8100586 0.8149414
vt 0.8183594 0.8154297
vt 0.8178711 0.8154297
vt 0.8173828 0.8154297
vt 0.8178711 0.8154297
vt 0.8115234 0.8154297
vt 0.8110352 0.8154297
vt 0.8105469 0.8154297
vt 0.8110352 0.8154297
vt 0.8095703 0.8681641
vt 0.8051758 0.8129883
vt 0.8046875 0.8129883
vt 0.8100586 0.8691406
vt 0.7949219 0.8686523
vt 0.8056641 0.8129883
vt 0.7949219 0.8691406
vt 0.8110352 0.8710938
vt 0.8095703 0.8129883
vt 0.8178711 0.8881836
vt 0.8100586 0.8129883
vt 0.8183594 0.8881836
vt 0.8178711 0.8891602
vt 0.8100586 0.8696289
vt 0.8115234 0.8881836
vt 0.8115234 0.8891602
vt 0.8110352 0.8881836
vt 0.8110352 0.8740234
vt 0.8100586 0.8745117
vt 0.7885742 0.8740234
vt 0.7875977 0.8745117
vt 0.809082 0.8691406
vt 0.7875977 0.8730469
vt 0.7944336 0.8681641
vt 0.7988281 0.8129883
vt 0.7871094 0.8740234
vt 0.7944336 0.8129883
vt 0.7939453 0.8129883
vt 0.7939453 0.8149414
vt 0.793457 0.8149414
vt 0.7866211 0.8154297
vt 0.7871094 0.8154297
vt 0.7944336 0.8154297
vt 0.7988281 0.8149414
vt 0.7988281 0.8149414
vt 0.7944336 0.8154297
vt 0.7954102 0.8154297
vt 0.7949219 0.8154297
vt 0.8095703 0.8154297
vt 0.8100586 0.8154297
vt 0.7875977 0.9003906
vt 0.7890625 0.8144531
vt 0.7875977 0.8144531
vt 0.7890625 0.9003906
vt 0.7915039 0.8144531
vt 0.7915039 0.9003906
vt 0.8100586 0.8144531
vt 0.8100586 0.9003906
vt 0.8120117 0.8144531
vt 0.8120117 0.9003906
vt 0.7563477 0.8164063
vt 0.7563477 0.8164063
vt 0.8422852 0.8164063
vt 0.8422852 0.8164063
vt 0.8422852 0.8154297
vt 0.8422852 0.815918
vt 0.7563477 0.8154297
vt 0.7563477 0.8154297
vt 0.7563477 0.8164063
vt 0.7563477 0.8164063
vt 0.8422852 0.8164063
vt 0.8422852 0.8164063
vt 0.8100586 0.8149414
vt 0.8100586 0.8149414
vt 0.8178711 0.8154297
vt 0.8183594 0.8154297
vt 0.8100586 0.8154297
vt 0.8095703 0.8154297
vt 0.8051758 0.8149414
vt 0.8051758 0.8149414
vt 0.7939453 0.8149414
vt 0.7939453 0.8149414
vt 0.7875977 0.8154297
vt 0.7871094 0.8154297
vt 0.7875977 0.8154297
vt 0.7880859 0.8154297
vt 0.8105469 0.8154297
vt 0.8100586 0.8154297
vt 0.8105469 0.8154297
vt 0.8110352 0.8154297
vt 0.8115234 0.8154297
vt 0.8115234 0.8154297
vt 0.8173828 0.8154297
vt 0.8173828 0.8154297
vt 0.8178711 0.8154297
vt 0.8183594 0.8154297
vt 0.7944336 0.8154297
vt 0.7988281 0.8149414
vt 0.7988281 0.8149414
vt 0.7949219 0.8154297
vt 0.7954102 0.8154297
vt 0.7949219 0.8154297
vt 0.8100586 0.8154297
vt 0.8100586 0.8154297
vt 0.8129883 0.9003906
vt 0.8134766 0.8144531
vt 0.8095703 0.8144531
vt 0.809082 0.9003906
vt 0.8066406 0.8144531
vt 0.8066406 0.9003906
vt 0.7875977 0.8144531
vt 0.7871094 0.9003906
vt 0.7856445 0.8144531
vt 0.7856445 0.9003906
vt 0.7563477 0.815918
vt 0.8422852 0.815918
vt 0.8422852 0.8154297
vt 0.7563477 0.8154297
vt 0.8422852 0.8164063
vt 0.7563477 0.8164063
vt 0.7563477 0.8164063
vt 0.8422852 0.8164063
vt 0.7563477 0.815918
vt 0.8422852 0.8154297
vt 0.8422852 0.8154297
vt 0.7563477 0.8154297
vt 0.8100586 0.8149414
vt 0.8183594 0.8154297
vt 0.8183594 0.8154297
vt 0.8100586 0.8149414
vt 0.8100586 0.8154297
vt 0.8051758 0.8149414
vt 0.8051758 0.8149414
vt 0.8100586 0.8154297
vt 0.7939453 0.8149414
vt 0.7880859 0.8154297
vt 0.7939453 0.8149414
vt 0.7875977 0.8154297
vt 0.7880859 0.8154297
vt 0.7885742 0.8154297
vt 0.8105469 0.8154297
vt 0.8100586 0.8154297
vt 0.8110352 0.8154297
vt 0.8110352 0.8154297
vt 0.8115234 0.8154297
vt 0.8120117 0.8154297
vt 0.8178711 0.8154297
vt 0.8173828 0.8154297
vt 0.8183594 0.8154297
vt 0.8183594 0.8154297
vt 0.7949219 0.8154297
vt 0.7983398 0.8149414
vt 0.7983398 0.8149414
vt 0.7949219 0.8154297
vt 0.7958984 0.8154297
vt 0.7954102 0.8154297
vt 0.8100586 0.8154297
vt 0.8100586 0.8154297
vt 0.7563477 0.8164063
vt 0.7563477 0.8164063
vt 0.8422852 0.8164063
vt 0.8422852 0.8164063
vt 0.8422852 0.815918
vt 0.8422852 0.8154297
vt 0.7563477 0.8154297
vt 0.7563477 0.815918
vt 0.7563477 0.8164063
vt 0.7563477 0.8164063
vt 0.8422852 0.8164063
vt 0.8422852 0.8164063
vt 0.8422852 0.8154297
vt 0.8422852 0.8154297
vt 0.7563477 0.8154297
vt 0.7563477 0.8154297
vt 0.8095703 0.8149414
vt 0.8095703 0.8149414
vt 0.8183594 0.8154297
vt 0.8183594 0.8154297
vt 0.8100586 0.8154297
vt 0.8100586 0.8154297
vt 0.8046875 0.8149414
vt 0.8046875 0.8149414
vt 0.793457 0.8149414
vt 0.793457 0.8149414
vt 0.7880859 0.8154297
vt 0.7875977 0.8154297
vt 0.7880859 0.8154297
vt 0.7885742 0.8154297
vt 0.8105469 0.8154297
vt 0.8105469 0.8154297
vt 0.8110352 0.8154297
vt 0.8110352 0.8154297
vt 0.8120117 0.8154297
vt 0.8120117 0.8154297
vt 0.8178711 0.8154297
vt 0.8178711 0.8154297
vt 0.8183594 0.8154297
vt 0.8183594 0.8154297
vt 0.7885742 0.8730469
vt 0.7900391 0.8720703
vt 0.7880859 0.8720703
vt 0.8110352 0.8725586
vt 0.8105469 0.8730469
vt 0.8120117 0.8862305
vt 0.8110352 0.8862305
vt 0.8120117 0.887207
vt 0.8178711 0.8862305
vt 0.8178711 0.887207
vt 0.8183594 0.8862305
vt 0.8095703 0.8129883
vt 0.8100586 0.8129883
vt 0.7875977 0.8725586
vt 0.793457 0.8129883
vt 0.7944336 0.8129883
vt 0.7866211 0.8730469
vt 0.7875977 0.8740234
vt 0.7885742 0.8730469
vt 0.8105469 0.8730469
vt 0.8100586 0.8740234
vt 0.8110352 0.887207
vt 0.8105469 0.887207
vt 0.8110352 0.8881836
vt 0.8173828 0.887207
vt 0.8173828 0.8881836
vt 0.8178711 0.887207
vt 0.8095703 0.8129883
vt 0.8095703 0.8129883
vt 0.7939453 0.8676758
vt 0.7978516 0.8129883
vt 0.7983398 0.8129883
vt 0.793457 0.8681641
vt 0.7939453 0.8691406
vt 0.7949219 0.8686523
vt 0.8095703 0.8681641
vt 0.8100586 0.8691406
vt 0.8046875 0.8129883
vt 0.8051758 0.8129883
vt 0.7944336 0.8154297
vt 0.7949219 0.8154297
vt 0.7949219 0.8154297
vt 0.7939453 0.8154297
vt 0.7944336 0.8129883
vt 0.7939453 0.8129883
vt 0.7871094 0.8730469
vt 0.7875977 0.8725586
vt 0.7978516 0.8129883
vt 0.7875977 0.8735352
vt 0.793457 0.8681641
vt 0.7988281 0.8129883
vt 0.7944336 0.8676758
vt 0.7939453 0.8691406
vt 0.7949219 0.8681641
vt 0.7890625 0.8730469
vt 0.8100586 0.8740234
vt 0.8105469 0.8735352
vt 0.8105469 0.887207
vt 0.8100586 0.8696289
vt 0.8095703 0.8686523
vt 0.8115234 0.887207
vt 0.8115234 0.8881836
vt 0.8173828 0.8881836
vt 0.8178711 0.8876953
vt 0.8178711 0.8876953
vt 0.8100586 0.8129883
vt 0.8095703 0.8129883
vt 0.8051758 0.8129883
vt 0.8051758 0.8129883
vt 0.7885742 0.871582
vt 0.7939453 0.8129883
vt 0.7949219 0.8129883
vt 0.7875977 0.8725586
vt 0.7880859 0.8730469
vt 0.7895508 0.8720703
vt 0.8110352 0.8725586
vt 0.8105469 0.8730469
vt 0.8115234 0.8862305
vt 0.8110352 0.8867188
vt 0.8115234 0.887207
vt 0.8178711 0.8862305
vt 0.8173828 0.887207
vt 0.8183594 0.8867188
vt 0.8100586 0.8129883
vt 0.8100586 0.8129883
vt 0.7944336 0.8671875
vt 0.7983398 0.8129883
vt 0.7988281 0.8129883
vt 0.7939453 0.8671875
vt 0.7949219 0.8686523
vt 0.7954102 0.8676758
vt 0.8100586 0.8676758
vt 0.8105469 0.8686523
vt 0.8051758 0.8129883
vt 0.8056641 0.8129883
vt 0.7944336 0.8129883
vt 0.7875977 0.8735352
vt 0.7939453 0.8129883
vt 0.7880859 0.8730469
vt 0.7978516 0.8129883
vt 0.7880859 0.8745117
vt 0.793457 0.8686523
vt 0.7988281 0.8129883
vt 0.7944336 0.8681641
vt 0.7944336 0.8701172
vt 0.7949219 0.8691406
vt 0.7890625 0.8735352
vt 0.8100586 0.8745117
vt 0.8110352 0.8740234
vt 0.8110352 0.8876953
vt 0.8100586 0.8701172
vt 0.8100586 0.8691406
vt 0.8115234 0.8876953
vt 0.8115234 0.8886719
vt 0.8173828 0.8886719
vt 0.8178711 0.8876953
vt 0.8183594 0.8876953
vt 0.8100586 0.8129883
vt 0.8095703 0.8129883
vt 0.8051758 0.8129883
vt 0.8051758 0.8129883
vt 0.7949219 0.8671875
vt 0.7988281 0.8129883
vt 0.7983398 0.8129883
vt 0.7944336 0.8676758
vt 0.7949219 0.8686523
vt 0.7954102 0.8676758
vt 0.8100586 0.8681641
vt 0.8105469 0.8686523
vt 0.8051758 0.8129883
vt 0.8056641 0.8129883
vt 0.7939453 0.8129883
vt 0.793457 0.8129883
vt 0.7875977 0.8735352
vt 0.7885742 0.8730469
vt 0.7978516 0.8129883
vt 0.7880859 0.8745117
vt 0.7939453 0.8691406
vt 0.7983398 0.8129883
vt 0.7949219 0.8686523
vt 0.7944336 0.8701172
vt 0.7954102 0.8691406
vt 0.7895508 0.8740234
vt 0.8105469 0.8740234
vt 0.8110352 0.8735352
vt 0.8110352 0.887207
vt 0.8105469 0.8701172
vt 0.8100586 0.8691406
vt 0.8120117 0.887207
vt 0.8120117 0.8876953
vt 0.8178711 0.8876953
vt 0.8178711 0.887207
vt 0.8183594 0.887207
vt 0.8095703 0.8129883
vt 0.809082 0.8129883
vt 0.8046875 0.8129883
vt 0.8046875 0.8129883
vt 0.7890625 0.871582
vt 0.793457 0.8129883
vt 0.7939453 0.8129883
vt 0.7880859 0.8725586
vt 0.7885742 0.8730469
vt 0.7900391 0.8720703
vt 0.8110352 0.8720703
vt 0.8105469 0.8730469
vt 0.8120117 0.8852539
vt 0.8110352 0.8857422
vt 0.8120117 0.8862305
vt 0.8178711 0.8852539
vt 0.8178711 0.8862305
vt 0.8183594 0.8857422
vt 0.809082 0.8129883
vt 0.8095703 0.8129883
vt 0.7949219 0.8671875
vt 0.7978516 0.8129883
vt 0.7983398 0.8129883
vt 0.7944336 0.8671875
vt 0.7949219 0.8686523
vt 0.7958984 0.8676758
vt 0.8100586 0.8676758
vt 0.8105469 0.8681641
vt 0.8046875 0.8129883
vt 0.8051758 0.8129883
vt 0.7944336 0.8154297
vt 0.7939453 0.8154297
vt 0.7983398 0.8149414
vt 0.7988281 0.8149414
vt 0.8066406 0.8144531
vt 0.809082 0.8144531
vt 0.809082 0.9003906
vt 0.8066406 0.9003906
vt 0.7861328 0.8144531
vt 0.7880859 0.8144531
vt 0.7880859 0.9003906
vt 0.7861328 0.9003906
vt 0.8125 0.8144531
vt 0.8105469 0.9003906
vt 0.8125 0.9003906
vt 0.8105469 0.8144531
vt 0.7915039 0.9003906
vt 0.7915039 0.8144531
vt 0.7890625 0.9003906
vt 0.7890625 0.8144531
vt 0.8085938 0.8144531
vt 0.8110352 0.8144531
vt 0.8115234 0.9003906
vt 0.809082 0.9003906
vt 0.7861328 0.8144531
vt 0.7880859 0.8144531
vt 0.7885742 0.9003906
vt 0.7866211 0.9003906
vt 0.8120117 0.8144531
vt 0.8100586 0.9003906
vt 0.8125 0.9003906
vt 0.8100586 0.8144531
vt 0.7895508 0.9003906
vt 0.7895508 0.8144531
vt 0.7871094 0.9003906
vt 0.7871094 0.8144531
vt 0.8076172 0.8144531
vt 0.8100586 0.8144531
vt 0.8100586 0.9003906
vt 0.8076172 0.9003906
vt 0.7875977 0.8144531
vt 0.7890625 0.8144531
vt 0.7890625 0.9003906
vt 0.7875977 0.9003906
vt 0.809082 0.8144531
vt 0.8110352 0.8144531
vt 0.8110352 0.9003906
vt 0.809082 0.9003906
vt 0.7880859 0.8144531
vt 0.7900391 0.8144531
vt 0.7905273 0.9003906
vt 0.7885742 0.9003906
vt 0.8115234 0.8144531
vt 0.8095703 0.9003906
vt 0.8115234 0.9003906
vt 0.8095703 0.8144531
vt 0.7905273 0.9003906
vt 0.7905273 0.8144531
vt 0.7885742 0.9003906
vt 0.7885742 0.8144531
vt 0.7929688 0.8144531
vt 0.7924805 0.9003906
vt 0.7900391 0.9003906
vt 0.7900391 0.8144531
vt 0.8134766 0.8144531
vt 0.8129883 0.9003906
vt 0.8115234 0.9003906
vt 0.8120117 0.8144531
vt 0.7910156 0.8144531
vt 0.7905273 0.9003906
vt 0.7880859 0.9003906
vt 0.7885742 0.8144531
vt 0.8120117 0.8144531
vt 0.8110352 0.9003906
vt 0.8095703 0.9003906
vt 0.8100586 0.8144531
vt 0.7871094 0.8144531
vt 0.7866211 0.9003906
vt 0.7880859 0.9003906
vt 0.7885742 0.8144531
vt 0.8071289 0.9003906
vt 0.8081055 0.8144531
vt 0.8095703 0.9003906
vt 0.8105469 0.8144531
vt 0.7924805 0.9003906
vt 0.7900391 0.9003906
vt 0.7895508 0.8144531
vt 0.7919922 0.8144531
vt 0.8129883 0.9003906
vt 0.8115234 0.9003906
vt 0.8105469 0.8144531
vt 0.8125 0.8144531
vt 0.7871094 0.9003906
vt 0.7880859 0.8144531
vt 0.7861328 0.8144531
vt 0.7885742 0.9003906
vt 0.8071289 0.8144531
vt 0.8076172 0.9003906
vt 0.8095703 0.8144531
vt 0.8100586 0.9003906
vt 0.7905273 0.9003906
vt 0.7880859 0.9003906
vt 0.7875977 0.8144531
vt 0.7900391 0.8144531
vt 0.8125 0.9003906
vt 0.8105469 0.9003906
vt 0.8100586 0.8144531
vt 0.8120117 0.8144531
vt 0.7871094 0.9003906
vt 0.7885742 0.8144531
vt 0.7866211 0.8144531
vt 0.7890625 0.9003906
vt 0.8085938 0.8144531
vt 0.809082 0.9003906
vt 0.8110352 0.8144531
vt 0.8115234 0.9003906
vt 0.7905273 0.8730469
vt 0.7915039 0.8710938
vt 0.7866211 0.8662109
vt 0.7851563 0.8671875
vt 0.7988281 0.875
vt 0.784668 0.859375
vt 0.7827148 0.859375
vt 0.7866211 0.8520508
vt 0.7851563 0.8510742
vt 0.7915039 0.847168
vt 0.7905273 0.8457031
vt 0.7988281 0.8730469
vt 0.8066406 0.8730469
vt 0.7988281 0.8452148
vt 0.7988281 0.8432617
vt 0.8056641 0.847168
vt 0.8066406 0.8457031
vt 0.8056641 0.8710938
vt 0.8125 0.8671875
vt 0.8105469 0.8520508
vt 0.8125 0.8510742
vt 0.8105469 0.8662109
vt 0.8144531 0.859375
vt 0.8125 0.859375
vt 0.8759766 0.8867188
vt 0.8764648 0.8852539
vt 0.8657227 0.8745117
vt 0.8642578 0.875
vt 0.8916016 0.890625
vt 0.8613281 0.859375
vt 0.8598633 0.859375
vt 0.8916016 0.8896484
vt 0.9072266 0.8867188
vt 0.8657227 0.8442383
vt 0.8642578 0.8432617
vt 0.9067383 0.8852539
vt 0.9189453 0.875
vt 0.8764648 0.8330078
vt 0.8759766 0.8320313
vt 0.9179688 0.8745117
vt 0.9233398 0.859375
vt 0.8916016 0.8291016
vt 0.8916016 0.8276367
vt 0.921875 0.859375
vt 0.9189453 0.8432617
vt 0.9067383 0.8330078
vt 0.9072266 0.8320313
vt 0.9179688 0.8442383
vt 0.8803711 0.8393555
vt 0.8916016 0.8364258
vt 0.871582 0.8476563
vt 0.9033203 0.8393555
vt 0.9116211 0.8476563
vt 0.8686523 0.859375
vt 0.9145508 0.859375
vt 0.9116211 0.8706055
vt 0.871582 0.8706055
vt 0.9033203 0.8789063
vt 0.8803711 0.8789063
vt 0.8916016 0.8823242
vt 0.8710938 0.894043
vt 0.871582 0.8930664
vt 0.8574219 0.8789063
vt 0.855957 0.8793945
vt 0.8911133 0.8999023
vt 0.8520508 0.859375
vt 0.8505859 0.859375
vt 0.8911133 0.8984375
vt 0.9116211 0.8945313
vt 0.8574219 0.8398438
vt 0.855957 0.8388672
vt 0.9111328 0.8930664
vt 0.9262695 0.8793945
vt 0.871582 0.8251953
vt 0.8710938 0.8242188
vt 0.925293 0.8789063
vt 0.9316406 0.859375
vt 0.8911133 0.8198242
vt 0.8911133 0.8188477
vt 0.9306641 0.859375
vt 0.9262695 0.8388672
vt 0.9111328 0.8251953
vt 0.9116211 0.8242188
vt 0.925293 0.8398438
vt 0.8754883 0.8320313
vt 0.8911133 0.828125
vt 0.8642578 0.84375
vt 0.9067383 0.8320313
vt 0.918457 0.84375
vt 0.8598633 0.859375
vt 0.9223633 0.859375
vt 0.918457 0.875
vt 0.8642578 0.875
vt 0.9067383 0.8862305
vt 0.8754883 0.8862305
vt 0.8911133 0.890625
vt 0.8564453 0.8789063
vt 0.871582 0.8920898
vt 0.8706055 0.8935547
vt 0.8574219 0.878418
vt 0.890625 0.8974609
vt 0.8510742 0.859375
vt 0.890625 0.8984375
vt 0.8525391 0.859375
vt 0.9091797 0.8920898
vt 0.8564453 0.8398438
vt 0.9101563 0.8935547
vt 0.8574219 0.840332
vt 0.9233398 0.878418
vt 0.8706055 0.8251953
vt 0.9248047 0.8789063
vt 0.871582 0.8261719
vt 0.9287109 0.859375
vt 0.890625 0.8198242
vt 0.9296875 0.859375
vt 0.890625 0.8212891
vt 0.9233398 0.840332
vt 0.9101563 0.8251953
vt 0.9248047 0.8393555
vt 0.9091797 0.8261719
vt 0.7944336 0.8149414
vt 0.7944336 0.8154297
vt 0.7944336 0.8154297
vt 0.7944336 0.8149414
vt 0.7939453 0.8154297
vt 0.7944336 0.8154297
vt 0.7944336 0.8154297
vt 0.7944336 0.8149414
vt 0.7939453 0.8154297
vt 0.7949219 0.8154297
vt 0.7944336 0.8154297
vt 0.7949219 0.8154297
vt 0.7939453 0.8154297
vt 0.7949219 0.8154297
vt 0.7944336 0.8154297
vt 0.7949219 0.8154297
vt 0.7944336 0.815918
vt 0.7949219 0.8154297
vt 0.7944336 0.8154297
vt 0.7949219 0.8154297
vt 0.7944336 0.815918
vt 0.7944336 0.8154297
vt 0.7944336 0.815918
vt 0.7944336 0.815918
vt 0.8857422 0.815918
vt 0.8857422 0.815918
vt 0.8857422 0.8154297
vt 0.8857422 0.8154297
vt 0.8857422 0.815918
vt 0.8852539 0.8154297
vt 0.8857422 0.815918
vt 0.8852539 0.8154297
vt 0.8857422 0.815918
vt 0.8857422 0.8154297
vt 0.8857422 0.815918
vt 0.8857422 0.8154297
vt 0.8862305 0.8154297
vt 0.8857422 0.8149414
vt 0.8862305 0.8154297
vt 0.8857422 0.8149414
vt 0.8862305 0.8154297
vt 0.8857422 0.8149414
vt 0.8862305 0.8154297
vt 0.8857422 0.8149414
vt 0.8862305 0.8154297
vt 0.8857422 0.8149414
vt 0.8862305 0.8154297
vt 0.8857422 0.8149414
vt 0.8857422 0.815918
vt 0.8857422 0.815918
vt 0.8857422 0.815918
vt 0.8857422 0.815918
vt 0.8862305 0.815918
vt 0.8852539 0.8154297
vt 0.8862305 0.815918
vt 0.8852539 0.8154297
vt 0.8862305 0.8154297
vt 0.8852539 0.8154297
vt 0.8862305 0.8154297
vt 0.8852539 0.8154297
vt 0.8862305 0.8154297
vt 0.8852539 0.8154297
vt 0.8862305 0.8154297
vt 0.8852539 0.8154297
vt 0.8862305 0.8154297
vt 0.8857422 0.8149414
vt 0.8862305 0.8154297
vt 0.8857422 0.8149414
vt 0.8862305 0.8149414
vt 0.8857422 0.8149414
vt 0.8862305 0.8149414
vt 0.8857422 0.8149414
vn -0.8657227 0.5 0.02796936
vn -0.4997559 0.8662109 0.0161438
vn -0.4997559 0.8662109 0.0161438
vn -0.8657227 0.5 0.02796936
vn -0.9995117 0 0.0322876
vn -0.9995117 0 0.0322876
vn -0.8657227 -0.5 0.02796936
vn -0.8657227 -0.5 0.02796936
vn -0.4997559 -0.8662109 0.0161438
vn -0.8657227 -0.5 0.02796936
vn -0.8657227 -0.5 0.02796936
vn -0.4997559 -0.8662109 0.0161438
vn 0 -1 0
vn 0 -1 0
vn 0.4997559 -0.8662109 -0.0161438
vn 0.4997559 -0.8662109 -0.0161438
vn 0.8657227 -0.5 -0.02796936
vn 0.8657227 -0.5 -0.02796936
vn 0.9995117 0 -0.0322876
vn 0.9995117 0 -0.0322876
vn 0.8657227 0.5 -0.02796936
vn 0.8657227 0.5 -0.02796936
vn 0.4997559 0.8662109 -0.0161438
vn 0.4997559 0.8662109 -0.0161438
vn 0 1 0
vn 0 1 0
vn -0.4997559 0.8662109 0.0161438
vn -0.4997559 0.8662109 0.0161438
vn -0.01235962 -0.9238281 -0.3825684
vn 0.01235962 -0.9238281 0.3825684
vn 0.01235962 -0.9238281 0.3825684
vn -0.01235962 -0.9238281 -0.3825684
vn -0.01235962 0.9238281 -0.3825684
vn 0.01235962 0.9238281 0.3825684
vn 0.01235962 0.9238281 0.3825684
vn -0.01235962 0.9238281 -0.3825684
vn -0.01235962 -0.9238281 -0.3825684
vn 0.01235962 -0.9238281 0.3825684
vn 0.01235962 -0.9238281 0.3825684
vn -0.01235962 -0.9238281 -0.3825684
vn -0.01235962 0.9238281 -0.3825684
vn 0.01235962 0.9238281 0.3825684
vn 0.01235962 0.9238281 0.3825684
vn -0.01235962 0.9238281 -0.3825684
vn -0.5878906 0.5981445 -0.5444336
vn -0.5517578 0.5981445 0.581543
vn -0.3647461 0.8208008 0.4394531
vn -0.3884277 0.8129883 -0.4333496
vn -0.8515625 0.3173828 -0.4177246
vn -0.8339844 0.3127441 0.4545898
vn -0.5878906 0.5981445 -0.5444336
vn -0.8666992 0.3786621 -0.3239746
vn -0.8442383 0.3786621 0.3793945
vn -0.5517578 0.5981445 0.581543
vn 0.9760742 -0.09161377 -0.1973877
vn 0.9868164 -0.09161377 0.1340332
vn 0.9326172 0.3156738 0.1743164
vn 0.9194336 0.3156738 -0.2341309
vn 0.3256836 0.8720703 -0.3647461
vn 0.3486328 0.8720703 0.3430176
vn -0.3127441 0.8676758 0.3862305
vn -0.3371582 0.8676758 -0.3652344
vn -0.8666992 0.3786621 -0.3239746
vn -0.8442383 0.3786621 0.3793945
vn -0.7490234 -0.4899902 -0.4460449
vn -0.8793945 0.05523682 0.4724121
vn -0.9794922 0.06622314 -0.1901855
vn -0.4768066 -0.6420898 0.6000977
vn 0.3012695 -0.7963867 -0.5244141
vn -0.1741943 -0.005748749 0.9848633
vn 0.25 -0.5483398 0.7983398
vn 0.03344727 -0.03695679 0.9985352
vn 0.7749023 -0.08056641 0.6269531
vn 0.5507813 0.2824707 0.7851563
vn 0.9868164 -0.09161377 0.1340332
vn 0.9326172 0.3156738 0.1743164
vn 0.3486328 0.8720703 0.3430176
vn 0.4257813 -0.3068848 0.8510742
vn -0.3027344 0.3098145 0.9013672
vn -0.3127441 0.8676758 0.3862305
vn -0.8442383 0.3786621 0.3793945
vn -0.08074951 0.1182251 0.9897461
vn -0.5517578 0.5981445 0.581543
vn -0.05056763 0.3769531 0.9248047
vn -0.3647461 0.8208008 0.4394531
vn 0.1932373 -0.6982422 0.6894531
vn -0.359375 0.08483887 0.9291992
vn 0.5673828 -0.2181396 0.7939453
vn 0.5908203 0.02296448 0.8066406
vn -0.8339844 0.3127441 0.4545898
vn -0.5117188 -0.0690918 0.8564453
vn -0.9418945 -0.0958252 0.3217773
vn -0.9418945 -0.0958252 0.3217773
vn -0.9609375 -0.0958252 -0.2602539
vn -0.8515625 0.3173828 -0.4177246
vn -0.8339844 0.3127441 0.4545898
vn 0.2973633 0.8339844 0.4648438
vn -0.05065918 0.8984375 -0.4360352
vn -0.0223999 0.8984375 0.4384766
vn 0.2668457 0.8339844 -0.4831543
vn 0.7807617 0.3217773 -0.5356445
vn 0.8139648 0.3217773 0.4838867
vn 0.4890137 -0.7446289 0.4545898
vn 0.4587402 -0.7446289 -0.4851074
vn 0.9106445 -0.01989746 -0.4123535
vn 0.9355469 -0.01989746 0.3527832
vn 0.9106445 -0.01989746 -0.4123535
vn 0.9355469 -0.01989746 0.3527832
vn 0.4121094 -0.008239746 0.9111328
vn 0.4121094 -0.008239746 0.9111328
vn -0.3525391 0.008239746 0.9355469
vn -0.3525391 0.008239746 0.9355469
vn -0.9106445 0.01989746 0.4123535
vn -0.9106445 0.01989746 0.4123535
vn -0.9355469 0.01989746 -0.3525391
vn -0.9106445 0.01989746 0.4123535
vn -0.9106445 0.01989746 0.4123535
vn -0.9355469 0.01989746 -0.3527832
vn 0.9106445 -0.01989746 -0.4123535
vn 0.9355469 -0.01989746 0.3527832
vn 0.9355469 -0.01989746 0.3527832
vn 0.9106445 -0.01989746 -0.4123535
vn -0.9355469 0.01989746 -0.3525391
vn -0.9106445 0.01989746 0.4123535
vn -0.9106445 0.01989746 0.4123535
vn -0.9355469 0.01989746 -0.3525391
vn 0.1073608 0.9794922 -0.1694336
vn 0.118042 0.9794922 0.1621094
vn -0.2890625 0.9331055 0.2137451
vn -0.3022461 0.9331055 -0.1947021
vn 0.4587402 -0.7446289 -0.4851074
vn 0.4890137 -0.7446289 0.4545898
vn -0.07995605 -0.9711914 0.2244873
vn -0.09429932 -0.9711914 -0.2188721
vn 0.0847168 -0.9536133 0.2885742
vn 0.06585693 -0.9536133 -0.293457
vn -0.3493652 -0.8305664 -0.4338379
vn -0.3208008 -0.8305664 0.4555664
vn -0.8061523 -0.3566895 0.4719238
vn -0.8349609 -0.3566895 -0.4189453
vn -0.6279297 -0.5571289 -0.543457
vn -0.5917969 -0.5571289 0.5825195
vn -0.385498 -0.8476563 0.364502
vn -0.4082031 -0.8476563 -0.3388672
vn -0.8618164 -0.3063965 0.4040527
vn -0.8862305 -0.3063965 -0.3476563
vn -0.8759766 0.355957 -0.3259277
vn -0.8530273 0.355957 0.3818359
vn -0.2890625 0.9331055 0.2137451
vn -0.3022461 0.9331055 -0.1947021
vn -0.2668457 0.8339844 0.4831543
vn 0.05065918 0.8984375 0.4360352
vn 0.0223999 0.8984375 -0.4384766
vn -0.2927246 0.8320313 -0.4709473
vn -0.8149414 0.3117676 -0.4880371
vn -0.7807617 0.3217773 0.5356445
vn -0.4587402 -0.7446289 0.4851074
vn -0.4890137 -0.7446289 -0.4545898
vn -0.9355469 -0.01989746 -0.3525391
vn -0.9355469 -0.01989746 -0.3525391
vn -0.9106445 -0.01989746 0.4123535
vn -0.9106445 -0.01989746 0.4123535
vn -0.3525391 -0.008239746 0.9355469
vn -0.3525391 -0.008239746 0.9355469
vn 0.4121094 0.008239746 0.9111328
vn 0.4121094 0.008239746 0.9111328
vn 0.9355469 0.01989746 0.3525391
vn 0.9355469 0.01989746 0.3527832
vn 0.9106445 0.01989746 -0.4123535
vn 0.9106445 0.01989746 -0.4123535
vn 0.9355469 0.01989746 0.3527832
vn 0.9355469 0.01989746 0.3525391
vn -0.9355469 -0.01989746 -0.3525391
vn -0.9355469 -0.01989746 -0.3525391
vn -0.9106445 -0.01989746 0.4123535
vn -0.9106445 -0.01989746 0.4123535
vn 0.9106445 0.01989746 -0.4123535
vn 0.9106445 0.01989746 -0.4123535
vn 0.9355469 0.01989746 0.3525391
vn 0.9355469 0.01989746 0.3525391
vn -0.118042 0.9794922 -0.1621094
vn 0.2890625 0.9331055 -0.2137451
vn 0.3022461 0.9331055 0.1945801
vn -0.1073608 0.9794922 0.1694336
vn -0.4890137 -0.7446289 -0.4545898
vn 0.07995605 -0.9711914 -0.2244873
vn 0.09429932 -0.9711914 0.21875
vn -0.4587402 -0.7446289 0.4851074
vn -0.06585693 -0.9536133 0.293457
vn 0.4301758 -0.8554688 -0.2888184
vn -0.07232666 -0.9975586 0.002336502
vn 0.3254395 -0.8408203 0.4328613
vn 0.8271484 -0.3796387 0.4143066
vn 0.8793945 -0.3330078 -0.340332
vn 0.5917969 -0.5571289 -0.5825195
vn 0.6279297 -0.5571289 0.543457
vn 0.4082031 -0.8476563 0.3388672
vn 0.385498 -0.8476563 -0.364502
vn 0.8862305 -0.3063965 0.3474121
vn 0.8618164 -0.3063965 -0.4040527
vn 0.8530273 0.355957 -0.3818359
vn 0.8759766 0.355957 0.3259277
vn 0.3022461 0.9331055 0.1945801
vn 0.2890625 0.9331055 -0.2137451
vn -0.8256836 0.2592773 0.5009766
vn -0.9106445 -0.06112671 -0.4082031
vn -0.8823242 -0.06112671 0.4663086
vn -0.8564453 0.2592773 -0.4467773
vn -0.3598633 0.7885742 -0.4985352
vn -0.3269043 0.7885742 0.5209961
vn 0.7460938 0.4943848 0.4462891
vn 0.7158203 0.4943848 -0.4934082
vn -0.01774597 0.9238281 -0.3823242
vn 0.006969452 0.9238281 0.3825684
vn 0.006969452 0.9238281 0.3825684
vn -0.01774597 0.9238281 -0.3823242
vn -0.006969452 -0.9238281 -0.3825684
vn 0.01774597 -0.9238281 0.3823242
vn 0.01774597 -0.9238281 0.3823242
vn -0.006969452 -0.9238281 -0.3825684
vn -0.01774597 0.9238281 -0.3823242
vn 0.006969452 0.9238281 0.3825684
vn 0.006969452 0.9238281 0.3825684
vn -0.01774597 0.9238281 -0.3823242
vn -0.006969452 -0.9238281 -0.3825684
vn 0.01774597 -0.9238281 0.3823242
vn 0.01774597 -0.9238281 0.3823242
vn -0.006969452 -0.9238281 -0.3825684
vn -0.9873047 0.08587646 -0.1340332
vn -0.9765625 0.08587646 0.1975098
vn -0.9174805 -0.3212891 0.2340088
vn -0.9306641 -0.3212891 -0.1743164
vn 0.7158203 0.4943848 -0.4934082
vn 0.7460938 0.4943848 0.4462891
vn 0.9799805 -0.06057739 0.1901855
vn 0.965332 -0.06057739 -0.2531738
vn 0.9599609 0.1013794 0.2602539
vn 0.9414063 0.1013794 -0.3217773
vn 0.824707 -0.3125 -0.4716797
vn 0.8530273 -0.3125 0.4174805
vn 0.3933105 -0.8110352 0.4333496
vn 0.364502 -0.8110352 -0.4577637
vn 0.5551758 -0.5947266 -0.581543
vn 0.5913086 -0.5947266 0.5444336
vn 0.8691406 -0.3737793 0.3239746
vn 0.8461914 -0.3737793 -0.3793945
vn 0.3422852 -0.8657227 0.3649902
vn 0.3178711 -0.8657227 -0.3864746
vn -0.3435059 -0.8740234 -0.3430176
vn -0.3205566 -0.8740234 0.364502
vn -0.9174805 -0.3212891 0.2340088
vn -0.9306641 -0.3212891 -0.1743164
vn 0.8793945 -0.3330078 -0.340332
vn 0.6767578 0.008262634 -0.7363281
vn 0.4301758 -0.8554688 -0.2888184
vn 0.4067383 -0.3952637 -0.8237305
vn 0.5917969 -0.5571289 -0.5825195
vn 0.4050293 -0.4414063 -0.8007813
vn 0.385498 -0.8476563 -0.364502
vn 0.8618164 -0.3063965 -0.4040527
vn 0.3415527 0.7021484 -0.625
vn 0.8530273 0.355957 -0.3818359
vn 0.2890625 0.9331055 -0.2137451
vn -0.1219482 0.9199219 -0.3720703
vn -0.118042 0.9794922 -0.1621094
vn -0.5854492 0.1178589 -0.8022461
vn -0.9609375 -0.0958252 -0.2602539
vn -0.7250977 -0.08117676 -0.6835938
vn -0.8515625 0.3173828 -0.4177246
vn -0.3884277 0.8129883 -0.4333496
vn -0.1199341 0.6206055 -0.7749023
vn -0.4304199 0.4245605 -0.7963867
vn -0.5878906 0.5981445 -0.5444336
vn -0.4758301 0.4211426 -0.7719727
vn -0.8666992 0.3786621 -0.3239746
vn -0.3371582 0.8676758 -0.3652344
vn 0.6738281 0.3764648 -0.6357422
vn 0.3256836 0.8720703 -0.3647461
vn 0.9194336 0.3156738 -0.2341309
vn 0.909668 -0.09002686 -0.4055176
vn 0.9760742 -0.09161377 -0.1973877
vn 0.8168945 -0.2646484 -0.512207
vn 0.6835938 0.03518677 -0.7290039
vn 0.8828125 0.05587769 -0.4663086
vn 0.5522461 -0.2009277 -0.809082
vn 0.248291 -0.4963379 -0.8320313
vn 0.3012695 -0.7963867 -0.5244141
vn -0.7490234 -0.4899902 -0.4460449
vn -0.4260254 -0.4802246 -0.7666016
vn -0.9794922 0.06622314 -0.1901855
vn -0.9277344 0.05764771 -0.3684082
vn 0.5673828 -0.2181396 0.7939453
vn 0.25 -0.5483398 0.7983398
vn 0.3012695 -0.7963867 -0.5244141
vn 0.8168945 -0.2646484 -0.512207
vn 0.08447266 -0.5405273 0.8369141
vn 0.0847168 -0.9536133 0.2885742
vn -0.3208008 -0.8305664 0.4555664
vn -0.05249023 -0.3803711 0.9233398
vn 0.04199219 0.2263184 0.9731445
vn -0.8061523 -0.3566895 0.4719238
vn 0.1331787 0.2563477 0.9575195
vn -0.0223999 0.8984375 0.4384766
vn 0.2973633 0.8339844 0.4648438
vn 0.2218018 0.09411621 0.9707031
vn 0.8139648 0.3217773 0.4838867
vn -0.3474121 -0.05303955 0.9360352
vn -0.5917969 -0.5571289 0.5825195
vn -0.08868408 -0.1101074 0.9897461
vn -0.385498 -0.8476563 0.364502
vn 0.1652832 -0.09606934 0.9814453
vn 0.4890137 -0.7446289 0.4545898
vn -0.2878418 -0.324707 0.9008789
vn -0.8618164 -0.3063965 0.4040527
vn -0.8530273 0.355957 0.3818359
vn -0.2449951 0.53125 0.8110352
vn -0.2890625 0.9331055 0.2137451
vn 0.118042 0.9794922 0.1621094
vn 0.1178589 0.7524414 0.6484375
vn 0.01649475 -0.3540039 0.9350586
vn -0.07995605 -0.9711914 0.2244873
vn -0.1563721 -0.5566406 -0.815918
vn 0.06585693 -0.9536133 -0.293457
vn 0.04315186 -0.7041016 -0.7084961
vn -0.3493652 -0.8305664 -0.4338379
vn -0.8349609 -0.3566895 -0.4189453
vn -0.6474609 -0.08148193 -0.7578125
vn -0.4589844 -0.3952637 -0.7954102
vn -0.6279297 -0.5571289 -0.543457
vn -0.4558105 -0.4414063 -0.7729492
vn -0.4082031 -0.8476563 -0.3388672
vn -0.8862305 -0.3063965 -0.3476563
vn -0.3811035 0.7021484 -0.6015625
vn -0.8759766 0.355957 -0.3259277
vn -0.3022461 0.9331055 -0.1947021
vn 0.09765625 0.9199219 -0.3791504
vn 0.1073608 0.9794922 -0.1694336
vn 0.2668457 0.8339844 -0.4831543
vn -0.04275513 0.7075195 -0.7055664
vn -0.05065918 0.8984375 -0.4360352
vn 0.1837158 0.597168 -0.7807617
vn 0.4916992 0.2678223 -0.8286133
vn 0.7807617 0.3217773 -0.5356445
vn 0.4587402 -0.7446289 -0.4851074
vn 0.4460449 -0.4111328 -0.7949219
vn -0.09429932 -0.9711914 -0.2188721
vn -0.09020996 -0.9140625 -0.3955078
vn -0.03025818 -0.5405273 0.8408203
vn 0.3254395 -0.8408203 0.4328613
vn -0.06585693 -0.9536133 0.293457
vn 0.1141968 -0.3813477 0.9174805
vn 0.0209198 0.2263184 0.9736328
vn 0.8271484 -0.3796387 0.4143066
vn -0.07104492 0.2563477 0.9638672
vn 0.05065918 0.8984375 0.4360352
vn -0.2668457 0.8339844 0.4831543
vn -0.1586914 0.09417725 0.9829102
vn -0.7807617 0.3217773 0.5356445
vn 0.4067383 -0.05599976 0.9116211
vn 0.6279297 -0.5571289 0.543457
vn 0.1524658 -0.1101074 0.9819336
vn 0.4082031 -0.8476563 0.3388672
vn -0.1016235 -0.09606934 0.9902344
vn -0.4587402 -0.7446289 0.4851074
vn 0.345459 -0.324707 0.8803711
vn 0.8862305 -0.3063965 0.3474121
vn 0.8759766 0.355957 0.3259277
vn 0.296875 0.53125 0.793457
vn 0.3022461 0.9331055 0.1945801
vn -0.1073608 0.9794922 0.1694336
vn -0.07574463 0.7524414 0.6542969
vn 0.04388428 -0.3540039 0.934082
vn 0.09429932 -0.9711914 0.21875
vn -0.2927246 0.8320313 -0.4709473
vn 0.0223999 0.8984375 -0.4384766
vn -0.002864838 0.7075195 -0.706543
vn -0.2539063 0.5698242 -0.78125
vn -0.5429688 0.2531738 -0.8007813
vn -0.8149414 0.3117676 -0.4880371
vn -0.4890137 -0.7446289 -0.4545898
vn -0.4963379 -0.4111328 -0.7646484
vn 0.07995605 -0.9711914 -0.2244873
vn 0.06445313 -0.9140625 -0.4003906
vn 0.565918 0.07214355 0.8212891
vn 0.9599609 0.1013794 0.2602539
vn 0.8530273 -0.3125 0.4174805
vn 0.4118652 -0.07183838 0.9082031
vn -0.1949463 0.004333496 0.980957
vn 0.3933105 -0.8110352 0.4333496
vn -0.2279053 0.09509277 0.9692383
vn -0.8823242 -0.06112671 0.4663086
vn -0.8256836 0.2592773 0.5009766
vn -0.06768799 0.1877441 0.9799805
vn -0.3269043 0.7885742 0.5209961
vn 0.09313965 -0.3757324 0.921875
vn 0.5913086 -0.5947266 0.5444336
vn 0.1451416 -0.1175537 0.9824219
vn 0.8691406 -0.3737793 0.3239746
vn 0.1242065 0.1361084 0.9829102
vn 0.7460938 0.4943848 0.4462891
vn 0.3620605 -0.3078613 0.8798828
vn 0.3422852 -0.8657227 0.3649902
vn -0.3205566 -0.8740234 0.364502
vn -0.4975586 -0.2854004 0.8193359
vn -0.9174805 -0.3212891 0.2340088
vn -0.9765625 0.08587646 0.1975098
vn -0.7333984 0.07623291 0.6757813
vn 0.3842773 -0.004005432 0.9233398
vn 0.9799805 -0.06057739 0.1901855
vn 0.5332031 -0.114624 -0.8383789
vn 0.9414063 0.1013794 -0.3217773
vn 0.6791992 0.08526611 -0.7290039
vn 0.824707 -0.3125 -0.4716797
vn 0.364502 -0.8110352 -0.4577637
vn 0.07330322 -0.6201172 -0.78125
vn 0.3806152 -0.4221191 -0.8227539
vn 0.5551758 -0.5947266 -0.581543
vn 0.4274902 -0.418457 -0.8012695
vn 0.8461914 -0.3737793 -0.3793945
vn 0.3178711 -0.8657227 -0.3864746
vn -0.7114258 -0.3806152 -0.5908203
vn -0.3435059 -0.8740234 -0.3430176
vn -0.9306641 -0.3212891 -0.1743164
vn -0.9345703 0.08465576 -0.3459473
vn -0.9873047 0.08587646 -0.1340332
vn -0.8564453 0.2592773 -0.4467773
vn -0.7290039 -0.03930664 -0.6831055
vn -0.9106445 -0.06112671 -0.4082031
vn -0.6274414 0.1925049 -0.7543945
vn -0.3081055 0.5107422 -0.8027344
vn -0.3598633 0.7885742 -0.4985352
vn 0.7158203 0.4943848 -0.4934082
vn 0.3728027 0.4824219 -0.7924805
vn 0.965332 -0.06057739 -0.2531738
vn 0.9023438 -0.05230713 -0.4277344
vn 0.5673828 -0.2181396 0.7939453
vn 0.8168945 -0.2646484 -0.512207
vn 0.8828125 0.05587769 -0.4663086
vn 0.5908203 0.02296448 0.8066406
vn -0.02282715 0.7070313 -0.706543
vn -0.01235962 0.9238281 -0.3825684
vn -0.01235962 0.9238281 -0.3825684
vn -0.02282715 0.7070313 -0.706543
vn -0.01235962 -0.9238281 -0.3825684
vn -0.02282715 -0.7070313 -0.706543
vn -0.02282715 -0.7070313 -0.706543
vn -0.01235962 -0.9238281 -0.3825684
vn 0.01235962 0.9238281 0.3825684
vn 0.02983093 0.3825684 0.9233398
vn 0.01235962 0.9238281 0.3825684
vn 0.02983093 0.3825684 0.9233398
vn 0.02983093 -0.3825684 0.9233398
vn 0.02983093 -0.3825684 0.9233398
vn 0.01235962 -0.9238281 0.3825684
vn 0.01235962 -0.9238281 0.3825684
vn -0.02282715 0.7070313 -0.706543
vn -0.01235962 0.9238281 -0.3825684
vn -0.01235962 0.9238281 -0.3825684
vn -0.02282715 0.7070313 -0.706543
vn -0.01235962 -0.9238281 -0.3825684
vn -0.02282715 -0.7070313 -0.706543
vn -0.02282715 -0.7070313 -0.706543
vn -0.01235962 -0.9238281 -0.3825684
vn 0.01235962 0.9238281 0.3825684
vn 0.02983093 0.3825684 0.9233398
vn 0.01235962 0.9238281 0.3825684
vn 0.02983093 0.3825684 0.9233398
vn 0.02983093 -0.3825684 0.9233398
vn 0.02983093 -0.3825684 0.9233398
vn 0.01235962 -0.9238281 0.3825684
vn 0.01235962 -0.9238281 0.3825684
vn -0.7294922 0.01522827 -0.684082
vn -0.9355469 0.01989746 -0.3525391
vn -0.9355469 0.01989746 -0.3527832
vn -0.7294922 0.01522827 -0.684082
vn 0.9106445 -0.01989746 -0.4123535
vn 0.6835938 -0.01522827 -0.7294922
vn 0.6835938 -0.01522827 -0.7294922
vn 0.9106445 -0.01989746 -0.4123535
vn -0.7294922 0.01522827 -0.684082
vn -0.9355469 0.01989746 -0.3525391
vn -0.9355469 0.01989746 -0.3525391
vn -0.7294922 0.01522827 -0.684082
vn 0.9106445 -0.01989746 -0.4123535
vn 0.6835938 -0.01522827 -0.7294922
vn 0.6835938 -0.01522827 -0.7294922
vn 0.9106445 -0.01989746 -0.4123535
vn -0.9106445 0.01989746 0.4123535
vn -0.3525391 0.008239746 0.9355469
vn -0.9106445 0.01989746 0.4123535
vn -0.3525391 0.008239746 0.9355469
vn 0.4121094 -0.008239746 0.9111328
vn 0.4121094 -0.008239746 0.9111328
vn 0.9355469 -0.01989746 0.3527832
vn 0.9355469 -0.01989746 0.3527832
vn 0.6835938 0.01522827 -0.7294922
vn 0.6835938 0.01522827 -0.7294922
vn 0.9106445 0.01989746 -0.4123535
vn 0.9106445 0.01989746 -0.4123535
vn -0.9355469 -0.01989746 -0.3525391
vn -0.9355469 -0.01989746 -0.3525391
vn -0.7294922 -0.01522827 -0.684082
vn -0.7294922 -0.01522827 -0.684082
vn 0.6835938 0.01522827 -0.7294922
vn 0.6835938 0.01522827 -0.7294922
vn 0.9106445 0.01989746 -0.4123535
vn 0.9106445 0.01989746 -0.4123535
vn -0.9355469 -0.01989746 -0.3525391
vn -0.9355469 -0.01989746 -0.3525391
vn -0.7294922 -0.01522827 -0.684082
vn -0.7294922 -0.01522827 -0.684082
vn 0.9355469 0.01989746 0.3525391
vn 0.9355469 0.01989746 0.3525391
vn 0.4123535 0.008239746 0.9111328
vn 0.4123535 0.008239746 0.9111328
vn -0.3525391 -0.008239746 0.9355469
vn -0.3525391 -0.008239746 0.9355469
vn -0.9106445 -0.01989746 0.4123535
vn -0.9106445 -0.01989746 0.4123535
vn -0.01870728 -0.7070313 -0.7070313
vn -0.006969452 -0.9238281 -0.3825684
vn -0.006969452 -0.9238281 -0.3825684
vn -0.01870728 -0.7070313 -0.7070313
vn -0.01774597 0.9238281 -0.3823242
vn -0.02696228 0.7070313 -0.706543
vn -0.02696228 0.7070313 -0.706543
vn -0.01774597 0.9238281 -0.3823242
vn 0.01774597 -0.9238281 0.3823242
vn 0.03207397 -0.3825684 0.9233398
vn 0.01774597 -0.9238281 0.3823242
vn 0.03207397 -0.3825684 0.9233398
vn 0.02760315 0.3825684 0.9233398
vn 0.02760315 0.3825684 0.9233398
vn 0.006969452 0.9238281 0.3825684
vn 0.006969452 0.9238281 0.3825684
vn -0.01870728 -0.7070313 -0.7070313
vn -0.006969452 -0.9238281 -0.3825684
vn -0.006969452 -0.9238281 -0.3825684
vn -0.01870728 -0.7070313 -0.7070313
vn -0.01774597 0.9238281 -0.3823242
vn -0.02696228 0.7070313 -0.706543
vn -0.02696228 0.7070313 -0.706543
vn -0.01774597 0.9238281 -0.3823242
vn 0.01774597 -0.9238281 0.3823242
vn 0.03207397 -0.3825684 0.9233398
vn 0.01774597 -0.9238281 0.3823242
vn 0.03207397 -0.3825684 0.9233398
vn 0.02760315 0.3825684 0.9233398
vn 0.02760315 0.3825684 0.9233398
vn 0.006969452 0.9238281 0.3825684
vn 0.006969452 0.9238281 0.3825684
vn -0.3898926 0.7080078 0.5888672
vn -0.1420898 0.2988281 0.9438477
vn -0.2683105 0.1724854 0.9477539
vn -0.6889648 0.4086914 0.5986328
vn 0.01860046 0.8173828 0.5756836
vn -0.3144531 0 0.9492188
vn -0.7983398 0 0.6020508
vn -0.2683105 -0.1724854 0.9477539
vn -0.6889648 -0.4086914 0.5986328
vn -0.1420898 -0.2988281 0.9438477
vn -0.3898926 -0.7080078 0.5888672
vn 0.03030396 0.3449707 0.9379883
vn 0.4272461 0.7080078 0.5625
vn 0.03030396 -0.3449707 0.9379883
vn 0.01860046 -0.8173828 0.5756836
vn 0.2027588 -0.2988281 0.9326172
vn 0.4272461 -0.7080078 0.5625
vn 0.2027588 0.2988281 0.9326172
vn 0.7260742 0.4086914 0.5527344
vn 0.3288574 -0.1724854 0.9282227
vn 0.7260742 -0.4086914 0.5527344
vn 0.3288574 0.1724854 0.9282227
vn 0.8354492 0 0.5493164
vn 0.3752441 0 0.9267578
vn -0.4523926 0.8046875 0.3840332
vn -0.1834717 0.3686523 0.9111328
vn -0.3393555 0.2128906 0.9165039
vn -0.7924805 0.4645996 0.3950195
vn 0.01192474 0.9291992 0.3691406
vn -0.3962402 0 0.9179688
vn -0.9169922 0 0.3991699
vn 0.02922058 0.4257813 0.9042969
vn 0.4763184 0.8046875 0.3540039
vn -0.3393555 -0.2128906 0.9165039
vn -0.7924805 -0.4645996 0.3950195
vn 0.2419434 0.3686523 0.8974609
vn 0.8164063 0.4645996 0.3430176
vn -0.1834717 -0.3686523 0.9111328
vn -0.4523926 -0.8046875 0.3840332
vn 0.3977051 0.2128906 0.8925781
vn 0.940918 0 0.3391113
vn 0.02922058 -0.4257813 0.9042969
vn 0.01192474 -0.9291992 0.3691406
vn 0.454834 0 0.890625
vn 0.8164063 -0.4645996 0.3430176
vn 0.2419434 -0.3686523 0.8974609
vn 0.4763184 -0.8046875 0.3540039
vn 0.3977051 -0.2128906 0.8925781
vn -0.2279053 -0.4431152 0.8671875
vn 0.02774048 -0.5117188 0.8588867
vn -0.4150391 -0.2558594 0.8730469
vn 0.2834473 -0.4431152 0.8505859
vn 0.470459 -0.2558594 0.8442383
vn -0.4836426 0 0.8754883
vn 0.5390625 0 0.8422852
vn 0.470459 0.2558594 0.8442383
vn -0.4150391 0.2558594 0.8730469
vn 0.2834473 0.4431152 0.8505859
vn -0.2279053 0.4431152 0.8671875
vn 0.02774048 0.5117188 0.8588867
vn -0.4523926 0.8046875 0.3840332
vn -0.1835938 0.3686523 0.9111328
vn -0.3393555 0.2128906 0.9165039
vn -0.7924805 0.4645996 0.3950195
vn 0.01192474 0.9291992 0.3691406
vn -0.3962402 0 0.9179688
vn -0.9169922 0 0.3991699
vn 0.02922058 0.4257813 0.9042969
vn 0.4763184 0.8046875 0.3540039
vn -0.3393555 -0.2128906 0.9165039
vn -0.7924805 -0.4645996 0.3950195
vn 0.2419434 0.3686523 0.8974609
vn 0.8164063 0.4645996 0.3430176
vn -0.1835938 -0.3686523 0.9111328
vn -0.4523926 -0.8046875 0.3840332
vn 0.3977051 0.2128906 0.8925781
vn 0.940918 0 0.3391113
vn 0.02922058 -0.4257813 0.9042969
vn 0.01192474 -0.9291992 0.3691406
vn 0.454834 0 0.890625
vn 0.8164063 -0.4645996 0.3430176
vn 0.2419434 -0.3686523 0.8974609
vn 0.4763184 -0.8046875 0.3540039
vn 0.3977051 -0.2128906 0.8925781
vn -0.2939453 -0.5522461 0.7802734
vn 0.02487183 -0.6376953 0.7700195
vn -0.5273438 -0.3188477 0.7875977
vn 0.3435059 -0.5522461 0.7597656
vn 0.5766602 -0.3188477 0.7519531
vn -0.6123047 0 0.7905273
vn 0.6621094 0 0.7495117
vn 0.5766602 0.3188477 0.7519531
vn -0.5273438 0.3188477 0.7875977
vn 0.3435059 0.5522461 0.7597656
vn -0.2939453 0.5522461 0.7802734
vn 0.02487183 0.6376953 0.7700195
vn -0.8164063 0.4645996 -0.3430176
vn -0.3703613 0.6015625 -0.7075195
vn -0.4763184 0.8046875 -0.3540039
vn -0.6245117 0.3474121 -0.6992188
vn -0.02322388 0.6948242 -0.71875
vn -0.940918 0 -0.3391113
vn -0.01192474 0.9291992 -0.3691406
vn -0.7177734 0 -0.6962891
vn 0.3239746 0.6015625 -0.7299805
vn -0.8164063 -0.4645996 -0.3430176
vn 0.4523926 0.8046875 -0.3840332
vn -0.6245117 -0.3474121 -0.6992188
vn 0.578125 0.3474121 -0.7382813
vn -0.4763184 -0.8046875 -0.3540039
vn 0.7924805 0.4645996 -0.3950195
vn -0.3703613 -0.6015625 -0.7075195
vn 0.6713867 0 -0.7412109
vn -0.01192474 -0.9291992 -0.3691406
vn 0.9169922 0 -0.3991699
vn -0.02322388 -0.6948242 -0.71875
vn 0.578125 -0.3474121 -0.7382813
vn 0.4523926 -0.8046875 -0.3840332
vn 0.7924805 -0.4645996 -0.3950195
vn 0.3239746 -0.6015625 -0.7299805
vn -0.2279053 -0.4431152 0.8671875
vn -0.3898926 -0.7080078 0.5888672
vn 0.01860046 -0.8173828 0.5756836
vn 0.02774048 -0.5117188 0.8588867
vn -0.4150391 -0.2558594 0.8730469
vn 0.4272461 -0.7080078 0.5625
vn -0.6889648 -0.4086914 0.5986328
vn 0.2834473 -0.4431152 0.8505859
vn -0.4836426 0 0.8754883
vn 0.7260742 -0.4086914 0.5527344
vn -0.7983398 0 0.6020508
vn 0.470459 -0.2558594 0.8442383
vn -0.4150391 0.2558594 0.8730469
vn 0.8354492 0 0.5493164
vn -0.6889648 0.4086914 0.5986328
vn 0.5390625 0 0.8422852
vn -0.2279053 0.4431152 0.8671875
vn 0.7260742 0.4086914 0.5527344
vn -0.3898926 0.7080078 0.5888672
vn 0.470459 0.2558594 0.8442383
vn 0.02774048 0.5117188 0.8588867
vn 0.4272461 0.7080078 0.5625
vn 0.01860046 0.8173828 0.5756836
vn 0.2834473 0.4431152 0.8505859
vn -0.2939453 0.5522461 0.7802734
vn -0.4523926 0.8046875 0.3840332
vn -0.7924805 0.4645996 0.3950195
vn -0.5273438 0.3188477 0.7875977
vn 0.02487183 0.6376953 0.7700195
vn -0.9169922 0 0.3991699
vn 0.01192474 0.9291992 0.3691406
vn -0.6123047 0 0.7905273
vn 0.3435059 0.5522461 0.7597656
vn -0.7924805 -0.4645996 0.3950195
vn 0.4763184 0.8046875 0.3540039
vn -0.5273438 -0.3188477 0.7875977
vn 0.5766602 0.3188477 0.7519531
vn -0.4523926 -0.8046875 0.3840332
vn 0.8164063 0.4645996 0.3430176
vn -0.2939453 -0.5522461 0.7802734
vn 0.6621094 0 0.7495117
vn 0.01192474 -0.9291992 0.3691406
vn 0.940918 0 0.3391113
vn 0.02487183 -0.6376953 0.7700195
vn 0.5766602 -0.3188477 0.7519531
vn 0.4763184 -0.8046875 0.3540039
vn 0.8164063 -0.4645996 0.3430176
vn 0.3435059 -0.5522461 0.7597656
vn -0.4763184 0.8046875 -0.3540039
vn -0.01192474 0.9291992 -0.3691406
vn 0.01192474 0.9291992 0.3691406
vn -0.4523926 0.8046875 0.3840332
vn 0.4763184 0.8046875 0.3540039
vn -0.8164063 0.4645996 -0.3430176
vn 0.4523926 0.8046875 -0.3840332
vn -0.7924805 0.4645996 0.3950195
vn 0.8164063 0.4645996 0.3430176
vn -0.940918 0 -0.3391113
vn 0.7924805 0.4645996 -0.3950195
vn -0.9169922 0 0.3991699
vn 0.940918 0 0.3391113
vn -0.8164063 -0.4645996 -0.3430176
vn 0.9169922 0 -0.3991699
vn -0.7924805 -0.4645996 0.3950195
vn 0.8164063 -0.4645996 0.3430176
vn -0.4763184 -0.8046875 -0.3540039
vn 0.7924805 -0.4645996 -0.3950195
vn -0.4523926 -0.8046875 0.3840332
vn 0.4763184 -0.8046875 0.3540039
vn -0.01192474 -0.9291992 -0.3691406
vn 0.4523926 -0.8046875 -0.3840332
vn 0.01192474 -0.9291992 0.3691406
g WindMill_Fan_0
f 3/3/3 2/2/2 1/1/1
f 2/2/2 4/4/4 1/1/1
f 1/1/1 4/4/4 5/5/5
f 4/4/4 6/6/6 5/5/5
f 5/5/5 6/6/6 7/7/7
f 6/6/6 8/8/8 7/7/7
f 11/11/11 10/10/10 9/9/9
f 10/10/10 12/12/12 9/9/9
f 9/9/9 12/12/12 13/13/13
f 12/12/12 14/14/14 13/13/13
f 13/13/13 14/14/14 15/15/15
f 14/14/14 16/16/16 15/15/15
f 15/15/15 16/16/16 17/17/17
f 16/16/16 18/18/18 17/17/17
f 17/17/17 18/18/18 19/19/19
f 18/18/18 20/20/20 19/19/19
f 19/19/19 20/20/20 21/21/21
f 20/20/20 22/22/22 21/21/21
f 21/21/21 22/22/22 23/23/23
f 22/22/22 24/24/24 23/23/23
f 23/23/23 24/24/24 25/25/25
f 24/24/24 26/26/26 25/25/25
f 25/25/25 26/26/26 27/27/27
f 26/26/26 28/28/28 27/27/27
f 31/31/31 30/30/30 29/29/29
f 32/32/32 31/31/31 29/29/29
f 35/35/35 34/34/34 33/33/33
f 36/36/36 35/35/35 33/33/33
f 39/39/39 38/38/38 37/37/37
f 40/40/40 39/39/39 37/37/37
f 43/43/43 42/42/42 41/41/41
f 44/44/44 43/43/43 41/41/41
f 47/47/47 46/46/46 45/45/45
f 48/48/48 47/47/47 45/45/45
f 48/48/48 49/49/49 47/47/47
f 49/49/49 50/50/50 47/47/47
f 53/53/53 52/52/52 51/51/51
f 54/54/54 53/53/53 51/51/51
f 57/57/57 56/56/56 55/55/55
f 58/58/58 57/57/57 55/55/55
f 57/57/57 58/58/58 59/59/59
f 60/60/60 57/57/57 59/59/59
f 61/61/61 60/60/60 59/59/59
f 62/62/62 61/61/61 59/59/59
f 61/61/61 62/62/62 63/63/63
f 64/64/64 61/61/61 63/63/63
f 67/67/67 66/66/66 65/65/65
f 66/66/66 68/68/68 65/65/65
f 69/69/69 65/65/65 68/68/68
f 66/66/66 70/70/70 68/68/68
f 68/68/68 71/71/71 69/69/69
f 70/70/70 72/72/72 68/68/68
f 70/70/70 73/73/73 72/72/72
f 73/73/73 74/74/74 72/72/72
f 73/73/73 75/75/75 74/74/74
f 75/75/75 76/76/76 74/74/74
f 77/77/77 74/74/74 76/76/76
f 72/72/72 78/78/78 68/68/68
f 72/72/72 74/74/74 78/78/78
f 79/79/79 74/74/74 77/77/77
f 80/80/80 79/79/79 77/77/77
f 80/80/80 81/81/81 79/79/79
f 74/74/74 79/79/79 82/82/82
f 79/79/79 81/81/81 82/82/82
f 74/74/74 82/82/82 78/78/78
f 81/81/81 83/83/83 82/82/82
f 84/84/84 82/82/82 83/83/83
f 78/78/78 82/82/82 84/84/84
f 85/85/85 84/84/84 83/83/83
f 78/78/78 86/86/86 68/68/68
f 84/84/84 86/86/86 78/78/78
f 68/68/68 86/86/86 71/71/71
f 84/84/84 71/71/71 86/86/86
f 84/84/84 85/85/85 87/87/87
f 84/84/84 87/87/87 71/71/71
f 87/87/87 88/88/88 71/71/71
f 88/88/88 87/87/87 89/89/89
f 85/85/85 90/90/90 87/87/87
f 87/87/87 91/91/91 89/89/89
f 87/87/87 90/90/90 91/91/91
f 90/90/90 92/92/92 91/91/91
f 95/95/95 94/94/94 93/93/93
f 96/96/96 95/95/95 93/93/93
f 99/99/99 98/98/98 97/97/97
f 98/98/98 100/100/100 97/97/97
f 100/100/100 101/101/101 97/97/97
f 101/101/101 102/102/102 97/97/97
f 103/103/103 102/102/102 101/101/101
f 104/104/104 103/103/103 101/101/101
f 107/107/107 106/106/106 105/105/105
f 106/106/106 108/108/108 105/105/105
f 108/108/108 106/106/106 109/109/109
f 110/110/110 108/108/108 109/109/109
f 109/109/109 111/111/111 110/110/110
f 111/111/111 112/112/112 110/110/110
f 112/112/112 111/111/111 113/113/113
f 114/114/114 112/112/112 113/113/113
f 117/117/117 116/116/116 115/115/115
f 118/118/118 117/117/117 115/115/115
f 121/121/121 120/120/120 119/119/119
f 122/122/122 121/121/121 119/119/119
f 125/125/125 124/124/124 123/123/123
f 126/126/126 125/125/125 123/123/123
f 129/129/129 128/128/128 127/127/127
f 130/130/130 129/129/129 127/127/127
f 133/133/133 132/132/132 131/131/131
f 134/134/134 133/133/133 131/131/131
f 137/137/137 136/136/136 135/135/135
f 138/138/138 137/137/137 135/135/135
f 137/137/137 138/138/138 139/139/139
f 140/140/140 137/137/137 139/139/139
f 140/140/140 139/139/139 141/141/141
f 139/139/139 142/142/142 141/141/141
f 142/142/142 143/143/143 141/141/141
f 143/143/143 144/144/144 141/141/141
f 143/143/143 145/145/145 144/144/144
f 145/145/145 146/146/146 144/144/144
f 146/146/146 145/145/145 147/147/147
f 145/145/145 148/148/148 147/147/147
f 148/148/148 149/149/149 147/147/147
f 149/149/149 150/150/150 147/147/147
f 153/153/153 152/152/152 151/151/151
f 154/154/154 153/153/153 151/151/151
f 155/155/155 154/154/154 151/151/151
f 156/156/156 155/155/155 151/151/151
f 156/156/156 157/157/157 155/155/155
f 157/157/157 158/158/158 155/155/155
f 161/161/161 160/160/160 159/159/159
f 162/162/162 161/161/161 159/159/159
f 161/161/161 162/162/162 163/163/163
f 162/162/162 164/164/164 163/163/163
f 165/165/165 163/163/163 164/164/164
f 166/166/166 165/165/165 164/164/164
f 165/165/165 166/166/166 167/167/167
f 166/166/166 168/168/168 167/167/167
f 171/171/171 170/170/170 169/169/169
f 172/172/172 171/171/171 169/169/169
f 175/175/175 174/174/174 173/173/173
f 176/176/176 175/175/175 173/173/173
f 179/179/179 178/178/178 177/177/177
f 180/180/180 179/179/179 177/177/177
f 183/183/183 182/182/182 181/181/181
f 184/184/184 183/183/183 181/181/181
f 187/187/187 186/186/186 185/185/185
f 188/188/188 187/187/187 185/185/185
f 191/191/191 190/190/190 189/189/189
f 190/190/190 192/192/192 189/189/189
f 192/192/192 190/190/190 193/193/193
f 190/190/190 194/194/194 193/193/193
f 193/193/193 194/194/194 195/195/195
f 196/196/196 193/193/193 195/195/195
f 197/197/197 196/196/196 195/195/195
f 198/198/198 197/197/197 195/195/195
f 199/199/199 197/197/197 198/198/198
f 200/200/200 199/199/199 198/198/198
f 199/199/199 200/200/200 201/201/201
f 202/202/202 199/199/199 201/201/201
f 203/203/203 202/202/202 201/201/201
f 204/204/204 203/203/203 201/201/201
f 207/207/207 206/206/206 205/205/205
f 206/206/206 208/208/208 205/205/205
f 208/208/208 209/209/209 205/205/205
f 209/209/209 210/210/210 205/205/205
f 211/211/211 210/210/210 209/209/209
f 212/212/212 211/211/211 209/209/209
f 215/215/215 214/214/214 213/213/213
f 216/216/216 215/215/215 213/213/213
f 219/219/219 218/218/218 217/217/217
f 220/220/220 219/219/219 217/217/217
f 223/223/223 222/222/222 221/221/221
f 224/224/224 223/223/223 221/221/221
f 227/227/227 226/226/226 225/225/225
f 228/228/228 227/227/227 225/225/225
f 231/231/231 230/230/230 229/229/229
f 232/232/232 231/231/231 229/229/229
f 235/235/235 234/234/234 233/233/233
f 236/236/236 235/235/235 233/233/233
f 239/239/239 238/238/238 237/237/237
f 240/240/240 239/239/239 237/237/237
f 239/239/239 240/240/240 241/241/241
f 242/242/242 239/239/239 241/241/241
f 242/242/242 241/241/241 243/243/243
f 241/241/241 244/244/244 243/243/243
f 244/244/244 245/245/245 243/243/243
f 245/245/245 246/246/246 243/243/243
f 245/245/245 247/247/247 246/246/246
f 247/247/247 248/248/248 246/246/246
f 248/248/248 247/247/247 249/249/249
f 247/247/247 250/250/250 249/249/249
f 250/250/250 251/251/251 249/249/249
f 251/251/251 252/252/252 249/249/249
f 255/255/255 254/254/254 253/253/253
f 254/254/254 256/256/256 253/253/253
f 256/256/256 257/257/257 253/253/253
f 256/256/256 258/258/258 257/257/257
f 258/258/258 259/259/259 257/257/257
f 260/260/260 259/259/259 258/258/258
f 258/258/258 261/261/261 260/260/260
f 261/261/261 262/262/262 260/260/260
f 261/261/261 263/263/263 262/262/262
f 261/261/261 264/264/264 263/263/263
f 264/264/264 265/265/265 263/263/263
f 268/268/268 267/267/267 266/266/266
f 267/267/267 269/269/269 266/266/266
f 266/266/266 269/269/269 270/270/270
f 271/271/271 266/266/266 270/270/270
f 272/272/272 271/271/271 270/270/270
f 273/273/273 272/272/272 270/270/270
f 274/274/274 272/272/272 273/273/273
f 275/275/275 274/274/274 273/273/273
f 275/275/275 276/276/276 274/274/274
f 277/277/277 274/274/274 276/276/276
f 278/278/278 277/277/277 276/276/276
f 279/279/279 277/277/277 278/278/278
f 280/280/280 277/277/277 279/279/279
f 281/281/281 280/280/280 279/279/279
f 284/284/284 283/283/283 282/282/282
f 283/283/283 285/285/285 282/282/282
f 285/285/285 286/286/286 282/282/282
f 286/286/286 287/287/287 282/282/282
f 288/288/288 287/287/287 286/286/286
f 289/289/289 288/288/288 286/286/286
f 290/290/290 288/288/288 289/289/289
f 291/291/291 290/290/290 289/289/289
f 294/294/294 293/293/293 292/292/292
f 295/295/295 294/294/294 292/292/292
f 298/298/298 297/297/297 296/296/296
f 299/299/299 298/298/298 296/296/296
f 299/299/299 296/296/296 300/300/300
f 301/301/301 298/298/298 299/299/299
f 302/302/302 299/299/299 300/300/300
f 302/302/302 300/300/300 303/303/303
f 304/304/304 302/302/302 303/303/303
f 305/305/305 302/302/302 304/304/304
f 299/299/299 302/302/302 305/305/305
f 306/306/306 305/305/305 304/304/304
f 307/307/307 301/301/301 299/299/299
f 307/307/307 299/299/299 305/305/305
f 301/301/301 307/307/307 308/308/308
f 307/307/307 309/309/309 308/308/308
f 309/309/309 307/307/307 305/305/305
f 310/310/310 308/308/308 309/309/309
f 305/305/305 306/306/306 311/311/311
f 311/311/311 309/309/309 305/305/305
f 306/306/306 312/312/312 311/311/311
f 313/313/313 310/310/310 309/309/309
f 314/314/314 310/310/310 313/313/313
f 314/314/314 313/313/313 315/315/315
f 316/316/316 313/313/313 309/309/309
f 313/313/313 316/316/316 315/315/315
f 316/316/316 309/309/309 311/311/311
f 315/315/315 316/316/316 317/317/317
f 318/318/318 317/317/317 316/316/316
f 319/319/319 318/318/318 316/316/316
f 319/319/319 316/316/316 311/311/311
f 320/320/320 319/319/319 311/311/311
f 320/320/320 311/311/311 312/312/312
f 321/321/321 320/320/320 312/312/312
f 324/324/324 323/323/323 322/322/322
f 323/323/323 325/325/325 322/322/322
f 322/322/322 325/325/325 326/326/326
f 327/327/327 322/322/322 326/326/326
f 328/328/328 327/327/327 326/326/326
f 329/329/329 328/328/328 326/326/326
f 330/330/330 328/328/328 329/329/329
f 331/331/331 330/330/330 329/329/329
f 331/331/331 332/332/332 330/330/330
f 333/333/333 330/330/330 332/332/332
f 334/334/334 333/333/333 332/332/332
f 335/335/335 333/333/333 334/334/334
f 336/336/336 333/333/333 335/335/335
f 337/337/337 336/336/336 335/335/335
f 340/340/340 339/339/339 338/338/338
f 339/339/339 341/341/341 338/338/338
f 341/341/341 342/342/342 338/338/338
f 342/342/342 343/343/343 338/338/338
f 344/344/344 343/343/343 342/342/342
f 345/345/345 344/344/344 342/342/342
f 346/346/346 344/344/344 345/345/345
f 347/347/347 346/346/346 345/345/345
f 350/350/350 349/349/349 348/348/348
f 349/349/349 351/351/351 348/348/348
f 348/348/348 351/351/351 352/352/352
f 349/349/349 353/353/353 351/351/351
f 351/351/351 354/354/354 352/352/352
f 352/352/352 354/354/354 355/355/355
f 354/354/354 356/356/356 355/355/355
f 354/354/354 357/357/357 356/356/356
f 354/354/354 351/351/351 357/357/357
f 357/357/357 358/358/358 356/356/356
f 353/353/353 359/359/359 351/351/351
f 351/351/351 359/359/359 357/357/357
f 359/359/359 353/353/353 360/360/360
f 361/361/361 359/359/359 360/360/360
f 359/359/359 361/361/361 357/357/357
f 360/360/360 362/362/362 361/361/361
f 358/358/358 357/357/357 363/363/363
f 361/361/361 363/363/363 357/357/357
f 364/364/364 358/358/358 363/363/363
f 362/362/362 365/365/365 361/361/361
f 362/362/362 366/366/366 365/365/365
f 365/365/365 366/366/366 367/367/367
f 365/365/365 368/368/368 361/361/361
f 368/368/368 365/365/365 367/367/367
f 361/361/361 368/368/368 363/363/363
f 368/368/368 367/367/367 369/369/369
f 369/369/369 370/370/370 368/368/368
f 370/370/370 371/371/371 368/368/368
f 368/368/368 371/371/371 363/363/363
f 371/371/371 372/372/372 363/363/363
f 363/363/363 372/372/372 364/364/364
f 372/372/372 373/373/373 364/364/364
f 376/376/376 375/375/375 374/374/374
f 377/377/377 376/376/376 374/374/374
f 378/378/378 377/377/377 374/374/374
f 379/379/379 378/378/378 374/374/374
f 379/379/379 380/380/380 378/378/378
f 380/380/380 381/381/381 378/378/378
f 380/380/380 382/382/382 381/381/381
f 382/382/382 383/383/383 381/381/381
f 386/386/386 385/385/385 384/384/384
f 387/387/387 386/386/386 384/384/384
f 387/387/387 384/384/384 388/388/388
f 389/389/389 386/386/386 387/387/387
f 390/390/390 387/387/387 388/388/388
f 390/390/390 388/388/388 391/391/391
f 392/392/392 390/390/390 391/391/391
f 393/393/393 390/390/390 392/392/392
f 387/387/387 390/390/390 393/393/393
f 394/394/394 393/393/393 392/392/392
f 395/395/395 389/389/389 387/387/387
f 395/395/395 387/387/387 393/393/393
f 389/389/389 395/395/395 396/396/396
f 395/395/395 397/397/397 396/396/396
f 397/397/397 395/395/395 393/393/393
f 398/398/398 396/396/396 397/397/397
f 393/393/393 394/394/394 399/399/399
f 399/399/399 397/397/397 393/393/393
f 394/394/394 400/400/400 399/399/399
f 401/401/401 398/398/398 397/397/397
f 402/402/402 398/398/398 401/401/401
f 402/402/402 401/401/401 403/403/403
f 404/404/404 401/401/401 397/397/397
f 401/401/401 404/404/404 403/403/403
f 404/404/404 397/397/397 399/399/399
f 403/403/403 404/404/404 405/405/405
f 406/406/406 405/405/405 404/404/404
f 407/407/407 406/406/406 404/404/404
f 407/407/407 404/404/404 399/399/399
f 408/408/408 407/407/407 399/399/399
f 408/408/408 399/399/399 400/400/400
f 409/409/409 408/408/408 400/400/400
f 412/412/412 411/411/411 410/410/410
f 411/411/411 413/413/413 410/410/410
f 410/410/410 413/413/413 414/414/414
f 415/415/415 410/410/410 414/414/414
f 416/416/416 415/415/415 414/414/414
f 417/417/417 416/416/416 414/414/414
f 418/418/418 416/416/416 417/417/417
f 419/419/419 418/418/418 417/417/417
f 419/419/419 420/420/420 418/418/418
f 421/421/421 418/418/418 420/420/420
f 422/422/422 421/421/421 420/420/420
f 423/423/423 421/421/421 422/422/422
f 424/424/424 421/421/421 423/423/423
f 425/425/425 424/424/424 423/423/423
f 428/428/428 427/427/427 426/426/426
f 427/427/427 429/429/429 426/426/426
f 429/429/429 430/430/430 426/426/426
f 430/430/430 431/431/431 426/426/426
f 432/432/432 431/431/431 430/430/430
f 433/433/433 432/432/432 430/430/430
f 434/434/434 432/432/432 433/433/433
f 435/435/435 434/434/434 433/433/433
f 438/438/438 437/437/437 436/436/436
f 439/439/439 438/438/438 436/436/436
f 442/442/442 441/441/441 440/440/440
f 443/443/443 442/442/442 440/440/440
f 446/446/446 445/445/445 444/444/444
f 447/447/447 446/446/446 444/444/444
f 450/450/450 449/449/449 448/448/448
f 449/449/449 451/451/451 448/448/448
f 451/451/451 449/449/449 452/452/452
f 453/453/453 451/451/451 452/452/452
f 452/452/452 454/454/454 453/453/453
f 454/454/454 455/455/455 453/453/453
f 458/458/458 457/457/457 456/456/456
f 459/459/459 458/458/458 456/456/456
f 462/462/462 461/461/461 460/460/460
f 463/463/463 462/462/462 460/460/460
f 466/466/466 465/465/465 464/464/464
f 465/465/465 467/467/467 464/464/464
f 467/467/467 465/465/465 468/468/468
f 469/469/469 467/467/467 468/468/468
f 468/468/468 470/470/470 469/469/469
f 470/470/470 471/471/471 469/469/469
f 474/474/474 473/473/473 472/472/472
f 475/475/475 474/474/474 472/472/472
f 478/478/478 477/477/477 476/476/476
f 479/479/479 478/478/478 476/476/476
f 482/482/482 481/481/481 480/480/480
f 483/483/483 482/482/482 480/480/480
f 486/486/486 485/485/485 484/484/484
f 487/487/487 486/486/486 484/484/484
f 490/490/490 489/489/489 488/488/488
f 489/489/489 491/491/491 488/488/488
f 491/491/491 489/489/489 492/492/492
f 493/493/493 491/491/491 492/492/492
f 492/492/492 494/494/494 493/493/493
f 494/494/494 495/495/495 493/493/493
f 498/498/498 497/497/497 496/496/496
f 499/499/499 498/498/498 496/496/496
f 502/502/502 501/501/501 500/500/500
f 503/503/503 502/502/502 500/500/500
f 506/506/506 505/505/505 504/504/504
f 507/507/507 506/506/506 504/504/504
f 510/510/510 509/509/509 508/508/508
f 511/511/511 510/510/510 508/508/508
f 514/514/514 513/513/513 512/512/512
f 515/515/515 514/514/514 512/512/512
f 514/514/514 515/515/515 516/516/516
f 515/515/515 517/517/517 516/516/516
f 518/518/518 516/516/516 517/517/517
f 519/519/519 518/518/518 517/517/517
f 522/522/522 521/521/521 520/520/520
f 523/523/523 522/522/522 520/520/520
f 526/526/526 525/525/525 524/524/524
f 527/527/527 526/526/526 524/524/524
f 530/530/530 529/529/529 528/528/528
f 529/529/529 531/531/531 528/528/528
f 531/531/531 529/529/529 532/532/532
f 533/533/533 531/531/531 532/532/532
f 532/532/532 534/534/534 533/533/533
f 534/534/534 535/535/535 533/533/533
f 538/538/538 537/537/537 536/536/536
f 539/539/539 538/538/538 536/536/536
f 542/542/542 541/541/541 540/540/540
f 543/543/543 542/542/542 540/540/540
f 546/546/546 545/545/545 544/544/544
f 545/545/545 547/547/547 544/544/544
f 547/547/547 545/545/545 548/548/548
f 549/549/549 547/547/547 548/548/548
f 548/548/548 550/550/550 549/549/549
f 550/550/550 551/551/551 549/549/549
f 554/554/554 553/553/553 552/552/552
f 555/555/555 554/554/554 552/552/552
f 552/552/552 553/553/553 556/556/556
f 557/557/557 554/554/554 555/555/555
f 558/558/558 557/557/557 555/555/555
f 554/554/554 557/557/557 559/559/559
f 559/559/559 557/557/557 558/558/558
f 553/553/553 554/554/554 559/559/559
f 560/560/560 559/559/559 558/558/558
f 561/561/561 559/559/559 560/560/560
f 553/553/553 559/559/559 561/561/561
f 562/562/562 561/561/561 560/560/560
f 553/553/553 563/563/563 556/556/556
f 563/563/563 553/553/553 561/561/561
f 556/556/556 563/563/563 564/564/564
f 565/565/565 561/561/561 562/562/562
f 563/563/563 561/561/561 565/565/565
f 566/566/566 565/565/565 562/562/562
f 567/567/567 565/565/565 566/566/566
f 563/563/563 565/565/565 567/567/567
f 568/568/568 567/567/567 566/566/566
f 563/563/563 569/569/569 564/564/564
f 569/569/569 563/563/563 567/567/567
f 564/564/564 569/569/569 570/570/570
f 571/571/571 567/567/567 568/568/568
f 569/569/569 567/567/567 571/571/571
f 572/572/572 571/571/571 568/568/568
f 569/569/569 573/573/573 570/570/570
f 573/573/573 569/569/569 571/571/571
f 570/570/570 573/573/573 574/574/574
f 575/575/575 571/571/571 572/572/572
f 574/574/574 575/575/575 572/572/572
f 571/571/571 575/575/575 573/573/573
f 573/573/573 575/575/575 574/574/574
f 578/578/578 577/577/577 576/576/576
f 579/579/579 578/578/578 576/576/576
f 576/576/576 577/577/577 580/580/580
f 581/581/581 578/578/578 579/579/579
f 582/582/582 581/581/581 579/579/579
f 577/577/577 583/583/583 580/580/580
f 580/580/580 583/583/583 584/584/584
f 585/585/585 581/581/581 582/582/582
f 586/586/586 585/585/585 582/582/582
f 583/583/583 587/587/587 584/584/584
f 584/584/584 587/587/587 588/588/588
f 589/589/589 585/585/585 586/586/586
f 590/590/590 589/589/589 586/586/586
f 587/587/587 591/591/591 588/588/588
f 588/588/588 591/591/591 592/592/592
f 593/593/593 589/589/589 590/590/590
f 594/594/594 593/593/593 590/590/590
f 591/591/591 595/595/595 592/592/592
f 592/592/592 595/595/595 596/596/596
f 597/597/597 593/593/593 594/594/594
f 598/598/598 597/597/597 594/594/594
f 596/596/596 599/599/599 598/598/598
f 595/595/595 599/599/599 596/596/596
f 599/599/599 597/597/597 598/598/598
f 585/585/585 589/589/589 600/600/600
f 600/600/600 589/589/589 601/601/601
f 589/589/589 593/593/593 601/601/601
f 602/602/602 585/585/585 600/600/600
f 601/601/601 593/593/593 603/603/603
f 593/593/593 597/597/597 603/603/603
f 581/581/581 585/585/585 602/602/602
f 603/603/603 597/597/597 604/604/604
f 597/597/597 599/599/599 604/604/604
f 605/605/605 581/581/581 602/602/602
f 604/604/604 599/599/599 606/606/606
f 599/599/599 595/595/595 606/606/606
f 578/578/578 581/581/581 605/605/605
f 606/606/606 595/595/595 607/607/607
f 608/608/608 578/578/578 605/605/605
f 595/595/595 591/591/591 607/607/607
f 577/577/577 578/578/578 608/608/608
f 607/607/607 591/591/591 609/609/609
f 610/610/610 577/577/577 608/608/608
f 591/591/591 587/587/587 609/609/609
f 583/583/583 577/577/577 610/610/610
f 609/609/609 587/587/587 611/611/611
f 611/611/611 583/583/583 610/610/610
f 587/587/587 583/583/583 611/611/611
f 614/614/614 613/613/613 612/612/612
f 615/615/615 614/614/614 612/612/612
f 612/612/612 613/613/613 616/616/616
f 617/617/617 614/614/614 615/615/615
f 618/618/618 617/617/617 615/615/615
f 613/613/613 619/619/619 616/616/616
f 616/616/616 619/619/619 620/620/620
f 621/621/621 617/617/617 618/618/618
f 622/622/622 621/621/621 618/618/618
f 619/619/619 623/623/623 620/620/620
f 620/620/620 623/623/623 624/624/624
f 625/625/625 621/621/621 622/622/622
f 626/626/626 625/625/625 622/622/622
f 623/623/623 627/627/627 624/624/624
f 624/624/624 627/627/627 628/628/628
f 629/629/629 625/625/625 626/626/626
f 630/630/630 629/629/629 626/626/626
f 627/627/627 631/631/631 628/628/628
f 628/628/628 631/631/631 632/632/632
f 633/633/633 629/629/629 630/630/630
f 634/634/634 633/633/633 630/630/630
f 632/632/632 635/635/635 634/634/634
f 631/631/631 635/635/635 632/632/632
f 635/635/635 633/633/633 634/634/634
f 621/621/621 625/625/625 636/636/636
f 636/636/636 625/625/625 637/637/637
f 625/625/625 629/629/629 637/637/637
f 638/638/638 621/621/621 636/636/636
f 637/637/637 629/629/629 639/639/639
f 629/629/629 633/633/633 639/639/639
f 617/617/617 621/621/621 638/638/638
f 639/639/639 633/633/633 640/640/640
f 633/633/633 635/635/635 640/640/640
f 641/641/641 617/617/617 638/638/638
f 640/640/640 635/635/635 642/642/642
f 635/635/635 631/631/631 642/642/642
f 614/614/614 617/617/617 641/641/641
f 642/642/642 631/631/631 643/643/643
f 644/644/644 614/614/614 641/641/641
f 631/631/631 627/627/627 643/643/643
f 613/613/613 614/614/614 644/644/644
f 643/643/643 627/627/627 645/645/645
f 646/646/646 613/613/613 644/644/644
f 627/627/627 623/623/623 645/645/645
f 619/619/619 613/613/613 646/646/646
f 645/645/645 623/623/623 647/647/647
f 647/647/647 619/619/619 646/646/646
f 623/623/623 619/619/619 647/647/647
f 650/650/650 649/649/649 648/648/648
f 649/649/649 651/651/651 648/648/648
f 652/652/652 649/649/649 650/650/650
f 648/648/648 651/651/651 653/653/653
f 654/654/654 652/652/652 650/650/650
f 651/651/651 655/655/655 653/653/653
f 656/656/656 652/652/652 654/654/654
f 653/653/653 655/655/655 657/657/657
f 658/658/658 656/656/656 654/654/654
f 655/655/655 659/659/659 657/657/657
f 660/660/660 656/656/656 658/658/658
f 657/657/657 659/659/659 661/661/661
f 662/662/662 660/660/660 658/658/658
f 659/659/659 663/663/663 661/661/661
f 664/664/664 660/660/660 662/662/662
f 661/661/661 663/663/663 665/665/665
f 666/666/666 664/664/664 662/662/662
f 663/663/663 667/667/667 665/665/665
f 668/668/668 664/664/664 666/666/666
f 665/665/665 667/667/667 669/669/669
f 670/670/670 668/668/668 666/666/666
f 667/667/667 671/671/671 669/669/669
f 671/671/671 668/668/668 670/670/670
f 669/669/669 671/671/671 670/670/670
f 674/674/674 673/673/673 672/672/672
f 675/675/675 674/674/674 672/672/672
f 672/672/672 673/673/673 676/676/676
f 677/677/677 674/674/674 675/675/675
f 673/673/673 678/678/678 676/676/676
f 679/679/679 677/677/677 675/675/675
f 676/676/676 678/678/678 680/680/680
f 681/681/681 677/677/677 679/679/679
f 678/678/678 682/682/682 680/680/680
f 683/683/683 681/681/681 679/679/679
f 680/680/680 682/682/682 684/684/684
f 685/685/685 681/681/681 683/683/683
f 682/682/682 686/686/686 684/684/684
f 687/687/687 685/685/685 683/683/683
f 684/684/684 686/686/686 688/688/688
f 689/689/689 685/685/685 687/687/687
f 686/686/686 690/690/690 688/688/688
f 691/691/691 689/689/689 687/687/687
f 688/688/688 690/690/690 692/692/692
f 693/693/693 689/689/689 691/691/691
f 690/690/690 694/694/694 692/692/692
f 695/695/695 693/693/693 691/691/691
f 692/692/692 694/694/694 695/695/695
f 694/694/694 693/693/693 695/695/695
f 698/698/698 697/697/697 696/696/696
f 699/699/699 698/698/698 696/696/696
f 696/696/696 697/697/697 700/700/700
f 701/701/701 698/698/698 699/699/699
f 697/697/697 702/702/702 700/700/700
f 703/703/703 701/701/701 699/699/699
f 700/700/700 702/702/702 704/704/704
f 705/705/705 701/701/701 703/703/703
f 702/702/702 706/706/706 704/704/704
f 707/707/707 705/705/705 703/703/703
f 704/704/704 706/706/706 708/708/708
f 709/709/709 705/705/705 707/707/707
f 706/706/706 710/710/710 708/708/708
f 711/711/711 709/709/709 707/707/707
f 708/708/708 710/710/710 712/712/712
f 713/713/713 709/709/709 711/711/711
f 710/710/710 714/714/714 712/712/712
f 715/715/715 713/713/713 711/711/711
f 712/712/712 714/714/714 716/716/716
f 717/717/717 713/713/713 715/715/715
f 714/714/714 718/718/718 716/716/716
f 719/719/719 717/717/717 715/715/715
f 716/716/716 718/718/718 719/719/719
f 718/718/718 717/717/717 719/719/719
f 722/722/722 721/721/721 720/720/720
f 723/723/723 722/722/722 720/720/720
f 722/722/722 724/724/724 721/721/721
f 723/723/723 720/720/720 725/725/725
f 724/724/724 726/726/726 721/721/721
f 727/727/727 723/723/723 725/725/725
f 724/724/724 728/728/728 726/726/726
f 727/727/727 725/725/725 729/729/729
f 728/728/728 730/730/730 726/726/726
f 731/731/731 727/727/727 729/729/729
f 728/728/728 732/732/732 730/730/730
f 731/731/731 729/729/729 733/733/733
f 732/732/732 734/734/734 730/730/730
f 735/735/735 731/731/731 733/733/733
f 732/732/732 736/736/736 734/734/734
f 735/735/735 733/733/733 737/737/737
f 736/736/736 738/738/738 734/734/734
f 739/739/739 735/735/735 737/737/737
f 736/736/736 740/740/740 738/738/738
f 739/739/739 737/737/737 741/741/741
f 740/740/740 742/742/742 738/738/738
f 743/743/743 739/739/739 741/741/741
f 743/743/743 741/741/741 742/742/742
f 740/740/740 743/743/743 742/742/742
