g Wing_Rigt
v 0.02976898 -0.00851705 0.3995412
v -0.06247168 -0.08364648 -0.0007881164
v -0.3750848 -0.03240693 0.3338325
v -0.3507205 0.09872503 -0.6041117
v -0.03777007 0.0650983 -0.3537807
v -1.113504 0.3302151 -0.4819134
v -0.8806919 0.1347812 0.3849163
v -1.534305 0.1864532 0.5352013
v -1.822375 0.2873404 -0.5322857
v -2.062731 0.1804392 0.4852481
v -2.73544 0.2249791 -0.1452358
v -3.61295 0.1406592 0.5153531
v -0.0008754492 0.08762681 0.3398985
v 0.02976898 -0.00851705 0.3995412
v -0.3750848 -0.03240693 0.3338325
v -0.3693273 0.04861932 0.2764128
v -0.8806919 0.1347812 0.3849163
v -0.02403458 0.1001045 -0.02182133
v -0.3507205 0.09872503 -0.6041117
v -0.03777007 0.0650983 -0.3537807
v -1.113504 0.3302151 -0.4819134
v -0.8757653 0.2115212 0.3298965
v -1.534305 0.1864532 0.5352013
v -1.537989 0.2395316 0.4947098
v -1.822375 0.2873404 -0.5322857
v -2.062731 0.1804392 0.4852481
v -2.069244 0.2055321 0.4824217
v -2.73544 0.2249791 -0.1452358
v -3.61295 0.1406592 0.5153531
v -0.03777007 0.0650983 -0.3537807
v -0.06247168 -0.08364648 -0.0007881164
v 0.02976898 -0.00851705 0.3995412
v -0.0008754492 0.08762681 0.3398985
v -0.02403458 0.1001045 -0.02182133
vt 0.3413086 0.8041992
vt 0.3383789 0.7729492
vt 0.369873 0.8012695
vt 0.3566895 0.7163086
vt 0.3352051 0.7456055
vt 0.4194336 0.6879883
vt 0.4091797 0.8139648
vt 0.4562988 0.8164063
vt 0.5004883 0.706543
vt 0.5146484 0.8027344
vt 0.6181641 0.6943359
vt 0.6508789 0.7631836
vt 0.3398438 0.7993164
vt 0.3413086 0.8041992
vt 0.369873 0.8012695
vt 0.3696289 0.796875
vt 0.4091797 0.8139648
vt 0.3354492 0.7714844
vt 0.3566895 0.7163086
vt 0.3352051 0.7456055
vt 0.4194336 0.6879883
vt 0.4089355 0.8095703
vt 0.4562988 0.8164063
vt 0.4570313 0.8134766
vt 0.5004883 0.706543
vt 0.5146484 0.8027344
vt 0.5151367 0.8027344
vt 0.6181641 0.6943359
vt 0.6508789 0.7631836
vt 0.378418 0.7988281
vt 0.3999023 0.7597656
vt 0.3962402 0.7124023
vt 0.3842773 0.7182617
vt 0.378418 0.7602539
vn 0.5751953 -0.407959 0.7089844
vn 0.4951172 -0.859375 -0.1289063
vn -0.2302246 -0.5639648 0.7929688
vn -0.1281738 0.06988525 -0.9892578
vn 0.7763672 0.1064453 -0.6210938
vn -0.1717529 0.253418 -0.9521484
vn 0.02893066 -0.4987793 0.8662109
vn 0.07623291 -0.4470215 0.8911133
vn -0.2727051 0.06057739 -0.9599609
vn 0.009101868 -0.7080078 0.7060547
vn -0.5195313 0.0557251 -0.8525391
vn -0.972168 -0.05059814 0.2287598
vn 0.5654297 0.6728516 0.4768066
vn 0.5751953 -0.407959 0.7089844
vn -0.2302246 -0.5639648 0.7929688
vn 0.07696533 0.8754883 0.4772949
vn 0.02893066 -0.4987793 0.8662109
vn 0.7045898 0.7075195 -0.05462646
vn -0.1281738 0.06988525 -0.9892578
vn 0.7763672 0.1064453 -0.6210938
vn -0.1717529 0.253418 -0.9521484
vn 0.2434082 0.8574219 0.4538574
vn 0.07623291 -0.4470215 0.8911133
vn 0.0297699 0.8647461 0.5014648
vn -0.2727051 0.06057739 -0.9599609
vn 0.009101868 -0.7080078 0.7060547
vn -0.03518677 0.7236328 0.6894531
vn -0.5195313 0.0557251 -0.8525391
vn -0.972168 -0.05059814 0.2287598
vn 0.7763672 0.1064453 -0.6210938
vn 0.4951172 -0.859375 -0.1289063
vn 0.5751953 -0.407959 0.7089844
vn 0.5654297 0.6728516 0.4768066
vn 0.7045898 0.7075195 -0.05462646
g Wing_Rigt_0
f 3/3/3 2/2/2 1/1/1
f 2/2/2 3/3/3 4/4/4
f 4/4/4 5/5/5 2/2/2
f 6/6/6 4/4/4 3/3/3
f 3/3/3 7/7/7 6/6/6
f 8/8/8 6/6/6 7/7/7
f 9/9/9 6/6/6 8/8/8
f 8/8/8 10/10/10 9/9/9
f 10/10/10 11/11/11 9/9/9
f 11/11/11 10/10/10 12/12/12
f 15/15/15 14/14/14 13/13/13
f 13/13/13 16/16/16 15/15/15
f 16/16/16 17/17/17 15/15/15
f 16/16/16 13/13/13 18/18/18
f 16/16/16 18/18/18 19/19/19
f 18/18/18 20/20/20 19/19/19
f 16/16/16 19/19/19 21/21/21
f 17/17/17 16/16/16 22/22/22
f 21/21/21 22/22/22 16/16/16
f 22/22/22 23/23/23 17/17/17
f 24/24/24 22/22/22 21/21/21
f 23/23/23 22/22/22 24/24/24
f 24/24/24 21/21/21 25/25/25
f 24/24/24 26/26/26 23/23/23
f 25/25/25 27/27/27 24/24/24
f 26/26/26 24/24/24 27/27/27
f 28/28/28 27/27/27 25/25/25
f 27/27/27 29/29/29 26/26/26
f 28/28/28 29/29/29 27/27/27
f 32/32/32 31/31/31 30/30/30
f 30/30/30 33/33/33 32/32/32
f 30/30/30 34/34/34 33/33/33
