g WoodenTile-L1-Broken-P11
v 0.2688546 0.3234478 0.01299489
v 0.2688546 -0.007833137 0.07346928
v 0.2688546 -0.007833137 0.0129948
v 0.4066666 -0.007833146 -0.8042584
v 0.4650445 -0.007833147 -0.7886343
v 0.4371255 -0.007833147 -0.8002216
v 0.5078172 -0.007833146 -0.745948
v 0.4890622 -0.007833146 -0.7702815
v 0.2741549 -0.007833146 -0.763093
v 0.3100259 -0.007833146 -0.7989588
v 0.3362419 -0.007833146 -0.8042584
v 0.2886044 -0.007833146 -0.7845113
v 0.2688546 -0.007833137 0.0129948
v 0.2688545 -0.007833146 -0.7368807
v 0.8934796 -0.007833163 -0.07709176
v 0.9159874 -0.007833152 -0.02897056
v 0.2688546 -0.007833137 0.07346928
v 0.8201892 -0.007833142 0.2211989
v 0.2688546 -0.007833137 0.0129948
v 0.2688546 0.3328834 0.01127245
v 0.2688546 0.3234478 0.01299489
v 0.2688545 -0.007833146 -0.7368807
v 0.2688545 0.3328835 -0.7368808
v 0.2741549 0.3328834 -0.7630932
v 0.2741549 -0.007833146 -0.763093
v 0.2737038 0.3571531 -0.7350883
v 0.2737039 0.3571531 0.008141474
v 0.2886044 0.3328834 -0.7845114
v 0.2886044 -0.007833146 -0.7845113
v 0.278657 0.3571531 -0.7604397
v 0.2852075 0.3739715 -0.7316868
v 0.2852075 0.3739715 0.008153747
v 0.3100259 0.3328835 -0.798959
v 0.3100259 -0.007833146 -0.7989588
v 0.2923819 0.3571531 -0.7808978
v 0.2891946 0.3739715 -0.7545316
v 0.3013895 0.3841586 -0.7270558
v 0.3013895 0.3841586 0.01063003
v 0.3362419 0.3328835 -0.8042586
v 0.3362419 -0.007833146 -0.8042584
v 0.312724 0.3571531 -0.7947009
v 0.3009406 0.3739714 -0.7721741
v 0.4066666 0.3328835 -0.8042586
v 0.4066666 -0.007833146 -0.8042584
v 0.3379317 0.3571531 -0.7996822
v 0.4371255 0.3328835 -0.8002217
v 0.4073079 0.3571531 -0.7993934
v 0.3183346 0.3739714 -0.784088
v 0.3038467 0.3841586 -0.7457921
v 0.4846348 0.3841586 -0.7224799
v 0.4078626 0.3841586 -0.7675312
v 0.3125049 0.3841586 -0.7588056
v 0.3252971 0.3841586 -0.7676136
v 0.3408574 0.3739714 -0.7881321
v 0.4369013 0.3571531 -0.7954484
v 0.4650445 0.3328834 -0.7886345
v 0.3437146 0.3841586 -0.7701133
v 0.4079244 0.3739714 -0.7869805
v 0.4638262 0.3571531 -0.7842084
v 0.4890622 0.3328834 -0.7702817
v 0.4353021 0.3739714 -0.7832996
v 0.4869888 0.3571531 -0.7664056
v 0.5078172 0.3328835 -0.7459481
v 0.4596032 0.3739714 -0.7730682
v 0.4319656 0.3841586 -0.7642811
v 0.452284 0.3841586 -0.7557011
v 0.4805084 0.3739715 -0.7568631
v 0.5052142 0.3571531 -0.7426209
v 0.4697633 0.3841586 -0.7421115
v 0.4973798 0.3739715 -0.7346574
v 0.8807541 0.3739715 -0.07151747
v 0.8896831 0.3571531 -0.07533874
v 0.869227 0.3841587 -0.06626129
v 0.3105624 0.3841586 0.01308789
v 0.8861102 0.3841586 -0.02859646
v 0.3124029 0.3841586 0.01358107
v 0.9002607 0.3739715 -0.02877099
v 0.886525 0.3841587 0.02727185
v 0.3272542 0.3841586 0.01756043
v 0.9006855 0.3739715 0.02789026
v 0.8672339 0.3841586 0.08373451
v 0.8292352 0.3841586 0.1520659
v 0.8416864 0.3739714 0.1572617
v 0.8815972 0.3739714 0.08469796
v 0.8502349 0.3571531 0.1626225
v 0.8923073 0.3571531 0.08581874
v 0.9114264 0.3571531 0.02861381
v 0.8969495 0.3328834 0.08620607
v 0.8523616 0.3328834 0.1676227
v 0.9112155 0.3571531 -0.02889623
v 0.9161006 0.3328834 0.02885238
v 0.9162232 -0.007833148 0.02864875
v 0.9159874 -0.007833152 -0.02897056
v 0.8934796 0.3328834 -0.07709178
v 0.9159874 0.3328834 -0.02897055
v 0.8934796 -0.007833163 -0.07709176
v 0.5078172 -0.007833146 -0.745948
v 0.4890622 -0.007833146 -0.7702815
v 0.5078172 0.3328835 -0.7459481
v 0.4890622 0.3328834 -0.7702817
v 0.4650445 -0.007833147 -0.7886343
v 0.4650445 0.3328834 -0.7886345
v 0.4371255 -0.007833147 -0.8002216
v 0.4371255 0.3328835 -0.8002217
v 0.9159874 -0.007833152 -0.02897056
v 0.8966802 -0.007833146 0.08631399
v 0.9162232 -0.007833148 0.02864875
v 0.8201892 -0.007833142 0.2211989
v 0.8969495 0.3328834 0.08620607
v 0.9162232 -0.007833148 0.02864875
v 0.8966802 -0.007833146 0.08631399
v 0.8523616 0.3328834 0.1676227
v 0.8201892 -0.007833142 0.2211989
v 0.2688546 0.3234478 0.01299489
v 0.8201892 -0.007833142 0.2211989
v 0.2688546 -0.007833137 0.07346928
v 0.8502349 0.3571531 0.1626225
v 0.8523616 0.3328834 0.1676227
v 0.2852075 0.3739715 0.008153747
v 0.2737039 0.3571531 0.008141474
v 0.2688546 0.3328834 0.01127245
v 0.3124029 0.3841586 0.01358107
v 0.3105624 0.3841586 0.01308789
v 0.3013895 0.3841586 0.01063003
v 0.3272542 0.3841586 0.01756043
v 0.8292352 0.3841586 0.1520659
v 0.8416864 0.3739714 0.1572617
vt 0.4645996 0.2744141
vt 0.4645996 0.2541504
vt 0.4645996 0.2744141
vt 0.1408691 0.7646484
vt 0.1328125 0.7666016
vt 0.1367188 0.7651367
vt 0.1269531 0.7724609
vt 0.1295166 0.769043
vt 0.1590576 0.7700195
vt 0.1541748 0.7651367
vt 0.1505127 0.7646484
vt 0.1571045 0.7670898
vt 0.1602783 0.8769531
vt 0.15979 0.7739258
vt 0.08807373 0.8701172
vt 0.08648682 0.8769531
vt 0.1601563 0.8852539
vt 0.09637451 0.9111328
vt 0.4645996 0.2744141
vt 0.4645996 0.2749023
vt 0.4645996 0.2744141
vt 0.4645996 0.5253906
vt 0.4645996 0.5253906
vt 0.4663086 0.5341797
vt 0.4663086 0.5341797
vt 0.4660645 0.5249023
vt 0.4660645 0.2758789
vt 0.4709473 0.5415039
vt 0.4709473 0.5415039
vt 0.4677734 0.5332031
vt 0.4697266 0.5234375
vt 0.4697266 0.2758789
vt 0.4777832 0.5463867
vt 0.4777832 0.5463867
vt 0.472168 0.5400391
vt 0.4711914 0.53125
vt 0.4750977 0.5219727
vt 0.4750977 0.2751465
vt 0.4863281 0.5478516
vt 0.4863281 0.5478516
vt 0.4787598 0.5449219
vt 0.4748535 0.5371094
vt 0.5092773 0.5478516
vt 0.5092773 0.5478516
vt 0.4868164 0.5463867
vt 0.519043 0.5463867
vt 0.5092773 0.5463867
vt 0.4804688 0.5410156
vt 0.4758301 0.5283203
vt 0.5341797 0.5205078
vt 0.5092773 0.5356445
vt 0.4785156 0.5327148
vt 0.482666 0.5356445
vt 0.487793 0.5424805
vt 0.519043 0.5449219
vt 0.527832 0.5424805
vt 0.4887695 0.5366211
vt 0.5097656 0.5419922
vt 0.527832 0.5410156
vt 0.5356445 0.5366211
vt 0.5185547 0.5410156
vt 0.5351563 0.5351563
vt 0.5419922 0.5283203
vt 0.5263672 0.5375977
vt 0.5170898 0.534668
vt 0.5239258 0.5317383
vt 0.5332031 0.5322266
vt 0.5410156 0.5273438
vt 0.5297852 0.5273438
vt 0.5385742 0.5244141
vt 0.6625977 0.3027344
vt 0.6655273 0.3039551
vt 0.6586914 0.3007813
vt 0.4780273 0.2744141
vt 0.6645508 0.2883301
vt 0.4785156 0.2741699
vt 0.6689453 0.2883301
vt 0.6645508 0.2695313
vt 0.4833984 0.2727051
vt 0.6689453 0.2692871
vt 0.6582031 0.2507324
vt 0.6459961 0.2277832
vt 0.6499023 0.2260742
vt 0.6630859 0.2502441
vt 0.652832 0.2242432
vt 0.6665039 0.25
vt 0.6723633 0.269043
vt 0.6679688 0.2498779
vt 0.6533203 0.2225342
vt 0.6723633 0.2883301
vt 0.6743164 0.269043
vt 0.6743164 0.269043
vt 0.6743164 0.2883301
vt 0.6669922 0.3044434
vt 0.6743164 0.2883301
vt 0.6669922 0.3044434
vt 0.5419922 0.5283203
vt 0.5356445 0.5366211
vt 0.5419922 0.5283203
vt 0.5356445 0.5366211
vt 0.527832 0.5424805
vt 0.527832 0.5424805
vt 0.519043 0.5463867
vt 0.519043 0.5463867
vt 0.08648682 0.8769531
vt 0.09063721 0.8911133
vt 0.08831787 0.8833008
vt 0.09637451 0.9111328
vt 0.6679688 0.2498779
vt 0.6743164 0.269043
vt 0.6679688 0.2497559
vt 0.6533203 0.2225342
vt 0.6430664 0.2045898
vt 0.6035156 0.5771484
vt 0.628418 0.565918
vt 0.6035156 0.5737305
vt 0.6298828 0.5693359
vt 0.6298828 0.5688477
vt 0.6040039 0.5771484
vt 0.6035156 0.5771484
vt 0.6035156 0.5771484
vt 0.6054688 0.5771484
vt 0.6054688 0.5771484
vt 0.6049805 0.5771484
vt 0.605957 0.5766602
vt 0.6289063 0.5698242
vt 0.6293945 0.5693359
vn -1 0 1.043081E-05
vn -1 0 0
vn -1 0 0
vn 0 -1 0
vn 0 -1 0
vn 0 -1 0
vn 0 -1 0
vn 0 -1 0
vn 0 -1 0
vn 0 -1 0
vn 0 -1 0
vn 0 -1 0
vn 0 -1 0
vn 0 -1 0
vn 0 -1 1.192093E-07
vn 0 -1 1.192093E-07
vn 0 -1 0
vn 0 -1 0
vn -1 0 0
vn -0.9960938 0.08898926 6.556511E-07
vn -1 0 1.043081E-05
vn -0.9951172 0 -0.09960938
vn -0.9897461 0.1009521 -0.100647
vn -0.9169922 0.1043701 -0.3850098
vn -0.9223633 -1.788139E-07 -0.3862305
vn -0.9160156 0.3908691 -0.0904541
vn -0.9248047 0.3808594 0
vn -0.7036133 0.1048584 -0.7026367
vn -0.7070313 -2.980232E-07 -0.7070313
vn -0.8491211 0.3952637 -0.3505859
vn -0.690918 0.7202148 -0.06152344
vn -0.6875 0.7260742 0
vn -0.3862305 0.09997559 -0.9169922
vn -0.3862305 -4.172325E-07 -0.9223633
vn -0.6499023 0.3989258 -0.6469727
vn -0.6445313 0.7211914 -0.2541504
vn -0.2858887 0.9580078 -0.01951599
vn -0.2440186 0.9697266 0
vn -0.1000977 0.09484863 -0.9902344
vn -0.09954834 -4.172325E-07 -0.9951172
vn -0.3557129 0.3903809 -0.8491211
vn -0.4851074 0.7304688 -0.480957
vn 0.06555176 0.09667969 -0.9931641
vn 0.06585693 -4.172325E-07 -0.9980469
vn -0.08746338 0.3847656 -0.9189453
vn 0.2568359 0.09411621 -0.9619141
vn 0.06439209 0.3979492 -0.9150391
vn -0.2590332 0.7290039 -0.6337891
vn -0.2893066 0.9521484 -0.09973145
vn 0.2276611 0.9624023 -0.1491699
vn 0.02197266 0.9692383 -0.2453613
vn -0.2072754 0.9575195 -0.2003174
vn -0.1063843 0.9575195 -0.2675781
vn -0.05291748 0.7338867 -0.6772461
vn 0.239502 0.3903809 -0.8891602
vn 0.4960938 0.08953857 -0.8637695
vn -0.01379395 0.9643555 -0.263916
vn 0.05227661 0.7524414 -0.65625
vn 0.4631348 0.3793945 -0.8007813
vn 0.7021484 0.0848999 -0.7070313
vn 0.1766357 0.7451172 -0.6430664
vn 0.6572266 0.3671875 -0.6582031
vn 0.828125 0.08129883 -0.5546875
vn 0.3427734 0.7358398 -0.5839844
vn 0.07049561 0.965332 -0.2504883
vn 0.1369629 0.9638672 -0.2283936
vn 0.4904785 0.7250977 -0.4838867
vn 0.7763672 0.3583984 -0.5185547
vn 0.1977539 0.9614258 -0.1904297
vn 0.5795898 0.7182617 -0.3845215
vn 0.6767578 0.6484375 -0.348877
vn 0.8359375 0.3388672 -0.4321289
vn 0.3044434 0.9394531 -0.1573486
vn 0 1 1.788139E-07
vn 0.3395996 0.9370117 -0.08428955
vn 0 1 0
vn 0.7241211 0.6704102 -0.1634521
vn 0.3322754 0.9414063 0.05703735
vn 0 1 2.980232E-07
vn 0.7270508 0.6767578 0.1159668
vn 0.3034668 0.9423828 0.1402588
vn 0.2504883 0.9580078 0.1392822
vn 0.6508789 0.6689453 0.359375
vn 0.6826172 0.6665039 0.2998047
vn 0.824707 0.3400879 0.4523926
vn 0.8583984 0.3525391 0.3730469
vn 0.9199219 0.3635254 0.1464844
vn 0.9135742 0.0892334 0.3972168
vn 0.8735352 0.07739258 0.4807129
vn 0.9106445 0.361084 -0.2001953
vn 0.9829102 0.09399414 0.1574707
vn 0.9873047 -9.88245E-05 0.1602783
vn 0.9755859 0.0001655817 -0.2188721
vn 0.8837891 0.08538818 -0.4597168
vn 0.972168 0.09387207 -0.2145996
vn 0.8867188 0 -0.4619141
vn 0.8310547 -2.384186E-07 -0.5561523
vn 0.7055664 -2.980232E-07 -0.7084961
vn 0.828125 0.08129883 -0.5546875
vn 0.7021484 0.0848999 -0.7070313
vn 0.4995117 -4.172325E-07 -0.8662109
vn 0.4960938 0.08953857 -0.8637695
vn 0.2595215 -4.172325E-07 -0.9658203
vn 0.2568359 0.09411621 -0.9619141
vn 0 -1 1.192093E-07
vn 0 -1 0
vn 0 -1 0
vn 0 -1 0
vn 0.9135742 0.0892334 0.3972168
vn 0.9873047 -9.88245E-05 0.1602783
vn 0.9130859 -0.002277374 0.407959
vn 0.8735352 0.07739258 0.4807129
vn 0.8696289 -0.004570007 0.4931641
vn -0.2548828 0.1737061 0.9511719
vn -0.2548828 0.1737061 0.9511719
vn -0.2548828 0.1737061 0.9511719
vn -0.2548828 0.1737061 0.9511719
vn -0.2548828 0.1737061 0.9511719
vn -0.2548828 0.1737061 0.9511719
vn -0.2548828 0.1737061 0.9511719
vn -0.2548828 0.1737061 0.9511719
vn -0.2548828 0.1737061 0.9511719
vn -0.2548828 0.1737061 0.9511719
vn -0.2548828 0.1737061 0.9511719
vn -0.2548828 0.1737061 0.9511719
vn -0.2548828 0.1737061 0.9511719
vn -0.2548828 0.1737061 0.9511719
g WoodenTile-L1-Broken-P11_0
f 3/3/3 2/2/2 1/1/1
f 6/6/6 5/5/5 4/4/4
f 5/5/5 7/7/7 4/4/4
f 8/8/8 7/7/7 5/5/5
f 7/7/7 9/9/9 4/4/4
f 9/9/9 10/10/10 4/4/4
f 4/4/4 10/10/10 11/11/11
f 12/12/12 10/10/10 9/9/9
f 13/13/13 9/9/9 7/7/7
f 14/14/14 9/9/9 13/13/13
f 15/15/15 13/13/13 7/7/7
f 15/15/15 16/16/16 13/13/13
f 16/16/16 17/17/17 13/13/13
f 18/18/18 17/17/17 16/16/16
f 21/21/21 20/20/20 19/19/19
f 19/19/19 20/20/20 22/22/22
f 22/22/22 20/20/20 23/23/23
f 23/23/23 24/24/24 22/22/22
f 25/25/25 22/22/22 24/24/24
f 23/23/23 20/20/20 26/26/26
f 23/23/23 26/26/26 24/24/24
f 27/27/27 26/26/26 20/20/20
f 24/24/24 28/28/28 25/25/25
f 29/29/29 25/25/25 28/28/28
f 30/30/30 24/24/24 26/26/26
f 24/24/24 30/30/30 28/28/28
f 26/26/26 27/27/27 31/31/31
f 26/26/26 31/31/31 30/30/30
f 32/32/32 31/31/31 27/27/27
f 28/28/28 33/33/33 29/29/29
f 34/34/34 29/29/29 33/33/33
f 35/35/35 28/28/28 30/30/30
f 28/28/28 35/35/35 33/33/33
f 36/36/36 30/30/30 31/31/31
f 30/30/30 36/36/36 35/35/35
f 31/31/31 32/32/32 37/37/37
f 31/31/31 37/37/37 36/36/36
f 38/38/38 37/37/37 32/32/32
f 33/33/33 39/39/39 34/34/34
f 40/40/40 34/34/34 39/39/39
f 41/41/41 33/33/33 35/35/35
f 33/33/33 41/41/41 39/39/39
f 42/42/42 35/35/35 36/36/36
f 35/35/35 42/42/42 41/41/41
f 39/39/39 43/43/43 40/40/40
f 44/44/44 40/40/40 43/43/43
f 45/45/45 39/39/39 41/41/41
f 39/39/39 45/45/45 43/43/43
f 43/43/43 46/46/46 44/44/44
f 43/43/43 47/47/47 46/46/46
f 47/47/47 43/43/43 45/45/45
f 41/41/41 48/48/48 45/45/45
f 48/48/48 41/41/41 42/42/42
f 36/36/36 49/49/49 42/42/42
f 49/49/49 36/36/36 37/37/37
f 37/37/37 50/50/50 49/49/49
f 50/50/50 51/51/51 49/49/49
f 52/52/52 42/42/42 49/49/49
f 42/42/42 52/52/52 48/48/48
f 49/49/49 53/53/53 52/52/52
f 53/53/53 48/48/48 52/52/52
f 51/51/51 53/53/53 49/49/49
f 54/54/54 45/45/45 48/48/48
f 48/48/48 53/53/53 54/54/54
f 45/45/45 54/54/54 47/47/47
f 55/55/55 46/46/46 47/47/47
f 46/46/46 55/55/55 56/56/56
f 57/57/57 54/54/54 53/53/53
f 57/57/57 53/53/53 51/51/51
f 58/58/58 47/47/47 54/54/54
f 54/54/54 57/57/57 58/58/58
f 47/47/47 58/58/58 55/55/55
f 51/51/51 58/58/58 57/57/57
f 59/59/59 56/56/56 55/55/55
f 56/56/56 59/59/59 60/60/60
f 61/61/61 55/55/55 58/58/58
f 58/58/58 51/51/51 61/61/61
f 55/55/55 61/61/61 59/59/59
f 62/62/62 60/60/60 59/59/59
f 60/60/60 62/62/62 63/63/63
f 64/64/64 59/59/59 61/61/61
f 59/59/59 64/64/64 62/62/62
f 65/65/65 61/61/61 51/51/51
f 61/61/61 65/65/65 64/64/64
f 65/65/65 51/51/51 66/66/66
f 66/66/66 64/64/64 65/65/65
f 66/66/66 51/51/51 50/50/50
f 67/67/67 62/62/62 64/64/64
f 64/64/64 66/66/66 67/67/67
f 68/68/68 63/63/63 62/62/62
f 62/62/62 67/67/67 68/68/68
f 69/69/69 67/67/67 66/66/66
f 69/69/69 66/66/66 50/50/50
f 67/67/67 69/69/69 70/70/70
f 70/70/70 68/68/68 67/67/67
f 50/50/50 70/70/70 69/69/69
f 70/70/70 71/71/71 68/68/68
f 70/70/70 50/50/50 71/71/71
f 68/68/68 72/72/72 63/63/63
f 72/72/72 68/68/68 71/71/71
f 73/73/73 71/71/71 50/50/50
f 37/37/37 73/73/73 50/50/50
f 38/38/38 73/73/73 37/37/37
f 74/74/74 73/73/73 38/38/38
f 73/73/73 74/74/74 75/75/75
f 73/73/73 75/75/75 71/71/71
f 76/76/76 75/75/75 74/74/74
f 71/71/71 77/77/77 72/72/72
f 77/77/77 71/71/71 75/75/75
f 76/76/76 78/78/78 75/75/75
f 79/79/79 78/78/78 76/76/76
f 77/77/77 75/75/75 80/80/80
f 78/78/78 80/80/80 75/75/75
f 81/81/81 78/78/78 79/79/79
f 81/81/81 79/79/79 82/82/82
f 82/82/82 83/83/83 81/81/81
f 81/81/81 84/84/84 78/78/78
f 84/84/84 81/81/81 83/83/83
f 80/80/80 78/78/78 84/84/84
f 83/83/83 85/85/85 84/84/84
f 84/84/84 86/86/86 80/80/80
f 86/86/86 84/84/84 85/85/85
f 80/80/80 87/87/87 77/77/77
f 87/87/87 80/80/80 86/86/86
f 86/86/86 85/85/85 88/88/88
f 86/86/86 88/88/88 87/87/87
f 89/89/89 88/88/88 85/85/85
f 90/90/90 77/77/77 87/87/87
f 90/90/90 72/72/72 77/77/77
f 91/91/91 87/87/87 88/88/88
f 87/87/87 91/91/91 90/90/90
f 91/91/91 88/88/88 92/92/92
f 92/92/92 93/93/93 91/91/91
f 72/72/72 90/90/90 94/94/94
f 94/94/94 63/63/63 72/72/72
f 95/95/95 90/90/90 91/91/91
f 95/95/95 91/91/91 93/93/93
f 95/95/95 94/94/94 90/90/90
f 95/95/95 93/93/93 94/94/94
f 96/96/96 94/94/94 93/93/93
f 96/96/96 97/97/97 94/94/94
f 63/63/63 94/94/94 97/97/97
f 97/97/97 98/98/98 63/63/63
f 100/100/100 99/99/99 98/98/98
f 98/98/98 101/101/101 100/100/100
f 102/102/102 100/100/100 101/101/101
f 101/101/101 103/103/103 102/102/102
f 104/104/104 102/102/102 103/103/103
f 103/103/103 44/44/44 104/104/104
f 107/107/107 106/106/106 105/105/105
f 106/106/106 108/108/108 105/105/105
f 111/111/111 110/110/110 109/109/109
f 109/109/109 112/112/112 111/111/111
f 113/113/113 111/111/111 112/112/112
f 116/116/116 115/115/115 114/114/114
f 115/115/115 117/117/117 114/114/114
f 118/118/118 117/117/117 115/115/115
f 117/117/117 119/119/119 114/114/114
f 119/119/119 120/120/120 114/114/114
f 120/120/120 121/121/121 114/114/114
f 122/122/122 119/119/119 117/117/117
f 123/123/123 119/119/119 122/122/122
f 124/124/124 119/119/119 123/123/123
f 125/125/125 122/122/122 117/117/117
f 126/126/126 125/125/125 117/117/117
f 127/127/127 126/126/126 117/117/117
