g WoodenTile-L1-Broken-P2
v 0.5357721 0.3842408 0.7358606
v 0.8509734 0.3713311 0.1602322
v 0.8648587 0.3842408 0.1615961
v -0.5121784 0.3565384 0.7669411
v -0.5815261 0.3713311 0.6426482
v -0.5840244 0.3565384 0.6381705
v 0.813574 -0.03027859 0.1577709
v 0.9919691 0.2842408 0.2139099
v 0.813574 0.329918 0.1577709
v 0.9919691 0.2842408 0.2139099
v 0.813574 -0.03027859 0.1577709
v 0.964882 -0.01252783 0.2608262
v 0.9919691 0.2842408 0.2139099
v 0.8418789 0.3365731 0.1641403
v 0.813574 0.329918 0.1577709
v 0.9919691 0.2842408 0.2139099
v 0.8496255 0.3565384 0.1625714
v 0.8418789 0.3365731 0.1641403
v 0.9010965 0.3842408 0.171306
v 0.8648587 0.3842408 0.1615961
v 0.8496255 0.3565384 0.1625714
v 0.8648587 0.3842408 0.1615961
v 0.8509734 0.3713311 0.1602322
v 0.9919691 0.2842408 0.2139099
v 0.8648587 0.3842408 0.1615961
v 0.8496255 0.3565384 0.1625714
v 0.9919691 0.2842408 0.2139099
v 0.9691337 0.3549515 0.1948832
v 0.9010965 0.3842408 0.171306
v -0.6348151 0.3549515 0.77394
v -0.5857368 0.3842408 0.6637912
v -0.5978694 0.3842408 0.6965106
v -0.5857368 0.3842408 0.6637912
v -0.5840244 0.3565384 0.6381705
v -0.5815261 0.3713311 0.6426482
v -0.6348151 0.3549515 0.77394
v -0.5840244 0.3565384 0.6381705
v -0.5857368 0.3842408 0.6637912
v -0.6348151 0.3549515 0.77394
v -0.5844359 0.3365731 0.6241434
v -0.5840244 0.3565384 0.6381705
v -0.6348151 0.3549515 0.77394
v -0.5717995 0.329918 0.58502
v -0.5844359 0.3365731 0.6241434
v -0.6348151 0.3549515 0.77394
v -0.6601463 0.2842408 0.7886437
v -0.5717995 0.329918 0.58502
v -0.6443377 -0.01252783 0.8160252
v -0.5717995 -0.03027855 0.5850201
v -0.7109489 -0.01252783 0.7006512
v -0.5717995 -0.03027855 0.5850201
v 0.813574 -0.03027859 0.1577709
v -0.3024823 -0.03027855 -0.1412754
v 0.4871357 -0.01252783 0.9479333
v 0.6443374 -0.01252783 0.8160255
v 0.5773661 -0.01252783 0.8958389
v -0.6443377 -0.01252783 0.8160252
v -0.38453 -0.01252783 0.9660254
v 0.3845297 -0.01252783 0.9660255
v -0.4871361 -0.01252783 0.9479332
v -0.5773664 -0.01252783 0.8958387
v -0.6443377 -0.01252783 0.8160252
v 0.813574 -0.03027859 0.1577709
v -0.5717995 -0.03027855 0.5850201
v 0.813574 -0.03027859 0.1577709
v 0.6443374 -0.01252783 0.8160255
v 0.964882 -0.01252783 0.2608262
v -0.6601463 0.2842408 0.7886437
v -0.6443377 -0.01252783 0.8160252
v -0.7109489 -0.01252783 0.7006512
v -0.6443377 0.2842408 0.8160251
v -0.6348151 0.3549515 0.77394
v -0.5773664 0.2842408 0.8958385
v -0.5773664 -0.01252783 0.8958387
v -0.4871361 0.2842408 0.947933
v -0.4871361 -0.01252783 0.9479332
v -0.38453 0.2842408 0.9660252
v -0.38453 -0.01252783 0.9660254
v 0.3845297 0.2842408 0.9660254
v 0.3845297 -0.01252783 0.9660255
v 0.4871357 0.2842408 0.9479332
v 0.4871357 -0.01252783 0.9479333
v 0.5773661 0.2842408 0.8958387
v 0.5773661 -0.01252783 0.8958389
v 0.6443374 0.2842408 0.8160254
v 0.6443374 -0.01252783 0.8160255
v 0.964882 -0.01252783 0.2608262
v 0.9919691 0.2842408 0.2139099
v 0.6189721 0.3549515 0.8013808
v 0.9691337 0.3549515 0.1948832
v 0.9010965 0.3842408 0.171306
v 0.5585392 0.3549515 0.8734019
v 0.4771182 0.3549515 0.9204103
v 0.5577348 0.3842408 0.7660254
v 0.3845297 0.3549515 0.9367361
v 0.4529338 0.3842408 0.853964
v 0.5130873 0.3842408 0.8192344
v 0.5357721 0.3842408 0.7358606
v 0.8648587 0.3842408 0.1615961
v 0.5124306 0.3842408 0.7753463
v -0.38453 0.3549515 0.936736
v 0.3845297 0.3842408 0.8660254
v -0.38453 0.3842408 0.8660253
v -0.4771185 0.3549515 0.9204102
v -0.5585395 0.3549515 0.8734017
v 0.4069878 0.3842408 0.8374946
v -0.452934 0.3842408 0.8539639
v -0.5130875 0.3842408 0.8192341
v -0.449635 0.3842408 0.8302387
v -0.6189724 0.3549515 0.8013805
v -0.5577351 0.3842408 0.7660252
v -0.5978694 0.3842408 0.6965106
v -0.52412 0.3842408 0.7748405
v -0.5857368 0.3842408 0.6637912
v -0.5121784 0.3713311 0.7669411
v -0.5027446 0.3842408 0.8027198
v -0.4927553 0.3713311 0.792274
v -0.4796617 0.3842408 0.8188332
v -0.4729364 0.371331 0.8061089
v -0.4179789 0.3842408 0.8337302
v -0.4462624 0.371331 0.8162408
v -0.3703263 0.3842408 0.8340363
v -0.4171478 0.371331 0.819452
v -0.3702487 0.371331 0.8197533
v -0.4927554 0.3565384 0.7922739
v -0.5121784 0.3565384 0.7669411
v -0.4729364 0.3565384 0.8061089
v -0.5121784 0.3713311 0.7669411
v -0.5815261 0.3713311 0.6426482
v -0.5857368 0.3842408 0.6637912
v -0.4462624 0.3565384 0.8162408
v -0.4171478 0.3565384 0.819452
v -0.3702487 0.3565384 0.8197533
v 0.4058188 0.371331 0.8232061
v 0.4058188 0.3565384 0.8232061
v 0.4371361 0.371331 0.8179038
v 0.4371361 0.3565384 0.8179038
v 0.4411325 0.3842408 0.8317137
v 0.4606536 0.371331 0.8080807
v 0.4606537 0.3565384 0.8080806
v 0.4679724 0.3842408 0.8205028
v 0.4935766 0.3842408 0.8002521
v 0.4832877 0.3713311 0.7901791
v 0.4832878 0.3565384 0.7901791
v 0.5005502 0.3713311 0.7673757
v 0.5005502 0.3565384 0.7673756
v 0.5234765 0.3713311 0.7285922
v 0.8509734 0.3713311 0.1602322
v 0.5234765 0.3565384 0.7285922
v 0.8509734 0.3713311 0.1602322
v 0.8496255 0.3565384 0.1625714
v 0.5234765 0.3565384 0.7285922
v 0.8418789 0.3365731 0.1641403
v 0.8496255 0.3565384 0.1625714
v 0.5177476 0.3365731 0.7252055
v 0.813574 0.329918 0.1577709
v 0.5005502 0.3565384 0.7673756
v 0.4909509 0.3299179 0.709365
v -0.3024823 0.329918 -0.1412755
v 0.4950146 0.3365731 0.7636618
v 0.4832878 0.3565384 0.7901791
v -0.4663306 0.329918 0.7646412
v -0.5717995 0.329918 0.58502
v -0.4805887 0.329918 0.7460447
v -0.5066142 0.3365731 0.7632604
v -0.5844359 0.3365731 0.6241434
v -0.5840244 0.3565384 0.6381705
v -0.5121784 0.3565384 0.7669411
v -0.4881009 0.3365731 0.7874067
v -0.4927554 0.3565384 0.7922739
v -0.4698028 0.3365731 0.80018
v -0.4729364 0.3565384 0.8061089
v -0.444691 0.3365731 0.8097186
v -0.4462624 0.3565384 0.8162408
v -0.4551457 0.329918 0.7724488
v -0.3700433 0.329918 0.7819701
v -0.4167606 0.3365731 0.8127992
v -0.4171478 0.3565384 0.819452
v -0.4373408 0.329918 0.7792119
v -0.3702059 0.3365731 0.8130983
v -0.3702487 0.3565384 0.8197533
v -0.4149494 0.329918 0.7816817
v 0.4052741 0.3365731 0.8165485
v 0.4058188 0.3565384 0.8232061
v 0.435274 0.3365731 0.8114692
v 0.4371361 0.3565384 0.8179038
v 0.4572436 0.3365731 0.8022926
v 0.4606537 0.3565384 0.8080806
v 0.4784937 0.3365731 0.7854856
v 0.4412931 0.329918 0.7752201
v 0.4265643 0.329918 0.7813722
v 0.4027263 0.329918 0.7854083
v 0.4560704 0.329918 0.7635326
v 0.4691225 0.329918 0.746291
v -0.3024823 0.329918 -0.1412755
v 0.813574 -0.03027859 0.1577709
v 0.813574 0.329918 0.1577709
v -0.3024823 -0.03027855 -0.1412754
v -0.5717995 0.329918 0.58502
v -0.3024823 -0.03027855 -0.1412754
v -0.3024823 0.329918 -0.1412755
v -0.5717995 -0.03027855 0.5850201
v -0.5717995 -0.03027855 0.5850201
v -0.6601463 0.2842408 0.7886437
v -0.7109489 -0.01252783 0.7006512
v -0.5717995 0.329918 0.58502
vt 0.8789063 0.6586914
vt 0.9370117 0.769043
vt 0.9370117 0.769043
vt 0.6801758 0.6508789
vt 0.6679688 0.6748047
vt 0.6674805 0.675293
vt 0.5966797 0.5761719
vt 0.5771484 0.5522461
vt 0.6074219 0.5537109
vt 0.5771484 0.5522461
vt 0.5966797 0.5761719
vt 0.6064453 0.5532227
vt 0.6235352 0.5688477
vt 0.6137695 0.5712891
vt 0.6074219 0.5537109
vt 0.6235352 0.5688477
vt 0.6142578 0.5712891
vt 0.6137695 0.5712891
vt 0.6196289 0.5708008
vt 0.6181641 0.5712891
vt 0.6142578 0.5712891
vt 0.6181641 0.5712891
vt 0.6181641 0.5712891
vt 0.6235352 0.5688477
vt 0.6181641 0.5712891
vt 0.6142578 0.5712891
vt 0.6235352 0.5688477
vt 0.621582 0.5698242
vt 0.6196289 0.5708008
vt 0.5737305 0.5522461
vt 0.5751953 0.5556641
vt 0.574707 0.5546875
vt 0.5751953 0.5556641
vt 0.574707 0.5561523
vt 0.5751953 0.5561523
vt 0.5737305 0.5522461
vt 0.574707 0.5561523
vt 0.5751953 0.5556641
vt 0.5737305 0.5522461
vt 0.5766602 0.5576172
vt 0.574707 0.5561523
vt 0.5737305 0.5522461
vt 0.5771484 0.559082
vt 0.5766602 0.5576172
vt 0.5737305 0.5522461
vt 0.5800781 0.5522461
vt 0.5771484 0.559082
vt 0.565918 0.5517578
vt 0.5683594 0.5605469
vt 0.5634766 0.5561523
vt 0.5683594 0.5605469
vt 0.6152344 0.5766602
vt 0.5771484 0.5878906
vt 0.6040039 0.546875
vt 0.609375 0.5517578
vt 0.6074219 0.5488281
vt 0.565918 0.5517578
vt 0.574707 0.5463867
vt 0.6005859 0.5463867
vt 0.5712891 0.546875
vt 0.5678711 0.5488281
vt 0.565918 0.5517578
vt 0.6152344 0.5766602
vt 0.5683594 0.5605469
vt 0.6152344 0.5766602
vt 0.609375 0.5517578
vt 0.6206055 0.5727539
vt 0.6474609 0.6430664
vt 0.6450195 0.6333008
vt 0.6323242 0.6557617
vt 0.6503906 0.6376953
vt 0.6591797 0.6503906
vt 0.6650391 0.621582
vt 0.6611328 0.6166992
vt 0.6835938 0.6113281
vt 0.6811523 0.6049805
vt 0.7045898 0.6069336
vt 0.7041016 0.6000977
vt 0.8520508 0.6069336
vt 0.8530273 0.6000977
vt 0.8730469 0.6118164
vt 0.8754883 0.6054688
vt 0.8916016 0.6225586
vt 0.8959961 0.6171875
vt 0.90625 0.6381836
vt 0.9116211 0.6342773
vt 0.9731445 0.7421875
vt 0.972168 0.7543945
vt 0.8945313 0.6459961
vt 0.9604492 0.7612305
vt 0.9467773 0.7661133
vt 0.8833008 0.6328125
vt 0.8681641 0.6240234
vt 0.8828125 0.6533203
vt 0.8510742 0.6206055
vt 0.8637695 0.6367188
vt 0.8745117 0.6435547
vt 0.8789063 0.6586914
vt 0.9370117 0.769043
vt 0.8745117 0.6518555
vt 0.7055664 0.6206055
vt 0.8510742 0.6347656
vt 0.7055664 0.6342773
vt 0.6884766 0.6240234
vt 0.6733398 0.6323242
vt 0.8549805 0.6401367
vt 0.6933594 0.6367188
vt 0.6821289 0.6425781
vt 0.6938477 0.640625
vt 0.6621094 0.6455078
vt 0.6743164 0.6523438
vt 0.6665039 0.6655273
vt 0.6801758 0.6508789
vt 0.6694336 0.671875
vt 0.6801758 0.6508789
vt 0.684082 0.6459961
vt 0.684082 0.6459961
vt 0.6884766 0.6425781
vt 0.6884766 0.6425781
vt 0.699707 0.6401367
vt 0.6938477 0.640625
vt 0.7084961 0.6401367
vt 0.699707 0.6401367
vt 0.7084961 0.6401367
vt 0.684082 0.6459961
vt 0.6801758 0.6508789
vt 0.6884766 0.6425781
vt 0.6801758 0.6508789
vt 0.6679688 0.6748047
vt 0.6694336 0.671875
vt 0.6938477 0.640625
vt 0.699707 0.6401367
vt 0.7084961 0.6401367
vt 0.8549805 0.6401367
vt 0.8549805 0.6401367
vt 0.8613281 0.6411133
vt 0.8613281 0.6411133
vt 0.8613281 0.6411133
vt 0.8662109 0.6430664
vt 0.8662109 0.6430664
vt 0.8662109 0.6430664
vt 0.8710938 0.6469727
vt 0.8710938 0.6469727
vt 0.8710938 0.6469727
vt 0.8745117 0.6518555
vt 0.8745117 0.6518555
vt 0.8789063 0.6586914
vt 0.9370117 0.769043
vt 0.8789063 0.6586914
vt 0.9370117 0.769043
vt 0.9370117 0.7685547
vt 0.8735352 0.6669922
vt 0.909668 0.7705078
vt 0.9130859 0.7705078
vt 0.8701172 0.6689453
vt 0.9042969 0.7719727
vt 0.8691406 0.6601563
vt 0.8652344 0.671875
vt 0.7280273 0.8222656
vt 0.8662109 0.6621094
vt 0.8657227 0.6557617
vt 0.6958008 0.6616211
vt 0.6811523 0.6928711
vt 0.6933594 0.6645508
vt 0.6889648 0.6616211
vt 0.6782227 0.6860352
vt 0.6757813 0.6821289
vt 0.6855469 0.6591797
vt 0.6923828 0.6572266
vt 0.6894531 0.6547852
vt 0.6953125 0.6552734
vt 0.6938477 0.6518555
vt 0.699707 0.6533203
vt 0.6987305 0.6499023
vt 0.6977539 0.6601563
vt 0.7128906 0.6582031
vt 0.7045898 0.652832
vt 0.7045898 0.6489258
vt 0.7011719 0.6586914
vt 0.7128906 0.652832
vt 0.7128906 0.6489258
vt 0.7050781 0.6586914
vt 0.8505859 0.652832
vt 0.8510742 0.6489258
vt 0.8554688 0.6538086
vt 0.8569336 0.6503906
vt 0.859375 0.6557617
vt 0.8613281 0.6523438
vt 0.8632813 0.6586914
vt 0.8564453 0.6606445
vt 0.8540039 0.6591797
vt 0.8500977 0.6586914
vt 0.859375 0.6625977
vt 0.8613281 0.6655273
vt 0.5844727 0.5795898
vt 0.612793 0.5717773
vt 0.612793 0.5717773
vt 0.5844727 0.5795898
vt 0.5771484 0.559082
vt 0.5844727 0.5795898
vt 0.5844727 0.5795898
vt 0.5771484 0.559082
vt 0.5991211 0.5751953
vt 0.5800781 0.5522461
vt 0.5776367 0.5537109
vt 0.621582 0.5698242
vn -0.3093262 0.9335938 -0.180542
vn -0.7802734 0.4355469 -0.4484863
vn -0.2729492 0.9492188 -0.1564941
vn 0.824707 0.1594238 -0.5424805
vn 0.8466797 0.2459717 -0.472168
vn 0.855957 0.1972656 -0.4782715
vn 0.479248 -0.1166382 -0.8696289
vn 0.3833008 -0.05285645 -0.921875
vn 0.300293 -1.788139E-07 -0.9541016
vn 0.3833008 -0.05285645 -0.921875
vn 0.479248 -0.1166382 -0.8696289
vn 0.5678711 -0.178833 -0.8032227
vn 0.2548828 -0.1737061 -0.9511719
vn 0.2548828 -0.1737061 -0.9511719
vn 0.2548828 -0.1737061 -0.9511719
vn 0.2548828 -0.1737061 -0.9511719
vn 0.2548828 -0.1737061 -0.9511719
vn 0.2548828 -0.1737061 -0.9511719
vn 0.2548828 -0.1737061 -0.9511719
vn 0.2548828 -0.1737061 -0.9511719
vn 0.2548828 -0.1737061 -0.9511719
vn 0.2548828 -0.1737061 -0.9511719
vn 0.2548828 -0.1737061 -0.9511719
vn 0.2548828 -0.1737061 -0.9511719
vn 0.2548828 -0.1737061 -0.9511719
vn 0.2548828 -0.1737061 -0.9511719
vn 0.2548828 -0.1737061 -0.9511719
vn 0.2548828 -0.1737061 -0.9511719
vn 0.2548828 -0.1737061 -0.9511719
vn -0.9067383 0.2548828 -0.3361816
vn -0.9067383 0.2548828 -0.3361816
vn -0.9067383 0.2548828 -0.3361816
vn -0.9067383 0.2548828 -0.3361816
vn -0.9067383 0.2548828 -0.3361816
vn -0.9067383 0.2548828 -0.3361816
vn -0.9067383 0.2548828 -0.3361816
vn -0.9067383 0.2548828 -0.3361816
vn -0.9067383 0.2548828 -0.3361816
vn -0.9067383 0.2548828 -0.3361816
vn -0.9067383 0.2548828 -0.3361816
vn -0.9067383 0.2548828 -0.3361816
vn -0.9067383 0.2548828 -0.3361816
vn -0.9067383 0.2548828 -0.3361816
vn -0.9067383 0.2548828 -0.3361816
vn -0.9067383 0.2548828 -0.3361816
vn -0.9067383 0.2548828 -0.3361816
vn -0.9067383 0.2548828 -0.3361816
vn -0.08575439 -0.9951172 0.04953003
vn -0.08575439 -0.9951172 0.04953003
vn -0.08575439 -0.9951172 0.04953003
vn 0 -1 0
vn 0 -1 0
vn 0 -1 0
vn 0 -1 0
vn 0 -1 0
vn 0 -1 0
vn -0.002498627 -1 0.02142334
vn 0 -1 0
vn 0 -1 0
vn 0 -1 0
vn 0 -1 0
vn 0.02613831 -0.9960938 0.0847168
vn 0.02613831 -0.9960938 0.0847168
vn 0.02613831 -0.9960938 0.0847168
vn 0.08380127 -0.9951172 0.04840088
vn 0.08380127 -0.9951172 0.04840088
vn 0.08380127 -0.9951172 0.04840088
vn -0.8525391 0.1766357 0.4921875
vn -0.8193359 2.980232E-07 0.5737305
vn -0.8662109 2.384186E-07 0.5
vn -0.8041992 0.1923828 0.5620117
vn -0.5722656 0.7504883 0.3305664
vn -0.6308594 0.19104 0.7519531
vn -0.6425781 4.172325E-07 0.7661133
vn -0.3356934 0.19104 0.9223633
vn -0.342041 4.768372E-07 0.9394531
vn -0.0847168 0.1923828 0.9775391
vn -0.0871582 5.364418E-07 0.9960938
vn 0.0847168 0.1923828 0.9775391
vn 0.0871582 5.364418E-07 0.9960938
vn 0.3356934 0.19104 0.9223633
vn 0.342041 4.768372E-07 0.9394531
vn 0.6308594 0.19104 0.7519531
vn 0.6425781 4.172325E-07 0.7661133
vn 0.8041992 0.1923828 0.5620117
vn 0.8193359 2.980232E-07 0.5737305
vn 0.8662109 1.788139E-07 0.5
vn 0.8466797 0.2109375 0.4887695
vn 0.5883789 0.6958008 0.4121094
vn 0.6220703 0.6958008 0.3591309
vn 0.1931152 0.9746094 0.1114502
vn 0.4672852 0.6865234 0.5571289
vn 0.2486572 0.6865234 0.6831055
vn 0.168335 0.9785156 0.1191406
vn 0.06274414 0.6958008 0.7158203
vn 0.0737915 0.9765625 0.2027588
vn 0.1386719 0.9765625 0.1652832
vn -0.3093262 0.9335938 -0.180542
vn -0.2729492 0.9492188 -0.1564941
vn -0.2885742 0.9375 -0.1936035
vn -0.06274414 0.6958008 0.7158203
vn 0.01896667 0.9785156 0.2053223
vn -0.01896667 0.9785156 0.2053223
vn -0.2486572 0.6865234 0.6831055
vn -0.4672852 0.6865234 0.5571289
vn -0.02781677 0.9399414 -0.3398438
vn -0.0737915 0.9765625 0.2027588
vn -0.1386719 0.9765625 0.1652832
vn 0.07769775 0.9433594 -0.3225098
vn -0.5883789 0.6958008 0.4121094
vn -0.168335 0.9785156 0.1191406
vn -0.1036377 0.9926758 0.05984497
vn 0.2875977 0.9389648 -0.1885986
vn 0.4545898 0.8540039 -0.253418
vn 0.7612305 0.4133301 -0.4997559
vn 0.2248535 0.9458008 -0.2351074
vn 0.6259766 0.4240723 -0.6542969
vn 0.1553955 0.9428711 -0.2939453
vn 0.4240723 0.4199219 -0.8022461
vn 0.02024841 0.9375 -0.3479004
vn 0.2125244 0.4204102 -0.8823242
vn 0.001952171 0.9331055 -0.3591309
vn 0.05297852 0.4111328 -0.9101563
vn 0.004966736 0.4060059 -0.9140625
vn 0.6821289 0.1594238 -0.7133789
vn 0.824707 0.1594238 -0.5424805
vn 0.4614258 0.1593018 -0.8730469
vn 0.7612305 0.4133301 -0.4997559
vn 0.8466797 0.2459717 -0.472168
vn 0.4545898 0.8540039 -0.253418
vn 0.2312012 0.1593018 -0.9599609
vn 0.05737305 0.1595459 -0.9853516
vn 0.005367279 0.1601563 -0.9873047
vn -0.07415771 0.4152832 -0.9067383
vn -0.08050537 0.1593018 -0.9838867
vn -0.2524414 0.4187012 -0.8720703
vn -0.2744141 0.1593018 -0.9482422
vn -0.09301758 0.9423828 -0.3215332
vn -0.4602051 0.421875 -0.78125
vn -0.5009766 0.1594238 -0.8505859
vn -0.1672363 0.9443359 -0.2836914
vn -0.2403564 0.9418945 -0.2344971
vn -0.6484375 0.4204102 -0.6347656
vn -0.7055664 0.1593018 -0.6904297
vn -0.7568359 0.4118652 -0.5078125
vn -0.8198242 0.1595459 -0.5498047
vn -0.7890625 0.4064941 -0.4604492
vn -0.7802734 0.4355469 -0.4484863
vn -0.8525391 0.1599121 -0.4978027
vn -0.7802734 0.4355469 -0.4484863
vn -0.8598633 0.1238403 -0.4953613
vn -0.8525391 0.1599121 -0.4978027
vn -0.65625 0.6533203 -0.3781738
vn -0.8598633 0.1238403 -0.4953613
vn -0.5761719 0.7441406 -0.3371582
vn -0.1196899 0.9902344 -0.06915283
vn -0.8198242 0.1595459 -0.5498047
vn -0.09075928 0.9946289 -0.05334473
vn 0 1 0
vn -0.5615234 0.7368164 -0.376709
vn -0.7055664 0.1593018 -0.6904297
vn 0.07873535 0.9936523 -0.08233643
vn 0.05065918 0.9985352 -0.02868652
vn 0.09155273 0.9941406 -0.06027222
vn 0.5668945 0.734375 -0.3728027
vn 0.4345703 0.8671875 -0.2440186
vn 0.855957 0.1972656 -0.4782715
vn 0.824707 0.1594238 -0.5424805
vn 0.4768066 0.7241211 -0.4985352
vn 0.6821289 0.1594238 -0.7133789
vn 0.3205566 0.7275391 -0.6064453
vn 0.4614258 0.1593018 -0.8730469
vn 0.1607666 0.7270508 -0.6674805
vn 0.2312012 0.1593018 -0.9599609
vn 0.05252075 0.9936523 -0.09942627
vn 0.0005717278 0.9946289 -0.1051636
vn 0.03924561 0.7373047 -0.6743164
vn 0.05737305 0.1595459 -0.9853516
vn 0.02638245 0.9936523 -0.1094971
vn 0.00362587 0.7451172 -0.6669922
vn 0.005367279 0.1601563 -0.9873047
vn 0.006298065 0.9941406 -0.1082153
vn -0.05551147 0.7324219 -0.6782227
vn -0.08050537 0.1593018 -0.9838867
vn -0.1903076 0.7290039 -0.6577148
vn -0.2744141 0.1593018 -0.9482422
vn -0.3491211 0.7260742 -0.5922852
vn -0.5009766 0.1594238 -0.8505859
vn -0.4904785 0.7270508 -0.4802246
vn -0.05743408 0.9936523 -0.09747314
vn -0.03111267 0.9936523 -0.1075439
vn -0.009002686 0.9936523 -0.1100464
vn -0.08044434 0.9936523 -0.07879639
vn -0.090271 0.9941406 -0.06057739
vn 0.2587891 -1.788139E-07 -0.9658203
vn 0.2587891 -1.788139E-07 -0.9658203
vn 0.2587891 -1.788139E-07 -0.9658203
vn 0.2587891 -1.788139E-07 -0.9658203
vn -0.9375 0 -0.3476563
vn -0.9375 0 -0.3476563
vn -0.9375 0 -0.3476563
vn -0.9375 0 -0.3476563
vn -0.7446289 0.2023926 -0.6357422
vn -0.8486328 0.09844971 -0.5200195
vn -0.5805664 0.3212891 -0.7480469
vn -0.9174805 0 -0.3979492
g WoodenTile-L1-Broken-P2_0
f 3/3/3 2/2/2 1/1/1
f 6/6/6 5/5/5 4/4/4
f 9/9/9 8/8/8 7/7/7
f 12/12/12 11/11/11 10/10/10
f 15/15/15 14/14/14 13/13/13
f 18/18/18 17/17/17 16/16/16
f 20/20/20 19/19/19 16/16/16
f 23/23/23 22/22/22 21/21/21
f 26/26/26 25/25/25 24/24/24
f 29/29/29 28/28/28 27/27/27
f 32/32/32 31/31/31 30/30/30
f 35/35/35 34/34/34 33/33/33
f 38/38/38 37/37/37 36/36/36
f 41/41/41 40/40/40 39/39/39
f 44/44/44 43/43/43 42/42/42
f 47/47/47 46/46/46 45/45/45
f 50/50/50 49/49/49 48/48/48
f 53/53/53 52/52/52 51/51/51
f 55/55/55 54/54/54 52/52/52
f 56/56/56 54/54/54 55/55/55
f 52/52/52 54/54/54 57/57/57
f 54/54/54 58/58/58 57/57/57
f 59/59/59 58/58/58 54/54/54
f 58/58/58 60/60/60 57/57/57
f 60/60/60 61/61/61 57/57/57
f 64/64/64 63/63/63 62/62/62
f 67/67/67 66/66/66 65/65/65
f 70/70/70 69/69/69 68/68/68
f 71/71/71 68/68/68 69/69/69
f 68/68/68 71/71/71 72/72/72
f 71/71/71 69/69/69 73/73/73
f 74/74/74 73/73/73 69/69/69
f 73/73/73 74/74/74 75/75/75
f 76/76/76 75/75/75 74/74/74
f 75/75/75 76/76/76 77/77/77
f 78/78/78 77/77/77 76/76/76
f 77/77/77 78/78/78 79/79/79
f 80/80/80 79/79/79 78/78/78
f 79/79/79 80/80/80 81/81/81
f 82/82/82 81/81/81 80/80/80
f 81/81/81 82/82/82 83/83/83
f 84/84/84 83/83/83 82/82/82
f 83/83/83 84/84/84 85/85/85
f 86/86/86 85/85/85 84/84/84
f 86/86/86 87/87/87 85/85/85
f 88/88/88 85/85/85 87/87/87
f 85/85/85 88/88/88 89/89/89
f 85/85/85 89/89/89 83/83/83
f 90/90/90 89/89/89 88/88/88
f 90/90/90 91/91/91 89/89/89
f 83/83/83 92/92/92 81/81/81
f 92/92/92 83/83/83 89/89/89
f 81/81/81 93/93/93 79/79/79
f 93/93/93 81/81/81 92/92/92
f 94/94/94 89/89/89 91/91/91
f 89/89/89 94/94/94 92/92/92
f 95/95/95 79/79/79 93/93/93
f 93/93/93 96/96/96 95/95/95
f 96/96/96 93/93/93 97/97/97
f 92/92/92 97/97/97 93/93/93
f 97/97/97 92/92/92 94/94/94
f 79/79/79 95/95/95 77/77/77
f 94/94/94 91/91/91 98/98/98
f 99/99/99 98/98/98 91/91/91
f 94/94/94 100/100/100 97/97/97
f 97/97/97 100/100/100 96/96/96
f 98/98/98 100/100/100 94/94/94
f 101/101/101 77/77/77 95/95/95
f 77/77/77 101/101/101 75/75/75
f 102/102/102 95/95/95 96/96/96
f 95/95/95 102/102/102 101/101/101
f 103/103/103 101/101/101 102/102/102
f 104/104/104 75/75/75 101/101/101
f 101/101/101 103/103/103 104/104/104
f 75/75/75 104/104/104 73/73/73
f 105/105/105 73/73/73 104/104/104
f 73/73/73 105/105/105 71/71/71
f 96/96/96 106/106/106 102/102/102
f 102/102/102 106/106/106 103/103/103
f 104/104/104 107/107/107 105/105/105
f 107/107/107 104/104/104 103/103/103
f 108/108/108 105/105/105 107/107/107
f 107/107/107 109/109/109 108/108/108
f 103/103/103 109/109/109 107/107/107
f 110/110/110 71/71/71 105/105/105
f 105/105/105 108/108/108 110/110/110
f 110/110/110 72/72/72 71/71/71
f 110/110/110 111/111/111 72/72/72
f 111/111/111 110/110/110 108/108/108
f 112/112/112 72/72/72 111/111/111
f 111/111/111 108/108/108 112/112/112
f 108/108/108 113/113/113 112/112/112
f 113/113/113 114/114/114 112/112/112
f 113/113/113 115/115/115 114/114/114
f 113/113/113 116/116/116 115/115/115
f 116/116/116 113/113/113 108/108/108
f 117/117/117 115/115/115 116/116/116
f 116/116/116 108/108/108 118/118/118
f 108/108/108 109/109/109 118/118/118
f 116/116/116 118/118/118 117/117/117
f 118/118/118 109/109/109 119/119/119
f 119/119/119 117/117/117 118/118/118
f 120/120/120 109/109/109 103/103/103
f 121/121/121 119/119/119 109/109/109
f 109/109/109 120/120/120 121/121/121
f 122/122/122 120/120/120 103/103/103
f 103/103/103 106/106/106 122/122/122
f 120/120/120 122/122/122 123/123/123
f 123/123/123 121/121/121 120/120/120
f 122/122/122 106/106/106 124/124/124
f 124/124/124 123/123/123 122/122/122
f 117/117/117 119/119/119 125/125/125
f 125/125/125 126/126/126 117/117/117
f 127/127/127 125/125/125 119/119/119
f 119/119/119 121/121/121 127/127/127
f 128/128/128 117/117/117 126/126/126
f 128/128/128 126/126/126 129/129/129
f 129/129/129 130/130/130 128/128/128
f 131/131/131 127/127/127 121/121/121
f 121/121/121 123/123/123 131/131/131
f 132/132/132 131/131/131 123/123/123
f 123/123/123 124/124/124 132/132/132
f 133/133/133 132/132/132 124/124/124
f 124/124/124 134/134/134 133/133/133
f 135/135/135 133/133/133 134/134/134
f 134/134/134 124/124/124 106/106/106
f 134/134/134 136/136/136 135/135/135
f 137/137/137 135/135/135 136/136/136
f 106/106/106 138/138/138 134/134/134
f 136/136/136 134/134/134 138/138/138
f 138/138/138 106/106/106 96/96/96
f 136/136/136 139/139/139 137/137/137
f 140/140/140 137/137/137 139/139/139
f 138/138/138 141/141/141 136/136/136
f 138/138/138 96/96/96 141/141/141
f 139/139/139 136/136/136 141/141/141
f 141/141/141 96/96/96 142/142/142
f 141/141/141 142/142/142 139/139/139
f 96/96/96 100/100/100 142/142/142
f 139/139/139 143/143/143 140/140/140
f 143/143/143 139/139/139 142/142/142
f 142/142/142 100/100/100 143/143/143
f 144/144/144 140/140/140 143/143/143
f 145/145/145 143/143/143 100/100/100
f 143/143/143 145/145/145 144/144/144
f 100/100/100 98/98/98 145/145/145
f 146/146/146 144/144/144 145/145/145
f 147/147/147 145/145/145 98/98/98
f 145/145/145 147/147/147 146/146/146
f 147/147/147 98/98/98 148/148/148
f 149/149/149 146/146/146 147/147/147
f 147/147/147 150/150/150 149/149/149
f 151/151/151 149/149/149 150/150/150
f 154/154/154 153/153/153 152/152/152
f 155/155/155 152/152/152 153/153/153
f 153/153/153 156/156/156 155/155/155
f 152/152/152 155/155/155 157/157/157
f 158/158/158 155/155/155 156/156/156
f 158/158/158 156/156/156 159/159/159
f 160/160/160 157/157/157 155/155/155
f 157/157/157 160/160/160 161/161/161
f 162/162/162 158/158/158 159/159/159
f 163/163/163 162/162/162 159/159/159
f 164/164/164 162/162/162 163/163/163
f 164/164/164 165/165/165 162/162/162
f 163/163/163 166/166/166 164/164/164
f 165/165/165 164/164/164 166/166/166
f 166/166/166 167/167/167 165/165/165
f 168/168/168 165/165/165 167/167/167
f 165/165/165 168/168/168 169/169/169
f 169/169/169 162/162/162 165/165/165
f 170/170/170 169/169/169 168/168/168
f 169/169/169 170/170/170 171/171/171
f 169/169/169 171/171/171 162/162/162
f 172/172/172 171/171/171 170/170/170
f 171/171/171 172/172/172 173/173/173
f 174/174/174 173/173/173 172/172/172
f 175/175/175 162/162/162 171/171/171
f 171/171/171 173/173/173 175/175/175
f 175/175/175 176/176/176 162/162/162
f 173/173/173 174/174/174 177/177/177
f 178/178/178 177/177/177 174/174/174
f 179/179/179 175/175/175 173/173/173
f 179/179/179 176/176/176 175/175/175
f 173/173/173 177/177/177 179/179/179
f 177/177/177 178/178/178 180/180/180
f 181/181/181 180/180/180 178/178/178
f 182/182/182 179/179/179 177/177/177
f 182/182/182 176/176/176 179/179/179
f 177/177/177 180/180/180 182/182/182
f 176/176/176 182/182/182 180/180/180
f 180/180/180 181/181/181 183/183/183
f 180/180/180 183/183/183 176/176/176
f 184/184/184 183/183/183 181/181/181
f 183/183/183 184/184/184 185/185/185
f 186/186/186 185/185/185 184/184/184
f 185/185/185 186/186/186 187/187/187
f 188/188/188 187/187/187 186/186/186
f 187/187/187 188/188/188 189/189/189
f 161/161/161 189/189/189 188/188/188
f 189/189/189 161/161/161 160/160/160
f 187/187/187 190/190/190 185/185/185
f 187/187/187 189/189/189 190/190/190
f 185/185/185 191/191/191 183/183/183
f 191/191/191 185/185/185 190/190/190
f 192/192/192 176/176/176 183/183/183
f 192/192/192 183/183/183 191/191/191
f 192/192/192 191/191/191 176/176/176
f 176/176/176 191/191/191 162/162/162
f 191/191/191 190/190/190 162/162/162
f 190/190/190 158/158/158 162/162/162
f 193/193/193 190/190/190 189/189/189
f 189/189/189 160/160/160 193/193/193
f 193/193/193 158/158/158 190/190/190
f 194/194/194 193/193/193 160/160/160
f 194/194/194 158/158/158 193/193/193
f 160/160/160 155/155/155 194/194/194
f 158/158/158 194/194/194 155/155/155
f 197/197/197 196/196/196 195/195/195
f 198/198/198 195/195/195 196/196/196
f 201/201/201 200/200/200 199/199/199
f 202/202/202 199/199/199 200/200/200
f 205/205/205 204/204/204 203/203/203
f 206/206/206 203/203/203 204/204/204
