g WoodenTile-L1-Broken-P1
v -0.7732367 0.371331 -0.2749735
v -0.5165539 0.3565384 -0.7185398
v -0.7745895 0.3565384 -0.2726357
v -0.644337 -0.01252783 -0.816026
v -0.9400818 0.2842408 -0.3037814
v -0.9671689 -0.01252783 -0.2568652
v -0.644337 0.2842408 -0.8160262
v -0.9043384 0.3549515 -0.3071121
v -0.5773656 -0.01252783 -0.8958392
v -0.6189717 0.3549515 -0.8013813
v -0.8309543 0.3842408 -0.2927956
v -0.5773656 0.2842408 -0.8958394
v -0.4871353 -0.01252783 -0.9479336
v -0.4871353 0.2842408 -0.9479337
v -0.3845293 -0.01252783 -0.9660256
v -0.5585388 0.3549515 -0.8734023
v -0.5577345 0.3842408 -0.7660259
v -0.3845293 0.2842408 -0.9660258
v -0.09292965 -0.01252783 -0.9660255
v -0.009498558 0.2842408 -0.9660256
v -0.5286735 0.3842408 -0.7261119
v -0.7848824 0.3842408 -0.2804506
v -0.4771177 0.3549515 -0.9204106
v -0.3845293 0.3549515 -0.9367364
v -0.0004803848 0.3549515 -0.9367363
v -0.0184664 0.3842408 -0.8660254
v -0.5130869 0.3842408 -0.8192347
v -0.4529334 0.3842408 -0.8539643
v -0.3845293 0.3842408 -0.8660257
v -0.3602597 0.3842408 -0.8113663
v -0.0387607 0.3842408 -0.8112957
v -0.04768566 0.371331 -0.7970145
v -0.3602864 0.371331 -0.7970831
v -0.406288 0.3842408 -0.8117285
v -0.4054472 0.371331 -0.7974423
v -0.5117903 0.3842408 -0.7512883
v -0.4289623 0.3842408 -0.808769
v -0.5001911 0.3713311 -0.7429401
v -0.5165539 0.371331 -0.7185397
v -0.7732367 0.371331 -0.2749735
v -0.5165539 0.3565384 -0.7185398
v -0.5001911 0.3565385 -0.7429401
v -0.4823206 0.3565385 -0.7661113
v -0.4823206 0.3713311 -0.7661112
v -0.4602101 0.3565384 -0.7821122
v -0.4923687 0.3842408 -0.7764706
v -0.4602101 0.371331 -0.7821122
v -0.4335776 0.3565384 -0.7938187
v -0.467351 0.3842408 -0.7945755
v -0.4335777 0.371331 -0.7938187
v -0.4272407 0.3565384 -0.7946221
v -0.4373955 0.3842408 -0.8077427
v -0.4272368 0.371331 -0.7945904
v -0.4054549 0.3565384 -0.7973059
v -0.3602863 0.3565384 -0.7971153
v -0.3602864 0.371331 -0.7970831
v -0.05183681 0.3565384 -0.7970349
v -0.04768566 0.371331 -0.7970145
v -0.05992218 0.3365731 -0.790367
v -0.3602863 0.3565384 -0.7971153
v -0.05183681 0.3565384 -0.7970349
v -0.3602878 0.3365731 -0.7904361
v -0.07333657 0.329918 -0.7592366
v -0.4050573 0.3365731 -0.7906016
v -0.4054549 0.3565384 -0.7973059
v -0.360357 0.329918 -0.7592995
v -0.2145662 0.329918 -0.378368
v -0.4032228 0.329918 -0.7594504
v -0.4264338 0.3365731 -0.787992
v -0.4272407 0.3565384 -0.7946221
v -0.4226725 0.329918 -0.7570835
v -0.4317987 0.3365731 -0.787331
v -0.4335776 0.3565384 -0.7938187
v -0.4234781 0.329918 -0.7569855
v -0.4568829 0.3365731 -0.7763051
v -0.4602101 0.3565384 -0.7821122
v -0.4413203 0.329918 -0.7491428
v -0.4776388 0.3365731 -0.7612845
v -0.4823206 0.3565385 -0.7661113
v -0.4695074 0.329918 -0.7208566
v -0.4557403 0.329918 -0.7387072
v -0.4949212 0.3365731 -0.7388759
v -0.5001911 0.3565385 -0.7429401
v -0.4844937 0.3299179 -0.698509
v -0.5110266 0.3365731 -0.7148332
v -0.5165539 0.3565384 -0.7185398
v -0.7745895 0.3565384 -0.2726357
v -0.7704486 0.3365731 -0.2678815
v -0.7431333 0.329918 -0.2593475
v -0.3024823 0.329918 -0.1412755
v -0.2145662 -0.009916 -0.378368
v -0.07333657 0.329918 -0.7592366
v -0.07333657 -0.009916 -0.7592365
v -0.2145662 0.329918 -0.378368
v -0.3024823 -0.009915998 -0.1412754
v -0.3024823 0.329918 -0.1412755
v -0.07333657 -0.009916 -0.7592365
v -0.009498558 0.2842408 -0.9660256
v -0.09292965 -0.01252783 -0.9660255
v -0.07333657 0.329918 -0.7592366
v -0.3024823 -0.009915998 -0.1412754
v -0.9400818 0.2842408 -0.3037814
v -0.3024823 0.329918 -0.1412755
v -0.9671689 -0.01252783 -0.2568652
v -0.9400818 0.2842408 -0.3037814
v -0.7431333 0.329918 -0.2593475
v -0.3024823 0.329918 -0.1412755
v -0.7704486 0.3365731 -0.2678815
v -0.7848824 0.3842408 -0.2804506
v -0.7745895 0.3565384 -0.2726357
v -0.7732367 0.371331 -0.2749735
v -0.8309543 0.3842408 -0.2927956
v -0.9043384 0.3549515 -0.3071121
v -0.0004803848 0.3549515 -0.9367363
v -0.0387607 0.3842408 -0.8112957
v -0.0184664 0.3842408 -0.8660254
v -0.05183681 0.3565384 -0.7970349
v -0.04768566 0.371331 -0.7970145
v -0.05992218 0.3365731 -0.790367
v -0.07333657 0.329918 -0.7592366
v -0.009498558 0.2842408 -0.9660256
v -0.3845293 -0.01252783 -0.9660256
v -0.07333657 -0.009916 -0.7592365
v -0.09292965 -0.01252783 -0.9660255
v -0.5773656 -0.01252783 -0.8958392
v -0.4871353 -0.01252783 -0.9479336
v -0.9671689 -0.01252783 -0.2568652
v -0.644337 -0.01252783 -0.816026
v -0.2145662 -0.009916 -0.378368
v -0.3024823 -0.009915998 -0.1412754
vt 0.6323242 0.8486328
vt 0.6782227 0.9335938
vt 0.6323242 0.8481445
vt 0.644043 0.9594727
vt 0.5932617 0.8569336
vt 0.5820313 0.8510742
vt 0.6494141 0.9555664
vt 0.6074219 0.8540039
vt 0.659668 0.9765625
vt 0.6606445 0.9477539
vt 0.621582 0.8510742
vt 0.6635742 0.9716797
vt 0.6796875 0.9882813
vt 0.6821289 0.9824219
vt 0.7026367 0.9941406
vt 0.6723633 0.9609375
vt 0.6728516 0.940918
vt 0.703125 0.9873047
vt 0.7587891 0.9941406
vt 0.7753906 0.9873047
vt 0.6782227 0.9335938
vt 0.6323242 0.8491211
vt 0.6875 0.9697266
vt 0.7045898 0.9736328
vt 0.7768555 0.9731445
vt 0.7734375 0.9594727
vt 0.6811523 0.9506836
vt 0.6918945 0.9570313
vt 0.7045898 0.9594727
vt 0.7089844 0.9492188
vt 0.7700195 0.9492188
vt 0.7685547 0.9492188
vt 0.7089844 0.9492188
vt 0.7006836 0.9492188
vt 0.7006836 0.9492188
vt 0.6811523 0.9379883
vt 0.6967773 0.9487305
vt 0.6811523 0.9379883
vt 0.6782227 0.9335938
vt 0.6323242 0.8486328
vt 0.6782227 0.9335938
vt 0.6811523 0.9379883
vt 0.6850586 0.9428711
vt 0.6850586 0.9428711
vt 0.6894531 0.9462891
vt 0.6850586 0.9428711
vt 0.6894531 0.9462891
vt 0.6948242 0.9487305
vt 0.6894531 0.9462891
vt 0.6948242 0.9487305
vt 0.6967773 0.9487305
vt 0.6948242 0.9487305
vt 0.6967773 0.9487305
vt 0.7006836 0.9492188
vt 0.7089844 0.9492188
vt 0.7089844 0.9492188
vt 0.7675781 0.9492188
vt 0.7685547 0.9492188
vt 0.7666016 0.9375
vt 0.7133789 0.940918
vt 0.7680664 0.9414063
vt 0.7133789 0.9375
vt 0.7641602 0.9316406
vt 0.7050781 0.9375
vt 0.7050781 0.940918
vt 0.7133789 0.9316406
vt 0.7392578 0.8642578
vt 0.7055664 0.9316406
vt 0.7011719 0.9365234
vt 0.7006836 0.9404297
vt 0.7021484 0.9311523
vt 0.7006836 0.9365234
vt 0.6992188 0.9399414
vt 0.7021484 0.9311523
vt 0.6962891 0.9345703
vt 0.6943359 0.9375
vt 0.6987305 0.9296875
vt 0.6923828 0.9316406
vt 0.6899414 0.9345703
vt 0.6938477 0.9248047
vt 0.6962891 0.9277344
vt 0.6894531 0.9277344
vt 0.6865234 0.9301758
vt 0.6914063 0.9204102
vt 0.6865234 0.9238281
vt 0.6831055 0.9257813
vt 0.6489258 0.8452148
vt 0.6518555 0.8442383
vt 0.6572266 0.8427734
vt 0.7280273 0.8222656
vt 0.5810547 0.590332
vt 0.5678711 0.6157227
vt 0.5678711 0.590332
vt 0.5810547 0.6157227
vt 0.5898438 0.590332
vt 0.5898438 0.6157227
vt 0.5678711 0.590332
vt 0.5600586 0.6123047
vt 0.5600586 0.590332
vt 0.5678711 0.6157227
vt 0.5898438 0.590332
vt 0.5839844 0.6123047
vt 0.5898438 0.6157227
vt 0.5854492 0.590332
vt 0.5839844 0.6123047
vt 0.5854492 0.6157227
vt 0.5898438 0.6157227
vt 0.5854492 0.6162109
vt 0.5849609 0.6196289
vt 0.5849609 0.6176758
vt 0.5849609 0.6186523
vt 0.5844727 0.6196289
vt 0.5839844 0.6176758
vt 0.5610352 0.6176758
vt 0.565918 0.6196289
vt 0.5639648 0.6196289
vt 0.5664063 0.6176758
vt 0.5664063 0.6186523
vt 0.5664063 0.6162109
vt 0.5678711 0.6157227
vt 0.5600586 0.6123047
vt 0.574707 0.6186523
vt 0.5849609 0.6108398
vt 0.5844727 0.6186523
vt 0.5678711 0.6162109
vt 0.5712891 0.6181641
vt 0.5546875 0.5922852
vt 0.565918 0.6132813
vt 0.5805664 0.5966797
vt 0.5771484 0.5878906
vn 0.8051758 0.3674316 0.4658203
vn 0.8374023 0.1595459 0.5224609
vn 0.8544922 0.1583252 0.4951172
vn -0.8193359 -2.384186E-07 -0.5737305
vn -0.8540039 0.166626 -0.4929199
vn -0.8662109 0 -0.5
vn -0.8041992 0.1923828 -0.5620117
vn -0.6572266 0.6513672 -0.3793945
vn -0.6425781 -4.172325E-07 -0.7661133
vn -0.5883789 0.6958008 -0.4121094
vn -0.1989746 0.9731445 -0.1148682
vn -0.6308594 0.19104 -0.7519531
vn -0.342041 -4.768372E-07 -0.9394531
vn -0.3356934 0.19104 -0.9223633
vn -0.0871582 -5.364418E-07 -0.9960938
vn -0.4672852 0.6865234 -0.5571289
vn -0.168335 0.9785156 -0.1191406
vn -0.0847168 0.1923828 -0.9775391
vn 3.576279E-07 -4.172325E-07 -1
vn 3.576279E-07 0.2205811 -0.9755859
vn 0.2990723 0.9360352 0.1860352
vn 0.300293 0.9379883 0.1737061
vn -0.2486572 0.6865234 -0.6831055
vn -0.06274414 0.6958008 -0.7158203
vn 2.384186E-07 0.6953125 -0.71875
vn 0 0.9726563 -0.2327881
vn -0.1386719 0.9765625 -0.1652832
vn -0.0737915 0.9765625 -0.2027588
vn -0.01896667 0.9785156 -0.2053223
vn -0.001457214 0.9331055 0.3601074
vn -5.823374E-05 0.9643555 0.2653809
vn -0.0001913309 0.4902344 0.871582
vn -0.003734589 0.404541 0.9145508
vn 0.02098083 0.9384766 0.3442383
vn 0.05627441 0.416748 0.9072266
vn 0.2861328 0.9360352 0.2059326
vn 0.04510498 0.9331055 0.3574219
vn 0.7407227 0.4091797 0.5332031
vn 0.7744141 0.4089355 0.4824219
vn 0.8051758 0.3674316 0.4658203
vn 0.8374023 0.1595459 0.5224609
vn 0.8012695 0.159668 0.5766602
vn 0.6875 0.1594238 0.7084961
vn 0.6308594 0.4228516 0.6503906
vn 0.4907227 0.1593018 0.8564453
vn 0.2281494 0.9448242 0.2352295
vn 0.4516602 0.4177246 0.7885742
vn 0.2634277 0.1594238 0.9511719
vn 0.1672363 0.9418945 0.2919922
vn 0.2399902 0.4228516 0.8740234
vn 0.1219482 0.15979 0.9794922
vn 0.08648682 0.9448242 0.3154297
vn 0.1132202 0.4055176 0.9072266
vn 0.05944824 0.1638184 0.9848633
vn -0.002868652 0.1602783 0.9873047
vn -0.003734589 0.404541 0.9145508
vn -0.0002340078 0.1259766 0.9921875
vn -0.0001913309 0.4902344 0.871582
vn -0.0001956224 0.6455078 0.7636719
vn -0.002868652 0.1602783 0.9873047
vn -0.0002340078 0.1259766 0.9921875
vn -0.001299858 0.7460938 0.6660156
vn -2.980232E-05 0.9916992 0.1298828
vn 0.03970337 0.7368164 0.675293
vn 0.05944824 0.1638184 0.9848633
vn -0.0001962185 0.9946289 0.1049805
vn 0 1 0
vn 0.006404877 0.9941406 0.1088257
vn 0.08123779 0.7456055 0.6611328
vn 0.1219482 0.15979 0.9794922
vn 0.01269531 0.9946289 0.1043091
vn 0.1828613 0.7250977 0.6640625
vn 0.2634277 0.1594238 0.9511719
vn 0.03004456 0.9936523 0.1095581
vn 0.3398438 0.7299805 0.5932617
vn 0.4907227 0.1593018 0.8564453
vn 0.05545044 0.9936523 0.09674072
vn 0.4794922 0.7250977 0.4943848
vn 0.6875 0.1594238 0.7084961
vn 0.08703613 0.9941406 0.06262207
vn 0.07897949 0.9936523 0.0814209
vn 0.5458984 0.7402344 0.3925781
vn 0.8012695 0.159668 0.5766602
vn 0.09051514 0.9941406 0.0569458
vn 0.5708008 0.7397461 0.3562012
vn 0.8374023 0.1595459 0.5224609
vn 0.8544922 0.1583252 0.4951172
vn 0.609375 0.7099609 0.3537598
vn 0.1166992 0.9907227 0.06774902
vn 0 1 0
vn 0.9375 0 0.3476563
vn 0.9375 0 0.3476563
vn 0.9375 0 0.3476563
vn 0.9375 0 0.3476563
vn 0.9375 0 0.3476563
vn 0.9375 0 0.3476563
vn 0.9833984 -0.1696777 0.06225586
vn 0.9814453 -0.09558105 0.1669922
vn 0.9589844 -0.2695313 -0.08746338
vn 0.9555664 0 0.2949219
vn -0.2266846 0.04620361 0.9726563
vn -0.192627 0.1206055 0.9736328
vn -0.2469482 2.384186E-07 0.9692383
vn -0.1695557 0.1689453 0.9707031
vn -0.2548828 0.1737061 0.9511719
vn -0.2548828 0.1737061 0.9511719
vn -0.2548828 0.1737061 0.9511719
vn -0.2548828 0.1737061 0.9511719
vn -0.2548828 0.1737061 0.9511719
vn -0.2548828 0.1737061 0.9511719
vn -0.2548828 0.1737061 0.9511719
vn -0.2548828 0.1737061 0.9511719
vn -0.2548828 0.1737061 0.9511719
vn 0.9067383 -0.2548828 0.3361816
vn 0.9067383 -0.2548828 0.3361816
vn 0.9067383 -0.2548828 0.3361816
vn 0.9067383 -0.2548828 0.3361816
vn 0.9067383 -0.2548828 0.3361816
vn 0.9067383 -0.2548828 0.3361816
vn 0.9067383 -0.2548828 0.3361816
vn 0.9067383 -0.2548828 0.3361816
vn 0 -1 0.01262665
vn 0 -1 0.01262665
vn 0 -1 0.01262665
vn 0 -1 0
vn 0 -1 0
vn 0.00369072 -1 0.001368523
vn 0 -1 0
vn 0.00369072 -1 0.001368523
vn 0.00369072 -1 0.001368523
g WoodenTile-L1-Broken-P1_0
f 3/3/3 2/2/2 1/1/1
f 6/6/6 5/5/5 4/4/4
f 7/7/7 4/4/4 5/5/5
f 5/5/5 8/8/8 7/7/7
f 4/4/4 7/7/7 9/9/9
f 10/10/10 7/7/7 8/8/8
f 8/8/8 11/11/11 10/10/10
f 12/12/12 9/9/9 7/7/7
f 7/7/7 10/10/10 12/12/12
f 9/9/9 12/12/12 13/13/13
f 14/14/14 13/13/13 12/12/12
f 13/13/13 14/14/14 15/15/15
f 16/16/16 12/12/12 10/10/10
f 12/12/12 16/16/16 14/14/14
f 17/17/17 10/10/10 11/11/11
f 10/10/10 17/17/17 16/16/16
f 18/18/18 15/15/15 14/14/14
f 15/15/15 18/18/18 19/19/19
f 20/20/20 19/19/19 18/18/18
f 17/17/17 11/11/11 21/21/21
f 22/22/22 21/21/21 11/11/11
f 23/23/23 14/14/14 16/16/16
f 14/14/14 23/23/23 18/18/18
f 18/18/18 24/24/24 20/20/20
f 24/24/24 18/18/18 23/23/23
f 25/25/25 20/20/20 24/24/24
f 25/25/25 24/24/24 26/26/26
f 27/27/27 16/16/16 17/17/17
f 16/16/16 27/27/27 23/23/23
f 17/17/17 21/21/21 27/27/27
f 23/23/23 28/28/28 24/24/24
f 28/28/28 23/23/23 27/27/27
f 29/29/29 24/24/24 28/28/28
f 29/29/29 26/26/26 24/24/24
f 29/29/29 30/30/30 26/26/26
f 31/31/31 26/26/26 30/30/30
f 31/31/31 30/30/30 32/32/32
f 33/33/33 32/32/32 30/30/30
f 30/30/30 29/29/29 34/34/34
f 30/30/30 34/34/34 33/33/33
f 29/29/29 28/28/28 34/34/34
f 35/35/35 33/33/33 34/34/34
f 27/27/27 21/21/21 36/36/36
f 28/28/28 27/27/27 36/36/36
f 28/28/28 37/37/37 34/34/34
f 34/34/34 37/37/37 35/35/35
f 36/36/36 21/21/21 38/38/38
f 39/39/39 38/38/38 21/21/21
f 21/21/21 22/22/22 39/39/39
f 40/40/40 39/39/39 22/22/22
f 39/39/39 40/40/40 41/41/41
f 41/41/41 42/42/42 39/39/39
f 38/38/38 39/39/39 42/42/42
f 42/42/42 43/43/43 38/38/38
f 44/44/44 38/38/38 43/43/43
f 38/38/38 44/44/44 36/36/36
f 43/43/43 45/45/45 44/44/44
f 46/46/46 36/36/36 44/44/44
f 46/46/46 28/28/28 36/36/36
f 47/47/47 44/44/44 45/45/45
f 44/44/44 47/47/47 46/46/46
f 45/45/45 48/48/48 47/47/47
f 49/49/49 28/28/28 46/46/46
f 49/49/49 46/46/46 47/47/47
f 50/50/50 47/47/47 48/48/48
f 47/47/47 50/50/50 49/49/49
f 48/48/48 51/51/51 50/50/50
f 52/52/52 28/28/28 49/49/49
f 52/52/52 49/49/49 50/50/50
f 37/37/37 28/28/28 52/52/52
f 52/52/52 50/50/50 37/37/37
f 53/53/53 50/50/50 51/51/51
f 53/53/53 37/37/37 50/50/50
f 51/51/51 54/54/54 53/53/53
f 53/53/53 35/35/35 37/37/37
f 35/35/35 53/53/53 54/54/54
f 54/54/54 55/55/55 35/35/35
f 56/56/56 35/35/35 55/55/55
f 55/55/55 57/57/57 56/56/56
f 58/58/58 56/56/56 57/57/57
f 61/61/61 60/60/60 59/59/59
f 62/62/62 59/59/59 60/60/60
f 59/59/59 62/62/62 63/63/63
f 62/62/62 60/60/60 64/64/64
f 65/65/65 64/64/64 60/60/60
f 66/66/66 63/63/63 62/62/62
f 67/67/67 63/63/63 66/66/66
f 64/64/64 68/68/68 62/62/62
f 66/66/66 62/62/62 68/68/68
f 64/64/64 65/65/65 69/69/69
f 64/64/64 69/69/69 68/68/68
f 70/70/70 69/69/69 65/65/65
f 68/68/68 71/71/71 66/66/66
f 67/67/67 66/66/66 71/71/71
f 71/71/71 68/68/68 69/69/69
f 69/69/69 70/70/70 72/72/72
f 73/73/73 72/72/72 70/70/70
f 72/72/72 74/74/74 69/69/69
f 71/71/71 69/69/69 74/74/74
f 72/72/72 73/73/73 75/75/75
f 72/72/72 75/75/75 74/74/74
f 76/76/76 75/75/75 73/73/73
f 77/77/77 71/71/71 74/74/74
f 77/77/77 74/74/74 75/75/75
f 75/75/75 76/76/76 78/78/78
f 79/79/79 78/78/78 76/76/76
f 80/80/80 71/71/71 77/77/77
f 67/67/67 71/71/71 80/80/80
f 77/77/77 75/75/75 81/81/81
f 78/78/78 81/81/81 75/75/75
f 81/81/81 80/80/80 77/77/77
f 78/78/78 79/79/79 82/82/82
f 78/78/78 82/82/82 81/81/81
f 80/80/80 81/81/81 82/82/82
f 83/83/83 82/82/82 79/79/79
f 84/84/84 67/67/67 80/80/80
f 80/80/80 82/82/82 84/84/84
f 82/82/82 83/83/83 85/85/85
f 85/85/85 84/84/84 82/82/82
f 86/86/86 85/85/85 83/83/83
f 86/86/86 87/87/87 85/85/85
f 88/88/88 85/85/85 87/87/87
f 88/88/88 89/89/89 85/85/85
f 84/84/84 85/85/85 89/89/89
f 84/84/84 89/89/89 67/67/67
f 90/90/90 67/67/67 89/89/89
f 93/93/93 92/92/92 91/91/91
f 94/94/94 91/91/91 92/92/92
f 91/91/91 94/94/94 95/95/95
f 96/96/96 95/95/95 94/94/94
f 99/99/99 98/98/98 97/97/97
f 100/100/100 97/97/97 98/98/98
f 103/103/103 102/102/102 101/101/101
f 104/104/104 101/101/101 102/102/102
f 107/107/107 106/106/106 105/105/105
f 106/106/106 108/108/108 105/105/105
f 108/108/108 109/109/109 105/105/105
f 110/110/110 109/109/109 108/108/108
f 111/111/111 109/109/109 110/110/110
f 109/109/109 112/112/112 105/105/105
f 112/112/112 113/113/113 105/105/105
f 116/116/116 115/115/115 114/114/114
f 115/115/115 117/117/117 114/114/114
f 118/118/118 117/117/117 115/115/115
f 117/117/117 119/119/119 114/114/114
f 119/119/119 120/120/120 114/114/114
f 120/120/120 121/121/121 114/114/114
f 124/124/124 123/123/123 122/122/122
f 123/123/123 125/125/125 122/122/122
f 125/125/125 126/126/126 122/122/122
f 127/127/127 125/125/125 123/123/123
f 128/128/128 125/125/125 127/127/127
f 129/129/129 127/127/127 123/123/123
f 130/130/130 127/127/127 129/129/129
