g WoodenTile-L1-Broken-P12
v 0.2688546 0.3234478 0.01299489
v 0.2688546 0.3328835 0.2208606
v 0.2688546 -0.007833137 0.07346928
v 0.5176842 0.3328835 0.7677642
v 0.6706314 -0.007833133 0.4849306
v 0.5176842 -0.007833129 0.7677643
v 0.4991201 0.3328834 0.7921871
v 0.4991201 -0.007833128 0.7921873
v 0.5149888 0.3571531 0.7646137
v 0.6792576 0.3328835 0.4837068
v 0.4752309 0.3328834 0.810623
v 0.4752309 -0.007833128 0.8106232
v 0.6757979 0.3571531 0.4810593
v 0.8523616 0.3328834 0.1676227
v 0.8502349 0.3571531 0.1626225
v 0.4969557 0.3571531 0.7884767
v 0.4473931 0.3328835 0.8222716
v 0.4473931 -0.007833128 0.8222718
v 0.5069919 0.3739716 0.7569744
v 0.6673264 0.3739715 0.4742743
v 0.8416864 0.3739714 0.1572617
v 0.4941045 0.3841587 0.746017
v 0.4903193 0.3739716 0.7792256
v 0.4739232 0.3571531 0.8063554
v 0.6548938 0.3841587 0.4655762
v 0.3013895 0.3841586 0.2198087
v 0.3038468 0.3841587 0.7693716
v 0.4179007 0.3841587 0.7911108
v 0.8292352 0.3841586 0.1520659
v 0.3272542 0.3841586 0.01756043
v 0.3013895 0.3841586 0.01439075
v 0.3124029 0.3841586 0.01358107
v 0.3105624 0.3841586 0.01308789
v 0.3013895 0.3841586 0.01063003
v 0.2852075 0.3739715 0.01348121
v 0.2852075 0.3739715 0.008153747
v 0.2737039 0.3571531 0.008141474
v 0.2737039 0.3571531 0.01314104
v 0.2688546 0.3328834 0.01127245
v 0.2852076 0.3739715 0.2199924
v 0.2688546 0.3328834 0.01299489
v 0.2688546 0.3234478 0.01299489
v 0.2688546 0.3328835 0.2208606
v 0.2737039 0.3571531 0.2205379
v 0.2688546 0.3328835 0.7589548
v 0.273704 0.3571531 0.7573146
v 0.2852076 0.3739716 0.754165
v 0.2688546 -0.007833135 0.2208605
v 0.2688546 -0.007833137 0.07346928
v 0.2688546 -0.007833129 0.758955
v 0.274155 -0.007833129 0.7851672
v 0.3013895 0.3841587 0.7506353
v 0.2891948 0.3739715 0.7770097
v 0.274155 0.3328834 0.785167
v 0.2886045 -0.007833129 0.8065856
v 0.2786572 0.3571531 0.7826659
v 0.2886045 0.3328834 0.8065854
v 0.310026 -0.007833128 0.8210331
v 0.292382 0.3571531 0.8031241
v 0.3009408 0.3739715 0.7946523
v 0.3125051 0.3841587 0.7823851
v 0.3252973 0.3841587 0.791193
v 0.310026 0.3328835 0.8210329
v 0.336242 -0.007833128 0.8263326
v 0.3183348 0.3739715 0.8065663
v 0.3127241 0.3571531 0.8169272
v 0.336242 0.3328835 0.8263324
v 0.4169829 -0.007833128 0.8263326
v 0.3437147 0.3841587 0.7936929
v 0.3408575 0.3739715 0.8106104
v 0.3379318 0.3571531 0.8219085
v 0.4169829 0.3328835 0.8263324
v 0.4180357 0.3739715 0.8094587
v 0.4175432 0.3571531 0.8216197
v 0.4470836 0.3571531 0.817652
v 0.4453474 0.3739714 0.805759
v 0.4695499 0.3739715 0.7954852
v 0.4419154 0.3841587 0.7878479
v 0.4621125 0.3841587 0.7792491
v 0.4794446 0.3841587 0.7656401
v 0.6706314 -0.007833133 0.4849306
v 0.5176842 0.3328835 0.7677642
v 0.6792576 0.3328835 0.4837068
v 0.8201892 -0.007833142 0.2211989
v 0.8523616 0.3328834 0.1676227
v 0.6706314 -0.007833133 0.4849306
v 0.4991201 -0.007833128 0.7921873
v 0.5176842 -0.007833129 0.7677643
v 0.4473931 -0.007833128 0.8222718
v 0.4752309 -0.007833128 0.8106232
v 0.8201892 -0.007833142 0.2211989
v 0.2886045 -0.007833129 0.8065856
v 0.336242 -0.007833128 0.8263326
v 0.4169829 -0.007833128 0.8263326
v 0.310026 -0.007833128 0.8210331
v 0.2688546 -0.007833129 0.758955
v 0.274155 -0.007833129 0.7851672
v 0.2688546 -0.007833135 0.2208605
v 0.2688546 -0.007833137 0.07346928
v 0.2737039 0.3571531 0.008141474
v 0.3013895 0.3841586 0.01063003
v 0.2852075 0.3739715 0.008153747
v 0.3105624 0.3841586 0.01308789
v 0.2688546 -0.007833137 0.07346928
v 0.2688546 0.3234478 0.01299489
v 0.2688546 0.3328834 0.01127245
v 0.8416864 0.3739714 0.1572617
v 0.8523616 0.3328834 0.1676227
v 0.8201892 -0.007833142 0.2211989
v 0.8502349 0.3571531 0.1626225
v 0.8416864 0.3739714 0.1572617
v 0.3124029 0.3841586 0.01358107
v 0.3272542 0.3841586 0.01756043
v 0.8292352 0.3841586 0.1520659
vt 0.4645996 0.2744141
vt 0.4645996 0.2047119
vt 0.4645996 0.2541504
vt 0.5449219 0.02163696
vt 0.5947266 0.116333
vt 0.5449219 0.02163696
vt 0.5390625 0.01346588
vt 0.5390625 0.01346588
vt 0.5444336 0.02268982
vt 0.597168 0.1167603
vt 0.53125 0.007289886
vt 0.53125 0.007289886
vt 0.5961914 0.1176147
vt 0.6533203 0.2225342
vt 0.652832 0.2242432
vt 0.5385742 0.01470184
vt 0.5224609 0.003391266
vt 0.5224609 0.003391266
vt 0.5415039 0.0252533
vt 0.59375 0.119873
vt 0.6499023 0.2260742
vt 0.5375977 0.02891541
vt 0.5361328 0.01780701
vt 0.5307617 0.008720398
vt 0.5893555 0.1228027
vt 0.4750977 0.2050781
vt 0.4758301 0.02110291
vt 0.5126953 0.01382446
vt 0.6459961 0.2277832
vt 0.4833984 0.2727051
vt 0.4750977 0.2739258
vt 0.4785156 0.2741699
vt 0.4780273 0.2744141
vt 0.4750977 0.2751465
vt 0.4697266 0.2741699
vt 0.4697266 0.2758789
vt 0.4660645 0.2758789
vt 0.4660645 0.2741699
vt 0.4645996 0.2749023
vt 0.4697266 0.2050781
vt 0.4645996 0.2744141
vt 0.4645996 0.2744141
vt 0.4645996 0.2047119
vt 0.4660645 0.204834
vt 0.4645996 0.02458191
vt 0.4660645 0.02513123
vt 0.4697266 0.02619934
vt 0.4645996 0.2047119
vt 0.4645996 0.2541504
vt 0.4645996 0.02458191
vt 0.4663086 0.01580811
vt 0.4750977 0.02737427
vt 0.4711914 0.01853943
vt 0.4663086 0.01580811
vt 0.4709473 0.008644104
vt 0.4677734 0.01664734
vt 0.4709473 0.008644104
vt 0.4777832 0.003805161
vt 0.472168 0.009803772
vt 0.4748535 0.01263428
vt 0.4785156 0.01673889
vt 0.482666 0.01379395
vt 0.4777832 0.003805161
vt 0.4863281 0.002031326
vt 0.4804688 0.008651733
vt 0.4787598 0.005180359
vt 0.4863281 0.002031326
vt 0.5126953 0.002031326
vt 0.4887695 0.01295471
vt 0.487793 0.007293701
vt 0.4868164 0.003511429
vt 0.5126953 0.002031326
vt 0.5126953 0.007678986
vt 0.5126953 0.003608704
vt 0.5219727 0.004936218
vt 0.5214844 0.008918762
vt 0.5292969 0.01235962
vt 0.5205078 0.01491547
vt 0.5268555 0.01779175
vt 0.5327148 0.02235413
vt 0.5947266 0.116333
vt 0.5449219 0.02163696
vt 0.597168 0.1167603
vt 0.6430664 0.2045898
vt 0.6533203 0.2225342
vt 0.107666 0.9492188
vt 0.1281738 0.984375
vt 0.1256104 0.980957
vt 0.1352539 0.9882813
vt 0.1314697 0.9868164
vt 0.09637451 0.9111328
vt 0.1571045 0.9863281
vt 0.1505127 0.9887695
vt 0.1394043 0.9887695
vt 0.1541748 0.9882813
vt 0.15979 0.9794922
vt 0.1590576 0.9833984
vt 0.15979 0.9057617
vt 0.1601563 0.8852539
vt 0.6035156 0.5771484
vt 0.6049805 0.5771484
vt 0.6040039 0.5771484
vt 0.6054688 0.5771484
vt 0.6035156 0.5737305
vt 0.6035156 0.5771484
vt 0.6035156 0.5771484
vt 0.6293945 0.5693359
vt 0.6298828 0.5688477
vt 0.628418 0.565918
vt 0.6298828 0.5693359
vt 0.6293945 0.5693359
vt 0.6054688 0.5771484
vt 0.605957 0.5766602
vt 0.6289063 0.5698242
vn -1 0 6.556511E-07
vn -0.9951172 0.09844971 0
vn -1 0 0
vn 0.8330078 0.07843018 0.5478516
vn 0.8720703 -0.01499176 0.4890137
vn 0.840332 2.384186E-07 0.5419922
vn 0.7060547 0.08441162 0.703125
vn 0.7094727 2.980232E-07 0.7045898
vn 0.7797852 0.3571777 0.5141602
vn 0.8696289 0.07922363 0.4870605
vn 0.4997559 0.08825684 0.8618164
vn 0.5029297 3.576279E-07 0.8642578
vn 0.8139648 0.3625488 0.4538574
vn 0.8730469 0.09259033 0.4782715
vn 0.8183594 0.3591309 0.4489746
vn 0.6621094 0.3642578 0.6547852
vn 0.2592773 0.09191895 0.9614258
vn 0.2614746 4.172325E-07 0.965332
vn 0.5874023 0.7124023 0.3840332
vn 0.6254883 0.6972656 0.3498535
vn 0.6538086 0.6650391 0.361084
vn 0.2346191 0.9599609 0.1519775
vn 0.4992676 0.7167969 0.4868164
vn 0.4675293 0.3747559 0.8007813
vn 0.2563477 0.9560547 0.1437988
vn -0.2773438 0.9609375 0
vn -0.2878418 0.9516602 0.1070557
vn 0.02052307 0.965332 0.2592773
vn 0.3100586 0.9350586 0.1724854
vn 0 1 0
vn -0.2773438 0.9609375 0
vn 0 1 0
vn 0 1 0
vn -0.3129883 0.949707 0
vn -0.6933594 0.7202148 0
vn -0.699707 0.7143555 0
vn -0.918457 0.3959961 0
vn -0.9213867 0.3881836 1.788139E-07
vn -0.9941406 0.1082153 1.03116E-05
vn -0.6933594 0.7202148 0
vn -0.9951172 0.09844971 5.543232E-06
vn -1 0 6.556511E-07
vn -0.9951172 0.09844971 0
vn -0.9213867 0.3881836 0
vn -0.9902344 0.09973145 0.09967041
vn -0.9169922 0.3886719 0.08734131
vn -0.6938477 0.7182617 0.05618286
vn -1 0 0
vn -1 0 0
vn -0.9951172 0 0.09960938
vn -0.9223633 1.788139E-07 0.3862305
vn -0.2849121 0.9584961 0.01699829
vn -0.6469727 0.7172852 0.2595215
vn -0.9169922 0.1021729 0.3850098
vn -0.7070313 2.980232E-07 0.7070313
vn -0.8496094 0.3916016 0.3530273
vn -0.7041016 0.1021118 0.7026367
vn -0.3862305 4.172325E-07 0.9223633
vn -0.6513672 0.3937988 0.6484375
vn -0.4914551 0.722168 0.4865723
vn -0.213501 0.9545898 0.208252
vn -0.1072388 0.9526367 0.2854004
vn -0.3857422 0.09747314 0.9174805
vn -0.09954834 4.172325E-07 0.9951172
vn -0.2585449 0.7177734 0.6464844
vn -0.3540039 0.3845215 0.8525391
vn -0.09997559 0.09295654 0.9907227
vn 0.06634521 4.172325E-07 0.9975586
vn -0.01577759 0.9594727 0.2814941
vn -0.05484009 0.7216797 0.6899414
vn -0.08782959 0.3796387 0.9208984
vn 0.06542969 0.09454346 0.9931641
vn 0.04876709 0.7416992 0.6689453
vn 0.06213379 0.3920898 0.9179688
vn 0.2423096 0.3842773 0.8911133
vn 0.1812744 0.734375 0.6542969
vn 0.3503418 0.7260742 0.5913086
vn 0.07409668 0.9619141 0.2624512
vn 0.1433105 0.9604492 0.237793
vn 0.2050781 0.9589844 0.1964111
vn 0.8720703 -0.01499176 0.4890137
vn 0.8330078 0.07843018 0.5478516
vn 0.8696289 0.07922363 0.4870605
vn 0.8735352 -0.01359558 0.4865723
vn 0.8730469 0.09259033 0.4782715
vn 1.192093E-07 -1 1.192093E-07
vn 0 -1 0
vn 0 -1 0
vn 0 -1 0
vn 0 -1 0
vn 0 -1 0
vn 0 -1 0
vn 0 -1 0
vn 0 -1 0
vn 0 -1 0
vn 0 -1 0
vn 0 -1 0
vn 0 -1 0
vn 0 -1 0
vn 0.2548828 -0.173584 -0.9511719
vn 0.2548828 -0.173584 -0.9511719
vn 0.2548828 -0.173584 -0.9511719
vn 0.2548828 -0.1737061 -0.9511719
vn 0.2548828 -0.1737061 -0.9511719
vn 0.2548828 -0.1737061 -0.9511719
vn 0.2548828 -0.1737061 -0.9511719
vn 0.2548828 -0.173584 -0.9511719
vn 0.2548828 -0.1737061 -0.9511719
vn 0.2548828 -0.1737061 -0.9511719
vn 0.2548828 -0.1737061 -0.9511719
vn 0.2548828 -0.173584 -0.9511719
vn 0.2548828 -0.1737061 -0.9511719
vn 0.2548828 -0.173584 -0.9511719
vn 0.2548828 -0.173584 -0.9511719
g WoodenTile-L1-Broken-P12_0
f 3/3/3 2/2/2 1/1/1
f 6/6/6 5/5/5 4/4/4
f 4/4/4 7/7/7 6/6/6
f 8/8/8 6/6/6 7/7/7
f 4/4/4 9/9/9 7/7/7
f 4/4/4 10/10/10 9/9/9
f 7/7/7 11/11/11 8/8/8
f 12/12/12 8/8/8 11/11/11
f 13/13/13 9/9/9 10/10/10
f 10/10/10 14/14/14 13/13/13
f 15/15/15 13/13/13 14/14/14
f 16/16/16 7/7/7 9/9/9
f 7/7/7 16/16/16 11/11/11
f 11/11/11 17/17/17 12/12/12
f 18/18/18 12/12/12 17/17/17
f 9/9/9 13/13/13 19/19/19
f 9/9/9 19/19/19 16/16/16
f 13/13/13 15/15/15 20/20/20
f 20/20/20 19/19/19 13/13/13
f 21/21/21 20/20/20 15/15/15
f 19/19/19 20/20/20 22/22/22
f 19/19/19 22/22/22 23/23/23
f 23/23/23 16/16/16 19/19/19
f 24/24/24 11/11/11 16/16/16
f 11/11/11 24/24/24 17/17/17
f 16/16/16 23/23/23 24/24/24
f 20/20/20 21/21/21 25/25/25
f 25/25/25 22/22/22 20/20/20
f 26/26/26 22/22/22 25/25/25
f 27/27/27 22/22/22 26/26/26
f 28/28/28 22/22/22 27/27/27
f 29/29/29 25/25/25 21/21/21
f 29/29/29 30/30/30 25/25/25
f 30/30/30 31/31/31 25/25/25
f 31/31/31 26/26/26 25/25/25
f 31/31/31 30/30/30 32/32/32
f 31/31/31 32/32/32 33/33/33
f 31/31/31 33/33/33 34/34/34
f 31/31/31 34/34/34 35/35/35
f 31/31/31 35/35/35 26/26/26
f 36/36/36 35/35/35 34/34/34
f 36/36/36 37/37/37 35/35/35
f 38/38/38 35/35/35 37/37/37
f 37/37/37 39/39/39 38/38/38
f 40/40/40 26/26/26 35/35/35
f 35/35/35 38/38/38 40/40/40
f 41/41/41 38/38/38 39/39/39
f 41/41/41 39/39/39 42/42/42
f 42/42/42 43/43/43 41/41/41
f 38/38/38 41/41/41 44/44/44
f 44/44/44 40/40/40 38/38/38
f 43/43/43 44/44/44 41/41/41
f 43/43/43 45/45/45 44/44/44
f 44/44/44 46/46/46 40/40/40
f 46/46/46 44/44/44 45/45/45
f 40/40/40 47/47/47 26/26/26
f 47/47/47 40/40/40 46/46/46
f 43/43/43 48/48/48 45/45/45
f 48/48/48 43/43/43 49/49/49
f 50/50/50 45/45/45 48/48/48
f 50/50/50 51/51/51 45/45/45
f 52/52/52 26/26/26 47/47/47
f 52/52/52 27/27/27 26/26/26
f 52/52/52 47/47/47 27/27/27
f 47/47/47 46/46/46 53/53/53
f 53/53/53 27/27/27 47/47/47
f 54/54/54 45/45/45 51/51/51
f 51/51/51 55/55/55 54/54/54
f 46/46/46 45/45/45 56/56/56
f 56/56/56 53/53/53 46/46/46
f 54/54/54 56/56/56 45/45/45
f 57/57/57 54/54/54 55/55/55
f 55/55/55 58/58/58 57/57/57
f 56/56/56 54/54/54 59/59/59
f 57/57/57 59/59/59 54/54/54
f 53/53/53 56/56/56 60/60/60
f 59/59/59 60/60/60 56/56/56
f 27/27/27 53/53/53 61/61/61
f 60/60/60 61/61/61 53/53/53
f 61/61/61 62/62/62 27/27/27
f 61/61/61 60/60/60 62/62/62
f 62/62/62 28/28/28 27/27/27
f 63/63/63 57/57/57 58/58/58
f 58/58/58 64/64/64 63/63/63
f 60/60/60 59/59/59 65/65/65
f 65/65/65 62/62/62 60/60/60
f 59/59/59 57/57/57 66/66/66
f 63/63/63 66/66/66 57/57/57
f 66/66/66 65/65/65 59/59/59
f 67/67/67 63/63/63 64/64/64
f 64/64/64 68/68/68 67/67/67
f 62/62/62 65/65/65 69/69/69
f 69/69/69 28/28/28 62/62/62
f 70/70/70 69/69/69 65/65/65
f 65/65/65 66/66/66 70/70/70
f 69/69/69 70/70/70 28/28/28
f 66/66/66 63/63/63 71/71/71
f 71/71/71 70/70/70 66/66/66
f 67/67/67 71/71/71 63/63/63
f 72/72/72 67/67/67 68/68/68
f 68/68/68 18/18/18 72/72/72
f 17/17/17 72/72/72 18/18/18
f 70/70/70 71/71/71 73/73/73
f 73/73/73 28/28/28 70/70/70
f 71/71/71 67/67/67 74/74/74
f 72/72/72 74/74/74 67/67/67
f 74/74/74 73/73/73 71/71/71
f 17/17/17 75/75/75 72/72/72
f 74/74/74 72/72/72 75/75/75
f 75/75/75 17/17/17 24/24/24
f 73/73/73 74/74/74 76/76/76
f 75/75/75 76/76/76 74/74/74
f 24/24/24 77/77/77 75/75/75
f 76/76/76 75/75/75 77/77/77
f 77/77/77 24/24/24 23/23/23
f 28/28/28 73/73/73 78/78/78
f 76/76/76 78/78/78 73/73/73
f 78/78/78 79/79/79 28/28/28
f 78/78/78 76/76/76 79/79/79
f 77/77/77 79/79/79 76/76/76
f 79/79/79 22/22/22 28/28/28
f 80/80/80 23/23/23 22/22/22
f 23/23/23 80/80/80 77/77/77
f 79/79/79 77/77/77 80/80/80
f 80/80/80 22/22/22 79/79/79
f 83/83/83 82/82/82 81/81/81
f 81/81/81 84/84/84 83/83/83
f 85/85/85 83/83/83 84/84/84
f 88/88/88 87/87/87 86/86/86
f 87/87/87 89/89/89 86/86/86
f 90/90/90 89/89/89 87/87/87
f 86/86/86 89/89/89 91/91/91
f 89/89/89 92/92/92 91/91/91
f 93/93/93 92/92/92 89/89/89
f 94/94/94 93/93/93 89/89/89
f 95/95/95 92/92/92 93/93/93
f 92/92/92 96/96/96 91/91/91
f 97/97/97 96/96/96 92/92/92
f 96/96/96 98/98/98 91/91/91
f 98/98/98 99/99/99 91/91/91
f 102/102/102 101/101/101 100/100/100
f 101/101/101 103/103/103 100/100/100
f 103/103/103 104/104/104 100/100/100
f 104/104/104 105/105/105 100/100/100
f 100/100/100 105/105/105 106/106/106
f 107/107/107 104/104/104 103/103/103
f 108/108/108 104/104/104 107/107/107
f 109/109/109 104/104/104 108/108/108
f 110/110/110 108/108/108 107/107/107
f 112/112/112 111/111/111 103/103/103
f 113/113/113 107/107/107 112/112/112
f 114/114/114 107/107/107 113/113/113
