g WoodenTile-L2-Broken-P2
v 0.1111954 0.05199733 0.01302778
v 0.2218339 0.2392493 0.1547008
v 0.2218312 0.2461853 0.01302778
v 0.2218339 0.2392493 0.1547008
v 0.1111954 0.05199733 0.01302778
v 0.1533984 0.05230616 0.1547008
v -0.2784624 0.2393816 0.1547008
v 0.1111954 0.05199733 0.01302778
v -0.300642 0.2463241 0.01302778
v 0.1111954 0.05199733 0.01302778
v -0.2784624 0.2393816 0.1547008
v 0.1533984 0.05230616 0.1547008
v -0.2784624 0.2393816 0.1547008
v -0.3156015 0.2661694 0.03192502
v -0.3042671 0.2532613 0.1467759
v -0.3156015 0.2661694 0.03192502
v -0.2784624 0.2393816 0.1547008
v -0.300642 0.2463241 0.01302778
v -0.3042671 0.2532613 0.1467759
v -0.3154462 0.2704455 0.08163349
v -0.3118679 0.266169 0.1318411
v -0.3154462 0.2704455 0.08163349
v -0.3042671 0.2532613 0.1467759
v -0.3156015 0.2661694 0.03192502
v 0.2218872 0.2661209 0.03192502
v 0.2218872 0.2661209 0.1318411
v 0.2206487 0.2704726 0.08163349
v 0.2218872 0.2661209 0.1318411
v 0.2218339 0.2392493 0.1547008
v 0.2218289 0.2531215 0.1467759
v 0.2218872 0.2661209 0.03192502
v 0.2218339 0.2392493 0.1547008
v 0.2218872 0.2661209 0.1318411
v 0.2218312 0.2461853 0.01302778
v 0.2218339 0.2392493 0.1547008
v 0.2218872 0.2661209 0.03192502
v 0.1533984 0.05230616 0.1547008
v -0.2784624 0.2393816 0.1547008
v 0.2218339 0.2392493 0.1547008
v 0.2218289 0.2531215 0.1467759
v -0.3042671 0.2532613 0.1467759
v 0.2218872 0.2661209 0.1318411
v -0.3118679 0.266169 0.1318411
v 0.2206487 0.2704726 0.08163349
v -0.3154462 0.2704455 0.08163349
v -0.3156015 0.2661694 0.03192502
v 0.2206487 0.2704726 0.08163349
v -0.3154462 0.2704455 0.08163349
v 0.2218872 0.2661209 0.03192502
v -0.300642 0.2463241 0.01302778
v 0.2218312 0.2461853 0.01302778
v 0.1111954 0.05199733 0.01302778
vt 0.8969727 0.2614746
vt 0.9599609 0.2380371
vt 0.9628906 0.237915
vt 0.9599609 0.2380371
vt 0.8969727 0.2614746
vt 0.8969727 0.2612305
vt 0.9599609 0.394043
vt 0.8969727 0.2614746
vt 0.9628906 0.4016113
vt 0.8969727 0.2614746
vt 0.9599609 0.394043
vt 0.8969727 0.2612305
vt 0.9599609 0.394043
vt 0.9697266 0.4069824
vt 0.965332 0.4030762
vt 0.9697266 0.4069824
vt 0.9599609 0.394043
vt 0.9628906 0.4016113
vt 0.965332 0.4030762
vt 0.9799805 0.4069824
vt 0.9697266 0.4057617
vt 0.9799805 0.4069824
vt 0.965332 0.4030762
vt 0.9697266 0.4069824
vt 0.9692383 0.237793
vt 0.9692383 0.237793
vt 0.9794922 0.2375488
vt 0.9692383 0.237793
vt 0.9599609 0.2380371
vt 0.965332 0.237915
vt 0.9692383 0.237793
vt 0.9599609 0.2380371
vt 0.9692383 0.237793
vt 0.9628906 0.237915
vt 0.9599609 0.2380371
vt 0.9692383 0.237793
vt 0.8969727 0.2612305
vt 0.9599609 0.394043
vt 0.9599609 0.2380371
vt 0.965332 0.237915
vt 0.965332 0.4030762
vt 0.9692383 0.237793
vt 0.9697266 0.4057617
vt 0.9794922 0.2375488
vt 0.9799805 0.4069824
vt 0.9697266 0.4069824
vt 0.9794922 0.2375488
vt 0.9799805 0.4069824
vt 0.9692383 0.237793
vt 0.9628906 0.4016113
vt 0.9628906 0.237915
vt 0.8969727 0.2614746
vn 0.8686523 -0.494873 -0.02424622
vn 0.8686523 -0.494873 -0.02424622
vn 0.8686523 -0.494873 -0.02424622
vn 0.9042969 -0.3310547 -0.2687988
vn 0.9042969 -0.3310547 -0.2687988
vn 0.9042969 -0.3310547 -0.2687988
vn -0.4265137 -0.9042969 0.02249146
vn -0.4265137 -0.9042969 0.02249146
vn -0.4265137 -0.9042969 0.02249146
vn -0.3945313 -0.9111328 0.1195679
vn -0.3945313 -0.9111328 0.1195679
vn -0.3945313 -0.9111328 0.1195679
vn -0.4599609 -0.8862305 -0.05419922
vn -0.4599609 -0.8862305 -0.05419922
vn -0.4599609 -0.8862305 -0.05419922
vn -0.7543945 -0.6508789 0.08624268
vn -0.7543945 -0.6508789 0.08624268
vn -0.7543945 -0.6508789 0.08624268
vn -0.871582 -0.4897461 0.02041626
vn -0.871582 -0.4897461 0.02041626
vn -0.871582 -0.4897461 0.02041626
vn -0.9003906 -0.4335938 0.0401001
vn -0.9003906 -0.4335938 0.0401001
vn -0.9003906 -0.4335938 0.0401001
vn 0.9619141 0.2736816 0
vn 0.9619141 0.2736816 0
vn 0.9619141 0.2736816 0
vn 1 0.005146027 0.008384705
vn 1 0.005146027 0.008384705
vn 1 0.005146027 0.008384705
vn 1 -0.00198555 0
vn 1 -0.00198555 0
vn 1 -0.00198555 0
vn 1 -0.002666473 -0.0001494884
vn 1 -0.002666473 -0.0001494884
vn 1 -0.002666473 -0.0001494884
vn 0 0 1
vn 0.0001156926 0.4353027 0.9003906
vn 7.635355E-05 0.2885742 0.9575195
vn 0.0001683235 0.6342773 0.7734375
vn 8.523464E-05 0.7055664 0.7084961
vn 0.0001513958 0.9194336 0.3928223
vn 4.649162E-06 0.9399414 0.3417969
vn 8.195639E-05 1 -0.0004384518
vn -5.060434E-05 1 -0.002479553
vn 2.384186E-07 0.9296875 -0.3679199
vn 8.195639E-05 1 -0.0004384518
vn -5.060434E-05 1 -0.002479553
vn 0.0001440048 0.8994141 -0.4372559
vn 5.614758E-05 0.5927734 -0.8051758
vn 0.0001174212 0.4421387 -0.8969727
vn 0 0 -1
g WoodenTile-L2-Broken-P2_0
f 3/3/3 2/2/2 1/1/1
f 6/6/6 5/5/5 4/4/4
f 9/9/9 8/8/8 7/7/7
f 12/12/12 11/11/11 10/10/10
f 15/15/15 14/14/14 13/13/13
f 18/18/18 17/17/17 16/16/16
f 21/21/21 20/20/20 19/19/19
f 24/24/24 23/23/23 22/22/22
f 27/27/27 26/26/26 25/25/25
f 30/30/30 29/29/29 28/28/28
f 33/33/33 32/32/32 31/31/31
f 36/36/36 35/35/35 34/34/34
f 39/39/39 38/38/38 37/37/37
f 39/39/39 40/40/40 38/38/38
f 41/41/41 38/38/38 40/40/40
f 40/40/40 42/42/42 41/41/41
f 43/43/43 41/41/41 42/42/42
f 42/42/42 44/44/44 43/43/43
f 45/45/45 43/43/43 44/44/44
f 48/48/48 47/47/47 46/46/46
f 49/49/49 46/46/46 47/47/47
f 46/46/46 49/49/49 50/50/50
f 51/51/51 50/50/50 49/49/49
f 51/51/51 52/52/52 50/50/50
