g WoodenTile-L2-Broken-P1
v 0.04666702 -0.2392487 0.1547008
v 0.03371574 -0.2661202 0.1318411
v 0.04151535 -0.2531208 0.1467759
v 0.03371574 -0.2661202 0.1318411
v 0.005060577 -0.2661202 0.03192501
v 0.004496841 -0.270472 0.08163349
v 0.04666702 -0.2392487 0.1547008
v 0.005060577 -0.2661202 0.03192501
v 0.03371574 -0.2661202 0.1318411
v 0.005060577 -0.2661202 0.03192501
v 0.05398617 -0.1088147 0.01302778
v 0.005116501 -0.2461848 0.01302778
v 0.04666702 -0.2392487 0.1547008
v 0.05398617 -0.1088147 0.01302778
v 0.005060577 -0.2661202 0.03192501
v 0.09437212 -0.1089341 0.1547008
v 0.05398617 -0.1088147 0.01302778
v 0.04666702 -0.2392487 0.1547008
v -0.300642 0.2463241 0.01302778
v -0.3154462 0.2704455 0.08163349
v -0.3156015 0.2661694 0.03192502
v -0.3154462 0.2704455 0.08163349
v -0.3042671 0.2532613 0.1467759
v -0.3118679 0.266169 0.1318411
v -0.300642 0.2463241 0.01302778
v -0.3042671 0.2532613 0.1467759
v -0.3154462 0.2704455 0.08163349
v -0.3042671 0.2532613 0.1467759
v 0.1533984 0.05230616 0.1547008
v -0.2784624 0.2393816 0.1547008
v -0.300642 0.2463241 0.01302778
v 0.1533984 0.05230616 0.1547008
v -0.3042671 0.2532613 0.1467759
v 0.1111954 0.05199733 0.01302778
v 0.1533984 0.05230616 0.1547008
v -0.300642 0.2463241 0.01302778
v -0.7262561 -0.2705217 0.08163349
v 0.03371574 -0.2661202 0.1318411
v 0.004496841 -0.270472 0.08163349
v -0.7240555 -0.2660316 0.1318411
v 0.04151535 -0.2531208 0.1467759
v -0.7545102 -0.2598703 0.1318411
v -0.761215 -0.2641793 0.08163349
v -0.7222422 -0.2528602 0.1467759
v 0.04666702 -0.2392487 0.1547008
v -0.7208593 -0.2389886 0.1547008
v -0.7210309 0.2395093 0.1547008
v 0.09437212 -0.1089341 0.1547008
v -0.7488982 -0.2474603 0.1467759
v -0.7791913 -0.2432189 0.1318411
v -0.786858 -0.2468839 0.08163349
v -0.7434418 -0.2344138 0.1547008
v -0.7693631 -0.2336484 0.1467759
v -0.7958412 -0.2185354 0.1318411
v -0.804154 -0.2212422 0.08163349
v -0.7593768 -0.2236594 0.1547008
v -0.7701283 -0.2077205 0.1547008
v -0.7831714 -0.2131782 0.1467759
v -0.8020021 -0.1880782 0.1318411
v -0.810497 -0.1898603 0.08163349
v -0.8104715 0.1897501 0.08163348
v -0.774702 -0.1851319 0.1547008
v -0.7885699 -0.1865153 0.1467759
v -0.802048 0.1882748 0.1318411
v -0.7887039 0.1870846 0.1467759
v -0.7748349 0.1856914 0.1547008
v -0.7702776 0.2082767 0.1547008
v -0.7958946 0.2187306 0.1318411
v -0.8041241 0.2211327 0.08163349
v -0.7833245 0.2137438 0.1467759
v -0.7436102 0.2349509 0.1547008
v -0.7792508 0.2434099 0.1318411
v -0.7868245 0.2467769 0.08163349
v -0.7595373 0.2242079 0.1547008
v -0.769531 0.234204 0.1467759
v -0.7490759 0.2480014 0.1467758
v -0.7545735 0.2600555 0.1318411
v -0.7611792 0.2640757 0.08163349
v -0.7224238 0.253382 0.1467759
v -0.7241203 0.2662094 0.1318411
v -0.7258824 0.270423 0.08163349
v -0.3154462 0.2704455 0.08163349
v -0.3118679 0.266169 0.1318411
v -0.3042671 0.2532613 0.1467759
v -0.2784624 0.2393816 0.1547008
v 0.1533984 0.05230616 0.1547008
v 0.231076 -0.06642903 0.1547008
v 0.2151444 0.004125366 0.1547008
v 0.005060577 -0.2661202 0.03192501
v -0.7262561 -0.2705217 0.08163349
v 0.004496841 -0.270472 0.08163349
v -0.7240555 -0.2660316 0.03192501
v 0.005116501 -0.2461848 0.01302778
v -0.7215508 -0.2459244 0.01302777
v 0.05398617 -0.1088147 0.01302778
v -0.74617 -0.240937 0.01302776
v -0.7545102 -0.2598703 0.03192501
v -0.761215 -0.2641793 0.08163349
v -0.7791913 -0.2432189 0.03192501
v -0.786858 -0.2468839 0.08163349
v -0.7643698 -0.2286539 0.01302777
v -0.7766498 -0.2104494 0.01302777
v -0.7958412 -0.2185354 0.03192501
v -0.804154 -0.2212422 0.08163349
v -0.7816359 -0.1858235 0.01302776
v -0.8020021 -0.1880782 0.03192501
v -0.810497 -0.1898603 0.08163349
v -0.8104715 0.1897501 0.08163348
v -0.7817694 0.186388 0.01302778
v -0.802048 0.1882748 0.03192501
v -0.776801 0.2110103 0.01302777
v -0.7958946 0.2187306 0.03192501
v -0.8041241 0.2211327 0.08163349
v -0.7792508 0.2434099 0.03192501
v -0.7868245 0.2467769 0.08163349
v -0.7645341 0.229206 0.01302779
v -0.7463431 0.2414761 0.01302781
v -0.7545735 0.2600555 0.03192501
v -0.7611792 0.2640757 0.08163349
v -0.7217273 0.2464456 0.01302777
v -0.7241203 0.2662094 0.03192501
v -0.7258824 0.270423 0.08163349
v -0.3154462 0.2704455 0.08163349
v -0.3156015 0.2661694 0.03192502
v -0.300642 0.2463241 0.01302778
v 0.1111954 0.05199733 0.01302778
v 0.1753048 0.002554345 0.01302778
v 0.1918453 -0.06567525 0.01302778
v 0.2151444 0.004125366 0.1547008
v 0.1111954 0.05199733 0.01302778
v 0.1753048 0.002554345 0.01302778
v 0.1533984 0.05230616 0.1547008
v 0.231076 -0.06642903 0.1547008
v 0.05398617 -0.1088147 0.01302778
v 0.09437212 -0.1089341 0.1547008
v 0.1918453 -0.06567525 0.01302778
v 0.231076 -0.06642903 0.1547008
v 0.1753048 0.002554345 0.01302778
v 0.1918453 -0.06567525 0.01302778
v 0.2151444 0.004125366 0.1547008
v -0.4849654 -0.05256493 0.1540316
v -0.4849654 0.05038637 0.2016789
v -0.4849654 0.05038637 0.1540316
v -0.4849654 -0.05256493 0.2016789
v -0.4995127 -0.07776158 0.1540316
v -0.4995127 0.075583 0.2016789
v -0.4995127 0.075583 0.1540316
v -0.4995127 -0.07776158 0.2016789
v -0.5886711 -0.1292372 0.1540316
v -0.5001032 0.05844427 0.2223548
v -0.5886711 0.1270587 0.2016789
v -0.5886711 0.1270587 0.1540316
v -0.5886711 -0.1292372 0.2016789
v -0.6177657 -0.1292373 0.1540316
v -0.5001032 -0.06062286 0.2223548
v -0.6032184 0.1179778 0.2223548
v -0.6177657 0.1270586 0.2016789
v -0.6177657 0.1270586 0.1540316
v -0.6177657 -0.1292373 0.2016789
v -0.7069241 -0.07776159 0.1540316
v -0.6032183 -0.1201564 0.2223548
v -0.7069241 -0.07776159 0.2016789
v -0.7214714 -0.052565 0.1540316
v -0.7063335 -0.06062286 0.2223548
v -0.7214714 -0.052565 0.2016789
v -0.7214715 0.05038635 0.1540316
v -0.7214715 0.05038635 0.2016789
v -0.7069241 0.07558298 0.1540316
v -0.7069241 0.07558298 0.2016789
v -0.7063335 0.05844423 0.2223548
vt 0.7978516 0.2976074
vt 0.7885742 0.2976074
vt 0.7924805 0.2976074
vt 0.7885742 0.2976074
vt 0.7885742 0.2976074
vt 0.777832 0.2976074
vt 0.7978516 0.2976074
vt 0.7885742 0.2976074
vt 0.7885742 0.2976074
vt 0.7885742 0.2976074
vt 0.8417969 0.2810059
vt 0.7954102 0.2976074
vt 0.7978516 0.2976074
vt 0.8417969 0.2810059
vt 0.7885742 0.2976074
vt 0.8422852 0.2814941
vt 0.8417969 0.2810059
vt 0.7978516 0.2976074
vt 0.9628906 0.4016113
vt 0.9799805 0.4069824
vt 0.9697266 0.4069824
vt 0.9799805 0.4069824
vt 0.965332 0.4030762
vt 0.9697266 0.4057617
vt 0.9628906 0.4016113
vt 0.965332 0.4030762
vt 0.9799805 0.4069824
vt 0.965332 0.4030762
vt 0.8969727 0.2612305
vt 0.9599609 0.394043
vt 0.9628906 0.4016113
vt 0.8969727 0.2612305
vt 0.965332 0.4030762
vt 0.8969727 0.2614746
vt 0.8969727 0.2612305
vt 0.9628906 0.4016113
vt 0.777832 0.5478516
vt 0.7885742 0.2976074
vt 0.777832 0.2976074
vt 0.7885742 0.5463867
vt 0.7924805 0.2976074
vt 0.7910156 0.5561523
vt 0.78125 0.5595703
vt 0.7924805 0.5454102
vt 0.7978516 0.2976074
vt 0.7978516 0.5444336
vt 0.9599609 0.5444336
vt 0.8422852 0.2814941
vt 0.7949219 0.5541992
vt 0.7963867 0.5639648
vt 0.7875977 0.5732422
vt 0.7998047 0.5517578
vt 0.7993164 0.5610352
vt 0.8046875 0.5688477
vt 0.8017578 0.5786133
vt 0.8032227 0.5566406
vt 0.8085938 0.5600586
vt 0.8066406 0.5649414
vt 0.8149414 0.5712891
vt 0.8134766 0.581543
vt 0.9443359 0.581543
vt 0.815918 0.5620117
vt 0.8154297 0.5668945
vt 0.9428711 0.5712891
vt 0.9423828 0.5668945
vt 0.9418945 0.5620117
vt 0.949707 0.5600586
vt 0.953125 0.5688477
vt 0.956543 0.5786133
vt 0.9516602 0.5649414
vt 0.9584961 0.5517578
vt 0.9619141 0.5644531
vt 0.9707031 0.5732422
vt 0.9550781 0.5566406
vt 0.9584961 0.5610352
vt 0.9633789 0.5541992
vt 0.9667969 0.5561523
vt 0.9765625 0.5595703
vt 0.965332 0.5454102
vt 0.9697266 0.5463867
vt 0.9799805 0.5478516
vt 0.9799805 0.4069824
vt 0.9697266 0.4057617
vt 0.965332 0.4030762
vt 0.9599609 0.394043
vt 0.8969727 0.2612305
vt 0.8564453 0.2348633
vt 0.8803711 0.2402344
vt 0.7885742 0.2976074
vt 0.777832 0.5478516
vt 0.777832 0.2976074
vt 0.7885742 0.5463867
vt 0.7954102 0.2976074
vt 0.7954102 0.5449219
vt 0.8417969 0.2810059
vt 0.7973633 0.5527344
vt 0.7910156 0.5561523
vt 0.78125 0.5595703
vt 0.7963867 0.5639648
vt 0.7861328 0.5698242
vt 0.8012695 0.5585938
vt 0.8076172 0.5625
vt 0.8046875 0.5688477
vt 0.8017578 0.5786133
vt 0.815918 0.5644531
vt 0.8149414 0.5712891
vt 0.8134766 0.581543
vt 0.9443359 0.581543
vt 0.9423828 0.5644531
vt 0.9428711 0.5712891
vt 0.9506836 0.5625
vt 0.953125 0.5688477
vt 0.956543 0.5786133
vt 0.9619141 0.5644531
vt 0.9672852 0.5742188
vt 0.956543 0.5585938
vt 0.9609375 0.5527344
vt 0.9667969 0.5561523
vt 0.9765625 0.5595703
vt 0.9628906 0.5449219
vt 0.9697266 0.5463867
vt 0.9799805 0.5478516
vt 0.9799805 0.4069824
vt 0.9697266 0.4069824
vt 0.9628906 0.4016113
vt 0.8969727 0.2614746
vt 0.8798828 0.239624
vt 0.8564453 0.2340088
vt 0.8803711 0.2402344
vt 0.8969727 0.2614746
vt 0.8798828 0.239624
vt 0.8969727 0.2612305
vt 0.8564453 0.2348633
vt 0.8417969 0.2810059
vt 0.8422852 0.2814941
vt 0.8564453 0.2340088
vt 0.8564453 0.2348633
vt 0.8798828 0.239624
vt 0.8564453 0.2340088
vt 0.8803711 0.2402344
vt 0.3845215 0.8476563
vt 0.3989258 0.9023438
vt 0.4179688 0.8955078
vt 0.371582 0.8632813
vt 0.3630371 0.8374023
vt 0.4001465 0.9155273
vt 0.4199219 0.9189453
vt 0.359375 0.8574219
vt 0.3049316 0.8427734
vt 0.3925781 0.9091797
vt 0.3798828 0.9584961
vt 0.3952637 0.9716797
vt 0.3120117 0.8618164
vt 0.2856445 0.8564453
vt 0.3625488 0.8666992
vt 0.3706055 0.9570313
vt 0.3688965 0.9663086
vt 0.3759766 0.9853516
vt 0.3010254 0.8691406
vt 0.2609863 0.9091797
vt 0.3105469 0.8710938
vt 0.2810059 0.9125977
vt 0.2631836 0.9326172
vt 0.2883301 0.918457
vt 0.2819824 0.9257813
vt 0.2963867 0.9804688
vt 0.3093262 0.9648438
vt 0.3178711 0.9902344
vt 0.3215332 0.9702148
vt 0.3183594 0.9614258
vn 0.9213867 -0.1337891 -0.3647461
vn 0.9213867 -0.1337891 -0.3647461
vn 0.9213867 -0.1337891 -0.3647461
vn 0.2807617 -0.956543 -0.08056641
vn 0.2807617 -0.956543 -0.08056641
vn 0.2807617 -0.956543 -0.08056641
vn 0.9370117 -0.2230225 -0.2687988
vn 0.9370117 -0.2230225 -0.2687988
vn 0.9370117 -0.2230225 -0.2687988
vn 0.8891602 -0.3161621 -0.3310547
vn 0.8891602 -0.3161621 -0.3310547
vn 0.8891602 -0.3161621 -0.3310547
vn 0.9179688 -0.3144531 -0.2421875
vn 0.9179688 -0.3144531 -0.2421875
vn 0.9179688 -0.3144531 -0.2421875
vn 0.9072266 -0.3320313 -0.2587891
vn 0.9072266 -0.3320313 -0.2587891
vn 0.9072266 -0.3320313 -0.2587891
vn 0.7705078 0.6352539 -0.05703735
vn 0.7705078 0.6352539 -0.05703735
vn 0.7705078 0.6352539 -0.05703735
vn 0.871582 0.4897461 -0.02041626
vn 0.871582 0.4897461 -0.02041626
vn 0.871582 0.4897461 -0.02041626
vn 0.8461914 0.5327148 -0.004695892
vn 0.8461914 0.5327148 -0.004695892
vn 0.8461914 0.5327148 -0.004695892
vn 0.3793945 0.8759766 0.298584
vn 0.3793945 0.8759766 0.298584
vn 0.3793945 0.8759766 0.298584
vn 0.4023438 0.9145508 -0.03652954
vn 0.4023438 0.9145508 -0.03652954
vn 0.4023438 0.9145508 -0.03652954
vn 0.4233398 0.8969727 -0.1280518
vn 0.4233398 0.8969727 -0.1280518
vn 0.4233398 0.8969727 -0.1280518
vn -0.09521484 -0.9956055 -0.0004730225
vn -3.945827E-05 -0.8779297 0.4787598
vn 6.80089E-05 -1 0.01171875
vn -0.09118652 -0.9155273 0.3916016
vn -0.0001410246 -0.6044922 0.796875
vn -0.3461914 -0.8466797 0.404541
vn -0.3876953 -0.921875 -0.0006403923
vn -0.06280518 -0.6323242 0.7724609
vn -6.920099E-05 -0.2028809 0.9790039
vn -0.02705383 -0.2692871 0.9628906
vn -0.02685547 0.2692871 0.9628906
vn 0 0 1
vn -0.2438965 -0.5849609 0.7734375
vn -0.6386719 -0.6435547 0.4221191
vn -0.7119141 -0.7026367 -0.000770092
vn -0.1088867 -0.2597656 0.9594727
vn -0.4467773 -0.4472656 0.7749023
vn -0.8330078 -0.3498535 0.4287109
vn -0.9228516 -0.3845215 -0.0008282661
vn -0.1989746 -0.1988525 0.9594727
vn -0.2600098 -0.1088867 0.9594727
vn -0.5830078 -0.2438965 0.7753906
vn -0.8979492 -0.08959961 0.4309082
vn -0.9951172 -0.100647 -0.0008292198
vn -0.9951172 0.1002808 -0.0008201599
vn -0.2692871 -0.02705383 0.9628906
vn -0.628418 -0.06280518 0.7753906
vn -0.8994141 0.08929443 0.4279785
vn -0.6303711 0.06311035 0.7739258
vn -0.2692871 0.02684021 0.9628906
vn -0.2600098 0.1087036 0.9594727
vn -0.8354492 0.3503418 0.423584
vn -0.9233398 0.3840332 -0.0008111
vn -0.5859375 0.2458496 0.7724609
vn -0.1087036 0.2597656 0.9594727
vn -0.6411133 0.6455078 0.4145508
vn -0.7119141 0.7021484 -0.0007452965
vn -0.1988525 0.1988525 0.9594727
vn -0.4499512 0.4511719 0.7705078
vn -0.2457275 0.590332 0.7685547
vn -0.3491211 0.8481445 0.3984375
vn -0.3901367 0.9208984 -0.0006041527
vn -0.06311035 0.637207 0.7680664
vn -0.0892334 0.918457 0.3847656
vn -0.09039307 0.9960938 -0.0004301071
vn 8.624792E-05 1 0.001549721
vn 0.0001718998 0.9047852 0.4260254
vn 0.000169158 0.5859375 0.8100586
vn 2.461672E-05 0.08520508 0.996582
vn 0 0 1
vn 0 0 1
vn 0 0 1
vn -1.317263E-05 -0.8999023 -0.4362793
vn -0.09521484 -0.9956055 -0.0004730225
vn 6.80089E-05 -1 0.01171875
vn -0.08911133 -0.8969727 -0.4326172
vn -4.23789E-05 -0.3334961 -0.9428711
vn -0.03817749 -0.3845215 -0.9223633
vn 0 0 -1
vn -0.1538086 -0.3691406 -0.9165039
vn -0.338623 -0.8300781 -0.4431152
vn -0.3876953 -0.921875 -0.0006403923
vn -0.6254883 -0.6303711 -0.4599609
vn -0.7119141 -0.7026367 -0.000770092
vn -0.2810059 -0.2814941 -0.9174805
vn -0.3671875 -0.1536865 -0.9174805
vn -0.8154297 -0.3425293 -0.4663086
vn -0.9228516 -0.3845215 -0.0008282661
vn -0.3818359 -0.03811646 -0.9233398
vn -0.878418 -0.08746338 -0.4699707
vn -0.9951172 -0.100647 -0.0008292198
vn -0.9951172 0.1002808 -0.0008201599
vn -0.3830566 0.03839111 -0.9228516
vn -0.8793945 0.08734131 -0.4677734
vn -0.3696289 0.1551514 -0.9160156
vn -0.8173828 0.3432617 -0.4624023
vn -0.9233398 0.3840332 -0.0008111
vn -0.6274414 0.6323242 -0.4543457
vn -0.7119141 0.7021484 -0.0007452965
vn -0.2836914 0.284668 -0.9155273
vn -0.1552734 0.373291 -0.9145508
vn -0.3415527 0.8310547 -0.4389648
vn -0.3901367 0.9208984 -0.0006041527
vn -0.03845215 0.3886719 -0.9204102
vn -0.08703613 0.8994141 -0.4279785
vn -0.09039307 0.9960938 -0.0004301071
vn 8.624792E-05 1 0.001549721
vn 0.0001630783 0.8779297 -0.4787598
vn 5.996227E-05 0.2077637 -0.9780273
vn 0 0 -1
vn 0 0 -1
vn 0 0 -1
vn 0.6010742 0.7792969 -0.1776123
vn 0.6010742 0.7792969 -0.1776123
vn 0.6010742 0.7792969 -0.1776123
vn 0.6049805 0.7753906 -0.1818848
vn 0.2958984 -0.9516602 -0.08514404
vn 0.2958984 -0.9516602 -0.08514404
vn 0.2958984 -0.9516602 -0.08514404
vn 0.2976074 -0.9506836 -0.08746338
vn 0.9389648 0.2275391 -0.2587891
vn 0.9389648 0.2275391 -0.2587891
vn 0.9389648 0.2275391 -0.2587891
vn 0.9399414 0.2122803 -0.2666016
vn 0.9658203 -0.2587891 0
vn 0.9370117 0.22229 0.2700195
vn 0.9658203 0.2587891 0
vn 0.9370117 -0.22229 0.2700195
vn 0.7070313 -0.7070313 0
vn 0.6611328 0.7001953 0.2700195
vn 0.7070313 0.7070313 0
vn 0.6611328 -0.7001953 0.2700195
vn 0.2587891 -0.9658203 0
vn 0.4946289 0.2854004 0.8208008
vn 0.2758789 0.9223633 0.2700195
vn 0.2587891 0.9658203 0
vn 0.2758789 -0.9223633 0.2700195
vn -0.2587891 -0.9658203 0
vn 0.4946289 -0.2854004 0.8208008
vn 0 0.5708008 0.8208008
vn -0.2758789 0.9223633 0.2700195
vn -0.2587891 0.9658203 0
vn -0.2758789 -0.9223633 0.2700195
vn -0.7070313 -0.7070313 0
vn 4.172325E-07 -0.5708008 0.8208008
vn -0.6611328 -0.7001953 0.2700195
vn -0.9658203 -0.2587891 0
vn -0.4946289 -0.2854004 0.8208008
vn -0.9370117 -0.22229 0.2700195
vn -0.9658203 0.2587891 0
vn -0.9370117 0.22229 0.2700195
vn -0.7070313 0.7070313 0
vn -0.6611328 0.7001953 0.2700195
vn -0.4946289 0.2854004 0.8208008
g WoodenTile-L2-Broken-P1_0
f 3/3/3 2/2/2 1/1/1
f 6/6/6 5/5/5 4/4/4
f 9/9/9 8/8/8 7/7/7
f 12/12/12 11/11/11 10/10/10
f 15/15/15 14/14/14 13/13/13
f 18/18/18 17/17/17 16/16/16
f 21/21/21 20/20/20 19/19/19
f 24/24/24 23/23/23 22/22/22
f 27/27/27 26/26/26 25/25/25
f 30/30/30 29/29/29 28/28/28
f 33/33/33 32/32/32 31/31/31
f 36/36/36 35/35/35 34/34/34
f 39/39/39 38/38/38 37/37/37
f 40/40/40 37/37/37 38/38/38
f 38/38/38 41/41/41 40/40/40
f 40/40/40 42/42/42 37/37/37
f 43/43/43 37/37/37 42/42/42
f 44/44/44 40/40/40 41/41/41
f 41/41/41 45/45/45 44/44/44
f 46/46/46 44/44/44 45/45/45
f 46/46/46 45/45/45 47/47/47
f 45/45/45 48/48/48 47/47/47
f 44/44/44 49/49/49 40/40/40
f 42/42/42 40/40/40 49/49/49
f 42/42/42 50/50/50 43/43/43
f 51/51/51 43/43/43 50/50/50
f 46/46/46 52/52/52 44/44/44
f 49/49/49 44/44/44 52/52/52
f 49/49/49 53/53/53 42/42/42
f 50/50/50 42/42/42 53/53/53
f 50/50/50 54/54/54 51/51/51
f 55/55/55 51/51/51 54/54/54
f 52/52/52 56/56/56 49/49/49
f 53/53/53 49/49/49 56/56/56
f 56/56/56 52/52/52 57/57/57
f 56/56/56 57/57/57 53/53/53
f 52/52/52 46/46/46 57/57/57
f 53/53/53 58/58/58 50/50/50
f 58/58/58 53/53/53 57/57/57
f 54/54/54 50/50/50 58/58/58
f 54/54/54 59/59/59 55/55/55
f 60/60/60 55/55/55 59/59/59
f 60/60/60 59/59/59 61/61/61
f 57/57/57 62/62/62 58/58/58
f 57/57/57 46/46/46 62/62/62
f 58/58/58 63/63/63 54/54/54
f 59/59/59 54/54/54 63/63/63
f 63/63/63 58/58/58 62/62/62
f 64/64/64 61/61/61 59/59/59
f 63/63/63 65/65/65 59/59/59
f 64/64/64 59/59/59 65/65/65
f 62/62/62 66/66/66 63/63/63
f 65/65/65 63/63/63 66/66/66
f 66/66/66 62/62/62 67/67/67
f 62/62/62 46/46/46 67/67/67
f 66/66/66 67/67/67 65/65/65
f 64/64/64 68/68/68 61/61/61
f 69/69/69 61/61/61 68/68/68
f 65/65/65 70/70/70 64/64/64
f 70/70/70 65/65/65 67/67/67
f 68/68/68 64/64/64 70/70/70
f 67/67/67 46/46/46 71/71/71
f 71/71/71 46/46/46 47/47/47
f 68/68/68 72/72/72 69/69/69
f 73/73/73 69/69/69 72/72/72
f 67/67/67 74/74/74 70/70/70
f 74/74/74 67/67/67 71/71/71
f 70/70/70 75/75/75 68/68/68
f 75/75/75 70/70/70 74/74/74
f 74/74/74 71/71/71 75/75/75
f 72/72/72 68/68/68 75/75/75
f 76/76/76 75/75/75 71/71/71
f 75/75/75 76/76/76 72/72/72
f 71/71/71 47/47/47 76/76/76
f 72/72/72 77/77/77 73/73/73
f 77/77/77 72/72/72 76/76/76
f 78/78/78 73/73/73 77/77/77
f 76/76/76 79/79/79 77/77/77
f 79/79/79 76/76/76 47/47/47
f 77/77/77 80/80/80 78/78/78
f 80/80/80 77/77/77 79/79/79
f 81/81/81 78/78/78 80/80/80
f 81/81/81 80/80/80 82/82/82
f 83/83/83 82/82/82 80/80/80
f 80/80/80 79/79/79 83/83/83
f 84/84/84 83/83/83 79/79/79
f 79/79/79 47/47/47 84/84/84
f 85/85/85 84/84/84 47/47/47
f 47/47/47 86/86/86 85/85/85
f 48/48/48 86/86/86 47/47/47
f 48/48/48 87/87/87 86/86/86
f 88/88/88 86/86/86 87/87/87
f 91/91/91 90/90/90 89/89/89
f 92/92/92 89/89/89 90/90/90
f 89/89/89 92/92/92 93/93/93
f 94/94/94 93/93/93 92/92/92
f 94/94/94 95/95/95 93/93/93
f 94/94/94 92/92/92 96/96/96
f 92/92/92 90/90/90 97/97/97
f 97/97/97 96/96/96 92/92/92
f 98/98/98 97/97/97 90/90/90
f 97/97/97 98/98/98 99/99/99
f 100/100/100 99/99/99 98/98/98
f 96/96/96 97/97/97 101/101/101
f 99/99/99 101/101/101 97/97/97
f 101/101/101 102/102/102 96/96/96
f 101/101/101 99/99/99 102/102/102
f 96/96/96 102/102/102 94/94/94
f 99/99/99 100/100/100 103/103/103
f 103/103/103 102/102/102 99/99/99
f 104/104/104 103/103/103 100/100/100
f 102/102/102 103/103/103 105/105/105
f 102/102/102 105/105/105 94/94/94
f 103/103/103 104/104/104 106/106/106
f 106/106/106 105/105/105 103/103/103
f 107/107/107 106/106/106 104/104/104
f 107/107/107 108/108/108 106/106/106
f 105/105/105 106/106/106 109/109/109
f 110/110/110 106/106/106 108/108/108
f 110/110/110 109/109/109 106/106/106
f 109/109/109 111/111/111 105/105/105
f 109/109/109 110/110/110 111/111/111
f 105/105/105 111/111/111 94/94/94
f 110/110/110 108/108/108 112/112/112
f 112/112/112 111/111/111 110/110/110
f 113/113/113 112/112/112 108/108/108
f 112/112/112 113/113/113 114/114/114
f 115/115/115 114/114/114 113/113/113
f 111/111/111 112/112/112 116/116/116
f 114/114/114 116/116/116 112/112/112
f 116/116/116 117/117/117 111/111/111
f 116/116/116 114/114/114 117/117/117
f 111/111/111 117/117/117 94/94/94
f 114/114/114 115/115/115 118/118/118
f 118/118/118 117/117/117 114/114/114
f 119/119/119 118/118/118 115/115/115
f 117/117/117 120/120/120 94/94/94
f 117/117/117 118/118/118 120/120/120
f 118/118/118 119/119/119 121/121/121
f 121/121/121 120/120/120 118/118/118
f 122/122/122 121/121/121 119/119/119
f 122/122/122 123/123/123 121/121/121
f 124/124/124 121/121/121 123/123/123
f 121/121/121 124/124/124 120/120/120
f 125/125/125 120/120/120 124/124/124
f 120/120/120 125/125/125 94/94/94
f 125/125/125 95/95/95 94/94/94
f 126/126/126 95/95/95 125/125/125
f 126/126/126 127/127/127 95/95/95
f 128/128/128 95/95/95 127/127/127
f 131/131/131 130/130/130 129/129/129
f 132/132/132 129/129/129 130/130/130
f 135/135/135 134/134/134 133/133/133
f 136/136/136 133/133/133 134/134/134
f 139/139/139 138/138/138 137/137/137
f 140/140/140 137/137/137 138/138/138
f 143/143/143 142/142/142 141/141/141
f 144/144/144 141/141/141 142/142/142
f 141/141/141 144/144/144 145/145/145
f 142/142/142 143/143/143 146/146/146
f 147/147/147 146/146/146 143/143/143
f 148/148/148 145/145/145 144/144/144
f 145/145/145 148/148/148 149/149/149
f 142/142/142 150/150/150 144/144/144
f 150/150/150 142/142/142 146/146/146
f 146/146/146 147/147/147 151/151/151
f 152/152/152 151/151/151 147/147/147
f 153/153/153 149/149/149 148/148/148
f 149/149/149 153/153/153 154/154/154
f 155/155/155 148/148/148 144/144/144
f 155/155/155 144/144/144 150/150/150
f 148/148/148 155/155/155 153/153/153
f 150/150/150 146/146/146 156/156/156
f 151/151/151 156/156/156 146/146/146
f 156/156/156 155/155/155 150/150/150
f 151/151/151 152/152/152 157/157/157
f 156/156/156 151/151/151 157/157/157
f 158/158/158 157/157/157 152/152/152
f 159/159/159 154/154/154 153/153/153
f 154/154/154 159/159/159 160/160/160
f 161/161/161 153/153/153 155/155/155
f 161/161/161 159/159/159 153/153/153
f 162/162/162 160/160/160 159/159/159
f 159/159/159 161/161/161 162/162/162
f 160/160/160 162/162/162 163/163/163
f 161/161/161 155/155/155 164/164/164
f 164/164/164 155/155/155 156/156/156
f 164/164/164 162/162/162 161/161/161
f 165/165/165 163/163/163 162/162/162
f 164/164/164 165/165/165 162/162/162
f 163/163/163 165/165/165 166/166/166
f 167/167/167 166/166/166 165/165/165
f 165/165/165 164/164/164 167/167/167
f 166/166/166 167/167/167 168/168/168
f 168/168/168 169/169/169 158/158/158
f 169/169/169 168/168/168 167/167/167
f 157/157/157 158/158/158 169/169/169
f 170/170/170 164/164/164 156/156/156
f 170/170/170 167/167/167 164/164/164
f 170/170/170 169/169/169 167/167/167
f 156/156/156 157/157/157 170/170/170
f 169/169/169 170/170/170 157/157/157
