g WoodenTile-L1-Broken-P7
v -0.2688546 -0.007833102 0.2208605
v -0.2688546 0.3328836 0.7589548
v -0.2688546 0.3328835 0.2208606
v -0.2688546 -0.007833149 -0.07060945
v -0.2688546 0.3328834 0.01299484
v -0.2688546 0.3328834 -0.1328063
v -0.2688546 -0.007833149 -0.07060945
v -0.4452083 -0.007833146 -0.01243982
v -0.4096494 -0.00783316 -0.1083353
v -0.4604321 0.3841587 0.3258068
v -0.3686386 0.3841586 0.0782579
v -0.4472024 0.3841587 0.2901289
v -0.2879555 0.3757014 -0.1457406
v -0.2737039 0.3571531 -0.138536
v -0.2852075 0.3739714 -0.1446885
v -0.2688546 -0.007833149 -0.07060945
v -0.2688546 0.3328834 -0.1328063
v -0.4452083 -0.007833146 -0.01243982
v -0.2737039 0.3571531 -0.138536
v -0.2879555 0.3757014 -0.1457406
v -0.2688546 -0.007833149 -0.07060945
v -0.2737039 0.3571531 -0.138536
v -0.4452083 -0.007833146 -0.01243982
v -0.6389213 0.05106583 0.5546207
v -0.5176842 -0.007833012 0.7677643
v -0.6291928 -0.007833044 0.5717242
v -0.6487008 -0.007833051 0.5363395
v -0.5909599 0.3328835 0.6389403
v -0.5176842 -0.007833012 0.7677643
v -0.6389213 0.05106583 0.5546207
v -0.5176842 0.3328836 0.7677642
v -0.5849765 0.3571532 0.6412044
v -0.4991201 0.3328836 0.7921871
v -0.4991201 -0.007833009 0.7921873
v -0.5149888 0.3571533 0.7646137
v -0.4752309 0.3328836 0.810623
v -0.4752309 -0.007833006 0.8106232
v -0.5069919 0.3739717 0.7569743
v -0.577245 0.3739716 0.6331049
v -0.4969557 0.3571533 0.7884767
v -0.4941045 0.3841588 0.746017
v -0.5682913 0.3841587 0.6166822
v -0.4604321 0.3841587 0.3258068
v -0.3013895 0.3841587 0.2198087
v -0.3038468 0.3841588 0.7693714
v -0.4472024 0.3841587 0.2901289
v -0.4179007 0.3841588 0.7911107
v -0.3686386 0.3841586 0.0782579
v -0.3013895 0.3841586 0.01439069
v -0.3470301 0.3841586 0.0199839
v -0.3437999 0.3841586 0.01127278
v -0.3427763 0.3841586 0.00851237
v -0.3013895 0.3841586 -0.1030997
v -0.2852075 0.3739714 -0.1446885
v -0.2879555 0.3757014 -0.1457406
v -0.2852075 0.3739715 0.01348115
v -0.2737039 0.3571531 -0.138536
v -0.2737039 0.3571531 0.01314098
v -0.2688546 0.3328834 -0.1328063
v -0.2688546 0.3328834 0.01299484
v -0.2852076 0.3739715 0.2199923
v -0.2737039 0.3571531 0.2205379
v -0.2852076 0.3739717 0.7541649
v -0.3013895 0.3841588 0.7506352
v -0.273704 0.3571533 0.7573146
v -0.2891948 0.3739716 0.7770095
v -0.2688546 0.3328835 0.2208606
v -0.2688546 -0.007833135 0.0129948
v -0.2688546 -0.007833149 -0.07060945
v -0.2688546 -0.007833102 0.2208605
v -0.2688546 0.3328836 0.7589548
v -0.2688546 -0.007833014 0.758955
v -0.274155 -0.00783301 0.7851672
v -0.2786572 0.3571533 0.7826659
v -0.274155 0.3328836 0.785167
v -0.2886045 -0.007833006 0.8065856
v -0.2886045 0.3328836 0.8065854
v -0.310026 -0.007833004 0.8210331
v -0.292382 0.3571532 0.8031241
v -0.3009408 0.3739717 0.7946522
v -0.310026 0.3328836 0.8210329
v -0.336242 -0.007833003 0.8263326
v -0.3127241 0.3571532 0.8169272
v -0.336242 0.3328836 0.8263324
v -0.4169829 -0.007833003 0.8263326
v -0.3125051 0.3841588 0.782385
v -0.3252973 0.3841588 0.7911929
v -0.3183348 0.3739716 0.8065662
v -0.3379318 0.3571532 0.8219085
v -0.4169829 0.3328836 0.8263324
v -0.4473931 -0.007833004 0.8222718
v -0.3437147 0.3841588 0.7936928
v -0.3408575 0.3739716 0.8106104
v -0.4175432 0.3571532 0.8216197
v -0.4180357 0.3739716 0.8094586
v -0.4473931 0.3328836 0.8222716
v -0.4470836 0.3571532 0.817652
v -0.4739232 0.3571532 0.8063554
v -0.4453474 0.3739716 0.8057589
v -0.4419154 0.3841588 0.7878479
v -0.4621125 0.3841588 0.779249
v -0.4695499 0.3739717 0.7954851
v -0.4903193 0.3739717 0.7792255
v -0.4794446 0.3841588 0.76564
v -0.2688546 -0.007833102 0.2208605
v -0.274155 -0.00783301 0.7851672
v -0.2688546 -0.007833014 0.758955
v -0.310026 -0.007833004 0.8210331
v -0.2886045 -0.007833006 0.8065856
v -0.6487008 -0.007833051 0.5363395
v -0.4502772 -0.007833141 0.001229888
v -0.2688546 -0.007833135 0.0129948
v -0.4452083 -0.007833146 -0.01243982
v -0.4096494 -0.00783316 -0.1083353
v -0.2688546 -0.007833149 -0.07060945
v -0.4752309 -0.007833006 0.8106232
v -0.4169829 -0.007833003 0.8263326
v -0.336242 -0.007833003 0.8263326
v -0.4473931 -0.007833004 0.8222718
v -0.5176842 -0.007833012 0.7677643
v -0.4991201 -0.007833009 0.7921873
v -0.6291928 -0.007833044 0.5717242
v -0.4502772 -0.007833141 0.001229888
v -0.6389213 0.05106583 0.5546207
v -0.6487008 -0.007833051 0.5363395
v -0.4452083 -0.007833146 -0.01243982
v -0.5682913 0.3841587 0.6166822
v -0.2879555 0.3757014 -0.1457406
v -0.5849765 0.3571532 0.6412044
v -0.5909599 0.3328835 0.6389403
v -0.577245 0.3739716 0.6331049
v -0.4604321 0.3841587 0.3258068
v -0.3686386 0.3841586 0.0782579
v -0.3470301 0.3841586 0.0199839
v -0.3437999 0.3841586 0.01127278
v -0.3427763 0.3841586 0.00851237
v -0.3013895 0.3841586 -0.1030997
vt 0.4489746 0.2049561
vt 0.4489746 0.02537537
vt 0.4489746 0.2049561
vt 0.4489746 0.3022461
vt 0.4489746 0.2741699
vt 0.4489746 0.322998
vt 0.5791016 0.581543
vt 0.5712891 0.578125
vt 0.5727539 0.5834961
vt 0.5703125 0.5605469
vt 0.574707 0.5737305
vt 0.5712891 0.5625
vt 0.578125 0.5849609
vt 0.5791016 0.5849609
vt 0.5786133 0.5849609
vt 0.5791016 0.581543
vt 0.5791016 0.5844727
vt 0.5712891 0.578125
vt 0.5791016 0.5849609
vt 0.578125 0.5849609
vt 0.5791016 0.581543
vt 0.5791016 0.5849609
vt 0.5712891 0.578125
vt 0.333252 0.09356689
vt 0.3710938 0.02243042
vt 0.3364258 0.08782959
vt 0.3303223 0.09967041
vt 0.3483887 0.06542969
vt 0.3710938 0.02243042
vt 0.333252 0.09356689
vt 0.3710938 0.02243042
vt 0.3500977 0.06463623
vt 0.3769531 0.01428986
vt 0.3769531 0.01428986
vt 0.3720703 0.02348328
vt 0.3845215 0.008132935
vt 0.3845215 0.008132935
vt 0.3745117 0.02603149
vt 0.3525391 0.06738281
vt 0.3776855 0.01552582
vt 0.3786621 0.0296936
vt 0.3554688 0.07287598
vt 0.3891602 0.1699219
vt 0.4389648 0.2053223
vt 0.4379883 0.02189636
vt 0.3933105 0.1817627
vt 0.4023438 0.01464844
vt 0.4177246 0.2524414
vt 0.4389648 0.2739258
vt 0.4245605 0.2719727
vt 0.4255371 0.2749023
vt 0.4260254 0.2758789
vt 0.4389648 0.3129883
vt 0.4438477 0.3269043
vt 0.4431152 0.3271484
vt 0.4438477 0.2741699
vt 0.4475098 0.3249512
vt 0.4475098 0.2741699
vt 0.4489746 0.322998
vt 0.4489746 0.2741699
vt 0.4438477 0.2052002
vt 0.4475098 0.2050781
vt 0.4438477 0.02697754
vt 0.4389648 0.02815247
vt 0.4475098 0.02592468
vt 0.442627 0.01934814
vt 0.4489746 0.2049561
vt 0.4489746 0.2741699
vt 0.4489746 0.3022461
vt 0.4489746 0.2049561
vt 0.4489746 0.02537537
vt 0.4489746 0.02537537
vt 0.4472656 0.01663208
vt 0.4460449 0.01747131
vt 0.4472656 0.01663208
vt 0.4428711 0.009483337
vt 0.4428711 0.009483337
vt 0.4360352 0.00466156
vt 0.4416504 0.01063538
vt 0.4389648 0.01346588
vt 0.4360352 0.00466156
vt 0.4279785 0.002893448
vt 0.4353027 0.006031036
vt 0.4279785 0.002893448
vt 0.4025879 0.002893448
vt 0.4353027 0.01756287
vt 0.4313965 0.01461792
vt 0.4335938 0.009490967
vt 0.4274902 0.004367828
vt 0.4025879 0.002893448
vt 0.3930664 0.004249573
vt 0.4255371 0.01378632
vt 0.4265137 0.008140564
vt 0.4025879 0.00446701
vt 0.4023438 0.008522034
vt 0.3930664 0.004249573
vt 0.3933105 0.00579071
vt 0.3850098 0.009559631
vt 0.3937988 0.009757996
vt 0.3950195 0.01573181
vt 0.3886719 0.01860046
vt 0.3862305 0.01318359
vt 0.3798828 0.01861572
vt 0.3830566 0.02314758
vt 0.15979 0.9057617
vt 0.1590576 0.9833984
vt 0.15979 0.9794922
vt 0.1541748 0.9882813
vt 0.1571045 0.9863281
vt 0.1063843 0.9453125
vt 0.1396484 0.8769531
vt 0.1602783 0.8769531
vt 0.1398926 0.875
vt 0.1436768 0.8613281
vt 0.1602783 0.8657227
vt 0.1314697 0.9868164
vt 0.1394043 0.9887695
vt 0.1505127 0.9887695
vt 0.1352539 0.9882813
vt 0.1256104 0.980957
vt 0.1281738 0.984375
vt 0.107666 0.9492188
vt 0.5708008 0.5776367
vt 0.5625 0.5488281
vt 0.5620117 0.5498047
vt 0.5712891 0.578125
vt 0.5654297 0.5454102
vt 0.578125 0.5849609
vt 0.5649414 0.5444336
vt 0.5644531 0.5444336
vt 0.5654297 0.5449219
vt 0.5703125 0.5605469
vt 0.574707 0.5737305
vt 0.5756836 0.5766602
vt 0.5756836 0.5771484
vt 0.5756836 0.5771484
vt 0.5776367 0.5830078
vn 1 0 0
vn 0.9902344 0.09973145 0.09967041
vn 0.9951172 0.09844971 0
vn 1 0 0
vn 0.9951172 0.09844971 0
vn 0.9936523 0.1110229 0
vn 0 1 -1.788139E-07
vn 0 1 -1.788139E-07
vn 0 1 -1.788139E-07
vn -0.90625 -0.2561035 -0.3361816
vn -0.90625 -0.2561035 -0.3361816
vn -0.90625 -0.2561035 -0.3361816
vn 0.2548828 -0.1737061 -0.9511719
vn 0.2548828 -0.1737061 -0.9511719
vn 0.2548828 -0.1737061 -0.9511719
vn 0.2548828 -0.1737061 -0.9511719
vn 0.2548828 -0.1737061 -0.9511719
vn 0.03259277 -0.3400879 -0.9399414
vn 0.03259277 -0.3400879 -0.9399414
vn 0.03259277 -0.3400879 -0.9399414
vn -0.3083496 -0.1779785 -0.9345703
vn -0.3083496 -0.1779785 -0.9345703
vn -0.3083496 -0.1779785 -0.9345703
vn -0.8706055 -0.0009336472 0.4919434
vn -0.8344727 1.788139E-07 0.5507813
vn -0.8720703 -0.001767159 0.4897461
vn -0.8754883 -0.004447937 0.4829102
vn -0.8671875 0.06976318 0.4931641
vn -0.8344727 1.788139E-07 0.5507813
vn -0.8706055 -0.0009336472 0.4919434
vn -0.831543 0.08123779 0.5498047
vn -0.8125 0.3564453 0.4614258
vn -0.7060547 0.08441162 0.703125
vn -0.7094727 2.980232E-07 0.7045898
vn -0.7797852 0.3571777 0.5141602
vn -0.4997559 0.08825684 0.8618164
vn -0.5029297 3.576279E-07 0.8642578
vn -0.5874023 0.7124023 0.3840332
vn -0.5883789 0.7353516 0.3354492
vn -0.6621094 0.3642578 0.6547852
vn -0.2346191 0.9599609 0.1519775
vn -0.1575928 0.9833984 0.09039307
vn 0 1 0
vn 0.2773438 0.9609375 -1.788139E-07
vn 0.2878418 0.9516602 0.1070557
vn 7.152557E-07 1 1.013279E-06
vn -0.02052307 0.965332 0.2592773
vn 0 1 -1.788139E-07
vn 0.2773438 0.9609375 -1.788139E-07
vn 0 1 0
vn 0 1 0
vn 0 1 -1.192093E-07
vn 0.4799805 0.8774414 -2.384186E-07
vn 0.6645508 0.7475586 5.364418E-07
vn 0.5327148 0.8461914 1.370907E-06
vn 0.6933594 0.7202148 -1.192093E-07
vn 0.9082031 0.418457 -1.192093E-07
vn 0.9213867 0.3881836 0
vn 0.9936523 0.1110229 0
vn 0.9951172 0.09844971 0
vn 0.6933594 0.7202148 0
vn 0.9213867 0.3881836 0
vn 0.6938477 0.7182617 0.05618286
vn 0.2849121 0.9584961 0.01699829
vn 0.9169922 0.3886719 0.08734131
vn 0.6469727 0.7172852 0.2595215
vn 0.9951172 0.09844971 0
vn 1 0 0
vn 1 0 0
vn 1 0 0
vn 0.9902344 0.09973145 0.09967041
vn 0.9951172 0 0.09960938
vn 0.9223633 1.788139E-07 0.3862305
vn 0.8496094 0.3916016 0.3530273
vn 0.9169922 0.1021729 0.3850098
vn 0.7070313 2.980232E-07 0.7070313
vn 0.7041016 0.1021118 0.7026367
vn 0.3862305 4.172325E-07 0.9223633
vn 0.6513672 0.3937988 0.6484375
vn 0.4914551 0.722168 0.4865723
vn 0.3857422 0.09747314 0.9174805
vn 0.09954834 4.172325E-07 0.9951172
vn 0.3540039 0.3845215 0.8525391
vn 0.09997559 0.09295654 0.9907227
vn -0.06634521 4.172325E-07 0.9975586
vn 0.213501 0.9545898 0.208252
vn 0.1072388 0.9526367 0.2854004
vn 0.2585449 0.7177734 0.6464844
vn 0.08782959 0.3796387 0.9208984
vn -0.06542969 0.09454346 0.9931641
vn -0.2614746 4.172325E-07 0.965332
vn 0.01577759 0.9594727 0.2814941
vn 0.05484009 0.7216797 0.6899414
vn -0.06213379 0.3920898 0.9179688
vn -0.04876709 0.7416992 0.6689453
vn -0.2592773 0.09191895 0.9614258
vn -0.2423096 0.3842773 0.8911133
vn -0.4675293 0.3747559 0.8007813
vn -0.1812744 0.734375 0.6542969
vn -0.07409668 0.9619141 0.2624512
vn -0.1433105 0.9604492 0.237793
vn -0.3503418 0.7260742 0.5913086
vn -0.4992676 0.7167969 0.4868164
vn -0.2050781 0.9589844 0.1964111
vn 0 -1 1.788139E-07
vn 0 -1 1.788139E-07
vn 0 -1 1.788139E-07
vn 0 -1 1.788139E-07
vn 0 -1 1.788139E-07
vn 0 -1 1.788139E-07
vn 0 -1 2.980232E-07
vn 0 -1 1.788139E-07
vn 0 -1 2.980232E-07
vn 0 -1 1.788139E-07
vn 0 -1 1.788139E-07
vn 0 -1 1.788139E-07
vn 0 -1 1.192093E-07
vn 0 -1 1.192093E-07
vn 0 -1 1.788139E-07
vn 0 -1 1.788139E-07
vn 0 -1 1.788139E-07
vn -1.370907E-06 -1 9.536743E-07
vn -0.9067383 0.2548828 -0.3361816
vn -0.9067383 0.2548828 -0.3361816
vn -0.9067383 0.2548828 -0.3361816
vn -0.9067383 0.2548828 -0.3361816
vn -0.9067383 0.2548828 -0.3361816
vn -0.9067383 0.2548828 -0.3361816
vn -0.9067383 0.2548828 -0.3361816
vn -0.9067383 0.2548828 -0.3361816
vn -0.9067383 0.2548828 -0.3361816
vn -0.9067383 0.2548828 -0.3361816
vn -0.9067383 0.2548828 -0.3361816
vn -0.9067383 0.2548828 -0.3361816
vn -0.9067383 0.2546387 -0.3361816
vn -0.9067383 0.2548828 -0.3361816
vn -0.9067383 0.2548828 -0.3361816
g WoodenTile-L1-Broken-P7_0
f 3/3/3 2/2/2 1/1/1
f 6/6/6 5/5/5 4/4/4
f 9/9/9 8/8/8 7/7/7
f 12/12/12 11/11/11 10/10/10
f 15/15/15 14/14/14 13/13/13
f 14/14/14 17/17/17 16/16/16
f 20/20/20 19/19/19 18/18/18
f 23/23/23 22/22/22 21/21/21
f 26/26/26 25/25/25 24/24/24
f 26/26/26 24/24/24 27/27/27
f 30/30/30 29/29/29 28/28/28
f 28/28/28 29/29/29 31/31/31
f 28/28/28 31/31/31 32/32/32
f 31/31/31 29/29/29 33/33/33
f 34/34/34 33/33/33 29/29/29
f 35/35/35 32/32/32 31/31/31
f 31/31/31 33/33/33 35/35/35
f 33/33/33 34/34/34 36/36/36
f 37/37/37 36/36/36 34/34/34
f 35/35/35 38/38/38 32/32/32
f 39/39/39 32/32/32 38/38/38
f 40/40/40 35/35/35 33/33/33
f 33/33/33 36/36/36 40/40/40
f 35/35/35 40/40/40 38/38/38
f 38/38/38 41/41/41 39/39/39
f 42/42/42 39/39/39 41/41/41
f 41/41/41 43/43/43 42/42/42
f 44/44/44 43/43/43 41/41/41
f 45/45/45 44/44/44 41/41/41
f 44/44/44 46/46/46 43/43/43
f 47/47/47 45/45/45 41/41/41
f 46/46/46 44/44/44 48/48/48
f 49/49/49 48/48/48 44/44/44
f 49/49/49 50/50/50 48/48/48
f 49/49/49 51/51/51 50/50/50
f 49/49/49 52/52/52 51/51/51
f 49/49/49 53/53/53 52/52/52
f 53/53/53 49/49/49 54/54/54
f 55/55/55 53/53/53 54/54/54
f 54/54/54 49/49/49 56/56/56
f 49/49/49 44/44/44 56/56/56
f 54/54/54 56/56/56 57/57/57
f 58/58/58 57/57/57 56/56/56
f 57/57/57 58/58/58 59/59/59
f 60/60/60 59/59/59 58/58/58
f 56/56/56 61/61/61 58/58/58
f 61/61/61 56/56/56 44/44/44
f 58/58/58 62/62/62 60/60/60
f 62/62/62 58/58/58 61/61/61
f 61/61/61 44/44/44 63/63/63
f 64/64/64 63/63/63 44/44/44
f 64/64/64 44/44/44 45/45/45
f 64/64/64 45/45/45 63/63/63
f 63/63/63 65/65/65 61/61/61
f 62/62/62 61/61/61 65/65/65
f 66/66/66 63/63/63 45/45/45
f 63/63/63 66/66/66 65/65/65
f 67/67/67 60/60/60 62/62/62
f 60/60/60 67/67/67 68/68/68
f 68/68/68 69/69/69 60/60/60
f 70/70/70 68/68/68 67/67/67
f 67/67/67 62/62/62 71/71/71
f 65/65/65 71/71/71 62/62/62
f 72/72/72 70/70/70 71/71/71
f 72/72/72 71/71/71 73/73/73
f 65/65/65 74/74/74 71/71/71
f 74/74/74 65/65/65 66/66/66
f 75/75/75 73/73/73 71/71/71
f 75/75/75 71/71/71 74/74/74
f 73/73/73 75/75/75 76/76/76
f 77/77/77 76/76/76 75/75/75
f 76/76/76 77/77/77 78/78/78
f 74/74/74 79/79/79 75/75/75
f 77/77/77 75/75/75 79/79/79
f 66/66/66 80/80/80 74/74/74
f 79/79/79 74/74/74 80/80/80
f 81/81/81 78/78/78 77/77/77
f 78/78/78 81/81/81 82/82/82
f 79/79/79 83/83/83 77/77/77
f 81/81/81 77/77/77 83/83/83
f 84/84/84 82/82/82 81/81/81
f 82/82/82 84/84/84 85/85/85
f 80/80/80 66/66/66 86/86/86
f 45/45/45 86/86/86 66/66/66
f 86/86/86 45/45/45 87/87/87
f 86/86/86 87/87/87 80/80/80
f 87/87/87 45/45/45 47/47/47
f 80/80/80 88/88/88 79/79/79
f 88/88/88 80/80/80 87/87/87
f 83/83/83 79/79/79 88/88/88
f 83/83/83 89/89/89 81/81/81
f 84/84/84 81/81/81 89/89/89
f 90/90/90 85/85/85 84/84/84
f 85/85/85 90/90/90 91/91/91
f 87/87/87 92/92/92 88/88/88
f 92/92/92 87/87/87 47/47/47
f 88/88/88 93/93/93 83/83/83
f 93/93/93 88/88/88 92/92/92
f 89/89/89 83/83/83 93/93/93
f 92/92/92 47/47/47 93/93/93
f 89/89/89 94/94/94 84/84/84
f 90/90/90 84/84/84 94/94/94
f 93/93/93 95/95/95 89/89/89
f 95/95/95 93/93/93 47/47/47
f 94/94/94 89/89/89 95/95/95
f 96/96/96 91/91/91 90/90/90
f 91/91/91 96/96/96 37/37/37
f 36/36/36 37/37/37 96/96/96
f 94/94/94 97/97/97 90/90/90
f 96/96/96 90/90/90 97/97/97
f 36/36/36 96/96/96 98/98/98
f 97/97/97 98/98/98 96/96/96
f 98/98/98 40/40/40 36/36/36
f 95/95/95 99/99/99 94/94/94
f 97/97/97 94/94/94 99/99/99
f 47/47/47 100/100/100 95/95/95
f 99/99/99 95/95/95 100/100/100
f 100/100/100 47/47/47 101/101/101
f 100/100/100 101/101/101 99/99/99
f 101/101/101 47/47/47 41/41/41
f 99/99/99 102/102/102 97/97/97
f 98/98/98 97/97/97 102/102/102
f 102/102/102 99/99/99 101/101/101
f 40/40/40 98/98/98 103/103/103
f 102/102/102 103/103/103 98/98/98
f 103/103/103 38/38/38 40/40/40
f 38/38/38 103/103/103 41/41/41
f 101/101/101 104/104/104 102/102/102
f 104/104/104 101/101/101 41/41/41
f 104/104/104 41/41/41 103/103/103
f 103/103/103 102/102/102 104/104/104
f 107/107/107 106/106/106 105/105/105
f 106/106/106 108/108/108 105/105/105
f 109/109/109 108/108/108 106/106/106
f 108/108/108 110/110/110 105/105/105
f 110/110/110 111/111/111 105/105/105
f 105/105/105 111/111/111 112/112/112
f 111/111/111 113/113/113 112/112/112
f 113/113/113 114/114/114 112/112/112
f 115/115/115 112/112/112 114/114/114
f 116/116/116 110/110/110 108/108/108
f 117/117/117 116/116/116 108/108/108
f 118/118/118 117/117/117 108/108/108
f 119/119/119 116/116/116 117/117/117
f 120/120/120 110/110/110 116/116/116
f 121/121/121 120/120/120 116/116/116
f 122/122/122 110/110/110 120/120/120
f 125/125/125 124/124/124 123/123/123
f 123/123/123 124/124/124 126/126/126
f 124/124/124 127/127/127 126/126/126
f 127/127/127 128/128/128 126/126/126
f 129/129/129 127/127/127 124/124/124
f 130/130/130 129/129/129 124/124/124
f 131/131/131 127/127/127 129/129/129
f 132/132/132 128/128/128 127/127/127
f 133/133/133 128/128/128 132/132/132
f 134/134/134 128/128/128 133/133/133
f 135/135/135 128/128/128 134/134/134
f 136/136/136 128/128/128 135/135/135
f 137/137/137 128/128/128 136/136/136
